<svg width="453" height="265" viewBox="0 0 453 265" fill="none" xmlns="http://www.w3.org/2000/svg">
<path d="M451.99 129.857C451.99 129.751 451.99 129.645 451.99 129.434C451.99 128.484 451.885 127.533 451.885 126.688C451.885 126.583 451.885 126.583 451.885 126.477C451.885 126.266 451.885 125.949 451.779 125.738C451.779 125.104 451.674 124.471 451.674 123.837C451.674 123.626 451.674 123.415 451.568 123.204C451.568 122.781 451.462 122.359 451.462 122.042C451.462 121.619 451.357 121.303 451.357 120.88C451.357 120.563 451.251 120.141 451.251 119.824C451.146 119.402 451.146 118.979 451.04 118.557C451.04 118.346 450.934 118.134 450.934 117.818C450.829 117.29 450.723 116.762 450.618 116.234C450.512 115.811 450.512 115.494 450.406 115.072C450.406 114.966 450.406 114.861 450.301 114.755C450.09 113.91 449.984 112.96 449.773 112.115C449.773 112.009 449.667 111.798 449.667 111.693C449.456 110.637 449.139 109.58 448.928 108.524C448.928 108.419 448.928 108.419 448.822 108.313C448.717 107.996 448.611 107.574 448.506 107.257C448.294 106.624 448.189 105.99 447.977 105.356C447.977 105.145 447.872 105.039 447.872 104.828C447.766 104.406 447.661 103.983 447.449 103.561C447.344 103.139 447.238 102.611 447.027 102.188C446.921 101.871 446.816 101.66 446.816 101.343C446.71 100.921 446.499 100.498 446.393 100.076C446.288 99.7592 446.182 99.4424 446.077 99.1256C445.971 98.7032 445.76 98.2808 445.654 97.964C445.549 97.5415 445.337 97.1191 445.232 96.6967C445.126 96.4855 445.126 96.2743 445.021 96.0631C444.809 95.4294 444.598 94.7958 444.281 94.1622C444.176 93.8454 444.07 93.6341 443.964 93.3173C443.964 93.2117 443.859 93.2117 443.859 93.1061C443.436 92.1557 443.12 91.2052 442.697 90.2548C442.697 90.1492 442.592 90.1492 442.592 90.0436C442.486 89.8324 442.38 89.5156 442.275 89.3043C441.958 88.6707 441.747 88.0371 441.43 87.4035C441.324 87.1923 441.219 86.981 441.113 86.7698C440.902 86.3474 440.796 86.0306 440.585 85.6082C440.374 85.1858 440.268 84.8689 440.057 84.4465C439.952 84.1297 439.74 83.8129 439.635 83.4961C439.423 82.9681 439.212 82.5456 438.895 82.1232C438.79 81.8064 438.684 81.5952 438.473 81.2784C438.262 80.856 438.051 80.5391 437.945 80.1167C437.628 79.5887 437.417 79.0607 437.1 78.5327C436.995 78.3214 436.889 78.1102 436.783 77.899C436.678 77.6878 436.572 77.4766 436.467 77.2654C435.727 75.8925 434.988 74.5197 434.249 73.2524C434.143 73.0412 434.038 72.9356 433.932 72.7244C433.932 72.6188 433.826 72.6188 433.826 72.5132C433.193 71.3515 432.559 70.2955 431.82 69.2394C431.714 69.1338 431.714 69.0282 431.609 68.9226C430.869 67.761 430.13 66.4937 429.285 65.332C429.285 65.2264 429.18 65.2264 429.18 65.1208C429.074 65.0152 428.969 64.9096 428.969 64.6984C428.018 63.2199 426.962 61.7415 425.906 60.263C425.8 60.0518 425.695 59.9462 425.484 59.735C425.378 59.6294 425.272 59.5238 425.167 59.4182C424.639 58.6789 424.111 57.9397 423.477 57.2005C423.266 56.8837 422.949 56.5668 422.738 56.25C422.632 56.1444 422.632 56.1444 422.527 56.0388C422.21 55.6164 421.893 55.2996 421.576 54.8772C421.154 54.3491 420.837 53.9267 420.415 53.3987C420.309 53.2931 420.203 53.1875 420.098 53.0819C419.781 52.6595 419.464 52.3426 419.147 51.9202C418.831 51.4978 418.408 51.0754 418.091 50.653C417.986 50.5474 417.774 50.3362 417.669 50.2305C417.352 49.8081 416.93 49.4913 416.613 49.0689C416.296 48.7521 415.979 48.4353 415.662 48.0128C415.451 47.8016 415.346 47.5904 415.134 47.4848C414.712 47.0624 414.395 46.7456 413.973 46.3232C413.761 46.0064 413.445 45.7951 413.233 45.4783C413.022 45.2671 412.811 45.0559 412.6 44.8447C412.177 44.4223 411.755 44.1055 411.438 43.6831C411.227 43.4718 411.016 43.2606 410.699 43.0494C410.488 42.8382 410.171 42.627 409.96 42.3102C409.537 41.8878 409.115 41.571 408.692 41.1485C408.481 40.9373 408.27 40.7261 408.059 40.5149C407.742 40.3037 407.531 39.9869 407.214 39.7757C406.792 39.3533 406.369 39.0364 405.947 38.614C405.736 38.4028 405.524 38.2972 405.419 38.086C405.102 37.7692 404.785 37.558 404.468 37.3468C404.046 37.0299 403.623 36.7131 403.201 36.3963C402.99 36.2907 402.884 36.1851 402.673 35.9739C402.251 35.6571 401.934 35.3403 401.511 35.1291C401.089 34.8122 400.772 34.4954 400.35 34.2842C400.244 34.1786 400.138 34.073 400.033 33.9674C399.505 33.545 398.977 33.2282 398.449 32.9114C398.132 32.7001 397.815 32.4889 397.498 32.2777C397.393 32.2777 397.393 32.1721 397.287 32.1721C396.442 31.5385 395.597 31.0105 394.753 30.4824C394.753 30.4824 394.753 30.4824 394.647 30.4824C394.541 30.3768 394.33 30.2712 394.225 30.2712C393.591 29.8488 392.852 29.4264 392.218 29.004C392.007 28.8984 391.796 28.7928 391.584 28.6872C390.951 28.2647 390.317 27.9479 389.684 27.6311C389.472 27.5255 389.156 27.4199 388.944 27.2087C388.628 26.9975 388.311 26.8919 387.994 26.6807C387.783 26.5751 387.466 26.3639 387.255 26.2582C386.832 26.047 386.41 25.8358 386.093 25.7302C385.776 25.6246 385.459 25.4134 385.248 25.3078C385.143 25.2022 385.037 25.2022 384.931 25.0966C384.087 24.7798 383.347 24.3574 382.502 24.0405C381.658 23.7237 380.918 23.4069 380.074 23.0901C379.968 23.0901 379.862 22.9845 379.757 22.9845C379.44 22.8789 379.229 22.7733 378.912 22.6677C378.489 22.5621 378.067 22.3509 377.645 22.2453C377.433 22.1397 377.222 22.1397 377.011 22.0341C376.694 21.9284 376.272 21.8228 375.955 21.7172C375.638 21.6116 375.427 21.6116 375.11 21.506C374.793 21.4004 374.582 21.4004 374.265 21.2948C373.948 21.1892 373.526 21.0836 373.209 21.0836C372.998 21.0836 372.787 20.978 372.681 20.978C372.364 20.8724 372.048 20.8724 371.731 20.7668C371.308 20.6612 370.886 20.6612 370.569 20.5556C370.463 20.5556 370.252 20.5556 370.147 20.45C369.83 20.45 369.513 20.3444 369.196 20.3444C368.774 20.3444 368.351 20.2388 367.823 20.2388C367.718 20.2388 367.612 20.2388 367.401 20.2388C367.084 20.2388 366.767 20.2388 366.556 20.2388C366.028 20.2388 365.606 20.2388 365.078 20.2388C364.972 20.2388 364.761 20.2388 364.655 20.2388C364.444 20.2388 364.233 20.2388 364.022 20.2388C363.388 20.2388 362.754 20.2388 362.121 20.3444C361.91 20.3444 361.698 20.3444 361.593 20.3444C361.276 20.3444 361.065 20.45 360.748 20.45C360.537 20.45 360.325 20.45 360.22 20.5556C359.481 20.6612 358.847 20.7668 358.108 20.8724C358.108 20.8724 358.108 20.8724 358.002 20.8724C357.791 20.8724 357.58 20.978 357.474 20.978C356.946 21.0836 356.312 21.1892 355.784 21.4004C355.468 21.506 355.256 21.6116 354.94 21.6116C354.623 21.7172 354.2 21.8228 353.884 21.9284C353.778 21.9284 353.672 22.0341 353.567 22.0341C353.039 22.2453 352.511 22.4565 351.983 22.6677C351.771 22.7733 351.455 22.8789 351.243 22.9845C350.504 23.3013 349.765 23.7237 349.026 24.1461L319.984 42.099C320.724 41.6766 321.463 41.2541 322.202 40.9373C322.413 40.8317 322.73 40.7261 322.941 40.6205C323.469 40.4093 323.997 40.1981 324.525 39.9869C324.948 39.8813 325.37 39.6701 325.793 39.5645C326.109 39.4589 326.321 39.3532 326.637 39.3532C327.165 39.2476 327.799 39.0364 328.327 38.9308C328.538 38.9308 328.75 38.8252 328.855 38.8252C329.594 38.7196 330.334 38.614 331.073 38.5084C331.284 38.5084 331.495 38.5084 331.707 38.4028C332.129 38.4028 332.657 38.2972 333.079 38.2972C333.713 38.2972 334.347 38.1916 334.98 38.1916C335.297 38.1916 335.72 38.1916 336.036 38.1916C336.564 38.1916 336.987 38.1916 337.515 38.1916C337.937 38.1916 338.36 38.1916 338.782 38.2972C339.204 38.2972 339.627 38.4028 340.155 38.4028C340.577 38.4028 341.105 38.5084 341.528 38.614C341.95 38.7196 342.373 38.7196 342.689 38.8252C343.217 38.9308 343.745 39.0364 344.273 39.142C344.59 39.2476 345.013 39.2476 345.33 39.3532C345.858 39.4589 346.386 39.5645 347.019 39.7757C347.336 39.8813 347.758 39.9869 348.075 40.0925C348.709 40.3037 349.343 40.4093 349.871 40.6205C350.187 40.7261 350.399 40.8317 350.715 40.9373C352.511 41.5709 354.306 42.3102 356.207 43.155C356.524 43.2606 356.735 43.4718 357.052 43.5774C357.685 43.8943 358.319 44.2111 359.058 44.5279C359.375 44.7391 359.692 44.8447 360.009 45.0559C360.853 45.4783 361.804 46.0064 362.649 46.5344C363.494 47.0624 364.444 47.5904 365.289 48.1185C365.394 48.2241 365.606 48.3297 365.711 48.3297C366.662 48.9633 367.612 49.4913 368.457 50.2305C368.774 50.4418 369.091 50.653 369.302 50.8642C369.935 51.2866 370.569 51.709 371.203 52.237C371.625 52.5539 371.942 52.7651 372.364 53.0819C372.892 53.5043 373.42 53.9267 374.054 54.3491C374.476 54.666 374.899 54.9828 375.321 55.2996C375.849 55.722 376.377 56.1444 376.8 56.5668C377.222 56.8837 377.645 57.3061 378.067 57.7285C378.595 58.1509 379.017 58.5733 379.546 58.9958C379.968 59.4182 380.39 59.735 380.813 60.1574C381.341 60.5798 381.763 61.1078 382.291 61.5303C382.714 61.9527 383.136 62.2695 383.453 62.6919C383.981 63.2199 384.403 63.6424 384.931 64.1704C385.354 64.5928 385.671 64.9096 386.093 65.332C386.621 65.8601 387.043 66.3881 387.571 66.9161C387.888 67.3385 388.311 67.6554 388.628 68.0778C389.156 68.6058 389.578 69.1338 390.106 69.7674C390.423 70.1899 390.74 70.5067 391.162 70.9291C391.69 71.5627 392.112 72.0908 392.641 72.7244C392.957 73.1468 393.274 73.4636 393.591 73.886C393.908 74.3085 394.225 74.6253 394.436 75.0477C394.964 75.7869 395.597 76.5262 396.125 77.2654C396.337 77.5822 396.548 77.899 396.759 78.2158C397.815 79.6943 398.871 81.1728 399.822 82.6512C399.927 82.8625 400.033 82.9681 400.244 83.1793C400.983 84.3409 401.828 85.5026 402.567 86.7698C402.673 86.8754 402.673 86.981 402.779 87.0866C403.412 88.1427 404.151 89.3043 404.785 90.3604C404.891 90.5716 405.102 90.8884 405.208 91.0996C405.947 92.4725 406.686 93.7397 407.425 95.1126C407.636 95.535 407.848 95.9575 408.164 96.3799C408.481 96.9079 408.692 97.4359 409.009 97.964C409.326 98.5976 409.643 99.2312 409.96 99.8648C410.171 100.393 410.382 100.815 410.699 101.343C411.016 102.083 411.333 102.716 411.649 103.455C411.861 103.878 411.966 104.195 412.177 104.617C412.6 105.462 412.917 106.307 413.339 107.152C413.445 107.363 413.55 107.68 413.656 107.891C414.078 108.947 414.606 110.109 415.029 111.165C415.134 111.481 415.24 111.693 415.346 112.009C415.662 112.854 415.979 113.699 416.296 114.544C416.402 114.966 416.613 115.389 416.718 115.811C416.93 116.55 417.246 117.29 417.458 118.029C417.563 118.451 417.774 118.874 417.88 119.296C418.091 120.035 418.302 120.775 418.514 121.514C418.619 121.936 418.725 122.359 418.936 122.781C419.147 123.626 419.359 124.365 419.57 125.21C419.675 125.527 419.781 125.949 419.887 126.266C420.203 127.428 420.415 128.589 420.731 129.751C420.731 129.857 420.837 130.068 420.837 130.173C421.048 131.124 421.259 132.18 421.471 133.13C421.576 133.553 421.576 133.87 421.682 134.292C421.787 135.031 421.893 135.77 422.104 136.615C422.21 137.038 422.21 137.46 422.315 137.883C422.421 138.622 422.527 139.361 422.632 140.1C422.632 140.523 422.738 140.945 422.738 141.262C422.843 142.107 422.844 142.952 422.949 143.796C422.949 144.008 422.949 144.324 423.055 144.536C423.16 145.697 423.16 146.859 423.266 147.915C423.266 148.76 423.266 149.605 423.266 150.45C423.266 151.611 423.266 152.667 423.16 153.723C423.16 154.04 423.16 154.357 423.055 154.674C423.055 155.413 422.949 156.152 422.949 156.891C422.949 157.314 422.844 157.736 422.844 158.159C422.738 158.792 422.738 159.426 422.632 159.954C422.527 160.376 422.527 160.799 422.421 161.221C422.315 161.749 422.21 162.277 422.104 162.805C421.999 163.333 421.893 163.756 421.787 164.284C421.682 164.812 421.576 165.234 421.471 165.762C421.365 166.29 421.154 166.818 421.048 167.452C420.943 167.874 420.837 168.297 420.731 168.719C420.52 169.353 420.309 169.986 420.098 170.62C419.992 170.937 419.887 171.254 419.781 171.676C419.359 172.732 418.936 173.788 418.514 174.739C417.774 176.323 417.035 177.696 416.085 179.068C415.979 179.174 415.874 179.385 415.768 179.491C415.451 180.019 415.134 180.441 414.712 180.969C414.606 181.181 414.395 181.392 414.29 181.497C413.973 181.92 413.656 182.342 413.233 182.765C413.128 182.87 412.917 183.081 412.811 183.187C412.283 183.715 411.861 184.243 411.333 184.771C411.227 184.877 411.227 184.877 411.121 184.982C410.699 185.405 410.171 185.827 409.749 186.25C409.537 186.355 409.432 186.566 409.22 186.672C408.798 186.989 408.376 187.306 407.953 187.622C407.742 187.728 407.636 187.834 407.425 188.045C406.897 188.467 406.264 188.784 405.63 189.207L434.671 171.254C435.305 170.937 435.833 170.514 436.467 170.092C436.678 169.986 436.783 169.881 436.995 169.67C437.417 169.353 437.839 169.036 438.262 168.719C438.473 168.614 438.579 168.402 438.79 168.297C439.212 167.874 439.74 167.452 440.163 167.03C440.268 166.924 440.268 166.924 440.374 166.818C440.902 166.29 441.43 165.762 441.852 165.234C441.958 165.129 442.169 164.917 442.275 164.812C442.592 164.389 443.014 163.967 443.331 163.545C443.436 163.333 443.648 163.122 443.753 163.017C444.07 162.489 444.493 162.066 444.809 161.538C444.915 161.432 445.021 161.221 445.126 161.116L445.232 161.01C446.077 159.743 446.816 158.37 447.449 156.891V156.786C447.872 155.835 448.294 154.779 448.717 153.723C448.717 153.618 448.822 153.512 448.822 153.512C448.928 153.301 449.034 152.984 449.034 152.773C449.245 152.139 449.456 151.506 449.667 150.872C449.773 150.661 449.773 150.555 449.878 150.344C449.984 150.133 449.984 149.816 450.09 149.605C450.195 149.077 450.406 148.549 450.512 147.915C450.618 147.704 450.618 147.493 450.723 147.281C450.829 147.07 450.829 146.753 450.829 146.542C450.934 146.12 451.04 145.592 451.146 145.064C451.146 144.853 451.251 144.536 451.251 144.324C451.251 144.008 451.357 143.691 451.357 143.48C451.462 143.057 451.462 142.635 451.568 142.212C451.568 142.001 451.674 141.79 451.674 141.579C451.674 141.156 451.779 140.84 451.779 140.417C451.779 139.995 451.885 139.572 451.885 139.15C451.885 138.939 451.885 138.833 451.885 138.622C451.885 138.094 451.99 137.46 451.99 136.932C451.99 136.615 451.99 136.299 452.096 135.982C452.096 135.876 452.096 135.876 452.096 135.771C452.096 134.82 452.202 133.87 452.202 132.814C452.202 132.708 452.202 132.708 452.202 132.602C452.096 131.546 452.096 130.701 451.99 129.857Z" fill="#98A2F4"/>
<path d="M368.984 52.2374L395.28 36.291V24.1465L368.984 36.291V52.2374Z" fill="#2F58FF"/>
<path d="M378.805 1.23025C378.911 1.23025 378.911 1.12465 379.016 1.12465C379.122 1.12465 379.122 1.12465 379.228 1.01904H379.333C379.439 1.01904 379.439 1.01904 379.544 1.01904C379.65 1.01904 379.65 1.01904 379.756 1.01904C379.756 1.01904 379.756 1.01904 379.861 1.01904H379.967C380.072 1.01904 380.178 1.01904 380.284 1.12465H380.389H380.495H380.6C380.706 1.23025 380.917 1.23025 381.023 1.33586L397.708 10.9459C398.025 11.1571 398.448 11.4739 398.764 11.6851C398.764 11.6851 398.87 11.6851 398.87 11.7907L398.976 11.8963L399.081 12.0019L399.187 12.1076C399.292 12.2132 399.398 12.3188 399.504 12.4244L399.609 12.53C399.609 12.53 399.609 12.53 399.609 12.6356L399.715 12.7412C399.82 12.8468 399.82 12.9524 399.926 13.058C400.032 13.1636 400.032 13.2692 400.137 13.3748C400.137 13.4804 400.243 13.4804 400.243 13.586C400.243 13.6916 400.348 13.7972 400.348 13.9028C400.348 14.0084 400.454 14.114 400.454 14.2197C400.454 14.3253 400.56 14.4309 400.56 14.5365C400.56 14.6421 400.665 14.7477 400.665 14.8533C400.665 14.9589 400.665 14.9589 400.665 15.0645C400.665 15.0645 400.665 15.0645 400.665 15.1701V15.2757C400.665 15.3813 400.771 15.4869 400.771 15.6981C400.771 15.8037 400.771 15.8037 400.771 15.9093V16.0149V16.1205C400.771 16.3317 400.771 16.543 400.771 16.7542V23.5129C400.771 24.5689 400.348 25.3082 399.82 25.7306L374.158 40.6209C374.792 40.3041 375.109 39.5648 375.109 38.4032V31.6445C375.109 31.4332 375.109 31.1164 375.003 30.9052V30.7996C375.003 30.5884 374.898 30.2716 374.792 30.0604C374.792 30.0604 374.792 30.0604 374.792 29.9548C374.687 29.638 374.581 29.4268 374.475 29.1099C374.37 28.7931 374.264 28.5819 374.053 28.2651C373.947 28.0539 373.736 27.7371 373.63 27.5259C373.63 27.5259 373.63 27.5259 373.63 27.4203C373.525 27.209 373.314 26.9978 373.102 26.7866L372.997 26.681C372.891 26.5754 372.891 26.5754 372.786 26.4698C372.469 26.153 372.152 25.8362 371.73 25.7306L355.044 16.1205C354.833 16.0149 354.622 15.9093 354.41 15.8037H354.305C354.094 15.6981 353.882 15.6981 353.777 15.6981C353.566 15.6981 353.354 15.6981 353.249 15.6981C353.038 15.6981 352.932 15.8037 352.721 15.9093L378.805 1.23025Z" fill="white"/>
<path d="M354.305 17.599L378.805 1.23025C378.911 1.23025 378.911 1.12465 379.016 1.12465C379.122 1.12465 379.122 1.12465 379.227 1.01904H379.333C379.439 1.01904 379.439 1.01904 379.544 1.01904C379.65 1.01904 379.65 1.01904 379.755 1.01904C379.755 1.01904 379.755 1.01904 379.861 1.01904H379.967C380.072 1.01904 380.178 1.01904 380.283 1.12465H380.389H380.495H380.6C380.706 1.23025 380.917 1.23025 381.023 1.33586L397.708 10.9459C398.025 11.1571 398.448 11.4739 398.764 11.6851C398.764 11.6851 398.87 11.6851 398.87 11.7907L398.976 11.8963L399.081 12.0019L399.187 12.1076C399.292 12.2132 399.398 12.3188 399.504 12.4244L399.609 12.53C399.609 12.53 399.609 12.53 399.609 12.6356L399.715 12.7412C399.82 12.8468 399.82 12.9524 399.926 13.058C400.032 13.1636 400.032 13.2692 400.137 13.3748C400.137 13.4804 400.243 13.4804 400.243 13.586C400.243 13.6916 400.348 13.7972 400.348 13.9028C400.348 14.0084 400.454 14.114 400.454 14.2196C400.454 14.3253 400.56 14.4309 400.56 14.5365C400.56 14.6421 400.665 14.7477 400.665 14.8533C400.665 14.9589 400.665 14.9589 400.665 15.0645C400.665 15.0645 400.665 15.0645 400.665 15.1701V15.2757C400.665 15.3813 400.771 15.4869 400.771 15.6981C400.771 15.8037 400.771 15.8037 400.771 15.9093V16.0149V16.1205C400.771 16.3317 400.771 16.543 400.771 16.7542V23.5129C400.771 24.5689 400.348 25.3082 399.82 25.7306L394.963 28.5819" stroke="#171A21" stroke-width="2" stroke-miterlimit="10" stroke-linecap="round" stroke-linejoin="round"/>
<path d="M352.194 18.338C352.194 16.2259 353.778 15.2754 355.573 16.4371L372.258 26.0471C374.159 27.1032 375.638 29.7433 375.638 31.8554V38.6141C375.638 40.7262 374.159 41.6766 372.258 40.515L369.618 39.0365V51.1811C368.773 50.6531 368.034 50.0194 367.189 49.4914C365.711 48.541 364.338 47.6961 362.86 46.8513C361.276 45.9008 359.691 45.1616 358.213 44.4224V32.5946L355.467 31.0106C353.566 29.9545 352.088 27.3144 352.088 25.2023L352.194 18.338Z" fill="#9AF4DC"/>
<path d="M363.07 46.5347C395.597 65.3324 421.998 110.214 422.948 147.81C422.948 148.655 422.948 149.499 422.948 150.344C422.843 188.468 395.808 203.886 362.648 184.771C329.382 165.551 302.559 119.085 302.664 80.9619C302.664 80.1171 302.664 79.2723 302.664 78.4274C304.037 42.0993 330.65 27.7371 363.07 46.5347Z" fill="#9AF4DC"/>
<path d="M363.282 64.382C338.887 50.3365 319.033 60.897 317.872 88.0375V88.1431C317.872 88.8823 317.872 89.5159 317.872 90.2552C317.766 118.98 338.042 153.935 362.965 168.403C387.993 182.871 408.269 171.254 408.375 142.53C408.375 141.79 408.375 141.051 408.375 140.312V140.206C407.424 112.01 387.571 78.533 363.282 64.382Z" fill="white"/>
<path d="M361.909 113.805L327.799 94.057C327.799 93.9514 327.799 93.7401 327.799 93.6345C327.904 71.6687 343.428 62.7979 362.543 73.8864L362.437 113.699L361.909 113.805Z" fill="#2F58FF"/>
</svg>
