<svg width="453" height="264" viewBox="0 0 453 264" fill="none" xmlns="http://www.w3.org/2000/svg">
<path d="M249.227 227.915L420.201 128.541" stroke="#171A21" stroke-width="2" stroke-miterlimit="10" stroke-linecap="round" stroke-linejoin="round" stroke-dasharray="12 12"/>
<path d="M99.1641 129.807L274.468 231.082" stroke="#171A21" stroke-width="2" stroke-miterlimit="10" stroke-linecap="round" stroke-linejoin="round" stroke-dasharray="12 12"/>
<path d="M188.883 225.908L250.662 261.813C253.619 263.503 257.315 263.503 260.272 261.813L322.474 225.908C324.058 224.957 324.058 222.634 322.474 221.789L260.695 185.883C257.738 184.194 254.042 184.194 251.085 185.883L188.883 221.789C187.299 222.634 187.299 224.957 188.883 225.908Z" fill="#2F58FF"/>
<path d="M290.896 220.839C289.629 220.1 287.834 219.572 285.827 219.572H247.281C246.331 219.572 245.486 219.36 244.853 218.938C244.219 218.621 243.797 218.093 243.797 217.565L243.691 211.44C243.691 210.278 242.846 209.222 241.579 208.483C240.312 207.744 238.516 207.321 236.51 207.216C232.497 207.216 229.223 209.117 229.329 211.44L229.434 223.69C229.434 224.852 230.279 225.908 231.546 226.647C232.814 227.386 234.609 227.914 236.615 227.914H285.827C289.84 227.914 293.008 226.013 293.008 223.69C293.008 222.634 292.164 221.578 290.896 220.839Z" fill="#9AF4DC"/>
</svg>
