<svg width="454" height="264" viewBox="0 0 454 264" fill="none" xmlns="http://www.w3.org/2000/svg">
<path d="M89.4969 163.812L235.654 79.0115C237.555 77.9555 239.878 79.3283 239.878 81.4404L240.089 116.396C240.089 120.514 237.977 124.21 234.387 126.322L89.7081 210.278C86.2231 212.285 81.7877 212.285 78.3027 210.278L6.91387 168.776C3.42891 166.769 1.31681 162.967 1.21121 158.954L1 123.999C1 121.781 3.32331 120.409 5.22419 121.57L78.0915 163.918C81.6821 165.819 86.0119 165.819 89.4969 163.812Z" fill="#98A2F4"/>
<path d="M240.195 112.277L89.7081 199.718C86.2231 201.724 81.7877 201.724 78.3028 199.718L1 154.836" stroke="#2F58FF" stroke-width="2" stroke-miterlimit="10" stroke-linecap="round" stroke-linejoin="round"/>
<path d="M240.195 101.716L89.7081 189.157C86.2231 191.164 81.7877 191.164 78.3028 189.157L1 144.275" stroke="#2F58FF" stroke-width="2" stroke-miterlimit="10" stroke-linecap="round" stroke-linejoin="round"/>
<path d="M240.195 91.1562L89.7081 178.597C86.2231 180.604 81.7877 180.604 78.3028 178.597L1 133.715" stroke="#2F58FF" stroke-width="2" stroke-miterlimit="10" stroke-linecap="round" stroke-linejoin="round"/>
<path d="M5.22449 121.465L78.0919 163.812C81.5768 165.819 86.0122 165.819 89.4972 163.812L235.654 79.0116C237.555 77.9556 237.555 75.2099 235.654 74.0482L162.787 31.7007C159.302 29.6942 154.867 29.6942 151.382 31.7007L5.22449 116.501C3.32361 117.663 3.32361 120.409 5.22449 121.465Z" fill="#9AF4DC"/>
<path d="M86.2224 76.7937C66.1574 88.4102 66.0518 107.102 86.0111 118.719C105.97 130.335 138.286 130.335 158.35 118.719C164.792 115.023 169.122 110.587 171.445 105.941C176.409 95.9082 172.079 84.714 158.562 76.8993C146.945 70.1406 131.104 67.3948 116.003 68.4509C105.126 69.1901 94.5651 72.0415 86.2224 76.7937Z" fill="#98A2F4"/>
<path d="M60.2441 85.0311L100.585 61.6924L183.591 109.215H183.696V155.786L143.461 179.125V132.659L60.2441 85.0311Z" fill="white"/>
<path d="M60.2441 85.0311L100.585 61.6924L183.591 109.215H183.696V155.786L143.461 179.125V132.659L60.2441 85.0311Z" stroke="#171A21" stroke-width="2" stroke-miterlimit="10" stroke-linecap="round" stroke-linejoin="round" stroke-dasharray="12 12"/>
<path d="M6.91387 168.776C3.42891 166.769 1.31681 162.968 1.21121 158.955L1 125.583C1 121.465 3.1121 117.769 6.70266 115.657L151.381 31.7007C154.866 29.6942 159.302 29.6942 162.787 31.7007L234.281 73.2034C237.766 75.2099 239.878 79.0116 239.984 83.0246L240.195 116.396C240.195 120.514 238.083 124.211 234.492 126.323" stroke="#171A21" stroke-width="2" stroke-miterlimit="10" stroke-linecap="round" stroke-linejoin="round"/>
</svg>
