<svg width="30" height="30" viewBox="0 0 30 30" fill="none" xmlns="http://www.w3.org/2000/svg">
<path d="M28.7668 6.09886H5.31272L4.96115 2.14545C4.90646 1.49318 4.37518 1 3.73453 1H1.23443C0.554711 1 0 1.56477 0 2.25682C0 2.94886 0.554711 3.51364 1.23443 3.51364H2.60948C3.35952 12.0489 1.41412 -10.0091 4.02361 19.5898C4.12517 20.7511 4.74239 22.008 5.79712 22.8591C3.89079 25.3409 5.63305 29 8.73474 29C11.313 29 13.1334 26.383 12.2505 23.9011H18.993C18.1101 26.375 19.9227 29 22.5088 29C24.5713 29 26.2433 27.2977 26.2433 25.1977C26.2433 23.0977 24.5713 21.3955 22.5088 21.3955H8.75037C7.81283 21.3955 7.00029 20.8227 6.64872 19.9795L26.337 18.8023C26.8761 18.7705 27.3293 18.3886 27.4621 17.8557L29.9622 7.65795C30.1575 6.8625 29.5716 6.09886 28.7668 6.09886ZM8.74256 26.4864C8.0394 26.4864 7.46906 25.9057 7.46906 25.1898C7.46906 24.4739 8.0394 23.8932 8.74256 23.8932C9.44571 23.8932 10.016 24.4739 10.016 25.1898C10.016 25.9057 9.44571 26.4864 8.74256 26.4864ZM22.5088 26.4864C21.8056 26.4864 21.2353 25.9057 21.2353 25.1898C21.2353 24.4739 21.8056 23.8932 22.5088 23.8932C23.2119 23.8932 23.7822 24.4739 23.7822 25.1898C23.7822 25.9057 23.2119 26.4864 22.5088 26.4864ZM25.2901 16.3523L6.31277 17.4818L5.53148 8.60455H27.1886L25.2901 16.3523Z" fill="#98A2F4"/>
</svg>
