<svg width="30" height="30" viewBox="0 0 30 30" fill="none" xmlns="http://www.w3.org/2000/svg">
<path d="M27.3594 0H2.64062C1.1875 0 0 1.1875 0 2.64062V22.3516C0 23.8047 1.1875 24.9922 2.64062 24.9922H13.7656V27.5312H8.74219C8.0625 27.5312 7.50781 28.0859 7.50781 28.7656C7.50781 29.4453 8.0625 30 8.74219 30H21.2578C21.9375 30 22.4922 29.4453 22.4922 28.7656C22.4922 28.0859 21.9375 27.5312 21.2578 27.5312H16.2344V24.9922H27.3594C28.8125 24.9922 30 23.8047 30 22.3516V2.64062C30 1.1875 28.8125 0 27.3594 0ZM27.5391 22.3516C27.5391 22.4453 27.4609 22.5312 27.3594 22.5312H2.64062C2.54687 22.5312 2.46094 22.4531 2.46094 22.3516V2.64062C2.46094 2.54687 2.53906 2.46094 2.64062 2.46094H27.3594C27.4531 2.46094 27.5391 2.53906 27.5391 2.64062V22.3516Z" fill="#FB7070"/>
<path d="M13.125 16.2734C12.1016 16.2734 11.2656 17.1094 11.2656 18.1328C11.2656 19.1562 12.1016 19.9922 13.125 19.9922C14.1484 19.9922 14.9844 19.1562 14.9844 18.1328C14.9844 17.1016 14.1484 16.2734 13.125 16.2734Z" fill="#FB7070"/>
<path d="M19.3828 16.2734C18.3593 16.2734 17.5234 17.1094 17.5234 18.1328C17.5234 19.1562 18.3593 19.9922 19.3828 19.9922C20.4062 19.9922 21.2422 19.1562 21.2422 18.1328C21.2422 17.1016 20.4062 16.2734 19.3828 16.2734Z" fill="#FB7070"/>
<path d="M21.1719 8.97656C21.0078 8.47656 20.5313 8.13281 20 8.13281H10.9532L10.5625 6.5625C10.4219 6.01563 9.92972 5.63281 9.36722 5.63281H6.86723C6.18754 5.63281 5.63285 6.1875 5.63285 6.86719C5.63285 7.54688 6.18754 8.10156 6.86723 8.10156H8.40629C9.05472 10.7031 9.63285 13.0078 10.0469 14.6797C10.1953 15.2812 10.7735 15.6797 11.3985 15.6016L21.4141 14.3516C22.1875 14.2578 22.6797 13.4766 22.4297 12.7422L21.1719 8.97656ZM12.1719 13.0156L11.5703 10.6016H19.1172L19.6094 12.0859L12.1719 13.0156Z" fill="#FB7070"/>
</svg>
