<svg width="30" height="30" viewBox="0 0 30 30" fill="none" xmlns="http://www.w3.org/2000/svg">
<path d="M26.8811 10.2996L26.5215 10.237L26.7326 9.94009C27.8034 8.4397 27.6315 6.40792 26.3339 5.11071L24.9113 3.68846C23.6059 2.38343 21.5736 2.21151 20.0729 3.2821L19.7758 3.4931L19.7133 3.13363C19.4163 1.32066 17.8608 0 16.0161 0H13.9994C12.1547 0 10.5992 1.32066 10.3022 3.13363L10.2397 3.4931L9.94263 3.2821C8.44186 2.21151 6.40956 2.38343 5.11201 3.68065L3.68159 5.11071C2.38404 6.40792 2.21208 8.4397 3.28294 9.94009L3.49399 10.237L3.13443 10.2996C1.32099 10.5965 0 12.1516 0 13.9958V16.012C0 17.8562 1.32099 19.4113 3.13443 19.7083L3.49399 19.763V19.7708L3.28294 20.0677C2.21208 21.5681 2.38404 23.5999 3.68159 24.8971L5.1042 26.3194C6.40956 27.6244 8.44186 27.7885 9.93482 26.7179L10.2318 26.5069L10.2944 26.8664C10.5992 28.6872 12.1547 30 13.9916 30H16.0083C17.853 30 19.4085 28.6793 19.7055 26.8664L19.768 26.5069L20.065 26.7179C21.5658 27.7885 23.5981 27.6166 24.8957 26.3194L26.3183 24.8971C27.6236 23.5921 27.7878 21.5603 26.7169 20.0677L26.5059 19.7708L26.8654 19.7083C28.6789 19.4035 29.9999 17.8484 29.9999 16.0042V13.988C30.0155 12.1516 28.6945 10.5965 26.8811 10.2996ZM27.5142 16.012C27.5142 16.6293 27.0765 17.1451 26.4668 17.2467L26.1072 17.3092C25.2474 17.4499 24.5439 18.0125 24.2078 18.8174C23.8717 19.6223 23.9811 20.521 24.4814 21.2243L24.6924 21.5212C25.052 22.0214 24.9895 22.7012 24.5596 23.131L23.1369 24.5533C22.707 24.9909 22.027 25.0456 21.5267 24.6861L21.2297 24.4751C20.5184 23.975 19.6195 23.8656 18.8222 24.2016C18.0171 24.5376 17.4543 25.2409 17.3136 26.1005L17.2511 26.46C17.1495 27.0696 16.6336 27.5072 16.0161 27.5072H13.9994C13.3897 27.5072 12.866 27.0696 12.7644 26.46L12.7019 26.1005C12.5612 25.2409 11.9984 24.5376 11.1933 24.2016C10.8806 24.0688 10.5523 24.0063 10.2318 24.0063C9.72377 24.0063 9.2157 24.1625 8.77797 24.4751L8.48094 24.6861C7.98068 25.0456 7.30064 24.9831 6.87073 24.5533L5.45594 23.131C5.01822 22.6934 4.9635 22.0214 5.32306 21.5212L5.53411 21.2243C6.04218 20.521 6.1438 19.6145 5.80769 18.8174C5.47157 18.0125 4.76027 17.4499 3.90827 17.3014L3.54871 17.2389C2.94683 17.1373 2.50129 16.6215 2.50129 16.0042V13.988C2.50129 13.3707 2.93902 12.8549 3.54871 12.7533L3.90827 12.6908C4.76809 12.5501 5.47157 11.9875 5.80769 11.1826C6.1438 10.3777 6.03437 9.47903 5.53411 8.77572L5.32306 8.47877C4.9635 7.97864 5.02603 7.29878 5.45594 6.86898L6.87855 5.45455C7.31628 5.01693 7.9885 4.96223 8.48876 5.3217L8.78579 5.53269C9.48927 6.04064 10.396 6.14223 11.1933 5.8062C11.9984 5.47018 12.5612 4.76687 12.7097 3.90727L12.7722 3.5478C12.8738 2.94608 13.3897 2.50065 14.0072 2.50065H16.0239C16.6336 2.50065 17.1573 2.93827 17.2589 3.5478L17.3214 3.90727C17.4621 4.76687 18.0249 5.47018 18.83 5.8062C19.6351 6.14223 20.534 6.03282 21.2375 5.53269L21.5346 5.3217C22.0348 4.96223 22.7149 5.02475 23.1448 5.45455L24.5596 6.87679C24.9973 7.31441 25.052 7.98646 24.6924 8.48659L24.4814 8.78354C23.9733 9.48685 23.8717 10.3933 24.2078 11.1904C24.5439 11.9953 25.2474 12.558 26.1072 12.6986L26.4668 12.7611C27.0687 12.8627 27.5142 13.3785 27.5142 13.9958V16.012Z" fill="#FFD394"/>
<path d="M15.0077 7.50195C10.8728 7.50195 7.50388 10.87 7.50388 15.0039C7.50388 19.1378 10.8728 22.5059 15.0077 22.5059C19.1427 22.5059 22.5116 19.1378 22.5116 15.0039C22.5116 10.87 19.1427 7.50195 15.0077 7.50195ZM15.0077 20.0052C12.2485 20.0052 10.0052 17.7624 10.0052 15.0039C10.0052 12.2454 12.2485 10.0026 15.0077 10.0026C17.767 10.0026 20.0103 12.2454 20.0103 15.0039C20.0103 17.7624 17.767 20.0052 15.0077 20.0052Z" fill="#FFD394"/>
</svg>
