<svg width="400" height="262" viewBox="0 0 400 262" fill="none" xmlns="http://www.w3.org/2000/svg">
<path d="M382.938 180.085C382.938 179.672 382.938 179.259 382.834 178.847C382.834 178.744 382.834 178.64 382.834 178.64C382.834 178.331 382.731 177.918 382.731 177.609C382.731 177.506 382.731 177.506 382.731 177.403C382.628 176.99 382.628 176.577 382.525 176.165C382.525 176.062 382.525 175.958 382.422 175.855C382.319 175.546 382.215 175.133 382.112 174.824C382.112 174.721 382.112 174.721 382.112 174.617C382.009 174.205 381.906 173.792 381.7 173.483C381.7 173.38 381.597 173.276 381.597 173.173C381.493 172.864 381.39 172.554 381.184 172.142C381.184 172.039 381.081 172.039 381.081 171.935C380.874 171.523 380.771 171.213 380.565 170.801C380.565 170.698 380.462 170.594 380.462 170.491C380.359 170.182 380.152 169.872 380.049 169.563C379.946 169.46 379.946 169.357 379.843 169.253C379.637 168.841 379.43 168.531 379.121 168.119C379.121 168.119 379.121 168.119 379.121 168.016C378.915 167.706 378.708 167.294 378.399 166.984C378.296 166.881 378.192 166.778 378.192 166.675C377.986 166.468 377.883 166.159 377.677 165.953C377.574 165.746 377.47 165.643 377.264 165.437C377.058 165.23 376.955 165.024 376.748 164.715C376.645 164.508 376.439 164.405 376.336 164.199C376.129 163.993 375.923 163.786 375.717 163.477C375.614 163.374 375.407 163.167 375.304 163.064C375.098 162.858 374.788 162.548 374.582 162.342C374.479 162.239 374.376 162.136 374.273 161.93C373.963 161.62 373.551 161.311 373.241 160.898C373.138 160.795 373.035 160.692 372.932 160.589C372.725 160.382 372.519 160.176 372.313 160.073C372.21 159.97 372.003 159.866 371.9 159.763C371.694 159.557 371.487 159.454 371.281 159.248C371.178 159.144 370.972 159.041 370.869 158.938C370.662 158.732 370.456 158.629 370.25 158.422C370.146 158.319 369.94 158.216 369.837 158.113C369.528 157.907 369.321 157.7 369.012 157.494C368.909 157.391 368.806 157.391 368.702 157.288C368.29 156.978 367.98 156.772 367.568 156.462C367.465 156.462 367.464 156.359 367.361 156.359C367.052 156.153 366.742 155.947 366.433 155.74C365.917 155.431 365.505 155.121 364.989 154.812C364.886 154.812 364.886 154.709 364.782 154.709C364.37 154.399 363.957 154.193 363.442 153.987C363.235 153.884 363.132 153.78 362.926 153.677C362.616 153.471 362.204 153.265 361.894 153.058C361.688 152.955 361.482 152.852 361.275 152.749C360.966 152.543 360.553 152.336 360.141 152.233C359.934 152.13 359.728 152.027 359.625 151.924C359.212 151.717 358.696 151.511 358.284 151.305C358.181 151.305 358.077 151.202 357.974 151.202C357.459 150.995 356.84 150.686 356.221 150.479C356.014 150.376 355.911 150.376 355.705 150.273C355.292 150.067 354.88 149.964 354.467 149.757C354.261 149.654 354.055 149.551 353.848 149.551C353.436 149.448 353.023 149.242 352.61 149.138C352.404 149.035 352.198 149.035 351.991 148.932C351.166 148.623 350.444 148.416 349.619 148.107C349.516 148.107 349.309 148.004 349.206 148.004C348.381 147.694 347.556 147.488 346.627 147.179C345.802 146.972 344.874 146.663 343.945 146.456C343.739 146.456 343.636 146.353 343.43 146.353C342.604 146.147 341.676 145.941 340.851 145.734C340.645 145.631 340.335 145.631 340.129 145.528C339.819 145.425 339.407 145.425 339.097 145.322C338.788 145.219 338.478 145.219 338.272 145.116C337.963 145.012 337.55 145.012 337.241 144.909C336.931 144.806 336.622 144.806 336.312 144.806C336.003 144.703 335.59 144.703 335.281 144.6C334.971 144.6 334.662 144.497 334.352 144.497C334.043 144.393 333.63 144.393 333.321 144.29C333.114 144.29 332.805 144.187 332.599 144.187C331.67 144.084 330.639 143.981 329.71 143.878C329.504 143.878 329.401 143.878 329.195 143.775C328.163 143.671 327.131 143.568 326.1 143.465C325.687 143.465 325.275 143.362 324.862 143.362C324.656 143.362 324.449 143.362 324.243 143.362C323.624 143.362 322.902 143.259 322.283 143.259C321.252 143.259 320.323 143.156 319.292 143.156C318.776 143.156 318.363 143.156 317.848 143.156C317.332 143.156 316.713 143.156 316.197 143.156C315.681 143.156 315.269 143.156 314.753 143.156C314.237 143.156 313.618 143.156 313.103 143.259C312.587 143.259 312.174 143.362 311.658 143.362C311.143 143.362 310.627 143.465 310.111 143.465C309.595 143.465 309.183 143.568 308.667 143.568C308.151 143.568 307.635 143.671 307.12 143.671C306.604 143.774 305.985 143.774 305.469 143.878C305.057 143.981 304.541 143.981 304.128 144.084C303.612 144.187 302.993 144.29 302.478 144.393C302.065 144.497 301.652 144.497 301.24 144.6C300.208 144.806 299.177 145.012 298.145 145.219C298.042 145.219 298.042 145.219 297.939 145.219C297.011 145.425 296.082 145.631 295.154 145.838C294.329 146.044 293.607 146.25 292.781 146.456C292.678 146.456 292.472 146.56 292.369 146.56C291.75 146.766 291.028 146.972 290.409 147.179C290.202 147.282 289.996 147.282 289.687 147.385C289.068 147.591 288.346 147.797 287.727 148.004C287.624 148.004 287.52 148.107 287.314 148.107C286.798 148.313 286.386 148.416 285.87 148.623C285.561 148.726 285.148 148.829 284.838 149.035C284.323 149.242 283.91 149.448 283.394 149.654C283.085 149.757 282.775 149.861 282.466 150.067C281.95 150.273 281.434 150.479 280.919 150.789C280.712 150.892 280.403 150.995 280.197 151.098C279.474 151.408 278.752 151.82 278.03 152.233C277.721 152.439 277.308 152.646 276.999 152.749C276.896 152.852 276.792 152.852 276.689 152.955C276.483 153.058 276.277 153.265 275.967 153.368C275.864 153.471 275.658 153.574 275.555 153.574C275.348 153.677 275.142 153.78 274.936 153.884C274.833 153.987 274.626 154.09 274.523 154.193C274.317 154.296 274.11 154.399 274.007 154.502C273.904 154.606 273.698 154.709 273.595 154.812C273.388 154.915 273.285 155.018 273.079 155.121C272.976 155.225 272.769 155.328 272.666 155.431C272.46 155.534 272.357 155.637 272.151 155.74C272.047 155.843 271.841 155.947 271.738 156.05C271.532 156.153 271.428 156.256 271.222 156.359C271.119 156.462 270.913 156.566 270.81 156.669C270.603 156.772 270.5 156.875 270.294 157.081C270.191 157.184 270.087 157.288 269.881 157.391C269.778 157.494 269.572 157.597 269.469 157.803C269.365 157.907 269.262 158.01 269.056 158.113C268.953 158.216 268.746 158.319 268.643 158.525C268.54 158.629 268.437 158.732 268.334 158.835C268.231 158.938 268.024 159.144 267.921 159.248C267.818 159.351 267.715 159.454 267.612 159.557C267.509 159.66 267.302 159.866 267.199 159.97C267.096 160.073 266.993 160.176 266.89 160.279C266.787 160.382 266.58 160.589 266.477 160.692C266.374 160.795 266.271 160.898 266.168 161.001C266.065 161.207 265.858 161.311 265.755 161.517C265.652 161.62 265.652 161.723 265.549 161.723C265.342 161.93 265.136 162.239 264.93 162.445C264.724 162.652 264.517 162.961 264.311 163.167C264.208 163.271 264.208 163.374 264.105 163.374C264.001 163.58 263.795 163.683 263.692 163.889C263.589 163.993 263.589 164.096 263.486 164.199C263.383 164.405 263.279 164.508 263.176 164.715C263.073 164.818 263.073 164.921 262.97 165.024C262.867 165.127 262.764 165.334 262.66 165.437C262.557 165.54 262.557 165.643 262.454 165.746C262.351 165.849 262.248 166.056 262.145 166.159C262.042 166.262 262.042 166.365 261.938 166.468C261.835 166.571 261.732 166.778 261.732 166.881C261.629 166.984 261.629 167.087 261.526 167.294C261.423 167.397 261.319 167.603 261.319 167.706C261.216 167.809 261.216 167.912 261.113 168.119C261.01 168.222 261.01 168.428 260.907 168.531C260.804 168.635 260.804 168.738 260.701 168.944C260.597 169.047 260.597 169.253 260.494 169.357C260.391 169.46 260.391 169.563 260.391 169.769C260.288 169.976 260.288 170.079 260.185 170.285C260.185 170.388 260.082 170.491 260.082 170.698C259.978 170.904 259.978 171.007 259.875 171.213C259.875 171.317 259.772 171.42 259.772 171.626C259.772 171.832 259.669 171.935 259.669 172.142C259.669 172.245 259.566 172.348 259.566 172.554C259.566 172.761 259.463 172.864 259.463 173.07C259.463 173.173 259.36 173.276 259.36 173.38C259.36 173.586 259.256 173.792 259.256 173.999C259.256 174.102 259.256 174.205 259.153 174.308C259.153 174.617 259.05 174.824 259.05 175.133C259.05 175.133 259.05 175.133 259.05 175.236C259.05 175.443 259.05 175.649 258.947 175.855C258.947 175.958 258.947 176.062 258.947 176.165C258.947 176.474 258.947 176.784 258.844 177.093C258.844 176.371 258.844 175.546 258.947 174.721V173.689C258.947 172.761 259.05 171.729 259.05 170.698V169.253C259.05 168.841 259.05 168.531 259.05 168.119V166.571C259.05 165.437 259.153 164.405 259.153 163.271V162.136C259.153 161.62 259.153 161.207 259.153 160.692L259.256 157.7C259.256 157.391 259.256 156.978 259.256 156.669L259.36 154.296C259.36 153.987 259.36 153.677 259.463 153.368V153.265C259.463 152.955 259.463 152.749 259.566 152.439C259.566 152.13 259.669 151.924 259.669 151.614C259.669 151.511 259.669 151.408 259.772 151.305C259.772 151.098 259.875 150.892 259.875 150.686C259.875 150.583 259.978 150.479 259.978 150.376C259.978 150.17 260.082 150.067 260.082 149.861C260.082 149.757 260.185 149.654 260.185 149.448C260.185 149.242 260.288 149.138 260.288 148.932C260.288 148.829 260.391 148.726 260.391 148.52C260.391 148.313 260.494 148.21 260.597 148.004C260.597 147.901 260.701 147.797 260.701 147.591C260.804 147.385 260.804 147.282 260.907 147.075C260.907 146.972 261.01 146.869 261.01 146.663C261.113 146.456 261.113 146.353 261.216 146.25C261.319 146.147 261.319 146.044 261.423 145.838C261.526 145.734 261.526 145.528 261.629 145.425C261.732 145.322 261.732 145.219 261.835 145.012C261.938 144.909 261.938 144.703 262.042 144.6C262.145 144.497 262.145 144.393 262.248 144.187C262.351 144.084 262.454 143.878 262.454 143.775C262.557 143.671 262.557 143.568 262.66 143.465C262.764 143.362 262.867 143.156 262.97 143.052C263.073 142.949 263.073 142.846 263.176 142.743C263.279 142.64 263.383 142.433 263.486 142.33C263.589 142.227 263.589 142.124 263.692 142.021C263.795 141.815 263.898 141.711 264.001 141.505C264.105 141.402 264.105 141.299 264.208 141.196C264.311 140.989 264.517 140.886 264.62 140.68C264.724 140.577 264.724 140.474 264.827 140.474C265.033 140.267 265.239 139.958 265.446 139.752C265.652 139.545 265.858 139.236 266.065 139.029C266.168 138.926 266.168 138.823 266.271 138.823C266.374 138.617 266.58 138.514 266.683 138.307C266.787 138.204 266.89 138.101 266.993 137.998C267.096 137.895 267.302 137.688 267.406 137.585C267.509 137.482 267.612 137.379 267.715 137.276C267.818 137.173 268.024 136.966 268.128 136.863C268.231 136.76 268.334 136.657 268.437 136.554C268.54 136.451 268.746 136.244 268.85 136.141C268.953 136.038 269.056 135.935 269.159 135.832C269.262 135.729 269.469 135.625 269.572 135.419C269.675 135.316 269.778 135.213 269.984 135.11C270.087 135.006 270.294 134.903 270.397 134.697C270.5 134.594 270.603 134.491 270.81 134.388C271.016 134.284 271.119 134.181 271.325 133.975C271.428 133.872 271.635 133.769 271.738 133.665C271.944 133.562 272.047 133.459 272.254 133.356C272.357 133.253 272.563 133.15 272.666 133.047C272.873 132.943 272.976 132.84 273.182 132.737C273.285 132.634 273.492 132.531 273.595 132.428C273.801 132.324 273.904 132.221 274.11 132.118C274.214 132.015 274.42 131.912 274.523 131.809C274.729 131.706 274.936 131.602 275.039 131.499C275.142 131.396 275.348 131.293 275.451 131.19C275.658 131.087 275.864 130.983 276.07 130.88C276.174 130.777 276.38 130.674 276.483 130.674C276.689 130.571 276.896 130.365 277.205 130.261C277.308 130.158 277.411 130.158 277.515 130.055C277.824 129.849 278.237 129.642 278.546 129.539C279.268 129.127 279.99 128.817 280.712 128.405C280.919 128.301 281.228 128.198 281.434 128.095C281.95 127.889 282.466 127.579 282.982 127.373C283.291 127.27 283.601 127.064 283.91 126.96C284.426 126.754 284.838 126.548 285.354 126.342C285.664 126.238 286.076 126.135 286.386 125.929C286.798 125.723 287.211 125.619 287.727 125.413H287.83C287.933 125.413 288.036 125.31 288.243 125.31C288.861 125.104 289.584 124.897 290.202 124.691C290.409 124.588 290.615 124.588 290.925 124.485C291.543 124.278 292.266 124.072 292.884 123.866C292.988 123.866 293.194 123.763 293.297 123.763C294.019 123.556 294.741 123.35 295.36 123.247C295.463 123.247 295.463 123.247 295.566 123.144C296.495 122.937 297.423 122.731 298.352 122.525C298.455 122.525 298.455 122.525 298.558 122.525C299.589 122.319 300.621 122.112 301.653 121.906C301.756 121.906 301.756 121.906 301.859 121.906C302.168 121.803 302.581 121.803 302.993 121.7C303.509 121.596 304.128 121.493 304.644 121.39C305.057 121.287 305.572 121.287 305.985 121.184C306.501 121.081 307.12 121.081 307.635 120.978C307.739 120.978 307.842 120.978 307.945 120.978C308.357 120.978 308.77 120.874 309.183 120.874C309.698 120.874 310.111 120.771 310.627 120.771C311.143 120.771 311.658 120.668 312.174 120.668C312.69 120.668 313.103 120.565 313.618 120.565C313.721 120.565 313.825 120.565 313.928 120.565C314.34 120.565 314.856 120.565 315.269 120.565C315.785 120.565 316.197 120.565 316.713 120.565C317.229 120.565 317.848 120.565 318.363 120.565C318.879 120.565 319.292 120.565 319.808 120.565C319.911 120.565 320.014 120.565 320.014 120.565C320.942 120.565 321.871 120.565 322.696 120.668C323.315 120.668 324.037 120.771 324.656 120.771C324.862 120.771 325.068 120.771 325.275 120.771C325.687 120.771 326.1 120.771 326.409 120.874H326.513C327.544 120.978 328.576 121.081 329.607 121.184C329.813 121.184 329.917 121.184 330.123 121.287C331.154 121.39 332.083 121.493 333.011 121.596C333.114 121.596 333.114 121.596 333.217 121.596C333.424 121.596 333.63 121.7 333.733 121.7C334.043 121.7 334.455 121.803 334.765 121.906C335.074 121.906 335.384 122.009 335.693 122.009C336.003 122.112 336.415 122.112 336.725 122.215C337.034 122.215 337.344 122.319 337.653 122.319C337.963 122.422 338.375 122.422 338.685 122.525C338.994 122.628 339.304 122.628 339.51 122.731C339.819 122.834 340.232 122.834 340.541 122.937C340.748 122.937 340.851 123.041 341.057 123.041C341.16 123.041 341.16 123.041 341.263 123.041C342.192 123.247 343.017 123.453 343.842 123.66C344.049 123.66 344.152 123.763 344.358 123.763C345.286 123.969 346.112 124.175 347.04 124.485C347.865 124.691 348.794 125.001 349.619 125.31C349.722 125.31 349.928 125.413 350.032 125.413C350.857 125.723 351.682 125.929 352.404 126.238C352.507 126.238 352.507 126.238 352.61 126.342C352.714 126.342 352.817 126.445 353.023 126.445C353.436 126.548 353.848 126.754 354.261 126.857C354.467 126.96 354.673 127.064 354.88 127.064C355.292 127.27 355.705 127.373 356.118 127.579C356.324 127.683 356.427 127.683 356.633 127.786C357.252 127.992 357.768 128.301 358.387 128.508C358.49 128.508 358.593 128.611 358.696 128.611C359.109 128.817 359.625 129.024 360.037 129.23C360.244 129.333 360.45 129.436 360.553 129.539C360.966 129.746 361.275 129.952 361.688 130.055C361.894 130.158 362.101 130.261 362.307 130.365C362.616 130.571 363.029 130.777 363.338 130.983C363.545 131.087 363.648 131.19 363.854 131.293C364.267 131.499 364.782 131.809 365.195 132.015C365.298 132.015 365.298 132.118 365.401 132.118C365.917 132.428 366.33 132.737 366.846 133.047C366.846 133.047 366.949 133.047 366.949 133.15C367.258 133.356 367.464 133.562 367.774 133.665C367.877 133.665 367.877 133.769 367.98 133.769C368.393 134.078 368.702 134.284 369.115 134.594C369.218 134.697 369.321 134.697 369.424 134.8C369.734 135.006 369.94 135.213 370.25 135.419C370.353 135.522 370.559 135.625 370.662 135.729C370.869 135.935 371.075 136.038 371.281 136.244C371.384 136.347 371.591 136.451 371.694 136.554C371.9 136.76 372.106 136.863 372.313 137.07C372.416 137.173 372.622 137.276 372.725 137.379C372.932 137.585 373.138 137.792 373.344 137.895C373.447 137.998 373.551 137.998 373.551 138.101L373.654 138.204C373.963 138.514 374.273 138.823 374.582 139.133C374.582 139.133 374.582 139.133 374.685 139.236C374.788 139.339 374.892 139.442 374.995 139.648C375.201 139.855 375.51 140.164 375.717 140.37C375.82 140.474 376.026 140.68 376.129 140.783C376.336 140.989 376.542 141.196 376.748 141.505C376.851 141.711 377.058 141.815 377.161 142.021C377.367 142.227 377.574 142.434 377.677 142.743C377.78 142.949 377.883 143.052 378.089 143.259C378.192 143.362 378.296 143.465 378.399 143.568C378.502 143.671 378.605 143.878 378.708 143.981C378.811 144.084 378.915 144.187 378.915 144.29C379.121 144.6 379.43 145.012 379.637 145.322C379.637 145.322 379.637 145.322 379.637 145.425C379.843 145.838 380.049 146.147 380.359 146.56C380.462 146.663 380.462 146.766 380.565 146.869C380.668 146.972 380.771 147.179 380.771 147.282C380.874 147.385 380.874 147.591 380.978 147.694C380.978 147.797 381.081 147.901 381.081 148.004C381.287 148.416 381.39 148.726 381.597 149.138C381.597 149.242 381.7 149.242 381.7 149.345C381.803 149.654 382.009 149.964 382.112 150.376C382.112 150.479 382.215 150.583 382.215 150.686C382.215 150.789 382.319 150.789 382.319 150.892C382.422 151.202 382.525 151.511 382.628 151.82C382.628 151.924 382.628 151.924 382.628 152.027C382.731 152.336 382.834 152.749 382.938 153.058C382.938 153.161 382.938 153.265 383.041 153.368C383.144 153.677 383.144 154.09 383.247 154.399V154.502C383.247 154.606 383.247 154.606 383.247 154.709C383.35 155.018 383.35 155.431 383.35 155.74C383.35 155.843 383.35 155.947 383.35 155.947C383.35 156.359 383.453 156.772 383.453 157.184C383.453 157.288 383.453 157.391 383.453 157.391C383.453 157.597 383.453 157.7 383.453 157.907C383.453 158.113 383.453 158.422 383.453 158.629L382.731 181.322C382.731 180.91 382.731 180.497 382.731 180.085C382.938 180.188 382.938 180.085 382.938 180.085Z" fill="#2F58FF"/>
<path d="M243.783 154.915C243.783 155.224 243.783 155.637 243.783 155.946C243.783 156.05 243.783 156.05 243.783 156.153C243.783 156.462 243.783 156.772 243.886 157.081C243.886 157.184 243.886 157.287 243.886 157.494C243.886 157.7 243.886 158.009 243.989 158.216C243.989 158.319 243.989 158.525 244.092 158.628C244.092 158.835 244.195 159.041 244.195 159.247C244.195 159.35 244.195 159.557 244.298 159.66C244.298 159.866 244.402 160.073 244.402 160.279C244.402 160.382 244.505 160.588 244.505 160.691C244.505 160.898 244.608 161.104 244.608 161.31C244.608 161.414 244.711 161.62 244.711 161.723C244.814 161.929 244.814 162.136 244.917 162.342C244.917 162.445 245.02 162.651 245.02 162.755C245.124 162.961 245.124 163.167 245.227 163.373C245.227 163.477 245.33 163.58 245.33 163.786C245.433 164.095 245.536 164.508 245.743 164.818C245.846 165.127 246.052 165.54 246.155 165.849C246.155 165.952 246.258 166.055 246.258 166.159C246.361 166.365 246.465 166.674 246.568 166.881C246.671 166.984 246.671 167.19 246.774 167.293C246.877 167.5 246.98 167.706 247.084 167.912C247.187 168.015 247.187 168.118 247.29 168.325C247.393 168.634 247.599 168.841 247.702 169.15C247.806 169.253 247.806 169.356 247.909 169.459C248.115 169.769 248.321 170.182 248.528 170.491L248.631 170.594C248.837 170.904 249.043 171.213 249.25 171.523C249.353 171.626 249.353 171.729 249.456 171.832C249.662 172.038 249.766 172.348 249.972 172.554C250.075 172.657 250.075 172.76 250.178 172.864C250.488 173.276 250.797 173.689 251.107 174.101C251.21 174.205 251.21 174.205 251.313 174.308C251.622 174.617 251.932 175.03 252.138 175.339C252.241 175.442 252.241 175.546 252.344 175.546C252.654 175.958 253.066 176.371 253.376 176.68C253.479 176.783 253.479 176.887 253.582 176.887C253.892 177.196 254.201 177.609 254.511 177.918C254.614 178.021 254.614 178.021 254.717 178.124C255.13 178.537 255.439 178.846 255.852 179.259C255.955 179.362 256.058 179.465 256.161 179.465C256.574 179.775 256.883 180.187 257.296 180.497L257.399 180.6C257.812 181.013 258.224 181.322 258.74 181.632C258.843 181.735 258.946 181.838 259.049 181.838C259.462 182.147 259.978 182.56 260.39 182.869C260.906 183.282 261.422 183.695 261.938 184.004C262.041 184.107 262.144 184.21 262.35 184.314C262.866 184.726 263.485 185.036 264.001 185.448C264.104 185.551 264.207 185.551 264.31 185.655C264.62 185.861 265.032 186.067 265.342 186.377C265.548 186.48 265.651 186.583 265.857 186.686C266.167 186.892 266.476 187.099 266.786 187.305C266.992 187.408 267.095 187.511 267.302 187.615C267.611 187.821 268.024 188.027 268.333 188.233C268.539 188.337 268.643 188.44 268.849 188.543C269.365 188.852 269.88 189.059 270.396 189.368C271.221 189.781 272.15 190.297 273.078 190.709C273.388 190.812 273.697 191.019 274.007 191.122C274.626 191.431 275.244 191.741 275.863 191.947C276.276 192.153 276.585 192.256 276.998 192.463C277.617 192.669 278.133 192.979 278.752 193.185C279.164 193.391 279.577 193.494 279.99 193.701C280.608 193.907 281.124 194.113 281.743 194.32C282.156 194.423 282.568 194.629 282.981 194.732C283.703 194.938 284.322 195.248 285.044 195.454C285.457 195.557 285.869 195.764 286.282 195.867C287.004 196.073 287.726 196.279 288.448 196.486C288.861 196.589 289.17 196.692 289.583 196.795C290.614 197.105 291.543 197.311 292.574 197.62C292.677 197.62 292.884 197.724 292.987 197.724C294.122 198.033 295.256 198.239 296.494 198.549C297.423 198.755 298.351 198.961 299.279 199.168C299.486 199.168 299.692 199.271 299.898 199.271C300.723 199.374 301.445 199.58 302.271 199.683C302.58 199.787 302.89 199.787 303.199 199.787C303.921 199.89 304.746 199.993 305.468 200.096C305.778 200.096 305.984 200.199 306.294 200.199C307.222 200.302 308.254 200.406 309.182 200.612C309.388 200.612 309.595 200.612 309.801 200.715C310.729 200.818 311.658 200.921 312.689 201.024C312.792 201.024 312.896 201.024 312.999 201.024C314.03 201.128 315.062 201.231 315.99 201.231C316.196 201.231 316.506 201.231 316.712 201.231C317.744 201.334 318.775 201.334 319.807 201.334C321.045 201.334 322.283 201.437 323.52 201.437C324.139 201.437 324.758 201.437 325.274 201.437C325.996 201.437 326.718 201.437 327.337 201.437C327.956 201.437 328.575 201.437 329.091 201.334C329.813 201.334 330.432 201.334 331.154 201.231C331.773 201.231 332.392 201.128 333.01 201.128C333.629 201.128 334.351 201.024 334.97 201.024C335.589 201.024 336.208 200.921 336.827 200.818C337.446 200.715 338.065 200.715 338.787 200.612C339.509 200.509 340.231 200.406 340.953 200.302C341.469 200.199 342.088 200.199 342.604 200.096C343.326 199.993 344.048 199.89 344.77 199.787C345.286 199.683 345.905 199.58 346.42 199.477C346.627 199.477 346.73 199.374 346.936 199.374C347.968 199.168 348.999 198.961 350.031 198.755H350.134C351.166 198.549 352.197 198.342 353.229 198.033C353.435 198.033 353.641 197.93 353.744 197.93C354.776 197.724 355.807 197.414 356.839 197.105C357.045 197.105 357.148 197.001 357.355 197.001C358.18 196.795 359.005 196.486 359.83 196.279C360.14 196.176 360.346 196.073 360.656 195.97C361.481 195.764 362.306 195.454 363.028 195.145C363.235 195.042 363.338 195.042 363.544 194.938C364.163 194.732 364.679 194.526 365.298 194.32C365.71 194.113 366.226 194.01 366.639 193.804C367.257 193.597 367.876 193.288 368.392 193.082C368.805 192.875 369.217 192.772 369.527 192.566C370.146 192.256 370.765 191.947 371.384 191.741C371.693 191.638 372.003 191.431 372.312 191.328C373.24 190.915 374.169 190.4 374.994 189.987C389.332 182.354 398.513 171.419 399.029 158.938L398.307 181.632C397.791 194.113 388.713 205.047 374.272 212.681C373.344 213.197 372.518 213.609 371.59 214.022C371.28 214.125 370.971 214.331 370.662 214.434C370.043 214.744 369.424 215.053 368.805 215.26C368.392 215.466 367.98 215.569 367.67 215.775C367.051 215.982 366.535 216.291 365.916 216.498C365.504 216.704 365.091 216.807 364.576 217.013C364.06 217.22 363.544 217.426 362.925 217.632C362.925 217.632 362.822 217.632 362.719 217.735C362.512 217.839 362.409 217.839 362.203 217.942C361.378 218.251 360.656 218.457 359.83 218.767C359.521 218.87 359.315 218.973 359.005 219.076C358.18 219.283 357.355 219.592 356.53 219.798C356.323 219.798 356.22 219.902 356.014 219.902C355.189 220.108 354.26 220.417 353.435 220.624C353.332 220.624 353.125 220.727 353.022 220.727C352.816 220.727 352.713 220.83 352.507 220.83C351.475 221.036 350.443 221.346 349.412 221.552H349.309C348.277 221.758 347.246 221.965 346.214 222.171C346.008 222.171 345.905 222.274 345.698 222.274C345.595 222.274 345.492 222.274 345.389 222.377C344.976 222.48 344.461 222.48 344.048 222.584C343.326 222.687 342.604 222.79 341.882 222.893C341.366 222.996 340.747 222.996 340.231 223.099C339.509 223.203 338.787 223.306 338.065 223.409C337.962 223.409 337.756 223.409 337.652 223.409C337.137 223.512 336.621 223.512 336.105 223.512C335.486 223.615 334.867 223.615 334.248 223.718C333.629 223.821 332.907 223.821 332.288 223.821C331.669 223.821 331.051 223.925 330.432 223.925C330.329 223.925 330.225 223.925 330.019 223.925C329.503 223.925 328.884 223.925 328.369 224.028C327.75 224.028 327.131 224.028 326.615 224.131C325.893 224.131 325.171 224.131 324.552 224.131C323.933 224.131 323.314 224.131 322.798 224.131C322.695 224.131 322.592 224.131 322.489 224.131C321.354 224.131 320.219 224.131 319.085 224.028C318.053 224.028 317.022 223.925 315.99 223.925C315.784 223.925 315.474 223.925 315.268 223.925C315.062 223.925 314.752 223.925 314.546 223.925C313.824 223.821 312.999 223.821 312.277 223.718C312.173 223.718 312.07 223.718 311.967 223.718C311.039 223.615 310.11 223.512 309.079 223.409C308.873 223.409 308.666 223.409 308.46 223.306C307.635 223.203 306.706 223.099 305.881 222.996C305.778 222.996 305.675 222.996 305.572 222.996C305.262 222.996 305.056 222.893 304.746 222.893C304.024 222.79 303.199 222.687 302.477 222.584C302.168 222.584 301.858 222.48 301.549 222.48C300.723 222.377 300.001 222.171 299.176 222.068C298.97 222.068 298.764 221.965 298.557 221.965C297.732 221.758 296.804 221.655 295.978 221.449C295.875 221.449 295.875 221.449 295.772 221.449C294.637 221.243 293.4 220.933 292.265 220.624C292.162 220.624 291.955 220.521 291.852 220.521C290.821 220.314 289.892 220.005 288.861 219.695C288.448 219.592 288.139 219.489 287.726 219.386C287.004 219.18 286.282 218.973 285.56 218.767C285.147 218.664 284.735 218.457 284.322 218.354C283.6 218.148 282.981 217.942 282.259 217.632C282.053 217.529 281.846 217.529 281.537 217.426C281.331 217.323 281.227 217.323 281.021 217.22C280.402 217.013 279.886 216.807 279.267 216.601C278.855 216.394 278.442 216.291 278.03 216.085C277.411 215.879 276.895 215.569 276.276 215.363C275.863 215.157 275.554 215.053 275.141 214.847C274.522 214.538 273.903 214.331 273.285 214.022C272.975 213.919 272.666 213.712 272.356 213.609C271.428 213.197 270.603 212.681 269.674 212.268C269.158 211.959 268.643 211.752 268.127 211.443C267.921 211.34 267.817 211.237 267.611 211.134C267.302 210.927 266.889 210.721 266.58 210.515C266.373 210.411 266.27 210.308 266.064 210.205C265.754 209.999 265.445 209.793 265.135 209.586C264.929 209.483 264.826 209.38 264.62 209.277C264.31 209.07 263.898 208.864 263.588 208.555C263.485 208.452 263.382 208.452 263.279 208.348C262.763 207.936 262.144 207.626 261.628 207.214C261.525 207.111 261.422 207.007 261.216 206.904C260.7 206.492 260.184 206.182 259.668 205.77C259.153 205.46 258.74 205.047 258.327 204.738C258.224 204.635 258.121 204.532 258.018 204.532C257.812 204.325 257.605 204.222 257.399 204.016L256.883 218.973L246.877 212.681L247.496 192.875C247.393 192.669 247.187 192.36 247.084 192.153C246.98 192.05 246.98 191.947 246.877 191.844C246.774 191.534 246.568 191.328 246.465 191.019C246.465 190.915 246.361 190.915 246.361 190.812C246.361 190.709 246.258 190.709 246.258 190.606C246.155 190.4 246.052 190.193 245.949 189.987C245.846 189.884 245.846 189.678 245.743 189.574C245.639 189.368 245.536 189.059 245.433 188.852C245.433 188.749 245.33 188.646 245.33 188.543C245.227 188.233 245.02 187.821 244.917 187.511C244.814 187.202 244.711 186.789 244.505 186.48C244.505 186.48 244.505 186.48 244.505 186.377C244.505 186.274 244.402 186.17 244.402 186.067C244.298 185.861 244.298 185.655 244.195 185.448C244.195 185.345 244.092 185.139 244.092 185.036C243.989 184.829 243.989 184.623 243.886 184.417C243.886 184.314 243.783 184.107 243.783 184.004C243.783 183.798 243.679 183.592 243.679 183.385C243.679 183.282 243.576 183.076 243.576 182.973C243.576 182.766 243.473 182.56 243.473 182.354C243.473 182.251 243.473 182.147 243.473 182.044C243.473 181.941 243.473 181.941 243.473 181.838C243.473 181.632 243.37 181.425 243.37 181.219C243.37 181.116 243.37 180.91 243.267 180.806C243.267 180.6 243.267 180.291 243.164 180.084C243.164 179.981 243.164 179.878 243.164 179.672C243.164 179.362 243.164 179.053 243.061 178.743C243.061 178.64 243.061 178.64 243.061 178.537C243.061 178.228 243.061 177.815 243.061 177.505C243.061 177.196 243.061 176.887 243.061 176.577L243.783 153.883C243.783 154.296 243.783 154.605 243.783 154.915Z" fill="#2F58FF"/>
<path d="M243.783 153.987C244.299 141.505 253.376 130.571 267.818 122.937C282.156 115.304 301.858 110.972 323.314 111.694C366.329 113.241 400.267 134.491 399.235 159.454C398.719 171.935 389.642 182.87 375.2 190.503C360.862 198.136 341.16 202.469 319.704 201.747C300.827 201.128 283.703 196.589 270.5 189.678C266.889 187.718 263.485 185.655 260.494 183.385C249.663 175.133 243.37 164.921 243.783 153.987ZM320.013 192.669C337.137 193.288 352.919 189.781 364.369 183.695C375.819 177.609 383.246 168.841 383.659 158.835C384.484 138.926 357.252 121.906 322.902 120.668C305.778 120.049 289.996 123.556 278.546 129.642C266.992 135.729 259.668 144.497 259.256 154.502C258.534 174.411 285.663 191.431 320.013 192.669Z" fill="#FFD394"/>
<path d="M259.356 154.502C258.531 174.411 285.763 191.535 320.114 192.669M320.01 192.669C337.134 193.288 352.916 189.781 364.367 183.695C375.817 177.609 383.244 168.841 383.656 158.835" stroke="#171A21" stroke-width="2" stroke-miterlimit="10" stroke-linecap="round" stroke-linejoin="round" stroke-dasharray="12 12"/>
<path d="M257.708 196.486L256.986 219.077L269.777 212.268L270.499 189.575L257.708 196.486Z" fill="#2F58FF"/>
<path d="M247.598 190.09L257.604 196.383L270.395 189.575C266.784 187.615 263.38 185.552 260.389 183.282L247.598 190.09Z" fill="#FFD394"/>
<path d="M168.169 227.948C168.169 228.051 168.169 228.154 168.169 228.36C168.169 228.463 168.169 228.567 168.169 228.567C168.169 228.67 168.169 228.773 168.169 228.876C168.169 228.979 168.169 229.082 168.169 229.082C168.169 229.186 168.169 229.289 168.169 229.392C168.169 229.495 168.169 229.598 168.169 229.598C168.169 229.701 168.169 229.804 168.272 229.908C168.272 230.011 168.272 230.011 168.376 230.114C168.376 230.217 168.479 230.32 168.479 230.32C168.479 230.423 168.582 230.527 168.582 230.63C168.582 230.733 168.685 230.836 168.685 230.836C168.685 230.939 168.788 231.042 168.788 231.042C168.788 231.145 168.891 231.145 168.891 231.249C168.995 231.352 168.995 231.455 169.098 231.558C169.098 231.661 169.201 231.661 169.201 231.764C169.304 231.868 169.304 231.971 169.407 232.074C169.407 232.177 169.51 232.177 169.51 232.28C169.613 232.486 169.717 232.59 169.923 232.693L170.026 232.796C170.232 233.002 170.336 233.209 170.542 233.312C170.645 233.415 170.645 233.415 170.748 233.518C170.851 233.621 170.954 233.724 171.058 233.827C171.161 233.931 171.161 233.931 171.264 234.034C171.367 234.137 171.47 234.24 171.573 234.343C171.677 234.446 171.78 234.446 171.78 234.55C171.883 234.653 171.986 234.756 172.089 234.756C172.192 234.859 172.295 234.859 172.295 234.962C172.399 235.065 172.502 235.168 172.605 235.168C172.708 235.272 172.811 235.272 172.811 235.375C173.121 235.581 173.327 235.684 173.636 235.891L173.74 235.994C174.049 236.097 174.255 236.303 174.565 236.406C174.668 236.406 174.668 236.509 174.771 236.509C175.081 236.613 175.39 236.819 175.7 236.922C175.803 236.922 175.803 237.025 175.906 237.025C176.215 237.128 176.525 237.232 176.834 237.438H176.937C177.453 237.644 177.969 237.85 178.588 237.954C179.104 238.16 179.723 238.263 180.341 238.366C180.445 238.366 180.445 238.366 180.548 238.366C180.857 238.469 181.064 238.469 181.373 238.572C181.476 238.572 181.579 238.573 181.682 238.676C181.889 238.676 182.198 238.779 182.405 238.779C182.508 238.779 182.611 238.779 182.714 238.779C183.333 238.882 183.849 238.882 184.468 238.985H184.571C184.88 238.985 185.19 238.985 185.602 238.985C186.118 238.985 186.531 238.985 187.046 238.985C187.356 238.985 187.665 238.985 187.975 238.985C188.284 238.985 188.594 238.985 188.903 238.985C189.213 238.985 189.522 238.985 189.728 238.882C190.038 238.882 190.347 238.779 190.657 238.779C190.966 238.779 191.276 238.676 191.585 238.676C192.101 238.573 192.514 238.573 192.926 238.469H193.029C193.442 238.366 193.958 238.263 194.37 238.16C194.473 238.16 194.68 238.057 194.783 238.057C195.299 237.954 195.711 237.747 196.227 237.644C196.537 237.541 196.949 237.335 197.259 237.231C197.465 237.128 197.568 237.128 197.774 237.025C198.29 236.819 198.806 236.613 199.219 236.303L258.738 201.747C259.77 201.231 260.389 200.406 260.389 199.684L259.667 222.377C259.667 223.099 259.048 223.822 258.016 224.44L198.496 258.997C197.981 259.203 197.568 259.513 197.052 259.719C196.846 259.822 196.743 259.822 196.537 259.925C196.227 260.028 195.918 260.235 195.505 260.338C195.092 260.544 194.577 260.647 194.061 260.751C193.958 260.751 193.751 260.854 193.648 260.854C193.442 260.854 193.339 260.957 193.133 260.957C192.823 261.06 192.617 261.06 192.307 261.163H192.204C191.895 261.266 191.482 261.266 191.173 261.369C191.069 261.369 190.966 261.369 190.863 261.369C190.554 261.369 190.244 261.473 189.935 261.473C189.728 261.473 189.522 261.576 189.419 261.576C189.316 261.576 189.213 261.576 189.11 261.576C188.8 261.576 188.491 261.576 188.284 261.679C188.078 261.679 187.872 261.679 187.665 261.679C187.562 261.679 187.356 261.679 187.253 261.679C186.943 261.679 186.634 261.679 186.324 261.679C186.118 261.679 185.912 261.679 185.809 261.679C185.499 261.679 185.293 261.679 184.983 261.679C184.674 261.679 184.364 261.679 183.952 261.679C183.952 261.679 183.952 261.679 183.849 261.679C183.849 261.679 183.849 261.679 183.746 261.679C183.127 261.679 182.508 261.576 181.992 261.473C181.992 261.473 181.992 261.473 181.889 261.473C181.786 261.473 181.786 261.473 181.682 261.473C181.476 261.473 181.167 261.369 180.96 261.369C180.857 261.369 180.754 261.369 180.651 261.266C180.341 261.266 180.135 261.163 179.826 261.06H179.723C179.104 260.957 178.588 260.751 177.969 260.647C177.453 260.441 176.834 260.338 176.318 260.132H176.215C175.906 260.028 175.596 259.925 175.287 259.719C175.184 259.719 175.184 259.616 175.081 259.616C174.771 259.513 174.462 259.306 174.152 259.203C174.049 259.203 174.049 259.1 173.946 259.1C173.636 258.997 173.43 258.791 173.121 258.687L173.018 258.584C172.708 258.378 172.399 258.275 172.192 258.069H172.089C171.986 258.069 171.986 257.965 171.883 257.965C171.78 257.862 171.677 257.759 171.573 257.759C171.47 257.656 171.367 257.656 171.367 257.553C171.264 257.45 171.161 257.346 171.058 257.346C170.954 257.243 170.851 257.243 170.851 257.14C170.748 257.037 170.645 256.934 170.542 256.831C170.439 256.728 170.439 256.728 170.336 256.624C170.232 256.521 170.129 256.418 170.026 256.315L169.923 256.212C169.717 256.005 169.613 255.799 169.407 255.696L169.304 255.593C169.201 255.49 169.098 255.283 168.891 255.077C168.891 255.077 168.891 254.974 168.788 254.974C168.788 254.974 168.788 254.871 168.685 254.871C168.582 254.768 168.582 254.664 168.479 254.561C168.479 254.458 168.376 254.458 168.376 254.355C168.272 254.252 168.272 254.149 168.169 254.046L168.066 253.942C168.066 253.942 168.066 253.942 168.066 253.839C168.066 253.736 167.963 253.633 167.963 253.633C167.963 253.53 167.86 253.427 167.86 253.427C167.86 253.323 167.757 253.22 167.757 253.117C167.757 253.014 167.654 253.014 167.654 252.911C167.654 252.911 167.654 252.911 167.654 252.808C167.654 252.705 167.654 252.705 167.55 252.601C167.55 252.498 167.447 252.395 167.447 252.292C167.447 252.189 167.447 252.086 167.447 252.086C167.447 251.982 167.447 251.982 167.447 251.879C167.447 251.879 167.447 251.879 167.447 251.776C167.447 251.673 167.447 251.673 167.447 251.57C167.447 251.467 167.447 251.364 167.447 251.26C167.447 251.157 167.447 251.054 167.447 251.054C167.447 250.951 167.447 250.951 167.447 250.848C167.447 250.745 167.447 250.745 167.447 250.641L168.169 227.948Z" fill="#2F58FF"/>
<path d="M173.327 221.036C170.129 222.79 168.17 225.472 168.066 227.948C167.86 233.621 175.906 238.779 185.809 239.088C190.966 239.295 195.712 238.263 199.425 236.303L258.945 201.747C261.111 200.612 261.111 198.858 259.151 197.517L245.947 189.265C243.884 188.027 240.79 187.924 238.727 189.059L174.152 220.727C173.843 220.727 173.637 220.933 173.327 221.036Z" fill="#FB7070"/>
<path d="M259.151 197.414L245.947 189.162C243.884 187.924 240.79 187.821 238.727 188.956L174.152 220.624C173.843 220.727 173.637 220.83 173.327 221.037C170.129 222.79 168.17 225.472 168.066 227.948" fill="#FB7070"/>
</svg>
