<svg width="400" height="262" viewBox="0 0 400 262" fill="none" xmlns="http://www.w3.org/2000/svg">
<path d="M264.723 70.3288C264.723 70.2257 264.723 70.1225 264.723 70.0194C264.723 69.9162 264.723 69.813 264.723 69.7099V69.6067C264.723 69.5036 264.723 69.5036 264.723 69.4004C264.723 69.2973 264.723 69.1941 264.723 69.091C264.723 68.9878 264.723 68.8847 264.723 68.7815C264.723 68.6783 264.723 68.6784 264.723 68.5752V68.472C264.723 68.3689 264.723 68.2657 264.826 68.1626C264.826 68.0594 264.826 67.9563 264.929 67.8531C264.929 67.75 264.929 67.75 265.032 67.6468C265.032 67.6468 265.032 67.6468 265.032 67.5437C265.032 67.4405 265.135 67.3374 265.135 67.2342C265.135 67.131 265.238 67.0279 265.238 66.9247C265.238 66.8216 265.342 66.7184 265.342 66.6153C265.342 66.5121 265.445 66.409 265.445 66.3058C265.445 66.2027 265.548 66.0995 265.548 65.9964C265.548 65.8932 265.651 65.7901 265.651 65.6869V65.5837C265.651 65.4806 265.651 65.4806 265.754 65.3774C265.754 65.2743 265.857 65.1711 265.857 65.068C265.961 64.9648 265.961 64.8617 266.064 64.7585C266.064 64.6554 266.167 64.6554 266.167 64.5522C266.167 64.5522 266.167 64.5522 266.167 64.4491C266.167 64.4491 266.167 64.3459 266.27 64.3459C266.373 64.1396 266.476 63.9333 266.683 63.6238C266.683 63.5207 266.786 63.5207 266.786 63.4175C266.786 63.4175 266.786 63.3144 266.889 63.3144C266.889 63.2112 266.992 63.2112 266.992 63.1081C267.095 62.9017 267.302 62.6954 267.405 62.4891C267.405 62.4891 267.405 62.4891 267.405 62.386C267.508 62.2828 267.508 62.2828 267.611 62.1797C267.714 62.0765 267.817 61.9734 267.817 61.8702C267.92 61.7671 267.92 61.6639 268.024 61.5608C268.024 61.5608 268.024 61.4576 268.127 61.4576L268.23 61.3544C268.333 61.2513 268.436 61.1481 268.436 61.045C268.539 60.9418 268.643 60.8387 268.746 60.7355L268.849 60.6324L268.952 60.5292C269.055 60.4261 269.158 60.3229 269.261 60.3229C269.365 60.2198 269.468 60.1166 269.571 60.1166C269.674 60.0135 269.777 60.0135 269.777 59.9103L287.829 46.5003C288.345 46.0877 288.861 45.6751 289.273 45.2625C289.686 44.7467 290.098 44.2309 290.511 43.7152C290.511 43.7152 290.511 43.7152 290.614 43.612C291.027 43.0963 291.336 42.4773 291.646 41.8584C291.955 41.2395 292.265 40.6206 292.471 39.8985L300.517 16.4826C300.517 16.3795 300.62 16.2763 300.62 16.2763C300.62 16.1732 300.723 16.07 300.723 15.9669C300.723 15.8637 300.826 15.7606 300.826 15.6574C300.826 15.5542 300.93 15.4511 300.93 15.3479C300.93 15.2448 301.033 15.1416 301.033 15.0385C301.033 14.9353 301.136 14.8322 301.136 14.729C301.239 14.6259 301.239 14.5227 301.342 14.3164C301.342 14.3164 301.342 14.2133 301.445 14.2133C301.445 14.2133 301.445 14.1101 301.549 14.1101C301.652 14.0069 301.652 13.9038 301.755 13.8006C301.858 13.5943 301.961 13.388 302.064 13.2849C302.064 13.1817 302.167 13.1817 302.167 13.0786C302.167 13.0786 302.167 13.0786 302.167 12.9754C302.271 12.7691 302.374 12.6659 302.58 12.4596C302.683 12.3565 302.786 12.2533 302.786 12.1502C302.889 12.047 302.889 11.9439 302.993 11.9439C303.096 11.8407 303.199 11.7376 303.199 11.6344C303.302 11.5313 303.405 11.4281 303.405 11.3249C303.405 11.3249 303.405 11.325 303.508 11.2218C303.612 11.1186 303.612 11.1186 303.715 11.0155C303.818 10.9123 303.921 10.8092 304.024 10.706C304.127 10.6029 304.23 10.4997 304.334 10.3966C304.334 10.3966 304.334 10.3966 304.437 10.3966C304.54 10.2934 304.54 10.2934 304.643 10.1903C304.746 10.0871 304.849 9.98395 304.953 9.98395C305.056 9.8808 305.159 9.8808 305.262 9.77765C305.365 9.67449 305.365 9.67449 305.468 9.57134C305.571 9.46819 305.675 9.46819 305.778 9.36503C305.881 9.26188 305.984 9.26188 306.087 9.15873C306.087 9.15873 306.087 9.15873 306.19 9.15873C306.294 9.15873 306.294 9.05557 306.397 9.05557C306.5 9.05557 306.603 8.95242 306.706 8.95242C306.809 8.95242 306.912 8.84926 306.912 8.84926C307.016 8.84926 307.119 8.74611 307.119 8.74611C307.222 8.74611 307.222 8.64296 307.325 8.64296C307.428 8.64296 307.531 8.5398 307.531 8.5398C307.635 8.5398 307.738 8.5398 307.841 8.43665C307.944 8.43665 308.047 8.43665 308.15 8.3335C308.253 8.3335 308.357 8.3335 308.46 8.3335C308.46 8.3335 308.46 8.3335 308.563 8.3335C308.666 8.3335 308.666 8.3335 308.769 8.3335C308.872 8.3335 308.976 8.3335 309.079 8.3335C309.182 8.3335 309.285 8.3335 309.388 8.3335C309.491 8.3335 309.594 8.3335 309.698 8.3335C309.801 8.3335 310.007 8.43665 310.11 8.43665C310.317 8.5398 310.42 8.5398 310.626 8.64296L333.217 21.7435L342.81 17.8236C342.913 17.8236 343.016 17.7205 343.119 17.7205C343.223 17.7205 343.326 17.6173 343.429 17.6173C343.532 17.6173 343.635 17.6173 343.738 17.5142C343.841 17.5142 343.841 17.5142 343.945 17.5142C343.945 17.5142 343.945 17.5142 344.048 17.5142C344.151 17.5142 344.254 17.5142 344.357 17.5142C344.46 17.5142 344.564 17.5142 344.667 17.5142C344.77 17.5142 344.873 17.5142 344.976 17.5142C345.079 17.5142 345.182 17.5142 345.286 17.5142C345.389 17.5142 345.492 17.5142 345.595 17.5142H345.698H345.801C345.905 17.5142 345.905 17.5142 346.008 17.6173C346.214 17.7205 346.317 17.7205 346.523 17.8236L373.756 33.6061C373.55 33.503 373.343 33.3998 373.137 33.2967H373.034C372.828 33.1935 372.518 33.1935 372.312 33.1935C372.002 33.1935 371.693 33.1935 371.383 33.2967C371.074 33.3998 370.765 33.503 370.352 33.6061L352.3 41.0332C352.3 41.0332 352.3 41.0332 352.197 41.0332C352.094 41.0332 351.991 41.1363 351.991 41.1363C351.887 41.1363 351.784 41.2395 351.784 41.2395C351.681 41.2395 351.578 41.2395 351.578 41.3426C351.475 41.3426 351.475 41.3426 351.372 41.3426C351.372 41.3426 351.372 41.3426 351.269 41.3426C351.165 41.3426 351.062 41.3426 350.959 41.3426C350.856 41.3426 350.753 41.3426 350.65 41.3426C350.546 41.3426 350.443 41.3426 350.34 41.3426C350.237 41.3426 350.134 41.3426 350.031 41.3426C349.928 41.3426 349.824 41.3426 349.721 41.3426H349.618H349.515C349.412 41.3426 349.412 41.3426 349.309 41.3426C349.102 41.2395 348.999 41.2395 348.793 41.1363L329.4 29.8926C329.4 29.8926 329.4 29.9958 329.297 29.9958C329.091 30.3052 328.884 30.7178 328.781 31.1304C328.575 31.5431 328.472 31.9557 328.265 32.3683L320.219 55.7842C320.219 55.8873 320.116 55.9905 320.116 55.9905C320.116 56.0936 320.013 56.1968 320.013 56.2999C320.013 56.4031 319.91 56.5062 319.91 56.6094C319.91 56.7125 319.807 56.8157 319.807 56.9188C319.807 57.022 319.704 57.1251 319.704 57.2283C319.704 57.3315 319.6 57.4346 319.6 57.5378L319.497 57.6409C319.497 57.7441 319.394 57.7441 319.394 57.8472C319.291 58.0535 319.188 58.1567 319.085 58.363C318.878 58.6725 318.775 58.9819 318.569 59.1882C318.569 59.2914 318.466 59.2914 318.466 59.3945C318.466 59.3945 318.466 59.3945 318.363 59.4977C318.259 59.6008 318.259 59.704 318.156 59.704C318.053 59.8071 317.95 59.9103 317.847 60.0134C317.744 60.1166 317.64 60.2198 317.64 60.3229C317.537 60.4261 317.434 60.5292 317.434 60.6324C317.331 60.7355 317.228 60.8387 317.228 60.9418L317.125 61.045L317.022 61.1481C316.918 61.2513 316.815 61.3544 316.712 61.4576C316.609 61.5608 316.506 61.6639 316.403 61.6639C316.299 61.7671 316.196 61.8702 316.093 61.8702C315.99 61.9734 315.887 61.9734 315.784 62.0765C315.681 62.1797 315.577 62.1797 315.577 62.2828L297.526 75.6928C297.216 75.8991 296.907 76.2086 296.597 76.4149C296.288 76.7243 296.081 76.9306 295.772 77.2401C295.566 77.5496 295.256 77.859 295.05 78.1685C294.844 78.4779 294.637 78.7874 294.431 79.0969C294.431 79.0969 294.431 79.2 294.328 79.2C294.121 79.5095 293.915 79.8189 293.812 80.1284C293.812 80.1284 293.812 80.1284 293.812 80.2316C293.606 80.541 293.503 80.9536 293.296 81.2631C293.193 81.5725 292.987 81.9852 292.884 82.2946C292.78 82.6041 292.677 83.0167 292.574 83.3262C292.471 83.6356 292.471 84.0482 292.368 84.3577C292.368 84.6672 292.265 84.9766 292.265 85.2861C292.265 85.5955 292.265 85.905 292.265 86.2145C292.265 86.5239 292.368 86.8334 292.368 87.0397C292.471 87.3492 292.471 87.5555 292.574 87.7618V87.8649C292.677 87.9681 292.677 88.1744 292.78 88.2775L307.222 96.633C307.428 96.7361 307.635 96.9424 307.738 97.0456C307.841 97.0456 307.841 97.1487 307.841 97.2519C307.944 97.355 308.047 97.4582 308.15 97.6645L308.253 97.7677C308.253 97.8708 308.357 97.8708 308.357 97.974C308.357 97.974 308.357 98.0771 308.46 98.0771C308.46 98.0771 308.46 98.0771 308.46 98.1803C308.563 98.2834 308.563 98.3866 308.563 98.5929V98.696V98.7992V98.9024C308.563 99.0055 308.666 99.1087 308.666 99.2118C308.666 99.315 308.666 99.315 308.666 99.4181C308.666 99.4181 308.666 99.4181 308.666 99.5213C308.666 99.6244 308.666 99.7276 308.666 99.8307C308.666 99.9339 308.666 100.037 308.666 100.14V100.243V100.347C308.666 100.45 308.666 100.553 308.666 100.656C308.666 100.759 308.666 100.862 308.666 100.965C308.666 100.965 308.666 100.965 308.666 101.069C308.666 101.172 308.666 101.172 308.666 101.275C308.666 101.378 308.666 101.481 308.666 101.584C308.666 101.688 308.666 101.791 308.666 101.894V101.997L305.675 124.381C305.675 124.691 305.571 125 305.571 125.31C305.571 125.619 305.571 125.929 305.571 126.135C305.571 126.444 305.675 126.651 305.675 126.857C305.675 126.857 305.675 126.857 305.675 126.96C305.675 127.166 305.778 127.373 305.881 127.579C305.881 127.579 305.881 127.579 305.881 127.682C305.984 127.889 305.984 127.992 306.087 128.198L306.19 128.301C306.294 128.404 306.294 128.507 306.397 128.611C306.5 128.714 306.603 128.92 306.706 129.023L306.809 129.126C307.016 129.23 307.119 129.436 307.325 129.539L280.093 113.756C279.886 113.653 279.68 113.55 279.577 113.344L279.474 113.241C279.37 113.138 279.267 113.034 279.164 112.828L279.061 112.725C279.061 112.622 278.958 112.622 278.958 112.519L278.855 112.415C278.855 112.415 278.855 112.312 278.752 112.312C278.648 112.209 278.648 112.106 278.648 112.003C278.648 112.003 278.648 112.003 278.648 111.9C278.648 111.9 278.648 111.9 278.648 111.797C278.648 111.693 278.648 111.693 278.545 111.59C278.545 111.487 278.442 111.384 278.442 111.281V111.178C278.442 111.178 278.442 111.178 278.442 111.074V110.971C278.442 110.868 278.442 110.765 278.442 110.662C278.442 110.559 278.442 110.456 278.442 110.352C278.442 110.352 278.442 110.352 278.442 110.249C278.442 110.146 278.442 110.146 278.442 110.043C278.442 109.94 278.442 109.837 278.442 109.733C278.442 109.63 278.442 109.527 278.442 109.424C278.442 109.424 278.442 109.424 278.442 109.321C278.442 109.218 278.442 109.218 278.442 109.115C278.442 109.011 278.442 108.908 278.442 108.805C278.442 108.702 278.442 108.599 278.442 108.496V108.392L281.434 86.0082C281.434 85.6987 281.537 85.3892 281.537 85.0798C281.537 84.7703 281.537 84.564 281.537 84.2545C281.537 84.0482 281.537 83.7388 281.434 83.5325C281.434 83.3262 281.33 83.1199 281.227 82.9136V82.8104C281.124 82.6041 281.124 82.3978 281.021 82.2946C281.021 82.2946 281.021 82.1915 280.918 82.1915V82.0883L266.579 73.7329C266.373 73.6297 266.167 73.4234 265.961 73.3203C265.857 73.2171 265.857 73.2171 265.754 73.114C265.651 73.0108 265.548 72.9077 265.445 72.7013C265.342 72.5982 265.238 72.3919 265.238 72.2887C265.238 72.1856 265.238 72.1856 265.135 72.0824V71.9793V71.8761C265.135 71.773 265.032 71.6698 265.032 71.5667C265.032 71.4635 264.929 71.3603 264.929 71.2572C264.929 71.154 264.929 71.0509 264.929 71.0509C264.929 70.9477 264.929 70.8446 264.929 70.7414C264.929 70.6383 264.929 70.5351 264.929 70.432C264.723 70.432 264.723 70.432 264.723 70.3288Z" fill="#FB7070"/>
<path d="M333.526 24.9415C331.257 26.1793 329.09 28.8613 327.956 32.1622L319.91 55.5781C318.981 58.2601 317.228 60.7358 315.268 62.1799L297.216 75.5899C292.161 79.4066 290.098 87.762 293.812 89.8251L306.912 96.8395C308.356 97.6647 309.078 99.6247 308.769 102.1L305.778 124.485C305.056 129.539 308.253 131.396 311.967 129.333C312.895 128.817 313.927 127.992 314.855 126.857L330.947 107.877C331.875 106.845 332.804 105.917 333.835 105.401C334.867 104.782 335.795 104.576 336.724 104.576L352.816 104.989C353.744 104.989 354.776 104.679 355.704 104.163C359.314 102.1 362.512 96.4269 361.79 92.1976L358.695 73.3205C358.386 71.1543 359.005 68.4723 360.449 65.9966L373.446 43.9217C377.16 37.6293 375.097 31.6464 369.939 33.7095L351.887 41.1366C349.824 41.9618 348.071 41.5492 347.142 39.8987L339.096 25.7667C337.961 23.7036 335.795 23.7036 333.526 24.9415Z" fill="#FFD394"/>
<path d="M305.778 124.587C305.056 129.642 308.254 131.499 311.968 129.436C312.896 128.92 313.927 128.095 314.856 126.96L330.948 107.98C331.876 106.948 332.805 106.02 333.836 105.504C334.868 104.885 335.796 104.679 336.724 104.679" stroke="#171A21" stroke-width="2" stroke-miterlimit="10" stroke-linecap="round" stroke-linejoin="round"/>
</svg>
