<svg width="401" height="263" viewBox="0 0 401 263" fill="none" xmlns="http://www.w3.org/2000/svg">
<path d="M330.811 94.3319C311.831 61.2196 285.424 32.3366 256.231 15.4194C198.156 -18.1056 150.911 8.81753 150.705 75.5579" stroke="#171A21" stroke-width="2" stroke-miterlimit="10" stroke-linecap="round" stroke-linejoin="round" stroke-dasharray="12 12"/>
<path d="M107.934 124.659L196.542 73.4948C198.812 72.1538 201.7 73.8043 201.7 76.4863L201.906 154.264C201.906 159.215 199.328 163.754 194.995 166.23L108.14 216.363C103.911 218.838 98.6497 218.838 94.4204 216.363L8.184 166.127C3.95471 163.651 1.37587 159.215 1.37587 154.264L1.06641 76.5894C1.06641 73.9074 3.95471 72.257 6.22409 73.598L94.2141 124.762C98.4434 127.135 103.704 127.135 107.934 124.659Z" fill="#FFD394"/>
<path d="M6.121 73.4951L94.111 124.659C98.3403 127.135 103.601 127.135 107.83 124.659L196.439 73.4951C198.709 72.1541 198.709 68.8532 196.439 67.5122L108.449 16.348C104.22 13.8723 98.9592 13.8723 94.7299 16.348L6.22415 67.6153C3.85162 68.9563 3.85162 72.2572 6.121 73.4951Z" fill="white"/>
<path d="M36.1387 91.0312L136.817 32.8525L160.336 46.4688L59.6577 104.544L36.1387 91.0312Z" fill="#FB7070"/>
<path d="M59.7608 196.042L36.1387 182.528V91.0312L59.7608 104.648V196.042Z" fill="#FB7070"/>
<path d="M166.938 91.0312L66.3628 32.8525L42.8438 46.4688L143.419 104.544L166.938 91.0312Z" fill="#FB7070"/>
<path d="M143.418 196.042L166.937 182.528V91.0312L143.418 104.648V196.042Z" fill="#FB7070"/>
<path d="M1.06641 78.5495C1.06641 73.5981 3.64525 69.0593 7.9777 66.5836L94.833 16.451C99.0623 13.9753 104.323 13.9753 108.552 16.451L194.892 66.5836C199.121 69.0593 201.7 73.4949 201.7 78.4463" stroke="#171A21" stroke-width="2" stroke-miterlimit="10" stroke-linecap="round" stroke-linejoin="round"/>
<path d="M104.116 61.8387C104.116 61.7356 104.116 61.6324 104.116 61.5293L109.377 64.6239C109.79 64.4176 116.598 60.4977 123.819 56.3716C123.819 56.3716 123.922 56.3716 123.922 56.2685C124.025 56.1653 124.231 56.0621 124.334 55.959C124.437 55.8558 124.644 55.7527 124.747 55.6495C124.747 55.6495 124.747 55.6495 124.85 55.6495C124.85 55.6495 124.85 55.6495 124.953 55.6495C125.056 55.5464 125.16 55.4432 125.263 55.4432C125.469 55.3401 125.572 55.2369 125.778 55.0306C125.882 55.0306 125.882 54.9275 125.985 54.9275L126.088 54.8243C126.191 54.7211 126.191 54.7211 126.294 54.618C126.501 54.5148 126.604 54.3085 126.81 54.2054C126.913 54.1022 126.913 54.1022 127.016 53.9991L127.119 53.8959L127.223 53.7928C127.326 53.6896 127.532 53.4833 127.635 53.3801C127.738 53.277 127.842 53.1738 127.945 53.0707C127.945 53.0707 127.945 53.0707 128.048 52.9675C128.048 52.9675 128.048 52.9675 128.151 52.8644C128.254 52.7612 128.46 52.5549 128.564 52.3486C128.667 52.1423 128.873 52.0392 128.976 51.8328C129.079 51.6265 129.286 51.5234 129.389 51.3171C129.595 51.1108 129.698 50.9045 129.905 50.6982C130.111 50.3887 130.317 50.0792 130.627 49.7698C130.627 49.7698 130.627 49.6666 130.73 49.6666C130.833 49.4603 131.039 49.254 131.142 48.9445C131.246 48.7382 131.349 48.6351 131.452 48.4288C131.452 48.4288 131.452 48.3256 131.555 48.3256C131.658 48.2225 131.658 48.1193 131.761 48.0162C131.865 47.8099 131.968 47.6035 132.071 47.5004C132.174 47.3972 132.277 47.1909 132.277 47.0878C132.277 47.0878 132.277 46.9846 132.38 46.9846V46.8815C132.483 46.6752 132.587 46.4689 132.69 46.2626C132.793 46.0562 132.896 45.9531 132.896 45.7468C132.896 45.7468 132.896 45.7468 132.896 45.6436C132.896 45.6436 132.896 45.6436 132.896 45.5405C132.999 45.4373 132.999 45.3342 133.102 45.1279C133.206 44.9216 133.206 44.8184 133.309 44.6121C133.309 44.5089 133.412 44.4058 133.412 44.3026V44.1995V44.0963C133.515 43.89 133.515 43.6837 133.618 43.5806C133.721 43.3743 133.721 43.1679 133.824 43.0648C133.824 43.0648 133.824 43.0648 133.824 42.9616V42.8585C133.824 42.7553 133.928 42.549 133.928 42.4459C134.031 42.2396 134.031 42.0333 134.031 41.8269C134.031 41.7238 134.031 41.6206 134.134 41.6206V41.5175C134.134 41.4143 134.134 41.4143 134.134 41.3112C134.134 41.1049 134.237 40.8986 134.237 40.7954C134.237 40.5891 134.34 40.486 134.34 40.2796C134.34 40.0733 134.443 39.867 134.443 39.7639C134.443 39.5576 134.443 39.4544 134.547 39.2481C134.547 39.145 134.547 39.145 134.547 39.0418V38.9386C134.547 38.8355 134.547 38.7323 134.547 38.7323C134.547 38.526 134.547 38.4229 134.547 38.2166C134.547 38.0103 134.547 37.9071 134.547 37.7008C134.547 37.4945 134.547 37.3913 134.547 37.185C134.547 36.9787 134.547 36.8756 134.547 36.6693V36.5661V36.463C134.547 36.3598 134.547 36.2567 134.547 36.1535C134.547 35.9472 134.547 35.844 134.443 35.6377C134.443 35.5346 134.443 35.5346 134.443 35.4314V35.3283C134.443 35.2251 134.443 35.2251 134.443 35.122C134.443 34.9157 134.34 34.7093 134.34 34.6062V34.503C134.34 34.3999 134.34 34.3999 134.237 34.2967C134.237 34.1936 134.134 34.0904 134.134 33.9873C134.031 33.781 134.031 33.6778 133.928 33.4715V33.3684C133.824 33.0589 133.618 32.8526 133.515 32.6463C133.515 32.6463 133.515 32.5431 133.412 32.5431C133.309 32.3368 133.102 32.1305 132.999 32.0274C132.896 31.9242 132.896 31.9242 132.793 31.821C132.69 31.7179 132.483 31.5116 132.38 31.4084C132.277 31.4084 132.277 31.3053 132.174 31.3053C131.968 31.099 131.761 30.9958 131.555 30.8927L122.581 25.735C122.684 25.6318 122.684 25.6318 122.787 25.5287C122.787 25.5287 122.89 25.5287 122.89 25.4255C123.509 25.0129 124.128 24.6003 124.747 24.2908C124.953 24.1877 125.263 23.9814 125.469 23.8782C125.572 23.8782 125.675 23.7751 125.778 23.7751C125.985 23.6719 126.191 23.5688 126.294 23.4656C126.397 23.4656 126.501 23.3625 126.501 23.3625C127.016 23.1561 127.532 22.9498 128.048 22.7435C128.151 22.7435 128.254 22.6404 128.254 22.6404C128.46 22.5372 128.564 22.5372 128.77 22.4341C128.873 22.4341 128.976 22.3309 129.079 22.3309C129.286 22.3309 129.389 22.2278 129.595 22.2278C129.698 22.2278 129.801 22.2278 129.905 22.1246C130.008 22.1246 130.214 22.0215 130.317 22.0215C130.42 22.0215 130.524 22.0215 130.627 21.9183C130.73 21.9183 130.936 21.9183 131.039 21.9183C131.142 21.9183 131.246 21.9183 131.349 21.9183C131.452 21.9183 131.555 21.9183 131.658 21.9183C131.761 21.9183 131.968 21.9183 132.071 21.9183C132.174 21.9183 132.277 21.9183 132.38 21.9183C132.587 21.9183 132.69 21.9183 132.896 21.9183C132.999 21.9183 133.102 21.9183 133.206 21.9183C133.515 21.9183 133.721 22.0215 134.031 22.0215H134.134C134.547 22.1246 134.856 22.2278 135.165 22.3309C135.269 22.3309 135.269 22.3309 135.372 22.4341C135.475 22.5372 135.681 22.5372 135.784 22.6404C135.888 22.6404 135.888 22.7435 135.991 22.7435C136.197 22.8467 136.403 22.9498 136.61 23.053L122.065 14.6976C121.859 14.5944 121.652 14.4912 121.446 14.3881C121.343 14.3881 121.343 14.2849 121.24 14.2849C121.137 14.1818 120.93 14.1818 120.827 14.0786C120.827 14.0786 120.827 14.0786 120.724 14.0786H120.621C120.311 13.9755 119.899 13.8723 119.589 13.7692C119.589 13.7692 119.589 13.7692 119.486 13.7692C119.28 13.7692 118.97 13.666 118.661 13.666H118.558C118.455 13.666 118.455 13.666 118.351 13.666C118.145 13.666 118.042 13.666 117.836 13.666C117.733 13.666 117.733 13.666 117.629 13.666H117.526C117.423 13.666 117.217 13.666 117.114 13.666C117.01 13.666 116.907 13.666 116.907 13.666H116.804C116.701 13.666 116.598 13.666 116.495 13.666C116.392 13.666 116.288 13.666 116.185 13.666H116.082C115.979 13.666 115.876 13.666 115.773 13.7692C115.669 13.7692 115.566 13.7692 115.463 13.7692C115.36 13.7692 115.36 13.7692 115.257 13.7692C115.154 13.7692 115.051 13.7692 114.947 13.8723C114.844 13.8723 114.741 13.8723 114.741 13.9755C114.638 13.9755 114.638 13.9755 114.535 14.0786C114.432 14.0786 114.328 14.1818 114.225 14.1818C114.122 14.1818 114.122 14.1818 114.019 14.1818C113.916 14.1818 113.813 14.2849 113.71 14.2849C113.606 14.2849 113.503 14.2849 113.503 14.3881H113.4C113.194 14.4912 112.987 14.5944 112.678 14.5944C112.472 14.6976 112.265 14.8007 112.059 14.9039H111.956C111.853 14.9039 111.75 15.007 111.75 15.007C111.646 15.1102 111.543 15.1102 111.44 15.2133C111.337 15.2133 111.337 15.3165 111.234 15.3165C111.131 15.3165 111.028 15.4196 110.924 15.4196C110.821 15.4196 110.821 15.5228 110.718 15.5228C110.512 15.6259 110.409 15.7291 110.202 15.8322C110.099 15.8322 110.099 15.9354 109.996 15.9354C109.687 16.1417 109.48 16.2449 109.171 16.4512C108.861 16.6575 108.655 16.7606 108.346 16.9669C108.346 16.9669 108.346 16.9669 108.242 16.9669C108.242 16.9669 108.139 16.9669 108.139 17.0701C107.933 17.1732 107.727 17.3795 107.52 17.4827C107.314 17.689 107.005 17.8953 106.798 18.1016C106.695 18.2048 106.592 18.2048 106.592 18.3079C106.489 18.3079 106.489 18.4111 106.386 18.4111C106.282 18.5142 106.179 18.6174 106.076 18.7205C105.87 18.9268 105.56 19.1332 105.354 19.3395C105.251 19.4426 105.045 19.6489 104.941 19.7521L104.838 19.8552C104.735 19.8552 104.735 19.9584 104.632 19.9584C104.426 20.1647 104.219 20.371 103.91 20.5773C103.704 20.7836 103.497 20.9899 103.291 21.2994C103.085 21.5057 102.878 21.712 102.672 22.0215C102.466 22.2278 102.259 22.5372 102.053 22.7435C102.053 22.7435 101.95 22.8467 101.95 22.9498C101.847 23.053 101.847 23.053 101.744 23.1561C101.537 23.3625 101.434 23.5688 101.228 23.7751C101.022 24.0845 100.712 24.394 100.506 24.7035C99.9901 25.4255 99.4743 26.2508 98.9586 26.9728C98.8554 27.1791 98.6491 27.3854 98.5459 27.5918C98.1333 28.2107 97.8239 28.8296 97.4112 29.4485C97.3081 29.5517 97.2049 29.758 97.2049 29.8611C97.1018 29.9643 97.1018 30.0674 96.9986 30.1706C96.8955 30.3769 96.7923 30.4801 96.6892 30.6864C96.586 30.8927 96.4829 31.099 96.3797 31.3053C96.2766 31.6147 96.0703 31.9242 95.9671 32.1305C95.9671 32.2337 95.8639 32.3368 95.8639 32.44C95.8639 32.44 95.8639 32.5431 95.7608 32.5431C95.5545 32.9557 95.3482 33.3684 95.245 33.781C95.1419 33.8841 95.1419 34.0904 95.0387 34.1936C94.9356 34.2967 94.9356 34.503 94.8324 34.6062C94.7293 34.8125 94.7293 34.9157 94.6261 35.122C94.4198 35.5346 94.3166 35.9472 94.1103 36.3598C94.1103 36.463 94.0072 36.463 94.0072 36.5661C94.0072 36.5661 94.0072 36.5661 94.0072 36.6693C93.8009 37.185 93.5946 37.7008 93.4914 38.1134C93.4914 38.2166 93.3883 38.3197 93.3883 38.4229C93.2851 38.6292 93.1819 38.9386 93.0788 39.145C92.9756 39.4544 92.8725 39.6607 92.7693 39.9702C92.7693 40.0733 92.6662 40.2796 92.6662 40.3828C92.563 40.6923 92.4599 41.0017 92.3567 41.208C92.2536 41.4143 92.2536 41.6206 92.1504 41.8269C92.1504 42.0333 92.0473 42.1364 92.0473 42.3427C91.9441 42.7553 91.841 43.1679 91.7378 43.5806C91.6346 43.7869 91.6346 43.9932 91.5315 44.0963C91.5315 44.1995 91.4283 44.3026 91.4283 44.4058C91.3252 44.9216 91.1189 45.4373 91.0157 46.0562C91.0157 46.2626 90.9126 46.3657 90.9126 46.572C90.9126 46.6752 90.9126 46.6752 90.9126 46.7783C90.7063 47.6035 90.5 48.4288 90.3968 49.254V49.3572C90.3968 49.4603 90.3968 49.5635 90.2936 49.6666C90.0873 50.4918 94.8324 53.8959 94.6261 54.618C94.6261 54.7211 94.6261 54.8243 94.5229 54.9275C94.5229 55.0306 94.5229 55.1338 94.4198 55.2369C94.4198 55.4432 94.3166 55.7527 94.3166 55.959C94.2135 56.2685 94.2135 56.6811 94.1103 56.9905C94.1103 57.1968 94.0072 57.5063 94.0072 57.7126C94.0072 57.8158 93.904 58.0221 93.904 58.1252C93.904 58.3315 93.904 58.4347 93.8009 58.5378C93.8009 58.8473 93.6977 59.1567 93.6977 59.4662C93.6977 59.7757 93.5946 59.982 93.5946 60.2914C93.5946 60.6009 93.4914 60.9104 93.4914 61.1167C93.4914 61.2198 93.4914 61.4261 93.3883 61.5293C93.3883 61.6324 93.3883 61.7356 93.3883 61.8387C93.3883 62.2514 93.2851 62.5608 93.2851 62.9734C93.2851 63.1797 93.2851 63.2829 93.182 63.4892C93.182 63.9018 93.0788 64.4176 93.0788 64.8302V64.9334V65.0365C93.0788 65.346 92.9756 65.6554 92.9756 65.9649C92.9756 66.068 92.9756 66.1712 92.9756 66.2743C92.9756 66.4807 92.9756 66.687 92.8725 66.8933C92.8725 66.9964 92.8725 67.0996 92.8725 67.0996C92.8725 67.409 92.8725 67.6153 92.8725 67.8217C92.8725 68.028 92.8725 68.2343 92.8725 68.4406C92.8725 68.5437 92.8725 68.5437 92.8725 68.6469C92.8725 68.75 92.8725 68.8532 92.8725 68.9563V69.0595C92.8725 69.1627 92.8725 69.2658 92.8725 69.2658L102.569 74.9393C102.569 74.8361 102.569 74.8361 102.569 74.7329V74.6298C102.569 74.5266 102.569 74.4235 102.569 74.3203C102.569 74.3203 102.569 74.2172 102.569 74.114C102.569 73.9077 102.569 73.7014 102.569 73.4951C102.569 73.2888 102.569 72.9793 102.569 72.773C102.569 72.6699 102.569 72.5667 102.569 72.5667C102.569 72.3604 102.569 72.1541 102.672 71.9478C102.672 71.8446 102.672 71.7415 102.672 71.6383C102.672 71.3289 102.775 71.0194 102.775 70.71V70.6068V70.5037C102.775 70.091 102.878 69.6784 102.878 69.1627C102.878 68.9563 102.878 68.8532 102.982 68.6469C102.982 68.2343 103.085 67.9248 103.085 67.5122C103.085 67.3059 103.188 67.0996 103.188 66.7901C103.188 66.4807 103.291 66.2744 103.291 65.9649C103.291 65.6554 103.394 65.4491 103.394 65.1397C103.394 64.8302 103.497 64.5207 103.497 64.2113C103.497 63.9018 103.6 63.5924 103.6 63.2829C103.6 63.0766 103.704 62.7671 103.704 62.5608C104.013 62.5608 104.116 62.2514 104.116 61.8387Z" fill="#FB7070"/>
<path d="M81.3194 80.9222C88.437 76.7961 95.3483 72.7731 95.7609 72.5668C95.7609 71.6384 95.0388 58.641 89.2622 55.237L80.0816 49.873C80.1847 49.873 80.1847 49.7698 80.2879 49.7698C80.7005 49.5635 81.01 49.3572 81.4226 49.1509C81.5257 49.0478 81.6289 49.0478 81.732 48.9446C82.0415 48.8415 82.2478 48.7383 82.5573 48.532C82.6604 48.532 82.7636 48.4288 82.8667 48.4288C83.073 48.3257 83.2793 48.2225 83.4856 48.2225C83.5888 48.2225 83.6919 48.1194 83.7951 48.1194C84.0014 48.0162 84.2077 48.0162 84.414 47.9131C84.5172 47.9131 84.6203 47.8099 84.7235 47.8099C84.8266 47.8099 84.9298 47.8099 85.0329 47.7068C85.2393 47.7068 85.3424 47.6036 85.5487 47.6036C85.6519 47.6036 85.755 47.6036 85.8582 47.5005C85.9613 47.5005 86.1676 47.3973 86.2708 47.3973C86.5802 47.2942 86.9929 47.2942 87.3023 47.2942C87.4055 47.2942 87.4055 47.2942 87.5086 47.2942C87.8181 47.2942 88.0244 47.2942 88.3339 47.2942C88.437 47.2942 88.437 47.2942 88.5402 47.2942C88.8496 47.2942 89.1591 47.3973 89.4685 47.3973C89.5717 47.3973 89.5717 47.3973 89.6749 47.3973C89.8812 47.3973 90.1906 47.5005 90.3969 47.6036C90.5001 47.6036 90.5001 47.6036 90.6032 47.7068C90.9127 47.8099 91.2222 47.9131 91.4285 48.0162C91.5316 48.0162 91.5316 48.0162 91.6348 48.1194C91.8411 48.2225 92.1505 48.3257 92.3568 48.532C92.46 48.532 92.46 48.6351 92.5632 48.6351L77.9153 40.2797C77.9153 40.2797 77.8122 40.2797 77.8122 40.1766H77.709C77.5027 40.0734 77.1933 39.9702 76.987 39.7639C76.987 39.7639 76.8838 39.7639 76.8838 39.6608C76.8838 39.6608 76.8838 39.6608 76.7807 39.6608C76.4712 39.5576 76.2649 39.4545 75.9554 39.3513C75.9554 39.3513 75.9554 39.3513 75.8523 39.3513H75.7491C75.5428 39.3513 75.3365 39.2482 75.1302 39.2482H75.027C75.027 39.2482 75.027 39.2482 74.9239 39.2482C74.6144 39.2482 74.305 39.145 73.9955 39.145C73.9955 39.145 73.9955 39.145 73.8924 39.145H73.7892C73.4797 39.145 73.2734 39.145 72.964 39.145H72.8608H72.7577C72.4482 39.145 72.0356 39.2482 71.7261 39.2482C71.7261 39.2482 71.7261 39.2482 71.623 39.2482C71.5198 39.2482 71.4167 39.2482 71.3135 39.3513C71.2104 39.3513 71.1072 39.3513 71.0041 39.4545C70.7977 39.4545 70.6946 39.5576 70.4883 39.5576C70.3851 39.5576 70.282 39.5576 70.1788 39.6608C70.0757 39.6608 69.9725 39.7639 69.9725 39.7639C69.7662 39.8671 69.5599 39.8671 69.3536 39.9702C69.2504 39.9702 69.1473 40.0734 69.0441 40.0734C68.8378 40.1766 68.6315 40.1766 68.4252 40.2797C68.4252 40.2797 68.3221 40.2797 68.3221 40.3829C68.2189 40.3829 68.2189 40.486 68.1158 40.486C67.8063 40.5892 67.6 40.6923 67.2905 40.8986C67.1874 41.0018 67.0842 41.0018 66.9811 41.1049C66.5685 41.3112 66.259 41.5176 65.8464 41.7239C65.3306 42.0333 64.8148 42.3428 64.2991 42.7554C64.0928 42.8585 63.9896 42.9617 63.7833 43.168C63.4738 43.3743 63.0612 43.6838 62.7518 43.9932C62.5455 44.0964 62.3392 44.3027 62.1328 44.509C61.8234 44.8185 61.5139 45.0248 61.2045 45.3342C60.9982 45.5405 60.7918 45.6437 60.6887 45.85C60.5855 45.9532 60.4824 46.0563 60.3792 46.1595C60.2761 46.2626 60.1729 46.4689 60.0698 46.5721C59.6572 46.9847 59.3477 47.3973 58.9351 47.8099C58.8319 47.9131 58.7288 48.0162 58.6256 48.2225C58.5225 48.3257 58.4193 48.4288 58.3162 48.532C58.1099 48.8415 57.9035 49.0478 57.6972 49.3572C57.5941 49.5635 57.3878 49.6667 57.2846 49.873C57.1815 49.9761 57.0783 50.1825 56.9752 50.2856C56.7689 50.4919 56.6657 50.6982 56.4594 50.9045C56.3562 51.0077 56.2531 51.214 56.1499 51.3171C55.9436 51.5235 55.8405 51.8329 55.6342 52.0392C55.531 52.2455 55.4279 52.3487 55.3247 52.555C55.3247 52.6581 55.2216 52.6581 55.2216 52.7613C54.9121 53.2771 54.6026 53.6897 54.3963 54.2054C54.3963 54.2054 54.3963 54.3086 54.2932 54.3086C54.19 54.4117 54.19 54.5149 54.0869 54.6181C53.8806 54.9275 53.6743 55.3401 53.5711 55.6496C53.4679 55.8559 53.3648 55.9591 53.3648 56.1654C53.2616 56.3717 53.1585 56.4748 53.1585 56.6811C53.0553 56.7843 53.0553 56.9906 52.9522 57.0937C52.7459 57.5064 52.5396 57.919 52.4364 58.3316C52.4364 58.4347 52.3333 58.4347 52.3333 58.5379C52.3333 58.5379 52.3333 58.5379 52.3333 58.641C52.1269 59.1568 51.9206 59.6726 51.7143 60.1884C51.7143 60.2915 51.6112 60.3947 51.6112 60.4978C51.508 60.7041 51.508 60.9104 51.4049 61.0136C51.3017 61.2199 51.1986 61.5293 51.0954 61.7357C50.9923 61.942 50.9923 62.1483 50.8891 62.3546C50.7859 62.5609 50.7859 62.7672 50.6828 63.0767C50.6828 63.1798 50.5796 63.3861 50.5796 63.4893C50.4765 63.6956 50.4765 64.005 50.3733 64.2113C50.2702 64.5208 50.2702 64.8303 50.167 65.0366C50.167 65.1397 50.0639 65.2429 50.0639 65.346C50.0639 65.5523 49.9607 65.7586 49.9607 65.965C49.8576 66.3776 49.7544 66.8933 49.7544 67.3059C49.7544 67.4091 49.7544 67.5123 49.6513 67.7186C49.6513 68.028 49.5481 68.2343 49.5481 68.5438C49.5481 68.7501 49.5481 68.9564 49.445 69.1627C49.445 69.7816 49.3418 70.4006 49.3418 71.0195C49.3418 74.9393 50.3733 78.0339 52.2301 80.097C52.849 80.8191 53.4679 81.3348 54.2932 81.7475L68.8378 90.1029C65.8464 88.3493 63.9896 84.6358 63.9896 79.3749C63.9896 78.756 63.9896 78.1371 64.0928 77.5182C64.0928 77.3118 64.0928 77.1055 64.1959 76.8992C64.1959 76.4866 64.2991 76.074 64.2991 75.6614C64.4022 75.2488 64.4022 74.733 64.5054 74.3204C64.6085 74.0109 64.6085 73.7015 64.7117 73.392C64.8148 73.0826 64.8148 72.7731 64.918 72.5668C65.0211 72.1542 65.1243 71.7416 65.2275 71.3289C65.3306 71.1226 65.3306 70.9163 65.4338 70.6069C65.5369 70.1943 65.7432 69.6785 65.8464 69.2659C65.9495 69.0596 65.9495 68.8533 66.0527 68.7501C66.259 68.1312 66.5684 67.5123 66.7748 66.8933C66.7748 66.7902 66.8779 66.7902 66.8779 66.687C67.0842 66.1713 67.3937 65.5523 67.6 65.0366C67.7031 64.8303 67.8063 64.7271 67.8063 64.5208C68.1157 64.005 68.3221 63.4893 68.6315 62.9735C68.7347 62.8703 68.7347 62.7672 68.8378 62.664C69.1473 62.0451 69.5599 61.5293 69.8694 60.9104C69.9725 60.7041 70.0757 60.601 70.1788 60.3947C70.4883 59.982 70.6946 59.5694 71.0041 59.1568C71.1072 58.9505 71.3135 58.7442 71.4167 58.5379C71.623 58.2284 71.9324 57.919 72.1387 57.6095C72.3451 57.3001 72.5514 57.0937 72.7577 56.7843C72.964 56.578 73.1703 56.2685 73.3766 56.0622C73.7892 55.6496 74.0987 55.237 74.5113 54.8244C74.7176 54.6181 75.027 54.3086 75.2334 54.1023C75.4397 53.896 75.646 53.7928 75.7491 53.5865C76.0586 53.2771 76.368 53.0708 76.6775 52.7613C76.8838 52.555 77.0901 52.4518 77.2964 52.2455C77.6059 51.9361 78.0185 51.7298 78.328 51.4203C78.5343 51.3171 78.6374 51.214 78.8437 51.0077C79.2563 50.6982 79.7721 50.3888 80.1847 50.1825C63.7833 57.3001 66.8779 77.0024 66.6716 77.0024C66.5684 77.0024 66.5685 77.0024 66.4653 77.0024C66.1558 77.0024 65.5369 76.8992 65.4338 76.8992C65.2275 76.8992 65.0211 76.7961 64.8148 76.6929C64.7117 76.6929 64.7117 76.6929 64.6085 76.5898C64.4022 76.4866 64.0928 76.3835 63.8865 76.2803L73.5829 81.9538C73.5829 81.9538 73.5829 81.9538 73.686 81.9538C73.8924 82.0569 73.9955 82.1601 74.2018 82.2632H74.305C74.4081 82.2632 74.4081 82.2632 74.5113 82.3664C74.6144 82.3664 74.7176 82.4695 74.8207 82.4695C74.9239 82.4695 75.027 82.4695 75.1302 82.5727C75.2334 82.5727 75.2334 82.5727 75.3365 82.5727H75.4397C75.646 82.5727 75.8523 82.6758 76.0586 82.6758C76.1617 82.6758 76.1617 82.6758 76.2649 82.6758C76.4712 82.6758 76.5743 82.6758 76.7807 82.6758C76.8838 82.6758 76.8838 82.6758 76.987 82.6758C77.0901 82.6758 77.1933 82.6758 77.2964 82.6758C77.3996 82.6758 77.5027 82.6758 77.6059 82.6758C77.709 82.6758 77.8122 82.6758 77.9153 82.5727C78.0185 82.5727 78.2248 82.4695 78.328 82.4695C78.4311 82.4695 78.5343 82.4695 78.5343 82.4695C78.6374 82.4695 78.7406 82.3664 78.7406 82.3664C78.9469 82.2632 79.2563 82.1601 79.4626 82.0569C79.5658 82.0569 79.669 81.9538 79.7721 81.9538C79.8753 81.9538 79.9784 81.8506 80.0816 81.8506C80.1847 81.8506 80.2879 81.7475 80.2879 81.7475C80.7005 81.3348 81.01 81.1285 81.3194 80.9222Z" fill="#FB7070"/>
<path d="M53.8809 81.1284L68.4255 89.4839" stroke="#171A21" stroke-width="2" stroke-miterlimit="10" stroke-linecap="round" stroke-linejoin="round"/>
<path d="M141.561 33.6777C141.561 44.3025 134.134 57.2998 124.85 62.5607C113.812 68.9562 103.188 74.9391 102.672 75.2486C102.775 73.2887 104.322 35.8439 124.747 23.9812C133.927 18.7204 141.458 23.0529 141.561 33.6777ZM134.649 37.5975C134.649 30.6862 129.801 27.9011 123.715 31.4083C110.408 39.0417 109.48 63.2828 109.377 64.6238C109.789 64.4174 116.598 60.4976 123.818 56.3715C129.801 52.9674 134.649 44.5088 134.649 37.5975Z" fill="#FFD394"/>
<path d="M124.746 24.0846C134.03 18.7206 141.56 23.0531 141.56 33.6779C141.56 34.2968 141.56 34.9157 141.457 35.5346" stroke="#171A21" stroke-width="2" stroke-miterlimit="10" stroke-linecap="round" stroke-linejoin="round"/>
<path d="M80.2865 49.7696C100.814 37.9069 102.568 73.4949 102.671 75.3517C102.155 75.6611 91.4271 81.9535 80.4928 88.2459C71.209 93.6099 63.6788 89.2774 63.6788 78.6526C63.5756 68.0278 71.0027 55.1336 80.2865 49.7696ZM70.3838 74.7327C70.3838 81.644 75.232 84.4292 81.3181 80.922C88.4357 76.7958 95.347 72.7728 95.7596 72.5665C95.6564 71.3287 94.5217 48.3254 81.3181 55.9588C75.232 59.466 70.3838 67.8215 70.3838 74.7327Z" fill="#FFD394"/>
</svg>
