<svg width="409" height="356" viewBox="0 0 409 356" fill="none" xmlns="http://www.w3.org/2000/svg">
<path d="M262.805 334.165L184.062 288.679C182.024 287.499 179.449 289.001 179.449 291.361L179.234 299.085C179.234 303.483 181.595 307.453 185.349 309.706L262.59 354.334C266.345 356.479 271.065 356.479 274.82 354.334L351.524 309.706C355.279 307.56 357.532 303.483 357.639 299.192L357.854 291.361C357.854 289.001 355.279 287.499 353.241 288.679L275.035 334.058C271.28 336.311 266.559 336.311 262.805 334.165Z" fill="#2F58FF"/>
<path d="M353.241 288.679L275.035 334.165C271.28 336.311 266.559 336.418 262.805 334.165L184.062 288.679C182.024 287.499 182.024 284.602 184.062 283.422L262.268 237.936C266.023 235.79 270.743 235.683 274.498 237.936L353.241 283.422C355.279 284.602 355.279 287.499 353.241 288.679Z" fill="#FEE2E2"/>
<path d="M310.972 285.245C310.436 284.924 309.685 285.138 309.256 285.675C296.811 306.165 272.352 309.276 257.011 311.529C256.367 311.636 255.831 312.065 256.367 312.387C256.582 312.494 256.903 312.602 257.44 312.602C264.52 313.031 284.152 312.387 297.777 304.448C311.294 296.51 311.938 287.606 311.723 286.211C311.508 285.675 311.187 285.46 310.972 285.245ZM296.597 280.74C296.275 280.525 295.631 280.418 295.095 280.311C291.769 279.989 288.658 279.989 285.011 277.843L272.995 270.87C272.137 270.441 271.386 269.905 270.635 269.475C266.451 267.115 262.482 265.077 256.367 265.184C250.574 265.292 244.674 267.544 240.919 269.69C233.624 273.981 228.26 280.203 235.555 286.533C235.662 286.64 235.769 286.64 235.769 286.747C236.52 287.176 237.593 287.069 238.237 286.855L246.497 282.993C247.141 282.563 246.926 281.92 246.39 281.383C243.923 279.238 244.995 276.77 247.892 275.161C249.501 274.196 251.861 273.552 254.221 273.767C256.367 273.981 258.083 274.839 259.585 275.805C260.014 276.019 260.336 276.234 260.765 276.449L261.731 276.985C257.762 279.881 252.29 283.422 249.93 286.962C247.248 290.931 248.107 295.437 254.329 298.977C262.375 303.59 271.386 303.054 277.823 299.299C283.294 296.081 285.011 293.613 284.903 288.678C288.336 289 289.731 289.322 294.451 289.107C295.309 289 296.06 288.464 296.06 287.927C296.275 286.211 296.597 283.207 296.811 281.598C297.133 281.169 297.026 280.954 296.597 280.74ZM264.413 291.682C257.869 287.927 262.482 283.743 268.06 280.525L269.777 281.491C270.099 281.598 270.313 281.812 270.528 281.92C273.21 283.422 275.463 284.816 276.428 287.069C277.394 289 276.75 290.931 274.604 292.219C271.708 293.935 267.739 293.613 264.413 291.682ZM313.439 280.096C313.01 279.881 312.581 279.667 312.259 279.667C310.757 279.56 307.325 281.383 305.501 282.671C303.784 283.958 301.961 286.318 302.819 286.747H302.926C303.355 286.855 303.462 286.64 304.75 285.675C306.037 284.816 309.47 282.134 311.401 282.349C311.723 282.349 312.045 282.456 312.474 282.671C314.298 283.743 316.551 286.855 316.98 287.391C317.087 287.606 317.194 287.713 317.301 287.713C317.731 287.927 318.16 287.713 318.267 287.176C318.374 286.425 318.16 284.924 316.98 283.207C316.121 282.134 314.62 280.74 313.439 280.096Z" fill="#FB7070"/>
</svg>
