<svg width="410" height="356" viewBox="0 0 410 356" fill="none" xmlns="http://www.w3.org/2000/svg">
<path d="M355.709 155.438C285.012 114.672 170.76 114.672 100.492 155.438C30.2246 196.312 30.6537 262.503 101.351 303.269C172.047 344.142 286.407 344.142 356.567 303.269C426.835 262.503 426.406 196.312 355.709 155.438Z" stroke="#171A21" stroke-width="2" stroke-miterlimit="10" stroke-linecap="round" stroke-linejoin="round" stroke-dasharray="12 12"/>
<path d="M297.671 180.649C259.265 158.442 197.15 158.442 158.959 180.649C120.768 202.856 120.982 238.794 159.388 261.001C197.794 283.208 259.909 283.208 298.1 261.001C336.291 238.794 336.077 202.856 297.671 180.649Z" stroke="#171A21" stroke-width="2" stroke-miterlimit="10" stroke-linecap="round" stroke-linejoin="round" stroke-dasharray="12 12"/>
<path d="M81.6118 228.602C81.7191 228.495 81.7191 228.28 81.8264 228.173C81.9337 227.958 82.1482 227.636 82.3628 227.422C89.1214 215.836 96.0945 169.598 95.4508 164.664C95.4508 164.664 148.339 177.43 149.412 187.621C150.485 197.491 152.523 211.759 156.385 240.403C156.385 241.046 156.385 241.583 156.385 242.226C156.385 244.265 155.742 245.981 154.776 247.376C153.274 250.058 150.7 252.525 147.159 254.671C133.32 262.717 109.183 261.644 93.3052 252.418C81.5045 245.552 77.4279 236.219 81.6118 228.602Z" fill="#FEE2E2"/>
<path d="M196.291 61.8904C206.59 82.5953 205.303 134.411 201.441 158.763C197.579 183.116 188.245 203.284 181.594 208.541C165.395 221.522 132.353 194.916 103.495 180.219C83.4339 170.028 71.5259 138.059 67.7711 109.844C64.66 86.4573 67.4493 48.4806 99.2039 33.7833C130.958 19.0861 178.161 25.8447 196.291 61.8904Z" fill="white"/>
<path d="M67.6657 109.844C64.5546 86.4573 67.3438 48.4806 99.0984 33.7833C130.853 19.0861 178.27 25.8447 196.293 61.8904C206.592 82.5953 205.305 134.411 201.443 158.763C197.581 183.116 188.247 203.284 181.596 208.541C170.117 217.767 150.163 207.039 129.244 194.809" stroke="#171A21" stroke-width="2" stroke-miterlimit="10" stroke-linecap="round" stroke-linejoin="round"/>
<path d="M184.277 120.894L196.078 148.465C196.936 150.396 196.721 152.542 195.648 154.258L194.254 156.618C192.859 158.978 190.177 160.158 187.495 159.622L178.269 157.906C174.836 157.262 172.583 153.936 173.12 150.503L178.055 121.645C178.698 118.427 182.99 117.891 184.277 120.894Z" fill="#FB7070"/>
<path d="M194.577 121.431C197.539 121.431 199.941 118.069 199.941 113.921C199.941 109.774 197.539 106.412 194.577 106.412C191.614 106.412 189.213 109.774 189.213 113.921C189.213 118.069 191.614 121.431 194.577 121.431Z" fill="#2F58FF"/>
<path d="M158.102 141.813C161.065 141.813 163.466 138.451 163.466 134.304C163.466 130.157 161.065 126.794 158.102 126.794C155.14 126.794 152.738 130.157 152.738 134.304C152.738 138.451 155.14 141.813 158.102 141.813Z" fill="#2F58FF"/>
<path d="M192.216 51.6991C203.373 56.4194 212.277 71.2239 206.162 84.0974C200.047 96.8636 178.377 100.833 166.361 97.7218C179.664 125.4 112.507 111.132 104.461 106.411C108.538 130.871 100.814 148.036 112.722 170.35C122.27 188.158 118.944 210.472 102.53 217.552C58.546 236.541 10.2705 205.859 2.76094 184.94C-11.829 144.281 39.3431 134.411 31.7263 121.001C23.144 105.875 19.1746 73.1549 34.4082 51.27C44.0634 37.431 65.4119 24.7721 82.8983 36.251C88.0477 9.9676 134.178 12.435 143.404 13.5078C162.392 15.8679 191.036 21.1246 192.216 51.6991Z" fill="#FB7070"/>
<path d="M184.598 91.2848C190.391 85.9208 204.122 88.7101 208.092 93.4304" stroke="#171A21" stroke-width="2" stroke-miterlimit="10" stroke-linecap="round" stroke-linejoin="round"/>
<path d="M159.925 106.411C151.342 103.515 138.683 114.028 138.576 124.971" stroke="#171A21" stroke-width="2" stroke-miterlimit="10" stroke-linecap="round" stroke-linejoin="round"/>
<path d="M30.4395 183.116C19.0679 190.411 36.8762 204.894 43.9567 189.874C51.2516 174.426 13.4894 163.269 12.953 180.112C12.5239 196.204 24.0028 211.652 44.1712 217.016" stroke="#171A21" stroke-width="2" stroke-miterlimit="10" stroke-linecap="round" stroke-linejoin="round"/>
<path d="M112.508 157.583C112.508 157.583 119.159 171.959 135.144 181.721C151.128 191.484 170.653 184.081 170.653 184.081" stroke="#2F58FF" stroke-width="4" stroke-miterlimit="10"/>
<path d="M169.58 196.741C176.809 196.741 182.668 190.881 182.668 183.652C182.668 176.424 176.809 170.564 169.58 170.564C162.352 170.564 156.492 176.424 156.492 183.652C156.492 190.881 162.352 196.741 169.58 196.741Z" fill="#2F58FF"/>
<path d="M94.3776 158.012C94.3776 157.69 94.3776 157.368 94.2703 157.047C94.2703 156.832 94.2703 156.725 94.2703 156.51C94.2703 156.188 94.163 155.867 94.163 155.545C94.163 155.437 94.163 155.223 94.0557 155.116C94.0557 154.901 93.9485 154.686 93.9485 154.365C93.9485 154.043 93.8412 153.614 93.8412 153.292C93.8412 153.077 93.7339 152.863 93.7339 152.541C93.6266 152.219 93.6266 151.897 93.5193 151.468C93.4121 151.146 93.4121 150.932 93.3048 150.61C93.3048 150.395 93.1975 150.181 93.1975 149.966C93.0902 149.644 93.0902 149.323 92.9829 149.108C92.8757 148.893 92.8757 148.679 92.7684 148.464C92.7684 148.25 92.6611 148.142 92.6611 147.928C92.4465 147.177 92.232 146.426 92.0174 145.675C92.0174 145.568 92.0174 145.568 91.9101 145.46C91.6956 144.71 91.3738 143.959 91.1592 143.315C91.0519 143.1 91.0519 142.993 90.9446 142.778C90.7301 142.135 90.4082 141.598 90.1937 140.955C90.1937 140.847 90.0864 140.74 90.0864 140.633C89.7646 139.989 89.4427 139.238 89.1209 138.595C89.0136 138.38 88.9063 138.273 88.9063 138.058C88.6918 137.522 88.3699 136.985 88.1554 136.449C88.0481 136.342 87.9408 136.127 87.9408 136.02C87.619 135.376 87.1899 134.733 86.868 134.089C86.7608 133.982 86.7608 133.874 86.6535 133.767C86.3316 133.231 86.0098 132.694 85.688 132.158C85.5807 132.051 85.4734 131.836 85.3661 131.729C84.937 131.085 84.5079 130.441 84.0788 129.798C83.9715 129.69 83.9715 129.583 83.8642 129.476C83.4351 128.832 82.8987 128.189 82.3623 127.545C82.255 127.438 82.255 127.33 82.1478 127.33C81.5041 126.579 80.8604 125.721 80.2167 124.97C80.1095 124.863 80.0022 124.756 80.0022 124.648C79.5731 124.219 79.144 123.683 78.8221 123.254C78.8221 123.254 78.8221 123.254 78.7148 123.146C78.2857 122.717 77.8566 122.181 77.4275 121.752C77.1056 121.43 76.8911 121.215 76.5693 120.894C76.462 120.786 76.462 120.786 76.3547 120.679C75.9256 120.357 75.6037 119.928 75.1746 119.606C75.0673 119.499 74.9601 119.392 74.8528 119.392C74.531 119.177 74.3164 118.855 73.9946 118.641C73.8873 118.533 73.6727 118.426 73.5654 118.319C73.3509 118.104 73.029 117.89 72.8145 117.675C72.7072 117.568 72.4927 117.461 72.3854 117.353C72.1708 117.139 71.849 116.924 71.6344 116.817C71.5271 116.71 71.3126 116.602 71.2053 116.495C70.8835 116.281 70.6689 116.066 70.3471 115.959C70.2398 115.851 70.1325 115.744 69.918 115.744C69.4888 115.53 69.0597 115.208 68.6306 114.993C68.0942 114.671 67.5578 114.35 67.0214 114.135C66.9141 114.028 66.6996 114.028 66.5923 113.92C66.1632 113.706 65.7341 113.491 65.305 113.384C65.1977 113.277 64.9831 113.277 64.8758 113.169C64.4467 113.062 64.1249 112.848 63.6958 112.74C63.5885 112.74 63.4812 112.633 63.3739 112.633C62.9448 112.419 62.4084 112.311 61.9793 112.204C61.6575 112.097 61.4429 112.097 61.1211 111.989C61.0138 111.989 60.9065 111.882 60.692 111.882C60.2628 111.775 59.941 111.775 59.5119 111.668C59.1901 111.56 58.7609 111.56 58.4391 111.56C58.3318 111.56 58.2245 111.56 58.1173 111.56C57.9027 111.56 57.5809 111.56 57.3663 111.56C57.259 111.56 57.1518 111.56 57.0445 111.56C56.8299 111.56 59.2973 107.913 59.2973 107.913L79.4658 96.2194L79.5731 96.1121C79.6803 96.1121 79.6803 96.1121 79.7876 96.0048C80.1095 95.7903 80.4313 95.683 80.7531 95.5757C80.8604 95.5757 80.8604 95.4684 80.9677 95.4684C80.9677 95.4684 81.075 95.4684 81.075 95.3612C81.5041 95.2539 81.8259 95.0393 82.255 94.932C82.6842 94.8248 83.1133 94.7175 83.5424 94.6102H83.6497C83.757 94.6102 83.7569 94.6102 83.8642 94.6102C84.2933 94.5029 84.6152 94.5029 85.0443 94.5029C85.1516 94.5029 85.1516 94.5029 85.2589 94.5029H85.3661C85.4734 94.5029 85.5807 94.5029 85.5807 94.5029C85.7952 94.5029 86.1171 94.5029 86.3316 94.5029C86.4389 94.5029 86.5462 94.5029 86.6535 94.5029C86.7608 94.5029 86.868 94.5029 86.868 94.5029C87.0826 94.5029 87.1899 94.5029 87.4044 94.5029C87.5117 94.5029 87.619 94.5029 87.7263 94.5029C88.0481 94.5029 88.4772 94.6102 88.7991 94.6102C89.2282 94.7175 89.55 94.7175 89.9791 94.8248C90.0864 94.8248 90.1937 94.932 90.4082 94.932C90.6228 95.0393 90.9446 95.0393 91.1592 95.1466C91.1592 95.1466 91.1592 95.1466 91.2665 95.1466C91.6956 95.2539 92.232 95.4684 92.6611 95.5757C92.7684 95.5757 92.8757 95.683 92.9829 95.683C93.4121 95.7903 93.7339 96.0048 94.163 96.1121C94.163 96.1121 94.2703 96.1121 94.2703 96.2194C94.3776 96.2194 94.4848 96.3267 94.5921 96.3267C95.0212 96.5412 95.4504 96.6485 95.8795 96.8631C95.9868 96.9704 96.2013 96.9703 96.3086 97.0776C96.845 97.3995 97.3814 97.614 97.9178 97.9359C98.3469 98.1504 98.776 98.4723 99.2051 98.6868C99.3124 98.7941 99.4197 98.9014 99.6342 98.9014C99.9561 99.1159 100.171 99.2232 100.492 99.4378C100.6 99.545 100.814 99.6523 100.922 99.7596C101.136 99.9742 101.458 100.081 101.673 100.296C101.78 100.403 101.994 100.511 102.102 100.618C102.316 100.832 102.638 101.047 102.853 101.262C102.96 101.369 103.174 101.476 103.282 101.583C103.604 101.798 103.818 102.012 104.14 102.334C104.247 102.442 104.355 102.549 104.462 102.549C104.891 102.871 105.213 103.193 105.642 103.622C105.749 103.729 105.749 103.729 105.856 103.836C106.071 104.051 106.393 104.265 106.607 104.587L106.715 104.694C107.144 105.124 107.573 105.553 108.002 106.089C108.002 106.089 108.002 106.089 108.109 106.196C108.538 106.625 108.968 107.055 109.289 107.591L109.397 107.698C109.397 107.806 109.504 107.806 109.504 107.913C110.148 108.664 110.791 109.415 111.435 110.273C111.435 110.273 111.435 110.273 111.542 110.38C111.542 110.488 111.649 110.488 111.649 110.595C112.186 111.238 112.615 111.882 113.151 112.526C113.151 112.633 113.259 112.633 113.259 112.74C113.259 112.74 113.259 112.848 113.366 112.848C113.795 113.491 114.224 114.135 114.653 114.779C114.653 114.886 114.761 114.886 114.761 114.993C114.868 115.101 114.868 115.208 114.975 115.315C115.297 115.851 115.619 116.388 115.941 116.924C115.941 117.032 116.048 117.139 116.048 117.139C116.048 117.139 116.048 117.246 116.155 117.246C116.477 117.89 116.906 118.533 117.228 119.177L117.335 119.284C117.443 119.392 117.443 119.499 117.55 119.606C117.872 120.143 118.086 120.679 118.301 121.215C118.301 121.323 118.408 121.43 118.515 121.537C118.515 121.645 118.623 121.645 118.623 121.752C118.944 122.395 119.266 123.039 119.588 123.79C119.588 123.79 119.588 123.79 119.588 123.897C119.588 124.005 119.695 124.005 119.695 124.112C119.91 124.756 120.232 125.292 120.446 125.936C120.446 126.043 120.554 126.15 120.554 126.258C120.554 126.365 120.661 126.472 120.661 126.472C120.983 127.223 121.197 127.867 121.412 128.618V128.725C121.626 129.476 121.841 130.227 122.056 130.978C122.056 131.085 122.163 131.192 122.163 131.3C122.163 131.407 122.163 131.514 122.27 131.514C122.377 131.729 122.377 131.943 122.485 132.158C122.592 132.48 122.592 132.802 122.699 133.016C122.807 133.231 122.807 133.445 122.807 133.66C122.807 133.767 122.914 133.982 122.914 134.089C122.914 134.196 122.914 134.303 123.021 134.411C123.128 134.733 123.128 135.054 123.236 135.484C123.236 135.698 123.343 135.913 123.343 136.234C123.45 136.556 123.45 136.985 123.45 137.307C123.45 137.522 123.557 137.629 123.557 137.844C123.557 137.951 123.557 137.951 123.557 138.058C123.557 138.165 123.557 138.38 123.665 138.487C123.665 138.809 123.772 139.131 123.772 139.453C123.772 139.667 123.772 139.775 123.772 139.989C123.772 140.311 123.772 140.633 123.879 140.955C123.879 141.062 123.879 141.277 123.879 141.384C123.879 141.813 123.879 142.349 123.879 142.778C123.879 151.039 120.983 156.832 116.262 159.514L96.6304 170.993C96.6304 170.993 94.4848 168.204 94.4848 159.943C94.4848 159.514 94.4848 158.978 94.4848 158.548C94.4848 158.334 94.4848 158.227 94.3776 158.012Z" fill="#2F58FF"/>
<path d="M78.0706 109.522C63.6952 101.154 51.8945 107.913 51.8945 124.434C51.8945 140.955 63.4807 161.231 77.9633 169.491C92.446 177.752 104.139 171.1 104.139 154.579C104.139 138.058 92.5533 117.89 78.0706 109.522Z" fill="white"/>
<path d="M78.0702 124.219C70.7752 120.036 64.7676 123.361 64.7676 131.836C64.7676 140.311 70.6679 150.503 77.9629 154.794C85.2579 158.978 91.2655 155.652 91.2655 147.177C91.2655 138.809 85.3651 128.511 78.0702 124.219Z" fill="#FB7070"/>
<path d="M88.3705 109.63L94.8073 105.875C94.8073 77.6605 114.439 43.3312 138.899 29.2777C148.232 23.9137 156.922 22.3045 164.002 23.9137C170.332 21.5536 181.06 24.6647 186.424 32.8179C183.849 26.3811 179.88 21.6609 174.73 18.7643C174.73 18.7643 174.837 18.7643 174.837 18.8716L170.117 16.0823C169.795 15.8678 169.473 15.7605 169.152 15.5459C169.044 15.4387 168.937 15.4387 168.83 15.4387C168.615 15.3314 168.401 15.2241 168.186 15.1168C168.079 15.0096 167.972 15.0096 167.757 14.9023C167.542 14.795 167.328 14.6877 167.113 14.6877C167.006 14.5804 166.791 14.5804 166.684 14.4732C166.47 14.3659 166.255 14.3659 166.041 14.2586C165.933 14.2586 165.933 14.1513 165.826 14.1513H165.719C165.182 13.9368 164.753 13.8295 164.217 13.7222C164.109 13.7222 164.002 13.7222 164.002 13.6149C163.466 13.5076 162.929 13.2931 162.393 13.1858H162.286C161.964 13.0785 161.535 13.0785 161.213 12.9713C161.106 12.9713 160.998 12.9713 160.891 12.864C160.569 12.864 160.14 12.7567 159.711 12.7567H159.604C159.175 12.7567 158.853 12.6494 158.424 12.6494C158.316 12.6494 158.209 12.6494 158.102 12.6494C157.78 12.6494 157.458 12.6494 157.136 12.6494H157.029C156.922 12.6494 156.815 12.6494 156.707 12.6494C156.493 12.6494 156.278 12.6494 156.064 12.6494C155.849 12.6494 155.742 12.6494 155.527 12.6494C155.313 12.6494 155.098 12.6494 154.884 12.6494C154.776 12.6494 154.776 12.6494 154.669 12.6494C154.562 12.6494 154.454 12.6494 154.347 12.6494C154.133 12.6494 154.025 12.6494 153.811 12.6494C153.596 12.6494 153.382 12.6494 153.274 12.7567C153.06 12.7567 152.952 12.7567 152.738 12.864C152.631 12.864 152.631 12.864 152.523 12.864C152.416 12.864 152.416 12.864 152.309 12.864C151.665 12.9713 151.021 13.0785 150.378 13.1858H150.271C150.163 13.1858 150.163 13.1858 150.056 13.1858C149.412 13.2931 148.769 13.4004 148.125 13.6149C147.481 13.7222 146.838 13.9368 146.301 14.1513C146.194 14.1513 146.194 14.1513 146.087 14.1513H145.979C145.443 14.3659 144.799 14.4732 144.263 14.6877H144.156C144.048 14.6877 144.048 14.795 143.941 14.795C142.761 15.2241 141.581 15.7605 140.294 16.2969C140.186 16.2969 140.186 16.4042 140.079 16.4042C139.972 16.4042 139.972 16.5115 139.864 16.5115C139.221 16.8333 138.684 17.0479 138.041 17.3697H137.933C137.826 17.3697 137.826 17.477 137.719 17.477C137.182 17.7988 136.646 18.0134 136.11 18.3352C136.002 18.3352 136.002 18.4425 135.895 18.4425C135.895 18.4425 135.788 18.4425 135.788 18.5498C135.251 18.7643 134.822 19.0862 134.286 19.408C134.071 19.5153 133.964 19.6225 133.75 19.7298C133.106 20.1589 132.462 20.4808 131.819 20.9099C131.711 20.9099 131.711 21.0172 131.604 21.0172C130.853 21.4463 130.209 21.9827 129.458 22.4118C129.351 22.4118 129.351 22.5191 129.244 22.5191C128.922 22.7336 128.707 22.9482 128.386 23.0555C127.956 23.3773 127.635 23.5919 127.206 23.9137C127.098 24.021 126.991 24.1283 126.776 24.2355C126.455 24.4501 126.133 24.7719 125.811 24.9865C125.489 25.2011 125.274 25.4156 124.953 25.6302C124.738 25.7375 124.631 25.952 124.416 26.0593C124.094 26.3811 123.773 26.5957 123.343 26.9175C123.129 27.1321 122.914 27.3466 122.593 27.4539C122.378 27.6685 122.163 27.7758 121.949 27.9903C121.627 28.3122 121.198 28.634 120.876 28.9558C120.661 29.1704 120.447 29.2777 120.34 29.4922C120.125 29.7068 119.911 29.9213 119.589 30.1359C119.267 30.4577 118.945 30.7796 118.516 31.1014C118.409 31.2087 118.194 31.4232 118.087 31.5305C117.765 31.7451 117.55 32.0669 117.229 32.2815C116.907 32.6033 116.585 32.9251 116.263 33.247C116.156 33.3543 116.049 33.4615 115.941 33.5688C115.619 33.8907 115.298 34.2125 114.976 34.5343C114.654 34.8562 114.439 35.178 114.117 35.4998C114.01 35.6071 113.903 35.7144 113.903 35.7144C113.474 36.1435 113.045 36.5726 112.723 37.109C112.508 37.3236 112.294 37.5381 112.079 37.86L111.972 37.9673C111.328 38.7182 110.685 39.4692 110.041 40.2201C109.934 40.3274 109.934 40.3274 109.826 40.4347C109.183 41.1856 108.646 41.8293 108.11 42.5803L108.003 42.6875C107.252 43.653 106.501 44.5113 105.857 45.4768C105.213 46.335 104.677 47.1933 104.033 48.0515C103.819 48.3733 103.711 48.5879 103.497 48.9097C103.175 49.3388 102.96 49.6607 102.639 50.0898C102.531 50.3043 102.424 50.4116 102.317 50.6262C101.995 51.1626 101.566 51.699 101.244 52.2354C100.922 52.6645 100.708 53.0936 100.386 53.5227C100.064 54.0591 99.6348 54.7028 99.313 55.2392C99.0984 55.561 98.8839 55.8829 98.6693 56.2047C98.562 56.312 98.562 56.5265 98.4547 56.6338C98.3475 56.8484 98.1329 57.0629 98.0256 57.3848C97.5965 58.0284 97.2747 58.7794 96.8456 59.4231C96.7383 59.6376 96.631 59.8522 96.4164 60.174C96.3092 60.2813 96.3092 60.3886 96.2019 60.6031C95.9873 61.0322 95.7728 61.3541 95.5582 61.7832C95.3437 62.3196 95.0218 62.7487 94.8073 63.2851C94.7 63.3924 94.7 63.4997 94.5927 63.6069C94.2709 64.1433 94.0563 64.787 93.7345 65.3234C93.6272 65.538 93.5199 65.8598 93.3054 66.0744C93.3054 66.0744 93.3054 66.1816 93.1981 66.1816C92.769 67.0399 92.4471 67.7908 92.1253 68.6491C92.1253 68.7563 92.018 68.7563 92.018 68.8636C91.9107 69.0782 91.8035 69.2927 91.6962 69.6146C91.4816 70.151 91.2671 70.5801 91.0525 71.1165C90.9452 71.331 90.8379 71.5456 90.8379 71.7601C90.7307 72.082 90.6234 72.4038 90.4088 72.7257C90.3015 73.0475 90.1943 73.262 90.087 73.5839C89.9797 74.013 89.7651 74.3348 89.6579 74.764C89.5506 75.0858 89.4433 75.4076 89.336 75.6222C89.336 75.7295 89.2288 75.944 89.2288 76.0513C89.0142 76.695 88.6924 77.4459 88.4778 78.0896C88.4778 78.1969 88.3705 78.4114 88.3705 78.5187C88.3705 78.5187 88.3705 78.5187 88.3705 78.626C88.0487 79.4842 87.8341 80.3425 87.5123 81.2007C87.5123 81.308 87.5123 81.308 87.405 81.4153C87.2977 81.7371 87.1904 82.0589 87.1904 82.2735C87.0832 82.8099 86.8686 83.3463 86.7613 83.7754C86.7613 83.9899 86.6541 84.0972 86.6541 84.3118C86.5468 84.6336 86.4395 85.0627 86.3322 85.3846C86.2249 85.7064 86.1177 86.1355 86.0104 86.4574C85.9031 86.6719 85.9031 86.9938 85.7958 87.2083C85.6885 87.5302 85.5813 87.9593 85.5813 88.2811C85.474 88.4957 85.474 88.8175 85.3667 89.0321C85.2594 89.4612 85.2594 89.783 85.1522 90.2121C85.0449 90.534 85.0449 90.8558 84.9376 91.2849C84.9376 91.3922 84.8303 91.6068 84.8303 91.714C84.723 92.3577 84.6158 93.0014 84.5085 93.6451C84.5085 93.8596 84.4012 94.0742 84.4012 94.1815V94.2887C84.2939 95.147 84.1866 96.0052 84.0794 96.8634C84.0794 96.9707 84.0794 96.9707 84.0794 97.078C84.0794 97.2925 83.9721 97.6144 83.9721 97.8289C83.8648 98.3653 83.8648 98.7944 83.7575 99.3308C83.7575 99.5454 83.7575 99.76 83.7575 99.8672C83.7575 100.189 83.7575 100.511 83.6502 100.833C83.6502 101.155 83.6502 101.476 83.543 101.691C83.543 102.013 83.543 102.335 83.543 102.657C83.543 102.978 83.543 103.3 83.543 103.622C83.543 103.837 83.543 103.944 83.543 104.158C83.543 104.909 83.543 105.66 83.543 106.304L88.3705 109.63ZM173.014 17.7988C173.228 17.9061 173.443 18.0134 173.657 18.1206C173.765 18.1206 173.872 18.2279 173.979 18.2279C174.194 18.3352 174.408 18.4425 174.623 18.5498C174.086 18.3352 173.55 18.1206 173.014 17.7988ZM171.297 17.0479C171.404 17.0479 171.512 17.1551 171.619 17.1551C171.726 17.2624 171.941 17.2624 172.048 17.3697C172.263 17.477 172.477 17.5842 172.692 17.5842C172.799 17.5842 172.799 17.6915 172.906 17.6915C172.263 17.477 171.834 17.2624 171.297 17.0479ZM169.581 16.5115C169.903 16.6187 170.332 16.726 170.654 16.8333C170.761 16.8333 170.868 16.9406 170.975 16.9406C170.546 16.8333 170.117 16.726 169.581 16.5115ZM167.221 15.9751C167.221 15.9751 167.328 15.9751 167.221 15.9751C167.864 16.0823 168.401 16.1896 168.937 16.4042H169.044C168.508 16.1896 167.864 16.0823 167.221 15.9751ZM165.397 15.6532C165.504 15.6532 165.611 15.6532 165.611 15.6532C165.719 15.6532 165.826 15.6532 165.933 15.7605C166.255 15.7605 166.577 15.8678 167.006 15.9751C166.47 15.7605 165.933 15.7605 165.397 15.6532ZM163.037 15.4387C163.037 15.4387 163.144 15.4387 163.037 15.4387C163.466 15.4387 163.895 15.4387 164.324 15.5459C164.431 15.5459 164.431 15.5459 164.539 15.5459C164.646 15.5459 164.753 15.5459 164.86 15.5459C164.217 15.5459 163.68 15.4387 163.037 15.4387ZM160.998 15.4387C161.106 15.4387 161.213 15.4387 161.428 15.4387C161.642 15.4387 161.749 15.4387 161.964 15.4387C162.286 15.4387 162.608 15.4387 162.929 15.4387H163.037C162.286 15.4387 161.642 15.4387 160.998 15.4387ZM158.746 15.5459C158.853 15.5459 158.96 15.5459 159.067 15.5459C159.282 15.5459 159.389 15.5459 159.604 15.5459C159.818 15.5459 160.033 15.5459 160.247 15.5459C160.462 15.5459 160.569 15.5459 160.784 15.5459C160.033 15.4387 159.389 15.4387 158.746 15.5459ZM156.707 15.7605C156.815 15.7605 156.922 15.7605 156.922 15.7605C157.029 15.7605 157.244 15.7605 157.351 15.6532C157.565 15.6532 157.673 15.6532 157.887 15.5459C158.102 15.5459 158.316 15.5459 158.424 15.4387C157.887 15.6532 157.244 15.6532 156.707 15.7605ZM154.347 16.1896C154.454 16.1896 154.562 16.0823 154.669 16.0823C154.776 16.0823 154.883 16.0823 154.991 15.9751C155.205 15.9751 155.42 15.8678 155.634 15.8678C155.205 16.0823 154.776 16.0823 154.347 16.1896ZM152.094 16.726C152.309 16.6187 152.523 16.6187 152.845 16.5115C153.06 16.5115 153.274 16.4042 153.489 16.4042C152.952 16.5115 152.523 16.6187 152.094 16.726ZM149.627 17.477C149.949 17.3697 150.271 17.2624 150.592 17.1551C150.7 17.1551 150.807 17.0479 150.914 17.0479C151.021 17.0479 151.129 17.0479 151.129 16.9406C150.7 17.1551 150.163 17.2624 149.627 17.477ZM146.623 18.5498C147.267 18.3352 147.91 18.0134 148.447 17.7988C148.554 17.7988 148.661 17.6915 148.769 17.6915C148.769 17.6915 148.769 17.6915 148.876 17.6915C148.125 18.0134 147.374 18.2279 146.623 18.5498ZM144.263 19.5153C144.263 19.5153 144.37 19.5153 144.37 19.408C144.477 19.3007 144.585 19.3007 144.799 19.1934C145.336 18.9789 145.872 18.7643 146.408 18.5498C145.658 18.9789 145.014 19.1934 144.263 19.5153ZM141.903 20.6953C142.01 20.5881 142.225 20.5881 142.332 20.4808C142.439 20.4808 142.546 20.3735 142.654 20.3735C142.976 20.2662 143.297 20.0517 143.512 19.9444C142.976 20.1589 142.439 20.4808 141.903 20.6953ZM136.432 23.8064C137.29 23.27 138.041 22.8409 138.899 22.3045C139.435 21.9827 139.864 21.7681 140.401 21.4463C140.508 21.339 140.615 21.339 140.723 21.2317C140.83 21.1245 140.937 21.1245 141.152 21.0172C140.401 21.4463 139.65 21.7681 138.899 22.1972C138.041 22.8409 137.182 23.3773 136.432 23.8064ZM133.857 25.5229C134.608 24.9865 135.466 24.4501 136.217 23.9137C135.466 24.4501 134.715 24.9865 133.857 25.5229ZM133.106 26.0593C132.677 26.3811 132.248 26.703 131.819 26.9175C132.248 26.703 132.677 26.3811 133.106 26.0593ZM129.137 29.0631C129.351 28.9558 129.566 28.7413 129.673 28.634C129.566 28.7413 129.351 28.9558 129.137 29.0631ZM126.776 30.9941C126.991 30.8868 127.098 30.6723 127.313 30.565C127.098 30.6723 126.991 30.8868 126.776 30.9941ZM124.416 33.1397C124.845 32.7106 125.274 32.3888 125.704 31.9596C125.274 32.2815 124.845 32.7106 124.416 33.1397ZM122.378 35.0707C122.7 34.7489 123.022 34.4271 123.343 34.1052C123.129 34.4271 122.7 34.7489 122.378 35.0707ZM120.769 36.6799C120.876 36.5726 120.983 36.3581 121.198 36.2508C120.983 36.3581 120.876 36.5726 120.769 36.6799ZM117.55 40.1128C118.087 39.5764 118.516 39.04 119.052 38.5037C118.516 39.04 117.98 39.5764 117.55 40.1128ZM114.761 43.2239C115.298 42.473 115.941 41.8293 116.585 41.1856C115.941 41.8293 115.405 42.5803 114.761 43.2239ZM112.723 45.7986C113.152 45.2622 113.688 44.6186 114.117 44.0822C113.688 44.6186 113.259 45.155 112.723 45.7986ZM108.754 51.1626C109.075 50.7335 109.397 50.3043 109.719 49.8752C109.397 50.3043 109.075 50.7335 108.754 51.1626ZM107.144 53.63C107.573 53.0936 107.895 52.4499 108.324 51.9135C107.895 52.5572 107.466 53.0936 107.144 53.63ZM103.282 59.7449C103.497 59.3158 103.819 58.8867 104.033 58.4575C103.819 58.8867 103.604 59.3158 103.282 59.7449ZM102.639 60.925C102.746 60.7104 102.853 60.6031 102.96 60.3886C102.746 60.6031 102.746 60.8177 102.639 60.925ZM100.493 64.8943C100.815 64.3579 101.029 63.8215 101.351 63.2851C101.029 63.8215 100.815 64.3579 100.493 64.8943ZM98.6693 68.4345C98.9911 67.7908 99.313 67.1471 99.6348 66.5035C99.313 67.1471 98.9911 67.7908 98.6693 68.4345ZM97.4892 71.1165C97.8111 70.4728 98.0256 69.8291 98.3475 69.1854C98.0256 69.8291 97.7038 70.4728 97.4892 71.1165ZM95.1291 76.8023C95.2364 76.4804 95.3437 76.1586 95.5582 75.8368C95.3437 76.1586 95.2364 76.4804 95.1291 76.8023Z" fill="#FEE2E2"/>
</svg>
