<svg width="409" height="357" viewBox="0 0 409 357" fill="none" xmlns="http://www.w3.org/2000/svg">
<path d="M402.912 89.3889C402.912 89.1744 402.912 88.9598 402.912 88.638C402.912 88.5307 402.912 88.4234 402.912 88.3161V88.2089C402.912 88.1016 402.912 87.9943 402.912 87.9943C402.912 87.7797 402.912 87.5652 402.805 87.2433C402.805 87.0288 402.698 86.707 402.698 86.4924C402.698 86.2778 402.59 86.0633 402.59 85.8487C402.59 85.6342 402.483 85.3123 402.483 85.0978C402.483 84.9905 402.483 84.8832 402.376 84.7759V84.6687C402.376 84.5614 402.376 84.4541 402.268 84.3468C402.161 84.1323 402.161 83.8104 402.054 83.5959C402.054 83.3813 401.947 83.274 401.839 83.0595V82.9522V82.8449C401.732 82.6304 401.732 82.3085 401.625 82.094C401.517 81.8794 401.41 81.5576 401.41 81.343V81.2357V81.1284C401.303 81.0212 401.303 80.8066 401.196 80.6993C401.088 80.4848 400.981 80.2702 400.874 79.9484C400.766 79.7338 400.766 79.6265 400.659 79.412V79.3047V79.1974C400.552 78.9829 400.445 78.7683 400.337 78.4465C400.23 78.2319 400.123 77.9101 400.016 77.6955C400.016 77.6955 400.016 77.5882 399.908 77.5882C399.908 77.5882 399.908 77.481 399.801 77.481C399.694 77.2664 399.586 77.0518 399.479 76.8373C399.372 76.6227 399.157 76.3009 399.05 76.0863C398.943 75.979 398.943 75.8718 398.835 75.6572L398.728 75.5499C398.621 75.3354 398.514 75.1208 398.299 74.9063C398.085 74.5844 397.87 74.2626 397.763 73.9408L397.655 73.8335C397.334 73.4044 397.012 72.9752 396.797 72.5461C396.583 72.2243 396.368 72.0097 396.154 71.6879C395.939 71.4733 395.832 71.2588 395.617 71.0442C395.403 70.8297 395.295 70.6151 395.081 70.4006C394.866 70.186 394.759 69.9714 394.544 69.7569L394.437 69.6496L394.33 69.5423C394.222 69.435 394.115 69.2205 393.901 69.1132C393.686 68.8986 393.472 68.6841 393.257 68.4695C393.15 68.3622 393.15 68.3622 393.042 68.255L392.935 68.1477C392.828 68.0404 392.721 67.9331 392.613 67.8259C392.399 67.6113 392.184 67.3967 391.97 67.2895C391.862 67.1822 391.755 67.1822 391.648 67.0749L391.54 66.9676C391.433 66.8603 391.433 66.8603 391.326 66.7531C391.111 66.5385 390.897 66.4312 390.682 66.2167C390.575 66.1094 390.36 66.0021 390.253 65.8948C390.253 65.8948 390.146 65.8948 390.146 65.7875C390.146 65.7875 390.146 65.7876 390.039 65.6803C389.824 65.573 389.609 65.3584 389.395 65.2512C389.18 65.1439 388.966 65.0366 388.751 64.9293L388.644 64.822L282.652 3.67301C282.545 3.56573 282.33 3.45845 282.223 3.45845C282.009 3.35117 281.794 3.24389 281.58 3.13661C281.472 3.02933 281.365 3.02933 281.15 2.92205H281.043H280.936C280.721 2.81477 280.507 2.7075 280.399 2.7075C280.185 2.60022 279.97 2.60022 279.863 2.49294H279.756H279.649C279.541 2.49294 279.434 2.38566 279.219 2.38566C279.005 2.27838 278.79 2.27838 278.576 2.1711C278.468 2.1711 278.361 2.1711 278.254 2.06382H278.147C278.039 2.06382 278.039 2.06382 277.932 2.06382C277.717 2.06382 277.503 1.95654 277.288 1.95654C277.181 1.95654 277.074 1.95654 276.859 1.95654H276.752H276.645C276.43 1.95654 276.216 1.95654 276.001 1.95654C275.894 1.95654 275.786 1.95654 275.679 1.95654C275.572 1.95654 275.572 1.95654 275.465 1.95654C275.357 1.95654 275.357 1.95654 275.25 1.95654C274.928 1.95654 274.714 2.06382 274.392 2.06382C274.285 2.06382 274.285 2.06382 274.177 2.06382C273.855 2.1711 273.641 2.1711 273.319 2.27838H273.212H273.104C272.783 2.38566 272.461 2.60022 272.139 2.7075L245.963 17.9411C246.285 17.7266 246.607 17.6193 246.928 17.512C246.928 17.512 247.036 17.512 247.036 17.4047C247.358 17.2974 247.679 17.1902 247.894 17.1902C248.001 17.1902 248.001 17.1902 248.108 17.1902C248.43 17.0829 248.859 17.0829 249.181 17.0829C249.289 17.0829 249.289 17.0829 249.396 17.0829C249.718 17.0829 250.147 17.0829 250.469 17.0829H250.576C251.005 17.0829 251.327 17.1902 251.756 17.2974H251.863C252.292 17.4047 252.721 17.512 253.151 17.6193H253.258C253.687 17.7266 254.116 17.9411 254.652 18.1557H254.76C255.189 18.3702 255.725 18.5848 256.154 18.9066L362.146 80.0557C362.682 80.3775 363.112 80.592 363.541 81.0212C363.541 81.0212 363.648 81.0212 363.648 81.1284C364.077 81.4503 364.506 81.7721 364.935 82.094L365.043 82.2012C365.472 82.5231 365.901 82.9522 366.223 83.274L366.33 83.3813C366.759 83.8104 367.188 84.1323 367.51 84.5614L367.617 84.6687C368.046 85.0978 368.476 85.5269 368.797 86.0633C369.226 86.5997 369.548 87.0288 369.977 87.5652C370.299 87.9943 370.621 88.5307 370.943 88.9598C371.158 89.2816 371.372 89.6035 371.479 89.9253C371.587 90.1399 371.801 90.4617 371.908 90.6763C372.016 90.7836 372.016 90.8908 372.123 91.1054C372.338 91.5345 372.659 91.9636 372.874 92.5C372.874 92.5 372.874 92.6073 372.981 92.6073C373.303 93.1437 373.518 93.6801 373.732 94.3238V94.431C373.947 94.9674 374.161 95.5038 374.376 96.1475V96.2548C374.59 96.7912 374.805 97.4349 374.912 97.9713V98.0785C375.127 98.6149 375.234 99.1513 375.341 99.6877V99.795C375.449 100.331 375.556 100.975 375.663 101.511C375.77 102.048 375.77 102.692 375.878 103.228V103.335C375.878 103.872 375.985 104.408 375.985 105.052L375.771 193.664C375.771 194.201 375.77 194.737 375.663 195.273V195.381C375.663 195.81 375.556 196.346 375.449 196.775C375.449 196.882 375.449 196.882 375.449 196.99C375.341 197.419 375.234 197.848 375.127 198.17C375.127 198.277 375.127 198.277 375.02 198.384C374.912 198.706 374.805 199.135 374.59 199.457V199.564C374.376 199.886 374.269 200.315 374.054 200.637L373.947 200.745C373.732 200.959 373.625 201.281 373.41 201.495C373.303 201.603 373.303 201.71 373.196 201.71C372.981 201.925 372.874 202.032 372.659 202.246C372.552 202.354 372.552 202.354 372.445 202.461C372.23 202.676 371.908 202.89 371.587 202.997L397.763 187.764C398.085 187.549 398.299 187.442 398.621 187.227C398.728 187.12 398.728 187.12 398.835 187.013C399.05 186.798 399.157 186.691 399.372 186.476C399.479 186.369 399.479 186.369 399.586 186.262C399.801 186.047 400.016 185.833 400.123 185.511L400.23 185.404C400.445 185.082 400.659 184.76 400.766 184.438V184.331C400.874 184.116 400.981 183.902 401.088 183.687C401.088 183.58 401.196 183.473 401.196 183.365C401.196 183.258 401.196 183.258 401.303 183.151C401.303 183.043 401.303 183.044 401.41 182.936C401.517 182.722 401.517 182.4 401.625 182.185C401.625 182.078 401.625 181.971 401.732 181.863C401.732 181.756 401.732 181.756 401.732 181.649C401.732 181.542 401.732 181.434 401.732 181.434C401.732 181.22 401.839 181.005 401.839 180.791C401.839 180.683 401.839 180.576 401.839 180.362V180.254C401.839 180.147 401.839 180.147 401.839 180.04C401.839 179.825 401.839 179.611 401.839 179.396C401.839 179.181 401.839 178.967 401.839 178.645L402.054 90.0326C402.912 89.818 402.912 89.6035 402.912 89.3889Z" fill="white"/>
<path d="M374.161 201.495C374.054 201.603 374.054 201.71 373.947 201.71C373.732 201.925 373.625 202.032 373.41 202.246C373.303 202.354 373.303 202.354 373.196 202.461C372.981 202.676 372.659 202.89 372.337 202.997L398.513 187.764C398.835 187.549 399.05 187.442 399.372 187.227C399.479 187.12 399.479 187.12 399.586 187.013C399.801 186.798 399.908 186.691 400.123 186.476C400.23 186.369 400.23 186.369 400.337 186.262C400.552 186.047 400.766 185.833 400.874 185.511L400.981 185.404C401.195 185.082 401.41 184.76 401.517 184.438V184.331C401.625 184.116 401.732 183.902 401.839 183.687C401.839 183.58 401.946 183.473 401.946 183.365C401.946 183.258 401.946 183.258 402.054 183.151C402.054 183.043 402.054 183.043 402.161 182.936C402.268 182.722 402.268 182.4 402.376 182.185C402.376 182.078 402.376 181.971 402.483 181.863C402.483 181.756 402.483 181.756 402.483 181.649C402.483 181.542 402.483 181.434 402.483 181.434C402.483 181.22 402.59 181.005 402.59 180.791C402.59 180.683 402.59 180.576 402.59 180.362V180.254C402.59 180.147 402.59 180.147 402.59 180.04C402.59 179.825 402.59 179.611 402.59 179.396C402.59 179.181 402.59 178.967 402.59 178.645L402.805 90.0326C402.805 89.818 402.805 89.6035 402.805 89.3889C402.805 89.1744 402.805 88.9598 402.805 88.638C402.805 88.5307 402.805 88.4234 402.805 88.3161V88.2089C402.805 88.1016 402.805 87.9943 402.805 87.9943C402.805 87.7797 402.805 87.5652 402.697 87.2434C402.697 87.0288 402.59 86.707 402.59 86.4924C402.59 86.2778 402.483 86.0633 402.483 85.8487C402.483 85.6342 402.376 85.3123 402.376 85.0978C402.376 84.9905 402.376 84.8832 402.268 84.7759V84.6687C402.268 84.5614 402.268 84.4541 402.161 84.3468C402.054 84.1323 402.054 83.8104 401.946 83.5959C401.946 83.3813 401.839 83.274 401.732 83.0595V82.9522V82.8449C401.625 82.6304 401.625 82.3085 401.517 82.094C401.41 81.8794 401.303 81.5576 401.303 81.343V81.2357V81.1285C401.195 81.0212 401.195 80.8066 401.088 80.6993C400.981 80.4848 400.874 80.2702 400.766 79.9484C400.659 79.7338 400.659 79.6265 400.552 79.412V79.3047V79.1974C400.444 78.9829 400.337 78.7683 400.23 78.4465C400.123 78.2319 400.015 77.9101 399.908 77.6955C399.908 77.6955 399.908 77.5882 399.801 77.5882C399.801 77.5882 399.801 77.481 399.694 77.481C399.586 77.2664 399.479 77.0518 399.372 76.8373C399.264 76.6227 399.05 76.3009 398.943 76.0863C398.835 75.9791 398.835 75.8718 398.728 75.6572L398.621 75.5499C398.513 75.3354 398.406 75.1208 398.192 74.9063C397.977 74.5844 397.763 74.2626 397.655 73.9408L397.548 73.8335C397.226 73.4044 396.904 72.9752 396.69 72.5461C396.475 72.2243 396.261 72.0097 396.046 71.6879C395.832 71.4733 395.724 71.2588 395.51 71.0442C395.295 70.8297 395.188 70.6151 394.973 70.4005C394.759 70.186 394.651 69.9714 394.437 69.7569L394.33 69.6496L394.222 69.5423C394.115 69.435 394.008 69.2205 393.793 69.1132C393.579 68.8986 393.364 68.6841 393.15 68.4695C393.042 68.3622 393.042 68.3622 392.935 68.255L392.828 68.1477C392.72 68.0404 392.613 67.9331 392.506 67.8259C392.291 67.6113 392.077 67.3967 391.862 67.2895C391.755 67.1822 391.648 67.1822 391.54 67.0749L391.433 66.9676C391.326 66.8603 391.326 66.8603 391.219 66.7531C391.004 66.5385 390.789 66.4312 390.575 66.2167C390.468 66.1094 390.253 66.0021 390.146 65.8948C390.146 65.8948 390.038 65.8948 390.038 65.7875C390.038 65.7875 390.038 65.7876 389.931 65.6803C389.717 65.573 389.502 65.3584 389.287 65.2512C389.073 65.1439 388.858 65.0366 388.644 64.9293L388.537 64.822L282.545 3.67301C282.438 3.56573 282.223 3.45845 282.116 3.45845C281.901 3.35117 281.687 3.24389 281.472 3.13661C281.365 3.02933 281.258 3.02933 281.043 2.92205H280.936H280.828C280.614 2.81477 280.399 2.7075 280.292 2.7075C280.077 2.60022 279.863 2.60022 279.756 2.49294H279.648H279.541C279.434 2.49294 279.327 2.38566 279.112 2.38566C278.897 2.27838 278.683 2.27838 278.468 2.1711C278.361 2.1711 278.254 2.1711 278.146 2.06382H278.039C277.932 2.06382 277.932 2.06382 277.825 2.06382C277.61 2.06382 277.395 1.95654 277.181 1.95654C277.074 1.95654 276.966 1.95654 276.752 1.95654H276.645H276.537C276.323 1.95654 276.108 1.95654 275.894 1.95654C275.786 1.95654 275.679 1.95654 275.572 1.95654C275.464 1.95654 275.464 1.95654 275.357 1.95654C275.25 1.95654 275.25 1.95654 275.143 1.95654C274.821 1.95654 274.606 2.06382 274.284 2.06382C274.177 2.06382 274.177 2.06382 274.07 2.06382C273.748 2.1711 273.533 2.1711 273.212 2.27838H273.104H272.997C272.675 2.38566 272.353 2.60022 272.032 2.7075L245.855 17.9411C246.177 17.7266 246.499 17.6193 246.821 17.512C246.821 17.512 246.928 17.512 246.928 17.4047C247.25 17.2974 247.572 17.1902 247.786 17.1902C247.894 17.1902 247.894 17.1902 248.001 17.1902C248.323 17.0829 248.752 17.0829 249.074 17.0829" stroke="#171A21" stroke-width="2" stroke-miterlimit="10" stroke-linecap="round" stroke-linejoin="round"/>
<path d="M362.36 80.2704C370.299 84.8834 376.843 96.0404 376.736 105.266L376.521 193.879C376.521 202.998 369.977 206.752 362.038 202.139L309.257 171.672L278.468 185.726C277.61 186.155 276.43 185.94 275.25 185.297C275.035 185.189 274.928 185.082 274.713 184.975C272.031 183.151 270.207 179.289 270.422 176.392L273.104 150.86L256.047 140.99C248.108 136.377 241.564 125.22 241.671 115.994L241.886 27.3819C241.886 18.2632 248.43 14.5084 256.368 19.1214L362.36 80.2704Z" fill="#FB7070"/>
<path d="M315.379 112.24L304.241 105.67C302.931 104.848 301.293 105.834 301.293 107.477L301.129 140.985C301.129 141.642 301.457 142.299 302.112 142.792L312.267 148.705C313.578 149.526 315.216 148.541 315.216 146.898L315.379 112.24ZM308.5 75.2823C303.259 72.3257 299 74.6253 299 80.7028C299 86.7802 303.259 94.0075 308.5 97.1284C313.741 100.085 318 97.7854 318 91.7079C317.836 85.6305 313.578 78.4032 308.5 75.2823Z" fill="#FEE2E2"/>
</svg>
