<svg width="30" height="30" viewBox="0 0 30 30" fill="none" xmlns="http://www.w3.org/2000/svg">
<path d="M23.75 16.25H17.5C16.8125 16.25 16.25 16.8125 16.25 17.5C16.25 19.5703 14.5703 21.25 12.5 21.25C10.4297 21.25 8.75 19.5703 8.75 17.5C8.75 15.4297 10.4297 13.75 12.5 13.75C13.1875 13.75 13.75 13.1875 13.75 12.5V6.25C13.75 5.5625 13.1875 5 12.5 5C5.60938 5 0 10.6094 0 17.5C0 24.3906 5.60938 30 12.5 30C19.3906 30 25 24.3906 25 17.5C25 16.8125 24.4375 16.25 23.75 16.25ZM12.5 27.5C6.98438 27.5 2.5 23.0156 2.5 17.5C2.5 12.4062 6.32812 8.20312 11.25 7.58594V11.375C8.39844 11.9531 6.25 14.4844 6.25 17.5C6.25 20.9453 9.05469 23.75 12.5 23.75C15.5156 23.75 18.0469 21.6016 18.625 18.75H22.4141C21.7969 23.6719 17.5938 27.5 12.5 27.5Z" fill="#98A2F4"/>
<path d="M17.5 0C16.8125 0 16.25 0.5625 16.25 1.25V7.5C16.25 8.1875 16.8125 8.75 17.5 8.75C19.5703 8.75 21.25 10.4297 21.25 12.5C21.25 13.1875 21.8125 13.75 22.5 13.75H28.75C29.4375 13.75 30 13.1875 30 12.5C30 5.60938 24.3906 0 17.5 0ZM23.625 11.25C23.125 8.80469 21.1953 6.875 18.75 6.375V2.57812C23.2656 3.14062 26.8594 6.73438 27.4219 11.25H23.625Z" fill="#98A2F4"/>
</svg>
