<svg width="30" height="30" viewBox="0 0 30 30" fill="none" xmlns="http://www.w3.org/2000/svg">
<path d="M15 7.5C15 3.36719 11.6328 0 7.5 0C3.36719 0 0 3.36719 0 7.5C0 11.6328 3.36719 15 7.5 15C11.6328 15 15 11.6328 15 7.5ZM2.5 7.5C2.5 4.74219 4.74219 2.5 7.5 2.5C10.2578 2.5 12.5 4.74219 12.5 7.5C12.5 10.2578 10.2578 12.5 7.5 12.5C4.74219 12.5 2.5 10.2578 2.5 7.5Z" fill="#98A2F4"/>
<path d="M7.5 10C8.88071 10 10 8.88071 10 7.5C10 6.11929 8.88071 5 7.5 5C6.11929 5 5 6.11929 5 7.5C5 8.88071 6.11929 10 7.5 10Z" fill="#98A2F4"/>
<path d="M22.5 10C18.3672 10 15 13.3672 15 17.5C15 21.2812 20.8594 28.6953 21.5234 29.5312C21.7578 29.8281 22.1172 30 22.5 30C22.8828 30 23.2344 29.8281 23.4766 29.5312C24.1406 28.6953 30 21.2812 30 17.5C30 13.3672 26.6328 10 22.5 10ZM22.5 26.7031C20.2578 23.7109 17.5 19.3984 17.5 17.5C17.5 14.7422 19.7422 12.5 22.5 12.5C25.2578 12.5 27.5 14.7422 27.5 17.5C27.5 19.4062 24.7422 23.7187 22.5 26.7031Z" fill="#98A2F4"/>
<path d="M22.5 20C23.8807 20 25 18.8807 25 17.5C25 16.1193 23.8807 15 22.5 15C21.1193 15 20 16.1193 20 17.5C20 18.8807 21.1193 20 22.5 20Z" fill="#98A2F4"/>
<path d="M7.5 16.875C6.8125 16.875 6.25 17.4375 6.25 18.125V18.75C6.25 19.4375 6.8125 20 7.5 20C8.1875 20 8.75 19.4375 8.75 18.75V18.125C8.75 17.4375 8.1875 16.875 7.5 16.875Z" fill="#98A2F4"/>
<path d="M7.5 21.875C6.8125 21.875 6.25 22.4375 6.25 23.125V23.75C6.25 24.4375 6.8125 25 7.5 25C8.1875 25 8.75 24.4375 8.75 23.75V23.125C8.75 22.4375 8.1875 21.875 7.5 21.875Z" fill="#98A2F4"/>
<path d="M7.5 26.875C6.8125 26.875 6.25 27.4375 6.25 28.125V28.75C6.25 29.4375 6.8125 30 7.5 30C8.1875 30 8.75 29.4375 8.75 28.75V28.125C8.75 27.4375 8.1875 26.875 7.5 26.875Z" fill="#98A2F4"/>
<path d="M12.5 27.5H11.875C11.1875 27.5 10.625 28.0625 10.625 28.75C10.625 29.4375 11.1875 30 11.875 30H12.5C13.1875 30 13.75 29.4375 13.75 28.75C13.75 28.0625 13.1875 27.5 12.5 27.5Z" fill="#98A2F4"/>
<path d="M17.5 27.5H16.875C16.1875 27.5 15.625 28.0625 15.625 28.75C15.625 29.4375 16.1875 30 16.875 30H17.5C18.1875 30 18.75 29.4375 18.75 28.75C18.75 28.0625 18.1875 27.5 17.5 27.5Z" fill="#98A2F4"/>
</svg>
