<svg width="30" height="30" viewBox="0 0 30 30" fill="none" xmlns="http://www.w3.org/2000/svg">
<path d="M28.7507 0H21.8757C21.1882 0 20.6257 0.5625 20.6257 1.25C20.6257 1.9375 21.1882 2.5 21.8757 2.5H25.7298L16.6152 11.6146C16.1257 12.1042 16.1257 12.8958 16.6152 13.3854C16.8548 13.625 17.1777 13.75 17.5007 13.75C17.8236 13.75 18.1361 13.625 18.3861 13.3854L27.5007 4.27083V8.125C27.5007 8.8125 28.0632 9.375 28.7507 9.375C29.4382 9.375 30.0007 8.8125 30.0007 8.125V1.25C30.0007 0.5625 29.4382 0 28.7507 0Z" fill="#98A2F4"/>
<path d="M28.7507 20.6249C28.0632 20.6249 27.5007 21.1874 27.5007 21.8749V25.7291L18.3861 16.6145C17.8965 16.1249 17.1048 16.1249 16.6152 16.6145C16.1257 17.1041 16.1257 17.8958 16.6152 18.3853L25.7298 27.4999H21.8757C21.1882 27.4999 20.6257 28.0624 20.6257 28.7499C20.6257 29.4374 21.1882 29.9999 21.8757 29.9999H28.7507C29.4382 29.9999 30.0007 29.4374 30.0007 28.7499V21.8749C30.0007 21.1874 29.4382 20.6249 28.7507 20.6249Z" fill="#98A2F4"/>
<path d="M4.27083 2.5H8.125C8.8125 2.5 9.375 1.9375 9.375 1.25C9.375 0.5625 8.8125 0 8.125 0H1.25C0.5625 0 0 0.5625 0 1.25V8.125C0 8.8125 0.5625 9.375 1.25 9.375C1.9375 9.375 2.5 8.8125 2.5 8.125V4.27083L11.6146 13.3854C11.8542 13.625 12.1771 13.75 12.5 13.75C12.8229 13.75 13.1354 13.625 13.3854 13.3854C13.875 12.8958 13.875 12.1042 13.3854 11.6146L4.27083 2.5Z" fill="#98A2F4"/>
<path d="M11.6146 16.6145L2.5 25.7291V21.8749C2.5 21.1874 1.9375 20.6249 1.25 20.6249C0.5625 20.6249 0 21.1874 0 21.8749V28.7499C0 29.4374 0.5625 29.9999 1.25 29.9999H8.125C8.8125 29.9999 9.375 29.4374 9.375 28.7499C9.375 28.0624 8.8125 27.4999 8.125 27.4999H4.27083L13.3854 18.3853C13.875 17.8958 13.875 17.1041 13.3854 16.6145C12.8958 16.1249 12.1042 16.1249 11.6146 16.6145Z" fill="#98A2F4"/>
</svg>
