<svg width="30" height="30" viewBox="0 0 30 30" fill="none" xmlns="http://www.w3.org/2000/svg">
<path d="M20.9154 0.507812C20.6846 0.1875 20.3154 0 19.9231 0H8.23077C7.55385 0 7 0.5625 7 1.25V16.25C7 16.9375 7.55385 17.5 8.23077 17.5H10.6923V28.75C10.6923 29.3203 11.0692 29.8125 11.6077 29.9609C11.7154 29.9922 11.8154 30 11.9231 30C12.3538 30 12.7692 29.7656 12.9923 29.3672L22.8385 11.8672C23.0538 11.4766 23.0538 11.0078 22.8385 10.6172C22.6154 10.2344 22.2154 9.99219 21.7769 9.99219H18.5308L21.1077 1.61719C21.2154 1.24219 21.1462 0.828125 20.9154 0.507812ZM19.6462 12.5L13.1538 24.0469V16.25C13.1538 15.5625 12.6 15 11.9231 15H9.46154V2.5H18.2462L15.6692 10.875C15.5538 11.2578 15.6231 11.6719 15.8538 11.9922C16.0846 12.3125 16.4538 12.5 16.8462 12.5H19.6462Z" fill="#98A2F4"/>
</svg>
