<svg width="30" height="30" viewBox="0 0 30 30" fill="none" xmlns="http://www.w3.org/2000/svg">
<g clip-path="url(#clip0)">
<path d="M21.8864 0H8.13643C6.75361 0 5.63643 1.11719 5.63643 2.5V15H3.76143C2.72236 15 1.8083 15.625 1.4333 16.6016C1.0583 17.5703 1.31611 18.6484 2.09736 19.3594L13.3317 29.3438C13.8161 29.7813 14.4177 30 15.0192 30C15.6208 30 16.2146 29.7813 16.6833 29.3516L27.9411 19.3438C28.7146 18.6406 28.9646 17.5625 28.5896 16.5938C28.2146 15.625 27.2927 15 26.2536 15H24.3786V2.5C24.3864 1.11719 23.2614 0 21.8864 0ZM26.2614 17.4844L14.9958 27.4844L3.76143 17.5H5.63643C7.01143 17.5 8.13643 16.3828 8.13643 15V2.5H21.8864V15C21.8864 16.375 23.0114 17.5 24.3864 17.5L26.2614 17.4844Z" fill="#98A2F4"/>
<path d="M12.5117 10C13.1992 10 13.7617 9.4375 13.7617 8.75C13.7617 8.0625 13.1992 7.5 12.5117 7.5H11.8867C11.1992 7.5 10.6367 8.0625 10.6367 8.75C10.6367 9.4375 11.1992 10 11.8867 10H12.5117Z" fill="#98A2F4"/>
<path d="M18.1367 15H17.5117C16.8242 15 16.2617 15.5625 16.2617 16.25C16.2617 16.9375 16.8242 17.5 17.5117 17.5H18.1367C18.8242 17.5 19.3867 16.9375 19.3867 16.25C19.3867 15.5547 18.8242 15 18.1367 15Z" fill="#98A2F4"/>
<path d="M18.3945 9.11719C17.9102 8.63281 17.1133 8.63281 16.6289 9.11719L11.6289 14.1172C11.1445 14.6094 11.1445 15.3984 11.6289 15.8828C11.8711 16.125 12.1914 16.25 12.5117 16.25C12.832 16.25 13.1523 16.125 13.3945 15.8828L18.3945 10.8828C18.8789 10.3906 18.8789 9.60156 18.3945 9.11719Z" fill="#98A2F4"/>
</g>
<defs>
<clipPath id="clip0">
<rect width="30" height="30" fill="white"/>
</clipPath>
</defs>
</svg>
