<svg width="30" height="30" viewBox="0 0 30 30" fill="none" xmlns="http://www.w3.org/2000/svg">
<path d="M29.7506 12.3602L25.9926 7.3045C25.852 7.1152 25.6566 6.97324 25.4379 6.88648C14.5623 2.76939 15.1873 2.91925 14.7733 3.04544C14.617 3.09276 15.2342 2.84826 4.56178 6.89437C4.34302 6.98112 4.1477 7.12309 4.00707 7.31238L0.24906 12.3602C-0.360347 13.1804 0.217808 14.3556 1.23349 14.3556C1.38974 14.3556 1.25692 14.3714 3.75705 13.9139V22.5898C3.75705 23.134 4.10863 23.6151 4.62429 23.7807C15.3514 27.1643 14.7342 26.9987 15.0076 26.9987C15.2811 26.9987 14.6639 27.1643 25.391 23.7807C25.9066 23.6151 26.2582 23.134 26.2582 22.5898V13.9139C28.7349 14.3714 28.6255 14.3556 28.7818 14.3556C29.7818 14.3556 30.36 13.1804 29.7506 12.3602ZM24.2425 9.09488L25.8988 11.3191L19.2735 10.1044L17.5078 6.54733L24.2425 9.09488ZM5.75716 9.09488L12.4919 6.54733L10.7262 10.1044L4.10082 11.3191L5.75716 9.09488ZM6.21812 13.4565L11.7809 12.439C12.1637 12.368 12.4919 12.1235 12.6638 11.7686L13.7732 9.52867V24.0489L6.22593 21.667V13.4565H6.21812ZM23.7815 21.667L16.2343 24.0489V9.52867L17.3437 11.7686C17.5156 12.1157 17.8437 12.368 18.2266 12.439L23.7893 13.4565V21.667H23.7815Z" fill="#98A2F4"/>
<path d="M18.0531 21.2485C18.2296 21.8275 18.7966 22.1381 19.3132 21.9404L21.3294 21.1637C21.846 20.966 22.1233 20.3305 21.9469 19.7515C21.7704 19.1725 21.2034 18.8619 20.6868 19.0596L18.6706 19.8363C18.154 20.034 17.8767 20.6695 18.0531 21.2485Z" fill="#98A2F4"/>
</svg>
