<svg width="30" height="30" viewBox="0 0 30 30" fill="none" xmlns="http://www.w3.org/2000/svg">
<path d="M27.5 15H23.75C22.375 15 21.25 16.125 21.25 17.5V27.5H19.375V22.5C19.375 21.125 18.25 20 16.875 20H13.125C11.75 20 10.625 21.125 10.625 22.5V27.5H8.75V15C8.75 13.625 7.625 12.5 6.25 12.5H2.5C1.125 12.5 0 13.625 0 15V28.75C0 29.4375 0.5625 30 1.25 30H28.75C29.4375 30 30 29.4375 30 28.75V17.5C30 16.125 28.875 15 27.5 15ZM2.5 27.5V15H6.25V27.5H2.5ZM13.125 27.5V22.5H16.875V27.5H13.125ZM23.75 27.5V17.5H27.5V27.5H23.75Z" fill="#98A2F4"/>
<path d="M4.375 0C2.30469 0 0.625 1.67969 0.625 3.75C0.625 5.82031 2.30469 7.5 4.375 7.5C5.17969 7.5 5.92969 7.24219 6.53906 6.80469L11.3906 10.2344C11.2969 10.5547 11.25 10.8984 11.25 11.25C11.25 13.3203 12.9297 15 15 15C17.0703 15 18.75 13.3203 18.75 11.25C18.75 11.0938 18.7344 10.9375 18.7188 10.7891L22.3984 8.95312C23.0703 9.60156 23.9922 10.0078 25 10.0078C27.0703 10.0078 28.75 8.32812 28.75 6.25781C28.75 4.1875 27.0703 2.50781 25 2.50781C22.9297 2.50781 21.25 4.1875 21.25 6.25781C21.25 6.41406 21.2656 6.57031 21.2812 6.71875L17.6016 8.55469C16.9219 7.89844 16.0078 7.5 15 7.5C14.1953 7.5 13.4453 7.75781 12.8359 8.19531L7.98438 4.76562C8.07812 4.44531 8.125 4.10156 8.125 3.75C8.125 1.67969 6.44531 0 4.375 0ZM3.125 3.75C3.125 3.0625 3.6875 2.5 4.375 2.5C5.0625 2.5 5.625 3.0625 5.625 3.75C5.625 4.00781 5.54688 4.25 5.41406 4.44531C5.40625 4.46094 5.39062 4.47656 5.38281 4.48438C5.14844 4.79688 4.78906 5 4.375 5C3.6875 5 3.125 4.4375 3.125 3.75ZM25 5C25.6875 5 26.25 5.5625 26.25 6.25C26.25 6.9375 25.6875 7.5 25 7.5C24.3125 7.5 23.75 6.9375 23.75 6.25C23.75 5.5625 24.3125 5 25 5ZM16.25 11.25C16.25 11.9375 15.6875 12.5 15 12.5C14.3125 12.5 13.75 11.9375 13.75 11.25C13.75 10.9922 13.8281 10.75 13.9609 10.5547C13.9688 10.5391 13.9844 10.5234 13.9922 10.5156C14.2188 10.2109 14.5859 10.0078 14.9922 10.0078C15.6875 10 16.25 10.5625 16.25 11.25Z" fill="#98A2F4"/>
</svg>
