<?xml version="1.0" encoding="utf-8"?>
<!-- Generator: Adobe Illustrator 22.1.0, SVG Export Plug-In . SVG Version: 6.00 Build 0)  -->
<svg version="1.1" id="Слой_1" xmlns="http://www.w3.org/2000/svg" xmlns:xlink="http://www.w3.org/1999/xlink" x="0px" y="0px"
	 viewBox="0 0 30 30" style="enable-background:new 0 0 30 30;" xml:space="preserve">
<style type="text/css">
	.st0{fill:#FFFFFF;}
</style>
<path class="st0" d="M25.6,4.4c-5.9-5.9-15.3-5.9-21.2,0c-5.9,5.9-5.9,15.3,0,21.2c5.9,5.9,15.3,5.9,21.2,0
	C31.5,19.7,31.5,10.3,25.6,4.4z M15,27.5C8.1,27.5,2.5,21.9,2.5,15C2.5,8.1,8.1,2.5,15,2.5c6.9,0,12.5,5.6,12.5,12.5
	C27.5,21.9,21.9,27.5,15,27.5z"/>
<path class="st0" d="M19.5,14.4c0.6-0.9,0.5-1.7,0.5-2.4c0-1.6-1-3-2.5-3.6V6.9c0-0.7-0.6-1.2-1.2-1.2S15,6.2,15,6.9v1.3h-1.3V6.9
	c0-0.7-0.6-1.2-1.2-1.2c-0.7,0-1.2,0.6-1.2,1.2v1.3c-0.7,0-1.3,0.6-1.3,1.2v11.3c0,0.7,0.5,1.2,1.3,1.2v1.3c0,0.7,0.6,1.2,1.2,1.2
	c0.7,0,1.2-0.6,1.2-1.2v-1.3H15v1.3c0,0.7,0.6,1.2,1.2,1.2s1.2-0.6,1.2-1.2v-1.3c2.1,0,3.8-1.7,3.8-3.8v-0.5
	C21.2,16.2,20.5,15,19.5,14.4z M17.5,12.4c0,0.7-0.6,1.4-1.4,1.4h-3.7v-3.2h3.7c0.7,0,1.4,0.6,1.4,1.4V12.4z M18.8,18
	c0,0.7-0.6,1.4-1.4,1.4h-4.9v-3.2h4.9c0.7,0,1.4,0.6,1.4,1.4V18z"/>
</svg>
