<?xml version="1.0" encoding="utf-8"?>
<!-- Generator: Adobe Illustrator 22.1.0, SVG Export Plug-In . SVG Version: 6.00 Build 0)  -->
<svg version="1.1" id="Слой_1" xmlns="http://www.w3.org/2000/svg" xmlns:xlink="http://www.w3.org/1999/xlink" x="0px" y="0px"
	 viewBox="0 0 30 21" style="enable-background:new 0 0 30 21;" xml:space="preserve">
<style type="text/css">
	.st0{fill:#FFFFFF;}
</style>
<path class="st0" d="M30,10.5C30,2.7,21.9-2.3,15,1C8.1-2.3,0,2.7,0,10.5S8.1,23.3,15,20C21.9,23.3,30,18.3,30,10.5z M2.8,10.5
	c0-5,4.7-8.6,9.4-7.5C8,7.1,8,13.9,12.2,18C7.5,19.1,2.8,15.5,2.8,10.5z M11.9,10.5c0-4.2,3.4-7.7,7.6-7.7c4.2,0,7.6,3.4,7.6,7.7
	c0,4.2-3.4,7.7-7.6,7.7C15.3,18.2,11.9,14.7,11.9,10.5z"/>
</svg>
