<?xml version="1.0" encoding="utf-8"?>
<!-- Generator: Adobe Illustrator 22.1.0, SVG Export Plug-In . SVG Version: 6.00 Build 0)  -->
<svg version="1.1" id="Слой_1" xmlns="http://www.w3.org/2000/svg" xmlns:xlink="http://www.w3.org/1999/xlink" x="0px" y="0px"
	 viewBox="0 0 29 30" style="enable-background:new 0 0 29 30;" xml:space="preserve">
<style type="text/css">
	.st0{fill:#FFFFFF;}
</style>
<path class="st0" d="M27.6,8.2c-1.1-1.4-2.8-2.2-4.8-2.5C22.2,2,18.9,0,15.7,0H8C7,0,5.9,0.4,5.1,1C4.3,1.7,3.7,2.6,3.4,3.7l-3.3,15
	c-0.3,1.4,0,2.8,0.9,3.9c0.9,1.1,2.3,1.8,3.7,1.8H6l0,0.2c-0.3,1.3,0,2.7,0.9,3.8S9,30,10.4,30c2.1,0,3.9-1.4,4.3-3.4l0.8-3.2
	c0.1-0.5,0.6-0.9,1.1-0.9h2c2.8,0,5.4-1,7.3-2.8c0.5-0.5,0.5-1.2,0-1.7c-0.5-0.5-1.2-0.5-1.7,0c-1.4,1.4-3.4,2.1-5.7,2.1h-2
	c-1.6,0-3,1.1-3.4,2.7L12.4,26c-0.2,1-1.1,1.6-2.1,1.6c-0.6,0-1.3-0.3-1.7-0.8c-0.4-0.5-0.6-1.2-0.4-1.8l1.9-8.3h2.5
	c1.9,0,3.6-0.3,5-1c1.5-0.7,2.7-1.7,3.6-3.1c0.4-0.5,0.2-1.3-0.3-1.6c-0.5-0.4-1.3-0.2-1.6,0.3c-1.3,2-3.5,3-6.7,3h-1.9l1-4.6
	C12,8.8,12.9,8,14,8h8.2c0,0,0.1,0,0.1,0c1.5,0.1,2.8,0.7,3.5,1.7c0.8,1,1.1,2.4,0.7,4.2c-0.1,0.6,0.3,1.3,0.9,1.4
	c0.6,0.1,1.3-0.3,1.4-0.9C29.4,11.3,28.5,9.3,27.6,8.2z M11.1,6.7c-0.8,0.7-1.4,1.6-1.7,2.6C9.4,9.5,6.6,21.9,6.6,22H4.8
	c-0.7,0-1.4-0.3-1.9-0.9c-0.4-0.6-0.6-1.3-0.5-1.9l3.3-15C6,3.1,6.9,2.3,8,2.3h7.7c2,0,4.1,1.1,4.7,3.3H14C13,5.7,11.9,6,11.1,6.7z"
	/>
</svg>
