<?xml version="1.0" encoding="utf-8"?>
<!-- Generator: Adobe Illustrator 22.1.0, SVG Export Plug-In . SVG Version: 6.00 Build 0)  -->
<svg version="1.1" id="Слой_1" xmlns="http://www.w3.org/2000/svg" xmlns:xlink="http://www.w3.org/1999/xlink" x="0px" y="0px"
	 viewBox="0 0 30 21" style="enable-background:new 0 0 30 21;" xml:space="preserve">
<style type="text/css">
	.st0{fill:#FFFFFF;}
</style>
<path class="st0" d="M28.3,0H1.7C0.8,0,0,0.8,0,1.7v17.5C0,20.2,0.8,21,1.7,21h26.5c0.9,0,1.7-0.8,1.7-1.7V1.7C30,0.8,29.2,0,28.3,0
	z M27.6,18.5H2.4V2.4h25.3L27.6,18.5z"/>
<path class="st0" d="M4.3,8.1l0.9,6.4h2.2l4.1-7.9H9.1l-1.7,3.7c-0.2,0.5-0.5,1-0.7,1.4c0-0.5-0.1-0.9-0.1-1.4L6.2,6.5H2.8l3.6,2.9
	L4.3,8.1z"/>
<path class="st0" d="M13,14.5l1.5-7.9h-2.1l-1.5,7.9H13z"/>
<path class="st0" d="M14.2,14c0.5,0.4,1.3,0.6,2.3,0.6c1.9,0,3.2-1.1,3.2-2.7c0-0.9-0.5-1.6-1.6-2.2c-0.6-0.3-0.9-0.6-0.9-0.9
	c0-0.2,0.3-0.5,0.9-0.5c0.7,0,1.2,0.2,1.2,0.3l0.2,0.1l0.7-1.8l-0.2-0.1c-0.5-0.3-1.1-0.4-1.9-0.4C16.3,6.4,15,7.5,15,9
	c0,1.1,0.9,1.8,1.7,2.2c0.7,0.4,0.9,0.6,0.9,0.8c0,0.5-0.5,0.7-0.9,0.7c-0.6,0-1.2-0.2-1.6-0.5l-0.2-0.1L14,13.8L14.2,14z"/>
<path class="st0" d="M21.7,14.5l0.9-1.9h1.8l0.2,1.9h2.1l-0.9-7.9h-2.4l-3.8,7.9H21.7z M23.8,9.6C23.9,9.4,24,9.2,24.1,9
	c0,0.2,0,0.4,0,0.5l0.1,1.4h-1L23.8,9.6z"/>
</svg>
