<svg width="30" height="30" viewBox="0 0 30 30" fill="none" xmlns="http://www.w3.org/2000/svg">
<path d="M15 0C21.0704 0 26 5.04167 26 11.25C26 15.3854 21.4981 23.3854 18.6463 27.5H21.1111C21.7833 27.5 22.3333 28.0625 22.3333 28.75C22.3333 29.4375 21.7833 30 21.1111 30H8.88889C8.21667 30 7.66667 29.4375 7.66667 28.75C7.66667 28.0625 8.21667 27.5 8.88889 27.5H11.3537C8.50185 23.3854 4 15.3854 4 11.25C4 5.04167 8.92963 0 15 0ZM15 2.5C10.2843 2.5 6.44444 6.42708 6.44444 11.25C6.44444 14.625 11.0074 22.9687 14.0324 27.0104C14.5009 27.6354 15.5093 27.6354 15.9778 27.0104C18.9926 22.9687 23.5556 14.625 23.5556 11.25C23.5556 6.42708 19.7157 2.5 15 2.5Z" fill="#9AF4DC"/>
<path d="M10.4951 14.5995V12.129L10.0785 12.4891C9.8389 12.6991 9.53683 12.7991 9.24518 12.7991C8.90146 12.7991 8.55773 12.6691 8.31816 12.399C7.85986 11.9089 7.90152 11.1488 8.4119 10.7087L10.9117 8.54824L11.1826 8.30819C11.193 8.30819 11.193 8.29819 11.2034 8.29819L14.6615 5.30756C15.1406 4.89748 15.8594 4.89748 16.3281 5.30756L19.7966 8.29819C19.807 8.29819 19.807 8.30819 19.8174 8.30819L20.0883 8.54824L22.5881 10.7087C23.0985 11.1488 23.1401 11.9089 22.6818 12.399C22.2235 12.8891 21.4319 12.9292 20.9215 12.4891L20.5049 12.129V14.5995C20.5049 15.9198 19.38 17 18.0051 17H13.0054C11.62 17 10.4951 15.9198 10.4951 14.5995ZM17.9946 9.96854L15.4948 7.80809L12.9949 9.96854V14.5995H17.9946V9.96854Z" fill="#9AF4DC"/>
</svg>
