<svg width="30" height="30" viewBox="0 0 30 30" fill="none" xmlns="http://www.w3.org/2000/svg">
<path d="M13.125 21.2812C12.1016 21.2812 11.2656 22.1172 11.2656 23.1406C11.2656 24.1641 12.1016 25 13.125 25C14.1484 25 14.9844 24.1641 14.9844 23.1406C14.9844 22.1094 14.1484 21.2812 13.125 21.2812Z" fill="#9AF4DC"/>
<path d="M19.3828 21.2812C18.3594 21.2812 17.5234 22.1172 17.5234 23.1406C17.5234 24.1641 18.3594 25 19.3828 25C20.4063 25 21.2422 24.1641 21.2422 23.1406C21.2422 22.1094 20.4063 21.2812 19.3828 21.2812Z" fill="#9AF4DC"/>
<path d="M6.86719 13.1016H8.40625C9.05469 15.7031 9.63281 18.0078 10.0469 19.6797C10.1875 20.2344 10.6797 20.6094 11.2422 20.6094C11.3594 20.6094 10.6875 20.6875 21.4062 19.3516C22.1797 19.2578 22.6719 18.4766 22.4219 17.7422L21.1719 13.9844C21.0078 13.4844 20.5312 13.1406 20 13.1406H10.9531L10.5625 11.5703C10.4219 11.0234 9.92969 10.6406 9.36719 10.6406H6.86719C6.1875 10.6406 5.63281 11.1953 5.63281 11.875C5.63281 12.5547 6.1875 13.1016 6.86719 13.1016ZM19.1172 15.6094L19.6094 17.0938L12.1719 18.0234L11.5703 15.6094H19.1172Z" fill="#9AF4DC"/>
<path d="M25.9531 0H4.04687C1.8125 0 0 1.8125 0 4.04687V25.9531C0 28.1875 1.8125 30 4.04687 30H25.9531C28.1875 30 30 28.1875 30 25.9531C30 24.875 30 5.03906 30 4.04687C30 1.8125 28.1875 0 25.9531 0ZM2.46094 4.04687C2.46094 3.17187 3.17187 2.46094 4.04687 2.46094H25.9531C26.8281 2.46094 27.5391 3.17187 27.5391 4.04687V5.00781H2.46094V4.04687ZM27.5391 25.9531C27.5391 26.8281 26.8281 27.5391 25.9531 27.5391H4.04687C3.17187 27.5391 2.46094 26.8281 2.46094 25.9531V7.46875H27.5312V25.9531H27.5391Z" fill="#9AF4DC"/>
</svg>
