<svg width="30" height="30" viewBox="0 0 30 30" fill="none" xmlns="http://www.w3.org/2000/svg">
<path d="M26.4644 18.4453C27.1207 17.4609 27.5036 16.2734 27.5036 15C27.5036 11.9844 25.3549 9.45312 22.5029 8.875V2.5C22.5029 1.125 21.3778 0 20.0026 0H2.50033C1.12515 0 0 1.125 0 2.5V27.5C0 28.875 1.12515 30 2.50033 30H20.0026C21.3778 30 22.5029 28.875 22.5029 27.5V21.125C23.2999 20.9609 24.0422 20.6484 24.6985 20.2109L27.8708 23.3828C28.113 23.625 28.4334 23.75 28.7537 23.75C29.0741 23.75 29.3945 23.625 29.6367 23.3828C30.1211 22.8906 30.1211 22.1016 29.6367 21.6172L26.4644 18.4453ZM25.0033 15C25.0033 17.0703 23.3234 18.75 21.2528 18.75C19.1822 18.75 17.5023 17.0703 17.5023 15C17.5023 12.9297 19.1822 11.25 21.2528 11.25C23.3234 11.25 25.0033 12.9297 25.0033 15ZM15.2207 2.5L14.6816 4.375H7.81352L7.27438 2.5H15.2207ZM2.50033 27.5V2.5H4.6803L5.41477 5.0625C5.7195 6.13281 6.71181 6.875 7.82133 6.875H14.6894C15.7989 6.875 16.7913 6.13281 17.096 5.0625L17.8304 2.5H20.0026V8.875C17.1507 9.45312 15.002 11.9844 15.002 15C15.002 18.0156 17.1507 20.5469 20.0026 21.125V27.5H2.50033Z" fill="#9AF4DC"/>
</svg>
