<svg width="30" height="30" viewBox="0 0 30 30" fill="none" xmlns="http://www.w3.org/2000/svg">
<path d="M26.2476 0H17.4109C16.4238 0 15.4524 0.399374 14.7552 1.09632L1.09283 14.7533C-0.364277 16.2099 -0.364277 18.5904 1.09283 20.0548L3.35684 22.3179C3.35684 22.3179 3.36467 22.3179 3.36467 22.3258C3.396 22.3571 3.43517 22.3806 3.46651 22.4119C3.49785 22.4354 3.52918 22.4667 3.56052 22.4902L3.56835 22.498C3.59185 22.5137 3.62319 22.5215 3.64669 22.5372C3.69369 22.5607 3.73286 22.5842 3.77987 22.5998C3.81904 22.6155 3.85821 22.6233 3.89738 22.6312C3.93654 22.639 3.97571 22.6547 4.01488 22.6625C4.06189 22.6703 4.10106 22.6703 4.14806 22.6782C4.18723 22.6782 4.21857 22.686 4.25774 22.686C4.29691 22.686 4.34391 22.6782 4.38308 22.6703C4.42225 22.6625 4.46142 22.6625 4.49275 22.6547C4.53192 22.6468 4.57109 22.6312 4.61026 22.6233C4.64943 22.6077 4.6886 22.5998 4.72777 22.5842C4.76694 22.5685 4.80611 22.545 4.84528 22.5215C4.87662 22.5059 4.90795 22.4902 4.93929 22.4667C4.98629 22.4354 5.02546 22.4041 5.06463 22.3649C5.08813 22.3493 5.1038 22.3336 5.1273 22.3179C5.1273 22.3179 5.1273 22.3101 5.13513 22.3101C5.16647 22.2788 5.18997 22.2396 5.22131 22.2083C5.24481 22.177 5.27614 22.1457 5.29181 22.1143L5.29965 22.1065C5.64434 21.5662 6.23188 21.2451 6.87427 21.2451C7.90834 21.2451 8.74657 22.083 8.74657 23.1167C8.74657 23.7588 8.42538 24.3461 7.88484 24.6907L7.87701 24.6985C7.84567 24.722 7.81434 24.7455 7.783 24.7768C7.75166 24.8081 7.71249 24.8316 7.68116 24.863C7.68116 24.863 7.67332 24.863 7.67332 24.8708C7.65766 24.8943 7.64199 24.9099 7.62632 24.9334C7.58715 24.9726 7.55582 25.0117 7.52448 25.0587C7.50098 25.0901 7.48531 25.1214 7.46964 25.1605C7.44614 25.1997 7.42264 25.2388 7.40697 25.278C7.3913 25.3172 7.38347 25.3563 7.3678 25.3955C7.35213 25.4346 7.3443 25.4659 7.33647 25.5051C7.32863 25.5442 7.32863 25.5834 7.3208 25.6226C7.31296 25.6617 7.31296 25.7009 7.30513 25.74C7.30513 25.7792 7.31296 25.8183 7.31296 25.8575C7.31296 25.8966 7.3208 25.9436 7.3208 25.9828C7.32863 26.0219 7.3443 26.0611 7.35213 26.1002C7.35997 26.1394 7.3678 26.1785 7.38347 26.2177C7.39914 26.2647 7.42264 26.3038 7.44614 26.3508C7.46181 26.3743 7.46964 26.4056 7.48531 26.4291L7.49314 26.437C7.54015 26.5074 7.59499 26.5779 7.65766 26.6484L9.92166 28.9115C10.6502 29.6398 11.6138 30 12.5774 30C13.5409 30 14.4967 29.632 15.2252 28.9037L28.9032 15.2388C29.6005 14.5419 30 13.5709 30 12.5842V3.75098C30 1.68363 28.3157 0 26.2476 0ZM27.501 12.5842C27.501 12.9131 27.3678 13.2341 27.1328 13.4691L13.4704 27.1261C12.9847 27.6116 12.1857 27.6116 11.7 27.1261L10.3447 25.7713C10.9244 25.0196 11.2456 24.0955 11.2456 23.1167C11.2456 20.7048 9.27928 18.7392 6.86643 18.7392C5.88719 18.7392 4.96279 19.0681 4.21073 19.6398L2.85546 18.285C2.36976 17.7917 2.36976 17.0008 2.85546 16.5153L16.5257 2.86609C16.7607 2.63117 17.0819 2.49804 17.4109 2.49804H26.2476C26.9369 2.49804 27.501 3.06186 27.501 3.75098V12.5842Z" fill="#9AF4DC"/>
<path d="M24.6204 5.20205C23.9003 4.44139 22.9322 4.01702 21.892 4.001C20.8518 3.97698 19.8677 4.38534 19.1315 5.12198C17.6513 6.60328 17.6193 8.94933 19.0595 10.4627L19.3796 10.7989C20.0997 11.5596 21.0678 11.984 22.108 12H22.164C23.1882 12 24.1484 11.5996 24.8685 10.879C26.3487 9.40573 26.3807 7.05968 24.9405 5.54635L24.6204 5.20205ZM23.0602 9.07744C22.8121 9.32566 22.4841 9.44577 22.14 9.45377C21.796 9.44577 21.4679 9.30965 21.2279 9.05342L20.9078 8.71713C20.4277 8.21269 20.4437 7.428 20.9318 6.93957C21.1719 6.69936 21.4919 6.56324 21.836 6.56324H21.852C22.196 6.57125 22.5241 6.70737 22.7641 6.96359L23.0842 7.3079C23.5643 7.80433 23.5563 8.58902 23.0602 9.07744Z" fill="#9AF4DC"/>
</svg>
