<svg width="30" height="30" viewBox="0 0 30 30" fill="none" xmlns="http://www.w3.org/2000/svg">
<path d="M8.125 30H21.875C23.25 30 24.375 28.875 24.375 27.5V12.5H26.25C26.9375 12.5 27.5 11.9375 27.5 11.25V7.5C27.5 6.125 26.375 5 25 5H20V2.5C20 1.125 18.875 0 17.5 0H12.5C11.125 0 10 1.125 10 2.5V5H5C3.625 5 2.5 6.125 2.5 7.5V11.25C2.5 11.9375 3.0625 12.5 3.75 12.5H5.625V27.5C5.625 28.875 6.75 30 8.125 30ZM21.875 27.5H8.125V12.5H21.875V27.5ZM12.5 2.5H17.5V5H12.5V2.5ZM5 7.5H25V10H5V7.5Z" fill="#9AF4DC"/>
<path d="M18.125 25C18.8125 25 19.375 24.4375 19.375 23.75V16.25C19.375 15.5625 18.8125 15 18.125 15C17.4375 15 16.875 15.5625 16.875 16.25V23.75C16.875 24.4375 17.4375 25 18.125 25Z" fill="#9AF4DC"/>
<path d="M11.875 25C12.5625 25 13.125 24.4375 13.125 23.75V16.25C13.125 15.5625 12.5625 15 11.875 15C11.1875 15 10.625 15.5625 10.625 16.25V23.75C10.625 24.4375 11.1875 25 11.875 25Z" fill="#9AF4DC"/>
</svg>
