<svg width="144" height="144" viewBox="0 0 144 144" fill="none" xmlns="http://www.w3.org/2000/svg">
<path d="M103.3 93.4C103.3 93.6 103.2 93.7 103.2 93.9C103.2 94 103.1 94.2 103 94.3C103 94.4 102.9 94.4 102.8 94.5L102.7 94.6C102.6 94.7 102.5 94.8 102.4 94.8L115.8 87C115.9 86.9 116 86.9 116.1 86.8L116.2 86.7C116.2 86.6 116.3 86.6 116.3 86.5C116.3 86.5 116.3 86.4 116.4 86.4C116.4 86.3 116.5 86.3 116.5 86.2V86.1C116.5 86.1 116.5 86.1 116.5 86C116.5 86 116.5 85.9 116.5 85.8V85.7V85.6L117.7 77.3L104.5 85L103.3 93.4Z" fill="white"/>
<path d="M102.8 94.6C102.7 94.7 102.6 94.8 102.5 94.8L115.9 87C116 86.9 116.1 86.9 116.2 86.8L116.3 86.7C116.3 86.6 116.4 86.6 116.4 86.5C116.4 86.5 116.4 86.4 116.5 86.4C116.5 86.3 116.6 86.3 116.6 86.2V86.1C116.6 86.1 116.6 86.1 116.6 86C116.6 86 116.6 85.9 116.6 85.8V85.7V85.6L117.8 77.3" stroke="#171A21" stroke-width="2" stroke-miterlimit="10" stroke-linecap="round" stroke-linejoin="round"/>
<path d="M101.8 69.9C102.1 69.8 102.4 69.6999 102.7 69.6999H102.8C102.8 69.6999 102.8 69.6999 102.9 69.6999C103 69.6999 103.2 69.5999 103.3 69.5C103.4 69.5 103.4 69.5 103.5 69.4C103.7 69.3 103.9 69.1999 104 69.0999L117.4 61.2999C117.2 61.3999 117.1 61.5 116.9 61.5999C116.8 61.5999 116.8 61.7 116.7 61.7C116.6 61.7999 116.5 61.8 116.3 61.9H116.2C115.9 62 115.6 62.0999 115.3 62.0999C115.3 62.0999 115.3 62.0999 115.2 62.0999C115 62.0999 114.8 62.2 114.5 62.2C114.4 62.2 114.3 62.2 114.3 62.2C114.2 62.2 114 62.2 113.9 62.2C113.8 62.2 113.7 62.2 113.6 62.2C113.5 62.2 113.4 62.2 113.2 62.2C113.1 62.2 113 62.2 112.9 62.2C112.8 62.2 112.7 62.2 112.6 62.2C112.5 62.2 112.4 62.2 112.3 62.2C112.2 62.2 112.1 62.2 112 62.2C111.9 62.2 111.8 62.1999 111.6 62.0999C111.5 62.0999 111.4 62.0999 111.4 62C111.3 62 111.1 61.9 111 61.9C110.9 61.9 110.8 61.8999 110.8 61.7999C110.7 61.7999 110.5 61.7 110.4 61.7C110.3 61.7 110.3 61.6999 110.2 61.5999C110 61.5 109.8 61.5 109.6 61.4C109.6 61.4 109.6 61.4 109.5 61.4C109.3 61.3 109.1 61.1999 108.9 61.0999C108.8 61.0999 108.8 61 108.7 61C108.5 60.9 108.4 60.8999 108.2 60.7999C108.1 60.7999 108 60.7 108 60.7C107.8 60.6 107.6 60.5 107.4 60.4C106.9 60.1 106.5 59.7999 106 59.5C106 59.5 105.9 59.5 105.9 59.4C105.5 59.1 105 58.8 104.6 58.4L104.5 58.2999C104.1 58 103.7 57.5999 103.3 57.2999L103.2 57.2C102.8 56.8 102.4 56.4 102 56L101.9 55.9C101.5 55.5 101.1 54.9999 100.7 54.5999C100.3 54.0999 99.9 53.5999 99.5 53.0999C99.2 52.5999 98.8 52.2 98.5 51.7C98.3 51.4 98.1 51.0999 97.9 50.7999C97.7 50.5 97.6 50.2999 97.4 50C97.3 49.9 97.3 49.7999 97.2 49.5999C97 49.1999 96.7 48.6999 96.5 48.2999L96.4 48.2C96.1 47.7 95.9 47.0999 95.6 46.5999V46.5C95.4 46 95.1 45.4 94.9 44.9V44.7999C94.7 44.1999 94.5 43.6999 94.3 43.0999V43C94.1 42.5 94 41.9 93.9 41.4C93.9 41.3 93.9 41.3 93.9 41.2C93.8 40.6 93.7 40.1 93.6 39.5C93.5 38.9 93.4 38.4 93.4 37.7999V37.7C93.4 37.2 93.3 36.5999 93.3 36.0999C93.3 35.5999 93.3 35.0999 93.4 34.5999V34.5C93.4 34 93.5 33.6 93.6 33.2C93.6 33.1 93.6 33.1 93.6 33C93.7 32.6 93.8 32.1999 93.9 31.7999C93.9 31.6999 93.9 31.7 94 31.6C94.1 31.2 94.2 30.9 94.4 30.6V30.5C94.6 30.1 94.8 29.8 95 29.5L95.1 29.4C95.3 29.1 95.5 28.9 95.6 28.7C95.7 28.6 95.7 28.5 95.8 28.5C96 28.3 96.1 28.1 96.3 28C96.4 27.9 96.5 27.8999 96.5 27.7999C96.8 27.5999 97 27.4 97.3 27.2L83.9 35C83.6 35.2 83.3 35.3999 83.1 35.5999C83 35.6999 82.9 35.6999 82.9 35.7999C82.7 35.9999 82.5 36.0999 82.4 36.2999C82.3 36.4 82.3 36.5 82.2 36.5C82 36.7 81.8 37 81.7 37.2L81.6 37.2999C81.4 37.5999 81.2 37.9 81.1 38.2999V38.4C81 38.6 80.9 38.7999 80.8 39.0999C80.8 39.1999 80.7 39.3 80.7 39.4C80.7 39.5 80.7 39.4999 80.6 39.5999C80.6 39.6999 80.6 39.6999 80.5 39.7999C80.4 39.9999 80.4 40.3 80.3 40.5C80.3 40.6 80.3 40.6999 80.2 40.7999C80.2 40.9 80.2 40.9 80.2 41C80.2 41.1 80.2 41.1999 80.1 41.2999C80.1 41.4999 80 41.7 80 42C80 42.1 80 42.3 80 42.4V42.5C80 42.6 80 42.6 80 42.7C80 42.9 80 43.1 80 43.4C80 43.6 80 43.8999 80 44.0999C80 44.2999 80 44.5 80 44.7C80 44.9 80 45.2 80 45.4C80 45.5 80 45.6 80 45.7V45.7999C80 45.9 80 46 80 46C80 46.2 80 46.5 80.1 46.7C80.1 46.9 80.2 47.2 80.2 47.4C80.2 47.6 80.3 47.7999 80.3 48.0999C80.3 48.2999 80.4 48.5999 80.4 48.7999C80.4 48.9 80.4 48.9999 80.5 49.0999C80.5 49.1999 80.5 49.1999 80.5 49.2999C80.5 49.4 80.5 49.4999 80.6 49.5999C80.7 49.7999 80.7 50.0999 80.8 50.2999C80.9 50.5 80.9 50.6999 81 50.7999V50.9V51C81.1 51.2 81.2 51.5 81.2 51.7C81.3 51.9 81.4 52.2 81.5 52.4C81.5 52.4 81.5 52.5 81.6 52.5V52.5999C81.7 52.6999 81.7 52.9 81.8 53C81.9 53.2 82 53.5 82.1 53.7C82.2 53.9 82.2 54 82.3 54.2V54.2999V54.4C82.4 54.6 82.5 54.8999 82.6 55.0999C82.7 55.2999 82.8 55.5999 83 55.7999C83 55.7999 83 55.9 83.1 55.9L83.2 56C83.3 56.2 83.4 56.3999 83.5 56.5999C83.6 56.7999 83.8 57.0999 83.9 57.2999C84 57.4 84 57.5 84.1 57.7L84.2 57.7999C84.3 58 84.5 58.2 84.6 58.4C84.8 58.7 85 59 85.2 59.2999L85.3 59.4C85.6 59.8 85.9 60.2999 86.2 60.7C86.4 61 86.6 61.2999 86.8 61.5C87 61.7 87.1 61.9 87.3 62.2C87.5 62.4 87.7 62.5999 87.8 62.7999C88 63 88.2 63.2 88.3 63.4L88.4 63.5L88.5 63.5999C88.6 63.6999 88.8 63.9 88.9 64C89.1 64.2 89.3 64.3999 89.5 64.5999C89.6 64.6999 89.6 64.7 89.7 64.8L89.8 64.9C89.9 65 90 65.0999 90.1 65.1999C90.3 65.3999 90.5 65.5999 90.7 65.6999C90.8 65.7999 90.9 65.9 91 65.9L91.1 66C91.2 66.0999 91.2 66.0999 91.3 66.1999C91.5 66.3999 91.7 66.4999 91.9 66.6999C92 66.7999 92.2 66.9 92.4 67C92.4 67 92.5 67 92.5 67.0999C92.5 67.0999 92.6 67.0999 92.6 67.1999C92.8 67.2999 93 67.5 93.2 67.5999C93.4 67.6999 93.6 67.7999 93.8 68L93.9 68.0999C94 68.1999 94.2 68.3 94.3 68.3C94.4 68.3 94.4 68.4 94.5 68.4C94.6 68.4 94.7 68.5 94.7 68.5C94.8 68.5 94.8 68.5999 94.9 68.5999C95 68.5999 95.1 68.6999 95.2 68.6999C95.3 68.6999 95.3 68.8 95.4 68.8C95.4 68.8 95.4 68.8 95.5 68.8C95.7 68.9 95.9 69 96.1 69C96.1 69 96.1 69 96.2 69C96.4 69.0999 96.5 69.0999 96.7 69.1999H96.8C96.9 69.1999 96.9 69.2 97 69.3C97.1 69.3 97.2 69.4 97.3 69.4C97.4 69.4 97.4 69.4 97.4 69.4C97.5 69.4 97.6 69.4 97.6 69.5C97.7 69.5 97.7 69.5 97.8 69.5999C97.9 69.5999 97.9 69.5999 98 69.5999C98.1 69.5999 98.2 69.5999 98.2 69.6999H98.3C98.4 69.6999 98.5 69.6999 98.5 69.6999C98.6 69.6999 98.7 69.6999 98.8 69.6999H98.9C99 69.6999 99.1 69.6999 99.1 69.6999C99.2 69.6999 99.3 69.6999 99.4 69.6999H99.5C99.6 69.6999 99.6 69.6999 99.7 69.6999C99.8 69.6999 99.9 69.6999 100.1 69.6999H100.2C100.3 69.6999 100.3 69.6999 100.4 69.6999C100.5 69.6999 100.7 69.6999 100.8 69.6999H100.9H101C101.3 69.9999 101.5 70 101.8 69.9Z" fill="#FEE2E2"/>
<path d="M117.301 61.2999C117.101 61.3999 117.001 61.4999 116.801 61.5999C116.701 61.5999 116.701 61.7 116.601 61.7C116.501 61.8 116.401 61.8 116.201 61.9H116.101C115.801 62 115.501 62.0999 115.201 62.0999C115.201 62.0999 115.201 62.0999 115.101 62.0999C114.901 62.0999 114.701 62.2 114.401 62.2C114.301 62.2 114.201 62.2 114.201 62.2C114.101 62.2 113.901 62.2 113.801 62.2C113.701 62.2 113.601 62.2 113.501 62.2C113.401 62.2 113.301 62.2 113.101 62.2C113.001 62.2 112.901 62.2 112.801 62.2C112.701 62.2 112.601 62.2 112.501 62.2C112.401 62.2 112.301 62.2 112.201 62.2C112.101 62.2 112.001 62.2 111.901 62.2C111.801 62.2 111.701 62.1999 111.501 62.0999C111.401 62.0999 111.301 62.1 111.301 62C111.201 62 111.001 61.9 110.901 61.9C110.801 61.9 110.701 61.8999 110.701 61.7999C110.601 61.7999 110.401 61.7 110.301 61.7C110.201 61.7 110.201 61.6999 110.101 61.5999C109.901 61.4999 109.701 61.5 109.501 61.4C109.501 61.4 109.501 61.4 109.401 61.4C109.201 61.3 109.001 61.1999 108.801 61.0999C108.701 61.0999 108.701 61 108.601 61C108.401 60.9 108.301 60.8999 108.101 60.7999C108.001 60.7999 107.901 60.7 107.901 60.7C107.701 60.6 107.501 60.5 107.301 60.4C106.801 60.1 106.401 59.8 105.901 59.5C105.901 59.5 105.801 59.5 105.801 59.4C105.401 59.1 104.901 58.8 104.501 58.4L104.401 58.2999C104.001 57.9999 103.601 57.5999 103.201 57.2999L103.101 57.2C102.701 56.8 102.301 56.4 101.901 56L101.801 55.9C101.401 55.5 101.001 54.9999 100.601 54.5999C100.201 54.0999 99.8012 53.5999 99.4012 53.0999C99.1012 52.5999 98.7012 52.2 98.4012 51.7C98.2012 51.4 98.0012 51.0999 97.8012 50.7999C97.6012 50.4999 97.5012 50.3 97.3012 50C97.2012 49.9 97.2012 49.7999 97.1012 49.5999C96.9012 49.1999 96.6012 48.6999 96.4012 48.2999L96.3012 48.2C96.0012 47.7 95.8012 47.0999 95.5012 46.5999V46.5C95.3012 46 95.0012 45.4 94.8012 44.9V44.7999C94.6012 44.1999 94.4012 43.6999 94.2012 43.0999V43C94.0012 42.5 93.9012 41.9 93.8012 41.4C93.8012 41.3 93.8012 41.3 93.8012 41.2C93.7012 40.6 93.6012 40.1 93.5012 39.5C93.4012 38.9 93.3012 38.3999 93.3012 37.7999V37.7C93.3012 37.2 93.2012 36.5999 93.2012 36.0999C93.2012 35.5999 93.2012 35.0999 93.3012 34.5999V34.5C93.3012 34 93.4012 33.6 93.5012 33.2C93.5012 33.1 93.5012 33.1 93.5012 33C93.6012 32.6 93.7012 32.1999 93.8012 31.7999C93.8012 31.6999 93.8012 31.7 93.9012 31.6C94.0012 31.2 94.1012 30.9 94.3012 30.6V30.5C94.5012 30.1 94.7012 29.8 94.9012 29.5L95.0012 29.4C95.2012 29.1 95.4012 28.9 95.5012 28.7C95.6012 28.6 95.6012 28.5 95.7012 28.5C95.9012 28.3 96.0012 28.1 96.2012 28C96.3012 27.9 96.4012 27.8999 96.4012 27.7999C96.7012 27.5999 96.9012 27.4 97.2012 27.2" stroke="#171A21" stroke-width="2" stroke-miterlimit="10" stroke-linecap="round" stroke-linejoin="round"/>
<path d="M140.301 51.8C140.301 51.7 140.301 51.7 140.301 51.6V51.5V51.4V51.3C140.301 51.2 140.301 51.2 140.301 51.1C140.301 51 140.301 51 140.301 50.9C140.301 50.8 140.301 50.8 140.301 50.7V50.6C140.301 50.5 140.301 50.5 140.301 50.4C140.301 50.3 140.301 50.3 140.201 50.2C140.201 50.1 140.201 50.1 140.101 50V49.9L133.701 33.3C133.701 33.3 133.701 33.2 133.601 33.2C133.601 33.2 133.601 33.1 133.501 33.1C133.501 33.1 133.501 33 133.401 33V32.9C133.401 32.8 133.301 32.8 133.301 32.7C133.301 32.6 133.201 32.6 133.201 32.5C133.101 32.4 133.001 32.2 132.901 32.1C132.901 32 132.801 32 132.801 31.9C132.801 31.8 132.701 31.8 132.701 31.7C132.701 31.7 132.701 31.7 132.701 31.6C132.701 31.6 132.701 31.6 132.601 31.5L132.501 31.4L132.401 31.3C132.401 31.3 132.401 31.3 132.301 31.2L132.201 31.1L132.101 31L132.001 30.9L131.901 30.8L131.801 30.7L131.701 30.6L131.601 30.5L131.501 30.4C131.501 30.4 131.401 30.4 131.401 30.3C131.401 30.3 131.301 30.3 131.301 30.2C131.301 30.2 131.201 30.2 131.201 30.1C131.201 30.1 131.101 30.1 131.101 30C131.101 30 131.101 30 131.001 30H130.901H130.801H130.701H130.601L123.301 29.2C123.001 28.8 122.801 28.5 122.501 28.1C122.501 28 122.401 28 122.401 27.9C122.201 27.7 122.101 27.5 121.901 27.3C121.801 27.1 121.601 26.9 121.501 26.8C121.401 26.7 121.401 26.7 121.301 26.6C121.201 26.4 121.001 26.3 120.901 26.1C120.801 25.9 120.601 25.8 120.501 25.6C120.401 25.5 120.301 25.4 120.201 25.3C120.101 25.1 119.901 25 119.801 24.8C119.701 24.7 119.601 24.6 119.501 24.5C119.301 24.2 119.101 24 118.801 23.8L117.701 14.2V14.1C117.701 14 117.701 14 117.701 13.9C117.701 13.8 117.701 13.8 117.701 13.7C117.701 13.6 117.701 13.6 117.701 13.5V13.4C117.701 13.3 117.701 13.3 117.701 13.2C117.701 13.1 117.701 13.1 117.701 13C117.701 12.9 117.701 12.9 117.701 12.8C117.701 12.7 117.701 12.7 117.601 12.6V12.5C117.601 12.5 117.601 12.4 117.501 12.4C117.501 12.4 117.501 12.3 117.401 12.3C117.401 12.3 117.401 12.2 117.301 12.2C117.301 12.1 117.301 12.1 117.201 12C117.201 11.9 117.101 11.9 117.101 11.8C117.101 11.7 117.001 11.6 117.001 11.5C117.001 11.4 116.901 11.4 116.901 11.3C116.901 11.3 116.901 11.2 116.801 11.2C116.801 11.2 116.801 11.1 116.701 11.1C116.601 11 116.601 10.9 116.501 10.8C116.501 10.7 116.401 10.7 116.401 10.6L116.301 10.5L116.201 10.4L116.101 10.3L116.001 10.2L115.901 10.1L115.801 10L115.701 9.9L115.601 9.8L115.501 9.7L115.401 9.6L115.301 9.5L115.201 9.4L102.201 1.9C102.201 1.9 102.101 1.9 102.101 1.8C102.101 1.8 102.001 1.8 102.001 1.7C102.001 1.7 101.901 1.7 101.901 1.6C101.901 1.6 101.801 1.6 101.801 1.5H101.701H101.601H101.501H101.401H101.301H101.201H101.101C101.001 1.5 101.001 1.5 100.901 1.5C100.801 1.5 100.801 1.5 100.701 1.5C100.601 1.5 100.601 1.5 100.501 1.6C100.401 1.6 100.301 1.7 100.301 1.7L89.9008 7.7L86.5008 4.2L86.4008 4.1L86.3008 4L86.2008 3.9L86.1008 3.8L86.0008 3.7L85.9008 3.6L85.8008 3.5L85.7008 3.4C85.7008 3.4 85.6008 3.4 85.6008 3.3C85.6008 3.3 85.5008 3.3 85.5008 3.2C85.5008 3.2 85.4008 3.2 85.4008 3.1C85.4008 3.1 85.3008 3.1 85.3008 3H85.2008H85.1008H85.0008H84.9008H84.8008C84.8008 3 84.8008 3 84.7008 3C84.7008 3 84.7008 3 84.6008 3H84.5008C84.4008 3 84.4008 3 84.3008 3C84.2008 3 84.2008 3 84.1008 3C84.0008 3 84.0008 3 83.9008 3.1C83.8008 3.1 83.7008 3.2 83.7008 3.2L70.3008 11C70.4008 10.9 70.6008 10.9 70.8008 10.8C71.0008 10.8 71.1008 10.8 71.3008 10.8C71.5008 10.8 71.7008 10.9 71.9008 10.9C72.1008 11 72.3008 11.1 72.5008 11.2C72.7008 11.3 72.9008 11.4 73.0008 11.6C73.2008 11.7 73.4008 11.9 73.5008 12.1L80.8008 19.7C81.1008 19.6 81.4008 19.6 81.6008 19.5C82.0008 19.4 82.5008 19.4 82.9008 19.3H83.0008C83.4008 19.3 83.7008 19.3 84.1008 19.2C84.4008 19.2 84.8008 19.2 85.1008 19.2L95.4008 13.2L102.201 17.1C102.401 17.2 102.601 17.3 102.801 17.5C103.001 17.6 103.201 17.8 103.301 18C103.501 18.2 103.601 18.3 103.801 18.5C103.901 18.7 104.101 18.9 104.201 19.1C104.201 19.1 104.201 19.2 104.301 19.2C104.401 19.4 104.501 19.6 104.601 19.8C104.701 20 104.801 20.2 104.901 20.5C105.001 20.7 105.101 21 105.101 21.2C105.201 21.4 105.201 21.7 105.201 21.9L106.301 31.5C106.601 31.8 106.901 32.2 107.201 32.6C107.301 32.8 107.501 32.9 107.601 33.1C107.801 33.4 108.001 33.6 108.301 33.9C108.401 34.1 108.601 34.2 108.701 34.4C108.901 34.7 109.101 34.9 109.301 35.2C109.501 35.4 109.601 35.6 109.801 35.8C110.101 36.2 110.401 36.6 110.701 37.1L118.001 37.9C118.201 37.9 118.401 38 118.501 38C118.701 38.1 118.901 38.2 119.001 38.3C119.101 38.4 119.301 38.5 119.401 38.6C119.501 38.7 119.701 38.8 119.801 38.9C119.901 39 120.001 39.1 120.201 39.2C120.301 39.3 120.401 39.4 120.501 39.6C120.601 39.7 120.701 39.9 120.801 40C120.901 40.1 121.001 40.3 121.101 40.5C121.201 40.7 121.301 40.8 121.401 41C121.501 41.2 121.601 41.3 121.601 41.5L128.001 58.1C128.101 58.3 128.201 58.5 128.201 58.7C128.301 58.9 128.301 59.1 128.301 59.3C128.301 59.5 128.301 59.6 128.301 59.8L120.901 64.1C120.901 64.5 121.001 65 121.001 65.4C121.001 65.5 121.001 65.7 121.001 65.8C121.001 66.2 121.001 66.6 121.001 67V67.1C121.001 67.5 121.001 68 121.001 68.4C121.001 68.5 121.001 68.6 121.001 68.8C121.001 69.2 120.901 69.6 120.901 70L127.101 79.2C127.201 79.4 127.401 79.6 127.501 79.9C127.601 80.1 127.701 80.3 127.801 80.6C127.901 80.8 128.001 81 128.001 81.3C128.101 81.5 128.101 81.7 128.101 82C128.101 82.2 128.101 82.4 128.201 82.6C128.201 82.8 128.201 83 128.201 83.2C128.201 83.4 128.101 83.6 128.101 83.7C128.001 83.9 128.001 84 127.901 84.1L121.401 93.3C121.301 93.5 121.101 93.7 120.901 93.8L134.301 86C134.501 85.9 134.701 85.7 134.801 85.5L141.301 76.3C141.301 76.2 141.401 76.2 141.401 76.1C141.401 76 141.501 76 141.501 75.9V75.8C141.501 75.7 141.501 75.7 141.501 75.6V75.5C141.501 75.5 141.501 75.5 141.501 75.4C141.501 75.4 141.501 75.4 141.501 75.3V75.2V75.1V75C141.501 75 141.501 75 141.501 74.9C141.501 74.9 141.501 74.9 141.501 74.8V74.7V74.6C141.501 74.6 141.501 74.5 141.501 74.4V74.3C141.501 74.2 141.501 74.2 141.501 74.1C141.501 74 141.501 74 141.501 73.9C141.501 73.8 141.501 73.8 141.501 73.7C141.501 73.6 141.501 73.6 141.501 73.5C141.501 73.4 141.501 73.4 141.501 73.3C141.501 73.2 141.501 73.2 141.401 73.1C141.401 73 141.401 73 141.301 72.9C141.301 72.8 141.301 72.8 141.201 72.7V72.6C141.201 72.6 141.201 72.5 141.101 72.5C141.101 72.5 141.101 72.4 141.001 72.4C141.001 72.3 141.001 72.3 140.901 72.2C140.901 72.2 140.901 72.1 140.801 72.1C140.801 72 140.701 71.9 140.601 71.8C140.501 71.7 140.501 71.6 140.401 71.5L134.201 62.3C134.201 62.1 134.201 61.9 134.301 61.6C134.301 61.4 134.301 61.3 134.301 61.1C134.301 61 134.301 60.9 134.301 60.7C134.301 60.6 134.301 60.6 134.301 60.5C134.301 60.2 134.301 59.8 134.301 59.4V59.3C134.301 59 134.301 58.7 134.301 58.4C134.301 58.3 134.301 58.2 134.301 58.1V58L140.701 54.3C140.801 54.2 140.901 54.2 141.001 54.1L141.101 54C141.101 53.9 141.201 53.9 141.201 53.8C141.201 53.8 141.201 53.8 141.201 53.7C141.201 53.7 141.201 53.7 141.201 53.6V53.5C141.201 53.4 141.301 53.4 141.301 53.3V53.2C141.301 53.1 141.301 53.1 141.301 53C141.301 53 141.301 52.9 141.301 52.8V52.7V52.6V52.5C140.301 52 140.301 52 140.301 51.8C140.301 51.9 140.301 51.9 140.301 51.8Z" fill="white"/>
<path d="M119.901 92.9C119.801 93.1 119.601 93.3 119.401 93.4L132.801 85.6C133.001 85.5 133.201 85.3 133.301 85.1L139.801 75.9C139.801 75.8 139.901 75.8 139.901 75.7C139.901 75.6 140.001 75.6 140.001 75.5V75.4C140.001 75.3 140.001 75.3 140.001 75.2V75.1C140.001 75.1 140.001 75.1 140.001 75C140.001 75 140.001 75 140.001 74.9V74.8V74.7V74.6C140.001 74.6 140.001 74.6 140.001 74.5C140.001 74.5 140.001 74.5 140.001 74.4V74.3V74.2C140.001 74.2 140.001 74.1 140.001 74V73.9C140.001 73.8 140.001 73.8 140.001 73.7C140.001 73.6 140.001 73.6 140.001 73.5C140.001 73.4 140.001 73.4 140.001 73.3C140.001 73.2 140.001 73.2 140.001 73.1C140.001 73 140.001 73 140.001 72.9C140.001 72.8 140.001 72.8 139.901 72.7C139.901 72.6 139.901 72.6 139.801 72.5C139.801 72.4 139.801 72.4 139.701 72.3V72.2C139.701 72.2 139.701 72.1 139.601 72.1C139.601 72.1 139.601 72 139.501 72C139.501 71.9 139.501 71.9 139.401 71.8C139.401 71.8 139.401 71.7 139.301 71.7C139.301 71.6 139.201 71.5 139.101 71.4C139.001 71.3 139.001 71.2 138.901 71.1L132.701 61.9C132.701 61.7 132.701 61.5 132.801 61.2C132.801 61 132.801 60.9 132.801 60.7C132.801 60.6 132.801 60.4999 132.801 60.2999C132.801 60.1999 132.801 60.1999 132.801 60.0999C132.801 59.7999 132.801 59.4 132.801 59V58.9C132.801 58.6 132.801 58.3 132.801 58C132.801 57.9 132.801 57.8 132.801 57.7V57.5999L139.201 53.9C139.301 53.8 139.401 53.8 139.501 53.7L139.601 53.5999C139.601 53.4999 139.701 53.5 139.701 53.4C139.701 53.4 139.701 53.3999 139.701 53.2999C139.701 53.2999 139.701 53.3 139.701 53.2V53.0999C139.701 52.9999 139.801 53 139.801 52.9V52.7999C139.801 52.6999 139.801 52.6999 139.801 52.5999C139.801 52.5999 139.801 52.5 139.801 52.4V52.2999V52.2V52.0999V52V51.9V51.7999V51.7V51.5999V51.5C139.801 51.4 139.801 51.3999 139.801 51.2999C139.801 51.1999 139.801 51.1999 139.801 51.0999C139.801 50.9999 139.801 51 139.801 50.9V50.7999C139.801 50.6999 139.801 50.6999 139.801 50.5999C139.801 50.4999 139.801 50.5 139.701 50.4C139.701 50.3 139.701 50.3 139.601 50.2V50.0999L133.201 33.5C133.201 33.5 133.201 33.4 133.101 33.4C133.101 33.4 133.101 33.2999 133.001 33.2999C133.001 33.2999 133.001 33.2 132.901 33.2V33.0999C132.901 32.9999 132.801 33 132.801 32.9C132.801 32.8 132.701 32.8 132.701 32.7C132.601 32.6 132.501 32.3999 132.401 32.2999C132.401 32.1999 132.301 32.1999 132.301 32.0999C132.301 31.9999 132.201 32 132.201 31.9C132.201 31.9 132.201 31.8999 132.201 31.7999C132.201 31.7999 132.201 31.8 132.101 31.7L132.001 31.6L131.901 31.5C131.901 31.5 131.901 31.5 131.801 31.4L131.701 31.2999L131.601 31.2L131.501 31.1L131.401 31L131.301 30.9L131.201 30.7999L131.101 30.7L131.001 30.6C131.001 30.6 130.901 30.6 130.901 30.5C130.901 30.5 130.801 30.5 130.801 30.4C130.801 30.4 130.701 30.3999 130.701 30.2999C130.701 30.2999 130.601 30.3 130.601 30.2C130.601 30.2 130.601 30.2 130.501 30.2H130.401H130.301H130.201H130.101L122.801 29.4C122.501 29 122.301 28.6999 122.001 28.2999C122.001 28.1999 121.901 28.2 121.901 28.1C121.701 27.9 121.601 27.7 121.401 27.5C121.301 27.3 121.101 27.1 121.001 27C120.901 26.9 120.901 26.8999 120.801 26.7999C120.701 26.5999 120.501 26.4999 120.401 26.2999C120.301 26.0999 120.101 25.9999 120.001 25.7999C119.901 25.6999 119.801 25.6 119.701 25.5C119.601 25.3 119.401 25.2 119.301 25C119.201 24.9 119.101 24.8 119.001 24.7C118.801 24.4 118.601 24.2 118.301 24L117.201 14.4V14.3C117.201 14.2 117.201 14.2 117.201 14.1C117.201 14 117.201 14 117.201 13.9C117.201 13.8 117.201 13.8 117.201 13.7V13.6C117.201 13.5 117.201 13.5 117.201 13.4C117.201 13.3 117.201 13.3 117.201 13.2C117.201 13.1 117.201 13.1 117.201 13C117.201 12.9 117.201 12.9 117.101 12.8V12.7C117.101 12.7 117.101 12.6 117.001 12.6C117.001 12.6 117.001 12.5 116.901 12.5C116.901 12.5 116.901 12.4 116.801 12.4C116.801 12.3 116.801 12.3 116.701 12.2C116.701 12.1 116.601 12.1 116.601 12C116.601 11.9 116.501 11.8 116.501 11.7C116.501 11.6 116.401 11.6 116.401 11.5C116.401 11.5 116.401 11.4 116.301 11.4C116.301 11.4 116.301 11.3 116.201 11.3C116.101 11.2 116.101 11.1 116.001 11C116.001 10.9 115.901 10.9 115.901 10.8L115.801 10.7L115.701 10.6L115.601 10.5L115.501 10.4L115.401 10.3L115.301 10.2L115.201 10.1L115.101 9.99995L115.001 9.89995L114.901 9.79995L114.801 9.69995L114.701 9.59995L101.701 2.09995C101.701 2.09995 101.601 2.09995 101.601 1.99995C101.601 1.99995 101.501 1.99995 101.501 1.89995C101.501 1.89995 101.401 1.89995 101.401 1.79995C101.401 1.79995 101.301 1.79995 101.301 1.69995H101.201H101.101H101.001H100.901H100.801H100.701H100.601C100.501 1.69995 100.501 1.69995 100.401 1.69995C100.301 1.69995 100.301 1.69995 100.201 1.69995C100.101 1.69995 100.101 1.69995 100.001 1.79995C99.9008 1.79995 99.8008 1.89995 99.8008 1.89995L89.4008 7.89995L86.0008 4.39995L85.9008 4.29995L85.8008 4.19995L85.7008 4.09995L85.6008 3.99995L85.5008 3.89995L85.4008 3.79995L85.3008 3.69995L85.2008 3.59995C85.2008 3.59995 85.1008 3.59995 85.1008 3.49995C85.1008 3.49995 85.0008 3.49995 85.0008 3.39995C85.0008 3.39995 84.9008 3.39995 84.9008 3.29995C84.9008 3.29995 84.8008 3.29995 84.8008 3.19995H84.7008H84.6008H84.5008H84.4008H84.3008C84.3008 3.19995 84.3008 3.19995 84.2008 3.19995C84.2008 3.19995 84.2008 3.19995 84.1008 3.19995H84.0008C83.9008 3.19995 83.9008 3.19995 83.8008 3.19995C83.7008 3.19995 83.7008 3.19995 83.6008 3.19995C83.5008 3.19995 83.5008 3.19995 83.4008 3.29995C83.3008 3.29995 83.2008 3.39995 83.2008 3.39995L69.8008 11.2C69.9008 11.1 70.1008 11.1 70.3008 11C70.5008 11 70.6008 11 70.8008 11" stroke="#171A21" stroke-width="2" stroke-miterlimit="10" stroke-linecap="round" stroke-linejoin="round"/>
<path d="M125.7 78.9C126.9 80.6 127.2 82.7 126.4 83.8L119.9 93C119.4 93.8 118.3 93.9 117.3 93.2C116.9 93 116.6 92.7 116.2 92.3L108.8 84.7C107.4 85 105.9 85.2 104.4 85.1L103.2 93.4C103 95 101.7 95.5 100.2 94.6L87.2 87.1C85.7 86.2 84.4 84.2 84.2 82.4L83.1 72.8C81.6 71.1 80.1 69.3 78.7 67.3L71.4 66.5C71 66.4 70.7 66.3 70.3 66.1C69.2 65.5 68.2 64.2 67.6 62.8L61.2 46.2C60.5 44.3 60.8 42.6 62 42.2L68.2 40.2C68 38.1 68 36.2 68.2 34.3L62 25.1C60.8 23.3 60.5 21.2 61.3 20.2L68 11C68.5 10.2 69.6 10.1 70.6 10.8C71 11 71.3 11.3 71.7 11.7L79 19.3C80.4 19 81.9 18.8 83.4 18.9L84.6 10.6C84.8 9.00001 86.1 8.50001 87.6 9.40001L100.6 16.9C102.1 17.8 103.4 19.8 103.6 21.6L104.7 31.2C106.2 32.9 107.7 34.7 109.1 36.7L116.4 37.5C116.8 37.6 117.1 37.7 117.5 37.9C118.6 38.5 119.6 39.8 120.2 41.2L126.6 57.8C127.3 59.7 127 61.4 125.9 61.8L119.7 63.8C119.9 65.9 119.9 67.8 119.7 69.7L125.7 78.9ZM93.9 68.2C101.7 72.7 108 69.1 108.1 60.1C108.1 51.2 101.8 40.3 94 35.8C86.2 31.3 79.9 34.9 79.9 43.9C79.8 52.8 86.1 63.7 93.9 68.2Z" fill="#FB7070"/>
<path d="M31.8988 93.2L5.89883 78.2C5.19883 77.8 4.39883 78.3 4.39883 79.1L4.29883 102.8C4.29883 104.2 5.09883 105.6 6.29883 106.3L31.7988 121C33.0988 121.7 34.5988 121.7 35.7988 121L61.0988 106.3C62.2988 105.6 63.0988 104.3 63.0988 102.8L63.1988 79C63.1988 78.2 62.3988 77.7 61.6988 78.1L35.8988 93.1C34.5988 93.9 33.0988 93.9 31.8988 93.2Z" fill="#FB7070"/>
<path d="M61.7 78.2001L35.9 93.2001C34.7 93.9001 33.1 93.9001 31.9 93.2001L5.9 78.2001C5.2 77.8001 5.2 76.8001 5.9 76.5001L31.7 61.5001C32.9 60.8001 34.5 60.8001 35.7 61.5001L61.7 76.5001C62.4 76.8001 62.4 77.8001 61.7 78.2001Z" fill="#FEE2E2"/>
<path d="M61.0992 106.2C62.2992 105.5 63.0992 104.2 63.0992 102.7L63.1992 79.6C63.1992 78.2 62.3992 76.8 61.1992 76.1L35.6992 61.4C34.3992 60.7 32.8992 60.7 31.6992 61.4L6.29922 76.1C5.09922 76.8 4.29922 78.1 4.29922 79.6L4.19922 102.7C4.19922 104.1 4.99922 105.5 6.19922 106.2" stroke="#171A21" stroke-width="2" stroke-miterlimit="10" stroke-linecap="round" stroke-linejoin="round"/>
<path d="M14.2988 71.5L43.8988 88.5L54.1988 82.5L24.6988 65.5L14.2988 71.5Z" fill="white" stroke="#171A21" stroke-width="2" stroke-miterlimit="10" stroke-linecap="round" stroke-linejoin="round"/>
<path d="M70.4992 118.6L96.4992 103.6C97.1992 103.2 97.9992 103.7 97.9992 104.5L98.0992 124.1C98.0992 125.5 97.2992 126.9 96.0992 127.6L70.5992 142.3C69.2992 143 67.7992 143 66.5992 142.3L41.2992 127.6C40.0992 126.9 39.2992 125.6 39.2992 124.1L39.1992 104.5C39.1992 103.7 39.9992 103.2 40.6992 103.6L66.4992 118.6C67.6992 119.3 69.1992 119.3 70.4992 118.6Z" fill="#FB7070"/>
<path d="M40.5992 103.6L66.3992 118.6C67.5992 119.3 69.1992 119.3 70.3992 118.6L96.3992 103.6C97.0992 103.2 97.0992 102.2 96.3992 101.9L70.5992 86.9C69.3992 86.2 67.7992 86.2 66.5992 86.9L40.5992 101.9C39.8992 102.2 39.8992 103.2 40.5992 103.6Z" fill="#FEE2E2"/>
<path d="M41.1996 127.6C39.9996 126.9 39.1996 125.6 39.1996 124.1L39.0996 105.1C39.0996 103.7 39.8996 102.3 41.0996 101.6L66.5996 86.9C67.8996 86.2 69.3996 86.2 70.5996 86.9L95.9996 101.6C97.1996 102.3 97.9996 103.6 97.9996 105.1L98.0996 124.1C98.0996 125.5 97.2996 126.9 96.0996 127.6" stroke="#171A21" stroke-width="2" stroke-miterlimit="10" stroke-linecap="round" stroke-linejoin="round"/>
<path d="M87.9996 96.8999L58.4996 114L48.0996 108L77.5996 90.8999L87.9996 96.8999Z" fill="white" stroke="#171A21" stroke-width="2" stroke-miterlimit="10" stroke-linecap="round" stroke-linejoin="round"/>
</svg>
