<svg width="144" height="144" viewBox="0 0 144 144" fill="none" xmlns="http://www.w3.org/2000/svg">
<path d="M104.341 39.361C97.9921 35.7013 90.8967 33.2365 83.7266 31.8921C76.5564 30.5477 69.2369 29.8009 61.9921 30.1743C48.2494 30.8465 33.6851 33.9834 22.4817 42.498C16.432 47.1287 11.2784 53.776 11.3531 61.693L11.2037 111.062C11.1291 101.876 17.851 94.5561 25.1705 89.8507C32.6394 85.0706 41.378 82.2324 50.1166 80.7386C59.378 79.1702 68.9382 79.0955 78.2743 80.2905C87.3863 81.4855 96.4983 84.1743 104.49 88.805C111.585 92.9129 115.917 88.7303 117.486 97.1702C117.71 98.2905 117.785 99.4108 117.785 100.531L120.473 61.693C120.399 53.0291 114.2 45.1121 104.341 39.361C114.2 45.1121 103.668 39.0623 104.341 39.361Z" fill="#FB7070"/>
<path d="M131.899 41.527C131.899 41.3777 131.899 41.303 131.899 41.1536V41.0789V41.0042C131.899 40.9295 131.899 40.8548 131.899 40.7801C131.899 40.6308 131.899 40.5561 131.825 40.4067C131.825 40.332 131.825 40.2573 131.75 40.1079C131.75 40.1079 131.75 40.1079 131.75 40.0333V39.9586C131.75 39.8092 131.675 39.7345 131.675 39.5851C131.675 39.4357 131.601 39.2864 131.601 39.2117C131.601 39.2117 131.601 39.2117 131.601 39.137V39.0623C131.601 38.9876 131.526 38.8382 131.526 38.7635C131.526 38.6142 131.451 38.4648 131.451 38.3901C131.451 38.3154 131.451 38.2407 131.377 38.2407V38.166C131.377 38.0913 131.377 38.0913 131.302 38.0167C131.227 37.8673 131.227 37.7179 131.153 37.6432C131.078 37.4938 131.078 37.4191 131.003 37.2698C130.928 37.1204 130.928 37.0457 130.854 36.8963C130.779 36.7469 130.779 36.6723 130.704 36.5229C130.704 36.4482 130.63 36.3735 130.63 36.3735V36.2988C130.63 36.2241 130.63 36.2241 130.555 36.1494C130.48 36.0001 130.48 35.9254 130.406 35.776C130.331 35.6266 130.256 35.5519 130.182 35.4026C130.182 35.4026 130.182 35.4025 130.182 35.3279C130.107 35.1785 130.032 35.1038 129.958 34.9544C129.883 34.805 129.733 34.581 129.659 34.4316L112.779 5.15359C112.779 5.0789 112.704 5.0789 112.704 5.00421C112.63 4.85483 112.48 4.63077 112.406 4.48139V4.4067C112.331 4.25732 112.256 4.18263 112.107 4.03326C112.107 4.03326 112.107 4.03326 112.107 3.95857C112.032 3.88388 112.032 3.80919 111.958 3.7345C111.883 3.65981 111.808 3.58512 111.808 3.51043C111.808 3.51043 111.808 3.51043 111.733 3.43575C111.733 3.43575 111.733 3.43575 111.733 3.36106C111.733 3.28637 111.659 3.28637 111.659 3.21168C111.584 3.13699 111.509 3.0623 111.435 2.98761L111.36 2.91292C111.36 2.91292 111.36 2.91292 111.285 2.83823L111.211 2.76355C111.136 2.68886 111.061 2.61417 110.987 2.53948C110.912 2.46479 110.912 2.46479 110.837 2.3901C110.837 2.3901 110.837 2.3901 110.762 2.31541C110.762 2.31541 110.762 2.31541 110.688 2.24072C110.613 2.16604 110.538 2.09135 110.464 2.01666C110.389 1.94197 110.389 1.94197 110.314 1.86728C110.24 1.79259 110.165 1.79259 110.09 1.7179C110.016 1.64321 109.941 1.64321 109.866 1.56852C109.792 1.49384 109.717 1.49384 109.642 1.41915C109.567 1.34446 109.493 1.34446 109.418 1.26977C109.418 1.26977 109.418 1.26977 109.343 1.26977C109.269 1.26977 109.269 1.19508 109.194 1.19508C109.119 1.19508 109.045 1.12039 108.97 1.12039C108.97 1.12039 108.895 1.12039 108.895 1.0457C108.895 1.0457 108.895 1.0457 108.821 1.0457H108.746C108.671 1.0457 108.597 0.971015 108.522 0.971015C108.447 0.971015 108.372 0.896326 108.372 0.896326C108.298 0.896326 108.223 0.821637 108.148 0.821637C108.074 0.821637 107.999 0.746948 107.924 0.746948C107.85 0.746948 107.85 0.746948 107.775 0.746948C107.7 0.746948 107.626 0.746948 107.551 0.746948C107.551 0.746948 107.551 0.746948 107.476 0.746948C107.476 0.746948 107.476 0.746948 107.401 0.746948C107.327 0.746948 107.327 0.746948 107.252 0.746948C107.177 0.746948 107.103 0.746948 107.028 0.746948C107.028 0.746948 107.028 0.746948 106.953 0.746948H106.879C106.804 0.746948 106.804 0.746948 106.729 0.746948C106.655 0.746948 106.58 0.746948 106.58 0.746948H106.505C106.356 0.746948 106.281 0.821637 106.206 0.821637C106.057 0.896326 105.982 0.896326 105.833 0.971015L94.7044 7.46894L75.8828 18.3735L92.9866 8.73865C93.1359 8.66396 93.2106 8.58927 93.36 8.58927C93.5094 8.51458 93.5841 8.51458 93.7334 8.51458H93.8081C93.8828 8.51458 94.0322 8.51458 94.1069 8.51458H94.1816C94.3309 8.51458 94.4056 8.51458 94.555 8.51458C94.555 8.51458 94.555 8.51458 94.6297 8.51458C94.7791 8.51458 94.9285 8.58927 95.0031 8.58927C95.1525 8.58927 95.3019 8.66396 95.4513 8.73865C95.6007 8.81334 95.75 8.81334 95.8994 8.88803C95.8994 8.88803 95.8994 8.88803 95.9741 8.88803C96.1235 8.96272 96.2729 9.03741 96.4222 9.11209C96.5716 9.18678 96.721 9.26147 96.8704 9.41085C97.0197 9.48554 97.1691 9.63492 97.3185 9.7096C97.4679 9.78429 97.6173 9.93367 97.6919 10.083C97.6919 10.083 97.6919 10.083 97.7666 10.1577C97.916 10.3071 98.0654 10.3818 98.1401 10.5312C98.1401 10.5312 98.1401 10.5312 98.2148 10.6059C98.3641 10.7552 98.4388 10.9046 98.5882 11.054C98.5882 11.054 98.5882 11.054 98.5882 11.1287C98.7376 11.2781 98.8123 11.4274 98.9617 11.5768C98.9617 11.5768 98.9617 11.5768 98.9617 11.6515C99.111 11.8009 99.1857 11.9503 99.2604 12.0996C99.3351 12.249 99.4845 12.3984 99.5592 12.6225C99.5592 12.6972 99.6339 12.6972 99.6339 12.7718L102.099 17.0291L92.2397 22.7801C92.0903 22.8548 91.9409 23.0042 91.7915 23.1536C91.7168 23.1536 91.7168 23.2283 91.6422 23.2283C91.4928 23.3777 91.4181 23.527 91.2687 23.6764C91.2687 23.6764 91.2687 23.6764 91.2687 23.7511C91.2687 23.7511 91.194 23.8258 91.194 23.9005C91.1193 23.9752 91.1193 24.0499 91.0446 24.1245V24.1992C91.0446 24.1992 91.0446 24.2739 90.97 24.2739C90.97 24.3486 90.8953 24.3486 90.8953 24.4233C90.8953 24.498 90.8206 24.5727 90.8206 24.6474C90.8206 24.6474 90.8206 24.6474 90.8206 24.7221C90.8206 24.7967 90.7459 24.9461 90.7459 25.0208C90.7459 25.0955 90.7459 25.0955 90.7459 25.1702V25.2449C90.7459 25.2449 90.7459 25.2449 90.7459 25.3196C90.7459 25.3943 90.7459 25.4689 90.6712 25.6183C90.6712 25.693 90.6712 25.7677 90.6712 25.8424C90.6712 25.8424 90.6712 25.8424 90.6712 25.9171C90.6712 25.9918 90.6712 26.0665 90.6712 26.2158C90.6712 26.2905 90.6712 26.3652 90.6712 26.5146C90.6712 26.5893 90.6712 26.664 90.6712 26.7386C90.6712 26.8133 90.6712 26.888 90.6712 27.0374V27.1121V27.1868C90.6712 27.2615 90.6712 27.2615 90.6712 27.3362C90.6712 27.4108 90.6712 27.4855 90.6712 27.6349C90.6712 27.7096 90.6712 27.7843 90.6712 27.859C90.6712 27.859 90.6712 27.859 90.6712 27.9337C90.6712 27.9337 90.6712 27.9337 90.6712 28.0084C90.6712 28.083 90.6712 28.2324 90.7459 28.3071C90.7459 28.3818 90.8206 28.5312 90.8206 28.6059C90.8206 28.6806 90.8206 28.7552 90.8953 28.8299C90.8953 28.9046 90.97 29.054 90.97 29.1287V29.2034V29.2781C90.97 29.3528 90.97 29.3528 91.0446 29.4274C91.0446 29.5021 91.1193 29.6515 91.1193 29.7262C91.1193 29.8009 91.194 29.8756 91.194 29.9503C91.194 30.025 91.2687 30.0996 91.2687 30.249C91.2687 30.3237 91.3434 30.3984 91.3434 30.5478C91.3434 30.5478 91.3434 30.6225 91.4181 30.6225C91.4181 30.6225 91.4181 30.6225 91.4181 30.6972C91.4181 30.6972 91.4181 30.7718 91.4928 30.7718C91.5675 30.8465 91.5675 30.9212 91.6422 31.0706C91.7168 31.1453 91.7168 31.2947 91.7915 31.3694C91.8662 31.444 91.8662 31.5934 91.9409 31.6681C92.0156 31.8175 92.0903 31.8922 92.165 32.0416C92.165 32.0416 92.165 32.1162 92.2397 32.1162C92.2397 32.1909 92.3144 32.2656 92.389 32.2656C92.4637 32.415 92.6131 32.6391 92.6878 32.7884C92.6878 32.7884 92.6878 32.8631 92.7625 32.8631C92.8372 33.0125 92.9866 33.1619 93.0612 33.3113C93.0612 33.3113 93.0612 33.3113 93.1359 33.386C93.2106 33.4606 93.2853 33.5353 93.2853 33.61C93.36 33.6847 93.4347 33.7594 93.5094 33.9088C93.5094 33.9088 93.5094 33.9835 93.5841 33.9835C93.5841 33.9835 93.5841 33.9835 93.6588 34.0582C93.7334 34.1328 93.7334 34.1328 93.8081 34.2075C93.8828 34.2822 93.9575 34.3569 94.0322 34.4316C94.0322 34.5063 94.1069 34.5063 94.1069 34.5063C94.1069 34.5063 94.1069 34.5063 94.1816 34.581L94.2563 34.6557C94.3309 34.7304 94.4056 34.805 94.4803 34.8797C94.555 34.9544 94.555 34.9544 94.6297 35.0291C94.6297 35.0291 94.6297 35.0291 94.7044 35.1038C94.7044 35.1038 94.7044 35.1038 94.7791 35.1785C94.8538 35.2532 94.9285 35.3279 95.0031 35.4026C95.0778 35.4772 95.1525 35.4772 95.1525 35.5519C95.1525 35.5519 95.1525 35.5519 95.2272 35.5519C95.3019 35.6266 95.3766 35.7013 95.4513 35.776C95.526 35.8507 95.6007 35.8507 95.6754 35.9254C95.75 36.0001 95.8247 36.0001 95.8994 36.0747C95.9741 36.1494 96.0488 36.1494 96.1235 36.2241C96.1235 36.2241 96.1235 36.2241 96.1982 36.2241C96.2729 36.2241 96.3475 36.2988 96.3475 36.2988C96.4222 36.3735 96.4969 36.3735 96.5716 36.4482C96.5716 36.4482 96.6463 36.4482 96.6463 36.5229C96.6463 36.5229 96.6463 36.5229 96.721 36.5229H96.7957C96.8704 36.5229 96.9451 36.5976 97.0197 36.5976C97.0944 36.5976 97.1691 36.6723 97.2438 36.6723C97.3185 36.6723 97.3932 36.7469 97.4679 36.7469C97.5426 36.7469 97.6173 36.8216 97.6919 36.8216C97.6919 36.8216 97.6919 36.8216 97.7666 36.8216C97.7666 36.8216 97.7666 36.8216 97.8413 36.8216C97.916 36.8216 97.916 36.8216 97.9907 36.8216C98.0654 36.8216 98.1401 36.8216 98.2148 36.8963H98.2895H98.3641C98.4388 36.8963 98.4388 36.8963 98.5135 36.8963C98.5882 36.8963 98.6629 36.8963 98.8123 36.8963C98.8123 36.8963 98.8123 36.8963 98.887 36.8963H98.9617C99.0363 36.8963 99.0363 36.8963 99.111 36.8963C99.1857 36.8963 99.2604 36.8963 99.3351 36.8963H99.4098C99.5592 36.8963 99.6339 36.8216 99.7832 36.8216C99.9326 36.7469 100.082 36.6723 100.231 36.5976L110.09 30.8465L116.738 42.2739C116.887 42.5727 117.111 42.8714 117.26 43.1702C117.26 43.1702 117.26 43.1702 117.26 43.2449C117.41 43.5436 117.559 43.8424 117.709 44.1411V44.2158C117.858 44.5146 117.933 44.8133 118.082 45.1121C118.157 45.4109 118.306 45.7096 118.381 46.0084V46.083C118.455 46.3818 118.53 46.6806 118.605 46.9793V47.054C118.68 47.3528 118.754 47.6515 118.754 47.9503C118.754 47.9503 118.754 47.9503 118.754 48.025C118.829 48.3237 118.829 48.6225 118.829 48.8465V48.9212C118.829 49.22 118.829 49.5187 118.829 49.7428L118.231 99.4855C118.231 99.7843 118.231 100.008 118.157 100.307V100.382C118.157 100.606 118.082 100.83 118.082 101.054V101.129C118.007 101.353 118.007 101.577 117.933 101.726C117.933 101.801 117.933 101.801 117.858 101.876C117.783 102.1 117.709 102.249 117.634 102.473C117.559 102.622 117.484 102.847 117.335 102.996C117.335 103.071 117.26 103.071 117.26 103.071C117.186 103.22 117.111 103.295 117.036 103.444C116.962 103.519 116.962 103.519 116.887 103.593C116.812 103.668 116.738 103.743 116.588 103.892C116.514 103.892 116.514 103.967 116.439 103.967C116.289 104.042 116.14 104.191 115.991 104.266L128.987 96.7221C129.136 96.6474 129.285 96.498 129.435 96.4233C129.509 96.4233 129.509 96.3486 129.584 96.3486C129.659 96.2739 129.808 96.1992 129.883 96.0499C129.958 95.9752 129.958 95.9752 130.032 95.9005C130.107 95.8258 130.182 95.6764 130.256 95.527L130.331 95.4523C130.406 95.303 130.48 95.1536 130.555 95.0042C130.63 94.8548 130.704 94.7055 130.704 94.5561C130.704 94.4814 130.704 94.4814 130.779 94.4067C130.779 94.332 130.779 94.332 130.854 94.2573C130.854 94.1826 130.854 94.1826 130.928 94.1079C130.928 93.9586 131.003 93.8839 131.003 93.7345V93.6598V93.5851C131.003 93.5104 131.003 93.4357 131.078 93.3611C131.078 93.2117 131.153 93.137 131.153 92.9876C131.153 92.9129 131.153 92.9129 131.153 92.8382V92.7635C131.153 92.6889 131.153 92.6889 131.153 92.6142C131.153 92.4648 131.153 92.3901 131.153 92.2407C131.153 92.166 131.153 92.0167 131.153 91.942L131.75 42.1992V42.1245C131.899 41.8258 131.899 41.6764 131.899 41.527Z" fill="#FB7070"/>
<path d="M116.738 42.0498C118.157 44.5146 118.978 47.2781 118.978 49.5934L118.381 99.3361C118.306 104.042 114.945 105.909 110.837 103.593L81.4844 86.639C79.3931 85.444 77.5259 83.3527 76.1815 81.0374C74.8371 78.722 74.0156 76.1079 74.0156 73.7179L73.7168 23.4523C73.7168 21.137 74.5384 19.3444 75.9575 18.5229L93.0612 8.88801C94.0322 8.36519 95.2272 8.51457 96.4969 9.26146C97.6919 10.0083 98.9616 11.2034 99.8579 12.8465L116.738 42.0498ZM100.231 36.3735C102.397 35.1038 102.397 31.0706 100.231 27.3361C99.1857 25.4689 97.6919 23.9751 96.2728 23.1536C94.8537 22.332 93.4346 22.1079 92.3143 22.7801C90.1483 24.0498 90.1483 28.083 92.3143 31.8175C93.4346 33.6847 94.8537 35.1785 96.2728 36C97.6919 36.7469 99.1857 36.971 100.231 36.3735Z" fill="white"/>
<path d="M118.381 99.3361C118.306 104.042 114.945 105.909 110.838 103.593L81.4849 86.639C79.3936 85.444 77.5264 83.3527 76.182 81.0374C74.8376 78.722 74.016 76.1079 74.016 73.7179M73.7173 32.415L73.6426 23.3776C73.6426 21.0623 74.4642 19.2697 75.8832 18.4482L92.987 8.8133C93.9579 8.29048 95.153 8.43986 96.4227 9.18675C97.6177 9.93364 98.8874 11.1287 99.7837 12.7718" stroke="#171A21" stroke-width="2" stroke-miterlimit="10" stroke-linecap="round" stroke-linejoin="round"/>
<path d="M95.3774 52.2822C96.0496 52.6557 96.7965 53.4773 97.0953 54.5229L99.56 61.8424C99.8588 62.664 100.382 63.4109 101.054 63.9337L106.655 68.1163C108.224 69.3113 108.896 71.9254 107.701 72.5229L103.593 74.7636C103.145 74.9876 102.921 75.6598 102.996 76.4067L103.967 83.4275C104.191 84.9959 103.145 85.5935 102.025 84.9213C101.726 84.7719 101.427 84.4731 101.128 84.0997L96.1243 78.1246C95.8256 77.7511 95.5268 77.5271 95.2281 77.3777C94.9293 77.2283 94.6306 77.0789 94.3318 77.0789L89.253 77.2283C88.9542 77.2283 88.6555 77.1536 88.3567 76.9296C87.2364 76.2574 86.1907 74.5395 86.4148 73.1951L87.3857 67.2947C87.4604 66.6225 87.3111 65.8009 86.8629 64.9793L82.8297 58.0333C81.7094 56.0914 82.3069 54.2242 83.9501 54.8217L89.5517 57.137C90.1492 57.4358 90.7467 57.2864 91.0455 56.7636L93.5849 52.3569C93.9584 51.9088 94.6306 51.9088 95.3774 52.2822Z" fill="#FB7070"/>
<path d="M63.4111 93.2864C53.9256 93.0623 44.2907 91.4192 35.4028 87.9088C27.5604 84.7719 19.5687 80.1411 14.8633 72.8963C12.6974 69.61 11.353 65.7262 11.2783 61.7677L11.1289 111.137C11.2036 119.203 16.5065 125.925 22.631 130.481C30.4733 136.307 40.1082 139.593 49.5936 141.311C54.075 142.133 58.5563 142.581 63.1123 142.73C64.6061 142.805 65.8011 141.61 65.8011 140.116L65.9505 96.0499C66.0252 94.4814 64.9048 93.3611 63.4111 93.2864C63.4857 93.2864 63.4111 93.2864 63.4111 93.2864Z" fill="#FEE2E2"/>
<path d="M11.2783 61.7677L11.1289 111.137C11.2036 119.203 16.5065 125.925 22.631 130.481C30.4733 136.307 40.1082 139.593 49.5936 141.311C54.075 142.133 58.5563 142.581 63.1123 142.73C64.6061 142.805 65.8011 141.61 65.8011 140.116L65.9505 96.0499C65.9505 94.6308 64.8302 93.4358 63.4111 93.4358C53.9256 93.2117 44.2907 91.5685 35.4028 88.0582C33.4609 87.3113 31.4443 86.415 29.5024 85.4441" stroke="#171A21" stroke-width="2" stroke-miterlimit="10" stroke-linecap="round" stroke-linejoin="round"/>
</svg>
