<svg width="144" height="144" viewBox="0 0 144 144" fill="none" xmlns="http://www.w3.org/2000/svg">
<path d="M69.3 36.7C69.3 36.5 69.3 36.2999 69.3 36.0999C69.3 36 69.3 35.8999 69.3 35.7999C69.3 35.5999 69.3 35.4 69.4 35.2C69.4 35.1 69.4 35 69.4 34.9C69.4 34.8 69.4 34.5999 69.5 34.5C69.5 34.2999 69.6 34.1 69.6 33.9C69.6 33.8 69.6 33.6 69.7 33.5C69.7 33.2999 69.8 33.1 69.8 32.9C69.8 32.7 69.9 32.6 69.9 32.4C69.9 32.3 70 32.1 70 32C70 31.7999 70.1 31.7 70.1 31.5C70.1 31.4 70.2 31.3 70.2 31.1C70.2 31 70.3 30.9 70.3 30.7999C70.4 30.4 70.5 30 70.7 29.6V29.5C70.8 29.1 71 28.6999 71.1 28.2999C71.1 28.1999 71.2 28.1 71.2 28C71.3 27.7 71.5 27.2999 71.6 27C71.6 26.9 71.6 26.9 71.7 26.7999C71.9 26.4 72 26.1 72.2 25.7C72.2 25.6 72.3 25.5 72.3 25.4C72.4 25.1 72.6 24.7999 72.7 24.5C72.7 24.4 72.8 24.3 72.8 24.2C73 23.8 73.2 23.5 73.4 23.1C73.4 23 73.5 23 73.5 22.9C73.7 22.6 73.9 22.2999 74.1 22C74.2 21.9 74.2 21.8 74.3 21.7C74.5 21.3 74.8 21 75 20.6C75 20.5 75.1 20.5 75.1 20.4C75.4 20 75.6 19.6999 75.9 19.2999L76 19.2C76.3 18.8 76.7 18.2999 77.1 17.9C77.1 17.7999 77.2 17.8 77.2 17.7C77.4 17.4 77.6 17.2 77.9 16.9C78.1 16.6 78.4 16.4 78.6 16.1C78.8 15.9 78.9 15.8 79.1 15.6L79.2 15.5C79.4 15.3 79.6 15.1 79.8 14.9C79.9 14.8 79.9 14.8 80 14.8C80.2 14.7 80.3 14.5 80.5 14.4C80.6 14.3 80.7 14.3 80.7 14.2C80.8 14.1 81 14 81.1 13.9C81.2 13.8 81.3 13.8 81.4 13.7C81.5 13.6 81.7 13.5 81.8 13.4C81.9 13.3 82 13.3 82.1 13.2C82.3 13.1 82.4 13 82.6 12.9C82.7 12.9 82.7 12.8 82.8 12.8C83 12.7 83.3 12.5 83.5 12.4C83.8 12.2 84.1 12.1 84.4 11.9C84.5 11.9 84.6 11.8 84.7 11.8C84.9 11.7 85.2 11.6 85.4 11.5C85.5 11.5 85.6 11.4 85.6 11.4C85.8 11.3 86 11.2 86.2 11.2C86.3 11.2 86.3 11.2 86.4 11.1C86.7 11 86.9 10.9 87.2 10.9C87.4 10.9 87.5 10.8 87.6 10.8C87.7 10.8 87.7 10.8 87.8 10.7C88 10.7 88.2 10.6 88.5 10.6C88.7 10.6 88.9 10.5 89.1 10.5C89.2 10.5 89.2 10.5 89.3 10.5C89.4 10.5 89.6 10.5 89.7 10.5C89.8 10.5 89.8 10.5 89.9 10.5C90 10.5 90.2 10.5 90.3 10.5H90.4C90.5 10.5 90.5 10.5 90.6 10.5C90.8 10.5 91 10.5 91.3 10.6C91.4 10.6 91.4 10.6 91.5 10.6C91.7 10.6 92 10.7 92.2 10.8C92.4 10.9 92.6 10.9 92.8 11C92.9 11 92.9 11.1 93 11.1C93.2 11.2 93.4 11.3 93.5 11.4C93.6 11.4 93.6 11.5 93.7 11.5L77.7 2.49995H77.6H77.5C77.3 2.39995 77.1 2.29995 77 2.19995H76.9H76.8C76.6 2.09995 76.4 1.99995 76.2 1.99995C76 1.89995 75.7 1.89995 75.5 1.79995H75.4H75.3C75.1 1.79995 74.9 1.69995 74.6 1.69995H74.5C74.5 1.69995 74.5 1.69995 74.4 1.69995H74.3C74.2 1.69995 74 1.69995 73.9 1.69995C73.8 1.69995 73.8 1.69995 73.7 1.69995H73.6C73.5 1.69995 73.4 1.69995 73.3 1.69995C73.2 1.69995 73.2 1.69995 73.1 1.69995C72.9 1.69995 72.7 1.69995 72.5 1.79995C72.3 1.79995 72.1 1.89995 71.9 1.89995C71.8 1.89995 71.8 1.89995 71.7 1.99995C71.6 1.99995 71.4 2.09995 71.3 2.09995C70.9 1.99995 70.6 1.99995 70.3 2.09995C70.2 2.09995 70.2 2.09995 70.1 2.19995C69.9 2.29995 69.7 2.39995 69.5 2.39995H69.4C69.3 2.39995 69.3 2.39995 69.2 2.49995C69 2.59995 68.7 2.69995 68.5 2.79995C68.4 2.79995 68.3 2.89995 68.2 2.89995C67.9 3.09995 67.6 3.19995 67.3 3.39995C67.1 3.49995 66.8 3.69995 66.6 3.79995C66.5 3.79995 66.5 3.89995 66.4 3.89995C66.2 3.99995 66.1 4.09995 65.9 4.19995C65.8 4.29995 65.7 4.29995 65.6 4.39995C65.5 4.49995 65.3 4.59995 65.2 4.69995C65.3 4.89995 65.2 4.99995 65.1 4.99995C65 5.09995 64.8 5.19995 64.7 5.29995C64.6 5.39995 64.5 5.39995 64.5 5.49995C64.3 5.69995 64.1 5.79995 64 5.99995C63.9 5.99995 63.9 6.09995 63.8 6.09995C63.6 6.29995 63.4 6.49995 63.2 6.69995L63.1 6.79995C63 6.89995 62.8 7.09995 62.7 7.19995C62.7 7.19995 62.7 7.19995 62.6 7.29995C62.4 7.49995 62.1 7.79995 61.9 8.09995C61.7 8.29995 61.4 8.59995 61.2 8.89995C61.2 8.89995 61.2 8.89995 61.1 8.99995C61 8.89995 61 8.89995 61 8.99995C60.6 9.39995 60.3 9.79995 59.9 10.3L59.8 10.4C59.5 10.8 59.3 11.1 59 11.5L58.9 11.6C58.9 11.6 58.9 11.6 58.9 11.7C58.7 12.1 58.4 12.4 58.2 12.8C58.2 12.8 58.2 12.9 58.1 12.9C58 12.9 58 13 58 13C57.8 13.3 57.6 13.6 57.4 13.9L57.3 14C57.3 14 57.3 14 57.3 14.1C57.1 14.5 56.9 14.8 56.7 15.2V15.3C56.7 15.4 56.6 15.4 56.6 15.5C56.4 15.8 56.3 16.1 56.2 16.4C56.2 16.5 56.1 16.5 56.1 16.6V16.7C55.9 17.1 55.8 17.4 55.6 17.7999V17.9C55.5 18.1999 55.3 18.6 55.2 18.9C55.2 19 55.2 19 55.1 19.1V19.2C54.9 19.6 54.8 20 54.7 20.4C54.7 20.4 54.7 20.4 54.7 20.5C54.6 20.9 54.4 21.3 54.3 21.7C54.3 21.8 54.3 21.7999 54.3 21.9V22C54.3 22.1 54.2 22.1999 54.2 22.4C54.2 22.6 54.1 22.6999 54.1 22.9C54.1 23 54 23.1999 54 23.2999C54 23.4 54 23.5 53.9 23.6C53.9 23.7 53.9 23.6999 53.9 23.7999C53.9 24 53.8 24.1999 53.8 24.4C53.8 24.5 53.8 24.6999 53.7 24.7999C53.7 25 53.6 25.1999 53.6 25.4C53.6 25.5 53.6 25.6 53.6 25.7V25.7999C53.6 25.9 53.6 26 53.6 26.1C53.6 26.3 53.6 26.5 53.5 26.7C53.5 26.8 53.5 26.9 53.5 27C53.5 27.2 53.5 27.4 53.5 27.6C53.5 27.7 53.5 27.7999 53.5 27.7999C53.5 28.0999 53.5 28.3 53.5 28.6C53.5 33.1 55.1 36.2999 57.7 37.7999L73.5 47C70.9 45.5 69.3 42.2999 69.3 37.7999C69.3 37.5 69.3 37.2999 69.3 37C69.3 36.9 69.3 36.7999 69.3 36.7Z" fill="#FB7070"/>
<path d="M83.7008 12.9C91.7008 8.29999 98.1008 12 98.2008 21.1C98.2008 30.2 91.8008 41.4 83.8008 46C75.8008 50.6 69.4008 46.9 69.3008 37.8C69.3008 28.6 75.7008 17.5 83.7008 12.9Z" fill="#FEE2E2"/>
<path d="M83.7008 12.9C91.7008 8.29999 98.1008 12 98.2008 21.1C98.2008 30.2 91.8008 41.4 83.8008 46C75.8008 50.6 69.4008 46.9 69.3008 37.8" stroke="#171A21" stroke-width="2" stroke-miterlimit="10" stroke-linecap="round" stroke-linejoin="round"/>
<path d="M127.7 45.5999C127.9 45.4999 128 45.4999 128.2 45.3999C128.3 45.3999 128.4 45.2999 128.5 45.2999C128.6 45.2999 128.7 45.2999 128.8 45.1999C128.9 45.1999 129 45.1999 129.1 45.0999C129.2 45.0999 129.2 45.0999 129.3 45.0999C129.4 45.0999 129.6 45.0999 129.7 45.0999H129.8C130 45.0999 130.1 45.0999 130.3 45.1999H130.4C130.5 45.1999 130.6 45.2999 130.8 45.2999H130.9C131 45.3999 131.2 45.3999 131.3 45.4999L90.0996 21.6999C89.9996 21.5999 89.8996 21.5999 89.7996 21.4999C89.7996 21.4999 89.7996 21.4999 89.6996 21.4999H89.5996C89.4996 21.4999 89.4996 21.4999 89.3996 21.3999C89.2996 21.3999 89.2996 21.3999 89.1996 21.3999H89.0996C89.0996 21.3999 89.0996 21.3999 88.9996 21.3999C88.8996 21.3999 88.6996 21.3999 88.5996 21.3999H88.4996C88.3996 21.3999 88.2996 21.3999 88.1996 21.3999H88.0996C87.9996 21.3999 87.9996 21.3999 87.8996 21.3999C87.7996 21.3999 87.7996 21.3999 87.6996 21.3999C87.5996 21.3999 87.5996 21.3999 87.4996 21.3999C87.3996 21.3999 87.2996 21.3999 87.1996 21.4999H87.0996C87.0996 21.4999 86.9996 21.4999 86.9996 21.5999C86.7996 21.5999 86.6996 21.6999 86.4996 21.7999C86.3996 21.7999 86.3996 21.7999 86.2996 21.8999C86.1996 21.8999 86.1996 21.9999 86.0996 21.9999C85.9996 21.9999 85.9996 21.9999 85.8996 22.0999C85.6996 22.1999 85.4996 22.2999 85.2996 22.3999C85.0996 22.4999 84.8996 22.6999 84.6996 22.7999C84.5996 22.7999 84.5996 22.8999 84.4996 22.8999C84.3996 22.9999 84.1996 23.0999 84.0996 23.1999C83.9996 23.2999 83.8996 23.2999 83.8996 23.3999C83.7996 23.4999 83.6996 23.5999 83.4996 23.6999C83.3996 23.7999 83.3996 23.7999 83.2996 23.8999L83.1996 23.9999L83.0996 24.0999C82.9996 24.2999 82.7996 24.3999 82.6996 24.5999C82.6996 24.6999 82.5996 24.6999 82.5996 24.6999L82.4996 24.7999C82.3996 24.8999 82.2996 24.9999 82.1996 25.0999C82.0996 25.1999 82.0996 25.1999 81.9996 25.2999C81.9996 25.3999 81.8996 25.3999 81.8996 25.4999C81.7996 25.5999 81.7996 25.6999 81.6996 25.6999C81.6996 25.7999 81.5996 25.7999 81.5996 25.8999C81.4996 25.9999 81.4996 26.0999 81.3996 26.1999C81.3996 26.2999 81.2996 26.2999 81.2996 26.3999C81.2996 26.3999 81.2996 26.4999 81.1996 26.4999C81.0996 26.6999 80.9996 26.8999 80.8996 27.0999C80.8996 27.0999 80.8996 27.1999 80.7996 27.1999C80.6996 27.2999 80.5996 27.4999 80.5996 27.5999C80.5996 27.6999 80.4996 27.6999 80.4996 27.7999C80.4996 27.8999 80.3996 27.8999 80.3996 27.9999C80.3996 28.0999 80.2996 28.0999 80.2996 28.1999C80.1996 28.3999 80.1996 28.4999 80.0996 28.6999V28.7999C79.9996 28.9999 79.8996 29.1999 79.8996 29.3999V29.4999C79.8996 29.5999 79.7996 29.5999 79.7996 29.6999C79.7996 29.7999 79.6996 29.8999 79.6996 29.9999C79.6996 30.0999 79.6996 30.1999 79.5996 30.1999C79.5996 30.2999 79.4996 30.3999 79.4996 30.4999C79.4996 30.5999 79.4996 30.5999 79.3996 30.6999C79.3996 30.7999 79.3996 30.8999 79.2996 30.9999C79.2996 31.0999 79.1996 31.1999 79.1996 31.2999V31.3999C79.1996 31.4999 79.1996 31.5999 79.1996 31.5999C79.1996 31.7999 79.0996 31.8999 79.0996 32.0999V32.1999C79.0996 32.2999 79.0996 32.3999 79.0996 32.4999C79.0996 32.5999 79.0996 32.6999 79.0996 32.6999C79.0996 32.8999 79.0996 33.1999 79.0996 33.3999C79.0996 35.4999 79.7996 36.8999 80.9996 37.5999L122 61.5999C120.8 60.8999 120.1 59.4999 120.1 57.3999C120.1 57.1999 120.1 56.8999 120.1 56.6999C120.1 56.5999 120.1 56.4999 120.1 56.4999C120.1 56.2999 120.1 56.1999 120.2 55.9999C120.2 55.7999 120.3 55.6999 120.3 55.4999C120.3 55.3999 120.3 55.2999 120.4 55.0999C120.4 54.9999 120.5 54.8999 120.5 54.7999C120.5 54.5999 120.6 54.4999 120.6 54.2999C120.6 54.1999 120.7 54.0999 120.7 53.9999C120.8 53.7999 120.8 53.5999 120.9 53.4999C120.9 53.3999 121 53.3999 121 53.2999C121.1 53.0999 121.2 52.7999 121.3 52.5999V52.4999C121.4 52.2999 121.5 52.0999 121.6 51.8999C121.6 51.7999 121.7 51.7999 121.7 51.6999C121.8 51.4999 121.9 51.2999 122 51.0999C122 51.0999 122 50.9999 122.1 50.9999C122.2 50.7999 122.4 50.4999 122.5 50.2999C122.5 50.1999 122.6 50.1999 122.6 50.0999C122.7 49.8999 122.8 49.7999 122.9 49.5999C123 49.4999 123 49.3999 123.1 49.3999C123.2 49.2999 123.3 49.0999 123.4 48.9999C123.5 48.8999 123.6 48.7999 123.7 48.6999C123.8 48.5999 123.9 48.4999 123.9 48.3999C124 48.1999 124.2 48.0999 124.3 47.8999C124.4 47.7999 124.5 47.6999 124.6 47.5999C124.7 47.4999 124.7 47.4999 124.8 47.3999C124.9 47.2999 125 47.1999 125.2 47.0999C125.3 46.9999 125.3 46.9999 125.4 46.8999C125.5 46.7999 125.7 46.6999 125.8 46.5999C125.9 46.5999 125.9 46.4999 126 46.4999C126.2 46.3999 126.4 46.1999 126.6 46.0999C126.8 45.9999 127 45.8999 127.2 45.7999C127.3 45.7999 127.3 45.7999 127.4 45.6999C127.5 45.5999 127.6 45.5999 127.7 45.5999Z" fill="#FB7070"/>
<path d="M113.4 62.1999C113.4 61.9999 113.4 61.7999 113.4 61.5999C113.4 61.4999 113.4 61.3999 113.4 61.2999C113.4 61.0999 113.4 60.8999 113.5 60.6999C113.5 60.5999 113.5 60.4999 113.5 60.3999C113.5 60.2999 113.5 60.0999 113.6 59.9999C113.6 59.7999 113.7 59.5999 113.7 59.3999C113.7 59.2999 113.7 59.0999 113.8 58.9999C113.8 58.7999 113.9 58.5999 113.9 58.3999C113.9 58.1999 114 58.0999 114 57.8999C114 57.7999 114.1 57.5999 114.1 57.4999C114.1 57.2999 114.2 57.1999 114.2 56.9999C114.2 56.8999 114.3 56.7999 114.3 56.5999C114.3 56.4999 114.4 56.3999 114.4 56.2999C114.5 55.8999 114.6 55.4999 114.8 55.0999V54.9999C114.9 54.5999 115.1 54.1999 115.2 53.7999C115.2 53.6999 115.3 53.5999 115.3 53.4999C115.4 53.1999 115.6 52.7999 115.7 52.4999C115.7 52.3999 115.7 52.3999 115.8 52.2999C116 51.8999 116.1 51.5999 116.3 51.1999C116.3 51.0999 116.4 50.9999 116.4 50.8999C116.5 50.5999 116.7 50.2999 116.8 49.9999C116.8 49.8999 116.9 49.7999 116.9 49.6999C117.1 49.2999 117.3 48.9999 117.5 48.5999C117.5 48.4999 117.6 48.4999 117.6 48.3999C117.8 48.0999 118 47.7999 118.2 47.4999C118.3 47.3999 118.3 47.2999 118.4 47.1999C118.6 46.7999 118.9 46.4999 119.1 46.0999C119.1 45.9999 119.2 45.9999 119.2 45.8999C119.5 45.4999 119.7 45.1999 120 44.7999L120.1 44.6999C120.4 44.2999 120.8 43.7999 121.2 43.3999C121.2 43.2999 121.3 43.2999 121.3 43.1999C121.5 42.8999 121.7 42.6999 122 42.3999C122.2 42.0999 122.5 41.8999 122.7 41.5999C122.9 41.3999 123 41.2999 123.2 41.0999L123.3 40.9999C123.5 40.7999 123.7 40.5999 123.9 40.3999C124 40.2999 124 40.2999 124.1 40.2999C124.3 40.1999 124.4 39.9999 124.6 39.8999C124.7 39.7999 124.8 39.7999 124.8 39.6999C124.9 39.5999 125.1 39.4999 125.2 39.3999C125.3 39.2999 125.4 39.2999 125.5 39.1999C125.6 39.0999 125.8 38.9999 125.9 38.8999C126 38.7999 126.1 38.7999 126.2 38.6999C126.4 38.5999 126.5 38.4999 126.7 38.3999C126.8 38.3999 126.8 38.2999 126.9 38.2999C127.1 38.1999 127.4 37.9999 127.6 37.8999C127.9 37.6999 128.2 37.5999 128.5 37.3999C128.6 37.3999 128.7 37.2999 128.8 37.2999C129 37.1999 129.3 37.0999 129.5 36.9999C129.6 36.9999 129.7 36.8999 129.7 36.8999C129.9 36.7999 130.1 36.6999 130.3 36.6999C130.4 36.6999 130.4 36.6999 130.5 36.5999C130.8 36.4999 131 36.3999 131.3 36.3999C131.5 36.3999 131.6 36.2999 131.7 36.2999C131.8 36.2999 131.8 36.2999 131.9 36.1999C132.1 36.1999 132.3 36.0999 132.6 36.0999C132.8 36.0999 133 35.9999 133.2 35.9999C133.3 35.9999 133.3 35.9999 133.4 35.9999C133.5 35.9999 133.7 35.9999 133.8 35.9999C133.9 35.9999 133.9 35.9999 134 35.9999C134.1 35.9999 134.3 35.9999 134.4 35.9999H134.5C134.6 35.9999 134.6 35.9999 134.7 35.9999C134.9 35.9999 135.1 35.9999 135.4 36.0999C135.5 36.0999 135.5 36.0999 135.6 36.0999C135.8 36.0999 136.1 36.1999 136.3 36.2999C136.5 36.3999 136.7 36.3999 136.9 36.4999C137 36.4999 137 36.5999 137.1 36.5999C137.3 36.6999 137.5 36.7999 137.6 36.8999C137.7 36.8999 137.7 36.9999 137.8 36.9999L121.6 27.5999H121.5H121.4C121.2 27.4999 121 27.3999 120.9 27.2999H120.8H120.7C120.5 27.1999 120.3 27.0999 120.1 27.0999C119.9 26.9999 119.6 26.9999 119.4 26.8999H119.3H119.2C119 26.8999 118.8 26.7999 118.5 26.7999H118.4C118.4 26.7999 118.4 26.7999 118.3 26.7999H118.2C118.1 26.7999 117.9 26.7999 117.8 26.7999C117.7 26.7999 117.7 26.7999 117.6 26.7999H117.5C117.4 26.7999 117.3 26.7999 117.2 26.7999C117.1 26.7999 117.1 26.7999 117 26.7999C116.8 26.7999 116.6 26.7999 116.4 26.8999C116.2 26.8999 116 26.9999 115.8 26.9999C115.7 26.9999 115.7 26.9999 115.6 27.0999C115.5 27.0999 115.3 27.1999 115.2 27.1999C114.9 27.2999 114.7 27.3999 114.4 27.3999C114.3 27.3999 114.3 27.3999 114.2 27.4999C114 27.5999 113.8 27.6999 113.6 27.6999H113.5C113.4 27.6999 113.4 27.6999 113.3 27.7999C113.1 27.8999 112.8 27.9999 112.6 28.0999C112.5 28.0999 112.4 28.1999 112.3 28.1999C112 28.3999 111.7 28.4999 111.4 28.6999C111.2 28.7999 110.9 28.9999 110.7 29.0999C110.6 29.0999 110.6 29.1999 110.5 29.1999C110.3 29.2999 110.2 29.3999 110 29.4999C109.9 29.5999 109.8 29.5999 109.7 29.6999C109.6 29.7999 109.4 29.8999 109.3 29.9999C109.2 30.0999 109.1 30.0999 109 30.1999C108.9 30.2999 108.7 30.3999 108.6 30.4999C108.5 30.5999 108.4 30.5999 108.4 30.6999C108.2 30.7999 108.1 30.9999 107.9 31.0999C107.8 31.0999 107.8 31.1999 107.7 31.1999C107.5 31.3999 107.3 31.5999 107.1 31.7999L107 31.8999C106.9 31.9999 106.7 32.1999 106.6 32.2999C106.6 32.2999 106.6 32.2999 106.5 32.3999C106.3 32.5999 106 32.8999 105.8 33.1999C105.6 33.3999 105.3 33.6999 105.1 33.9999C105.1 33.9999 105.1 33.9999 105 34.0999L104.9 34.1999C104.5 34.5999 104.2 34.9999 103.8 35.4999L103.7 35.5999C103.4 35.9999 103.2 36.2999 102.9 36.6999L102.8 36.7999C102.8 36.7999 102.8 36.7999 102.8 36.8999C102.6 37.2999 102.3 37.5999 102.1 37.9999C102.1 37.9999 102.1 38.0999 102 38.0999C102 38.1999 101.9 38.1999 101.9 38.2999C101.7 38.5999 101.5 38.8999 101.3 39.1999L101.2 39.2999C101.2 39.2999 101.2 39.2999 101.2 39.3999C101 39.7999 100.8 40.0999 100.6 40.4999V40.5999C100.6 40.6999 100.5 40.6999 100.5 40.7999C100.3 41.0999 100.2 41.3999 100.1 41.6999C100.1 41.7999 100 41.7999 100 41.8999V41.9999C99.8004 42.3999 99.7004 42.6999 99.5004 43.0999V43.1999C99.4004 43.4999 99.2004 43.8999 99.1004 44.1999C99.1004 44.2999 99.1004 44.2999 99.0004 44.3999V44.4999C98.8004 44.8999 98.7004 45.2999 98.6004 45.6999C98.6004 45.6999 98.6004 45.6999 98.6004 45.7999C98.5004 46.1999 98.3004 46.5999 98.2004 46.9999C98.2004 47.0999 98.2004 47.0999 98.2004 47.1999V47.2999C98.2004 47.3999 98.1004 47.4999 98.1004 47.6999C98.1004 47.8999 98.0004 47.9999 98.0004 48.1999C98.0004 48.2999 97.9004 48.4999 97.9004 48.5999C97.9004 48.6999 97.9004 48.7999 97.8004 48.8999C97.8004 48.9999 97.8004 48.9999 97.8004 49.0999C97.8004 49.2999 97.7004 49.4999 97.7004 49.6999C97.7004 49.7999 97.7004 49.9999 97.6004 50.0999C97.6004 50.2999 97.5004 50.4999 97.5004 50.6999C97.5004 50.7999 97.5004 50.8999 97.5004 50.9999V51.0999C97.5004 51.1999 97.5004 51.2999 97.5004 51.3999C97.5004 51.5999 97.5004 51.7999 97.4004 51.9999C97.4004 52.0999 97.4004 52.1999 97.4004 52.2999C97.4004 52.4999 97.4004 52.6999 97.4004 52.8999C97.4004 52.9999 97.4004 53.0999 97.4004 53.0999C97.4004 53.3999 97.4004 53.5999 97.4004 53.8999C97.4004 58.3999 99.0004 61.5999 101.6 63.0999L117.8 72.4999C115.2 70.9999 113.6 67.7999 113.6 63.2999C113.6 62.9999 113.6 62.7999 113.6 62.4999C113.4 62.2999 113.4 62.2999 113.4 62.1999Z" fill="#FB7070"/>
<path d="M107.9 31.4999C107.7 31.6999 107.5 31.8999 107.3 32.0999L107.2 32.1999C107.1 32.2999 106.9 32.4999 106.8 32.5999C106.8 32.5999 106.8 32.5999 106.7 32.6999C106.5 32.8999 106.2 33.1999 106 33.4999C105.8 33.6999 105.5 33.9999 105.3 34.2999C105.3 34.2999 105.3 34.2999 105.2 34.3999L105.1 34.4999C104.7 34.8999 104.4 35.2999 104 35.7999L103.9 35.8999C103.6 36.2999 103.4 36.5999 103.1 36.9999L103 37.0999C103 37.0999 103 37.0999 103 37.1999C102.8 37.5999 102.5 37.8999 102.3 38.2999C102.3 38.2999 102.3 38.3999 102.2 38.3999C102.2 38.4999 102.1 38.4999 102.1 38.5999C101.9 38.8999 101.7 39.1999 101.5 39.4999L101.4 39.5999C101.4 39.5999 101.4 39.5999 101.4 39.6999C101.2 40.0999 101 40.3999 100.8 40.7999V40.8999C100.8 40.9999 100.7 40.9999 100.7 41.0999C100.5 41.3999 100.4 41.6999 100.3 41.9999C100.3 42.0999 100.2 42.0999 100.2 42.1999V42.2999C99.9996 42.6999 99.8996 42.9999 99.6996 43.3999V43.4999C99.5996 43.7999 99.3996 44.1999 99.2996 44.4999C99.2996 44.5999 99.2996 44.5999 99.1996 44.6999V44.7999C98.9996 45.1999 98.8996 45.5999 98.7996 45.9999C98.7996 45.9999 98.7996 45.9999 98.7996 46.0999C98.6996 46.4999 98.4996 46.8999 98.3996 47.2999C98.3996 47.3999 98.3996 47.3999 98.3996 47.4999V47.5999C98.3996 47.6999 98.2996 47.7999 98.2996 47.9999C98.2996 48.1999 98.1996 48.2999 98.1996 48.4999C98.1996 48.5999 98.0996 48.7999 98.0996 48.8999C98.0996 48.9999 98.0996 49.0999 97.9996 49.1999C97.9996 49.2999 97.9996 49.2999 97.9996 49.3999C97.9996 49.5999 97.8996 49.7999 97.8996 49.9999C97.8996 50.0999 97.8996 50.2999 97.7996 50.3999C97.7996 50.5999 97.6996 50.7999 97.6996 50.9999C97.6996 51.0999 97.6996 51.1999 97.6996 51.2999V51.3999C97.6996 51.4999 97.6996 51.5999 97.6996 51.6999C97.6996 51.8999 97.6996 52.0999 97.5996 52.2999C97.5996 52.3999 97.5996 52.4999 97.5996 52.5999C97.5996 52.7999 97.5996 52.9999 97.5996 53.1999C97.5996 53.2999 97.5996 53.3999 97.5996 53.3999C97.5996 53.6999 97.5996 53.8999 97.5996 54.1999C97.5996 58.6999 99.1996 61.8999 101.8 63.3999" stroke="#171A21" stroke-width="2" stroke-miterlimit="10" stroke-linecap="round" stroke-linejoin="round"/>
<path d="M121.7 27.8999C121.6 27.7999 121.6 27.7999 121.5 27.7999C121.3 27.6999 121.1 27.5999 121 27.4999H120.9H120.8C120.6 27.3999 120.4 27.2999 120.2 27.2999C120 27.1999 119.7 27.1999 119.5 27.0999H119.4H119.3C119.1 27.0999 118.9 26.9999 118.6 26.9999H118.5C118.5 26.9999 118.5 26.9999 118.4 26.9999H118.3C118.2 26.9999 118 26.9999 117.9 26.9999C117.8 26.9999 117.8 26.9999 117.7 26.9999H117.6C117.5 26.9999 117.4 26.9999 117.3 26.9999C117.2 26.9999 117.2 26.9999 117.1 26.9999C116.9 26.9999 116.7 26.9999 116.5 27.0999C116.3 27.0999 116.1 27.1999 115.9 27.1999C115.8 27.1999 115.8 27.1999 115.7 27.2999C115.6 27.2999 115.4 27.3999 115.3 27.3999C115 27.4999 114.8 27.5999 114.5 27.5999C114.4 27.5999 114.4 27.5999 114.3 27.6999C114.1 27.7999 113.9 27.8999 113.7 27.8999H113.6C113.5 27.8999 113.5 27.8999 113.4 27.9999C113.2 28.0999 112.9 28.1999 112.7 28.2999C112.6 28.2999 112.5 28.3999 112.4 28.3999C112.1 28.5999 111.8 28.6999 111.5 28.8999C111.3 28.9999 111 29.1999 110.8 29.2999C110.7 29.2999 110.7 29.3999 110.6 29.3999C110.4 29.4999 110.3 29.5999 110.1 29.6999C110 29.7999 109.9 29.7999 109.8 29.8999C109.7 29.9999 109.5 30.0999 109.4 30.1999C109.3 30.2999 109.2 30.2999 109.1 30.3999C109 30.4999 108.8 30.5999 108.7 30.6999C108.6 30.7999 108.5 30.7999 108.5 30.8999" stroke="#171A21" stroke-width="2" stroke-miterlimit="10" stroke-linecap="round" stroke-linejoin="round"/>
<path d="M127.701 38.2999C135.701 33.6999 142.101 37.3999 142.201 46.4999C142.301 55.5999 135.801 66.7999 127.801 71.3999C119.801 75.9999 113.401 72.2999 113.301 63.1999C113.301 54.0999 119.801 42.8999 127.701 38.2999Z" fill="#FEE2E2"/>
<path d="M127.701 38.2999C135.701 33.6999 142.101 37.3999 142.201 46.4999C142.301 55.5999 135.801 66.7999 127.801 71.3999C119.801 75.9999 113.401 72.2999 113.301 63.1999" stroke="#171A21" stroke-width="2" stroke-miterlimit="10" stroke-linecap="round" stroke-linejoin="round"/>
<path d="M4.2 108.8C1.1 110.6 1.1 113.5 4.2 115.3L49.3 141.5C52.4 143.3 57.4 143.3 60.6 141.5L115.6 109.8C118.7 108 118.7 105.1 115.6 103.3L70.4 77.1C67.3 75.3 62.3 75.3 59.1 77.1L4.2 108.8Z" fill="white" stroke="#171A21" stroke-width="2" stroke-miterlimit="10" stroke-linecap="round" stroke-linejoin="round"/>
<path d="M4.2 108.8C1.1 110.6 1.1 113.5 4.2 115.3L49.3 141.5C52.4 143.3 57.4 143.3 60.6 141.5L115.6 109.8C118.7 108 118.7 105.1 115.6 103.3L70.4 77.1C67.3 75.3 62.3 75.3 59.1 77.1L4.2 108.8Z" stroke="#171A21" stroke-width="2" stroke-miterlimit="10" stroke-linecap="round" stroke-linejoin="round"/>
<path d="M24.1 104.7L61.6 83.1C63.4 82.1 66.2 82.1 68 83.1L105.2 104.7C107 105.7 107 107.4 105.2 108.4L67.7 130C65.9 131 63.1 131 61.3 130L24.1 108.4C22.3 107.4 22.3 105.7 24.1 104.7Z" fill="#FB7070"/>
<path d="M4.2 91.8C1.1 93.6 1.1 96.5 4.2 98.3L49.3 124.5C52.4 126.3 57.4 126.3 60.6 124.5L115.6 92.8C118.7 91 118.7 88.1 115.6 86.3L70.4 60.1C67.3 58.3 62.3 58.3 59.1 60.1L4.2 91.8Z" fill="white" stroke="#171A21" stroke-width="2" stroke-miterlimit="10" stroke-linecap="round" stroke-linejoin="round"/>
<path d="M4.2 91.8C1.1 93.6 1.1 96.5 4.2 98.3L49.3 124.5C52.4 126.3 57.4 126.3 60.6 124.5L115.6 92.8C118.7 91 118.7 88.1 115.6 86.3L70.4 60.1C67.3 58.3 62.3 58.3 59.1 60.1L4.2 91.8Z" stroke="#171A21" stroke-width="2" stroke-miterlimit="10" stroke-linecap="round" stroke-linejoin="round"/>
<path d="M24.1 87.7L61.6 66.1C63.4 65.1 66.2 65.1 68 66.1L105.2 87.7C107 88.7 107 90.4 105.2 91.4L67.7 113C65.9 114 63.1 114 61.3 113L24.1 91.4C22.3 90.4 22.3 88.7 24.1 87.7Z" fill="#FB7070"/>
<path d="M40.7004 38.5999V36C40.7004 34.5 40.0004 33.3 38.4004 32.4C38.1004 32.2 37.9004 32.1 37.6004 32C37.6004 32 37.6004 32 37.5004 32C37.3004 31.9 37.0004 31.8 36.8004 31.7H36.7004C36.6004 31.7 36.5004 31.6 36.5004 31.6C36.4004 31.6 36.4004 31.6 36.3004 31.5C36.2004 31.5 36.1004 31.4 36.1004 31.4H36.0004C35.8004 31.4 35.7004 31.2999 35.5004 31.2999H35.4004C35.3004 31.2999 35.2004 31.3 35.1004 31.2H35.0004C35.0004 31.2 35.0004 31.2 34.9004 31.2C34.8004 31.2 34.7004 31.2 34.6004 31.2H34.5004C34.4004 31.2 34.3004 31.2 34.2004 31.2C34.2004 31.2 34.2004 31.2 34.1004 31.2C34.0004 31.2 33.8004 31.2 33.6004 31.2H33.5004C33.4004 31.2 33.2004 31.2 33.1004 31.2H33.0004C32.8004 31.2 32.5004 31.2999 32.3004 31.2999C32.3004 31.2999 32.3004 31.2999 32.2004 31.2999C32.2004 31.2999 32.2004 31.2999 32.1004 31.2999C31.9004 31.2999 31.6004 31.4 31.4004 31.5H31.3004C31.1004 31.6 30.8004 31.6 30.5004 31.7H30.4004C30.2004 31.8 30.1004 31.8 29.9004 31.9C29.9004 31.9 29.8004 31.9 29.8004 32C29.6004 32.1 29.4004 32.1999 29.1004 32.2999C29.1004 32.2999 29.0004 32.3 29.0004 32.4C28.8004 32.5 28.6004 32.5999 28.4004 32.5999C28.3004 32.5999 28.3004 32.6 28.2004 32.7C28.0004 32.8 27.7004 32.9 27.5004 33C27.5004 33 27.4004 32.9999 27.4004 33.0999C27.2004 33.1999 27.0004 33.3 26.8004 33.4C26.7004 33.4 26.7004 33.5 26.6004 33.5C26.3004 33.6 26.1004 33.8 25.8004 33.9C25.8004 33.9 25.7004 33.9 25.7004 34C25.5004 34.1 25.2004 34.3 24.9004 34.4C24.8004 34.4 24.7004 34.5 24.7004 34.5C24.4004 34.7 24.1004 34.8 23.8004 35C23.6004 35.1 23.4004 35.1999 23.2004 35.2999H23.1004C22.9004 35.3999 22.7004 35.5 22.5004 35.5C22.4004 35.5 22.4004 35.4999 22.3004 35.5999C22.2004 35.5999 22.1004 35.7 22.0004 35.7C21.9004 35.7 21.9004 35.6999 21.8004 35.7999C21.7004 35.7999 21.6004 35.9 21.5004 35.9C21.4004 35.9 21.4004 35.9 21.3004 35.9C21.2004 35.9 21.0004 36 20.8004 36C20.8004 36 20.8004 36 20.7004 36C20.5004 36 20.3004 36.0999 20.1004 36.0999H20.0004C19.8004 36.0999 19.6004 36.2 19.4004 36.2C19.3004 36.2 19.3004 36.2 19.2004 36.2C18.9004 36.2 18.7004 36.2999 18.4004 36.2999C18.2004 36.2999 18.0004 36.4 17.8004 36.4C17.7004 36.4 17.7004 36.4 17.6004 36.4C17.4004 36.4 17.1004 36.5 16.9004 36.5C16.9004 36.5 16.9004 36.5 16.8004 36.5H16.7004C16.5004 36.5 16.3004 36.5999 16.2004 36.5999C16.1004 36.5999 16.1004 36.5999 16.0004 36.5999C15.8004 36.5999 15.6004 36.7 15.4004 36.7C15.4004 36.7 15.4004 36.7 15.3004 36.7C15.1004 36.8 14.8004 36.8 14.6004 36.9C14.5004 36.9 14.5004 36.9 14.4004 37C14.2004 37 14.1004 37.1 13.9004 37.2H13.8004C13.8004 37.2 13.8004 37.2 13.7004 37.2C13.5004 37.2 13.4004 37.3 13.2004 37.4H13.1004C12.9004 37.5 12.7004 37.5999 12.5004 37.5999C12.5004 37.5999 12.4004 37.6 12.4004 37.7C12.3004 37.8 12.1004 37.8 12.0004 37.9C11.9004 37.9 11.9004 38 11.8004 38C11.7004 38.1 11.6004 38.1 11.4004 38.2C11.4004 38.2 11.3004 38.1999 11.3004 38.2999C11.2004 38.2999 11.2004 38.4 11.1004 38.4C11.0004 38.4 11.0004 38.5 11.0004 38.5C10.9004 38.6 10.8004 38.7 10.7004 38.7C10.7004 38.7 10.6004 38.6999 10.6004 38.7999C10.5004 38.8999 10.3004 38.9999 10.2004 39.0999L10.1004 39.2C10.0004 39.3 10.0004 39.3 9.90039 39.4C9.90039 39.4 9.90039 39.4 9.80039 39.5C9.70039 39.6 9.60039 39.6999 9.50039 39.7999C9.40039 39.9 9.40039 39.9 9.30039 40C9.20039 40.1 9.10039 40.1999 9.00039 40.2999L8.90039 40.4C8.80039 40.5 8.70039 40.6 8.70039 40.7C8.70039 40.8 8.60039 40.8 8.60039 40.9C8.50039 41.1 8.40039 41.3 8.30039 41.5C8.20039 41.6 8.20039 41.8 8.10039 41.9V42V42.0999C8.10039 42.1999 8.00039 42.3 8.00039 42.4C8.00039 42.5 8.00039 42.4999 7.90039 42.5999V42.7V42.7999C7.90039 42.9 7.90039 42.9999 7.90039 43.0999V43.2C7.90039 44 7.90039 44.9 7.90039 45.7999V47.5C7.90039 48.1 7.90039 48.6 7.90039 49.2V51.7999C7.90039 51.6999 7.90039 51.5 7.90039 51.4C7.90039 51.4 7.90039 51.4 7.90039 51.2999C7.90039 51.1999 7.90039 51.1 8.00039 50.9C8.00039 50.8 8.10039 50.6 8.10039 50.5V50.4C8.20039 50.3 8.20039 50.1 8.30039 50C8.40039 49.7999 8.50039 49.6 8.60039 49.4C8.60039 49.3 8.70039 49.3 8.70039 49.2C8.80039 49.1 8.90039 49 8.90039 48.9C9.00039 48.8 9.00039 48.8 9.00039 48.7C9.10039 48.6 9.20039 48.5 9.30039 48.4C9.40039 48.3 9.40039 48.3 9.50039 48.2C9.60039 48.1 9.70039 48 9.80039 47.9C9.90039 47.8 10.0004 47.6999 10.1004 47.5999L10.2004 47.5C10.3004 47.4 10.5004 47.3 10.6004 47.2C10.6004 47.2 10.7004 47.1999 10.7004 47.0999C10.8004 46.9999 10.9004 46.9 11.0004 46.9C11.0004 46.9 11.1004 46.7999 11.2004 46.7999C11.3004 46.6999 11.4004 46.6999 11.5004 46.5999C11.6004 46.4999 11.7004 46.5 11.9004 46.4C12.0004 46.4 12.0004 46.2999 12.1004 46.2999C12.2004 46.1999 12.4004 46.1999 12.5004 46.0999C12.5004 46.0999 12.6004 46.1 12.6004 46C12.8004 45.9 13.0004 45.7999 13.2004 45.7999H13.3004C13.5004 45.6999 13.6004 45.6999 13.8004 45.5999C13.9004 45.5999 13.9004 45.6 14.0004 45.5C14.2004 45.4 14.3004 45.4 14.5004 45.2999C14.6004 45.2999 14.6004 45.3 14.7004 45.2C14.9004 45.1 15.1004 45.1 15.4004 45C15.6004 45 15.8004 44.9 16.0004 44.9C16.1004 44.9 16.1004 44.9 16.2004 44.9C16.4004 44.9 16.6004 44.7999 16.7004 44.7999C16.8004 44.7999 16.8004 44.7999 16.9004 44.7999C17.1004 44.7999 17.4004 44.7 17.6004 44.7C17.7004 44.7 17.7004 44.7 17.8004 44.7C18.0004 44.7 18.2004 44.5999 18.5004 44.5999C18.7004 44.5999 19.0004 44.5 19.2004 44.5C19.3004 44.5 19.3004 44.5 19.4004 44.5C19.6004 44.5 19.8004 44.4 20.0004 44.4H20.1004C20.3004 44.4 20.5004 44.2999 20.7004 44.2999C20.7004 44.2999 20.7004 44.2999 20.8004 44.2999C21.0004 44.2999 21.1004 44.2 21.3004 44.2C21.4004 44.2 21.4004 44.2 21.5004 44.2C21.6004 44.2 21.7004 44.0999 21.8004 44.0999C21.9004 44.0999 21.9004 44.1 22.0004 44C22.1004 44 22.2004 43.9 22.3004 43.9H22.4004C22.4004 43.9 22.4004 43.9 22.5004 43.9C22.7004 43.8 22.9004 43.8 23.1004 43.7H23.2004C23.4004 43.6 23.6004 43.5 23.8004 43.4C24.1004 43.2 24.4004 43.1 24.7004 42.9C24.8004 42.9 24.9004 42.7999 24.9004 42.7999C25.2004 42.6999 25.4004 42.5 25.7004 42.4C25.7004 42.4 25.8004 42.4 25.8004 42.2999C26.1004 42.1999 26.3004 42 26.6004 41.9C26.7004 41.9 26.7004 41.7999 26.8004 41.7999C27.0004 41.6999 27.2004 41.6 27.4004 41.5C27.4004 41.5 27.5004 41.5 27.5004 41.4C27.7004 41.3 28.0004 41.1999 28.2004 41.0999C28.3004 41.0999 28.3004 41 28.4004 41C28.6004 40.9 28.8004 40.7999 29.0004 40.7999C29.0004 40.7999 29.1004 40.8 29.1004 40.7C29.3004 40.6 29.5004 40.5 29.8004 40.4H29.9004C30.1004 40.3 30.3004 40.3 30.4004 40.2H30.5004C30.8004 40.1 31.0004 40 31.3004 40H31.4004C31.6004 39.9 31.9004 39.9 32.1004 39.7999H32.2004C32.4004 39.7999 32.7004 39.7 32.9004 39.7H33.0004C33.1004 39.7 33.3004 39.7 33.4004 39.7H33.5004C33.7004 39.7 33.8004 39.7 33.9004 39.7H34.0004C34.1004 39.7 34.2004 39.7 34.3004 39.7C34.4004 39.7 34.4004 39.7 34.4004 39.7C34.5004 39.7 34.6004 39.7 34.7004 39.7C34.8004 39.7 34.8004 39.7 34.9004 39.7C35.0004 39.7 35.1004 39.6999 35.2004 39.7999H35.3004C35.5004 39.7999 35.6004 39.9 35.8004 39.9H35.9004C36.0004 39.9 36.1004 40 36.1004 40C36.2004 40 36.2004 39.9999 36.3004 40.0999C36.4004 40.0999 36.5004 40.2 36.5004 40.2C36.5004 40.2 36.6004 40.1999 36.6004 40.2999C36.8004 40.4 37.1004 40.4999 37.3004 40.5999C37.3004 40.5999 37.3004 40.5999 37.4004 40.5999C37.7004 40.6999 37.9004 40.9 38.2004 41C39.8004 41.9 40.5004 43.1999 40.5004 44.5999C40.5004 43.7999 40.5004 42.9 40.5004 42V40.2999C40.7004 39.6999 40.7004 39.1999 40.7004 38.5999Z" fill="#FB7070"/>
<path d="M40.6996 36.5999C40.6996 36.7999 40.5996 36.8999 40.5996 37.0999C40.5996 37.1999 40.5996 37.1999 40.5996 37.2999C40.5996 37.3999 40.4996 37.4999 40.4996 37.5999C40.4996 37.6999 40.4996 37.6999 40.3996 37.7999C40.3996 37.8999 40.2996 37.9999 40.2996 38.0999C40.2996 38.1999 40.1996 38.2999 40.1996 38.2999C40.1996 38.3999 40.0996 38.4999 40.0996 38.5999C40.0996 38.6999 39.9996 38.7999 39.9996 38.7999C39.9996 38.8999 39.8996 38.9999 39.8996 38.9999C39.7996 39.0999 39.6996 39.2999 39.6996 39.3999C39.5996 39.4999 39.5996 39.5999 39.4996 39.5999C39.3996 39.6999 39.2996 39.7999 39.1996 39.9999C39.0996 40.0999 38.9996 40.1999 38.9996 40.2999C38.9996 40.3999 38.8996 40.3999 38.8996 40.4999C38.7996 40.6999 38.5996 40.7999 38.4996 40.9999C38.4996 40.9999 38.4996 40.9999 38.3996 41.0999C38.1996 41.2999 38.0996 41.3999 37.8996 41.5999C37.8996 41.5999 37.7996 41.6999 37.6996 41.6999C37.5996 41.7999 37.4996 41.8999 37.3996 41.9999C37.1996 42.1999 37.0996 42.2999 36.8996 42.4999C36.7996 42.5999 36.7996 42.5999 36.6996 42.6999C36.3996 42.8999 36.1996 43.0999 35.8996 43.2999L35.7996 43.3999C35.4996 43.5999 35.2996 43.7999 34.9996 43.9999C34.8996 44.0999 34.7996 44.0999 34.6996 44.1999C34.4996 44.2999 34.2996 44.4999 33.9996 44.5999C33.7996 44.6999 33.5996 44.7999 33.3996 44.9999C33.1996 45.0999 32.8996 45.2999 32.6996 45.3999C32.5996 45.3999 32.4996 45.4999 32.3996 45.4999C32.1996 45.5999 32.0996 45.6999 31.8996 45.7999C31.7996 45.8999 31.6996 45.8999 31.5996 45.9999C31.3996 46.0999 31.2996 46.1999 31.0996 46.1999C30.9996 46.2999 30.8996 46.2999 30.7996 46.3999C30.5996 46.4999 30.4996 46.4999 30.2996 46.5999C30.1996 46.5999 30.0996 46.6999 29.9996 46.6999C29.7996 46.7999 29.6996 46.7999 29.4996 46.8999C29.3996 46.8999 29.2996 46.9999 29.1996 46.9999C28.9996 47.0999 28.8996 47.0999 28.6996 47.1999C28.5996 47.1999 28.4996 47.2999 28.3996 47.2999C28.1996 47.3999 28.0996 47.3999 27.8996 47.4999C27.7996 47.4999 27.6996 47.5999 27.5996 47.5999C27.3996 47.6999 27.1996 47.6999 26.8996 47.7999H26.7996C26.4996 47.8999 26.1996 47.9999 25.7996 48.0999C25.6996 48.0999 25.5996 48.0999 25.4996 48.1999C25.1996 48.2999 24.9996 48.2999 24.6996 48.3999C24.5996 48.3999 24.5996 48.3999 24.4996 48.3999C24.1996 48.4999 23.8996 48.5999 23.4996 48.5999C23.3996 48.5999 23.2996 48.5999 23.2996 48.5999C22.9996 48.6999 22.7996 48.6999 22.4996 48.7999C22.3996 48.7999 22.2996 48.7999 22.2996 48.7999C21.9996 48.8999 21.5996 48.8999 21.2996 48.9999C21.1996 48.9999 21.1996 48.9999 21.0996 48.9999C20.7996 48.9999 20.4996 49.0999 20.1996 49.0999C20.0996 49.0999 20.0996 49.0999 19.9996 49.0999C19.7996 49.0999 19.5996 49.0999 19.3996 49.1999H19.2996C18.9996 49.1999 18.7996 49.1999 18.5996 49.1999H18.4996C18.0996 49.1999 17.6996 49.1999 17.2996 49.1999C16.9996 49.1999 16.6996 49.1999 16.3996 49.1999C16.2996 49.1999 16.2996 49.1999 16.1996 49.1999C15.8996 49.1999 15.6996 49.0999 15.3996 49.0999H15.2996C15.0996 49.0999 14.8996 48.9999 14.6996 48.9999C14.5996 48.9999 14.5996 48.9999 14.4996 48.9999C13.9996 48.9999 13.7996 48.9999 13.4996 48.8999C13.4996 48.8999 13.4996 48.8999 13.3996 48.8999C13.0996 48.7999 12.8996 48.6999 12.5996 48.5999H12.4996C12.3996 48.5999 12.2996 48.4999 12.1996 48.4999C12.0996 48.4999 12.0996 48.4999 11.9996 48.3999C11.7996 48.2999 11.6996 48.1999 11.4996 48.1999C11.3996 48.1999 11.3996 48.0999 11.3996 48.0999C9.69961 47.0999 8.39961 45.8999 7.89961 44.5999C7.69961 44.1999 7.59961 43.6999 7.59961 43.2999V51.7999C7.59961 53.5999 9.09961 55.1999 11.3996 56.5999L11.4996 56.6999C11.5996 56.7999 11.7996 56.8999 11.9996 56.8999C12.0996 56.8999 12.0996 56.8999 12.1996 56.9999C12.2996 56.9999 12.3996 57.0999 12.4996 57.0999C12.4996 57.0999 12.4996 57.0999 12.5996 57.0999C12.7996 57.1999 13.0996 57.2999 13.3996 57.3999C13.5996 57.4999 13.8996 57.4999 14.0996 57.5999H14.1996H14.2996C14.4996 57.5999 14.6996 57.6999 14.8996 57.6999H14.9996C15.2996 57.6999 15.4996 57.7999 15.7996 57.7999H15.8996H15.9996C16.2996 57.7999 16.5996 57.7999 16.8996 57.7999C17.2996 57.7999 17.6996 57.7999 18.0996 57.7999C18.0996 57.7999 18.0996 57.7999 18.1996 57.7999C18.3996 57.7999 18.6996 57.7999 18.8996 57.7999H18.9996C19.1996 57.7999 19.3996 57.7999 19.5996 57.6999C19.5996 57.6999 19.5996 57.6999 19.6996 57.6999H19.7996C20.0996 57.6999 20.3996 57.5999 20.6996 57.5999C20.7996 57.5999 20.7996 57.5999 20.8996 57.5999C21.1996 57.5999 21.5996 57.4999 21.8996 57.3999H21.9996C22.0996 57.3999 22.0996 57.3999 22.1996 57.3999C22.4996 57.3999 22.6996 57.2999 22.9996 57.1999C23.0996 57.1999 23.1996 57.1999 23.1996 57.1999C23.4996 57.0999 23.7996 57.0999 24.1996 56.9999C24.2996 56.9999 24.2996 56.9999 24.3996 56.9999C24.6996 56.8999 24.8996 56.8999 25.1996 56.7999C25.2996 56.7999 25.3996 56.7999 25.4996 56.6999C25.7996 56.5999 26.0996 56.4999 26.4996 56.3999H26.5996C26.7996 56.2999 26.9996 56.2999 27.1996 56.1999C27.2996 56.1999 27.3996 56.0999 27.4996 56.0999C27.6996 55.9999 27.7996 55.9999 27.9996 55.8999C28.0996 55.8999 28.1996 55.7999 28.2996 55.7999C28.4996 55.6999 28.5996 55.6999 28.7996 55.5999C28.8996 55.5999 28.9996 55.4999 29.0996 55.4999C29.2996 55.3999 29.3996 55.3999 29.5996 55.2999C29.6996 55.2999 29.7996 55.1999 29.8996 55.1999C30.0996 55.0999 30.1996 55.0999 30.3996 54.9999C30.4996 54.9999 30.5996 54.8999 30.6996 54.7999C30.8996 54.6999 30.9996 54.5999 31.1996 54.5999C31.2996 54.4999 31.3996 54.4999 31.4996 54.3999C31.6996 54.2999 31.7996 54.1999 31.9996 54.0999C32.0996 54.0999 32.1996 53.9999 32.2996 53.9999C32.4996 53.8999 32.7996 53.6999 32.9996 53.5999C33.0996 53.4999 33.2996 53.3999 33.3996 53.3999C33.4996 53.3999 33.4996 53.2999 33.5996 53.2999C33.7996 53.1999 34.0996 52.9999 34.2996 52.8999C34.3996 52.7999 34.4996 52.7999 34.5996 52.6999C34.8996 52.4999 35.0996 52.2999 35.3996 52.0999L35.4996 51.9999C35.7996 51.7999 36.0996 51.5999 36.2996 51.3999C36.3996 51.2999 36.4996 51.2999 36.4996 51.1999C36.6996 50.9999 36.8996 50.8999 36.9996 50.6999L37.0996 50.5999C37.1996 50.4999 37.2996 50.4999 37.2996 50.3999C37.3996 50.3999 37.3996 50.2999 37.4996 50.2999C37.6996 50.0999 37.7996 49.9999 37.9996 49.7999C37.9996 49.7999 37.9996 49.7999 38.0996 49.6999C38.1996 49.4999 38.3996 49.3999 38.4996 49.1999C38.4996 49.0999 38.5996 49.0999 38.5996 48.9999C38.5996 48.8999 38.6996 48.8999 38.6996 48.7999L38.7996 48.6999C38.8996 48.5999 38.9996 48.4999 39.0996 48.2999C39.1996 48.1999 39.1996 48.0999 39.2996 48.0999C39.3996 47.9999 39.4996 47.7999 39.4996 47.6999C39.4996 47.5999 39.5996 47.5999 39.5996 47.4999V47.3999C39.5996 47.2999 39.6996 47.1999 39.6996 47.1999C39.7996 47.0999 39.7996 46.9999 39.7996 46.8999C39.7996 46.7999 39.8996 46.6999 39.8996 46.6999C39.8996 46.5999 39.9996 46.5999 39.9996 46.4999V46.3999C39.9996 46.2999 39.9996 46.2999 40.0996 46.1999C40.0996 46.0999 40.1996 45.9999 40.1996 45.8999C40.1996 45.7999 40.1996 45.7999 40.1996 45.6999V45.5999C40.1996 45.4999 40.1996 45.3999 40.2996 45.2999C40.2996 45.1999 40.2996 44.9999 40.2996 44.8999V44.7999V36.2999C40.6996 36.1999 40.6996 36.3999 40.6996 36.5999Z" fill="#FEE2E2" stroke="#171A21" stroke-width="2" stroke-miterlimit="10" stroke-linecap="round" stroke-linejoin="round"/>
</svg>
