<svg width="144" height="144" viewBox="0 0 144 144" fill="none" xmlns="http://www.w3.org/2000/svg">
<g clip-path="url(#clip0)">
<path d="M90.3008 115.041L4.40078 65.6528C3.30078 65.0577 1.90078 65.8511 1.90078 67.0412L1.80078 87.471C1.80078 89.8511 3.10078 92.033 5.10078 93.223L90.1008 142.116C92.2008 143.306 94.7008 143.306 96.8008 142.116L138.801 117.917C140.901 116.727 142.101 114.545 142.101 112.165L142.201 91.7354C142.201 90.4462 140.801 89.6528 139.701 90.347L97.0008 115.041C95.0008 116.231 92.4008 116.231 90.3008 115.041Z" fill="#FEE2E2"/>
<path d="M139.901 90.347L97.0012 115.041C94.9012 116.231 92.4012 116.231 90.3012 115.041L4.40117 65.6527C3.30117 65.0577 3.30117 63.4709 4.40117 62.7767L47.2012 38.0825C49.3012 36.8924 51.8012 36.8924 53.9012 38.0825L139.801 87.4709C141.001 88.1651 141.001 89.7519 139.901 90.347Z" fill="white"/>
<path d="M139.901 90.347L97.0012 115.041C94.9012 116.231 92.4012 116.231 90.3012 115.041L4.40117 65.6527C3.30117 65.0577 3.30117 63.4709 4.40117 62.7767L47.2012 38.0825C49.3012 36.8924 51.8012 36.8924 53.9012 38.0825L139.801 87.4709C141.001 88.1651 141.001 89.7519 139.901 90.347Z" stroke="#171A21" stroke-width="2" stroke-miterlimit="10" stroke-linecap="round" stroke-linejoin="round"/>
<path d="M142.401 91.8346C142.401 91.5371 142.301 91.1404 142.101 90.942C141.601 89.3552 140.501 87.8676 139.001 87.0743L54.0008 38.0825C51.9008 36.8924 49.4008 36.8924 47.3008 38.0825L5.30078 62.2809C3.80078 63.1734 2.70078 64.5618 2.20078 66.1486C2.00078 66.4461 1.90078 66.7437 1.90078 67.0412L1.80078 87.4709C1.80078 89.8511 3.10078 92.0329 5.10078 93.223L90.1008 142.116C92.2008 143.306 94.7008 143.306 96.8008 142.116L138.801 117.917C140.901 116.727 142.101 114.545 142.101 112.165L142.201 92.7271L142.401 91.8346Z" stroke="#171A21" stroke-width="2" stroke-miterlimit="10" stroke-linecap="round" stroke-linejoin="round"/>
<path d="M71.6996 59.0084L55.6996 49.7852C53.7996 48.6943 50.7996 48.6943 48.8996 49.7852L23.3996 64.4629C21.4996 65.5538 21.4996 67.2398 23.3996 68.3307L39.3996 77.5538C41.2996 78.6447 44.2996 78.6447 46.1996 77.5538L71.5996 62.8761C73.4996 61.7852 73.4996 60.0993 71.6996 59.0084Z" fill="#FB7070"/>
<path d="M102.999 76.3637L86.5992 67.2397C85.0992 66.3472 82.6992 66.3472 81.1992 67.2397L55.1992 82.2149C53.6992 83.1075 53.6992 84.4959 55.1992 85.3885L71.5992 94.5125C73.0992 95.405 75.4992 95.405 76.9992 94.5125L82.8992 91.1406C82.9992 91.2397 83.0992 91.3389 83.1992 91.4381C84.6992 92.2315 86.1992 92.7273 87.9992 92.9257C90.7992 93.2232 93.4992 92.6282 96.2992 90.9422C99.0992 89.3554 100.199 87.7687 99.6992 86.1819C99.2992 85.091 98.1992 84.1984 96.6992 83.2067L103.099 79.5372C104.599 78.6447 104.499 77.1571 102.999 76.3637ZM93.9992 85.091C94.7992 85.5868 95.3992 86.1819 95.5992 86.6777C95.6992 86.9753 95.9992 87.7687 93.3992 89.2563C90.7992 90.7439 89.3992 90.6447 88.8992 90.5455C87.8992 90.4463 86.8992 89.9505 85.7992 89.4546L93.7992 84.8926C93.7992 84.8926 93.8992 84.9918 93.9992 85.091Z" fill="#FB7070"/>
<path d="M121.501 85.2892C122.601 86.876 122.301 88.7603 120.901 89.5536L91.1009 105.818C89.7009 106.612 87.7009 105.917 86.7009 104.331C85.6009 102.744 85.9009 100.859 87.3009 100.066L117.101 83.8016C118.501 83.0082 120.501 83.7024 121.501 85.2892Z" fill="#FB7070"/>
<path d="M7.40039 25.6859V20.3305L9.50039 18.8429L11.7004 21.8181L10.6004 25.4875L7.40039 25.6859Z" fill="#FB7070"/>
<path d="M61.6004 17.157L44.1004 7.14049C42.0004 5.9504 38.7004 5.9504 36.7004 7.14049L8.90039 23.1074C6.90039 24.2975 6.90039 26.1818 8.90039 27.3719L26.4004 37.3884C28.5004 38.5785 31.8004 38.5785 33.8004 37.3884L61.6004 21.4215C63.7004 20.2314 63.7004 18.3471 61.6004 17.157Z" fill="#FB7070"/>
<path d="M61.6004 11.9008L44.1004 1.88426C42.0004 0.694179 38.7004 0.694179 36.7004 1.88426L8.90039 17.8512C6.90039 19.0413 6.90039 20.9256 8.90039 22.1157L26.4004 32.1322C28.5004 33.3223 31.8004 33.3223 33.8004 32.1322L61.6004 16.1653C63.7004 14.9752 63.7004 13.0909 61.6004 11.9008Z" fill="#FEE2E2"/>
<path d="M61.5996 16.1652C63.5996 14.9751 63.5996 13.0908 61.5996 11.9008" stroke="#171A21" stroke-width="2" stroke-miterlimit="10" stroke-linecap="round" stroke-linejoin="round"/>
<path d="M61.6004 11.9008L44.1004 1.88426C42.0004 0.694179 38.7004 0.694179 36.7004 1.88426L8.90039 17.8512C6.90039 19.0413 6.90039 20.9256 8.90039 22.1157" stroke="#171A21" stroke-width="2" stroke-miterlimit="10" stroke-linecap="round" stroke-linejoin="round"/>
<path d="M61.3 32.8264C61.4 32.8264 61.4 32.7273 61.5 32.7273C61.6 32.7273 61.6 32.6281 61.7 32.6281C61.8 32.6281 61.9 32.5289 61.9 32.5289C62 32.5289 62 32.5289 62.1 32.4297C62.2 32.4297 62.3 32.4297 62.3 32.3306C62.4 32.3306 62.4 32.3306 62.5 32.2314C62.6 32.2314 62.7 32.2314 62.7 32.1322C62.8 32.1322 62.8 32.1322 62.9 32.1322C63 32.1322 63.1 32.1322 63.2 32.1322C63.3 32.1322 63.4 32.1322 63.4 32.1322C63.5 32.1322 63.6 32.1322 63.7 32.1322C63.8 32.1322 63.9 32.1322 63.9 32.1322C64 32.1322 64.1 32.1322 64.2 32.1322C64.3 32.1322 64.3 32.1322 64.4 32.1322C64.5 32.1322 64.7 32.1322 64.8 32.1322C64.9 32.1322 64.9 32.1322 65 32.1322C65.2 32.1322 65.4 32.2314 65.7 32.2314C65.8 32.2314 65.8 32.2314 65.9 32.2314C66.1 32.2314 66.2 32.3306 66.4 32.3306C66.5 32.3306 66.6 32.3306 66.6 32.4297C66.7 32.4297 66.8 32.5289 66.9 32.5289C67 32.5289 67.1 32.6281 67.2 32.6281C67.3 32.6281 67.4 32.7273 67.5 32.7273C67.6 32.7273 67.7 32.8264 67.8 32.8264C67.9 32.8264 68 32.9256 68.1 32.9256C68.2 32.9256 68.3 33.0248 68.4 33.0248C68.5 33.124 68.6 33.124 68.7 33.2231C68.8 33.3223 69 33.3223 69.1 33.4215C69.3 33.5206 69.6 33.719 69.8 33.9173C69.9 33.9173 69.9 34.0165 70 34.0165C70.2 34.1157 70.4 34.314 70.6 34.4132C70.7 34.4132 70.7 34.5124 70.8 34.5124C71 34.7107 71.3 34.9091 71.5 35.0083L71.6 35.1074C71.8 35.3058 72 35.4049 72.2 35.6033C72.3 35.7025 72.4 35.7025 72.4 35.8016C72.5 35.9008 72.6 36 72.7 36.0992C72.8 36.1983 72.9 36.2975 73 36.2975C73.1 36.3967 73.2 36.4959 73.3 36.595C73.4 36.6942 73.5 36.7934 73.5 36.8926C73.6 36.9917 73.7 37.0909 73.8 37.1901C73.9 37.2892 74 37.3884 74 37.4876C74.1 37.5868 74.2 37.6859 74.3 37.7851C74.4 37.8843 74.4 37.9835 74.5 38.0826C74.7 38.281 74.9 38.5785 75.1 38.7768L75.2 38.876C75.4 39.0744 75.5 39.2727 75.7 39.5702C75.8 39.6694 75.8 39.7686 75.9 39.8678C76 39.9669 76.1 40.1653 76.2 40.2645C76.3 40.3636 76.3 40.4628 76.4 40.562C76.5 40.7603 76.6 40.8595 76.7 41.0578C76.8 41.157 76.8 41.2562 76.9 41.3554C77 41.4545 77.1 41.6529 77.2 41.7521C77.3 41.8512 77.3 41.9504 77.4 42.0496C77.5 42.2479 77.6 42.3471 77.7 42.5454C77.7 42.6446 77.8 42.7438 77.8 42.843C77.9 42.9421 77.9 43.1405 78 43.2397C78.1 43.3388 78.1 43.438 78.2 43.5372C78.3 43.7355 78.4 43.8347 78.4 44.033C78.4 44.1322 78.5 44.2314 78.5 44.3306C78.6 44.5289 78.7 44.7273 78.8 44.9256C78.8 45.0248 78.9 45.0248 78.9 45.124C79 45.3223 79.1 45.6198 79.2 45.8182V45.9173C79.3 46.1157 79.4 46.314 79.4 46.5124C79.4 46.6116 79.5 46.7107 79.5 46.8099C79.6 47.0083 79.6 47.1074 79.7 47.3058C79.7 47.4049 79.8 47.5041 79.8 47.6033C79.9 47.8016 79.9 48 80 48.0992C80 48.1983 80.1 48.2975 80.1 48.3967C80.1 48.595 80.2 48.6942 80.2 48.8925C80.2 48.9917 80.2 49.0909 80.3 49.1901C80.4 49.4876 80.4 49.6859 80.5 49.9835V50.0826C80.6 50.3802 80.6 50.6777 80.7 50.9752C80.7 51.0744 80.7 51.1735 80.8 51.3719C80.8 51.4711 80.8 51.5702 80.8 51.6694C80.8 51.7686 80.8 51.9669 80.8 52.0661C80.8 52.1653 80.8 52.2644 80.8 52.3636C80.8 52.562 80.8 52.6611 80.8 52.8595C80.8 52.9587 80.8 53.0578 80.8 53.0578C80.8 53.2562 80.8 53.5537 80.8 53.7521C80.8 55.438 80.5 56.8264 80.1 58.0165C80 58.314 79.8 58.7107 79.6 59.0083C79.5 59.2066 79.4 59.3058 79.3 59.4049C78.8 60.1983 78.1 60.8926 77.3 61.3884L101 47.9008C103.1 46.7107 104.5 44.033 104.5 40.2645C104.5 40.0661 104.5 39.7686 104.5 39.5702C104.5 39.4711 104.5 39.3719 104.5 39.3719C104.5 39.1735 104.5 39.0744 104.5 38.876C104.5 38.7768 104.5 38.6777 104.5 38.5785C104.5 38.4793 104.5 38.281 104.5 38.1818C104.5 38.0826 104.5 37.9835 104.5 37.8843C104.5 37.7851 104.5 37.6859 104.5 37.5868V37.4876C104.5 37.1901 104.4 36.8926 104.3 36.595V36.4959C104.2 36.1983 104.2 36 104.1 35.7025V35.6033C104.1 35.5041 104.1 35.5041 104.1 35.4049C104.1 35.2066 104 35.1074 104 34.9091C104 34.8099 103.9 34.7107 103.9 34.6116C103.8 34.4132 103.8 34.2149 103.7 34.1157C103.7 34.0165 103.7 34.0165 103.6 33.9173C103.6 33.9173 103.6 33.9173 103.6 33.8182C103.5 33.6198 103.5 33.5206 103.4 33.3223C103.4 33.2231 103.3 33.124 103.3 33.0248C103.2 32.8264 103.1 32.6281 103.1 32.4297V32.3306C103 32.1322 102.9 31.8347 102.8 31.6364C102.8 31.5372 102.8 31.5372 102.7 31.438C102.6 31.2397 102.5 31.0413 102.4 30.843C102.4 30.7438 102.3 30.6446 102.3 30.6446C102.2 30.4463 102.2 30.3471 102.1 30.1487C102.1 30.0496 102 29.9504 101.9 29.8512C101.8 29.7521 101.8 29.5537 101.7 29.4545C101.7 29.3554 101.6 29.2562 101.6 29.2562C101.5 29.0578 101.4 28.9587 101.3 28.7603C101.2 28.6611 101.2 28.562 101.1 28.4628C101 28.3636 100.9 28.1653 100.9 28.0661V27.9669C100.9 27.8678 100.8 27.8678 100.8 27.7686C100.7 27.5702 100.6 27.4711 100.5 27.2727C100.4 27.1735 100.4 27.0744 100.3 26.9752C100.2 26.876 100.1 26.6777 100 26.5785C100 26.4793 99.9 26.4793 99.9 26.3802L99.8 26.281C99.6 26.0826 99.5 25.8843 99.3 25.5868L99.2 25.4876C99 25.1901 98.8 24.9917 98.6 24.7934C98.6 24.7934 98.6 24.7934 98.5 24.6942C98.4 24.595 98.4 24.595 98.3 24.4959C98.2 24.3967 98.1 24.2975 98 24.1983C97.9 24.0992 97.8 24 97.8 23.9008C97.7 23.8016 97.6 23.7025 97.5 23.6033C97.4 23.5041 97.3 23.4049 97.3 23.3058C97.2 23.2066 97.1 23.1074 97 23.0083C96.9 22.9091 96.8 22.8099 96.7 22.8099C96.6 22.7107 96.5 22.6116 96.4 22.5124L96.3 22.4132L96.2 22.314C96 22.1157 95.8 22.0165 95.6 21.8182L95.5 21.719C95.3 21.5207 95 21.3223 94.8 21.2231C94.7 21.2231 94.7 21.124 94.6 21.124C94.4 21.0248 94.2 20.8264 94 20.7273C93.9 20.7273 93.9 20.6281 93.8 20.6281C93.6 20.4297 93.3 20.3306 93.1 20.1322C93 20.1322 93 20.033 92.9 20.033C92.8 20.033 92.8 19.9339 92.7 19.9339C92.6 19.8347 92.5 19.8347 92.4 19.7355C92.3 19.7355 92.2 19.6364 92.1 19.6364C92 19.6364 91.9 19.5372 91.8 19.5372C91.7 19.5372 91.6 19.438 91.5 19.438C91.4 19.438 91.3 19.3388 91.2 19.3388C91.1 19.3388 91 19.2397 90.9 19.2397C90.8 19.2397 90.7 19.1405 90.6 19.1405H90.5H90.4C90.2 19.0413 90.1 19.0413 89.9 19.0413C89.8 19.0413 89.8 19.0413 89.7 19.0413C89.5 19.0413 89.3 18.9421 89 18.9421H88.9C88.8 18.9421 88.6 18.9421 88.5 18.9421C88.4 18.9421 88.4 18.9421 88.3 18.9421C88.2 18.9421 88.1 18.9421 88 18.9421H87.9H87.8C87.7 18.9421 87.6 18.9421 87.5 18.9421C87.4 18.9421 87.3 18.9421 87.3 18.9421C87.2 18.9421 87.1 18.9421 87 18.9421H86.9H86.8C86.7 18.9421 86.6 18.9421 86.6 19.0413C86.5 19.0413 86.5 19.0413 86.4 19.1405C86.3 19.1405 86.2 19.1405 86.2 19.2397H86.1H86C85.9 19.2397 85.8 19.3388 85.8 19.3388C85.7 19.3388 85.7 19.438 85.6 19.438C85.5 19.438 85.4 19.5372 85.4 19.5372C85.4 19.5372 85.3 19.5372 85.3 19.6364C85.3 19.6364 85.2 19.6364 85.2 19.7355L61 32.9256C61.1 32.9256 61.2 32.8264 61.3 32.8264Z" fill="#FB7070"/>
<path d="M57.5996 40.5619C57.5996 33.1238 62.8996 30.0495 69.2996 33.7189C75.6996 37.3883 80.9996 46.4131 80.9996 53.8511C80.9996 61.2891 75.6996 64.3635 69.2996 60.6941C62.7996 57.0247 57.5996 47.9999 57.5996 40.5619Z" fill="#FEE2E2"/>
<path d="M79.5996 59.5041C77.5996 62.5785 73.6996 63.2727 69.2996 60.6942C62.7996 57.0248 57.5996 48 57.5996 40.562C57.5996 36 59.5996 33.0248 62.6996 32.3306" stroke="#171A21" stroke-width="2" stroke-miterlimit="10" stroke-linecap="round" stroke-linejoin="round"/>
<path d="M104.5 46.5125C104.5 46.4133 104.5 46.4133 104.5 46.3142C104.5 46.0166 104.4 45.7191 104.4 45.4216C103.9 44.1323 102.5 43.1406 100.6 41.8513C99.9996 41.4547 96.8996 44.3307 96.8996 45.0249V45.3224C96.8996 45.6199 97.0996 46.0166 97.3996 46.1158C97.9996 46.4133 98.7996 46.9092 99.3996 47.4051C98.9996 47.8018 98.3996 48.1984 97.5996 48.6943C94.6996 50.3803 93.1996 50.1819 92.6996 50.0827C91.3996 49.9836 90.0996 49.2894 88.7996 48.5951C88.4996 48.3968 88.1996 48.3968 87.8996 48.5951C87.8996 48.5951 85.0996 51.0745 85.0996 51.7687V52.0662C85.0996 52.3637 85.2996 52.7604 85.5996 52.8596C90.6996 55.5373 95.8996 55.8348 101 52.8596C103.8 51.1737 104.7 49.7852 104.7 46.81C104.5 46.81 104.5 46.6117 104.5 46.5125Z" fill="#FEE2E2"/>
<path d="M88.2988 54.2478C92.3988 55.6363 96.5988 55.3387 100.699 52.9586C103.499 51.2726 104.399 49.8842 104.399 46.909C104.399 46.7106 104.399 46.6115 104.399 46.4131C104.399 46.3139 104.399 46.3139 104.399 46.2148C104.399 45.9173 104.299 45.6197 104.299 45.3222C104.099 44.8263 103.799 44.4297 103.399 44.033" stroke="#171A21" stroke-width="2" stroke-miterlimit="10" stroke-linecap="round" stroke-linejoin="round"/>
<path d="M108.4 62.9752L135.7 47.8016C137.2 47.0082 139.1 47.8016 140 49.6859C140.9 51.5702 140.4 53.752 138.9 54.6446L111.6 69.8181L108.4 62.9752Z" fill="#FB7070"/>
<path d="M112.7 64.8595C111.8 62.9752 109.9 62.0827 108.4 62.9752C108.1 63.1736 107.9 63.3719 107.7 63.5703L104.2 68.0331L102.9 68.7273L102.5 70.3141C102.8 70.9091 103.4 71.2066 103.8 70.9091L105.2 70.1157L105.3 70.0166V70.1157L110 70.2149C110.5 70.2149 111 70.2149 111.5 69.9174C113.1 68.9256 113.6 66.7438 112.7 64.8595Z" fill="#FEE2E2"/>
<path d="M110 62.6776C109.5 62.5784 108.9 62.6776 108.4 62.9751C108.1 63.1734 107.9 63.3718 107.7 63.5701L104.2 68.0329L102.9 68.7272L102.5 70.3139C102.8 70.909 103.4 71.2065 103.8 70.909L105.2 70.1156L105.3 70.0164V70.1156L110 70.2148C110.5 70.2148 111 70.2148 111.5 69.9172C112.1 69.6197 112.6 69.0247 112.8 68.3305" stroke="#171A21" stroke-width="2" stroke-miterlimit="10" stroke-linecap="round" stroke-linejoin="round"/>
</g>
<defs>
<clipPath id="clip0">
<rect width="144" height="144" fill="white"/>
</clipPath>
</defs>
</svg>
