<svg width="548" height="603" viewBox="0 0 548 603" fill="none" xmlns="http://www.w3.org/2000/svg">
<path d="M447.298 405.336C468.598 407.936 564.998 447.536 543.098 477.836C531.398 494.036 499.798 486.236 484.398 490.236C463.398 495.736 450.298 516.036 428.198 519.636C407.798 522.936 393.098 514.036 377.698 498.236C367.898 488.136 336.098 473.036 341.298 455.236C346.498 437.536 385.298 433.736 399.298 425.936C413.798 417.836 429.898 403.236 447.298 405.336Z" fill="#2F58FF"/>
<path d="M447.298 393.336C468.598 395.936 564.998 435.536 543.098 465.836C531.398 482.036 499.798 474.236 484.398 478.236C463.398 483.736 450.298 504.036 428.198 507.636C407.798 510.936 393.098 502.036 377.698 486.236C367.898 476.136 336.098 461.036 341.298 443.236C346.498 425.536 385.298 421.736 399.298 413.936C413.798 405.836 429.898 391.236 447.298 393.336Z" fill="#FFD394"/>
<path d="M344.498 457.436C341.398 452.936 339.898 448.136 341.398 443.136C346.598 425.436 385.398 421.636 399.398 413.836C413.798 405.836 429.898 391.236 447.298 393.236C468.598 395.836 564.998 435.436 543.098 465.736" stroke="#171A21" stroke-width="2" stroke-miterlimit="10" stroke-linecap="round" stroke-linejoin="round"/>
<path d="M478.598 194.036C482.298 194.036 485.298 197.036 485.298 200.736V430.536C485.298 434.236 482.298 437.236 478.598 437.236C474.898 437.236 471.898 434.236 471.898 430.536V200.636C471.998 197.036 474.998 194.036 478.598 194.036Z" fill="#2F58FF"/>
<path d="M483.898 215.536L423.498 180.536C419.898 178.436 417.998 182.236 420.398 186.736L435.398 214.736C436.798 217.336 436.798 220.136 435.398 221.136L420.198 231.636C417.798 233.336 419.698 239.336 423.298 241.436L483.698 276.436C485.998 277.736 487.898 276.736 487.898 274.036L487.998 222.636C487.998 220.036 486.198 216.836 483.898 215.536Z" fill="white"/>
</svg>
