<svg width="547" height="603" viewBox="0 0 547 603" fill="none" xmlns="http://www.w3.org/2000/svg">
<path d="M51.398 327.136C45.898 329.136 48.198 332.436 47.798 339.036C47.398 345.536 45.398 351.536 42.898 358.136C39.898 366.136 25.698 365.636 24.198 374.336C22.298 386.236 50.198 390.536 57.598 389.936C71.898 388.836 83.498 378.936 97.198 375.836C113.898 372.036 129.798 381.936 145.598 385.836C156.698 388.536 178.898 394.936 187.298 383.636C196.998 370.636 181.498 357.636 170.598 353.136C156.998 347.436 145.798 344.636 136.198 332.736C125.698 319.736 110.998 312.536 93.898 317.636C86.698 319.736 81.698 323.936 73.998 324.736C66.698 325.336 58.598 324.436 51.398 327.136C45.598 329.336 61.098 323.536 51.398 327.136Z" fill="#2F58FF"/>
<path d="M51.398 318.136C45.898 320.136 39.298 324.036 38.898 330.536C38.498 337.036 45.398 342.436 42.898 349.036C39.898 357.036 25.698 356.536 24.198 365.236C22.298 377.136 50.198 381.436 57.598 380.836C71.898 379.736 83.498 369.836 97.198 366.736C113.898 362.936 129.798 372.836 145.598 376.736C156.698 379.436 178.898 385.836 187.298 374.536C196.998 361.536 181.498 348.536 170.598 344.036C156.998 338.336 145.798 335.536 136.198 323.636C125.698 310.636 110.998 303.436 93.898 308.536C86.698 310.636 81.698 314.836 73.998 315.636C66.698 316.336 58.598 315.436 51.398 318.136C45.598 320.336 61.098 314.536 51.398 318.136Z" fill="#FFD394"/>
<path d="M187.398 374.536C197.098 361.536 181.598 348.536 170.698 344.036C157.098 338.336 145.898 335.536 136.298 323.636C125.798 310.636 111.098 303.436 93.9982 308.536C86.7982 310.636 81.7982 314.836 74.0982 315.636C66.5982 316.336 58.5982 315.436 51.2982 318.136C45.3982 320.336 60.9982 314.536 51.2982 318.136C45.7982 320.136 39.1982 324.036 38.7982 330.536C38.3982 337.036 45.2982 342.436 42.7982 349.036C39.7982 357.036 25.5982 356.536 24.0982 365.236C23.4982 368.936 25.6982 371.836 29.2982 374.136" stroke="#171A21" stroke-width="2" stroke-miterlimit="10" stroke-linecap="round" stroke-linejoin="round"/>
<path d="M69.4986 161.436C72.1986 161.436 74.3986 163.636 74.3986 166.336V334.436C74.3986 337.136 72.1986 339.336 69.4986 339.336C66.7986 339.336 64.5986 337.136 64.5986 334.436V166.236C64.6986 163.536 66.7986 161.436 69.4986 161.436Z" fill="white"/>
<path d="M73.5985 177.136L29.3985 151.436C26.7985 149.936 25.3985 152.736 27.0985 155.936L38.0985 176.436C39.0985 178.336 39.0985 180.436 38.0985 181.136L26.9985 188.836C25.1985 190.036 26.5985 194.436 29.2985 196.036L73.4985 221.636C75.1985 222.636 76.5985 221.836 76.5985 219.936L76.6985 182.336C76.6985 180.436 75.2985 178.136 73.5985 177.136Z" fill="#2F58FF"/>
</svg>
