<svg width="547" height="604" viewBox="0 0 547 604" fill="none" xmlns="http://www.w3.org/2000/svg">
<path d="M1.10107 538.584L30.3011 521.884L50.6011 537.784L24.5011 559.684L1.10107 538.584Z" fill="white" stroke="#171A21" stroke-width="2" stroke-miterlimit="10" stroke-linecap="round" stroke-linejoin="round"/>
<path d="M8.90125 530.784C8.90125 529.884 9.40125 529.084 10.2013 528.784L46.7013 510.184C49.0013 508.484 52.4012 508.584 56.1012 510.684L77.6012 523.084C80.8013 524.984 83.9013 528.584 85.5013 532.784L91.9013 548.384C92.1013 548.784 92.3013 549.184 92.7013 549.384L104.601 557.884C107.901 560.184 110.501 564.184 111.701 568.184C112.201 569.784 112.501 571.484 112.401 572.984C112.401 573.184 112.401 573.384 112.401 573.584C112.401 573.684 112.401 573.684 112.401 573.784L112.301 582.784C112.301 583.584 111.901 584.384 111.101 584.784L81.5013 601.784C80.1012 602.584 78.3013 601.684 78.1012 600.084L76.4012 588.184C76.3013 587.684 76.1012 587.184 75.7012 586.884L64.1012 575.784C63.9012 575.584 63.7012 575.484 63.4012 575.284L31.2013 561.684C31.0013 561.584 30.8013 561.484 30.7013 561.384L15.0013 549.184C14.8013 549.084 14.7012 548.884 14.5013 548.684L9.30125 541.284C9.00125 540.884 8.90125 540.484 8.90125 539.984V530.784Z" fill="#FFD394" stroke="#171A21" stroke-width="2" stroke-miterlimit="10" stroke-linecap="round" stroke-linejoin="round"/>
<path d="M67.4011 602.184L78.1011 596.084L66.7011 578.184L56.8011 583.684L67.4011 602.184Z" fill="#2F58FF"/>
<path d="M61.8013 584.384C64.6013 585.984 67.0013 589.184 68.3013 592.484C68.9013 594.084 69.3013 595.784 69.3013 597.384C69.3013 597.584 69.3013 597.784 69.3013 597.984C69.0013 602.384 65.7013 604.084 61.7013 601.784C57.7013 599.484 54.4013 593.984 54.2013 589.284C54.2013 589.084 54.2013 588.884 54.2013 588.684C54.2013 587.084 54.6013 585.884 55.2013 584.984C56.6013 583.184 59.0013 582.784 61.8013 584.384Z" fill="#2F58FF"/>
<path d="M21.1013 575.384L31.8013 569.284L20.4013 551.384L10.5013 556.884L21.1013 575.384Z" fill="#2F58FF"/>
<path d="M15.6011 557.584C18.4011 559.184 20.8011 562.384 22.1011 565.684C22.7011 567.284 23.1011 568.984 23.1011 570.584C23.1011 570.784 23.1011 570.984 23.1011 571.184C22.8011 575.584 19.5011 577.284 15.5011 574.984C11.5011 572.684 8.20108 567.184 8.00108 562.484C8.00108 562.284 8.00108 562.084 8.00108 561.884C8.00108 560.284 8.40108 559.084 9.00108 558.184C10.3011 556.384 12.8011 555.984 15.6011 557.584Z" fill="#2F58FF"/>
<path d="M22.5011 529.984L43.9011 542.384C47.1011 544.284 50.2011 547.884 51.8011 552.084L58.2011 567.684C58.4011 568.084 58.6011 568.484 59.0011 568.684L70.9011 577.084C74.2011 579.384 76.8011 583.384 78.0011 587.384C78.5011 589.084 78.8011 590.684 78.7011 592.284C78.7011 592.484 78.7011 592.684 78.7011 592.884C78.7011 592.984 78.7011 592.984 78.7011 593.084L78.6011 599.484C78.6011 601.284 76.7011 602.284 75.2011 601.484L71.3011 599.184C71.3011 598.984 71.3011 598.784 71.3011 598.584C71.3011 597.084 71.1011 595.784 70.6011 594.184L70.5011 593.884C70.4011 593.384 70.2011 592.984 70.0011 592.484C68.3011 588.184 65.2011 584.184 61.8011 582.284C58.4011 580.284 55.2011 580.584 53.5011 582.984C53.3011 583.284 53.2011 583.484 53.0011 583.784C52.5011 584.884 52.2011 586.184 52.2011 587.684C52.2011 587.884 52.2011 588.084 52.2011 588.284L24.9011 572.584C24.9011 572.384 24.9011 572.184 24.9011 571.984C24.9011 570.484 24.6011 568.884 24.1011 567.184C24.0011 566.684 23.8011 566.284 23.6011 565.784C21.9011 561.484 18.8011 557.484 15.4011 555.584C12.0011 553.584 8.90105 553.884 7.20106 556.284C7.00106 556.584 6.90105 556.784 6.70106 557.084C6.20106 558.184 5.90105 559.484 5.90105 560.984C5.90105 561.184 5.90105 561.384 5.90105 561.584L1.10105 558.784C0.401054 558.384 0.00105286 557.584 0.00105286 556.784V541.284C0.101051 530.684 11.201 523.384 22.5011 529.984Z" fill="white"/>
<path d="M86.2013 550.284L63.8013 563.084C62.2013 563.984 60.2013 563.284 59.5013 561.684L54.2013 549.784C53.6013 548.384 54.1013 546.684 55.5013 545.884L78.0013 533.184C79.6013 532.284 81.6013 532.984 82.3013 534.584L87.5013 546.284C88.1013 547.784 87.6013 549.484 86.2013 550.284Z" fill="#FFF6EA" stroke="#171A21" stroke-width="2" stroke-miterlimit="10" stroke-linecap="round" stroke-linejoin="round" stroke-dasharray="12 12"/>
<path d="M108.601 570.984C109.401 570.584 110.001 570.484 110.501 570.784L112.301 571.784C111.801 571.484 111.101 571.584 110.401 571.984C108.901 572.884 107.701 574.984 107.701 576.684C107.701 577.584 108.001 578.184 108.501 578.384L106.701 577.384C106.201 577.084 105.901 576.484 105.901 575.684C105.901 573.884 107.101 571.784 108.601 570.984Z" fill="#2F58FF"/>
<path d="M110.401 571.984C108.901 572.884 107.701 574.984 107.701 576.684C107.701 578.384 108.901 579.084 110.401 578.184C111.901 577.284 113.101 575.184 113.101 573.484C113.101 571.784 111.901 571.084 110.401 571.984Z" fill="#2F58FF"/>
<path d="M83.7014 585.284C84.5014 584.884 85.1014 584.784 85.6014 585.084L87.4014 586.084C86.9014 585.784 86.2014 585.884 85.5014 586.284C84.0014 587.184 82.8014 589.284 82.8014 590.984C82.8014 591.884 83.1014 592.484 83.6014 592.684L81.8014 591.684C81.3014 591.384 81.0014 590.784 81.0014 589.984C81.0014 588.184 82.2014 586.184 83.7014 585.284Z" fill="#2F58FF"/>
<path d="M85.5012 586.284C84.0012 587.184 82.8012 589.284 82.8012 590.984C82.8012 592.684 84.0012 593.384 85.5012 592.484C87.0012 591.584 88.2012 589.484 88.2012 587.784C88.2012 586.084 87.0012 585.484 85.5012 586.284Z" fill="#2F58FF"/>
</svg>
