<svg width="547" height="603" viewBox="0 0 547 603" fill="none" xmlns="http://www.w3.org/2000/svg">
<path d="M253.898 135.636C245.798 130.936 237.098 131.036 230.898 134.536L210.298 146.336C208.898 147.136 208.898 149.736 210.298 152.236C213.198 157.236 216.798 161.236 220.498 163.936C221.298 164.536 222.198 165.136 222.998 165.636C223.898 166.136 224.698 166.536 225.498 166.936C226.398 168.436 227.298 169.836 228.298 171.236C230.598 174.236 233.098 176.836 235.698 178.736C236.498 179.336 237.398 179.936 238.198 180.436C241.798 182.536 245.298 183.336 248.398 182.736C248.498 182.836 248.598 182.936 248.698 183.136C251.698 187.136 255.198 190.336 258.598 192.336C263.198 195.036 267.798 195.636 271.398 193.636L276.698 190.636C278.798 189.436 281.598 189.836 284.398 191.436C287.198 193.036 289.898 195.836 291.998 199.536C292.098 199.736 292.398 199.936 292.598 200.136C294.998 201.536 301.898 199.736 303.198 198.936C303.198 198.936 273.798 157.536 263.698 144.636C260.798 140.536 257.398 137.636 253.898 135.636Z" fill="#FFD394"/>
<path d="M303.298 198.736C303.298 198.736 273.898 157.336 263.798 144.436C260.798 140.536 257.398 137.736 253.898 135.636" stroke="#171A21" stroke-width="2" stroke-miterlimit="10" stroke-linecap="round" stroke-linejoin="round"/>
<path d="M248.798 182.936C251.798 186.936 255.298 190.136 258.698 192.136C263.298 194.836 267.898 195.436 271.498 193.436L276.798 190.436C278.898 189.236 281.698 189.636 284.498 191.236" stroke="#171A21" stroke-width="2" stroke-miterlimit="10" stroke-linecap="round" stroke-linejoin="round"/>
<path d="M225.498 166.936C226.398 168.436 227.298 169.836 228.298 171.236C230.598 174.236 233.098 176.836 235.698 178.736C236.498 179.336 237.398 179.936 238.198 180.436C240.998 182.036 243.498 183.936 246.598 182.936C248.798 182.236 252.298 179.936 254.698 178.636" stroke="#171A21" stroke-width="2" stroke-miterlimit="10" stroke-linecap="round" stroke-linejoin="round"/>
<path d="M253.898 135.636C245.798 130.936 237.098 131.036 230.898 134.536L210.298 146.336C208.898 147.136 208.898 149.736 210.298 152.236C213.198 157.236 216.798 161.236 220.498 163.936C221.298 164.536 222.498 165.436 222.998 165.636C226.498 166.636 232.898 162.736 236.598 160.636" stroke="#171A21" stroke-width="2" stroke-miterlimit="10" stroke-linecap="round" stroke-linejoin="round"/>
<path d="M283.699 224.036L355.299 182.736C357.099 181.636 359.499 183.036 359.499 185.136L359.699 257.536C359.699 261.536 357.599 265.136 354.199 267.136L283.999 307.636C280.599 309.636 276.299 309.636 272.899 307.636L203.199 267.136C199.799 265.136 197.699 261.536 197.699 257.536L197.499 185.136C197.499 183.036 199.799 181.636 201.699 182.736L272.699 224.036C275.999 226.036 280.299 226.036 283.699 224.036Z" fill="#2F58FF"/>
<path d="M201.498 182.736L272.598 224.036C275.998 226.036 280.298 226.036 283.698 224.036L355.298 182.736C357.098 181.636 357.098 179.036 355.298 177.936L284.198 136.636C280.798 134.636 276.498 134.636 273.098 136.636L201.498 177.936C199.698 179.036 199.698 181.636 201.498 182.736Z" fill="#FFD394"/>
<path d="M325.698 160.936L306.198 149.536L224.898 196.536L244.398 207.836L325.698 160.936Z" fill="white" stroke="#171A21" stroke-width="2" stroke-miterlimit="10" stroke-linecap="round" stroke-linejoin="round" stroke-dasharray="12 12"/>
<path d="M197.398 186.736C197.398 182.736 199.498 179.136 202.898 177.136L273.098 136.636C276.498 134.636 280.798 134.636 284.198 136.636L353.898 177.136C357.298 179.136 359.398 182.736 359.398 186.736" stroke="#171A21" stroke-width="2" stroke-miterlimit="10" stroke-linecap="round" stroke-linejoin="round"/>
<path d="M183.898 188.136C175.798 183.436 167.098 183.536 160.898 187.036L140.298 198.836C138.898 199.636 138.898 202.236 140.298 204.736C143.198 209.736 146.798 213.736 150.498 216.436C151.298 217.036 152.198 217.636 152.998 218.136C153.898 218.636 154.698 219.036 155.498 219.436C156.398 220.936 157.298 222.336 158.298 223.736C160.598 226.736 163.098 229.336 165.698 231.236C166.498 231.836 167.398 232.436 168.198 232.936C171.798 235.036 175.298 235.836 178.398 235.236C178.498 235.336 178.598 235.436 178.698 235.636C181.698 239.636 185.198 242.836 188.598 244.836C193.198 247.536 197.798 248.136 201.398 246.136L206.698 243.136C208.798 241.936 211.598 242.336 214.398 243.936C217.198 245.536 219.898 248.336 221.998 252.036C222.098 252.236 222.398 252.436 222.598 252.636C224.998 254.036 231.898 252.236 233.198 251.436C233.198 251.436 203.798 210.036 193.698 197.136C190.798 193.036 187.398 190.136 183.898 188.136Z" fill="#FFD394"/>
<path d="M233.298 251.136C233.298 251.136 203.898 209.736 193.798 196.836C190.798 192.936 187.398 190.136 183.898 188.036" stroke="#171A21" stroke-width="2" stroke-miterlimit="10" stroke-linecap="round" stroke-linejoin="round"/>
<path d="M178.798 235.436C181.798 239.436 185.298 242.636 188.698 244.636C193.298 247.336 197.898 247.936 201.498 245.936L206.798 242.936C208.898 241.736 211.698 242.136 214.498 243.736" stroke="#171A21" stroke-width="2" stroke-miterlimit="10" stroke-linecap="round" stroke-linejoin="round"/>
<path d="M155.498 219.436C156.398 220.936 157.298 222.336 158.298 223.736C160.598 226.736 163.098 229.336 165.698 231.236C166.498 231.836 167.398 232.436 168.198 232.936C170.998 234.536 173.498 236.436 176.598 235.436C178.798 234.736 182.298 232.436 184.698 231.136" stroke="#171A21" stroke-width="2" stroke-miterlimit="10" stroke-linecap="round" stroke-linejoin="round"/>
<path d="M183.898 188.136C175.798 183.436 167.098 183.536 160.898 187.036L140.298 198.836C138.898 199.636 138.898 202.236 140.298 204.736C143.198 209.736 146.798 213.736 150.498 216.436C151.298 217.036 152.498 217.936 152.998 218.136C156.498 219.136 162.898 215.236 166.598 213.136" stroke="#171A21" stroke-width="2" stroke-miterlimit="10" stroke-linecap="round" stroke-linejoin="round"/>
</svg>
