<svg width="547" height="603" viewBox="0 0 547 603" fill="none" xmlns="http://www.w3.org/2000/svg">
<path d="M500.598 535.036C503.798 536.136 506.898 538.536 509.798 535.536C511.898 533.436 510.598 530.636 512.298 528.136C515.398 523.636 522.798 524.536 525.498 520.136C530.198 512.636 521.298 513.136 516.598 512.536C510.798 511.736 507.098 508.036 501.598 506.336C495.298 504.336 486.698 503.136 481.298 507.936C477.898 510.936 478.098 513.436 477.998 517.536C477.998 519.036 476.598 525.136 476.998 526.136C479.698 533.036 485.098 526.236 489.798 527.236C493.498 528.036 491.898 530.036 493.698 531.536C496.198 533.436 497.598 534.036 500.598 535.036Z" fill="#2F58FF"/>
<path d="M500.598 528.736C503.798 529.836 506.898 532.236 509.798 529.236C511.898 527.136 510.598 524.336 512.298 521.836C515.398 517.336 522.798 518.236 525.498 513.836C530.198 506.336 521.298 506.836 516.598 506.236C510.798 505.436 507.098 501.736 501.598 500.036C495.298 498.036 486.698 496.836 481.298 501.636C477.898 504.636 478.098 507.136 477.998 511.236C477.998 512.736 476.598 518.836 476.998 519.836C479.698 526.736 485.098 519.936 489.798 520.936C493.498 521.736 491.898 523.736 493.698 525.236C496.198 527.136 497.598 527.736 500.598 528.736Z" fill="#FFD394"/>
<path d="M525.598 513.936C530.298 506.436 521.398 506.936 516.698 506.336C510.898 505.536 507.198 501.836 501.698 500.136C495.398 498.136 486.798 496.936 481.398 501.736C477.998 504.736 478.198 507.236 478.098 511.336C478.098 512.836 476.698 518.936 477.098 519.936C478.098 522.536 479.498 523.136 481.098 523.036" stroke="#171A21" stroke-width="2" stroke-miterlimit="10" stroke-linecap="round" stroke-linejoin="round"/>
</svg>
