<svg width="547" height="604" viewBox="0 0 547 604" fill="none" xmlns="http://www.w3.org/2000/svg">
<path d="M497.825 39.0418C497.825 39.0418 497.925 39.0418 497.925 38.9418C498.625 38.5418 499.425 38.2418 500.525 38.2418C502.025 38.1418 503.325 38.3418 504.325 38.9418L510.625 42.6418C511.625 43.2418 512.125 44.0418 511.925 44.9418L499.025 88.9418L465.625 72.2418C496.725 40.1418 497.225 39.4418 497.825 39.0418Z" fill="#2F58FF"/>
<path d="M416.225 35.2418L434.025 47.2418C435.225 45.0418 438.125 28.8418 439.225 22.8418C439.425 21.4418 438.925 20.0418 437.825 19.1418L437.225 18.6418C436.425 17.9418 435.225 17.9418 434.425 18.7418L416.625 35.0418L416.225 35.2418Z" fill="#2F58FF"/>
<path d="M407.025 35.4418C407.125 35.3418 407.125 35.2418 407.125 35.1418C407.925 33.3418 408.925 33.5418 410.625 33.5418C410.725 33.5418 411.225 33.7418 411.925 34.1418L406.125 4.44179C405.725 2.44179 407.625 0.741788 409.625 1.44179C411.325 2.44179 414.125 4.54179 414.925 6.74179C418.125 15.0418 428.425 36.0418 430.925 44.0418C458.825 59.1418 506.225 85.4418 511.925 90.0418C520.825 97.1418 518.125 104.342 523.325 109.842C526.925 113.842 526.925 115.942 526.925 115.942C526.925 116.142 526.925 116.242 526.925 116.342C526.925 117.242 526.625 117.842 526.125 118.442C522.925 121.442 511.525 118.142 503.025 115.742C492.825 112.842 431.225 73.3418 428.525 71.0418C425.725 68.6418 409.225 46.4418 407.125 41.2418C405.625 37.6418 405.825 37.3418 406.325 36.7418C406.425 36.4418 406.725 36.0418 407.025 35.4418Z" fill="#FFD394"/>
<path d="M501.225 83.3418C506.625 86.5418 510.525 88.9418 511.925 90.1418C520.825 97.2418 518.125 104.442 523.325 109.942C526.925 113.842 526.925 115.942 526.925 115.942C526.925 116.142 526.925 116.242 526.925 116.342C526.925 117.242 526.625 117.842 526.125 118.442C522.925 121.442 511.525 118.142 503.025 115.742C492.825 112.842 431.225 73.3418 428.525 71.0418C425.725 68.6418 409.725 46.1418 407.125 41.2418C405.325 37.8418 405.625 35.8418 406.825 35.1418C408.425 34.0418 411.325 33.7418 412.025 34.1418L406.225 4.44179C405.825 2.44179 407.725 0.741788 409.725 1.44179C411.425 2.44179 414.225 4.54179 415.025 6.74179C416.925 11.6418 421.225 20.8418 425.025 29.2418" stroke="#171A21" stroke-width="2" stroke-miterlimit="10" stroke-linecap="round" stroke-linejoin="round"/>
<path d="M430.925 44.1418C442.525 50.4418 457.525 58.6418 471.425 66.4418" stroke="#171A21" stroke-width="2" stroke-miterlimit="10" stroke-linecap="round" stroke-linejoin="round"/>
<path d="M378.825 53.6418C377.725 54.0418 377.725 55.6418 378.825 56.0418C380.325 56.6418 382.825 57.0418 385.325 56.8418C393.625 56.3418 414.325 57.7418 422.625 56.4418C424.725 56.1418 426.025 55.5418 426.125 54.7418C427.025 49.0418 409.925 40.8418 409.925 40.8418L409.225 41.1418L378.825 53.6418Z" fill="white"/>
<path d="M398.725 99.3418C399.325 98.9418 400.525 98.7418 454.525 81.3418C455.525 81.0418 456.725 81.1418 457.425 81.6418L482.325 98.4418C483.125 99.0418 483.025 99.8418 482.225 100.242C481.925 100.442 481.525 100.542 480.925 100.642L408.825 107.542C407.325 107.642 405.925 107.442 404.925 106.842L398.625 103.142C397.625 102.542 397.125 101.742 397.325 100.942C397.425 100.342 397.925 99.8418 398.625 99.4418C398.625 99.3418 398.725 99.3418 398.725 99.3418Z" fill="white"/>
<path d="M512.425 104.642C513.525 104.642 514.525 104.542 515.325 104.342C516.125 104.142 516.525 104.042 516.725 103.942C517.125 103.842 517.525 104.042 517.725 104.442C518.225 105.542 518.325 106.242 518.625 107.242C518.725 107.542 518.625 107.842 518.425 108.042C518.025 108.342 517.625 108.742 516.925 109.042C515.925 109.442 514.325 109.342 512.525 109.142C510.225 108.742 507.925 108.142 506.825 107.842C506.425 107.742 506.125 107.242 506.225 106.842L506.725 105.042C506.825 104.642 507.225 104.342 507.625 104.442C508.625 104.442 510.625 104.642 512.425 104.642Z" fill="white"/>
</svg>
