<svg width="547" height="603" viewBox="0 0 547 603" fill="none" xmlns="http://www.w3.org/2000/svg">
<path d="M373.098 372.036L355.498 364.736C355.398 364.636 355.298 364.636 355.098 364.536C354.298 364.036 353.398 363.436 352.498 362.936L323.298 346.136C322.598 345.736 321.698 345.736 320.998 346.136L317.498 348.136C316.898 348.536 316.198 348.536 315.498 348.236L307.898 345.136C306.398 344.536 304.798 345.636 304.798 347.236V356.836C304.798 357.536 305.198 358.336 305.898 358.736L322.998 368.636C340.598 378.836 351.198 381.836 368.498 382.736C369.298 382.736 370.098 382.336 370.598 381.636L373.798 376.136L374.298 375.336C374.898 374.036 374.398 372.536 373.098 372.036Z" fill="#2F58FF"/>
<path d="M353.499 350.936L326.299 335.236C324.399 334.136 321.999 334.136 320.099 335.236L306.399 343.136C305.199 343.836 305.199 345.636 306.399 346.336L323.999 356.536C338.999 365.236 355.499 370.936 372.599 373.336C374.199 373.536 375.299 371.836 374.399 370.536C368.999 362.536 361.899 355.736 353.499 350.936Z" fill="#FFD394"/>
<path d="M372.498 373.436C374.098 373.636 375.198 371.936 374.298 370.636C368.898 362.536 361.798 355.836 353.398 351.036L326.198 335.336C324.298 334.236 321.898 334.236 319.998 335.336L306.298 343.236C305.098 343.936 305.098 345.736 306.298 346.436" stroke="#171A21" stroke-width="2" stroke-miterlimit="10" stroke-linecap="round" stroke-linejoin="round"/>
<path d="M359.198 356.536L348.498 352.136C348.398 352.136 348.298 352.036 348.298 352.036C347.798 351.736 347.298 351.436 346.698 351.036L328.898 340.736C328.498 340.536 327.898 340.536 327.498 340.736L325.398 341.936C324.998 342.136 324.598 342.136 324.198 342.036L319.598 340.136C318.698 339.736 317.698 340.436 317.698 341.436V347.236C317.698 347.736 317.898 348.136 318.398 348.436L328.798 354.436C339.498 360.636 345.998 362.536 356.498 363.036C356.998 363.036 357.498 362.836 357.798 362.336L359.698 359.036L359.998 358.536C360.298 357.736 359.898 356.836 359.198 356.536Z" fill="#2F58FF"/>
<path d="M347.198 343.736L330.598 334.136C329.398 333.436 327.998 333.436 326.798 334.136L318.398 338.936C317.598 339.336 317.598 340.436 318.398 340.936L329.098 347.136C338.198 352.436 348.298 355.836 358.698 357.436C359.698 357.536 360.398 356.536 359.798 355.736C356.698 350.736 352.298 346.636 347.198 343.736Z" fill="white"/>
</svg>
