<svg width="547" height="603" viewBox="0 0 547 603" fill="none" xmlns="http://www.w3.org/2000/svg">
<path d="M438.664 510.672C459.2 498.756 459.094 479.393 438.451 467.371C417.808 455.455 384.29 455.455 363.754 467.371L234.577 542.377C219.467 551.208 194.674 551.208 179.458 542.377C164.242 533.547 164.136 519.29 179.246 510.459L308.423 435.453C328.959 423.537 328.853 404.174 308.21 392.258C287.567 380.342 254.049 380.342 233.513 392.258L133.597 450.029C118.488 458.859 93.695 458.859 78.4789 450.029C63.2628 441.198 63.1564 426.942 78.2661 418.111L173.712 363" stroke="#171A21" stroke-width="2" stroke-miterlimit="10" stroke-linecap="round" stroke-linejoin="round" stroke-dasharray="12 12"/>
</svg>
