<?xml version="1.0" encoding="utf-8"?>
<!-- Generator: Adobe Illustrator 22.1.0, SVG Export Plug-In . SVG Version: 6.00 Build 0)  -->
<svg version="1.1" id="Слой_1" xmlns="http://www.w3.org/2000/svg" xmlns:xlink="http://www.w3.org/1999/xlink" x="0px" y="0px"
	 viewBox="0 0 583 516.4" style="enable-background:new 0 0 583 516.4;" xml:space="preserve">
<style type="text/css">
	.st0{fill:#FFFFFF;}
	.st1{fill:#9AF4DC;}
	.st2{fill:none;stroke:#171A21;stroke-width:2;stroke-linecap:round;stroke-linejoin:round;stroke-miterlimit:10;}
</style>
<g id="_x32_">
	<path class="st0" d="M543.6,379.8l38.7,41.6c1.1,1.1,0.7,2.9-0.5,3.8l-34.6,20c-1.6,0.9-3.6-0.2-3.6-2L543.6,379.8L543.6,379.8z"/>
	<path class="st1" d="M544,379.8l-38.9,41.6c-1.1,1.1-0.7,2.9,0.5,3.8l34.6,19.8c1.6,0.9,3.6-0.2,3.6-2L544,379.8z"/>
	<path class="st2" d="M545.1,446.4c-0.7,0.4-1.6,0.4-2.3,0L505.6,425c-1.3-0.7-1.6-2.5-0.5-3.8l37.6-40.2c0.7-0.7,1.6-0.7,2.3,0"/>
</g>
</svg>
