<?xml version="1.0" encoding="utf-8"?>
<!-- Generator: Adobe Illustrator 22.1.0, SVG Export Plug-In . SVG Version: 6.00 Build 0)  -->
<svg version="1.1" id="Слой_1" xmlns="http://www.w3.org/2000/svg" xmlns:xlink="http://www.w3.org/1999/xlink" x="0px" y="0px"
	 viewBox="0 0 583 516.4" style="enable-background:new 0 0 583 516.4;" xml:space="preserve">
<style type="text/css">
	.st0{fill:#2F58FF;}
	.st1{fill:#FFFFFF;}
</style>
<g id="_x39_">
	<path class="st0" d="M324.1,113.9c0,0-0.1,0-0.1-0.1h-0.1h-0.1h-0.1c0,0,0,0-0.1,0s-0.2,0-0.3,0c-0.1,0-0.3,0-0.6,0
		c-0.2,0-0.5,0.1-0.9,0.2c0,0,0,0-0.1,0c-0.3,0.1-0.7,0.2-1,0.3c-0.1,0-0.1,0-0.2,0.1c-0.3,0.1-0.7,0.2-1.1,0.4h-0.1
		c-0.3,0.1-0.8,0.3-1.1,0.4H318c-0.4,0.2-0.8,0.3-1.2,0.6c-0.1,0-0.1,0.1-0.2,0.1c-0.4,0.2-0.8,0.4-1.2,0.7c-0.1,0-0.1,0.1-0.2,0.1
		c-0.4,0.2-0.9,0.4-1.3,0.7c-1.8,1-3.6,2.2-5.1,3.3c-0.2,0.1-0.4,0.3-0.7,0.5c-0.1,0-0.1,0.1-0.2,0.1c-0.2,0.2-0.4,0.3-0.7,0.5
		s-0.4,0.4-0.8,0.5c-0.1,0-0.1,0.1-0.2,0.1c-0.2,0.2-0.4,0.4-0.8,0.7c-0.2,0.2-0.5,0.4-0.8,0.7c-0.1,0-0.1,0.1-0.2,0.2
		c-0.2,0.2-0.4,0.4-0.8,0.7c-0.2,0.2-0.4,0.4-0.8,0.7c-0.1,0.1-0.1,0.1-0.2,0.2c-0.2,0.2-0.4,0.4-0.7,0.7c-0.2,0.2-0.4,0.4-0.8,0.8
		c-0.1,0.1-0.1,0.1-0.2,0.2c-0.4,0.4-0.9,1-1.3,1.4c0,0.1-0.1,0.1-0.1,0.2c-0.2,0.2-0.4,0.4-0.7,0.7s-0.4,0.4-0.5,0.7l-0.1,0.1
		c-0.2,0.2-0.3,0.4-0.5,0.7c0,0,0,0,0,0.1c-0.2,0.2-0.4,0.5-0.5,0.8c0,0,0,0,0,0.1c-0.1,0.1-0.2,0.3-0.3,0.4c0,0,0,0,0,0.1
		c0,0,0,0.1-0.1,0.1c0,0.1-0.1,0.1-0.1,0.2c0,0,0,0.1-0.1,0.1c0,0,0,0.1-0.1,0.1v0.1c0,0,0,0,0,0.1s-0.1,0.2-0.1,0.2s0,0.1-0.1,0.1
		c0,0,0,0.1-0.1,0.1c0,0,0,0.1-0.1,0.1v0.1v0.1v0.1v0.1c0,0,0,0,0,0.1s0,0.1,0,0.2c0,0.1,0.1,0.1,0.1,0.2l7.1,4.2
		c-0.1,0.1-0.3,0.3-0.4,0.4c-0.1,0.1-0.1,0.1-0.2,0.2c-0.5,0.7-1.2,1.2-1.8,1.9c-0.1,0.1-0.3,0.3-0.4,0.4c-0.5,0.5-1,1.1-1.5,1.5
		c-0.3,0.3-0.7,0.7-1,1s-0.7,0.7-1,1s-0.7,0.7-1,1s-0.7,0.7-0.9,1c-0.3,0.3-0.5,0.5-0.9,0.9c-0.3,0.3-0.7,0.7-1.1,1.1
		c-0.3,0.3-0.7,0.7-0.9,0.9c-0.3,0.3-0.7,0.7-1,1c0,0,0,0-0.1,0.1c-0.8,0.8-1.6,1.5-2.4,2.3c-0.2,0.2-0.4,0.4-0.7,0.5
		c-0.8,0.8-1.6,1.5-2.4,2.3c0,0,0,0-0.1,0c-0.8,0.8-1.5,1.4-2.4,2.2c-0.2,0.2-0.4,0.3-0.7,0.5c-0.8,0.8-1.5,1.4-2.4,2.1
		c-0.8,0.7-1.5,1.3-2.3,2c-0.2,0.2-0.4,0.3-0.5,0.5c-0.8,0.7-1.5,1.3-2.3,2s-1.5,1.2-2.3,1.9c-0.2,0.1-0.3,0.3-0.6,0.4
		c-0.8,0.7-1.5,1.2-2.3,1.8c-0.8,0.5-1.4,1.1-2.2,1.6c-0.2,0.1-0.3,0.3-0.5,0.4c-0.8,0.5-1.4,1.1-2.2,1.6c-0.8,0.5-1.4,1-2.2,1.5
		c-0.2,0.1-0.3,0.2-0.5,0.3c-0.8,0.5-1.4,1-2.2,1.5c-0.7,0.4-1.4,1-2.1,1.4c-0.2,0.1-0.3,0.2-0.6,0.3c-0.7,0.4-1.4,0.9-2.1,1.3
		s-1.3,0.9-2.1,1.2c-0.2,0.1-0.3,0.2-0.5,0.3c-0.7,0.4-1.3,0.8-2.1,1.2c-0.9,0.5-1.8,1-2.6,1.4c-0.2,0.1-0.4,0.2-0.5,0.3
		c-0.9,0.4-1.6,0.9-2.5,1.3c-0.1,0.1-0.2,0.1-0.3,0.2c-0.8,0.3-1.5,0.8-2.2,1.1c-0.2,0.1-0.3,0.2-0.5,0.2c-0.8,0.4-1.6,0.8-2.4,1.1
		c-0.1,0.1-0.3,0.1-0.4,0.2c-0.8,0.3-1.4,0.7-2.2,0.9c-0.1,0-0.2,0.1-0.3,0.1c-0.2,0.1-0.5,0.2-0.8,0.3c-0.8,0.3-1.4,0.5-2.2,0.9
		c-0.3,0.1-0.7,0.2-1,0.4c-0.7,0.2-1.2,0.4-1.9,0.7c-0.3,0.1-0.8,0.2-1.1,0.3c-0.5,0.2-1.2,0.4-1.8,0.6c-0.3,0.1-0.7,0.2-1,0.3
		c-0.7,0.2-1.2,0.3-1.9,0.5c-0.3,0.1-0.7,0.2-0.9,0.2c-0.4,0.1-1,0.2-1.4,0.3c-0.3,0.1-0.7,0.2-1.1,0.2c-0.4,0.1-1,0.2-1.4,0.3
		c-0.3,0.1-0.7,0.1-1,0.2c-0.5,0.1-1,0.2-1.5,0.3c-0.3,0-0.5,0.1-0.9,0.1c-0.7,0.1-1.3,0.2-2,0.3c-0.1,0-0.2,0-0.3,0.1
		c-0.8,0.1-1.5,0.2-2.3,0.3c-0.2,0-0.5,0.1-0.8,0.1c-0.5,0.1-1,0.1-1.5,0.2c-0.3,0-0.5,0-0.9,0.1c-0.4,0-0.9,0.1-1.3,0.1
		c-0.3,0-0.7,0-1,0.1c-0.4,0-0.9,0-1.3,0.1c-0.2,0-0.6,0-0.8,0c-0.7,0-1.3,0-2,0.1c-0.2,0-0.4,0-0.6,0c-0.9,0-1.6,0-2.4,0
		c-0.2,0-0.3,0-0.5,0c-0.7,0-1.3,0-2,0c-0.2,0-0.4,0-0.7,0c-0.8,0-1.4-0.1-2.1-0.1c-0.1,0-0.1,0-0.2,0c-1.2-0.1-2.4-0.2-3.5-0.3
		c0,0,0,0-0.1,0c-1.2-0.1-2.3-0.2-3.4-0.3c-1.1-0.1-2.2-0.2-3.3-0.3s-2.1-0.2-3.2-0.4h-0.1h-0.1H180h-0.1c-0.1,0-0.2,0-0.2,0.1
		c-0.1,0-0.2,0.1-0.3,0.1c-0.1,0.1-0.2,0.1-0.3,0.2c0,0,0,0-0.1,0.1s-0.2,0.1-0.2,0.2c0,0,0,0-0.1,0.1l-0.1,0.1c0,0,0,0-0.1,0.1
		l-0.1,0.1c0,0,0,0.1-0.1,0.1c0,0,0,0.1-0.1,0.1c0,0,0,0,0,0.1v0.1v0.1v0.1v0.1v0.1c0,0,0,0,0,0.1c0,0,0,0,0,0.1c0,0,0,0,0,0.1v0.1
		v0.1c0,0.1,0,0.2,0,0.2c0,0.1,0,0.1,0,0.2v0.1c0,0.1,0,0.1,0.1,0.2v0.1c0,0.1,0.1,0.1,0.1,0.1s0,0.1,0.1,0.1c0,0.1,0.1,0.1,0.1,0.2
		c0,0,0,0,0.1,0.1s0.2,0.1,0.2,0.2c1.1,0.9,2.4,1.8,4.1,2.7l22,12.7c-1.6-1-3-1.9-4.1-2.7c-0.1-0.1-0.2-0.1-0.2-0.2c0,0,0,0-0.1-0.1
		c0-0.1-0.1-0.1-0.1-0.2c0,0,0-0.1-0.1-0.1c0,0-0.1-0.1-0.1-0.2v-0.1c0-0.1,0-0.1-0.1-0.2v-0.1c0-0.1,0-0.1-0.1-0.2
		c0-0.1,0-0.2,0-0.2v1.1c0-0.1,0-0.1,0-0.2c0,0,0,0,0-0.1s0-0.1,0.1-0.2c0-0.1,0.1-0.2,0.1-0.2c0-0.1,0.1-0.2,0.1-0.2
		c0-0.1,0.1-0.2,0.1-0.2c0-0.1,0.1-0.1,0.1-0.2l0.1-0.1c0,0,0,0,0.1-0.1s0.2-0.1,0.2-0.2c0,0,0,0,0.1-0.1s0.2-0.1,0.3-0.2
		c0.1-0.1,0.2-0.1,0.3-0.1s0.2-0.1,0.3-0.1s0.2,0,0.2,0c0.1,0,0.2,0,0.2,0c1,0.1,2.1,0.2,3.2,0.4c1.1,0.1,2.2,0.2,3.3,0.3
		c0,0,0,0,0.1,0c1.1,0.1,2.2,0.2,3.4,0.3c0,0,0,0,0.1,0c1.2,0.1,2.3,0.2,3.5,0.3h0.1c0.7,0,1.4,0.1,2.1,0.1c0.2,0,0.4,0,0.7,0
		c0.7,0,1.3,0,2,0c0.2,0,0.3,0,0.5,0c0.8,0,1.6,0,2.4,0c0.2,0,0.4,0,0.5,0c0.7,0,1.3,0,2-0.1c0.1,0,0.3,0,0.4,0s0.2,0,0.3,0
		c0.4,0,0.9,0,1.3-0.1c0.3,0,0.7,0,0.9-0.1c0.4,0,0.9-0.1,1.4-0.1c0.3,0,0.5,0,0.9-0.1c0.5,0,1-0.1,1.5-0.2c0.2,0,0.5,0,0.8-0.1
		c0.8-0.1,1.5-0.2,2.3-0.3c0.1,0,0.2,0,0.3,0c0.7-0.1,1.3-0.2,2-0.3c0.3,0,0.5-0.1,0.9-0.1c0.5-0.1,1-0.2,1.5-0.3
		c0.3-0.1,0.7-0.1,1-0.2c0.4-0.1,1-0.2,1.4-0.3c0.3-0.1,0.7-0.2,1.1-0.2c0.4-0.1,1-0.2,1.4-0.3c0.1,0,0.1,0,0.2-0.1
		c0.2-0.1,0.4-0.1,0.7-0.2c0.7-0.2,1.2-0.3,1.9-0.5c0.3-0.1,0.7-0.2,1.1-0.3c0.5-0.2,1.2-0.3,1.8-0.5c0.3-0.1,0.8-0.2,1.1-0.3
		c0.7-0.2,1.2-0.4,1.9-0.7c0.3-0.1,0.7-0.2,1-0.4c0.8-0.2,1.4-0.5,2.2-0.9c0.2-0.1,0.4-0.1,0.7-0.2c0,0,0.1,0,0.1-0.1
		c0.1,0,0.2-0.1,0.3-0.1c0.7-0.3,1.4-0.7,2.2-0.9c0.1-0.1,0.3-0.1,0.4-0.2c0.8-0.3,1.6-0.8,2.4-1.1c0.2-0.1,0.3-0.1,0.5-0.2
		c0.8-0.3,1.5-0.8,2.2-1.1c0.1-0.1,0.2-0.1,0.3-0.2c0.9-0.4,1.6-0.9,2.5-1.3c0.2-0.1,0.4-0.2,0.5-0.3c0.9-0.4,1.8-1,2.6-1.4
		c0.7-0.4,1.3-0.8,2.1-1.2c0.2-0.1,0.3-0.2,0.5-0.3c0.7-0.4,1.3-0.9,2.1-1.2c0.7-0.4,1.4-0.9,2.1-1.3c0.2-0.1,0.3-0.2,0.5-0.3
		c1.4-0.9,2.9-1.9,4.3-2.9c0.2-0.1,0.3-0.2,0.5-0.3c0.8-0.5,1.4-1,2.2-1.5c0.8-0.5,1.4-1.1,2.2-1.6c0.2-0.1,0.3-0.3,0.5-0.4
		c0.8-0.5,1.4-1.1,2.2-1.8c0.8-0.5,1.5-1.2,2.3-1.8c0.2-0.1,0.3-0.3,0.5-0.4c0.8-0.7,1.5-1.2,2.3-1.9s1.5-1.3,2.3-2
		c0.2-0.2,0.4-0.3,0.5-0.5c0.8-0.7,1.5-1.3,2.3-2s1.5-1.4,2.4-2.1c0.2-0.2,0.4-0.3,0.5-0.5c0.8-0.8,1.5-1.4,2.4-2.2c0,0,0,0,0.1,0
		c0.8-0.8,1.6-1.5,2.4-2.3c0.2-0.2,0.4-0.4,0.7-0.5c0.8-0.8,1.6-1.5,2.4-2.3c0.3-0.3,0.7-0.7,1-1s0.7-0.7,1-1s0.5-0.6,0.9-0.9
		c0.3-0.3,0.7-0.8,1.1-1.1c0.2-0.2,0.5-0.5,0.8-0.8c0.3-0.4,0.8-0.8,1.1-1.2c0.2-0.2,0.4-0.4,0.7-0.8c0.4-0.4,0.9-0.9,1.2-1.3
		c0.2-0.2,0.4-0.4,0.7-0.8c0.1-0.1,0.2-0.2,0.2-0.3l12.9,7.5l-0.1-0.1v-0.1c0,0,0,0,0-0.1s0-0.1,0-0.2v-0.1c0-0.1,0-0.2,0-0.3
		c0,0,0,0,0-0.1s0-0.2,0.1-0.3V162c0-0.1,0-0.2,0.1-0.3c0-0.1,0.1-0.2,0.1-0.4c0-0.1,0.1-0.2,0.1-0.3v-0.1c0-0.1,0.1-0.2,0.1-0.3
		s0-0.1,0.1-0.2c0-0.1,0.1-0.2,0.1-0.3s0-0.1,0.1-0.2c0-0.1,0.1-0.2,0.1-0.3s0-0.1,0.1-0.2c0-0.1,0.1-0.2,0.1-0.4
		c0-0.1,0.1-0.2,0.1-0.3s0.1-0.2,0.1-0.3s0.1-0.2,0.1-0.3s0.1-0.2,0.1-0.4c0-0.1,0.1-0.2,0.1-0.3s0.1-0.2,0.1-0.3V157
		c0.1-0.2,0.1-0.5,0.2-0.8c0-0.1,0-0.1,0-0.2c0.1-0.3,0.2-0.7,0.2-1c0-0.1,0-0.2,0.1-0.2c0.1-0.2,0.1-0.5,0.2-0.8
		c0-0.1,0.1-0.2,0.1-0.3c0.1-0.2,0.1-0.4,0.2-0.8c0-0.1,0.1-0.2,0.1-0.4c0.1-0.2,0.1-0.6,0.2-0.8c0-0.1,0.1-0.2,0.1-0.3
		c0.2-0.8,0.3-1.5,0.5-2.2c0-0.1,0-0.2,0.1-0.3c0.1-0.2,0.1-0.5,0.2-0.8c0-0.1,0-0.1,0-0.2c0-0.1,0-0.1,0-0.2c0.1-0.3,0.1-0.7,0.2-1
		c0-0.1,0-0.2,0-0.2c0.1-0.4,0.1-0.8,0.2-1.2c0-0.1,0-0.2,0-0.2c0-0.3,0.1-0.5,0.1-0.9c0-0.1,0-0.2,0-0.3c0-0.3,0.1-0.7,0.1-1
		s0.1-0.5,0.1-0.9c0-0.1,0-0.1,0-0.2c0-0.2,0-0.3,0-0.5c0-0.1,0-0.2,0-0.3s0-0.3,0-0.4c0-0.1,0-0.2,0-0.3s0-0.2,0-0.4
		c0-0.1,0-0.2,0-0.2c0-0.1,0-0.2,0-0.3s0-0.1,0-0.2c0-0.1,0-0.2-0.1-0.3c0-0.1,0-0.1,0-0.2c0-0.1-0.1-0.2-0.1-0.2v-0.1
		c-0.1-0.1-0.1-0.2-0.2-0.2s-0.1-0.1-0.2-0.1l-7-4.1c1.2-0.9,2.6-1.6,4-2.5c0.4-0.2,0.9-0.4,1.3-0.7c0.1,0,0.1-0.1,0.2-0.1
		c0.4-0.2,0.8-0.4,1.2-0.7c0.1,0,0.1-0.1,0.2-0.1c0.4-0.2,0.8-0.4,1.2-0.5h0.1c0.3-0.2,0.8-0.3,1.1-0.4c0,0,0.1,0,0.1-0.1
		c0.3-0.1,0.7-0.3,1.1-0.4c0.1,0,0.1,0,0.2-0.1c0.3-0.1,0.7-0.2,1-0.3h0.1c0.3-0.1,0.6-0.1,0.9-0.2c0,0,0,0,0.1,0c0.2,0,0.3,0,0.5,0
		c0.1,0,0.3,0,0.4,0c0,0,0,0,0.1,0s0.2,0,0.3,0c0.1,0,0.2,0.1,0.3,0.1L324.1,113.9z"/>
	<path class="st0" d="M204,160.7c0.2,0.4,0.4,0.8,0.7,1.2c1.3,2.3,3,4,4.9,5.2l22,12.7c-5.2-3-8.3-10-8.3-21.7c0-0.7,0-1.2,0-1.9
		c0-0.2,0-0.4,0-0.7c0-0.4,0-0.9,0.1-1.3c0-0.2,0-0.4,0-0.8c0-0.4,0.1-0.8,0.1-1.2c0-0.2,0-0.5,0.1-0.8c0-0.3,0.1-0.8,0.1-1.1
		c0-0.2,0.1-0.4,0.1-0.7c0.1-0.8,0.2-1.5,0.3-2.3c0-0.1,0-0.2,0-0.2c0.1-0.7,0.2-1.4,0.4-2.1c0-0.2,0.1-0.4,0.1-0.7
		c0.1-0.4,0.2-0.8,0.3-1.2c0-0.2,0.1-0.4,0.1-0.7c0.1-0.4,0.2-1,0.4-1.4c0-0.1,0.1-0.2,0.1-0.3c0.1-0.3,0.2-0.7,0.3-1
		c0.1-0.2,0.1-0.4,0.2-0.7c0.1-0.3,0.2-0.7,0.3-1.1c0.1-0.2,0.1-0.4,0.2-0.5c0.3-1,0.7-2,1-2.9c0-0.1,0.1-0.2,0.1-0.2
		c0.3-0.9,0.7-1.8,1.1-2.5c0.1-0.1,0.1-0.3,0.2-0.4c0.3-0.8,0.8-1.6,1.1-2.4c0.1-0.1,0.1-0.3,0.2-0.4c0.4-0.8,0.8-1.6,1.2-2.4
		c0-0.1,0.1-0.2,0.1-0.3c0.4-0.9,1-1.8,1.4-2.6c0.5-1,1.1-1.9,1.8-2.7v-0.1c0.7-1,1.3-2,2-3c0,0,0,0,0-0.1c0.8-1.1,1.5-2.1,2.3-3.1
		c0.1-0.1,0.2-0.2,0.3-0.4c0.3-0.4,0.8-1,1.1-1.4c0.1-0.1,0.2-0.2,0.2-0.3c0.4-0.5,0.9-1.1,1.4-1.6c0.1-0.1,0.2-0.2,0.3-0.3
		c0.7-0.7,1.2-1.4,1.9-2.1s1.2-1.3,1.9-2c0.2-0.2,0.3-0.3,0.5-0.5c0.4-0.4,0.9-0.9,1.3-1.3c0.3-0.3,0.5-0.5,0.9-0.9s0.9-0.8,1.3-1.2
		c0.3-0.2,0.5-0.5,0.9-0.8c0.4-0.4,0.9-0.8,1.4-1.2c0.3-0.2,0.5-0.5,0.9-0.8c0.5-0.4,1.1-0.9,1.6-1.3c0.2-0.2,0.4-0.3,0.7-0.5
		c0.8-0.7,1.5-1.2,2.3-1.9c0.1-0.1,0.2-0.2,0.3-0.2c0.5-0.4,1.2-1,1.8-1.4c0,0.1,0,0.1,0,0.2c0,0.2,0,0.4,0,0.7c0,0.3,0,0.7,0,1
		c0,0.2,0,0.4,0,0.7c0,0.3,0,0.7,0,1c0,0.2,0,0.4,0,0.7c0,0.3,0,0.7-0.1,1c0,0.2,0,0.4,0,0.7c0,0.3-0.1,0.7-0.1,1.1
		c0,0.2,0,0.4-0.1,0.7c0,0.4-0.1,0.9-0.1,1.2c0,0.1,0,0.3,0,0.4c-0.1,0.7-0.2,1.2-0.3,1.9c0,0.2-0.1,0.3-0.1,0.5
		c-0.1,0.4-0.2,0.9-0.2,1.4c-0.1,0.3-0.1,0.5-0.2,0.9c0,0.2-0.1,0.4-0.1,0.7c-0.1,0.3-0.2,0.7-0.2,1c0,0.2-0.1,0.4-0.1,0.7
		c-0.1,0.5-0.3,1-0.4,1.5c0,0.1-0.1,0.2-0.1,0.2c-0.1,0.4-0.2,0.9-0.4,1.2c-0.2,0.8-0.5,1.5-0.8,2.3c-0.1,0.1-0.1,0.3-0.2,0.4
		c-0.2,0.5-0.4,1-0.7,1.4c-0.1,0.2-0.2,0.4-0.2,0.5c-0.2,0.3-0.3,0.8-0.5,1.1c-0.1,0.2-0.2,0.4-0.2,0.6c-0.2,0.3-0.3,0.8-0.5,1.1
		c-0.1,0.1-0.2,0.3-0.2,0.4c-0.2,0.4-0.5,1-0.8,1.4c0,0,0,0,0,0.1c-0.3,0.4-0.5,1-0.9,1.4c-0.1,0.1-0.2,0.3-0.3,0.4
		c-0.2,0.3-0.4,0.7-0.7,1c-0.1,0.1-0.2,0.3-0.3,0.4c-0.2,0.3-0.4,0.5-0.7,0.9c-0.1,0.1-0.2,0.3-0.3,0.4c-0.3,0.3-0.6,0.7-0.9,1.1
		c-0.1,0.1-0.2,0.2-0.3,0.3s-0.2,0.2-0.3,0.3c-0.2,0.2-0.4,0.4-0.7,0.7c-0.1,0.1-0.2,0.2-0.3,0.3c-0.2,0.2-0.3,0.3-0.5,0.5
		s-0.4,0.4-0.7,0.5c-0.1,0.1-0.3,0.2-0.4,0.4c-0.2,0.2-0.4,0.3-0.7,0.6c-0.1,0.1-0.3,0.2-0.4,0.3c-0.2,0.2-0.5,0.3-0.8,0.5
		c-0.1,0.1-0.2,0.2-0.3,0.2c-0.3,0.2-0.8,0.4-1.1,0.7c-0.4,0.2-0.8,0.4-1.1,0.5c-0.1,0.1-0.2,0.1-0.3,0.1c-0.3,0.1-0.5,0.2-0.9,0.3
		c-0.1,0-0.1,0.1-0.2,0.1c-0.3,0.1-0.7,0.2-1,0.3c-0.1,0-0.3,0.1-0.4,0.1c-0.2,0-0.4,0.1-0.7,0.1c-0.1,0-0.2,0-0.3,0
		c-0.2,0-0.4,0-0.7,0c-0.1,0-0.1,0-0.2,0c-0.3,0-0.5,0-0.8-0.1h-0.1c-0.2,0-0.4-0.1-0.7-0.2c-0.1,0-0.1,0-0.2-0.1
		c-0.2-0.1-0.5-0.2-0.8-0.3l22,12.7c0,0,0,0,0.1,0c0.2,0.1,0.3,0.2,0.5,0.2h0.1c0.1,0,0.1,0,0.2,0.1c0.1,0,0.1,0.1,0.2,0.1
		s0.3,0.1,0.4,0.1h0.1c0.2,0,0.4,0.1,0.7,0.1h0.1c0.1,0,0.1,0,0.2,0s0.2,0,0.3,0c0.1,0,0.2,0,0.3,0c0.1,0,0.2,0,0.3,0h0.1
		c0.1,0,0.3-0.1,0.4-0.1s0.3,0,0.4-0.1h0.1c0.3-0.1,0.5-0.2,0.9-0.3c0.1,0,0.1,0,0.2-0.1c0.1,0,0.2-0.1,0.4-0.1
		c0.1-0.1,0.3-0.1,0.4-0.2c0.1,0,0.2-0.1,0.3-0.1c0.3-0.2,0.8-0.3,1.1-0.5c0.3-0.2,0.8-0.4,1.1-0.7c0.1-0.1,0.2-0.2,0.3-0.2
		c0.2-0.2,0.5-0.3,0.8-0.5c0.1-0.1,0.3-0.2,0.4-0.3c0.2-0.2,0.4-0.3,0.7-0.5c0.1-0.1,0.3-0.2,0.4-0.4c0.2-0.2,0.4-0.4,0.7-0.5
		c0.1-0.1,0.1-0.1,0.2-0.2c0.1-0.1,0.2-0.2,0.3-0.3c0.1-0.1,0.2-0.2,0.3-0.3c0.2-0.2,0.4-0.4,0.7-0.7c0.1-0.1,0.2-0.2,0.3-0.3
		l0.1-0.1c0.1-0.1,0.1-0.1,0.2-0.2c0.3-0.3,0.5-0.7,0.9-1.1c0.1-0.1,0.1-0.1,0.2-0.2c0.1-0.1,0.1-0.2,0.2-0.2
		c0.2-0.3,0.4-0.5,0.7-0.9c0.1-0.1,0.1-0.2,0.2-0.3l0.1-0.1c0.2-0.3,0.4-0.7,0.7-1c0.1-0.1,0.1-0.2,0.2-0.3c0,0,0,0,0-0.1
		c0.3-0.4,0.5-1,0.9-1.4c0,0,0,0,0-0.1c0.2-0.4,0.5-1,0.8-1.4V134c0.1-0.1,0.1-0.2,0.2-0.3c0.2-0.3,0.3-0.8,0.5-1.1
		c0-0.1,0.1-0.1,0.1-0.2c0.1-0.1,0.1-0.2,0.2-0.3c0.2-0.3,0.3-0.8,0.6-1.1c0-0.1,0.1-0.2,0.1-0.3s0.1-0.2,0.1-0.2
		c0.2-0.4,0.4-1,0.7-1.5c0-0.1,0.1-0.2,0.1-0.3s0-0.1,0.1-0.2c0.3-0.8,0.5-1.5,0.8-2.3c0-0.1,0.1-0.1,0.1-0.2c0.1-0.3,0.2-0.7,0.3-1
		c0-0.1,0.1-0.2,0.1-0.2c0.1-0.4,0.3-0.9,0.4-1.4c0-0.1,0-0.1,0-0.2c0.1-0.2,0.1-0.4,0.1-0.7c0.1-0.3,0.2-0.7,0.2-1
		c0-0.2,0.1-0.4,0.1-0.7c0-0.2,0.1-0.3,0.1-0.6c0-0.1,0-0.2,0.1-0.3c0.1-0.4,0.2-0.9,0.2-1.4c0-0.2,0.1-0.3,0.1-0.5
		c0.1-0.7,0.2-1.2,0.3-1.9c0-0.1,0-0.2,0-0.4c0-0.4,0.1-0.9,0.1-1.2c0-0.2,0-0.4,0.1-0.7c0-0.3,0.1-0.7,0.1-1.1c0-0.2,0-0.4,0-0.7
		c0-0.3,0-0.7,0.1-1c0-0.2,0-0.4,0-0.7c0-0.3,0-0.7,0-1c0-0.2,0-0.4,0-0.7c0-0.3,0-0.7,0-1c0-0.2,0-0.4,0-0.7c0-0.3,0-0.7,0-1.1
		c0-0.2,0-0.4,0-0.7c0-0.4,0-0.9,0-1.3c0-0.8,0-1.4,0-2.2v-4.9l-14.5-8.3c0.3-0.2,0.5-0.4,0.9-0.7c0.4-0.3,0.9-0.7,1.3-1
		c0.3-0.2,0.7-0.4,1-0.8c0.4-0.3,0.9-0.7,1.3-1c0.3-0.2,0.7-0.4,1-0.7c0.5-0.3,1-0.7,1.5-1.1c0.3-0.2,0.7-0.4,1-0.7
		c0.7-0.4,1.3-0.9,2-1.3c0.4-0.3,1-0.7,1.4-1c0.3-0.2,0.6-0.4,0.9-0.5c0.8-0.5,1.4-1,2.2-1.5v-3c0-5.5,0.3-12.2-2.5-15.3
		c-0.2-0.2-0.3-0.4-0.6-0.5c-0.2-0.1-0.4-0.3-0.7-0.4l-22-12.7c0.4,0.2,0.9,0.5,1.2,1c2.9,3.1,2.4,9.8,2.5,15.3v3
		c-0.7,0.5-1.4,1-2.2,1.5c-0.2,0.2-0.5,0.4-0.9,0.5c-0.4,0.3-1,0.7-1.4,1c-0.7,0.4-1.2,0.9-1.9,1.3c-0.3,0.2-0.8,0.5-1.1,0.8
		c-0.4,0.3-1,0.7-1.4,1c-0.3,0.2-0.7,0.4-1,0.8c-0.4,0.3-0.9,0.7-1.3,1c-0.3,0.2-0.7,0.4-1,0.8c-0.4,0.3-0.9,0.7-1.3,1
		c-0.3,0.2-0.7,0.5-1.1,0.8c-0.4,0.3-0.9,0.7-1.3,1c-0.3,0.2-0.7,0.5-1,0.8c-0.4,0.3-1,0.7-1.4,1c-0.3,0.2-0.7,0.4-1,0.8
		c-0.5,0.3-1,0.8-1.5,1.1c-0.3,0.2-0.5,0.4-0.9,0.7c-0.7,0.5-1.3,1-2,1.5c-0.1,0.1-0.2,0.2-0.3,0.3c-0.8,0.7-1.5,1.2-2.3,1.9
		c-0.2,0.2-0.4,0.4-0.7,0.5c-0.5,0.4-1.1,0.9-1.5,1.3c-0.3,0.2-0.5,0.5-0.9,0.8c-0.4,0.4-0.9,0.8-1.4,1.2c-0.3,0.2-0.5,0.5-0.9,0.8
		c-0.3,0.3-0.7,0.7-1,1c0.1-0.2,0.1-0.6,0.2-0.8c0.1-0.5,0.2-1.1,0.4-1.6c0.1-0.3,0.1-0.5,0.2-0.9c0.2-0.7,0.3-1.4,0.5-2.1
		c0-0.1,0-0.1,0.1-0.2c0.2-0.8,0.4-1.4,0.7-2.1c0.3-1,0.7-2,1-2.9c0,0,0-0.1,0.1-0.1c0.3-0.9,0.7-1.8,1.1-2.6
		c0.1-0.3,0.2-0.5,0.4-0.9c0.2-0.5,0.5-1.2,0.8-1.8c0.1-0.3,0.3-0.7,0.4-1c0.2-0.5,0.5-1.1,0.9-1.6c0.1-0.3,0.3-0.7,0.4-0.9
		c0.3-0.7,0.7-1.3,1.1-1.9c0.1-0.2,0.2-0.4,0.3-0.7c0.5-0.9,1-1.8,1.5-2.5c0.1-0.2,0.2-0.3,0.3-0.5c0.4-0.8,1-1.5,1.5-2.2
		c0.1-0.2,0.3-0.4,0.4-0.7c0.7-1,1.4-2,2.1-2.9c0.2-0.3,0.4-0.5,0.7-0.9c0.2-0.3,0.5-0.7,0.8-1c0.2-0.3,0.5-0.7,0.8-0.9
		c0.3-0.3,0.5-0.7,0.9-1c0.2-0.2,0.3-0.4,0.5-0.7c0.7-0.7,1.2-1.3,1.9-2c0.1-0.1,0.2-0.3,0.4-0.4c0.8-0.8,1.4-1.5,2.2-2.2
		c0.2-0.2,0.3-0.3,0.5-0.5c0.7-0.5,1.2-1.2,1.9-1.8c0.1-0.1,0.3-0.3,0.4-0.4c0.8-0.7,1.5-1.3,2.3-2c0.2-0.1,0.3-0.3,0.5-0.4
		c0.7-0.5,1.3-1.1,1.9-1.5c0.2-0.1,0.3-0.3,0.5-0.4c0.8-0.7,1.5-1.2,2.3-1.8c0.1-0.1,0.3-0.2,0.4-0.3c0.7-0.4,1.3-1,2-1.4
		c0.2-0.1,0.4-0.3,0.5-0.4c0.8-0.5,1.5-1.1,2.3-1.5c0.1-0.1,0.2-0.1,0.2-0.2c0.7-0.4,1.4-0.9,2.1-1.3c0.2-0.1,0.4-0.2,0.7-0.3
		c0.8-0.4,1.5-1,2.3-1.4c0.7-0.3,1.3-0.8,2-1.1c0,0,0.1,0,0.1-0.1c0.7-0.3,1.2-0.7,1.9-1c0.1,0,0.1-0.1,0.2-0.1
		c0.7-0.3,1.2-0.7,1.9-0.9c0.1,0,0.1-0.1,0.2-0.1c0.7-0.3,1.2-0.5,1.9-0.8c0.1,0,0.2-0.1,0.3-0.1c0.4-0.2,1-0.3,1.4-0.5h0.1
		c0.4-0.2,0.9-0.3,1.3-0.4c0.1,0,0.2-0.1,0.3-0.1c0.4-0.1,1-0.3,1.4-0.4c0.1,0,0.2,0,0.2-0.1c0.4-0.1,0.9-0.2,1.3-0.3
		c0.1,0,0.1,0,0.2,0c0.7-0.2,1.3-0.3,2-0.4c0,0,0,0,0.1,0c0.7-0.1,1.4-0.3,2.1-0.3c0,0,0,0,0.1,0c0.4-0.1,0.9-0.1,1.3-0.2
		c0.1,0,0.2,0,0.3,0c0.4,0,0.9-0.1,1.3-0.1c0.1,0,0.2,0,0.3,0c0.2,0,0.5,0,0.8,0c0.1,0,0.2,0,0.3,0c0.2,0,0.5,0,0.8,0
		c0.1,0,0.2,0,0.3,0c0.2,0,0.4,0,0.7,0c0.1,0,0.2,0,0.3,0c0.2,0,0.5,0.1,0.8,0.1h0.1c0.1,0,0.2,0,0.3,0.1c0.2,0,0.3,0.1,0.6,0.1
		c0.1,0,0.2,0.1,0.3,0.1c0.1,0,0.3,0.1,0.4,0.1c0.4,0.1,0.9,0.3,1.3,0.4c0.1,0,0.1,0,0.2,0.1c0.3,0.1,0.5,0.2,0.9,0.4
		c0.2,0.1,0.5,0.2,0.8,0.4l-22-12.7c-0.1-0.1-0.2-0.1-0.3-0.2c-0.1-0.1-0.3-0.1-0.4-0.2c-0.3-0.1-0.5-0.3-0.9-0.4c0,0,0,0-0.1,0
		h-0.1c-0.4-0.2-0.9-0.3-1.3-0.4c-0.1,0-0.3-0.1-0.4-0.1s-0.2-0.1-0.3-0.1c-0.2,0-0.3-0.1-0.5-0.1c-0.1,0-0.2,0-0.3-0.1h-0.1
		c-0.2,0-0.5-0.1-0.8-0.1c-0.1,0-0.2,0-0.3,0c-0.2,0-0.4,0-0.7,0h1.2c-0.1,0-0.1,0-0.2,0c-0.2,0-0.5,0-0.8,0c-0.1,0-0.2,0-0.3,0
		c-0.2,0-0.5,0-0.8,0c-0.1,0-0.1,0-0.2,0c0,0,0,0-0.1,0c-0.4,0-0.9,0-1.3,0.1c-0.1,0-0.2,0-0.3,0c-0.4,0-0.9,0.1-1.3,0.2
		c-0.7,0.1-1.3,0.2-2.1,0.3c0,0,0,0-0.1,0c-0.7,0.1-1.3,0.3-2,0.4h-0.1c-0.4,0.1-0.9,0.2-1.3,0.3c-0.1,0-0.2,0-0.2,0.1
		c-0.4,0.1-1,0.3-1.4,0.4c-0.1,0-0.2,0.1-0.3,0.1c-0.4,0.1-0.9,0.3-1.3,0.4h-0.1c-0.4,0.2-1,0.3-1.4,0.5c0,0-0.1,0-0.1,0.1H258
		c-0.7,0.2-1.3,0.5-1.9,0.8c-0.1,0-0.1,0.1-0.2,0.1c-0.7,0.3-1.3,0.6-1.9,0.9c-0.1,0-0.1,0.1-0.2,0.1c-0.7,0.3-1.3,0.7-1.9,1
		c0,0-0.1,0-0.1,0.1c-0.7,0.3-1.3,0.8-2,1.1c-0.8,0.4-1.5,0.9-2.3,1.4c-0.2,0.1-0.4,0.2-0.7,0.3c-0.7,0.4-1.4,0.9-2.1,1.3
		c-0.1,0.1-0.2,0.1-0.2,0.2c-0.8,0.5-1.5,1.1-2.3,1.5c-0.2,0.1-0.4,0.3-0.5,0.4c-0.7,0.4-1.3,1-2,1.4c-0.1,0.1-0.3,0.2-0.4,0.3
		c-0.8,0.5-1.5,1.2-2.3,1.8c-0.2,0.1-0.3,0.3-0.5,0.4c-0.7,0.5-1.3,1.1-1.9,1.5c-0.2,0.1-0.3,0.3-0.5,0.4c-0.8,0.7-1.5,1.3-2.3,2
		c-0.1,0.1-0.3,0.3-0.4,0.4c-0.7,0.6-1.2,1.2-1.9,1.8c-0.1,0.1-0.2,0.2-0.3,0.3s-0.1,0.1-0.2,0.2c-0.8,0.8-1.4,1.5-2.2,2.2
		c-0.1,0.1-0.2,0.3-0.4,0.4c-0.7,0.7-1.2,1.3-1.9,2c-0.1,0.1-0.2,0.2-0.3,0.3s-0.2,0.2-0.2,0.3c-0.3,0.3-0.5,0.7-0.9,1
		c-0.2,0.3-0.6,0.7-0.8,0.9c-0.2,0.3-0.6,0.7-0.8,1c-0.2,0.2-0.3,0.4-0.5,0.7c0,0.1-0.1,0.1-0.1,0.2c-0.8,1-1.4,1.9-2.1,2.9
		c-0.1,0.1-0.1,0.1-0.2,0.2s-0.2,0.2-0.2,0.4c-0.5,0.8-1,1.4-1.5,2.2c-0.1,0.1-0.2,0.2-0.2,0.4l-0.1,0.1c-0.5,0.9-1.1,1.6-1.5,2.5
		c0,0,0,0.1-0.1,0.1c-0.1,0.2-0.2,0.3-0.3,0.5c-0.3,0.7-0.7,1.2-1.1,1.9c-0.1,0.1-0.1,0.2-0.2,0.3c-0.1,0.2-0.2,0.3-0.3,0.5
		c-0.3,0.5-0.5,1.1-0.9,1.6c-0.1,0.2-0.2,0.3-0.3,0.5c-0.1,0.1-0.1,0.3-0.2,0.4c-0.3,0.5-0.5,1.2-0.8,1.8c-0.1,0.2-0.2,0.4-0.3,0.7
		c0,0.1-0.1,0.1-0.1,0.2c-0.3,0.9-0.8,1.8-1.1,2.6V67c-0.3,1-0.7,1.9-1,2.9c0,0.1-0.1,0.2-0.1,0.3c-0.2,0.7-0.4,1.2-0.5,1.9
		c0,0.1,0,0.1-0.1,0.2c-0.1,0.5-0.3,1-0.4,1.5c0,0.1-0.1,0.3-0.1,0.4c-0.1,0.3-0.1,0.5-0.2,0.9c-0.1,0.5-0.2,1.1-0.4,1.6
		c-0.1,0.3-0.1,0.5-0.2,0.9c0,0.1-0.1,0.3-0.1,0.4c-0.1,0.4-0.1,0.8-0.2,1.2c0,0.2-0.1,0.5-0.1,0.8c-0.1,0.9-0.3,1.6-0.4,2.5v0.1
		c0,0.1,0,0.2,0,0.2c0,0.1,0,0.2,0,0.2c0,0.1,0,0.2,0,0.3c0,0.1,0,0.1,0,0.2s0,0.2,0,0.2c0,0.1,0,0.1,0,0.2s0,0.1,0,0.2s0,0.1,0,0.2
		s0,0.1,0.1,0.2c0,0,0,0.1,0.1,0.1c0,0.1,0.1,0.1,0.1,0.2c0,0,0,0.1,0.1,0.1c0,0.1,0.1,0.1,0.1,0.1s0,0,0.1,0.1s0.1,0.1,0.2,0.2
		l16.9,9.8c-0.5,0.5-1,1.1-1.5,1.6c-0.1,0.1-0.1,0.1-0.2,0.2l-0.1,0.1c-0.4,0.5-1,1.1-1.4,1.6c-0.1,0.1-0.2,0.2-0.2,0.3
		c-0.3,0.4-0.8,1-1.1,1.4c-0.1,0.1-0.1,0.2-0.2,0.2l-0.1,0.1c-0.8,1-1.5,2.1-2.3,3.1c-0.7,1-1.3,2-2,3c0,0,0,0,0,0.1
		c-0.5,0.9-1.2,1.9-1.6,2.7c-0.5,0.9-1,1.8-1.4,2.5c0,0.1-0.1,0.1-0.1,0.2v0.1c-0.4,0.8-0.9,1.6-1.2,2.4c0,0.1-0.1,0.1-0.1,0.2
		s-0.1,0.1-0.1,0.2c-0.3,0.8-0.8,1.6-1.1,2.4c0,0.1-0.1,0.1-0.1,0.2s-0.1,0.1-0.1,0.2c-0.3,0.9-0.8,1.8-1.1,2.5c0,0,0,0,0,0.1
		s0,0.1-0.1,0.2c-0.3,1-0.7,1.9-1,2.9c-0.1,0.2-0.1,0.4-0.2,0.5c-0.1,0.3-0.2,0.7-0.3,1.1c-0.1,0.2-0.1,0.4-0.2,0.7
		c-0.1,0.3-0.2,0.7-0.3,1c0,0.1-0.1,0.2-0.1,0.3c-0.1,0.4-0.2,1-0.3,1.4c0,0.2-0.1,0.4-0.1,0.7c-0.1,0.4-0.2,0.8-0.3,1.2
		c0,0.1,0,0.2-0.1,0.3c0,0.1,0,0.2-0.1,0.3c-0.1,0.7-0.3,1.3-0.4,2.1c0,0.1,0,0.2,0,0.2c-0.1,0.8-0.2,1.5-0.3,2.3c0,0.1,0,0.2,0,0.2
		c0,0.1,0,0.3,0,0.4c0,0.3-0.1,0.8-0.1,1.1c0,0.2,0,0.5-0.1,0.8c0,0.4-0.1,0.8-0.1,1.2c0,0.2,0,0.4,0,0.8c0,0.4,0,0.9-0.1,1.3
		c0,0.2,0,0.4,0,0.7c0,0.7,0,1.2,0,1.9c0,5.2,0.7,9.3,1.8,12.7C203.3,159,203.7,160,204,160.7z"/>
	<path class="st1" d="M346.3,126.9c1.3,1.2,0,10.5-2.2,18c-2.2,7.4-5.4,13.6-7.1,16.4c-0.7,1-1.3,1.6-1.8,2
		c-0.8,0.4-1.1-0.2-0.4-2.2c1-3.1,6.5-21.9,4.3-23.8c-1.1-1-4.1,0.3-7.4,2.2c-3.4,2-7,4.6-8.9,5.9c-2.1,1.4-3.2,2.3-3.8,2.6
		c-0.5,0.3-0.8,0.3-0.9,0c-0.7-1.9,7.4-10.3,12.7-14.2c1.5-1.1,3.3-2.2,5.1-3.3C340.3,127.8,345.1,125.8,346.3,126.9z M328.7,148.2
		c-21.3,23.9-39.9,39.1-56,48.4c-31.4,18.1-53.9,14.7-70.3,12.7c-0.3,0-0.8,0.1-1.2,0.3c-1.3,0.8-2.4,2.7-0.7,4.1
		c8.3,6.8,35.6,18.9,71.1-1.5s56.6-54.9,59.2-60.3c2.1-4.3,1.3-5.8-0.4-4.8C329.7,147.2,329.3,147.7,328.7,148.2z"/>
	<path class="st1" d="M282.2,78.2v-3c0-5.5,0.3-12.2-2.5-15.3c-2.4-2.9-7.1-1.9-11.3,0.5c-7.7,4.4-14.5,12.9-16.1,23.2
		c-0.3,2.3-1.6,5.1-3.5,6.3l-19.3,8.8c-1.6,0.5-3.4,0-3-3.1c4.4-29.7,25.7-50.2,44.8-61.2c9.8-5.6,22.5-10,30.3-5.9
		c9.8,4.8,8.9,19.3,8.9,34.6l0.1,35.9c0,10.8,4,13.3,7.6,17c1.3,1.3,1.6,3.6,0,6.2c-4.1,6.3-11.3,17.8-15.4,24.2
		c-0.8,1.2-1.8,2.1-2.7,2.6c-0.8,0.4-1.4,0.7-2.1,0.7c-6.7-2.5-7.9-4.7-11.5-8.7c-11,19.2-18.8,27.7-33.1,35.9
		c-16.9,9.8-30.1,5.4-30.1-18.6c0-18.7,8.8-36.6,21.3-50.1C255.4,96.3,270.6,86.5,282.2,78.2z M278.6,128.4
		c4-10.2,3.7-17.7,3.7-26.6v-4.9c-14.5,8.3-29.9,20.8-29.8,40.4c0,10,4.5,14.1,12.2,9.7C270.4,143.6,275.4,136.7,278.6,128.4z"/>
</g>
</svg>
