<?xml version="1.0" encoding="utf-8"?>
<!-- Generator: Adobe Illustrator 22.1.0, SVG Export Plug-In . SVG Version: 6.00 Build 0)  -->
<svg version="1.1" id="Слой_1" xmlns="http://www.w3.org/2000/svg" xmlns:xlink="http://www.w3.org/1999/xlink" x="0px" y="0px"
	 viewBox="0 0 583 516.4" style="enable-background:new 0 0 583 516.4;" xml:space="preserve">
<style type="text/css">
	.st0{fill:#2F58FF;}
	.st1{fill:#FFFFFF;}
	.st2{fill:#9AF4DC;}
	.st3{fill:none;stroke:#171A21;stroke-width:2;stroke-linecap:round;stroke-linejoin:round;stroke-miterlimit:10;}
</style>
<g id="_x37_">
	<path class="st0" d="M514.1,148.5c-0.2-0.3-0.4-0.5-0.5-0.8c0-0.1-0.1-0.1-0.1-0.2c-0.2-0.3-0.4-0.5-0.5-0.7c0-0.1-0.1-0.1-0.1-0.2
		c-0.2-0.3-0.4-0.5-0.6-0.8c-0.1-0.1-0.1-0.1-0.2-0.2c-0.2-0.3-0.4-0.5-0.5-0.6l-0.1-0.1c-0.3-0.3-0.5-0.5-0.7-0.7
		c-0.1-0.1-0.1-0.1-0.2-0.2c-0.2-0.2-0.5-0.4-0.6-0.5l-0.1-0.1c-0.3-0.2-0.5-0.5-0.8-0.6c-0.1-0.1-0.1-0.1-0.2-0.2
		c-0.2-0.2-0.5-0.4-0.6-0.5s-0.2-0.1-0.3-0.2c-0.3-0.2-0.6-0.4-0.9-0.5c0,0,0,0-0.1,0c-0.3-0.2-0.6-0.4-0.9-0.5
		c-0.1-0.1-0.2-0.1-0.3-0.2c-0.2-0.1-0.5-0.3-0.6-0.4s-0.3-0.2-0.5-0.2c-0.2-0.1-0.5-0.2-0.6-0.3s-0.3-0.1-0.5-0.2
		c-0.3-0.1-0.5-0.2-0.7-0.3s-0.3-0.1-0.5-0.2c-0.3-0.1-0.5-0.2-0.8-0.3c-0.1,0-0.3-0.1-0.4-0.1c-0.4-0.1-0.7-0.3-1.1-0.4
		c-0.1,0-0.3-0.1-0.4-0.1c-0.2-0.1-0.5-0.1-0.6-0.2c-0.2,0-0.3-0.1-0.5-0.1c-0.2-0.1-0.5-0.1-0.6-0.2c-0.2,0-0.3-0.1-0.5-0.1
		c-0.3-0.1-0.5-0.1-0.7-0.2c-0.1,0-0.3-0.1-0.4-0.1c-0.3-0.1-0.5-0.1-0.8-0.2c-0.1,0-0.2,0-0.3-0.1c-0.4-0.1-0.7-0.1-1.1-0.2
		c-0.1,0-0.2,0-0.2,0c-0.3,0-0.6-0.1-0.9-0.1c-0.5-0.1-0.9-0.1-1.4-0.1c-0.1,0-0.1,0-0.2,0c-0.5,0-0.8-0.1-1.3-0.1
		c-0.2,0-0.4,0-0.5,0c-0.4,0-0.6,0-1,0c-0.2,0-0.4,0-0.5,0c-0.4,0-0.6,0-1,0c-0.2,0-0.4,0-0.5,0c-0.5,0-0.8,0-1.3,0
		c-0.1,0-0.2,0-0.3,0c-0.5,0-1,0.1-1.5,0.1c-0.2,0-0.3,0-0.5,0c-0.4,0-0.7,0.1-1.1,0.1c-0.2,0-0.4,0-0.5,0.1c-0.4,0-0.7,0.1-1,0.1
		c-0.2,0-0.4,0-0.5,0.1c-0.7,0.1-1.4,0.2-2.1,0.3c-0.1,0-0.3,0-0.4,0.1c-0.7,0.1-1.5,0.3-2.2,0.4c-0.7,0.2-1.5,0.3-2.2,0.5
		c-0.1,0-0.3,0.1-0.4,0.1c-0.7,0.2-1.5,0.4-2.2,0.5c-0.2,0.1-0.4,0.1-0.6,0.2c-0.3,0.1-0.5,0.2-0.8,0.3s-0.5,0.1-0.7,0.2
		c-0.3,0.1-0.5,0.2-0.8,0.3s-0.5,0.2-0.7,0.2c-0.3,0.1-0.5,0.2-0.8,0.3s-0.5,0.2-0.7,0.3c-0.3,0.1-0.5,0.2-0.8,0.3
		c-0.2,0.1-0.4,0.2-0.6,0.2c-0.7,0.3-1.5,0.5-2.3,0.8c-0.2,0.1-0.3,0.1-0.5,0.2c-0.8,0.3-1.5,0.6-2.4,0.9c-0.3,0.1-0.6,0.3-0.9,0.5
		c-0.2,0.1-0.3,0.1-0.5,0.2c-0.5,0.2-1,0.5-1.5,0.6c-0.7,0.4-1.5,0.7-2.2,1.1c-0.4,0.2-0.7,0.4-1,0.5c-0.5,0.2-0.8,0.5-1.3,0.6
		c-0.4,0.2-0.7,0.4-1,0.5c-0.4,0.2-0.8,0.5-1.2,0.6c-0.4,0.2-0.7,0.4-1,0.6c-0.4,0.2-0.7,0.5-1.1,0.6c-0.4,0.2-0.6,0.5-1,0.6
		c-0.4,0.3-0.7,0.5-1.1,0.7c-0.4,0.3-0.8,0.5-1.2,0.8c-0.3,0.2-0.6,0.5-0.9,0.6c-0.4,0.3-0.7,0.5-1.2,0.8c-0.3,0.2-0.5,0.5-0.9,0.6
		c-0.7,0.5-1.4,1.1-2.1,1.6c-0.1,0-0.1,0.1-0.2,0.1c-0.6,0.5-1.3,1-1.8,1.5s-1,0.9-1.5,1.3c-0.1,0.1-0.2,0.2-0.3,0.3
		c-0.5,0.4-0.8,0.7-1.2,1.2c-0.2,0.2-0.3,0.3-0.5,0.5c-0.4,0.4-0.8,0.8-1.2,1.2c-0.1,0.1-0.2,0.2-0.2,0.2c-0.3,0.3-0.5,0.6-0.8,0.9
		c-0.2,0.2-0.5,0.5-0.6,0.6c-0.3,0.4-0.5,0.6-0.8,1c-0.2,0.2-0.4,0.5-0.5,0.6c-0.3,0.4-0.5,0.7-0.8,1.1c-0.2,0.2-0.3,0.4-0.5,0.5
		c-0.5,0.5-0.8,1.1-1.2,1.6c-0.2,0.3-0.4,0.5-0.5,0.8c-0.1,0.1-0.1,0.2-0.2,0.3c-0.1,0.2-0.3,0.4-0.4,0.5s-0.1,0.2-0.2,0.3
		c-0.1,0.2-0.2,0.4-0.3,0.5c-0.1,0.1-0.2,0.3-0.2,0.4c-0.1,0.2-0.2,0.3-0.3,0.5c-0.1,0.1-0.1,0.3-0.2,0.4c-0.1,0.2-0.2,0.3-0.3,0.5
		c-0.1,0.1-0.1,0.3-0.2,0.4c-0.1,0.2-0.2,0.3-0.3,0.5c-0.1,0.1-0.1,0.3-0.2,0.4c-0.1,0.2-0.2,0.3-0.2,0.5c-0.1,0.1-0.1,0.3-0.2,0.4
		c-0.1,0.2-0.2,0.3-0.2,0.5c-0.1,0.1-0.1,0.3-0.2,0.4c-0.1,0.2-0.1,0.3-0.2,0.5c-0.1,0.1-0.1,0.3-0.2,0.4c-0.1,0.2-0.1,0.3-0.2,0.5
		c-0.1,0.1-0.1,0.3-0.2,0.4c-0.1,0.2-0.1,0.3-0.2,0.5c0,0.1-0.1,0.3-0.1,0.4c-0.1,0.2-0.1,0.3-0.2,0.5c0,0.1-0.1,0.2-0.1,0.4
		c-0.1,0.2-0.1,0.4-0.2,0.5c0,0.1-0.1,0.2-0.1,0.3c-0.1,0.2-0.1,0.4-0.2,0.5c0,0.1-0.1,0.2-0.1,0.3c-0.1,0.3-0.1,0.5-0.2,0.7
		c-0.1,0.3-0.1,0.5-0.2,0.8c0,0.1,0,0.2-0.1,0.3c0,0.2-0.1,0.4-0.1,0.5s0,0.2-0.1,0.3c0,0.2-0.1,0.3-0.1,0.5c0,0.1,0,0.2,0,0.4
		s0,0.3-0.1,0.5c0,0.1,0,0.2,0,0.4s0,0.3,0,0.5c0,0.1,0,0.2,0,0.4s0,0.3,0,0.5c0,0.1,0,0.3,0,0.4c0,0.2,0,0.3,0,0.5
		c0,0.1,0,0.3,0,0.4c0,0.2,0,0.3,0,0.5c0,0.1,0,0.2,0,0.4s0,0.3,0,0.5c0,0.1,0,0.2,0,0.4s0,0.3,0.1,0.5c0,0.1,0,0.2,0,0.4
		s0,0.3,0.1,0.5c0,0.1,0,0.2,0.1,0.4c0,0.2,0.1,0.3,0.1,0.5c0,0.1,0,0.2,0.1,0.3c0,0.2,0.1,0.3,0.1,0.5c0,0.1,0.1,0.2,0.1,0.3
		c0,0.2,0.1,0.3,0.1,0.5c0,0.1,0,0.2,0.1,0.3c0.1,0.2,0.2,0.5,0.2,0.6c0,0,0,0,0,0.1c0.1,0.2,0.1,0.3,0.2,0.5c0,0.1,0.1,0.2,0.1,0.3
		c0.1,0.3,0.2,0.5,0.3,0.7c-0.3-0.5-0.5-1.2-0.8-1.8l0.5-2.2c-0.4-0.7-0.7-1.5-1-2.2l-0.5-1.1c-0.1-0.3-0.3-0.5-0.4-0.8l-0.5-1.2
		c-0.4-0.8-0.7-1.6-1.2-2.5l-0.4-0.8c-0.2-0.4-0.4-0.7-0.5-1.1l-1.5-2.9c-0.1-0.3-0.3-0.5-0.4-0.7l-0.8-1.8
		c-0.1-0.3-0.2-0.5-0.3-0.7v-0.1c-0.1-0.2-0.2-0.4-0.3-0.6c-0.1-0.2-0.2-0.5-0.2-0.6s0-0.2-0.1-0.3c-0.1-0.2-0.1-0.3-0.1-0.5
		c0-0.1-0.1-0.2-0.1-0.3c0-0.2-0.1-0.3-0.1-0.5c0-0.1,0-0.2-0.1-0.3c0-0.2-0.1-0.3-0.1-0.5c0-0.1,0-0.2-0.1-0.4c0-0.2,0-0.3-0.1-0.5
		c0-0.1,0-0.2,0-0.4s0-0.3-0.1-0.5c0-0.1,0-0.2,0-0.4s0-0.3,0-0.5c0-0.1,0-0.2,0-0.4s0-0.3,0-0.5c0-0.1,0-0.2,0-0.4s0-0.3,0-0.5
		c0-0.1,0-0.3,0-0.4c0-0.2,0-0.3,0-0.5c0-0.1,0-0.2,0-0.4s0-0.3,0-0.5c0-0.1,0-0.2,0-0.4s0-0.3,0.1-0.5c0-0.1,0-0.2,0-0.4
		s0.1-0.3,0.1-0.5c0-0.1,0-0.2,0.1-0.3c0-0.2,0.1-0.4,0.1-0.5s0-0.2,0.1-0.3c0.1-0.3,0.1-0.5,0.2-0.8s0.1-0.5,0.2-0.7
		c0-0.1,0.1-0.2,0.1-0.3c0.1-0.2,0.1-0.4,0.2-0.5c0-0.1,0.1-0.2,0.1-0.3c0.1-0.2,0.1-0.4,0.2-0.5c0-0.1,0.1-0.2,0.1-0.4
		c0.1-0.2,0.1-0.3,0.2-0.5c0-0.1,0.1-0.3,0.1-0.4c0.1-0.2,0.1-0.3,0.2-0.5c0.1-0.1,0.1-0.3,0.2-0.4c0.1-0.2,0.1-0.3,0.2-0.5
		c0.1-0.1,0.1-0.3,0.2-0.4c0.1-0.2,0.1-0.3,0.2-0.5c0.1-0.1,0.1-0.3,0.2-0.4c0.1-0.2,0.2-0.3,0.2-0.5c0.1-0.1,0.1-0.3,0.2-0.4
		c0.1-0.2,0.2-0.3,0.2-0.5c0.1-0.1,0.1-0.3,0.2-0.4c0.1-0.2,0.2-0.3,0.3-0.5c0.1-0.1,0.1-0.3,0.2-0.4c0.1-0.2,0.2-0.3,0.3-0.5
		c0.1-0.1,0.1-0.3,0.2-0.4c0.1-0.2,0.2-0.3,0.3-0.5c0.1-0.1,0.1-0.3,0.2-0.4c0.1-0.2,0.2-0.4,0.3-0.5c0.1-0.1,0.1-0.2,0.2-0.3
		c0.1-0.2,0.3-0.4,0.4-0.5s0.1-0.2,0.2-0.3c0.2-0.3,0.4-0.5,0.5-0.8c0.4-0.5,0.8-1.1,1.2-1.6c0.2-0.2,0.3-0.4,0.5-0.5
		c0.3-0.4,0.5-0.7,0.8-1.1c0.2-0.2,0.4-0.5,0.5-0.6c0.3-0.4,0.5-0.6,0.8-1c0.2-0.2,0.5-0.5,0.6-0.6c0.3-0.3,0.5-0.5,0.8-0.8
		c0,0,0-0.1,0.1-0.1c0.1-0.1,0.2-0.2,0.2-0.2c0.4-0.4,0.8-0.8,1.2-1.2c0.2-0.2,0.3-0.3,0.5-0.5c0.4-0.4,0.8-0.7,1.2-1.2
		c0.1-0.1,0.2-0.2,0.3-0.3c0.5-0.4,0.9-0.8,1.4-1.2c0.1,0,0.1-0.1,0.2-0.1c0.6-0.5,1.2-1,1.8-1.5c0.1,0,0.1-0.1,0.2-0.1
		c0.6-0.5,1.4-1.1,2.1-1.6l0.1-0.1c0.3-0.2,0.5-0.4,0.7-0.5c0.4-0.3,0.7-0.5,1.2-0.8c0.3-0.2,0.6-0.5,0.9-0.6
		c0.4-0.3,0.7-0.5,1.2-0.8c0.1-0.1,0.2-0.1,0.3-0.2c0.3-0.2,0.5-0.4,0.8-0.5c0.4-0.2,0.6-0.5,1-0.6c0.4-0.3,0.7-0.5,1.1-0.6
		c0.4-0.2,0.7-0.5,1-0.6c0.1,0,0.2-0.1,0.2-0.1c0.3-0.2,0.6-0.4,1-0.5c0.4-0.2,0.7-0.4,1-0.5c0.4-0.2,0.8-0.5,1.3-0.6
		c0.4-0.2,0.7-0.4,1-0.5c0.1,0,0.1-0.1,0.2-0.1c0.6-0.4,1.4-0.6,2-1c0.5-0.2,1-0.5,1.5-0.6c0.2-0.1,0.3-0.2,0.5-0.2
		c0.3-0.1,0.5-0.3,0.9-0.4h0.1c0.8-0.4,1.5-0.6,2.4-0.9c0.2-0.1,0.3-0.1,0.5-0.2c0.7-0.3,1.5-0.5,2.3-0.8c0.1,0,0.1,0,0.2-0.1
		c0.2-0.1,0.3-0.1,0.5-0.2c0.3-0.1,0.5-0.2,0.8-0.3c0.3-0.1,0.5-0.2,0.7-0.3s0.5-0.2,0.8-0.3c0.3-0.1,0.5-0.2,0.7-0.2
		c0.3-0.1,0.5-0.2,0.8-0.3c0.3-0.1,0.5-0.1,0.7-0.2c0.3-0.1,0.5-0.2,0.8-0.3c0.2,0,0.3-0.1,0.5-0.1c0.1,0,0.1,0,0.2,0
		c0.7-0.2,1.5-0.4,2.2-0.5c0.1,0,0.3-0.1,0.4-0.1c0.7-0.2,1.5-0.4,2.2-0.5c0.7-0.2,1.5-0.3,2.2-0.4c0.1,0,0.3,0,0.4-0.1
		c0.7-0.1,1.4-0.2,2.1-0.3c0.1,0,0.1,0,0.2,0s0.2,0,0.4,0c0.4,0,0.7-0.1,1-0.1c0.2,0,0.4,0,0.5-0.1c0.4,0,0.7-0.1,1.1-0.1
		c0.2,0,0.3,0,0.5,0c0.5,0,1-0.1,1.5-0.1c0.1,0,0.2,0,0.3,0c0.5,0,0.8,0,1.3,0c0.2,0,0.4,0,0.5,0c0.4,0,0.6,0,1,0c0.2,0,0.4,0,0.5,0
		c0.4,0,0.6,0,1,0c0.2,0,0.4,0,0.5,0c0.5,0,0.8,0,1.3,0.1c0.1,0,0.1,0,0.2,0c0.5,0,0.9,0.1,1.4,0.1h0.1c0.3,0,0.5,0.1,0.8,0.1
		c0.1,0,0.2,0,0.2,0c0.4,0.1,0.7,0.1,1.1,0.2c0.1,0,0.2,0,0.3,0.1c0.3,0,0.5,0.1,0.8,0.2c0.1,0,0.3,0.1,0.4,0.1
		c0.3,0,0.5,0.1,0.7,0.2c0.2,0,0.3,0.1,0.5,0.1c0.2,0.1,0.5,0.1,0.6,0.2c0.2,0,0.3,0.1,0.5,0.1c0.2,0.1,0.5,0.1,0.6,0.2
		c0.1,0,0.2,0.1,0.3,0.1h0.1c0.4,0.1,0.7,0.2,1.1,0.4c0,0,0,0,0.1,0s0.3,0.1,0.4,0.1c0.3,0.1,0.5,0.2,0.8,0.3
		c0.2,0.1,0.3,0.1,0.5,0.2c0.3,0.1,0.5,0.2,0.7,0.3c0.2,0.1,0.3,0.1,0.5,0.2s0.5,0.2,0.6,0.3c0.2,0.1,0.3,0.2,0.5,0.2
		c0.1,0.1,0.2,0.1,0.3,0.2c0.1,0.1,0.3,0.1,0.4,0.2s0.2,0.1,0.3,0.2c0.3,0.2,0.6,0.4,0.9,0.5c0,0,0,0,0.1,0c0.3,0.2,0.6,0.4,0.9,0.5
		c0.1,0.1,0.2,0.1,0.3,0.2s0.3,0.2,0.4,0.3c0.1,0.1,0.2,0.2,0.3,0.3s0.2,0.1,0.2,0.2c0.3,0.2,0.5,0.5,0.8,0.6c0.1,0,0.1,0.1,0.1,0.1
		c0.2,0.2,0.5,0.4,0.6,0.5s0.1,0.1,0.2,0.2c0.1,0,0.1,0.1,0.2,0.1c0.2,0.2,0.4,0.4,0.5,0.5l0.1,0.1c0.2,0.2,0.4,0.5,0.5,0.6
		s0.1,0.1,0.2,0.2c0.2,0.3,0.4,0.5,0.5,0.7c0,0,0,0.1,0.1,0.1c0,0.1,0.1,0.1,0.1,0.2c0.2,0.3,0.4,0.5,0.5,0.7c0,0.1,0.1,0.1,0.1,0.2
		c0.2,0.3,0.4,0.5,0.5,0.8c0,0.1,0.1,0.1,0.1,0.2c0.1,0.1,0.1,0.3,0.2,0.4c0.1,0.2,0.2,0.4,0.3,0.5l7.9,16.9
		c-0.2-0.3-0.3-0.6-0.5-0.9C514.2,148.6,514.1,148.6,514.1,148.5z"/>
	<path class="st0" d="M402.7,182c0.1,0.3,0.3,0.5,0.5,0.8c0,0,0,0.1,0.1,0.1c0.1,0.2,0.3,0.5,0.4,0.6s0.1,0.2,0.2,0.3
		c0.1,0.2,0.2,0.4,0.3,0.5c0.1,0.1,0.1,0.2,0.2,0.3c0.1,0.2,0.2,0.3,0.3,0.5c0.1,0.1,0.2,0.2,0.2,0.3c0.1,0.2,0.2,0.3,0.3,0.5
		c0.1,0.1,0.2,0.2,0.3,0.3c0.1,0.1,0.2,0.3,0.4,0.4c0.1,0.1,0.2,0.2,0.3,0.3s0.3,0.3,0.4,0.4c0.1,0.1,0.2,0.2,0.3,0.3
		c0.1,0.2,0.3,0.3,0.4,0.4c0.1,0.1,0.2,0.2,0.3,0.3c0.2,0.2,0.5,0.5,0.6,0.6c0.3,0.2,0.5,0.5,0.7,0.6c0.1,0.1,0.2,0.1,0.3,0.2
		c0.2,0.1,0.4,0.3,0.5,0.4c0.1,0.1,0.2,0.2,0.3,0.2c0.2,0.1,0.3,0.3,0.5,0.4c0.1,0.1,0.2,0.2,0.3,0.2c0.2,0.2,0.4,0.3,0.6,0.5
		c0.1,0.1,0.2,0.1,0.3,0.2c0.3,0.2,0.5,0.4,0.9,0.5l0.1,0.1c0.3,0.2,0.5,0.3,0.8,0.5c0.1,0.1,0.2,0.1,0.3,0.2
		c0.2,0.1,0.5,0.3,0.6,0.4c0.1,0.1,0.2,0.1,0.3,0.2c0.4,0.2,0.7,0.4,1.1,0.5c0.1,0,0.1,0.1,0.2,0.1c0.4,0.2,0.7,0.3,1,0.5
		c0.1,0,0.2,0.1,0.3,0.1c0.4,0.2,0.8,0.3,1.2,0.5c0.1,0,0.2,0.1,0.3,0.1c0.4,0.1,0.7,0.3,1.1,0.4c0.1,0,0.2,0.1,0.2,0.1
		c0.5,0.1,0.8,0.3,1.3,0.4c0.1,0,0.2,0.1,0.3,0.1c0.4,0.1,0.8,0.2,1.2,0.4c0.1,0,0.1,0,0.2,0c0.5,0.1,0.9,0.2,1.4,0.3
		c0.1,0,0.2,0,0.4,0.1c0.5,0.1,0.9,0.2,1.4,0.3s1.1,0.2,1.6,0.3c0.1,0,0.3,0,0.4,0.1c0.5,0.1,1.1,0.2,1.6,0.2c0.1,0,0.2,0,0.4,0
		c0.4,0,0.7,0.1,1,0.1c0.2,0,0.4,0,0.5,0c0.3,0,0.6,0.1,0.9,0.1c0.2,0,0.4,0,0.5,0c0.4,0,0.6,0,1,0.1c0.2,0,0.3,0,0.5,0
		c0.5,0,0.9,0,1.5,0c0.8,0,1.6,0,2.5,0c0.3,0,0.5,0,0.8,0c0.5,0,1.1,0,1.6-0.1c0.4,0,0.6,0,1-0.1c0.5,0,1-0.1,1.5-0.1
		c0.4,0,0.7-0.1,1.1-0.1c0.5-0.1,1-0.1,1.5-0.2c0.4,0,0.7-0.1,1.1-0.2c0.5-0.1,1.2-0.2,1.7-0.3c0.4-0.1,0.7-0.1,1-0.2
		c0.6-0.1,1.3-0.2,1.8-0.4c0.3-0.1,0.6-0.1,0.9-0.2c0.8-0.2,1.6-0.4,2.5-0.5c0.1,0,0.2-0.1,0.4-0.1c0.9-0.2,1.9-0.5,2.8-0.7
		c0.7-0.2,1.5-0.4,2.3-0.6c0.2,0,0.3-0.1,0.5-0.2c0.6-0.2,1.3-0.4,1.9-0.5c0.3-0.1,0.5-0.2,0.7-0.3c0.6-0.2,1.2-0.4,1.8-0.6
		c0.2-0.1,0.5-0.2,0.6-0.2c0.7-0.3,1.5-0.5,2.3-0.8c0.2-0.1,0.4-0.1,0.5-0.2c0.7-0.3,1.5-0.5,2.2-0.8c0.1,0,0.2-0.1,0.2-0.1
		c0.7-0.3,1.5-0.6,2.3-1c0.2-0.1,0.4-0.2,0.5-0.3c0.8-0.4,1.5-0.7,2.4-1.1c0.9-0.5,1.8-0.9,2.7-1.4c0.5-0.2,0.9-0.5,1.4-0.6
		c0.5-0.3,1-0.5,1.5-0.8s0.9-0.5,1.3-0.7c0.5-0.3,1-0.5,1.5-0.8s0.9-0.5,1.3-0.7c0.5-0.3,0.9-0.5,1.4-0.8s0.8-0.5,1.3-0.8
		s0.9-0.5,1.4-0.8c0.5-0.4,1-0.6,1.5-1c0.4-0.3,0.8-0.5,1.2-0.8c0.5-0.4,1-0.7,1.5-1c0.4-0.3,0.7-0.5,1.1-0.8
		c0.1-0.1,0.2-0.2,0.4-0.3c0.7-0.5,1.4-1.1,2.1-1.6l0.1-0.1c0.7-0.5,1.4-1.1,2-1.6c0.1-0.1,0.3-0.2,0.4-0.3c0.6-0.5,1.3-1.2,1.9-1.7
		c0.1-0.1,0.2-0.2,0.4-0.3c0.5-0.5,1-1,1.5-1.5c0.2-0.2,0.4-0.4,0.5-0.5c0.5-0.5,1-1,1.5-1.5c0.1-0.1,0.2-0.2,0.3-0.3
		c0.4-0.4,0.7-0.7,1.1-1.2c0.3-0.3,0.5-0.5,0.8-0.8c0.4-0.4,0.7-0.8,1-1.2c0.2-0.3,0.5-0.5,0.7-0.8c0.4-0.5,0.7-0.9,1.1-1.4
		c0.2-0.2,0.4-0.5,0.5-0.6c0.5-0.6,1-1.4,1.5-2c7.7-11,10.3-22.4,6-31.7l7.9,16.9c4.3,9.4,1.6,20.7-6,31.7c-0.5,0.6-1,1.4-1.5,2
		c-0.2,0.2-0.4,0.5-0.5,0.6c-0.4,0.5-0.7,0.9-1.1,1.4c-0.2,0.3-0.5,0.5-0.6,0.8c-0.4,0.4-0.6,0.8-1,1.2c-0.3,0.3-0.5,0.5-0.8,0.8
		c-0.4,0.4-0.6,0.7-1,1.1l-0.1,0.1c-0.1,0.1-0.2,0.2-0.3,0.3c-0.5,0.5-1,1-1.5,1.5c-0.2,0.2-0.4,0.4-0.5,0.5c-0.5,0.5-1,1-1.5,1.5
		c-0.1,0.1-0.2,0.2-0.4,0.3c-0.5,0.5-1.1,1-1.6,1.5c-0.1,0.1-0.2,0.2-0.3,0.3s-0.3,0.2-0.4,0.3c-0.6,0.5-1.4,1.1-2,1.6l-0.1,0.1
		c-0.6,0.5-1.4,1.1-2.1,1.6c-0.1,0.1-0.2,0.2-0.4,0.3c-0.1,0.1-0.2,0.1-0.2,0.2c-0.3,0.2-0.6,0.5-0.9,0.6c-0.5,0.4-0.9,0.7-1.5,1
		c-0.4,0.3-0.7,0.5-1.2,0.8c-0.5,0.4-1,0.6-1.5,1c-0.1,0.1-0.2,0.1-0.3,0.2c-0.4,0.2-0.7,0.5-1.1,0.6c-0.5,0.3-0.8,0.5-1.3,0.8
		s-0.9,0.5-1.4,0.8s-0.9,0.5-1.3,0.7c-0.1,0.1-0.2,0.1-0.3,0.2c-0.4,0.2-0.8,0.5-1.2,0.6c-0.5,0.3-0.8,0.5-1.3,0.7
		c-0.5,0.3-1,0.5-1.5,0.8c-0.5,0.2-0.9,0.5-1.4,0.6c-0.1,0-0.2,0.1-0.2,0.1c-0.8,0.5-1.7,0.8-2.5,1.2s-1.5,0.7-2.4,1.1
		c-0.2,0.1-0.4,0.2-0.5,0.3c-0.2,0.1-0.4,0.2-0.5,0.3c-0.5,0.3-1.2,0.5-1.7,0.7c-0.1,0-0.2,0.1-0.2,0.1c-0.7,0.3-1.5,0.5-2.2,0.8
		c-0.2,0.1-0.4,0.1-0.5,0.2c-0.6,0.3-1.4,0.5-2,0.7c-0.1,0-0.2,0.1-0.3,0.1c-0.2,0.1-0.5,0.2-0.6,0.2c-0.6,0.2-1.2,0.4-1.8,0.6
		c-0.3,0.1-0.5,0.2-0.7,0.3c-0.6,0.2-1.3,0.4-1.9,0.5c-0.2,0.1-0.3,0.1-0.5,0.2c-0.7,0.2-1.4,0.4-2.1,0.5c-0.1,0-0.1,0-0.2,0
		c-0.9,0.3-1.9,0.5-2.8,0.7c-0.1,0-0.2,0.1-0.4,0.1c-0.8,0.2-1.6,0.4-2.5,0.5c-0.3,0.1-0.6,0.1-0.9,0.2c-0.6,0.1-1.3,0.3-1.8,0.4
		c-0.4,0.1-0.7,0.1-1,0.2c-0.5,0.1-1.2,0.2-1.7,0.3c-0.2,0-0.4,0.1-0.6,0.1s-0.3,0-0.5,0.1c-0.5,0.1-1,0.1-1.5,0.2
		c-0.4,0-0.7,0.1-1.1,0.1c-0.5,0.1-1,0.1-1.5,0.1c-0.4,0-0.6,0.1-1,0.1c-0.5,0-1.1,0.1-1.6,0.1c-0.3,0-0.5,0-0.8,0
		c-0.8,0-1.6,0-2.5,0c-0.5,0-0.9,0-1.5,0c-0.2,0-0.3,0-0.5,0c-0.4,0-0.6,0-1-0.1c-0.2,0-0.4,0-0.5,0c-0.3,0-0.6,0-0.9-0.1
		c-0.2,0-0.4,0-0.5,0c-0.4,0-0.7-0.1-1-0.1c-0.1,0-0.2,0-0.3,0c0,0,0,0-0.1,0c-0.5-0.1-1.1-0.1-1.6-0.2c-0.1,0-0.3,0-0.4-0.1
		c-0.5-0.1-1.1-0.2-1.6-0.3s-0.9-0.2-1.4-0.3c-0.1,0-0.2,0-0.4-0.1c-0.2-0.1-0.5-0.1-0.6-0.2l5.3,11.2l-9.7-0.9l-6.9-14.8
		c-0.2-0.1-0.5-0.3-0.6-0.4c-0.1-0.1-0.2-0.1-0.3-0.2c-0.2-0.2-0.5-0.3-0.6-0.5c-0.1,0-0.1-0.1-0.2-0.1s-0.1-0.1-0.2-0.1
		c-0.2-0.1-0.4-0.3-0.5-0.4s-0.2-0.2-0.3-0.2c-0.2-0.1-0.4-0.3-0.5-0.4s-0.2-0.1-0.3-0.2c-0.3-0.2-0.5-0.4-0.7-0.6
		c-0.2-0.2-0.5-0.4-0.6-0.6c0,0,0,0-0.1-0.1s-0.1-0.1-0.2-0.2c-0.1-0.1-0.3-0.3-0.4-0.4c-0.1-0.1-0.2-0.2-0.3-0.3
		c-0.1-0.1-0.3-0.3-0.4-0.4c-0.1-0.1-0.2-0.2-0.3-0.3c-0.1-0.1-0.2-0.3-0.4-0.4c-0.1-0.1-0.2-0.2-0.3-0.3c-0.1-0.1-0.2-0.3-0.3-0.5
		c-0.1-0.1-0.1-0.1-0.2-0.2l-0.1-0.1c-0.1-0.2-0.2-0.3-0.3-0.5c-0.1-0.1-0.1-0.2-0.2-0.3c-0.1-0.2-0.2-0.4-0.3-0.5s-0.1-0.2-0.2-0.3
		c-0.1-0.2-0.3-0.5-0.4-0.6c0,0,0-0.1-0.1-0.1c-0.2-0.3-0.3-0.5-0.5-0.8c-0.1-0.3-0.2-0.5-0.4-0.7l-7.9-16.9
		C402.4,181.5,402.5,181.8,402.7,182z"/>
	<path class="st1" d="M402.3,181.4c-4.3-9.4-1.6-20.7,6-31.7c7.7-11,20.4-21.5,36.5-29c32.1-15,64.9-12,73.5,6.6
		c4.3,9.4,1.6,20.7-6,31.7c-7.7,11-20.4,21.5-36.5,29c-14.1,6.5-28.3,9.7-40.6,9.5c-3.4,0-6.6-0.4-9.7-0.9
		C414.5,194.6,406.1,189.5,402.3,181.4z M472.7,181.2c12.8-6,23-14.4,29.2-23.2s8.3-18,4.8-25.3c-6.8-14.9-33.2-17.3-58.8-5.3
		c-12.8,6-23,14.4-29.2,23.2s-8.3,18-4.8,25.3C420.8,190.8,447,193.2,472.7,181.2z"/>
	<path class="st0" d="M428.3,207.3l8,16.9l6.8-9.7l-7.9-17L428.3,207.3z"/>
	<path class="st1" d="M418.7,206.4l9.7,0.9l6.8-9.8c-3.4,0-6.6-0.4-9.7-0.9L418.7,206.4z"/>
	<path class="st0" d="M374.5,263.8c0,0.1,0.1,0.2,0.2,0.3c0,0.1,0.1,0.1,0.1,0.2s0.1,0.1,0.1,0.2s0.1,0.1,0.1,0.2s0.1,0.1,0.2,0.2
		c0,0.1,0.1,0.1,0.1,0.2c0.1,0.1,0.1,0.1,0.2,0.2c0,0.1,0.1,0.1,0.1,0.2c0.1,0.1,0.1,0.1,0.2,0.2s0.1,0.1,0.2,0.2s0.1,0.1,0.2,0.2
		s0.1,0.1,0.2,0.2c0.1,0,0.1,0.1,0.2,0.1c0.1,0.1,0.2,0.1,0.3,0.2c0.1,0,0.1,0.1,0.2,0.1c0.1,0.1,0.2,0.1,0.3,0.2
		c0.1,0,0.1,0.1,0.2,0.1c0.2,0.1,0.3,0.2,0.5,0.2c0,0,0.1,0,0.1,0.1c0.2,0.1,0.4,0.2,0.5,0.2s0.2,0,0.2,0.1c0.1,0,0.2,0.1,0.4,0.1
		c0.1,0,0.2,0,0.3,0.1c0.1,0,0.2,0.1,0.4,0.1c0.1,0,0.2,0,0.3,0.1c0.1,0,0.2,0,0.4,0.1c0.1,0,0.2,0,0.3,0c0.1,0,0.3,0,0.4,0
		s0.2,0,0.3,0c0.3,0,0.5,0.1,0.8,0.1c0.1,0,0.1,0,0.2,0c0.3,0,0.5,0,0.7,0c0.1,0,0.1,0,0.2,0c0.3,0,0.5,0,0.9,0c0.1,0,0.1,0,0.2,0
		c0.3,0,0.5-0.1,0.8-0.1h0.1c0.5-0.1,0.9-0.1,1.4-0.2s0.9-0.2,1.5-0.4c0.1,0,0.1,0,0.2,0c0.2-0.1,0.5-0.1,0.6-0.2
		c0.1,0,0.2-0.1,0.3-0.1c0.2-0.1,0.4-0.1,0.6-0.2c0.1,0,0.2-0.1,0.2-0.1c0.5-0.2,0.9-0.4,1.4-0.5h0.1c0.3-0.1,0.5-0.2,0.7-0.4
		c0.4-0.2,0.7-0.4,1-0.5c0.2-0.1,0.5-0.2,0.6-0.4c0.3-0.1,0.5-0.3,0.7-0.4s0.5-0.3,0.6-0.4c0.2-0.1,0.5-0.3,0.6-0.5
		c0.2-0.2,0.5-0.3,0.6-0.5c0.3-0.3,0.6-0.5,0.9-0.7c0,0,0,0,0.1-0.1c0.3-0.3,0.6-0.5,0.9-0.7c0.1-0.1,0.2-0.2,0.3-0.3
		c0.3-0.3,0.6-0.5,0.9-0.9c0.2-0.2,0.4-0.5,0.6-0.6c0.1-0.1,0.2-0.3,0.3-0.4c0.3-0.4,0.5-0.7,0.8-1.1l30.7-47.6
		c0.5-0.8,0.7-1.5,0.5-2.1l7.9,16.9c0.3,0.5,0.2,1.3-0.5,2.1L409,275.2c-0.3,0.4-0.5,0.7-0.8,1.1c-0.1,0.1-0.2,0.3-0.3,0.4
		c-0.2,0.2-0.4,0.5-0.6,0.6c-0.3,0.3-0.5,0.5-0.9,0.8c-0.1,0.1-0.2,0.2-0.3,0.3c-0.1,0.1-0.2,0.2-0.4,0.3c-0.2,0.2-0.4,0.3-0.5,0.5
		c0,0,0,0-0.1,0.1c-0.2,0.2-0.5,0.4-0.7,0.5c-0.1,0.1-0.2,0.1-0.3,0.2c-0.2,0.2-0.5,0.3-0.6,0.5c-0.1,0.1-0.3,0.2-0.4,0.3
		c-0.1,0.1-0.2,0.1-0.3,0.2c-0.2,0.1-0.4,0.3-0.6,0.4s-0.3,0.2-0.4,0.3c-0.1,0.1-0.2,0.1-0.3,0.2c-0.2,0.1-0.5,0.3-0.6,0.4
		c-0.2,0.1-0.3,0.2-0.5,0.2c-0.2,0.1-0.4,0.2-0.6,0.3c-0.3,0.1-0.5,0.2-0.7,0.4c0,0,0,0-0.1,0c-0.5,0.2-0.9,0.4-1.4,0.5
		c0,0,0,0-0.1,0s-0.1,0-0.2,0.1c-0.2,0.1-0.4,0.1-0.6,0.2c-0.1,0-0.2,0.1-0.3,0.1c-0.2,0.1-0.5,0.1-0.6,0.2h-0.1
		c-0.5,0.1-0.9,0.3-1.5,0.4c-0.5,0.1-0.9,0.2-1.4,0.2h-0.1c-0.3,0-0.5,0.1-0.8,0.1c-0.1,0-0.1,0-0.2,0c-0.3,0-0.5,0-0.9,0
		c-0.1,0-0.1,0-0.2,0c-0.3,0-0.5,0-0.7,0c-0.1,0-0.1,0-0.2,0c-0.3,0-0.5,0-0.8-0.1h-0.1c-0.1,0-0.1,0-0.2,0s-0.3,0-0.4,0
		s-0.2,0-0.3,0s-0.2,0-0.4-0.1c-0.1,0-0.2,0-0.3-0.1c-0.1,0-0.2-0.1-0.4-0.1c-0.1,0-0.2,0-0.3-0.1c-0.1,0-0.2-0.1-0.4-0.1
		c-0.1,0-0.1,0-0.2-0.1c-0.2-0.1-0.4-0.1-0.5-0.2c0,0-0.1,0-0.1-0.1c-0.2-0.1-0.3-0.1-0.5-0.2h-0.1c0,0-0.1,0-0.1-0.1
		c-0.1-0.1-0.2-0.1-0.3-0.2c-0.1,0-0.1-0.1-0.2-0.1c-0.1-0.1-0.2-0.1-0.3-0.2l-0.1-0.1c-0.1-0.1-0.1-0.1-0.2-0.2s-0.1-0.1-0.2-0.2
		s-0.1-0.1-0.2-0.2l-0.1-0.1c-0.1-0.1-0.1-0.1-0.1-0.2c-0.1-0.1-0.1-0.1-0.2-0.2c0-0.1-0.1-0.1-0.1-0.2l-0.1-0.1c0,0,0,0,0-0.1
		s-0.1-0.1-0.1-0.2s-0.1-0.1-0.1-0.2s-0.1-0.1-0.1-0.2l-0.1-0.1c0-0.1-0.1-0.1-0.1-0.2L374.5,263.8z"/>
	<path class="st2" d="M375.7,256.8c-1.7,2.5-2.1,5.2-1.3,7c2,4.3,10.1,5.8,17.4,2.4c3.9-1.8,7.1-4.9,9.1-7.7l30.9-47.7
		c1.1-1.6-0.1-3.2-2.1-3.4l-12.7-1.2c-2-0.2-4.3,0.9-5.5,2.5L376.1,256C376,256.4,375.9,256.6,375.7,256.8z"/>
	<path class="st2" d="M429.9,207.4l-12.7-1.2c-2-0.2-4.3,0.9-5.5,2.5L376.2,256c-0.2,0.2-0.3,0.4-0.5,0.5c-1.7,2.5-2.1,5.2-1.3,7"/>
	<path class="st3" d="M429.9,207.4l-12.7-1.2c-2-0.2-4.3,0.9-5.5,2.5L376.2,256c-0.2,0.2-0.3,0.4-0.5,0.5c-1.7,2.5-2.1,5.2-1.3,7"/>
</g>
</svg>
