<?xml version="1.0" encoding="utf-8"?>
<!-- Generator: Adobe Illustrator 22.1.0, SVG Export Plug-In . SVG Version: 6.00 Build 0)  -->
<svg version="1.1" id="Слой_1" xmlns="http://www.w3.org/2000/svg" xmlns:xlink="http://www.w3.org/1999/xlink" x="0px" y="0px"
	 viewBox="0 0 583 516.4" style="enable-background:new 0 0 583 516.4;" xml:space="preserve">
<style type="text/css">
	.st0{fill:#2F58FF;}
	.st1{fill:none;stroke:#171A21;stroke-width:2;stroke-linecap:round;stroke-linejoin:round;stroke-miterlimit:10;}
</style>
<g id="_x33_">
	<path class="st0" d="M534.6,365.3c0,0.2,0,0.2-0.1,0.3c0,0.2,0,0.2,0,0.3c0,0.2,0,0.2,0,0.3c0,0.2,0,0.2,0,0.3c0,0.2,0,0.2-0.1,0.3
		c0,0.2,0,0.2-0.2,0.3c0,0.2,0,0.2-0.2,0.3c0,0.2,0,0.2-0.2,0.3c0,0.2-0.2,0.1-0.2,0.3c0,0.2-0.2,0.1-0.2,0.3c0,0.2-0.2,0.1-0.2,0.3
		c0,0.2-0.2,0.1-0.2,0.3c0,0.2-0.2,0.3-0.4,0.3l-0.2,0.1c-0.2,0.1-0.2,0.3-0.4,0.4l-0.2,0.1c0,0,0,0,0,0.2c-0.2,0.1-0.2,0.3-0.4,0.4
		c0,0,0,0-0.2,0.1s-0.4,0.3-0.5,0.4c0,0,0,0-0.2,0.1s-0.3,0.1-0.4,0.3c-0.2,0.1-0.2,0.1-0.4,0.3c-0.2,0.1-0.2,0.1-0.4,0.3
		c-0.2,0.1-0.2,0.1-0.4,0.3c-0.2,0.1-0.2,0.1-0.4,0.3c-0.2,0.1-0.3,0.1-0.4,0.3c-0.2,0.1-0.2,0.1-0.3,0.1c-0.2,0.1-0.3,0.1-0.5,0.2
		s-0.3,0.1-0.5,0.2c-0.3,0.1-0.7,0.2-1,0.3c-0.2,0-0.2,0.1-0.3,0.1c-0.3,0.1-0.5,0.2-0.8,0.2c-0.2,0-0.2,0.1-0.3,0.1
		c-0.3,0.1-0.8,0.2-1.1,0.3h-0.2c-0.3,0.1-0.6,0.1-1,0.2c-0.2,0-0.3,0.1-0.5,0.1s-0.3,0.1-0.5,0.1s-0.3,0.1-0.5,0.1
		s-0.3,0.1-0.5,0.1s-0.3,0-0.5,0.1c-0.2,0-0.3,0.1-0.6,0.1c-0.2,0-0.3,0-0.5,0.1c-0.2,0-0.3,0-0.6,0.1c-0.2,0-0.3,0-0.5,0.1
		c-0.5-0.1-0.8,0-1.2,0H516c-0.3,0-0.8,0-1.1,0c-0.2,0-0.3,0-0.5-0.1c-0.2,0-0.5-0.1-0.6-0.1c-0.2,0-0.3,0-0.5-0.1
		c-0.3,0-0.5-0.1-0.8-0.1c-0.2,0-0.3,0-0.5-0.1c-0.2,0-0.5-0.1-0.6-0.1c-0.2,0-0.3,0-0.5-0.1c-0.2,0-0.5-0.1-0.6-0.1
		c-0.2,0-0.3,0-0.5-0.1c-0.2,0-0.5-0.1-0.6-0.1c-0.2,0-0.3-0.1-0.5-0.1s-0.5-0.1-0.6-0.1c-0.2,0-0.3,0-0.3,0c-0.3,0-0.6-0.1-0.7-0.3
		h-0.2c-0.3-0.1-0.6-0.3-1-0.3h-0.2c-0.3-0.1-0.6-0.3-0.9-0.3c-0.2,0-0.3,0-0.3,0c-0.2,0-0.4-0.2-0.6-0.3c-0.2,0-0.2,0-0.3,0
		c-0.3,0-0.4-0.2-0.7-0.3c-0.2,0-0.3-0.1-0.4-0.2c-0.2,0-0.4-0.2-0.6-0.3c-0.2,0-0.3,0-0.3-0.2c-0.3-0.2-0.6-0.3-1-0.5h-0.2
		c-0.3-0.2-0.7-0.4-1-0.6c-0.2,0-0.3-0.2-0.4-0.2c-0.2,0-0.3-0.2-0.3-0.2c-0.2,0-0.3-0.2-0.4-0.2c-0.2,0-0.1-0.2-0.3-0.2
		c-0.1-0.2-0.3-0.2-0.4-0.4c-0.2,0-0.1-0.2-0.3-0.2c-0.3-0.2-0.4-0.4-0.7-0.6c-3.7-3.1-5.3-6.7-4.8-9.8l-5.7,33.8
		c-0.5,3.2,1.1,6.6,4.8,9.8c0.3,0.2,0.4,0.4,0.7,0.6c0.2,0,0.1,0.2,0.3,0.2c0.1,0.2,0.3,0.2,0.4,0.4c0.2,0,0.1,0.2,0.3,0.2
		c0.2,0,0.3,0.2,0.4,0.2c0.2,0,0.3,0.2,0.3,0.2c0.2,0,0.1,0.2,0.3,0.2c0,0,0,0,0.2,0c0.3,0.2,0.7,0.4,1,0.6h0.2
		c0.3,0.2,0.6,0.3,1,0.5h0.2h0.2c0.2,0,0.4,0.2,0.6,0.3c0.2,0,0.3,0,0.4,0.2c0.3,0,0.4,0.2,0.7,0.3c0.2,0,0.2,0,0.3,0
		c0.2,0,0.4,0.2,0.6,0.3c0.2,0,0.3,0.1,0.3,0.1c0.3,0,0.6,0.3,0.9,0.3h0.2c0.3,0,0.6,0.3,1,0.3c0.2,0,0.2,0,0.3,0
		c0.3,0.1,0.5,0.1,0.8,0.1c0.2,0,0.3,0.1,0.3,0.1c0.2,0,0.5,0.1,0.6,0.1c0.2,0,0.3,0,0.5,0.1c0.2,0,0.5,0.1,0.6,0.1
		c0.2,0,0.2,0,0.3,0c0.2,0,0.5,0.1,0.6,0.1c0.2,0,0.3,0.1,0.5,0.1s0.5,0.1,0.6,0.1c0,0,0,0,0.2,0s0.2,0,0.3,0.1
		c0.3,0,0.5,0.1,0.8,0.1c0.2,0,0.3,0,0.5,0.1c0.2,0,0.5,0.1,0.6,0.1c0.2,0,0.2,0,0.3,0h0.2c0.3,0.1,0.8,0,1.1,0h0.2
		c0.5,0.1,0.8,0,1.3,0c0,0,0,0,0.2,0s0.2,0,0.3,0.1c0.2,0,0.3,0,0.6-0.1c0.2,0,0.3,0.1,0.5-0.1c0.2,0,0.3-0.1,0.6-0.1
		c0.2,0,0.3,0.1,0.5-0.1c0.2,0,0.3-0.1,0.5-0.1s0.3-0.1,0.5-0.1s0.3-0.1,0.5-0.1h0.2h0.2c0.3-0.1,0.6-0.1,1-0.2h0.2
		c0.3-0.1,0.8-0.2,1.1-0.3c0.2,0,0.2-0.1,0.3-0.1c0.3-0.1,0.5-0.2,0.8-0.2c0.2,0,0.2-0.1,0.3-0.1c0.3-0.1,0.7-0.2,1-0.3
		c0.2,0,0.2-0.1,0.3-0.1c0.2,0,0.2-0.1,0.3-0.1c0.2-0.1,0.3-0.1,0.5-0.2c0.2,0,0.2-0.1,0.4-0.3c0.2-0.1,0.3-0.1,0.4-0.3
		c0.2-0.1,0.2-0.1,0.4-0.3c0.2-0.1,0.2-0.1,0.4-0.3c0.2-0.1,0.2-0.1,0.4-0.3c0.2-0.1,0.2-0.1,0.4-0.3c0,0,0.2,0,0.2-0.1
		c0.2,0,0.2-0.1,0.3-0.1c0,0,0,0,0.2-0.1s0.4-0.3,0.5-0.4c0,0,0,0,0.2-0.1s0.4-0.3,0.4-0.4c0,0,0,0,0-0.2c0,0,0-0.2,0.2-0.1
		c0.2-0.1,0.2-0.3,0.4-0.4l0.2-0.1c0.2-0.1,0.2-0.3,0.4-0.3c0,0,0,0,0-0.2c0,0,0-0.2,0.2-0.1c0-0.2,0.2-0.1,0.2-0.3
		c0-0.2,0.2-0.1,0.2-0.3c0-0.2,0.2-0.1,0.2-0.3v-0.2v-0.2c0-0.2,0-0.2,0.2-0.3c0-0.2,0-0.2,0.2-0.3c0-0.2,0-0.2,0.1-0.3v-0.2
		c0,0,0,0,0-0.2s0-0.2,0.1-0.3c0-0.2,0-0.2,0-0.3c0-0.2,0-0.2,0.1-0.3v-0.2v-0.2l5.7-33.8C534.6,365.2,534.6,365.3,534.6,365.3z"/>
	<path class="st1" d="M491.3,362.8l10.9-65.8c0.5-3.1,3-5.9,7.6-7.7c9-3.4,22.5-1.2,30,4.9c3.9,3.2,5.5,6.9,4.8,10.1
		c0-0.2,0-0.2,0-0.3l-11,66.4"/>
</g>
</svg>
