<?xml version="1.0" encoding="utf-8"?>
<!-- Generator: Adobe Illustrator 22.1.0, SVG Export Plug-In . SVG Version: 6.00 Build 0)  -->
<svg version="1.1" id="Слой_1" xmlns="http://www.w3.org/2000/svg" xmlns:xlink="http://www.w3.org/1999/xlink" x="0px" y="0px"
	 viewBox="0 0 583 516.4" style="enable-background:new 0 0 583 516.4;" xml:space="preserve">
<style type="text/css">
	.st0{fill:#2F58FF;}
	.st1{fill:#9AF4DC;}
	.st2{fill:none;stroke:#171A21;stroke-width:2;stroke-linecap:round;stroke-linejoin:round;stroke-miterlimit:10;}
	.st3{fill:#FFFFFF;}
	.st4{fill:none;stroke:#171A21;stroke-width:2;stroke-linecap:round;stroke-linejoin:round;}
	.st5{fill:none;stroke:#171A21;stroke-width:2;stroke-linecap:round;stroke-linejoin:round;stroke-dasharray:11.54,11.54;}
</style>
<g id="_x38_">
	<path class="st0" d="M70.1,55.8L40.4,4.2c-0.8-1.4-2.7-1.4-3.5,0L11.6,48.6c-1.5,2.5-1.5,5.5,0,8.1l29.2,50.5c1.5,2.5,4.1,4,7,4
		l58.1-0.2c2.8,0,5.4-1.6,6.9-4l25.4-44.4c0.8-1.4-0.2-3-1.7-3l-59.2,0.2C74.2,59.8,71.6,58.2,70.1,55.8z"/>
	<path class="st1" d="M136.3,59.6l-59.2,0.2c-2.9,0-5.5-1.6-7-4L40.4,4.2c-0.8-1.4,0.2-3,1.7-3L101.3,1c2.9,0,5.5,1.6,7,4L138,56.6
		C138.8,57.9,137.9,59.6,136.3,59.6z"/>
	<path class="st2" d="M137.5,63.6c1.5-2.5,1.5-5.5,0-8.1L108.3,5c-1.5-2.5-4.1-4-7-4L43.2,1.2c-2.8,0-5.4,1.6-6.9,4L11.6,48.6
		c-1.5,2.5-1.5,5.5,0,8.1"/>
	<path class="st3" d="M61.6,1.2l33.8,58.5h23.8L85.3,1.1L61.6,1.2z"/>
	<path class="st4" d="M67.4,1.2h-5.8l2.9,5"/>
	<path class="st5" d="M70,15.9l19.6,34"/>
	<path class="st4" d="M92.5,54.7l2.9,4.9h5.8"/>
	<path class="st4" d="M113.3,59.7h5.8l-2.9-5"/>
	<path class="st5" d="M110.6,44.9L91,11"/>
	<path class="st4" d="M88.2,6.1l-2.9-5h-5.8"/>
</g>
</svg>
