<?xml version="1.0" encoding="utf-8"?>
<!-- Generator: Adobe Illustrator 22.1.0, SVG Export Plug-In . SVG Version: 6.00 Build 0)  -->
<svg version="1.1" id="Слой_1" xmlns="http://www.w3.org/2000/svg" xmlns:xlink="http://www.w3.org/1999/xlink" x="0px" y="0px"
	 viewBox="0 0 583 516.4" style="enable-background:new 0 0 583 516.4;" xml:space="preserve">
<style type="text/css">
	.st0{fill:#2F58FF;}
	.st1{fill:#FFFFFF;}
	.st2{fill:none;stroke:#171A21;stroke-width:2;stroke-linecap:round;stroke-linejoin:round;stroke-miterlimit:10;}
	
		.st3{fill:none;stroke:#171A21;stroke-width:2;stroke-linecap:round;stroke-linejoin:round;stroke-miterlimit:10;stroke-dasharray:12,12;}
</style>
<g id="_x31_">
	<path class="st0" d="M15.4,388.6c-0.1-0.1-0.1-0.3,0-0.4c0,0,0,0,0-0.1s0-0.1-0.1-0.3c0,0,0,0,0-0.1s0-0.1-0.1-0.3
		c0-0.1-0.1-0.3,0-0.4c0-0.1,0.1-0.2,0.1-0.4c0,0,0,0,0-0.1s0.1-0.2,0.1-0.2c0-0.1,0-0.1,0.1-0.2c0,0,0,0,0-0.1s0-0.1,0.1-0.2
		c0-0.1,0-0.1,0.2-0.2c0,0,0,0,0-0.1s0-0.1,0.1-0.1l-11.8,12L4,397.5c0,0.1,0,0.1-0.2,0.2c0,0.1,0,0.1-0.1,0.2c0,0.1,0,0.1-0.1,0.2
		c0,0.1-0.1,0.2-0.1,0.2c0,0.1-0.1,0.2-0.1,0.4c0,0.1-0.1,0.2,0,0.4c0,0.1,0,0.1,0.1,0.3c0,0,0,0,0,0.1s0,0.1,0.1,0.3
		c0,0.1,0.1,0.1,0.1,0.3c0,0,0,0,0,0.1s0.1,0.3,0.1,0.3l7.4,27.4c0.1,0.1,0.1,0.3,0.1,0.4c0,0,0,0.1,0.1,0.1c0,0.1,0.1,0.1,0.1,0.3
		l0.1,0.1c0,0.1,0.1,0.1,0.1,0.3l0.1,0.1c0,0.1,0.1,0.1,0.1,0.3l0.1,0.1c0.1,0.1,0.1,0.1,0.2,0.3l0.1,0.1c0.1,0.1,0.1,0.3,0.2,0.3
		c0.1,0.1,0.2,0.3,0.1,0.4c0.1,0.1,0.2,0.3,0.3,0.4c0,0,0.1,0,0.1,0.1c0.1,0.1,0.2,0.3,0.3,0.3c0.2,0.3,0.4,0.5,0.6,0.8
		c0,0,0,0,0.1,0c0.1,0.1,0.3,0.3,0.5,0.5c0,0,0,0,0.1,0c0.2,0.2,0.3,0.3,0.5,0.5h0.1c0.1,0.1,0.2,0.2,0.4,0.4h0.1l0.1,0.1l44.6,42.5
		c0.1,0.1,0.3,0.2,0.4,0.4c0.2,0.2,0.3,0.3,0.5,0.4c0,0,0,0,0.1,0h0.1c0.1,0.1,0.2,0.2,0.4,0.4H62c0.2,0.2,0.3,0.2,0.5,0.4
		c0.2,0.2,0.3,0.2,0.5,0.4c0,0,0,0,0.1,0c0,0,0,0,0.1,0c0.2,0.2,0.4,0.2,0.6,0.4c0.1,0,0.1,0,0.2,0.1c0.1,0,0.1,0,0.2,0.1
		c0.1,0,0.2,0.1,0.2,0.2h0.1h0.1c0.1,0,0.2,0.1,0.3,0.2H65c0.1,0,0.2,0.1,0.4,0.1c0,0,0,0,0.1,0h0.1c0.1,0,0.2,0.1,0.4,0.1h0.1
		c0.1,0,0.2,0.1,0.4,0.1h0.1c0.1,0,0.4,0.1,0.5,0.1h0.1c0.1,0,0.2,0.1,0.4,0.1h0.1c0.1,0,0.2,0.1,0.2,0.1H68c0.1,0,0.2,0.1,0.2,0.1
		h0.1c0.1,0,0.2,0.1,0.4,0c0.1,0,0.3-0.1,0.4,0h0.1c0.1,0,0.1,0,0.3-0.1h0.1c0.1,0,0.1-0.1,0.3-0.1H70c0.1,0,0.1-0.1,0.3-0.1
		c0,0,0,0,0.1,0c0.1-0.1,0.3-0.1,0.3-0.2c0,0,0,0,0.1,0s0.1-0.1,0.3-0.1c0,0,0,0,0.1-0.1l0.1-0.1c0,0,0-0.1,0.1-0.1
		c0-0.1,0.1-0.1,0.2-0.2c0,0,0,0,0.1-0.1s0.2-0.2,0.3-0.2l11.8-12.1c0,0.1-0.2,0.2-0.3,0.2c0,0,0,0-0.1,0.1c0,0.1-0.1,0.1-0.2,0.2
		c0,0,0,0.1-0.1,0.1l-0.1,0.1c0,0,0,0-0.1,0.1c-0.1,0-0.1,0.1-0.3,0.1c0,0,0,0-0.1,0c-0.1,0.1-0.3,0.1-0.3,0.2c0,0,0,0-0.1,0
		s-0.1,0.1-0.3,0.1h-0.1c-0.1,0-0.1,0.1-0.3,0.1h-0.1c-0.1,0-0.1,0.1-0.3,0.1h-0.1c-0.1,0-0.3,0.1-0.4,0c-0.1,0-0.3,0.1-0.4,0H80
		c-0.1,0-0.2-0.1-0.2-0.1h-0.1c-0.1,0-0.2-0.1-0.2-0.1h-0.1c-0.1,0-0.2-0.1-0.4-0.1h-0.1c-0.1,0-0.4-0.1-0.5-0.1h-0.1
		c-0.1,0-0.2-0.1-0.4-0.1h-0.1c-0.1,0-0.2-0.1-0.4-0.1c-0.1,0-0.1,0-0.2-0.1c-0.1,0-0.2-0.1-0.4-0.1h-0.1c-0.1,0-0.2-0.1-0.3-0.2
		h-0.1h-0.1c-0.1,0-0.2-0.1-0.2-0.2c-0.1,0-0.1,0-0.2-0.1c-0.1,0-0.1,0-0.2-0.2c-0.2-0.2-0.4-0.2-0.6-0.4h-0.1
		c-0.2-0.2-0.3-0.2-0.5-0.4c0,0,0,0-0.1,0c-0.2-0.2-0.3-0.2-0.5-0.4c0,0-0.1,0-0.1-0.1c-0.1-0.1-0.2-0.2-0.4-0.4c0,0-0.1,0-0.1-0.1
		c-0.2-0.2-0.3-0.3-0.5-0.4c-0.1-0.1-0.3-0.2-0.4-0.4l-44.6-42.5c-0.1,0-0.1-0.1-0.2-0.2s-0.2-0.2-0.4-0.4c0,0-0.1,0-0.1-0.1
		c-0.2-0.2-0.3-0.3-0.5-0.5c0,0-0.1,0-0.1-0.1c-0.2-0.2-0.3-0.3-0.5-0.5c0,0,0,0-0.1-0.1c-0.2-0.2-0.4-0.5-0.6-0.8l-0.1-0.1
		c-0.1-0.1-0.2-0.3-0.3-0.3c0,0-0.1,0-0.1-0.1c-0.1-0.1-0.2-0.3-0.3-0.4c-0.1-0.1-0.2-0.3-0.3-0.4c-0.1-0.1-0.2-0.3-0.2-0.3
		l-0.1-0.1c-0.1-0.1-0.1-0.1-0.2-0.3l-0.1-0.1c0-0.1-0.1-0.1-0.1-0.3l-0.1-0.1c0-0.1-0.1-0.1-0.1-0.3l-0.1-0.1
		c0-0.1-0.1-0.1-0.1-0.3c0,0,0-0.1-0.1-0.1c-0.1-0.1-0.1-0.3-0.1-0.4l-1.9-6.6c0.1,0,0.2,0.1,0.2,0.1h0.1c0.1,0,0.1,0,0.2,0.1h0.1
		c0.1,0,0.1,0,0.2,0.1h0.1c0.2,0.1,0.3,0.2,0.6,0.3h0.1c0.1,0,0.3,0.2,0.4,0.2s0.3,0.2,0.4,0.2h0.1c0.1,0,0.2,0.2,0.3,0.2
		c0,0,0,0,0.1,0c0.1,0.1,0.2,0.2,0.4,0.4h0.1c0.1,0,0.2,0.2,0.3,0.2h0.1c0.1,0.1,0.2,0.2,0.3,0.3c0,0,0,0,0.1,0
		c0.1,0.1,0.2,0.2,0.3,0.3c0,0,0.1,0,0.1,0.1c0.1,0.1,0.2,0.3,0.3,0.3c0,0,0,0,0.1,0c0.1,0.1,0.2,0.3,0.3,0.4
		c0.1,0.1,0.3,0.3,0.4,0.5c0,0,0,0,0.1,0c0.1,0.1,0.2,0.2,0.3,0.3c0.1,0.1,0.2,0.3,0.2,0.3s0,0,0.1,0.1s0.2,0.3,0.3,0.4
		c0.1,0.1,0.2,0.3,0.3,0.4c0,0,0,0,0.1,0.1s0.2,0.3,0.1,0.4c0,0,0,0,0,0.1c0.1,0.1,0.2,0.3,0.1,0.5c0.1,0.1,0.1,0.3,0.1,0.4v0.1
		c0,0.1,0.1,0.1,0.1,0.3v0.1c0,0.1,0.1,0.1,0.1,0.3c0,0,0,0,0,0.1s0.1,0.3,0.1,0.3v0.1c0,0,0,0,0,0.1s0,0.1-0.1,0.2
		c0,0.1-0.1,0.2-0.1,0.4c0,0,0,0,0,0.1s-0.1,0.2-0.1,0.4s0,0.1-0.1,0.2c0,0,0,0,0,0.1S28.1,418,28,418c0,0.1,0,0.1-0.2,0.2
		c0,0,0,0,0,0.1s-0.1,0.1-0.2,0.2c0,0,0,0,0,0.1l11.8-12.1c0-0.1,0.1-0.1,0.2-0.2c0-0.1,0.1-0.1,0.2-0.2c0-0.1,0.1-0.2,0.2-0.2
		c0-0.1,0-0.1,0.1-0.2c0-0.1,0.1-0.2,0.1-0.4s0.1-0.2,0.1-0.4c0-0.1,0-0.1,0.1-0.2c0,0,0,0,0-0.1v-0.1c0-0.1,0.1-0.2-0.1-0.3
		c0,0,0,0,0-0.1s0-0.1-0.1-0.3c0,0,0,0,0-0.1s-0.1-0.1-0.1-0.3v-0.1c0-0.1-0.1-0.3-0.1-0.4c-0.1-0.1-0.1-0.3-0.1-0.5c0,0,0,0,0-0.1
		c-0.1-0.1-0.2-0.3-0.1-0.4c0,0,0,0-0.1-0.1s-0.2-0.3-0.3-0.4s-0.2-0.3-0.3-0.4s-0.2-0.3-0.2-0.3c-0.1-0.1-0.2-0.3-0.3-0.3
		c-0.1-0.1-0.3-0.3-0.4-0.5c-0.1-0.1-0.2-0.3-0.3-0.4s-0.2-0.3-0.3-0.3c0,0,0,0-0.1,0c-0.1-0.1-0.2-0.2-0.3-0.3
		c-0.1-0.1-0.2-0.2-0.3-0.3c0,0,0,0-0.1,0s-0.2-0.2-0.3-0.2c0,0,0,0-0.1,0c-0.1-0.1-0.2-0.2-0.4-0.4c-0.1,0-0.2-0.2-0.3-0.2
		c0,0,0,0-0.1,0s-0.3-0.2-0.4-0.2c-0.1,0-0.3-0.2-0.4-0.2c-0.2-0.1-0.3-0.2-0.6-0.3c0,0,0,0-0.1,0s-0.1,0-0.2-0.1h-0.1
		c-0.1,0-0.1,0-0.2-0.1h-0.1c-0.1,0-0.4-0.1-0.5-0.1h-0.1c-0.1,0-0.4-0.1-0.5-0.1c-1.8-0.4-3.1-0.1-3.9,0.6l-8.1,8.4l-4.8-16.8
		C15.4,388.8,15.3,388.7,15.4,388.6z"/>
	<path class="st1" d="M19.3,384.9l26.9,6.6c2.2,0.6,4.7,2.1,6.7,4.1L97,438.5c2.1,2,3.4,4.4,4.1,6.5c0.6,2.1,0.5,4.1-0.7,5.3
		l-16.6,17.4c-2.4,2.4-7.7,1.1-11.9-2.9l-44.6-42.5c-2-2-3.7-4.4-4.2-6.7l-7.6-26.8C14.6,386,16.3,384.2,19.3,384.9z M40.2,404.5
		c-1-3.4-4.5-6.9-8.1-7.8c-3.4-0.9-5.4,1.3-4.4,4.7c1,3.4,4.5,6.9,8.1,7.8C39.2,410,41.2,407.9,40.2,404.5z"/>
	<path class="st0" d="M40.2,404.5c-1-3.4-4.5-6.9-8.1-7.8c-3.4-0.9-5.4,1.3-4.4,4.7c1,3.4,4.5,6.9,8.1,7.8
		C39.2,410,41.2,407.9,40.2,404.5z"/>
	<path class="st2" d="M19.4,384.9c0.1-4.5,1.1-9.2,2.6-13.6"/>
	<path class="st3" d="M29.1,359.8c0.4-0.4,0.7-0.9,1.1-1.4c7.4-8.2,15.6-6.2,18.2,4.4c2.7,10.7-1.1,26-8.5,34.2
		c-3.3,3.8-6.9,5.4-10,5"/>
</g>
</svg>
