<?xml version="1.0" encoding="utf-8"?>
<!-- Generator: Adobe Illustrator 22.1.0, SVG Export Plug-In . SVG Version: 6.00 Build 0)  -->
<svg version="1.1" id="Слой_1" xmlns="http://www.w3.org/2000/svg" xmlns:xlink="http://www.w3.org/1999/xlink" x="0px" y="0px"
	 viewBox="0 0 583 516.4" style="enable-background:new 0 0 583 516.4;" xml:space="preserve">
<style type="text/css">
	.st0{fill:#2F58FF;}
	.st1{fill:#9AF4DC;}
	.st2{fill:none;stroke:#171A21;stroke-width:2;stroke-linecap:round;stroke-linejoin:round;stroke-miterlimit:10;}
</style>
<g id="_x31_0">
	<path class="st0" d="M437.6,274.4c0,0,0,0.1,0,0.2s0,0.2,0,0.3v0.1c0,0.1,0,0.2-0.1,0.3v0.1c-0.1,0.1-0.1,0.3-0.2,0.4
		s-0.2,0.3-0.3,0.4l-0.1,0.1c-0.1,0.2-0.3,0.3-0.4,0.5c-0.1,0.1-0.2,0.2-0.4,0.3l-46.4,36c-0.2,0.2-0.4,0.3-0.6,0.4
		c-0.1,0-0.1,0.1-0.2,0.1c-0.2,0.1-0.4,0.2-0.6,0.3c-0.1,0-0.2,0.1-0.3,0.1c-0.2,0.1-0.4,0.2-0.6,0.2c-0.1,0-0.1,0.1-0.2,0.1
		c-0.4,0.1-0.9,0.3-1.4,0.3c-0.1,0-0.1,0-0.2,0c-0.3,0.1-0.6,0.1-0.9,0.1c0,0,0,0-0.1,0c-0.3,0-0.6,0-0.9,0.1c-0.1,0-0.3,0-0.4,0
		s-0.3,0-0.4,0c-0.2,0-0.4,0-0.6,0c-0.1,0-0.2,0-0.2,0c-0.3,0-0.5-0.1-0.8-0.1c-0.1,0-0.2,0-0.3,0c-0.2,0-0.3-0.1-0.5-0.1
		c-0.3-0.1-0.5-0.1-0.8-0.2h-0.1c-0.3-0.1-0.5-0.2-0.8-0.3c-0.1,0-0.1-0.1-0.2-0.1c-0.4-0.1-0.7-0.3-1-0.5s-0.5-0.3-0.8-0.5
		L358,298.5l0.1-28.6c-4.4-6.2-10.7-11.7-18.9-16.5c-1-0.6-2-1.2-3.1-1.7c-0.4-0.2-0.7-0.4-1.1-0.5c-0.7-0.4-1.5-0.7-2.1-1.1
		c-0.4-0.2-0.9-0.4-1.3-0.6c-0.7-0.3-1.4-0.6-2-0.9c-0.5-0.2-1-0.4-1.5-0.6c-0.5-0.2-0.9-0.4-1.4-0.6c-0.3-0.1-0.6-0.2-0.8-0.3
		c-0.3-0.1-0.6-0.2-0.9-0.3c-1-0.4-1.9-0.7-2.9-1.1c-0.1,0-0.3-0.1-0.4-0.2c-1.1-0.4-2.2-0.7-3.3-1.1c-0.3-0.1-0.6-0.2-0.9-0.3
		c-0.4-0.1-0.8-0.3-1.3-0.4c-0.3-0.1-0.6-0.2-0.9-0.2c-0.9-0.2-1.6-0.5-2.5-0.7c-0.6-0.1-1.1-0.3-1.6-0.4c-0.9-0.2-1.7-0.4-2.7-0.6
		c-0.4-0.1-0.8-0.2-1.2-0.3c-0.2,0-0.3-0.1-0.5-0.1c-0.8-0.2-1.6-0.3-2.3-0.5c-0.6-0.1-1.2-0.2-1.7-0.3c-0.9-0.1-1.6-0.3-2.5-0.4
		c-0.5-0.1-1-0.2-1.5-0.2c-0.1,0-0.2,0-0.2,0c-0.8-0.1-1.5-0.2-2.2-0.3c-0.6-0.1-1.3-0.2-1.8-0.2c-0.8-0.1-1.6-0.2-2.3-0.2
		c-0.6-0.1-1.2-0.1-1.6-0.2c-0.1,0-0.1,0-0.2,0c-0.8-0.1-1.6-0.1-2.4-0.2c-0.6,0-1.2-0.1-1.7-0.1c-0.9,0-1.7-0.1-2.6-0.1
		c-0.5,0-1,0-1.6-0.1c0,0,0,0-0.1,0c-1.5,0-2.8-0.1-4.3,0c-0.3,0-0.7,0-1,0c-1.1,0-2.2,0-3.3,0.1c-0.1,0-0.1,0-0.2,0
		c-0.3,0-0.7,0-1,0.1c-1.1,0-2.2,0.1-3.3,0.2c-0.6,0-1.1,0.1-1.6,0.1c-1,0.1-1.8,0.2-2.8,0.2c-0.2,0-0.5,0-0.7,0.1
		c-0.7,0.1-1.5,0.2-2.1,0.2c-0.2,0-0.3,0-0.5,0.1c-1.2,0.1-2.4,0.3-3.6,0.5c-0.3,0-0.6,0.1-0.9,0.1c-1,0.2-2,0.3-3,0.5
		c-0.2,0-0.4,0.1-0.7,0.1c-0.1,0-0.2,0-0.3,0c-0.5,0.1-1,0.2-1.5,0.3c-0.8,0.2-1.6,0.3-2.4,0.5c-0.6,0.1-1.2,0.3-1.7,0.4
		c-0.8,0.2-1.6,0.4-2.2,0.5c-0.6,0.1-1.2,0.3-1.7,0.5c-0.8,0.2-1.5,0.4-2.2,0.6c-0.6,0.2-1.2,0.4-1.7,0.5c-0.7,0.2-1.5,0.4-2.1,0.7
		c-0.2,0.1-0.4,0.1-0.6,0.2c-0.8,0.3-1.6,0.6-2.4,0.8c-0.1,0-0.1,0-0.2,0.1c-1.1,0.4-2.1,0.8-3.2,1.2c-0.3,0.1-0.6,0.2-0.9,0.4
		c-0.9,0.3-1.6,0.7-2.5,1.1c-0.2,0.1-0.5,0.2-0.7,0.3c-1.1,0.5-2,0.9-3,1.4c-0.2,0.1-0.4,0.2-0.7,0.3c-0.8,0.4-1.6,0.8-2.3,1.3
		c-0.3,0.1-0.6,0.3-0.8,0.4c-1,0.5-1.9,1.1-2.8,1.6c-0.4,0.2-0.7,0.4-1.1,0.6c-0.1,0-0.2,0.1-0.3,0.1c-0.3,0.1-0.5,0.2-0.8,0.2
		c-0.3,0.1-0.5,0.1-0.8,0.2c-0.3,0.1-0.7,0.1-1,0.2c-0.1,0-0.1,0-0.2,0c-0.5,0-0.9,0.1-1.4,0.1c-0.1,0-0.1,0-0.2,0
		c-0.5,0-0.9,0-1.3-0.1c-0.1,0-0.1,0-0.2,0c-0.4-0.1-0.9-0.1-1.3-0.2c-0.1,0-0.2,0-0.2-0.1c-0.4-0.1-0.7-0.2-1.1-0.3
		c-0.1,0-0.1,0-0.2-0.1c-0.4-0.2-0.8-0.4-1.2-0.6c-0.3-0.2-0.5-0.3-0.8-0.5L186.2,239c-1.1-0.8-1.6-1.7-1.6-2.7l-0.1,35.8
		c0,1,0.5,1.9,1.6,2.7l18.9,14.5c0.2,0.2,0.5,0.3,0.8,0.5c0.4,0.2,0.7,0.4,1.1,0.5c0,0,0,0,0.1,0s0.1,0,0.2,0.1
		c0.2,0.1,0.5,0.2,0.7,0.2c0.1,0,0.3,0.1,0.4,0.1s0.2,0,0.2,0.1c0.1,0,0.1,0,0.2,0.1c0.3,0.1,0.5,0.1,0.8,0.1c0.1,0,0.2,0,0.3,0
		s0.1,0,0.2,0c0.1,0,0.2,0,0.3,0c0.3,0,0.5,0,0.8,0c0.1,0,0.2,0,0.2,0c0.1,0,0.1,0,0.2,0s0.3,0,0.4,0c0.3,0,0.6,0,0.9-0.1h0.1
		c0.1,0,0.1,0,0.2,0c0.2,0,0.5-0.1,0.7-0.1c0.1,0,0.2-0.1,0.3-0.1c0.3-0.1,0.5-0.1,0.8-0.2c0.1,0,0.3-0.1,0.4-0.1
		c0.1,0,0.2-0.1,0.4-0.1c0.1,0,0.2-0.1,0.3-0.1c0.4-0.2,0.8-0.3,1.1-0.6c1-0.6,1.8-1.1,2.8-1.6c0.3-0.2,0.6-0.3,0.8-0.4
		c0.8-0.4,1.6-0.8,2.3-1.3c0.2-0.1,0.4-0.2,0.7-0.3c1-0.5,2-1,3-1.4c0.2-0.1,0.5-0.2,0.7-0.3c0.9-0.4,1.6-0.7,2.5-1.1
		c0.3-0.1,0.6-0.2,0.9-0.4c1.1-0.4,2.1-0.8,3.2-1.2c0.1,0,0.1,0,0.2-0.1c1-0.4,1.9-0.7,3-1c0.7-0.2,1.5-0.4,2.1-0.7
		c0.6-0.2,1.2-0.4,1.7-0.5c0.7-0.2,1.5-0.4,2.2-0.6c0.6-0.2,1.2-0.3,1.7-0.5c0.8-0.2,1.6-0.4,2.2-0.5c0.6-0.1,1.2-0.3,1.7-0.4
		c0.8-0.2,1.6-0.3,2.4-0.5c0.6-0.1,1.2-0.2,1.7-0.3c0.2,0,0.4-0.1,0.7-0.1c1-0.2,2-0.3,3-0.5c0.3,0,0.6-0.1,0.9-0.1
		c1.2-0.2,2.4-0.3,3.6-0.5c0.2,0,0.3,0,0.5-0.1c1-0.1,1.9-0.2,2.8-0.3c1-0.1,1.8-0.2,2.8-0.2c0.6,0,1.1-0.1,1.6-0.1
		c1.1-0.1,2.2-0.1,3.3-0.2c0.4,0,0.8,0,1.2-0.1c1.1,0,2.1-0.1,3.3-0.1c0.3,0,0.7,0,1,0c1.5,0,2.8,0,4.3,0c0.5,0,1.1,0,1.6,0.1
		c0.9,0,1.7,0.1,2.6,0.1c0.6,0,1.2,0.1,1.7,0.1c0.8,0.1,1.6,0.1,2.4,0.2c0.6,0.1,1.3,0.1,1.8,0.2c0.8,0.1,1.6,0.1,2.3,0.2
		c0.6,0.1,1.3,0.2,1.8,0.2c0.8,0.1,1.6,0.2,2.2,0.3c0.6,0.1,1.1,0.2,1.6,0.3c0.9,0.1,1.7,0.3,2.5,0.4c0.6,0.1,1.2,0.2,1.7,0.3
		c0.8,0.2,1.6,0.3,2.3,0.5c0.6,0.1,1.1,0.2,1.6,0.4c0.9,0.2,1.8,0.4,2.7,0.6c0.6,0.1,1.1,0.3,1.6,0.4c0.9,0.2,1.7,0.5,2.5,0.7
		c0.7,0.2,1.5,0.4,2.1,0.6c0.3,0.1,0.6,0.2,0.9,0.3c1.1,0.4,2.2,0.7,3.3,1.1c0.1,0,0.3,0.1,0.4,0.2c1,0.3,1.9,0.7,2.9,1.1
		c0.3,0.1,0.6,0.2,0.9,0.4c0.7,0.3,1.5,0.6,2.1,0.9c0.2,0.1,0.3,0.1,0.5,0.2l-0.1,26.2c0,0.9,0.5,1.8,1.6,2.7l40.8,31.3
		c0,0-0.1,0-0.1,0.1c-0.1,0.1-0.2,0.1-0.3,0.2s-0.2,0.1-0.3,0.2c-0.1,0.1-0.3,0.2-0.4,0.3c-1.5,0.8-2.9,1.6-4.5,2.3
		c-0.3,0.2-0.7,0.3-1,0.5c-1.5,0.8-3,1.5-4.5,2.1c-0.2,0.1-0.5,0.2-0.7,0.3c-1.4,0.6-2.8,1.3-4.2,1.8c-0.3,0.1-0.6,0.3-1,0.4
		c-1.6,0.6-3.1,1.3-4.8,1.8c-0.3,0.1-0.7,0.2-1,0.4c-1.5,0.5-3,1.1-4.5,1.6c-0.2,0.1-0.4,0.1-0.6,0.2c-0.7,0.2-1.5,0.4-2.1,0.7
		c-1.3,0.4-2.5,0.8-3.8,1.2c-0.8,0.2-1.6,0.5-2.4,0.7c-1.2,0.3-2.3,0.7-3.6,1c-0.9,0.2-1.7,0.4-2.6,0.6c-1.2,0.3-2.3,0.6-3.5,0.8
		c-0.9,0.2-1.8,0.4-2.7,0.6c-1.2,0.2-2.3,0.5-3.4,0.7c-1.7,0.3-3.2,0.6-4.9,0.9c-0.1,0-0.1,0-0.2,0c-1.7,0.3-3.6,0.6-5.4,0.8
		c-0.5,0.1-1,0.1-1.5,0.2c-1.6,0.2-3.1,0.4-4.8,0.6c-0.3,0-0.6,0.1-0.9,0.1c-1.8,0.2-3.6,0.3-5.4,0.5c-0.4,0-0.7,0.1-1.1,0.1
		c-1.7,0.1-3.6,0.2-5.4,0.3c-0.3,0-0.6,0-0.9,0c-1.3,0.1-2.5,0.1-3.8,0.1c-1.2,0-2.4,0.1-3.6,0.1c-1,0-1.9,0-2.9,0
		c-1.2,0-2.4,0-3.6,0c-1,0-1.9,0-2.9-0.1c-1.2,0-2.2-0.1-3.4-0.1c-1,0-1.9-0.1-3-0.2c-1.2-0.1-2.2-0.2-3.4-0.2
		c-1-0.1-1.9-0.1-2.9-0.2c-1.2-0.1-2.2-0.2-3.4-0.3c-1-0.1-1.9-0.2-2.9-0.3c-1.2-0.1-2.2-0.3-3.4-0.4c-1-0.1-1.9-0.3-2.8-0.4
		c-1.3-0.2-2.5-0.4-3.9-0.6c-0.9-0.1-1.6-0.3-2.5-0.4c-1.5-0.3-2.8-0.5-4.2-0.8c-0.7-0.1-1.5-0.3-2.1-0.4c-0.2,0-0.4-0.1-0.6-0.1
		c-1.6-0.4-3.3-0.8-4.9-1.2c-0.2-0.1-0.5-0.1-0.7-0.2c-1.7-0.4-3.4-0.9-5-1.4c-0.3-0.1-0.7-0.2-1-0.3c-1.6-0.5-3.3-1-4.9-1.5
		c-0.1,0-0.2-0.1-0.3-0.1c-1.6-0.5-3.4-1.1-5-1.6c-0.5-0.2-1-0.3-1.4-0.5c-1.3-0.5-2.5-0.9-3.8-1.4c-0.4-0.2-0.9-0.3-1.3-0.5
		c-1.1-0.4-2-0.9-3.1-1.3c-0.8-0.3-1.5-0.6-2.2-0.9c-1.1-0.5-2-0.9-3-1.4c-0.7-0.3-1.4-0.6-2-1c-1.1-0.5-2.2-1.1-3.3-1.6
		c-0.6-0.3-1.1-0.6-1.6-0.8c-1.7-0.9-3.2-1.7-4.8-2.6c-17.1-9.8-29.1-22-34.9-35.4H126c-0.5,0-1.1,0-1.6-0.1c-0.1,0-0.1,0-0.2,0
		c-0.5-0.1-0.9-0.1-1.3-0.2c-0.1,0-0.2,0-0.2-0.1c-0.4-0.1-0.8-0.2-1.2-0.4s-0.8-0.3-1.2-0.6c-1.5-0.9-2.3-2-2.3-3.3l-0.1,35.8
		c0,1.3,0.9,2.4,2.3,3.3c0.4,0.2,0.7,0.4,1.2,0.6c0.3,0.1,0.6,0.2,0.9,0.3c0.1,0,0.2,0,0.3,0.1c0.1,0,0.2,0,0.2,0.1
		c0.1,0,0.2,0.1,0.3,0.1c0.3,0.1,0.5,0.1,0.8,0.1c0.1,0,0.1,0,0.2,0s0.1,0,0.2,0s0.2,0,0.4,0c0.3,0,0.5,0,0.8,0c0.1,0,0.2,0,0.4,0
		H150c5.9,13.4,17.8,25.6,34.9,35.4c1.6,0.9,3.2,1.7,4.8,2.6c0.6,0.3,1.1,0.6,1.6,0.8c1.1,0.6,2.1,1.1,3.3,1.6c0.7,0.3,1.4,0.6,2,1
		c1,0.5,2,1,3,1.4c0.8,0.3,1.5,0.6,2.2,1c0.8,0.3,1.6,0.7,2.4,1c0.2,0.1,0.4,0.2,0.7,0.3c0.4,0.2,0.9,0.3,1.3,0.5
		c1.3,0.5,2.5,1,3.8,1.4c0.5,0.2,1,0.3,1.4,0.5c1.6,0.6,3.3,1.2,5,1.6c0.1,0,0.2,0.1,0.3,0.1c1.3,0.4,2.5,0.8,3.8,1.2
		c0.4,0.1,0.8,0.2,1.2,0.3c0.3,0.1,0.7,0.2,1,0.3c1.6,0.5,3.4,0.9,5,1.4c0.2,0.1,0.5,0.1,0.7,0.2c1.6,0.4,3.3,0.8,4.9,1.2
		c0.2,0,0.4,0.1,0.6,0.1c0.1,0,0.2,0,0.3,0.1c0.6,0.1,1.3,0.2,1.8,0.4c1.4,0.3,2.8,0.6,4.2,0.8c0.9,0.2,1.6,0.3,2.5,0.4
		c1.3,0.2,2.5,0.4,3.9,0.6c0.3,0,0.5,0.1,0.8,0.1c0.7,0.1,1.5,0.2,2.1,0.3c1.2,0.2,2.2,0.3,3.4,0.4c1,0.1,1.9,0.2,2.9,0.3
		c1.2,0.1,2.2,0.2,3.4,0.3c0.3,0,0.7,0.1,1,0.1c0.7,0.1,1.3,0.1,1.9,0.1c1.2,0.1,2.2,0.2,3.4,0.2c1,0.1,1.9,0.1,3,0.2
		c1.2,0.1,2.2,0.1,3.4,0.1c0.4,0,0.8,0,1.3,0c0.6,0,1.2,0,1.6,0c1.2,0,2.4,0,3.6,0c1,0,1.9,0,2.9,0c1.2,0,2.4,0,3.6-0.1
		c0.6,0,1.1,0,1.6,0c0.7,0,1.5-0.1,2.1-0.1c0.3,0,0.6,0,0.9,0c1.8-0.1,3.6-0.2,5.4-0.3c0.4,0,0.7-0.1,1.1-0.1
		c1.7-0.1,3.4-0.3,5.1-0.5c0.1,0,0.2,0,0.3,0c0.3,0,0.6-0.1,0.9-0.1c1.6-0.2,3.1-0.4,4.7-0.6c0.5-0.1,1-0.1,1.5-0.2
		c1.8-0.2,3.6-0.5,5.4-0.8c0.1,0,0.1,0,0.2,0c1.4-0.2,2.6-0.4,4-0.7c0.3-0.1,0.6-0.1,0.9-0.2c1.2-0.2,2.3-0.5,3.4-0.7
		c0.9-0.2,1.8-0.4,2.7-0.6c1.2-0.3,2.3-0.5,3.5-0.8c0.9-0.2,1.7-0.4,2.6-0.6c1.2-0.3,2.3-0.6,3.6-1c0.8-0.2,1.6-0.4,2.4-0.7
		c1.3-0.4,2.5-0.8,3.8-1.2c0.6-0.2,1.3-0.4,1.8-0.6c0.1,0,0.2-0.1,0.3-0.1c0.2-0.1,0.4-0.1,0.6-0.2c1.5-0.5,3-1,4.5-1.6
		c0.3-0.1,0.7-0.2,1-0.4c1.6-0.6,3.2-1.2,4.8-1.8c0.3-0.1,0.6-0.3,1-0.4c1.5-0.6,2.8-1.2,4.2-1.7c0.2-0.1,0.5-0.2,0.7-0.3
		c1.6-0.7,3-1.4,4.5-2.1c0.3-0.2,0.7-0.3,1-0.5c1.5-0.8,3-1.6,4.5-2.3c0.1,0,0.2-0.1,0.3-0.2c0.1,0,0.1-0.1,0.2-0.1
		c0.1-0.1,0.2-0.1,0.3-0.2c0.1-0.1,0.2-0.1,0.3-0.2c0.1-0.1,0.2-0.1,0.2-0.2l0.1-0.1l0.1-0.1c0.1-0.1,0.2-0.2,0.3-0.4l0.1-0.1
		c0,0,0,0,0-0.1c0.1-0.1,0.1-0.2,0.2-0.3l0.1-0.1c0-0.1,0.1-0.2,0.1-0.2c0-0.1,0.1-0.1,0.1-0.2s0-0.1,0.1-0.2c0-0.1,0-0.1,0.1-0.2
		c0-0.1,0-0.2,0-0.2c0-0.1,0-0.1,0-0.2c0,0,0,0,0-0.1l0.1-32.1l4.6,3.5c0.2,0.2,0.5,0.4,0.8,0.5c0.3,0.2,0.7,0.3,1,0.5
		c0,0,0.1,0,0.1,0.1h0.1c0.2,0.1,0.5,0.2,0.8,0.3h0.1c0.3,0.1,0.5,0.1,0.8,0.2c0.2,0,0.3,0.1,0.5,0.1c0.1,0,0.2,0,0.3,0
		c0.3,0,0.5,0.1,0.8,0.1c0.1,0,0.1,0,0.2,0c0.2,0,0.4,0,0.6,0c0.1,0,0.3,0,0.4,0s0.3,0,0.4,0c0.3,0,0.6,0,0.9-0.1
		c0.3,0,0.6-0.1,0.9-0.1h0.1h0.1c0.5-0.1,0.9-0.2,1.4-0.3c0,0,0,0,0.1,0s0.1,0,0.2-0.1c0.2-0.1,0.4-0.2,0.6-0.2
		c0.1,0,0.2-0.1,0.3-0.1c0.2-0.1,0.4-0.2,0.6-0.3c0,0,0.1,0,0.1-0.1c0.2-0.1,0.4-0.3,0.6-0.4l46.4-36c0.1-0.1,0.3-0.2,0.4-0.3
		c0.2-0.2,0.3-0.3,0.4-0.5c0,0,0,0,0.1-0.1s0.2-0.3,0.3-0.4c0.1-0.1,0.1-0.3,0.2-0.4v-0.1c0-0.1,0.1-0.2,0.1-0.3c0,0,0,0,0-0.1
		c0,0,0,0,0-0.1s0-0.2,0-0.3v-0.1c0,0,0,0,0-0.1L437.6,274.4z"/>
	<path class="st0" d="M221.1,344c0.2,0,0.3,0,0.5,0c0.1,0,0.2,0,0.2,0h0.1c0.3,0,0.5-0.1,0.8-0.1h0.1c0.5-0.1,1-0.2,1.5-0.4
		c0.3-0.1,0.6-0.2,0.8-0.3c0.1,0,0.1-0.1,0.2-0.1c0.2-0.1,0.5-0.2,0.7-0.4c0,0,0,0,0.1,0c0.2-0.1,0.4-0.2,0.5-0.4c0,0,0,0,0.1,0
		c0.1-0.1,0.3-0.2,0.4-0.3c0,0,0,0,0.1-0.1s0.3-0.3,0.4-0.4c0,0,0,0,0.1-0.1c0,0,0-0.1,0.1-0.1c0.1-0.1,0.1-0.2,0.2-0.3l0.1-0.1
		c0,0,0,0,0-0.1s0.1-0.2,0.1-0.3c0,0,0-0.1,0.1-0.1c0-0.1,0-0.2,0.1-0.2c0-0.1,0-0.1,0-0.2s0-0.2,0-0.2c0-0.1,0-0.1,0-0.2
		c0,0,0,0,0-0.1l0.1-36c0,0.1,0,0.2,0,0.2c0,0.1,0,0.2,0,0.2c0,0.1,0,0.1-0.1,0.2c0,0.1,0,0.2-0.1,0.2c0,0.1-0.1,0.1-0.1,0.2
		s-0.1,0.2-0.1,0.3c0,0.1-0.1,0.1-0.1,0.2c-0.1,0.1-0.1,0.2-0.2,0.3c0,0.1-0.1,0.1-0.1,0.2c-0.1,0.1-0.2,0.3-0.4,0.4l-0.1,0.1
		c-0.1,0.1-0.3,0.2-0.4,0.3c0,0,0,0-0.1,0c-0.2,0.1-0.3,0.2-0.5,0.4H226c-0.2,0.1-0.4,0.2-0.7,0.4c-0.1,0-0.1,0.1-0.2,0.1
		c-0.3,0.1-0.5,0.2-0.8,0.3c-0.5,0.2-1,0.3-1.5,0.4h-0.1c-0.3,0-0.5,0.1-0.8,0.1c-0.1,0-0.2,0-0.4,0s-0.3,0-0.5,0s-0.4,0-0.7,0
		h-21.2l-0.1,36h21.2c0.2,0,0.3,0,0.5,0S221,344,221.1,344z"/>
	<path class="st1" d="M205.9,253.9c-0.3-0.2-0.5-0.3-0.8-0.5l-19-14.6c-2.4-1.8-2-4.4,0.9-6c52.4-28.9,133.7-28.3,185.1,1.4
		c17.1,9.9,29.1,22.1,35,35.7h22.7c2.2,0,4.1,0.5,5.5,1.3c2.6,1.5,3.3,4,0.8,5.9l-46.6,36.2c-2.9,2.2-8.4,2.4-11.7,0.5
		c-0.3-0.2-0.5-0.3-0.8-0.5l-47-36.2c-3.9-3-0.2-7.2,6.2-7.2h21.9c-4.4-6.2-10.8-11.8-19-16.6c-34-19.6-88.9-19.4-122.1,0.5
		C213.8,255.8,208.9,255.7,205.9,253.9z"/>
	<path class="st1" d="M370.8,339.4c2.4,1.8,2,4.5-0.9,6c-52.4,28.6-133.5,27.9-184.6-1.6c-17.2-9.9-29.2-22.1-35.1-35.6h-23.3
		c-2.2,0-4.1-0.5-5.5-1.3c-2.6-1.5-3.3-4-0.8-5.9l46.6-36.2c2.9-2.2,8.5-2.3,11.7-0.5c0.3,0.2,0.5,0.3,0.8,0.5l47,36.2
		c3.9,3,0.2,7.2-6.2,7.2h-21.2c4.4,6.1,10.8,11.7,18.9,16.5c33.6,19.4,88,19.4,121.4,0c3.6-2.1,8.9-1.7,11.7-0.1
		c0.2,0.1,0.4,0.2,0.6,0.4L370.8,339.4z"/>
	<path class="st2" d="M186.2,238.9c-2.4-1.8-2-4.4,0.9-6c52.4-28.9,133.7-28.3,185.1,1.4c17.1,9.9,29.1,22.1,35,35.7h22.7
		c2.2,0,4.1,0.5,5.5,1.3c2.6,1.5,3.3,4,0.8,5.9"/>
	<path class="st2" d="M121.5,306.8c-2.6-1.5-3.3-4-0.8-5.9l46.6-36.2c2.9-2.2,8.5-2.3,11.7-0.5c0.3,0.2,0.5,0.3,0.8,0.5l47,36.2
		c3.9,3,0.2,7.2-6.2,7.2h-21.2c4.4,6.1,10.8,11.7,18.9,16.5c33.6,19.4,88,19.4,121.4,0c3.6-2.1,8.9-1.7,11.7-0.1
		c0.2,0.1,0.4,0.2,0.6,0.4"/>
</g>
</svg>
