<?xml version="1.0" encoding="utf-8"?>
<!-- Generator: Adobe Illustrator 22.1.0, SVG Export Plug-In . SVG Version: 6.00 Build 0)  -->
<svg version="1.1" id="Слой_1" xmlns="http://www.w3.org/2000/svg" xmlns:xlink="http://www.w3.org/1999/xlink" x="0px" y="0px"
	 viewBox="0 0 583 516.4" style="enable-background:new 0 0 583 516.4;" xml:space="preserve">
<style type="text/css">
	
		.st0{fill:none;stroke:#171A21;stroke-width:2;stroke-linecap:round;stroke-linejoin:round;stroke-miterlimit:10;stroke-dasharray:12,12;}
	.st1{fill:#2F58FF;}
	.st2{fill:#9AF4DC;}
	.st3{fill:none;stroke:#171A21;stroke-width:2;stroke-linecap:round;stroke-linejoin:round;stroke-miterlimit:10;}
	.st4{fill:#FFFFFF;}
	.st5{fill:none;stroke:#171A21;stroke-width:2;stroke-linecap:round;stroke-linejoin:round;}
	.st6{fill:none;stroke:#171A21;stroke-width:2;stroke-linecap:round;stroke-linejoin:round;stroke-dasharray:11.54,11.54;}
</style>
<g id="_x31_2">
	<path class="st0" d="M366,329.7c-49-28.2-128.3-28.2-176.9,0c-48.7,28.2-48.5,74,0.6,102.2c49,28.2,128.3,28.2,176.9,0
		C415.4,403.7,415.1,357.9,366,329.7z"/>
</g>
<g id="_x31_1">
	<path class="st0" d="M324.4,450.3c-25.8-14.8-67.4-14.8-93.1,0c-25.6,14.8-25.5,39,0.3,53.9s67.4,14.8,93.1,0
		C350.3,489.3,350.2,465.2,324.4,450.3z"/>
</g>
<g id="_x31_0">
	<path class="st1" d="M437.6,274.4c0,0,0,0.1,0,0.2c0,0.1,0,0.2,0,0.3v0.1c0,0.1,0,0.2-0.1,0.3v0.1c-0.1,0.1-0.1,0.3-0.2,0.4
		c-0.1,0.1-0.2,0.3-0.3,0.4l-0.1,0.1c-0.1,0.2-0.3,0.3-0.4,0.5c-0.1,0.1-0.2,0.2-0.4,0.3l-46.4,36c-0.2,0.2-0.4,0.3-0.6,0.4
		c-0.1,0-0.1,0.1-0.2,0.1c-0.2,0.1-0.4,0.2-0.6,0.3c-0.1,0-0.2,0.1-0.3,0.1c-0.2,0.1-0.4,0.2-0.6,0.2c-0.1,0-0.1,0.1-0.2,0.1
		c-0.4,0.1-0.9,0.3-1.4,0.3c-0.1,0-0.1,0-0.2,0c-0.3,0.1-0.6,0.1-0.9,0.1c0,0,0,0-0.1,0c-0.3,0-0.6,0-0.9,0.1c-0.1,0-0.3,0-0.4,0
		s-0.3,0-0.4,0c-0.2,0-0.4,0-0.6,0c-0.1,0-0.2,0-0.2,0c-0.3,0-0.5-0.1-0.8-0.1c-0.1,0-0.2,0-0.3,0c-0.2,0-0.3-0.1-0.5-0.1
		c-0.3-0.1-0.5-0.1-0.8-0.2h-0.1c-0.3-0.1-0.5-0.2-0.8-0.3c-0.1,0-0.1-0.1-0.2-0.1c-0.4-0.1-0.7-0.3-1-0.5c-0.3-0.2-0.5-0.3-0.8-0.5
		L358,298.5l0.1-28.6c-4.4-6.2-10.7-11.7-18.9-16.5c-1-0.6-2-1.2-3.1-1.7c-0.4-0.2-0.7-0.4-1.1-0.5c-0.7-0.4-1.5-0.7-2.1-1.1
		c-0.4-0.2-0.9-0.4-1.3-0.6c-0.7-0.3-1.4-0.6-2-0.9c-0.5-0.2-1-0.4-1.5-0.6c-0.5-0.2-0.9-0.4-1.4-0.6c-0.3-0.1-0.6-0.2-0.8-0.3
		c-0.3-0.1-0.6-0.2-0.9-0.3c-1-0.4-1.9-0.7-2.9-1.1c-0.1,0-0.3-0.1-0.4-0.2c-1.1-0.4-2.2-0.7-3.3-1.1c-0.3-0.1-0.6-0.2-0.9-0.3
		c-0.4-0.1-0.8-0.3-1.3-0.4c-0.3-0.1-0.6-0.2-0.9-0.2c-0.9-0.2-1.6-0.5-2.5-0.7c-0.6-0.1-1.1-0.3-1.6-0.4c-0.9-0.2-1.7-0.4-2.7-0.6
		c-0.4-0.1-0.8-0.2-1.2-0.3c-0.2,0-0.3-0.1-0.5-0.1c-0.8-0.2-1.6-0.3-2.3-0.5c-0.6-0.1-1.2-0.2-1.7-0.3c-0.9-0.1-1.6-0.3-2.5-0.4
		c-0.5-0.1-1-0.2-1.5-0.2c-0.1,0-0.2,0-0.2,0c-0.8-0.1-1.5-0.2-2.2-0.3c-0.6-0.1-1.3-0.2-1.8-0.2c-0.8-0.1-1.6-0.2-2.3-0.2
		c-0.6-0.1-1.2-0.1-1.6-0.2c-0.1,0-0.1,0-0.2,0c-0.8-0.1-1.6-0.1-2.4-0.2c-0.6,0-1.2-0.1-1.7-0.1c-0.9,0-1.7-0.1-2.6-0.1
		c-0.5,0-1,0-1.6-0.1c0,0,0,0-0.1,0c-1.5,0-2.8-0.1-4.3,0c-0.3,0-0.7,0-1,0c-1.1,0-2.2,0-3.3,0.1c-0.1,0-0.1,0-0.2,0
		c-0.3,0-0.7,0-1,0.1c-1.1,0-2.2,0.1-3.3,0.2c-0.6,0-1.1,0.1-1.6,0.1c-1,0.1-1.8,0.2-2.8,0.2c-0.2,0-0.5,0-0.7,0.1
		c-0.7,0.1-1.5,0.2-2.1,0.2c-0.2,0-0.3,0-0.5,0.1c-1.2,0.1-2.4,0.3-3.6,0.5c-0.3,0-0.6,0.1-0.9,0.1c-1,0.2-2,0.3-3,0.5
		c-0.2,0-0.4,0.1-0.7,0.1c-0.1,0-0.2,0-0.3,0c-0.5,0.1-1,0.2-1.5,0.3c-0.8,0.2-1.6,0.3-2.4,0.5c-0.6,0.1-1.2,0.3-1.7,0.4
		c-0.8,0.2-1.6,0.4-2.2,0.5c-0.6,0.1-1.2,0.3-1.7,0.5c-0.8,0.2-1.5,0.4-2.2,0.6c-0.6,0.2-1.2,0.4-1.7,0.5c-0.7,0.2-1.5,0.4-2.1,0.7
		c-0.2,0.1-0.4,0.1-0.6,0.2c-0.8,0.3-1.6,0.6-2.4,0.8c-0.1,0-0.1,0-0.2,0.1c-1.1,0.4-2.1,0.8-3.2,1.2c-0.3,0.1-0.6,0.2-0.9,0.4
		c-0.9,0.3-1.6,0.7-2.5,1.1c-0.2,0.1-0.5,0.2-0.7,0.3c-1.1,0.5-2,0.9-3,1.4c-0.2,0.1-0.4,0.2-0.7,0.3c-0.8,0.4-1.6,0.8-2.3,1.3
		c-0.3,0.1-0.6,0.3-0.8,0.4c-1,0.5-1.9,1.1-2.8,1.6c-0.4,0.2-0.7,0.4-1.1,0.6c-0.1,0-0.2,0.1-0.3,0.1c-0.3,0.1-0.5,0.2-0.8,0.2
		c-0.3,0.1-0.5,0.1-0.8,0.2c-0.3,0.1-0.7,0.1-1,0.2c-0.1,0-0.1,0-0.2,0c-0.5,0-0.9,0.1-1.4,0.1c-0.1,0-0.1,0-0.2,0
		c-0.5,0-0.9,0-1.3-0.1c-0.1,0-0.1,0-0.2,0c-0.4-0.1-0.9-0.1-1.3-0.2c-0.1,0-0.2,0-0.2-0.1c-0.4-0.1-0.7-0.2-1.1-0.3
		c-0.1,0-0.1,0-0.2-0.1c-0.4-0.2-0.8-0.4-1.2-0.6c-0.3-0.2-0.5-0.3-0.8-0.5l-18.9-14.5c-1.1-0.8-1.6-1.7-1.6-2.7l-0.1,35.8
		c0,1,0.5,1.9,1.6,2.7l18.9,14.5c0.2,0.2,0.5,0.3,0.8,0.5c0.4,0.2,0.7,0.4,1.1,0.5c0,0,0,0,0.1,0c0.1,0,0.1,0,0.2,0.1
		c0.2,0.1,0.5,0.2,0.7,0.2c0.1,0,0.3,0.1,0.4,0.1s0.2,0,0.2,0.1c0.1,0,0.1,0,0.2,0.1c0.3,0.1,0.5,0.1,0.8,0.1c0.1,0,0.2,0,0.3,0
		c0.1,0,0.1,0,0.2,0c0.1,0,0.2,0,0.3,0c0.3,0,0.5,0,0.8,0c0.1,0,0.2,0,0.2,0c0.1,0,0.1,0,0.2,0s0.3,0,0.4,0c0.3,0,0.6,0,0.9-0.1h0.1
		c0.1,0,0.1,0,0.2,0c0.2,0,0.5-0.1,0.7-0.1c0.1,0,0.2-0.1,0.3-0.1c0.3-0.1,0.5-0.1,0.8-0.2c0.1,0,0.3-0.1,0.4-0.1
		c0.1,0,0.2-0.1,0.4-0.1c0.1,0,0.2-0.1,0.3-0.1c0.4-0.2,0.8-0.3,1.1-0.6c1-0.6,1.8-1.1,2.8-1.6c0.3-0.2,0.6-0.3,0.8-0.4
		c0.8-0.4,1.6-0.8,2.3-1.3c0.2-0.1,0.4-0.2,0.7-0.3c1-0.5,2-1,3-1.4c0.2-0.1,0.5-0.2,0.7-0.3c0.9-0.4,1.6-0.7,2.5-1.1
		c0.3-0.1,0.6-0.2,0.9-0.4c1.1-0.4,2.1-0.8,3.2-1.2c0.1,0,0.1,0,0.2-0.1c1-0.4,1.9-0.7,3-1c0.7-0.2,1.5-0.4,2.1-0.7
		c0.6-0.2,1.2-0.4,1.7-0.5c0.7-0.2,1.5-0.4,2.2-0.6c0.6-0.2,1.2-0.3,1.7-0.5c0.8-0.2,1.6-0.4,2.2-0.5c0.6-0.1,1.2-0.3,1.7-0.4
		c0.8-0.2,1.6-0.3,2.4-0.5c0.6-0.1,1.2-0.2,1.7-0.3c0.2,0,0.4-0.1,0.7-0.1c1-0.2,2-0.3,3-0.5c0.3,0,0.6-0.1,0.9-0.1
		c1.2-0.2,2.4-0.3,3.6-0.5c0.2,0,0.3,0,0.5-0.1c1-0.1,1.9-0.2,2.8-0.3c1-0.1,1.8-0.2,2.8-0.2c0.6,0,1.1-0.1,1.6-0.1
		c1.1-0.1,2.2-0.1,3.3-0.2c0.4,0,0.8,0,1.2-0.1c1.1,0,2.1-0.1,3.3-0.1c0.3,0,0.7,0,1,0c1.5,0,2.8,0,4.3,0c0.5,0,1.1,0,1.6,0.1
		c0.9,0,1.7,0.1,2.6,0.1c0.6,0,1.2,0.1,1.7,0.1c0.8,0.1,1.6,0.1,2.4,0.2c0.6,0.1,1.3,0.1,1.8,0.2c0.8,0.1,1.6,0.1,2.3,0.2
		c0.6,0.1,1.3,0.2,1.8,0.2c0.8,0.1,1.6,0.2,2.2,0.3c0.6,0.1,1.1,0.2,1.6,0.3c0.9,0.1,1.7,0.3,2.5,0.4c0.6,0.1,1.2,0.2,1.7,0.3
		c0.8,0.2,1.6,0.3,2.3,0.5c0.6,0.1,1.1,0.2,1.6,0.4c0.9,0.2,1.8,0.4,2.7,0.6c0.6,0.1,1.1,0.3,1.6,0.4c0.9,0.2,1.7,0.5,2.5,0.7
		c0.7,0.2,1.5,0.4,2.1,0.6c0.3,0.1,0.6,0.2,0.9,0.3c1.1,0.4,2.2,0.7,3.3,1.1c0.1,0,0.3,0.1,0.4,0.2c1,0.3,1.9,0.7,2.9,1.1
		c0.3,0.1,0.6,0.2,0.9,0.4c0.7,0.3,1.5,0.6,2.1,0.9c0.2,0.1,0.3,0.1,0.5,0.2l-0.1,26.2c0,0.9,0.5,1.8,1.6,2.7l40.8,31.3
		c0,0-0.1,0-0.1,0.1c-0.1,0.1-0.2,0.1-0.3,0.2s-0.2,0.1-0.3,0.2c-0.1,0.1-0.3,0.2-0.4,0.3c-1.5,0.8-2.9,1.6-4.5,2.3
		c-0.3,0.2-0.7,0.3-1,0.5c-1.5,0.8-3,1.5-4.5,2.1c-0.2,0.1-0.5,0.2-0.7,0.3c-1.4,0.6-2.8,1.3-4.2,1.8c-0.3,0.1-0.6,0.3-1,0.4
		c-1.6,0.6-3.1,1.3-4.8,1.8c-0.3,0.1-0.7,0.2-1,0.4c-1.5,0.5-3,1.1-4.5,1.6c-0.2,0.1-0.4,0.1-0.6,0.2c-0.7,0.2-1.5,0.4-2.1,0.7
		c-1.3,0.4-2.5,0.8-3.8,1.2c-0.8,0.2-1.6,0.5-2.4,0.7c-1.2,0.3-2.3,0.7-3.6,1c-0.9,0.2-1.7,0.4-2.6,0.6c-1.2,0.3-2.3,0.6-3.5,0.8
		c-0.9,0.2-1.8,0.4-2.7,0.6c-1.2,0.2-2.3,0.5-3.4,0.7c-1.7,0.3-3.2,0.6-4.9,0.9c-0.1,0-0.1,0-0.2,0c-1.7,0.3-3.6,0.6-5.4,0.8
		c-0.5,0.1-1,0.1-1.5,0.2c-1.6,0.2-3.1,0.4-4.8,0.6c-0.3,0-0.6,0.1-0.9,0.1c-1.8,0.2-3.6,0.3-5.4,0.5c-0.4,0-0.7,0.1-1.1,0.1
		c-1.7,0.1-3.6,0.2-5.4,0.3c-0.3,0-0.6,0-0.9,0c-1.3,0.1-2.5,0.1-3.8,0.1c-1.2,0-2.4,0.1-3.6,0.1c-1,0-1.9,0-2.9,0
		c-1.2,0-2.4,0-3.6,0c-1,0-1.9,0-2.9-0.1c-1.2,0-2.2-0.1-3.4-0.1c-1,0-1.9-0.1-3-0.2c-1.2-0.1-2.2-0.2-3.4-0.2
		c-1-0.1-1.9-0.1-2.9-0.2c-1.2-0.1-2.2-0.2-3.4-0.3c-1-0.1-1.9-0.2-2.9-0.3c-1.2-0.1-2.2-0.3-3.4-0.4c-1-0.1-1.9-0.3-2.8-0.4
		c-1.3-0.2-2.5-0.4-3.9-0.6c-0.9-0.1-1.6-0.3-2.5-0.4c-1.5-0.3-2.8-0.5-4.2-0.8c-0.7-0.1-1.5-0.3-2.1-0.4c-0.2,0-0.4-0.1-0.6-0.1
		c-1.6-0.4-3.3-0.8-4.9-1.2c-0.2-0.1-0.5-0.1-0.7-0.2c-1.7-0.4-3.4-0.9-5-1.4c-0.3-0.1-0.7-0.2-1-0.3c-1.6-0.5-3.3-1-4.9-1.5
		c-0.1,0-0.2-0.1-0.3-0.1c-1.6-0.5-3.4-1.1-5-1.6c-0.5-0.2-1-0.3-1.4-0.5c-1.3-0.5-2.5-0.9-3.8-1.4c-0.4-0.2-0.9-0.3-1.3-0.5
		c-1.1-0.4-2-0.9-3.1-1.3c-0.8-0.3-1.5-0.6-2.2-0.9c-1.1-0.5-2-0.9-3-1.4c-0.7-0.3-1.4-0.6-2-1c-1.1-0.5-2.2-1.1-3.3-1.6
		c-0.6-0.3-1.1-0.6-1.6-0.8c-1.7-0.9-3.2-1.7-4.8-2.6c-17.1-9.8-29.1-22-34.9-35.4h-23.2c-0.5,0-1.1,0-1.6-0.1c-0.1,0-0.1,0-0.2,0
		c-0.5-0.1-0.9-0.1-1.3-0.2c-0.1,0-0.2,0-0.2-0.1c-0.4-0.1-0.8-0.2-1.2-0.4s-0.8-0.3-1.2-0.6c-1.5-0.9-2.3-2-2.3-3.3l-0.1,35.8
		c0,1.3,0.9,2.4,2.3,3.3c0.4,0.2,0.7,0.4,1.2,0.6c0.3,0.1,0.6,0.2,0.9,0.3c0.1,0,0.2,0,0.3,0.1c0.1,0,0.2,0,0.2,0.1
		c0.1,0,0.2,0.1,0.3,0.1c0.3,0.1,0.5,0.1,0.8,0.1c0.1,0,0.1,0,0.2,0c0.1,0,0.1,0,0.2,0s0.2,0,0.4,0c0.3,0,0.5,0,0.8,0
		c0.1,0,0.2,0,0.4,0H150c5.9,13.4,17.8,25.6,34.9,35.4c1.6,0.9,3.2,1.7,4.8,2.6c0.6,0.3,1.1,0.6,1.6,0.8c1.1,0.6,2.1,1.1,3.3,1.6
		c0.7,0.3,1.4,0.6,2,1c1,0.5,2,1,3,1.4c0.8,0.3,1.5,0.6,2.2,1c0.8,0.3,1.6,0.7,2.4,1c0.2,0.1,0.4,0.2,0.7,0.3
		c0.4,0.2,0.9,0.3,1.3,0.5c1.3,0.5,2.5,1,3.8,1.4c0.5,0.2,1,0.3,1.4,0.5c1.6,0.6,3.3,1.2,5,1.6c0.1,0,0.2,0.1,0.3,0.1
		c1.3,0.4,2.5,0.8,3.8,1.2c0.4,0.1,0.8,0.2,1.2,0.3c0.3,0.1,0.7,0.2,1,0.3c1.6,0.5,3.4,0.9,5,1.4c0.2,0.1,0.5,0.1,0.7,0.2
		c1.6,0.4,3.3,0.8,4.9,1.2c0.2,0,0.4,0.1,0.6,0.1c0.1,0,0.2,0,0.3,0.1c0.6,0.1,1.3,0.2,1.8,0.4c1.4,0.3,2.8,0.6,4.2,0.8
		c0.9,0.2,1.6,0.3,2.5,0.4c1.3,0.2,2.5,0.4,3.9,0.6c0.3,0,0.5,0.1,0.8,0.1c0.7,0.1,1.5,0.2,2.1,0.3c1.2,0.2,2.2,0.3,3.4,0.4
		c1,0.1,1.9,0.2,2.9,0.3c1.2,0.1,2.2,0.2,3.4,0.3c0.3,0,0.7,0.1,1,0.1c0.7,0.1,1.3,0.1,1.9,0.1c1.2,0.1,2.2,0.2,3.4,0.2
		c1,0.1,1.9,0.1,3,0.2c1.2,0.1,2.2,0.1,3.4,0.1c0.4,0,0.8,0,1.3,0c0.6,0,1.2,0,1.6,0c1.2,0,2.4,0,3.6,0c1,0,1.9,0,2.9,0
		c1.2,0,2.4,0,3.6-0.1c0.6,0,1.1,0,1.6,0c0.7,0,1.5-0.1,2.1-0.1c0.3,0,0.6,0,0.9,0c1.8-0.1,3.6-0.2,5.4-0.3c0.4,0,0.7-0.1,1.1-0.1
		c1.7-0.1,3.4-0.3,5.1-0.5c0.1,0,0.2,0,0.3,0c0.3,0,0.6-0.1,0.9-0.1c1.6-0.2,3.1-0.4,4.7-0.6c0.5-0.1,1-0.1,1.5-0.2
		c1.8-0.2,3.6-0.5,5.4-0.8c0.1,0,0.1,0,0.2,0c1.4-0.2,2.6-0.4,4-0.7c0.3-0.1,0.6-0.1,0.9-0.2c1.2-0.2,2.3-0.5,3.4-0.7
		c0.9-0.2,1.8-0.4,2.7-0.6c1.2-0.3,2.3-0.5,3.5-0.8c0.9-0.2,1.7-0.4,2.6-0.6c1.2-0.3,2.3-0.6,3.6-1c0.8-0.2,1.6-0.4,2.4-0.7
		c1.3-0.4,2.5-0.8,3.8-1.2c0.6-0.2,1.3-0.4,1.8-0.6c0.1,0,0.2-0.1,0.3-0.1c0.2-0.1,0.4-0.1,0.6-0.2c1.5-0.5,3-1,4.5-1.6
		c0.3-0.1,0.7-0.2,1-0.4c1.6-0.6,3.2-1.2,4.8-1.8c0.3-0.1,0.6-0.3,1-0.4c1.5-0.6,2.8-1.2,4.2-1.7c0.2-0.1,0.5-0.2,0.7-0.3
		c1.6-0.7,3-1.4,4.5-2.1c0.3-0.2,0.7-0.3,1-0.5c1.5-0.8,3-1.6,4.5-2.3c0.1,0,0.2-0.1,0.3-0.2c0.1,0,0.1-0.1,0.2-0.1
		c0.1-0.1,0.2-0.1,0.3-0.2c0.1-0.1,0.2-0.1,0.3-0.2c0.1-0.1,0.2-0.1,0.2-0.2l0.1-0.1l0.1-0.1c0.1-0.1,0.2-0.2,0.3-0.4l0.1-0.1
		c0,0,0,0,0-0.1c0.1-0.1,0.1-0.2,0.2-0.3l0.1-0.1c0-0.1,0.1-0.2,0.1-0.2c0-0.1,0.1-0.1,0.1-0.2c0-0.1,0-0.1,0.1-0.2
		c0-0.1,0-0.1,0.1-0.2c0-0.1,0-0.2,0-0.2c0-0.1,0-0.1,0-0.2c0,0,0,0,0-0.1l0.1-32.1l4.6,3.5c0.2,0.2,0.5,0.4,0.8,0.5
		c0.3,0.2,0.7,0.3,1,0.5c0,0,0.1,0,0.1,0.1h0.1c0.2,0.1,0.5,0.2,0.8,0.3h0.1c0.3,0.1,0.5,0.1,0.8,0.2c0.2,0,0.3,0.1,0.5,0.1
		c0.1,0,0.2,0,0.3,0c0.3,0,0.5,0.1,0.8,0.1c0.1,0,0.1,0,0.2,0c0.2,0,0.4,0,0.6,0c0.1,0,0.3,0,0.4,0c0.1,0,0.3,0,0.4,0
		c0.3,0,0.6,0,0.9-0.1c0.3,0,0.6-0.1,0.9-0.1h0.1h0.1c0.5-0.1,0.9-0.2,1.4-0.3c0,0,0,0,0.1,0c0.1,0,0.1,0,0.2-0.1
		c0.2-0.1,0.4-0.2,0.6-0.2c0.1,0,0.2-0.1,0.3-0.1c0.2-0.1,0.4-0.2,0.6-0.3c0,0,0.1,0,0.1-0.1c0.2-0.1,0.4-0.3,0.6-0.4l46.4-36
		c0.1-0.1,0.3-0.2,0.4-0.3c0.2-0.2,0.3-0.3,0.4-0.5c0,0,0,0,0.1-0.1c0.1-0.1,0.2-0.3,0.3-0.4c0.1-0.1,0.1-0.3,0.2-0.4v-0.1
		c0-0.1,0.1-0.2,0.1-0.3c0,0,0,0,0-0.1c0,0,0,0,0-0.1c0-0.1,0-0.2,0-0.3v-0.1c0,0,0,0,0-0.1L437.6,274.4z"/>
	<path class="st1" d="M221.1,344c0.2,0,0.3,0,0.5,0c0.1,0,0.2,0,0.2,0h0.1c0.3,0,0.5-0.1,0.8-0.1h0.1c0.5-0.1,1-0.2,1.5-0.4
		c0.3-0.1,0.6-0.2,0.8-0.3c0.1,0,0.1-0.1,0.2-0.1c0.2-0.1,0.5-0.2,0.7-0.4c0,0,0,0,0.1,0c0.2-0.1,0.4-0.2,0.5-0.4c0,0,0,0,0.1,0
		c0.1-0.1,0.3-0.2,0.4-0.3c0,0,0,0,0.1-0.1s0.3-0.3,0.4-0.4c0,0,0,0,0.1-0.1c0,0,0-0.1,0.1-0.1c0.1-0.1,0.1-0.2,0.2-0.3l0.1-0.1
		c0,0,0,0,0-0.1s0.1-0.2,0.1-0.3c0,0,0-0.1,0.1-0.1c0-0.1,0-0.2,0.1-0.2c0-0.1,0-0.1,0-0.2s0-0.2,0-0.2c0-0.1,0-0.1,0-0.2
		c0,0,0,0,0-0.1l0.1-36c0,0.1,0,0.2,0,0.2c0,0.1,0,0.2,0,0.2c0,0.1,0,0.1-0.1,0.2c0,0.1,0,0.2-0.1,0.2c0,0.1-0.1,0.1-0.1,0.2
		s-0.1,0.2-0.1,0.3c0,0.1-0.1,0.1-0.1,0.2c-0.1,0.1-0.1,0.2-0.2,0.3c0,0.1-0.1,0.1-0.1,0.2c-0.1,0.1-0.2,0.3-0.4,0.4l-0.1,0.1
		c-0.1,0.1-0.3,0.2-0.4,0.3c0,0,0,0-0.1,0c-0.2,0.1-0.3,0.2-0.5,0.4H226c-0.2,0.1-0.4,0.2-0.7,0.4c-0.1,0-0.1,0.1-0.2,0.1
		c-0.3,0.1-0.5,0.2-0.8,0.3c-0.5,0.2-1,0.3-1.5,0.4h-0.1c-0.3,0-0.5,0.1-0.8,0.1c-0.1,0-0.2,0-0.4,0s-0.3,0-0.5,0s-0.4,0-0.7,0
		h-21.2l-0.1,36h21.2c0.2,0,0.3,0,0.5,0S221,344,221.1,344z"/>
	<path class="st2" d="M205.9,253.9c-0.3-0.2-0.5-0.3-0.8-0.5l-19-14.6c-2.4-1.8-2-4.4,0.9-6c52.4-28.9,133.7-28.3,185.1,1.4
		c17.1,9.9,29.1,22.1,35,35.7h22.7c2.2,0,4.1,0.5,5.5,1.3c2.6,1.5,3.3,4,0.8,5.9l-46.6,36.2c-2.9,2.2-8.4,2.4-11.7,0.5
		c-0.3-0.2-0.5-0.3-0.8-0.5l-47-36.2c-3.9-3-0.2-7.2,6.2-7.2h21.9c-4.4-6.2-10.8-11.8-19-16.6c-34-19.6-88.9-19.4-122.1,0.5
		C213.8,255.8,208.9,255.7,205.9,253.9z"/>
	<path class="st2" d="M370.8,339.4c2.4,1.8,2,4.5-0.9,6c-52.4,28.6-133.5,27.9-184.6-1.6c-17.2-9.9-29.2-22.1-35.1-35.6h-23.3
		c-2.2,0-4.1-0.5-5.5-1.3c-2.6-1.5-3.3-4-0.8-5.9l46.6-36.2c2.9-2.2,8.5-2.3,11.7-0.5c0.3,0.2,0.5,0.3,0.8,0.5l47,36.2
		c3.9,3,0.2,7.2-6.2,7.2h-21.2c4.4,6.1,10.8,11.7,18.9,16.5c33.6,19.4,88,19.4,121.4,0c3.6-2.1,8.9-1.7,11.7-0.1
		c0.2,0.1,0.4,0.2,0.6,0.4L370.8,339.4z"/>
	<path class="st3" d="M186.2,238.9c-2.4-1.8-2-4.4,0.9-6c52.4-28.9,133.7-28.3,185.1,1.4c17.1,9.9,29.1,22.1,35,35.7h22.7
		c2.2,0,4.1,0.5,5.5,1.3c2.6,1.5,3.3,4,0.8,5.9"/>
	<path class="st3" d="M121.5,306.8c-2.6-1.5-3.3-4-0.8-5.9l46.6-36.2c2.9-2.2,8.5-2.3,11.7-0.5c0.3,0.2,0.5,0.3,0.8,0.5l47,36.2
		c3.9,3,0.2,7.2-6.2,7.2h-21.2c4.4,6.1,10.8,11.7,18.9,16.5c33.6,19.4,88,19.4,121.4,0c3.6-2.1,8.9-1.7,11.7-0.1
		c0.2,0.1,0.4,0.2,0.6,0.4"/>
</g>
<g id="_x39_">
	<path class="st1" d="M324.1,113.9c0,0-0.1,0-0.1-0.1h-0.1h-0.1h-0.1c0,0,0,0-0.1,0s-0.2,0-0.3,0c-0.1,0-0.3,0-0.6,0
		c-0.2,0-0.5,0.1-0.9,0.2c0,0,0,0-0.1,0c-0.3,0.1-0.7,0.2-1,0.3c-0.1,0-0.1,0-0.2,0.1c-0.3,0.1-0.7,0.2-1.1,0.4h-0.1
		c-0.3,0.1-0.8,0.3-1.1,0.4H318c-0.4,0.2-0.8,0.3-1.2,0.6c-0.1,0-0.1,0.1-0.2,0.1c-0.4,0.2-0.8,0.4-1.2,0.7c-0.1,0-0.1,0.1-0.2,0.1
		c-0.4,0.2-0.9,0.4-1.3,0.7c-1.8,1-3.6,2.2-5.1,3.3c-0.2,0.1-0.4,0.3-0.7,0.5c-0.1,0-0.1,0.1-0.2,0.1c-0.2,0.2-0.4,0.3-0.7,0.5
		s-0.4,0.4-0.8,0.5c-0.1,0-0.1,0.1-0.2,0.1c-0.2,0.2-0.4,0.4-0.8,0.7c-0.2,0.2-0.5,0.4-0.8,0.7c-0.1,0-0.1,0.1-0.2,0.2
		c-0.2,0.2-0.4,0.4-0.8,0.7c-0.2,0.2-0.4,0.4-0.8,0.7c-0.1,0.1-0.1,0.1-0.2,0.2c-0.2,0.2-0.4,0.4-0.7,0.7c-0.2,0.2-0.4,0.4-0.8,0.8
		c-0.1,0.1-0.1,0.1-0.2,0.2c-0.4,0.4-0.9,1-1.3,1.4c0,0.1-0.1,0.1-0.1,0.2c-0.2,0.2-0.4,0.4-0.7,0.7s-0.4,0.4-0.5,0.7l-0.1,0.1
		c-0.2,0.2-0.3,0.4-0.5,0.7c0,0,0,0,0,0.1c-0.2,0.2-0.4,0.5-0.5,0.8c0,0,0,0,0,0.1c-0.1,0.1-0.2,0.3-0.3,0.4c0,0,0,0,0,0.1
		c0,0,0,0.1-0.1,0.1c0,0.1-0.1,0.1-0.1,0.2c0,0,0,0.1-0.1,0.1c0,0,0,0.1-0.1,0.1v0.1c0,0,0,0,0,0.1s-0.1,0.2-0.1,0.2s0,0.1-0.1,0.1
		c0,0,0,0.1-0.1,0.1c0,0,0,0.1-0.1,0.1v0.1v0.1v0.1v0.1c0,0,0,0,0,0.1s0,0.1,0,0.2c0,0.1,0.1,0.1,0.1,0.2l7.1,4.2
		c-0.1,0.1-0.3,0.3-0.4,0.4c-0.1,0.1-0.1,0.1-0.2,0.2c-0.5,0.7-1.2,1.2-1.8,1.9c-0.1,0.1-0.3,0.3-0.4,0.4c-0.5,0.5-1,1.1-1.5,1.5
		c-0.3,0.3-0.7,0.7-1,1s-0.7,0.7-1,1s-0.7,0.7-1,1s-0.7,0.7-0.9,1c-0.3,0.3-0.5,0.5-0.9,0.9c-0.3,0.3-0.7,0.7-1.1,1.1
		c-0.3,0.3-0.7,0.7-0.9,0.9c-0.3,0.3-0.7,0.7-1,1c0,0,0,0-0.1,0.1c-0.8,0.8-1.6,1.5-2.4,2.3c-0.2,0.2-0.4,0.4-0.7,0.5
		c-0.8,0.8-1.6,1.5-2.4,2.3c0,0,0,0-0.1,0c-0.8,0.8-1.5,1.4-2.4,2.2c-0.2,0.2-0.4,0.3-0.7,0.5c-0.8,0.8-1.5,1.4-2.4,2.1
		c-0.8,0.7-1.5,1.3-2.3,2c-0.2,0.2-0.4,0.3-0.5,0.5c-0.8,0.7-1.5,1.3-2.3,2s-1.5,1.2-2.3,1.9c-0.2,0.1-0.3,0.3-0.6,0.4
		c-0.8,0.7-1.5,1.2-2.3,1.8c-0.8,0.5-1.4,1.1-2.2,1.6c-0.2,0.1-0.3,0.3-0.5,0.4c-0.8,0.5-1.4,1.1-2.2,1.6c-0.8,0.5-1.4,1-2.2,1.5
		c-0.2,0.1-0.3,0.2-0.5,0.3c-0.8,0.5-1.4,1-2.2,1.5c-0.7,0.4-1.4,1-2.1,1.4c-0.2,0.1-0.3,0.2-0.6,0.3c-0.7,0.4-1.4,0.9-2.1,1.3
		s-1.3,0.9-2.1,1.2c-0.2,0.1-0.3,0.2-0.5,0.3c-0.7,0.4-1.3,0.8-2.1,1.2c-0.9,0.5-1.8,1-2.6,1.4c-0.2,0.1-0.4,0.2-0.5,0.3
		c-0.9,0.4-1.6,0.9-2.5,1.3c-0.1,0.1-0.2,0.1-0.3,0.2c-0.8,0.3-1.5,0.8-2.2,1.1c-0.2,0.1-0.3,0.2-0.5,0.2c-0.8,0.4-1.6,0.8-2.4,1.1
		c-0.1,0.1-0.3,0.1-0.4,0.2c-0.8,0.3-1.4,0.7-2.2,0.9c-0.1,0-0.2,0.1-0.3,0.1c-0.2,0.1-0.5,0.2-0.8,0.3c-0.8,0.3-1.4,0.5-2.2,0.9
		c-0.3,0.1-0.7,0.2-1,0.4c-0.7,0.2-1.2,0.4-1.9,0.7c-0.3,0.1-0.8,0.2-1.1,0.3c-0.5,0.2-1.2,0.4-1.8,0.6c-0.3,0.1-0.7,0.2-1,0.3
		c-0.7,0.2-1.2,0.3-1.9,0.5c-0.3,0.1-0.7,0.2-0.9,0.2c-0.4,0.1-1,0.2-1.4,0.3c-0.3,0.1-0.7,0.2-1.1,0.2c-0.4,0.1-1,0.2-1.4,0.3
		c-0.3,0.1-0.7,0.1-1,0.2c-0.5,0.1-1,0.2-1.5,0.3c-0.3,0-0.5,0.1-0.9,0.1c-0.7,0.1-1.3,0.2-2,0.3c-0.1,0-0.2,0-0.3,0.1
		c-0.8,0.1-1.5,0.2-2.3,0.3c-0.2,0-0.5,0.1-0.8,0.1c-0.5,0.1-1,0.1-1.5,0.2c-0.3,0-0.5,0-0.9,0.1c-0.4,0-0.9,0.1-1.3,0.1
		c-0.3,0-0.7,0-1,0.1c-0.4,0-0.9,0-1.3,0.1c-0.2,0-0.6,0-0.8,0c-0.7,0-1.3,0-2,0.1c-0.2,0-0.4,0-0.6,0c-0.9,0-1.6,0-2.4,0
		c-0.2,0-0.3,0-0.5,0c-0.7,0-1.3,0-2,0c-0.2,0-0.4,0-0.7,0c-0.8,0-1.4-0.1-2.1-0.1c-0.1,0-0.1,0-0.2,0c-1.2-0.1-2.4-0.2-3.5-0.3
		c0,0,0,0-0.1,0c-1.2-0.1-2.3-0.2-3.4-0.3c-1.1-0.1-2.2-0.2-3.3-0.3s-2.1-0.2-3.2-0.4h-0.1h-0.1H180h-0.1c-0.1,0-0.2,0-0.2,0.1
		c-0.1,0-0.2,0.1-0.3,0.1c-0.1,0.1-0.2,0.1-0.3,0.2c0,0,0,0-0.1,0.1s-0.2,0.1-0.2,0.2c0,0,0,0-0.1,0.1l-0.1,0.1c0,0,0,0-0.1,0.1
		l-0.1,0.1c0,0,0,0.1-0.1,0.1c0,0,0,0.1-0.1,0.1c0,0,0,0,0,0.1v0.1v0.1v0.1v0.1v0.1c0,0,0,0,0,0.1c0,0,0,0,0,0.1c0,0,0,0,0,0.1v0.1
		v0.1c0,0.1,0,0.2,0,0.2c0,0.1,0,0.1,0,0.2v0.1c0,0.1,0,0.1,0.1,0.2v0.1c0,0.1,0.1,0.1,0.1,0.1s0,0.1,0.1,0.1c0,0.1,0.1,0.1,0.1,0.2
		c0,0,0,0,0.1,0.1s0.2,0.1,0.2,0.2c1.1,0.9,2.4,1.8,4.1,2.7l22,12.7c-1.6-1-3-1.9-4.1-2.7c-0.1-0.1-0.2-0.1-0.2-0.2c0,0,0,0-0.1-0.1
		c0-0.1-0.1-0.1-0.1-0.2c0,0,0-0.1-0.1-0.1c0,0-0.1-0.1-0.1-0.2v-0.1c0-0.1,0-0.1-0.1-0.2v-0.1c0-0.1,0-0.1-0.1-0.2
		c0-0.1,0-0.2,0-0.2v1.1c0-0.1,0-0.1,0-0.2c0,0,0,0,0-0.1s0-0.1,0.1-0.2c0-0.1,0.1-0.2,0.1-0.2c0-0.1,0.1-0.2,0.1-0.2
		c0-0.1,0.1-0.2,0.1-0.2c0-0.1,0.1-0.1,0.1-0.2l0.1-0.1c0,0,0,0,0.1-0.1s0.2-0.1,0.2-0.2c0,0,0,0,0.1-0.1s0.2-0.1,0.3-0.2
		c0.1-0.1,0.2-0.1,0.3-0.1s0.2-0.1,0.3-0.1s0.2,0,0.2,0c0.1,0,0.2,0,0.2,0c1,0.1,2.1,0.2,3.2,0.4c1.1,0.1,2.2,0.2,3.3,0.3
		c0,0,0,0,0.1,0c1.1,0.1,2.2,0.2,3.4,0.3c0,0,0,0,0.1,0c1.2,0.1,2.3,0.2,3.5,0.3h0.1c0.7,0,1.4,0.1,2.1,0.1c0.2,0,0.4,0,0.7,0
		c0.7,0,1.3,0,2,0c0.2,0,0.3,0,0.5,0c0.8,0,1.6,0,2.4,0c0.2,0,0.4,0,0.5,0c0.7,0,1.3,0,2-0.1c0.1,0,0.3,0,0.4,0s0.2,0,0.3,0
		c0.4,0,0.9,0,1.3-0.1c0.3,0,0.7,0,0.9-0.1c0.4,0,0.9-0.1,1.4-0.1c0.3,0,0.5,0,0.9-0.1c0.5,0,1-0.1,1.5-0.2c0.2,0,0.5,0,0.8-0.1
		c0.8-0.1,1.5-0.2,2.3-0.3c0.1,0,0.2,0,0.3,0c0.7-0.1,1.3-0.2,2-0.3c0.3,0,0.5-0.1,0.9-0.1c0.5-0.1,1-0.2,1.5-0.3
		c0.3-0.1,0.7-0.1,1-0.2c0.4-0.1,1-0.2,1.4-0.3c0.3-0.1,0.7-0.2,1.1-0.2c0.4-0.1,1-0.2,1.4-0.3c0.1,0,0.1,0,0.2-0.1
		c0.2-0.1,0.4-0.1,0.7-0.2c0.7-0.2,1.2-0.3,1.9-0.5c0.3-0.1,0.7-0.2,1.1-0.3c0.5-0.2,1.2-0.3,1.8-0.5c0.3-0.1,0.8-0.2,1.1-0.3
		c0.7-0.2,1.2-0.4,1.9-0.7c0.3-0.1,0.7-0.2,1-0.4c0.8-0.2,1.4-0.5,2.2-0.9c0.2-0.1,0.4-0.1,0.7-0.2c0,0,0.1,0,0.1-0.1
		c0.1,0,0.2-0.1,0.3-0.1c0.7-0.3,1.4-0.7,2.2-0.9c0.1-0.1,0.3-0.1,0.4-0.2c0.8-0.3,1.6-0.8,2.4-1.1c0.2-0.1,0.3-0.1,0.5-0.2
		c0.8-0.3,1.5-0.8,2.2-1.1c0.1-0.1,0.2-0.1,0.3-0.2c0.9-0.4,1.6-0.9,2.5-1.3c0.2-0.1,0.4-0.2,0.5-0.3c0.9-0.4,1.8-1,2.6-1.4
		c0.7-0.4,1.3-0.8,2.1-1.2c0.2-0.1,0.3-0.2,0.5-0.3c0.7-0.4,1.3-0.9,2.1-1.2c0.7-0.4,1.4-0.9,2.1-1.3c0.2-0.1,0.3-0.2,0.5-0.3
		c1.4-0.9,2.9-1.9,4.3-2.9c0.2-0.1,0.3-0.2,0.5-0.3c0.8-0.5,1.4-1,2.2-1.5c0.8-0.5,1.4-1.1,2.2-1.6c0.2-0.1,0.3-0.3,0.5-0.4
		c0.8-0.5,1.4-1.1,2.2-1.8c0.8-0.5,1.5-1.2,2.3-1.8c0.2-0.1,0.3-0.3,0.5-0.4c0.8-0.7,1.5-1.2,2.3-1.9s1.5-1.3,2.3-2
		c0.2-0.2,0.4-0.3,0.5-0.5c0.8-0.7,1.5-1.3,2.3-2s1.5-1.4,2.4-2.1c0.2-0.2,0.4-0.3,0.5-0.5c0.8-0.8,1.5-1.4,2.4-2.2c0,0,0,0,0.1,0
		c0.8-0.8,1.6-1.5,2.4-2.3c0.2-0.2,0.4-0.4,0.7-0.5c0.8-0.8,1.6-1.5,2.4-2.3c0.3-0.3,0.7-0.7,1-1s0.7-0.7,1-1s0.5-0.6,0.9-0.9
		c0.3-0.3,0.7-0.8,1.1-1.1c0.2-0.2,0.5-0.5,0.8-0.8c0.3-0.4,0.8-0.8,1.1-1.2c0.2-0.2,0.4-0.4,0.7-0.8c0.4-0.4,0.9-0.9,1.2-1.3
		c0.2-0.2,0.4-0.4,0.7-0.8c0.1-0.1,0.2-0.2,0.2-0.3l12.9,7.5l-0.1-0.1v-0.1c0,0,0,0,0-0.1s0-0.1,0-0.2v-0.1c0-0.1,0-0.2,0-0.3
		c0,0,0,0,0-0.1s0-0.2,0.1-0.3V162c0-0.1,0-0.2,0.1-0.3c0-0.1,0.1-0.2,0.1-0.4c0-0.1,0.1-0.2,0.1-0.3v-0.1c0-0.1,0.1-0.2,0.1-0.3
		s0-0.1,0.1-0.2c0-0.1,0.1-0.2,0.1-0.3s0-0.1,0.1-0.2c0-0.1,0.1-0.2,0.1-0.3s0-0.1,0.1-0.2c0-0.1,0.1-0.2,0.1-0.4
		c0-0.1,0.1-0.2,0.1-0.3s0.1-0.2,0.1-0.3s0.1-0.2,0.1-0.3s0.1-0.2,0.1-0.4c0-0.1,0.1-0.2,0.1-0.3s0.1-0.2,0.1-0.3V157
		c0.1-0.2,0.1-0.5,0.2-0.8c0-0.1,0-0.1,0-0.2c0.1-0.3,0.2-0.7,0.2-1c0-0.1,0-0.2,0.1-0.2c0.1-0.2,0.1-0.5,0.2-0.8
		c0-0.1,0.1-0.2,0.1-0.3c0.1-0.2,0.1-0.4,0.2-0.8c0-0.1,0.1-0.2,0.1-0.4c0.1-0.2,0.1-0.6,0.2-0.8c0-0.1,0.1-0.2,0.1-0.3
		c0.2-0.8,0.3-1.5,0.5-2.2c0-0.1,0-0.2,0.1-0.3c0.1-0.2,0.1-0.5,0.2-0.8c0-0.1,0-0.1,0-0.2c0-0.1,0-0.1,0-0.2c0.1-0.3,0.1-0.7,0.2-1
		c0-0.1,0-0.2,0-0.2c0.1-0.4,0.1-0.8,0.2-1.2c0-0.1,0-0.2,0-0.2c0-0.3,0.1-0.5,0.1-0.9c0-0.1,0-0.2,0-0.3c0-0.3,0.1-0.7,0.1-1
		s0.1-0.5,0.1-0.9c0-0.1,0-0.1,0-0.2c0-0.2,0-0.3,0-0.5c0-0.1,0-0.2,0-0.3s0-0.3,0-0.4c0-0.1,0-0.2,0-0.3s0-0.2,0-0.4
		c0-0.1,0-0.2,0-0.2c0-0.1,0-0.2,0-0.3s0-0.1,0-0.2c0-0.1,0-0.2-0.1-0.3c0-0.1,0-0.1,0-0.2c0-0.1-0.1-0.2-0.1-0.2v-0.1
		c-0.1-0.1-0.1-0.2-0.2-0.2s-0.1-0.1-0.2-0.1l-7-4.1c1.2-0.9,2.6-1.6,4-2.5c0.4-0.2,0.9-0.4,1.3-0.7c0.1,0,0.1-0.1,0.2-0.1
		c0.4-0.2,0.8-0.4,1.2-0.7c0.1,0,0.1-0.1,0.2-0.1c0.4-0.2,0.8-0.4,1.2-0.5h0.1c0.3-0.2,0.8-0.3,1.1-0.4c0,0,0.1,0,0.1-0.1
		c0.3-0.1,0.7-0.3,1.1-0.4c0.1,0,0.1,0,0.2-0.1c0.3-0.1,0.7-0.2,1-0.3h0.1c0.3-0.1,0.6-0.1,0.9-0.2c0,0,0,0,0.1,0c0.2,0,0.3,0,0.5,0
		c0.1,0,0.3,0,0.4,0c0,0,0,0,0.1,0s0.2,0,0.3,0c0.1,0,0.2,0.1,0.3,0.1L324.1,113.9z"/>
	<path class="st1" d="M204,160.7c0.2,0.4,0.4,0.8,0.7,1.2c1.3,2.3,3,4,4.9,5.2l22,12.7c-5.2-3-8.3-10-8.3-21.7c0-0.7,0-1.2,0-1.9
		c0-0.2,0-0.4,0-0.7c0-0.4,0-0.9,0.1-1.3c0-0.2,0-0.4,0-0.8c0-0.4,0.1-0.8,0.1-1.2c0-0.2,0-0.5,0.1-0.8c0-0.3,0.1-0.8,0.1-1.1
		c0-0.2,0.1-0.4,0.1-0.7c0.1-0.8,0.2-1.5,0.3-2.3c0-0.1,0-0.2,0-0.2c0.1-0.7,0.2-1.4,0.4-2.1c0-0.2,0.1-0.4,0.1-0.7
		c0.1-0.4,0.2-0.8,0.3-1.2c0-0.2,0.1-0.4,0.1-0.7c0.1-0.4,0.2-1,0.4-1.4c0-0.1,0.1-0.2,0.1-0.3c0.1-0.3,0.2-0.7,0.3-1
		c0.1-0.2,0.1-0.4,0.2-0.7c0.1-0.3,0.2-0.7,0.3-1.1c0.1-0.2,0.1-0.4,0.2-0.5c0.3-1,0.7-2,1-2.9c0-0.1,0.1-0.2,0.1-0.2
		c0.3-0.9,0.7-1.8,1.1-2.5c0.1-0.1,0.1-0.3,0.2-0.4c0.3-0.8,0.8-1.6,1.1-2.4c0.1-0.1,0.1-0.3,0.2-0.4c0.4-0.8,0.8-1.6,1.2-2.4
		c0-0.1,0.1-0.2,0.1-0.3c0.4-0.9,1-1.8,1.4-2.6c0.5-1,1.1-1.9,1.8-2.7v-0.1c0.7-1,1.3-2,2-3c0,0,0,0,0-0.1c0.8-1.1,1.5-2.1,2.3-3.1
		c0.1-0.1,0.2-0.2,0.3-0.4c0.3-0.4,0.8-1,1.1-1.4c0.1-0.1,0.2-0.2,0.2-0.3c0.4-0.5,0.9-1.1,1.4-1.6c0.1-0.1,0.2-0.2,0.3-0.3
		c0.7-0.7,1.2-1.4,1.9-2.1s1.2-1.3,1.9-2c0.2-0.2,0.3-0.3,0.5-0.5c0.4-0.4,0.9-0.9,1.3-1.3c0.3-0.3,0.5-0.5,0.9-0.9s0.9-0.8,1.3-1.2
		c0.3-0.2,0.5-0.5,0.9-0.8c0.4-0.4,0.9-0.8,1.4-1.2c0.3-0.2,0.5-0.5,0.9-0.8c0.5-0.4,1.1-0.9,1.6-1.3c0.2-0.2,0.4-0.3,0.7-0.5
		c0.8-0.7,1.5-1.2,2.3-1.9c0.1-0.1,0.2-0.2,0.3-0.2c0.5-0.4,1.2-1,1.8-1.4c0,0.1,0,0.1,0,0.2c0,0.2,0,0.4,0,0.7c0,0.3,0,0.7,0,1
		c0,0.2,0,0.4,0,0.7c0,0.3,0,0.7,0,1c0,0.2,0,0.4,0,0.7c0,0.3,0,0.7-0.1,1c0,0.2,0,0.4,0,0.7c0,0.3-0.1,0.7-0.1,1.1
		c0,0.2,0,0.4-0.1,0.7c0,0.4-0.1,0.9-0.1,1.2c0,0.1,0,0.3,0,0.4c-0.1,0.7-0.2,1.2-0.3,1.9c0,0.2-0.1,0.3-0.1,0.5
		c-0.1,0.4-0.2,0.9-0.2,1.4c-0.1,0.3-0.1,0.5-0.2,0.9c0,0.2-0.1,0.4-0.1,0.7c-0.1,0.3-0.2,0.7-0.2,1c0,0.2-0.1,0.4-0.1,0.7
		c-0.1,0.5-0.3,1-0.4,1.5c0,0.1-0.1,0.2-0.1,0.2c-0.1,0.4-0.2,0.9-0.4,1.2c-0.2,0.8-0.5,1.5-0.8,2.3c-0.1,0.1-0.1,0.3-0.2,0.4
		c-0.2,0.5-0.4,1-0.7,1.4c-0.1,0.2-0.2,0.4-0.2,0.5c-0.2,0.3-0.3,0.8-0.5,1.1c-0.1,0.2-0.2,0.4-0.2,0.6c-0.2,0.3-0.3,0.8-0.5,1.1
		c-0.1,0.1-0.2,0.3-0.2,0.4c-0.2,0.4-0.5,1-0.8,1.4c0,0,0,0,0,0.1c-0.3,0.4-0.5,1-0.9,1.4c-0.1,0.1-0.2,0.3-0.3,0.4
		c-0.2,0.3-0.4,0.7-0.7,1c-0.1,0.1-0.2,0.3-0.3,0.4c-0.2,0.3-0.4,0.5-0.7,0.9c-0.1,0.1-0.2,0.3-0.3,0.4c-0.3,0.3-0.6,0.7-0.9,1.1
		c-0.1,0.1-0.2,0.2-0.3,0.3s-0.2,0.2-0.3,0.3c-0.2,0.2-0.4,0.4-0.7,0.7c-0.1,0.1-0.2,0.2-0.3,0.3c-0.2,0.2-0.3,0.3-0.5,0.5
		s-0.4,0.4-0.7,0.5c-0.1,0.1-0.3,0.2-0.4,0.4c-0.2,0.2-0.4,0.3-0.7,0.6c-0.1,0.1-0.3,0.2-0.4,0.3c-0.2,0.2-0.5,0.3-0.8,0.5
		c-0.1,0.1-0.2,0.2-0.3,0.2c-0.3,0.2-0.8,0.4-1.1,0.7c-0.4,0.2-0.8,0.4-1.1,0.5c-0.1,0.1-0.2,0.1-0.3,0.1c-0.3,0.1-0.5,0.2-0.9,0.3
		c-0.1,0-0.1,0.1-0.2,0.1c-0.3,0.1-0.7,0.2-1,0.3c-0.1,0-0.3,0.1-0.4,0.1c-0.2,0-0.4,0.1-0.7,0.1c-0.1,0-0.2,0-0.3,0
		c-0.2,0-0.4,0-0.7,0c-0.1,0-0.1,0-0.2,0c-0.3,0-0.5,0-0.8-0.1h-0.1c-0.2,0-0.4-0.1-0.7-0.2c-0.1,0-0.1,0-0.2-0.1
		c-0.2-0.1-0.5-0.2-0.8-0.3l22,12.7c0,0,0,0,0.1,0c0.2,0.1,0.3,0.2,0.5,0.2h0.1c0.1,0,0.1,0,0.2,0.1c0.1,0,0.1,0.1,0.2,0.1
		s0.3,0.1,0.4,0.1h0.1c0.2,0,0.4,0.1,0.7,0.1h0.1c0.1,0,0.1,0,0.2,0s0.2,0,0.3,0c0.1,0,0.2,0,0.3,0c0.1,0,0.2,0,0.3,0h0.1
		c0.1,0,0.3-0.1,0.4-0.1s0.3,0,0.4-0.1h0.1c0.3-0.1,0.5-0.2,0.9-0.3c0.1,0,0.1,0,0.2-0.1c0.1,0,0.2-0.1,0.4-0.1
		c0.1-0.1,0.3-0.1,0.4-0.2c0.1,0,0.2-0.1,0.3-0.1c0.3-0.2,0.8-0.3,1.1-0.5c0.3-0.2,0.8-0.4,1.1-0.7c0.1-0.1,0.2-0.2,0.3-0.2
		c0.2-0.2,0.5-0.3,0.8-0.5c0.1-0.1,0.3-0.2,0.4-0.3c0.2-0.2,0.4-0.3,0.7-0.5c0.1-0.1,0.3-0.2,0.4-0.4c0.2-0.2,0.4-0.4,0.7-0.5
		c0.1-0.1,0.1-0.1,0.2-0.2c0.1-0.1,0.2-0.2,0.3-0.3c0.1-0.1,0.2-0.2,0.3-0.3c0.2-0.2,0.4-0.4,0.7-0.7c0.1-0.1,0.2-0.2,0.3-0.3
		l0.1-0.1c0.1-0.1,0.1-0.1,0.2-0.2c0.3-0.3,0.5-0.7,0.9-1.1c0.1-0.1,0.1-0.1,0.2-0.2c0.1-0.1,0.1-0.2,0.2-0.2
		c0.2-0.3,0.4-0.5,0.7-0.9c0.1-0.1,0.1-0.2,0.2-0.3l0.1-0.1c0.2-0.3,0.4-0.7,0.7-1c0.1-0.1,0.1-0.2,0.2-0.3c0,0,0,0,0-0.1
		c0.3-0.4,0.5-1,0.9-1.4c0,0,0,0,0-0.1c0.2-0.4,0.5-1,0.8-1.4V134c0.1-0.1,0.1-0.2,0.2-0.3c0.2-0.3,0.3-0.8,0.5-1.1
		c0-0.1,0.1-0.1,0.1-0.2c0.1-0.1,0.1-0.2,0.2-0.3c0.2-0.3,0.3-0.8,0.6-1.1c0-0.1,0.1-0.2,0.1-0.3s0.1-0.2,0.1-0.2
		c0.2-0.4,0.4-1,0.7-1.5c0-0.1,0.1-0.2,0.1-0.3s0-0.1,0.1-0.2c0.3-0.8,0.5-1.5,0.8-2.3c0-0.1,0.1-0.1,0.1-0.2c0.1-0.3,0.2-0.7,0.3-1
		c0-0.1,0.1-0.2,0.1-0.2c0.1-0.4,0.3-0.9,0.4-1.4c0-0.1,0-0.1,0-0.2c0.1-0.2,0.1-0.4,0.1-0.7c0.1-0.3,0.2-0.7,0.2-1
		c0-0.2,0.1-0.4,0.1-0.7c0-0.2,0.1-0.3,0.1-0.6c0-0.1,0-0.2,0.1-0.3c0.1-0.4,0.2-0.9,0.2-1.4c0-0.2,0.1-0.3,0.1-0.5
		c0.1-0.7,0.2-1.2,0.3-1.9c0-0.1,0-0.2,0-0.4c0-0.4,0.1-0.9,0.1-1.2c0-0.2,0-0.4,0.1-0.7c0-0.3,0.1-0.7,0.1-1.1c0-0.2,0-0.4,0-0.7
		c0-0.3,0-0.7,0.1-1c0-0.2,0-0.4,0-0.7c0-0.3,0-0.7,0-1c0-0.2,0-0.4,0-0.7c0-0.3,0-0.7,0-1c0-0.2,0-0.4,0-0.7c0-0.3,0-0.7,0-1.1
		c0-0.2,0-0.4,0-0.7c0-0.4,0-0.9,0-1.3c0-0.8,0-1.4,0-2.2v-4.9l-14.5-8.3c0.3-0.2,0.5-0.4,0.9-0.7c0.4-0.3,0.9-0.7,1.3-1
		c0.3-0.2,0.7-0.4,1-0.8c0.4-0.3,0.9-0.7,1.3-1c0.3-0.2,0.7-0.4,1-0.7c0.5-0.3,1-0.7,1.5-1.1c0.3-0.2,0.7-0.4,1-0.7
		c0.7-0.4,1.3-0.9,2-1.3c0.4-0.3,1-0.7,1.4-1c0.3-0.2,0.6-0.4,0.9-0.5c0.8-0.5,1.4-1,2.2-1.5v-3c0-5.5,0.3-12.2-2.5-15.3
		c-0.2-0.2-0.3-0.4-0.6-0.5c-0.2-0.1-0.4-0.3-0.7-0.4l-22-12.7c0.4,0.2,0.9,0.5,1.2,1c2.9,3.1,2.4,9.8,2.5,15.3v3
		c-0.7,0.5-1.4,1-2.2,1.5c-0.2,0.2-0.5,0.4-0.9,0.5c-0.4,0.3-1,0.7-1.4,1c-0.7,0.4-1.2,0.9-1.9,1.3c-0.3,0.2-0.8,0.5-1.1,0.8
		c-0.4,0.3-1,0.7-1.4,1c-0.3,0.2-0.7,0.4-1,0.8c-0.4,0.3-0.9,0.7-1.3,1c-0.3,0.2-0.7,0.4-1,0.8c-0.4,0.3-0.9,0.7-1.3,1
		c-0.3,0.2-0.7,0.5-1.1,0.8c-0.4,0.3-0.9,0.7-1.3,1c-0.3,0.2-0.7,0.5-1,0.8c-0.4,0.3-1,0.7-1.4,1c-0.3,0.2-0.7,0.4-1,0.8
		c-0.5,0.3-1,0.8-1.5,1.1c-0.3,0.2-0.5,0.4-0.9,0.7c-0.7,0.5-1.3,1-2,1.5c-0.1,0.1-0.2,0.2-0.3,0.3c-0.8,0.7-1.5,1.2-2.3,1.9
		c-0.2,0.2-0.4,0.4-0.7,0.5c-0.5,0.4-1.1,0.9-1.5,1.3c-0.3,0.2-0.5,0.5-0.9,0.8c-0.4,0.4-0.9,0.8-1.4,1.2c-0.3,0.2-0.5,0.5-0.9,0.8
		c-0.3,0.3-0.7,0.7-1,1c0.1-0.2,0.1-0.6,0.2-0.8c0.1-0.5,0.2-1.1,0.4-1.6c0.1-0.3,0.1-0.5,0.2-0.9c0.2-0.7,0.3-1.4,0.5-2.1
		c0-0.1,0-0.1,0.1-0.2c0.2-0.8,0.4-1.4,0.7-2.1c0.3-1,0.7-2,1-2.9c0,0,0-0.1,0.1-0.1c0.3-0.9,0.7-1.8,1.1-2.6
		c0.1-0.3,0.2-0.5,0.4-0.9c0.2-0.5,0.5-1.2,0.8-1.8c0.1-0.3,0.3-0.7,0.4-1c0.2-0.5,0.5-1.1,0.9-1.6c0.1-0.3,0.3-0.7,0.4-0.9
		c0.3-0.7,0.7-1.3,1.1-1.9c0.1-0.2,0.2-0.4,0.3-0.7c0.5-0.9,1-1.8,1.5-2.5c0.1-0.2,0.2-0.3,0.3-0.5c0.4-0.8,1-1.5,1.5-2.2
		c0.1-0.2,0.3-0.4,0.4-0.7c0.7-1,1.4-2,2.1-2.9c0.2-0.3,0.4-0.5,0.7-0.9c0.2-0.3,0.5-0.7,0.8-1c0.2-0.3,0.5-0.7,0.8-0.9
		c0.3-0.3,0.5-0.7,0.9-1c0.2-0.2,0.3-0.4,0.5-0.7c0.7-0.7,1.2-1.3,1.9-2c0.1-0.1,0.2-0.3,0.4-0.4c0.8-0.8,1.4-1.5,2.2-2.2
		c0.2-0.2,0.3-0.3,0.5-0.5c0.7-0.5,1.2-1.2,1.9-1.8c0.1-0.1,0.3-0.3,0.4-0.4c0.8-0.7,1.5-1.3,2.3-2c0.2-0.1,0.3-0.3,0.5-0.4
		c0.7-0.5,1.3-1.1,1.9-1.5c0.2-0.1,0.3-0.3,0.5-0.4c0.8-0.7,1.5-1.2,2.3-1.8c0.1-0.1,0.3-0.2,0.4-0.3c0.7-0.4,1.3-1,2-1.4
		c0.2-0.1,0.4-0.3,0.5-0.4c0.8-0.5,1.5-1.1,2.3-1.5c0.1-0.1,0.2-0.1,0.2-0.2c0.7-0.4,1.4-0.9,2.1-1.3c0.2-0.1,0.4-0.2,0.7-0.3
		c0.8-0.4,1.5-1,2.3-1.4c0.7-0.3,1.3-0.8,2-1.1c0,0,0.1,0,0.1-0.1c0.7-0.3,1.2-0.7,1.9-1c0.1,0,0.1-0.1,0.2-0.1
		c0.7-0.3,1.2-0.7,1.9-0.9c0.1,0,0.1-0.1,0.2-0.1c0.7-0.3,1.2-0.5,1.9-0.8c0.1,0,0.2-0.1,0.3-0.1c0.4-0.2,1-0.3,1.4-0.5h0.1
		c0.4-0.2,0.9-0.3,1.3-0.4c0.1,0,0.2-0.1,0.3-0.1c0.4-0.1,1-0.3,1.4-0.4c0.1,0,0.2,0,0.2-0.1c0.4-0.1,0.9-0.2,1.3-0.3
		c0.1,0,0.1,0,0.2,0c0.7-0.2,1.3-0.3,2-0.4c0,0,0,0,0.1,0c0.7-0.1,1.4-0.3,2.1-0.3c0,0,0,0,0.1,0c0.4-0.1,0.9-0.1,1.3-0.2
		c0.1,0,0.2,0,0.3,0c0.4,0,0.9-0.1,1.3-0.1c0.1,0,0.2,0,0.3,0c0.2,0,0.5,0,0.8,0c0.1,0,0.2,0,0.3,0c0.2,0,0.5,0,0.8,0
		c0.1,0,0.2,0,0.3,0c0.2,0,0.4,0,0.7,0c0.1,0,0.2,0,0.3,0c0.2,0,0.5,0.1,0.8,0.1h0.1c0.1,0,0.2,0,0.3,0.1c0.2,0,0.3,0.1,0.6,0.1
		c0.1,0,0.2,0.1,0.3,0.1c0.1,0,0.3,0.1,0.4,0.1c0.4,0.1,0.9,0.3,1.3,0.4c0.1,0,0.1,0,0.2,0.1c0.3,0.1,0.5,0.2,0.9,0.4
		c0.2,0.1,0.5,0.2,0.8,0.4l-22-12.7c-0.1-0.1-0.2-0.1-0.3-0.2c-0.1-0.1-0.3-0.1-0.4-0.2c-0.3-0.1-0.5-0.3-0.9-0.4c0,0,0,0-0.1,0
		h-0.1c-0.4-0.2-0.9-0.3-1.3-0.4c-0.1,0-0.3-0.1-0.4-0.1s-0.2-0.1-0.3-0.1c-0.2,0-0.3-0.1-0.5-0.1c-0.1,0-0.2,0-0.3-0.1h-0.1
		c-0.2,0-0.5-0.1-0.8-0.1c-0.1,0-0.2,0-0.3,0c-0.2,0-0.4,0-0.7,0h1.2c-0.1,0-0.1,0-0.2,0c-0.2,0-0.5,0-0.8,0c-0.1,0-0.2,0-0.3,0
		c-0.2,0-0.5,0-0.8,0c-0.1,0-0.1,0-0.2,0c0,0,0,0-0.1,0c-0.4,0-0.9,0-1.3,0.1c-0.1,0-0.2,0-0.3,0c-0.4,0-0.9,0.1-1.3,0.2
		c-0.7,0.1-1.3,0.2-2.1,0.3c0,0,0,0-0.1,0c-0.7,0.1-1.3,0.3-2,0.4h-0.1c-0.4,0.1-0.9,0.2-1.3,0.3c-0.1,0-0.2,0-0.2,0.1
		c-0.4,0.1-1,0.3-1.4,0.4c-0.1,0-0.2,0.1-0.3,0.1c-0.4,0.1-0.9,0.3-1.3,0.4h-0.1c-0.4,0.2-1,0.3-1.4,0.5c0,0-0.1,0-0.1,0.1H258
		c-0.7,0.2-1.3,0.5-1.9,0.8c-0.1,0-0.1,0.1-0.2,0.1c-0.7,0.3-1.3,0.6-1.9,0.9c-0.1,0-0.1,0.1-0.2,0.1c-0.7,0.3-1.3,0.7-1.9,1
		c0,0-0.1,0-0.1,0.1c-0.7,0.3-1.3,0.8-2,1.1c-0.8,0.4-1.5,0.9-2.3,1.4c-0.2,0.1-0.4,0.2-0.7,0.3c-0.7,0.4-1.4,0.9-2.1,1.3
		c-0.1,0.1-0.2,0.1-0.2,0.2c-0.8,0.5-1.5,1.1-2.3,1.5c-0.2,0.1-0.4,0.3-0.5,0.4c-0.7,0.4-1.3,1-2,1.4c-0.1,0.1-0.3,0.2-0.4,0.3
		c-0.8,0.5-1.5,1.2-2.3,1.8c-0.2,0.1-0.3,0.3-0.5,0.4c-0.7,0.5-1.3,1.1-1.9,1.5c-0.2,0.1-0.3,0.3-0.5,0.4c-0.8,0.7-1.5,1.3-2.3,2
		c-0.1,0.1-0.3,0.3-0.4,0.4c-0.7,0.6-1.2,1.2-1.9,1.8c-0.1,0.1-0.2,0.2-0.3,0.3s-0.1,0.1-0.2,0.2c-0.8,0.8-1.4,1.5-2.2,2.2
		c-0.1,0.1-0.2,0.3-0.4,0.4c-0.7,0.7-1.2,1.3-1.9,2c-0.1,0.1-0.2,0.2-0.3,0.3s-0.2,0.2-0.2,0.3c-0.3,0.3-0.5,0.7-0.9,1
		c-0.2,0.3-0.6,0.7-0.8,0.9c-0.2,0.3-0.6,0.7-0.8,1c-0.2,0.2-0.3,0.4-0.5,0.7c0,0.1-0.1,0.1-0.1,0.2c-0.8,1-1.4,1.9-2.1,2.9
		c-0.1,0.1-0.1,0.1-0.2,0.2s-0.2,0.2-0.2,0.4c-0.5,0.8-1,1.4-1.5,2.2c-0.1,0.1-0.2,0.2-0.2,0.4l-0.1,0.1c-0.5,0.9-1.1,1.6-1.5,2.5
		c0,0,0,0.1-0.1,0.1c-0.1,0.2-0.2,0.3-0.3,0.5c-0.3,0.7-0.7,1.2-1.1,1.9c-0.1,0.1-0.1,0.2-0.2,0.3c-0.1,0.2-0.2,0.3-0.3,0.5
		c-0.3,0.5-0.5,1.1-0.9,1.6c-0.1,0.2-0.2,0.3-0.3,0.5c-0.1,0.1-0.1,0.3-0.2,0.4c-0.3,0.5-0.5,1.2-0.8,1.8c-0.1,0.2-0.2,0.4-0.3,0.7
		c0,0.1-0.1,0.1-0.1,0.2c-0.3,0.9-0.8,1.8-1.1,2.6V67c-0.3,1-0.7,1.9-1,2.9c0,0.1-0.1,0.2-0.1,0.3c-0.2,0.7-0.4,1.2-0.5,1.9
		c0,0.1,0,0.1-0.1,0.2c-0.1,0.5-0.3,1-0.4,1.5c0,0.1-0.1,0.3-0.1,0.4c-0.1,0.3-0.1,0.5-0.2,0.9c-0.1,0.5-0.2,1.1-0.4,1.6
		c-0.1,0.3-0.1,0.5-0.2,0.9c0,0.1-0.1,0.3-0.1,0.4c-0.1,0.4-0.1,0.8-0.2,1.2c0,0.2-0.1,0.5-0.1,0.8c-0.1,0.9-0.3,1.6-0.4,2.5v0.1
		c0,0.1,0,0.2,0,0.2c0,0.1,0,0.2,0,0.2c0,0.1,0,0.2,0,0.3c0,0.1,0,0.1,0,0.2s0,0.2,0,0.2c0,0.1,0,0.1,0,0.2s0,0.1,0,0.2s0,0.1,0,0.2
		s0,0.1,0.1,0.2c0,0,0,0.1,0.1,0.1c0,0.1,0.1,0.1,0.1,0.2c0,0,0,0.1,0.1,0.1c0,0.1,0.1,0.1,0.1,0.1s0,0,0.1,0.1s0.1,0.1,0.2,0.2
		l16.9,9.8c-0.5,0.5-1,1.1-1.5,1.6c-0.1,0.1-0.1,0.1-0.2,0.2l-0.1,0.1c-0.4,0.5-1,1.1-1.4,1.6c-0.1,0.1-0.2,0.2-0.2,0.3
		c-0.3,0.4-0.8,1-1.1,1.4c-0.1,0.1-0.1,0.2-0.2,0.2l-0.1,0.1c-0.8,1-1.5,2.1-2.3,3.1c-0.7,1-1.3,2-2,3c0,0,0,0,0,0.1
		c-0.5,0.9-1.2,1.9-1.6,2.7c-0.5,0.9-1,1.8-1.4,2.5c0,0.1-0.1,0.1-0.1,0.2v0.1c-0.4,0.8-0.9,1.6-1.2,2.4c0,0.1-0.1,0.1-0.1,0.2
		s-0.1,0.1-0.1,0.2c-0.3,0.8-0.8,1.6-1.1,2.4c0,0.1-0.1,0.1-0.1,0.2s-0.1,0.1-0.1,0.2c-0.3,0.9-0.8,1.8-1.1,2.5c0,0,0,0,0,0.1
		s0,0.1-0.1,0.2c-0.3,1-0.7,1.9-1,2.9c-0.1,0.2-0.1,0.4-0.2,0.5c-0.1,0.3-0.2,0.7-0.3,1.1c-0.1,0.2-0.1,0.4-0.2,0.7
		c-0.1,0.3-0.2,0.7-0.3,1c0,0.1-0.1,0.2-0.1,0.3c-0.1,0.4-0.2,1-0.3,1.4c0,0.2-0.1,0.4-0.1,0.7c-0.1,0.4-0.2,0.8-0.3,1.2
		c0,0.1,0,0.2-0.1,0.3c0,0.1,0,0.2-0.1,0.3c-0.1,0.7-0.3,1.3-0.4,2.1c0,0.1,0,0.2,0,0.2c-0.1,0.8-0.2,1.5-0.3,2.3c0,0.1,0,0.2,0,0.2
		c0,0.1,0,0.3,0,0.4c0,0.3-0.1,0.8-0.1,1.1c0,0.2,0,0.5-0.1,0.8c0,0.4-0.1,0.8-0.1,1.2c0,0.2,0,0.4,0,0.8c0,0.4,0,0.9-0.1,1.3
		c0,0.2,0,0.4,0,0.7c0,0.7,0,1.2,0,1.9c0,5.2,0.7,9.3,1.8,12.7C203.3,159,203.7,160,204,160.7z"/>
	<path class="st4" d="M346.3,126.9c1.3,1.2,0,10.5-2.2,18c-2.2,7.4-5.4,13.6-7.1,16.4c-0.7,1-1.3,1.6-1.8,2
		c-0.8,0.4-1.1-0.2-0.4-2.2c1-3.1,6.5-21.9,4.3-23.8c-1.1-1-4.1,0.3-7.4,2.2c-3.4,2-7,4.6-8.9,5.9c-2.1,1.4-3.2,2.3-3.8,2.6
		c-0.5,0.3-0.8,0.3-0.9,0c-0.7-1.9,7.4-10.3,12.7-14.2c1.5-1.1,3.3-2.2,5.1-3.3C340.3,127.8,345.1,125.8,346.3,126.9z M328.7,148.2
		c-21.3,23.9-39.9,39.1-56,48.4c-31.4,18.1-53.9,14.7-70.3,12.7c-0.3,0-0.8,0.1-1.2,0.3c-1.3,0.8-2.4,2.7-0.7,4.1
		c8.3,6.8,35.6,18.9,71.1-1.5s56.6-54.9,59.2-60.3c2.1-4.3,1.3-5.8-0.4-4.8C329.7,147.2,329.3,147.7,328.7,148.2z"/>
	<path class="st4" d="M282.2,78.2v-3c0-5.5,0.3-12.2-2.5-15.3c-2.4-2.9-7.1-1.9-11.3,0.5c-7.7,4.4-14.5,12.9-16.1,23.2
		c-0.3,2.3-1.6,5.1-3.5,6.3l-19.3,8.8c-1.6,0.5-3.4,0-3-3.1c4.4-29.7,25.7-50.2,44.8-61.2c9.8-5.6,22.5-10,30.3-5.9
		c9.8,4.8,8.9,19.3,8.9,34.6l0.1,35.9c0,10.8,4,13.3,7.6,17c1.3,1.3,1.6,3.6,0,6.2c-4.1,6.3-11.3,17.8-15.4,24.2
		c-0.8,1.2-1.8,2.1-2.7,2.6c-0.8,0.4-1.4,0.7-2.1,0.7c-6.7-2.5-7.9-4.7-11.5-8.7c-11,19.2-18.8,27.7-33.1,35.9
		c-16.9,9.8-30.1,5.4-30.1-18.6c0-18.7,8.8-36.6,21.3-50.1C255.4,96.3,270.6,86.5,282.2,78.2z M278.6,128.4
		c4-10.2,3.7-17.7,3.7-26.6v-4.9c-14.5,8.3-29.9,20.8-29.8,40.4c0,10,4.5,14.1,12.2,9.7C270.4,143.6,275.4,136.7,278.6,128.4z"/>
</g>
<g id="_x38_">
	<path class="st1" d="M70.1,55.8L40.4,4.2c-0.8-1.4-2.7-1.4-3.5,0L11.6,48.6c-1.5,2.5-1.5,5.5,0,8.1l29.2,50.5c1.5,2.5,4.1,4,7,4
		l58.1-0.2c2.8,0,5.4-1.6,6.9-4l25.4-44.4c0.8-1.4-0.2-3-1.7-3l-59.2,0.2C74.2,59.8,71.6,58.2,70.1,55.8z"/>
	<path class="st2" d="M136.3,59.6l-59.2,0.2c-2.9,0-5.5-1.6-7-4L40.4,4.2c-0.8-1.4,0.2-3,1.7-3L101.3,1c2.9,0,5.5,1.6,7,4L138,56.6
		C138.8,57.9,137.9,59.6,136.3,59.6z"/>
	<path class="st3" d="M137.5,63.6c1.5-2.5,1.5-5.5,0-8.1L108.3,5c-1.5-2.5-4.1-4-7-4L43.2,1.2c-2.8,0-5.4,1.6-6.9,4L11.6,48.6
		c-1.5,2.5-1.5,5.5,0,8.1"/>
	<path class="st4" d="M61.6,1.2l33.8,58.5h23.8L85.3,1.1L61.6,1.2z"/>
	<path class="st5" d="M67.4,1.2h-5.8l2.9,5"/>
	<path class="st6" d="M70,15.9l19.6,34"/>
	<path class="st5" d="M92.5,54.7l2.9,4.9h5.8"/>
	<path class="st5" d="M113.3,59.7h5.8l-2.9-5"/>
	<path class="st6" d="M110.6,44.9L91,11"/>
	<path class="st5" d="M88.2,6.1l-2.9-5h-5.8"/>
</g>
<g id="_x37_">
	<path class="st1" d="M514.1,148.5c-0.2-0.3-0.4-0.5-0.5-0.8c0-0.1-0.1-0.1-0.1-0.2c-0.2-0.3-0.4-0.5-0.5-0.7c0-0.1-0.1-0.1-0.1-0.2
		c-0.2-0.3-0.4-0.5-0.6-0.8c-0.1-0.1-0.1-0.1-0.2-0.2c-0.2-0.3-0.4-0.5-0.5-0.6l-0.1-0.1c-0.3-0.3-0.5-0.5-0.7-0.7
		c-0.1-0.1-0.1-0.1-0.2-0.2c-0.2-0.2-0.5-0.4-0.6-0.5l-0.1-0.1c-0.3-0.2-0.5-0.5-0.8-0.6c-0.1-0.1-0.1-0.1-0.2-0.2
		c-0.2-0.2-0.5-0.4-0.6-0.5s-0.2-0.1-0.3-0.2c-0.3-0.2-0.6-0.4-0.9-0.5c0,0,0,0-0.1,0c-0.3-0.2-0.6-0.4-0.9-0.5
		c-0.1-0.1-0.2-0.1-0.3-0.2c-0.2-0.1-0.5-0.3-0.6-0.4s-0.3-0.2-0.5-0.2c-0.2-0.1-0.5-0.2-0.6-0.3s-0.3-0.1-0.5-0.2
		c-0.3-0.1-0.5-0.2-0.7-0.3s-0.3-0.1-0.5-0.2c-0.3-0.1-0.5-0.2-0.8-0.3c-0.1,0-0.3-0.1-0.4-0.1c-0.4-0.1-0.7-0.3-1.1-0.4
		c-0.1,0-0.3-0.1-0.4-0.1c-0.2-0.1-0.5-0.1-0.6-0.2c-0.2,0-0.3-0.1-0.5-0.1c-0.2-0.1-0.5-0.1-0.6-0.2c-0.2,0-0.3-0.1-0.5-0.1
		c-0.3-0.1-0.5-0.1-0.7-0.2c-0.1,0-0.3-0.1-0.4-0.1c-0.3-0.1-0.5-0.1-0.8-0.2c-0.1,0-0.2,0-0.3-0.1c-0.4-0.1-0.7-0.1-1.1-0.2
		c-0.1,0-0.2,0-0.2,0c-0.3,0-0.6-0.1-0.9-0.1c-0.5-0.1-0.9-0.1-1.4-0.1c-0.1,0-0.1,0-0.2,0c-0.5,0-0.8-0.1-1.3-0.1
		c-0.2,0-0.4,0-0.5,0c-0.4,0-0.6,0-1,0c-0.2,0-0.4,0-0.5,0c-0.4,0-0.6,0-1,0c-0.2,0-0.4,0-0.5,0c-0.5,0-0.8,0-1.3,0
		c-0.1,0-0.2,0-0.3,0c-0.5,0-1,0.1-1.5,0.1c-0.2,0-0.3,0-0.5,0c-0.4,0-0.7,0.1-1.1,0.1c-0.2,0-0.4,0-0.5,0.1c-0.4,0-0.7,0.1-1,0.1
		c-0.2,0-0.4,0-0.5,0.1c-0.7,0.1-1.4,0.2-2.1,0.3c-0.1,0-0.3,0-0.4,0.1c-0.7,0.1-1.5,0.3-2.2,0.4c-0.7,0.2-1.5,0.3-2.2,0.5
		c-0.1,0-0.3,0.1-0.4,0.1c-0.7,0.2-1.5,0.4-2.2,0.5c-0.2,0.1-0.4,0.1-0.6,0.2c-0.3,0.1-0.5,0.2-0.8,0.3s-0.5,0.1-0.7,0.2
		c-0.3,0.1-0.5,0.2-0.8,0.3s-0.5,0.2-0.7,0.2c-0.3,0.1-0.5,0.2-0.8,0.3s-0.5,0.2-0.7,0.3c-0.3,0.1-0.5,0.2-0.8,0.3
		c-0.2,0.1-0.4,0.2-0.6,0.2c-0.7,0.3-1.5,0.5-2.3,0.8c-0.2,0.1-0.3,0.1-0.5,0.2c-0.8,0.3-1.5,0.6-2.4,0.9c-0.3,0.1-0.6,0.3-0.9,0.5
		c-0.2,0.1-0.3,0.1-0.5,0.2c-0.5,0.2-1,0.5-1.5,0.6c-0.7,0.4-1.5,0.7-2.2,1.1c-0.4,0.2-0.7,0.4-1,0.5c-0.5,0.2-0.8,0.5-1.3,0.6
		c-0.4,0.2-0.7,0.4-1,0.5c-0.4,0.2-0.8,0.5-1.2,0.6c-0.4,0.2-0.7,0.4-1,0.6c-0.4,0.2-0.7,0.5-1.1,0.6c-0.4,0.2-0.6,0.5-1,0.6
		c-0.4,0.3-0.7,0.5-1.1,0.7c-0.4,0.3-0.8,0.5-1.2,0.8c-0.3,0.2-0.6,0.5-0.9,0.6c-0.4,0.3-0.7,0.5-1.2,0.8c-0.3,0.2-0.5,0.5-0.9,0.6
		c-0.7,0.5-1.4,1.1-2.1,1.6c-0.1,0-0.1,0.1-0.2,0.1c-0.6,0.5-1.3,1-1.8,1.5s-1,0.9-1.5,1.3c-0.1,0.1-0.2,0.2-0.3,0.3
		c-0.5,0.4-0.8,0.7-1.2,1.2c-0.2,0.2-0.3,0.3-0.5,0.5c-0.4,0.4-0.8,0.8-1.2,1.2c-0.1,0.1-0.2,0.2-0.2,0.2c-0.3,0.3-0.5,0.6-0.8,0.9
		c-0.2,0.2-0.5,0.5-0.6,0.6c-0.3,0.4-0.5,0.6-0.8,1c-0.2,0.2-0.4,0.5-0.5,0.6c-0.3,0.4-0.5,0.7-0.8,1.1c-0.2,0.2-0.3,0.4-0.5,0.5
		c-0.5,0.5-0.8,1.1-1.2,1.6c-0.2,0.3-0.4,0.5-0.5,0.8c-0.1,0.1-0.1,0.2-0.2,0.3c-0.1,0.2-0.3,0.4-0.4,0.5s-0.1,0.2-0.2,0.3
		c-0.1,0.2-0.2,0.4-0.3,0.5c-0.1,0.1-0.2,0.3-0.2,0.4c-0.1,0.2-0.2,0.3-0.3,0.5c-0.1,0.1-0.1,0.3-0.2,0.4c-0.1,0.2-0.2,0.3-0.3,0.5
		c-0.1,0.1-0.1,0.3-0.2,0.4c-0.1,0.2-0.2,0.3-0.3,0.5c-0.1,0.1-0.1,0.3-0.2,0.4c-0.1,0.2-0.2,0.3-0.2,0.5c-0.1,0.1-0.1,0.3-0.2,0.4
		c-0.1,0.2-0.2,0.3-0.2,0.5c-0.1,0.1-0.1,0.3-0.2,0.4c-0.1,0.2-0.1,0.3-0.2,0.5c-0.1,0.1-0.1,0.3-0.2,0.4c-0.1,0.2-0.1,0.3-0.2,0.5
		c-0.1,0.1-0.1,0.3-0.2,0.4c-0.1,0.2-0.1,0.3-0.2,0.5c0,0.1-0.1,0.3-0.1,0.4c-0.1,0.2-0.1,0.3-0.2,0.5c0,0.1-0.1,0.2-0.1,0.4
		c-0.1,0.2-0.1,0.4-0.2,0.5c0,0.1-0.1,0.2-0.1,0.3c-0.1,0.2-0.1,0.4-0.2,0.5c0,0.1-0.1,0.2-0.1,0.3c-0.1,0.3-0.1,0.5-0.2,0.7
		c-0.1,0.3-0.1,0.5-0.2,0.8c0,0.1,0,0.2-0.1,0.3c0,0.2-0.1,0.4-0.1,0.5s0,0.2-0.1,0.3c0,0.2-0.1,0.3-0.1,0.5c0,0.1,0,0.2,0,0.4
		s0,0.3-0.1,0.5c0,0.1,0,0.2,0,0.4s0,0.3,0,0.5c0,0.1,0,0.2,0,0.4s0,0.3,0,0.5c0,0.1,0,0.3,0,0.4c0,0.2,0,0.3,0,0.5
		c0,0.1,0,0.3,0,0.4c0,0.2,0,0.3,0,0.5c0,0.1,0,0.2,0,0.4s0,0.3,0,0.5c0,0.1,0,0.2,0,0.4s0,0.3,0.1,0.5c0,0.1,0,0.2,0,0.4
		s0,0.3,0.1,0.5c0,0.1,0,0.2,0.1,0.4c0,0.2,0.1,0.3,0.1,0.5c0,0.1,0,0.2,0.1,0.3c0,0.2,0.1,0.3,0.1,0.5c0,0.1,0.1,0.2,0.1,0.3
		c0,0.2,0.1,0.3,0.1,0.5c0,0.1,0,0.2,0.1,0.3c0.1,0.2,0.2,0.5,0.2,0.6c0,0,0,0,0,0.1c0.1,0.2,0.1,0.3,0.2,0.5c0,0.1,0.1,0.2,0.1,0.3
		c0.1,0.3,0.2,0.5,0.3,0.7c-0.3-0.5-0.5-1.2-0.8-1.8l0.5-2.2c-0.4-0.7-0.7-1.5-1-2.2l-0.5-1.1c-0.1-0.3-0.3-0.5-0.4-0.8l-0.5-1.2
		c-0.4-0.8-0.7-1.6-1.2-2.5l-0.4-0.8c-0.2-0.4-0.4-0.7-0.5-1.1l-1.5-2.9c-0.1-0.3-0.3-0.5-0.4-0.7l-0.8-1.8
		c-0.1-0.3-0.2-0.5-0.3-0.7v-0.1c-0.1-0.2-0.2-0.4-0.3-0.6c-0.1-0.2-0.2-0.5-0.2-0.6s0-0.2-0.1-0.3c-0.1-0.2-0.1-0.3-0.1-0.5
		c0-0.1-0.1-0.2-0.1-0.3c0-0.2-0.1-0.3-0.1-0.5c0-0.1,0-0.2-0.1-0.3c0-0.2-0.1-0.3-0.1-0.5c0-0.1,0-0.2-0.1-0.4c0-0.2,0-0.3-0.1-0.5
		c0-0.1,0-0.2,0-0.4s0-0.3-0.1-0.5c0-0.1,0-0.2,0-0.4s0-0.3,0-0.5c0-0.1,0-0.2,0-0.4s0-0.3,0-0.5c0-0.1,0-0.2,0-0.4s0-0.3,0-0.5
		c0-0.1,0-0.3,0-0.4c0-0.2,0-0.3,0-0.5c0-0.1,0-0.2,0-0.4s0-0.3,0-0.5c0-0.1,0-0.2,0-0.4s0-0.3,0.1-0.5c0-0.1,0-0.2,0-0.4
		s0.1-0.3,0.1-0.5c0-0.1,0-0.2,0.1-0.3c0-0.2,0.1-0.4,0.1-0.5s0-0.2,0.1-0.3c0.1-0.3,0.1-0.5,0.2-0.8s0.1-0.5,0.2-0.7
		c0-0.1,0.1-0.2,0.1-0.3c0.1-0.2,0.1-0.4,0.2-0.5c0-0.1,0.1-0.2,0.1-0.3c0.1-0.2,0.1-0.4,0.2-0.5c0-0.1,0.1-0.2,0.1-0.4
		c0.1-0.2,0.1-0.3,0.2-0.5c0-0.1,0.1-0.3,0.1-0.4c0.1-0.2,0.1-0.3,0.2-0.5c0.1-0.1,0.1-0.3,0.2-0.4c0.1-0.2,0.1-0.3,0.2-0.5
		c0.1-0.1,0.1-0.3,0.2-0.4c0.1-0.2,0.1-0.3,0.2-0.5c0.1-0.1,0.1-0.3,0.2-0.4c0.1-0.2,0.2-0.3,0.2-0.5c0.1-0.1,0.1-0.3,0.2-0.4
		c0.1-0.2,0.2-0.3,0.2-0.5c0.1-0.1,0.1-0.3,0.2-0.4c0.1-0.2,0.2-0.3,0.3-0.5c0.1-0.1,0.1-0.3,0.2-0.4c0.1-0.2,0.2-0.3,0.3-0.5
		c0.1-0.1,0.1-0.3,0.2-0.4c0.1-0.2,0.2-0.3,0.3-0.5c0.1-0.1,0.1-0.3,0.2-0.4c0.1-0.2,0.2-0.4,0.3-0.5c0.1-0.1,0.1-0.2,0.2-0.3
		c0.1-0.2,0.3-0.4,0.4-0.5s0.1-0.2,0.2-0.3c0.2-0.3,0.4-0.5,0.5-0.8c0.4-0.5,0.8-1.1,1.2-1.6c0.2-0.2,0.3-0.4,0.5-0.5
		c0.3-0.4,0.5-0.7,0.8-1.1c0.2-0.2,0.4-0.5,0.5-0.6c0.3-0.4,0.5-0.6,0.8-1c0.2-0.2,0.5-0.5,0.6-0.6c0.3-0.3,0.5-0.5,0.8-0.8
		c0,0,0-0.1,0.1-0.1c0.1-0.1,0.2-0.2,0.2-0.2c0.4-0.4,0.8-0.8,1.2-1.2c0.2-0.2,0.3-0.3,0.5-0.5c0.4-0.4,0.8-0.7,1.2-1.2
		c0.1-0.1,0.2-0.2,0.3-0.3c0.5-0.4,0.9-0.8,1.4-1.2c0.1,0,0.1-0.1,0.2-0.1c0.6-0.5,1.2-1,1.8-1.5c0.1,0,0.1-0.1,0.2-0.1
		c0.6-0.5,1.4-1.1,2.1-1.6l0.1-0.1c0.3-0.2,0.5-0.4,0.7-0.5c0.4-0.3,0.7-0.5,1.2-0.8c0.3-0.2,0.6-0.5,0.9-0.6
		c0.4-0.3,0.7-0.5,1.2-0.8c0.1-0.1,0.2-0.1,0.3-0.2c0.3-0.2,0.5-0.4,0.8-0.5c0.4-0.2,0.6-0.5,1-0.6c0.4-0.3,0.7-0.5,1.1-0.6
		c0.4-0.2,0.7-0.5,1-0.6c0.1,0,0.2-0.1,0.2-0.1c0.3-0.2,0.6-0.4,1-0.5c0.4-0.2,0.7-0.4,1-0.5c0.4-0.2,0.8-0.5,1.3-0.6
		c0.4-0.2,0.7-0.4,1-0.5c0.1,0,0.1-0.1,0.2-0.1c0.6-0.4,1.4-0.6,2-1c0.5-0.2,1-0.5,1.5-0.6c0.2-0.1,0.3-0.2,0.5-0.2
		c0.3-0.1,0.5-0.3,0.9-0.4h0.1c0.8-0.4,1.5-0.6,2.4-0.9c0.2-0.1,0.3-0.1,0.5-0.2c0.7-0.3,1.5-0.5,2.3-0.8c0.1,0,0.1,0,0.2-0.1
		c0.2-0.1,0.3-0.1,0.5-0.2c0.3-0.1,0.5-0.2,0.8-0.3c0.3-0.1,0.5-0.2,0.7-0.3s0.5-0.2,0.8-0.3c0.3-0.1,0.5-0.2,0.7-0.2
		c0.3-0.1,0.5-0.2,0.8-0.3c0.3-0.1,0.5-0.1,0.7-0.2c0.3-0.1,0.5-0.2,0.8-0.3c0.2,0,0.3-0.1,0.5-0.1c0.1,0,0.1,0,0.2,0
		c0.7-0.2,1.5-0.4,2.2-0.5c0.1,0,0.3-0.1,0.4-0.1c0.7-0.2,1.5-0.4,2.2-0.5c0.7-0.2,1.5-0.3,2.2-0.4c0.1,0,0.3,0,0.4-0.1
		c0.7-0.1,1.4-0.2,2.1-0.3c0.1,0,0.1,0,0.2,0s0.2,0,0.4,0c0.4,0,0.7-0.1,1-0.1c0.2,0,0.4,0,0.5-0.1c0.4,0,0.7-0.1,1.1-0.1
		c0.2,0,0.3,0,0.5,0c0.5,0,1-0.1,1.5-0.1c0.1,0,0.2,0,0.3,0c0.5,0,0.8,0,1.3,0c0.2,0,0.4,0,0.5,0c0.4,0,0.6,0,1,0c0.2,0,0.4,0,0.5,0
		c0.4,0,0.6,0,1,0c0.2,0,0.4,0,0.5,0c0.5,0,0.8,0,1.3,0.1c0.1,0,0.1,0,0.2,0c0.5,0,0.9,0.1,1.4,0.1h0.1c0.3,0,0.5,0.1,0.8,0.1
		c0.1,0,0.2,0,0.2,0c0.4,0.1,0.7,0.1,1.1,0.2c0.1,0,0.2,0,0.3,0.1c0.3,0,0.5,0.1,0.8,0.2c0.1,0,0.3,0.1,0.4,0.1
		c0.3,0,0.5,0.1,0.7,0.2c0.2,0,0.3,0.1,0.5,0.1c0.2,0.1,0.5,0.1,0.6,0.2c0.2,0,0.3,0.1,0.5,0.1c0.2,0.1,0.5,0.1,0.6,0.2
		c0.1,0,0.2,0.1,0.3,0.1h0.1c0.4,0.1,0.7,0.2,1.1,0.4c0,0,0,0,0.1,0s0.3,0.1,0.4,0.1c0.3,0.1,0.5,0.2,0.8,0.3
		c0.2,0.1,0.3,0.1,0.5,0.2c0.3,0.1,0.5,0.2,0.7,0.3c0.2,0.1,0.3,0.1,0.5,0.2s0.5,0.2,0.6,0.3c0.2,0.1,0.3,0.2,0.5,0.2
		c0.1,0.1,0.2,0.1,0.3,0.2c0.1,0.1,0.3,0.1,0.4,0.2s0.2,0.1,0.3,0.2c0.3,0.2,0.6,0.4,0.9,0.5c0,0,0,0,0.1,0c0.3,0.2,0.6,0.4,0.9,0.5
		c0.1,0.1,0.2,0.1,0.3,0.2s0.3,0.2,0.4,0.3c0.1,0.1,0.2,0.2,0.3,0.3s0.2,0.1,0.2,0.2c0.3,0.2,0.5,0.5,0.8,0.6c0.1,0,0.1,0.1,0.1,0.1
		c0.2,0.2,0.5,0.4,0.6,0.5s0.1,0.1,0.2,0.2c0.1,0,0.1,0.1,0.2,0.1c0.2,0.2,0.4,0.4,0.5,0.5l0.1,0.1c0.2,0.2,0.4,0.5,0.5,0.6
		s0.1,0.1,0.2,0.2c0.2,0.3,0.4,0.5,0.5,0.7c0,0,0,0.1,0.1,0.1c0,0.1,0.1,0.1,0.1,0.2c0.2,0.3,0.4,0.5,0.5,0.7c0,0.1,0.1,0.1,0.1,0.2
		c0.2,0.3,0.4,0.5,0.5,0.8c0,0.1,0.1,0.1,0.1,0.2c0.1,0.1,0.1,0.3,0.2,0.4c0.1,0.2,0.2,0.4,0.3,0.5l7.9,16.9
		c-0.2-0.3-0.3-0.6-0.5-0.9C514.2,148.6,514.1,148.6,514.1,148.5z"/>
	<path class="st1" d="M402.7,182c0.1,0.3,0.3,0.5,0.5,0.8c0,0,0,0.1,0.1,0.1c0.1,0.2,0.3,0.5,0.4,0.6s0.1,0.2,0.2,0.3
		c0.1,0.2,0.2,0.4,0.3,0.5c0.1,0.1,0.1,0.2,0.2,0.3c0.1,0.2,0.2,0.3,0.3,0.5c0.1,0.1,0.2,0.2,0.2,0.3c0.1,0.2,0.2,0.3,0.3,0.5
		c0.1,0.1,0.2,0.2,0.3,0.3c0.1,0.1,0.2,0.3,0.4,0.4c0.1,0.1,0.2,0.2,0.3,0.3s0.3,0.3,0.4,0.4c0.1,0.1,0.2,0.2,0.3,0.3
		c0.1,0.2,0.3,0.3,0.4,0.4c0.1,0.1,0.2,0.2,0.3,0.3c0.2,0.2,0.5,0.5,0.6,0.6c0.3,0.2,0.5,0.5,0.7,0.6c0.1,0.1,0.2,0.1,0.3,0.2
		c0.2,0.1,0.4,0.3,0.5,0.4c0.1,0.1,0.2,0.2,0.3,0.2c0.2,0.1,0.3,0.3,0.5,0.4c0.1,0.1,0.2,0.2,0.3,0.2c0.2,0.2,0.4,0.3,0.6,0.5
		c0.1,0.1,0.2,0.1,0.3,0.2c0.3,0.2,0.5,0.4,0.9,0.5l0.1,0.1c0.3,0.2,0.5,0.3,0.8,0.5c0.1,0.1,0.2,0.1,0.3,0.2
		c0.2,0.1,0.5,0.3,0.6,0.4c0.1,0.1,0.2,0.1,0.3,0.2c0.4,0.2,0.7,0.4,1.1,0.5c0.1,0,0.1,0.1,0.2,0.1c0.4,0.2,0.7,0.3,1,0.5
		c0.1,0,0.2,0.1,0.3,0.1c0.4,0.2,0.8,0.3,1.2,0.5c0.1,0,0.2,0.1,0.3,0.1c0.4,0.1,0.7,0.3,1.1,0.4c0.1,0,0.2,0.1,0.2,0.1
		c0.5,0.1,0.8,0.3,1.3,0.4c0.1,0,0.2,0.1,0.3,0.1c0.4,0.1,0.8,0.2,1.2,0.4c0.1,0,0.1,0,0.2,0c0.5,0.1,0.9,0.2,1.4,0.3
		c0.1,0,0.2,0,0.4,0.1c0.5,0.1,0.9,0.2,1.4,0.3s1.1,0.2,1.6,0.3c0.1,0,0.3,0,0.4,0.1c0.5,0.1,1.1,0.2,1.6,0.2c0.1,0,0.2,0,0.4,0
		c0.4,0,0.7,0.1,1,0.1c0.2,0,0.4,0,0.5,0c0.3,0,0.6,0.1,0.9,0.1c0.2,0,0.4,0,0.5,0c0.4,0,0.6,0,1,0.1c0.2,0,0.3,0,0.5,0
		c0.5,0,0.9,0,1.5,0c0.8,0,1.6,0,2.5,0c0.3,0,0.5,0,0.8,0c0.5,0,1.1,0,1.6-0.1c0.4,0,0.6,0,1-0.1c0.5,0,1-0.1,1.5-0.1
		c0.4,0,0.7-0.1,1.1-0.1c0.5-0.1,1-0.1,1.5-0.2c0.4,0,0.7-0.1,1.1-0.2c0.5-0.1,1.2-0.2,1.7-0.3c0.4-0.1,0.7-0.1,1-0.2
		c0.6-0.1,1.3-0.2,1.8-0.4c0.3-0.1,0.6-0.1,0.9-0.2c0.8-0.2,1.6-0.4,2.5-0.5c0.1,0,0.2-0.1,0.4-0.1c0.9-0.2,1.9-0.5,2.8-0.7
		c0.7-0.2,1.5-0.4,2.3-0.6c0.2,0,0.3-0.1,0.5-0.2c0.6-0.2,1.3-0.4,1.9-0.5c0.3-0.1,0.5-0.2,0.7-0.3c0.6-0.2,1.2-0.4,1.8-0.6
		c0.2-0.1,0.5-0.2,0.6-0.2c0.7-0.3,1.5-0.5,2.3-0.8c0.2-0.1,0.4-0.1,0.5-0.2c0.7-0.3,1.5-0.5,2.2-0.8c0.1,0,0.2-0.1,0.2-0.1
		c0.7-0.3,1.5-0.6,2.3-1c0.2-0.1,0.4-0.2,0.5-0.3c0.8-0.4,1.5-0.7,2.4-1.1c0.9-0.5,1.8-0.9,2.7-1.4c0.5-0.2,0.9-0.5,1.4-0.6
		c0.5-0.3,1-0.5,1.5-0.8s0.9-0.5,1.3-0.7c0.5-0.3,1-0.5,1.5-0.8s0.9-0.5,1.3-0.7c0.5-0.3,0.9-0.5,1.4-0.8s0.8-0.5,1.3-0.8
		s0.9-0.5,1.4-0.8c0.5-0.4,1-0.6,1.5-1c0.4-0.3,0.8-0.5,1.2-0.8c0.5-0.4,1-0.7,1.5-1c0.4-0.3,0.7-0.5,1.1-0.8
		c0.1-0.1,0.2-0.2,0.4-0.3c0.7-0.5,1.4-1.1,2.1-1.6l0.1-0.1c0.7-0.5,1.4-1.1,2-1.6c0.1-0.1,0.3-0.2,0.4-0.3c0.6-0.5,1.3-1.2,1.9-1.7
		c0.1-0.1,0.2-0.2,0.4-0.3c0.5-0.5,1-1,1.5-1.5c0.2-0.2,0.4-0.4,0.5-0.5c0.5-0.5,1-1,1.5-1.5c0.1-0.1,0.2-0.2,0.3-0.3
		c0.4-0.4,0.7-0.7,1.1-1.2c0.3-0.3,0.5-0.5,0.8-0.8c0.4-0.4,0.7-0.8,1-1.2c0.2-0.3,0.5-0.5,0.7-0.8c0.4-0.5,0.7-0.9,1.1-1.4
		c0.2-0.2,0.4-0.5,0.5-0.6c0.5-0.6,1-1.4,1.5-2c7.7-11,10.3-22.4,6-31.7l7.9,16.9c4.3,9.4,1.6,20.7-6,31.7c-0.5,0.6-1,1.4-1.5,2
		c-0.2,0.2-0.4,0.5-0.5,0.6c-0.4,0.5-0.7,0.9-1.1,1.4c-0.2,0.3-0.5,0.5-0.6,0.8c-0.4,0.4-0.6,0.8-1,1.2c-0.3,0.3-0.5,0.5-0.8,0.8
		c-0.4,0.4-0.6,0.7-1,1.1l-0.1,0.1c-0.1,0.1-0.2,0.2-0.3,0.3c-0.5,0.5-1,1-1.5,1.5c-0.2,0.2-0.4,0.4-0.5,0.5c-0.5,0.5-1,1-1.5,1.5
		c-0.1,0.1-0.2,0.2-0.4,0.3c-0.5,0.5-1.1,1-1.6,1.5c-0.1,0.1-0.2,0.2-0.3,0.3s-0.3,0.2-0.4,0.3c-0.6,0.5-1.4,1.1-2,1.6l-0.1,0.1
		c-0.6,0.5-1.4,1.1-2.1,1.6c-0.1,0.1-0.2,0.2-0.4,0.3c-0.1,0.1-0.2,0.1-0.2,0.2c-0.3,0.2-0.6,0.5-0.9,0.6c-0.5,0.4-0.9,0.7-1.5,1
		c-0.4,0.3-0.7,0.5-1.2,0.8c-0.5,0.4-1,0.6-1.5,1c-0.1,0.1-0.2,0.1-0.3,0.2c-0.4,0.2-0.7,0.5-1.1,0.6c-0.5,0.3-0.8,0.5-1.3,0.8
		s-0.9,0.5-1.4,0.8s-0.9,0.5-1.3,0.7c-0.1,0.1-0.2,0.1-0.3,0.2c-0.4,0.2-0.8,0.5-1.2,0.6c-0.5,0.3-0.8,0.5-1.3,0.7
		c-0.5,0.3-1,0.5-1.5,0.8c-0.5,0.2-0.9,0.5-1.4,0.6c-0.1,0-0.2,0.1-0.2,0.1c-0.8,0.5-1.7,0.8-2.5,1.2s-1.5,0.7-2.4,1.1
		c-0.2,0.1-0.4,0.2-0.5,0.3c-0.2,0.1-0.4,0.2-0.5,0.3c-0.5,0.3-1.2,0.5-1.7,0.7c-0.1,0-0.2,0.1-0.2,0.1c-0.7,0.3-1.5,0.5-2.2,0.8
		c-0.2,0.1-0.4,0.1-0.5,0.2c-0.6,0.3-1.4,0.5-2,0.7c-0.1,0-0.2,0.1-0.3,0.1c-0.2,0.1-0.5,0.2-0.6,0.2c-0.6,0.2-1.2,0.4-1.8,0.6
		c-0.3,0.1-0.5,0.2-0.7,0.3c-0.6,0.2-1.3,0.4-1.9,0.5c-0.2,0.1-0.3,0.1-0.5,0.2c-0.7,0.2-1.4,0.4-2.1,0.5c-0.1,0-0.1,0-0.2,0
		c-0.9,0.3-1.9,0.5-2.8,0.7c-0.1,0-0.2,0.1-0.4,0.1c-0.8,0.2-1.6,0.4-2.5,0.5c-0.3,0.1-0.6,0.1-0.9,0.2c-0.6,0.1-1.3,0.3-1.8,0.4
		c-0.4,0.1-0.7,0.1-1,0.2c-0.5,0.1-1.2,0.2-1.7,0.3c-0.2,0-0.4,0.1-0.6,0.1s-0.3,0-0.5,0.1c-0.5,0.1-1,0.1-1.5,0.2
		c-0.4,0-0.7,0.1-1.1,0.1c-0.5,0.1-1,0.1-1.5,0.1c-0.4,0-0.6,0.1-1,0.1c-0.5,0-1.1,0.1-1.6,0.1c-0.3,0-0.5,0-0.8,0
		c-0.8,0-1.6,0-2.5,0c-0.5,0-0.9,0-1.5,0c-0.2,0-0.3,0-0.5,0c-0.4,0-0.6,0-1-0.1c-0.2,0-0.4,0-0.5,0c-0.3,0-0.6,0-0.9-0.1
		c-0.2,0-0.4,0-0.5,0c-0.4,0-0.7-0.1-1-0.1c-0.1,0-0.2,0-0.3,0c0,0,0,0-0.1,0c-0.5-0.1-1.1-0.1-1.6-0.2c-0.1,0-0.3,0-0.4-0.1
		c-0.5-0.1-1.1-0.2-1.6-0.3s-0.9-0.2-1.4-0.3c-0.1,0-0.2,0-0.4-0.1c-0.2-0.1-0.5-0.1-0.6-0.2l5.3,11.2l-9.7-0.9l-6.9-14.8
		c-0.2-0.1-0.5-0.3-0.6-0.4c-0.1-0.1-0.2-0.1-0.3-0.2c-0.2-0.2-0.5-0.3-0.6-0.5c-0.1,0-0.1-0.1-0.2-0.1s-0.1-0.1-0.2-0.1
		c-0.2-0.1-0.4-0.3-0.5-0.4s-0.2-0.2-0.3-0.2c-0.2-0.1-0.4-0.3-0.5-0.4s-0.2-0.1-0.3-0.2c-0.3-0.2-0.5-0.4-0.7-0.6
		c-0.2-0.2-0.5-0.4-0.6-0.6c0,0,0,0-0.1-0.1s-0.1-0.1-0.2-0.2c-0.1-0.1-0.3-0.3-0.4-0.4c-0.1-0.1-0.2-0.2-0.3-0.3
		c-0.1-0.1-0.3-0.3-0.4-0.4c-0.1-0.1-0.2-0.2-0.3-0.3c-0.1-0.1-0.2-0.3-0.4-0.4c-0.1-0.1-0.2-0.2-0.3-0.3c-0.1-0.1-0.2-0.3-0.3-0.5
		c-0.1-0.1-0.1-0.1-0.2-0.2l-0.1-0.1c-0.1-0.2-0.2-0.3-0.3-0.5c-0.1-0.1-0.1-0.2-0.2-0.3c-0.1-0.2-0.2-0.4-0.3-0.5s-0.1-0.2-0.2-0.3
		c-0.1-0.2-0.3-0.5-0.4-0.6c0,0,0-0.1-0.1-0.1c-0.2-0.3-0.3-0.5-0.5-0.8c-0.1-0.3-0.2-0.5-0.4-0.7l-7.9-16.9
		C402.4,181.5,402.5,181.8,402.7,182z"/>
	<path class="st4" d="M402.3,181.4c-4.3-9.4-1.6-20.7,6-31.7c7.7-11,20.4-21.5,36.5-29c32.1-15,64.9-12,73.5,6.6
		c4.3,9.4,1.6,20.7-6,31.7c-7.7,11-20.4,21.5-36.5,29c-14.1,6.5-28.3,9.7-40.6,9.5c-3.4,0-6.6-0.4-9.7-0.9
		C414.5,194.6,406.1,189.5,402.3,181.4z M472.7,181.2c12.8-6,23-14.4,29.2-23.2s8.3-18,4.8-25.3c-6.8-14.9-33.2-17.3-58.8-5.3
		c-12.8,6-23,14.4-29.2,23.2s-8.3,18-4.8,25.3C420.8,190.8,447,193.2,472.7,181.2z"/>
	<path class="st1" d="M428.3,207.3l8,16.9l6.8-9.7l-7.9-17L428.3,207.3z"/>
	<path class="st4" d="M418.7,206.4l9.7,0.9l6.8-9.8c-3.4,0-6.6-0.4-9.7-0.9L418.7,206.4z"/>
	<path class="st1" d="M374.5,263.8c0,0.1,0.1,0.2,0.2,0.3c0,0.1,0.1,0.1,0.1,0.2s0.1,0.1,0.1,0.2s0.1,0.1,0.1,0.2s0.1,0.1,0.2,0.2
		c0,0.1,0.1,0.1,0.1,0.2c0.1,0.1,0.1,0.1,0.2,0.2c0,0.1,0.1,0.1,0.1,0.2c0.1,0.1,0.1,0.1,0.2,0.2s0.1,0.1,0.2,0.2s0.1,0.1,0.2,0.2
		s0.1,0.1,0.2,0.2c0.1,0,0.1,0.1,0.2,0.1c0.1,0.1,0.2,0.1,0.3,0.2c0.1,0,0.1,0.1,0.2,0.1c0.1,0.1,0.2,0.1,0.3,0.2
		c0.1,0,0.1,0.1,0.2,0.1c0.2,0.1,0.3,0.2,0.5,0.2c0,0,0.1,0,0.1,0.1c0.2,0.1,0.4,0.2,0.5,0.2s0.2,0,0.2,0.1c0.1,0,0.2,0.1,0.4,0.1
		c0.1,0,0.2,0,0.3,0.1c0.1,0,0.2,0.1,0.4,0.1c0.1,0,0.2,0,0.3,0.1c0.1,0,0.2,0,0.4,0.1c0.1,0,0.2,0,0.3,0c0.1,0,0.3,0,0.4,0
		s0.2,0,0.3,0c0.3,0,0.5,0.1,0.8,0.1c0.1,0,0.1,0,0.2,0c0.3,0,0.5,0,0.7,0c0.1,0,0.1,0,0.2,0c0.3,0,0.5,0,0.9,0c0.1,0,0.1,0,0.2,0
		c0.3,0,0.5-0.1,0.8-0.1h0.1c0.5-0.1,0.9-0.1,1.4-0.2s0.9-0.2,1.5-0.4c0.1,0,0.1,0,0.2,0c0.2-0.1,0.5-0.1,0.6-0.2
		c0.1,0,0.2-0.1,0.3-0.1c0.2-0.1,0.4-0.1,0.6-0.2c0.1,0,0.2-0.1,0.2-0.1c0.5-0.2,0.9-0.4,1.4-0.5h0.1c0.3-0.1,0.5-0.2,0.7-0.4
		c0.4-0.2,0.7-0.4,1-0.5c0.2-0.1,0.5-0.2,0.6-0.4c0.3-0.1,0.5-0.3,0.7-0.4s0.5-0.3,0.6-0.4c0.2-0.1,0.5-0.3,0.6-0.5
		c0.2-0.2,0.5-0.3,0.6-0.5c0.3-0.3,0.6-0.5,0.9-0.7c0,0,0,0,0.1-0.1c0.3-0.3,0.6-0.5,0.9-0.7c0.1-0.1,0.2-0.2,0.3-0.3
		c0.3-0.3,0.6-0.5,0.9-0.9c0.2-0.2,0.4-0.5,0.6-0.6c0.1-0.1,0.2-0.3,0.3-0.4c0.3-0.4,0.5-0.7,0.8-1.1l30.7-47.6
		c0.5-0.8,0.7-1.5,0.5-2.1l7.9,16.9c0.3,0.5,0.2,1.3-0.5,2.1L409,275.2c-0.3,0.4-0.5,0.7-0.8,1.1c-0.1,0.1-0.2,0.3-0.3,0.4
		c-0.2,0.2-0.4,0.5-0.6,0.6c-0.3,0.3-0.5,0.5-0.9,0.8c-0.1,0.1-0.2,0.2-0.3,0.3c-0.1,0.1-0.2,0.2-0.4,0.3c-0.2,0.2-0.4,0.3-0.5,0.5
		c0,0,0,0-0.1,0.1c-0.2,0.2-0.5,0.4-0.7,0.5c-0.1,0.1-0.2,0.1-0.3,0.2c-0.2,0.2-0.5,0.3-0.6,0.5c-0.1,0.1-0.3,0.2-0.4,0.3
		c-0.1,0.1-0.2,0.1-0.3,0.2c-0.2,0.1-0.4,0.3-0.6,0.4s-0.3,0.2-0.4,0.3c-0.1,0.1-0.2,0.1-0.3,0.2c-0.2,0.1-0.5,0.3-0.6,0.4
		c-0.2,0.1-0.3,0.2-0.5,0.2c-0.2,0.1-0.4,0.2-0.6,0.3c-0.3,0.1-0.5,0.2-0.7,0.4c0,0,0,0-0.1,0c-0.5,0.2-0.9,0.4-1.4,0.5
		c0,0,0,0-0.1,0s-0.1,0-0.2,0.1c-0.2,0.1-0.4,0.1-0.6,0.2c-0.1,0-0.2,0.1-0.3,0.1c-0.2,0.1-0.5,0.1-0.6,0.2h-0.1
		c-0.5,0.1-0.9,0.3-1.5,0.4c-0.5,0.1-0.9,0.2-1.4,0.2h-0.1c-0.3,0-0.5,0.1-0.8,0.1c-0.1,0-0.1,0-0.2,0c-0.3,0-0.5,0-0.9,0
		c-0.1,0-0.1,0-0.2,0c-0.3,0-0.5,0-0.7,0c-0.1,0-0.1,0-0.2,0c-0.3,0-0.5,0-0.8-0.1h-0.1c-0.1,0-0.1,0-0.2,0s-0.3,0-0.4,0
		s-0.2,0-0.3,0s-0.2,0-0.4-0.1c-0.1,0-0.2,0-0.3-0.1c-0.1,0-0.2-0.1-0.4-0.1c-0.1,0-0.2,0-0.3-0.1c-0.1,0-0.2-0.1-0.4-0.1
		c-0.1,0-0.1,0-0.2-0.1c-0.2-0.1-0.4-0.1-0.5-0.2c0,0-0.1,0-0.1-0.1c-0.2-0.1-0.3-0.1-0.5-0.2h-0.1c0,0-0.1,0-0.1-0.1
		c-0.1-0.1-0.2-0.1-0.3-0.2c-0.1,0-0.1-0.1-0.2-0.1c-0.1-0.1-0.2-0.1-0.3-0.2l-0.1-0.1c-0.1-0.1-0.1-0.1-0.2-0.2s-0.1-0.1-0.2-0.2
		s-0.1-0.1-0.2-0.2l-0.1-0.1c-0.1-0.1-0.1-0.1-0.1-0.2c-0.1-0.1-0.1-0.1-0.2-0.2c0-0.1-0.1-0.1-0.1-0.2l-0.1-0.1c0,0,0,0,0-0.1
		s-0.1-0.1-0.1-0.2s-0.1-0.1-0.1-0.2s-0.1-0.1-0.1-0.2l-0.1-0.1c0-0.1-0.1-0.1-0.1-0.2L374.5,263.8z"/>
	<path class="st2" d="M375.7,256.8c-1.7,2.5-2.1,5.2-1.3,7c2,4.3,10.1,5.8,17.4,2.4c3.9-1.8,7.1-4.9,9.1-7.7l30.9-47.7
		c1.1-1.6-0.1-3.2-2.1-3.4l-12.7-1.2c-2-0.2-4.3,0.9-5.5,2.5L376.1,256C376,256.4,375.9,256.6,375.7,256.8z"/>
	<path class="st2" d="M429.9,207.4l-12.7-1.2c-2-0.2-4.3,0.9-5.5,2.5L376.2,256c-0.2,0.2-0.3,0.4-0.5,0.5c-1.7,2.5-2.1,5.2-1.3,7"/>
	<path class="st3" d="M429.9,207.4l-12.7-1.2c-2-0.2-4.3,0.9-5.5,2.5L376.2,256c-0.2,0.2-0.3,0.4-0.5,0.5c-1.7,2.5-2.1,5.2-1.3,7"/>
</g>
<g id="_x36_">
	<path class="st1" d="M87.8,248.1c-0.1,0.1-0.2,0.1-0.3,0.2c-0.1,0-0.2,0.1-0.3,0.1s-0.2,0.1-0.3,0.1s-0.2,0.1-0.3,0.1
		s-0.2,0.1-0.3,0.1c-0.1,0-0.2,0.1-0.3,0.1c-0.1,0-0.2,0.1-0.4,0.1c-0.1,0-0.2,0-0.3,0.1c-0.1,0-0.3,0-0.4,0s-0.2,0-0.3,0
		s-0.3,0-0.4,0s-0.3,0-0.4,0h-0.1c-0.2,0-0.4,0-0.6,0H83c-0.2,0-0.4,0-0.7-0.1h-0.1c-0.2,0-0.4-0.1-0.6-0.1c-0.1,0-0.1,0-0.2,0
		c-0.2-0.1-0.5-0.1-0.7-0.2h-0.1c-0.2-0.1-0.4-0.1-0.5-0.2c-0.1,0-0.3-0.1-0.4-0.1s-0.3-0.1-0.4-0.1c-0.1-0.1-0.3-0.1-0.4-0.2
		c-0.1-0.1-0.3-0.1-0.4-0.2c-0.1-0.1-0.3-0.1-0.4-0.2c-0.1-0.1-0.3-0.1-0.4-0.2c-0.2-0.1-0.3-0.2-0.5-0.2c-0.2-0.1-0.4-0.2-0.6-0.3
		c-0.4-0.2-0.7-0.4-1.1-0.7c-0.1-0.1-0.2-0.1-0.3-0.2c-0.3-0.2-0.5-0.4-0.8-0.6c-0.1-0.1-0.2-0.1-0.3-0.2c-0.3-0.3-0.7-0.5-1-0.8
		c-0.1,0-0.1-0.1-0.2-0.1c-0.3-0.2-0.6-0.5-0.8-0.7c-0.1-0.1-0.2-0.2-0.3-0.3c-0.1-0.1-0.3-0.3-0.4-0.4c-0.1-0.1-0.2-0.2-0.4-0.4
		c-0.1-0.1-0.3-0.3-0.4-0.4c-0.1-0.1-0.2-0.2-0.4-0.4c-0.1-0.1-0.3-0.3-0.4-0.5c-0.1-0.1-0.2-0.3-0.3-0.4c-0.1-0.2-0.3-0.3-0.4-0.5
		c-0.1-0.1-0.2-0.2-0.3-0.4c-0.3-0.3-0.6-0.7-0.9-1.1c0,0-0.1-0.1-0.1-0.2c-0.2-0.3-0.5-0.6-0.7-1c-0.1-0.1-0.2-0.2-0.3-0.4
		s-0.3-0.4-0.4-0.6c-0.1-0.1-0.2-0.3-0.3-0.4c-0.1-0.2-0.3-0.4-0.4-0.7c-0.1-0.1-0.2-0.3-0.2-0.4c-0.1-0.2-0.2-0.4-0.4-0.6
		c-0.1-0.1-0.2-0.3-0.2-0.4c-0.1-0.2-0.2-0.4-0.4-0.6c-0.1-0.1-0.1-0.3-0.2-0.4c-0.1-0.2-0.2-0.4-0.3-0.6c-0.1-0.1-0.1-0.3-0.2-0.4
		c-0.1-0.2-0.2-0.4-0.3-0.7c-0.1-0.1-0.1-0.2-0.2-0.4c-0.1-0.3-0.2-0.5-0.4-0.8c0-0.1-0.1-0.2-0.1-0.2c-0.2-0.4-0.3-0.7-0.4-1.1
		c0-0.1,0-0.1-0.1-0.2c-0.1-0.3-0.2-0.6-0.4-0.9c0-0.1-0.1-0.3-0.1-0.4c-0.1-0.2-0.2-0.5-0.2-0.7c0-0.1-0.1-0.2-0.1-0.4
		c-0.1-0.3-0.2-0.5-0.2-0.8c0-0.1-0.1-0.3-0.1-0.4c-0.1-0.2-0.1-0.5-0.2-0.7c0-0.1-0.1-0.3-0.1-0.4c-0.1-0.4-0.2-0.8-0.3-1.1
		c0-0.1,0-0.1,0-0.2c-0.1-0.4-0.2-0.9-0.2-1.3c0-0.2-0.1-0.4-0.1-0.5s0-0.3-0.1-0.4c0-0.2,0-0.4-0.1-0.6c0-0.1,0-0.3,0-0.4
		c0-0.2,0-0.4,0-0.7c0-0.1,0-0.2,0-0.3c0-0.3,0-0.7,0-1c0-5.2,1.8-8.9,4.9-10.7l-11.8,6.8c-3,1.7-4.9,5.4-4.9,10.7c0,0.3,0,0.6,0,1
		c0,0.1,0,0.2,0,0.3c0,0.2,0,0.4,0,0.7c0,0.1,0,0.3,0,0.4c0,0.2,0,0.4,0.1,0.6c0,0.1,0,0.3,0.1,0.4c0,0.1,0,0.3,0.1,0.4v0.1
		c0.1,0.4,0.1,0.9,0.2,1.3c0,0.1,0,0.1,0,0.2c0.1,0.4,0.2,0.8,0.3,1.1c0,0.1,0,0.1,0,0.2c0,0.1,0,0.1,0.1,0.2
		c0.1,0.2,0.1,0.5,0.2,0.7c0,0.1,0.1,0.3,0.1,0.4c0.1,0.3,0.2,0.5,0.2,0.8c0,0.1,0.1,0.2,0.1,0.3v0.1c0.1,0.2,0.2,0.5,0.2,0.7
		c0,0.1,0.1,0.3,0.1,0.4c0.1,0.3,0.2,0.6,0.4,0.9c0,0.1,0,0.1,0.1,0.2c0.1,0.4,0.3,0.7,0.4,1.1c0,0.1,0.1,0.2,0.1,0.2
		c0.1,0.3,0.2,0.5,0.4,0.8c0.1,0.1,0.1,0.2,0.2,0.4c0.1,0.2,0.2,0.4,0.3,0.7c0.1,0.1,0.1,0.3,0.2,0.4c0.1,0.2,0.2,0.4,0.3,0.6
		c0.1,0.1,0.1,0.2,0.2,0.3c0.1,0.2,0.2,0.4,0.4,0.6c0.1,0.1,0.2,0.3,0.2,0.4c0.1,0.2,0.2,0.4,0.4,0.6c0,0,0,0.1,0.1,0.1
		c0.1,0.1,0.1,0.2,0.2,0.3c0.1,0.2,0.3,0.5,0.4,0.7c0.1,0.1,0.2,0.3,0.3,0.4c0.1,0.2,0.3,0.4,0.4,0.6c0.1,0.1,0.1,0.1,0.2,0.2
		c0,0.1,0.1,0.1,0.1,0.1c0.2,0.3,0.5,0.6,0.7,1c0,0.1,0.1,0.1,0.1,0.2c0.3,0.4,0.6,0.7,0.9,1.1l0.1,0.1c0.1,0.1,0.2,0.2,0.2,0.3
		c0.1,0.2,0.3,0.3,0.4,0.5c0.1,0.1,0.2,0.3,0.3,0.4c0.1,0.2,0.3,0.3,0.4,0.5c0.1,0.1,0.2,0.2,0.4,0.4c0.1,0.1,0.3,0.3,0.4,0.4
		c0.1,0.1,0.2,0.2,0.4,0.4c0.1,0.1,0.3,0.3,0.4,0.4c0.1,0.1,0.1,0.1,0.2,0.2l0.1,0.1c0.3,0.2,0.6,0.5,0.8,0.7c0.1,0,0.1,0.1,0.2,0.1
		c0.3,0.3,0.7,0.5,1,0.8c0.1,0.1,0.2,0.1,0.3,0.2c0.3,0.2,0.5,0.4,0.8,0.6c0.1,0.1,0.2,0.1,0.3,0.2c0.4,0.2,0.7,0.4,1.1,0.7
		c0.1,0.1,0.2,0.1,0.3,0.2c0.1,0.1,0.2,0.1,0.3,0.1c0.2,0.1,0.3,0.2,0.5,0.2c0.1,0.1,0.3,0.1,0.4,0.2c0.1,0.1,0.3,0.1,0.4,0.2
		c0.1,0.1,0.3,0.1,0.4,0.2c0.1,0.1,0.3,0.1,0.4,0.2c0.1,0.1,0.3,0.1,0.4,0.1c0.1,0.1,0.3,0.1,0.4,0.1s0.1,0,0.2,0.1
		c0.1,0,0.2,0.1,0.4,0.1h0.1c0.2,0.1,0.5,0.1,0.7,0.2c0.1,0,0.1,0,0.2,0c0.2,0,0.4,0.1,0.6,0.1h0.1c0,0,0,0,0.1,0
		c0.2,0,0.4,0.1,0.6,0.1h0.1c0.2,0,0.4,0,0.6,0h0.1c0.1,0,0.2,0,0.2,0c0.1,0,0.1,0,0.2,0s0.3,0,0.4,0s0.2,0,0.3,0c0.1,0,0.3,0,0.4,0
		s0.1,0,0.2,0s0.1,0,0.2,0s0.2,0,0.4-0.1c0.1,0,0.2,0,0.3-0.1c0.1,0,0.2-0.1,0.3-0.1s0.1,0,0.2-0.1h0.1c0.1,0,0.2-0.1,0.3-0.1
		s0.2-0.1,0.3-0.1s0.2-0.1,0.3-0.2c0.1,0,0.1-0.1,0.2-0.1s0.1-0.1,0.2-0.1l11.8-6.8C88,248,87.9,248,87.8,248.1z"/>
	<path class="st3" d="M63.7,208.9c3-2.8,7.7-3,12.9,0c9,5.1,16.3,17.9,16.3,28.2c0,6.1-2.5,10.1-6.4,11.4"/>
</g>
<g id="_x35_">
	<path class="st2" d="M26.6,201.4c1.5-1.7,1.5-4.5-0.5-7.4c-3.2-4.9-10.6-8.6-16.4-8.2c-3.4,0.2-5.5,1.7-6.1,4l-1.3,3.8l5.6,8.5
		l6.7,3.9l7.1-1.2l3.6-1.5L26.6,201.4z"/>
	<path class="st1" d="M27.1,200.8c0,0.1-0.1,0.1-0.1,0.2l-0.1,0.1c0,0.1-0.1,0.1-0.1,0.2l-0.1,0.1c0,0.1-0.1,0.1-0.1,0.2l-0.1,0.1
		l-0.1,0.1l-0.1,0.1c-0.1,0-0.1,0.1-0.2,0.1H26c-0.1,0-0.1,0.1-0.2,0.1s-0.1,0.1-0.2,0.1c-0.1,0.1-0.2,0.1-0.3,0.2c0,0,0,0-0.1,0
		c-0.1,0.1-0.2,0.1-0.3,0.2c0,0,0,0-0.1,0s-0.2,0.1-0.3,0.1h-0.1c-0.1,0-0.3,0.1-0.4,0.1c0,0,0,0-0.1,0s-0.2,0.1-0.3,0.1
		s-0.2,0-0.2,0.1c-0.1,0-0.2,0-0.2,0.1c-0.1,0-0.2,0-0.3,0.1c-0.1,0-0.2,0-0.2,0c-0.1,0-0.2,0-0.3,0s-0.2,0-0.3,0
		c-0.1,0-0.2,0-0.3,0s-0.2,0-0.4,0s-0.5,0-0.7,0c-0.1,0-0.1,0-0.2,0c-0.2,0-0.4,0-0.5,0s-0.1,0-0.2,0c-0.2,0-0.5,0-0.7-0.1H19
		c-0.2,0-0.4,0-0.6-0.1c-0.1,0-0.2,0-0.3,0s-0.2,0-0.3-0.1c-0.1,0-0.2,0-0.3-0.1c-0.1,0-0.2,0-0.3-0.1c-0.1,0-0.2,0-0.3-0.1
		c-0.1,0-0.2-0.1-0.3-0.1s-0.2,0-0.3-0.1c-0.1,0-0.2-0.1-0.3-0.1s-0.2-0.1-0.3-0.1c-0.2-0.1-0.5-0.2-0.7-0.2h-0.1
		c-0.2-0.1-0.4-0.2-0.6-0.2c-0.1,0-0.2-0.1-0.2-0.1c-0.1-0.1-0.3-0.1-0.4-0.2c-0.1,0-0.2-0.1-0.3-0.1c-0.1-0.1-0.3-0.1-0.4-0.2
		c-0.1,0-0.2-0.1-0.2-0.1c-0.1-0.1-0.2-0.1-0.4-0.2c-0.1,0-0.2-0.1-0.2-0.1c-0.1-0.1-0.2-0.1-0.4-0.2c-0.1,0-0.1-0.1-0.2-0.1
		c-0.1-0.1-0.2-0.1-0.3-0.2c-0.1,0-0.2-0.1-0.2-0.1c-0.1-0.1-0.2-0.1-0.4-0.2c-0.1,0-0.1-0.1-0.2-0.1c-0.1-0.1-0.3-0.2-0.4-0.3
		l-0.1-0.1c-0.2-0.1-0.4-0.2-0.5-0.4c0,0-0.1,0-0.1-0.1c-0.2-0.1-0.3-0.2-0.5-0.3c-0.1,0-0.1-0.1-0.2-0.1c-0.1-0.1-0.2-0.2-0.3-0.3
		c-0.1,0-0.1-0.1-0.2-0.1c-0.1-0.1-0.2-0.2-0.4-0.3c-0.1-0.1-0.1-0.1-0.2-0.2c-0.1-0.1-0.2-0.2-0.3-0.3c-0.1-0.1-0.1-0.1-0.2-0.2
		c-0.2-0.2-0.3-0.3-0.5-0.5l-0.1-0.1c-0.2-0.2-0.3-0.4-0.5-0.6c-0.1-0.1-0.1-0.2-0.2-0.2c-0.1-0.1-0.1-0.1-0.2-0.2
		c-0.1-0.1-0.1-0.2-0.2-0.3c0-0.1-0.1-0.1-0.1-0.2c-0.1-0.1-0.2-0.2-0.2-0.3L5,194.7c-0.1-0.2-0.2-0.3-0.3-0.5
		c-1.6-2.5-1.8-4.8-1-6.5l-3.9,7.7c-0.9,1.7-0.6,4.1,1,6.5c0.1,0.2,0.2,0.3,0.3,0.5l0.1,0.1c0.1,0.1,0.1,0.2,0.2,0.3
		c0,0.1,0.1,0.1,0.1,0.2c0.1,0.1,0.1,0.2,0.2,0.3s0.1,0.1,0.2,0.2c0.1,0.1,0.1,0.1,0.2,0.2c0,0,0,0,0,0.1c0.2,0.2,0.3,0.4,0.5,0.6
		l0.1,0.1c0.2,0.2,0.3,0.3,0.5,0.5l0.1,0.1l0.1,0.1c0.1,0.1,0.2,0.2,0.3,0.3s0.1,0.1,0.2,0.2c0.1,0.1,0.2,0.2,0.4,0.3l0.1,0.1
		c0.1,0.1,0.2,0.2,0.3,0.3c0.1,0,0.1,0.1,0.2,0.1c0.1,0.1,0.3,0.2,0.5,0.3c0,0,0.1,0,0.1,0.1c0.2,0.1,0.4,0.2,0.5,0.4l0.1,0.1
		c0.1,0.1,0.3,0.2,0.4,0.3c0.1,0,0.1,0.1,0.2,0.1c0.1,0.1,0.2,0.1,0.4,0.2c0.1,0,0.2,0.1,0.2,0.1c0.1,0.1,0.2,0.1,0.3,0.2
		c0.1,0,0.1,0.1,0.2,0.1c0.1,0.1,0.2,0.1,0.4,0.2c0.1,0,0.2,0.1,0.2,0.1c0.1,0.1,0.2,0.1,0.4,0.2c0,0,0,0,0.1,0s0.1,0,0.2,0.1
		c0.1,0.1,0.3,0.1,0.4,0.2c0.1,0,0.2,0.1,0.3,0.1c0.1,0.1,0.3,0.1,0.4,0.2c0,0,0.1,0,0.1,0.1h0.1c0.2,0.1,0.4,0.2,0.6,0.2h0.1
		c0.2,0.1,0.5,0.2,0.7,0.2c0,0,0,0,0.1,0s0.1,0,0.2,0.1c0.1,0,0.2,0.1,0.3,0.1s0.2,0,0.3,0.1c0.1,0,0.2,0.1,0.3,0.1s0.2,0,0.3,0.1
		c0.1,0,0.2,0,0.3,0.1c0.1,0,0.2,0,0.3,0.1c0.1,0,0.2,0,0.3,0.1h0.1h0.1c0.2,0,0.4,0.1,0.6,0.1h0.1c0.2,0,0.5,0,0.7,0.1
		c0.1,0,0.1,0,0.2,0c0.2,0,0.4,0,0.5,0s0.1,0,0.2,0c0.2,0,0.5,0,0.7,0c0.1,0,0.1,0,0.2,0s0.1,0,0.2,0s0.2,0,0.3,0s0.2,0,0.3,0
		s0.2,0,0.3,0s0.2,0,0.2,0c0.1,0,0.2,0,0.3-0.1c0.1,0,0.2,0,0.2-0.1c0.1,0,0.2,0,0.2-0.1h0.1c0.1,0,0.1,0,0.2-0.1c0,0,0,0,0.1,0
		s0.3-0.1,0.4-0.1h0.1c0.1,0,0.2-0.1,0.3-0.1c0,0,0,0,0.1,0s0.2-0.1,0.3-0.2c0,0,0,0,0.1,0c0.1-0.1,0.2-0.1,0.3-0.2
		c0,0,0.1,0,0.1-0.1c0,0,0.1,0,0.1-0.1c0.1,0,0.1-0.1,0.2-0.1l0.1-0.1c0.1,0,0.1-0.1,0.2-0.1c0,0,0.1,0,0.1-0.1c0,0,0,0,0.1-0.1
		l0.1-0.1l0.1-0.1c0-0.1,0.1-0.1,0.1-0.2c0,0,0-0.1,0.1-0.1c0,0,0,0,0-0.1s0.1-0.1,0.1-0.2l0.1-0.1c0-0.1,0.1-0.1,0.1-0.2
		c0,0,0-0.1,0.1-0.1c0,0,0-0.1,0.1-0.1l3.5-6.9C27.1,200.7,27.1,200.8,27.1,200.8z"/>
	<path class="st3" d="M3.6,189.8c0.6-2.2,2.7-3.8,6.1-4c5.8-0.4,13.2,3.4,16.4,8.2c1.8,2.9,1.9,5.5,0.5,7.4"/>
</g>
<g id="_x34_">
	<path class="st1" d="M374.1,33.3c0.1,0.1,0.1,0.1,0.2,0.2c0.1,0,0.1,0.1,0.2,0.1c0.1,0.1,0.1,0.1,0.2,0.2c0.1,0,0.1,0.1,0.2,0.1
		s0.1,0.1,0.2,0.1s0.1,0.1,0.2,0.1s0.1,0.1,0.2,0.1s0.1,0.1,0.2,0.1s0.2,0.1,0.2,0.1c0.1,0,0.1,0.1,0.2,0.1s0.2,0.1,0.3,0.1
		c0.1,0,0.2,0.1,0.3,0.1c0,0,0,0,0.1,0s0.3,0.1,0.4,0.1h0.1c0.1,0,0.3,0.1,0.4,0.1h0.1c0.1,0,0.3,0,0.4,0.1h0.1c0.2,0,0.3,0,0.5,0
		h0.1c0.1,0,0.3,0,0.4,0s0.2,0,0.3,0c0.1,0,0.2,0,0.3,0c0.1,0,0.2,0,0.3,0c0.1,0,0.2,0,0.3,0c0.1,0,0.2,0,0.3,0c0.1,0,0.2,0,0.3,0
		c0.1,0,0.2,0,0.3-0.1c0.1,0,0.3,0,0.4-0.1c0.3-0.1,0.6-0.1,0.8-0.2c0.1,0,0.2,0,0.2-0.1c0.2-0.1,0.4-0.1,0.6-0.2
		c0.1,0,0.1,0,0.2-0.1c0.3-0.1,0.6-0.2,0.8-0.3c0,0,0.1,0,0.1-0.1c0.2-0.1,0.5-0.2,0.7-0.3c0.1,0,0.2-0.1,0.3-0.1
		c0.1-0.1,0.3-0.1,0.4-0.2c0.1,0,0.2-0.1,0.3-0.1c0.1-0.1,0.2-0.1,0.4-0.2c0.1-0.1,0.2-0.1,0.3-0.2c0.1-0.1,0.2-0.1,0.4-0.2
		c0.1-0.1,0.2-0.1,0.3-0.2c0.1-0.1,0.2-0.1,0.4-0.2c0.1-0.1,0.2-0.1,0.3-0.2c0.3-0.2,0.5-0.3,0.8-0.5c0,0,0.1,0,0.1-0.1
		c0.2-0.2,0.4-0.3,0.7-0.5c0.1-0.1,0.2-0.1,0.3-0.2c0.1-0.1,0.3-0.2,0.4-0.3c0.1-0.1,0.2-0.1,0.3-0.2c0.1-0.1,0.3-0.2,0.4-0.3
		c0.1-0.1,0.2-0.1,0.2-0.2c0.1-0.1,0.2-0.2,0.4-0.3c0.1-0.1,0.2-0.1,0.3-0.2c0.1-0.1,0.3-0.2,0.4-0.3c0.1-0.1,0.1-0.1,0.2-0.2
		s0.2-0.2,0.3-0.3c0.1-0.1,0.2-0.1,0.2-0.2c0.1-0.1,0.2-0.2,0.4-0.4c0.1-0.1,0.1-0.1,0.2-0.2s0.3-0.3,0.4-0.4l0.1-0.1
		c0.2-0.2,0.3-0.4,0.5-0.6l0.1-0.1c0.1-0.2,0.3-0.3,0.4-0.5c0.1-0.1,0.1-0.1,0.2-0.2s0.2-0.3,0.3-0.4c0.1-0.1,0.1-0.1,0.2-0.2
		c0.1-0.2,0.2-0.3,0.3-0.5c0.1-0.1,0.1-0.2,0.2-0.3c0.1-0.1,0.2-0.3,0.3-0.4c0.1-0.1,0.1-0.2,0.2-0.2c0.1-0.2,0.3-0.5,0.4-0.7
		c0,0,0-0.1,0.1-0.1c0.2-0.3,0.3-0.5,0.4-0.8c0.1-0.1,0.1-0.2,0.2-0.3c0-0.1,0.1-0.2,0.1-0.3c0.1-0.1,0.1-0.3,0.2-0.4
		c0-0.1,0.1-0.2,0.1-0.2c0.1-0.1,0.1-0.3,0.2-0.4c0-0.1,0.1-0.1,0.1-0.2c0.1-0.2,0.2-0.4,0.2-0.6c1.2-3.4,0.8-6.2-0.8-8l6.2,7
		c1.6,1.7,1.9,4.6,0.8,8c-0.1,0.2-0.1,0.4-0.2,0.6c0,0.1-0.1,0.1-0.1,0.2c-0.1,0.1-0.1,0.3-0.2,0.4c0,0.1-0.1,0.2-0.1,0.2
		c-0.1,0.1-0.1,0.3-0.2,0.4c0,0.1-0.1,0.2-0.1,0.3s-0.1,0.2-0.1,0.3v0.1c-0.1,0.3-0.3,0.5-0.4,0.8c0,0,0,0.1-0.1,0.1
		c-0.1,0.2-0.3,0.5-0.4,0.7c0,0,0,0.1-0.1,0.1l-0.1,0.1c-0.1,0.1-0.2,0.3-0.3,0.4c-0.1,0.1-0.1,0.2-0.2,0.3
		c-0.1,0.2-0.2,0.3-0.3,0.5c0,0.1-0.1,0.1-0.1,0.2c-0.1,0.1-0.2,0.3-0.3,0.4c-0.1,0.1-0.1,0.1-0.2,0.2c-0.1,0.2-0.3,0.3-0.4,0.5
		c0,0,0,0.1-0.1,0.1c-0.2,0.2-0.3,0.4-0.5,0.6l-0.1,0.1c-0.1,0.1-0.3,0.3-0.4,0.4c-0.1,0.1-0.1,0.1-0.2,0.2
		c-0.1,0.1-0.2,0.2-0.4,0.4c-0.1,0.1-0.2,0.1-0.2,0.2c-0.1,0.1-0.2,0.2-0.3,0.3c-0.1,0.1-0.1,0.1-0.2,0.2c-0.1,0.1-0.2,0.2-0.4,0.3
		c-0.1,0.1-0.2,0.1-0.3,0.2c-0.1,0.1-0.2,0.2-0.4,0.3c0,0,0,0-0.1,0.1c-0.1,0-0.1,0.1-0.2,0.1c-0.1,0.1-0.3,0.2-0.4,0.3
		s-0.2,0.1-0.3,0.2c-0.1,0.1-0.3,0.2-0.4,0.3l-0.1,0.1c0,0-0.1,0-0.1,0.1c-0.2,0.2-0.4,0.3-0.7,0.5c0,0-0.1,0-0.1,0.1
		c-0.3,0.2-0.5,0.3-0.8,0.5c0,0,0,0-0.1,0s-0.1,0.1-0.2,0.1c-0.1,0.1-0.2,0.1-0.4,0.2c-0.1,0.1-0.2,0.1-0.3,0.2
		c-0.1,0.1-0.2,0.1-0.4,0.2c-0.1,0.1-0.2,0.1-0.3,0.2c-0.1,0.1-0.2,0.1-0.4,0.2c-0.1,0.1-0.2,0.1-0.3,0.1c-0.1,0.1-0.3,0.1-0.4,0.2
		c-0.1,0-0.1,0.1-0.2,0.1h-0.1c-0.2,0.1-0.5,0.2-0.7,0.3c0,0-0.1,0-0.1,0.1c-0.3,0.1-0.6,0.2-0.8,0.3c-0.1,0-0.1,0-0.2,0.1
		c-0.2,0.1-0.4,0.1-0.6,0.2c-0.1,0-0.2,0-0.2,0.1c-0.3,0.1-0.6,0.1-0.8,0.2c-0.1,0-0.2,0-0.2,0c-0.1,0-0.1,0-0.2,0s-0.2,0-0.3,0.1
		c-0.1,0-0.2,0-0.3,0c-0.1,0-0.2,0-0.3,0c-0.1,0-0.2,0-0.3,0c-0.1,0-0.2,0-0.3,0c-0.1,0-0.2,0-0.3,0c-0.1,0-0.2,0-0.3,0h-0.1
		c-0.1,0-0.2,0-0.3,0h-0.1c-0.2,0-0.3,0-0.5,0h-0.1c-0.1,0-0.3,0-0.4-0.1H384c-0.1,0-0.3-0.1-0.4-0.1h-0.1c-0.1,0-0.3-0.1-0.4-0.1
		c0,0,0,0-0.1,0s-0.1,0-0.2-0.1h-0.1c-0.1,0-0.2-0.1-0.3-0.1c-0.1,0-0.1-0.1-0.2-0.1s-0.2-0.1-0.2-0.1s-0.1,0-0.1-0.1
		c0,0-0.1,0-0.1-0.1c-0.1,0-0.1-0.1-0.2-0.1s-0.1-0.1-0.2-0.1s-0.1-0.1-0.2-0.1c0,0-0.1,0-0.1-0.1c0,0,0,0-0.1-0.1s-0.1-0.1-0.2-0.2
		c-0.1,0-0.1-0.1-0.2-0.1c-0.1-0.1-0.1-0.1-0.2-0.2l-0.1-0.1l-0.1-0.1l-6.2-7C374,33.2,374.1,33.3,374.1,33.3z"/>
	<path class="st3" d="M398.2,13.2c-1.4-2.4-4.3-3.6-8.3-2.8c-7,1.4-14.5,8-16.7,14.7c-1.4,4-0.6,7.1,1.6,8.7"/>
</g>
<g id="_x33_">
	<path class="st1" d="M534.6,365.3c0,0.2,0,0.2-0.1,0.3c0,0.2,0,0.2,0,0.3c0,0.2,0,0.2,0,0.3c0,0.2,0,0.2,0,0.3c0,0.2,0,0.2-0.1,0.3
		c0,0.2,0,0.2-0.2,0.3c0,0.2,0,0.2-0.2,0.3c0,0.2,0,0.2-0.2,0.3c0,0.2-0.2,0.1-0.2,0.3c0,0.2-0.2,0.1-0.2,0.3c0,0.2-0.2,0.1-0.2,0.3
		c0,0.2-0.2,0.1-0.2,0.3c0,0.2-0.2,0.3-0.4,0.3l-0.2,0.1c-0.2,0.1-0.2,0.3-0.4,0.4l-0.2,0.1c0,0,0,0,0,0.2c-0.2,0.1-0.2,0.3-0.4,0.4
		c0,0,0,0-0.2,0.1s-0.4,0.3-0.5,0.4c0,0,0,0-0.2,0.1s-0.3,0.1-0.4,0.3c-0.2,0.1-0.2,0.1-0.4,0.3c-0.2,0.1-0.2,0.1-0.4,0.3
		c-0.2,0.1-0.2,0.1-0.4,0.3c-0.2,0.1-0.2,0.1-0.4,0.3c-0.2,0.1-0.3,0.1-0.4,0.3c-0.2,0.1-0.2,0.1-0.3,0.1c-0.2,0.1-0.3,0.1-0.5,0.2
		s-0.3,0.1-0.5,0.2c-0.3,0.1-0.7,0.2-1,0.3c-0.2,0-0.2,0.1-0.3,0.1c-0.3,0.1-0.5,0.2-0.8,0.2c-0.2,0-0.2,0.1-0.3,0.1
		c-0.3,0.1-0.8,0.2-1.1,0.3h-0.2c-0.3,0.1-0.6,0.1-1,0.2c-0.2,0-0.3,0.1-0.5,0.1s-0.3,0.1-0.5,0.1s-0.3,0.1-0.5,0.1
		s-0.3,0.1-0.5,0.1s-0.3,0-0.5,0.1c-0.2,0-0.3,0.1-0.6,0.1c-0.2,0-0.3,0-0.5,0.1c-0.2,0-0.3,0-0.6,0.1c-0.2,0-0.3,0-0.5,0.1
		c-0.5-0.1-0.8,0-1.2,0H516c-0.3,0-0.8,0-1.1,0c-0.2,0-0.3,0-0.5-0.1c-0.2,0-0.5-0.1-0.6-0.1c-0.2,0-0.3,0-0.5-0.1
		c-0.3,0-0.5-0.1-0.8-0.1c-0.2,0-0.3,0-0.5-0.1c-0.2,0-0.5-0.1-0.6-0.1c-0.2,0-0.3,0-0.5-0.1c-0.2,0-0.5-0.1-0.6-0.1
		c-0.2,0-0.3,0-0.5-0.1c-0.2,0-0.5-0.1-0.6-0.1c-0.2,0-0.3-0.1-0.5-0.1s-0.5-0.1-0.6-0.1c-0.2,0-0.3,0-0.3,0c-0.3,0-0.6-0.1-0.7-0.3
		h-0.2c-0.3-0.1-0.6-0.3-1-0.3h-0.2c-0.3-0.1-0.6-0.3-0.9-0.3c-0.2,0-0.3,0-0.3,0c-0.2,0-0.4-0.2-0.6-0.3c-0.2,0-0.2,0-0.3,0
		c-0.3,0-0.4-0.2-0.7-0.3c-0.2,0-0.3-0.1-0.4-0.2c-0.2,0-0.4-0.2-0.6-0.3c-0.2,0-0.3,0-0.3-0.2c-0.3-0.2-0.6-0.3-1-0.5h-0.2
		c-0.3-0.2-0.7-0.4-1-0.6c-0.2,0-0.3-0.2-0.4-0.2c-0.2,0-0.3-0.2-0.3-0.2c-0.2,0-0.3-0.2-0.4-0.2c-0.2,0-0.1-0.2-0.3-0.2
		c-0.1-0.2-0.3-0.2-0.4-0.4c-0.2,0-0.1-0.2-0.3-0.2c-0.3-0.2-0.4-0.4-0.7-0.6c-3.7-3.1-5.3-6.7-4.8-9.8l-5.7,33.8
		c-0.5,3.2,1.1,6.6,4.8,9.8c0.3,0.2,0.4,0.4,0.7,0.6c0.2,0,0.1,0.2,0.3,0.2c0.1,0.2,0.3,0.2,0.4,0.4c0.2,0,0.1,0.2,0.3,0.2
		c0.2,0,0.3,0.2,0.4,0.2c0.2,0,0.3,0.2,0.3,0.2c0.2,0,0.1,0.2,0.3,0.2c0,0,0,0,0.2,0c0.3,0.2,0.7,0.4,1,0.6h0.2
		c0.3,0.2,0.6,0.3,1,0.5h0.2h0.2c0.2,0,0.4,0.2,0.6,0.3c0.2,0,0.3,0,0.4,0.2c0.3,0,0.4,0.2,0.7,0.3c0.2,0,0.2,0,0.3,0
		c0.2,0,0.4,0.2,0.6,0.3c0.2,0,0.3,0.1,0.3,0.1c0.3,0,0.6,0.3,0.9,0.3h0.2c0.3,0,0.6,0.3,1,0.3c0.2,0,0.2,0,0.3,0
		c0.3,0.1,0.5,0.1,0.8,0.1c0.2,0,0.3,0.1,0.3,0.1c0.2,0,0.5,0.1,0.6,0.1c0.2,0,0.3,0,0.5,0.1c0.2,0,0.5,0.1,0.6,0.1
		c0.2,0,0.2,0,0.3,0c0.2,0,0.5,0.1,0.6,0.1c0.2,0,0.3,0.1,0.5,0.1s0.5,0.1,0.6,0.1c0,0,0,0,0.2,0s0.2,0,0.3,0.1
		c0.3,0,0.5,0.1,0.8,0.1c0.2,0,0.3,0,0.5,0.1c0.2,0,0.5,0.1,0.6,0.1c0.2,0,0.2,0,0.3,0h0.2c0.3,0.1,0.8,0,1.1,0h0.2
		c0.5,0.1,0.8,0,1.3,0c0,0,0,0,0.2,0s0.2,0,0.3,0.1c0.2,0,0.3,0,0.6-0.1c0.2,0,0.3,0.1,0.5-0.1c0.2,0,0.3-0.1,0.6-0.1
		c0.2,0,0.3,0.1,0.5-0.1c0.2,0,0.3-0.1,0.5-0.1s0.3-0.1,0.5-0.1s0.3-0.1,0.5-0.1h0.2h0.2c0.3-0.1,0.6-0.1,1-0.2h0.2
		c0.3-0.1,0.8-0.2,1.1-0.3c0.2,0,0.2-0.1,0.3-0.1c0.3-0.1,0.5-0.2,0.8-0.2c0.2,0,0.2-0.1,0.3-0.1c0.3-0.1,0.7-0.2,1-0.3
		c0.2,0,0.2-0.1,0.3-0.1c0.2,0,0.2-0.1,0.3-0.1c0.2-0.1,0.3-0.1,0.5-0.2c0.2,0,0.2-0.1,0.4-0.3c0.2-0.1,0.3-0.1,0.4-0.3
		c0.2-0.1,0.2-0.1,0.4-0.3c0.2-0.1,0.2-0.1,0.4-0.3c0.2-0.1,0.2-0.1,0.4-0.3c0.2-0.1,0.2-0.1,0.4-0.3c0,0,0.2,0,0.2-0.1
		c0.2,0,0.2-0.1,0.3-0.1c0,0,0,0,0.2-0.1s0.4-0.3,0.5-0.4c0,0,0,0,0.2-0.1s0.4-0.3,0.4-0.4c0,0,0,0,0-0.2c0,0,0-0.2,0.2-0.1
		c0.2-0.1,0.2-0.3,0.4-0.4l0.2-0.1c0.2-0.1,0.2-0.3,0.4-0.3c0,0,0,0,0-0.2c0,0,0-0.2,0.2-0.1c0-0.2,0.2-0.1,0.2-0.3
		c0-0.2,0.2-0.1,0.2-0.3c0-0.2,0.2-0.1,0.2-0.3v-0.2v-0.2c0-0.2,0-0.2,0.2-0.3c0-0.2,0-0.2,0.2-0.3c0-0.2,0-0.2,0.1-0.3v-0.2
		c0,0,0,0,0-0.2s0-0.2,0.1-0.3c0-0.2,0-0.2,0-0.3c0-0.2,0-0.2,0.1-0.3v-0.2v-0.2l5.7-33.8C534.6,365.2,534.6,365.3,534.6,365.3z"/>
	<path class="st3" d="M491.3,362.8l10.9-65.8c0.5-3.1,3-5.9,7.6-7.7c9-3.4,22.5-1.2,30,4.9c3.9,3.2,5.5,6.9,4.8,10.1
		c0-0.2,0-0.2,0-0.3l-11,66.4"/>
</g>
<g id="_x32_">
	<path class="st4" d="M543.6,379.8l38.7,41.6c1.1,1.1,0.7,2.9-0.5,3.8l-34.6,20c-1.6,0.9-3.6-0.2-3.6-2L543.6,379.8L543.6,379.8z"/>
	<path class="st2" d="M544,379.8l-38.9,41.6c-1.1,1.1-0.7,2.9,0.5,3.8l34.6,19.8c1.6,0.9,3.6-0.2,3.6-2L544,379.8z"/>
	<path class="st3" d="M545.1,446.4c-0.7,0.4-1.6,0.4-2.3,0L505.6,425c-1.3-0.7-1.6-2.5-0.5-3.8l37.6-40.2c0.7-0.7,1.6-0.7,2.3,0"/>
</g>
<g id="_x31_">
	<path class="st1" d="M15.4,388.6c-0.1-0.1-0.1-0.3,0-0.4c0,0,0,0,0-0.1s0-0.1-0.1-0.3c0,0,0,0,0-0.1s0-0.1-0.1-0.3
		c0-0.1-0.1-0.3,0-0.4c0-0.1,0.1-0.2,0.1-0.4c0,0,0,0,0-0.1s0.1-0.2,0.1-0.2c0-0.1,0-0.1,0.1-0.2c0,0,0,0,0-0.1s0-0.1,0.1-0.2
		c0-0.1,0-0.1,0.2-0.2c0,0,0,0,0-0.1s0-0.1,0.1-0.1l-11.8,12L4,397.5c0,0.1,0,0.1-0.2,0.2c0,0.1,0,0.1-0.1,0.2c0,0.1,0,0.1-0.1,0.2
		c0,0.1-0.1,0.2-0.1,0.2c0,0.1-0.1,0.2-0.1,0.4c0,0.1-0.1,0.2,0,0.4c0,0.1,0,0.1,0.1,0.3c0,0,0,0,0,0.1s0,0.1,0.1,0.3
		c0,0.1,0.1,0.1,0.1,0.3c0,0,0,0,0,0.1s0.1,0.3,0.1,0.3l7.4,27.4c0.1,0.1,0.1,0.3,0.1,0.4c0,0,0,0.1,0.1,0.1c0,0.1,0.1,0.1,0.1,0.3
		l0.1,0.1c0,0.1,0.1,0.1,0.1,0.3l0.1,0.1c0,0.1,0.1,0.1,0.1,0.3l0.1,0.1c0.1,0.1,0.1,0.1,0.2,0.3l0.1,0.1c0.1,0.1,0.1,0.3,0.2,0.3
		c0.1,0.1,0.2,0.3,0.1,0.4c0.1,0.1,0.2,0.3,0.3,0.4c0,0,0.1,0,0.1,0.1c0.1,0.1,0.2,0.3,0.3,0.3c0.2,0.3,0.4,0.5,0.6,0.8
		c0,0,0,0,0.1,0c0.1,0.1,0.3,0.3,0.5,0.5c0,0,0,0,0.1,0c0.2,0.2,0.3,0.3,0.5,0.5h0.1c0.1,0.1,0.2,0.2,0.4,0.4h0.1l0.1,0.1l44.6,42.5
		c0.1,0.1,0.3,0.2,0.4,0.4c0.2,0.2,0.3,0.3,0.5,0.4c0,0,0,0,0.1,0h0.1c0.1,0.1,0.2,0.2,0.4,0.4H62c0.2,0.2,0.3,0.2,0.5,0.4
		c0.2,0.2,0.3,0.2,0.5,0.4c0,0,0,0,0.1,0c0,0,0,0,0.1,0c0.2,0.2,0.4,0.2,0.6,0.4c0.1,0,0.1,0,0.2,0.1c0.1,0,0.1,0,0.2,0.1
		c0.1,0,0.2,0.1,0.2,0.2h0.1h0.1c0.1,0,0.2,0.1,0.3,0.2H65c0.1,0,0.2,0.1,0.4,0.1c0,0,0,0,0.1,0h0.1c0.1,0,0.2,0.1,0.4,0.1h0.1
		c0.1,0,0.2,0.1,0.4,0.1h0.1c0.1,0,0.4,0.1,0.5,0.1h0.1c0.1,0,0.2,0.1,0.4,0.1h0.1c0.1,0,0.2,0.1,0.2,0.1H68c0.1,0,0.2,0.1,0.2,0.1
		h0.1c0.1,0,0.2,0.1,0.4,0c0.1,0,0.3-0.1,0.4,0h0.1c0.1,0,0.1,0,0.3-0.1h0.1c0.1,0,0.1-0.1,0.3-0.1H70c0.1,0,0.1-0.1,0.3-0.1
		c0,0,0,0,0.1,0c0.1-0.1,0.3-0.1,0.3-0.2c0,0,0,0,0.1,0s0.1-0.1,0.3-0.1c0,0,0,0,0.1-0.1l0.1-0.1c0,0,0-0.1,0.1-0.1
		c0-0.1,0.1-0.1,0.2-0.2c0,0,0,0,0.1-0.1s0.2-0.2,0.3-0.2l11.8-12.1c0,0.1-0.2,0.2-0.3,0.2c0,0,0,0-0.1,0.1c0,0.1-0.1,0.1-0.2,0.2
		c0,0,0,0.1-0.1,0.1l-0.1,0.1c0,0,0,0-0.1,0.1c-0.1,0-0.1,0.1-0.3,0.1c0,0,0,0-0.1,0c-0.1,0.1-0.3,0.1-0.3,0.2c0,0,0,0-0.1,0
		s-0.1,0.1-0.3,0.1h-0.1c-0.1,0-0.1,0.1-0.3,0.1h-0.1c-0.1,0-0.1,0.1-0.3,0.1h-0.1c-0.1,0-0.3,0.1-0.4,0c-0.1,0-0.3,0.1-0.4,0H80
		c-0.1,0-0.2-0.1-0.2-0.1h-0.1c-0.1,0-0.2-0.1-0.2-0.1h-0.1c-0.1,0-0.2-0.1-0.4-0.1h-0.1c-0.1,0-0.4-0.1-0.5-0.1h-0.1
		c-0.1,0-0.2-0.1-0.4-0.1h-0.1c-0.1,0-0.2-0.1-0.4-0.1c-0.1,0-0.1,0-0.2-0.1c-0.1,0-0.2-0.1-0.4-0.1h-0.1c-0.1,0-0.2-0.1-0.3-0.2
		h-0.1h-0.1c-0.1,0-0.2-0.1-0.2-0.2c-0.1,0-0.1,0-0.2-0.1c-0.1,0-0.1,0-0.2-0.2c-0.2-0.2-0.4-0.2-0.6-0.4h-0.1
		c-0.2-0.2-0.3-0.2-0.5-0.4c0,0,0,0-0.1,0c-0.2-0.2-0.3-0.2-0.5-0.4c0,0-0.1,0-0.1-0.1c-0.1-0.1-0.2-0.2-0.4-0.4c0,0-0.1,0-0.1-0.1
		c-0.2-0.2-0.3-0.3-0.5-0.4c-0.1-0.1-0.3-0.2-0.4-0.4l-44.6-42.5c-0.1,0-0.1-0.1-0.2-0.2s-0.2-0.2-0.4-0.4c0,0-0.1,0-0.1-0.1
		c-0.2-0.2-0.3-0.3-0.5-0.5c0,0-0.1,0-0.1-0.1c-0.2-0.2-0.3-0.3-0.5-0.5c0,0,0,0-0.1-0.1c-0.2-0.2-0.4-0.5-0.6-0.8l-0.1-0.1
		c-0.1-0.1-0.2-0.3-0.3-0.3c0,0-0.1,0-0.1-0.1c-0.1-0.1-0.2-0.3-0.3-0.4c-0.1-0.1-0.2-0.3-0.3-0.4c-0.1-0.1-0.2-0.3-0.2-0.3
		l-0.1-0.1c-0.1-0.1-0.1-0.1-0.2-0.3l-0.1-0.1c0-0.1-0.1-0.1-0.1-0.3l-0.1-0.1c0-0.1-0.1-0.1-0.1-0.3l-0.1-0.1
		c0-0.1-0.1-0.1-0.1-0.3c0,0,0-0.1-0.1-0.1c-0.1-0.1-0.1-0.3-0.1-0.4l-1.9-6.6c0.1,0,0.2,0.1,0.2,0.1h0.1c0.1,0,0.1,0,0.2,0.1h0.1
		c0.1,0,0.1,0,0.2,0.1h0.1c0.2,0.1,0.3,0.2,0.6,0.3h0.1c0.1,0,0.3,0.2,0.4,0.2s0.3,0.2,0.4,0.2h0.1c0.1,0,0.2,0.2,0.3,0.2
		c0,0,0,0,0.1,0c0.1,0.1,0.2,0.2,0.4,0.4h0.1c0.1,0,0.2,0.2,0.3,0.2h0.1c0.1,0.1,0.2,0.2,0.3,0.3c0,0,0,0,0.1,0
		c0.1,0.1,0.2,0.2,0.3,0.3c0,0,0.1,0,0.1,0.1c0.1,0.1,0.2,0.3,0.3,0.3c0,0,0,0,0.1,0c0.1,0.1,0.2,0.3,0.3,0.4
		c0.1,0.1,0.3,0.3,0.4,0.5c0,0,0,0,0.1,0c0.1,0.1,0.2,0.2,0.3,0.3c0.1,0.1,0.2,0.3,0.2,0.3s0,0,0.1,0.1s0.2,0.3,0.3,0.4
		c0.1,0.1,0.2,0.3,0.3,0.4c0,0,0,0,0.1,0.1s0.2,0.3,0.1,0.4c0,0,0,0,0,0.1c0.1,0.1,0.2,0.3,0.1,0.5c0.1,0.1,0.1,0.3,0.1,0.4v0.1
		c0,0.1,0.1,0.1,0.1,0.3v0.1c0,0.1,0.1,0.1,0.1,0.3c0,0,0,0,0,0.1s0.1,0.3,0.1,0.3v0.1c0,0,0,0,0,0.1s0,0.1-0.1,0.2
		c0,0.1-0.1,0.2-0.1,0.4c0,0,0,0,0,0.1s-0.1,0.2-0.1,0.4s0,0.1-0.1,0.2c0,0,0,0,0,0.1S28.1,418,28,418c0,0.1,0,0.1-0.2,0.2
		c0,0,0,0,0,0.1s-0.1,0.1-0.2,0.2c0,0,0,0,0,0.1l11.8-12.1c0-0.1,0.1-0.1,0.2-0.2c0-0.1,0.1-0.1,0.2-0.2c0-0.1,0.1-0.2,0.2-0.2
		c0-0.1,0-0.1,0.1-0.2c0-0.1,0.1-0.2,0.1-0.4s0.1-0.2,0.1-0.4c0-0.1,0-0.1,0.1-0.2c0,0,0,0,0-0.1v-0.1c0-0.1,0.1-0.2-0.1-0.3
		c0,0,0,0,0-0.1s0-0.1-0.1-0.3c0,0,0,0,0-0.1s-0.1-0.1-0.1-0.3v-0.1c0-0.1-0.1-0.3-0.1-0.4c-0.1-0.1-0.1-0.3-0.1-0.5c0,0,0,0,0-0.1
		c-0.1-0.1-0.2-0.3-0.1-0.4c0,0,0,0-0.1-0.1s-0.2-0.3-0.3-0.4s-0.2-0.3-0.3-0.4s-0.2-0.3-0.2-0.3c-0.1-0.1-0.2-0.3-0.3-0.3
		c-0.1-0.1-0.3-0.3-0.4-0.5c-0.1-0.1-0.2-0.3-0.3-0.4s-0.2-0.3-0.3-0.3c0,0,0,0-0.1,0c-0.1-0.1-0.2-0.2-0.3-0.3
		c-0.1-0.1-0.2-0.2-0.3-0.3c0,0,0,0-0.1,0s-0.2-0.2-0.3-0.2c0,0,0,0-0.1,0c-0.1-0.1-0.2-0.2-0.4-0.4c-0.1,0-0.2-0.2-0.3-0.2
		c0,0,0,0-0.1,0s-0.3-0.2-0.4-0.2c-0.1,0-0.3-0.2-0.4-0.2c-0.2-0.1-0.3-0.2-0.6-0.3c0,0,0,0-0.1,0s-0.1,0-0.2-0.1h-0.1
		c-0.1,0-0.1,0-0.2-0.1h-0.1c-0.1,0-0.4-0.1-0.5-0.1h-0.1c-0.1,0-0.4-0.1-0.5-0.1c-1.8-0.4-3.1-0.1-3.9,0.6l-8.1,8.4l-4.8-16.8
		C15.4,388.8,15.3,388.7,15.4,388.6z"/>
	<path class="st4" d="M19.3,384.9l26.9,6.6c2.2,0.6,4.7,2.1,6.7,4.1L97,438.5c2.1,2,3.4,4.4,4.1,6.5c0.6,2.1,0.5,4.1-0.7,5.3
		l-16.6,17.4c-2.4,2.4-7.7,1.1-11.9-2.9l-44.6-42.5c-2-2-3.7-4.4-4.2-6.7l-7.6-26.8C14.6,386,16.3,384.2,19.3,384.9z M40.2,404.5
		c-1-3.4-4.5-6.9-8.1-7.8c-3.4-0.9-5.4,1.3-4.4,4.7c1,3.4,4.5,6.9,8.1,7.8C39.2,410,41.2,407.9,40.2,404.5z"/>
	<path class="st1" d="M40.2,404.5c-1-3.4-4.5-6.9-8.1-7.8c-3.4-0.9-5.4,1.3-4.4,4.7c1,3.4,4.5,6.9,8.1,7.8
		C39.2,410,41.2,407.9,40.2,404.5z"/>
	<path class="st3" d="M19.4,384.9c0.1-4.5,1.1-9.2,2.6-13.6"/>
	<path class="st0" d="M29.1,359.8c0.4-0.4,0.7-0.9,1.1-1.4c7.4-8.2,15.6-6.2,18.2,4.4c2.7,10.7-1.1,26-8.5,34.2
		c-3.3,3.8-6.9,5.4-10,5"/>
</g>
</svg>
