<svg width="513" height="329" viewBox="0 0 513 329" fill="none" xmlns="http://www.w3.org/2000/svg">
<path d="M116.55 176.531L309 65.1419C311.534 63.7139 314.618 65.4715 314.618 68.3276L314.949 77.4453C314.949 82.828 312.085 87.7713 307.458 90.4078L116.88 200.589C112.253 203.225 106.525 203.225 101.898 200.589L7.71123 146.212C3.08449 143.576 0.330481 138.633 0.220321 133.36L0 124.132C0 121.276 3.08449 119.409 5.61818 120.946L101.458 176.531C106.195 179.168 111.923 179.168 116.55 176.531Z" fill="#2F58FF"/>
<path d="M5.50821 120.837C3.08468 119.409 3.08468 115.893 5.61837 114.465L198.069 3.07586C202.695 0.329573 208.424 0.439425 213.05 3.07586L309 58.6607C311.534 60.0888 311.534 63.7139 309 65.1419" stroke="#171A21" stroke-width="2" stroke-miterlimit="10" stroke-linecap="round" stroke-linejoin="round"/>
</svg>
