<svg width="514" height="328" viewBox="0 0 514 328" fill="none" xmlns="http://www.w3.org/2000/svg">
<path d="M396.247 216.945L203.797 105.666C201.263 104.238 198.179 105.995 198.179 108.852L197.848 154.769C197.848 160.152 200.712 165.096 205.339 167.732L395.917 277.913C400.543 280.549 406.272 280.549 410.898 277.913L504.975 223.427C509.602 220.79 512.356 215.847 512.466 210.574L512.797 164.656C512.797 161.8 509.712 159.932 507.179 161.47L411.339 217.055C406.602 219.582 400.874 219.582 396.247 216.945Z" fill="#2F58FF"/>
<path d="M507.179 161.361L411.229 216.945C406.602 219.582 400.874 219.692 396.247 216.945L203.797 105.666C201.263 104.238 201.263 100.613 203.797 99.1846L299.746 43.5998C304.373 40.9634 310.102 40.8535 314.728 43.5998L507.179 154.879C509.712 156.307 509.712 159.932 507.179 161.361Z" fill="#E8F4FA"/>
<path d="M505.086 223.427C509.713 220.79 512.467 215.847 512.577 210.574L512.797 166.743C512.797 161.361 509.933 156.417 505.306 153.781L314.729 43.5999C310.102 40.9634 304.373 40.9634 299.747 43.5999L205.67 98.0862C201.043 100.723 198.289 105.666 198.179 110.939L197.958 154.77C197.958 160.152 200.823 165.096 205.449 167.732" stroke="#171A21" stroke-width="2" stroke-miterlimit="10" stroke-linecap="round" stroke-linejoin="round"/>
<path d="M354.276 86.7713L315.059 64.1419C310.432 61.5054 303.051 61.5054 298.425 64.1419L236.294 100.173C231.778 102.81 231.778 107.094 236.294 109.73L275.621 132.36C280.248 134.996 287.629 134.996 292.256 132.36L354.386 96.3284C358.903 93.6919 358.903 89.4077 354.276 86.7713Z" stroke="#171A21" stroke-width="2" stroke-miterlimit="10" stroke-linecap="round" stroke-linejoin="round" stroke-dasharray="12 12"/>
<path d="M428.168 128.503L388.069 106.094C384.434 104.007 378.375 104.007 374.74 106.094L311.067 143.004C307.432 145.091 307.432 148.606 311.067 150.693L351.166 173.103C354.801 175.19 360.86 175.19 364.495 173.103L378.926 164.754C379.146 165.084 379.367 165.304 379.697 165.413C383.443 167.281 387.188 168.709 391.374 169.148C398.094 169.917 404.704 168.379 411.644 164.315C418.584 160.36 421.228 156.516 419.906 152.561C419.025 149.815 416.271 147.618 412.415 145.201L428.168 136.083C431.803 133.996 431.803 130.591 428.168 128.503ZM405.915 149.924C407.898 151.243 409.33 152.561 409.771 153.769C409.991 154.428 410.652 156.406 404.263 160.141C397.874 163.876 394.349 163.436 393.247 163.326C390.823 162.997 388.29 162.008 385.756 160.69L405.254 149.375C405.585 149.595 405.695 149.815 405.915 149.924Z" stroke="#171A21" stroke-width="2" stroke-miterlimit="10" stroke-linecap="round" stroke-linejoin="round" stroke-dasharray="12 12"/>
<path d="M476.444 151.474C479.088 155.429 478.427 160.042 475.012 161.91L401.975 201.896C398.56 203.763 393.713 202.115 391.18 198.161C388.536 194.206 389.197 189.592 392.612 187.725L465.648 147.739C468.953 145.872 473.8 147.629 476.444 151.474Z" stroke="#171A21" stroke-width="2" stroke-linecap="round" stroke-linejoin="round" stroke-dasharray="12.23 12.23"/>
</svg>
