<svg width="513" height="328" viewBox="0 0 513 328" fill="none" xmlns="http://www.w3.org/2000/svg">
<path d="M121.898 232.982L122.009 225.403L126.635 223.096L131.593 227.38L129.169 232.653L121.898 232.982Z" fill="#2F58FF"/>
<path d="M243.405 214.967L204.188 192.337C199.561 189.701 192.18 189.701 187.554 192.337L125.423 228.368C120.906 231.005 120.906 235.289 125.423 237.926L164.75 260.555C169.377 263.191 176.758 263.191 181.385 260.555L243.515 224.524C248.032 221.887 248.032 217.603 243.405 214.967Z" fill="#171A21"/>
<path d="M243.404 207.607L204.187 184.977C199.561 182.341 192.18 182.341 187.553 184.977L125.423 221.009C120.906 223.645 120.906 227.929 125.423 230.566L164.75 253.195C169.377 255.832 176.757 255.832 181.384 253.195L243.515 217.164C248.031 214.527 248.031 210.243 243.404 207.607Z" fill="#2F58FF"/>
<path d="M177.53 201.016C176.097 200.137 173.674 200.137 172.132 201.016C170.7 201.895 170.7 203.213 172.132 204.092L208.264 224.854C209.696 225.732 212.12 225.732 213.662 224.854C215.094 223.975 215.094 222.657 213.662 221.778L177.53 201.016ZM189.647 194.095C188.215 193.216 185.792 193.216 184.249 194.095C182.817 194.974 182.817 196.292 184.249 197.171L220.382 217.933C221.814 218.812 224.238 218.812 225.78 217.933C227.212 217.054 227.212 215.736 225.78 214.857L189.647 194.095Z" fill="#E8F4FA"/>
<path d="M215.865 248.032C216.085 247.922 216.196 247.812 216.416 247.812C216.526 247.703 216.746 247.703 216.857 247.593C217.077 247.483 217.187 247.483 217.407 247.373C217.517 247.263 217.738 247.263 217.848 247.263C218.068 247.153 218.178 247.153 218.399 247.153C218.509 247.153 218.729 247.044 218.95 247.044C219.17 247.044 219.28 246.934 219.5 246.934C219.721 246.934 219.831 246.824 220.051 246.824C220.271 246.824 220.492 246.824 220.712 246.714C220.932 246.714 221.043 246.714 221.263 246.714C221.483 246.714 221.704 246.714 221.924 246.714C222.144 246.714 222.254 246.714 222.475 246.714C222.695 246.714 223.025 246.714 223.246 246.714C223.356 246.714 223.576 246.714 223.686 246.714C224.017 246.714 224.237 246.824 224.568 246.824C224.678 246.824 224.788 246.824 225.008 246.824C225.449 246.934 226 246.934 226.44 247.044C226.551 247.044 226.661 247.153 226.771 247.153C227.101 247.263 227.542 247.373 227.873 247.483C228.093 247.483 228.203 247.593 228.423 247.593C228.644 247.703 228.864 247.703 229.084 247.812C229.305 247.922 229.525 247.922 229.745 248.032C229.966 248.142 230.186 248.252 230.406 248.362C230.627 248.472 230.847 248.581 231.067 248.581C231.288 248.691 231.508 248.801 231.728 248.911C231.948 249.021 232.169 249.131 232.389 249.241C232.609 249.35 232.83 249.46 233.05 249.57C233.381 249.68 233.601 249.9 233.931 250.01C234.482 250.339 235.033 250.669 235.584 250.998C235.694 251.108 235.914 251.218 236.024 251.328C236.465 251.657 236.906 251.877 237.236 252.207C237.346 252.316 237.567 252.426 237.677 252.536C238.228 252.976 238.778 253.305 239.219 253.744C239.329 253.854 239.439 253.854 239.439 253.964C239.88 254.294 240.321 254.733 240.761 255.063C240.982 255.173 241.092 255.392 241.312 255.502C241.532 255.722 241.753 255.942 241.973 256.161C242.193 256.381 242.304 256.491 242.524 256.71C242.744 256.93 242.965 257.15 243.185 257.37C243.405 257.589 243.515 257.699 243.736 257.919C243.956 258.139 244.176 258.358 244.397 258.578C244.617 258.798 244.727 259.017 244.947 259.127C245.168 259.347 245.388 259.676 245.608 259.896C245.719 260.116 245.939 260.226 246.049 260.445C246.49 260.995 246.93 261.544 247.371 262.093C247.481 262.203 247.481 262.203 247.591 262.313C247.922 262.752 248.362 263.302 248.693 263.851C248.803 264.071 249.023 264.18 249.134 264.4C249.354 264.73 249.574 265.059 249.794 265.389C249.905 265.608 250.125 265.828 250.235 266.048C250.455 266.377 250.676 266.707 250.896 267.146C251.006 267.366 251.116 267.586 251.227 267.696C251.447 268.025 251.557 268.355 251.777 268.574C251.888 268.794 251.998 269.014 252.218 269.234C252.438 269.563 252.548 269.893 252.769 270.222C252.879 270.442 252.989 270.662 253.099 270.771C253.32 271.101 253.43 271.431 253.65 271.76C253.76 271.98 253.87 272.2 253.981 272.419C254.201 272.749 254.311 273.078 254.531 273.408C254.642 273.628 254.752 273.847 254.862 273.957C255.082 274.397 255.302 274.836 255.413 275.275C255.413 275.385 255.523 275.495 255.633 275.605C255.853 276.154 256.074 276.703 256.294 277.253C256.294 277.363 256.404 277.472 256.404 277.472C256.624 277.912 256.735 278.461 256.955 278.9C257.065 279.12 257.065 279.34 257.175 279.56C257.285 279.889 257.396 280.329 257.506 280.658C257.616 280.878 257.616 281.097 257.726 281.207C257.836 281.647 257.946 281.976 258.057 282.416C258.167 282.635 258.167 282.855 258.277 283.075C258.387 283.404 258.497 283.844 258.607 284.173C258.717 284.393 258.717 284.613 258.717 284.832C258.828 285.382 259.048 286.041 259.158 286.59C259.158 286.7 259.158 286.81 259.268 286.92C259.378 287.579 259.489 288.238 259.599 289.007C259.599 289.336 259.709 289.556 259.709 289.886C259.709 290.105 259.819 290.325 259.819 290.545C259.819 290.874 259.929 291.204 259.929 291.533C259.929 291.753 259.929 291.973 260.039 292.192C260.039 292.522 260.039 292.852 260.15 293.181C260.15 293.401 260.15 293.511 260.15 293.73C260.15 294.28 260.15 294.719 260.15 295.268C260.15 299.003 259.599 302.189 258.497 304.825C258.167 305.594 257.836 306.363 257.506 307.022C257.285 307.352 257.175 307.682 256.955 308.011C255.743 309.879 254.201 311.416 252.328 312.405L305.425 282.086C310.273 279.34 313.247 273.408 313.247 264.949C313.247 264.4 313.247 263.961 313.247 263.411C313.247 263.192 313.247 263.082 313.247 262.862C313.247 262.533 313.247 262.203 313.137 261.873C313.137 261.654 313.137 261.434 313.027 261.214C313.027 260.885 312.916 260.555 312.916 260.226C312.916 260.006 312.806 259.786 312.806 259.567C312.806 259.347 312.806 259.127 312.696 258.907C312.696 258.798 312.696 258.798 312.696 258.688C312.586 258.029 312.476 257.37 312.366 256.601C312.366 256.491 312.366 256.381 312.255 256.271C312.145 255.722 312.035 255.063 311.815 254.513C311.815 254.404 311.815 254.294 311.705 254.184C311.705 254.074 311.594 253.964 311.594 253.854C311.484 253.525 311.374 253.085 311.264 252.756C311.154 252.536 311.154 252.316 311.044 252.097C310.934 251.657 310.823 251.328 310.713 250.888C310.713 250.778 310.603 250.559 310.603 250.449V250.339C310.493 250.01 310.383 249.57 310.162 249.241C310.052 249.021 310.052 248.801 309.942 248.691C309.722 248.252 309.612 247.703 309.391 247.263C309.391 247.153 309.281 247.153 309.281 247.044C309.061 246.494 308.84 245.945 308.62 245.396C308.62 245.286 308.51 245.176 308.51 245.066C308.29 244.627 308.18 244.187 307.959 243.748C307.849 243.528 307.739 243.418 307.739 243.199C307.519 242.869 307.408 242.54 307.188 242.21C307.078 241.99 306.968 241.771 306.858 241.551C306.747 241.221 306.527 240.892 306.307 240.562C306.307 240.562 306.307 240.562 306.307 240.452C306.197 240.233 306.086 240.123 305.976 239.903C305.756 239.574 305.646 239.244 305.425 238.915C305.315 238.695 305.205 238.475 304.985 238.255C304.765 237.926 304.654 237.596 304.434 237.377C304.434 237.267 304.324 237.267 304.324 237.157C304.214 237.047 304.104 236.827 304.104 236.718C303.883 236.388 303.663 236.058 303.443 235.619C303.332 235.399 303.112 235.18 303.002 234.96C302.782 234.63 302.561 234.301 302.341 233.971C302.231 233.861 302.231 233.752 302.121 233.642C302.011 233.532 302.011 233.532 301.9 233.422C301.57 232.873 301.129 232.433 300.799 231.884C300.689 231.774 300.689 231.774 300.578 231.664C300.138 231.115 299.697 230.566 299.257 230.017L299.146 229.907C299.036 229.797 298.926 229.577 298.816 229.467C298.596 229.248 298.375 228.918 298.155 228.698C297.935 228.479 297.824 228.259 297.604 228.149C297.384 227.929 297.163 227.71 296.943 227.49C296.723 227.27 296.613 227.16 296.392 226.941C296.172 226.721 295.952 226.501 295.731 226.282C295.511 226.062 295.401 225.952 295.181 225.732C294.96 225.513 294.74 225.293 294.52 225.073C294.409 224.963 294.299 224.854 294.189 224.744C294.079 224.634 294.079 224.634 293.969 224.524C293.528 224.194 293.088 223.755 292.647 223.425C292.537 223.316 292.427 223.316 292.427 223.206C291.876 222.766 291.325 222.327 290.884 221.997C290.774 221.888 290.554 221.778 290.444 221.668C290.003 221.338 289.562 221.119 289.232 220.789C289.122 220.679 288.901 220.569 288.791 220.459C288.24 220.13 287.69 219.8 287.139 219.471C287.029 219.361 286.808 219.251 286.698 219.251C286.588 219.141 286.368 219.141 286.258 219.031C286.037 218.922 285.817 218.812 285.597 218.702C285.376 218.592 285.156 218.482 284.936 218.372C284.715 218.262 284.495 218.153 284.275 218.043C284.054 217.933 283.834 217.823 283.614 217.823C283.393 217.713 283.173 217.603 282.953 217.493C282.732 217.384 282.512 217.384 282.292 217.274C282.071 217.164 281.851 217.164 281.631 217.054C281.521 217.054 281.411 216.944 281.3 216.944C281.19 216.944 281.08 216.944 281.08 216.834C280.639 216.725 280.309 216.615 279.978 216.505C279.868 216.505 279.758 216.395 279.648 216.395C279.207 216.285 278.657 216.175 278.216 216.175C278.216 216.175 278.216 216.175 278.106 216.175C277.996 216.175 277.885 216.175 277.775 216.175C277.445 216.175 277.224 216.065 276.894 216.065C276.784 216.065 276.563 216.065 276.453 216.065C276.233 216.065 275.902 216.065 275.682 216.065C275.572 216.065 275.572 216.065 275.462 216.065C275.352 216.065 275.242 216.065 275.131 216.065C274.911 216.065 274.691 216.065 274.47 216.065C274.25 216.065 274.14 216.065 273.92 216.065C273.699 216.065 273.479 216.065 273.259 216.175C273.149 216.175 273.038 216.175 273.038 216.175C272.928 216.175 272.928 216.175 272.818 216.175C272.598 216.175 272.488 216.285 272.267 216.285C272.047 216.285 271.937 216.395 271.716 216.395C271.496 216.395 271.386 216.505 271.166 216.505C271.055 216.505 270.945 216.505 270.835 216.615C270.725 216.615 270.725 216.615 270.615 216.725C270.394 216.834 270.284 216.834 270.064 216.944C269.954 217.054 269.734 217.054 269.623 217.164C269.403 217.274 269.293 217.274 269.073 217.384C268.962 217.384 268.852 217.493 268.742 217.493C268.632 217.493 268.522 217.603 268.412 217.603L215.204 248.362C215.424 248.252 215.645 248.142 215.865 248.032Z" fill="#2F58FF"/>
<path d="M207.493 265.389C207.493 248.581 219.28 241.771 233.821 250.009C248.362 258.248 260.149 278.681 260.149 295.378C260.149 312.075 248.362 318.996 233.821 310.757C219.28 302.518 207.493 282.196 207.493 265.389Z" fill="white"/>
<path d="M256.845 308.121C252.438 315.041 243.736 316.47 233.711 310.757C219.17 302.409 207.383 282.086 207.383 265.389C207.383 255.063 211.899 248.472 218.729 246.934" stroke="#171A21" stroke-width="2" stroke-miterlimit="10" stroke-linecap="round" stroke-linejoin="round"/>
<path d="M302.341 283.404C301.79 280.987 298.706 279.23 296.503 278.021C295.842 277.692 295.401 276.923 295.401 276.154V275.495C295.401 273.847 297.274 272.858 298.596 273.737C300.468 274.946 302.341 276.484 302.341 278.351V283.844C302.341 283.734 302.341 283.514 302.341 283.404ZM304.324 293.51C311.154 289.556 312.806 286.37 312.696 278.461C312.696 286.041 299.918 290.984 294.079 292.302C286.148 294.17 278.767 292.522 271.827 289.007C270.395 288.347 268.742 289.336 268.742 290.874V291.643C268.742 292.412 269.183 293.071 269.844 293.51C281.19 299.662 292.757 300.211 304.324 293.51Z" fill="white"/>
<path d="M271.827 289.007C270.395 288.347 268.742 289.336 268.742 290.874V291.643C268.742 292.412 269.183 293.071 269.844 293.51C281.19 299.662 292.867 300.211 304.324 293.51C311.154 289.556 312.806 286.37 312.696 278.461M302.341 283.844C302.341 283.734 302.341 283.624 302.341 283.404C301.79 280.987 298.706 279.23 296.503 278.021C295.842 277.692 295.401 276.923 295.401 276.154V275.495C295.401 273.847 297.274 272.858 298.596 273.737L302.341 283.844Z" stroke="#171A21" stroke-width="2" stroke-miterlimit="10" stroke-linecap="round" stroke-linejoin="round"/>
<path d="M271.937 285.492C270.505 286.371 270.505 288.458 272.047 289.227C275.792 291.094 279.538 292.522 283.724 292.962C290.444 293.731 297.053 292.193 303.993 288.128C310.933 284.174 313.577 280.329 312.255 276.374C311.264 273.408 308.069 270.991 303.663 268.355C303.002 267.916 302.231 267.916 301.46 268.355L298.375 270.113C297.053 270.882 296.943 272.859 298.265 273.628C300.248 274.946 301.68 276.264 302.121 277.473C302.341 278.132 303.002 280.109 296.613 283.844C290.223 287.579 286.698 287.14 285.597 287.03C282.732 286.7 279.758 285.272 276.784 283.624C276.123 283.295 275.352 283.295 274.691 283.624L271.937 285.492Z" fill="#171A21"/>
<path d="M294.41 309.11L355.659 274.946C359.074 273.079 363.37 274.946 365.353 279.23C367.336 283.514 366.124 288.458 362.819 290.325L301.57 324.599L294.41 309.11Z" fill="#2F58FF"/>
<path d="M304.104 313.504C302.121 309.22 297.824 307.242 294.409 309.22C293.748 309.549 293.198 309.989 292.757 310.538L284.715 320.754L287.58 325.148L298.155 325.258C299.256 325.368 300.468 325.148 301.46 324.599C304.875 322.731 306.086 317.788 304.104 313.504Z" fill="white" stroke="#171A21" stroke-width="2" stroke-miterlimit="10" stroke-linecap="round" stroke-linejoin="round"/>
<path d="M285.156 320.424L282.072 322.182C280.97 322.731 280.64 324.269 281.301 325.697C281.962 327.015 283.283 327.675 284.275 327.015L287.359 325.258C288.461 324.709 288.791 323.171 288.131 321.743C287.47 320.424 286.148 319.875 285.156 320.424Z" fill="#171A21"/>
</svg>
