<svg width="513" height="328" viewBox="0 0 513 328" fill="none" xmlns="http://www.w3.org/2000/svg">
<path d="M35.4716 81.6083L95.6192 116.431C98.4834 118.079 102.119 118.079 104.983 116.431L225.609 46.6755C227.151 45.7967 227.151 43.4898 225.609 42.611L165.461 7.78807C162.597 6.1403 158.961 6.1403 156.097 7.78807L35.4716 77.5437C33.9294 78.4226 33.9294 80.7294 35.4716 81.6083Z" fill="#E8F4FA"/>
<path d="M144.42 14.4893C147.505 14.709 150.479 15.4779 152.903 16.6863C158.631 19.7621 158.631 24.5956 153.013 27.6714C147.285 30.7473 138.031 30.7473 132.303 27.6714C130.21 26.5729 128.888 25.2547 128.337 23.8266M58.6055 64.1421L58.7156 64.252C70.9434 70.7332 90.7723 70.7332 102.89 64.252C115.008 57.7707 115.008 47.3348 102.78 40.8536C102.119 40.524 101.348 40.1945 100.687 39.8649M203.797 59.3086C202.805 55.9033 199.831 52.7176 194.984 50.0811C182.756 43.5999 162.927 43.5999 150.81 50.0811C138.692 56.5624 138.692 66.9982 150.92 73.4795C156.538 76.4455 163.699 77.9834 171.079 78.3129M109.61 99.4044C115.338 96.3286 115.228 91.4951 109.5 88.4193C103.771 85.3434 94.5178 85.3434 88.7894 88.4193C83.0611 91.4951 83.1712 96.3286 88.8996 99.4044C94.6279 102.48 103.881 102.48 109.61 99.4044Z" stroke="#2F58FF" stroke-width="2" stroke-miterlimit="10" stroke-linecap="round" stroke-linejoin="round"/>
</svg>
