<?xml version="1.0" encoding="utf-8"?>
<!-- Generator: Adobe Illustrator 22.1.0, SVG Export Plug-In . SVG Version: 6.00 Build 0)  -->
<svg version="1.1" id="Слой_1" xmlns="http://www.w3.org/2000/svg" xmlns:xlink="http://www.w3.org/1999/xlink" x="0px" y="0px"
	 viewBox="0 0 513.8 328.2" style="enable-background:new 0 0 513.8 328.2;" xml:space="preserve">
<style type="text/css">
	.st0{fill:#2F58FF;}
	.st1{fill:none;stroke:#171A21;stroke-width:2;stroke-linecap:round;stroke-linejoin:round;stroke-miterlimit:10;}
	.st2{fill:#E8F4FA;}
	.st3{fill:none;stroke:#2F58FF;stroke-width:2;stroke-linecap:round;stroke-linejoin:round;stroke-miterlimit:10;}
	
		.st4{fill:none;stroke:#171A21;stroke-width:2;stroke-linecap:round;stroke-linejoin:round;stroke-miterlimit:10;stroke-dasharray:12,12;}
	.st5{fill:none;stroke:#171A21;stroke-width:2;stroke-linecap:round;stroke-linejoin:round;stroke-dasharray:12.23,12.23;}
	.st6{fill:#171A21;}
	.st7{fill:#FFFFFF;}
	.st8{fill:#FFFFFF;stroke:#171A21;stroke-width:2;stroke-linecap:round;stroke-linejoin:round;stroke-miterlimit:10;}
</style>
<path class="st0" d="M116.6,176.5L309,65.1c2.5-1.4,5.6,0.3,5.6,3.2l0.3,9.1c0,5.4-2.9,10.3-7.5,13L116.9,200.5
	c-4.6,2.6-10.4,2.6-15,0L7.7,146.2c-4.6-2.6-7.4-7.6-7.5-12.9L0,124.1c0-2.9,3.1-4.7,5.6-3.2l95.8,55.6
	C106.2,179.1,111.9,179.1,116.6,176.5z"/>
<path class="st1" d="M5.5,120.8c-2.4-1.4-2.4-4.9,0.1-6.4L198.1,3c4.6-2.7,10.4-2.6,15,0L309,58.6c2.5,1.4,2.5,5.1,0,6.5"/>
<path class="st2" d="M35.5,82.6l60.1,34.8c2.9,1.6,6.5,1.6,9.4,0l120.6-69.8c1.5-0.9,1.5-3.2,0-4.1L165.5,8.7
	c-2.9-1.6-6.5-1.6-9.4,0L35.5,78.5C33.9,79.4,33.9,81.7,35.5,82.6z"/>
<path class="st3" d="M144.4,15.4c3.1,0.2,6.1,1,8.5,2.2c5.7,3.1,5.7,7.9,0.1,11c-5.7,3.1-15,3.1-20.7,0c-2.1-1.1-3.4-2.4-4-3.8
	 M58.6,65.1l0.1,0.1c12.2,6.5,32.1,6.5,44.2,0c12.1-6.5,12.1-16.9-0.1-23.4c-0.7-0.3-1.4-0.7-2.1-1 M203.8,60.3
	c-1-3.4-4-6.6-8.8-9.2c-12.2-6.5-32.1-6.5-44.2,0c-12.1,6.5-12.1,16.9,0.1,23.4c5.6,3,12.8,4.5,20.2,4.8 M109.6,100.3
	c5.7-3.1,5.6-7.9-0.1-11c-5.7-3.1-15-3.1-20.7,0c-5.7,3.1-5.6,7.9,0.1,11C94.6,103.4,103.9,103.4,109.6,100.3z"/>
<path class="st0" d="M396.2,217.9L203.8,106.6c-2.5-1.4-5.6,0.3-5.6,3.2l-0.3,45.9c0,5.4,2.9,10.3,7.5,13l190.6,110.2
	c4.6,2.6,10.4,2.6,15,0l94.1-54.5c4.6-2.6,7.4-7.6,7.5-12.9l0.3-45.9c0-2.9-3.1-4.7-5.6-3.2L411.3,218
	C406.6,220.5,400.9,220.5,396.2,217.9z"/>
<path class="st2" d="M507.2,162.3l-95.9,55.6c-4.6,2.6-10.4,2.7-15,0L203.8,106.6c-2.5-1.4-2.5-5.1,0-6.5l95.9-55.6
	c4.6-2.6,10.4-2.7,15,0l192.5,111.3C509.7,157.2,509.7,160.9,507.2,162.3z"/>
<path class="st1" d="M505.1,224.4c4.6-2.6,7.4-7.6,7.5-12.9l0.2-43.8c0-5.4-2.9-10.3-7.5-13L314.7,44.5c-4.6-2.6-10.4-2.6-15,0
	L205.7,99c-4.6,2.6-7.4,7.6-7.5,12.9l-0.2,43.8c0,5.4,2.9,10.3,7.5,13"/>
<path class="st4" d="M354.3,87.7l-39.2-22.6c-4.6-2.6-12-2.6-16.6,0l-62.1,36c-4.5,2.6-4.5,6.9,0,9.6l39.3,22.6
	c4.6,2.6,12,2.6,16.6,0l62.1-36C358.9,94.6,358.9,90.4,354.3,87.7z"/>
<path class="st4" d="M428.2,129.4L388.1,107c-3.6-2.1-9.7-2.1-13.3,0l-63.7,36.9c-3.6,2.1-3.6,5.6,0,7.7l40.1,22.4
	c3.6,2.1,9.7,2.1,13.3,0l14.4-8.3c0.2,0.3,0.4,0.6,0.8,0.7c3.7,1.9,7.5,3.3,11.7,3.7c6.7,0.8,13.3-0.8,20.3-4.8
	c6.9-4,9.6-7.8,8.3-11.8c-0.9-2.7-3.6-4.9-7.5-7.4l15.8-9.1C431.8,134.9,431.8,131.5,428.2,129.4z M405.9,150.9
	c2,1.3,3.4,2.6,3.9,3.8c0.2,0.7,0.9,2.6-5.5,6.4s-9.9,3.3-11,3.2c-2.4-0.3-5-1.3-7.5-2.6l19.5-11.3
	C405.6,150.5,405.7,150.8,405.9,150.9z"/>
<path class="st5" d="M476.4,152.4c2.6,4,2,8.6-1.4,10.4l-73,40c-3.4,1.9-8.3,0.2-10.8-3.7c-2.6-4-2-8.6,1.4-10.4l73-40
	C469,146.8,473.8,148.6,476.4,152.4z"/>
<path class="st0" d="M121.9,233.9l0.1-7.6l4.6-2.3l5,4.3l-2.4,5.3L121.9,233.9z"/>
<path class="st6" d="M243.4,215.9l-39.2-22.6c-4.6-2.6-12-2.6-16.6,0l-62.1,36c-4.5,2.6-4.5,6.9,0,9.6l39.3,22.6
	c4.6,2.6,12,2.6,16.6,0l62.1-36C248,222.8,248,218.5,243.4,215.9z"/>
<path class="st0" d="M243.4,208.5l-39.2-22.6c-4.6-2.6-12-2.6-16.6,0l-62.1,36c-4.5,2.6-4.5,6.9,0,9.6l39.3,22.6
	c4.6,2.6,12,2.6,16.6,0l62.1-36C248,215.5,248,211.2,243.4,208.5z"/>
<path class="st2" d="M177.5,202c-1.4-0.9-3.9-0.9-5.4,0c-1.4,0.9-1.4,2.2,0,3.1l36.1,20.8c1.4,0.9,3.9,0.9,5.4,0
	c1.4-0.9,1.4-2.2,0-3.1L177.5,202z M189.6,195c-1.4-0.9-3.9-0.9-5.4,0c-1.4,0.9-1.4,2.2,0,3.1l36.1,20.8c1.4,0.9,3.9,0.9,5.4,0
	c1.4-0.9,1.4-2.2,0-3.1L189.6,195z"/>
<path class="st0" d="M215.9,249c0.2-0.1,0.3-0.2,0.6-0.2c0.1-0.1,0.3-0.1,0.4-0.2c0.2-0.1,0.3-0.1,0.6-0.2c0.1-0.1,0.3-0.1,0.4-0.1
	c0.2-0.1,0.3-0.1,0.6-0.1c0.1,0,0.3-0.1,0.6-0.1c0.2,0,0.3-0.1,0.6-0.1c0.2,0,0.3-0.1,0.6-0.1s0.4,0,0.7-0.1c0.2,0,0.3,0,0.6,0
	s0.4,0,0.7,0s0.3,0,0.6,0c0.2,0,0.5,0,0.8,0c0.1,0,0.3,0,0.4,0c0.3,0,0.6,0.1,0.9,0.1c0.1,0,0.2,0,0.4,0c0.4,0.1,1,0.1,1.4,0.2
	c0.1,0,0.2,0.1,0.3,0.1c0.3,0.1,0.8,0.2,1.1,0.3c0.2,0,0.3,0.1,0.6,0.1c0.2,0.1,0.4,0.1,0.7,0.2c0.2,0.1,0.4,0.1,0.7,0.2
	c0.2,0.1,0.4,0.2,0.7,0.3c0.2,0.1,0.4,0.2,0.7,0.2c0.2,0.1,0.4,0.2,0.7,0.3s0.4,0.2,0.7,0.3c0.2,0.1,0.4,0.2,0.7,0.3
	c0.3,0.1,0.6,0.3,0.9,0.4c0.6,0.3,1.1,0.7,1.7,1c0.1,0.1,0.3,0.2,0.4,0.3c0.4,0.3,0.9,0.5,1.2,0.9c0.1,0.1,0.3,0.2,0.4,0.3
	c0.6,0.4,1.1,0.8,1.5,1.2c0.1,0.1,0.2,0.1,0.2,0.2c0.4,0.3,0.9,0.8,1.3,1.1c0.2,0.1,0.3,0.3,0.6,0.4c0.2,0.2,0.4,0.4,0.7,0.7
	c0.2,0.2,0.3,0.3,0.6,0.5c0.2,0.2,0.4,0.4,0.7,0.7c0.2,0.2,0.3,0.3,0.6,0.5c0.2,0.2,0.4,0.4,0.7,0.7c0.2,0.2,0.3,0.4,0.6,0.5
	c0.2,0.2,0.4,0.5,0.7,0.8c0.1,0.2,0.3,0.3,0.4,0.5c0.4,0.5,0.9,1.1,1.3,1.6c0.1,0.1,0.1,0.1,0.2,0.2c0.3,0.4,0.8,1,1.1,1.5
	c0.1,0.2,0.3,0.3,0.4,0.5c0.2,0.3,0.4,0.7,0.7,1c0.1,0.2,0.3,0.4,0.4,0.7c0.2,0.3,0.4,0.7,0.7,1.1c0.1,0.2,0.2,0.4,0.3,0.6
	c0.2,0.3,0.3,0.7,0.5,0.9c0.1,0.2,0.2,0.4,0.4,0.7c0.2,0.3,0.3,0.7,0.6,1c0.1,0.2,0.2,0.4,0.3,0.5c0.2,0.3,0.3,0.7,0.6,1
	c0.1,0.2,0.2,0.4,0.3,0.7c0.2,0.3,0.3,0.7,0.6,1c0.1,0.2,0.2,0.4,0.3,0.5c0.2,0.4,0.4,0.9,0.6,1.3c0,0.1,0.1,0.2,0.2,0.3
	c0.2,0.5,0.4,1.1,0.7,1.6c0,0.1,0.1,0.2,0.1,0.2c0.2,0.4,0.3,1,0.6,1.4c0.1,0.2,0.1,0.4,0.2,0.7c0.1,0.3,0.2,0.8,0.3,1.1
	c0.1,0.2,0.1,0.4,0.2,0.5c0.1,0.4,0.2,0.8,0.3,1.2c0.1,0.2,0.1,0.4,0.2,0.7c0.1,0.3,0.2,0.8,0.3,1.1c0.1,0.2,0.1,0.4,0.1,0.7
	c0.1,0.5,0.3,1.2,0.4,1.8c0,0.1,0,0.2,0.1,0.3c0.1,0.7,0.2,1.3,0.3,2.1c0,0.3,0.1,0.5,0.1,0.9c0,0.2,0.1,0.4,0.1,0.7
	c0,0.3,0.1,0.7,0.1,1c0,0.2,0,0.4,0.1,0.7c0,0.3,0,0.7,0.1,1c0,0.2,0,0.3,0,0.5c0,0.5,0,1,0,1.5c0,3.7-0.6,6.9-1.7,9.6
	c-0.3,0.8-0.7,1.5-1,2.2c-0.2,0.3-0.3,0.7-0.6,1c-1.2,1.9-2.8,3.4-4.6,4.4l53.1-30.3c4.8-2.7,7.8-8.7,7.8-17.1c0-0.5,0-1,0-1.5
	c0-0.2,0-0.3,0-0.5c0-0.3,0-0.7-0.1-1c0-0.2,0-0.4-0.1-0.7c0-0.3-0.1-0.7-0.1-1c0-0.2-0.1-0.4-0.1-0.7c0-0.2,0-0.4-0.1-0.7
	c0-0.1,0-0.1,0-0.2c-0.1-0.7-0.2-1.3-0.3-2.1c0-0.1,0-0.2-0.1-0.3c-0.1-0.5-0.2-1.2-0.4-1.8c0-0.1,0-0.2-0.1-0.3
	c0-0.1-0.1-0.2-0.1-0.3c-0.1-0.3-0.2-0.8-0.3-1.1c-0.1-0.2-0.1-0.4-0.2-0.7c-0.1-0.4-0.2-0.8-0.3-1.2c0-0.1-0.1-0.3-0.1-0.4v-0.1
	c-0.1-0.3-0.2-0.8-0.4-1.1c-0.1-0.2-0.1-0.4-0.2-0.6c-0.2-0.4-0.3-1-0.6-1.4c0-0.1-0.1-0.1-0.1-0.2c-0.2-0.6-0.4-1.1-0.7-1.6
	c0-0.1-0.1-0.2-0.1-0.3c-0.2-0.4-0.3-0.9-0.6-1.3c-0.1-0.2-0.2-0.3-0.2-0.5c-0.2-0.3-0.3-0.7-0.6-1c-0.1-0.2-0.2-0.4-0.3-0.7
	c-0.1-0.3-0.3-0.7-0.6-1c0,0,0,0,0-0.1c-0.1-0.2-0.2-0.3-0.3-0.5c-0.2-0.3-0.3-0.7-0.6-1c-0.1-0.2-0.2-0.4-0.4-0.7
	c-0.2-0.3-0.3-0.7-0.6-0.9c0-0.1-0.1-0.1-0.1-0.2c-0.1-0.1-0.2-0.3-0.2-0.4c-0.2-0.3-0.4-0.7-0.7-1.1c-0.1-0.2-0.3-0.4-0.4-0.7
	c-0.2-0.3-0.4-0.7-0.7-1c-0.1-0.1-0.1-0.2-0.2-0.3c-0.1-0.1-0.1-0.1-0.2-0.2c-0.3-0.5-0.8-1-1.1-1.5c-0.1-0.1-0.1-0.1-0.2-0.2
	c-0.4-0.5-0.9-1.1-1.3-1.6l-0.1-0.1c-0.1-0.1-0.2-0.3-0.3-0.4c-0.2-0.2-0.4-0.5-0.7-0.8c-0.2-0.2-0.3-0.4-0.6-0.5
	c-0.2-0.2-0.4-0.4-0.7-0.7s-0.3-0.3-0.6-0.5c-0.2-0.2-0.4-0.4-0.7-0.7c-0.2-0.2-0.3-0.3-0.5-0.6c-0.2-0.2-0.4-0.4-0.7-0.7
	c-0.1-0.1-0.2-0.2-0.3-0.3c-0.1-0.1-0.1-0.1-0.2-0.2c-0.4-0.3-0.9-0.8-1.3-1.1c-0.1-0.1-0.2-0.1-0.2-0.2c-0.6-0.4-1.1-0.9-1.5-1.2
	c-0.1-0.1-0.3-0.2-0.4-0.3c-0.4-0.3-0.9-0.5-1.2-0.9c-0.1-0.1-0.3-0.2-0.4-0.3c-0.6-0.3-1.1-0.7-1.7-1c-0.1-0.1-0.3-0.2-0.4-0.2
	c-0.1-0.1-0.3-0.1-0.4-0.2c-0.2-0.1-0.4-0.2-0.7-0.3c-0.2-0.1-0.4-0.2-0.7-0.3c-0.2-0.1-0.4-0.2-0.7-0.3c-0.2-0.1-0.4-0.2-0.7-0.2
	c-0.2-0.1-0.4-0.2-0.7-0.3c-0.2-0.1-0.4-0.1-0.7-0.2c-0.2-0.1-0.4-0.1-0.7-0.2c-0.1,0-0.2-0.1-0.3-0.1c-0.1,0-0.2,0-0.2-0.1
	c-0.4-0.1-0.8-0.2-1.1-0.3c-0.1,0-0.2-0.1-0.3-0.1c-0.4-0.1-1-0.2-1.4-0.2c0,0,0,0-0.1,0c-0.1,0-0.2,0-0.3,0c-0.3,0-0.6-0.1-0.9-0.1
	c-0.1,0-0.3,0-0.4,0c-0.2,0-0.6,0-0.8,0c-0.1,0-0.1,0-0.2,0c-0.1,0-0.2,0-0.3,0c-0.2,0-0.4,0-0.7,0c-0.2,0-0.3,0-0.5,0
	c-0.2,0-0.4,0-0.7,0.1c-0.1,0-0.2,0-0.2,0c-0.1,0-0.1,0-0.2,0c-0.2,0-0.3,0.1-0.6,0.1c-0.2,0-0.3,0.1-0.6,0.1
	c-0.2,0-0.3,0.1-0.6,0.1c-0.1,0-0.2,0-0.3,0.1c-0.1,0-0.1,0-0.2,0.1c-0.2,0.1-0.3,0.1-0.6,0.2c-0.1,0.1-0.3,0.1-0.4,0.2
	c-0.2,0.1-0.3,0.1-0.5,0.2c-0.1,0-0.2,0.1-0.3,0.1c-0.1,0-0.2,0.1-0.3,0.1l-53.2,30.8C215.4,249.2,215.6,249.1,215.9,249z"/>
<path class="st7" d="M207.5,266.3c0-16.8,11.8-23.6,26.3-15.4c14.5,8.2,26.3,28.7,26.3,45.4c0,16.7-11.8,23.6-26.3,15.4
	C219.3,303.5,207.5,283.1,207.5,266.3z"/>
<path class="st1" d="M256.8,309.1c-4.4,6.9-13.1,8.3-23.1,2.6c-14.5-8.3-26.3-28.7-26.3-45.4c0-10.3,4.5-16.9,11.3-18.5"/>
<path class="st7" d="M302.3,284.3c-0.6-2.4-3.6-4.2-5.8-5.4c-0.7-0.3-1.1-1.1-1.1-1.9v-0.7c0-1.6,1.9-2.6,3.2-1.8
	c1.9,1.2,3.7,2.7,3.7,4.6v5.5C302.3,284.7,302.3,284.5,302.3,284.3z M304.3,294.5c6.8-4,8.5-7.1,8.4-15c0,7.6-12.8,12.5-18.6,13.8
	c-7.9,1.9-15.3,0.2-22.3-3.3c-1.4-0.7-3.1,0.3-3.1,1.9v0.8c0,0.8,0.4,1.4,1.1,1.9C281.2,300.6,292.8,301.2,304.3,294.5z"/>
<path class="st1" d="M271.8,289.9c-1.4-0.7-3.1,0.3-3.1,1.9v0.8c0,0.8,0.4,1.4,1.1,1.9c11.3,6.2,23,6.7,34.5,0c6.8-4,8.5-7.1,8.4-15
	 M302.3,284.8c0-0.1,0-0.2,0-0.4c-0.6-2.4-3.6-4.2-5.8-5.4c-0.7-0.3-1.1-1.1-1.1-1.9v-0.7c0-1.6,1.9-2.6,3.2-1.8L302.3,284.8z"/>
<path class="st6" d="M271.9,286.4c-1.4,0.9-1.4,3,0.1,3.7c3.7,1.9,7.5,3.3,11.7,3.7c6.7,0.8,13.3-0.8,20.3-4.8
	c6.9-4,9.6-7.8,8.3-11.8c-1-3-4.2-5.4-8.6-8c-0.7-0.4-1.4-0.4-2.2,0l-3.1,1.8c-1.3,0.8-1.4,2.7-0.1,3.5c2,1.3,3.4,2.6,3.9,3.8
	c0.2,0.7,0.9,2.6-5.5,6.4c-6.4,3.7-9.9,3.3-11,3.2c-2.9-0.3-5.8-1.8-8.8-3.4c-0.7-0.3-1.4-0.3-2.1,0L271.9,286.4z"/>
<path class="st0" d="M294.4,310.1l61.2-34.2c3.4-1.9,7.7,0,9.7,4.3s0.8,9.2-2.5,11.1l-61.2,34.3L294.4,310.1z"/>
<path class="st8" d="M304.1,314.4c-2-4.3-6.3-6.3-9.7-4.3c-0.7,0.3-1.2,0.8-1.7,1.3l-8,10.2l2.9,4.4l10.6,0.1
	c1.1,0.1,2.3-0.1,3.3-0.7C304.9,323.7,306.1,318.7,304.1,314.4z"/>
<path class="st6" d="M285.2,321.4l-3.1,1.8c-1.1,0.5-1.4,2.1-0.8,3.5c0.7,1.3,2,2,3,1.3l3.1-1.8c1.1-0.5,1.4-2.1,0.8-3.5
	C287.5,321.4,286.1,320.8,285.2,321.4z"/>
</svg>
