<svg width="144" height="144" viewBox="0 0 144 144" fill="none" xmlns="http://www.w3.org/2000/svg">
<path d="M45.2004 25.7C45.2004 25.8 45.2004 26 45.2004 26.1C45.2004 26.2 45.2004 26.4 45.2004 26.5C45.2004 26.6 45.2004 26.8 45.3004 26.9C45.3004 27 45.4004 27.2 45.4004 27.3C45.4004 27.4 45.5004 27.6 45.5004 27.7C45.5004 27.8 45.6004 28 45.6004 28.1C45.6004 28.2 45.7004 28.4 45.7004 28.5C45.7004 28.6 45.8004 28.8 45.8004 28.9C45.9004 29.1 45.9004 29.2 46.0004 29.4C46.1004 29.5 46.1004 29.6 46.2004 29.8C46.3004 29.9 46.4004 30.1 46.4004 30.2C46.5004 30.3 46.5004 30.4 46.6004 30.6C46.7004 30.8 46.8004 31 46.9004 31.1C47.0004 31.2 47.0004 31.3 47.1004 31.4C47.2004 31.6 47.4004 31.8 47.5004 32C47.6004 32.1 47.6004 32.2 47.7004 32.3L47.8004 32.4C48.0004 32.6 48.1004 32.8 48.3004 33C48.3004 33.1 48.4004 33.1 48.4004 33.2C48.6004 33.4 48.8004 33.6 49.0004 33.8L49.1004 33.9C49.3004 34.1 49.4004 34.2 49.6004 34.4C49.7004 34.5 49.9004 34.7 50.0004 34.8C50.1004 34.9 50.3004 35 50.4004 35.1C50.6004 35.2 50.7004 35.3 50.9004 35.5C51.0004 35.6 51.2004 35.7 51.3004 35.8C51.5004 35.9 51.6004 36 51.8004 36.2C52.0004 36.3 52.1004 36.4 52.3004 36.5C52.5004 36.6 52.7004 36.7 52.8004 36.8C53.0004 36.9 53.3004 37.1 53.5004 37.2C53.9004 37.5 54.4004 37.7 54.9004 37.9C55.0004 38 55.2004 38 55.3004 38.1C55.7004 38.3 56.0004 38.5 56.4004 38.6C56.5004 38.7 56.6004 38.7 56.8004 38.8C57.3004 39 57.8004 39.2 58.3004 39.4C58.4004 39.4 58.5004 39.5 58.6004 39.5C59.0004 39.7 59.5004 39.8 59.9004 40C60.1004 40.1 60.3004 40.1 60.4004 40.2C60.6004 40.3 60.9004 40.3 61.1004 40.4C61.3004 40.5 61.5004 40.5 61.7004 40.6C61.9004 40.7 62.2004 40.7 62.4004 40.8C62.6004 40.9 62.8004 40.9 63.0004 41C63.3004 41.1 63.5004 41.1 63.8004 41.2C64.0004 41.2 64.2004 41.3 64.4004 41.3C64.7004 41.4 64.9004 41.4 65.2004 41.5C65.4004 41.5 65.6004 41.6 65.8004 41.6C66.4004 41.7 66.9004 41.8 67.5004 41.9C67.6004 41.9 67.7004 41.9 67.7004 41.9C68.2004 42 68.7004 42 69.2004 42.1C69.4004 42.1 69.6004 42.1 69.8004 42.2C70.1004 42.2 70.4004 42.3 70.8004 42.3C71.0004 42.3 71.2004 42.3 71.4004 42.3C71.7004 42.3 72.1004 42.3 72.4004 42.4C72.6004 42.4 72.8004 42.4 73.0004 42.4C73.3004 42.4 73.6004 42.4 73.9004 42.4C74.1004 42.4 74.3004 42.4 74.5004 42.4C74.8004 42.4 75.1004 42.4 75.4004 42.4C75.6004 42.4 75.8004 42.4 75.9004 42.4C76.2004 42.4 76.5004 42.4 76.7004 42.4C76.9004 42.4 77.1004 42.4 77.3004 42.4C77.6004 42.4 77.9004 42.4 78.2004 42.3C78.4004 42.3 78.5004 42.3 78.7004 42.3C79.1004 42.3 79.5004 42.2 79.8004 42.2C79.9004 42.2 80.0004 42.2 80.1004 42.2C80.6004 42.1 81.0004 42.1 81.5004 42C81.6004 42 81.6004 42 81.7004 42C82.1004 41.9 82.5004 41.9 82.9004 41.8C83.1004 41.8 83.2004 41.7 83.4004 41.7C83.7004 41.6 84.0004 41.6 84.3004 41.5C84.5004 41.5 84.6004 41.4 84.8004 41.4C85.1004 41.3 85.5004 41.3 85.8004 41.2C86.0004 41.2 86.2004 41.1 86.3004 41.1C86.6004 41 86.9004 40.9 87.2004 40.9C87.4004 40.9 87.5004 40.8 87.7004 40.8C88.2004 40.7 88.6004 40.5 89.1004 40.4C89.2004 40.4 89.3004 40.3 89.3004 40.3C89.8004 40.1 90.4004 39.9 90.9004 39.7C91.1004 39.6 91.3004 39.5 91.5004 39.4C91.7004 39.3 91.8004 39.3 92.0004 39.2C92.2004 39.1 92.5004 39 92.7004 38.9C92.8004 38.8 93.0004 38.8 93.1004 38.7C93.3004 38.6 93.6004 38.5 93.8004 38.3C93.9004 38.2 94.0004 38.2 94.2004 38.1C94.6004 37.9 94.9004 37.7 95.3004 37.5C101.1 34.1 104.1 29.7 104.1 25.3L104.3 112.3C104.3 116.7 101.4 121.2 95.5004 124.5C95.2004 124.7 94.8004 124.9 94.4004 125.1C94.3004 125.2 94.2004 125.2 94.0004 125.3C93.8004 125.4 93.5004 125.5 93.3004 125.7C93.2004 125.8 93.0004 125.8 92.9004 125.9C92.7004 126 92.4004 126.1 92.2004 126.2C92.0004 126.3 91.9004 126.3 91.7004 126.4C91.5004 126.5 91.4004 126.5 91.2004 126.6C91.2004 126.6 91.1004 126.6 91.0004 126.7C90.5004 126.9 90.0004 127.1 89.4004 127.3C89.3004 127.3 89.2004 127.4 89.2004 127.4C88.7004 127.6 88.3004 127.7 87.8004 127.8C87.7004 127.8 87.6004 127.8 87.6004 127.9C87.5004 127.9 87.4004 127.9 87.3004 128C87.0004 128.1 86.7004 128.2 86.4004 128.2C86.2004 128.2 86.0004 128.3 85.9004 128.3C85.6004 128.4 85.2004 128.5 84.9004 128.5C84.8004 128.5 84.7004 128.6 84.5004 128.6H84.4004C84.1004 128.7 83.8004 128.7 83.5004 128.8C83.3004 128.8 83.2004 128.9 83.0004 128.9C82.6004 129 82.2004 129 81.8004 129.1C81.7004 129.1 81.6004 129.1 81.6004 129.1C81.1004 129.2 80.7004 129.2 80.2004 129.3C80.1004 129.3 80.0004 129.3 79.9004 129.3C79.5004 129.3 79.2004 129.4 78.8004 129.4C78.6004 129.4 78.5004 129.4 78.3004 129.4C78.0004 129.4 77.7004 129.4 77.4004 129.5C77.2004 129.5 77.0004 129.5 76.8004 129.5C76.5004 129.5 76.2004 129.5 75.9004 129.5C75.9004 129.5 75.9004 129.5 75.8004 129.5C75.6004 129.5 75.5004 129.5 75.3004 129.5C75.0004 129.5 74.7004 129.5 74.4004 129.5C74.2004 129.5 74.0004 129.5 73.8004 129.5C73.5004 129.5 73.2004 129.5 72.9004 129.5C72.8004 129.5 72.8004 129.5 72.7004 129.5C72.6004 129.5 72.4004 129.5 72.3004 129.5C72.0004 129.5 71.6004 129.5 71.3004 129.4C71.1004 129.4 70.9004 129.4 70.7004 129.4C70.4004 129.4 70.1004 129.4 69.7004 129.3C69.6004 129.3 69.5004 129.3 69.4004 129.3C69.3004 129.3 69.2004 129.3 69.2004 129.3C68.7004 129.2 68.2004 129.2 67.7004 129.1C67.6004 129.1 67.5004 129.1 67.5004 129.1C66.9004 129 66.4004 128.9 65.8004 128.8C65.7004 128.8 65.7004 128.8 65.6004 128.8C65.5004 128.8 65.3004 128.7 65.2004 128.7C64.9004 128.7 64.7004 128.6 64.4004 128.5C64.2004 128.5 64.0004 128.4 63.8004 128.4C63.5004 128.3 63.3004 128.3 63.0004 128.2C62.8004 128.1 62.6004 128.1 62.4004 128C62.2004 127.9 61.9004 127.9 61.7004 127.8C61.5004 127.7 61.3004 127.7 61.1004 127.6C60.9004 127.5 60.6004 127.5 60.4004 127.4C60.3004 127.4 60.2004 127.3 60.1004 127.3C60.0004 127.3 60.0004 127.2 59.9004 127.2C59.5004 127.1 59.0004 126.9 58.6004 126.7C58.5004 126.7 58.4004 126.6 58.3004 126.6C57.8004 126.4 57.3004 126.2 56.8004 126C56.7004 125.9 56.5004 125.9 56.4004 125.8C56.0004 125.6 55.7004 125.5 55.3004 125.3C55.2004 125.2 55.0004 125.2 54.9004 125.1C54.4004 124.9 54.0004 124.6 53.5004 124.4C53.4004 124.3 53.3004 124.3 53.1004 124.2C53.0004 124.1 52.9004 124.1 52.8004 124C52.6004 123.9 52.4004 123.8 52.3004 123.7C52.1004 123.6 52.0004 123.5 51.8004 123.4C51.6004 123.3 51.5004 123.2 51.3004 123C51.1004 122.9 51.0004 122.8 50.9004 122.7C50.7004 122.6 50.6004 122.5 50.4004 122.3C50.3004 122.2 50.1004 122.1 50.0004 122C49.9004 121.9 49.7004 121.8 49.6004 121.6C49.5004 121.5 49.5004 121.5 49.4004 121.4C49.3004 121.3 49.2004 121.2 49.1004 121.1L49.0004 121C48.8004 120.8 48.6004 120.6 48.4004 120.4C48.4004 120.3 48.3004 120.3 48.3004 120.2C48.1004 120 48.0004 119.8 47.8004 119.6L47.7004 119.5C47.7004 119.5 47.7004 119.5 47.7004 119.4C47.6004 119.3 47.6004 119.3 47.5004 119.2C47.4004 119 47.2004 118.8 47.1004 118.6C47.0004 118.5 47.0004 118.4 46.9004 118.3C46.8004 118.1 46.7004 118 46.6004 117.8L46.5004 117.7C46.5004 117.6 46.4004 117.6 46.4004 117.5C46.3004 117.4 46.2004 117.2 46.2004 117.1C46.1004 117 46.1004 116.8 46.0004 116.7C45.9004 116.6 45.9004 116.4 45.8004 116.3C45.8004 116.2 45.7004 116.2 45.7004 116.1C45.7004 116 45.7004 116 45.6004 115.9C45.5004 115.8 45.5004 115.6 45.5004 115.5C45.5004 115.4 45.4004 115.2 45.4004 115.1C45.4004 115 45.3004 114.8 45.3004 114.7C45.3004 114.6 45.3004 114.5 45.2004 114.5C45.2004 114.4 45.2004 114.4 45.2004 114.3C45.2004 114.2 45.2004 114 45.1004 113.9C45.1004 113.8 45.1004 113.6 45.1004 113.5C45.1004 113.4 45.1004 113.2 45.1004 113.1C45.1004 113 45.1004 112.9 45.1004 112.8C45.1004 112.7 45.1004 112.6 45.1004 112.5L44.9004 25.5C45.2004 25.3 45.2004 25.5 45.2004 25.7Z" fill="#98A2F4"/>
<path d="M53.9006 12.9C42.3006 19.6 42.2006 30.5 53.8006 37.2C65.4006 43.9 84.1005 43.9 95.7006 37.2C107.301 30.5 107.401 19.6 95.8006 12.9C84.2006 6.2 65.5006 6.2 53.9006 12.9Z" fill="white"/>
<path d="M103.401 29.5C106.101 23.8 103.601 17.4 95.8008 12.9C84.3008 6.2 65.5008 6.2 53.9008 12.9C45.6008 17.7 43.2008 24.6 46.7008 30.6" stroke="#171A21" stroke-width="2" stroke-miterlimit="10" stroke-linecap="round" stroke-linejoin="round"/>
<path d="M65.8008 7.4V7.5V7.6V7.7V7.8V7.9V8V8.1V8.2C65.8008 8.2 65.8008 8.3 65.9008 8.3C65.9008 8.3 65.9008 8.4 66.0008 8.4C66.0008 8.4 66.0008 8.5 66.1008 8.5C66.1008 8.5 66.1008 8.6 66.2008 8.6C66.2008 8.7 66.3008 8.7 66.3008 8.8C66.3008 8.8 66.3008 8.9 66.4008 8.9C66.4008 9 66.5008 9 66.5008 9.1C66.5008 9.1 66.5008 9.2 66.6008 9.2C66.6008 9.3 66.7008 9.3 66.7008 9.4C66.9008 9.8 67.0008 9.8 67.0008 9.9C67.1008 9.9 67.1008 10 67.2008 10L67.3008 10.1L67.4008 10.2L67.5008 10.3L67.6008 10.4C67.7008 10.4 67.7008 10.5 67.8008 10.5L67.9008 10.6C68.0008 10.6 68.0008 10.7 68.1008 10.7C68.2008 10.7 68.2008 10.8 68.3008 10.8C68.4008 10.9 68.6008 11 68.7008 11C68.7008 11 68.8008 11 68.8008 11.1C68.9008 11.2 69.0008 11.2 69.1008 11.3C69.1008 11.3 69.2008 11.3 69.2008 11.4C69.3008 11.5 69.5008 11.5 69.7008 11.6H69.8008C69.9008 11.6 70.1008 11.7 70.2008 11.7C70.3008 11.7 70.3008 11.7 70.4008 11.8C70.5008 11.8 70.5008 11.8 70.6008 11.9C70.7008 11.9 70.7008 11.9 70.8008 12C70.9008 12 71.0008 12 71.0008 12.1C71.1008 12.1 71.1008 12.1 71.2008 12.1C71.3008 12.1 71.4008 12.1 71.4008 12.2C71.5008 12.2 71.5008 12.2 71.6008 12.2C71.7008 12.2 71.8008 12.2 71.8008 12.2C71.9008 12.2 71.9008 12.2 72.0008 12.2C72.2008 12.2 72.3008 12.3 72.5008 12.3C72.5008 12.3 72.5008 12.3 72.6008 12.3C72.8008 12.3 72.9008 12.3 73.1008 12.4C73.2008 12.4 73.2008 12.4 73.3008 12.4C73.4008 12.4 73.5008 12.4 73.6008 12.4C73.7008 12.4 73.7008 12.4 73.8008 12.4C73.9008 12.4 74.0008 12.4 74.1008 12.4C74.2008 12.4 74.2008 12.4 74.3008 12.4C74.4008 12.4 74.5008 12.4 74.6008 12.4C74.7008 12.4 74.7008 12.4 74.8008 12.4C74.9008 12.4 75.0008 12.4 75.1008 12.4C75.2008 12.4 75.2008 12.4 75.3008 12.4C75.4008 12.4 75.5008 12.4 75.6008 12.4C75.7008 12.4 75.7008 12.4 75.8008 12.4C75.9008 12.4 76.0008 12.4 76.1008 12.4C76.2008 12.4 76.2008 12.4 76.3008 12.4C76.4008 12.4 76.5008 12.4 76.6008 12.4H76.7008C76.8008 12.4 77.0008 12.4 77.1008 12.3C77.1008 12.3 77.1008 12.3 77.2008 12.3C77.3008 12.3 77.4008 12.3 77.6008 12.2C77.7008 12.2 77.7008 12.2 77.8008 12.2C77.9008 12.2 78.0008 12.2 78.1008 12.1H78.2008C78.3008 12.1 78.4008 12.1 78.5008 12C78.6008 12 78.6008 12 78.7008 12C78.8008 12 78.9008 12 79.0008 11.9C79.1008 11.9 79.1008 11.9 79.2008 11.9C79.3008 11.9 79.5008 11.8 79.6008 11.8H79.7008C79.9008 11.7 80.0008 11.7 80.2008 11.6C80.3008 11.6 80.3008 11.5 80.4008 11.5C80.5008 11.5 80.5008 11.5 80.6008 11.4C80.7008 11.4 80.7008 11.3 80.8008 11.3C80.8008 11.3 80.9008 11.3 80.9008 11.2C81.0008 11.2 81.1008 11.1 81.1008 11.1C81.1008 11.1 81.2008 11.1 81.2008 11C81.3008 10.9 81.4008 10.9 81.5008 10.8C83.3008 9.8 84.2008 8.4 84.2008 7L84.1008 21C84.1008 22.4 83.2008 23.7 81.4008 24.8C81.3008 24.9 81.2008 24.9 81.1008 25C81.1008 25 81.0008 25 81.0008 25.1C80.9008 25.1 80.8008 25.2 80.8008 25.2C80.8008 25.2 80.7008 25.2 80.7008 25.3C80.6008 25.3 80.6008 25.4 80.5008 25.4C80.4008 25.4 80.4008 25.4 80.3008 25.5C80.3008 25.5 80.2008 25.5 80.2008 25.6C80.0008 25.7 79.9008 25.7 79.7008 25.8H79.6008C79.5008 25.8 79.3008 25.9 79.2008 25.9C79.2008 25.9 79.2008 25.9 79.1008 25.9H79.0008C78.9008 25.9 78.8008 25.9 78.7008 26C78.6008 26 78.6008 26 78.5008 26C78.4008 26 78.3008 26 78.2008 26.1H78.1008C78.0008 26.1 77.9008 26.1 77.8008 26.2C77.7008 26.2 77.7008 26.2 77.6008 26.2C77.5008 26.2 77.4008 26.2 77.2008 26.3C77.2008 26.3 77.2008 26.3 77.1008 26.3C77.0008 26.3 76.8008 26.3 76.7008 26.4H76.6008C76.5008 26.4 76.4008 26.4 76.3008 26.4H76.2008C76.1008 26.4 76.0008 26.4 75.9008 26.4C75.8008 26.4 75.8008 26.4 75.7008 26.4C75.6008 26.4 75.5008 26.4 75.4008 26.4H75.3008C75.2008 26.4 75.1008 26.4 75.0008 26.4C74.9008 26.4 74.9008 26.4 74.8008 26.4C74.7008 26.4 74.6008 26.4 74.5008 26.4H74.4008C74.3008 26.4 74.2008 26.4 74.1008 26.4C74.0008 26.4 74.0008 26.4 73.9008 26.4C73.8008 26.4 73.7008 26.4 73.6008 26.4H73.5008C73.5008 26.4 73.5008 26.4 73.4008 26.4C73.2008 26.4 73.1008 26.4 72.9008 26.3C72.9008 26.3 72.9008 26.3 72.8008 26.3C72.6008 26.3 72.5008 26.2 72.3008 26.2H72.2008C72.1008 26.2 72.0008 26.2 72.0008 26.2C71.9008 26.2 71.9008 26.2 71.8008 26.2C71.7008 26.2 71.6008 26.2 71.6008 26.1C71.5008 26.1 71.5008 26.1 71.4008 26.1C71.3008 26.1 71.2008 26.1 71.2008 26C71.1008 26 71.1008 26 71.0008 25.9C70.9008 25.9 70.9008 25.9 70.8008 25.8H70.7008C70.7008 25.8 70.7008 25.8 70.6008 25.8C70.5008 25.8 70.3008 25.7 70.2008 25.7H70.1008C69.9008 25.6 69.8008 25.6 69.6008 25.5C69.6008 25.5 69.5008 25.5 69.5008 25.4C69.4008 25.3 69.3008 25.3 69.2008 25.2C69.2008 25.2 69.1008 25.2 69.1008 25.1C69.0008 25 68.8008 25 68.7008 24.9C68.7008 24.9 68.6008 24.9 68.6008 24.8C68.6008 24.8 68.5008 24.8 68.5008 24.7C68.4008 24.7 68.4008 24.6 68.3008 24.6L68.2008 24.5C68.1008 24.5 68.1008 24.4 68.0008 24.4L67.9008 24.3L67.8008 24.2L67.7008 24.1L67.6008 24C67.6008 24 67.6008 24 67.5008 24L67.4008 23.9C67.3008 23.8 67.3008 23.8 67.2008 23.7C67.1008 23.6 67.1008 23.6 67.1008 23.5C67.1008 23.5 67.1008 23.5 67.1008 23.4C67.1008 23.3 67.0008 23.3 67.0008 23.2C67.0008 23.2 67.0008 23.1 66.9008 23.1C66.9008 23 66.8008 23 66.8008 22.9C66.8008 22.9 66.8008 22.9 66.8008 22.8C66.8008 22.8 66.8008 22.7 66.7008 22.7C66.7008 22.7 66.7008 22.6 66.6008 22.6C66.6008 22.6 66.6008 22.5 66.5008 22.5C66.5008 22.5 66.5008 22.5 66.5008 22.4C66.5008 22.4 66.5008 22.4 66.5008 22.3V22.2V22.1V22C66.5008 22 66.5008 22 66.5008 21.9V21.8V21.7V21.6V21.5V21.4L65.8008 7.2C65.8008 7.3 65.8008 7.3 65.8008 7.4Z" fill="#EAECFD"/>
<path d="M65.8008 7.4V7.5V7.6V7.7V7.8V7.9V8V8.1V8.2C65.8008 8.2 65.8008 8.3 65.9008 8.3C65.9008 8.3 65.9008 8.4 66.0008 8.4C66.0008 8.4 66.0008 8.5 66.1008 8.5C66.1008 8.5 66.1008 8.6 66.2008 8.6C66.2008 8.7 66.3008 8.7 66.3008 8.8C66.3008 8.8 66.3008 8.9 66.4008 8.9C66.4008 9 66.5008 9 66.5008 9.1C66.5008 9.1 66.5008 9.2 66.6008 9.2C66.6008 9.3 66.7008 9.3 66.7008 9.4C66.9008 9.8 67.0008 9.8 67.0008 9.9C67.1008 9.9 67.1008 10 67.2008 10L67.3008 10.1L67.4008 10.2L67.5008 10.3L67.6008 10.4C67.7008 10.4 67.7008 10.5 67.8008 10.5L67.9008 10.6C68.0008 10.6 68.0008 10.7 68.1008 10.7C68.2008 10.7 68.2008 10.8 68.3008 10.8C68.4008 10.9 68.6008 11 68.7008 11C68.7008 11 68.8008 11 68.8008 11.1C68.9008 11.2 69.0008 11.2 69.1008 11.3C69.1008 11.3 69.2008 11.3 69.2008 11.4C69.3008 11.5 69.5008 11.5 69.7008 11.6H69.8008C69.9008 11.6 70.1008 11.7 70.2008 11.7C70.3008 11.7 70.3008 11.7 70.4008 11.8C70.5008 11.8 70.5008 11.8 70.6008 11.9C70.7008 11.9 70.7008 11.9 70.8008 12C70.9008 12 71.0008 12 71.0008 12.1C71.1008 12.1 71.1008 12.1 71.2008 12.1C71.3008 12.1 71.4008 12.1 71.4008 12.2C71.5008 12.2 71.5008 12.2 71.6008 12.2C71.7008 12.2 71.8008 12.2 71.8008 12.2C71.9008 12.2 71.9008 12.2 72.0008 12.2C72.2008 12.2 72.3008 12.3 72.5008 12.3C72.5008 12.3 72.5008 12.3 72.6008 12.3C72.8008 12.3 72.9008 12.3 73.1008 12.4C73.2008 12.4 73.2008 12.4 73.3008 12.4C73.4008 12.4 73.5008 12.4 73.6008 12.4C73.7008 12.4 73.7008 12.4 73.8008 12.4C73.9008 12.4 74.0008 12.4 74.1008 12.4C74.2008 12.4 74.2008 12.4 74.3008 12.4C74.4008 12.4 74.5008 12.4 74.6008 12.4C74.7008 12.4 74.7008 12.4 74.8008 12.4C74.9008 12.4 75.0008 12.4 75.1008 12.4C75.2008 12.4 75.2008 12.4 75.3008 12.4C75.4008 12.4 75.5008 12.4 75.6008 12.4C75.7008 12.4 75.7008 12.4 75.8008 12.4C75.9008 12.4 76.0008 12.4 76.1008 12.4C76.2008 12.4 76.2008 12.4 76.3008 12.4C76.4008 12.4 76.5008 12.4 76.6008 12.4H76.7008C76.8008 12.4 77.0008 12.4 77.1008 12.3C77.1008 12.3 77.1008 12.3 77.2008 12.3C77.3008 12.3 77.4008 12.3 77.6008 12.2C77.7008 12.2 77.7008 12.2 77.8008 12.2C77.9008 12.2 78.0008 12.2 78.1008 12.1H78.2008C78.3008 12.1 78.4008 12.1 78.5008 12C78.6008 12 78.6008 12 78.7008 12C78.8008 12 78.9008 12 79.0008 11.9C79.1008 11.9 79.1008 11.9 79.2008 11.9C79.3008 11.9 79.5008 11.8 79.6008 11.8H79.7008C79.9008 11.7 80.0008 11.7 80.2008 11.6C80.3008 11.6 80.3008 11.5 80.4008 11.5C80.5008 11.5 80.5008 11.5 80.6008 11.4C80.7008 11.4 80.7008 11.3 80.8008 11.3C80.8008 11.3 80.9008 11.3 80.9008 11.2C81.0008 11.2 81.1008 11.1 81.1008 11.1C81.1008 11.1 81.2008 11.1 81.2008 11C81.3008 10.9 81.4008 10.9 81.5008 10.8C83.3008 9.8 84.2008 8.4 84.2008 7L84.1008 21C84.1008 22.4 83.2008 23.7 81.4008 24.8C81.3008 24.9 81.2008 24.9 81.1008 25C81.1008 25 81.0008 25 81.0008 25.1C80.9008 25.1 80.8008 25.2 80.8008 25.2C80.8008 25.2 80.7008 25.2 80.7008 25.3C80.6008 25.3 80.6008 25.4 80.5008 25.4C80.4008 25.4 80.4008 25.4 80.3008 25.5C80.3008 25.5 80.2008 25.5 80.2008 25.6C80.0008 25.7 79.9008 25.7 79.7008 25.8H79.6008C79.5008 25.8 79.3008 25.9 79.2008 25.9C79.2008 25.9 79.2008 25.9 79.1008 25.9H79.0008C78.9008 25.9 78.8008 25.9 78.7008 26C78.6008 26 78.6008 26 78.5008 26C78.4008 26 78.3008 26 78.2008 26.1H78.1008C78.0008 26.1 77.9008 26.1 77.8008 26.2C77.7008 26.2 77.7008 26.2 77.6008 26.2C77.5008 26.2 77.4008 26.2 77.2008 26.3C77.2008 26.3 77.2008 26.3 77.1008 26.3C77.0008 26.3 76.8008 26.3 76.7008 26.4H76.6008C76.5008 26.4 76.4008 26.4 76.3008 26.4H76.2008C76.1008 26.4 76.0008 26.4 75.9008 26.4C75.8008 26.4 75.8008 26.4 75.7008 26.4C75.6008 26.4 75.5008 26.4 75.4008 26.4H75.3008C75.2008 26.4 75.1008 26.4 75.0008 26.4C74.9008 26.4 74.9008 26.4 74.8008 26.4C74.7008 26.4 74.6008 26.4 74.5008 26.4H74.4008C74.3008 26.4 74.2008 26.4 74.1008 26.4C74.0008 26.4 74.0008 26.4 73.9008 26.4C73.8008 26.4 73.7008 26.4 73.6008 26.4H73.5008C73.5008 26.4 73.5008 26.4 73.4008 26.4C73.2008 26.4 73.1008 26.4 72.9008 26.3C72.9008 26.3 72.9008 26.3 72.8008 26.3C72.6008 26.3 72.5008 26.2 72.3008 26.2H72.2008C72.1008 26.2 72.0008 26.2 72.0008 26.2C71.9008 26.2 71.9008 26.2 71.8008 26.2C71.7008 26.2 71.6008 26.2 71.6008 26.1C71.5008 26.1 71.5008 26.1 71.4008 26.1C71.3008 26.1 71.2008 26.1 71.2008 26C71.1008 26 71.1008 26 71.0008 25.9C70.9008 25.9 70.9008 25.9 70.8008 25.8H70.7008C70.7008 25.8 70.7008 25.8 70.6008 25.8C70.5008 25.8 70.3008 25.7 70.2008 25.7H70.1008C69.9008 25.6 69.8008 25.6 69.6008 25.5C69.6008 25.5 69.5008 25.5 69.5008 25.4C69.4008 25.3 69.3008 25.3 69.2008 25.2C69.2008 25.2 69.1008 25.2 69.1008 25.1C69.0008 25 68.8008 25 68.7008 24.9C68.7008 24.9 68.6008 24.9 68.6008 24.8C68.6008 24.8 68.5008 24.8 68.5008 24.7C68.4008 24.7 68.4008 24.6 68.3008 24.6L68.2008 24.5C68.1008 24.5 68.1008 24.4 68.0008 24.4L67.9008 24.3L67.8008 24.2L67.7008 24.1L67.6008 24C67.6008 24 67.6008 24 67.5008 24L67.4008 23.9C67.3008 23.8 67.3008 23.8 67.2008 23.7C67.1008 23.6 67.1008 23.6 67.1008 23.5C67.1008 23.5 67.1008 23.5 67.1008 23.4C67.1008 23.3 67.0008 23.3 67.0008 23.2C67.0008 23.2 67.0008 23.1 66.9008 23.1C66.9008 23 66.8008 23 66.8008 22.9C66.8008 22.9 66.8008 22.9 66.8008 22.8C66.8008 22.8 66.8008 22.7 66.7008 22.7C66.7008 22.7 66.7008 22.6 66.6008 22.6C66.6008 22.6 66.6008 22.5 66.5008 22.5C66.5008 22.5 66.5008 22.5 66.5008 22.4C66.5008 22.4 66.5008 22.4 66.5008 22.3V22.2V22.1V22C66.5008 22 66.5008 22 66.5008 21.9V21.8V21.7V21.6V21.5V21.4L65.8008 7.2C65.8008 7.3 65.8008 7.3 65.8008 7.4Z" stroke="#171A21" stroke-width="2" stroke-miterlimit="10" stroke-linecap="round" stroke-linejoin="round"/>
<path d="M68.5008 3.49999C64.9008 5.59999 64.9008 8.89999 68.5008 11C72.1008 13.1 77.8008 13.1 81.4008 11C85.0008 8.89999 85.0008 5.59999 81.4008 3.49999C77.8008 1.39999 72.0008 1.39999 68.5008 3.49999Z" fill="white" stroke="#171A21" stroke-width="2" stroke-miterlimit="10" stroke-linecap="round" stroke-linejoin="round"/>
<path d="M46.6006 126.8C46.6006 126.3 46.5006 125.9 46.4006 125.4C46.3006 124.9 46.2006 124.4 46.1006 123.9C46.0006 123.6 46.0006 123.2 45.9006 122.9C45.8006 122.6 45.7006 122.3 45.7006 121.9C45.6006 121.5 45.5006 121 45.3006 120.6C45.2006 120.3 45.1006 120.1 45.1006 119.8C44.9006 119.3 44.8006 118.8 44.6006 118.3C44.5006 118.1 44.5006 117.9 44.4006 117.7C44.1006 117 43.9006 116.3 43.6006 115.6C43.6006 115.5 43.5006 115.4 43.5006 115.4C43.2006 114.8 42.9006 114.2 42.6006 113.6C42.5006 113.4 42.4006 113.2 42.3006 113C42.0006 112.4 41.7006 111.9 41.4006 111.3C41.3006 111.2 41.3006 111.1 41.2006 111C40.8006 110.3 40.4006 109.7 40.0006 109.1C39.9006 108.9 39.8006 108.7 39.6006 108.6C39.3006 108.1 39.0006 107.7 38.7006 107.2C38.5006 107 38.4006 106.7 38.2006 106.5C37.9006 106.1 37.6006 105.8 37.3006 105.4C37.1006 105.1 36.8006 104.8 36.6006 104.5C36.4006 104.2 36.1006 104 35.9006 103.7C35.5006 103.2 35.1006 102.8 34.6006 102.4C34.3006 102.1 34.1006 101.9 33.8006 101.6C33.6006 101.4 33.4006 101.2 33.2006 101C32.8006 100.7 32.5006 100.4 32.1006 100.1C31.9006 99.9 31.7006 99.7 31.5006 99.6C31.1006 99.3 30.7006 99 30.3006 98.7C30.1006 98.6 29.9006 98.4 29.7006 98.3C29.1006 97.9 28.5006 97.5 27.9006 97.2C27.3006 96.9 26.7006 96.6 26.2006 96.3C26.1006 96.2 25.9006 96.2 25.8006 96.1C25.2006 95.9 24.7006 95.6 24.2006 95.4H24.1006C23.6006 95.2 23.2006 95.1 22.7006 95C22.4006 94.9 22.2006 94.9 21.9006 94.8C21.6006 94.7 21.2006 94.7 20.9006 94.6C20.7006 94.6 20.5006 94.6 20.3006 94.5C19.9006 94.5 19.5006 94.5 19.1006 94.5C19.0006 94.5 18.9006 94.5 18.8006 94.5C18.3006 94.5 17.9006 94.6 17.4006 94.7C17.3006 94.7 17.2006 94.8 17.1006 94.8C16.7006 94.9 16.4006 95 16.1006 95.1C16.0006 95.1 15.9006 95.2 15.8006 95.2C15.4006 95.4 15.0006 95.6 14.6006 95.8L30.0006 86.9C30.0006 86.9 30.1006 86.9 30.1006 86.8C30.4006 86.6 30.7006 86.5 31.0006 86.3C31.1006 86.3 31.1006 86.3 31.2006 86.2C31.3006 86.2 31.4006 86.1 31.5006 86.1C31.7006 86 31.8006 86 32.0006 85.9C32.2006 85.8 32.4006 85.8 32.5006 85.8C32.6006 85.8 32.7006 85.7 32.8006 85.7C32.9006 85.7 32.9006 85.7 33.0006 85.7C33.4006 85.6 33.8006 85.6 34.1006 85.6C34.1006 85.6 34.1006 85.6 34.2006 85.6C34.3006 85.6 34.4006 85.6 34.5006 85.6C34.8006 85.6 35.1006 85.6 35.4006 85.6C35.5006 85.6 35.6006 85.6 35.7006 85.6C35.9006 85.6 36.1006 85.6 36.3006 85.7C36.5006 85.7 36.6006 85.7 36.8006 85.8C37.0006 85.8 37.1006 85.9 37.3006 85.9C37.6006 85.9 37.8006 86 38.1006 86.1C38.2006 86.1 38.4006 86.2 38.5006 86.2C38.8006 86.3 39.1006 86.4 39.5006 86.5H39.6006C40.0006 86.6 40.4006 86.8 40.8006 86.9C41.0006 87 41.1006 87 41.3006 87.1C41.4006 87.2 41.6006 87.2 41.7006 87.3C42.3006 87.6 42.8006 87.9 43.4006 88.2C44.0006 88.6 44.6006 88.9 45.2006 89.3C45.4006 89.4 45.6006 89.6 45.8006 89.7C46.2006 90 46.6006 90.3 47.0006 90.6C47.2006 90.8 47.4006 91 47.6006 91.1C48.0006 91.4 48.3006 91.7 48.7006 92C48.9006 92.2 49.1006 92.4 49.3006 92.6C49.4006 92.7 49.6006 92.8 49.7006 93C49.8006 93.1 50.0006 93.3 50.1006 93.4C50.5006 93.8 50.9006 94.3 51.4006 94.7C51.5006 94.8 51.7006 95 51.8006 95.1C51.9006 95.2 52.0006 95.4 52.1006 95.5C52.3006 95.8 52.6006 96.1 52.8006 96.4C53.0006 96.6 53.1006 96.8 53.3006 97C53.4006 97.2 53.5006 97.3 53.7006 97.5C53.9006 97.7 54.1006 98 54.2006 98.2C54.3006 98.4 54.4006 98.5 54.6006 98.7C54.8006 99 55.0006 99.3 55.2006 99.6C55.3006 99.8 55.4006 100 55.6006 100.1C55.6006 100.2 55.7006 100.2 55.7006 100.3C56.0006 100.8 56.4006 101.4 56.7006 101.9C56.7006 101.9 56.7006 102 56.8006 102C56.9006 102.1 56.9006 102.2 57.0006 102.3C57.2006 102.7 57.4006 103.1 57.6006 103.4C57.7006 103.6 57.8006 103.8 57.9006 103.9C58.0006 104.1 58.1006 104.3 58.2006 104.5C58.3006 104.7 58.4006 104.8 58.4006 105C58.6006 105.4 58.8006 105.9 59.0006 106.3C59.0006 106.4 59.1006 106.5 59.1006 106.5C59.1006 106.5 59.1006 106.5 59.1006 106.6C59.3006 107.2 59.6006 107.7 59.8006 108.3C59.8006 108.4 59.9006 108.5 59.9006 108.6C60.0006 108.8 60.1006 109 60.1006 109.2C60.2006 109.5 60.3006 109.8 60.4006 110C60.5006 110.2 60.5006 110.4 60.6006 110.7C60.7006 111 60.8006 111.2 60.8006 111.5C60.8006 111.7 60.9006 111.8 60.9006 112C61.0006 112.3 61.0006 112.6 61.1006 112.9C61.2006 113.2 61.3006 113.5 61.3006 113.9C61.3006 114 61.4006 114.1 61.4006 114.2C61.4006 114.4 61.5006 114.7 61.5006 114.9C61.6006 115.4 61.7006 115.9 61.8006 116.4C61.8006 116.5 61.9006 116.7 61.9006 116.8C61.9006 117.1 62.0006 117.4 62.0006 117.7C62.0006 117.9 62.0006 118.1 62.1006 118.4C62.2006 119.1 62.2006 119.8 62.2006 120.5C62.2006 126.5 60.1006 130.7 56.7006 132.6L41.3006 141.5C44.7006 139.5 46.8006 135.3 46.8006 129.4C46.8006 128.7 46.8006 128 46.7006 127.3C46.7006 127.2 46.7006 127 46.6006 126.8Z" fill="white"/>
<path d="M61.3002 126.5C60.4002 129.4 58.8002 131.5 56.6002 132.7L41.2002 141.6" stroke="#171A21" stroke-width="2" stroke-miterlimit="10" stroke-linecap="round" stroke-linejoin="round"/>
<path d="M17.1006 94.6C16.7006 94.7 16.4006 94.8 16.1006 94.9C16.0006 94.9 15.9006 95 15.8006 95C15.4006 95.2 15.0006 95.4 14.6006 95.6L30.0006 86.7C30.0006 86.7 30.1006 86.7 30.1006 86.6C30.4006 86.4 30.7006 86.3 31.0006 86.1C31.1006 86.1 31.1006 86.1 31.2006 86C31.3006 86 31.4006 85.9 31.5006 85.9C31.7006 85.8 31.8006 85.8 32.0006 85.7C32.2006 85.6 32.4006 85.6 32.5006 85.6C32.6006 85.6 32.7006 85.5 32.8006 85.5C32.9006 85.5 32.9006 85.5 33.0006 85.5C33.4006 85.4 33.8006 85.4 34.1006 85.4C34.1006 85.4 34.1006 85.4 34.2006 85.4C34.3006 85.4 34.4006 85.4 34.5006 85.4C34.8006 85.4 35.1006 85.4 35.4006 85.4C35.5006 85.4 35.6006 85.4 35.7006 85.4C35.9006 85.4 36.1006 85.4 36.3006 85.5C36.5006 85.5 36.6006 85.5 36.8006 85.6C37.0006 85.6 37.1006 85.7 37.3006 85.7C37.6006 85.7 37.8006 85.8 38.1006 85.9C38.2006 85.9 38.4006 86 38.5006 86C38.8006 86.1 39.1006 86.2 39.5006 86.3H39.6006C40.0006 86.4 40.4006 86.6 40.8006 86.7C41.0006 86.8 41.1006 86.8 41.3006 86.9C41.4006 87 41.6006 87 41.7006 87.1C42.3006 87.4 42.8006 87.7 43.4006 88C44.0006 88.4 44.6006 88.7 45.2006 89.1" stroke="#171A21" stroke-width="2" stroke-miterlimit="10" stroke-linecap="round" stroke-linejoin="round"/>
<path d="M27.9004 96.9C17.5004 90.9 9.00039 95.7 8.90039 107.7C8.90039 119.7 17.3004 134.3 27.7004 140.3C38.1004 146.3 46.6004 141.5 46.7004 129.5C46.8004 117.5 38.4004 102.9 27.9004 96.9Z" fill="#98A2F4"/>
<path d="M26.5002 107.4C25.1002 106.6 24.0002 107.2 24.0002 108.8V114.3L19.2002 111.5C17.8002 110.7 16.7002 111.3 16.7002 112.9C16.7002 114.5 17.8002 116.5 19.2002 117.3L24.0002 120.1V125.6C24.0002 127.2 25.1002 129.2 26.5002 130C27.9002 130.8 29.0002 130.2 29.0002 128.6V123.1L33.8002 125.9C35.2002 126.7 36.3002 126.1 36.3002 124.5C36.3002 122.9 35.2002 120.9 33.8002 120.1L29.0002 117.3V111.8C29.0002 110.1 27.9002 108.2 26.5002 107.4Z" fill="white"/>
<path d="M15.5 67.2C13.3 67.2 11.5 65.4 11.5 63.2V51.6C11.5 49.4 13.3 47.6 15.5 47.6C17.7 47.6 19.5 49.4 19.5 51.6V63.2C19.5 65.4 17.7 67.2 15.5 67.2Z" fill="#EAECFD"/>
<path d="M29.5 77C27.3 77 25.5 75.2 25.5 73V40.6C25.5 38.4 27.3 36.6 29.5 36.6C31.7 36.6 33.5 38.4 33.5 40.6V73C33.5 75.2 31.7 77 29.5 77Z" fill="#EAECFD"/>
<path d="M15.5 67.2C13.3 67.2 11.5 65.4 11.5 63.2V17.7C11.5 15.5 13.3 13.7 15.5 13.7C17.7 13.7 19.5 15.5 19.5 17.7V63.2C19.5 65.4 17.7 67.2 15.5 67.2Z" stroke="#171A21" stroke-width="2" stroke-miterlimit="10" stroke-linecap="round" stroke-linejoin="round"/>
<path d="M29.5 77C27.3 77 25.5 75.2 25.5 73V27.5C25.5 25.3 27.3 23.5 29.5 23.5C31.7 23.5 33.5 25.3 33.5 27.5V73C33.5 75.2 31.7 77 29.5 77Z" stroke="#171A21" stroke-width="2" stroke-miterlimit="10" stroke-linecap="round" stroke-linejoin="round"/>
<path d="M93.5006 14.5C93.4006 14.5 93.4006 14.4 93.3006 14.4H93.2006H93.1006C93.0006 14.4 93.0006 14.4 92.9006 14.4C92.8006 14.4 92.8006 14.4 92.7006 14.4C92.6006 14.4 92.6006 14.4 92.5006 14.4H92.4006H92.3006H92.2006H92.1006L100.001 9.79999H100.101H100.201H100.301H100.401C100.401 9.79999 100.501 9.79999 100.601 9.79999C100.701 9.79999 100.701 9.79999 100.801 9.79999C100.901 9.79999 100.901 9.79999 101.001 9.79999H101.101H101.201C101.201 9.79999 101.301 9.79999 101.301 9.89999C101.401 9.89999 101.401 9.99999 101.501 9.99999L114.601 17.5C114.701 17.5 114.701 17.6 114.801 17.6C114.801 17.6 114.801 17.6 114.901 17.6L115.001 17.7C115.001 17.7 115.001 17.7 115.101 17.8L115.201 17.9C115.201 17.9 115.201 17.9 115.301 18L115.401 18.1C115.401 18.1 115.401 18.1 115.501 18.2L115.601 18.3C115.601 18.3 115.601 18.3 115.701 18.4C115.801 18.4 115.801 18.5 115.901 18.5C116.001 18.6 116.001 18.6 116.101 18.7C116.201 18.8 116.201 18.8 116.301 18.9C116.301 18.9 116.301 18.9 116.301 19C116.401 19.1 116.401 19.1 116.501 19.2C116.601 19.3 116.701 19.4 116.801 19.6C116.901 19.7 116.901 19.8 117.001 19.9C117.101 20 117.101 20.1 117.201 20.2C117.201 20.2 117.201 20.2 117.201 20.3C117.201 20.4 117.301 20.5 117.301 20.5C117.301 20.5 117.301 20.5 117.301 20.6C117.301 20.6 117.301 20.7 117.401 20.7L133.901 49.7C133.901 49.8 134.001 49.9 134.001 50C134.101 50.1 134.101 50.2 134.201 50.3C134.201 50.3 134.201 50.3 134.201 50.4C134.201 50.5 134.301 50.6 134.301 50.6C134.301 50.6 134.301 50.6 134.301 50.7C134.301 50.8 134.401 50.9 134.401 51C134.401 51.1 134.501 51.2 134.501 51.3C134.501 51.4 134.601 51.5 134.601 51.7V51.8V51.9C134.601 52 134.601 52 134.601 52.1V52.2C134.601 52.2 134.601 52.2 134.601 52.3C134.601 52.4 134.601 52.4 134.601 52.5V52.6C134.601 52.7 134.601 52.7 134.601 52.8C134.601 52.8 134.601 52.8 134.601 52.9C134.601 53 134.601 53 134.601 53.1V53.2C134.601 53.3 134.601 53.3 134.601 53.4C134.601 53.4 134.601 53.4 134.601 53.5C134.601 53.6 134.601 53.7 134.601 53.8C134.601 53.8 134.601 53.8 134.601 53.9C134.601 54 134.601 54 134.601 54.1V54.2C134.601 54.3 134.601 54.3 134.601 54.4V54.5C134.601 54.6 134.601 54.6 134.601 54.7C134.601 54.7 134.601 54.7 134.601 54.8C134.601 54.9 134.601 54.9 134.601 55C134.601 55.1 134.601 55.1 134.501 55.2C134.501 55.2 134.501 55.2 134.501 55.3C134.501 55.3 134.501 55.4 134.401 55.4C134.401 55.4 134.401 55.4 134.401 55.5C134.401 55.5 134.401 55.6 134.301 55.6C134.301 55.6 134.301 55.6 134.301 55.7C134.301 55.7 134.301 55.8 134.201 55.8C134.201 55.9 134.101 55.9 134.101 56L134.001 56.1L133.901 56.2C133.901 56.2 133.901 56.2 133.801 56.2L133.701 56.3C133.601 56.3 133.601 56.4 133.501 56.4L125.601 61C125.701 61 125.701 60.9 125.801 60.9L125.901 60.8C125.901 60.8 125.901 60.8 126.001 60.8L126.101 60.7L126.201 60.6C126.201 60.5 126.301 60.5 126.301 60.4L126.401 60.3C126.401 60.3 126.401 60.3 126.401 60.2C126.401 60.2 126.401 60.1 126.501 60.1C126.501 60.1 126.501 60.1 126.501 60C126.501 60 126.501 59.9 126.601 59.9C126.601 59.9 126.601 59.9 126.601 59.8C126.601 59.7 126.601 59.7 126.701 59.6C126.701 59.5 126.701 59.5 126.701 59.4C126.701 59.4 126.701 59.4 126.701 59.3C126.701 59.2 126.701 59.2 126.701 59.1V59C126.701 58.9 126.701 58.9 126.701 58.8V58.7C126.701 58.6 126.701 58.6 126.701 58.5C126.701 58.5 126.701 58.5 126.701 58.4C126.701 58.3 126.701 58.2 126.701 58.1C126.701 58.1 126.701 58.1 126.701 58C126.701 57.9 126.701 57.9 126.701 57.8V57.7C126.701 57.6 126.701 57.6 126.701 57.5V57.4C126.701 57.3 126.701 57.3 126.701 57.2V57.1C126.701 57 126.701 57 126.701 56.9C126.701 56.9 126.701 56.9 126.701 56.8V56.7V56.6V56.5V56.4C126.701 56.3 126.601 56.2 126.601 56V55.9C126.601 55.8 126.501 55.7 126.501 55.6C126.501 55.5 126.401 55.4 126.401 55.3V55.2C126.401 55.1 126.301 55 126.301 55V54.9C126.201 54.8 126.201 54.7 126.101 54.6C126.101 54.5 126.001 54.4 126.001 54.3L109.501 25.3L109.401 25.2C109.401 25.1 109.301 25 109.301 25V24.9C109.201 24.8 109.201 24.7 109.101 24.6C109.101 24.6 109.101 24.6 109.101 24.5C109.001 24.4 109.001 24.3 108.901 24.2C108.801 24.1 108.701 24 108.601 23.8C108.601 23.8 108.601 23.8 108.601 23.7C108.501 23.6 108.501 23.6 108.401 23.5C108.401 23.5 108.401 23.5 108.401 23.4C108.301 23.3 108.301 23.3 108.201 23.2C108.101 23.1 108.101 23.1 108.001 23C107.901 22.9 107.901 22.9 107.801 22.9C107.801 22.9 107.801 22.9 107.701 22.8L107.601 22.7C107.601 22.7 107.601 22.7 107.501 22.6L107.401 22.5C107.401 22.5 107.401 22.5 107.301 22.4L107.201 22.3C107.201 22.3 107.201 22.3 107.101 22.2L107.001 22.1C107.001 22.1 107.001 22.1 106.901 22.1C106.801 22.1 106.801 22 106.701 22L103.501 20.1C103.501 20.2 103.501 20.2 103.501 20.3C103.501 20.3 103.501 20.3 103.501 20.4V20.5V20.6V20.7C103.501 20.7 103.501 20.7 103.501 20.8C103.501 20.9 103.501 21 103.601 21.1C103.601 21.2 103.701 21.3 103.701 21.4C103.701 21.5 103.801 21.6 103.801 21.7C103.801 21.7 103.801 21.7 103.801 21.8C103.801 21.9 103.901 21.9 103.901 22C103.901 22.1 104.001 22.2 104.001 22.2C104.001 22.2 104.001 22.2 104.001 22.3C104.001 22.4 104.101 22.4 104.101 22.5C104.101 22.5 104.101 22.5 104.101 22.6C104.101 22.7 104.201 22.8 104.201 22.8C104.201 22.9 104.301 22.9 104.301 23C104.301 23 104.301 23 104.301 23.1C104.401 23.2 104.401 23.3 104.501 23.3C104.601 23.4 104.601 23.5 104.701 23.5C104.801 23.6 104.801 23.7 104.901 23.8C104.901 23.9 105.001 23.9 105.001 24C105.101 24.1 105.101 24.1 105.201 24.2C105.301 24.3 105.301 24.3 105.401 24.4C105.501 24.5 105.501 24.5 105.601 24.6C105.701 24.7 105.701 24.7 105.801 24.8C105.901 24.9 106.001 24.9 106.001 24.9C106.101 24.9 106.101 25 106.201 25C106.201 25 106.201 25 106.301 25C106.301 25 106.401 25 106.401 25.1C106.401 25.1 106.401 25.1 106.501 25.1C106.501 25.1 106.601 25.1 106.601 25.2C106.701 25.2 106.701 25.2 106.801 25.3H106.901H107.001C107.101 25.3 107.101 25.3 107.201 25.3C107.301 25.3 107.301 25.3 107.401 25.3H107.501C107.601 25.3 107.601 25.3 107.701 25.3H107.801C107.801 25.3 107.901 25.3 107.901 25.2L100.001 29.8C100.001 29.8 99.9006 29.8 99.9006 29.9H99.8006C99.8006 29.9 99.7006 29.9 99.6006 29.9H99.5006C99.4006 29.9 99.4006 29.9 99.3006 29.9C99.2006 29.9 99.2006 29.9 99.1006 29.9H99.0006H98.9006C98.8006 29.9 98.8006 29.9 98.7006 29.8C98.7006 29.8 98.6006 29.8 98.6006 29.7C98.6006 29.7 98.5006 29.7 98.5006 29.6C98.5006 29.6 98.5006 29.6 98.4006 29.6C98.3006 29.6 98.3006 29.5 98.2006 29.5C98.1006 29.5 98.0006 29.4 98.0006 29.4C97.9006 29.3 97.9006 29.3 97.8006 29.2C97.7006 29.1 97.7006 29.1 97.6006 29C97.5006 28.9 97.5006 28.9 97.4006 28.8C97.3006 28.7 97.3006 28.7 97.2006 28.6C97.1006 28.5 97.1006 28.5 97.1006 28.4C97.0006 28.3 96.9006 28.2 96.9006 28.1C96.8006 28 96.8006 27.9 96.7006 27.9C96.6006 27.8 96.6006 27.7 96.5006 27.7C96.5006 27.6 96.4006 27.6 96.4006 27.5C96.4006 27.4 96.3006 27.3 96.3006 27.3C96.3006 27.2 96.2006 27.2 96.2006 27.1C96.2006 27 96.1006 26.9 96.1006 26.9C96.1006 26.8 96.0006 26.8 96.0006 26.7C96.0006 26.6 95.9006 26.5 95.9006 26.4C95.9006 26.3 95.8006 26.2 95.8006 26.1C95.8006 26 95.7006 25.9 95.7006 25.8V25.7V25.6V25.5C95.7006 25.5 95.7006 25.5 95.7006 25.4C95.7006 25.3 95.7006 25.2 95.7006 25.1C95.7006 25.1 95.7006 25.1 95.7006 25C95.7006 24.9 95.7006 24.8 95.7006 24.7C95.7006 23.7 96.0006 23.1 96.6006 22.8L102.001 19.6L93.7006 14.9C93.7006 14.5 93.6006 14.5 93.5006 14.5Z" fill="#98A2F4"/>
<path d="M93.7 14.6L106.8 22.1C107.9 22.7 109 23.9 109.7 25.2L126.2 54.2C127.8 56.9 127.7 59.9 126.2 60.8L114.9 67.3C114.1 67.8 113 67.6 112 67C111 66.4 109.9 65.4 109.1 64L92.2 35.2C91.4 33.9 91 32.4 91 31.1L91.1 16.1C91.1 14.4 92.3 13.7 93.7 14.6Z" fill="#EAECFD"/>
<path d="M104.5 56.1L109.1 64C109.9 65.4 110.9 66.4 112 67C113.1 67.6 114.1 67.8 114.9 67.3L126.2 60.8C127.8 59.9 127.8 56.9 126.2 54.2" stroke="#171A21" stroke-width="2" stroke-miterlimit="10" stroke-linecap="round" stroke-linejoin="round"/>
<path d="M93.7 14.6C92.3 13.8 91.1 14.4 91.1 16.1L91 31.1C91 32.4 91.4 33.9 92.2 35.2L94.2 38.7" stroke="#171A21" stroke-width="2" stroke-miterlimit="10" stroke-linecap="round" stroke-linejoin="round"/>
<path d="M97.7002 27.7C96.0002 26.7 94.7002 24.4 94.7002 22.5C94.7002 20.6 96.1002 19.8 97.7002 20.8C99.4002 21.8 100.7 24.1 100.7 26C100.7 27.9 99.4002 28.7 97.7002 27.7Z" fill="#98A2F4"/>
<path d="M90.5008 15.2C88.3008 14.3 86.4008 14 84.3008 13.9" stroke="#171A21" stroke-width="2" stroke-miterlimit="10" stroke-linecap="round" stroke-linejoin="round"/>
<path d="M65.2004 14.1C64.8004 14.3 64.4004 14.5 63.9004 14.7C56.2004 18.8 56.1004 25.4 63.8004 29.5C71.5004 33.6 84.0004 33.6 91.7004 29.5C95.2004 27.6 97.1004 25.3 97.5004 22.8" stroke="#171A21" stroke-width="2" stroke-miterlimit="10" stroke-linecap="round" stroke-linejoin="round"/>
</svg>
