<svg width="499" height="487" viewBox="0 0 499 487" fill="none" xmlns="http://www.w3.org/2000/svg">
<path d="M484.59 144.056C484.408 143.783 484.227 143.511 484.045 143.238C484.045 143.147 483.954 143.147 483.954 143.056C483.772 142.784 483.591 142.602 483.5 142.329C483.5 142.239 483.409 142.239 483.409 142.148C483.227 141.875 483.046 141.603 482.773 141.33C482.682 141.239 482.682 141.239 482.591 141.148C482.41 140.876 482.228 140.694 482.046 140.512L481.955 140.422C481.683 140.149 481.501 139.967 481.229 139.695C481.138 139.604 481.138 139.604 481.047 139.513C480.865 139.331 480.593 139.15 480.411 138.968L480.32 138.877C480.047 138.695 479.775 138.423 479.502 138.241C479.411 138.15 479.411 138.15 479.321 138.059C479.139 137.878 478.866 137.696 478.685 137.605C478.594 137.514 478.503 137.514 478.412 137.423C478.14 137.242 477.776 137.06 477.504 136.878C477.504 136.878 477.504 136.878 477.413 136.878C477.14 136.697 476.777 136.515 476.504 136.333C476.413 136.242 476.322 136.242 476.232 136.151C476.05 136.061 475.777 135.879 475.596 135.788C475.414 135.697 475.323 135.606 475.141 135.606C474.96 135.515 474.687 135.425 474.505 135.334C474.324 135.243 474.233 135.243 474.051 135.152C473.779 135.061 473.597 134.97 473.324 134.88C473.143 134.789 473.052 134.789 472.87 134.698C472.598 134.607 472.325 134.516 472.052 134.425C471.962 134.425 471.78 134.334 471.689 134.334C471.326 134.244 470.962 134.062 470.599 133.971C470.508 133.971 470.326 133.88 470.235 133.88C470.054 133.789 469.781 133.789 469.599 133.698C469.418 133.698 469.327 133.608 469.145 133.608C468.963 133.517 468.691 133.517 468.509 133.426C468.327 133.426 468.237 133.335 468.055 133.335C467.782 133.244 467.601 133.244 467.328 133.153C467.237 133.153 467.055 133.062 466.965 133.062C466.692 132.972 466.419 132.972 466.147 132.881C466.056 132.881 465.965 132.881 465.874 132.79C465.511 132.699 465.148 132.699 464.784 132.608C464.693 132.608 464.602 132.608 464.602 132.608C464.33 132.608 463.966 132.517 463.694 132.517C463.24 132.426 462.785 132.426 462.331 132.426C462.24 132.426 462.24 132.426 462.149 132.426C461.695 132.426 461.332 132.336 460.877 132.336C460.696 132.336 460.514 132.336 460.423 132.336C460.06 132.336 459.787 132.336 459.424 132.336C459.242 132.336 459.06 132.336 458.879 132.336C458.515 132.336 458.243 132.336 457.879 132.336C457.698 132.336 457.516 132.336 457.334 132.336C456.88 132.336 456.516 132.336 456.062 132.336C455.971 132.336 455.88 132.336 455.79 132.336C455.245 132.336 454.79 132.426 454.245 132.426C454.063 132.426 453.973 132.426 453.791 132.426C453.427 132.426 453.064 132.517 452.701 132.517C452.519 132.517 452.337 132.517 452.156 132.608C451.792 132.608 451.429 132.699 451.156 132.699C450.974 132.699 450.793 132.699 450.611 132.79C449.884 132.881 449.248 132.972 448.521 133.062C448.431 133.062 448.249 133.062 448.158 133.153C447.431 133.244 446.704 133.426 445.978 133.517C445.251 133.698 444.524 133.789 443.797 133.971C443.706 133.971 443.524 134.062 443.434 134.062C442.707 134.244 441.98 134.425 441.253 134.607C441.071 134.698 440.89 134.698 440.617 134.789C440.345 134.88 440.072 134.97 439.8 135.061C439.527 135.152 439.345 135.152 439.073 135.243C438.8 135.334 438.528 135.425 438.255 135.515C437.982 135.606 437.801 135.697 437.528 135.697C437.256 135.788 436.983 135.879 436.71 135.97C436.438 136.061 436.256 136.151 435.984 136.242C435.711 136.333 435.439 136.424 435.166 136.515C434.984 136.606 434.803 136.697 434.53 136.697C433.803 136.969 432.985 137.242 432.259 137.514C432.077 137.605 431.986 137.605 431.804 137.696C430.987 137.969 430.26 138.332 429.442 138.604C429.17 138.695 428.806 138.877 428.534 139.059C428.352 139.15 428.261 139.15 428.079 139.24C427.625 139.422 427.08 139.695 426.626 139.876C425.899 140.24 425.172 140.603 424.445 140.967C424.082 141.148 423.718 141.33 423.446 141.512C422.992 141.694 422.628 141.966 422.174 142.148C421.811 142.329 421.447 142.511 421.175 142.693C420.811 142.875 420.357 143.147 419.993 143.329C419.63 143.511 419.267 143.692 418.994 143.965C418.631 144.147 418.267 144.419 417.904 144.601C417.54 144.783 417.268 145.055 416.904 145.237C416.541 145.509 416.178 145.691 415.814 145.964C415.451 146.236 414.997 146.509 414.633 146.781C414.361 146.963 413.997 147.236 413.725 147.417C413.361 147.69 412.998 147.962 412.544 148.235C412.271 148.417 411.998 148.689 411.635 148.871C410.908 149.416 410.272 149.961 409.545 150.506C409.455 150.506 409.455 150.597 409.364 150.597C408.728 151.142 408.092 151.596 407.547 152.142C407.001 152.596 406.547 153.05 406.093 153.414C406.002 153.504 405.911 153.595 405.82 153.686C405.366 154.05 405.003 154.413 404.639 154.867C404.458 155.049 404.367 155.14 404.185 155.321C403.822 155.685 403.367 156.139 403.004 156.503C402.913 156.593 402.822 156.684 402.822 156.684C402.55 156.957 402.277 157.32 402.005 157.593C401.823 157.775 401.55 158.047 401.369 158.229C401.096 158.592 400.823 158.865 400.551 159.228C400.369 159.41 400.187 159.682 400.006 159.864C399.733 160.228 399.461 160.591 399.188 160.954C399.006 161.136 398.916 161.318 398.734 161.499C398.28 162.045 397.916 162.59 397.553 163.135C397.371 163.407 397.189 163.68 397.008 163.953C396.917 164.043 396.917 164.134 396.826 164.225C396.735 164.407 396.553 164.589 396.463 164.77C396.372 164.861 396.372 164.952 396.281 165.043C396.19 165.224 396.099 165.406 396.008 165.497C395.917 165.588 395.827 165.77 395.827 165.86C395.736 166.042 395.645 166.133 395.554 166.315C395.463 166.406 395.463 166.587 395.372 166.678C395.281 166.86 395.191 166.951 395.1 167.132C395.009 167.223 395.009 167.405 394.918 167.496C394.827 167.678 394.736 167.768 394.645 167.95C394.555 168.041 394.555 168.223 394.464 168.313C394.373 168.495 394.282 168.586 394.282 168.768C394.191 168.859 394.191 169.04 394.1 169.131C394.009 169.313 393.919 169.404 393.919 169.585C393.828 169.676 393.828 169.858 393.737 169.949C393.646 170.131 393.646 170.221 393.555 170.403C393.464 170.494 393.464 170.676 393.374 170.767C393.283 170.948 393.283 171.039 393.192 171.221C393.101 171.312 393.101 171.493 393.01 171.584C392.919 171.766 392.919 171.857 392.828 172.038C392.828 172.129 392.738 172.311 392.738 172.402C392.647 172.584 392.647 172.674 392.556 172.856C392.556 172.947 392.465 173.038 392.465 173.22C392.374 173.401 392.374 173.583 392.283 173.674C392.283 173.765 392.192 173.856 392.192 173.946C392.102 174.128 392.102 174.31 392.011 174.492C392.011 174.582 391.92 174.673 391.92 174.764C391.829 175.037 391.829 175.309 391.738 175.491C391.647 175.763 391.647 176.036 391.556 176.309C391.556 176.399 391.556 176.49 391.466 176.581C391.466 176.763 391.375 176.945 391.375 177.126C391.375 177.217 391.375 177.308 391.284 177.399C391.284 177.581 391.193 177.671 391.193 177.853C391.193 177.944 391.193 178.035 391.193 178.216C391.193 178.398 391.193 178.489 391.102 178.671C391.102 178.762 391.102 178.852 391.102 179.034C391.102 179.216 391.102 179.307 391.102 179.488C391.102 179.579 391.102 179.67 391.102 179.852C391.102 180.034 391.102 180.124 391.102 180.306C391.102 180.397 391.102 180.579 391.102 180.67C391.102 180.851 391.102 180.942 391.102 181.124C391.102 181.215 391.102 181.396 391.102 181.487C391.102 181.669 391.102 181.76 391.102 181.941C391.102 182.032 391.102 182.123 391.102 182.305C391.102 182.487 391.102 182.577 391.102 182.759C391.102 182.85 391.102 182.941 391.102 183.123C391.102 183.304 391.102 183.395 391.193 183.577C391.193 183.668 391.193 183.759 391.193 183.94C391.193 184.122 391.193 184.213 391.284 184.395C391.284 184.485 391.284 184.576 391.375 184.758C391.375 184.94 391.466 185.03 391.466 185.212C391.466 185.303 391.466 185.394 391.556 185.485C391.556 185.666 391.647 185.757 391.647 185.939C391.647 186.03 391.738 186.121 391.738 186.212C391.738 186.393 391.829 186.484 391.829 186.666C391.829 186.757 391.829 186.848 391.92 186.938C392.011 187.12 392.102 187.393 392.102 187.574C392.102 187.574 392.102 187.574 392.102 187.665C392.192 187.847 392.192 187.938 392.283 188.119C392.283 188.21 392.374 188.301 392.374 188.392C392.465 188.665 392.556 188.846 392.647 189.119C392.374 188.574 392.102 187.938 391.829 187.302L391.466 186.575C391.102 185.848 390.739 185.121 390.466 184.395L390.012 183.304C389.921 183.032 389.739 182.759 389.649 182.487L389.103 181.305C388.74 180.488 388.377 179.67 387.922 178.852L387.559 178.035C387.377 177.671 387.195 177.308 387.105 176.945L385.56 174.037C385.469 173.765 385.288 173.492 385.197 173.31L384.379 171.493C384.288 171.221 384.197 171.039 384.106 170.767V170.676C384.016 170.494 383.925 170.312 383.834 170.04C383.743 169.858 383.652 169.585 383.652 169.404C383.652 169.313 383.652 169.222 383.561 169.131C383.47 168.949 383.471 168.859 383.471 168.677C383.471 168.586 383.38 168.495 383.38 168.404C383.38 168.223 383.289 168.132 383.289 167.95C383.289 167.859 383.289 167.768 383.198 167.678C383.198 167.496 383.107 167.405 383.107 167.223C383.107 167.132 383.107 167.042 383.016 166.86C383.016 166.678 383.016 166.587 382.925 166.406C382.925 166.315 382.925 166.224 382.925 166.042C382.925 165.86 382.925 165.77 382.835 165.588C382.835 165.497 382.835 165.406 382.835 165.224C382.835 165.043 382.835 164.952 382.835 164.77C382.835 164.679 382.835 164.589 382.835 164.407C382.835 164.225 382.835 164.134 382.835 163.953C382.835 163.862 382.835 163.771 382.835 163.589C382.835 163.407 382.835 163.317 382.835 163.135C382.835 163.044 382.835 162.862 382.835 162.771C382.835 162.59 382.835 162.499 382.835 162.317C382.835 162.226 382.835 162.135 382.835 161.954C382.835 161.772 382.835 161.681 382.835 161.499C382.835 161.409 382.835 161.318 382.835 161.136C382.835 160.954 382.835 160.864 382.925 160.682C382.925 160.591 382.925 160.5 382.925 160.318C382.925 160.137 383.016 160.046 383.016 159.864C383.016 159.773 383.016 159.682 383.107 159.592C383.107 159.41 383.198 159.228 383.198 159.046C383.198 158.956 383.198 158.865 383.289 158.774C383.38 158.501 383.38 158.229 383.471 157.956C383.561 157.684 383.561 157.411 383.652 157.229C383.652 157.139 383.743 157.048 383.743 156.957C383.834 156.775 383.834 156.593 383.925 156.412C383.925 156.321 384.016 156.23 384.016 156.139C384.106 155.957 384.106 155.776 384.197 155.685C384.197 155.594 384.288 155.503 384.288 155.321C384.379 155.14 384.379 155.049 384.47 154.867C384.47 154.776 384.561 154.595 384.561 154.504C384.652 154.322 384.652 154.231 384.742 154.05C384.833 153.959 384.833 153.777 384.924 153.686C385.015 153.504 385.015 153.414 385.106 153.232C385.197 153.141 385.197 152.959 385.288 152.868C385.378 152.687 385.378 152.596 385.469 152.414C385.56 152.323 385.56 152.142 385.651 152.051C385.742 151.869 385.833 151.778 385.833 151.597C385.924 151.506 385.924 151.324 386.014 151.233C386.105 151.051 386.196 150.961 386.196 150.779C386.287 150.688 386.287 150.506 386.378 150.415C386.469 150.234 386.56 150.143 386.65 149.961C386.741 149.87 386.741 149.689 386.832 149.598C386.923 149.416 387.014 149.325 387.105 149.143C387.195 149.053 387.195 148.871 387.286 148.78C387.377 148.598 387.468 148.507 387.559 148.326C387.65 148.235 387.65 148.053 387.741 147.962C387.831 147.781 387.922 147.599 388.013 147.508C388.104 147.417 388.104 147.326 388.195 147.236C388.286 147.054 388.467 146.872 388.558 146.69C388.649 146.6 388.649 146.509 388.74 146.418C388.922 146.145 389.103 145.873 389.285 145.6C389.649 145.055 390.103 144.51 390.466 143.965C390.648 143.783 390.739 143.601 390.92 143.42C391.193 143.056 391.466 142.693 391.738 142.329C391.92 142.148 392.102 141.875 392.283 141.694C392.556 141.33 392.828 141.058 393.101 140.694C393.283 140.512 393.555 140.24 393.737 140.058C394.009 139.786 394.282 139.513 394.555 139.24C394.555 139.24 394.555 139.15 394.645 139.15C394.736 139.059 394.827 138.968 394.827 138.968C395.191 138.604 395.645 138.15 396.008 137.787C396.19 137.605 396.281 137.514 396.463 137.333C396.826 136.969 397.28 136.606 397.644 136.151C397.734 136.061 397.825 135.97 397.916 135.879C398.37 135.515 398.825 135.061 399.279 134.698C399.37 134.698 399.37 134.607 399.461 134.607C400.097 134.062 400.642 133.608 401.278 133.062C401.369 133.062 401.369 132.972 401.459 132.972C402.095 132.426 402.822 131.881 403.549 131.336L403.64 131.245C403.912 131.064 404.094 130.882 404.367 130.7C404.73 130.428 405.094 130.155 405.548 129.883C405.82 129.701 406.184 129.428 406.456 129.247C406.82 128.974 407.183 128.702 407.637 128.429C407.728 128.338 407.819 128.338 407.91 128.247C408.183 128.066 408.455 127.884 408.728 127.702C409.091 127.52 409.364 127.248 409.727 127.066C410.09 126.794 410.454 126.612 410.817 126.43C411.181 126.248 411.544 125.976 411.817 125.794C411.908 125.794 411.998 125.703 411.998 125.703C412.271 125.522 412.634 125.34 412.998 125.158C413.361 124.977 413.725 124.795 413.997 124.613C414.361 124.431 414.815 124.159 415.269 123.977C415.633 123.795 415.996 123.614 416.269 123.432C416.359 123.432 416.359 123.341 416.45 123.341C417.086 122.978 417.813 122.705 418.449 122.342C418.903 122.16 419.448 121.888 419.903 121.706C420.084 121.615 420.175 121.524 420.357 121.524C420.629 121.433 420.902 121.252 421.265 121.161H421.356C422.174 120.797 422.901 120.525 423.718 120.252C423.9 120.161 423.991 120.161 424.173 120.07C424.9 119.798 425.717 119.525 426.444 119.253C426.535 119.253 426.535 119.253 426.626 119.162C426.807 119.071 426.898 119.071 427.08 118.98C427.353 118.889 427.625 118.798 427.898 118.708C428.17 118.617 428.352 118.526 428.625 118.435C428.897 118.344 429.17 118.253 429.442 118.163C429.715 118.072 429.896 117.981 430.169 117.981C430.442 117.89 430.714 117.799 430.987 117.708C431.259 117.617 431.441 117.617 431.714 117.527C431.986 117.436 432.259 117.345 432.531 117.254C432.713 117.254 432.804 117.163 432.986 117.163C433.076 117.163 433.076 117.163 433.167 117.163C433.894 116.981 434.621 116.8 435.348 116.618C435.439 116.618 435.62 116.527 435.711 116.527C436.438 116.345 437.165 116.164 437.892 116.073C438.618 115.891 439.345 115.8 440.072 115.709C440.163 115.709 440.345 115.709 440.435 115.619C441.162 115.528 441.798 115.437 442.525 115.346C442.616 115.346 442.616 115.346 442.707 115.346C442.798 115.346 442.888 115.346 443.07 115.346C443.434 115.346 443.797 115.255 444.07 115.255C444.251 115.255 444.433 115.255 444.615 115.164C444.978 115.164 445.342 115.074 445.705 115.074C445.887 115.074 445.978 115.074 446.159 115.074C446.704 115.074 447.159 114.983 447.704 114.983C447.795 114.983 447.885 114.983 447.976 114.983C448.431 114.983 448.794 114.983 449.248 114.983C449.43 114.983 449.612 114.983 449.793 114.983C450.157 114.983 450.429 114.983 450.793 114.983C450.974 114.983 451.156 114.983 451.338 114.983C451.701 114.983 451.974 114.983 452.337 114.983C452.519 114.983 452.701 114.983 452.791 114.983C453.246 114.983 453.609 114.983 454.063 115.074C454.154 115.074 454.154 115.074 454.245 115.074C454.699 115.074 455.154 115.164 455.608 115.164H455.699C455.971 115.164 456.244 115.255 456.516 115.255C456.607 115.255 456.698 115.255 456.698 115.255C457.062 115.346 457.425 115.346 457.788 115.437C457.879 115.437 457.97 115.437 458.061 115.528C458.334 115.528 458.606 115.619 458.879 115.709C458.97 115.709 459.151 115.8 459.242 115.8C459.515 115.8 459.696 115.891 459.969 115.982C460.151 115.982 460.241 116.073 460.423 116.073C460.605 116.164 460.877 116.164 461.059 116.255C461.241 116.255 461.332 116.345 461.513 116.345C461.695 116.436 461.968 116.436 462.149 116.527C462.24 116.527 462.331 116.618 462.422 116.618H462.513C462.876 116.709 463.24 116.8 463.603 116.981C463.603 116.981 463.603 116.981 463.694 116.981C463.785 116.981 463.966 117.072 464.057 117.072C464.33 117.163 464.602 117.254 464.875 117.345C465.057 117.436 465.148 117.436 465.329 117.527C465.602 117.617 465.784 117.708 466.056 117.799C466.238 117.89 466.329 117.89 466.51 117.981C466.692 118.072 466.965 118.163 467.146 118.253C467.328 118.344 467.419 118.435 467.601 118.435C467.691 118.526 467.782 118.526 467.873 118.617C467.964 118.708 468.146 118.708 468.237 118.798C468.327 118.889 468.418 118.889 468.509 118.98C468.782 119.162 469.145 119.344 469.418 119.525C469.418 119.525 469.418 119.525 469.508 119.525C469.781 119.707 470.144 119.889 470.417 120.07C470.508 120.161 470.599 120.161 470.69 120.252C470.78 120.343 470.962 120.434 471.053 120.525C471.144 120.616 471.235 120.706 471.326 120.797C471.416 120.888 471.507 120.888 471.507 120.979C471.78 121.161 472.052 121.433 472.325 121.615C472.416 121.615 472.416 121.706 472.416 121.706C472.598 121.888 472.87 122.069 473.052 122.251C473.143 122.342 473.143 122.342 473.233 122.433C473.324 122.433 473.324 122.523 473.415 122.523C473.597 122.705 473.779 122.887 473.96 123.069L474.051 123.159C474.233 123.341 474.415 123.614 474.596 123.795C474.687 123.886 474.687 123.886 474.778 123.977C474.96 124.25 475.141 124.431 475.323 124.704C475.323 124.704 475.323 124.795 475.414 124.795C475.414 124.886 475.505 124.886 475.505 124.977C475.687 125.249 475.868 125.431 475.959 125.703C475.959 125.794 476.05 125.794 476.05 125.885C476.232 126.158 476.413 126.43 476.595 126.703C476.595 126.794 476.686 126.794 476.686 126.884C476.777 126.975 476.777 127.157 476.868 127.248C476.958 127.43 477.049 127.611 477.14 127.793L485.044 144.692C484.863 144.419 484.772 144.056 484.59 143.783C484.681 144.147 484.59 144.147 484.59 144.056Z" fill="#2F58FF"/>
<path d="M373.204 177.581C373.295 177.853 373.477 178.126 373.658 178.398C373.658 178.398 373.658 178.489 373.749 178.489C373.84 178.671 374.022 178.943 374.113 179.125C374.203 179.216 374.203 179.307 374.294 179.398C374.385 179.579 374.476 179.761 374.567 179.852C374.658 179.943 374.658 180.034 374.749 180.124C374.839 180.306 374.93 180.397 375.021 180.579C375.112 180.67 375.203 180.76 375.203 180.851C375.294 181.033 375.385 181.124 375.475 181.306C375.566 181.396 375.657 181.487 375.748 181.578C375.839 181.669 375.93 181.851 376.111 181.942C376.202 182.032 376.293 182.123 376.384 182.214C376.475 182.305 376.656 182.487 376.747 182.577C376.838 182.668 376.929 182.759 377.02 182.85C377.111 183.032 377.292 183.123 377.383 183.213C377.474 183.304 377.565 183.395 377.656 183.486C377.838 183.668 378.11 183.94 378.292 184.122C378.564 184.304 378.746 184.576 379.019 184.758C379.11 184.849 379.2 184.849 379.291 184.94C379.473 185.031 379.655 185.212 379.746 185.303C379.836 185.394 379.927 185.485 380.018 185.485C380.2 185.576 380.291 185.757 380.472 185.848C380.563 185.939 380.654 186.03 380.745 186.03C380.927 186.212 381.108 186.302 381.381 186.484C381.472 186.575 381.563 186.575 381.653 186.666C381.926 186.848 382.199 187.029 382.562 187.211L382.653 187.302C382.925 187.484 383.198 187.574 383.47 187.756C383.561 187.847 383.652 187.847 383.743 187.938C383.925 188.029 384.197 188.21 384.379 188.301C384.47 188.392 384.561 188.392 384.652 188.483C385.015 188.665 385.378 188.846 385.742 189.028C385.833 189.028 385.833 189.119 385.924 189.119C386.287 189.301 386.65 189.391 386.923 189.573C387.014 189.573 387.105 189.664 387.195 189.664C387.559 189.846 388.013 189.937 388.377 190.118C388.467 190.118 388.558 190.209 388.649 190.209C389.013 190.3 389.376 190.482 389.739 190.573C389.83 190.573 389.921 190.663 389.921 190.663C390.375 190.754 390.739 190.936 391.193 191.027C391.284 191.027 391.375 191.118 391.466 191.118C391.829 191.209 392.283 191.299 392.647 191.481C392.737 191.481 392.738 191.481 392.828 191.481C393.283 191.572 393.737 191.663 394.191 191.754C394.282 191.754 394.373 191.754 394.555 191.845C395.009 191.935 395.463 192.026 395.917 192.117C396.462 192.208 397.008 192.299 397.553 192.39C397.644 192.39 397.825 192.39 397.916 192.48C398.461 192.571 399.006 192.662 399.551 192.662C399.642 192.662 399.733 192.662 399.915 192.662C400.278 192.662 400.642 192.753 400.914 192.753C401.096 192.753 401.278 192.753 401.369 192.753C401.641 192.753 402.005 192.844 402.277 192.844C402.459 192.844 402.641 192.844 402.822 192.844C403.186 192.844 403.458 192.844 403.822 192.935C404.003 192.935 404.094 192.935 404.276 192.935C404.73 192.935 405.184 192.935 405.73 192.935C406.547 192.935 407.365 192.935 408.183 192.935C408.455 192.935 408.728 192.935 409 192.935C409.545 192.935 410.09 192.935 410.636 192.844C410.999 192.844 411.272 192.844 411.635 192.753C412.18 192.753 412.634 192.662 413.179 192.662C413.543 192.662 413.906 192.571 414.27 192.571C414.815 192.48 415.269 192.48 415.814 192.39C416.178 192.39 416.541 192.299 416.904 192.208C417.45 192.117 418.086 192.026 418.631 191.935C418.994 191.845 419.357 191.845 419.63 191.754C420.266 191.663 420.902 191.572 421.447 191.39C421.72 191.299 422.083 191.299 422.356 191.209C423.173 191.027 423.991 190.845 424.809 190.663C424.9 190.663 424.99 190.573 425.172 190.573C426.081 190.391 427.08 190.118 427.989 189.846C428.715 189.664 429.533 189.482 430.26 189.21C430.442 189.21 430.532 189.119 430.714 189.028C431.35 188.846 431.986 188.665 432.622 188.483C432.895 188.392 433.076 188.301 433.349 188.21C433.985 188.029 434.53 187.847 435.166 187.574C435.348 187.484 435.62 187.393 435.802 187.393C436.529 187.12 437.346 186.848 438.073 186.575C438.255 186.484 438.437 186.484 438.528 186.393C439.254 186.121 439.981 185.848 440.708 185.576C440.799 185.576 440.89 185.485 440.89 185.485C441.617 185.212 442.434 184.849 443.161 184.485C443.343 184.395 443.524 184.304 443.706 184.213C444.524 183.849 445.251 183.486 446.068 183.123C446.977 182.668 447.885 182.214 448.794 181.76C449.248 181.578 449.702 181.306 450.157 181.124C450.702 180.851 451.156 180.579 451.701 180.306C452.155 180.034 452.61 179.852 452.973 179.579C453.427 179.307 453.973 179.034 454.427 178.762C454.881 178.489 455.335 178.217 455.699 178.035C456.153 177.762 456.607 177.49 457.062 177.217C457.516 176.945 457.879 176.672 458.334 176.399C458.788 176.127 459.242 175.854 459.696 175.582C460.151 175.218 460.696 174.946 461.15 174.582C461.513 174.31 461.968 174.037 462.331 173.765C462.785 173.401 463.33 173.038 463.785 172.765C464.148 172.493 464.512 172.22 464.875 171.948C464.966 171.857 465.057 171.766 465.238 171.675C465.965 171.13 466.601 170.585 467.328 170.04L467.419 169.949C468.146 169.404 468.782 168.859 469.418 168.314C469.508 168.223 469.69 168.132 469.781 168.041C470.417 167.496 471.053 166.86 471.689 166.315C471.78 166.224 471.871 166.133 472.052 166.042C472.597 165.588 473.052 165.043 473.597 164.589C473.779 164.407 473.96 164.225 474.142 164.043C474.596 163.589 475.141 163.044 475.596 162.59C475.686 162.499 475.777 162.408 475.868 162.317C476.232 161.954 476.595 161.59 476.958 161.136C477.231 160.864 477.504 160.591 477.776 160.318C478.14 159.955 478.503 159.501 478.775 159.137C478.957 158.865 479.23 158.592 479.502 158.32C479.866 157.865 480.229 157.411 480.593 156.957C480.774 156.775 480.956 156.503 481.138 156.321C481.683 155.685 482.137 154.958 482.591 154.322C490.314 143.329 492.858 131.881 488.588 122.614L496.492 139.513C500.762 148.871 498.127 160.228 490.496 171.221C490.041 171.857 489.496 172.584 489.042 173.22C488.86 173.401 488.678 173.674 488.497 173.856C488.133 174.31 487.77 174.764 487.407 175.218C487.225 175.491 486.952 175.763 486.771 176.036C486.407 176.399 486.135 176.854 485.771 177.217C485.499 177.49 485.226 177.762 484.953 178.035C484.59 178.398 484.318 178.762 483.954 179.125L483.863 179.216C483.772 179.307 483.682 179.398 483.591 179.488C483.136 179.943 482.591 180.488 482.137 180.942C481.955 181.124 481.774 181.306 481.592 181.487C481.047 181.942 480.593 182.487 480.047 182.941C479.957 183.032 479.866 183.123 479.684 183.213C479.139 183.668 478.594 184.213 478.049 184.667C477.958 184.758 477.867 184.849 477.776 184.94C477.685 185.031 477.504 185.121 477.413 185.212C476.777 185.757 476.05 186.302 475.414 186.848L475.323 186.938C474.687 187.484 473.96 188.029 473.233 188.574C473.143 188.665 473.052 188.756 472.87 188.846C472.779 188.937 472.688 188.937 472.688 189.028C472.416 189.21 472.052 189.482 471.78 189.664C471.326 190.027 470.871 190.391 470.326 190.663C469.963 190.936 469.599 191.209 469.145 191.481C468.691 191.845 468.146 192.117 467.691 192.48C467.601 192.571 467.51 192.571 467.419 192.662C467.055 192.844 466.692 193.116 466.329 193.298C465.874 193.571 465.511 193.843 465.057 194.116C464.602 194.388 464.148 194.661 463.694 194.934C463.24 195.206 462.785 195.479 462.422 195.66C462.331 195.751 462.24 195.751 462.149 195.842C461.786 196.024 461.332 196.296 460.968 196.478C460.514 196.751 460.151 196.932 459.696 197.205C459.151 197.477 458.697 197.75 458.152 198.023C457.698 198.204 457.243 198.477 456.789 198.659C456.698 198.659 456.607 198.749 456.607 198.749C455.79 199.204 454.881 199.567 454.063 199.93C453.246 200.294 452.519 200.657 451.701 201.021C451.52 201.112 451.338 201.202 451.156 201.293C450.974 201.384 450.793 201.475 450.611 201.566C450.066 201.838 449.43 202.02 448.885 202.293C448.794 202.293 448.703 202.383 448.703 202.383C447.976 202.656 447.249 202.929 446.523 203.201C446.341 203.292 446.159 203.292 446.068 203.383C445.432 203.655 444.706 203.837 444.07 204.11C443.979 204.11 443.888 204.201 443.797 204.201C443.615 204.291 443.343 204.382 443.161 204.382C442.525 204.564 441.98 204.746 441.344 205.018C441.071 205.109 440.89 205.2 440.617 205.291C439.981 205.472 439.345 205.654 438.709 205.836C438.528 205.927 438.437 205.927 438.255 206.018C437.528 206.199 436.892 206.381 436.165 206.563C436.074 206.563 436.074 206.563 435.984 206.563C435.075 206.835 434.076 207.017 433.167 207.29C433.076 207.29 432.985 207.38 432.804 207.38C431.986 207.562 431.168 207.744 430.351 207.926C430.078 208.016 429.715 208.016 429.442 208.107C428.806 208.198 428.17 208.38 427.625 208.471C427.262 208.562 426.898 208.562 426.626 208.652C426.081 208.743 425.445 208.834 424.9 208.925C424.718 208.925 424.536 209.016 424.264 209.016C424.082 209.016 423.991 209.016 423.809 209.107C423.264 209.197 422.81 209.197 422.265 209.288C421.901 209.288 421.538 209.379 421.175 209.379C420.629 209.47 420.175 209.47 419.63 209.47C419.267 209.47 418.994 209.561 418.631 209.561C418.086 209.561 417.54 209.652 416.995 209.652C416.723 209.652 416.45 209.652 416.178 209.652C415.36 209.652 414.542 209.652 413.725 209.652C413.27 209.652 412.816 209.652 412.271 209.652C412.089 209.652 411.998 209.652 411.817 209.652C411.453 209.652 411.181 209.652 410.817 209.561C410.636 209.561 410.454 209.561 410.272 209.561C410 209.561 409.636 209.561 409.364 209.47C409.182 209.47 409 209.47 408.909 209.47C408.546 209.47 408.183 209.379 407.91 209.379C407.819 209.379 407.728 209.379 407.637 209.379C407.637 209.379 407.637 209.379 407.547 209.379C407.001 209.288 406.456 209.288 405.911 209.197C405.82 209.197 405.639 209.197 405.548 209.107C405.003 209.016 404.458 208.925 403.912 208.834C403.458 208.743 403.004 208.652 402.55 208.562C402.459 208.562 402.368 208.562 402.186 208.471C402.005 208.38 401.732 208.38 401.55 208.289L406.82 219.464L397.098 218.555L390.194 203.746C390.012 203.655 389.739 203.474 389.558 203.383C389.467 203.292 389.376 203.292 389.285 203.201C389.103 203.019 388.831 202.929 388.649 202.747C388.558 202.747 388.558 202.656 388.467 202.656C388.377 202.656 388.377 202.565 388.286 202.565C388.104 202.474 387.922 202.293 387.831 202.202C387.741 202.111 387.65 202.02 387.559 202.02C387.377 201.929 387.195 201.748 387.105 201.657C387.014 201.566 386.923 201.566 386.832 201.475C386.559 201.293 386.378 201.112 386.105 200.839C385.924 200.657 385.651 200.476 385.469 200.203C385.469 200.203 385.469 200.203 385.378 200.112C385.288 200.021 385.288 200.021 385.197 199.93C385.106 199.84 384.924 199.658 384.833 199.567C384.742 199.476 384.652 199.385 384.561 199.294C384.47 199.204 384.288 199.022 384.197 198.931C384.106 198.84 384.016 198.749 383.925 198.659C383.834 198.568 383.743 198.386 383.561 198.295C383.47 198.204 383.38 198.113 383.289 198.023C383.198 197.932 383.107 197.75 383.016 197.568C382.925 197.477 382.925 197.477 382.835 197.387L382.744 197.296C382.653 197.114 382.562 197.023 382.471 196.841C382.38 196.751 382.38 196.66 382.289 196.569C382.199 196.387 382.108 196.205 382.017 196.115C381.926 196.024 381.926 195.933 381.835 195.842C381.744 195.66 381.563 195.388 381.472 195.206C381.472 195.206 381.472 195.115 381.381 195.115C381.199 194.843 381.108 194.57 380.927 194.298C380.836 194.025 380.745 193.843 380.563 193.571L372.659 176.672C372.931 177.126 373.022 177.399 373.204 177.581Z" fill="#2F58FF"/>
<path d="M372.841 176.944C368.571 167.586 371.205 156.23 378.837 145.236C386.559 134.243 399.279 123.704 415.36 116.254C447.431 101.264 480.229 104.262 488.86 122.887C493.13 132.244 490.496 143.601 482.864 154.594C475.141 165.588 462.422 176.127 446.341 183.577C432.259 190.118 417.995 193.298 405.73 193.116C402.368 193.116 399.097 192.753 396.008 192.208C385.015 190.209 376.566 185.121 372.841 176.944ZM443.161 176.763C455.971 170.766 466.147 162.408 472.325 153.595C478.503 144.782 480.593 135.606 477.14 128.247C470.326 113.347 443.979 110.985 418.358 122.977C405.548 128.974 395.372 137.332 389.194 146.145C383.016 154.958 380.927 164.134 384.379 171.493C391.284 186.393 417.54 188.755 443.161 176.763Z" fill="white"/>
<path d="M398.825 202.837L406.82 219.736L413.634 210.015L405.73 193.025L398.825 202.837Z" fill="#2F58FF"/>
<path d="M389.194 202.02L398.916 202.928L405.73 193.116C402.368 193.116 399.097 192.753 396.008 192.208L389.194 202.02Z" fill="white"/>
<path d="M345.04 259.348C345.04 259.439 345.13 259.53 345.221 259.621C345.221 259.712 345.312 259.711 345.312 259.802C345.312 259.893 345.403 259.893 345.403 259.984C345.403 260.075 345.494 260.075 345.494 260.166C345.494 260.257 345.585 260.257 345.676 260.347C345.676 260.438 345.766 260.438 345.766 260.529C345.857 260.62 345.857 260.62 345.948 260.711C345.948 260.802 346.039 260.802 346.039 260.893C346.13 260.983 346.13 260.983 346.221 261.074C346.312 261.165 346.311 261.165 346.402 261.256C346.493 261.347 346.493 261.347 346.584 261.438C346.675 261.529 346.675 261.529 346.766 261.619C346.857 261.619 346.857 261.71 346.947 261.71C347.038 261.801 347.129 261.801 347.22 261.892C347.311 261.892 347.311 261.983 347.402 261.983C347.493 262.074 347.583 262.074 347.674 262.165C347.765 262.165 347.765 262.255 347.856 262.255C348.038 262.346 348.129 262.437 348.31 262.437C348.31 262.437 348.401 262.437 348.401 262.528C348.583 262.619 348.765 262.71 348.946 262.71C349.037 262.71 349.128 262.71 349.128 262.801C349.219 262.801 349.31 262.891 349.491 262.891C349.582 262.891 349.673 262.891 349.764 262.982C349.855 262.982 349.946 263.073 350.127 263.073C350.218 263.073 350.309 263.073 350.4 263.164C350.491 263.164 350.582 263.164 350.763 263.255C350.854 263.255 350.945 263.255 351.036 263.255C351.127 263.255 351.308 263.255 351.399 263.255C351.49 263.255 351.581 263.255 351.672 263.255C351.944 263.255 352.217 263.346 352.49 263.346C352.58 263.346 352.58 263.346 352.671 263.346C352.944 263.346 353.125 263.346 353.398 263.346C353.489 263.346 353.489 263.346 353.58 263.346C353.852 263.346 354.125 263.346 354.488 263.346C354.579 263.346 354.579 263.346 354.67 263.346C354.943 263.346 355.215 263.255 355.488 263.255H355.579C356.033 263.164 356.487 263.164 356.941 263.073C357.396 262.982 357.85 262.891 358.395 262.71C358.486 262.71 358.486 262.71 358.577 262.71C358.758 262.619 359.031 262.619 359.213 262.528C359.304 262.528 359.394 262.437 359.485 262.437C359.667 262.346 359.849 262.346 360.121 262.255C360.212 262.255 360.303 262.165 360.303 262.165C360.757 261.983 361.211 261.801 361.666 261.619H361.757C362.029 261.529 362.211 261.438 362.483 261.256C362.847 261.074 363.21 260.893 363.483 260.711C363.664 260.62 363.937 260.529 364.119 260.347C364.391 260.257 364.573 260.075 364.846 259.984C365.027 259.893 365.3 259.712 365.482 259.621C365.663 259.53 365.936 259.348 366.118 259.166C366.299 258.985 366.572 258.894 366.753 258.712C367.026 258.44 367.389 258.258 367.662 257.985C367.662 257.985 367.662 257.985 367.753 257.894C368.025 257.622 368.389 257.44 368.661 257.168C368.752 257.077 368.843 256.986 368.934 256.895C369.207 256.623 369.57 256.35 369.842 255.987C370.024 255.805 370.206 255.532 370.478 255.351C370.569 255.26 370.66 255.078 370.751 254.987C371.024 254.624 371.296 254.26 371.569 253.897L402.277 206.29C402.822 205.472 403.004 204.745 402.731 204.2L410.636 221.099C410.908 221.644 410.817 222.371 410.181 223.189L379.473 270.796C379.2 271.159 378.928 271.522 378.655 271.886C378.564 271.977 378.474 272.158 378.383 272.249C378.201 272.431 378.019 272.703 377.747 272.885C377.474 273.158 377.202 273.43 376.838 273.703C376.747 273.794 376.656 273.885 376.566 273.975C376.475 274.066 376.384 274.157 376.202 274.248C376.021 274.43 375.839 274.521 375.657 274.702C375.657 274.702 375.657 274.702 375.566 274.793C375.385 274.975 375.112 275.157 374.839 275.338C374.749 275.429 374.658 275.429 374.567 275.52C374.385 275.702 374.113 275.793 373.931 275.974C373.84 276.065 373.658 276.156 373.567 276.247C373.477 276.338 373.386 276.338 373.295 276.429C373.113 276.519 372.931 276.701 372.659 276.792C372.477 276.883 372.386 276.974 372.296 277.064C372.205 277.155 372.114 277.155 372.023 277.246C371.841 277.337 371.569 277.519 371.387 277.61C371.205 277.7 371.114 277.791 370.933 277.791C370.751 277.882 370.569 277.973 370.297 278.064C370.024 278.155 369.842 278.246 369.57 278.427C369.57 278.427 369.57 278.427 369.479 278.427C369.025 278.609 368.571 278.791 368.116 278.972C368.116 278.972 368.116 278.972 368.025 278.972C367.935 278.972 367.935 278.972 367.844 279.063C367.662 279.154 367.48 279.154 367.208 279.245C367.117 279.245 367.026 279.336 366.935 279.336C366.753 279.427 366.481 279.427 366.299 279.518H366.208C365.754 279.608 365.3 279.79 364.755 279.881C364.3 279.972 363.846 280.063 363.392 280.063H363.301C363.028 280.063 362.756 280.153 362.483 280.153C362.393 280.153 362.393 280.153 362.302 280.153C362.029 280.153 361.757 280.153 361.393 280.153C361.302 280.153 361.302 280.153 361.211 280.153C360.939 280.153 360.666 280.153 360.485 280.153C360.394 280.153 360.394 280.153 360.303 280.153C360.03 280.153 359.758 280.153 359.485 280.063H359.394C359.304 280.063 359.304 280.063 359.213 280.063C359.122 280.063 358.94 280.063 358.849 280.063C358.758 280.063 358.668 280.063 358.577 280.063C358.486 280.063 358.395 280.063 358.213 279.972C358.122 279.972 358.032 279.972 357.941 279.881C357.85 279.881 357.759 279.79 357.577 279.79C357.486 279.79 357.396 279.79 357.305 279.699C357.214 279.699 357.123 279.608 356.941 279.608C356.85 279.608 356.85 279.608 356.76 279.518C356.578 279.427 356.396 279.427 356.215 279.336C356.215 279.336 356.124 279.336 356.124 279.245C355.942 279.154 355.851 279.154 355.669 279.063H355.579C355.579 279.063 355.488 279.063 355.488 278.972C355.397 278.882 355.306 278.882 355.215 278.791C355.124 278.791 355.124 278.7 355.033 278.7C354.943 278.609 354.852 278.609 354.761 278.518L354.67 278.427C354.579 278.336 354.579 278.336 354.488 278.246C354.397 278.155 354.397 278.155 354.307 278.064C354.216 277.973 354.216 277.973 354.125 277.882L354.034 277.791C353.943 277.7 353.943 277.7 353.943 277.61C353.852 277.519 353.852 277.519 353.761 277.428C353.761 277.337 353.671 277.337 353.671 277.246L353.58 277.155C353.58 277.155 353.58 277.155 353.58 277.064C353.58 276.974 353.489 276.974 353.489 276.883C353.489 276.792 353.398 276.792 353.398 276.701C353.398 276.61 353.307 276.61 353.307 276.519L353.216 276.429C353.216 276.338 353.125 276.338 353.125 276.247L345.04 259.348Z" fill="#2F58FF"/>
<path d="M346.221 252.352C344.494 254.805 344.131 257.531 344.949 259.348C346.947 263.618 355.033 265.163 362.393 261.71C366.299 259.893 369.479 256.804 371.478 253.988L402.368 206.29C403.458 204.655 402.277 203.11 400.278 202.928L387.559 201.747C385.56 201.565 383.289 202.656 382.108 204.291L346.584 251.625C346.493 251.989 346.402 252.171 346.221 252.352Z" fill="#9AF4DC"/>
<path d="M400.369 203.019L387.65 201.838C385.651 201.656 383.38 202.747 382.198 204.382L346.675 251.716C346.493 251.898 346.402 252.08 346.221 252.262C344.494 254.715 344.131 257.44 344.949 259.257" fill="#9AF4DC"/>
<path d="M400.369 203.019L387.65 201.838C385.651 201.656 383.38 202.747 382.198 204.382L346.675 251.716C346.493 251.898 346.402 252.08 346.221 252.262C344.494 254.715 344.131 257.44 344.949 259.257" stroke="#171A21" stroke-width="2" stroke-miterlimit="10" stroke-linecap="round" stroke-linejoin="round"/>
</svg>
