<svg width="499" height="487" viewBox="0 0 499 487" fill="none" xmlns="http://www.w3.org/2000/svg">
<path d="M344.589 28.9077C344.686 29.0047 344.686 29.0047 344.783 29.1017C344.88 29.1017 344.88 29.1987 344.977 29.1987C345.074 29.2957 345.074 29.2957 345.171 29.3927C345.268 29.3927 345.268 29.4897 345.365 29.4897C345.462 29.4897 345.462 29.5867 345.559 29.5867C345.656 29.5867 345.656 29.6837 345.753 29.6837C345.85 29.6837 345.85 29.7807 345.947 29.7807C346.044 29.7807 346.044 29.8777 346.141 29.8777C346.238 29.8777 346.335 29.9747 346.335 29.9747C346.432 29.9747 346.432 30.0717 346.529 30.0717C346.626 30.0717 346.723 30.1687 346.82 30.1687C346.917 30.1687 347.014 30.2657 347.111 30.2657C347.111 30.2657 347.111 30.2657 347.208 30.2657C347.305 30.2657 347.499 30.3627 347.596 30.3627H347.693C347.79 30.3627 347.984 30.4598 348.081 30.4598H348.178C348.275 30.4598 348.469 30.4598 348.566 30.5568H348.663C348.857 30.5568 348.954 30.5568 349.148 30.5568H349.245C349.342 30.5568 349.536 30.5568 349.633 30.5568C349.73 30.5568 349.827 30.5568 349.924 30.5568C350.021 30.5568 350.118 30.5568 350.215 30.5568C350.312 30.5568 350.409 30.5568 350.506 30.5568C350.603 30.5568 350.7 30.5568 350.797 30.5568C350.894 30.5568 350.991 30.5568 351.088 30.5568C351.185 30.5568 351.282 30.5568 351.379 30.5568C351.476 30.5568 351.573 30.5568 351.67 30.4598C351.767 30.4598 351.961 30.4598 352.058 30.3627C352.349 30.2657 352.64 30.2657 352.834 30.1687C352.931 30.1687 353.028 30.1687 353.028 30.0717C353.223 29.9747 353.417 29.9747 353.611 29.8777C353.708 29.8777 353.708 29.8777 353.805 29.7807C354.096 29.6837 354.387 29.5867 354.581 29.4897C354.581 29.4897 354.678 29.4897 354.678 29.3927C354.872 29.2957 355.163 29.1987 355.357 29.1017C355.454 29.1017 355.551 29.0047 355.648 29.0047C355.745 28.9077 355.939 28.9077 356.036 28.8107C356.133 28.8107 356.23 28.7136 356.327 28.7136C356.424 28.6166 356.521 28.6166 356.715 28.5196C356.812 28.4226 356.909 28.4226 357.006 28.3256C357.103 28.2286 357.2 28.2286 357.394 28.1316C357.491 28.0346 357.588 28.0346 357.685 27.9376C357.782 27.8406 357.879 27.8406 358.073 27.7436C358.17 27.6466 358.267 27.6466 358.364 27.5496C358.655 27.3556 358.849 27.2586 359.14 27.0645C359.14 27.0645 359.237 27.0645 359.237 26.9675C359.431 26.7735 359.625 26.6765 359.916 26.4825C360.013 26.3855 360.11 26.3855 360.207 26.2885C360.304 26.1915 360.498 26.0945 360.595 25.9975C360.692 25.9005 360.789 25.9005 360.886 25.8035C360.983 25.7065 361.177 25.6095 361.274 25.5124C361.371 25.4154 361.468 25.4154 361.468 25.3184C361.565 25.2214 361.662 25.1244 361.856 25.0274C361.953 24.9304 362.05 24.9304 362.147 24.8334C362.244 24.7364 362.438 24.6394 362.535 24.5424C362.632 24.4454 362.632 24.4454 362.729 24.3484C362.826 24.2514 362.923 24.1544 363.02 24.0574C363.117 23.9603 363.214 23.9603 363.214 23.8633C363.311 23.7663 363.408 23.6693 363.602 23.4753C363.699 23.3783 363.699 23.3783 363.796 23.2813C363.893 23.1843 364.087 22.9903 364.184 22.8933L364.281 22.7963C364.475 22.6023 364.572 22.4083 364.766 22.2142L364.863 22.1172C364.96 21.9232 365.154 21.8262 365.251 21.6322C365.348 21.5352 365.348 21.5352 365.445 21.4382C365.542 21.3412 365.639 21.1472 365.736 21.0502C365.833 20.9532 365.833 20.9532 365.93 20.8562C366.027 20.6621 366.124 20.5651 366.221 20.3711C366.318 20.2741 366.318 20.1771 366.415 20.0801C366.512 19.9831 366.609 19.7891 366.706 19.6921C366.803 19.5951 366.803 19.4981 366.9 19.4981C366.997 19.3041 367.191 19.013 367.288 18.819C367.288 18.819 367.288 18.722 367.385 18.722C367.579 18.431 367.676 18.237 367.773 17.946C367.87 17.849 367.87 17.752 367.967 17.655C367.967 17.5579 368.064 17.4609 368.064 17.3639C368.161 17.2669 368.161 17.0729 368.258 16.9759C368.258 16.8789 368.355 16.7819 368.355 16.7819C368.452 16.6849 368.452 16.4909 368.549 16.3939C368.549 16.2969 368.646 16.2969 368.646 16.1999C368.743 16.0059 368.84 15.8118 368.84 15.6178C370.005 12.2226 369.617 9.40944 368.064 7.66333L374.273 14.6478C375.825 16.3939 376.213 19.2071 375.049 22.6023C374.952 22.7963 374.952 22.9903 374.855 23.1843C374.855 23.2813 374.758 23.2813 374.758 23.3783C374.661 23.4753 374.661 23.6693 374.564 23.7663C374.564 23.8633 374.467 23.9603 374.467 23.9603C374.37 24.0574 374.37 24.2514 374.273 24.3484C374.273 24.4454 374.176 24.5424 374.176 24.6394C374.176 24.7364 374.079 24.8334 374.079 24.9304V25.0274C373.982 25.3184 373.788 25.5124 373.691 25.8035C373.691 25.8035 373.691 25.9005 373.594 25.9005C373.497 26.0945 373.303 26.3855 373.206 26.5795C373.206 26.5795 373.206 26.6765 373.109 26.6765L373.012 26.7735C372.915 26.8705 372.818 27.0645 372.721 27.1615C372.624 27.2586 372.624 27.3556 372.527 27.4526C372.43 27.6466 372.333 27.7436 372.236 27.9376C372.236 28.0346 372.139 28.0346 372.139 28.1316C372.042 28.2286 371.945 28.4226 371.848 28.5196C371.751 28.6166 371.751 28.6166 371.654 28.7136C371.557 28.9077 371.363 29.0047 371.266 29.1987C371.266 29.1987 371.266 29.2957 371.169 29.2957C370.975 29.4897 370.878 29.6837 370.684 29.8777L370.587 29.9747C370.49 30.0717 370.296 30.2657 370.199 30.3627C370.102 30.4598 370.102 30.4598 370.005 30.5568C369.908 30.6538 369.811 30.7508 369.617 30.9448C369.52 31.0418 369.423 31.0418 369.423 31.1388C369.326 31.2358 369.229 31.3328 369.132 31.4298C369.034 31.5268 369.034 31.5268 368.937 31.6238C368.84 31.7208 368.743 31.8178 368.549 31.9148C368.452 32.0119 368.355 32.0119 368.258 32.1089C368.161 32.2059 368.064 32.3029 367.87 32.3999C367.87 32.3999 367.87 32.3999 367.773 32.4969C367.676 32.4969 367.676 32.5939 367.579 32.5939C367.482 32.6909 367.288 32.7879 367.191 32.8849C367.094 32.9819 366.997 32.9819 366.9 33.0789C366.803 33.1759 366.609 33.2729 366.512 33.3699L366.415 33.4669C366.415 33.4669 366.318 33.4669 366.318 33.5639C366.124 33.758 365.93 33.855 365.639 34.049C365.639 34.049 365.542 34.049 365.542 34.146C365.251 34.34 365.057 34.437 364.766 34.631C364.766 34.631 364.766 34.631 364.669 34.631C364.572 34.631 364.572 34.728 364.475 34.728C364.378 34.825 364.281 34.825 364.087 34.922C363.99 35.019 363.893 35.019 363.796 35.116C363.699 35.2131 363.602 35.2131 363.408 35.3101C363.311 35.4071 363.214 35.4071 363.117 35.5041C363.02 35.6011 362.923 35.6011 362.729 35.6981C362.632 35.7951 362.535 35.7951 362.438 35.7951C362.341 35.8921 362.147 35.8921 362.05 35.9891C361.953 35.9891 361.953 36.0861 361.856 36.0861H361.759C361.565 36.1831 361.274 36.2801 361.08 36.3771C361.08 36.3771 360.983 36.3771 360.983 36.4741C360.692 36.5711 360.401 36.6681 360.207 36.7651C360.11 36.7651 360.11 36.7651 360.013 36.8622C359.819 36.9592 359.625 36.9592 359.431 37.0562C359.334 37.0562 359.237 37.0562 359.237 37.1532C358.946 37.2502 358.655 37.2502 358.461 37.3472C358.364 37.3472 358.267 37.3472 358.267 37.3472C358.17 37.3472 358.17 37.3472 358.073 37.3472C357.976 37.3472 357.879 37.3472 357.782 37.4442C357.685 37.4442 357.588 37.4442 357.491 37.4442C357.394 37.4442 357.297 37.4442 357.2 37.4442C357.103 37.4442 357.006 37.4442 356.909 37.4442C356.812 37.4442 356.715 37.4442 356.618 37.4442C356.521 37.4442 356.424 37.4442 356.327 37.4442C356.23 37.4442 356.133 37.4442 356.036 37.4442H355.939C355.842 37.4442 355.745 37.4442 355.648 37.4442H355.551C355.357 37.4442 355.26 37.4442 355.066 37.4442H354.969C354.872 37.4442 354.678 37.4442 354.581 37.3472H354.484C354.387 37.3472 354.193 37.2502 354.096 37.2502H353.999C353.902 37.2502 353.708 37.1532 353.611 37.1532C353.611 37.1532 353.611 37.1532 353.514 37.1532C353.417 37.1532 353.417 37.1532 353.319 37.0562H353.222C353.125 37.0562 353.028 36.9592 352.931 36.9592C352.834 36.9592 352.834 36.8622 352.737 36.8622C352.64 36.8622 352.543 36.7651 352.543 36.7651C352.543 36.7651 352.446 36.7651 352.446 36.6681C352.446 36.6681 352.349 36.6681 352.349 36.5711C352.252 36.5711 352.252 36.4741 352.155 36.4741C352.058 36.4741 352.058 36.3771 351.961 36.3771C351.864 36.3771 351.864 36.2801 351.767 36.2801C351.767 36.2801 351.67 36.2801 351.67 36.1831C351.67 36.1831 351.67 36.1831 351.573 36.0861C351.476 35.9891 351.476 35.9891 351.379 35.8921C351.282 35.8921 351.282 35.7951 351.185 35.7951C351.088 35.6981 351.088 35.6981 350.991 35.6011L350.894 35.5041L350.797 35.4071L344.589 28.4226C344.492 28.8107 344.589 28.9077 344.589 28.9077Z" fill="#2F58FF"/>
<path d="M368.744 8.82761C367.385 6.40246 364.475 5.23838 360.401 6.01443C353.417 7.37252 345.947 13.9689 343.716 20.7594C342.358 24.7366 343.134 27.8408 345.365 29.4899" stroke="#171A21" stroke-width="2" stroke-miterlimit="10" stroke-linecap="round" stroke-linejoin="round"/>
</svg>
