<svg width="500" height="487" viewBox="0 0 500 487" fill="none" xmlns="http://www.w3.org/2000/svg">
<path d="M61.6438 81.388L31.863 29.7808C31.0869 28.4227 29.1468 28.4227 28.3707 29.7808L3.05216 74.2095C1.59707 76.7317 1.59707 79.7389 3.05216 82.2611L32.251 132.801C33.7061 135.323 36.3252 136.778 39.2354 136.778L97.3421 136.584C100.155 136.584 102.774 135.032 104.229 132.607L129.645 88.1784C130.421 86.8203 129.451 85.1712 127.899 85.1712L68.7253 85.3652C65.7181 85.3652 63.0989 83.8131 61.6438 81.388Z" fill="#2F58FF"/>
<path d="M127.802 85.1713L68.6283 85.3653C65.7181 85.3653 63.0989 83.8132 61.6438 81.388L31.863 29.7808C31.0869 28.4227 32.057 26.7736 33.6091 26.7736L92.7828 26.5796C95.693 26.5796 98.3121 28.1317 99.7672 30.5568L129.548 82.1641C130.324 83.5221 129.354 85.1713 127.802 85.1713Z" fill="#9AF4DC"/>
<path d="M128.966 89.1485C130.421 86.6263 130.421 83.6191 128.966 81.097L99.7672 30.5568C98.3121 28.0347 95.6929 26.5796 92.7827 26.5796L34.6761 26.7736C31.8629 26.7736 29.2438 28.3257 27.7887 30.7509L3.05213 74.2096C1.59704 76.7317 1.59704 79.7389 3.05213 82.2611" stroke="#171A21" stroke-width="2" stroke-miterlimit="10" stroke-linecap="round" stroke-linejoin="round"/>
<path d="M53.1073 26.7736L86.8654 85.2683H110.632L76.7767 26.6766L53.1073 26.7736Z" fill="white"/>
<path d="M58.9276 26.7744H53.1073L56.0175 31.8187" stroke="#171A21" stroke-width="2" stroke-linecap="round" stroke-linejoin="round"/>
<path d="M61.5468 41.5183L81.1421 75.4704" stroke="#171A21" stroke-width="2" stroke-linecap="round" stroke-linejoin="round" stroke-dasharray="11.54 11.54"/>
<path d="M83.9552 80.3208L86.8654 85.2681H92.6857" stroke="#171A21" stroke-width="2" stroke-linecap="round" stroke-linejoin="round"/>
<path d="M104.812 85.2684H110.632L107.722 80.2241" stroke="#171A21" stroke-width="2" stroke-linecap="round" stroke-linejoin="round"/>
<path d="M102.095 70.5235L82.5001 36.5714" stroke="#171A21" stroke-width="2" stroke-linecap="round" stroke-linejoin="round" stroke-dasharray="11.54 11.54"/>
<path d="M79.687 31.721L76.7768 26.6766H70.9564" stroke="#171A21" stroke-width="2" stroke-linecap="round" stroke-linejoin="round"/>
</svg>
