<svg width="499" height="487" viewBox="0 0 499 487" fill="none" xmlns="http://www.w3.org/2000/svg">
<path d="M27.0798 187.028C28.5349 185.282 28.5349 182.566 26.5947 179.655C23.3935 174.708 16.0211 171.022 10.2007 171.41C6.8055 171.604 4.67136 173.156 4.08933 175.387L2.82825 179.17L8.4546 187.707L15.148 191.587L22.2295 190.423L25.8187 188.968L27.0798 187.028Z" fill="#9AF4DC"/>
<path d="M27.5648 186.349C27.5648 186.446 27.4678 186.446 27.4678 186.543L27.3708 186.64C27.3708 186.737 27.2738 186.737 27.2738 186.834L27.1768 186.931C27.1768 187.028 27.0797 187.028 27.0797 187.125L26.9827 187.222L26.8857 187.319L26.7887 187.416C26.6917 187.416 26.6917 187.513 26.5947 187.513L26.4977 187.61C26.4007 187.61 26.4007 187.707 26.3037 187.707C26.2067 187.707 26.2067 187.804 26.1097 187.804C26.0127 187.901 25.9157 187.901 25.8187 187.998C25.8187 187.998 25.8187 187.998 25.7217 187.998C25.6247 188.095 25.5277 188.095 25.4306 188.192C25.4306 188.192 25.4306 188.192 25.3336 188.192C25.2366 188.192 25.1396 188.289 25.0426 188.289H24.9456C24.8486 188.289 24.6546 188.386 24.5576 188.386C24.5576 188.386 24.5576 188.386 24.4606 188.386C24.3636 188.386 24.2666 188.483 24.1696 188.483C24.0726 188.483 23.9756 188.483 23.9756 188.58C23.8785 188.58 23.7815 188.58 23.7815 188.677C23.6845 188.677 23.5875 188.677 23.4905 188.774C23.3935 188.774 23.2965 188.774 23.2965 188.774C23.1995 188.774 23.1025 188.774 23.0055 188.774C22.9085 188.774 22.8115 188.774 22.7145 188.774C22.6175 188.774 22.5205 188.774 22.4235 188.774C22.3265 188.774 22.2294 188.774 22.0354 188.774C21.8414 188.774 21.5504 188.774 21.3564 188.774C21.2594 188.774 21.2594 188.774 21.1624 188.774C20.9684 188.774 20.7744 188.774 20.6773 188.774C20.5803 188.774 20.5803 188.774 20.4833 188.774C20.2893 188.774 19.9983 188.774 19.8043 188.677H19.7073C19.5133 188.677 19.3193 188.677 19.1253 188.58C19.0282 188.58 18.9312 188.58 18.8342 188.58C18.7372 188.58 18.6402 188.58 18.5432 188.483C18.4462 188.483 18.3492 188.483 18.2522 188.386C18.1552 188.386 18.0582 188.386 17.9612 188.289C17.8642 188.289 17.7672 188.289 17.6702 188.192C17.5732 188.192 17.4761 188.095 17.3791 188.095C17.2821 188.095 17.1851 188.095 17.0881 187.998C16.9911 187.998 16.8941 187.901 16.7971 187.901C16.7001 187.901 16.6031 187.804 16.5061 187.804C16.3121 187.707 16.0211 187.61 15.827 187.61H15.73C15.536 187.513 15.342 187.416 15.148 187.416C15.051 187.416 14.954 187.319 14.954 187.319C14.857 187.222 14.663 187.222 14.566 187.125C14.469 187.125 14.372 187.028 14.2749 187.028C14.1779 186.931 13.9839 186.931 13.8869 186.834C13.7899 186.834 13.6929 186.737 13.6929 186.737C13.5959 186.64 13.4989 186.64 13.3049 186.543C13.2079 186.543 13.1109 186.446 13.1109 186.446C13.0139 186.349 12.9169 186.349 12.7229 186.252C12.6258 186.252 12.6258 186.155 12.5288 186.155C12.4318 186.058 12.3348 186.058 12.2378 185.961C12.1408 185.961 12.0438 185.864 12.0438 185.864C11.9468 185.767 11.8498 185.767 11.6558 185.67C11.5588 185.67 11.5588 185.573 11.4618 185.573C11.3648 185.476 11.1708 185.379 11.0737 185.282L10.9767 185.185C10.7827 185.088 10.5887 184.991 10.4917 184.797C10.4917 184.797 10.3947 184.797 10.3947 184.7C10.2007 184.603 10.1037 184.506 9.90967 184.409C9.81267 184.409 9.81267 184.312 9.71566 184.312C9.61866 184.215 9.52165 184.118 9.42464 184.021C9.32764 184.021 9.32764 183.924 9.23063 183.924C9.13363 183.827 9.03662 183.73 8.84261 183.633C8.7456 183.536 8.7456 183.536 8.6486 183.439C8.55159 183.342 8.45458 183.245 8.35758 183.148C8.26057 183.051 8.26057 183.051 8.16357 182.954C7.96955 182.76 7.87255 182.663 7.67854 182.469L7.58153 182.372C7.38752 182.178 7.29051 181.984 7.0965 181.79C6.99949 181.693 6.99949 181.596 6.90249 181.596C6.80548 181.499 6.80548 181.499 6.70847 181.402C6.61147 181.305 6.61147 181.208 6.51446 181.111C6.51446 181.014 6.41746 181.014 6.41746 180.917C6.32045 180.82 6.22344 180.723 6.22344 180.626L6.12644 180.529C6.02943 180.335 5.93243 180.237 5.83542 180.043C4.18632 177.521 3.99231 175.29 4.86536 173.544L0.985117 181.208C0.112063 182.954 0.403081 185.282 1.95518 187.707C2.05218 187.901 2.14919 187.998 2.2462 188.192L2.3432 188.289C2.44021 188.386 2.44021 188.483 2.53721 188.58C2.53721 188.677 2.63422 188.677 2.63422 188.774C2.73123 188.871 2.73123 188.968 2.82823 189.065C2.92524 189.162 2.92524 189.162 3.02224 189.259C3.11925 189.356 3.11925 189.356 3.21626 189.453C3.21626 189.453 3.21626 189.453 3.21626 189.55C3.41027 189.744 3.50727 189.938 3.70129 190.132L3.79829 190.229C3.99231 190.423 4.08931 190.52 4.28332 190.714L4.38033 190.811L4.47734 190.908C4.57434 191.005 4.67135 191.102 4.76835 191.199C4.86536 191.296 4.86536 191.296 4.96237 191.393C5.05937 191.49 5.15638 191.587 5.35039 191.684L5.4474 191.781C5.5444 191.878 5.64141 191.975 5.73841 192.072C5.83542 192.072 5.83542 192.169 5.93243 192.169C6.02943 192.266 6.22344 192.363 6.41746 192.46C6.41746 192.46 6.51446 192.46 6.51446 192.557C6.70847 192.654 6.90249 192.751 6.99949 192.945L7.0965 193.042C7.19351 193.139 7.38752 193.236 7.48452 193.333C7.58153 193.333 7.58153 193.43 7.67854 193.43C7.77554 193.527 7.87255 193.527 8.06656 193.624C8.16357 193.624 8.26057 193.721 8.26057 193.721C8.35758 193.818 8.45458 193.818 8.55159 193.915C8.6486 193.915 8.6486 194.012 8.7456 194.012C8.84261 194.109 8.93961 194.109 9.13363 194.206C9.23063 194.206 9.32764 194.303 9.32764 194.303C9.42465 194.4 9.52165 194.4 9.71566 194.497C9.71566 194.497 9.71566 194.497 9.81267 194.497C9.90968 194.497 9.90968 194.497 10.0067 194.594C10.1037 194.691 10.2977 194.691 10.3947 194.788C10.4917 194.788 10.5887 194.885 10.6857 194.885C10.7827 194.982 10.9767 194.982 11.0737 195.079C11.0737 195.079 11.1708 195.079 11.1708 195.176H11.2678C11.4618 195.273 11.6558 195.37 11.8498 195.37H11.9468C12.1408 195.467 12.4318 195.564 12.6258 195.564C12.6258 195.564 12.6258 195.564 12.7229 195.564C12.8199 195.564 12.8199 195.564 12.9169 195.661C13.0139 195.661 13.1109 195.758 13.2079 195.758C13.3049 195.758 13.4019 195.758 13.4989 195.855C13.5959 195.855 13.6929 195.952 13.7899 195.952C13.8869 195.952 13.9839 195.952 14.0809 196.049C14.1779 196.049 14.2749 196.049 14.372 196.146C14.469 196.146 14.566 196.146 14.663 196.243C14.76 196.243 14.857 196.243 14.954 196.34H15.051H15.148C15.342 196.34 15.536 196.438 15.73 196.438H15.827C16.0211 196.438 16.3121 196.438 16.5061 196.535C16.6031 196.535 16.6031 196.535 16.7001 196.535C16.8941 196.535 17.0881 196.535 17.1851 196.535C17.2821 196.535 17.2821 196.535 17.3791 196.535C17.5732 196.535 17.8642 196.535 18.0582 196.535C18.1552 196.535 18.1552 196.535 18.2522 196.535C18.3492 196.535 18.3492 196.535 18.4462 196.535C18.5432 196.535 18.6402 196.535 18.7372 196.535C18.8342 196.535 18.9312 196.535 19.0282 196.535C19.1253 196.535 19.2223 196.535 19.3193 196.535C19.4163 196.535 19.5133 196.535 19.5133 196.535C19.6103 196.535 19.7073 196.535 19.8043 196.438C19.9013 196.438 19.9983 196.437 19.9983 196.34C20.0953 196.34 20.1923 196.341 20.1923 196.243H20.2893C20.3863 196.243 20.3863 196.243 20.4833 196.146C20.4833 196.146 20.4833 196.146 20.5803 196.146C20.6773 196.146 20.8714 196.049 20.9684 196.049H21.0654C21.1624 196.049 21.2594 195.952 21.3564 195.952C21.3564 195.952 21.3564 195.952 21.4534 195.952C21.5504 195.952 21.6474 195.855 21.7444 195.758C21.7444 195.758 21.7444 195.758 21.8414 195.758C21.9384 195.661 22.0354 195.661 22.1324 195.564C22.1324 195.564 22.2294 195.564 22.2294 195.467C22.2294 195.467 22.3265 195.467 22.3265 195.37C22.4235 195.37 22.4235 195.273 22.5205 195.273L22.6175 195.176C22.7145 195.176 22.7145 195.079 22.8115 195.079C22.8115 195.079 22.9085 195.079 22.9085 194.982C22.9085 194.982 22.9085 194.982 23.0055 194.885L23.1025 194.788L23.1995 194.691C23.1995 194.594 23.2965 194.594 23.2965 194.497C23.2965 194.497 23.2965 194.4 23.3935 194.4C23.3935 194.4 23.3935 194.4 23.3935 194.303C23.3935 194.206 23.4905 194.206 23.4905 194.109L23.5875 194.012C23.5875 193.915 23.6845 193.915 23.6845 193.818C23.6845 193.818 23.6845 193.721 23.7815 193.721C23.7815 193.721 23.7815 193.624 23.8785 193.624L27.3708 186.737C27.5648 186.252 27.5648 186.349 27.5648 186.349Z" fill="#2F58FF"/>
<path d="M4.08932 175.387C4.67136 173.156 6.80549 171.604 10.2007 171.41C16.0211 171.022 23.3935 174.805 26.5947 179.655C28.4378 182.565 28.5349 185.185 27.0798 187.028" stroke="#171A21" stroke-width="2" stroke-miterlimit="10" stroke-linecap="round" stroke-linejoin="round"/>
</svg>
