<svg width="499" height="487" viewBox="0 0 499 487" fill="none" xmlns="http://www.w3.org/2000/svg">
<path d="M88.2906 233.688C88.1936 233.785 88.0966 233.785 87.9995 233.882C87.9025 233.882 87.8055 233.979 87.7085 233.979C87.6115 233.979 87.5145 234.076 87.4175 234.076C87.3205 234.076 87.2235 234.173 87.1265 234.173C87.0295 234.173 86.9325 234.27 86.8355 234.27C86.7385 234.27 86.6415 234.367 86.5445 234.367C86.4474 234.367 86.3504 234.464 86.1564 234.464C86.0594 234.464 85.9624 234.464 85.8654 234.561C85.7684 234.561 85.5744 234.561 85.4774 234.561C85.3804 234.561 85.2834 234.561 85.1864 234.561C85.0894 234.561 84.8954 234.561 84.7983 234.561C84.7013 234.561 84.5073 234.561 84.4103 234.561H84.3133C84.1193 234.561 83.9253 234.561 83.7313 234.561H83.6343C83.4403 234.561 83.2462 234.561 82.9552 234.464H82.8582C82.6642 234.464 82.4702 234.367 82.2762 234.367C82.1792 234.367 82.1792 234.367 82.0822 234.367C81.8882 234.27 81.5971 234.27 81.4031 234.173H81.3061C81.1121 234.076 80.9181 234.076 80.8211 233.979C80.7241 233.979 80.5301 233.882 80.4331 233.882C80.3361 233.882 80.1421 233.785 80.045 233.785C79.948 233.688 79.754 233.688 79.657 233.591C79.56 233.494 79.366 233.494 79.269 233.397C79.172 233.3 78.978 233.3 78.881 233.203C78.784 233.106 78.59 233.106 78.493 233.009C78.2989 232.912 78.2019 232.815 78.0079 232.815C77.8139 232.718 77.6199 232.621 77.4259 232.524C77.0379 232.33 76.7468 232.136 76.3588 231.845C76.2618 231.748 76.1648 231.748 76.0678 231.651C75.7768 231.457 75.5828 231.263 75.2918 231.069C75.1947 230.972 75.0977 230.972 75.0007 230.875C74.7097 230.584 74.3217 230.39 74.0307 230.099C73.9337 230.099 73.9337 230.002 73.8367 230.002C73.5456 229.808 73.2546 229.517 73.0606 229.323C72.9636 229.226 72.8666 229.129 72.7696 229.032C72.6726 228.935 72.4786 228.741 72.3816 228.644C72.2846 228.547 72.1876 228.45 71.9935 228.256C71.8965 228.159 71.7025 227.965 71.6055 227.868C71.5085 227.771 71.4115 227.674 71.2175 227.48C71.1205 227.382 70.9265 227.188 70.8295 226.994C70.7325 226.897 70.6355 226.703 70.5385 226.606C70.4414 226.412 70.2474 226.315 70.1504 226.121C70.0534 226.024 69.9564 225.927 69.8594 225.733C69.5684 225.442 69.2774 225.054 68.9864 224.666C68.9864 224.666 68.8894 224.569 68.8894 224.472C68.6953 224.181 68.4043 223.89 68.2103 223.502C68.1133 223.405 68.0163 223.308 67.9193 223.114C67.8223 222.92 67.6283 222.726 67.5313 222.532C67.4343 222.435 67.3373 222.241 67.2403 222.144C67.1432 221.95 66.9492 221.756 66.8522 221.465C66.7552 221.368 66.6582 221.174 66.6582 221.077C66.5612 220.883 66.4642 220.689 66.2702 220.495C66.1732 220.398 66.0762 220.204 66.0762 220.107C65.9792 219.913 65.8822 219.719 65.6881 219.525C65.5911 219.428 65.5911 219.234 65.4941 219.137C65.3971 218.943 65.3001 218.749 65.2031 218.555C65.1061 218.458 65.1061 218.264 65.0091 218.167C64.9121 217.973 64.8151 217.779 64.7181 217.488C64.6211 217.391 64.6211 217.294 64.5241 217.1C64.4271 216.809 64.3301 216.615 64.1361 216.324C64.1361 216.227 64.039 216.13 64.039 216.13C63.845 215.742 63.748 215.451 63.651 215.063C63.651 214.966 63.651 214.966 63.554 214.869C63.457 214.578 63.36 214.287 63.166 213.996C63.166 213.899 63.069 213.705 63.069 213.608C62.972 213.414 62.875 213.123 62.875 212.929C62.875 212.832 62.778 212.735 62.778 212.541C62.681 212.25 62.584 212.056 62.584 211.765C62.584 211.668 62.487 211.473 62.487 211.376C62.3899 211.182 62.3899 210.891 62.2929 210.697C62.2929 210.6 62.1959 210.406 62.1959 210.309C62.0989 209.921 62.0019 209.533 61.9049 209.242C61.9049 209.145 61.9049 209.145 61.9049 209.048C61.8079 208.66 61.7109 208.175 61.7109 207.787C61.7109 207.593 61.6139 207.399 61.6139 207.302C61.6139 207.205 61.6139 207.011 61.5169 206.914C61.5169 206.72 61.5169 206.526 61.4199 206.332C61.4199 206.235 61.4199 206.041 61.4199 205.944C61.4199 205.75 61.4199 205.556 61.4199 205.265C61.4199 205.168 61.4199 205.071 61.4199 204.974C61.4199 204.683 61.4199 204.295 61.4199 204.004C61.4199 198.766 63.263 195.079 66.2702 193.333L54.4354 200.124C51.4283 201.87 49.5851 205.556 49.5851 210.794C49.5851 211.085 49.5851 211.377 49.5851 211.765C49.5851 211.862 49.5851 211.959 49.5851 212.056C49.5851 212.25 49.5851 212.444 49.5851 212.735C49.5851 212.832 49.5851 213.026 49.5851 213.123C49.5851 213.317 49.5851 213.511 49.6822 213.705C49.6822 213.802 49.6822 213.996 49.7792 214.093C49.7792 214.19 49.7792 214.384 49.8762 214.481V214.578C49.9732 214.966 49.9732 215.451 50.0702 215.839C50.0702 215.936 50.0702 215.936 50.0702 216.033C50.1672 216.421 50.2642 216.809 50.3612 217.1C50.3612 217.197 50.3612 217.197 50.3612 217.294C50.3612 217.391 50.3612 217.391 50.4582 217.488C50.5552 217.682 50.5552 217.973 50.6522 218.167C50.6522 218.264 50.7492 218.458 50.7492 218.555C50.8462 218.846 50.9432 219.04 50.9432 219.331C50.9432 219.428 51.0402 219.525 51.0402 219.622V219.719C51.1372 219.913 51.2342 220.204 51.2342 220.398C51.2342 220.495 51.3313 220.689 51.3313 220.786C51.4283 221.077 51.5253 221.368 51.7193 221.659C51.7193 221.756 51.7193 221.756 51.8163 221.853C51.9133 222.241 52.1073 222.532 52.2043 222.92C52.2043 223.017 52.3013 223.114 52.3013 223.114C52.3983 223.405 52.4953 223.599 52.6893 223.89C52.7863 223.987 52.7863 224.084 52.8834 224.278C52.9804 224.472 53.0774 224.666 53.1744 224.957C53.2714 225.054 53.2714 225.248 53.3684 225.345C53.4654 225.539 53.5624 225.733 53.6594 225.927C53.7564 226.024 53.7564 226.121 53.8534 226.218C53.9504 226.412 54.0474 226.606 54.2414 226.8C54.3384 226.897 54.4354 227.091 54.4354 227.188C54.5325 227.382 54.6295 227.577 54.8235 227.771C54.8235 227.771 54.8235 227.868 54.9205 227.868C55.0175 227.965 55.0175 228.062 55.1145 228.159C55.2115 228.353 55.4055 228.644 55.5025 228.838C55.5995 228.935 55.6965 229.129 55.7935 229.226C55.8905 229.42 56.0846 229.614 56.1816 229.808C56.2786 229.905 56.2786 229.905 56.3756 230.002C56.3756 230.099 56.4726 230.099 56.4726 230.099C56.6666 230.39 56.9576 230.681 57.1516 231.069C57.1516 231.166 57.2486 231.166 57.2486 231.263C57.5396 231.651 57.8307 231.942 58.1217 232.33L58.2187 232.427C58.3157 232.524 58.4127 232.621 58.4127 232.718C58.5097 232.912 58.7037 233.009 58.8007 233.203C58.8977 233.3 58.9947 233.494 59.0917 233.591C59.1887 233.785 59.3828 233.882 59.4798 234.076C59.5768 234.173 59.6738 234.27 59.8678 234.464C59.9648 234.561 60.1588 234.755 60.2558 234.852C60.3528 234.949 60.4498 235.046 60.6438 235.24C60.7408 235.337 60.9349 235.531 61.0319 235.628C61.1289 235.725 61.1289 235.725 61.2259 235.822L61.3229 235.919C61.6139 236.113 61.9049 236.404 62.0989 236.598C62.1959 236.598 62.1959 236.695 62.2929 236.695C62.584 236.986 62.972 237.18 63.263 237.471C63.36 237.568 63.457 237.568 63.554 237.665C63.845 237.859 64.0391 238.053 64.3301 238.247C64.4271 238.344 64.5241 238.344 64.6211 238.441C65.0091 238.635 65.3001 238.829 65.6881 239.12C65.7852 239.217 65.8822 239.217 65.9792 239.314C66.0762 239.411 66.1732 239.411 66.2702 239.411C66.4642 239.508 66.5612 239.605 66.7552 239.605C66.8522 239.702 67.0462 239.702 67.1432 239.799C67.2402 239.896 67.4343 239.896 67.5313 239.993C67.6283 240.09 67.8223 240.09 67.9193 240.187C68.0163 240.284 68.2103 240.284 68.3073 240.381C68.4043 240.478 68.5983 240.478 68.6953 240.478C68.7923 240.575 68.9864 240.575 69.0834 240.575C69.1804 240.575 69.1804 240.575 69.2774 240.672C69.3744 240.672 69.4714 240.769 69.6654 240.769H69.7624C69.9564 240.866 70.2474 240.866 70.4414 240.963C70.5385 240.963 70.5385 240.963 70.6355 240.963C70.8295 240.963 71.0235 241.06 71.2175 241.06H71.3145C71.3145 241.06 71.3145 241.06 71.4115 241.06C71.6055 241.06 71.7995 241.157 71.9935 241.157H72.0906C72.2846 241.157 72.4786 241.157 72.6726 241.157H72.7696C72.8666 241.157 72.9636 241.157 72.9636 241.157C73.0606 241.157 73.0606 241.157 73.1576 241.157C73.2546 241.157 73.4486 241.157 73.5456 241.157C73.6427 241.157 73.7397 241.157 73.8367 241.157C73.9337 241.157 74.1277 241.157 74.2247 241.157C74.3217 241.157 74.3217 241.157 74.4187 241.157C74.5157 241.157 74.5157 241.157 74.6127 241.157C74.7097 241.157 74.8067 241.157 75.0007 241.06C75.0977 241.06 75.1947 241.06 75.2918 240.963C75.3888 240.963 75.4858 240.866 75.5828 240.866C75.6798 240.866 75.6798 240.866 75.7768 240.769H75.8738C75.9708 240.769 76.0678 240.672 76.1648 240.672C76.2618 240.672 76.3588 240.575 76.4558 240.575C76.5528 240.575 76.6498 240.478 76.7468 240.381C76.8438 240.381 76.8439 240.284 76.9409 240.284C77.0379 240.284 77.0379 240.187 77.1349 240.187L88.9696 233.397C88.4846 233.591 88.3876 233.591 88.2906 233.688Z" fill="#2F58FF"/>
<path d="M64.233 194.497C67.2402 191.684 71.8965 191.49 77.1348 194.497C86.1564 199.639 93.4319 212.346 93.4319 222.726C93.4319 228.837 90.9097 232.815 87.0295 234.076" stroke="#171A21" stroke-width="2" stroke-miterlimit="10" stroke-linecap="round" stroke-linejoin="round"/>
</svg>
