<svg width="499" height="487" viewBox="0 0 499 487" fill="none" xmlns="http://www.w3.org/2000/svg">
<path d="M304.587 99.5183C304.587 99.5183 304.477 99.5183 304.477 99.4084H304.367H304.257H304.148C304.148 99.4084 304.148 99.4084 304.038 99.4084C303.928 99.4084 303.818 99.4084 303.708 99.4084C303.598 99.4084 303.379 99.4084 303.159 99.4084C302.939 99.4084 302.61 99.5183 302.28 99.6281C302.28 99.6281 302.28 99.6281 302.17 99.6281C301.841 99.738 301.511 99.8478 301.182 99.9577C301.072 99.9577 301.072 99.9577 300.962 100.068C300.633 100.177 300.303 100.287 299.864 100.507H299.754C299.424 100.617 298.985 100.836 298.655 100.946H298.546C298.106 101.166 297.777 101.276 297.337 101.495C297.227 101.495 297.227 101.605 297.118 101.605C296.678 101.825 296.349 102.045 295.909 102.264C295.8 102.264 295.8 102.374 295.69 102.374C295.25 102.594 294.811 102.814 294.372 103.033C292.614 104.022 290.747 105.23 289.319 106.329C289.099 106.438 288.879 106.658 288.66 106.878C288.55 106.878 288.55 106.988 288.44 106.988C288.22 107.207 288.001 107.317 287.781 107.537C287.561 107.757 287.342 107.976 287.012 108.086C286.902 108.086 286.902 108.196 286.792 108.196C286.573 108.416 286.353 108.635 286.023 108.855C285.804 109.075 285.474 109.294 285.255 109.514C285.145 109.514 285.145 109.624 285.035 109.734C284.815 109.953 284.595 110.173 284.266 110.393C284.046 110.613 283.827 110.832 283.497 111.052C283.387 111.162 283.387 111.162 283.277 111.272C283.058 111.491 282.838 111.711 282.618 111.931C282.399 112.15 282.179 112.37 281.849 112.7C281.74 112.809 281.74 112.809 281.63 112.919C281.19 113.359 280.751 113.908 280.312 114.347C280.312 114.457 280.202 114.457 280.202 114.567C279.982 114.787 279.762 115.006 279.543 115.226C279.323 115.446 279.103 115.665 278.993 115.885L278.884 115.995C278.664 116.215 278.554 116.434 278.334 116.654C278.334 116.654 278.334 116.654 278.334 116.764C278.115 116.983 277.895 117.313 277.785 117.533C277.785 117.533 277.785 117.533 277.785 117.643C277.675 117.752 277.565 117.972 277.456 118.082C277.456 118.082 277.456 118.082 277.456 118.192C277.456 118.192 277.456 118.302 277.346 118.302C277.346 118.411 277.236 118.411 277.236 118.521C277.236 118.521 277.236 118.631 277.126 118.631C277.126 118.631 277.126 118.741 277.016 118.741V118.851C277.016 118.851 277.016 118.851 277.016 118.961C277.016 119.07 276.906 119.18 276.906 119.18C276.906 119.18 276.906 119.29 276.797 119.29C276.797 119.29 276.797 119.4 276.687 119.4C276.687 119.4 276.687 119.51 276.577 119.51V119.62V119.73V119.839V119.949C276.577 119.949 276.577 119.949 276.577 120.059C276.577 120.169 276.577 120.169 276.577 120.279C276.577 120.389 276.687 120.389 276.687 120.498L283.827 124.672C283.717 124.782 283.497 125.002 283.387 125.112C283.277 125.222 283.277 125.222 283.167 125.332C282.618 125.991 281.959 126.54 281.41 127.199C281.3 127.309 281.08 127.528 280.971 127.638C280.421 128.187 279.982 128.737 279.433 129.176C279.103 129.506 278.774 129.835 278.444 130.165C278.115 130.494 277.785 130.824 277.456 131.153C277.126 131.483 276.797 131.812 276.467 132.142C276.137 132.471 275.808 132.801 275.588 133.13C275.259 133.46 275.039 133.68 274.71 134.009C274.38 134.339 274.05 134.668 273.611 135.108C273.282 135.437 272.952 135.767 272.732 135.986C272.403 136.316 272.073 136.645 271.744 136.975C271.744 136.975 271.744 136.975 271.634 137.085C270.865 137.854 269.986 138.623 269.217 139.392C268.998 139.611 268.778 139.831 268.558 139.941C267.789 140.71 266.911 141.479 266.142 142.247C266.142 142.247 266.142 142.247 266.032 142.247C265.263 143.016 264.494 143.675 263.615 144.444C263.396 144.664 263.176 144.774 262.956 144.994C262.187 145.762 261.418 146.422 260.54 147.081C259.771 147.74 259.002 148.399 258.233 149.058C258.013 149.277 257.794 149.387 257.684 149.607C256.915 150.266 256.146 150.925 255.377 151.584C254.608 152.243 253.839 152.792 253.07 153.452C252.851 153.561 252.741 153.781 252.521 153.891C251.752 154.55 250.983 155.099 250.214 155.648C249.445 156.198 248.786 156.747 248.017 157.296C247.798 157.406 247.688 157.626 247.468 157.735C246.699 158.285 246.04 158.834 245.271 159.383C244.502 159.932 243.843 160.372 243.075 160.921C242.855 161.031 242.745 161.141 242.525 161.25C241.756 161.8 241.097 162.239 240.328 162.788C239.669 163.228 238.9 163.777 238.241 164.216C238.022 164.326 237.912 164.436 237.692 164.546C237.033 164.985 236.264 165.425 235.605 165.864C234.946 166.303 234.287 166.743 233.518 167.072C233.298 167.182 233.189 167.292 232.969 167.402C232.31 167.841 231.651 168.171 230.882 168.61C230.003 169.159 229.124 169.599 228.246 170.038C228.026 170.148 227.806 170.258 227.696 170.367C226.818 170.807 226.049 171.246 225.17 171.686C225.06 171.795 224.95 171.795 224.84 171.905C224.072 172.235 223.303 172.674 222.644 173.004C222.424 173.114 222.314 173.223 222.094 173.223C221.325 173.663 220.447 173.992 219.678 174.322C219.568 174.432 219.348 174.432 219.238 174.542C218.47 174.871 217.81 175.201 217.042 175.42C216.932 175.42 216.822 175.53 216.712 175.53C216.492 175.64 216.163 175.75 215.943 175.86C215.174 176.189 214.515 176.409 213.746 176.738C213.417 176.848 213.087 176.958 212.758 177.178C212.099 177.397 211.549 177.617 210.89 177.837C210.561 177.947 210.121 178.057 209.792 178.166C209.243 178.386 208.584 178.606 208.034 178.716C207.705 178.825 207.375 178.935 207.046 179.045C206.387 179.265 205.838 179.375 205.178 179.594C204.849 179.704 204.519 179.814 204.3 179.814C203.86 179.924 203.311 180.034 202.872 180.144C202.542 180.253 202.213 180.363 201.773 180.363C201.334 180.473 200.785 180.583 200.345 180.693C200.016 180.803 199.686 180.803 199.357 180.912C198.808 181.022 198.368 181.132 197.819 181.242C197.489 181.242 197.27 181.352 196.94 181.352C196.281 181.462 195.622 181.572 194.963 181.681C194.853 181.681 194.743 181.681 194.633 181.791C193.865 181.901 193.096 182.011 192.327 182.121C192.107 182.121 191.778 182.231 191.558 182.231C191.009 182.34 190.569 182.34 190.02 182.45C189.69 182.45 189.471 182.45 189.141 182.56C188.702 182.56 188.263 182.67 187.823 182.67C187.494 182.67 187.164 182.67 186.835 182.78C186.395 182.78 185.956 182.78 185.516 182.89C185.297 182.89 184.967 182.89 184.748 182.89C184.088 182.89 183.429 182.89 182.77 183C182.551 183 182.331 183 182.221 183C181.342 183 180.573 183 179.805 183C179.585 183 179.475 183 179.255 183C178.596 183 177.937 183 177.278 183C177.058 183 176.839 183 176.619 183C175.85 183 175.191 182.89 174.532 182.89C174.422 182.89 174.422 182.89 174.312 182.89C173.104 182.78 171.896 182.67 170.797 182.56C170.797 182.56 170.797 182.56 170.688 182.56C169.479 182.45 168.381 182.34 167.282 182.231C166.184 182.121 165.085 182.011 163.987 181.901C162.889 181.791 161.9 181.681 160.802 181.462H160.692H160.582H160.472H160.362C160.252 181.462 160.143 181.462 160.143 181.572C160.033 181.572 159.923 181.681 159.813 181.681C159.703 181.791 159.593 181.791 159.483 181.901C159.483 181.901 159.483 181.901 159.374 182.011C159.264 182.121 159.154 182.121 159.154 182.231C159.154 182.231 159.154 182.231 159.044 182.34L158.934 182.45C158.934 182.45 158.934 182.45 158.824 182.56L158.715 182.67C158.715 182.67 158.715 182.78 158.605 182.78C158.605 182.78 158.605 182.89 158.495 182.89C158.495 182.89 158.495 182.89 158.495 183V183.109V183.219V183.329V183.439V183.549C158.495 183.549 158.495 183.549 158.495 183.659C158.495 183.659 158.495 183.659 158.495 183.768C158.495 183.768 158.495 183.768 158.495 183.878V183.988V184.098C158.495 184.208 158.495 184.318 158.495 184.318C158.495 184.427 158.495 184.427 158.495 184.537V184.647C158.495 184.757 158.495 184.757 158.605 184.867V184.977C158.605 185.087 158.715 185.087 158.715 185.087C158.715 185.087 158.715 185.196 158.824 185.196C158.824 185.306 158.934 185.306 158.934 185.416C158.934 185.416 158.934 185.416 159.044 185.526C159.154 185.636 159.264 185.636 159.264 185.746C160.362 186.624 161.68 187.503 163.328 188.492L185.297 201.234C183.649 200.245 182.331 199.366 181.233 198.487C181.123 198.378 181.013 198.378 181.013 198.268C181.013 198.268 181.013 198.268 180.903 198.158C180.903 198.048 180.793 198.048 180.793 197.938C180.793 197.938 180.793 197.828 180.683 197.828C180.683 197.828 180.573 197.719 180.573 197.609V197.499C180.573 197.389 180.573 197.389 180.464 197.279V197.169C180.464 197.06 180.464 197.06 180.354 196.95C180.354 196.84 180.354 196.73 180.354 196.73V196.62C180.354 196.51 180.354 196.51 180.354 196.4C180.354 196.4 180.354 196.4 180.354 196.291C180.354 196.181 180.354 196.181 180.464 196.071C180.464 195.961 180.573 195.851 180.573 195.851C180.573 195.741 180.683 195.632 180.683 195.632C180.683 195.522 180.793 195.412 180.793 195.412C180.793 195.302 180.903 195.302 180.903 195.192L181.013 195.082C181.013 195.082 181.013 195.082 181.123 194.972C181.233 194.863 181.342 194.863 181.342 194.753C181.342 194.753 181.342 194.753 181.452 194.643C181.562 194.533 181.672 194.533 181.782 194.423C181.892 194.313 182.001 194.313 182.111 194.313C182.221 194.313 182.331 194.204 182.441 194.204C182.551 194.204 182.66 194.204 182.66 194.204C182.77 194.204 182.88 194.204 182.88 194.204C183.869 194.313 184.967 194.423 186.066 194.643C187.164 194.753 188.263 194.863 189.361 194.972C189.361 194.972 189.361 194.972 189.471 194.972C190.569 195.082 191.668 195.192 192.876 195.302C192.876 195.302 192.876 195.302 192.986 195.302C194.194 195.412 195.293 195.522 196.501 195.632H196.611C197.27 195.632 198.039 195.741 198.698 195.741C198.917 195.741 199.137 195.741 199.357 195.741C200.016 195.741 200.675 195.741 201.334 195.741C201.554 195.741 201.663 195.741 201.883 195.741C202.652 195.741 203.531 195.741 204.3 195.741C204.519 195.741 204.739 195.741 204.849 195.741C205.508 195.741 206.167 195.741 206.826 195.632C206.936 195.632 207.156 195.632 207.265 195.632C207.375 195.632 207.485 195.632 207.595 195.632C208.034 195.632 208.474 195.632 208.913 195.522C209.243 195.522 209.572 195.522 209.792 195.412C210.231 195.412 210.671 195.302 211.22 195.302C211.549 195.302 211.769 195.302 212.099 195.192C212.648 195.192 213.087 195.082 213.636 194.972C213.856 194.972 214.186 194.972 214.405 194.863C215.174 194.753 215.943 194.643 216.712 194.533C216.822 194.533 216.932 194.533 217.042 194.533C217.701 194.423 218.36 194.313 219.019 194.204C219.348 194.204 219.568 194.094 219.898 194.094C220.447 193.984 220.886 193.874 221.435 193.764C221.765 193.654 222.094 193.654 222.424 193.545C222.863 193.435 223.413 193.325 223.852 193.215C224.181 193.105 224.511 192.995 224.95 192.995C225.39 192.885 225.939 192.776 226.378 192.666C226.488 192.666 226.488 192.666 226.598 192.556C226.818 192.446 227.037 192.446 227.257 192.336C227.916 192.117 228.465 192.007 229.124 191.787C229.454 191.677 229.783 191.567 230.223 191.457C230.772 191.238 231.431 191.128 231.98 190.908C232.31 190.798 232.749 190.689 233.079 190.579C233.738 190.359 234.287 190.139 234.946 189.92C235.276 189.81 235.605 189.7 235.935 189.48C236.704 189.261 237.363 188.931 238.132 188.602C238.351 188.492 238.571 188.492 238.791 188.382C238.791 188.382 238.9 188.382 238.9 188.272C239.01 188.272 239.12 188.162 239.23 188.162C239.889 187.833 240.658 187.503 241.427 187.283C241.537 187.174 241.756 187.174 241.866 187.064C242.635 186.734 243.514 186.295 244.283 185.965C244.503 185.855 244.612 185.855 244.832 185.746C245.601 185.416 246.37 184.977 247.029 184.647C247.139 184.537 247.249 184.537 247.358 184.427C248.237 183.988 249.006 183.549 249.885 183.109C250.105 183 250.324 182.89 250.434 182.78C251.313 182.34 252.192 181.791 253.07 181.352C253.729 180.912 254.388 180.583 255.157 180.144C255.377 180.034 255.487 179.924 255.707 179.814C256.366 179.375 257.025 178.935 257.794 178.606C258.453 178.166 259.222 177.727 259.881 177.288C260.1 177.178 260.21 177.068 260.43 176.958C261.858 176.079 263.286 175.091 264.714 174.102C264.933 173.992 265.043 173.882 265.263 173.773C266.032 173.223 266.691 172.784 267.46 172.235C268.229 171.686 268.888 171.136 269.657 170.587C269.876 170.477 269.986 170.258 270.206 170.148C270.975 169.599 271.634 169.049 272.403 168.39C273.172 167.841 273.941 167.182 274.71 166.633C274.929 166.523 275.039 166.303 275.259 166.193C276.028 165.534 276.797 164.985 277.565 164.326C278.334 163.667 279.103 163.008 279.872 162.349C280.092 162.129 280.312 162.019 280.421 161.8C281.19 161.141 281.959 160.482 282.728 159.822C283.497 159.163 284.266 158.395 285.145 157.735C285.364 157.516 285.584 157.406 285.694 157.186C286.463 156.417 287.232 155.758 288.11 154.989C288.11 154.989 288.11 154.989 288.22 154.989C288.989 154.22 289.868 153.452 290.637 152.683C290.857 152.463 291.076 152.243 291.296 152.133C292.065 151.365 292.944 150.596 293.712 149.827C294.042 149.497 294.372 149.168 294.701 148.838C295.031 148.509 295.36 148.179 295.69 147.85C296.019 147.52 296.239 147.3 296.568 146.971C296.898 146.641 297.227 146.202 297.667 145.872C297.887 145.653 298.216 145.323 298.436 145.103C298.765 144.664 299.205 144.335 299.534 143.895C299.754 143.675 299.974 143.456 300.193 143.126C300.633 142.687 301.072 142.247 301.402 141.808C301.621 141.588 301.841 141.369 302.061 141.039C302.17 140.929 302.28 140.82 302.28 140.71L315.132 148.179L315.022 148.069V147.959C315.022 147.959 315.022 147.959 315.022 147.85C315.022 147.74 315.022 147.74 315.022 147.63V147.52C315.022 147.41 315.022 147.3 315.022 147.19C315.022 147.19 315.022 147.19 315.022 147.081C315.022 146.971 315.022 146.861 315.132 146.751V146.641C315.132 146.531 315.132 146.422 315.242 146.312C315.242 146.202 315.352 146.092 315.352 145.872C315.352 145.762 315.462 145.653 315.462 145.543V145.433C315.462 145.323 315.571 145.213 315.571 145.103C315.571 144.994 315.571 144.994 315.681 144.884C315.681 144.774 315.791 144.664 315.791 144.554C315.791 144.444 315.791 144.444 315.901 144.335C315.901 144.225 316.011 144.115 316.011 144.005C316.011 143.895 316.011 143.895 316.121 143.785C316.121 143.675 316.23 143.566 316.23 143.346C316.23 143.236 316.34 143.126 316.34 143.016C316.34 142.907 316.45 142.797 316.45 142.687C316.45 142.577 316.56 142.467 316.56 142.357C316.56 142.247 316.67 142.138 316.67 141.918C316.67 141.808 316.78 141.698 316.78 141.588C316.78 141.479 316.89 141.369 316.89 141.259V141.149C316.999 140.929 316.999 140.6 317.109 140.38C317.109 140.27 317.109 140.27 317.109 140.16C317.219 139.831 317.329 139.501 317.329 139.172C317.329 139.062 317.329 138.952 317.439 138.952C317.549 138.732 317.549 138.403 317.658 138.183C317.658 138.073 317.768 137.964 317.768 137.854C317.878 137.634 317.878 137.414 317.988 137.085C317.988 136.975 318.098 136.865 318.098 136.645C318.208 136.426 318.208 136.096 318.317 135.877C318.317 135.767 318.427 135.657 318.427 135.547C318.647 134.778 318.757 134.009 318.977 133.35C318.977 133.24 318.977 133.13 319.086 133.021C319.196 132.801 319.196 132.471 319.306 132.252C319.306 132.142 319.306 132.142 319.306 132.032C319.306 131.922 319.306 131.922 319.306 131.812C319.416 131.483 319.416 131.153 319.526 130.824C319.526 130.714 319.526 130.604 319.526 130.604C319.636 130.165 319.636 129.835 319.745 129.396C319.745 129.286 319.745 129.176 319.745 129.176C319.745 128.847 319.855 128.627 319.855 128.297C319.855 128.188 319.855 128.078 319.855 127.968C319.855 127.638 319.965 127.309 319.965 126.979C319.965 126.65 320.075 126.43 320.075 126.1C320.075 125.991 320.075 125.991 320.075 125.881C320.075 125.661 320.075 125.551 320.075 125.332C320.075 125.222 320.075 125.112 320.075 125.002C320.075 124.892 320.075 124.673 320.075 124.563C320.075 124.453 320.075 124.343 320.075 124.233C320.075 124.123 320.075 124.013 320.075 123.794C320.075 123.684 320.075 123.574 320.075 123.574C320.075 123.464 320.075 123.354 320.075 123.245C320.075 123.135 320.075 123.135 320.075 123.025C320.075 122.915 320.075 122.805 319.965 122.695C319.965 122.585 319.965 122.585 319.965 122.476C319.965 122.366 319.855 122.256 319.855 122.256V122.146C319.745 122.036 319.745 121.926 319.636 121.926C319.526 121.926 319.526 121.817 319.416 121.817L312.386 117.752C313.594 116.874 315.022 116.105 316.34 115.226C316.78 115.006 317.219 114.787 317.658 114.567C317.768 114.567 317.768 114.457 317.878 114.457C318.317 114.237 318.647 114.018 319.086 113.798C319.196 113.798 319.196 113.688 319.306 113.688C319.745 113.468 320.075 113.249 320.514 113.139H320.624C320.954 112.919 321.393 112.809 321.723 112.7C321.723 112.7 321.832 112.7 321.832 112.59C322.162 112.48 322.492 112.26 322.931 112.15C323.041 112.15 323.041 112.15 323.151 112.04C323.48 111.931 323.81 111.821 324.139 111.711H324.249C324.579 111.601 324.798 111.601 325.128 111.491C325.128 111.491 325.128 111.491 325.238 111.491C325.457 111.491 325.567 111.491 325.787 111.491C325.897 111.491 326.116 111.491 326.226 111.491C326.226 111.491 326.226 111.491 326.336 111.491C326.446 111.491 326.556 111.491 326.666 111.491C326.775 111.491 326.885 111.601 326.995 111.601L304.587 99.5183Z" fill="#2F58FF"/>
<path d="M184.528 146.312C184.748 146.751 184.967 147.081 185.187 147.52C186.505 149.827 188.153 151.474 190.13 152.683L212.099 165.425C206.936 162.459 203.75 155.429 203.75 143.676C203.75 143.017 203.75 142.467 203.75 141.808C203.75 141.589 203.75 141.369 203.75 141.149C203.75 140.71 203.75 140.27 203.86 139.831C203.86 139.611 203.86 139.392 203.86 139.062C203.86 138.623 203.97 138.293 203.97 137.854C203.97 137.634 203.97 137.305 204.08 137.085C204.08 136.755 204.19 136.316 204.19 135.987C204.19 135.767 204.3 135.547 204.3 135.327C204.41 134.559 204.519 133.79 204.629 133.021C204.629 132.911 204.629 132.801 204.629 132.801C204.739 132.142 204.849 131.373 205.069 130.714C205.069 130.494 205.178 130.275 205.178 130.055C205.288 129.616 205.398 129.286 205.508 128.847C205.508 128.627 205.618 128.407 205.618 128.188C205.728 127.748 205.838 127.199 206.057 126.76C206.057 126.65 206.167 126.54 206.167 126.43C206.277 126.101 206.387 125.771 206.497 125.442C206.606 125.222 206.606 125.002 206.716 124.782C206.826 124.453 206.936 124.123 207.046 123.684C207.156 123.464 207.156 123.245 207.265 123.135C207.595 122.146 207.925 121.158 208.254 120.279C208.254 120.169 208.364 120.059 208.364 120.059C208.693 119.18 209.023 118.302 209.462 117.533C209.572 117.423 209.572 117.203 209.682 117.093C210.012 116.324 210.451 115.446 210.78 114.677C210.89 114.567 210.89 114.347 211 114.237C211.44 113.469 211.769 112.59 212.208 111.821C212.208 111.711 212.318 111.601 212.318 111.491C212.758 110.613 213.307 109.734 213.746 108.855C214.295 107.867 214.845 106.988 215.504 106.109V105.999C216.163 105.011 216.822 104.022 217.481 103.033C217.481 103.033 217.481 103.033 217.481 102.924C218.25 101.825 219.019 100.837 219.788 99.8479C219.898 99.7381 220.007 99.6282 220.117 99.4086C220.447 98.9692 220.886 98.42 221.216 97.9806C221.325 97.8707 221.435 97.7609 221.435 97.651C221.875 97.1018 222.314 96.5526 222.863 96.0034C222.973 95.8935 223.083 95.7837 223.193 95.6739C223.852 95.0148 224.401 94.2459 225.06 93.5868C225.719 92.9278 226.268 92.2687 226.927 91.6096C227.147 91.39 227.257 91.2801 227.477 91.0604C227.916 90.6211 228.355 90.1817 228.795 89.7423C229.124 89.4128 229.344 89.1931 229.674 88.8636C230.113 88.4242 230.552 88.0947 230.992 87.6553C231.321 87.4356 231.541 87.1061 231.87 86.8864C232.31 86.447 232.749 86.1175 233.298 85.6781C233.628 85.4584 233.848 85.1289 234.177 84.9092C234.726 84.4698 235.276 84.0304 235.825 83.5911C236.045 83.3714 236.264 83.2615 236.484 83.0418C237.253 82.3828 238.022 81.8336 238.791 81.1745C238.9 81.0646 239.01 80.9548 239.12 80.9548C239.669 80.5154 240.328 79.9662 240.878 79.5268C240.878 79.6367 240.878 79.6367 240.878 79.7465C240.878 79.9662 240.878 80.1859 240.878 80.4056C240.878 80.7351 240.878 81.0647 240.878 81.3942C240.878 81.6139 240.878 81.8336 240.878 82.0532C240.878 82.3828 240.878 82.7123 240.878 83.0418C240.878 83.2615 240.878 83.4812 240.878 83.7009C240.878 84.0304 240.878 84.36 240.768 84.6895C240.768 84.9092 240.768 85.1289 240.768 85.3486C240.768 85.6781 240.658 86.0076 240.658 86.447C240.658 86.6667 240.658 86.8864 240.548 87.1061C240.548 87.5454 240.438 87.9848 240.438 88.3143C240.438 88.4242 240.438 88.6439 240.438 88.7537C240.328 89.4128 240.219 89.962 240.109 90.6211C240.109 90.8407 239.999 90.9506 239.999 91.1703C239.889 91.6097 239.779 92.049 239.779 92.5982C239.669 92.9278 239.669 93.1475 239.56 93.477C239.56 93.6967 239.45 93.9164 239.45 94.1361C239.34 94.4656 239.23 94.7951 239.23 95.1247C239.23 95.3443 239.12 95.564 239.12 95.7837C239.01 96.3329 238.791 96.7723 238.681 97.3215C238.681 97.4314 238.571 97.5412 238.571 97.5412C238.461 97.9806 238.351 98.42 238.132 98.7495C237.912 99.5184 237.582 100.287 237.363 101.056C237.253 101.166 237.253 101.386 237.143 101.496C236.923 102.045 236.704 102.484 236.484 102.924C236.374 103.143 236.264 103.363 236.264 103.473C236.045 103.802 235.935 104.242 235.715 104.571C235.605 104.791 235.495 105.011 235.495 105.12C235.276 105.45 235.166 105.889 234.946 106.219C234.836 106.329 234.726 106.548 234.726 106.658C234.507 107.098 234.177 107.647 233.958 108.086C233.958 108.086 233.958 108.086 233.958 108.196C233.628 108.635 233.408 109.185 233.079 109.624C232.969 109.734 232.859 109.954 232.749 110.063C232.53 110.393 232.31 110.722 232.09 111.052C231.98 111.162 231.87 111.382 231.761 111.491C231.541 111.821 231.321 112.041 231.102 112.37C230.992 112.48 230.882 112.7 230.772 112.809C230.442 113.139 230.223 113.469 229.893 113.908C229.783 114.018 229.674 114.128 229.564 114.237C229.454 114.347 229.344 114.457 229.234 114.567C229.015 114.787 228.795 115.006 228.575 115.226C228.465 115.336 228.355 115.446 228.246 115.556C228.026 115.775 227.916 115.885 227.696 116.105C227.477 116.324 227.257 116.544 227.037 116.654C226.928 116.764 226.708 116.874 226.598 117.093C226.378 117.313 226.159 117.423 225.939 117.643C225.829 117.752 225.609 117.862 225.5 117.972C225.28 118.192 224.95 118.302 224.731 118.521C224.621 118.631 224.511 118.741 224.401 118.741C224.072 118.961 223.632 119.18 223.303 119.4C222.863 119.62 222.534 119.839 222.204 119.949C222.094 120.059 221.985 120.059 221.875 120.059C221.545 120.169 221.325 120.279 220.996 120.389C220.886 120.389 220.886 120.499 220.776 120.499C220.447 120.608 220.117 120.718 219.788 120.828C219.678 120.828 219.458 120.938 219.348 120.938C219.129 120.938 218.909 121.048 218.689 121.048C218.579 121.048 218.47 121.048 218.36 121.048C218.14 121.048 217.92 121.048 217.701 121.048C217.591 121.048 217.591 121.048 217.481 121.048C217.151 121.048 216.932 121.048 216.712 120.938H216.602C216.383 120.938 216.163 120.828 215.943 120.718C215.833 120.718 215.833 120.718 215.723 120.608C215.504 120.499 215.174 120.389 214.955 120.279L236.923 133.021C236.923 133.021 236.923 133.021 237.033 133.021C237.253 133.131 237.363 133.24 237.582 133.24H237.692C237.802 133.24 237.802 133.24 237.912 133.35C238.022 133.35 238.022 133.46 238.132 133.46C238.241 133.46 238.461 133.57 238.571 133.57H238.681C238.9 133.57 239.12 133.68 239.34 133.68H239.45C239.56 133.68 239.56 133.68 239.669 133.68C239.779 133.68 239.889 133.68 239.999 133.68C240.109 133.68 240.219 133.68 240.328 133.68C240.438 133.68 240.548 133.68 240.658 133.68H240.768C240.878 133.68 241.097 133.57 241.207 133.57C241.317 133.57 241.537 133.57 241.647 133.46H241.756C242.086 133.35 242.306 133.24 242.635 133.131C242.745 133.131 242.745 133.131 242.855 133.021C242.965 133.021 243.075 132.911 243.294 132.911C243.404 132.801 243.624 132.801 243.734 132.691C243.843 132.691 243.953 132.581 244.063 132.581C244.393 132.362 244.832 132.252 245.162 132.032C245.491 131.812 245.93 131.593 246.26 131.373C246.37 131.263 246.48 131.153 246.59 131.153C246.809 130.934 247.139 130.824 247.358 130.604C247.468 130.494 247.688 130.384 247.798 130.275C248.017 130.055 248.237 129.945 248.457 129.725C248.567 129.616 248.786 129.506 248.896 129.286C249.116 129.066 249.336 128.847 249.555 128.737C249.665 128.627 249.665 128.627 249.775 128.517C249.885 128.407 249.995 128.297 250.105 128.188C250.214 128.078 250.324 127.968 250.434 127.858C250.654 127.638 250.873 127.419 251.093 127.199C251.203 127.089 251.313 126.979 251.423 126.869L251.532 126.76C251.642 126.65 251.642 126.65 251.752 126.54C252.082 126.21 252.301 125.881 252.631 125.442C252.741 125.332 252.741 125.332 252.851 125.222C252.96 125.112 252.96 125.002 253.07 125.002C253.29 124.673 253.51 124.453 253.729 124.123C253.839 124.014 253.839 123.904 253.949 123.794L254.059 123.684C254.279 123.354 254.498 123.025 254.718 122.695C254.828 122.586 254.828 122.476 254.938 122.366C254.938 122.366 254.938 122.366 254.938 122.256C255.267 121.817 255.487 121.267 255.816 120.828C255.816 120.828 255.816 120.828 255.816 120.718C256.036 120.279 256.366 119.73 256.585 119.29V119.18C256.695 119.071 256.695 118.961 256.805 118.851C257.025 118.521 257.135 118.082 257.354 117.752C257.354 117.643 257.464 117.643 257.464 117.533C257.574 117.423 257.574 117.313 257.684 117.203C257.903 116.874 258.013 116.434 258.233 116.105C258.233 115.995 258.343 115.885 258.343 115.775C258.343 115.665 258.453 115.556 258.453 115.556C258.672 115.116 258.892 114.567 259.112 114.018C259.112 113.908 259.222 113.798 259.222 113.688C259.222 113.578 259.222 113.578 259.331 113.469C259.661 112.7 259.881 111.931 260.1 111.162C260.1 111.052 260.21 111.052 260.21 110.942C260.32 110.613 260.43 110.283 260.54 109.954C260.54 109.844 260.65 109.734 260.65 109.734C260.759 109.294 260.979 108.855 261.089 108.306C261.089 108.196 261.089 108.196 261.089 108.086C261.199 107.867 261.199 107.647 261.199 107.427C261.309 107.098 261.418 106.768 261.418 106.439C261.418 106.219 261.528 105.999 261.528 105.779C261.528 105.56 261.638 105.45 261.638 105.23C261.638 105.12 261.638 105.011 261.748 104.901C261.858 104.461 261.968 104.022 261.968 103.473C261.968 103.253 262.078 103.143 262.078 102.924C262.187 102.264 262.297 101.715 262.407 101.056C262.407 100.946 262.407 100.837 262.407 100.617C262.407 100.177 262.517 99.7381 262.517 99.4086C262.517 99.1889 262.517 98.9692 262.627 98.7495C262.627 98.42 262.737 98.0904 262.737 97.651C262.737 97.4314 262.737 97.2117 262.737 96.992C262.737 96.6625 262.737 96.3329 262.846 96.0034C262.846 95.7837 262.846 95.564 262.846 95.3443C262.846 95.0148 262.846 94.6853 262.846 94.3557C262.846 94.1361 262.846 93.9164 262.846 93.6967C262.846 93.3672 262.846 93.0376 262.846 92.7081C262.846 92.4884 262.846 92.2687 262.846 92.049C262.846 91.7195 262.846 91.39 262.846 90.9506C262.846 90.7309 262.846 90.5112 262.846 90.2915C262.846 89.8521 262.846 89.4128 262.846 88.9734C262.846 88.2045 262.846 87.5454 262.846 86.7765V81.8336L248.347 73.4854C248.677 73.2657 248.896 73.0461 249.226 72.8264C249.665 72.4969 250.105 72.1673 250.544 71.8378C250.873 71.6181 251.203 71.3984 251.532 71.0689C251.972 70.7393 252.411 70.4098 252.851 70.0803C253.18 69.8606 253.51 69.6409 253.839 69.4212C254.388 69.0917 254.828 68.7622 255.377 68.3228C255.707 68.1031 256.036 67.8834 256.366 67.6637C257.025 67.2244 257.684 66.785 258.343 66.3456C258.782 66.0161 259.331 65.6865 259.771 65.357C260.1 65.1373 260.32 64.9176 260.65 64.8078C261.418 64.2586 262.077 63.8192 262.846 63.27V60.3042C262.846 54.812 263.176 48.1115 260.32 45.0359C260.1 44.8162 259.99 44.5965 259.771 44.4867C259.551 44.3769 259.331 44.1572 259.112 44.0473L237.143 31.3055C237.582 31.5251 238.022 31.8547 238.351 32.294C241.207 35.3697 240.768 42.0701 240.878 47.5623V50.5281C240.219 51.0773 239.45 51.5167 238.681 52.0659C238.461 52.2856 238.132 52.5053 237.802 52.6151C237.363 52.9447 236.813 53.2742 236.374 53.6037C235.715 54.0431 235.166 54.4825 234.507 54.9218C234.177 55.1415 233.738 55.4711 233.408 55.6908C232.969 56.0203 232.42 56.3498 231.98 56.6794C231.651 56.899 231.321 57.1187 230.992 57.4483C230.552 57.7778 230.113 58.1073 229.674 58.4369C229.344 58.6565 229.015 58.8762 228.685 59.2058C228.246 59.5353 227.806 59.8648 227.367 60.1944C227.037 60.414 226.708 60.7436 226.268 60.9633C225.829 61.2928 225.39 61.6223 224.95 61.9518C224.621 62.1715 224.291 62.5011 223.962 62.7208C223.522 63.0503 222.973 63.3798 222.534 63.7093C222.204 63.929 221.875 64.1487 221.545 64.4783C220.996 64.8078 220.557 65.2472 220.007 65.5767C219.678 65.7964 219.458 66.0161 219.129 66.2358C218.47 66.785 217.81 67.2243 217.151 67.7736C217.042 67.8834 216.932 67.9933 216.822 68.1031C216.053 68.7622 215.284 69.3114 214.515 69.9704C214.295 70.1901 214.076 70.4098 213.856 70.5197C213.307 70.959 212.758 71.3984 212.318 71.8378C211.989 72.0575 211.769 72.387 211.44 72.6067C211 73.0461 210.561 73.3756 210.012 73.815C209.682 74.0347 209.462 74.3642 209.133 74.5839C208.803 74.9134 208.474 75.2429 208.144 75.5725C208.254 75.3528 208.254 75.0233 208.364 74.8036C208.474 74.2544 208.584 73.7051 208.803 73.1559C208.913 72.8264 208.913 72.6067 209.023 72.2772C209.243 71.6181 209.353 70.8492 209.572 70.1901C209.572 70.0803 209.572 70.0803 209.682 69.9704C209.902 69.2015 210.121 68.5425 210.341 67.8834C210.671 66.8948 211 65.9062 211.33 65.0275C211.33 65.0275 211.33 64.9176 211.44 64.9176C211.769 64.0389 212.099 63.1601 212.538 62.2814C212.648 61.9519 212.758 61.7322 212.977 61.4026C213.197 60.8534 213.527 60.1944 213.746 59.6451C213.856 59.3156 214.076 58.9861 214.186 58.6565C214.405 58.1073 214.735 57.5581 215.064 57.0089C215.174 56.6794 215.394 56.3498 215.504 56.1301C215.833 55.4711 216.163 54.812 216.602 54.2628C216.712 54.0431 216.822 53.8234 216.932 53.6037C217.481 52.725 217.92 51.8462 218.47 51.0773C218.579 50.8576 218.689 50.7478 218.799 50.5281C219.238 49.7592 219.788 48.9903 220.337 48.3312C220.447 48.1115 220.666 47.8919 220.776 47.6722C221.435 46.6836 222.204 45.695 222.863 44.8162C223.083 44.4867 223.303 44.267 223.522 43.9375C223.742 43.608 224.072 43.2784 224.291 42.9489C224.511 42.6194 224.84 42.2898 225.06 42.0701C225.39 41.7406 225.609 41.4111 225.939 41.0815C226.159 40.8619 226.268 40.6422 226.488 40.4225C227.147 39.7634 227.696 39.1044 228.355 38.4453C228.465 38.3355 228.575 38.1158 228.795 38.0059C229.564 37.237 230.223 36.4681 230.992 35.809C231.211 35.5894 231.321 35.4795 231.541 35.2598C232.2 34.7106 232.749 34.0515 233.408 33.5023C233.518 33.3925 233.738 33.1728 233.848 33.063C234.617 32.4039 235.385 31.7448 236.154 31.0858C236.374 30.9759 236.484 30.7562 236.704 30.6464C237.363 30.0972 238.022 29.548 238.571 29.1086C238.791 28.9987 238.9 28.779 239.12 28.6692C239.889 28.0101 240.658 27.4609 241.427 26.9117C241.537 26.8019 241.756 26.692 241.866 26.5822C242.525 26.1428 243.184 25.5936 243.843 25.1542C244.063 25.0444 244.283 24.8247 244.393 24.7148C245.162 24.1656 245.93 23.6164 246.699 23.177C246.809 23.0672 246.919 23.0672 246.919 22.9573C247.578 22.518 248.347 22.0786 249.006 21.6392C249.226 21.5294 249.445 21.4195 249.665 21.3097C250.434 20.8703 251.203 20.3211 251.972 19.8817C252.631 19.5522 253.29 19.1128 253.949 18.7833C253.949 18.7833 254.059 18.7833 254.059 18.6734C254.718 18.3439 255.267 18.0144 255.926 17.6848C256.036 17.6848 256.036 17.575 256.146 17.575C256.805 17.2455 257.354 16.9159 258.013 16.6962C258.123 16.6962 258.123 16.5864 258.233 16.5864C258.892 16.2569 259.441 16.0372 260.1 15.8175C260.21 15.8175 260.32 15.7076 260.43 15.7076C260.869 15.488 261.418 15.3781 261.858 15.1584H261.968C262.407 14.9387 262.846 14.8289 263.286 14.7191C263.396 14.7191 263.505 14.6092 263.615 14.6092C264.055 14.4994 264.604 14.2797 265.043 14.1698C265.153 14.1698 265.263 14.1698 265.263 14.06C265.702 13.9501 266.142 13.8403 266.581 13.7305C266.691 13.7305 266.691 13.7305 266.801 13.7305C267.46 13.5108 268.119 13.4009 268.778 13.2911C268.778 13.2911 268.778 13.2911 268.888 13.2911C269.547 13.1812 270.316 12.9616 270.975 12.9616C270.975 12.9616 270.975 12.9616 271.085 12.9616C271.524 12.8517 271.963 12.8517 272.403 12.7419C272.513 12.7419 272.622 12.7419 272.732 12.7419C273.172 12.7419 273.611 12.632 274.05 12.632C274.16 12.632 274.27 12.632 274.38 12.632C274.6 12.632 274.929 12.632 275.149 12.632C275.259 12.632 275.369 12.632 275.478 12.632C275.698 12.632 276.028 12.632 276.247 12.632C276.357 12.632 276.467 12.632 276.577 12.632C276.797 12.632 277.016 12.632 277.236 12.632C277.346 12.632 277.456 12.632 277.565 12.632C277.785 12.632 278.115 12.7419 278.334 12.7419H278.444C278.554 12.7419 278.664 12.7419 278.774 12.8517C278.993 12.8517 279.103 12.9616 279.323 12.9616C279.433 12.9616 279.543 13.0714 279.652 13.0714C279.762 13.0714 279.982 13.1812 280.092 13.1812C280.531 13.2911 280.971 13.5108 281.41 13.6206C281.52 13.6206 281.52 13.6206 281.63 13.7305C281.959 13.8403 282.179 13.9501 282.508 14.1698C282.728 14.2797 283.058 14.3895 283.277 14.6092L261.309 1.86734C261.199 1.7575 261.089 1.7575 260.979 1.64766C260.869 1.53781 260.65 1.53781 260.54 1.42797C260.21 1.31812 259.99 1.09844 259.661 0.988593C259.661 0.988593 259.661 0.988593 259.551 0.988593H259.441C259.002 0.768906 258.562 0.659062 258.123 0.549219C258.013 0.549219 257.794 0.439374 257.684 0.439374C257.574 0.439374 257.464 0.32953 257.354 0.32953C257.135 0.32953 257.025 0.219686 256.805 0.219686C256.695 0.219686 256.585 0.219686 256.475 0.109842H256.366C256.146 0.109842 255.816 0 255.597 0C255.487 0 255.377 0 255.267 0C255.047 0 254.828 0 254.608 0H254.498C254.388 0 254.388 0 254.279 0C254.059 0 253.729 0 253.51 0C253.4 0 253.29 0 253.18 0C252.96 0 252.631 0 252.411 0C252.301 0 252.301 0 252.192 0C252.192 0 252.192 0 252.082 0C251.642 0 251.203 -1.67772e-06 250.764 0.109842C250.654 0.109842 250.544 0.109842 250.434 0.109842C249.995 0.109842 249.555 0.219687 249.116 0.32953C248.457 0.439374 247.798 0.549217 247.029 0.659061C247.029 0.659061 247.029 0.659061 246.919 0.659061C246.26 0.768904 245.601 0.988593 244.942 1.09844H244.832C244.393 1.20828 243.953 1.31812 243.514 1.42797C243.404 1.42797 243.294 1.42797 243.294 1.53781C242.855 1.64766 242.306 1.86734 241.866 1.97719C241.756 1.97719 241.647 2.08703 241.537 2.08703C241.097 2.19687 240.658 2.41656 240.219 2.5264H240.109C239.669 2.74609 239.12 2.85594 238.681 3.07562C238.681 3.07562 238.571 3.07562 238.571 3.18547H238.461C237.802 3.40515 237.143 3.73468 236.594 3.95437C236.484 3.95437 236.484 4.06422 236.374 4.06422C235.715 4.39375 235.056 4.61344 234.507 4.94297C234.397 4.94297 234.397 5.05281 234.287 5.05281C233.628 5.38234 232.969 5.71187 232.42 6.0414C232.42 6.0414 232.31 6.0414 232.31 6.15125C231.651 6.48078 230.992 6.92015 230.333 7.24968C229.564 7.68906 228.795 8.12843 228.026 8.67765C227.806 8.7875 227.587 8.89734 227.367 9.00718C226.708 9.44656 225.939 9.88593 225.28 10.3253C225.17 10.4352 225.06 10.4352 225.06 10.545C224.291 11.0942 223.522 11.6434 222.753 12.0828C222.534 12.1927 222.314 12.4123 222.204 12.5222C221.545 12.9616 220.886 13.5108 220.227 13.9502C220.117 14.06 219.898 14.1698 219.788 14.2797C219.019 14.8289 218.25 15.488 217.481 16.0372C217.261 16.147 217.151 16.3667 216.932 16.4766C216.273 17.0258 215.614 17.575 215.064 18.0144C214.845 18.1242 214.735 18.3439 214.515 18.4537C213.746 19.1128 212.977 19.7719 212.208 20.4309C212.099 20.5408 211.879 20.7605 211.769 20.8703C211.11 21.4195 210.561 22.0786 209.902 22.6278C209.792 22.7376 209.682 22.8475 209.572 22.9573C209.462 23.0672 209.462 23.0672 209.353 23.177C208.584 23.9459 207.925 24.7148 207.156 25.3739C207.046 25.4837 206.936 25.7034 206.716 25.8133C206.057 26.4723 205.508 27.1314 204.849 27.7905C204.739 27.9003 204.629 28.0101 204.519 28.12C204.41 28.2298 204.3 28.3397 204.3 28.4495C203.97 28.779 203.75 29.1086 203.421 29.4381C203.201 29.7676 202.872 30.0972 202.652 30.3169C202.432 30.6464 202.103 30.9759 201.883 31.3055C201.663 31.5251 201.554 31.7448 201.334 31.9645C201.334 32.0744 201.224 32.0744 201.224 32.1842C200.455 33.1728 199.796 34.0515 199.137 35.0401C199.027 35.15 199.027 35.15 198.917 35.2598C198.808 35.3697 198.698 35.4795 198.698 35.6992C198.148 36.4681 197.709 37.1272 197.16 37.8961C197.05 38.0059 196.94 38.1158 196.94 38.3355L196.83 38.4453C196.281 39.324 195.732 40.093 195.293 40.9717C195.293 40.9717 195.293 41.0815 195.183 41.0815C195.073 41.3012 194.963 41.4111 194.853 41.6308C194.524 42.2898 194.194 42.839 193.755 43.4981C193.645 43.608 193.645 43.7178 193.535 43.8276C193.425 44.0473 193.315 44.1572 193.205 44.3769C192.876 44.9261 192.656 45.4753 192.327 46.0245C192.217 46.2442 192.107 46.354 191.997 46.5737C191.887 46.6836 191.887 46.9033 191.778 47.0131C191.448 47.5623 191.228 48.2214 191.009 48.7706C190.899 48.9903 190.789 49.21 190.679 49.4297C190.679 49.5395 190.569 49.5395 190.569 49.6494C190.24 50.5281 189.8 51.4069 189.471 52.2856V52.3954C189.141 53.384 188.812 54.2628 188.482 55.2514C188.482 55.3612 188.372 55.4711 188.372 55.5809C188.153 56.24 187.933 56.7892 187.823 57.4483C187.823 57.5581 187.823 57.5581 187.713 57.6679C187.603 58.2172 187.384 58.6565 187.274 59.2058C187.274 59.3156 187.164 59.5353 187.164 59.6451C187.054 59.9747 187.054 60.1944 186.944 60.5239C186.835 61.0731 186.725 61.6223 186.505 62.1715C186.395 62.5011 186.395 62.7208 186.285 63.0503C186.285 63.1601 186.175 63.3798 186.175 63.4897C186.066 63.929 186.066 64.2586 185.956 64.6979C185.956 64.9176 185.846 65.2472 185.846 65.4669C185.736 66.3456 185.516 67.1145 185.407 67.9933V68.1031C185.407 68.2129 185.407 68.3228 185.407 68.3228C185.407 68.4326 185.407 68.5425 185.407 68.5425C185.407 68.6523 185.407 68.7622 185.407 68.872C185.407 68.9818 185.407 68.9818 185.407 69.0917C185.407 69.2015 185.407 69.3114 185.407 69.3114C185.407 69.4212 185.407 69.4212 185.407 69.5311C185.407 69.6409 185.407 69.6409 185.407 69.7507C185.407 69.8606 185.407 69.8606 185.407 69.9704C185.407 70.0803 185.407 70.0803 185.516 70.1901C185.516 70.1901 185.516 70.3 185.626 70.3C185.626 70.4098 185.736 70.4098 185.736 70.5197C185.736 70.5197 185.736 70.6295 185.846 70.6295C185.846 70.7394 185.956 70.7393 185.956 70.7393C185.956 70.7393 185.956 70.7393 186.066 70.8492C186.175 70.959 186.175 70.959 186.285 71.0689L203.201 80.845C202.652 81.3942 202.213 81.9434 201.663 82.4926C201.554 82.6025 201.554 82.6025 201.444 82.7123L201.334 82.8221C200.895 83.3714 200.345 83.9206 199.906 84.4698C199.796 84.5796 199.686 84.6895 199.686 84.7993C199.357 85.2387 198.917 85.7879 198.588 86.2273C198.478 86.3372 198.478 86.447 198.368 86.447L198.258 86.5568C197.489 87.5454 196.72 88.6439 195.952 89.6325C195.293 90.6211 194.633 91.6097 193.974 92.5982C193.974 92.5982 193.974 92.5982 193.974 92.7081C193.425 93.5868 192.766 94.5754 192.327 95.4542C191.778 96.3329 191.338 97.2117 190.899 97.9806C190.899 98.0904 190.789 98.0904 190.789 98.2003V98.3101C190.35 99.079 189.91 99.9578 189.581 100.727C189.581 100.837 189.471 100.837 189.471 100.946C189.471 101.056 189.361 101.056 189.361 101.166C189.031 101.935 188.592 102.814 188.263 103.583C188.263 103.692 188.153 103.692 188.153 103.802C188.153 103.912 188.043 103.912 188.043 104.022C187.713 104.901 187.274 105.779 186.944 106.548C186.944 106.548 186.944 106.548 186.944 106.658C186.944 106.768 186.944 106.768 186.835 106.878C186.505 107.867 186.175 108.745 185.846 109.734C185.736 109.954 185.736 110.173 185.626 110.283C185.516 110.613 185.407 110.942 185.297 111.382C185.187 111.601 185.187 111.821 185.077 112.041C184.967 112.37 184.857 112.7 184.748 113.029C184.748 113.139 184.638 113.249 184.638 113.359C184.528 113.798 184.418 114.347 184.308 114.787C184.308 115.006 184.198 115.226 184.198 115.446C184.088 115.885 183.979 116.215 183.869 116.654C183.869 116.764 183.869 116.874 183.759 116.984C183.759 117.093 183.759 117.203 183.649 117.313C183.539 117.972 183.32 118.631 183.21 119.4C183.21 119.51 183.21 119.62 183.21 119.62C183.1 120.389 182.99 121.158 182.88 121.927C182.88 122.036 182.88 122.146 182.88 122.146C182.88 122.256 182.88 122.476 182.88 122.586C182.88 122.915 182.77 123.354 182.77 123.684C182.77 123.904 182.77 124.233 182.66 124.453C182.66 124.892 182.551 125.222 182.551 125.661C182.551 125.881 182.551 126.101 182.551 126.43C182.551 126.869 182.551 127.309 182.441 127.748C182.441 127.968 182.441 128.188 182.441 128.407C182.441 129.066 182.441 129.616 182.441 130.275C182.441 135.437 183.1 139.611 184.198 143.017C183.759 144.554 184.198 145.543 184.528 146.312Z" fill="#2F58FF"/>
<path d="M326.775 112.48C328.094 113.688 326.775 123.025 324.579 130.494C322.382 137.854 319.196 144.115 317.439 146.861C316.78 147.849 316.121 148.509 315.681 148.838C314.912 149.277 314.583 148.618 315.242 146.641C316.23 143.566 321.723 124.782 319.526 122.805C318.427 121.817 315.462 123.135 312.166 125.002C308.761 126.979 305.136 129.615 303.269 130.934C301.182 132.361 300.083 133.24 299.424 133.57C298.875 133.899 298.655 133.899 298.546 133.57C297.887 131.702 305.905 123.244 311.287 119.4C312.825 118.301 314.583 117.203 316.34 116.105C320.844 113.359 325.567 111.381 326.775 112.48ZM309.2 133.789C287.891 157.735 269.327 172.894 253.18 182.231C221.765 200.355 199.247 196.95 182.88 194.972C182.551 194.972 182.111 195.082 181.672 195.302C180.354 196.071 179.255 198.048 181.013 199.366C189.361 206.176 216.602 218.259 252.082 197.828C287.561 177.397 308.651 142.906 311.287 137.524C313.374 133.24 312.606 131.702 310.848 132.691C310.189 132.801 309.75 133.24 309.2 133.789Z" fill="white"/>
<path d="M262.737 63.8191V60.8533C262.737 55.3611 263.066 48.6607 260.21 45.585C257.794 42.7291 253.07 43.7177 248.896 46.1343C241.207 50.528 234.397 58.986 232.749 69.3113C232.42 71.618 231.102 74.3641 229.234 75.5724L209.902 84.3599C208.254 84.9091 206.497 84.3599 206.936 81.2842C211.33 51.6264 232.639 31.0857 251.752 20.1013C261.528 14.4993 274.27 10.1055 282.069 14.1697C291.845 19.0029 290.966 33.5022 290.966 48.7705L291.076 84.6894C291.076 95.4541 295.031 97.9805 298.655 101.715C299.974 103.033 300.303 105.34 298.655 107.866C294.591 114.128 287.342 125.661 283.277 132.032C282.508 133.24 281.52 134.119 280.531 134.668C279.762 135.108 279.103 135.327 278.444 135.327C271.744 132.801 270.535 130.604 266.911 126.65C255.926 145.872 248.127 154.33 233.848 162.569C216.932 172.345 203.75 167.951 203.75 144.005C203.75 125.332 212.538 107.427 225.06 93.9163C235.935 81.8335 251.093 72.0574 262.737 63.8191ZM259.112 114.018C263.066 103.802 262.846 96.3328 262.846 87.4355V82.4925C248.347 90.8406 232.969 103.253 233.079 122.915C233.079 132.911 237.582 136.975 245.271 132.581C250.873 129.176 255.926 122.256 259.112 114.018Z" fill="white"/>
</svg>
