<svg width="499" height="487" viewBox="0 0 499 487" fill="none" xmlns="http://www.w3.org/2000/svg">
<path d="M418.12 260.17C418.12 260.17 418.12 260.267 418.12 260.364C418.12 260.461 418.12 260.558 418.12 260.655V260.752C418.12 260.849 418.12 260.946 418.023 261.043V261.14C417.926 261.237 417.926 261.431 417.829 261.528C417.732 261.625 417.635 261.819 417.538 261.916L417.441 262.013C417.344 262.208 417.149 262.305 417.052 262.499C416.955 262.596 416.858 262.693 416.664 262.79L370.102 298.973C369.908 299.167 369.714 299.264 369.52 299.361C369.423 299.361 369.423 299.458 369.325 299.458C369.131 299.555 368.937 299.652 368.743 299.749C368.646 299.749 368.549 299.846 368.452 299.846C368.258 299.943 368.064 300.04 367.87 300.04C367.773 300.04 367.773 300.137 367.676 300.137C367.288 300.234 366.803 300.428 366.318 300.428C366.221 300.428 366.221 300.428 366.124 300.428C365.833 300.525 365.542 300.525 365.251 300.525C365.251 300.525 365.251 300.525 365.154 300.525C364.863 300.525 364.572 300.525 364.281 300.622C364.184 300.622 363.99 300.622 363.893 300.622C363.796 300.622 363.602 300.622 363.505 300.622C363.311 300.622 363.117 300.622 362.923 300.622C362.826 300.622 362.729 300.622 362.729 300.622C362.438 300.622 362.244 300.525 361.953 300.525C361.856 300.525 361.759 300.525 361.662 300.525C361.468 300.525 361.371 300.428 361.177 300.428C360.886 300.331 360.692 300.331 360.401 300.234H360.304C360.013 300.137 359.819 300.04 359.528 299.943C359.431 299.943 359.431 299.846 359.334 299.846C358.946 299.749 358.655 299.555 358.364 299.361C358.073 299.167 357.879 299.07 357.588 298.876L338.575 284.325L338.672 255.514C334.306 249.306 327.904 243.679 319.658 238.926C318.688 238.344 317.621 237.762 316.554 237.18C316.166 236.986 315.875 236.792 315.487 236.695C314.808 236.307 314.032 236.016 313.353 235.628C312.965 235.434 312.48 235.24 312.092 235.046C311.413 234.755 310.734 234.464 310.055 234.173C309.57 233.979 309.085 233.785 308.6 233.591C308.115 233.397 307.727 233.203 307.242 233.009C306.951 232.912 306.66 232.815 306.466 232.718C306.175 232.621 305.884 232.524 305.593 232.427C304.622 232.039 303.652 231.748 302.682 231.36C302.585 231.36 302.391 231.263 302.294 231.166C301.227 230.778 300.063 230.487 298.996 230.098C298.705 230.001 298.414 229.904 298.123 229.807C297.735 229.71 297.347 229.516 296.862 229.419C296.571 229.322 296.28 229.225 295.989 229.225C295.116 229.031 294.34 228.74 293.467 228.546C292.885 228.449 292.4 228.255 291.818 228.158C290.945 227.964 290.072 227.77 289.101 227.576C288.713 227.479 288.325 227.382 287.937 227.285C287.743 227.285 287.646 227.188 287.452 227.188C286.676 226.994 285.9 226.897 285.124 226.703C284.542 226.606 283.96 226.509 283.378 226.412C282.505 226.315 281.729 226.121 280.856 226.024C280.371 225.927 279.886 225.83 279.401 225.83C279.304 225.83 279.207 225.83 279.207 225.83C278.431 225.733 277.752 225.636 276.976 225.539C276.394 225.442 275.715 225.345 275.133 225.345C274.357 225.248 273.581 225.151 272.804 225.151C272.222 225.054 271.64 225.054 271.155 224.957C271.058 224.957 271.058 224.957 270.961 224.957C270.185 224.86 269.312 224.86 268.536 224.763C267.954 224.763 267.372 224.666 266.79 224.666C265.917 224.666 265.044 224.569 264.171 224.569C263.686 224.569 263.201 224.569 262.619 224.472C262.619 224.472 262.619 224.472 262.522 224.472C261.067 224.472 259.709 224.375 258.254 224.472C257.963 224.472 257.575 224.472 257.283 224.472C256.216 224.472 255.052 224.472 253.985 224.569C253.888 224.569 253.888 224.569 253.791 224.569C253.5 224.569 253.112 224.569 252.821 224.666C251.754 224.666 250.59 224.763 249.523 224.86C248.941 224.86 248.456 224.957 247.874 224.957C246.904 225.054 246.031 225.151 245.061 225.151C244.867 225.151 244.576 225.151 244.382 225.248C243.703 225.345 242.927 225.442 242.248 225.442C242.054 225.442 241.957 225.442 241.763 225.539C240.598 225.636 239.337 225.83 238.173 226.024C237.882 226.024 237.591 226.121 237.3 226.121C236.33 226.315 235.263 226.412 234.293 226.606C234.099 226.606 233.905 226.703 233.614 226.703C233.517 226.703 233.42 226.703 233.323 226.703C232.838 226.8 232.353 226.897 231.868 226.994C231.092 227.188 230.219 227.285 229.443 227.479C228.861 227.576 228.279 227.77 227.697 227.867C226.921 228.061 226.145 228.255 225.466 228.352C224.883 228.449 224.301 228.643 223.719 228.837C222.943 229.031 222.264 229.225 221.488 229.419C220.906 229.613 220.324 229.807 219.742 229.904C219.063 230.098 218.287 230.293 217.608 230.584C217.414 230.681 217.22 230.681 217.026 230.778C216.25 231.069 215.377 231.36 214.601 231.554C214.504 231.554 214.504 231.554 214.407 231.651C213.34 232.039 212.273 232.427 211.206 232.815C210.915 232.912 210.624 233.009 210.333 233.203C209.459 233.494 208.683 233.882 207.81 234.27C207.616 234.367 207.325 234.464 207.131 234.561C206.064 235.046 205.094 235.434 204.124 235.919C203.93 236.016 203.736 236.113 203.445 236.21C202.669 236.598 201.893 236.986 201.117 237.471C200.826 237.568 200.535 237.762 200.341 237.859C199.371 238.344 198.401 238.926 197.528 239.508C197.14 239.702 196.849 239.896 196.461 240.09C196.364 240.09 196.267 240.187 196.17 240.187C195.879 240.284 195.685 240.381 195.394 240.381C195.103 240.478 194.909 240.478 194.618 240.575C194.327 240.672 193.939 240.672 193.648 240.769C193.551 240.769 193.551 240.769 193.454 240.769C192.968 240.769 192.58 240.866 192.095 240.866C191.998 240.866 191.998 240.866 191.901 240.866C191.416 240.866 191.028 240.866 190.64 240.769C190.543 240.769 190.543 240.769 190.446 240.769C190.058 240.672 189.573 240.672 189.185 240.575C189.088 240.575 188.991 240.575 188.991 240.478C188.603 240.381 188.312 240.284 187.924 240.187C187.827 240.187 187.827 240.187 187.73 240.09C187.342 239.896 186.954 239.702 186.566 239.508C186.275 239.314 186.081 239.217 185.79 239.023L166.777 224.472C165.71 223.696 165.225 222.726 165.225 221.756L165.128 257.745C165.128 258.715 165.613 259.685 166.68 260.461L185.693 275.012C185.887 275.206 186.178 275.303 186.469 275.497C186.857 275.691 187.148 275.885 187.536 275.982C187.536 275.982 187.536 275.982 187.633 275.982C187.73 275.982 187.73 275.982 187.827 276.079C188.021 276.176 188.312 276.273 188.506 276.273C188.603 276.273 188.797 276.37 188.894 276.37C188.991 276.37 189.088 276.37 189.088 276.467C189.185 276.467 189.185 276.467 189.282 276.564C189.573 276.661 189.767 276.661 190.058 276.661C190.155 276.661 190.252 276.661 190.349 276.661C190.446 276.661 190.446 276.661 190.543 276.661C190.64 276.661 190.737 276.661 190.834 276.661C191.125 276.661 191.319 276.661 191.61 276.661C191.707 276.661 191.804 276.661 191.804 276.661C191.901 276.661 191.901 276.661 191.998 276.661C192.095 276.661 192.289 276.661 192.386 276.661C192.677 276.661 192.968 276.661 193.259 276.564H193.356C193.453 276.564 193.453 276.564 193.551 276.564C193.745 276.564 194.036 276.467 194.23 276.467C194.327 276.467 194.424 276.37 194.521 276.37C194.812 276.273 195.006 276.273 195.297 276.176C195.394 276.176 195.588 276.079 195.685 276.079C195.782 276.079 195.879 275.982 196.073 275.982C196.17 275.982 196.267 275.885 196.364 275.885C196.752 275.691 197.14 275.594 197.431 275.303C198.401 274.721 199.274 274.236 200.244 273.654C200.535 273.46 200.826 273.363 201.02 273.266C201.796 272.878 202.572 272.49 203.348 272.005C203.542 271.908 203.736 271.811 204.027 271.714C204.997 271.229 206.064 270.744 207.034 270.356C207.228 270.259 207.519 270.162 207.713 270.065C208.586 269.677 209.362 269.386 210.236 268.998C210.527 268.901 210.818 268.804 211.109 268.61C212.176 268.222 213.243 267.834 214.31 267.446C214.407 267.446 214.407 267.446 214.504 267.349C215.474 266.961 216.444 266.67 217.511 266.379C218.19 266.185 218.966 265.991 219.645 265.7C220.227 265.506 220.809 265.312 221.391 265.215C222.07 265.021 222.846 264.827 223.622 264.633C224.204 264.439 224.786 264.342 225.369 264.148C226.145 263.954 226.921 263.76 227.6 263.663C228.182 263.566 228.764 263.372 229.346 263.275C230.122 263.081 230.995 262.984 231.771 262.79C232.353 262.693 232.935 262.596 233.517 262.499C233.711 262.499 233.905 262.402 234.196 262.402C235.166 262.208 236.233 262.11 237.203 261.916C237.494 261.916 237.785 261.819 238.076 261.819C239.24 261.625 240.501 261.528 241.666 261.334C241.86 261.334 241.957 261.334 242.151 261.237C243.121 261.14 244.091 261.043 244.964 260.946C245.934 260.849 246.807 260.752 247.777 260.752C248.359 260.752 248.844 260.655 249.426 260.655C250.493 260.558 251.657 260.558 252.724 260.461C253.112 260.461 253.5 260.461 253.888 260.364C254.955 260.364 256.022 260.267 257.186 260.267C257.477 260.267 257.866 260.267 258.157 260.267C259.612 260.267 260.97 260.267 262.425 260.267C262.91 260.267 263.492 260.267 263.977 260.364C264.85 260.364 265.723 260.461 266.596 260.461C267.178 260.461 267.76 260.558 268.342 260.558C269.118 260.655 269.991 260.655 270.767 260.752C271.349 260.849 272.028 260.849 272.61 260.946C273.386 261.043 274.163 261.043 274.939 261.14C275.521 261.237 276.2 261.334 276.782 261.334C277.558 261.431 278.334 261.528 279.013 261.625C279.595 261.722 280.08 261.819 280.662 261.916C281.535 262.013 282.311 262.207 283.184 262.305C283.766 262.402 284.348 262.499 284.93 262.596C285.706 262.79 286.482 262.887 287.258 263.081C287.84 263.178 288.325 263.275 288.81 263.469C289.684 263.663 290.654 263.857 291.527 264.051C292.109 264.148 292.594 264.342 293.176 264.439C294.049 264.633 294.922 264.924 295.698 265.118C296.377 265.312 297.153 265.506 297.832 265.7C298.123 265.797 298.414 265.894 298.705 265.991C299.772 266.379 300.936 266.67 302.003 267.058C302.1 267.058 302.294 267.155 302.391 267.252C303.361 267.543 304.331 267.931 305.301 268.319C305.593 268.416 305.884 268.513 306.175 268.707C306.854 268.998 307.63 269.289 308.309 269.58C308.503 269.677 308.6 269.677 308.794 269.774L308.697 296.063C308.697 296.936 309.182 297.906 310.249 298.779L351.282 330.306C351.282 330.306 351.185 330.306 351.185 330.403C351.088 330.5 350.991 330.5 350.894 330.597C350.797 330.694 350.7 330.694 350.603 330.791C350.506 330.888 350.312 330.985 350.215 331.082C348.76 331.858 347.305 332.634 345.753 333.41C345.462 333.604 345.074 333.701 344.783 333.895C343.328 334.671 341.776 335.35 340.321 336.029C340.127 336.126 339.836 336.223 339.642 336.32C338.284 336.902 336.828 337.581 335.47 338.163C335.179 338.26 334.888 338.454 334.5 338.551C332.948 339.133 331.396 339.812 329.747 340.394C329.456 340.491 329.068 340.588 328.777 340.782C327.322 341.267 325.77 341.849 324.315 342.335C324.121 342.432 323.927 342.432 323.733 342.529C323.054 342.723 322.278 342.917 321.599 343.208C320.337 343.596 319.076 343.984 317.815 344.372C317.039 344.566 316.166 344.857 315.39 345.051C314.226 345.342 313.062 345.73 311.801 346.021C310.928 346.215 310.055 346.409 309.182 346.603C308.018 346.894 306.854 347.185 305.69 347.379C304.816 347.573 303.846 347.767 302.973 347.961C301.809 348.155 300.645 348.446 299.578 348.64C297.929 348.931 296.377 349.222 294.728 349.513C294.631 349.513 294.631 349.513 294.534 349.513C292.788 349.804 290.945 350.095 289.101 350.289C288.616 350.386 288.131 350.386 287.646 350.483C286.094 350.677 284.542 350.871 282.893 351.065C282.602 351.065 282.311 351.162 282.02 351.162C280.177 351.356 278.431 351.453 276.588 351.647C276.2 351.647 275.909 351.744 275.521 351.744C273.775 351.841 271.931 351.938 270.088 352.035C269.797 352.035 269.506 352.035 269.215 352.035C267.954 352.132 266.693 352.132 265.432 352.132C264.268 352.132 263.007 352.229 261.843 352.229C260.873 352.229 259.903 352.229 258.933 352.229C257.769 352.229 256.507 352.229 255.343 352.229C254.373 352.229 253.403 352.229 252.433 352.132C251.269 352.132 250.202 352.035 249.038 352.035C248.068 352.035 247.098 351.938 246.031 351.841C244.867 351.744 243.8 351.647 242.636 351.647C241.666 351.55 240.695 351.55 239.725 351.453C238.561 351.356 237.494 351.259 236.33 351.162C235.36 351.065 234.39 350.968 233.42 350.871C232.256 350.774 231.189 350.58 230.025 350.483C229.055 350.386 228.085 350.192 227.212 350.095C225.951 349.901 224.689 349.707 223.331 349.513C222.458 349.416 221.682 349.222 220.809 349.125C219.354 348.834 217.996 348.64 216.638 348.349C215.959 348.252 215.183 348.058 214.504 347.961C214.31 347.961 214.116 347.864 213.922 347.864C212.273 347.476 210.624 347.088 208.974 346.7C208.78 346.603 208.489 346.603 208.295 346.506C206.549 346.118 204.9 345.633 203.251 345.148C202.96 345.051 202.572 344.954 202.281 344.857C200.632 344.372 198.983 343.887 197.334 343.402C197.237 343.402 197.14 343.305 197.043 343.305C195.394 342.82 193.648 342.238 191.998 341.655C191.513 341.461 191.028 341.364 190.64 341.17C189.379 340.685 188.118 340.297 186.857 339.812C186.469 339.618 185.984 339.521 185.596 339.327C184.529 338.939 183.559 338.454 182.492 338.066C181.716 337.775 181.037 337.484 180.261 337.193C179.194 336.708 178.224 336.32 177.253 335.835C176.574 335.544 175.895 335.253 175.216 334.865C174.149 334.38 172.985 333.798 171.918 333.216C171.336 332.925 170.851 332.634 170.269 332.44C168.62 331.567 167.068 330.694 165.516 329.821C148.346 319.926 136.317 307.703 130.4 294.219H107.118C106.633 294.219 106.051 294.22 105.566 294.123C105.469 294.123 105.469 294.123 105.372 294.123C104.887 294.026 104.499 294.025 104.111 293.928C104.014 293.928 103.917 293.928 103.917 293.831C103.529 293.734 103.141 293.637 102.753 293.443C102.365 293.249 101.977 293.152 101.589 292.861C100.134 291.988 99.2606 290.824 99.2606 289.563L99.1636 325.552C99.1636 326.814 100.037 327.978 101.492 328.851C101.88 329.045 102.171 329.239 102.656 329.433C102.947 329.53 103.238 329.627 103.529 329.724C103.626 329.724 103.723 329.724 103.82 329.821C103.917 329.821 104.014 329.821 104.014 329.918C104.111 329.918 104.208 330.015 104.305 330.015C104.596 330.112 104.79 330.112 105.081 330.112C105.178 330.112 105.178 330.112 105.275 330.112C105.372 330.112 105.372 330.112 105.469 330.112C105.566 330.112 105.663 330.112 105.857 330.112C106.148 330.112 106.342 330.112 106.633 330.112C106.73 330.112 106.827 330.112 107.021 330.112H130.303C136.22 343.596 148.249 355.818 165.419 365.713C166.971 366.586 168.62 367.459 170.172 368.332C170.754 368.623 171.239 368.914 171.821 369.108C172.888 369.69 173.955 370.175 175.119 370.757C175.798 371.048 176.477 371.339 177.156 371.727C178.127 372.212 179.194 372.697 180.164 373.085C180.94 373.376 181.619 373.667 182.395 374.055C183.171 374.347 184.044 374.735 184.82 375.026C185.014 375.123 185.208 375.22 185.499 375.317C185.887 375.511 186.372 375.608 186.76 375.802C188.021 376.287 189.282 376.772 190.543 377.16C191.028 377.354 191.513 377.451 191.901 377.645C193.551 378.227 195.2 378.809 196.946 379.294C197.043 379.294 197.14 379.391 197.237 379.391C198.498 379.779 199.759 380.167 201.02 380.555C201.408 380.652 201.796 380.749 202.184 380.846C202.475 380.943 202.863 381.04 203.154 381.137C204.803 381.622 206.549 382.01 208.198 382.495C208.392 382.592 208.683 382.592 208.877 382.689C210.527 383.077 212.176 383.465 213.825 383.853C214.019 383.853 214.213 383.95 214.407 383.95C214.504 383.95 214.601 383.95 214.698 384.047C215.28 384.144 215.959 384.241 216.541 384.435C217.899 384.726 219.354 385.017 220.712 385.211C221.585 385.405 222.361 385.502 223.234 385.599C224.495 385.793 225.757 385.987 227.115 386.181C227.406 386.181 227.6 386.278 227.891 386.278C228.57 386.375 229.346 386.472 230.025 386.569C231.189 386.763 232.256 386.86 233.42 386.957C234.39 387.054 235.36 387.151 236.33 387.248C237.494 387.345 238.561 387.442 239.725 387.539C240.016 387.539 240.404 387.636 240.695 387.636C241.374 387.733 241.957 387.733 242.636 387.733C243.8 387.83 244.867 387.927 246.031 387.927C247.001 388.024 247.971 388.024 249.038 388.121C250.202 388.218 251.269 388.218 252.433 388.218C252.821 388.218 253.209 388.218 253.694 388.218C254.276 388.218 254.858 388.218 255.343 388.218C256.507 388.218 257.769 388.218 258.933 388.218C259.903 388.218 260.873 388.218 261.843 388.218C263.007 388.218 264.268 388.218 265.432 388.121C266.014 388.121 266.499 388.121 267.081 388.121C267.76 388.121 268.536 388.024 269.215 388.024C269.506 388.024 269.797 388.024 270.088 388.024C271.931 387.927 273.678 387.83 275.521 387.733C275.909 387.733 276.2 387.636 276.588 387.636C278.334 387.539 279.983 387.345 281.729 387.151C281.826 387.151 281.923 387.151 282.02 387.151C282.311 387.151 282.602 387.054 282.893 387.054C284.445 386.86 285.997 386.666 287.549 386.472C288.034 386.375 288.519 386.375 289.004 386.278C290.848 386.084 292.594 385.793 294.437 385.502C294.534 385.502 294.534 385.502 294.631 385.502C295.989 385.308 297.25 385.114 298.608 384.823C298.899 384.726 299.19 384.726 299.481 384.629C300.645 384.435 301.809 384.144 302.876 383.95C303.749 383.756 304.719 383.562 305.593 383.368C306.757 383.077 307.921 382.883 309.085 382.592C309.958 382.398 310.831 382.204 311.704 382.01C312.868 381.719 314.032 381.428 315.293 381.04C316.069 380.846 316.942 380.652 317.718 380.361C318.979 379.973 320.24 379.585 321.502 379.197C322.084 379.003 322.763 378.809 323.345 378.615C323.442 378.615 323.539 378.518 323.636 378.518C323.83 378.421 324.024 378.421 324.218 378.324C325.673 377.839 327.225 377.354 328.68 376.772C328.971 376.675 329.359 376.578 329.65 376.384C331.202 375.802 332.851 375.22 334.403 374.541C334.694 374.444 334.985 374.25 335.373 374.153C336.828 373.57 338.187 372.988 339.545 372.406C339.739 372.309 340.03 372.212 340.224 372.115C341.776 371.436 343.231 370.757 344.686 369.981C344.977 369.787 345.365 369.69 345.656 369.496C347.111 368.72 348.663 367.944 350.118 367.168C350.215 367.168 350.312 367.071 350.409 366.974C350.506 366.974 350.506 366.877 350.603 366.877C350.7 366.78 350.797 366.78 350.894 366.683C350.991 366.586 351.088 366.586 351.185 366.489C351.282 366.392 351.379 366.392 351.379 366.295L351.476 366.198L351.573 366.101C351.67 366.004 351.767 365.907 351.864 365.713L351.961 365.616C351.961 365.616 351.961 365.616 351.961 365.519C352.058 365.422 352.058 365.325 352.155 365.228L352.252 365.131C352.252 365.034 352.349 364.937 352.349 364.937C352.349 364.84 352.446 364.84 352.446 364.743C352.446 364.646 352.446 364.646 352.543 364.549C352.543 364.452 352.543 364.452 352.64 364.355C352.64 364.258 352.64 364.161 352.64 364.161C352.64 364.064 352.64 364.064 352.64 363.967C352.64 363.967 352.64 363.967 352.64 363.87L352.737 331.567L357.297 335.059C357.491 335.253 357.782 335.447 358.073 335.544C358.364 335.738 358.752 335.835 359.043 336.029C359.043 336.029 359.14 336.029 359.14 336.126H359.237C359.431 336.223 359.722 336.32 360.013 336.417H360.11C360.401 336.514 360.595 336.514 360.886 336.611C361.08 336.611 361.177 336.708 361.371 336.708C361.468 336.708 361.565 336.708 361.662 336.708C361.953 336.708 362.147 336.805 362.438 336.805C362.535 336.805 362.535 336.805 362.632 336.805C362.826 336.805 363.02 336.805 363.214 336.805C363.311 336.805 363.505 336.805 363.602 336.805C363.699 336.805 363.893 336.805 363.99 336.805C364.281 336.805 364.572 336.805 364.863 336.708C365.154 336.708 365.445 336.611 365.736 336.611H365.833H365.93C366.415 336.514 366.803 336.417 367.288 336.32C367.288 336.32 367.288 336.32 367.385 336.32C367.482 336.32 367.482 336.32 367.579 336.223C367.773 336.126 367.967 336.029 368.161 336.029C368.258 336.029 368.355 335.932 368.452 335.932C368.646 335.835 368.84 335.738 369.034 335.641C369.034 335.641 369.132 335.641 369.132 335.544C369.326 335.447 369.52 335.253 369.714 335.156L416.276 298.973C416.373 298.876 416.567 298.779 416.664 298.682C416.858 298.488 416.955 298.391 417.052 298.197C417.052 298.197 417.052 298.197 417.15 298.1C417.247 298.003 417.344 297.809 417.441 297.712C417.538 297.615 417.538 297.421 417.635 297.324V297.227C417.635 297.13 417.732 297.033 417.732 296.936C417.732 296.936 417.732 296.936 417.732 296.839C417.732 296.839 417.732 296.839 417.732 296.742C417.732 296.645 417.732 296.548 417.732 296.451V296.354C417.732 296.354 417.732 296.354 417.732 296.257L418.12 260.17Z" fill="#2F58FF"/>
<path d="M201.602 329.627C201.796 329.627 201.893 329.627 202.087 329.627C202.184 329.627 202.281 329.627 202.281 329.627H202.378C202.669 329.627 202.863 329.53 203.154 329.53H203.251C203.736 329.433 204.221 329.336 204.706 329.142C204.997 329.045 205.288 328.948 205.482 328.851C205.579 328.851 205.579 328.754 205.676 328.754C205.87 328.657 206.161 328.56 206.355 328.366C206.355 328.366 206.355 328.366 206.452 328.366C206.646 328.269 206.84 328.172 206.937 327.978C206.937 327.978 206.937 327.978 207.034 327.978C207.131 327.881 207.325 327.784 207.422 327.687C207.422 327.687 207.422 327.687 207.519 327.59C207.616 327.493 207.81 327.299 207.907 327.202C207.907 327.202 207.907 327.202 208.004 327.105C208.004 327.105 208.004 327.008 208.101 327.008C208.198 326.911 208.198 326.814 208.295 326.717L208.392 326.62C208.392 326.62 208.392 326.62 208.392 326.523C208.392 326.426 208.489 326.329 208.489 326.232C208.489 326.232 208.489 326.135 208.586 326.135C208.586 326.038 208.586 325.941 208.683 325.941C208.683 325.844 208.683 325.844 208.683 325.747C208.683 325.65 208.683 325.553 208.683 325.553C208.683 325.456 208.683 325.456 208.683 325.359C208.683 325.359 208.683 325.359 208.683 325.262L208.78 289.272C208.78 289.369 208.78 289.466 208.78 289.466C208.78 289.563 208.78 289.66 208.78 289.66C208.78 289.757 208.78 289.757 208.683 289.854C208.683 289.951 208.683 290.048 208.586 290.048C208.586 290.145 208.489 290.145 208.489 290.242C208.489 290.339 208.392 290.436 208.392 290.533C208.392 290.63 208.295 290.63 208.295 290.727C208.198 290.824 208.198 290.921 208.101 291.018C208.101 291.115 208.004 291.115 208.004 291.212C207.907 291.309 207.81 291.503 207.616 291.6L207.519 291.697C207.422 291.794 207.228 291.891 207.131 291.988C207.131 291.988 207.131 291.988 207.034 291.988C206.84 292.086 206.743 292.183 206.549 292.377H206.452C206.258 292.474 206.064 292.571 205.773 292.765C205.676 292.765 205.676 292.862 205.579 292.862C205.288 292.959 205.094 293.056 204.803 293.153C204.318 293.347 203.833 293.444 203.348 293.541H203.251C202.96 293.541 202.766 293.638 202.475 293.638C202.378 293.638 202.281 293.638 202.087 293.638C201.893 293.638 201.796 293.638 201.602 293.638C201.408 293.638 201.214 293.638 200.923 293.638H179.679L179.582 329.627H200.826C201.02 329.627 201.117 329.627 201.311 329.627C201.408 329.627 201.505 329.627 201.602 329.627Z" fill="#2F58FF"/>
<path d="M186.372 239.508C186.081 239.314 185.887 239.217 185.596 239.023L166.583 224.472C164.158 222.629 164.546 220.107 167.456 218.458C219.839 189.55 301.13 190.132 352.543 219.816C369.617 229.71 381.645 241.933 387.563 255.514H410.262C412.493 255.514 414.336 255.999 415.791 256.775C418.411 258.23 419.09 260.752 416.567 262.692L370.005 298.876C367.094 301.107 361.565 301.301 358.267 299.361C357.976 299.167 357.782 299.07 357.491 298.876L310.54 262.692C306.66 259.685 310.346 255.514 316.748 255.514H338.672C334.306 249.305 327.904 243.679 319.658 238.926C285.706 219.331 230.801 219.525 197.528 239.411C194.327 241.351 189.379 241.254 186.372 239.508Z" fill="#9AF4DC"/>
<path d="M351.282 324.97C353.707 326.813 353.319 329.432 350.409 330.984C298.026 359.601 216.929 358.922 165.807 329.335C148.637 319.441 136.608 307.218 130.691 293.734H107.409C105.178 293.734 103.335 293.249 101.88 292.473C99.2606 291.018 98.5816 288.496 101.104 286.556L147.667 250.372C150.577 248.141 156.203 248.044 159.404 249.887C159.695 250.081 159.889 250.178 160.18 250.372L207.131 286.556C211.012 289.563 207.325 293.734 200.923 293.734H179.679C184.044 299.845 190.446 305.472 198.595 310.225C232.159 329.626 286.579 329.626 319.949 310.225C323.539 308.091 328.874 308.479 331.687 310.128C331.881 310.225 332.075 310.322 332.269 310.516L351.282 324.97Z" fill="#9AF4DC"/>
<path d="M166.68 224.472C164.255 222.629 164.643 220.107 167.553 218.458C219.936 189.55 301.227 190.132 352.64 219.816C369.714 229.71 381.742 241.933 387.66 255.514H410.359C412.59 255.514 414.433 255.999 415.888 256.775C418.508 258.23 419.187 260.752 416.664 262.692" stroke="#171A21" stroke-width="2" stroke-miterlimit="10" stroke-linecap="round" stroke-linejoin="round"/>
<path d="M101.977 292.376C99.3576 290.921 98.6786 288.399 101.201 286.459L147.764 250.276C150.674 248.044 156.3 247.947 159.501 249.791C159.792 249.985 159.986 250.082 160.277 250.276L207.228 286.459C211.109 289.466 207.422 293.637 201.02 293.637H179.776C184.141 299.749 190.543 305.375 198.692 310.128C232.256 329.53 286.676 329.53 320.046 310.128C323.636 307.994 328.971 308.382 331.784 310.031C331.978 310.128 332.172 310.225 332.366 310.419" stroke="#171A21" stroke-width="2" stroke-miterlimit="10" stroke-linecap="round" stroke-linejoin="round"/>
</svg>
