<?xml version="1.0" encoding="utf-8"?>
<!-- Generator: Adobe Illustrator 22.1.0, SVG Export Plug-In . SVG Version: 6.00 Build 0)  -->
<svg version="1.1" id="Слой_1" xmlns="http://www.w3.org/2000/svg" xmlns:xlink="http://www.w3.org/1999/xlink" x="0px" y="0px"
	 viewBox="0 0 498.6 487" style="enable-background:new 0 0 498.6 487;" xml:space="preserve">
<style type="text/css">
	
		.st0{fill:none;stroke:#171A21;stroke-width:2;stroke-linecap:round;stroke-linejoin:round;stroke-miterlimit:10;stroke-dasharray:12,12;}
	.st1{fill:#2F58FF;}
	.st2{fill:#9AF4DC;}
	.st3{fill:none;stroke:#171A21;stroke-width:2;stroke-linecap:round;stroke-linejoin:round;stroke-miterlimit:10;}
	.st4{fill:#FFFFFF;}
	.st5{fill:none;stroke:#171A21;stroke-width:2;stroke-linecap:round;stroke-linejoin:round;}
	.st6{fill:none;stroke:#171A21;stroke-width:2;stroke-linecap:round;stroke-linejoin:round;stroke-dasharray:11.54,11.54;}
</style>
<path class="st0" d="M346.6,310.2c-49-28.2-128.3-28.2-176.9,0c-48.7,28.2-48.5,74,0.6,102.2c49,28.2,128.3,28.2,176.9,0
	C395.9,384.3,395.6,338.4,346.6,310.2z"/>
<path class="st0" d="M305,420.9c-25.8-14.8-67.4-14.8-93.1,0c-25.6,14.8-25.5,39,0.3,53.9c25.8,14.9,67.4,14.8,93.1,0
	C330.9,459.9,330.8,435.8,305,420.9z"/>
<path class="st1" d="M418.2,260.2c0,0,0,0.1,0,0.2c0,0.1,0,0.2,0,0.3v0.1c0,0.1,0,0.2-0.1,0.3v0.1c-0.1,0.1-0.1,0.3-0.2,0.4
	c-0.1,0.1-0.2,0.3-0.3,0.4l-0.1,0.1c-0.1,0.2-0.3,0.3-0.4,0.5c-0.1,0.1-0.2,0.2-0.4,0.3L370.1,299c-0.2,0.2-0.4,0.3-0.6,0.4
	c-0.1,0-0.1,0.1-0.2,0.1c-0.2,0.1-0.4,0.2-0.6,0.3c-0.1,0-0.2,0.1-0.3,0.1c-0.2,0.1-0.4,0.2-0.6,0.2c-0.1,0-0.1,0.1-0.2,0.1
	c-0.4,0.1-0.9,0.3-1.4,0.3c-0.1,0-0.1,0-0.2,0c-0.3,0.1-0.6,0.1-0.9,0.1c0,0,0,0-0.1,0c-0.3,0-0.6,0-0.9,0.1c-0.1,0-0.3,0-0.4,0
	c-0.1,0-0.3,0-0.4,0c-0.2,0-0.4,0-0.6,0c-0.1,0-0.2,0-0.2,0c-0.3,0-0.5-0.1-0.8-0.1c-0.1,0-0.2,0-0.3,0c-0.2,0-0.3-0.1-0.5-0.1
	c-0.3-0.1-0.5-0.1-0.8-0.2h-0.1c-0.3-0.1-0.5-0.2-0.8-0.3c-0.1,0-0.1-0.1-0.2-0.1c-0.4-0.1-0.7-0.3-1-0.5c-0.3-0.2-0.5-0.3-0.8-0.5
	l-19-14.6l0.1-28.8c-4.4-6.2-10.8-11.8-19-16.6c-1-0.6-2-1.2-3.1-1.7c-0.4-0.2-0.7-0.4-1.1-0.5c-0.7-0.4-1.5-0.7-2.1-1.1
	c-0.4-0.2-0.9-0.4-1.3-0.6c-0.7-0.3-1.4-0.6-2-0.9c-0.5-0.2-1-0.4-1.5-0.6c-0.5-0.2-0.9-0.4-1.4-0.6c-0.3-0.1-0.6-0.2-0.8-0.3
	c-0.3-0.1-0.6-0.2-0.9-0.3c-1-0.4-1.9-0.7-2.9-1.1c-0.1,0-0.3-0.1-0.4-0.2c-1.1-0.4-2.2-0.7-3.3-1.1c-0.3-0.1-0.6-0.2-0.9-0.3
	c-0.4-0.1-0.8-0.3-1.3-0.4c-0.3-0.1-0.6-0.2-0.9-0.2c-0.9-0.2-1.6-0.5-2.5-0.7c-0.6-0.1-1.1-0.3-1.6-0.4c-0.9-0.2-1.7-0.4-2.7-0.6
	c-0.4-0.1-0.8-0.2-1.2-0.3c-0.2,0-0.3-0.1-0.5-0.1c-0.8-0.2-1.6-0.3-2.3-0.5c-0.6-0.1-1.2-0.2-1.7-0.3c-0.9-0.1-1.6-0.3-2.5-0.4
	c-0.5-0.1-1-0.2-1.5-0.2c-0.1,0-0.2,0-0.2,0c-0.8-0.1-1.5-0.2-2.2-0.3c-0.6-0.1-1.3-0.2-1.8-0.2c-0.8-0.1-1.6-0.2-2.3-0.2
	c-0.6-0.1-1.2-0.1-1.6-0.2c-0.1,0-0.1,0-0.2,0c-0.8-0.1-1.6-0.1-2.4-0.2c-0.6,0-1.2-0.1-1.7-0.1c-0.9,0-1.7-0.1-2.6-0.1
	c-0.5,0-1,0-1.6-0.1c0,0,0,0-0.1,0c-1.5,0-2.8-0.1-4.3,0c-0.3,0-0.7,0-1,0c-1.1,0-2.2,0-3.3,0.1c-0.1,0-0.1,0-0.2,0
	c-0.3,0-0.7,0-1,0.1c-1.1,0-2.2,0.1-3.3,0.2c-0.6,0-1.1,0.1-1.6,0.1c-1,0.1-1.8,0.2-2.8,0.2c-0.2,0-0.5,0-0.7,0.1
	c-0.7,0.1-1.5,0.2-2.1,0.2c-0.2,0-0.3,0-0.5,0.1c-1.2,0.1-2.4,0.3-3.6,0.5c-0.3,0-0.6,0.1-0.9,0.1c-1,0.2-2,0.3-3,0.5
	c-0.2,0-0.4,0.1-0.7,0.1c-0.1,0-0.2,0-0.3,0c-0.5,0.1-1,0.2-1.5,0.3c-0.8,0.2-1.6,0.3-2.4,0.5c-0.6,0.1-1.2,0.3-1.7,0.4
	c-0.8,0.2-1.6,0.4-2.2,0.5c-0.6,0.1-1.2,0.3-1.7,0.5c-0.8,0.2-1.5,0.4-2.2,0.6c-0.6,0.2-1.2,0.4-1.7,0.5c-0.7,0.2-1.5,0.4-2.1,0.7
	c-0.2,0.1-0.4,0.1-0.6,0.2c-0.8,0.3-1.6,0.6-2.4,0.8c-0.1,0-0.1,0-0.2,0.1c-1.1,0.4-2.1,0.8-3.2,1.2c-0.3,0.1-0.6,0.2-0.9,0.4
	c-0.9,0.3-1.6,0.7-2.5,1.1c-0.2,0.1-0.5,0.2-0.7,0.3c-1.1,0.5-2,0.9-3,1.4c-0.2,0.1-0.4,0.2-0.7,0.3c-0.8,0.4-1.6,0.8-2.3,1.3
	c-0.3,0.1-0.6,0.3-0.8,0.4c-1,0.5-1.9,1.1-2.8,1.6c-0.4,0.2-0.7,0.4-1.1,0.6c-0.1,0-0.2,0.1-0.3,0.1c-0.3,0.1-0.5,0.2-0.8,0.2
	c-0.3,0.1-0.5,0.1-0.8,0.2c-0.3,0.1-0.7,0.1-1,0.2c-0.1,0-0.1,0-0.2,0c-0.5,0-0.9,0.1-1.4,0.1c-0.1,0-0.1,0-0.2,0
	c-0.5,0-0.9,0-1.3-0.1c-0.1,0-0.1,0-0.2,0c-0.4-0.1-0.9-0.1-1.3-0.2c-0.1,0-0.2,0-0.2-0.1c-0.4-0.1-0.7-0.2-1.1-0.3
	c-0.1,0-0.1,0-0.2-0.1c-0.4-0.2-0.8-0.4-1.2-0.6c-0.3-0.2-0.5-0.3-0.8-0.5l-19-14.6c-1.1-0.8-1.6-1.7-1.6-2.7l-0.1,36
	c0,1,0.5,1.9,1.6,2.7l19,14.6c0.2,0.2,0.5,0.3,0.8,0.5c0.4,0.2,0.7,0.4,1.1,0.5c0,0,0,0,0.1,0s0.1,0,0.2,0.1
	c0.2,0.1,0.5,0.2,0.7,0.2c0.1,0,0.3,0.1,0.4,0.1s0.2,0,0.2,0.1c0.1,0,0.1,0,0.2,0.1c0.3,0.1,0.5,0.1,0.8,0.1c0.1,0,0.2,0,0.3,0
	s0.1,0,0.2,0s0.2,0,0.3,0c0.3,0,0.5,0,0.8,0c0.1,0,0.2,0,0.2,0c0.1,0,0.1,0,0.2,0s0.3,0,0.4,0c0.3,0,0.6,0,0.9-0.1h0.1
	c0.1,0,0.1,0,0.2,0c0.2,0,0.5-0.1,0.7-0.1c0.1,0,0.2-0.1,0.3-0.1c0.3-0.1,0.5-0.1,0.8-0.2c0.1,0,0.3-0.1,0.4-0.1s0.2-0.1,0.4-0.1
	c0.1,0,0.2-0.1,0.3-0.1c0.4-0.2,0.8-0.3,1.1-0.6c1-0.6,1.8-1.1,2.8-1.6c0.3-0.2,0.6-0.3,0.8-0.4c0.8-0.4,1.6-0.8,2.3-1.3
	c0.2-0.1,0.4-0.2,0.7-0.3c1-0.5,2-1,3-1.4c0.2-0.1,0.5-0.2,0.7-0.3c0.9-0.4,1.6-0.7,2.5-1.1c0.3-0.1,0.6-0.2,0.9-0.4
	c1.1-0.4,2.1-0.8,3.2-1.2c0.1,0,0.1,0,0.2-0.1c1-0.4,1.9-0.7,3-1c0.7-0.2,1.5-0.4,2.1-0.7c0.6-0.2,1.2-0.4,1.7-0.5
	c0.7-0.2,1.5-0.4,2.2-0.6c0.6-0.2,1.2-0.3,1.7-0.5c0.8-0.2,1.6-0.4,2.2-0.5c0.6-0.1,1.2-0.3,1.7-0.4c0.8-0.2,1.6-0.3,2.4-0.5
	c0.6-0.1,1.2-0.2,1.7-0.3c0.2,0,0.4-0.1,0.7-0.1c1-0.2,2-0.3,3-0.5c0.3,0,0.6-0.1,0.9-0.1c1.2-0.2,2.4-0.3,3.6-0.5
	c0.2,0,0.3,0,0.5-0.1c1-0.1,1.9-0.2,2.8-0.3c1-0.1,1.8-0.2,2.8-0.2c0.6,0,1.1-0.1,1.6-0.1c1.1-0.1,2.2-0.1,3.3-0.2
	c0.4,0,0.8,0,1.2-0.1c1.1,0,2.1-0.1,3.3-0.1c0.3,0,0.7,0,1,0c1.5,0,2.8,0,4.3,0c0.5,0,1.1,0,1.6,0.1c0.9,0,1.7,0.1,2.6,0.1
	c0.6,0,1.2,0.1,1.7,0.1c0.8,0.1,1.6,0.1,2.4,0.2c0.6,0.1,1.3,0.1,1.8,0.2c0.8,0.1,1.6,0.1,2.3,0.2c0.6,0.1,1.3,0.2,1.8,0.2
	c0.8,0.1,1.6,0.2,2.2,0.3c0.6,0.1,1.1,0.2,1.6,0.3c0.9,0.1,1.6,0.3,2.5,0.4c0.6,0.1,1.2,0.2,1.7,0.3c0.8,0.2,1.6,0.3,2.3,0.5
	c0.6,0.1,1.1,0.2,1.6,0.4c0.9,0.2,1.8,0.4,2.7,0.6c0.6,0.1,1.1,0.3,1.6,0.4c0.9,0.2,1.7,0.5,2.5,0.7c0.7,0.2,1.5,0.4,2.1,0.6
	c0.3,0.1,0.6,0.2,0.9,0.3c1.1,0.4,2.2,0.7,3.3,1.1c0.1,0,0.3,0.1,0.4,0.2c1,0.3,1.9,0.7,2.9,1.1c0.3,0.1,0.6,0.2,0.9,0.4
	c0.7,0.3,1.5,0.6,2.1,0.9c0.2,0.1,0.3,0.1,0.5,0.2l-0.1,26.3c0,0.9,0.5,1.8,1.6,2.7l41,31.5c0,0-0.1,0-0.1,0.1
	c-0.1,0.1-0.2,0.1-0.3,0.2c-0.1,0.1-0.2,0.1-0.3,0.2c-0.1,0.1-0.3,0.2-0.4,0.3c-1.5,0.8-2.9,1.6-4.5,2.3c-0.3,0.2-0.7,0.3-1,0.5
	c-1.5,0.8-3,1.5-4.5,2.1c-0.2,0.1-0.5,0.2-0.7,0.3c-1.4,0.6-2.8,1.3-4.2,1.8c-0.3,0.1-0.6,0.3-1,0.4c-1.6,0.6-3.1,1.3-4.8,1.8
	c-0.3,0.1-0.7,0.2-1,0.4c-1.5,0.5-3,1.1-4.5,1.6c-0.2,0.1-0.4,0.1-0.6,0.2c-0.7,0.2-1.5,0.4-2.1,0.7c-1.3,0.4-2.5,0.8-3.8,1.2
	c-0.8,0.2-1.6,0.5-2.4,0.7c-1.2,0.3-2.3,0.7-3.6,1c-0.9,0.2-1.7,0.4-2.6,0.6c-1.2,0.3-2.3,0.6-3.5,0.8c-0.9,0.2-1.8,0.4-2.7,0.6
	c-1.2,0.2-2.3,0.5-3.4,0.7c-1.6,0.3-3.2,0.6-4.9,0.9c-0.1,0-0.1,0-0.2,0c-1.7,0.3-3.6,0.6-5.4,0.8c-0.5,0.1-1,0.1-1.5,0.2
	c-1.6,0.2-3.1,0.4-4.8,0.6c-0.3,0-0.6,0.1-0.9,0.1c-1.8,0.2-3.6,0.3-5.4,0.5c-0.4,0-0.7,0.1-1.1,0.1c-1.7,0.1-3.6,0.2-5.4,0.3
	c-0.3,0-0.6,0-0.9,0c-1.3,0.1-2.5,0.1-3.8,0.1c-1.2,0-2.4,0.1-3.6,0.1c-1,0-1.9,0-2.9,0c-1.2,0-2.4,0-3.6,0c-1,0-1.9,0-2.9-0.1
	c-1.2,0-2.2-0.1-3.4-0.1c-1,0-1.9-0.1-3-0.2c-1.2-0.1-2.2-0.2-3.4-0.2c-1-0.1-1.9-0.1-2.9-0.2c-1.2-0.1-2.2-0.2-3.4-0.3
	c-1-0.1-1.9-0.2-2.9-0.3c-1.2-0.1-2.2-0.3-3.4-0.4c-1-0.1-1.9-0.3-2.8-0.4c-1.3-0.2-2.5-0.4-3.9-0.6c-0.9-0.1-1.6-0.3-2.5-0.4
	c-1.5-0.3-2.8-0.5-4.2-0.8c-0.7-0.1-1.5-0.3-2.1-0.4c-0.2,0-0.4-0.1-0.6-0.1c-1.6-0.4-3.3-0.8-4.9-1.2c-0.2-0.1-0.5-0.1-0.7-0.2
	c-1.7-0.4-3.4-0.9-5-1.4c-0.3-0.1-0.7-0.2-1-0.3c-1.6-0.5-3.3-1-4.9-1.5c-0.1,0-0.2-0.1-0.3-0.1c-1.6-0.5-3.4-1.1-5-1.6
	c-0.5-0.2-1-0.3-1.4-0.5c-1.3-0.5-2.5-0.9-3.8-1.4c-0.4-0.2-0.9-0.3-1.3-0.5c-1.1-0.4-2-0.9-3.1-1.3c-0.8-0.3-1.5-0.6-2.2-0.9
	c-1.1-0.5-2-0.9-3-1.4c-0.7-0.3-1.4-0.6-2-1c-1.1-0.5-2.2-1.1-3.3-1.6c-0.6-0.3-1.1-0.6-1.6-0.8c-1.6-0.9-3.2-1.7-4.8-2.6
	c-17.2-9.9-29.2-22.1-35.1-35.6h-23.3c-0.5,0-1.1,0-1.6-0.1c-0.1,0-0.1,0-0.2,0c-0.5-0.1-0.9-0.1-1.3-0.2c-0.1,0-0.2,0-0.2-0.1
	c-0.4-0.1-0.8-0.2-1.2-0.4s-0.8-0.3-1.2-0.6c-1.5-0.9-2.3-2-2.3-3.3l-0.1,36c0,1.3,0.9,2.4,2.3,3.3c0.4,0.2,0.7,0.4,1.2,0.6
	c0.3,0.1,0.6,0.2,0.9,0.3c0.1,0,0.2,0,0.3,0.1c0.1,0,0.2,0,0.2,0.1c0.1,0,0.2,0.1,0.3,0.1c0.3,0.1,0.5,0.1,0.8,0.1
	c0.1,0,0.1,0,0.2,0s0.1,0,0.2,0s0.2,0,0.4,0c0.3,0,0.5,0,0.8,0c0.1,0,0.2,0,0.4,0h23.3c5.9,13.5,17.9,25.7,35.1,35.6
	c1.6,0.9,3.2,1.7,4.8,2.6c0.6,0.3,1.1,0.6,1.6,0.8c1.1,0.6,2.1,1.1,3.3,1.6c0.7,0.3,1.4,0.6,2,1c1,0.5,2,1,3,1.4
	c0.8,0.3,1.5,0.6,2.2,1c0.8,0.3,1.6,0.7,2.4,1c0.2,0.1,0.4,0.2,0.7,0.3c0.4,0.2,0.9,0.3,1.3,0.5c1.3,0.5,2.5,1,3.8,1.4
	c0.5,0.2,1,0.3,1.4,0.5c1.6,0.6,3.3,1.2,5,1.6c0.1,0,0.2,0.1,0.3,0.1c1.3,0.4,2.5,0.8,3.8,1.2c0.4,0.1,0.8,0.2,1.2,0.3
	c0.3,0.1,0.7,0.2,1,0.3c1.6,0.5,3.4,0.9,5,1.4c0.2,0.1,0.5,0.1,0.7,0.2c1.6,0.4,3.3,0.8,4.9,1.2c0.2,0,0.4,0.1,0.6,0.1
	c0.1,0,0.2,0,0.3,0.1c0.6,0.1,1.3,0.2,1.8,0.4c1.4,0.3,2.8,0.6,4.2,0.8c0.9,0.2,1.6,0.3,2.5,0.4c1.3,0.2,2.5,0.4,3.9,0.6
	c0.3,0,0.5,0.1,0.8,0.1c0.7,0.1,1.5,0.2,2.1,0.3c1.2,0.2,2.2,0.3,3.4,0.4c1,0.1,1.9,0.2,2.9,0.3c1.2,0.1,2.2,0.2,3.4,0.3
	c0.3,0,0.7,0.1,1,0.1c0.7,0.1,1.3,0.1,1.9,0.1c1.2,0.1,2.2,0.2,3.4,0.2c1,0.1,1.9,0.1,3,0.2c1.2,0.1,2.2,0.1,3.4,0.1
	c0.4,0,0.8,0,1.3,0c0.6,0,1.2,0,1.6,0c1.2,0,2.4,0,3.6,0c1,0,1.9,0,2.9,0c1.2,0,2.4,0,3.6-0.1c0.6,0,1.1,0,1.6,0
	c0.7,0,1.5-0.1,2.1-0.1c0.3,0,0.6,0,0.9,0c1.8-0.1,3.6-0.2,5.4-0.3c0.4,0,0.7-0.1,1.1-0.1c1.7-0.1,3.4-0.3,5.1-0.5
	c0.1,0,0.2,0,0.3,0c0.3,0,0.6-0.1,0.9-0.1c1.6-0.2,3.1-0.4,4.7-0.6c0.5-0.1,1-0.1,1.5-0.2c1.8-0.2,3.6-0.5,5.4-0.8
	c0.1,0,0.1,0,0.2,0c1.4-0.2,2.6-0.4,4-0.7c0.3-0.1,0.6-0.1,0.9-0.2c1.2-0.2,2.3-0.5,3.4-0.7c0.9-0.2,1.8-0.4,2.7-0.6
	c1.2-0.3,2.3-0.5,3.5-0.8c0.9-0.2,1.7-0.4,2.6-0.6c1.2-0.3,2.3-0.6,3.6-1c0.8-0.2,1.6-0.4,2.4-0.7c1.3-0.4,2.5-0.8,3.8-1.2
	c0.6-0.2,1.3-0.4,1.8-0.6c0.1,0,0.2-0.1,0.3-0.1c0.2-0.1,0.4-0.1,0.6-0.2c1.5-0.5,3-1,4.5-1.6c0.3-0.1,0.7-0.2,1-0.4
	c1.6-0.6,3.2-1.2,4.8-1.8c0.3-0.1,0.6-0.3,1-0.4c1.5-0.6,2.8-1.2,4.2-1.7c0.2-0.1,0.5-0.2,0.7-0.3c1.6-0.7,3-1.4,4.5-2.1
	c0.3-0.2,0.7-0.3,1-0.5c1.5-0.8,3-1.6,4.5-2.3c0.1,0,0.2-0.1,0.3-0.2c0.1,0,0.1-0.1,0.2-0.1c0.1-0.1,0.2-0.1,0.3-0.2
	c0.1-0.1,0.2-0.1,0.3-0.2c0.1-0.1,0.2-0.1,0.2-0.2l0.1-0.1l0.1-0.1c0.1-0.1,0.2-0.2,0.3-0.4l0.1-0.1c0,0,0,0,0-0.1
	c0.1-0.1,0.1-0.2,0.2-0.3l0.1-0.1c0-0.1,0.1-0.2,0.1-0.2c0-0.1,0.1-0.1,0.1-0.2c0-0.1,0-0.1,0.1-0.2c0-0.1,0-0.1,0.1-0.2
	c0-0.1,0-0.2,0-0.2c0-0.1,0-0.1,0-0.2c0,0,0,0,0-0.1l0.1-32.3l4.6,3.5c0.2,0.2,0.5,0.4,0.8,0.5c0.3,0.2,0.7,0.3,1,0.5
	c0,0,0.1,0,0.1,0.1h0.1c0.2,0.1,0.5,0.2,0.8,0.3h0.1c0.3,0.1,0.5,0.1,0.8,0.2c0.2,0,0.3,0.1,0.5,0.1c0.1,0,0.2,0,0.3,0
	c0.3,0,0.5,0.1,0.8,0.1c0.1,0,0.1,0,0.2,0c0.2,0,0.4,0,0.6,0c0.1,0,0.3,0,0.4,0c0.1,0,0.3,0,0.4,0c0.3,0,0.6,0,0.9-0.1
	c0.3,0,0.6-0.1,0.9-0.1h0.1h0.1c0.5-0.1,0.9-0.2,1.4-0.3c0,0,0,0,0.1,0c0.1,0,0.1,0,0.2-0.1c0.2-0.1,0.4-0.2,0.6-0.2
	c0.1,0,0.2-0.1,0.3-0.1c0.2-0.1,0.4-0.2,0.6-0.3c0,0,0.1,0,0.1-0.1c0.2-0.1,0.4-0.3,0.6-0.4l46.6-36.2c0.1-0.1,0.3-0.2,0.4-0.3
	c0.2-0.2,0.3-0.3,0.4-0.5c0,0,0,0,0.1-0.1c0.1-0.1,0.2-0.3,0.3-0.4c0.1-0.1,0.1-0.3,0.2-0.4v-0.1c0-0.1,0.1-0.2,0.1-0.3
	c0,0,0,0,0-0.1c0,0,0,0,0-0.1c0-0.1,0-0.2,0-0.3v-0.1c0,0,0,0,0-0.1L418.2,260.2z"/>
<path class="st1" d="M201.6,329.6c0.2,0,0.3,0,0.5,0c0.1,0,0.2,0,0.2,0h0.1c0.3,0,0.5-0.1,0.8-0.1h0.1c0.5-0.1,1-0.2,1.5-0.4
	c0.3-0.1,0.6-0.2,0.8-0.3c0.1,0,0.1-0.1,0.2-0.1c0.2-0.1,0.5-0.2,0.7-0.4c0,0,0,0,0.1,0c0.2-0.1,0.4-0.2,0.5-0.4c0,0,0,0,0.1,0
	c0.1-0.1,0.3-0.2,0.4-0.3c0,0,0,0,0.1-0.1c0.1-0.1,0.3-0.3,0.4-0.4c0,0,0,0,0.1-0.1c0,0,0-0.1,0.1-0.1c0.1-0.1,0.1-0.2,0.2-0.3
	l0.1-0.1c0,0,0,0,0-0.1c0-0.1,0.1-0.2,0.1-0.3c0,0,0-0.1,0.1-0.1c0-0.1,0-0.2,0.1-0.2c0-0.1,0-0.1,0-0.2c0-0.1,0-0.2,0-0.2
	c0-0.1,0-0.1,0-0.2c0,0,0,0,0-0.1l0.1-36c0,0.1,0,0.2,0,0.2c0,0.1,0,0.2,0,0.2c0,0.1,0,0.1-0.1,0.2c0,0.1,0,0.2-0.1,0.2
	c0,0.1-0.1,0.1-0.1,0.2c0,0.1-0.1,0.2-0.1,0.3c0,0.1-0.1,0.1-0.1,0.2c-0.1,0.1-0.1,0.2-0.2,0.3c0,0.1-0.1,0.1-0.1,0.2
	c-0.1,0.1-0.2,0.3-0.4,0.4l-0.1,0.1c-0.1,0.1-0.3,0.2-0.4,0.3c0,0,0,0-0.1,0c-0.2,0.1-0.3,0.2-0.5,0.4h-0.1
	c-0.2,0.1-0.4,0.2-0.7,0.4c-0.1,0-0.1,0.1-0.2,0.1c-0.3,0.1-0.5,0.2-0.8,0.3c-0.5,0.2-1,0.3-1.5,0.4h-0.1c-0.3,0-0.5,0.1-0.8,0.1
	c-0.1,0-0.2,0-0.4,0s-0.3,0-0.5,0s-0.4,0-0.7,0h-21.2l-0.1,36h21.2c0.2,0,0.3,0,0.5,0C201.4,329.6,201.5,329.6,201.6,329.6z"/>
<path class="st2" d="M186.4,239.5c-0.3-0.2-0.5-0.3-0.8-0.5l-19-14.6c-2.4-1.8-2-4.4,0.9-6c52.4-28.9,133.7-28.3,185.1,1.4
	c17.1,9.9,29.1,22.1,35,35.7h22.7c2.2,0,4.1,0.5,5.5,1.3c2.6,1.5,3.3,4,0.8,5.9L370,298.9c-2.9,2.2-8.4,2.4-11.7,0.5
	c-0.3-0.2-0.5-0.3-0.8-0.5l-47-36.2c-3.9-3-0.2-7.2,6.2-7.2h21.9c-4.4-6.2-10.8-11.8-19-16.6c-34-19.6-88.9-19.4-122.1,0.5
	C194.4,241.4,189.4,241.3,186.4,239.5z"/>
<path class="st2" d="M351.3,325c2.4,1.8,2,4.5-0.9,6c-52.4,28.6-133.5,27.9-184.6-1.6c-17.2-9.9-29.2-22.1-35.1-35.6h-23.3
	c-2.2,0-4.1-0.5-5.5-1.3c-2.6-1.5-3.3-4-0.8-5.9l46.6-36.2c2.9-2.2,8.5-2.3,11.7-0.5c0.3,0.2,0.5,0.3,0.8,0.5l47,36.2
	c3.9,3,0.2,7.2-6.2,7.2h-21.2c4.4,6.1,10.8,11.7,18.9,16.5c33.6,19.4,88,19.4,121.4,0c3.6-2.1,8.9-1.7,11.7-0.1
	c0.2,0.1,0.4,0.2,0.6,0.4L351.3,325z"/>
<path class="st3" d="M166.7,224.5c-2.4-1.8-2-4.4,0.9-6c52.4-28.9,133.7-28.3,185.1,1.4c17.1,9.9,29.1,22.1,35,35.7h22.7
	c2.2,0,4.1,0.5,5.5,1.3c2.6,1.5,3.3,4,0.8,5.9"/>
<path class="st3" d="M102,292.4c-2.6-1.5-3.3-4-0.8-5.9l46.6-36.2c2.9-2.2,8.5-2.3,11.7-0.5c0.3,0.2,0.5,0.3,0.8,0.5l47,36.2
	c3.9,3,0.2,7.2-6.2,7.2h-21.2c4.4,6.1,10.8,11.7,18.9,16.5c33.6,19.4,88,19.4,121.4,0c3.6-2.1,8.9-1.7,11.7-0.1
	c0.2,0.1,0.4,0.2,0.6,0.4"/>
<path class="st1" d="M304.6,99.5c0,0-0.1,0-0.1-0.1h-0.1h-0.1h-0.1c0,0,0,0-0.1,0c-0.1,0-0.2,0-0.3,0c-0.1,0-0.3,0-0.5,0
	s-0.5,0.1-0.9,0.2c0,0,0,0-0.1,0c-0.3,0.1-0.7,0.2-1,0.3c-0.1,0-0.1,0-0.2,0.1c-0.3,0.1-0.7,0.2-1.1,0.4h-0.1
	c-0.3,0.1-0.8,0.3-1.1,0.4h-0.1c-0.4,0.2-0.8,0.3-1.2,0.5c-0.1,0-0.1,0.1-0.2,0.1c-0.4,0.2-0.8,0.4-1.2,0.7c-0.1,0-0.1,0.1-0.2,0.1
	c-0.4,0.2-0.9,0.4-1.3,0.7c-1.8,1-3.6,2.2-5.1,3.3c-0.2,0.1-0.4,0.3-0.7,0.5c-0.1,0-0.1,0.1-0.2,0.1c-0.2,0.2-0.4,0.3-0.7,0.5
	s-0.4,0.4-0.8,0.5c-0.1,0-0.1,0.1-0.2,0.1c-0.2,0.2-0.4,0.4-0.8,0.7c-0.2,0.2-0.5,0.4-0.8,0.7c-0.1,0-0.1,0.1-0.2,0.2
	c-0.2,0.2-0.4,0.4-0.8,0.7c-0.2,0.2-0.4,0.4-0.8,0.7c-0.1,0.1-0.1,0.1-0.2,0.2c-0.2,0.2-0.4,0.4-0.7,0.7c-0.2,0.2-0.4,0.4-0.8,0.8
	c-0.1,0.1-0.1,0.1-0.2,0.2c-0.4,0.4-0.9,1-1.3,1.4c0,0.1-0.1,0.1-0.1,0.2c-0.2,0.2-0.4,0.4-0.7,0.7c-0.2,0.2-0.4,0.4-0.5,0.7
	l-0.1,0.1c-0.2,0.2-0.3,0.4-0.5,0.7c0,0,0,0,0,0.1c-0.2,0.2-0.4,0.5-0.5,0.8c0,0,0,0,0,0.1c-0.1,0.1-0.2,0.3-0.3,0.4c0,0,0,0,0,0.1
	c0,0,0,0.1-0.1,0.1c0,0.1-0.1,0.1-0.1,0.2c0,0,0,0.1-0.1,0.1c0,0,0,0.1-0.1,0.1v0.1c0,0,0,0,0,0.1c0,0.1-0.1,0.2-0.1,0.2
	s0,0.1-0.1,0.1c0,0,0,0.1-0.1,0.1c0,0,0,0.1-0.1,0.1v0.1v0.1v0.1v0.1c0,0,0,0,0,0.1s0,0.1,0,0.2s0.1,0.1,0.1,0.2l7.1,4.2
	c-0.1,0.1-0.3,0.3-0.4,0.4c-0.1,0.1-0.1,0.1-0.2,0.2c-0.5,0.7-1.2,1.2-1.8,1.9c-0.1,0.1-0.3,0.3-0.4,0.4c-0.6,0.5-1,1.1-1.5,1.5
	c-0.3,0.3-0.7,0.7-1,1c-0.3,0.3-0.7,0.7-1,1c-0.3,0.3-0.7,0.7-1,1c-0.3,0.3-0.7,0.7-0.9,1c-0.3,0.3-0.5,0.5-0.9,0.9
	c-0.3,0.3-0.7,0.7-1.1,1.1c-0.3,0.3-0.7,0.7-0.9,0.9c-0.3,0.3-0.7,0.7-1,1c0,0,0,0-0.1,0.1c-0.8,0.8-1.6,1.5-2.4,2.3
	c-0.2,0.2-0.4,0.4-0.7,0.5c-0.8,0.8-1.6,1.5-2.4,2.3c0,0,0,0-0.1,0c-0.8,0.8-1.5,1.4-2.4,2.2c-0.2,0.2-0.4,0.3-0.7,0.6
	c-0.8,0.8-1.5,1.4-2.4,2.1c-0.8,0.7-1.5,1.3-2.3,2c-0.2,0.2-0.4,0.3-0.5,0.5c-0.8,0.7-1.5,1.3-2.3,2c-0.8,0.7-1.5,1.2-2.3,1.9
	c-0.2,0.1-0.3,0.3-0.5,0.4c-0.8,0.7-1.5,1.2-2.3,1.8c-0.8,0.5-1.4,1.1-2.2,1.6c-0.2,0.1-0.3,0.3-0.5,0.4c-0.8,0.6-1.4,1.1-2.2,1.6
	c-0.8,0.5-1.4,1-2.2,1.5c-0.2,0.1-0.3,0.2-0.6,0.3c-0.8,0.5-1.4,1-2.2,1.5c-0.7,0.4-1.4,1-2.1,1.4c-0.2,0.1-0.3,0.2-0.5,0.3
	c-0.7,0.4-1.4,0.9-2.1,1.3c-0.7,0.4-1.3,0.9-2.1,1.2c-0.2,0.1-0.3,0.2-0.5,0.3c-0.7,0.4-1.3,0.8-2.1,1.2c-0.9,0.5-1.8,1-2.6,1.4
	c-0.2,0.1-0.4,0.2-0.6,0.3c-0.9,0.4-1.6,0.9-2.5,1.3c-0.1,0.1-0.2,0.1-0.3,0.2c-0.8,0.3-1.5,0.8-2.2,1.1c-0.2,0.1-0.3,0.2-0.6,0.2
	c-0.8,0.4-1.6,0.8-2.4,1.1c-0.1,0.1-0.3,0.1-0.4,0.2c-0.8,0.3-1.4,0.7-2.2,0.9c-0.1,0-0.2,0.1-0.3,0.1c-0.2,0.1-0.5,0.2-0.8,0.3
	c-0.8,0.3-1.4,0.5-2.2,0.9c-0.3,0.1-0.7,0.2-1,0.4c-0.7,0.2-1.2,0.4-1.9,0.7c-0.3,0.1-0.8,0.2-1.1,0.3c-0.5,0.2-1.2,0.4-1.8,0.6
	c-0.3,0.1-0.7,0.2-1,0.3c-0.7,0.2-1.2,0.3-1.9,0.5c-0.3,0.1-0.7,0.2-0.9,0.2c-0.4,0.1-1,0.2-1.4,0.3c-0.3,0.1-0.7,0.2-1.1,0.2
	c-0.4,0.1-1,0.2-1.4,0.3c-0.3,0.1-0.7,0.1-1,0.2c-0.5,0.1-1,0.2-1.5,0.3c-0.3,0-0.5,0.1-0.9,0.1c-0.7,0.1-1.3,0.2-2,0.3
	c-0.1,0-0.2,0-0.3,0.1c-0.8,0.1-1.5,0.2-2.3,0.3c-0.2,0-0.5,0.1-0.8,0.1c-0.5,0.1-1,0.1-1.5,0.2c-0.3,0-0.5,0-0.9,0.1
	c-0.4,0-0.9,0.1-1.3,0.1c-0.3,0-0.7,0-1,0.1c-0.4,0-0.9,0-1.3,0.1c-0.2,0-0.5,0-0.8,0c-0.7,0-1.3,0-2,0.1c-0.2,0-0.4,0-0.5,0
	c-0.9,0-1.6,0-2.4,0c-0.2,0-0.3,0-0.5,0c-0.7,0-1.3,0-2,0c-0.2,0-0.4,0-0.7,0c-0.8,0-1.4-0.1-2.1-0.1c-0.1,0-0.1,0-0.2,0
	c-1.2-0.1-2.4-0.2-3.5-0.3c0,0,0,0-0.1,0c-1.2-0.1-2.3-0.2-3.4-0.3c-1.1-0.1-2.2-0.2-3.3-0.3c-1.1-0.1-2.1-0.2-3.2-0.4h-0.1h-0.1
	h-0.1h-0.1c-0.1,0-0.2,0-0.2,0.1c-0.1,0-0.2,0.1-0.3,0.1c-0.1,0.1-0.2,0.1-0.3,0.2c0,0,0,0-0.1,0.1c-0.1,0.1-0.2,0.1-0.2,0.2
	c0,0,0,0-0.1,0.1l-0.1,0.1c0,0,0,0-0.1,0.1l-0.1,0.1c0,0,0,0.1-0.1,0.1c0,0,0,0.1-0.1,0.1c0,0,0,0,0,0.1v0.1v0.1v0.1v0.1v0.1
	c0,0,0,0,0,0.1c0,0,0,0,0,0.1c0,0,0,0,0,0.1v0.1v0.1c0,0.1,0,0.2,0,0.2c0,0.1,0,0.1,0,0.2v0.1c0,0.1,0,0.1,0.1,0.2v0.1
	c0,0.1,0.1,0.1,0.1,0.1s0,0.1,0.1,0.1c0,0.1,0.1,0.1,0.1,0.2c0,0,0,0,0.1,0.1c0.1,0.1,0.2,0.1,0.2,0.2c1.1,0.9,2.4,1.8,4.1,2.7
	l22,12.7c-1.6-1-3-1.9-4.1-2.7c-0.1-0.1-0.2-0.1-0.2-0.2c0,0,0,0-0.1-0.1c0-0.1-0.1-0.1-0.1-0.2c0,0,0-0.1-0.1-0.1
	c0,0-0.1-0.1-0.1-0.2v-0.1c0-0.1,0-0.1-0.1-0.2v-0.1c0-0.1,0-0.1-0.1-0.2c0-0.1,0-0.2,0-0.2v-0.1c0-0.1,0-0.1,0-0.2c0,0,0,0,0-0.1
	c0-0.1,0-0.1,0.1-0.2c0-0.1,0.1-0.2,0.1-0.2c0-0.1,0.1-0.2,0.1-0.2c0-0.1,0.1-0.2,0.1-0.2c0-0.1,0.1-0.1,0.1-0.2l0.1-0.1
	c0,0,0,0,0.1-0.1c0.1-0.1,0.2-0.1,0.2-0.2c0,0,0,0,0.1-0.1c0.1-0.1,0.2-0.1,0.3-0.2c0.1-0.1,0.2-0.1,0.3-0.1c0.1,0,0.2-0.1,0.3-0.1
	s0.2,0,0.2,0c0.1,0,0.2,0,0.2,0c1,0.1,2.1,0.2,3.2,0.4c1.1,0.1,2.2,0.2,3.3,0.3c0,0,0,0,0.1,0c1.1,0.1,2.2,0.2,3.4,0.3
	c0,0,0,0,0.1,0c1.2,0.1,2.3,0.2,3.5,0.3h0.1c0.7,0,1.4,0.1,2.1,0.1c0.2,0,0.4,0,0.7,0c0.7,0,1.3,0,2,0c0.2,0,0.3,0,0.5,0
	c0.8,0,1.6,0,2.4,0c0.2,0,0.4,0,0.5,0c0.7,0,1.3,0,2-0.1c0.1,0,0.3,0,0.4,0c0.1,0,0.2,0,0.3,0c0.4,0,0.9,0,1.3-0.1
	c0.3,0,0.7,0,0.9-0.1c0.4,0,0.9-0.1,1.4-0.1c0.3,0,0.5,0,0.9-0.1c0.5,0,1-0.1,1.5-0.2c0.2,0,0.6,0,0.8-0.1c0.8-0.1,1.5-0.2,2.3-0.3
	c0.1,0,0.2,0,0.3,0c0.7-0.1,1.3-0.2,2-0.3c0.3,0,0.5-0.1,0.9-0.1c0.5-0.1,1-0.2,1.5-0.3c0.3-0.1,0.7-0.1,1-0.2
	c0.4-0.1,1-0.2,1.4-0.3c0.3-0.1,0.7-0.2,1.1-0.2c0.4-0.1,1-0.2,1.4-0.3c0.1,0,0.1,0,0.2-0.1c0.2-0.1,0.4-0.1,0.7-0.2
	c0.7-0.2,1.2-0.3,1.9-0.5c0.3-0.1,0.7-0.2,1.1-0.3c0.5-0.2,1.2-0.3,1.8-0.5c0.3-0.1,0.8-0.2,1.1-0.3c0.7-0.2,1.2-0.4,1.9-0.7
	c0.3-0.1,0.7-0.2,1-0.4c0.8-0.2,1.4-0.5,2.2-0.9c0.2-0.1,0.4-0.1,0.7-0.2c0,0,0.1,0,0.1-0.1c0.1,0,0.2-0.1,0.3-0.1
	c0.7-0.3,1.4-0.7,2.2-0.9c0.1-0.1,0.3-0.1,0.4-0.2c0.8-0.3,1.6-0.8,2.4-1.1c0.2-0.1,0.3-0.1,0.5-0.2c0.8-0.3,1.5-0.8,2.2-1.1
	c0.1-0.1,0.2-0.1,0.3-0.2c0.9-0.4,1.6-0.9,2.5-1.3c0.2-0.1,0.4-0.2,0.5-0.3c0.9-0.4,1.8-1,2.6-1.4c0.7-0.4,1.3-0.8,2.1-1.2
	c0.2-0.1,0.3-0.2,0.5-0.3c0.7-0.4,1.3-0.9,2.1-1.2c0.7-0.4,1.4-0.9,2.1-1.3c0.2-0.1,0.3-0.2,0.5-0.3c1.4-0.9,2.9-1.9,4.3-2.9
	c0.2-0.1,0.3-0.2,0.5-0.3c0.8-0.6,1.4-1,2.2-1.5c0.8-0.5,1.4-1.1,2.2-1.6c0.2-0.1,0.3-0.3,0.5-0.4c0.8-0.5,1.4-1.1,2.2-1.8
	c0.8-0.5,1.5-1.2,2.3-1.8c0.2-0.1,0.3-0.3,0.5-0.4c0.8-0.7,1.5-1.2,2.3-1.9c0.8-0.7,1.5-1.3,2.3-2c0.2-0.2,0.4-0.3,0.5-0.5
	c0.8-0.7,1.5-1.3,2.3-2c0.8-0.7,1.5-1.4,2.4-2.1c0.2-0.2,0.4-0.3,0.5-0.5c0.8-0.8,1.5-1.4,2.4-2.2c0,0,0,0,0.1,0
	c0.8-0.8,1.6-1.5,2.4-2.3c0.2-0.2,0.4-0.4,0.7-0.6c0.8-0.8,1.6-1.5,2.4-2.3c0.3-0.3,0.7-0.7,1-1c0.3-0.3,0.7-0.7,1-1
	c0.3-0.3,0.5-0.6,0.9-0.9c0.3-0.3,0.7-0.8,1.1-1.1c0.2-0.2,0.5-0.5,0.8-0.8c0.3-0.4,0.8-0.8,1.1-1.2c0.2-0.2,0.4-0.4,0.7-0.8
	c0.4-0.4,0.9-0.9,1.2-1.3c0.2-0.2,0.4-0.4,0.7-0.8c0.1-0.1,0.2-0.2,0.2-0.3l12.9,7.5l-0.1-0.1V148c0,0,0,0,0-0.1c0-0.1,0-0.1,0-0.2
	v-0.1c0-0.1,0-0.2,0-0.3c0,0,0,0,0-0.1c0-0.1,0-0.2,0.1-0.3v-0.1c0-0.1,0-0.2,0.1-0.3c0-0.1,0.1-0.2,0.1-0.4c0-0.1,0.1-0.2,0.1-0.3
	v-0.1c0-0.1,0.1-0.2,0.1-0.3c0-0.1,0-0.1,0.1-0.2c0-0.1,0.1-0.2,0.1-0.3s0-0.1,0.1-0.2c0-0.1,0.1-0.2,0.1-0.3s0-0.1,0.1-0.2
	c0-0.1,0.1-0.2,0.1-0.4c0-0.1,0.1-0.2,0.1-0.3c0-0.1,0.1-0.2,0.1-0.3s0.1-0.2,0.1-0.3c0-0.1,0.1-0.2,0.1-0.4c0-0.1,0.1-0.2,0.1-0.3
	c0-0.1,0.1-0.2,0.1-0.3v-0.1c0.1-0.2,0.1-0.5,0.2-0.8c0-0.1,0-0.1,0-0.2c0.1-0.3,0.2-0.7,0.2-1c0-0.1,0-0.2,0.1-0.2
	c0.1-0.2,0.1-0.5,0.2-0.8c0-0.1,0.1-0.2,0.1-0.3c0.1-0.2,0.1-0.4,0.2-0.8c0-0.1,0.1-0.2,0.1-0.4c0.1-0.2,0.1-0.5,0.2-0.8
	c0-0.1,0.1-0.2,0.1-0.3c0.2-0.8,0.3-1.5,0.5-2.2c0-0.1,0-0.2,0.1-0.3c0.1-0.2,0.1-0.6,0.2-0.8c0-0.1,0-0.1,0-0.2s0-0.1,0-0.2
	c0.1-0.3,0.1-0.7,0.2-1c0-0.1,0-0.2,0-0.2c0.1-0.4,0.1-0.8,0.2-1.2c0-0.1,0-0.2,0-0.2c0-0.3,0.1-0.5,0.1-0.9c0-0.1,0-0.2,0-0.3
	c0-0.3,0.1-0.7,0.1-1c0-0.3,0.1-0.5,0.1-0.9c0-0.1,0-0.1,0-0.2c0-0.2,0-0.3,0-0.5c0-0.1,0-0.2,0-0.3s0-0.3,0-0.4s0-0.2,0-0.3
	s0-0.2,0-0.4c0-0.1,0-0.2,0-0.2c0-0.1,0-0.2,0-0.3c0-0.1,0-0.1,0-0.2s0-0.2-0.1-0.3c0-0.1,0-0.1,0-0.2c0-0.1-0.1-0.2-0.1-0.2v-0.1
	c-0.1-0.1-0.1-0.2-0.2-0.2c-0.1,0-0.1-0.1-0.2-0.1l-7-4.1c1.2-0.9,2.6-1.6,4-2.5c0.4-0.2,0.9-0.4,1.3-0.7c0.1,0,0.1-0.1,0.2-0.1
	c0.4-0.2,0.8-0.4,1.2-0.7c0.1,0,0.1-0.1,0.2-0.1c0.4-0.2,0.8-0.4,1.2-0.5h0.1c0.3-0.2,0.8-0.3,1.1-0.4c0,0,0.1,0,0.1-0.1
	c0.3-0.1,0.7-0.3,1.1-0.4c0.1,0,0.1,0,0.2-0.1c0.3-0.1,0.7-0.2,1-0.3h0.1c0.3-0.1,0.5-0.1,0.9-0.2c0,0,0,0,0.1,0c0.2,0,0.3,0,0.5,0
	c0.1,0,0.3,0,0.4,0c0,0,0,0,0.1,0c0.1,0,0.2,0,0.3,0c0.1,0,0.2,0.1,0.3,0.1L304.6,99.5z"/>
<path class="st1" d="M184.6,146.3c0.2,0.4,0.4,0.8,0.7,1.2c1.3,2.3,3,4,4.9,5.2l22,12.7c-5.2-3-8.3-10-8.3-21.7c0-0.7,0-1.2,0-1.9
	c0-0.2,0-0.4,0-0.7c0-0.4,0-0.9,0.1-1.3c0-0.2,0-0.4,0-0.8c0-0.4,0.1-0.8,0.1-1.2c0-0.2,0-0.5,0.1-0.8c0-0.3,0.1-0.8,0.1-1.1
	c0-0.2,0.1-0.4,0.1-0.7c0.1-0.8,0.2-1.5,0.3-2.3c0-0.1,0-0.2,0-0.2c0.1-0.7,0.2-1.4,0.4-2.1c0-0.2,0.1-0.4,0.1-0.7
	c0.1-0.4,0.2-0.8,0.3-1.2c0-0.2,0.1-0.4,0.1-0.7c0.1-0.4,0.2-1,0.4-1.4c0-0.1,0.1-0.2,0.1-0.3c0.1-0.3,0.2-0.7,0.3-1
	c0.1-0.2,0.1-0.4,0.2-0.7c0.1-0.3,0.2-0.7,0.3-1.1c0.1-0.2,0.1-0.4,0.2-0.5c0.3-1,0.7-2,1-2.9c0-0.1,0.1-0.2,0.1-0.2
	c0.3-0.9,0.7-1.8,1.1-2.5c0.1-0.1,0.1-0.3,0.2-0.4c0.3-0.8,0.8-1.6,1.1-2.4c0.1-0.1,0.1-0.3,0.2-0.4c0.4-0.8,0.8-1.6,1.2-2.4
	c0-0.1,0.1-0.2,0.1-0.3c0.4-0.9,1-1.8,1.4-2.6c0.5-1,1.1-1.9,1.8-2.7V106c0.7-1,1.3-2,2-3c0,0,0,0,0-0.1c0.8-1.1,1.5-2.1,2.3-3.1
	c0.1-0.1,0.2-0.2,0.3-0.4c0.3-0.4,0.8-1,1.1-1.4c0.1-0.1,0.2-0.2,0.2-0.3c0.4-0.5,0.9-1.1,1.4-1.6c0.1-0.1,0.2-0.2,0.3-0.3
	c0.7-0.7,1.2-1.4,1.9-2.1c0.7-0.7,1.2-1.3,1.9-2c0.2-0.2,0.3-0.3,0.6-0.6c0.4-0.4,0.9-0.9,1.3-1.3c0.3-0.3,0.5-0.5,0.9-0.9
	c0.4-0.4,0.9-0.8,1.3-1.2c0.3-0.2,0.5-0.5,0.9-0.8c0.4-0.4,0.9-0.8,1.4-1.2c0.3-0.2,0.6-0.5,0.9-0.8c0.5-0.4,1.1-0.9,1.6-1.3
	c0.2-0.2,0.4-0.3,0.7-0.5c0.8-0.7,1.5-1.2,2.3-1.9c0.1-0.1,0.2-0.2,0.3-0.2c0.5-0.4,1.2-1,1.8-1.4c0,0.1,0,0.1,0,0.2
	c0,0.2,0,0.4,0,0.7c0,0.3,0,0.7,0,1c0,0.2,0,0.4,0,0.7c0,0.3,0,0.7,0,1c0,0.2,0,0.4,0,0.7c0,0.3,0,0.7-0.1,1c0,0.2,0,0.4,0,0.7
	c0,0.3-0.1,0.7-0.1,1.1c0,0.2,0,0.4-0.1,0.7c0,0.4-0.1,0.9-0.1,1.2c0,0.1,0,0.3,0,0.4c-0.1,0.7-0.2,1.2-0.3,1.9
	c0,0.2-0.1,0.3-0.1,0.5c-0.1,0.4-0.2,0.9-0.2,1.4c-0.1,0.3-0.1,0.5-0.2,0.9c0,0.2-0.1,0.4-0.1,0.7c-0.1,0.3-0.2,0.7-0.2,1
	c0,0.2-0.1,0.4-0.1,0.7c-0.1,0.5-0.3,1-0.4,1.5c0,0.1-0.1,0.2-0.1,0.2c-0.1,0.4-0.2,0.9-0.4,1.2c-0.2,0.8-0.6,1.5-0.8,2.3
	c-0.1,0.1-0.1,0.3-0.2,0.4c-0.2,0.5-0.4,1-0.7,1.4c-0.1,0.2-0.2,0.4-0.2,0.5c-0.2,0.3-0.3,0.8-0.5,1.1c-0.1,0.2-0.2,0.4-0.2,0.5
	c-0.2,0.3-0.3,0.8-0.5,1.1c-0.1,0.1-0.2,0.3-0.2,0.4c-0.2,0.4-0.5,1-0.8,1.4c0,0,0,0,0,0.1c-0.3,0.4-0.5,1-0.9,1.4
	c-0.1,0.1-0.2,0.3-0.3,0.4c-0.2,0.3-0.4,0.7-0.7,1c-0.1,0.1-0.2,0.3-0.3,0.4c-0.2,0.3-0.4,0.6-0.7,0.9c-0.1,0.1-0.2,0.3-0.3,0.4
	c-0.3,0.3-0.5,0.7-0.9,1.1c-0.1,0.1-0.2,0.2-0.3,0.3c-0.1,0.1-0.2,0.2-0.3,0.3c-0.2,0.2-0.4,0.4-0.7,0.7c-0.1,0.1-0.2,0.2-0.3,0.3
	c-0.2,0.2-0.3,0.3-0.6,0.5c-0.2,0.2-0.4,0.4-0.7,0.5c-0.1,0.1-0.3,0.2-0.4,0.4c-0.2,0.2-0.4,0.3-0.7,0.6c-0.1,0.1-0.3,0.2-0.4,0.3
	c-0.2,0.2-0.6,0.3-0.8,0.5c-0.1,0.1-0.2,0.2-0.3,0.2c-0.3,0.2-0.8,0.4-1.1,0.7c-0.4,0.2-0.8,0.4-1.1,0.5c-0.1,0.1-0.2,0.1-0.3,0.1
	c-0.3,0.1-0.6,0.2-0.9,0.3c-0.1,0-0.1,0.1-0.2,0.1c-0.3,0.1-0.7,0.2-1,0.3c-0.1,0-0.3,0.1-0.4,0.1c-0.2,0-0.4,0.1-0.7,0.1
	c-0.1,0-0.2,0-0.3,0c-0.2,0-0.4,0-0.7,0c-0.1,0-0.1,0-0.2,0c-0.3,0-0.5,0-0.8-0.1h-0.1c-0.2,0-0.4-0.1-0.7-0.2c-0.1,0-0.1,0-0.2-0.1
	c-0.2-0.1-0.5-0.2-0.8-0.3l22,12.7c0,0,0,0,0.1,0c0.2,0.1,0.3,0.2,0.5,0.2h0.1c0.1,0,0.1,0,0.2,0.1c0.1,0,0.1,0.1,0.2,0.1
	c0.1,0,0.3,0.1,0.4,0.1h0.1c0.2,0,0.4,0.1,0.7,0.1h0.1c0.1,0,0.1,0,0.2,0c0.1,0,0.2,0,0.3,0c0.1,0,0.2,0,0.3,0c0.1,0,0.2,0,0.3,0
	h0.1c0.1,0,0.3-0.1,0.4-0.1s0.3,0,0.4-0.1h0.1c0.3-0.1,0.6-0.2,0.9-0.3c0.1,0,0.1,0,0.2-0.1c0.1,0,0.2-0.1,0.4-0.1
	c0.1-0.1,0.3-0.1,0.4-0.2c0.1,0,0.2-0.1,0.3-0.1c0.3-0.2,0.8-0.3,1.1-0.5c0.3-0.2,0.8-0.4,1.1-0.7c0.1-0.1,0.2-0.2,0.3-0.2
	c0.2-0.2,0.5-0.3,0.8-0.5c0.1-0.1,0.3-0.2,0.4-0.3c0.2-0.2,0.4-0.3,0.7-0.5c0.1-0.1,0.3-0.2,0.4-0.4c0.2-0.2,0.4-0.4,0.7-0.5
	c0.1-0.1,0.1-0.1,0.2-0.2s0.2-0.2,0.3-0.3c0.1-0.1,0.2-0.2,0.3-0.3c0.2-0.2,0.4-0.4,0.7-0.7c0.1-0.1,0.2-0.2,0.3-0.3l0.1-0.1
	c0.1-0.1,0.1-0.1,0.2-0.2c0.3-0.3,0.5-0.7,0.9-1.1c0.1-0.1,0.1-0.1,0.2-0.2c0.1-0.1,0.1-0.2,0.2-0.2c0.2-0.3,0.4-0.5,0.7-0.9
	c0.1-0.1,0.1-0.2,0.2-0.3l0.1-0.1c0.2-0.3,0.4-0.7,0.7-1c0.1-0.1,0.1-0.2,0.2-0.3c0,0,0,0,0-0.1c0.3-0.4,0.5-1,0.9-1.4
	c0,0,0,0,0-0.1c0.2-0.4,0.5-1,0.8-1.4v-0.1c0.1-0.1,0.1-0.2,0.2-0.3c0.2-0.3,0.3-0.8,0.5-1.1c0-0.1,0.1-0.1,0.1-0.2
	c0.1-0.1,0.1-0.2,0.2-0.3c0.2-0.3,0.3-0.8,0.5-1.1c0-0.1,0.1-0.2,0.1-0.3s0.1-0.2,0.1-0.2c0.2-0.4,0.4-1,0.7-1.5
	c0-0.1,0.1-0.2,0.1-0.3s0-0.1,0.1-0.2c0.3-0.8,0.6-1.5,0.8-2.3c0-0.1,0.1-0.1,0.1-0.2c0.1-0.3,0.2-0.7,0.3-1c0-0.1,0.1-0.2,0.1-0.2
	c0.1-0.4,0.3-0.9,0.4-1.4c0-0.1,0-0.1,0-0.2c0.1-0.2,0.1-0.4,0.1-0.7c0.1-0.3,0.2-0.7,0.2-1c0-0.2,0.1-0.4,0.1-0.7
	c0-0.2,0.1-0.3,0.1-0.5c0-0.1,0-0.2,0.1-0.3c0.1-0.4,0.2-0.9,0.2-1.4c0-0.2,0.1-0.3,0.1-0.5c0.1-0.7,0.2-1.2,0.3-1.9
	c0-0.1,0-0.2,0-0.4c0-0.4,0.1-0.9,0.1-1.2c0-0.2,0-0.4,0.1-0.7c0-0.3,0.1-0.7,0.1-1.1c0-0.2,0-0.4,0-0.7c0-0.3,0-0.7,0.1-1
	c0-0.2,0-0.4,0-0.7c0-0.3,0-0.7,0-1c0-0.2,0-0.4,0-0.7c0-0.3,0-0.7,0-1c0-0.2,0-0.4,0-0.7c0-0.3,0-0.7,0-1.1c0-0.2,0-0.4,0-0.7
	c0-0.4,0-0.9,0-1.3c0-0.8,0-1.4,0-2.2v-4.9l-14.5-8.3c0.3-0.2,0.5-0.4,0.9-0.7c0.4-0.3,0.9-0.7,1.3-1c0.3-0.2,0.7-0.4,1-0.8
	c0.4-0.3,0.9-0.7,1.3-1c0.3-0.2,0.7-0.4,1-0.7c0.5-0.3,1-0.7,1.5-1.1c0.3-0.2,0.7-0.4,1-0.7c0.7-0.4,1.3-0.9,2-1.3
	c0.4-0.3,1-0.7,1.4-1c0.3-0.2,0.5-0.4,0.9-0.5c0.8-0.5,1.4-1,2.2-1.5v-3c0-5.5,0.3-12.2-2.5-15.3c-0.2-0.2-0.3-0.4-0.5-0.5
	c-0.2-0.1-0.4-0.3-0.7-0.4l-22-12.7c0.4,0.2,0.9,0.6,1.2,1c2.9,3.1,2.4,9.8,2.5,15.3v3c-0.7,0.5-1.4,1-2.2,1.5
	c-0.2,0.2-0.5,0.4-0.9,0.5c-0.4,0.3-1,0.7-1.4,1c-0.7,0.4-1.2,0.9-1.9,1.3c-0.3,0.2-0.8,0.5-1.1,0.8c-0.4,0.3-1,0.7-1.4,1
	c-0.3,0.2-0.7,0.4-1,0.8c-0.4,0.3-0.9,0.7-1.3,1c-0.3,0.2-0.7,0.4-1,0.8c-0.4,0.3-0.9,0.7-1.3,1c-0.3,0.2-0.7,0.6-1.1,0.8
	c-0.4,0.3-0.9,0.7-1.3,1c-0.3,0.2-0.7,0.5-1,0.8c-0.4,0.3-1,0.7-1.4,1c-0.3,0.2-0.7,0.4-1,0.8c-0.5,0.3-1,0.8-1.5,1.1
	c-0.3,0.2-0.5,0.4-0.9,0.7c-0.7,0.5-1.3,1-2,1.5c-0.1,0.1-0.2,0.2-0.3,0.3c-0.8,0.7-1.5,1.2-2.3,1.9c-0.2,0.2-0.4,0.4-0.7,0.6
	c-0.5,0.4-1.1,0.9-1.5,1.3c-0.3,0.2-0.5,0.5-0.9,0.8c-0.4,0.4-0.9,0.8-1.4,1.2c-0.3,0.2-0.5,0.5-0.9,0.8c-0.3,0.3-0.7,0.7-1,1
	c0.1-0.2,0.1-0.5,0.2-0.8c0.1-0.6,0.2-1.1,0.4-1.6c0.1-0.3,0.1-0.5,0.2-0.9c0.2-0.7,0.3-1.4,0.5-2.1c0-0.1,0-0.1,0.1-0.2
	c0.2-0.8,0.4-1.4,0.7-2.1c0.3-1,0.7-2,1-2.9c0,0,0-0.1,0.1-0.1c0.3-0.9,0.7-1.8,1.1-2.6c0.1-0.3,0.2-0.5,0.4-0.9
	c0.2-0.6,0.5-1.2,0.8-1.8c0.1-0.3,0.3-0.7,0.4-1c0.2-0.6,0.5-1.1,0.9-1.6c0.1-0.3,0.3-0.7,0.4-0.9c0.3-0.7,0.7-1.3,1.1-1.9
	c0.1-0.2,0.2-0.4,0.3-0.7c0.5-0.9,1-1.8,1.5-2.5c0.1-0.2,0.2-0.3,0.3-0.5c0.4-0.8,1-1.5,1.5-2.2c0.1-0.2,0.3-0.4,0.4-0.7
	c0.7-1,1.4-2,2.1-2.9c0.2-0.3,0.4-0.5,0.7-0.9c0.2-0.3,0.6-0.7,0.8-1c0.2-0.3,0.5-0.7,0.8-0.9c0.3-0.3,0.5-0.7,0.9-1
	c0.2-0.2,0.3-0.4,0.5-0.7c0.7-0.7,1.2-1.3,1.9-2c0.1-0.1,0.2-0.3,0.4-0.4c0.8-0.8,1.4-1.5,2.2-2.2c0.2-0.2,0.3-0.3,0.5-0.5
	c0.7-0.5,1.2-1.2,1.9-1.8c0.1-0.1,0.3-0.3,0.4-0.4c0.8-0.7,1.5-1.3,2.3-2c0.2-0.1,0.3-0.3,0.5-0.4c0.7-0.5,1.3-1.1,1.9-1.5
	c0.2-0.1,0.3-0.3,0.5-0.4c0.8-0.7,1.5-1.2,2.3-1.8c0.1-0.1,0.3-0.2,0.4-0.3c0.7-0.4,1.3-1,2-1.4c0.2-0.1,0.4-0.3,0.6-0.4
	c0.8-0.5,1.5-1.1,2.3-1.5c0.1-0.1,0.2-0.1,0.2-0.2c0.7-0.4,1.4-0.9,2.1-1.3c0.2-0.1,0.4-0.2,0.7-0.3c0.8-0.4,1.5-1,2.3-1.4
	c0.7-0.3,1.3-0.8,2-1.1c0,0,0.1,0,0.1-0.1c0.7-0.3,1.2-0.7,1.9-1c0.1,0,0.1-0.1,0.2-0.1c0.7-0.3,1.2-0.7,1.9-0.9
	c0.1,0,0.1-0.1,0.2-0.1c0.7-0.3,1.2-0.5,1.9-0.8c0.1,0,0.2-0.1,0.3-0.1c0.4-0.2,1-0.3,1.4-0.6h0.1c0.4-0.2,0.9-0.3,1.3-0.4
	c0.1,0,0.2-0.1,0.3-0.1c0.4-0.1,1-0.3,1.4-0.4c0.1,0,0.2,0,0.2-0.1c0.4-0.1,0.9-0.2,1.3-0.3c0.1,0,0.1,0,0.2,0
	c0.7-0.2,1.3-0.3,2-0.4c0,0,0,0,0.1,0c0.7-0.1,1.4-0.3,2.1-0.3c0,0,0,0,0.1,0c0.4-0.1,0.9-0.1,1.3-0.2c0.1,0,0.2,0,0.3,0
	c0.4,0,0.9-0.1,1.3-0.1c0.1,0,0.2,0,0.3,0c0.2,0,0.5,0,0.8,0c0.1,0,0.2,0,0.3,0c0.2,0,0.6,0,0.8,0c0.1,0,0.2,0,0.3,0
	c0.2,0,0.4,0,0.7,0c0.1,0,0.2,0,0.3,0c0.2,0,0.5,0.1,0.8,0.1h0.1c0.1,0,0.2,0,0.3,0.1c0.2,0,0.3,0.1,0.5,0.1c0.1,0,0.2,0.1,0.3,0.1
	c0.1,0,0.3,0.1,0.4,0.1c0.4,0.1,0.9,0.3,1.3,0.4c0.1,0,0.1,0,0.2,0.1c0.3,0.1,0.5,0.2,0.9,0.4c0.2,0.1,0.6,0.2,0.8,0.4l-22-12.7
	c-0.1-0.1-0.2-0.1-0.3-0.2c-0.1-0.1-0.3-0.1-0.4-0.2c-0.3-0.1-0.6-0.3-0.9-0.4c0,0,0,0-0.1,0h-0.1c-0.4-0.2-0.9-0.3-1.3-0.4
	c-0.1,0-0.3-0.1-0.4-0.1c-0.1,0-0.2-0.1-0.3-0.1c-0.2,0-0.3-0.1-0.5-0.1c-0.1,0-0.2,0-0.3-0.1h-0.1c-0.2,0-0.5-0.1-0.8-0.1
	c-0.1,0-0.2,0-0.3,0c-0.2,0-0.4,0-0.7,0h-0.1c-0.1,0-0.1,0-0.2,0c-0.2,0-0.6,0-0.8,0c-0.1,0-0.2,0-0.3,0c-0.2,0-0.5,0-0.8,0
	c-0.1,0-0.1,0-0.2,0c0,0,0,0-0.1,0c-0.4,0-0.9,0-1.3,0.1c-0.1,0-0.2,0-0.3,0c-0.4,0-0.9,0.1-1.3,0.2c-0.7,0.1-1.3,0.2-2.1,0.3
	c0,0,0,0-0.1,0c-0.7,0.1-1.3,0.3-2,0.4h-0.1c-0.4,0.1-0.9,0.2-1.3,0.3c-0.1,0-0.2,0-0.2,0.1c-0.4,0.1-1,0.3-1.4,0.4
	c-0.1,0-0.2,0.1-0.3,0.1c-0.4,0.1-0.9,0.3-1.3,0.4h-0.1c-0.4,0.2-1,0.3-1.4,0.5c0,0-0.1,0-0.1,0.1h-0.1c-0.7,0.2-1.3,0.6-1.9,0.8
	c-0.1,0-0.1,0.1-0.2,0.1c-0.7,0.3-1.3,0.5-1.9,0.9c-0.1,0-0.1,0.1-0.2,0.1c-0.7,0.3-1.3,0.7-1.9,1c0,0-0.1,0-0.1,0.1
	c-0.7,0.3-1.3,0.8-2,1.1c-0.8,0.4-1.5,0.9-2.3,1.4c-0.2,0.1-0.4,0.2-0.7,0.3c-0.7,0.4-1.4,0.9-2.1,1.3c-0.1,0.1-0.2,0.1-0.2,0.2
	c-0.8,0.5-1.5,1.1-2.3,1.5c-0.2,0.1-0.4,0.3-0.5,0.4c-0.7,0.4-1.3,1-2,1.4c-0.1,0.1-0.3,0.2-0.4,0.3c-0.8,0.5-1.5,1.2-2.3,1.8
	c-0.2,0.1-0.3,0.3-0.5,0.4c-0.7,0.5-1.3,1.1-1.9,1.5c-0.2,0.1-0.3,0.3-0.5,0.4c-0.8,0.7-1.5,1.3-2.3,2c-0.1,0.1-0.3,0.3-0.4,0.4
	c-0.7,0.5-1.2,1.2-1.9,1.8c-0.1,0.1-0.2,0.2-0.3,0.3s-0.1,0.1-0.2,0.2c-0.8,0.8-1.4,1.5-2.2,2.2c-0.1,0.1-0.2,0.3-0.4,0.4
	c-0.7,0.7-1.2,1.3-1.9,2c-0.1,0.1-0.2,0.2-0.3,0.3c-0.1,0.1-0.2,0.2-0.2,0.3c-0.3,0.3-0.6,0.7-0.9,1c-0.2,0.3-0.5,0.7-0.8,0.9
	c-0.2,0.3-0.5,0.7-0.8,1c-0.2,0.2-0.3,0.4-0.5,0.7c0,0.1-0.1,0.1-0.1,0.2c-0.8,1-1.4,1.9-2.1,2.9c-0.1,0.1-0.1,0.1-0.2,0.2
	c-0.1,0.1-0.2,0.2-0.2,0.4c-0.6,0.8-1,1.4-1.5,2.2c-0.1,0.1-0.2,0.2-0.2,0.4l-0.1,0.1c-0.5,0.9-1.1,1.6-1.5,2.5c0,0,0,0.1-0.1,0.1
	c-0.1,0.2-0.2,0.3-0.3,0.5c-0.3,0.7-0.7,1.2-1.1,1.9c-0.1,0.1-0.1,0.2-0.2,0.3c-0.1,0.2-0.2,0.3-0.3,0.5c-0.3,0.5-0.5,1.1-0.9,1.6
	c-0.1,0.2-0.2,0.3-0.3,0.5c-0.1,0.1-0.1,0.3-0.2,0.4c-0.3,0.5-0.6,1.2-0.8,1.8c-0.1,0.2-0.2,0.4-0.3,0.7c0,0.1-0.1,0.1-0.1,0.2
	c-0.3,0.9-0.8,1.8-1.1,2.6v0.1c-0.3,1-0.7,1.9-1,2.9c0,0.1-0.1,0.2-0.1,0.3c-0.2,0.7-0.4,1.2-0.5,1.9c0,0.1,0,0.1-0.1,0.2
	c-0.1,0.5-0.3,1-0.4,1.5c0,0.1-0.1,0.3-0.1,0.4c-0.1,0.3-0.1,0.5-0.2,0.9c-0.1,0.5-0.2,1.1-0.4,1.6c-0.1,0.3-0.1,0.5-0.2,0.9
	c0,0.1-0.1,0.3-0.1,0.4c-0.1,0.4-0.1,0.8-0.2,1.2c0,0.2-0.1,0.5-0.1,0.8c-0.1,0.9-0.3,1.6-0.4,2.5v0.1c0,0.1,0,0.2,0,0.2
	c0,0.1,0,0.2,0,0.2c0,0.1,0,0.2,0,0.3s0,0.1,0,0.2s0,0.2,0,0.2c0,0.1,0,0.1,0,0.2s0,0.1,0,0.2c0,0.1,0,0.1,0,0.2
	c0,0.1,0,0.1,0.1,0.2c0,0,0,0.1,0.1,0.1c0,0.1,0.1,0.1,0.1,0.2c0,0,0,0.1,0.1,0.1c0,0.1,0.1,0.1,0.1,0.1s0,0,0.1,0.1
	c0.1,0.1,0.1,0.1,0.2,0.2l16.9,9.8c-0.5,0.5-1,1.1-1.5,1.6c-0.1,0.1-0.1,0.1-0.2,0.2l-0.1,0.1c-0.4,0.5-1,1.1-1.4,1.6
	c-0.1,0.1-0.2,0.2-0.2,0.3c-0.3,0.4-0.8,1-1.1,1.4c-0.1,0.1-0.1,0.2-0.2,0.2l-0.1,0.1c-0.8,1-1.5,2.1-2.3,3.1c-0.7,1-1.3,2-2,3
	c0,0,0,0,0,0.1c-0.5,0.9-1.2,1.9-1.6,2.7c-0.5,0.9-1,1.8-1.4,2.5c0,0.1-0.1,0.1-0.1,0.2v0.1c-0.4,0.8-0.9,1.6-1.2,2.4
	c0,0.1-0.1,0.1-0.1,0.2c0,0.1-0.1,0.1-0.1,0.2c-0.3,0.8-0.8,1.6-1.1,2.4c0,0.1-0.1,0.1-0.1,0.2s-0.1,0.1-0.1,0.2
	c-0.3,0.9-0.8,1.8-1.1,2.5c0,0,0,0,0,0.1s0,0.1-0.1,0.2c-0.3,1-0.7,1.9-1,2.9c-0.1,0.2-0.1,0.4-0.2,0.5c-0.1,0.3-0.2,0.7-0.3,1.1
	c-0.1,0.2-0.1,0.4-0.2,0.7c-0.1,0.3-0.2,0.7-0.3,1c0,0.1-0.1,0.2-0.1,0.3c-0.1,0.4-0.2,1-0.3,1.4c0,0.2-0.1,0.4-0.1,0.7
	c-0.1,0.4-0.2,0.8-0.3,1.2c0,0.1,0,0.2-0.1,0.3c0,0.1,0,0.2-0.1,0.3c-0.1,0.7-0.3,1.3-0.4,2.1c0,0.1,0,0.2,0,0.2
	c-0.1,0.8-0.2,1.5-0.3,2.3c0,0.1,0,0.2,0,0.2c0,0.1,0,0.3,0,0.4c0,0.3-0.1,0.8-0.1,1.1c0,0.2,0,0.5-0.1,0.8c0,0.4-0.1,0.8-0.1,1.2
	c0,0.2,0,0.4,0,0.8c0,0.4,0,0.9-0.1,1.3c0,0.2,0,0.4,0,0.7c0,0.7,0,1.2,0,1.9c0,5.2,0.7,9.3,1.8,12.7
	C183.8,144.6,184.2,145.5,184.6,146.3z"/>
<path class="st4" d="M326.8,112.5c1.3,1.2,0,10.5-2.2,18c-2.2,7.4-5.4,13.6-7.1,16.4c-0.7,1-1.3,1.6-1.8,2c-0.8,0.4-1.1-0.2-0.4-2.2
	c1-3.1,6.5-21.9,4.3-23.8c-1.1-1-4.1,0.3-7.4,2.2c-3.4,2-7,4.6-8.9,5.9c-2.1,1.4-3.2,2.3-3.8,2.6c-0.5,0.3-0.8,0.3-0.9,0
	c-0.7-1.9,7.4-10.3,12.7-14.2c1.5-1.1,3.3-2.2,5.1-3.3C320.9,113.4,325.6,111.4,326.8,112.5z M309.2,133.8
	c-21.3,23.9-39.9,39.1-56,48.4c-31.4,18.1-53.9,14.7-70.3,12.7c-0.3,0-0.8,0.1-1.2,0.3c-1.3,0.8-2.4,2.7-0.7,4.1
	c8.3,6.8,35.6,18.9,71.1-1.5c35.5-20.4,56.6-54.9,59.2-60.3c2.1-4.3,1.3-5.8-0.4-4.8C310.2,132.8,309.8,133.2,309.2,133.8z"/>
<path class="st4" d="M262.8,63.8v-3c0-5.5,0.3-12.2-2.5-15.3c-2.4-2.9-7.1-1.9-11.3,0.5c-7.7,4.4-14.5,12.9-16.1,23.2
	c-0.3,2.3-1.6,5.1-3.5,6.3l-19.3,8.8c-1.6,0.5-3.4,0-3-3.1c4.4-29.7,25.7-50.2,44.8-61.2c9.8-5.6,22.5-10,30.3-5.9
	c9.8,4.8,8.9,19.3,8.9,34.6l0.1,35.9c0,10.8,4,13.3,7.6,17c1.3,1.3,1.6,3.6,0,6.2c-4.1,6.3-11.3,17.8-15.4,24.2
	c-0.8,1.2-1.8,2.1-2.7,2.6c-0.8,0.4-1.4,0.7-2.1,0.7c-6.7-2.5-7.9-4.7-11.5-8.7c-11,19.2-18.8,27.7-33.1,35.9
	c-16.9,9.8-30.1,5.4-30.1-18.6c0-18.7,8.8-36.6,21.3-50.1C236,81.8,251.1,72.1,262.8,63.8z M259.2,114c4-10.2,3.7-17.7,3.7-26.6
	v-4.9c-14.5,8.3-29.9,20.8-29.8,40.4c0,10,4.5,14.1,12.2,9.7C250.9,129.2,256,122.3,259.2,114z"/>
<path class="st1" d="M60.7,81.4L30.9,29.8c-0.8-1.4-2.7-1.4-3.5,0L2.1,74.2c-1.5,2.5-1.5,5.5,0,8.1l29.2,50.5c1.5,2.5,4.1,4,7,4
	l58.1-0.2c2.8,0,5.4-1.6,6.9-4l25.4-44.4c0.8-1.4-0.2-3-1.7-3l-59.2,0.2C64.8,85.4,62.1,83.8,60.7,81.4z"/>
<path class="st2" d="M126.8,85.2l-59.2,0.2c-2.9,0-5.5-1.6-7-4L30.9,29.8c-0.8-1.4,0.2-3,1.7-3l59.2-0.2c2.9,0,5.5,1.6,7,4
	l29.8,51.6C129.4,83.5,128.4,85.2,126.8,85.2z"/>
<path class="st3" d="M128,89.1c1.5-2.5,1.5-5.5,0-8.1L98.8,30.6c-1.5-2.5-4.1-4-7-4l-58.1,0.2c-2.8,0-5.4,1.6-6.9,4L2.1,74.2
	c-1.5,2.5-1.5,5.5,0,8.1"/>
<path class="st4" d="M52.1,26.8l33.8,58.5h23.8L75.8,26.7L52.1,26.8z"/>
<path class="st5" d="M58,26.8h-5.8l2.9,5"/>
<path class="st6" d="M60.6,41.5l19.6,34"/>
<path class="st5" d="M83,80.3l2.9,4.9h5.8"/>
<path class="st5" d="M103.9,85.3h5.8l-2.9-5"/>
<path class="st6" d="M101.1,70.5l-19.6-34"/>
<path class="st5" d="M78.7,31.7l-2.9-5H70"/>
<path class="st1" d="M484.6,144.1c-0.2-0.3-0.4-0.5-0.5-0.8c0-0.1-0.1-0.1-0.1-0.2c-0.2-0.3-0.4-0.5-0.5-0.7c0-0.1-0.1-0.1-0.1-0.2
	c-0.2-0.3-0.4-0.5-0.6-0.8c-0.1-0.1-0.1-0.1-0.2-0.2c-0.2-0.3-0.4-0.5-0.5-0.6l-0.1-0.1c-0.3-0.3-0.5-0.5-0.7-0.7
	c-0.1-0.1-0.1-0.1-0.2-0.2c-0.2-0.2-0.5-0.4-0.6-0.5l-0.1-0.1c-0.3-0.2-0.5-0.5-0.8-0.6c-0.1-0.1-0.1-0.1-0.2-0.2
	c-0.2-0.2-0.5-0.4-0.6-0.5c-0.1-0.1-0.2-0.1-0.3-0.2c-0.3-0.2-0.6-0.4-0.9-0.5c0,0,0,0-0.1,0c-0.3-0.2-0.6-0.4-0.9-0.5
	c-0.1-0.1-0.2-0.1-0.3-0.2c-0.2-0.1-0.5-0.3-0.6-0.4c-0.2-0.1-0.3-0.2-0.5-0.2c-0.2-0.1-0.5-0.2-0.6-0.3c-0.2-0.1-0.3-0.1-0.5-0.2
	c-0.3-0.1-0.5-0.2-0.7-0.3c-0.2-0.1-0.3-0.1-0.5-0.2c-0.3-0.1-0.5-0.2-0.8-0.3c-0.1,0-0.3-0.1-0.4-0.1c-0.4-0.1-0.7-0.3-1.1-0.4
	c-0.1,0-0.3-0.1-0.4-0.1c-0.2-0.1-0.5-0.1-0.6-0.2c-0.2,0-0.3-0.1-0.5-0.1c-0.2-0.1-0.5-0.1-0.6-0.2c-0.2,0-0.3-0.1-0.5-0.1
	c-0.3-0.1-0.5-0.1-0.7-0.2c-0.1,0-0.3-0.1-0.4-0.1c-0.3-0.1-0.5-0.1-0.8-0.2c-0.1,0-0.2,0-0.3-0.1c-0.4-0.1-0.7-0.1-1.1-0.2
	c-0.1,0-0.2,0-0.2,0c-0.3,0-0.6-0.1-0.9-0.1c-0.5-0.1-0.9-0.1-1.4-0.1c-0.1,0-0.1,0-0.2,0c-0.5,0-0.8-0.1-1.3-0.1
	c-0.2,0-0.4,0-0.5,0c-0.4,0-0.6,0-1,0c-0.2,0-0.4,0-0.5,0c-0.4,0-0.6,0-1,0c-0.2,0-0.4,0-0.5,0c-0.5,0-0.8,0-1.3,0
	c-0.1,0-0.2,0-0.3,0c-0.5,0-1,0.1-1.5,0.1c-0.2,0-0.3,0-0.5,0c-0.4,0-0.7,0.1-1.1,0.1c-0.2,0-0.4,0-0.5,0.1c-0.4,0-0.7,0.1-1,0.1
	c-0.2,0-0.4,0-0.5,0.1c-0.7,0.1-1.4,0.2-2.1,0.3c-0.1,0-0.3,0-0.4,0.1c-0.7,0.1-1.5,0.3-2.2,0.4c-0.7,0.2-1.5,0.3-2.2,0.5
	c-0.1,0-0.3,0.1-0.4,0.1c-0.7,0.2-1.5,0.4-2.2,0.5c-0.2,0.1-0.4,0.1-0.6,0.2c-0.3,0.1-0.5,0.2-0.8,0.3c-0.3,0.1-0.5,0.1-0.7,0.2
	c-0.3,0.1-0.5,0.2-0.8,0.3c-0.3,0.1-0.5,0.2-0.7,0.2c-0.3,0.1-0.5,0.2-0.8,0.3c-0.3,0.1-0.5,0.2-0.7,0.3c-0.3,0.1-0.5,0.2-0.8,0.3
	c-0.2,0.1-0.4,0.2-0.6,0.2c-0.7,0.3-1.5,0.5-2.3,0.8c-0.2,0.1-0.3,0.1-0.5,0.2c-0.8,0.3-1.5,0.6-2.4,0.9c-0.3,0.1-0.6,0.3-0.9,0.5
	c-0.2,0.1-0.3,0.1-0.5,0.2c-0.5,0.2-1,0.5-1.5,0.6c-0.7,0.4-1.5,0.7-2.2,1.1c-0.4,0.2-0.7,0.4-1,0.5c-0.5,0.2-0.8,0.5-1.3,0.6
	c-0.4,0.2-0.7,0.4-1,0.5c-0.4,0.2-0.8,0.5-1.2,0.6c-0.4,0.2-0.7,0.4-1,0.6c-0.4,0.2-0.7,0.5-1.1,0.6c-0.4,0.2-0.6,0.5-1,0.6
	c-0.4,0.3-0.7,0.5-1.1,0.7c-0.4,0.3-0.8,0.5-1.2,0.8c-0.3,0.2-0.6,0.5-0.9,0.6c-0.4,0.3-0.7,0.5-1.2,0.8c-0.3,0.2-0.5,0.5-0.9,0.6
	c-0.7,0.5-1.4,1.1-2.1,1.6c-0.1,0-0.1,0.1-0.2,0.1c-0.6,0.5-1.3,1-1.8,1.5c-0.5,0.5-1,0.9-1.5,1.3c-0.1,0.1-0.2,0.2-0.3,0.3
	c-0.5,0.4-0.8,0.7-1.2,1.2c-0.2,0.2-0.3,0.3-0.5,0.5c-0.4,0.4-0.8,0.8-1.2,1.2c-0.1,0.1-0.2,0.2-0.2,0.2c-0.3,0.3-0.5,0.6-0.8,0.9
	c-0.2,0.2-0.5,0.5-0.6,0.6c-0.3,0.4-0.5,0.6-0.8,1c-0.2,0.2-0.4,0.5-0.5,0.6c-0.3,0.4-0.5,0.7-0.8,1.1c-0.2,0.2-0.3,0.4-0.5,0.5
	c-0.5,0.5-0.8,1.1-1.2,1.6c-0.2,0.3-0.4,0.5-0.5,0.8c-0.1,0.1-0.1,0.2-0.2,0.3c-0.1,0.2-0.3,0.4-0.4,0.5c-0.1,0.1-0.1,0.2-0.2,0.3
	c-0.1,0.2-0.2,0.4-0.3,0.5s-0.2,0.3-0.2,0.4c-0.1,0.2-0.2,0.3-0.3,0.5c-0.1,0.1-0.1,0.3-0.2,0.4c-0.1,0.2-0.2,0.3-0.3,0.5
	c-0.1,0.1-0.1,0.3-0.2,0.4c-0.1,0.2-0.2,0.3-0.3,0.5c-0.1,0.1-0.1,0.3-0.2,0.4c-0.1,0.2-0.2,0.3-0.2,0.5c-0.1,0.1-0.1,0.3-0.2,0.4
	c-0.1,0.2-0.2,0.3-0.2,0.5c-0.1,0.1-0.1,0.3-0.2,0.4c-0.1,0.2-0.1,0.3-0.2,0.5c-0.1,0.1-0.1,0.3-0.2,0.4c-0.1,0.2-0.1,0.3-0.2,0.5
	c-0.1,0.1-0.1,0.3-0.2,0.4c-0.1,0.2-0.1,0.3-0.2,0.5c0,0.1-0.1,0.3-0.1,0.4c-0.1,0.2-0.1,0.3-0.2,0.5c0,0.1-0.1,0.2-0.1,0.4
	c-0.1,0.2-0.1,0.4-0.2,0.5c0,0.1-0.1,0.2-0.1,0.3c-0.1,0.2-0.1,0.4-0.2,0.5c0,0.1-0.1,0.2-0.1,0.3c-0.1,0.3-0.1,0.5-0.2,0.7
	c-0.1,0.3-0.1,0.5-0.2,0.8c0,0.1,0,0.2-0.1,0.3c0,0.2-0.1,0.4-0.1,0.5c0,0.1,0,0.2-0.1,0.3c0,0.2-0.1,0.3-0.1,0.5c0,0.1,0,0.2,0,0.4
	c0,0.2,0,0.3-0.1,0.5c0,0.1,0,0.2,0,0.4s0,0.3,0,0.5c0,0.1,0,0.2,0,0.4c0,0.2,0,0.3,0,0.5c0,0.1,0,0.3,0,0.4c0,0.2,0,0.3,0,0.5
	c0,0.1,0,0.3,0,0.4c0,0.2,0,0.3,0,0.5c0,0.1,0,0.2,0,0.4s0,0.3,0,0.5c0,0.1,0,0.2,0,0.4c0,0.2,0,0.3,0.1,0.5c0,0.1,0,0.2,0,0.4
	c0,0.2,0,0.3,0.1,0.5c0,0.1,0,0.2,0.1,0.4c0,0.2,0.1,0.3,0.1,0.5c0,0.1,0,0.2,0.1,0.3c0,0.2,0.1,0.3,0.1,0.5c0,0.1,0.1,0.2,0.1,0.3
	c0,0.2,0.1,0.3,0.1,0.5c0,0.1,0,0.2,0.1,0.3c0.1,0.2,0.2,0.5,0.2,0.6c0,0,0,0,0,0.1c0.1,0.2,0.1,0.3,0.2,0.5c0,0.1,0.1,0.2,0.1,0.3
	c0.1,0.3,0.2,0.5,0.3,0.7c-0.3-0.5-0.5-1.2-0.8-1.8l-0.4-0.7c-0.4-0.7-0.7-1.5-1-2.2l-0.5-1.1c-0.1-0.3-0.3-0.5-0.4-0.8l-0.5-1.2
	c-0.4-0.8-0.7-1.6-1.2-2.5l-0.4-0.8c-0.2-0.4-0.4-0.7-0.5-1.1l-1.5-2.9c-0.1-0.3-0.3-0.5-0.4-0.7l-0.8-1.8c-0.1-0.3-0.2-0.5-0.3-0.7
	v-0.1c-0.1-0.2-0.2-0.4-0.3-0.6c-0.1-0.2-0.2-0.5-0.2-0.6c0-0.1,0-0.2-0.1-0.3c-0.1-0.2-0.1-0.3-0.1-0.5c0-0.1-0.1-0.2-0.1-0.3
	c0-0.2-0.1-0.3-0.1-0.5c0-0.1,0-0.2-0.1-0.3c0-0.2-0.1-0.3-0.1-0.5c0-0.1,0-0.2-0.1-0.4c0-0.2,0-0.3-0.1-0.5c0-0.1,0-0.2,0-0.4
	s0-0.3-0.1-0.5c0-0.1,0-0.2,0-0.4c0-0.2,0-0.3,0-0.5c0-0.1,0-0.2,0-0.4c0-0.2,0-0.3,0-0.5c0-0.1,0-0.2,0-0.4c0-0.2,0-0.3,0-0.5
	c0-0.1,0-0.3,0-0.4c0-0.2,0-0.3,0-0.5c0-0.1,0-0.2,0-0.4c0-0.2,0-0.3,0-0.5c0-0.1,0-0.2,0-0.4c0-0.2,0-0.3,0.1-0.5
	c0-0.1,0-0.2,0-0.4c0-0.2,0.1-0.3,0.1-0.5c0-0.1,0-0.2,0.1-0.3c0-0.2,0.1-0.4,0.1-0.5c0-0.1,0-0.2,0.1-0.3c0.1-0.3,0.1-0.5,0.2-0.8
	c0.1-0.3,0.1-0.5,0.2-0.7c0-0.1,0.1-0.2,0.1-0.3c0.1-0.2,0.1-0.4,0.2-0.5c0-0.1,0.1-0.2,0.1-0.3c0.1-0.2,0.1-0.4,0.2-0.5
	c0-0.1,0.1-0.2,0.1-0.4c0.1-0.2,0.1-0.3,0.2-0.5c0-0.1,0.1-0.3,0.1-0.4c0.1-0.2,0.1-0.3,0.2-0.5c0.1-0.1,0.1-0.3,0.2-0.4
	c0.1-0.2,0.1-0.3,0.2-0.5c0.1-0.1,0.1-0.3,0.2-0.4c0.1-0.2,0.1-0.3,0.2-0.5c0.1-0.1,0.1-0.3,0.2-0.4c0.1-0.2,0.2-0.3,0.2-0.5
	c0.1-0.1,0.1-0.3,0.2-0.4c0.1-0.2,0.2-0.3,0.2-0.5c0.1-0.1,0.1-0.3,0.2-0.4c0.1-0.2,0.2-0.3,0.3-0.5c0.1-0.1,0.1-0.3,0.2-0.4
	c0.1-0.2,0.2-0.3,0.3-0.5c0.1-0.1,0.1-0.3,0.2-0.4c0.1-0.2,0.2-0.3,0.3-0.5c0.1-0.1,0.1-0.3,0.2-0.4c0.1-0.2,0.2-0.4,0.3-0.5
	c0.1-0.1,0.1-0.2,0.2-0.3c0.1-0.2,0.3-0.4,0.4-0.5c0.1-0.1,0.1-0.2,0.2-0.3c0.2-0.3,0.4-0.5,0.5-0.8c0.4-0.5,0.8-1.1,1.2-1.6
	c0.2-0.2,0.3-0.4,0.5-0.5c0.3-0.4,0.5-0.7,0.8-1.1c0.2-0.2,0.4-0.5,0.5-0.6c0.3-0.4,0.5-0.6,0.8-1c0.2-0.2,0.5-0.5,0.6-0.6
	c0.3-0.3,0.5-0.5,0.8-0.8c0,0,0-0.1,0.1-0.1c0.1-0.1,0.2-0.2,0.2-0.2c0.4-0.4,0.8-0.8,1.2-1.2c0.2-0.2,0.3-0.3,0.5-0.5
	c0.4-0.4,0.8-0.7,1.2-1.2c0.1-0.1,0.2-0.2,0.3-0.3c0.5-0.4,0.9-0.8,1.4-1.2c0.1,0,0.1-0.1,0.2-0.1c0.6-0.5,1.2-1,1.8-1.5
	c0.1,0,0.1-0.1,0.2-0.1c0.6-0.5,1.4-1.1,2.1-1.6l0.1-0.1c0.3-0.2,0.5-0.4,0.7-0.5c0.4-0.3,0.7-0.5,1.2-0.8c0.3-0.2,0.6-0.5,0.9-0.6
	c0.4-0.3,0.7-0.5,1.2-0.8c0.1-0.1,0.2-0.1,0.3-0.2c0.3-0.2,0.5-0.4,0.8-0.5c0.4-0.2,0.6-0.5,1-0.6c0.4-0.3,0.7-0.5,1.1-0.6
	c0.4-0.2,0.7-0.5,1-0.6c0.1,0,0.2-0.1,0.2-0.1c0.3-0.2,0.6-0.4,1-0.5c0.4-0.2,0.7-0.4,1-0.5c0.4-0.2,0.8-0.5,1.3-0.6
	c0.4-0.2,0.7-0.4,1-0.5c0.1,0,0.1-0.1,0.2-0.1c0.6-0.4,1.4-0.6,2-1c0.5-0.2,1-0.5,1.5-0.6c0.2-0.1,0.3-0.2,0.5-0.2
	c0.3-0.1,0.5-0.3,0.9-0.4h0.1c0.8-0.4,1.5-0.6,2.4-0.9c0.2-0.1,0.3-0.1,0.5-0.2c0.7-0.3,1.5-0.5,2.3-0.8c0.1,0,0.1,0,0.2-0.1
	c0.2-0.1,0.3-0.1,0.5-0.2c0.3-0.1,0.5-0.2,0.8-0.3c0.3-0.1,0.5-0.2,0.7-0.3c0.3-0.1,0.5-0.2,0.8-0.3c0.3-0.1,0.5-0.2,0.7-0.2
	c0.3-0.1,0.5-0.2,0.8-0.3c0.3-0.1,0.5-0.1,0.7-0.2c0.3-0.1,0.5-0.2,0.8-0.3c0.2,0,0.3-0.1,0.5-0.1c0.1,0,0.1,0,0.2,0
	c0.7-0.2,1.5-0.4,2.2-0.5c0.1,0,0.3-0.1,0.4-0.1c0.7-0.2,1.5-0.4,2.2-0.5c0.7-0.2,1.5-0.3,2.2-0.4c0.1,0,0.3,0,0.4-0.1
	c0.7-0.1,1.4-0.2,2.1-0.3c0.1,0,0.1,0,0.2,0s0.2,0,0.4,0c0.4,0,0.7-0.1,1-0.1c0.2,0,0.4,0,0.5-0.1c0.4,0,0.7-0.1,1.1-0.1
	c0.2,0,0.3,0,0.5,0c0.5,0,1-0.1,1.5-0.1c0.1,0,0.2,0,0.3,0c0.5,0,0.8,0,1.3,0c0.2,0,0.4,0,0.5,0c0.4,0,0.6,0,1,0c0.2,0,0.4,0,0.5,0
	c0.4,0,0.6,0,1,0c0.2,0,0.4,0,0.5,0c0.5,0,0.8,0,1.3,0.1c0.1,0,0.1,0,0.2,0c0.5,0,0.9,0.1,1.4,0.1h0.1c0.3,0,0.5,0.1,0.8,0.1
	c0.1,0,0.2,0,0.2,0c0.4,0.1,0.7,0.1,1.1,0.2c0.1,0,0.2,0,0.3,0.1c0.3,0,0.5,0.1,0.8,0.2c0.1,0,0.3,0.1,0.4,0.1
	c0.3,0,0.5,0.1,0.7,0.2c0.2,0,0.3,0.1,0.5,0.1c0.2,0.1,0.5,0.1,0.6,0.2c0.2,0,0.3,0.1,0.5,0.1c0.2,0.1,0.5,0.1,0.6,0.2
	c0.1,0,0.2,0.1,0.3,0.1h0.1c0.4,0.1,0.7,0.2,1.1,0.4c0,0,0,0,0.1,0s0.3,0.1,0.4,0.1c0.3,0.1,0.5,0.2,0.8,0.3
	c0.2,0.1,0.3,0.1,0.5,0.2c0.3,0.1,0.5,0.2,0.7,0.3c0.2,0.1,0.3,0.1,0.5,0.2c0.2,0.1,0.5,0.2,0.6,0.3c0.2,0.1,0.3,0.2,0.5,0.2
	c0.1,0.1,0.2,0.1,0.3,0.2c0.1,0.1,0.3,0.1,0.4,0.2c0.1,0.1,0.2,0.1,0.3,0.2c0.3,0.2,0.6,0.4,0.9,0.5c0,0,0,0,0.1,0
	c0.3,0.2,0.6,0.4,0.9,0.5c0.1,0.1,0.2,0.1,0.3,0.2c0.1,0.1,0.3,0.2,0.4,0.3c0.1,0.1,0.2,0.2,0.3,0.3c0.1,0.1,0.2,0.1,0.2,0.2
	c0.3,0.2,0.5,0.5,0.8,0.6c0.1,0,0.1,0.1,0.1,0.1c0.2,0.2,0.5,0.4,0.6,0.5c0.1,0.1,0.1,0.1,0.2,0.2c0.1,0,0.1,0.1,0.2,0.1
	c0.2,0.2,0.4,0.4,0.5,0.5l0.1,0.1c0.2,0.2,0.4,0.5,0.5,0.6c0.1,0.1,0.1,0.1,0.2,0.2c0.2,0.3,0.4,0.5,0.5,0.7c0,0,0,0.1,0.1,0.1
	c0,0.1,0.1,0.1,0.1,0.2c0.2,0.3,0.4,0.5,0.5,0.7c0,0.1,0.1,0.1,0.1,0.2c0.2,0.3,0.4,0.5,0.5,0.8c0,0.1,0.1,0.1,0.1,0.2
	c0.1,0.1,0.1,0.3,0.2,0.4c0.1,0.2,0.2,0.4,0.3,0.5l7.9,16.9c-0.2-0.3-0.3-0.6-0.5-0.9C484.7,144.1,484.6,144.1,484.6,144.1z"/>
<path class="st1" d="M373.2,177.6c0.1,0.3,0.3,0.5,0.5,0.8c0,0,0,0.1,0.1,0.1c0.1,0.2,0.3,0.5,0.4,0.6c0.1,0.1,0.1,0.2,0.2,0.3
	c0.1,0.2,0.2,0.4,0.3,0.5c0.1,0.1,0.1,0.2,0.2,0.3c0.1,0.2,0.2,0.3,0.3,0.5c0.1,0.1,0.2,0.2,0.2,0.3c0.1,0.2,0.2,0.3,0.3,0.5
	c0.1,0.1,0.2,0.2,0.3,0.3c0.1,0.1,0.2,0.3,0.4,0.4c0.1,0.1,0.2,0.2,0.3,0.3s0.3,0.3,0.4,0.4c0.1,0.1,0.2,0.2,0.3,0.3
	c0.1,0.2,0.3,0.3,0.4,0.4c0.1,0.1,0.2,0.2,0.3,0.3c0.2,0.2,0.5,0.5,0.6,0.6c0.3,0.2,0.5,0.5,0.7,0.6c0.1,0.1,0.2,0.1,0.3,0.2
	c0.2,0.1,0.4,0.3,0.5,0.4c0.1,0.1,0.2,0.2,0.3,0.2c0.2,0.1,0.3,0.3,0.5,0.4c0.1,0.1,0.2,0.2,0.3,0.2c0.2,0.2,0.4,0.3,0.6,0.5
	c0.1,0.1,0.2,0.1,0.3,0.2c0.3,0.2,0.5,0.4,0.9,0.5l0.1,0.1c0.3,0.2,0.5,0.3,0.8,0.5c0.1,0.1,0.2,0.1,0.3,0.2
	c0.2,0.1,0.5,0.3,0.6,0.4c0.1,0.1,0.2,0.1,0.3,0.2c0.4,0.2,0.7,0.4,1.1,0.5c0.1,0,0.1,0.1,0.2,0.1c0.4,0.2,0.7,0.3,1,0.5
	c0.1,0,0.2,0.1,0.3,0.1c0.4,0.2,0.8,0.3,1.2,0.5c0.1,0,0.2,0.1,0.3,0.1c0.4,0.1,0.7,0.3,1.1,0.4c0.1,0,0.2,0.1,0.2,0.1
	c0.5,0.1,0.8,0.3,1.3,0.4c0.1,0,0.2,0.1,0.3,0.1c0.4,0.1,0.8,0.2,1.2,0.4c0.1,0,0.1,0,0.2,0c0.5,0.1,0.9,0.2,1.4,0.3
	c0.1,0,0.2,0,0.4,0.1c0.5,0.1,0.9,0.2,1.4,0.3c0.5,0.1,1.1,0.2,1.6,0.3c0.1,0,0.3,0,0.4,0.1c0.5,0.1,1.1,0.2,1.6,0.2
	c0.1,0,0.2,0,0.4,0c0.4,0,0.7,0.1,1,0.1c0.2,0,0.4,0,0.5,0c0.3,0,0.6,0.1,0.9,0.1c0.2,0,0.4,0,0.5,0c0.4,0,0.6,0,1,0.1
	c0.2,0,0.3,0,0.5,0c0.5,0,0.9,0,1.5,0c0.8,0,1.6,0,2.5,0c0.3,0,0.5,0,0.8,0c0.5,0,1.1,0,1.6-0.1c0.4,0,0.6,0,1-0.1
	c0.5,0,1-0.1,1.5-0.1c0.4,0,0.7-0.1,1.1-0.1c0.5-0.1,1-0.1,1.5-0.2c0.4,0,0.7-0.1,1.1-0.2c0.5-0.1,1.2-0.2,1.7-0.3
	c0.4-0.1,0.7-0.1,1-0.2c0.6-0.1,1.3-0.2,1.8-0.4c0.3-0.1,0.6-0.1,0.9-0.2c0.8-0.2,1.6-0.4,2.5-0.5c0.1,0,0.2-0.1,0.4-0.1
	c0.9-0.2,1.9-0.5,2.8-0.7c0.7-0.2,1.5-0.4,2.3-0.6c0.2,0,0.3-0.1,0.5-0.2c0.6-0.2,1.3-0.4,1.9-0.5c0.3-0.1,0.5-0.2,0.7-0.3
	c0.6-0.2,1.2-0.4,1.8-0.6c0.2-0.1,0.5-0.2,0.6-0.2c0.7-0.3,1.5-0.5,2.3-0.8c0.2-0.1,0.4-0.1,0.5-0.2c0.7-0.3,1.5-0.5,2.2-0.8
	c0.1,0,0.2-0.1,0.2-0.1c0.7-0.3,1.5-0.6,2.3-1c0.2-0.1,0.4-0.2,0.5-0.3c0.8-0.4,1.5-0.7,2.4-1.1c0.9-0.5,1.8-0.9,2.7-1.4
	c0.5-0.2,0.9-0.5,1.4-0.6c0.5-0.3,1-0.5,1.5-0.8c0.5-0.3,0.9-0.5,1.3-0.7c0.5-0.3,1-0.5,1.5-0.8c0.5-0.3,0.9-0.5,1.3-0.7
	c0.5-0.3,0.9-0.5,1.4-0.8c0.5-0.3,0.8-0.5,1.3-0.8c0.5-0.3,0.9-0.5,1.4-0.8c0.5-0.4,1-0.6,1.5-1c0.4-0.3,0.8-0.5,1.2-0.8
	c0.5-0.4,1-0.7,1.5-1c0.4-0.3,0.7-0.5,1.1-0.8c0.1-0.1,0.2-0.2,0.4-0.3c0.7-0.5,1.4-1.1,2.1-1.6l0.1-0.1c0.7-0.5,1.4-1.1,2-1.6
	c0.1-0.1,0.3-0.2,0.4-0.3c0.6-0.5,1.3-1.2,1.9-1.7c0.1-0.1,0.2-0.2,0.4-0.3c0.5-0.5,1-1,1.5-1.5c0.2-0.2,0.4-0.4,0.5-0.5
	c0.5-0.5,1-1,1.5-1.5c0.1-0.1,0.2-0.2,0.3-0.3c0.4-0.4,0.7-0.7,1.1-1.2c0.3-0.3,0.5-0.5,0.8-0.8c0.4-0.4,0.7-0.8,1-1.2
	c0.2-0.3,0.5-0.5,0.7-0.8c0.4-0.5,0.7-0.9,1.1-1.4c0.2-0.2,0.4-0.5,0.5-0.6c0.5-0.6,1-1.4,1.5-2c7.7-11,10.3-22.4,6-31.7l7.9,16.9
	c4.3,9.4,1.6,20.7-6,31.7c-0.5,0.6-1,1.4-1.5,2c-0.2,0.2-0.4,0.5-0.5,0.6c-0.4,0.5-0.7,0.9-1.1,1.4c-0.2,0.3-0.5,0.5-0.6,0.8
	c-0.4,0.4-0.6,0.8-1,1.2c-0.3,0.3-0.5,0.5-0.8,0.8c-0.4,0.4-0.6,0.7-1,1.1l-0.1,0.1c-0.1,0.1-0.2,0.2-0.3,0.3c-0.5,0.5-1,1-1.5,1.5
	c-0.2,0.2-0.4,0.4-0.5,0.5c-0.5,0.5-1,1-1.5,1.5c-0.1,0.1-0.2,0.2-0.4,0.3c-0.5,0.5-1.1,1-1.6,1.5c-0.1,0.1-0.2,0.2-0.3,0.3
	s-0.3,0.2-0.4,0.3c-0.6,0.5-1.4,1.1-2,1.6l-0.1,0.1c-0.6,0.5-1.4,1.1-2.1,1.6c-0.1,0.1-0.2,0.2-0.4,0.3c-0.1,0.1-0.2,0.1-0.2,0.2
	c-0.3,0.2-0.6,0.5-0.9,0.6c-0.5,0.4-0.9,0.7-1.5,1c-0.4,0.3-0.7,0.5-1.2,0.8c-0.5,0.4-1,0.6-1.5,1c-0.1,0.1-0.2,0.1-0.3,0.2
	c-0.4,0.2-0.7,0.5-1.1,0.6c-0.5,0.3-0.8,0.5-1.3,0.8c-0.5,0.3-0.9,0.5-1.4,0.8c-0.5,0.3-0.9,0.5-1.3,0.7c-0.1,0.1-0.2,0.1-0.3,0.2
	c-0.4,0.2-0.8,0.5-1.2,0.6c-0.5,0.3-0.8,0.5-1.3,0.7c-0.5,0.3-1,0.5-1.5,0.8c-0.5,0.2-0.9,0.5-1.4,0.6c-0.1,0-0.2,0.1-0.2,0.1
	c-0.8,0.5-1.7,0.8-2.5,1.2c-0.8,0.4-1.5,0.7-2.4,1.1c-0.2,0.1-0.4,0.2-0.5,0.3s-0.4,0.2-0.5,0.3c-0.5,0.3-1.2,0.5-1.7,0.7
	c-0.1,0-0.2,0.1-0.2,0.1c-0.7,0.3-1.5,0.5-2.2,0.8c-0.2,0.1-0.4,0.1-0.5,0.2c-0.6,0.3-1.4,0.5-2,0.7c-0.1,0-0.2,0.1-0.3,0.1
	c-0.2,0.1-0.5,0.2-0.6,0.2c-0.6,0.2-1.2,0.4-1.8,0.6c-0.3,0.1-0.5,0.2-0.7,0.3c-0.6,0.2-1.3,0.4-1.9,0.5c-0.2,0.1-0.3,0.1-0.5,0.2
	c-0.7,0.2-1.4,0.4-2.1,0.5c-0.1,0-0.1,0-0.2,0c-0.9,0.3-1.9,0.5-2.8,0.7c-0.1,0-0.2,0.1-0.4,0.1c-0.8,0.2-1.6,0.4-2.5,0.5
	c-0.3,0.1-0.6,0.1-0.9,0.2c-0.6,0.1-1.3,0.3-1.8,0.4c-0.4,0.1-0.7,0.1-1,0.2c-0.5,0.1-1.2,0.2-1.7,0.3c-0.2,0-0.4,0.1-0.6,0.1
	c-0.2,0-0.3,0-0.5,0.1c-0.5,0.1-1,0.1-1.5,0.2c-0.4,0-0.7,0.1-1.1,0.1c-0.5,0.1-1,0.1-1.5,0.1c-0.4,0-0.6,0.1-1,0.1
	c-0.5,0-1.1,0.1-1.6,0.1c-0.3,0-0.5,0-0.8,0c-0.8,0-1.6,0-2.5,0c-0.5,0-0.9,0-1.5,0c-0.2,0-0.3,0-0.5,0c-0.4,0-0.6,0-1-0.1
	c-0.2,0-0.4,0-0.5,0c-0.3,0-0.6,0-0.9-0.1c-0.2,0-0.4,0-0.5,0c-0.4,0-0.7-0.1-1-0.1c-0.1,0-0.2,0-0.3,0c0,0,0,0-0.1,0
	c-0.5-0.1-1.1-0.1-1.6-0.2c-0.1,0-0.3,0-0.4-0.1c-0.5-0.1-1.1-0.2-1.6-0.3c-0.5-0.1-0.9-0.2-1.4-0.3c-0.1,0-0.2,0-0.4-0.1
	c-0.2-0.1-0.5-0.1-0.6-0.2l5.3,11.2l-9.7-0.9l-6.9-14.8c-0.2-0.1-0.5-0.3-0.6-0.4c-0.1-0.1-0.2-0.1-0.3-0.2
	c-0.2-0.2-0.5-0.3-0.6-0.5c-0.1,0-0.1-0.1-0.2-0.1c-0.1,0-0.1-0.1-0.2-0.1c-0.2-0.1-0.4-0.3-0.5-0.4c-0.1-0.1-0.2-0.2-0.3-0.2
	c-0.2-0.1-0.4-0.3-0.5-0.4c-0.1-0.1-0.2-0.1-0.3-0.2c-0.3-0.2-0.5-0.4-0.7-0.6c-0.2-0.2-0.5-0.4-0.6-0.6c0,0,0,0-0.1-0.1
	c-0.1-0.1-0.1-0.1-0.2-0.2c-0.1-0.1-0.3-0.3-0.4-0.4c-0.1-0.1-0.2-0.2-0.3-0.3c-0.1-0.1-0.3-0.3-0.4-0.4s-0.2-0.2-0.3-0.3
	c-0.1-0.1-0.2-0.3-0.4-0.4c-0.1-0.1-0.2-0.2-0.3-0.3c-0.1-0.1-0.2-0.3-0.3-0.5c-0.1-0.1-0.1-0.1-0.2-0.2l-0.1-0.1
	c-0.1-0.2-0.2-0.3-0.3-0.5c-0.1-0.1-0.1-0.2-0.2-0.3c-0.1-0.2-0.2-0.4-0.3-0.5c-0.1-0.1-0.1-0.2-0.2-0.3c-0.1-0.2-0.3-0.5-0.4-0.6
	c0,0,0-0.1-0.1-0.1c-0.2-0.3-0.3-0.5-0.5-0.8c-0.1-0.3-0.2-0.5-0.4-0.7l-7.9-16.9C373,177.1,373.1,177.4,373.2,177.6z"/>
<path class="st4" d="M372.9,176.9c-4.3-9.4-1.6-20.7,6-31.7c7.7-11,20.4-21.5,36.5-29c32.1-15,64.9-12,73.5,6.6
	c4.3,9.4,1.6,20.7-6,31.7c-7.7,11-20.4,21.5-36.5,29c-14.1,6.5-28.3,9.7-40.6,9.5c-3.4,0-6.6-0.4-9.7-0.9
	C385.1,190.2,376.6,185.1,372.9,176.9z M443.2,176.8c12.8-6,23-14.4,29.2-23.2c6.2-8.8,8.3-18,4.8-25.3
	c-6.8-14.9-33.2-17.3-58.8-5.3c-12.8,6-23,14.4-29.2,23.2s-8.3,18-4.8,25.3C391.3,186.4,417.6,188.8,443.2,176.8z"/>
<path class="st1" d="M398.9,202.8l8,16.9l6.8-9.7l-7.9-17L398.9,202.8z"/>
<path class="st4" d="M389.2,202l9.7,0.9l6.8-9.8c-3.4,0-6.6-0.4-9.7-0.9L389.2,202z"/>
<path class="st1" d="M345.1,259.3c0,0.1,0.1,0.2,0.2,0.3c0,0.1,0.1,0.1,0.1,0.2s0.1,0.1,0.1,0.2s0.1,0.1,0.1,0.2
	c0,0.1,0.1,0.1,0.2,0.2c0,0.1,0.1,0.1,0.1,0.2c0.1,0.1,0.1,0.1,0.2,0.2c0,0.1,0.1,0.1,0.1,0.2c0.1,0.1,0.1,0.1,0.2,0.2
	s0.1,0.1,0.2,0.2c0.1,0.1,0.1,0.1,0.2,0.2c0.1,0.1,0.1,0.1,0.2,0.2c0.1,0,0.1,0.1,0.2,0.1c0.1,0.1,0.2,0.1,0.3,0.2
	c0.1,0,0.1,0.1,0.2,0.1c0.1,0.1,0.2,0.1,0.3,0.2c0.1,0,0.1,0.1,0.2,0.1c0.2,0.1,0.3,0.2,0.5,0.2c0,0,0.1,0,0.1,0.1
	c0.2,0.1,0.4,0.2,0.5,0.2c0.1,0,0.2,0,0.2,0.1c0.1,0,0.2,0.1,0.4,0.1c0.1,0,0.2,0,0.3,0.1c0.1,0,0.2,0.1,0.4,0.1
	c0.1,0,0.2,0,0.3,0.1c0.1,0,0.2,0,0.4,0.1c0.1,0,0.2,0,0.3,0s0.3,0,0.4,0c0.1,0,0.2,0,0.3,0c0.3,0,0.5,0.1,0.8,0.1
	c0.1,0,0.1,0,0.2,0c0.3,0,0.5,0,0.7,0c0.1,0,0.1,0,0.2,0c0.3,0,0.5,0,0.9,0c0.1,0,0.1,0,0.2,0c0.3,0,0.5-0.1,0.8-0.1h0.1
	c0.5-0.1,0.9-0.1,1.4-0.2c0.5-0.1,0.9-0.2,1.5-0.4c0.1,0,0.1,0,0.2,0c0.2-0.1,0.5-0.1,0.6-0.2c0.1,0,0.2-0.1,0.3-0.1
	c0.2-0.1,0.4-0.1,0.6-0.2c0.1,0,0.2-0.1,0.2-0.1c0.5-0.2,0.9-0.4,1.4-0.5h0.1c0.3-0.1,0.5-0.2,0.7-0.4c0.4-0.2,0.7-0.4,1-0.5
	c0.2-0.1,0.5-0.2,0.6-0.4c0.3-0.1,0.5-0.3,0.7-0.4c0.2-0.1,0.5-0.3,0.6-0.4c0.2-0.1,0.5-0.3,0.6-0.5c0.2-0.2,0.5-0.3,0.6-0.5
	c0.3-0.3,0.6-0.5,0.9-0.7c0,0,0,0,0.1-0.1c0.3-0.3,0.6-0.5,0.9-0.7c0.1-0.1,0.2-0.2,0.3-0.3c0.3-0.3,0.6-0.5,0.9-0.9
	c0.2-0.2,0.4-0.5,0.6-0.6c0.1-0.1,0.2-0.3,0.3-0.4c0.3-0.4,0.5-0.7,0.8-1.1l30.7-47.6c0.5-0.8,0.7-1.5,0.5-2.1l7.9,16.9
	c0.3,0.5,0.2,1.3-0.5,2.1l-30.7,47.6c-0.3,0.4-0.5,0.7-0.8,1.1c-0.1,0.1-0.2,0.3-0.3,0.4c-0.2,0.2-0.4,0.5-0.6,0.6
	c-0.3,0.3-0.5,0.5-0.9,0.8c-0.1,0.1-0.2,0.2-0.3,0.3c-0.1,0.1-0.2,0.2-0.4,0.3c-0.2,0.2-0.4,0.3-0.5,0.5c0,0,0,0-0.1,0.1
	c-0.2,0.2-0.5,0.4-0.7,0.5c-0.1,0.1-0.2,0.1-0.3,0.2c-0.2,0.2-0.5,0.3-0.6,0.5c-0.1,0.1-0.3,0.2-0.4,0.3c-0.1,0.1-0.2,0.1-0.3,0.2
	c-0.2,0.1-0.4,0.3-0.6,0.4c-0.2,0.1-0.3,0.2-0.4,0.3c-0.1,0.1-0.2,0.1-0.3,0.2c-0.2,0.1-0.5,0.3-0.6,0.4c-0.2,0.1-0.3,0.2-0.5,0.2
	c-0.2,0.1-0.4,0.2-0.6,0.3c-0.3,0.1-0.5,0.2-0.7,0.4c0,0,0,0-0.1,0c-0.5,0.2-0.9,0.4-1.4,0.5c0,0,0,0-0.1,0c-0.1,0-0.1,0-0.2,0.1
	c-0.2,0.1-0.4,0.1-0.6,0.2c-0.1,0-0.2,0.1-0.3,0.1c-0.2,0.1-0.5,0.1-0.6,0.2h-0.1c-0.5,0.1-0.9,0.3-1.5,0.4
	c-0.5,0.1-0.9,0.2-1.4,0.2h-0.1c-0.3,0-0.5,0.1-0.8,0.1c-0.1,0-0.1,0-0.2,0c-0.3,0-0.5,0-0.9,0c-0.1,0-0.1,0-0.2,0
	c-0.3,0-0.5,0-0.7,0c-0.1,0-0.1,0-0.2,0c-0.3,0-0.5,0-0.8-0.1h-0.1c-0.1,0-0.1,0-0.2,0c-0.1,0-0.3,0-0.4,0s-0.2,0-0.3,0
	s-0.2,0-0.4-0.1c-0.1,0-0.2,0-0.3-0.1c-0.1,0-0.2-0.1-0.4-0.1c-0.1,0-0.2,0-0.3-0.1c-0.1,0-0.2-0.1-0.4-0.1c-0.1,0-0.1,0-0.2-0.1
	c-0.2-0.1-0.4-0.1-0.5-0.2c0,0-0.1,0-0.1-0.1c-0.2-0.1-0.3-0.1-0.5-0.2h-0.1c0,0-0.1,0-0.1-0.1c-0.1-0.1-0.2-0.1-0.3-0.2
	c-0.1,0-0.1-0.1-0.2-0.1c-0.1-0.1-0.2-0.1-0.3-0.2l-0.1-0.1c-0.1-0.1-0.1-0.1-0.2-0.2c-0.1-0.1-0.1-0.1-0.2-0.2
	c-0.1-0.1-0.1-0.1-0.2-0.2l-0.1-0.1c-0.1-0.1-0.1-0.1-0.1-0.2c-0.1-0.1-0.1-0.1-0.2-0.2c0-0.1-0.1-0.1-0.1-0.2l-0.1-0.1
	c0,0,0,0,0-0.1c0-0.1-0.1-0.1-0.1-0.2s-0.1-0.1-0.1-0.2s-0.1-0.1-0.1-0.2l-0.1-0.1c0-0.1-0.1-0.1-0.1-0.2L345.1,259.3z"/>
<path class="st2" d="M346.3,252.4c-1.7,2.5-2.1,5.2-1.3,7c2,4.3,10.1,5.8,17.4,2.4c3.9-1.8,7.1-4.9,9.1-7.7l30.9-47.7
	c1.1-1.6-0.1-3.2-2.1-3.4l-12.7-1.2c-2-0.2-4.3,0.9-5.5,2.5l-35.5,47.3C346.5,252,346.4,252.2,346.3,252.4z"/>
<path class="st2" d="M400.4,203l-12.7-1.2c-2-0.2-4.3,0.9-5.5,2.5l-35.5,47.3c-0.2,0.2-0.3,0.4-0.5,0.5c-1.7,2.5-2.1,5.2-1.3,7"/>
<path class="st3" d="M400.4,203l-12.7-1.2c-2-0.2-4.3,0.9-5.5,2.5l-35.5,47.3c-0.2,0.2-0.3,0.4-0.5,0.5c-1.7,2.5-2.1,5.2-1.3,7"/>
<path class="st1" d="M88.3,233.7c-0.1,0.1-0.2,0.1-0.3,0.2c-0.1,0-0.2,0.1-0.3,0.1c-0.1,0-0.2,0.1-0.3,0.1s-0.2,0.1-0.3,0.1
	s-0.2,0.1-0.3,0.1s-0.2,0.1-0.3,0.1c-0.1,0-0.2,0.1-0.4,0.1c-0.1,0-0.2,0-0.3,0.1c-0.1,0-0.3,0-0.4,0s-0.2,0-0.3,0s-0.3,0-0.4,0
	c-0.1,0-0.3,0-0.4,0h-0.1c-0.2,0-0.4,0-0.6,0h-0.1c-0.2,0-0.4,0-0.7-0.1h-0.1c-0.2,0-0.4-0.1-0.6-0.1c-0.1,0-0.1,0-0.2,0
	c-0.2-0.1-0.5-0.1-0.7-0.2h-0.1c-0.2-0.1-0.4-0.1-0.5-0.2c-0.1,0-0.3-0.1-0.4-0.1s-0.3-0.1-0.4-0.1c-0.1-0.1-0.3-0.1-0.4-0.2
	c-0.1-0.1-0.3-0.1-0.4-0.2c-0.1-0.1-0.3-0.1-0.4-0.2c-0.1-0.1-0.3-0.1-0.4-0.2c-0.2-0.1-0.3-0.2-0.5-0.2c-0.2-0.1-0.4-0.2-0.6-0.3
	c-0.4-0.2-0.7-0.4-1.1-0.7c-0.1-0.1-0.2-0.1-0.3-0.2c-0.3-0.2-0.5-0.4-0.8-0.6c-0.1-0.1-0.2-0.1-0.3-0.2c-0.3-0.3-0.7-0.5-1-0.8
	c-0.1,0-0.1-0.1-0.2-0.1c-0.3-0.2-0.6-0.5-0.8-0.7c-0.1-0.1-0.2-0.2-0.3-0.3c-0.1-0.1-0.3-0.3-0.4-0.4c-0.1-0.1-0.2-0.2-0.4-0.4
	c-0.1-0.1-0.3-0.3-0.4-0.4c-0.1-0.1-0.2-0.2-0.4-0.4c-0.1-0.1-0.3-0.3-0.4-0.5c-0.1-0.1-0.2-0.3-0.3-0.4c-0.1-0.2-0.3-0.3-0.4-0.5
	c-0.1-0.1-0.2-0.2-0.3-0.4c-0.3-0.3-0.6-0.7-0.9-1.1c0,0-0.1-0.1-0.1-0.2c-0.2-0.3-0.5-0.6-0.7-1c-0.1-0.1-0.2-0.2-0.3-0.4
	c-0.1-0.2-0.3-0.4-0.4-0.6c-0.1-0.1-0.2-0.3-0.3-0.4c-0.1-0.2-0.3-0.4-0.4-0.7c-0.1-0.1-0.2-0.3-0.2-0.4c-0.1-0.2-0.2-0.4-0.4-0.6
	c-0.1-0.1-0.2-0.3-0.2-0.4c-0.1-0.2-0.2-0.4-0.4-0.6c-0.1-0.1-0.1-0.3-0.2-0.4c-0.1-0.2-0.2-0.4-0.3-0.6c-0.1-0.1-0.1-0.3-0.2-0.4
	c-0.1-0.2-0.2-0.4-0.3-0.7c-0.1-0.1-0.1-0.2-0.2-0.4c-0.1-0.3-0.2-0.5-0.4-0.8c0-0.1-0.1-0.2-0.1-0.2c-0.2-0.4-0.3-0.7-0.4-1.1
	c0-0.1,0-0.1-0.1-0.2c-0.1-0.3-0.2-0.6-0.4-0.9c0-0.1-0.1-0.3-0.1-0.4c-0.1-0.2-0.2-0.5-0.2-0.7c0-0.1-0.1-0.2-0.1-0.4
	c-0.1-0.3-0.2-0.5-0.2-0.8c0-0.1-0.1-0.3-0.1-0.4c-0.1-0.2-0.1-0.5-0.2-0.7c0-0.1-0.1-0.3-0.1-0.4c-0.1-0.4-0.2-0.8-0.3-1.1
	c0-0.1,0-0.1,0-0.2c-0.1-0.4-0.2-0.9-0.2-1.3c0-0.2-0.1-0.4-0.1-0.5c0-0.1,0-0.3-0.1-0.4c0-0.2,0-0.4-0.1-0.6c0-0.1,0-0.3,0-0.4
	c0-0.2,0-0.4,0-0.7c0-0.1,0-0.2,0-0.3c0-0.3,0-0.7,0-1c0-5.2,1.8-8.9,4.9-10.7l-11.8,6.8c-3,1.7-4.9,5.4-4.9,10.7c0,0.3,0,0.6,0,1
	c0,0.1,0,0.2,0,0.3c0,0.2,0,0.4,0,0.7c0,0.1,0,0.3,0,0.4c0,0.2,0,0.4,0.1,0.6c0,0.1,0,0.3,0.1,0.4c0,0.1,0,0.3,0.1,0.4v0.1
	c0.1,0.4,0.1,0.9,0.2,1.3c0,0.1,0,0.1,0,0.2c0.1,0.4,0.2,0.8,0.3,1.1c0,0.1,0,0.1,0,0.2c0,0.1,0,0.1,0.1,0.2
	c0.1,0.2,0.1,0.5,0.2,0.7c0,0.1,0.1,0.3,0.1,0.4c0.1,0.3,0.2,0.5,0.2,0.8c0,0.1,0.1,0.2,0.1,0.3v0.1c0.1,0.2,0.2,0.5,0.2,0.7
	c0,0.1,0.1,0.3,0.1,0.4c0.1,0.3,0.2,0.6,0.4,0.9c0,0.1,0,0.1,0.1,0.2c0.1,0.4,0.3,0.7,0.4,1.1c0,0.1,0.1,0.2,0.1,0.2
	c0.1,0.3,0.2,0.5,0.4,0.8c0.1,0.1,0.1,0.2,0.2,0.4c0.1,0.2,0.2,0.4,0.3,0.7c0.1,0.1,0.1,0.3,0.2,0.4c0.1,0.2,0.2,0.4,0.3,0.6
	c0.1,0.1,0.1,0.2,0.2,0.3c0.1,0.2,0.2,0.4,0.4,0.6c0.1,0.1,0.2,0.3,0.2,0.4c0.1,0.2,0.2,0.4,0.4,0.6c0,0,0,0.1,0.1,0.1
	c0.1,0.1,0.1,0.2,0.2,0.3c0.1,0.2,0.3,0.5,0.4,0.7c0.1,0.1,0.2,0.3,0.3,0.4c0.1,0.2,0.3,0.4,0.4,0.6c0.1,0.1,0.1,0.1,0.2,0.2
	c0,0.1,0.1,0.1,0.1,0.1c0.2,0.3,0.5,0.6,0.7,1c0,0.1,0.1,0.1,0.1,0.2c0.3,0.4,0.6,0.7,0.9,1.1l0.1,0.1c0.1,0.1,0.2,0.2,0.2,0.3
	c0.1,0.2,0.3,0.3,0.4,0.5c0.1,0.1,0.2,0.3,0.3,0.4c0.1,0.2,0.3,0.3,0.4,0.5c0.1,0.1,0.2,0.2,0.4,0.4c0.1,0.1,0.3,0.3,0.4,0.4
	c0.1,0.1,0.2,0.2,0.4,0.4c0.1,0.1,0.3,0.3,0.4,0.4c0.1,0.1,0.1,0.1,0.2,0.2l0.1,0.1c0.3,0.2,0.6,0.5,0.8,0.7c0.1,0,0.1,0.1,0.2,0.1
	c0.3,0.3,0.7,0.5,1,0.8c0.1,0.1,0.2,0.1,0.3,0.2c0.3,0.2,0.5,0.4,0.8,0.6c0.1,0.1,0.2,0.1,0.3,0.2c0.4,0.2,0.7,0.4,1.1,0.7
	c0.1,0.1,0.2,0.1,0.3,0.2c0.1,0.1,0.2,0.1,0.3,0.1c0.2,0.1,0.3,0.2,0.5,0.2c0.1,0.1,0.3,0.1,0.4,0.2c0.1,0.1,0.3,0.1,0.4,0.2
	c0.1,0.1,0.3,0.1,0.4,0.2c0.1,0.1,0.3,0.1,0.4,0.2c0.1,0.1,0.3,0.1,0.4,0.1c0.1,0.1,0.3,0.1,0.4,0.1s0.1,0,0.2,0.1
	c0.1,0,0.2,0.1,0.4,0.1h0.1c0.2,0.1,0.5,0.1,0.7,0.2c0.1,0,0.1,0,0.2,0c0.2,0,0.4,0.1,0.6,0.1h0.1c0,0,0,0,0.1,0
	c0.2,0,0.4,0.1,0.6,0.1h0.1c0.2,0,0.4,0,0.6,0h0.1c0.1,0,0.2,0,0.2,0c0.1,0,0.1,0,0.2,0s0.3,0,0.4,0c0.1,0,0.2,0,0.3,0s0.3,0,0.4,0
	s0.1,0,0.2,0s0.1,0,0.2,0s0.2,0,0.4-0.1c0.1,0,0.2,0,0.3-0.1c0.1,0,0.2-0.1,0.3-0.1s0.1,0,0.2-0.1h0.1c0.1,0,0.2-0.1,0.3-0.1
	s0.2-0.1,0.3-0.1s0.2-0.1,0.3-0.2c0.1,0,0.1-0.1,0.2-0.1s0.1-0.1,0.2-0.1l11.8-6.8C88.5,233.6,88.4,233.6,88.3,233.7z"/>
<path class="st3" d="M64.3,194.5c3-2.8,7.7-3,12.9,0c9,5.1,16.3,17.8,16.3,28.2c0,6.1-2.5,10.1-6.4,11.3"/>
<path class="st2" d="M27.1,187c1.5-1.7,1.5-4.5-0.5-7.4c-3.2-4.9-10.6-8.6-16.4-8.2c-3.4,0.2-5.5,1.7-6.1,4l-1.3,3.8l5.6,8.5
	l6.7,3.9l7.1-1.2l3.6-1.5L27.1,187z"/>
<path class="st1" d="M27.6,186.3c0,0.1-0.1,0.1-0.1,0.2l-0.1,0.1c0,0.1-0.1,0.1-0.1,0.2l-0.1,0.1c0,0.1-0.1,0.1-0.1,0.2l-0.1,0.1
	l-0.1,0.1l-0.1,0.1c-0.1,0-0.1,0.1-0.2,0.1l-0.1,0.1c-0.1,0-0.1,0.1-0.2,0.1s-0.1,0.1-0.2,0.1c-0.1,0.1-0.2,0.1-0.3,0.2
	c0,0,0,0-0.1,0c-0.1,0.1-0.2,0.1-0.3,0.2c0,0,0,0-0.1,0c-0.1,0-0.2,0.1-0.3,0.1H25c-0.1,0-0.3,0.1-0.4,0.1c0,0,0,0-0.1,0
	s-0.2,0.1-0.3,0.1s-0.2,0-0.2,0.1c-0.1,0-0.2,0-0.2,0.1c-0.1,0-0.2,0-0.3,0.1c-0.1,0-0.2,0-0.2,0c-0.1,0-0.2,0-0.3,0s-0.2,0-0.3,0
	s-0.2,0-0.3,0s-0.2,0-0.4,0s-0.5,0-0.7,0c-0.1,0-0.1,0-0.2,0c-0.2,0-0.4,0-0.5,0c-0.1,0-0.1,0-0.2,0c-0.2,0-0.5,0-0.7-0.1h-0.1
	c-0.2,0-0.4,0-0.6-0.1c-0.1,0-0.2,0-0.3,0s-0.2,0-0.3-0.1c-0.1,0-0.2,0-0.3-0.1c-0.1,0-0.2,0-0.3-0.1c-0.1,0-0.2,0-0.3-0.1
	c-0.1,0-0.2-0.1-0.3-0.1s-0.2,0-0.3-0.1c-0.1,0-0.2-0.1-0.3-0.1s-0.2-0.1-0.3-0.1c-0.2-0.1-0.5-0.2-0.7-0.2h-0.1
	c-0.2-0.1-0.4-0.2-0.6-0.2c-0.1,0-0.2-0.1-0.2-0.1c-0.1-0.1-0.3-0.1-0.4-0.2c-0.1,0-0.2-0.1-0.3-0.1c-0.1-0.1-0.3-0.1-0.4-0.2
	c-0.1,0-0.2-0.1-0.2-0.1c-0.1-0.1-0.2-0.1-0.4-0.2c-0.1,0-0.2-0.1-0.2-0.1c-0.1-0.1-0.2-0.1-0.4-0.2c-0.1,0-0.1-0.1-0.2-0.1
	c-0.1-0.1-0.2-0.1-0.3-0.2c-0.1,0-0.2-0.1-0.2-0.1c-0.1-0.1-0.2-0.1-0.4-0.2c-0.1,0-0.1-0.1-0.2-0.1c-0.1-0.1-0.3-0.2-0.4-0.3
	l-0.1-0.1c-0.2-0.1-0.4-0.2-0.5-0.4c0,0-0.1,0-0.1-0.1c-0.2-0.1-0.3-0.2-0.5-0.3c-0.1,0-0.1-0.1-0.2-0.1c-0.1-0.1-0.2-0.2-0.3-0.3
	c-0.1,0-0.1-0.1-0.2-0.1c-0.1-0.1-0.2-0.2-0.4-0.3c-0.1-0.1-0.1-0.1-0.2-0.2c-0.1-0.1-0.2-0.2-0.3-0.3c-0.1-0.1-0.1-0.1-0.2-0.2
	c-0.2-0.2-0.3-0.3-0.5-0.5l-0.1-0.1c-0.2-0.2-0.3-0.4-0.5-0.6c-0.1-0.1-0.1-0.2-0.2-0.2c-0.1-0.1-0.1-0.1-0.2-0.2
	c-0.1-0.1-0.1-0.2-0.2-0.3c0-0.1-0.1-0.1-0.1-0.2c-0.1-0.1-0.2-0.2-0.2-0.3l-0.1-0.1c-0.1-0.2-0.2-0.3-0.3-0.5
	c-1.6-2.5-1.8-4.8-1-6.5L1,181.2c-0.9,1.7-0.6,4.1,1,6.5c0.1,0.2,0.2,0.3,0.3,0.5l0.1,0.1c0.1,0.1,0.1,0.2,0.2,0.3
	c0,0.1,0.1,0.1,0.1,0.2c0.1,0.1,0.1,0.2,0.2,0.3c0.1,0.1,0.1,0.1,0.2,0.2c0.1,0.1,0.1,0.1,0.2,0.2c0,0,0,0,0,0.1
	c0.2,0.2,0.3,0.4,0.5,0.6l0.1,0.1c0.2,0.2,0.3,0.3,0.5,0.5l0.1,0.1l0.1,0.1c0.1,0.1,0.2,0.2,0.3,0.3c0.1,0.1,0.1,0.1,0.2,0.2
	c0.1,0.1,0.2,0.2,0.4,0.3l0.1,0.1c0.1,0.1,0.2,0.2,0.3,0.3c0.1,0,0.1,0.1,0.2,0.1c0.1,0.1,0.3,0.2,0.5,0.3c0,0,0.1,0,0.1,0.1
	c0.2,0.1,0.4,0.2,0.5,0.4l0.1,0.1c0.1,0.1,0.3,0.2,0.4,0.3c0.1,0,0.1,0.1,0.2,0.1c0.1,0.1,0.2,0.1,0.4,0.2c0.1,0,0.2,0.1,0.2,0.1
	c0.1,0.1,0.2,0.1,0.3,0.2c0.1,0,0.1,0.1,0.2,0.1c0.1,0.1,0.2,0.1,0.4,0.2c0.1,0,0.2,0.1,0.2,0.1c0.1,0.1,0.2,0.1,0.4,0.2
	c0,0,0,0,0.1,0s0.1,0,0.2,0.1c0.1,0.1,0.3,0.1,0.4,0.2c0.1,0,0.2,0.1,0.3,0.1c0.1,0.1,0.3,0.1,0.4,0.2c0,0,0.1,0,0.1,0.1h0.1
	c0.2,0.1,0.4,0.2,0.6,0.2H12c0.2,0.1,0.5,0.2,0.7,0.2c0,0,0,0,0.1,0c0.1,0,0.1,0,0.2,0.1c0.1,0,0.2,0.1,0.3,0.1s0.2,0,0.3,0.1
	c0.1,0,0.2,0.1,0.3,0.1s0.2,0,0.3,0.1c0.1,0,0.2,0,0.3,0.1c0.1,0,0.2,0,0.3,0.1c0.1,0,0.2,0,0.3,0.1h0.1h0.1c0.2,0,0.4,0.1,0.6,0.1
	h0.1c0.2,0,0.5,0,0.7,0.1c0.1,0,0.1,0,0.2,0c0.2,0,0.4,0,0.5,0s0.1,0,0.2,0c0.2,0,0.5,0,0.7,0c0.1,0,0.1,0,0.2,0s0.1,0,0.2,0
	s0.2,0,0.3,0s0.2,0,0.3,0c0.1,0,0.2,0,0.3,0s0.2,0,0.2,0c0.1,0,0.2,0,0.3-0.1c0.1,0,0.2,0,0.2-0.1c0.1,0,0.2,0,0.2-0.1h0.1
	c0.1,0,0.1,0,0.2-0.1c0,0,0,0,0.1,0s0.3-0.1,0.4-0.1h0.1c0.1,0,0.2-0.1,0.3-0.1c0,0,0,0,0.1,0s0.2-0.1,0.3-0.2c0,0,0,0,0.1,0
	c0.1-0.1,0.2-0.1,0.3-0.2c0,0,0.1,0,0.1-0.1c0,0,0.1,0,0.1-0.1c0.1,0,0.1-0.1,0.2-0.1l0.1-0.1c0.1,0,0.1-0.1,0.2-0.1
	c0,0,0.1,0,0.1-0.1c0,0,0,0,0.1-0.1l0.1-0.1l0.1-0.1c0-0.1,0.1-0.1,0.1-0.2c0,0,0-0.1,0.1-0.1c0,0,0,0,0-0.1c0-0.1,0.1-0.1,0.1-0.2
	l0.1-0.1c0-0.1,0.1-0.1,0.1-0.2c0,0,0-0.1,0.1-0.1c0,0,0-0.1,0.1-0.1l3.5-6.9C27.6,186.3,27.6,186.3,27.6,186.3z"/>
<path class="st3" d="M4.1,175.4c0.6-2.2,2.7-3.8,6.1-4c5.8-0.4,13.2,3.4,16.4,8.2c1.8,2.9,1.9,5.5,0.5,7.4"/>
<path class="st1" d="M344.6,28.9c0.1,0.1,0.1,0.1,0.2,0.2c0.1,0,0.1,0.1,0.2,0.1c0.1,0.1,0.1,0.1,0.2,0.2c0.1,0,0.1,0.1,0.2,0.1
	c0.1,0,0.1,0.1,0.2,0.1c0.1,0,0.1,0.1,0.2,0.1c0.1,0,0.1,0.1,0.2,0.1c0.1,0,0.1,0.1,0.2,0.1c0.1,0,0.2,0.1,0.2,0.1
	c0.1,0,0.1,0.1,0.2,0.1c0.1,0,0.2,0.1,0.3,0.1c0.1,0,0.2,0.1,0.3,0.1c0,0,0,0,0.1,0c0.1,0,0.3,0.1,0.4,0.1h0.1
	c0.1,0,0.3,0.1,0.4,0.1h0.1c0.1,0,0.3,0,0.4,0.1h0.1c0.2,0,0.3,0,0.5,0h0.1c0.1,0,0.3,0,0.4,0c0.1,0,0.2,0,0.3,0c0.1,0,0.2,0,0.3,0
	c0.1,0,0.2,0,0.3,0c0.1,0,0.2,0,0.3,0c0.1,0,0.2,0,0.3,0c0.1,0,0.2,0,0.3,0c0.1,0,0.2,0,0.3-0.1c0.1,0,0.3,0,0.4-0.1
	c0.3-0.1,0.6-0.1,0.8-0.2c0.1,0,0.2,0,0.2-0.1c0.2-0.1,0.4-0.1,0.6-0.2c0.1,0,0.1,0,0.2-0.1c0.3-0.1,0.6-0.2,0.8-0.3
	c0,0,0.1,0,0.1-0.1c0.2-0.1,0.5-0.2,0.7-0.3c0.1,0,0.2-0.1,0.3-0.1c0.1-0.1,0.3-0.1,0.4-0.2c0.1,0,0.2-0.1,0.3-0.1
	c0.1-0.1,0.2-0.1,0.4-0.2c0.1-0.1,0.2-0.1,0.3-0.2c0.1-0.1,0.2-0.1,0.4-0.2c0.1-0.1,0.2-0.1,0.3-0.2c0.1-0.1,0.2-0.1,0.4-0.2
	c0.1-0.1,0.2-0.1,0.3-0.2c0.3-0.2,0.5-0.3,0.8-0.5c0,0,0.1,0,0.1-0.1c0.2-0.2,0.4-0.3,0.7-0.5c0.1-0.1,0.2-0.1,0.3-0.2
	c0.1-0.1,0.3-0.2,0.4-0.3c0.1-0.1,0.2-0.1,0.3-0.2c0.1-0.1,0.3-0.2,0.4-0.3c0.1-0.1,0.2-0.1,0.2-0.2c0.1-0.1,0.2-0.2,0.4-0.3
	c0.1-0.1,0.2-0.1,0.3-0.2c0.1-0.1,0.3-0.2,0.4-0.3c0.1-0.1,0.1-0.1,0.2-0.2c0.1-0.1,0.2-0.2,0.3-0.3c0.1-0.1,0.2-0.1,0.2-0.2
	c0.1-0.1,0.2-0.2,0.4-0.4c0.1-0.1,0.1-0.1,0.2-0.2c0.1-0.1,0.3-0.3,0.4-0.4l0.1-0.1c0.2-0.2,0.3-0.4,0.5-0.6l0.1-0.1
	c0.1-0.2,0.3-0.3,0.4-0.5c0.1-0.1,0.1-0.1,0.2-0.2c0.1-0.1,0.2-0.3,0.3-0.4c0.1-0.1,0.1-0.1,0.2-0.2c0.1-0.2,0.2-0.3,0.3-0.5
	c0.1-0.1,0.1-0.2,0.2-0.3c0.1-0.1,0.2-0.3,0.3-0.4c0.1-0.1,0.1-0.2,0.2-0.2c0.1-0.2,0.3-0.5,0.4-0.7c0,0,0-0.1,0.1-0.1
	c0.2-0.3,0.3-0.5,0.4-0.8c0.1-0.1,0.1-0.2,0.2-0.3c0-0.1,0.1-0.2,0.1-0.3c0.1-0.1,0.1-0.3,0.2-0.4c0-0.1,0.1-0.2,0.1-0.2
	c0.1-0.1,0.1-0.3,0.2-0.4c0-0.1,0.1-0.1,0.1-0.2c0.1-0.2,0.2-0.4,0.2-0.6c1.2-3.4,0.8-6.2-0.8-8l6.2,7c1.6,1.7,1.9,4.6,0.8,8
	c-0.1,0.2-0.1,0.4-0.2,0.6c0,0.1-0.1,0.1-0.1,0.2c-0.1,0.1-0.1,0.3-0.2,0.4c0,0.1-0.1,0.2-0.1,0.2c-0.1,0.1-0.1,0.3-0.2,0.4
	c0,0.1-0.1,0.2-0.1,0.3c0,0.1-0.1,0.2-0.1,0.3V25c-0.1,0.3-0.3,0.5-0.4,0.8c0,0,0,0.1-0.1,0.1c-0.1,0.2-0.3,0.5-0.4,0.7
	c0,0,0,0.1-0.1,0.1l-0.1,0.1c-0.1,0.1-0.2,0.3-0.3,0.4c-0.1,0.1-0.1,0.2-0.2,0.3c-0.1,0.2-0.2,0.3-0.3,0.5c0,0.1-0.1,0.1-0.1,0.2
	c-0.1,0.1-0.2,0.3-0.3,0.4c-0.1,0.1-0.1,0.1-0.2,0.2c-0.1,0.2-0.3,0.3-0.4,0.5c0,0,0,0.1-0.1,0.1c-0.2,0.2-0.3,0.4-0.5,0.6l-0.1,0.1
	c-0.1,0.1-0.3,0.3-0.4,0.4c-0.1,0.1-0.1,0.1-0.2,0.2c-0.1,0.1-0.2,0.2-0.4,0.4c-0.1,0.1-0.2,0.1-0.2,0.2c-0.1,0.1-0.2,0.2-0.3,0.3
	c-0.1,0.1-0.1,0.1-0.2,0.2c-0.1,0.1-0.2,0.2-0.4,0.3c-0.1,0.1-0.2,0.1-0.3,0.2c-0.1,0.1-0.2,0.2-0.4,0.3c0,0,0,0-0.1,0.1
	c-0.1,0-0.1,0.1-0.2,0.1c-0.1,0.1-0.3,0.2-0.4,0.3c-0.1,0.1-0.2,0.1-0.3,0.2c-0.1,0.1-0.3,0.2-0.4,0.3l-0.1,0.1c0,0-0.1,0-0.1,0.1
	c-0.2,0.2-0.4,0.3-0.7,0.5c0,0-0.1,0-0.1,0.1c-0.3,0.2-0.5,0.3-0.8,0.5c0,0,0,0-0.1,0c-0.1,0-0.1,0.1-0.2,0.1
	c-0.1,0.1-0.2,0.1-0.4,0.2c-0.1,0.1-0.2,0.1-0.3,0.2c-0.1,0.1-0.2,0.1-0.4,0.2c-0.1,0.1-0.2,0.1-0.3,0.2c-0.1,0.1-0.2,0.1-0.4,0.2
	c-0.1,0.1-0.2,0.1-0.3,0.1c-0.1,0.1-0.3,0.1-0.4,0.2c-0.1,0-0.1,0.1-0.2,0.1h-0.1c-0.2,0.1-0.5,0.2-0.7,0.3c0,0-0.1,0-0.1,0.1
	c-0.3,0.1-0.6,0.2-0.8,0.3c-0.1,0-0.1,0-0.2,0.1c-0.2,0.1-0.4,0.1-0.6,0.2c-0.1,0-0.2,0-0.2,0.1c-0.3,0.1-0.6,0.1-0.8,0.2
	c-0.1,0-0.2,0-0.2,0c-0.1,0-0.1,0-0.2,0c-0.1,0-0.2,0-0.3,0.1c-0.1,0-0.2,0-0.3,0c-0.1,0-0.2,0-0.3,0c-0.1,0-0.2,0-0.3,0
	c-0.1,0-0.2,0-0.3,0c-0.1,0-0.2,0-0.3,0c-0.1,0-0.2,0-0.3,0H356c-0.1,0-0.2,0-0.3,0h-0.1c-0.2,0-0.3,0-0.5,0H355
	c-0.1,0-0.3,0-0.4-0.1h-0.1c-0.1,0-0.3-0.1-0.4-0.1H354c-0.1,0-0.3-0.1-0.4-0.1c0,0,0,0-0.1,0c-0.1,0-0.1,0-0.2-0.1h-0.1
	c-0.1,0-0.2-0.1-0.3-0.1c-0.1,0-0.1-0.1-0.2-0.1c-0.1,0-0.2-0.1-0.2-0.1s-0.1,0-0.1-0.1c0,0-0.1,0-0.1-0.1c-0.1,0-0.1-0.1-0.2-0.1
	c-0.1,0-0.1-0.1-0.2-0.1c-0.1,0-0.1-0.1-0.2-0.1c0,0-0.1,0-0.1-0.1c0,0,0,0-0.1-0.1c-0.1-0.1-0.1-0.1-0.2-0.2
	c-0.1,0-0.1-0.1-0.2-0.1c-0.1-0.1-0.1-0.1-0.2-0.2l-0.1-0.1l-0.1-0.1l-6.2-7C344.5,28.8,344.6,28.9,344.6,28.9z"/>
<path class="st3" d="M368.8,8.8c-1.4-2.4-4.3-3.6-8.3-2.8c-7,1.4-14.5,8-16.7,14.7c-1.4,4-0.6,7.1,1.6,8.7"/>
</svg>
