<svg width="392" height="371" viewBox="0 0 392 371" fill="none" xmlns="http://www.w3.org/2000/svg">
<g clip-path="url(#clip0)">
<path d="M204.6 39.0001C204.6 39.0001 204.5 39.0001 204.5 38.9001C203.8 38.5001 203 38.2001 201.9 38.2001C200.4 38.1001 199.1 38.3001 198.1 38.9001L191.8 42.6001C190.8 43.2001 190.3 44.0001 190.5 44.9001L203.4 88.9001L236.8 72.2001C205.8 40.1001 205.2 39.4001 204.6 39.0001Z" fill="#2F58FF"/>
<path d="M286.2 35.1999L268.4 47.0999C267.2 44.8999 264.3 28.6999 263.2 22.6999C263 21.2999 263.5 19.8999 264.6 18.9999L265.2 18.4999C266 17.7999 267.2 17.7999 268 18.5999L285.8 34.8999L286.2 35.1999Z" fill="#2F58FF"/>
<path d="M295.5 35.4001C295.4 35.3001 295.4 35.2001 295.4 35.1001C294.6 33.3001 293.6 33.5001 291.9 33.5001C291.8 33.5001 291.3 33.7001 290.6 34.1001L296.4 4.4001C296.8 2.4001 294.9 0.700101 292.9 1.4001C291.2 2.4001 288.4 4.5001 287.6 6.7001C284.4 15.0001 274.1 36.0001 271.6 44.0001C243.7 59.1001 196.3 85.4001 190.6 90.0001C181.7 97.1001 184.4 104.3 179.2 109.8C175.6 113.6 175.7 115.7 175.7 115.7C175.7 115.9 175.7 116 175.7 116.1C175.7 117 176 117.6 176.5 118.2C179.7 121.2 191.1 117.9 199.6 115.5C209.8 112.6 271.4 73.1001 274.1 70.8001C276.9 68.4001 293.4 46.2001 295.5 41.0001C297 37.4001 296.8 37.1001 296.3 36.5001C296 36.4001 295.7 36.0001 295.5 35.4001Z" fill="white"/>
<path d="M201.2 83.3C195.8 86.5 191.9 88.9 190.5 90.1C181.6 97.2 184.3 104.4 179.1 109.9C175.5 113.7 175.6 115.8 175.6 115.8C175.6 116 175.6 116.1 175.6 116.2C175.6 117.1 175.9 117.7 176.4 118.3C179.6 121.3 191 118 199.5 115.6C209.7 112.7 271.3 73.2 274 70.9C276.8 68.5 292.8 46 295.4 41.1C297.2 37.7 296.9 35.7 295.7 35C294.1 33.9 291.2 33.6 290.5 34L296.3 4.3C296.7 2.3 294.8 0.600004 292.8 1.3C291.1 2.3 288.3 4.4 287.5 6.6C285.6 11.5 281.3 20.7 277.5 29.1" stroke="#171A21" stroke-width="2" stroke-miterlimit="10" stroke-linecap="round" stroke-linejoin="round"/>
<path d="M271.5 44.1001C259.9 50.3001 245 58.5001 231 66.3001" stroke="#171A21" stroke-width="2" stroke-miterlimit="10" stroke-linecap="round" stroke-linejoin="round"/>
<path d="M323.7 53.6C324.8 54 324.8 55.6 323.7 56C322.2 56.6 319.7 57 317.2 56.8C308.9 56.3 288.2 57.7001 279.9 56.4001C277.8 56.1001 276.5 55.5001 276.4 54.7001C275.5 49.0001 292.6 40.8 292.6 40.8L293.3 41.1L323.7 53.6Z" fill="#FFD394"/>
<path d="M303.8 99.3001C303.2 98.9001 302 98.7001 248 81.3001C247 81.0001 245.8 81.1001 245.1 81.6001L220.2 98.4001C219.4 99.0001 219.5 99.8001 220.3 100.2C220.6 100.4 221 100.5 221.6 100.6L293.7 107.5C295.2 107.6 296.6 107.4 297.6 106.8L303.9 103.1C304.9 102.5 305.4 101.7 305.2 100.9C305.1 100.3 304.6 99.8001 303.9 99.4001C303.8 99.3001 303.8 99.3001 303.8 99.3001Z" fill="#FFD394"/>
<path d="M190.1 104.6C189 104.6 188 104.5 187.2 104.3C186.4 104.1 186 104 185.8 103.9C185.4 103.8 185 104 184.8 104.4C184.3 105.5 184.2 106.2 183.9 107.2C183.8 107.5 183.9 107.8 184.1 108C184.5 108.3 184.9 108.7 185.6 109C186.6 109.4 188.2 109.3 190 109.1C192.3 108.7 194.6 108.1 195.7 107.8C196.1 107.7 196.4 107.2 196.3 106.8L195.8 105C195.7 104.6 195.3 104.3 194.9 104.4C193.9 104.4 191.9 104.6 190.1 104.6Z" fill="#FFD394"/>
</g>
<defs>
<clipPath id="clip0">
<rect width="391.3" height="371" fill="white"/>
</clipPath>
</defs>
</svg>
