<svg width="392" height="371" viewBox="0 0 392 371" fill="none" xmlns="http://www.w3.org/2000/svg">
<g clip-path="url(#clip0)">
<path d="M54.1002 123.3C51.5002 112 57.6002 100.2 72.6002 91.4999C98.1002 76.6999 139.6 76.6999 165.3 91.4999C180.4 100.2 186.6 112.1 184.1 123.4C184.1 123.4 184.5 167.8 119 167.8C53.5002 167.8 54.1002 123.3 54.1002 123.3Z" fill="#FFF6EA"/>
<path d="M184.5 119.7C184.5 120 184.5 120.4 184.4 120.7C184.4 121 184.3 121.3 184.3 121.6C184.3 121.9 184.2 122.3 184.1 122.6C184 122.9 184 123.2 183.9 123.5C183.8 123.8 183.8 124.1 183.7 124.5C183.6 124.8 183.5 125.1 183.4 125.4C183.3 125.7 183.2 126 183.1 126.3C183 126.6 182.9 126.9 182.8 127.1C182.7 127.4 182.5 127.8 182.4 128.1C182.3 128.4 182.1 128.7 182 128.9C181.8 129.2 181.7 129.6 181.5 129.9C181.3 130.2 181.1 130.6 180.9 130.9C180.9 131 180.8 131.1 180.8 131.1C180.5 131.6 180.2 132.1 179.8 132.6C179.7 132.7 179.7 132.8 179.6 132.9C179.3 133.4 178.9 133.9 178.5 134.4C178.4 134.5 178.4 134.6 178.3 134.7C178 135.1 177.6 135.5 177.2 136C177.1 136.1 177 136.2 176.9 136.3C176.5 136.8 176 137.3 175.5 137.7C175.4 137.8 175.3 137.9 175.2 138C174.8 138.4 174.5 138.7 174.1 139C173.8 139.3 173.5 139.6 173.2 139.8C172.9 140.1 172.6 140.3 172.3 140.6C172 140.9 171.6 141.1 171.3 141.4C171 141.6 170.7 141.9 170.3 142.1C169.9 142.4 169.6 142.6 169.2 142.9C168.9 143.1 168.5 143.4 168.2 143.6C167.8 143.9 167.4 144.1 167 144.4C166.5 144.7 166 145 165.5 145.3C164.5 145.9 163.5 146.4 162.5 146.9C162.2 147.1 161.9 147.2 161.6 147.3C160.8 147.7 160 148.1 159.2 148.4C158.9 148.5 158.6 148.7 158.4 148.8C157.3 149.3 156.2 149.7 155.1 150.1C154.9 150.2 154.7 150.2 154.5 150.3C153.6 150.6 152.6 151 151.7 151.3C151.3 151.4 150.9 151.6 150.5 151.7C150 151.9 149.4 152 148.9 152.2C148.4 152.3 148 152.5 147.5 152.6C147 152.8 146.4 152.9 145.9 153C145.4 153.1 145 153.2 144.5 153.3C143.9 153.4 143.4 153.6 142.8 153.7C142.3 153.8 141.9 153.9 141.4 154C140.8 154.1 140.3 154.2 139.7 154.3C139.3 154.4 138.8 154.5 138.4 154.5C137.2 154.7 135.9 154.9 134.7 155.1C134.5 155.1 134.4 155.1 134.2 155.2C133.1 155.3 132 155.5 130.9 155.6C130.5 155.6 130.1 155.7 129.7 155.7C129 155.8 128.3 155.8 127.6 155.9C127.2 155.9 126.7 156 126.3 156C125.6 156 124.8 156.1 124.1 156.1C123.7 156.1 123.3 156.1 122.9 156.2C122.3 156.2 121.6 156.2 121 156.2C120.6 156.2 120.1 156.2 119.7 156.2C119 156.2 118.3 156.2 117.7 156.2C117.3 156.2 116.9 156.2 116.5 156.2C115.9 156.2 115.2 156.2 114.6 156.1C114.2 156.1 113.7 156.1 113.3 156C112.6 156 111.9 155.9 111.3 155.9C110.9 155.9 110.5 155.9 110.2 155.8C109.4 155.7 108.6 155.6 107.8 155.6C107.6 155.6 107.3 155.6 107.1 155.5C106.1 155.4 105 155.3 104 155.1C103.8 155.1 103.7 155 103.5 155C102.6 154.9 101.7 154.7 100.8 154.6C100.4 154.5 100.1 154.5 99.7 154.4C99 154.3 98.3 154.2 97.7 154C97.3 153.9 97 153.8 96.6 153.8C95.9 153.6 95.1 153.5 94.4 153.3C94 153.2 93.6 153.1 93.2 153C92.5 152.8 91.9 152.7 91.2 152.5C90.8 152.4 90.5 152.3 90.1 152.2C89.1 151.9 88 151.6 87 151.2C86.8 151.1 86.6 151.1 86.4 151C85.2 150.6 84.1 150.2 82.9 149.7C82.4 149.5 82 149.3 81.5 149.1C81.1 149 80.8 148.8 80.4 148.7C79.9 148.5 79.4 148.2 78.9 148C78.6 147.8 78.2 147.7 77.9 147.5C77.3 147.2 76.8 147 76.3 146.7C76 146.6 75.8 146.4 75.5 146.3C74.7 145.9 73.9 145.4 73.1 145C60.2 137.5 53.7 127.7 53.7 118L53.5 151.4C53.5 161.2 59.9 171 72.9 178.4C73.7 178.8 74.5 179.3 75.3 179.7C75.6 179.8 75.8 180 76.1 180.1C76.6 180.4 77.2 180.6 77.7 180.9C78 181.1 78.4 181.2 78.7 181.4C79.2 181.6 79.7 181.9 80.2 182.1C80.6 182.3 80.9 182.4 81.3 182.5C81.6 182.6 82 182.8 82.3 182.9C82.4 182.9 82.5 183 82.6 183C83.7 183.4 84.9 183.9 86.1 184.3C86.3 184.4 86.5 184.4 86.7 184.5C87.7 184.8 88.8 185.2 89.8 185.5C90 185.6 90.1 185.6 90.3 185.7C90.5 185.8 90.7 185.8 90.9 185.9C91.6 186.1 92.2 186.3 92.9 186.4C93.3 186.5 93.7 186.6 94.1 186.7C94.8 186.9 95.6 187 96.3 187.2C96.6 187.3 96.8 187.3 97.1 187.4C97.2 187.4 97.2 187.4 97.3 187.4C98 187.5 98.7 187.7 99.3 187.8C99.7 187.9 100 187.9 100.4 188C101.3 188.2 102.2 188.3 103.1 188.4C103.3 188.4 103.4 188.5 103.6 188.5C104.6 188.6 105.7 188.8 106.7 188.9C106.9 188.9 107.2 188.9 107.4 189C108.2 189.1 109 189.2 109.8 189.2C109.8 189.2 109.8 189.2 109.9 189.2C110.3 189.2 110.6 189.2 111 189.3C111.7 189.3 112.4 189.4 113 189.4C113.4 189.4 113.9 189.4 114.3 189.5C114.9 189.5 115.6 189.6 116.2 189.6C116.3 189.6 116.3 189.6 116.4 189.6C116.8 189.6 117.1 189.6 117.5 189.6C118.2 189.6 118.9 189.6 119.5 189.6C119.9 189.6 120.4 189.6 120.8 189.6C121.4 189.6 122.1 189.6 122.7 189.6C122.8 189.6 122.9 189.6 123.1 189.6C123.4 189.6 123.7 189.6 124 189.6C124.7 189.6 125.5 189.5 126.2 189.5C126.6 189.5 127.1 189.4 127.5 189.4C128.2 189.3 128.9 189.3 129.6 189.2C129.8 189.2 130.1 189.2 130.3 189.1C130.5 189.1 130.6 189.1 130.8 189C131.9 188.9 133 188.8 134.1 188.6C134.3 188.6 134.4 188.6 134.6 188.5C135.8 188.3 137.1 188.1 138.3 187.9C138.4 187.9 138.5 187.9 138.6 187.8C138.9 187.7 139.2 187.7 139.6 187.6C140.2 187.5 140.7 187.4 141.3 187.3C141.8 187.2 142.2 187.1 142.7 187C143.3 186.9 143.8 186.7 144.4 186.6C144.9 186.5 145.3 186.4 145.8 186.3C146.3 186.2 146.9 186 147.4 185.9C147.9 185.8 148.3 185.6 148.8 185.5C149.3 185.3 149.9 185.2 150.4 185C150.6 184.9 150.9 184.9 151.1 184.8C151.3 184.7 151.4 184.7 151.6 184.6C152.6 184.3 153.5 183.9 154.4 183.6C154.6 183.5 154.8 183.5 155 183.4C156.1 183 157.2 182.5 158.3 182.1C158.6 182 158.9 181.9 159.1 181.7C159.9 181.3 160.7 180.9 161.5 180.6C161.8 180.5 162.1 180.3 162.4 180.2C163.4 179.7 164.4 179.1 165.4 178.6C165.7 178.4 165.9 178.3 166.2 178.1C166.4 178 166.7 177.8 166.9 177.6C167.3 177.4 167.7 177.1 168.1 176.8C168.5 176.6 168.8 176.3 169.1 176.1C169.5 175.8 169.8 175.6 170.2 175.3C170.5 175.1 170.9 174.8 171.2 174.6C171.5 174.3 171.9 174.1 172.2 173.8C172.5 173.6 172.8 173.3 173.1 173C173.4 172.7 173.7 172.5 174 172.2C174.1 172.1 174.3 172 174.4 171.9C174.7 171.7 174.9 171.4 175.1 171.2C175.2 171.1 175.3 171 175.4 170.9C175.9 170.4 176.3 170 176.8 169.5C176.9 169.4 177 169.3 177.1 169.2C177.5 168.8 177.8 168.4 178.2 167.9C178.3 167.8 178.4 167.7 178.4 167.6L178.5 167.5C178.8 167.1 179.2 166.6 179.5 166.2C179.6 166.1 179.6 166 179.7 165.9C180 165.4 180.4 164.9 180.7 164.4C180.7 164.3 180.8 164.2 180.8 164.2C180.9 164 181 163.8 181.1 163.6C181.2 163.4 181.3 163.3 181.3 163.1C181.5 162.8 181.6 162.4 181.8 162.1C181.9 161.8 182.1 161.5 182.2 161.3C182.3 161 182.5 160.6 182.6 160.3C182.7 160.2 182.7 160 182.8 159.9C182.9 159.8 182.9 159.6 182.9 159.5C183 159.2 183.1 158.9 183.2 158.6C183.3 158.3 183.4 158 183.5 157.7C183.6 157.4 183.7 157.1 183.7 156.7C183.7 156.5 183.8 156.4 183.8 156.2C183.8 156.1 183.8 156 183.9 155.9C184 155.6 184 155.2 184.1 154.9C184.1 154.6 184.2 154.3 184.2 154C184.2 153.7 184.3 153.3 184.3 153C184.3 152.8 184.3 152.6 184.3 152.4C184.3 152.2 184.3 152 184.3 151.8L184.5 118.4C184.6 118.9 184.5 119.3 184.5 119.7Z" fill="#FFD394"/>
<path d="M72.9002 123.4L101.6 111.6C101.8 111.5 102 111.4 102.2 111.3C103.5 110.4 104.9 109.6 106.4 108.7L153.8 81.4C154.9 80.7 156.3 80.7 157.5 81.4L163.2 84.7C164.2 85.3 165.4 85.4 166.4 84.9L178.8 79.8C181.2 78.8 183.9 80.6 183.9 83.2V98.7C183.9 99.9 183.3 101.1 182.1 101.8L154.3 117.8C125.7 134.3 108.5 139.3 80.4002 140.6C79.0002 140.7 77.7002 140 77.0002 138.8L71.9002 129.9L71.1002 128.6C70.0002 126.7 70.8002 124.2 72.9002 123.4Z" fill="#2F58FF"/>
<path d="M104.8 89.1999L149 63.6999C152.1 61.8999 156 61.8999 159.1 63.6999L181.4 76.5999C183.4 77.7999 183.4 80.6999 181.4 81.7999L152.7 98.2999C128.4 112.4 101.6 121.6 73.8002 125.7C71.2002 126.1 69.4002 123.2 70.8002 121.1C79.6002 108 91.2002 96.9999 104.8 89.1999Z" fill="white"/>
<path d="M73.9003 125.7C71.3003 126.1 69.5003 123.2 70.9003 121.1C79.6003 108 91.2003 97.0999 104.9 89.1999L149 63.6999C152.1 61.8999 156 61.8999 159.1 63.6999L181.4 76.5999C183.4 77.7999 183.4 80.6999 181.4 81.7999" stroke="#171A21" stroke-width="2" stroke-miterlimit="10" stroke-linecap="round" stroke-linejoin="round"/>
<path d="M95.6001 98.3L113.1 91.1C113.2 91 113.3 91 113.5 90.9C114.3 90.4 115.1 89.9 116.1 89.3L144.9 72.6C145.6 72.2 146.4 72.2 147.1 72.6L150.6 74.6C151.2 74.9 151.9 75 152.6 74.7L160.1 71.6C161.6 71 163.2 72.1 163.2 73.7V83.2C163.2 83.9 162.8 84.7 162.1 85.1L145.2 94.9C127.8 104.9 117.3 108 100.2 108.8C99.4001 108.8 98.6001 108.4 98.1001 107.7L95.0001 102.3L94.5001 101.5C93.8001 100.3 94.3001 98.8 95.6001 98.3Z" fill="#FFD394"/>
<path d="M115.1 77.4L142 61.9C143.9 60.8 146.2 60.8 148.1 61.9L161.7 69.8C162.9 70.5 162.9 72.2999 161.7 72.9999L144.2 83C129.4 91.6 113.1 97.1999 96.1 99.6999C94.5 99.8999 93.4 98.2 94.3 96.9C99.7 88.9 106.7 82.2 115.1 77.4Z" fill="white"/>
<path d="M96.2001 99.6999C94.6001 99.8999 93.5001 98.2 94.4001 96.9C99.7001 88.9 106.8 82.3 115.1 77.5L142 61.9C143.9 60.8 146.2 60.8 148.1 61.9L161.7 69.8C162.9 70.5 162.9 72.2999 161.7 72.9999" stroke="#171A21" stroke-width="2" stroke-miterlimit="10" stroke-linecap="round" stroke-linejoin="round"/>
<path d="M160.2 106.7C157.6 95.4 163.7 83.6 178.7 74.9C204.2 60.1 245.7 60.1 271.4 74.9C286.5 83.6 292.7 95.5 290.2 106.8C290.2 106.8 290.6 151.2 225.1 151.2C159.6 151.2 160.2 106.7 160.2 106.7Z" fill="#FFF6EA"/>
<path d="M290.7 103.1C290.7 103.4 290.7 103.8 290.6 104.1C290.6 104.4 290.5 104.7 290.5 105C290.5 105.3 290.4 105.7 290.3 106C290.2 106.3 290.2 106.6 290.1 106.9C290 107.2 290 107.5 289.9 107.9C289.8 108.2 289.7 108.5 289.6 108.8C289.5 109.1 289.4 109.4 289.3 109.7C289.2 110 289.1 110.3 289 110.5C288.9 110.8 288.7 111.2 288.6 111.5C288.5 111.8 288.3 112.1 288.2 112.3C288 112.6 287.9 113 287.7 113.3C287.5 113.6 287.3 114 287.1 114.3C287.1 114.4 287 114.5 287 114.5C286.7 115 286.4 115.5 286 116C285.9 116.1 285.9 116.2 285.8 116.3C285.5 116.8 285.1 117.3 284.7 117.8C284.6 117.9 284.6 118 284.5 118.1C284.2 118.5 283.8 118.9 283.4 119.4C283.3 119.5 283.2 119.6 283.1 119.7C282.7 120.2 282.2 120.7 281.7 121.1C281.6 121.2 281.5 121.3 281.4 121.4C281 121.8 280.7 122.1 280.3 122.4C280 122.7 279.7 123 279.4 123.2C279.1 123.5 278.8 123.7 278.5 124C278.2 124.3 277.8 124.5 277.5 124.8C277.2 125 276.9 125.3 276.5 125.5C276.1 125.8 275.8 126 275.4 126.3C275.1 126.5 274.7 126.8 274.4 127C274 127.3 273.6 127.5 273.2 127.8C272.7 128.1 272.2 128.4 271.7 128.7C270.7 129.3 269.7 129.8 268.7 130.3C268.4 130.5 268.1 130.6 267.8 130.7C267 131.1 266.2 131.5 265.4 131.8C265.1 131.9 264.8 132.1 264.6 132.2C263.5 132.7 262.4 133.1 261.3 133.5C261.1 133.6 260.9 133.6 260.7 133.7C259.8 134 258.8 134.4 257.9 134.7C257.5 134.8 257.1 135 256.7 135.1C256.2 135.3 255.6 135.4 255.1 135.6C254.6 135.7 254.2 135.9 253.7 136C253.2 136.2 252.6 136.3 252.1 136.4C251.6 136.5 251.2 136.6 250.7 136.7C250.1 136.8 249.6 137 249 137.1C248.5 137.2 248.1 137.3 247.6 137.4C247 137.5 246.5 137.6 245.9 137.7C245.5 137.8 245 137.9 244.6 137.9C243.4 138.1 242.1 138.3 240.9 138.5C240.7 138.5 240.6 138.5 240.4 138.6C239.3 138.7 238.2 138.9 237.1 139C236.7 139 236.3 139.1 235.9 139.1C235.2 139.2 234.5 139.2 233.8 139.3C233.4 139.3 232.9 139.4 232.5 139.4C231.8 139.4 231 139.5 230.3 139.5C229.9 139.5 229.5 139.5 229.1 139.6C228.5 139.6 227.8 139.6 227.2 139.6C226.8 139.6 226.3 139.6 225.9 139.6C225.2 139.6 224.5 139.6 223.9 139.6C223.5 139.6 223.1 139.6 222.7 139.6C222.1 139.6 221.4 139.6 220.8 139.5C220.4 139.5 219.9 139.5 219.5 139.4C218.8 139.4 218.1 139.3 217.5 139.3C217.1 139.3 216.7 139.3 216.4 139.2C215.6 139.1 214.8 139 214 139C213.8 139 213.5 139 213.3 138.9C212.3 138.8 211.2 138.7 210.2 138.5C210 138.5 209.9 138.4 209.7 138.4C208.8 138.3 207.9 138.1 207 138C206.6 137.9 206.3 137.9 205.9 137.8C205.2 137.7 204.5 137.6 203.9 137.4C203.5 137.3 203.2 137.2 202.8 137.2C202.1 137 201.3 136.9 200.6 136.7C200.2 136.6 199.8 136.5 199.4 136.4C198.7 136.2 198.1 136.1 197.4 135.9C197 135.8 196.7 135.7 196.3 135.6C195.3 135.3 194.2 135 193.2 134.6C193 134.5 192.8 134.5 192.6 134.4C191.4 134 190.3 133.6 189.1 133.1C188.6 132.9 188.2 132.7 187.7 132.5C187.3 132.4 187 132.2 186.6 132.1C186.1 131.9 185.6 131.6 185.1 131.4C184.8 131.2 184.4 131.1 184.1 130.9C183.5 130.6 183 130.4 182.5 130.1C182.2 130 182 129.8 181.7 129.7C180.9 129.3 180.1 128.8 179.3 128.4C166.4 120.9 159.9 111.1 159.9 101.4L159.7 214.5C159.7 224.3 166.1 234.1 179.1 241.5C179.9 241.9 180.7 242.4 181.5 242.8C181.8 242.9 182 243.1 182.3 243.2C182.8 243.5 183.4 243.7 183.9 244C184.2 244.2 184.6 244.3 184.9 244.5C185.4 244.7 185.9 245 186.4 245.2C186.8 245.4 187.1 245.5 187.5 245.6C187.8 245.7 188.2 245.9 188.5 246C188.6 246 188.7 246.1 188.8 246.1C189.9 246.5 191.1 247 192.3 247.4C192.5 247.5 192.7 247.5 192.9 247.6C193.9 247.9 195 248.3 196 248.6C196.2 248.7 196.3 248.7 196.5 248.8C196.7 248.9 196.9 248.9 197.1 249C197.8 249.2 198.4 249.4 199.1 249.5C199.5 249.6 199.9 249.7 200.3 249.8C201 250 201.8 250.1 202.5 250.3C202.8 250.4 203 250.4 203.3 250.5C203.4 250.5 203.4 250.5 203.5 250.5C204.2 250.6 204.9 250.8 205.5 250.9C205.9 251 206.2 251 206.6 251.1C207.5 251.3 208.4 251.4 209.3 251.5C209.5 251.5 209.6 251.6 209.8 251.6C210.8 251.7 211.9 251.9 212.9 252C213.1 252 213.4 252 213.6 252.1C214.4 252.2 215.2 252.3 216 252.3C216 252.3 216 252.3 216.1 252.3C216.5 252.3 216.8 252.3 217.2 252.4C217.9 252.4 218.6 252.5 219.2 252.5C219.6 252.5 220.1 252.5 220.5 252.6C221.1 252.6 221.8 252.7 222.4 252.7C222.5 252.7 222.5 252.7 222.6 252.7C223 252.7 223.3 252.7 223.7 252.7C224.4 252.7 225.1 252.7 225.7 252.7C226.1 252.7 226.6 252.7 227 252.7C227.6 252.7 228.3 252.7 228.9 252.7C229 252.7 229.1 252.7 229.3 252.7C229.6 252.7 229.9 252.7 230.2 252.7C230.9 252.7 231.7 252.6 232.4 252.6C232.8 252.6 233.3 252.5 233.7 252.5C234.4 252.4 235.1 252.4 235.8 252.3C236 252.3 236.3 252.3 236.5 252.2C236.7 252.2 236.8 252.2 237 252.1C238.1 252 239.2 251.9 240.3 251.7C240.5 251.7 240.6 251.7 240.8 251.6C242 251.4 243.3 251.2 244.5 251C244.6 251 244.7 251 244.8 250.9C245.1 250.8 245.4 250.8 245.8 250.7C246.4 250.6 246.9 250.5 247.5 250.4C248 250.3 248.4 250.2 248.9 250.1C249.5 250 250 249.8 250.6 249.7C251.1 249.6 251.5 249.5 252 249.4C252.5 249.3 253.1 249.1 253.6 249C254.1 248.9 254.5 248.7 255 248.6C255.5 248.4 256.1 248.3 256.6 248.1C256.8 248 257.1 248 257.3 247.9C257.5 247.8 257.6 247.8 257.8 247.7C258.8 247.4 259.7 247 260.6 246.7C260.8 246.6 261 246.6 261.2 246.5C262.3 246.1 263.4 245.6 264.5 245.2C264.8 245.1 265.1 245 265.3 244.8C266.1 244.4 266.9 244 267.7 243.7C268 243.6 268.3 243.4 268.6 243.3C269.6 242.8 270.6 242.2 271.6 241.7C271.9 241.5 272.1 241.4 272.4 241.2C272.6 241.1 272.9 240.9 273.1 240.7C273.5 240.5 273.9 240.2 274.3 239.9C274.7 239.7 275 239.4 275.3 239.2C275.7 238.9 276 238.7 276.4 238.4C276.7 238.2 277.1 237.9 277.4 237.7C277.7 237.4 278.1 237.2 278.4 236.9C278.7 236.7 279 236.4 279.3 236.1C279.6 235.8 279.9 235.6 280.2 235.3C280.3 235.2 280.5 235.1 280.6 235C280.9 234.8 281.1 234.5 281.3 234.3C281.4 234.2 281.5 234.1 281.6 234C282.1 233.5 282.5 233.1 283 232.6C283.1 232.5 283.2 232.4 283.3 232.3C283.7 231.9 284 231.5 284.4 231C284.5 230.9 284.6 230.8 284.6 230.7L284.7 230.6C285 230.2 285.4 229.7 285.7 229.3C285.8 229.2 285.8 229.1 285.9 229C286.2 228.5 286.6 228 286.9 227.5C286.9 227.4 287 227.3 287 227.3C287.1 227.1 287.2 226.9 287.3 226.7C287.4 226.5 287.5 226.4 287.5 226.2C287.7 225.9 287.8 225.5 288 225.2C288.1 224.9 288.3 224.6 288.4 224.4C288.5 224.1 288.7 223.7 288.8 223.4C288.9 223.3 288.9 223.1 289 223C289.1 222.9 289.1 222.7 289.1 222.6C289.2 222.3 289.3 222 289.4 221.7C289.5 221.4 289.6 221.1 289.7 220.8C289.8 220.5 289.9 220.2 289.9 219.8C289.9 219.6 290 219.5 290 219.3C290 219.2 290 219.1 290.1 219C290.2 218.7 290.2 218.3 290.3 218C290.3 217.7 290.4 217.4 290.4 217.1C290.4 216.8 290.5 216.4 290.5 216.1C290.5 215.9 290.5 215.7 290.5 215.5C290.5 215.3 290.5 215.1 290.5 214.9L290.7 101.8C290.7 102.4 290.7 102.7 290.7 103.1Z" fill="#2F58FF"/>
<path d="M259.8 243.8C257.2 232.5 263.3 220.7 278.3 212C303.8 197.2 345.3 197.2 371 212C386.1 220.7 392.3 232.6 389.8 243.9C389.8 243.9 390.2 288.3 324.7 288.3C259.2 288.3 259.8 243.8 259.8 243.8Z" fill="#FFF6EA"/>
<path d="M390.2 240.3C390.2 240.6 390.2 241 390.1 241.3C390.1 241.6 390 241.9 390 242.2C390 242.5 389.9 242.9 389.8 243.2C389.7 243.5 389.7 243.8 389.6 244.1C389.5 244.4 389.5 244.7 389.4 245.1C389.3 245.4 389.2 245.7 389.1 246C389 246.3 388.9 246.6 388.8 246.9C388.7 247.2 388.6 247.5 388.5 247.7C388.4 248 388.2 248.4 388.1 248.7C388 249 387.8 249.3 387.7 249.5C387.5 249.8 387.4 250.2 387.2 250.5C387 250.8 386.8 251.2 386.6 251.5C386.6 251.6 386.5 251.7 386.5 251.7C386.2 252.2 385.9 252.7 385.5 253.2C385.4 253.3 385.4 253.4 385.3 253.5C385 254 384.6 254.5 384.2 255C384.1 255.1 384.1 255.2 384 255.3C383.7 255.7 383.3 256.1 382.9 256.6C382.8 256.7 382.7 256.8 382.6 256.9C382.2 257.4 381.7 257.9 381.2 258.3C381.1 258.4 381 258.5 380.9 258.6C380.5 259 380.2 259.3 379.8 259.6C379.5 259.9 379.2 260.2 378.9 260.4C378.6 260.7 378.3 260.9 378 261.2C377.7 261.5 377.3 261.7 377 262C376.7 262.2 376.4 262.5 376 262.7C375.6 263 375.3 263.2 374.9 263.5C374.6 263.7 374.2 264 373.9 264.2C373.5 264.5 373.1 264.7 372.7 265C372.2 265.3 371.7 265.6 371.2 265.9C370.2 266.5 369.2 267 368.2 267.5C367.9 267.7 367.6 267.8 367.3 267.9C366.5 268.3 365.7 268.7 364.9 269C364.6 269.1 364.3 269.3 364.1 269.4C363 269.9 361.9 270.3 360.8 270.7C360.6 270.8 360.4 270.8 360.2 270.9C359.3 271.2 358.3 271.6 357.4 271.9C357 272 356.6 272.2 356.2 272.3C355.7 272.5 355.1 272.6 354.6 272.8C354.1 272.9 353.7 273.1 353.2 273.2C352.7 273.4 352.1 273.5 351.6 273.6C351.1 273.7 350.7 273.8 350.2 273.9C349.6 274 349.1 274.2 348.5 274.3C348 274.4 347.6 274.5 347.1 274.6C346.5 274.7 346 274.8 345.4 274.9C345 275 344.5 275.1 344.1 275.1C342.9 275.3 341.6 275.5 340.4 275.7C340.2 275.7 340.1 275.7 339.9 275.8C338.8 275.9 337.7 276.1 336.6 276.2C336.2 276.2 335.8 276.3 335.4 276.3C334.7 276.4 334 276.4 333.3 276.5C332.9 276.5 332.4 276.6 332 276.6C331.3 276.6 330.5 276.7 329.8 276.7C329.4 276.7 329 276.7 328.6 276.8C328 276.8 327.3 276.8 326.7 276.8C326.3 276.8 325.8 276.8 325.4 276.8C324.7 276.8 324 276.8 323.4 276.8C323 276.8 322.6 276.8 322.2 276.8C321.6 276.8 320.9 276.8 320.3 276.7C319.9 276.7 319.4 276.7 319 276.6C318.3 276.6 317.6 276.5 317 276.5C316.6 276.5 316.2 276.5 315.9 276.4C315.1 276.3 314.3 276.2 313.5 276.2C313.3 276.2 313 276.2 312.8 276.1C311.8 276 310.7 275.9 309.7 275.7C309.5 275.7 309.4 275.6 309.2 275.6C308.3 275.5 307.4 275.3 306.5 275.2C306.1 275.1 305.8 275.1 305.4 275C304.7 274.9 304 274.8 303.4 274.6C303 274.5 302.7 274.4 302.3 274.4C301.6 274.2 300.8 274.1 300.1 273.9C299.7 273.8 299.3 273.7 298.9 273.6C298.2 273.4 297.6 273.3 296.9 273.1C296.5 273 296.2 272.9 295.8 272.8C294.8 272.5 293.7 272.2 292.7 271.8C292.5 271.7 292.3 271.7 292.1 271.6C290.9 271.2 289.8 270.8 288.6 270.3C288.1 270.1 287.7 269.9 287.2 269.7C286.8 269.6 286.5 269.4 286.1 269.2C285.6 269 285.1 268.7 284.6 268.5C284.3 268.3 283.9 268.2 283.6 268C283 267.7 282.5 267.5 282 267.2C281.7 267.1 281.5 266.9 281.2 266.8C280.4 266.4 279.6 265.9 278.8 265.5C265.9 258 259.4 248.2 259.4 238.5L259.2 271.9C259.2 281.7 265.6 291.5 278.6 298.9C279.4 299.3 280.2 299.8 281 300.2C281.3 300.3 281.5 300.5 281.8 300.6C282.3 300.9 282.9 301.1 283.4 301.4C283.7 301.6 284.1 301.7 284.4 301.9C284.9 302.1 285.4 302.4 285.9 302.6C286.3 302.8 286.6 302.9 287 303C287.3 303.1 287.7 303.3 288 303.4C288.1 303.4 288.2 303.5 288.3 303.5C289.4 303.9 290.6 304.4 291.8 304.8C292 304.9 292.2 304.9 292.4 305C293.4 305.3 294.5 305.7 295.5 306C295.7 306.1 295.8 306.1 296 306.2C296.2 306.3 296.4 306.3 296.6 306.4C297.3 306.6 297.9 306.8 298.6 306.9C299 307 299.4 307.1 299.8 307.2C300.5 307.4 301.3 307.5 302 307.7C302.3 307.8 302.5 307.8 302.8 307.9C302.9 307.9 302.9 307.9 303 307.9C303.7 308 304.4 308.2 305 308.3C305.4 308.4 305.7 308.4 306.1 308.5C307 308.7 307.9 308.8 308.8 308.9C309 308.9 309.1 309 309.3 309C310.3 309.1 311.4 309.3 312.4 309.4C312.6 309.4 312.9 309.4 313.1 309.5C313.9 309.6 314.7 309.7 315.5 309.7C315.5 309.7 315.5 309.7 315.6 309.7C316 309.7 316.3 309.7 316.7 309.8C317.4 309.8 318.1 309.9 318.7 309.9C319.1 309.9 319.6 309.9 320 310C320.6 310 321.3 310.1 321.9 310.1C322 310.1 322 310.1 322.1 310.1C322.5 310.1 322.8 310.1 323.2 310.1C323.9 310.1 324.6 310.1 325.2 310.1C325.6 310.1 326.1 310.1 326.5 310.1C327.1 310.1 327.8 310.1 328.4 310.1C328.5 310.1 328.6 310.1 328.8 310.1C329.1 310.1 329.4 310.1 329.7 310.1C330.4 310.1 331.2 310 331.9 310C332.3 310 332.8 309.9 333.2 309.9C333.9 309.8 334.6 309.8 335.3 309.7C335.5 309.7 335.8 309.7 336 309.6C336.2 309.6 336.3 309.6 336.5 309.5C337.6 309.4 338.7 309.3 339.8 309.1C340 309.1 340.1 309.1 340.3 309C341.5 308.8 342.8 308.6 344 308.4C344.1 308.4 344.2 308.4 344.3 308.3C344.6 308.2 344.9 308.2 345.3 308.1C345.9 308 346.4 307.9 347 307.8C347.5 307.7 347.9 307.6 348.4 307.5C349 307.4 349.5 307.2 350.1 307.1C350.6 307 351 306.9 351.5 306.8C352 306.7 352.6 306.5 353.1 306.4C353.6 306.3 354 306.1 354.5 306C355 305.8 355.6 305.7 356.1 305.5C356.3 305.4 356.6 305.4 356.8 305.3C357 305.2 357.1 305.2 357.3 305.1C358.3 304.8 359.2 304.4 360.1 304.1C360.3 304 360.5 304 360.7 303.9C361.8 303.5 362.9 303 364 302.6C364.3 302.5 364.6 302.4 364.8 302.2C365.6 301.8 366.4 301.4 367.2 301.1C367.5 301 367.8 300.8 368.1 300.7C369.1 300.2 370.1 299.6 371.1 299.1C371.4 298.9 371.6 298.8 371.9 298.6C372.1 298.5 372.4 298.3 372.6 298.1C373 297.9 373.4 297.6 373.8 297.3C374.2 297.1 374.5 296.8 374.8 296.6C375.2 296.3 375.5 296.1 375.9 295.8C376.2 295.6 376.6 295.3 376.9 295.1C377.2 294.8 377.6 294.6 377.9 294.3C378.2 294.1 378.5 293.8 378.8 293.5C379.1 293.2 379.4 293 379.7 292.7C379.8 292.6 380 292.5 380.1 292.4C380.4 292.2 380.6 291.9 380.8 291.7C380.9 291.6 381 291.5 381.1 291.4C381.6 290.9 382 290.5 382.5 290C382.6 289.9 382.7 289.8 382.8 289.7C383.2 289.3 383.5 288.9 383.9 288.4C384 288.3 384.1 288.2 384.1 288.1L384.2 288C384.5 287.6 384.9 287.1 385.2 286.7C385.3 286.6 385.3 286.5 385.4 286.4C385.7 285.9 386.1 285.4 386.4 284.9C386.4 284.8 386.5 284.7 386.5 284.7C386.6 284.5 386.7 284.3 386.8 284.1C386.9 283.9 387 283.8 387 283.6C387.2 283.3 387.3 282.9 387.5 282.6C387.6 282.3 387.8 282 387.9 281.8C388 281.5 388.2 281.1 388.3 280.8C388.4 280.7 388.4 280.5 388.5 280.4C388.6 280.3 388.6 280.1 388.6 280C388.7 279.7 388.8 279.4 388.9 279.1C389 278.8 389.1 278.5 389.2 278.2C389.3 277.9 389.4 277.6 389.4 277.2C389.4 277 389.5 276.9 389.5 276.7C389.5 276.6 389.5 276.5 389.6 276.4C389.7 276.1 389.7 275.7 389.8 275.4C389.8 275.1 389.9 274.8 389.9 274.5C389.9 274.2 390 273.8 390 273.5C390 273.3 390 273.1 390 272.9C390 272.7 390 272.5 390 272.3L390.2 238.9C390.3 239.5 390.2 239.9 390.2 240.3Z" fill="#FFD394"/>
<path d="M385.6 199.2L356.5 182.5L336.1 198.4L362.3 220.3L385.6 199.2Z" fill="white" stroke="#171A21" stroke-width="2" stroke-miterlimit="10" stroke-linecap="round" stroke-linejoin="round"/>
<path d="M377.8 191.3C377.8 190.4 377.3 189.6 376.5 189.3L340 170.7C337.7 169 334.3 169.1 330.6 171.2L309.1 183.6C305.9 185.5 302.8 189.1 301.2 193.3L294.8 208.9C294.6 209.3 294.4 209.7 294 209.9L282.1 218.3C278.8 220.6 276.2 224.6 275 228.6C274.5 230.3 274.2 231.9 274.3 233.5C274.3 233.7 274.3 233.9 274.3 234.1C274.3 234.2 274.3 234.2 274.3 234.3L274.4 243.3C274.4 244.1 274.8 244.9 275.6 245.3L305.2 262.3C306.6 263.1 308.4 262.2 308.6 260.6L310.3 248.8C310.4 248.3 310.6 247.8 311 247.5L322.6 236.4C322.8 236.2 323 236.1 323.3 235.9L355.5 222.3C355.7 222.2 355.9 222.1 356 222L371.7 209.8C371.9 209.7 372 209.5 372.2 209.3L377.4 201.9C377.7 201.5 377.8 201.1 377.8 200.6V191.3Z" fill="white" stroke="#171A21" stroke-width="2" stroke-miterlimit="10" stroke-linecap="round" stroke-linejoin="round"/>
<path d="M319.4 262.7L308.7 256.7L320.1 238.7L330 244.3L319.4 262.7Z" fill="#2F58FF"/>
<path d="M324.9 245C322.1 246.6 319.7 249.8 318.4 253.1C317.8 254.7 317.4 256.4 317.4 258C317.4 258.2 317.4 258.4 317.4 258.6C317.7 263 321 264.7 325 262.4C329 260.1 332.3 254.6 332.5 249.9C332.5 249.7 332.5 249.5 332.5 249.3C332.5 247.7 332.1 246.5 331.5 245.6C330.2 243.7 327.7 243.4 324.9 245Z" fill="#2F58FF"/>
<path d="M365.6 235.9L355 229.9L366.4 211.9L376.2 217.5L365.6 235.9Z" fill="#2F58FF"/>
<path d="M371.2 218.2C368.4 219.8 366 223 364.7 226.3C364.1 227.9 363.7 229.6 363.7 231.2C363.7 231.4 363.7 231.6 363.7 231.8C364 236.2 367.3 237.9 371.3 235.6C375.3 233.3 378.6 227.8 378.8 223.1C378.8 222.9 378.8 222.7 378.8 222.5C378.8 220.9 378.4 219.7 377.8 218.8C376.4 216.9 374 216.6 371.2 218.2Z" fill="#2F58FF"/>
<path d="M364.3 190.6L342.8 203C339.6 204.9 336.5 208.5 334.9 212.7L328.5 228.3C328.3 228.7 328.1 229.1 327.7 229.3L315.8 237.7C312.5 240 309.9 244 308.7 248C308.2 249.7 307.9 251.3 308 252.9C308 253.1 308 253.3 308 253.5C308 253.6 308 253.6 308 253.7L308.1 260.1C308.1 261.9 310 262.9 311.5 262.1L315.4 259.8C315.4 259.6 315.4 259.4 315.4 259.2C315.4 257.7 315.6 256.4 316.1 254.8L316.2 254.5C316.3 254 316.5 253.6 316.7 253.1C318.4 248.8 321.5 244.8 324.9 242.9C328.3 240.9 331.5 241.2 333.2 243.6C333.4 243.9 333.5 244.1 333.7 244.4C334.2 245.5 334.5 246.8 334.5 248.3C334.5 248.5 334.5 248.7 334.5 248.9L361.8 233.2C361.8 233 361.8 232.8 361.8 232.6C361.8 231.1 362.1 229.5 362.6 227.8C362.7 227.3 362.9 226.9 363.1 226.4C364.8 222.1 367.9 218.1 371.3 216.2C374.7 214.2 377.8 214.5 379.5 216.9C379.7 217.2 379.8 217.4 380 217.7C380.5 218.8 380.8 220.1 380.8 221.6C380.8 221.8 380.8 222 380.8 222.2L385.6 219.4C386.3 219 386.7 218.2 386.7 217.4V201.9C386.6 191.3 375.6 183.9 364.3 190.6Z" fill="#FFD394"/>
<path d="M300.5 210.8L322.9 223.6C324.5 224.5 326.5 223.8 327.2 222.2L332.5 210.3C333.1 208.9 332.6 207.2 331.2 206.4L308.8 193.7C307.2 192.8 305.2 193.5 304.5 195.1L299.3 206.8C298.6 208.4 299.2 210 300.5 210.8Z" fill="#FFF6EA" stroke="#171A21" stroke-width="2" stroke-miterlimit="10" stroke-linecap="round" stroke-linejoin="round" stroke-dasharray="12 12"/>
<path d="M278.1 231.5C277.3 231.1 276.7 231 276.2 231.3L274.4 232.3C274.9 232 275.6 232.1 276.3 232.5C277.8 233.4 279 235.5 279 237.2C279 238.1 278.7 238.7 278.2 238.9L280 237.9C280.5 237.6 280.8 237 280.8 236.2C280.8 234.5 279.6 232.4 278.1 231.5Z" fill="#FFD394"/>
<path d="M276.4 232.5C277.9 233.4 279.1 235.5 279.1 237.2C279.1 238.9 277.9 239.6 276.4 238.7C274.9 237.8 273.7 235.7 273.7 234C273.7 232.4 274.9 231.7 276.4 232.5Z" fill="#FFD394"/>
<path d="M303.1 245.9C302.3 245.5 301.7 245.4 301.2 245.7L299.4 246.7C299.9 246.4 300.6 246.5 301.3 246.9C302.8 247.8 304 249.9 304 251.6C304 252.5 303.7 253.1 303.2 253.3L305 252.3C305.5 252 305.8 251.4 305.8 250.6C305.8 248.8 304.5 246.7 303.1 245.9Z" fill="#FFD394"/>
<path d="M301.3 246.9C302.8 247.8 304 249.9 304 251.6C304 253.3 302.8 254 301.3 253.1C299.8 252.2 298.6 250.1 298.6 248.4C298.6 246.7 299.8 246 301.3 246.9Z" fill="#FFD394"/>
<path d="M151.8 360.8L237.9 311.1C240.1 309.8 242.9 311.4 242.9 314C242.9 314 242.9 317.2 236.5 320.5L152.1 369.2C148 371.6 142.9 371.6 138.7 369.2L54.7999 320.5C47.8999 316.8 47.8999 314.1 47.8999 314.1C47.8999 311.5 50.6999 309.9 52.8999 311.2L138.4 360.9C142.6 363.2 147.7 363.2 151.8 360.8Z" fill="#2F58FF"/>
<path d="M52.9 311.1L138.4 360.8C142.5 363.2 147.6 363.2 151.8 360.8L237.9 311.1C240.1 309.8 240.1 306.6 237.9 305.3L152.4 255.6C148.3 253.2 143.2 253.2 139 255.6L52.9 305.3C50.7 306.6 50.7 309.9 52.9 311.1Z" fill="#FFD394"/>
<path d="M185.5 314.7C185.3 314.6 185.1 314.5 184.9 314.5L146.4 308.5C145.5 308.4 144.7 308.1 144 307.7C143.3 307.3 142.9 306.8 142.6 306.3L132.3 284.1C132.2 284 132.1 283.9 132 283.8C131.5 283.5 130.7 283.5 130.1 283.8L105.6 298.1C104.3 298.9 103.7 300 104.2 301.1L114.3 322.8C114.6 323.3 115 323.8 115.7 324.2C116.4 324.6 117.2 324.9 118.1 325L155.8 330.8C157.6 331.1 159.6 330.8 161 330L185.5 315.7C186.1 315.4 186 315 185.5 314.7Z" fill="#FFD394" stroke="#2F58FF" stroke-width="2" stroke-miterlimit="10" stroke-linecap="round" stroke-linejoin="round"/>
<path d="M174.9 290C174.2 289.6 173.4 289.3 172.5 289.2L134 283.2C133 283 132.1 283.6 132.4 284.1L142.7 306.3C143 306.8 143.4 307.3 144.1 307.7C144.8 308.1 145.6 308.4 146.5 308.5L185 314.5C186 314.7 186.9 314.1 186.6 313.6L176.3 291.4C176.1 290.8 175.6 290.4 174.9 290Z" fill="#FFD394" stroke="#2F58FF" stroke-width="2" stroke-miterlimit="10" stroke-linecap="round" stroke-linejoin="round"/>
<path d="M1.9999 235.4L53.6999 265.4C56.1999 266.9 59.2999 266.9 61.7999 265.4L113.9 235.3C115.2 234.5 115.2 232.6 113.9 231.8L62.1999 201.8C59.6999 200.3 56.5999 200.3 54.0999 201.8L1.9999 231.9C0.699902 232.7 0.699902 234.6 1.9999 235.4Z" stroke="#171A21" stroke-width="2" stroke-miterlimit="10" stroke-linecap="round" stroke-linejoin="round" stroke-dasharray="12 12"/>
<path d="M127.3 225.6C125.2 224.4 122.3 223.6 119.1 223.6H57.0001C55.5001 223.6 54.1001 223.2 53.1001 222.7C52.1001 222.1 51.5001 221.3 51.5001 220.4L51.3001 210.6C51.3001 208.8 50.0001 207.1 47.9001 205.9C45.8001 204.7 43.0001 204 39.8001 203.9C33.4001 203.9 28.1001 206.9 28.2001 210.6L28.4001 230.2C28.4001 232 29.7001 233.7 31.8001 234.9C33.9001 236.1 36.8001 236.9 40.0001 236.9H119.2C125.6 236.9 130.8 233.9 130.7 230.1C130.7 228.5 129.4 226.8 127.3 225.6Z" fill="#2F58FF"/>
</g>
<defs>
<clipPath id="clip0">
<rect width="391.3" height="371" fill="white"/>
</clipPath>
</defs>
</svg>
