<?xml version="1.0" encoding="utf-8"?>
<!-- Generator: Adobe Illustrator 22.1.0, SVG Export Plug-In . SVG Version: 6.00 Build 0)  -->
<svg version="1.1" id="Слой_1" xmlns="http://www.w3.org/2000/svg" xmlns:xlink="http://www.w3.org/1999/xlink" x="0px" y="0px"
	 viewBox="0 0 1669 872" style="enable-background:new 0 0 1669 872;" xml:space="preserve">
<style type="text/css">
	.st0{fill:#FFD394;}
	.st1{fill:#2F58FF;}
	.st2{fill:#9AF4DC;}
	.st3{fill:#FB7070;}
	.st4{fill:none;stroke:#171A21;stroke-width:2;stroke-linecap:round;stroke-linejoin:round;stroke-dasharray:12,12;}
	.st5{fill:none;stroke:#171A21;stroke-width:2;}
	.st6{fill:none;stroke:#171A21;stroke-width:2;stroke-linejoin:round;}
</style>
<path class="st0" d="M1123.6,1061.8L252.2,558.7c-138.9,240.6-56.5,548.3,184.1,687.2C677,1384.8,984.6,1302.4,1123.6,1061.8z"/>
<path class="st1" d="M721.6,248.7l-33.7,561.5l435.7,251.5l33.7-561.5L721.6,248.7z"/>
<path class="st2" d="M687.9,810.2L252.2,558.7l469.4-309.9L687.9,810.2z"/>
<path class="st3" d="M252.2,558.7l435.7,251.5l-391.3,316.4C169.5,969.5,145.1,744.1,252.2,558.7z"/>
<path class="st4" d="M254.8,546l435.7,251.5L299.2,1114C172.2,956.8,147.8,731.5,254.8,546z"/>
<path class="st5" d="M1244,536.5L1006,397"/>
<path class="st0" d="M1597.8,55.6L726.4-447.5c-138.9,240.6-56.5,548.3,184.1,687.2C1151.2,378.7,1458.9,296.3,1597.8,55.6z"/>
<path class="st2" d="M1195.8-757.4l-33.7,561.5l435.7,251.5l33.7-561.5L1195.8-757.4z"/>
<path class="st2" d="M726.4-447.5l435.7,251.5L770.8,120.5C643.8-36.6,619.3-262,726.4-447.5z"/>
<path class="st6" d="M1149.1-183.9L757.8,132.5c-34.7-43-61.8-91.1-80.6-142"/>
</svg>
