<svg width="144" height="144" viewBox="0 0 144 144" fill="none" xmlns="http://www.w3.org/2000/svg">
<g clip-path="url(#clip0)">
<path d="M35.8511 143.006C55.1026 143.006 70.709 127.389 70.709 108.124C70.709 88.8594 55.1026 73.2422 35.8511 73.2422C16.5996 73.2422 0.993164 88.8594 0.993164 108.124C0.993164 127.389 16.5996 143.006 35.8511 143.006Z" fill="#2F58FF"/>
<path d="M70.709 108.124C70.709 110.609 70.4111 113.093 69.9145 115.478C66.2401 117.267 65.0483 121.64 60.6787 119.354C57.2028 117.565 59.7849 114.186 57.6994 112.894C54.2235 110.807 52.9325 113.789 49.3573 113.491C43.2001 112.894 45.8814 106.634 37.6387 101.764C35.2552 100.373 29.3959 101.267 28.5021 97.6895C27.509 93.5155 34.858 93.7143 36.3476 92.0249C37.6387 90.5342 35.4539 87.4534 36.6456 86.2609C39.4263 83.5777 42.0083 86.8572 48.2649 84.7702C51.8401 83.5777 51.8401 79.1056 52.8332 78.5093C53.0318 78.3106 53.3297 78.2112 53.5283 78.1118C63.7573 84.1739 70.709 95.3044 70.709 108.124ZM11.5201 133.068C14.4001 132.87 14.0028 128.199 14.7973 125.317C15.2939 123.627 17.7766 122.335 17.578 120.248C17.3794 118.162 14.2014 116.87 14.1021 114.783C14.0028 111.106 19.5642 110.012 18.4718 106.435C17.9752 104.646 14.9959 104.248 13.9035 103.354C12.8111 102.46 11.7187 99.5777 10.4276 97.1926C8.93799 94.5093 7.0511 93.0187 4.86627 91.7267C2.48282 96.6957 0.993164 102.261 0.993164 108.124C0.993164 117.963 5.06489 126.807 11.5201 133.068ZM51.4428 139.329C51.4428 139.329 51.4428 139.23 51.4428 139.329C50.7476 138.236 49.6552 137.54 48.4635 137.242C47.967 137.143 47.4704 137.044 46.9739 136.745C45.8814 136.149 45.3849 134.957 44.2925 134.559C43.2994 134.162 42.1076 134.658 41.2139 135.354C40.3201 136.05 39.7242 137.044 38.8304 137.739C37.4401 138.832 35.5532 139.329 33.6663 139.329C32.1766 139.329 30.5876 139.23 29.098 139.627C27.9063 139.925 26.8139 140.721 26.4166 141.814C29.3959 142.708 32.5739 143.106 35.8511 143.106C41.4125 143.006 46.7752 141.615 51.4428 139.329Z" fill="#E8F4FA"/>
<path d="M52.8332 78.5093C53.0318 78.3106 53.3297 78.2112 53.5283 78.1118C63.7573 84.1739 70.709 95.4037 70.709 108.124C70.709 110.609 70.4111 113.093 69.9145 115.478M5.06489 91.8261C2.48282 96.6957 0.993164 102.261 0.993164 108.124C0.993164 117.863 5.06489 126.708 11.5201 133.068M26.3173 141.714C29.2966 142.609 32.4745 143.006 35.7518 143.006C41.4125 143.006 46.6759 141.714 51.3435 139.329" stroke="#171A21" stroke-width="2" stroke-miterlimit="10" stroke-linecap="round" stroke-linejoin="round"/>
<path d="M43.399 46.3105C43.399 46.0123 43.2997 45.7142 43.2997 45.4161C43.2997 45.1179 43.2004 44.8198 43.1011 44.4223C43.1011 44.2235 43.0018 44.0248 43.0018 43.7266C43.0018 43.5279 42.9025 43.3291 42.8032 43.1304C42.7039 42.8322 42.7039 42.5341 42.6046 42.2359C42.6046 42.0372 42.5052 41.9378 42.4059 41.739C42.3066 41.4409 42.2073 41.1428 42.108 40.7453C42.108 40.6459 42.0087 40.4471 42.0087 40.3477C41.8101 39.9502 41.7108 39.4533 41.5121 39.0558C41.5121 39.0558 41.5121 38.9564 41.4128 38.9564C41.2142 38.5589 41.0156 38.1614 40.817 37.7639C40.7177 37.6645 40.7177 37.5651 40.6183 37.3664C40.4197 36.9689 40.2211 36.6707 40.0225 36.2732C40.0225 36.1738 39.9232 36.1738 39.9232 36.0744C39.7246 35.6769 39.4266 35.2794 39.1287 34.8819C39.0294 34.7825 38.9301 34.6831 38.9301 34.5838C38.7315 34.2856 38.5328 33.9875 38.3342 33.6894C38.2349 33.4906 38.1356 33.3912 38.0363 33.1925C37.8377 32.9937 37.639 32.6956 37.5397 32.4968C37.3411 32.2981 37.2418 32.0993 37.0432 31.9005C36.8446 31.7018 36.7452 31.6024 36.5466 31.4036C36.2487 31.1055 36.0501 30.8074 35.7521 30.5092C35.5535 30.3105 35.4542 30.2111 35.2556 30.0123C35.1563 29.913 34.9577 29.7142 34.8583 29.6148C34.6597 29.4161 34.3618 29.2173 34.1632 29.0185C34.0639 28.9192 33.8652 28.8198 33.7659 28.7204C33.5673 28.5217 33.2694 28.3229 32.9715 28.1241C32.8721 28.0248 32.7728 27.9254 32.5742 27.826C32.177 27.5279 31.7797 27.3291 31.4818 27.1303C31.0846 26.9316 30.7866 26.7328 30.3894 26.5341C30.2901 26.5341 30.1908 26.4347 30.0915 26.4347C29.6942 26.2359 29.3963 26.1366 29.0983 26.0372C29.0983 26.0372 29.0983 26.0372 28.999 26.0372C28.7011 25.9378 28.4032 25.8384 28.1052 25.8384C27.9066 25.8384 27.8073 25.739 27.6087 25.739C27.4101 25.739 27.2115 25.6397 27.0128 25.6397C26.9135 25.6397 26.8142 25.6397 26.6156 25.6397C26.3177 25.6397 26.119 25.6397 25.8211 25.6397C25.7218 25.6397 25.7218 25.6397 25.6225 25.6397C25.3246 25.6397 25.0266 25.739 24.7287 25.739C24.6294 25.739 24.6294 25.739 24.5301 25.739C24.3315 25.8384 24.1328 25.8384 23.8349 25.9378C23.7356 25.9378 23.7356 25.9378 23.6363 26.0372C23.3383 26.1366 23.1397 26.2359 22.8418 26.4347L32.7728 20.8695C32.7728 20.8695 32.7728 20.8695 32.8721 20.8695C33.0708 20.7701 33.2694 20.6707 33.468 20.5713H33.5673C33.6666 20.5713 33.6666 20.5713 33.7659 20.472C33.8652 20.472 33.9646 20.3726 34.0639 20.3726C34.1632 20.3726 34.2625 20.2732 34.3618 20.2732C34.4611 20.2732 34.4611 20.2732 34.5604 20.2732H34.6597C34.8583 20.2732 35.1563 20.1738 35.3549 20.1738C35.4542 20.1738 35.4542 20.1738 35.5535 20.1738C35.7521 20.1738 35.9508 20.1738 36.1494 20.1738C36.2487 20.1738 36.2487 20.1738 36.348 20.1738C36.4473 20.1738 36.5466 20.1738 36.7452 20.1738C36.8446 20.1738 36.9439 20.1738 37.0432 20.1738C37.1425 20.1738 37.2418 20.1738 37.3411 20.2732C37.5397 20.2732 37.639 20.3726 37.8377 20.3726C37.937 20.3726 38.0363 20.3726 38.1356 20.472C38.3342 20.5713 38.5328 20.5713 38.7315 20.6707C38.7315 20.6707 38.7314 20.6707 38.8308 20.6707C39.0294 20.7701 39.3273 20.8695 39.5259 20.9689C39.6252 20.9689 39.7246 21.0682 39.8239 21.0682C39.9232 21.0682 40.0225 21.1676 40.1218 21.1676C40.519 21.3664 40.817 21.5651 41.2142 21.7639C41.6115 21.9626 42.0087 22.2608 42.3066 22.4595C42.4059 22.5589 42.5052 22.6583 42.7039 22.7577C43.0018 22.9564 43.2004 23.1552 43.4983 23.354C43.5977 23.4533 43.7963 23.5527 43.8956 23.6521C44.0942 23.8508 44.3921 24.0496 44.5908 24.2484C44.6901 24.3477 44.8887 24.4471 44.988 24.6459C45.0873 24.7453 45.1866 24.8446 45.2859 24.8446C45.3852 24.944 45.4846 25.0434 45.5839 25.1428C45.8818 25.4409 46.0804 25.739 46.3783 26.0372C46.4777 26.1366 46.577 26.2359 46.6763 26.3353C46.7756 26.4347 46.7756 26.5341 46.8749 26.5341C47.0735 26.7328 47.1728 26.9316 47.3715 27.1303C47.4708 27.2297 47.5701 27.3291 47.6694 27.5279C47.7687 27.6272 47.868 27.7266 47.868 27.826C47.9673 28.0248 48.0666 28.1241 48.1659 28.3229C48.2652 28.4223 48.3646 28.5217 48.3646 28.621C48.4639 28.8198 48.5632 29.0185 48.7618 29.2173C48.8611 29.3167 48.9604 29.4161 48.9604 29.5154L49.0597 29.6148C49.2583 29.913 49.457 30.3105 49.6556 30.6086C49.6556 30.6086 49.6556 30.6086 49.6556 30.708C49.6556 30.8074 49.7549 30.8074 49.7549 30.9067C49.8542 31.1055 50.0528 31.4036 50.1521 31.6024C50.2514 31.7018 50.2515 31.8012 50.3508 31.9999C50.4501 32.0993 50.4501 32.1987 50.5494 32.3974C50.6487 32.4968 50.6487 32.5962 50.748 32.6956C50.8473 32.9937 51.0459 33.2918 51.1452 33.59C51.1452 33.59 51.1452 33.6894 51.2446 33.6894C51.4432 34.0869 51.5425 34.385 51.6418 34.7825C51.6418 34.8819 51.6418 34.8819 51.7411 34.9813C51.8404 35.0807 51.8404 35.2794 51.8404 35.3788C51.9397 35.5776 51.9397 35.7763 52.039 35.8757C52.039 35.9751 52.1383 36.1738 52.1383 36.2732C52.2377 36.472 52.2377 36.5713 52.337 36.7701C52.337 36.8695 52.4363 36.9689 52.4363 37.0682C52.5356 37.267 52.5356 37.4658 52.5356 37.6645C52.6349 37.8633 52.6349 38.062 52.7342 38.2608C52.7342 38.3602 52.7342 38.3602 52.8335 38.4595C52.8335 38.5589 52.8335 38.7577 52.9328 38.8571C53.0321 39.1552 53.0321 39.4533 53.1315 39.8508C53.1315 39.9502 53.1315 40.0496 53.1315 40.149C53.1315 40.3477 53.1314 40.5465 53.2308 40.7453C53.2308 40.8446 53.2308 41.0434 53.2308 41.1428C53.2308 41.5403 53.3301 42.0372 53.3301 42.4347C53.3301 46.2111 51.9397 48.8943 49.8542 50.0869L40.1218 55.7515C42.3066 54.4595 43.5977 51.8757 43.5977 48.0993C43.5977 47.7018 43.5977 47.2049 43.4983 46.8074C43.4983 46.6086 43.4983 46.4099 43.399 46.3105Z" fill="#2F58FF"/>
<path d="M31.581 27.3293C24.9272 23.5529 19.5645 26.5342 19.5645 34.1864C19.5645 41.7392 24.9272 51.0808 31.4817 54.8572C38.1355 58.6336 43.4982 55.6522 43.4982 48.0001C43.5976 40.4473 38.2348 31.205 31.581 27.3293Z" fill="#E8F4FA"/>
<path d="M26.0196 25.7393C22.2458 25.8386 19.6638 28.9194 19.5645 34.1865C19.5645 41.7393 24.9272 51.0809 31.4817 54.8573C36.6458 57.8386 41.0155 56.6461 42.7038 52.2734" stroke="#171A21" stroke-width="2" stroke-miterlimit="10" stroke-linecap="round" stroke-linejoin="round"/>
<path d="M47.0732 42.1367L95.7353 86.9566" stroke="#171A21" stroke-width="2" stroke-miterlimit="10" stroke-linecap="round" stroke-linejoin="round"/>
<path d="M96.5299 92.2235C96.4305 91.6272 96.4305 91.1303 96.3312 90.5341C96.2319 89.9378 96.1326 89.3415 96.0333 88.7452C95.934 88.3477 95.8347 87.9502 95.8347 87.4533C95.7354 87.0558 95.6361 86.6583 95.5368 86.2608C95.4374 85.7639 95.2388 85.1676 95.1395 84.6707C95.0402 84.3726 94.9409 84.0744 94.8416 83.6769C94.643 83.0806 94.4443 82.4844 94.2457 81.8881C94.1464 81.59 94.0471 81.3912 93.9478 81.0931C93.6499 80.298 93.2526 79.4036 92.9547 78.6086C92.9547 78.5092 92.8554 78.4098 92.8554 78.3105C92.5574 77.5154 92.1602 76.8198 91.763 76.0247C91.6637 75.826 91.5643 75.5279 91.3657 75.3291C90.9685 74.6334 90.6706 73.9378 90.2733 73.2421C90.174 73.1427 90.0747 72.944 90.0747 72.8446C89.5781 72.0496 89.0816 71.2546 88.585 70.4595C88.4857 70.2608 88.2871 70.062 88.1878 69.7639C87.7906 69.1676 87.3933 68.6707 87.0954 68.0744C86.8968 67.7763 86.6981 67.4782 86.4995 67.18C86.2016 66.6831 85.8043 66.2856 85.5064 65.8881C85.2085 65.4906 84.9105 65.1924 84.6126 64.7949C84.3147 64.4968 84.0168 64.0993 83.7188 63.8011C83.2223 63.2049 82.7257 62.708 82.2292 62.2111C81.9312 61.9129 81.534 61.5154 81.2361 61.2173C80.9381 61.0185 80.7395 60.7204 80.4416 60.5216C80.0443 60.1241 79.5478 59.7266 79.1505 59.4285C78.8526 59.2297 78.654 59.031 78.3561 58.7328C77.8595 58.3353 77.363 58.0372 76.8664 57.6396C76.6678 57.4409 76.3699 57.3415 76.1712 57.1428C75.4761 56.6459 74.6816 56.149 73.9864 55.7514C73.2912 55.3539 72.5961 54.9564 71.9009 54.6583C71.7023 54.5589 71.5037 54.4595 71.4043 54.4595C70.7092 54.1614 70.1133 53.8632 69.4181 53.6645H69.3188C68.723 53.4657 68.2264 53.3664 67.6305 53.1676C67.3326 53.0682 67.0347 53.0682 66.7368 52.9688C66.3395 52.8695 65.9423 52.8695 65.545 52.7701C65.3464 52.7701 65.0485 52.6707 64.8499 52.6707C64.3533 52.6707 63.8568 52.6707 63.3602 52.6707C63.2609 52.6707 63.1616 52.6707 63.0623 52.6707C62.4664 52.6707 61.8706 52.7701 61.374 52.8695C61.2747 52.8695 61.0761 52.9688 60.9768 52.9688C60.5795 53.0682 60.083 53.1676 59.6857 53.3664C59.5864 53.3664 59.3878 53.4657 59.2885 53.4657C58.7919 53.6645 58.2954 53.8632 57.7988 54.1614L76.4692 43.3291C76.4692 43.3291 76.5685 43.3291 76.5685 43.2297C76.9657 43.031 77.363 42.8322 77.7602 42.6334C77.8595 42.6334 77.9588 42.5341 77.9588 42.5341C78.0581 42.4347 78.2568 42.4347 78.3561 42.4347C78.5547 42.3353 78.7533 42.2359 78.9519 42.2359C79.1506 42.1365 79.3492 42.1365 79.6471 42.0372C79.7464 42.0372 79.945 41.9378 80.0443 41.9378C80.1437 41.9378 80.1437 41.9378 80.243 41.8384C80.7395 41.739 81.1368 41.739 81.6333 41.6396H81.7326C81.8319 41.6396 81.9312 41.6396 82.0305 41.6396C82.4278 41.6396 82.7257 41.6396 83.123 41.6396C83.2223 41.6396 83.4209 41.6396 83.5202 41.6396C83.7188 41.6396 84.0168 41.6396 84.2154 41.739C84.414 41.739 84.6126 41.739 84.8112 41.8384C85.0099 41.8384 85.2085 41.9378 85.4071 41.9378C85.705 42.0372 86.003 42.0372 86.3009 42.1365C86.4995 42.1365 86.5988 42.2359 86.7974 42.2359C87.1947 42.3353 87.5919 42.4347 87.9892 42.6334H88.0885C88.585 42.8322 88.9823 42.9316 89.4788 43.1303C89.6774 43.2297 89.8761 43.3291 90.0747 43.4285C90.2733 43.5278 90.4719 43.6272 90.5712 43.7266C91.2664 44.0247 91.9616 44.4223 92.6568 44.8198C93.3519 45.2173 94.1464 45.7142 94.8416 46.2111C95.0402 46.4098 95.3381 46.5092 95.5368 46.708C96.0333 47.1055 96.5299 47.4036 97.0264 47.8011C97.3243 47.9999 97.523 48.1987 97.8209 48.4968C98.2181 48.8943 98.7147 49.2918 99.1119 49.59C99.4099 49.7887 99.6085 50.0869 99.9064 50.2856C100.105 50.4844 100.204 50.5837 100.403 50.7825C100.602 50.9813 100.701 51.18 100.9 51.2794C101.396 51.7763 101.893 52.3726 102.389 52.8695C102.588 53.0682 102.687 53.1676 102.886 53.3664C102.985 53.5651 103.184 53.6645 103.283 53.8633C103.581 54.2608 103.879 54.5589 104.177 54.9564C104.375 55.1552 104.574 55.4533 104.773 55.6521C104.971 55.8508 105.071 56.0496 105.269 56.2483C105.468 56.5465 105.666 56.8446 105.865 57.1428C105.964 57.3415 106.163 57.5403 106.262 57.739C106.461 58.0372 106.759 58.4347 106.957 58.8322C107.057 59.031 107.255 59.2297 107.355 59.5278C107.454 59.6272 107.454 59.7266 107.553 59.826C107.951 60.4223 108.348 61.1179 108.745 61.8136C108.745 61.8136 108.745 61.9129 108.844 61.9129C108.944 62.0123 109.043 62.2111 109.043 62.3105C109.341 62.8074 109.54 63.2049 109.837 63.7018C109.937 63.9005 110.036 64.0993 110.135 64.3974C110.235 64.5962 110.334 64.8943 110.533 65.0931C110.632 65.2918 110.731 65.4906 110.831 65.6893C111.128 66.1862 111.327 66.7825 111.625 67.2794C111.625 67.3788 111.724 67.4782 111.724 67.5775V67.6769C112.022 68.3726 112.32 69.0682 112.519 69.7639C112.519 69.8632 112.618 70.062 112.618 70.1614C112.717 70.4595 112.817 70.6583 112.916 70.9564C113.015 71.2546 113.214 71.6521 113.313 71.9502C113.413 72.2483 113.512 72.4471 113.512 72.7452C113.611 73.0434 113.711 73.3415 113.81 73.739C113.909 73.9378 113.909 74.1365 114.008 74.3353C114.108 74.7328 114.207 75.031 114.306 75.4285C114.406 75.826 114.505 76.2235 114.604 76.621C114.604 76.7204 114.704 76.9192 114.704 77.0185C114.803 77.3167 114.803 77.6148 114.803 77.8136C114.902 78.4098 115.002 79.0061 115.101 79.6024C115.101 79.8011 115.2 79.9005 115.2 80.0993C115.3 80.4968 115.3 80.8943 115.3 81.1924C115.3 81.4906 115.399 81.6893 115.399 81.9875C115.498 82.8819 115.498 83.6769 115.498 84.5713C115.498 91.826 112.916 96.8943 108.844 99.2794L89.9754 110.31C94.0471 107.925 96.6292 102.857 96.6292 95.6024C96.6292 94.8073 96.6292 93.9129 96.5299 93.0185C96.6292 92.8198 96.5299 92.5216 96.5299 92.2235Z" fill="#2F58FF"/>
<path d="M73.7878 55.95C61.0761 48.596 50.8471 54.5587 50.7478 69.068C50.6485 83.5773 60.9767 101.366 73.5892 108.72C86.3009 116.074 96.5299 110.111 96.6292 95.6022C96.7285 80.9935 86.4995 63.304 73.7878 55.95Z" fill="white"/>
<path d="M63.062 52.77C55.8124 52.9688 50.8469 58.9315 50.7476 69.0682C50.7476 83.6769 60.9765 101.366 73.5889 108.72C83.52 114.484 91.9614 112.099 95.2386 103.851" stroke="#171A21" stroke-width="2" stroke-miterlimit="10" stroke-linecap="round" stroke-linejoin="round"/>
<path d="M104.574 93.416L141.716 127.602" stroke="#171A21" stroke-width="2" stroke-miterlimit="10" stroke-linecap="round" stroke-linejoin="round"/>
<path d="M132.877 130.286C132.877 129.988 132.778 129.69 132.778 129.391C132.679 129.093 132.679 128.696 132.579 128.298C132.579 128.1 132.48 127.801 132.48 127.603C132.381 127.404 132.381 127.106 132.281 126.907C132.182 126.609 132.083 126.311 131.983 126.013C131.884 125.814 131.884 125.615 131.785 125.516C131.686 125.118 131.586 124.82 131.388 124.423C131.288 124.323 131.288 124.124 131.189 124.025C130.99 123.528 130.792 123.031 130.593 122.634C130.593 122.534 130.593 122.534 130.494 122.435C130.295 122.037 130.097 121.541 129.898 121.143C129.799 121.044 129.799 120.845 129.699 120.746C129.501 120.348 129.302 119.951 129.103 119.553C129.103 119.454 129.004 119.354 129.004 119.354C128.706 118.857 128.508 118.46 128.21 117.963C128.11 117.864 128.011 117.665 127.912 117.565C127.713 117.267 127.514 116.969 127.217 116.671C127.117 116.472 127.018 116.373 126.819 116.174C126.621 115.876 126.422 115.677 126.223 115.379C126.025 115.18 125.926 114.982 125.727 114.783C125.528 114.584 125.429 114.385 125.23 114.187C124.932 113.888 124.634 113.59 124.337 113.292C124.138 113.093 123.939 112.895 123.741 112.696C123.641 112.596 123.443 112.398 123.343 112.298C123.145 112.1 122.847 111.901 122.648 111.603C122.549 111.503 122.35 111.305 122.152 111.205C121.854 111.006 121.556 110.808 121.357 110.609C121.258 110.51 121.059 110.41 120.96 110.311C120.563 110.013 120.166 109.714 119.669 109.516C119.272 109.317 118.874 109.118 118.477 108.919C118.378 108.919 118.279 108.82 118.179 108.82C117.782 108.621 117.385 108.522 117.087 108.323C117.087 108.323 117.087 108.323 116.988 108.323C116.69 108.224 116.392 108.124 115.994 108.025C115.796 108.025 115.597 107.926 115.498 107.926C115.299 107.926 115.001 107.826 114.803 107.826C114.703 107.826 114.505 107.826 114.406 107.826C114.108 107.826 113.81 107.826 113.611 107.826C113.512 107.826 113.512 107.826 113.412 107.826C113.114 107.826 112.717 107.926 112.419 107.926C112.32 107.926 112.221 107.926 112.221 108.025C112.022 108.124 111.724 108.124 111.526 108.224C111.426 108.224 111.327 108.323 111.327 108.323C111.029 108.423 110.731 108.621 110.433 108.721L121.059 102.559C121.059 102.559 121.059 102.559 121.159 102.559C121.357 102.46 121.556 102.36 121.854 102.261H121.953C122.052 102.261 122.052 102.162 122.152 102.162C122.251 102.162 122.35 102.062 122.45 102.062C122.549 102.062 122.748 101.963 122.847 101.963C122.946 101.963 123.046 101.963 123.046 101.864H123.145C123.443 101.864 123.641 101.764 123.939 101.764C123.939 101.764 123.939 101.764 124.039 101.764C124.138 101.764 124.138 101.764 124.237 101.764C124.436 101.764 124.634 101.764 124.833 101.764C124.932 101.764 124.932 101.764 125.032 101.764C125.131 101.764 125.33 101.764 125.429 101.764C125.528 101.764 125.628 101.764 125.826 101.764C125.926 101.764 126.025 101.764 126.124 101.864C126.323 101.864 126.521 101.963 126.621 101.963C126.72 101.963 126.819 101.963 126.919 102.062C127.117 102.162 127.316 102.162 127.614 102.261C127.614 102.261 127.614 102.261 127.713 102.261C128.011 102.36 128.21 102.46 128.508 102.559C128.607 102.559 128.706 102.659 128.806 102.659C128.905 102.659 129.004 102.758 129.103 102.758C129.501 102.957 129.898 103.155 130.295 103.354C130.692 103.553 131.09 103.851 131.586 104.149C131.686 104.249 131.884 104.348 131.983 104.447C132.281 104.646 132.579 104.845 132.778 105.044C132.977 105.143 133.076 105.242 133.175 105.441C133.473 105.64 133.672 105.839 133.87 106.137C133.97 106.236 134.168 106.435 134.268 106.534C134.367 106.634 134.466 106.733 134.566 106.832C134.665 106.932 134.764 107.031 134.863 107.131C135.161 107.429 135.459 107.727 135.757 108.025C135.857 108.124 135.956 108.224 136.055 108.323C136.154 108.423 136.154 108.522 136.254 108.621C136.452 108.82 136.552 109.019 136.75 109.218C136.85 109.317 136.949 109.516 137.048 109.615C137.148 109.714 137.247 109.814 137.346 110.013C137.446 110.211 137.545 110.311 137.743 110.509C137.843 110.609 137.942 110.708 137.942 110.808C138.041 111.006 138.24 111.205 138.339 111.404C138.439 111.503 138.538 111.702 138.637 111.801C138.637 111.901 138.737 111.901 138.737 112C138.935 112.398 139.233 112.696 139.432 113.093V113.193C139.432 113.292 139.531 113.391 139.531 113.391C139.63 113.69 139.829 113.888 139.928 114.187C140.028 114.286 140.028 114.485 140.127 114.584C140.226 114.683 140.226 114.882 140.326 114.982C140.425 115.081 140.425 115.18 140.524 115.28C140.723 115.578 140.822 115.876 140.921 116.174C140.921 116.273 141.021 116.273 141.021 116.373C141.219 116.77 141.319 117.168 141.517 117.565C141.517 117.665 141.617 117.665 141.617 117.764C141.716 117.864 141.716 118.062 141.815 118.162C141.914 118.36 141.914 118.559 142.014 118.758C142.113 118.957 142.113 119.056 142.113 119.255C142.212 119.454 142.212 119.652 142.312 119.752C142.312 119.851 142.411 119.951 142.411 120.05C142.51 120.249 142.51 120.447 142.51 120.646C142.61 120.845 142.61 121.143 142.709 121.342C142.709 121.441 142.709 121.541 142.808 121.541C142.808 121.739 142.908 121.839 142.908 122.037C143.007 122.435 143.007 122.733 143.106 123.131C143.106 123.23 143.106 123.329 143.206 123.429C143.206 123.628 143.206 123.826 143.305 124.124C143.305 124.323 143.305 124.423 143.305 124.621C143.305 125.118 143.404 125.615 143.404 126.112C143.404 130.286 141.914 133.168 139.531 134.559L128.905 140.721C131.288 139.329 132.679 136.447 132.778 132.273C132.778 131.777 132.778 131.28 132.679 130.783C132.977 130.584 132.877 130.485 132.877 130.286Z" fill="#2F58FF"/>
<path d="M119.968 109.516C112.718 105.342 106.859 108.721 106.859 116.969C106.859 125.317 112.718 135.454 119.968 139.628C127.218 143.802 133.077 140.423 133.077 132.075C133.077 123.727 127.218 113.789 119.968 109.516Z" fill="#E8F4FA"/>
<path d="M113.81 107.727C109.639 107.826 106.858 111.205 106.759 117.069C106.759 125.416 112.618 135.553 119.868 139.727C125.528 143.007 130.395 141.615 132.182 136.944" stroke="#171A21" stroke-width="2" stroke-miterlimit="10" stroke-linecap="round" stroke-linejoin="round"/>
<path d="M86.4004 56.1491L104.078 26.5342" stroke="#171A21" stroke-width="2" stroke-miterlimit="10" stroke-linecap="round" stroke-linejoin="round"/>
<path d="M111.625 28.7205C111.625 28.4223 111.526 28.1242 111.526 27.8261C111.427 27.5279 111.427 27.1304 111.327 26.7329C111.327 26.5341 111.228 26.236 111.228 26.0372C111.129 25.8385 111.129 25.5403 111.029 25.3416C110.93 25.0435 110.831 24.7453 110.731 24.4472C110.632 24.2484 110.632 24.0497 110.533 23.9503C110.434 23.5528 110.334 23.2546 110.136 22.8571C110.036 22.7577 110.036 22.559 109.937 22.4596C109.738 21.9627 109.54 21.4658 109.341 21.0683C109.341 20.9689 109.341 20.9689 109.242 20.8695C109.043 20.472 108.845 19.9751 108.646 19.5776C108.547 19.4782 108.547 19.2795 108.447 19.1801C108.249 18.7826 108.05 18.3851 107.851 17.9876C107.851 17.8882 107.752 17.7888 107.752 17.7888C107.454 17.2919 107.256 16.8944 106.958 16.3975C106.858 16.2981 106.759 16.0994 106.66 16C106.461 15.7018 106.263 15.4037 105.965 15.1056C105.865 14.9068 105.766 14.8074 105.567 14.6087C105.369 14.3105 105.17 14.1118 104.971 13.8136C104.773 13.6149 104.674 13.4161 104.475 13.2174C104.276 13.0186 104.177 12.8198 103.978 12.6211C103.68 12.323 103.383 12.0248 103.085 11.7267C102.886 11.5279 102.687 11.3292 102.489 11.1304C102.389 11.031 102.191 10.8323 102.091 10.7329C101.893 10.5341 101.595 10.3354 101.396 10.0372C101.297 9.93786 101.098 9.7391 100.9 9.63973C100.602 9.44097 100.304 9.24221 100.105 9.04345C100.006 8.94407 99.8074 8.8447 99.708 8.74532C99.3108 8.44718 98.9136 8.14904 98.417 7.95028C98.0198 7.75153 97.6225 7.55277 97.2253 7.35401C97.126 7.35401 97.0267 7.25463 96.9274 7.25463C96.5301 7.05587 96.1329 6.9565 95.8349 6.75774C95.8349 6.75774 95.8349 6.75774 95.7356 6.75774C95.4377 6.65836 95.1398 6.55898 94.7425 6.4596C94.5439 6.4596 94.3453 6.36022 94.246 6.36022C94.0474 6.36022 93.7494 6.26084 93.5508 6.26084C93.4515 6.26084 93.2529 6.26084 93.1536 6.26084C92.8556 6.26084 92.5577 6.26084 92.3591 6.26084C92.2598 6.26084 92.2598 6.26084 92.1605 6.26084C91.8625 6.26084 91.4653 6.36022 91.1674 6.36022C91.068 6.36022 90.9687 6.36022 90.9687 6.4596C90.7701 6.55898 90.4722 6.55898 90.2736 6.65836C90.1743 6.65836 90.0749 6.75774 90.0749 6.75774C89.777 6.85712 89.4791 7.05587 89.1812 7.15525L99.8074 0.993762C99.8074 0.993762 99.8074 0.993762 99.9067 0.993762C100.105 0.894383 100.304 0.795004 100.602 0.695625H100.701C100.8 0.695625 100.8 0.596246 100.9 0.596246C100.999 0.596246 101.098 0.496867 101.198 0.496867C101.297 0.496867 101.496 0.397488 101.595 0.397488C101.694 0.397488 101.794 0.397488 101.794 0.298109H101.893C102.191 0.298109 102.389 0.19873 102.687 0.19873C102.687 0.19873 102.687 0.19873 102.787 0.19873C102.886 0.19873 102.886 0.19873 102.985 0.19873C103.184 0.19873 103.383 0.19873 103.581 0.19873C103.68 0.19873 103.68 0.19873 103.78 0.19873C103.879 0.19873 104.078 0.19873 104.177 0.19873C104.276 0.19873 104.376 0.19873 104.574 0.19873C104.674 0.19873 104.773 0.19873 104.872 0.298109C105.071 0.298109 105.269 0.397488 105.369 0.397488C105.468 0.397488 105.567 0.397488 105.667 0.496867C105.865 0.596246 106.064 0.596246 106.362 0.695625C106.362 0.695625 106.362 0.695625 106.461 0.695625C106.759 0.795004 106.958 0.894383 107.256 0.993762C107.355 0.993762 107.454 1.09314 107.554 1.09314C107.653 1.09314 107.752 1.19252 107.851 1.19252C108.249 1.39128 108.646 1.59003 109.043 1.78879C109.44 1.98755 109.838 2.28569 110.334 2.58382C110.434 2.6832 110.632 2.78258 110.731 2.88196C111.029 3.08072 111.327 3.27948 111.526 3.47823C111.725 3.57761 111.824 3.67699 111.923 3.87575C112.221 4.07451 112.42 4.27327 112.618 4.5714C112.718 4.67078 112.916 4.86954 113.016 4.96892C113.115 5.0683 113.214 5.16768 113.314 5.26705C113.413 5.36643 113.512 5.46581 113.611 5.56519C113.909 5.86333 114.207 6.16146 114.505 6.4596C114.605 6.55898 114.704 6.65836 114.803 6.75774C114.903 6.85712 114.903 6.9565 115.002 7.05587C115.2 7.25463 115.3 7.45339 115.498 7.65215C115.598 7.75153 115.697 7.95028 115.796 8.04966C115.896 8.14904 115.995 8.24842 116.094 8.44718C116.194 8.64594 116.293 8.74532 116.491 8.94407C116.591 9.04345 116.69 9.14283 116.69 9.24221C116.789 9.44097 116.988 9.63973 117.087 9.83848C117.187 9.93786 117.286 10.1366 117.385 10.236C117.385 10.3354 117.485 10.3354 117.485 10.4348C117.683 10.8323 117.981 11.1304 118.18 11.5279V11.6273C118.18 11.7267 118.279 11.8261 118.279 11.8261C118.378 12.1242 118.577 12.323 118.676 12.6211C118.776 12.7205 118.776 12.9192 118.875 13.0186C118.974 13.118 118.974 13.3167 119.074 13.4161C119.173 13.5155 119.173 13.6149 119.272 13.7143C119.471 14.0124 119.57 14.3105 119.669 14.6087C119.669 14.708 119.769 14.708 119.769 14.8074C119.967 15.2049 120.067 15.6025 120.265 16C120.265 16.0994 120.365 16.0994 120.365 16.1987C120.464 16.2981 120.464 16.4969 120.563 16.5962C120.663 16.795 120.663 16.9938 120.762 17.1925C120.861 17.3913 120.861 17.4907 120.861 17.6894C120.96 17.8882 120.96 18.0869 121.06 18.1863C121.06 18.2857 121.159 18.3851 121.159 18.4844C121.258 18.6832 121.258 18.882 121.258 19.0807C121.358 19.2795 121.358 19.5776 121.457 19.7764C121.457 19.8758 121.457 19.9751 121.556 19.9751C121.556 20.1739 121.656 20.2733 121.656 20.472C121.755 20.8695 121.755 21.1677 121.854 21.5652C121.854 21.6646 121.854 21.764 121.854 21.8633C121.854 22.0621 121.854 22.2608 121.954 22.559C121.954 22.7577 121.954 22.8571 121.954 23.0559C121.954 23.5528 122.053 24.0497 122.053 24.5466C122.053 28.7205 120.563 31.6025 118.18 32.9938L107.554 39.1553C109.937 37.764 111.327 34.882 111.427 30.708C111.427 30.2112 111.427 29.7143 111.327 29.2174C111.625 29.0186 111.625 28.9192 111.625 28.7205Z" fill="#2F58FF"/>
<path d="M98.6163 7.95038C91.3666 3.77647 85.5073 7.15535 85.5073 15.5032C85.5073 23.851 91.3666 33.9877 98.6163 38.1616C105.866 42.3355 111.725 38.9566 111.725 30.6088C111.725 22.2609 105.866 12.1243 98.6163 7.95038Z" fill="#E8F4FA"/>
<path d="M92.4583 6.16162C88.2872 6.261 85.5065 9.63988 85.4072 15.5032C85.4072 23.8511 91.2665 33.9877 98.5162 38.1616C104.177 41.4411 109.043 40.0498 110.831 35.379" stroke="#171A21" stroke-width="2" stroke-miterlimit="10" stroke-linecap="round" stroke-linejoin="round"/>
<path d="M80.044 90.0372L76.5681 86.062C76.2702 85.6645 76.0716 85.1676 76.0716 84.7701V83.3788C76.1709 83.2794 76.2702 83.1801 76.3695 83.0807C76.8661 82.5838 77.164 81.9875 77.4619 81.2919C77.9585 81.2919 78.3557 80.8943 78.3557 80.2981V78.6086C78.3557 78.2111 78.2564 77.7142 77.9585 77.3167V75.1304C77.9585 74.9316 78.0578 73.5403 77.164 71.9502C76.3695 70.5589 75.1778 69.3664 73.5888 68.3726C71.9006 67.3788 70.7088 67.18 70.0137 67.7763C69.1199 68.3726 69.2192 69.8633 69.2192 70.062V72.2484C69.0206 72.4471 68.8219 72.7453 68.8219 73.1428V74.8322C68.8219 75.3291 69.0206 75.9254 69.3185 76.4223C69.6164 78.1117 70.3116 79.7018 70.6095 80.1987V81.59C70.6095 81.9875 70.4109 82.2856 70.113 82.2856L66.8357 82.4844C65.7433 82.5838 65.1475 83.4782 65.1475 84.7701V86.1614C65.1475 88.149 70.6095 91.826 73.4895 93.5155C76.3695 95.2049 81.8316 97.7888 81.8316 95.8012V94.5093C81.8316 93.0186 81.1364 91.3291 80.044 90.0372Z" fill="#2F58FF"/>
</g>
<defs>
<clipPath id="clip0">
<rect width="144" height="144" fill="white"/>
</clipPath>
</defs>
</svg>
