<svg width="144" height="144" viewBox="0 0 144 144" fill="none" xmlns="http://www.w3.org/2000/svg">
<path d="M77.1453 74.1678C77.181 74.2394 77.2168 74.2753 77.2882 74.3111L63.317 66.1777C63.2813 66.1419 63.2455 66.1061 63.2098 66.0702C63.2098 66.0702 63.2098 66.0344 63.1741 66.0344V65.9986V65.9628V65.9269V65.8911V65.8553V65.8194V65.7836V65.7478V64.5654V64.5296V64.4937V64.4579V64.4221V64.3862V64.3504V64.3146V64.2788V64.2429V64.2071L65.0321 58.116C65.0679 58.0085 65.1036 57.9011 65.1036 57.7936V55.4288C65.1036 55.3213 65.0679 55.2496 65.0679 55.178C65.0321 55.1063 64.9964 55.0705 64.9249 55.0347L78.8962 63.168C78.9319 63.2039 78.9676 63.2397 79.0034 63.2755C79.0034 63.2755 79.0034 63.3114 79.0391 63.3114V63.3472V63.383V63.4188V63.4547V63.4905V63.5263V63.5622V63.598V65.9628V65.9986V66.0344V66.0702V66.1061V66.1419V66.1777V66.2136V66.2494V66.2852V66.3211C79.0391 66.3211 79.0391 66.3211 79.0391 66.3569L77.181 72.448C77.1453 72.5554 77.1096 72.6988 77.1096 72.7704V73.9528C77.0738 74.0245 77.1096 74.0961 77.1453 74.1678Z" fill="#2F58FF"/>
<path d="M0.643066 62.9173C0.643066 62.8815 0.643066 62.8456 0.643066 62.8456V62.8098V62.774V62.7382V62.7023V62.6665V62.6307V62.5948V62.559V62.5232V62.4873V62.4515V62.4157V62.3799V62.344C0.643066 62.344 0.643066 62.3082 0.678798 62.3082C0.678798 62.2724 0.71453 62.2724 0.71453 62.2365C0.71453 62.2007 0.750262 62.1649 0.750262 62.1649C0.750262 62.129 0.785994 62.129 0.785994 62.0932C0.785994 62.0932 0.785994 62.0574 0.821726 62.0574C0.821726 62.0574 0.821727 62.0216 0.857459 62.0216C0.857459 62.0216 0.857459 61.9857 0.893191 61.9857C0.893191 61.9857 0.89319 61.9499 0.928923 61.9499C1.07185 61.9857 1.07185 61.9857 1.07185 61.9857L1.10758 61.9499C1.10758 61.9499 1.14331 61.9499 1.14331 61.9141C1.14331 61.9141 1.17905 61.9141 1.17905 61.8782C1.17905 61.8782 1.21478 61.8782 1.21478 61.8424C1.21478 61.8424 1.25051 61.8424 1.25051 61.8066C1.25051 61.8066 1.28624 61.8066 1.28624 61.7707H1.32197C1.42917 61.7349 1.50063 61.6633 1.5721 61.5558C1.64356 61.4841 1.71503 61.3766 1.78649 61.2691C1.85795 61.1616 1.89369 61.0542 1.92942 60.9467C1.96515 60.8392 1.96515 60.7317 1.96515 60.6242V55.2139V55.1781V55.1422V55.1064V55.0706V55.0347V54.9989V54.9631V54.9273V54.8914V54.8556V54.8198V54.7839V54.7481V54.7123V54.6764V54.6406V54.6048C1.96515 54.6048 1.96515 54.569 2.00088 54.569C2.00088 54.5331 2.03661 54.5331 2.03661 54.4973C2.03661 54.4615 2.07235 54.4615 2.07235 54.4256C2.07235 54.3898 2.10808 54.3898 2.10808 54.354L2.14381 54.3181C2.14381 54.3181 2.14381 54.2823 2.17954 54.2823C2.17954 54.2823 2.17954 54.2465 2.21527 54.2465C2.21527 54.2465 2.21527 54.2107 2.25101 54.2107L2.28674 54.1748L2.32247 54.139C2.32247 54.139 2.3582 54.139 2.3582 54.1032C2.3582 54.1032 2.39393 54.1032 2.39393 54.0673C2.39393 54.0673 2.42967 54.0673 2.42967 54.0315C2.42967 54.0315 2.4654 54.0315 2.4654 53.9957C2.4654 53.9957 2.50113 53.9957 2.50113 53.9599H2.53686C2.53686 53.9599 2.53686 53.9599 2.5726 53.9599C2.5726 53.9599 2.5726 53.9599 2.60833 53.9599C2.60833 53.9599 2.60833 53.9599 2.64406 53.9599C2.64406 53.9599 2.64406 53.9599 2.67979 53.9599C2.67979 53.9599 2.67979 53.9599 2.71552 53.9599C2.71552 53.9599 2.71552 53.9599 2.75126 53.9599H2.78699H2.82272H2.85845H2.89418H2.92992L5.43116 54.139C5.46689 54.139 5.53835 54.139 5.60982 54.139C5.68128 54.139 5.71701 54.1032 5.78848 54.0673C5.85994 54.0315 5.96714 53.9599 6.0386 53.8524C6.11006 53.7807 6.18153 53.6732 6.25299 53.5657C6.32446 53.4582 6.36019 53.3507 6.39592 53.2433C6.43165 53.1358 6.43165 53.0283 6.43165 52.9208V51.8101V51.7742V51.7384V51.7026V51.6667V51.6309V51.5951V51.5592V51.5234V51.4876C6.43165 51.4876 6.43165 51.4876 6.43165 51.4518V51.4159V51.3801V51.3443V51.3084V51.2726V51.2368V51.201C6.43165 51.201 6.43165 51.1651 6.46738 51.1651C6.46738 51.1651 6.46739 51.1293 6.50312 51.1293L8.11106 48.2629C8.11106 48.2629 8.11106 48.2629 8.11106 48.2271C8.11106 48.1912 8.14679 48.1554 8.14679 48.1554L8.18252 48.1196C8.18252 48.1196 8.18252 48.0838 8.21825 48.0838C8.21825 48.0838 8.21825 48.0479 8.25399 48.0479C8.25399 48.0479 8.25399 48.0121 8.28972 48.0121C8.28972 48.0121 8.28972 47.9763 8.32545 47.9763L8.36118 47.9404L8.39691 47.9046C8.39691 47.9046 8.43265 47.9046 8.43265 47.8688C8.43265 47.8688 8.46838 47.8688 8.46838 47.833C8.46838 47.833 8.50411 47.8329 8.50411 47.7971C8.50411 47.7971 8.53984 47.7971 8.53984 47.7613C8.53984 47.7613 8.57557 47.7613 8.57557 47.7255H8.61131L11.72 45.934C11.72 45.934 11.72 45.934 11.7557 45.934C11.7557 45.934 11.7557 45.934 11.7915 45.934C11.7915 45.934 11.7915 45.934 11.8272 45.934C11.8272 45.934 11.8272 45.934 11.8629 45.934C11.8629 45.934 11.8629 45.934 11.8987 45.934C11.8987 45.934 11.8987 45.934 11.9344 45.934H11.9701H12.0058H12.0416H12.0773H12.113H12.1488H12.1845C12.2202 45.934 12.2202 45.934 12.2202 45.9698L22.4396 51.9175L22.4753 51.8459C22.5468 51.7384 22.5825 51.6667 22.6183 51.5592C22.654 51.4518 22.6897 51.3801 22.6897 51.2726C22.6897 51.201 22.6897 51.0935 22.6897 51.0218C22.6897 50.9501 22.654 50.8785 22.6183 50.8427L21.3319 49.0512L21.2962 49.0153V48.9795V48.9437V48.9078V48.872V48.8362V48.8004V48.7645V48.7287V48.6929V48.657V48.6212V48.5854V48.5495V48.5137V48.4779V48.4421V48.4062V48.3704V48.3346V48.2987V48.2629V48.2271V48.1912V48.1554C21.2962 48.1554 21.2962 48.1196 21.3319 48.1196C21.3319 48.0838 21.3676 48.0838 21.3676 48.0479C21.3676 48.0121 21.4034 48.0121 21.4034 47.9763L21.4391 47.9404L21.4748 47.9046C21.4748 47.9046 21.4748 47.8688 21.5106 47.8688C21.5106 47.8688 21.5106 47.833 21.5463 47.833C21.5463 47.833 21.5463 47.7971 21.582 47.7971C21.582 47.7971 21.582 47.7613 21.6178 47.7613L21.6535 47.7255C21.6535 47.7255 21.6892 47.7255 21.6892 47.6896C21.6892 47.6896 21.725 47.6896 21.725 47.6538C21.725 47.6538 21.7607 47.6538 21.7607 47.618C21.7607 47.618 21.7607 47.618 21.7964 47.618L26.4416 44.0708C26.513 43.9992 26.6202 43.9275 26.6917 43.82C26.7632 43.7125 26.8346 43.605 26.8704 43.4975L27.7279 41.5986L22.7255 38.6963C22.6897 38.6605 22.654 38.6247 22.6183 38.5889C22.6183 38.5889 22.6183 38.553 22.5825 38.553L20.3671 37.2632L17.2942 35.4C17.2585 35.3642 17.2227 35.3283 17.187 35.2925V35.2567V35.2209V35.185V35.1492V35.1134C17.187 35.1134 17.187 35.1134 17.187 35.0775V35.0417V35.0059V34.97V34.9342V34.8984V34.8626V34.8267V34.7909V34.7551V34.7192V34.6834V34.6476C17.187 34.6476 17.187 34.6476 17.187 34.6117V34.5759V34.5401V34.5043V34.4684V34.4326V34.3968C17.187 34.3968 17.187 34.3968 17.187 34.3609C17.187 34.3609 17.187 34.3251 17.2227 34.3251C17.2227 34.2893 17.2585 34.2893 17.2585 34.2535L17.2942 34.2176C17.2942 34.1818 17.3299 34.1818 17.3299 34.146C17.3299 34.146 17.3299 34.1101 17.3656 34.1101C17.3656 34.1101 17.3656 34.0743 17.4014 34.0743C17.4014 34.0743 17.4014 34.0385 17.4371 34.0385C17.4371 34.0385 17.4371 34.0026 17.4728 34.0026C17.4728 34.0026 17.4728 33.9668 17.5086 33.9668L17.5443 33.931C17.5443 33.931 17.5443 33.931 17.58 33.931C17.58 33.931 17.6158 33.931 17.6158 33.8952C17.6158 33.8952 17.6515 33.8952 17.6515 33.8593C17.6515 33.8593 17.6872 33.8593 17.6872 33.8235C17.6872 33.8235 17.723 33.8235 17.723 33.7877C17.723 33.7877 17.7587 33.7877 17.7587 33.7518C17.7587 33.7518 17.7944 33.7518 17.7944 33.716L19.8669 32.4978C19.8669 32.4978 19.8669 32.4978 19.9026 32.4978H19.9384H19.9741H20.0098H20.0455H20.0813H20.117H20.1527H20.1885H20.2242H20.2599H20.2957H20.3314C20.3314 32.4978 20.3671 32.4978 20.3671 32.5336L21.5463 33.2144C21.582 33.2144 21.6535 33.2502 21.6892 33.2502C21.7607 33.2502 21.8679 33.2144 21.9393 33.1786C22.0108 33.1427 22.118 33.0711 22.1895 32.9636C22.2609 32.8919 22.3324 32.7844 22.4039 32.6769L22.9756 31.6737C23.0113 31.6379 23.0113 31.602 23.047 31.5662C23.047 31.5304 23.0828 31.5304 23.0828 31.4946L23.1185 31.4587C23.1185 31.4587 23.1185 31.4229 23.1542 31.4229C23.1542 31.4229 23.1542 31.3871 23.19 31.3871C23.19 31.3871 23.19 31.3871 23.2257 31.3512C23.2257 31.3512 23.2257 31.3154 23.2614 31.3154L23.2972 31.2796C23.2972 31.2796 23.3329 31.2796 23.3329 31.2437C23.3329 31.2437 23.3686 31.2437 23.3686 31.2079C23.3686 31.2079 23.4044 31.2079 23.4044 31.1721C23.4044 31.1721 23.4401 31.1721 23.4401 31.1363C23.4401 31.1363 23.4401 31.1363 23.4758 31.1004C23.4758 31.1004 23.4758 31.1004 23.5116 31.1004C23.5116 31.1004 23.5116 31.1004 23.5473 31.1004L30.3721 27.3025C30.3721 27.3025 30.3721 27.3025 30.4078 27.3025C30.4078 27.3025 30.4078 27.3025 30.4436 27.3025C30.4436 27.3025 30.4436 27.3025 30.4793 27.3025C30.4793 27.3025 30.4793 27.3025 30.515 27.3025C30.515 27.3025 30.515 27.3025 30.5508 27.3025C30.5508 27.3025 30.5508 27.3025 30.5865 27.3025C30.5865 27.3025 30.5865 27.3025 30.6222 27.3025H30.658H30.6937H30.7294H30.7652H30.8009H30.8366H30.8723C30.9081 27.3025 30.9081 27.3025 30.9438 27.3383L32.1944 28.0549C32.2659 28.0907 32.3016 28.0907 32.3731 28.0907C32.4446 28.0907 32.516 28.0549 32.6232 28.0191C32.6947 27.9832 32.8019 27.9116 32.8733 27.8041C32.9448 27.7324 33.0163 27.6249 33.0877 27.5174L35.053 24.0778C35.053 24.0778 35.053 24.0778 35.053 24.042C35.053 24.0061 35.0887 23.9703 35.0887 23.9703L35.1245 23.9345C35.1245 23.9345 35.1245 23.8986 35.1602 23.8986C35.1602 23.8986 35.1602 23.8628 35.1959 23.8628C35.1959 23.8628 35.1959 23.827 35.2317 23.827C35.2317 23.827 35.2317 23.7911 35.2674 23.7911L35.3031 23.7553L35.3389 23.7195C35.3389 23.7195 35.3746 23.7195 35.3746 23.6837C35.3746 23.6837 35.4103 23.6837 35.4103 23.6478C35.4103 23.6478 35.446 23.6478 35.446 23.612C35.446 23.612 35.4818 23.612 35.4818 23.5762C35.4818 23.5762 35.5175 23.5762 35.5175 23.5403H35.5532L52.5974 13.6155L59.6724 6.52118L65.1394 3.36815C65.1394 3.36815 65.1393 3.36815 65.1751 3.36815H65.2108H65.2465C65.2465 3.36815 65.2465 3.36815 65.2823 3.36815C65.2823 3.36815 65.2823 3.36815 65.318 3.36815C65.318 3.36815 65.318 3.36815 65.3537 3.36815C65.3537 3.36815 65.3537 3.36815 65.3895 3.36815C65.4252 3.36815 65.3895 3.36815 65.4252 3.36815C65.4252 3.36815 65.4252 3.36815 65.4609 3.36815L70.785 2.65156C70.8565 2.65156 70.9279 2.61573 71.0351 2.5799L74.5726 0.537598C74.5726 0.537598 74.5726 0.537598 74.6083 0.537598H74.6441C74.6441 0.537598 74.6441 0.537598 74.6798 0.537598C74.6798 0.537598 74.6798 0.537598 74.7155 0.537598C74.7155 0.537598 74.7155 0.537598 74.7513 0.537598C74.7513 0.537598 74.7513 0.537598 74.787 0.537598C74.787 0.537598 74.787 0.537598 74.8227 0.537598H74.8585H74.8942H74.9299H74.9657H75.0014H75.0371C75.0728 0.537598 75.0728 0.537598 75.1086 0.573427L81.3974 4.22807L83.184 3.189C83.184 3.189 83.184 3.189 83.2197 3.189H83.2555H83.2912H83.3269H83.3627H83.3984H83.4341H83.4699H83.5056H83.5413H83.5771H83.6128H83.6485C83.6485 3.189 83.6843 3.189 83.6843 3.22483L97.6555 11.3582C97.584 11.3224 97.5126 11.3224 97.4411 11.3224C97.3696 11.3224 97.2624 11.3582 97.191 11.394L92.1885 14.2962C92.1885 14.2962 92.1885 14.2962 92.1528 14.2962C92.1528 14.2962 92.1527 14.2962 92.117 14.2962C92.117 14.2962 92.117 14.2962 92.0813 14.2962C92.0813 14.2962 92.0813 14.2962 92.0456 14.2962C92.0456 14.2962 92.0456 14.2962 92.0098 14.2962C92.0098 14.2962 92.0098 14.2962 91.9741 14.2962H91.9384H91.9026H91.8669C91.8669 14.2962 91.8669 14.2962 91.8312 14.2962H91.7954H91.7597H91.724H91.6882C91.6882 14.2962 91.6525 14.2962 91.6525 14.2604L85.3637 10.6058L85.0421 10.7849C85.0421 10.7849 85.0421 10.7849 85.0063 10.7849C85.0063 10.7849 85.0063 10.7849 84.9706 10.7849H84.9349H84.8992H84.8634H84.8277H84.792L79.4679 11.5015C79.3964 11.5015 79.325 11.5373 79.2178 11.5732L73.6436 14.6904L66.4257 21.7488L49.3815 31.6737C49.3101 31.7095 49.2029 31.7812 49.1314 31.8887C49.0599 31.9603 48.9885 32.0678 48.917 32.1753L46.9518 35.615C46.9518 35.615 46.9518 35.615 46.9518 35.6508C46.916 35.6866 46.916 35.7225 46.8803 35.7583C46.8803 35.7941 46.8446 35.7941 46.8446 35.83L46.8088 35.8658C46.8088 35.8658 46.8088 35.9016 46.7731 35.9016C46.7731 35.9016 46.7731 35.9375 46.7374 35.9375C46.7374 35.9375 46.7374 35.9733 46.7016 35.9733L46.6659 36.0091L46.6302 36.0449C46.6302 36.0449 46.5944 36.0449 46.5944 36.0808C46.5944 36.0808 46.5587 36.0808 46.5587 36.1166C46.5587 36.1166 46.523 36.1166 46.523 36.1524C46.523 36.1524 46.4872 36.1524 46.4872 36.1883C46.4872 36.1883 46.4515 36.1883 46.4515 36.2241H46.4158C46.4158 36.2241 46.4158 36.2241 46.38 36.2241C46.38 36.2241 46.38 36.2241 46.3443 36.2241C46.3443 36.2241 46.3443 36.2241 46.3086 36.2241C46.3086 36.2241 46.3086 36.2241 46.2728 36.2241C46.2728 36.2241 46.2728 36.2241 46.2371 36.2241C46.2371 36.2241 46.2371 36.2241 46.2014 36.2241C46.2014 36.2241 46.2014 36.2241 46.1656 36.2241H46.1299H46.0942H46.0585H46.0227H45.987H45.9513C45.9155 36.2241 45.9155 36.2241 45.9155 36.1883L44.6649 35.4717C44.5934 35.4358 44.5577 35.4358 44.4862 35.4358C44.4148 35.4358 44.3076 35.4717 44.2361 35.5075L37.2326 39.5563C37.1612 39.5921 37.054 39.6638 36.9825 39.7712C36.9111 39.8429 36.8396 39.9504 36.7681 40.0579L36.1964 41.0611C36.1964 41.0969 36.1607 41.1328 36.125 41.1328C36.125 41.1686 36.0892 41.1686 36.0892 41.1686C36.0892 41.1686 36.0892 41.2044 36.0535 41.2044C36.0535 41.2044 36.0535 41.2403 36.0178 41.2403C36.0178 41.2403 36.0178 41.2761 35.982 41.2761C35.982 41.2761 35.982 41.3119 35.9463 41.3119L35.9106 41.3478L35.8748 41.3836C35.8748 41.3836 35.8391 41.3836 35.8391 41.4194C35.8391 41.4194 35.8034 41.4194 35.8034 41.4552C35.8034 41.4552 35.7676 41.4552 35.7676 41.4911C35.7676 41.4911 35.7319 41.4911 35.7319 41.5269C35.7319 41.5269 35.6962 41.5269 35.6962 41.5627H35.6604C35.6604 41.5627 35.6604 41.5627 35.6247 41.5627H35.589H35.5532H35.5175H35.4818H35.446H35.4103H35.3746H35.3389C35.3389 41.5627 35.3389 41.5627 35.3031 41.5627H35.2674H35.2317H35.1959H35.1602C35.1245 41.5627 35.1245 41.5627 35.1245 41.5269L33.9453 40.8461C33.9096 40.8461 33.8381 40.8103 33.8024 40.8103C33.7309 40.8103 33.6237 40.8461 33.5522 40.882L33.052 41.1686L41.7706 46.2564C41.8063 46.2923 41.8421 46.3281 41.8778 46.3639C41.8778 46.3639 41.8778 46.3998 41.9135 46.3998V46.4356V46.4714V46.5072V46.5431V46.5789V46.6147V46.6506V46.6864V48.4779C41.9135 48.4779 41.9135 48.4779 41.9135 48.5137V48.5495V48.5854V48.6212V48.657V48.6929V48.7287C41.9135 48.7287 41.9135 48.7287 41.9135 48.7645V48.8004V48.8362V48.872V48.9078V48.9437V48.9795V49.0153L40.6629 51.8459C40.6629 51.8459 40.6629 51.8459 40.6629 51.8817V51.9175C40.6629 51.9175 40.6629 51.9534 40.6272 51.9534C40.6272 51.9892 40.5915 51.9892 40.5915 52.025C40.5915 52.0609 40.5557 52.0967 40.52 52.0967C40.52 52.1325 40.4843 52.1325 40.4843 52.1684C40.4843 52.1684 40.4843 52.1684 40.4843 52.2042C40.4843 52.2042 40.4843 52.24 40.4485 52.24C40.4485 52.24 40.4485 52.2758 40.4128 52.2758C40.3771 52.2758 40.4128 52.3117 40.3771 52.3117C40.3771 52.3117 40.3771 52.3475 40.3413 52.3475L40.3056 52.3833C40.3056 52.3833 40.2699 52.3833 40.2699 52.4192C40.2699 52.4192 40.2341 52.4192 40.2341 52.455C40.2341 52.455 40.1984 52.455 40.1984 52.4908C40.1984 52.4908 40.1984 52.4908 40.1627 52.5267L35.5175 56.0738C35.4103 56.1455 35.3031 56.253 35.2317 56.3963C35.1602 56.5038 35.0887 56.6471 35.053 56.7904C35.0173 56.9337 34.9815 57.0412 34.9815 57.1845C34.9815 57.292 35.0173 57.3995 35.053 57.507L36.3393 59.2985C36.3393 59.2985 36.3393 59.3343 36.3751 59.3343V59.3701V59.406V59.4418V59.4776V59.5135V59.5493V59.5851V59.621V59.6568V59.6926V59.7284C36.3751 59.7284 36.3751 59.7284 36.3751 59.7643V59.8001V59.8359V59.8718V59.9076V59.9434V59.9793V60.0151C36.3751 60.0151 36.3751 60.0151 36.3751 60.0509V60.0867V60.1226V60.1584V60.1942V60.2301C36.3751 60.2301 36.3751 60.2659 36.3393 60.2659C36.3393 60.3017 36.3036 60.3017 36.3036 60.3376L35.1959 62.2007C35.1959 62.2365 35.1602 62.2365 35.1602 62.2724C35.1602 62.3082 35.1245 62.3082 35.1245 62.344L35.0887 62.3799C35.0887 62.3799 35.0887 62.4157 35.053 62.4157C35.053 62.4157 35.053 62.4515 35.0173 62.4515C35.0173 62.4515 35.0173 62.4873 34.9815 62.4873C34.9815 62.4873 34.9815 62.5232 34.9458 62.5232L34.9101 62.559L34.8743 62.5948C34.8743 62.5948 34.8386 62.5948 34.8386 62.6307C34.8386 62.6307 34.8029 62.6307 34.8029 62.6665C34.8029 62.6665 34.7671 62.6665 34.7671 62.7023C34.7671 62.7023 34.7314 62.7023 34.7314 62.7382C34.7314 62.7382 34.6957 62.7382 34.6957 62.774H34.6599C34.6599 62.774 34.6599 62.774 34.6242 62.774C34.6242 62.774 34.6242 62.774 34.5885 62.774C34.5885 62.774 34.5885 62.774 34.5527 62.774C34.5527 62.774 34.5527 62.774 34.517 62.774C34.517 62.774 34.517 62.774 34.4813 62.774C34.4813 62.774 34.4813 62.774 34.4455 62.774C34.4455 62.774 34.4455 62.774 34.4098 62.774H34.3741H34.3384H34.3026H34.2669L32.6232 62.6307H32.5875H32.5518C32.516 62.6307 32.516 62.6307 32.4803 62.5948L22.3681 56.253C22.2967 56.3246 22.2252 56.4321 22.1537 56.5396L20.5458 59.406C20.4743 59.5135 20.4386 59.621 20.4029 59.7284C20.3671 59.8359 20.3671 59.9434 20.3671 60.0509V61.1616V61.1975V61.2333V61.2691V61.305V61.3408V61.3766V61.4124V61.4483V61.4841V61.5199V61.5558V61.5916V61.6274V61.6633V61.6991V61.7349V61.7707C20.3671 61.7707 20.3671 61.8066 20.3314 61.8066C20.3314 61.8424 20.2957 61.8424 20.2957 61.8782C20.2957 61.9141 20.2599 61.9141 20.2599 61.9499C20.2599 61.9857 20.2242 61.9857 20.2242 62.0216L20.1885 62.0574C20.1885 62.0574 20.1885 62.0932 20.1527 62.0932C20.1527 62.0932 20.1527 62.129 20.117 62.129C20.117 62.129 20.117 62.1649 20.0813 62.1649L20.0455 62.2007L20.0098 62.2365C20.0098 62.2365 19.9741 62.2365 19.9741 62.2724C19.9741 62.2724 19.9384 62.2724 19.9384 62.3082C19.9384 62.3082 19.9026 62.3082 19.9026 62.344C19.9026 62.344 19.8669 62.344 19.8669 62.3799C19.8669 62.3799 19.8669 62.3799 19.8312 62.3799C19.8312 62.3799 19.8312 62.3799 19.7954 62.3799C19.7954 62.3799 19.7954 62.3799 19.7597 62.3799C19.7597 62.3799 19.7597 62.3799 19.724 62.3799C19.724 62.3799 19.724 62.3799 19.6882 62.3799C19.6882 62.3799 19.6882 62.3799 19.6525 62.3799C19.6525 62.3799 19.6525 62.3799 19.6168 62.3799C19.6168 62.3799 19.6168 62.3799 19.581 62.3799H19.5453H19.5096H19.4738H19.4381H19.4024L16.9011 62.2007C16.8654 62.2007 16.7939 62.2007 16.7582 62.2007C16.7225 62.2007 16.651 62.2365 16.6153 62.2724C16.5438 62.3082 16.4366 62.3799 16.3652 62.4873C16.2937 62.559 16.2222 62.6665 16.1508 62.774C16.0793 62.8815 16.0436 62.989 16.0078 63.0965C15.9721 63.2039 15.9364 63.3114 15.9364 63.4189V64.8163L24.6192 69.8683L27.2277 71.4448C27.2634 71.4806 27.2991 71.5165 27.3349 71.5523C27.3349 71.5523 27.3349 71.5881 27.3706 71.5881C27.3706 71.5881 27.3706 71.5881 27.3706 71.6239V71.6598V71.6956V71.7314V71.7673V71.8031V71.8389V71.8748V71.9106V71.9464V71.9822V72.0181V72.0539V72.0897V72.1256V72.1614V72.1972V72.2331V72.2689V72.3047V72.3405V72.3764V72.4122V72.448V72.4839C27.3706 72.4839 27.3706 72.5197 27.3349 72.5197V72.5555L26.6202 73.8096C26.6202 73.8454 26.5845 73.8812 26.5488 73.8812L26.513 73.9171L26.4773 73.9529C26.4773 73.9529 26.4773 73.9887 26.4416 73.9887L26.4058 74.0245L26.3701 74.0604L26.3344 74.0962L26.2987 74.132L26.2629 74.1679C26.2629 74.1679 26.2272 74.1679 26.2272 74.2037L26.1557 74.2395L30.3364 76.6759C30.3721 76.6759 30.3721 76.7118 30.4078 76.7118L31.5155 77.7508L31.98 74.7411C32.0158 74.5978 31.98 74.4903 31.98 74.3828C31.9443 74.2754 31.9086 74.2037 31.8371 74.1679L45.8083 82.3012C45.8441 82.3371 45.8798 82.3729 45.9155 82.4087C45.9155 82.4087 45.9155 82.4445 45.9513 82.4445V82.4804C45.9513 82.4804 45.9513 82.4804 45.9513 82.5162V82.552V82.5879V82.6237V82.6595V82.6954V82.7312V82.767V82.8028V82.8387V82.8745V82.9103L45.9155 83.197L46.2728 83.412L47.7021 82.5879C47.8093 82.5162 47.8808 82.4445 47.988 82.3729C48.0594 82.2654 48.1666 82.1579 48.2024 82.0504L49.5959 79.2915C49.6674 79.1482 49.7031 79.0049 49.7388 78.8616L50.4178 74.132C50.4178 74.0604 50.4178 73.9887 50.4178 73.9171C50.4178 73.8454 50.382 73.8096 50.382 73.7379L48.381 68.8292C48.3453 68.7576 48.3096 68.6859 48.2381 68.6501L62.2093 76.7834C62.2451 76.8193 62.2808 76.8551 62.3165 76.8909C62.3165 76.8909 62.3165 76.9268 62.3523 76.9268C62.3523 76.9268 62.3523 76.9268 62.3523 76.9626L64.3532 81.8713C64.3532 81.8713 64.3532 81.8713 64.3532 81.9071V81.9429V81.9788V82.0146V82.0504C64.3532 82.0504 64.3532 82.0504 64.3532 82.0863V82.1221V82.1579V82.1937V82.2296V82.2654V82.3012V82.3371L63.6743 87.0666V87.1024V87.1383V87.1741V87.2099V87.2457V87.2816V87.3174V87.3532V87.3891V87.4249C63.6743 87.4249 63.6743 87.4249 63.6743 87.4607L62.2808 90.2196C62.2808 90.2196 62.2808 90.2196 62.2808 90.2554C62.2808 90.2913 62.2451 90.2913 62.2451 90.3271C62.2451 90.3629 62.2093 90.3988 62.1736 90.3988L62.1379 90.4346L62.1021 90.4704C62.1021 90.4704 62.1021 90.5063 62.0664 90.5063C62.0664 90.5063 62.0664 90.5421 62.0307 90.5421C62.0307 90.5421 62.0307 90.5779 61.9949 90.5779L61.9592 90.6137L61.9235 90.6496C61.9235 90.6496 61.8877 90.6496 61.8877 90.6854C61.8877 90.6854 61.852 90.6854 61.852 90.7212C61.852 90.7212 61.8163 90.7212 61.8163 90.7571C61.8163 90.7571 61.7805 90.7571 61.7805 90.7929C61.7805 90.7929 61.7448 90.7929 61.7448 90.8287H61.7091L60.2083 91.6886C60.2083 91.6886 60.2083 91.6886 60.1726 91.6886H60.1369H60.1011H60.0654C60.0654 91.6886 60.0654 91.6886 60.0297 91.6886C60.0297 91.6886 60.0297 91.6886 59.9939 91.6886C59.9939 91.6886 59.9939 91.6886 59.9582 91.6886C59.9582 91.6886 59.9582 91.6886 59.9225 91.6886H59.8867H59.851H59.8153H59.7795C59.7795 91.6886 59.7795 91.6886 59.7438 91.6886L57.314 91.2587H57.2783C57.2426 91.2587 57.2426 91.2587 57.2068 91.2229L55.4917 90.2196L54.4912 90.7929C54.384 90.8646 54.2768 90.972 54.1696 91.0795C54.0624 91.187 53.991 91.3303 53.9552 91.4737C53.8838 91.617 53.848 91.7603 53.848 91.8678C53.848 92.0111 53.848 92.1186 53.9195 92.2261L56.0634 96.0599C56.0634 96.0599 56.0634 96.0599 56.0634 96.0957V96.1315V96.1674V96.2032V96.239V96.2749V96.3107V96.3465V96.3823V96.4182V96.454C56.0634 96.454 56.0634 96.454 56.0634 96.4898V96.5257V96.5615V96.5973V96.6332V96.669V96.7048V96.7406V96.7765V96.8123V96.8481V96.884V96.9198L55.5989 97.9589V97.9947C55.5989 97.9947 55.5989 98.0305 55.5632 98.0305C55.5632 98.0663 55.5274 98.0663 55.5274 98.1022C55.4917 98.138 55.4917 98.1738 55.456 98.2097C55.456 98.2455 55.4202 98.2455 55.4202 98.2813L55.3845 98.3172C55.3845 98.3172 55.3845 98.353 55.3488 98.353C55.3488 98.353 55.3488 98.353 55.313 98.3888C55.313 98.3888 55.313 98.4247 55.2773 98.4247L55.2416 98.4605L55.2058 98.4963L55.1701 98.5321C55.1701 98.5321 55.1344 98.5321 55.1344 98.568C55.1344 98.568 55.0987 98.568 55.0987 98.6038C55.0987 98.6038 55.0629 98.6038 55.0629 98.6396C55.0629 98.6396 55.0272 98.6396 55.0272 98.6755C55.0272 98.6755 54.9915 98.6755 54.9915 98.7113H54.9557L52.2758 100.073C52.1686 100.144 52.0972 100.216 51.99 100.288C51.9185 100.359 51.847 100.467 51.7756 100.574C51.7041 100.682 51.6684 100.789 51.6326 100.897C51.5969 101.004 51.5969 101.112 51.5969 101.219V105.913C51.5969 106.021 51.6326 106.092 51.6326 106.164C51.6684 106.236 51.7041 106.271 51.7756 106.307L37.8044 98.1738C37.7686 98.138 37.7329 98.1022 37.6972 98.0664C37.6972 98.0664 37.6972 98.0305 37.6614 98.0305V97.9947V97.9589V97.923V97.8872V97.8514V97.8155V97.7797V97.7439V93.0502V93.0143V92.9785V92.9427V92.9069V92.871V92.8352V92.7994V92.7635V92.7277V92.6919V92.656V92.6202V92.5844V92.5486V92.5127V92.4769V92.4411C37.6614 92.4411 37.6614 92.4052 37.6972 92.4052C37.6972 92.3694 37.7329 92.3694 37.7329 92.3336C37.7329 92.2978 37.7686 92.2977 37.7686 92.2619C37.7686 92.2261 37.8044 92.2261 37.8044 92.1903L37.8401 92.1544C37.8401 92.1544 37.8401 92.1186 37.8758 92.1186C37.8758 92.1186 37.8758 92.0828 37.9116 92.0828L37.9473 92.0469C37.9473 92.0469 37.9473 92.0469 37.983 92.0111L38.0188 91.9753L38.0545 91.9395L38.0902 91.9036C38.0902 91.9036 38.1259 91.9036 38.1259 91.8678C38.1259 91.8678 38.1617 91.8678 38.1617 91.832C38.1617 91.832 38.1974 91.832 38.1974 91.7961C38.1974 91.7961 38.2331 91.7961 38.2331 91.7603C38.2331 91.7603 38.2689 91.7603 38.2689 91.7245L40.9488 90.3629C41.056 90.2913 41.1632 90.2196 41.2346 90.1121C41.3418 90.0046 41.4133 89.8971 41.4848 89.7538L41.9493 88.7148L31.5155 82.6237C31.4798 82.5879 31.4441 82.552 31.4083 82.5162L30.9438 81.728C30.9438 81.728 30.9438 81.6921 30.9081 81.6921V81.6563V81.6205V81.5846V81.5488C30.9081 81.5488 30.9081 81.5488 30.9081 81.513V81.4771V81.4413V81.4055V81.3697V81.3338V81.298V81.2622L31.4083 77.9658L25.6555 74.5978L24.2262 75.7085C24.1547 75.7444 24.0833 75.816 24.0475 75.8877C23.9761 75.9594 23.9403 76.031 23.9046 76.1027L22.4753 78.6108C22.4039 78.7182 22.3681 78.8257 22.3324 78.9332C22.2967 79.0407 22.2967 79.1482 22.2967 79.2557C22.2967 79.3632 22.2967 79.4348 22.3324 79.5065C22.3681 79.5782 22.4039 79.6498 22.4753 79.6857L23.3686 80.2231L9.39741 72.0897L8.50411 71.5523C8.46838 71.5165 8.43265 71.4806 8.39691 71.4448C8.39691 71.4448 8.39691 71.409 8.36118 71.409C8.36118 71.409 8.36118 71.409 8.36118 71.3731V71.3373V71.3015V71.2656V71.2298V71.194V71.1582V71.1223V71.0865V71.0507V71.0148V70.979V70.9432V70.9073V70.8715V70.8357V70.7999C8.36118 70.7999 8.36118 70.7999 8.36118 70.764V70.7282V70.6924V70.6565V70.6207V70.5849V70.549V70.5132C8.36118 70.5132 8.36118 70.4774 8.39691 70.4774C8.39691 70.4774 8.39691 70.4416 8.43265 70.4416L8.8257 69.7608L1.00039 65.2104C0.964655 65.1746 0.928923 65.1387 0.893191 65.1029C0.893191 65.1029 0.893191 65.1029 0.893191 65.0671V65.0313V64.9954V64.9596V64.9238V64.8879L0.71453 63.0248V62.989C0.643066 62.989 0.643066 62.989 0.643066 62.9173C0.643066 62.9531 0.643066 62.9531 0.643066 62.9173Z" fill="#2F58FF"/>
<path d="M73.6437 14.6903L66.4258 21.7487L49.3817 31.6736C49.203 31.7811 49.0243 31.9602 48.9171 32.1752L46.9519 35.6149C46.809 35.8299 46.666 36.009 46.4874 36.1165C46.3087 36.224 46.13 36.224 46.0229 36.1523L44.8437 35.4357C44.7008 35.3641 44.5578 35.3641 44.3792 35.4716L37.3757 39.5203C37.197 39.6278 37.0184 39.807 36.9112 40.022L36.3395 41.0252C36.1965 41.2402 36.0536 41.4193 35.875 41.5268C35.6963 41.6343 35.5176 41.6343 35.4104 41.5626L34.3027 40.8819C34.1956 40.8102 34.0169 40.8102 33.8382 40.9177L31.7658 42.1359C31.1941 42.4584 30.9082 43.4616 31.3013 43.6766L34.3742 45.5397C34.5171 45.6114 34.6601 45.6114 34.8387 45.5039L35.875 44.8948C36.2323 44.6798 36.5181 44.859 36.5181 45.2889V46.5788C36.5181 46.9013 36.6968 47.0804 36.9469 47.0446L41.7707 46.2563C42.0209 46.2205 42.1995 46.3997 42.1995 46.7221V48.5136C42.1995 48.6569 42.1638 48.8361 42.0923 49.0152L40.8417 51.8458C40.7345 52.0608 40.5916 52.2757 40.4129 52.4191L35.7678 55.9662C35.3032 56.3245 35.0889 57.0411 35.3032 57.3636L36.5896 59.1551C36.7325 59.3701 36.6968 59.7642 36.4824 60.1583L35.3747 62.0215C35.2318 62.2364 35.0889 62.3797 34.9102 62.4872C34.803 62.5589 34.6958 62.5947 34.5886 62.5589L32.9449 62.4156C32.6948 62.3798 32.5876 62.1648 32.6233 61.8065L32.9449 59.5492C32.9807 59.2267 32.8735 58.9759 32.6591 58.9401L28.4427 58.2593C28.2283 58.2235 28.1211 57.9727 28.1568 57.6502L28.3355 56.2887C28.3712 56.0379 28.2998 55.8587 28.1926 55.7512L26.263 54.2106C26.1559 54.1031 25.9415 54.1031 25.7628 54.2464L22.6541 56.0379C22.4755 56.1454 22.2968 56.3245 22.1896 56.5395L20.5817 59.4059C20.4745 59.6209 20.403 59.8358 20.403 60.0508V61.1615C20.403 61.5915 20.0814 62.0931 19.7598 62.3081C19.6526 62.3797 19.5454 62.4156 19.4382 62.3798L16.937 62.2006C16.8298 62.2006 16.7226 62.2364 16.6154 62.2723C16.2581 62.4872 15.9722 62.9889 15.9722 63.4188V68.8291C15.9722 69.2591 15.6864 69.7607 15.3291 69.9398C14.936 70.1548 14.6501 70.7281 14.6859 71.1581L14.8645 73.0212C14.9003 73.3078 15.0789 73.4512 15.3291 73.3795L19.6169 72.5196L24.1906 69.904C24.3693 69.7965 24.5479 69.7965 24.6551 69.8682L27.2635 71.4447C27.5137 71.588 27.5137 72.0538 27.2635 72.5196L26.5489 73.7736C26.4417 73.9528 26.3345 74.0961 26.1916 74.2036L24.2978 75.7084C24.1549 75.8159 24.0477 75.9593 23.9405 76.1384L22.5112 78.6465C22.2611 79.0764 22.2611 79.5422 22.5112 79.6855L23.4045 80.223C23.5117 80.2947 23.6903 80.2947 23.869 80.1872L29.8362 76.7475C30.0506 76.64 30.2293 76.64 30.3722 76.7475L32.0159 78.2882C32.1231 78.3957 32.266 78.3957 32.4447 78.324L34.5886 77.4283C34.7315 77.3566 34.8387 77.3566 34.9459 77.4283L45.7013 82.3011C45.8799 82.3728 45.9514 82.5878 45.9157 82.8744L44.9152 89.3596C44.8794 89.5387 44.9152 89.6821 44.9866 89.8254L45.4511 90.6136C45.5583 90.8286 45.8085 90.8286 46.0229 90.6853C46.2372 90.5778 46.4516 90.327 46.5946 90.0045L47.4879 87.7473C47.5593 87.6039 47.5951 87.4248 47.5951 87.2815V83.8776C47.5951 83.5193 47.7737 83.1252 48.0596 82.8744L51.8472 79.4706C52.1688 79.2556 52.3117 79.2198 52.4546 79.2914L54.134 80.008C54.2412 80.0797 54.4199 80.0439 54.5628 79.9364L55.9564 79.0048C56.0993 78.8973 56.2422 78.754 56.3494 78.5748L57.2427 77.1416C57.3499 76.9267 57.5286 76.7833 57.6715 76.6758C57.7787 76.6042 57.8859 76.5684 57.9573 76.6042L61.9593 76.64C62.1023 76.64 62.2095 76.7117 62.2809 76.855L64.2819 81.7637C64.3176 81.8712 64.3534 82.0145 64.3176 82.1578L63.6387 86.8873C63.603 87.0307 63.5673 87.174 63.4958 87.3173L62.1023 90.0762C61.9593 90.327 61.7807 90.542 61.602 90.6495L60.1013 91.5094C59.9583 91.581 59.8511 91.6169 59.7439 91.581L57.3142 91.1511C57.0998 91.1153 56.9926 90.9003 57.0283 90.6136L57.064 90.0045C57.0998 89.5387 56.7782 89.3238 56.4209 89.5746L54.4913 90.6853C54.0268 90.9719 53.7052 91.7244 53.9196 92.1185L56.0635 95.9523C56.1707 96.1314 56.135 96.4539 55.9921 96.7764L55.5276 97.8154C55.4204 98.0662 55.206 98.3171 54.9916 98.4245L52.3117 99.7861C51.9186 100.001 51.6328 100.503 51.6328 100.933V105.626C51.6328 106.02 51.9186 106.2 52.276 106.02L53.3479 105.447C53.741 105.232 54.0268 104.731 54.0268 104.301V103.011C54.0268 102.581 54.3127 102.079 54.67 101.864L56.7425 100.682C56.9211 100.574 57.0998 100.395 57.207 100.18L59.8154 95.594C59.9583 95.379 60.1013 95.1999 60.2799 95.0924L63.6387 93.1576C63.7459 93.0859 63.8174 93.0142 63.9246 92.9067L71.7142 84.1284C71.8571 83.9493 71.9643 83.7343 72.0358 83.5193L77.4313 64.2429C77.5385 63.8846 77.7886 63.5621 78.0387 63.4188L78.4675 63.168C78.8248 62.953 79.1107 63.1322 79.1107 63.5263V65.8911C79.1107 65.9986 79.075 66.1061 79.0392 66.2135L77.1812 72.3046C77.1454 72.4121 77.1097 72.5554 77.1097 72.6271V73.8095C77.1097 74.2394 77.3956 74.3827 77.7529 74.1678C78.1817 73.8453 78.3961 73.5945 78.4675 73.272L80.8616 65.4969C80.8973 65.3895 80.933 65.282 80.933 65.1745V60.5883C80.933 60.4808 80.9688 60.3733 81.0045 60.23L82.398 55.8946C82.4338 55.7871 82.4695 55.6437 82.4695 55.5363L82.4338 47.5462C82.4338 47.4029 82.398 47.2954 82.3266 47.2237L77.7171 40.9535C77.6457 40.8819 77.6099 40.7385 77.6099 40.5952L77.7529 35.6149C77.7529 35.5074 77.7529 35.4357 77.7171 35.3282L76.5737 32.641C76.538 32.5694 76.538 32.4977 76.538 32.3902V28.4848C76.538 28.1623 76.7166 27.7323 77.0025 27.4815L84.8993 20.3156C85.1851 20.1364 85.2566 20.1006 85.3638 20.1006L89.866 19.9214C89.9375 19.9214 90.0447 19.8856 90.1519 19.8498C90.3663 19.7423 90.5807 19.4915 90.6879 19.2048L91.0809 18.3449C91.1881 18.0583 91.4025 17.8433 91.6169 17.7L96.6551 15.4427L98.5132 14.3678C98.8705 14.1528 99.1563 13.6512 99.1563 13.2571V12.3255C99.1563 12.1464 99.0849 11.9672 98.9777 11.8956L97.5127 10.9998C97.4055 10.9281 97.2268 10.9281 97.0482 11.0356L92.0457 13.9379C91.867 14.0453 91.6884 14.0453 91.5812 13.9737L90.2591 13.1854L88.937 12.0747C88.7226 11.8956 88.7583 11.4656 88.9727 11.0715L89.6516 9.88908C89.9018 9.45912 89.9018 8.99334 89.6516 8.81419L88.9727 8.42006C88.8298 8.3484 88.6869 8.3484 88.5082 8.45589L84.9707 10.4982C84.8993 10.534 84.7921 10.5698 84.7206 10.5698L79.3965 11.2864C79.3251 11.2864 79.2536 11.3223 79.1464 11.3581L73.6437 14.6903Z" fill="white"/>
<path d="M77.0739 72.7348V73.9172C77.0739 74.3472 77.3598 74.4905 77.7171 74.2755C78.1459 73.953 78.3603 73.7022 78.4317 73.3798L80.8258 65.6047C80.8615 65.4972 80.8972 65.3897 80.8972 65.2822V60.696C80.8972 60.5885 80.933 60.481 80.9687 60.3377L82.3622 56.0023C82.398 55.8948 82.4337 55.7515 82.4337 55.644L82.398 47.654C82.398 47.5106 82.3622 47.4032 82.2908 47.3315L77.6813 41.0613C77.6099 40.9896 77.5742 40.8463 77.5742 40.703L77.7171 35.7226C77.7171 35.6151 77.7171 35.5435 77.6813 35.436L76.5379 32.7488C76.5022 32.6771 76.5022 32.6054 76.5022 32.498V28.5925C76.5022 28.27 76.6809 27.8401 76.9667 27.5893L84.8635 20.4233C85.1493 20.2442 85.2208 20.2083 85.328 20.2083L89.8302 20.0292C89.9017 20.0292 90.0089 19.9934 90.1161 19.9575C90.3305 19.85 90.5449 19.5992 90.6521 19.3126L91.0451 18.4527C91.1523 18.166 91.3667 17.9511 91.5811 17.8077L96.6193 15.5505L98.4774 14.4756C98.8347 14.2606 99.1206 13.759 99.1206 13.3648V12.4333C99.1206 12.2541 99.0491 12.075 98.9419 12.0033L97.4769 11.1076C97.3697 11.0359 97.191 11.0359 97.0124 11.1434" stroke="#171A21" stroke-width="2" stroke-miterlimit="10" stroke-linecap="round" stroke-linejoin="round"/>
<path d="M51.5969 105.734C51.5969 106.128 51.8828 106.307 52.2401 106.128L53.3121 105.555C53.7051 105.34 53.991 104.838 53.991 104.408V103.118C53.991 102.688 54.2768 102.187 54.6341 101.972L56.7066 100.789C56.8853 100.682 57.0639 100.503 57.1711 100.288L59.7796 95.7017C59.9225 95.4867 60.0654 95.3075 60.2441 95.2001L63.6029 93.2652C63.7101 93.1936 63.7815 93.1219 63.8887 93.0144L71.6783 84.2361C71.8212 84.057 71.9284 83.842 71.9999 83.627L77.3954 64.3506" stroke="#171A21" stroke-width="2" stroke-miterlimit="10" stroke-linecap="round" stroke-linejoin="round"/>
<path d="M22.4395 78.6109C22.1894 79.0409 22.1894 79.5067 22.4395 79.65L23.3328 80.1875C23.44 80.2591 23.6187 80.2591 23.7974 80.1516L29.7646 76.712C29.979 76.6045 30.1577 76.6045 30.3006 76.712L31.9443 78.2526C32.0515 78.3601 32.1944 78.3601 32.373 78.2885L34.517 77.3927" stroke="#171A21" stroke-width="2" stroke-miterlimit="10" stroke-linecap="round" stroke-linejoin="round"/>
<path d="M142.856 93.4795L120.131 80.4375L104.266 92.8704L124.633 109.961L142.856 93.4795Z" fill="white" stroke="#171A21" stroke-width="2" stroke-miterlimit="10" stroke-linecap="round" stroke-linejoin="round"/>
<path d="M136.782 87.3529C136.782 86.6721 136.389 86.063 135.817 85.7406L107.339 71.2653C105.552 69.9396 102.908 70.0113 100.05 71.6595L83.3271 81.3335C80.7901 82.8025 78.4675 85.6689 77.1454 88.9294L72.1787 101.147C72.0357 101.47 71.8213 101.721 71.5712 101.936L62.2809 108.528C59.7082 110.356 57.6715 113.437 56.7067 116.554C56.3137 117.844 56.135 119.17 56.1707 120.352C56.1707 120.495 56.1707 120.639 56.2065 120.782C56.2065 120.818 56.2065 120.89 56.2065 120.925L56.2779 127.948C56.2779 128.593 56.6352 129.166 57.1712 129.489L80.2184 142.746C81.3261 143.391 82.7196 142.71 82.8983 141.456L84.1846 132.212C84.2561 131.818 84.4347 131.459 84.7206 131.173L93.7965 122.502C93.9395 122.359 94.1539 122.215 94.3325 122.144L119.416 111.538C119.559 111.466 119.702 111.395 119.809 111.287L132.03 101.792C132.173 101.685 132.28 101.542 132.387 101.398L136.425 95.6296C136.639 95.343 136.746 94.9847 136.746 94.5905V87.3529H136.782Z" fill="#2F58FF"/>
<path d="M91.2238 143.14L82.8982 138.446L91.7955 124.401L99.4779 128.736L91.2238 143.14Z" fill="#2F58FF"/>
<path d="M95.5473 129.274C93.3676 130.528 91.4739 133 90.4734 135.616C89.9731 136.905 89.6873 138.231 89.6873 139.449C89.6873 139.593 89.6873 139.736 89.6873 139.879C89.9016 143.319 92.4386 144.609 95.583 142.817C98.6917 141.026 101.264 136.726 101.443 133.072C101.443 132.928 101.443 132.785 101.443 132.642C101.443 131.423 101.157 130.42 100.657 129.704C99.6565 128.27 97.727 128.02 95.5473 129.274Z" fill="#2F58FF"/>
<path d="M127.277 122.179L118.952 117.486L127.849 103.476L135.532 107.776L127.277 122.179Z" fill="#2F58FF"/>
<path d="M131.601 108.349C129.421 109.603 127.528 112.075 126.527 114.691C126.027 115.981 125.741 117.306 125.741 118.525C125.741 118.668 125.741 118.811 125.741 118.954C125.955 122.394 128.492 123.684 131.637 121.893C134.745 120.101 137.318 115.801 137.497 112.147C137.497 112.004 137.497 111.86 137.497 111.717C137.497 110.499 137.211 109.495 136.711 108.779C135.71 107.346 133.781 107.095 131.601 108.349Z" fill="#2F58FF"/>
<path d="M126.241 86.7796L109.519 96.4537C106.982 97.9227 104.659 100.789 103.337 104.05L98.3703 116.268C98.2274 116.59 98.013 116.841 97.7629 117.056L88.4726 123.649C85.8998 125.476 83.8631 128.557 82.8984 131.674C82.5053 132.964 82.3266 134.29 82.3624 135.472C82.3624 135.616 82.3624 135.759 82.3981 135.902C82.3981 135.938 82.3981 136.01 82.3981 136.046L82.4696 141.026C82.4696 142.388 83.9703 143.247 85.1495 142.567L88.1867 140.811C88.1867 140.668 88.1867 140.524 88.1867 140.381C88.1867 139.199 88.2939 138.195 88.6869 136.906L88.7584 136.619C88.8656 136.261 89.0085 135.902 89.1515 135.544C90.4735 132.14 92.9033 129.095 95.5475 127.554C98.1917 126.013 100.657 126.228 101.979 128.127C102.122 128.342 102.229 128.557 102.372 128.772C102.765 129.596 102.98 130.635 102.98 131.818C102.98 131.961 102.98 132.104 102.98 132.248L124.24 119.958C124.24 119.815 124.24 119.671 124.24 119.528C124.24 118.346 124.455 117.092 124.848 115.802C124.955 115.443 125.098 115.085 125.241 114.727C126.563 111.323 128.993 108.278 131.637 106.737C134.281 105.196 136.746 105.411 138.069 107.31C138.211 107.525 138.319 107.74 138.462 107.955C138.855 108.779 139.069 109.818 139.069 111.001C139.069 111.144 139.069 111.287 139.069 111.431L142.857 109.245C143.428 108.922 143.75 108.313 143.75 107.704V95.5579C143.643 87.3171 134.996 81.5843 126.241 86.7796Z" fill="white"/>
<path d="M82.4695 141.026C82.4695 142.388 83.9702 143.248 85.1494 142.567L88.1866 140.811C88.1866 140.668 88.1866 140.525 88.1866 140.381C88.1866 139.199 88.2938 138.196 88.6868 136.906L88.7583 136.619" stroke="#171A21" stroke-width="2" stroke-miterlimit="10" stroke-linecap="round" stroke-linejoin="round"/>
<path d="M102.98 132.212L124.24 119.922" stroke="#171A21" stroke-width="2" stroke-miterlimit="10" stroke-linecap="round" stroke-linejoin="round"/>
<path d="M138.997 111.359L142.785 109.173C143.357 108.851 143.678 108.242 143.678 107.633V95.4862C143.678 87.317 135.031 81.5843 126.277 86.7438" stroke="#171A21" stroke-width="2" stroke-miterlimit="10" stroke-linecap="round" stroke-linejoin="round"/>
<path d="M104.623 114.655C104.123 114.942 103.551 114.44 103.766 113.903L107.196 105.447C107.911 103.691 109.197 102.115 110.555 101.326L113.485 99.6065C114.664 98.9257 116.165 99.7856 116.165 101.147V106.88C116.165 107.525 115.807 108.134 115.271 108.456L104.623 114.655Z" fill="#E8F4FA" stroke="#171A21" stroke-width="2" stroke-miterlimit="10" stroke-linecap="round" stroke-linejoin="round"/>
<path d="M115.915 112.219L113.735 113.473C113.27 113.724 112.913 114.369 112.913 114.906C112.913 115.444 113.27 115.659 113.735 115.372L115.915 114.118C116.379 113.867 116.736 113.222 116.736 112.685C116.736 112.183 116.343 111.968 115.915 112.219Z" fill="#2F58FF"/>
<path d="M76.5381 102.581L93.9753 112.613C95.1902 113.329 96.7624 112.792 97.3341 111.502L101.443 102.222C101.944 101.112 101.515 99.7858 100.443 99.1767L82.9698 89.2519C81.7549 88.5711 80.1827 89.0727 79.611 90.3626L75.5376 99.535C75.0373 100.646 75.4661 101.971 76.5381 102.581Z" fill="#E8F4FA"/>
<path d="M59.8511 121.678C61.0303 122.359 61.9593 123.971 61.9593 125.332C61.9593 126.658 60.9945 127.231 59.8511 126.551C58.6719 125.87 57.7429 124.258 57.7429 122.896C57.7429 121.57 58.6719 120.997 59.8511 121.678Z" fill="#E8F4FA"/>
<path d="M76.0735 130.743C77.2527 131.423 78.1817 133.036 78.1817 134.397C78.1817 135.723 77.2169 136.296 76.0735 135.616C74.8944 134.935 73.9653 133.322 73.9653 131.961C73.9653 130.635 74.9301 130.098 76.0735 130.743Z" fill="#E8F4FA"/>
<path d="M119.917 22.7517C127.813 27.7321 134.174 39.8426 134.138 49.7674C134.138 50.9498 134.031 52.0247 133.888 53.0279C133.888 53.0279 133.852 53.2071 133.781 53.5295C133.566 54.6403 133.245 55.6435 132.816 56.5034C131.351 59.8714 128.028 64.9234 120.595 68.0048C120.381 68.1123 120.095 68.0406 119.809 67.8615C119.524 67.6823 119.238 67.3957 119.023 67.0016C111.627 54.5328 108.304 45.2887 106.91 40.0934C106.517 38.696 106.16 37.2986 105.945 35.9013C105.874 35.4713 105.838 35.2922 105.838 35.2922C105.588 33.4648 105.517 31.7092 105.66 29.9894C106.374 21.4977 112.306 18.2372 119.416 22.4293C119.595 22.5726 119.738 22.6442 119.917 22.7517ZM119.845 49.6958C123.668 52.1322 126.813 50.1615 126.813 45.3603C126.813 40.5233 123.74 34.6472 119.881 32.2466C116.058 29.8102 112.913 31.7808 112.913 36.582C112.913 41.3832 116.022 47.2593 119.845 49.6958Z" fill="#E8F4FA" stroke="#171A21" stroke-width="2" stroke-miterlimit="10" stroke-linecap="round" stroke-linejoin="round"/>
</svg>
