<svg width="144" height="144" viewBox="0 0 144 144" fill="none" xmlns="http://www.w3.org/2000/svg">
<path d="M142.7 99.4996C142.7 99.5996 142.7 99.6996 142.7 99.7996C142.7 99.8996 142.7 99.9996 142.6 99.9996C142.6 100.1 142.6 100.2 142.5 100.3C142.5 100.4 142.4 100.4 142.4 100.5C142.4 100.6 142.3 100.7 142.3 100.8C142.3 100.9 142.2 100.9 142.2 101C142.1 101.1 142.1 101.2 142 101.3C141.9 101.4 141.8 101.5 141.8 101.6C141.8 101.6 141.8 101.6 141.7 101.7C141.6 101.8 141.5 101.9 141.3 102.1C141.2 102.2 141.1 102.3 141 102.3C140.9 102.4 140.8 102.4 140.7 102.5C140.6 102.6 140.5 102.6 140.4 102.7C140.3 102.8 140.2 102.8 140.1 102.9L124.5 112C124.2 112.2 123.9 112.3 123.7 112.4C123.6 112.4 123.5 112.5 123.4 112.5C123.2 112.6 122.9 112.7 122.7 112.8C122.6 112.8 122.5 112.9 122.4 112.9C122.2 112.9 122.1 113 121.9 113C121.8 113 121.7 113.1 121.5 113.1C121.3 113.1 121.2 113.2 121 113.2C120.9 113.2 120.8 113.2 120.7 113.3C120.4 113.4 120 113.4 119.7 113.4C119.6 113.4 119.5 113.4 119.4 113.4C119.2 113.4 119 113.4 118.8 113.4C118.7 113.4 118.5 113.4 118.4 113.4C118.2 113.4 118.1 113.4 117.9 113.4C117.8 113.4 117.6 113.4 117.5 113.4C117.3 113.4 117.2 113.4 117 113.4C116.9 113.4 116.7 113.4 116.6 113.4C116.5 113.4 116.3 113.4 116.2 113.3C116.1 113.3 115.9 113.3 115.8 113.2C115.6 113.2 115.5 113.1 115.3 113.1C115.2 113.1 115.1 113.1 114.9 113C114.7 113 114.5 112.9 114.3 112.9C114.2 112.9 114.1 112.8 114 112.8C113.7 112.7 113.3 112.6 113 112.5C112.8 112.4 112.7 112.4 112.5 112.3C112.4 112.3 112.3 112.2 112.3 112.2C112.1 112.1 111.9 112 111.6 111.9L59.7 81.7996C58.4 80.9996 57.5 80.0996 57.2 79.0996C57.1 78.7996 57 78.3996 57 78.0996V92.5996C57 93.8996 57.9 95.2996 59.6 96.2996L111.8 126.4C112 126.5 112.2 126.6 112.5 126.7C112.6 126.7 112.7 126.8 112.7 126.8C112.8 126.9 113 126.9 113.1 127C113.4 127.1 113.7 127.2 114.1 127.3H114.2C114.3 127.3 114.4 127.3 114.4 127.4C114.6 127.4 114.8 127.5 115 127.5H115.1C115.2 127.5 115.3 127.5 115.3 127.5C115.5 127.5 115.6 127.6 115.8 127.6C115.9 127.6 115.9 127.6 116 127.6C116.1 127.6 116.1 127.6 116.2 127.6C116.3 127.6 116.5 127.6 116.6 127.7C116.7 127.7 116.7 127.7 116.8 127.7C116.9 127.7 116.9 127.7 117 127.7C117.2 127.7 117.3 127.7 117.5 127.7C117.6 127.7 117.7 127.7 117.7 127.7C117.8 127.7 117.8 127.7 117.9 127.7C118.1 127.7 118.2 127.7 118.4 127.7C118.5 127.7 118.6 127.7 118.6 127.7H118.7C118.9 127.7 119.1 127.7 119.3 127.7C119.4 127.7 119.5 127.7 119.5 127.7C119.5 127.7 119.5 127.7 119.6 127.7C119.9 127.7 120.3 127.6 120.6 127.6C120.7 127.6 120.8 127.6 120.9 127.5C121.1 127.5 121.2 127.4 121.4 127.4C121.5 127.4 121.6 127.3 121.8 127.3C122 127.3 122.1 127.2 122.3 127.2H122.4C122.5 127.2 122.5 127.2 122.6 127.1C122.8 127 123.1 126.9 123.3 126.8C123.4 126.8 123.5 126.7 123.6 126.7C123.9 126.6 124.2 126.4 124.4 126.3L140 117.2C140 117.2 140.1 117.2 140.1 117.1C140.2 117.1 140.3 117 140.3 116.9C140.4 116.8 140.5 116.8 140.6 116.7C140.7 116.6 140.8 116.6 140.9 116.5C141 116.4 141.1 116.3 141.2 116.3C141.2 116.3 141.2 116.3 141.3 116.3C141.4 116.2 141.5 116.1 141.6 116C141.6 116 141.6 116 141.7 115.9C141.8 115.8 141.8 115.8 141.9 115.7C141.9 115.7 141.9 115.6 142 115.6C142.1 115.5 142.1 115.4 142.2 115.3L142.3 115.2C142.3 115.2 142.3 115.2 142.3 115.1C142.3 115 142.4 114.9 142.4 114.8C142.4 114.7 142.5 114.7 142.5 114.6C142.5 114.6 142.5 114.6 142.5 114.5C142.5 114.4 142.6 114.3 142.6 114.2C142.6 114.1 142.6 114.1 142.7 114C142.7 113.9 142.7 113.8 142.7 113.7C142.7 113.6 142.7 113.6 142.7 113.5V113.4V98.8996C142.7 99.2996 142.7 99.3996 142.7 99.4996Z" fill="#2F58FF"/>
<path d="M140.1 95.4998C143.6 97.4998 143.6 100.8 140.1 102.9L124.5 112C121 114 115.3 114 111.8 112L59.7002 81.7998C56.2002 79.7998 56.2002 76.4998 59.7002 74.3998L75.3002 65.2998C78.8002 63.2998 84.5002 63.2998 88.0002 65.2998L140.1 95.4998Z" fill="#E8F4FA"/>
<path d="M59.7002 81.7998C56.2002 79.7998 56.2002 76.4998 59.7002 74.3998L75.3002 65.2998C78.8002 63.2998 84.5002 63.2998 88.0002 65.2998L140.2 95.3998C143.7 97.3998 143.7 100.7 140.2 102.8" stroke="#171A21" stroke-width="2" stroke-miterlimit="10" stroke-linecap="round" stroke-linejoin="round"/>
<path d="M95.0001 71.0999L92.8001 72.3999C92.0001 72.7999 91.6001 73.3999 91.6001 73.9999V66.9999C91.6001 66.3999 92.0001 65.7999 92.8001 65.3999L95.0001 63.9999C95.8001 63.5999 96.2001 62.9999 96.2001 62.3999V69.3999C96.2001 69.9999 95.8001 70.5999 95.0001 71.0999Z" fill="#2F58FF"/>
<path d="M71.1 73.7001V73.6001V73.5001V73.4001C71.1 73.4001 71.1 73.3001 71 73.3001C71 73.3001 71 73.2001 70.9 73.2001L70.8 73.1001C70.8 73.1001 70.8 73.0001 70.7 73.0001C70.6 72.9001 70.6 72.9001 70.5 72.8001C70.5 72.8001 70.5 72.8001 70.4 72.7001L70.3 72.6001L70.2 72.5001L70.1 72.4001L70 72.3001L67.8 71.0001C67.8 71.0001 67.7 71.0001 67.7 70.9001L67.6 70.8001L67.5 70.7001L67.4 70.6001C67.3 70.5001 67.3 70.5001 67.2 70.4001L67.1 70.3001C67.1 70.3001 67.1 70.3001 67.1 70.2001C67.1 70.2001 67.1 70.1001 67 70.1001C67 70.1001 67 70.1001 67 70.0001V69.9001V69.8001V69.7001V69.6001V62.6001V62.7001V62.8001V62.9001V63.0001V63.1001C67 63.1001 67 63.2001 67.1 63.2001C67.1 63.2001 67.1 63.3001 67.2 63.3001L67.3 63.4001C67.3 63.4001 67.3 63.5001 67.4 63.5001C67.5 63.6001 67.5 63.6001 67.6 63.7001C67.6 63.7001 67.6 63.7001 67.7 63.8001L67.8 63.9001L67.9 64.0001L68 64.1001L68.1 64.2001L70.3 65.5001C70.3 65.5001 70.4 65.5001 70.4 65.6001L70.5 65.7001L70.6 65.8001L70.7 65.9001C70.8 66.0001 70.8 66.0001 70.9 66.1001L71 66.2001C71 66.2001 71 66.2001 71 66.3001C71 66.3001 71 66.4001 71.1 66.4001C71.1 66.4001 71.1 66.4001 71.1 66.5001V66.6001V66.7001V66.8001V66.9001V73.9001V73.8001C71.1 73.8001 71.1 73.8001 71.1 73.7001Z" fill="#2F58FF"/>
<path d="M66.6001 71.5999V71.6999V71.7999V71.8999V71.9999C66.6001 71.9999 66.6001 72.0999 66.7001 72.0999C66.7001 72.0999 66.7001 72.1999 66.8001 72.1999L66.9001 72.2999C66.9001 72.2999 66.9001 72.3999 67.0001 72.3999C67.1001 72.4999 67.1001 72.4999 67.2001 72.5999C67.2001 72.5999 67.2001 72.5999 67.3001 72.6999L67.4001 72.7999L67.5001 72.8999L67.6001 72.9999L67.7001 73.0999L70.7001 74.8999C70.9001 74.9999 71.1001 75.0999 71.2001 75.1999C71.3001 75.1999 71.3001 75.1999 71.4001 75.2999C71.6001 75.3999 71.8001 75.3999 72.0001 75.4999C72.0001 75.4999 72.0001 75.4999 72.1001 75.4999C72.3001 75.4999 72.5001 75.5999 72.7001 75.5999H72.8001C73.0001 75.5999 73.2001 75.5999 73.5001 75.5999H73.6001C73.8001 75.5999 74.0001 75.5999 74.3001 75.5999H74.4001C74.6001 75.5999 74.8001 75.4999 75.0001 75.4999H75.1001C75.3001 75.4999 75.5001 75.3999 75.6001 75.2999H75.7001C75.9001 75.1999 76.1001 75.0999 76.3001 74.9999L78.5001 73.6999C78.7001 73.5999 78.9001 73.4999 79.1001 73.3999H79.2001C79.3001 73.3999 79.4001 73.2999 79.5001 73.2999C79.6001 73.2999 79.6001 73.2999 79.7001 73.2999H79.8001H79.9001C80.0001 73.2999 80.2001 73.2999 80.3001 73.1999H80.4001H80.5001H80.6001C80.7001 73.1999 80.9001 73.1999 81.0001 73.1999H81.1001H81.2001C81.3001 73.1999 81.3001 73.1999 81.4001 73.1999C81.5001 73.1999 81.7001 73.1999 81.8001 73.1999H81.9001C82.0001 73.1999 82.1001 73.1999 82.2001 73.1999C82.3001 73.1999 82.4001 73.1999 82.5001 73.2999C82.5001 73.2999 82.5001 73.2999 82.6001 73.2999C82.7001 73.2999 82.9001 73.3999 83.0001 73.3999C83.1001 73.3999 83.1001 73.3999 83.2001 73.4999C83.3001 73.4999 83.3001 73.4999 83.4001 73.5999C83.6001 73.6999 83.8001 73.7999 83.9001 73.8999L86.1001 75.1999C86.3001 75.2999 86.5001 75.3999 86.6001 75.4999C86.7001 75.4999 86.7001 75.4999 86.8001 75.5999C87.0001 75.6999 87.2001 75.6999 87.4001 75.7999C87.4001 75.7999 87.4001 75.7999 87.5001 75.7999C87.7001 75.7999 87.9001 75.8999 88.1001 75.8999H88.2001C88.4001 75.8999 88.6001 75.8999 88.9001 75.8999H89.0001C89.2001 75.8999 89.4001 75.8999 89.7001 75.8999H89.8001C90.0001 75.8999 90.2001 75.7999 90.4001 75.7999H90.5001C90.7001 75.7999 90.9001 75.6999 91.0001 75.5999H91.1001C91.3001 75.4999 91.5001 75.3999 91.7001 75.2999L94.7001 73.4999C95.5001 73.0999 95.9001 72.4999 95.9001 71.8999V78.8999C95.9001 79.4999 95.5001 80.0999 94.7001 80.4999L91.7001 82.2999C91.5001 82.3999 91.3001 82.4999 91.1001 82.5999H91.0001C90.9001 82.5999 90.8001 82.6999 90.6001 82.6999C90.5001 82.6999 90.5001 82.6999 90.4001 82.6999H90.3001H90.2001C90.1001 82.6999 89.9001 82.6999 89.8001 82.7999H89.7001H89.6001H89.5001C89.4001 82.7999 89.2001 82.7999 89.1001 82.7999H89.0001H88.9001C88.8001 82.7999 88.8001 82.7999 88.7001 82.7999C88.6001 82.7999 88.4001 82.7999 88.3001 82.7999H88.2001C88.1001 82.7999 88.0001 82.7999 87.9001 82.7999C87.8001 82.7999 87.7001 82.7999 87.6001 82.6999C87.6001 82.6999 87.6001 82.6999 87.5001 82.6999C87.4001 82.6999 87.2001 82.5999 87.1001 82.5999C87.0001 82.5999 87.0001 82.5999 86.9001 82.4999C86.8001 82.4999 86.8001 82.4999 86.7001 82.3999C86.5001 82.2999 86.3001 82.1999 86.2001 82.0999L84.0001 80.7999C83.8001 80.6999 83.6001 80.5999 83.5001 80.4999C83.4001 80.4999 83.4001 80.4999 83.3001 80.3999C83.1001 80.2999 82.9001 80.2999 82.7001 80.1999C82.7001 80.1999 82.7001 80.1999 82.6001 80.1999C82.4001 80.1999 82.2001 80.0999 82.0001 80.0999H81.9001C81.7001 80.0999 81.5001 80.0999 81.2001 80.0999H81.1001C80.9001 80.0999 80.7001 80.0999 80.4001 80.0999H80.3001C80.1001 80.0999 79.9001 80.1999 79.7001 80.1999H79.6001C79.4001 80.1999 79.2001 80.2999 79.1001 80.3999H79.0001C78.8001 80.4999 78.6001 80.5999 78.4001 80.6999L76.2001 81.9999C76.0001 82.0999 75.8001 82.1999 75.6001 82.2999H75.5001C75.4001 82.2999 75.3001 82.3999 75.2001 82.3999C75.1001 82.3999 75.1001 82.3999 75.0001 82.3999H74.9001H74.8001C74.7001 82.3999 74.5001 82.3999 74.4001 82.4999H74.3001H74.2001H74.1001C74.0001 82.4999 73.8001 82.4999 73.7001 82.4999H73.6001H73.5001C73.4001 82.4999 73.4001 82.4999 73.3001 82.4999C73.2001 82.4999 73.0001 82.4999 72.9001 82.4999C72.9001 82.4999 72.9001 82.4999 72.8001 82.4999H72.7001C72.6001 82.4999 72.5001 82.4999 72.4001 82.4999C72.3001 82.4999 72.2001 82.4999 72.1001 82.3999C72.1001 82.3999 72.1001 82.3999 72.0001 82.3999C71.9001 82.3999 71.7001 82.2999 71.6001 82.2999C71.5001 82.2999 71.5001 82.2999 71.4001 82.1999C71.3001 82.1999 71.3001 82.1999 71.2001 82.0999C71.0001 81.9999 70.8001 81.8999 70.7001 81.7999L67.7001 79.9999C67.7001 79.9999 67.6001 79.9999 67.6001 79.8999L67.5001 79.7999L67.4001 79.6999L67.3001 79.5999C67.2001 79.4999 67.2001 79.4999 67.1001 79.3999L67.0001 79.2999C67.0001 79.2999 67.0001 79.2999 67.0001 79.1999C67.0001 79.1999 67.0001 79.0999 66.9001 79.0999C66.9001 79.0999 66.9001 79.0999 66.9001 78.9999V78.8999V78.7999V78.6999V78.5999V71.5999C66.6001 71.4999 66.6001 71.4999 66.6001 71.5999Z" fill="#2F58FF"/>
<path d="M67.8003 60.7997C66.3003 61.6997 66.3003 63.0997 67.8003 63.9997L70.0003 65.2997C71.5003 66.1997 71.5003 67.5997 70.0003 68.4997L67.8003 69.7997C66.3003 70.6997 66.3003 72.0997 67.8003 72.9997L70.8003 74.7997C72.3003 75.6997 74.8003 75.6997 76.4003 74.7997L78.6003 73.4997C80.1003 72.5997 82.6003 72.5997 84.2003 73.4997L86.4003 74.7997C87.9003 75.6997 90.4003 75.6997 92.0003 74.7997L95.0003 72.9997C96.5003 72.0997 96.6003 70.6997 95.0003 69.7997L92.8003 68.4997C91.3003 67.5997 91.3003 66.1997 92.8003 65.2997L95.0003 63.9997C96.5003 63.0997 96.5003 61.6997 95.0003 60.7997L92.0003 58.9997C90.5003 58.0997 88.0003 58.0997 86.4003 58.9997L84.2003 60.2997C82.7003 61.1997 80.2003 61.1997 78.6003 60.2997L76.4003 58.9997C74.9003 58.0997 72.4003 58.0997 70.8003 58.9997L67.8003 60.7997Z" fill="white"/>
<path d="M95.0003 63.9997C96.5003 63.0997 96.5003 61.6997 95.0003 60.7997L92.0003 58.9997C90.5003 58.0997 88.0003 58.0997 86.4003 58.9997L84.2003 60.2997C82.7003 61.1997 80.2003 61.1997 78.6003 60.2997L76.4003 58.9997C74.9003 58.0997 72.4003 58.0997 70.8003 58.9997L67.8003 60.7997C66.3003 61.6997 66.3003 63.0997 67.8003 63.9997" stroke="#171A21" stroke-width="2" stroke-miterlimit="10" stroke-linecap="round" stroke-linejoin="round"/>
<path d="M76.7 63.7998C79.3 62.2998 83.4 62.2998 86 63.7998C88.6 65.2998 88.5 67.6998 86 69.1998C83.4 70.6998 79.3 70.6998 76.7 69.1998C74.1 67.6998 74.1 65.2998 76.7 63.7998Z" fill="#2F58FF"/>
<path d="M101.4 90.1998C96.6 90.1998 92.7 88.1998 92.7 83.2998L92.5 28.4998C92.5 23.6998 91.2 20.0998 89 18.7998C86.8 17.4998 82.9 18.1998 78.7 20.6998C66.5 27.6998 56.3 33.1998 56.3 47.1998C56.3 51.9998 52.4 54.0998 47.6 54.0998C42.8 54.0998 38.9 52.0998 38.9 47.1998C38.8 27.0998 52.5 15.6998 69.9 5.59978C79.7 -0.100224 89.9 -0.800224 97.6 3.69978C105.3 8.19978 109.8 17.1998 109.8 28.4998L110 83.2998C110.1 88.0998 106.3 90.1998 101.4 90.1998Z" fill="#2F58FF"/>
<path d="M133.1 93.1996L130.9 94.4996C130.1 94.8996 129.7 95.4996 129.7 96.0996V89.0996C129.7 88.4996 130.1 87.8996 130.9 87.4996L133.1 86.1996C133.9 85.7996 134.3 85.1996 134.3 84.5996V91.5996C134.2 92.1996 133.8 92.6996 133.1 93.1996Z" fill="#2F58FF"/>
<path d="M109.2 95.7997V95.6997V95.5997V95.4997C109.2 95.4997 109.2 95.3997 109.1 95.3997C109.1 95.3997 109.1 95.2997 109 95.2997L108.9 95.1997C108.9 95.1997 108.9 95.0997 108.8 95.0997C108.7 94.9997 108.7 94.9997 108.6 94.8997C108.6 94.8997 108.6 94.8997 108.5 94.7997L108.4 94.6997L108.3 94.5997L108.2 94.4997L108.1 94.3997L105.9 93.0997C105.9 93.0997 105.8 93.0997 105.8 92.9997L105.7 92.8997L105.6 92.7997L105.5 92.6997C105.4 92.5997 105.4 92.5997 105.3 92.4997L105.2 92.3997C105.2 92.3997 105.2 92.3997 105.2 92.2997C105.2 92.2997 105.2 92.1997 105.1 92.1997C105.1 92.1997 105.1 92.1997 105.1 92.0997V91.9997V91.8997V91.7997V91.6997V84.6997V84.7997V84.8997V84.9997V85.0997V85.1997C105.1 85.1997 105.1 85.2997 105.2 85.2997C105.2 85.2997 105.2 85.3997 105.3 85.3997L105.4 85.4997C105.4 85.4997 105.4 85.5997 105.5 85.5997C105.6 85.6997 105.6 85.6997 105.7 85.7997C105.7 85.7997 105.7 85.7997 105.8 85.8997L105.9 85.9997L106 86.0997L106.1 86.1997L106.2 86.2997L108.4 87.5997C108.4 87.5997 108.5 87.5997 108.5 87.6997L108.6 87.7997L108.7 87.8997L108.8 87.9997C108.9 88.0997 108.9 88.0997 109 88.1997L109.1 88.2997C109.1 88.2997 109.1 88.2997 109.1 88.3997C109.1 88.3997 109.1 88.4997 109.2 88.4997C109.2 88.4997 109.2 88.4997 109.2 88.5997V88.6997V88.7997V88.8997V88.9997V95.9997V95.8997C109.2 95.8997 109.2 95.8997 109.2 95.7997Z" fill="#2F58FF"/>
<path d="M104.6 93.6997V93.7997V93.8997V93.9997V94.0997C104.6 94.0997 104.6 94.1997 104.7 94.1997C104.7 94.1997 104.7 94.2997 104.8 94.2997L104.9 94.3997C104.9 94.3997 104.9 94.4997 105 94.4997C105.1 94.5997 105.1 94.5997 105.2 94.6997C105.2 94.6997 105.2 94.6997 105.3 94.7997L105.4 94.8997L105.5 94.9997L105.6 95.0997L105.7 95.1997L108.7 96.9997C108.9 97.0997 109.1 97.1997 109.2 97.2997C109.3 97.2997 109.3 97.2997 109.4 97.3997C109.6 97.4997 109.8 97.4997 110 97.5997C110 97.5997 110 97.5997 110.1 97.5997C110.3 97.5997 110.5 97.6997 110.7 97.6997H110.8C111 97.6997 111.2 97.6997 111.5 97.6997H111.6C111.8 97.6997 112 97.6997 112.3 97.6997H112.4C112.6 97.6997 112.8 97.5997 113 97.5997H113.1C113.3 97.5997 113.5 97.4997 113.6 97.3997H113.7C113.9 97.2997 114.1 97.1997 114.3 97.0997L116.5 95.7997C116.7 95.6997 116.9 95.5997 117.1 95.4997H117.2C117.3 95.4997 117.4 95.3997 117.5 95.3997C117.6 95.3997 117.6 95.3997 117.7 95.3997H117.8H117.9C118 95.3997 118.2 95.3997 118.3 95.2997H118.4H118.5H118.6C118.7 95.2997 118.9 95.2997 119 95.2997H119.1H119.2C119.3 95.2997 119.3 95.2997 119.4 95.2997C119.5 95.2997 119.7 95.2997 119.8 95.2997H119.9C120 95.2997 120.1 95.2997 120.2 95.2997C120.3 95.2997 120.4 95.2997 120.5 95.3997C120.5 95.3997 120.5 95.3997 120.6 95.3997C120.7 95.3997 120.9 95.4997 121 95.4997C121.1 95.4997 121.1 95.4997 121.2 95.5997C121.3 95.5997 121.3 95.5997 121.4 95.6997C121.6 95.7997 121.8 95.8997 121.9 95.9997L124.1 97.2997C124.3 97.3997 124.5 97.4997 124.6 97.5997C124.7 97.5997 124.7 97.5997 124.8 97.6997C125 97.7997 125.2 97.7997 125.4 97.8997C125.4 97.8997 125.4 97.8997 125.5 97.8997C125.7 97.8997 125.9 97.9997 126.1 97.9997H126.2C126.4 97.9997 126.6 97.9997 126.9 97.9997H127C127.2 97.9997 127.4 97.9997 127.7 97.9997H127.8C128 97.9997 128.2 97.8997 128.4 97.8997H128.5C128.7 97.8997 128.9 97.7997 129 97.6997H129.1C129.3 97.5997 129.5 97.4997 129.7 97.3997L132.7 95.5997C133.5 95.1997 133.9 94.5997 133.9 93.9997V101C133.9 101.6 133.5 102.2 132.7 102.6L129.7 104.4C129.5 104.5 129.3 104.6 129.1 104.7H129C128.9 104.7 128.8 104.8 128.6 104.8C128.5 104.8 128.5 104.8 128.4 104.8H128.3H128.2C128.1 104.8 127.9 104.8 127.8 104.9H127.7H127.6H127.5C127.4 104.9 127.2 104.9 127.1 104.9H127H126.9C126.8 104.9 126.8 104.9 126.7 104.9C126.6 104.9 126.4 104.9 126.3 104.9H126.2C126.1 104.9 126 104.9 125.9 104.9C125.8 104.9 125.7 104.9 125.6 104.8C125.6 104.8 125.6 104.8 125.5 104.8C125.4 104.8 125.2 104.7 125.1 104.7C125 104.7 125 104.7 124.9 104.6C124.8 104.6 124.8 104.6 124.7 104.5C124.5 104.4 124.3 104.3 124.2 104.2L122 102.9C121.8 102.8 121.6 102.7 121.5 102.6C121.4 102.6 121.4 102.6 121.3 102.5C121.1 102.4 120.9 102.4 120.7 102.3C120.7 102.3 120.7 102.3 120.6 102.3C120.4 102.3 120.2 102.2 120 102.2H119.9C119.7 102.2 119.5 102.2 119.2 102.2H119.1C118.9 102.2 118.7 102.2 118.4 102.2H118.3C118.1 102.2 117.9 102.3 117.7 102.3H117.6C117.4 102.3 117.2 102.4 117.1 102.5H117C116.8 102.6 116.6 102.7 116.4 102.8L114.2 104.1C114 104.2 113.8 104.3 113.6 104.4H113.5C113.4 104.4 113.3 104.5 113.2 104.5C113.1 104.5 113.1 104.5 113 104.5H112.9H112.8C112.7 104.5 112.5 104.5 112.4 104.6H112.3H112.2H112.1C112 104.6 111.8 104.6 111.7 104.6H111.6H111.5C111.4 104.6 111.4 104.6 111.3 104.6C111.2 104.6 111 104.6 110.9 104.6C110.9 104.6 110.9 104.6 110.8 104.6H110.7C110.6 104.6 110.5 104.6 110.4 104.6C110.3 104.6 110.2 104.6 110.1 104.5C110.1 104.5 110.1 104.5 110 104.5C109.9 104.5 109.7 104.4 109.6 104.4C109.5 104.4 109.5 104.4 109.4 104.3C109.3 104.3 109.3 104.3 109.2 104.2C109 104.1 108.8 104 108.7 103.9L105.7 102.1C105.7 102.1 105.6 102.1 105.6 102L105.5 101.9L105.4 101.8L105.3 101.7C105.2 101.6 105.2 101.6 105.1 101.5L105 101.4C105 101.4 105 101.4 105 101.3C105 101.3 105 101.2 104.9 101.2C104.9 101.2 104.9 101.2 104.9 101.1V101V100.9V100.8V100.7V93.6997C104.6 93.5997 104.6 93.6997 104.6 93.6997Z" fill="#2F58FF"/>
<path d="M105.8 82.8998C104.3 83.7998 104.3 85.1998 105.8 86.0998L108 87.3998C109.5 88.2998 109.5 89.6998 108 90.5998L105.8 91.8998C104.3 92.7998 104.3 94.1998 105.8 95.0998L108.8 96.8998C110.3 97.7998 112.8 97.7998 114.4 96.8998L116.6 95.5998C118.1 94.6998 120.6 94.6998 122.2 95.5998L124.4 96.8998C125.9 97.7998 128.4 97.7998 130 96.8998L133 95.0998C134.5 94.1998 134.6 92.7998 133 91.8998L130.8 90.5998C129.3 89.6998 129.3 88.2998 130.8 87.3998L133 86.0998C134.5 85.1998 134.5 83.7998 133 82.8998L130 81.0998C128.5 80.1998 126 80.1998 124.4 81.0998L122.2 82.3998C120.7 83.2998 118.2 83.2998 116.6 82.3998L114.4 81.0998C112.9 80.1998 110.4 80.1998 108.8 81.0998L105.8 82.8998Z" fill="white"/>
<path d="M133 86.1999C134.5 85.2999 134.5 83.8999 133 82.9999L130 81.1999C128.5 80.2999 126 80.2999 124.4 81.1999L122.2 82.4999C120.7 83.3999 118.2 83.3999 116.6 82.4999L114.4 81.1999C112.9 80.2999 110.4 80.2999 108.8 81.1999" stroke="#171A21" stroke-width="2" stroke-miterlimit="10" stroke-linecap="round" stroke-linejoin="round"/>
<path d="M114.8 85.8999C117.4 84.3999 121.5 84.3999 124.1 85.8999C126.7 87.3999 126.6 89.7999 124.1 91.2999C121.5 92.7999 117.4 92.7999 114.8 91.2999C112.2 89.7999 112.2 87.3999 114.8 85.8999Z" fill="#2F58FF"/>
<path d="M103.5 119C103.4 119.1 103.4 119.1 103.4 119.1C103.4 119.1 103.3 119.1 103.3 119.2C103.2 119.2 103.2 119.3 103.1 119.3C102.5 119.6 101.9 119.9 101.3 120.2C101.2 120.3 101 120.3 100.9 120.4C100.3 120.7 99.6998 121 99.0998 121.3C98.9998 121.3 98.8998 121.4 98.7998 121.4C98.1998 121.6 97.6998 121.9 97.0998 122.1C96.9998 122.2 96.8998 122.2 96.6998 122.3C96.0998 122.6 95.3998 122.8 94.7998 123C94.6998 123 94.4998 123.1 94.3998 123.1C93.7998 123.3 93.1998 123.5 92.5998 123.7C92.4998 123.7 92.3998 123.8 92.3998 123.8C92.0998 123.9 91.7998 124 91.4998 124.1C90.9998 124.3 90.4998 124.4 89.9998 124.6C89.6998 124.7 89.2998 124.8 88.9998 124.9C88.4998 125 88.0998 125.2 87.5998 125.3C87.2998 125.4 86.8998 125.5 86.5998 125.5C86.0998 125.6 85.6998 125.7 85.1998 125.8C84.7998 125.9 84.4998 126 84.0998 126C83.5998 126.1 83.1998 126.2 82.6998 126.3C82.0998 126.4 81.3998 126.5 80.6998 126.6C80.6998 126.6 80.6998 126.6 80.5998 126.6C79.8998 126.7 79.1998 126.8 78.3998 126.9C78.1998 126.9 77.9998 127 77.7998 127C77.1998 127.1 76.4998 127.2 75.8998 127.2C75.7998 127.2 75.6998 127.2 75.5998 127.2C74.8998 127.3 74.0998 127.3 73.3998 127.4C73.2998 127.4 73.0998 127.4 72.9998 127.4C72.2998 127.5 71.5998 127.5 70.7998 127.5C70.6998 127.5 70.5998 127.5 70.3998 127.5C69.8998 127.5 69.3998 127.5 68.8998 127.5C68.3998 127.5 67.8998 127.5 67.4998 127.5C67.0998 127.5 66.6998 127.5 66.2998 127.5C65.7998 127.5 65.2998 127.5 64.7998 127.5C64.3998 127.5 63.9998 127.5 63.5998 127.5C63.0998 127.5 62.6998 127.5 62.1998 127.4C61.7998 127.4 61.3998 127.4 60.9998 127.3C60.4998 127.3 60.0998 127.2 59.5998 127.2C59.1998 127.2 58.7998 127.1 58.3998 127.1C57.8998 127.1 57.4998 127 56.9998 127C56.5998 127 56.1998 126.9 55.7998 126.9C55.2998 126.8 54.8998 126.8 54.3998 126.7C53.9998 126.6 53.5998 126.6 53.2998 126.5C52.7998 126.4 52.2998 126.3 51.6998 126.3C51.3998 126.2 50.9998 126.2 50.6998 126.1C50.0998 126 49.5998 125.9 48.9998 125.8C48.6998 125.7 48.3998 125.7 48.0998 125.6C47.9998 125.6 47.8998 125.6 47.8998 125.5C47.1998 125.4 46.5998 125.2 45.8998 125C45.7998 125 45.6998 125 45.5998 124.9C44.8998 124.7 44.1998 124.6 43.5998 124.4C43.4998 124.4 43.2998 124.3 43.1998 124.3C42.4998 124.1 41.8998 123.9 41.1998 123.7H41.0998C40.3998 123.5 39.7998 123.3 39.0998 123C38.8998 122.9 38.6998 122.9 38.4998 122.8C37.9998 122.6 37.4998 122.4 36.9998 122.2C36.7998 122.1 36.6998 122.1 36.4998 122C36.0998 121.8 35.6998 121.7 35.2998 121.5C34.9998 121.4 34.6998 121.3 34.3998 121.1C33.9998 120.9 33.5998 120.7 33.1998 120.5C32.8998 120.4 32.6998 120.3 32.3998 120.1C31.9998 119.9 31.4998 119.7 31.0998 119.4C30.8998 119.3 30.6998 119.2 30.3998 119.1C29.6998 118.8 29.0998 118.4 28.4998 118C21.5998 114 16.6998 109.1 14.3998 103.6H4.9998C4.7998 103.6 4.5998 103.6 4.3998 103.6C4.3998 103.6 4.3998 103.6 4.2998 103.6C4.0998 103.6 3.9998 103.5 3.7998 103.5H3.6998C3.4998 103.5 3.3998 103.4 3.1998 103.4C2.9998 103.3 2.8998 103.3 2.6998 103.2C2.0998 102.9 1.7998 102.4 1.7998 101.9V116.4C1.7998 116.9 2.0998 117.4 2.6998 117.7C2.7998 117.8 2.9998 117.9 3.1998 117.9C3.2998 117.9 3.3998 118 3.5998 118H3.6998H3.7998H3.8998C3.9998 118 4.0998 118 4.1998 118.1H4.2998C4.2998 118.1 4.2998 118.1 4.3998 118.1H4.4998C4.5998 118.1 4.69981 118.1 4.7998 118.1H4.8998H14.2998C16.6998 123.5 21.4998 128.5 28.3998 132.5C28.9998 132.9 29.6998 133.2 30.2998 133.6C30.4998 133.7 30.6998 133.8 30.9998 133.9C31.3998 134.1 31.8998 134.3 32.2998 134.6C32.5998 134.7 32.7998 134.8 33.0998 135C33.4998 135.2 33.8998 135.4 34.2998 135.6C34.5998 135.7 34.8998 135.8 35.1998 136C35.4998 136.1 35.7998 136.3 36.1998 136.4C36.2998 136.4 36.3998 136.5 36.4998 136.5C36.6998 136.6 36.7998 136.6 36.9998 136.7C37.4998 136.9 37.9998 137.1 38.4998 137.3C38.6998 137.4 38.8998 137.4 39.0998 137.5C39.7998 137.7 40.3998 138 41.0998 138.2H41.1998C41.6998 138.4 42.1998 138.5 42.6998 138.7C42.8998 138.7 42.9998 138.8 43.1998 138.8C43.2998 138.8 43.4998 138.9 43.5998 138.9C44.2998 139.1 44.9998 139.3 45.5998 139.4C45.6998 139.4 45.7998 139.4 45.8998 139.5C46.5998 139.7 47.1998 139.8 47.8998 140C47.9998 140 48.0998 140 48.0998 140.1H48.1998C48.3998 140.2 48.6998 140.2 48.8998 140.2C49.4998 140.3 49.9998 140.4 50.5998 140.5C50.8998 140.6 51.2998 140.6 51.5998 140.7C52.0998 140.8 52.5998 140.9 53.0998 140.9C53.1998 140.9 53.2998 140.9 53.3998 140.9C53.6998 140.9 53.9998 141 54.2998 141C54.7998 141.1 55.1998 141.1 55.6998 141.2C56.0998 141.2 56.4998 141.3 56.8998 141.3C57.3998 141.3 57.7998 141.4 58.2998 141.4C58.3998 141.4 58.5998 141.4 58.6998 141.4C58.9998 141.4 59.1998 141.4 59.4998 141.5C59.9998 141.5 60.3998 141.6 60.8998 141.6C61.2998 141.6 61.6998 141.6 62.0998 141.7C62.5998 141.7 62.9998 141.7 63.4998 141.8C63.6998 141.8 63.7998 141.8 63.9998 141.8C64.1998 141.8 64.4998 141.8 64.6998 141.8C65.1998 141.8 65.6998 141.8 66.1998 141.8C66.5998 141.8 66.9998 141.8 67.3998 141.8C67.8998 141.8 68.3998 141.8 68.7998 141.8C68.9998 141.8 69.1998 141.8 69.3998 141.8C69.6998 141.8 69.9998 141.8 70.2998 141.8C70.3998 141.8 70.4998 141.8 70.6998 141.8C71.3998 141.8 72.1998 141.7 72.8998 141.7C72.9998 141.7 73.1998 141.7 73.2998 141.7C73.9998 141.6 74.6998 141.6 75.3998 141.5H75.4998C75.5998 141.5 75.6998 141.5 75.7998 141.5C76.3998 141.4 77.0998 141.4 77.6998 141.3C77.8998 141.3 78.0998 141.3 78.2998 141.2C78.9998 141.1 79.7998 141 80.4998 140.9C80.4998 140.9 80.4998 140.9 80.5998 140.9C81.0998 140.8 81.6998 140.7 82.1998 140.6C82.2998 140.6 82.3998 140.5 82.5998 140.5C83.0998 140.4 83.4998 140.3 83.9998 140.2C84.3998 140.1 84.6998 140.1 85.0998 140C85.5998 139.9 85.9998 139.8 86.4998 139.7C86.7998 139.6 87.1998 139.5 87.4998 139.5C87.9998 139.4 88.4998 139.2 88.8998 139.1C89.1998 139 89.5998 138.9 89.8998 138.8C90.3998 138.7 90.8998 138.5 91.3998 138.3C91.5998 138.2 91.8998 138.2 92.1998 138.1H92.2998C92.3998 138.1 92.4998 138 92.4998 138C93.0998 137.8 93.6998 137.6 94.2998 137.4C94.3998 137.4 94.5998 137.3 94.6998 137.3C95.2998 137.1 95.9998 136.8 96.5998 136.6C96.6998 136.5 96.7998 136.5 96.9998 136.4C97.5998 136.2 98.0998 135.9 98.6998 135.7C98.7998 135.7 98.8998 135.6 98.9998 135.6C99.5998 135.3 100.2 135 100.8 134.7C100.9 134.6 101.1 134.6 101.2 134.5C101.8 134.2 102.4 133.9 103 133.6C103 133.6 103.1 133.6 103.1 133.5C103.1 133.5 103.1 133.5 103.2 133.5C103.2 133.5 103.3 133.5 103.3 133.4C103.3 133.4 103.4 133.4 103.4 133.3L103.5 133.2L103.6 133.1L103.7 133C103.7 133 103.7 133 103.7 132.9V132.8C103.7 132.8 103.7 132.8 103.7 132.7V132.6V132.5V132.4V132.3V119.3" fill="#2F58FF"/>
<path d="M43.0997 118.7C43.1997 118.7 43.1997 118.7 43.2997 118.7H43.3997C43.4997 118.7 43.5997 118.7 43.6997 118.7C43.8997 118.7 44.0997 118.6 44.2997 118.6C44.3997 118.6 44.4997 118.5 44.5997 118.5H44.6997C44.7997 118.5 44.8997 118.4 44.9997 118.4C45.0997 118.4 45.0997 118.3 45.1997 118.3C45.2997 118.3 45.2997 118.2 45.3997 118.2C45.4997 118.1 45.4997 118.1 45.5997 118L45.6997 117.9V117.8C45.6997 117.8 45.6997 117.8 45.6997 117.7V117.6C45.6997 117.6 45.6997 117.6 45.6997 117.5V117.4C45.6997 117.4 45.6997 117.4 45.6997 117.3V102.8V102.9V103V103.1V103.2C45.6997 103.2 45.6997 103.2 45.6997 103.3V103.4C45.6997 103.4 45.6997 103.4 45.6997 103.5L45.5997 103.6C45.5997 103.6 45.5997 103.6 45.5997 103.7C45.5997 103.8 45.4997 103.8 45.3997 103.9C45.3997 103.9 45.2997 104 45.1997 104C45.0997 104 45.0997 104.1 44.9997 104.1C44.8997 104.1 44.7997 104.2 44.6997 104.2H44.5997C44.4997 104.2 44.3997 104.3 44.2997 104.3C44.0997 104.4 43.8997 104.4 43.6997 104.4C43.6997 104.4 43.6997 104.4 43.5997 104.4C43.4997 104.4 43.3997 104.4 43.2997 104.4H43.1997C43.0997 104.4 43.0997 104.4 42.9997 104.4C42.8997 104.4 42.7997 104.4 42.6997 104.4H34.1997V118.9H42.6997C42.8997 118.7 42.9997 118.7 43.0997 118.7Z" fill="#2F58FF"/>
<path d="M103.5 116.8C104.5 117.5 104.3 118.6 103.2 119.2C82.0997 130.7 49.3997 130.5 28.7997 118.5C21.8997 114.5 16.9997 109.6 14.6997 104.1H5.29974C4.39974 104.1 3.59974 103.9 3.09974 103.6C2.09974 103 1.79974 102 2.79974 101.2L21.5997 86.5999C22.7997 85.6999 24.9997 85.5999 26.2997 86.3999C26.3997 86.4999 26.4997 86.4999 26.5997 86.5999L45.4997 101.2C47.0997 102.4 45.5997 104.1 42.9997 104.1H34.4997C36.1997 106.6 38.7997 108.8 42.0997 110.7C55.5997 118.5 77.5997 118.5 90.9997 110.7C92.3997 109.9 94.5997 110 95.6997 110.6C95.7997 110.6 95.7997 110.7 95.8997 110.7L103.5 116.8Z" fill="white"/>
<path d="M2.90003 103.7C1.90003 103.1 1.60003 102.1 2.60003 101.3L21.4 86.7C22.6 85.8 24.8 85.7 26.1 86.5C26.2 86.6 26.3 86.6 26.4 86.7L45.3 101.3C46.9 102.5 45.4 104.2 42.8 104.2H34.3C36 106.7 38.6 108.9 41.9 110.8C55.4 118.6 77.4 118.6 90.8 110.8C92.2 110 94.4 110.1 95.5 110.7C95.6 110.7 95.6 110.8 95.7 110.8" stroke="#171A21" stroke-width="2" stroke-miterlimit="10" stroke-linecap="round" stroke-linejoin="round"/>
</svg>
