<svg width="144" height="144" viewBox="0 0 144 144" fill="none" xmlns="http://www.w3.org/2000/svg">
<path d="M142 69.5002C142 69.4002 142 69.3002 142 69.3002C142 68.7002 142 68.1002 141.9 67.6002V67.5002C141.9 67.3002 141.9 67.2002 141.9 67.0002C141.9 66.6002 141.8 66.2002 141.8 65.9002C141.8 65.8002 141.8 65.6002 141.8 65.5002C141.8 65.3002 141.7 65.0002 141.7 64.8002C141.7 64.6002 141.7 64.3002 141.6 64.1002C141.6 63.9002 141.5 63.7002 141.5 63.4002C141.5 63.1002 141.4 62.9002 141.4 62.6002C141.4 62.5002 141.4 62.3002 141.3 62.2002C141.2 61.9002 141.2 61.5002 141.1 61.2002C141.1 61.0002 141 60.7002 141 60.5002C141 60.4002 141 60.4002 141 60.3002C140.9 59.8002 140.8 59.2002 140.7 58.7002C140.7 58.6002 140.7 58.5002 140.6 58.4002C140.5 57.7002 140.3 57.1002 140.1 56.4002V56.3002C140 56.1002 140 55.9002 139.9 55.6002C139.8 55.2002 139.7 54.8002 139.6 54.4002C139.6 54.3002 139.5 54.2002 139.5 54.1002C139.4 53.8002 139.3 53.6002 139.3 53.3002C139.2 53.0002 139.1 52.7002 139.1 52.4002C139 52.2002 139 52.1002 138.9 51.9002C138.8 51.6002 138.7 51.4002 138.6 51.1002C138.5 50.9002 138.5 50.7002 138.4 50.5002C138.3 50.3002 138.2 50.0002 138.1 49.8002C138 49.5002 137.9 49.3002 137.8 49.0002C137.8 48.9002 137.7 48.7002 137.7 48.6002C137.6 48.2002 137.4 47.8002 137.3 47.4002C137.2 47.2002 137.2 47.0002 137.1 46.9002C137.1 46.9002 137.1 46.8002 137 46.8002C136.8 46.2002 136.5 45.6002 136.3 45.0002C136.3 45.0002 136.3 44.9002 136.2 44.9002C136.1 44.7002 136.1 44.6002 136 44.4002C135.8 44.0002 135.7 43.6002 135.5 43.2002C135.4 43.1002 135.4 42.9002 135.3 42.8002C135.2 42.6002 135.1 42.3002 135 42.1002C134.9 41.9002 134.8 41.6002 134.7 41.4002C134.6 41.2002 134.5 41.0002 134.4 40.8002C134.3 40.5002 134.1 40.2002 134 39.9002C133.9 39.7002 133.8 39.6002 133.8 39.4002C133.7 39.2002 133.6 38.9002 133.4 38.7002C133.2 38.4002 133.1 38.1002 132.9 37.7002C132.8 37.6002 132.8 37.4002 132.7 37.3002C132.6 37.2002 132.5 37.0002 132.5 36.9002C132 36.1002 131.6 35.2002 131.1 34.4002C131 34.3002 131 34.2002 130.9 34.1002L130.8 34.0002C130.4 33.3002 130 32.6002 129.6 32.0002C129.6 31.9002 129.5 31.9002 129.5 31.8002C129 31.1002 128.6 30.3002 128.1 29.6002C128.1 29.6002 128.1 29.5002 128 29.5002C127.9 29.4002 127.9 29.3002 127.8 29.3002C127.2 28.4002 126.5 27.5002 125.9 26.6002C125.8 26.5002 125.7 26.4002 125.7 26.3002C125.6 26.2002 125.6 26.1002 125.5 26.1002C125.2 25.6002 124.8 25.2002 124.5 24.8002C124.3 24.6002 124.2 24.4002 124 24.2002L123.9 24.1002C123.7 23.9002 123.5 23.6002 123.3 23.4002C123.1 23.1002 122.8 22.8002 122.6 22.5002C122.5 22.4002 122.5 22.4002 122.4 22.3002C122.2 22.1002 122 21.8002 121.8 21.6002C121.6 21.3002 121.4 21.1002 121.1 20.8002C121 20.7002 120.9 20.6002 120.9 20.5002C120.7 20.3002 120.5 20.0002 120.3 19.8002C120.1 19.6002 119.9 19.4002 119.7 19.2002C119.6 19.1002 119.5 19.0002 119.4 18.9002C119.2 18.7002 118.9 18.4002 118.7 18.2002C118.5 18.0002 118.4 17.9002 118.2 17.7002C118.1 17.6002 117.9 17.4002 117.8 17.3002C117.6 17.1002 117.3 16.8002 117.1 16.6002C117 16.5002 116.8 16.3002 116.7 16.2002C116.5 16.1002 116.4 15.9002 116.2 15.8002C115.9 15.6002 115.7 15.3002 115.4 15.1002C115.3 15.0002 115.1 14.9002 115 14.7002C114.8 14.5002 114.7 14.4002 114.5 14.2002C114.2 14.0002 114 13.7002 113.7 13.5002C113.6 13.4002 113.5 13.3002 113.3 13.2002C113.1 13.0002 112.9 12.9002 112.7 12.7002C112.4 12.5002 112.2 12.3002 111.9 12.1002C111.8 12.0002 111.7 11.9002 111.6 11.9002C111.4 11.7002 111.1 11.5002 110.9 11.4002C110.7 11.2002 110.4 11.0002 110.2 10.9002C110.1 10.8002 110.1 10.8002 110 10.7002C109.7 10.5002 109.4 10.2002 109.1 10.0002C108.9 9.9002 108.7 9.7002 108.5 9.6002L108.4 9.5002C107.9 9.1002 107.3 8.8002 106.8 8.5002C106.7 8.4002 106.6 8.4002 106.5 8.3002C106.1 8.0002 105.7 7.8002 105.2 7.5002C105.1 7.4002 105 7.4002 104.8 7.3002C104.4 7.1002 104 6.9002 103.6 6.60019C103.5 6.5002 103.3 6.4002 103.2 6.4002C103 6.3002 102.8 6.20019 102.6 6.10019C102.4 6.0002 102.3 5.9002 102.1 5.9002C101.8 5.8002 101.6 5.7002 101.4 5.5002C101.2 5.4002 101 5.30019 100.9 5.2002C100.8 5.2002 100.8 5.1002 100.7 5.1002C100.2 4.9002 99.6999 4.7002 99.1999 4.5002C98.6999 4.3002 98.1999 4.1002 97.6999 3.9002C97.5999 3.9002 97.5999 3.9002 97.4999 3.8002C97.2999 3.7002 97.0999 3.7002 96.9999 3.6002C96.6999 3.5002 96.4999 3.4002 96.1999 3.4002C96.0999 3.4002 95.8999 3.3002 95.7999 3.3002C95.5999 3.2002 95.3999 3.2002 95.0999 3.1002C94.8999 3.1002 94.7999 3.0002 94.5999 3.0002C94.3999 3.0002 94.2999 2.9002 94.0999 2.9002C93.8999 2.8002 93.6999 2.8002 93.3999 2.8002C93.2999 2.8002 93.1999 2.7002 92.9999 2.7002C92.7999 2.7002 92.5999 2.6002 92.3999 2.6002C92.1999 2.0002 91.9999 2.0002 91.6999 1.9002C91.5999 1.9002 91.4999 1.9002 91.3999 1.9002C91.1999 1.9002 90.9999 1.9002 90.7999 1.8002C90.4999 1.8002 90.2999 1.7002 89.9999 1.7002C89.8999 1.7002 89.7999 1.7002 89.7999 1.7002C89.5999 1.7002 89.3999 1.7002 89.2999 1.7002C88.9999 1.7002 88.6999 1.7002 88.3999 1.7002C88.2999 1.7002 88.1999 1.7002 88.0999 1.7002C87.9999 1.7002 87.7999 1.7002 87.6999 1.7002C87.2999 1.7002 86.8999 1.7002 86.4999 1.8002C86.3999 1.8002 86.2999 1.8002 86.1999 1.8002C85.9999 1.8002 85.8999 1.8002 85.6999 1.9002C85.5999 1.9002 85.4999 1.9002 85.2999 1.9002C84.7999 1.9002 84.3999 2.0002 83.9999 2.1002C83.8999 2.1002 83.7999 2.2002 83.5999 2.2002C83.2999 2.3002 82.8999 2.4002 82.5999 2.5002C82.3999 2.5002 82.2999 2.6002 82.0999 2.7002C81.8999 2.8002 81.6999 2.8002 81.4999 2.9002C81.3999 2.9002 81.3999 2.9002 81.2999 3.0002C80.9999 3.1002 80.5999 3.3002 80.2999 3.4002C80.0999 3.5002 79.9999 3.5002 79.7999 3.6002C79.2999 3.8002 78.8999 4.1002 78.3999 4.3002L64.3999 12.4002C64.8999 12.1002 65.2999 11.9002 65.7999 11.7002C65.9999 11.6002 66.0999 11.6002 66.2999 11.5002C66.5999 11.4002 66.9999 11.2002 67.2999 11.1002C67.5999 11.0002 67.7999 10.9002 68.0999 10.8002C68.2999 10.7002 68.3999 10.7002 68.5999 10.6002C68.8999 10.5002 69.2999 10.4002 69.5999 10.3002C69.6999 10.3002 69.7999 10.2002 69.9999 10.2002C70.3999 10.1002 70.8999 10.0002 71.2999 10.0002C71.3999 10.0002 71.4999 10.0002 71.6999 10.0002C71.9999 10.0002 72.2999 9.9002 72.4999 9.9002C72.8999 9.9002 73.2999 9.9002 73.6999 9.8002C73.8999 9.8002 74.0999 9.8002 74.3999 9.8002C74.6999 9.8002 74.9999 9.8002 75.2999 9.8002C75.5999 9.8002 75.7999 9.8002 76.0999 9.8002C76.3999 9.8002 76.5999 9.9002 76.8999 9.9002C77.1999 9.9002 77.4999 10.0002 77.7999 10.0002C77.9999 10.0002 78.2999 10.1002 78.4999 10.1002C78.7999 10.2002 79.0999 10.2002 79.4999 10.3002C79.6999 10.3002 79.8999 10.4002 80.1999 10.4002C80.4999 10.5002 80.8999 10.6002 81.1999 10.7002C81.3999 10.8002 81.5999 10.8002 81.8999 10.9002C82.2999 11.0002 82.6999 11.1002 82.9999 11.3002C83.1999 11.4002 83.3999 11.4002 83.4999 11.5002C84.5999 11.9002 85.7999 12.3002 86.8999 12.9002C87.0999 13.0002 87.2999 13.1002 87.3999 13.2002C87.7999 13.4002 88.1999 13.6002 88.5999 13.8002C88.7999 13.9002 88.9999 14.0002 89.1999 14.1002C89.6999 14.4002 90.2999 14.7002 90.7999 15.0002C91.3999 15.3002 91.8999 15.7002 92.3999 16.0002C92.4999 16.1002 92.5999 16.1002 92.6999 16.2002C93.2999 16.6002 93.8999 17.0002 94.3999 17.3002C94.5999 17.4002 94.7999 17.6002 94.9999 17.7002C95.3999 18.0002 95.7999 18.3002 96.1999 18.5002C96.3999 18.7002 96.6999 18.9002 96.8999 19.0002C97.1999 19.3002 97.5999 19.5002 97.8999 19.8002C98.1999 20.0002 98.3999 20.2002 98.6999 20.4002C98.9999 20.7002 99.2999 20.9002 99.5999 21.2002C99.8999 21.4002 100.1 21.7002 100.4 21.9002C100.7 22.2002 101 22.4002 101.3 22.7002C101.6 22.9002 101.8 23.2002 102.1 23.4002C102.4 23.7002 102.7 24.0002 103 24.3002C103.2 24.5002 103.5 24.8002 103.7 25.0002C104 25.3002 104.3 25.6002 104.6 25.9002C104.8 26.1002 105.1 26.4002 105.3 26.6002C105.6 26.9002 105.9 27.3002 106.2 27.6002C106.4 27.8002 106.6 28.1002 106.8 28.3002C107.1 28.6002 107.4 29.0002 107.7 29.3002C107.9 29.5002 108.1 29.8002 108.3 30.0002C108.6 30.4002 108.9 30.7002 109.2 31.1002C109.4 31.3002 109.6 31.6002 109.8 31.8002C110 32.0002 110.2 32.3002 110.4 32.5002C110.7 32.9002 111.1 33.4002 111.4 33.9002C111.5 34.1002 111.7 34.3002 111.8 34.5002C112.5 35.4002 113.1 36.3002 113.7 37.2002C113.8 37.3002 113.9 37.4002 113.9 37.5002C114.4 38.2002 114.9 39.0002 115.3 39.7002C115.3 39.8002 115.4 39.8002 115.4 39.9002C115.8 40.6002 116.2 41.3002 116.6 42.0002C116.7 42.2002 116.8 42.3002 116.9 42.5002C117.4 43.3002 117.8 44.2002 118.3 45.0002C118.4 45.3002 118.6 45.5002 118.7 45.8002C118.9 46.1002 119 46.4002 119.2 46.8002C119.4 47.2002 119.6 47.6002 119.8 48.0002C119.9 48.3002 120.1 48.6002 120.2 48.9002C120.4 49.3002 120.6 49.8002 120.8 50.2002C120.9 50.4002 121 50.7002 121.1 50.9002C121.3 51.4002 121.6 52.0002 121.8 52.5002C121.9 52.7002 121.9 52.8002 122 53.0002C122.3 53.7002 122.6 54.4002 122.8 55.1002C122.9 55.3002 122.9 55.5002 123 55.6002C123.2 56.1002 123.4 56.6002 123.6 57.1002C123.7 57.4002 123.8 57.6002 123.9 57.9002C124.1 58.4002 124.2 58.8002 124.4 59.3002C124.5 59.6002 124.6 59.8002 124.7 60.1002C124.8 60.6002 125 61.0002 125.1 61.5002C125.2 61.8002 125.3 62.0002 125.3 62.3002C125.4 62.8002 125.6 63.3002 125.7 63.8002C125.8 64.0002 125.8 64.2002 125.9 64.4002C126.1 65.1002 126.2 65.8002 126.4 66.5002C126.4 66.6002 126.4 66.7002 126.5 66.8002C126.6 67.4002 126.8 68.0002 126.9 68.7002C126.9 68.9002 127 69.2002 127 69.4002C127.1 69.9002 127.2 70.3002 127.2 70.8002C127.2 71.1002 127.3 71.3002 127.3 71.6002C127.4 72.1002 127.4 72.5002 127.5 73.0002C127.5 73.2002 127.6 73.5002 127.6 73.7002C127.7 74.2002 127.7 74.7002 127.7 75.3002C127.7 75.5002 127.7 75.6002 127.7 75.8002C127.7 76.5002 127.8 77.2002 127.8 77.9002C127.8 78.4002 127.8 78.9002 127.8 79.5002C127.8 80.2002 127.8 80.9002 127.7 81.5002C127.7 81.7002 127.7 81.9002 127.7 82.1002C127.7 82.6002 127.6 83.0002 127.6 83.5002C127.6 83.8002 127.5 84.0002 127.5 84.3002C127.5 84.7002 127.4 85.1002 127.4 85.4002C127.4 85.7002 127.3 85.9002 127.3 86.2002C127.2 86.5002 127.2 86.9002 127.1 87.2002C127 87.5002 127 87.8002 126.9 88.1002C126.8 88.4002 126.8 88.7002 126.7 89.0002C126.6 89.3002 126.5 89.7002 126.4 90.0002C126.3 90.3002 126.3 90.5002 126.2 90.8002C126.1 91.2002 125.9 91.6002 125.8 92.0002C125.7 92.2002 125.7 92.4002 125.6 92.6002C125.4 93.3002 125.1 93.9002 124.8 94.5002C124.4 95.5002 123.9 96.3002 123.3 97.2002C123.2 97.3002 123.2 97.4002 123.1 97.4002C122.9 97.7002 122.7 98.0002 122.5 98.3002C122.4 98.4002 122.3 98.5002 122.2 98.7002C122 99.0002 121.8 99.2002 121.6 99.5002C121.5 99.6002 121.4 99.7002 121.4 99.8002C121.1 100.1 120.8 100.5 120.5 100.8L120.4 100.9C120.1 101.2 119.8 101.4 119.5 101.7C119.4 101.8 119.3 101.9 119.2 102C119 102.2 118.7 102.4 118.4 102.6C118.3 102.7 118.2 102.8 118.1 102.8C117.7 103 117.4 103.3 117 103.5L131 95.4002C131.4 95.2002 131.7 94.9002 132.1 94.7002C132.2 94.6002 132.3 94.5002 132.4 94.5002C132.7 94.3002 132.9 94.1002 133.2 93.9002C133.3 93.8002 133.4 93.7002 133.5 93.6002C133.8 93.4002 134.1 93.1002 134.4 92.8002L134.5 92.7002C134.8 92.4002 135.1 92.1002 135.4 91.7002C135.5 91.6002 135.6 91.5002 135.7 91.4002C135.9 91.1002 136.1 90.9002 136.3 90.6002C136.4 90.5002 136.5 90.4002 136.6 90.2002C136.8 89.9002 137 89.6002 137.2 89.3002C137.3 89.2002 137.3 89.1002 137.4 89.1002C137.4 89.1002 137.4 89.1002 137.5 89.0002C138 88.2002 138.5 87.4002 138.9 86.5002C138.9 86.5002 138.9 86.5002 138.9 86.4002C139.2 85.8002 139.4 85.2002 139.7 84.5002C139.7 84.4002 139.7 84.4002 139.8 84.3002C139.9 84.2002 139.9 84.0002 140 83.8002C140.1 83.4002 140.3 83.0002 140.4 82.6002C140.4 82.5002 140.5 82.4002 140.5 82.3002C140.5 82.1002 140.6 82.0002 140.6 81.8002C140.7 81.5002 140.8 81.1002 140.9 80.8002C140.9 80.7002 141 80.5002 141 80.4002C141 80.2002 141.1 80.1002 141.1 79.9002C141.2 79.6002 141.2 79.3002 141.3 79.0002C141.3 78.8002 141.4 78.7002 141.4 78.5002C141.4 78.3002 141.5 78.1002 141.5 77.9002C141.5 77.6002 141.6 77.4002 141.6 77.1002C141.6 77.0002 141.6 76.8002 141.7 76.7002C141.7 76.5002 141.7 76.2002 141.8 76.0002C141.8 75.7002 141.9 75.5002 141.9 75.2002C141.9 75.1002 141.9 75.0002 141.9 74.9002C141.9 74.6002 141.9 74.2002 142 73.8002C142 73.6002 142 73.4002 142 73.2002V73.1002C142 72.5002 142 71.9002 142 71.3002V71.2002C142 70.6002 142 70.1002 142 69.5002Z" fill="#E8F4FA"/>
<path d="M120.7 100.4L120.6 100.5C120.3 100.8 120 101 119.7 101.3C119.6 101.4 119.5 101.5 119.4 101.6C119.2 101.8 118.9 102 118.6 102.2C118.5 102.3 118.4 102.4 118.3 102.4C117.9 102.6 117.6 102.9 117.2 103.1L131.2 95.0002C131.6 94.8002 131.9 94.5002 132.3 94.3002C132.4 94.2002 132.5 94.1002 132.6 94.1002C132.9 93.9002 133.1 93.7002 133.4 93.5002C133.5 93.4002 133.6 93.3002 133.7 93.2002C134 93.0002 134.3 92.7002 134.6 92.4002L134.7 92.3002C135 92.0002 135.3 91.7002 135.6 91.3002C135.7 91.2002 135.8 91.1002 135.9 91.0002C136.1 90.7002 136.3 90.5002 136.5 90.2002C136.6 90.1002 136.7 90.0002 136.8 89.8002C137 89.5002 137.2 89.2002 137.4 88.9002C137.5 88.8002 137.5 88.7002 137.6 88.7002C137.6 88.7002 137.6 88.7002 137.7 88.6002C138.2 87.8002 138.7 87.0002 139.1 86.1002C139.1 86.1002 139.1 86.1002 139.1 86.0002C139.4 85.4002 139.6 84.8002 139.9 84.1002C139.9 84.0002 139.9 84.0002 140 83.9002C140.1 83.8002 140.1 83.6002 140.2 83.4002C140.3 83.0002 140.5 82.6002 140.6 82.2002C140.6 82.1002 140.7 82.0002 140.7 81.9002C140.7 81.7002 140.8 81.6002 140.8 81.4002C140.9 81.1002 141 80.7002 141.1 80.4002C141.1 80.3002 141.2 80.1002 141.2 80.0002C141.2 79.8002 141.3 79.7002 141.3 79.5002C141.4 79.2002 141.4 78.9002 141.5 78.6002C141.5 78.4002 141.6 78.3002 141.6 78.1002C141.6 77.9002 141.7 77.7002 141.7 77.5002C141.7 77.2002 141.8 77.0002 141.8 76.7002C141.8 76.6002 141.8 76.4002 141.9 76.3002C141.9 76.1002 141.9 75.8002 142 75.6002C142 75.3002 142.1 75.1002 142.1 74.8002C142.1 74.7002 142.1 74.6002 142.1 74.5002C142.1 74.2002 142.1 73.8002 142.2 73.4002C142.2 73.2002 142.2 73.0002 142.2 72.8002V72.7002C142.2 72.1002 142.2 71.5002 142.2 70.9002V70.8002C142.2 70.3002 142.2 69.8002 142.2 69.2002C142.2 69.1002 142.2 69.0002 142.2 69.0002C142.2 68.4002 142.2 67.8002 142.1 67.3002V67.2002C142.1 67.0002 142.1 66.9002 142.1 66.7002C142.1 66.3002 142 65.9002 142 65.6002C142 65.5002 142 65.3002 142 65.2002C142 65.0002 141.9 64.7002 141.9 64.5002C141.9 64.3002 141.9 64.0002 141.8 63.8002C141.8 63.6002 141.7 63.4002 141.7 63.1002C141.7 62.8002 141.6 62.6002 141.6 62.3002C141.6 62.2002 141.6 62.0002 141.5 61.9002C141.4 61.6002 141.4 61.2002 141.3 60.9002C141.3 60.7002 141.2 60.4002 141.2 60.2002C141.2 60.1002 141.2 60.1002 141.2 60.0002C141.1 59.5002 141 58.9002 140.9 58.4002C140.9 58.3002 140.9 58.2002 140.8 58.1002C140.7 57.4002 140.5 56.8002 140.3 56.1002V56.0002C140.2 55.8002 140.2 55.6002 140.1 55.3002C140 54.9002 139.9 54.5002 139.8 54.1002C139.8 54.0002 139.7 53.9002 139.7 53.8002C139.6 53.5002 139.5 53.3002 139.5 53.0002C139.4 52.7002 139.3 52.4002 139.3 52.1002C139.2 51.9002 139.2 51.8002 139.1 51.6002C139 51.3002 138.9 51.1002 138.8 50.8002C138.7 50.6002 138.7 50.4002 138.6 50.2002C138.5 50.0002 138.4 49.7002 138.3 49.5002C138.2 49.2002 138.1 49.0002 138 48.7002C138 48.6002 137.9 48.4002 137.9 48.3002C137.8 47.9002 137.6 47.5002 137.5 47.1002C137.4 46.9002 137.4 46.7002 137.3 46.6002C137.3 46.6002 137.3 46.5002 137.2 46.5002C137 45.9002 136.7 45.3002 136.5 44.7002C136.5 44.7002 136.5 44.6002 136.4 44.6002C136.3 44.4002 136.3 44.3002 136.2 44.1002C136 43.7002 135.9 43.3002 135.7 42.9002C135.6 42.8002 135.6 42.6002 135.5 42.5002C135.4 42.3002 135.3 42.0002 135.2 41.8002C135.1 41.6002 135 41.3002 134.9 41.1002C134.8 40.9002 134.7 40.7002 134.6 40.5002C134.5 40.2002 134.3 39.9002 134.2 39.6002C134.1 39.4002 134 39.3002 134 39.1002C133.9 38.9002 133.8 38.6002 133.6 38.4002C133.4 38.1002 133.3 37.8002 133.1 37.4002C133 37.3002 133 37.1002 132.9 37.0002C132.8 36.9002 132.7 36.7002 132.7 36.6002C132.2 35.8002 131.8 34.9002 131.3 34.1002C131.2 34.0002 131.2 33.9002 131.1 33.8002L131 33.7002C130.6 33.0002 130.2 32.3002 129.8 31.7002C129.8 31.6002 129.7 31.6002 129.7 31.5002C129.2 30.8002 128.8 30.0002 128.3 29.3002C128.3 29.3002 128.3 29.2002 128.2 29.2002C128.1 29.1002 128.1 29.0002 128 29.0002C127.4 28.1002 126.7 27.2002 126.1 26.3002C126 26.2002 125.9 26.1002 125.9 26.0002C125.8 25.9002 125.8 25.8002 125.7 25.8002C125.4 25.3002 125 24.9002 124.7 24.5002C124.5 24.3002 124.4 24.1002 124.2 23.9002L124.1 23.8002C123.9 23.6002 123.7 23.3002 123.5 23.1002C123.3 22.8002 123 22.5002 122.8 22.2002C122.7 22.1002 122.7 22.1002 122.6 22.0002C122.4 21.8002 122.2 21.5002 122 21.3002C121.8 21.0002 121.6 20.8002 121.3 20.5002C121.2 20.4002 121.1 20.3002 121.1 20.2002C120.9 20.0002 120.7 19.7002 120.5 19.5002C120.3 19.3002 120.1 19.1002 119.9 18.9002C119.8 18.8002 119.7 18.7002 119.6 18.6002C119.4 18.4002 119.1 18.1002 118.9 17.9002C118.7 17.7002 118.6 17.6002 118.4 17.4002C118.3 17.3002 118.1 17.1002 118 17.0002C117.8 16.8002 117.5 16.5002 117.3 16.3002C117.2 16.2002 117 16.0002 116.9 15.9002C116.7 15.8002 116.6 15.6002 116.4 15.5002C116.1 15.3002 115.9 15.0002 115.6 14.8002C115.5 14.7002 115.3 14.6002 115.2 14.4002C115 14.2002 114.9 14.1002 114.7 13.9002C114.4 13.7002 114.2 13.4002 113.9 13.2002C113.8 13.1002 113.7 13.0002 113.5 12.9002C113.3 12.7002 113.1 12.6002 112.9 12.4002C112.6 12.2002 112.4 12.0002 112.1 11.8002C112 11.7002 111.9 11.6002 111.8 11.6002C111.6 11.4002 111.3 11.2002 111.1 11.1002C110.9 10.9002 110.6 10.7002 110.4 10.6002C110.3 10.5002 110.3 10.5002 110.2 10.4002C109.9 10.2002 109.6 9.9002 109.3 9.7002C109.1 9.6002 108.9 9.4002 108.7 9.3002L108.6 9.2002C108.1 8.8002 107.5 8.5002 107 8.2002C106.9 8.1002 106.8 8.1002 106.7 8.0002C106.3 7.7002 105.9 7.5002 105.4 7.2002C105.3 7.1002 105.2 7.1002 105 7.0002C104.6 6.8002 104.2 6.6002 103.8 6.3002C103.7 6.2002 103.5 6.10019 103.4 6.10019C103.2 6.00019 103 5.9002 102.8 5.8002C102.6 5.7002 102.5 5.6002 102.3 5.6002C102 5.5002 101.8 5.4002 101.6 5.2002C101.4 5.1002 101.2 5.0002 101.1 4.9002C101 4.9002 101 4.8002 100.9 4.8002C100.4 4.6002 99.8999 4.4002 99.3999 4.2002C98.8999 4.0002 98.3999 3.8002 97.8999 3.6002C97.7999 3.6002 97.7999 3.6002 97.6999 3.5002C97.4999 3.4002 97.2999 3.4002 97.1999 3.3002C96.8999 3.2002 96.6999 3.1002 96.3999 3.1002C96.2999 3.1002 96.0999 3.0002 95.9999 3.0002C95.7999 2.9002 95.5999 2.9002 95.2999 2.8002C95.0999 2.8002 94.9999 2.7002 94.7999 2.7002C94.5999 2.7002 94.4999 2.6002 94.2999 2.6002C94.0999 2.5002 93.8999 2.5002 93.5999 2.5002C93.4999 2.5002 93.3999 2.4002 93.1999 2.4002C92.9999 2.4002 92.7999 2.3002 92.5999 2.3002C92.1999 2.0002 91.9999 2.0002 91.6999 1.9002C91.5999 1.9002 91.4999 1.9002 91.3999 1.9002C91.1999 1.9002 90.9999 1.9002 90.7999 1.8002C90.4999 1.8002 90.2999 1.7002 89.9999 1.7002C89.8999 1.7002 89.7999 1.7002 89.7999 1.7002C89.5999 1.7002 89.3999 1.7002 89.2999 1.7002C88.9999 1.7002 88.6999 1.7002 88.3999 1.7002C88.2999 1.7002 88.1999 1.7002 88.0999 1.7002C87.9999 1.7002 87.7999 1.7002 87.6999 1.7002C87.2999 1.7002 86.8999 1.7002 86.4999 1.8002C86.3999 1.8002 86.2999 1.8002 86.1999 1.8002C85.9999 1.8002 85.8999 1.8002 85.6999 1.9002C85.5999 1.9002 85.4999 1.9002 85.2999 1.9002C84.7999 1.9002 84.3999 2.0002 83.9999 2.1002C83.8999 2.1002 83.7999 2.2002 83.5999 2.2002C83.2999 2.3002 82.8999 2.4002 82.5999 2.5002C82.3999 2.5002 82.2999 2.6002 82.0999 2.7002C81.8999 2.8002 81.6999 2.8002 81.4999 2.9002C81.3999 2.9002 81.3999 2.9002 81.2999 3.0002C80.9999 3.1002 80.5999 3.3002 80.2999 3.4002C80.0999 3.5002 79.9999 3.5002 79.7999 3.6002C79.2999 3.8002 78.8999 4.1002 78.3999 4.3002L64.3999 12.4002" stroke="#171A21" stroke-width="2" stroke-miterlimit="10" stroke-linecap="round" stroke-linejoin="round"/>
<path d="M90.9 14.9003C111 26.5003 127.4 54.3003 128 77.6003C128 78.1003 128 78.6003 128 79.2003C127.9 102.8 111.2 112.4 90.6 100.5C70.1 88.6003 53.4 59.8003 53.5 36.2003C53.5 35.7003 53.5 35.2003 53.5 34.7003C54.3 12.1003 70.8 3.30032 90.9 14.9003Z" fill="#2F58FF"/>
<path d="M90.8 88.8002C90.2 88.4002 89.7 87.6002 89.7 86.9002V82.9002C89.7 82.2002 90.2 81.9002 90.8 82.3002C91.4 82.7002 91.9 83.5002 91.9 84.2002V88.2002C91.9 88.9002 91.4 89.2002 90.8 88.8002ZM65.4 44.8002C64.8 44.4002 64.3 43.6002 64.3 42.9002C64.3 42.2002 64.8 41.9002 65.4 42.3002L68.9 44.3002C69.5 44.7002 70 45.5002 70 46.2002C70 46.9002 69.5 47.2002 68.9 46.8002L65.4 44.8002ZM112.9 72.2002C112.3 71.8002 111.8 71.0002 111.8 70.3002C111.8 69.6002 112.3 69.3002 112.9 69.7002L116.4 71.7002C117 72.1002 117.5 72.9002 117.5 73.6002C117.5 74.3002 117 74.6002 116.4 74.2002L112.9 72.2002ZM87 56.1002L84.9 52.7002L72.7 33.2002C71.8 31.7002 71.7 30.0002 72.5 29.4002C72.9 29.1002 73.6 29.1002 74.2 29.5002C74.7 29.8002 75.3 30.3002 75.7 31.0002L87.7 50.2002L89.6 53.2002C90 53.3002 90.4 53.4002 90.9 53.7002C91.3 53.9002 91.6 54.2002 91.9 54.5002L93.7 53.4002L99 50.3002C99.4 50.0002 100 50.1002 100.6 50.5002C101.2 50.8002 101.7 51.4002 102.2 52.2002C103.1 53.7002 103.1 55.4002 102.2 55.9002L96.7 59.1002L94.7 60.3002C94.7 60.4002 94.7 60.4002 94.7 60.5002C94.7 62.9002 93 63.9002 90.8 62.7002C88.8 61.4002 87.1 58.6002 87 56.1002ZM91 34.2002C90.4 33.8002 89.9 33.0002 89.9 32.3002V28.3002C89.9 27.6002 90.4 27.3002 91 27.7002C91.6 28.1002 92.1 28.9002 92.1 29.6002V33.6002C92.1 34.3002 91.6 34.6002 91 34.2002ZM91 23.5002C74.7 14.1002 61.4 21.2002 60.7 39.3002V39.4002C60.7 39.9002 60.7 40.3002 60.7 40.8002C60.6 59.9002 74.1 83.3002 90.8 93.0002C107.5 102.6 121.1 94.9002 121.1 75.7002C121.1 75.2002 121.1 74.7002 121.1 74.2002V74.1002C120.5 55.3002 107.2 32.9002 91 23.5002Z" fill="#E8F4FA"/>
<path d="M91 23.5C81.8 18.2 73.6 18.2 68 22.4L72.6 29.5C73 29.2 73.7 29.2 74.3 29.6C74.8 29.9 75.4 30.4 75.8 31.1L87.8 50.3L89.7 53.3C90.1 53.4 90.5 53.5 91 53.8C91.4 54 91.7 54.3 92 54.6L93.8 53.5L99.1 50.4C99.5 50.1 100.1 50.2 100.7 50.6C101.3 50.9 101.8 51.5 102.3 52.3C102.3 52.4 102.4 52.4 102.4 52.5L112.7 46.6C107.2 36.9 99.5 28.4 91 23.5ZM92.1 33.6C92.1 34.3 91.6 34.6 91 34.2C90.4 33.8 89.9 33 89.9 32.3V28.3C89.9 27.6 90.4 27.3 91 27.7C91.6 28.1 92.1 28.9 92.1 29.6V33.6Z" fill="white"/>
<path d="M74.3 29.5004C73.7 29.1004 73.1 29.1004 72.6 29.4004C71.8 30.0004 71.8 31.7004 72.8 33.2004L85 52.8004L87.1 56.2004C87.1 56.1004 87.1 56.1004 87.1 56.1004C87.1 55.6004 87.2 55.1004 87.3 54.7004C87.7 53.7004 88.6 53.2004 89.6 53.4004L87.7 50.4004L75.7 31.2004C75.3 30.4004 74.8 29.8004 74.3 29.5004Z" fill="#2F58FF"/>
<path d="M100.6 50.5003C99.9999 50.2003 99.3999 50.1003 98.9999 50.3003L93.6999 53.4003L91.8999 54.5003C93.0999 55.6003 93.9999 57.1003 94.4999 58.7003C94.5999 59.2003 94.6999 59.7003 94.6999 60.2003L96.6999 59.0003L102.2 55.8003C103.1 55.3003 103.1 53.6003 102.2 52.1003C101.8 51.5003 101.2 50.9003 100.6 50.5003Z" fill="#2F58FF"/>
<path d="M90.9 53.8003C90.4 53.5003 90 53.4003 89.6 53.3003C88.5 53.1003 87.7 53.6003 87.3 54.6003C87.1 55.0003 87 55.5003 87 56.0003V56.1003C87.1 58.5003 88.8 61.4003 90.8 62.6003C92.9 63.8003 94.7 62.8003 94.7 60.4003C94.7 60.3003 94.7 60.3003 94.7 60.2003C94.7 59.7003 94.6 59.2003 94.5 58.7003C94.1 57.1003 93.1 55.6003 91.9 54.5003C91.6 54.3003 91.3 54.0003 90.9 53.8003Z" fill="white" stroke="#171A21" stroke-width="2" stroke-miterlimit="10" stroke-linecap="round" stroke-linejoin="round"/>
<path d="M90.8 82.2001C90.2 81.8001 89.7 82.1001 89.7 82.8001V86.8001C89.7 87.5001 90.2 88.4001 90.8 88.7001C91.4 89.1001 91.9 88.8001 91.9 88.1001V84.1001C91.9 83.5001 91.4 82.6001 90.8 82.2001ZM68.9 44.2001L65.4 42.2001C64.8 41.8001 64.3 42.1001 64.3 42.8001C64.3 43.5001 64.8 44.4001 65.4 44.7001L68.9 46.7001C69.5 47.1001 70 46.8001 70 46.1001C70 45.4001 69.5 44.6001 68.9 44.2001ZM116.4 71.7001L112.9 69.7001C112.3 69.3001 111.8 69.6001 111.8 70.3001C111.8 71.0001 112.3 71.9001 112.9 72.2001L116.4 74.2001C117 74.6001 117.5 74.3001 117.5 73.6001C117.5 72.9001 117 72.0001 116.4 71.7001ZM91 27.6001C90.4 27.2001 89.9 27.5001 89.9 28.2001V32.2001C89.9 32.9001 90.4 33.8001 91 34.1001C91.6 34.5001 92.1 34.2001 92.1 33.5001V29.5001C92.1 28.8001 91.6 28.0001 91 27.6001Z" fill="#2F58FF"/>
<path d="M47 112.2L73.5 96.9001C74.2 96.5001 75 97.0001 75 97.8001L75.1 124.6C75.1 126.1 74.3 127.4 73 128.2L47 143.2C45.7 143.9 44.2 143.9 42.9 143.2L17.1 128.2C15.8 127.5 15.1 126.1 15.1 124.7L15 97.8001C15 97.0001 15.9 96.5001 16.5 96.9001L42.8 112.2C44.1 112.9 45.7 112.9 47 112.2Z" fill="#2F58FF"/>
<path d="M16.5001 96.8999L42.8001 112.2C44.1001 112.9 45.6001 112.9 46.9001 112.2L73.4001 96.8999C74.1001 96.4999 74.1001 95.4999 73.4001 95.0999L47.2001 79.7999C45.9001 79.0999 44.4001 79.0999 43.1001 79.7999L16.5001 95.0999C15.8001 95.4999 15.8001 96.4999 16.5001 96.8999Z" fill="#E8F4FA" stroke="#171A21" stroke-width="2" stroke-miterlimit="10" stroke-linecap="round" stroke-linejoin="round"/>
<path d="M44.8 78.5001L60 74.9001C60.6 74.5001 61.4 74.5001 62 74.9001L88 89.9001C89.4001 90.7001 89.4001 92.7001 88 93.5001L74.9001 96.0001L44.8 78.5001Z" fill="white" stroke="#171A21" stroke-width="2" stroke-miterlimit="10" stroke-linecap="round" stroke-linejoin="round"/>
<path d="M45 113.3L34.8 128C34.2 128.4 33.4 128.4 32.8 128L24.15 123.01L15.5 118.019L6.79996 113C5.39996 112.2 5.79996 110.8 6.79996 109.4L14.9 95.8999L45 113.3Z" fill="white"/>
<path d="M45.1062 113.4L15.0062 96L6.90617 109.5C5.90617 110.9 5.50617 112.3 6.90617 113.1L15.6062 118.119" stroke="#171A21" stroke-width="2" stroke-miterlimit="10" stroke-linecap="round" stroke-linejoin="round"/>
<path d="M45.1 78.7999L31.6 75.5999C30.7 75.2999 29.4 75.3999 28.7 75.8999L2.29999 91.0999C1.09999 91.7999 0.899986 93.4999 1.99999 94.3999L15 96.1999L45.1 78.7999Z" fill="white" stroke="#171A21" stroke-width="2" stroke-miterlimit="10" stroke-linecap="round" stroke-linejoin="round"/>
<path d="M44.8 113.3L53.1 127.6C53.7 128.6 54.9001 128.9 55.9001 128.3L82.5 113C83.5 112.4 83.8 111.2 83.2 110.2L74.9001 95.8999L44.8 113.3Z" fill="white"/>
<path d="M45 113.4L75.1 96L83.4 110.3C84 111.3 83.7 112.5 82.7 113.1L75.1 117.471" stroke="#171A21" stroke-width="2" stroke-miterlimit="10" stroke-linecap="round" stroke-linejoin="round"/>
<path d="M74.9999 117.3L82.4999 113C83.4999 112.4 83.7999 111.2 83.1999 110.2L74.8999 95.8999" stroke="#171A21" stroke-width="2" stroke-miterlimit="10" stroke-linecap="round" stroke-linejoin="round"/>
<path d="M43.2 44.5C43.3 44.5 43.5 44.6 43.6 44.6L36.3 40.6C36.3 40.6 36.3 40.6 36.2 40.6C36.1 40.6 36 40.5 35.9 40.5H35.8H35.7C35.6 40.5 35.4 40.5 35.2 40.5L32 41C31.8 41 31.7 41 31.5 41H31.4C31.3 41 31.1 40.9 31 40.9L38.3 44.9C38.3 44.9 38.3 44.9 38.4 44.9C38.5 44.9 38.6 45 38.7 45H38.8H38.9C39 45 39.2 45 39.4 45L42.6 44.5C42.8 44.4 42.9 44.4 43.2 44.5C43.1 44.5 43.1 44.5 43.2 44.5Z" fill="#2F58FF"/>
<path d="M20.2 50.6998C20.1 50.5998 20 50.3998 19.9 50.2998C19.9 50.1998 19.9 50.1998 19.9 50.0998C19.9 49.9998 19.8 49.8998 19.8 49.7998C19.8 49.6998 19.8 49.6998 19.8 49.5998C19.8 49.4998 19.8 49.3998 19.8 49.2998C19.8 49.1998 19.8 49.1998 19.9 49.0998C19.9 48.9998 19.9 48.8998 20 48.7998V48.6998C20.1 48.5998 20.1 48.3998 20.2 48.2998C20.3 48.1998 20.4 47.9998 20.5 47.8998C20.6 47.7998 20.8 47.6998 20.9 47.5998C21.1 47.4998 21.2 47.4998 21.4 47.3998L24.6 46.8998C24.8 46.8998 24.9 46.7998 25.1 46.7998C25.1 46.7998 25.1 46.7998 25.2 46.7998C25.2 46.7998 25.3 46.7998 25.3 46.6998C25.3 46.6998 25.4 46.6998 25.4 46.5998C25.4 46.5998 25.4 46.5998 25.5 46.5998L25.6 46.4998C25.6 46.4998 25.6 46.4998 25.7 46.4998C25.8 46.3998 25.8 46.3998 25.9 46.2998C25.9 46.2998 25.9 46.2998 25.9 46.1998L26 46.0998L26.1 45.9998C26.1 45.9998 26.1 45.9998 26.1 45.8998C26.1 45.7998 26.2 45.6998 26.2 45.6998C26.2 45.6998 26.2 45.6998 26.2 45.5998C26.2 45.4998 26.2 45.3998 26.3 45.3998V45.2998C26.3 45.1998 26.3 44.9998 26.3 44.8998V22.3998C26.3 22.2998 26.3 22.0998 26.3 21.9998V21.8998C26.3 21.7998 26.3 21.6998 26.4 21.6998C26.4 21.5998 26.5 21.4998 26.5 21.3998C26.5 21.3998 26.5 21.3998 26.5 21.2998C26.5 21.1998 26.6 21.0998 26.7 21.0998C26.7 21.0998 26.7 21.0998 26.8 20.9998C26.9 20.8998 26.9 20.7998 27 20.7998C27.1 20.6998 27.1 20.6998 27.2 20.5998C27.2 20.5998 27.3 20.5998 27.3 20.4998C27.4 20.4998 27.4 20.3998 27.5 20.3998C27.6 20.2998 27.8 20.2998 28 20.2998L35.5 19.2998C35.7001 19.2998 35.8001 19.2998 35.9001 19.2998H36C36.1 19.2998 36.3001 19.3998 36.4001 19.3998L29.1 15.3998C29.1 15.3998 29.1 15.3998 29 15.3998C28.9 15.3998 28.8001 15.2998 28.7001 15.2998C28.7001 15.2998 28.7 15.2998 28.6 15.2998H28.5C28.4 15.2998 28.2 15.2998 28.1 15.2998L20.6 16.2998C20.4 16.2998 20.3 16.3998 20.1 16.3998C20.1 16.3998 20.1 16.3998 20 16.3998C20 16.3998 19.9 16.3998 19.9 16.4998C19.9 16.4998 19.8 16.4998 19.8 16.5998C19.8 16.5998 19.8 16.5998 19.7 16.5998C19.6 16.5998 19.6 16.6998 19.5 16.6998C19.4 16.7998 19.4 16.7998 19.3 16.8998C19.3 16.8998 19.3 16.8998 19.2 16.9998L19.1 17.0998L19 17.1998C19 17.1998 19 17.1998 19 17.2998C19 17.3998 18.9 17.4998 18.9 17.5998C18.9 17.6998 18.9 17.7998 18.8 17.7998V17.8998C18.8 17.9998 18.8 18.1998 18.8 18.2998V40.7998C18.8 40.8998 18.8 41.0998 18.8 41.1998V41.2998C18.8 41.3998 18.8 41.4998 18.7 41.4998C18.7 41.4998 18.7 41.4998 18.7 41.5998C18.7 41.6998 18.6 41.7998 18.6 41.8998C18.6 41.8998 18.6 41.8998 18.6 41.9998C18.6 42.0998 18.5 42.1998 18.4 42.1998C18.4 42.1998 18.4 42.1998 18.4 42.2998C18.3 42.3998 18.3 42.4998 18.2 42.4998C18.2 42.4998 18.2 42.4998 18.1 42.4998C18 42.5998 18 42.5998 17.9 42.5998L17.8 42.6998C17.8 42.6998 17.7 42.6998 17.6 42.7998C17.5 42.8998 17.3 42.8998 17.1 42.8998L13.9 43.3998C13.7 43.3998 13.5 43.4998 13.4 43.5998C13.3 43.5998 13.2 43.6998 13.1 43.7998L13 43.8998C12.9 43.9998 12.9 43.9998 12.8 44.0998C12.8 44.0998 12.7 44.1998 12.7 44.2998C12.6 44.3998 12.6 44.4998 12.6 44.4998C12.6 44.4998 12.6 44.5998 12.5 44.5998V44.6998C12.5 44.6998 12.5 44.6998 12.5 44.7998C12.5 44.8998 12.5 44.9998 12.4 44.9998C12.4 45.0998 12.4 45.0998 12.3 45.1998C12.3 45.2998 12.3 45.3998 12.3 45.4998C12.3 45.5998 12.3 45.5998 12.3 45.6998C12.3 45.7998 12.3 45.8998 12.4 45.9998C12.4 46.0998 12.4 46.0998 12.4 46.1998C12.5 46.3998 12.5 46.4998 12.7 46.5998L23.2 59.4998C23.3 59.6998 23.5 59.7998 23.6 59.8998L30.9 63.8998C30.7 63.7998 30.6 63.6998 30.5 63.4998L20.2 50.6998Z" fill="#2F58FF"/>
<path d="M35.9 19.0998C36.9 18.9998 37.7 19.6998 37.7 20.7998V43.2998C37.7 44.3998 38.5 45.0998 39.5 44.9998L42.7 44.4998C44.2 44.2998 45 45.9998 44.1 47.3998L33.5 63.1998C33.1 63.6998 32.6 64.0998 32.1 64.0998C31.6 64.1998 31.1 63.9998 30.7 63.5998L20.2 50.6998C19.3 49.5998 20.1 47.5998 21.6 47.3998L24.8 46.8998C25.8 46.7998 26.6 45.7998 26.6 44.6998V22.1998C26.6 21.0998 27.4 20.1998 28.4 19.9998L35.9 19.0998Z" fill="white"/>
<path d="M35.9001 19.0998C36.9001 18.9998 37.7001 19.6998 37.7001 20.7998V43.2998" stroke="#171A21" stroke-width="2" stroke-miterlimit="10" stroke-linecap="round" stroke-linejoin="round"/>
<path d="M42.5999 44.3999C44.0999 44.1999 44.9 45.8999 44 47.2999L33.5 63.1999C33.1 63.6999 32.5999 64.0999 32.0999 64.0999C31.5999 64.1999 31.1 63.9999 30.7 63.5999L28.7 61.0999" stroke="#171A21" stroke-width="2" stroke-miterlimit="10" stroke-linecap="round" stroke-linejoin="round"/>
</svg>
