<svg width="388" height="385" viewBox="0 0 388 385" fill="none" xmlns="http://www.w3.org/2000/svg">
<path d="M158.994 107.443L73.2948 58.017C71.0674 56.7443 68.3098 58.3352 68.3098 60.8808L68.0977 188.264C68.0977 193.036 70.6432 197.385 74.7797 199.825L158.676 248.296C162.813 250.629 167.904 250.629 171.934 248.296L255.301 199.825C259.331 197.491 261.876 193.143 261.876 188.37L262.089 60.9868C262.089 58.4413 259.331 56.8503 257.104 58.1231L172.146 107.443C168.116 109.776 163.025 109.776 158.994 107.443Z" fill="#2F58FF"/>
<path d="M257.21 58.017L172.253 107.443C168.117 109.882 163.026 109.882 158.995 107.443L73.2955 58.017C71.0682 56.7443 71.0682 53.5624 73.2955 52.2896L158.253 2.86378C162.389 0.424312 167.48 0.424312 171.511 2.86378L257.104 52.2896C259.438 53.5624 259.438 56.7443 257.21 58.017Z" fill="#FEE2E2"/>
<path d="M228.255 74.8813L130.995 18.7734L108.297 31.8193L205.558 88.0332L228.255 74.8813Z" fill="#FB7070"/>
<path d="M205.559 228.568L228.256 215.522V74.8813L205.559 88.0333V228.568Z" fill="#FB7070"/>
<path d="M262.195 62.79C262.195 58.0171 259.649 53.6685 255.513 51.229L171.616 2.86382C167.48 0.530418 162.389 0.530418 158.358 2.86382L74.992 51.3351C70.9616 53.6685 68.416 58.0171 68.416 62.79" stroke="#171A21" stroke-width="2" stroke-miterlimit="10" stroke-linecap="round" stroke-linejoin="round"/>
<path d="M162.813 47.7288C162.813 47.9409 162.919 48.153 162.919 48.3652C162.919 48.6833 163.025 49.0015 163.025 49.2137C163.025 49.5319 163.132 49.8501 163.132 50.0622C163.132 50.2743 163.238 50.5925 163.238 50.8046C163.238 51.1228 163.344 51.335 163.344 51.6531C163.344 51.8653 163.45 52.0774 163.45 52.2895C163.45 52.7138 163.556 53.032 163.556 53.3502C163.556 53.5623 163.556 53.6684 163.662 53.8805C163.662 54.3047 163.768 54.729 163.768 55.1533V55.2593V55.3654C163.768 55.6836 163.874 56.0018 163.874 56.32C163.874 56.426 163.874 56.5321 163.874 56.6381C163.874 56.8503 163.874 57.0624 163.874 57.2745C163.874 57.3806 163.874 57.4867 163.874 57.4867C163.874 57.6988 163.874 58.017 163.874 58.2291C163.874 58.4412 163.874 58.6534 163.874 58.7594C163.874 58.8655 163.874 58.8655 163.874 58.8655C163.874 58.9716 163.874 59.0776 163.874 59.1837V59.2897C163.874 59.3958 163.874 59.5019 163.874 59.5019L173.314 53.9866C173.314 53.9866 173.314 53.8805 173.314 53.7744V53.6684C173.314 53.5623 173.314 53.4562 173.314 53.3502C173.314 53.2441 173.314 53.2441 173.314 53.138C173.314 52.9259 173.314 52.8198 173.314 52.6077C173.314 52.3956 173.314 52.1835 173.314 51.8653C173.314 51.7592 173.314 51.7592 173.314 51.6531C173.314 51.441 173.314 51.2289 173.314 51.0168C173.314 50.9107 173.314 50.8046 173.314 50.6986C173.314 50.3804 173.314 50.0622 173.208 49.744V49.6379V49.5319C173.208 49.1076 173.102 48.6834 173.102 48.2591C173.102 48.047 173.102 47.9409 172.995 47.7288C172.995 47.4106 172.889 46.9863 172.889 46.6681C172.889 46.5621 172.889 46.456 172.889 46.3499C172.889 46.2439 172.889 46.1378 172.889 45.9257C172.889 45.6075 172.783 45.3954 172.783 45.0772C172.783 44.8651 172.677 44.5469 172.677 44.3347C172.677 44.0165 172.571 43.8044 172.571 43.4862C172.571 43.3802 172.571 43.168 172.465 43.062C172.465 42.9559 172.465 42.7438 172.359 42.6377C172.359 42.4256 172.253 42.2135 172.253 42.0013C172.147 41.6831 172.147 41.3649 172.041 41.0467C172.041 40.8346 171.935 40.6225 171.935 40.3043C171.935 40.1982 171.935 40.0922 171.829 39.9861C171.829 39.88 171.829 39.774 171.723 39.6679C171.617 38.9255 176.071 35.6375 175.965 34.789C175.965 34.6829 175.965 34.5768 175.859 34.4708V34.3647C175.647 33.6223 175.541 32.7738 175.329 32.0313V31.9252C175.329 31.7131 175.223 31.6071 175.223 31.3949C175.117 30.8646 174.905 30.3343 174.799 29.804C174.799 29.6979 174.692 29.5918 174.692 29.4858C174.692 29.2736 174.586 29.1676 174.48 28.9555C174.374 28.5312 174.268 28.213 174.162 27.7888C174.162 27.6827 174.056 27.4706 174.056 27.3645C173.95 27.1524 173.95 26.9402 173.844 26.7281C173.738 26.4099 173.632 26.1978 173.526 25.8796C173.526 25.7735 173.42 25.5614 173.42 25.4553C173.314 25.2432 173.208 24.925 173.208 24.7129C173.102 24.5008 172.995 24.1826 172.995 23.9705C172.995 23.8644 172.889 23.7583 172.889 23.6523C172.677 23.1219 172.571 22.6977 172.359 22.1674C172.359 22.1674 172.359 22.1674 172.359 22.0613C172.359 21.9552 172.253 21.9552 172.253 21.8492C172.147 21.4249 171.935 21.1067 171.829 20.6825C171.723 20.5764 171.723 20.3643 171.617 20.2582C171.511 20.1522 171.511 20.0461 171.405 19.834C171.298 19.7279 171.298 19.6218 171.192 19.4097C170.98 18.9854 170.874 18.5612 170.662 18.243C170.662 18.243 170.662 18.1369 170.556 18.1369C170.556 18.0309 170.45 17.9248 170.45 17.8187C170.344 17.5006 170.238 17.2884 170.026 16.9702C169.92 16.7581 169.814 16.546 169.707 16.3338C169.601 16.1217 169.495 16.0157 169.389 15.8035C169.283 15.6975 169.283 15.5914 169.177 15.4853C169.071 15.3793 169.071 15.2732 168.965 15.0611C168.647 14.4247 168.223 13.7883 167.904 13.258C167.798 13.0459 167.692 12.8337 167.48 12.6216C166.95 11.8792 166.526 11.1367 165.995 10.3943C165.783 10.0761 165.571 9.75788 165.253 9.43969C165.147 9.22756 164.935 9.01544 164.829 8.90937C164.722 8.80331 164.722 8.80331 164.722 8.69724L164.616 8.59118C164.404 8.37905 164.192 8.06086 163.98 7.84873C163.768 7.6366 163.556 7.42448 163.344 7.21235C163.132 7.00022 162.919 6.78809 162.707 6.57596C162.495 6.36384 162.283 6.15171 162.071 5.93958L161.965 5.83352L161.859 5.72745C161.753 5.62139 161.541 5.51533 161.434 5.3032C161.222 5.09107 161.01 4.87894 160.692 4.66681C160.586 4.56075 160.48 4.45469 160.374 4.45469L160.268 4.34862C160.162 4.24256 160.056 4.24256 160.056 4.13649C159.844 3.92437 159.525 3.71224 159.313 3.60617C159.101 3.50011 158.889 3.28798 158.677 3.18192C158.677 3.18192 158.677 3.18192 158.571 3.07585C158.571 3.07585 158.571 3.07585 158.465 3.07585C158.253 2.86373 157.934 2.75766 157.722 2.54553C157.51 2.33341 157.192 2.22734 156.98 2.12128C156.874 2.12128 156.874 2.01521 156.768 2.01521C156.556 1.90915 156.449 1.80309 156.237 1.69702C156.131 1.69702 156.131 1.59096 156.025 1.59096C155.919 1.59096 155.813 1.4849 155.813 1.4849C155.707 1.4849 155.707 1.37883 155.601 1.37883C155.495 1.27277 155.389 1.27277 155.283 1.27277C155.177 1.27277 155.177 1.1667 155.071 1.1667H154.965C154.752 1.06064 154.54 0.954576 154.328 0.848512C154.116 0.742448 153.904 0.636384 153.692 0.636384H153.586C153.48 0.636384 153.48 0.636384 153.374 0.53032C153.268 0.53032 153.162 0.424256 153.055 0.424256C152.949 0.424256 152.949 0.424256 152.843 0.424256C152.737 0.424256 152.631 0.318192 152.525 0.318192C152.419 0.318192 152.419 0.318192 152.313 0.212128C152.207 0.212128 152.207 0.212128 152.101 0.212128C151.995 0.212128 151.889 0.212128 151.783 0.106064H151.677C151.571 0.106064 151.464 0.106064 151.358 0.106064C151.252 0.106064 151.146 0.106064 151.04 0H150.934C150.828 0 150.722 0 150.616 0C150.51 0 150.404 0 150.298 0H150.192C150.086 0 150.086 0 149.98 0C149.874 0 149.661 0 149.555 0H149.449C149.343 0 149.343 0 149.237 0C149.025 0 148.919 0 148.707 0H148.601H148.495C148.283 0 147.964 0.106064 147.752 0.106064C147.752 0.106064 147.752 0.106064 147.646 0.106064C147.328 0.212128 146.904 0.318192 146.586 0.424256H146.479C146.479 0.424256 146.479 0.424256 146.373 0.424256C146.267 0.53032 146.055 0.53032 145.949 0.636384C145.843 0.636384 145.843 0.742448 145.737 0.742448C145.525 0.848512 145.313 0.954576 145.101 1.06064L130.994 9.1215C131.206 9.01544 131.418 8.90937 131.631 8.80331C131.737 8.80331 131.737 8.69724 131.843 8.69724C131.949 8.59118 132.161 8.59118 132.267 8.48512C132.373 8.48512 132.373 8.48512 132.479 8.37905C132.797 8.27299 133.115 8.16692 133.54 8.06086C133.54 8.06086 133.54 8.06086 133.646 8.06086C133.858 8.06086 134.176 7.9548 134.388 7.9548C134.494 7.9548 134.6 7.9548 134.706 7.9548C134.919 7.9548 135.025 7.9548 135.237 7.9548C135.343 7.9548 135.449 7.9548 135.555 7.9548C135.661 7.9548 135.873 7.9548 135.979 7.9548C136.085 7.9548 136.191 7.9548 136.297 7.9548C136.403 7.9548 136.509 7.9548 136.616 7.9548C136.722 7.9548 136.828 7.9548 137.04 7.9548C137.146 7.9548 137.252 7.9548 137.358 8.06086C137.464 8.06086 137.676 8.06086 137.782 8.16692C137.888 8.16692 137.994 8.16692 138.1 8.27299C138.206 8.27299 138.419 8.37905 138.525 8.37905C138.631 8.37905 138.737 8.37905 138.843 8.48512C139.055 8.48512 139.161 8.59118 139.373 8.59118C139.479 8.59118 139.479 8.59118 139.585 8.69724C140.116 8.90937 140.54 9.01544 141.07 9.33363C141.176 9.33363 141.176 9.43969 141.282 9.43969C141.494 9.54576 141.601 9.65182 141.813 9.65182C141.919 9.65182 142.025 9.75788 142.025 9.75788C142.237 9.86395 142.449 9.97001 142.767 10.1821C143.404 10.5003 143.934 10.9246 144.57 11.3488C144.57 11.3488 144.57 11.3488 144.676 11.4549C144.782 11.561 144.782 11.561 144.889 11.667L136.297 16.652C136.085 16.7581 135.873 16.9702 135.661 17.0763C135.555 17.0763 135.555 17.1824 135.449 17.1824C135.343 17.2884 135.131 17.3945 135.025 17.6066C134.919 17.7127 134.919 17.7127 134.812 17.8187C134.706 18.0309 134.494 18.1369 134.388 18.3491C134.388 18.3491 134.388 18.4551 134.282 18.4551C134.176 18.6673 133.964 18.8794 133.858 19.1976V19.3036C133.752 19.4097 133.752 19.6218 133.646 19.834C133.646 19.94 133.54 20.0461 133.54 20.0461V20.1522V20.2582C133.54 20.4703 133.434 20.5764 133.434 20.7885C133.434 20.8946 133.434 20.8946 133.434 21.0007V21.1067C133.434 21.2128 133.434 21.2128 133.434 21.3189C133.434 21.531 133.328 21.637 133.328 21.8492C133.328 21.9552 133.328 22.0613 133.328 22.1674V22.2734V22.3795C133.328 22.5916 133.328 22.6977 133.328 22.9098C133.328 23.1219 133.328 23.228 133.328 23.4401C133.328 23.5462 133.328 23.7583 133.328 23.8644C133.328 24.0765 133.328 24.1826 133.328 24.3947C133.328 24.5008 133.328 24.5008 133.328 24.6068V24.7129C133.328 24.819 133.328 24.819 133.328 24.925C133.328 25.1372 133.328 25.2432 133.434 25.4553C133.434 25.6675 133.434 25.7735 133.54 25.9857C133.54 26.1978 133.646 26.3039 133.646 26.516C133.646 26.7281 133.752 26.8342 133.752 27.0463C133.752 27.1524 133.752 27.1524 133.752 27.2584V27.3645C133.752 27.4706 133.752 27.5766 133.858 27.5766C133.858 27.7888 133.964 27.8948 133.964 28.1069C133.964 28.213 134.07 28.4251 134.07 28.5312C134.07 28.5312 134.07 28.5312 134.07 28.6373C134.07 28.6373 134.07 28.6373 134.07 28.7433C134.176 28.9555 134.176 29.0615 134.282 29.2737C134.388 29.4858 134.388 29.5918 134.494 29.804V29.91C134.494 29.91 134.494 29.91 134.494 30.0161C134.494 30.1222 134.6 30.2282 134.6 30.3343C134.706 30.5464 134.706 30.6525 134.812 30.8646C134.812 30.9707 134.919 31.0767 134.919 31.1828C134.919 31.1828 134.919 31.1828 134.919 31.2889C134.919 31.2889 134.919 31.2889 134.919 31.3949C135.025 31.6071 135.025 31.7131 135.131 31.9252C135.237 32.1374 135.343 32.2434 135.449 32.4556V32.5616C135.449 32.5616 135.449 32.6677 135.555 32.6677C135.661 32.7738 135.661 32.9859 135.767 33.092C135.873 33.3041 135.979 33.4101 136.085 33.6223C136.085 33.7283 136.191 33.8344 136.191 33.9405C136.191 33.9405 136.191 34.0465 136.297 34.0465C136.403 34.1526 136.509 34.3647 136.616 34.4708C136.722 34.6829 136.934 34.895 137.04 35.1072C137.04 35.1072 137.04 35.2132 137.146 35.2132C137.358 35.5314 137.57 35.8496 137.782 36.1678C137.888 36.3799 138.1 36.5921 138.206 36.8042C138.313 37.0163 138.419 37.1224 138.631 37.3345C138.737 37.5466 138.949 37.6527 139.055 37.7588C139.161 37.8648 139.373 38.077 139.479 38.183C139.479 38.183 139.479 38.183 139.585 38.2891C139.585 38.2891 139.585 38.2891 139.691 38.3951C139.797 38.5012 139.904 38.6073 140.01 38.7133C140.116 38.8194 140.328 39.0315 140.434 39.1376L140.54 39.2437L140.646 39.3497C140.752 39.4558 140.752 39.4558 140.858 39.5619C140.964 39.6679 141.176 39.88 141.282 39.9861C141.388 40.0922 141.388 40.0922 141.494 40.1982L141.601 40.3043L141.707 40.4104C141.813 40.5164 142.025 40.6225 142.131 40.7286C142.237 40.8346 142.343 40.9407 142.449 40.9407C142.449 40.9407 142.449 40.9407 142.555 40.9407C142.555 40.9407 142.555 40.9407 142.661 40.9407C142.767 41.0467 142.979 41.1528 143.085 41.2589C143.191 41.3649 143.404 41.471 143.51 41.5771C143.51 41.5771 143.616 41.5771 143.616 41.6831C150.51 45.6075 157.192 49.4258 157.51 49.6379L162.601 46.6681C162.601 46.7742 162.601 46.8803 162.601 46.9863C162.707 47.0924 162.707 47.4106 162.813 47.7288Z" fill="#FB7070"/>
<path d="M184.662 65.1233C177.768 61.1989 171.086 57.2746 170.768 57.0624C170.768 56.2139 171.404 43.5923 177.025 40.3043L185.829 35.2133C185.723 35.2133 185.723 35.1072 185.617 35.1072C185.192 34.8951 184.874 34.6829 184.556 34.4708C184.45 34.3647 184.344 34.3647 184.238 34.3647C184.026 34.2587 183.707 34.1526 183.495 34.0465C183.389 34.0465 183.283 33.9405 183.177 33.9405C182.965 33.8344 182.753 33.8344 182.647 33.7284C182.541 33.7284 182.435 33.6223 182.329 33.6223C182.116 33.5162 181.904 33.5162 181.692 33.4102C181.586 33.4102 181.48 33.3041 181.374 33.3041C181.268 33.3041 181.162 33.3041 181.056 33.198C180.844 33.198 180.738 33.092 180.525 33.092C180.419 33.092 180.313 33.092 180.207 32.9859C180.101 32.9859 179.889 32.9859 179.783 32.8798C179.465 32.8798 179.147 32.7738 178.828 32.7738C178.722 32.7738 178.722 32.7738 178.616 32.7738C178.298 32.7738 178.086 32.7738 177.768 32.7738C177.662 32.7738 177.662 32.7738 177.556 32.7738C177.237 32.7738 177.025 32.8798 176.707 32.8798C176.601 32.8798 176.601 32.8798 176.495 32.8798C176.283 32.8798 176.071 32.9859 175.859 32.9859C175.753 32.9859 175.753 32.9859 175.647 33.092C175.328 33.198 175.116 33.3041 174.798 33.4102C174.798 33.4102 174.692 33.4102 174.692 33.5162C174.48 33.6223 174.162 33.7284 173.949 33.8344C173.843 33.8344 173.843 33.9405 173.737 33.9405L187.844 25.8796C187.844 25.8796 187.95 25.8796 187.95 25.7736H188.056C188.268 25.6675 188.48 25.5614 188.798 25.4554H188.905C188.905 25.4554 188.905 25.4554 189.011 25.4554C189.329 25.3493 189.541 25.2432 189.859 25.1372C189.859 25.1372 189.859 25.1372 189.965 25.1372H190.071C190.283 25.0311 190.495 25.0311 190.708 25.0311H190.814C190.814 25.0311 190.814 25.0311 190.92 25.0311C191.238 25.0311 191.45 24.925 191.768 24.925C191.768 24.925 191.768 24.925 191.874 24.925H191.98C192.299 24.925 192.511 24.925 192.829 24.925H192.935H193.041C193.359 24.925 193.677 24.925 193.996 25.0311C193.996 25.0311 193.996 25.0311 194.102 25.0311C194.208 25.0311 194.314 25.0311 194.42 25.1372C194.526 25.1372 194.632 25.1372 194.738 25.2432C194.844 25.2432 195.056 25.3493 195.268 25.3493C195.374 25.3493 195.48 25.3493 195.587 25.4554C195.693 25.4554 195.693 25.4554 195.799 25.5614C196.011 25.6675 196.223 25.6675 196.435 25.7736C196.541 25.7736 196.647 25.8796 196.753 25.8796C196.965 25.9857 197.178 25.9857 197.284 26.0918C197.284 26.0918 197.39 26.0918 197.39 26.1978C197.496 26.1978 197.496 26.3039 197.602 26.3039C197.814 26.4099 198.132 26.516 198.344 26.6221C198.45 26.6221 198.556 26.7281 198.662 26.7281C198.981 26.9403 199.405 27.1524 199.723 27.3645C200.253 27.6827 200.784 28.0009 201.314 28.3191C201.526 28.4252 201.632 28.5312 201.844 28.6373C202.162 28.8494 202.481 29.1676 202.905 29.3797C203.117 29.4858 203.223 29.6979 203.435 29.804C203.753 30.0161 204.072 30.3343 204.39 30.6525C204.602 30.8646 204.708 30.9707 204.92 31.1828C205.026 31.2889 205.132 31.395 205.238 31.501C205.344 31.6071 205.45 31.7131 205.557 31.8192C205.875 32.2435 206.299 32.5617 206.617 32.9859C206.723 33.092 206.829 33.198 206.935 33.3041C207.041 33.4102 207.148 33.5162 207.254 33.6223C207.466 33.8344 207.678 34.1526 207.89 34.3647C207.996 34.5769 208.208 34.6829 208.314 34.8951C208.42 35.0011 208.526 35.2133 208.632 35.3193C208.738 35.5314 208.951 35.7436 209.057 35.9557C209.163 36.0618 209.269 36.2739 209.375 36.38C209.587 36.5921 209.693 36.9103 209.905 37.1224C210.011 37.2285 210.117 37.4406 210.223 37.5467C210.223 37.6527 210.329 37.6527 210.329 37.7588C210.648 38.183 210.86 38.7134 211.178 39.1376V39.2437C211.284 39.3497 211.284 39.4558 211.39 39.5619C211.602 39.8801 211.814 40.1983 211.92 40.5164C212.026 40.6225 212.026 40.8346 212.133 40.9407C212.239 41.1528 212.345 41.2589 212.345 41.471C212.451 41.5771 212.451 41.7892 212.557 41.8953C212.769 42.3195 212.875 42.6377 213.087 43.062C213.087 43.168 213.193 43.168 213.193 43.2741C213.193 43.2741 213.193 43.2741 213.193 43.3802C213.405 43.9105 213.617 44.3348 213.83 44.8651C213.83 44.9711 213.936 45.0772 213.936 45.1833C214.042 45.3954 214.042 45.5015 214.148 45.7136C214.254 45.9257 214.36 46.2439 214.36 46.456C214.466 46.6682 214.466 46.8803 214.572 46.9863C214.678 47.1985 214.678 47.4106 214.784 47.6227C214.784 47.7288 214.89 47.9409 214.89 48.047C214.996 48.2591 214.996 48.5773 215.102 48.7894C215.208 49.1076 215.208 49.3198 215.314 49.6379C215.314 49.744 215.314 49.8501 215.42 49.9561C215.42 50.1683 215.527 50.3804 215.527 50.5925C215.633 51.0168 215.739 51.441 215.739 51.8653C215.739 51.9714 215.739 52.0774 215.845 52.1835C215.845 52.5017 215.845 52.7138 215.951 53.032C215.951 53.2441 215.951 53.4563 216.057 53.5623C216.057 54.1987 216.163 54.729 216.163 55.3654C216.163 59.1837 215.102 62.1535 213.405 64.1687C212.875 64.8051 212.133 65.3354 211.496 65.7597L197.39 73.8205C200.253 72.1235 202.056 68.5173 202.056 63.4263C202.056 62.7899 202.056 62.2596 201.95 61.6232C201.95 61.411 201.95 61.1989 201.844 61.0929C201.844 60.6686 201.738 60.3504 201.738 59.9262C201.632 59.5019 201.632 59.0776 201.526 58.6534C201.42 58.3352 201.42 58.017 201.314 57.8049C201.208 57.4867 201.208 57.2746 201.102 56.9564C200.996 56.5321 200.89 56.2139 200.784 55.7897C200.678 55.5775 200.678 55.3654 200.572 55.1533C200.465 54.729 200.253 54.3048 200.147 53.8805C200.041 53.6684 200.041 53.5623 199.935 53.3502C199.723 52.7138 199.511 52.1835 199.193 51.5471C199.193 51.441 199.087 51.441 199.087 51.335C198.875 50.8047 198.556 50.2743 198.344 49.744C198.238 49.5319 198.132 49.4258 198.132 49.2137C197.92 48.6834 197.602 48.2591 197.39 47.7288C197.284 47.6227 197.284 47.5167 197.284 47.4106C196.965 46.8803 196.647 46.35 196.223 45.7136C196.117 45.6075 196.011 45.3954 195.905 45.2893C195.693 44.8651 195.374 44.5469 195.056 44.1226C194.95 43.9105 194.738 43.6984 194.632 43.4862C194.42 43.168 194.102 42.8499 193.89 42.5317C193.677 42.3195 193.465 42.0013 193.253 41.7892C193.041 41.5771 192.829 41.365 192.617 41.0468C192.299 40.6225 191.874 40.3043 191.556 39.8801C191.344 39.6679 191.132 39.4558 190.92 39.2437C190.708 39.0316 190.602 38.9255 190.389 38.7134C190.071 38.3952 189.753 38.183 189.435 37.8649C189.223 37.7588 189.117 37.5467 188.905 37.4406C188.586 37.1224 188.268 36.9103 187.844 36.6981C187.632 36.5921 187.526 36.486 187.314 36.38C186.889 36.0618 186.465 35.8496 186.041 35.5314C201.95 42.4256 198.875 61.411 199.087 61.411H199.193C199.511 61.411 200.041 61.305 200.147 61.305C200.359 61.305 200.572 61.1989 200.678 61.0929C200.784 61.0929 200.784 61.0929 200.89 60.9868C201.102 60.8807 201.314 60.7747 201.526 60.6686L192.086 66.1839C192.086 66.1839 192.086 66.1839 191.98 66.1839C191.768 66.29 191.662 66.3961 191.45 66.3961H191.344C191.238 66.3961 191.238 66.3961 191.132 66.5021C191.026 66.5021 190.92 66.6082 190.814 66.6082C190.708 66.6082 190.602 66.6082 190.495 66.7142C190.389 66.7142 190.389 66.7142 190.283 66.7142H190.177C189.965 66.7142 189.753 66.8203 189.541 66.8203H189.435C189.223 66.8203 189.117 66.8203 188.905 66.8203C188.798 66.8203 188.798 66.8203 188.692 66.8203C188.586 66.8203 188.48 66.8203 188.374 66.8203C188.268 66.8203 188.162 66.8203 188.056 66.8203C187.95 66.8203 187.844 66.8203 187.844 66.7142C187.738 66.7142 187.526 66.6082 187.42 66.6082C187.314 66.6082 187.314 66.6082 187.207 66.6082C187.101 66.6082 187.101 66.5021 186.995 66.5021C186.783 66.3961 186.465 66.3961 186.253 66.29C186.147 66.29 186.041 66.29 186.041 66.1839C185.935 66.1839 185.829 66.0779 185.829 66.0779C185.723 66.0779 185.617 65.9718 185.617 65.9718C185.298 65.4415 184.98 65.3354 184.662 65.1233Z" fill="#FB7070"/>
<path d="M211.179 65.3354L197.072 73.3963" stroke="#171A21" stroke-width="2" stroke-miterlimit="10" stroke-linecap="round" stroke-linejoin="round"/>
<path d="M142.767 10.2882C162.601 21.7431 164.086 57.9109 164.086 59.8201C163.555 59.5019 153.267 53.6684 142.661 47.5166C133.751 42.3195 126.539 29.804 126.539 19.6218C126.539 9.22756 133.857 5.09106 142.767 10.2882ZM133.115 23.3341C133.115 30.0161 137.782 38.0769 143.509 41.471C150.403 45.3954 157.085 49.2137 157.404 49.4258C157.404 48.153 156.343 24.819 143.615 17.3945C137.888 14.0004 133.115 16.652 133.115 23.3341Z" fill="white"/>
<path d="M126.54 21.3188C126.54 20.6824 126.434 20.1521 126.434 19.5157C126.434 9.22753 133.752 5.09104 142.661 10.2882" stroke="#171A21" stroke-width="2" stroke-miterlimit="10" stroke-linecap="round" stroke-linejoin="round"/>
<path d="M201.844 63.0018C201.844 73.2901 194.526 77.4265 185.616 72.2294C175.01 66.0777 164.722 60.0321 164.191 59.7139C164.297 57.9108 165.994 23.5461 185.722 35.001C194.632 40.1981 201.844 52.7136 201.844 63.0018ZM195.162 59.1835C195.162 52.5015 190.495 44.4407 184.768 41.0466C171.934 33.6221 170.873 55.8956 170.767 57.0623C171.086 57.2744 177.768 61.1988 184.662 65.1231C190.389 68.5172 195.162 65.7595 195.162 59.1835Z" fill="white"/>
</svg>
