<svg width="388" height="385" viewBox="0 0 388 385" fill="none" xmlns="http://www.w3.org/2000/svg">
<path d="M129.934 278.418C132.479 267.281 126.434 255.614 111.691 247.023C86.4474 232.386 45.5067 232.386 20.0514 247.023C5.20242 255.614 -1.05535 267.387 1.49019 278.524C1.38412 292.736 23.0212 317.131 65.871 317.131C130.464 317.131 129.934 278.418 129.934 278.418Z" fill="#FEE2E2"/>
<path d="M0.960938 274.917C0.960938 275.236 0.960938 275.554 1.067 275.872C1.067 276.19 1.17307 276.402 1.17307 276.72C1.17307 277.039 1.27913 277.357 1.27913 277.675C1.27913 277.993 1.38519 278.205 1.49126 278.524C1.59732 278.842 1.59732 279.16 1.70339 279.478C1.80945 279.796 1.91551 280.008 1.91551 280.327C2.02158 280.645 2.12764 280.963 2.2337 281.281C2.33977 281.599 2.44583 281.812 2.5519 282.13C2.65796 282.448 2.87009 282.766 2.97615 283.084C3.08222 283.402 3.18828 283.615 3.40041 283.933C3.50647 284.251 3.7186 284.569 3.93073 284.887C4.14286 285.206 4.24892 285.524 4.46105 285.948C4.46105 286.054 4.56711 286.16 4.56711 286.16C4.8853 286.69 5.2035 287.115 5.52169 287.645C5.62775 287.751 5.62775 287.857 5.73381 287.963C6.05201 288.494 6.47626 288.918 6.79445 289.448C6.90052 289.554 6.90052 289.66 7.00658 289.766C7.32477 290.191 7.64297 290.615 8.06722 291.039C8.17329 291.145 8.27935 291.251 8.38541 291.357C8.80967 291.782 9.23392 292.312 9.76425 292.736C9.87031 292.842 9.97637 292.948 9.97637 292.948C10.2946 293.266 10.7188 293.691 11.037 294.009C11.3552 294.327 11.6734 294.539 11.9916 294.857C12.3098 295.07 12.628 295.388 12.8401 295.6C13.1583 295.918 13.4765 296.13 13.9007 296.342C14.2189 296.554 14.5371 296.873 14.8553 297.085C15.1735 297.297 15.5978 297.615 15.916 297.827C16.2341 298.039 16.5523 298.251 16.9766 298.57C17.4008 298.782 17.719 299.1 18.1433 299.312C18.6736 299.63 19.0979 299.948 19.6282 300.267C20.5828 300.797 21.6434 301.327 22.598 301.858C22.9162 301.964 23.2344 302.176 23.4465 302.282C24.1889 302.706 25.0375 303.024 25.886 303.449C26.2042 303.555 26.4163 303.661 26.7345 303.767C27.7951 304.191 28.8558 304.615 29.9164 305.04C30.1285 305.146 30.3406 305.146 30.4467 305.252C31.4013 305.57 32.3559 305.888 33.3104 306.206C33.7347 306.312 34.0529 306.418 34.4771 306.63C35.0075 306.843 35.5378 306.949 36.0681 307.161C36.4924 307.267 36.9166 307.373 37.4469 307.585C37.9773 307.691 38.5076 307.903 39.0379 308.009C39.4622 308.115 39.9925 308.221 40.4167 308.328C40.947 308.434 41.4774 308.54 42.1137 308.752C42.538 308.858 43.0683 308.964 43.4926 309.07C44.0229 309.176 44.6593 309.282 45.1896 309.388C45.6139 309.494 46.0381 309.6 46.4624 309.6C47.6291 309.812 48.9018 310.025 50.1746 310.237C50.3867 310.237 50.4928 310.237 50.7049 310.343C51.7656 310.449 52.8262 310.661 53.9929 310.767C54.4172 310.767 54.8414 310.873 55.2657 310.873C56.0081 310.979 56.6445 310.979 57.387 311.085C57.8112 311.085 58.2355 311.191 58.6597 311.191C59.4022 311.191 60.1446 311.297 60.8871 311.297C61.3113 311.297 61.7356 311.297 62.1598 311.297C62.7962 311.297 63.4326 311.297 64.069 311.297C64.4932 311.297 64.9175 311.297 65.3418 311.297C65.9781 311.297 66.7206 311.297 67.357 311.297C67.7812 311.297 68.2055 311.297 68.5237 311.297C69.16 311.297 69.7964 311.297 70.4328 311.191C70.8571 311.191 71.2813 311.191 71.7056 311.085C72.342 311.085 73.0844 310.979 73.7208 310.979C74.1451 310.979 74.4632 310.979 74.8875 310.873C75.736 310.767 76.4785 310.767 77.327 310.661C77.5391 310.661 77.8573 310.661 78.0694 310.555C79.1301 310.449 80.0846 310.343 81.1453 310.131C81.3574 310.131 81.4635 310.131 81.6756 310.025C82.5241 309.918 83.4787 309.706 84.3272 309.6C84.6454 309.494 85.0696 309.494 85.3878 309.388C86.0242 309.282 86.7667 309.176 87.403 308.964C87.7212 308.858 88.1455 308.858 88.4637 308.752C89.2061 308.646 89.9486 308.434 90.691 308.221C91.1153 308.115 91.5395 308.009 91.8577 307.903C92.4941 307.691 93.1305 307.585 93.8729 307.373C94.1911 307.267 94.6154 307.161 94.9336 307.055C95.9942 306.737 96.9488 306.418 98.0094 306.1C98.2216 305.994 98.3276 305.994 98.5398 305.888C99.7065 305.464 100.873 305.04 101.934 304.615C102.358 304.403 102.888 304.297 103.313 304.085C103.631 303.979 104.055 303.767 104.373 303.661C104.904 303.449 105.434 303.236 105.858 303.024C106.176 302.918 106.495 302.706 106.813 302.6C107.343 302.388 107.873 302.07 108.404 301.752C108.616 301.645 108.934 301.539 109.146 301.327C109.889 300.903 110.737 300.479 111.48 300.055C124.207 292.63 130.677 282.978 130.571 273.326L130.783 284.357C130.783 294.009 124.419 303.661 111.692 311.085C110.949 311.509 110.101 311.934 109.358 312.358C109.146 312.464 108.828 312.57 108.616 312.782C108.086 313.1 107.555 313.313 107.025 313.631C106.707 313.737 106.388 313.949 106.07 314.055C105.54 314.267 105.116 314.479 104.585 314.691C104.267 314.797 103.843 315.01 103.525 315.116C103.207 315.222 102.888 315.434 102.464 315.54C102.358 315.54 102.252 315.646 102.146 315.646C100.979 316.07 99.9186 316.494 98.7519 316.919C98.5398 317.025 98.4337 317.025 98.2216 317.131C97.267 317.449 96.2064 317.767 95.1457 318.085C94.9336 318.085 94.8275 318.191 94.6154 318.191C94.4033 318.298 94.1911 318.298 93.979 318.298C93.3426 318.51 92.7062 318.616 91.9638 318.828C91.5395 318.934 91.1153 319.04 90.7971 319.146C90.0546 319.358 89.3122 319.464 88.5697 319.676C88.2516 319.782 88.0394 319.782 87.7212 319.888C87.6152 319.888 87.6152 319.888 87.5091 319.888C86.8727 319.995 86.1303 320.101 85.4939 320.313C85.1757 320.419 84.7514 320.419 84.4333 320.525C83.5847 320.631 82.6302 320.843 81.7817 320.949C81.6756 320.949 81.4635 320.949 81.3574 321.055C80.2968 321.161 79.3422 321.373 78.2815 321.479C78.0694 321.479 77.7512 321.479 77.5391 321.586C76.6906 321.692 75.9481 321.798 75.0996 321.798C75.0996 321.798 75.0996 321.798 74.9936 321.798C74.6754 321.798 74.2511 321.798 73.9329 321.904C73.2965 321.904 72.5541 322.01 71.9177 322.01C71.4935 322.01 71.0692 322.01 70.6449 322.116C70.0086 322.116 69.3722 322.222 68.7358 322.222H68.6297C68.3115 322.222 67.8873 322.222 67.5691 322.222C66.9327 322.222 66.1903 322.222 65.5539 322.222C65.1296 322.222 64.7054 322.222 64.2811 322.222C63.6447 322.222 63.0083 322.222 62.372 322.222C62.2659 322.222 62.1598 322.222 62.0538 322.222C61.7356 322.222 61.4174 322.222 61.2053 322.222C60.4628 322.222 59.7204 322.116 58.9779 322.116C58.5537 322.116 58.1294 322.01 57.7051 322.01C56.9627 322.01 56.3263 321.904 55.5839 321.798C55.3717 321.798 55.0535 321.798 54.8414 321.692C54.6293 321.692 54.5232 321.692 54.3111 321.586C53.2505 321.479 52.1898 321.373 51.0231 321.161C50.811 321.161 50.7049 321.161 50.4928 321.055C49.22 320.843 48.0533 320.737 46.7806 320.419C46.6745 320.419 46.5684 320.419 46.4624 320.313C46.1442 320.207 45.826 320.207 45.5078 320.101C44.9775 319.995 44.3411 319.888 43.8108 319.782C43.3865 319.676 42.8562 319.57 42.4319 319.464C41.9016 319.358 41.3713 319.252 40.7349 319.04C40.3107 318.934 39.7803 318.828 39.3561 318.722C38.8258 318.616 38.2954 318.404 37.7651 318.298C37.3409 318.191 36.9166 318.085 36.3863 317.873C35.856 317.767 35.3257 317.555 34.7953 317.343C34.5832 317.237 34.3711 317.237 34.159 317.131C33.9468 317.025 33.8408 317.025 33.6286 316.919C32.6741 316.6 31.7195 316.282 30.7649 315.964C30.5528 315.858 30.3406 315.858 30.2346 315.752C29.1739 315.328 28.1133 314.903 27.0527 314.479C26.7345 314.373 26.5223 314.267 26.2042 314.161C25.3556 313.843 24.6132 313.419 23.7647 312.994C23.4465 312.888 23.1283 312.676 22.9162 312.57C21.8555 312.04 20.901 311.509 19.9464 310.979C19.6282 310.873 19.4161 310.661 19.2039 310.555C18.9918 310.449 18.7797 310.237 18.4615 310.131C18.0372 309.918 17.719 309.6 17.2948 309.388C16.9766 309.176 16.5523 308.964 16.2341 308.646C15.916 308.434 15.4917 308.115 15.1735 307.903C14.8553 307.691 14.5371 307.373 14.2189 307.161C13.9007 306.949 13.5825 306.63 13.1583 306.418C12.8401 306.206 12.5219 305.888 12.3098 305.676C11.9916 305.358 11.6734 305.146 11.3552 304.827C11.2491 304.721 11.1431 304.615 10.9309 304.509C10.7188 304.297 10.4006 304.085 10.1885 303.767C10.0824 303.661 9.97637 303.555 9.97637 303.555C9.55212 303.13 9.0218 302.6 8.59754 302.176C8.49148 302.07 8.38541 301.964 8.27935 301.858C7.96116 301.433 7.5369 301.009 7.21871 300.585C7.11265 300.479 7.11265 300.373 7.00658 300.267L6.90052 300.161C6.58233 299.736 6.26413 299.312 5.94594 298.888C5.83988 298.782 5.83988 298.676 5.73381 298.57C5.41562 298.039 5.09743 297.615 4.77924 297.085C4.77924 296.979 4.67318 296.873 4.67318 296.873C4.56711 296.66 4.46105 296.448 4.35498 296.342C4.24892 296.236 4.14286 296.13 4.14286 295.918C3.93073 295.6 3.82466 295.282 3.61254 294.963C3.50647 294.645 3.40041 294.433 3.18828 294.115C3.08222 293.797 2.87009 293.479 2.76402 293.16C2.65796 293.054 2.65796 292.842 2.5519 292.736C2.5519 292.63 2.44583 292.418 2.44583 292.312C2.33977 291.994 2.2337 291.675 2.12764 291.357C2.02158 291.039 1.91551 290.827 1.91551 290.509C1.80945 290.191 1.70339 289.872 1.70339 289.554C1.70339 289.342 1.59732 289.236 1.59732 289.024C1.59732 288.918 1.59732 288.812 1.49126 288.706C1.38519 288.387 1.38519 288.069 1.38519 287.751C1.38519 287.433 1.27913 287.221 1.27913 286.903C1.27913 286.584 1.27913 286.266 1.17307 285.948C1.17307 285.736 1.17307 285.524 1.17307 285.418C1.17307 285.206 1.17307 284.993 1.17307 284.887L0.960938 273.751C0.960938 274.175 0.960938 274.493 0.960938 274.917Z" fill="#FB7070"/>
<path d="M123.782 265.69C126.115 255.614 120.6 245.008 107.236 237.265C84.4323 224.007 47.31 224.007 24.4001 237.265C10.93 245.008 5.41469 255.614 7.64204 265.796C7.53597 278.63 27.0517 300.691 65.8711 300.691C124.312 300.691 123.782 265.69 123.782 265.69Z" fill="#FEE2E2"/>
<path d="M7.21814 262.508C7.21814 262.827 7.21814 263.145 7.32421 263.357C7.32421 263.569 7.43027 263.887 7.43027 264.099C7.43027 264.418 7.53633 264.736 7.53633 264.948C7.53633 265.16 7.6424 265.478 7.74846 265.69C7.85453 266.009 7.85453 266.221 7.96059 266.539C8.06665 266.751 8.06665 267.069 8.17272 267.281C8.27878 267.599 8.38485 267.812 8.49091 268.13C8.59697 268.342 8.70304 268.66 8.8091 268.872C8.91516 269.19 9.02123 269.509 9.23336 269.721C9.33942 269.933 9.44549 270.251 9.55155 270.463C9.65761 270.781 9.86974 271.1 9.9758 271.312C10.1879 271.63 10.294 271.948 10.5061 272.266C10.5061 272.372 10.6122 272.372 10.6122 272.478C10.9304 272.903 11.1425 273.327 11.4607 273.857C11.5668 273.963 11.5668 274.069 11.6728 274.069C11.991 274.494 12.3092 274.918 12.6274 275.342C12.7335 275.448 12.7335 275.554 12.8395 275.554C13.1577 275.979 13.4759 276.297 13.7941 276.721C13.9002 276.827 14.0062 276.933 14.1123 277.039C14.5366 277.463 14.9608 277.888 15.3851 278.312C15.4911 278.418 15.4911 278.418 15.5972 278.524C15.9154 278.842 16.2336 279.16 16.5518 279.479C16.87 279.691 17.0821 280.009 17.4003 280.221C17.6124 280.433 17.9306 280.645 18.2488 280.857C18.567 281.07 18.8852 281.388 19.2034 281.6C19.5216 281.812 19.7337 282.024 20.0519 282.236C20.3701 282.448 20.6883 282.661 21.0065 282.979C21.3246 283.191 21.6428 283.403 21.961 283.615C22.2792 283.827 22.7035 284.039 23.0217 284.252C23.4459 284.57 23.8702 284.782 24.4005 285.1C25.249 285.63 26.2036 286.055 27.0521 286.585C27.2642 286.691 27.5824 286.903 27.9006 287.009C28.6431 287.327 29.3855 287.752 30.0219 288.07C30.234 288.176 30.5522 288.282 30.7643 288.388C31.7189 288.812 32.6735 289.237 33.7341 289.555C33.9463 289.661 34.0523 289.661 34.2645 289.767C35.113 290.085 35.9615 290.403 36.81 290.615C37.1282 290.721 37.5524 290.827 37.8706 290.934C38.2949 291.04 38.8252 291.252 39.2495 291.358C39.6737 291.464 40.098 291.57 40.4162 291.676C40.9465 291.782 41.3707 291.888 41.9011 292.1C42.3253 292.206 42.7496 292.312 43.1738 292.418C43.7041 292.525 44.1284 292.631 44.6587 292.737C45.083 292.843 45.5072 292.949 45.9315 293.055C46.4618 293.161 46.9921 293.267 47.4164 293.373C47.8406 293.479 48.1588 293.479 48.5831 293.585C49.6437 293.797 50.8104 294.009 51.8711 294.115C51.9771 294.115 52.1893 294.115 52.2953 294.222C53.2499 294.328 54.2045 294.434 55.2651 294.54C55.5833 294.54 56.0076 294.646 56.4318 294.646C57.0682 294.752 57.7046 294.752 58.341 294.752C58.7652 294.752 59.0834 294.858 59.5077 294.858C60.1441 294.858 60.7804 294.964 61.5229 294.964C61.8411 294.964 62.2653 294.964 62.5835 294.964C63.1138 294.964 63.7502 294.964 64.2805 294.964C64.7048 294.964 65.1291 294.964 65.4473 294.964C66.0836 294.964 66.72 294.964 67.2503 294.964C67.5685 294.964 67.9928 294.964 68.311 294.964C68.8413 294.964 69.4777 294.964 70.008 294.858C70.4323 294.858 70.7504 294.858 71.1747 294.858C71.8111 294.858 72.3414 294.752 72.9778 294.752C73.296 294.752 73.6142 294.752 74.0384 294.646C74.7809 294.54 75.5233 294.54 76.1597 294.434C76.3718 294.434 76.584 294.434 76.7961 294.328C77.7507 294.222 78.7052 294.115 79.5537 294.009C79.6598 294.009 79.8719 294.009 79.978 293.903C80.8265 293.797 81.569 293.691 82.4175 293.479C82.7357 293.373 83.0539 293.373 83.3721 293.267C84.0084 293.161 84.5388 293.055 85.1751 292.949C85.4933 292.843 85.8115 292.843 86.1297 292.737C86.7661 292.631 87.4025 292.418 88.1449 292.312C88.4631 292.206 88.8874 292.1 89.2056 291.994C89.8419 291.888 90.3723 291.676 91.0087 291.57C91.3269 291.464 91.6451 291.358 91.9632 291.252C92.9178 290.934 93.7663 290.721 94.7209 290.403C94.933 290.297 95.0391 290.297 95.2512 290.297C96.3119 289.979 97.3725 289.555 98.3271 289.13C98.7513 288.918 99.1756 288.812 99.5998 288.6C99.918 288.494 100.236 288.388 100.554 288.176C100.979 287.964 101.509 287.752 101.933 287.54C102.251 287.433 102.57 287.221 102.782 287.115C103.312 286.903 103.736 286.585 104.267 286.373C104.479 286.267 104.797 286.161 105.009 286.055C105.752 285.63 106.388 285.312 107.13 284.888C118.691 278.206 124.419 269.509 124.419 260.705L124.631 270.675C124.631 279.373 118.903 288.176 107.343 294.858C106.6 295.282 105.964 295.6 105.221 296.025C105.009 296.131 104.691 296.237 104.479 296.343C103.948 296.555 103.524 296.873 102.994 297.085C102.676 297.191 102.358 297.403 102.145 297.51C101.721 297.722 101.191 297.934 100.767 298.146C100.448 298.252 100.13 298.464 99.812 298.57C99.4938 298.676 99.1756 298.782 98.8574 298.994C98.7513 298.994 98.6453 299.1 98.5392 299.1C97.4786 299.525 96.524 299.843 95.4633 300.267C95.2512 300.373 95.1451 300.373 94.933 300.373C93.9784 300.691 93.1299 301.01 92.1754 301.222C92.0693 301.222 91.8572 301.328 91.7511 301.328C91.539 301.328 91.4329 301.434 91.2208 301.434C90.5844 301.646 90.0541 301.752 89.4177 301.858C89.0995 301.964 88.6753 302.07 88.3571 302.176C87.7207 302.282 87.0843 302.495 86.3418 302.601C86.1297 302.707 85.8115 302.707 85.5994 302.813C85.4933 302.813 85.4933 302.813 85.3873 302.813C84.7509 302.919 84.2206 303.025 83.5842 303.131C83.266 303.237 82.9478 303.237 82.6296 303.343C81.8872 303.449 81.0386 303.555 80.1901 303.767C80.0841 303.767 79.8719 303.767 79.7659 303.873C78.8113 303.979 77.8567 304.085 77.0082 304.192C76.7961 304.192 76.584 304.192 76.3718 304.298C75.6294 304.404 74.8869 304.404 74.2506 304.51C74.2506 304.51 74.2506 304.51 74.1445 304.51C73.8263 304.51 73.5081 304.51 73.1899 304.616C72.5535 304.616 72.0232 304.722 71.3868 304.722C70.9626 304.722 70.6444 304.722 70.2201 304.722C69.6898 304.722 69.0534 304.722 68.5231 304.828H68.417C68.0989 304.828 67.7807 304.828 67.4625 304.828C66.8261 304.828 66.1897 304.828 65.6594 304.828C65.2351 304.828 64.8109 304.828 64.4927 304.828C63.9624 304.828 63.326 304.828 62.7957 304.828C62.6896 304.828 62.5835 304.828 62.4775 304.828C62.2653 304.828 61.9471 304.828 61.735 304.828C61.0986 304.828 60.4622 304.722 59.7198 304.722C59.2955 304.722 58.9773 304.616 58.5531 304.616C57.9167 304.616 57.2803 304.51 56.6439 304.51C56.4318 304.51 56.2197 304.51 56.0076 304.404C55.9015 304.404 55.6894 304.404 55.5833 304.298C54.6287 304.192 53.6742 304.085 52.6135 303.979C52.5075 303.979 52.2953 303.979 52.1893 303.873C51.1286 303.767 49.9619 303.555 48.9013 303.343C48.7952 303.343 48.6891 303.343 48.5831 303.343C48.2649 303.343 48.0528 303.237 47.7346 303.131C47.2043 303.025 46.6739 302.919 46.2497 302.813C45.8254 302.707 45.4012 302.601 44.9769 302.495C44.4466 302.388 44.0223 302.282 43.492 302.176C43.0678 302.07 42.6435 301.964 42.2192 301.858C41.6889 301.752 41.2647 301.646 40.7343 301.434C40.3101 301.328 39.8858 301.222 39.5676 301.116C39.0373 301.01 38.6131 300.797 38.1888 300.691C37.9767 300.585 37.7646 300.585 37.5524 300.479C37.4464 300.479 37.2342 300.373 37.1282 300.373C36.2797 300.055 35.4312 299.843 34.5826 299.525C34.3705 299.419 34.2645 299.419 34.0523 299.313C33.0977 298.888 32.0371 298.57 31.0825 298.146C30.8704 298.04 30.5522 297.934 30.3401 297.828C29.5976 297.509 28.8552 297.191 28.2188 296.767C27.9006 296.661 27.6885 296.555 27.3703 296.343C26.4157 295.919 25.5672 295.388 24.7187 294.858C24.5066 294.752 24.1884 294.54 23.9762 294.434C23.7641 294.328 23.552 294.115 23.3399 294.009C23.0217 293.797 22.5974 293.585 22.2792 293.373C21.961 293.161 21.6428 292.949 21.3246 292.737C21.0065 292.525 20.6883 292.312 20.3701 291.994C20.0519 291.782 19.8398 291.57 19.5216 291.358C19.2034 291.146 18.8852 290.934 18.567 290.615C18.2488 290.403 18.0367 290.191 17.7185 289.979C17.4003 289.767 17.1882 289.449 16.87 289.237C16.7639 289.13 16.6578 289.024 16.5518 288.918C16.3396 288.706 16.1275 288.494 15.9154 288.282C15.8093 288.176 15.8093 288.176 15.7033 288.07C15.279 287.646 14.8547 287.221 14.4305 286.797C14.3244 286.691 14.2184 286.585 14.1123 286.479C13.7941 286.161 13.4759 285.736 13.1577 285.312C13.0517 285.206 13.0517 285.1 12.9456 285.1L12.8395 284.994C12.5213 284.57 12.2031 284.145 11.991 283.827C11.885 283.721 11.885 283.615 11.7789 283.615C11.4607 283.191 11.1425 282.767 10.9304 282.236C10.9304 282.13 10.8243 282.13 10.8243 282.024C10.7183 281.812 10.6122 281.706 10.5061 281.494C10.4001 281.388 10.4001 281.176 10.294 281.07C10.1879 280.751 9.9758 280.433 9.86974 280.221C9.76368 280.009 9.65761 279.691 9.55155 279.479C9.44549 279.16 9.33942 278.842 9.12729 278.63C9.12729 278.524 9.02123 278.418 8.91517 278.206C8.91517 278.1 8.8091 277.994 8.8091 277.888C8.70304 277.569 8.59697 277.357 8.49091 277.039C8.38485 276.827 8.38485 276.509 8.27878 276.297C8.17272 275.979 8.17272 275.766 8.06665 275.448C8.06665 275.342 7.96059 275.13 7.96059 275.024C7.96059 274.918 7.96059 274.812 7.96059 274.706C7.85453 274.388 7.85453 274.069 7.85453 273.857C7.85453 273.645 7.74846 273.327 7.74846 273.115C7.74846 272.797 7.74846 272.478 7.6424 272.266C7.6424 272.054 7.6424 271.948 7.6424 271.736C7.6424 271.524 7.6424 271.418 7.6424 271.206L7.43027 261.236C7.11208 261.766 7.21814 262.084 7.21814 262.508Z" fill="#FB7070"/>
<path d="M38.2949 178.294C38.2949 178.4 38.2949 178.612 38.2949 178.718C38.2949 178.824 38.2949 178.93 38.2949 179.036C38.2949 179.142 38.2949 179.354 38.401 179.46C38.401 179.566 38.401 179.673 38.5071 179.779C38.5071 179.885 38.6131 180.097 38.6131 180.203C38.6131 180.309 38.7192 180.415 38.7192 180.521C38.7192 180.627 38.8252 180.839 38.8252 180.945C38.8252 181.051 38.9313 181.157 38.9313 181.263C39.0374 181.37 39.0374 181.582 39.1434 181.688C39.1434 181.794 39.2495 181.9 39.3556 182.006C39.4616 182.112 39.4616 182.324 39.5677 182.43C39.6738 182.536 39.6738 182.642 39.7798 182.748C39.8859 182.961 39.9919 183.067 40.098 183.279C40.2041 183.385 40.2041 183.491 40.3101 183.597C40.4162 183.809 40.5223 183.915 40.7344 184.127C40.8405 184.233 40.8405 184.339 40.9465 184.339L41.0526 184.445C41.1586 184.658 41.3708 184.764 41.4768 184.976L41.5829 185.082C41.795 185.294 42.0072 185.506 42.1132 185.718L42.2193 185.824C42.3254 185.93 42.5375 186.142 42.6435 186.248C42.7496 186.355 42.8557 186.461 43.0678 186.567C43.1739 186.673 43.2799 186.779 43.4921 186.885C43.5981 186.991 43.8102 187.097 43.9163 187.203C44.0224 187.309 44.2345 187.415 44.3406 187.521C44.4466 187.627 44.6588 187.733 44.7648 187.839C44.8709 187.946 45.083 188.052 45.1891 188.158C45.4012 188.264 45.5073 188.37 45.7194 188.476C45.9315 188.582 46.1437 188.688 46.3558 188.9C46.78 189.112 47.2043 189.324 47.6285 189.536C47.7346 189.643 47.8407 189.643 48.0528 189.749C48.371 189.961 48.6892 190.067 49.1134 190.279C49.2195 190.279 49.3256 190.385 49.4316 190.385C49.8559 190.597 50.3862 190.809 50.8105 190.915C50.9165 190.915 51.0226 191.021 51.0226 191.021C51.4469 191.127 51.765 191.34 52.1893 191.446C52.4014 191.552 52.5075 191.552 52.7196 191.658C52.9317 191.764 53.1439 191.764 53.356 191.87C53.5681 191.976 53.7803 191.976 53.8863 192.082C54.0985 192.188 54.3106 192.188 54.5227 192.294C54.7348 192.294 54.947 192.4 55.053 192.4C55.2652 192.506 55.4773 192.506 55.7955 192.612C56.0076 192.612 56.2197 192.718 56.3258 192.718C56.5379 192.718 56.8561 192.824 57.0682 192.824C57.2804 192.824 57.3864 192.931 57.5986 192.931C58.1289 193.037 58.6592 193.143 59.1895 193.143C59.2956 193.143 59.2956 193.143 59.4016 193.143C59.8259 193.249 60.3562 193.249 60.7805 193.355C60.9926 193.355 61.0987 193.355 61.3108 193.355C61.629 193.355 61.9472 193.355 62.1593 193.461C62.3714 193.461 62.4775 193.461 62.6896 193.461C63.0078 193.461 63.326 193.461 63.6442 193.461C63.8563 193.461 63.9624 193.461 64.1745 193.461C64.4927 193.461 64.7048 193.461 65.023 193.461C65.2352 193.461 65.4473 193.461 65.5534 193.461C65.8715 193.461 66.0837 193.461 66.4019 193.461C66.614 193.461 66.7201 193.461 66.9322 193.461C67.1443 193.461 67.4625 193.461 67.6746 193.461C67.8868 193.461 67.9928 193.461 68.205 193.461C68.5231 193.461 68.7353 193.461 69.0535 193.355C69.2656 193.355 69.3717 193.355 69.5838 193.355C69.902 193.355 70.3262 193.249 70.6444 193.249C70.7505 193.249 70.8566 193.249 70.9626 193.249C71.3869 193.249 71.8111 193.143 72.2354 193.037C72.3414 193.037 72.3414 193.037 72.4475 193.037C72.8718 192.931 73.19 192.931 73.6142 192.824C73.7203 192.824 73.9324 192.718 74.0385 192.718C74.3567 192.718 74.5688 192.612 74.887 192.506C74.993 192.506 75.2052 192.4 75.3112 192.4C75.6294 192.294 75.9476 192.294 76.2658 192.188C76.4779 192.188 76.584 192.082 76.7961 192.082C77.1143 191.976 77.3265 191.976 77.6446 191.87C77.7507 191.87 77.9628 191.764 78.0689 191.764C78.4932 191.658 78.9174 191.552 79.3417 191.34C79.4477 191.34 79.4477 191.34 79.5538 191.233C80.0841 191.021 80.5084 190.915 81.0387 190.703C81.2508 190.597 81.4629 190.597 81.569 190.491C81.6751 190.385 81.8872 190.385 81.9933 190.279C82.2054 190.173 82.4175 190.067 82.6297 189.961C82.7357 189.855 82.9478 189.855 83.0539 189.749C83.266 189.643 83.4782 189.536 83.6903 189.43C83.7964 189.324 83.9024 189.324 84.0085 189.218C84.3267 189.006 84.6449 188.9 84.9631 188.688C90.3723 185.612 93.0239 181.476 93.0239 177.339L93.236 258.266C93.236 262.402 90.5844 266.433 85.1752 269.615C84.857 269.827 84.5388 269.933 84.2206 270.145C84.1145 270.251 84.0085 270.251 83.9024 270.357C83.6903 270.463 83.4782 270.569 83.266 270.675C83.16 270.781 82.9478 270.781 82.8418 270.888C82.6297 270.994 82.4175 271.1 82.2054 271.206C82.0993 271.312 81.8872 271.312 81.7811 271.418C81.6751 271.524 81.463 271.524 81.3569 271.63H81.2508C80.8266 271.842 80.2962 271.948 79.7659 272.16C79.6599 272.16 79.6599 272.16 79.5538 272.266C79.1295 272.372 78.7053 272.585 78.281 272.691C78.175 272.691 78.175 272.691 78.0689 272.797C77.9628 272.797 77.8568 272.797 77.8568 272.903C77.5386 273.009 77.3265 273.009 77.0083 273.115C76.7961 273.115 76.6901 273.221 76.4779 273.221C76.1597 273.327 75.8416 273.327 75.5234 273.433C75.4173 273.433 75.3112 273.539 75.2052 273.539H75.0991C74.7809 273.645 74.5688 273.645 74.2506 273.751C74.1445 273.751 73.9324 273.857 73.8263 273.857C73.5081 273.963 73.0839 273.963 72.7657 274.069C72.6596 274.069 72.6596 274.069 72.5536 274.069C72.1293 274.175 71.7051 274.176 71.2808 274.282C71.1747 274.282 71.0687 274.282 70.9626 274.282C70.6444 274.282 70.3262 274.388 69.902 274.388C69.7959 274.388 69.5838 274.388 69.4777 274.388C69.1595 274.388 68.9474 274.388 68.6292 274.494C68.4171 274.494 68.311 274.494 68.0989 274.494C67.8868 274.494 67.5686 274.494 67.3564 274.494C67.3564 274.494 67.3564 274.494 67.2504 274.494C67.1443 274.494 66.9322 274.494 66.8261 274.494C66.5079 274.494 66.2958 274.494 65.9776 274.494C65.7655 274.494 65.5534 274.494 65.4473 274.494C65.1291 274.494 64.917 274.494 64.5988 274.494H64.4927C64.3867 274.494 64.2806 274.494 64.0685 274.494C63.7503 274.494 63.4321 274.494 63.1139 274.494C62.9018 274.494 62.7957 274.494 62.5836 274.494C62.2654 274.494 61.9472 274.494 61.7351 274.388C61.629 274.388 61.5229 274.388 61.4169 274.388C61.3108 274.388 61.3108 274.388 61.2047 274.388C60.7805 274.388 60.2502 274.282 59.8259 274.175C59.7198 274.175 59.7198 274.175 59.6138 274.175C59.0835 274.069 58.5531 274.069 58.0228 273.963H57.9168C57.8107 273.963 57.5986 273.857 57.4925 273.857C57.2804 273.857 56.9622 273.751 56.75 273.751C56.5379 273.751 56.3258 273.645 56.2197 273.645C56.0076 273.645 55.7955 273.539 55.4773 273.433C55.2652 273.433 55.053 273.327 54.947 273.327C54.7348 273.221 54.5227 273.221 54.3106 273.115C54.0984 273.115 53.8863 273.009 53.7803 272.903C53.5681 272.797 53.356 272.797 53.1439 272.691C53.0378 272.691 52.9317 272.585 52.8257 272.585C52.7196 272.585 52.7196 272.585 52.6136 272.478C52.1893 272.372 51.765 272.16 51.4468 272.054C51.3408 272.054 51.2347 271.948 51.2347 271.948C50.8105 271.736 50.2801 271.63 49.8559 271.418C49.7498 271.418 49.6438 271.312 49.5377 271.312C49.2195 271.206 48.9013 270.994 48.4771 270.781C48.371 270.675 48.2649 270.675 48.0528 270.569C47.6286 270.357 47.2043 270.145 46.78 269.933C46.674 269.827 46.5679 269.827 46.4618 269.721C46.3558 269.615 46.2497 269.615 46.1437 269.509C45.9315 269.403 45.8255 269.297 45.6133 269.19C45.5073 269.084 45.2951 268.978 45.1891 268.872C45.083 268.766 44.8709 268.66 44.7648 268.554C44.6588 268.448 44.4466 268.342 44.3406 268.236C44.2345 268.13 44.0224 268.024 43.9163 267.918C43.8102 267.812 43.7042 267.706 43.4921 267.6C43.386 267.493 43.1739 267.387 43.0678 267.281C43.0678 267.281 42.9617 267.175 42.8557 267.175C42.7496 267.069 42.6435 266.963 42.5375 266.857L42.4314 266.751C42.2193 266.539 42.0072 266.327 41.9011 266.115L41.795 266.009C41.689 265.796 41.4768 265.69 41.3708 265.478L41.2647 265.372C41.2647 265.266 41.1586 265.266 41.1586 265.16C41.0526 264.948 40.9465 264.842 40.7344 264.63C40.6283 264.524 40.6283 264.418 40.5223 264.312C40.4162 264.099 40.3101 263.993 40.2041 263.781L40.098 263.675C40.098 263.569 39.9919 263.569 39.9919 263.463C39.8859 263.357 39.8859 263.145 39.7798 263.039C39.6738 262.933 39.6738 262.827 39.5677 262.721C39.4616 262.615 39.4616 262.402 39.3556 262.296C39.3556 262.19 39.2495 262.19 39.2495 262.084C39.2495 261.978 39.2495 261.978 39.1434 261.872C39.1434 261.766 39.0374 261.66 39.0374 261.448C39.0374 261.342 38.9313 261.236 38.9313 261.13C38.9313 261.024 38.8252 260.811 38.8252 260.705C38.8252 260.599 38.8252 260.599 38.8252 260.493V260.387C38.8252 260.281 38.8252 260.069 38.7192 259.963C38.7192 259.857 38.7192 259.751 38.7192 259.645C38.7192 259.539 38.7192 259.327 38.7192 259.22C38.7192 259.114 38.7192 259.008 38.7192 259.008C38.7192 258.902 38.7192 258.796 38.7192 258.796L38.5071 177.869C38.2949 177.975 38.2949 178.082 38.2949 178.294Z" fill="#FB7070"/>
<path d="M46.3552 166.52C35.6427 172.778 35.5366 182.748 46.2491 189.006C56.9615 195.158 74.25 195.264 85.0685 189.006C95.781 182.854 95.887 172.778 85.1746 166.52C74.4621 160.263 57.1737 160.263 46.3552 166.52Z" fill="#FEE2E2"/>
<path d="M57.3867 161.429V161.535V161.641V161.748V161.854V161.96V162.066V162.172V162.278C57.3867 162.278 57.3867 162.384 57.4928 162.384V162.49C57.4928 162.49 57.4928 162.596 57.5988 162.596C57.5988 162.596 57.5988 162.702 57.7049 162.702L57.811 162.808C57.811 162.808 57.811 162.914 57.917 162.914C57.917 163.02 58.0231 163.02 58.0231 163.126C58.0231 163.126 58.0231 163.126 58.1292 163.232C58.1292 163.338 58.2352 163.339 58.2352 163.445C58.3413 163.551 58.3413 163.551 58.4474 163.657L58.5534 163.763L58.6595 163.869L58.7655 163.975L58.8716 164.081L58.9777 164.187L59.0837 164.293L59.1898 164.399L59.2959 164.505C59.4019 164.505 59.4019 164.611 59.508 164.611C59.6141 164.717 59.7201 164.717 59.9323 164.823C59.9323 164.823 60.0383 164.823 60.0383 164.929C60.1444 164.929 60.2504 165.036 60.3565 165.036H60.4626C60.5686 165.142 60.7808 165.142 60.8868 165.248C60.8868 165.248 60.8868 165.248 60.9929 165.248C61.099 165.248 61.205 165.354 61.3111 165.354H61.4171C61.5232 165.354 61.5232 165.354 61.6293 165.46C61.7353 165.46 61.7353 165.46 61.8414 165.46C61.9475 165.46 61.9475 165.46 62.0535 165.566C62.1596 165.566 62.1596 165.566 62.2657 165.566C62.3717 165.566 62.3717 165.566 62.4778 165.566C62.5839 165.566 62.5839 165.566 62.6899 165.566C62.796 165.566 62.796 165.566 62.902 165.566C63.0081 165.566 63.0081 165.566 63.1142 165.566C63.2202 165.566 63.4324 165.672 63.6445 165.672C63.6445 165.672 63.6445 165.672 63.7506 165.672C63.8566 165.672 64.0687 165.672 64.1748 165.672C64.2809 165.672 64.2809 165.672 64.3869 165.672C64.493 165.672 64.5991 165.672 64.7051 165.672C64.8112 165.672 64.8112 165.672 64.9173 165.672C65.0233 165.672 65.1294 165.672 65.2354 165.672C65.3415 165.672 65.3415 165.672 65.4476 165.672C65.5536 165.672 65.6597 165.672 65.6597 165.672C65.7658 165.672 65.7658 165.672 65.8718 165.672C65.9779 165.672 66.084 165.672 66.084 165.672H66.19C66.2961 165.672 66.4022 165.672 66.4022 165.672C66.5082 165.672 66.5082 165.672 66.6143 165.672C66.7203 165.672 66.8264 165.672 66.8264 165.672H66.9325C67.0385 165.672 67.1446 165.672 67.2507 165.672H67.3567C67.4628 165.672 67.6749 165.672 67.781 165.672C67.781 165.672 67.781 165.672 67.887 165.672C67.9931 165.672 68.0992 165.672 68.2052 165.566H68.3113C68.4174 165.566 68.5234 165.566 68.5234 165.566H68.6295C68.7356 165.566 68.8416 165.566 68.9477 165.46H69.0537C69.1598 165.46 69.2659 165.46 69.2659 165.354H69.3719C69.478 165.354 69.6901 165.248 69.7962 165.248C69.7962 165.248 69.7962 165.248 69.9023 165.248C70.0083 165.248 70.2205 165.142 70.3265 165.036C70.4326 165.036 70.4326 165.036 70.5386 164.929C70.5386 164.929 70.6447 164.929 70.6447 164.823C70.7508 164.823 70.7508 164.717 70.8568 164.717C70.8568 164.717 70.9629 164.717 70.9629 164.611C71.069 164.611 71.069 164.505 71.175 164.505H71.2811C71.3872 164.399 71.4932 164.399 71.5993 164.293C73.2963 163.338 74.1448 162.066 74.1448 160.793L74.2509 173.627C74.2509 174.899 73.4024 176.172 71.7053 177.127C71.5993 177.233 71.4932 177.233 71.3872 177.339H71.2811C71.175 177.339 71.175 177.445 71.069 177.445C71.069 177.445 70.9629 177.445 70.9629 177.551C70.8568 177.551 70.8568 177.657 70.7508 177.657C70.7508 177.657 70.6447 177.657 70.6447 177.763C70.6447 177.763 70.5386 177.763 70.5386 177.869C70.4326 177.975 70.2205 177.975 70.1144 178.081C70.1144 178.081 70.1144 178.081 70.0083 178.081C69.9023 178.081 69.7962 178.187 69.5841 178.187C69.5841 178.187 69.5841 178.187 69.478 178.187C69.478 178.187 69.478 178.187 69.3719 178.187C69.2659 178.187 69.1598 178.187 69.1598 178.294H69.0537C68.9477 178.294 68.8416 178.294 68.7356 178.4H68.6295C68.5234 178.4 68.4174 178.4 68.4174 178.4H68.3113C68.2052 178.4 68.0992 178.4 67.9931 178.506C67.9931 178.506 67.9931 178.506 67.887 178.506C67.781 178.506 67.5689 178.506 67.4628 178.506H67.3567C67.2507 178.506 67.1446 178.506 67.0385 178.506H66.9325C66.8264 178.506 66.7203 178.506 66.7203 178.506C66.6143 178.506 66.6143 178.506 66.5082 178.506C66.4022 178.506 66.2961 178.506 66.2961 178.506H66.19C66.084 178.506 65.9779 178.506 65.9779 178.506C65.8718 178.506 65.8718 178.506 65.7658 178.506C65.6597 178.506 65.5536 178.506 65.5536 178.506H65.4476C65.3415 178.506 65.2354 178.506 65.1294 178.506C65.0233 178.506 65.0233 178.506 64.9173 178.506C64.8112 178.506 64.7051 178.506 64.5991 178.506H64.493C64.493 178.506 64.493 178.506 64.3869 178.506C64.2809 178.506 64.0687 178.506 63.9627 178.506C63.9627 178.506 63.9627 178.506 63.8566 178.506C63.6445 178.506 63.5384 178.506 63.3263 178.4H63.2202C63.1142 178.4 63.1142 178.4 63.0081 178.4C62.902 178.4 62.902 178.4 62.796 178.4C62.6899 178.4 62.6899 178.4 62.5838 178.4C62.4778 178.4 62.4778 178.4 62.3717 178.4C62.2657 178.4 62.2657 178.4 62.1596 178.294C62.0535 178.294 62.0535 178.294 61.9475 178.294C61.8414 178.294 61.8414 178.294 61.7353 178.187H61.6293C61.6293 178.187 61.6293 178.187 61.5232 178.187C61.4171 178.187 61.3111 178.081 61.205 178.081C61.205 178.081 61.205 178.081 61.099 178.081C60.9929 177.975 60.7808 177.975 60.6747 177.869H60.5686C60.4626 177.869 60.3565 177.763 60.2504 177.763C60.2504 177.763 60.1444 177.763 60.1444 177.657C60.0383 177.551 59.9323 177.551 59.7201 177.445C59.7201 177.445 59.6141 177.445 59.6141 177.339C59.6141 177.339 59.508 177.339 59.508 177.233L59.4019 177.127L59.2959 177.021L59.1898 176.915L59.0837 176.809L58.9777 176.703L58.8716 176.596L58.7655 176.49L58.6595 176.384C58.5534 176.278 58.5534 176.278 58.4474 176.172C58.4474 176.066 58.3413 176.066 58.3413 175.96C58.3413 175.96 58.3413 175.96 58.3413 175.854C58.3413 175.748 58.2352 175.748 58.2352 175.642C58.2352 175.642 58.2352 175.536 58.1292 175.536L58.0231 175.43C58.0231 175.43 58.0231 175.43 58.0231 175.324C58.0231 175.324 58.0231 175.218 57.917 175.218V175.112C57.917 175.112 57.917 175.006 57.811 175.006C57.811 175.006 57.811 175.006 57.811 174.899V174.793V174.687V174.581C57.811 174.581 57.811 174.581 57.811 174.475V174.369V174.263V174.157C57.811 174.157 57.811 174.157 57.811 174.051C57.811 174.051 57.811 174.051 57.811 173.945L57.3867 161.217C57.3867 161.323 57.3867 161.323 57.3867 161.429Z" fill="#FB7070"/>
<path d="M59.8254 157.717C56.5374 159.626 56.5374 162.702 59.8254 164.611C63.1133 166.52 68.4165 166.52 71.8106 164.611C72.8712 163.975 73.6137 163.232 73.9319 162.49C74.7804 160.793 74.0379 158.99 71.8106 157.717C69.9014 156.657 67.2498 156.126 64.8104 156.338C63.0073 156.444 61.2042 156.975 59.8254 157.717Z" fill="#FEE2E2"/>
<path d="M61.0979 218.067C51.2339 217.749 41.37 216.158 32.2485 212.552C24.1876 209.37 15.9146 204.491 11.0357 197.067C8.80835 193.673 7.42952 189.642 7.32346 185.612L7.21739 212.128L7.11133 236.416C7.11133 244.689 12.6267 251.584 18.9905 256.356C27.0513 262.402 37.0214 265.69 46.7792 267.493C51.34 268.342 56.0068 268.766 60.6736 268.872C62.1585 268.872 63.4313 267.705 63.4313 266.22L63.5373 220.719C63.7495 219.34 62.5828 218.173 61.0979 218.067Z" fill="#2F58FF"/>
<path d="M7.11133 265.69V191.657C7.11133 158.035 33.2031 130.883 65.4465 130.883C97.6899 130.883 123.782 158.141 123.782 191.657V265.69" stroke="#171A21" stroke-width="2" stroke-miterlimit="10" stroke-linecap="round" stroke-linejoin="round"/>
</svg>
