<svg width="388" height="385" viewBox="0 0 388 385" fill="none" xmlns="http://www.w3.org/2000/svg">
<path d="M334 169.49C334 169.49 334 169.596 334 169.49C333.788 169.49 333.682 169.49 333.576 169.49C333.576 169.49 333.576 169.49 333.47 169.49C333.364 169.49 333.152 169.49 333.046 169.49C333.046 169.49 333.046 169.49 332.94 169.49C332.833 169.49 332.621 169.49 332.515 169.384C332.303 169.384 332.197 169.278 331.985 169.278C331.773 169.172 331.667 169.172 331.455 169.066C331.243 168.96 331.136 168.854 330.924 168.854C330.712 168.748 330.606 168.642 330.394 168.536C330.182 168.43 330.076 168.324 329.864 168.112C329.758 168.005 329.546 167.899 329.439 167.687C329.333 167.581 329.121 167.369 329.015 167.263C328.909 167.157 328.697 166.945 328.591 166.733C328.485 166.521 328.273 166.415 328.167 166.202C328.061 165.99 327.955 165.884 327.742 165.672C327.636 165.46 327.53 165.248 327.424 165.142C327.424 165.036 327.318 165.036 327.318 164.93C327.212 164.718 327.106 164.505 327 164.293C326.894 164.081 326.788 163.869 326.682 163.657C326.576 163.445 326.47 163.233 326.47 163.02C326.364 162.808 326.364 162.596 326.258 162.384C326.258 162.384 326.258 162.384 326.258 162.278C326.151 162.066 326.151 161.854 326.045 161.642C326.045 161.43 325.939 161.217 325.939 161.005C325.939 160.793 325.939 160.581 325.833 160.369C325.833 160.369 325.833 160.369 325.833 160.263C325.833 160.051 325.833 159.839 325.833 159.626C325.833 159.414 325.833 159.202 325.833 159.096C325.833 158.884 325.833 158.778 325.939 158.566C325.939 158.566 325.939 158.566 325.939 158.46C325.939 158.248 326.045 158.142 326.045 158.035C326.045 158.035 326.045 158.035 326.045 157.929C326.045 157.823 326.151 157.717 326.151 157.505V157.399C326.151 157.293 326.258 157.187 326.258 157.081C326.258 157.081 326.257 156.975 326.364 156.975C326.364 156.975 326.364 156.975 326.364 156.869C326.47 156.763 326.576 156.551 326.682 156.445L326.788 156.338C326.894 156.232 327.106 156.126 327.212 156.02L310.984 165.46C310.772 165.566 310.666 165.672 310.56 165.778L310.454 165.884C310.348 165.99 310.242 166.202 310.136 166.308C310.136 166.308 310.136 166.415 310.03 166.415C310.03 166.521 309.924 166.521 309.924 166.627C309.924 166.627 309.924 166.627 309.924 166.733V166.839C309.924 166.945 309.924 166.945 309.818 167.051C309.818 167.157 309.818 167.157 309.712 167.263C309.712 167.263 309.712 167.263 309.712 167.369C309.712 167.475 309.712 167.581 309.605 167.687V167.793C309.605 167.793 309.605 167.793 309.605 167.899C309.605 167.899 309.605 167.899 309.605 168.005C309.605 168.112 309.605 168.218 309.605 168.324C309.605 168.43 309.605 168.43 309.605 168.536C309.605 168.642 309.605 168.748 309.605 168.748C309.605 168.854 309.605 168.96 309.605 168.96C309.605 169.066 309.605 169.066 309.605 169.172C309.605 169.278 309.605 169.384 309.605 169.384V169.49C309.605 169.49 309.605 169.49 309.605 169.596V169.703C309.605 169.809 309.605 169.915 309.605 170.021C309.605 170.127 309.605 170.127 309.605 170.233C309.605 170.339 309.605 170.445 309.605 170.551C309.605 170.657 309.605 170.763 309.712 170.869C309.712 170.975 309.712 170.975 309.818 171.081C309.818 171.187 309.818 171.293 309.924 171.4V171.506C309.924 171.506 309.924 171.506 309.924 171.612V171.718C309.924 171.824 310.03 171.93 310.03 172.036C310.03 172.142 310.136 172.142 310.136 172.248C310.136 172.354 310.242 172.46 310.242 172.566C310.242 172.672 310.348 172.778 310.348 172.778V172.884V172.99C310.348 173.097 310.454 173.203 310.454 173.309C310.454 173.415 310.56 173.521 310.56 173.627C310.56 173.733 310.666 173.839 310.666 173.945C310.772 174.051 310.772 174.157 310.878 174.369L310.984 174.475C311.09 174.688 311.196 174.9 311.302 175.006C311.302 175.006 311.302 175.006 311.302 175.112C311.409 175.218 311.515 175.43 311.621 175.536C311.727 175.642 311.727 175.642 311.833 175.748C311.939 175.854 311.939 175.96 312.045 175.96L312.151 176.066C312.257 176.172 312.257 176.278 312.363 176.278L312.469 176.385C312.469 176.385 312.469 176.385 312.575 176.491C312.681 176.597 312.681 176.597 312.787 176.703L312.893 176.809C313 176.915 313.106 176.915 313.106 177.021C313.212 177.021 313.212 177.127 313.318 177.127C313.424 177.233 313.53 177.233 313.53 177.339C313.636 177.445 313.636 177.445 313.742 177.445C313.848 177.551 313.848 177.551 313.954 177.551C314.06 177.551 314.06 177.657 314.166 177.657C314.272 177.657 314.272 177.763 314.378 177.763C314.484 177.763 314.484 177.869 314.59 177.869H314.697C314.697 177.869 314.697 177.869 314.803 177.869C314.909 177.869 314.909 177.975 315.015 177.975C315.121 177.975 315.121 177.975 315.227 178.082C315.333 178.082 315.333 178.082 315.439 178.188C315.545 178.188 315.545 178.188 315.651 178.294H315.757C315.863 178.294 315.863 178.294 315.969 178.294C315.969 178.294 315.969 178.294 316.075 178.294C316.075 178.294 316.075 178.294 316.181 178.294H316.287C316.394 178.294 316.5 178.294 316.5 178.294C316.5 178.294 316.5 178.294 316.606 178.294C316.712 178.294 316.712 178.294 316.818 178.294C316.924 178.294 316.924 178.294 317.03 178.294C317.03 178.294 317.03 178.294 317.136 178.294C317.242 178.294 317.348 178.188 317.56 178.188C317.666 178.188 317.878 178.082 317.985 177.975L334.212 168.536C334.106 168.642 333.894 168.642 333.788 168.748C334.318 169.49 334.212 169.49 334 169.49Z" fill="#FB7070"/>
<path d="M387.139 177.975C387.139 177.869 387.139 177.763 387.139 177.657C387.139 177.551 387.139 177.551 387.139 177.445C387.139 177.445 387.139 177.445 387.139 177.339V177.233C387.139 177.127 387.139 177.021 387.139 176.915C387.139 176.809 387.139 176.703 387.139 176.597C387.139 176.49 387.139 176.384 387.033 176.278C387.033 176.172 387.033 176.066 386.927 175.854V175.748V175.642C386.927 175.536 386.927 175.536 386.927 175.43C386.927 175.324 386.821 175.218 386.821 175.006C386.821 174.899 386.715 174.793 386.715 174.687C386.715 174.687 386.715 174.687 386.715 174.581C386.715 174.581 386.715 174.581 386.715 174.475C386.715 174.369 386.609 174.263 386.609 174.051C386.609 173.945 386.503 173.839 386.503 173.627C386.503 173.627 386.503 173.627 386.503 173.521C386.503 173.415 386.397 173.309 386.397 173.309C386.397 173.202 386.291 173.096 386.291 172.99C386.291 172.884 386.185 172.884 386.185 172.778C386.185 172.778 386.185 172.778 386.185 172.672C386.185 172.672 386.185 172.672 386.185 172.566C386.079 172.46 386.079 172.354 385.972 172.248C385.866 172.142 385.866 172.036 385.76 171.824C385.76 171.824 385.76 171.824 385.76 171.718C385.654 171.611 385.654 171.505 385.548 171.399C385.442 171.293 385.442 171.187 385.336 171.081C385.336 170.975 385.23 170.869 385.23 170.869C385.23 170.869 385.23 170.763 385.124 170.763C385.018 170.657 385.018 170.551 384.912 170.445C384.806 170.339 384.7 170.127 384.594 170.021C384.594 170.021 384.594 169.914 384.488 169.914C384.381 169.808 384.275 169.596 384.169 169.49C384.169 169.384 384.063 169.384 384.063 169.278C383.957 169.172 383.851 168.96 383.745 168.854C383.639 168.748 383.639 168.642 383.533 168.642C383.533 168.642 383.533 168.642 383.533 168.536C383.427 168.43 383.321 168.324 383.215 168.217C383.109 168.111 383.003 168.005 382.897 167.899C382.791 167.793 382.684 167.687 382.578 167.581C382.472 167.475 382.366 167.369 382.26 167.263C382.154 167.157 382.154 167.157 382.048 167.051C381.942 166.945 381.836 166.839 381.73 166.733C381.73 166.733 381.624 166.733 381.624 166.626C381.624 166.626 381.624 166.626 381.518 166.52C381.412 166.52 381.412 166.414 381.306 166.414C381.2 166.308 381.093 166.202 380.987 166.202L380.881 166.096C380.881 166.096 380.881 166.096 380.775 166.096C380.775 166.096 380.669 166.096 380.669 165.99C380.563 165.884 380.457 165.884 380.351 165.778C380.245 165.672 380.139 165.672 380.033 165.566L337.183 140.323C337.077 140.323 337.077 140.217 336.971 140.217C336.865 140.111 336.759 140.111 336.653 140.111C336.547 140.111 336.547 140.004 336.441 140.004C336.441 140.004 336.441 140.004 336.335 140.004C336.228 140.004 336.122 139.898 336.016 139.898C335.91 139.898 335.804 139.792 335.698 139.792C335.592 139.792 335.486 139.686 335.486 139.686C335.38 139.686 335.274 139.58 335.168 139.58H335.062C335.062 139.58 335.062 139.58 334.956 139.58H334.85C334.744 139.58 334.637 139.58 334.531 139.474H334.425H334.319H334.213C334.107 139.474 334.001 139.474 333.895 139.474H333.789H333.683C333.577 139.474 333.577 139.474 333.471 139.474C333.365 139.474 333.259 139.474 333.153 139.474C333.153 139.474 333.153 139.474 333.047 139.474C332.834 139.474 332.728 139.58 332.516 139.58C332.304 139.686 332.092 139.686 331.986 139.792L315.228 149.444L299 158.884L315.758 149.232C315.97 149.126 316.076 149.02 316.288 149.02C316.501 148.914 316.607 148.914 316.819 148.914C316.819 148.914 316.819 148.914 316.925 148.914C317.137 148.914 317.243 148.914 317.455 148.808H317.561C317.773 148.808 317.985 148.808 318.092 148.808H318.198C318.41 148.808 318.622 148.914 318.834 148.914C318.834 148.914 318.834 148.914 318.94 148.914C319.152 148.914 319.364 149.02 319.576 149.126C319.789 149.232 320.001 149.338 320.213 149.444C320.425 149.55 320.637 149.656 320.955 149.762L363.805 175.006C364.017 175.112 364.335 175.324 364.548 175.43C364.548 175.43 364.548 175.43 364.654 175.43C364.866 175.536 365.078 175.748 365.29 175.96C365.29 175.96 365.29 175.96 365.396 176.066C365.608 176.278 365.82 176.384 366.032 176.597C366.245 176.809 366.457 177.021 366.669 177.233C366.881 177.445 367.093 177.657 367.305 177.975C367.305 177.975 367.305 177.975 367.305 178.081C367.517 178.294 367.729 178.506 367.835 178.824C367.835 178.93 367.942 178.93 367.942 179.036C368.048 179.248 368.26 179.46 368.366 179.566C368.472 179.672 368.578 179.884 368.684 179.991C368.79 180.097 368.896 180.309 368.896 180.415C368.896 180.521 369.002 180.627 369.002 180.627C369.108 180.839 369.214 181.051 369.32 181.263C369.32 181.263 369.32 181.263 369.32 181.369C369.426 181.688 369.639 181.9 369.745 182.218C369.745 182.218 369.745 182.218 369.745 182.324C369.851 182.642 369.957 182.854 370.063 183.172C370.169 183.491 370.275 183.809 370.381 184.021C370.381 184.021 370.381 184.021 370.381 184.127C370.487 184.445 370.487 184.657 370.593 184.976V185.082C370.699 185.4 370.699 185.612 370.805 185.93C370.805 186.248 370.911 186.46 370.911 186.779C370.911 186.779 370.911 186.779 370.911 186.885C370.911 187.203 370.911 187.415 370.911 187.733L370.805 220.825C370.805 221.143 370.805 221.355 370.805 221.674C370.805 221.674 370.805 221.674 370.805 221.78C370.805 221.992 370.699 222.204 370.699 222.522V222.628C370.699 222.84 370.593 223.053 370.487 223.265V223.371C370.381 223.583 370.381 223.795 370.275 223.901C370.169 224.113 370.063 224.219 369.957 224.431L369.851 224.537C369.745 224.643 369.639 224.75 369.639 224.856L369.533 224.962C369.426 225.068 369.32 225.174 369.214 225.28L369.108 225.386C369.002 225.492 368.79 225.598 368.684 225.704L384.912 216.264C385.018 216.158 385.23 216.052 385.336 215.946L385.442 215.84C385.548 215.734 385.654 215.628 385.76 215.522L385.866 215.416C385.972 215.31 386.079 215.204 386.079 215.098L386.185 214.992C386.291 214.886 386.397 214.673 386.503 214.461C386.609 214.355 386.609 214.143 386.715 214.037V213.931V213.825V213.719C386.715 213.613 386.821 213.507 386.821 213.401V213.295V213.189C386.821 213.083 386.821 213.083 386.821 212.976C386.821 212.87 386.821 212.764 386.821 212.658C386.821 212.552 386.821 212.552 386.821 212.446C386.821 212.446 386.821 212.446 386.821 212.34V212.234C386.821 212.128 386.821 212.022 386.821 211.916C386.821 211.81 386.821 211.704 386.821 211.598L386.927 178.506C387.139 178.294 387.139 178.187 387.139 177.975Z" fill="#FB7070"/>
<path d="M363.593 175.005C367.623 177.339 370.911 183.066 370.911 187.733L370.805 220.825C370.805 223.158 369.957 224.856 368.578 225.598C367.199 226.34 365.396 226.234 363.381 225.068L320.637 200.885C318.622 199.718 316.713 197.703 315.334 195.264L298.788 166.52C296.985 163.338 296.985 159.944 298.788 158.884L315.546 149.232C316.925 148.383 318.834 148.596 320.849 149.762L363.593 175.005ZM318.622 178.612C320.743 177.445 320.743 173.415 318.622 169.702C317.561 167.899 316.182 166.414 314.804 165.672C313.425 164.823 312.046 164.717 310.879 165.248C308.758 166.52 308.758 170.445 310.879 174.157C311.94 175.96 313.319 177.445 314.697 178.187C316.182 179.036 317.561 179.248 318.622 178.612Z" fill="#FEE2E2"/>
<path d="M316.182 170.127C307.379 175.218 293.06 175.218 284.151 170.127C281.287 168.536 279.378 166.521 278.317 164.505C276.09 160.051 277.999 155.066 284.045 151.672C289.136 148.702 296.136 147.429 302.924 147.959C306.318 148.171 309.606 148.914 312.576 149.975" stroke="#171A21" stroke-width="2" stroke-miterlimit="10" stroke-linecap="round" stroke-linejoin="round"/>
<path d="M124.312 327.844L146.162 326.571L148.495 313.949L246.498 370.906L224.755 372.178L222.316 384.8L124.312 327.844Z" fill="#FB7070"/>
<path d="M270.257 334.738L173.315 278.736C170.769 277.251 167.693 279.054 167.693 282.024L167.375 289.024C167.375 294.433 170.239 299.418 174.906 302.07L269.939 356.905C274.606 359.557 280.333 359.557 285 356.905L379.397 302.07C383.958 299.418 386.821 294.433 386.821 289.13L387.14 282.13C387.14 279.266 383.958 277.463 381.518 278.842L285.318 334.738C280.651 337.389 274.924 337.389 270.257 334.738Z" fill="#2F58FF"/>
<path d="M381.623 278.736L285.317 334.632C280.65 337.283 274.923 337.389 270.256 334.632L173.313 278.63C170.768 277.145 170.768 273.539 173.313 272.16L269.62 216.264C274.286 213.613 280.014 213.507 284.681 216.264L381.623 272.266C384.063 273.645 384.063 277.251 381.623 278.736Z" fill="#FB7070"/>
<path d="M236.912 250.791C214.363 263.909 214.363 285.043 236.912 298.161C259.462 311.28 295.833 311.28 319.11 298.161C326.384 293.789 331.476 288.687 333.658 283.586C339.478 271.925 334.386 259.536 319.11 250.791C306.017 243.503 287.831 239.859 271.101 241.317C258.735 242.045 246.369 245.689 236.912 250.791Z" stroke="#171A21" stroke-width="2" stroke-linecap="round" stroke-linejoin="round" stroke-dasharray="12 12"/>
</svg>
