<svg width="121" height="17" viewBox="0 0 121 17" fill="none" xmlns="http://www.w3.org/2000/svg">
<g clip-path="url(#clip0)">
<path d="M39.0478 6.28112C38.4969 6.96386 37.6016 8.19277 37.1195 8.94378C36.8441 9.28514 36.362 9.96787 38.0148 9.96787C39.7365 9.96787 46.6232 9.96787 46.6232 9.96787C46.6232 9.96787 48.0006 8.1245 49.1713 6.55422C50.7553 4.43775 49.3091 0 43.6619 0C38.5657 0 21.3489 0 21.3489 0L17.4923 5.18876C17.4923 5.18876 37.5327 5.18876 38.5657 5.18876C39.5299 5.18876 39.5299 5.59839 39.0478 6.28112ZM32.712 11.2651C31.0592 11.2651 31.5413 10.5823 31.8167 10.241C32.3677 9.48996 33.2629 8.32932 33.8139 7.57831C34.3648 6.89558 34.3648 6.48594 33.263 6.48594C32.2299 6.48594 23.6215 6.48594 23.6215 6.48594L15.8395 17C15.8395 17 29.6818 17 34.778 17C41.045 17 44.4883 12.7671 45.5902 11.3333C45.5902 11.2651 34.4337 11.2651 32.712 11.2651ZM45.0393 17H56.1269L60.3278 11.3333H49.2402C49.2402 11.2651 45.0393 17 45.0393 17ZM73.6881 0L69.4183 5.73494H64.4599L68.7297 0H57.642L50.2043 10.0361H77.407L84.7758 0H73.6881ZM61.0854 17H72.173L76.3739 11.3333H65.2863C65.2863 11.2651 61.0854 17 61.0854 17ZM0 13.5181V14.747H15.4952L16.3904 13.5181H0ZM18.0433 11.2651H0V12.494H17.148L18.0433 11.2651ZM0 17H13.8423L14.7376 15.7711H0V17ZM104.747 14.747H121.069V13.5181H105.643L104.747 14.747ZM103.094 17H121.069V15.7711H103.99L103.094 17ZM107.295 11.2651L106.4 12.494H121.069V11.2651H107.295ZM92.7644 10.0361L100.133 0H88.3569L80.9192 10.0361H92.7644ZM80.0239 11.2651C80.0239 11.2651 79.1975 12.3574 78.7843 12.9036C77.407 14.747 78.6466 16.9317 83.1918 16.9317C88.4257 16.9317 101.028 16.9317 101.028 16.9317L105.229 11.2651H80.0239Z" fill="#EA0E38"/>
</g>
<defs>
<clipPath id="clip0">
<rect width="121" height="17" fill="white"/>
</clipPath>
</defs>
</svg>
