<?xml version="1.0" encoding="utf-8"?>
<!-- Generator: Adobe Illustrator 22.1.0, SVG Export Plug-In . SVG Version: 6.00 Build 0)  -->
<svg version="1.1" id="Слой_1" xmlns="http://www.w3.org/2000/svg" xmlns:xlink="http://www.w3.org/1999/xlink" x="0px" y="0px"
	 viewBox="0 0 412.3 337.9" style="enable-background:new 0 0 412.3 337.9;" xml:space="preserve">
<style type="text/css">
	.st0{fill:#98A2F4;}
	.st1{fill:#EAECFD;}
	.st2{fill:#FFFFFF;}
	.st3{fill:#2F58FF;}
	.st4{fill:none;stroke:#171A21;stroke-width:2;stroke-linecap:round;stroke-linejoin:round;stroke-miterlimit:10;}
	.st5{fill:none;stroke:#171A21;stroke-width:2;stroke-linecap:round;stroke-linejoin:round;}
	.st6{fill:none;stroke:#171A21;stroke-width:2;stroke-linecap:round;stroke-linejoin:round;stroke-dasharray:11.55,11.55;}
	.st7{fill:none;stroke:#171A21;stroke-width:2;stroke-linecap:round;stroke-linejoin:round;stroke-dasharray:9.56,9.56;}
</style>
<g id="_x32_">
	<path class="st0" d="M161.5,123.1L63.2,66.4c-2.6-1.4-5.7,0.3-5.7,3.3l-0.3,100.9c0,5.4,2.9,10.4,7.6,13.2l96.4,55.6
		c4.7,2.8,10.6,2.7,15.2,0l95.7-55.6c4.7-2.7,7.6-7.7,7.6-13.1L280,69.8c0-2.9-3.2-4.8-5.7-3.3l-97.5,56.7
		C172.1,125.9,166.2,125.9,161.5,123.1z"/>
	<path class="st1" d="M274.4,66.4l-97.6,56.7c-4.7,2.8-10.6,2.8-15.2,0L63.2,66.4c-2.6-1.4-2.6-5.1,0-6.6l97.6-56.7
		c4.7-2.8,10.6-2.8,15.2,0l98.3,56.7C276.9,61.3,276.9,65,274.4,66.4z"/>
	<path class="st2" d="M95.2,41.2l111.6,64.5L246,83L134.4,18.5L95.2,41.2z"/>
	<path class="st3" d="M135.6,30.8l-2.3-1.4c-0.8-0.4-1.1-1.1-0.8-1.8l0.8-1.9c0.2-0.7-0.1-1.3-0.9-1.8c-0.8-0.4-1.9-0.7-3.1-0.6
		l-3.3,0.5c-0.2,0-0.6,0-0.8,0l-14.9,8.7c0,0.1,0,0.3-0.1,0.4l-0.8,1.9c-0.2,0.7,0.1,1.3,0.9,1.8c0.8,0.4,1.9,0.7,3.1,0.6l3.3-0.4
		c1.1-0.1,2.2,0,3,0.4l2.4,1.3c1.8,1,4.8,0.6,5.4-0.9l1-1.9c0.3-0.7,1.1-1.1,2.2-1.3l3.2-0.5C136.5,33.6,137.3,31.8,135.6,30.8z"/>
	<path class="st3" d="M165.6,43.9c-0.8-0.4-1.9-0.7-3.1-0.6l-3.3,0.4c-1.1,0.1-2.2,0-3-0.4l-2.4-1.3c-1.8-1-4.8-0.6-5.4,0.9l-1,1.9
		c-0.3,0.7-1.1,1.1-2.2,1.3l-3.2,0.5c-2.3,0.5-3.1,2.1-1.4,3.2l2.3,1.4c0.8,0.4,1.1,1.1,0.8,1.8l-0.8,1.9c-0.2,0.7,0.1,1.3,0.9,1.8
		c0.8,0.4,1.9,0.7,3.1,0.6l3.3-0.4c1.1-0.1,2.2,0,3,0.4l2.4,1.3c1.8,1,4.8,0.6,5.4-0.9l1-1.9c0.3-0.7,1.1-1.1,2.2-1.3l3.2-0.6
		c2.3-0.4,3.1-2.1,1.4-3.2l-2.3-1.4c-0.8-0.4-1.1-1.1-0.8-1.8l0.8-1.9C166.9,45,166.4,44.3,165.6,43.9z"/>
	<path class="st3" d="M199,63.9c-0.8-0.5-1.9-0.7-3.1-0.6l-3.3,0.4c-1.1,0.1-2.2,0-3-0.4l-2.4-1.3c-1.8-1-4.8-0.6-5.4,0.9l-1,1.9
		c-0.3,0.7-1.1,1.1-2.2,1.3l-3.2,0.6c-2.3,0.4-3.1,2.1-1.4,3.2l2.3,1.4c0.8,0.4,1.1,1.1,0.8,1.8l-0.8,1.9c-0.2,0.7,0.1,1.3,0.9,1.8
		c0.8,0.4,1.9,0.7,3.1,0.6l3.3-0.4c1.1-0.1,2.2,0,3,0.4l2.4,1.3c1.8,1,4.8,0.6,5.4-0.9l1-1.9c0.3-0.7,1.1-1.1,2.2-1.3l3.2-0.6
		c2.3-0.4,3.1-2.1,1.4-3.2l-2.3-1.4c-0.8-0.4-1.1-1.1-0.8-1.8l0.8-1.9C200.2,65,199.8,64.3,199,63.9z"/>
	<path class="st3" d="M233.4,89.5c-0.8-0.4-1.1-1.1-0.8-1.8l0.8-1.9c0.2-0.7-0.1-1.3-0.9-1.8c-0.8-0.4-1.9-0.7-3.1-0.6l-3.3,0.4
		c-1.1,0.1-2.2,0-3-0.4l-2.4-1.3c-1.8-1-4.8-0.6-5.4,0.9l-1,1.9c-0.3,0.7-1.1,1.1-2.2,1.3l-3.2,0.6c-2.3,0.4-3.1,2.1-1.4,3.2
		l2.3,1.4c0.8,0.4,1.1,1.1,0.8,1.8l-0.8,1.9c-0.2,0.7,0.1,1.3,0.9,1.8c0.8,0.4,1.9,0.7,3.1,0.6l3.3-0.4c1.1-0.1,2.2,0,3,0.4l0.8,0.4
		l13.5-7.9L233.4,89.5z"/>
	<path class="st4" d="M272.2,183.7c4.7-2.7,7.6-7.7,7.6-13.1L280,72c0-5.4-2.9-10.5-7.6-13.2L176.1,3c-4.7-2.8-10.6-2.7-15.2,0
		L65.1,58.6c-4.7,2.7-7.6,7.7-7.6,13.1l-0.2,98.6c0,5.5,2.9,10.5,7.6,13.2"/>
	<path class="st5" d="M101,37.9l-5.8,3.3l5.8,3.3"/>
	<path class="st6" d="M112.1,51l83.4,48.2"/>
	<path class="st5" d="M201.1,102.3l5.8,3.3l5.8-3.3"/>
	<path class="st7" d="M221.8,97l13.8-8"/>
	<path class="st5" d="M240.2,86.3L246,83l-5.8-3.3"/>
	<path class="st6" d="M229.1,73.2l-83.4-48.1"/>
	<path class="st5" d="M140.2,21.8l-5.8-3.3l-5.8,3.3"/>
	<path class="st7" d="M119.4,27.2l-13.8,8"/>
	<path class="st2" d="M255,143.8c-4.2,8.8-7.5,12.5-9.7,13.8c-0.9,0.6-1.7,0.7-2.3,0.6c-0.4,0-0.8-0.2-1-0.4
		c-0.8,0.9-1.6,1.7-2.3,2.4c-1.2,1.1-4,3.8-6.6,5.2c-1.8,1-3.6,1.6-4.4,0.5l-0.1-0.1c-1.8,1.9-3.7,3.6-5.4,4.6c-1.8,1-3.6,1.4-4.9,1
		c-0.9-0.3-1.7-1.1-2.1-2.7c-2.8,3.4-5.9,6.3-9.1,8.6l-0.4,1.3c-2.2,6.1,0.8,10.2,5.4,7.7l6.4-3.4c2.1-1.1,4.1-1,5.2,0.4l3.4,4.3
		c1.2,1.6,3.3,1.6,5.4,0.3c2.1-1.2,4.1-3.6,5.4-6.6l3.4-8.3c1.1-2.7,3.1-5.1,5.2-6.4l6.5-4c4.7-2.9,7.6-10.3,5.3-13.9l-3-4.8
		C255.1,143.9,255.1,143.8,255,143.8z M246,147.5c-0.8,0.4-1.3,1.2-1.8,2.3c-0.2,0.4-0.3,1-0.3,1.4c1.1-1.6,1.9-2.9,2.2-3.9
		L246,147.5z M233,151.3c-0.3,0.2-0.6,0.6-0.8,0.9c-1,1.7-1.4,4.3-1.6,6.6c1.7-2.6,2.9-5.4,2.8-7.7
		C233.2,151.2,233.1,151.3,233,151.3z M221.5,150.3c-0.1,0.2-0.2,0.6-0.3,1c-0.9,2.9-1.4,5.6-1.9,7.7
		C221.6,154.1,221.7,151.2,221.5,150.3z M232.1,119.5c-2.1,1.2-4.1,3.6-5.4,6.6l-3.4,8.2c-1.1,2.7-3.1,5.1-5.2,6.4l-6.4,4
		c-4.7,2.9-7.6,10.3-5.3,13.9l3,4.8c1,1.6,1,4.1,0,6.9l-0.7,1.9c2.4-2,4.9-4.6,6.9-7.2c0-3,0.8-7.3,2.6-13.5c1-3.4,2.6-4.8,3.3-5.3
		c0,0,0.1,0,0.1-0.1c1.1-0.7,2.1-0.3,2.6,0.7c1.1,2,0.6,7.3-3.2,14.5c-0.7,1.2-1.3,2.4-2.1,3.6c0.2,1.3,0.7,2.2,1.3,2.6
		c0.7,0.3,1.8,0,2.9-0.7c1.3-0.8,2.9-2.1,4.4-3.9c-0.4-3.4,0.4-8.6,2.3-11.8c0.9-1.6,1.9-2.7,3-3.3c0.9-0.6,1.8-0.7,2.7-0.6
		c0.3,0,0.6,0.3,0.7,0.7c0.9,3.6-1,9.1-5,14.6c0.2,0.1,0.9,0,1.8-0.6c1.3-0.8,3.1-2.1,5.4-4.4c0.8-0.8,1.6-1.6,2.2-2.2
		c-0.2-1.6,0-3.4,0.7-5.2c0.8-2.2,2.3-4.7,4.6-6c0.8-0.4,1.7-0.8,2.7-0.9c0.6,0,0.9,0.3,1,1c0.2,2.8-1.8,6.4-4.4,10.1
		c0.1,0,0.2-0.1,0.2-0.1c1.4-0.8,4.3-4.3,8.7-13.9c0.1-0.3,0.3-0.7,0.6-0.9c0.1-0.7,0.3-1.3,0.6-2.1l3-8.3c2.2-6.1-0.8-10.2-5.4-7.7
		l-6.4,3.4c-2.1,1.1-4.1,1-5.2-0.4l-3.4-4.3C236.4,118.3,234.2,118.3,232.1,119.5z"/>
	<path class="st3" d="M243.9,151.3c0.1-0.4,0.2-0.9,0.3-1.4c0.4-1.1,1-1.9,1.8-2.3l0.1-0.1C245.8,148.4,245,149.7,243.9,151.3z
		 M230.7,158.8c0.1-2.2,0.6-4.9,1.6-6.6c0.2-0.3,0.4-0.8,0.8-0.9c0.1-0.1,0.2-0.1,0.4-0.1C233.6,153.3,232.2,156.3,230.7,158.8z
		 M219.2,158.9c0.4-2.2,1-4.8,1.9-7.7c0.1-0.4,0.2-0.8,0.3-1C221.7,151.2,221.6,154.1,219.2,158.9z M221.6,146.2
		C221.6,146.2,221.5,146.2,221.6,146.2c-0.9,0.6-2.3,1.9-3.4,5.3c-1.8,6.1-2.6,10.5-2.6,13.5c-2,2.8-4.3,5.2-6.9,7.2
		c-1.4,1.2-2.9,2.2-4.3,3c-2.3,1.3-4.8,2.2-6.8,2.4c-0.2,0-0.4,0.1-0.7,0.2c-0.7,0.3-1.2,1.1-1.4,1.9c-0.3,1.1,0,2,0.9,1.9
		c2.6-0.2,5.3-1.2,8.1-2.9c0.8-0.4,1.7-1,2.4-1.6c3.2-2.2,6.3-5.2,9.1-8.6c0.4,1.6,1.3,2.3,2.1,2.7c1.3,0.6,3.1,0.1,4.9-1
		c1.8-1,3.7-2.7,5.4-4.6l0.1,0.1c0.9,1,2.7,0.5,4.4-0.5c2.6-1.4,5.3-4.1,6.6-5.2c0.8-0.8,1.6-1.6,2.3-2.4c0.3,0.2,0.7,0.3,1,0.4
		c0.7,0.1,1.4-0.1,2.3-0.6c2.2-1.3,5.4-5,9.7-13.8c0.4-1,1-2,1.4-3.1c0.6-1.1,0.3-2.1-0.3-2.3c-0.3-0.1-0.6,0-0.9,0.2
		c-0.2,0.1-0.4,0.3-0.7,0.5c-0.2,0.2-0.4,0.6-0.6,0.9c-4.3,9.6-7.2,13-8.7,13.9c-0.1,0.1-0.2,0.1-0.2,0.1c2.7-3.6,4.7-7.3,4.4-10.1
		c0-0.7-0.4-1-1-1c-1,0.1-1.9,0.4-2.7,0.9c-2.2,1.3-3.8,3.7-4.6,6c-0.7,1.8-0.9,3.7-0.7,5.2c-0.7,0.8-1.4,1.6-2.2,2.2
		c-2.3,2.2-4.2,3.7-5.4,4.4c-1,0.6-1.6,0.8-1.8,0.6c4-5.6,6-11,5-14.6c-0.1-0.4-0.3-0.7-0.7-0.7c-0.9-0.1-1.8,0.1-2.7,0.6
		c-1.1,0.7-2.1,1.8-3,3.3c-1.9,3.3-2.8,8.3-2.3,11.8c-1.6,1.8-3.1,3.1-4.4,3.9c-1.2,0.7-2.2,0.9-2.9,0.7c-0.8-0.3-1.2-1.1-1.3-2.6
		c0.8-1.1,1.4-2.3,2.1-3.6c3.8-7.2,4.3-12.5,3.2-14.5C223.6,145.8,222.7,145.5,221.6,146.2z"/>
</g>
</svg>
