<?xml version="1.0" encoding="utf-8"?>
<!-- Generator: Adobe Illustrator 22.1.0, SVG Export Plug-In . SVG Version: 6.00 Build 0)  -->
<svg version="1.1" id="Слой_1" xmlns="http://www.w3.org/2000/svg" xmlns:xlink="http://www.w3.org/1999/xlink" x="0px" y="0px"
	 viewBox="0 0 412.3 337.9" style="enable-background:new 0 0 412.3 337.9;" xml:space="preserve">
<style type="text/css">
	.st0{fill:#2F58FF;}
	.st1{fill:#FFFFFF;}
	.st2{fill:none;stroke:#171A21;stroke-width:2;stroke-linecap:round;stroke-linejoin:round;stroke-miterlimit:10;}
	.st3{fill:#98A2F4;}
	.st4{fill:#EAECFD;}
</style>
<g id="_x31_">
	<path class="st0" d="M97.8,157.8c0,0.2,0,0.4,0,0.8c0,0.2,0,0.4-0.1,0.7c0,0.2-0.1,0.4-0.1,0.8c0,0.2-0.1,0.4-0.1,0.7
		c0,0.2-0.1,0.4-0.2,0.7c-0.1,0.2-0.1,0.5-0.2,0.7s-0.1,0.4-0.2,0.7c-0.1,0.2-0.1,0.4-0.2,0.7c-0.1,0.2-0.2,0.5-0.3,0.8
		c-0.1,0.2-0.2,0.5-0.3,0.6c-0.1,0.2-0.2,0.4-0.3,0.8c-0.1,0.2-0.2,0.4-0.3,0.6c-0.2,0.3-0.3,0.6-0.6,0.9c-0.1,0.2-0.2,0.3-0.3,0.6
		c-0.2,0.3-0.4,0.7-0.7,0.9c-0.1,0.1-0.2,0.3-0.3,0.4c0,0.1-0.1,0.1-0.1,0.2c-0.2,0.3-0.6,0.7-0.8,0.9c-0.1,0.1-0.1,0.2-0.2,0.2
		c-0.3,0.3-0.7,0.7-1,1c-0.1,0.1-0.1,0.1-0.2,0.2c-0.2,0.2-0.6,0.6-0.8,0.8c-0.2,0.2-0.4,0.4-0.7,0.6c-0.2,0.2-0.4,0.3-0.7,0.6
		s-0.6,0.4-0.8,0.6c-0.2,0.2-0.4,0.3-0.7,0.6c-0.2,0.2-0.6,0.3-0.8,0.6c-0.2,0.2-0.6,0.3-0.8,0.6c-0.3,0.2-0.6,0.3-0.9,0.6
		c-0.3,0.2-0.8,0.4-1.1,0.7c-0.8,0.4-1.4,0.8-2.2,1.2c-0.2,0.1-0.4,0.2-0.7,0.3c-0.6,0.3-1.2,0.6-1.8,0.9c-0.2,0.1-0.4,0.2-0.6,0.2
		c-0.8,0.3-1.6,0.7-2.4,1c-0.1,0-0.3,0.1-0.4,0.1c-0.7,0.2-1.4,0.6-2.1,0.8c-0.3,0.1-0.6,0.2-0.9,0.3c-0.4,0.1-0.8,0.2-1.2,0.3
		c-0.3,0.1-0.7,0.2-1,0.3c-0.4,0.1-0.8,0.2-1.2,0.3c-0.3,0.1-0.7,0.2-1,0.2c-0.4,0.1-0.8,0.2-1.2,0.3c-0.3,0.1-0.7,0.1-1,0.2
		c-0.4,0.1-0.9,0.2-1.2,0.2c-0.3,0.1-0.7,0.1-1,0.2c-0.9,0.1-1.8,0.3-2.8,0.4c-0.1,0-0.2,0-0.4,0c-0.8,0.1-1.6,0.2-2.4,0.3
		c-0.3,0-0.7,0.1-0.9,0.1c-0.6,0-1,0.1-1.6,0.1c-0.3,0-0.7,0-1,0.1c-0.6,0-1.1,0.1-1.7,0.1c-0.3,0-0.6,0-0.9,0c-0.4,0-0.9,0-1.4,0
		c-0.3,0-0.7,0-1,0c-0.6,0-1,0-1.6,0c-0.3,0-0.6,0-0.9,0c-0.4,0-0.9,0-1.3,0c-0.3,0-0.7,0-1,0c-0.4,0-1-0.1-1.4-0.1
		c-0.3,0-0.6,0-0.9-0.1c-0.7,0-1.2-0.1-1.9-0.2c-0.1,0-0.3,0-0.4,0c-0.8-0.1-1.6-0.2-2.3-0.3c-0.1,0-0.2,0-0.3-0.1
		c-0.7-0.1-1.3-0.2-2-0.3c-0.2,0-0.6-0.1-0.8-0.1c-0.4-0.1-1-0.2-1.4-0.3c-0.2,0-0.6-0.1-0.8-0.2c-0.6-0.1-1.1-0.2-1.7-0.3
		c-0.3-0.1-0.6-0.1-0.9-0.2c-0.4-0.1-1-0.2-1.4-0.3c-0.2-0.1-0.6-0.1-0.8-0.2c-0.8-0.2-1.6-0.4-2.3-0.7c-0.1,0-0.2-0.1-0.4-0.1
		c-0.9-0.3-1.7-0.6-2.6-0.9c-0.3-0.1-0.7-0.2-1-0.4c-0.2-0.1-0.6-0.2-0.8-0.3c-0.3-0.1-0.8-0.3-1.1-0.6c-0.2-0.1-0.4-0.2-0.8-0.3
		c-0.4-0.2-0.8-0.4-1.2-0.6c-0.2-0.1-0.4-0.2-0.6-0.3c-0.6-0.3-1.2-0.7-1.8-1C5.8,171.2,1.1,164,1.1,156.7l-0.3,119
		c0,7.2,4.8,14.5,14.2,20c0.6,0.3,1.1,0.7,1.8,1c0.2,0.1,0.4,0.2,0.6,0.3c0.4,0.2,0.8,0.4,1.2,0.6c0.2,0.1,0.4,0.2,0.8,0.3
		c0.3,0.2,0.8,0.3,1.1,0.6c0.2,0.1,0.6,0.2,0.8,0.3c0.2,0.1,0.6,0.2,0.8,0.3c0.1,0,0.1,0.1,0.2,0.1c0.9,0.3,1.7,0.7,2.6,0.9
		c0.1,0,0.2,0.1,0.4,0.1c0.8,0.2,1.6,0.4,2.3,0.7c0.1,0,0.2,0.1,0.3,0.1c0.1,0,0.3,0.1,0.4,0.1c0.4,0.1,1,0.2,1.4,0.3
		c0.3,0.1,0.6,0.1,0.9,0.2c0.6,0.1,1.1,0.2,1.7,0.3c0.2,0,0.4,0.1,0.6,0.1H33c0.4,0.1,1,0.2,1.4,0.3c0.2,0,0.6,0.1,0.8,0.1
		c0.7,0.1,1.3,0.2,2,0.3c0.1,0,0.2,0,0.3,0.1c0.8,0.1,1.6,0.2,2.3,0.3c0.2,0,0.3,0,0.6,0c0.6,0.1,1.2,0.1,1.8,0.2c0.2,0,0.6,0,0.8,0
		c0.6,0,1,0.1,1.6,0.1c0.3,0,0.7,0,1,0c0.4,0,0.9,0,1.4,0h0.1c0.2,0,0.6,0,0.8,0c0.6,0,1,0,1.6,0c0.3,0,0.7,0,1,0c0.4,0,0.9,0,1.4,0
		c0.1,0,0.2,0,0.2,0c0.2,0,0.4,0,0.7,0c0.6,0,1.1,0,1.7-0.1c0.3,0,0.7,0,1-0.1c0.6,0,1-0.1,1.6-0.1c0.2,0,0.3,0,0.6,0
		c0.1,0,0.2,0,0.3,0c0.8-0.1,1.6-0.2,2.4-0.3c0.1,0,0.2,0,0.4,0c0.9-0.1,1.8-0.2,2.8-0.4c0.1,0,0.2,0,0.2,0c0.2,0,0.4-0.1,0.7-0.1
		c0.4-0.1,0.9-0.1,1.2-0.2c0.3-0.1,0.7-0.1,1-0.2c0.4-0.1,0.8-0.2,1.2-0.3c0.3-0.1,0.7-0.2,1-0.2c0.4-0.1,0.8-0.2,1.2-0.3
		c0.3-0.1,0.7-0.2,1-0.3c0.4-0.1,0.8-0.2,1.2-0.3c0.2,0,0.3-0.1,0.6-0.1c0.1,0,0.2-0.1,0.3-0.1c0.7-0.2,1.4-0.4,2.1-0.8
		c0.1,0,0.3-0.1,0.4-0.1c0.8-0.3,1.7-0.7,2.4-1c0.2-0.1,0.4-0.2,0.7-0.2c0.6-0.2,1.2-0.6,1.8-0.9c0.2-0.1,0.4-0.2,0.7-0.3
		c0.8-0.3,1.6-0.8,2.2-1.2c0.2-0.1,0.4-0.2,0.6-0.3c0.2-0.1,0.3-0.2,0.6-0.3c0.3-0.2,0.6-0.3,0.9-0.6c0.2-0.2,0.6-0.3,0.8-0.6
		c0.2-0.2,0.6-0.3,0.8-0.6c0.2-0.2,0.4-0.3,0.7-0.5s0.6-0.5,0.8-0.6c0.2-0.2,0.4-0.3,0.7-0.6c0.2-0.2,0.4-0.4,0.7-0.6
		c0.1-0.1,0.2-0.1,0.3-0.2c0.2-0.2,0.3-0.3,0.6-0.6c0.1-0.1,0.1-0.1,0.2-0.2c0.3-0.3,0.7-0.7,1-1c0.1-0.1,0.1-0.2,0.2-0.2
		c0.2-0.3,0.6-0.7,0.8-0.9c0-0.1,0.1-0.1,0.1-0.2c0,0,0-0.1,0.1-0.1c0.1-0.1,0.1-0.2,0.2-0.3c0.2-0.3,0.4-0.7,0.7-0.9
		c0.1-0.2,0.2-0.3,0.3-0.6c0.2-0.3,0.3-0.6,0.6-0.9c0-0.1,0.1-0.1,0.1-0.2c0.1-0.1,0.1-0.2,0.2-0.3c0.1-0.2,0.2-0.4,0.3-0.8
		c0.1-0.2,0.2-0.4,0.3-0.7s0.2-0.4,0.3-0.8c0-0.1,0.1-0.2,0.1-0.3c0-0.1,0.1-0.2,0.1-0.3c0.1-0.2,0.1-0.5,0.2-0.7s0.1-0.4,0.2-0.7
		s0.1-0.4,0.2-0.7c0-0.1,0.1-0.2,0.1-0.3s0-0.2,0-0.2c0-0.2,0.1-0.4,0.1-0.8c0-0.2,0.1-0.4,0.1-0.7c0-0.2,0-0.4,0-0.8
		c0-0.1,0-0.3,0-0.4s0-0.3,0-0.4l0.3-119C97.9,157.3,97.9,157.5,97.8,157.8z"/>
	<path class="st1" d="M83.6,136.9c19,11,19,28.7,0.2,39.7c-18.8,10.9-49.5,11-68.5,0c-19-10.9-19-28.7-0.2-39.7S64.7,126,83.6,136.9
		z"/>
	<path class="st2" d="M2.7,164.2c-4.4-9.3-0.3-19.8,12.3-27.1c9.5-5.4,21.8-8.2,34.1-8.2"/>
	<path class="st3" d="M64.2,127.9c0,0.1,0,0.1,0,0.2s0,0.1,0,0.2c0,0.1,0,0.1,0,0.2c0,0.1,0,0.1,0,0.2c0,0.1,0,0.1,0,0.2
		c0,0.1,0,0.1-0.1,0.2c0,0.1,0,0.1-0.1,0.2c0,0.1,0,0.1-0.1,0.2c0,0.1-0.1,0.1-0.1,0.2c0,0.1-0.1,0.1-0.1,0.2c0,0.1-0.1,0.1-0.1,0.2
		c0,0.1-0.1,0.1-0.1,0.2c0,0.1-0.1,0.2-0.1,0.2l-0.1,0.1c-0.1,0.1-0.1,0.2-0.2,0.3L63,131c0,0,0,0,0,0.1c-0.1,0.1-0.1,0.2-0.2,0.3
		c0,0,0,0-0.1,0.1s-0.2,0.2-0.3,0.3c0,0,0,0-0.1,0.1s-0.2,0.1-0.2,0.2c-0.1,0.1-0.1,0.1-0.2,0.2c-0.1,0.1-0.1,0.1-0.2,0.2
		c-0.1,0.1-0.1,0.1-0.2,0.2c-0.1,0-0.1,0.1-0.2,0.1c-0.1,0.1-0.2,0.1-0.2,0.2c-0.1,0-0.1,0.1-0.2,0.1c-0.1,0.1-0.2,0.1-0.2,0.2
		c-0.1,0.1-0.2,0.1-0.3,0.2c-0.2,0.1-0.4,0.2-0.7,0.3c-0.1,0-0.1,0.1-0.2,0.1c-0.2,0.1-0.3,0.2-0.6,0.2c-0.1,0-0.1,0.1-0.2,0.1
		c-0.2,0.1-0.4,0.2-0.8,0.3h-0.1c-0.2,0.1-0.4,0.1-0.7,0.2c-0.1,0-0.2,0.1-0.2,0.1c-0.1,0-0.2,0.1-0.3,0.1s-0.2,0.1-0.3,0.1
		s-0.2,0.1-0.3,0.1s-0.2,0-0.3,0.1c-0.1,0-0.2,0.1-0.3,0.1s-0.2,0-0.3,0.1c-0.1,0-0.2,0-0.4,0.1c-0.1,0-0.2,0-0.3,0.1
		c-0.3,0-0.6,0.1-0.9,0.1h-0.1c-0.2,0-0.4,0.1-0.8,0.1c-0.1,0-0.2,0-0.3,0s-0.3,0-0.4,0c-0.1,0-0.2,0-0.3,0c-0.2,0-0.3,0-0.6,0
		c-0.1,0-0.2,0-0.3,0s-0.3,0-0.4,0c-0.1,0-0.2,0-0.3,0s-0.3,0-0.4,0c-0.1,0-0.2,0-0.2,0c-0.1,0-0.3,0-0.4,0c-0.1,0-0.2,0-0.3,0
		s-0.3,0-0.4,0c-0.1,0-0.2,0-0.2,0c-0.2,0-0.3,0-0.6,0h-0.1c-0.2,0-0.4-0.1-0.7-0.1h-0.1c-0.2,0-0.4-0.1-0.6-0.1c-0.1,0-0.2,0-0.2,0
		c-0.1,0-0.3-0.1-0.4-0.1c-0.1,0-0.1,0-0.2,0c-0.2,0-0.3-0.1-0.6-0.1c-0.1,0-0.2,0-0.2-0.1c-0.1,0-0.3-0.1-0.4-0.1s-0.2,0-0.2-0.1
		c-0.2-0.1-0.4-0.1-0.7-0.2H42c-0.2-0.1-0.6-0.2-0.8-0.3c-0.1,0-0.2-0.1-0.3-0.1s-0.1-0.1-0.2-0.1c-0.1,0-0.2-0.1-0.3-0.1
		s-0.1-0.1-0.2-0.1c-0.1-0.1-0.2-0.1-0.3-0.2c-0.1,0-0.1-0.1-0.2-0.1c-0.2-0.1-0.3-0.2-0.6-0.3c-2.9-1.7-4.4-3.9-4.4-6.1l-0.1,22.6
		c0,2.2,1.4,4.4,4.4,6.1c0.2,0.1,0.3,0.2,0.6,0.3c0.1,0,0.1,0.1,0.2,0.1c0.1,0.1,0.2,0.1,0.3,0.2c0.1,0,0.1,0.1,0.2,0.1
		c0.1,0,0.2,0.1,0.3,0.1s0.1,0.1,0.2,0.1c0.1,0,0.1,0.1,0.2,0.1c0,0,0,0,0.1,0c0.2,0.1,0.6,0.2,0.8,0.3H42c0.2,0.1,0.4,0.1,0.7,0.2
		h0.1h0.1c0.1,0,0.3,0.1,0.4,0.1c0.1,0,0.2,0,0.2,0.1c0.1,0,0.3,0.1,0.6,0.1c0.1,0,0.1,0,0.2,0s0.3,0.1,0.4,0.1c0.1,0,0.2,0,0.2,0
		c0.2,0,0.4,0.1,0.6,0.1h0.1c0.2,0,0.4,0.1,0.7,0.1h0.1c0.2,0,0.3,0,0.6,0c0.1,0,0.1,0,0.2,0c0.1,0,0.3,0,0.4,0c0.1,0,0.2,0,0.3,0
		s0.3,0,0.4,0s0.1,0,0.2,0c0.1,0,0.3,0,0.4,0c0.1,0,0.2,0,0.3,0s0.3,0,0.4,0c0,0,0,0,0.1,0s0.1,0,0.2,0c0.2,0,0.3,0,0.6,0
		c0.1,0,0.2,0,0.3,0s0.3,0,0.4,0c0.1,0,0.1,0,0.2,0h0.1c0.2,0,0.4,0,0.8-0.1h0.1c0.3,0,0.6-0.1,0.9-0.1c0,0,0,0,0.1,0s0.1,0,0.2,0
		c0.1,0,0.2,0,0.4-0.1c0.1,0,0.2,0,0.3-0.1c0.1,0,0.2-0.1,0.3-0.1s0.2,0,0.3-0.1c0.1,0,0.2-0.1,0.3-0.1s0.2-0.1,0.3-0.1
		s0.2-0.1,0.3-0.1h0.1H56c0.2-0.1,0.4-0.1,0.7-0.2h0.1c0.2-0.1,0.4-0.2,0.8-0.3c0.1,0,0.1-0.1,0.2-0.1c0.2-0.1,0.3-0.2,0.6-0.2
		c0.1,0,0.1-0.1,0.2-0.1c0.2-0.1,0.4-0.2,0.7-0.3c0.1,0,0.1-0.1,0.2-0.1c0.1,0,0.1-0.1,0.1-0.1c0.1-0.1,0.2-0.1,0.2-0.2
		c0.1,0,0.1-0.1,0.2-0.1c0.1-0.1,0.2-0.1,0.2-0.2c0.1,0,0.1-0.1,0.2-0.1c0.1-0.1,0.1-0.1,0.2-0.2c0.1-0.1,0.1-0.1,0.2-0.2
		c0.1-0.1,0.1-0.1,0.2-0.2c0,0,0.1,0,0.1-0.1c0.1,0,0.1-0.1,0.1-0.1s0,0,0.1-0.1s0.2-0.2,0.3-0.3c0,0,0,0,0.1-0.1s0.1-0.2,0.2-0.3
		c0,0,0,0,0-0.1c0,0,0-0.1,0.1-0.1c0.1-0.1,0.1-0.2,0.2-0.3l0.1-0.1c0.1-0.1,0.1-0.2,0.1-0.2s0,0,0-0.1c0,0,0-0.1,0.1-0.1
		c0-0.1,0.1-0.1,0.1-0.2c0-0.1,0.1-0.1,0.1-0.2c0-0.1,0.1-0.1,0.1-0.2v-0.1V152c0-0.1,0-0.1,0.1-0.2c0-0.1,0-0.1,0.1-0.2
		c0-0.1,0-0.1,0-0.2v-0.1c0,0,0,0,0-0.1s0-0.1,0-0.2c0-0.1,0-0.1,0-0.2c0-0.1,0-0.1,0-0.2v-0.1v-0.1l0.1-22.6
		C64.2,127.8,64.2,127.9,64.2,127.9z"/>
	<path class="st4" d="M59.9,121.6c5.9,3.3,5.9,8.8,0.1,12.2c-5.8,3.3-15.2,3.3-21.1,0c-1.9-1.1-3.1-2.3-3.8-3.8
		c-1.4-2.9-0.2-6.2,3.8-8.4c3.3-2,8-2.8,12.5-2.5C54.3,119.4,57.4,120.1,59.9,121.6z"/>
	<path class="st1" d="M46.8,214.9c11.9-0.3,24-2.3,35.1-6.8c9.9-3.9,19.8-9.8,25.7-18.8c2.8-4.1,4.4-9,4.4-14l0.2,61.8
		c-0.1,10.1-6.7,18.5-14.5,24.2c-9.8,7.3-21.9,11.3-33.8,13.6c-5.6,1-11.2,1.6-16.9,1.8c-1.9,0-3.3-1.4-3.3-3.3l-0.1-55.3
		C43.5,216.4,45,215,46.8,214.9z"/>
	<path class="st2" d="M112.2,213v24.2c-0.1,10.1-6.7,18.5-14.5,24.2c-0.8,0.6-1.7,1.2-2.4,1.8"/>
	<path class="st0" d="M95,233.5c0-0.2,0.1-0.6,0.2-0.8c0.2-0.7,0.6-1.1,1-1.3h0.1C96,231.9,95.6,232.7,95,233.5z M87.5,237.8
		c0-1.2,0.3-2.8,0.9-3.7c0.1-0.2,0.2-0.4,0.4-0.6c0.1,0,0.1-0.1,0.2-0.1C89.1,234.7,88.4,236.3,87.5,237.8z M81,237.8
		c0.2-1.2,0.6-2.7,1.1-4.3c0.1-0.2,0.1-0.4,0.2-0.6C82.3,233.5,82.3,235.1,81,237.8z M82.3,230.6C82.3,230.6,82.3,230.7,82.3,230.6
		c-0.6,0.3-1.3,1.1-1.9,3c-1,3.4-1.4,5.9-1.4,7.6c-1.1,1.6-2.4,3-3.9,4.1c-0.8,0.7-1.7,1.2-2.4,1.7c-1.3,0.8-2.7,1.2-3.9,1.3
		c-0.1,0-0.2,0-0.3,0.1c-0.3,0.2-0.7,0.7-0.8,1.1c-0.2,0.7,0,1.1,0.4,1.1c1.4-0.1,3-0.7,4.6-1.7c0.4-0.2,0.9-0.5,1.3-0.9
		c1.8-1.2,3.7-3,5.2-4.9c0.2,0.9,0.8,1.3,1.2,1.6c0.8,0.3,1.8,0.1,2.8-0.6c1-0.6,2.1-1.6,3.1-2.6l0.1,0.1c0.6,0.6,1.4,0.3,2.6-0.2
		c1.4-0.9,3-2.3,3.7-3c0.4-0.4,0.9-0.9,1.3-1.4c0.2,0.1,0.3,0.2,0.6,0.2c0.3,0,0.8,0,1.3-0.3c1.3-0.8,3.1-2.9,5.4-7.8
		c0.2-0.6,0.6-1.1,0.9-1.8s0.2-1.2-0.2-1.3c-0.1,0-0.3,0-0.6,0.1c-0.1,0.1-0.2,0.2-0.4,0.3c-0.1,0.1-0.2,0.3-0.3,0.6
		c-2.4,5.3-4.1,7.3-4.9,7.9l-0.1,0.1c1.6-2,2.7-4.1,2.6-5.7c0-0.3-0.2-0.6-0.6-0.6c-0.6,0.1-1,0.2-1.6,0.4c-1.2,0.8-2.1,2.1-2.6,3.3
		c-0.3,1-0.4,2.1-0.3,3c-0.3,0.4-0.8,0.9-1.2,1.3c-1.3,1.3-2.3,2.1-3.1,2.6c-0.6,0.3-0.9,0.4-1,0.3c2.3-3.1,3.3-6.2,2.9-8.2
		c-0.1-0.2-0.2-0.3-0.3-0.4c-0.6-0.1-1,0-1.6,0.3c-0.7,0.3-1.2,1-1.8,1.9c-1,1.9-1.6,4.8-1.3,6.7c-0.9,1-1.8,1.8-2.6,2.2
		c-0.7,0.3-1.2,0.6-1.7,0.3c-0.4-0.2-0.7-0.7-0.8-1.4c0.4-0.7,0.8-1.3,1.2-2c2.1-4.1,2.4-7,1.9-8.2
		C83.5,230.3,82.9,230.2,82.3,230.6z"/>
	<path class="st3" d="M101.4,229.2c-2.4,4.9-4.2,7-5.4,7.8c-0.6,0.3-1,0.3-1.3,0.3c-0.2,0-0.4-0.1-0.6-0.2c-0.4,0.4-0.9,1-1.3,1.4
		c-0.7,0.7-2.2,2.1-3.7,3c-1,0.6-2,0.9-2.6,0.2l-0.1-0.1c-1,1.1-2.1,2-3.1,2.6s-2,0.9-2.8,0.6c-0.4-0.2-1-0.7-1.2-1.6
		c-1.6,1.9-3.3,3.6-5.2,4.9l-0.3,0.8c-1.2,3.5,0.4,5.8,3.1,4.3l3.7-2c1.2-0.7,2.3-0.6,3,0.2l2,2.4c0.7,0.9,1.9,0.9,3.1,0.2
		s2.3-2,3.1-3.7l1.9-4.7c0.7-1.6,1.8-2.9,2.9-3.7l3.7-2.2c2.7-1.7,4.3-5.9,3-7.9L101.4,229.2C101.4,229.3,101.4,229.3,101.4,229.2z
		 M96.1,231.3c-0.4,0.2-0.8,0.7-1,1.3c-0.1,0.2-0.1,0.6-0.2,0.8C95.6,232.7,96,231.9,96.1,231.3z M88.8,233.6
		c-0.2,0.1-0.3,0.3-0.4,0.6c-0.6,1-0.8,2.4-0.9,3.7c0.9-1.4,1.7-3.1,1.6-4.3C88.9,233.5,88.9,233.5,88.8,233.6z M82.2,232.9
		c-0.1,0.1-0.1,0.3-0.2,0.6c-0.4,1.7-0.9,3.1-1.1,4.3C82.3,235.1,82.3,233.5,82.2,232.9z M88.4,215.4c-1.2,0.7-2.3,2-3.1,3.7
		l-1.9,4.7c-0.7,1.6-1.8,2.9-2.9,3.7l-3.7,2.2c-2.7,1.7-4.3,5.9-3,7.9l1.8,2.7c0.6,0.9,0.6,2.3,0,3.9l-0.3,1
		c1.4-1.1,2.8-2.6,3.9-4.1c0-1.7,0.4-4.1,1.4-7.6c0.6-2,1.4-2.8,1.9-3c0.7-0.3,1.1-0.2,1.4,0.3c0.7,1.1,0.3,4.1-1.9,8.2
		c-0.3,0.7-0.8,1.3-1.2,2c0.1,0.8,0.3,1.2,0.8,1.4c0.4,0.1,1,0,1.7-0.3c0.8-0.4,1.7-1.2,2.6-2.2c-0.2-2,0.2-4.8,1.3-6.7
		c0.6-0.9,1.1-1.6,1.8-1.9c0.4-0.3,1-0.4,1.6-0.3c0.2,0,0.3,0.2,0.3,0.4c0.6,2-0.6,5.1-2.9,8.2c0.1,0.1,0.4,0,1-0.3
		c0.8-0.4,1.8-1.2,3.1-2.6c0.4-0.4,0.9-0.9,1.2-1.3c-0.1-0.9,0-2,0.3-3c0.4-1.2,1.3-2.7,2.6-3.3c0.4-0.2,1-0.4,1.6-0.4
		c0.3,0,0.6,0.2,0.6,0.6c0.1,1.6-1,3.7-2.6,5.7c0,0,0.1,0,0.1-0.1c0.8-0.4,2.4-2.4,4.9-7.9c0.1-0.2,0.2-0.3,0.3-0.6
		c0.1-0.3,0.2-0.8,0.3-1.2l1.7-4.7c1.2-3.4-0.4-5.8-3.1-4.3l-3.7,2c-1.2,0.7-2.3,0.6-3-0.2l-2-2.4C90.7,214.8,89.6,214.8,88.4,215.4
		z"/>
</g>
</svg>
