<?xml version="1.0" encoding="utf-8"?>
<!-- Generator: Adobe Illustrator 22.1.0, SVG Export Plug-In . SVG Version: 6.00 Build 0)  -->
<svg version="1.1" id="Слой_1" xmlns="http://www.w3.org/2000/svg" xmlns:xlink="http://www.w3.org/1999/xlink" x="0px" y="0px"
	 viewBox="0 0 412.3 337.9" style="enable-background:new 0 0 412.3 337.9;" xml:space="preserve">
<style type="text/css">
	.st0{fill:#EAECFD;}
	.st1{fill:#FFFFFF;}
	.st2{fill:none;stroke:#171A21;stroke-width:2;stroke-linecap:round;stroke-linejoin:round;stroke-miterlimit:10;}
	.st3{fill:#98A2F4;}
	.st4{fill:#2F58FF;}
	
		.st5{fill:none;stroke:#171A21;stroke-width:2;stroke-linecap:round;stroke-linejoin:round;stroke-miterlimit:10;stroke-dasharray:12,12;}
</style>
<path class="st0" d="M279.7,230.6l35.7,20.8c1.8,1,3.9,1,5.6,0l65.3-37.3c0.9-0.6,0.9-1.9,0-2.5l-35.7-20.8c-1.8-1-3.9-1-5.6,0
	l-65.3,37.3C278.8,228.7,278.8,230,279.7,230.6z"/>
<path class="st1" d="M380.7,151.1c0.3-0.2,0.7-0.4,0.9-0.7c0.1-0.1,0.3-0.2,0.4-0.3c0.4-0.3,0.9-0.6,1.3-0.9
	c0.4-0.2,0.9-0.4,1.3-0.8c0.1-0.1,0.2-0.1,0.3-0.2c0.4-0.2,0.8-0.4,1.2-0.6c0,0,0.1,0,0.1-0.1c0.4-0.2,0.9-0.3,1.3-0.6
	c0.1,0,0.2-0.1,0.2-0.1c0.4-0.1,0.9-0.3,1.2-0.4h0.1c0.4-0.1,0.8-0.2,1.2-0.3c0.1,0,0.1,0,0.2,0c0.3-0.1,0.7-0.1,0.9-0.2
	c0.1,0,0.3-0.1,0.4-0.1c0.4-0.1,0.9-0.2,1.3-0.2c0.4-0.1,0.8-0.1,1.1-0.1c0.1,0,0.2,0,0.3,0c0.2,0,0.6,0,0.8,0c0.1,0,0.2,0,0.3,0
	c0.3,0,0.6,0,0.9,0c0.1,0,0.2,0,0.3,0c0.3,0,0.7,0,1.1,0.1c0.1,0,0.1,0,0.2,0c0.3,0,0.6,0.1,0.9,0.1c0.1,0,0.2,0,0.3,0.1
	c0.3,0.1,0.7,0.1,1,0.2c0,0,0,0,0.1,0c0.3,0.1,0.7,0.2,1,0.3c0.1,0,0.2,0.1,0.2,0.1c0.2,0.1,0.6,0.2,0.8,0.3c0.1,0,0.1,0.1,0.2,0.1
	c0.3,0.1,0.7,0.3,1,0.6l-31-18l-0.1-0.1c-0.2-0.1-0.6-0.3-0.8-0.4c-0.1,0-0.1-0.1-0.2-0.1c-0.1-0.1-0.3-0.1-0.4-0.2
	c-0.1,0-0.2-0.1-0.3-0.1c-0.1,0-0.2-0.1-0.2-0.1c-0.3-0.1-0.7-0.2-1-0.3c0,0,0,0-0.1,0c-0.3-0.1-0.7-0.1-1-0.2c-0.1,0-0.2,0-0.3-0.1
	c-0.1,0-0.2,0-0.3-0.1c-0.2,0-0.3,0-0.6-0.1c-0.1,0-0.1,0-0.2,0c-0.3,0-0.7-0.1-1-0.1h-0.1c-0.1,0-0.2,0-0.3,0c-0.3,0-0.6,0-0.9,0
	c-0.1,0-0.2,0-0.3,0c-0.1,0-0.2,0-0.3,0c-0.2,0-0.3,0-0.6,0c-0.1,0-0.2,0-0.3,0c-0.3,0-0.8,0.1-1.1,0.1c-0.4,0.1-0.9,0.1-1.3,0.2
	c-0.1,0-0.3,0.1-0.4,0.1c-0.2,0.1-0.6,0.1-0.8,0.2h-0.1c-0.1,0-0.1,0-0.2,0.1c-0.3,0.1-0.8,0.2-1.2,0.3H358
	c-0.4,0.1-0.8,0.3-1.2,0.4c-0.1,0-0.2,0.1-0.2,0.1c-0.1,0-0.2,0.1-0.2,0.1c-0.3,0.1-0.7,0.3-1,0.4c0,0-0.1,0-0.1,0.1
	c-0.3,0.2-0.8,0.3-1.2,0.5c-0.1,0.1-0.2,0.1-0.3,0.2c-0.4,0.2-0.9,0.4-1.3,0.8c-0.4,0.2-0.9,0.6-1.3,0.9c-0.1,0.1-0.3,0.2-0.4,0.3
	c-0.3,0.2-0.7,0.4-0.9,0.7c-0.2,0.1-0.3,0.2-0.6,0.3c-0.3,0.2-0.6,0.4-0.9,0.7c-0.2,0.1-0.3,0.2-0.6,0.3c-0.3,0.2-0.6,0.4-0.9,0.7
	c-0.1,0.1-0.3,0.2-0.4,0.3c-0.3,0.2-0.7,0.6-1,0.8c-0.1,0.1-0.2,0.2-0.3,0.3c-0.4,0.3-0.9,0.8-1.2,1.1c-0.1,0.1-0.2,0.1-0.2,0.2
	c-0.3,0.2-0.6,0.6-0.9,0.8l-0.1,0.1c-0.4,0.4-1,1-1.4,1.6c0,0,0,0-0.1,0.1c-0.4,0.4-0.9,1-1.3,1.4l-0.1,0.1
	c-0.2,0.2-0.3,0.4-0.6,0.6c-0.2,0.2-0.3,0.4-0.6,0.7c-0.2,0.2-0.4,0.6-0.7,0.8c-0.2,0.2-0.3,0.4-0.6,0.7l-0.1,0.1
	c-0.3,0.4-0.7,0.9-1,1.3c0,0,0,0,0,0.1c-0.3,0.4-0.6,0.8-0.9,1.2c0,0,0,0.1-0.1,0.1c-0.4,0.7-1,1.4-1.4,2.2c0,0.1-0.1,0.1-0.1,0.2
	c-0.1,0.1-0.1,0.2-0.2,0.3c-0.3,0.6-0.8,1.2-1.1,1.8c-0.1,0.1-0.1,0.2-0.2,0.3c0,0,0,0.1-0.1,0.1c-0.4,0.7-0.8,1.4-1.2,2.1
	c0,0.1-0.1,0.1-0.1,0.2c-0.1,0.1-0.1,0.2-0.2,0.3c-0.3,0.6-0.6,1.1-0.9,1.8c-0.1,0.1-0.1,0.2-0.2,0.3c0,0.1-0.1,0.1-0.1,0.2
	c-0.3,0.8-0.7,1.4-1,2.2c0,0,0,0,0,0.1c-0.2,0.4-0.4,1-0.7,1.4c0,0.1-0.1,0.2-0.1,0.4c-0.1,0.2-0.2,0.4-0.3,0.7
	c-0.1,0.2-0.1,0.3-0.2,0.6c-0.1,0.2-0.1,0.3-0.2,0.6c-0.1,0.4-0.3,0.9-0.4,1.3c0,0.1-0.1,0.2-0.1,0.2s0,0,0,0.1
	c-0.2,0.6-0.3,1-0.6,1.6c0,0.1-0.1,0.3-0.1,0.4c-0.1,0.3-0.2,0.6-0.2,0.9c0,0.1,0,0.2-0.1,0.3c-0.1,0.2-0.1,0.4-0.2,0.8
	c-0.1,0.3-0.2,0.7-0.2,1c-0.1,0.2-0.1,0.6-0.2,0.8c0,0.2-0.1,0.3-0.1,0.6c0,0.1,0,0.2-0.1,0.3c-0.1,0.3-0.1,0.8-0.2,1.1
	c0,0.2-0.1,0.6-0.1,0.8c-0.1,0.3-0.1,0.8-0.2,1.1c0,0.2-0.1,0.3-0.1,0.5c0,0.1,0,0.1,0,0.2c0,0.2,0,0.3-0.1,0.6
	c0,0.3-0.1,0.8-0.1,1.1c0,0.2,0,0.3,0,0.6s0,0.8-0.1,1.1c0,0.2,0,0.3,0,0.6c0,0.6,0,1,0,1.6c0,9,3.2,15.5,8.3,18.5l31,18
	c-5.1-3-8.3-9.3-8.3-18.5c0-0.6,0-1,0-1.6c0-0.1,0-0.3,0-0.6s0-0.8,0.1-1.1c0-0.2,0-0.3,0-0.6s0.1-0.8,0.1-1.1v-0.1l16.2,9.4h0.1
	h0.1c0.2,0.1,0.4,0.2,0.7,0.3c0,0,0.1,0,0.1,0.1h0.1c0.2,0.1,0.6,0.2,0.8,0.2c0.3,0.1,0.6,0.1,0.9,0.2h0.1h0.1
	c0.2,0,0.6,0.1,0.8,0.1h0.1c0,0,0,0,0.1,0s0.1,0,0.2,0c0.2,0,0.3,0,0.6,0c0.1,0,0.1,0,0.2,0s0.1,0,0.2,0s0.2,0,0.3,0
	c0.1,0,0.1,0,0.2,0c0.2,0,0.4,0,0.7-0.1c0.2,0,0.6-0.1,0.8-0.1c0.1,0,0.2,0,0.2-0.1c0.1,0,0.3-0.1,0.4-0.1c0.3-0.1,0.7-0.2,0.9-0.3
	c0.1,0,0.1,0,0.2-0.1c0.2-0.1,0.6-0.2,0.8-0.3h0.1c0.1,0,0.1-0.1,0.2-0.1c0.2-0.1,0.6-0.2,0.8-0.3c0.1,0,0.2-0.1,0.3-0.1
	c0.3-0.2,0.8-0.3,1.1-0.6c0.2-0.1,0.6-0.3,0.8-0.6c0.1,0,0.2-0.1,0.2-0.2c0.2-0.1,0.3-0.2,0.6-0.3c0.1-0.1,0.2-0.1,0.3-0.2
	c0.2-0.1,0.3-0.2,0.6-0.3c0.1-0.1,0.2-0.1,0.3-0.2c0.2-0.1,0.3-0.2,0.6-0.4c0.1-0.1,0.2-0.1,0.3-0.2c0.2-0.1,0.3-0.3,0.6-0.4
	c0.1-0.1,0.1-0.1,0.2-0.2c0.2-0.2,0.6-0.4,0.8-0.7l0.1-0.1c0.1-0.1,0.3-0.3,0.4-0.4c0,0,0,0,0.1-0.1c0.3-0.3,0.6-0.5,0.9-0.9
	c0.2-0.3,0.6-0.6,0.8-0.9c0,0,0,0,0.1-0.1l0.1-0.1c0.4-0.6,0.9-1,1.2-1.6l0.1-0.1c0.3-0.4,0.7-0.9,1-1.3l0.1-0.1c0,0,0,0,0-0.1
	c0.3-0.4,0.6-0.9,0.9-1.3l0.1-0.1c0-0.1,0.1-0.1,0.1-0.2c0.2-0.3,0.4-0.8,0.7-1.1c0-0.1,0.1-0.1,0.1-0.2c0,0,0,0,0-0.1
	c0.2-0.4,0.4-0.9,0.7-1.3c0,0,0-0.1,0.1-0.1c0-0.1,0.1-0.1,0.1-0.2c0.2-0.3,0.3-0.7,0.6-1c0-0.1,0.1-0.1,0.1-0.2c0,0,0-0.1,0.1-0.1
	c0.2-0.4,0.4-0.9,0.6-1.3c0,0,0-0.1,0.1-0.1c0.2-0.4,0.3-0.8,0.4-1.2c0-0.1,0-0.1,0.1-0.2c0,0,0-0.1,0.1-0.1c0.2-0.4,0.3-1,0.6-1.4
	V182c0.1-0.4,0.3-1,0.4-1.4c0-0.1,0-0.1,0.1-0.2c0-0.1,0-0.1,0-0.2c0-0.1,0.1-0.3,0.1-0.5s0.1-0.4,0.1-0.5s0.1-0.3,0.1-0.5
	c0-0.1,0-0.2,0.1-0.3c0-0.1,0-0.1,0-0.2c0-0.2,0.1-0.5,0.1-0.7c0-0.1,0.1-0.3,0.1-0.4c0-0.2,0.1-0.4,0.1-0.7c0-0.1,0-0.2,0-0.3V176
	c0-0.1,0-0.2,0-0.3c0-0.2,0-0.4,0.1-0.7c0-0.1,0-0.2,0-0.3c0-0.2,0-0.4,0-0.7c0-0.1,0-0.2,0-0.3c0-0.3,0-0.7,0-1c0-5.4-1.9-9.2-5-11
	l-16.2-9.4c0.2-0.2,0.4-0.3,0.7-0.5C380.4,151.3,380.6,151.2,380.7,151.1z M368,163.8c-0.1,0.4-0.3,1-0.6,1.4c0,0.1-0.1,0.2-0.1,0.3
	c-0.1,0.4-0.3,0.8-0.4,1.2c0,0.1,0,0.1-0.1,0.2c-0.2,0.4-0.4,0.9-0.6,1.3c0,0.1-0.1,0.2-0.2,0.3c-0.2,0.3-0.3,0.7-0.6,1
	c0,0.1-0.1,0.2-0.1,0.3c-0.2,0.4-0.4,0.9-0.7,1.3c0,0.1-0.1,0.1-0.1,0.2c-0.2,0.3-0.4,0.8-0.7,1.1c-0.1,0.1-0.1,0.2-0.2,0.3
	c-0.3,0.4-0.6,0.9-0.9,1.3c0,0.1-0.1,0.1-0.1,0.2c-0.3,0.4-0.7,0.9-1,1.3c0,0-0.1,0.1-0.1,0.2c-0.4,0.6-0.9,1-1.2,1.6
	c-0.1,0.1-0.1,0.1-0.2,0.2c-0.2,0.3-0.6,0.6-0.8,0.9c0.1-0.3,0.2-0.6,0.3-0.9c0.3-0.8,0.7-1.4,1-2.2c0.1-0.2,0.2-0.3,0.3-0.6
	c0.3-0.6,0.6-1.1,0.9-1.8c0.1-0.2,0.2-0.3,0.2-0.6c0.3-0.7,0.8-1.4,1.2-2.1c0.1-0.1,0.1-0.2,0.2-0.4c0.3-0.7,0.8-1.2,1.1-1.8
	c0.1-0.2,0.2-0.3,0.3-0.6c0.4-0.8,1-1.4,1.4-2.2c0.3-0.4,0.7-0.9,1-1.3c0,0,0,0,0-0.1c0.3-0.3,0.6-0.8,0.9-1.1
	c-0.1,0.2-0.1,0.4-0.2,0.7C368.1,163.7,368.1,163.7,368,163.8z"/>
<path class="st2" d="M402.9,146.8c0.3,0.1,0.7,0.3,1,0.6l-31-18l-0.1-0.1c-0.2-0.1-0.6-0.3-0.8-0.4c-0.1,0-0.1-0.1-0.2-0.1
	c-0.1-0.1-0.3-0.1-0.4-0.2c-0.1,0-0.2-0.1-0.3-0.1c-0.1,0-0.2-0.1-0.2-0.1c-0.3-0.1-0.7-0.2-1-0.3c0,0,0,0-0.1,0
	c-0.3-0.1-0.7-0.1-1-0.2c-0.1,0-0.2,0-0.3-0.1c-0.1,0-0.2,0-0.3-0.1c-0.2,0-0.3,0-0.6-0.1c-0.1,0-0.1,0-0.2,0c-0.3,0-0.7-0.1-1-0.1
	h-0.1c-0.1,0-0.2,0-0.3,0c-0.3,0-0.6,0-0.9,0c-0.1,0-0.2,0-0.3,0c-0.1,0-0.2,0-0.3,0c-0.2,0-0.3,0-0.6,0c-0.1,0-0.2,0-0.3,0
	c-0.3,0-0.8,0.1-1.1,0.1c-0.4,0.1-0.9,0.1-1.3,0.2c-0.1,0-0.3,0.1-0.4,0.1c-0.2,0.1-0.6,0.1-0.8,0.2h-0.1c-0.1,0-0.1,0-0.2,0.1
	c-0.3,0.1-0.8,0.2-1.2,0.3H358c-0.4,0.1-0.8,0.3-1.2,0.4c-0.1,0-0.2,0.1-0.2,0.1c-0.1,0-0.2,0.1-0.2,0.1c-0.3,0.1-0.7,0.3-1,0.4
	c0,0-0.1,0-0.1,0.1c-0.3,0.2-0.8,0.3-1.2,0.5c-0.1,0.1-0.2,0.1-0.3,0.2c-0.4,0.2-0.9,0.4-1.3,0.8c-0.4,0.2-0.9,0.6-1.3,0.9
	c-0.1,0.1-0.3,0.2-0.4,0.3c-0.3,0.2-0.7,0.4-0.9,0.7c-0.2,0.1-0.3,0.2-0.6,0.3c-0.3,0.2-0.6,0.4-0.9,0.7c-0.2,0.1-0.3,0.2-0.6,0.3
	c-0.3,0.2-0.6,0.4-0.9,0.7c-0.1,0.1-0.3,0.2-0.4,0.3c-0.3,0.2-0.7,0.6-1,0.8c-0.1,0.1-0.2,0.2-0.3,0.3c-0.4,0.3-0.9,0.8-1.2,1.1
	c-0.1,0.1-0.2,0.1-0.2,0.2c-0.3,0.2-0.6,0.6-0.9,0.8l-0.1,0.1c-0.4,0.4-1,1-1.4,1.6c0,0,0,0-0.1,0.1c-0.4,0.4-0.9,1-1.3,1.4
	l-0.1,0.1c-0.2,0.2-0.3,0.4-0.6,0.6c-0.2,0.2-0.3,0.4-0.6,0.7c-0.2,0.2-0.4,0.6-0.7,0.8c-0.2,0.2-0.3,0.4-0.6,0.7l-0.1,0.1
	c-0.3,0.4-0.7,0.9-1,1.3c0,0,0,0,0,0.1c-0.3,0.4-0.6,0.8-0.9,1.2c0,0,0,0.1-0.1,0.1c-0.4,0.7-1,1.4-1.4,2.2c0,0.1-0.1,0.1-0.1,0.2
	c-0.1,0.1-0.1,0.2-0.2,0.3c-0.3,0.6-0.8,1.2-1.1,1.8c-0.1,0.1-0.1,0.2-0.2,0.3c0,0,0,0.1-0.1,0.1c-0.4,0.7-0.8,1.4-1.2,2.1
	c0,0.1-0.1,0.1-0.1,0.2c-0.1,0.1-0.1,0.2-0.2,0.3c-0.3,0.6-0.6,1.1-0.9,1.8c-0.1,0.1-0.1,0.2-0.2,0.3c0,0.1-0.1,0.1-0.1,0.2
	c-0.3,0.8-0.7,1.4-1,2.2c0,0,0,0,0,0.1c-0.2,0.4-0.4,1-0.7,1.4c0,0.1-0.1,0.2-0.1,0.4c-0.1,0.2-0.2,0.4-0.3,0.7
	c-0.1,0.2-0.1,0.3-0.2,0.6c-0.1,0.2-0.1,0.3-0.2,0.6c-0.1,0.4-0.3,0.9-0.4,1.3c0,0.1-0.1,0.2-0.1,0.2s0,0,0,0.1
	c-0.2,0.6-0.3,1-0.6,1.6c0,0.1-0.1,0.3-0.1,0.4c-0.1,0.3-0.2,0.6-0.2,0.9c0,0.1,0,0.2-0.1,0.3c-0.1,0.2-0.1,0.4-0.2,0.8
	c-0.1,0.3-0.2,0.7-0.2,1c-0.1,0.2-0.1,0.6-0.2,0.8c0,0.2-0.1,0.3-0.1,0.6c0,0.1,0,0.2-0.1,0.3c-0.1,0.3-0.1,0.8-0.2,1.1
	c0,0.2-0.1,0.6-0.1,0.8c-0.1,0.3-0.1,0.8-0.2,1.1c0,0.2-0.1,0.3-0.1,0.5c0,0.1,0,0.1,0,0.2c0,0.2,0,0.3-0.1,0.6
	c0,0.3-0.1,0.8-0.1,1.1c0,0.2,0,0.3,0,0.6s0,0.8-0.1,1.1c0,0.2,0,0.3,0,0.6c0,0.6,0,1,0,1.6c0,9,3.2,15.5,8.3,18.5l31,18"/>
<path class="st3" d="M383.5,149.3c15.9-9.1,28.8-1.8,28.8,16.5c0,18.2-12.8,40.5-28.6,49.6c-15.9,9.1-28.8,1.8-28.8-16.5
	C354.8,180.6,367.6,158.5,383.5,149.3z M383.6,202.1c9.6-5.5,17.2-18.8,17.1-29.7c0-10.9-7.8-15.3-17.2-9.9
	c-9.6,5.4-17.2,18.8-17.1,29.7C366.3,203.2,374.1,207.5,383.6,202.1z"/>
<path class="st4" d="M343.7,166.7c-0.7-0.6-1.4-0.7-1.9-0.2l-1.4,1.3c-0.4,0.4-1.2,0.3-1.9-0.1l-2.1-1.7c-1.6-1.2-2.8,0.1-2.4,2.3
	l0.6,3.1c0.2,1,0,1.9-0.4,2.4l-1.3,1.6c-1,1.1-0.4,3.9,1.1,5.2l2,1.8c0.7,0.6,1.2,1.6,1.4,2.6l0.7,3.1c0.2,1.1,0.9,2.1,1.6,2.7
	c0.7,0.5,1.4,0.7,1.9,0.2l1.4-1.3c0.4-0.4,1.2-0.3,1.9,0.1l2.1,1.7c1.6,1.2,2.8-0.1,2.4-2.3l-0.6-3.1c-0.2-1,0-1.9,0.4-2.5l1.3-1.6
	c1-1.1,0.4-3.9-1.1-5.2l-2-1.8c-0.7-0.6-1.2-1.6-1.4-2.6l-0.7-3.1C344.9,168.3,344.3,167.3,343.7,166.7z"/>
<path class="st4" d="M372.6,138.9c-0.8-0.4-1.9-0.7-3.1-0.6l-3.3,0.4c-1.1,0.1-2.2,0-3-0.4l-2.4-1.3c-1.8-1-4.8-0.6-5.4,0.9l-1,1.9
	c-0.3,0.7-1.1,1.1-2.2,1.3l-3.2,0.6c-2.3,0.4-3.1,2.1-1.4,3.2l2.3,1.4c0.8,0.4,1.1,1.1,0.8,1.8l-0.8,1.9c-0.2,0.7,0.1,1.3,0.9,1.8
	c0.8,0.4,1.9,0.7,3.1,0.5l3.3-0.4c1.1-0.1,2.2,0,3,0.4l2.4,1.3c1.8,1,4.8,0.6,5.4-0.9l1-1.9c0.3-0.7,1.1-1.1,2.2-1.3l3.2-0.6
	c2.3-0.4,3.1-2.1,1.4-3.2l-2.3-1.4c-0.8-0.4-1.1-1.1-0.8-1.8l0.8-1.9C373.8,140,373.3,139.4,372.6,138.9z"/>
<path class="st4" d="M334.8,217.9c-0.8-0.4-1.9-0.7-3.1-0.6l-3.3,0.4c-1.1,0.1-2.2,0-3-0.4L323,216c-1.8-1-4.8-0.6-5.4,0.9l-1,1.9
	c-0.3,0.7-1.1,1.1-2.2,1.3l-3.2,0.6c-2.3,0.4-3.1,2.1-1.4,3.2l2.3,1.5c0.8,0.4,1.1,1.1,0.8,1.8l-0.8,1.9c-0.2,0.7,0.1,1.3,0.9,1.8
	c0.8,0.4,1.9,0.7,3.1,0.6l3.3-0.4c1.1-0.1,2.2,0,3,0.4l2.4,1.3c1.8,1,4.8,0.6,5.4-0.9l1-1.9c0.3-0.7,1.1-1.1,2.2-1.3l3.2-0.6
	c2.3-0.4,3.1-2.1,1.4-3.2l-2.3-1.4c-0.8-0.5-1.1-1.1-0.8-1.8l0.8-1.9C336,219,335.5,218.3,334.8,217.9z"/>
<path class="st4" d="M161.7,303.6v-8.8l5.3-2.6l5.8,5l-2.8,5.9L161.7,303.6z"/>
<path class="st4" d="M302,282.7l-45.4-26.2c-5.3-3.1-13.9-3.1-19.1,0l-71.8,41.7c-5.2,3.1-5.2,8,0.1,11.1l45.4,26.2
	c5.3,3.1,13.9,3.1,19.1,0l71.8-41.7C307.3,290.8,307.3,285.8,302,282.7z"/>
<path class="st0" d="M302,274.3L256.6,248c-5.3-3.1-13.9-3.1-19.1,0l-71.8,41.7c-5.2,3.1-5.2,8,0.1,11.1l45.4,26.3
	c5.3,3.1,13.9,3.1,19.1,0l71.8-41.7C307.3,282.4,307.3,277.4,302,274.3z"/>
<path class="st1" d="M221.4,286.2c-0.2-0.1-0.6-0.2-0.8-0.3c0,0.1,0.1,0.3,0.2,0.4c1,1.3,2,2.6,3.1,3.6
	C223.6,287.8,222.3,286.7,221.4,286.2z M236,283.5c-0.1,0-0.2-0.1-0.2-0.1c-0.2,0-0.3,0.1-0.4,0.1c-0.3,0.2-0.3,0.3-0.3,0.6
	c0,0.9,1.2,2.1,2.7,3C237.9,285.8,237.5,284.4,236,283.5z M248.4,278.9l-0.1,0.1c-0.7,0.3-0.8,0.8-0.4,1.3c0.1,0.2,0.3,0.4,0.6,0.7
	C248.7,280.2,248.6,279.4,248.4,278.9z M248,266.8c-2.7-1.6-7.1-1.7-10-0.1l-5.3,2.9c-1.8,1-4.2,1.3-6.6,1l-7.1-1
	c-5.2-0.7-9.9,2-8.7,5l1.7,4.1c0.6,1.3-0.1,2.8-1.8,3.8l-5,3.1c-2.8,1.8-2.4,4.3,0.2,5.8c0.8,0.5,1.8,0.8,3,1l7,1.2
	c1.1,0.2,2.2,0.5,3,1c0.8,0.4,1.4,1.1,1.8,1.8l0.4,0.9c1.6-1.4,2.7-3,3.2-4.6c-2-1.2-4.2-3.1-6.2-6c-1.2-1.7-0.3-2.6,0.3-2.9
	c0.9-0.6,2.2-0.7,3.7-0.3c0.8,0.1,1.6,0.4,2.3,0.9c1.9,1.1,3.4,3,3.8,5.7c0.1,0.7,0.1,1.3,0,1.9c1.2,0.6,2.3,0.8,3.4,0.7
	c2.2-0.1,4.6-1.6,5.7-3.6c-0.4-0.2-0.9-0.4-1.3-0.7c-2.3-1.3-4.1-3.1-4.1-4.7c0-1.4,1.4-2.6,4.2-2.9c0.4-0.1,0.9,0,1.3,0.1
	c0.6,0.2,1.1,0.4,1.6,0.7c2.4,1.4,3.3,3.7,2.6,6.3c0.8,0,3.1-1.2,5.2-3.7c0.4-0.4,0.8-1,1-1.4c-0.3-0.1-0.7-0.3-0.9-0.4
	c-0.9-0.6-1.7-1.2-2-1.8c-0.9-1.5-0.2-3.5,3.9-4.5c0.7-0.1,1.3-0.1,1.9,0.2c0.1,0,0.2,0.1,0.3,0.1c1.9,1.1,2,3,1.3,5
	c1.2-0.6,2.4-2.6,0.9-7.7c0-0.2,0-0.3,0.1-0.6c-0.3-0.3-0.6-0.7-0.8-1l-2.2-4C249.5,267.9,248.8,267.4,248,266.8z M266.8,277.7
	c-0.8-0.4-1.8-0.8-3-1l-7-1.2c-0.1,0-0.1,0-0.2,0c1.3,6.3-1.6,8.2-4.4,8.6c-0.6,0.1-1,0.1-1.6,0.1c-0.3,0.6-0.8,1.1-1.1,1.6
	c-0.6,0.8-2.1,2.4-4.1,3.6c-1.4,0.9-3.2,1.4-5,1.2h-0.2c-1.6,2.3-4.6,4.4-8.6,4.7c-1.3,0.1-2.8-0.1-4.4-0.5c-0.9,2-2.7,3.9-5,5.6
	l0.3,0.7c0.3,0.7,1,1.3,1.8,1.8c2.7,1.6,7.1,1.7,10,0.1l5.3-2.9c1.8-1,4.2-1.3,6.6-1l7.1,1c5.2,0.7,9.9-2,8.7-5l-1.7-4.1
	c-0.6-1.3,0.1-2.8,1.8-3.8l5-3.1C269.8,281.8,269.5,279.3,266.8,277.7z"/>
<path class="st4" d="M224.1,289.8c-1.1-1-2.1-2.2-3.1-3.6c-0.1-0.2-0.2-0.3-0.2-0.4c0.2,0.1,0.4,0.2,0.8,0.3
	C222.3,286.7,223.6,287.8,224.1,289.8z M237.7,287.2c-1.4-0.9-2.7-2.1-2.7-3c0-0.2,0-0.4,0.3-0.5c0.1-0.1,0.2-0.1,0.4-0.1
	c0.1,0,0.2,0.1,0.2,0.1C237.5,284.4,237.9,285.8,237.7,287.2z M248.4,281c-0.2-0.2-0.4-0.4-0.6-0.7c-0.3-0.6-0.1-1,0.4-1.3l0.1-0.1
	C248.6,279.4,248.7,280.2,248.4,281z M255.7,273.3c-0.4-0.2-1-0.3-1.6-0.3c-0.7,0.1-1.2,0.3-1.4,0.7c-0.1,0.1-0.1,0.3-0.1,0.6
	c1.6,5.2,0.3,7.2-0.9,7.7c0.7-2,0.6-3.9-1.3-5c-0.1,0-0.2-0.1-0.3-0.1c-0.6-0.2-1.2-0.3-1.9-0.2c-4.1,1-4.7,2.9-3.9,4.4
	c0.3,0.7,1.1,1.3,2,1.8c0.3,0.1,0.6,0.3,0.9,0.4c-0.3,0.5-0.7,0.9-1,1.5c-2.1,2.6-4.4,3.7-5.2,3.7c0.9-2.7-0.1-5-2.6-6.3
	c-0.4-0.2-1-0.6-1.6-0.7c-0.4-0.1-0.9-0.2-1.3-0.1c-2.7,0.3-4.2,1.5-4.2,2.9s1.8,3.3,4.1,4.7c0.4,0.2,0.9,0.4,1.3,0.7
	c-1.2,2-3.4,3.5-5.7,3.6c-1.1,0-2.2-0.2-3.4-0.7c0.1-0.7,0.1-1.3,0-1.9c-0.3-2.7-2-4.6-3.8-5.7c-0.8-0.4-1.6-0.8-2.3-0.9
	c-1.4-0.3-2.8-0.1-3.7,0.3c-0.7,0.3-1.4,1.2-0.3,2.9c2.1,2.9,4.2,4.8,6.2,6c-0.6,1.6-1.7,3.1-3.2,4.6c-2.3,2.1-5.8,3.9-9.6,4.8
	c-0.9,0.2-1.3,0.8-1,1.3c0.1,0.1,0.2,0.2,0.4,0.3c0.4,0.3,1.2,0.4,1.9,0.2c3.7-0.9,7-2.3,9.6-4.2c2.3-1.7,4-3.6,5-5.6
	c1.7,0.6,3.1,0.7,4.4,0.6c4.1-0.2,7-2.3,8.6-4.7h0.2c1.9,0.2,3.6-0.3,5-1.2c2-1.2,3.6-2.9,4.1-3.6c0.4-0.4,0.8-1,1.1-1.6
	c0.6,0,1,0,1.6-0.1c2.9-0.4,5.8-2.2,4.4-8.6c-0.1-0.6-0.2-1-0.4-1.7C256.1,273.6,255.9,273.4,255.7,273.3z"/>
<path class="st4" d="M353.2,41C353.1,41,353.1,41,353.2,41c-0.2,0-0.3,0-0.4,0c0,0,0,0-0.1,0s-0.2,0-0.3,0c-0.1,0-0.2,0-0.4-0.1
	c-0.1,0-0.3-0.1-0.4-0.1s-0.3-0.1-0.4-0.2c-0.1-0.1-0.3-0.1-0.4-0.2c-0.1-0.1-0.3-0.2-0.4-0.3s-0.3-0.2-0.4-0.3s-0.2-0.2-0.4-0.3
	c-0.1-0.1-0.2-0.2-0.4-0.3c-0.1-0.1-0.2-0.3-0.3-0.4c-0.1-0.1-0.2-0.3-0.3-0.4c-0.1-0.1-0.2-0.3-0.3-0.4c-0.1-0.1-0.2-0.3-0.3-0.6
	l-0.1-0.1c-0.1-0.2-0.2-0.4-0.3-0.6c-0.1-0.2-0.2-0.4-0.2-0.5c-0.1-0.2-0.1-0.5-0.2-0.6c-0.1-0.2-0.1-0.3-0.2-0.6
	c0-0.2-0.1-0.3-0.1-0.6s-0.1-0.3-0.1-0.6c0-0.2,0-0.3-0.1-0.6c0-0.2,0-0.3,0-0.6s0-0.3,0-0.6c0-0.1,0-0.3,0.1-0.4
	c0-0.1,0.1-0.3,0.1-0.4s0.1-0.2,0.1-0.3v-0.1c0-0.1,0.1-0.2,0.1-0.2s0-0.1,0.1-0.1c0.1-0.1,0.2-0.2,0.3-0.3l0.1-0.1
	c0.1-0.1,0.2-0.2,0.4-0.3l-14.3,8.3c-0.1,0.1-0.3,0.2-0.4,0.3l-0.1,0.1c-0.1,0.1-0.2,0.2-0.3,0.3c0,0,0,0.1-0.1,0.1
	c0,0.1-0.1,0.1-0.1,0.2v0.1c0,0,0,0.1-0.1,0.1c0,0.1,0,0.1-0.1,0.2c0,0.1,0,0.1-0.1,0.2v0.1c0,0.1,0,0.1,0,0.2v0.1
	c0,0.1,0,0.1,0,0.2c0,0.1,0,0.1,0,0.2c0,0.1,0,0.1,0,0.2s0,0.1,0,0.2c0,0,0,0,0,0.1v0.1c0,0.1,0,0.1,0,0.2v0.1c0,0.1,0,0.1,0,0.2
	s0,0.2,0,0.2c0,0.1,0,0.1,0,0.2c0,0.1,0,0.2,0.1,0.2v0.1v0.1c0,0.1,0,0.2,0.1,0.2c0,0.1,0,0.1,0.1,0.2c0,0.1,0.1,0.1,0.1,0.2
	c0,0.1,0.1,0.1,0.1,0.2v0.1v0.1c0,0.1,0.1,0.1,0.1,0.2c0,0.1,0.1,0.1,0.1,0.2c0,0.1,0.1,0.2,0.1,0.2c0.1,0.1,0.1,0.2,0.2,0.3
	c0,0,0,0.1,0.1,0.1c0.1,0.2,0.2,0.3,0.3,0.6c0,0,0,0,0,0.1c0.1,0.1,0.2,0.2,0.2,0.3s0.1,0.1,0.1,0.2c0.1,0.1,0.1,0.1,0.2,0.2
	l0.1,0.1c0.1,0.1,0.1,0.1,0.2,0.2l0.1,0.1c0,0,0,0,0.1,0.1s0.1,0.1,0.2,0.2l0.1,0.1c0.1,0.1,0.1,0.1,0.2,0.2l0.1,0.1
	c0.1,0.1,0.1,0.1,0.2,0.1s0.1,0.1,0.2,0.1s0.1,0.1,0.2,0.1s0.1,0.1,0.2,0.1l0.1,0.1c0.1,0,0.1,0.1,0.2,0.1h0.1c0,0,0,0,0.1,0
	s0.1,0.1,0.2,0.1s0.1,0,0.2,0.1c0.1,0,0.1,0,0.2,0.1c0.1,0,0.1,0,0.2,0h0.1c0.1,0,0.1,0,0.2,0c0,0,0,0,0.1,0h0.1c0.1,0,0.1,0,0.2,0
	c0,0,0,0,0.1,0h0.1c0.1,0,0.1,0,0.2,0c0,0,0,0,0.1,0s0.2,0,0.3-0.1c0.1,0,0.2-0.1,0.3-0.2l14.3-8.3c-0.1,0.1-0.2,0.1-0.3,0.2
	C353.4,40.9,353.3,40.9,353.2,41z"/>
<path class="st4" d="M400,48.4c0-0.1,0-0.2,0-0.3V48c0,0,0,0,0-0.1v-0.1c0-0.1,0-0.2,0-0.3s0-0.2,0-0.3s0-0.2,0-0.3s0-0.2-0.1-0.3
	v-0.1c0,0,0,0,0-0.1v-0.1c0-0.1-0.1-0.2-0.1-0.3s0-0.1-0.1-0.2c0-0.1-0.1-0.2-0.1-0.3s-0.1-0.2-0.1-0.3s-0.1-0.1-0.1-0.2
	c0-0.1-0.1-0.2-0.1-0.3s-0.1-0.1-0.1-0.2c0,0,0,0,0-0.1s-0.1-0.2-0.1-0.3s-0.1-0.2-0.1-0.3s-0.1-0.2-0.1-0.3s-0.1-0.2-0.1-0.2
	c0-0.1-0.1-0.1-0.1-0.2c0,0,0-0.1-0.1-0.1c0-0.1-0.1-0.2-0.2-0.2c-0.1-0.1-0.1-0.2-0.2-0.4c0,0,0-0.1-0.1-0.1
	c-0.1-0.1-0.2-0.2-0.3-0.4l-0.1-0.1c-0.1-0.1-0.2-0.2-0.3-0.3c-0.1-0.1-0.1-0.1-0.2-0.2c-0.1-0.1-0.1-0.2-0.2-0.3s-0.2-0.2-0.2-0.3
	c-0.1-0.1-0.2-0.2-0.2-0.2c-0.1-0.1-0.2-0.2-0.2-0.2c-0.1-0.1-0.1-0.1-0.2-0.2c-0.1-0.1-0.2-0.2-0.3-0.2c0,0,0,0-0.1-0.1
	c0,0,0,0-0.1,0l-0.1-0.1c-0.1-0.1-0.2-0.1-0.3-0.2l-0.1-0.1c0,0,0,0-0.1,0c0,0-0.1,0-0.1-0.1c-0.1-0.1-0.2-0.1-0.2-0.2
	c-0.1-0.1-0.2-0.1-0.2-0.2l-37.8-22.2c-0.1,0-0.1-0.1-0.2-0.1s-0.2-0.1-0.2-0.1s-0.1,0-0.1-0.1c0,0,0,0-0.1,0s-0.2-0.1-0.2-0.1
	c-0.1,0-0.2-0.1-0.2-0.1c-0.1,0-0.1,0-0.2-0.1c-0.1,0-0.2,0-0.2-0.1h-0.1c0,0,0,0-0.1,0h-0.1c-0.1,0-0.2,0-0.3,0h-0.1c0,0,0,0-0.1,0
	h-0.1c-0.1,0-0.2,0-0.3,0h-0.1H354h-1c-0.1,0-0.2,0-0.3,0c0,0,0,0-0.1,0s-0.3,0.1-0.4,0.1c-0.2,0.1-0.3,0.1-0.6,0.2l-14.8,8.5
	L322.4,32l14.8-8.5c0.1-0.1,0.3-0.1,0.6-0.2c0.1-0.1,0.3-0.1,0.4-0.1c0,0,0,0,0.1,0s0.3,0,0.4,0h0.1c0.1,0,0.3,0,0.6,0
	c0,0,0,0,0.1,0c0.2,0,0.3,0,0.6,0.1c0,0,0,0,0.1,0c0.2,0,0.3,0.1,0.6,0.1c0.2,0.1,0.4,0.1,0.6,0.2s0.4,0.2,0.7,0.3l37.8,22.2
	c0.2,0.1,0.4,0.2,0.7,0.4c0,0,0,0,0.1,0c0.2,0.1,0.3,0.3,0.6,0.5c0,0,0,0,0.1,0c0.2,0.1,0.3,0.3,0.6,0.4c0.2,0.2,0.3,0.3,0.6,0.6
	c0.2,0.2,0.3,0.4,0.6,0.7c0.2,0.2,0.3,0.4,0.4,0.7l0.1,0.1c0.1,0.1,0.2,0.3,0.3,0.6c0.1,0.1,0.1,0.2,0.2,0.4
	c0.1,0.1,0.1,0.2,0.2,0.3c0,0.1,0.1,0.1,0.1,0.2c0.1,0.2,0.2,0.4,0.3,0.6c0.1,0.2,0.2,0.6,0.3,0.8c0.1,0.2,0.2,0.4,0.3,0.8
	c0.1,0.2,0.2,0.6,0.2,0.8c0.1,0.2,0.1,0.4,0.2,0.8c0,0,0,0,0,0.1c0.1,0.2,0.1,0.6,0.1,0.8s0.1,0.6,0.1,0.8c0,0,0,0,0,0.1
	c0,0.2,0,0.6,0,0.8l-0.1,29.2c0,0.2,0,0.4,0,0.7c0,0,0,0,0,0.1c0,0.2,0,0.4-0.1,0.7c0,0,0,0,0,0.1c0,0.2-0.1,0.3-0.1,0.6v0.1
	c-0.1,0.2-0.1,0.3-0.2,0.6c-0.1,0.1-0.1,0.3-0.2,0.4c0,0,0,0.1-0.1,0.1c-0.1,0.1-0.1,0.2-0.2,0.3l-0.1,0.1c-0.1,0.1-0.1,0.1-0.2,0.2
	l-0.1,0.1c-0.1,0.1-0.2,0.2-0.3,0.2l14.3-8.3c0.1-0.1,0.2-0.2,0.3-0.2l0.1-0.1c0.1-0.1,0.2-0.1,0.2-0.2l0.1-0.1
	c0.1-0.1,0.1-0.2,0.2-0.3c0,0,0-0.1,0.1-0.1c0.1-0.1,0.1-0.3,0.2-0.4s0.1-0.2,0.1-0.3v-0.1v-0.1v-0.1c0-0.1,0.1-0.2,0.1-0.3v-0.1
	c0,0,0,0,0-0.1V80c0-0.1,0-0.2,0-0.3v-0.1c0,0,0,0,0-0.1V79c0-0.1,0-0.2,0-0.3c0-0.1,0-0.2,0-0.3l0.1-29.2
	C400,48.6,400,48.5,400,48.4z"/>
<path class="st3" d="M379.2,45.7c3.6,2.1,6.4,7.1,6.4,11.2l-0.1,29.2c0,2.1-0.8,3.6-1.9,4.2c-1.2,0.7-2.8,0.6-4.6-0.4l-37.8-21.4
	c-1.8-1-3.4-2.8-4.7-4.9L322,38.3c-1.7-2.8-1.6-5.9,0-6.8l14.8-8.4c1.2-0.7,2.9-0.6,4.7,0.4L379.2,45.7z M339.7,49
	c1.9-1.1,1.9-4.6,0-7.9c-0.9-1.7-2.2-2.9-3.4-3.6c-1.2-0.7-2.4-0.9-3.4-0.3c-1.9,1.1-1.9,4.6,0,7.9c0.9,1.7,2.2,2.9,3.4,3.5
	C337.4,49.3,338.7,49.5,339.7,49z"/>
<path class="st0" d="M385.7,80.1V74c-4.3,4.2-7.1,4.3-8.6,3.6c-0.1-0.1-0.2-0.1-0.3-0.2c2.9-0.4,5-2,4.8-5.1c0-0.8-0.4-1.6-1-2.2
	c-1-1.1-2-1.8-2.8-2.3c-2.3-1.3-4-0.7-4.8,0.8c-0.7,1.1-0.9,2.9-0.7,4.8c-0.7,0-1.4-0.1-2.3-0.2c-2.4-0.4-4.4-1.2-5.8-2
	c-1-0.6-1.7-1.1-1.9-1.6c4.2-0.9,6.3-4.3,5.3-9.2c-0.1-0.6-0.3-1.1-0.7-1.6c-1-1.2-1.9-2.1-2.9-2.7c-1.2-0.7-2.2-0.8-3.2-0.2
	c-2,1.2-2.9,5.4-2.6,9.6c-1.7,0-3.2-0.6-4.7-1.3c-1.2-0.7-2.3-1.7-3.1-2.9c-0.8-1.2-1.2-2.7-1.4-4.3c0.8-0.3,1.6-0.7,2.2-1.2
	c4-3,4.7-7.8,3.4-11.2c-0.6-1.8-1.6-3.1-2.8-3.8c0,0-0.1,0-0.1-0.1c-0.9-0.4-2.4-0.9-3.6,1.6c-1.9,4.2-2.7,7.9-2.8,11
	c-3.3,0.7-7.6-0.3-11.8-2.8c-2.6-1.4-5-3.3-7.2-5.8c-0.2-0.2-0.4-0.4-0.7-0.6c-0.3-0.2-0.7-0.2-1-0.2l3.9,6.9
	c1.6,1.3,3.2,2.4,4.9,3.4c4.2,2.4,8.6,3.7,12.1,3.3c0.4,2.2,1.3,4,2.2,5.4c1.4,2.2,3.2,3.9,5.1,5s3.9,1.7,5.8,1.8l0.1,0.2
	c1,2.2,2.8,3.8,4.7,4.9c2.7,1.6,5.6,2.2,6.9,2.4c0.8,0.1,1.7,0.2,2.6,0.3c0.3,0.6,0.7,1.2,1.1,1.7c0.7,0.9,1.4,1.7,2.4,2.2
	C379.1,82.7,382,82.8,385.7,80.1z M351.7,45.3c0.1-0.3,0.2-0.4,0.3-0.7c0.2,1.3,0.1,4.1-2.3,6.5C350,49.3,350.7,47.3,351.7,45.3z
	 M363.2,59.9c0.2-0.1,0.4-0.2,0.9,0c0.1,0.1,0.3,0.2,0.4,0.3c0.1,2.4-1.2,3.9-3,4.7C361.7,62.7,362.2,60.5,363.2,59.9z M375.6,73.1
	c0.1-0.5,0.2-0.8,0.3-1.1c0.4-0.7,1-0.8,1.9-0.3l0.1,0.1C377.6,72.3,376.8,72.8,375.6,73.1z"/>
<path class="st5" d="M337.4,40.9c-9,5.2-23.7,5.2-32.7,0c-2.9-1.7-4.9-3.7-5.9-5.8c-2.2-4.6-0.3-9.6,5.8-13.1
	c5.2-3,12.5-4.3,19.2-3.8c4.9,0.3,9.7,1.7,13.5,3.8"/>
</svg>
