<?xml version="1.0" encoding="utf-8"?>
<!-- Generator: Adobe Illustrator 22.1.0, SVG Export Plug-In . SVG Version: 6.00 Build 0)  -->
<svg version="1.1" id="Слой_1" xmlns="http://www.w3.org/2000/svg" xmlns:xlink="http://www.w3.org/1999/xlink" x="0px" y="0px"
	 viewBox="0 0 412.3 337.9" style="enable-background:new 0 0 412.3 337.9;" xml:space="preserve">
<style type="text/css">
	.st0{fill:#98A2F4;}
	.st1{fill:#EAECFD;}
	.st2{fill:#FFFFFF;}
	.st3{fill:#2F58FF;}
	.st4{fill:none;stroke:#171A21;stroke-width:2;stroke-linecap:round;stroke-linejoin:round;stroke-miterlimit:10;}
	.st5{fill:none;stroke:#171A21;stroke-width:2;stroke-linecap:round;stroke-linejoin:round;}
	.st6{fill:none;stroke:#171A21;stroke-width:2;stroke-linecap:round;stroke-linejoin:round;stroke-dasharray:11.55,11.55;}
	.st7{fill:none;stroke:#171A21;stroke-width:2;stroke-linecap:round;stroke-linejoin:round;stroke-dasharray:9.56,9.56;}
	
		.st8{fill:none;stroke:#171A21;stroke-width:2;stroke-linecap:round;stroke-linejoin:round;stroke-miterlimit:10;stroke-dasharray:12,12;}
</style>
<path class="st0" d="M161.5,123.1L63.2,66.4c-2.6-1.4-5.7,0.3-5.7,3.3l-0.3,100.9c0,5.4,2.9,10.4,7.6,13.2l96.4,55.6
	c4.7,2.8,10.6,2.7,15.2,0l95.7-55.6c4.7-2.7,7.6-7.7,7.6-13.1l0.3-100.9c0-2.9-3.2-4.8-5.7-3.3l-97.5,56.7
	C172.1,125.9,166.2,125.9,161.5,123.1z"/>
<path class="st1" d="M274.4,66.4l-97.6,56.7c-4.7,2.8-10.6,2.8-15.2,0L63.2,66.4c-2.6-1.4-2.6-5.1,0-6.6l97.6-56.7
	c4.7-2.8,10.6-2.8,15.2,0l98.3,56.7C276.9,61.3,276.9,65,274.4,66.4z"/>
<path class="st2" d="M95.2,41.2l111.6,64.5L246,83L134.4,18.5L95.2,41.2z"/>
<path class="st3" d="M135.6,30.8l-2.3-1.4c-0.8-0.4-1.1-1.1-0.8-1.8l0.8-1.9c0.2-0.7-0.1-1.3-0.9-1.8c-0.8-0.4-1.9-0.7-3.1-0.6
	l-3.3,0.5c-0.2,0-0.6,0-0.8,0l-14.9,8.7c0,0.1,0,0.3-0.1,0.4l-0.8,1.9c-0.2,0.7,0.1,1.3,0.9,1.8c0.8,0.4,1.9,0.7,3.1,0.6l3.3-0.4
	c1.1-0.1,2.2,0,3,0.4l2.4,1.3c1.8,1,4.8,0.6,5.4-0.9l1-1.9c0.3-0.7,1.1-1.1,2.2-1.3l3.2-0.5C136.5,33.6,137.3,31.8,135.6,30.8z"/>
<path class="st3" d="M165.6,43.9c-0.8-0.4-1.9-0.7-3.1-0.6l-3.3,0.4c-1.1,0.1-2.2,0-3-0.4l-2.4-1.3c-1.8-1-4.8-0.6-5.4,0.9l-1,1.9
	c-0.3,0.7-1.1,1.1-2.2,1.3l-3.2,0.5c-2.3,0.5-3.1,2.1-1.4,3.2l2.3,1.4c0.8,0.4,1.1,1.1,0.8,1.8l-0.8,1.9c-0.2,0.7,0.1,1.3,0.9,1.8
	c0.8,0.4,1.9,0.7,3.1,0.6l3.3-0.4c1.1-0.1,2.2,0,3,0.4l2.4,1.3c1.8,1,4.8,0.6,5.4-0.9l1-1.9c0.3-0.7,1.1-1.1,2.2-1.3l3.2-0.6
	c2.3-0.4,3.1-2.1,1.4-3.2l-2.3-1.4c-0.8-0.4-1.1-1.1-0.8-1.8l0.8-1.9C166.9,45,166.4,44.3,165.6,43.9z"/>
<path class="st3" d="M199,63.9c-0.8-0.5-1.9-0.7-3.1-0.6l-3.3,0.4c-1.1,0.1-2.2,0-3-0.4l-2.4-1.3c-1.8-1-4.8-0.6-5.4,0.9l-1,1.9
	c-0.3,0.7-1.1,1.1-2.2,1.3l-3.2,0.6c-2.3,0.4-3.1,2.1-1.4,3.2l2.3,1.4c0.8,0.4,1.1,1.1,0.8,1.8l-0.8,1.9c-0.2,0.7,0.1,1.3,0.9,1.8
	c0.8,0.4,1.9,0.7,3.1,0.6l3.3-0.4c1.1-0.1,2.2,0,3,0.4l2.4,1.3c1.8,1,4.8,0.6,5.4-0.9l1-1.9c0.3-0.7,1.1-1.1,2.2-1.3l3.2-0.6
	c2.3-0.4,3.1-2.1,1.4-3.2l-2.3-1.4c-0.8-0.4-1.1-1.1-0.8-1.8l0.8-1.9C200.2,65,199.8,64.3,199,63.9z"/>
<path class="st3" d="M233.4,89.5c-0.8-0.4-1.1-1.1-0.8-1.8l0.8-1.9c0.2-0.7-0.1-1.3-0.9-1.8c-0.8-0.4-1.9-0.7-3.1-0.6l-3.3,0.4
	c-1.1,0.1-2.2,0-3-0.4l-2.4-1.3c-1.8-1-4.8-0.6-5.4,0.9l-1,1.9c-0.3,0.7-1.1,1.1-2.2,1.3l-3.2,0.6c-2.3,0.4-3.1,2.1-1.4,3.2l2.3,1.4
	c0.8,0.4,1.1,1.1,0.8,1.8l-0.8,1.9c-0.2,0.7,0.1,1.3,0.9,1.8c0.8,0.4,1.9,0.7,3.1,0.6l3.3-0.4c1.1-0.1,2.2,0,3,0.4l0.8,0.4l13.5-7.9
	L233.4,89.5z"/>
<path class="st4" d="M272.2,183.7c4.7-2.7,7.6-7.7,7.6-13.1l0.2-98.6c0-5.4-2.9-10.5-7.6-13.2L176.1,3c-4.7-2.8-10.6-2.7-15.2,0
	L65.1,58.6c-4.7,2.7-7.6,7.7-7.6,13.1l-0.2,98.6c0,5.5,2.9,10.5,7.6,13.2"/>
<path class="st5" d="M101,37.9l-5.8,3.3l5.8,3.3"/>
<path class="st6" d="M112.1,51l83.4,48.2"/>
<path class="st5" d="M201.1,102.3l5.8,3.3l5.8-3.3"/>
<path class="st7" d="M221.8,97l13.8-8"/>
<path class="st5" d="M240.2,86.3L246,83l-5.8-3.3"/>
<path class="st6" d="M229.1,73.2l-83.4-48.1"/>
<path class="st5" d="M140.2,21.8l-5.8-3.3l-5.8,3.3"/>
<path class="st7" d="M119.4,27.2l-13.8,8"/>
<path class="st2" d="M255,143.8c-4.2,8.8-7.5,12.5-9.7,13.8c-0.9,0.6-1.7,0.7-2.3,0.6c-0.4,0-0.8-0.2-1-0.4
	c-0.8,0.9-1.6,1.7-2.3,2.4c-1.2,1.1-4,3.8-6.6,5.2c-1.8,1-3.6,1.6-4.4,0.5l-0.1-0.1c-1.8,1.9-3.7,3.6-5.4,4.6c-1.8,1-3.6,1.4-4.9,1
	c-0.9-0.3-1.7-1.1-2.1-2.7c-2.8,3.4-5.9,6.3-9.1,8.6l-0.4,1.3c-2.2,6.1,0.8,10.2,5.4,7.7l6.4-3.4c2.1-1.1,4.1-1,5.2,0.4l3.4,4.3
	c1.2,1.6,3.3,1.6,5.4,0.3c2.1-1.2,4.1-3.6,5.4-6.6l3.4-8.3c1.1-2.7,3.1-5.1,5.2-6.4l6.5-4c4.7-2.9,7.6-10.3,5.3-13.9l-3-4.8
	C255.1,143.9,255.1,143.8,255,143.8z M246,147.5c-0.8,0.4-1.3,1.2-1.8,2.3c-0.2,0.4-0.3,1-0.3,1.4c1.1-1.6,1.9-2.9,2.2-3.9
	L246,147.5z M233,151.3c-0.3,0.2-0.6,0.6-0.8,0.9c-1,1.7-1.4,4.3-1.6,6.6c1.7-2.6,2.9-5.4,2.8-7.7
	C233.2,151.2,233.1,151.3,233,151.3z M221.5,150.3c-0.1,0.2-0.2,0.6-0.3,1c-0.9,2.9-1.4,5.6-1.9,7.7
	C221.6,154.1,221.7,151.2,221.5,150.3z M232.1,119.5c-2.1,1.2-4.1,3.6-5.4,6.6l-3.4,8.2c-1.1,2.7-3.1,5.1-5.2,6.4l-6.4,4
	c-4.7,2.9-7.6,10.3-5.3,13.9l3,4.8c1,1.6,1,4.1,0,6.9l-0.7,1.9c2.4-2,4.9-4.6,6.9-7.2c0-3,0.8-7.3,2.6-13.5c1-3.4,2.6-4.8,3.3-5.3
	c0,0,0.1,0,0.1-0.1c1.1-0.7,2.1-0.3,2.6,0.7c1.1,2,0.6,7.3-3.2,14.5c-0.7,1.2-1.3,2.4-2.1,3.6c0.2,1.3,0.7,2.2,1.3,2.6
	c0.7,0.3,1.8,0,2.9-0.7c1.3-0.8,2.9-2.1,4.4-3.9c-0.4-3.4,0.4-8.6,2.3-11.8c0.9-1.6,1.9-2.7,3-3.3c0.9-0.6,1.8-0.7,2.7-0.6
	c0.3,0,0.6,0.3,0.7,0.7c0.9,3.6-1,9.1-5,14.6c0.2,0.1,0.9,0,1.8-0.6c1.3-0.8,3.1-2.1,5.4-4.4c0.8-0.8,1.6-1.6,2.2-2.2
	c-0.2-1.6,0-3.4,0.7-5.2c0.8-2.2,2.3-4.7,4.6-6c0.8-0.4,1.7-0.8,2.7-0.9c0.6,0,0.9,0.3,1,1c0.2,2.8-1.8,6.4-4.4,10.1
	c0.1,0,0.2-0.1,0.2-0.1c1.4-0.8,4.3-4.3,8.7-13.9c0.1-0.3,0.3-0.7,0.6-0.9c0.1-0.7,0.3-1.3,0.6-2.1l3-8.3c2.2-6.1-0.8-10.2-5.4-7.7
	l-6.4,3.4c-2.1,1.1-4.1,1-5.2-0.4l-3.4-4.3C236.4,118.3,234.2,118.3,232.1,119.5z"/>
<path class="st3" d="M243.9,151.3c0.1-0.4,0.2-0.9,0.3-1.4c0.4-1.1,1-1.9,1.8-2.3l0.1-0.1C245.8,148.4,245,149.7,243.9,151.3z
	 M230.7,158.8c0.1-2.2,0.6-4.9,1.6-6.6c0.2-0.3,0.4-0.8,0.8-0.9c0.1-0.1,0.2-0.1,0.4-0.1C233.6,153.3,232.2,156.3,230.7,158.8z
	 M219.2,158.9c0.4-2.2,1-4.8,1.9-7.7c0.1-0.4,0.2-0.8,0.3-1C221.7,151.2,221.6,154.1,219.2,158.9z M221.6,146.2
	C221.6,146.2,221.5,146.2,221.6,146.2c-0.9,0.6-2.3,1.9-3.4,5.3c-1.8,6.1-2.6,10.5-2.6,13.5c-2,2.8-4.3,5.2-6.9,7.2
	c-1.4,1.2-2.9,2.2-4.3,3c-2.3,1.3-4.8,2.2-6.8,2.4c-0.2,0-0.4,0.1-0.7,0.2c-0.7,0.3-1.2,1.1-1.4,1.9c-0.3,1.1,0,2,0.9,1.9
	c2.6-0.2,5.3-1.2,8.1-2.9c0.8-0.4,1.7-1,2.4-1.6c3.2-2.2,6.3-5.2,9.1-8.6c0.4,1.6,1.3,2.3,2.1,2.7c1.3,0.6,3.1,0.1,4.9-1
	c1.8-1,3.7-2.7,5.4-4.6l0.1,0.1c0.9,1,2.7,0.5,4.4-0.5c2.6-1.4,5.3-4.1,6.6-5.2c0.8-0.8,1.6-1.6,2.3-2.4c0.3,0.2,0.7,0.3,1,0.4
	c0.7,0.1,1.4-0.1,2.3-0.6c2.2-1.3,5.4-5,9.7-13.8c0.4-1,1-2,1.4-3.1c0.6-1.1,0.3-2.1-0.3-2.3c-0.3-0.1-0.6,0-0.9,0.2
	c-0.2,0.1-0.4,0.3-0.7,0.5c-0.2,0.2-0.4,0.6-0.6,0.9c-4.3,9.6-7.2,13-8.7,13.9c-0.1,0.1-0.2,0.1-0.2,0.1c2.7-3.6,4.7-7.3,4.4-10.1
	c0-0.7-0.4-1-1-1c-1,0.1-1.9,0.4-2.7,0.9c-2.2,1.3-3.8,3.7-4.6,6c-0.7,1.8-0.9,3.7-0.7,5.2c-0.7,0.8-1.4,1.6-2.2,2.2
	c-2.3,2.2-4.2,3.7-5.4,4.4c-1,0.6-1.6,0.8-1.8,0.6c4-5.6,6-11,5-14.6c-0.1-0.4-0.3-0.7-0.7-0.7c-0.9-0.1-1.8,0.1-2.7,0.6
	c-1.1,0.7-2.1,1.8-3,3.3c-1.9,3.3-2.8,8.3-2.3,11.8c-1.6,1.8-3.1,3.1-4.4,3.9c-1.2,0.7-2.2,0.9-2.9,0.7c-0.8-0.3-1.2-1.1-1.3-2.6
	c0.8-1.1,1.4-2.3,2.1-3.6c3.8-7.2,4.3-12.5,3.2-14.5C223.6,145.8,222.7,145.5,221.6,146.2z"/>
<path class="st3" d="M97.8,157.8c0,0.2,0,0.4,0,0.8c0,0.2,0,0.4-0.1,0.7c0,0.2-0.1,0.4-0.1,0.8c0,0.2-0.1,0.4-0.1,0.7
	c0,0.2-0.1,0.4-0.2,0.7c-0.1,0.2-0.1,0.5-0.2,0.7s-0.1,0.4-0.2,0.7c-0.1,0.2-0.1,0.4-0.2,0.7c-0.1,0.2-0.2,0.5-0.3,0.8
	c-0.1,0.2-0.2,0.5-0.3,0.6c-0.1,0.2-0.2,0.4-0.3,0.8c-0.1,0.2-0.2,0.4-0.3,0.6c-0.2,0.3-0.3,0.6-0.6,0.9c-0.1,0.2-0.2,0.3-0.3,0.6
	c-0.2,0.3-0.4,0.7-0.7,0.9c-0.1,0.1-0.2,0.3-0.3,0.4c0,0.1-0.1,0.1-0.1,0.2c-0.2,0.3-0.6,0.7-0.8,0.9c-0.1,0.1-0.1,0.2-0.2,0.2
	c-0.3,0.3-0.7,0.7-1,1c-0.1,0.1-0.1,0.1-0.2,0.2c-0.2,0.2-0.6,0.6-0.8,0.8c-0.2,0.2-0.4,0.4-0.7,0.6c-0.2,0.2-0.4,0.3-0.7,0.6
	s-0.6,0.4-0.8,0.6c-0.2,0.2-0.4,0.3-0.7,0.6c-0.2,0.2-0.6,0.3-0.8,0.6c-0.2,0.2-0.6,0.3-0.8,0.6c-0.3,0.2-0.6,0.3-0.9,0.6
	c-0.3,0.2-0.8,0.4-1.1,0.7c-0.8,0.4-1.4,0.8-2.2,1.2c-0.2,0.1-0.4,0.2-0.7,0.3c-0.6,0.3-1.2,0.6-1.8,0.9c-0.2,0.1-0.4,0.2-0.6,0.2
	c-0.8,0.3-1.6,0.7-2.4,1c-0.1,0-0.3,0.1-0.4,0.1c-0.7,0.2-1.4,0.6-2.1,0.8c-0.3,0.1-0.6,0.2-0.9,0.3c-0.4,0.1-0.8,0.2-1.2,0.3
	c-0.3,0.1-0.7,0.2-1,0.3c-0.4,0.1-0.8,0.2-1.2,0.3c-0.3,0.1-0.7,0.2-1,0.2c-0.4,0.1-0.8,0.2-1.2,0.3c-0.3,0.1-0.7,0.1-1,0.2
	c-0.4,0.1-0.9,0.2-1.2,0.2c-0.3,0.1-0.7,0.1-1,0.2c-0.9,0.1-1.8,0.3-2.8,0.4c-0.1,0-0.2,0-0.4,0c-0.8,0.1-1.6,0.2-2.4,0.3
	c-0.3,0-0.7,0.1-0.9,0.1c-0.6,0-1,0.1-1.6,0.1c-0.3,0-0.7,0-1,0.1c-0.6,0-1.1,0.1-1.7,0.1c-0.3,0-0.6,0-0.9,0c-0.4,0-0.9,0-1.4,0
	c-0.3,0-0.7,0-1,0c-0.6,0-1,0-1.6,0c-0.3,0-0.6,0-0.9,0c-0.4,0-0.9,0-1.3,0c-0.3,0-0.7,0-1,0c-0.4,0-1-0.1-1.4-0.1
	c-0.3,0-0.6,0-0.9-0.1c-0.7,0-1.2-0.1-1.9-0.2c-0.1,0-0.3,0-0.4,0c-0.8-0.1-1.6-0.2-2.3-0.3c-0.1,0-0.2,0-0.3-0.1
	c-0.7-0.1-1.3-0.2-2-0.3c-0.2,0-0.6-0.1-0.8-0.1c-0.4-0.1-1-0.2-1.4-0.3c-0.2,0-0.6-0.1-0.8-0.2c-0.6-0.1-1.1-0.2-1.7-0.3
	c-0.3-0.1-0.6-0.1-0.9-0.2c-0.4-0.1-1-0.2-1.4-0.3c-0.2-0.1-0.6-0.1-0.8-0.2c-0.8-0.2-1.6-0.4-2.3-0.7c-0.1,0-0.2-0.1-0.4-0.1
	c-0.9-0.3-1.7-0.6-2.6-0.9c-0.3-0.1-0.7-0.2-1-0.4c-0.2-0.1-0.6-0.2-0.8-0.3c-0.3-0.1-0.8-0.3-1.1-0.6c-0.2-0.1-0.4-0.2-0.8-0.3
	c-0.4-0.2-0.8-0.4-1.2-0.6c-0.2-0.1-0.4-0.2-0.6-0.3c-0.6-0.3-1.2-0.7-1.8-1C5.8,171.2,1.1,164,1.1,156.7l-0.3,119
	c0,7.2,4.8,14.5,14.2,20c0.6,0.3,1.1,0.7,1.8,1c0.2,0.1,0.4,0.2,0.6,0.3c0.4,0.2,0.8,0.4,1.2,0.6c0.2,0.1,0.4,0.2,0.8,0.3
	c0.3,0.2,0.8,0.3,1.1,0.6c0.2,0.1,0.6,0.2,0.8,0.3c0.2,0.1,0.6,0.2,0.8,0.3c0.1,0,0.1,0.1,0.2,0.1c0.9,0.3,1.7,0.7,2.6,0.9
	c0.1,0,0.2,0.1,0.4,0.1c0.8,0.2,1.6,0.4,2.3,0.7c0.1,0,0.2,0.1,0.3,0.1c0.1,0,0.3,0.1,0.4,0.1c0.4,0.1,1,0.2,1.4,0.3
	c0.3,0.1,0.6,0.1,0.9,0.2c0.6,0.1,1.1,0.2,1.7,0.3c0.2,0,0.4,0.1,0.6,0.1H33c0.4,0.1,1,0.2,1.4,0.3c0.2,0,0.6,0.1,0.8,0.1
	c0.7,0.1,1.3,0.2,2,0.3c0.1,0,0.2,0,0.3,0.1c0.8,0.1,1.6,0.2,2.3,0.3c0.2,0,0.3,0,0.6,0c0.6,0.1,1.2,0.1,1.8,0.2c0.2,0,0.6,0,0.8,0
	c0.6,0,1,0.1,1.6,0.1c0.3,0,0.7,0,1,0c0.4,0,0.9,0,1.4,0h0.1c0.2,0,0.6,0,0.8,0c0.6,0,1,0,1.6,0c0.3,0,0.7,0,1,0c0.4,0,0.9,0,1.4,0
	c0.1,0,0.2,0,0.2,0c0.2,0,0.4,0,0.7,0c0.6,0,1.1,0,1.7-0.1c0.3,0,0.7,0,1-0.1c0.6,0,1-0.1,1.6-0.1c0.2,0,0.3,0,0.6,0
	c0.1,0,0.2,0,0.3,0c0.8-0.1,1.6-0.2,2.4-0.3c0.1,0,0.2,0,0.4,0c0.9-0.1,1.8-0.2,2.8-0.4c0.1,0,0.2,0,0.2,0c0.2,0,0.4-0.1,0.7-0.1
	c0.4-0.1,0.9-0.1,1.2-0.2c0.3-0.1,0.7-0.1,1-0.2c0.4-0.1,0.8-0.2,1.2-0.3c0.3-0.1,0.7-0.2,1-0.2c0.4-0.1,0.8-0.2,1.2-0.3
	c0.3-0.1,0.7-0.2,1-0.3c0.4-0.1,0.8-0.2,1.2-0.3c0.2,0,0.3-0.1,0.6-0.1c0.1,0,0.2-0.1,0.3-0.1c0.7-0.2,1.4-0.4,2.1-0.8
	c0.1,0,0.3-0.1,0.4-0.1c0.8-0.3,1.7-0.7,2.4-1c0.2-0.1,0.4-0.2,0.7-0.2c0.6-0.2,1.2-0.6,1.8-0.9c0.2-0.1,0.4-0.2,0.7-0.3
	c0.8-0.3,1.6-0.8,2.2-1.2c0.2-0.1,0.4-0.2,0.6-0.3c0.2-0.1,0.3-0.2,0.6-0.3c0.3-0.2,0.6-0.3,0.9-0.6c0.2-0.2,0.6-0.3,0.8-0.6
	c0.2-0.2,0.6-0.3,0.8-0.6c0.2-0.2,0.4-0.3,0.7-0.5s0.6-0.5,0.8-0.6c0.2-0.2,0.4-0.3,0.7-0.6c0.2-0.2,0.4-0.4,0.7-0.6
	c0.1-0.1,0.2-0.1,0.3-0.2c0.2-0.2,0.3-0.3,0.6-0.6c0.1-0.1,0.1-0.1,0.2-0.2c0.3-0.3,0.7-0.7,1-1c0.1-0.1,0.1-0.2,0.2-0.2
	c0.2-0.3,0.6-0.7,0.8-0.9c0-0.1,0.1-0.1,0.1-0.2c0,0,0-0.1,0.1-0.1c0.1-0.1,0.1-0.2,0.2-0.3c0.2-0.3,0.4-0.7,0.7-0.9
	c0.1-0.2,0.2-0.3,0.3-0.6c0.2-0.3,0.3-0.6,0.6-0.9c0-0.1,0.1-0.1,0.1-0.2c0.1-0.1,0.1-0.2,0.2-0.3c0.1-0.2,0.2-0.4,0.3-0.8
	c0.1-0.2,0.2-0.4,0.3-0.7s0.2-0.4,0.3-0.8c0-0.1,0.1-0.2,0.1-0.3c0-0.1,0.1-0.2,0.1-0.3c0.1-0.2,0.1-0.5,0.2-0.7
	c0.1-0.2,0.1-0.4,0.2-0.7s0.1-0.4,0.2-0.7c0-0.1,0.1-0.2,0.1-0.3s0-0.2,0-0.2c0-0.2,0.1-0.4,0.1-0.8c0-0.2,0.1-0.4,0.1-0.7
	c0-0.2,0-0.4,0-0.8c0-0.1,0-0.3,0-0.4c0-0.1,0-0.3,0-0.4l0.3-119C97.9,157.3,97.9,157.5,97.8,157.8z"/>
<path class="st2" d="M83.6,136.9c19,11,19,28.7,0.2,39.7c-18.8,10.9-49.5,11-68.5,0c-19-10.9-19-28.7-0.2-39.7
	C33.9,125.9,64.7,126,83.6,136.9z"/>
<path class="st4" d="M2.7,164.2c-4.4-9.3-0.3-19.8,12.3-27.1c9.5-5.4,21.8-8.2,34.1-8.2"/>
<path class="st0" d="M64.2,127.9c0,0.1,0,0.1,0,0.2c0,0.1,0,0.1,0,0.2c0,0.1,0,0.1,0,0.2c0,0.1,0,0.1,0,0.2c0,0.1,0,0.1,0,0.2
	c0,0.1,0,0.1-0.1,0.2c0,0.1,0,0.1-0.1,0.2c0,0.1,0,0.1-0.1,0.2c0,0.1-0.1,0.1-0.1,0.2c0,0.1-0.1,0.1-0.1,0.2c0,0.1-0.1,0.1-0.1,0.2
	c0,0.1-0.1,0.1-0.1,0.2c0,0.1-0.1,0.2-0.1,0.2l-0.1,0.1c-0.1,0.1-0.1,0.2-0.2,0.3l-0.1,0.1c0,0,0,0,0,0.1c-0.1,0.1-0.1,0.2-0.2,0.3
	c0,0,0,0-0.1,0.1c-0.1,0.1-0.2,0.2-0.3,0.3c0,0,0,0-0.1,0.1c-0.1,0.1-0.2,0.1-0.2,0.2c-0.1,0.1-0.1,0.1-0.2,0.2
	c-0.1,0.1-0.1,0.1-0.2,0.2c-0.1,0.1-0.1,0.1-0.2,0.2c-0.1,0-0.1,0.1-0.2,0.1c-0.1,0.1-0.2,0.1-0.2,0.2c-0.1,0-0.1,0.1-0.2,0.1
	c-0.1,0.1-0.2,0.1-0.2,0.2c-0.1,0.1-0.2,0.1-0.3,0.2c-0.2,0.1-0.4,0.2-0.7,0.3c-0.1,0-0.1,0.1-0.2,0.1c-0.2,0.1-0.3,0.2-0.6,0.2
	c-0.1,0-0.1,0.1-0.2,0.1c-0.2,0.1-0.4,0.2-0.8,0.3h-0.1c-0.2,0.1-0.4,0.1-0.7,0.2c-0.1,0-0.2,0.1-0.2,0.1c-0.1,0-0.2,0.1-0.3,0.1
	c-0.1,0-0.2,0.1-0.3,0.1c-0.1,0-0.2,0.1-0.3,0.1c-0.1,0-0.2,0-0.3,0.1c-0.1,0-0.2,0.1-0.3,0.1s-0.2,0-0.3,0.1c-0.1,0-0.2,0-0.4,0.1
	c-0.1,0-0.2,0-0.3,0.1c-0.3,0-0.6,0.1-0.9,0.1h-0.1c-0.2,0-0.4,0.1-0.8,0.1c-0.1,0-0.2,0-0.3,0s-0.3,0-0.4,0c-0.1,0-0.2,0-0.3,0
	c-0.2,0-0.3,0-0.6,0c-0.1,0-0.2,0-0.3,0c-0.1,0-0.3,0-0.4,0c-0.1,0-0.2,0-0.3,0c-0.1,0-0.3,0-0.4,0c-0.1,0-0.2,0-0.2,0
	c-0.1,0-0.3,0-0.4,0c-0.1,0-0.2,0-0.3,0c-0.1,0-0.3,0-0.4,0c-0.1,0-0.2,0-0.2,0c-0.2,0-0.3,0-0.6,0h-0.1c-0.2,0-0.4-0.1-0.7-0.1
	h-0.1c-0.2,0-0.4-0.1-0.6-0.1c-0.1,0-0.2,0-0.2,0c-0.1,0-0.3-0.1-0.4-0.1c-0.1,0-0.1,0-0.2,0c-0.2,0-0.3-0.1-0.6-0.1
	c-0.1,0-0.2,0-0.2-0.1c-0.1,0-0.3-0.1-0.4-0.1s-0.2,0-0.2-0.1c-0.2-0.1-0.4-0.1-0.7-0.2H42c-0.2-0.1-0.6-0.2-0.8-0.3
	c-0.1,0-0.2-0.1-0.3-0.1c-0.1,0-0.1-0.1-0.2-0.1c-0.1,0-0.2-0.1-0.3-0.1s-0.1-0.1-0.2-0.1c-0.1-0.1-0.2-0.1-0.3-0.2
	c-0.1,0-0.1-0.1-0.2-0.1c-0.2-0.1-0.3-0.2-0.6-0.3c-2.9-1.7-4.4-3.9-4.4-6.1l-0.1,22.6c0,2.2,1.4,4.4,4.4,6.1
	c0.2,0.1,0.3,0.2,0.6,0.3c0.1,0,0.1,0.1,0.2,0.1c0.1,0.1,0.2,0.1,0.3,0.2c0.1,0,0.1,0.1,0.2,0.1c0.1,0,0.2,0.1,0.3,0.1
	c0.1,0,0.1,0.1,0.2,0.1c0.1,0,0.1,0.1,0.2,0.1c0,0,0,0,0.1,0c0.2,0.1,0.6,0.2,0.8,0.3H42c0.2,0.1,0.4,0.1,0.7,0.2h0.1h0.1
	c0.1,0,0.3,0.1,0.4,0.1c0.1,0,0.2,0,0.2,0.1c0.1,0,0.3,0.1,0.6,0.1c0.1,0,0.1,0,0.2,0s0.3,0.1,0.4,0.1c0.1,0,0.2,0,0.2,0
	c0.2,0,0.4,0.1,0.6,0.1h0.1c0.2,0,0.4,0.1,0.7,0.1h0.1c0.2,0,0.3,0,0.6,0c0.1,0,0.1,0,0.2,0c0.1,0,0.3,0,0.4,0c0.1,0,0.2,0,0.3,0
	c0.1,0,0.3,0,0.4,0s0.1,0,0.2,0c0.1,0,0.3,0,0.4,0c0.1,0,0.2,0,0.3,0c0.1,0,0.3,0,0.4,0c0,0,0,0,0.1,0c0.1,0,0.1,0,0.2,0
	c0.2,0,0.3,0,0.6,0c0.1,0,0.2,0,0.3,0c0.1,0,0.3,0,0.4,0c0.1,0,0.1,0,0.2,0h0.1c0.2,0,0.4,0,0.8-0.1h0.1c0.3,0,0.6-0.1,0.9-0.1
	c0,0,0,0,0.1,0c0.1,0,0.1,0,0.2,0c0.1,0,0.2,0,0.4-0.1c0.1,0,0.2,0,0.3-0.1c0.1,0,0.2-0.1,0.3-0.1c0.1,0,0.2,0,0.3-0.1
	c0.1,0,0.2-0.1,0.3-0.1s0.2-0.1,0.3-0.1c0.1,0,0.2-0.1,0.3-0.1h0.1h0.1c0.2-0.1,0.4-0.1,0.7-0.2h0.1c0.2-0.1,0.4-0.2,0.8-0.3
	c0.1,0,0.1-0.1,0.2-0.1c0.2-0.1,0.3-0.2,0.6-0.2c0.1,0,0.1-0.1,0.2-0.1c0.2-0.1,0.4-0.2,0.7-0.3c0.1,0,0.1-0.1,0.2-0.1
	c0.1,0,0.1-0.1,0.1-0.1c0.1-0.1,0.2-0.1,0.2-0.2c0.1,0,0.1-0.1,0.2-0.1c0.1-0.1,0.2-0.1,0.2-0.2c0.1,0,0.1-0.1,0.2-0.1
	c0.1-0.1,0.1-0.1,0.2-0.2c0.1-0.1,0.1-0.1,0.2-0.2c0.1-0.1,0.1-0.1,0.2-0.2c0,0,0.1,0,0.1-0.1c0.1,0,0.1-0.1,0.1-0.1s0,0,0.1-0.1
	c0.1-0.1,0.2-0.2,0.3-0.3c0,0,0,0,0.1-0.1c0.1-0.1,0.1-0.2,0.2-0.3c0,0,0,0,0-0.1c0,0,0-0.1,0.1-0.1c0.1-0.1,0.1-0.2,0.2-0.3
	l0.1-0.1c0.1-0.1,0.1-0.2,0.1-0.2s0,0,0-0.1c0,0,0-0.1,0.1-0.1c0-0.1,0.1-0.1,0.1-0.2c0-0.1,0.1-0.1,0.1-0.2c0-0.1,0.1-0.1,0.1-0.2
	v-0.1v-0.1c0-0.1,0-0.1,0.1-0.2c0-0.1,0-0.1,0.1-0.2c0-0.1,0-0.1,0-0.2v-0.1c0,0,0,0,0-0.1c0-0.1,0-0.1,0-0.2c0-0.1,0-0.1,0-0.2
	c0-0.1,0-0.1,0-0.2v-0.1v-0.1l0.1-22.6C64.2,127.8,64.2,127.9,64.2,127.9z"/>
<path class="st1" d="M59.9,121.6c5.9,3.3,5.9,8.8,0.1,12.2c-5.8,3.3-15.2,3.3-21.1,0c-1.9-1.1-3.1-2.3-3.8-3.8
	c-1.4-2.9-0.2-6.2,3.8-8.4c3.3-2,8-2.8,12.5-2.5C54.3,119.4,57.4,120.1,59.9,121.6z"/>
<path class="st2" d="M46.8,214.9c11.9-0.3,24-2.3,35.1-6.8c9.9-3.9,19.8-9.8,25.7-18.8c2.8-4.1,4.4-9,4.4-14l0.2,61.8
	c-0.1,10.1-6.7,18.5-14.5,24.2c-9.8,7.3-21.9,11.3-33.8,13.6c-5.6,1-11.2,1.6-16.9,1.8c-1.9,0-3.3-1.4-3.3-3.3l-0.1-55.3
	C43.5,216.4,45,215,46.8,214.9z"/>
<path class="st4" d="M112.2,213v24.2c-0.1,10.1-6.7,18.5-14.5,24.2c-0.8,0.6-1.7,1.2-2.4,1.8"/>
<path class="st1" d="M279.7,230.6l35.7,20.8c1.8,1,3.9,1,5.6,0l65.3-37.3c0.9-0.6,0.9-1.9,0-2.5l-35.7-20.8c-1.8-1-3.9-1-5.6,0
	l-65.3,37.3C278.8,228.7,278.8,230,279.7,230.6z"/>
<path class="st2" d="M380.7,151.1c0.3-0.2,0.7-0.4,0.9-0.7c0.1-0.1,0.3-0.2,0.4-0.3c0.4-0.3,0.9-0.6,1.3-0.9
	c0.4-0.2,0.9-0.4,1.3-0.8c0.1-0.1,0.2-0.1,0.3-0.2c0.4-0.2,0.8-0.4,1.2-0.6c0,0,0.1,0,0.1-0.1c0.4-0.2,0.9-0.3,1.3-0.6
	c0.1,0,0.2-0.1,0.2-0.1c0.4-0.1,0.9-0.3,1.2-0.4h0.1c0.4-0.1,0.8-0.2,1.2-0.3c0.1,0,0.1,0,0.2,0c0.3-0.1,0.7-0.1,0.9-0.2
	c0.1,0,0.3-0.1,0.4-0.1c0.4-0.1,0.9-0.2,1.3-0.2c0.4-0.1,0.8-0.1,1.1-0.1c0.1,0,0.2,0,0.3,0c0.2,0,0.6,0,0.8,0c0.1,0,0.2,0,0.3,0
	c0.3,0,0.6,0,0.9,0c0.1,0,0.2,0,0.3,0c0.3,0,0.7,0,1.1,0.1c0.1,0,0.1,0,0.2,0c0.3,0,0.6,0.1,0.9,0.1c0.1,0,0.2,0,0.3,0.1
	c0.3,0.1,0.7,0.1,1,0.2c0,0,0,0,0.1,0c0.3,0.1,0.7,0.2,1,0.3c0.1,0,0.2,0.1,0.2,0.1c0.2,0.1,0.6,0.2,0.8,0.3c0.1,0,0.1,0.1,0.2,0.1
	c0.3,0.1,0.7,0.3,1,0.6l-31-18l-0.1-0.1c-0.2-0.1-0.6-0.3-0.8-0.4c-0.1,0-0.1-0.1-0.2-0.1c-0.1-0.1-0.3-0.1-0.4-0.2
	c-0.1,0-0.2-0.1-0.3-0.1c-0.1,0-0.2-0.1-0.2-0.1c-0.3-0.1-0.7-0.2-1-0.3c0,0,0,0-0.1,0c-0.3-0.1-0.7-0.1-1-0.2c-0.1,0-0.2,0-0.3-0.1
	c-0.1,0-0.2,0-0.3-0.1c-0.2,0-0.3,0-0.6-0.1c-0.1,0-0.1,0-0.2,0c-0.3,0-0.7-0.1-1-0.1h-0.1c-0.1,0-0.2,0-0.3,0c-0.3,0-0.6,0-0.9,0
	c-0.1,0-0.2,0-0.3,0c-0.1,0-0.2,0-0.3,0c-0.2,0-0.3,0-0.6,0c-0.1,0-0.2,0-0.3,0c-0.3,0-0.8,0.1-1.1,0.1c-0.4,0.1-0.9,0.1-1.3,0.2
	c-0.1,0-0.3,0.1-0.4,0.1c-0.2,0.1-0.6,0.1-0.8,0.2h-0.1c-0.1,0-0.1,0-0.2,0.1c-0.3,0.1-0.8,0.2-1.2,0.3h-0.1
	c-0.4,0.1-0.8,0.3-1.2,0.4c-0.1,0-0.2,0.1-0.2,0.1c-0.1,0-0.2,0.1-0.2,0.1c-0.3,0.1-0.7,0.3-1,0.4c0,0-0.1,0-0.1,0.1
	c-0.3,0.2-0.8,0.3-1.2,0.5c-0.1,0.1-0.2,0.1-0.3,0.2c-0.4,0.2-0.9,0.4-1.3,0.8c-0.4,0.2-0.9,0.6-1.3,0.9c-0.1,0.1-0.3,0.2-0.4,0.3
	c-0.3,0.2-0.7,0.4-0.9,0.7c-0.2,0.1-0.3,0.2-0.6,0.3c-0.3,0.2-0.6,0.4-0.9,0.7c-0.2,0.1-0.3,0.2-0.6,0.3c-0.3,0.2-0.6,0.4-0.9,0.7
	c-0.1,0.1-0.3,0.2-0.4,0.3c-0.3,0.2-0.7,0.6-1,0.8c-0.1,0.1-0.2,0.2-0.3,0.3c-0.4,0.3-0.9,0.8-1.2,1.1c-0.1,0.1-0.2,0.1-0.2,0.2
	c-0.3,0.2-0.6,0.6-0.9,0.8l-0.1,0.1c-0.4,0.4-1,1-1.4,1.6c0,0,0,0-0.1,0.1c-0.4,0.4-0.9,1-1.3,1.4l-0.1,0.1
	c-0.2,0.2-0.3,0.4-0.6,0.6c-0.2,0.2-0.3,0.4-0.6,0.7c-0.2,0.2-0.4,0.6-0.7,0.8c-0.2,0.2-0.3,0.4-0.6,0.7l-0.1,0.1
	c-0.3,0.4-0.7,0.9-1,1.3c0,0,0,0,0,0.1c-0.3,0.4-0.6,0.8-0.9,1.2c0,0,0,0.1-0.1,0.1c-0.4,0.7-1,1.4-1.4,2.2c0,0.1-0.1,0.1-0.1,0.2
	c-0.1,0.1-0.1,0.2-0.2,0.3c-0.3,0.6-0.8,1.2-1.1,1.8c-0.1,0.1-0.1,0.2-0.2,0.3c0,0,0,0.1-0.1,0.1c-0.4,0.7-0.8,1.4-1.2,2.1
	c0,0.1-0.1,0.1-0.1,0.2c-0.1,0.1-0.1,0.2-0.2,0.3c-0.3,0.6-0.6,1.1-0.9,1.8c-0.1,0.1-0.1,0.2-0.2,0.3c0,0.1-0.1,0.1-0.1,0.2
	c-0.3,0.8-0.7,1.4-1,2.2c0,0,0,0,0,0.1c-0.2,0.4-0.4,1-0.7,1.4c0,0.1-0.1,0.2-0.1,0.4c-0.1,0.2-0.2,0.4-0.3,0.7
	c-0.1,0.2-0.1,0.3-0.2,0.6c-0.1,0.2-0.1,0.3-0.2,0.6c-0.1,0.4-0.3,0.9-0.4,1.3c0,0.1-0.1,0.2-0.1,0.2s0,0,0,0.1
	c-0.2,0.6-0.3,1-0.6,1.6c0,0.1-0.1,0.3-0.1,0.4c-0.1,0.3-0.2,0.6-0.2,0.9c0,0.1,0,0.2-0.1,0.3c-0.1,0.2-0.1,0.4-0.2,0.8
	c-0.1,0.3-0.2,0.7-0.2,1c-0.1,0.2-0.1,0.6-0.2,0.8c0,0.2-0.1,0.3-0.1,0.6c0,0.1,0,0.2-0.1,0.3c-0.1,0.3-0.1,0.8-0.2,1.1
	c0,0.2-0.1,0.6-0.1,0.8c-0.1,0.3-0.1,0.8-0.2,1.1c0,0.2-0.1,0.3-0.1,0.5c0,0.1,0,0.1,0,0.2c0,0.2,0,0.3-0.1,0.6
	c0,0.3-0.1,0.8-0.1,1.1c0,0.2,0,0.3,0,0.6c0,0.3,0,0.8-0.1,1.1c0,0.2,0,0.3,0,0.6c0,0.6,0,1,0,1.6c0,9,3.2,15.5,8.3,18.5l31,18
	c-5.1-3-8.3-9.3-8.3-18.5c0-0.6,0-1,0-1.6c0-0.1,0-0.3,0-0.6c0-0.3,0-0.8,0.1-1.1c0-0.2,0-0.3,0-0.6c0-0.3,0.1-0.8,0.1-1.1v-0.1
	l16.2,9.4h0.1h0.1c0.2,0.1,0.4,0.2,0.7,0.3c0,0,0.1,0,0.1,0.1h0.1c0.2,0.1,0.6,0.2,0.8,0.2c0.3,0.1,0.6,0.1,0.9,0.2h0.1h0.1
	c0.2,0,0.6,0.1,0.8,0.1h0.1c0,0,0,0,0.1,0s0.1,0,0.2,0c0.2,0,0.3,0,0.6,0c0.1,0,0.1,0,0.2,0c0.1,0,0.1,0,0.2,0c0.1,0,0.2,0,0.3,0
	c0.1,0,0.1,0,0.2,0c0.2,0,0.4,0,0.7-0.1c0.2,0,0.6-0.1,0.8-0.1c0.1,0,0.2,0,0.2-0.1c0.1,0,0.3-0.1,0.4-0.1c0.3-0.1,0.7-0.2,0.9-0.3
	c0.1,0,0.1,0,0.2-0.1c0.2-0.1,0.6-0.2,0.8-0.3h0.1c0.1,0,0.1-0.1,0.2-0.1c0.2-0.1,0.6-0.2,0.8-0.3c0.1,0,0.2-0.1,0.3-0.1
	c0.3-0.2,0.8-0.3,1.1-0.6c0.2-0.1,0.6-0.3,0.8-0.6c0.1,0,0.2-0.1,0.2-0.2c0.2-0.1,0.3-0.2,0.6-0.3c0.1-0.1,0.2-0.1,0.3-0.2
	c0.2-0.1,0.3-0.2,0.6-0.3c0.1-0.1,0.2-0.1,0.3-0.2c0.2-0.1,0.3-0.2,0.6-0.4c0.1-0.1,0.2-0.1,0.3-0.2c0.2-0.1,0.3-0.3,0.6-0.4
	c0.1-0.1,0.1-0.1,0.2-0.2c0.2-0.2,0.6-0.4,0.8-0.7l0.1-0.1c0.1-0.1,0.3-0.3,0.4-0.4c0,0,0,0,0.1-0.1c0.3-0.3,0.6-0.5,0.9-0.9
	c0.2-0.3,0.6-0.6,0.8-0.9c0,0,0,0,0.1-0.1l0.1-0.1c0.4-0.6,0.9-1,1.2-1.6l0.1-0.1c0.3-0.4,0.7-0.9,1-1.3l0.1-0.1c0,0,0,0,0-0.1
	c0.3-0.4,0.6-0.9,0.9-1.3l0.1-0.1c0-0.1,0.1-0.1,0.1-0.2c0.2-0.3,0.4-0.8,0.7-1.1c0-0.1,0.1-0.1,0.1-0.2c0,0,0,0,0-0.1
	c0.2-0.4,0.4-0.9,0.7-1.3c0,0,0-0.1,0.1-0.1c0-0.1,0.1-0.1,0.1-0.2c0.2-0.3,0.3-0.7,0.6-1c0-0.1,0.1-0.1,0.1-0.2c0,0,0-0.1,0.1-0.1
	c0.2-0.4,0.4-0.9,0.6-1.3c0,0,0-0.1,0.1-0.1c0.2-0.4,0.3-0.8,0.4-1.2c0-0.1,0-0.1,0.1-0.2c0,0,0-0.1,0.1-0.1c0.2-0.4,0.3-1,0.6-1.4
	v-0.1c0.1-0.4,0.3-1,0.4-1.4c0-0.1,0-0.1,0.1-0.2c0-0.1,0-0.1,0-0.2c0-0.1,0.1-0.3,0.1-0.5c0-0.2,0.1-0.4,0.1-0.5
	c0-0.1,0.1-0.3,0.1-0.5c0-0.1,0-0.2,0.1-0.3c0-0.1,0-0.1,0-0.2c0-0.2,0.1-0.5,0.1-0.7c0-0.1,0.1-0.3,0.1-0.4c0-0.2,0.1-0.4,0.1-0.7
	c0-0.1,0-0.2,0-0.3v-0.1c0-0.1,0-0.2,0-0.3c0-0.2,0-0.4,0.1-0.7c0-0.1,0-0.2,0-0.3c0-0.2,0-0.4,0-0.7c0-0.1,0-0.2,0-0.3
	c0-0.3,0-0.7,0-1c0-5.4-1.9-9.2-5-11l-16.2-9.4c0.2-0.2,0.4-0.3,0.7-0.5C380.4,151.3,380.6,151.2,380.7,151.1z M368,163.8
	c-0.1,0.4-0.3,1-0.6,1.4c0,0.1-0.1,0.2-0.1,0.3c-0.1,0.4-0.3,0.8-0.4,1.2c0,0.1,0,0.1-0.1,0.2c-0.2,0.4-0.4,0.9-0.6,1.3
	c0,0.1-0.1,0.2-0.2,0.3c-0.2,0.3-0.3,0.7-0.6,1c0,0.1-0.1,0.2-0.1,0.3c-0.2,0.4-0.4,0.9-0.7,1.3c0,0.1-0.1,0.1-0.1,0.2
	c-0.2,0.3-0.4,0.8-0.7,1.1c-0.1,0.1-0.1,0.2-0.2,0.3c-0.3,0.4-0.6,0.9-0.9,1.3c0,0.1-0.1,0.1-0.1,0.2c-0.3,0.4-0.7,0.9-1,1.3
	c0,0-0.1,0.1-0.1,0.2c-0.4,0.6-0.9,1-1.2,1.6c-0.1,0.1-0.1,0.1-0.2,0.2c-0.2,0.3-0.6,0.6-0.8,0.9c0.1-0.3,0.2-0.6,0.3-0.9
	c0.3-0.8,0.7-1.4,1-2.2c0.1-0.2,0.2-0.3,0.3-0.6c0.3-0.6,0.6-1.1,0.9-1.8c0.1-0.2,0.2-0.3,0.2-0.6c0.3-0.7,0.8-1.4,1.2-2.1
	c0.1-0.1,0.1-0.2,0.2-0.4c0.3-0.7,0.8-1.2,1.1-1.8c0.1-0.2,0.2-0.3,0.3-0.6c0.4-0.8,1-1.4,1.4-2.2c0.3-0.4,0.7-0.9,1-1.3
	c0,0,0,0,0-0.1c0.3-0.3,0.6-0.8,0.9-1.1c-0.1,0.2-0.1,0.4-0.2,0.7C368.1,163.7,368.1,163.7,368,163.8z"/>
<path class="st4" d="M402.9,146.8c0.3,0.1,0.7,0.3,1,0.6l-31-18l-0.1-0.1c-0.2-0.1-0.6-0.3-0.8-0.4c-0.1,0-0.1-0.1-0.2-0.1
	c-0.1-0.1-0.3-0.1-0.4-0.2c-0.1,0-0.2-0.1-0.3-0.1c-0.1,0-0.2-0.1-0.2-0.1c-0.3-0.1-0.7-0.2-1-0.3c0,0,0,0-0.1,0
	c-0.3-0.1-0.7-0.1-1-0.2c-0.1,0-0.2,0-0.3-0.1c-0.1,0-0.2,0-0.3-0.1c-0.2,0-0.3,0-0.6-0.1c-0.1,0-0.1,0-0.2,0c-0.3,0-0.7-0.1-1-0.1
	h-0.1c-0.1,0-0.2,0-0.3,0c-0.3,0-0.6,0-0.9,0c-0.1,0-0.2,0-0.3,0c-0.1,0-0.2,0-0.3,0c-0.2,0-0.3,0-0.6,0c-0.1,0-0.2,0-0.3,0
	c-0.3,0-0.8,0.1-1.1,0.1c-0.4,0.1-0.9,0.1-1.3,0.2c-0.1,0-0.3,0.1-0.4,0.1c-0.2,0.1-0.6,0.1-0.8,0.2h-0.1c-0.1,0-0.1,0-0.2,0.1
	c-0.3,0.1-0.8,0.2-1.2,0.3H358c-0.4,0.1-0.8,0.3-1.2,0.4c-0.1,0-0.2,0.1-0.2,0.1c-0.1,0-0.2,0.1-0.2,0.1c-0.3,0.1-0.7,0.3-1,0.4
	c0,0-0.1,0-0.1,0.1c-0.3,0.2-0.8,0.3-1.2,0.5c-0.1,0.1-0.2,0.1-0.3,0.2c-0.4,0.2-0.9,0.4-1.3,0.8c-0.4,0.2-0.9,0.6-1.3,0.9
	c-0.1,0.1-0.3,0.2-0.4,0.3c-0.3,0.2-0.7,0.4-0.9,0.7c-0.2,0.1-0.3,0.2-0.6,0.3c-0.3,0.2-0.6,0.4-0.9,0.7c-0.2,0.1-0.3,0.2-0.6,0.3
	c-0.3,0.2-0.6,0.4-0.9,0.7c-0.1,0.1-0.3,0.2-0.4,0.3c-0.3,0.2-0.7,0.6-1,0.8c-0.1,0.1-0.2,0.2-0.3,0.3c-0.4,0.3-0.9,0.8-1.2,1.1
	c-0.1,0.1-0.2,0.1-0.2,0.2c-0.3,0.2-0.6,0.6-0.9,0.8l-0.1,0.1c-0.4,0.4-1,1-1.4,1.6c0,0,0,0-0.1,0.1c-0.4,0.4-0.9,1-1.3,1.4
	l-0.1,0.1c-0.2,0.2-0.3,0.4-0.6,0.6c-0.2,0.2-0.3,0.4-0.6,0.7c-0.2,0.2-0.4,0.6-0.7,0.8c-0.2,0.2-0.3,0.4-0.6,0.7l-0.1,0.1
	c-0.3,0.4-0.7,0.9-1,1.3c0,0,0,0,0,0.1c-0.3,0.4-0.6,0.8-0.9,1.2c0,0,0,0.1-0.1,0.1c-0.4,0.7-1,1.4-1.4,2.2c0,0.1-0.1,0.1-0.1,0.2
	c-0.1,0.1-0.1,0.2-0.2,0.3c-0.3,0.6-0.8,1.2-1.1,1.8c-0.1,0.1-0.1,0.2-0.2,0.3c0,0,0,0.1-0.1,0.1c-0.4,0.7-0.8,1.4-1.2,2.1
	c0,0.1-0.1,0.1-0.1,0.2c-0.1,0.1-0.1,0.2-0.2,0.3c-0.3,0.6-0.6,1.1-0.9,1.8c-0.1,0.1-0.1,0.2-0.2,0.3c0,0.1-0.1,0.1-0.1,0.2
	c-0.3,0.8-0.7,1.4-1,2.2c0,0,0,0,0,0.1c-0.2,0.4-0.4,1-0.7,1.4c0,0.1-0.1,0.2-0.1,0.4c-0.1,0.2-0.2,0.4-0.3,0.7
	c-0.1,0.2-0.1,0.3-0.2,0.6c-0.1,0.2-0.1,0.3-0.2,0.6c-0.1,0.4-0.3,0.9-0.4,1.3c0,0.1-0.1,0.2-0.1,0.2s0,0,0,0.1
	c-0.2,0.6-0.3,1-0.6,1.6c0,0.1-0.1,0.3-0.1,0.4c-0.1,0.3-0.2,0.6-0.2,0.9c0,0.1,0,0.2-0.1,0.3c-0.1,0.2-0.1,0.4-0.2,0.8
	c-0.1,0.3-0.2,0.7-0.2,1c-0.1,0.2-0.1,0.6-0.2,0.8c0,0.2-0.1,0.3-0.1,0.6c0,0.1,0,0.2-0.1,0.3c-0.1,0.3-0.1,0.8-0.2,1.1
	c0,0.2-0.1,0.6-0.1,0.8c-0.1,0.3-0.1,0.8-0.2,1.1c0,0.2-0.1,0.3-0.1,0.5c0,0.1,0,0.1,0,0.2c0,0.2,0,0.3-0.1,0.6
	c0,0.3-0.1,0.8-0.1,1.1c0,0.2,0,0.3,0,0.6c0,0.3,0,0.8-0.1,1.1c0,0.2,0,0.3,0,0.6c0,0.6,0,1,0,1.6c0,9,3.2,15.5,8.3,18.5l31,18"/>
<path class="st0" d="M383.5,149.3c15.9-9.1,28.8-1.8,28.8,16.5c0,18.2-12.8,40.5-28.6,49.6c-15.9,9.1-28.8,1.8-28.8-16.5
	C354.8,180.6,367.6,158.5,383.5,149.3z M383.6,202.1c9.6-5.5,17.2-18.8,17.1-29.7c0-10.9-7.8-15.3-17.2-9.9
	c-9.6,5.4-17.2,18.8-17.1,29.7C366.3,203.2,374.1,207.5,383.6,202.1z"/>
<path class="st3" d="M343.7,166.7c-0.7-0.6-1.4-0.7-1.9-0.2l-1.4,1.3c-0.4,0.4-1.2,0.3-1.9-0.1l-2.1-1.7c-1.6-1.2-2.8,0.1-2.4,2.3
	l0.6,3.1c0.2,1,0,1.9-0.4,2.4l-1.3,1.6c-1,1.1-0.4,3.9,1.1,5.2l2,1.8c0.7,0.6,1.2,1.6,1.4,2.6l0.7,3.1c0.2,1.1,0.9,2.1,1.6,2.7
	c0.7,0.5,1.4,0.7,1.9,0.2l1.4-1.3c0.4-0.4,1.2-0.3,1.9,0.1l2.1,1.7c1.6,1.2,2.8-0.1,2.4-2.3l-0.6-3.1c-0.2-1,0-1.9,0.4-2.5l1.3-1.6
	c1-1.1,0.4-3.9-1.1-5.2l-2-1.8c-0.7-0.6-1.2-1.6-1.4-2.6l-0.7-3.1C344.9,168.3,344.3,167.3,343.7,166.7z"/>
<path class="st3" d="M372.6,138.9c-0.8-0.4-1.9-0.7-3.1-0.6l-3.3,0.4c-1.1,0.1-2.2,0-3-0.4l-2.4-1.3c-1.8-1-4.8-0.6-5.4,0.9l-1,1.9
	c-0.3,0.7-1.1,1.1-2.2,1.3l-3.2,0.6c-2.3,0.4-3.1,2.1-1.4,3.2l2.3,1.4c0.8,0.4,1.1,1.1,0.8,1.8l-0.8,1.9c-0.2,0.7,0.1,1.3,0.9,1.8
	c0.8,0.4,1.9,0.7,3.1,0.5l3.3-0.4c1.1-0.1,2.2,0,3,0.4l2.4,1.3c1.8,1,4.8,0.6,5.4-0.9l1-1.9c0.3-0.7,1.1-1.1,2.2-1.3l3.2-0.6
	c2.3-0.4,3.1-2.1,1.4-3.2l-2.3-1.4c-0.8-0.4-1.1-1.1-0.8-1.8l0.8-1.9C373.8,140,373.3,139.4,372.6,138.9z"/>
<path class="st3" d="M334.8,217.9c-0.8-0.4-1.9-0.7-3.1-0.6l-3.3,0.4c-1.1,0.1-2.2,0-3-0.4l-2.4-1.3c-1.8-1-4.8-0.6-5.4,0.9l-1,1.9
	c-0.3,0.7-1.1,1.1-2.2,1.3l-3.2,0.6c-2.3,0.4-3.1,2.1-1.4,3.2l2.3,1.5c0.8,0.4,1.1,1.1,0.8,1.8l-0.8,1.9c-0.2,0.7,0.1,1.3,0.9,1.8
	c0.8,0.4,1.9,0.7,3.1,0.6l3.3-0.4c1.1-0.1,2.2,0,3,0.4l2.4,1.3c1.8,1,4.8,0.6,5.4-0.9l1-1.9c0.3-0.7,1.1-1.1,2.2-1.3l3.2-0.6
	c2.3-0.4,3.1-2.1,1.4-3.2l-2.3-1.4c-0.8-0.5-1.1-1.1-0.8-1.8l0.8-1.9C336,219,335.5,218.3,334.8,217.9z"/>
<path class="st3" d="M161.7,303.6v-8.8l5.3-2.6l5.8,5l-2.8,5.9L161.7,303.6z"/>
<path class="st3" d="M302,282.7l-45.4-26.2c-5.3-3.1-13.9-3.1-19.1,0l-71.8,41.7c-5.2,3.1-5.2,8,0.1,11.1l45.4,26.2
	c5.3,3.1,13.9,3.1,19.1,0l71.8-41.7C307.3,290.8,307.3,285.8,302,282.7z"/>
<path class="st1" d="M302,274.3L256.6,248c-5.3-3.1-13.9-3.1-19.1,0l-71.8,41.7c-5.2,3.1-5.2,8,0.1,11.1l45.4,26.3
	c5.3,3.1,13.9,3.1,19.1,0l71.8-41.7C307.3,282.4,307.3,277.4,302,274.3z"/>
<path class="st2" d="M221.4,286.2c-0.2-0.1-0.6-0.2-0.8-0.3c0,0.1,0.1,0.3,0.2,0.4c1,1.3,2,2.6,3.1,3.6
	C223.6,287.8,222.3,286.7,221.4,286.2z M236,283.5c-0.1,0-0.2-0.1-0.2-0.1c-0.2,0-0.3,0.1-0.4,0.1c-0.3,0.2-0.3,0.3-0.3,0.6
	c0,0.9,1.2,2.1,2.7,3C237.9,285.8,237.5,284.4,236,283.5z M248.4,278.9l-0.1,0.1c-0.7,0.3-0.8,0.8-0.4,1.3c0.1,0.2,0.3,0.4,0.6,0.7
	C248.7,280.2,248.6,279.4,248.4,278.9z M248,266.8c-2.7-1.6-7.1-1.7-10-0.1l-5.3,2.9c-1.8,1-4.2,1.3-6.6,1l-7.1-1
	c-5.2-0.7-9.9,2-8.7,5l1.7,4.1c0.6,1.3-0.1,2.8-1.8,3.8l-5,3.1c-2.8,1.8-2.4,4.3,0.2,5.8c0.8,0.5,1.8,0.8,3,1l7,1.2
	c1.1,0.2,2.2,0.5,3,1c0.8,0.4,1.4,1.1,1.8,1.8l0.4,0.9c1.6-1.4,2.7-3,3.2-4.6c-2-1.2-4.2-3.1-6.2-6c-1.2-1.7-0.3-2.6,0.3-2.9
	c0.9-0.6,2.2-0.7,3.7-0.3c0.8,0.1,1.6,0.4,2.3,0.9c1.9,1.1,3.4,3,3.8,5.7c0.1,0.7,0.1,1.3,0,1.9c1.2,0.6,2.3,0.8,3.4,0.7
	c2.2-0.1,4.6-1.6,5.7-3.6c-0.4-0.2-0.9-0.4-1.3-0.7c-2.3-1.3-4.1-3.1-4.1-4.7c0-1.4,1.4-2.6,4.2-2.9c0.4-0.1,0.9,0,1.3,0.1
	c0.6,0.2,1.1,0.4,1.6,0.7c2.4,1.4,3.3,3.7,2.6,6.3c0.8,0,3.1-1.2,5.2-3.7c0.4-0.4,0.8-1,1-1.4c-0.3-0.1-0.7-0.3-0.9-0.4
	c-0.9-0.6-1.7-1.2-2-1.8c-0.9-1.5-0.2-3.5,3.9-4.5c0.7-0.1,1.3-0.1,1.9,0.2c0.1,0,0.2,0.1,0.3,0.1c1.9,1.1,2,3,1.3,5
	c1.2-0.6,2.4-2.6,0.9-7.7c0-0.2,0-0.3,0.1-0.6c-0.3-0.3-0.6-0.7-0.8-1l-2.2-4C249.5,267.9,248.8,267.4,248,266.8z M266.8,277.7
	c-0.8-0.4-1.8-0.8-3-1l-7-1.2c-0.1,0-0.1,0-0.2,0c1.3,6.3-1.6,8.2-4.4,8.6c-0.6,0.1-1,0.1-1.6,0.1c-0.3,0.6-0.8,1.1-1.1,1.6
	c-0.6,0.8-2.1,2.4-4.1,3.6c-1.4,0.9-3.2,1.4-5,1.2h-0.2c-1.6,2.3-4.6,4.4-8.6,4.7c-1.3,0.1-2.8-0.1-4.4-0.5c-0.9,2-2.7,3.9-5,5.6
	l0.3,0.7c0.3,0.7,1,1.3,1.8,1.8c2.7,1.6,7.1,1.7,10,0.1l5.3-2.9c1.8-1,4.2-1.3,6.6-1l7.1,1c5.2,0.7,9.9-2,8.7-5l-1.7-4.1
	c-0.6-1.3,0.1-2.8,1.8-3.8l5-3.1C269.8,281.8,269.5,279.3,266.8,277.7z"/>
<path class="st3" d="M224.1,289.8c-1.1-1-2.1-2.2-3.1-3.6c-0.1-0.2-0.2-0.3-0.2-0.4c0.2,0.1,0.4,0.2,0.8,0.3
	C222.3,286.7,223.6,287.8,224.1,289.8z M237.7,287.2c-1.4-0.9-2.7-2.1-2.7-3c0-0.2,0-0.4,0.3-0.5c0.1-0.1,0.2-0.1,0.4-0.1
	c0.1,0,0.2,0.1,0.2,0.1C237.5,284.4,237.9,285.8,237.7,287.2z M248.4,281c-0.2-0.2-0.4-0.4-0.6-0.7c-0.3-0.6-0.1-1,0.4-1.3l0.1-0.1
	C248.6,279.4,248.7,280.2,248.4,281z M255.7,273.3c-0.4-0.2-1-0.3-1.6-0.3c-0.7,0.1-1.2,0.3-1.4,0.7c-0.1,0.1-0.1,0.3-0.1,0.6
	c1.6,5.2,0.3,7.2-0.9,7.7c0.7-2,0.6-3.9-1.3-5c-0.1,0-0.2-0.1-0.3-0.1c-0.6-0.2-1.2-0.3-1.9-0.2c-4.1,1-4.7,2.9-3.9,4.4
	c0.3,0.7,1.1,1.3,2,1.8c0.3,0.1,0.6,0.3,0.9,0.4c-0.3,0.5-0.7,0.9-1,1.5c-2.1,2.6-4.4,3.7-5.2,3.7c0.9-2.7-0.1-5-2.6-6.3
	c-0.4-0.2-1-0.6-1.6-0.7c-0.4-0.1-0.9-0.2-1.3-0.1c-2.7,0.3-4.2,1.5-4.2,2.9c0,1.4,1.8,3.3,4.1,4.7c0.4,0.2,0.9,0.4,1.3,0.7
	c-1.2,2-3.4,3.5-5.7,3.6c-1.1,0-2.2-0.2-3.4-0.7c0.1-0.7,0.1-1.3,0-1.9c-0.3-2.7-2-4.6-3.8-5.7c-0.8-0.4-1.6-0.8-2.3-0.9
	c-1.4-0.3-2.8-0.1-3.7,0.3c-0.7,0.3-1.4,1.2-0.3,2.9c2.1,2.9,4.2,4.8,6.2,6c-0.6,1.6-1.7,3.1-3.2,4.6c-2.3,2.1-5.8,3.9-9.6,4.8
	c-0.9,0.2-1.3,0.8-1,1.3c0.1,0.1,0.2,0.2,0.4,0.3c0.4,0.3,1.2,0.4,1.9,0.2c3.7-0.9,7-2.3,9.6-4.2c2.3-1.7,4-3.6,5-5.6
	c1.7,0.6,3.1,0.7,4.4,0.6c4.1-0.2,7-2.3,8.6-4.7h0.2c1.9,0.2,3.6-0.3,5-1.2c2-1.2,3.6-2.9,4.1-3.6c0.4-0.4,0.8-1,1.1-1.6
	c0.6,0,1,0,1.6-0.1c2.9-0.4,5.8-2.2,4.4-8.6c-0.1-0.6-0.2-1-0.4-1.7C256.1,273.6,255.9,273.4,255.7,273.3z"/>
<path class="st3" d="M353.2,41C353.1,41,353.1,41,353.2,41c-0.2,0-0.3,0-0.4,0c0,0,0,0-0.1,0c-0.1,0-0.2,0-0.3,0
	c-0.1,0-0.2,0-0.4-0.1c-0.1,0-0.3-0.1-0.4-0.1s-0.3-0.1-0.4-0.2c-0.1-0.1-0.3-0.1-0.4-0.2c-0.1-0.1-0.3-0.2-0.4-0.3
	c-0.1-0.1-0.3-0.2-0.4-0.3c-0.1-0.1-0.2-0.2-0.4-0.3c-0.1-0.1-0.2-0.2-0.4-0.3c-0.1-0.1-0.2-0.3-0.3-0.4c-0.1-0.1-0.2-0.3-0.3-0.4
	c-0.1-0.1-0.2-0.3-0.3-0.4c-0.1-0.1-0.2-0.3-0.3-0.6l-0.1-0.1c-0.1-0.2-0.2-0.4-0.3-0.6c-0.1-0.2-0.2-0.4-0.2-0.5
	c-0.1-0.2-0.1-0.5-0.2-0.6c-0.1-0.2-0.1-0.3-0.2-0.6c0-0.2-0.1-0.3-0.1-0.6s-0.1-0.3-0.1-0.6c0-0.2,0-0.3-0.1-0.6c0-0.2,0-0.3,0-0.6
	s0-0.3,0-0.6c0-0.1,0-0.3,0.1-0.4c0-0.1,0.1-0.3,0.1-0.4c0-0.1,0.1-0.2,0.1-0.3v-0.1c0-0.1,0.1-0.2,0.1-0.2s0-0.1,0.1-0.1
	c0.1-0.1,0.2-0.2,0.3-0.3l0.1-0.1c0.1-0.1,0.2-0.2,0.4-0.3l-14.3,8.3c-0.1,0.1-0.3,0.2-0.4,0.3l-0.1,0.1c-0.1,0.1-0.2,0.2-0.3,0.3
	c0,0,0,0.1-0.1,0.1c0,0.1-0.1,0.1-0.1,0.2v0.1c0,0,0,0.1-0.1,0.1c0,0.1,0,0.1-0.1,0.2c0,0.1,0,0.1-0.1,0.2v0.1c0,0.1,0,0.1,0,0.2
	v0.1c0,0.1,0,0.1,0,0.2c0,0.1,0,0.1,0,0.2c0,0.1,0,0.1,0,0.2s0,0.1,0,0.2c0,0,0,0,0,0.1v0.1c0,0.1,0,0.1,0,0.2v0.1
	c0,0.1,0,0.1,0,0.2s0,0.2,0,0.2c0,0.1,0,0.1,0,0.2c0,0.1,0,0.2,0.1,0.2v0.1v0.1c0,0.1,0,0.2,0.1,0.2c0,0.1,0,0.1,0.1,0.2
	c0,0.1,0.1,0.1,0.1,0.2c0,0.1,0.1,0.1,0.1,0.2v0.1v0.1c0,0.1,0.1,0.1,0.1,0.2c0,0.1,0.1,0.1,0.1,0.2c0,0.1,0.1,0.2,0.1,0.2
	c0.1,0.1,0.1,0.2,0.2,0.3c0,0,0,0.1,0.1,0.1c0.1,0.2,0.2,0.3,0.3,0.6c0,0,0,0,0,0.1c0.1,0.1,0.2,0.2,0.2,0.3c0,0.1,0.1,0.1,0.1,0.2
	c0.1,0.1,0.1,0.1,0.2,0.2l0.1,0.1c0.1,0.1,0.1,0.1,0.2,0.2l0.1,0.1c0,0,0,0,0.1,0.1c0.1,0.1,0.1,0.1,0.2,0.2l0.1,0.1
	c0.1,0.1,0.1,0.1,0.2,0.2l0.1,0.1c0.1,0.1,0.1,0.1,0.2,0.1c0.1,0,0.1,0.1,0.2,0.1s0.1,0.1,0.2,0.1c0.1,0,0.1,0.1,0.2,0.1l0.1,0.1
	c0.1,0,0.1,0.1,0.2,0.1h0.1c0,0,0,0,0.1,0s0.1,0.1,0.2,0.1c0.1,0,0.1,0,0.2,0.1c0.1,0,0.1,0,0.2,0.1c0.1,0,0.1,0,0.2,0h0.1
	c0.1,0,0.1,0,0.2,0c0,0,0,0,0.1,0h0.1c0.1,0,0.1,0,0.2,0c0,0,0,0,0.1,0h0.1c0.1,0,0.1,0,0.2,0c0,0,0,0,0.1,0s0.2,0,0.3-0.1
	c0.1,0,0.2-0.1,0.3-0.2l14.3-8.3c-0.1,0.1-0.2,0.1-0.3,0.2C353.4,40.9,353.3,40.9,353.2,41z"/>
<path class="st3" d="M400,48.4c0-0.1,0-0.2,0-0.3V48c0,0,0,0,0-0.1v-0.1c0-0.1,0-0.2,0-0.3c0-0.1,0-0.2,0-0.3c0-0.1,0-0.2,0-0.3
	c0-0.1,0-0.2-0.1-0.3v-0.1c0,0,0,0,0-0.1v-0.1c0-0.1-0.1-0.2-0.1-0.3c0-0.1,0-0.1-0.1-0.2c0-0.1-0.1-0.2-0.1-0.3
	c0-0.1-0.1-0.2-0.1-0.3c0-0.1-0.1-0.1-0.1-0.2c0-0.1-0.1-0.2-0.1-0.3c0-0.1-0.1-0.1-0.1-0.2c0,0,0,0,0-0.1c0-0.1-0.1-0.2-0.1-0.3
	c0-0.1-0.1-0.2-0.1-0.3c0-0.1-0.1-0.2-0.1-0.3c0-0.1-0.1-0.2-0.1-0.2c0-0.1-0.1-0.1-0.1-0.2c0,0,0-0.1-0.1-0.1
	c0-0.1-0.1-0.2-0.2-0.2c-0.1-0.1-0.1-0.2-0.2-0.4c0,0,0-0.1-0.1-0.1c-0.1-0.1-0.2-0.2-0.3-0.4l-0.1-0.1c-0.1-0.1-0.2-0.2-0.3-0.3
	c-0.1-0.1-0.1-0.1-0.2-0.2c-0.1-0.1-0.1-0.2-0.2-0.3c-0.1-0.1-0.2-0.2-0.2-0.3c-0.1-0.1-0.2-0.2-0.2-0.2c-0.1-0.1-0.2-0.2-0.2-0.2
	c-0.1-0.1-0.1-0.1-0.2-0.2c-0.1-0.1-0.2-0.2-0.3-0.2c0,0,0,0-0.1-0.1c0,0,0,0-0.1,0l-0.1-0.1c-0.1-0.1-0.2-0.1-0.3-0.2l-0.1-0.1
	c0,0,0,0-0.1,0c0,0-0.1,0-0.1-0.1c-0.1-0.1-0.2-0.1-0.2-0.2c-0.1-0.1-0.2-0.1-0.2-0.2l-37.8-22.2c-0.1,0-0.1-0.1-0.2-0.1
	s-0.2-0.1-0.2-0.1s-0.1,0-0.1-0.1c0,0,0,0-0.1,0c-0.1,0-0.2-0.1-0.2-0.1c-0.1,0-0.2-0.1-0.2-0.1c-0.1,0-0.1,0-0.2-0.1
	c-0.1,0-0.2,0-0.2-0.1h-0.1c0,0,0,0-0.1,0h-0.1c-0.1,0-0.2,0-0.3,0h-0.1c0,0,0,0-0.1,0h-0.1c-0.1,0-0.2,0-0.3,0h-0.1h-0.1H353
	c-0.1,0-0.2,0-0.3,0c0,0,0,0-0.1,0s-0.3,0.1-0.4,0.1c-0.2,0.1-0.3,0.1-0.6,0.2l-14.8,8.5L322.4,32l14.8-8.5c0.1-0.1,0.3-0.1,0.6-0.2
	c0.1-0.1,0.3-0.1,0.4-0.1c0,0,0,0,0.1,0s0.3,0,0.4,0h0.1c0.1,0,0.3,0,0.6,0c0,0,0,0,0.1,0c0.2,0,0.3,0,0.6,0.1c0,0,0,0,0.1,0
	c0.2,0,0.3,0.1,0.6,0.1c0.2,0.1,0.4,0.1,0.6,0.2c0.2,0.1,0.4,0.2,0.7,0.3l37.8,22.2c0.2,0.1,0.4,0.2,0.7,0.4c0,0,0,0,0.1,0
	c0.2,0.1,0.3,0.3,0.6,0.5c0,0,0,0,0.1,0c0.2,0.1,0.3,0.3,0.6,0.4c0.2,0.2,0.3,0.3,0.6,0.6c0.2,0.2,0.3,0.4,0.6,0.7
	c0.2,0.2,0.3,0.4,0.4,0.7l0.1,0.1c0.1,0.1,0.2,0.3,0.3,0.6c0.1,0.1,0.1,0.2,0.2,0.4c0.1,0.1,0.1,0.2,0.2,0.3c0,0.1,0.1,0.1,0.1,0.2
	c0.1,0.2,0.2,0.4,0.3,0.6c0.1,0.2,0.2,0.6,0.3,0.8c0.1,0.2,0.2,0.4,0.3,0.8c0.1,0.2,0.2,0.6,0.2,0.8c0.1,0.2,0.1,0.4,0.2,0.8
	c0,0,0,0,0,0.1c0.1,0.2,0.1,0.6,0.1,0.8c0,0.2,0.1,0.6,0.1,0.8c0,0,0,0,0,0.1c0,0.2,0,0.6,0,0.8l-0.1,29.2c0,0.2,0,0.4,0,0.7
	c0,0,0,0,0,0.1c0,0.2,0,0.4-0.1,0.7c0,0,0,0,0,0.1c0,0.2-0.1,0.3-0.1,0.6v0.1c-0.1,0.2-0.1,0.3-0.2,0.6c-0.1,0.1-0.1,0.3-0.2,0.4
	c0,0,0,0.1-0.1,0.1c-0.1,0.1-0.1,0.2-0.2,0.3l-0.1,0.1c-0.1,0.1-0.1,0.1-0.2,0.2l-0.1,0.1c-0.1,0.1-0.2,0.2-0.3,0.2l14.3-8.3
	c0.1-0.1,0.2-0.2,0.3-0.2l0.1-0.1c0.1-0.1,0.2-0.1,0.2-0.2l0.1-0.1c0.1-0.1,0.1-0.2,0.2-0.3c0,0,0-0.1,0.1-0.1
	c0.1-0.1,0.1-0.3,0.2-0.4c0.1-0.1,0.1-0.2,0.1-0.3v-0.1v-0.1v-0.1c0-0.1,0.1-0.2,0.1-0.3v-0.1c0,0,0,0,0-0.1v-0.1c0-0.1,0-0.2,0-0.3
	v-0.1c0,0,0,0,0-0.1V79c0-0.1,0-0.2,0-0.3c0-0.1,0-0.2,0-0.3l0.1-29.2C400,48.6,400,48.5,400,48.4z"/>
<path class="st0" d="M379.2,45.7c3.6,2.1,6.4,7.1,6.4,11.2l-0.1,29.2c0,2.1-0.8,3.6-1.9,4.2c-1.2,0.7-2.8,0.6-4.6-0.4l-37.8-21.4
	c-1.8-1-3.4-2.8-4.7-4.9L322,38.3c-1.7-2.8-1.6-5.9,0-6.8l14.8-8.4c1.2-0.7,2.9-0.6,4.7,0.4L379.2,45.7z M339.7,49
	c1.9-1.1,1.9-4.6,0-7.9c-0.9-1.7-2.2-2.9-3.4-3.6c-1.2-0.7-2.4-0.9-3.4-0.3c-1.9,1.1-1.9,4.6,0,7.9c0.9,1.7,2.2,2.9,3.4,3.5
	C337.4,49.3,338.7,49.5,339.7,49z"/>
<path class="st1" d="M385.7,80.1V74c-4.3,4.2-7.1,4.3-8.6,3.6c-0.1-0.1-0.2-0.1-0.3-0.2c2.9-0.4,5-2,4.8-5.1c0-0.8-0.4-1.6-1-2.2
	c-1-1.1-2-1.8-2.8-2.3c-2.3-1.3-4-0.7-4.8,0.8c-0.7,1.1-0.9,2.9-0.7,4.8c-0.7,0-1.4-0.1-2.3-0.2c-2.4-0.4-4.4-1.2-5.8-2
	c-1-0.6-1.7-1.1-1.9-1.6c4.2-0.9,6.3-4.3,5.3-9.2c-0.1-0.6-0.3-1.1-0.7-1.6c-1-1.2-1.9-2.1-2.9-2.7c-1.2-0.7-2.2-0.8-3.2-0.2
	c-2,1.2-2.9,5.4-2.6,9.6c-1.7,0-3.2-0.6-4.7-1.3c-1.2-0.7-2.3-1.7-3.1-2.9c-0.8-1.2-1.2-2.7-1.4-4.3c0.8-0.3,1.6-0.7,2.2-1.2
	c4-3,4.7-7.8,3.4-11.2c-0.6-1.8-1.6-3.1-2.8-3.8c0,0-0.1,0-0.1-0.1c-0.9-0.4-2.4-0.9-3.6,1.6c-1.9,4.2-2.7,7.9-2.8,11
	c-3.3,0.7-7.6-0.3-11.8-2.8c-2.6-1.4-5-3.3-7.2-5.8c-0.2-0.2-0.4-0.4-0.7-0.6c-0.3-0.2-0.7-0.2-1-0.2l3.9,6.9
	c1.6,1.3,3.2,2.4,4.9,3.4c4.2,2.4,8.6,3.7,12.1,3.3c0.4,2.2,1.3,4,2.2,5.4c1.4,2.2,3.2,3.9,5.1,5c1.9,1.1,3.9,1.7,5.8,1.8l0.1,0.2
	c1,2.2,2.8,3.8,4.7,4.9c2.7,1.6,5.6,2.2,6.9,2.4c0.8,0.1,1.7,0.2,2.6,0.3c0.3,0.6,0.7,1.2,1.1,1.7c0.7,0.9,1.4,1.7,2.4,2.2
	C379.1,82.7,382,82.8,385.7,80.1z M351.7,45.3c0.1-0.3,0.2-0.4,0.3-0.7c0.2,1.3,0.1,4.1-2.3,6.5C350,49.3,350.7,47.3,351.7,45.3z
	 M363.2,59.9c0.2-0.1,0.4-0.2,0.9,0c0.1,0.1,0.3,0.2,0.4,0.3c0.1,2.4-1.2,3.9-3,4.7C361.7,62.7,362.2,60.5,363.2,59.9z M375.6,73.1
	c0.1-0.5,0.2-0.8,0.3-1.1c0.4-0.7,1-0.8,1.9-0.3l0.1,0.1C377.6,72.3,376.8,72.8,375.6,73.1z"/>
<path class="st8" d="M337.4,40.9c-9,5.2-23.7,5.2-32.7,0c-2.9-1.7-4.9-3.7-5.9-5.8c-2.2-4.6-0.3-9.6,5.8-13.1
	c5.2-3,12.5-4.3,19.2-3.8c4.9,0.3,9.7,1.7,13.5,3.8"/>
<path class="st0" d="M101.4,229.2c-2.4,4.9-4.2,7-5.4,7.8c-0.6,0.3-1,0.3-1.3,0.3c-0.2,0-0.4-0.1-0.6-0.2c-0.4,0.4-0.9,1-1.3,1.4
	c-0.7,0.7-2.2,2.1-3.7,3c-1,0.6-2,0.9-2.6,0.2l-0.1-0.1c-1,1.1-2.1,2-3.1,2.6c-1,0.6-2,0.9-2.8,0.6c-0.4-0.2-1-0.7-1.2-1.6
	c-1.6,1.9-3.3,3.6-5.2,4.9l-0.3,0.8c-1.2,3.5,0.4,5.8,3.1,4.3l3.7-2c1.2-0.7,2.3-0.6,3,0.2l2,2.4c0.7,0.9,1.9,0.9,3.1,0.2
	c1.2-0.7,2.3-2,3.1-3.7l1.9-4.7c0.7-1.6,1.8-2.9,2.9-3.7l3.7-2.2c2.7-1.7,4.3-5.9,3-7.9L101.4,229.2
	C101.4,229.3,101.4,229.3,101.4,229.2z M96.1,231.3c-0.4,0.2-0.8,0.7-1,1.3c-0.1,0.2-0.1,0.6-0.2,0.8
	C95.6,232.7,96,231.9,96.1,231.3z M88.8,233.6c-0.2,0.1-0.3,0.3-0.4,0.6c-0.6,1-0.8,2.4-0.9,3.7c0.9-1.4,1.7-3.1,1.6-4.3
	C88.9,233.5,88.9,233.5,88.8,233.6z M82.2,232.9c-0.1,0.1-0.1,0.3-0.2,0.6c-0.4,1.7-0.9,3.1-1.1,4.3
	C82.3,235.1,82.3,233.5,82.2,232.9z M88.4,215.4c-1.2,0.7-2.3,2-3.1,3.7l-1.9,4.7c-0.7,1.6-1.8,2.9-2.9,3.7l-3.7,2.2
	c-2.7,1.7-4.3,5.9-3,7.9l1.8,2.7c0.6,0.9,0.6,2.3,0,3.9l-0.3,1c1.4-1.1,2.8-2.6,3.9-4.1c0-1.7,0.4-4.1,1.4-7.6c0.6-2,1.4-2.8,1.9-3
	c0.7-0.3,1.1-0.2,1.4,0.3c0.7,1.1,0.3,4.1-1.9,8.2c-0.3,0.7-0.8,1.3-1.2,2c0.1,0.8,0.3,1.2,0.8,1.4c0.4,0.1,1,0,1.7-0.3
	c0.8-0.4,1.7-1.2,2.6-2.2c-0.2-2,0.2-4.8,1.3-6.7c0.6-0.9,1.1-1.6,1.8-1.9c0.4-0.3,1-0.4,1.6-0.3c0.2,0,0.3,0.2,0.3,0.4
	c0.6,2-0.6,5.1-2.9,8.2c0.1,0.1,0.4,0,1-0.3c0.8-0.4,1.8-1.2,3.1-2.6c0.4-0.4,0.9-0.9,1.2-1.3c-0.1-0.9,0-2,0.3-3
	c0.4-1.2,1.3-2.7,2.6-3.3c0.4-0.2,1-0.4,1.6-0.4c0.3,0,0.6,0.2,0.6,0.6c0.1,1.6-1,3.7-2.6,5.7c0,0,0.1,0,0.1-0.1
	c0.8-0.4,2.4-2.4,4.9-7.9c0.1-0.2,0.2-0.3,0.3-0.6c0.1-0.3,0.2-0.8,0.3-1.2l1.7-4.7c1.2-3.4-0.4-5.8-3.1-4.3l-3.7,2
	c-1.2,0.7-2.3,0.6-3-0.2l-2-2.4C90.7,214.8,89.6,214.8,88.4,215.4z"/>
<path class="st3" d="M95,233.5c0-0.2,0.1-0.6,0.2-0.8c0.2-0.7,0.6-1.1,1-1.3h0.1C96,231.9,95.6,232.7,95,233.5z M87.5,237.8
	c0-1.2,0.3-2.8,0.9-3.7c0.1-0.2,0.2-0.4,0.4-0.6c0.1,0,0.1-0.1,0.2-0.1C89.1,234.7,88.4,236.3,87.5,237.8z M81,237.8
	c0.2-1.2,0.6-2.7,1.1-4.3c0.1-0.2,0.1-0.4,0.2-0.6C82.3,233.5,82.3,235.1,81,237.8z M82.3,230.6C82.3,230.6,82.3,230.7,82.3,230.6
	c-0.6,0.3-1.3,1.1-1.9,3c-1,3.4-1.4,5.9-1.4,7.6c-1.1,1.6-2.4,3-3.9,4.1c-0.8,0.7-1.7,1.2-2.4,1.7c-1.3,0.8-2.7,1.2-3.9,1.3
	c-0.1,0-0.2,0-0.3,0.1c-0.3,0.2-0.7,0.7-0.8,1.1c-0.2,0.7,0,1.1,0.4,1.1c1.4-0.1,3-0.7,4.6-1.7c0.4-0.2,0.9-0.5,1.3-0.9
	c1.8-1.2,3.7-3,5.2-4.9c0.2,0.9,0.8,1.3,1.2,1.6c0.8,0.3,1.8,0.1,2.8-0.6c1-0.6,2.1-1.6,3.1-2.6l0.1,0.1c0.6,0.6,1.4,0.3,2.6-0.2
	c1.4-0.9,3-2.3,3.7-3c0.4-0.4,0.9-0.9,1.3-1.4c0.2,0.1,0.3,0.2,0.6,0.2c0.3,0,0.8,0,1.3-0.3c1.3-0.8,3.1-2.9,5.4-7.8
	c0.2-0.6,0.6-1.1,0.9-1.8c0.3-0.7,0.2-1.2-0.2-1.3c-0.1,0-0.3,0-0.6,0.1c-0.1,0.1-0.2,0.2-0.4,0.3c-0.1,0.1-0.2,0.3-0.3,0.6
	c-2.4,5.3-4.1,7.3-4.9,7.9l-0.1,0.1c1.6-2,2.7-4.1,2.6-5.7c0-0.3-0.2-0.6-0.6-0.6c-0.6,0.1-1,0.2-1.6,0.4c-1.2,0.8-2.1,2.1-2.6,3.3
	c-0.3,1-0.4,2.1-0.3,3c-0.3,0.4-0.8,0.9-1.2,1.3c-1.3,1.3-2.3,2.1-3.1,2.6c-0.6,0.3-0.9,0.4-1,0.3c2.3-3.1,3.3-6.2,2.9-8.2
	c-0.1-0.2-0.2-0.3-0.3-0.4c-0.6-0.1-1,0-1.6,0.3c-0.7,0.3-1.2,1-1.8,1.9c-1,1.9-1.6,4.8-1.3,6.7c-0.9,1-1.8,1.8-2.6,2.2
	c-0.7,0.3-1.2,0.6-1.7,0.3c-0.4-0.2-0.7-0.7-0.8-1.4c0.4-0.7,0.8-1.3,1.2-2c2.1-4.1,2.4-7,1.9-8.2C83.5,230.3,82.9,230.2,82.3,230.6
	z"/>
</svg>
