<svg width="499" height="430" viewBox="0 0 499 430" fill="none" xmlns="http://www.w3.org/2000/svg">
<path d="M150.877 106.908C150.877 107.151 150.877 107.394 150.877 107.637C150.877 107.88 150.877 108.001 150.756 108.244C150.756 108.487 150.634 108.73 150.634 108.973C150.634 109.216 150.513 109.337 150.513 109.58C150.513 109.823 150.392 110.066 150.392 110.309C150.392 110.552 150.27 110.674 150.149 110.917C150.027 111.16 150.027 111.403 149.906 111.645C149.785 111.888 149.785 112.01 149.663 112.253C149.542 112.496 149.421 112.739 149.421 112.982C149.299 113.225 149.178 113.346 149.178 113.589C149.056 113.832 148.935 114.075 148.814 114.318C148.692 114.561 148.571 114.682 148.449 114.925C148.328 115.168 148.085 115.533 147.964 115.776C147.843 115.897 147.721 116.14 147.6 116.261C147.357 116.626 147.114 116.869 146.872 117.233C146.75 117.355 146.629 117.476 146.629 117.598C146.265 118.084 145.779 118.569 145.415 119.055C145.294 119.177 145.172 119.298 145.051 119.42C144.687 119.784 144.322 120.149 143.958 120.513C143.837 120.635 143.594 120.877 143.473 120.999C143.23 121.242 142.987 121.363 142.745 121.606C142.502 121.849 142.259 121.971 142.138 122.214C141.895 122.457 141.652 122.578 141.409 122.821C141.167 122.943 140.924 123.185 140.681 123.307C140.438 123.55 140.196 123.671 139.831 123.914C139.589 124.036 139.346 124.279 139.103 124.4C138.86 124.643 138.496 124.765 138.253 125.008C137.889 125.251 137.525 125.493 137.161 125.736C136.433 126.101 135.704 126.587 134.976 126.951C134.733 127.073 134.491 127.194 134.369 127.316C133.762 127.559 133.155 127.923 132.548 128.166C132.306 128.287 132.184 128.409 131.942 128.409C131.213 128.773 130.364 129.016 129.514 129.381C129.393 129.381 129.271 129.502 129.028 129.502C128.3 129.745 127.693 129.988 126.965 130.231C126.722 130.352 126.358 130.474 126.115 130.474C125.751 130.595 125.387 130.717 124.901 130.838C124.537 130.96 124.295 131.081 123.93 131.081C123.566 131.203 123.081 131.324 122.717 131.446C122.352 131.567 122.11 131.567 121.745 131.689C121.381 131.81 120.896 131.932 120.532 131.932C120.168 132.053 119.925 132.053 119.561 132.175C119.196 132.296 118.711 132.296 118.347 132.417C117.983 132.417 117.74 132.539 117.376 132.539C116.526 132.66 115.555 132.782 114.705 133.025C114.584 133.025 114.463 133.025 114.341 133.025C113.613 133.146 112.763 133.268 111.914 133.268C111.671 133.268 111.307 133.268 111.064 133.389C110.578 133.389 110.093 133.511 109.486 133.511C109.122 133.511 108.879 133.511 108.515 133.632C108.029 133.632 107.422 133.632 106.937 133.754C106.694 133.754 106.33 133.754 106.087 133.754C105.602 133.754 105.116 133.754 104.752 133.754C104.388 133.754 104.145 133.754 103.781 133.754C103.295 133.754 102.81 133.754 102.324 133.754C102.082 133.754 101.718 133.754 101.475 133.754C100.989 133.754 100.625 133.754 100.14 133.754C99.7754 133.754 99.5326 133.754 99.1685 133.754C98.683 133.754 98.1975 133.632 97.7119 133.632C97.4692 133.632 97.105 133.632 96.8623 133.632C96.2553 133.632 95.6484 133.511 95.0415 133.511C94.9202 133.511 94.6774 133.511 94.556 133.511C93.8277 133.389 93.0994 133.389 92.2497 133.268C92.1284 133.268 92.007 133.268 91.8856 133.268C91.2787 133.146 90.5504 133.025 89.9435 132.903C89.7007 132.903 89.458 132.782 89.0938 132.782C88.6083 132.66 88.1228 132.66 87.6372 132.539C87.3945 132.539 87.1517 132.417 86.909 132.417C86.4234 132.296 85.8165 132.175 85.331 132.053C85.0882 131.932 84.7241 131.932 84.4813 131.81C83.9958 131.689 83.5103 131.567 83.0247 131.446C82.782 131.324 82.5392 131.324 82.1751 131.203C81.4468 130.96 80.7185 130.717 79.9902 130.474C79.8688 130.474 79.7474 130.352 79.6261 130.352C78.7764 130.109 77.9267 129.745 77.077 129.381C76.7129 129.259 76.4701 129.138 76.106 129.016C75.8632 128.895 75.6205 128.773 75.3777 128.652C75.0135 128.53 74.6494 128.287 74.2853 128.166C74.0425 128.044 73.7997 127.923 73.557 127.801C73.1928 127.559 72.7073 127.437 72.3432 127.194C72.1004 127.073 71.979 126.951 71.7362 126.951C71.1293 126.587 70.6438 126.344 70.0369 125.979C65.9099 123.671 62.754 120.877 60.4477 118.084C59.8408 117.233 59.2339 116.383 58.7484 115.533C58.5056 115.168 58.2629 114.682 58.0201 114.196C56.6849 111.645 56.078 108.973 56.078 106.301L55.7139 183.922C55.7139 190.968 60.3264 198.135 69.6728 203.48C70.2797 203.844 70.7652 204.087 71.3721 204.451C71.6149 204.573 71.7362 204.694 71.979 204.694C72.3432 204.937 72.7073 205.059 73.1928 205.302C73.4356 205.423 73.6784 205.545 73.9211 205.666C74.2853 205.788 74.6494 206.031 75.0136 206.152C75.2563 206.274 75.4991 206.395 75.7418 206.517C75.9846 206.638 76.2274 206.759 76.4701 206.881C76.5915 206.881 76.5915 206.881 76.7129 207.002C77.5626 207.367 78.4122 207.61 79.2619 207.974C79.3833 207.974 79.5047 208.096 79.6261 208.096C80.3543 208.339 81.0826 208.582 81.9323 208.825C82.0537 208.825 82.1751 208.946 82.2965 208.946C82.4178 208.946 82.5392 209.067 82.782 209.067C83.2675 209.189 83.753 209.31 84.2386 209.432C84.4813 209.553 84.8455 209.553 85.0882 209.675C85.5738 209.796 86.1807 209.918 86.6662 210.039C86.909 210.039 87.0303 210.161 87.2731 210.161H87.3945C87.88 210.282 88.3655 210.404 88.8511 210.404C89.0938 210.404 89.3366 210.525 89.5794 210.525C90.1863 210.647 90.9146 210.768 91.5215 210.89C91.6428 210.89 91.7642 210.89 91.8856 210.89C92.6139 211.011 93.3422 211.132 94.1919 211.132C94.3132 211.132 94.556 211.132 94.6774 211.132C95.2843 211.254 95.8912 211.254 96.4981 211.254C96.7409 211.254 96.9836 211.254 97.2264 211.254C97.7119 211.254 98.1975 211.375 98.683 211.375C99.0471 211.375 99.2899 211.375 99.654 211.375C100.14 211.375 100.504 211.375 100.989 211.375H101.111C101.353 211.375 101.596 211.375 101.839 211.375C102.324 211.375 102.81 211.375 103.295 211.375C103.66 211.375 103.902 211.375 104.267 211.375C104.752 211.375 105.238 211.375 105.602 211.375C105.723 211.375 105.723 211.375 105.844 211.375C106.087 211.375 106.33 211.375 106.451 211.375C106.937 211.375 107.544 211.375 108.029 211.254C108.394 211.254 108.636 211.254 109 211.132C109.486 211.132 109.971 211.011 110.578 211.011C110.7 211.011 110.943 211.011 111.064 211.011C111.185 211.011 111.307 211.011 111.428 211.011C112.278 210.89 113.006 210.89 113.856 210.768C113.977 210.768 114.098 210.768 114.22 210.768C115.07 210.647 116.041 210.525 116.89 210.282C117.012 210.282 117.012 210.282 117.133 210.282C117.376 210.282 117.619 210.161 117.861 210.161C118.225 210.039 118.711 210.039 119.075 209.918C119.439 209.796 119.803 209.796 120.046 209.675C120.41 209.553 120.896 209.432 121.26 209.432C121.624 209.31 121.867 209.31 122.231 209.189C122.595 209.067 123.081 208.946 123.445 208.825C123.809 208.703 124.052 208.582 124.416 208.582C124.78 208.46 125.144 208.339 125.63 208.217C125.751 208.217 125.994 208.096 126.115 208.096C126.237 208.096 126.358 207.974 126.479 207.974C127.208 207.731 127.815 207.488 128.543 207.245C128.664 207.245 128.786 207.124 129.028 207.124C129.878 206.759 130.606 206.517 131.456 206.152C131.699 206.031 131.82 206.031 132.063 205.909C132.67 205.666 133.277 205.423 133.884 205.059C134.126 204.937 134.369 204.816 134.491 204.694C135.219 204.33 135.947 203.966 136.675 203.48C136.918 203.358 137.04 203.237 137.282 203.115C137.404 202.994 137.646 202.872 137.768 202.751C138.011 202.629 138.375 202.386 138.618 202.143C138.86 202.022 139.103 201.779 139.346 201.658C139.589 201.415 139.831 201.293 140.196 201.05C140.438 200.929 140.681 200.686 140.924 200.564C141.167 200.321 141.409 200.2 141.652 199.957C141.895 199.835 142.138 199.592 142.259 199.35C142.502 199.107 142.745 198.985 142.987 198.742C143.109 198.621 143.23 198.621 143.23 198.499C143.351 198.378 143.351 198.378 143.473 198.256C143.837 197.892 144.201 197.527 144.565 197.163C144.687 197.042 144.808 196.92 144.929 196.799C145.415 196.313 145.779 195.827 146.143 195.341C146.143 195.341 146.143 195.341 146.143 195.219C146.265 195.098 146.265 194.976 146.386 194.855C146.629 194.491 146.871 194.248 147.114 193.883C147.236 193.762 147.357 193.519 147.478 193.397C147.6 193.154 147.843 192.79 147.964 192.547C147.964 192.426 148.085 192.426 148.085 192.304C148.207 192.183 148.207 192.061 148.207 191.94C148.328 191.697 148.449 191.454 148.571 191.211C148.692 190.968 148.814 190.846 148.814 190.603C148.935 190.36 149.056 190.118 149.178 189.875C149.178 189.753 149.299 189.632 149.299 189.51C149.299 189.389 149.421 189.267 149.421 189.267C149.542 189.024 149.542 188.781 149.663 188.538C149.785 188.295 149.785 188.174 149.906 187.931C150.027 187.688 150.027 187.445 150.027 187.202C150.027 187.081 150.149 186.959 150.149 186.838C150.149 186.716 150.149 186.716 150.149 186.595C150.149 186.352 150.27 186.109 150.27 185.866C150.27 185.623 150.27 185.502 150.392 185.259C150.392 185.016 150.392 184.773 150.392 184.53C150.392 184.408 150.392 184.287 150.392 184.165C150.392 184.044 150.392 183.922 150.392 183.801L150.634 105.572C150.877 106.301 150.877 106.544 150.877 106.908Z" fill="#9AF4DC"/>
<path d="M136.797 86.3788C155.369 97.0685 155.49 114.561 137.04 125.25C118.59 135.94 88.4873 135.94 69.9159 125.25C51.3445 114.561 51.2231 97.0685 69.6731 86.3788C88.1231 75.6891 118.226 75.6891 136.797 86.3788Z" fill="white"/>
<path d="M57.8988 113.71C53.0435 104.357 57.0491 93.7887 69.6728 86.3788C88.1228 75.6891 118.225 75.6891 136.797 86.3788C149.785 93.9102 153.79 104.721 148.692 114.196" stroke="#171A21" stroke-width="2" stroke-miterlimit="10" stroke-linecap="round" stroke-linejoin="round"/>
<path d="M131.335 89.7801C146.871 98.0403 146.993 111.402 131.577 119.663C116.162 127.923 90.9144 127.923 75.3776 119.663C59.8407 111.402 59.7193 98.0403 75.2562 89.7801C90.6717 81.5199 115.798 81.5199 131.335 89.7801Z" fill="#2F58FF"/>
<path d="M56.3207 179.914C59.2339 180.885 63.2395 178.577 66.0312 176.877C66.8809 176.391 67.852 176.391 68.7016 176.877L69.4299 177.241C71.2507 178.335 71.2506 181.007 69.3085 181.979C66.7595 183.315 63.8464 184.408 61.7829 183.193L55.7138 179.671C55.9566 179.792 56.1993 179.792 56.3207 179.914ZM43.9398 175.541C44.0612 185.623 46.4888 189.51 55.3497 194.491C46.8529 189.632 49.6447 172.382 51.8296 164.972C54.8641 155.012 61.4187 147.966 69.6727 142.5C71.372 141.407 71.2506 138.977 69.5513 137.884L68.7016 137.398C67.852 136.912 66.7595 136.912 65.9099 137.398C51.951 146.023 43.697 158.534 43.9398 175.541Z" fill="white"/>
<path d="M69.6728 142.5C71.3721 141.407 71.2507 138.977 69.5514 137.884L68.7017 137.398C67.852 136.912 66.7596 136.912 65.9099 137.398C51.8297 146.023 43.6971 158.534 43.9399 175.541C44.0612 185.623 46.4889 189.51 55.3497 194.491" fill="white"/>
<path d="M55.8353 179.671C55.9566 179.792 56.1994 179.792 56.3208 179.914C59.2339 180.885 63.2395 178.577 66.0313 176.877C66.881 176.391 67.852 176.391 68.7017 176.877L69.43 177.241C71.2507 178.335 71.2507 181.007 69.3086 181.979M69.6728 142.5C71.3721 141.407 71.2507 138.977 69.5514 137.884L68.7017 137.398C67.852 136.912 66.7596 136.912 65.9099 137.398C51.8297 146.023 43.6971 158.534 43.9399 175.541C44.0612 185.623 46.4889 189.51 55.3497 194.491" stroke="#171A21" stroke-width="2" stroke-miterlimit="10" stroke-linecap="round" stroke-linejoin="round"/>
<path d="M73.3144 144.929C73.3144 142.864 70.8867 141.528 69.1874 142.621C64.6963 145.537 60.812 148.816 57.5347 153.19C52.4367 160.114 49.8877 168.495 49.8877 178.699C49.8877 188.903 52.4367 194.369 57.6561 195.341C61.5403 196.07 66.2742 194.248 72.1005 190.968C72.9502 190.482 73.5571 189.632 73.4357 188.66V184.044C73.4357 182.1 71.3723 180.764 69.5515 181.614C66.8811 182.951 64.4535 183.801 62.7542 183.437C61.9045 183.315 59.2341 182.708 59.1127 173.354C59.1127 163.879 61.7831 160.235 62.6328 159.142C64.8176 156.226 68.3377 153.797 71.9792 151.61C72.8288 151.124 73.3144 150.274 73.3144 149.302V144.929Z" fill="#2F58FF"/>
<path d="M112.399 144.929L125.023 165.701L121.017 183.679L121.624 194.49L114.098 208.946L110.214 202.143L112.642 189.51L105.602 175.298L99.7754 174.083" stroke="#171A21" stroke-width="2" stroke-miterlimit="10" stroke-linecap="round" stroke-linejoin="round"/>
<path d="M129.271 149.667L130.97 157.077L125.022 165.701" stroke="#171A21" stroke-width="2" stroke-miterlimit="10" stroke-linecap="round" stroke-linejoin="round"/>
<path d="M16 246.733C16 246.611 16 246.49 16 246.368C16 246.247 16 246.126 16 246.004V245.883C16 245.883 16 245.883 16 245.761C16 245.64 16 245.64 16 245.518C16 245.397 16 245.275 16 245.154C16 245.032 16 244.911 16 244.911C16 244.911 16 244.911 16 244.789C16 244.789 16 244.789 16 244.668C16 244.546 16 244.425 16.1214 244.303C16.1214 244.182 16.1214 244.06 16.2428 243.939C16.2428 243.818 16.2428 243.696 16.3641 243.575C16.3641 243.453 16.4855 243.332 16.4855 243.089V242.967V242.846C16.4855 242.724 16.4855 242.724 16.4855 242.603C16.4855 242.481 16.6069 242.36 16.6069 242.238C16.6069 242.117 16.7283 241.995 16.7283 241.874C16.7283 241.752 16.8497 241.631 16.8497 241.51C16.8497 241.388 16.9711 241.267 16.9711 241.145C16.9711 241.145 16.9711 241.024 17.0924 241.024C17.0924 241.024 17.0924 241.024 17.0924 240.902C17.0924 240.902 17.0924 240.781 17.2138 240.781C17.2138 240.659 17.3352 240.538 17.4566 240.416C17.578 240.295 17.578 240.173 17.6994 240.052C17.8207 239.93 17.8207 239.687 17.9421 239.566C18.0635 239.323 18.1849 239.201 18.3063 238.959V238.837C18.549 238.473 18.7918 238.108 19.0345 237.744C19.1559 237.501 19.2773 237.258 19.5201 237.136C19.6415 237.015 19.7628 236.893 19.7628 236.772C19.8842 236.651 20.0056 236.529 20.127 236.408C20.2484 236.286 20.3697 236.165 20.4911 236.043C20.6125 235.922 20.7339 235.8 20.8553 235.679L20.9767 235.557L21.098 235.436C21.2194 235.314 21.3408 235.193 21.4622 235.071C21.5836 234.95 21.7049 234.828 21.8263 234.707C21.9477 234.585 22.0691 234.464 22.1905 234.343C22.3119 234.221 22.3118 234.221 22.4332 234.1C22.4332 234.1 22.4332 234.1 22.5546 234.1C22.676 233.978 22.7974 233.857 22.9187 233.857C23.0401 233.735 23.1615 233.735 23.2829 233.614C23.4043 233.492 23.5257 233.492 23.647 233.371C23.7684 233.249 23.8898 233.249 24.0112 233.128C24.0112 233.128 24.0112 233.128 24.1326 233.128C24.2539 233.128 24.254 233.006 24.3753 233.006C24.4967 233.006 24.6181 232.885 24.7395 232.885C24.7395 232.885 24.8609 232.885 24.8609 232.763C24.8609 232.763 24.8609 232.763 24.9823 232.763H25.1036C25.225 232.763 25.3464 232.642 25.4678 232.642C25.5892 232.642 25.7105 232.52 25.7105 232.52C25.8319 232.52 25.9533 232.399 26.0747 232.399C26.1961 232.399 26.3174 232.277 26.4388 232.277C26.5602 232.277 26.5602 232.277 26.6816 232.277C26.803 232.277 26.9244 232.277 27.0457 232.277H27.1671C27.1671 232.277 27.1671 232.277 27.2885 232.277H27.4099C27.5313 232.277 27.6526 232.277 27.774 232.277C27.774 232.277 27.774 232.277 27.8954 232.277H28.0168C28.1382 232.277 28.1382 232.277 28.2596 232.277C28.3809 232.277 28.5023 232.277 28.6237 232.277H28.7451C28.9878 232.277 29.1092 232.399 29.352 232.399C29.5947 232.52 29.8375 232.52 29.9589 232.642L38.577 237.622L47.1951 222.681C47.1951 222.681 47.1951 222.681 47.1951 222.56C47.4378 222.195 47.6806 221.831 47.9234 221.466C48.0448 221.223 48.1661 220.98 48.4089 220.859C48.5303 220.737 48.6517 220.616 48.6517 220.495C48.7731 220.373 48.8944 220.252 49.0158 220.13C49.1372 220.009 49.2586 219.887 49.38 219.766C49.5013 219.644 49.6227 219.523 49.7441 219.401L49.8655 219.28L49.9869 219.158C50.1082 219.037 50.2296 218.915 50.351 218.794C50.4724 218.672 50.5938 218.551 50.7152 218.429C50.8365 218.308 50.9579 218.187 51.0793 218.065C51.2007 217.944 51.2007 217.944 51.3221 217.822C51.3221 217.822 51.3221 217.822 51.4434 217.822C51.5648 217.701 51.6862 217.579 51.8076 217.579C51.929 217.458 52.0504 217.458 52.1717 217.336C52.2931 217.215 52.4145 217.215 52.5359 217.093C52.6573 216.972 52.7786 216.972 52.9 216.85C52.9 216.85 52.9 216.85 53.0214 216.85C53.1428 216.85 53.1428 216.729 53.2642 216.729C53.3855 216.729 53.5069 216.607 53.6283 216.607C53.6283 216.607 53.7497 216.607 53.7497 216.486C53.7497 216.486 53.7497 216.486 53.8711 216.486H53.9925C54.1138 216.486 54.2352 216.364 54.3566 216.364C54.478 216.364 54.5994 216.243 54.5994 216.243C54.7207 216.243 54.8421 216.121 54.9635 216.121C55.0849 216.121 55.2063 216 55.3277 216C55.3277 216 55.3277 216 55.449 216C55.449 216 55.449 216 55.5704 216C55.6918 216 55.6918 216 55.8132 216C55.9346 216 56.056 216 56.1773 216H56.2987C56.2987 216 56.2987 216 56.4201 216H56.5415C56.6629 216 56.7842 216 56.9056 216C56.9056 216 56.9056 216 57.027 216H57.1484C57.2698 216 57.2698 216 57.3911 216C57.5125 216 57.6339 216 57.7553 216C57.7553 216 57.7553 216 57.8767 216C58.1194 216 58.2408 216.121 58.4836 216.121C58.7263 216.243 58.9691 216.243 59.0905 216.364L78.8757 227.904C78.6329 227.783 78.5115 227.661 78.2688 227.661C78.026 227.54 77.9046 227.54 77.6619 227.54C77.6619 227.54 77.6619 227.54 77.5405 227.54C77.2977 227.54 77.1763 227.54 76.9336 227.54H76.8122C76.5694 227.54 76.4481 227.54 76.2053 227.54C76.2053 227.54 76.2053 227.54 76.0839 227.54C75.8411 227.54 75.5984 227.661 75.477 227.661C75.477 227.661 75.477 227.661 75.3556 227.661C75.1129 227.661 74.8701 227.783 74.6273 227.904C74.3846 228.026 74.1418 228.147 73.899 228.147C73.899 228.147 73.8991 228.147 73.7777 228.147C73.5349 228.269 73.2921 228.39 73.0494 228.512C72.5638 228.755 72.0783 229.119 71.4714 229.605C70.9859 229.969 70.5004 230.455 70.0148 230.941C69.5293 231.427 69.0438 232.035 68.6796 232.52C68.1941 233.128 67.83 233.735 67.4658 234.464L58.9691 249.162L59.2119 249.284L78.9971 260.824L70.379 255.843L58.9691 249.162V249.284L50.351 244.303C50.1082 244.182 49.9869 244.06 49.7441 244.06C49.5013 243.939 49.38 243.939 49.1372 243.939H49.0158C48.8944 243.939 48.6517 243.939 48.4089 243.939H48.2875C48.0448 243.939 47.9234 243.939 47.6806 243.939C47.6806 243.939 47.6806 243.939 47.5592 243.939C47.3165 243.939 47.0737 244.06 46.8309 244.06C46.5882 244.06 46.3454 244.182 46.1026 244.303C45.8599 244.425 45.6171 244.546 45.3744 244.546C45.3744 244.546 45.3744 244.546 45.253 244.546C45.0102 244.668 44.7674 244.789 44.5247 244.911C44.0392 245.154 43.5536 245.518 42.9467 246.004C42.4612 246.368 41.9757 246.854 41.4901 247.34C41.0046 247.826 40.5191 248.434 40.155 248.919C39.6694 249.527 39.3053 250.134 38.9411 250.863C38.6984 251.227 38.577 251.592 38.4556 251.835C38.3342 252.199 38.0915 252.442 37.9701 252.807C37.9701 252.807 37.9701 252.807 37.9701 252.928C37.8487 253.292 37.7273 253.535 37.6059 253.9C37.4846 254.264 37.3632 254.507 37.2418 254.872C37.2418 254.872 37.2418 254.872 37.2418 254.993C37.1204 255.358 37.1204 255.6 36.999 255.965C36.8776 256.329 36.8776 256.572 36.8776 256.937C36.8776 256.937 36.8776 256.937 36.8776 257.058C36.8776 257.301 36.7563 257.666 36.7563 257.908C36.7563 257.908 36.7563 257.908 36.7563 258.03C36.7563 258.273 36.7563 258.637 36.7563 258.88C36.7563 259.123 36.7563 259.488 36.7563 259.731C36.7563 259.974 36.7563 260.216 36.8776 260.459C36.8776 260.459 36.8776 260.459 36.8776 260.581C36.8776 260.824 36.999 261.067 36.999 261.31C36.999 261.31 36.999 261.31 36.999 261.431C36.999 261.674 37.1204 261.796 37.2418 262.039V262.16C37.3632 262.282 37.3632 262.403 37.4845 262.646C37.4845 262.646 37.4846 262.767 37.6059 262.767C37.6059 262.767 37.6059 262.767 37.6059 262.889C37.7273 263.132 37.9701 263.375 38.0915 263.496L38.2128 263.618L38.3342 263.739L47.5592 269.084L38.9411 284.025C38.6984 284.39 38.577 284.633 38.4556 284.997C38.3342 285.362 38.0915 285.604 37.9701 285.969C37.9701 285.969 37.9701 285.969 37.9701 286.09C37.8487 286.455 37.7273 286.698 37.6059 287.062C37.4846 287.427 37.3632 287.67 37.2418 288.034C37.2418 288.034 37.2418 288.034 37.2418 288.155C37.1204 288.52 37.1204 288.763 36.999 289.127C36.8776 289.492 36.8776 289.735 36.8776 290.099C36.8776 290.099 36.8776 290.099 36.8776 290.22C36.8776 290.463 36.7563 290.828 36.7563 291.071C36.7563 291.071 36.7563 291.071 36.7563 291.192C36.7563 291.435 36.7563 291.8 36.7563 292.043C36.7563 292.286 36.7563 292.65 36.7563 292.893C36.7563 293.136 36.7563 293.379 36.8776 293.622C36.8776 293.622 36.8776 293.622 36.8776 293.743C36.8776 293.986 36.999 294.229 36.999 294.472C36.999 294.472 36.999 294.472 36.999 294.594C36.999 294.837 37.1204 294.958 37.2418 295.201V295.322C37.3632 295.444 37.3632 295.565 37.4845 295.808C37.4845 295.808 37.4846 295.93 37.6059 295.93C37.6059 295.93 37.6059 295.93 37.7273 296.051C37.8487 296.294 38.0915 296.537 38.2128 296.659L38.3342 296.78C38.577 297.023 38.8197 297.145 39.0625 297.266L19.2773 285.726C19.0345 285.604 18.7918 285.362 18.549 285.24L18.4276 285.119C18.1849 284.876 18.0635 284.754 17.9421 284.511C17.9421 284.511 17.9421 284.39 17.8207 284.39C17.6993 284.268 17.6993 284.147 17.578 284.025C17.578 284.025 17.578 284.025 17.578 283.904V283.782C17.578 283.661 17.4566 283.661 17.4566 283.539C17.4566 283.418 17.3352 283.296 17.3352 283.175C17.3352 283.175 17.3352 283.175 17.3352 283.054C17.3352 282.932 17.2138 282.811 17.2138 282.689C17.2138 282.568 17.2138 282.568 17.2138 282.446C17.2138 282.446 17.2138 282.446 17.2138 282.325C17.2138 282.325 17.2138 282.325 17.2138 282.203C17.2138 282.082 17.2138 281.96 17.2138 281.839C17.2138 281.717 17.2138 281.717 17.2138 281.596C17.2138 281.596 17.2138 281.596 17.2138 281.474C17.2138 281.353 17.2138 281.231 17.2138 281.11C17.2138 280.988 17.2138 280.867 17.2138 280.746C17.2138 280.624 17.2138 280.503 17.2138 280.381C17.2138 280.26 17.2138 280.138 17.2138 280.017V279.895C17.2138 279.895 17.2138 279.895 17.2138 279.774C17.2138 279.652 17.2138 279.652 17.2138 279.531C17.2138 279.409 17.2138 279.288 17.2138 279.166C17.2138 279.045 17.2138 278.923 17.2138 278.923C17.2138 278.923 17.2138 278.923 17.2138 278.802C17.2138 278.802 17.2138 278.802 17.2138 278.68C17.2138 278.559 17.2138 278.438 17.3352 278.316C17.3352 278.195 17.3352 278.073 17.4566 277.952C17.4566 277.83 17.4566 277.709 17.578 277.587C17.578 277.466 17.6994 277.344 17.6994 277.101V276.98C17.6994 276.98 17.6994 276.98 17.6994 276.858C17.6994 276.737 17.6994 276.737 17.6994 276.615C17.6994 276.494 17.8207 276.372 17.8207 276.251C17.8207 276.13 17.9421 276.008 17.9421 275.887C17.9421 275.765 18.0635 275.644 18.0635 275.522C18.0635 275.401 18.1849 275.279 18.1849 275.158C18.1849 275.158 18.1849 275.036 18.3063 275.036C18.3063 275.036 18.3063 275.036 18.3063 274.915C18.3063 274.915 18.3063 274.793 18.4276 274.793C18.4276 274.672 18.549 274.55 18.549 274.429C18.6704 274.307 18.6704 274.186 18.7918 274.064C18.9132 273.943 18.9132 273.822 19.0345 273.579C19.1559 273.336 19.2773 273.214 19.3987 272.971L27.8954 258.151L19.2773 253.171C19.0345 253.05 18.7918 252.807 18.549 252.685L18.4276 252.564C18.1849 252.321 18.0635 252.199 17.9421 251.956C17.9421 251.956 17.9421 251.835 17.8207 251.835C17.6993 251.713 17.6993 251.592 17.578 251.47C17.578 251.47 17.578 251.47 17.578 251.349V251.227C17.578 251.106 17.4566 251.106 17.4566 250.984C17.4566 250.863 17.3352 250.742 17.3352 250.742C17.3352 250.742 17.3352 250.742 17.3352 250.62C17.3352 250.499 17.2138 250.377 17.2138 250.256C17.2138 250.134 17.2138 250.134 17.2138 250.013C17.2138 250.013 17.2138 250.013 17.2138 249.891C17.2138 249.891 17.2138 249.891 17.2138 249.77C17.2138 249.648 17.2138 249.527 17.2138 249.405C17.2138 249.284 17.2138 249.284 17.2138 249.162C17.2138 249.041 17.2138 248.919 17.2138 248.798C16 247.097 16 246.976 16 246.733C16 246.854 16 246.854 16 246.733C16 246.854 16 246.854 16 246.733Z" fill="#9AF4DC"/>
<path d="M43.7965 244.303C41.733 245.518 39.6695 247.583 38.0916 250.377C34.9356 255.843 34.9356 261.796 38.0916 263.618L46.7097 268.598L38.0916 283.539C34.9356 289.006 34.9356 294.958 38.0916 296.78C39.6695 297.752 41.733 297.387 43.7965 296.173C45.86 294.958 47.9235 292.893 49.5014 290.099L58.1195 275.158L66.7376 280.138C68.3156 280.988 70.3791 280.745 72.4426 279.531C74.506 278.316 76.5695 276.251 78.1475 273.457C81.3034 267.991 81.3034 262.038 78.1475 260.216L69.5294 255.236L78.1475 240.295C81.3034 234.828 81.3034 228.876 78.1475 227.175C76.5695 226.204 74.506 226.568 72.4426 227.783C70.3791 228.998 68.3156 231.063 66.7376 233.857L58.2409 248.676L49.6228 243.696C47.9235 242.846 45.86 243.089 43.7965 244.303Z" fill="white"/>
<path d="M38.2126 283.296C35.0567 288.763 35.0567 294.715 38.2126 296.537C39.7906 297.509 41.8541 297.144 43.9176 295.93C45.9811 294.715 48.0446 292.65 49.6225 289.856L58.2406 274.915L66.8587 279.895C68.4367 280.745 70.5002 280.503 72.5637 279.288C74.6271 278.073 76.6906 276.008 78.2686 273.214C81.4245 267.748 81.4245 261.796 78.2686 259.973M78.2686 240.052C81.4245 234.585 81.4245 228.633 78.2686 226.933C76.6906 225.961 74.6271 226.325 72.5637 227.54" stroke="#171A21" stroke-width="2" stroke-miterlimit="10" stroke-linecap="round" stroke-linejoin="round"/>
</svg>
