<svg width="499" height="431" viewBox="0 0 499 431" fill="none" xmlns="http://www.w3.org/2000/svg">
<path d="M369.121 54.4203C364.873 56.8498 361.596 62.6805 361.596 67.5395L361.96 191.929C361.96 196.788 365.359 198.731 369.607 196.302L460.036 144.068C464.285 141.638 467.562 135.808 467.562 130.949L467.076 6.5596C467.076 1.70065 463.678 -0.242931 459.429 2.18655L369.121 54.4203Z" fill="white"/>
<path d="M459.915 144.189C464.163 141.76 467.44 135.929 467.44 131.07L467.076 6.5596C467.076 1.70065 463.678 -0.242931 459.429 2.18655L369 54.4203M369.121 54.4203C364.873 56.8498 361.596 62.6805 361.596 67.5394L361.838 135.929" stroke="#171A21" stroke-width="2" stroke-miterlimit="10" stroke-linecap="round" stroke-linejoin="round"/>
<path d="M446.32 80.1728C446.32 80.2943 446.32 80.4157 446.32 80.5372C446.32 80.6587 446.32 80.7802 446.32 80.9016C446.32 81.0231 446.32 81.1446 446.32 81.2661C446.32 81.3875 446.32 81.509 446.198 81.6305C446.198 81.752 446.198 81.8734 446.077 81.9949C446.077 82.1164 445.956 82.2379 445.956 82.3593C445.956 82.4808 445.834 82.6023 445.834 82.7237C445.834 82.8452 445.713 82.9667 445.713 83.0882C445.713 83.2096 445.592 83.3311 445.592 83.4526C445.592 83.5741 445.47 83.6955 445.47 83.817C445.349 83.9385 445.349 84.06 445.227 84.1814C445.227 84.3029 445.106 84.4244 445.106 84.5459C444.985 84.6673 444.863 84.7888 444.863 85.0318C444.863 85.1532 444.742 85.1532 444.742 85.2747C444.62 85.3962 444.499 85.6391 444.378 85.7606C444.378 85.8821 444.256 85.8821 444.256 86.0035C444.014 86.2465 443.771 86.4894 443.649 86.7324C443.649 86.8539 443.528 86.8539 443.407 86.9753C443.164 87.2183 443.043 87.3398 442.8 87.5827C442.678 87.7042 442.557 87.7042 442.557 87.8257C442.436 87.9471 442.314 88.0686 442.193 88.1901C442.071 88.3115 441.95 88.433 441.829 88.433C441.707 88.5545 441.586 88.676 441.465 88.7974C441.343 88.9189 441.222 89.0404 441.1 89.0404C440.979 89.1619 440.858 89.2833 440.615 89.4048C440.494 89.5263 440.372 89.6478 440.251 89.6478C440.129 89.7692 439.887 89.8907 439.765 89.8907C439.522 90.0122 439.401 90.1337 439.158 90.2551C438.794 90.4981 438.43 90.741 437.944 90.8625C437.823 90.8625 437.702 90.984 437.58 90.984C437.216 91.1054 436.973 91.2269 436.609 91.4699C436.488 91.4699 436.367 91.5913 436.245 91.5913C435.881 91.7128 435.395 91.9558 435.031 92.0772C434.91 92.0772 434.91 92.0772 434.789 92.1987C434.424 92.3202 434.06 92.4416 433.696 92.5631C433.575 92.5631 433.332 92.6846 433.211 92.6846C432.968 92.8061 432.846 92.8061 432.604 92.9275C432.482 92.9275 432.24 93.049 432.118 93.049C431.875 93.049 431.754 93.1705 431.511 93.1705C431.39 93.1705 431.147 93.292 431.026 93.292C430.783 93.292 430.54 93.4134 430.419 93.4134C430.297 93.4134 430.055 93.5349 429.933 93.5349C429.691 93.5349 429.448 93.6564 429.205 93.6564C429.084 93.6564 428.841 93.7779 428.72 93.7779C428.234 93.8993 427.748 93.8993 427.263 94.0208C427.142 94.0208 427.142 94.0208 427.02 94.0208C426.656 94.0208 426.17 94.1423 425.806 94.1423C425.685 94.1423 425.442 94.1423 425.321 94.1423C425.078 94.1423 424.714 94.1423 424.471 94.2638C424.35 94.2638 424.107 94.2638 423.986 94.2638C423.743 94.2638 423.379 94.2638 423.136 94.2638C423.015 94.2638 422.772 94.2638 422.65 94.2638C422.408 94.2638 422.165 94.2638 421.922 94.2638C421.801 94.2638 421.558 94.2638 421.437 94.2638C421.194 94.2638 420.951 94.2638 420.587 94.2638C420.466 94.2638 420.223 94.2638 420.101 94.2638C419.859 94.2638 419.616 94.2638 419.373 94.2638C419.252 94.2638 419.009 94.2638 418.888 94.2638C418.645 94.2638 418.402 94.2638 418.038 94.2638C417.917 94.2638 417.795 94.2638 417.552 94.2638C417.188 94.2638 416.946 94.2638 416.581 94.1423C416.46 94.1423 416.339 94.1423 416.339 94.1423C415.974 94.1423 415.489 94.0208 415.125 94.0208C415.003 94.0208 415.003 94.0208 414.882 94.0208C414.518 94.0208 414.154 93.8993 413.79 93.8993C413.668 93.8993 413.547 93.8993 413.304 93.7779C413.061 93.7779 412.819 93.6564 412.576 93.6564C412.454 93.6564 412.333 93.6564 412.212 93.5349C411.969 93.4134 411.605 93.4134 411.362 93.292C411.241 93.292 410.998 93.1705 410.876 93.1705C410.634 93.049 410.391 93.049 410.148 92.9275C410.027 92.9275 409.905 92.8061 409.663 92.8061C409.298 92.6846 408.813 92.5631 408.449 92.4416C408.327 92.4416 408.327 92.4417 408.206 92.3202C407.72 92.1987 407.356 91.9558 406.871 91.8343C406.749 91.7128 406.507 91.7128 406.385 91.5913C406.264 91.5913 406.143 91.4699 406.021 91.4699C405.778 91.3484 405.657 91.3484 405.414 91.2269C405.293 91.2269 405.171 91.1054 405.05 91.1054C404.807 90.984 404.565 90.8625 404.443 90.741C404.322 90.741 404.2 90.6195 404.079 90.6195C403.715 90.4981 403.472 90.2551 403.108 90.1336C400.923 88.9189 399.224 87.4612 398.01 85.8821C397.646 85.3962 397.403 85.0317 397.039 84.5459C396.918 84.3029 396.796 84.06 396.675 83.817C395.946 82.4808 395.582 81.0231 395.582 79.5654L395.461 121.474C395.461 125.24 398.01 129.127 402.987 131.921C403.229 132.042 403.594 132.285 403.958 132.407C404.079 132.407 404.2 132.528 404.322 132.528C404.565 132.649 404.686 132.771 404.929 132.892C405.05 132.892 405.171 133.014 405.293 133.014C405.536 133.135 405.657 133.135 405.9 133.257C406.021 133.257 406.143 133.378 406.264 133.378C406.385 133.378 406.507 133.5 406.628 133.5H406.749C407.235 133.621 407.599 133.864 408.085 133.986C408.206 133.986 408.206 133.986 408.327 134.107C408.692 134.229 409.177 134.35 409.541 134.472C409.663 134.472 409.663 134.472 409.784 134.593C409.905 134.593 409.905 134.593 410.027 134.715C410.269 134.836 410.512 134.836 410.755 134.957C410.876 134.957 411.119 135.079 411.241 135.079C411.483 135.2 411.847 135.2 412.09 135.322C412.212 135.322 412.333 135.322 412.454 135.443C412.454 135.443 412.454 135.443 412.576 135.443C412.819 135.443 413.061 135.565 413.425 135.565C413.547 135.565 413.668 135.565 413.79 135.686C414.154 135.686 414.518 135.808 414.882 135.808H415.003C415.368 135.808 415.853 135.929 416.217 135.929C416.339 135.929 416.339 135.929 416.46 135.929C416.824 135.929 417.067 136.051 417.431 136.051C417.552 136.051 417.674 136.051 417.795 136.051C418.038 136.051 418.281 136.051 418.645 136.051C418.766 136.051 419.009 136.051 419.13 136.051C419.373 136.051 419.616 136.051 419.859 136.051C419.98 136.051 420.101 136.051 420.223 136.051C420.466 136.051 420.708 136.051 421.072 136.051C421.194 136.051 421.437 136.051 421.558 136.051C421.801 136.051 422.044 136.051 422.286 136.051H422.408C422.529 136.051 422.65 136.051 422.772 136.051C423.015 136.051 423.379 136.051 423.621 136.051C423.743 136.051 423.986 136.051 424.107 136.051C424.35 136.051 424.714 136.051 424.957 135.929C425.078 135.929 425.199 135.929 425.199 135.929C425.321 135.929 425.321 135.929 425.442 135.929C425.928 135.929 426.292 135.808 426.656 135.808C426.777 135.808 426.777 135.808 426.899 135.808C427.384 135.686 427.87 135.686 428.355 135.565H428.477C428.598 135.565 428.719 135.565 428.841 135.443C429.084 135.443 429.326 135.322 429.448 135.322C429.569 135.322 429.812 135.2 429.933 135.2C430.176 135.2 430.419 135.079 430.54 135.079C430.662 135.079 430.904 134.957 431.026 134.957C431.269 134.957 431.511 134.836 431.633 134.836C431.754 134.836 431.997 134.715 432.118 134.715C432.361 134.593 432.482 134.593 432.725 134.472C432.846 134.472 432.846 134.472 432.968 134.35C433.089 134.35 433.089 134.35 433.211 134.229C433.575 134.107 433.939 133.986 434.303 133.864C434.424 133.864 434.424 133.864 434.546 133.743C435.031 133.621 435.395 133.378 435.76 133.257C435.881 133.257 436.002 133.135 436.124 133.135C436.488 133.014 436.731 132.892 437.095 132.649C437.216 132.649 437.338 132.528 437.459 132.528C437.823 132.285 438.309 132.164 438.673 131.921C438.794 131.799 438.916 131.799 439.037 131.678C439.158 131.678 439.28 131.556 439.28 131.556C439.401 131.435 439.644 131.313 439.765 131.313C439.887 131.192 440.008 131.07 440.129 131.07C440.251 130.949 440.372 130.827 440.615 130.827C440.736 130.706 440.858 130.584 440.979 130.584C441.1 130.463 441.222 130.341 441.343 130.22C441.465 130.099 441.586 129.977 441.707 129.977C441.829 129.856 441.95 129.734 442.071 129.613L442.193 129.491L442.314 129.37C442.557 129.127 442.678 129.005 442.921 128.762C443.043 128.641 443.043 128.641 443.164 128.519C443.407 128.276 443.649 128.033 443.771 127.791L443.892 127.669C444.014 127.548 444.135 127.305 444.256 127.183C444.378 127.062 444.378 127.062 444.378 126.94C444.499 126.819 444.62 126.697 444.62 126.454C444.62 126.454 444.62 126.333 444.742 126.333C444.742 126.211 444.863 126.211 444.863 126.09C444.985 125.968 444.985 125.847 445.106 125.725C445.106 125.604 445.227 125.483 445.227 125.361C445.227 125.24 445.349 125.118 445.349 124.997C445.349 124.997 445.349 124.875 445.47 124.875V124.754C445.47 124.632 445.592 124.511 445.592 124.389C445.592 124.268 445.713 124.146 445.713 124.025C445.713 123.903 445.834 123.782 445.834 123.66C445.834 123.539 445.834 123.539 445.834 123.417V123.296C445.834 123.175 445.834 123.053 445.834 122.932C445.834 122.81 445.834 122.689 445.834 122.567C445.834 122.446 445.834 122.324 445.834 122.203C445.834 122.081 445.834 122.081 445.834 121.96C445.834 121.838 445.834 121.838 445.834 121.717L445.956 79.8084C446.32 79.8084 446.32 79.9299 446.32 80.1728Z" fill="#9AF4DC"/>
<path d="M438.795 69.1186C448.748 74.8279 448.87 84.1814 438.917 90.0121C428.963 95.7214 412.941 95.7214 402.866 90.0121C392.791 84.3028 392.791 74.9494 402.745 69.1186C412.698 63.4094 428.842 63.4094 438.795 69.1186Z" fill="white"/>
<path d="M396.554 83.8168C394.005 78.8364 396.068 73.1271 402.866 69.24C412.819 63.5307 428.841 63.5307 438.916 69.24C445.835 73.2486 448.02 79.0793 445.228 84.1813" stroke="#171A21" stroke-width="2" stroke-miterlimit="10" stroke-linecap="round" stroke-linejoin="round"/>
<path d="M435.882 70.9407C444.257 75.3138 444.257 82.4807 436.003 86.9753C427.749 91.4698 414.276 91.3483 405.9 86.9753C397.525 82.6022 397.525 75.4353 405.779 70.9407C414.033 66.4462 427.628 66.5677 435.882 70.9407Z" fill="#2F58FF"/>
<path d="M395.704 119.287C397.282 119.773 399.467 118.558 400.923 117.708C401.409 117.465 401.894 117.465 402.38 117.708L402.744 117.951C403.715 118.558 403.715 119.895 402.744 120.502C401.409 121.231 399.831 121.838 398.738 121.109L395.461 119.166C395.461 119.166 395.582 119.287 395.704 119.287ZM389.028 116.979C389.028 122.324 390.363 124.511 395.097 127.062C390.606 124.389 392.062 115.157 393.155 111.27C394.733 105.925 398.253 102.159 402.744 99.244C403.594 98.6367 403.594 97.3005 402.623 96.8146L402.137 96.5716C401.652 96.3287 401.166 96.3287 400.68 96.5716C393.276 101.188 388.906 107.869 389.028 116.979Z" fill="white"/>
<path d="M402.744 99.244C403.594 98.6367 403.594 97.3005 402.623 96.8146L402.137 96.5716C401.652 96.3287 401.166 96.3287 400.681 96.5716C393.155 101.188 388.785 107.869 388.907 116.979C388.907 122.324 390.242 124.511 394.976 127.062" fill="white"/>
<path d="M395.461 119.166C395.583 119.166 395.583 119.287 395.704 119.287C397.282 119.773 399.467 118.558 400.924 117.708C401.409 117.465 401.895 117.465 402.38 117.708L402.744 117.951C403.715 118.558 403.715 119.895 402.744 120.502M402.744 99.244C403.594 98.6367 403.594 97.3005 402.623 96.8146L402.137 96.5716C401.652 96.3287 401.166 96.3287 400.681 96.5716C393.155 101.188 388.785 107.869 388.907 116.979C388.907 122.324 390.242 124.511 394.976 127.062" stroke="#171A21" stroke-width="2" stroke-miterlimit="10" stroke-linecap="round" stroke-linejoin="round"/>
<path d="M404.808 100.58C404.808 99.4872 403.594 98.7583 402.623 99.3657C400.195 100.945 398.132 102.645 396.433 105.075C393.641 108.841 392.306 113.335 392.306 118.68C392.306 124.146 393.641 127.062 396.433 127.548C398.496 127.912 401.045 126.94 404.201 125.24C404.687 124.997 404.929 124.511 404.929 124.025V121.595C404.929 120.502 403.837 119.895 402.866 120.259C401.409 120.988 400.195 121.474 399.224 121.231C398.739 121.109 397.282 120.867 397.282 115.765C397.282 110.663 398.739 108.719 399.224 108.112C400.438 106.533 402.259 105.196 404.201 104.103C404.687 103.86 404.929 103.374 404.929 102.888L404.808 100.58Z" fill="#2F58FF"/>
<path d="M377.255 75.5568C380.168 73.8562 382.596 69.7261 382.596 66.3248C382.596 62.9235 380.168 61.5873 377.255 63.288C374.342 64.9886 371.914 69.1187 371.914 72.52C371.914 75.7998 374.342 77.2574 377.255 75.5568Z" fill="#2F58FF"/>
<path d="M343.753 61.7088C343.874 61.5873 343.996 61.5873 344.117 61.5873C344.117 61.5873 344.117 61.5873 344.239 61.5873C344.36 61.5873 344.36 61.5873 344.481 61.4658C344.481 61.4658 344.481 61.4658 344.603 61.4658C344.724 61.4658 344.724 61.4658 344.846 61.3444C344.967 61.3444 345.088 61.2229 345.21 61.2229C345.331 61.2229 345.452 61.2229 345.574 61.2229C345.574 61.2229 345.574 61.2229 345.695 61.2229C345.817 61.2229 345.938 61.2229 345.938 61.2229C346.059 61.2229 346.059 61.2229 346.181 61.2229C346.181 61.2229 346.181 61.2229 346.302 61.2229C346.423 61.2229 346.423 61.2229 346.545 61.2229C346.666 61.2229 346.666 61.2229 346.788 61.3444C346.788 61.3444 346.788 61.3444 346.909 61.3444C347.03 61.3444 347.03 61.3444 347.03 61.4658L332.465 52.9627L332.343 52.8412C332.222 52.8412 332.222 52.8412 332.1 52.7197C331.979 52.7197 331.979 52.7197 331.858 52.7197C331.736 52.7197 331.736 52.7197 331.615 52.7197C331.494 52.7197 331.372 52.7197 331.372 52.7197C331.251 52.7197 331.129 52.7197 331.008 52.7197C330.887 52.7197 330.765 52.7197 330.644 52.8412C330.522 52.8412 330.522 52.8412 330.401 52.9627C330.401 52.9627 330.401 52.9627 330.28 52.9627C330.158 52.9627 330.158 52.9627 330.037 53.0841C329.916 53.0841 329.916 53.2056 329.794 53.2056C329.794 53.2056 329.794 53.2056 329.673 53.2056C329.551 53.2056 329.43 53.3271 329.43 53.3271L304.668 67.1751C304.547 67.2966 304.425 67.2966 304.304 67.4181C304.304 67.4181 304.183 67.4181 304.183 67.5395C304.061 67.5395 304.061 67.661 303.94 67.661L303.819 67.7825C303.697 67.7825 303.697 67.9039 303.576 67.9039L303.454 68.0254C303.333 68.0254 303.333 68.1469 303.212 68.1469L303.09 68.2684C302.969 68.3898 302.969 68.3898 302.847 68.5113L302.726 68.6328C302.605 68.7543 302.483 68.7543 302.483 68.8757C302.362 68.9972 302.241 69.1187 302.119 69.1187C301.998 69.2402 301.876 69.3616 301.755 69.4831C301.755 69.4831 301.755 69.6046 301.634 69.6046C301.512 69.7261 301.391 69.8475 301.391 69.969C301.148 70.2119 301.027 70.4549 300.784 70.6978C300.784 70.6978 300.784 70.6978 300.784 70.8193C300.663 70.9408 300.541 71.1837 300.42 71.4267C300.42 71.4267 300.42 71.4267 300.42 71.5482C300.298 71.7911 300.177 71.9126 300.056 72.1555V72.277C299.934 72.3985 299.934 72.52 299.813 72.7629V72.8844L299.692 73.0058L269.225 126.576C269.103 126.697 269.103 126.94 268.982 127.062C268.861 127.305 268.739 127.426 268.739 127.669C268.739 127.669 268.739 127.669 268.739 127.791V127.912C268.618 128.033 268.618 128.155 268.496 128.398V128.519C268.375 128.762 268.375 128.884 268.254 129.127C268.132 129.37 268.132 129.491 268.011 129.734C268.011 129.734 268.011 129.734 268.011 129.856C268.011 129.856 268.011 129.856 268.011 129.977C267.89 130.22 267.89 130.463 267.768 130.706C267.768 130.827 267.768 130.827 267.768 130.949C267.768 131.07 267.768 131.07 267.768 131.192C267.768 131.313 267.768 131.435 267.647 131.435V131.556V131.678C267.647 131.799 267.647 131.921 267.525 132.042V132.164C267.525 132.285 267.525 132.407 267.525 132.528C267.525 132.528 267.525 132.528 267.525 132.649V132.771C267.525 132.892 267.525 133.014 267.525 133.135V133.257C267.525 133.378 267.525 133.5 267.525 133.621V133.743C267.525 133.864 267.525 134.107 267.525 134.229V134.35C267.525 134.472 267.525 134.593 267.525 134.715V134.836C267.525 134.957 267.525 135.079 267.525 135.079V135.2C267.525 135.322 267.525 135.443 267.525 135.443V135.565C267.525 135.686 267.525 135.808 267.647 135.929C267.647 136.051 267.768 136.172 267.768 136.294V136.415C267.768 136.537 267.768 136.537 267.89 136.658V136.78C267.89 136.901 268.011 136.901 268.011 137.023V137.144C268.011 137.265 268.132 137.265 268.132 137.387C268.132 137.387 268.132 137.387 268.132 137.508C268.254 137.63 268.254 137.751 268.375 137.751C268.375 137.751 268.375 137.751 268.375 137.873C268.375 137.994 268.496 137.994 268.496 138.116C268.496 138.116 268.496 138.116 268.618 138.237L268.739 138.359C268.739 138.359 268.861 138.359 268.861 138.48C268.982 138.48 268.982 138.602 269.103 138.602C269.103 138.602 269.103 138.602 269.225 138.723C269.346 138.845 269.468 138.845 269.468 138.966L284.033 147.469C283.912 147.469 283.791 147.348 283.791 147.226C283.791 147.226 283.791 147.226 283.669 147.105C283.548 147.105 283.548 146.983 283.426 146.983C283.426 146.983 283.305 146.983 283.305 146.862L283.184 146.74C283.184 146.74 283.184 146.74 283.062 146.619C283.062 146.497 282.941 146.497 282.941 146.376C282.941 146.376 282.941 146.376 282.941 146.255C282.819 146.133 282.819 146.012 282.698 146.012C282.698 146.012 282.698 146.012 282.698 145.89C282.698 145.769 282.577 145.769 282.577 145.647V145.526C282.577 145.404 282.455 145.404 282.455 145.283V145.161C282.455 145.04 282.334 145.04 282.334 144.918V144.797C282.334 144.675 282.213 144.554 282.213 144.432C282.213 144.311 282.091 144.189 282.091 144.068V143.947C282.091 143.825 282.091 143.704 282.091 143.704V143.582C282.091 143.461 282.091 143.339 282.091 143.339V143.218C282.091 143.096 282.091 142.975 282.091 142.853V142.732C282.091 142.61 282.091 142.367 282.091 142.246V142.124C282.091 142.003 282.091 141.881 282.091 141.76V141.639C282.091 141.517 282.091 141.396 282.091 141.274C282.091 141.153 282.091 141.153 282.091 141.031C282.091 140.91 282.091 140.788 282.091 140.667V140.545C282.091 140.424 282.091 140.302 282.213 140.181V140.059V139.938C282.213 139.816 282.213 139.695 282.334 139.695C282.334 139.573 282.334 139.573 282.334 139.452C282.334 139.331 282.334 139.331 282.455 139.209C282.577 138.966 282.577 138.723 282.698 138.48V138.359C282.819 138.116 282.819 137.994 282.941 137.751C282.941 137.751 282.941 137.751 282.941 137.63C283.062 137.387 283.062 137.265 283.184 137.023C283.184 137.023 283.184 136.901 283.305 136.901C283.426 136.78 283.426 136.658 283.548 136.415C283.548 136.415 283.548 136.294 283.669 136.294C283.791 136.051 283.912 135.929 283.912 135.686C284.033 135.565 284.033 135.322 284.155 135.2L314.621 81.6305C314.621 81.509 314.743 81.509 314.743 81.3875C314.864 81.2661 314.864 81.1446 314.986 80.9016C314.986 80.9016 314.986 80.7802 315.107 80.7802C315.228 80.5372 315.35 80.4157 315.471 80.1728C315.471 80.1728 315.471 80.0513 315.593 80.0513C315.714 79.8084 315.835 79.6869 315.957 79.444C315.957 79.444 315.957 79.444 316.078 79.3225C316.199 79.0795 316.442 78.8366 316.685 78.5936L316.806 78.4722C316.928 78.3507 317.049 78.2292 317.049 78.1077C317.049 78.1077 317.049 77.9863 317.17 77.9863C317.292 77.8648 317.413 77.7433 317.535 77.6219C317.656 77.5004 317.777 77.3789 317.899 77.2574C318.02 77.136 318.142 77.0145 318.142 77.0145L318.263 76.893C318.384 76.7715 318.384 76.7715 318.506 76.6501L318.627 76.5286C318.748 76.5286 318.748 76.4071 318.87 76.4071L318.991 76.2856C319.113 76.2856 319.113 76.1642 319.234 76.1642L319.355 76.0427C319.477 76.0427 319.477 75.9212 319.598 75.9212C319.598 75.9212 319.719 75.9212 319.719 75.7997C319.841 75.6783 319.962 75.6783 320.084 75.5568L326.031 72.1555C326.031 72.277 326.031 72.3985 326.031 72.3985V72.52C326.031 72.6414 326.031 72.6414 326.031 72.7629V72.8844C326.031 73.0058 326.031 73.0058 326.031 73.1273V73.2488C326.031 73.4917 325.91 73.6132 325.91 73.8562V73.9776C325.91 74.0991 325.789 74.3421 325.789 74.4635C325.789 74.585 325.667 74.828 325.667 74.9494V75.0709C325.667 75.1924 325.546 75.3138 325.546 75.4353C325.546 75.4353 325.546 75.4353 325.546 75.5568C325.424 75.6783 325.424 75.7997 325.303 76.0427V76.1642C325.303 76.2856 325.182 76.4071 325.182 76.5286V76.6501C325.06 76.7715 325.06 76.893 324.939 77.0145C324.939 77.0145 324.939 77.0145 324.939 77.136C324.818 77.2574 324.818 77.3789 324.696 77.5004C324.696 77.5004 324.696 77.6219 324.575 77.6219C324.453 77.7433 324.332 77.8648 324.332 77.9863C324.332 77.9863 324.332 77.9863 324.332 78.1077C324.211 78.2292 324.089 78.3507 323.968 78.4722C323.846 78.5936 323.725 78.8366 323.604 78.9581C323.604 78.9581 323.604 78.9581 323.604 79.0795C323.482 79.201 323.482 79.3225 323.361 79.444C323.24 79.5654 323.118 79.6869 323.118 79.6869C323.118 79.6869 323.118 79.6869 322.997 79.8084C322.875 79.9298 322.754 80.0513 322.633 80.1728C322.511 80.2943 322.39 80.4158 322.269 80.5372C322.269 80.5372 322.269 80.5372 322.147 80.6587C322.026 80.7802 321.904 80.9016 321.783 80.9016C321.783 80.9016 321.783 80.9016 321.662 80.9016C321.54 81.0231 321.419 81.1446 321.176 81.1446C321.055 81.2661 320.933 81.2661 320.812 81.3875H320.691C320.569 81.3875 320.569 81.509 320.448 81.509H320.326C320.205 81.509 320.205 81.6305 320.084 81.6305C320.084 81.6305 320.084 81.6305 319.962 81.6305C319.841 81.6305 319.719 81.752 319.719 81.752H319.598C319.598 81.752 319.598 81.752 319.477 81.752C319.355 81.752 319.355 81.752 319.234 81.752C319.113 81.752 318.991 81.752 318.87 81.752C318.87 81.752 318.87 81.752 318.748 81.752C318.627 81.752 318.506 81.752 318.384 81.752C318.263 81.752 318.263 81.752 318.142 81.752C318.142 81.752 318.142 81.752 318.02 81.752C317.899 81.752 317.777 81.752 317.777 81.6305C317.656 81.6305 317.656 81.6305 317.535 81.509C317.535 81.509 317.535 81.509 317.413 81.509C317.292 81.509 317.292 81.3875 317.17 81.3875C317.17 81.3875 317.171 81.3875 317.049 81.3875L331.615 89.8907C331.736 89.8907 331.736 90.0122 331.858 90.0122C331.979 90.0122 331.979 90.1336 332.1 90.1336C332.222 90.1336 332.343 90.1337 332.343 90.2551C332.465 90.2551 332.465 90.2551 332.586 90.2551C332.707 90.2551 332.829 90.2551 332.95 90.2551C333.071 90.2551 333.193 90.2551 333.314 90.2551C333.436 90.2551 333.436 90.2551 333.557 90.2551C333.557 90.2551 333.557 90.2551 333.678 90.2551H333.8C333.921 90.2551 334.043 90.2551 334.043 90.1336C334.043 90.1336 334.043 90.1336 334.164 90.1336C334.285 90.1336 334.285 90.1337 334.407 90.0122C334.407 90.0122 334.407 90.0122 334.528 90.0122C334.649 90.0122 334.649 89.8907 334.771 89.8907H334.892C335.014 89.8907 335.135 89.7692 335.256 89.6478C335.378 89.5263 335.499 89.5263 335.742 89.4048C335.742 89.4048 335.742 89.4048 335.863 89.4048C335.985 89.2833 336.106 89.1619 336.227 89.1619C336.227 89.1619 336.227 89.1619 336.349 89.0404C336.47 88.9189 336.592 88.7974 336.713 88.676C336.834 88.5545 336.956 88.433 337.077 88.3115C337.198 88.1901 337.32 88.0686 337.32 88.0686C337.441 87.9471 337.563 87.8256 337.563 87.7042C337.684 87.5827 337.805 87.3398 337.927 87.2183C338.048 87.0968 338.17 86.9753 338.291 86.8539C338.412 86.7324 338.534 86.6109 338.534 86.4894C338.534 86.4894 338.534 86.4894 338.534 86.368C338.655 86.2465 338.655 86.125 338.776 86.0035C338.898 85.8821 338.898 85.7606 339.019 85.6391C339.019 85.6391 339.019 85.6391 339.019 85.5177C339.019 85.3962 339.141 85.2747 339.141 85.1532C339.141 85.1532 339.141 85.1532 339.141 85.0318C339.262 84.9103 339.262 84.7888 339.383 84.5459C339.383 84.4244 339.505 84.3029 339.505 84.1814C339.505 84.1814 339.505 84.1814 339.505 84.06C339.505 83.9385 339.626 83.6955 339.626 83.5741C339.626 83.4526 339.747 83.2096 339.747 83.0882C339.747 82.8452 339.869 82.7238 339.869 82.4808C339.869 82.4808 339.869 82.4808 339.869 82.3593C339.869 82.2379 339.869 82.2379 339.869 82.1164V81.9949C339.869 81.8734 339.869 81.8734 339.869 81.752V81.6305C339.869 81.509 339.869 81.2661 339.869 81.1446V81.0231C339.869 80.9016 339.869 80.6587 339.869 80.5372C339.869 78.7151 339.262 77.5004 338.291 76.893L328.216 71.0623L343.389 62.3162C343.51 61.8303 343.632 61.7088 343.753 61.7088Z" fill="#9AF4DC"/>
<path d="M348.244 64.6241L348.366 92.3202C348.366 94.6282 347.516 97.4221 346.059 99.8515L315.107 153.057C313.651 155.608 311.708 157.43 309.766 158.645C307.824 159.738 305.882 160.103 304.426 159.252L283.548 147.348C280.635 145.647 280.635 140.181 283.427 135.079L313.893 81.509C315.35 79.0795 317.292 76.893 319.356 75.7997L343.51 61.9517C346.059 60.3725 348.244 61.5873 348.244 64.6241ZM334.285 89.6477C337.32 87.8256 339.869 83.574 339.869 79.9298C339.869 76.4071 337.32 74.9494 334.285 76.7715C331.251 78.5936 328.702 82.8452 328.702 86.4894C328.702 90.0121 331.251 91.4698 334.285 89.6477Z" fill="white"/>
<path d="M343.389 61.8303C346.059 60.2512 348.244 61.5874 348.244 64.6242L348.366 92.3203C348.366 94.6283 347.516 97.4221 346.059 99.8516L315.107 153.057C313.651 155.608 311.708 157.43 309.766 158.645C307.824 159.738 305.882 160.103 304.426 159.252L283.548 147.348C280.635 145.647 280.635 140.181 283.427 135.079" stroke="#171A21" stroke-width="2" stroke-miterlimit="10" stroke-linecap="round" stroke-linejoin="round"/>
<path d="M334.286 89.6478C337.32 87.8257 339.869 83.5742 339.869 79.9299C339.869 76.4072 337.32 74.9495 334.286 76.7716C331.251 78.5937 328.702 82.8453 328.702 86.4895C328.702 90.0123 331.251 91.4699 334.286 89.6478Z" fill="#2F58FF"/>
<path d="M348.244 64.7457C352.614 63.7739 357.469 63.531 362.082 64.0169" stroke="#171A21" stroke-width="2" stroke-miterlimit="10" stroke-linecap="round" stroke-linejoin="round"/>
<path d="M374.948 68.0254C375.434 68.2683 376.041 68.5113 376.526 68.7542C386.237 73.9776 386.358 82.3593 376.648 87.4612C366.937 92.6846 351.157 92.6846 341.447 87.4612C336.956 85.1532 334.528 82.1164 334.164 78.958" stroke="#171A21" stroke-width="2" stroke-miterlimit="10" stroke-linecap="round" stroke-linejoin="round"/>
</svg>
