<svg width="499" height="430" viewBox="0 0 499 430" fill="none" xmlns="http://www.w3.org/2000/svg">
<path d="M308.794 332.485C308.794 332.12 308.794 331.756 308.915 331.391C308.915 331.27 308.915 331.27 308.915 331.148C308.915 330.784 309.037 330.541 309.037 330.177C309.037 330.055 309.037 330.055 309.037 329.934C309.037 329.569 309.158 329.205 309.279 328.84C309.279 328.719 309.279 328.719 309.279 328.598C309.401 328.233 309.401 327.99 309.522 327.626V327.504C309.644 327.14 309.765 326.775 309.886 326.532C309.886 326.411 310.008 326.411 310.008 326.29C310.129 326.047 310.25 325.682 310.372 325.439C310.372 325.439 310.372 325.318 310.493 325.318C310.615 324.953 310.736 324.589 310.979 324.346C310.979 324.224 311.1 324.224 311.1 324.103C311.222 323.86 311.343 323.617 311.464 323.374C311.464 323.253 311.586 323.131 311.586 323.131C311.828 322.767 311.95 322.402 312.193 322.159C312.193 322.159 312.193 322.159 312.193 322.038C312.435 321.674 312.557 321.431 312.8 321.066C312.921 320.945 312.921 320.823 313.042 320.823C313.164 320.58 313.406 320.337 313.528 320.216C313.649 320.094 313.771 319.973 313.892 319.73C314.013 319.487 314.256 319.366 314.377 319.123C314.499 319.001 314.62 318.88 314.742 318.758C314.863 318.515 315.106 318.394 315.227 318.151C315.349 318.029 315.47 317.908 315.591 317.786C315.834 317.543 315.955 317.3 316.198 317.179C316.32 317.057 316.441 316.936 316.562 316.815C316.805 316.572 317.169 316.207 317.533 315.964C317.655 315.843 317.776 315.843 317.776 315.721C317.898 315.6 318.14 315.357 318.262 315.235C318.383 315.114 318.504 314.992 318.626 314.992C318.747 314.871 318.99 314.628 319.233 314.507C319.354 314.385 319.475 314.264 319.597 314.264C319.84 314.142 319.961 313.899 320.204 313.778C320.325 313.656 320.447 313.656 320.568 313.535C320.811 313.413 321.053 313.17 321.296 313.049C321.418 312.927 321.418 312.927 321.539 312.806C321.903 312.563 322.146 312.32 322.51 312.077C322.631 312.077 322.631 311.956 322.753 311.956C322.996 311.834 323.238 311.591 323.602 311.47C323.967 311.227 324.452 310.984 324.938 310.619L325.059 310.498C325.423 310.255 325.787 310.012 326.151 309.769C326.273 309.648 326.394 309.648 326.637 309.526C327.001 309.405 327.244 309.162 327.608 309.04C327.729 308.919 327.972 308.919 328.094 308.797C328.458 308.676 328.7 308.433 329.065 308.311C329.186 308.19 329.429 308.19 329.55 308.068C329.914 307.825 330.4 307.704 330.764 307.461C330.885 307.461 330.885 307.34 331.007 307.34C331.492 307.097 331.978 306.854 332.463 306.732C332.585 306.611 332.706 306.611 332.949 306.611C333.313 306.489 333.677 306.246 334.041 306.125C334.284 306.003 334.405 306.003 334.648 305.882C335.012 305.76 335.376 305.639 335.741 305.517C335.862 305.396 336.105 305.396 336.226 305.275C336.954 305.032 337.683 304.789 338.29 304.546C338.411 304.546 338.532 304.424 338.654 304.424C339.382 304.181 340.11 303.938 340.96 303.695C341.688 303.452 342.538 303.209 343.266 303.088C343.388 303.088 343.509 302.967 343.63 302.967C344.359 302.724 345.208 302.602 345.937 302.481C346.179 302.481 346.422 302.359 346.544 302.359C346.786 302.238 347.151 302.238 347.393 302.116C347.636 302.116 347.879 301.995 348.122 301.995C348.486 301.995 348.728 301.873 349.093 301.873C349.335 301.873 349.578 301.752 349.821 301.752C350.185 301.752 350.428 301.63 350.792 301.63C351.035 301.63 351.277 301.509 351.52 301.509C351.884 301.509 352.127 301.387 352.491 301.387C352.734 301.387 352.977 301.266 353.22 301.266C354.069 301.144 354.919 301.023 355.769 300.901C355.89 300.901 356.133 300.901 356.254 300.901C357.104 300.78 358.075 300.78 358.925 300.659C359.289 300.659 359.653 300.659 360.017 300.537C360.26 300.537 360.381 300.537 360.624 300.537C361.231 300.537 361.716 300.537 362.323 300.416C363.173 300.416 364.023 300.416 364.994 300.416C365.358 300.416 365.843 300.416 366.207 300.416C366.693 300.416 367.178 300.416 367.664 300.416C368.028 300.416 368.514 300.416 368.878 300.416C369.363 300.416 369.849 300.416 370.334 300.416C370.82 300.416 371.184 300.416 371.67 300.537C372.155 300.537 372.641 300.537 373.126 300.659C373.612 300.659 373.976 300.78 374.461 300.78C374.947 300.78 375.311 300.901 375.797 300.901C376.282 300.901 376.768 301.023 377.253 301.023C377.617 301.023 378.103 301.144 378.467 301.144C378.952 301.266 379.438 301.266 379.924 301.387C380.288 301.387 380.652 301.509 381.016 301.509C381.987 301.63 382.837 301.873 383.808 301.995C383.929 301.995 383.929 301.995 384.05 301.995C384.9 302.116 385.75 302.359 386.478 302.602C387.206 302.724 387.813 302.967 388.542 303.088C388.663 303.088 388.784 303.209 388.906 303.209C389.513 303.331 389.998 303.574 390.605 303.695C390.848 303.817 390.969 303.817 391.212 303.938C391.819 304.181 392.304 304.303 392.911 304.546C393.033 304.546 393.154 304.667 393.276 304.667C393.761 304.789 394.125 305.032 394.489 305.153C394.853 305.275 395.096 305.396 395.46 305.517C395.946 305.639 396.31 305.882 396.674 306.003C396.917 306.125 397.281 306.246 397.524 306.368C398.009 306.611 398.374 306.732 398.859 306.975C399.102 307.097 399.345 307.218 399.587 307.34C400.194 307.704 400.923 307.947 401.529 308.311C401.894 308.433 402.136 308.676 402.501 308.797C402.622 308.797 402.743 308.919 402.743 308.919C402.986 309.04 403.107 309.162 403.35 309.283C403.472 309.405 403.593 309.405 403.714 309.526C403.836 309.648 404.078 309.769 404.2 309.891C404.321 310.012 404.443 310.012 404.564 310.133C404.685 310.255 404.928 310.376 405.05 310.498C405.171 310.619 405.292 310.619 405.414 310.741C405.535 310.862 405.778 310.984 405.899 311.105C406.021 311.227 406.142 311.227 406.263 311.348C406.385 311.47 406.506 311.591 406.749 311.713C406.87 311.834 406.992 311.834 407.113 311.956C407.234 312.077 407.356 312.199 407.599 312.32C407.72 312.441 407.841 312.441 407.963 312.563C408.084 312.684 408.205 312.806 408.327 312.927C408.448 313.049 408.57 313.049 408.691 313.17C408.812 313.292 408.934 313.413 409.055 313.535C409.176 313.656 409.298 313.656 409.419 313.778C409.541 313.899 409.662 314.021 409.783 314.142C409.905 314.264 410.026 314.264 410.148 314.385C410.269 314.507 410.39 314.628 410.512 314.749C410.633 314.871 410.754 314.871 410.754 314.992C410.876 315.114 410.997 315.235 411.119 315.357C411.24 315.478 411.361 315.478 411.361 315.6C411.483 315.721 411.604 315.843 411.726 315.964C411.847 316.086 411.847 316.086 411.968 316.207C412.09 316.329 412.211 316.45 412.332 316.693C412.454 316.815 412.454 316.815 412.575 316.936C412.818 317.179 412.939 317.3 413.182 317.543C413.425 317.786 413.546 318.029 413.668 318.151C413.668 318.272 413.789 318.272 413.789 318.394C413.91 318.515 414.032 318.758 414.153 318.88C414.275 319.001 414.275 319.001 414.396 319.123C414.517 319.244 414.639 319.366 414.639 319.487C414.76 319.608 414.76 319.73 414.881 319.73C415.003 319.851 415.003 319.973 415.124 320.094C415.246 320.216 415.246 320.337 415.367 320.459C415.488 320.58 415.488 320.702 415.61 320.823C415.731 320.945 415.731 321.066 415.852 321.188C415.974 321.309 415.974 321.431 416.095 321.552C416.095 321.673 416.217 321.795 416.217 321.916C416.338 322.038 416.338 322.159 416.459 322.281C416.459 322.402 416.581 322.524 416.581 322.645C416.702 322.767 416.702 322.888 416.824 323.01C416.824 323.131 416.945 323.253 416.945 323.374C416.945 323.496 417.066 323.617 417.066 323.739C417.066 323.86 417.188 323.981 417.188 324.103C417.188 324.224 417.309 324.346 417.309 324.467C417.309 324.589 417.43 324.71 417.43 324.832C417.43 324.953 417.552 325.075 417.552 325.196C417.552 325.318 417.673 325.439 417.673 325.561C417.673 325.682 417.795 325.804 417.795 326.047C417.795 326.168 417.916 326.289 417.916 326.411C417.916 326.532 418.037 326.775 418.037 326.897C418.037 327.018 418.037 327.14 418.159 327.261C418.159 327.383 418.28 327.626 418.28 327.747C418.28 327.869 418.28 327.869 418.28 327.99C418.28 328.233 418.402 328.476 418.402 328.719C418.402 328.84 418.402 329.083 418.402 329.205C418.402 329.326 418.402 329.448 418.402 329.448C418.402 329.691 418.402 329.934 418.402 330.298C418.402 329.569 418.402 328.962 418.28 328.233V327.383C418.28 326.532 418.28 325.682 418.159 324.832V323.617C418.159 323.253 418.159 322.888 418.159 322.645V321.309C418.159 320.337 418.037 319.365 418.037 318.394V317.422C418.037 317.057 418.037 316.572 418.037 316.207L417.916 313.656C417.916 313.413 417.916 313.049 417.916 312.806L417.795 310.741C417.795 310.498 417.795 310.255 417.795 309.891V309.769C417.795 309.526 417.795 309.283 417.673 309.04C417.673 308.797 417.552 308.554 417.552 308.311C417.552 308.19 417.552 308.19 417.552 308.068C417.552 307.947 417.43 307.704 417.43 307.583C417.43 307.461 417.43 307.34 417.309 307.218C417.309 307.097 417.188 306.854 417.188 306.732C417.188 306.611 417.188 306.489 417.066 306.368C417.066 306.246 416.945 306.125 416.945 305.882C416.945 305.76 416.824 305.639 416.824 305.517C416.824 305.396 416.702 305.275 416.702 305.153C416.702 305.032 416.581 304.91 416.581 304.789C416.581 304.667 416.459 304.546 416.459 304.424C416.459 304.303 416.338 304.181 416.338 304.06C416.338 303.938 416.217 303.817 416.217 303.695C416.217 303.574 416.095 303.452 416.095 303.331C415.974 303.209 415.974 303.088 415.852 302.967C415.852 302.845 415.731 302.724 415.731 302.602C415.61 302.481 415.61 302.359 415.488 302.238C415.488 302.116 415.367 301.995 415.367 301.873C415.246 301.752 415.246 301.63 415.124 301.509C415.124 301.387 415.003 301.266 414.881 301.144C414.76 301.023 414.76 300.901 414.639 300.78C414.517 300.659 414.517 300.537 414.396 300.416C414.275 300.294 414.275 300.173 414.153 300.051C414.032 299.93 414.032 299.808 413.91 299.808C413.789 299.687 413.668 299.565 413.668 299.444C413.546 299.322 413.546 299.322 413.425 299.201C413.303 299.079 413.182 298.836 413.061 298.715C413.061 298.593 412.939 298.593 412.939 298.472C412.818 298.229 412.575 297.986 412.454 297.865C412.332 297.622 412.09 297.5 411.847 297.257C411.725 297.136 411.726 297.136 411.604 297.014C411.483 296.893 411.361 296.771 411.24 296.528C411.119 296.407 411.119 296.407 410.997 296.285C410.876 296.164 410.754 296.043 410.633 295.921C410.512 295.8 410.39 295.8 410.39 295.678C410.269 295.557 410.148 295.435 410.026 295.314C409.905 295.192 409.783 295.192 409.783 295.071C409.662 294.949 409.541 294.828 409.419 294.706C409.298 294.585 409.176 294.463 409.055 294.463C408.934 294.342 408.812 294.22 408.691 294.099C408.57 293.977 408.448 293.977 408.327 293.856C408.205 293.735 408.084 293.613 407.963 293.492C407.841 293.37 407.72 293.37 407.599 293.249C407.477 293.127 407.356 293.006 407.234 292.884C407.113 292.763 406.992 292.763 406.87 292.641C406.749 292.52 406.627 292.398 406.385 292.277C406.263 292.155 406.142 292.155 406.021 292.034C405.899 291.912 405.778 291.791 405.535 291.669C405.414 291.548 405.292 291.548 405.171 291.427C405.05 291.305 404.807 291.184 404.685 291.062C404.564 290.941 404.443 290.941 404.321 290.819C404.2 290.698 403.957 290.576 403.836 290.455C403.714 290.333 403.593 290.333 403.472 290.212C403.35 290.09 403.107 289.969 402.986 289.847C402.865 289.726 402.743 289.726 402.622 289.604C402.379 289.483 402.258 289.361 402.015 289.24C401.894 289.24 401.772 289.119 401.772 289.119C401.529 288.997 401.165 288.754 400.801 288.633C400.194 288.268 399.587 288.025 398.859 287.661C398.616 287.539 398.374 287.418 398.131 287.296C397.645 287.053 397.281 286.932 396.796 286.689C396.553 286.568 396.189 286.446 395.946 286.325C395.582 286.203 395.096 285.96 394.732 285.839C394.489 285.717 394.125 285.596 393.761 285.474C393.397 285.353 393.033 285.231 392.547 284.988H392.426C392.304 284.988 392.183 284.867 392.062 284.867C391.455 284.624 390.969 284.503 390.362 284.26C390.12 284.138 389.998 284.138 389.755 284.017C389.149 283.895 388.663 283.652 388.056 283.531C387.935 283.531 387.813 283.409 387.692 283.409C387.085 283.288 386.478 283.045 385.871 282.923C385.75 282.923 385.75 282.923 385.628 282.923C384.779 282.68 383.929 282.559 383.201 282.316C383.079 282.316 383.079 282.316 382.958 282.316C382.108 282.073 381.137 281.952 380.166 281.83H380.045C379.681 281.83 379.438 281.709 379.074 281.709C378.588 281.587 378.103 281.587 377.617 281.466C377.253 281.466 376.768 281.344 376.403 281.344C375.918 281.223 375.432 281.223 374.947 281.223C374.825 281.223 374.704 281.223 374.583 281.223C374.219 281.223 373.854 281.101 373.49 281.101C373.126 281.101 372.641 280.98 372.155 280.98C371.67 280.98 371.184 280.858 370.699 280.858C370.213 280.858 369.849 280.858 369.363 280.737C369.242 280.737 369.121 280.737 369.121 280.737C368.756 280.737 368.392 280.737 367.907 280.737C367.543 280.737 367.057 280.737 366.693 280.737C366.207 280.737 365.722 280.737 365.236 280.737C364.872 280.737 364.387 280.737 364.023 280.737C363.901 280.737 363.901 280.737 363.78 280.737C362.93 280.737 362.202 280.737 361.352 280.737C360.745 280.737 360.26 280.737 359.653 280.858C359.41 280.858 359.289 280.858 359.046 280.858C358.682 280.858 358.318 280.858 358.075 280.98C358.075 280.98 358.075 280.98 357.953 280.98C357.104 281.101 356.133 281.101 355.283 281.223C355.162 281.223 354.919 281.223 354.798 281.223C353.948 281.344 353.098 281.466 352.249 281.587C352.127 281.587 352.127 281.587 352.006 281.587C351.884 281.587 351.642 281.587 351.52 281.709C351.156 281.709 350.913 281.83 350.549 281.83C350.306 281.83 350.064 281.952 349.821 281.952C349.457 281.952 349.214 282.073 348.85 282.073C348.607 282.073 348.364 282.194 348.122 282.194C347.757 282.194 347.515 282.316 347.15 282.316C346.908 282.316 346.665 282.437 346.422 282.437C346.058 282.559 345.815 282.559 345.573 282.68C345.451 282.68 345.208 282.802 345.087 282.802C344.966 282.802 344.966 282.802 344.844 282.802C344.116 282.923 343.266 283.166 342.538 283.288C342.417 283.288 342.295 283.409 342.174 283.409C341.446 283.652 340.596 283.774 339.868 284.017C339.139 284.26 338.411 284.503 337.561 284.745C337.44 284.745 337.319 284.867 337.197 284.867C336.469 285.11 335.741 285.353 335.134 285.596C335.134 285.596 335.012 285.596 335.012 285.717C334.891 285.717 334.77 285.839 334.648 285.839C334.284 285.96 333.92 286.082 333.556 286.203C333.313 286.325 333.192 286.325 332.949 286.446C332.585 286.568 332.221 286.689 331.856 286.932C331.735 287.053 331.614 287.053 331.371 287.053C330.885 287.296 330.4 287.539 329.914 287.661C329.793 287.661 329.793 287.782 329.672 287.782C329.307 288.025 328.822 288.147 328.458 288.39C328.336 288.511 328.094 288.511 327.972 288.633C327.608 288.754 327.365 288.997 327.001 289.119C326.88 289.24 326.637 289.24 326.516 289.361C326.151 289.483 325.909 289.726 325.545 289.847C325.423 289.969 325.18 289.969 325.059 290.09C324.695 290.333 324.331 290.576 323.967 290.819L323.845 290.941C323.36 291.184 322.996 291.427 322.51 291.791H322.389C322.146 291.912 321.903 292.155 321.66 292.277C321.539 292.277 321.539 292.398 321.418 292.398C321.053 292.641 320.689 292.884 320.447 293.127C320.325 293.249 320.325 293.249 320.204 293.37C319.961 293.492 319.718 293.735 319.475 293.856C319.354 293.977 319.233 293.977 319.111 294.099C318.869 294.22 318.747 294.463 318.504 294.585C318.383 294.706 318.262 294.828 318.14 294.828C317.898 294.949 317.776 295.192 317.533 295.314C317.412 295.435 317.291 295.557 317.169 295.557C316.926 295.678 316.805 295.921 316.684 296.043C316.562 296.164 316.562 296.164 316.441 296.285C316.441 296.285 316.441 296.285 316.32 296.407C316.077 296.65 315.713 297.014 315.47 297.257C315.349 297.379 315.227 297.5 315.106 297.622C314.863 297.865 314.742 298.108 314.499 298.229C314.377 298.351 314.256 298.472 314.135 298.593C314.013 298.836 313.771 298.958 313.649 299.201C313.528 299.322 313.406 299.444 313.285 299.565C313.164 299.808 312.921 299.93 312.8 300.173C312.678 300.294 312.557 300.416 312.435 300.659C312.314 300.78 312.314 300.901 312.193 300.901C312.071 301.023 312.071 301.144 311.95 301.266C311.828 301.387 311.828 301.509 311.707 301.509C311.464 301.873 311.343 302.116 311.1 302.481C311.1 302.481 311.1 302.481 311.1 302.602C310.857 302.967 310.736 303.209 310.493 303.574C310.493 303.695 310.372 303.817 310.372 303.817C310.25 303.938 310.25 304.06 310.129 304.181C310.008 304.303 310.008 304.424 309.886 304.546C309.886 304.667 309.765 304.667 309.765 304.789C309.644 305.153 309.401 305.517 309.279 305.76C309.279 305.76 309.279 305.882 309.158 305.882C309.037 306.125 308.915 306.489 308.794 306.732C308.794 306.854 308.673 306.854 308.673 306.975C308.673 307.097 308.673 307.097 308.551 307.218C308.43 307.461 308.43 307.825 308.308 308.068V308.19C308.187 308.554 308.187 308.797 308.066 309.162C308.066 309.283 308.066 309.283 308.066 309.405C307.944 309.769 307.944 310.012 307.823 310.376V310.498C307.823 310.619 307.823 310.619 307.823 310.741C307.823 311.105 307.701 311.348 307.701 311.713C307.701 311.834 307.701 311.834 307.701 311.956C307.701 312.32 307.701 312.684 307.58 313.049C307.58 313.17 307.58 313.17 307.58 313.292C307.58 313.413 307.58 313.535 307.58 313.778C307.58 314.021 307.58 314.264 307.58 314.385L308.187 334.307C308.187 333.942 308.187 333.578 308.187 333.214C308.794 332.728 308.794 332.606 308.794 332.485Z" fill="#2F58FF"/>
<path d="M431.268 310.376C431.268 310.741 431.268 310.984 431.268 311.348V311.47C431.268 311.713 431.268 311.956 431.268 312.32C431.268 312.441 431.268 312.563 431.268 312.684C431.268 312.927 431.268 313.049 431.146 313.292C431.146 313.413 431.146 313.535 431.146 313.656C431.146 313.899 431.146 314.021 431.025 314.264C431.025 314.385 431.025 314.507 430.904 314.628C430.904 314.871 430.782 314.992 430.782 315.235C430.782 315.357 430.782 315.478 430.661 315.6C430.661 315.721 430.54 315.964 430.54 316.086C430.54 316.207 430.418 316.329 430.418 316.45C430.418 316.693 430.297 316.815 430.297 317.058C430.297 317.179 430.175 317.3 430.175 317.422C430.175 317.665 430.054 317.786 430.054 318.029C430.054 318.151 429.933 318.272 429.933 318.394C429.811 318.637 429.69 319.001 429.568 319.244C429.447 319.608 429.326 319.851 429.204 320.216C429.204 320.337 429.083 320.459 429.083 320.459C428.962 320.702 428.84 320.823 428.84 321.066C428.84 321.188 428.719 321.309 428.719 321.431C428.597 321.674 428.476 321.795 428.476 322.038C428.476 322.159 428.355 322.281 428.355 322.402C428.233 322.645 428.112 322.888 427.991 323.131C427.991 323.253 427.869 323.253 427.869 323.374C427.626 323.739 427.505 323.982 427.262 324.346C427.262 324.346 427.262 324.467 427.141 324.467C427.019 324.71 426.777 324.953 426.655 325.318C426.534 325.439 426.534 325.561 426.413 325.561C426.291 325.804 426.048 326.047 425.927 326.168C425.806 326.29 425.806 326.411 425.684 326.411C425.442 326.775 425.199 327.14 424.835 327.504L424.713 327.626C424.47 327.99 424.228 328.233 423.985 328.598C423.864 328.719 423.864 328.719 423.742 328.84C423.499 329.205 423.135 329.569 422.771 329.812C422.65 329.934 422.65 329.934 422.528 330.055C422.286 330.298 421.921 330.663 421.679 330.906L421.557 331.027C421.193 331.391 420.829 331.634 420.586 331.999C420.465 332.12 420.465 332.12 420.343 332.242C419.979 332.485 419.737 332.849 419.372 333.092L419.251 333.214C418.887 333.578 418.523 333.821 418.159 334.185C418.037 334.307 417.916 334.307 417.916 334.428C417.552 334.793 417.066 335.036 416.702 335.4C416.216 335.764 415.731 336.129 415.245 336.372C415.124 336.493 415.003 336.493 414.881 336.615C414.396 336.979 413.91 337.222 413.425 337.587C413.303 337.708 413.182 337.708 413.182 337.83C412.818 338.072 412.575 338.194 412.211 338.437C412.09 338.558 411.968 338.558 411.725 338.68C411.483 338.801 411.118 339.044 410.876 339.166C410.754 339.287 410.512 339.287 410.39 339.409C410.147 339.53 409.783 339.773 409.541 339.895C409.419 340.016 409.298 340.016 409.176 340.138C408.691 340.38 408.327 340.623 407.841 340.866C407.113 341.231 406.263 341.717 405.535 342.081C405.292 342.203 405.049 342.324 404.685 342.446C404.2 342.688 403.593 342.931 403.107 343.174C402.743 343.296 402.5 343.417 402.136 343.539C401.651 343.782 401.165 344.025 400.558 344.146C400.194 344.268 399.83 344.389 399.466 344.511C398.98 344.754 398.495 344.875 397.888 345.118C397.524 345.239 397.16 345.361 396.795 345.482C396.189 345.725 395.582 345.847 394.975 346.09C394.611 346.211 394.246 346.333 393.882 346.454C393.275 346.697 392.547 346.819 391.94 347.062C391.576 347.183 391.333 347.304 390.969 347.304C390.119 347.547 389.27 347.79 388.299 348.033C388.177 348.033 388.056 348.155 387.935 348.155C386.964 348.398 385.871 348.641 384.9 348.884C384.05 349.005 383.201 349.248 382.472 349.37C382.351 349.37 382.108 349.491 381.987 349.491C381.259 349.612 380.652 349.734 379.923 349.855C379.681 349.855 379.438 349.977 379.074 349.977C378.467 350.098 377.739 350.22 377.132 350.22C376.889 350.22 376.646 350.341 376.403 350.341C375.554 350.463 374.704 350.584 373.854 350.706C373.733 350.706 373.49 350.706 373.369 350.706C372.519 350.827 371.669 350.827 370.82 350.949C370.698 350.949 370.698 350.949 370.577 350.949C369.727 351.07 368.756 351.07 367.907 351.192C367.664 351.192 367.421 351.192 367.178 351.192C366.207 351.192 365.358 351.313 364.387 351.313C363.294 351.313 362.202 351.313 361.109 351.435C360.624 351.435 360.017 351.435 359.531 351.435C358.924 351.435 358.317 351.435 357.711 351.435C357.225 351.435 356.618 351.435 356.133 351.435C355.526 351.435 354.919 351.435 354.312 351.313C353.826 351.313 353.219 351.192 352.734 351.192C352.127 351.192 351.52 351.07 351.035 351.07C350.549 351.07 349.942 350.949 349.457 350.949C348.85 350.949 348.364 350.827 347.757 350.827C347.15 350.706 346.543 350.706 345.937 350.584C345.451 350.463 344.965 350.463 344.48 350.341C343.873 350.22 343.266 350.098 342.659 350.098C342.174 349.977 341.688 349.977 341.203 349.855C341.081 349.855 340.96 349.855 340.717 349.734C339.746 349.612 338.896 349.37 337.925 349.248H337.804C336.833 349.005 335.983 348.884 335.012 348.641C334.891 348.641 334.648 348.519 334.527 348.519C333.677 348.276 332.706 348.033 331.856 347.79C331.735 347.79 331.613 347.669 331.371 347.669C330.642 347.426 329.914 347.304 329.186 347.062C328.943 346.94 328.7 346.94 328.458 346.819C327.729 346.576 327.001 346.333 326.394 346.09C326.273 346.09 326.151 345.968 325.909 345.968C325.423 345.725 324.816 345.604 324.331 345.361C323.966 345.239 323.602 345.118 323.238 344.875C322.753 344.632 322.146 344.389 321.66 344.268C321.296 344.146 320.932 344.025 320.568 343.782C319.961 343.539 319.475 343.296 318.868 343.053C318.626 342.931 318.262 342.81 318.019 342.688C317.169 342.324 316.441 341.838 315.591 341.474C302.967 334.793 294.835 325.075 294.471 314.142L295.078 334.064C295.563 344.996 303.574 354.714 316.198 361.395C316.926 361.76 317.776 362.246 318.626 362.61C318.868 362.732 319.233 362.853 319.475 362.975C320.082 363.218 320.568 363.46 321.175 363.703C321.539 363.825 321.903 363.946 322.267 364.189C322.753 364.432 323.36 364.675 323.845 364.797C324.209 364.918 324.573 365.04 324.938 365.283C325.423 365.404 325.909 365.647 326.394 365.769H326.515C326.637 365.769 326.758 365.89 327.001 365.89C327.729 366.133 328.458 366.376 329.064 366.619C329.307 366.74 329.55 366.74 329.793 366.862C330.521 367.105 331.249 367.348 331.978 367.469C332.099 367.469 332.22 367.591 332.463 367.591C333.191 367.834 334.041 367.955 334.769 368.198C334.891 368.198 335.012 368.319 335.134 368.319C335.255 368.319 335.498 368.441 335.619 368.441C336.469 368.684 337.44 368.805 338.411 369.048H338.532C339.382 369.291 340.353 369.413 341.324 369.534C341.445 369.534 341.567 369.534 341.81 369.656C341.931 369.656 342.052 369.656 342.052 369.656C342.416 369.777 342.902 369.777 343.266 369.899C343.873 370.02 344.48 370.142 345.087 370.142C345.572 370.263 346.058 370.263 346.543 370.384C347.15 370.506 347.757 370.506 348.364 370.627C348.486 370.627 348.607 370.627 348.728 370.627C349.214 370.627 349.578 370.749 350.063 370.749C350.549 370.749 351.156 370.87 351.641 370.87C352.248 370.87 352.855 370.992 353.341 370.992C353.826 370.992 354.433 371.113 354.919 371.113C355.04 371.113 355.162 371.113 355.283 371.113C355.768 371.113 356.254 371.113 356.739 371.113C357.225 371.113 357.832 371.113 358.317 371.113C358.924 371.113 359.531 371.113 360.138 371.113C360.624 371.113 361.231 371.113 361.716 371.113C361.838 371.113 361.838 371.113 361.959 371.113C362.93 371.113 364.022 371.113 364.993 370.992C365.965 370.992 366.814 370.87 367.785 370.87C368.028 370.87 368.271 370.87 368.514 370.87C368.756 370.87 368.999 370.87 369.12 370.87C369.849 370.87 370.456 370.749 371.184 370.749C371.305 370.749 371.305 370.749 371.427 370.749C372.276 370.627 373.126 370.627 373.976 370.506C374.097 370.506 374.34 370.506 374.461 370.506C375.189 370.384 375.918 370.384 376.767 370.263C376.889 370.263 377.01 370.263 377.01 370.263C377.253 370.263 377.496 370.142 377.739 370.142C378.345 370.02 379.074 369.899 379.681 369.899C379.923 369.899 380.288 369.777 380.53 369.777C381.259 369.656 381.987 369.534 382.594 369.413C382.715 369.413 382.958 369.291 383.079 369.291C383.808 369.17 384.657 369.048 385.386 368.805C385.507 368.805 385.507 368.805 385.628 368.805C386.599 368.562 387.692 368.319 388.663 368.076C388.784 368.076 388.906 367.955 389.027 367.955C389.877 367.712 390.726 367.469 391.697 367.226C392.062 367.105 392.304 366.983 392.668 366.983C393.275 366.74 394.004 366.619 394.611 366.376C394.975 366.254 395.339 366.133 395.703 366.011C396.31 365.768 396.917 365.647 397.524 365.404C397.766 365.283 397.888 365.283 398.131 365.161C398.252 365.161 398.495 365.04 398.616 365.04C399.102 364.797 399.587 364.675 400.194 364.432C400.558 364.311 400.922 364.189 401.287 364.068C401.772 363.825 402.258 363.703 402.865 363.46C403.229 363.339 403.471 363.218 403.836 363.096C404.442 362.853 404.928 362.61 405.414 362.367C405.656 362.246 405.899 362.124 406.263 362.003C407.113 361.638 407.841 361.274 408.569 360.788C409.055 360.545 409.419 360.302 409.905 360.059C410.026 359.938 410.147 359.938 410.269 359.816C410.633 359.695 410.876 359.452 411.118 359.33C411.24 359.209 411.483 359.209 411.604 359.087C411.847 358.966 412.211 358.723 412.454 358.602C412.575 358.48 412.696 358.48 412.939 358.359C413.303 358.116 413.546 357.994 413.91 357.751C414.032 357.751 414.032 357.63 414.153 357.63C414.639 357.265 415.124 357.022 415.61 356.658C415.731 356.536 415.852 356.536 415.974 356.415C416.459 356.051 416.945 355.686 417.43 355.443C417.794 355.079 418.28 354.836 418.644 354.471C418.766 354.35 418.887 354.35 418.887 354.228C419.13 354.107 419.251 353.864 419.494 353.743L419.858 366.983L428.719 361.395L428.112 343.903C428.233 343.66 428.355 343.417 428.476 343.174C428.476 343.053 428.597 343.053 428.597 342.931C428.719 342.688 428.84 342.446 428.962 342.203C428.962 342.203 428.962 342.081 429.083 342.081C429.083 342.081 429.083 341.96 429.204 341.96C429.326 341.717 429.447 341.595 429.447 341.352C429.447 341.231 429.568 341.109 429.568 340.988C429.69 340.745 429.811 340.623 429.811 340.38C429.811 340.259 429.933 340.138 429.933 340.138C430.054 339.773 430.175 339.53 430.297 339.166C430.418 338.923 430.54 338.558 430.661 338.315C430.661 338.315 430.661 338.315 430.661 338.194C430.661 338.072 430.661 338.072 430.782 337.951C430.904 337.708 430.904 337.587 430.904 337.344C430.904 337.222 431.025 337.101 431.025 336.979C431.025 336.736 431.146 336.615 431.146 336.372C431.146 336.25 431.268 336.129 431.268 336.007C431.268 335.886 431.389 335.643 431.389 335.522C431.389 335.4 431.389 335.279 431.511 335.157C431.511 335.036 431.632 334.793 431.632 334.55C431.632 334.428 431.632 334.428 431.632 334.307V334.185C431.632 333.942 431.632 333.821 431.753 333.578C431.753 333.456 431.753 333.335 431.753 333.214C431.753 332.971 431.753 332.849 431.875 332.606C431.875 332.485 431.875 332.363 431.875 332.242C431.875 331.999 431.875 331.756 431.875 331.391V331.27C431.875 330.906 431.875 330.663 431.875 330.298C431.875 330.055 431.875 329.812 431.875 329.448L431.268 309.526C431.268 309.769 431.268 310.134 431.268 310.376Z" fill="#2F58FF"/>
<path d="M416.581 335.4C413.911 337.344 410.998 339.287 407.72 340.988C396.068 347.062 381.016 351.07 364.387 351.556C345.451 352.163 328.215 348.398 315.47 341.595C302.847 334.914 294.714 325.196 294.35 314.264C293.5 292.277 323.239 273.57 361.11 272.234C380.045 271.626 397.281 275.392 410.026 282.194C422.65 288.876 430.783 298.593 431.147 309.526C431.632 319.123 426.049 328.233 416.581 335.4ZM364.144 343.66C394.368 342.567 418.28 327.504 417.552 310.012C417.188 301.266 410.755 293.492 400.559 288.147C390.484 282.802 376.647 279.644 361.474 280.251C331.25 281.344 307.338 296.407 308.066 313.899C308.43 322.645 314.863 330.42 324.938 335.764C335.134 341.109 348.972 344.146 364.144 343.66Z" fill="#9AF4DC"/>
<path d="M419.009 346.94L419.616 366.983L408.328 360.91L407.721 340.988L419.009 346.94Z" fill="#2F58FF"/>
<path d="M427.87 341.352L419.009 346.94L407.721 340.988C410.998 339.287 413.911 337.465 416.582 335.4L427.87 341.352Z" fill="#9AF4DC"/>
<path d="M497.785 374.636C497.785 374.757 497.785 374.879 497.785 375C497.785 375.122 497.785 375.122 497.785 375.243C497.785 375.365 497.785 375.365 497.785 375.486C497.785 375.608 497.785 375.608 497.785 375.729C497.785 375.851 497.785 375.851 497.785 375.972C497.785 376.094 497.785 376.094 497.785 376.215C497.785 376.337 497.785 376.337 497.664 376.458C497.664 376.58 497.664 376.58 497.664 376.701C497.664 376.823 497.664 376.823 497.542 376.944C497.542 377.065 497.542 377.066 497.421 377.187C497.421 377.308 497.299 377.308 497.299 377.43C497.299 377.551 497.178 377.551 497.178 377.673L497.057 377.794C497.057 377.916 496.935 378.037 496.935 378.037C496.935 378.159 496.814 378.159 496.814 378.28C496.814 378.402 496.693 378.523 496.571 378.523L496.45 378.645C496.328 378.766 496.207 378.888 496.086 379.009C496.086 379.009 496.086 379.131 495.964 379.131C495.843 379.252 495.721 379.495 495.479 379.616L495.357 379.738C495.236 379.859 495.236 379.859 495.115 379.981C494.993 379.981 494.993 380.102 494.872 380.102C494.75 380.224 494.75 380.224 494.629 380.345C494.508 380.345 494.508 380.467 494.386 380.467C494.265 380.588 494.144 380.588 494.144 380.71C494.022 380.71 494.022 380.831 493.901 380.831C493.779 380.953 493.658 380.953 493.537 381.074C493.415 381.074 493.415 381.196 493.294 381.196C493.051 381.317 492.808 381.56 492.566 381.681C492.566 381.681 492.444 381.681 492.444 381.803C492.201 381.924 491.959 382.046 491.716 382.167C491.716 382.167 491.594 382.167 491.594 382.289C491.352 382.41 490.988 382.532 490.745 382.653C490.623 382.653 490.623 382.653 490.502 382.775C490.259 382.896 490.017 383.018 489.652 383.139H489.531C489.045 383.261 488.56 383.504 488.074 383.625C487.589 383.747 487.103 383.868 486.618 383.99H486.496C486.254 383.99 486.011 384.111 485.768 384.111C485.647 384.111 485.525 384.111 485.525 384.111C485.283 384.111 485.04 384.232 484.797 384.232C484.676 384.232 484.676 384.232 484.554 384.232C484.069 384.354 483.462 384.354 482.976 384.354H482.855C482.612 384.354 482.248 384.354 482.005 384.354C481.641 384.354 481.156 384.354 480.792 384.354C480.549 384.354 480.306 384.354 480.063 384.354C479.82 384.354 479.456 384.354 479.214 384.354C478.971 384.354 478.728 384.354 478.485 384.354C478.243 384.354 478 384.354 477.636 384.232C477.393 384.232 477.029 384.111 476.786 384.111C476.422 383.989 475.936 383.99 475.572 383.868C475.572 383.868 475.572 383.868 475.451 383.868C475.087 383.747 474.601 383.625 474.237 383.625C474.116 383.625 473.994 383.504 473.873 383.504C473.387 383.382 473.023 383.261 472.659 383.139C472.295 383.018 472.052 382.896 471.809 382.775C471.688 382.653 471.445 382.653 471.324 382.532C470.838 382.289 470.474 382.167 469.989 381.924L417.794 351.556C416.823 351.07 416.338 350.463 416.338 349.734L416.945 369.656C416.945 370.263 417.43 370.992 418.401 371.478L470.717 401.968C471.081 402.211 471.567 402.332 472.052 402.575C472.173 402.696 472.416 402.696 472.538 402.696C472.78 402.818 473.144 402.939 473.387 403.061C473.751 403.182 474.237 403.304 474.601 403.425C474.722 403.425 474.844 403.547 474.965 403.547C475.087 403.547 475.329 403.668 475.451 403.668C475.694 403.668 475.936 403.79 476.179 403.79C476.179 403.79 476.179 403.79 476.3 403.79C476.543 403.911 476.907 403.911 477.271 403.911C477.393 403.911 477.514 403.911 477.514 403.911C477.757 403.911 478 404.033 478.364 404.033C478.485 404.033 478.728 404.033 478.849 404.154C478.971 404.154 479.092 404.154 479.214 404.154C479.456 404.154 479.699 404.154 479.942 404.154C480.063 404.154 480.306 404.154 480.427 404.154C480.549 404.154 480.67 404.154 480.792 404.154C481.034 404.154 481.277 404.154 481.52 404.154C481.641 404.154 481.884 404.154 482.005 404.154C482.248 404.154 482.491 404.154 482.734 404.154C482.976 404.154 483.341 404.154 483.583 404.154C483.583 404.154 483.583 404.154 483.705 404.154C484.19 404.154 484.797 404.033 485.283 404.033H485.404C485.647 404.033 485.89 403.911 486.132 403.911C486.254 403.911 486.375 403.911 486.375 403.911C486.618 403.911 486.861 403.79 487.103 403.79H487.225C487.71 403.668 488.196 403.547 488.681 403.425C489.167 403.304 489.652 403.182 490.138 402.939C490.138 402.939 490.138 402.939 490.259 402.939C490.502 402.818 490.866 402.696 491.109 402.575C491.23 402.575 491.23 402.575 491.352 402.454C491.594 402.332 491.959 402.211 492.201 402.089C492.201 402.089 492.323 402.089 492.323 401.968C492.566 401.846 492.808 401.725 493.051 401.603C493.051 401.603 493.172 401.603 493.172 401.482C493.415 401.36 493.658 401.239 493.901 400.996C493.901 400.996 493.901 400.996 494.022 400.996L494.144 400.874C494.265 400.753 494.386 400.753 494.508 400.631C494.629 400.631 494.629 400.51 494.75 400.51C494.872 400.388 494.993 400.388 494.993 400.267C495.115 400.267 495.115 400.146 495.236 400.146C495.357 400.024 495.479 400.024 495.479 399.903C495.6 399.903 495.6 399.781 495.721 399.781C495.843 399.66 495.843 399.66 495.964 399.538L496.086 399.417C496.207 399.295 496.45 399.052 496.571 398.931C496.571 398.931 496.571 398.809 496.693 398.809C496.814 398.688 496.935 398.566 497.057 398.445C497.057 398.445 497.057 398.445 497.178 398.323C497.178 398.323 497.178 398.202 497.299 398.202C497.421 398.08 497.421 397.959 497.542 397.959C497.542 397.838 497.664 397.838 497.664 397.716C497.664 397.595 497.785 397.473 497.785 397.473C497.785 397.473 497.785 397.352 497.906 397.352C497.906 397.23 498.028 397.23 498.028 397.109C498.028 396.987 498.149 396.987 498.149 396.866C498.149 396.744 498.149 396.744 498.27 396.623C498.27 396.623 498.27 396.501 498.392 396.501C498.392 396.38 498.392 396.38 498.392 396.258C498.392 396.137 498.392 396.137 498.513 396.015C498.513 395.894 498.513 395.894 498.513 395.772V395.651C498.513 395.651 498.513 395.651 498.513 395.53C498.513 395.408 498.513 395.408 498.513 395.287C498.513 395.165 498.513 395.165 498.513 395.044C498.513 394.922 498.513 394.922 498.513 394.801V394.679C498.513 394.679 498.513 394.558 498.513 394.436L497.785 374.636Z" fill="#2F58FF"/>
<path d="M493.173 368.563C495.965 370.02 497.664 372.45 497.785 374.636C498.028 379.617 490.867 384.111 482.249 384.476C477.636 384.597 473.509 383.747 470.232 381.925L417.795 351.556C415.974 350.584 415.853 349.005 417.674 347.912L429.205 340.624C431.026 339.53 433.696 339.409 435.638 340.381L492.445 368.32C492.687 368.32 492.93 368.441 493.173 368.563Z" fill="#EBFDF8"/>
<path d="M417.674 347.912L429.205 340.624C431.026 339.53 433.696 339.409 435.638 340.381L492.445 368.32C492.688 368.441 492.93 368.563 493.173 368.684C495.965 370.142 497.664 372.571 497.786 374.758" stroke="#171A21" stroke-width="2" stroke-miterlimit="10" stroke-linecap="round" stroke-linejoin="round"/>
</svg>
