<svg width="499" height="431" viewBox="0 0 499 431" fill="none" xmlns="http://www.w3.org/2000/svg">
<path d="M188.384 338.923L445.956 189.146" stroke="#171A21" stroke-width="2" stroke-miterlimit="10" stroke-linecap="round" stroke-linejoin="round"/>
<path d="M357.347 366.862L99.7754 217.085" stroke="#171A21" stroke-width="2" stroke-miterlimit="10" stroke-linecap="round" stroke-linejoin="round"/>
<path d="M374.219 358.966L260.121 293.006C253.687 289.24 243.127 289.24 236.694 293.006L143.109 347.426C136.675 351.192 136.675 357.265 143.23 361.031L257.329 426.991C263.762 430.757 274.322 430.757 280.755 426.991L374.341 372.571C380.774 368.805 380.653 362.732 374.219 358.966Z" fill="white" stroke="#171A21" stroke-width="2" stroke-miterlimit="10" stroke-linecap="round" stroke-linejoin="round"/>
<path d="M374.219 358.966L260.121 293.006C253.687 289.24 243.127 289.24 236.694 293.006L143.109 347.426C136.675 351.192 136.675 357.265 143.23 361.031L257.329 426.991C263.762 430.757 274.322 430.757 280.755 426.991L374.341 372.571C380.774 368.805 380.653 362.732 374.219 358.966Z" stroke="#171A21" stroke-width="2" stroke-miterlimit="10" stroke-linecap="round" stroke-linejoin="round"/>
<path d="M339.019 350.098L255.63 301.873C251.624 299.565 245.312 299.565 241.307 301.873L158.524 350.098C154.64 352.406 154.64 356.051 158.524 358.359L241.914 406.584C245.919 408.892 252.231 408.892 256.237 406.584L339.019 358.359C343.025 356.172 343.025 352.406 339.019 350.098Z" fill="#EBFDF8" stroke="#171A21" stroke-width="2" stroke-miterlimit="10" stroke-linecap="round" stroke-linejoin="round" stroke-dasharray="12 12"/>
<path d="M374.219 328.598L260.121 262.637C253.687 258.872 243.127 258.872 236.694 262.637L143.109 317.058C136.675 320.823 136.675 326.897 143.23 330.663L257.329 396.623C263.762 400.389 274.322 400.389 280.755 396.623L374.341 342.203C380.774 338.437 380.653 332.363 374.219 328.598Z" fill="white" stroke="#171A21" stroke-width="2" stroke-miterlimit="10" stroke-linecap="round" stroke-linejoin="round"/>
<path d="M374.219 328.598L260.121 262.637C253.687 258.872 243.127 258.872 236.694 262.637L143.109 317.058C136.675 320.823 136.675 326.897 143.23 330.663L257.329 396.623C263.762 400.389 274.322 400.389 280.755 396.623L374.341 342.203C380.774 338.437 380.653 332.363 374.219 328.598Z" stroke="#171A21" stroke-width="2" stroke-miterlimit="10" stroke-linecap="round" stroke-linejoin="round"/>
<path d="M339.019 319.73L255.63 271.505C251.624 269.197 245.312 269.197 241.307 271.505L158.524 319.73C154.64 322.038 154.64 325.682 158.524 327.99L241.914 376.215C245.919 378.523 252.231 378.523 256.237 376.215L339.019 327.99C343.025 325.804 343.025 322.038 339.019 319.73Z" fill="#EBFDF8" stroke="#171A21" stroke-width="2" stroke-miterlimit="10" stroke-linecap="round" stroke-linejoin="round" stroke-dasharray="12 12"/>
<path d="M258.3 308.797L262.427 306.368C264.49 305.153 267.889 305.153 270.074 306.368L282.94 313.778C285.004 314.992 285.004 316.936 282.94 318.151L278.813 320.58L258.3 308.797ZM287.431 311.227L274.565 303.817C269.952 301.144 262.548 301.144 257.936 303.817L253.809 306.246L245.069 301.144C244.219 300.659 243.006 300.659 242.156 301.144L207.077 321.552C206.227 322.038 206.227 322.767 207.077 323.253L250.046 348.033C253.202 349.855 258.178 349.855 261.334 348.033L288.038 332.485C291.194 330.663 291.073 327.747 288.038 325.925L283.304 323.253L287.431 320.823C292.044 318.272 292.044 313.899 287.431 311.227Z" fill="#9AF4DC"/>
<path d="M99.2898 250.49L6.55426 196.92C4.12663 195.584 1.21347 197.284 1.21347 200.078L0.970703 209.189C0.970703 214.291 3.6411 219.15 8.13222 221.701L98.9257 274.177C103.417 276.728 108.879 276.728 113.37 274.177L203.678 221.701C208.048 219.15 210.84 214.412 210.84 209.31L211.082 200.2C211.082 197.406 208.048 195.705 205.742 197.041L113.734 250.49C109.243 253.041 103.781 253.041 99.2898 250.49Z" fill="#2F58FF"/>
<path d="M205.741 196.92L113.734 250.49C109.243 253.041 103.781 253.041 99.2897 250.49L6.55412 196.92C4.12649 195.584 4.12649 192.061 6.55412 190.725L98.5614 137.155C103.053 134.604 108.515 134.604 113.006 137.155L205.741 190.725C208.048 192.061 208.048 195.584 205.741 196.92Z" fill="white"/>
<path d="M211.083 202.143C211.083 197.041 208.412 192.183 203.921 189.632L113.128 137.155C108.637 134.604 103.174 134.604 98.6833 137.155L8.37539 189.632C4.00565 192.183 1.21387 196.92 1.21387 202.022" stroke="#171A21" stroke-width="2" stroke-miterlimit="10" stroke-linecap="round" stroke-linejoin="round"/>
<path d="M475.452 173.679C478.366 160.925 471.447 147.562 454.696 137.845C425.929 121.081 379.197 121.081 350.187 137.845C333.193 147.684 326.153 161.046 328.945 173.801C328.945 173.801 328.581 223.969 402.259 223.969C475.938 223.969 475.452 173.679 475.452 173.679Z" fill="#9AF4DC"/>
<path d="M328.338 169.549C328.338 169.914 328.338 170.278 328.459 170.642C328.459 171.007 328.581 171.25 328.581 171.614C328.581 171.979 328.702 172.343 328.702 172.707C328.702 173.072 328.823 173.315 328.945 173.679C329.066 174.044 329.066 174.408 329.188 174.773C329.309 175.137 329.43 175.38 329.43 175.744C329.552 176.109 329.673 176.473 329.794 176.838C329.916 177.202 330.037 177.445 330.159 177.809C330.28 178.174 330.523 178.538 330.644 178.903C330.766 179.267 330.887 179.51 331.13 179.874C331.251 180.239 331.494 180.603 331.737 180.968C331.979 181.332 332.101 181.697 332.343 182.182C332.343 182.304 332.465 182.425 332.465 182.425C332.829 183.033 333.193 183.519 333.557 184.126C333.679 184.247 333.679 184.369 333.8 184.49C334.164 185.098 334.65 185.584 335.014 186.191C335.135 186.313 335.135 186.434 335.257 186.555C335.621 187.041 335.985 187.527 336.47 188.013C336.592 188.135 336.713 188.256 336.835 188.378C337.32 188.863 337.806 189.471 338.413 189.957C338.534 190.078 338.655 190.2 338.655 190.2C339.019 190.564 339.505 190.929 339.869 191.414C340.233 191.779 340.597 192.022 340.962 192.386C341.326 192.629 341.69 192.994 341.933 193.237C342.297 193.601 342.661 193.844 343.146 194.087C343.511 194.33 343.875 194.694 344.239 194.937C344.603 195.18 345.089 195.545 345.453 195.788C345.817 196.03 346.181 196.273 346.667 196.638C347.152 196.881 347.516 197.245 348.002 197.488C348.609 197.853 349.094 198.217 349.701 198.581C350.794 199.189 351.886 199.796 353.1 200.404C353.464 200.525 353.828 200.768 354.071 200.889C354.92 201.375 355.892 201.74 356.863 202.226C357.227 202.347 357.469 202.469 357.834 202.59C359.047 203.076 360.261 203.562 361.475 204.048C361.718 204.169 361.961 204.169 362.082 204.291C363.174 204.655 364.267 205.02 365.238 205.384C365.723 205.505 366.088 205.627 366.573 205.87C367.18 206.113 367.787 206.234 368.394 206.477C368.879 206.599 369.365 206.72 369.972 206.963C370.579 207.085 371.186 207.328 371.793 207.449C372.278 207.57 372.764 207.692 373.37 207.813C373.977 207.935 374.584 208.056 375.313 208.299C375.798 208.421 376.405 208.542 376.891 208.664C377.497 208.785 378.226 208.907 378.833 209.028C379.318 209.15 379.804 209.271 380.289 209.271C381.624 209.514 383.081 209.757 384.416 209.878C384.659 209.878 384.78 209.878 385.023 210C386.237 210.121 387.451 210.364 388.665 210.486C389.15 210.486 389.636 210.607 390.121 210.607C390.971 210.729 391.699 210.729 392.549 210.85C393.034 210.85 393.52 210.972 394.005 210.972C394.855 210.972 395.705 211.093 396.433 211.093C396.919 211.093 397.404 211.093 397.89 211.093C398.618 211.093 399.346 211.093 400.074 211.093C400.56 211.093 401.045 211.093 401.531 211.093C402.259 211.093 403.109 211.093 403.837 211.093C404.323 211.093 404.687 211.093 405.172 211.093C405.901 211.093 406.629 211.093 407.236 210.972C407.721 210.972 408.207 210.972 408.693 210.85C409.421 210.85 410.271 210.729 410.999 210.729C411.484 210.729 411.848 210.729 412.334 210.607C413.305 210.486 414.155 210.486 415.126 210.364C415.369 210.364 415.733 210.364 415.975 210.243C417.189 210.121 418.282 210 419.496 209.757C419.738 209.757 419.86 209.757 420.102 209.636C421.073 209.514 422.166 209.393 423.137 209.15C423.501 209.028 423.987 209.028 424.351 208.907C425.079 208.785 425.929 208.664 426.657 208.421C427.021 208.299 427.507 208.299 427.871 208.178C428.721 208.056 429.57 207.813 430.298 207.57C430.784 207.449 431.27 207.328 431.634 207.206C432.362 206.963 433.09 206.842 433.819 206.599C434.183 206.477 434.668 206.356 435.032 206.234C436.246 205.87 437.339 205.505 438.552 205.141C438.795 205.02 438.917 205.02 439.159 204.898C440.495 204.412 441.83 203.926 443.044 203.44C443.529 203.197 444.136 203.076 444.622 202.833C444.986 202.712 445.471 202.469 445.835 202.347C446.442 202.104 446.928 201.861 447.535 201.618C447.899 201.497 448.263 201.254 448.627 201.132C449.234 200.889 449.841 200.525 450.448 200.161C450.691 200.039 451.055 199.918 451.298 199.675C452.147 199.189 453.118 198.703 453.968 198.217C468.534 189.835 475.817 178.781 475.817 167.727L476.059 190.078C476.059 201.132 468.776 212.186 454.211 220.568C453.361 221.054 452.39 221.54 451.54 222.026C451.298 222.147 450.933 222.269 450.691 222.512C450.084 222.876 449.477 223.119 448.87 223.484C448.506 223.605 448.142 223.848 447.777 223.969C447.171 224.212 446.685 224.455 446.078 224.698C445.714 224.82 445.228 225.063 444.864 225.184C444.5 225.306 444.136 225.549 443.65 225.67C443.529 225.67 443.408 225.792 443.286 225.792C441.951 226.277 440.737 226.763 439.402 227.249C439.159 227.371 439.038 227.371 438.795 227.492C437.703 227.857 436.489 228.221 435.275 228.585C435.032 228.585 434.911 228.707 434.668 228.707C434.425 228.828 434.183 228.828 433.94 228.828C433.212 229.071 432.483 229.193 431.755 229.436C431.27 229.557 430.784 229.679 430.42 229.8C429.57 230.043 428.721 230.165 427.992 230.408C427.628 230.529 427.385 230.529 427.021 230.651C426.9 230.651 426.9 230.651 426.778 230.651C426.05 230.772 425.2 230.893 424.472 231.136C424.108 231.258 423.623 231.258 423.258 231.379C422.287 231.501 421.195 231.744 420.224 231.865C420.102 231.865 419.86 231.865 419.738 231.987C418.524 232.108 417.432 232.351 416.218 232.473C415.975 232.473 415.611 232.473 415.369 232.594C414.519 232.716 413.548 232.837 412.577 232.837C412.577 232.837 412.577 232.837 412.455 232.837C412.091 232.837 411.606 232.837 411.242 232.959C410.513 232.959 409.664 233.08 408.935 233.08C408.45 233.08 407.964 233.08 407.479 233.201C406.75 233.201 406.022 233.323 405.415 233.323H405.294C404.93 233.323 404.444 233.323 404.08 233.323C403.352 233.323 402.502 233.323 401.774 233.323C401.288 233.323 400.803 233.323 400.317 233.323C399.589 233.323 398.861 233.323 398.132 233.323C398.011 233.323 397.89 233.323 397.768 233.323C397.404 233.323 397.161 233.323 396.797 233.323C395.947 233.323 395.098 233.201 394.37 233.201C393.884 233.201 393.398 233.08 392.913 233.08C392.063 233.08 391.335 232.959 390.485 232.837C390.243 232.837 389.878 232.837 389.636 232.716C389.393 232.716 389.271 232.716 389.029 232.594C387.815 232.473 386.601 232.351 385.387 232.108C385.145 232.108 385.023 232.108 384.78 231.987C383.324 231.744 381.989 231.622 380.653 231.379C380.532 231.379 380.411 231.379 380.289 231.258C379.925 231.136 379.561 231.136 379.197 231.015C378.59 230.893 377.862 230.772 377.255 230.651C376.769 230.529 376.162 230.408 375.677 230.286C375.07 230.165 374.463 230.043 373.735 229.8C373.249 229.679 372.642 229.557 372.157 229.436C371.55 229.314 370.943 229.071 370.336 228.95C369.85 228.828 369.365 228.707 368.758 228.464C368.151 228.342 367.544 228.1 366.937 227.857C366.694 227.735 366.452 227.735 366.209 227.614C365.966 227.614 365.845 227.492 365.602 227.371C364.51 227.006 363.417 226.642 362.446 226.277C362.203 226.156 361.961 226.156 361.839 226.034C360.625 225.549 359.412 225.063 358.198 224.577C357.834 224.455 357.591 224.334 357.227 224.212C356.256 223.848 355.406 223.362 354.435 222.876C354.071 222.755 353.707 222.512 353.464 222.39C352.25 221.783 351.158 221.176 350.065 220.568C349.701 220.447 349.458 220.204 349.216 220.082C348.973 219.961 348.73 219.718 348.366 219.596C347.88 219.353 347.516 218.989 347.031 218.746C346.667 218.503 346.181 218.26 345.817 217.896C345.453 217.653 344.967 217.288 344.603 217.045C344.239 216.802 343.875 216.56 343.511 216.195C343.146 215.952 342.782 215.588 342.297 215.345C341.933 215.102 341.569 214.737 341.326 214.494C340.962 214.13 340.597 213.887 340.233 213.523C340.112 213.401 339.991 213.28 339.748 213.158C339.505 212.915 339.141 212.672 338.898 212.308C338.777 212.186 338.655 212.065 338.655 212.065C338.17 211.579 337.563 210.972 337.077 210.486C336.956 210.364 336.835 210.243 336.713 210.121C336.349 209.636 335.864 209.15 335.499 208.664C335.378 208.542 335.378 208.421 335.257 208.299L335.135 208.178C334.771 207.692 334.407 207.206 334.043 206.72C333.921 206.599 333.921 206.477 333.8 206.356C333.436 205.748 333.072 205.262 332.708 204.655C332.708 204.534 332.586 204.412 332.586 204.412C332.465 204.169 332.344 204.048 332.222 203.805C332.101 203.683 332.101 203.44 331.979 203.319C331.737 202.954 331.615 202.59 331.372 202.226C331.251 201.861 331.13 201.618 330.887 201.254C330.766 200.889 330.523 200.525 330.401 200.161C330.28 200.039 330.28 199.796 330.159 199.675C330.159 199.553 330.037 199.432 330.037 199.189C329.916 198.824 329.794 198.46 329.673 198.096C329.552 197.731 329.43 197.488 329.43 197.124C329.309 196.759 329.309 196.395 329.188 196.03C329.188 195.788 329.066 195.666 329.066 195.423C329.066 195.302 329.066 195.18 328.945 195.059C328.823 194.694 328.823 194.33 328.823 193.965C328.823 193.601 328.702 193.358 328.702 192.994C328.702 192.629 328.702 192.265 328.581 191.9C328.581 191.657 328.581 191.414 328.581 191.293C328.581 191.05 328.581 190.807 328.581 190.686L328.338 168.334C328.338 168.699 328.338 169.185 328.338 169.549Z" fill="#2F58FF"/>
</svg>
