<svg width="168" height="168" viewBox="0 0 168 168" fill="none" xmlns="http://www.w3.org/2000/svg">
<g filter="url(#filter0_d)">
<rect x="42" y="24" width="84" height="84" rx="24" fill="white"/>
</g>
<path d="M99.9625 64.6486C99.6646 60.2251 97.4335 56.1013 93.8943 53.3616C90.3624 50.6219 85.7476 49.4875 81.2854 50.2153C73.3204 51.5708 67.4775 58.8053 68.037 66.7676C68.2987 70.606 69.9338 74.1448 72.6882 76.8488C71.9832 77.8691 71.351 78.5326 69.6722 79.8453C69.3379 80.1022 69.1853 80.5017 69.3016 80.9013C69.3742 81.3008 69.6722 81.629 70.0428 81.7432C70.6024 81.9287 71.4164 82 72.3466 82C74.316 82 76.8087 81.5648 78.7491 80.5731C81.3145 81.4506 84.0688 81.6718 86.7868 81.1938C94.7518 79.8097 100.522 72.5395 99.9625 64.6486ZM76.5617 68.5584C75.1082 68.5584 73.9599 67.424 73.9599 66.0042C73.9599 64.5844 75.1154 63.45 76.5617 63.45C78.0151 63.45 79.1634 64.5844 79.1634 66.0042C79.1634 67.424 78.0079 68.5584 76.5617 68.5584ZM84.0034 68.5584C82.55 68.5584 81.4017 67.424 81.4017 66.0042C81.4017 64.5844 82.5572 63.45 84.0034 63.45C85.4496 63.45 86.6051 64.5844 86.6051 66.0042C86.6051 67.424 85.4496 68.5584 84.0034 68.5584ZM91.4452 68.5584C89.9917 68.5584 88.8435 67.424 88.8435 66.0042C88.8435 64.5844 89.999 63.45 91.4452 63.45C92.8987 63.45 94.0469 64.5844 94.0469 66.0042C94.0469 67.424 92.8914 68.5584 91.4452 68.5584Z" fill="#FFD394"/>
<circle cx="99.5" cy="52.5" r="8.5" fill="#2F58FF" stroke="white" stroke-width="2"/>
<path d="M101.635 54.704V56H97.7559V54.704H99.0249V50.969C98.9769 51.041 98.8959 51.122 98.7819 51.212C98.6679 51.296 98.5389 51.38 98.3949 51.464C98.2509 51.542 98.1039 51.608 97.9539 51.662C97.8039 51.716 97.6689 51.743 97.5489 51.743V50.42C97.7109 50.42 97.8759 50.378 98.0439 50.294C98.2179 50.204 98.3769 50.108 98.5209 50.006C98.6649 49.898 98.7819 49.799 98.8719 49.709C98.9679 49.619 99.0189 49.568 99.0249 49.556H100.492V54.704H101.635Z" fill="white"/>
<defs>
<filter id="filter0_d" x="0" y="0" width="168" height="168" filterUnits="userSpaceOnUse" color-interpolation-filters="sRGB">
<feFlood flood-opacity="0" result="BackgroundImageFix"/>
<feColorMatrix in="SourceAlpha" type="matrix" values="0 0 0 0 0 0 0 0 0 0 0 0 0 0 0 0 0 0 127 0"/>
<feOffset dy="18"/>
<feGaussianBlur stdDeviation="21"/>
<feColorMatrix type="matrix" values="0 0 0 0 0.771285 0 0 0 0 0.893206 0 0 0 0 0.954167 0 0 0 0.4 0"/>
<feBlend mode="normal" in2="BackgroundImageFix" result="effect1_dropShadow"/>
<feBlend mode="normal" in="SourceGraphic" in2="effect1_dropShadow" result="shape"/>
</filter>
</defs>
</svg>
