<svg width="192" height="192" viewBox="0 0 192 192" fill="none" xmlns="http://www.w3.org/2000/svg">
<g filter="url(#filter0_d)">
<rect x="42" y="24" width="108" height="108" rx="24" fill="#FFD394"/>
</g>
<path d="M95.2184 99.0001C98.6528 99.0001 101.584 96.7579 102.612 93.6626H87.8247C88.8528 96.7579 91.7841 99.0001 95.2184 99.0001Z" fill="white"/>
<path d="M110.761 85.4484C108.77 84.4531 107.523 82.4296 107.523 80.2093V74.3906C107.523 68.8781 103.903 64.2187 98.9046 62.6547V60.6969C98.9046 58.6625 97.2531 57 95.2187 57C93.1843 57 91.5218 58.6516 91.5218 60.6969V62.6547C86.5344 64.2187 82.9141 68.8781 82.9141 74.3906V80.1984C82.9141 82.4187 81.6562 84.4531 79.6766 85.4374C78.6484 85.9624 77.9922 87.0124 77.9922 88.1609C77.9922 89.8453 79.3594 91.2015 81.0328 91.2015H109.405C111.089 91.2015 112.445 89.8343 112.445 88.1609C112.445 87.0124 111.789 85.9624 110.761 85.4484ZM93.9937 60.6969C93.9937 60.0187 94.5406 59.4609 95.2297 59.4609C95.9078 59.4609 96.4547 60.0078 96.4547 60.6969V62.1516C96.05 62.1078 95.6343 62.0859 95.2297 62.0859C94.814 62.0859 94.3984 62.1078 93.9937 62.1516V60.6969Z" fill="white"/>
<circle cx="108.5" cy="70.5" r="8.5" fill="#2F58FF" stroke="#FFD394" stroke-width="2"/>
<path d="M110.635 72.704V74H106.756V72.704H108.025V68.969C107.977 69.041 107.896 69.122 107.782 69.212C107.668 69.296 107.539 69.38 107.395 69.464C107.251 69.542 107.104 69.608 106.954 69.662C106.804 69.716 106.669 69.743 106.549 69.743V68.42C106.711 68.42 106.876 68.378 107.044 68.294C107.218 68.204 107.377 68.108 107.521 68.006C107.665 67.898 107.782 67.799 107.872 67.709C107.968 67.619 108.019 67.568 108.025 67.556H109.492V72.704H110.635Z" fill="white"/>
<defs>
<filter id="filter0_d" x="0" y="0" width="192" height="192" filterUnits="userSpaceOnUse" color-interpolation-filters="sRGB">
<feFlood flood-opacity="0" result="BackgroundImageFix"/>
<feColorMatrix in="SourceAlpha" type="matrix" values="0 0 0 0 0 0 0 0 0 0 0 0 0 0 0 0 0 0 127 0"/>
<feOffset dy="18"/>
<feGaussianBlur stdDeviation="21"/>
<feColorMatrix type="matrix" values="0 0 0 0 0.996078 0 0 0 0 0.823529 0 0 0 0 0.580392 0 0 0 0.4 0"/>
<feBlend mode="normal" in2="BackgroundImageFix" result="effect1_dropShadow"/>
<feBlend mode="normal" in="SourceGraphic" in2="effect1_dropShadow" result="shape"/>
</filter>
</defs>
</svg>
