<svg width="192" height="192" viewBox="0 0 192 192" fill="none" xmlns="http://www.w3.org/2000/svg">
<g filter="url(#filter0_d)">
<rect x="42" y="24" width="108" height="108" rx="24" fill="#FFD394"/>
</g>
<path d="M118.568 65.3613C117.29 64.0839 115.781 63.4645 114 63.4645H108.348L107.071 60.0194C106.761 59.2065 106.181 58.471 105.329 57.8903C104.439 57.3097 103.587 57 102.697 57H89.7677C88.8774 57 87.9871 57.3097 87.1742 57.8903C86.3226 58.471 85.7419 59.2065 85.4323 60.0194L84.1548 63.4645H78.4645C76.6839 63.4645 75.1742 64.0839 73.8968 65.3613C72.6194 66.6 72 68.1484 72 69.929V92.5355C72 94.3161 72.6194 95.8258 73.8968 97.1032C75.1742 98.3806 76.6839 99 78.4645 99H114C115.781 99 117.29 98.3806 118.568 97.1032C119.845 95.8258 120.465 94.3161 120.465 92.5355V69.929C120.426 68.1484 119.806 66.6 118.568 65.3613ZM104.206 89.2064C102 91.4129 99.329 92.5355 96.2323 92.5355C93.1355 92.5355 90.4645 91.4129 88.2581 89.2064C86.0516 87 84.929 84.329 84.929 81.2323C84.929 78.1355 86.0516 75.4645 88.2581 73.2581C90.4645 71.0516 93.1355 69.929 96.2323 69.929C99.329 69.929 102 71.0516 104.206 73.2581C106.413 75.4645 107.535 78.1355 107.535 81.2323C107.535 84.329 106.413 87 104.206 89.2064Z" fill="white"/>
<path d="M96.2315 73.9551C94.2186 73.9551 92.5154 74.6519 91.0831 76.0841C89.6509 77.5164 88.9541 79.2196 88.9541 81.2325C88.9541 83.2454 89.6509 84.9486 91.0831 86.3809C92.5154 87.8131 94.2186 88.5099 96.2315 88.5099C98.2444 88.5099 99.9477 87.8131 101.38 86.3809C102.812 84.9486 103.509 83.2454 103.509 81.2325C103.509 79.2196 102.812 77.5164 101.38 76.0841C99.9477 74.6519 98.2057 73.9551 96.2315 73.9551Z" fill="white"/>
<circle cx="115.5" cy="61.5" r="8.5" fill="#2F58FF" stroke="#FFD394" stroke-width="2"/>
<path d="M115.275 65.081C114.771 65.081 114.342 64.985 113.988 64.793C113.64 64.595 113.379 64.307 113.205 63.929L113.952 62.948C113.97 63.002 114.006 63.074 114.06 63.164C114.12 63.254 114.201 63.344 114.303 63.434C114.405 63.518 114.534 63.593 114.69 63.659C114.846 63.725 115.032 63.758 115.248 63.758C115.38 63.758 115.506 63.743 115.626 63.713C115.746 63.683 115.851 63.641 115.941 63.587C116.037 63.527 116.112 63.455 116.166 63.371C116.22 63.281 116.247 63.179 116.247 63.065C116.247 62.789 116.094 62.591 115.788 62.471C115.488 62.351 115.056 62.291 114.492 62.291H114.195V61.094H114.492C114.714 61.094 114.921 61.082 115.113 61.058C115.305 61.028 115.473 60.983 115.617 60.923C115.761 60.863 115.875 60.788 115.959 60.698C116.043 60.602 116.085 60.488 116.085 60.356C116.085 60.248 116.058 60.158 116.004 60.086C115.956 60.008 115.896 59.948 115.824 59.906C115.752 59.864 115.674 59.834 115.59 59.816C115.506 59.798 115.431 59.789 115.365 59.789C115.185 59.789 115.026 59.81 114.888 59.852C114.75 59.894 114.627 59.948 114.519 60.014C114.417 60.08 114.327 60.152 114.249 60.23C114.177 60.308 114.12 60.383 114.078 60.455L113.16 59.393C113.268 59.255 113.403 59.132 113.565 59.024C113.733 58.916 113.913 58.826 114.105 58.754C114.303 58.682 114.507 58.628 114.717 58.592C114.933 58.55 115.146 58.529 115.356 58.529C115.68 58.529 115.98 58.574 116.256 58.664C116.538 58.754 116.778 58.877 116.976 59.033C117.18 59.189 117.339 59.375 117.453 59.591C117.567 59.801 117.624 60.032 117.624 60.284C117.624 60.638 117.516 60.929 117.3 61.157C117.084 61.385 116.799 61.538 116.445 61.616C116.643 61.652 116.823 61.721 116.985 61.823C117.147 61.919 117.285 62.042 117.399 62.192C117.513 62.336 117.6 62.501 117.66 62.687C117.72 62.867 117.75 63.056 117.75 63.254C117.75 63.572 117.675 63.848 117.525 64.082C117.381 64.31 117.192 64.499 116.958 64.649C116.724 64.799 116.46 64.91 116.166 64.982C115.872 65.048 115.575 65.081 115.275 65.081Z" fill="white"/>
<defs>
<filter id="filter0_d" x="0" y="0" width="192" height="192" filterUnits="userSpaceOnUse" color-interpolation-filters="sRGB">
<feFlood flood-opacity="0" result="BackgroundImageFix"/>
<feColorMatrix in="SourceAlpha" type="matrix" values="0 0 0 0 0 0 0 0 0 0 0 0 0 0 0 0 0 0 127 0"/>
<feOffset dy="18"/>
<feGaussianBlur stdDeviation="21"/>
<feColorMatrix type="matrix" values="0 0 0 0 0.996078 0 0 0 0 0.823529 0 0 0 0 0.580392 0 0 0 0.4 0"/>
<feBlend mode="normal" in2="BackgroundImageFix" result="effect1_dropShadow"/>
<feBlend mode="normal" in="SourceGraphic" in2="effect1_dropShadow" result="shape"/>
</filter>
</defs>
</svg>
