<svg width="126" height="133" viewBox="0 0 126 133" fill="none" xmlns="http://www.w3.org/2000/svg">
<g filter="url(#filter0_f)">
<ellipse cx="63.0002" cy="66.7004" rx="38.8889" ry="42.3" fill="#2F82FF" fill-opacity="0.4"/>
</g>
<ellipse cx="63" cy="57.3" rx="42" ry="42.3" fill="#2F58FF"/>
<path d="M73.5438 49.0312H72.8438V54.4875C72.8438 58.5312 69.5563 61.8188 65.5125 61.8188H55.0312V62.5187C55.0312 65.525 57.4813 67.975 60.4875 67.975H71.6938L77.4562 72.7812C77.625 72.925 77.8438 73 78.0562 73C78.5688 73 78.9937 72.5812 78.9937 72.0625V54.4875C79 51.475 76.5625 49.0312 73.5438 49.0312Z" fill="white"/>
<path d="M70.9688 54.4875V46.4563C70.9688 43.4375 68.525 41 65.5125 41H52.4563C49.4375 41 47 43.4438 47 46.4563V64.0312C47 64.55 47.425 64.9688 47.9375 64.9688C48.15 64.9688 48.3687 64.8937 48.5375 64.75L54.3 59.9438H65.5063C68.5188 59.9438 70.9688 57.5 70.9688 54.4875ZM58.9812 55.9312C58.4625 55.9312 58.0437 55.5125 58.0437 54.9937C58.0437 54.475 58.4625 54.0562 58.9812 54.0562C59.5 54.0562 59.9187 54.475 59.9187 54.9937C59.9187 55.5062 59.5 55.9312 58.9812 55.9312ZM59.9187 51.7812V51.975C59.9187 52.4938 59.5 52.9125 58.9812 52.9125C58.4625 52.9125 58.0437 52.4938 58.0437 51.975V50.9688C58.0437 50.45 58.4625 50.0312 58.9812 50.0312C59.85 50.0312 60.5562 49.325 60.5562 48.4563C60.5562 47.5875 59.85 46.8812 58.9812 46.8812C58.5625 46.8812 58.1687 47.0437 57.8687 47.3438C57.575 47.6375 57.4062 48.0375 57.4062 48.4563C57.4062 48.975 56.9875 49.3938 56.4688 49.3938C55.95 49.3938 55.5312 48.975 55.5312 48.4563C55.5312 47.5375 55.8875 46.6688 56.5437 46.0188C57.1937 45.3688 58.0625 45.0062 58.9812 45.0062C60.8812 45.0062 62.4312 46.5563 62.4312 48.4563C62.4312 50.0437 61.3687 51.375 59.9187 51.7812Z" fill="white"/>
<defs>
<filter id="filter0_f" x="0.111328" y="0.400391" width="125.778" height="132.6" filterUnits="userSpaceOnUse" color-interpolation-filters="sRGB">
<feFlood flood-opacity="0" result="BackgroundImageFix"/>
<feBlend mode="normal" in="SourceGraphic" in2="BackgroundImageFix" result="shape"/>
<feGaussianBlur stdDeviation="12" result="effect1_foregroundBlur"/>
</filter>
</defs>
</svg>
