<svg width="30" height="30" viewBox="0 0 30 30" fill="none" xmlns="http://www.w3.org/2000/svg">
<path d="M23.7568 16.25C23.0432 16.25 22.3703 16.4688 21.8108 16.875C21.2514 16.4688 20.5784 16.25 19.8649 16.25C19.1351 16.25 18.4622 16.4844 17.9189 16.875C17.1892 16.3437 16.2081 16.1406 15.3243 16.3125V15.3281C18.1054 13.9375 19.8649 11.2031 19.8649 8.125C19.8649 3.64844 16.0784 0 11.4324 0C6.78649 0 3 3.64844 3 8.125C3 11.2031 4.75946 13.9453 7.54054 15.3281V28.75C7.54054 29.4375 8.12432 30 8.83784 30C9.55135 30 10.1351 29.4375 10.1351 28.75V14.5312V10.625C10.1351 10.2969 10.273 9.97656 10.5081 9.75C10.7595 9.50781 11.0919 9.375 11.4324 9.375C12.1459 9.375 12.7297 9.9375 12.7297 10.625V14.5312V19.375V23.75C12.7297 24.4375 13.3135 25 14.027 25C14.7405 25 15.3243 24.4375 15.3243 23.75V19.375C15.3243 19.0312 15.6162 18.75 15.973 18.75C16.2081 18.75 16.3622 18.8672 16.427 18.9375C16.4919 19.0078 16.6216 19.1563 16.6216 19.375V23.75C16.6216 24.4375 17.2054 25 17.9189 25C18.6324 25 19.2162 24.4375 19.2162 23.75V19.375C19.2162 19.0312 19.5081 18.75 19.8649 18.75C20.1 18.75 20.2541 18.8672 20.3189 18.9375C20.3838 19.0078 20.5135 19.1563 20.5135 19.375V23.75C20.5135 24.4375 21.0973 25 21.8108 25C22.5243 25 23.1081 24.4375 23.1081 23.75V19.375C23.1081 19.1484 23.2297 19 23.3027 18.9375C23.3757 18.875 23.5297 18.75 23.7568 18.75C24.1135 18.75 24.4054 19.0312 24.4054 19.375V28.75C24.4054 29.4375 24.9892 30 25.7027 30C26.4162 30 27 29.4375 27 28.75V19.375C27 17.6562 25.5486 16.25 23.7568 16.25ZM11.4324 6.875C10.4027 6.875 9.42973 7.26562 8.67568 7.97656C7.94595 8.6875 7.54054 9.63281 7.54054 10.625V12.3281C6.32432 11.2813 5.59459 9.77344 5.59459 8.125C5.59459 5.02344 8.21351 2.5 11.4324 2.5C14.6514 2.5 17.2703 5.02344 17.2703 8.125C17.2703 9.77344 16.5405 11.2813 15.3243 12.3281V10.625C15.3243 8.55469 13.5811 6.875 11.4324 6.875Z" fill="#FFD394"/>
</svg>
