<svg width="30" height="30" viewBox="0 0 30 30" fill="none" xmlns="http://www.w3.org/2000/svg">
<path d="M29.9922 13.6005C29.9531 13.1823 30.125 13.5764 26.0703 6.6193C25.8516 6.23324 25.4453 6 25.0156 6C23.9375 6 1.55469 6 1.23438 6C0.554688 6 0 6.57105 0 7.27078C0 7.97051 0.554688 8.54155 1.23438 8.54155H4.38281V11.1555H3.10938C2.42969 11.1555 1.875 11.7265 1.875 12.4263C1.875 13.126 2.42969 13.6971 3.10938 13.6971H4.38281V20.1555C4.38281 20.8552 4.9375 21.4263 5.61719 21.4263H7.72656C8.23438 22.9223 9.625 24 11.25 24C12.875 24 14.2656 22.9223 14.7734 21.4263H18.9844C19.4922 22.9223 20.8828 24 22.5078 24C24.1328 24 25.5234 22.9223 26.0312 21.4263H28.7656C29.4453 21.4263 30 20.8552 30 20.1555C30 13.2627 30 13.6971 29.9922 13.6005ZM26.5938 12.4424H23.1172V8.53351H24.3203L26.5938 12.4424ZM11.2422 21.4584C10.5391 21.4584 9.96875 20.8713 9.96875 20.1475C9.96875 19.4236 10.5391 18.8365 11.2422 18.8365C11.9453 18.8365 12.5156 19.4236 12.5156 20.1475C12.5156 20.8713 11.9453 21.4584 11.2422 21.4584ZM22.5078 21.4584C21.8047 21.4584 21.2344 20.8713 21.2344 20.1475C21.2344 19.4236 21.8047 18.8365 22.5078 18.8365C23.2109 18.8365 23.7812 19.4236 23.7812 20.1475C23.7812 20.8713 23.2109 21.4584 22.5078 21.4584ZM26.0312 18.8847C25.5234 17.3887 24.1328 16.311 22.5078 16.311C20.8828 16.311 19.4922 17.3887 18.9844 18.8847H14.7734C14.2656 17.3887 12.875 16.311 11.25 16.311C9.625 16.311 8.23438 17.3887 7.72656 18.8847H6.84375V13.689H8.74219C9.42188 13.689 9.97656 13.118 9.97656 12.4182C9.97656 11.7185 9.42188 11.1475 8.74219 11.1475H6.84375V8.53351H20.6484V13.7051C20.6484 14.4048 21.2031 14.9759 21.8828 14.9759H27.5312V18.8847H26.0312Z" fill="#FFD394"/>
<path d="M1.80303 16H1.19697C0.537879 16 0 16.6741 0 17.5C0 18.3259 0.537879 19 1.19697 19H1.80303C2.46212 19 3 18.3259 3 17.5C3 16.6646 2.46212 16 1.80303 16Z" fill="#FFD394"/>
<path d="M13.6723 11H12.3277C11.5966 11 11 11.6741 11 12.5C11 13.3259 11.5966 14 12.3277 14H13.6723C14.4034 14 15 13.3259 15 12.5C14.9916 11.6646 14.4034 11 13.6723 11Z" fill="#FFD394"/>
</svg>
