<svg width="30" height="30" viewBox="0 0 30 30" fill="none" xmlns="http://www.w3.org/2000/svg">
<path d="M28.7668 7.50781H23.7432C23.751 3.375 20.3915 0 16.2507 0C12.1177 0 8.75037 3.36719 8.75818 7.50781H5.31272L4.96115 3.625C4.90646 2.99219 4.37518 2.5 3.73453 2.5H1.23443C0.554711 2.5 0 3.05469 0 3.73438C0 4.41406 0.554711 4.96875 1.23443 4.96875H2.60948C2.68761 5.85156 4.02361 20.7578 4.03142 20.7891C4.17986 22.0859 4.84395 23.2109 5.80493 23.9688C3.89079 26.4062 5.63305 30 8.74256 30C11.3208 30 13.1412 27.4297 12.2583 24.9922H19.0008C18.1179 27.4219 19.9305 30 22.5166 30C24.5792 30 26.2511 28.3281 26.2511 26.2656C26.2511 24.2031 24.5792 22.5312 22.5166 22.5312H8.75037C7.81283 22.5312 7.00029 21.9688 6.64872 21.1406L26.337 19.9844C26.8761 19.9531 27.3293 19.5781 27.4621 19.0547L29.9622 9.03906C30.1575 8.26562 29.5716 7.50781 28.7668 7.50781ZM16.2507 2.46094C19.0242 2.46094 21.2743 4.71875 21.2743 7.48438C21.2743 10.2578 19.0164 12.5078 16.2507 12.5078C13.4771 12.5078 11.227 10.25 11.227 7.48438C11.227 4.71875 13.4771 2.46094 16.2507 2.46094ZM8.74256 27.5391C8.0394 27.5391 7.46906 26.9688 7.46906 26.2656C7.46906 25.5625 8.0394 24.9922 8.74256 24.9922C9.44571 24.9922 10.016 25.5625 10.016 26.2656C10.016 26.9688 9.44571 27.5391 8.74256 27.5391ZM22.5088 27.5391C21.8056 27.5391 21.2353 26.9688 21.2353 26.2656C21.2353 25.5625 21.8056 24.9922 22.5088 24.9922C23.2119 24.9922 23.7822 25.5625 23.7822 26.2656C23.7822 26.9688 23.2119 27.5391 22.5088 27.5391ZM25.2901 17.5781L6.31277 18.6953L5.53148 9.97656H9.18789C10.2114 12.8906 12.9927 14.9844 16.2507 14.9844C19.5086 14.9844 22.29 12.8906 23.3135 9.97656H27.1886L25.2901 17.5781Z" fill="#FFD394"/>
<path d="M14.5621 9.63443C15.0289 10.1219 15.7742 10.1219 16.2409 9.63443L18.6499 7.11871C19.1167 6.63129 19.1167 5.85299 18.6499 5.36557C18.1832 4.87814 17.4379 4.87814 16.9711 5.36557L15.3977 7.00865L15.0289 6.62343C14.5621 6.13601 13.8168 6.13601 13.3501 6.62343C12.8833 7.11085 12.8833 7.88915 13.3501 8.37657L14.5621 9.63443Z" fill="#FFD394"/>
</svg>
