<?xml version="1.0" encoding="utf-8"?>
<!-- Generator: Adobe Illustrator 22.1.0, SVG Export Plug-In . SVG Version: 6.00 Build 0)  -->
<svg version="1.1" id="Слой_1" xmlns="http://www.w3.org/2000/svg" xmlns:xlink="http://www.w3.org/1999/xlink" x="0px" y="0px"
	 viewBox="0 0 385.3 301.5" style="enable-background:new 0 0 385.3 301.5;" xml:space="preserve">
<style type="text/css">
	.st0{fill:#FFFFFF;stroke:#171A21;stroke-width:2;stroke-linecap:round;stroke-linejoin:round;stroke-miterlimit:10;}
	.st1{fill:#98A2F4;}
	.st2{fill:#2F58FF;}
	
		.st3{fill:#EAECFD;stroke:#171A21;stroke-width:2;stroke-linecap:round;stroke-linejoin:round;stroke-miterlimit:10;stroke-dasharray:12,12;}
</style>
<g id="_x33_">
	<path class="st0" d="M8.8,220l37-21.2L71.6,219l-33.2,27.8L8.8,220z"/>
	<path class="st0" d="M18.7,210.1c0-1.1,0.6-2.1,1.6-2.6L66.7,184c2.9-2.1,7.2-2,11.9,0.7l27.2,15.7c4.1,2.4,7.9,7,10.1,12.3
		l8.1,19.8c0.2,0.5,0.6,1,1,1.3l15,10.7c4.2,3,7.5,8,9.1,13c0.6,2.1,1,4.2,0.9,6.2c0,0.2,0,0.5,0,0.7c0,0.1,0,0.2,0,0.2l-0.1,11.4
		c0,1-0.6,2-1.5,2.5L110.9,300c-1.8,1-4-0.1-4.3-2.1l-2.1-15c-0.1-0.6-0.4-1.2-0.9-1.7l-14.8-14.1c-0.3-0.2-0.6-0.4-0.9-0.6
		L47,249.3c-0.2-0.1-0.5-0.2-0.7-0.4l-19.9-15.4c-0.2-0.2-0.4-0.4-0.6-0.6l-6.6-9.3c-0.3-0.5-0.5-1.1-0.5-1.7L18.7,210.1L18.7,210.1
		z"/>
	<path class="st1" d="M31.7,213.9v15l-7.5-4.3c0,0,0.9-3.6,1.4-5.6l0.2-0.8c0.1-0.4,0.3-0.8,0.4-1.1
		C27.3,214.9,29.3,213.8,31.7,213.9z"/>
	<path class="st1" d="M35.8,215.3l14.7,8.5v16L35,230.9v-16C35.3,215,35.6,215.2,35.8,215.3z"/>
	<path class="st2" d="M92.8,300.7l13.6-7.7l-14.5-22.8l-12.5,7.1L92.8,300.7z"/>
	<path class="st2" d="M85.8,278.2c-3.6-2.1-6.7-1.6-8.3,0.7c-0.8,1.2-1.3,2.8-1.3,4.8c0,0.2,0,0.5,0,0.7c0.3,5.9,4.4,12.9,9.5,15.8
		s9.3,0.8,9.6-4.8c0-0.2,0-0.5,0-0.7c0-2-0.5-4.1-1.3-6.2C92.4,284.2,89.3,280.2,85.8,278.2z"/>
	<path class="st2" d="M34.1,266.6l13.6-7.6l-14.5-22.8l-12.5,7.1L34.1,266.6z"/>
	<path class="st2" d="M27.1,244.2c-3.6-2.1-6.7-1.6-8.3,0.7c-0.8,1.2-1.3,2.8-1.3,4.8c0,0.2,0,0.5,0,0.7c0.3,5.9,4.4,12.9,9.5,15.8
		s9.3,0.8,9.6-4.8c0-0.2,0-0.5,0-0.7c0-2-0.5-4.1-1.3-6.2C33.7,250.2,30.6,246.2,27.1,244.2z"/>
	<path class="st1" d="M35.8,209.1c-14.3-8.4-28.4,0.9-28.4,14.2V243c0,1,0.6,2,1.5,2.5L15,249c0-0.2,0-0.5,0-0.7
		c0-1.9,0.3-3.6,1-4.9c0.2-0.4,0.4-0.7,0.6-1.1c2.2-3,6.2-3.4,10.5-0.9s8.3,7.4,10.4,13c0.2,0.6,0.4,1.2,0.6,1.8
		c0.6,2.1,1,4.2,1,6.1c0,0.2,0,0.5,0,0.7l34.6,20c0-0.2,0-0.5,0-0.7c0-1.9,0.3-3.6,1-4.9c0.2-0.4,0.4-0.7,0.6-1
		c2.2-3,6.2-3.4,10.5-0.9s8.3,7.4,10.4,13c0.2,0.6,0.4,1.2,0.6,1.8l0.2,0.2c0.6,2.1,0.8,3.7,0.8,5.6c0,0.2,0,0.5,0,0.7l4.9,2.9
		c1.9,1.1,4.3-0.3,4.4-2.5l0.1-8.1c0-0.1,0-0.2,0-0.2c0-0.2,0-0.5,0-0.7c0.1-1.9-0.2-4.1-0.9-6.2c-1.5-5-4.9-10.1-9.1-13l-15.1-10.7
		c-0.5-0.3-0.8-0.8-1-1.3L73,237.2c-2.1-5.3-6-9.9-10.1-12.3L35.8,209.1z"/>
	<path class="st3" d="M116.8,234.8l-28.4,16.3c-2,1.1-4.5,0.3-5.5-1.8l-6.7-15.1c-0.8-1.8-0.1-4,1.6-5l28.4-16.1
		c2-1.1,4.5-0.3,5.5,1.8l6.6,14.9C119.2,231.7,118.5,233.8,116.8,234.8z"/>
	<path class="st1" d="M145.2,261.1c1-0.6,1.8-0.6,2.4-0.2l2.2,1.3c-0.6-0.4-1.5-0.3-2.4,0.2c-1.9,1.1-3.4,3.7-3.4,5.9
		c0,1.1,0.4,1.8,1,2.2l-2.2-1.3c-0.6-0.4-1-1.1-1-2.2C141.7,264.8,143.3,262.2,145.2,261.1z"/>
	<path class="st1" d="M147.4,262.4c-1.9,1.1-3.4,3.7-3.4,5.9s1.5,3.1,3.4,2s3.4-3.7,3.4-5.9C150.8,262.2,149.3,261.3,147.4,262.4z"
		/>
	<path class="st1" d="M113.5,279.3c1-0.6,1.8-0.6,2.4-0.2l2.2,1.3c-0.6-0.4-1.5-0.3-2.4,0.2c-1.9,1.1-3.4,3.7-3.4,5.9
		c0,1.1,0.4,1.8,1,2.2l-2.2-1.3c-0.6-0.4-1-1.1-1-2.2C110.1,283,111.7,280.3,113.5,279.3z"/>
	<path class="st1" d="M115.8,280.5c-1.9,1.1-3.4,3.7-3.4,5.9c0,2.2,1.5,3.1,3.4,2s3.4-3.7,3.4-5.9S117.7,279.5,115.8,280.5z"/>
</g>
</svg>
