<?xml version="1.0" encoding="utf-8"?>
<!-- Generator: Adobe Illustrator 22.1.0, SVG Export Plug-In . SVG Version: 6.00 Build 0)  -->
<svg version="1.1" id="Слой_1" xmlns="http://www.w3.org/2000/svg" xmlns:xlink="http://www.w3.org/1999/xlink" x="0px" y="0px"
	 viewBox="0 0 385.3 301.5" style="enable-background:new 0 0 385.3 301.5;" xml:space="preserve">
<style type="text/css">
	.st0{fill:#FFFFFF;}
	.st1{fill:none;stroke:#171A21;stroke-width:2;stroke-linecap:round;stroke-linejoin:round;stroke-miterlimit:10;}
	.st2{fill:#2F58FF;}
</style>
<g id="_x32_">
	<path class="st0" d="M200,15.9c-3.9,0.1-7.4,0.5-8.8,0c-3.9-1.4-8.7-2.6-14.1-0.6c-5.5,2.1-28,12.4-35.2,15.6
		c-2,0.9-5.2,2.3-9.2,3.4c-0.5-1.5-1.3-2.4-2.2-2.3c-0.1,0-0.7,0.2-5.4,1.9c-0.7-0.1-1.3-0.2-2-0.3c-3.3-0.6-74.2-15.9-81.3-16.8
		c-12.2-1.5-12.4,7.8-3.8,10c4.1,1,65.7,21.1,63.4,21.9c-2.2,0.8-44.2,20.2-49.3,22.7c-6.6,3.1-9.7,2.4-14.3-0.4
		c-35.3-20.9-24.6-6.4-16.6,6.3l6.5,7.7l22.1-3.6l60-14.2c0,0-7.7,24.1-8.7,29.8c-0.9,5.2,1.6,9.3,7.4,3.2
		c4.4-4.6,10.7-12.8,17-21.3l17.6-3.6c1.3-0.1,2.1-2.3,1.9-5c-0.2-2.7-1.4-4.7-2.7-4.6c-0.1,0-4.8,1.7-9.8,3.5
		c7-9.6,12.8-18,14.3-19.8c1.9-2.3,42.8-15.8,52.8-21.9C209.4,21.6,203.9,15.7,200,15.9z"/>
	<path class="st1" d="M86.8,55.3c-11.4,5.2-32.1,14.8-34.7,16.1c-6.6,3.1-9.7,2.4-14.3-0.4c-35.3-20.9-24.6-6.4-16.6,6.3l6.5,7.7
		l22.1-3.6l60-14.2"/>
	<path class="st1" d="M146.7,49.6c1.9-2.3,42.8-15.8,52.8-21.9s4.5-11.9,0.6-11.8c-3.9,0.1-7.4,0.5-8.8,0c-3.9-1.4-8.7-2.6-14.1-0.6
		c-5.5,2.1-28,12.4-35.2,15.6c-2,0.9-5.2,2.3-9.2,3.4c-0.5-1.5-1.3-2.4-2.2-2.3c-0.1,0-0.7,0.2-5.4,1.9c-0.7-0.1-1.3-0.2-2-0.3
		C119.9,33,49,17.7,41.9,16.8c-12.2-1.5-12.4,7.8-3.8,10"/>
	<path class="st2" d="M23.8,89.6c-2.2-2.7-9.7-7-15.1-10.4s-2.6-7.6,9.6-4.6c0,0,17.4,3.9,20.7,4.3c3.3,0.4,5.5,2.1,12.9-1.9
		c7.5-3.9,47.2-20.6,50.6-22.6c3.3-1.9,0.1-3.5-11.7-8S45.4,29.5,40.6,27.7c-3.7-1.4-8.2-9.5,7.2-4.9s84.3,18.3,89.3,18.9
		c5,0.6,10.9-2,20.7-5.9c8.6-3.5,27.4-9.9,35.9-13.3s12.3,1.2,6.8,5.1c-9.6,6.8-43.4,23.5-47.3,25.5c-4,2-7.7,7.5-9.8,10.1
		c-3.2,3.9-27.9,32-34,37.1c-5.3,4.5-5.7-1.4-2.2-11.1c2.9-7.9,4.1-12.1,4.7-15.9c0.4-3-10.4,0.8-15.6,2.2
		C91.1,76.9,49.8,87,46,88.3c-3.1,1.1-5.1,1.8-10.4,8.6c-3.3,4.2-8.2,7.8-9.4,2.4C24.8,93.8,25.4,91.6,23.8,89.6z"/>
	<path class="st2" d="M186.9,17c-4.2-2.6-12.8,2.3-12.8,2.3l1.3,1.7L186.9,17z"/>
	<path class="st0" d="M130.5,33c-0.2,0-21.7,7.9-21.7,7.9c-0.8,0.1-1.4,1.5-1.2,3.2c0.1,1.7,0.9,3,1.7,3c0.1,0,0.1,0,0.2,0l21.8-4.4
		c1.3-0.1,2.1-2.3,1.9-5C133,35,131.8,32.9,130.5,33z"/>
	<path class="st2" d="M131.1,40.8c0.8-0.1,1.3-1.4,1.2-3.1c-0.1-1.6-0.9-2.9-1.6-2.9c-0.8,0.1-1.3,1.4-1.2,3.1
		C129.6,39.6,130.4,40.9,131.1,40.8z"/>
	<path class="st0" d="M142.1,65.9c-0.2,0-21.7,7.9-21.7,7.9c-0.8,0.1-1.4,1.5-1.2,3.2c0.1,1.7,0.9,3,1.7,3c0.1,0,0.1,0,0.2,0
		l21.8-4.4c1.3-0.1,2.1-2.3,1.9-5C144.6,67.8,143.4,65.8,142.1,65.9z"/>
	<path class="st2" d="M142.7,73.7c0.8-0.1,1.3-1.4,1.2-3.1s-0.9-2.9-1.6-2.9s-1.3,1.4-1.2,3.1C141.2,72.5,142,73.8,142.7,73.7z"/>
</g>
</svg>
