<?xml version="1.0" encoding="utf-8"?>
<!-- Generator: Adobe Illustrator 22.1.0, SVG Export Plug-In . SVG Version: 6.00 Build 0)  -->
<svg version="1.1" id="Слой_1" xmlns="http://www.w3.org/2000/svg" xmlns:xlink="http://www.w3.org/1999/xlink" x="0px" y="0px"
	 viewBox="0 0 385.3 301.5" style="enable-background:new 0 0 385.3 301.5;" xml:space="preserve">
<style type="text/css">
	.st0{fill:none;stroke:#171A21;stroke-width:2;stroke-linecap:round;stroke-linejoin:round;}
	.st1{fill:none;stroke:#171A21;stroke-width:2;stroke-linecap:round;stroke-linejoin:round;stroke-dasharray:11.84,11.84;}
	.st2{fill:#EAECFD;}
	.st3{fill:#98A2F4;}
	
		.st4{fill:none;stroke:#171A21;stroke-width:2;stroke-linecap:round;stroke-linejoin:round;stroke-miterlimit:10;stroke-dasharray:12,12;}
	.st5{fill:#FFFFFF;}
	.st6{fill:none;stroke:#171A21;stroke-width:2;stroke-linecap:round;stroke-linejoin:round;stroke-miterlimit:10;}
	.st7{fill:#2F58FF;}
</style>
<path class="st0" d="M289,130.6c-1.7-1-3.5-2-5.2-2.9"/>
<path class="st1" d="M273.1,122.6c-64.5-28.8-157.3-26.1-216.2,8.1C-7,167.8-6.7,227.9,57.6,265.1c64.3,37.1,168.2,37.1,232.1,0
	c60.4-35.1,63.4-90.7,9.3-128.1"/>
<path class="st0" d="M294.1,133.7c-1.7-1.1-3.4-2.1-5.1-3.1"/>
<path class="st2" d="M177,206.2c56.9,0,103.1-46.2,103.1-103.1S233.9,0,177,0C120,0,73.9,46.2,73.9,103.1S120,206.2,177,206.2z"/>
<path class="st3" d="M277.3,127.3c-1.7,7.3-4.2,14.2-7.3,20.7c-11.8,2.5-18.2,14.4-29.3,4.9c-8.8-7.5,1.1-15.5-4.1-20.6
	c-8.5-8.4-14.4-0.7-24.4-4.1c-17.4-6-5.2-22.2-25.6-41.8c-5.8-5.6-23.5-7.1-23.4-18c0.1-12.6,20.9-7,26.6-10.9
	c4.8-3.3,0.6-13.8,4.9-16.4c9.8-5.9,15,5.5,34.4,3.7c11.1-1,14.3-13.8,17.4-14.9c0.8-0.3,1.5-0.5,2.3-0.6
	C274,53.6,286.1,90.5,277.3,127.3z M89.8,158.2c8.5,1.3,10.6-12.3,14.9-19.9c2.6-4.6,10.7-6.6,11.5-12.5c0.8-6.3-7.5-12.1-6.2-18.2
	c2.3-10.7,19-10,18.4-21c-0.3-5.5-8.5-8.7-10.9-12c-2.6-3.5-3.5-12.4-5.7-20c-2.5-8.7-6.8-14.2-12.1-19.5
	C88.9,47.3,80.9,62.2,76.8,79.2C70,107.3,75.5,135.5,89.8,158.2z M200.5,203.7C200.5,203.6,200.5,203.6,200.5,203.7
	c-1.2-3.5-4-6.3-7.2-8.1c-1.4-0.8-2.8-1.4-4-2.4c-2.6-2.3-3.4-6.3-6.3-8.3c-2.7-1.8-6.5-1.2-9.4,0.3s-5.5,3.7-8.4,5.1
	c-4.9,2.3-10.6,2.2-15.9,1c-4.4-0.9-8.8-2.5-13.3-2.4c-3.6,0.1-7.3,1.6-9.4,4.4c8.1,4.5,16.9,8,26.3,10.3
	C169.1,207.4,185.3,207.2,200.5,203.7z"/>
<path class="st4" d="M83.6,148.4c-46.1,1.3-78.3-6.9-82.2-23.8c-6.3-27.3,64.5-67.1,158.2-88.8S334.4,18.7,340.7,46
	c4,17.3-23,39.6-67.2,59.2"/>
<path class="st2" d="M218.7,257.7c0.6-2.8-0.9-5.7-4.6-7.9c-6.3-3.7-16.6-3.7-22.9,0c-3.7,2.1-5.3,5.1-4.6,7.9c0,0-0.1,11,16.1,11
	S218.7,257.7,218.7,257.7z"/>
<path class="st3" d="M186.4,256.8c0,0.1,0,0.2,0,0.2c0,0.1,0,0.1,0,0.2s0,0.2,0,0.2c0,0.1,0,0.1,0,0.2s0,0.2,0.1,0.2
	c0,0.1,0,0.1,0.1,0.2c0,0.1,0,0.2,0.1,0.2c0,0.1,0.1,0.1,0.1,0.2s0.1,0.2,0.1,0.2c0,0.1,0.1,0.1,0.1,0.2s0.1,0.2,0.1,0.2
	c0,0.1,0.1,0.2,0.1,0.3c0,0,0,0,0,0.1c0.1,0.1,0.2,0.2,0.2,0.4c0,0,0,0,0,0.1c0.1,0.1,0.2,0.2,0.3,0.4c0,0,0,0,0.1,0.1
	s0.2,0.2,0.3,0.3c0,0,0,0.1,0.1,0.1c0.1,0.1,0.2,0.2,0.3,0.4c0,0,0,0,0.1,0.1s0.2,0.2,0.3,0.3c0.1,0.1,0.2,0.1,0.2,0.2
	c0.1,0.1,0.1,0.1,0.2,0.2c0.1,0.1,0.2,0.1,0.3,0.2s0.2,0.1,0.2,0.2c0.1,0.1,0.2,0.1,0.3,0.2s0.2,0.1,0.3,0.2s0.2,0.1,0.3,0.2
	s0.2,0.2,0.4,0.2c0.2,0.1,0.5,0.3,0.7,0.4c0.1,0,0.1,0.1,0.2,0.1c0.2,0.1,0.4,0.2,0.6,0.3c0.1,0,0.1,0.1,0.2,0.1
	c0.3,0.1,0.5,0.2,0.8,0.3c0,0,0.1,0,0.1,0.1c0.2,0.1,0.5,0.2,0.7,0.2c0.1,0,0.2,0.1,0.3,0.1s0.3,0.1,0.4,0.1c0.1,0,0.2,0.1,0.3,0.1
	s0.3,0.1,0.4,0.1c0.1,0,0.2,0.1,0.3,0.1s0.3,0.1,0.4,0.1c0.1,0,0.2,0.1,0.3,0.1s0.3,0.1,0.4,0.1c0.1,0,0.2,0,0.3,0.1
	c0.3,0.1,0.6,0.1,0.9,0.1h0.1c0.3,0,0.5,0.1,0.8,0.1c0.1,0,0.2,0,0.3,0c0.2,0,0.3,0,0.5,0c0.1,0,0.2,0,0.3,0c0.2,0,0.4,0,0.5,0
	s0.2,0,0.3,0c0.2,0,0.3,0,0.5,0c0.1,0,0.2,0,0.3,0c0.2,0,0.3,0,0.5,0c0.1,0,0.2,0,0.3,0c0.2,0,0.3,0,0.5,0c0.1,0,0.2,0,0.3,0
	c0.2,0,0.3,0,0.5,0c0.1,0,0.2,0,0.3,0c0.2,0,0.4,0,0.6-0.1c0.1,0,0.1,0,0.2,0c0.3,0,0.5-0.1,0.8-0.1h0.1c0.2,0,0.4-0.1,0.7-0.1
	c0.1,0,0.2,0,0.3-0.1c0.2,0,0.3-0.1,0.5-0.1c0.1,0,0.2,0,0.3-0.1c0.2,0,0.4-0.1,0.5-0.1s0.2-0.1,0.3-0.1c0.2,0,0.3-0.1,0.5-0.1
	c0.1,0,0.2-0.1,0.3-0.1c0.3-0.1,0.5-0.2,0.8-0.2h0.1c0.3-0.1,0.6-0.2,0.9-0.3c0.1,0,0.2-0.1,0.3-0.1s0.2-0.1,0.3-0.1
	c0.1-0.1,0.3-0.1,0.4-0.2c0.1,0,0.2-0.1,0.2-0.1c0.1-0.1,0.3-0.1,0.4-0.2c0.1,0,0.1-0.1,0.2-0.1c0.2-0.1,0.4-0.2,0.6-0.3
	c3.2-1.8,4.8-4.3,4.8-6.7v6.8c0,2.4-1.6,4.8-4.8,6.7c-0.2,0.1-0.4,0.2-0.6,0.3c-0.1,0-0.1,0.1-0.2,0.1c-0.1,0.1-0.3,0.1-0.4,0.2
	c-0.1,0-0.2,0.1-0.2,0.1c-0.1,0.1-0.3,0.1-0.4,0.2c-0.1,0-0.2,0.1-0.3,0.1s-0.2,0.1-0.3,0.1h-0.1c-0.3,0.1-0.6,0.2-0.9,0.3h-0.1
	c-0.3,0.1-0.5,0.2-0.8,0.2h-0.1h-0.1c-0.2,0-0.3,0.1-0.5,0.1c-0.1,0-0.2,0.1-0.3,0.1c-0.2,0-0.4,0.1-0.5,0.1s-0.1,0-0.2,0
	c0,0,0,0-0.1,0c-0.2,0-0.3,0.1-0.5,0.1c-0.1,0-0.2,0-0.3,0.1c-0.2,0-0.4,0.1-0.7,0.1H206c-0.3,0-0.5,0.1-0.8,0.1c-0.1,0-0.1,0-0.2,0
	c-0.2,0-0.4,0-0.6,0.1c-0.1,0-0.2,0-0.3,0c-0.2,0-0.3,0-0.5,0c-0.1,0-0.2,0-0.3,0c-0.2,0-0.3,0-0.5,0c-0.1,0-0.2,0-0.3,0
	c-0.2,0-0.3,0-0.5,0c-0.1,0-0.2,0-0.3,0c-0.2,0-0.3,0-0.5,0h-0.1c-0.1,0-0.1,0-0.2,0c-0.2,0-0.4,0-0.5,0s-0.2,0-0.3,0
	c-0.2,0-0.3,0-0.5,0c-0.1,0-0.1,0-0.2,0h-0.1c-0.3,0-0.5-0.1-0.8-0.1h-0.1c-0.3,0-0.6-0.1-0.9-0.1h-0.1c-0.1,0-0.2,0-0.2,0
	c-0.1,0-0.3-0.1-0.4-0.1c-0.1,0-0.2,0-0.3-0.1c-0.1,0-0.3-0.1-0.4-0.1c-0.1,0-0.2-0.1-0.3-0.1s-0.3-0.1-0.4-0.1s-0.2-0.1-0.3-0.1
	s-0.3-0.1-0.4-0.1c-0.1,0-0.1,0-0.2-0.1h-0.1c-0.2-0.1-0.5-0.2-0.7-0.2c0,0-0.1,0-0.1-0.1c-0.3-0.1-0.5-0.2-0.8-0.3
	c-0.1,0-0.1-0.1-0.2-0.1c-0.2-0.1-0.4-0.2-0.6-0.3c-0.1,0-0.1-0.1-0.2-0.1c-0.3-0.1-0.5-0.3-0.7-0.4c-0.1,0-0.1-0.1-0.2-0.1
	s-0.1-0.1-0.2-0.1c-0.1-0.1-0.2-0.1-0.3-0.2s-0.2-0.1-0.3-0.2s-0.2-0.1-0.3-0.2s-0.2-0.1-0.2-0.2c-0.1-0.1-0.2-0.1-0.3-0.2
	s-0.1-0.1-0.2-0.2c-0.1-0.1-0.2-0.1-0.2-0.2l-0.1-0.1c-0.1-0.1-0.1-0.1-0.2-0.2c0,0,0,0-0.1-0.1s-0.2-0.2-0.3-0.4l-0.1-0.1
	c-0.1-0.1-0.2-0.2-0.3-0.3c0,0,0,0-0.1-0.1s-0.2-0.2-0.2-0.3c0,0,0,0,0-0.1c-0.1-0.1-0.2-0.2-0.2-0.4c0,0,0,0,0-0.1l-0.1-0.1
	c0,0,0-0.1-0.1-0.1c0-0.1-0.1-0.2-0.1-0.2c0-0.1-0.1-0.1-0.1-0.2s-0.1-0.2-0.1-0.2v-0.1v-0.1c0-0.1-0.1-0.2-0.1-0.2
	c0-0.1,0-0.1-0.1-0.2c0-0.1,0-0.2-0.1-0.2v-0.1v-0.1c0-0.1,0-0.2,0-0.2c0-0.1,0-0.1,0-0.2s0-0.2,0-0.2v-0.1v-0.1v-6.8
	C186.4,256.6,186.4,256.7,186.4,256.8z"/>
<path class="st5" d="M214.5,251.6c0.5-2-0.6-4-3.2-5.6c-4.5-2.6-11.7-2.6-16.2,0c-2.6,1.5-3.7,3.6-3.3,5.6c0,0-0.1,7.8,11.4,7.8
	C214.6,259.4,214.5,251.6,214.5,251.6z"/>
<path class="st3" d="M191.7,251c0,0.1,0,0.1,0,0.2c0,0.1,0,0.1,0,0.2c0,0.1,0,0.1,0,0.2c0,0.1,0,0.1,0,0.2c0,0.1,0,0.1,0,0.2
	s0,0.1,0,0.2c0,0.1,0,0.1,0.1,0.2c0,0,0,0.1,0.1,0.1c0,0.1,0,0.1,0.1,0.2c0,0,0,0.1,0.1,0.1c0,0.1,0.1,0.1,0.1,0.2s0.1,0.1,0.1,0.2
	c0.1,0.1,0.1,0.2,0.2,0.3c0.1,0.1,0.1,0.2,0.2,0.3c0.1,0.1,0.1,0.1,0.2,0.2c0,0,0,0,0.1,0.1s0.2,0.2,0.2,0.2
	c0.1,0.1,0.1,0.1,0.2,0.2c0.1,0,0.1,0.1,0.2,0.1c0.1,0,0.1,0.1,0.2,0.1s0.1,0.1,0.2,0.1c0.1,0,0.1,0.1,0.2,0.1
	c0.1,0,0.1,0.1,0.2,0.1c0.1,0,0.1,0.1,0.2,0.1c0.1,0,0.1,0.1,0.2,0.1c0.1,0.1,0.2,0.1,0.3,0.2c0.2,0.1,0.3,0.2,0.5,0.3
	c0.1,0,0.1,0.1,0.2,0.1c0.1,0.1,0.3,0.1,0.4,0.2c0,0,0.1,0,0.1,0.1c0.2,0.1,0.4,0.2,0.6,0.2h0.1c0.2,0.1,0.3,0.1,0.5,0.2
	c0.1,0,0.1,0,0.2,0.1c0.1,0,0.2,0.1,0.3,0.1s0.2,0,0.2,0.1c0.1,0,0.2,0.1,0.3,0.1s0.2,0,0.2,0.1c0.1,0,0.2,0,0.3,0.1
	c0.1,0,0.2,0,0.2,0.1c0.1,0,0.2,0,0.3,0.1c0.1,0,0.2,0,0.2,0c0.2,0,0.4,0.1,0.6,0.1h0.1c0.2,0,0.4,0,0.6,0.1c0.1,0,0.1,0,0.2,0
	c0.1,0,0.2,0,0.4,0c0.1,0,0.2,0,0.2,0c0.1,0,0.3,0,0.4,0c0.1,0,0.1,0,0.2,0c0.1,0,0.2,0,0.3,0s0.2,0,0.2,0c0.1,0,0.2,0,0.4,0
	c0.1,0,0.1,0,0.2,0c0.1,0,0.2,0,0.3,0s0.2,0,0.2,0c0.1,0,0.2,0,0.4,0c0.1,0,0.1,0,0.2,0c0.1,0,0.3,0,0.4,0h0.1c0.2,0,0.4,0,0.5-0.1
	h0.1c0.2,0,0.3,0,0.5-0.1c0.1,0,0.1,0,0.2,0c0.1,0,0.2,0,0.4-0.1c0.1,0,0.1,0,0.2,0c0.1,0,0.3-0.1,0.4-0.1c0.1,0,0.1,0,0.2-0.1
	c0.1,0,0.2-0.1,0.3-0.1s0.1,0,0.2-0.1c0.2-0.1,0.4-0.1,0.5-0.2h0.1c0.2-0.1,0.4-0.1,0.6-0.2c0.1,0,0.2-0.1,0.2-0.1
	c0.1,0,0.1-0.1,0.2-0.1c0.1,0,0.2-0.1,0.3-0.1s0.1-0.1,0.2-0.1c0.1,0,0.2-0.1,0.3-0.1c0,0,0.1,0,0.1-0.1c0.1-0.1,0.3-0.1,0.4-0.2
	c2.3-1.3,3.4-3,3.4-4.7v4.8c0,1.7-1.1,3.4-3.4,4.7c-0.1,0.1-0.3,0.2-0.4,0.2c0,0-0.1,0-0.1,0.1c-0.1,0-0.2,0.1-0.3,0.1
	s-0.1,0.1-0.2,0.1c-0.1,0-0.2,0.1-0.3,0.1s-0.1,0.1-0.2,0.1c-0.1,0-0.1,0.1-0.2,0.1c0,0,0,0-0.1,0c-0.2,0.1-0.4,0.2-0.6,0.2h-0.1
	c-0.2,0.1-0.4,0.1-0.5,0.2h-0.1h-0.1c-0.1,0-0.2,0.1-0.3,0.1s-0.1,0-0.2,0.1c-0.1,0-0.3,0.1-0.4,0.1h-0.1c-0.1,0-0.2,0-0.4,0.1
	c-0.1,0-0.1,0-0.2,0c-0.2,0-0.3,0.1-0.5,0.1h-0.1c-0.2,0-0.4,0-0.5,0.1H205c-0.1,0-0.3,0-0.4,0c-0.1,0-0.1,0-0.2,0
	c-0.1,0-0.2,0-0.4,0c-0.1,0-0.2,0-0.2,0c-0.1,0-0.2,0-0.3,0s-0.1,0-0.2,0s-0.2,0-0.4,0c-0.1,0-0.2,0-0.2,0c-0.1,0-0.2,0-0.3,0
	c0,0,0,0-0.1,0s-0.1,0-0.2,0c-0.1,0-0.3,0-0.4,0c-0.1,0-0.2,0-0.2,0c-0.1,0-0.2,0-0.4,0H201h-0.1c-0.2,0-0.4,0-0.6-0.1h-0.1
	c-0.2,0-0.4-0.1-0.6-0.1c0,0,0,0-0.1,0s-0.1,0-0.2,0s-0.2,0-0.3-0.1c-0.1,0-0.2,0-0.2-0.1c-0.1,0-0.2,0-0.3-0.1
	c-0.1,0-0.2,0-0.2-0.1c-0.1,0-0.2,0-0.3-0.1c-0.1,0-0.2,0-0.2-0.1c-0.1,0-0.2-0.1-0.3-0.1h-0.1h-0.1c-0.2-0.1-0.3-0.1-0.5-0.2h-0.1
	c-0.2-0.1-0.4-0.2-0.6-0.2c0,0-0.1,0-0.1-0.1c-0.1-0.1-0.3-0.1-0.4-0.2c-0.1,0-0.1-0.1-0.2-0.1c-0.2-0.1-0.4-0.2-0.5-0.3l-0.1-0.1
	l-0.1-0.1c-0.1,0-0.1-0.1-0.2-0.1c-0.1,0-0.1-0.1-0.2-0.1s-0.1-0.1-0.2-0.1c-0.1,0-0.1-0.1-0.2-0.1c-0.1,0-0.1-0.1-0.2-0.1
	c-0.1,0-0.1-0.1-0.2-0.1c-0.1,0-0.1-0.1-0.2-0.1c0,0,0,0-0.1-0.1l-0.1-0.1c-0.1-0.1-0.2-0.2-0.2-0.2s0,0-0.1-0.1s-0.1-0.1-0.2-0.2
	c-0.1-0.1-0.1-0.2-0.2-0.2c-0.1-0.1-0.1-0.2-0.2-0.3c0,0,0-0.1-0.1-0.1v-0.1c0-0.1-0.1-0.1-0.1-0.2c0,0,0-0.1-0.1-0.1
	c0-0.1-0.1-0.1-0.1-0.2v-0.1c0,0,0,0,0-0.1s0-0.1-0.1-0.2c0-0.1,0-0.1,0-0.2s0-0.1,0-0.2v-0.1c0,0,0,0,0-0.1s0-0.1,0-0.2
	s0-0.1,0-0.2s0-0.1,0-0.2v-0.1v-0.1v-4.8C191.7,250.8,191.7,250.9,191.7,251z"/>
<path class="st6" d="M214.5,251.6c0.5-2-0.6-4-3.2-5.6c-4.5-2.6-11.7-2.6-16.2,0c-2.6,1.5-3.7,3.6-3.3,5.6"/>
<path class="st3" d="M203.4,175.5c-1.8,0-3.3,1.5-3.3,3.3v69.7c0,1.8,1.5,3.3,3.3,3.3s3.3-1.5,3.3-3.3v-69.7
	C206.7,177,205.2,175.5,203.4,175.5z"/>
<path class="st7" d="M208,208.9l-29.9,17.3c-1.8,1-2.7-0.9-1.5-3.1l7.4-13.8c0.7-1.3,0.7-2.7,0-3.2l-7.5-5.2
	c-1.2-0.8-0.3-3.8,1.5-4.8l29.9-17.3c1.1-0.7,2.1-0.1,2.1,1.2l0.1,25.4C210.1,206.6,209.2,208.2,208,208.9z"/>
</svg>
