<?xml version="1.0" encoding="utf-8"?>
<!-- Generator: Adobe Illustrator 22.1.0, SVG Export Plug-In . SVG Version: 6.00 Build 0)  -->
<svg version="1.1" id="Слой_1" xmlns="http://www.w3.org/2000/svg" xmlns:xlink="http://www.w3.org/1999/xlink" x="0px" y="0px"
	 viewBox="0 0 385.3 301.5" style="enable-background:new 0 0 385.3 301.5;" xml:space="preserve">
<style type="text/css">
	.st0{fill:#2F58FF;}
	.st1{fill:#EAECFD;}
	.st2{fill:#98A2F4;}
	.st3{fill:#FFFFFF;}
	.st4{fill:none;stroke:#171A21;stroke-width:2;stroke-linecap:round;stroke-linejoin:round;stroke-miterlimit:10;}
</style>
<g id="_x31_">
	<path class="st0" d="M385.3,177.6c0,0.1,0,0.3,0,0.4l-2.3,10c-0.2,0.7-0.4,1.4-0.6,2.1c-0.1,0.2-0.2,0.4-0.2,0.7
		c-0.2,0.5-0.3,1-0.5,1.4c-0.2,0.6-0.5,1.2-0.8,1.9c-0.1,0.1-0.1,0.3-0.2,0.4c-0.3,0.6-0.6,1.2-0.9,1.8c-0.1,0.1-0.1,0.2-0.2,0.3
		c-0.3,0.5-0.6,1-0.9,1.6c-0.1,0.1-0.2,0.3-0.2,0.4c-0.4,0.6-0.7,1.2-1.1,1.8c-0.1,0.1-0.2,0.2-0.2,0.3c-0.3,0.5-0.7,1-1.1,1.5
		c-0.1,0.1-0.2,0.3-0.3,0.4c-0.4,0.5-0.8,1-1.2,1.5c-0.1,0.1-0.2,0.2-0.3,0.3c-0.5,0.6-1,1.2-1.6,1.7c-0.2,0.2-0.3,0.3-0.5,0.5
		c-0.4,0.4-0.8,0.8-1.2,1.2c-0.2,0.2-0.4,0.4-0.6,0.6c-0.5,0.4-0.9,0.9-1.4,1.3c-0.1,0.1-0.2,0.2-0.3,0.3c-0.6,0.5-1.2,1-1.8,1.5
		c-0.1,0.1-0.3,0.2-0.4,0.3c-0.6,0.5-1.3,1-2,1.5s-1.4,1-2.1,1.5c-0.2,0.1-0.3,0.2-0.5,0.3c-0.7,0.5-1.4,0.9-2.1,1.4
		c-0.1,0.1-0.2,0.1-0.3,0.2c-0.8,0.5-1.5,1-2.3,1.4l-42,24.4c-0.4,0.3-0.9,0.5-1.4,0.7c-0.1,0.1-0.3,0.1-0.4,0.2
		c-0.4,0.2-0.8,0.3-1.2,0.4c-0.1,0-0.3,0.1-0.4,0.1c-0.3,0.1-0.5,0.1-0.8,0.2c-0.2,0.1-0.4,0.1-0.6,0.2c-0.3,0.1-0.5,0.1-0.8,0.2
		c-0.2,0-0.4,0.1-0.6,0.1c-0.6,0.1-1.1,0.2-1.7,0.2c-0.2,0-0.4,0-0.5,0c-0.3,0-0.7,0.1-1,0.1c-0.2,0-0.4,0-0.6,0c-0.3,0-0.5,0-0.8,0
		c-0.2,0-0.5,0-0.7,0c-0.3,0-0.5,0-0.8,0c-0.2,0-0.5,0-0.7-0.1c-0.3,0-0.5-0.1-0.7-0.1s-0.4-0.1-0.7-0.1c-0.3,0-0.5-0.1-0.8-0.1
		c-0.2,0-0.4-0.1-0.6-0.1c-0.3-0.1-0.6-0.1-0.9-0.2c-0.2,0-0.3-0.1-0.5-0.1c-0.5-0.2-1.1-0.3-1.6-0.5c-0.3-0.1-0.5-0.2-0.8-0.3
		c-0.1-0.1-0.3-0.1-0.4-0.2c-0.4-0.2-0.7-0.4-1.1-0.6l-26.2-15.1c-2.9-1.7-4.4-3.9-4.4-6.2l-0.1,28.1c0,2.2,1.5,4.5,4.4,6.2
		l26.2,15.1c0.4,0.2,0.7,0.4,1.1,0.6c0.1,0.1,0.3,0.1,0.4,0.2c0.2,0.1,0.4,0.2,0.7,0.3h0.1c0.5,0.2,1.1,0.4,1.6,0.5h0.1
		c0.1,0,0.3,0.1,0.4,0.1c0.3,0.1,0.6,0.2,0.9,0.2c0.1,0,0.2,0,0.2,0.1c0.1,0,0.2,0,0.4,0.1c0.3,0,0.5,0.1,0.8,0.1
		c0.1,0,0.2,0,0.3,0.1c0.1,0,0.2,0,0.4,0c0.2,0,0.5,0.1,0.7,0.1c0.1,0,0.2,0,0.4,0c0.1,0,0.2,0,0.3,0c0.3,0,0.5,0,0.8,0
		c0.1,0,0.3,0,0.4,0s0.2,0,0.3,0c0.3,0,0.5,0,0.8,0c0.1,0,0.3,0,0.4,0s0.2,0,0.2,0c0.3,0,0.7,0,1-0.1c0.1,0,0.3,0,0.4,0h0.1
		c0.6-0.1,1.1-0.1,1.7-0.2h0.1c0.2,0,0.3-0.1,0.5-0.1c0.3-0.1,0.6-0.1,0.8-0.2c0.2,0,0.4-0.1,0.6-0.2c0.3-0.1,0.5-0.1,0.8-0.2
		c0.1,0,0.1,0,0.2,0s0.2-0.1,0.3-0.1c0.4-0.1,0.8-0.3,1.2-0.4c0.1-0.1,0.3-0.1,0.4-0.2c0.5-0.2,1-0.5,1.4-0.7l42-24.4
		c0.4-0.2,0.8-0.5,1.3-0.7c0.4-0.2,0.7-0.4,1.1-0.7c0.1-0.1,0.2-0.1,0.3-0.2c0.7-0.5,1.4-0.9,2.1-1.4c0.2-0.1,0.3-0.2,0.5-0.3
		c0.7-0.5,1.4-1,2.1-1.5s1.3-1,2-1.5c0.1-0.1,0.3-0.2,0.4-0.3c0.6-0.5,1.2-1,1.8-1.5c0.1-0.1,0.2-0.2,0.3-0.3
		c0.3-0.2,0.5-0.5,0.8-0.7c0.2-0.2,0.4-0.4,0.6-0.6s0.4-0.4,0.6-0.6c0.4-0.4,0.8-0.8,1.2-1.2c0.2-0.2,0.3-0.3,0.5-0.5
		c0.5-0.6,1.1-1.2,1.6-1.7c0.1-0.1,0.2-0.2,0.3-0.3c0.3-0.4,0.7-0.8,1-1.2c0.1-0.1,0.1-0.2,0.2-0.3s0.2-0.3,0.3-0.4
		c0.4-0.5,0.7-1,1.1-1.5c0.1-0.1,0.2-0.2,0.2-0.3c0.4-0.6,0.8-1.2,1.1-1.8c0.1-0.1,0.2-0.3,0.2-0.4c0.1-0.2,0.3-0.5,0.4-0.7
		c0.2-0.3,0.3-0.5,0.4-0.8c0.1-0.1,0.1-0.2,0.2-0.3c0.3-0.6,0.6-1.2,0.9-1.8c0.1-0.1,0.1-0.3,0.2-0.4c0.3-0.6,0.5-1.2,0.8-1.9
		c0.2-0.5,0.3-1,0.5-1.5c0.1-0.2,0.1-0.4,0.2-0.6c0.2-0.7,0.4-1.4,0.6-2.1l2.3-10c0,0,0,0,0-0.1s0-0.2,0-0.3L385.3,177.6
		L385.3,177.6z"/>
	<path class="st1" d="M383.7,175.4c1.1,0.6,1.7,1.6,1.5,2.6l-2.3,10c-2.6,11.5-11.7,22.1-25.8,30.3l-42,24.4
		c-5.8,3.4-15.3,3.4-21.2,0l-26.2-15.1c-5.9-3.4-5.9-8.9-0.1-12.3l42-24.4c14.1-8.2,32.5-13.5,52.3-15l17.3-1.4
		C381,174.4,382.6,174.8,383.7,175.4z"/>
	<path class="st2" d="M351.4,176.6c0,0.1,0,0.2,0,0.2l-1.3,5.6c-0.1,0.4-0.2,0.8-0.3,1.2c0,0.1-0.1,0.3-0.1,0.4
		c-0.1,0.3-0.2,0.5-0.3,0.8s-0.3,0.7-0.4,1c0,0.1-0.1,0.1-0.1,0.2c-0.2,0.3-0.3,0.7-0.5,1c0,0.1-0.1,0.1-0.1,0.2
		c-0.2,0.3-0.3,0.6-0.5,0.9c0,0.1-0.1,0.2-0.1,0.2c-0.2,0.3-0.4,0.7-0.6,1c0,0.1-0.1,0.1-0.1,0.2c-0.2,0.3-0.4,0.5-0.6,0.8
		c-0.1,0.1-0.1,0.2-0.2,0.2c-0.2,0.3-0.4,0.6-0.7,0.8c-0.1,0.1-0.1,0.1-0.1,0.2c-0.3,0.3-0.6,0.7-0.9,1c-0.1,0.1-0.2,0.2-0.3,0.3
		c-0.2,0.2-0.5,0.5-0.7,0.7c-0.1,0.1-0.2,0.2-0.3,0.3c-0.3,0.2-0.5,0.5-0.8,0.7c-0.1,0-0.1,0.1-0.2,0.1c-0.3,0.3-0.7,0.6-1,0.9
		c-0.1,0.1-0.2,0.1-0.2,0.2c-0.4,0.3-0.7,0.6-1.1,0.8c-0.4,0.3-0.8,0.6-1.2,0.8c-0.1,0.1-0.2,0.1-0.3,0.2c-0.4,0.3-0.8,0.5-1.2,0.8
		c-0.1,0-0.1,0.1-0.2,0.1c-0.4,0.3-0.9,0.5-1.3,0.8l-23.5,13.7c-0.3,0.1-0.5,0.3-0.8,0.4c-0.1,0-0.2,0.1-0.2,0.1
		c-0.2,0.1-0.4,0.2-0.7,0.2c-0.1,0-0.2,0.1-0.2,0.1c-0.1,0-0.3,0.1-0.4,0.1s-0.2,0.1-0.3,0.1c-0.2,0-0.3,0.1-0.5,0.1
		c-0.1,0-0.2,0-0.3,0.1c-0.3,0.1-0.6,0.1-1,0.1c-0.1,0-0.2,0-0.3,0c-0.2,0-0.4,0-0.6,0c-0.1,0-0.2,0-0.4,0s-0.3,0-0.5,0
		c-0.1,0-0.3,0-0.4,0s-0.3,0-0.4,0s-0.3,0-0.4,0s-0.3,0-0.4,0s-0.2,0-0.4-0.1c-0.1,0-0.3,0-0.4-0.1c-0.1,0-0.2,0-0.3-0.1
		c-0.2,0-0.3-0.1-0.5-0.1c-0.1,0-0.2,0-0.3-0.1c-0.3-0.1-0.6-0.2-0.9-0.3c-0.1-0.1-0.3-0.1-0.4-0.2c-0.1,0-0.1-0.1-0.2-0.1
		c-0.2-0.1-0.4-0.2-0.6-0.3l-14.7-8.5c-1.7-1-2.5-2.2-2.5-3.5l-0.1,17.9c0,1.3,0.8,2.5,2.5,3.5l14.7,8.5c0.2,0.1,0.4,0.2,0.6,0.3
		c0.1,0,0.1,0.1,0.2,0.1c0.1,0.1,0.2,0.1,0.4,0.2c0.3,0.1,0.6,0.2,0.9,0.3c0,0,0,0,0.1,0s0.1,0,0.2,0.1c0.2,0,0.3,0.1,0.5,0.1h0.1
		c0.1,0,0.1,0,0.2,0s0.3,0.1,0.4,0.1s0.1,0,0.2,0s0.1,0,0.2,0s0.3,0,0.4,0s0.1,0,0.2,0s0.1,0,0.2,0s0.3,0,0.4,0s0.1,0,0.2,0
		s0.1,0,0.2,0c0.2,0,0.3,0,0.5,0c0.1,0,0.2,0,0.2,0h0.1c0.2,0,0.4,0,0.6,0c0.1,0,0.2,0,0.2,0s0,0,0.1,0c0.3,0,0.6-0.1,1-0.1
		c0.1,0,0.2,0,0.3-0.1c0.2,0,0.3-0.1,0.5-0.1c0.1,0,0.2-0.1,0.3-0.1c0.1,0,0.3-0.1,0.4-0.1h0.1c0.1,0,0.1,0,0.1-0.1
		c0.2-0.1,0.4-0.2,0.7-0.2c0.1,0,0.2-0.1,0.2-0.1c0.3-0.1,0.5-0.3,0.8-0.4l23.5-13.7c0.2-0.1,0.5-0.3,0.7-0.4
		c0.2-0.1,0.4-0.2,0.6-0.4c0.1,0,0.1-0.1,0.2-0.1c0.4-0.3,0.8-0.5,1.2-0.8c0.1-0.1,0.2-0.1,0.3-0.2c0.4-0.3,0.8-0.6,1.2-0.8
		c0.4-0.3,0.7-0.6,1.1-0.8c0.1-0.1,0.2-0.1,0.2-0.2c0.3-0.3,0.7-0.6,1-0.9c0.1,0,0.1-0.1,0.2-0.1c0.2-0.1,0.3-0.3,0.4-0.4
		c0.1-0.1,0.2-0.2,0.3-0.3s0.2-0.2,0.3-0.3c0.2-0.2,0.5-0.5,0.7-0.7c0.1-0.1,0.2-0.2,0.3-0.3c0.3-0.3,0.6-0.6,0.9-1
		c0.1-0.1,0.1-0.1,0.2-0.2c0.2-0.2,0.4-0.4,0.5-0.7c0-0.1,0.1-0.1,0.1-0.2c0.1-0.1,0.1-0.2,0.2-0.2c0.2-0.3,0.4-0.5,0.6-0.8
		c0-0.1,0.1-0.1,0.1-0.2c0.2-0.3,0.4-0.7,0.6-1c0-0.1,0.1-0.2,0.1-0.2c0.1-0.1,0.2-0.3,0.2-0.4c0.1-0.2,0.2-0.3,0.2-0.5
		c0-0.1,0.1-0.1,0.1-0.2c0.2-0.3,0.3-0.7,0.5-1c0-0.1,0.1-0.1,0.1-0.2c0.2-0.3,0.3-0.7,0.4-1s0.2-0.6,0.3-0.8c0-0.1,0.1-0.2,0.1-0.3
		c0.1-0.4,0.2-0.8,0.3-1.2l1.3-5.6c0-0.1,0-0.1,0-0.2L351.4,176.6z"/>
	<path class="st3" d="M350.5,175.4c0.6,0.4,1,0.9,0.8,1.4l-1.3,5.6c-1.5,6.4-6.6,12.4-14.5,17L312,213.1c-3.3,1.9-8.6,1.9-11.9,0
		l-14.7-8.5c-3.3-1.9-3.3-5,0-6.9l23.5-13.7c7.9-4.6,18.2-7.5,29.3-8.4l9.7-0.8C349,174.8,349.9,175,350.5,175.4z"/>
	<path class="st4" d="M285.6,204.6c-3.3-1.9-3.3-5,0-6.9l23.5-13.7c7.9-4.6,18.2-7.5,29.3-8.4l9.7-0.8c1-0.1,1.9,0.1,2.5,0.5
		s1,0.9,0.8,1.4l-1.3,5.6"/>
	<path class="st2" d="M327.6,244.8c-1.6,0.9-3,2.7-3.7,4.6c-0.4,0.9-0.6,1.9-0.6,2.8c0,0.1,0,0.2,0,0.3c0.2,2.5,2,3.4,4.3,2.1
		c2.3-1.3,4.1-4.4,4.3-7.1c0-0.1,0-0.2,0-0.3c0-0.9-0.2-1.6-0.6-2.1C330.5,244.1,329.2,243.9,327.6,244.8z"/>
	<path class="st2" d="M344.1,236.5c-1.6,0.9-3,2.7-3.7,4.6c-0.4,0.9-0.6,1.9-0.6,2.8c0,0.1,0,0.2,0,0.3c0.2,2.5,2,3.4,4.3,2.1
		c2.3-1.3,4.1-4.4,4.3-7.1c0-0.1,0-0.2,0-0.3c0-0.9-0.2-1.6-0.6-2.1C347,235.8,345.7,235.6,344.1,236.5z"/>
</g>
</svg>
