<?xml version="1.0" encoding="utf-8"?>
<!-- Generator: Adobe Illustrator 22.1.0, SVG Export Plug-In . SVG Version: 6.00 Build 0)  -->
<svg version="1.1" id="Слой_1" xmlns="http://www.w3.org/2000/svg" xmlns:xlink="http://www.w3.org/1999/xlink" x="0px" y="0px"
	 viewBox="0 0 385.3 301.5" style="enable-background:new 0 0 385.3 301.5;" xml:space="preserve">
<style type="text/css">
	.st0{fill:none;stroke:#171A21;stroke-width:2;stroke-linecap:round;stroke-linejoin:round;}
	.st1{fill:none;stroke:#171A21;stroke-width:2;stroke-linecap:round;stroke-linejoin:round;stroke-dasharray:11.84,11.84;}
	.st2{fill:#EAECFD;}
	.st3{fill:#98A2F4;}
	
		.st4{fill:none;stroke:#171A21;stroke-width:2;stroke-linecap:round;stroke-linejoin:round;stroke-miterlimit:10;stroke-dasharray:12,12;}
	.st5{fill:#FFFFFF;}
	.st6{fill:none;stroke:#171A21;stroke-width:2;stroke-linecap:round;stroke-linejoin:round;stroke-miterlimit:10;}
	.st7{fill:#2F58FF;}
	.st8{fill:#FFFFFF;stroke:#171A21;stroke-width:2;stroke-linecap:round;stroke-linejoin:round;stroke-miterlimit:10;}
	
		.st9{fill:#EAECFD;stroke:#171A21;stroke-width:2;stroke-linecap:round;stroke-linejoin:round;stroke-miterlimit:10;stroke-dasharray:12,12;}
</style>
<path class="st0" d="M289,130.6c-1.7-1-3.5-2-5.2-2.9"/>
<path class="st1" d="M273.1,122.6c-64.5-28.8-157.3-26.1-216.2,8.1C-7,167.8-6.7,227.9,57.6,265.1c64.3,37.1,168.2,37.1,232.1,0
	c60.4-35.1,63.4-90.7,9.3-128.1"/>
<path class="st0" d="M294.1,133.7c-1.7-1.1-3.4-2.1-5.1-3.1"/>
<path class="st2" d="M177,206.2c56.9,0,103.1-46.2,103.1-103.1C280.1,46.2,233.9,0,177,0C120,0,73.9,46.2,73.9,103.1
	C73.9,160,120,206.2,177,206.2z"/>
<path class="st3" d="M277.3,127.3c-1.7,7.3-4.2,14.2-7.3,20.7c-11.8,2.5-18.2,14.4-29.3,4.9c-8.8-7.5,1.1-15.5-4.1-20.6
	c-8.5-8.4-14.4-0.7-24.4-4.1c-17.4-6-5.2-22.2-25.6-41.8c-5.8-5.6-23.5-7.1-23.4-18c0.1-12.6,20.9-7,26.6-10.9
	c4.8-3.3,0.6-13.8,4.9-16.4c9.8-5.9,15,5.5,34.4,3.7c11.1-1,14.3-13.8,17.4-14.9c0.8-0.3,1.5-0.5,2.3-0.6
	C274,53.6,286.1,90.5,277.3,127.3z M89.8,158.2c8.5,1.3,10.6-12.3,14.9-19.9c2.6-4.6,10.7-6.6,11.5-12.5c0.8-6.3-7.5-12.1-6.2-18.2
	c2.3-10.7,19-10,18.4-21c-0.3-5.5-8.5-8.7-10.9-12c-2.6-3.5-3.5-12.4-5.7-20c-2.5-8.7-6.8-14.2-12.1-19.5
	C88.9,47.3,80.9,62.2,76.8,79.2C70,107.3,75.5,135.5,89.8,158.2z M200.5,203.7C200.5,203.6,200.5,203.6,200.5,203.7
	c-1.2-3.5-4-6.3-7.2-8.1c-1.4-0.8-2.8-1.4-4-2.4c-2.6-2.3-3.4-6.3-6.3-8.3c-2.7-1.8-6.5-1.2-9.4,0.3c-2.9,1.5-5.5,3.7-8.4,5.1
	c-4.9,2.3-10.6,2.2-15.9,1c-4.4-0.9-8.8-2.5-13.3-2.4c-3.6,0.1-7.3,1.6-9.4,4.4c8.1,4.5,16.9,8,26.3,10.3
	C169.1,207.4,185.3,207.2,200.5,203.7z"/>
<path class="st4" d="M83.6,148.4c-46.1,1.3-78.3-6.9-82.2-23.8c-6.3-27.3,64.5-67.1,158.2-88.8C253.3,14.1,334.4,18.7,340.7,46
	c4,17.3-23,39.6-67.2,59.2"/>
<path class="st5" d="M200,15.9c-3.9,0.1-7.4,0.5-8.8,0c-3.9-1.4-8.7-2.6-14.1-0.6c-5.5,2.1-28,12.4-35.2,15.6
	c-2,0.9-5.2,2.3-9.2,3.4c-0.5-1.5-1.3-2.4-2.2-2.3c-0.1,0-0.7,0.2-5.4,1.9c-0.7-0.1-1.3-0.2-2-0.3c-3.3-0.6-74.2-15.9-81.3-16.8
	c-12.2-1.5-12.4,7.8-3.8,10c4.1,1,65.7,21.1,63.4,21.9c-2.2,0.8-44.2,20.2-49.3,22.7c-6.6,3.1-9.7,2.4-14.3-0.4
	c-35.3-20.9-24.6-6.4-16.6,6.3l6.5,7.7l22.1-3.6l60-14.2c0,0-7.7,24.1-8.7,29.8c-0.9,5.2,1.6,9.3,7.4,3.2c4.4-4.6,10.7-12.8,17-21.3
	l17.6-3.6c1.3-0.1,2.1-2.3,1.9-5c-0.2-2.7-1.4-4.7-2.7-4.6c-0.1,0-4.8,1.7-9.8,3.5c7-9.6,12.8-18,14.3-19.8
	c1.9-2.3,42.8-15.8,52.8-21.9C209.4,21.6,203.9,15.7,200,15.9z"/>
<path class="st6" d="M86.8,55.3c-11.4,5.2-32.1,14.8-34.7,16.1c-6.6,3.1-9.7,2.4-14.3-0.4c-35.3-20.9-24.6-6.4-16.6,6.3l6.5,7.7
	l22.1-3.6l60-14.2"/>
<path class="st6" d="M146.7,49.6c1.9-2.3,42.8-15.8,52.8-21.9c10-6.1,4.5-11.9,0.6-11.8c-3.9,0.1-7.4,0.5-8.8,0
	c-3.9-1.4-8.7-2.6-14.1-0.6c-5.5,2.1-28,12.4-35.2,15.6c-2,0.9-5.2,2.3-9.2,3.4c-0.5-1.5-1.3-2.4-2.2-2.3c-0.1,0-0.7,0.2-5.4,1.9
	c-0.7-0.1-1.3-0.2-2-0.3C119.9,33,49,17.7,41.9,16.8c-12.2-1.5-12.4,7.8-3.8,10"/>
<path class="st7" d="M23.8,89.6c-2.2-2.7-9.7-7-15.1-10.4c-5.4-3.4-2.6-7.6,9.6-4.6c0,0,17.4,3.9,20.7,4.3c3.3,0.4,5.5,2.1,12.9-1.9
	c7.5-3.9,47.2-20.6,50.6-22.6c3.3-1.9,0.1-3.5-11.7-8C79,41.9,45.4,29.5,40.6,27.7c-3.7-1.4-8.2-9.5,7.2-4.9
	c15.4,4.6,84.3,18.3,89.3,18.9c5,0.6,10.9-2,20.7-5.9c8.6-3.5,27.4-9.9,35.9-13.3s12.3,1.2,6.8,5.1c-9.6,6.8-43.4,23.5-47.3,25.5
	c-4,2-7.7,7.5-9.8,10.1c-3.2,3.9-27.9,32-34,37.1c-5.3,4.5-5.7-1.4-2.2-11.1c2.9-7.9,4.1-12.1,4.7-15.9c0.4-3-10.4,0.8-15.6,2.2
	C91.1,76.9,49.8,87,46,88.3c-3.1,1.1-5.1,1.8-10.4,8.6c-3.3,4.2-8.2,7.8-9.4,2.4C24.8,93.8,25.4,91.6,23.8,89.6z"/>
<path class="st7" d="M186.9,17c-4.2-2.6-12.8,2.3-12.8,2.3l1.3,1.7L186.9,17z"/>
<path class="st5" d="M130.5,33c-0.2,0-21.7,7.9-21.7,7.9c-0.8,0.1-1.4,1.5-1.2,3.2c0.1,1.7,0.9,3,1.7,3c0.1,0,0.1,0,0.2,0l21.8-4.4
	c1.3-0.1,2.1-2.3,1.9-5C133,35,131.8,32.9,130.5,33z"/>
<path class="st7" d="M131.1,40.8c0.8-0.1,1.3-1.4,1.2-3.1c-0.1-1.6-0.9-2.9-1.6-2.9c-0.8,0.1-1.3,1.4-1.2,3.1
	C129.6,39.6,130.4,40.9,131.1,40.8z"/>
<path class="st5" d="M142.1,65.9c-0.2,0-21.7,7.9-21.7,7.9c-0.8,0.1-1.4,1.5-1.2,3.2c0.1,1.7,0.9,3,1.7,3c0.1,0,0.1,0,0.2,0
	l21.8-4.4c1.3-0.1,2.1-2.3,1.9-5C144.6,67.8,143.4,65.8,142.1,65.9z"/>
<path class="st7" d="M142.7,73.7c0.8-0.1,1.3-1.4,1.2-3.1c-0.1-1.7-0.9-2.9-1.6-2.9s-1.3,1.4-1.2,3.1
	C141.2,72.5,142,73.8,142.7,73.7z"/>
<path class="st8" d="M8.8,220l37-21.2L71.6,219l-33.2,27.8L8.8,220z"/>
<path class="st8" d="M18.7,210.1c0-1.1,0.6-2.1,1.6-2.6L66.7,184c2.9-2.1,7.2-2,11.9,0.7l27.2,15.7c4.1,2.4,7.9,7,10.1,12.3
	l8.1,19.8c0.2,0.5,0.6,1,1,1.3l15,10.7c4.2,3,7.5,8,9.1,13c0.6,2.1,1,4.2,0.9,6.2c0,0.2,0,0.5,0,0.7c0,0.1,0,0.2,0,0.2l-0.1,11.4
	c0,1-0.6,2-1.5,2.5L110.9,300c-1.8,1-4-0.1-4.3-2.1l-2.1-15c-0.1-0.6-0.4-1.2-0.9-1.7l-14.8-14.1c-0.3-0.2-0.6-0.4-0.9-0.6L47,249.3
	c-0.2-0.1-0.5-0.2-0.7-0.4l-19.9-15.4c-0.2-0.2-0.4-0.4-0.6-0.6l-6.6-9.3c-0.3-0.5-0.5-1.1-0.5-1.7V210.1L18.7,210.1z"/>
<path class="st3" d="M31.7,213.9v15l-7.5-4.3c0,0,0.9-3.6,1.4-5.6l0.2-0.8c0.1-0.4,0.3-0.8,0.4-1.1
	C27.3,214.9,29.3,213.8,31.7,213.9z"/>
<path class="st3" d="M35.8,215.3l14.7,8.5v16L35,230.9v-16C35.3,215,35.6,215.2,35.8,215.3z"/>
<path class="st7" d="M92.8,300.7l13.6-7.7l-14.5-22.8l-12.5,7.1L92.8,300.7z"/>
<path class="st7" d="M85.8,278.2c-3.6-2.1-6.7-1.6-8.3,0.7c-0.8,1.2-1.3,2.8-1.3,4.8c0,0.2,0,0.5,0,0.7c0.3,5.9,4.4,12.9,9.5,15.8
	c5.1,2.9,9.3,0.8,9.6-4.8c0-0.2,0-0.5,0-0.7c0-2-0.5-4.1-1.3-6.2C92.4,284.2,89.3,280.2,85.8,278.2z"/>
<path class="st7" d="M34.1,266.6l13.6-7.6l-14.5-22.8l-12.5,7.1L34.1,266.6z"/>
<path class="st7" d="M27.1,244.2c-3.6-2.1-6.7-1.6-8.3,0.7c-0.8,1.2-1.3,2.8-1.3,4.8c0,0.2,0,0.5,0,0.7c0.3,5.9,4.4,12.9,9.5,15.8
	c5.1,2.9,9.3,0.8,9.6-4.8c0-0.2,0-0.5,0-0.7c0-2-0.5-4.1-1.3-6.2C33.7,250.2,30.6,246.2,27.1,244.2z"/>
<path class="st3" d="M35.8,209.1c-14.3-8.4-28.4,0.9-28.4,14.2V243c0,1,0.6,2,1.5,2.5L15,249c0-0.2,0-0.5,0-0.7c0-1.9,0.3-3.6,1-4.9
	c0.2-0.4,0.4-0.7,0.6-1.1c2.2-3,6.2-3.4,10.5-0.9s8.3,7.4,10.4,13c0.2,0.6,0.4,1.2,0.6,1.8c0.6,2.1,1,4.2,1,6.1c0,0.2,0,0.5,0,0.7
	l34.6,20c0-0.2,0-0.5,0-0.7c0-1.9,0.3-3.6,1-4.9c0.2-0.4,0.4-0.7,0.6-1c2.2-3,6.2-3.4,10.5-0.9c4.3,2.5,8.3,7.4,10.4,13
	c0.2,0.6,0.4,1.2,0.6,1.8l0.2,0.2c0.6,2.1,0.8,3.7,0.8,5.6c0,0.2,0,0.5,0,0.7l4.9,2.9c1.9,1.1,4.3-0.3,4.4-2.5l0.1-8.1
	c0-0.1,0-0.2,0-0.2c0-0.2,0-0.5,0-0.7c0.1-1.9-0.2-4.1-0.9-6.2c-1.5-5-4.9-10.1-9.1-13l-15.1-10.7c-0.5-0.3-0.8-0.8-1-1.3L73,237.2
	c-2.1-5.3-6-9.9-10.1-12.3L35.8,209.1z"/>
<path class="st9" d="M116.8,234.8l-28.4,16.3c-2,1.1-4.5,0.3-5.5-1.8l-6.7-15.1c-0.8-1.8-0.1-4,1.6-5l28.4-16.1
	c2-1.1,4.5-0.3,5.5,1.8l6.6,14.9C119.2,231.7,118.5,233.8,116.8,234.8z"/>
<path class="st3" d="M145.2,261.1c1-0.6,1.8-0.6,2.4-0.2l2.2,1.3c-0.6-0.4-1.5-0.3-2.4,0.2c-1.9,1.1-3.4,3.7-3.4,5.9
	c0,1.1,0.4,1.8,1,2.2l-2.2-1.3c-0.6-0.4-1-1.1-1-2.2C141.7,264.8,143.3,262.2,145.2,261.1z"/>
<path class="st3" d="M147.4,262.4c-1.9,1.1-3.4,3.7-3.4,5.9s1.5,3.1,3.4,2c1.9-1.1,3.4-3.7,3.4-5.9
	C150.8,262.2,149.3,261.3,147.4,262.4z"/>
<path class="st3" d="M113.5,279.3c1-0.6,1.8-0.6,2.4-0.2l2.2,1.3c-0.6-0.4-1.5-0.3-2.4,0.2c-1.9,1.1-3.4,3.7-3.4,5.9
	c0,1.1,0.4,1.8,1,2.2l-2.2-1.3c-0.6-0.4-1-1.1-1-2.2C110.1,283,111.7,280.3,113.5,279.3z"/>
<path class="st3" d="M115.8,280.5c-1.9,1.1-3.4,3.7-3.4,5.9c0,2.2,1.5,3.1,3.4,2c1.9-1.1,3.4-3.7,3.4-5.9S117.7,279.5,115.8,280.5z"
	/>
<path class="st7" d="M385.3,177.6c0,0.1,0,0.3,0,0.4l-2.3,10c-0.2,0.7-0.4,1.4-0.6,2.1c-0.1,0.2-0.2,0.4-0.2,0.7
	c-0.2,0.5-0.3,1-0.5,1.4c-0.2,0.6-0.5,1.2-0.8,1.9c-0.1,0.1-0.1,0.3-0.2,0.4c-0.3,0.6-0.6,1.2-0.9,1.8c-0.1,0.1-0.1,0.2-0.2,0.3
	c-0.3,0.5-0.6,1-0.9,1.6c-0.1,0.1-0.2,0.3-0.2,0.4c-0.4,0.6-0.7,1.2-1.1,1.8c-0.1,0.1-0.2,0.2-0.2,0.3c-0.3,0.5-0.7,1-1.1,1.5
	c-0.1,0.1-0.2,0.3-0.3,0.4c-0.4,0.5-0.8,1-1.2,1.5c-0.1,0.1-0.2,0.2-0.3,0.3c-0.5,0.6-1,1.2-1.6,1.7c-0.2,0.2-0.3,0.3-0.5,0.5
	c-0.4,0.4-0.8,0.8-1.2,1.2c-0.2,0.2-0.4,0.4-0.6,0.6c-0.5,0.4-0.9,0.9-1.4,1.3c-0.1,0.1-0.2,0.2-0.3,0.3c-0.6,0.5-1.2,1-1.8,1.5
	c-0.1,0.1-0.3,0.2-0.4,0.3c-0.6,0.5-1.3,1-2,1.5s-1.4,1-2.1,1.5c-0.2,0.1-0.3,0.2-0.5,0.3c-0.7,0.5-1.4,0.9-2.1,1.4
	c-0.1,0.1-0.2,0.1-0.3,0.2c-0.8,0.5-1.5,1-2.3,1.4l-42,24.4c-0.4,0.3-0.9,0.5-1.4,0.7c-0.1,0.1-0.3,0.1-0.4,0.2
	c-0.4,0.2-0.8,0.3-1.2,0.4c-0.1,0-0.3,0.1-0.4,0.1c-0.3,0.1-0.5,0.1-0.8,0.2c-0.2,0.1-0.4,0.1-0.6,0.2c-0.3,0.1-0.5,0.1-0.8,0.2
	c-0.2,0-0.4,0.1-0.6,0.1c-0.6,0.1-1.1,0.2-1.7,0.2c-0.2,0-0.4,0-0.5,0c-0.3,0-0.7,0.1-1,0.1c-0.2,0-0.4,0-0.6,0c-0.3,0-0.5,0-0.8,0
	c-0.2,0-0.5,0-0.7,0c-0.3,0-0.5,0-0.8,0c-0.2,0-0.5,0-0.7-0.1c-0.3,0-0.5-0.1-0.7-0.1s-0.4-0.1-0.7-0.1c-0.3,0-0.5-0.1-0.8-0.1
	c-0.2,0-0.4-0.1-0.6-0.1c-0.3-0.1-0.6-0.1-0.9-0.2c-0.2,0-0.3-0.1-0.5-0.1c-0.5-0.2-1.1-0.3-1.6-0.5c-0.3-0.1-0.5-0.2-0.8-0.3
	c-0.1-0.1-0.3-0.1-0.4-0.2c-0.4-0.2-0.7-0.4-1.1-0.6l-26.2-15.1c-2.9-1.7-4.4-3.9-4.4-6.2l-0.1,28.1c0,2.2,1.5,4.5,4.4,6.2
	l26.2,15.1c0.4,0.2,0.7,0.4,1.1,0.6c0.1,0.1,0.3,0.1,0.4,0.2c0.2,0.1,0.4,0.2,0.7,0.3h0.1c0.5,0.2,1.1,0.4,1.6,0.5h0.1
	c0.1,0,0.3,0.1,0.4,0.1c0.3,0.1,0.6,0.2,0.9,0.2c0.1,0,0.2,0,0.2,0.1c0.1,0,0.2,0,0.4,0.1c0.3,0,0.5,0.1,0.8,0.1
	c0.1,0,0.2,0,0.3,0.1c0.1,0,0.2,0,0.4,0c0.2,0,0.5,0.1,0.7,0.1c0.1,0,0.2,0,0.4,0c0.1,0,0.2,0,0.3,0c0.3,0,0.5,0,0.8,0
	c0.1,0,0.3,0,0.4,0s0.2,0,0.3,0c0.3,0,0.5,0,0.8,0c0.1,0,0.3,0,0.4,0s0.2,0,0.2,0c0.3,0,0.7,0,1-0.1c0.1,0,0.3,0,0.4,0h0.1
	c0.6-0.1,1.1-0.1,1.7-0.2h0.1c0.2,0,0.3-0.1,0.5-0.1c0.3-0.1,0.6-0.1,0.8-0.2c0.2,0,0.4-0.1,0.6-0.2c0.3-0.1,0.5-0.1,0.8-0.2
	c0.1,0,0.1,0,0.2,0s0.2-0.1,0.3-0.1c0.4-0.1,0.8-0.3,1.2-0.4c0.1-0.1,0.3-0.1,0.4-0.2c0.5-0.2,1-0.5,1.4-0.7l42-24.4
	c0.4-0.2,0.8-0.5,1.3-0.7c0.4-0.2,0.7-0.4,1.1-0.7c0.1-0.1,0.2-0.1,0.3-0.2c0.7-0.5,1.4-0.9,2.1-1.4c0.2-0.1,0.3-0.2,0.5-0.3
	c0.7-0.5,1.4-1,2.1-1.5c0.7-0.5,1.3-1,2-1.5c0.1-0.1,0.3-0.2,0.4-0.3c0.6-0.5,1.2-1,1.8-1.5c0.1-0.1,0.2-0.2,0.3-0.3
	c0.3-0.2,0.5-0.5,0.8-0.7c0.2-0.2,0.4-0.4,0.6-0.6s0.4-0.4,0.6-0.6c0.4-0.4,0.8-0.8,1.2-1.2c0.2-0.2,0.3-0.3,0.5-0.5
	c0.5-0.6,1.1-1.2,1.6-1.7c0.1-0.1,0.2-0.2,0.3-0.3c0.3-0.4,0.7-0.8,1-1.2c0.1-0.1,0.1-0.2,0.2-0.3c0.1-0.1,0.2-0.3,0.3-0.4
	c0.4-0.5,0.7-1,1.1-1.5c0.1-0.1,0.2-0.2,0.2-0.3c0.4-0.6,0.8-1.2,1.1-1.8c0.1-0.1,0.2-0.3,0.2-0.4c0.1-0.2,0.3-0.5,0.4-0.7
	c0.2-0.3,0.3-0.5,0.4-0.8c0.1-0.1,0.1-0.2,0.2-0.3c0.3-0.6,0.6-1.2,0.9-1.8c0.1-0.1,0.1-0.3,0.2-0.4c0.3-0.6,0.5-1.2,0.8-1.9
	c0.2-0.5,0.3-1,0.5-1.5c0.1-0.2,0.1-0.4,0.2-0.6c0.2-0.7,0.4-1.4,0.6-2.1l2.3-10c0,0,0,0,0-0.1c0-0.1,0-0.2,0-0.3V177.6z"/>
<path class="st2" d="M383.7,175.4c1.1,0.6,1.7,1.6,1.5,2.6l-2.3,10c-2.6,11.5-11.7,22.1-25.8,30.3l-42,24.4
	c-5.8,3.4-15.3,3.4-21.2,0l-26.2-15.1c-5.9-3.4-5.9-8.9-0.1-12.3l42-24.4c14.1-8.2,32.5-13.5,52.3-15l17.3-1.4
	C381,174.4,382.6,174.8,383.7,175.4z"/>
<path class="st3" d="M351.4,176.6c0,0.1,0,0.2,0,0.2l-1.3,5.6c-0.1,0.4-0.2,0.8-0.3,1.2c0,0.1-0.1,0.3-0.1,0.4
	c-0.1,0.3-0.2,0.5-0.3,0.8s-0.3,0.7-0.4,1c0,0.1-0.1,0.1-0.1,0.2c-0.2,0.3-0.3,0.7-0.5,1c0,0.1-0.1,0.1-0.1,0.2
	c-0.2,0.3-0.3,0.6-0.5,0.9c0,0.1-0.1,0.2-0.1,0.2c-0.2,0.3-0.4,0.7-0.6,1c0,0.1-0.1,0.1-0.1,0.2c-0.2,0.3-0.4,0.5-0.6,0.8
	c-0.1,0.1-0.1,0.2-0.2,0.2c-0.2,0.3-0.4,0.6-0.7,0.8c-0.1,0.1-0.1,0.1-0.1,0.2c-0.3,0.3-0.6,0.7-0.9,1c-0.1,0.1-0.2,0.2-0.3,0.3
	c-0.2,0.2-0.5,0.5-0.7,0.7c-0.1,0.1-0.2,0.2-0.3,0.3c-0.3,0.2-0.5,0.5-0.8,0.7c-0.1,0-0.1,0.1-0.2,0.1c-0.3,0.3-0.7,0.6-1,0.9
	c-0.1,0.1-0.2,0.1-0.2,0.2c-0.4,0.3-0.7,0.6-1.1,0.8c-0.4,0.3-0.8,0.6-1.2,0.8c-0.1,0.1-0.2,0.1-0.3,0.2c-0.4,0.3-0.8,0.5-1.2,0.8
	c-0.1,0-0.1,0.1-0.2,0.1c-0.4,0.3-0.9,0.5-1.3,0.8l-23.5,13.7c-0.3,0.1-0.5,0.3-0.8,0.4c-0.1,0-0.2,0.1-0.2,0.1
	c-0.2,0.1-0.4,0.2-0.7,0.2c-0.1,0-0.2,0.1-0.2,0.1c-0.1,0-0.3,0.1-0.4,0.1s-0.2,0.1-0.3,0.1c-0.2,0-0.3,0.1-0.5,0.1
	c-0.1,0-0.2,0-0.3,0.1c-0.3,0.1-0.6,0.1-1,0.1c-0.1,0-0.2,0-0.3,0c-0.2,0-0.4,0-0.6,0c-0.1,0-0.2,0-0.4,0s-0.3,0-0.5,0
	c-0.1,0-0.3,0-0.4,0s-0.3,0-0.4,0c-0.1,0-0.3,0-0.4,0c-0.1,0-0.3,0-0.4,0s-0.2,0-0.4-0.1c-0.1,0-0.3,0-0.4-0.1c-0.1,0-0.2,0-0.3-0.1
	c-0.2,0-0.3-0.1-0.5-0.1c-0.1,0-0.2,0-0.3-0.1c-0.3-0.1-0.6-0.2-0.9-0.3c-0.1-0.1-0.3-0.1-0.4-0.2c-0.1,0-0.1-0.1-0.2-0.1
	c-0.2-0.1-0.4-0.2-0.6-0.3l-14.7-8.5c-1.7-1-2.5-2.2-2.5-3.5l-0.1,17.9c0,1.3,0.8,2.5,2.5,3.5l14.7,8.5c0.2,0.1,0.4,0.2,0.6,0.3
	c0.1,0,0.1,0.1,0.2,0.1c0.1,0.1,0.2,0.1,0.4,0.2c0.3,0.1,0.6,0.2,0.9,0.3c0,0,0,0,0.1,0s0.1,0,0.2,0.1c0.2,0,0.3,0.1,0.5,0.1h0.1
	c0.1,0,0.1,0,0.2,0s0.3,0.1,0.4,0.1s0.1,0,0.2,0s0.1,0,0.2,0c0.1,0,0.3,0,0.4,0c0.1,0,0.1,0,0.2,0s0.1,0,0.2,0s0.3,0,0.4,0
	s0.1,0,0.2,0c0.1,0,0.1,0,0.2,0c0.2,0,0.3,0,0.5,0c0.1,0,0.2,0,0.2,0h0.1c0.2,0,0.4,0,0.6,0c0.1,0,0.2,0,0.2,0s0,0,0.1,0
	c0.3,0,0.6-0.1,1-0.1c0.1,0,0.2,0,0.3-0.1c0.2,0,0.3-0.1,0.5-0.1c0.1,0,0.2-0.1,0.3-0.1c0.1,0,0.3-0.1,0.4-0.1h0.1
	c0.1,0,0.1,0,0.1-0.1c0.2-0.1,0.4-0.2,0.7-0.2c0.1,0,0.2-0.1,0.2-0.1c0.3-0.1,0.5-0.3,0.8-0.4l23.5-13.7c0.2-0.1,0.5-0.3,0.7-0.4
	c0.2-0.1,0.4-0.2,0.6-0.4c0.1,0,0.1-0.1,0.2-0.1c0.4-0.3,0.8-0.5,1.2-0.8c0.1-0.1,0.2-0.1,0.3-0.2c0.4-0.3,0.8-0.6,1.2-0.8
	c0.4-0.3,0.7-0.6,1.1-0.8c0.1-0.1,0.2-0.1,0.2-0.2c0.3-0.3,0.7-0.6,1-0.9c0.1,0,0.1-0.1,0.2-0.1c0.2-0.1,0.3-0.3,0.4-0.4
	c0.1-0.1,0.2-0.2,0.3-0.3s0.2-0.2,0.3-0.3c0.2-0.2,0.5-0.5,0.7-0.7c0.1-0.1,0.2-0.2,0.3-0.3c0.3-0.3,0.6-0.6,0.9-1
	c0.1-0.1,0.1-0.1,0.2-0.2c0.2-0.2,0.4-0.4,0.5-0.7c0-0.1,0.1-0.1,0.1-0.2c0.1-0.1,0.1-0.2,0.2-0.2c0.2-0.3,0.4-0.5,0.6-0.8
	c0-0.1,0.1-0.1,0.1-0.2c0.2-0.3,0.4-0.7,0.6-1c0-0.1,0.1-0.2,0.1-0.2c0.1-0.1,0.2-0.3,0.2-0.4c0.1-0.2,0.2-0.3,0.2-0.5
	c0-0.1,0.1-0.1,0.1-0.2c0.2-0.3,0.3-0.7,0.5-1c0-0.1,0.1-0.1,0.1-0.2c0.2-0.3,0.3-0.7,0.4-1c0.1-0.3,0.2-0.6,0.3-0.8
	c0-0.1,0.1-0.2,0.1-0.3c0.1-0.4,0.2-0.8,0.3-1.2l1.3-5.6c0-0.1,0-0.1,0-0.2L351.4,176.6z"/>
<path class="st5" d="M350.5,175.4c0.6,0.4,1,0.9,0.8,1.4l-1.3,5.6c-1.5,6.4-6.6,12.4-14.5,17L312,213.1c-3.3,1.9-8.6,1.9-11.9,0
	l-14.7-8.5c-3.3-1.9-3.3-5,0-6.9l23.5-13.7c7.9-4.6,18.2-7.5,29.3-8.4l9.7-0.8C349,174.8,349.9,175,350.5,175.4z"/>
<path class="st6" d="M285.6,204.6c-3.3-1.9-3.3-5,0-6.9l23.5-13.7c7.9-4.6,18.2-7.5,29.3-8.4l9.7-0.8c1-0.1,1.9,0.1,2.5,0.5
	c0.6,0.4,1,0.9,0.8,1.4l-1.3,5.6"/>
<path class="st3" d="M327.6,244.8c-1.6,0.9-3,2.7-3.7,4.6c-0.4,0.9-0.6,1.9-0.6,2.8c0,0.1,0,0.2,0,0.3c0.2,2.5,2,3.4,4.3,2.1
	c2.3-1.3,4.1-4.4,4.3-7.1c0-0.1,0-0.2,0-0.3c0-0.9-0.2-1.6-0.6-2.1C330.5,244.1,329.2,243.9,327.6,244.8z"/>
<path class="st3" d="M344.1,236.5c-1.6,0.9-3,2.7-3.7,4.6c-0.4,0.9-0.6,1.9-0.6,2.8c0,0.1,0,0.2,0,0.3c0.2,2.5,2,3.4,4.3,2.1
	c2.3-1.3,4.1-4.4,4.3-7.1c0-0.1,0-0.2,0-0.3c0-0.9-0.2-1.6-0.6-2.1C347,235.8,345.7,235.6,344.1,236.5z"/>
<path class="st2" d="M218.7,257.7c0.6-2.8-0.9-5.7-4.6-7.9c-6.3-3.7-16.6-3.7-22.9,0c-3.7,2.1-5.3,5.1-4.6,7.9c0,0-0.1,11,16.1,11
	S218.7,257.7,218.7,257.7z"/>
<path class="st3" d="M186.4,256.8c0,0.1,0,0.2,0,0.2c0,0.1,0,0.1,0,0.2c0,0.1,0,0.2,0,0.2c0,0.1,0,0.1,0,0.2c0,0.1,0,0.2,0.1,0.2
	c0,0.1,0,0.1,0.1,0.2c0,0.1,0,0.2,0.1,0.2c0,0.1,0.1,0.1,0.1,0.2c0,0.1,0.1,0.2,0.1,0.2c0,0.1,0.1,0.1,0.1,0.2
	c0,0.1,0.1,0.2,0.1,0.2c0,0.1,0.1,0.2,0.1,0.3c0,0,0,0,0,0.1c0.1,0.1,0.2,0.2,0.2,0.4c0,0,0,0,0,0.1c0.1,0.1,0.2,0.2,0.3,0.4
	c0,0,0,0,0.1,0.1c0.1,0.1,0.2,0.2,0.3,0.3c0,0,0,0.1,0.1,0.1c0.1,0.1,0.2,0.2,0.3,0.4c0,0,0,0,0.1,0.1c0.1,0.1,0.2,0.2,0.3,0.3
	c0.1,0.1,0.2,0.1,0.2,0.2c0.1,0.1,0.1,0.1,0.2,0.2c0.1,0.1,0.2,0.1,0.3,0.2c0.1,0.1,0.2,0.1,0.2,0.2c0.1,0.1,0.2,0.1,0.3,0.2
	c0.1,0.1,0.2,0.1,0.3,0.2c0.1,0.1,0.2,0.1,0.3,0.2c0.1,0.1,0.2,0.2,0.4,0.2c0.2,0.1,0.5,0.3,0.7,0.4c0.1,0,0.1,0.1,0.2,0.1
	c0.2,0.1,0.4,0.2,0.6,0.3c0.1,0,0.1,0.1,0.2,0.1c0.3,0.1,0.5,0.2,0.8,0.3c0,0,0.1,0,0.1,0.1c0.2,0.1,0.5,0.2,0.7,0.2
	c0.1,0,0.2,0.1,0.3,0.1c0.1,0,0.3,0.1,0.4,0.1c0.1,0,0.2,0.1,0.3,0.1s0.3,0.1,0.4,0.1c0.1,0,0.2,0.1,0.3,0.1c0.1,0,0.3,0.1,0.4,0.1
	c0.1,0,0.2,0.1,0.3,0.1c0.1,0,0.3,0.1,0.4,0.1c0.1,0,0.2,0,0.3,0.1c0.3,0.1,0.6,0.1,0.9,0.1h0.1c0.3,0,0.5,0.1,0.8,0.1
	c0.1,0,0.2,0,0.3,0c0.2,0,0.3,0,0.5,0c0.1,0,0.2,0,0.3,0c0.2,0,0.4,0,0.5,0s0.2,0,0.3,0c0.2,0,0.3,0,0.5,0c0.1,0,0.2,0,0.3,0
	c0.2,0,0.3,0,0.5,0c0.1,0,0.2,0,0.3,0c0.2,0,0.3,0,0.5,0c0.1,0,0.2,0,0.3,0c0.2,0,0.3,0,0.5,0c0.1,0,0.2,0,0.3,0
	c0.2,0,0.4,0,0.6-0.1c0.1,0,0.1,0,0.2,0c0.3,0,0.5-0.1,0.8-0.1h0.1c0.2,0,0.4-0.1,0.7-0.1c0.1,0,0.2,0,0.3-0.1
	c0.2,0,0.3-0.1,0.5-0.1c0.1,0,0.2,0,0.3-0.1c0.2,0,0.4-0.1,0.5-0.1s0.2-0.1,0.3-0.1c0.2,0,0.3-0.1,0.5-0.1c0.1,0,0.2-0.1,0.3-0.1
	c0.3-0.1,0.5-0.2,0.8-0.2h0.1c0.3-0.1,0.6-0.2,0.9-0.3c0.1,0,0.2-0.1,0.3-0.1c0.1,0,0.2-0.1,0.3-0.1c0.1-0.1,0.3-0.1,0.4-0.2
	c0.1,0,0.2-0.1,0.2-0.1c0.1-0.1,0.3-0.1,0.4-0.2c0.1,0,0.1-0.1,0.2-0.1c0.2-0.1,0.4-0.2,0.6-0.3c3.2-1.8,4.8-4.3,4.8-6.7v6.8
	c0,2.4-1.6,4.8-4.8,6.7c-0.2,0.1-0.4,0.2-0.6,0.3c-0.1,0-0.1,0.1-0.2,0.1c-0.1,0.1-0.3,0.1-0.4,0.2c-0.1,0-0.2,0.1-0.2,0.1
	c-0.1,0.1-0.3,0.1-0.4,0.2c-0.1,0-0.2,0.1-0.3,0.1c-0.1,0-0.2,0.1-0.3,0.1h-0.1c-0.3,0.1-0.6,0.2-0.9,0.3h-0.1
	c-0.3,0.1-0.5,0.2-0.8,0.2h-0.1h-0.1c-0.2,0-0.3,0.1-0.5,0.1c-0.1,0-0.2,0.1-0.3,0.1c-0.2,0-0.4,0.1-0.5,0.1s-0.1,0-0.2,0
	c0,0,0,0-0.1,0c-0.2,0-0.3,0.1-0.5,0.1c-0.1,0-0.2,0-0.3,0.1c-0.2,0-0.4,0.1-0.7,0.1H206c-0.3,0-0.5,0.1-0.8,0.1c-0.1,0-0.1,0-0.2,0
	c-0.2,0-0.4,0-0.6,0.1c-0.1,0-0.2,0-0.3,0c-0.2,0-0.3,0-0.5,0c-0.1,0-0.2,0-0.3,0c-0.2,0-0.3,0-0.5,0c-0.1,0-0.2,0-0.3,0
	c-0.2,0-0.3,0-0.5,0c-0.1,0-0.2,0-0.3,0c-0.2,0-0.3,0-0.5,0h-0.1c-0.1,0-0.1,0-0.2,0c-0.2,0-0.4,0-0.5,0s-0.2,0-0.3,0
	c-0.2,0-0.3,0-0.5,0c-0.1,0-0.1,0-0.2,0h-0.1c-0.3,0-0.5-0.1-0.8-0.1h-0.1c-0.3,0-0.6-0.1-0.9-0.1h-0.1c-0.1,0-0.2,0-0.2,0
	c-0.1,0-0.3-0.1-0.4-0.1c-0.1,0-0.2,0-0.3-0.1c-0.1,0-0.3-0.1-0.4-0.1c-0.1,0-0.2-0.1-0.3-0.1c-0.1,0-0.3-0.1-0.4-0.1
	s-0.2-0.1-0.3-0.1c-0.1,0-0.3-0.1-0.4-0.1c-0.1,0-0.1,0-0.2-0.1h-0.1c-0.2-0.1-0.5-0.2-0.7-0.2c0,0-0.1,0-0.1-0.1
	c-0.3-0.1-0.5-0.2-0.8-0.3c-0.1,0-0.1-0.1-0.2-0.1c-0.2-0.1-0.4-0.2-0.6-0.3c-0.1,0-0.1-0.1-0.2-0.1c-0.3-0.1-0.5-0.3-0.7-0.4
	c-0.1,0-0.1-0.1-0.2-0.1s-0.1-0.1-0.2-0.1c-0.1-0.1-0.2-0.1-0.3-0.2s-0.2-0.1-0.3-0.2c-0.1-0.1-0.2-0.1-0.3-0.2
	c-0.1-0.1-0.2-0.1-0.2-0.2c-0.1-0.1-0.2-0.1-0.3-0.2c-0.1-0.1-0.1-0.1-0.2-0.2c-0.1-0.1-0.2-0.1-0.2-0.2l-0.1-0.1
	c-0.1-0.1-0.1-0.1-0.2-0.2c0,0,0,0-0.1-0.1c-0.1-0.1-0.2-0.2-0.3-0.4l-0.1-0.1c-0.1-0.1-0.2-0.2-0.3-0.3c0,0,0,0-0.1-0.1
	c-0.1-0.1-0.2-0.2-0.2-0.3c0,0,0,0,0-0.1c-0.1-0.1-0.2-0.2-0.2-0.4c0,0,0,0,0-0.1l-0.1-0.1c0,0,0-0.1-0.1-0.1c0-0.1-0.1-0.2-0.1-0.2
	c0-0.1-0.1-0.1-0.1-0.2s-0.1-0.2-0.1-0.2v-0.1v-0.1c0-0.1-0.1-0.2-0.1-0.2c0-0.1,0-0.1-0.1-0.2c0-0.1,0-0.2-0.1-0.2v-0.1v-0.1
	c0-0.1,0-0.2,0-0.2c0-0.1,0-0.1,0-0.2c0-0.1,0-0.2,0-0.2v-0.1v-0.1v-6.8C186.4,256.6,186.4,256.7,186.4,256.8z"/>
<path class="st5" d="M214.5,251.6c0.5-2-0.6-4-3.2-5.6c-4.5-2.6-11.7-2.6-16.2,0c-2.6,1.5-3.7,3.6-3.3,5.6c0,0-0.1,7.8,11.4,7.8
	C214.6,259.4,214.5,251.6,214.5,251.6z"/>
<path class="st3" d="M191.7,251c0,0.1,0,0.1,0,0.2c0,0.1,0,0.1,0,0.2c0,0.1,0,0.1,0,0.2c0,0.1,0,0.1,0,0.2c0,0.1,0,0.1,0,0.2
	s0,0.1,0,0.2c0,0.1,0,0.1,0.1,0.2c0,0,0,0.1,0.1,0.1c0,0.1,0,0.1,0.1,0.2c0,0,0,0.1,0.1,0.1c0,0.1,0.1,0.1,0.1,0.2s0.1,0.1,0.1,0.2
	c0.1,0.1,0.1,0.2,0.2,0.3c0.1,0.1,0.1,0.2,0.2,0.3c0.1,0.1,0.1,0.1,0.2,0.2c0,0,0,0,0.1,0.1c0.1,0.1,0.2,0.2,0.2,0.2
	c0.1,0.1,0.1,0.1,0.2,0.2c0.1,0,0.1,0.1,0.2,0.1c0.1,0,0.1,0.1,0.2,0.1s0.1,0.1,0.2,0.1c0.1,0,0.1,0.1,0.2,0.1
	c0.1,0,0.1,0.1,0.2,0.1c0.1,0,0.1,0.1,0.2,0.1c0.1,0,0.1,0.1,0.2,0.1c0.1,0.1,0.2,0.1,0.3,0.2c0.2,0.1,0.3,0.2,0.5,0.3
	c0.1,0,0.1,0.1,0.2,0.1c0.1,0.1,0.3,0.1,0.4,0.2c0,0,0.1,0,0.1,0.1c0.2,0.1,0.4,0.2,0.6,0.2h0.1c0.2,0.1,0.3,0.1,0.5,0.2
	c0.1,0,0.1,0,0.2,0.1c0.1,0,0.2,0.1,0.3,0.1c0.1,0,0.2,0,0.2,0.1c0.1,0,0.2,0.1,0.3,0.1c0.1,0,0.2,0,0.2,0.1c0.1,0,0.2,0,0.3,0.1
	c0.1,0,0.2,0,0.2,0.1c0.1,0,0.2,0,0.3,0.1c0.1,0,0.2,0,0.2,0c0.2,0,0.4,0.1,0.6,0.1h0.1c0.2,0,0.4,0,0.6,0.1c0.1,0,0.1,0,0.2,0
	c0.1,0,0.2,0,0.4,0c0.1,0,0.2,0,0.2,0c0.1,0,0.3,0,0.4,0c0.1,0,0.1,0,0.2,0c0.1,0,0.2,0,0.3,0c0.1,0,0.2,0,0.2,0c0.1,0,0.2,0,0.4,0
	c0.1,0,0.1,0,0.2,0c0.1,0,0.2,0,0.3,0s0.2,0,0.2,0c0.1,0,0.2,0,0.4,0c0.1,0,0.1,0,0.2,0c0.1,0,0.3,0,0.4,0h0.1c0.2,0,0.4,0,0.5-0.1
	h0.1c0.2,0,0.3,0,0.5-0.1c0.1,0,0.1,0,0.2,0c0.1,0,0.2,0,0.4-0.1c0.1,0,0.1,0,0.2,0c0.1,0,0.3-0.1,0.4-0.1c0.1,0,0.1,0,0.2-0.1
	c0.1,0,0.2-0.1,0.3-0.1c0.1,0,0.1,0,0.2-0.1c0.2-0.1,0.4-0.1,0.5-0.2h0.1c0.2-0.1,0.4-0.1,0.6-0.2c0.1,0,0.2-0.1,0.2-0.1
	c0.1,0,0.1-0.1,0.2-0.1c0.1,0,0.2-0.1,0.3-0.1c0.1,0,0.1-0.1,0.2-0.1c0.1,0,0.2-0.1,0.3-0.1c0,0,0.1,0,0.1-0.1
	c0.1-0.1,0.3-0.1,0.4-0.2c2.3-1.3,3.4-3,3.4-4.7v4.8c0,1.7-1.1,3.4-3.4,4.7c-0.1,0.1-0.3,0.2-0.4,0.2c0,0-0.1,0-0.1,0.1
	c-0.1,0-0.2,0.1-0.3,0.1c-0.1,0-0.1,0.1-0.2,0.1c-0.1,0-0.2,0.1-0.3,0.1c-0.1,0-0.1,0.1-0.2,0.1c-0.1,0-0.1,0.1-0.2,0.1
	c0,0,0,0-0.1,0c-0.2,0.1-0.4,0.2-0.6,0.2h-0.1c-0.2,0.1-0.4,0.1-0.5,0.2h-0.1h-0.1c-0.1,0-0.2,0.1-0.3,0.1c-0.1,0-0.1,0-0.2,0.1
	c-0.1,0-0.3,0.1-0.4,0.1h-0.1c-0.1,0-0.2,0-0.4,0.1c-0.1,0-0.1,0-0.2,0c-0.2,0-0.3,0.1-0.5,0.1h-0.1c-0.2,0-0.4,0-0.5,0.1H205
	c-0.1,0-0.3,0-0.4,0c-0.1,0-0.1,0-0.2,0c-0.1,0-0.2,0-0.4,0c-0.1,0-0.2,0-0.2,0c-0.1,0-0.2,0-0.3,0c-0.1,0-0.1,0-0.2,0s-0.2,0-0.4,0
	c-0.1,0-0.2,0-0.2,0c-0.1,0-0.2,0-0.3,0c0,0,0,0-0.1,0s-0.1,0-0.2,0c-0.1,0-0.3,0-0.4,0c-0.1,0-0.2,0-0.2,0c-0.1,0-0.2,0-0.4,0H201
	h-0.1c-0.2,0-0.4,0-0.6-0.1h-0.1c-0.2,0-0.4-0.1-0.6-0.1c0,0,0,0-0.1,0c-0.1,0-0.1,0-0.2,0s-0.2,0-0.3-0.1c-0.1,0-0.2,0-0.2-0.1
	c-0.1,0-0.2,0-0.3-0.1c-0.1,0-0.2,0-0.2-0.1c-0.1,0-0.2,0-0.3-0.1c-0.1,0-0.2,0-0.2-0.1c-0.1,0-0.2-0.1-0.3-0.1h-0.1h-0.1
	c-0.2-0.1-0.3-0.1-0.5-0.2h-0.1c-0.2-0.1-0.4-0.2-0.6-0.2c0,0-0.1,0-0.1-0.1c-0.1-0.1-0.3-0.1-0.4-0.2c-0.1,0-0.1-0.1-0.2-0.1
	c-0.2-0.1-0.4-0.2-0.5-0.3l-0.1-0.1l-0.1-0.1c-0.1,0-0.1-0.1-0.2-0.1c-0.1,0-0.1-0.1-0.2-0.1s-0.1-0.1-0.2-0.1
	c-0.1,0-0.1-0.1-0.2-0.1c-0.1,0-0.1-0.1-0.2-0.1c-0.1,0-0.1-0.1-0.2-0.1c-0.1,0-0.1-0.1-0.2-0.1c0,0,0,0-0.1-0.1l-0.1-0.1
	c-0.1-0.1-0.2-0.2-0.2-0.2s0,0-0.1-0.1c-0.1-0.1-0.1-0.1-0.2-0.2c-0.1-0.1-0.1-0.2-0.2-0.2c-0.1-0.1-0.1-0.2-0.2-0.3
	c0,0,0-0.1-0.1-0.1v-0.1c0-0.1-0.1-0.1-0.1-0.2c0,0,0-0.1-0.1-0.1c0-0.1-0.1-0.1-0.1-0.2v-0.1c0,0,0,0,0-0.1c0-0.1,0-0.1-0.1-0.2
	c0-0.1,0-0.1,0-0.2c0-0.1,0-0.1,0-0.2v-0.1c0,0,0,0,0-0.1c0-0.1,0-0.1,0-0.2c0-0.1,0-0.1,0-0.2s0-0.1,0-0.2v-0.1v-0.1v-4.8
	C191.7,250.8,191.7,250.9,191.7,251z"/>
<path class="st6" d="M214.5,251.6c0.5-2-0.6-4-3.2-5.6c-4.5-2.6-11.7-2.6-16.2,0c-2.6,1.5-3.7,3.6-3.3,5.6"/>
<path class="st3" d="M203.4,175.5c-1.8,0-3.3,1.5-3.3,3.3v69.7c0,1.8,1.5,3.3,3.3,3.3s3.3-1.5,3.3-3.3v-69.7
	C206.7,177,205.2,175.5,203.4,175.5z"/>
<path class="st7" d="M208,208.9l-29.9,17.3c-1.8,1-2.7-0.9-1.5-3.1l7.4-13.8c0.7-1.3,0.7-2.7,0-3.2l-7.5-5.2
	c-1.2-0.8-0.3-3.8,1.5-4.8l29.9-17.3c1.1-0.7,2.1-0.1,2.1,1.2l0.1,25.4C210.1,206.6,209.2,208.2,208,208.9z"/>
</svg>
