<svg width="533" height="523" viewBox="0 0 533 523" fill="none" xmlns="http://www.w3.org/2000/svg">
<path d="M374.232 384.387L383.032 448.287C383.132 449.287 383.732 450.187 384.632 450.687L452.432 489.787C454.332 490.887 456.832 489.787 457.232 487.487L465.432 439.387C465.632 438.087 465.032 436.687 463.832 436.087L374.232 384.387ZM454.832 442.387L449.732 473.887C449.332 476.087 446.932 477.287 444.932 476.187L442.632 474.887C441.532 474.287 440.932 473.087 441.032 471.887L443.332 438.687C443.532 436.287 446.132 434.887 448.132 436.087L453.232 438.987C454.432 439.787 455.032 441.087 454.832 442.387ZM435.532 430.987L433.232 464.187C433.032 466.587 430.432 467.987 428.432 466.787L425.532 465.087C424.532 464.487 423.932 463.487 423.932 462.287L424.032 427.787C424.032 425.287 426.732 423.787 428.832 424.987L433.932 427.887C435.032 428.587 435.632 429.687 435.532 430.987ZM416.032 417.587L415.932 453.987C415.932 456.487 413.232 457.987 411.132 456.787L408.432 455.287C407.532 454.787 406.932 453.787 406.832 452.687L404.732 416.987C404.532 414.387 407.332 412.687 409.532 413.987L416.032 417.587ZM396.532 407.987L398.632 443.687C398.832 446.287 396.032 447.987 393.832 446.687L392.332 445.887C391.432 445.387 390.832 444.487 390.732 443.487L385.832 406.087C385.432 403.387 388.332 401.487 390.632 402.887L394.932 405.387C395.832 405.987 396.432 406.887 396.532 407.987Z" fill="#98A2F4"/>
<path d="M382.931 449.887L332.031 478.787C329.831 479.987 329.831 483.187 332.031 484.387L394.931 520.687C398.231 522.587 402.331 522.587 405.631 520.687L452.731 493.887C454.931 492.687 454.931 489.487 452.731 488.287L386.131 449.987C385.131 449.387 383.931 449.387 382.931 449.887Z" fill="#98A2F4"/>
<path d="M383.931 449.387L328.531 480.887C327.831 481.287 327.031 480.887 326.931 480.087L319.131 423.787C319.031 423.387 319.231 422.987 319.631 422.687L374.731 388.887C375.431 388.487 376.231 388.887 376.331 389.687L384.431 448.287C384.531 448.687 384.331 449.187 383.931 449.387Z" fill="#98A2F4"/>
<path d="M456.832 491.787L404.232 521.687C402.632 522.587 400.732 521.287 401.032 519.487L408.532 475.387C408.632 474.787 409.032 474.187 409.632 473.887L462.132 444.487C463.732 443.587 465.632 444.987 465.332 446.687L457.832 490.387C457.832 490.887 457.432 491.487 456.832 491.787Z" fill="#98A2F4"/>
<path d="M318.131 416.087L326.931 479.987C327.031 480.987 327.631 481.887 328.531 482.387L396.331 521.487C398.231 522.587 400.731 521.487 401.131 519.187L409.331 471.087C409.531 469.787 408.931 468.387 407.731 467.787L318.131 416.087ZM398.631 474.187L393.531 505.687C393.131 507.887 390.731 509.087 388.731 507.987L386.431 506.687C385.331 506.087 384.731 504.887 384.831 503.687L387.131 470.487C387.331 468.087 389.931 466.687 391.931 467.887L397.031 470.787C398.231 471.487 398.831 472.887 398.631 474.187ZM379.331 462.687L377.031 495.887C376.831 498.287 374.231 499.687 372.231 498.487L369.331 496.787C368.331 496.187 367.731 495.187 367.731 493.987L367.831 459.487C367.831 456.987 370.531 455.487 372.631 456.687L377.731 459.587C378.831 460.287 379.431 461.487 379.331 462.687ZM359.931 449.387L359.831 485.687C359.831 488.187 357.131 489.687 355.031 488.487L352.331 486.987C351.431 486.487 350.831 485.487 350.731 484.387L348.631 448.687C348.431 446.087 351.231 444.387 353.431 445.687L359.931 449.387ZM340.331 439.787L342.431 475.487C342.631 478.087 339.831 479.787 337.631 478.487L336.131 477.687C335.231 477.187 334.631 476.287 334.531 475.287L329.631 437.887C329.231 435.187 332.131 433.287 334.431 434.687L338.731 437.187C339.731 437.687 340.331 438.687 340.331 439.787Z" fill="#9AF4DC"/>
<path d="M373.832 383.187L313.532 417.987C312.532 418.587 311.932 419.587 311.932 420.787V421.687C311.932 422.787 312.532 423.887 313.532 424.487L407.332 478.987C408.332 479.587 409.532 479.587 410.532 478.987L470.832 444.187C471.832 443.587 472.432 442.587 472.432 441.387V440.487C472.432 439.387 471.832 438.287 470.832 437.687L377.032 383.187C376.132 382.687 374.832 382.687 373.832 383.187ZM407.432 467.387L332.932 424.087C330.832 422.887 330.832 419.687 332.932 418.487L373.832 394.887C374.832 394.287 376.032 394.287 377.032 394.887L451.532 438.187C453.632 439.387 453.632 442.587 451.532 443.787L410.632 467.387C409.632 467.987 408.432 467.987 407.432 467.387Z" fill="#9AF4DC"/>
<path d="M377.131 383.187C376.131 382.587 374.931 382.587 373.931 383.187L313.631 417.987C312.631 418.587 312.031 419.587 312.031 420.787V421.687C312.031 422.787 312.631 423.887 313.631 424.487L407.431 478.987C408.431 479.587 409.631 479.587 410.631 478.987" stroke="#171A21" stroke-width="2" stroke-miterlimit="10" stroke-linecap="round" stroke-linejoin="round"/>
<path d="M366.732 399.087L426.832 364.387C428.032 363.687 429.432 364.587 429.432 365.887L429.532 414.087C429.532 414.687 429.232 415.287 428.632 415.587L425.732 417.287C425.232 417.587 424.532 417.587 423.932 417.287L422.132 416.287C421.632 415.987 421.232 415.387 421.232 414.787L421.132 375.887C421.132 374.587 419.632 373.687 418.532 374.387L371.132 401.687C370.632 401.987 370.232 402.587 370.232 403.187L370.332 448.087C370.332 448.687 370.032 449.287 369.432 449.587L366.532 451.287C366.032 451.587 365.332 451.587 364.732 451.287L362.932 450.287C362.432 449.987 362.032 449.387 362.032 448.787L361.932 400.587C361.932 399.187 363.432 398.387 364.532 399.087C365.532 399.487 366.132 399.487 366.732 399.087Z" fill="#2F58FF"/>
<path d="M428.532 360.687C427.932 360.387 427.232 360.387 426.632 360.687L363.232 397.287C362.032 397.987 362.032 399.787 363.232 400.487C363.832 400.787 364.532 400.787 365.132 400.487L428.532 363.887C429.732 363.187 429.732 361.387 428.532 360.687Z" fill="white"/>
<path d="M428.932 364.187C430.032 363.287 429.732 361.387 428.432 360.687C427.832 360.387 427.132 360.387 426.532 360.687L363.132 397.287C361.932 397.987 361.932 399.787 363.132 400.487" stroke="#171A21" stroke-width="2" stroke-miterlimit="10" stroke-linecap="round" stroke-linejoin="round"/>
</svg>
