<svg width="534" height="524" viewBox="0 0 534 524" fill="none" xmlns="http://www.w3.org/2000/svg">
<path d="M339.132 120.087C339.132 119.987 339.032 119.987 339.132 120.087L338.732 119.887C338.632 119.787 338.432 119.687 338.332 119.687C338.332 119.687 338.332 119.687 338.232 119.687C338.232 119.687 338.132 119.687 338.132 119.587C338.032 119.487 337.932 119.487 337.732 119.387C337.632 119.387 337.632 119.287 337.532 119.287C337.432 119.187 337.232 119.187 337.132 119.087C337.032 119.087 337.032 118.987 336.932 118.987C336.732 118.887 336.532 118.787 336.332 118.687C335.632 118.387 335.032 117.987 334.332 117.687C334.132 117.587 334.032 117.587 333.832 117.487C333.732 117.487 333.632 117.387 333.532 117.387C332.832 117.087 332.232 116.887 331.532 116.587C331.332 116.487 331.232 116.487 331.032 116.387C330.332 116.187 329.632 115.887 328.432 115.587C327.632 115.387 326.232 114.987 325.432 114.787C325.232 114.787 325.032 114.687 324.832 114.687C324.732 114.687 324.732 114.687 324.632 114.687C324.532 114.687 324.332 114.587 324.232 114.587C324.132 114.587 324.032 114.587 323.932 114.587C323.832 114.587 323.632 114.487 323.532 114.487C323.432 114.487 323.332 114.487 323.232 114.387C323.132 114.387 323.032 114.387 322.932 114.287C322.832 114.287 322.832 114.287 322.732 114.287C321.832 114.187 321.032 113.987 320.132 113.987C319.932 113.987 319.732 113.987 319.532 113.887C319.232 113.887 318.932 113.787 318.532 113.787C318.432 113.787 318.432 113.787 318.332 113.787C318.032 113.787 317.632 113.787 317.332 113.687H317.232C317.032 113.687 316.932 113.687 316.732 113.687C315.832 113.687 314.932 113.587 313.932 113.587C313.732 113.587 313.532 113.587 313.232 113.587C312.932 113.587 312.632 113.587 312.332 113.587C312.232 113.587 312.132 113.587 312.032 113.587C311.832 113.587 311.632 113.587 311.332 113.587C311.232 113.587 311.232 113.587 311.132 113.587H311.032C310.732 113.587 310.432 113.587 310.132 113.587C309.232 113.687 308.332 113.687 307.332 113.787C307.132 113.787 306.832 113.787 306.632 113.887C306.432 113.887 306.232 113.987 305.932 113.987C305.832 113.987 305.832 113.987 305.732 113.987C305.532 113.987 305.432 113.987 305.232 114.087C305.132 114.087 305.032 114.087 304.932 114.087C304.732 114.087 304.632 114.087 304.432 114.187C304.332 114.187 304.232 114.187 304.132 114.187C304.032 114.187 304.032 114.187 303.932 114.187C303.732 114.187 303.532 114.287 303.232 114.287C302.332 114.387 301.432 114.587 300.532 114.787C300.332 114.787 300.132 114.887 299.832 114.887C298.832 115.087 297.832 115.287 296.232 115.687C296.132 115.687 296.032 115.787 295.932 115.787C295.132 115.987 294.332 116.187 293.532 116.487C293.332 116.587 293.132 116.587 292.932 116.687C291.932 116.987 290.832 117.387 289.832 117.687C289.632 117.787 289.432 117.887 289.132 117.887C288.232 118.187 287.232 118.587 285.832 119.087C285.532 119.187 285.132 119.387 284.832 119.487C284.132 119.787 283.432 120.087 282.632 120.387C282.432 120.487 282.132 120.587 281.932 120.687C280.932 121.087 279.932 121.587 278.632 122.187C277.532 122.687 276.432 123.287 275.332 123.887C275.032 123.987 274.832 124.187 274.532 124.287C273.532 124.787 272.632 125.287 271.632 125.887C271.332 126.087 271.032 126.287 270.832 126.487L184.532 226.987C179.832 232.387 177.232 239.387 177.232 246.587L177.432 333.787C177.432 340.187 180.832 345.987 186.332 349.187L221.432 369.487L221.132 260.787L315.532 151.987C316.632 151.387 317.732 150.687 318.832 150.087C319.132 149.987 319.332 149.787 319.632 149.687C320.732 149.087 321.832 148.587 322.932 147.987C324.232 147.387 325.232 146.887 326.232 146.487C326.432 146.387 326.732 146.287 326.932 146.187C328.032 145.687 329.032 145.287 330.132 144.887C331.632 144.287 332.532 143.987 333.432 143.687C333.632 143.587 333.932 143.487 334.132 143.487C335.132 143.087 336.232 142.787 337.232 142.487C337.432 142.387 337.632 142.387 337.832 142.287C338.732 141.987 339.632 141.787 340.532 141.487C342.132 141.087 343.132 140.887 344.132 140.687C344.332 140.587 344.632 140.587 344.832 140.587C345.732 140.387 346.632 140.187 347.532 140.087C347.832 140.087 348.132 139.987 348.332 139.987C348.432 139.987 348.532 139.987 348.632 139.987C348.832 139.987 349.032 139.887 349.132 139.887C349.232 139.887 349.332 139.887 349.432 139.887C349.632 139.887 349.732 139.887 349.932 139.787C350.032 139.787 350.032 139.787 350.132 139.787C350.332 139.787 350.632 139.687 350.832 139.687C351.032 139.687 351.332 139.687 351.532 139.587C352.432 139.487 353.432 139.387 354.332 139.387C354.632 139.387 354.932 139.387 355.232 139.387C355.332 139.387 355.432 139.387 355.532 139.387C355.732 139.387 356.032 139.387 356.232 139.387C356.332 139.387 356.432 139.387 356.532 139.387C356.832 139.387 357.132 139.387 357.432 139.387C357.632 139.387 357.832 139.387 358.132 139.387C359.032 139.387 360.032 139.387 360.932 139.487C361.132 139.487 361.332 139.487 361.532 139.487C361.832 139.487 362.232 139.487 362.532 139.587C362.632 139.587 362.632 139.587 362.732 139.587C363.032 139.587 363.432 139.687 363.732 139.687C363.932 139.687 364.132 139.687 364.332 139.787C365.232 139.887 366.132 139.987 366.932 140.087C367.132 140.087 367.332 140.187 367.432 140.187C367.532 140.187 367.632 140.187 367.732 140.287C367.832 140.287 368.032 140.387 368.132 140.387C368.232 140.387 368.332 140.387 368.432 140.387C368.532 140.387 368.732 140.487 368.832 140.487C368.932 140.487 368.932 140.487 369.032 140.487C369.232 140.487 369.432 140.587 369.632 140.587C369.832 140.587 370.032 140.687 370.232 140.687C371.032 140.887 371.932 141.087 372.732 141.287C373.932 141.687 374.632 141.887 375.332 142.087C375.532 142.187 375.632 142.187 375.832 142.287C376.632 142.587 377.432 142.887 378.132 143.187C378.332 143.287 378.432 143.287 378.632 143.387C379.332 143.687 380.032 143.987 380.632 144.387C380.832 144.487 381.032 144.587 381.232 144.687C381.332 144.687 381.332 144.787 381.432 144.787C381.532 144.887 381.732 144.887 381.832 144.987C381.932 144.987 381.932 145.087 382.032 145.087C382.132 145.187 382.232 145.187 382.432 145.287C382.432 145.287 382.532 145.287 382.532 145.387C382.732 145.487 382.832 145.587 383.032 145.687C383.132 145.687 383.232 145.787 383.232 145.787C383.332 145.787 383.332 145.887 383.432 145.887L339.132 120.087Z" fill="#F0F8FC"/>
<path d="M380.932 144.387C381.032 144.387 381.032 144.487 381.132 144.487C381.232 144.587 381.432 144.587 381.532 144.687C381.632 144.687 381.632 144.787 381.732 144.787C381.832 144.887 381.932 144.887 382.132 144.987C382.132 144.987 382.232 144.987 382.232 145.087C382.432 145.187 382.532 145.287 382.732 145.387C382.832 145.387 382.932 145.487 382.932 145.487C383.032 145.487 383.032 145.587 383.132 145.587L339.132 120.087L338.732 119.887C338.632 119.787 338.432 119.687 338.332 119.687C338.332 119.687 338.332 119.687 338.232 119.687C338.232 119.687 338.132 119.687 338.132 119.587C338.032 119.487 337.932 119.487 337.732 119.387C337.632 119.387 337.632 119.287 337.532 119.287C337.432 119.187 337.232 119.187 337.132 119.087C337.032 119.087 337.032 118.987 336.932 118.987C336.732 118.887 336.532 118.787 336.332 118.687C335.632 118.387 335.032 117.987 334.332 117.687C334.132 117.587 334.032 117.587 333.832 117.487C333.732 117.487 333.632 117.387 333.532 117.387C332.832 117.087 332.232 116.887 331.532 116.587C331.332 116.487 331.232 116.487 331.032 116.387C330.332 116.187 329.632 115.887 328.432 115.587C327.632 115.387 326.232 114.987 325.432 114.787C325.232 114.787 325.032 114.687 324.832 114.687C324.732 114.687 324.732 114.687 324.632 114.687C324.532 114.687 324.332 114.587 324.232 114.587C324.132 114.587 324.032 114.587 323.932 114.587C323.832 114.587 323.632 114.487 323.532 114.487C323.432 114.487 323.332 114.487 323.232 114.387C323.132 114.387 323.032 114.387 322.932 114.287C322.832 114.287 322.832 114.287 322.732 114.287C321.832 114.187 321.032 113.987 320.132 113.987C319.932 113.987 319.732 113.987 319.532 113.887C319.232 113.887 318.932 113.787 318.532 113.787C318.432 113.787 318.432 113.787 318.332 113.787C318.032 113.787 317.632 113.787 317.332 113.687H317.232C317.032 113.687 316.932 113.687 316.732 113.687C315.832 113.687 314.932 113.587 313.932 113.587C313.732 113.587 313.532 113.587 313.232 113.587C312.932 113.587 312.632 113.587 312.332 113.587C312.232 113.587 312.132 113.587 312.032 113.587C311.832 113.587 311.632 113.587 311.332 113.587C311.232 113.587 311.232 113.587 311.132 113.587H311.032C310.732 113.587 310.432 113.587 310.132 113.587C309.232 113.687 308.332 113.687 307.332 113.787C307.132 113.787 306.832 113.787 306.632 113.887C306.432 113.887 306.232 113.987 305.932 113.987C305.832 113.987 305.832 113.987 305.732 113.987C305.532 113.987 305.432 113.987 305.232 114.087C305.132 114.087 305.032 114.087 304.932 114.087C304.732 114.087 304.632 114.087 304.432 114.187C304.332 114.187 304.232 114.187 304.132 114.187C304.032 114.187 304.032 114.187 303.932 114.187C303.732 114.187 303.532 114.287 303.232 114.287C302.332 114.387 301.432 114.587 300.532 114.787C300.332 114.787 300.132 114.887 299.832 114.887C298.832 115.087 297.832 115.287 296.232 115.687C296.132 115.687 296.032 115.787 295.932 115.787C295.132 115.987 294.332 116.187 293.532 116.487C293.332 116.587 293.132 116.587 292.932 116.687C291.932 116.987 290.832 117.387 289.832 117.687C289.632 117.787 289.432 117.887 289.132 117.887C288.232 118.187 287.232 118.587 285.832 119.087C285.532 119.187 285.132 119.387 284.832 119.487C284.132 119.787 283.432 120.087 282.632 120.387C282.432 120.487 282.132 120.587 281.932 120.687C280.932 121.087 279.932 121.587 278.632 122.187C277.532 122.687 276.432 123.287 275.332 123.887C275.032 123.987 274.832 124.187 274.532 124.287C273.532 124.787 272.632 125.287 271.632 125.887C271.332 126.087 271.032 126.287 270.832 126.487L184.532 226.987C179.832 232.387 177.232 239.387 177.232 246.587L177.432 333.787C177.432 340.187 180.832 345.987 186.332 349.187L221.432 369.487" stroke="#171A21" stroke-width="2" stroke-miterlimit="10" stroke-linecap="round" stroke-linejoin="round"/>
<path d="M355.432 138.387C355.432 138.387 355.532 138.387 355.432 138.387C355.532 138.387 355.432 138.387 355.432 138.387ZM353.832 138.487C353.932 138.487 353.932 138.487 353.832 138.487C353.932 138.487 353.932 138.487 353.832 138.487ZM353.332 138.587C353.332 138.587 353.432 138.587 353.332 138.587C353.432 138.587 353.332 138.587 353.332 138.587ZM352.232 138.687C352.332 138.687 352.332 138.687 352.232 138.687C352.332 138.687 352.332 138.687 352.232 138.687ZM348.432 139.187C348.532 139.187 348.532 139.187 348.432 139.187C348.532 139.187 348.432 139.187 348.432 139.187ZM347.932 139.187C347.932 139.187 348.032 139.187 347.932 139.187C348.032 139.187 347.932 139.187 347.932 139.187ZM346.232 139.487H346.332C346.332 139.487 346.332 139.487 346.232 139.487ZM345.132 139.787C345.132 139.787 345.232 139.787 345.132 139.787C345.232 139.787 345.132 139.787 345.132 139.787ZM344.532 139.887H344.632C344.632 139.887 344.632 139.887 344.532 139.887ZM344.032 139.987C344.032 139.987 344.132 139.987 344.032 139.987C344.132 139.987 344.032 139.987 344.032 139.987ZM342.932 140.287H343.032C342.932 140.187 342.932 140.287 342.932 140.287ZM342.332 140.387H342.432C342.432 140.387 342.432 140.387 342.332 140.387ZM341.232 140.687H341.332C341.232 140.687 341.232 140.687 341.232 140.687ZM340.632 140.787H340.732H340.632ZM338.932 141.287H339.032H338.932ZM338.332 141.487H338.432C338.432 141.387 338.432 141.487 338.332 141.487ZM337.232 141.787H337.332C337.232 141.787 337.232 141.787 337.232 141.787ZM336.632 141.987H336.732H336.632ZM335.432 142.387C335.532 142.387 335.532 142.387 335.432 142.387C335.532 142.387 335.532 142.387 335.432 142.387ZM334.932 142.587H335.032C334.932 142.587 334.932 142.587 334.932 142.587ZM334.332 142.787H334.432C334.432 142.687 334.332 142.787 334.332 142.787ZM333.132 143.187C333.232 143.187 333.232 143.187 333.332 143.087C333.232 143.187 333.132 143.187 333.132 143.187ZM332.532 143.387C332.532 143.387 332.632 143.387 332.632 143.287C332.632 143.387 332.632 143.387 332.532 143.387ZM331.332 143.887C331.332 143.887 331.432 143.887 331.432 143.787C331.432 143.787 331.432 143.887 331.332 143.887ZM330.732 144.087C330.832 144.087 330.832 144.087 330.932 143.987C330.832 144.087 330.832 144.087 330.732 144.087ZM330.232 144.287H330.332H330.232ZM329.532 144.587C329.532 144.587 329.632 144.587 329.632 144.487C329.632 144.487 329.632 144.587 329.532 144.587ZM329.032 144.787C329.132 144.787 329.132 144.787 329.232 144.687C329.132 144.787 329.032 144.787 329.032 144.787ZM328.432 145.087C328.532 145.087 328.532 145.087 328.532 144.987C328.532 144.987 328.532 144.987 328.432 145.087ZM327.132 145.587C327.232 145.587 327.232 145.487 327.332 145.487C327.332 145.487 327.232 145.587 327.132 145.587ZM326.632 145.787C326.732 145.787 326.732 145.787 326.832 145.687C326.732 145.787 326.732 145.787 326.632 145.787ZM325.432 146.387C325.432 146.387 325.532 146.387 325.532 146.287C325.532 146.387 325.432 146.387 325.432 146.387ZM324.832 146.687C324.932 146.687 324.932 146.587 325.032 146.587C324.932 146.587 324.832 146.587 324.832 146.687ZM324.232 146.887C324.232 146.887 324.332 146.887 324.332 146.787C324.332 146.887 324.332 146.887 324.232 146.887ZM323.632 147.287C323.632 147.287 323.732 147.287 323.732 147.187C323.632 147.187 323.632 147.187 323.632 147.287ZM323.032 147.587C323.132 147.587 323.132 147.487 323.232 147.487C323.132 147.487 323.032 147.487 323.032 147.587ZM322.432 147.787C322.532 147.787 322.532 147.687 322.632 147.687C322.532 147.787 322.432 147.787 322.432 147.787ZM321.132 148.487C321.232 148.487 321.232 148.387 321.332 148.387C321.232 148.387 321.232 148.387 321.132 148.487ZM320.632 148.787C320.732 148.787 320.732 148.687 320.832 148.687C320.732 148.687 320.632 148.687 320.632 148.787ZM320.032 149.087C320.032 149.087 320.132 149.087 320.132 148.987C320.132 148.987 320.032 148.987 320.032 149.087ZM319.332 149.387C319.432 149.387 319.432 149.287 319.532 149.287C319.432 149.387 319.332 149.387 319.332 149.387ZM318.732 149.687C318.832 149.687 318.832 149.587 318.932 149.587C318.832 149.687 318.832 149.687 318.732 149.687ZM318.132 149.987C318.132 149.987 318.232 149.987 318.232 149.887C318.232 149.987 318.232 149.987 318.132 149.987ZM317.532 150.387C317.532 150.387 317.632 150.387 317.632 150.287C317.632 150.387 317.532 150.387 317.532 150.387ZM316.932 150.787C317.032 150.787 317.032 150.687 317.132 150.687C317.032 150.687 316.932 150.687 316.932 150.787ZM316.332 151.087C316.432 151.087 316.432 150.987 316.532 150.987C316.432 150.987 316.332 151.087 316.332 151.087ZM315.732 151.387L316.032 260.787L316.332 370.187C368.932 339.787 411.332 266.287 411.232 205.887C411.232 192.087 408.932 180.087 404.832 170.287L316.032 260.887L315.732 151.387Z" fill="#FFD394"/>
<path d="M220.732 261.087L221.032 370.387L316.332 370.187L316.032 260.787L220.732 261.087Z" fill="#2F58FF"/>
<path d="M315.732 151.387L220.732 261.087L316.032 260.787L315.732 151.387Z" fill="#9AF4DC"/>
<path d="M315.732 151.387L316.032 260.787L404.832 170.187C396.532 150.387 380.732 139.187 360.632 138.387C360.132 138.387 359.632 138.387 359.132 138.387C358.932 138.387 358.832 138.387 358.632 138.387C358.332 138.387 357.932 138.387 357.632 138.387C357.432 138.387 357.332 138.387 357.132 138.387C356.632 138.387 356.132 138.387 355.632 138.487C355.632 138.487 355.632 138.487 355.532 138.487C355.332 138.487 355.232 138.487 355.032 138.487C354.732 138.487 354.332 138.487 354.032 138.587C354.032 138.587 354.032 138.587 353.932 138.587C353.732 138.587 353.632 138.587 353.432 138.587C353.432 138.587 353.432 138.587 353.332 138.587C353.032 138.587 352.632 138.687 352.332 138.687C352.132 138.687 352.032 138.687 351.832 138.687H351.732C351.532 138.687 351.432 138.687 351.232 138.787C351.032 138.787 350.832 138.787 350.732 138.887C350.532 138.887 350.432 138.887 350.232 138.987H350.132C349.932 138.987 349.832 138.987 349.632 139.087C349.332 139.087 348.932 139.187 348.632 139.287C348.632 139.287 348.632 139.287 348.532 139.287C348.432 139.287 348.232 139.287 348.132 139.387H348.032C347.732 139.487 347.332 139.487 347.032 139.587C347.032 139.587 347.032 139.587 346.932 139.587C346.832 139.587 346.632 139.687 346.532 139.687H346.432C346.232 139.687 346.132 139.787 345.932 139.787C345.932 139.787 345.932 139.787 345.832 139.787C345.632 139.787 345.432 139.887 345.332 139.887C345.132 139.887 345.032 139.987 344.832 139.987H344.732C344.632 139.987 344.432 140.087 344.332 140.087H344.232C343.832 140.187 343.532 140.287 343.132 140.287H343.032C342.932 140.287 342.732 140.387 342.632 140.387H342.532C342.332 140.387 342.232 140.487 342.032 140.487C341.832 140.487 341.632 140.587 341.532 140.587H341.432C341.332 140.587 341.132 140.687 341.032 140.687H340.932C340.832 140.687 340.632 140.787 340.532 140.787H340.432C340.232 140.787 340.032 140.887 339.932 140.987C339.732 140.987 339.632 141.087 339.432 141.087H339.332C339.232 141.087 339.032 141.187 338.932 141.187H338.832C338.432 141.287 338.132 141.387 337.732 141.487H337.632C337.532 141.487 337.332 141.587 337.232 141.587H337.132C336.932 141.687 336.832 141.687 336.632 141.787C336.432 141.887 336.232 141.887 336.032 141.987C336.032 141.987 336.032 141.987 335.932 141.987C335.732 142.087 335.632 142.087 335.432 142.187H335.332C335.232 142.287 335.032 142.287 334.932 142.387H334.832C334.632 142.487 334.432 142.487 334.332 142.587C334.332 142.587 334.332 142.587 334.232 142.587C334.032 142.687 333.932 142.687 333.732 142.787C333.632 142.787 333.632 142.787 333.532 142.887C333.432 142.887 333.232 142.987 333.132 143.087C333.132 143.087 333.032 143.087 333.032 143.187C332.832 143.287 332.632 143.287 332.532 143.387C332.332 143.487 332.132 143.487 332.032 143.587C332.032 143.587 331.932 143.587 331.932 143.687C331.832 143.787 331.632 143.787 331.532 143.887C331.432 143.887 331.432 143.887 331.332 143.987C331.232 144.087 331.032 144.087 330.932 144.187H330.832C330.632 144.287 330.432 144.287 330.332 144.387C330.332 144.387 330.232 144.387 330.232 144.487C330.132 144.587 329.932 144.587 329.832 144.687C329.732 144.687 329.732 144.687 329.632 144.787C329.532 144.887 329.332 144.887 329.232 144.987C329.132 144.987 329.132 144.987 329.132 145.087C328.932 145.187 328.732 145.287 328.632 145.287C328.432 145.387 328.332 145.387 328.132 145.487C328.032 145.487 328.032 145.587 327.932 145.587C327.832 145.687 327.632 145.687 327.532 145.787C327.432 145.787 327.432 145.787 327.332 145.887C327.132 145.987 327.032 145.987 326.832 146.087C326.632 146.187 326.432 146.287 326.232 146.387C326.232 146.387 326.132 146.387 326.132 146.487C326.032 146.587 325.832 146.587 325.732 146.687C325.632 146.687 325.632 146.787 325.532 146.787C325.432 146.887 325.232 146.887 325.132 146.987C325.132 146.987 325.032 146.987 325.032 147.087C324.832 147.187 324.632 147.287 324.532 147.387C324.532 147.387 324.432 147.387 324.432 147.487C324.332 147.587 324.132 147.587 324.032 147.687C323.932 147.687 323.932 147.787 323.832 147.787C323.732 147.887 323.532 147.887 323.432 147.987C323.332 147.987 323.332 148.087 323.232 148.087C323.032 148.187 322.832 148.287 322.632 148.387C322.432 148.487 322.232 148.587 322.132 148.687C322.032 148.687 322.032 148.787 321.932 148.787C321.832 148.887 321.632 148.887 321.532 148.987C321.432 148.987 321.432 149.087 321.332 149.087C321.232 149.187 321.032 149.287 320.932 149.287C320.932 149.287 320.832 149.287 320.832 149.387C320.632 149.487 320.432 149.587 320.332 149.687C320.232 149.687 320.232 149.787 320.132 149.787C320.032 149.887 319.832 149.887 319.732 149.987C319.632 149.987 319.632 150.087 319.532 150.087C319.432 150.187 319.232 150.287 319.132 150.287C319.132 150.287 319.032 150.287 319.032 150.387C318.832 150.487 318.632 150.587 318.432 150.687C318.432 150.687 318.332 150.687 318.332 150.787C318.132 150.887 318.032 150.987 317.832 151.087C317.732 151.087 317.732 151.187 317.632 151.187C317.532 151.287 317.332 151.387 317.232 151.387C317.132 151.387 317.132 151.487 317.032 151.487C316.132 151.187 315.932 151.287 315.732 151.387Z" fill="#FB7070"/>
<path d="M293.33 370.187C295.03 371.287 296.73 372.387 298.33 373.487" stroke="#171A21" stroke-width="2" stroke-linecap="round" stroke-linejoin="round"/>
<path d="M308.531 379.687C323.231 388.287 337.931 395.487 352.431 400.987C440.631 434.187 484.931 389.287 451.231 300.687C417.631 212.087 318.931 113.287 230.731 80.0869C142.531 46.8869 98.2307 91.7869 131.831 180.387C140.631 203.587 153.831 227.387 170.231 250.587" stroke="#171A21" stroke-width="2" stroke-linecap="round" stroke-linejoin="round" stroke-dasharray="11.91 11.91"/>
<path d="M173.631 255.487C174.831 257.087 176.031 258.687 177.231 260.287" stroke="#171A21" stroke-width="2" stroke-linecap="round" stroke-linejoin="round"/>
<path d="M230.133 174.287C228.133 174.487 226.133 174.687 224.133 174.887" stroke="#171A21" stroke-width="2" stroke-linecap="round" stroke-linejoin="round"/>
<path d="M212.332 176.087C180.132 179.887 149.932 186.087 124.232 194.587C31.3321 225.487 31.8321 275.487 125.332 306.287C218.832 337.187 369.932 337.187 462.832 306.287C555.732 275.387 555.232 225.387 461.732 194.587C448.832 190.387 434.932 186.687 420.132 183.587" stroke="#171A21" stroke-width="2" stroke-linecap="round" stroke-linejoin="round" stroke-dasharray="11.93 11.93"/>
<path d="M414.332 182.487C412.332 182.087 410.432 181.687 408.432 181.387" stroke="#171A21" stroke-width="2" stroke-linecap="round" stroke-linejoin="round"/>
<path d="M173.232 54.7869L139.032 12.7869C138.132 11.6869 136.432 11.9869 135.932 13.2869L119.532 56.8869C118.632 59.2869 119.032 62.0869 120.732 64.0869L154.332 105.287C155.932 107.287 158.532 108.287 161.132 107.887L213.332 99.2869C215.832 98.8869 218.032 97.0869 218.932 94.6869L235.332 51.0869C235.832 49.7869 234.732 48.3869 233.332 48.6869L180.232 57.3869C177.532 57.7869 174.932 56.7869 173.232 54.7869Z" fill="#98A2F4"/>
<path d="M233.232 48.5869L180.032 57.2869C177.432 57.6869 174.832 56.6869 173.232 54.6869L139.032 12.6869C138.132 11.5869 138.732 9.98692 140.132 9.78692L193.332 1.08692C195.932 0.686918 198.532 1.68692 200.132 3.68692L234.332 45.6869C235.232 46.7869 234.632 48.3869 233.232 48.5869Z" fill="#9AF4DC"/>
<path d="M234.832 52.0869C235.732 49.6869 235.332 46.8869 233.632 44.8869L200.132 3.68692C198.532 1.68692 195.932 0.686918 193.332 1.08692L141.132 9.68692C138.632 10.0869 136.432 11.8869 135.532 14.2869L119.532 56.9869C118.632 59.3869 119.032 62.1869 120.732 64.1869" stroke="#171A21" stroke-width="2" stroke-miterlimit="10" stroke-linecap="round" stroke-linejoin="round"/>
<path d="M157.631 6.98691L196.531 54.6869L217.831 51.1869L178.931 3.48691L157.631 6.98691Z" fill="white"/>
<path d="M157.631 6.98691L196.531 54.6869L217.831 51.1869L178.931 3.48691L157.631 6.98691Z" fill="white" stroke="#171A21" stroke-width="2" stroke-linecap="round" stroke-linejoin="round" stroke-dasharray="12 12"/>
<path d="M374.232 385.387L383.032 449.287C383.132 450.287 383.732 451.187 384.632 451.687L452.432 490.787C454.332 491.887 456.832 490.787 457.232 488.487L465.432 440.387C465.632 439.087 465.032 437.687 463.832 437.087L374.232 385.387ZM454.832 443.387L449.732 474.887C449.332 477.087 446.932 478.287 444.932 477.187L442.632 475.887C441.532 475.287 440.932 474.087 441.032 472.887L443.332 439.687C443.532 437.287 446.132 435.887 448.132 437.087L453.232 439.987C454.432 440.787 455.032 442.087 454.832 443.387ZM435.532 431.987L433.232 465.187C433.032 467.587 430.432 468.987 428.432 467.787L425.532 466.087C424.532 465.487 423.932 464.487 423.932 463.287L424.032 428.787C424.032 426.287 426.732 424.787 428.832 425.987L433.932 428.887C435.032 429.587 435.632 430.687 435.532 431.987ZM416.032 418.587L415.932 454.987C415.932 457.487 413.232 458.987 411.132 457.787L408.432 456.287C407.532 455.787 406.932 454.787 406.832 453.687L404.732 417.987C404.532 415.387 407.332 413.687 409.532 414.987L416.032 418.587ZM396.532 408.987L398.632 444.687C398.832 447.287 396.032 448.987 393.832 447.687L392.332 446.887C391.432 446.387 390.832 445.487 390.732 444.487L385.832 407.087C385.432 404.387 388.332 402.487 390.632 403.887L394.932 406.387C395.832 406.987 396.432 407.887 396.532 408.987Z" fill="#98A2F4"/>
<path d="M382.931 450.887L332.031 479.787C329.831 480.987 329.831 484.187 332.031 485.387L394.931 521.687C398.231 523.587 402.331 523.587 405.631 521.687L452.731 494.887C454.931 493.687 454.931 490.487 452.731 489.287L386.131 450.987C385.131 450.387 383.931 450.387 382.931 450.887Z" fill="#98A2F4"/>
<path d="M383.931 450.387L328.531 481.887C327.831 482.287 327.031 481.887 326.931 481.087L319.131 424.787C319.031 424.387 319.231 423.987 319.631 423.687L374.731 389.887C375.431 389.487 376.231 389.887 376.331 390.687L384.431 449.287C384.531 449.687 384.331 450.187 383.931 450.387Z" fill="#98A2F4"/>
<path d="M456.832 492.787L404.232 522.687C402.632 523.587 400.732 522.287 401.032 520.487L408.532 476.387C408.632 475.787 409.032 475.187 409.632 474.887L462.132 445.487C463.732 444.587 465.632 445.987 465.332 447.687L457.832 491.387C457.832 491.887 457.432 492.487 456.832 492.787Z" fill="#98A2F4"/>
<path d="M318.131 417.087L326.931 480.987C327.031 481.987 327.631 482.887 328.531 483.387L396.331 522.487C398.231 523.587 400.731 522.487 401.131 520.187L409.331 472.087C409.531 470.787 408.931 469.387 407.731 468.787L318.131 417.087ZM398.631 475.187L393.531 506.687C393.131 508.887 390.731 510.087 388.731 508.987L386.431 507.687C385.331 507.087 384.731 505.887 384.831 504.687L387.131 471.487C387.331 469.087 389.931 467.687 391.931 468.887L397.031 471.787C398.231 472.487 398.831 473.887 398.631 475.187ZM379.331 463.687L377.031 496.887C376.831 499.287 374.231 500.687 372.231 499.487L369.331 497.787C368.331 497.187 367.731 496.187 367.731 494.987L367.831 460.487C367.831 457.987 370.531 456.487 372.631 457.687L377.731 460.587C378.831 461.287 379.431 462.487 379.331 463.687ZM359.931 450.387L359.831 486.687C359.831 489.187 357.131 490.687 355.031 489.487L352.331 487.987C351.431 487.487 350.831 486.487 350.731 485.387L348.631 449.687C348.431 447.087 351.231 445.387 353.431 446.687L359.931 450.387ZM340.331 440.787L342.431 476.487C342.631 479.087 339.831 480.787 337.631 479.487L336.131 478.687C335.231 478.187 334.631 477.287 334.531 476.287L329.631 438.887C329.231 436.187 332.131 434.287 334.431 435.687L338.731 438.187C339.731 438.687 340.331 439.687 340.331 440.787Z" fill="#9AF4DC"/>
<path d="M373.832 384.187L313.532 418.987C312.532 419.587 311.932 420.587 311.932 421.787V422.687C311.932 423.787 312.532 424.887 313.532 425.487L407.332 479.987C408.332 480.587 409.532 480.587 410.532 479.987L470.832 445.187C471.832 444.587 472.432 443.587 472.432 442.387V441.487C472.432 440.387 471.832 439.287 470.832 438.687L377.032 384.187C376.132 383.687 374.832 383.687 373.832 384.187ZM407.432 468.387L332.932 425.087C330.832 423.887 330.832 420.687 332.932 419.487L373.832 395.887C374.832 395.287 376.032 395.287 377.032 395.887L451.532 439.187C453.632 440.387 453.632 443.587 451.532 444.787L410.632 468.387C409.632 468.987 408.432 468.987 407.432 468.387Z" fill="#9AF4DC"/>
<path d="M377.131 384.187C376.131 383.587 374.931 383.587 373.931 384.187L313.631 418.987C312.631 419.587 312.031 420.587 312.031 421.787V422.687C312.031 423.787 312.631 424.887 313.631 425.487L407.431 479.987C408.431 480.587 409.631 480.587 410.631 479.987" stroke="#171A21" stroke-width="2" stroke-miterlimit="10" stroke-linecap="round" stroke-linejoin="round"/>
<path d="M366.732 400.087L426.832 365.387C428.032 364.687 429.432 365.587 429.432 366.887L429.532 415.087C429.532 415.687 429.232 416.287 428.632 416.587L425.732 418.287C425.232 418.587 424.532 418.587 423.932 418.287L422.132 417.287C421.632 416.987 421.232 416.387 421.232 415.787L421.132 376.887C421.132 375.587 419.632 374.687 418.532 375.387L371.132 402.687C370.632 402.987 370.232 403.587 370.232 404.187L370.332 449.087C370.332 449.687 370.032 450.287 369.432 450.587L366.532 452.287C366.032 452.587 365.332 452.587 364.732 452.287L362.932 451.287C362.432 450.987 362.032 450.387 362.032 449.787L361.932 401.587C361.932 400.187 363.432 399.387 364.532 400.087C365.532 400.487 366.132 400.487 366.732 400.087Z" fill="#2F58FF"/>
<path d="M428.532 361.687C427.932 361.387 427.232 361.387 426.632 361.687L363.232 398.287C362.032 398.987 362.032 400.787 363.232 401.487C363.832 401.787 364.532 401.787 365.132 401.487L428.532 364.887C429.732 364.187 429.732 362.387 428.532 361.687Z" fill="white"/>
<path d="M428.932 365.187C430.032 364.287 429.732 362.387 428.432 361.687C427.832 361.387 427.132 361.387 426.532 361.687L363.132 398.287C361.932 398.987 361.932 400.787 363.132 401.487" stroke="#171A21" stroke-width="2" stroke-miterlimit="10" stroke-linecap="round" stroke-linejoin="round"/>
<path d="M134.732 400.187L156.832 387.487C156.832 387.487 156.832 387.487 156.932 387.487H157.032C157.232 387.387 157.332 387.287 157.532 387.287H157.632C157.632 387.287 157.632 387.287 157.732 387.287C157.932 387.187 158.132 387.187 158.332 387.087C158.532 386.987 158.732 386.987 158.932 386.987C158.932 386.987 158.932 386.987 159.032 386.987H159.132C159.332 386.987 159.532 386.887 159.732 386.887H159.832C160.032 386.887 160.332 386.887 160.532 386.887C160.532 386.887 160.532 386.887 160.632 386.887H160.732C161.032 386.887 161.332 386.887 161.532 386.987C161.832 387.087 162.232 387.087 162.632 387.187C162.632 387.187 162.632 387.187 162.732 387.187C162.932 387.287 163.132 387.287 163.432 387.387C163.432 387.387 163.532 387.387 163.532 387.487C163.732 387.587 163.932 387.587 164.032 387.687C164.032 387.687 164.032 387.687 164.132 387.687C164.132 387.687 164.232 387.687 164.232 387.787C164.432 387.887 164.632 387.987 164.832 388.087C164.932 388.087 165.032 388.187 165.032 388.187C165.332 388.287 165.532 388.487 165.832 388.587C166.132 388.787 166.532 388.987 166.832 389.187C166.932 389.287 167.032 389.287 167.132 389.387C167.332 389.587 167.632 389.687 167.832 389.887C167.932 389.987 168.032 390.087 168.132 390.187C168.332 390.387 168.532 390.587 168.832 390.687C168.932 390.787 169.032 390.887 169.132 390.987C169.432 391.187 169.632 391.487 169.932 391.687L170.032 391.787C170.132 391.887 170.132 391.887 170.232 391.987C170.432 392.187 170.632 392.387 170.832 392.587C170.932 392.687 171.032 392.787 171.132 392.887C171.232 392.987 171.332 393.087 171.432 393.287L171.532 393.387C171.732 393.587 171.832 393.787 172.032 393.987L174.932 392.287C174.932 392.287 175.032 392.287 175.032 392.187C175.032 392.187 175.132 392.187 175.132 392.087C175.332 391.987 175.532 391.887 175.732 391.787C175.732 391.787 175.832 391.787 175.832 391.687H175.932C176.132 391.587 176.332 391.487 176.632 391.487H176.732C177.032 391.387 177.232 391.387 177.532 391.287H177.632H177.732C177.932 391.287 178.232 391.187 178.432 391.187H178.532C178.532 391.187 178.532 391.187 178.632 391.187C178.932 391.187 179.232 391.187 179.632 391.187C179.632 391.187 179.632 391.187 179.732 391.187H179.832C180.132 391.187 180.532 391.287 180.832 391.287H180.932C181.032 391.287 181.132 391.287 181.232 391.387C181.432 391.387 181.532 391.487 181.732 391.487C181.832 391.487 181.932 391.587 182.032 391.587C182.132 391.587 182.232 391.687 182.332 391.687H182.432C182.732 391.787 182.932 391.887 183.232 391.887H183.332C183.632 391.987 183.932 392.087 184.232 392.187C184.232 392.187 184.232 392.187 184.332 392.187C184.432 392.187 184.432 392.187 184.532 392.287C184.832 392.387 185.132 392.587 185.432 392.687C185.532 392.687 185.632 392.787 185.732 392.787C186.132 392.987 186.432 393.187 186.832 393.387C187.232 393.687 187.732 393.887 188.132 394.187C188.232 394.287 188.332 394.287 188.332 394.287C188.732 394.587 189.132 394.887 189.532 395.187C189.632 395.287 189.732 395.287 189.732 395.387C190.132 395.687 190.532 396.087 190.932 396.387L191.032 396.487C191.432 396.787 191.832 397.187 192.132 397.587L192.232 397.687L192.332 397.787C192.632 398.087 192.832 398.287 193.132 398.587C193.132 398.587 193.132 398.587 193.232 398.687C193.532 398.987 193.832 399.287 194.032 399.587C194.032 399.587 194.032 399.587 194.132 399.687L194.232 399.787C194.632 400.287 195.032 400.787 195.432 401.287C195.432 401.287 195.432 401.387 195.532 401.387C195.832 401.787 196.132 402.187 196.432 402.687L196.532 402.787C196.532 402.787 196.532 402.887 196.632 402.887C196.932 403.287 197.232 403.687 197.432 404.187C197.432 404.187 197.432 404.287 197.532 404.287C197.532 404.387 197.632 404.387 197.632 404.487C197.832 404.787 198.032 405.187 198.232 405.487C198.232 405.587 198.332 405.587 198.332 405.687C198.332 405.687 198.332 405.787 198.432 405.787C198.632 406.187 198.932 406.587 199.132 406.987C199.132 406.987 199.132 406.987 199.132 407.087C199.132 407.187 199.232 407.187 199.232 407.287C199.432 407.587 199.632 407.987 199.732 408.287C199.732 408.387 199.832 408.387 199.832 408.487C199.832 408.587 199.832 408.587 199.932 408.687C200.132 409.087 200.332 409.587 200.532 409.987C200.732 410.387 200.932 410.887 201.032 411.287C201.032 411.387 201.032 411.387 201.132 411.487C201.132 411.587 201.132 411.587 201.232 411.687C201.432 412.187 201.532 412.587 201.732 413.087C201.932 413.587 202.032 414.087 202.232 414.587C202.232 414.687 202.232 414.687 202.332 414.787V414.887C202.532 415.487 202.632 415.987 202.732 416.587V416.687C202.732 416.787 202.732 416.887 202.732 416.887C202.732 417.087 202.832 417.287 202.832 417.587C202.832 417.787 202.932 417.887 202.932 418.087C202.932 418.287 203.032 418.587 203.032 418.787C203.032 418.887 203.032 418.987 203.032 419.087V419.187C203.132 419.687 203.132 420.187 203.132 420.687C203.132 420.787 203.132 420.887 203.132 420.987C203.132 421.487 203.132 421.987 203.132 422.487C203.532 422.787 203.832 423.087 204.232 423.387C204.332 423.487 204.432 423.587 204.532 423.687C204.732 423.887 205.032 424.087 205.232 424.287L205.332 424.387C205.632 424.687 205.932 424.987 206.132 425.287C206.232 425.387 206.332 425.487 206.332 425.587C206.432 425.687 206.532 425.787 206.532 425.887C206.632 425.987 206.732 426.087 206.832 426.187C207.032 426.387 207.232 426.587 207.432 426.887C207.532 426.987 207.532 427.087 207.632 427.087C207.732 427.187 207.832 427.387 207.932 427.487C208.032 427.687 208.232 427.887 208.332 428.087C208.432 428.187 208.432 428.287 208.532 428.287C208.632 428.487 208.732 428.587 208.832 428.787C208.932 428.987 209.032 429.087 209.132 429.287C209.132 429.387 209.232 429.387 209.232 429.487C209.432 429.687 209.532 429.987 209.632 430.187C209.732 430.287 209.732 430.387 209.832 430.487C209.832 430.487 209.832 430.487 209.832 430.587C210.032 430.987 210.232 431.287 210.432 431.687V431.787C210.532 431.887 210.532 431.987 210.632 432.087C210.732 432.287 210.832 432.587 211.032 432.787C211.032 432.887 211.132 432.987 211.132 433.087C211.232 433.187 211.232 433.387 211.332 433.487C211.432 433.587 211.432 433.787 211.532 433.887C211.632 434.087 211.632 434.187 211.732 434.387C211.832 434.487 211.832 434.687 211.932 434.787C211.932 434.887 212.032 434.987 212.032 434.987C212.132 435.187 212.232 435.487 212.332 435.687C212.332 435.787 212.432 435.987 212.432 436.087V436.187C212.532 436.587 212.632 436.887 212.732 437.287C212.732 437.387 212.732 437.387 212.732 437.487C212.732 437.687 212.832 437.787 212.832 437.987C212.932 438.287 213.032 438.587 213.032 438.887C213.132 439.287 213.232 439.687 213.232 440.087C213.232 440.187 213.232 440.287 213.232 440.387C213.232 440.487 213.232 440.587 213.232 440.687C213.232 440.887 213.232 441.087 213.332 441.387C213.332 441.487 213.332 441.687 213.332 441.787C213.332 442.187 213.332 442.687 213.332 443.087C213.332 446.987 211.932 449.787 209.632 451.087L198.132 457.787" fill="#FB7070"/>
<path d="M175.332 399.487C169.232 395.987 163.832 396.487 160.732 400.587C158.732 397.987 156.432 395.887 154.032 394.587C147.632 390.887 142.332 393.287 141.432 399.687C135.332 397.287 130.532 400.587 130.432 407.887C130.432 415.987 136.232 425.887 143.332 429.987L190.032 456.987C197.032 461.087 202.932 457.887 202.932 449.787C202.932 442.587 198.232 433.787 192.232 429.087C192.332 418.087 184.732 404.987 175.332 399.487Z" fill="#FFD394"/>
<path d="M1.53097 220.687C0.630967 222.087 -0.169033 224.287 0.0309669 225.987C0.330967 228.187 11.931 250.787 16.331 259.787C28.531 284.887 40.831 309.887 53.031 334.987C54.331 337.687 55.731 340.487 57.031 343.187C57.631 344.387 57.831 345.587 59.131 346.087C61.331 347.087 65.131 346.487 67.531 346.687C64.031 346.487 61.531 338.087 60.331 335.787C55.531 326.087 50.731 316.287 45.931 306.587C35.031 284.587 24.131 262.487 13.231 240.487C11.931 237.887 10.531 235.287 9.33097 232.587C9.03097 231.887 8.73097 231.287 8.43097 230.587C7.83097 228.987 7.93097 228.887 9.03097 227.987C9.43097 227.687 12.631 225.987 12.331 225.587C12.231 225.387 9.73097 226.287 9.23097 226.187C7.83097 225.987 7.93097 225.687 8.13097 224.187C8.33097 222.787 9.03097 221.587 9.83097 220.487C12.531 216.287 15.331 212.187 18.131 208.087C26.831 195.187 35.431 182.187 44.131 169.287C45.431 167.287 47.831 161.987 50.831 162.087C47.031 161.887 42.331 160.387 39.531 163.587C37.331 166.187 35.631 169.387 33.731 172.287C25.231 184.987 16.731 197.787 8.23097 210.487C6.03097 213.787 3.63097 217.187 1.53097 220.687Z" fill="#FB7070"/>
<path d="M8.8314 231.987L64.4314 344.287C66.0314 347.387 68.8314 347.587 70.7314 344.687L108.831 287.887C110.731 284.987 111.131 280.087 109.531 276.887L54.0314 164.587C52.4314 161.387 49.6314 161.287 47.7314 164.187L9.5314 220.987C7.6314 223.887 7.3314 228.787 8.8314 231.987Z" fill="white"/>
<path d="M64.4305 344.287C66.0305 347.387 68.8305 347.587 70.7305 344.687L108.83 287.887C110.73 284.987 111.13 280.087 109.53 276.887L54.0305 164.587C52.4305 161.387 49.6305 161.287 47.7305 164.187" stroke="#171A21" stroke-width="2" stroke-miterlimit="10" stroke-linecap="round" stroke-linejoin="round"/>
<path d="M16.9305 231.987L59.5304 317.987C60.6304 320.187 62.6304 320.387 64.0304 318.287L94.9305 272.187C96.3305 270.087 96.5304 266.687 95.4305 264.487L52.8305 178.487C51.7305 176.287 49.7305 176.087 48.3305 178.187L17.4305 224.287C16.0305 226.287 15.8305 229.787 16.9305 231.987Z" fill="#FB7070"/>
<path d="M79.0307 310.887C79.8307 312.487 81.2307 312.587 82.2307 311.087L88.0307 302.387C89.0307 300.887 89.1307 298.487 88.4307 296.887C87.7307 295.287 86.2307 295.187 85.2307 296.687L79.4307 305.387C78.3307 306.787 78.2307 309.287 79.0307 310.887Z" fill="#2F58FF"/>
<path d="M55.5297 276.587L74.4297 248.687C75.4297 247.187 77.6297 247.287 78.4297 248.987L79.5297 251.187C80.6297 253.387 80.4297 256.087 79.1297 258.187L60.2297 286.087C59.2297 287.587 57.0297 287.487 56.2297 285.887L55.1297 283.687C54.0297 281.387 54.1297 278.687 55.5297 276.587Z" fill="#FFD394"/>
<path d="M62.1293 289.787L81.0293 261.887C82.0293 260.387 84.2293 260.487 85.0293 262.187L86.1293 264.387C87.2293 266.587 87.0294 269.287 85.7294 271.387L66.8294 299.287C65.8294 300.787 63.6294 300.687 62.8294 299.087L61.7293 296.887C60.5293 294.687 60.7293 291.987 62.1293 289.787Z" fill="#FFD394"/>
<path d="M29.5301 221.587L46.9301 195.787C48.2301 193.887 51.1301 193.987 52.2301 196.087L70.9301 233.487C72.4301 236.487 72.1301 239.987 70.3301 242.687L52.9301 268.687C51.6301 270.587 48.7301 270.487 47.6301 268.387L28.9301 230.787C27.4301 227.887 27.6301 224.387 29.5301 221.587Z" fill="#FFD394"/>
<path d="M438.532 141.187C438.632 141.187 438.632 141.187 438.532 141.187C438.632 141.187 438.632 141.187 438.532 141.187ZM437.232 94.6869C436.732 94.9869 436.432 95.7869 436.432 96.8869L436.332 136.387C436.332 138.287 437.332 140.387 438.632 141.187C438.032 140.787 437.432 140.087 437.032 139.287L457.432 128.787L437.232 94.6869C437.132 94.7869 437.132 94.7869 437.232 94.6869ZM486.432 123.187C486.432 123.287 486.532 123.287 486.532 123.387L466.132 133.887L486.432 167.887C486.032 168.187 485.432 168.287 484.832 167.987C486.132 168.687 487.132 167.687 487.132 165.787L487.232 126.287C487.232 125.187 486.932 124.087 486.432 123.187ZM486.332 123.087C486.432 123.087 486.432 123.087 486.332 123.087C486.432 123.087 486.432 123.087 486.332 123.087ZM485.332 121.687C485.332 121.787 485.332 121.787 485.332 121.687C485.332 121.787 485.332 121.787 485.332 121.687ZM485.232 121.587C485.232 121.587 485.232 121.687 485.232 121.587C485.232 121.687 485.232 121.587 485.232 121.587ZM485.132 121.487C485.132 121.587 485.132 121.587 485.132 121.487C485.132 121.587 485.132 121.587 485.132 121.487ZM484.932 121.487C485.032 121.487 485.032 121.487 484.932 121.487C485.032 121.487 485.032 121.487 484.932 121.487ZM438.732 94.6869C438.732 94.6869 438.632 94.6869 438.732 94.6869C438.632 94.6869 438.732 94.6869 438.732 94.6869Z" fill="#FB7070"/>
<path d="M457.432 128.787L458.532 130.587C459.532 132.187 460.632 133.387 461.732 133.987C462.832 134.687 464.032 134.787 464.932 134.287L466.032 133.687L486.332 167.687C485.932 167.987 485.332 168.087 484.732 167.787C484.732 167.787 484.732 167.787 484.632 167.787L438.632 141.287C438.632 141.287 438.632 141.287 438.532 141.287C437.932 140.887 437.332 140.187 436.932 139.387L457.432 128.787Z" fill="#FFD394"/>
<path d="M438.832 94.7869L484.832 121.287C484.832 121.287 484.832 121.287 484.932 121.287C484.932 121.287 484.932 121.287 485.032 121.287C485.032 121.287 485.032 121.287 485.132 121.387C485.132 121.387 485.132 121.387 485.232 121.487C485.432 121.787 485.732 122.087 485.932 122.387C485.932 122.387 485.932 122.387 485.932 122.487C485.932 122.487 485.932 122.487 485.932 122.587C485.932 122.687 486.032 122.687 486.032 122.787L465.632 133.287L464.532 133.887C463.532 134.387 462.432 134.287 461.332 133.587C460.232 132.887 459.032 131.787 458.132 130.187L457.032 128.387L436.732 94.3869C436.732 94.3869 436.832 94.3869 436.832 94.2869C437.032 94.1869 437.232 94.1869 437.532 94.1869C437.532 94.1869 437.532 94.1869 437.632 94.1869C437.632 94.1869 437.632 94.1869 437.732 94.1869C437.732 94.1869 437.732 94.1869 437.832 94.1869C438.732 94.6869 438.732 94.6869 438.832 94.7869C438.732 94.7869 438.732 94.7869 438.832 94.7869C438.732 94.7869 438.832 94.7869 438.832 94.7869Z" fill="white"/>
<path d="M437.133 94.7869C437.233 94.6869 437.233 94.6869 437.133 94.7869C437.233 94.6869 437.233 94.6869 437.233 94.6869C437.433 94.5869 437.633 94.5869 437.933 94.5869C437.933 94.5869 437.933 94.5869 438.033 94.5869C438.033 94.5869 438.033 94.5869 438.133 94.5869C438.133 94.5869 438.133 94.5869 438.233 94.5869C438.233 94.5869 438.233 94.5869 438.333 94.5869" stroke="#171A21" stroke-width="2" stroke-miterlimit="10" stroke-linecap="round" stroke-linejoin="round"/>
<path d="M438.832 94.7869L484.832 121.287C484.832 121.287 484.832 121.287 484.932 121.287C484.932 121.287 484.932 121.287 485.032 121.287C485.032 121.287 485.032 121.287 485.132 121.387C485.132 121.387 485.132 121.387 485.232 121.487C485.432 121.787 485.732 122.087 485.932 122.387C485.932 122.387 485.932 122.387 485.932 122.487C485.932 122.487 485.932 122.487 485.932 122.587C485.932 122.687 486.032 122.687 486.032 122.787" stroke="#171A21" stroke-width="2" stroke-miterlimit="10" stroke-linecap="round" stroke-linejoin="round"/>
</svg>
