<svg width="533" height="523" viewBox="0 0 533 523" fill="none" xmlns="http://www.w3.org/2000/svg">
<path d="M339.132 119.087C339.132 118.987 339.032 118.987 339.132 119.087L338.732 118.887C338.632 118.787 338.432 118.687 338.332 118.687C338.332 118.687 338.332 118.687 338.232 118.687C338.232 118.687 338.132 118.687 338.132 118.587C338.032 118.487 337.932 118.487 337.732 118.387C337.632 118.387 337.632 118.287 337.532 118.287C337.432 118.187 337.232 118.187 337.132 118.087C337.032 118.087 337.032 117.987 336.932 117.987C336.732 117.887 336.532 117.787 336.332 117.687C335.632 117.387 335.032 116.987 334.332 116.687C334.132 116.587 334.032 116.587 333.832 116.487C333.732 116.487 333.632 116.387 333.532 116.387C332.832 116.087 332.232 115.887 331.532 115.587C331.332 115.487 331.232 115.487 331.032 115.387C330.332 115.187 329.632 114.887 328.432 114.587C327.632 114.387 326.232 113.987 325.432 113.787C325.232 113.787 325.032 113.687 324.832 113.687C324.732 113.687 324.732 113.687 324.632 113.687C324.532 113.687 324.332 113.587 324.232 113.587C324.132 113.587 324.032 113.587 323.932 113.587C323.832 113.587 323.632 113.487 323.532 113.487C323.432 113.487 323.332 113.487 323.232 113.387C323.132 113.387 323.032 113.387 322.932 113.287C322.832 113.287 322.832 113.287 322.732 113.287C321.832 113.187 321.032 112.987 320.132 112.987C319.932 112.987 319.732 112.987 319.532 112.887C319.232 112.887 318.932 112.787 318.532 112.787C318.432 112.787 318.432 112.787 318.332 112.787C318.032 112.787 317.632 112.787 317.332 112.687H317.232C317.032 112.687 316.932 112.687 316.732 112.687C315.832 112.687 314.932 112.587 313.932 112.587C313.732 112.587 313.532 112.587 313.232 112.587C312.932 112.587 312.632 112.587 312.332 112.587C312.232 112.587 312.132 112.587 312.032 112.587C311.832 112.587 311.632 112.587 311.332 112.587C311.232 112.587 311.232 112.587 311.132 112.587H311.032C310.732 112.587 310.432 112.587 310.132 112.587C309.232 112.687 308.332 112.687 307.332 112.787C307.132 112.787 306.832 112.787 306.632 112.887C306.432 112.887 306.232 112.987 305.932 112.987C305.832 112.987 305.832 112.987 305.732 112.987C305.532 112.987 305.432 112.987 305.232 113.087C305.132 113.087 305.032 113.087 304.932 113.087C304.732 113.087 304.632 113.087 304.432 113.187C304.332 113.187 304.232 113.187 304.132 113.187C304.032 113.187 304.032 113.187 303.932 113.187C303.732 113.187 303.532 113.287 303.232 113.287C302.332 113.387 301.432 113.587 300.532 113.787C300.332 113.787 300.132 113.887 299.832 113.887C298.832 114.087 297.832 114.287 296.232 114.687C296.132 114.687 296.032 114.787 295.932 114.787C295.132 114.987 294.332 115.187 293.532 115.487C293.332 115.587 293.132 115.587 292.932 115.687C291.932 115.987 290.832 116.387 289.832 116.687C289.632 116.787 289.432 116.887 289.132 116.887C288.232 117.187 287.232 117.587 285.832 118.087C285.532 118.187 285.132 118.387 284.832 118.487C284.132 118.787 283.432 119.087 282.632 119.387C282.432 119.487 282.132 119.587 281.932 119.687C280.932 120.087 279.932 120.587 278.632 121.187C277.532 121.687 276.432 122.287 275.332 122.887C275.032 122.987 274.832 123.187 274.532 123.287C273.532 123.787 272.632 124.287 271.632 124.887C271.332 125.087 271.032 125.287 270.832 125.487L184.532 225.987C179.832 231.387 177.232 238.387 177.232 245.587L177.432 332.787C177.432 339.187 180.832 344.987 186.332 348.187L221.432 368.487L221.132 259.787L315.532 150.987C316.632 150.387 317.732 149.687 318.832 149.087C319.132 148.987 319.332 148.787 319.632 148.687C320.732 148.087 321.832 147.587 322.932 146.987C324.232 146.387 325.232 145.887 326.232 145.487C326.432 145.387 326.732 145.287 326.932 145.187C328.032 144.687 329.032 144.287 330.132 143.887C331.632 143.287 332.532 142.987 333.432 142.687C333.632 142.587 333.932 142.487 334.132 142.487C335.132 142.087 336.232 141.787 337.232 141.487C337.432 141.387 337.632 141.387 337.832 141.287C338.732 140.987 339.632 140.787 340.532 140.487C342.132 140.087 343.132 139.887 344.132 139.687C344.332 139.587 344.632 139.587 344.832 139.587C345.732 139.387 346.632 139.187 347.532 139.087C347.832 139.087 348.132 138.987 348.332 138.987C348.432 138.987 348.532 138.987 348.632 138.987C348.832 138.987 349.032 138.887 349.132 138.887C349.232 138.887 349.332 138.887 349.432 138.887C349.632 138.887 349.732 138.887 349.932 138.787C350.032 138.787 350.032 138.787 350.132 138.787C350.332 138.787 350.632 138.687 350.832 138.687C351.032 138.687 351.332 138.687 351.532 138.587C352.432 138.487 353.432 138.387 354.332 138.387C354.632 138.387 354.932 138.387 355.232 138.387C355.332 138.387 355.432 138.387 355.532 138.387C355.732 138.387 356.032 138.387 356.232 138.387C356.332 138.387 356.432 138.387 356.532 138.387C356.832 138.387 357.132 138.387 357.432 138.387C357.632 138.387 357.832 138.387 358.132 138.387C359.032 138.387 360.032 138.387 360.932 138.487C361.132 138.487 361.332 138.487 361.532 138.487C361.832 138.487 362.232 138.487 362.532 138.587C362.632 138.587 362.632 138.587 362.732 138.587C363.032 138.587 363.432 138.687 363.732 138.687C363.932 138.687 364.132 138.687 364.332 138.787C365.232 138.887 366.132 138.987 366.932 139.087C367.132 139.087 367.332 139.187 367.432 139.187C367.532 139.187 367.632 139.187 367.732 139.287C367.832 139.287 368.032 139.387 368.132 139.387C368.232 139.387 368.332 139.387 368.432 139.387C368.532 139.387 368.732 139.487 368.832 139.487C368.932 139.487 368.932 139.487 369.032 139.487C369.232 139.487 369.432 139.587 369.632 139.587C369.832 139.587 370.032 139.687 370.232 139.687C371.032 139.887 371.932 140.087 372.732 140.287C373.932 140.687 374.632 140.887 375.332 141.087C375.532 141.187 375.632 141.187 375.832 141.287C376.632 141.587 377.432 141.887 378.132 142.187C378.332 142.287 378.432 142.287 378.632 142.387C379.332 142.687 380.032 142.987 380.632 143.387C380.832 143.487 381.032 143.587 381.232 143.687C381.332 143.687 381.332 143.787 381.432 143.787C381.532 143.887 381.732 143.887 381.832 143.987C381.932 143.987 381.932 144.087 382.032 144.087C382.132 144.187 382.232 144.187 382.432 144.287C382.432 144.287 382.532 144.287 382.532 144.387C382.732 144.487 382.832 144.587 383.032 144.687C383.132 144.687 383.232 144.787 383.232 144.787C383.332 144.787 383.332 144.887 383.432 144.887L339.132 119.087Z" fill="#F0F8FC"/>
<path d="M380.932 143.387C381.032 143.387 381.032 143.487 381.132 143.487C381.232 143.587 381.432 143.587 381.532 143.687C381.632 143.687 381.632 143.787 381.732 143.787C381.832 143.887 381.932 143.887 382.132 143.987C382.132 143.987 382.232 143.987 382.232 144.087C382.432 144.187 382.532 144.287 382.732 144.387C382.832 144.387 382.932 144.487 382.932 144.487C383.032 144.487 383.032 144.587 383.132 144.587L339.132 119.087L338.732 118.887C338.632 118.787 338.432 118.687 338.332 118.687C338.332 118.687 338.332 118.687 338.232 118.687C338.232 118.687 338.132 118.687 338.132 118.587C338.032 118.487 337.932 118.487 337.732 118.387C337.632 118.387 337.632 118.287 337.532 118.287C337.432 118.187 337.232 118.187 337.132 118.087C337.032 118.087 337.032 117.987 336.932 117.987C336.732 117.887 336.532 117.787 336.332 117.687C335.632 117.387 335.032 116.987 334.332 116.687C334.132 116.587 334.032 116.587 333.832 116.487C333.732 116.487 333.632 116.387 333.532 116.387C332.832 116.087 332.232 115.887 331.532 115.587C331.332 115.487 331.232 115.487 331.032 115.387C330.332 115.187 329.632 114.887 328.432 114.587C327.632 114.387 326.232 113.987 325.432 113.787C325.232 113.787 325.032 113.687 324.832 113.687C324.732 113.687 324.732 113.687 324.632 113.687C324.532 113.687 324.332 113.587 324.232 113.587C324.132 113.587 324.032 113.587 323.932 113.587C323.832 113.587 323.632 113.487 323.532 113.487C323.432 113.487 323.332 113.487 323.232 113.387C323.132 113.387 323.032 113.387 322.932 113.287C322.832 113.287 322.832 113.287 322.732 113.287C321.832 113.187 321.032 112.987 320.132 112.987C319.932 112.987 319.732 112.987 319.532 112.887C319.232 112.887 318.932 112.787 318.532 112.787C318.432 112.787 318.432 112.787 318.332 112.787C318.032 112.787 317.632 112.787 317.332 112.687H317.232C317.032 112.687 316.932 112.687 316.732 112.687C315.832 112.687 314.932 112.587 313.932 112.587C313.732 112.587 313.532 112.587 313.232 112.587C312.932 112.587 312.632 112.587 312.332 112.587C312.232 112.587 312.132 112.587 312.032 112.587C311.832 112.587 311.632 112.587 311.332 112.587C311.232 112.587 311.232 112.587 311.132 112.587H311.032C310.732 112.587 310.432 112.587 310.132 112.587C309.232 112.687 308.332 112.687 307.332 112.787C307.132 112.787 306.832 112.787 306.632 112.887C306.432 112.887 306.232 112.987 305.932 112.987C305.832 112.987 305.832 112.987 305.732 112.987C305.532 112.987 305.432 112.987 305.232 113.087C305.132 113.087 305.032 113.087 304.932 113.087C304.732 113.087 304.632 113.087 304.432 113.187C304.332 113.187 304.232 113.187 304.132 113.187C304.032 113.187 304.032 113.187 303.932 113.187C303.732 113.187 303.532 113.287 303.232 113.287C302.332 113.387 301.432 113.587 300.532 113.787C300.332 113.787 300.132 113.887 299.832 113.887C298.832 114.087 297.832 114.287 296.232 114.687C296.132 114.687 296.032 114.787 295.932 114.787C295.132 114.987 294.332 115.187 293.532 115.487C293.332 115.587 293.132 115.587 292.932 115.687C291.932 115.987 290.832 116.387 289.832 116.687C289.632 116.787 289.432 116.887 289.132 116.887C288.232 117.187 287.232 117.587 285.832 118.087C285.532 118.187 285.132 118.387 284.832 118.487C284.132 118.787 283.432 119.087 282.632 119.387C282.432 119.487 282.132 119.587 281.932 119.687C280.932 120.087 279.932 120.587 278.632 121.187C277.532 121.687 276.432 122.287 275.332 122.887C275.032 122.987 274.832 123.187 274.532 123.287C273.532 123.787 272.632 124.287 271.632 124.887C271.332 125.087 271.032 125.287 270.832 125.487L184.532 225.987C179.832 231.387 177.232 238.387 177.232 245.587L177.432 332.787C177.432 339.187 180.832 344.987 186.332 348.187L221.432 368.487" stroke="#171A21" stroke-width="2" stroke-miterlimit="10" stroke-linecap="round" stroke-linejoin="round"/>
<path d="M355.432 137.387C355.432 137.387 355.532 137.387 355.432 137.387C355.532 137.387 355.432 137.387 355.432 137.387ZM353.832 137.487C353.932 137.487 353.932 137.487 353.832 137.487C353.932 137.487 353.932 137.487 353.832 137.487ZM353.332 137.587C353.332 137.587 353.432 137.587 353.332 137.587C353.432 137.587 353.332 137.587 353.332 137.587ZM352.232 137.687C352.332 137.687 352.332 137.687 352.232 137.687C352.332 137.687 352.332 137.687 352.232 137.687ZM348.432 138.187C348.532 138.187 348.532 138.187 348.432 138.187C348.532 138.187 348.432 138.187 348.432 138.187ZM347.932 138.187C347.932 138.187 348.032 138.187 347.932 138.187C348.032 138.187 347.932 138.187 347.932 138.187ZM346.232 138.487H346.332C346.332 138.487 346.332 138.487 346.232 138.487ZM345.132 138.787C345.132 138.787 345.232 138.787 345.132 138.787C345.232 138.787 345.132 138.787 345.132 138.787ZM344.532 138.887H344.632C344.632 138.887 344.632 138.887 344.532 138.887ZM344.032 138.987C344.032 138.987 344.132 138.987 344.032 138.987C344.132 138.987 344.032 138.987 344.032 138.987ZM342.932 139.287H343.032C342.932 139.187 342.932 139.287 342.932 139.287ZM342.332 139.387H342.432C342.432 139.387 342.432 139.387 342.332 139.387ZM341.232 139.687H341.332C341.232 139.687 341.232 139.687 341.232 139.687ZM340.632 139.787H340.732H340.632ZM338.932 140.287H339.032H338.932ZM338.332 140.487H338.432C338.432 140.387 338.432 140.487 338.332 140.487ZM337.232 140.787H337.332C337.232 140.787 337.232 140.787 337.232 140.787ZM336.632 140.987H336.732H336.632ZM335.432 141.387C335.532 141.387 335.532 141.387 335.432 141.387C335.532 141.387 335.532 141.387 335.432 141.387ZM334.932 141.587H335.032C334.932 141.587 334.932 141.587 334.932 141.587ZM334.332 141.787H334.432C334.432 141.687 334.332 141.787 334.332 141.787ZM333.132 142.187C333.232 142.187 333.232 142.187 333.332 142.087C333.232 142.187 333.132 142.187 333.132 142.187ZM332.532 142.387C332.532 142.387 332.632 142.387 332.632 142.287C332.632 142.387 332.632 142.387 332.532 142.387ZM331.332 142.887C331.332 142.887 331.432 142.887 331.432 142.787C331.432 142.787 331.432 142.887 331.332 142.887ZM330.732 143.087C330.832 143.087 330.832 143.087 330.932 142.987C330.832 143.087 330.832 143.087 330.732 143.087ZM330.232 143.287H330.332H330.232ZM329.532 143.587C329.532 143.587 329.632 143.587 329.632 143.487C329.632 143.487 329.632 143.587 329.532 143.587ZM329.032 143.787C329.132 143.787 329.132 143.787 329.232 143.687C329.132 143.787 329.032 143.787 329.032 143.787ZM328.432 144.087C328.532 144.087 328.532 144.087 328.532 143.987C328.532 143.987 328.532 143.987 328.432 144.087ZM327.132 144.587C327.232 144.587 327.232 144.487 327.332 144.487C327.332 144.487 327.232 144.587 327.132 144.587ZM326.632 144.787C326.732 144.787 326.732 144.787 326.832 144.687C326.732 144.787 326.732 144.787 326.632 144.787ZM325.432 145.387C325.432 145.387 325.532 145.387 325.532 145.287C325.532 145.387 325.432 145.387 325.432 145.387ZM324.832 145.687C324.932 145.687 324.932 145.587 325.032 145.587C324.932 145.587 324.832 145.587 324.832 145.687ZM324.232 145.887C324.232 145.887 324.332 145.887 324.332 145.787C324.332 145.887 324.332 145.887 324.232 145.887ZM323.632 146.287C323.632 146.287 323.732 146.287 323.732 146.187C323.632 146.187 323.632 146.187 323.632 146.287ZM323.032 146.587C323.132 146.587 323.132 146.487 323.232 146.487C323.132 146.487 323.032 146.487 323.032 146.587ZM322.432 146.787C322.532 146.787 322.532 146.687 322.632 146.687C322.532 146.787 322.432 146.787 322.432 146.787ZM321.132 147.487C321.232 147.487 321.232 147.387 321.332 147.387C321.232 147.387 321.232 147.387 321.132 147.487ZM320.632 147.787C320.732 147.787 320.732 147.687 320.832 147.687C320.732 147.687 320.632 147.687 320.632 147.787ZM320.032 148.087C320.032 148.087 320.132 148.087 320.132 147.987C320.132 147.987 320.032 147.987 320.032 148.087ZM319.332 148.387C319.432 148.387 319.432 148.287 319.532 148.287C319.432 148.387 319.332 148.387 319.332 148.387ZM318.732 148.687C318.832 148.687 318.832 148.587 318.932 148.587C318.832 148.687 318.832 148.687 318.732 148.687ZM318.132 148.987C318.132 148.987 318.232 148.987 318.232 148.887C318.232 148.987 318.232 148.987 318.132 148.987ZM317.532 149.387C317.532 149.387 317.632 149.387 317.632 149.287C317.632 149.387 317.532 149.387 317.532 149.387ZM316.932 149.787C317.032 149.787 317.032 149.687 317.132 149.687C317.032 149.687 316.932 149.687 316.932 149.787ZM316.332 150.087C316.432 150.087 316.432 149.987 316.532 149.987C316.432 149.987 316.332 150.087 316.332 150.087ZM315.732 150.387L316.032 259.787L316.332 369.187C368.932 338.787 411.332 265.287 411.232 204.887C411.232 191.087 408.932 179.087 404.832 169.287L316.032 259.887L315.732 150.387Z" fill="#FFD394"/>
<path d="M220.732 260.087L221.032 369.387L316.332 369.187L316.032 259.787L220.732 260.087Z" fill="#2F58FF"/>
<path d="M315.732 150.387L220.732 260.087L316.032 259.787L315.732 150.387Z" fill="#9AF4DC"/>
<path d="M315.732 150.387L316.032 259.787L404.832 169.187C396.532 149.387 380.732 138.187 360.632 137.387C360.132 137.387 359.632 137.387 359.132 137.387C358.932 137.387 358.832 137.387 358.632 137.387C358.332 137.387 357.932 137.387 357.632 137.387C357.432 137.387 357.332 137.387 357.132 137.387C356.632 137.387 356.132 137.387 355.632 137.487C355.632 137.487 355.632 137.487 355.532 137.487C355.332 137.487 355.232 137.487 355.032 137.487C354.732 137.487 354.332 137.487 354.032 137.587C354.032 137.587 354.032 137.587 353.932 137.587C353.732 137.587 353.632 137.587 353.432 137.587C353.432 137.587 353.432 137.587 353.332 137.587C353.032 137.587 352.632 137.687 352.332 137.687C352.132 137.687 352.032 137.687 351.832 137.687H351.732C351.532 137.687 351.432 137.687 351.232 137.787C351.032 137.787 350.832 137.787 350.732 137.887C350.532 137.887 350.432 137.887 350.232 137.987H350.132C349.932 137.987 349.832 137.987 349.632 138.087C349.332 138.087 348.932 138.187 348.632 138.287C348.632 138.287 348.632 138.287 348.532 138.287C348.432 138.287 348.232 138.287 348.132 138.387H348.032C347.732 138.487 347.332 138.487 347.032 138.587C347.032 138.587 347.032 138.587 346.932 138.587C346.832 138.587 346.632 138.687 346.532 138.687H346.432C346.232 138.687 346.132 138.787 345.932 138.787C345.932 138.787 345.932 138.787 345.832 138.787C345.632 138.787 345.432 138.887 345.332 138.887C345.132 138.887 345.032 138.987 344.832 138.987H344.732C344.632 138.987 344.432 139.087 344.332 139.087H344.232C343.832 139.187 343.532 139.287 343.132 139.287H343.032C342.932 139.287 342.732 139.387 342.632 139.387H342.532C342.332 139.387 342.232 139.487 342.032 139.487C341.832 139.487 341.632 139.587 341.532 139.587H341.432C341.332 139.587 341.132 139.687 341.032 139.687H340.932C340.832 139.687 340.632 139.787 340.532 139.787H340.432C340.232 139.787 340.032 139.887 339.932 139.987C339.732 139.987 339.632 140.087 339.432 140.087H339.332C339.232 140.087 339.032 140.187 338.932 140.187H338.832C338.432 140.287 338.132 140.387 337.732 140.487H337.632C337.532 140.487 337.332 140.587 337.232 140.587H337.132C336.932 140.687 336.832 140.687 336.632 140.787C336.432 140.887 336.232 140.887 336.032 140.987C336.032 140.987 336.032 140.987 335.932 140.987C335.732 141.087 335.632 141.087 335.432 141.187H335.332C335.232 141.287 335.032 141.287 334.932 141.387H334.832C334.632 141.487 334.432 141.487 334.332 141.587C334.332 141.587 334.332 141.587 334.232 141.587C334.032 141.687 333.932 141.687 333.732 141.787C333.632 141.787 333.632 141.787 333.532 141.887C333.432 141.887 333.232 141.987 333.132 142.087C333.132 142.087 333.032 142.087 333.032 142.187C332.832 142.287 332.632 142.287 332.532 142.387C332.332 142.487 332.132 142.487 332.032 142.587C332.032 142.587 331.932 142.587 331.932 142.687C331.832 142.787 331.632 142.787 331.532 142.887C331.432 142.887 331.432 142.887 331.332 142.987C331.232 143.087 331.032 143.087 330.932 143.187H330.832C330.632 143.287 330.432 143.287 330.332 143.387C330.332 143.387 330.232 143.387 330.232 143.487C330.132 143.587 329.932 143.587 329.832 143.687C329.732 143.687 329.732 143.687 329.632 143.787C329.532 143.887 329.332 143.887 329.232 143.987C329.132 143.987 329.132 143.987 329.132 144.087C328.932 144.187 328.732 144.287 328.632 144.287C328.432 144.387 328.332 144.387 328.132 144.487C328.032 144.487 328.032 144.587 327.932 144.587C327.832 144.687 327.632 144.687 327.532 144.787C327.432 144.787 327.432 144.787 327.332 144.887C327.132 144.987 327.032 144.987 326.832 145.087C326.632 145.187 326.432 145.287 326.232 145.387C326.232 145.387 326.132 145.387 326.132 145.487C326.032 145.587 325.832 145.587 325.732 145.687C325.632 145.687 325.632 145.787 325.532 145.787C325.432 145.887 325.232 145.887 325.132 145.987C325.132 145.987 325.032 145.987 325.032 146.087C324.832 146.187 324.632 146.287 324.532 146.387C324.532 146.387 324.432 146.387 324.432 146.487C324.332 146.587 324.132 146.587 324.032 146.687C323.932 146.687 323.932 146.787 323.832 146.787C323.732 146.887 323.532 146.887 323.432 146.987C323.332 146.987 323.332 147.087 323.232 147.087C323.032 147.187 322.832 147.287 322.632 147.387C322.432 147.487 322.232 147.587 322.132 147.687C322.032 147.687 322.032 147.787 321.932 147.787C321.832 147.887 321.632 147.887 321.532 147.987C321.432 147.987 321.432 148.087 321.332 148.087C321.232 148.187 321.032 148.287 320.932 148.287C320.932 148.287 320.832 148.287 320.832 148.387C320.632 148.487 320.432 148.587 320.332 148.687C320.232 148.687 320.232 148.787 320.132 148.787C320.032 148.887 319.832 148.887 319.732 148.987C319.632 148.987 319.632 149.087 319.532 149.087C319.432 149.187 319.232 149.287 319.132 149.287C319.132 149.287 319.032 149.287 319.032 149.387C318.832 149.487 318.632 149.587 318.432 149.687C318.432 149.687 318.332 149.687 318.332 149.787C318.132 149.887 318.032 149.987 317.832 150.087C317.732 150.087 317.732 150.187 317.632 150.187C317.532 150.287 317.332 150.387 317.232 150.387C317.132 150.387 317.132 150.487 317.032 150.487C316.132 150.187 315.932 150.287 315.732 150.387Z" fill="#FB7070"/>
</svg>
