<svg width="533" height="523" viewBox="0 0 533 523" fill="none" xmlns="http://www.w3.org/2000/svg">
<path d="M134.732 399.187L156.832 386.487C156.832 386.487 156.832 386.487 156.932 386.487H157.032C157.232 386.387 157.332 386.287 157.532 386.287H157.632C157.632 386.287 157.632 386.287 157.732 386.287C157.932 386.187 158.132 386.187 158.332 386.087C158.532 385.987 158.732 385.987 158.932 385.987C158.932 385.987 158.932 385.987 159.032 385.987H159.132C159.332 385.987 159.532 385.887 159.732 385.887H159.832C160.032 385.887 160.332 385.887 160.532 385.887C160.532 385.887 160.532 385.887 160.632 385.887H160.732C161.032 385.887 161.332 385.887 161.532 385.987C161.832 386.087 162.232 386.087 162.632 386.187C162.632 386.187 162.632 386.187 162.732 386.187C162.932 386.287 163.132 386.287 163.432 386.387C163.432 386.387 163.532 386.387 163.532 386.487C163.732 386.587 163.932 386.587 164.032 386.687C164.032 386.687 164.032 386.687 164.132 386.687C164.132 386.687 164.232 386.687 164.232 386.787C164.432 386.887 164.632 386.987 164.832 387.087C164.932 387.087 165.032 387.187 165.032 387.187C165.332 387.287 165.532 387.487 165.832 387.587C166.132 387.787 166.532 387.987 166.832 388.187C166.932 388.287 167.032 388.287 167.132 388.387C167.332 388.587 167.632 388.687 167.832 388.887C167.932 388.987 168.032 389.087 168.132 389.187C168.332 389.387 168.532 389.587 168.832 389.687C168.932 389.787 169.032 389.887 169.132 389.987C169.432 390.187 169.632 390.487 169.932 390.687L170.032 390.787C170.132 390.887 170.132 390.887 170.232 390.987C170.432 391.187 170.632 391.387 170.832 391.587C170.932 391.687 171.032 391.787 171.132 391.887C171.232 391.987 171.332 392.087 171.432 392.287L171.532 392.387C171.732 392.587 171.832 392.787 172.032 392.987L174.932 391.287C174.932 391.287 175.032 391.287 175.032 391.187C175.032 391.187 175.132 391.187 175.132 391.087C175.332 390.987 175.532 390.887 175.732 390.787C175.732 390.787 175.832 390.787 175.832 390.687H175.932C176.132 390.587 176.332 390.487 176.632 390.487H176.732C177.032 390.387 177.232 390.387 177.532 390.287H177.632H177.732C177.932 390.287 178.232 390.187 178.432 390.187H178.532C178.532 390.187 178.532 390.187 178.632 390.187C178.932 390.187 179.232 390.187 179.632 390.187C179.632 390.187 179.632 390.187 179.732 390.187H179.832C180.132 390.187 180.532 390.287 180.832 390.287H180.932C181.032 390.287 181.132 390.287 181.232 390.387C181.432 390.387 181.532 390.487 181.732 390.487C181.832 390.487 181.932 390.587 182.032 390.587C182.132 390.587 182.232 390.687 182.332 390.687H182.432C182.732 390.787 182.932 390.887 183.232 390.887H183.332C183.632 390.987 183.932 391.087 184.232 391.187C184.232 391.187 184.232 391.187 184.332 391.187C184.432 391.187 184.432 391.187 184.532 391.287C184.832 391.387 185.132 391.587 185.432 391.687C185.532 391.687 185.632 391.787 185.732 391.787C186.132 391.987 186.432 392.187 186.832 392.387C187.232 392.687 187.732 392.887 188.132 393.187C188.232 393.287 188.332 393.287 188.332 393.287C188.732 393.587 189.132 393.887 189.532 394.187C189.632 394.287 189.732 394.287 189.732 394.387C190.132 394.687 190.532 395.087 190.932 395.387L191.032 395.487C191.432 395.787 191.832 396.187 192.132 396.587L192.232 396.687L192.332 396.787C192.632 397.087 192.832 397.287 193.132 397.587C193.132 397.587 193.132 397.587 193.232 397.687C193.532 397.987 193.832 398.287 194.032 398.587C194.032 398.587 194.032 398.587 194.132 398.687L194.232 398.787C194.632 399.287 195.032 399.787 195.432 400.287C195.432 400.287 195.432 400.387 195.532 400.387C195.832 400.787 196.132 401.187 196.432 401.687L196.532 401.787C196.532 401.787 196.532 401.887 196.632 401.887C196.932 402.287 197.232 402.687 197.432 403.187C197.432 403.187 197.432 403.287 197.532 403.287C197.532 403.387 197.632 403.387 197.632 403.487C197.832 403.787 198.032 404.187 198.232 404.487C198.232 404.587 198.332 404.587 198.332 404.687C198.332 404.687 198.332 404.787 198.432 404.787C198.632 405.187 198.932 405.587 199.132 405.987C199.132 405.987 199.132 405.987 199.132 406.087C199.132 406.187 199.232 406.187 199.232 406.287C199.432 406.587 199.632 406.987 199.732 407.287C199.732 407.387 199.832 407.387 199.832 407.487C199.832 407.587 199.832 407.587 199.932 407.687C200.132 408.087 200.332 408.587 200.532 408.987C200.732 409.387 200.932 409.887 201.032 410.287C201.032 410.387 201.032 410.387 201.132 410.487C201.132 410.587 201.132 410.587 201.232 410.687C201.432 411.187 201.532 411.587 201.732 412.087C201.932 412.587 202.032 413.087 202.232 413.587C202.232 413.687 202.232 413.687 202.332 413.787V413.887C202.532 414.487 202.632 414.987 202.732 415.587V415.687C202.732 415.787 202.732 415.887 202.732 415.887C202.732 416.087 202.832 416.287 202.832 416.587C202.832 416.787 202.932 416.887 202.932 417.087C202.932 417.287 203.032 417.587 203.032 417.787C203.032 417.887 203.032 417.987 203.032 418.087V418.187C203.132 418.687 203.132 419.187 203.132 419.687C203.132 419.787 203.132 419.887 203.132 419.987C203.132 420.487 203.132 420.987 203.132 421.487C203.532 421.787 203.832 422.087 204.232 422.387C204.332 422.487 204.432 422.587 204.532 422.687C204.732 422.887 205.032 423.087 205.232 423.287L205.332 423.387C205.632 423.687 205.932 423.987 206.132 424.287C206.232 424.387 206.332 424.487 206.332 424.587C206.432 424.687 206.532 424.787 206.532 424.887C206.632 424.987 206.732 425.087 206.832 425.187C207.032 425.387 207.232 425.587 207.432 425.887C207.532 425.987 207.532 426.087 207.632 426.087C207.732 426.187 207.832 426.387 207.932 426.487C208.032 426.687 208.232 426.887 208.332 427.087C208.432 427.187 208.432 427.287 208.532 427.287C208.632 427.487 208.732 427.587 208.832 427.787C208.932 427.987 209.032 428.087 209.132 428.287C209.132 428.387 209.232 428.387 209.232 428.487C209.432 428.687 209.532 428.987 209.632 429.187C209.732 429.287 209.732 429.387 209.832 429.487C209.832 429.487 209.832 429.487 209.832 429.587C210.032 429.987 210.232 430.287 210.432 430.687V430.787C210.532 430.887 210.532 430.987 210.632 431.087C210.732 431.287 210.832 431.587 211.032 431.787C211.032 431.887 211.132 431.987 211.132 432.087C211.232 432.187 211.232 432.387 211.332 432.487C211.432 432.587 211.432 432.787 211.532 432.887C211.632 433.087 211.632 433.187 211.732 433.387C211.832 433.487 211.832 433.687 211.932 433.787C211.932 433.887 212.032 433.987 212.032 433.987C212.132 434.187 212.232 434.487 212.332 434.687C212.332 434.787 212.432 434.987 212.432 435.087V435.187C212.532 435.587 212.632 435.887 212.732 436.287C212.732 436.387 212.732 436.387 212.732 436.487C212.732 436.687 212.832 436.787 212.832 436.987C212.932 437.287 213.032 437.587 213.032 437.887C213.132 438.287 213.232 438.687 213.232 439.087C213.232 439.187 213.232 439.287 213.232 439.387C213.232 439.487 213.232 439.587 213.232 439.687C213.232 439.887 213.232 440.087 213.332 440.387C213.332 440.487 213.332 440.687 213.332 440.787C213.332 441.187 213.332 441.687 213.332 442.087C213.332 445.987 211.932 448.787 209.632 450.087L198.132 456.787" fill="#FB7070"/>
<path d="M175.332 398.487C169.232 394.987 163.832 395.487 160.732 399.587C158.732 396.987 156.432 394.887 154.032 393.587C147.632 389.887 142.332 392.287 141.432 398.687C135.332 396.287 130.532 399.587 130.432 406.887C130.432 414.987 136.232 424.887 143.332 428.987L190.032 455.987C197.032 460.087 202.932 456.887 202.932 448.787C202.932 441.587 198.232 432.787 192.232 428.087C192.332 417.087 184.732 403.987 175.332 398.487Z" fill="#FFD394"/>
</svg>
