<svg width="533" height="523" viewBox="0 0 533 523" fill="none" xmlns="http://www.w3.org/2000/svg">
<path d="M438.532 140.187C438.632 140.187 438.632 140.187 438.532 140.187C438.632 140.187 438.632 140.187 438.532 140.187ZM437.232 93.6869C436.732 93.9869 436.432 94.7869 436.432 95.8869L436.332 135.387C436.332 137.287 437.332 139.387 438.632 140.187C438.032 139.787 437.432 139.087 437.032 138.287L457.432 127.787L437.232 93.6869C437.132 93.7869 437.132 93.7869 437.232 93.6869ZM486.432 122.187C486.432 122.287 486.532 122.287 486.532 122.387L466.132 132.887L486.432 166.887C486.032 167.187 485.432 167.287 484.832 166.987C486.132 167.687 487.132 166.687 487.132 164.787L487.232 125.287C487.232 124.187 486.932 123.087 486.432 122.187ZM486.332 122.087C486.432 122.087 486.432 122.087 486.332 122.087C486.432 122.087 486.432 122.087 486.332 122.087ZM485.332 120.687C485.332 120.787 485.332 120.787 485.332 120.687C485.332 120.787 485.332 120.787 485.332 120.687ZM485.232 120.587C485.232 120.587 485.232 120.687 485.232 120.587C485.232 120.687 485.232 120.587 485.232 120.587ZM485.132 120.487C485.132 120.587 485.132 120.587 485.132 120.487C485.132 120.587 485.132 120.587 485.132 120.487ZM484.932 120.487C485.032 120.487 485.032 120.487 484.932 120.487C485.032 120.487 485.032 120.487 484.932 120.487ZM438.732 93.6869C438.732 93.6869 438.632 93.6869 438.732 93.6869C438.632 93.6869 438.732 93.6869 438.732 93.6869Z" fill="#FB7070"/>
<path d="M457.432 127.787L458.532 129.587C459.532 131.187 460.632 132.387 461.732 132.987C462.832 133.687 464.032 133.787 464.932 133.287L466.032 132.687L486.332 166.687C485.932 166.987 485.332 167.087 484.732 166.787C484.732 166.787 484.732 166.787 484.632 166.787L438.632 140.287C438.632 140.287 438.632 140.287 438.532 140.287C437.932 139.887 437.332 139.187 436.932 138.387L457.432 127.787Z" fill="#FFD394"/>
<path d="M438.832 93.7869L484.832 120.287C484.832 120.287 484.832 120.287 484.932 120.287C484.932 120.287 484.932 120.287 485.032 120.287C485.032 120.287 485.032 120.287 485.132 120.387C485.132 120.387 485.132 120.387 485.232 120.487C485.432 120.787 485.732 121.087 485.932 121.387C485.932 121.387 485.932 121.387 485.932 121.487C485.932 121.487 485.932 121.487 485.932 121.587C485.932 121.687 486.032 121.687 486.032 121.787L465.632 132.287L464.532 132.887C463.532 133.387 462.432 133.287 461.332 132.587C460.232 131.887 459.032 130.787 458.132 129.187L457.032 127.387L436.732 93.3869C436.732 93.3869 436.832 93.3869 436.832 93.2869C437.032 93.1869 437.232 93.1869 437.532 93.1869C437.532 93.1869 437.532 93.1869 437.632 93.1869C437.632 93.1869 437.632 93.1869 437.732 93.1869C437.732 93.1869 437.732 93.1869 437.832 93.1869C438.732 93.6869 438.732 93.6869 438.832 93.7869C438.732 93.7869 438.732 93.7869 438.832 93.7869C438.732 93.7869 438.832 93.7869 438.832 93.7869Z" fill="white"/>
<path d="M437.133 93.7869C437.233 93.6869 437.233 93.6869 437.133 93.7869C437.233 93.6869 437.233 93.6869 437.233 93.6869C437.433 93.5869 437.633 93.5869 437.933 93.5869C437.933 93.5869 437.933 93.5869 438.033 93.5869C438.033 93.5869 438.033 93.5869 438.133 93.5869C438.133 93.5869 438.133 93.5869 438.233 93.5869C438.233 93.5869 438.233 93.5869 438.333 93.5869" stroke="#171A21" stroke-width="2" stroke-miterlimit="10" stroke-linecap="round" stroke-linejoin="round"/>
<path d="M438.832 93.7869L484.832 120.287C484.832 120.287 484.832 120.287 484.932 120.287C484.932 120.287 484.932 120.287 485.032 120.287C485.032 120.287 485.032 120.287 485.132 120.387C485.132 120.387 485.132 120.387 485.232 120.487C485.432 120.787 485.732 121.087 485.932 121.387C485.932 121.387 485.932 121.387 485.932 121.487C485.932 121.487 485.932 121.487 485.932 121.587C485.932 121.687 486.032 121.687 486.032 121.787" stroke="#171A21" stroke-width="2" stroke-miterlimit="10" stroke-linecap="round" stroke-linejoin="round"/>
</svg>
