<svg width="533" height="523" viewBox="0 0 533 523" fill="none" xmlns="http://www.w3.org/2000/svg">
<path d="M1.53097 219.687C0.630967 221.087 -0.169033 223.287 0.0309669 224.987C0.330967 227.187 11.931 249.787 16.331 258.787C28.531 283.887 40.831 308.887 53.031 333.987C54.331 336.687 55.731 339.487 57.031 342.187C57.631 343.387 57.831 344.587 59.131 345.087C61.331 346.087 65.131 345.487 67.531 345.687C64.031 345.487 61.531 337.087 60.331 334.787C55.531 325.087 50.731 315.287 45.931 305.587C35.031 283.587 24.131 261.487 13.231 239.487C11.931 236.887 10.531 234.287 9.33097 231.587C9.03097 230.887 8.73097 230.287 8.43097 229.587C7.83097 227.987 7.93097 227.887 9.03097 226.987C9.43097 226.687 12.631 224.987 12.331 224.587C12.231 224.387 9.73097 225.287 9.23097 225.187C7.83097 224.987 7.93097 224.687 8.13097 223.187C8.33097 221.787 9.03097 220.587 9.83097 219.487C12.531 215.287 15.331 211.187 18.131 207.087C26.831 194.187 35.431 181.187 44.131 168.287C45.431 166.287 47.831 160.987 50.831 161.087C47.031 160.887 42.331 159.387 39.531 162.587C37.331 165.187 35.631 168.387 33.731 171.287C25.231 183.987 16.731 196.787 8.23097 209.487C6.03097 212.787 3.63097 216.187 1.53097 219.687Z" fill="#FB7070"/>
<path d="M8.8314 230.987L64.4314 343.287C66.0314 346.387 68.8314 346.587 70.7314 343.687L108.831 286.887C110.731 283.987 111.131 279.087 109.531 275.887L54.0314 163.587C52.4314 160.387 49.6314 160.287 47.7314 163.187L9.5314 219.987C7.6314 222.887 7.3314 227.787 8.8314 230.987Z" fill="white"/>
<path d="M64.4305 343.287C66.0305 346.387 68.8305 346.587 70.7305 343.687L108.83 286.887C110.73 283.987 111.13 279.087 109.53 275.887L54.0305 163.587C52.4305 160.387 49.6305 160.287 47.7305 163.187" stroke="#171A21" stroke-width="2" stroke-miterlimit="10" stroke-linecap="round" stroke-linejoin="round"/>
<path d="M16.9305 230.987L59.5304 316.987C60.6304 319.187 62.6304 319.387 64.0304 317.287L94.9305 271.187C96.3305 269.087 96.5304 265.687 95.4305 263.487L52.8305 177.487C51.7305 175.287 49.7305 175.087 48.3305 177.187L17.4305 223.287C16.0305 225.287 15.8305 228.787 16.9305 230.987Z" fill="#FB7070"/>
<path d="M79.0307 309.887C79.8307 311.487 81.2307 311.587 82.2307 310.087L88.0307 301.387C89.0307 299.887 89.1307 297.487 88.4307 295.887C87.7307 294.287 86.2307 294.187 85.2307 295.687L79.4307 304.387C78.3307 305.787 78.2307 308.287 79.0307 309.887Z" fill="#2F58FF"/>
<path d="M55.5297 275.587L74.4297 247.687C75.4297 246.187 77.6297 246.287 78.4297 247.987L79.5297 250.187C80.6297 252.387 80.4297 255.087 79.1297 257.187L60.2297 285.087C59.2297 286.587 57.0297 286.487 56.2297 284.887L55.1297 282.687C54.0297 280.387 54.1297 277.687 55.5297 275.587Z" fill="#FFD394"/>
<path d="M62.1293 288.787L81.0293 260.887C82.0293 259.387 84.2293 259.487 85.0293 261.187L86.1293 263.387C87.2293 265.587 87.0294 268.287 85.7294 270.387L66.8294 298.287C65.8294 299.787 63.6294 299.687 62.8294 298.087L61.7293 295.887C60.5293 293.687 60.7293 290.987 62.1293 288.787Z" fill="#FFD394"/>
<path d="M29.5301 220.587L46.9301 194.787C48.2301 192.887 51.1301 192.987 52.2301 195.087L70.9301 232.487C72.4301 235.487 72.1301 238.987 70.3301 241.687L52.9301 267.687C51.6301 269.587 48.7301 269.487 47.6301 267.387L28.9301 229.787C27.4301 226.887 27.6301 223.387 29.5301 220.587Z" fill="#FFD394"/>
</svg>
