<svg width="144" height="144" viewBox="0 0 144 144" fill="none" xmlns="http://www.w3.org/2000/svg">
<path d="M11.0996 89.1V95.3C11.0996 95.6 11.2996 96 11.7996 96.2L86.7996 139.5C86.8996 139.6 86.9996 139.6 87.0996 139.7C87.0996 139.7 87.0996 139.7 87.1996 139.7C87.2996 139.7 87.2996 139.7 87.3996 139.8H87.4996C87.4996 139.8 87.4996 139.8 87.5996 139.8C87.5996 139.8 87.5996 139.8 87.6996 139.8C87.7996 139.8 87.7996 139.8 87.8996 139.8H87.9996C87.9996 139.8 87.9996 139.8 88.0996 139.8H88.1996C88.2996 139.8 88.9996 139.8 88.9996 139.8C89.0996 139.8 89.0996 139.8 89.1996 139.8H89.2996C89.3996 139.8 89.4996 139.8 89.4996 139.7H89.5996H89.6996H89.7996C89.8996 139.7 89.9996 139.6 90.0996 139.6L135 113.5C135.1 113.4 135.2 113.4 135.2 113.3C135.3 113.3 135.3 113.2 135.3 113.1C135.3 113.1 135.1 113.1 135.1 113C135.1 113 135 112.7 135 112.6V110.1L135.2 106.4C135.2 106.5 135.4 106.6 135.3 106.6C135.3 106.7 135.2 106.7 135.2 106.8C135.1 106.9 135.1 106.9 135 107" stroke="#171A21" stroke-width="2" stroke-miterlimit="10" stroke-linecap="round" stroke-linejoin="round"/>
<path d="M59.6 62C58.7 61.5 58 60.3 58 59.2L58.1 7.29999C58.1 6.79999 58.3 6.39999 58.6 6.29999C59.8 5.59999 61.8 4.39999 61.8 4.39999C61.9 4.39999 62 4.29999 62.2 4.29999C62.3 4.29999 62.4 4.29999 62.5 4.29999C62.7 4.39999 62.8 4.39999 63 4.49999L138 47.8C138.5 48.1 138.8 48.5 139.1 49C139.2 49.2 139.6 49.8 139.6 50.5C139.6 51.2 139.3 100.7 139.3 101.5C139.3 102.2 139.2 103.5 138.7 103.8L135.9 105.4" fill="white"/>
<path d="M59.6 62C58.7 61.5 58 60.3 58 59.2L58.1 7.29999C58.1 6.79999 58.3 6.39999 58.6 6.29999C59.8 5.59999 61.8 4.39999 61.8 4.39999C61.9 4.39999 62 4.29999 62.2 4.29999C62.3 4.29999 62.4 4.29999 62.5 4.29999C62.7 4.39999 62.8 4.39999 63 4.49999L138 47.8C138.5 48.1 138.8 48.5 139.1 49C139.2 49.2 139.6 49.8 139.6 50.5C139.6 51.2 139.3 100.7 139.3 101.5C139.3 102.2 139.2 103.5 138.7 103.8L135.9 105.4" stroke="#171A21" stroke-width="2" stroke-miterlimit="10" stroke-linecap="round" stroke-linejoin="round"/>
<path d="M133.3 104C135.7 105.4 135.7 107.6 133.3 109L90.1004 134.1C89.3004 134.6 88.0004 134.6 87.2004 134.1L13.2004 91.4C10.8004 90 10.8004 87.8 13.2004 86.4L56.4004 61.3C57.2004 60.8 58.5004 60.8 59.3004 61.3L133.3 104Z" fill="#FB7070"/>
<path d="M82.8 105.6L59.7 92.2C59.1 91.9 58.2 91.9 57.6 92.2L44.2 100C43.6 100.3 43.6 100.9 44.2 101.2L67.4 114.6C68 114.9 68.9 114.9 69.5 114.6L82.8 106.8C83.4 106.5 83.4 105.9 82.8 105.6Z" stroke="white" stroke-width="2" stroke-miterlimit="10"/>
<path d="M63.5004 16.5L63.4004 55.4C63.4004 56.8 64.1004 58 65.3004 58.7L130.8 96.5C131.6 97 132.7 96.4 132.7 95.4L132.8 56.5C132.8 55.1 132.1 53.9 130.9 53.2L65.4004 15.4C64.6004 14.9 63.5004 15.5 63.5004 16.5Z" fill="#FEE2E2" stroke="#171A21" stroke-width="2" stroke-miterlimit="10" stroke-linecap="round" stroke-linejoin="round"/>
<path d="M110.899 23.8L83.3992 8.10002C81.2992 6.90002 78.7992 8.40002 78.7992 10.8L78.6992 53.2C78.6992 56.6 80.4992 59.7 83.3992 61.3L110.999 77.1C113.099 78.3 115.599 76.8 115.599 74.4V31.9C115.699 28.6 113.899 25.5 110.899 23.8Z" fill="#FB7070"/>
<path d="M22.7992 63.4C22.7992 63.5 22.7992 63.6 22.8992 63.6C22.8992 63.7 22.9992 63.7 22.9992 63.8L23.0992 63.9C23.0992 63.9 23.0992 63.9 23.0992 64C23.0992 64 23.1992 64.1 23.2992 64.1L16.2992 60C16.1992 60 16.1992 59.9 16.0992 59.9C16.0992 59.9 16.0992 59.9 16.0992 59.8L15.9992 59.7C15.9992 59.7 15.9992 59.7 15.9992 59.6V59.5V59.4V59.3C15.9992 59.3 15.9992 59.3 15.9992 59.2L15.1992 55L22.1992 59.1L22.7992 63.4Z" fill="white"/>
<path d="M23.0992 64C23.0992 64 23.1992 64.1 23.2992 64.1L16.2992 60C16.1992 60 16.1992 59.9 16.0992 59.9C16.0992 59.9 16.0992 59.9 16.0992 59.8L15.9992 59.7C15.9992 59.7 15.9992 59.7 15.9992 59.6V59.5V59.4V59.3C15.9992 59.3 15.9992 59.3 15.9992 59.2L15.1992 55" stroke="#171A21" stroke-width="2" stroke-miterlimit="10" stroke-linecap="round" stroke-linejoin="round"/>
<path d="M23.6 51.2C23.4 51.2 23.3 51.1 23.1 51.1C23 51.1 23 51 22.9 51H22.8C22.7 51 22.6 50.9 22.5 50.9L15.5 46.8C15.6 46.9 15.7 46.9 15.8 46.9H15.9C16 46.9 16 47 16.1 47C16.1 47 16.1 47 16.2 47C16.4 47.1 16.5 47.1 16.7 47.1C16.8 47.1 16.9 47.1 17 47.1H17.1C17.2 47.1 17.3 47.1 17.3 47.1H17.4C17.5 47.1 17.5 47.1 17.6 47.1C17.7 47.1 17.7 47.1 17.8 47.1C17.9 47.1 17.9 47.1 18 47.1C18.1 47.1 18.1 47.1 18.2 47.1H18.3C18.4 47.1 18.4 47.1 18.5 47.1H18.6C18.7 47.1 18.7 47.1 18.8 47H18.9C19 47 19 47 19.1 46.9H19.2C19.3 46.9 19.4 46.8 19.5 46.8C19.6 46.8 19.7 46.7 19.8 46.7H19.9C20 46.7 20.1 46.6 20.1 46.6C20.1 46.6 20.2 46.6 20.2 46.5C20.3 46.4 20.4 46.4 20.5 46.3C20.7 46.2 21 46 21.2 45.8C21.4 45.6 21.6 45.5 21.9 45.3C21.9 45.3 21.9 45.3 22 45.2C22.2 45 22.4 44.8 22.6 44.7C22.6 44.7 22.6 44.7 22.7 44.6C22.9 44.4 23.1 44.2 23.3 44C23.3 44 23.3 44 23.4 43.9C23.6 43.7 23.8 43.4 24 43.2C24.2 43 24.4 42.7 24.6 42.4C24.8 42.2 24.9 41.9 25.1 41.7C25.2 41.5 25.3 41.4 25.4 41.2C25.5 41.1 25.6 40.9 25.6 40.8C25.6 40.7 25.7 40.7 25.7 40.6C25.8 40.4 26 40.1 26.1 39.9V39.8C26.2 39.5 26.4 39.2 26.5 38.9C26.6 38.6 26.7 38.3 26.8 38.1C26.8 38.1 26.8 38.1 26.8 38C26.9 37.7 27 37.4 27.1 37.1C27.1 37.1 27.1 37.1 27.1 37C27.2 36.7 27.3 36.4 27.3 36.2V36.1C27.4 35.8 27.4 35.5 27.5 35.2C27.5 34.9 27.6 34.6 27.6 34.3C27.6 34.3 27.6 34.3 27.6 34.2C27.6 33.9 27.6 33.6 27.6 33.3C27.6 33 27.6 32.8 27.6 32.5C27.6 32.5 27.6 32.5 27.6 32.4C27.6 32.2 27.5 31.9 27.5 31.7V31.6C27.5 31.4 27.4 31.2 27.3 31V30.9C27.2 30.7 27.2 30.5 27.1 30.4C27.1 30.4 27.1 30.4 27.1 30.3C27 30.1 26.9 29.9 26.8 29.8C26.8 29.8 26.8 29.8 26.8 29.7C26.7 29.6 26.6 29.4 26.5 29.3L26.4 29.2C26.3 29.1 26.2 29 26.1 28.9L26 28.8C25.9 28.7 25.7 28.6 25.6 28.5L32.6 32.6C32.7 32.7 32.9 32.8 33 32.9L33.1 33C33.2 33.1 33.3 33.2 33.4 33.3L33.5 33.4C33.6 33.5 33.7 33.6 33.8 33.8C33.8 33.8 33.8 33.8 33.8 33.9C33.9 34.1 34 34.2 34.1 34.4C34.1 34.4 34.1 34.4 34.1 34.5C34.2 34.6 34.2 34.7 34.2 34.8C34.2 34.9 34.2 34.9 34.3 35V35.1V35.2C34.3 35.3 34.4 35.4 34.4 35.6V35.7V35.8V35.9C34.4 36 34.4 36.1 34.5 36.3C34.5 36.4 34.5 36.4 34.5 36.5C34.5 36.5 34.5 36.5 34.5 36.6V36.7C34.5 36.8 34.5 36.9 34.5 37C34.5 37.1 34.5 37.2 34.5 37.4C34.5 37.5 34.5 37.6 34.5 37.7C34.5 37.8 34.5 37.9 34.5 38.1C34.5 38.2 34.5 38.2 34.5 38.3C34.5 38.3 34.5 38.3 34.5 38.4V38.5C34.5 38.6 34.5 38.7 34.5 38.9C34.5 39 34.5 39.1 34.4 39.3C34.4 39.4 34.4 39.5 34.3 39.6C34.3 39.7 34.3 39.9 34.2 40V40.1V40.2C34.2 40.3 34.2 40.3 34.2 40.4C34.2 40.5 34.1 40.7 34.1 40.8C34.1 40.9 34 41 34 41.1C34 41.1 34 41.1 34 41.2C34 41.2 34 41.2 34 41.3C34 41.4 33.9 41.6 33.9 41.7C33.9 41.8 33.8 42 33.8 42.1C33.8 42.1 33.8 42.1 33.8 42.2C33.8 42.2 33.8 42.2 33.8 42.3C33.8 42.4 33.7 42.5 33.7 42.5C33.7 42.6 33.6 42.7 33.6 42.9C33.6 43 33.5 43.1 33.5 43.2C33.4 43.3 33.4 43.4 33.3 43.6C33.2 43.7 33.2 43.9 33.1 44C33.1 44 33.1 44 33.1 44.1V44.2C33 44.3 33 44.4 32.9 44.5C32.8 44.6 32.8 44.8 32.7 44.9C32.7 45 32.6 45 32.6 45.1V45.2C32.5 45.3 32.5 45.4 32.4 45.5C32.3 45.7 32.2 45.8 32.1 46V46.1C31.9 46.3 31.8 46.5 31.6 46.8C31.5 46.9 31.4 47.1 31.3 47.2C31.2 47.3 31.1 47.4 31 47.5C30.9 47.6 30.8 47.7 30.7 47.8C30.6 47.9 30.5 48 30.4 48.1C30.4 48.1 30.4 48.1 30.3 48.2C30.2 48.3 30.2 48.3 30.1 48.4C30 48.5 29.9 48.6 29.8 48.7L29.7 48.8C29.7 48.8 29.7 48.8 29.6 48.9C29.5 48.9 29.5 49 29.4 49C29.3 49.1 29.2 49.2 29.1 49.3L29 49.4C29 49.4 29 49.4 28.9 49.5L28.8 49.6C28.7 49.7 28.6 49.8 28.5 49.8C28.4 49.9 28.3 49.9 28.3 50C28.2 50.1 28.1 50.1 28 50.2C27.9 50.3 27.8 50.3 27.7 50.4C27.7 50.4 27.7 50.4 27.6 50.4C27.5 50.4 27.4 50.5 27.4 50.5H27.3C27.3 50.5 27.2 50.5 27.2 50.6H27.1C27 50.6 27 50.6 26.9 50.7H26.8C26.7 50.7 26.6 50.8 26.5 50.8C26.4 50.8 26.3 50.9 26.2 50.9H26.1H26H25.9H25.8H25.7H25.6H25.5C25.5 50.9 25.5 50.9 25.4 50.9H25.3H25.2C25.2 50.9 25.2 50.9 25.1 50.9H25C24.9 50.9 24.9 50.9 24.8 50.9H24.7C24.6 50.9 24.6 50.9 24.5 50.9C24.5 50.9 24.5 50.9 24.4 50.9H24.3C24.2 50.9 24.1 50.9 24.1 50.9C24.1 50.9 24.1 50.9 24 50.9C24 50.9 24 50.9 23.9 50.9C23.9 51.2 23.7 51.2 23.6 51.2Z" fill="#FEE2E2"/>
<path d="M15.5 46.7C15.6 46.8 15.7 46.8 15.8 46.8H15.9C16 46.8 16 46.9 16.1 46.9C16.1 46.9 16.1 46.9 16.2 46.9C16.4 47 16.5 47 16.7 47C16.8 47 16.9 47 17 47H17.1C17.2 47 17.3 47 17.3 47H17.4C17.5 47 17.5 47 17.6 47C17.7 47 17.7 47 17.8 47C17.9 47 17.9 47 18 47C18.1 47 18.1 47 18.2 47H18.3C18.4 47 18.4 47 18.5 47H18.6C18.7 47 18.7 47 18.8 46.9H18.9C19 46.9 19 46.9 19.1 46.8H19.2C19.3 46.8 19.4 46.7 19.5 46.7C19.6 46.7 19.7 46.6 19.8 46.6H19.9C20 46.6 20.1 46.5 20.1 46.5C20.1 46.5 20.2 46.5 20.2 46.4C20.3 46.3 20.4 46.3 20.5 46.2C20.7 46.1 21 45.9 21.2 45.7C21.4 45.5 21.6 45.4 21.9 45.2C21.9 45.2 21.9 45.2 22 45.1C22.2 44.9 22.4 44.7 22.6 44.6C22.6 44.6 22.6 44.6 22.7 44.5C22.9 44.3 23.1 44.1 23.3 43.9C23.3 43.9 23.3 43.9 23.4 43.8C23.6 43.6 23.8 43.3 24 43.1C24.2 42.9 24.4 42.6 24.6 42.3C24.8 42.1 24.9 41.8 25.1 41.6C25.2 41.4 25.3 41.3 25.4 41.1C25.5 41 25.6 40.8 25.6 40.7C25.6 40.6 25.7 40.6 25.7 40.5C25.8 40.3 26 40 26.1 39.8V39.7C26.2 39.4 26.4 39.1 26.5 38.8C26.6 38.5 26.7 38.2 26.8 38C26.8 38 26.8 38 26.8 37.9C26.9 37.6 27 37.3 27.1 37C27.1 37 27.1 37 27.1 36.9C27.2 36.6 27.3 36.3 27.3 36.1V36C27.4 35.7 27.4 35.4 27.5 35.1C27.5 34.8 27.6 34.5 27.6 34.2C27.6 34.2 27.6 34.2 27.6 34.1C27.6 33.8 27.6 33.5 27.6 33.2C27.6 32.9 27.6 32.7 27.6 32.4C27.6 32.4 27.6 32.4 27.6 32.3C27.6 32.1 27.5 31.8 27.5 31.6V31.5C27.5 31.3 27.4 31.1 27.3 30.9V30.8C27.2 30.6 27.2 30.4 27.1 30.3C27.1 30.3 27.1 30.3 27.1 30.2C27 30 26.9 29.8 26.8 29.7C26.8 29.7 26.8 29.7 26.8 29.6C26.7 29.5 26.6 29.3 26.5 29.2L26.4 29.1C26.3 29 26.2 28.9 26.1 28.8L26 28.7C25.9 28.6 25.7 28.5 25.6 28.4" stroke="#171A21" stroke-width="2" stroke-miterlimit="10" stroke-linecap="round" stroke-linejoin="round"/>
<path d="M3.5 41.7C3.5 41.6 3.5 41.6 3.5 41.6V41.5V41.4C3.5 41.4 3.5 41.4 3.5 41.3V41.2V41.1V41C3.5 41 3.5 41 3.5 40.9V40.8V40.7V40.6C3.5 40.6 3.5 40.6 3.5 40.5L7 32.1V32V31.9V31.8V31.7C7 31.7 7 31.6 7.1 31.6C7.1 31.5 7.2 31.5 7.2 31.4C7.2 31.4 7.2 31.3 7.3 31.3C7.3 31.3 7.3 31.2 7.4 31.2C7.4 31.2 7.4 31.2 7.5 31.1C7.5 31.1 7.5 31.1 7.6 31C7.6 31 7.6 31 7.7 30.9C7.7 30.9 7.7 30.9 7.8 30.8C7.8 30.8 7.8 30.8 7.9 30.7C7.9 30.7 7.9 30.7 8 30.6C8 30.6 8 30.6 8.1 30.6C8.1 30.6 8.1 30.6 8.2 30.6C8.2 30.6 8.2 30.6 8.3 30.6C8.3 30.6 8.3 30.6 8.4 30.6C8.4 30.6 8.4 30.6 8.5 30.6C8.5 30.6 8.5 30.6 8.6 30.6C8.6 30.6 8.6 30.6 8.7 30.6C8.7 30.6 8.7 30.6 8.8 30.6C8.8 30.6 8.8 30.6 8.9 30.6C8.9 30.6 8.9 30.6 9 30.6C9 30.6 9 30.6 9.1 30.6L12.9 30.2C13 30 13.2 29.8 13.3 29.6C13.3 29.6 13.3 29.5 13.4 29.5C13.5 29.4 13.6 29.3 13.7 29.2C13.8 29.1 13.8 29 13.9 28.9L14 28.8C14.1 28.7 14.1 28.6 14.2 28.5C14.3 28.4 14.3 28.3 14.4 28.3C14.4 28.2 14.5 28.2 14.5 28.1C14.6 28 14.6 27.9 14.7 27.9C14.7 27.8 14.8 27.8 14.8 27.7C14.9 27.6 15 27.4 15.1 27.3L15.7 22.3V22.2V22.1V22C15.7 22 15.7 22 15.7 21.9V21.8V21.7V21.6V21.5C15.7 21.5 15.7 21.5 15.7 21.4C15.7 21.4 15.7 21.4 15.7 21.3C15.7 21.3 15.7 21.3 15.7 21.2V21.1V21L15.8 20.9V20.8C15.8 20.8 15.8 20.8 15.8 20.7C15.8 20.7 15.8 20.7 15.8 20.6L15.9 20.5C15.9 20.5 15.9 20.4 16 20.4C16 20.4 16 20.4 16.1 20.3C16.1 20.3 16.1 20.3 16.2 20.2C16.2 20.2 16.2 20.2 16.3 20.1C16.3 20.1 16.3 20.1 16.4 20C16.4 20 16.4 20 16.5 19.9C16.5 19.9 16.5 19.9 16.6 19.8C16.6 19.8 16.6 19.8 16.7 19.7C16.7 19.7 16.7 19.7 16.8 19.6C16.8 19.6 16.8 19.6 16.9 19.5C16.9 19.5 16.9 19.5 17 19.5C17 19.5 17 19.5 17.1 19.5C17.1 19.5 17.1 19.5 17.2 19.5L24 15.6C24 15.6 24 15.6 24.1 15.6C24.1 15.6 24.1 15.6 24.2 15.6C24.2 15.6 24.2 15.6 24.3 15.6C24.3 15.6 24.3 15.6 24.4 15.6C24.4 15.6 24.4 15.6 24.5 15.6C24.5 15.6 24.5 15.6 24.6 15.6C24.6 15.6 24.6 15.6 24.7 15.6C24.7 15.6 24.7 15.6 24.8 15.6H24.9H25H25.1C25.1 15.6 25.2 15.6 25.2 15.7L30.6 18.9L32.4 17.1C32.4 17.1 32.4 17.1 32.5 17C32.5 17 32.5 17 32.6 16.9C32.6 16.9 32.6 16.9 32.7 16.8C32.7 16.8 32.7 16.8 32.8 16.7C32.8 16.7 32.8 16.7 32.9 16.6C32.9 16.6 32.9 16.6 33 16.6C33 16.6 33 16.6 33.1 16.6C33.1 16.6 33.1 16.6 33.2 16.6C33.2 16.6 33.2 16.6 33.3 16.6C33.3 16.6 33.3 16.6 33.4 16.6C33.4 16.6 33.4 16.6 33.5 16.6C33.5 16.6 33.5 16.6 33.6 16.6C33.6 16.6 33.6 16.6 33.7 16.6C33.7 16.6 33.7 16.6 33.8 16.6C33.8 16.6 33.8 16.6 33.9 16.6C33.9 16.6 33.9 16.6 34 16.6C34 16.6 34 16.6 34.1 16.6H34.2H34.3H34.4C34.4 16.6 34.5 16.6 34.5 16.7L41.5 20.8C41.4 20.8 41.3 20.7 41.3 20.7C41.2 20.7 41.1 20.7 41 20.7C40.9 20.7 40.8 20.7 40.7 20.8C40.6 20.8 40.5 20.9 40.4 20.9C40.3 21 40.2 21 40.1 21.1C40 21.2 39.9 21.3 39.8 21.4L36 25.4C35.9 25.4 35.7 25.3 35.6 25.3C35.4 25.3 35.1 25.2 34.9 25.2C34.9 25.2 34.9 25.2 34.8 25.2C34.6 25.2 34.4 25.2 34.2 25.2C34 25.2 33.9 25.2 33.7 25.2L28.3 22.1L24.8 24.1C24.7 24.2 24.6 24.2 24.5 24.3C24.4 24.4 24.3 24.5 24.2 24.5C24.1 24.6 24 24.7 24 24.8C23.9 24.9 23.9 25 23.8 25.1C23.8 25.1 23.8 25.1 23.8 25.2C23.7 25.3 23.7 25.4 23.6 25.5C23.5 25.6 23.5 25.7 23.4 25.8C23.4 25.9 23.3 26 23.3 26.2C23.3 26.3 23.2 26.4 23.2 26.6L22.6 31.6C22.4 31.8 22.3 32 22.1 32.2C22 32.3 22 32.4 21.9 32.4C21.8 32.5 21.7 32.7 21.6 32.8C21.5 32.9 21.5 33 21.4 33.1C21.3 33.2 21.2 33.4 21.1 33.5C21 33.6 20.9 33.7 20.9 33.8C20.7 34 20.6 34.2 20.4 34.5L16 34.2C15.9 34.2 15.8 34.2 15.7 34.3C15.6 34.3 15.5 34.4 15.4 34.4C15.3 34.4 15.3 34.5 15.2 34.5C15.1 34.5 15.1 34.6 15 34.7C14.9 34.8 14.9 34.8 14.8 34.9C14.7 35 14.7 35 14.6 35.1C14.5 35.2 14.5 35.2 14.4 35.3C14.3 35.4 14.3 35.5 14.2 35.5C14.2 35.6 14.1 35.7 14.1 35.8C14.1 35.9 14 36 14 36.1L10.6 44.8C10.6 44.9 10.5 45 10.5 45.1C10.5 45.2 10.4 45.3 10.4 45.4C10.4 45.5 10.4 45.6 10.4 45.6L14.2 47.8C14.2 48 14.2 48.3 14.2 48.5C14.2 48.6 14.2 48.6 14.2 48.7C14.2 48.9 14.2 49.1 14.2 49.3C14.2 49.3 14.2 49.3 14.2 49.4C14.2 49.6 14.2 49.9 14.2 50.1C14.2 50.2 14.2 50.2 14.2 50.3C14.2 50.5 14.2 50.7 14.2 50.9L11 55.7C10.9 55.8 10.9 55.9 10.8 56C10.7 56.1 10.7 56.2 10.6 56.3C10.6 56.4 10.5 56.5 10.5 56.7C10.5 56.8 10.4 56.9 10.4 57C10.4 57.1 10.4 57.2 10.4 57.3C10.4 57.4 10.4 57.5 10.4 57.6C10.4 57.7 10.4 57.8 10.5 57.9C10.5 58 10.6 58.1 10.6 58.1L14 62.9C14.1 63 14.2 63.1 14.3 63.1L7.3 59C7.2 58.9 7.1 58.9 7 58.8L3.6 54C3.6 54 3.6 53.9 3.5 53.9V53.8C3.5 53.8 3.5 53.8 3.5 53.7V53.6V53.5V53.4C3.5 53.4 3.5 53.4 3.5 53.3C3.5 53.3 3.5 53.3 3.5 53.2V53.1V53V52.9C3.5 52.9 3.5 52.9 3.5 52.8V52.7V52.6V52.5V52.4V52.3V52.2V52.1V52V51.9V51.8V51.7C3.5 51.7 3.5 51.7 3.5 51.6C3.9 52 4 52 4 51.9C4 51.8 4.1 51.8 4.1 51.7L7.3 47C7.3 46.9 7.3 46.8 7.3 46.6C7.3 46.5 7.3 46.4 7.3 46.3C7.3 46.2 7.3 46.2 7.3 46.1V46C7.3 45.8 7.3 45.6 7.3 45.4V45.3C7.3 45.1 7.3 45 7.3 44.8C7.3 44.7 7.3 44.7 7.3 44.6C7.3 44.6 7.3 44.6 7.3 44.5L4 42.6C3.9 42.6 3.9 42.5 3.8 42.5C3.8 42.5 3.8 42.5 3.8 42.4C3.8 42.4 3.8 42.3 3.7 42.3V42.2C3.7 42.2 3.7 42.2 3.7 42.1V42V41.9C3.7 41.9 3.7 41.9 3.7 41.8C3.7 41.8 3.7 41.8 3.7 41.7V41.6C3.5 41.8 3.5 41.8 3.5 41.7C3.5 41.8 3.5 41.7 3.5 41.7Z" fill="white"/>
<path d="M14.0996 63.2C14.1996 63.3 14.2996 63.4 14.3996 63.4L7.39961 59.3C7.29961 59.2 7.19961 59.2 7.09961 59.1L3.69961 54.3C3.69961 54.3 3.69961 54.2 3.59961 54.2V54.1C3.59961 54.1 3.59961 54.1 3.59961 54V53.9V53.8V53.7C3.59961 53.7 3.59961 53.7 3.59961 53.6C3.59961 53.6 3.59961 53.6 3.59961 53.5V53.4V53.3V53.2C3.59961 53.2 3.59961 53.2 3.59961 53.1V53V52.9V52.8V52.7V52.6V52.5V52.4V52.3V52.2V52.1V52C3.59961 52 3.59961 52 3.59961 51.9C3.89961 52 3.99961 52 3.99961 51.9C3.99961 51.8 4.09961 51.8 4.09961 51.7L7.29961 47C7.29961 46.9 7.29961 46.8 7.29961 46.6C7.29961 46.5 7.29961 46.4 7.29961 46.3C7.29961 46.2 7.29961 46.2 7.29961 46.1V46C7.29961 45.8 7.29961 45.6 7.29961 45.4V45.3C7.29961 45.1 7.29961 45 7.29961 44.8C7.29961 44.7 7.29961 44.7 7.29961 44.6C7.29961 44.6 7.29961 44.6 7.29961 44.5L3.99961 42.6C3.89961 42.6 3.89961 42.5 3.79961 42.5C3.79961 42.5 3.79961 42.5 3.79961 42.4C3.79961 42.4 3.79961 42.3 3.69961 42.3V42.2C3.69961 42.2 3.69961 42.2 3.69961 42.1V42V41.9C3.69961 41.9 3.69961 41.9 3.69961 41.8C3.69961 41.8 3.69961 41.8 3.69961 41.7V41.6C3.69961 41.6 3.69961 41.6 3.69961 41.5V41.4V41.3V41.2C3.69961 41.2 3.69961 41.2 3.69961 41.1V41V40.9V40.8C3.69961 40.8 3.69961 40.8 3.69961 40.7V40.6V40.5V40.4C3.69961 40.4 3.69961 40.4 3.69961 40.3L6.99961 32.1V32V31.9V31.8V31.7C6.99961 31.7 6.99961 31.6 7.09961 31.6C7.09961 31.5 7.19961 31.5 7.19961 31.4C7.19961 31.4 7.19961 31.3 7.29961 31.3C7.29961 31.3 7.29961 31.2 7.39961 31.2C7.39961 31.2 7.39961 31.2 7.49961 31.1C7.49961 31.1 7.49961 31.1 7.59961 31C7.59961 31 7.59961 31 7.69961 30.9C7.69961 30.9 7.69961 30.9 7.79961 30.8C7.79961 30.8 7.79961 30.8 7.89961 30.7C7.89961 30.7 7.89961 30.7 7.99961 30.6C7.99961 30.6 7.99961 30.6 8.09961 30.6C8.09961 30.6 8.09961 30.6 8.19961 30.6C8.19961 30.6 8.19961 30.6 8.29961 30.6C8.29961 30.6 8.29961 30.6 8.39961 30.6C8.39961 30.6 8.39961 30.6 8.49961 30.6C8.49961 30.6 8.49961 30.6 8.59961 30.6C8.59961 30.6 8.59961 30.6 8.69961 30.6C8.69961 30.6 8.69961 30.6 8.79961 30.6C8.79961 30.6 8.79961 30.6 8.89961 30.6C8.89961 30.6 8.89961 30.6 8.99961 30.6C8.99961 30.6 8.99961 30.6 9.09961 30.6L12.8996 30.2C12.9996 30 13.1996 29.8 13.2996 29.6C13.2996 29.6 13.2996 29.5 13.3996 29.5C13.4996 29.4 13.5996 29.3 13.6996 29.2C13.7996 29.1 13.7996 29 13.8996 28.9L13.9996 28.8C14.0996 28.7 14.0996 28.6 14.1996 28.5C14.2996 28.4 14.2996 28.3 14.3996 28.3C14.3996 28.2 14.4996 28.2 14.4996 28.1C14.5996 28 14.5996 27.9 14.6996 27.9C14.6996 27.8 14.7996 27.8 14.7996 27.7C14.8996 27.6 14.9996 27.4 15.0996 27.3L15.6996 22.3V22.2V22.1V22C15.6996 22 15.6996 22 15.6996 21.9V21.8V21.7V21.6V21.5C15.6996 21.5 15.6996 21.5 15.6996 21.4C15.6996 21.4 15.6996 21.4 15.6996 21.3C15.6996 21.3 15.6996 21.3 15.6996 21.2V21.1V21L15.7996 20.9V20.8C15.7996 20.8 15.7996 20.8 15.7996 20.7C15.7996 20.7 15.7996 20.7 15.7996 20.6L15.8996 20.5C15.8996 20.5 15.8996 20.4 15.9996 20.4C15.9996 20.4 15.9996 20.4 16.0996 20.3C16.0996 20.3 16.0996 20.3 16.1996 20.2C16.1996 20.2 16.1996 20.2 16.2996 20.1C16.2996 20.1 16.2996 20.1 16.3996 20C16.3996 20 16.3996 20 16.4996 19.9C16.4996 19.9 16.4996 19.9 16.5996 19.8C16.5996 19.8 16.5996 19.8 16.6996 19.7C16.6996 19.7 16.6996 19.7 16.7996 19.6C16.7996 19.6 16.7996 19.6 16.8996 19.5C16.8996 19.5 16.8996 19.5 16.9996 19.5C16.9996 19.5 16.9996 19.5 17.0996 19.5C17.0996 19.5 17.0996 19.5 17.1996 19.5L23.9996 15.6C23.9996 15.6 23.9996 15.6 24.0996 15.6C24.0996 15.6 24.0996 15.6 24.1996 15.6C24.1996 15.6 24.1996 15.6 24.2996 15.6C24.2996 15.6 24.2996 15.6 24.3996 15.6C24.3996 15.6 24.3996 15.6 24.4996 15.6C24.4996 15.6 24.4996 15.6 24.5996 15.6C24.5996 15.6 24.5996 15.6 24.6996 15.6C24.6996 15.6 24.6996 15.6 24.7996 15.6H24.8996H24.9996H25.0996C25.0996 15.6 25.1996 15.6 25.1996 15.7L30.5996 18.9L32.3996 17.1C32.3996 17.1 32.3996 17.1 32.4996 17C32.4996 17 32.4996 17 32.5996 16.9C32.5996 16.9 32.5996 16.9 32.6996 16.8C32.6996 16.8 32.6996 16.8 32.7996 16.7C32.7996 16.7 32.7996 16.7 32.8996 16.6C32.8996 16.6 32.8996 16.6 32.9996 16.6C32.9996 16.6 32.9996 16.6 33.0996 16.6C33.0996 16.6 33.0996 16.6 33.1996 16.6C33.1996 16.6 33.1996 16.6 33.2996 16.6C33.2996 16.6 33.2996 16.6 33.3996 16.6C33.3996 16.6 33.3996 16.6 33.4996 16.6C33.4996 16.6 33.4996 16.6 33.5996 16.6C33.5996 16.6 33.5996 16.6 33.6996 16.6C33.6996 16.6 33.6996 16.6 33.7996 16.6C33.7996 16.6 33.7996 16.6 33.8996 16.6C33.8996 16.6 33.8996 16.6 33.9996 16.6C33.9996 16.6 33.9996 16.6 34.0996 16.6H34.1996H34.2996H34.3996C34.3996 16.6 34.4996 16.6 34.4996 16.7L41.4996 20.8C41.3996 20.8 41.2996 20.7 41.2996 20.7C41.1996 20.7 41.0996 20.7 40.9996 20.7" stroke="#171A21" stroke-width="2" stroke-miterlimit="10" stroke-linecap="round" stroke-linejoin="round"/>
<path d="M14.3007 51C14.2007 50 14.2007 49 14.3007 47.9L11.0007 46.9C10.4007 46.7 10.2007 45.8 10.6007 44.8L14.0007 36.1C14.3007 35.3 14.8007 34.7 15.4007 34.4C15.6007 34.3 15.8007 34.2 16.0007 34.2L19.8007 33.8C20.5007 32.8 21.3007 31.8 22.1007 30.9L22.7007 25.9C22.8007 24.9 23.5007 23.9 24.3007 23.4L31.1007 19.5C31.9007 19.1 32.5007 19.3 32.6007 20.2L33.2007 24.5C34.0007 24.5 34.8007 24.5 35.5007 24.7L39.3007 20.7C39.5007 20.5 39.7007 20.4 39.9007 20.2C40.5007 19.9 41.0007 19.9 41.3007 20.3L44.7007 25.1C45.1007 25.7 44.9007 26.7 44.3007 27.7L41.0007 32.6C41.1007 33.6 41.1007 34.6 41.0007 35.7L44.3007 36.7C44.9007 36.9 45.1007 37.8 44.7007 38.8L41.3007 47.5C41.0007 48.3 40.5007 48.9 39.9007 49.2C39.7007 49.3 39.5007 49.4 39.3007 49.4L35.5007 49.8C34.8007 50.8 34.0007 51.8 33.2007 52.7L32.6007 57.7C32.5007 58.7 31.8007 59.7 31.1007 60.2L24.4007 64C23.6007 64.4 23.0007 64.2 22.9007 63.3L22.3007 59C21.5007 59 20.7007 59 20.0007 58.8L16.2007 62.8C16.0007 63 15.8007 63.1 15.6007 63.3C15.0007 63.6 14.5007 63.6 14.2007 63.2L10.8007 58.4C10.4007 57.8 10.6007 56.8 11.2007 55.9L14.3007 51ZM27.7007 50.2C31.8007 47.9 35.0007 42.2 35.0007 37.5C35.0007 32.8 31.7007 30.9 27.6007 33.3C23.5007 35.6 20.3007 41.3 20.3007 46C20.4007 50.7 23.7007 52.6 27.7007 50.2Z" fill="#FB7070"/>
<path d="M103.3 51.7L99.8996 47.7C99.5996 47.3 99.3996 46.8 99.3996 46.4V45C99.4996 44.9 99.5996 44.8 99.6996 44.8C100.1 44.3 100.5 43.7 100.8 43C101.3 43 101.6 42.6 101.6 42V40.3C101.6 39.9 101.5 39.4 101.2 39V36.8C101.2 36.6 101.3 35.3 100.5 33.7C99.7996 32.3 98.5996 31.1 96.8996 30.2C95.2996 29.3 94.0996 29.1 93.2996 29.6C92.4996 30.2 92.4996 31.6 92.5996 31.9V34.1C92.3996 34.3 92.1996 34.6 92.1996 35V36.7C92.1996 37.2 92.3996 37.8 92.6996 38.3C92.9996 40 93.6996 41.5 93.9996 42V43.4C93.9996 43.8 93.7996 44.1 93.4996 44.1L90.2996 44.3C89.2996 44.4 88.5996 45.2 88.5996 46.6V47.9C88.5996 49.9 93.9996 53.5 96.7996 55.1C99.6996 56.7 105 59.3 105 57.4V56C105.1 54.6 104.4 52.9 103.3 51.7Z" fill="#FEE2E2"/>
</svg>
