<svg width="144" height="144" viewBox="0 0 144 144" fill="none" xmlns="http://www.w3.org/2000/svg">
<path d="M127.998 125.4C127.998 125.3 127.898 125.2 127.898 125.2C127.798 125.1 127.698 124.9 127.698 124.8C124.398 119 120.898 96 121.198 93.6C121.198 93.6 94.8984 100 94.3984 105C93.8984 109.9 92.7984 117 90.8984 131.3C90.8984 131.6 90.8984 131.9 90.8984 132.2C90.8984 133.2 91.1984 134.1 91.6984 134.8C92.4984 136.1 93.6984 137.4 95.4984 138.4C102.398 142.4 114.398 141.9 122.298 137.3C128.098 133.8 130.098 129.2 127.998 125.4Z" fill="#FFD394"/>
<path d="M70.899 42.4C65.799 52.7 66.399 78.5 68.399 90.6C70.399 102.7 74.999 112.8 78.299 115.4C86.399 121.9 102.799 108.6 117.199 101.3C127.199 96.2 133.099 80.3 134.999 66.2C136.499 54.6 135.199 35.7 119.399 28.3C103.599 20.9 79.899 24.4 70.899 42.4Z" fill="#FFF6EA"/>
<path d="M134.999 66.2C136.499 54.6 135.199 35.7 119.399 28.3C103.599 20.9 79.9986 24.3 70.9986 42.3C65.8986 52.6 66.4986 78.4 68.4986 90.5C70.4986 102.6 75.0987 112.7 78.3987 115.3C84.0987 119.9 94.0986 114.6 104.499 108.5" stroke="#171A21" stroke-width="2" stroke-miterlimit="10" stroke-linecap="round" stroke-linejoin="round"/>
<path d="M116 84.1C116 84.1 113 90.5 105.9 94.8C98.7996 99.2 90.0996 95.9 90.0996 95.9" stroke="#FFD394" stroke-width="4" stroke-miterlimit="10"/>
<path d="M90.5988 101.5C93.8021 101.5 96.3988 98.9032 96.3988 95.7C96.3988 92.4967 93.8021 89.9 90.5988 89.9C87.3956 89.9 84.7988 92.4967 84.7988 95.7C84.7988 98.9032 87.3956 101.5 90.5988 101.5Z" fill="white" stroke="#171A21" stroke-width="2" stroke-miterlimit="10" stroke-linecap="round" stroke-linejoin="round"/>
<path d="M124.098 84.3C124.098 84.2 124.098 84 124.098 83.9C124.098 83.8 124.098 83.7 124.098 83.7C124.098 83.6 124.098 83.4 124.098 83.3C124.098 83.2 124.098 83.2 124.098 83.1C124.098 83 124.098 82.9 124.098 82.8C124.098 82.6 124.098 82.5 124.198 82.3C124.198 82.2 124.198 82.1 124.298 82C124.298 81.8 124.398 81.7 124.398 81.5C124.398 81.4 124.498 81.3 124.498 81.1C124.498 81 124.498 80.9 124.598 80.8C124.598 80.7 124.698 80.5 124.698 80.4C124.698 80.3 124.798 80.2 124.798 80.1C124.798 80 124.798 79.9 124.898 79.9C124.998 79.6 125.098 79.2 125.198 78.9V78.8C125.298 78.5 125.398 78.2 125.498 77.8C125.498 77.7 125.598 77.6 125.598 77.6C125.698 77.3 125.798 77.1 125.898 76.8C125.898 76.8 125.898 76.7 125.998 76.7C126.098 76.4 126.298 76.1 126.398 75.8C126.398 75.7 126.498 75.6 126.498 75.6C126.598 75.4 126.698 75.1 126.898 74.9C126.898 74.8 126.998 74.8 126.998 74.7C127.198 74.4 127.298 74.1 127.498 73.8C127.498 73.7 127.598 73.7 127.598 73.6C127.698 73.4 127.898 73.1 128.098 72.9C128.098 72.8 128.198 72.8 128.198 72.7C128.398 72.4 128.598 72.1 128.798 71.8L128.898 71.7C129.098 71.4 129.298 71.1 129.498 70.8L129.598 70.7C129.898 70.3 130.198 70 130.498 69.7L130.598 69.6C130.798 69.4 130.998 69.2 131.098 69C131.298 68.8 131.498 68.6 131.698 68.4C131.798 68.3 131.998 68.2 132.098 68L132.198 67.9C132.398 67.7 132.498 67.6 132.698 67.4L132.798 67.3C132.898 67.2 133.098 67.1 133.198 67C133.298 66.9 133.298 66.9 133.398 66.8C133.498 66.7 133.598 66.6 133.698 66.5C133.798 66.4 133.798 66.4 133.898 66.3C133.998 66.2 134.098 66.1 134.198 66.1C134.298 66.1 134.298 66 134.398 66C134.498 65.9 134.598 65.8 134.798 65.8C134.898 65.8 134.898 65.7 134.998 65.7C135.198 65.6 135.398 65.5 135.598 65.4C135.798 65.3 136.098 65.1 136.298 65C136.398 65 136.398 64.9 136.498 64.9C136.698 64.8 136.898 64.7 137.098 64.6C137.198 64.6 137.198 64.5 137.298 64.5C137.498 64.4 137.598 64.4 137.798 64.3H137.898C138.098 64.2 138.298 64.2 138.498 64.1C138.598 64.1 138.698 64 138.898 64C138.998 64 138.998 64 139.098 64C139.298 64 139.498 63.9 139.598 63.9C139.798 63.9 139.898 63.9 140.098 63.8C140.198 63.8 140.198 63.8 140.298 63.8C140.398 63.8 140.498 63.8 140.598 63.8H140.698C140.798 63.8 139.698 62.2 139.698 62.2L130.698 57C130.698 57 130.698 57 130.598 57H130.498C130.398 56.9 130.198 56.9 130.098 56.8H129.998C129.998 56.8 129.998 56.8 129.898 56.8C129.698 56.7 129.598 56.7 129.398 56.6C129.198 56.5 128.998 56.5 128.798 56.5C128.798 56.5 128.798 56.5 128.698 56.5H128.598C128.398 56.5 128.298 56.5 128.098 56.4H127.998H127.898C127.798 56.4 127.698 56.4 127.598 56.4H127.498H127.398C127.298 56.4 127.298 56.4 127.198 56.4C127.098 56.4 127.098 56.4 126.998 56.4C126.798 56.4 126.698 56.4 126.498 56.5C126.298 56.5 126.198 56.6 125.998 56.6C125.898 56.6 125.898 56.6 125.798 56.6C125.698 56.6 125.598 56.6 125.498 56.7C125.298 56.8 125.098 56.8 124.898 56.9H124.798C124.598 57 124.498 57 124.298 57.1C124.298 57.1 124.298 57.1 124.198 57.1C124.198 57.1 124.098 57.1 124.098 57.2C123.898 57.3 123.698 57.4 123.498 57.5C123.398 57.5 123.398 57.6 123.298 57.6C123.098 57.7 122.798 57.9 122.598 58C122.398 58.1 122.198 58.2 121.998 58.3C121.898 58.3 121.898 58.4 121.798 58.4C121.698 58.5 121.498 58.6 121.398 58.6C121.298 58.6 121.298 58.7 121.198 58.7C121.098 58.8 120.998 58.9 120.898 58.9C120.798 59 120.798 59 120.698 59.1C120.598 59.2 120.498 59.3 120.398 59.4C120.298 59.5 120.298 59.5 120.198 59.6C120.098 59.7 119.898 59.8 119.798 59.9L119.698 60C119.498 60.2 119.398 60.3 119.198 60.5L119.098 60.6C118.998 60.7 118.898 60.8 118.798 60.9C118.598 61.1 118.398 61.3 118.198 61.5C117.998 61.7 117.798 61.9 117.698 62.1C117.698 62.1 117.698 62.1 117.598 62.2C117.598 62.2 117.598 62.3 117.498 62.3C117.198 62.6 116.898 63 116.598 63.3C116.598 63.3 116.598 63.4 116.498 63.4C116.298 63.7 116.098 64 115.898 64.3C115.898 64.3 115.898 64.4 115.798 64.4C115.598 64.7 115.398 65 115.198 65.3C115.198 65.3 115.198 65.4 115.098 65.4L114.998 65.5C114.798 65.7 114.698 66 114.598 66.2C114.598 66.2 114.598 66.3 114.498 66.3C114.298 66.6 114.198 66.9 113.998 67.2C113.998 67.2 113.998 67.2 113.998 67.3C113.998 67.3 113.998 67.4 113.898 67.4C113.798 67.6 113.698 67.9 113.498 68.1C113.498 68.1 113.498 68.2 113.398 68.2V68.3C113.298 68.6 113.098 68.9 112.998 69.2V69.3C112.898 69.6 112.798 69.8 112.698 70.1C112.698 70.1 112.698 70.2 112.598 70.2V70.3C112.498 70.6 112.398 70.9 112.298 71.3C112.298 71.3 112.298 71.3 112.298 71.4C112.198 71.7 112.098 72.1 111.998 72.4V72.5V72.6C111.998 72.7 111.898 72.8 111.898 72.9C111.898 73 111.798 73.2 111.798 73.3C111.798 73.4 111.798 73.5 111.698 73.6C111.698 73.7 111.698 73.7 111.698 73.8C111.698 73.9 111.698 73.9 111.698 74C111.698 74.2 111.598 74.3 111.598 74.5C111.598 74.6 111.598 74.7 111.498 74.8C111.498 75 111.498 75.1 111.398 75.3C111.398 75.4 111.398 75.4 111.398 75.5V75.6C111.398 75.7 111.398 75.7 111.398 75.8C111.398 76 111.398 76.1 111.398 76.2C111.398 76.3 111.398 76.4 111.398 76.4C111.398 76.6 111.398 76.7 111.398 76.9C111.398 77 111.398 77 111.398 77.1C111.398 77.3 111.398 77.5 111.398 77.7C111.398 81.4 112.698 83.9 114.798 85.2L123.498 90.3C123.498 90.3 124.498 89 124.498 85.4C124.498 85.2 124.498 85 124.498 84.8C124.098 84.5 124.098 84.4 124.098 84.3Z" fill="white" stroke="#171A21" stroke-width="2" stroke-miterlimit="10" stroke-linecap="round" stroke-linejoin="round"/>
<path d="M131.299 62.7C137.799 59 142.999 62 142.999 69.4C142.999 76.8 137.799 85.8 131.399 89.5C124.999 93.2 119.799 90.2 119.699 82.9C119.699 75.4 124.899 66.4 131.299 62.7Z" fill="#FFD394"/>
<path d="M131.398 69.3C134.698 67.4 137.298 68.8999 137.298 72.6999C137.298 76.4 134.698 81 131.398 82.9C128.098 84.8 125.498 83.3 125.498 79.5C125.498 75.7 128.098 71.2 131.398 69.3Z" fill="#FFD394"/>
<path d="M128.899 61.6C128.899 61.3 128.899 61 128.899 60.6C128.899 60.5 128.899 60.5 128.899 60.4C128.899 60.3 128.899 60.1 128.899 60C128.899 59.9 128.899 59.7 128.899 59.6C128.899 59.5 128.899 59.3 128.899 59.2C128.899 59.1 128.899 58.9 128.899 58.8C128.899 58.7 128.899 58.6 128.899 58.5C128.899 58.3 128.899 58 128.799 57.8C128.799 57.7 128.799 57.6 128.799 57.5V57.4C128.799 57 128.699 56.6 128.599 56.3C128.599 56.2 128.599 56.1 128.599 56C128.599 55.7 128.499 55.4 128.499 55.2C128.499 55.1 128.499 55.1 128.499 55C128.499 54.8 128.399 54.7 128.399 54.5C128.399 54.3 128.299 54.2 128.299 54C128.299 53.9 128.199 53.8 128.199 53.7C128.199 53.5 128.099 53.4 128.099 53.2C128.099 53.1 127.999 53 127.999 52.8C127.999 52.6 127.899 52.5 127.899 52.3C127.899 52.1 127.799 52 127.799 51.8C127.799 51.7 127.799 51.7 127.699 51.6C127.599 51.4 127.599 51.1 127.499 50.9C127.499 50.8 127.399 50.6 127.399 50.5V50.4C127.299 50 127.199 49.6 126.999 49.2C126.999 49.1 126.999 49.1 126.899 49C126.799 48.7 126.699 48.4 126.599 48.1C126.599 48 126.599 48 126.499 47.9C126.499 47.8 126.399 47.6 126.399 47.5C126.299 47.3 126.299 47.2 126.199 47C126.199 46.9 126.099 46.8 125.999 46.6C125.899 46.5 125.899 46.3 125.799 46.2C125.799 46.1 125.699 46 125.699 45.9C125.599 45.7 125.499 45.5 125.399 45.2C125.399 45.1 125.299 45 125.299 44.9V44.8C125.099 44.4 124.999 44.1 124.799 43.7C124.799 43.7 124.799 43.7 124.799 43.6C124.699 43.5 124.699 43.4 124.599 43.2C124.499 42.9 124.399 42.7 124.199 42.4C124.199 42.4 124.199 42.3 124.099 42.3C123.999 42.1 123.899 41.9 123.799 41.6C123.699 41.4 123.599 41.2 123.499 41.1C123.499 41 123.399 41 123.399 40.9C123.299 40.8 123.299 40.7 123.199 40.6C122.999 40.3 122.899 40 122.699 39.7C122.599 39.6 122.599 39.5 122.499 39.4C122.499 39.3 122.399 39.3 122.399 39.2C122.299 39.1 122.199 38.9 122.099 38.8C121.899 38.5 121.799 38.3 121.599 38C121.499 37.8 121.399 37.6 121.199 37.4C120.999 37.2 120.899 36.9 120.699 36.7C120.699 36.6 120.599 36.6 120.599 36.5C120.499 36.3 120.399 36.1 120.199 36C120.099 35.9 119.999 35.8 119.999 35.6C119.699 35.2 119.499 34.8 119.199 34.5C118.899 34.1 118.599 33.7 118.199 33.2C118.199 33.2 118.199 33.2 118.199 33.1C117.899 32.8 117.699 32.5 117.399 32.1L117.299 32C116.999 31.7 116.699 31.3 116.399 31C116.399 31 116.399 31 116.399 30.9C116.299 30.8 116.199 30.7 116.099 30.6C115.899 30.4 115.699 30.2 115.599 30L115.499 29.9C115.399 29.8 115.199 29.6 115.099 29.5C114.999 29.4 114.799 29.2 114.699 29.1C114.599 29 114.599 29 114.499 28.9C114.399 28.8 114.199 28.6 114.099 28.5C113.999 28.4 113.899 28.3 113.699 28.1C113.599 28 113.599 28 113.499 27.9C113.299 27.8 113.199 27.6 112.999 27.5C112.899 27.4 112.799 27.3 112.699 27.2C112.599 27.1 112.499 27.1 112.399 27C112.199 26.9 112.099 26.7 111.899 26.6C111.799 26.5 111.699 26.4 111.599 26.4C111.499 26.3 111.399 26.2 111.299 26.1C111.099 26 110.999 25.8 110.799 25.7C110.699 25.6 110.599 25.6 110.599 25.5C110.499 25.4 110.299 25.3 110.199 25.2C110.099 25.1 109.899 25 109.799 24.9C109.699 24.9 109.699 24.8 109.599 24.8C109.399 24.7 109.199 24.5 109.099 24.4C108.999 24.3 108.899 24.2 108.699 24.1C108.699 24.1 108.599 24.1 108.599 24C108.299 23.8 107.999 23.6 107.599 23.4C107.599 23.4 107.599 23.4 107.499 23.4C107.199 23.2 106.899 23 106.599 22.9C106.499 22.9 106.499 22.8 106.399 22.8C106.199 22.7 105.999 22.6 105.699 22.4C105.699 22.4 105.699 22.4 105.599 22.4C105.599 22.4 105.499 22.4 105.499 22.3C105.299 22.2 104.999 22 104.799 21.9H104.699C104.399 21.8 104.199 21.6 103.899 21.5H103.799H103.699C103.199 21.3 102.599 21 102.099 20.9H101.999C101.999 20.9 101.999 20.9 101.899 20.9C101.599 20.8 101.399 20.7 101.099 20.6C101.099 20.6 101.099 20.6 100.999 20.6H100.899C100.599 20.5 100.299 20.4 100.099 20.4C99.7992 20.3 99.4992 20.3 99.2992 20.2H99.1992C98.8992 20.1 98.5992 20.1 98.2992 20.1C98.2992 20.1 98.2992 20.1 98.1992 20.1H98.0992C97.9992 20.1 97.8992 20.1 97.8992 20.1C97.7992 20.1 97.6992 20.1 97.5992 20.1C97.4992 20.1 97.3992 20.1 97.3992 20.1H97.2992H97.1992C97.0992 20.1 96.9992 20.1 96.8992 20.1C96.7992 20.1 96.6992 20.1 96.6992 20.1C96.5992 20.1 96.4992 20.1 96.3992 20.1C96.2992 20.1 96.2992 20.1 96.1992 20.1C96.1992 20.1 96.1992 20.1 96.0992 20.1C95.9992 20.1 95.7992 20.1 95.6992 20.1H95.5992C95.3992 20.1 95.1992 20.1 95.0992 20.1C95.0992 20.1 95.0992 20.1 94.9992 20.1C94.7992 20.1 94.6992 20.1 94.4992 20.2C94.3992 20.2 94.3992 20.2 94.2992 20.2C94.0992 20.2 93.9992 20.3 93.7992 20.3C93.7992 20.3 93.7992 20.3 93.6992 20.3C93.4992 20.3 93.1992 20.4 92.9992 20.5H92.8992C92.6992 20.6 92.3992 20.6 92.1992 20.7C92.1992 20.7 92.1992 20.7 92.0992 20.7H91.9992C91.8992 20.7 91.7992 20.8 91.6992 20.8C91.5992 20.8 91.5992 20.8 91.4992 20.9C91.3992 20.9 91.2992 21 91.1992 21C91.0992 21 91.0992 21 90.9992 21.1C90.8992 21.1 90.7992 21.2 90.6992 21.2C90.6992 21.2 90.5992 21.2 90.5992 21.3C90.4992 21.4 90.2992 21.4 90.1992 21.5L88.5992 22.4L88.0992 22.7C85.7992 24 85.2992 25.1 84.1992 28C88.6992 26.5 90.5992 25.5 93.3992 25C96.5992 24.4 99.8992 25.1 104.099 27.4C114.899 33.7 123.699 48.9 123.699 61.5L126.599 63.2L128.899 61.6ZM88.3992 22.3C88.4992 22.3 88.5992 22.2 88.6992 22.2C88.6992 22.2 88.7992 22.2 88.7992 22.1C88.8992 22.1 88.9992 22 89.0992 22C88.8992 22.1 88.6992 22.2 88.3992 22.3ZM89.1992 21.9C89.1992 21.9 89.2992 21.9 89.1992 21.9C89.3992 21.8 89.4992 21.8 89.5992 21.7C89.6992 21.7 89.6992 21.7 89.7992 21.6C89.8992 21.6 89.8992 21.6 89.9992 21.5C89.6992 21.7 89.3992 21.8 89.1992 21.9ZM89.9992 21.6H90.0992C90.2992 21.5 90.3992 21.5 90.5992 21.5C90.3992 21.4 90.1992 21.5 89.9992 21.6ZM90.8992 21.3C91.1992 21.2 91.3992 21.2 91.6992 21.1C91.3992 21.2 91.0992 21.2 90.8992 21.3ZM91.7992 21.1C91.9992 21.1 92.0992 21 92.2992 21C92.3992 21 92.3992 21 92.4992 21H92.5992C92.2992 21 91.9992 21 91.7992 21.1ZM92.6992 20.9C92.7992 20.9 92.7992 20.9 92.8992 20.9H92.9992C93.1992 20.9 93.3992 20.9 93.4992 20.9C93.2992 20.9 92.9992 20.9 92.6992 20.9ZM93.5992 20.9C93.7992 20.9 93.8992 20.9 94.0992 20.9C94.1992 20.9 94.1992 20.9 94.2992 20.9C94.3992 20.9 94.3992 20.9 94.4992 20.9C94.1992 20.9 93.8992 20.9 93.5992 20.9ZM94.5992 20.9C94.6992 20.9 94.6992 20.9 94.7992 20.9C94.8992 20.9 94.9992 20.9 95.0992 20.9C95.1992 20.9 95.2992 20.9 95.2992 20.9H95.3992C95.1992 20.9 94.8992 20.9 94.5992 20.9ZM95.5992 20.9C95.6992 20.9 95.7992 20.9 95.8992 20.9C95.9992 20.9 96.0992 20.9 96.0992 20.9C96.1992 20.9 96.1992 20.9 96.2992 20.9H96.3992C96.0992 21 95.7992 21 95.5992 20.9ZM96.8992 21.1C96.9992 21.1 97.0992 21.1 97.1992 21.1H97.2992C97.3992 21.1 97.3992 21.1 97.4992 21.1C97.1992 21.2 96.9992 21.1 96.8992 21.1ZM97.7992 21.3C97.8992 21.3 97.9992 21.3 98.0992 21.4C98.1992 21.4 98.2992 21.5 98.3992 21.5C98.1992 21.4 97.9992 21.4 97.7992 21.3ZM98.7992 21.6H98.8992H98.9992C99.0992 21.6 99.2992 21.7 99.3992 21.7C99.2992 21.7 99.0992 21.6 98.7992 21.6ZM99.7992 21.9C99.8992 21.9 99.8992 21.9 99.7992 21.9C99.8992 21.9 99.8992 21.9 99.9992 22C100.299 22.1 100.499 22.2 100.799 22.3C100.499 22.1 100.199 22 99.7992 21.9ZM100.999 22.3C101.199 22.4 101.499 22.5 101.699 22.6C101.799 22.6 101.799 22.7 101.899 22.7C101.899 22.7 101.899 22.7 101.999 22.7C101.599 22.6 101.299 22.4 100.999 22.3ZM102.199 22.9C102.299 23 102.499 23 102.599 23.1C102.599 23.1 102.699 23.1 102.699 23.2C102.799 23.2 102.799 23.3 102.899 23.3C102.699 23.1 102.499 23 102.199 22.9ZM104.299 24C103.999 23.8 103.599 23.6 103.299 23.5C103.399 23.5 103.399 23.6 103.499 23.6C103.599 23.6 103.599 23.7 103.699 23.7C103.899 23.7 104.099 23.8 104.299 24C104.699 24.2 104.999 24.4 105.399 24.7C104.999 24.4 104.699 24.2 104.299 24ZM105.499 24.7C105.899 24.9 106.199 25.2 106.599 25.4C106.199 25.1 105.799 24.9 105.499 24.7ZM106.899 25.6C107.099 25.7 107.299 25.9 107.499 26C107.299 25.9 107.099 25.8 106.899 25.6ZM108.399 26.7C108.499 26.8 108.599 26.8 108.699 26.9C108.599 26.9 108.499 26.8 108.399 26.7ZM109.399 27.6C109.499 27.7 109.599 27.7 109.599 27.8C109.599 27.7 109.499 27.7 109.399 27.6ZM110.099 28.2C110.299 28.4 110.499 28.5 110.699 28.7C110.499 28.6 110.299 28.4 110.099 28.2ZM111.199 29.2C111.299 29.3 111.499 29.5 111.599 29.6C111.499 29.4 111.299 29.3 111.199 29.2ZM112.199 30.1C112.299 30.2 112.299 30.2 112.399 30.3C112.299 30.3 112.199 30.2 112.199 30.1ZM113.199 31.2C113.399 31.4 113.599 31.7 113.799 31.9C113.599 31.6 113.399 31.4 113.199 31.2ZM114.199 32.3C114.499 32.6 114.699 32.9 114.999 33.2C114.799 32.9 114.499 32.6 114.199 32.3ZM115.299 33.6C115.499 33.9 115.699 34.1 115.899 34.4C115.699 34.1 115.499 33.9 115.299 33.6ZM117.299 36.2C117.399 36.4 117.599 36.6 117.699 36.8C117.599 36.6 117.399 36.4 117.299 36.2ZM117.899 37.1C118.099 37.4 118.199 37.6 118.399 37.9C118.299 37.6 118.099 37.4 117.899 37.1ZM119.799 40C119.899 40.2 119.999 40.4 120.099 40.6C119.999 40.4 119.899 40.2 119.799 40ZM120.299 40.9C120.299 41 120.399 41 120.399 41.1C120.399 41.1 120.399 41 120.299 40.9ZM120.999 42.2C121.099 42.4 121.199 42.7 121.399 42.9C121.299 42.6 121.099 42.4 120.999 42.2ZM121.799 43.6C121.899 43.9 122.099 44.2 122.199 44.4C121.999 44.2 121.899 43.9 121.799 43.6ZM122.299 44.8C122.399 45.1 122.599 45.4 122.699 45.7C122.599 45.4 122.499 45.1 122.299 44.8ZM123.599 47.7C123.699 47.8 123.699 48 123.799 48.1C123.699 48 123.699 47.9 123.599 47.7Z" fill="#FFD394"/>
<path d="M1.69922 32.4C1.69922 32.3 1.69922 32.2 1.69922 32.2V32.1V32C1.69922 31.9 1.69922 31.8 1.69922 31.8C1.69922 31.7 1.69922 31.6 1.69922 31.5C1.69922 31.4 1.69922 31.3 1.69922 31.3C1.69922 31.2 1.69922 31.1 1.79922 31V30.9C1.79922 30.9 1.79922 30.9 1.79922 30.8V30.7C1.79922 30.6 1.79922 30.5 1.89922 30.4C1.89922 30.3 1.89922 30.3 1.99922 30.2C1.99922 30.1 2.09922 30 2.09922 29.9C2.09922 29.8 2.19922 29.7 2.19922 29.6C2.19922 29.5 2.19922 29.5 2.29922 29.4C2.29922 29.3 2.39922 29.2 2.39922 29.2C2.39922 29.1 2.49922 29.1 2.49922 29C2.49922 28.9 2.59922 28.8 2.59922 28.8C2.59922 28.7 2.69922 28.6 2.69922 28.5C2.69922 28.5 2.69922 28.5 2.69922 28.4C2.69922 28.3 2.79922 28.3 2.79922 28.2C2.79922 28.1 2.89922 28 2.89922 27.9C2.89922 27.9 2.89922 27.8 2.99922 27.8C2.99922 27.8 2.99922 27.8 2.99922 27.7C2.99922 27.6 3.09922 27.6 3.09922 27.5C3.19922 27.4 3.19922 27.3 3.29922 27.2C3.29922 27.2 3.29922 27.2 3.29922 27.1C3.39922 26.9 3.49922 26.8 3.59922 26.6C3.69922 26.5 3.69922 26.4 3.79922 26.3C3.89922 26.2 3.89922 26.1 3.99922 26.1C4.09922 26 4.09922 25.9 4.19922 25.9C4.29922 25.8 4.29922 25.8 4.39922 25.7L4.49922 25.6C4.59922 25.5 4.59922 25.5 4.69922 25.4C4.69922 25.4 4.69922 25.4 4.79922 25.3C4.79922 25.3 4.79922 25.3 4.89922 25.3L4.99922 25.2C5.09922 25.1 5.09922 25.1 5.19922 25L5.29922 24.9C5.29922 24.9 5.29922 24.9 5.39922 24.9C5.39922 24.9 5.39922 24.9 5.49922 24.8C5.59922 24.7 5.59922 24.7 5.69922 24.6C5.79922 24.6 5.79922 24.5 5.89922 24.5C5.99922 24.5 5.99922 24.4 6.09922 24.4C6.19922 24.4 6.19922 24.3 6.29922 24.3L43.2992 3.00002C43.3992 3.00002 43.3992 2.90002 43.4992 2.90002C43.5992 2.90002 43.5992 2.80002 43.6992 2.80002C43.6992 2.80002 43.7992 2.80002 43.7992 2.70002C43.8992 2.70002 43.8992 2.60002 43.9992 2.60002C44.0992 2.60002 44.0992 2.50002 44.1992 2.50002H44.2992C44.3992 2.50002 44.3992 2.50002 44.4992 2.40002H44.5992C44.5992 2.40002 44.5992 2.40002 44.6992 2.40002C44.7992 2.40002 44.7992 2.40002 44.8992 2.40002H44.9992C45.0992 2.40002 45.1992 2.40002 45.1992 2.40002H45.2992H45.3992H45.4992C45.5992 2.40002 45.6992 2.40002 45.7992 2.40002C45.7992 2.40002 45.7992 2.40002 45.8992 2.40002C45.9992 2.40002 46.0992 2.40002 46.1992 2.50002C46.2992 2.50002 46.3992 2.60002 46.4992 2.70002L55.5992 8.00002C55.4992 7.90002 55.3992 7.90002 55.2992 7.80002C55.1992 7.80002 55.0992 7.70002 54.9992 7.70002C54.9992 7.70002 54.9992 7.70002 54.8992 7.70002C54.7992 7.70002 54.6992 7.70002 54.4992 7.70002H54.3992C54.2992 7.70002 54.0992 7.70002 53.9992 7.70002C53.8992 7.70002 53.6992 7.70002 53.5992 7.80002C53.4992 7.80002 53.2992 7.90002 53.1992 7.90002C52.9992 8.00002 52.8992 8.00002 52.6992 8.10002C52.4992 8.20002 52.3992 8.30002 52.1992 8.40002L15.1992 29.7C14.9992 29.8 14.8992 29.9 14.6992 30C14.4992 30.1 14.3992 30.2 14.1992 30.3C14.1992 30.3 14.1992 30.3 14.0992 30.3C13.9992 30.4 13.7992 30.5 13.6992 30.7C13.6992 30.7 13.6992 30.7 13.5992 30.7C13.4992 30.8 13.2992 31 13.1992 31.1C13.0992 31.3 12.8992 31.4 12.7992 31.6C12.6992 31.8 12.4992 31.9 12.3992 32.1C12.2992 32.3 12.1992 32.4 11.9992 32.6C11.8992 32.7 11.8992 32.8 11.7992 32.9C11.6992 33 11.6992 33.1 11.5992 33.2C11.5992 33.2 11.5992 33.3 11.4992 33.3C11.3992 33.5 11.2992 33.6 11.1992 33.8C11.1992 33.8 11.1992 33.8 11.1992 33.9C11.0992 34.1 10.9992 34.3 10.8992 34.5C10.7992 34.7 10.6992 34.9 10.6992 35.1C10.5992 35.3 10.5992 35.5 10.4992 35.7C10.3992 35.9 10.3992 36.1 10.2992 36.3C10.2992 36.3 10.2992 36.3 10.2992 36.4C10.2992 36.6 10.1992 36.8 10.1992 37C10.1992 37.2 10.0992 37.4 10.0992 37.6C10.0992 37.8 10.0992 38 10.0992 38.2L10.9992 68.9C10.9992 69.1 10.9992 69.3 10.9992 69.5C10.9992 69.7 10.9992 69.8 11.0992 70C11.0992 70 11.0992 70 11.0992 70.1C11.0992 70.2 11.1992 70.4 11.1992 70.5C11.1992 70.5 11.1992 70.5 11.1992 70.6C11.1992 70.7 11.2992 70.8 11.2992 71C11.3992 71.1 11.3992 71.3 11.4992 71.4C11.5992 71.5 11.5992 71.6 11.6992 71.7L11.7992 71.8C11.8992 71.9 11.8992 71.9 11.9992 72C11.9992 72 12.0992 72 12.0992 72.1C12.1992 72.2 12.2992 72.2 12.3992 72.3L3.29922 67C3.19922 66.9 3.09922 66.9 2.99922 66.8C2.99922 66.8 2.89922 66.8 2.89922 66.7C2.79922 66.6 2.79922 66.6 2.69922 66.5L2.59922 66.4C2.49922 66.3 2.49922 66.2 2.39922 66.1C2.29922 66 2.29922 65.9 2.19922 65.8C2.19922 65.7 2.09922 65.6 2.09922 65.6V65.5C2.09922 65.5 2.09922 65.5 2.09922 65.4C2.09922 65.4 2.09922 65.4 2.09922 65.3C1.99922 65 1.99922 64.9 1.99922 64.8V64.7C1.99922 64.7 1.99922 64.7 1.99922 64.6V64.5C1.99922 64.4 1.99922 64.3 1.99922 64.3V64.2C1.99922 64.2 1.99922 64.2 1.99922 64.1C1.99922 64 1.99922 63.9 1.99922 63.9C1.99922 63.8 1.99922 63.7 1.99922 63.7L1.69922 32.7C1.69922 32.6 1.69922 32.5 1.69922 32.4Z" fill="white"/>
<path d="M11.7992 71.6C11.8992 71.8 11.9992 71.8 12.0992 71.9C12.0992 71.9 12.1992 71.9 12.1992 72C12.2992 72.1 12.3992 72.1 12.4992 72.2L3.39922 66.9C3.29922 66.8 3.19922 66.8 3.09922 66.7C3.09922 66.7 2.99922 66.7 2.99922 66.6C2.89922 66.5 2.89922 66.5 2.79922 66.4L2.69922 66.3C2.59922 66.2 2.59922 66.1 2.49922 66C2.39922 65.9 2.39922 65.8 2.29922 65.7C2.29922 65.6 2.19922 65.5 2.19922 65.5V65.4C2.19922 65.4 2.19922 65.4 2.19922 65.3C2.19922 65.3 2.19922 65.3 2.19922 65.2C1.99922 65 1.99922 64.9 1.99922 64.8V64.7C1.99922 64.7 1.99922 64.7 1.99922 64.6V64.5C1.99922 64.4 1.99922 64.3 1.99922 64.3V64.2C1.99922 64.2 1.99922 64.2 1.99922 64.1C1.99922 64 1.99922 63.9 1.99922 63.9C1.99922 63.8 1.99922 63.7 1.99922 63.7L1.69922 32.7C1.69922 32.6 1.69922 32.5 1.69922 32.5C1.69922 32.4 1.69922 32.3 1.69922 32.3V32.2V32.1C1.69922 32 1.69922 31.9 1.69922 31.9C1.69922 31.8 1.69922 31.7 1.69922 31.6C1.69922 31.5 1.69922 31.4 1.69922 31.4C1.69922 31.3 1.69922 31.2 1.79922 31.1V31C1.79922 31 1.79922 31 1.79922 30.9V30.8C1.79922 30.7 1.79922 30.6 1.89922 30.5C1.89922 30.4 1.89922 30.4 1.99922 30.3C1.99922 30.2 2.09922 30.1 2.09922 30C2.09922 29.9 2.19922 29.8 2.19922 29.7C2.19922 29.6 2.19922 29.6 2.29922 29.5C2.29922 29.4 2.39922 29.3 2.39922 29.3C2.39922 29.2 2.49922 29.2 2.49922 29.1C2.49922 29 2.59922 28.9 2.59922 28.9C2.59922 28.8 2.69922 28.7 2.69922 28.6C2.69922 28.6 2.69922 28.6 2.69922 28.5C2.69922 28.4 2.79922 28.4 2.79922 28.3C2.79922 28.2 2.89922 28.1 2.89922 28C2.89922 28 2.89922 27.9 2.99922 27.9C2.99922 27.9 2.99922 27.9 2.99922 27.8C2.99922 27.7 3.09922 27.7 3.09922 27.6C3.19922 27.5 3.19922 27.4 3.29922 27.3C3.29922 27.3 3.29922 27.3 3.29922 27.2C3.39922 27 3.49922 26.9 3.59922 26.7C3.69922 26.6 3.69922 26.5 3.79922 26.4C3.89922 26.3 3.89922 26.2 3.99922 26.2C4.09922 26.1 4.09922 26 4.19922 26C4.29922 25.9 4.29922 25.9 4.39922 25.8L4.49922 25.7C4.59922 25.6 4.59922 25.6 4.69922 25.5C4.69922 25.5 4.69922 25.5 4.79922 25.4C4.79922 25.4 4.79922 25.4 4.89922 25.4L4.99922 25.3C5.09922 25.2 5.09922 25.2 5.19922 25.1L5.29922 25C5.29922 25 5.29922 25 5.39922 25C5.39922 25 5.39922 25 5.49922 24.9C5.59922 24.8 5.59922 24.8 5.69922 24.7C5.79922 24.7 5.79922 24.6 5.89922 24.6C5.99922 24.6 5.99922 24.5 6.09922 24.5C6.19922 24.5 6.19922 24.4 6.29922 24.4L43.2992 3.1C43.3992 3.1 43.3992 3 43.4992 3C43.5992 3 43.5992 2.9 43.6992 2.9C43.6992 2.9 43.7992 2.9 43.7992 2.8C43.8992 2.8 43.8992 2.7 43.9992 2.7C44.0992 2.7 44.0992 2.6 44.1992 2.6H44.2992C44.3992 2.6 44.3992 2.6 44.4992 2.5H44.5992C44.5992 2.5 44.5992 2.5 44.6992 2.5C44.7992 2.5 44.7992 2.5 44.8992 2.5H44.9992C45.0992 2.5 45.1992 2.5 45.1992 2.5H45.2992H45.3992H45.4992C45.5992 2.5 45.6992 2.5 45.7992 2.5C45.7992 2.5 45.7992 2.5 45.8992 2.5C45.9992 2.5 46.0992 2.5 46.1992 2.6C46.2992 2.6 46.3992 2.7 46.4992 2.8L55.5992 8.1C55.4992 8 55.3992 8 55.2992 7.9C55.1992 7.9 55.0992 7.8 54.9992 7.8C54.9992 7.8 54.9992 7.8 54.8992 7.8C54.7992 7.8 54.6992 7.8 54.4992 7.8" stroke="#171A21" stroke-width="2" stroke-miterlimit="10" stroke-linecap="round" stroke-linejoin="round"/>
<path d="M15.8984 29.3C13.0984 30.9 10.8984 34.8 10.8984 38L10.9984 68.9C10.9984 72.1 13.2984 73.4 16.0984 71.8L34.4984 61.2L45.1984 66C45.4984 66.1 45.8984 66.1 46.2984 65.8C46.3984 65.8 46.3984 65.7 46.4984 65.7C47.3984 65 48.0984 63.7 47.9984 62.7L46.9984 53.9L52.9984 50.5C55.7984 48.9 57.9984 45 57.9984 41.8L57.8984 10.9C57.8984 7.70003 55.5984 6.40003 52.7984 8.00003L15.8984 29.3Z" fill="#FFD394"/>
<path d="M38.7 93.7C38.8 93.7 38.8 93.6 38.8 93.6C38.8 93.6 38.8 93.6 38.8 93.5V93.4C38.8 93.4 38.8 93.4 38.8 93.3C38.8 93.3 38.8 93.3 38.8 93.2C38.8 93.2 38.8 93.2 38.8 93.1C38.8 93.1 38.8 93.1 38.8 93C38.8 93 38.8 93 38.8 92.9C38.8 92.9 38.8 92.9 38.8 92.8C38.8 92.8 38.8 92.8 38.8 92.7V91.3C38.8 91.1 38.8 90.9 38.8 90.7C38.8 90.5 38.8 90.4 38.9 90.2C38.9 90.2 38.9 90.2 38.9 90.1C38.9 90 39 89.8 39 89.7C39 89.7 39 89.7 39 89.6C39 89.5 39.1 89.4 39.1 89.2C39.2 89.1 39.2 88.9 39.3 88.8C39.4 88.7 39.4 88.6 39.5 88.5L39.6 88.4C39.7 88.3 39.7 88.3 39.8 88.2C39.8 88.2 39.9 88.2 39.9 88.1C40 88 40.1 88 40.2 87.9L32.6 92.3C32.5 92.4 32.4 92.4 32.3 92.5C32.3 92.5 32.2 92.5 32.2 92.6C32.1 92.7 32.1 92.7 32 92.8L31.9 92.9C31.8 93 31.8 93.1 31.7 93.2C31.6 93.3 31.6 93.4 31.5 93.5C31.5 93.6 31.4 93.7 31.4 93.7V93.8C31.4 93.8 31.4 93.8 31.4 93.9C31.4 93.9 31.4 93.9 31.4 94C31.4 94.1 31.4 94.2 31.3 94.3V94.4C31.3 94.4 31.3 94.4 31.3 94.5V94.6C31.3 94.7 31.3 94.8 31.3 94.8V94.9C31.3 94.9 31.3 94.9 31.3 95C31.3 95.1 31.3 95.2 31.3 95.2C31.3 95.3 31.3 95.4 31.3 95.4V96.8C31.3 96.9 31.3 97 31.3 97.1C31.3 97.2 31.3 97.3 31.2 97.3C31.2 97.4 31.1 97.4 31.1 97.4L31 97.5L38.7 93.7Z" fill="#FFD394"/>
<path d="M32.9004 104.3C33.0004 104.2 33.2004 104.2 33.3004 104.1C33.4004 104.1 33.5004 104 33.6004 104C33.6004 104 33.6004 104 33.7004 104C33.8004 104 33.9004 104 34.1004 104H34.2004C34.3004 104 34.5004 104 34.6004 104C34.7004 104 34.9004 104 35.0004 104.1C35.1004 104.1 35.3004 104.2 35.4004 104.2C35.6004 104.3 35.7004 104.3 35.9004 104.4C36.1004 104.5 36.2004 104.6 36.4004 104.7C36.5004 104.7 36.5004 104.8 36.6004 104.8C36.7004 104.8 36.7004 104.9 36.8004 104.9C36.8004 104.9 36.9004 104.9 36.9004 105C37.0004 105 37.0004 105.1 37.1004 105.1C37.2004 105.1 37.2004 105.2 37.3004 105.2H37.4004C37.5004 105.2 37.5004 105.2 37.6004 105.3H37.7004C37.7004 105.3 37.7004 105.3 37.8004 105.3C37.9004 105.3 37.9004 105.3 38.0004 105.3H38.1004C38.2004 105.3 38.3004 105.3 38.3004 105.3H38.4004H38.5004H38.6004C38.7004 105.3 38.8004 105.3 38.9004 105.3C38.9004 105.3 38.9004 105.3 39.0004 105.3C39.1004 105.3 39.2004 105.3 39.3004 105.2C39.4004 105.2 39.6004 105.1 39.7004 105L47.3004 100.6C47.2004 100.7 47.0004 100.7 46.9004 100.8C46.8004 100.8 46.7004 100.9 46.6004 100.9C46.6004 100.9 46.6004 100.9 46.5004 100.9C46.4004 100.9 46.3004 100.9 46.1004 100.9H46.0004C45.9004 100.9 45.7004 100.9 45.6004 100.9C45.5004 100.9 45.3004 100.9 45.2004 100.8C45.1004 100.8 44.9004 100.7 44.8004 100.7C44.6004 100.6 44.5004 100.6 44.3004 100.5C44.1004 100.4 44.0004 100.3 43.8004 100.2C43.7004 100.2 43.7004 100.1 43.6004 100.1C43.5004 100.1 43.5004 100 43.4004 100C43.4004 100 43.3004 100 43.3004 99.9C43.2004 99.9 43.2004 99.8 43.1004 99.8C43.0004 99.8 43.0004 99.7 42.9004 99.7H42.8004C42.7004 99.7 42.7004 99.7 42.6004 99.6H42.5004C42.5004 99.6 42.5004 99.6 42.4004 99.6C42.3004 99.6 42.3004 99.6 42.2004 99.6H42.1004C42.0004 99.6 41.9004 99.6 41.9004 99.6H41.8004H41.7004H41.6004C41.5004 99.6 41.4004 99.6 41.3004 99.6C41.3004 99.6 41.3004 99.6 41.2004 99.6C41.1004 99.6 41.0004 99.6 40.9004 99.7C40.8004 99.7 40.6004 99.8 40.5004 99.9L32.9004 104.3Z" fill="#FFD394"/>
<path d="M56.7 101.1V101C56.7 100.9 56.7 100.8 56.7 100.8C56.7 100.7 56.7 100.6 56.7 100.5C56.7 100.4 56.7 100.4 56.7 100.3C56.7 100.2 56.7 100.1 56.7 100.1C56.7 100 56.7 100 56.7 99.9C56.7 99.8 56.7 99.7 56.7 99.5C56.7 99.4 56.7 99.4 56.7 99.3C56.7 99.3 56.7 99.3 56.7 99.2C56.7 99 56.6 98.8 56.6 98.6V98.5C56.6 98.3 56.5 98.2 56.5 98V97.9C56.5 97.8 56.5 97.7 56.4 97.6C56.4 97.5 56.4 97.4 56.3 97.3C56.3 97.2 56.3 97.2 56.3 97.1C56.3 97 56.3 96.9 56.2 96.8C56.2 96.7 56.2 96.7 56.2 96.6C56.2 96.5 56.2 96.4 56.1 96.3C56.1 96.2 56.1 96.1 56 96V95.9C56 95.8 55.9 95.7 55.9 95.5C55.9 95.4 55.9 95.3 55.8 95.3C55.8 95.3 55.8 95.3 55.8 95.2C55.7 95 55.7 94.8 55.6 94.5V94.4C55.5 94.2 55.5 94 55.4 93.8V93.7C55.4 93.6 55.3 93.6 55.3 93.5C55.3 93.4 55.2 93.3 55.2 93.2C55.2 93.1 55.1 93.1 55.1 93C55.1 92.9 55 92.8 55 92.8C55 92.7 55 92.7 54.9 92.6C54.9 92.5 54.8 92.4 54.7 92.2C54.7 92.1 54.6 92.1 54.6 92C54.6 92 54.6 92 54.6 91.9C54.5 91.7 54.4 91.5 54.3 91.3C54.3 91.2 54.2 91.2 54.2 91.1C54.1 90.9 54.1 90.8 54 90.6C54 90.6 54 90.6 54 90.5C53.9 90.4 53.9 90.2 53.8 90.1C53.7 90 53.7 89.9 53.6 89.8C53.6 89.8 53.6 89.8 53.6 89.7C53.4 89.4 53.2 89 53.1 88.7V88.6C53.1 88.6 53.1 88.5 53 88.5C52.7 88 52.5 87.6 52.2 87.2V87.1L52.1 87C51.9 86.7 51.6 86.3 51.4 86C51.4 86 51.4 85.9 51.3 85.9C51.1 85.7 51 85.5 50.8 85.3C50.7 85.1 50.6 85 50.4 84.8L50.3 84.7C50.1 84.5 50 84.3 49.8 84.1C49.8 84 49.7 84 49.7 83.9C49.6 83.8 49.5 83.7 49.4 83.5C49.4 83.5 49.4 83.5 49.3 83.4C49.2 83.3 49.2 83.3 49.1 83.2C49 83.1 48.9 83 48.9 82.9L48.8 82.8C48.7 82.7 48.6 82.6 48.6 82.6C48.5 82.5 48.5 82.5 48.4 82.4L48.3 82.3C48.2 82.2 48.1 82.1 48 82.1C47.9 82 47.9 82 47.8 81.9L47.7 81.8C47.6 81.7 47.5 81.6 47.4 81.6C47.3 81.6 47.3 81.5 47.2 81.5C47.1 81.5 47.1 81.4 47 81.4C46.9 81.3 46.8 81.3 46.7 81.2L46.6 81.1C46.5 81 46.5 81 46.4 80.9C46.3 80.8 46.2 80.8 46.2 80.7L46.1 80.6C46 80.5 45.9 80.5 45.8 80.4C45.7 80.4 45.7 80.3 45.6 80.3C45.6 80.3 45.6 80.3 45.5 80.3C45.3 80.2 45.1 80.1 45 79.9C44.8 79.8 44.7 79.7 44.5 79.6C44.5 79.6 44.4 79.6 44.4 79.5C44.3 79.4 44.1 79.3 44 79.3C43.9 79.3 43.9 79.2 43.8 79.2C43.7 79.2 43.7 79.1 43.6 79.1C43.5 79.1 43.5 79 43.4 79C43.3 79 43.2 78.9 43.1 78.9C43 78.9 43 78.8 42.9 78.8C42.9 78.8 42.9 78.8 42.8 78.8C42.6 78.7 42.5 78.7 42.3 78.6C42.1 78.5 42 78.5 41.8 78.4C41.8 78.4 41.8 78.4 41.7 78.4C41.6 78.4 41.6 78.4 41.5 78.3C41.4 78.3 41.3 78.2 41.2 78.2H41.1C41 78.2 41 78.2 40.9 78.1C40.8 78.1 40.8 78.1 40.7 78.1C40.6 78.1 40.6 78.1 40.5 78.1C40.4 78.1 40.4 78.1 40.3 78.1H40.2C40.1 78.1 40.1 78.1 40 78.1C39.9 78.1 39.8 78.1 39.7 78.1H39.6C39.5 78.1 39.5 78.1 39.4 78.1C39.3 78.1 39.2 78.1 39.1 78.1H39C38.9 78.1 38.9 78.1 38.8 78.1C38.7 78.1 38.6 78.1 38.5 78.1H38.4H38.3C38.2 78.1 38 78.1 37.9 78.1H37.8H37.7C37.5 78.1 37.3 78.1 37.1 78.2C37.1 78.2 37.1 78.2 37 78.2H36.9C36.8 78.2 36.7 78.3 36.6 78.3C36.5 78.3 36.5 78.3 36.4 78.4C36.3 78.4 36.3 78.4 36.2 78.5C36.2 78.5 36.2 78.5 36.1 78.5C36 78.5 35.9 78.6 35.8 78.6C35.7 78.6 35.7 78.6 35.6 78.7C35.4 78.8 35.3 78.9 35.1 78.9L27.5 83.3C27.7 83.2 27.8 83.1 28 83.1C28.1 83.1 28.1 83.1 28.2 83C28.3 83 28.4 82.9 28.5 82.9C28.6 82.9 28.7 82.8 28.8 82.8C28.9 82.8 28.9 82.8 29 82.7C29.1 82.7 29.2 82.6 29.3 82.6H29.4C29.4 82.6 29.4 82.6 29.5 82.6C29.7 82.6 29.9 82.5 30.1 82.5C30.2 82.5 30.2 82.5 30.3 82.5C30.4 82.5 30.6 82.5 30.7 82.5C30.8 82.5 30.8 82.5 30.9 82.5C31 82.5 31.1 82.5 31.2 82.5C31.3 82.5 31.4 82.5 31.5 82.5C31.6 82.5 31.7 82.5 31.8 82.5C31.9 82.5 32 82.5 32.1 82.5C32.2 82.5 32.3 82.5 32.4 82.5C32.5 82.5 32.6 82.5 32.7 82.6C32.8 82.6 32.8 82.6 32.9 82.6C33 82.6 33.1 82.7 33.2 82.7C33.3 82.7 33.3 82.7 33.4 82.8C33.5 82.8 33.7 82.9 33.8 82.9C33.9 82.9 33.9 82.9 34 83C34.2 83.1 34.4 83.1 34.5 83.2C34.7 83.3 34.9 83.4 35.1 83.4C35.2 83.4 35.2 83.5 35.3 83.5C35.4 83.6 35.6 83.6 35.7 83.7C35.8 83.7 35.8 83.8 35.9 83.8C36.1 83.9 36.3 84 36.5 84.1C36.7 84.2 36.9 84.3 37.1 84.5C37.3 84.6 37.5 84.8 37.7 84.9C37.8 84.9 37.8 85 37.9 85C38 85.1 38.2 85.2 38.3 85.3C38.4 85.4 38.5 85.4 38.5 85.5C38.6 85.6 38.7 85.7 38.9 85.8C39 85.9 39.1 85.9 39.2 86C39.3 86.1 39.4 86.2 39.5 86.3C39.6 86.4 39.7 86.4 39.8 86.5C39.9 86.6 40 86.7 40.1 86.8C40.2 86.9 40.3 87 40.4 87C40.5 87.1 40.6 87.2 40.7 87.3C40.8 87.4 40.9 87.5 40.9 87.5C41 87.6 41.1 87.7 41.2 87.8C41.3 87.9 41.3 87.9 41.4 88C41.5 88.1 41.7 88.3 41.8 88.4C41.8 88.5 41.9 88.5 41.9 88.6C42.1 88.8 42.2 89 42.4 89.2L42.5 89.3C42.6 89.5 42.8 89.6 42.9 89.8C43.1 90 43.2 90.2 43.4 90.4C43.4 90.4 43.4 90.5 43.5 90.5C43.7 90.8 44 91.2 44.2 91.5C44.2 91.6 44.3 91.6 44.3 91.7C44.6 92.1 44.9 92.6 45.1 93C45.1 93.1 45.2 93.1 45.2 93.2C45.4 93.5 45.6 93.8 45.7 94.2C45.8 94.3 45.8 94.4 45.9 94.6C46 94.7 46 94.9 46.1 95C46.2 95.2 46.3 95.4 46.4 95.5C46.4 95.6 46.5 95.6 46.5 95.7C46.6 95.9 46.7 96.2 46.8 96.4C46.8 96.5 46.9 96.5 46.9 96.6C47 96.8 47 97 47.1 97.1C47.1 97.2 47.2 97.3 47.2 97.3C47.3 97.5 47.3 97.6 47.4 97.8C47.4 97.9 47.5 97.9 47.5 98C47.6 98.2 47.7 98.4 47.7 98.6V98.7C47.8 98.9 47.9 99.2 47.9 99.4C47.9 99.5 47.9 99.6 48 99.6C48 99.8 48.1 99.9 48.1 100.1C48.1 100.2 48.1 100.3 48.2 100.4C48.2 100.6 48.3 100.7 48.3 100.9C48.3 101 48.3 101.1 48.4 101.2C48.4 101.4 48.5 101.5 48.5 101.7C48.5 101.8 48.5 101.9 48.6 102C48.6 102.2 48.7 102.4 48.7 102.6V102.7C48.7 102.9 48.8 103.2 48.8 103.4C48.8 103.5 48.8 103.5 48.8 103.6C48.8 103.8 48.8 103.9 48.9 104.1C48.9 104.2 48.9 104.3 48.9 104.3C48.9 104.5 48.9 104.6 48.9 104.8C48.9 104.9 48.9 105 48.9 105C48.9 105.2 48.9 105.5 48.9 105.7C48.9 105.9 48.9 106.2 48.9 106.4C48.9 106.5 48.9 106.5 48.9 106.6C48.9 106.8 48.9 106.9 48.9 107.1C48.9 107.2 48.9 107.3 48.9 107.4C48.9 107.5 48.9 107.7 48.9 107.8C48.9 107.9 48.9 108 48.9 108.1C48.9 108.2 48.9 108.3 48.8 108.4C48.8 108.5 48.8 108.6 48.7 108.7C48.7 108.8 48.7 108.9 48.6 109C48.6 109.1 48.5 109.2 48.5 109.3C48.5 109.4 48.5 109.5 48.4 109.6C48.4 109.7 48.3 109.9 48.3 110C48.3 110.1 48.3 110.1 48.2 110.2C48.1 110.4 48 110.6 47.9 110.8C47.8 110.9 47.8 111.1 47.7 111.2C47.7 111.2 47.7 111.2 47.7 111.3C47.6 111.4 47.5 111.6 47.4 111.7C47.3 111.9 47.1 112.1 47 112.3L46.9 112.4C46.8 112.6 46.6 112.7 46.5 112.9V109.6L38.9 114V116.8L32.4 120.6C32.5 120.5 32.6 120.5 32.7 120.5C32.8 120.5 32.8 120.5 32.9 120.4C32.9 120.4 32.9 120.4 33 120.4C33.1 120.4 33.2 120.4 33.3 120.4C33.3 120.4 33.3 120.4 33.4 120.4C33.5 120.4 33.6 120.4 33.7 120.4C33.8 120.4 33.9 120.4 34 120.4C34.1 120.4 34.2 120.5 34.3 120.5C34.4 120.5 34.5 120.6 34.7 120.6C34.8 120.7 34.9 120.7 35.1 120.8C35.2 120.9 35.4 121 35.5 121C35.6 121.1 35.7 121.2 35.8 121.3C35.9 121.4 36 121.5 36.1 121.6C36.2 121.7 36.3 121.8 36.4 121.9C36.5 122 36.6 122.1 36.7 122.3C36.8 122.4 36.9 122.6 37 122.7C37.1 122.8 37.2 122.9 37.3 123.1C37.4 123.2 37.4 123.3 37.5 123.3C37.5 123.4 37.6 123.4 37.6 123.5C37.6 123.5 37.6 123.6 37.7 123.6C37.8 123.7 37.8 123.8 37.9 124C38 124.1 38 124.3 38.1 124.4C38.2 124.5 38.2 124.7 38.3 124.8C38.4 124.9 38.4 125.1 38.5 125.3C38.5 125.4 38.6 125.6 38.6 125.7C38.6 125.8 38.7 126 38.7 126.1C38.7 126.2 38.7 126.4 38.8 126.5C38.8 126.6 38.8 126.8 38.8 126.9C38.8 127 38.8 127.2 38.8 127.3C38.8 127.4 38.8 127.5 38.7 127.7C38.7 127.8 38.7 127.9 38.6 128C38.6 128 38.6 128 38.6 128.1C38.6 128.2 38.5 128.3 38.5 128.4C38.5 128.5 38.4 128.6 38.3 128.7C38.3 128.8 38.2 128.8 38.2 128.9C38.2 128.9 38.2 128.9 38.1 129L38 129.1C38 129.1 38 129.1 37.9 129.2C37.8 129.3 37.8 129.3 37.7 129.4L45.3 125C45.4 125 45.4 124.9 45.5 124.8C45.5 124.8 45.5 124.8 45.6 124.7L45.7 124.6C45.7 124.6 45.7 124.6 45.8 124.5C45.9 124.4 45.9 124.4 45.9 124.3C46 124.2 46 124.1 46 124C46 123.9 46.1 123.9 46.1 123.8V123.7C46.1 123.7 46.1 123.7 46.1 123.6C46.1 123.6 46.1 123.6 46.1 123.5C46.1 123.4 46.1 123.4 46.2 123.3C46.2 123.3 46.2 123.3 46.2 123.2C46.2 123.2 46.2 123.2 46.2 123.1C46.2 123 46.2 123 46.2 122.9V122.8C46.2 122.7 46.2 122.7 46.2 122.6C46.2 122.5 46.2 122.5 46.2 122.4C46.2 122.3 46.2 122.3 46.2 122.2C46.2 122.1 46.2 122.1 46.2 122V121.9C46.2 121.9 46.2 121.9 46.2 121.8C46.2 121.7 46.2 121.7 46.2 121.6C46.2 121.5 46.2 121.5 46.2 121.4C46.2 121.3 46.2 121.3 46.2 121.2C46.2 121.1 46.2 121.1 46.2 121C46.2 121 46.2 121 46.2 120.9V120.8C46.2 120.7 46.2 120.7 46.1 120.6V120.5C46.1 120.4 46.1 120.4 46 120.3C46 120.2 46 120.2 45.9 120.1V120C45.9 119.9 45.9 119.9 45.8 119.8C45.8 119.8 45.8 119.7 45.7 119.7C45.7 119.6 45.6 119.6 45.6 119.5C45.6 119.4 45.5 119.4 45.5 119.3C45.5 119.2 45.4 119.2 45.4 119.1C45.4 119 45.3 119 45.3 118.9C45.3 118.9 45.3 118.8 45.2 118.8C45.2 118.7 45.1 118.7 45.1 118.6C45 118.5 45 118.4 44.9 118.4C44.8 118.3 44.8 118.2 44.7 118.1C44.6 118 44.6 118 44.5 117.9C44.5 117.8 44.4 117.8 44.4 117.7C44.4 117.6 44.3 117.6 44.3 117.5C44.3 117.4 44.2 117.4 44.2 117.3L44.1 117.2C44 117.1 44 117.1 43.9 117L43.8 116.9C43.7 116.9 43.7 116.8 43.6 116.8C43.6 116.8 43.6 116.8 43.5 116.7C43.5 116.7 43.5 116.7 43.4 116.7C43.3 116.7 43.3 116.6 43.2 116.6L46.1 114.9C46.2 114.9 46.2 114.8 46.2 114.8C46.2 114.8 46.2 114.8 46.2 114.7V114.6C46.2 114.6 46.2 114.6 46.2 114.5C46.2 114.5 46.2 114.5 46.2 114.4C46.2 114.4 46.2 114.4 46.2 114.3C46.2 114.3 46.2 114.3 46.2 114.2C46.2 114.2 46.2 114.2 46.2 114.1C46.2 114.1 46.2 114.1 46.2 114C46.2 114 46.2 114 46.2 113.9V112.7L52.7 108.9C52.9 108.8 53.1 108.7 53.3 108.5L53.4 108.4C53.6 108.3 53.7 108.1 53.9 108C54.1 107.8 54.2 107.7 54.3 107.5L54.4 107.4C54.5 107.2 54.7 107 54.8 106.8C54.9 106.7 55 106.5 55 106.4C55 106.4 55 106.4 55 106.3C55.1 106.2 55.1 106.1 55.2 105.9C55.3 105.7 55.4 105.5 55.5 105.3C55.5 105.3 55.5 105.3 55.5 105.2C55.5 105.2 55.5 105.1 55.6 105C55.6 104.9 55.7 104.7 55.7 104.6V104.5C55.7 104.4 55.7 104.4 55.7 104.3C55.7 104.2 55.8 104.1 55.8 104V103.9C55.8 103.8 55.8 103.8 55.8 103.7C55.8 103.6 55.8 103.5 55.9 103.4C55.9 103.3 55.9 103.3 55.9 103.3C55.9 103.2 55.9 103.2 55.9 103.1C55.9 103 55.9 102.9 55.9 102.8V102.7C55.9 102.6 55.9 102.5 55.9 102.5C55.9 102.4 55.9 102.3 55.9 102.2V102.1C55.9 102 55.9 101.9 55.9 101.7C55.9 101.6 55.9 101.6 55.9 101.5C55.9 101.3 55.9 101.1 55.9 100.9C56.7 101.5 56.7 101.3 56.7 101.1Z" fill="#FFD394"/>
<path d="M35.2004 121.3C37.3004 122.5 39.0004 125.4 39.0004 127.8C39.0004 130.2 37.3004 131.2 35.2004 130C33.1004 128.8 31.4004 125.9 31.4004 123.5C31.4004 121.1 33.1004 120.1 35.2004 121.3Z" fill="white"/>
<path d="M36.5004 84.3C43.5004 88.3 49.1004 98.1 49.1004 106.1C49.1004 113.1 44.8004 116.5 39.0004 114.5V119.1C39.0004 119.9 38.4004 120.2 37.7004 119.8L32.7004 116.9C32.0004 116.5 31.4004 115.5 31.4004 114.7V107.5C31.4004 104.3 33.7004 103 36.5004 104.6C39.3004 106.2 41.6004 104.9 41.6004 101.7C41.6004 98.5 39.4004 94.6 36.6004 93C33.8004 91.4 31.5004 92.7 31.5004 95.9V97.3C31.5004 98.1 30.9004 98.4 30.2004 98L25.2004 95.1C24.5004 94.7 23.9004 93.7 23.9004 92.9V91.5C23.9004 83.6 29.6004 80.3 36.5004 84.3Z" fill="white"/>
<path d="M39.0004 127.8C39.0004 130.2 37.3004 131.2 35.2004 130C33.1004 128.8 31.4004 125.9 31.4004 123.5C31.4004 121.1 33.1004 120.1 35.2004 121.3" fill="white"/>
<path d="M39.0004 127.8C39.0004 130.2 37.3004 131.2 35.2004 130C33.1004 128.8 31.4004 125.9 31.4004 123.5C31.4004 121.1 33.1004 120.1 35.2004 121.3" stroke="#171A21" stroke-width="2" stroke-miterlimit="10" stroke-linecap="round" stroke-linejoin="round"/>
<path d="M49.1004 106.1C49.1004 107.5 48.9004 108.8 48.6004 109.9C47.3004 114.2 43.6004 116.1 39.0004 114.5V119.1C39.0004 119.9 38.4004 120.2 37.7004 119.8L32.7004 116.9C32.0004 116.5 31.4004 115.5 31.4004 114.7V107.5C31.4004 104.3 33.7004 103 36.5004 104.6C39.3004 106.2 41.6004 104.9 41.6004 101.7C41.6004 98.5 39.4004 94.6 36.6004 93C33.8004 91.4 31.5004 92.7 31.5004 95.9V97.3C31.5004 98.1 30.9004 98.4 30.2004 98L25.2004 95.1C24.5004 94.7 23.9004 93.7 23.9004 92.9V91.5C23.9004 83.5 29.6004 80.3 36.5004 84.3" fill="white"/>
<path d="M49.1004 106.1C49.1004 107.5 48.9004 108.8 48.6004 109.9C47.3004 114.2 43.6004 116.1 39.0004 114.5V119.1C39.0004 119.9 38.4004 120.2 37.7004 119.8L32.7004 116.9C32.0004 116.5 31.4004 115.5 31.4004 114.7V107.5C31.4004 104.3 33.7004 103 36.5004 104.6C39.3004 106.2 41.6004 104.9 41.6004 101.7C41.6004 98.5 39.4004 94.6 36.6004 93C33.8004 91.4 31.5004 92.7 31.5004 95.9V97.3C31.5004 98.1 30.9004 98.4 30.2004 98L25.2004 95.1C24.5004 94.7 23.9004 93.7 23.9004 92.9V91.5C23.9004 83.5 29.6004 80.3 36.5004 84.3" stroke="#171A21" stroke-width="2" stroke-miterlimit="10" stroke-linecap="round" stroke-linejoin="round"/>
</svg>
