<svg width="144" height="144" viewBox="0 0 144 144" fill="none" xmlns="http://www.w3.org/2000/svg">
<path d="M138.8 25.4C139.8 26 141 27.1 141.4 28.2C141.9 29.7 141.7 47.3 141.7 54.3C141.8 73.7 142 93 142.1 112.4C142.1 114.5 142.1 116.6 142.1 118.8C142.1 119.7 142.3 120.6 141.7 121.3C140.6 122.6 138.1 123.4 136.7 124.2C138.8 123 137.8 117 137.8 115.2C137.8 107.7 137.8 100.1 137.8 92.6C137.8 75.5 137.8 58.5 137.7 41.4C137.7 39.4 137.7 37.3 137.7 35.3C137.7 34.8 137.7 34.3 137.6 33.8C137.4 32.6 137.3 32.6 136.3 32.4C135.9 32.3 133.5 32.3 133.5 31.9C133.5 31.7 135.3 31.5 135.6 31.3C136.4 30.7 136.3 30.6 135.7 29.7C135.1 28.9 134.3 28.4 133.5 27.9C130.6 26.1 127.5 24.5 124.5 22.8C115.1 17.4 105.7 12.1 96.3004 6.69997C94.9004 5.89997 91.7004 3.29997 89.9004 4.29997C92.2004 2.99997 94.7004 0.599972 97.4004 1.69997C99.6004 2.59997 101.6 4.09997 103.7 5.29997C112.9 10.6 122.1 15.9 131.3 21.1C133.8 22.6 136.3 23.9 138.8 25.4Z" fill="#98A2F4"/>
<path d="M137.7 34.7C137.7 32.3 136 29.3 133.9 28.1L92.7004 4.59997C90.6004 3.39997 88.9004 4.39997 88.9004 6.79997L89.0004 93.8C89.0004 96.2 90.7004 99.2 92.8004 100.4L134 123.9C136.1 125.1 137.8 124.1 137.8 121.7L137.7 34.7Z" fill="white"/>
<path d="M92.7004 4.59997C90.6004 3.39997 88.9004 4.39997 88.9004 6.79997L89.0004 93.8C89.0004 96.2 90.7004 99.2 92.8004 100.4L134 123.9C136.1 125.1 137.8 124.1 137.8 121.7" stroke="#171A21" stroke-width="2" stroke-miterlimit="10" stroke-linecap="round" stroke-linejoin="round"/>
<path d="M132.7 37.2L132.8 103.8C132.8 105.5 131.6 106.2 130.1 105.4L96.7004 86.3C95.2004 85.4 94.0004 83.4 94.0004 81.6L93.9004 15C93.9004 13.3 95.1004 12.6 96.6004 13.4L130 32.6C131.4 33.4 132.7 35.5 132.7 37.2Z" fill="#98A2F4"/>
<path d="M118.401 105.4C118.401 106.6 117.501 107.1 116.501 106.5L110.201 102.9C109.101 102.3 108.301 100.8 108.301 99.6C108.301 98.4 109.201 97.9 110.201 98.5L116.501 102.1C117.601 102.7 118.401 104.2 118.401 105.4Z" fill="#171A21"/>
<path d="M122.4 76.9L102 65.4C100.9 64.8 99.5996 65.6 99.5996 66.8V68.5C99.5996 70.2 100.5 71.9 102 72.7L122.4 84.2C123.5 84.8 124.8 84.1 124.8 82.8V81.1C124.9 79.4 123.9 77.8 122.4 76.9Z" fill="#EAECFD"/>
<path d="M122.4 87.0999L102 75.5999C100.9 74.9999 99.5996 75.7999 99.5996 76.9999V78.6999C99.5996 80.3999 100.5 82.0999 102 82.8999L122.4 94.3999C123.5 94.9999 124.8 94.2999 124.8 92.9999V91.2999C124.9 89.6999 123.9 87.9999 122.4 87.0999Z" fill="#EAECFD"/>
<path d="M121.6 34.6999L102.8 23.9999C101.4 23.1999 99.5996 24.1999 99.5996 25.7999V54.7999C99.5996 57.0999 100.8 59.1999 102.8 60.2999L121.6 70.9999C123 71.7999 124.8 70.7999 124.8 69.1999V40.1999C124.9 37.8999 123.6 35.7999 121.6 34.6999Z" fill="#EAECFD"/>
<path d="M7.79883 107C7.79883 106.8 7.79883 106.7 7.79883 106.5V106.4C7.79883 106.3 7.79883 106.1 7.89883 106V105.9C7.89883 105.7 7.99883 105.6 7.99883 105.4V105.3C7.99883 105.2 8.09883 105 8.09883 104.9C8.09883 104.9 8.09883 104.9 8.09883 104.8C8.19883 104.6 8.19883 104.5 8.29883 104.3V104.2C8.39883 104.1 8.39883 103.9 8.49883 103.8V103.7C8.59883 103.5 8.59883 103.4 8.69883 103.2C8.69883 103.2 8.69883 103.1 8.79883 103.1C8.89883 103 8.89883 102.9 8.99883 102.7L9.09883 102.6C9.19883 102.4 9.29883 102.3 9.39883 102.1C9.49883 102 9.59883 101.8 9.69883 101.7L9.79883 101.6C9.89883 101.5 9.99883 101.4 9.99883 101.3C10.0988 101.2 10.0988 101.2 10.1988 101.1C10.2988 101 10.3988 100.9 10.3988 100.8C10.4988 100.7 10.4988 100.7 10.5988 100.6C10.6988 100.5 10.7988 100.4 10.8988 100.3C10.9988 100.2 10.9988 100.2 11.0988 100.1C11.1988 100 11.2988 99.9 11.3988 99.8L11.4988 99.7C11.5988 99.6 11.7988 99.4 11.8988 99.3L11.9988 99.2C12.0988 99.1 12.1988 99.1 12.2988 99C12.3988 99 12.3988 98.9 12.4988 98.9C12.5988 98.8 12.6988 98.8 12.7988 98.7C12.8988 98.7 12.8988 98.6 12.9988 98.6C13.0988 98.5 13.1988 98.5 13.2988 98.4C13.3988 98.4 13.3988 98.3 13.4988 98.3C13.5988 98.2 13.6988 98.1 13.7988 98.1L13.8988 98C14.0988 97.9 14.1988 97.8 14.3988 97.7C14.3988 97.7 14.4988 97.7 14.4988 97.6C14.5988 97.5 14.7988 97.4 14.8988 97.4C15.0988 97.3 15.2988 97.2 15.4988 97.1H15.5988C15.7988 97 15.9988 96.9 16.0988 96.8C16.1988 96.8 16.1988 96.7 16.2988 96.7C16.3988 96.6 16.5988 96.6 16.6988 96.5C16.7988 96.5 16.8988 96.4 16.8988 96.4C16.9988 96.3 17.1988 96.3 17.2988 96.2C17.3988 96.2 17.3988 96.1 17.4988 96.1C17.6988 96 17.8988 95.9 18.0988 95.9C18.0988 95.9 18.1988 95.9 18.1988 95.8C18.3988 95.7 18.6988 95.6 18.8988 95.5C18.9988 95.5 18.9988 95.4 19.0988 95.4C19.2988 95.3 19.3988 95.3 19.5988 95.2C19.6988 95.2 19.7988 95.1 19.8988 95.1C20.0988 95 20.1988 95 20.3988 94.9C20.4988 94.9 20.5988 94.8 20.5988 94.8C20.8988 94.7 21.1988 94.6 21.5988 94.5C21.6988 94.5 21.6988 94.5 21.7988 94.4C22.0988 94.3 22.4988 94.2 22.7988 94.1C23.1988 94 23.4988 93.9 23.8988 93.8C23.9988 93.8 23.9988 93.8 24.0988 93.8C24.4988 93.7 24.7988 93.7 25.1988 93.6C25.2988 93.6 25.3988 93.6 25.4988 93.5C25.5988 93.5 25.7988 93.5 25.8988 93.4C25.9988 93.4 26.0988 93.4 26.2988 93.3C26.3988 93.3 26.5988 93.3 26.6988 93.2C26.7988 93.2 26.8988 93.2 27.0988 93.1C27.1988 93.1 27.3988 93.1 27.4988 93C27.5988 93 27.6988 93 27.8988 93C27.9988 93 28.1988 93 28.2988 93C28.3988 93 28.4988 93 28.5988 93C28.9988 93 29.3988 92.9 29.7988 92.9C29.8988 92.9 29.8988 92.9 29.9988 92.9C30.3988 92.9 30.7988 92.9 31.1988 92.8C31.3988 92.8 31.4988 92.8 31.6988 92.8C31.7988 92.8 31.8988 92.8 31.9988 92.8C32.2988 92.8 32.4988 92.8 32.7988 92.8C33.1988 92.8 33.5988 92.8 33.9988 92.8C34.1988 92.8 34.3988 92.8 34.5988 92.8C34.7988 92.8 35.0988 92.8 35.2988 92.8C35.4988 92.8 35.6988 92.8 35.8988 92.8C36.0988 92.8 36.2988 92.8 36.5988 92.8C36.7988 92.8 36.9988 92.8 37.1988 92.9C37.3988 92.9 37.5988 92.9 37.7988 93C37.9988 93 38.1988 93 38.3988 93.1C38.5988 93.1 38.7988 93.2 38.9988 93.2C39.1988 93.2 39.4988 93.3 39.6988 93.3C39.8988 93.3 40.0988 93.4 40.1988 93.4C40.3988 93.4 40.6988 93.5 40.8988 93.5C41.0988 93.5 41.1988 93.6 41.3988 93.6C41.7988 93.7 42.1988 93.8 42.5988 93.9H42.6988C43.0988 94 43.4988 94.1 43.7988 94.2C44.0988 94.3 44.3988 94.4 44.6988 94.5C44.7988 94.5 44.7988 94.5 44.8988 94.6C45.1988 94.7 45.3988 94.8 45.6988 94.9C45.7988 94.9 45.8988 95 45.9988 95C46.2988 95.1 46.4988 95.2 46.7988 95.3C46.7988 95.3 46.8988 95.3 46.8988 95.4C47.0988 95.5 47.2988 95.6 47.4988 95.6C47.5988 95.7 47.7988 95.7 47.8988 95.8C48.0988 95.9 48.2988 96 48.4988 96.1C48.5988 96.2 48.7988 96.2 48.8988 96.3C49.0988 96.4 49.2988 96.5 49.4988 96.6C49.5988 96.7 49.6988 96.7 49.7988 96.8C50.0988 97 50.3988 97.1 50.6988 97.3C50.7988 97.4 50.9988 97.5 51.0988 97.5L51.1988 97.6C51.2988 97.7 51.3988 97.7 51.4988 97.8C51.5988 97.8 51.5988 97.9 51.6988 97.9C51.7988 98 51.8988 98 51.8988 98.1C51.9988 98.1 51.9988 98.2 52.0988 98.2C52.1988 98.2 52.1988 98.3 52.2988 98.3C52.3988 98.3 52.3988 98.4 52.4988 98.4C52.5988 98.4 52.5988 98.5 52.6988 98.5C52.7988 98.5 52.7988 98.6 52.8988 98.6C52.9988 98.6 52.9988 98.7 53.0988 98.7C53.1988 98.7 53.1988 98.8 53.2988 98.8C53.3988 98.9 53.3988 98.9 53.4988 99C53.5988 99 53.5988 99.1 53.6988 99.1C53.7988 99.2 53.7988 99.2 53.8988 99.3C53.9988 99.3 53.9988 99.4 53.9988 99.4C54.0988 99.5 54.0988 99.5 54.1988 99.6L54.2988 99.7C54.3988 99.8 54.3988 99.8 54.4988 99.9L54.5988 100C54.6988 100.1 54.6988 100.1 54.7988 100.2L54.8988 100.3C54.9988 100.4 54.9988 100.4 55.0988 100.5L55.1988 100.6C55.2988 100.7 55.2988 100.7 55.3988 100.8L55.4988 100.9C55.5988 101 55.5988 101 55.6988 101.1L55.7988 101.2C55.8988 101.3 55.9988 101.4 55.9988 101.5C56.0988 101.6 56.1988 101.7 56.1988 101.8C56.1988 101.8 56.1988 101.9 56.2988 101.9C56.3988 102 56.3988 102 56.4988 102.1L56.5988 102.2C56.5988 102.3 56.6988 102.3 56.6988 102.4L56.7988 102.5C56.7988 102.6 56.8988 102.6 56.8988 102.7L56.9988 102.8C56.9988 102.9 57.0988 102.9 57.0988 103L57.1988 103.1C57.1988 103.2 57.2988 103.2 57.2988 103.3C57.2988 103.4 57.3988 103.4 57.3988 103.5C57.3988 103.6 57.4988 103.6 57.4988 103.7C57.4988 103.8 57.4988 103.8 57.5988 103.9C57.5988 104 57.6988 104 57.6988 104.1C57.6988 104.2 57.6988 104.2 57.7988 104.3C57.7988 104.4 57.7988 104.4 57.8988 104.5C57.8988 104.6 57.8988 104.6 57.9988 104.7C57.9988 104.8 57.9988 104.8 58.0988 104.9C58.0988 105 58.0988 105 58.1988 105.1C58.1988 105.2 58.1988 105.2 58.2988 105.3C58.2988 105.4 58.2988 105.4 58.2988 105.5C58.2988 105.6 58.2988 105.6 58.3988 105.7C58.3988 105.7 58.3988 105.8 58.3988 105.9C58.3988 106 58.3988 106 58.3988 106.1V106.2C58.3988 106.3 58.3988 106.4 58.3988 106.4V106.5C58.3988 106.6 58.3988 106.7 58.3988 106.8C58.3988 106.9 58.3988 107 58.3988 107V107.1C58.3988 107.2 58.3988 107.3 58.3988 107.5C58.3988 107.2 58.3988 106.9 58.3988 106.5V106.1C58.3988 105.7 58.3988 105.3 58.3988 104.9V104.3C58.3988 104.1 58.3988 104 58.3988 103.8V103.2C58.3988 102.8 58.3988 102.3 58.3988 101.9V101.4C58.3988 101.2 58.3988 101 58.3988 100.8V99.6C58.3988 99.5 58.3988 99.3 58.3988 99.2V98.2C58.3988 98.1 58.3988 97.9 58.3988 97.8C58.3988 97.8 58.3988 97.8 58.3988 97.7C58.3988 97.6 58.3988 97.5 58.3988 97.4C58.3988 97.3 58.3988 97.2 58.3988 97.1V97C58.3988 96.9 58.3988 96.8 58.3988 96.8V96.7C58.3988 96.6 58.3988 96.6 58.3988 96.5V96.4C58.3988 96.3 58.3988 96.3 58.2988 96.2C58.2988 96.1 58.2988 96.1 58.2988 96C58.2988 95.9 58.2988 95.9 58.1988 95.8C58.1988 95.7 58.1988 95.7 58.1988 95.6C58.1988 95.5 58.1988 95.5 58.0988 95.4C58.0988 95.3 58.0988 95.3 57.9988 95.2C57.9988 95.1 57.9988 95.1 57.8988 95C57.8988 94.9 57.8988 94.9 57.7988 94.8C57.7988 94.7 57.6988 94.7 57.6988 94.6C57.6988 94.5 57.6988 94.5 57.5988 94.4C57.5988 94.3 57.4988 94.3 57.4988 94.2C57.4988 94.1 57.4988 94.1 57.3988 94C57.3988 93.9 57.2988 93.9 57.2988 93.8L57.1988 93.7C57.1988 93.6 57.0988 93.6 57.0988 93.5L56.9988 93.4C56.9988 93.3 56.8988 93.3 56.8988 93.2L56.7988 93.1C56.7988 93 56.6988 93 56.6988 92.9L56.5988 92.8C56.5988 92.7 56.4988 92.7 56.3988 92.6C56.3988 92.6 56.3988 92.5 56.2988 92.5C56.1988 92.4 56.0988 92.3 56.0988 92.2C55.9988 92.1 55.8988 92 55.8988 91.9L55.7988 91.8C55.6988 91.7 55.6988 91.7 55.5988 91.6L55.4988 91.5C55.3988 91.4 55.3988 91.4 55.2988 91.3L55.1988 91.2C55.0988 91.1 55.0988 91.1 54.9988 91L54.8988 90.9C54.7988 90.8 54.7988 90.8 54.6988 90.7L54.5988 90.6C54.4988 90.5 54.4988 90.5 54.3988 90.4L54.2988 90.3C54.1988 90.2 54.1988 90.2 54.0988 90.1C54.0988 90.1 53.9988 90 53.8988 90C53.7988 89.9 53.7988 89.9 53.6988 89.8C53.5988 89.8 53.5988 89.7 53.4988 89.7C53.3988 89.6 53.3988 89.6 53.2988 89.5C53.1988 89.5 53.1988 89.4 53.0988 89.4C52.9988 89.4 52.9988 89.3 52.8988 89.3C52.7988 89.3 52.7988 89.2 52.6988 89.2C52.5988 89.2 52.5988 89.1 52.4988 89.1C52.3988 89.1 52.3988 89 52.2988 89C52.1988 89 52.1988 88.9 52.0988 88.9C51.9988 88.9 51.9988 88.8 51.8988 88.8C51.7988 88.7 51.6988 88.7 51.6988 88.6C51.5988 88.6 51.5988 88.5 51.4988 88.5C51.3988 88.4 51.2988 88.4 51.1988 88.3L51.0988 88.2C50.9988 88.1 50.7988 88 50.6988 88C50.3988 87.8 50.0988 87.7 49.7988 87.5C49.6988 87.4 49.5988 87.4 49.4988 87.3C49.2988 87.2 49.0988 87.1 48.8988 87C48.7988 86.9 48.5988 86.9 48.4988 86.8C48.2988 86.7 48.0988 86.6 47.8988 86.5C47.7988 86.4 47.5988 86.4 47.4988 86.3C47.2988 86.2 47.1988 86.2 46.9988 86.1C46.9988 86.1 46.8988 86.1 46.8988 86C46.5988 85.9 46.3988 85.8 46.0988 85.7C45.9988 85.7 45.8988 85.6 45.7988 85.6C45.4988 85.5 45.2988 85.4 44.9988 85.3C44.8988 85.3 44.8988 85.3 44.7988 85.2C44.4988 85.1 44.1988 85 43.9988 84.9H43.8988C43.4988 84.8 43.1988 84.7 42.7988 84.6H42.6988C42.2988 84.5 41.8988 84.4 41.4988 84.3H41.3988C41.2988 84.3 41.0988 84.2 40.9988 84.2C40.7988 84.2 40.5988 84.1 40.2988 84.1C40.0988 84.1 39.8988 84 39.7988 84C39.5988 84 39.3988 83.9 39.0988 83.9H38.9988C38.7988 83.9 38.6988 83.9 38.4988 83.8C38.2988 83.8 38.0988 83.7 37.8988 83.7C37.6988 83.7 37.4988 83.7 37.2988 83.6C37.0988 83.6 36.8988 83.6 36.6988 83.5H36.5988C36.3988 83.5 36.1988 83.5 36.0988 83.5C35.8988 83.5 35.6988 83.5 35.4988 83.5C35.2988 83.5 34.9988 83.5 34.7988 83.5C34.5988 83.5 34.3988 83.5 34.1988 83.5H34.0988C33.6988 83.5 33.3988 83.5 32.9988 83.5C32.6988 83.5 32.4988 83.5 32.1988 83.5C32.0988 83.5 31.9988 83.5 31.8988 83.5C31.6988 83.5 31.5988 83.5 31.3988 83.5C30.9988 83.5 30.5988 83.5 30.1988 83.6C30.0988 83.6 30.0988 83.6 29.9988 83.6C29.5988 83.6 29.1988 83.7 28.7988 83.7H28.6988C28.5988 83.7 28.5988 83.7 28.4988 83.7C28.3988 83.7 28.1988 83.7 28.0988 83.7C27.9988 83.7 27.8988 83.7 27.6988 83.7C27.5988 83.7 27.3988 83.7 27.2988 83.8C27.1988 83.8 27.0988 83.8 26.8988 83.9C26.7988 83.9 26.5988 83.9 26.4988 84C26.3988 84 26.2988 84 26.0988 84.1C25.9988 84.1 25.7988 84.1 25.6988 84.2C25.5988 84.2 25.5988 84.2 25.4988 84.2H25.3988C24.9988 84.3 24.6988 84.3 24.2988 84.4C24.1988 84.4 24.1988 84.4 24.0988 84.4C23.6988 84.5 23.3988 84.6 22.9988 84.7C22.5988 84.8 22.2988 84.9 21.9988 85C21.8988 85 21.8988 85 21.7988 85.1C21.4988 85.2 21.0988 85.3 20.7988 85.4H20.6988C20.5988 85.4 20.5988 85.4 20.4988 85.5C20.2988 85.6 20.1988 85.6 19.9988 85.7C19.8988 85.7 19.7988 85.8 19.6988 85.8C19.4988 85.9 19.3988 85.9 19.1988 86C19.0988 86 19.0988 86.1 18.9988 86.1C18.7988 86.2 18.4988 86.3 18.2988 86.4C18.2988 86.4 18.1988 86.4 18.1988 86.5C17.9988 86.6 17.7988 86.7 17.5988 86.7C17.4988 86.7 17.3988 86.8 17.3988 86.8C17.2988 86.9 17.0988 86.9 16.9988 87C16.8988 87 16.7988 87.1 16.7988 87.1C16.6988 87.2 16.4988 87.2 16.3988 87.3C16.2988 87.3 16.2988 87.4 16.1988 87.4C15.9988 87.5 15.7988 87.6 15.6988 87.7H15.5988C15.3988 87.8 15.1988 87.9 14.9988 88C14.8988 88.1 14.7988 88.1 14.6988 88.2C14.6988 88.2 14.5988 88.2 14.5988 88.3C14.3988 88.4 14.2988 88.5 14.0988 88.6L13.9988 88.7C13.8988 88.8 13.7988 88.9 13.6988 88.9C13.5988 88.9 13.5988 89 13.4988 89C13.3988 89.1 13.2988 89.1 13.1988 89.2C13.0988 89.2 13.0988 89.3 12.9988 89.3C12.8988 89.4 12.7988 89.4 12.6988 89.5C12.5988 89.5 12.5988 89.6 12.4988 89.6C12.3988 89.7 12.2988 89.7 12.1988 89.8L12.0988 89.9C11.9988 90 11.7988 90.1 11.6988 90.3C11.5988 90.3 11.5988 90.4 11.5988 90.4C11.4988 90.5 11.3988 90.6 11.2988 90.7C11.1988 90.8 11.1988 90.8 11.0988 90.9C10.9988 91 10.8988 91.1 10.7988 91.2C10.6988 91.3 10.6988 91.3 10.5988 91.4C10.4988 91.5 10.3988 91.6 10.3988 91.7C10.2988 91.8 10.2988 91.8 10.1988 91.9L10.0988 92C10.0988 92.1 9.99883 92.1 9.99883 92.2L9.89883 92.3C9.79883 92.4 9.69883 92.6 9.59883 92.7C9.49883 92.8 9.39883 93 9.29883 93.2L9.19883 93.3C9.19883 93.4 9.09883 93.4 9.09883 93.5C9.09883 93.6 8.99883 93.6 8.99883 93.7C8.99883 93.7 8.99883 93.8 8.89883 93.8C8.79883 94 8.69883 94.1 8.69883 94.3V94.4C8.59883 94.5 8.59883 94.7 8.49883 94.8V94.9V95C8.49883 95.1 8.39883 95.3 8.39883 95.4C8.39883 95.4 8.39883 95.4 8.39883 95.5C8.39883 95.6 8.29883 95.8 8.29883 95.9V96C8.29883 96.1 8.19883 96.3 8.19883 96.4V96.5C8.19883 96.6 8.19883 96.8 8.09883 96.9V97C8.09883 97.2 8.09883 97.3 8.09883 97.5V97.6C8.09883 97.7 8.09883 97.7 8.09883 97.8C8.09883 97.9 8.09883 98 8.09883 98.1V107.3C8.09883 107.1 8.09883 107 8.09883 106.8C7.79883 107.1 7.79883 107.1 7.79883 107Z" fill="#98A2F4"/>
<path d="M64.2996 98.7C64.2996 98.8 64.2996 99 64.2996 99.1C64.2996 99.1 64.2996 99.1 64.2996 99.2C64.2996 99.3 64.2996 99.4 64.2996 99.6C64.2996 99.7 64.2996 99.7 64.2996 99.8C64.2996 99.9 64.2996 100 64.2996 100.1C64.2996 100.2 64.2996 100.2 64.2996 100.3C64.2996 100.4 64.2996 100.5 64.2996 100.6C64.2996 100.7 64.2996 100.7 64.2996 100.8C64.2996 100.9 64.2996 101 64.1996 101C64.1996 101.1 64.1996 101.1 64.1996 101.2C64.1996 101.3 64.1996 101.4 64.0996 101.4C64.0996 101.5 64.0996 101.5 64.0996 101.6C64.0996 101.7 64.0996 101.8 63.9996 101.8C63.9996 101.9 63.9996 101.9 63.8996 102C63.8996 102.1 63.7996 102.2 63.7996 102.3C63.7996 102.4 63.7996 102.4 63.6996 102.5C63.5996 102.6 63.5996 102.8 63.4996 102.9C63.3996 103 63.3996 103.2 63.2996 103.3C63.2996 103.3 63.2996 103.4 63.1996 103.4C63.1996 103.5 63.0996 103.6 63.0996 103.7C63.0996 103.8 62.9996 103.8 62.9996 103.9C62.9996 104 62.8996 104.1 62.8996 104.2C62.8996 104.3 62.7996 104.3 62.7996 104.4C62.6996 104.5 62.6996 104.6 62.5996 104.7C62.5996 104.7 62.5996 104.8 62.4996 104.8C62.3996 104.9 62.2996 105.1 62.1996 105.2C62.1996 105.2 62.1996 105.2 62.1996 105.3C62.0996 105.4 61.9996 105.5 61.8996 105.7L61.7996 105.8C61.6996 105.9 61.6996 106 61.5996 106.1L61.4996 106.2C61.3996 106.4 61.1996 106.5 61.0996 106.7C61.0996 106.7 61.0996 106.8 60.9996 106.8C60.8996 106.9 60.7996 107.1 60.5996 107.2L60.4996 107.3C60.3996 107.5 60.1996 107.6 60.0996 107.8L59.9996 107.9C59.8996 108 59.6996 108.2 59.5996 108.3L59.4996 108.4C59.2996 108.5 59.1996 108.7 58.9996 108.8L58.8996 108.9C58.6996 109 58.5996 109.2 58.3996 109.3C58.3996 109.3 58.3996 109.3 58.2996 109.3C58.0996 109.4 57.8996 109.6 57.7996 109.7L57.6996 109.8C57.4996 109.9 57.2996 110.1 57.0996 110.2C56.8996 110.4 56.6996 110.5 56.3996 110.6C56.2996 110.6 56.2996 110.7 56.1996 110.7C55.9996 110.8 55.7996 111 55.4996 111.1L55.3996 111.2C55.2996 111.3 55.0996 111.4 54.9996 111.5C54.8996 111.5 54.8996 111.6 54.7996 111.6C54.6996 111.7 54.4996 111.7 54.3996 111.8C54.2996 111.8 54.2996 111.9 54.1996 111.9C54.0996 112 53.8996 112 53.7996 112.1C53.6996 112.1 53.6996 112.2 53.5996 112.2C53.3996 112.3 53.1996 112.4 52.9996 112.5C52.5996 112.7 52.2996 112.8 51.8996 113C51.7996 113.1 51.6996 113.1 51.4996 113.2C51.1996 113.3 50.9996 113.4 50.6996 113.5C50.4996 113.6 50.3996 113.6 50.1996 113.7C49.9996 113.8 49.6996 113.9 49.4996 114C49.2996 114.1 49.1996 114.1 48.9996 114.2C48.7996 114.3 48.4996 114.4 48.2996 114.4C48.0996 114.5 47.9996 114.5 47.7996 114.6C47.4996 114.7 47.1996 114.8 46.9996 114.9C46.7996 114.9 46.6996 115 46.4996 115C46.1996 115.1 45.8996 115.2 45.5996 115.2C45.3996 115.2 45.2996 115.3 45.0996 115.3C44.6996 115.4 44.2996 115.5 43.8996 115.6C43.7996 115.6 43.7996 115.6 43.6996 115.6C43.1996 115.7 42.7996 115.8 42.2996 115.9C41.8996 116 41.4996 116 41.1996 116.1C41.0996 116.1 40.9996 116.1 40.9996 116.1C40.6996 116.1 40.3996 116.2 39.9996 116.2C39.8996 116.2 39.6996 116.2 39.5996 116.2C39.2996 116.2 38.9996 116.3 38.6996 116.3C38.5996 116.3 38.4996 116.3 38.3996 116.3C37.9996 116.3 37.5996 116.4 37.1996 116.4C37.0996 116.4 36.9996 116.4 36.8996 116.4C36.4996 116.4 36.0996 116.5 35.6996 116.5H35.5996C35.1996 116.5 34.7996 116.5 34.3996 116.6C34.2996 116.6 34.1996 116.6 34.0996 116.6C33.6996 116.6 33.2996 116.6 32.7996 116.6C32.2996 116.6 31.7996 116.6 31.2996 116.6C31.0996 116.6 30.7996 116.6 30.5996 116.6C30.2996 116.6 29.9996 116.6 29.6996 116.6C29.4996 116.6 29.1996 116.6 28.9996 116.6C28.6996 116.6 28.3996 116.6 28.1996 116.5C27.9996 116.5 27.6996 116.5 27.4996 116.4C27.1996 116.4 26.9996 116.3 26.6996 116.3C26.4996 116.3 26.1996 116.2 25.9996 116.2C25.6996 116.2 25.4996 116.1 25.1996 116.1C24.8996 116.1 24.5996 116 24.2996 116C24.0996 116 23.7996 115.9 23.5996 115.9C23.2996 115.8 22.9996 115.8 22.6996 115.7C22.4996 115.7 22.1996 115.6 21.9996 115.6C21.8996 115.6 21.8996 115.6 21.7996 115.6C21.3996 115.5 20.9996 115.4 20.4996 115.3C20.4996 115.3 20.4996 115.3 20.3996 115.3C19.9996 115.2 19.5996 115.1 19.1996 115C19.0996 115 19.0996 115 18.9996 114.9C18.5996 114.8 18.1996 114.7 17.7996 114.5C17.6996 114.5 17.6996 114.5 17.5996 114.4C17.2996 114.3 16.8996 114.2 16.5996 114.1C16.4996 114.1 16.3996 114 16.2996 114C15.9996 113.9 15.6996 113.8 15.2996 113.6C15.1996 113.6 15.1996 113.6 15.0996 113.5C14.8996 113.4 14.5996 113.3 14.3996 113.2C14.1996 113.1 13.9996 113.1 13.8996 113C13.6996 112.9 13.3996 112.8 13.1996 112.7C12.9996 112.6 12.8996 112.6 12.6996 112.5C12.3996 112.4 12.1996 112.3 11.8996 112.1C11.7996 112 11.5996 112 11.4996 111.9C11.0996 111.7 10.7996 111.5 10.3996 111.3C4.69961 108 1.19961 103.5 1.09961 98.5V107.7C1.09961 112.7 4.69961 117.3 10.3996 120.5C10.7996 120.7 11.0996 120.9 11.4996 121.1C11.5996 121.2 11.7996 121.2 11.8996 121.3C12.0996 121.4 12.3996 121.6 12.6996 121.7C12.8996 121.8 12.9996 121.8 13.1996 121.9C13.3996 122 13.6996 122.1 13.8996 122.2C14.0996 122.3 14.1996 122.3 14.3996 122.4C14.5996 122.5 14.7996 122.6 14.9996 122.7C14.9996 122.7 14.9996 122.7 15.0996 122.7C15.1996 122.7 15.1996 122.7 15.2996 122.8C15.5996 122.9 15.8996 123 16.2996 123.2C16.3996 123.2 16.4996 123.3 16.5996 123.3C16.8996 123.4 17.2996 123.5 17.5996 123.6C17.6996 123.6 17.6996 123.6 17.7996 123.7C18.0996 123.8 18.4996 123.9 18.7996 124C18.8996 124 18.8996 124 18.9996 124C19.0996 124 19.0996 124 19.1996 124.1C19.5996 124.2 19.9996 124.3 20.4996 124.4C20.4996 124.4 20.4996 124.4 20.5996 124.4C20.9996 124.5 21.3996 124.6 21.8996 124.7C21.9996 124.7 21.9996 124.7 22.0996 124.7H22.1996C22.3996 124.7 22.5996 124.8 22.6996 124.8C22.9996 124.9 23.2996 124.9 23.5996 125C23.7996 125 24.0996 125.1 24.2996 125.1C24.5996 125.1 24.8996 125.2 25.1996 125.2C25.2996 125.2 25.2996 125.2 25.3996 125.2C25.5996 125.2 25.7996 125.2 25.9996 125.3C26.1996 125.3 26.4996 125.4 26.6996 125.4C26.9996 125.4 27.1996 125.5 27.4996 125.5C27.6996 125.5 27.9996 125.5 28.1996 125.6C28.2996 125.6 28.2996 125.6 28.3996 125.6C28.5996 125.6 28.8996 125.6 29.0996 125.6C29.2996 125.6 29.5996 125.6 29.7996 125.6C30.0996 125.6 30.3996 125.6 30.6996 125.6C30.8996 125.6 31.1996 125.6 31.3996 125.6H31.4996C31.9996 125.6 32.3996 125.6 32.8996 125.6C33.2996 125.6 33.6996 125.6 34.1996 125.6C34.2996 125.6 34.3996 125.6 34.4996 125.6C34.5996 125.6 34.6996 125.6 34.7996 125.6C35.0996 125.6 35.3996 125.6 35.6996 125.6H35.7996C36.1996 125.6 36.5996 125.6 36.9996 125.5C37.0996 125.5 37.1996 125.5 37.2996 125.5C37.5996 125.5 37.9996 125.4 38.2996 125.4H38.3996C38.4996 125.4 38.5996 125.4 38.6996 125.4C38.9996 125.4 39.2996 125.3 39.5996 125.3C39.6996 125.3 39.8996 125.3 39.9996 125.3C40.2996 125.3 40.5996 125.2 40.9996 125.2C41.0996 125.2 41.1996 125.2 41.1996 125.2C41.5996 125.1 41.8996 125.1 42.2996 125H42.3996C42.8996 124.9 43.2996 124.8 43.7996 124.7C43.8996 124.7 43.8996 124.7 43.9996 124.7C44.3996 124.6 44.7996 124.5 45.1996 124.4C45.3996 124.4 45.4996 124.3 45.6996 124.3C45.9996 124.2 46.2996 124.1 46.5996 124.1C46.7996 124.1 46.8996 124 47.0996 124C47.3996 123.9 47.6996 123.8 47.8996 123.7C47.9996 123.7 48.0996 123.6 48.1996 123.6C48.2996 123.6 48.2996 123.5 48.3996 123.5C48.5996 123.4 48.8996 123.3 49.0996 123.3C49.2996 123.2 49.3996 123.2 49.5996 123.1C49.7996 123 50.0996 122.9 50.2996 122.8C50.4996 122.7 50.5996 122.7 50.7996 122.6C51.0996 122.5 51.2996 122.4 51.5996 122.3C51.6996 122.2 51.7996 122.2 51.9996 122.1C52.3996 121.9 52.6996 121.8 53.0996 121.6C53.2996 121.5 53.4996 121.4 53.6996 121.3C53.7996 121.3 53.7996 121.2 53.8996 121.2C53.9996 121.1 54.1996 121.1 54.2996 121C54.3996 121 54.3996 120.9 54.4996 120.9C54.5996 120.8 54.7996 120.8 54.8996 120.7C54.9996 120.7 54.9996 120.6 55.0996 120.6C55.1996 120.5 55.3996 120.4 55.4996 120.3C55.4996 120.3 55.5996 120.3 55.5996 120.2C55.7996 120.1 56.0996 119.9 56.2996 119.8C56.3996 119.8 56.3996 119.7 56.4996 119.7C56.6996 119.6 56.8996 119.4 57.1996 119.3C57.3996 119.2 57.5996 119 57.7996 118.9L57.8996 118.8C57.9996 118.7 58.0996 118.7 58.1996 118.6V124.6L62.2996 122.2V114.2C62.3996 114.1 62.3996 114 62.4996 113.9C62.4996 113.9 62.4996 113.8 62.5996 113.8C62.6996 113.7 62.6996 113.6 62.7996 113.5C62.7996 113.5 62.7996 113.5 62.7996 113.4V113.3C62.7996 113.2 62.8996 113.1 62.8996 113C62.8996 112.9 62.9996 112.9 62.9996 112.8C62.9996 112.7 63.0996 112.6 63.0996 112.5C63.0996 112.5 63.0996 112.4 63.1996 112.4C63.2996 112.3 63.2996 112.1 63.3996 112C63.4996 111.9 63.4996 111.7 63.5996 111.6V111.5C63.5996 111.4 63.6996 111.3 63.6996 111.2C63.6996 111.1 63.6996 111.1 63.7996 111C63.7996 110.9 63.8996 110.8 63.8996 110.8C63.8996 110.7 63.8996 110.7 63.8996 110.6C63.8996 110.5 63.8996 110.4 63.9996 110.4C63.9996 110.3 63.9996 110.3 63.9996 110.2C63.9996 110.1 63.9996 110 64.0996 110V109.9C64.0996 109.9 64.0996 109.9 64.0996 109.8C64.0996 109.7 64.0996 109.6 64.0996 109.5C64.0996 109.4 64.0996 109.4 64.0996 109.3C64.0996 109.2 64.0996 109.1 64.0996 109C64.0996 108.9 64.0996 108.9 64.0996 108.8C64.0996 108.7 64.0996 108.6 64.0996 108.4C64.0996 108.4 64.0996 108.4 64.0996 108.3C64.0996 108.2 64.0996 108 64.0996 107.9C64.0996 107.8 64.0996 107.6 64.0996 107.5V98.3C64.2996 98.4 64.2996 98.6 64.2996 98.7Z" fill="#98A2F4"/>
<path d="M58.1 115.3V124.4L53 121.5V112.4L58.1 115.3Z" fill="#98A2F4"/>
<path d="M1.49858 98.5C1.49858 103.5 5.09858 108.1 10.7986 111.3C16.4986 114.6 24.3986 116.6 33.0986 116.6C40.6986 116.6 47.6986 115 53.0986 112.4C54.5986 111.7 55.9986 110.9 57.1986 110C61.6986 106.8 64.2986 102.8 64.2986 98.4C64.2986 93.4 60.6986 88.8 54.9986 85.6C49.2986 82.3 41.3986 80.3 32.6986 80.3C15.3986 80.3 1.39858 88.4 1.49858 98.5ZM7.79858 98.5C7.69858 90.5 18.8986 83.9 32.7986 83.9C39.6986 83.9 45.9986 85.5 50.5986 88.1C55.1986 90.7 57.9986 94.3 57.9986 98.4C58.0986 106.4 46.8986 113 32.9986 113C26.0986 113 19.7986 111.4 15.1986 108.8C10.5986 106.1 7.79858 102.5 7.79858 98.5Z" fill="white"/>
<path d="M63.499 102.3C63.999 101 64.199 99.7 64.199 98.3C64.199 93.3 60.599 88.7 54.899 85.5C49.199 82.2 41.299 80.2 32.599 80.2C15.199 80.2 1.29897 88.4 1.39897 98.5C1.39897 99.8 1.69897 101.1 2.09897 102.3M57.999 98.3C58.099 106.3 46.899 112.9 32.999 112.9C26.099 112.9 19.799 111.3 15.199 108.7C10.599 106.1 7.79897 102.5 7.79897 98.4" stroke="#171A21" stroke-width="2" stroke-miterlimit="10" stroke-linecap="round" stroke-linejoin="round"/>
<path d="M62.198 112.9L58.098 115.3L52.998 112.4C54.498 111.7 55.898 110.9 57.098 110L62.198 112.9Z" fill="white"/>
<path d="M93.8 129.1C93.8 129.2 93.8 129.2 93.8 129.3V129.4V129.5V129.6V129.7V129.8V129.9V130V130.1V130.2V130.3C93.8 130.3 93.8 130.4 93.7 130.4V130.5L93.6 130.6C93.6 130.6 93.6 130.7 93.5 130.7L93.4 130.8C93.4 130.8 93.4 130.9 93.3 130.9C93.3 131 93.2 131 93.1 131.1C93 131.2 93 131.2 92.9 131.3C92.9 131.3 92.8 131.3 92.8 131.4L92.7 131.5C92.7 131.5 92.6 131.5 92.6 131.6L92.5 131.7C92.5 131.7 92.4 131.7 92.4 131.8L92.3 131.9C92.3 131.9 92.2 131.9 92.2 132L92.1 132.1C92.1 132.1 92 132.1 92 132.2C91.9 132.3 91.8 132.3 91.7 132.4C91.7 132.4 91.7 132.4 91.6 132.4C91.5 132.5 91.4 132.5 91.3 132.6C91.3 132.6 91.3 132.6 91.2 132.6C91.1 132.7 90.9 132.7 90.8 132.8H90.7C90.6 132.8 90.4 132.9 90.3 132.9C90.1 133 89.9 133 89.6 133.1C89.4 133.2 89.1 133.2 88.9 133.3C88.9 133.3 88.9 133.3 88.8 133.3C88.7 133.3 88.6 133.3 88.5 133.4H88.4C88.3 133.4 88.2 133.4 88.1 133.4H88C87.8 133.4 87.5 133.4 87.3 133.4C87.3 133.4 87.3 133.4 87.2 133.4C87.1 133.4 86.9 133.4 86.8 133.4C86.6 133.4 86.4 133.4 86.2 133.4C86.1 133.4 86 133.4 85.8 133.4C85.7 133.4 85.5 133.4 85.4 133.4C85.3 133.4 85.2 133.4 85.1 133.4C85 133.4 84.9 133.4 84.7 133.3C84.6 133.3 84.4 133.3 84.3 133.2C84.1 133.2 83.9 133.1 83.7 133.1C83.5 133.1 83.3 133 83.2 132.9C83.1 132.9 83.1 132.9 83 132.8C82.8 132.7 82.6 132.7 82.4 132.6C82.3 132.5 82.1 132.5 82 132.4C81.9 132.4 81.9 132.3 81.8 132.3C81.6 132.2 81.4 132.1 81.2 132L57.6 117.3C57.2 117.1 57 116.8 57 116.4V125.6C57 125.9 57.2 126.2 57.6 126.5L81.2 141.2C81.4 141.3 81.6 141.4 81.8 141.5C81.9 141.5 81.9 141.6 82 141.6C82.1 141.7 82.3 141.7 82.4 141.8C82.6 141.9 82.8 141.9 83 142C83.1 142 83.1 142 83.2 142.1C83.3 142.1 83.3 142.1 83.4 142.2C83.5 142.2 83.6 142.3 83.7 142.3C83.8 142.3 84 142.4 84.1 142.4H84.2C84.3 142.4 84.4 142.4 84.6 142.5C84.7 142.5 84.7 142.5 84.8 142.5H84.9C85 142.5 85.1 142.5 85.2 142.5C85.3 142.5 85.4 142.5 85.4 142.5C85.5 142.5 85.5 142.5 85.6 142.5C85.7 142.5 85.8 142.5 86 142.5C86.1 142.5 86.2 142.5 86.2 142.5C86.3 142.5 86.4 142.5 86.5 142.5C86.6 142.5 86.8 142.5 86.9 142.5C87.1 142.5 87.4 142.5 87.6 142.5H87.7C87.8 142.5 87.9 142.5 88 142.5H88.1C88.2 142.5 88.3 142.5 88.4 142.4C88.4 142.4 88.4 142.4 88.5 142.4C88.7 142.4 89 142.3 89.2 142.2C89.4 142.1 89.6 142.1 89.9 142C90 142 90.2 141.9 90.3 141.9H90.4C90.5 141.8 90.7 141.8 90.8 141.7C90.8 141.7 90.8 141.7 90.9 141.7C91 141.6 91.1 141.6 91.2 141.5C91.2 141.5 91.2 141.5 91.3 141.5C91.4 141.4 91.5 141.4 91.6 141.3C91.6 141.3 91.6 141.3 91.7 141.3L91.8 141.2C91.8 141.2 91.9 141.2 91.9 141.1L92 141C92 141 92.1 141 92.1 140.9L92.2 140.8C92.2 140.8 92.3 140.8 92.3 140.7L92.4 140.6C92.4 140.6 92.4 140.6 92.5 140.5C92.6 140.4 92.6 140.4 92.7 140.3C92.8 140.2 92.8 140.2 92.9 140.1L93 140C93 140 93 139.9 93.1 139.9L93.2 139.8C93.2 139.8 93.2 139.8 93.2 139.7C93.2 139.7 93.2 139.6 93.3 139.6V139.5V139.4V139.3V139.2V139.1V139V138.9V138.8V138.7V138.6C93.3 138.6 93.3 138.6 93.3 138.5V138.4L93.8 129.1Z" fill="#98A2F4"/>
<path d="M91.7988 126.3C93.0988 127 93.7988 128.1 93.7988 129.2C93.7988 131.5 90.4988 133.5 86.4988 133.5C84.3988 133.5 82.4988 133 80.9988 132.2L57.3988 117.5C56.5988 117 56.5988 116.3 57.3988 115.8L62.7988 112.6C63.5988 112.1 64.8988 112.1 65.6988 112.6L91.2988 126.2C91.5988 126.2 91.6988 126.2 91.7988 126.3Z" fill="#EAECFD"/>
<path d="M57.5 115.7L62.9 112.5C63.7 112 65 112 65.8 112.5L91.4 126.1C91.5 126.2 91.6 126.2 91.7 126.3C93 127 93.7 128.1 93.7 129.2" stroke="#171A21" stroke-width="2" stroke-miterlimit="10" stroke-linecap="round" stroke-linejoin="round"/>
<path d="M29.5 50.1C29.5 50.2 29.5 50.2 29.5 50.1C29.5 50.2 29.5 50.2 29.5 50.1ZM28.3 8.6C27.8 8.9 27.6 9.6 27.6 10.5L27.5 45.8C27.5 47.5 28.4 49.4 29.6 50.1C29.1 49.7 28.6 49.1 28.2 48.4L46.5 39L28.3 8.6C28.2 8.7 28.3 8.6 28.3 8.6ZM72.2 34L72.3 34.1L54 43.5L72.1 73.9C71.7 74.2 71.2 74.2 70.7 74C71.9 74.6 72.8 73.7 72.8 72.1L73 36.8C73 35.9 72.7 34.8 72.2 34ZM72.1 33.8C72.1 33.8 72.2 33.8 72.1 33.8C72.2 33.8 72.1 33.8 72.1 33.8ZM71.4 32.9C71.5 32.9 71.5 32.9 71.4 32.9C71.5 32.9 71.5 32.9 71.4 32.9ZM29.5 8.5C29.4 8.5 29.4 8.5 29.5 8.5C29.4 8.5 29.4 8.5 29.5 8.5ZM29.6 8.6C29.6 8.6 29.5 8.6 29.6 8.6C29.5 8.6 29.6 8.6 29.6 8.6Z" fill="#EAECFD"/>
<path d="M28.3 8.6C27.8 8.9 27.6 9.6 27.6 10.5L27.5 45.8C27.5 47.5 28.4 49.4 29.6 50.1C29.1 49.7 28.6 49.1 28.2 48.4L46.5 39L28.3 8.6ZM28.3 8.6C28.2 8.7 28.3 8.6 28.3 8.6ZM29.5 50.1C29.5 50.2 29.5 50.2 29.5 50.1C29.5 50.2 29.5 50.2 29.5 50.1ZM72.2 34L72.3 34.1L54 43.5L72.1 73.9C71.7 74.2 71.2 74.2 70.7 74C71.9 74.6 72.8 73.7 72.8 72.1L73 36.8C73 35.9 72.7 34.8 72.2 34ZM72.1 33.8C72.1 33.8 72.2 33.8 72.1 33.8C72.2 33.8 72.1 33.8 72.1 33.8ZM71.4 32.9C71.5 32.9 71.5 32.9 71.4 32.9C71.5 32.9 71.5 32.9 71.4 32.9ZM29.5 8.5C29.4 8.5 29.4 8.5 29.5 8.5C29.4 8.5 29.4 8.5 29.5 8.5ZM29.6 8.6C29.6 8.6 29.5 8.6 29.6 8.6C29.5 8.6 29.6 8.6 29.6 8.6Z" stroke="#171A21" stroke-width="2" stroke-miterlimit="10" stroke-linecap="round" stroke-linejoin="round"/>
<path d="M46.2996 39.1L47.2996 40.7C48.1996 42.1 49.1996 43.2 50.1996 43.8C51.1996 44.4 52.1996 44.5 53.0996 44.1L54.0996 43.6L72.1996 74C71.7996 74.3 71.2996 74.3 70.7996 74.1C70.7996 74.1 70.7996 74.1 70.6996 74.1L29.5996 50.2C29.5996 50.2 29.5996 50.2 29.4996 50.2C28.9996 49.8 28.4996 49.2 28.0996 48.5L46.2996 39.1Z" fill="#EAECFD" stroke="#171A21" stroke-width="2" stroke-miterlimit="10" stroke-linecap="round" stroke-linejoin="round"/>
<path d="M29.6992 8.7L70.7992 32.4C70.7992 32.4 70.7992 32.4 70.8992 32.4C70.8992 32.4 70.8992 32.4 70.8992 32.5C71.0992 32.7 71.2992 33 71.4992 33.3C71.4992 33.3 71.4992 33.3 71.4992 33.4C71.4992 33.4 71.4992 33.4 71.4992 33.5L71.5992 33.6L53.2992 43L52.2992 43.5C51.3992 43.9 50.3992 43.8 49.3992 43.2C48.3992 42.6 47.3992 41.6 46.4992 40.1L45.4992 38.5L28.1992 8.7C28.1992 8.7 28.1992 8.7 28.2992 8.6C28.4992 8.5 28.6992 8.5 28.8992 8.5C29.5992 8.6 29.5992 8.6 29.6992 8.7C29.6992 8.6 29.6992 8.6 29.6992 8.7Z" fill="white"/>
<path d="M29.6992 8.7L70.7992 32.4C70.7992 32.4 70.7992 32.4 70.8992 32.4C70.8992 32.4 70.8992 32.4 70.8992 32.5C71.0992 32.7 71.2992 33 71.4992 33.3C71.4992 33.3 71.4992 33.3 71.4992 33.4C71.4992 33.4 71.4992 33.4 71.4992 33.5L71.5992 33.6L53.2992 43L52.2992 43.5C51.3992 43.9 50.3992 43.8 49.3992 43.2C48.3992 42.6 47.3992 41.6 46.4992 40.1L45.4992 38.5L28.1992 8.7C28.1992 8.7 28.1992 8.7 28.2992 8.6C28.4992 8.5 28.6992 8.5 28.8992 8.5C29.5992 8.6 29.5992 8.6 29.6992 8.7ZM29.6992 8.7C29.6992 8.6 29.6992 8.6 29.6992 8.7Z" stroke="#171A21" stroke-width="2" stroke-miterlimit="10" stroke-linecap="round" stroke-linejoin="round"/>
</svg>
