<svg width="406" height="372" viewBox="0 0 406 372" fill="none" xmlns="http://www.w3.org/2000/svg">
<path d="M403.8 208L252.6 120.7L246.4 117.1V127.9C246.4 131.1 248.7 135 251.5 136.7L398.8 221.7C401.6 223.3 403.9 222 403.9 218.8L403.8 208ZM327.7 130.7L251.5 86.7L246.4 83.8V100.5L251.5 103.4L403.9 191.4V174.7L327.7 130.7ZM404 141.3L327.8 97.3V114L404 158V141.3ZM399 105L327.9 64V80.7L404.1 124.7V113.9C404.1 110.6 401.8 106.7 399 105Z" fill="white"/>
<path d="M403.8 191.3L251.4 103.3L246.3 100.4V117.1L252.5 120.7L403.8 208V191.3ZM403.9 158L327.7 114V130.7L403.9 174.7V158ZM404 124.6L327.8 80.6V97.3L404 141.3V124.6Z" fill="#FFD394"/>
<path d="M246.4 117.1V127.9C246.4 131.1 248.7 135 251.5 136.7L398.8 221.7C401.6 223.3 403.9 222 403.9 218.8V208M403.8 191.3V174.6M246.5 83.8V100.5M403.9 158V141.3M404 124.6V113.8C404 110.6 401.7 106.7 398.9 105M399 105L327.9 64" stroke="#171A21" stroke-width="2" stroke-miterlimit="10" stroke-linecap="round" stroke-linejoin="round"/>
<path d="M256.7 82.6C255.3 81.8 254.2 79.8 254.2 78.2C254.2 76.6 255.3 75.9 256.7 76.7C258.1 77.5 259.2 79.5 259.2 81.1C259.2 82.8 258.1 83.5 256.7 82.6ZM271.9 91.4C270.5 90.6 269.4 88.6 269.4 87C269.4 85.4 270.5 84.7 271.9 85.5C273.3 86.3 274.4 88.3 274.4 89.9C274.4 91.6 273.3 92.3 271.9 91.4ZM287.1 100.2C285.7 99.4 284.6 97.4 284.6 95.8C284.6 94.2 285.7 93.5 287.1 94.3C288.5 95.1 289.6 97.1 289.6 98.7C289.6 100.3 288.5 101 287.1 100.2ZM302.3 109C300.9 108.2 299.8 106.2 299.8 104.6C299.8 103 300.9 102.3 302.3 103.1C303.7 103.9 304.8 105.9 304.8 107.5C304.9 109.2 303.7 109.8 302.3 109ZM317.6 117.8C316.2 117 315.1 115 315.1 113.4C315.1 111.8 316.2 111.1 317.6 111.9C319 112.7 320.1 114.7 320.1 116.3C320.1 118 319 118.6 317.6 117.8ZM264.3 81.2C262.9 80.4 261.8 78.4 261.8 76.8C261.8 75.2 262.9 74.5 264.3 75.3C265.7 76.1 266.8 78.1 266.8 79.7C266.8 81.4 265.7 82 264.3 81.2ZM279.5 90C278.1 89.2 277 87.2 277 85.6C277 84 278.1 83.3 279.5 84.1C280.9 84.9 282 86.9 282 88.5C282.1 90.2 280.9 90.8 279.5 90ZM294.7 98.8C293.3 98 292.2 96 292.2 94.4C292.2 92.8 293.3 92.1 294.7 92.9C296.1 93.7 297.2 95.7 297.2 97.3C297.3 98.9 296.1 99.6 294.7 98.8ZM310 107.6C308.6 106.8 307.5 104.8 307.5 103.2C307.5 101.6 308.6 100.9 310 101.7C311.4 102.5 312.5 104.5 312.5 106.1C312.5 107.7 311.4 108.4 310 107.6ZM256.7 71C255.3 70.2 254.2 68.2 254.2 66.6C254.2 65 255.3 64.3 256.7 65.1C258.1 65.9 259.2 67.9 259.2 69.5C259.2 71.1 258.1 71.8 256.7 71ZM271.9 79.8C270.5 79 269.4 77 269.4 75.4C269.4 73.8 270.5 73.1 271.9 73.9C273.3 74.7 274.4 76.7 274.4 78.3C274.5 79.9 273.3 80.6 271.9 79.8ZM287.2 88.6C285.8 87.8 284.7 85.8 284.7 84.2C284.7 82.6 285.8 81.9 287.2 82.7C288.6 83.5 289.7 85.5 289.7 87.1C289.7 88.7 288.6 89.4 287.2 88.6ZM302.4 97.3C301 96.5 299.9 94.5 299.9 92.9C299.9 91.3 301 90.6 302.4 91.4C303.8 92.2 304.9 94.2 304.9 95.8C304.9 97.5 303.8 98.2 302.4 97.3ZM317.6 106.2C316.2 105.4 315.1 103.4 315.1 101.8C315.1 100.2 316.2 99.5 317.6 100.3C319 101.1 320.1 103.1 320.1 104.7C320.2 106.3 319 107 317.6 106.2ZM264.3 69.5C262.9 68.7 261.8 66.7 261.8 65.1C261.8 63.5 262.9 62.8 264.3 63.6C265.7 64.4 266.8 66.4 266.8 68C266.9 69.7 265.7 70.3 264.3 69.5ZM279.6 78.3C278.2 77.5 277.1 75.5 277.1 73.9C277.1 72.3 278.2 71.6 279.6 72.4C281 73.2 282.1 75.2 282.1 76.8C282.1 78.5 281 79.1 279.6 78.3ZM294.8 87.1C293.4 86.3 292.3 84.3 292.3 82.7C292.3 81.1 293.4 80.4 294.8 81.2C296.2 82 297.3 84 297.3 85.6C297.3 87.3 296.2 87.9 294.8 87.1ZM310 95.9C308.6 95.1 307.5 93.1 307.5 91.5C307.5 89.9 308.6 89.2 310 90C311.4 90.8 312.5 92.8 312.5 94.4C312.5 96 311.4 96.7 310 95.9ZM256.7 59.3C255.3 58.5 254.2 56.5 254.2 54.9C254.2 53.3 255.3 52.6 256.7 53.4C258.1 54.2 259.2 56.2 259.2 57.8C259.3 59.5 258.1 60.1 256.7 59.3ZM272 68.1C270.6 67.3 269.5 65.3 269.5 63.7C269.5 62.1 270.6 61.4 272 62.2C273.4 63 274.5 65 274.5 66.6C274.5 68.3 273.4 68.9 272 68.1ZM287.2 76.9C285.8 76.1 284.7 74.1 284.7 72.5C284.7 70.9 285.8 70.2 287.2 71C288.6 71.8 289.7 73.8 289.7 75.4C289.7 77.1 288.6 77.7 287.2 76.9ZM302.4 85.7C301 84.9 299.9 82.9 299.9 81.3C299.9 79.7 301 79 302.4 79.8C303.8 80.6 304.9 82.6 304.9 84.2C304.9 85.8 303.8 86.5 302.4 85.7ZM317.7 94.5C316.3 93.7 315.2 91.7 315.2 90.1C315.2 88.5 316.3 87.8 317.7 88.6C319.1 89.4 320.2 91.4 320.2 93C320.2 94.7 319.1 95.3 317.7 94.5ZM264.4 57.9C263 57.1 261.9 55.1 261.9 53.5C261.9 51.9 263 51.2 264.4 52C265.8 52.8 266.9 54.8 266.9 56.4C266.9 58 265.8 58.7 264.4 57.9ZM279.6 66.7C278.2 65.9 277.1 63.9 277.1 62.3C277.1 60.7 278.2 60 279.6 60.8C281 61.6 282.1 63.6 282.1 65.2C282.1 66.8 281 67.5 279.6 66.7ZM294.8 75.4C293.4 74.6 292.3 72.6 292.3 71C292.3 69.4 293.4 68.7 294.8 69.5C296.2 70.3 297.3 72.3 297.3 73.9C297.3 75.6 296.2 76.3 294.8 75.4ZM310.1 84.3C308.7 83.5 307.6 81.5 307.6 79.9C307.6 78.3 308.7 77.6 310.1 78.4C311.5 79.2 312.6 81.2 312.6 82.8C312.6 84.4 311.5 85.1 310.1 84.3ZM256.8 47.6C255.4 46.8 254.3 44.8 254.3 43.2C254.3 41.6 255.4 40.9 256.8 41.7C258.2 42.5 259.3 44.5 259.3 46.1C259.3 47.8 258.2 48.4 256.8 47.6ZM272 56.4C270.6 55.6 269.5 53.6 269.5 52C269.5 50.4 270.6 49.7 272 50.5C273.4 51.3 274.5 53.3 274.5 54.9C274.5 56.6 273.4 57.2 272 56.4ZM287.2 65.2C285.8 64.4 284.7 62.4 284.7 60.8C284.7 59.2 285.8 58.5 287.2 59.3C288.6 60.1 289.7 62.1 289.7 63.7C289.8 65.4 288.6 66 287.2 65.2ZM302.4 74C301 73.2 299.9 71.2 299.9 69.6C299.9 68 301 67.3 302.4 68.1C303.8 68.9 304.9 70.9 304.9 72.5C305 74.2 303.8 74.8 302.4 74ZM317.7 82.8C316.3 82 315.2 80 315.2 78.4C315.2 76.8 316.3 76.1 317.7 76.9C319.1 77.7 320.2 79.7 320.2 81.3C320.2 83 319.1 83.6 317.7 82.8ZM264.4 46.2C263 45.4 261.9 43.4 261.9 41.8C261.9 40.2 263 39.5 264.4 40.3C265.8 41.1 266.9 43.1 266.9 44.7C266.9 46.4 265.8 47 264.4 46.2ZM279.6 55C278.2 54.2 277.1 52.2 277.1 50.6C277.1 49 278.2 48.3 279.6 49.1C281 49.9 282.1 51.9 282.1 53.5C282.2 55.1 281 55.8 279.6 55ZM294.8 63.8C293.4 63 292.3 61 292.3 59.4C292.3 57.8 293.4 57.1 294.8 57.9C296.2 58.7 297.3 60.7 297.3 62.3C297.4 63.9 296.2 64.6 294.8 63.8ZM310.1 72.6C308.7 71.8 307.6 69.8 307.6 68.2C307.6 66.6 308.7 65.9 310.1 66.7C311.5 67.5 312.6 69.5 312.6 71.1C312.6 72.7 311.5 73.4 310.1 72.6ZM256.8 36C255.4 35.2 254.3 33.2 254.3 31.6C254.3 30 255.4 29.3 256.8 30.1C258.2 30.9 259.3 32.9 259.3 34.5C259.3 36.1 258.2 36.8 256.8 36ZM272 44.8C270.6 44 269.5 42 269.5 40.4C269.5 38.8 270.6 38.1 272 38.9C273.4 39.7 274.5 41.7 274.5 43.3C274.6 44.9 273.4 45.6 272 44.8ZM287.3 53.6C285.9 52.8 284.8 50.8 284.8 49.2C284.8 47.6 285.9 46.9 287.3 47.7C288.7 48.5 289.8 50.5 289.8 52.1C289.8 53.7 288.7 54.4 287.3 53.6ZM302.5 62.3C301.1 61.5 300 59.5 300 57.9C300 56.3 301.1 55.6 302.5 56.4C303.9 57.2 305 59.2 305 60.8C305 62.5 303.9 63.1 302.5 62.3ZM317.7 71.1C316.3 70.3 315.2 68.3 315.2 66.7C315.2 65.1 316.3 64.4 317.7 65.2C319.1 66 320.2 68 320.2 69.6C320.3 71.3 319.1 72 317.7 71.1ZM327.9 64L251.7 20C248.9 18.4 246.6 19.7 246.6 22.9L246.4 83.8L251.5 86.7L327.7 130.7V114V97.3V80.6L327.9 64Z" fill="#2F58FF"/>
<path d="M256.7 76.8C255.3 76 254.1 76.6 254.1 78.2C254.1 79.8 255.2 81.8 256.6 82.6C258 83.4 259.1 82.8 259.1 81.1C259.2 79.6 258.1 77.6 256.7 76.8ZM271.9 85.6C270.5 84.8 269.3 85.4 269.3 87C269.3 88.6 270.4 90.6 271.8 91.4C273.2 92.2 274.3 91.6 274.3 89.9C274.4 88.4 273.3 86.4 271.9 85.6ZM287.1 94.4C285.7 93.6 284.5 94.2 284.5 95.8C284.5 97.4 285.6 99.4 287 100.2C288.4 101 289.5 100.4 289.6 98.8C289.7 97.2 288.5 95.2 287.1 94.4ZM302.4 103.2C301 102.4 299.8 103 299.8 104.6C299.8 106.2 300.9 108.2 302.3 109C303.7 109.8 304.8 109.2 304.8 107.5C304.9 106 303.8 104 302.4 103.2ZM317.6 112C316.2 111.2 315 111.8 315 113.4C315 115 316.1 117 317.5 117.8C318.9 118.6 320 118 320 116.3C320.1 114.8 319 112.8 317.6 112ZM264.3 75.4C262.9 74.6 261.7 75.2 261.7 76.8C261.7 78.4 262.8 80.4 264.2 81.2C265.6 82 266.7 81.4 266.7 79.7C266.8 78.1 265.7 76.2 264.3 75.4ZM279.5 84.2C278.1 83.4 276.9 84 276.9 85.6C276.9 87.2 278 89.2 279.4 90C280.8 90.8 281.9 90.2 281.9 88.5C282.1 86.9 280.9 85 279.5 84.2ZM294.8 93C293.4 92.2 292.2 92.8 292.2 94.4C292.2 96 293.3 98 294.7 98.8C296.1 99.6 297.2 99 297.3 97.3C297.3 95.7 296.2 93.8 294.8 93ZM310 101.8C308.6 101 307.4 101.6 307.4 103.2C307.4 104.8 308.5 106.8 309.9 107.6C311.3 108.4 312.4 107.8 312.4 106.1C312.4 104.4 311.4 102.6 310 101.8ZM256.7 65.1C255.3 64.3 254.1 64.9 254.1 66.5C254.1 68.1 255.2 70.1 256.6 70.9C258 71.7 259.1 71.1 259.1 69.4C259.2 67.9 258.1 66 256.7 65.1ZM271.9 73.9C270.5 73.1 269.3 73.7 269.3 75.3C269.3 76.9 270.4 78.9 271.8 79.7C273.2 80.5 274.3 79.9 274.3 78.2C274.5 76.7 273.3 74.7 271.9 73.9ZM287.2 82.7C285.8 81.9 284.6 82.5 284.6 84.1C284.6 85.7 285.7 87.7 287.1 88.5C288.5 89.3 289.6 88.7 289.7 87.1C289.7 85.5 288.6 83.5 287.2 82.7ZM302.4 91.5C301 90.7 299.8 91.3 299.8 92.9C299.8 94.5 300.9 96.5 302.3 97.3C303.7 98.1 304.8 97.5 304.8 95.8C304.9 94.3 303.8 92.3 302.4 91.5ZM317.6 100.3C316.2 99.5 315 100.1 315 101.7C315 103.3 316.1 105.3 317.5 106.1C318.9 106.9 320 106.3 320 104.6C320.2 103.1 319 101.1 317.6 100.3ZM264.3 63.7C262.9 62.9 261.7 63.5 261.7 65.1C261.7 66.7 262.8 68.7 264.2 69.5C265.6 70.3 266.7 69.7 266.7 68C266.9 66.5 265.7 64.5 264.3 63.7ZM279.6 72.5C278.2 71.7 277 72.3 277 73.9C277 75.5 278.1 77.5 279.5 78.3C280.9 79.1 282 78.5 282 76.8C282.1 75.3 281 73.3 279.6 72.5ZM294.8 81.3C293.4 80.5 292.2 81.1 292.2 82.7C292.2 84.3 293.3 86.3 294.7 87.1C296.1 87.9 297.2 87.3 297.3 85.7C297.3 84.1 296.2 82.1 294.8 81.3ZM310 90.1C308.6 89.3 307.4 89.9 307.4 91.5C307.4 93.1 308.5 95.1 309.9 95.9C311.3 96.7 312.4 96.1 312.4 94.4C312.4 92.7 311.4 90.9 310 90.1ZM256.7 53.5C255.3 52.7 254.1 53.3 254.1 54.9C254.1 56.5 255.2 58.5 256.6 59.3C258 60.1 259.1 59.5 259.1 57.8C259.3 56.2 258.1 54.3 256.7 53.5ZM272 62.3C270.6 61.5 269.4 62.1 269.4 63.7C269.4 65.3 270.5 67.3 271.9 68.1C273.3 68.9 274.4 68.3 274.4 66.6C274.5 65 273.4 63.1 272 62.3ZM287.2 71.1C285.8 70.3 284.6 70.9 284.6 72.5C284.6 74.1 285.7 76.1 287.1 76.9C288.5 77.7 289.6 77.1 289.7 75.4C289.7 73.8 288.6 71.9 287.2 71.1ZM302.4 79.8C301 79 299.8 79.6 299.8 81.2C299.8 82.8 300.9 84.8 302.3 85.6C303.7 86.4 304.8 85.8 304.8 84.1C305 82.6 303.8 80.7 302.4 79.8ZM317.7 88.7C316.3 87.9 315.1 88.5 315.1 90.1C315.1 91.7 316.2 93.7 317.6 94.5C319 95.3 320.1 94.7 320.1 93C320.2 91.4 319.1 89.5 317.7 88.7ZM264.4 52C263 51.2 261.8 51.8 261.8 53.4C261.8 55 262.9 57 264.3 57.8C265.7 58.6 266.8 58 266.8 56.3C266.8 54.6 265.8 52.8 264.4 52ZM279.6 60.8C278.2 60 277 60.6 277 62.2C277 63.8 278.1 65.8 279.5 66.6C280.9 67.4 282 66.8 282 65.1C282.1 63.6 281 61.6 279.6 60.8ZM294.8 69.6C293.4 68.8 292.2 69.4 292.2 71C292.2 72.6 293.3 74.6 294.7 75.4C296.1 76.2 297.2 75.6 297.3 74C297.4 72.4 296.2 70.4 294.8 69.6ZM310.1 78.4C308.7 77.6 307.5 78.2 307.5 79.8C307.5 81.4 308.6 83.4 310 84.2C311.4 85 312.5 84.4 312.5 82.7C312.6 81.2 311.5 79.2 310.1 78.4ZM256.8 41.8C255.4 41 254.2 41.6 254.2 43.2C254.2 44.8 255.3 46.8 256.7 47.6C258.1 48.4 259.2 47.8 259.2 46.1C259.3 44.6 258.2 42.6 256.8 41.8ZM272 50.6C270.6 49.8 269.4 50.4 269.4 52C269.4 53.6 270.5 55.6 271.9 56.4C273.3 57.2 274.4 56.6 274.4 54.9C274.5 53.4 273.4 51.4 272 50.6ZM287.2 59.4C285.8 58.6 284.6 59.2 284.6 60.8C284.6 62.4 285.7 64.4 287.1 65.2C288.5 66 289.6 65.4 289.7 63.8C289.8 62.2 288.6 60.2 287.2 59.4ZM302.4 68.2C301 67.4 299.8 68 299.8 69.6C299.8 71.2 300.9 73.2 302.3 74C303.7 74.8 304.8 74.2 304.8 72.5C305 70.9 303.9 69 302.4 68.2ZM317.7 77C316.3 76.2 315.1 76.8 315.1 78.4C315.1 80 316.2 82 317.6 82.8C319 83.6 320.1 83 320.1 81.3C320.2 79.8 319.1 77.8 317.7 77ZM264.4 40.4C263 39.6 261.8 40.2 261.8 41.8C261.8 43.4 262.9 45.4 264.3 46.2C265.7 47 266.8 46.4 266.8 44.8C266.9 43.1 265.8 41.2 264.4 40.4ZM279.6 49.2C278.2 48.4 277 49 277 50.6C277 52.2 278.1 54.2 279.5 55C280.9 55.8 282 55.2 282 53.6C282.2 51.9 281 50 279.6 49.2ZM294.9 57.9C293.5 57.1 292.3 57.7 292.3 59.3C292.3 60.9 293.4 62.9 294.8 63.7C296.2 64.5 297.3 63.9 297.4 62.3C297.4 60.7 296.3 58.7 294.9 57.9ZM310.1 66.7C308.7 65.9 307.5 66.5 307.5 68.1C307.5 69.7 308.6 71.7 310 72.5C311.4 73.3 312.5 72.7 312.5 71.1C312.6 69.5 311.5 67.6 310.1 66.7ZM256.8 30.1C255.4 29.3 254.2 29.9 254.2 31.5C254.2 33.1 255.3 35.1 256.7 35.9C258.1 36.7 259.2 36.1 259.2 34.4C259.3 32.9 258.2 30.9 256.8 30.1ZM272 38.9C270.6 38.1 269.4 38.7 269.4 40.3C269.4 41.9 270.5 43.9 271.9 44.7C273.3 45.5 274.4 44.9 274.4 43.2C274.6 41.7 273.4 39.7 272 38.9ZM287.3 47.7C285.9 46.9 284.7 47.5 284.7 49.1C284.7 50.7 285.8 52.7 287.2 53.5C288.6 54.3 289.7 53.7 289.8 52.1C289.9 50.5 288.7 48.5 287.3 47.7ZM302.5 56.5C301.1 55.7 299.9 56.3 299.9 57.9C299.9 59.5 301 61.5 302.4 62.3C303.8 63.1 304.9 62.5 304.9 60.8C305 59.3 303.9 57.3 302.5 56.5ZM317.7 65.3C316.3 64.5 315.1 65.1 315.1 66.7C315.1 68.3 316.2 70.3 317.6 71.1C319 71.9 320.1 71.3 320.1 69.6C320.3 68.1 319.1 66.1 317.7 65.3Z" fill="#FFF6EA"/>
</svg>
