<svg width="406" height="372" viewBox="0 0 406 372" fill="none" xmlns="http://www.w3.org/2000/svg">
<g clip-path="url(#clip0)">
<path d="M111.6 278.8H107.9C103.5 278.8 99.8999 275.2 99.8999 270.8V82.6C99.8999 78.2 103.5 74.6 107.9 74.6H111.6C116 74.6 119.6 78.2 119.6 82.6V270.8C119.6 275.2 116 278.8 111.6 278.8Z" fill="#2F58FF"/>
<path d="M157.5 114.9C157.6 114.1 157.6 113.2 157.7 112.4C157.7 112.2 157.8 111.9 157.8 111.7C157.9 111.3 157.9 110.9 158 110.5C158 110.2 158.1 110 158.1 109.7C158.2 109.3 158.2 108.9 158.3 108.6C158.3 108.4 158.4 108.2 158.4 108C158.6 107 158.8 106.1 159.1 105.1C159.1 104.9 159.2 104.8 159.2 104.6C159.4 103.8 159.7 102.9 160 102.1C160 102 160 102 160.1 101.9C160.4 101.1 160.7 100.3 161 99.5C161.1 99.3 161.2 99.1 161.2 98.9C161.5 98.2 161.7 97.5 162 96.9C162 96.8 162.1 96.7 162.1 96.6C162.4 95.9 162.8 95.1 163.1 94.4C163.2 94.2 163.3 94 163.4 93.8C163.7 93.2 164 92.6 164.3 92.1C164.4 91.9 164.5 91.7 164.6 91.6C165 90.9 165.4 90.2 165.8 89.4C165.9 89.3 166 89.1 166 89C166.4 88.4 166.7 87.8 167.1 87.2C167.2 87 167.3 86.8 167.4 86.7C167.9 86 168.4 85.2 168.9 84.5C169 84.4 169.1 84.3 169.1 84.2C169.6 83.4 170.2 82.7 170.8 82C170.9 81.9 170.9 81.9 171 81.8C171.7 80.9 172.4 80.1 173.1 79.2C173.2 79.1 173.3 79 173.4 78.9C173.8 78.4 174.3 77.9 174.8 77.4L174.9 77.3C175.4 76.8 175.9 76.3 176.4 75.8C176.5 75.7 176.6 75.6 176.7 75.5C177.3 74.9 178 74.2 178.7 73.7C178.8 73.6 178.8 73.6 178.9 73.5C179.6 72.9 180.3 72.3 181 71.8C181.1 71.7 181.3 71.6 181.4 71.5C182.1 71 182.8 70.4 183.5 70C183.6 69.9 183.8 69.8 183.9 69.7C184.7 69.2 185.4 68.7 186.2 68.3C186.8 67.9 187.4 67.6 188 67.3C188.2 67.2 188.3 67.1 188.5 67C189 66.8 189.4 66.6 189.9 66.4C190.1 66.3 190.2 66.3 190.4 66.2C190.8 66 191.3 65.9 191.7 65.7C191.8 65.7 191.9 65.6 192 65.6C192.5 65.4 193 65.3 193.6 65.1C193.9 65 194.2 64.9 194.5 64.9C194.6 64.9 194.8 64.8 194.9 64.8C195.3 64.7 195.8 64.6 196.2 64.6C196.2 64.6 196.2 64.6 196.3 64.6C196.7 64.5 197.1 64.5 197.5 64.5C197.6 64.5 197.8 64.5 197.9 64.5C198.1 64.5 198.4 64.5 198.6 64.5C199.2 64.5 199.7 64.5 200.3 64.5C200.4 64.5 200.5 64.5 200.6 64.5C201 64.5 201.5 64.6 201.9 64.7C202 64.7 202.2 64.7 202.3 64.8C202.8 64.9 203.3 65 203.7 65.1C203.7 65.1 203.7 65.1 203.8 65.1C204.2 65.2 204.7 65.4 205.1 65.6C205.2 65.7 205.3 65.7 205.5 65.8C205.9 66 206.2 66.1 206.6 66.3C206.7 66.4 206.8 66.4 206.9 66.5L98.2999 2.9C98.1999 2.9 98.1999 2.8 98.0999 2.8C97.9999 2.8 97.9999 2.7 97.8999 2.7C97.5999 2.5 97.1999 2.3 96.7999 2.2C96.6999 2.2 96.6999 2.1 96.5999 2.1C96.4999 2.1 96.4999 2.1 96.3999 2C95.9999 1.8 95.4999 1.7 95.0999 1.5C95.0999 1.5 95.0999 1.5 94.9999 1.5C94.4999 1.4 93.9999 1.3 93.5999 1.2C93.4999 1.2 93.4999 1.2 93.3999 1.2C93.2999 1.2 93.1999 1.2 93.1999 1.2C92.7999 1.1 92.2999 1.1 91.8999 1C91.7999 1 91.7999 1 91.6999 1H91.5999C91.0999 1 90.4999 1 89.8999 1C89.9999 1 89.9999 1 89.8999 1C89.6999 1 89.4999 1 89.3999 1C89.2999 1 89.0999 1 88.9999 1C88.5999 1 88.1999 1.1 87.7999 1.1C87.3999 1.2 86.8999 1.2 86.4999 1.3C86.3999 1.3 86.1999 1.4 86.0999 1.4C85.7999 1.5 85.5999 1.5 85.2999 1.6H85.1999C84.6999 1.7 84.1999 1.9 83.5999 2.1C83.4999 2.1 83.3999 2.2 83.2999 2.2C82.8999 2.4 82.4999 2.5 81.9999 2.7C81.8999 2.7 81.8999 2.7 81.7999 2.8C81.6999 2.8 81.5999 2.9 81.4999 2.9C80.9999 3.1 80.5999 3.3 80.0999 3.5C79.8999 3.6 79.7999 3.7 79.5999 3.8C78.9999 4.1 78.3999 4.4 77.7999 4.8C76.9999 5.2 76.2999 5.7 75.4999 6.2C75.3999 6.3 75.1999 6.4 75.0999 6.5C74.3999 7 73.6999 7.5 72.9999 8C72.8999 8.1 72.6999 8.2 72.5999 8.3C71.8999 8.9 71.1999 9.4 70.4999 10C70.3999 10.1 70.3999 10.1 70.2999 10.2C69.5999 10.8 68.9999 11.4 68.2999 12C68.1999 12.1 68.1999 12.1 68.0999 12.2L67.9999 12.3C67.4999 12.8 66.9999 13.3 66.4999 13.8C66.4999 13.8 66.4999 13.9 66.3999 13.9C65.8999 14.4 65.4999 14.9 64.9999 15.4L64.8999 15.5C64.7999 15.6 64.7999 15.6 64.6999 15.7C63.9999 16.5 63.2999 17.4 62.5999 18.3C62.5999 18.3 62.5999 18.3 62.4999 18.4L62.3999 18.5C61.8999 19.2 61.2999 19.9 60.7999 20.7C60.6999 20.8 60.6999 20.9 60.5999 21C60.5999 21 60.5999 21.1 60.4999 21.1C59.9999 21.8 59.4999 22.5 58.9999 23.3C58.9999 23.4 58.8999 23.4 58.8999 23.5C58.7999 23.6 58.7999 23.7 58.6999 23.8C58.2999 24.4 57.8999 25 57.5999 25.6C57.4999 25.7 57.4999 25.8 57.3999 25.9C57.3999 25.9 57.3999 26 57.2999 26C56.8999 26.7 56.4999 27.4 56.0999 28.1C56.0999 28.2 55.9999 28.2 55.9999 28.3C55.8999 28.4 55.8999 28.5 55.7999 28.6C55.4999 29.2 55.1999 29.8 54.8999 30.4C54.7999 30.5 54.7999 30.6 54.6999 30.8C54.6999 30.9 54.5999 30.9 54.5999 31C54.1999 31.7 53.8999 32.5 53.5999 33.2C53.5999 33.2 53.5999 33.2 53.5999 33.3C53.5999 33.4 53.4999 33.5 53.4999 33.5C53.1999 34.2 52.8999 34.8 52.6999 35.5C52.6999 35.6 52.5999 35.7 52.5999 35.8C52.5999 35.9 52.4999 36 52.4999 36.1C52.1999 36.9 51.8999 37.7 51.5999 38.5C51.5999 38.6 51.5999 38.6 51.4999 38.7C51.1999 39.4 50.7999 40.1 50.7999 40.8C50.7999 41 50.6999 41.2 50.6999 41.4C50.6999 41.5 50.6999 41.5 50.6999 41.6C50.3999 42.6 50.1999 43.5 49.9999 44.5C49.9999 44.6 49.9999 44.7 49.8999 44.8C49.8999 44.9 49.8999 45 49.7999 45.2C49.6999 45.6 49.6999 46 49.5999 46.3C49.5999 46.6 49.4999 46.8 49.4999 47.1C49.3999 47.5 49.3999 47.9 49.2999 48.3C49.2999 48.5 49.1999 48.7 49.1999 48.9V49C49.0999 49.8 48.9999 50.7 48.9999 51.5C48.9999 51.7 48.9999 51.9 48.9999 52C48.9999 52.8 48.8999 53.7 48.8999 54.5L49.0999 111.4C49.0999 112.5 49.6999 113.6 50.6999 114.2L152.8 173.5C155 174.8 157.6 173.2 157.6 170.7L157.4 117.6C157.4 116.8 157.4 115.9 157.5 115.1C157.5 115.3 157.5 115.1 157.5 114.9Z" fill="white"/>
<path d="M205.4 65.3C205.8 65.5 206.1 65.6 206.5 65.8C206.6 65.9 206.7 65.9 206.8 66L98.2999 2.9C98.1999 2.9 98.1999 2.8 98.0999 2.8C97.9999 2.8 97.9999 2.7 97.8999 2.7C97.5999 2.5 97.1999 2.3 96.7999 2.2C96.6999 2.2 96.6999 2.1 96.5999 2.1C96.4999 2.1 96.4999 2.1 96.3999 2C95.9999 1.8 95.4999 1.7 95.0999 1.5C95.0999 1.5 95.0999 1.5 94.9999 1.5C94.4999 1.4 93.9999 1.3 93.5999 1.2C93.4999 1.2 93.4999 1.2 93.3999 1.2C93.2999 1.2 93.1999 1.2 93.1999 1.2C92.7999 1.1 92.2999 1.1 91.8999 1C91.7999 1 91.7999 1 91.6999 1H91.5999C91.0999 1 90.4999 1 89.8999 1C89.9999 1 89.9999 1 89.8999 1C89.6999 1 89.4999 1 89.3999 1C89.2999 1 89.0999 1 88.9999 1C88.5999 1 88.1999 1.1 87.7999 1.1C87.3999 1.2 86.8999 1.2 86.4999 1.3C86.3999 1.3 86.1999 1.4 86.0999 1.4C85.7999 1.5 85.5999 1.5 85.2999 1.6H85.1999C84.6999 1.7 84.1999 1.9 83.5999 2.1C83.4999 2.1 83.3999 2.2 83.2999 2.2C82.8999 2.4 82.4999 2.5 81.9999 2.7C81.8999 2.7 81.8999 2.7 81.7999 2.8C81.6999 2.8 81.5999 2.9 81.4999 2.9C80.9999 3.1 80.5999 3.3 80.0999 3.5C79.8999 3.6 79.7999 3.7 79.5999 3.8C78.9999 4.1 78.3999 4.4 77.7999 4.8C76.9999 5.2 76.2999 5.7 75.4999 6.2C75.3999 6.3 75.1999 6.4 75.0999 6.5C74.3999 7 73.6999 7.5 72.9999 8C72.8999 8.1 72.6999 8.2 72.5999 8.3C71.8999 8.9 71.1999 9.4 70.4999 10C70.3999 10.1 70.3999 10.1 70.2999 10.2C69.5999 10.8 68.9999 11.4 68.2999 12C68.1999 12.1 68.1999 12.1 68.0999 12.2L67.9999 12.3C67.4999 12.8 66.9999 13.3 66.4999 13.8C66.4999 13.8 66.4999 13.9 66.3999 13.9C65.8999 14.4 65.4999 14.9 64.9999 15.4L64.8999 15.5C64.7999 15.6 64.7999 15.6 64.6999 15.7C63.9999 16.5 63.2999 17.4 62.5999 18.3C62.5999 18.3 62.5999 18.3 62.4999 18.4L62.3999 18.5C61.8999 19.2 61.2999 19.9 60.7999 20.7C60.6999 20.8 60.6999 20.9 60.5999 21C60.5999 21 60.5999 21.1 60.4999 21.1C59.9999 21.8 59.4999 22.5 58.9999 23.3C58.9999 23.4 58.8999 23.4 58.8999 23.5C58.7999 23.6 58.7999 23.7 58.6999 23.8C58.2999 24.4 57.8999 25 57.5999 25.6C57.4999 25.7 57.4999 25.8 57.3999 25.9C57.3999 25.9 57.3999 26 57.2999 26C56.8999 26.7 56.4999 27.4 56.0999 28.1C56.0999 28.2 55.9999 28.2 55.9999 28.3C55.8999 28.4 55.8999 28.5 55.7999 28.6C55.4999 29.2 55.1999 29.8 54.8999 30.4C54.7999 30.5 54.7999 30.6 54.6999 30.8C54.6999 30.9 54.5999 30.9 54.5999 31C54.1999 31.7 53.8999 32.5 53.5999 33.2C53.5999 33.2 53.5999 33.2 53.5999 33.3C53.5999 33.4 53.4999 33.5 53.4999 33.5C53.1999 34.2 52.8999 34.8 52.6999 35.5C52.6999 35.6 52.5999 35.7 52.5999 35.8C52.5999 35.9 52.4999 36 52.4999 36.1C52.1999 36.9 51.8999 37.7 51.5999 38.5C51.5999 38.6 51.5999 38.6 51.4999 38.7C51.1999 39.4 50.7999 40.1 50.7999 40.8C50.7999 41 50.6999 41.2 50.6999 41.4C50.6999 41.5 50.6999 41.5 50.6999 41.6C50.3999 42.6 50.1999 43.5 49.9999 44.5C49.9999 44.6 49.9999 44.7 49.8999 44.8C49.8999 44.9 49.8999 45 49.7999 45.2C49.6999 45.6 49.6999 46 49.5999 46.3C49.5999 46.6 49.4999 46.8 49.4999 47.1C49.3999 47.5 49.3999 47.9 49.2999 48.3C49.2999 48.5 49.1999 48.7 49.1999 48.9V49C49.0999 49.8 48.9999 50.7 48.9999 51.5C48.9999 51.7 48.9999 51.9 48.9999 52C48.9999 52.8 48.8999 53.7 48.8999 54.5L49.0999 111.4C49.0999 112.5 49.6999 113.6 50.6999 114.2L152.8 173.5C155 174.8 157.6 173.2 157.6 170.7" stroke="#171A21" stroke-width="2" stroke-miterlimit="10" stroke-linecap="round" stroke-linejoin="round"/>
<path d="M186.3 68C202.3 58.8 215.3 66.2 215.3 84.5L215.5 141.4C215.5 142.6 214.9 143.6 213.9 144.2L162.5 173.9C160.4 175.1 157.7 173.6 157.7 171.1L157.5 117.9C157.4 99.6 170.3 77.3 186.3 68Z" fill="#FFD394"/>
<path d="M129.8 104.7L87.7001 80.4001C84.9001 78.8001 82.6001 80.1001 82.6001 83.3001V89.1V98.8001C82.6001 103.5 85.9001 109.3 90.0001 111.7C94.1001 114.1 97.5001 112.2 97.5001 107.4V97.7L129.8 116.3C132.6 117.9 134.9 116.6 134.9 113.4C134.8 110.2 132.6 106.3 129.8 104.7Z" fill="#2F58FF"/>
<path d="M373.6 251.6C373.6 251.8 373.6 251.9 373.5 252.1C373.5 252.2 373.4 252.4 373.4 252.5C373.4 252.6 373.3 252.8 373.3 252.9C373.3 253 373.2 253.1 373.1 253.3C373 253.5 373 253.6 372.9 253.8C372.8 253.9 372.8 254 372.7 254.1C372.6 254.3 372.5 254.4 372.4 254.6C372.3 254.7 372.2 254.8 372.2 254.9C372 255.1 371.8 255.4 371.6 255.6C371.5 255.7 371.4 255.8 371.4 255.8C371.3 255.9 371.1 256.1 370.9 256.2C370.8 256.3 370.6 256.4 370.5 256.5C370.3 256.6 370.1 256.7 370 256.9C369.8 257 369.6 257.1 369.4 257.3L200.6 355.4C200.2 355.7 199.7 355.9 199.2 356.1C199.1 356.2 198.9 356.2 198.8 356.3C198.4 356.5 198 356.6 197.6 356.7C197.5 356.7 197.3 356.8 197.2 356.8C196.9 356.9 196.7 356.9 196.4 357C196.2 357.1 196 357.1 195.8 357.2C195.5 357.3 195.3 357.3 195 357.4C194.8 357.4 194.6 357.5 194.4 357.5C193.8 357.6 193.3 357.7 192.7 357.7C192.5 357.7 192.3 357.7 192.2 357.7C191.9 357.7 191.5 357.8 191.2 357.8C191 357.8 190.8 357.8 190.6 357.8C190.3 357.8 190.1 357.8 189.8 357.8C189.6 357.8 189.3 357.8 189.1 357.8C188.9 357.8 188.6 357.8 188.4 357.8C188.2 357.8 187.9 357.8 187.7 357.7C187.5 357.7 187.2 357.6 187 357.6C186.8 357.6 186.6 357.5 186.3 357.5C186 357.5 185.8 357.4 185.5 357.4C185.3 357.4 185.1 357.3 184.9 357.3C184.6 357.2 184.3 357.2 184 357.1C183.8 357.1 183.7 357 183.5 357C183 356.8 182.4 356.7 181.9 356.5C181.6 356.4 181.4 356.3 181.1 356.2C181 356.1 180.8 356.1 180.7 356C180.3 355.8 180 355.6 179.6 355.4L68.2999 291.1C65.3999 289.4 63.8999 287.2 63.8999 285V299.1C63.8999 301.3 65.3999 303.5 68.2999 305.2L179.5 369.4C179.9 369.6 180.2 369.8 180.6 370C180.7 370.1 180.9 370.1 181 370.2C181.2 370.3 181.4 370.4 181.7 370.5H181.8C182.3 370.7 182.8 370.9 183.4 371H183.5C183.6 371 183.8 371.1 183.9 371.1C184.2 371.2 184.5 371.3 184.8 371.3C184.9 371.3 185 371.3 185 371.4C185.1 371.4 185.2 371.4 185.4 371.5C185.7 371.5 185.9 371.6 186.2 371.6C186.3 371.6 186.4 371.6 186.5 371.7C186.6 371.7 186.7 371.7 186.8 371.7C187 371.7 187.3 371.8 187.5 371.8C187.6 371.8 187.7 371.8 187.9 371.8C188 371.8 188.1 371.8 188.2 371.8C188.5 371.8 188.7 371.8 189 371.8C189.1 371.8 189.3 371.8 189.4 371.8C189.5 371.8 189.6 371.8 189.7 371.8C190 371.8 190.2 371.8 190.5 371.8C190.6 371.8 190.8 371.8 190.9 371.8C191 371.8 191.1 371.8 191.1 371.8C191.4 371.8 191.8 371.8 192.1 371.7C192.2 371.7 192.4 371.7 192.5 371.7H192.6C193.2 371.6 193.7 371.6 194.3 371.5H194.4C194.6 371.5 194.7 371.4 194.9 371.4C195.2 371.3 195.4 371.3 195.7 371.2C195.9 371.2 196.1 371.1 196.3 371C196.6 370.9 196.8 370.9 197.1 370.8C197.2 370.8 197.2 370.8 197.3 370.8C197.4 370.8 197.5 370.7 197.6 370.7C198 370.6 198.4 370.4 198.8 370.3C198.9 370.2 199.1 370.2 199.2 370.1C199.7 369.9 200.2 369.7 200.6 369.4L369.4 271.3C369.5 271.3 369.5 271.2 369.6 271.2C369.7 271.1 369.9 271 370 270.9C370.2 270.8 370.4 270.7 370.5 270.5C370.6 270.4 370.8 270.3 370.9 270.2C371.1 270.1 371.2 270 371.4 269.8L371.5 269.7C371.6 269.6 371.6 269.6 371.7 269.5C371.9 269.3 372.1 269.1 372.3 268.8C372.3 268.7 372.4 268.7 372.4 268.7C372.4 268.7 372.5 268.6 372.5 268.5C372.6 268.3 372.7 268.2 372.8 268C372.8 267.9 372.9 267.9 372.9 267.8C372.9 267.8 372.9 267.7 373 267.7C373.1 267.5 373.1 267.4 373.2 267.2C373.2 267.1 373.3 267 373.3 266.9V266.8C373.4 266.7 373.4 266.5 373.4 266.4C373.4 266.3 373.5 266.2 373.5 266.1V266C373.5 265.8 373.5 265.7 373.6 265.5C373.6 265.4 373.6 265.3 373.6 265.2V265.1V251C373.7 251.3 373.6 251.4 373.6 251.6Z" fill="#2F58FF"/>
<path d="M369.3 245C375.1 248.4 375.1 253.8 369.4 257.1L200.6 355.2C194.8 358.6 185.5 358.6 179.6 355.2L68.3001 291.1C62.5001 287.7 62.5001 282.3 68.2001 279L237 180.9C242.8 177.5 252.2 177.5 258 180.9L369.3 245Z" fill="#FFD394"/>
<path d="M326.6 259.2L236.4 207.1C232.5 204.9 226.3 204.9 222.4 207.1L91.6999 283C87.8999 285.2 87.8999 288.9 91.7999 291.1L182 343.2C185.9 345.4 192.1 345.4 196 343.2L326.7 267.2C330.5 265 330.4 261.4 326.6 259.2ZM300.7 221.9C297.5 220 292.3 220 289.1 221.9C285.9 223.8 285.9 226.8 289.1 228.6C292.3 230.5 297.5 230.5 300.7 228.6C304 226.8 304 223.8 300.7 221.9Z" fill="white" stroke="#171A21" stroke-width="2" stroke-miterlimit="10" stroke-linecap="round" stroke-linejoin="round" stroke-dasharray="12 12"/>
<path d="M265.4 242.3C265.4 242.4 265.4 242.4 265.4 242.5C265.3 243 265.2 243.4 265 243.9C265 244 265 244 264.9 244.1C264.7 244.6 264.5 245 264.3 245.5C264.3 245.6 264.2 245.6 264.2 245.7C264 246.2 263.7 246.6 263.4 247.1C263.4 247.2 263.3 247.2 263.3 247.3C263 247.7 262.7 248.1 262.3 248.5C262.2 248.6 262.2 248.7 262.1 248.7C261.7 249.1 261.3 249.6 260.8 250C260.7 250.1 260.7 250.1 260.6 250.2C260.1 250.6 259.6 251 259.1 251.4C259 251.5 258.9 251.5 258.9 251.6C258.3 252 257.7 252.4 257 252.8L197.6 287.3C197 287.7 196.3 288 195.6 288.3C195.4 288.4 195.2 288.5 195.1 288.6C194.5 288.9 193.9 289.2 193.2 289.4C193.1 289.4 193 289.5 192.9 289.5C192.2 289.8 191.5 290 190.8 290.2C190.3 290.4 189.8 290.5 189.3 290.6C188.9 290.7 188.5 290.8 188.1 290.9C187.6 291 187 291.1 186.5 291.3C186.1 291.4 185.7 291.5 185.3 291.5C185.1 291.5 185 291.6 184.8 291.6C184.1 291.7 183.4 291.8 182.8 291.9C182.6 291.9 182.4 292 182.2 292C181.8 292 181.4 292.1 181 292.1C180.3 292.2 179.7 292.2 179 292.2C178.6 292.2 178.1 292.2 177.7 292.2C177.2 292.2 176.6 292.2 176.1 292.2C175.6 292.2 175.2 292.2 174.7 292.2C174.2 292.2 173.7 292.2 173.2 292.1C172.7 292.1 172.3 292 171.8 292C171.3 292 170.8 291.9 170.3 291.8C169.9 291.7 169.4 291.7 169 291.6C168.5 291.5 167.9 291.4 167.4 291.3C167 291.2 166.6 291.1 166.2 291.1C165.6 291 165 290.8 164.4 290.6C164 290.5 163.6 290.4 163.2 290.3C163 290.2 162.8 290.2 162.6 290.1C162 289.9 161.4 289.7 160.8 289.5C160.6 289.4 160.5 289.4 160.3 289.3C159.8 289.1 159.2 288.9 158.7 288.6C158.4 288.5 158.2 288.4 157.9 288.3C157.2 287.9 156.4 287.6 155.7 287.2C149.9 283.8 146.9 279.4 146.9 275L146.8 294.1C146.8 298.5 149.7 303 155.6 306.3C156.3 306.7 157 307.1 157.8 307.4C158 307.5 158.3 307.6 158.6 307.7C159 307.9 159.5 308.1 159.9 308.3C160 308.3 160.1 308.4 160.1 308.4C160.3 308.5 160.4 308.5 160.6 308.6C161.2 308.8 161.8 309 162.4 309.2C162.6 309.3 162.8 309.3 163 309.4C163.1 309.4 163.3 309.5 163.4 309.5C163.6 309.6 163.9 309.6 164.2 309.7C164.8 309.9 165.4 310 166 310.2C166.2 310.2 166.3 310.3 166.5 310.3C166.7 310.4 167 310.4 167.2 310.4C167.7 310.5 168.2 310.6 168.8 310.7C169 310.7 169.2 310.8 169.4 310.8C169.6 310.8 169.9 310.8 170.1 310.9C170.6 311 171.1 311 171.6 311.1C171.8 311.1 172.1 311.2 172.3 311.2C172.5 311.2 172.7 311.2 173 311.2C173.5 311.2 174 311.3 174.5 311.3C174.8 311.3 175 311.3 175.3 311.3C175.5 311.3 175.7 311.3 175.9 311.3C176.4 311.3 177 311.3 177.5 311.3C177.8 311.3 178 311.3 178.3 311.3C178.5 311.3 178.6 311.3 178.8 311.3C179.5 311.3 180.1 311.2 180.8 311.2C181.1 311.2 181.3 311.2 181.6 311.1C181.7 311.1 181.9 311.1 182 311.1C182.2 311.1 182.4 311.1 182.6 311C183.3 310.9 184 310.8 184.6 310.7C184.8 310.7 184.9 310.6 185.1 310.6C185.2 310.6 185.3 310.6 185.3 310.6C185.6 310.5 185.9 310.5 186.3 310.4C186.8 310.3 187.4 310.2 187.9 310.1C188.3 310 188.7 309.9 189.1 309.8C189.6 309.7 190.1 309.5 190.6 309.4C190.7 309.4 190.8 309.3 190.9 309.3C191.5 309.1 192.1 308.9 192.7 308.7C192.8 308.7 192.9 308.6 193 308.6C193.6 308.3 194.3 308.1 194.9 307.8C195.1 307.7 195.3 307.6 195.4 307.5C196.1 307.2 196.8 306.8 197.4 306.5L256.8 272C256.9 271.9 257 271.9 257.2 271.8C257.7 271.5 258.2 271.1 258.7 270.8C258.8 270.7 258.9 270.7 258.9 270.6C259.4 270.2 260 269.8 260.4 269.4C260.5 269.3 260.5 269.3 260.6 269.2C260.7 269.1 260.8 269 260.9 269C261.3 268.6 261.6 268.3 262 267.9C262.1 267.8 262.1 267.7 262.2 267.7C262.4 267.5 262.6 267.3 262.8 267C262.9 266.8 263.1 266.6 263.2 266.5C263.2 266.4 263.3 266.4 263.3 266.3C263.5 266 263.8 265.6 264 265.3C264.1 265.2 264.1 265.1 264.2 265C264.2 264.9 264.3 264.9 264.3 264.8C264.5 264.4 264.7 264.1 264.8 263.7C264.8 263.6 264.9 263.5 264.9 263.4C264.9 263.3 264.9 263.3 265 263.2C265.1 262.8 265.2 262.4 265.3 262C265.3 261.9 265.3 261.8 265.3 261.8C265.3 261.7 265.3 261.7 265.3 261.6C265.4 261.2 265.4 260.8 265.4 260.3C265.4 260.2 265.4 260.1 265.4 260L265.5 240.9C265.6 241.3 265.5 241.8 265.4 242.3Z" fill="#2F58FF"/>
<path d="M256.8 228.6C268.4 235.3 268.5 246.2 256.9 252.9L197.5 287.4C186 294.1 167.2 294.1 155.6 287.4C144 280.7 143.9 269.8 155.5 263.1L214.9 228.6C226.4 221.9 245.2 221.9 256.8 228.6Z" fill="#FFD394"/>
</g>
<defs>
<clipPath id="clip0">
<rect width="405.1" height="371.9" fill="white"/>
</clipPath>
</defs>
</svg>
