<svg width="406" height="372" viewBox="0 0 406 372" fill="none" xmlns="http://www.w3.org/2000/svg">
<path d="M56.5002 233.7C43.8002 226.4 23.3002 226.4 10.7002 233.7C-1.89977 241 -1.89977 252.9 10.8002 260.3C23.5002 267.6 44.0002 267.6 56.6002 260.3C69.3002 252.9 69.2002 241 56.5002 233.7Z" stroke="#171A21" stroke-width="2" stroke-miterlimit="10" stroke-linecap="round" stroke-linejoin="round" stroke-dasharray="12 12"/>
<path d="M33.1025 217.892C32.9925 217.892 32.7724 217.892 32.6624 217.892H32.4424L31.6723 217.783L30.9022 217.675L30.2422 217.458L29.5821 217.241L29.3621 217.133L29.6921 216.048L29.2521 217.024L29.142 216.916C28.812 216.807 28.592 216.699 28.372 216.59C28.1519 216.482 27.9319 216.373 27.7119 216.265L27.0518 215.94L26.9418 215.831L27.3819 214.855L26.8318 215.831L26.3918 215.614C26.1717 215.506 26.0617 215.398 25.8417 215.289L25.7317 215.181C25.5117 214.964 25.2916 214.855 25.0716 214.747C25.0716 214.747 25.0716 214.747 24.9616 214.747C24.7416 214.53 24.5216 214.422 24.3015 214.205L23.5314 213.554L22.8714 213.012L22.1013 212.361L21.4412 211.602L20.7812 210.843L20.1211 210.084L19.461 209.325L18.911 208.566C18.6909 208.241 18.4709 208.024 18.2509 207.699L18.1409 207.59C17.9208 207.265 17.8108 207.048 17.5908 206.831C17.3708 206.506 17.1508 206.072 16.9307 205.747C16.6007 205.205 16.2707 204.771 16.0506 204.229L15.9406 204.012C15.9406 204.012 15.9406 203.904 15.8306 203.904C15.5006 203.253 15.1706 202.602 14.7305 201.952L15.6106 201.301L14.6205 201.843V201.735C14.4005 201.301 14.1804 200.759 13.9604 200.325L13.5204 199.241L14.5105 198.699L13.5204 199.133L13.0803 198.265C12.9703 197.94 12.8603 197.614 12.7503 197.398L12.3102 196.313L12.0902 195.663L11.7602 194.795C11.6502 194.578 11.4302 193.819 11.4302 193.819C11.3201 193.494 11.2101 193.277 11.2101 192.952L10.9901 191.867L10.7701 190.675L10.6601 190.024L10.44 189.048C10.44 188.831 10.33 188.181 10.33 188.181C10.33 187.855 10.22 187.53 10.22 187.313L10.11 186.446V185.687C10.11 185.47 10.11 185.47 10.11 185.361V185.253C10.11 185.145 10.11 185.036 10.11 185.036C10.11 184.928 10.11 184.819 10.11 184.711C10.11 184.602 10.11 184.386 10.11 184.277C10.11 184.169 10.11 184.06 10.11 184.06C10.11 183.952 10.11 183.843 10.11 183.735C10.11 183.626 10.11 183.518 10.11 183.518C10.11 183.41 10 183.301 10 183.084V182.217L10.11 181.458L10.22 180.59L10.33 179.723L10.5501 178.747V178.639C10.6601 178.422 10.6601 178.205 10.7701 177.988L10.8801 177.771V177.663C10.9901 177.337 11.1001 177.012 11.2101 176.687L11.3201 176.578C11.4302 176.253 11.6502 175.819 11.8702 175.494L11.9802 175.386C12.0902 175.169 12.3102 174.843 12.5303 174.518L12.6403 174.301C12.8603 174.084 13.0803 173.759 13.1903 173.542C13.4104 173.217 13.7404 173 13.9604 172.783L14.1804 172.675C14.4005 172.458 14.7305 172.241 14.9505 172.133L26.9418 164.217C27.1618 164.108 27.3819 164 27.6019 164C27.9319 164 28.2619 164.217 28.482 164.434C28.812 164.976 28.702 165.627 28.1519 165.952C27.9319 166.06 27.7119 166.277 27.6019 166.386L27.4919 166.494C27.2718 166.711 27.1618 166.819 26.9418 167.036C26.7218 167.253 26.6118 167.47 26.3918 167.687L26.2817 167.795C26.0617 168.012 25.9517 168.229 25.8417 168.554C25.6217 168.988 25.5117 169.313 25.2916 169.639C25.1816 169.964 25.0716 170.289 24.9616 170.506L24.8516 170.723C24.7416 170.94 24.7416 171.048 24.7416 171.265L24.6316 171.59C24.6316 171.699 24.5216 171.916 24.5216 172.024L24.4115 172.458L24.3015 172.892C24.3015 173 24.3015 173.217 24.1915 173.325V173.651C24.1915 173.867 24.1915 173.976 24.1915 174.193V174.518C24.1915 174.735 24.1915 174.952 24.1915 175.169V175.386C24.1915 175.711 24.1915 176.036 24.1915 176.361C24.1915 176.687 24.1915 177.012 24.1915 177.229C24.1915 177.229 24.1915 177.988 24.1915 178.205V178.53C24.1915 178.747 24.3015 179.506 24.3015 179.506C24.3015 179.831 24.4115 180.157 24.4115 180.482V180.699C24.4115 181.024 24.5216 181.241 24.5216 181.566C24.5216 181.566 24.6316 182.325 24.7416 182.542L24.9616 183.518L25.0716 183.843C25.0716 184.06 25.2916 184.819 25.2916 184.819C25.4016 185.145 25.5117 185.47 25.6217 185.795C25.7317 186.229 25.8417 186.446 25.9517 186.771C25.9517 186.771 26.1717 187.53 26.2817 187.747L26.3918 188.072C26.5018 188.289 26.7218 189.048 26.7218 189.048C26.8318 189.373 26.9418 189.699 27.0518 190.024C27.0518 190.024 27.3819 190.783 27.4919 191L27.9319 191.976C28.1519 192.41 28.372 192.843 28.592 193.277L28.702 193.494C29.032 194.145 29.3621 194.687 29.6921 195.337L29.8021 195.554C30.1322 196.096 30.3522 196.53 30.6822 196.964C30.9022 197.289 31.1223 197.614 31.3423 197.94C31.5623 198.157 31.6723 198.482 31.8923 198.699L32.0023 198.807C32.2224 199.133 32.4424 199.349 32.6624 199.675C32.6624 199.675 33.1025 200.325 33.3225 200.434L33.9826 201.193L34.6426 201.952L35.3027 202.711L35.6327 203.036C35.7427 203.145 35.8528 203.253 36.0728 203.361L36.4028 203.687C36.5128 203.795 36.7329 203.904 36.8429 204.012L37.1729 204.229C37.2829 204.337 37.5029 204.446 37.6129 204.663L37.833 204.88C38.053 205.096 38.273 205.205 38.493 205.422C38.8231 205.639 39.0431 205.747 39.2631 205.964C39.4831 206.072 39.7032 206.181 39.9232 206.398L40.1432 206.506C40.2532 206.614 40.4733 206.723 40.5833 206.723L41 207C41.22 207.108 41.0233 207.048 41.2433 207.048C41.5734 207.157 41.7934 207.265 42.0134 207.373C42.0134 207.373 42.1234 207.373 42.1234 207.482C42.1234 207.482 42.2334 207.482 42.3434 207.59C42.4535 207.699 42.6735 207.699 42.7835 207.699L43.0035 207.807C43.1135 207.807 43.2235 207.916 43.4436 207.916L43.6636 208.024C43.7736 208.024 43.8836 208.024 43.9936 208.133H44.3237C44.4337 208.133 44.9837 208.241 44.9837 208.241H45.2038C45.4238 208.241 45.5338 208.241 45.6438 208.241H45.8638C46.0839 208.241 46.1939 208.241 46.4139 208.241H46.6339C46.8539 208.241 47.074 208.133 47.294 208.133L47.734 209.108L47.514 208.024C47.624 208.024 47.734 207.916 47.844 207.916C47.844 207.916 48.1741 207.807 48.2841 207.699C48.3941 207.699 48.5041 207.59 48.6141 207.59L48.8341 207.482C49.0542 207.373 49.1642 207.265 49.2742 207.157C49.4942 207.048 49.7142 206.94 49.9343 206.94C50.2643 206.94 50.5943 207.157 50.8144 207.373C51.1444 207.916 51.0344 208.566 50.4843 208.892L38.493 216.807C38.273 216.916 38.053 217.133 37.833 217.241L37.6129 217.349C37.3929 217.458 37.2829 217.566 37.0629 217.566C36.9529 217.675 36.8429 217.675 36.7329 217.675L36.1828 216.699L36.6228 217.675L36.4028 217.783C36.2928 217.783 36.0728 217.892 35.8528 217.892H35.6327H35.5227C35.3027 217.892 35.0827 218 34.7526 218H34.6426H34.5326C34.3126 218 34.2026 218 33.9826 218H33.7625C33.2125 217.892 33.2125 217.892 33.1025 217.892Z" fill="white" stroke="#171A21" stroke-width="2"/>
<path d="M67.9002 200C67.9002 199.8 67.9002 199.7 67.9002 199.5C67.9002 199.3 67.9002 199.1 67.9002 198.9C67.9002 198.8 67.9002 198.6 67.9002 198.5C67.9002 198.2 67.8002 197.9 67.8002 197.6C67.8002 197.4 67.8002 197.3 67.7002 197.1C67.7002 197 67.7002 197 67.7002 196.9C67.6002 196.4 67.6002 195.9 67.5002 195.3C67.5002 195.2 67.5002 195.2 67.5002 195.1C67.4002 194.7 67.4002 194.2 67.3002 193.8C67.3002 193.7 67.3002 193.6 67.3002 193.6C67.3002 193.4 67.2002 193.2 67.2002 193C67.2002 192.7 67.1002 192.5 67.1002 192.2C67.1002 192.1 67.0002 191.9 67.0002 191.8C67.0002 191.6 66.9002 191.3 66.9002 191.1C66.9002 190.9 66.8002 190.8 66.8002 190.6C66.8002 190.4 66.7002 190.2 66.6002 190C66.5002 189.8 66.5002 189.5 66.4002 189.3C66.4002 189.2 66.3002 189.1 66.3002 189C66.2002 188.7 66.1002 188.4 66.1002 188.1C66.0002 187.9 66.0002 187.7 65.9002 187.5C65.9002 187.4 65.9002 187.4 65.9002 187.3C65.7002 186.8 65.6002 186.2 65.4002 185.7V185.6C65.2002 185.1 65.1002 184.6 64.9002 184.2C64.9002 184.1 64.8002 184.1 64.8002 184C64.7002 183.8 64.7002 183.6 64.6002 183.5C64.5002 183.2 64.4002 183 64.3002 182.7C64.2002 182.5 64.2002 182.4 64.1002 182.2C64.0002 182 64.0002 181.8 63.9002 181.6C63.8002 181.5 63.8002 181.3 63.7002 181.2C63.6002 180.9 63.5002 180.6 63.4002 180.4C63.3002 180.2 63.3002 180.1 63.2002 179.9C63.2002 179.8 63.2002 179.8 63.1002 179.7C62.9002 179.2 62.7002 178.7 62.5002 178.2C62.5002 178.2 62.5002 178.2 62.5002 178.1C62.4002 178 62.4002 177.8 62.3002 177.7C62.1002 177.3 61.9002 176.9 61.8002 176.5C61.8002 176.4 61.7002 176.4 61.7002 176.3C61.6002 176 61.4002 175.7 61.3002 175.4C61.2002 175.1 61.1002 174.9 60.9002 174.6C60.9002 174.6 60.9002 174.5 60.8002 174.5C60.4002 173.7 60.0002 172.9 59.5002 172.1C59.5002 172 59.4002 172 59.4002 171.9C59.3002 171.7 59.2002 171.5 59.1002 171.3C58.9002 171 58.7002 170.7 58.6002 170.3C58.4002 170 58.3002 169.7 58.1002 169.5C57.9002 169.2 57.7002 168.9 57.5002 168.6C57.4002 168.5 57.4002 168.4 57.3002 168.3C57.2002 168.2 57.2002 168.1 57.1002 168C56.6002 167.2 56.0002 166.3 55.4002 165.5C55.0002 164.9 54.6002 164.4 54.2002 163.8C54.2002 163.8 54.2002 163.7 54.1002 163.7C53.8002 163.3 53.5002 162.9 53.2002 162.5C53.1002 162.4 53.1002 162.3 53.0002 162.2C52.6002 161.7 52.3002 161.3 51.9002 160.8C51.9002 160.8 51.9002 160.8 51.8002 160.7C51.7002 160.6 51.6002 160.4 51.4002 160.3C51.2002 160 50.9002 159.7 50.7002 159.4C50.7002 159.3 50.6002 159.3 50.6002 159.2C50.4002 159 50.3002 158.8 50.1002 158.6C49.9002 158.4 49.7002 158.2 49.5002 158C49.4002 157.9 49.4002 157.9 49.3002 157.8C49.1002 157.6 48.9002 157.4 48.8002 157.2C48.6002 157 48.5002 156.9 48.3002 156.7C48.2002 156.6 48.1002 156.5 48.0002 156.4C47.8002 156.2 47.6002 156 47.4002 155.8C47.3002 155.7 47.1002 155.5 47.0002 155.4C46.9002 155.3 46.8002 155.2 46.7002 155.1C46.5002 154.9 46.3002 154.7 46.1002 154.5C46.0002 154.4 45.9002 154.3 45.7002 154.2C45.6002 154.1 45.4002 154 45.3002 153.9C45.1002 153.7 44.9002 153.6 44.7002 153.4C44.6002 153.3 44.5002 153.2 44.4002 153.1C44.2002 153 44.1002 152.8 43.9002 152.7C43.7002 152.6 43.5002 152.4 43.3002 152.3C43.2002 152.2 43.2002 152.2 43.1002 152.1C42.9002 151.9 42.6002 151.8 42.4002 151.6C42.2002 151.5 42.1002 151.4 41.9002 151.2L41.8002 151.1C41.4002 150.8 41.0002 150.5 40.6002 150.2C40.6002 150.2 40.5002 150.2 40.5002 150.1C40.1002 149.8 39.8002 149.6 39.4002 149.4C39.3002 149.3 39.2002 149.3 39.1002 149.2C38.8002 149 38.5002 148.8 38.2002 148.6C38.2002 148.6 38.1002 148.6 38.1002 148.5C37.7002 148.3 37.4002 148.1 37.0002 147.9C36.9002 147.9 36.9002 147.8 36.8002 147.8C36.6002 147.7 36.5002 147.6 36.3002 147.6C36.1002 147.5 36.0002 147.4 35.8002 147.4C35.7002 147.3 35.6002 147.3 35.4002 147.2C35.2002 147.1 35.1002 147.1 34.9002 147C34.8002 147 34.7002 146.9 34.6002 146.9C34.4002 146.8 34.3002 146.8 34.1002 146.7C33.9002 146.6 33.8002 146.6 33.6002 146.5C33.5002 146.5 33.5002 146.5 33.4002 146.4C33.2002 146.3 32.9002 146.2 32.7002 146.1C32.6002 146.1 32.5002 146 32.3002 146C32.3002 146 32.3002 146 32.2002 146C31.8002 145.9 31.4002 145.8 31.0002 145.7C30.9002 145.7 30.9002 145.7 30.8002 145.7C30.5002 145.6 30.1002 145.5 29.8002 145.5C29.8002 145.5 29.8002 145.5 29.7002 145.5C29.5002 145.5 29.3002 145.4 29.1002 145.4C28.9002 145.4 28.7002 145.3 28.5002 145.3H28.4002C28.2002 145.3 27.9002 145.2 27.7002 145.2C27.5002 145.2 27.4002 145.2 27.2002 145.1C27.2002 145.1 24.7002 145.1 23.5002 145.3C23.2002 145.3 22.9002 145.4 22.7002 145.4C22.6002 145.4 22.6002 145.4 22.5002 145.4C22.3002 145.4 22.2002 145.5 22.0002 145.5C21.8002 145.6 21.6002 145.6 21.4002 145.7C21.2002 145.7 21.1002 145.8 20.9002 145.8C20.8002 145.8 20.7002 145.9 20.6002 145.9C20.5002 145.9 20.5002 146 20.4002 146C20.1002 146.1 19.9002 146.2 19.6002 146.3C19.5002 146.4 19.4002 146.4 19.2002 146.5C18.8002 146.7 18.5002 146.9 18.1002 147.1L7.2002 153.8C7.6002 153.6 7.9002 153.4 8.3002 153.2C8.4002 153.1 8.5002 153.1 8.7002 153C9.0002 152.9 9.2002 152.8 9.5002 152.7C9.7002 152.6 9.8002 152.6 10.0002 152.5C10.1002 152.4 10.3002 152.4 10.5002 152.4C10.7002 152.3 10.9002 152.3 11.1002 152.2C11.3002 152.2 11.4002 152.1 11.6002 152.1C11.9002 152 12.3002 152 12.6002 151.9C12.9002 151.8 13.3002 151.8 13.6002 151.8C13.7002 151.8 13.8002 151.8 13.8002 151.8C14.2002 151.8 14.5002 151.8 14.9002 151.8C15.3002 151.8 15.8002 151.8 16.2002 151.8C16.4002 151.8 16.6002 151.8 16.8002 151.9C17.0002 151.9 17.3002 151.9 17.5002 152C17.7002 152 18.0002 152.1 18.2002 152.1C18.4002 152.1 18.6002 152.2 18.8002 152.2C19.2002 152.3 19.5002 152.4 19.9002 152.5C20.0002 152.5 20.0002 152.5 20.1002 152.5C20.5002 152.6 20.9002 152.7 21.4002 152.9C21.5002 152.9 21.6002 153 21.8002 153C22.1002 153.1 22.4002 153.2 22.7002 153.3C22.9002 153.4 23.0002 153.4 23.2002 153.5C23.5002 153.6 23.8002 153.7 24.0002 153.9C24.2002 154 24.3002 154 24.5002 154.1C24.8002 154.2 25.1002 154.4 25.4002 154.5C25.6002 154.6 25.7002 154.6 25.9002 154.7C26.3002 154.9 26.7002 155.1 27.2002 155.4C27.6002 155.6 27.9002 155.8 28.3002 156C28.8002 156.3 29.2002 156.6 29.7002 156.9C29.7002 156.9 29.8002 156.9 29.8002 157C30.3002 157.3 30.7002 157.6 31.2002 158C31.4002 158.1 31.5002 158.2 31.7002 158.3C32.0002 158.5 32.3002 158.8 32.6002 159C32.8002 159.1 33.0002 159.3 33.1002 159.4C33.4002 159.6 33.6002 159.8 33.9002 160.1C34.1002 160.3 34.3002 160.4 34.5002 160.6C34.8002 160.8 35.0002 161.1 35.3002 161.3C35.5002 161.5 35.7002 161.7 35.9002 161.9C36.1002 162.1 36.4002 162.4 36.6002 162.6C36.8002 162.8 37.0002 163 37.2002 163.2C37.4002 163.5 37.7002 163.7 37.9002 164C38.1002 164.2 38.3002 164.4 38.4002 164.6C38.7002 164.9 38.9002 165.2 39.2002 165.4C39.4002 165.6 39.5002 165.8 39.7002 166C40.0002 166.3 40.3002 166.7 40.6002 167C40.7002 167.1 40.8002 167.3 40.9002 167.4C41.3002 167.9 41.7002 168.4 42.1002 168.9C42.2002 169 42.2002 169.1 42.3002 169.1C42.6002 169.5 43.0002 170 43.3002 170.4C43.7002 171 44.1002 171.5 44.5002 172.1C45.1002 172.9 45.6002 173.8 46.2002 174.6C46.3002 174.8 46.5002 175 46.6002 175.2C46.8002 175.5 47.0002 175.8 47.2002 176.1C47.4002 176.4 47.5002 176.7 47.7002 176.9C47.9002 177.2 48.1002 177.5 48.2002 177.9C48.4002 178.2 48.5002 178.4 48.6002 178.7C49.0002 179.5 49.5002 180.3 49.9002 181.1C50.0002 181.4 50.2002 181.7 50.3002 182C50.5002 182.3 50.6002 182.6 50.7002 182.9C50.9002 183.3 51.1002 183.8 51.3002 184.3C51.4002 184.4 51.4002 184.6 51.5002 184.7C51.8002 185.3 52.0002 185.8 52.2002 186.4C52.3002 186.6 52.3002 186.7 52.4002 186.9C52.6002 187.3 52.7002 187.8 52.9002 188.2C53.0002 188.4 53.0002 188.6 53.1002 188.8C53.3002 189.2 53.4002 189.6 53.6002 190C53.7002 190.2 53.7002 190.4 53.8002 190.5C54.0002 191 54.2002 191.6 54.3002 192.1V192.2C54.5002 192.8 54.7002 193.4 54.8002 194C54.9002 194.2 54.9002 194.4 55.0002 194.6C55.1002 195 55.2002 195.4 55.3002 195.8C55.4002 196 55.4002 196.3 55.5002 196.5C55.6002 196.9 55.7002 197.3 55.8002 197.6C55.9002 197.8 55.9002 198.1 55.9002 198.3C56.0002 198.7 56.1002 199.1 56.1002 199.5C56.1002 199.7 56.2002 199.9 56.2002 200.1C56.3002 200.6 56.4002 201.1 56.5002 201.7C56.5002 201.8 56.5002 201.8 56.5002 201.9C56.6002 202.5 56.7002 203.1 56.7002 203.7C56.7002 203.9 56.7002 204 56.8002 204.2C56.8002 204.6 56.9002 205 56.9002 205.4C56.9002 205.6 56.9002 205.8 56.9002 206C56.9002 206.4 56.9002 206.8 57.0002 207.2C57.0002 207.4 57.0002 207.6 57.0002 207.8C57.0002 208.4 57.0002 208.9 57.0002 209.5C57.0002 210.1 57.0002 210.6 57.0002 211.1C57.0002 211.3 57.0002 211.4 57.0002 211.6C57.0002 212 57.0002 212.3 56.9002 212.7C56.9002 212.9 56.9002 213.1 56.8002 213.3C56.8002 213.6 56.7002 213.9 56.7002 214.2C56.7002 214.4 56.6002 214.7 56.6002 214.9C56.6002 215.2 56.5002 215.6 56.4002 215.9C56.4002 215.9 56.4002 215.9 56.4002 216C56.4002 216 56.4002 216.1 56.4002 216.2C56.4002 216.3 56.4002 216.4 56.4002 216.5C56.4002 216.6 56.4002 216.7 56.3002 216.8V216.9C56.2002 217.5 56.0002 218 55.9002 218.6C55.8002 218.8 55.8002 219 55.7002 219.1C55.6002 219.4 55.5002 219.8 55.4002 220.1C55.3002 220.5 55.1002 220.9 54.9002 221.3C54.9002 221.4 54.8002 221.5 54.8002 221.6C54.6002 222 54.4002 222.4 54.3002 222.8C54.2002 223 54.1002 223.3 53.9002 223.6C53.9002 223.7 53.8002 223.8 53.8002 223.9C53.6002 224.2 53.5002 224.6 53.3002 224.9C53.3002 225 53.2002 225.1 53.2002 225.1C53.1002 225.4 52.9002 225.6 52.8002 225.9C52.7002 226 52.6002 226.2 52.6002 226.3C52.5002 226.5 52.3002 226.8 52.2002 227C52.1002 227.1 52.1002 227.2 52.0002 227.3C51.8002 227.6 51.7002 227.8 51.5002 228.1C51.4002 228.2 51.4002 228.3 51.3002 228.4C51.1002 228.7 50.9002 229 50.7002 229.2C50.6002 229.3 50.6002 229.4 50.5002 229.4C50.2002 229.8 50.0002 230.1 49.7002 230.5C49.6002 230.6 49.6002 230.7 49.5002 230.8C49.3002 231.1 49.1002 231.4 48.8002 231.6C48.7002 231.7 48.6002 231.8 48.5002 232C48.3002 232.3 48.0002 232.6 47.8002 232.8C47.7002 232.9 47.6002 233 47.5002 233.1C47.2002 233.5 46.8002 233.8 46.5002 234.2C46.4002 234.3 46.4002 234.3 46.3002 234.4C46.0002 234.7 45.7002 235 45.4002 235.3C45.3002 235.4 45.2002 235.5 45.0002 235.6C44.7002 235.9 44.4002 236.1 44.1002 236.4C44.0002 236.5 43.9002 236.6 43.8002 236.7C43.4002 237.1 43.0002 237.4 42.5002 237.8C42.4002 237.8 42.4002 237.9 42.3002 237.9C41.9002 238.2 41.5002 238.5 41.1002 238.8C41.0002 238.9 40.8002 239 40.7002 239.1C40.4002 239.4 40.0002 239.6 39.6002 239.9C39.5002 240 39.3002 240.1 39.2002 240.2C38.7002 240.5 38.2002 240.9 37.6002 241.2L48.5002 234.5C49.0002 234.2 49.6002 233.8 50.1002 233.5C50.3002 233.4 50.4002 233.3 50.5002 233.2C50.9002 233 51.2002 232.7 51.6002 232.4C51.7002 232.3 51.9002 232.2 52.0002 232.1C52.4002 231.8 52.8002 231.5 53.2002 231.2C53.3002 231.2 53.3002 231.1 53.4002 231.1C53.8002 230.7 54.3002 230.4 54.7002 230C54.8002 229.9 54.9002 229.8 55.0002 229.7C55.3002 229.4 55.6002 229.2 55.9002 228.9C56.0002 228.8 56.1002 228.7 56.3002 228.6C56.6002 228.3 56.9002 228 57.2002 227.7C57.3002 227.6 57.3002 227.6 57.4002 227.5C57.8002 227.1 58.1002 226.8 58.4002 226.4C58.5002 226.3 58.6002 226.2 58.7002 226.1C58.9002 225.8 59.2002 225.5 59.4002 225.3C59.5002 225.2 59.6002 225.1 59.7002 224.9C59.9002 224.6 60.2002 224.3 60.4002 224.1C60.5002 224 60.5002 223.9 60.6002 223.8C60.9002 223.4 61.1002 223.1 61.4002 222.7C61.5002 222.6 61.5002 222.5 61.6002 222.5C61.8002 222.2 62.0002 221.9 62.2002 221.7C62.3002 221.6 62.3002 221.5 62.4002 221.4C62.6002 221.1 62.7002 220.9 62.9002 220.6C63.0002 220.5 63.0002 220.4 63.1002 220.3C63.1002 220.3 63.1002 220.2 63.2002 220.2C63.3002 220 63.4002 219.8 63.5002 219.6C63.6002 219.5 63.7002 219.3 63.7002 219.2C63.9002 218.9 64.0002 218.6 64.1002 218.4C64.1002 218.3 64.2002 218.2 64.2002 218.2C64.4002 217.9 64.6002 217.5 64.7002 217.2C64.7002 217.1 64.8002 217 64.8002 216.9C64.9002 216.7 65.0002 216.4 65.1002 216.2V216.1C65.2002 215.8 65.4002 215.5 65.5002 215.3C65.6002 215.2 65.6002 215.1 65.6002 215C65.6002 214.9 65.7002 214.8 65.7002 214.7C65.8002 214.3 66.0002 214 66.1002 213.6V213.5C66.2002 213.2 66.3002 212.8 66.4002 212.5C66.4002 212.3 66.5002 212.2 66.6002 212C66.6002 212 66.6002 212 66.6002 211.9C66.7002 211.4 66.9002 210.8 67.0002 210.2C67.0002 210.2 67.0002 210.2 67.0002 210.1C67.0002 210 67.1002 209.9 67.1002 209.8C67.1002 209.7 67.1002 209.6 67.1002 209.5C67.1002 209.4 67.1002 209.4 67.1002 209.3V209.2C67.1002 209.1 67.1002 208.9 67.2002 208.8C67.2002 208.6 67.3002 208.4 67.3002 208.2C67.3002 208 67.4002 207.7 67.4002 207.5C67.4002 207.4 67.4002 207.4 67.4002 207.3C67.4002 207.1 67.4002 206.9 67.5002 206.6C67.5002 206.4 67.5002 206.2 67.6002 206C67.6002 205.9 67.6002 205.9 67.6002 205.8C67.9002 205.6 68.0002 201.4 67.9002 200Z" fill="white" stroke="#171A21" stroke-width="2" stroke-miterlimit="10" stroke-linecap="round" stroke-linejoin="round"/>
<path d="M29.2 154.3C45.3 164.4 58.2 189 58.2 209.2C58.2 211.6 58 213.8 57.7 215.8C57.7 215.8 57.6 216.2 57.5 216.8C57 219.1 56.4 221.1 55.5 222.8C52.5 229.7 45.8 239.9 30.6 246.2C30.1 246.4 29.6 246.3 29 245.9C28.4 245.5 27.9 244.9 27.4 244.2C12.2 218.7 5.49999 200 2.59999 189.4C1.79999 186.6 1.09999 183.7 0.699992 180.9C0.599992 180.1 0.499993 179.7 0.499993 179.6C-7.48038e-06 176 -0.100007 172.4 0.0999925 169C1.49999 151.8 13.6 145.2 28.1 153.7C28.5 153.8 28.9 154 29.2 154.3ZM29 208.9C36.8 213.8 43.2 209.9 43.2 200.1C43.2 190.3 36.9 178.4 29.1 173.4C21.3 168.5 14.9 172.4 14.9 182.2C14.9 192.1 21.2 204 29 208.9Z" fill="#FFD394"/>
</svg>
