<svg width="555" height="531" viewBox="0 0 555 531" fill="none" xmlns="http://www.w3.org/2000/svg">
<path d="M81.2999 368.9L9.89988 352.4C4.89988 351.3 0.899882 355.5 0.999882 361.9L1.09988 407.8C1.09988 414.2 5.19988 420.3 10.0999 421.5L33.9999 427L33.7999 427.3L42.9999 441.3C43.7999 442.5 44.7999 443.3 45.8999 443.5C46.8999 443.7 47.9999 443.5 48.7999 442.6L57.8999 432.8L57.6999 432.4L81.6999 437.9C86.6999 439 90.6999 434.8 90.5999 428.4L90.4999 382.5C90.2999 376.1 86.2999 370 81.2999 368.9Z" fill="#2F58FF"/>
<path d="M59.5003 382.2C58.5003 382 57.6003 382.2 56.9003 383L44.7003 396C44.0003 396.8 43.0003 397 42.1003 396.8C41.1003 396.6 40.2003 395.9 39.5003 394.8L35.1003 388.1C34.4003 387 33.4003 386.3 32.5003 386.1C31.5003 385.9 30.6003 386.1 29.9003 386.9C28.4003 388.4 28.5003 391.5 29.9003 393.7L39.6003 408.5C40.3003 409.6 41.3003 410.3 42.3003 410.5C43.3003 410.7 44.2003 410.5 44.9003 409.7L62.1003 391C63.6003 389.4 63.5003 386.4 62.1003 384.2C61.4003 383.1 60.4003 382.4 59.5003 382.2Z" fill="white"/>
</svg>
