<svg width="555" height="531" viewBox="0 0 555 531" fill="none" xmlns="http://www.w3.org/2000/svg">
<path d="M152.3 350.8C152.3 350.7 152.3 350.6 152.3 350.5C152.3 350.4 152.3 350.4 152.3 350.3C152.3 350.3 152.3 350.3 152.3 350.2V350.1C152.3 350 152.3 349.9 152.3 349.8C152.3 349.7 152.3 349.6 152.2 349.4C152.2 349.3 152.2 349.2 152.1 349.1C152.1 349 152.1 348.9 152 348.7V348.6V348.5C152 348.4 152 348.4 152 348.3C152 348.2 151.9 348 151.9 347.9C151.9 347.8 151.8 347.7 151.8 347.6C151.8 347.6 151.8 347.6 151.8 347.5C151.8 347.4 151.7 347.3 151.7 347.1C151.7 347 151.6 346.9 151.6 346.7C151.6 346.7 151.6 346.7 151.6 346.6C151.6 346.6 151.6 346.6 151.6 346.5C151.6 346.4 151.5 346.3 151.5 346.3C151.5 346.2 151.4 346.1 151.4 346C151.4 345.9 151.3 345.8 151.3 345.8C151.2 345.7 151.2 345.6 151.1 345.5C151 345.4 151 345.3 150.9 345.1C150.9 345.1 150.9 345.1 150.9 345C150.9 345 150.9 345 150.9 344.9C150.8 344.8 150.8 344.7 150.7 344.6C150.6 344.5 150.6 344.4 150.5 344.2C150.5 344.1 150.4 344.1 150.4 344C150.4 344 150.4 344 150.4 343.9C150.3 343.8 150.3 343.7 150.2 343.6C150.1 343.4 150 343.3 149.9 343.1C149.9 343.1 149.9 343.1 149.9 343C149.8 342.8 149.6 342.6 149.5 342.4C149.4 342.3 149.3 342.1 149.2 342C149.1 341.9 149 341.8 148.9 341.7C148.8 341.6 148.7 341.5 148.6 341.4C148.5 341.3 148.4 341.2 148.3 341.1C148.3 341.1 148.3 341.1 148.3 341C148.2 340.9 148.2 340.9 148.1 340.8C148 340.7 147.9 340.6 147.8 340.5L147.7 340.4C147.7 340.4 147.7 340.4 147.6 340.3L147.5 340.2C147.4 340.1 147.3 340 147.2 339.9L147.1 339.8C147.1 339.8 147.1 339.8 147 339.7L146.9 339.6C146.8 339.5 146.7 339.4 146.6 339.4C146.5 339.3 146.4 339.3 146.4 339.2C146.3 339.1 146.2 339.1 146.1 339C146 338.9 145.9 338.9 145.8 338.8C145.8 338.8 145.8 338.8 145.7 338.8L134.4 332.3C134.4 332.3 134.3 332.3 134.3 332.2L134.2 332.1H134.1C134.1 332.1 134 332.1 134 332C134 332 133.9 332 133.9 331.9H133.8H133.7C133.7 331.9 133.7 331.9 133.6 331.9C133.5 331.9 133.5 331.9 133.4 331.9H133.3C133.2 331.9 133.2 331.9 133.1 331.9C133.1 331.9 133.1 331.9 133 331.9C133 331.9 133 331.9 132.9 331.9C132.9 331.9 132.9 331.9 132.8 331.9C132.7 331.9 132.7 331.9 132.6 331.9C132.5 331.9 132.5 331.9 132.4 332C132.3 332 132.2 332.1 132.1 332.1L128.6 334.1C128 334.5 127.6 335.3 127.6 336.4C127.6 338.6 129.2 341.4 131.1 342.5L140.7 348C141.7 348.6 142.4 349.9 142.4 351L142.2 475.7C142.2 477.9 143.8 480.7 145.7 481.8C146.7 482.4 147.6 482.4 148.2 482L151.7 480C151.8 479.9 152 479.8 152.1 479.7L152.2 479.6C152.2 479.5 152.3 479.5 152.3 479.4C152.3 479.3 152.4 479.2 152.4 479.2C152.4 479.1 152.5 479.1 152.5 479C152.5 478.9 152.5 478.9 152.6 478.8C152.6 478.7 152.6 478.7 152.6 478.6V478.5C152.6 478.5 152.6 478.5 152.6 478.4C152.6 478.3 152.6 478.3 152.6 478.2C152.6 478.1 152.6 478.1 152.6 478C152.6 477.9 152.6 477.9 152.6 477.8C152.6 477.7 152.6 477.7 152.6 477.6L152.8 350.9C152.3 351 152.3 350.9 152.3 350.8ZM128.4 333.9H128.3H128.4ZM128.7 333.8H128.6C128.6 333.9 128.7 333.9 128.7 333.8ZM129.3 333.9C129.3 333.9 129.4 333.9 129.3 333.9H129.2C129.3 333.9 129.3 333.9 129.3 333.9ZM129.7 334H129.6H129.7ZM130 334.1H129.9C130 334.1 130 334.1 130 334.1ZM128.9 333.8H129C129 333.8 128.9 333.9 128.9 333.8Z" fill="#2F58FF"/>
<path d="M183.099 328.5C183.099 328.4 183.099 328.3 183.099 328.2C183.099 328.1 183.099 328.1 183.099 328C183.099 328 183.099 328 183.099 327.9V327.8C183.099 327.7 183.099 327.6 183.099 327.5C183.099 327.4 183.099 327.3 182.999 327.1C182.999 327 182.999 326.9 182.899 326.8C182.899 326.7 182.899 326.6 182.799 326.4V326.3V326.2C182.799 326.1 182.799 326.1 182.799 326C182.799 325.9 182.699 325.7 182.699 325.6C182.699 325.5 182.599 325.4 182.599 325.3C182.599 325.3 182.599 325.3 182.599 325.2C182.599 325.1 182.499 325 182.499 324.8C182.499 324.7 182.399 324.6 182.399 324.4C182.399 324.4 182.399 324.4 182.399 324.3C182.399 324.3 182.399 324.3 182.399 324.2C182.399 324.1 182.299 324 182.299 324C182.299 323.9 182.199 323.8 182.199 323.7C182.199 323.6 182.099 323.5 182.099 323.5C181.999 323.4 181.999 323.3 181.899 323.2C181.799 323.1 181.799 323 181.699 322.8C181.699 322.8 181.699 322.8 181.699 322.7C181.699 322.7 181.699 322.7 181.699 322.6C181.599 322.5 181.599 322.4 181.499 322.3C181.399 322.2 181.399 322.1 181.299 321.9C181.299 321.8 181.199 321.8 181.199 321.7C181.199 321.7 181.199 321.7 181.199 321.6C181.099 321.5 181.099 321.4 180.999 321.3C180.899 321.1 180.799 321 180.699 320.8C180.699 320.8 180.699 320.8 180.699 320.7C180.599 320.5 180.399 320.3 180.299 320.1C180.199 320 180.099 319.8 179.999 319.7C179.899 319.6 179.799 319.5 179.699 319.4C179.599 319.3 179.499 319.2 179.399 319.1C179.299 319 179.199 318.9 179.099 318.8C179.099 318.8 179.099 318.8 179.099 318.7C178.999 318.6 178.999 318.6 178.899 318.5C178.799 318.4 178.699 318.3 178.599 318.2L178.499 318.1C178.499 318.1 178.499 318.1 178.399 318L178.299 317.9C178.199 317.8 178.099 317.7 177.999 317.6L177.899 317.5C177.899 317.5 177.899 317.5 177.799 317.4L177.699 317.3C177.599 317.2 177.499 317.1 177.399 317.1C177.299 317 177.199 317 177.199 316.9C177.099 316.8 176.999 316.8 176.899 316.7C176.799 316.6 176.699 316.6 176.599 316.5C176.599 316.5 176.599 316.5 176.499 316.5L165.199 310C165.199 310 165.099 310 165.099 309.9L164.999 309.8H164.899C164.899 309.8 164.799 309.8 164.799 309.7C164.799 309.7 164.699 309.7 164.699 309.6H164.599H164.499C164.499 309.6 164.499 309.6 164.399 309.6C164.299 309.6 164.299 309.6 164.199 309.6H164.099C163.999 309.6 163.999 309.6 163.899 309.6C163.899 309.6 163.899 309.6 163.799 309.6C163.799 309.6 163.799 309.6 163.699 309.6C163.699 309.6 163.699 309.6 163.599 309.6C163.499 309.6 163.499 309.6 163.399 309.6C163.299 309.6 163.299 309.6 163.199 309.7C163.099 309.7 162.999 309.8 162.899 309.8L159.399 311.8C158.799 312.2 158.399 313 158.399 314.1C158.399 316.3 159.999 319.1 161.899 320.2L171.499 325.7C172.499 326.3 173.199 327.6 173.199 328.7L172.999 453.4C172.999 455.6 174.599 458.4 176.499 459.5C177.499 460.1 178.399 460.1 178.999 459.7L182.499 457.7C182.599 457.6 182.799 457.5 182.899 457.4L182.999 457.3C182.999 457.2 183.099 457.2 183.099 457.1C183.099 457 183.199 456.9 183.199 456.9C183.199 456.8 183.299 456.8 183.299 456.7C183.299 456.6 183.299 456.6 183.399 456.5C183.399 456.4 183.399 456.4 183.399 456.3V456.2C183.399 456.2 183.399 456.2 183.399 456.1C183.399 456 183.399 456 183.399 455.9C183.399 455.8 183.399 455.8 183.399 455.7C183.399 455.6 183.399 455.6 183.399 455.5C183.399 455.4 183.399 455.4 183.399 455.3L183.599 328.6C183.099 328.7 183.099 328.6 183.099 328.5ZM159.299 311.6H159.199C159.199 311.6 159.199 311.6 159.299 311.6C159.199 311.6 159.199 311.6 159.299 311.6ZM159.499 311.6H159.399C159.499 311.6 159.499 311.6 159.499 311.6ZM160.199 311.6H160.099C160.099 311.6 160.099 311.6 160.199 311.6ZM160.499 311.7H160.399H160.499ZM160.899 311.9H160.799C160.799 311.8 160.799 311.9 160.899 311.9ZM159.699 311.6H159.799C159.799 311.6 159.799 311.6 159.699 311.6Z" fill="#2F58FF"/>
<path d="M168.099 521.3L183.299 512.7L167.099 487.1L152.999 495L168.099 521.3Z" fill="#2F58FF"/>
<path d="M160.199 496C156.199 493.7 152.699 494.2 150.799 496.8C149.899 498.1 149.399 499.9 149.399 502.1C149.399 502.4 149.399 502.6 149.399 502.9C149.699 509.6 154.399 517.4 160.099 520.7C165.799 524 170.499 521.6 170.899 515.3C170.899 515 170.899 514.8 170.899 514.5C170.899 512.2 170.399 509.8 169.499 507.5C167.599 502.8 164.199 498.3 160.199 496Z" fill="white"/>
<path d="M160.2 502.2C158.2 501 156.5 501.3 155.5 502.6C155 503.2 154.8 504.1 154.8 505.3C154.8 505.4 154.8 505.6 154.8 505.7C155 509 157.3 512.9 160.2 514.6C163.1 516.2 165.4 515 165.6 511.9C165.6 511.8 165.6 511.6 165.6 511.5C165.6 510.4 165.3 509.2 164.9 508C163.9 505.6 162.2 503.3 160.2 502.2Z" fill="#98A2F4"/>
<path d="M251 489.5C251 489.7 251 489.8 251 490C251 490.2 251 490.4 250.9 490.5C250.9 490.6 250.8 490.8 250.8 490.9C250.8 491.1 250.7 491.2 250.7 491.4C250.6 491.5 250.6 491.7 250.5 491.8C250.4 492 250.3 492.2 250.2 492.3C250.1 492.5 249.9 492.8 249.8 493L249.7 493.1C249.5 493.3 249.3 493.6 249.1 493.8L249 493.9C248.8 494.1 248.5 494.4 248.3 494.6C248.1 494.8 247.9 494.9 247.8 495C247.6 495.1 247.5 495.3 247.3 495.4C247.1 495.5 246.9 495.7 246.7 495.8C246.5 495.9 246.3 496.1 246 496.2C245.6 496.4 245.2 496.6 244.8 496.8C244.7 496.9 244.6 496.9 244.5 497C244.1 497.2 243.8 497.3 243.4 497.5C243.3 497.5 243.3 497.5 243.2 497.6C242.8 497.8 242.4 497.9 241.9 498C241.6 498.1 241.3 498.2 241 498.3C240.8 498.4 240.5 498.4 240.3 498.5C240 498.6 239.7 498.6 239.3 498.7C239.1 498.7 238.9 498.8 238.6 498.8C237.9 498.9 237.3 499 236.6 499.1C236.4 499.1 236.2 499.1 236 499.2C235.6 499.2 235.2 499.3 234.8 499.3C234.5 499.3 234.3 499.3 234 499.3C233.7 499.3 233.4 499.3 233 499.3C232.7 499.3 232.5 499.3 232.2 499.3C231.9 499.3 231.6 499.3 231.3 499.3C231 499.3 230.8 499.3 230.5 499.2C230.2 499.2 229.9 499.1 229.6 499.1C229.3 499.1 229.1 499 228.8 499C228.5 499 228.2 498.9 227.9 498.8C227.7 498.8 227.4 498.7 227.2 498.7C226.8 498.6 226.5 498.5 226.1 498.4C225.9 498.3 225.6 498.3 225.4 498.2C225.3 498.2 225.2 498.1 225 498.1C224.6 498 224.3 497.9 223.9 497.7C223.8 497.7 223.7 497.6 223.6 497.6C223.3 497.5 223 497.3 222.7 497.2C222.6 497.1 222.4 497.1 222.2 497C221.8 496.8 221.3 496.6 220.9 496.3L170.8 468C167.4 466 165.6 463.4 165.6 460.8V468.6C165.6 471.2 167.3 473.8 170.8 475.8L220.9 504.1C221.3 504.3 221.7 504.6 222.2 504.8C222.3 504.9 222.5 504.9 222.7 505C223 505.1 223.2 505.2 223.5 505.3C223.5 505.3 223.6 505.3 223.6 505.4C223.7 505.4 223.8 505.5 223.9 505.5C224.2 505.6 224.6 505.7 225 505.9C225.1 505.9 225.2 506 225.4 506C225.5 506 225.6 506.1 225.6 506.1C225.7 506.1 225.9 506.2 226 506.2C226.4 506.3 226.7 506.4 227.1 506.5C227.2 506.5 227.3 506.6 227.4 506.6C227.5 506.6 227.7 506.6 227.8 506.7C228.1 506.8 228.4 506.8 228.7 506.9C228.8 506.9 228.9 506.9 229.1 507C229.2 507 229.4 507 229.5 507C229.8 507 230.1 507.1 230.4 507.1C230.5 507.1 230.7 507.1 230.8 507.1C230.9 507.1 231.1 507.1 231.2 507.1C231.5 507.1 231.8 507.1 232.1 507.1C232.2 507.1 232.4 507.1 232.5 507.1C232.6 507.1 232.7 507.1 232.9 507.1C233.2 507.1 233.5 507.1 233.9 507.1C234.1 507.1 234.2 507.1 234.4 507.1C234.5 507.1 234.6 507.1 234.7 507.1C235.1 507.1 235.5 507.1 235.9 507C236.1 507 236.2 507 236.4 507H236.5C237.2 506.9 237.8 506.8 238.5 506.7H238.6C238.8 506.7 239 506.6 239.2 506.6C239.5 506.5 239.8 506.5 240.2 506.4C240.4 506.3 240.7 506.3 240.9 506.2C241.2 506.1 241.5 506 241.8 505.9C241.9 505.9 241.9 505.9 242 505.8C242.4 505.7 242.7 505.6 243.1 505.4C243.2 505.4 243.2 505.4 243.2 505.3C243.6 505.2 244 505 244.3 504.8C244.4 504.8 244.5 504.7 244.6 504.6C245 504.4 245.4 504.2 245.8 504C245.9 504 245.9 503.9 246 503.9C246.2 503.8 246.3 503.7 246.4 503.6C246.6 503.5 246.8 503.3 247 503.2C247.2 503.1 247.3 502.9 247.5 502.8C247.7 502.7 247.9 502.5 248 502.4L248.1 502.3C248.3 502.1 248.5 501.9 248.7 501.7L248.8 501.6C248.9 501.5 249 501.3 249.1 501.2C249.2 501.1 249.3 501 249.3 500.9L249.4 500.8C249.5 500.6 249.7 500.4 249.8 500.2C249.8 500.2 249.8 500.1 249.9 500.1C250 499.9 250.1 499.7 250.2 499.6C250.2 499.5 250.3 499.4 250.3 499.3V499.2C250.4 499 250.4 498.9 250.4 498.7C250.4 498.6 250.5 498.5 250.5 498.3V498.2C250.5 498 250.5 497.8 250.6 497.7C250.6 497.6 250.6 497.5 250.6 497.3C250.6 497.2 250.6 497.2 250.6 497.1L251 489.5Z" fill="#2F58FF"/>
<path d="M171.2 468.3C164.4 464.4 164.3 458 171.1 454C177.9 450.1 188.9 450.1 195.8 454L245.9 482.3C252.7 486.2 252.8 492.6 246 496.6" fill="#98A2F4"/>
<path d="M171.2 468.3C164.4 464.4 164.3 458 171.1 454C177.9 450.1 188.9 450.1 195.8 454L245.9 482.3C252.7 486.2 252.8 492.6 246 496.6" stroke="#171A21" stroke-width="2" stroke-miterlimit="10" stroke-linecap="round" stroke-linejoin="round"/>
<path d="M144.8 488.8C138 484.9 137.9 478.5 144.7 474.5C151.5 470.6 162.5 470.6 169.4 474.5L219.5 502.8C226.3 506.7 226.4 513.1 219.6 517.1L206.5 525.7L144.8 488.8Z" fill="#98A2F4"/>
<path d="M224.599 510C224.599 510.2 224.599 510.3 224.599 510.5C224.599 510.7 224.599 510.9 224.499 511C224.499 511.1 224.399 511.3 224.399 511.4C224.399 511.6 224.299 511.7 224.299 511.9C224.199 512 224.199 512.2 224.099 512.3C223.999 512.5 223.899 512.7 223.799 512.8C223.699 513 223.499 513.3 223.399 513.5L223.299 513.6C223.099 513.8 222.899 514.1 222.699 514.3L222.599 514.4C222.399 514.6 222.099 514.9 221.899 515.1C221.699 515.3 221.499 515.4 221.399 515.5C221.199 515.6 221.099 515.8 220.899 515.9C220.699 516 220.499 516.2 220.299 516.3C220.099 516.4 219.899 516.6 219.599 516.7C219.199 516.9 218.799 517.1 218.399 517.3C218.299 517.4 218.199 517.4 218.099 517.5C217.699 517.7 217.399 517.8 216.999 518C216.899 518 216.899 518 216.799 518.1C216.399 518.3 215.999 518.4 215.499 518.5C215.199 518.6 214.899 518.7 214.599 518.8C214.399 518.9 214.099 518.9 213.899 519C213.599 519.1 213.299 519.1 212.899 519.2C212.699 519.2 212.499 519.3 212.199 519.3C211.499 519.4 210.899 519.5 210.199 519.6C209.999 519.6 209.799 519.6 209.599 519.7C209.199 519.7 208.799 519.8 208.399 519.8C208.099 519.8 207.899 519.8 207.599 519.8C207.299 519.8 206.999 519.8 206.599 519.8C206.299 519.8 206.099 519.8 205.799 519.8C205.499 519.8 205.199 519.8 204.899 519.8C204.599 519.8 204.399 519.8 204.099 519.7C203.799 519.7 203.499 519.6 203.199 519.6C202.899 519.6 202.699 519.5 202.399 519.5C202.099 519.5 201.799 519.4 201.499 519.3C201.299 519.3 200.999 519.2 200.799 519.2C200.399 519.1 200.099 519 199.699 518.9C199.499 518.8 199.199 518.8 198.999 518.7C198.899 518.7 198.799 518.6 198.599 518.6C198.199 518.5 197.899 518.4 197.499 518.2C197.399 518.2 197.299 518.1 197.199 518.1C196.899 518 196.599 517.8 196.299 517.7C196.199 517.6 195.999 517.6 195.799 517.5C195.399 517.3 194.899 517.1 194.499 516.8L144.399 488.5C140.999 486.5 139.199 483.9 139.199 481.3V489.1C139.199 491.7 140.899 494.3 144.399 496.3L194.499 524.6C194.899 524.8 195.299 525.1 195.799 525.3C195.899 525.4 196.099 525.4 196.299 525.5C196.599 525.6 196.799 525.7 197.099 525.8C197.099 525.8 197.199 525.8 197.199 525.9C197.299 525.9 197.399 526 197.499 526C197.799 526.1 198.199 526.2 198.599 526.4C198.699 526.4 198.799 526.5 198.999 526.5C199.099 526.5 199.199 526.6 199.199 526.6C199.299 526.6 199.499 526.7 199.599 526.7C199.999 526.8 200.299 526.9 200.699 527C200.799 527 200.899 527.1 200.999 527.1C201.099 527.1 201.299 527.1 201.399 527.2C201.699 527.3 201.999 527.3 202.299 527.4C202.399 527.4 202.499 527.4 202.699 527.5C202.799 527.5 202.999 527.5 203.099 527.5C203.399 527.5 203.699 527.6 203.999 527.6C204.099 527.6 204.299 527.6 204.399 527.6C204.499 527.6 204.699 527.6 204.799 527.6C205.099 527.6 205.399 527.6 205.699 527.6C205.799 527.6 205.999 527.6 206.099 527.6C206.199 527.6 206.299 527.6 206.499 527.6C206.799 527.6 207.099 527.6 207.499 527.6C207.699 527.6 207.799 527.6 207.999 527.6C208.099 527.6 208.199 527.6 208.299 527.6C208.699 527.6 209.099 527.6 209.499 527.5C209.699 527.5 209.799 527.5 209.999 527.5H210.099C210.799 527.4 211.399 527.3 212.099 527.2H212.199C212.399 527.2 212.599 527.1 212.799 527.1C213.099 527 213.399 527 213.799 526.9C213.999 526.8 214.299 526.8 214.499 526.7C214.799 526.6 215.099 526.5 215.399 526.4C215.499 526.4 215.499 526.4 215.599 526.3C215.999 526.2 216.299 526.1 216.699 525.9C216.799 525.9 216.799 525.9 216.799 525.8C217.199 525.7 217.599 525.5 217.899 525.3C217.999 525.3 218.099 525.2 218.199 525.1C218.599 524.9 218.999 524.7 219.399 524.5C219.499 524.5 219.499 524.4 219.599 524.4C219.799 524.3 219.899 524.2 219.999 524.1C220.199 524 220.399 523.8 220.599 523.7C220.799 523.6 220.899 523.4 221.099 523.3C221.299 523.2 221.499 523 221.599 522.9L221.699 522.8C221.899 522.6 222.099 522.4 222.299 522.2L222.399 522.1C222.499 522 222.599 521.8 222.699 521.7C222.799 521.6 222.899 521.5 222.899 521.4L222.999 521.3C223.099 521.1 223.299 520.9 223.399 520.7C223.399 520.7 223.399 520.6 223.499 520.6C223.599 520.4 223.699 520.2 223.799 520.1C223.799 520 223.899 519.9 223.899 519.8V519.7C223.999 519.5 223.999 519.4 223.999 519.2C223.999 519.1 224.099 519 224.099 518.8V518.7C224.099 518.5 224.099 518.3 224.199 518.2C224.199 518.1 224.199 518 224.199 517.8C224.199 517.7 224.199 517.7 224.199 517.6L224.599 510Z" fill="#2F58FF"/>
<path d="M144.8 488.8C138 484.9 137.9 478.5 144.7 474.5C151.5 470.6 162.5 470.6 169.4 474.5L219.5 502.8C226.3 506.7 226.4 513.1 219.6 517.1" fill="#98A2F4"/>
<path d="M144.8 488.8C138 484.9 137.9 478.5 144.7 474.5C151.5 470.6 162.5 470.6 169.4 474.5L219.5 502.8C226.3 506.7 226.4 513.1 219.6 517.1" stroke="#171A21" stroke-width="2" stroke-miterlimit="10" stroke-linecap="round" stroke-linejoin="round"/>
<path d="M187.499 473.4L151.899 452.8C150.999 452.3 149.799 452.9 149.799 454L149.699 480.8C149.699 482.8 150.699 484.6 152.499 485.6L187.399 505.8C189.099 506.8 191.199 506.8 192.899 505.8L227.599 485.6C229.299 484.6 230.299 482.8 230.299 480.8L230.399 453.9C230.399 452.8 229.199 452.2 228.299 452.7L192.899 473.3C191.399 474.4 189.299 474.4 187.499 473.4Z" fill="white"/>
<path d="M228.499 452.8L193.099 473.4C191.399 474.4 189.299 474.4 187.599 473.4L151.999 452.8C151.099 452.3 151.099 450.9 151.999 450.4L187.399 429.8C189.099 428.8 191.199 428.8 192.899 429.8L228.499 450.4C229.399 450.9 229.399 452.3 228.499 452.8Z" fill="#98A2F4"/>
<path d="M227.699 485.6C229.399 484.6 230.399 482.8 230.399 480.8L230.499 454.7C230.499 452.7 229.499 450.9 227.699 449.9L192.799 429.7C191.099 428.7 188.999 428.7 187.299 429.7L152.599 450C150.899 451 149.899 452.8 149.899 454.8L149.799 480.9C149.799 482.9 150.799 484.7 152.599 485.7" stroke="#171A21" stroke-width="2" stroke-miterlimit="10" stroke-linecap="round" stroke-linejoin="round"/>
<path d="M163.499 443.7L203.999 467L218.199 458.8L177.699 435.4L163.499 443.7Z" fill="white"/>
<path d="M168.699 440.6L163.499 443.7L168.699 446.7" stroke="#171A21" stroke-width="2" stroke-linecap="round" stroke-linejoin="round"/>
<path d="M178.699 452.4L193.799 461.1" stroke="#171A21" stroke-width="2" stroke-linecap="round" stroke-linejoin="round" stroke-dasharray="11.58 11.58"/>
<path d="M198.799 464L203.999 467L209.199 464" stroke="#171A21" stroke-width="2" stroke-linecap="round" stroke-linejoin="round"/>
<path d="M212.999 461.8L218.199 458.8L212.999 455.8" stroke="#171A21" stroke-width="2" stroke-linecap="round" stroke-linejoin="round"/>
<path d="M202.899 450L187.899 441.3" stroke="#171A21" stroke-width="2" stroke-linecap="round" stroke-linejoin="round" stroke-dasharray="11.58 11.58"/>
<path d="M182.899 438.4L177.699 435.4L172.499 438.4" stroke="#171A21" stroke-width="2" stroke-linecap="round" stroke-linejoin="round"/>
<path d="M187.499 435.7L151.899 415.1C150.999 414.6 149.799 415.2 149.799 416.3L149.699 443.1C149.699 445.1 150.699 446.9 152.499 447.9L187.399 468.1C189.099 469.1 191.199 469.1 192.899 468.1L227.599 447.9C229.299 446.9 230.299 445.1 230.299 443.1L230.399 416.2C230.399 415.1 229.199 414.5 228.299 415L192.899 435.6C191.399 436.7 189.299 436.7 187.499 435.7Z" fill="white"/>
<path d="M228.499 415.1L193.099 435.7C191.399 436.7 189.299 436.7 187.599 435.7L151.999 415.1C151.099 414.6 151.099 413.2 151.999 412.7L187.399 392.1C189.099 391.1 191.199 391.1 192.899 392.1L228.499 412.7C229.399 413.3 229.399 414.6 228.499 415.1Z" fill="#98A2F4"/>
<path d="M227.699 447.9C229.399 446.9 230.399 445.1 230.399 443.1L230.499 417C230.499 415 229.499 413.2 227.699 412.2L192.799 392C191.099 391 188.999 391 187.299 392L152.599 412.2C150.899 413.2 149.899 415 149.899 417L149.799 443.1C149.799 445.1 150.799 446.9 152.599 447.9" stroke="#171A21" stroke-width="2" stroke-miterlimit="10" stroke-linecap="round" stroke-linejoin="round"/>
<path d="M163.499 406L203.999 429.3L218.199 421.1L177.699 397.7L163.499 406Z" fill="white"/>
<path d="M168.699 403L163.499 406L168.699 409" stroke="#171A21" stroke-width="2" stroke-linecap="round" stroke-linejoin="round"/>
<path d="M178.699 414.8L193.799 423.4" stroke="#171A21" stroke-width="2" stroke-linecap="round" stroke-linejoin="round" stroke-dasharray="11.58 11.58"/>
<path d="M198.799 426.3L203.999 429.3L209.199 426.3" stroke="#171A21" stroke-width="2" stroke-linecap="round" stroke-linejoin="round"/>
<path d="M212.999 424.1L218.199 421.1L212.999 418.1" stroke="#171A21" stroke-width="2" stroke-linecap="round" stroke-linejoin="round"/>
<path d="M202.899 412.3L187.899 403.6" stroke="#171A21" stroke-width="2" stroke-linecap="round" stroke-linejoin="round" stroke-dasharray="11.58 11.58"/>
<path d="M182.899 400.7L177.699 397.7L172.499 400.8" stroke="#171A21" stroke-width="2" stroke-linecap="round" stroke-linejoin="round"/>
</svg>
