<svg width="555" height="531" viewBox="0 0 555 531" fill="none" xmlns="http://www.w3.org/2000/svg">
<path d="M169.601 283.8C169.301 283.8 169.001 283.8 168.801 283.9C168.701 283.9 168.701 283.9 168.601 283.9C168.401 283.9 168.201 284 168.001 284.1C167.901 284.1 167.901 284.1 167.801 284.2C167.501 284.3 167.301 284.4 167.101 284.5L265.701 227.2C265.701 227.2 265.701 227.2 265.801 227.2C266.001 227.1 266.201 227 266.401 226.9H266.501C266.601 226.9 266.601 226.9 266.701 226.8C266.801 226.8 266.901 226.7 267.001 226.7C267.101 226.7 267.201 226.6 267.401 226.6C267.501 226.6 267.501 226.6 267.601 226.6H267.701C267.901 226.6 268.101 226.5 268.401 226.5H268.501C268.601 226.5 268.601 226.5 268.701 226.5C268.801 226.5 269.001 226.5 269.101 226.5C269.201 226.5 269.401 226.5 269.501 226.5L300.101 225.2C300.401 225.2 300.701 225.2 300.901 225.2C301.001 225.2 301.001 225.2 301.101 225.2C301.401 225.2 301.701 225.2 301.901 225.1C302.001 225.1 302.001 225.1 302.101 225.1C302.301 225.1 302.501 225 302.701 224.9C302.801 224.9 302.801 224.9 302.901 224.8C303.201 224.7 303.401 224.6 303.601 224.5L205.001 281.8C205.001 281.8 205.001 281.8 204.901 281.8C204.701 281.9 204.501 282 204.301 282.1H204.201C204.101 282.1 204.101 282.1 204.001 282.2C203.901 282.2 203.801 282.3 203.701 282.3C203.601 282.3 203.501 282.4 203.301 282.4C203.201 282.4 203.201 282.4 203.101 282.4C203.101 282.4 203.101 282.4 203.001 282.4C202.801 282.4 202.601 282.5 202.401 282.5H202.301C202.201 282.5 202.201 282.5 202.101 282.5C202.001 282.5 201.901 282.5 201.701 282.5C201.501 282.5 201.401 282.5 201.201 282.5L170.601 283.8C170.301 283.8 170.001 283.8 169.801 283.8C169.701 283.8 169.601 283.8 169.601 283.8Z" fill="#98A2F4"/>
<path d="M169.601 283.8C169.301 283.8 169.001 283.8 168.801 283.9C168.701 283.9 168.701 283.9 168.601 283.9C168.401 283.9 168.201 284 168.001 284.1C167.901 284.1 167.901 284.1 167.801 284.2C167.501 284.3 167.301 284.4 167.101 284.5L265.701 227.2C265.701 227.2 265.701 227.2 265.801 227.2C266.001 227.1 266.201 227 266.401 226.9H266.501C266.601 226.9 266.601 226.9 266.701 226.8" fill="#98A2F4"/>
<path d="M169.601 283.8C169.301 283.8 169.001 283.8 168.801 283.9C168.701 283.9 168.701 283.9 168.601 283.9C168.401 283.9 168.201 284 168.001 284.1C167.901 284.1 167.901 284.1 167.801 284.2C167.501 284.3 167.301 284.4 167.101 284.5L265.701 227.2C265.701 227.2 265.701 227.2 265.801 227.2C266.001 227.1 266.201 227 266.401 226.9H266.501C266.601 226.9 266.601 226.9 266.701 226.8" stroke="#171A21" stroke-width="2" stroke-miterlimit="10" stroke-linecap="round" stroke-linejoin="round"/>
<path d="M189.2 341.4C189.4 340.7 189.6 340.1 189.8 339.5C190.4 338 191.2 336.7 192.1 335.6C192.9 334.7 193.7 334 194.7 333.5L293.3 276.2C290.9 277.6 289.1 280 288.1 283.2C287.5 285.1 287.1 287.4 287.1 289.9L188.5 347.2C188.5 345 188.8 343.1 189.2 341.4Z" fill="#2F58FF"/>
<path d="M315.1 402.8L413.7 345.5C410.9 347.1 409 349.9 408.1 353.6C407.7 355.3 407.4 357.2 407.4 359.2L308.8 416.5C308.8 412 309.9 408.3 311.9 405.7C312.7 404.5 313.8 403.5 315.1 402.8Z" fill="#2F58FF"/>
<path d="M222.8 382.7L248.4 368.3L221 325.3L197.4 338.6L222.8 382.7Z" fill="#2F58FF"/>
<path d="M209.5 340.3C202.8 336.4 196.9 337.2 193.8 341.7C192.3 343.9 191.4 346.9 191.4 350.7C191.4 351.2 191.4 351.6 191.4 352.1C192 363.3 199.8 376.4 209.4 381.9C219 387.4 226.9 383.4 227.5 372.9C227.5 372.5 227.5 372 227.5 371.6C227.5 367.8 226.6 363.8 225.1 359.8C222 351.7 216.2 344.2 209.5 340.3Z" fill="white"/>
<path d="M209.5 350.7C206.1 348.8 203.2 349.2 201.6 351.4C200.8 352.5 200.4 354 200.4 355.9C200.4 356.1 200.4 356.4 200.4 356.6C200.7 362.2 204.6 368.7 209.4 371.5C214.2 374.3 218.1 372.2 218.4 367C218.4 366.8 218.4 366.6 218.4 366.3C218.4 364.4 218 362.4 217.2 360.4C215.7 356.4 212.8 352.6 209.5 350.7Z" fill="#98A2F4" stroke="#171A21" stroke-width="2" stroke-miterlimit="10" stroke-linecap="round" stroke-linejoin="round" stroke-dasharray="12 12"/>
<path d="M342.8 451.7L368.4 437.3L341 394.3L317.4 407.6L342.8 451.7Z" fill="#2F58FF"/>
<path d="M329.5 409.3C322.8 405.4 316.9 406.2 313.8 410.7C312.3 412.9 311.4 415.9 311.4 419.7C311.4 420.2 311.4 420.6 311.4 421.1C312 432.3 319.8 445.4 329.4 450.9C339 456.4 346.9 452.4 347.5 441.9C347.5 441.5 347.5 441 347.5 440.6C347.5 436.8 346.6 432.8 345.1 428.8C342 420.7 336.2 413.2 329.5 409.3Z" fill="white"/>
<path d="M329.5 419.7C326.1 417.8 323.2 418.2 321.6 420.4C320.8 421.5 320.4 423 320.4 424.9C320.4 425.1 320.4 425.4 320.4 425.6C320.7 431.2 324.6 437.7 329.4 440.5C334.2 443.3 338.1 441.2 338.4 436C338.4 435.8 338.4 435.6 338.4 435.3C338.4 433.4 338 431.4 337.2 429.4C335.7 425.4 332.8 421.6 329.5 419.7Z" fill="#98A2F4" stroke="#171A21" stroke-width="2" stroke-miterlimit="10" stroke-linecap="round" stroke-linejoin="round" stroke-dasharray="12 12"/>
<path d="M228 232.9C227.7 232.8 227.4 232.6 227.1 232.5C226.8 232.4 226.5 232.3 226.3 232.3C226.1 232.3 226 232.2 225.8 232.2C225.6 232.2 225.4 232.1 225.2 232.1C225.1 232.1 225 232.1 224.9 232.1C224.7 232.1 224.4 232.1 224.2 232.1C224.1 232.1 224.1 232.1 224 232.1C223.7 232.1 223.4 232.1 223.2 232.2C223.1 232.2 223.1 232.2 223 232.2C222.8 232.2 222.6 232.3 222.4 232.4C222.3 232.4 222.3 232.4 222.2 232.5C221.9 232.6 221.7 232.7 221.5 232.8L320.1 175.5C320.1 175.5 320.1 175.5 320.2 175.5C320.4 175.4 320.6 175.3 320.8 175.2H320.9C321 175.2 321 175.2 321.1 175.1C321.2 175.1 321.3 175 321.4 175C321.5 175 321.6 174.9 321.7 174.9C321.8 174.9 321.8 174.9 321.9 174.9H322C322.2 174.9 322.4 174.8 322.7 174.8C322.7 174.8 322.7 174.8 322.8 174.8C322.9 174.8 322.9 174.8 323 174.8C323.2 174.8 323.3 174.8 323.5 174.8C323.6 174.8 323.6 174.8 323.7 174.8C323.8 174.8 323.9 174.8 324 174.8C324.1 174.8 324.2 174.8 324.3 174.8C324.4 174.8 324.5 174.8 324.6 174.9C324.8 174.9 324.9 175 325.1 175C325.2 175 325.2 175 325.3 175C325.5 175.1 325.7 175.1 325.9 175.2C326.1 175.3 326.3 175.4 326.6 175.4C326.7 175.4 326.8 175.5 326.9 175.5C327 175.5 327.1 175.6 327.2 175.6C327.5 175.8 327.9 175.9 328.2 176.1L467.4 256.5C467.8 256.7 468.1 256.9 468.5 257.2C468.6 257.3 468.7 257.4 468.8 257.4C469 257.6 469.3 257.7 469.5 257.9C469.6 258 469.8 258.1 469.9 258.2C470.1 258.4 470.3 258.6 470.5 258.7C470.6 258.8 470.7 258.9 470.9 259C471 259.1 471.1 259.1 471.1 259.2C471.2 259.3 471.3 259.4 471.3 259.5C471.6 259.8 471.8 260 472 260.3C472.1 260.4 472.2 260.5 472.2 260.6C472.3 260.7 472.3 260.8 472.4 260.8C472.5 261 472.7 261.1 472.8 261.3C472.9 261.4 473 261.5 473.1 261.6C473.2 261.7 473.2 261.8 473.3 261.9C473.4 262 473.5 262.2 473.6 262.3C473.7 262.4 473.7 262.5 473.8 262.6C473.9 262.8 474 262.9 474.1 263.1C474.2 263.2 474.2 263.3 474.3 263.4L474.4 263.5C474.6 263.8 474.8 264.1 475 264.4C475 264.4 475 264.4 475 264.5C475 264.6 475.1 264.6 475.1 264.7C475.2 264.9 475.4 265.1 475.5 265.4C475.6 265.5 475.6 265.6 475.7 265.7C475.8 265.8 475.8 265.9 475.9 266C475.9 266.1 476 266.2 476 266.3C476.1 266.6 476.2 266.8 476.4 267.1C476.4 267.1 476.4 267.2 476.5 267.2C476.6 267.5 476.8 267.9 476.9 268.2C476.9 268.3 476.9 268.3 477 268.4C477 268.5 477.1 268.6 477.1 268.8C477.2 269 477.2 269.1 477.3 269.3C477.3 269.4 477.4 269.6 477.4 269.7C477.4 269.9 477.5 270 477.5 270.2C477.5 270.3 477.6 270.4 477.6 270.5C477.6 270.7 477.7 270.8 477.7 271C477.7 271.2 477.8 271.4 477.8 271.6C477.8 271.7 477.8 271.7 477.8 271.8C477.8 271.9 477.8 272.1 477.9 272.2C478 272.5 478 272.8 478.1 273.1C478.1 273.2 478.1 273.3 478.1 273.3C478.1 273.5 478.1 273.7 478.2 273.8C478.2 273.9 478.2 274.1 478.2 274.2C478.2 274.6 478.3 275 478.2 275.4L477.9 386.8C477.9 389 477.4 390.7 476.6 392.1C476.1 392.9 475.5 393.5 474.7 393.9L376.1 451.2C378.1 450 379.3 447.6 379.3 444.1L379.6 332.7C379.6 332.3 379.6 331.9 379.6 331.5C379.6 331.4 379.6 331.2 379.6 331.1C379.6 330.8 379.5 330.6 379.5 330.3C379.5 330 379.4 329.7 379.3 329.4C379.3 329.2 379.2 329 379.2 328.8C379.2 328.6 379.1 328.4 379.1 328.2C379 327.9 379 327.7 378.9 327.4C378.9 327.2 378.8 327.1 378.8 326.9C378.7 326.6 378.6 326.3 378.5 326C378.5 325.9 378.4 325.8 378.4 325.6C378.2 325.2 378.1 324.8 377.9 324.4C377.9 324.4 377.9 324.3 377.8 324.3C377.6 323.9 377.5 323.6 377.3 323.2C377.2 323.1 377.2 323 377.1 322.9C376.9 322.6 376.7 322.2 376.6 321.9C376.6 321.8 376.5 321.8 376.5 321.7C376.3 321.3 376 320.9 375.8 320.6C375.7 320.5 375.7 320.4 375.6 320.3C375.4 320 375.2 319.8 375.1 319.5C375 319.4 374.9 319.2 374.8 319.1C374.6 318.9 374.5 318.7 374.3 318.5C374.2 318.3 374 318.1 373.9 318C373.8 317.8 373.6 317.7 373.5 317.5C373.3 317.2 373 317 372.8 316.7C372.6 316.5 372.5 316.4 372.3 316.2C372.2 316.1 372.1 316 371.9 315.9C371.7 315.7 371.5 315.5 371.3 315.4C371.2 315.3 371 315.2 370.9 315.1C370.7 314.9 370.4 314.7 370.2 314.6C370.1 314.5 370 314.4 369.9 314.4C369.6 314.2 369.2 313.9 368.8 313.7L229.6 233.3C229.3 233.1 228.9 232.9 228.6 232.8C228.2 233 228.1 233 228 232.9Z" fill="#98A2F4"/>
<path d="M221.4 232.8L320 175.5C320 175.5 320 175.5 320.1 175.5C320.3 175.4 320.5 175.3 320.7 175.2H320.8C320.9 175.2 320.9 175.2 321 175.1C321.1 175.1 321.2 175 321.3 175C321.4 175 321.5 174.9 321.6 174.9C321.7 174.9 321.7 174.9 321.8 174.9H321.9C322.1 174.9 322.3 174.8 322.6 174.8C322.6 174.8 322.6 174.8 322.7 174.8C322.8 174.8 322.8 174.8 322.9 174.8C323.1 174.8 323.2 174.8 323.4 174.8C323.5 174.8 323.5 174.8 323.6 174.8C323.7 174.8 323.8 174.8 323.9 174.8C324 174.8 324.1 174.8 324.2 174.8C324.3 174.8 324.4 174.8 324.5 174.9C324.7 174.9 324.8 175 325 175C325.1 175 325.1 175 325.2 175C325.4 175.1 325.6 175.1 325.8 175.2C326 175.3 326.2 175.4 326.5 175.4C326.6 175.4 326.7 175.5 326.8 175.5C326.9 175.5 327 175.6 327.1 175.6C327.4 175.8 327.8 175.9 328.1 176.1L467.3 256.5C467.7 256.7 468 256.9 468.4 257.2C468.5 257.3 468.6 257.4 468.7 257.4C468.9 257.6 469.2 257.7 469.4 257.9C469.5 258 469.7 258.1 469.8 258.2C470 258.4 470.2 258.6 470.4 258.7C470.5 258.8 470.6 258.9 470.8 259C470.9 259.1 471 259.1 471 259.2C471.1 259.3 471.2 259.4 471.2 259.5C471.5 259.8 471.7 260 471.9 260.3C472 260.4 472.1 260.5 472.1 260.6C472.2 260.7 472.2 260.8 472.3 260.8C472.4 261 472.6 261.1 472.7 261.3C472.8 261.4 472.9 261.5 473 261.6C473.1 261.7 473.1 261.8 473.2 261.9C473.3 262 473.4 262.2 473.5 262.3C473.6 262.4 473.6 262.5 473.7 262.6C473.8 262.8 473.9 262.9 474 263.1C474.1 263.2 474.1 263.3 474.2 263.4L474.3 263.5C474.5 263.8 474.7 264.1 474.9 264.4C474.9 264.4 474.9 264.4 474.9 264.5C474.9 264.6 475 264.6 475 264.7C475.1 264.9 475.3 265.1 475.4 265.4C475.5 265.5 475.5 265.6 475.6 265.7C475.7 265.8 475.7 265.9 475.8 266C475.8 266.1 475.9 266.2 475.9 266.3C476 266.6 476.1 266.8 476.3 267.1C476.3 267.1 476.3 267.2 476.4 267.2C476.5 267.5 476.7 267.9 476.8 268.2C476.8 268.3 476.8 268.3 476.9 268.4C476.9 268.5 477 268.6 477 268.8C477.1 269 477.1 269.1 477.2 269.3C477.2 269.4 477.3 269.6 477.3 269.7C477.3 269.9 477.4 270 477.4 270.2C477.4 270.3 477.5 270.4 477.5 270.5C477.5 270.7 477.6 270.8 477.6 271C477.6 271.2 477.7 271.4 477.7 271.6C477.7 271.7 477.7 271.7 477.7 271.8C477.7 271.9 477.7 272.1 477.8 272.2C477.9 272.5 477.9 272.8 478 273.1C478 273.2 478 273.3 478 273.3C478 273.5 478 273.7 478.1 273.8C478.1 273.9 478.1 274.1 478.1 274.2C478.1 274.6 478.2 275 478.1 275.4L477.8 386.8C477.8 389 477.3 390.7 476.5 392.1C476 392.9 475.4 393.5 474.6 393.9L376 451.2" stroke="#171A21" stroke-width="2" stroke-miterlimit="10" stroke-linecap="round" stroke-linejoin="round"/>
<path d="M229.3 233.6C224.6 230.9 220.3 231.9 218.8 236.2L215.5 248.5L207.5 278.5C206.5 281.3 204.2 282.9 201.2 282.6L170.6 283.9C166.5 283.5 163.8 286.6 163.8 291.7L163.7 320.1C163.7 327.1 168.6 335.7 174.7 339.2L188.5 347.2C188.5 333.7 198.1 328.2 209.9 335C221.7 341.8 231.2 358.3 231.1 371.8L254 385L308.7 416.6C308.7 410.1 311 405.2 315 402.9C319 400.6 324.4 401.2 330.1 404.4C341.9 411.2 351.4 427.7 351.3 441.2L368 450.8C374.1 454.3 379.1 451.5 379.1 444.5L379.4 333.1C379.4 326.1 374.5 317.5 368.4 314L229.3 233.6Z" fill="white"/>
<path d="M253.9 262.4C258 264.8 261.3 270.5 261.3 275.2L261.2 307.4C261.2 312.1 257.9 314 253.8 311.6L216.4 290C214.8 289.1 214.1 287.3 214.5 285.5L221.3 259.8L224.1 249.4C224.6 247.5 226.8 246.6 228.5 247.6L253.9 262.4Z" fill="#98A2F4"/>
<path d="M256.001 331.6C256.001 334.5 253.901 335.7 251.401 334.2L243.201 329.4C240.701 327.9 238.601 324.4 238.601 321.5C238.601 318.6 240.701 317.4 243.201 318.9" fill="white"/>
<path d="M256.001 331.6C256.001 334.5 253.901 335.7 251.401 334.2L243.201 329.4C240.701 327.9 238.601 324.4 238.601 321.5C238.601 318.6 240.701 317.4 243.201 318.9" stroke="#171A21" stroke-width="2" stroke-miterlimit="10" stroke-linecap="round" stroke-linejoin="round"/>
<path d="M469.3 306.8L469.5 384.5C469.5 385.6 468.9 386.6 468 387.1L387.7 433.5L387.5 348.9C387.5 342.5 390.9 336.5 396.5 333.3L455.8 299C461.8 295.6 469.3 299.9 469.3 306.8Z" fill="#2F58FF"/>
<mask id="mask0" mask-type="alpha" maskUnits="userSpaceOnUse" x="387" y="298" width="82" height="136">
<path d="M468.8 306.988L469 384.688C469 385.788 468.4 386.788 467.5 387.288L387.2 433.688L387 349.088C387 342.688 390.4 336.688 396 333.488L455.3 299.188C461.3 295.788 468.8 300.088 468.8 306.988Z" fill="#3359FD"/>
</mask>
<g mask="url(#mask0)">
<path d="M407.6 349.5L386.8 337.5C386.3 337.2 385.6 337.6 385.6 338.2L385.5 353.9C385.5 355.1 386.1 356.1 387.1 356.7L407.5 368.5C408.5 369.1 409.7 369.1 410.7 368.5L431 356.7C432 356.1 432.6 355.1 432.6 353.9L432.7 338.2C432.7 337.6 432 337.2 431.5 337.5L410.9 349.5C409.8 350.1 408.6 350.1 407.6 349.5Z" fill="white"/>
<path d="M431.5 337.5L410.8 349.5C409.8 350.1 408.6 350.1 407.6 349.5L386.8 337.5C386.3 337.2 386.3 336.4 386.8 336.1L407.5 324.1C408.5 323.5 409.7 323.5 410.7 324.1L431.5 336.1C432 336.4 432 337.2 431.5 337.5Z" fill="#98A2F4"/>
<path d="M431 356.6C432 356 432.6 355 432.6 353.8L432.7 338.6C432.7 337.4 432.1 336.4 431.1 335.8L410.7 324C409.7 323.4 408.5 323.4 407.5 324L387.2 335.8C386.2 336.4 385.6 337.4 385.6 338.6L385.5 353.8C385.5 355 386.1 356 387.1 356.6" stroke="#171A21" stroke-width="2" stroke-miterlimit="10" stroke-linecap="round" stroke-linejoin="round"/>
<path d="M393.5 332.1L417.2 345.8L425.4 341L401.8 327.3L393.5 332.1Z" fill="white"/>
<path d="M407 330.3L401.8 327.3L393.5 332.1L398.7 335.1" stroke="#171A21" stroke-width="2" stroke-linecap="round" stroke-linejoin="round"/>
<path d="M412 342.8L417.2 345.8L425.4 341L420.2 338" stroke="#171A21" stroke-width="2" stroke-linecap="round" stroke-linejoin="round"/>
<path d="M379.4 370.3L358.6 358.3C358.1 358 357.4 358.4 357.4 359L357.3 374.7C357.3 375.9 357.9 376.9 358.9 377.5L379.3 389.3C380.3 389.9 381.5 389.9 382.5 389.3L402.8 377.5C403.8 376.9 404.4 375.9 404.4 374.7L404.5 359C404.5 358.4 403.8 358 403.3 358.3L382.7 370.3C381.7 370.9 380.4 370.9 379.4 370.3Z" fill="white"/>
<path d="M403.3 358.3L382.6 370.3C381.6 370.9 380.4 370.9 379.4 370.3L358.6 358.3C358.1 358 358.1 357.2 358.6 356.9L379.3 344.9C380.3 344.3 381.5 344.3 382.5 344.9L403.3 356.9C403.9 357.2 403.9 358 403.3 358.3Z" fill="#98A2F4"/>
<path d="M402.9 377.5C403.9 376.9 404.5 375.9 404.5 374.7L404.6 359.5C404.6 358.3 404 357.3 403 356.7L382.6 344.9C381.6 344.3 380.4 344.3 379.4 344.9L359 356.7C358 357.3 357.4 358.3 357.4 359.5L357.3 374.7C357.3 375.9 357.9 376.9 358.9 377.5" stroke="#171A21" stroke-width="2" stroke-miterlimit="10" stroke-linecap="round" stroke-linejoin="round"/>
<path d="M365.399 353L389.099 366.6L397.299 361.8L373.699 348.2L365.399 353Z" fill="white"/>
<path d="M383.899 363.6L389.099 366.6L397.299 361.8L392.099 358.8" stroke="#171A21" stroke-width="2" stroke-linecap="round" stroke-linejoin="round"/>
<path d="M435.7 367.2L414.9 355.2C414.4 354.9 413.7 355.3 413.7 355.9L413.6 371.6C413.6 372.8 414.2 373.8 415.2 374.4L435.6 386.2C436.6 386.8 437.8 386.8 438.8 386.2L459.1 374.4C460.1 373.8 460.7 372.8 460.7 371.6L460.8 355.9C460.8 355.3 460.1 354.9 459.6 355.2L439 367.2C437.9 367.8 436.7 367.8 435.7 367.2Z" fill="white"/>
<path d="M459.599 355.2L438.899 367.2C437.899 367.8 436.699 367.8 435.699 367.2L414.899 355.2C414.399 354.9 414.399 354.1 414.899 353.8L435.599 341.8C436.599 341.2 437.799 341.2 438.799 341.8L459.599 353.8C460.099 354.1 460.099 354.9 459.599 355.2Z" fill="#98A2F4"/>
<path d="M459.1 374.3C460.1 373.7 460.7 372.7 460.7 371.5L460.8 356.3C460.8 355.1 460.2 354.1 459.2 353.5L438.8 341.7C437.8 341.1 436.6 341.1 435.6 341.7L415.3 353.5C414.3 354.1 413.7 355.1 413.7 356.3L413.6 371.5C413.6 372.7 414.2 373.7 415.2 374.3" stroke="#171A21" stroke-width="2" stroke-miterlimit="10" stroke-linecap="round" stroke-linejoin="round"/>
<path d="M421.6 349.8L445.3 363.5L453.5 358.7L429.9 345L421.6 349.8Z" fill="white"/>
<path d="M435.1 348L429.9 345L421.6 349.8L426.8 352.8" stroke="#171A21" stroke-width="2" stroke-linecap="round" stroke-linejoin="round"/>
<path d="M440.1 360.5L445.3 363.5L453.5 358.7L448.4 355.7" stroke="#171A21" stroke-width="2" stroke-linecap="round" stroke-linejoin="round"/>
<path d="M407.6 388L386.8 376C386.3 375.7 385.6 376.1 385.6 376.7L385.5 392.4C385.5 393.6 386.1 394.6 387.1 395.2L407.5 407C408.5 407.6 409.7 407.6 410.7 407L431 395.2C432 394.6 432.6 393.6 432.6 392.4L432.7 376.7C432.7 376.1 432 375.7 431.5 376L410.9 388C409.8 388.6 408.6 388.6 407.6 388Z" fill="white"/>
<path d="M431.5 376L410.8 388C409.8 388.6 408.6 388.6 407.6 388L386.8 376C386.3 375.7 386.3 374.9 386.8 374.6L407.5 362.6C408.5 362 409.7 362 410.7 362.6L431.5 374.6C432 374.9 432 375.7 431.5 376Z" fill="#98A2F4"/>
<path d="M431 395.2C432 394.6 432.6 393.6 432.6 392.4L432.7 377.2C432.7 376 432.1 375 431.1 374.4L410.7 362.6C409.7 362 408.5 362 407.5 362.6L387.2 374.4C386.2 375 385.6 376 385.6 377.2L385.5 392.4C385.5 393.6 386.1 394.6 387.1 395.2" stroke="#171A21" stroke-width="2" stroke-miterlimit="10" stroke-linecap="round" stroke-linejoin="round"/>
<path d="M393.5 370.7L417.2 384.3L425.4 379.5L401.8 365.9L393.5 370.7Z" fill="white"/>
<path d="M407 368.9L401.8 365.9L393.5 370.7L398.7 373.7" stroke="#171A21" stroke-width="2" stroke-linecap="round" stroke-linejoin="round"/>
<path d="M412 381.3L417.2 384.3L425.4 379.5L420.2 376.5" stroke="#171A21" stroke-width="2" stroke-linecap="round" stroke-linejoin="round"/>
</g>
<path d="M464.2 297.8C464.2 291.4 467.6 285.4 473.2 282.2L502 265.6C503.2 264.9 504.7 265.1 505.6 266.1L510.2 272.1L472.5 385.2L465.4 383.3C464.8 382.7 464.5 382 464.5 381.2L464.2 297.8Z" fill="#2F58FF"/>
<path d="M469.2 302.8C469.2 296.4 472.6 290.4 478.2 287.2L505.7 271.3C507.7 270.1 510.2 271.6 510.2 273.9V362C510.2 363.1 509.6 364.1 508.7 364.6L473.9 384.7C471.9 385.9 469.4 384.4 469.4 382.1L469.2 302.8Z" fill="#98A2F4"/>
<path d="M505.7 271.2C507.7 270 510.2 271.5 510.2 273.8V362C510.2 363.1 509.6 364.1 508.7 364.6L473.9 384.7C471.9 385.9 469.4 384.4 469.4 382.1" stroke="#171A21" stroke-width="2" stroke-miterlimit="10" stroke-linecap="round" stroke-linejoin="round"/>
<path d="M369.8 341.1C375.8 337.6 388.1 342.5 388.1 352L349.7 455.8L343.4 452.9C342.8 452.3 342.5 451.6 342.5 450.8V358.6C342.5 357.5 343.1 356.5 344 356L369.8 341.1Z" fill="#2F58FF"/>
<path d="M374.8 346.1C380.8 342.6 388.3 346.9 388.3 353.9L388.5 431.6C388.5 432.7 387.9 433.7 387 434.2L352 454.4C350 455.6 347.5 454.1 347.5 451.8V363.6C347.5 362.5 348.1 361.5 349 361L374.8 346.1Z" fill="#98A2F4"/>
<path d="M388.601 431.6C388.601 432.7 388.001 433.7 387.101 434.2L352.101 454.4C350.101 455.6 347.601 454.1 347.601 451.8" stroke="#171A21" stroke-width="2" stroke-miterlimit="10" stroke-linecap="round" stroke-linejoin="round"/>
</svg>
