<svg width="556" height="532" viewBox="0 0 556 532" fill="none" xmlns="http://www.w3.org/2000/svg">
<path d="M472.164 512.58L411.946 477.816C410.65 477.109 409 478.052 409 479.466V494.079C409 494.786 409.354 495.375 409.943 495.728L469.807 530.256C470.396 530.61 471.81 527.664 472.517 527.31L474.167 512.58C473.46 512.933 472.753 512.933 472.164 512.58Z" fill="#2F58FF"/>
<path d="M553.828 465.678C553.71 465.678 553.71 465.561 553.592 465.561C553.475 465.561 553.475 465.561 553.357 465.561C553.239 465.561 553.239 465.561 553.121 465.561C553.003 465.561 552.885 465.678 552.885 465.678L545.579 469.921L547.465 470.981L551.943 468.389V480.88L496.675 512.815L474.52 526.485L471.81 523.186V521.536L469.806 520.357C469.924 520.357 469.924 520.475 470.042 520.475C470.16 520.475 470.16 520.475 470.278 520.475C470.396 520.475 470.396 520.475 470.513 520.475C470.631 520.475 470.749 520.357 470.749 520.357L471.574 519.768V514.819L504.923 495.61V494.196C504.923 493.961 504.806 493.725 504.806 493.489L470.985 513.051C470.867 513.169 470.749 513.169 470.631 513.287C470.631 513.287 470.513 513.287 470.513 513.405C470.396 513.523 470.396 513.523 470.278 513.64C470.16 513.758 470.16 513.876 470.042 513.876C469.924 513.994 469.924 514.112 469.806 514.23C469.689 514.347 469.689 514.465 469.571 514.583C469.571 514.701 469.453 514.819 469.453 514.937C469.453 515.054 469.335 515.172 469.335 515.29C469.335 515.408 469.335 515.526 469.335 515.644L464.621 512.933C464.621 512.815 464.621 512.698 464.621 512.58V512.462C464.621 512.344 464.621 512.344 464.621 512.226C464.621 512.226 464.621 512.226 464.621 512.108V511.991V511.873V511.755C464.621 511.755 464.621 511.637 464.739 511.637C464.739 511.637 464.739 511.519 464.857 511.519C464.857 511.519 464.857 511.401 464.975 511.401L465.093 511.284C465.093 511.284 465.093 511.284 465.093 511.166L465.211 511.048C465.211 511.048 465.211 511.048 465.328 510.93C465.328 510.93 465.328 510.93 465.446 510.812L465.564 510.694C465.564 510.694 465.682 510.694 465.682 510.576C465.918 510.459 466.035 510.341 466.035 510.341L547.936 463.086C548.054 463.086 548.054 462.968 548.172 462.968C548.172 462.968 548.172 462.968 548.29 462.968C548.29 462.968 548.29 462.968 548.407 462.968H548.525C548.525 462.968 548.525 462.968 548.643 462.968H548.761H548.879C548.879 462.968 548.879 462.968 548.997 462.968C548.997 462.968 548.997 462.968 549.114 462.968L553.828 465.678ZM545.226 470.039L504.806 493.489L506.691 494.55L545.461 472.16V470.746C545.461 470.51 545.343 470.274 545.226 470.039Z" fill="#2F58FF"/>
<path d="M554.3 480.173C554.3 481.234 553.593 482.412 552.768 482.883L470.985 530.138C470.16 530.61 469.335 530.256 469.335 529.196V515.762C469.335 514.701 470.042 513.523 470.985 513.051L472.046 512.462L412.064 477.816C410.768 477.109 410.768 475.224 412.064 474.399L489.604 429.265C490.193 428.912 491.018 428.912 491.608 429.265L552.886 464.618C553.121 464.854 553.357 465.207 553.357 465.561C553.828 465.561 554.182 466.032 554.182 466.739L554.3 480.173ZM548.643 480.762C549.468 480.291 550.175 478.995 550.175 478.052V473.574C550.175 472.513 549.468 472.16 548.526 472.631L475.345 514.819C474.52 515.29 473.813 516.586 473.813 517.529V522.007C473.813 523.068 474.52 523.421 475.463 522.95L548.643 480.762Z" fill="#98A2F4"/>
<path d="M411.946 477.816C410.65 477.109 410.65 475.224 411.946 474.399L489.604 429.265C490.193 428.912 491.018 428.912 491.608 429.265L552.886 464.618C553.946 465.325 554.3 466.032 554.3 466.739V480.173C554.3 481.234 553.593 482.412 552.768 482.883L470.985 530.138C470.16 530.61 469.335 530.256 469.335 529.196" stroke="#171A21" stroke-width="2" stroke-miterlimit="10" stroke-linecap="round" stroke-linejoin="round"/>
<path d="M427 484.134L504.658 439" stroke="white" stroke-width="2" stroke-miterlimit="10" stroke-linecap="round" stroke-linejoin="round"/>
<path d="M442 493.134L519.658 448" stroke="white" stroke-width="2" stroke-miterlimit="10" stroke-linecap="round" stroke-linejoin="round"/>
<path d="M459 503.134L536.658 458" stroke="white" stroke-width="2" stroke-miterlimit="10" stroke-linecap="round" stroke-linejoin="round"/>
</svg>
