<svg width="555" height="531" viewBox="0 0 555 531" fill="none" xmlns="http://www.w3.org/2000/svg">
<path d="M167.8 85.8L65.3998 143.6L64.7998 287.3L168.5 229.6L167.8 85.8Z" fill="white"/>
<path d="M155.1 225.1C156.4 224.4 157.5 222.5 157.5 221V88.1L164 91.9V224.8C164 226.3 162.9 228.1 161.6 228.9L66.9004 283.3L60.4004 279.5L155.1 225.1Z" fill="#2F58FF"/>
<path d="M62.8 128.8L105.4 104.4L157.4 74.5C160.7 72.6 163.7 72.5 165.8 73.7L172.3 77.5C170.2 76.2 167.2 76.4 163.9 78.3L86.4 122.8H86.3L69.3 132.5C62.8 136.2 57.5 145.4 57.5 152.8V288.4C57.5 292.1 58.8 294.7 60.9 296L54.4 292.2C52.3 291 51 288.3 51 284.6V149C51 141.7 56.3 132.5 62.8 128.8Z" fill="#2F58FF"/>
<path d="M111.9 108.2C111.9 111.2 114 112.4 116.6 110.9C119.2 109.4 121.3 105.8 121.3 102.8L163.9 78.4C170.4 74.7 175.7 77.7 175.7 85.2V220.8C175.7 228.3 170.4 237.4 163.9 241.1L69.3 295.4C62.8 299.1 57.5 296.1 57.5 288.6V153C57.5 145.5 62.8 136.4 69.3 132.7L111.9 108.2ZM69.4 279.1C69.4 280.6 70.5 281.2 71.8 280.5L161.7 229C163 228.3 164.1 226.4 164.1 224.9V94.7C164.1 93.2 163 92.6 161.7 93.3L71.8 144.8C70.5 145.5 69.4 147.4 69.4 148.9V279.1Z" fill="#98A2F4"/>
<path d="M163.9 78.3C170.4 74.6 175.7 77.6 175.7 85.1V220.7C175.7 228.2 170.4 237.3 163.9 241L69.3 295.3C62.8 299 57.5 296 57.5 288.5" stroke="#171A21" stroke-width="2" stroke-miterlimit="10" stroke-linecap="round" stroke-linejoin="round"/>
<path d="M106.799 105C109.399 103.5 111.499 99.9 111.499 96.9C111.499 95.4 110.999 94.4 110.099 93.9L123.099 101.5C123.899 102 124.499 103 124.499 104.5C124.499 107.5 122.399 111.1 119.799 112.6C118.499 113.4 117.299 113.4 116.399 112.9L103.399 105.3C104.199 105.9 105.399 105.8 106.799 105Z" fill="#2F58FF"/>
<path d="M96.1998 104.3L102.2 100.8C103.9 96.5 107 92.6 110.4 90.7C113 89.2 115.3 89.1 117.1 90.1L119 91.2L124.6 88C127.9 86.1 130.9 86 133 87.2L139.5 91C137.4 89.7 134.4 89.9 131.1 91.8L125.1 95.3L121.7 93.3C120.3 93.1 118.6 93.5 116.9 94.5C113.5 96.4 110.4 100.3 108.7 104.6L102.7 108.1C96.1998 111.8 90.8998 121 90.8998 128.4V139.2C90.8998 139.9 91.1998 140.5 91.5998 140.7L84.9998 137C84.5998 136.8 84.2998 136.2 84.2998 135.5V124.7C84.2998 117.2 89.6998 108.1 96.1998 104.3Z" fill="#2F58FF"/>
<path d="M108.7 104.7C110.4 100.4 113.5 96.5 116.9 94.6C120.3 92.7 123.4 93 125.1 95.3L131.1 91.8C137.6 88.1 142.9 91.1 142.9 98.6V109.4C142.9 110.9 141.8 112.7 140.5 113.5L93.1998 140.6C91.8998 141.4 90.7998 140.7 90.7998 139.2V128.4C90.7998 120.9 96.0998 111.8 102.6 108.1L108.7 104.7ZM116.9 110.5C119.3 109.1 121.3 105.7 121.3 102.9C121.3 100.1 119.3 99 116.9 100.4C114.5 101.8 112.5 105.2 112.5 108C112.4 110.7 114.4 111.9 116.9 110.5Z" fill="#98A2F4"/>
<path d="M85.0004 182.9C82.8004 184.2 80.9004 187.3 80.9004 189.9C80.9004 192.5 82.7004 193.5 85.0004 192.2L139.8 160.8C142 159.5 143.9 156.4 143.9 153.8C143.9 151.2 142.1 150.2 139.8 151.5L85.0004 182.9ZM85.0004 204.1C82.8004 205.4 80.9004 208.5 80.9004 211.1C80.9004 213.7 82.7004 214.7 85.0004 213.4L94.3004 208.1C96.5004 206.8 98.4004 203.7 98.4004 201.1C98.4004 198.5 96.6004 197.5 94.3004 198.8L85.0004 204.1ZM113.1 188C110.9 189.3 109 192.4 109 195C109 197.6 110.8 198.6 113.1 197.3L139.8 182C142 180.7 143.9 177.6 143.9 175C143.9 172.4 142.1 171.4 139.8 172.7L113.1 188ZM85.0004 225.3C82.8004 226.6 80.9004 229.7 80.9004 232.3C80.9004 234.9 82.7004 235.9 85.0004 234.6L139.8 203.2C142 201.9 143.9 198.8 143.9 196.2C143.9 193.6 142.1 192.6 139.8 193.9L85.0004 225.3ZM85.0004 161.6C82.8004 162.9 80.9004 166 80.9004 168.6C80.9004 171.2 82.7004 172.2 85.0004 170.9L139.8 139.5C142 138.2 143.9 135.1 143.9 132.5C143.9 129.9 142.1 128.9 139.8 130.2L85.0004 161.6Z" fill="#98A2F4"/>
</svg>
