<svg width="555" height="531" viewBox="0 0 555 531" fill="none" xmlns="http://www.w3.org/2000/svg">
<path d="M370.511 177.391C397.334 161.958 440.6 161.958 467.24 177.391C493.879 192.823 493.696 217.993 466.964 233.425C440.233 248.858 396.875 248.858 370.235 233.425C343.596 217.901 343.688 192.823 370.511 177.391Z" stroke="#171A21" stroke-width="2" stroke-miterlimit="10" stroke-linecap="round" stroke-linejoin="round" stroke-dasharray="12 12"/>
<path d="M397.334 193.007C409.184 186.117 428.383 186.117 440.141 193.007C451.899 199.896 451.899 211.012 439.957 217.809C428.107 224.699 408.908 224.699 397.15 217.809C385.392 210.92 385.484 199.805 397.334 193.007Z" stroke="#171A21" stroke-width="2" stroke-miterlimit="10" stroke-linecap="round" stroke-linejoin="round" stroke-dasharray="12 12"/>
<path d="M417.727 166.918C417.543 166.918 417.267 166.918 417.084 166.918C416.992 166.918 416.992 166.918 416.9 166.918C416.9 166.918 416.808 166.918 416.716 166.918C416.441 166.918 416.165 166.827 415.89 166.735H415.798H415.706C415.522 166.643 415.338 166.643 415.155 166.551C415.155 166.551 414.695 166.367 414.604 166.367H414.512C414.328 166.275 414.236 166.184 414.052 166.184C413.961 166.092 413.869 166.092 413.777 166.092C413.501 166 413.318 165.816 413.042 165.632L400.365 157.181C399.906 156.906 399.814 156.355 400.09 155.895C400.273 155.62 400.549 155.528 400.824 155.528C401.008 155.528 401.192 155.62 401.376 155.712C401.559 155.803 401.743 155.895 401.927 156.079L402.111 156.171C402.202 156.263 402.386 156.263 402.478 156.355C402.57 156.355 402.662 156.446 402.754 156.446L402.937 156.538C403.029 156.538 403.213 156.63 403.305 156.63L403.488 156.722C403.672 156.722 403.948 156.814 404.131 156.814H404.407C404.591 156.814 404.683 156.814 404.866 156.814H405.142C405.234 156.814 405.417 156.814 405.509 156.814H405.785C405.877 156.814 406.152 156.814 406.152 156.814C406.244 156.814 406.336 156.814 406.428 156.814C406.52 156.814 406.612 156.814 406.704 156.722C406.887 156.722 406.979 156.63 407.163 156.63L407.438 156.538C407.622 156.538 407.714 156.446 407.898 156.446L408.173 156.355C408.357 156.263 408.449 156.263 408.633 156.171C408.724 156.079 408.816 156.079 408.816 156.079L408.908 155.987C409.092 155.895 409.367 155.712 409.643 155.712C409.827 155.62 410.011 155.528 410.194 155.436L410.378 155.344C410.562 155.252 410.745 155.16 410.929 155.068L411.205 154.885C411.388 154.701 411.664 154.609 411.94 154.425C412.215 154.242 412.491 154.058 412.674 153.874C412.95 153.691 413.226 153.507 413.501 153.231L413.777 153.048C413.961 152.956 414.144 152.772 414.236 152.588C414.236 152.588 414.879 152.037 414.971 151.945L415.338 151.67C415.522 151.578 415.614 151.394 415.798 151.302L416.165 150.935C416.257 150.751 416.441 150.659 416.533 150.475L416.9 150.108C416.992 149.924 417.635 149.281 417.635 149.281C417.727 149.098 418.37 148.455 418.37 148.455C418.554 148.271 418.737 148.087 418.829 147.811L419.013 147.536C419.197 147.26 419.472 146.985 419.656 146.617L420.483 146.985L419.748 146.434C419.931 146.158 420.115 145.882 420.299 145.607C420.574 145.239 420.758 144.964 420.942 144.596C421.218 144.137 421.585 143.586 421.861 143.127L422.044 142.851C422.412 142.208 422.779 141.565 423.147 140.922L423.238 140.646C423.514 140.187 423.698 139.728 423.973 139.177L424.433 138.074C424.524 137.799 424.892 136.972 424.892 136.972C425.076 136.605 425.167 136.329 425.259 135.961L425.351 135.686C425.443 135.41 425.535 135.135 425.627 134.951L425.719 134.584C425.811 134.308 425.902 134.124 425.994 133.849L426.086 133.481C426.178 133.114 426.27 132.838 426.362 132.471C426.454 132.011 426.545 131.644 426.637 131.277L426.729 130.909C426.821 130.634 426.821 130.45 426.913 130.174L427.005 129.807C427.097 129.531 427.28 128.705 427.28 128.705C427.372 128.429 427.464 127.602 427.464 127.602C427.556 127.327 427.556 126.959 427.648 126.684H428.566L427.648 126.592C427.74 126.224 427.74 125.857 427.74 125.581V125.306C427.74 125.03 427.831 124.846 427.831 124.571V124.203C427.831 123.928 427.831 123.744 427.831 123.468V123.101C427.831 122.734 427.831 122.458 427.831 122.091C427.831 121.723 427.831 121.448 427.831 121.08V120.805C427.831 120.621 427.831 120.345 427.831 120.161V119.794C427.831 119.61 427.831 119.427 427.74 119.243L427.648 118.875C427.648 118.692 427.556 118.508 427.556 118.416L427.464 117.957C427.464 117.773 427.372 117.681 427.372 117.498C427.372 117.314 427.28 117.13 427.28 117.038C427.28 116.946 427.188 116.763 427.188 116.671C427.097 116.487 427.097 116.303 427.005 116.12L426.913 115.844C426.821 115.568 426.729 115.201 426.545 114.925L427.372 114.466L426.545 114.834C426.362 114.466 426.178 114.099 425.994 113.731L425.902 113.639C425.719 113.364 425.627 113.088 425.443 112.905L425.351 112.721C425.167 112.445 424.984 112.261 424.8 112.078C424.616 111.802 424.341 111.618 424.157 111.435L423.973 111.343C423.79 111.159 423.514 110.975 423.33 110.884C422.871 110.608 422.779 110.057 423.055 109.598C423.238 109.322 423.514 109.23 423.79 109.23C423.973 109.23 424.157 109.322 424.341 109.414L437.018 117.865C437.293 118.049 437.569 118.232 437.844 118.508L438.028 118.692C438.304 118.875 438.487 119.151 438.763 119.427C439.038 119.702 439.222 119.978 439.406 120.253L439.59 120.437C439.773 120.713 439.957 121.08 440.141 121.356L440.233 121.448C440.416 121.815 440.6 122.274 440.784 122.642L440.876 122.734C440.967 123.009 441.151 123.377 441.243 123.744V123.836L441.335 124.111C441.427 124.295 441.427 124.571 441.519 124.755L441.611 124.938C441.611 124.938 441.794 125.581 441.794 125.765L441.886 125.949L442.07 126.959L442.162 127.878L442.254 128.796C442.254 128.98 442.254 129.623 442.254 129.623C442.254 129.715 442.254 129.899 442.162 129.991C442.162 130.082 442.162 130.174 442.162 130.266C442.162 130.358 442.162 130.542 442.162 130.634C442.162 130.817 442.162 130.909 442.162 131.001C442.162 131.185 442.162 131.277 442.162 131.46C442.162 131.552 442.162 131.644 442.162 131.736V131.828C442.162 131.92 442.162 132.011 442.162 132.103V132.287C442.162 132.379 442.162 132.471 442.162 132.563L442.07 133.481C442.07 133.665 441.978 134.492 441.978 134.492C441.978 134.767 441.886 135.135 441.886 135.41V135.502C441.794 135.87 441.794 136.145 441.794 136.421L441.611 137.431L441.427 138.442L441.151 139.452L440.876 140.463C440.784 140.83 440.692 141.106 440.6 141.473V141.565C440.508 141.841 440.416 142.208 440.324 142.484L439.865 143.77L439.681 144.413L439.406 145.239L438.487 144.964L439.314 145.331C439.222 145.607 439.038 145.974 438.947 146.25C438.947 146.25 438.579 147.077 438.487 147.26L437.936 148.455V148.546C437.661 149.006 437.477 149.557 437.201 150.016L437.109 150.108L437.018 150.2C436.65 150.935 436.283 151.578 435.915 152.313L435.823 152.496C435.456 153.048 435.18 153.599 434.813 154.15C434.537 154.517 434.354 154.885 434.078 155.252C433.894 155.528 433.711 155.803 433.527 156.079L433.435 156.263C433.251 156.538 432.976 156.814 432.792 157.181C432.792 157.181 432.241 157.916 432.149 158.008L431.506 158.835L430.771 159.661L430.036 160.488L429.301 161.223L428.566 161.958L427.831 162.601L427.097 163.244C426.821 163.428 426.637 163.611 426.362 163.795C426.086 163.979 425.902 164.163 425.627 164.255L425.443 164.346C425.259 164.438 425.076 164.622 424.892 164.714L424.157 165.173L423.606 165.541L423.055 164.806L423.514 165.632C423.33 165.724 423.055 165.816 422.871 166C422.687 166.092 422.412 166.184 422.136 166.275C422.136 166.275 421.493 166.551 421.401 166.551L420.666 166.827L419.931 167.01H419.748L419.472 166.092L419.656 167.01C419.564 167.01 419.197 167.102 419.197 167.102C419.105 167.102 419.013 167.102 419.013 167.102L418.829 166.184L418.921 167.102C418.829 167.102 418.737 167.102 418.554 167.102H418.462C418.37 167.102 418.37 167.102 418.278 167.102C418.094 167.102 417.911 167.102 417.727 167.102H417.635C417.911 166.918 417.819 166.918 417.727 166.918Z" fill="#98A2F4"/>
<path d="M424.341 109.965L437.018 118.416C437.293 118.6 437.477 118.784 437.753 118.967C437.844 119.059 437.844 119.059 437.936 119.151C438.12 119.335 438.396 119.61 438.579 119.794C438.579 119.794 438.579 119.794 438.579 119.886C438.763 120.07 438.947 120.345 439.13 120.621C439.222 120.713 439.222 120.713 439.222 120.805C439.406 121.08 439.59 121.356 439.774 121.631C439.774 121.631 439.774 121.631 439.774 121.723C439.957 122.091 440.141 122.458 440.325 122.917C440.325 122.917 440.325 122.917 440.325 123.009C440.417 123.285 440.6 123.652 440.692 123.928V124.02C440.692 124.112 440.692 124.203 440.784 124.295C440.876 124.479 440.876 124.663 440.968 124.938C440.968 125.03 440.968 125.03 441.06 125.122C441.06 125.214 441.06 125.306 441.151 125.398C441.151 125.581 441.243 125.765 441.243 125.949C441.243 126.041 441.243 126.132 441.335 126.132C441.335 126.224 441.335 126.316 441.335 126.408C441.335 126.592 441.427 126.684 441.427 126.867C441.427 126.959 441.427 127.051 441.427 127.143C441.427 127.235 441.427 127.327 441.427 127.419C441.427 127.51 441.427 127.694 441.519 127.786C441.519 127.878 441.519 127.97 441.519 127.97C441.519 128.062 441.519 128.245 441.519 128.337C441.519 128.429 441.519 128.613 441.519 128.705C441.519 128.796 441.519 128.796 441.519 128.888C441.519 129.072 441.519 129.256 441.519 129.439C441.519 129.531 441.519 129.623 441.519 129.715V129.807C441.519 130.082 441.611 130.45 441.611 130.725C441.611 130.725 441.611 130.725 441.611 130.817C441.611 131.093 441.611 131.369 441.611 131.644C441.611 131.736 441.611 131.736 441.611 131.828C441.611 131.92 441.611 132.103 441.611 132.195C441.611 132.287 441.611 132.471 441.611 132.563C441.611 132.655 441.611 132.746 441.611 132.838C441.611 132.93 441.611 133.114 441.611 133.206C441.611 133.298 441.611 133.389 441.611 133.481C441.611 133.665 441.611 133.849 441.519 134.032C441.519 134.124 441.519 134.216 441.519 134.308V134.4C441.519 134.675 441.427 135.043 441.427 135.319V135.41C441.427 135.686 441.335 135.962 441.335 136.237C441.335 136.329 441.335 136.329 441.335 136.421C441.335 136.513 441.335 136.696 441.243 136.788C441.243 136.972 441.151 137.064 441.151 137.248C441.151 137.339 441.151 137.431 441.06 137.523C441.06 137.707 440.968 137.799 440.968 137.982C440.968 138.074 440.968 138.166 440.876 138.258C440.876 138.35 440.784 138.534 440.784 138.625C440.784 138.809 440.692 138.901 440.692 139.085C440.692 139.177 440.692 139.177 440.6 139.269C440.6 139.452 440.508 139.636 440.417 139.82C440.417 139.912 440.325 140.095 440.325 140.187V140.279C440.233 140.646 440.141 140.922 440.049 141.289V141.381C439.957 141.657 439.865 141.932 439.774 142.208V142.3C439.774 142.392 439.682 142.484 439.682 142.667C439.59 142.851 439.59 142.943 439.498 143.127C439.498 143.219 439.406 143.31 439.406 143.402C439.406 143.494 439.314 143.678 439.314 143.77C439.314 143.862 439.222 143.953 439.222 144.045C439.13 144.229 439.13 144.413 439.039 144.596C439.039 144.688 438.947 144.78 438.947 144.872V144.964C438.855 145.239 438.671 145.607 438.579 145.882C438.579 145.974 438.487 146.066 438.487 146.158C438.396 146.434 438.304 146.617 438.212 146.893C438.212 146.893 438.212 146.985 438.12 146.985C438.028 147.169 437.936 147.352 437.844 147.536C437.753 147.72 437.753 147.812 437.661 147.995V148.087C437.477 148.546 437.201 149.098 436.926 149.557C436.926 149.557 436.926 149.649 436.834 149.649C436.834 149.741 436.742 149.741 436.742 149.741C436.375 150.384 436.007 151.119 435.64 151.762C435.64 151.762 435.64 151.853 435.548 151.853C435.548 151.945 435.456 151.945 435.456 152.037C435.18 152.588 434.813 153.048 434.537 153.599C434.354 153.966 434.078 154.334 433.803 154.609C433.803 154.609 433.803 154.609 433.803 154.701C433.619 154.977 433.435 155.252 433.251 155.436L433.16 155.528C432.976 155.803 432.7 156.079 432.517 156.355C432.425 156.446 432.425 156.538 432.333 156.63C432.241 156.814 432.057 156.998 431.965 157.181L431.874 157.273C431.782 157.365 431.69 157.457 431.598 157.641C431.506 157.732 431.414 157.916 431.322 158.008C431.322 158.1 431.23 158.1 431.23 158.1C431.139 158.192 431.047 158.375 430.955 158.467C430.863 158.559 430.771 158.651 430.679 158.743C430.587 158.835 430.587 158.835 430.496 158.927C430.404 159.019 430.312 159.202 430.128 159.294C430.036 159.386 429.944 159.478 429.853 159.57C429.761 159.662 429.761 159.662 429.669 159.753C429.577 159.845 429.485 159.937 429.301 160.121C429.21 160.213 429.21 160.305 429.118 160.305C429.026 160.396 428.934 160.488 428.934 160.488C428.842 160.58 428.75 160.672 428.567 160.764C428.475 160.856 428.475 160.856 428.383 160.948C428.291 161.039 428.199 161.131 428.107 161.223C428.015 161.315 427.924 161.407 427.832 161.499L427.74 161.591C427.648 161.682 427.464 161.774 427.372 161.866C427.28 161.958 427.189 162.05 427.097 162.05C427.097 162.05 427.097 162.05 427.005 162.142C426.729 162.325 426.546 162.509 426.27 162.693C426.27 162.693 426.27 162.693 426.178 162.693C425.994 162.877 425.719 162.969 425.535 163.152C425.443 163.152 425.443 163.244 425.351 163.244C425.168 163.336 424.984 163.428 424.8 163.612C424.708 163.612 424.708 163.703 424.617 163.703C424.525 163.795 424.433 163.795 424.341 163.887C424.249 163.887 424.157 163.979 424.157 163.979C424.065 164.071 423.973 164.071 423.79 164.163C423.698 164.163 423.606 164.255 423.514 164.255C423.514 164.255 423.422 164.255 423.422 164.346C423.239 164.438 422.963 164.53 422.779 164.622C422.596 164.714 422.32 164.806 422.136 164.898H422.044C421.953 164.898 421.861 164.989 421.769 164.989C421.677 164.989 421.585 165.081 421.401 165.081C421.31 165.081 421.31 165.081 421.218 165.173C421.126 165.173 421.034 165.265 420.942 165.265C420.85 165.265 420.758 165.357 420.758 165.357C420.667 165.357 420.575 165.357 420.483 165.449C420.391 165.449 420.299 165.541 420.207 165.541C420.115 165.541 420.115 165.541 420.024 165.541C419.932 165.541 419.84 165.541 419.748 165.632C419.656 165.632 419.564 165.632 419.38 165.724H419.289C419.197 165.724 419.105 165.724 419.013 165.724C418.921 165.724 418.737 165.724 418.646 165.724H418.554C418.462 165.724 418.37 165.724 418.278 165.724C418.094 165.724 418.003 165.724 417.819 165.724H417.727C417.635 165.724 417.635 165.724 417.543 165.724C417.36 165.724 417.176 165.724 416.992 165.724C416.9 165.724 416.9 165.724 416.808 165.724H416.717C416.441 165.724 416.165 165.632 415.982 165.632C415.982 165.632 415.982 165.632 415.89 165.632C415.798 165.632 415.798 165.632 415.706 165.632C415.522 165.632 415.43 165.541 415.247 165.541C415.155 165.541 415.063 165.449 415.063 165.449C414.971 165.449 414.879 165.357 414.787 165.357H414.696C414.512 165.265 414.42 165.265 414.236 165.173C414.144 165.173 414.053 165.081 414.053 165.081C413.869 164.989 413.593 164.806 413.41 164.714L400.733 156.263C400.917 156.355 401.1 156.538 401.376 156.63C401.468 156.63 401.56 156.722 401.56 156.722C401.743 156.814 401.835 156.906 402.019 156.906C402.111 156.998 402.294 156.998 402.386 157.089C402.478 157.089 402.57 157.181 402.57 157.181C402.754 157.273 402.846 157.273 403.029 157.273C403.121 157.273 403.121 157.273 403.213 157.273H403.305C403.58 157.365 403.856 157.365 404.04 157.365C404.132 157.365 404.224 157.365 404.315 157.365C404.499 157.365 404.683 157.457 404.867 157.549C404.958 157.549 405.05 157.641 405.142 157.641C405.326 157.641 405.418 157.549 405.601 157.549C405.693 157.549 405.785 157.457 405.969 157.457C406.061 157.457 406.244 157.365 406.336 157.365C406.428 157.365 406.612 157.273 406.704 157.273C406.796 157.273 406.887 157.181 407.071 157.181C407.255 157.181 407.347 157.089 407.53 157.089C407.622 157.089 407.714 156.998 407.806 156.998C407.99 156.998 408.082 156.906 408.265 156.906C408.357 156.906 408.449 156.814 408.541 156.814C408.725 156.722 408.908 156.722 409 156.63C409.092 156.63 409.184 156.355 409.276 156.355C409.551 156.263 409.735 155.803 410.011 155.803V155.987V156.079C410.286 155.987 410.47 155.895 410.746 155.803C410.837 155.803 410.929 155.712 411.021 155.712C411.205 155.62 411.389 155.528 411.572 155.436C411.664 155.344 411.756 155.344 411.848 155.252C412.123 155.069 412.307 154.977 412.583 154.793C412.858 154.609 413.134 154.425 413.41 154.242C413.41 154.242 413.41 154.242 413.501 154.242C413.777 154.058 414.053 153.874 414.236 153.691C414.328 153.599 414.42 153.507 414.512 153.507C414.696 153.323 414.879 153.231 415.063 153.048C415.155 152.956 415.247 152.864 415.339 152.772C415.522 152.68 415.614 152.496 415.798 152.313C415.89 152.221 415.982 152.129 416.165 152.037C416.349 151.853 416.441 151.762 416.625 151.578C416.717 151.486 416.808 151.394 416.992 151.21C417.176 151.027 417.268 150.935 417.451 150.751C417.543 150.659 417.635 150.475 417.819 150.384C418.003 150.2 418.094 150.108 418.278 149.924C418.37 149.832 418.462 149.649 418.554 149.557C418.737 149.373 418.829 149.189 419.013 149.006C419.105 148.914 419.197 148.822 419.289 148.638C419.472 148.455 419.656 148.271 419.748 147.995C419.84 147.903 419.84 147.812 419.932 147.72C420.115 147.444 420.391 147.077 420.575 146.801L420.667 146.709C420.85 146.434 421.034 146.158 421.218 145.882C421.493 145.515 421.677 145.148 421.953 144.872C422.228 144.413 422.596 143.862 422.871 143.31C422.963 143.219 422.963 143.127 423.055 143.035C423.422 142.392 423.79 141.749 424.157 141.014C424.157 140.922 424.249 140.83 424.249 140.738C424.525 140.279 424.708 139.728 424.984 139.269C425.076 139.085 425.168 138.901 425.26 138.717C425.351 138.534 425.443 138.35 425.535 138.166C425.627 137.891 425.811 137.615 425.903 137.339C425.903 137.248 425.994 137.156 425.994 137.064C426.178 136.696 426.27 136.329 426.454 136.053C426.454 135.962 426.546 135.87 426.546 135.778C426.637 135.502 426.729 135.227 426.821 134.951C426.821 134.859 426.913 134.675 426.913 134.584C427.005 134.308 427.097 134.032 427.189 133.849C427.189 133.757 427.28 133.665 427.28 133.481C427.372 133.114 427.464 132.838 427.556 132.471V132.379C427.648 132.012 427.74 131.644 427.832 131.277C427.832 131.185 427.923 131.001 427.923 130.909C428.015 130.634 428.015 130.45 428.107 130.174C428.107 129.991 428.199 129.899 428.199 129.715C428.291 129.439 428.291 129.256 428.383 128.98C428.383 128.796 428.475 128.705 428.475 128.521C428.567 128.245 428.567 128.062 428.567 127.786C428.567 127.694 428.658 127.51 428.658 127.419C428.75 127.143 428.75 126.775 428.842 126.5C428.842 126.408 428.842 126.408 428.842 126.316C428.934 125.949 428.934 125.581 428.934 125.214C428.934 125.122 428.934 125.03 428.934 124.938C428.934 124.663 429.026 124.387 429.026 124.203C429.026 124.112 429.026 123.928 429.026 123.836C429.026 123.56 429.026 123.377 429.026 123.101C429.026 123.009 429.026 122.825 429.026 122.734C429.026 122.366 429.026 122.091 429.026 121.723C429.026 121.356 429.026 120.988 429.026 120.713C429.026 120.621 429.026 120.529 429.026 120.437C429.026 120.162 429.026 119.978 429.026 119.702C429.026 119.61 429.026 119.427 429.026 119.335C429.026 119.151 429.026 118.967 428.934 118.784C428.934 118.6 428.934 118.508 428.842 118.416C428.842 118.232 428.75 118.049 428.75 117.865C428.75 117.681 428.658 117.589 428.658 117.406C428.658 117.222 428.567 117.13 428.567 116.946C428.567 116.763 428.475 116.579 428.475 116.395C428.475 116.303 428.383 116.12 428.383 116.028C428.291 115.844 428.291 115.66 428.199 115.385C428.199 115.293 428.107 115.201 428.107 115.109C428.015 114.742 427.924 114.466 427.74 114.191V114.099C427.556 113.731 427.372 113.272 427.189 112.905V112.813C427.005 112.537 426.821 112.262 426.637 111.986C426.637 111.894 426.546 111.894 426.546 111.802C426.362 111.527 426.178 111.343 425.994 111.067C425.994 111.067 425.994 111.067 425.994 110.975C425.811 110.7 425.535 110.516 425.351 110.332C425.26 110.241 425.26 110.241 425.168 110.149C424.8 110.332 424.617 110.149 424.341 109.965ZM425.351 108.495L424.341 110.057L423.33 111.619C423.514 111.71 423.698 111.894 423.882 112.078L423.974 112.17C424.157 112.353 424.341 112.537 424.433 112.629C424.433 112.629 424.433 112.721 424.525 112.721C424.708 112.905 424.8 113.088 424.984 113.272L425.076 113.456C425.26 113.731 425.351 113.915 425.535 114.191V114.282C425.719 114.558 425.903 114.925 425.994 115.293V115.385C426.086 115.66 426.178 115.936 426.27 116.212C426.27 116.303 426.27 116.303 426.362 116.395V116.487C426.454 116.671 426.454 116.855 426.546 117.038C426.546 117.13 426.637 117.314 426.637 117.406C426.637 117.589 426.729 117.681 426.729 117.865C426.729 117.957 426.821 118.141 426.821 118.232C426.821 118.324 426.913 118.508 426.913 118.6C426.913 118.784 427.005 118.875 427.005 119.059C427.005 119.151 427.005 119.335 427.097 119.427C427.097 119.61 427.097 119.794 427.189 119.978V120.07C427.189 120.162 427.189 120.253 427.189 120.345C427.189 120.529 427.189 120.805 427.189 120.988V121.08V121.264C427.189 121.631 427.189 121.907 427.189 122.274C427.189 122.55 427.189 122.917 427.189 123.193V123.377V123.469C427.189 123.652 427.189 123.928 427.189 124.112V124.479C427.189 124.755 427.189 124.938 427.097 125.214V125.306V125.489C427.097 125.857 427.005 126.132 427.005 126.5V126.592V126.684C427.005 126.959 426.913 127.235 426.913 127.602V127.878V127.97C426.913 128.245 426.821 128.429 426.821 128.705L426.729 129.072C426.637 129.256 426.637 129.531 426.546 129.715V129.807L426.454 130.174C426.362 130.45 426.362 130.634 426.27 130.909V131.093L426.178 131.277C426.086 131.644 425.994 132.012 425.903 132.287V132.379C425.811 132.746 425.719 133.022 425.627 133.389L425.535 133.573V133.665C425.443 133.941 425.351 134.124 425.26 134.4L425.168 134.767C425.076 135.043 424.984 135.319 424.892 135.502V135.594L424.8 135.778C424.708 136.145 424.525 136.421 424.433 136.788L424.341 136.88L424.249 136.972C424.157 137.248 424.065 137.523 423.882 137.707C423.79 137.891 423.79 137.982 423.698 138.166L423.606 138.258L423.514 138.442C423.422 138.534 423.422 138.717 423.33 138.809C423.147 139.269 422.871 139.728 422.687 140.187L422.596 140.279L422.504 140.371C422.136 141.014 421.769 141.657 421.493 142.3L421.401 142.484L421.31 142.575C420.942 143.127 420.667 143.586 420.391 144.045C420.207 144.321 419.932 144.688 419.748 145.056C419.564 145.331 419.38 145.607 419.197 145.791L419.105 145.882C418.921 146.158 418.646 146.434 418.462 146.709L418.37 146.801L418.278 146.893C418.094 147.077 418.003 147.26 417.819 147.444L417.635 147.628L417.543 147.72C417.451 147.903 417.268 148.087 417.176 148.179C417.084 148.271 416.992 148.363 416.9 148.455V148.546C416.808 148.73 416.625 148.822 416.533 149.006C416.441 149.098 416.349 149.189 416.257 149.373C416.165 149.557 415.982 149.649 415.89 149.832C415.798 149.924 415.706 150.016 415.614 150.108C415.522 150.2 415.339 150.384 415.247 150.475C415.155 150.567 415.063 150.659 414.971 150.751C414.787 150.843 414.696 151.027 414.512 151.119H414.42C414.328 151.21 414.236 151.302 414.144 151.302C413.961 151.394 413.869 151.578 413.685 151.67L413.593 151.762L413.501 151.853C413.226 152.037 413.042 152.221 412.767 152.405C412.491 152.588 412.307 152.772 412.032 152.956C411.848 153.139 411.572 153.231 411.389 153.415L411.205 153.507C411.021 153.599 410.837 153.691 410.746 153.782L410.654 153.874L410.562 153.966C410.47 154.058 410.286 154.058 410.194 154.15C409.735 154.242 409.46 154.425 409.184 154.517H409.092C409 154.517 409 154.609 408.908 154.609C408.817 154.701 408.633 154.701 408.541 154.701C408.449 154.701 408.357 154.793 408.265 154.793C408.173 154.793 407.99 154.885 407.898 154.885C407.806 154.885 407.714 154.885 407.622 154.977C407.53 154.977 407.347 155.069 407.255 155.069H407.163C407.071 155.069 406.979 155.069 406.887 155.069C406.796 155.069 406.704 155.069 406.612 155.069H406.52C406.428 155.069 406.336 155.069 406.244 155.069C406.153 155.069 406.153 155.069 406.061 155.069H405.969C405.877 155.069 405.785 155.069 405.601 155.069H405.418H405.326C405.234 155.069 405.05 155.069 404.958 155.069C404.867 155.069 404.775 155.069 404.775 155.069C404.591 155.069 404.315 154.977 404.224 154.977H404.132H404.04C403.948 154.977 403.764 154.885 403.672 154.885H403.58H403.489C403.397 154.885 403.305 154.793 403.213 154.793C403.121 154.701 403.029 154.701 402.846 154.609L402.754 154.517H402.662C402.478 154.425 402.386 154.334 402.203 154.242C401.927 154.058 401.56 153.966 401.192 153.966C400.641 153.966 399.998 154.242 399.63 154.793C399.079 155.62 399.263 156.814 400.09 157.365L412.767 165.816C413.042 166 413.226 166.092 413.501 166.275C413.593 166.275 413.685 166.367 413.685 166.367H413.777C413.961 166.459 414.144 166.551 414.236 166.643C414.236 166.643 414.328 166.643 414.328 166.735C414.42 166.735 414.512 166.827 414.604 166.827H414.696H414.787C414.879 166.827 414.971 166.919 414.971 166.919C415.155 167.01 415.339 167.01 415.522 167.102C415.614 167.102 415.614 167.102 415.706 167.102C415.706 167.102 415.706 167.102 415.798 167.102H415.89C416.165 167.194 416.441 167.194 416.717 167.286C416.808 167.286 416.808 167.286 416.9 167.286C416.992 167.286 417.084 167.286 417.084 167.286C417.268 167.286 417.451 167.286 417.727 167.286C417.819 167.286 417.911 167.286 417.911 167.286C418.003 167.286 418.003 167.286 418.094 167.286C418.186 167.286 418.37 167.286 418.554 167.286C418.646 167.286 418.737 167.286 418.829 167.286C418.921 167.286 418.921 167.286 419.013 167.286C419.105 167.286 419.197 167.286 419.38 167.286H419.472H419.564C419.656 167.286 419.748 167.286 419.84 167.286C419.932 167.286 419.932 167.286 420.024 167.286C420.115 167.286 420.207 167.286 420.391 167.194H420.483C420.575 167.194 420.667 167.194 420.758 167.102C420.85 167.102 420.85 167.102 420.942 167.102C421.034 167.102 421.218 167.01 421.31 167.01H421.401C421.493 167.01 421.493 167.01 421.585 166.919C421.677 166.919 421.677 166.919 421.769 166.827H421.861C421.953 166.827 422.044 166.735 422.228 166.735C422.32 166.735 422.32 166.735 422.412 166.643C422.504 166.643 422.596 166.551 422.687 166.551H422.779H422.871C422.963 166.551 422.963 166.459 423.055 166.459H423.147C423.422 166.367 423.606 166.275 423.882 166.092C423.882 166.092 423.882 166.092 423.974 166.092C424.157 166 424.433 165.908 424.617 165.724L424.708 165.632L424.892 165.541H424.984L425.076 165.449C425.168 165.357 425.26 165.357 425.351 165.265C425.443 165.265 425.443 165.173 425.535 165.173H425.627C425.719 165.081 425.811 165.081 425.903 164.989H425.994C426.086 164.989 426.086 164.898 426.178 164.898C426.362 164.806 426.546 164.622 426.729 164.53L426.913 164.438C427.189 164.255 427.372 164.163 427.556 163.979C427.556 163.979 427.556 163.979 427.648 163.979C427.924 163.795 428.107 163.612 428.383 163.428L428.475 163.336C428.567 163.244 428.567 163.244 428.658 163.152L428.75 163.06L428.842 162.969C428.934 162.877 429.026 162.785 429.118 162.693L429.21 162.601C429.301 162.509 429.393 162.417 429.485 162.325L429.577 162.234L429.669 162.142C429.761 162.05 429.761 162.05 429.853 161.958L429.944 161.866L430.036 161.774C430.128 161.682 430.312 161.591 430.404 161.407L430.496 161.315C430.587 161.223 430.587 161.223 430.679 161.131C430.771 161.039 430.771 161.039 430.863 160.948L430.955 160.856C431.047 160.764 431.23 160.58 431.322 160.488L431.414 160.396L431.506 160.305C431.598 160.213 431.598 160.213 431.69 160.121L431.782 160.029C431.874 159.937 432.057 159.753 432.149 159.662L432.241 159.57L432.333 159.478C432.425 159.386 432.425 159.294 432.517 159.294L432.608 159.202L432.7 159.11C432.792 159.019 432.884 158.927 432.976 158.835L433.068 158.743C433.16 158.651 433.251 158.559 433.251 158.467L433.343 158.375L433.435 158.284C433.527 158.192 433.619 158.1 433.619 158.008L433.711 157.916C433.803 157.732 433.986 157.641 434.078 157.457L434.17 157.365L434.262 157.273L434.354 157.089C434.537 156.814 434.813 156.446 434.997 156.171L435.089 156.079C435.272 155.803 435.456 155.528 435.64 155.252V155.16C435.915 154.793 436.099 154.425 436.375 154.058C436.65 153.599 437.018 153.048 437.385 152.405C437.385 152.313 437.477 152.313 437.477 152.221C437.477 152.221 437.477 152.129 437.569 152.129C437.936 151.486 438.304 150.751 438.671 150.016C438.671 149.924 438.763 149.924 438.763 149.832L438.855 149.741C439.13 149.189 439.406 148.73 439.59 148.179V148.087C439.682 147.995 439.682 147.903 439.774 147.812L439.865 147.628L439.957 147.536C440.049 147.352 440.141 147.26 440.141 147.077L440.233 146.985C440.325 146.801 440.417 146.525 440.508 146.342V146.25V146.158L440.6 145.974V145.882C440.692 145.607 440.876 145.239 440.968 144.964V144.872L441.06 144.688V144.596L441.151 144.413C441.243 144.321 441.243 144.137 441.335 144.045L441.427 143.862V143.77L441.519 143.402V143.31L441.611 143.127C441.611 143.035 441.703 142.943 441.703 142.759L441.794 142.575V142.484L441.886 142.208L441.978 142.024C442.07 141.749 442.162 141.381 442.254 141.106V141.014C442.346 140.646 442.437 140.279 442.529 140.003V139.912L442.621 139.636V139.544V139.36C442.621 139.177 442.713 139.085 442.713 138.901V138.717V138.625L442.805 138.258V138.166C442.805 138.074 442.805 137.982 442.897 137.891V137.707V137.615L442.989 137.156V137.064V136.88C442.989 136.788 442.989 136.696 443.08 136.513V136.329V136.237L443.172 135.962V135.778C443.264 135.502 443.264 135.227 443.264 134.951V134.767C443.356 134.4 443.356 134.032 443.356 133.757V133.665V133.481V133.389V133.298C443.356 133.114 443.356 133.022 443.356 132.838C443.356 132.746 443.356 132.746 443.356 132.655V132.563C443.356 132.471 443.356 132.379 443.356 132.287V132.195V131.92V131.828C443.356 131.736 443.356 131.644 443.356 131.552V131.46C443.356 131.369 443.356 131.277 443.356 131.185V131.093C443.356 130.909 443.356 130.817 443.356 130.725C443.356 130.542 443.448 130.358 443.448 130.266C443.448 130.174 443.54 130.082 443.54 130.082V129.991C443.54 129.899 443.448 129.807 443.448 129.715C443.448 129.623 443.448 129.623 443.448 129.531C443.54 129.348 443.54 129.164 443.54 128.888V128.705V128.613V128.521C443.54 128.337 443.54 128.245 443.54 128.062V127.97C443.54 127.786 443.54 127.694 443.54 127.602V127.51V127.419C443.54 127.327 443.54 127.235 443.54 127.143C443.54 127.051 443.54 127.051 443.54 126.959V126.867C443.54 126.684 443.54 126.592 443.448 126.408V126.316C443.448 126.224 443.448 126.132 443.448 126.132C443.448 126.041 443.448 126.041 443.448 125.949V125.857C443.448 125.673 443.356 125.489 443.356 125.398V125.306C443.356 125.214 443.356 125.214 443.356 125.122C443.356 125.03 443.356 125.03 443.356 124.938V124.846C443.356 124.663 443.264 124.479 443.264 124.295V124.203C443.264 124.112 443.264 124.112 443.264 124.02C443.264 123.928 443.264 123.928 443.172 123.836C443.08 123.56 443.08 123.377 442.989 123.193V123.101C442.989 123.009 442.989 122.917 442.897 122.917V122.825C442.805 122.458 442.621 122.091 442.529 121.815V121.723C442.529 121.723 442.529 121.631 442.437 121.631C442.254 121.172 442.07 120.805 441.886 120.345C441.886 120.345 441.886 120.253 441.794 120.253V120.162C441.611 119.794 441.427 119.519 441.151 119.243C441.06 119.151 441.06 119.059 440.968 119.059C440.692 118.784 440.508 118.508 440.325 118.232L440.233 118.141C439.957 117.865 439.773 117.589 439.406 117.314C439.314 117.222 439.314 117.222 439.222 117.13C438.855 116.855 438.579 116.671 438.304 116.487L425.351 108.495Z" fill="#171A21"/>
<path d="M378.87 150.659C378.87 150.476 378.87 150.292 378.87 150.108C378.87 149.833 378.87 149.649 378.87 149.373C378.87 149.19 378.87 149.098 378.87 148.914C378.87 148.547 378.962 148.271 378.962 147.903C378.962 147.72 378.962 147.536 379.054 147.352C379.054 147.26 379.054 147.26 379.054 147.169C379.146 146.526 379.238 145.974 379.33 145.331C379.33 145.24 379.33 145.148 379.33 145.056C379.422 144.505 379.513 144.045 379.605 143.494C379.605 143.402 379.605 143.31 379.697 143.219C379.697 142.943 379.789 142.759 379.881 142.484C379.973 142.208 379.973 141.933 380.065 141.565C380.065 141.381 380.156 141.198 380.156 141.106C380.248 140.83 380.248 140.555 380.34 140.279C380.34 140.095 380.432 139.912 380.432 139.636C380.524 139.36 380.524 139.177 380.616 138.901C380.708 138.626 380.708 138.35 380.799 138.074C380.799 137.983 380.891 137.799 380.891 137.707C380.983 137.34 381.075 137.064 381.167 136.697C381.259 136.513 381.259 136.237 381.351 136.053C381.351 135.962 381.351 135.962 381.442 135.87C381.626 135.227 381.81 134.584 381.994 134.033C381.994 133.941 381.994 133.941 382.085 133.849C382.269 133.298 382.453 132.747 382.637 132.195C382.637 132.103 382.729 132.012 382.729 131.92C382.82 131.736 382.912 131.46 382.912 131.277C383.004 131.001 383.096 130.726 383.188 130.358C383.28 130.174 383.372 129.991 383.372 129.807C383.463 129.531 383.555 129.348 383.647 129.072C383.739 128.888 383.739 128.705 383.831 128.613C383.923 128.245 384.106 127.97 384.198 127.602C384.29 127.419 384.382 127.235 384.382 127.051C384.382 126.959 384.474 126.959 384.474 126.867C384.749 126.316 384.933 125.673 385.209 125.122C385.209 125.122 385.209 125.122 385.209 125.03C385.301 124.847 385.392 124.755 385.392 124.571C385.576 124.112 385.76 123.652 386.035 123.193C386.035 123.101 386.127 123.101 386.127 123.009C386.311 122.642 386.495 122.274 386.679 121.907C386.862 121.631 386.954 121.356 387.138 120.988C387.138 120.897 387.23 120.897 387.23 120.805C387.689 119.886 388.148 118.967 388.699 118.049C388.699 117.957 388.791 117.865 388.791 117.773C388.883 117.498 389.067 117.314 389.159 117.038C389.342 116.671 389.618 116.303 389.802 115.936C389.985 115.569 390.169 115.293 390.353 114.926C390.537 114.558 390.812 114.191 390.996 113.823C391.088 113.731 391.18 113.548 391.18 113.456C391.272 113.364 391.363 113.272 391.363 113.088C392.006 112.078 392.649 111.159 393.292 110.149C393.752 109.506 394.211 108.771 394.67 108.128C394.67 108.128 394.67 108.036 394.762 108.036C395.13 107.577 395.497 107.117 395.865 106.658C395.956 106.566 396.048 106.474 396.048 106.383C396.508 105.831 396.875 105.28 397.334 104.729C397.334 104.729 397.334 104.637 397.426 104.637C397.518 104.453 397.702 104.362 397.794 104.178C398.069 103.81 398.345 103.535 398.62 103.167C398.712 103.076 398.712 103.076 398.804 102.984C398.988 102.8 399.172 102.524 399.355 102.341C399.539 102.065 399.815 101.881 399.998 101.606C400.09 101.514 400.182 101.422 400.274 101.33C400.458 101.147 400.733 100.871 400.917 100.687C401.101 100.503 401.284 100.32 401.468 100.136C401.56 100.044 401.652 99.9523 401.744 99.8605C402.019 99.5849 402.203 99.4012 402.479 99.2174C402.662 99.0337 402.754 98.9419 402.938 98.7581C403.03 98.6663 403.213 98.4826 403.305 98.3907C403.581 98.207 403.765 97.9314 404.04 97.7477C404.224 97.6558 404.316 97.4721 404.499 97.3802C404.683 97.2884 404.775 97.1047 404.959 97.0128C405.142 96.8291 405.418 96.6453 405.602 96.4616C405.694 96.3698 405.877 96.2779 405.969 96.186C406.153 96.0023 406.337 95.9105 406.52 95.7267C406.704 95.543 406.98 95.3593 407.163 95.1756C407.255 95.0837 407.347 94.9919 407.439 94.9919C407.715 94.8081 407.99 94.6244 408.266 94.3488C408.449 94.257 408.633 94.0733 408.817 93.9814C408.909 93.9814 408.909 93.8895 409.001 93.8895C409.46 93.5221 409.919 93.2465 410.47 92.8791L410.562 92.7872C411.022 92.5116 411.389 92.236 411.848 91.9605C411.94 91.8686 412.032 91.7767 412.216 91.7767C412.583 91.593 412.951 91.3174 413.318 91.1337L413.41 91.0419C413.777 90.7663 414.237 90.5826 414.604 90.3988C414.696 90.3988 414.788 90.307 414.88 90.307C415.063 90.2151 415.247 90.1233 415.431 90.0314C415.615 89.9395 415.798 89.8477 415.982 89.7558C416.166 89.664 416.258 89.664 416.441 89.5721C416.625 89.4802 416.809 89.3884 416.992 89.2965C417.084 89.2047 417.268 89.2047 417.36 89.1128C417.544 89.0209 417.727 88.9291 418.003 88.8372C418.187 88.7453 418.37 88.6535 418.554 88.6535C418.646 88.6535 418.738 88.5616 418.738 88.5616C419.013 88.4698 419.289 88.3779 419.565 88.286C419.748 88.1942 419.84 88.1942 420.024 88.1023H420.116C420.575 87.9186 421.034 87.8267 421.494 87.7349C421.585 87.7349 421.677 87.7349 421.677 87.643C422.045 87.5512 422.504 87.4593 422.872 87.3674H422.963C423.147 87.2756 423.423 87.2756 423.606 87.2756C423.882 87.2756 424.066 87.1837 424.341 87.1837H424.433C424.709 87.1837 424.984 87.0919 425.26 87.0919C425.444 87.0919 425.627 87 425.811 87C425.811 87 428.751 87 430.129 87.2756C430.496 87.3674 430.772 87.3674 431.139 87.4593C431.231 87.4593 431.231 87.4593 431.323 87.4593C431.506 87.4593 431.69 87.5512 431.874 87.5512C432.149 87.643 432.333 87.643 432.609 87.7349C432.792 87.8267 432.976 87.8267 433.16 87.9186C433.252 87.9186 433.435 88.0105 433.527 88.0105C433.619 88.0105 433.711 88.1023 433.711 88.1023C433.987 88.1942 434.354 88.3779 434.63 88.4698C434.813 88.5616 434.905 88.5616 435.089 88.6535C435.548 88.8372 435.916 89.1128 436.375 89.3884L449.052 97.1965C448.592 96.9209 448.225 96.7372 447.766 96.4616C447.582 96.3698 447.49 96.3698 447.306 96.2779C447.031 96.0942 446.663 96.0023 446.388 95.9105C446.204 95.8186 446.02 95.7267 445.745 95.7267C445.561 95.6349 445.377 95.6349 445.194 95.543C444.918 95.4512 444.734 95.4512 444.459 95.3593C444.275 95.3593 444.091 95.2674 443.908 95.2674C443.54 95.1756 443.173 95.0837 442.713 95.0837C442.346 94.9919 441.887 94.9919 441.519 94.9C441.427 94.9 441.335 94.9 441.244 94.9C440.876 94.9 440.417 94.8081 439.958 94.8081C439.498 94.8081 438.947 94.8081 438.396 94.9C438.212 94.9 437.937 94.9 437.753 94.9919C437.477 94.9919 437.202 95.0837 436.926 95.0837C436.651 95.0837 436.375 95.1756 436.099 95.1756C435.916 95.1756 435.64 95.2674 435.456 95.2674C434.997 95.3593 434.63 95.4512 434.17 95.543C434.079 95.543 433.987 95.543 433.987 95.6349C433.527 95.7267 432.976 95.9105 432.517 96.0942C432.333 96.0942 432.241 96.186 432.058 96.2779C431.69 96.3698 431.323 96.5535 430.955 96.6453C430.772 96.7372 430.588 96.8291 430.404 96.8291C430.037 96.9209 429.761 97.1047 429.394 97.1965C429.21 97.2884 429.026 97.3802 428.842 97.4721C428.475 97.6558 428.199 97.7477 427.832 97.9314C427.648 98.0233 427.465 98.1151 427.281 98.207C426.822 98.4826 426.27 98.7581 425.811 99.0337C425.444 99.3093 424.984 99.493 424.617 99.7686C424.066 100.136 423.515 100.503 422.963 100.871C422.963 100.871 422.872 100.871 422.872 100.963C422.32 101.33 421.769 101.698 421.31 102.065C421.126 102.157 420.942 102.341 420.759 102.433C420.391 102.708 420.024 102.984 419.748 103.259C419.565 103.443 419.289 103.627 419.105 103.81C418.83 104.086 418.462 104.362 418.187 104.637C418.003 104.821 417.727 105.005 417.544 105.188C417.268 105.464 416.992 105.74 416.625 106.015C416.349 106.199 416.166 106.474 415.89 106.658C415.615 106.934 415.339 107.209 415.063 107.485C414.788 107.669 414.604 107.944 414.329 108.128C414.053 108.403 413.777 108.679 413.502 109.047C413.318 109.23 413.042 109.506 412.859 109.69C412.583 109.965 412.308 110.333 411.94 110.7C411.756 110.884 411.573 111.159 411.389 111.343C411.022 111.71 410.746 112.078 410.379 112.537C410.287 112.721 410.103 112.813 410.011 112.997C409.552 113.548 409.092 114.099 408.633 114.742C408.541 114.834 408.449 114.926 408.449 115.017C408.082 115.477 407.715 116.028 407.347 116.487C406.888 117.13 406.429 117.773 405.969 118.508C405.326 119.427 404.683 120.437 404.04 121.448C403.856 121.723 403.765 121.907 403.581 122.183C403.397 122.55 403.122 122.917 402.938 123.285C402.754 123.652 402.57 123.928 402.387 124.295C402.203 124.663 401.927 125.03 401.744 125.398C401.56 125.673 401.376 126.041 401.192 126.316C400.733 127.235 400.182 128.153 399.723 129.072C399.539 129.44 399.355 129.715 399.172 130.083C398.988 130.45 398.804 130.817 398.62 131.185C398.345 131.736 398.161 132.195 397.885 132.747C397.794 132.93 397.702 133.022 397.702 133.206C397.426 133.849 397.151 134.584 396.875 135.227C396.783 135.41 396.691 135.594 396.691 135.778C396.508 136.237 396.324 136.788 396.14 137.248C396.048 137.431 395.956 137.707 395.865 137.891C395.681 138.35 395.497 138.809 395.313 139.36C395.222 139.544 395.13 139.728 395.13 140.003C394.946 140.647 394.67 141.29 394.487 141.933C394.487 142.024 394.487 142.024 394.395 142.116C394.211 142.851 393.935 143.494 393.752 144.229C393.66 144.413 393.66 144.688 393.568 144.872C393.476 145.331 393.292 145.791 393.201 146.342C393.109 146.617 393.109 146.893 393.017 147.169C392.925 147.628 392.833 148.087 392.741 148.547C392.649 148.822 392.649 149.098 392.558 149.373C392.466 149.833 392.374 150.292 392.282 150.751C392.19 151.027 392.19 151.21 392.098 151.486C392.006 152.129 391.915 152.68 391.823 153.323C391.823 153.415 391.823 153.507 391.823 153.599C391.731 154.242 391.639 154.977 391.547 155.62C391.547 155.803 391.547 155.987 391.455 156.171C391.363 156.63 391.363 157.181 391.272 157.641C391.272 157.916 391.272 158.1 391.18 158.376C391.18 158.835 391.088 159.294 391.088 159.753C391.088 159.937 391.088 160.213 391.088 160.397C391.088 161.04 391.088 161.683 391.088 162.326C391.088 162.969 391.088 163.612 391.088 164.255C391.088 164.438 391.088 164.622 391.088 164.806C391.088 165.265 391.18 165.633 391.18 166.092C391.18 166.367 391.272 166.551 391.272 166.827C391.272 167.194 391.363 167.47 391.363 167.837C391.363 168.113 391.455 168.388 391.455 168.664C391.547 169.031 391.547 169.399 391.639 169.858C391.639 169.858 391.639 169.858 391.639 169.95C391.639 169.95 391.639 170.042 391.639 170.134C391.639 170.226 391.639 170.317 391.731 170.409C391.731 170.501 391.823 170.685 391.823 170.777V170.869C391.915 171.512 392.098 172.155 392.282 172.798C392.374 172.981 392.374 173.257 392.466 173.441C392.558 173.808 392.741 174.267 392.833 174.635C393.017 175.094 393.201 175.553 393.384 176.013C393.384 176.105 393.476 176.197 393.476 176.288C393.66 176.748 393.844 177.207 394.119 177.666C394.211 177.942 394.395 178.217 394.487 178.585C394.579 178.677 394.579 178.769 394.67 178.86C394.854 179.228 395.038 179.687 395.222 180.055C395.313 180.147 395.313 180.238 395.405 180.33C395.589 180.606 395.773 180.973 395.956 181.249C396.048 181.433 396.14 181.524 396.232 181.708C396.416 181.984 396.508 182.259 396.691 182.535C396.783 182.627 396.783 182.719 396.875 182.902C397.059 183.178 397.242 183.545 397.426 183.821C397.518 183.913 397.61 184.097 397.702 184.188C397.885 184.556 398.161 184.831 398.345 185.199C398.437 185.291 398.437 185.383 398.528 185.474C398.804 185.934 399.172 186.301 399.447 186.76C399.539 186.852 399.631 186.944 399.723 187.036C399.998 187.403 400.274 187.679 400.458 188.047C400.549 188.138 400.641 188.322 400.825 188.414C401.101 188.69 401.376 189.057 401.652 189.333C401.744 189.424 401.835 189.516 401.927 189.7C402.295 190.159 402.662 190.527 403.122 190.986C403.213 191.078 403.305 191.17 403.397 191.262C403.765 191.629 404.04 191.997 404.408 192.272C404.591 192.364 404.683 192.548 404.867 192.64C405.234 192.915 405.51 193.283 405.877 193.558C405.969 193.65 406.153 193.834 406.245 193.926C406.704 194.385 407.255 194.752 407.715 195.212C407.806 195.303 407.806 195.303 407.898 195.395C408.358 195.763 408.817 196.13 409.276 196.498C409.46 196.59 409.644 196.773 409.827 196.865C410.195 197.141 410.654 197.416 411.022 197.784C411.205 197.876 411.389 198.059 411.573 198.151C412.124 198.519 412.767 198.978 413.41 199.345L400.733 191.537C400.09 191.17 399.539 190.802 398.896 190.343C398.712 190.251 398.529 190.067 398.345 189.976C397.885 189.7 397.518 189.424 397.151 189.057C396.967 188.965 396.783 188.781 396.599 188.69C396.14 188.322 395.681 187.955 395.222 187.587C395.13 187.495 395.13 187.495 395.038 187.403C394.487 186.944 394.027 186.577 393.568 186.117C393.476 186.026 393.292 185.842 393.201 185.75C392.833 185.474 392.558 185.107 392.19 184.831C392.006 184.74 391.915 184.556 391.731 184.464C391.363 184.097 390.996 183.729 390.72 183.453C390.628 183.362 390.537 183.27 390.445 183.178C390.077 182.719 389.618 182.351 389.251 181.892C389.159 181.8 389.067 181.708 388.975 181.524C388.699 181.157 388.424 180.881 388.148 180.514C388.056 180.422 387.965 180.238 387.781 180.147C387.505 179.779 387.23 179.503 387.046 179.136C386.954 179.044 386.862 178.952 386.77 178.86C386.495 178.401 386.127 178.034 385.852 177.574C385.76 177.483 385.76 177.391 385.668 177.299C385.484 176.931 385.209 176.656 385.025 176.288C384.933 176.197 384.841 176.013 384.749 175.921C384.566 175.645 384.382 175.278 384.198 175.002C384.106 174.91 384.106 174.819 384.015 174.635L383.923 174.543C383.739 174.267 383.647 174.084 383.555 173.808C383.463 173.624 383.372 173.533 383.28 173.349C383.096 172.981 382.912 172.706 382.729 172.43C382.637 172.338 382.637 172.247 382.545 172.155C382.361 171.787 382.177 171.328 381.994 170.96C381.902 170.869 381.902 170.777 381.81 170.685C381.718 170.409 381.534 170.134 381.442 169.858C381.442 169.858 381.442 169.766 381.351 169.766C381.167 169.491 381.075 169.123 380.891 168.756C380.799 168.664 380.799 168.48 380.708 168.388C380.708 168.297 380.616 168.205 380.616 168.113C380.432 167.653 380.248 167.286 380.156 166.827V166.735C380.065 166.367 379.881 166 379.789 165.541C379.697 165.357 379.697 165.173 379.605 164.99C379.605 164.99 379.605 164.99 379.605 164.898C379.422 164.255 379.238 163.612 379.146 162.969V162.877C379.146 162.693 379.054 162.601 379.054 162.509C379.054 162.417 379.054 162.326 378.962 162.234C378.962 162.142 378.962 162.05 378.962 162.05V161.958C378.962 161.774 378.87 161.591 378.87 161.499C378.87 161.315 378.778 161.04 378.778 160.856C378.778 160.58 378.687 160.305 378.687 160.029C378.687 159.937 378.687 159.845 378.687 159.753C378.687 159.478 378.595 159.202 378.595 158.927C378.595 158.651 378.503 158.467 378.503 158.192C378.503 158.1 378.503 158.1 378.503 158.008C378.87 157.181 378.687 152.221 378.87 150.659Z" fill="#98A2F4" stroke="#171A21" stroke-width="2" stroke-miterlimit="10" stroke-linecap="round" stroke-linejoin="round"/>
<path d="M425.168 96.5537C442.071 86.6328 456.125 94.3491 457.779 114.466C458.146 118.508 457.962 122.734 457.319 126.96C457.319 126.96 457.227 127.419 457.136 128.429C456.584 131.736 455.85 135.043 454.839 138.35C451.44 150.568 443.632 172.43 426.087 202.01C425.536 202.928 424.893 203.663 424.25 204.03C423.607 204.49 422.872 204.582 422.321 204.398C404.683 197.141 396.691 185.199 393.293 177.207C392.282 175.186 391.547 172.798 390.996 170.226C390.812 169.491 390.812 169.032 390.812 169.032C390.445 166.643 390.169 164.071 390.169 161.315C390.078 137.799 405.234 109.139 423.974 97.3804C424.341 97.1049 424.709 96.8293 425.168 96.5537ZM424.158 161.04C433.252 155.344 440.601 141.382 440.601 129.991C440.601 118.6 433.16 114.007 424.066 119.703C414.972 125.398 407.623 139.361 407.623 150.751C407.623 162.142 415.064 166.827 424.158 161.04Z" fill="#2F58FF"/>
</svg>
