<svg width="288" height="288" viewBox="0 0 288 288" fill="none" xmlns="http://www.w3.org/2000/svg">
<g filter="url(#filter0_d)">
<rect x="72" y="54.0002" width="144" height="144" rx="24" fill="#FFD394"/>
</g>
<path d="M170.382 149.273C140.779 163.416 122.408 151.581 110.646 144.395C109.917 143.943 108.68 144.501 109.754 145.737C113.671 150.506 126.512 162 143.271 162C160.042 162 170.02 152.815 171.269 151.211C172.512 149.622 171.634 148.747 170.382 149.273ZM178.696 144.663C177.9 143.623 173.861 143.429 171.321 143.743C168.776 144.049 164.953 145.611 165.287 146.548C165.456 146.9 165.804 146.742 167.554 146.583C169.306 146.407 174.22 145.784 175.244 147.129C176.274 148.483 173.676 154.926 173.202 155.966C172.743 157.005 173.378 157.272 174.238 156.579C175.086 155.886 176.622 154.095 177.652 151.561C178.675 149.012 179.301 145.455 178.696 144.663Z" fill="white"/>
<path d="M167.372 134.801C165.637 132.39 163.794 130.435 163.794 125.971V111.129C163.794 104.845 164.236 99.0715 159.617 94.7429C155.975 91.2337 149.943 90.0003 145.324 90.0003C136.303 90.0003 126.228 93.3774 124.107 104.578C123.894 105.77 124.748 106.398 125.523 106.575L134.732 107.567C135.586 107.526 136.212 106.683 136.373 105.826C137.16 101.967 140.389 100.105 144.008 100.105C145.956 100.105 148.171 100.828 149.332 102.584C150.654 104.54 150.479 107.218 150.479 109.485V110.718C144.979 111.347 137.786 111.749 132.635 114.028C126.696 116.6 122.519 121.866 122.519 129.595C122.519 139.494 128.738 144.439 136.718 144.439C143.47 144.439 147.155 142.845 152.36 137.512C154.094 140.017 154.656 141.235 157.803 143.861C158.511 144.237 159.418 144.196 160.044 143.635L160.07 143.661C161.966 141.973 165.409 138.96 167.343 137.339C168.121 136.69 167.986 135.659 167.372 134.801ZM148.703 130.514C147.194 133.195 144.807 134.842 142.136 134.842C138.491 134.842 136.37 132.056 136.37 127.941C136.37 119.822 143.616 118.347 150.476 118.347V120.412C150.479 124.124 150.572 127.219 148.703 130.514Z" fill="white"/>
<defs>
<filter id="filter0_d" x="0" y="0.000244141" width="288" height="288" filterUnits="userSpaceOnUse" color-interpolation-filters="sRGB">
<feFlood flood-opacity="0" result="BackgroundImageFix"/>
<feColorMatrix in="SourceAlpha" type="matrix" values="0 0 0 0 0 0 0 0 0 0 0 0 0 0 0 0 0 0 127 0"/>
<feOffset dy="18"/>
<feGaussianBlur stdDeviation="36"/>
<feColorMatrix type="matrix" values="0 0 0 0 1 0 0 0 0 0.827451 0 0 0 0 0.580392 0 0 0 0.4 0"/>
<feBlend mode="normal" in2="BackgroundImageFix" result="effect1_dropShadow"/>
<feBlend mode="normal" in="SourceGraphic" in2="effect1_dropShadow" result="shape"/>
</filter>
</defs>
</svg>
