<svg width="288" height="288" viewBox="0 0 288 288" fill="none" xmlns="http://www.w3.org/2000/svg">
<g filter="url(#filter0_d)">
<rect x="72" y="54.0002" width="144" height="144" rx="24" fill="white"/>
</g>
<g clip-path="url(#clip0)">
<path d="M95 98.7311V124.201H108.475C113.779 124.201 118.681 122.359 118.681 116.948C118.681 113.289 116.018 111.62 113.089 110.745C114.873 110.037 116.897 108.549 116.897 105.429C116.897 101.436 112.894 98.7311 107.504 98.7311H95ZM103.255 104.663H106.29C107.526 104.663 108.468 105.621 108.468 106.593C108.468 107.496 107.489 108.463 106.29 108.463H103.255V104.663ZM103.255 113.749H107.261C108.66 113.749 109.834 114.8 109.834 116.002C109.834 117.277 108.736 118.337 107.019 118.337H103.255V113.749Z" fill="#171A21"/>
<path d="M101.677 126.98V152.45H115.153C120.456 152.45 125.358 150.607 125.358 145.196C125.358 141.538 122.695 139.868 119.766 138.994C121.55 138.285 123.575 136.797 123.575 133.677C123.575 129.685 119.571 126.98 114.181 126.98H101.677ZM109.932 132.912H112.967C114.203 132.912 115.145 133.869 115.145 134.841C115.145 135.744 114.166 136.711 112.967 136.711H109.932V132.912ZM109.932 141.997H113.939C115.337 141.997 116.511 143.049 116.511 144.25C116.511 145.526 115.413 146.585 113.696 146.585H109.932V141.997Z" fill="#171A21"/>
<path d="M119.329 124.198V98.7281H140.088V104.879H127.56V108.219H137.733V113.986H127.56V118.071H140.088V124.198H119.329Z" fill="#171A21"/>
<path d="M151.333 124.927C157.177 124.927 161.851 121.629 161.851 116.283C161.851 107.657 150.511 108.984 150.511 106.298C150.511 105.261 151.613 104.71 152.744 104.71C154.693 104.71 156.1 105.98 156.1 105.98L160.979 101.383C159.028 99.5453 155.946 98.0002 151.794 98.0002C145.559 98.0002 141.48 101.662 141.48 106.08C141.48 114.817 152.657 113.549 152.657 116.29C152.657 117.251 151.723 118.218 150.029 118.218C148.105 118.218 146.581 117.068 145.395 116.093L140.488 120.723C142.464 122.628 145.636 124.927 151.333 124.927Z" fill="#171A21"/>
<path d="M168.204 124.198V104.855H161.405V98.7281H183.257V104.855H176.459V124.198H168.204Z" fill="#171A21"/>
<path d="M125.641 126.962H133.872V142.22C133.872 143.769 135.43 145.197 137.055 145.197C138.587 145.197 140.136 143.907 140.136 142.138V126.962H148.343V142.034C148.343 148.015 143.325 152.786 136.837 152.786C130.312 152.786 125.641 147.594 125.641 141.708V126.962Z" fill="#171A21"/>
<path d="M158.492 152.432V143.33L148.818 126.962H157.146L162.62 135.732L168.112 126.962H176.459L166.747 143.424V152.432H158.492Z" fill="#171A21"/>
<path d="M176.459 140.901L171.603 145.707V152.195L176.459 157H197V140.901H176.459Z" fill="#FFDF36"/>
<path d="M175.662 148.948C175.662 149.545 175.173 150.029 174.569 150.029C173.966 150.029 173.477 149.545 173.477 148.948C173.477 148.35 173.966 147.866 174.569 147.866C175.173 147.866 175.662 148.35 175.662 148.948Z" fill="#171A21"/>
</g>
<defs>
<filter id="filter0_d" x="0" y="0.000183105" width="288" height="288" filterUnits="userSpaceOnUse" color-interpolation-filters="sRGB">
<feFlood flood-opacity="0" result="BackgroundImageFix"/>
<feColorMatrix in="SourceAlpha" type="matrix" values="0 0 0 0 0 0 0 0 0 0 0 0 0 0 0 0 0 0 127 0"/>
<feOffset dy="18"/>
<feGaussianBlur stdDeviation="36"/>
<feColorMatrix type="matrix" values="0 0 0 0 0.771285 0 0 0 0 0.893206 0 0 0 0 0.954167 0 0 0 0.6 0"/>
<feBlend mode="normal" in2="BackgroundImageFix" result="effect1_dropShadow"/>
<feBlend mode="normal" in="SourceGraphic" in2="effect1_dropShadow" result="shape"/>
</filter>
<clipPath id="clip0">
<rect width="102" height="59" fill="white" transform="translate(95 98.0002)"/>
</clipPath>
</defs>
</svg>
