<svg width="192" height="192" viewBox="0 0 192 192" fill="none" xmlns="http://www.w3.org/2000/svg">
<g filter="url(#filter0_d)">
<rect x="42" y="24.0003" width="108" height="108" rx="24" fill="white"/>
</g>
<path d="M70.8105 69.9034C66.0175 69.9034 62.0234 71.9165 62.0234 77.9898C62.0234 82.8012 64.7091 85.8311 70.9343 85.8311C78.2615 85.8311 78.7312 81.0528 78.7312 81.0528H75.1808C75.1808 81.0528 74.4196 83.6257 70.7177 83.6257C67.7026 83.6257 65.534 81.6094 65.534 78.7831H79.1025V77.0096C79.1025 74.2136 77.3096 69.9034 70.8105 69.9034ZM70.6867 72.1701C73.5568 72.1701 75.5134 73.9107 75.5134 76.5195H65.6125C65.6125 73.7499 68.1664 72.1701 70.6867 72.1701Z" fill="#E53238"/>
<path d="M79.0992 64.0225V82.7811C79.0992 83.8459 79.0225 85.341 79.0225 85.341H82.4088C82.4088 85.341 82.5303 84.2672 82.5303 83.2859C82.5303 83.2859 84.2034 85.8771 88.7526 85.8771C93.5431 85.8771 96.7971 82.5845 96.7971 77.8673C96.7971 73.4789 93.8082 69.9494 88.7604 69.9494C84.0334 69.9494 82.5645 72.4764 82.5645 72.4764V64.0225H79.0992ZM87.8863 72.2696C91.1394 72.2696 93.208 74.6598 93.208 77.8673C93.208 81.3067 90.8188 83.5568 87.9095 83.5568C84.4374 83.5568 82.5645 80.873 82.5645 77.8979C82.5645 75.1257 84.2452 72.2696 87.8863 72.2696Z" fill="#0064D2"/>
<path d="M105.213 69.9034C98.0021 69.9034 97.5396 73.8121 97.5396 74.4367H101.129C101.129 74.4367 101.317 72.1548 104.965 72.1548C107.336 72.1548 109.173 73.229 109.173 75.2943V76.0295H104.965C99.379 76.0295 96.4258 77.6473 96.4258 80.9303C96.4258 84.1612 99.1545 85.9192 102.842 85.9192C107.868 85.9192 109.486 83.1701 109.486 83.1701C109.486 84.2635 109.572 85.341 109.572 85.341H112.762C112.762 85.341 112.639 84.0054 112.639 83.151V75.7653C112.639 70.9226 108.693 69.9034 105.213 69.9034ZM109.173 78.2348V79.215C109.173 80.4934 108.376 83.6717 103.685 83.6717C101.116 83.6717 100.015 82.4025 100.015 80.9303C100.015 78.2521 103.724 78.2348 109.173 78.2348Z" fill="#F5AF02"/>
<path d="M110.706 70.5167H114.744L120.538 82.0095L126.32 70.5167H129.977L119.447 90.9776H115.61L118.649 85.2738L110.706 70.5167Z" fill="#86B817"/>
<defs>
<filter id="filter0_d" x="0" y="0.000305176" width="192" height="192" filterUnits="userSpaceOnUse" color-interpolation-filters="sRGB">
<feFlood flood-opacity="0" result="BackgroundImageFix"/>
<feColorMatrix in="SourceAlpha" type="matrix" values="0 0 0 0 0 0 0 0 0 0 0 0 0 0 0 0 0 0 127 0"/>
<feOffset dy="18"/>
<feGaussianBlur stdDeviation="21"/>
<feColorMatrix type="matrix" values="0 0 0 0 0.771285 0 0 0 0 0.893206 0 0 0 0 0.954167 0 0 0 0.4 0"/>
<feBlend mode="normal" in2="BackgroundImageFix" result="effect1_dropShadow"/>
<feBlend mode="normal" in="SourceGraphic" in2="effect1_dropShadow" result="shape"/>
</filter>
</defs>
</svg>
