<svg width="192" height="192" viewBox="0 0 192 192" fill="none" xmlns="http://www.w3.org/2000/svg">
<g filter="url(#filter0_d)">
<rect x="42" y="24.0002" width="108" height="108" rx="24" fill="#2F58FF"/>
</g>
<path fill-rule="evenodd" clip-rule="evenodd" d="M72.749 57.2885C88.0472 45.8815 103.306 46.5986 118.567 57.2885V98.7256C103.306 109.416 88.0472 110.095 72.749 98.7256V57.2885Z" fill="white"/>
<path fill-rule="evenodd" clip-rule="evenodd" d="M116.682 58.2701V97.7048C102.742 107.149 88.4272 107.678 74.6396 97.744V58.2329C88.4252 48.3365 102.74 48.8263 116.682 58.2701Z" fill="#2F58FF"/>
<path fill-rule="evenodd" clip-rule="evenodd" d="M113.808 59.8199V96.157C101.57 103.977 89.5227 104.355 77.5103 96.2334V59.7435C89.5971 51.6222 101.684 52.114 113.808 59.8199Z" fill="white"/>
<path fill-rule="evenodd" clip-rule="evenodd" d="M84.4971 93.7392C84.9497 93.5883 85.4023 93.5119 85.8196 93.5119C86.235 93.5119 86.6876 93.5883 87.1421 93.7392C86.9578 87.6338 86.8572 81.5261 86.8404 75.4179C86.8404 73.4174 86.8796 71.3778 86.9168 69.3754L96.2097 81.1233C100.25 86.2234 103.577 90.6043 106.067 94.3446H106.596C106.443 83.6295 106.518 72.9124 106.821 62.2004C106.429 62.3186 106.022 62.3819 105.612 62.3885C105.238 62.3885 104.821 62.3121 104.407 62.2004C104.556 66.3541 104.709 72.9276 104.709 81.8424C104.709 82.9768 104.67 84.3346 104.633 85.8844C98.9273 79.0092 92.5067 71.0761 85.7451 61.597H84.9908V66.507C85.0037 75.5867 84.839 84.6659 84.4971 93.7392Z" fill="#2F58FF"/>
<defs>
<filter id="filter0_d" x="0" y="0.000183105" width="192" height="192" filterUnits="userSpaceOnUse" color-interpolation-filters="sRGB">
<feFlood flood-opacity="0" result="BackgroundImageFix"/>
<feColorMatrix in="SourceAlpha" type="matrix" values="0 0 0 0 0 0 0 0 0 0 0 0 0 0 0 0 0 0 127 0"/>
<feOffset dy="18"/>
<feGaussianBlur stdDeviation="21"/>
<feColorMatrix type="matrix" values="0 0 0 0 0.184314 0 0 0 0 0.510588 0 0 0 0 1 0 0 0 0.4 0"/>
<feBlend mode="normal" in2="BackgroundImageFix" result="effect1_dropShadow"/>
<feBlend mode="normal" in="SourceGraphic" in2="effect1_dropShadow" result="shape"/>
</filter>
</defs>
</svg>
