<svg width="168" height="168" viewBox="0 0 168 168" fill="none" xmlns="http://www.w3.org/2000/svg">
<g filter="url(#filter0_d)">
<rect x="42" y="24.0002" width="84" height="84" rx="24" fill="#2F58FF"/>
</g>
<path d="M83.9997 45.0003C82.3259 45.0003 81.1171 45.9316 81.1171 46.956L82.047 57.9449C82.14 58.5968 82.9768 59.1555 83.9067 59.1555C84.9295 59.1555 85.6734 58.6899 85.7664 57.9449L86.6963 46.956C86.7892 45.9316 85.5804 45.0003 83.9997 45.0003ZM68.1921 53.7542C67.3552 53.7542 66.4254 54.4061 65.8674 55.4305C65.0306 56.8274 65.2165 58.3174 66.1464 58.8761L76.0959 63.5325C76.7468 63.7187 77.5837 63.3462 78.0486 62.5081C78.5135 61.6699 78.5135 60.7387 77.9556 60.273L68.936 54.0336C68.75 53.8473 68.471 53.7542 68.1921 53.7542ZM99.7143 53.7542C99.4353 53.7542 99.1564 53.8473 98.9704 53.9404L89.9508 60.273C89.3929 60.7387 89.3929 61.6699 89.8578 62.5081C90.3227 63.3462 91.1596 63.8118 91.8105 63.5325L101.76 58.8761C102.69 58.3174 102.876 56.8274 102.039 55.4305C101.481 54.4061 100.551 53.8473 99.7143 53.7542ZM76.4678 68.2819C76.3748 68.2819 76.1889 68.2819 76.0959 68.375L66.1464 72.9382C65.2165 73.497 65.0306 74.987 65.8674 76.3839C66.7043 77.7808 68.0991 78.4327 69.029 77.8739L78.0486 71.5413C78.6065 71.0757 78.6065 70.1444 78.1416 69.3063C77.6766 68.6544 77.0257 68.2819 76.4678 68.2819ZM91.4385 68.2819C90.8806 68.2819 90.2297 68.7475 89.8578 69.3994C89.3929 70.2376 89.3929 71.1688 89.9508 71.6345L98.9704 77.967C99.9002 78.5258 101.295 77.8739 102.132 76.477C102.969 75.0801 102.783 73.5901 101.853 73.0313L91.9035 68.375C91.7175 68.2819 91.6245 68.2819 91.4385 68.2819ZM83.9067 72.8451C82.9768 72.8451 82.14 73.3107 82.047 74.0557L81.1171 85.0447C81.1171 86.1622 82.4189 87.0003 83.9997 87.0003C85.5804 87.0003 86.8822 86.069 86.8822 85.0447L85.9524 74.0557C85.7664 73.3107 84.9295 72.8451 83.9067 72.8451Z" fill="white"/>
<defs>
<filter id="filter0_d" x="0" y="0.000244141" width="168" height="168" filterUnits="userSpaceOnUse" color-interpolation-filters="sRGB">
<feFlood flood-opacity="0" result="BackgroundImageFix"/>
<feColorMatrix in="SourceAlpha" type="matrix" values="0 0 0 0 0 0 0 0 0 0 0 0 0 0 0 0 0 0 127 0"/>
<feOffset dy="18"/>
<feGaussianBlur stdDeviation="21"/>
<feColorMatrix type="matrix" values="0 0 0 0 0.184314 0 0 0 0 0.510588 0 0 0 0 1 0 0 0 0.4 0"/>
<feBlend mode="normal" in2="BackgroundImageFix" result="effect1_dropShadow"/>
<feBlend mode="normal" in="SourceGraphic" in2="effect1_dropShadow" result="shape"/>
</filter>
</defs>
</svg>
