<svg width="469" height="340" viewBox="0 0 469 340" fill="none" xmlns="http://www.w3.org/2000/svg">
<g clip-path="url(#clip0)">
<path d="M233.3 153.8C275.771 153.8 310.2 119.371 310.2 76.9C310.2 34.4293 275.771 0 233.3 0C190.829 0 156.4 34.4293 156.4 76.9C156.4 119.371 190.829 153.8 233.3 153.8Z" fill="#E8F4FA"/>
<path d="M194.3 10.6001C194.8 10.8001 195.3 11.1001 195.8 11.5001C197.8 12.9001 198 22.7001 205.8 25.3001C219.6 30.0001 225.4 22.6001 231.4 28.6001C234.1 31.2001 229.2 38.1001 232.1 41.3001C235.6 45.1001 251.6 44.7001 249.5 53.8001C247.7 61.8001 234.6 59.7001 229.4 62.8001C211.2 73.5001 217.2 87.4001 203.5 88.7001C195.6 89.5001 192.7 82.9001 185.1 87.4001C180.4 90.2001 186.2 97.7001 178.5 101.6C168.8 106.6 166.2 96.9001 158.1 93.0001C157 87.8001 156.4 82.3001 156.4 76.7001C156.4 48.7001 171.6 24.0001 194.3 10.6001ZM310.2 76.9001C310.2 63.9001 307 51.7001 301.3 41.0001C296.5 43.9001 292.4 47.2001 289.1 53.1001C286.2 58.2001 283.9 64.6001 281.4 66.6001C279.1 68.5001 272.6 69.4001 271.4 73.4001C269.1 81.3001 281.3 83.7001 281.1 91.8001C281 96.4001 274 99.2001 273.5 103.9C273 108.3 278.6 111.2 279.6 115C281.4 121.3 280.5 131.5 286.9 132C301.3 118 310.2 98.5001 310.2 76.9001ZM233.3 153.8C240.5 153.8 247.6 152.8 254.2 150.9C253.2 148.5 250.7 146.8 248.2 146.1C244.9 145.2 241.5 145.6 238.1 145.5C234.1 145.4 229.9 144.5 226.7 142C224.8 140.5 223.3 138.4 221.5 136.8C219.6 135.2 217 134.1 214.7 135C212.3 135.9 211 138.7 208.7 139.9C207.7 140.4 206.5 140.6 205.4 141C202.8 141.7 200.3 143.3 198.8 145.6C198.8 145.6 198.8 145.6 198.8 145.7C209.2 150.8 220.9 153.8 233.3 153.8Z" fill="#2F58FF"/>
<path d="M180 22.1001C178.1 22.8001 176.3 23.6001 174.4 24.3001" stroke="#171A21" stroke-width="2" stroke-linecap="round" stroke-linejoin="round"/>
<path d="M163.9 29.6001C163.8 29.7001 163.6 29.8001 163.5 29.8001C124.5 52.4001 124.7 89.2001 164 111.8C203.2 134.4 266.6 134.4 305.6 111.8C341 91.2001 344.1 59.1001 315 36.4001" stroke="#171A21" stroke-width="2" stroke-linecap="round" stroke-linejoin="round" stroke-dasharray="11.76 11.76"/>
<path d="M310.2 33C308.6 31.9 306.9 30.9 305.1 29.8" stroke="#171A21" stroke-width="2" stroke-linecap="round" stroke-linejoin="round"/>
<path d="M305.1 29.8C303.4 28.8 301.6 27.9 299.8 27" stroke="#171A21" stroke-width="2" stroke-linecap="round" stroke-linejoin="round"/>
<path d="M292.1 23.4999C290.3 22.6999 288.4 21.9999 286.5 21.3999" stroke="#171A21" stroke-width="2" stroke-linecap="round" stroke-linejoin="round"/>
</g>
<defs>
<clipPath id="clip0">
<rect width="468.7" height="339.5" fill="white"/>
</clipPath>
</defs>
</svg>
