<?xml version="1.0" encoding="utf-8"?>
<!-- Generator: Adobe Illustrator 22.1.0, SVG Export Plug-In . SVG Version: 6.00 Build 0)  -->
<svg version="1.1" id="Слой_1" xmlns="http://www.w3.org/2000/svg" xmlns:xlink="http://www.w3.org/1999/xlink" x="0px" y="0px"
	 viewBox="0 0 469 340" style="enable-background:new 0 0 469 340;" xml:space="preserve">
<style type="text/css">
	.st0{fill:none;stroke:#171A21;stroke-width:2;stroke-linecap:round;stroke-linejoin:round;stroke-miterlimit:10;}
	.st1{fill:none;stroke:#171A21;stroke-width:2;stroke-linecap:round;stroke-linejoin:round;}
	.st2{fill:none;stroke:#171A21;stroke-width:2;stroke-linecap:round;stroke-linejoin:round;stroke-dasharray:11.96,11.96;}
	.st3{fill:#FFFFFF;}
	.st4{fill:#2F58FF;}
</style>
<g>
	<g>
		<path class="st0" d="M19,93.6l260.9,150.6"/>
		<path class="st0" d="M95.8,311.2L436.9,113"/>
		<path class="st1" d="M330.3,150.6c-1.7-1-3.5-2-5.3-2.9"/>
		<path class="st2" d="M314.3,142.6c-53.9-22.8-129.8-20.2-178.2,8c-53.5,31.1-53.2,81.5,0.6,112.5c53.8,31.1,140.8,31.1,194.3,0
			c49.9-29,53-74.8,9.4-106"/>
		<path class="st1" d="M335.5,153.7c-1.7-1.1-3.4-2.1-5.1-3.1"/>
		<path class="st3" d="M325.1,175.7c3.7-15.9-5-32.5-25.9-44.6c-35.8-20.8-94.1-20.8-130.2,0c-21.2,12.2-30,28.9-26.4,44.8
			c0,0-0.5,62.4,91.4,62.4S325.1,175.7,325.1,175.7z"/>
		<path class="st4" d="M141.9,170.6c0,0.5,0.1,0.9,0.1,1.4c0,0.4,0.1,0.8,0.2,1.2c0.1,0.5,0.1,0.9,0.2,1.4c0.1,0.4,0.2,0.8,0.3,1.2
			c0.1,0.4,0.2,0.9,0.3,1.3c0.1,0.4,0.2,0.8,0.4,1.2c0.1,0.4,0.3,0.9,0.4,1.3c0.1,0.4,0.3,0.8,0.4,1.2c0.2,0.5,0.4,0.9,0.6,1.4
			c0.2,0.4,0.4,0.8,0.5,1.2c0.2,0.5,0.5,0.9,0.7,1.4c0.3,0.5,0.5,1,0.8,1.5c0.1,0.1,0.1,0.2,0.2,0.3c0.4,0.7,0.9,1.4,1.4,2.1
			c0.1,0.1,0.2,0.3,0.3,0.4c0.5,0.7,1,1.4,1.5,2.1c0.1,0.1,0.2,0.3,0.3,0.4c0.5,0.6,1,1.2,1.5,1.8c0.1,0.2,0.3,0.3,0.4,0.5
			c0.6,0.7,1.3,1.3,1.9,2c0.1,0.1,0.2,0.2,0.4,0.4c0.5,0.5,1,1,1.6,1.5c0.4,0.4,0.9,0.8,1.3,1.2c0.4,0.4,0.8,0.7,1.3,1.1
			c0.5,0.4,1,0.8,1.4,1.1c0.5,0.3,0.9,0.7,1.4,1c0.5,0.4,1,0.7,1.6,1.1c0.5,0.3,1,0.7,1.5,1c0.5,0.4,1.1,0.7,1.7,1.1
			c0.7,0.4,1.4,0.9,2.1,1.3c1.4,0.8,2.8,1.6,4.2,2.3c0.4,0.2,0.8,0.4,1.3,0.6c1.1,0.6,2.3,1.1,3.4,1.6c0.4,0.2,0.8,0.4,1.2,0.5
			c1.5,0.7,3,1.3,4.6,1.9c0.3,0.1,0.6,0.2,0.8,0.3c1.3,0.5,2.7,1,4,1.4c0.6,0.2,1.1,0.4,1.7,0.5c0.7,0.2,1.5,0.5,2.2,0.7
			c0.6,0.2,1.3,0.4,1.9,0.5c0.8,0.2,1.5,0.4,2.3,0.6c0.6,0.2,1.3,0.3,1.9,0.5c0.8,0.2,1.6,0.4,2.3,0.5c0.6,0.1,1.3,0.3,2,0.4
			c0.8,0.2,1.6,0.3,2.4,0.5c0.6,0.1,1.2,0.2,1.9,0.3c1.7,0.3,3.5,0.6,5.2,0.8c0.2,0,0.5,0.1,0.7,0.1c1.5,0.2,3.1,0.4,4.6,0.5
			c0.6,0.1,1.2,0.1,1.8,0.2c1,0.1,2,0.2,3,0.2c0.6,0,1.2,0.1,1.9,0.1c1,0.1,2.1,0.1,3.1,0.2c0.6,0,1.2,0.1,1.7,0.1
			c0.9,0,1.8,0,2.7,0.1c0.6,0,1.3,0,1.9,0c1,0,1.9,0,2.9,0c0.6,0,1.1,0,1.7,0c0.9,0,1.8-0.1,2.6-0.1c0.6,0,1.2,0,1.8-0.1
			c1-0.1,1.9-0.1,2.9-0.2c0.5,0,1.1-0.1,1.6-0.1c1.1-0.1,2.3-0.2,3.4-0.3c0.3,0,0.7-0.1,1-0.1c1.5-0.2,2.9-0.4,4.4-0.6
			c0.2,0,0.5-0.1,0.7-0.1c1.3-0.2,2.5-0.4,3.8-0.6c0.5-0.1,1-0.2,1.5-0.3c1-0.2,1.9-0.3,2.9-0.5c0.5-0.1,1-0.2,1.5-0.3
			c1-0.2,2.1-0.5,3.1-0.7c0.6-0.1,1.1-0.3,1.7-0.4c0.9-0.2,1.9-0.5,2.8-0.7c0.5-0.1,1.1-0.3,1.6-0.4c1.5-0.4,2.9-0.9,4.3-1.3
			c0.3-0.1,0.5-0.2,0.8-0.2c1.6-0.6,3.3-1.2,4.9-1.8c0.7-0.3,1.3-0.5,1.9-0.8c0.5-0.2,1-0.4,1.5-0.6c0.7-0.3,1.4-0.6,2.1-1
			c0.5-0.2,0.9-0.4,1.4-0.6c0.8-0.4,1.5-0.8,2.3-1.1c0.4-0.2,0.8-0.4,1.1-0.6c1.1-0.6,2.2-1.2,3.3-1.8c18.2-10.5,27.2-24.2,27.2-38
			l0.3,38.4c0,13.7-9,27.5-27.2,38c-1.1,0.6-2.2,1.2-3.3,1.8c-0.4,0.2-0.8,0.4-1.1,0.6c-0.8,0.4-1.5,0.8-2.3,1.1
			c-0.5,0.2-0.9,0.4-1.4,0.6c-0.7,0.3-1.4,0.6-2.1,1c-0.5,0.2-1,0.4-1.5,0.6c-0.5,0.2-1,0.4-1.5,0.6c-0.2,0.1-0.3,0.1-0.5,0.2
			c-1.6,0.6-3.2,1.2-4.9,1.8c-0.3,0.1-0.5,0.2-0.8,0.2c-1.4,0.5-2.9,0.9-4.3,1.3c-0.2,0.1-0.5,0.2-0.7,0.2c-0.3,0.1-0.6,0.1-0.8,0.2
			c-0.9,0.3-1.9,0.5-2.8,0.7c-0.6,0.1-1.1,0.3-1.7,0.4c-1,0.2-2.1,0.5-3.1,0.7c-0.4,0.1-0.8,0.2-1.2,0.3c-0.1,0-0.2,0-0.3,0.1
			c-0.9,0.2-1.9,0.4-2.9,0.5c-0.5,0.1-1,0.2-1.5,0.3c-1.2,0.2-2.5,0.4-3.8,0.6c-0.2,0-0.4,0.1-0.7,0.1c-1.5,0.2-2.9,0.4-4.4,0.6
			c-0.3,0-0.7,0.1-1,0.1c-1.1,0.1-2.3,0.2-3.4,0.3H247c-0.5,0-1,0.1-1.5,0.1c-1,0.1-1.9,0.1-2.9,0.2c-0.6,0-1.2,0-1.8,0.1
			c-0.9,0-1.8,0.1-2.6,0.1c-0.1,0-0.1,0-0.2,0c-0.5,0-1,0-1.5,0c-1,0-1.9,0-2.9,0c-0.6,0-1.3,0-1.9,0c-0.9,0-1.8,0-2.7-0.1
			c-0.2,0-0.3,0-0.5,0c-0.4,0-0.8,0-1.2-0.1c-1,0-2.1-0.1-3.1-0.2c-0.6,0-1.2-0.1-1.9-0.1c-1-0.1-2-0.2-3-0.2c-0.3,0-0.7-0.1-1-0.1
			c-0.2,0-0.5-0.1-0.7-0.1c-1.5-0.2-3.1-0.3-4.6-0.5c-0.2,0-0.5-0.1-0.7-0.1c-1.7-0.2-3.5-0.5-5.2-0.8c-0.2,0-0.3,0-0.5-0.1
			c-0.5-0.1-0.9-0.2-1.4-0.3c-0.8-0.2-1.6-0.3-2.4-0.5c-0.7-0.1-1.3-0.3-2-0.4c-0.8-0.2-1.6-0.4-2.3-0.5c-0.6-0.2-1.3-0.3-1.9-0.5
			c-0.8-0.2-1.5-0.4-2.3-0.6c-0.6-0.2-1.3-0.4-1.9-0.5c-0.8-0.2-1.5-0.4-2.2-0.7c-0.3-0.1-0.7-0.2-1-0.3c-0.2-0.1-0.5-0.2-0.7-0.2
			c-1.4-0.4-2.7-0.9-4-1.4c-0.3-0.1-0.6-0.2-0.8-0.3c-1.6-0.6-3.1-1.2-4.6-1.9c-0.4-0.2-0.8-0.3-1.2-0.5c-1.2-0.5-2.3-1.1-3.4-1.6
			c-0.4-0.2-0.8-0.4-1.3-0.6c-1.4-0.7-2.9-1.5-4.2-2.3c-0.4-0.2-0.8-0.4-1.1-0.7c-0.3-0.2-0.7-0.4-1-0.6c-0.6-0.4-1.1-0.7-1.7-1.1
			c-0.5-0.3-1-0.7-1.5-1c-0.5-0.4-1.1-0.7-1.6-1.1c-0.5-0.3-0.9-0.7-1.4-1c-0.5-0.4-1-0.7-1.4-1.1c-0.4-0.3-0.9-0.7-1.3-1.1
			c-0.5-0.4-0.9-0.8-1.3-1.2c-0.2-0.2-0.4-0.3-0.5-0.5c-0.4-0.3-0.7-0.7-1-1c-0.1-0.1-0.2-0.2-0.4-0.4c-0.7-0.7-1.3-1.3-1.9-2
			c-0.1-0.2-0.3-0.3-0.4-0.5c-0.5-0.6-1-1.2-1.5-1.8c-0.1-0.1-0.2-0.3-0.3-0.4c0-0.1-0.1-0.1-0.1-0.2c-0.5-0.6-0.9-1.3-1.4-1.9
			c-0.1-0.1-0.2-0.3-0.3-0.4c-0.5-0.7-0.9-1.4-1.4-2.1c-0.1-0.1-0.1-0.2-0.2-0.3c-0.2-0.3-0.3-0.5-0.5-0.8c-0.1-0.2-0.2-0.4-0.3-0.7
			c-0.2-0.5-0.5-0.9-0.7-1.4c-0.2-0.4-0.4-0.8-0.5-1.2c-0.2-0.5-0.4-0.9-0.6-1.4c-0.1-0.2-0.2-0.4-0.3-0.6c-0.1-0.2-0.1-0.4-0.2-0.6
			c-0.2-0.4-0.3-0.9-0.4-1.3c-0.1-0.4-0.2-0.8-0.4-1.2c-0.1-0.4-0.2-0.9-0.3-1.3c-0.1-0.2-0.1-0.5-0.2-0.7c0-0.2,0-0.3-0.1-0.5
			c-0.1-0.5-0.2-0.9-0.2-1.4c-0.1-0.4-0.1-0.8-0.2-1.2c0-0.5-0.1-0.9-0.1-1.4c0-0.3-0.1-0.5-0.1-0.8s0-0.5,0-0.8l-0.3-38.4
			C141.9,169.6,141.9,170.1,141.9,170.6z"/>
		<path class="st0" d="M325.1,175.7c3.7-15.9-5-32.5-25.9-44.6c-35.8-20.8-94.1-20.8-130.2,0c-21.2,12.2-30,28.9-26.4,44.8"/>
	</g>
</g>
</svg>
