<svg width="469" height="340" viewBox="0 0 469 340" fill="none" xmlns="http://www.w3.org/2000/svg">
<g clip-path="url(#clip0)">
<path d="M467.2 116.4C469.6 105.9 463.9 94.9 450.1 86.9C426.4 73.1 387.9 73.1 364 86.9C350 95 344.2 106 346.5 116.5C346.5 116.5 346.2 157.8 406.9 157.8C467.6 157.8 467.2 116.4 467.2 116.4Z" fill="white"/>
<path d="M346 113.1C346 113.4 346 113.7 346.1 114C346.1 114.3 346.2 114.5 346.2 114.8C346.2 115.1 346.3 115.4 346.3 115.7C346.3 116 346.4 116.2 346.5 116.5C346.6 116.8 346.6 117.1 346.7 117.4C346.8 117.7 346.9 117.9 346.9 118.2C347 118.5 347.1 118.8 347.2 119.1C347.3 119.4 347.4 119.6 347.5 119.9C347.6 120.2 347.8 120.5 347.9 120.8C348 121.1 348.1 121.3 348.3 121.6C348.4 121.9 348.6 122.2 348.8 122.5C349 122.8 349.1 123.1 349.3 123.5C349.3 123.6 349.4 123.7 349.4 123.7C349.7 124.2 350 124.6 350.3 125.1C350.4 125.2 350.4 125.3 350.5 125.4C350.8 125.9 351.2 126.3 351.5 126.8C351.6 126.9 351.6 127 351.7 127.1C352 127.5 352.3 127.9 352.7 128.3C352.8 128.4 352.9 128.5 353 128.6C353.4 129 353.8 129.5 354.3 129.9C354.4 130 354.5 130.1 354.5 130.1C354.8 130.4 355.2 130.7 355.5 131.1C355.8 131.4 356.1 131.6 356.4 131.9C356.7 132.1 357 132.4 357.2 132.6C357.5 132.9 357.8 133.1 358.2 133.3C358.5 133.5 358.8 133.8 359.1 134C359.4 134.2 359.8 134.5 360.1 134.7C360.4 134.9 360.7 135.1 361.1 135.4C361.5 135.6 361.8 135.9 362.2 136.1C362.7 136.4 363.1 136.7 363.6 137C364.5 137.5 365.4 138 366.4 138.5C366.7 138.6 367 138.8 367.2 138.9C367.9 139.3 368.7 139.6 369.5 140C369.8 140.1 370 140.2 370.3 140.3C371.3 140.7 372.3 141.1 373.3 141.5C373.5 141.6 373.7 141.6 373.8 141.7C374.7 142 375.6 142.3 376.4 142.6C376.8 142.7 377.1 142.8 377.5 143C378 143.2 378.5 143.3 379 143.5C379.4 143.6 379.8 143.7 380.3 143.9C380.8 144 381.3 144.2 381.8 144.3C382.2 144.4 382.6 144.5 383.1 144.6C383.6 144.7 384.1 144.8 384.7 145C385.1 145.1 385.6 145.2 386 145.3C386.5 145.4 387.1 145.5 387.6 145.6C388 145.7 388.4 145.8 388.8 145.8C389.9 146 391.1 146.2 392.2 146.3C392.4 146.3 392.5 146.3 392.7 146.4C393.7 146.5 394.7 146.7 395.7 146.8C396.1 146.8 396.5 146.9 396.9 146.9C397.6 147 398.2 147 398.9 147.1C399.3 147.1 399.7 147.2 400.1 147.2C400.8 147.2 401.5 147.3 402.1 147.3C402.5 147.3 402.9 147.3 403.3 147.3C403.9 147.3 404.5 147.3 405.1 147.3C405.5 147.3 405.9 147.3 406.3 147.3C406.9 147.3 407.6 147.3 408.2 147.3C408.6 147.3 408.9 147.3 409.3 147.3C409.9 147.3 410.5 147.3 411 147.2C411.4 147.2 411.8 147.2 412.2 147.1C412.8 147.1 413.5 147 414.1 147C414.5 147 414.8 147 415.2 146.9C416 146.8 416.7 146.8 417.5 146.7C417.7 146.7 418 146.7 418.2 146.6C419.2 146.5 420.1 146.4 421.1 146.2C421.3 146.2 421.4 146.2 421.6 146.1C422.4 146 423.3 145.9 424.1 145.7C424.4 145.6 424.8 145.6 425.1 145.5C425.7 145.4 426.4 145.3 427 145.1C427.3 145 427.7 145 428 144.9C428.7 144.8 429.4 144.6 430 144.4C430.4 144.3 430.8 144.2 431.1 144.1C431.7 143.9 432.3 143.8 432.9 143.6C433.2 143.5 433.6 143.4 433.9 143.3C434.9 143 435.8 142.7 436.8 142.4C437 142.3 437.1 142.3 437.3 142.2C438.4 141.8 439.5 141.4 440.5 141C440.9 140.8 441.4 140.7 441.8 140.5C442.1 140.4 442.5 140.2 442.8 140.1C443.3 139.9 443.7 139.7 444.2 139.5C444.5 139.4 444.8 139.2 445.1 139.1C445.6 138.9 446.1 138.6 446.6 138.3C446.8 138.2 447.1 138.1 447.3 137.9C448 137.5 448.8 137.1 449.5 136.7C461.5 129.8 467.5 120.7 467.5 111.6L467.7 130C467.7 139.1 461.7 148.2 449.7 155.1C449 155.5 448.2 155.9 447.5 156.3C447.3 156.4 447 156.5 446.8 156.7C446.3 157 445.8 157.2 445.3 157.5C445 157.6 444.7 157.8 444.4 157.9C443.9 158.1 443.5 158.3 443 158.5C442.7 158.6 442.3 158.8 442 158.9C441.7 159 441.4 159.2 441 159.3C440.9 159.3 440.8 159.4 440.7 159.4C439.6 159.8 438.6 160.2 437.5 160.6C437.3 160.7 437.2 160.7 437 160.8C436.1 161.1 435.1 161.4 434.1 161.7C433.9 161.7 433.8 161.8 433.6 161.8C433.4 161.9 433.2 161.9 433 161.9C432.4 162.1 431.8 162.2 431.2 162.4C430.8 162.5 430.4 162.6 430.1 162.7C429.4 162.9 428.7 163 428.1 163.2C427.8 163.3 427.6 163.3 427.3 163.4C427.2 163.4 427.2 163.4 427.1 163.4C426.5 163.5 425.8 163.6 425.2 163.8C424.9 163.9 424.5 163.9 424.2 164C423.4 164.1 422.5 164.3 421.7 164.4C421.6 164.4 421.4 164.4 421.3 164.5C420.3 164.6 419.4 164.8 418.4 164.9C418.2 164.9 417.9 164.9 417.7 165C417 165.1 416.2 165.2 415.4 165.2C415.4 165.2 415.4 165.2 415.3 165.2C415 165.2 414.6 165.2 414.3 165.3C413.7 165.3 413 165.4 412.4 165.4C412 165.4 411.6 165.4 411.2 165.5C410.6 165.5 410 165.6 409.5 165.6H409.4C409.1 165.6 408.7 165.6 408.4 165.6C407.8 165.6 407.1 165.6 406.5 165.6C406.1 165.6 405.7 165.6 405.3 165.6C404.7 165.6 404.1 165.6 403.5 165.6C403.4 165.6 403.3 165.6 403.2 165.6C402.9 165.6 402.7 165.6 402.4 165.6C401.7 165.6 401 165.5 400.4 165.5C400 165.5 399.6 165.4 399.2 165.4C398.5 165.4 397.9 165.3 397.2 165.2C397 165.2 396.7 165.2 396.5 165.1C396.3 165.1 396.2 165.1 396 165C395 164.9 394 164.8 393 164.6C392.8 164.6 392.7 164.6 392.5 164.5C391.3 164.3 390.2 164.2 389.1 164C389 164 388.9 164 388.8 163.9C388.5 163.8 388.2 163.8 387.9 163.7C387.4 163.6 386.8 163.5 386.3 163.4C385.9 163.3 385.4 163.2 385 163.1C384.5 163 384 162.9 383.4 162.7C383 162.6 382.5 162.5 382.1 162.4C381.6 162.3 381.1 162.1 380.6 162C380.2 161.9 379.8 161.8 379.3 161.6C378.8 161.5 378.3 161.3 377.8 161.1C377.6 161 377.4 161 377.2 160.9C377 160.9 376.9 160.8 376.7 160.7C375.8 160.4 374.9 160.1 374.1 159.8C373.9 159.7 373.7 159.7 373.6 159.6C372.6 159.2 371.6 158.8 370.6 158.4C370.3 158.3 370.1 158.2 369.8 158.1C369 157.8 368.3 157.4 367.5 157C367.2 156.9 366.9 156.7 366.7 156.6C365.7 156.1 364.8 155.6 363.9 155.1C363.6 155 363.4 154.8 363.2 154.7C363 154.6 362.8 154.4 362.5 154.3C362.1 154.1 361.8 153.8 361.4 153.6C361.1 153.4 360.7 153.2 360.4 152.9C360.1 152.7 359.7 152.4 359.4 152.2C359.1 152 358.8 151.8 358.5 151.5C358.2 151.3 357.9 151 357.5 150.8C357.2 150.6 356.9 150.3 356.7 150.1C356.4 149.8 356.1 149.6 355.8 149.3C355.7 149.2 355.6 149.1 355.4 149C355.2 148.8 354.9 148.6 354.7 148.3C354.6 148.2 354.5 148.1 354.5 148.1C354.1 147.7 353.6 147.2 353.2 146.8C353.1 146.7 353 146.6 352.9 146.5C352.6 146.1 352.2 145.7 351.9 145.3C351.8 145.2 351.8 145.1 351.7 145L351.6 144.9C351.3 144.5 351 144.1 350.7 143.7C350.6 143.6 350.6 143.5 350.5 143.4C350.2 142.9 349.9 142.5 349.6 142C349.6 141.9 349.5 141.8 349.5 141.8C349.4 141.6 349.3 141.5 349.2 141.3C349.1 141.2 349.1 141 349 140.9C348.8 140.6 348.7 140.3 348.5 140C348.4 139.7 348.3 139.5 348.1 139.2C348 138.9 347.8 138.6 347.7 138.3C347.6 138.2 347.6 138 347.5 137.9C347.5 137.8 347.4 137.7 347.4 137.5C347.3 137.2 347.2 136.9 347.1 136.6C347 136.3 346.9 136.1 346.9 135.8C346.8 135.5 346.8 135.2 346.7 134.9C346.7 134.7 346.6 134.6 346.6 134.4C346.6 134.3 346.6 134.2 346.5 134.1C346.4 133.8 346.4 133.5 346.4 133.2C346.4 132.9 346.3 132.7 346.3 132.4C346.3 132.1 346.3 131.8 346.2 131.5C346.2 131.3 346.2 131.1 346.2 131C346.2 130.8 346.2 130.6 346.2 130.5L346 112C346 112.4 346 112.7 346 113.1Z" fill="#171A21"/>
<path d="M467.2 116.4C469.6 105.9 463.9 94.9 450.1 86.9C426.4 73.1 387.9 73.1 364 86.9C350 95 344.2 106 346.5 116.5" stroke="#171A21" stroke-width="2" stroke-miterlimit="10" stroke-linecap="round" stroke-linejoin="round"/>
<path d="M122.2 106.4C124.6 95.9 118.9 84.9 105.1 76.9C81.4 63.1 42.9 63.1 19 76.9C5.00003 85 -0.799973 96 1.50003 106.5C1.50003 106.5 1.20003 147.8 61.9 147.8C122.6 147.8 122.2 106.4 122.2 106.4Z" fill="white"/>
<path d="M1 103.1C1 103.4 1 103.7 1.1 104C1.1 104.3 1.2 104.5 1.2 104.8C1.2 105.1 1.3 105.4 1.3 105.7C1.3 106 1.4 106.2 1.5 106.5C1.6 106.8 1.6 107.1 1.7 107.4C1.8 107.7 1.9 107.9 1.9 108.2C2 108.5 2.1 108.8 2.2 109.1C2.3 109.4 2.4 109.6 2.5 109.9C2.6 110.2 2.8 110.5 2.9 110.8C3 111.1 3.1 111.3 3.3 111.6C3.4 111.9 3.6 112.2 3.8 112.5C4 112.8 4.1 113.1 4.3 113.5C4.3 113.6 4.4 113.7 4.4 113.7C4.7 114.2 5 114.6 5.3 115.1C5.4 115.2 5.4 115.3 5.5 115.4C5.8 115.9 6.2 116.3 6.5 116.8C6.6 116.9 6.6 117 6.7 117.1C7 117.5 7.3 117.9 7.7 118.3C7.8 118.4 7.9 118.5 8 118.6C8.4 119 8.8 119.5 9.3 119.9C9.4 120 9.5 120.1 9.5 120.1C9.8 120.4 10.2 120.7 10.5 121.1C10.8 121.4 11.1 121.6 11.4 121.9C11.7 122.1 12 122.4 12.2 122.6C12.5 122.9 12.8 123.1 13.2 123.3C13.5 123.5 13.8 123.8 14.1 124C14.4 124.2 14.8 124.5 15.1 124.7C15.4 124.9 15.7 125.1 16.1 125.4C16.5 125.6 16.8 125.9 17.2 126.1C17.7 126.4 18.1 126.7 18.6 127C19.5 127.5 20.4 128 21.4 128.5C21.7 128.6 22 128.8 22.2 128.9C22.9 129.3 23.7 129.6 24.5 130C24.8 130.1 25 130.2 25.3 130.3C26.3 130.7 27.3 131.1 28.3 131.5C28.5 131.6 28.7 131.6 28.8 131.7C29.7 132 30.6 132.3 31.4 132.6C31.8 132.7 32.1 132.8 32.5 133C33 133.2 33.5 133.3 34 133.5C34.4 133.6 34.8 133.7 35.3 133.9C35.8 134 36.3 134.2 36.8 134.3C37.2 134.4 37.6 134.5 38.1 134.6C38.6 134.7 39.1 134.8 39.7 135C40.1 135.1 40.6 135.2 41 135.3C41.5 135.4 42.1 135.5 42.6 135.6C43 135.7 43.4 135.8 43.8 135.8C44.9 136 46.1 136.2 47.2 136.3C47.4 136.3 47.5 136.3 47.7 136.4C48.7 136.5 49.7 136.7 50.7 136.8C51.1 136.8 51.5 136.9 51.9 136.9C52.6 137 53.2 137 53.9 137.1C54.3 137.1 54.7 137.2 55.1 137.2C55.8 137.2 56.5 137.3 57.1 137.3C57.5 137.3 57.9 137.3 58.3 137.3C58.9 137.3 59.5 137.3 60.1 137.3C60.5 137.3 60.9 137.3 61.3 137.3C61.9 137.3 62.6 137.3 63.2 137.3C63.6 137.3 63.9 137.3 64.3 137.3C64.9 137.3 65.5 137.3 66 137.2C66.4 137.2 66.8 137.2 67.2 137.1C67.8 137.1 68.5 137 69.1 137C69.5 137 69.8 137 70.2 136.9C71 136.8 71.7 136.8 72.5 136.7C72.7 136.7 73 136.7 73.2 136.6C74.2 136.5 75.1 136.4 76.1 136.2C76.3 136.2 76.4 136.2 76.6 136.1C77.4 136 78.3 135.9 79.1 135.7C79.4 135.6 79.8 135.6 80.1 135.5C80.7 135.4 81.4 135.3 82 135.1C82.3 135 82.7 135 83 134.9C83.7 134.8 84.4 134.6 85 134.4C85.4 134.3 85.8 134.2 86.1 134.1C86.7 133.9 87.3 133.8 87.9 133.6C88.2 133.5 88.6 133.4 88.9 133.3C89.9 133 90.8 132.7 91.8 132.4C92 132.3 92.1 132.3 92.3 132.2C93.4 131.8 94.5 131.4 95.5 131C95.9 130.8 96.4 130.7 96.8 130.5C97.1 130.4 97.5 130.2 97.8 130.1C98.3 129.9 98.7 129.7 99.2 129.5C99.5 129.4 99.8 129.2 100.1 129.1C100.6 128.9 101.1 128.6 101.6 128.3C101.8 128.2 102.1 128.1 102.3 127.9C103 127.5 103.8 127.1 104.5 126.7C116.5 119.8 122.5 110.7 122.5 101.6L122.7 120C122.7 129.1 116.7 138.2 104.7 145.1C104 145.5 103.2 145.9 102.5 146.3C102.3 146.4 102 146.5 101.8 146.7C101.3 147 100.8 147.2 100.3 147.5C100 147.6 99.7 147.8 99.4 147.9C98.9 148.1 98.5 148.3 98 148.5C97.7 148.6 97.3 148.8 97 148.9C96.7 149 96.4 149.2 96 149.3C95.9 149.3 95.8 149.4 95.7 149.4C94.6 149.8 93.6 150.2 92.5 150.6C92.3 150.7 92.2 150.7 92 150.8C91.1 151.1 90.1 151.4 89.1 151.7C88.9 151.7 88.8 151.8 88.6 151.8C88.4 151.9 88.2 151.9 88 151.9C87.4 152.1 86.8 152.2 86.2 152.4C85.8 152.5 85.4 152.6 85.1 152.7C84.4 152.9 83.7 153 83.1 153.2C82.8 153.3 82.6 153.3 82.3 153.4C82.2 153.4 82.2 153.4 82.1 153.4C81.5 153.5 80.8 153.6 80.2 153.8C79.9 153.9 79.5 153.9 79.2 154C78.4 154.1 77.5 154.3 76.7 154.4C76.6 154.4 76.4 154.4 76.3 154.5C75.3 154.6 74.4 154.8 73.4 154.9C73.2 154.9 72.9 154.9 72.7 155C72 155.1 71.2 155.2 70.4 155.2C70.4 155.2 70.4 155.2 70.3 155.2C70 155.2 69.6 155.2 69.3 155.3C68.7 155.3 68 155.4 67.4 155.4C67 155.4 66.6 155.4 66.2 155.5C65.6 155.5 65 155.6 64.5 155.6H64.4C64.1 155.6 63.7 155.6 63.4 155.6C62.8 155.6 62.1 155.6 61.5 155.6C61.1 155.6 60.7 155.6 60.3 155.6C59.7 155.6 59.1 155.6 58.5 155.6C58.4 155.6 58.3 155.6 58.2 155.6C57.9 155.6 57.7 155.6 57.4 155.6C56.7 155.6 56 155.5 55.4 155.5C55 155.5 54.6 155.4 54.2 155.4C53.5 155.4 52.9 155.3 52.2 155.2C52 155.2 51.7 155.2 51.5 155.1C51.3 155.1 51.2 155.1 51 155C50 154.9 49 154.8 48 154.6C47.8 154.6 47.7 154.6 47.5 154.5C46.3 154.3 45.2 154.2 44.1 154C44 154 43.9 154 43.8 153.9C43.5 153.8 43.2 153.8 42.9 153.7C42.4 153.6 41.8 153.5 41.3 153.4C40.9 153.3 40.4 153.2 40 153.1C39.5 153 39 152.9 38.4 152.7C38 152.6 37.5 152.5 37.1 152.4C36.6 152.3 36.1 152.1 35.6 152C35.2 151.9 34.8 151.8 34.3 151.6C33.8 151.5 33.3 151.3 32.8 151.1C32.6 151 32.4 151 32.2 150.9C32 150.9 31.9 150.8 31.7 150.7C30.8 150.4 29.9 150.1 29.1 149.8C28.9 149.7 28.7 149.7 28.6 149.6C27.6 149.2 26.6 148.8 25.6 148.4C25.3 148.3 25.1 148.2 24.8 148.1C24 147.8 23.3 147.4 22.5 147C22.2 146.9 21.9 146.7 21.7 146.6C20.7 146.1 19.8 145.6 18.9 145.1C18.6 145 18.4 144.8 18.2 144.7C18 144.6 17.8 144.4 17.5 144.3C17.1 144.1 16.8 143.8 16.4 143.6C16.1 143.4 15.7 143.2 15.4 142.9C15.1 142.7 14.7 142.4 14.4 142.2C14.1 142 13.8 141.8 13.5 141.5C13.2 141.3 12.9 141 12.5 140.8C12.2 140.6 11.9 140.3 11.7 140.1C11.4 139.8 11.1 139.6 10.8 139.3C10.7 139.2 10.6 139.1 10.4 139C10.2 138.8 9.9 138.6 9.7 138.3C9.6 138.2 9.5 138.1 9.5 138.1C9.1 137.7 8.6 137.2 8.2 136.8C8.1 136.7 8 136.6 7.9 136.5C7.6 136.1 7.2 135.7 6.9 135.3C6.8 135.2 6.8 135.1 6.7 135L6.6 134.9C6.3 134.5 6 134.1 5.7 133.7C5.6 133.6 5.6 133.5 5.5 133.4C5.2 132.9 4.9 132.5 4.6 132C4.6 131.9 4.5 131.8 4.5 131.8C4.4 131.6 4.3 131.5 4.2 131.3C4.1 131.2 4 131 4 130.9C3.8 130.6 3.7 130.3 3.5 130C3.4 129.7 3.3 129.5 3.1 129.2C3 128.9 2.8 128.6 2.7 128.3C2.6 128.2 2.6 128 2.5 127.9C2.5 127.8 2.4 127.7 2.4 127.5C2.3 127.2 2.2 126.9 2.1 126.6C2 126.3 1.9 126.1 1.9 125.8C1.8 125.5 1.8 125.2 1.7 124.9C1.7 124.7 1.6 124.6 1.6 124.4C1.6 124.3 1.6 124.2 1.5 124.1C1.4 123.8 1.4 123.5 1.4 123.2C1.4 122.9 1.3 122.7 1.3 122.4C1.3 122.1 1.3 121.8 1.2 121.5C1.2 121.3 1.2 121.1 1.2 121C1.2 120.8 1.2 120.6 1.2 120.5L1 102C1 102.4 1 102.8 1 103.1Z" fill="#171A21"/>
<path d="M122.2 106.4C124.6 95.9 118.9 84.9 105.1 76.9C81.4 63.1 42.9 63.1 19 76.9C5.00003 85 -0.799973 96 1.50003 106.5" stroke="#171A21" stroke-width="2" stroke-miterlimit="10" stroke-linecap="round" stroke-linejoin="round"/>
<path d="M178.4 290.4C180.8 279.9 175.1 268.9 161.3 260.9C137.6 247.1 99.1 247.1 75.2 260.9C61.2 269 55.4 280 57.7 290.5C57.7 290.5 57.4 331.8 118.1 331.8C178.8 331.8 178.4 290.4 178.4 290.4Z" fill="white"/>
<path d="M57.2 287.1C57.2 287.4 57.1999 287.7 57.2999 288C57.2999 288.3 57.4 288.5 57.4 288.8C57.4 289.1 57.5 289.4 57.5 289.7C57.5 290 57.6 290.2 57.7 290.5C57.8 290.8 57.8 291.1 57.9 291.4C58 291.7 58.0999 291.9 58.0999 292.2C58.1999 292.5 58.3 292.8 58.4 293.1C58.5 293.4 58.6 293.6 58.7 293.9C58.8 294.2 58.9999 294.5 59.0999 294.8C59.1999 295.1 59.3 295.3 59.5 295.6C59.6 295.9 59.8 296.2 60 296.5C60.2 296.8 60.3 297.1 60.5 297.5C60.5 297.6 60.5999 297.7 60.5999 297.7C60.8999 298.2 61.2 298.6 61.5 299.1C61.6 299.2 61.6 299.3 61.7 299.4C62 299.9 62.4 300.3 62.7 300.8C62.8 300.9 62.8 301 62.9 301.1C63.2 301.5 63.5 301.9 63.9 302.3C64 302.4 64.0999 302.5 64.1999 302.6C64.5999 303 65 303.5 65.5 303.9C65.6 304 65.6999 304.1 65.6999 304.1C65.9999 304.4 66.3999 304.7 66.6999 305.1C66.9999 305.4 67.2999 305.6 67.5999 305.9C67.8999 306.1 68.2 306.4 68.4 306.6C68.7 306.9 69 307.1 69.4 307.3C69.7 307.5 70 307.8 70.3 308C70.6 308.2 71 308.5 71.3 308.7C71.6 308.9 71.9 309.1 72.3 309.4C72.7 309.6 73 309.9 73.4 310.1C73.9 310.4 74.3 310.7 74.8 311C75.7 311.5 76.5999 312 77.5999 312.5C77.8999 312.6 78.2 312.8 78.4 312.9C79.1 313.3 79.8999 313.6 80.6999 314C80.9999 314.1 81.2 314.2 81.5 314.3C82.5 314.7 83.5 315.1 84.5 315.5C84.7 315.6 84.9 315.6 85 315.7C85.9 316 86.7999 316.3 87.5999 316.6C87.9999 316.7 88.2999 316.8 88.6999 317C89.1999 317.2 89.6999 317.3 90.1999 317.5C90.5999 317.6 91 317.7 91.5 317.9C92 318 92.5 318.2 93 318.3C93.4 318.4 93.8 318.5 94.3 318.6C94.8 318.7 95.3 318.8 95.9 319C96.3 319.1 96.7999 319.2 97.1999 319.3C97.6999 319.4 98.3 319.5 98.8 319.6C99.2 319.7 99.5999 319.8 100 319.8C101.1 320 102.3 320.2 103.4 320.3C103.6 320.3 103.7 320.3 103.9 320.4C104.9 320.5 105.9 320.7 106.9 320.8C107.3 320.8 107.7 320.9 108.1 320.9C108.8 321 109.4 321 110.1 321.1C110.5 321.1 110.9 321.2 111.3 321.2C112 321.2 112.7 321.3 113.3 321.3C113.7 321.3 114.1 321.3 114.5 321.3C115.1 321.3 115.7 321.3 116.3 321.3C116.7 321.3 117.1 321.3 117.5 321.3C118.1 321.3 118.8 321.3 119.4 321.3C119.8 321.3 120.1 321.3 120.5 321.3C121.1 321.3 121.7 321.3 122.2 321.2C122.6 321.2 123 321.2 123.4 321.1C124 321.1 124.7 321 125.3 321C125.7 321 126 321 126.4 320.9C127.2 320.8 127.9 320.8 128.7 320.7C128.9 320.7 129.2 320.7 129.4 320.6C130.4 320.5 131.3 320.4 132.3 320.2C132.5 320.2 132.6 320.2 132.8 320.1C133.6 320 134.5 319.9 135.3 319.7C135.6 319.6 136 319.6 136.3 319.5C136.9 319.4 137.6 319.3 138.2 319.1C138.5 319 138.9 319 139.2 318.9C139.9 318.8 140.6 318.6 141.2 318.4C141.6 318.3 142 318.2 142.3 318.1C142.9 317.9 143.5 317.8 144.1 317.6C144.4 317.5 144.8 317.4 145.1 317.3C146.1 317 147 316.7 148 316.4C148.2 316.3 148.3 316.3 148.5 316.2C149.6 315.8 150.7 315.4 151.7 315C152.1 314.8 152.6 314.7 153 314.5C153.3 314.4 153.7 314.2 154 314.1C154.5 313.9 154.9 313.7 155.4 313.5C155.7 313.4 156 313.2 156.3 313.1C156.8 312.9 157.3 312.6 157.8 312.3C158 312.2 158.3 312.1 158.5 311.9C159.2 311.5 160 311.1 160.7 310.7C172.7 303.8 178.7 294.7 178.7 285.6L178.9 304C178.9 313.1 172.9 322.2 160.9 329.1C160.2 329.5 159.4 329.9 158.7 330.3C158.5 330.4 158.2 330.5 158 330.7C157.5 331 157 331.2 156.5 331.5C156.2 331.6 155.9 331.8 155.6 331.9C155.1 332.1 154.7 332.3 154.2 332.5C153.9 332.6 153.5 332.8 153.2 332.9C152.9 333 152.6 333.2 152.2 333.3C152.1 333.3 152 333.4 151.9 333.4C150.8 333.8 149.8 334.2 148.7 334.6C148.5 334.7 148.4 334.7 148.2 334.8C147.3 335.1 146.3 335.4 145.3 335.7C145.1 335.7 145 335.8 144.8 335.8C144.6 335.9 144.4 335.9 144.2 335.9C143.6 336.1 143 336.2 142.4 336.4C142 336.5 141.6 336.6 141.3 336.7C140.6 336.9 139.9 337 139.3 337.2C139 337.3 138.8 337.3 138.5 337.4C138.4 337.4 138.4 337.4 138.3 337.4C137.7 337.5 137 337.6 136.4 337.8C136.1 337.9 135.7 337.9 135.4 338C134.6 338.1 133.7 338.3 132.9 338.4C132.8 338.4 132.6 338.4 132.5 338.5C131.5 338.6 130.6 338.8 129.6 338.9C129.4 338.9 129.1 338.9 128.9 339C128.2 339.1 127.4 339.2 126.6 339.2C126.6 339.2 126.6 339.2 126.5 339.2C126.2 339.2 125.8 339.2 125.5 339.3C124.9 339.3 124.2 339.4 123.6 339.4C123.2 339.4 122.8 339.4 122.4 339.5C121.8 339.5 121.2 339.6 120.7 339.6H120.6C120.3 339.6 119.9 339.6 119.6 339.6C119 339.6 118.3 339.6 117.7 339.6C117.3 339.6 116.9 339.6 116.5 339.6C115.9 339.6 115.3 339.6 114.7 339.6C114.6 339.6 114.5 339.6 114.4 339.6C114.1 339.6 113.9 339.6 113.6 339.6C112.9 339.6 112.2 339.5 111.6 339.5C111.2 339.5 110.8 339.4 110.4 339.4C109.7 339.4 109.1 339.3 108.4 339.2C108.2 339.2 107.9 339.2 107.7 339.1C107.5 339.1 107.4 339.1 107.2 339C106.2 338.9 105.2 338.8 104.2 338.6C104 338.6 103.9 338.6 103.7 338.5C102.5 338.3 101.4 338.2 100.3 338C100.2 338 100.1 338 100 337.9C99.7 337.8 99.3999 337.8 99.0999 337.7C98.5999 337.6 98 337.5 97.5 337.4C97.0999 337.3 96.5999 337.2 96.1999 337.1C95.6999 337 95.1999 336.9 94.5999 336.7C94.1999 336.6 93.7 336.5 93.3 336.4C92.8 336.3 92.3 336.1 91.8 336C91.4 335.9 91 335.8 90.5 335.6C90 335.5 89.5 335.3 89 335.1C88.7999 335 88.6 335 88.4 334.9C88.2 334.9 88.1 334.8 87.9 334.7C87 334.4 86.1 334.1 85.3 333.8C85.1 333.7 84.9 333.7 84.8 333.6C83.8 333.2 82.8 332.8 81.8 332.4C81.5 332.3 81.2999 332.2 81 332.1C80.2 331.8 79.4999 331.4 78.6999 331C78.3999 330.9 78.1 330.7 77.9 330.6C76.9 330.1 75.9999 329.6 75.0999 329.1C74.7999 329 74.6 328.8 74.4 328.7C74.2 328.6 73.9999 328.4 73.6999 328.3C73.2999 328.1 72.9999 327.8 72.5999 327.6C72.2999 327.4 71.8999 327.2 71.5999 326.9C71.2999 326.7 70.8999 326.4 70.5999 326.2C70.2999 326 69.9999 325.8 69.6999 325.5C69.3999 325.3 69.0999 325 68.6999 324.8C68.3999 324.6 68.1 324.3 67.9 324.1C67.6 323.8 67.3 323.6 67 323.3C66.9 323.2 66.7999 323.1 66.5999 323C66.3999 322.8 66.1 322.6 65.9 322.3C65.8 322.2 65.6999 322.1 65.6999 322.1C65.2999 321.7 64.8 321.2 64.4 320.8C64.3 320.7 64.1999 320.6 64.0999 320.5C63.7999 320.1 63.3999 319.7 63.0999 319.3C62.9999 319.2 63 319.1 62.9 319L62.7999 318.9C62.4999 318.5 62.2 318.1 61.9 317.7C61.8 317.6 61.8 317.5 61.7 317.4C61.4 316.9 61.0999 316.5 60.7999 316C60.7999 315.9 60.7 315.8 60.7 315.8C60.6 315.6 60.5 315.5 60.4 315.3C60.3 315.2 60.3 315 60.2 314.9C60 314.6 59.9 314.3 59.7 314C59.6 313.7 59.4999 313.5 59.2999 313.2C59.1999 312.9 59 312.6 58.9 312.3C58.8 312.2 58.8 312 58.7 311.9C58.7 311.8 58.5999 311.7 58.5999 311.5C58.4999 311.2 58.3999 310.9 58.2999 310.6C58.1999 310.3 58.0999 310.1 58.0999 309.8C57.9999 309.5 58 309.2 57.9 308.9C57.9 308.7 57.7999 308.6 57.7999 308.4C57.7999 308.3 57.8 308.2 57.7 308.1C57.6 307.8 57.5999 307.5 57.5999 307.2C57.5999 306.9 57.5 306.7 57.5 306.4C57.5 306.1 57.5 305.8 57.4 305.5C57.4 305.3 57.4 305.1 57.4 305C57.4 304.8 57.4 304.6 57.4 304.5L57.2 286C57.2 286.4 57.2 286.7 57.2 287.1Z" fill="#171A21"/>
<path d="M178.4 290.4C180.8 279.9 175.1 268.9 161.3 260.9C137.6 247.1 99.1 247.1 75.2 260.9C61.2 269 55.4 280 57.7 290.5" stroke="#171A21" stroke-width="2" stroke-miterlimit="10" stroke-linecap="round" stroke-linejoin="round"/>
</g>
<defs>
<clipPath id="clip0">
<rect width="468.7" height="339.5" fill="white"/>
</clipPath>
</defs>
</svg>
