<svg width="469" height="340" viewBox="0 0 469 340" fill="none" xmlns="http://www.w3.org/2000/svg">
<g clip-path="url(#clip0)">
<path d="M79.6001 267.9C79.6001 267.8 79.6001 267.8 79.6001 267.7C79.6001 267.3 79.6001 266.8 79.7001 266.4V266.3C79.7001 266.2 79.7001 266.1 79.7001 265.9C79.7001 265.6 79.7001 265.3 79.8001 265C79.8001 264.9 79.8001 264.8 79.8001 264.7C79.8001 264.5 79.8001 264.3 79.9001 264.1C79.9001 263.9 79.9001 263.7 80.0001 263.6C80.0001 263.4 80.0001 263.3 80.1001 263.1C80.1001 262.9 80.2001 262.7 80.2001 262.5C80.2001 262.4 80.2001 262.3 80.2001 262.2C80.2001 261.9 80.3001 261.7 80.3001 261.4C80.3001 261.2 80.4001 261 80.4001 260.9C80.4001 260.8 80.4001 260.8 80.4001 260.7C80.5001 260.3 80.6001 259.9 80.7001 259.5C80.7001 259.4 80.7001 259.4 80.7001 259.3C80.8001 258.8 80.9001 258.3 81.1001 257.8V257.7C81.1001 257.5 81.2001 257.4 81.2001 257.2C81.3001 256.9 81.4001 256.6 81.4001 256.3C81.4001 256.2 81.4001 256.1 81.5001 256.1C81.6001 255.9 81.6001 255.7 81.7001 255.5C81.8001 255.3 81.8001 255.1 81.9001 254.8C81.9001 254.7 82.0001 254.5 82.0001 254.4C82.1001 254.2 82.1001 254 82.2001 253.8C82.3001 253.6 82.3001 253.5 82.4001 253.3C82.5001 253.1 82.5001 252.9 82.6001 252.7C82.7001 252.5 82.7001 252.3 82.8001 252.1C82.8001 252 82.9001 251.9 82.9001 251.8C83.0001 251.5 83.1001 251.2 83.2001 250.9C83.3001 250.8 83.3001 250.6 83.4001 250.5V250.4C83.6001 249.9 83.8001 249.5 84.0001 249V248.9C84.1001 248.8 84.1001 248.7 84.2001 248.5C84.3001 248.2 84.5001 247.9 84.6001 247.6C84.6001 247.5 84.7001 247.4 84.7001 247.3C84.8001 247.1 84.9001 246.9 84.9001 246.8C85.0001 246.6 85.1001 246.4 85.1001 246.3C85.2001 246.1 85.2001 246 85.3001 245.8C85.4001 245.6 85.5001 245.3 85.6001 245.1C85.7001 245 85.7001 244.8 85.8001 244.7C85.9001 244.5 86.0001 244.3 86.1001 244.2C86.2001 244 86.4001 243.7 86.5001 243.5C86.6001 243.4 86.6001 243.3 86.7001 243.2C86.8001 243.1 86.8001 243 86.9001 242.9C87.2001 242.3 87.6001 241.6 88.0001 241C88.0001 240.9 88.1001 240.8 88.1001 240.7C88.1001 240.7 88.1001 240.6 88.2001 240.6C88.5001 240.1 88.8001 239.6 89.1001 239C89.1001 238.9 89.2001 238.9 89.2001 238.8C89.6001 238.2 89.9001 237.7 90.3001 237.1C90.3001 237.1 90.3001 237 90.4001 237C90.4001 236.9 90.5001 236.9 90.5001 236.8C91.0001 236.1 91.5001 235.4 92.0001 234.7C92.1001 234.6 92.1001 234.5 92.2001 234.4C92.2001 234.3 92.3001 234.3 92.3001 234.2C92.6001 233.9 92.8001 233.5 93.1001 233.2C93.2001 233.1 93.3001 232.9 93.4001 232.7L93.5001 232.6C93.6001 232.4 93.8001 232.2 93.9001 232.1C94.1001 231.9 94.3001 231.6 94.5001 231.4C94.5001 231.3 94.6001 231.3 94.6001 231.2C94.8001 231 94.9001 230.8 95.1001 230.6C95.3001 230.4 95.4001 230.2 95.6001 230C95.7001 229.9 95.7001 229.9 95.8001 229.8C96.0001 229.6 96.1001 229.4 96.3001 229.3C96.4001 229.1 96.6001 229 96.7001 228.8C96.8001 228.7 96.9001 228.6 97.0001 228.5C97.2001 228.3 97.4001 228.1 97.5001 227.9C97.6001 227.8 97.7001 227.6 97.9001 227.5C98.0001 227.4 98.1001 227.3 98.2001 227.2C98.4001 227 98.6001 226.8 98.8001 226.6C98.9001 226.5 99.0001 226.4 99.1001 226.3C99.2001 226.2 99.3001 226.1 99.5001 226C99.7001 225.8 99.9001 225.6 100.1 225.4C100.2 225.3 100.3 225.2 100.4 225.1C100.5 225 100.7 224.9 100.8 224.8C101 224.6 101.2 224.4 101.4 224.3C101.5 224.2 101.6 224.1 101.7 224.1C101.9 224 102 223.9 102.2 223.7C102.4 223.5 102.6 223.4 102.8 223.2C102.9 223.1 103 223.1 103 223C103.2 222.9 103.4 222.7 103.5 222.6C103.7 222.5 103.9 222.3 104 222.2C104.1 222.2 104.1 222.1 104.2 222.1C104.4 221.9 104.7 221.8 104.9 221.6C105 221.5 105.2 221.4 105.3 221.3C105.3 221.3 105.4 221.3 105.4 221.2C105.8 220.9 106.2 220.7 106.6 220.4C106.7 220.4 106.7 220.3 106.8 220.3C107.1 220.1 107.4 219.9 107.8 219.7C107.9 219.6 108 219.6 108.1 219.5C108.4 219.3 108.7 219.2 109 219C109.1 218.9 109.2 218.9 109.3 218.8C109.5 218.7 109.6 218.6 109.8 218.6C109.9 218.5 110 218.5 110.2 218.4C110.4 218.3 110.6 218.2 110.8 218.1C110.9 218 111.1 218 111.2 217.9C111.3 217.9 111.3 217.8 111.4 217.8C111.8 217.6 112.2 217.5 112.5 217.3C112.9 217.1 113.3 217 113.6 216.9H113.7C113.8 216.9 114 216.8 114.1 216.8C114.3 216.7 114.5 216.7 114.7 216.6C114.8 216.6 114.9 216.5 115 216.5C115.2 216.5 115.3 216.4 115.5 216.4C115.6 216.4 115.8 216.3 115.9 216.3C116 216.3 116.2 216.2 116.3 216.2C116.5 216.2 116.6 216.1 116.8 216.1C116.9 216.1 117 216.1 117.1 216C117.3 216 117.4 215.9 117.6 215.9C117.8 215.9 118 215.8 118.2 215.8C118.3 215.8 118.3 215.8 118.4 215.8C118.6 215.8 118.7 215.8 118.9 215.8C119.1 215.8 119.3 215.8 119.5 215.7C119.6 215.7 119.6 215.7 119.7 215.7C119.8 215.7 120 215.7 120.1 215.7C120.3 215.7 120.6 215.7 120.8 215.7C120.9 215.7 120.9 215.7 121 215.7C121.1 215.7 121.2 215.7 121.3 215.7C121.6 215.7 121.9 215.7 122.2 215.7C122.3 215.7 122.4 215.7 122.5 215.7C122.6 215.7 122.8 215.7 122.9 215.7C123 215.7 123.1 215.7 123.2 215.7C123.5 215.7 123.9 215.8 124.2 215.9C124.3 215.9 124.4 215.9 124.5 216C124.8 216.1 125 216.1 125.3 216.2C125.4 216.2 125.6 216.3 125.7 216.3C125.9 216.4 126 216.4 126.2 216.5C126.2 216.5 126.3 216.5 126.3 216.6C126.6 216.7 126.8 216.8 127.1 216.9C127.2 217 127.3 217 127.5 217.1C127.9 217.3 128.2 217.5 128.6 217.7L142.3 226.2C142 226 141.6 225.8 141.2 225.6C141.1 225.5 141 225.5 140.8 225.4C140.5 225.3 140.3 225.2 140 225.1C139.8 225 139.6 225 139.4 224.9C139.3 224.9 139.1 224.8 139 224.8C138.7 224.7 138.5 224.7 138.2 224.6C138.1 224.6 138 224.6 137.9 224.5C137.6 224.4 137.2 224.4 136.9 224.3C136.8 224.3 136.7 224.3 136.6 224.3C136.4 224.3 136.2 224.3 136 224.2C135.7 224.2 135.4 224.2 135.1 224.2C134.9 224.2 134.8 224.2 134.6 224.2C134.4 224.2 134.1 224.2 133.9 224.2C133.7 224.2 133.5 224.2 133.3 224.2C133.1 224.2 132.9 224.2 132.7 224.3C132.5 224.3 132.3 224.3 132 224.4C131.8 224.4 131.6 224.5 131.4 224.5C131.2 224.5 130.9 224.6 130.7 224.6C130.5 224.6 130.4 224.7 130.2 224.7C129.9 224.8 129.7 224.8 129.4 224.9C129.2 224.9 129.1 225 128.9 225C128.6 225.1 128.3 225.2 128 225.3C127.9 225.3 127.7 225.4 127.6 225.4C126.7 225.7 125.9 226 125 226.4C124.9 226.5 124.7 226.5 124.6 226.6C124.3 226.7 124 226.9 123.7 227.1C123.5 227.2 123.4 227.3 123.2 227.3C122.8 227.5 122.4 227.7 122 228C121.6 228.2 121.2 228.5 120.7 228.8C120.6 228.8 120.6 228.9 120.5 228.9C120.1 229.2 119.6 229.5 119.2 229.8C119.1 229.9 118.9 230 118.8 230.1C118.5 230.3 118.2 230.5 117.9 230.7C117.7 230.8 117.5 231 117.4 231.1C117.1 231.3 116.9 231.5 116.6 231.7C116.4 231.9 116.2 232 116 232.2C115.8 232.4 115.5 232.6 115.3 232.8C115.1 233 114.9 233.1 114.7 233.3C114.5 233.5 114.2 233.7 114 233.9C113.8 234.1 113.6 234.3 113.4 234.5C113.2 234.7 112.9 234.9 112.7 235.2C112.5 235.4 112.3 235.6 112.1 235.8C111.9 236 111.6 236.3 111.4 236.5C111.2 236.7 111 236.9 110.9 237.1C110.7 237.3 110.4 237.6 110.2 237.9C110 238.1 109.9 238.3 109.7 238.4C109.5 238.7 109.2 238.9 109 239.2C108.8 239.4 108.7 239.6 108.5 239.8C108.3 240.1 108 240.4 107.8 240.6C107.7 240.8 107.5 241 107.4 241.1C107.3 241.3 107.1 241.5 107 241.6C106.7 241.9 106.5 242.3 106.2 242.6C106.1 242.7 106 242.9 105.9 243C105.4 243.7 104.9 244.4 104.4 245.1C104.3 245.2 104.3 245.3 104.2 245.4C103.8 246 103.5 246.5 103.1 247.1C103.1 247.1 103 247.2 103 247.3C102.7 247.8 102.4 248.3 102 248.9C101.9 249 101.9 249.1 101.8 249.3C101.4 249.9 101.1 250.6 100.7 251.2C100.6 251.4 100.5 251.6 100.4 251.8C100.3 252 100.1 252.3 100 252.5C99.8001 252.8 99.7001 253.1 99.5001 253.4C99.4001 253.6 99.3001 253.9 99.2001 254.1C99.0001 254.4 98.9001 254.8 98.7001 255.1C98.6001 255.3 98.5001 255.5 98.5001 255.6C98.3001 256 98.1001 256.4 98.0001 256.8C97.9001 256.9 97.9001 257 97.8001 257.2C97.6001 257.7 97.4001 258.2 97.2001 258.8C97.1001 258.9 97.1001 259.1 97.0001 259.2C96.9001 259.6 96.7001 260 96.6001 260.4C96.5001 260.6 96.5001 260.8 96.4001 261C96.3001 261.3 96.2001 261.7 96.1001 262C96.0001 262.2 96.0001 262.4 95.9001 262.6C95.8001 262.9 95.7001 263.3 95.6001 263.6C95.5001 263.8 95.5001 264 95.4001 264.2C95.3001 264.6 95.2001 265 95.1001 265.3C95.1001 265.5 95.0001 265.6 95.0001 265.8C94.9001 266.3 94.7001 266.9 94.6001 267.4C94.6001 267.5 94.6001 267.5 94.6001 267.6C94.5001 268.1 94.4001 268.5 94.3001 269C94.3001 269.2 94.2001 269.4 94.2001 269.5C94.1001 269.9 94.1001 270.2 94.0001 270.6C94.0001 270.8 93.9001 271 93.9001 271.2C93.9001 271.5 93.8001 271.9 93.8001 272.2C93.8001 272.4 93.8001 272.6 93.7001 272.8C93.7001 273.2 93.6001 273.6 93.6001 274C93.6001 274.1 93.6001 274.2 93.6001 274.4C93.6001 274.9 93.5001 275.5 93.5001 276C93.5001 276.4 93.5001 276.8 93.5001 277.2C93.5001 277.7 93.5001 278.3 93.5001 278.8C93.5001 278.9 93.5001 279.1 93.5001 279.2C93.5001 279.6 93.5001 279.9 93.6001 280.2C93.6001 280.4 93.6001 280.6 93.7001 280.8C93.7001 281.1 93.8001 281.4 93.8001 281.7C93.8001 281.9 93.9001 282.1 93.9001 282.3C93.9001 282.6 94.0001 282.8 94.0001 283.1C94.0001 283.3 94.1001 283.6 94.1001 283.8C94.1001 284 94.2001 284.3 94.3001 284.5C94.4001 284.8 94.4001 285 94.5001 285.3C94.6001 285.5 94.6001 285.7 94.7001 285.9C94.8001 286.2 94.9001 286.5 95.0001 286.8C95.1001 287 95.1001 287.1 95.2001 287.3C95.4001 287.8 95.6001 288.3 95.8001 288.7C96.1001 289.4 96.5001 290.1 96.9001 290.8C96.9001 290.9 97.0001 290.9 97.0001 291C97.2001 291.2 97.3001 291.5 97.5001 291.7C97.6001 291.8 97.6001 291.9 97.7001 292C97.9001 292.2 98.0001 292.4 98.2001 292.6C98.3001 292.7 98.3001 292.7 98.4001 292.8C98.6001 293.1 98.9001 293.3 99.1001 293.5L99.2001 293.6C99.4001 293.8 99.6001 294 99.9001 294.2C100 294.3 100.1 294.3 100.1 294.4C100.3 294.6 100.5 294.7 100.7 294.8C100.8 294.9 100.9 294.9 100.9 295C101.2 295.2 101.5 295.4 101.7 295.5L88.0001 287C87.7001 286.8 87.4001 286.7 87.2001 286.5C87.1001 286.4 87.0001 286.4 87.0001 286.3C86.8001 286.2 86.6001 286 86.4001 285.9C86.3001 285.8 86.2001 285.8 86.2001 285.7C86.0001 285.5 85.8001 285.3 85.5001 285.1L85.4001 285C85.2001 284.8 84.9001 284.5 84.7001 284.3C84.6001 284.2 84.6001 284.2 84.5001 284.1C84.3001 283.9 84.2001 283.7 84.0001 283.5C83.9001 283.4 83.9001 283.3 83.8001 283.2C83.6001 283 83.5001 282.7 83.3001 282.5C83.3001 282.4 83.2001 282.4 83.2001 282.3C83.2001 282.3 83.2001 282.3 83.2001 282.2C82.8001 281.6 82.5001 280.9 82.1001 280.3C81.9001 279.8 81.7001 279.4 81.5001 278.9C81.5001 278.9 81.5001 278.8 81.4001 278.8C81.4001 278.7 81.3001 278.6 81.3001 278.4C81.2001 278.1 81.1001 277.8 81.0001 277.5C81.0001 277.4 80.9001 277.3 80.9001 277.3C80.9001 277.2 80.8001 277.1 80.8001 276.9C80.7001 276.6 80.7001 276.4 80.6001 276.1C80.6001 276 80.5001 275.9 80.5001 275.8C80.5001 275.7 80.5001 275.6 80.4001 275.4C80.4001 275.2 80.3001 274.9 80.3001 274.7C80.3001 274.6 80.3001 274.5 80.2001 274.3C80.2001 274.2 80.2001 274 80.1001 273.9C80.1001 273.7 80.0001 273.5 80.0001 273.3C80.0001 273.2 80.0001 273.1 80.0001 273C80.0001 272.8 80.0001 272.6 79.9001 272.5C79.9001 272.3 79.9001 272.1 79.8001 271.9C79.8001 271.8 79.8001 271.7 79.8001 271.7C79.8001 271.4 79.8001 271.2 79.7001 270.9C79.7001 270.8 79.7001 270.6 79.7001 270.5V270.4C79.7001 269.9 79.7001 269.5 79.7001 269V268.9C79.6001 268.7 79.6001 268.3 79.6001 267.9Z" fill="#E8F4FA"/>
<path d="M119 231.1L106.5 223.6V217.8L119 223.6V231.1Z" fill="#171A21"/>
<path d="M114.3 207C114.3 207 114.3 206.9 114.3 207C114.2 206.9 114.2 206.9 114.1 206.9C114.1 206.9 114.1 206.9 114 206.9H113.9H113.8C113.8 206.9 113.8 206.9 113.7 206.9H113.6C113.6 206.9 113.6 206.9 113.5 206.9C113.5 206.9 113.5 206.9 113.4 206.9C113.4 206.9 113.4 206.9 113.3 206.9C113.2 206.9 113.2 207 113.1 207L105.2 211.6C105 211.7 104.9 211.8 104.7 212C104.7 212 104.7 212 104.6 212.1C104.6 212.1 104.6 212.1 104.5 212.2C104.5 212.2 104.5 212.2 104.4 212.3C104.4 212.4 104.3 212.4 104.3 212.5C104.3 212.5 104.3 212.5 104.3 212.6C104.3 212.6 104.3 212.6 104.3 212.7L104.2 212.8L104.1 212.9C104.1 212.9 104.1 213 104 213C104 213 104 213.1 103.9 213.1C103.9 213.1 103.9 213.2 103.8 213.2C103.8 213.2 103.8 213.3 103.7 213.3C103.7 213.4 103.7 213.4 103.6 213.5V213.6C103.6 213.6 103.6 213.6 103.6 213.7C103.6 213.8 103.6 213.8 103.6 213.9V214C103.6 214 103.6 214 103.6 214.1C103.6 214.1 103.6 214.1 103.6 214.2C103.6 214.3 103.6 214.4 103.6 214.5V217.7C103.6 218.2 103.8 218.6 104.1 218.7L116.2 225.8C115.9 225.6 115.7 225.3 115.7 224.8V221.6C115.7 221.5 115.7 221.4 115.7 221.2C115.7 221.2 115.7 221.2 115.7 221.1C115.7 221 115.7 220.9 115.8 220.8C115.8 220.7 115.9 220.5 115.9 220.4C116 220.3 116 220.1 116.1 220C116.2 219.9 116.2 219.8 116.3 219.7C116.4 219.6 116.5 219.5 116.5 219.4C116.5 219.4 116.5 219.4 116.6 219.3L116.7 219.2C116.9 219.1 117 218.9 117.2 218.8L125.1 214.2C125.2 214.1 125.3 214.1 125.4 214.1C125.4 214.1 125.4 214.1 125.5 214.1C125.6 214.1 125.7 214.1 125.8 214C125.9 214 126 214 126.1 214C126.2 214 126.3 214 126.3 214.1L114.3 207Z" fill="white"/>
<path d="M125.9 214.7L114.3 206.9H114.2H114.1C114.1 206.9 114.1 206.9 114 206.9H113.9H113.8C113.8 206.9 113.8 206.9 113.7 206.9H113.6C113.6 206.9 113.6 206.9 113.5 206.9C113.5 206.9 113.5 206.9 113.4 206.9C113.4 206.9 113.4 206.9 113.3 206.9C113.2 206.9 113.2 207 113.1 207L105.2 211.6C105 211.7 104.9 211.8 104.7 212C104.7 212 104.7 212 104.6 212.1C104.6 212.1 104.6 212.1 104.5 212.2C104.5 212.2 104.5 212.2 104.4 212.3C104.4 212.4 104.3 212.4 104.3 212.5C104.3 212.5 104.3 212.5 104.3 212.6C104.3 212.6 104.3 212.6 104.3 212.7L104.2 212.8L104.1 212.9C104.1 212.9 104.1 213 104 213C104 213 104 213.1 103.9 213.1C103.9 213.1 103.9 213.2 103.8 213.2C103.8 213.2 103.8 213.3 103.7 213.3C103.7 213.4 103.7 213.4 103.6 213.5V213.6C103.6 213.6 103.6 213.6 103.6 213.7C103.6 213.8 103.6 213.8 103.6 213.9V214C103.6 214 103.6 214 103.6 214.1C103.6 214.1 103.6 214.1 103.6 214.2C103.6 214.3 103.6 214.4 103.6 214.5V217.7C103.6 218.2 103.8 218.6 104.1 218.7L116.2 225.8L125.9 214.7Z" stroke="#171A21" stroke-width="2" stroke-miterlimit="10" stroke-linecap="round" stroke-linejoin="round"/>
<path d="M126.9 215.1C126.9 214.1 126.2 213.7 125.3 214.2L117.4 218.8C116.5 219.3 115.8 220.6 115.8 221.6V224.8C115.8 225.8 116.5 226.2 117.4 225.7L118.6 225V230.7C119 230.4 119.4 230.2 119.7 229.9C120.4 229.4 121.1 229 121.7 228.6C122.4 228.2 123.2 227.8 123.9 227.4V221.8L125.2 221C126.1 220.5 126.8 219.2 126.8 218.2L126.9 215.1Z" fill="#2F58FF"/>
<path d="M121.7 228.4C106.3 237.3 93.8 258.6 93.3 276.4C93.3 276.8 93.3 277.2 93.3 277.6C93.4 295.7 106.2 303 121.9 293.9C137.6 284.8 150.4 262.8 150.3 244.7C150.3 244.3 150.3 243.9 150.3 243.5C149.7 226.3 137.1 219.5 121.7 228.4Z" fill="#2F58FF"/>
<path d="M121.7 236.9C110.2 243.6 100.8 259.5 100.3 272.9V273C100.3 273.3 100.3 273.7 100.3 274C100.3 287.6 110 293.1 121.8 286.3C133.6 279.5 143.2 262.9 143.2 249.3C143.2 249 143.2 248.6 143.2 248.3V248.2C142.7 235.3 133.2 230.2 121.7 236.9Z" fill="white"/>
<path d="M122.3 260.3L138.5 251C138.5 250.9 138.5 250.9 138.5 250.8C138.5 240.4 131.1 236.2 122 241.4L122.1 260.2L122.3 260.3Z" fill="#171A21"/>
</g>
<defs>
<clipPath id="clip0">
<rect width="468.7" height="339.5" fill="white"/>
</clipPath>
</defs>
</svg>
