<svg width="469" height="340" viewBox="0 0 469 340" fill="none" xmlns="http://www.w3.org/2000/svg">
<g clip-path="url(#clip0)">
<path d="M91.2 30.6999C91.3 30.5999 91.5 30.5999 91.6 30.4999C91.8 30.3999 92.0001 30.2999 92.3001 30.1999C92.4001 30.0999 92.5 30.0999 92.6 29.9999C92.9 29.7999 93.3 29.6999 93.6 29.4999C93.8 29.3999 93.9001 29.3999 94 29.2999C94 29.2999 94 29.2999 94.1 29.2999C94.2 29.2999 94.4001 29.1999 94.5 29.1999C94.6 29.1999 94.8001 29.1999 94.9001 29.1999C95 29.1999 95.1 29.2999 95.2 29.2999L81 20.9999C81 20.9999 80.9001 20.9999 80.9001 20.8999H80.8001C80.8001 20.8999 80.8 20.8999 80.7 20.8999C80.7 20.8999 80.7 20.8999 80.6 20.8999C80.5 20.8999 80.5 20.8999 80.4001 20.8999C80.3001 20.8999 80.3 20.8999 80.2 20.8999C80.1 20.8999 80.1 20.8999 80 20.8999C79.9001 20.8999 79.9001 20.8999 79.8001 20.8999C79.8001 20.8999 79.8 20.8999 79.7 20.8999C79.6 20.8999 79.6 20.8999 79.5 20.9999C79.4001 20.9999 79.3001 21.0999 79.3001 21.0999C79.0001 21.2999 78.6001 21.4999 78.3001 21.5999C78.2001 21.6999 78.1 21.6999 78 21.7999C77.8 21.8999 77.6001 21.9999 77.3001 22.0999C77.2001 22.1999 77 22.1999 76.9001 22.2999C76.7001 22.3999 76.5001 22.4999 76.3001 22.5999C76.2001 22.6999 76 22.6999 75.9001 22.7999C75.7001 22.8999 75.6001 22.8999 75.4001 22.9999C75 23.0999 74.7001 23.2999 74.4001 23.3999H74.3001C74.0001 23.4999 73.7001 23.5999 73.4001 23.6999C73.3001 23.6999 73.2 23.7999 73.1 23.7999C72.9 23.8999 72.7001 23.8999 72.4001 23.9999C72.3001 23.9999 72.2 24.0999 72.1 24.0999C71.9 24.1999 71.7001 24.1999 71.5 24.2999C71.4001 24.2999 71.3 24.3999 71.2 24.3999C70.8 24.4999 70.3001 24.5999 69.9001 24.6999C69.8001 24.6999 69.8 24.6999 69.7 24.6999C69.3 24.7999 68.9001 24.8999 68.5 24.8999C68.4001 24.8999 68.4001 24.8999 68.3001 24.8999C68.0001 24.9999 67.6001 24.9999 67.3001 24.9999H67.2C66.9 24.9999 66.6001 25.0999 66.3001 25.0999H66.2C65.9 25.0999 65.6001 25.0999 65.4001 25.0999C65.3001 25.0999 65.3 25.0999 65.2 25.0999C65 25.0999 64.7001 25.0999 64.5 25.0999H64.4001C64.2001 25.0999 63.9001 25.0999 63.7001 24.9999C63.6 24.9999 63.6 24.9999 63.5 24.9999C63.3 24.9999 63.1001 24.8999 62.9001 24.8999C62.9001 24.8999 62.9 24.8999 62.8 24.8999C62.6 24.8999 62.4001 24.7999 62.2001 24.7999H62.1C61.9 24.7999 61.7001 24.6999 61.5 24.5999C61.3 24.4999 61.1001 24.4999 60.9001 24.3999H60.8C60.6 24.2999 60.5 24.2999 60.3 24.1999C60.3 24.1999 60.3001 24.1999 60.2001 24.1999C60 24.0999 59.9001 24.0999 59.7001 23.9999C59.5 23.8999 59.4 23.7999 59.3 23.7999L59 23.5999C59 23.5999 58.9001 23.5999 58.9001 23.4999H58.8H58.7001C58.7001 23.4999 58.6 23.4999 58.5 23.4999C58.4 23.4999 58.4 23.4999 58.3 23.4999H58.2001C58.2001 23.4999 58.2 23.4999 58.1 23.4999C58 23.4999 58.0001 23.4999 57.9001 23.4999H57.8H57.7001H57.6C57.5 23.4999 57.4001 23.5999 57.2001 23.6999C57 23.7999 56.9001 23.8999 56.7001 23.9999C56.6 23.9999 56.6 24.0999 56.6 24.0999C56.5 24.1999 56.4001 24.1999 56.4001 24.2999L56.3 24.3999L56.2001 24.4999L56.1 24.5999C56 24.6999 56.0001 24.7999 55.9001 24.7999C55.9001 24.7999 55.9 24.8999 55.8 24.8999C55.8 24.8999 55.8001 24.9999 55.7001 24.9999C55.7001 25.0999 55.6 25.0999 55.6 25.1999C55.6 25.2999 55.5 25.2999 55.5 25.3999V25.4999C55.4 25.7999 55.2001 25.9999 55 26.2999C54.9 26.3999 54.9 26.4999 54.8 26.6999C54.7 26.8999 54.6001 27.0999 54.4001 27.2999C54.3001 27.3999 54.2001 27.5999 54.2001 27.6999C54.1 27.8999 53.9 28.1999 53.8 28.3999C53.7 28.4999 53.6 28.6999 53.6 28.7999C53.4 29.0999 53.2001 29.3999 53 29.6999C53 29.7999 52.9001 29.7999 52.9001 29.8999C52.6001 30.2999 52.3 30.6999 52 31.0999C51.9 31.1999 51.8001 31.2999 51.7001 31.3999C51.5 31.6999 51.3 31.9999 51 32.2999C50.8 32.4999 50.7001 32.6999 50.5 32.8999C50.3 33.0999 50.1001 33.3999 49.9001 33.5999C49.7001 33.7999 49.5001 33.9999 49.4001 34.1999C49.2001 34.4999 48.9001 34.6999 48.7001 34.9999C48.6 35.0999 48.5 35.1999 48.5 35.2999C48.1 35.6999 47.7001 36.0999 47.4001 36.5999C47.4001 36.6999 47.3001 36.6999 47.2001 36.7999C46.8001 37.1999 46.4 37.5999 46 37.9999C45.9 38.0999 45.9 38.0999 45.8 38.1999C45 38.9999 44.5 39.3999 44 39.8999C43.9 39.9999 43.8001 40.0999 43.7001 40.1999C43.3001 40.4999 43 40.8999 42.6 41.1999C42.4 41.2999 42.3 41.4999 42.1 41.5999C41.7 41.9999 41.2001 42.3999 40.7001 42.6999C40.6 42.7999 40.6 42.7999 40.5 42.8999C40 43.2999 39.4 43.7999 38.8 44.1999C38.6 44.2999 38.5 44.3999 38.3 44.4999C37.9 44.7999 37.4 45.0999 37 45.4999C36.8 45.5999 36.6 45.6999 36.5 45.8999C35.9 46.2999 35.3 46.6999 34.6 47.1999C34.4 47.2999 34.3001 47.3999 34.2001 47.4999L34.1 47.5999C34 47.5999 34.0001 47.6999 33.9001 47.6999C33.8001 47.7999 33.8001 47.7999 33.7001 47.8999C33.7001 47.8999 33.7 47.8999 33.6 47.9999C33.5 48.0999 33.5001 48.1999 33.4001 48.1999C33.3001 48.2999 33.3001 48.2999 33.2001 48.3999C33.1001 48.4999 33.1 48.4999 33.1 48.5999C33.1 48.6999 33 48.6999 33 48.7999C33 48.7999 33.0001 48.8999 32.9001 48.8999V48.9999C32.9001 49.0999 32.8 49.0999 32.8 49.1999C32.8 49.2999 32.7001 49.2999 32.7001 49.3999C32.7001 49.3999 32.7 49.4999 32.6 49.4999C32.6 49.5999 32.5 49.6999 32.5 49.6999C32.5 49.7999 32.5001 49.7999 32.4001 49.8999C32.4001 49.9999 32.3 50.0999 32.3 50.1999C32.3 50.2999 32.3 50.2999 32.3 50.3999V50.4999C32.3 50.4999 32.3 50.4999 32.3 50.5999C32.3 50.7999 32.3 50.8999 32.3 51.0999L32.4001 82.4999C32.4001 88.7999 34.6001 93.4999 38.4001 95.5999L52.6 103.9C48.8 101.7 46.6 96.9999 46.6 90.7999L46.5 59.3999C46.5 59.1999 46.5 58.9999 46.5 58.7999V58.6999C46.5 58.4999 46.6 58.2999 46.6 58.1999C46.7 57.9999 46.7 57.7999 46.8 57.5999C46.9 57.3999 47 57.1999 47.1 56.9999C47.2 56.7999 47.3001 56.5999 47.4001 56.4999C47.5001 56.2999 47.7 56.1999 47.8 55.9999C47.8 55.9999 47.8001 55.9999 47.9001 55.8999C48.0001 55.7999 48.1 55.6999 48.2001 55.5999L48.3 55.4999C48.4 55.3999 48.6 55.2999 48.7001 55.1999C49.3001 54.7999 50 54.3999 50.6 53.8999C50.8 53.7999 51 53.6999 51.1 53.4999C51.6 53.1999 52.0001 52.8999 52.4001 52.4999C52.6001 52.3999 52.7001 52.2999 52.9001 52.1999C53.5001 51.7999 54 51.2999 54.6 50.8999C54.7 50.7999 54.7 50.7999 54.8 50.6999C55.3 50.2999 55.7001 49.8999 56.2001 49.5999C56.4001 49.4999 56.5 49.2999 56.7001 49.1999C57.1 48.8999 57.5 48.4999 57.8 48.1999C57.9 48.0999 58 47.9999 58.2001 47.8999C58.6 47.4999 59.1 47.0999 59.5 46.6999L59.6 46.5999C59.7 46.4999 59.7 46.4999 59.8 46.3999C60.2 45.9999 60.6 45.5999 61 45.1999C61 45.0999 61.1 45.0999 61.2001 44.9999C61.6 44.5999 62 44.1999 62.3 43.6999C62.4 43.5999 62.5 43.4999 62.5 43.3999C62.6 43.2999 62.7001 43.1999 62.7001 43.0999C62.9001 42.8999 63 42.6999 63.2001 42.5999C63.4001 42.3999 63.6 42.1999 63.7001 41.9999C63.9001 41.7999 64.1001 41.4999 64.3001 41.2999C64.5001 41.0999 64.6001 40.8999 64.8001 40.6999L64.9001 40.5999C65.1001 40.2999 65.3 40.0999 65.5 39.8999C65.6 39.7999 65.7001 39.6999 65.8001 39.5999C66.1001 39.1999 66.4 38.7999 66.6 38.3999C66.6 38.2999 66.7 38.2999 66.7 38.1999C66.9 37.8999 67.1001 37.5999 67.3001 37.2999C67.4001 37.1999 67.5 36.9999 67.5 36.8999C67.6 36.6999 67.7001 36.5999 67.8001 36.3999C67.8001 36.2999 67.9001 36.2999 67.9001 36.1999C68 36.0999 68.1 35.8999 68.1 35.7999C68.2 35.5999 68.4001 35.3999 68.5 35.1999C68.6 35.0999 68.6 34.9999 68.7 34.7999C68.7 34.6999 68.8001 34.6999 68.8001 34.5999C68.9001 34.3999 69 34.1999 69.1 33.9999C69.2 33.7999 69.4001 33.5999 69.5 33.3999C69.6 33.1999 69.8001 33.0999 69.9001 32.8999L70 32.7999C70.1 32.6999 70.2001 32.5999 70.3001 32.4999L70.4001 32.3999C70.6001 32.2999 70.7001 32.1999 70.9001 32.0999C71 31.9999 71.2001 31.8999 71.3001 31.8999H71.4001C71.5 31.8999 71.7001 31.7999 71.8001 31.7999C71.9001 31.7999 72.1 31.7999 72.2 31.7999C72.3 31.7999 72.5 31.8999 72.6 31.8999L72.8001 31.9999C72.8001 31.9999 72.9001 31.9999 72.9001 32.0999C73 32.1999 73.2001 32.2999 73.3001 32.2999C73.5001 32.3999 73.6001 32.3999 73.8001 32.4999C74.0001 32.5999 74.1001 32.5999 74.3001 32.6999H74.4001C74.6001 32.7999 74.8 32.7999 75 32.8999C75.2001 32.9999 75.4 32.9999 75.6 33.0999H75.7C75.9 33.0999 76.1001 33.1999 76.3001 33.1999C76.5001 33.1999 76.7001 33.2999 76.9001 33.2999C77 33.2999 77 33.2999 77.1 33.2999C77.3 33.2999 77.6001 33.2999 77.8001 33.3999C77.8001 33.3999 77.8001 33.3999 77.9001 33.3999C78.1001 33.3999 78.4 33.3999 78.6 33.3999C78.7 33.3999 78.7001 33.3999 78.8001 33.3999C79.1001 33.3999 79.3 33.3999 79.6 33.3999H79.7C80 33.3999 80.3 33.3999 80.6 33.2999H80.7C81 33.2999 81.4 33.1999 81.7 33.1999H81.8001H81.9001C82.3001 33.0999 82.7 33.0999 83.1 32.9999C83.2 32.9999 83.2001 32.9999 83.3001 32.9999C83.7001 32.8999 84.2 32.7999 84.6 32.6999C84.6 32.6999 84.6 32.6999 84.7 32.6999C84.8 32.6999 84.8001 32.6999 84.9001 32.5999C85.1001 32.4999 85.3 32.4999 85.5 32.3999C85.6 32.3999 85.7001 32.2999 85.8001 32.2999C86.0001 32.1999 86.2001 32.1999 86.5 32.0999C86.6 32.0999 86.7001 31.9999 86.8001 31.9999C87.1001 31.8999 87.4 31.7999 87.7 31.6999H87.8001C88.1001 31.5999 88.5001 31.3999 88.8001 31.2999H88.9001C89 31.1999 89.2001 31.1999 89.3001 31.0999C89.4001 30.9999 89.6 30.9999 89.7 30.8999C90.9 30.8999 91 30.7999 91.2 30.6999Z" fill="#E8F4FA"/>
<path d="M71.2001 32.1999C71.9001 31.7999 72.5001 31.6999 73.0001 31.9999C75.8001 33.6999 82.1001 35.4999 93.6001 29.4999C95.0001 28.7999 96.0001 29.4999 96.0001 31.0999L96.1001 62.4999C96.1001 70.8999 92.2001 80.8999 85.9001 88.7999L75.2001 102.1C74.0001 103.6 72.7001 104.7 71.4001 105.5C70.1001 106.3 68.7001 106.6 67.6001 106.5L56.8001 105.6C50.4001 105.1 46.5001 99.4999 46.5001 91.0999L46.4001 59.6999C46.4001 58.0999 47.5001 56.1999 48.8001 55.2999C60.3001 47.9999 66.6001 38.9999 69.3001 33.9999C69.9001 33.2999 70.5001 32.5999 71.2001 32.1999Z" fill="#2F58FF"/>
<path d="M71.2001 43.4C71.0001 43.5 70.7001 43.8 70.5001 44.1C67.5001 48.6 62.6001 54.5 55.3001 59.8C54.8001 60.2 54.3001 61 54.4001 61.6L54.5001 85.7C54.5001 91.1 57.0001 94.6 61.1001 95L70.3001 95.8C70.6001 95.8 71.0001 95.7 71.4001 95.5C71.8001 95.3 72.2001 94.9 72.5001 94.5L81.6001 83C85.6001 78 88.1001 71.5 88.1001 66.1L88.0001 42C88.0001 41.4 87.6001 41.1 87.0001 41.3C79.7001 44.5 74.8001 44.2 71.8001 43.2C71.7001 43.2 71.5001 43.3 71.2001 43.4Z" fill="white"/>
</g>
<defs>
<clipPath id="clip0">
<rect width="468.7" height="339.5" fill="white"/>
</clipPath>
</defs>
</svg>
