<svg width="469" height="340" viewBox="0 0 469 340" fill="none" xmlns="http://www.w3.org/2000/svg">
<g clip-path="url(#clip0)">
<path d="M418.7 101.3C419.5 97.8999 417.7 94.2999 413.1 91.5999C405.4 86.9999 392.8 86.8999 385 91.2999C380.5 93.8999 378.6 97.3999 379.3 100.9L380.2 106.9L393.5 114.8L405.3 115.6L414.2 109.3L418.1 105L418.7 101.3Z" fill="#E8F4FA"/>
<path d="M418.9 100.2C418.9 100.3 418.9 100.4 418.9 100.5C418.9 100.6 418.9 100.7 418.9 100.8C418.9 100.9 418.9 101 418.8 101.1C418.8 101.2 418.8 101.3 418.7 101.4C418.7 101.5 418.7 101.6 418.6 101.7C418.6 101.8 418.5 101.9 418.5 102C418.5 102.1 418.4 102.2 418.4 102.3C418.4 102.4 418.3 102.5 418.3 102.6C418.3 102.7 418.2 102.8 418.2 102.9C418.2 103 418.1 103.1 418.1 103.1C418.1 103.2 418 103.3 417.9 103.4C417.8 103.5 417.8 103.6 417.7 103.7C417.7 103.7 417.7 103.7 417.7 103.8C417.6 104 417.5 104.1 417.4 104.2C417.4 104.2 417.4 104.3 417.3 104.3C417.2 104.4 417.1 104.6 417 104.7C417 104.7 417 104.8 416.9 104.8C416.8 104.9 416.7 105.1 416.6 105.2L416.5 105.3C416.4 105.4 416.2 105.6 416.1 105.7L416 105.8C415.9 105.9 415.8 106 415.7 106.1C415.6 106.2 415.5 106.3 415.4 106.3C415.3 106.4 415.2 106.5 415.1 106.5C415 106.6 414.9 106.7 414.8 106.7C414.7 106.8 414.6 106.8 414.5 106.9C414.4 107 414.3 107.1 414.2 107.1C414.1 107.2 414 107.2 413.9 107.3C413.8 107.4 413.7 107.4 413.5 107.5C413.3 107.6 413.2 107.7 413 107.8C412.7 108 412.4 108.1 412.1 108.3C412 108.3 411.9 108.4 411.8 108.4C411.6 108.5 411.3 108.6 411.1 108.7C411 108.7 410.9 108.8 410.8 108.8C410.5 108.9 410.1 109.1 409.8 109.2C409.7 109.2 409.7 109.2 409.6 109.3C409.3 109.4 409 109.5 408.7 109.6C408.6 109.6 408.5 109.7 408.3 109.7C408.1 109.7 408 109.8 407.8 109.8C407.7 109.8 407.5 109.9 407.4 109.9C407.2 109.9 407.1 110 406.9 110C406.8 110 406.6 110.1 406.5 110.1C406.3 110.1 406.2 110.2 406 110.2C405.9 110.2 405.7 110.3 405.6 110.3C405.4 110.3 405.3 110.4 405.1 110.4C405 110.4 404.8 110.4 404.7 110.5C404.3 110.6 404 110.6 403.6 110.7C403.5 110.7 403.5 110.7 403.4 110.7C403.1 110.7 402.7 110.8 402.4 110.8C402.3 110.8 402.1 110.8 402 110.8C401.8 110.8 401.6 110.8 401.4 110.8C401.3 110.8 401.1 110.8 401 110.8C400.8 110.8 400.6 110.8 400.3 110.8C400.2 110.8 400 110.8 399.9 110.8C399.7 110.8 399.5 110.8 399.3 110.8C399.2 110.8 399 110.8 398.9 110.8C398.7 110.8 398.5 110.8 398.3 110.8C398.2 110.8 398.1 110.8 397.9 110.8C397.7 110.8 397.5 110.8 397.3 110.8C397.2 110.8 397 110.8 396.9 110.8C396.7 110.8 396.5 110.8 396.3 110.8C396.2 110.8 396.1 110.8 396 110.8C395.8 110.8 395.5 110.7 395.3 110.7C395.2 110.7 395.2 110.7 395.1 110.7C394.8 110.7 394.5 110.6 394.2 110.6H394.1C393.8 110.6 393.6 110.5 393.3 110.5C393.2 110.5 393.1 110.5 393 110.4C392.8 110.4 392.6 110.3 392.4 110.3C392.3 110.3 392.2 110.3 392.1 110.2C391.9 110.1 391.7 110.1 391.4 110C391.3 110 391.2 109.9 391 109.9C390.8 109.8 390.6 109.8 390.4 109.7C390.3 109.7 390.2 109.6 390.1 109.6C389.8 109.5 389.5 109.4 389.2 109.3C389.1 109.3 389.1 109.3 389 109.2C388.6 109.1 388.3 108.9 388 108.8C387.9 108.7 387.7 108.7 387.6 108.6C387.5 108.6 387.4 108.5 387.3 108.5C387.1 108.4 387 108.4 386.8 108.3C386.7 108.3 386.6 108.2 386.5 108.2C386.3 108.1 386.2 108 386 107.9C385.9 107.9 385.8 107.8 385.8 107.8C385.6 107.7 385.3 107.5 385.1 107.4C381.2 105.1 379.3 102.1 379.3 99.1997L379.1 110.9C379.1 113.9 381 116.8 384.9 119.1C385.1 119.2 385.4 119.4 385.6 119.5C385.7 119.5 385.8 119.6 385.8 119.6C386 119.7 386.1 119.8 386.3 119.9C386.4 119.9 386.5 120 386.6 120C386.8 120.1 386.9 120.1 387.1 120.2C387.2 120.2 387.3 120.3 387.4 120.3C387.5 120.3 387.6 120.4 387.7 120.4H387.8C388.1 120.5 388.5 120.7 388.8 120.8C388.9 120.8 388.9 120.8 389 120.9C389.3 121 389.6 121.1 389.9 121.2C390 121.2 390 121.2 390.1 121.3C390.2 121.3 390.2 121.3 390.3 121.4C390.5 121.5 390.7 121.5 390.9 121.6C391 121.6 391.1 121.7 391.3 121.7C391.5 121.8 391.7 121.8 392 121.9C392.1 121.9 392.2 121.9 392.2 122C392.2 122 392.2 122 392.3 122C392.5 122 392.7 122.1 392.9 122.1C393 122.1 393.1 122.1 393.2 122.2C393.5 122.2 393.7 122.3 394 122.3H394.1C394.4 122.3 394.7 122.4 395 122.4C395.1 122.4 395.1 122.4 395.2 122.4C395.4 122.4 395.7 122.5 395.9 122.5C396 122.5 396.1 122.5 396.2 122.5C396.4 122.5 396.6 122.5 396.8 122.5C396.9 122.5 397.1 122.5 397.2 122.5C397.4 122.5 397.6 122.5 397.8 122.5C397.9 122.5 398 122.5 398.1 122.5C398.3 122.5 398.5 122.5 398.7 122.5C398.8 122.5 399 122.5 399.1 122.5C399.3 122.5 399.5 122.5 399.7 122.5H399.8C399.9 122.5 400 122.5 400.1 122.5C400.3 122.5 400.5 122.5 400.8 122.5C400.9 122.5 401.1 122.5 401.2 122.5C401.4 122.5 401.6 122.5 401.8 122.5C401.9 122.5 401.9 122.5 402 122.5C402.1 122.5 402.1 122.5 402.2 122.5C402.5 122.5 402.9 122.4 403.2 122.4C403.3 122.4 403.3 122.4 403.4 122.4C403.8 122.4 404.2 122.3 404.5 122.2H404.6C404.7 122.2 404.8 122.2 404.9 122.1C405.1 122.1 405.2 122 405.4 122C405.5 122 405.7 121.9 405.8 121.9C406 121.9 406.1 121.8 406.3 121.8C406.4 121.8 406.6 121.7 406.7 121.7C406.9 121.7 407 121.6 407.2 121.6C407.3 121.6 407.5 121.5 407.6 121.5C407.8 121.5 407.9 121.4 408.1 121.4C408.2 121.4 408.2 121.4 408.3 121.3C408.4 121.3 408.4 121.3 408.4 121.2C408.7 121.1 409 121 409.3 120.9C409.4 120.9 409.4 120.9 409.5 120.8C409.8 120.7 410.2 120.5 410.5 120.4C410.6 120.4 410.7 120.3 410.8 120.3C411.1 120.2 411.3 120.1 411.5 120C411.6 120 411.7 119.9 411.8 119.9C412.1 119.7 412.4 119.6 412.7 119.4C412.8 119.4 412.9 119.3 412.9 119.3C413 119.3 413 119.2 413.1 119.2C413.2 119.1 413.3 119.1 413.5 119C413.6 118.9 413.7 118.9 413.8 118.8C413.9 118.7 414 118.6 414.1 118.6C414.2 118.5 414.3 118.5 414.4 118.4C414.5 118.3 414.6 118.2 414.7 118.2C414.8 118.1 414.9 118.1 415 118C415.1 117.9 415.2 117.8 415.3 117.8L415.4 117.7C415.5 117.6 415.6 117.6 415.6 117.5L415.7 117.4C415.8 117.3 416 117.1 416.1 117L416.2 116.9C416.3 116.8 416.4 116.7 416.5 116.5C416.5 116.5 416.5 116.4 416.6 116.4C416.7 116.3 416.8 116.1 416.9 116C416.9 116 416.9 115.9 417 115.9C417.1 115.8 417.2 115.6 417.3 115.5C417.3 115.5 417.3 115.5 417.3 115.4C417.3 115.3 417.4 115.3 417.4 115.2C417.4 115.2 417.4 115.1 417.5 115.1C417.6 115 417.6 114.9 417.7 114.8C417.7 114.7 417.8 114.6 417.8 114.6C417.8 114.5 417.9 114.4 417.9 114.3C417.9 114.3 417.9 114.2 418 114.2V114.1C418 114 418.1 113.9 418.1 113.8C418.1 113.7 418.2 113.6 418.2 113.5C418.2 113.4 418.3 113.3 418.3 113.2C418.3 113.1 418.3 113.1 418.3 113V112.9C418.3 112.8 418.3 112.7 418.4 112.6C418.4 112.5 418.4 112.4 418.4 112.3C418.4 112.2 418.4 112.1 418.4 112C418.4 111.9 418.4 111.9 418.4 111.8C418.4 111.7 418.4 111.7 418.4 111.6L418.6 99.8997C418.9 99.8997 418.9 99.9997 418.9 100.2Z" fill="#2F58FF"/>
<path d="M418.7 86.9C419.5 83.5 417.7 79.9 413.1 77.2C405.4 72.6 392.8 72.5 385 76.9C380.5 79.5 378.6 83 379.3 86.5L380.2 92.5L393.5 100.4L405.3 101.2L414.2 94.9L418.1 90.6L418.7 86.9Z" fill="#E8F4FA"/>
<path d="M418.9 85.8C418.9 85.9 418.9 86 418.9 86.1C418.9 86.2 418.9 86.3 418.9 86.4C418.9 86.5 418.9 86.6 418.8 86.7C418.8 86.8 418.8 86.9 418.7 87C418.7 87.1 418.7 87.2 418.6 87.3C418.6 87.4 418.5 87.5 418.5 87.6C418.5 87.7 418.4 87.8 418.4 87.9C418.4 88 418.3 88.1 418.3 88.2C418.3 88.3 418.2 88.4 418.2 88.5C418.2 88.6 418.1 88.7 418.1 88.7C418.1 88.8 418 88.9 417.9 89C417.8 89.1 417.8 89.2 417.7 89.3C417.7 89.3 417.7 89.3 417.7 89.4C417.6 89.6 417.5 89.7 417.4 89.8C417.4 89.8 417.4 89.9 417.3 89.9C417.2 90 417.1 90.2 417 90.3C417 90.3 417 90.4 416.9 90.4C416.8 90.5 416.7 90.7 416.6 90.8L416.5 90.9C416.4 91 416.2 91.2 416.1 91.3L416 91.4C415.9 91.5 415.8 91.6 415.7 91.7C415.6 91.8 415.5 91.9 415.4 91.9C415.3 92 415.2 92.1 415.1 92.1C415 92.2 414.9 92.3 414.8 92.3C414.7 92.4 414.6 92.4 414.5 92.5C414.4 92.6 414.3 92.7 414.2 92.7C414.1 92.8 414 92.8 413.9 92.9C413.8 93 413.7 93 413.5 93.1C413.3 93.2 413.2 93.3 413 93.4C412.7 93.6 412.4 93.7 412.1 93.9C412 93.9 411.9 94 411.8 94C411.6 94.1 411.3 94.2 411.1 94.3C411 94.3 410.9 94.4 410.8 94.4C410.5 94.5 410.1 94.7 409.8 94.8C409.7 94.8 409.7 94.8 409.6 94.9C409.3 95 409 95.1 408.7 95.2C408.6 95.2 408.5 95.3 408.3 95.3C408.1 95.3 408 95.4 407.8 95.4C407.7 95.4 407.5 95.5 407.4 95.5C407.2 95.5 407.1 95.6 406.9 95.6C406.8 95.6 406.6 95.7 406.5 95.7C406.3 95.7 406.2 95.8 406 95.8C405.9 95.8 405.7 95.9 405.6 95.9C405.4 95.9 405.3 96 405.1 96C405 96 404.8 96 404.7 96.1C404.3 96.2 404 96.2 403.6 96.3C403.5 96.3 403.5 96.3 403.4 96.3C403.1 96.3 402.7 96.4 402.4 96.4C402.3 96.4 402.1 96.4 402 96.4C401.8 96.4 401.6 96.4 401.4 96.4C401.3 96.4 401.1 96.4 401 96.4C400.8 96.4 400.6 96.4 400.3 96.4C400.2 96.4 400 96.4 399.9 96.4C399.7 96.4 399.5 96.4 399.3 96.4C399.2 96.4 399 96.4 398.9 96.4C398.7 96.4 398.5 96.4 398.3 96.4C398.2 96.4 398.1 96.4 397.9 96.4C397.7 96.4 397.5 96.4 397.3 96.4C397.2 96.4 397 96.4 396.9 96.4C396.7 96.4 396.5 96.4 396.3 96.4C396.2 96.4 396.1 96.4 396 96.4C395.8 96.4 395.5 96.3 395.3 96.3C395.2 96.3 395.2 96.3 395.1 96.3C394.8 96.3 394.5 96.2 394.2 96.2H394.1C393.8 96.2 393.6 96.1 393.3 96.1C393.2 96.1 393.1 96.1 393 96C392.8 96 392.6 95.9 392.4 95.9C392.3 95.9 392.2 95.9 392.1 95.8C391.9 95.7 391.7 95.7 391.4 95.6C391.3 95.6 391.2 95.5 391 95.5C390.8 95.4 390.6 95.4 390.4 95.3C390.3 95.3 390.2 95.2 390.1 95.2C389.8 95.1 389.5 95 389.2 94.9C389.1 94.9 389.1 94.9 389 94.8C388.6 94.7 388.3 94.5 388 94.4C387.9 94.3 387.7 94.3 387.6 94.2C387.5 94.2 387.4 94.1 387.3 94.1C387.1 94 387 94 386.8 93.9C386.7 93.9 386.6 93.8 386.5 93.8C386.3 93.7 386.2 93.6 386 93.5C385.9 93.5 385.8 93.4 385.8 93.4C385.6 93.3 385.3 93.1 385.1 93C381.2 90.7 379.3 87.7 379.3 84.8L379.1 96.5C379.1 99.5 381 102.4 384.9 104.7C385.1 104.8 385.4 105 385.6 105.1C385.7 105.1 385.8 105.2 385.8 105.2C386 105.3 386.1 105.4 386.3 105.5C386.4 105.5 386.5 105.6 386.6 105.6C386.8 105.7 386.9 105.7 387.1 105.8C387.2 105.8 387.3 105.9 387.4 105.9C387.5 105.9 387.6 106 387.7 106H387.8C388.1 106.1 388.5 106.3 388.8 106.4C388.9 106.4 388.9 106.4 389 106.5C389.3 106.6 389.6 106.7 389.9 106.8C390 106.8 390 106.8 390.1 106.9C390.2 106.9 390.2 106.9 390.3 107C390.5 107.1 390.7 107.1 390.9 107.2C391 107.2 391.1 107.3 391.3 107.3C391.5 107.4 391.7 107.4 392 107.5C392.1 107.5 392.2 107.5 392.2 107.6C392.2 107.6 392.2 107.6 392.3 107.6C392.5 107.6 392.7 107.7 392.9 107.7C393 107.7 393.1 107.7 393.2 107.8C393.5 107.8 393.7 107.9 394 107.9H394.1C394.4 107.9 394.7 108 395 108C395.1 108 395.1 108 395.2 108C395.4 108 395.7 108.1 395.9 108.1C396 108.1 396.1 108.1 396.2 108.1C396.4 108.1 396.6 108.1 396.8 108.1C396.9 108.1 397.1 108.1 397.2 108.1C397.4 108.1 397.6 108.1 397.8 108.1C397.9 108.1 398 108.1 398.1 108.1C398.3 108.1 398.5 108.1 398.7 108.1C398.8 108.1 399 108.1 399.1 108.1C399.3 108.1 399.5 108.1 399.7 108.1H399.8C399.9 108.1 400 108.1 400.1 108.1C400.3 108.1 400.5 108.1 400.8 108.1C400.9 108.1 401.1 108.1 401.2 108.1C401.4 108.1 401.6 108.1 401.8 108.1C401.9 108.1 401.9 108.1 402 108.1C402.1 108.1 402.1 108.1 402.2 108.1C402.5 108.1 402.9 108 403.2 108C403.3 108 403.3 108 403.4 108C403.8 108 404.2 107.9 404.5 107.8H404.6C404.7 107.8 404.8 107.8 404.9 107.7C405.1 107.7 405.2 107.6 405.4 107.6C405.5 107.6 405.7 107.5 405.8 107.5C406 107.5 406.1 107.4 406.3 107.4C406.4 107.4 406.6 107.3 406.7 107.3C406.9 107.3 407 107.2 407.2 107.2C407.3 107.2 407.5 107.1 407.6 107.1C407.8 107.1 407.9 107 408.1 107C408.2 107 408.2 107 408.3 106.9C408.4 106.9 408.4 106.9 408.4 106.8C408.7 106.7 409 106.6 409.3 106.5C409.4 106.5 409.4 106.5 409.5 106.4C409.8 106.3 410.2 106.1 410.5 106C410.6 106 410.7 105.9 410.8 105.9C411.1 105.8 411.3 105.7 411.5 105.6C411.6 105.6 411.7 105.5 411.8 105.5C412.1 105.3 412.4 105.2 412.7 105C412.8 105 412.9 104.9 412.9 104.9C413 104.9 413 104.8 413.1 104.8C413.2 104.7 413.3 104.7 413.5 104.6C413.6 104.5 413.7 104.5 413.8 104.4C413.9 104.3 414 104.2 414.1 104.2C414.2 104.1 414.3 104.1 414.4 104C414.5 103.9 414.6 103.8 414.7 103.8C414.8 103.7 414.9 103.7 415 103.6C415.1 103.5 415.2 103.4 415.3 103.4L415.4 103.3C415.5 103.2 415.6 103.2 415.6 103.1L415.7 103C415.8 102.9 416 102.7 416.1 102.6L416.2 102.5C416.3 102.4 416.4 102.3 416.5 102.1C416.5 102.1 416.5 102 416.6 102C416.7 101.9 416.8 101.7 416.9 101.6C416.9 101.6 416.9 101.5 417 101.5C417.1 101.4 417.2 101.2 417.3 101.1C417.3 101.1 417.3 101.1 417.3 101C417.3 100.9 417.4 100.9 417.4 100.8C417.4 100.8 417.4 100.7 417.5 100.7C417.6 100.6 417.6 100.5 417.7 100.4C417.7 100.3 417.8 100.2 417.8 100.2C417.8 100.1 417.9 100 417.9 99.9C417.9 99.9 417.9 99.8 418 99.8V99.7C418 99.6 418.1 99.5 418.1 99.4C418.1 99.3 418.2 99.2 418.2 99.1C418.2 99 418.3 98.9 418.3 98.8C418.3 98.7 418.3 98.7 418.3 98.6V98.5C418.3 98.4 418.3 98.3 418.4 98.2C418.4 98.1 418.4 98 418.4 97.9C418.4 97.8 418.4 97.7 418.4 97.6C418.4 97.5 418.4 97.5 418.4 97.4C418.4 97.3 418.4 97.3 418.4 97.2L418.6 85.5C418.9 85.6 418.9 85.7 418.9 85.8Z" fill="#2F58FF"/>
<path d="M418.7 72.5001C419.5 69.1001 417.7 65.5001 413.1 62.8001C405.4 58.2001 392.8 58.1001 385 62.5001C380.5 65.1001 378.6 68.6001 379.3 72.1001L380.2 78.1001L393.5 86.0001L405.3 86.8001L414.2 80.5001L418.1 76.2001L418.7 72.5001Z" fill="white"/>
<path d="M418.9 71.3999C418.9 71.4999 418.9 71.5999 418.9 71.6999C418.9 71.7999 418.9 71.8999 418.9 71.9999C418.9 72.0999 418.9 72.1999 418.8 72.2999C418.8 72.3999 418.8 72.4999 418.7 72.5999C418.7 72.6999 418.7 72.7999 418.6 72.8999C418.6 72.9999 418.5 73.0999 418.5 73.1999C418.5 73.2999 418.4 73.3999 418.4 73.4999C418.4 73.5999 418.3 73.6999 418.3 73.7999C418.3 73.8999 418.2 73.9999 418.2 74.0999C418.2 74.1999 418.1 74.2999 418.1 74.2999C418.1 74.3999 418 74.4999 417.9 74.5999C417.8 74.6999 417.8 74.7999 417.7 74.8999C417.7 74.8999 417.7 74.8999 417.7 74.9999C417.6 75.1999 417.5 75.2999 417.4 75.3999C417.4 75.3999 417.4 75.4999 417.3 75.4999C417.2 75.5999 417.1 75.7999 417 75.8999C417 75.8999 417 75.9999 416.9 75.9999C416.8 76.0999 416.7 76.2999 416.6 76.3999L416.5 76.4999C416.4 76.5999 416.2 76.7999 416.1 76.8999L416 76.9999C415.9 77.0999 415.8 77.1999 415.7 77.2999C415.6 77.3999 415.5 77.4999 415.4 77.4999C415.3 77.5999 415.2 77.6999 415.1 77.6999C415 77.7999 414.9 77.8999 414.8 77.8999C414.7 77.9999 414.6 77.9999 414.5 78.0999C414.4 78.1999 414.3 78.2999 414.2 78.2999C414.1 78.3999 414 78.3999 413.9 78.4999C413.8 78.5999 413.7 78.5999 413.5 78.6999C413.3 78.7999 413.2 78.8999 413 78.9999C412.7 79.1999 412.4 79.2999 412.1 79.4999C412 79.4999 411.9 79.5999 411.8 79.5999C411.6 79.6999 411.3 79.7999 411.1 79.8999C411 79.8999 410.9 79.9999 410.8 79.9999C410.5 80.0999 410.1 80.2999 409.8 80.3999C409.7 80.3999 409.7 80.3999 409.6 80.4999C409.3 80.5999 409 80.6999 408.7 80.7999C408.6 80.7999 408.5 80.8999 408.3 80.8999C408.1 80.8999 408 80.9999 407.8 80.9999C407.7 80.9999 407.5 81.0999 407.4 81.0999C407.2 81.0999 407.1 81.1999 406.9 81.1999C406.8 81.1999 406.6 81.2999 406.5 81.2999C406.3 81.2999 406.2 81.3999 406 81.3999C405.9 81.3999 405.7 81.4999 405.6 81.4999C405.4 81.4999 405.3 81.5999 405.1 81.5999C405 81.5999 404.8 81.5999 404.7 81.6999C404.3 81.7999 404 81.7999 403.6 81.8999C403.5 81.8999 403.5 81.8999 403.4 81.8999C403.1 81.8999 402.7 81.9999 402.4 81.9999C402.3 81.9999 402.1 81.9999 402 81.9999C401.8 81.9999 401.6 81.9999 401.4 81.9999C401.3 81.9999 401.1 81.9999 401 81.9999C400.8 81.9999 400.6 81.9999 400.3 81.9999C400.2 81.9999 400 81.9999 399.9 81.9999C399.7 81.9999 399.5 81.9999 399.3 81.9999C399.2 81.9999 399 81.9999 398.9 81.9999C398.7 81.9999 398.5 81.9999 398.3 81.9999C398.2 81.9999 398.1 81.9999 397.9 81.9999C397.7 81.9999 397.5 81.9999 397.3 81.9999C397.2 81.9999 397 81.9999 396.9 81.9999C396.7 81.9999 396.5 81.9999 396.3 81.9999C396.2 81.9999 396.1 81.9999 396 81.9999C395.8 81.9999 395.5 81.8999 395.3 81.8999C395.2 81.8999 395.2 81.8999 395.1 81.8999C394.8 81.8999 394.5 81.7999 394.2 81.7999H394.1C393.8 81.7999 393.6 81.6999 393.3 81.6999C393.2 81.6999 393.1 81.6999 393 81.5999C392.8 81.5999 392.6 81.4999 392.4 81.4999C392.3 81.4999 392.2 81.4999 392.1 81.3999C391.9 81.2999 391.7 81.2999 391.4 81.1999C391.3 81.1999 391.2 81.0999 391 81.0999C390.8 80.9999 390.6 80.9999 390.4 80.8999C390.3 80.8999 390.2 80.7999 390.1 80.7999C389.8 80.6999 389.5 80.5999 389.2 80.4999C389.1 80.4999 389.1 80.4999 389 80.3999C388.6 80.2999 388.3 80.0999 388 79.9999C387.9 79.8999 387.7 79.8999 387.6 79.7999C387.5 79.7999 387.4 79.6999 387.3 79.6999C387.1 79.5999 387 79.5999 386.8 79.4999C386.7 79.4999 386.6 79.3999 386.5 79.3999C386.3 79.2999 386.2 79.1999 386 79.0999C385.9 79.0999 385.8 78.9999 385.8 78.9999C385.6 78.8999 385.3 78.6999 385.1 78.5999C381.2 76.2999 379.3 73.2999 379.3 70.3999L379.1 82.0999C379.1 85.0999 381 87.9999 384.9 90.2999C385.1 90.3999 385.4 90.5999 385.6 90.6999C385.7 90.6999 385.8 90.7999 385.8 90.7999C386 90.8999 386.1 90.9999 386.3 91.0999C386.4 91.0999 386.5 91.1999 386.6 91.1999C386.8 91.2999 386.9 91.2999 387.1 91.3999C387.2 91.3999 387.3 91.4999 387.4 91.4999C387.5 91.4999 387.6 91.5999 387.7 91.5999H387.8C388.1 91.6999 388.5 91.8999 388.8 91.9999C388.9 91.9999 388.9 91.9999 389 92.0999C389.3 92.1999 389.6 92.2999 389.9 92.3999C390 92.3999 390 92.3999 390.1 92.4999C390.2 92.4999 390.2 92.4999 390.3 92.5999C390.5 92.6999 390.7 92.6999 390.9 92.7999C391 92.7999 391.1 92.8999 391.3 92.8999C391.5 92.9999 391.7 92.9999 392 93.0999C392.1 93.0999 392.2 93.0999 392.2 93.1999C392.2 93.1999 392.2 93.1999 392.3 93.1999C392.5 93.1999 392.7 93.2999 392.9 93.2999C393 93.2999 393.1 93.2999 393.2 93.3999C393.5 93.3999 393.7 93.4999 394 93.4999H394.1C394.4 93.4999 394.7 93.5999 395 93.5999C395.1 93.5999 395.1 93.5999 395.2 93.5999C395.4 93.5999 395.7 93.6999 395.9 93.6999C396 93.6999 396.1 93.6999 396.2 93.6999C396.4 93.6999 396.6 93.6999 396.8 93.6999C396.9 93.6999 397.1 93.6999 397.2 93.6999C397.4 93.6999 397.6 93.6999 397.8 93.6999C397.9 93.6999 398 93.6999 398.1 93.6999C398.3 93.6999 398.5 93.6999 398.7 93.6999C398.8 93.6999 399 93.6999 399.1 93.6999C399.3 93.6999 399.5 93.6999 399.7 93.6999H399.8C399.9 93.6999 400 93.6999 400.1 93.6999C400.3 93.6999 400.5 93.6999 400.8 93.6999C400.9 93.6999 401.1 93.6999 401.2 93.6999C401.4 93.6999 401.6 93.6999 401.8 93.6999C401.9 93.6999 401.9 93.6999 402 93.6999C402.1 93.6999 402.1 93.6999 402.2 93.6999C402.5 93.6999 402.9 93.5999 403.2 93.5999C403.3 93.5999 403.3 93.5999 403.4 93.5999C403.8 93.5999 404.2 93.4999 404.5 93.3999H404.6C404.7 93.3999 404.8 93.3999 404.9 93.2999C405.1 93.2999 405.2 93.1999 405.4 93.1999C405.5 93.1999 405.7 93.0999 405.8 93.0999C406 93.0999 406.1 92.9999 406.3 92.9999C406.4 92.9999 406.6 92.8999 406.7 92.8999C406.9 92.8999 407 92.7999 407.2 92.7999C407.3 92.7999 407.5 92.6999 407.6 92.6999C407.8 92.6999 407.9 92.5999 408.1 92.5999C408.2 92.5999 408.2 92.5999 408.3 92.4999C408.4 92.4999 408.4 92.4999 408.4 92.3999C408.7 92.2999 409 92.1999 409.3 92.0999C409.4 92.0999 409.4 92.0999 409.5 91.9999C409.8 91.8999 410.2 91.6999 410.5 91.5999C410.6 91.5999 410.7 91.4999 410.8 91.4999C411.1 91.3999 411.3 91.2999 411.5 91.1999C411.6 91.1999 411.7 91.0999 411.8 91.0999C412.1 90.8999 412.4 90.7999 412.7 90.5999C412.8 90.5999 412.9 90.4999 412.9 90.4999C413 90.4999 413 90.3999 413.1 90.3999C413.2 90.2999 413.3 90.2999 413.5 90.1999C413.6 90.0999 413.7 90.0999 413.8 89.9999C413.9 89.8999 414 89.7999 414.1 89.7999C414.2 89.6999 414.3 89.6999 414.4 89.5999C414.5 89.4999 414.6 89.3999 414.7 89.3999C414.8 89.2999 414.9 89.2999 415 89.1999C415.1 89.0999 415.2 88.9999 415.3 88.9999L415.4 88.8999C415.5 88.7999 415.6 88.7999 415.6 88.6999L415.7 88.5999C415.8 88.4999 416 88.2999 416.1 88.1999L416.2 88.0999C416.3 87.9999 416.4 87.8999 416.5 87.6999C416.5 87.6999 416.5 87.5999 416.6 87.5999C416.7 87.4999 416.8 87.2999 416.9 87.1999C416.9 87.1999 416.9 87.0999 417 87.0999C417.1 86.9999 417.2 86.7999 417.3 86.6999C417.3 86.6999 417.3 86.6999 417.3 86.5999C417.3 86.4999 417.4 86.4999 417.4 86.3999C417.4 86.3999 417.4 86.2999 417.5 86.2999C417.6 86.1999 417.6 86.0999 417.7 85.9999C417.7 85.8999 417.8 85.7999 417.8 85.7999C417.8 85.6999 417.9 85.5999 417.9 85.4999C417.9 85.4999 417.9 85.3999 418 85.3999V85.2999C418 85.1999 418.1 85.0999 418.1 84.9999C418.1 84.8999 418.2 84.7999 418.2 84.6999C418.2 84.5999 418.3 84.4999 418.3 84.3999C418.3 84.2999 418.3 84.2999 418.3 84.1999V84.0999C418.3 83.9999 418.3 83.8999 418.4 83.7999C418.4 83.6999 418.4 83.5999 418.4 83.4999C418.4 83.3999 418.4 83.2999 418.4 83.1999C418.4 83.0999 418.4 83.0999 418.4 82.9999C418.4 82.8999 418.4 82.8999 418.4 82.7999L418.6 71.0999C418.9 71.1999 418.9 71.2999 418.9 71.3999Z" fill="#2F58FF"/>
<path d="M379.4 72C378.7 68.6 380.6 65 385.1 62.4C392.9 58 405.4 58.1 413.2 62.7C417.7 65.4 419.6 69 418.8 72.4" stroke="#171A21" stroke-width="2" stroke-miterlimit="10" stroke-linecap="round" stroke-linejoin="round"/>
<path d="M427.2 114.6C427 114.4 426.8 114.1 426.6 113.8C426.4 113.5 426.2 113.2 426 112.9C425.9 112.7 425.7 112.5 425.6 112.3C425.5 112.1 425.4 111.9 425.2 111.7C425 111.4 424.9 111.1 424.7 110.8C424.6 110.6 424.5 110.5 424.4 110.3C424.2 110 424.1 109.6 423.9 109.3C423.8 109.2 423.8 109 423.7 108.9C423.5 108.4 423.3 107.9 423.1 107.4C423.1 107.3 423.1 107.3 423 107.2C422.8 106.8 422.7 106.3 422.5 105.8C422.5 105.7 422.4 105.5 422.4 105.4C422.3 105 422.1 104.5 422 104.1C422 104 421.9 103.9 421.9 103.8C421.8 103.3 421.6 102.8 421.5 102.2C421.5 102 421.4 101.9 421.4 101.7C421.3 101.3 421.3 100.9 421.2 100.6C421.2 100.4 421.1 100.2 421.1 99.9998C421.1 99.6998 421 99.3998 421 98.9998C421 98.6998 420.9 98.4998 420.9 98.1998C420.9 97.8998 420.9 97.6998 420.9 97.3998C420.9 96.9998 420.9 96.4998 420.9 96.0998C420.9 95.7998 420.9 95.5998 420.9 95.2998C420.9 95.0998 420.9 94.8998 420.9 94.6998C420.9 94.3998 420.9 93.9998 421 93.6998C421 93.4998 421 93.2998 421.1 93.0998C421.1 92.6998 421.2 92.3998 421.2 92.0998C421.2 91.8998 421.2 91.7998 421.3 91.5998C421.4 91.0998 421.5 90.5998 421.6 90.0998C421.7 89.5998 421.9 89.1998 422 88.7998C422 88.6998 422.1 88.5998 422.1 88.4998C422.3 88.0998 422.4 87.6998 422.6 87.3998C422.6 87.3998 422.6 87.3998 422.6 87.2998C422.8 86.9998 422.9 86.6998 423.1 86.3998C423.2 86.1998 423.3 86.0998 423.4 85.8998C423.5 85.6998 423.7 85.4998 423.8 85.2998C423.9 85.1998 424 85.0998 424.1 84.9998C424.3 84.7998 424.5 84.5998 424.7 84.3998L424.8 84.2998C425.1 84.0998 425.3 83.8998 425.6 83.6998C425.7 83.6998 425.7 83.5998 425.8 83.5998C426 83.4998 426.2 83.2998 426.5 83.1998C426.6 83.1998 426.6 83.0998 426.7 83.0998C427 82.9998 427.3 82.8998 427.6 82.7998L415.5 85.9998H415.4C415.2 86.0998 414.9 86.0998 414.7 86.1998C414.7 86.1998 414.6 86.1998 414.6 86.2998C414.5 86.2998 414.5 86.3998 414.4 86.3998C414.3 86.4998 414.2 86.4998 414.1 86.5998C414 86.6998 413.9 86.6998 413.8 86.7998C413.7 86.7998 413.7 86.8998 413.6 86.8998C413.6 86.8998 413.5 86.8998 413.5 86.9998C413.3 87.1998 413.1 87.2998 412.9 87.4998L412.8 87.5998C412.6 87.6998 412.5 87.8998 412.3 87.9998C412.3 88.0998 412.2 88.0998 412.2 88.1998C412.1 88.2998 412 88.3998 411.9 88.4998C411.8 88.5998 411.7 88.6998 411.7 88.7998C411.6 88.8998 411.6 88.9998 411.5 89.0998C411.4 89.2998 411.3 89.3998 411.2 89.5998C411.1 89.6998 411.1 89.7998 411 89.8998C410.9 90.0998 410.8 90.2998 410.7 90.4998C410.7 90.4998 410.7 90.4998 410.7 90.5998C410.6 90.8998 410.5 91.0998 410.3 91.3998C410.3 91.4998 410.2 91.5998 410.2 91.6998C410.2 91.7998 410.1 91.8998 410.1 91.9998C409.9 92.3998 409.8 92.8998 409.7 93.2998C409.6 93.7998 409.5 94.2998 409.4 94.7998C409.4 94.9998 409.3 95.0998 409.3 95.2998C409.2 95.5998 409.2 95.9998 409.2 96.2998C409.2 96.4998 409.2 96.6998 409.1 96.8998C409.1 97.1998 409 97.5998 409 97.8998C409 98.0998 409 98.2998 409 98.4998C409 98.5998 409 98.7998 409 98.8998C409 98.9998 409 99.1998 409 99.2998C409 99.6998 409 100.2 409 100.6C409 100.7 409 100.9 409 101C409 101.1 409 101.2 409 101.4C409 101.7 409.1 101.9 409.1 102.2C409.1 102.4 409.1 102.6 409.2 102.7C409.2 102.8 409.2 103 409.3 103.1C409.3 103.3 409.4 103.5 409.4 103.7C409.4 103.8 409.4 104 409.5 104.1C409.5 104.3 409.6 104.6 409.6 104.8C409.6 105 409.7 105.1 409.7 105.3C409.7 105.4 409.7 105.4 409.7 105.5C409.8 105.9 409.9 106.4 410 106.8V106.9C410 107 410.1 107.1 410.1 107.2C410.2 107.5 410.3 107.8 410.4 108.1C410.4 108.2 410.5 108.4 410.5 108.5C410.5 108.6 410.6 108.8 410.6 108.9C410.6 109 410.7 109.1 410.7 109.3C410.8 109.6 410.9 110 411.1 110.3C411.1 110.4 411.1 110.4 411.2 110.5C411.4 110.9 411.5 111.3 411.7 111.7C411.7 111.8 411.8 111.8 411.8 111.9C411.9 112 411.9 112.2 412 112.3C412.1 112.5 412.2 112.7 412.3 112.9C412.4 113 412.5 113.2 412.5 113.3C412.6 113.5 412.7 113.6 412.8 113.8C412.9 113.9 412.9 114 413 114.1C413.1 114.3 413.2 114.5 413.3 114.6C413.4 114.8 413.5 115 413.7 115.2C413.7 115.3 413.8 115.3 413.8 115.4C413.9 115.5 414 115.7 414.1 115.8C414.3 116.1 414.5 116.4 414.7 116.7C414.8 116.8 414.8 116.9 414.9 116.9C415 117.1 415.2 117.2 415.3 117.4C415.4 117.5 415.5 117.6 415.6 117.8C415.9 118.2 416.3 118.5 416.6 118.9C419.6 121.9 422.7 122.9 425.4 122.2L437.5 119C434.8 119.7 431.7 118.7 428.7 115.7C428.4 115.4 428 115 427.7 114.6C427.4 114.8 427.3 114.7 427.2 114.6Z" fill="#2F58FF"/>
<path d="M421.6 90.2999C423.8 82.0999 430.5 80.2999 436.5 86.1999C442.5 92.0999 445.6 103.7 443.4 111.9C441.2 120.1 434.5 121.9 428.5 116C422.5 110.1 419.4 98.4999 421.6 90.2999Z" fill="white"/>
<path d="M424.7 84.5999C427.8 81.6999 432.3 82.0999 436.4 86.1999C442.4 92.1999 445.5 103.7 443.3 111.9C441.6 118.3 437.1 120.8 432.4 118.8" stroke="#171A21" stroke-width="2" stroke-miterlimit="10" stroke-linecap="round" stroke-linejoin="round"/>
</g>
<defs>
<clipPath id="clip0">
<rect width="468.7" height="339.5" fill="white"/>
</clipPath>
</defs>
</svg>
