<svg width="469" height="340" viewBox="0 0 469 340" fill="none" xmlns="http://www.w3.org/2000/svg">
<g clip-path="url(#clip0)">
<path d="M19 93.6001L279.9 244.2" stroke="#171A21" stroke-width="2" stroke-miterlimit="10" stroke-linecap="round" stroke-linejoin="round"/>
<path d="M95.8 311.2L436.9 113" stroke="#171A21" stroke-width="2" stroke-miterlimit="10" stroke-linecap="round" stroke-linejoin="round"/>
<path d="M330.3 150.6C328.6 149.6 326.8 148.6 325 147.7" stroke="#171A21" stroke-width="2" stroke-linecap="round" stroke-linejoin="round"/>
<path d="M314.3 142.6C260.4 119.8 184.5 122.4 136.1 150.6C82.6001 181.7 82.9001 232.1 136.7 263.1C190.5 294.2 277.5 294.2 331 263.1C380.9 234.1 384 188.3 340.4 157.1" stroke="#171A21" stroke-width="2" stroke-linecap="round" stroke-linejoin="round" stroke-dasharray="11.96 11.96"/>
<path d="M335.5 153.7C333.8 152.6 332.1 151.6 330.4 150.6" stroke="#171A21" stroke-width="2" stroke-linecap="round" stroke-linejoin="round"/>
<path d="M467.2 116.4C469.6 105.9 463.9 94.9 450.1 86.9C426.4 73.1 387.9 73.1 364 86.9C350 95 344.2 106 346.5 116.5C346.5 116.5 346.2 157.8 406.9 157.8C467.6 157.8 467.2 116.4 467.2 116.4Z" fill="white"/>
<path d="M346 113.1C346 113.4 346 113.7 346.1 114C346.1 114.3 346.2 114.5 346.2 114.8C346.2 115.1 346.3 115.4 346.3 115.7C346.3 116 346.4 116.2 346.5 116.5C346.6 116.8 346.6 117.1 346.7 117.4C346.8 117.7 346.9 117.9 346.9 118.2C347 118.5 347.1 118.8 347.2 119.1C347.3 119.4 347.4 119.6 347.5 119.9C347.6 120.2 347.8 120.5 347.9 120.8C348 121.1 348.1 121.3 348.3 121.6C348.4 121.9 348.6 122.2 348.8 122.5C349 122.8 349.1 123.1 349.3 123.5C349.3 123.6 349.4 123.7 349.4 123.7C349.7 124.2 350 124.6 350.3 125.1C350.4 125.2 350.4 125.3 350.5 125.4C350.8 125.9 351.2 126.3 351.5 126.8C351.6 126.9 351.6 127 351.7 127.1C352 127.5 352.3 127.9 352.7 128.3C352.8 128.4 352.9 128.5 353 128.6C353.4 129 353.8 129.5 354.3 129.9C354.4 130 354.5 130.1 354.5 130.1C354.8 130.4 355.2 130.7 355.5 131.1C355.8 131.4 356.1 131.6 356.4 131.9C356.7 132.1 357 132.4 357.2 132.6C357.5 132.9 357.8 133.1 358.2 133.3C358.5 133.5 358.8 133.8 359.1 134C359.4 134.2 359.8 134.5 360.1 134.7C360.4 134.9 360.7 135.1 361.1 135.4C361.5 135.6 361.8 135.9 362.2 136.1C362.7 136.4 363.1 136.7 363.6 137C364.5 137.5 365.4 138 366.4 138.5C366.7 138.6 367 138.8 367.2 138.9C367.9 139.3 368.7 139.6 369.5 140C369.8 140.1 370 140.2 370.3 140.3C371.3 140.7 372.3 141.1 373.3 141.5C373.5 141.6 373.7 141.6 373.8 141.7C374.7 142 375.6 142.3 376.4 142.6C376.8 142.7 377.1 142.8 377.5 143C378 143.2 378.5 143.3 379 143.5C379.4 143.6 379.8 143.7 380.3 143.9C380.8 144 381.3 144.2 381.8 144.3C382.2 144.4 382.6 144.5 383.1 144.6C383.6 144.7 384.1 144.8 384.7 145C385.1 145.1 385.6 145.2 386 145.3C386.5 145.4 387.1 145.5 387.6 145.6C388 145.7 388.4 145.8 388.8 145.8C389.9 146 391.1 146.2 392.2 146.3C392.4 146.3 392.5 146.3 392.7 146.4C393.7 146.5 394.7 146.7 395.7 146.8C396.1 146.8 396.5 146.9 396.9 146.9C397.6 147 398.2 147 398.9 147.1C399.3 147.1 399.7 147.2 400.1 147.2C400.8 147.2 401.5 147.3 402.1 147.3C402.5 147.3 402.9 147.3 403.3 147.3C403.9 147.3 404.5 147.3 405.1 147.3C405.5 147.3 405.9 147.3 406.3 147.3C406.9 147.3 407.6 147.3 408.2 147.3C408.6 147.3 408.9 147.3 409.3 147.3C409.9 147.3 410.5 147.3 411 147.2C411.4 147.2 411.8 147.2 412.2 147.1C412.8 147.1 413.5 147 414.1 147C414.5 147 414.8 147 415.2 146.9C416 146.8 416.7 146.8 417.5 146.7C417.7 146.7 418 146.7 418.2 146.6C419.2 146.5 420.1 146.4 421.1 146.2C421.3 146.2 421.4 146.2 421.6 146.1C422.4 146 423.3 145.9 424.1 145.7C424.4 145.6 424.8 145.6 425.1 145.5C425.7 145.4 426.4 145.3 427 145.1C427.3 145 427.7 145 428 144.9C428.7 144.8 429.4 144.6 430 144.4C430.4 144.3 430.8 144.2 431.1 144.1C431.7 143.9 432.3 143.8 432.9 143.6C433.2 143.5 433.6 143.4 433.9 143.3C434.9 143 435.8 142.7 436.8 142.4C437 142.3 437.1 142.3 437.3 142.2C438.4 141.8 439.5 141.4 440.5 141C440.9 140.8 441.4 140.7 441.8 140.5C442.1 140.4 442.5 140.2 442.8 140.1C443.3 139.9 443.7 139.7 444.2 139.5C444.5 139.4 444.8 139.2 445.1 139.1C445.6 138.9 446.1 138.6 446.6 138.3C446.8 138.2 447.1 138.1 447.3 137.9C448 137.5 448.8 137.1 449.5 136.7C461.5 129.8 467.5 120.7 467.5 111.6L467.7 130C467.7 139.1 461.7 148.2 449.7 155.1C449 155.5 448.2 155.9 447.5 156.3C447.3 156.4 447 156.5 446.8 156.7C446.3 157 445.8 157.2 445.3 157.5C445 157.6 444.7 157.8 444.4 157.9C443.9 158.1 443.5 158.3 443 158.5C442.7 158.6 442.3 158.8 442 158.9C441.7 159 441.4 159.2 441 159.3C440.9 159.3 440.8 159.4 440.7 159.4C439.6 159.8 438.6 160.2 437.5 160.6C437.3 160.7 437.2 160.7 437 160.8C436.1 161.1 435.1 161.4 434.1 161.7C433.9 161.7 433.8 161.8 433.6 161.8C433.4 161.9 433.2 161.9 433 161.9C432.4 162.1 431.8 162.2 431.2 162.4C430.8 162.5 430.4 162.6 430.1 162.7C429.4 162.9 428.7 163 428.1 163.2C427.8 163.3 427.6 163.3 427.3 163.4C427.2 163.4 427.2 163.4 427.1 163.4C426.5 163.5 425.8 163.6 425.2 163.8C424.9 163.9 424.5 163.9 424.2 164C423.4 164.1 422.5 164.3 421.7 164.4C421.6 164.4 421.4 164.4 421.3 164.5C420.3 164.6 419.4 164.8 418.4 164.9C418.2 164.9 417.9 164.9 417.7 165C417 165.1 416.2 165.2 415.4 165.2C415.4 165.2 415.4 165.2 415.3 165.2C415 165.2 414.6 165.2 414.3 165.3C413.7 165.3 413 165.4 412.4 165.4C412 165.4 411.6 165.4 411.2 165.5C410.6 165.5 410 165.6 409.5 165.6H409.4C409.1 165.6 408.7 165.6 408.4 165.6C407.8 165.6 407.1 165.6 406.5 165.6C406.1 165.6 405.7 165.6 405.3 165.6C404.7 165.6 404.1 165.6 403.5 165.6C403.4 165.6 403.3 165.6 403.2 165.6C402.9 165.6 402.7 165.6 402.4 165.6C401.7 165.6 401 165.5 400.4 165.5C400 165.5 399.6 165.4 399.2 165.4C398.5 165.4 397.9 165.3 397.2 165.2C397 165.2 396.7 165.2 396.5 165.1C396.3 165.1 396.2 165.1 396 165C395 164.9 394 164.8 393 164.6C392.8 164.6 392.7 164.6 392.5 164.5C391.3 164.3 390.2 164.2 389.1 164C389 164 388.9 164 388.8 163.9C388.5 163.8 388.2 163.8 387.9 163.7C387.4 163.6 386.8 163.5 386.3 163.4C385.9 163.3 385.4 163.2 385 163.1C384.5 163 384 162.9 383.4 162.7C383 162.6 382.5 162.5 382.1 162.4C381.6 162.3 381.1 162.1 380.6 162C380.2 161.9 379.8 161.8 379.3 161.6C378.8 161.5 378.3 161.3 377.8 161.1C377.6 161 377.4 161 377.2 160.9C377 160.9 376.9 160.8 376.7 160.7C375.8 160.4 374.9 160.1 374.1 159.8C373.9 159.7 373.7 159.7 373.6 159.6C372.6 159.2 371.6 158.8 370.6 158.4C370.3 158.3 370.1 158.2 369.8 158.1C369 157.8 368.3 157.4 367.5 157C367.2 156.9 366.9 156.7 366.7 156.6C365.7 156.1 364.8 155.6 363.9 155.1C363.6 155 363.4 154.8 363.2 154.7C363 154.6 362.8 154.4 362.5 154.3C362.1 154.1 361.8 153.8 361.4 153.6C361.1 153.4 360.7 153.2 360.4 152.9C360.1 152.7 359.7 152.4 359.4 152.2C359.1 152 358.8 151.8 358.5 151.5C358.2 151.3 357.9 151 357.5 150.8C357.2 150.6 356.9 150.3 356.7 150.1C356.4 149.8 356.1 149.6 355.8 149.3C355.7 149.2 355.6 149.1 355.4 149C355.2 148.8 354.9 148.6 354.7 148.3C354.6 148.2 354.5 148.1 354.5 148.1C354.1 147.7 353.6 147.2 353.2 146.8C353.1 146.7 353 146.6 352.9 146.5C352.6 146.1 352.2 145.7 351.9 145.3C351.8 145.2 351.8 145.1 351.7 145L351.6 144.9C351.3 144.5 351 144.1 350.7 143.7C350.6 143.6 350.6 143.5 350.5 143.4C350.2 142.9 349.9 142.5 349.6 142C349.6 141.9 349.5 141.8 349.5 141.8C349.4 141.6 349.3 141.5 349.2 141.3C349.1 141.2 349.1 141 349 140.9C348.8 140.6 348.7 140.3 348.5 140C348.4 139.7 348.3 139.5 348.1 139.2C348 138.9 347.8 138.6 347.7 138.3C347.6 138.2 347.6 138 347.5 137.9C347.5 137.8 347.4 137.7 347.4 137.5C347.3 137.2 347.2 136.9 347.1 136.6C347 136.3 346.9 136.1 346.9 135.8C346.8 135.5 346.8 135.2 346.7 134.9C346.7 134.7 346.6 134.6 346.6 134.4C346.6 134.3 346.6 134.2 346.5 134.1C346.4 133.8 346.4 133.5 346.4 133.2C346.4 132.9 346.3 132.7 346.3 132.4C346.3 132.1 346.3 131.8 346.2 131.5C346.2 131.3 346.2 131.1 346.2 131C346.2 130.8 346.2 130.6 346.2 130.5L346 112C346 112.4 346 112.7 346 113.1Z" fill="#171A21"/>
<path d="M467.2 116.4C469.6 105.9 463.9 94.9 450.1 86.9C426.4 73.1 387.9 73.1 364 86.9C350 95 344.2 106 346.5 116.5" stroke="#171A21" stroke-width="2" stroke-miterlimit="10" stroke-linecap="round" stroke-linejoin="round"/>
<path d="M122.2 106.4C124.6 95.9 118.9 84.9 105.1 76.9C81.4 63.1 42.9 63.1 19 76.9C5.00003 85 -0.799973 96 1.50003 106.5C1.50003 106.5 1.20003 147.8 61.9 147.8C122.6 147.8 122.2 106.4 122.2 106.4Z" fill="white"/>
<path d="M1 103.1C1 103.4 1 103.7 1.1 104C1.1 104.3 1.2 104.5 1.2 104.8C1.2 105.1 1.3 105.4 1.3 105.7C1.3 106 1.4 106.2 1.5 106.5C1.6 106.8 1.6 107.1 1.7 107.4C1.8 107.7 1.9 107.9 1.9 108.2C2 108.5 2.1 108.8 2.2 109.1C2.3 109.4 2.4 109.6 2.5 109.9C2.6 110.2 2.8 110.5 2.9 110.8C3 111.1 3.1 111.3 3.3 111.6C3.4 111.9 3.6 112.2 3.8 112.5C4 112.8 4.1 113.1 4.3 113.5C4.3 113.6 4.4 113.7 4.4 113.7C4.7 114.2 5 114.6 5.3 115.1C5.4 115.2 5.4 115.3 5.5 115.4C5.8 115.9 6.2 116.3 6.5 116.8C6.6 116.9 6.6 117 6.7 117.1C7 117.5 7.3 117.9 7.7 118.3C7.8 118.4 7.9 118.5 8 118.6C8.4 119 8.8 119.5 9.3 119.9C9.4 120 9.5 120.1 9.5 120.1C9.8 120.4 10.2 120.7 10.5 121.1C10.8 121.4 11.1 121.6 11.4 121.9C11.7 122.1 12 122.4 12.2 122.6C12.5 122.9 12.8 123.1 13.2 123.3C13.5 123.5 13.8 123.8 14.1 124C14.4 124.2 14.8 124.5 15.1 124.7C15.4 124.9 15.7 125.1 16.1 125.4C16.5 125.6 16.8 125.9 17.2 126.1C17.7 126.4 18.1 126.7 18.6 127C19.5 127.5 20.4 128 21.4 128.5C21.7 128.6 22 128.8 22.2 128.9C22.9 129.3 23.7 129.6 24.5 130C24.8 130.1 25 130.2 25.3 130.3C26.3 130.7 27.3 131.1 28.3 131.5C28.5 131.6 28.7 131.6 28.8 131.7C29.7 132 30.6 132.3 31.4 132.6C31.8 132.7 32.1 132.8 32.5 133C33 133.2 33.5 133.3 34 133.5C34.4 133.6 34.8 133.7 35.3 133.9C35.8 134 36.3 134.2 36.8 134.3C37.2 134.4 37.6 134.5 38.1 134.6C38.6 134.7 39.1 134.8 39.7 135C40.1 135.1 40.6 135.2 41 135.3C41.5 135.4 42.1 135.5 42.6 135.6C43 135.7 43.4 135.8 43.8 135.8C44.9 136 46.1 136.2 47.2 136.3C47.4 136.3 47.5 136.3 47.7 136.4C48.7 136.5 49.7 136.7 50.7 136.8C51.1 136.8 51.5 136.9 51.9 136.9C52.6 137 53.2 137 53.9 137.1C54.3 137.1 54.7 137.2 55.1 137.2C55.8 137.2 56.5 137.3 57.1 137.3C57.5 137.3 57.9 137.3 58.3 137.3C58.9 137.3 59.5 137.3 60.1 137.3C60.5 137.3 60.9 137.3 61.3 137.3C61.9 137.3 62.6 137.3 63.2 137.3C63.6 137.3 63.9 137.3 64.3 137.3C64.9 137.3 65.5 137.3 66 137.2C66.4 137.2 66.8 137.2 67.2 137.1C67.8 137.1 68.5 137 69.1 137C69.5 137 69.8 137 70.2 136.9C71 136.8 71.7 136.8 72.5 136.7C72.7 136.7 73 136.7 73.2 136.6C74.2 136.5 75.1 136.4 76.1 136.2C76.3 136.2 76.4 136.2 76.6 136.1C77.4 136 78.3 135.9 79.1 135.7C79.4 135.6 79.8 135.6 80.1 135.5C80.7 135.4 81.4 135.3 82 135.1C82.3 135 82.7 135 83 134.9C83.7 134.8 84.4 134.6 85 134.4C85.4 134.3 85.8 134.2 86.1 134.1C86.7 133.9 87.3 133.8 87.9 133.6C88.2 133.5 88.6 133.4 88.9 133.3C89.9 133 90.8 132.7 91.8 132.4C92 132.3 92.1 132.3 92.3 132.2C93.4 131.8 94.5 131.4 95.5 131C95.9 130.8 96.4 130.7 96.8 130.5C97.1 130.4 97.5 130.2 97.8 130.1C98.3 129.9 98.7 129.7 99.2 129.5C99.5 129.4 99.8 129.2 100.1 129.1C100.6 128.9 101.1 128.6 101.6 128.3C101.8 128.2 102.1 128.1 102.3 127.9C103 127.5 103.8 127.1 104.5 126.7C116.5 119.8 122.5 110.7 122.5 101.6L122.7 120C122.7 129.1 116.7 138.2 104.7 145.1C104 145.5 103.2 145.9 102.5 146.3C102.3 146.4 102 146.5 101.8 146.7C101.3 147 100.8 147.2 100.3 147.5C100 147.6 99.7 147.8 99.4 147.9C98.9 148.1 98.5 148.3 98 148.5C97.7 148.6 97.3 148.8 97 148.9C96.7 149 96.4 149.2 96 149.3C95.9 149.3 95.8 149.4 95.7 149.4C94.6 149.8 93.6 150.2 92.5 150.6C92.3 150.7 92.2 150.7 92 150.8C91.1 151.1 90.1 151.4 89.1 151.7C88.9 151.7 88.8 151.8 88.6 151.8C88.4 151.9 88.2 151.9 88 151.9C87.4 152.1 86.8 152.2 86.2 152.4C85.8 152.5 85.4 152.6 85.1 152.7C84.4 152.9 83.7 153 83.1 153.2C82.8 153.3 82.6 153.3 82.3 153.4C82.2 153.4 82.2 153.4 82.1 153.4C81.5 153.5 80.8 153.6 80.2 153.8C79.9 153.9 79.5 153.9 79.2 154C78.4 154.1 77.5 154.3 76.7 154.4C76.6 154.4 76.4 154.4 76.3 154.5C75.3 154.6 74.4 154.8 73.4 154.9C73.2 154.9 72.9 154.9 72.7 155C72 155.1 71.2 155.2 70.4 155.2C70.4 155.2 70.4 155.2 70.3 155.2C70 155.2 69.6 155.2 69.3 155.3C68.7 155.3 68 155.4 67.4 155.4C67 155.4 66.6 155.4 66.2 155.5C65.6 155.5 65 155.6 64.5 155.6H64.4C64.1 155.6 63.7 155.6 63.4 155.6C62.8 155.6 62.1 155.6 61.5 155.6C61.1 155.6 60.7 155.6 60.3 155.6C59.7 155.6 59.1 155.6 58.5 155.6C58.4 155.6 58.3 155.6 58.2 155.6C57.9 155.6 57.7 155.6 57.4 155.6C56.7 155.6 56 155.5 55.4 155.5C55 155.5 54.6 155.4 54.2 155.4C53.5 155.4 52.9 155.3 52.2 155.2C52 155.2 51.7 155.2 51.5 155.1C51.3 155.1 51.2 155.1 51 155C50 154.9 49 154.8 48 154.6C47.8 154.6 47.7 154.6 47.5 154.5C46.3 154.3 45.2 154.2 44.1 154C44 154 43.9 154 43.8 153.9C43.5 153.8 43.2 153.8 42.9 153.7C42.4 153.6 41.8 153.5 41.3 153.4C40.9 153.3 40.4 153.2 40 153.1C39.5 153 39 152.9 38.4 152.7C38 152.6 37.5 152.5 37.1 152.4C36.6 152.3 36.1 152.1 35.6 152C35.2 151.9 34.8 151.8 34.3 151.6C33.8 151.5 33.3 151.3 32.8 151.1C32.6 151 32.4 151 32.2 150.9C32 150.9 31.9 150.8 31.7 150.7C30.8 150.4 29.9 150.1 29.1 149.8C28.9 149.7 28.7 149.7 28.6 149.6C27.6 149.2 26.6 148.8 25.6 148.4C25.3 148.3 25.1 148.2 24.8 148.1C24 147.8 23.3 147.4 22.5 147C22.2 146.9 21.9 146.7 21.7 146.6C20.7 146.1 19.8 145.6 18.9 145.1C18.6 145 18.4 144.8 18.2 144.7C18 144.6 17.8 144.4 17.5 144.3C17.1 144.1 16.8 143.8 16.4 143.6C16.1 143.4 15.7 143.2 15.4 142.9C15.1 142.7 14.7 142.4 14.4 142.2C14.1 142 13.8 141.8 13.5 141.5C13.2 141.3 12.9 141 12.5 140.8C12.2 140.6 11.9 140.3 11.7 140.1C11.4 139.8 11.1 139.6 10.8 139.3C10.7 139.2 10.6 139.1 10.4 139C10.2 138.8 9.9 138.6 9.7 138.3C9.6 138.2 9.5 138.1 9.5 138.1C9.1 137.7 8.6 137.2 8.2 136.8C8.1 136.7 8 136.6 7.9 136.5C7.6 136.1 7.2 135.7 6.9 135.3C6.8 135.2 6.8 135.1 6.7 135L6.6 134.9C6.3 134.5 6 134.1 5.7 133.7C5.6 133.6 5.6 133.5 5.5 133.4C5.2 132.9 4.9 132.5 4.6 132C4.6 131.9 4.5 131.8 4.5 131.8C4.4 131.6 4.3 131.5 4.2 131.3C4.1 131.2 4 131 4 130.9C3.8 130.6 3.7 130.3 3.5 130C3.4 129.7 3.3 129.5 3.1 129.2C3 128.9 2.8 128.6 2.7 128.3C2.6 128.2 2.6 128 2.5 127.9C2.5 127.8 2.4 127.7 2.4 127.5C2.3 127.2 2.2 126.9 2.1 126.6C2 126.3 1.9 126.1 1.9 125.8C1.8 125.5 1.8 125.2 1.7 124.9C1.7 124.7 1.6 124.6 1.6 124.4C1.6 124.3 1.6 124.2 1.5 124.1C1.4 123.8 1.4 123.5 1.4 123.2C1.4 122.9 1.3 122.7 1.3 122.4C1.3 122.1 1.3 121.8 1.2 121.5C1.2 121.3 1.2 121.1 1.2 121C1.2 120.8 1.2 120.6 1.2 120.5L1 102C1 102.4 1 102.8 1 103.1Z" fill="#171A21"/>
<path d="M122.2 106.4C124.6 95.9 118.9 84.9 105.1 76.9C81.4 63.1 42.9 63.1 19 76.9C5.00003 85 -0.799973 96 1.50003 106.5" stroke="#171A21" stroke-width="2" stroke-miterlimit="10" stroke-linecap="round" stroke-linejoin="round"/>
<path d="M178.4 290.4C180.8 279.9 175.1 268.9 161.3 260.9C137.6 247.1 99.1 247.1 75.2 260.9C61.2 269 55.4 280 57.7 290.5C57.7 290.5 57.4 331.8 118.1 331.8C178.8 331.8 178.4 290.4 178.4 290.4Z" fill="white"/>
<path d="M57.2 287.1C57.2 287.4 57.1999 287.7 57.2999 288C57.2999 288.3 57.4 288.5 57.4 288.8C57.4 289.1 57.5 289.4 57.5 289.7C57.5 290 57.6 290.2 57.7 290.5C57.8 290.8 57.8 291.1 57.9 291.4C58 291.7 58.0999 291.9 58.0999 292.2C58.1999 292.5 58.3 292.8 58.4 293.1C58.5 293.4 58.6 293.6 58.7 293.9C58.8 294.2 58.9999 294.5 59.0999 294.8C59.1999 295.1 59.3 295.3 59.5 295.6C59.6 295.9 59.8 296.2 60 296.5C60.2 296.8 60.3 297.1 60.5 297.5C60.5 297.6 60.5999 297.7 60.5999 297.7C60.8999 298.2 61.2 298.6 61.5 299.1C61.6 299.2 61.6 299.3 61.7 299.4C62 299.9 62.4 300.3 62.7 300.8C62.8 300.9 62.8 301 62.9 301.1C63.2 301.5 63.5 301.9 63.9 302.3C64 302.4 64.0999 302.5 64.1999 302.6C64.5999 303 65 303.5 65.5 303.9C65.6 304 65.6999 304.1 65.6999 304.1C65.9999 304.4 66.3999 304.7 66.6999 305.1C66.9999 305.4 67.2999 305.6 67.5999 305.9C67.8999 306.1 68.2 306.4 68.4 306.6C68.7 306.9 69 307.1 69.4 307.3C69.7 307.5 70 307.8 70.3 308C70.6 308.2 71 308.5 71.3 308.7C71.6 308.9 71.9 309.1 72.3 309.4C72.7 309.6 73 309.9 73.4 310.1C73.9 310.4 74.3 310.7 74.8 311C75.7 311.5 76.5999 312 77.5999 312.5C77.8999 312.6 78.2 312.8 78.4 312.9C79.1 313.3 79.8999 313.6 80.6999 314C80.9999 314.1 81.2 314.2 81.5 314.3C82.5 314.7 83.5 315.1 84.5 315.5C84.7 315.6 84.9 315.6 85 315.7C85.9 316 86.7999 316.3 87.5999 316.6C87.9999 316.7 88.2999 316.8 88.6999 317C89.1999 317.2 89.6999 317.3 90.1999 317.5C90.5999 317.6 91 317.7 91.5 317.9C92 318 92.5 318.2 93 318.3C93.4 318.4 93.8 318.5 94.3 318.6C94.8 318.7 95.3 318.8 95.9 319C96.3 319.1 96.7999 319.2 97.1999 319.3C97.6999 319.4 98.3 319.5 98.8 319.6C99.2 319.7 99.5999 319.8 100 319.8C101.1 320 102.3 320.2 103.4 320.3C103.6 320.3 103.7 320.3 103.9 320.4C104.9 320.5 105.9 320.7 106.9 320.8C107.3 320.8 107.7 320.9 108.1 320.9C108.8 321 109.4 321 110.1 321.1C110.5 321.1 110.9 321.2 111.3 321.2C112 321.2 112.7 321.3 113.3 321.3C113.7 321.3 114.1 321.3 114.5 321.3C115.1 321.3 115.7 321.3 116.3 321.3C116.7 321.3 117.1 321.3 117.5 321.3C118.1 321.3 118.8 321.3 119.4 321.3C119.8 321.3 120.1 321.3 120.5 321.3C121.1 321.3 121.7 321.3 122.2 321.2C122.6 321.2 123 321.2 123.4 321.1C124 321.1 124.7 321 125.3 321C125.7 321 126 321 126.4 320.9C127.2 320.8 127.9 320.8 128.7 320.7C128.9 320.7 129.2 320.7 129.4 320.6C130.4 320.5 131.3 320.4 132.3 320.2C132.5 320.2 132.6 320.2 132.8 320.1C133.6 320 134.5 319.9 135.3 319.7C135.6 319.6 136 319.6 136.3 319.5C136.9 319.4 137.6 319.3 138.2 319.1C138.5 319 138.9 319 139.2 318.9C139.9 318.8 140.6 318.6 141.2 318.4C141.6 318.3 142 318.2 142.3 318.1C142.9 317.9 143.5 317.8 144.1 317.6C144.4 317.5 144.8 317.4 145.1 317.3C146.1 317 147 316.7 148 316.4C148.2 316.3 148.3 316.3 148.5 316.2C149.6 315.8 150.7 315.4 151.7 315C152.1 314.8 152.6 314.7 153 314.5C153.3 314.4 153.7 314.2 154 314.1C154.5 313.9 154.9 313.7 155.4 313.5C155.7 313.4 156 313.2 156.3 313.1C156.8 312.9 157.3 312.6 157.8 312.3C158 312.2 158.3 312.1 158.5 311.9C159.2 311.5 160 311.1 160.7 310.7C172.7 303.8 178.7 294.7 178.7 285.6L178.9 304C178.9 313.1 172.9 322.2 160.9 329.1C160.2 329.5 159.4 329.9 158.7 330.3C158.5 330.4 158.2 330.5 158 330.7C157.5 331 157 331.2 156.5 331.5C156.2 331.6 155.9 331.8 155.6 331.9C155.1 332.1 154.7 332.3 154.2 332.5C153.9 332.6 153.5 332.8 153.2 332.9C152.9 333 152.6 333.2 152.2 333.3C152.1 333.3 152 333.4 151.9 333.4C150.8 333.8 149.8 334.2 148.7 334.6C148.5 334.7 148.4 334.7 148.2 334.8C147.3 335.1 146.3 335.4 145.3 335.7C145.1 335.7 145 335.8 144.8 335.8C144.6 335.9 144.4 335.9 144.2 335.9C143.6 336.1 143 336.2 142.4 336.4C142 336.5 141.6 336.6 141.3 336.7C140.6 336.9 139.9 337 139.3 337.2C139 337.3 138.8 337.3 138.5 337.4C138.4 337.4 138.4 337.4 138.3 337.4C137.7 337.5 137 337.6 136.4 337.8C136.1 337.9 135.7 337.9 135.4 338C134.6 338.1 133.7 338.3 132.9 338.4C132.8 338.4 132.6 338.4 132.5 338.5C131.5 338.6 130.6 338.8 129.6 338.9C129.4 338.9 129.1 338.9 128.9 339C128.2 339.1 127.4 339.2 126.6 339.2C126.6 339.2 126.6 339.2 126.5 339.2C126.2 339.2 125.8 339.2 125.5 339.3C124.9 339.3 124.2 339.4 123.6 339.4C123.2 339.4 122.8 339.4 122.4 339.5C121.8 339.5 121.2 339.6 120.7 339.6H120.6C120.3 339.6 119.9 339.6 119.6 339.6C119 339.6 118.3 339.6 117.7 339.6C117.3 339.6 116.9 339.6 116.5 339.6C115.9 339.6 115.3 339.6 114.7 339.6C114.6 339.6 114.5 339.6 114.4 339.6C114.1 339.6 113.9 339.6 113.6 339.6C112.9 339.6 112.2 339.5 111.6 339.5C111.2 339.5 110.8 339.4 110.4 339.4C109.7 339.4 109.1 339.3 108.4 339.2C108.2 339.2 107.9 339.2 107.7 339.1C107.5 339.1 107.4 339.1 107.2 339C106.2 338.9 105.2 338.8 104.2 338.6C104 338.6 103.9 338.6 103.7 338.5C102.5 338.3 101.4 338.2 100.3 338C100.2 338 100.1 338 100 337.9C99.7 337.8 99.3999 337.8 99.0999 337.7C98.5999 337.6 98 337.5 97.5 337.4C97.0999 337.3 96.5999 337.2 96.1999 337.1C95.6999 337 95.1999 336.9 94.5999 336.7C94.1999 336.6 93.7 336.5 93.3 336.4C92.8 336.3 92.3 336.1 91.8 336C91.4 335.9 91 335.8 90.5 335.6C90 335.5 89.5 335.3 89 335.1C88.7999 335 88.6 335 88.4 334.9C88.2 334.9 88.1 334.8 87.9 334.7C87 334.4 86.1 334.1 85.3 333.8C85.1 333.7 84.9 333.7 84.8 333.6C83.8 333.2 82.8 332.8 81.8 332.4C81.5 332.3 81.2999 332.2 81 332.1C80.2 331.8 79.4999 331.4 78.6999 331C78.3999 330.9 78.1 330.7 77.9 330.6C76.9 330.1 75.9999 329.6 75.0999 329.1C74.7999 329 74.6 328.8 74.4 328.7C74.2 328.6 73.9999 328.4 73.6999 328.3C73.2999 328.1 72.9999 327.8 72.5999 327.6C72.2999 327.4 71.8999 327.2 71.5999 326.9C71.2999 326.7 70.8999 326.4 70.5999 326.2C70.2999 326 69.9999 325.8 69.6999 325.5C69.3999 325.3 69.0999 325 68.6999 324.8C68.3999 324.6 68.1 324.3 67.9 324.1C67.6 323.8 67.3 323.6 67 323.3C66.9 323.2 66.7999 323.1 66.5999 323C66.3999 322.8 66.1 322.6 65.9 322.3C65.8 322.2 65.6999 322.1 65.6999 322.1C65.2999 321.7 64.8 321.2 64.4 320.8C64.3 320.7 64.1999 320.6 64.0999 320.5C63.7999 320.1 63.3999 319.7 63.0999 319.3C62.9999 319.2 63 319.1 62.9 319L62.7999 318.9C62.4999 318.5 62.2 318.1 61.9 317.7C61.8 317.6 61.8 317.5 61.7 317.4C61.4 316.9 61.0999 316.5 60.7999 316C60.7999 315.9 60.7 315.8 60.7 315.8C60.6 315.6 60.5 315.5 60.4 315.3C60.3 315.2 60.3 315 60.2 314.9C60 314.6 59.9 314.3 59.7 314C59.6 313.7 59.4999 313.5 59.2999 313.2C59.1999 312.9 59 312.6 58.9 312.3C58.8 312.2 58.8 312 58.7 311.9C58.7 311.8 58.5999 311.7 58.5999 311.5C58.4999 311.2 58.3999 310.9 58.2999 310.6C58.1999 310.3 58.0999 310.1 58.0999 309.8C57.9999 309.5 58 309.2 57.9 308.9C57.9 308.7 57.7999 308.6 57.7999 308.4C57.7999 308.3 57.8 308.2 57.7 308.1C57.6 307.8 57.5999 307.5 57.5999 307.2C57.5999 306.9 57.5 306.7 57.5 306.4C57.5 306.1 57.5 305.8 57.4 305.5C57.4 305.3 57.4 305.1 57.4 305C57.4 304.8 57.4 304.6 57.4 304.5L57.2 286C57.2 286.4 57.2 286.7 57.2 287.1Z" fill="#171A21"/>
<path d="M178.4 290.4C180.8 279.9 175.1 268.9 161.3 260.9C137.6 247.1 99.1 247.1 75.2 260.9C61.2 269 55.4 280 57.7 290.5" stroke="#171A21" stroke-width="2" stroke-miterlimit="10" stroke-linecap="round" stroke-linejoin="round"/>
<path d="M325.1 175.7C328.8 159.8 320.1 143.2 299.2 131.1C263.4 110.3 205.1 110.3 169 131.1C147.8 143.3 139 160 142.6 175.9C142.6 175.9 142.1 238.3 234 238.3C325.9 238.3 325.1 175.7 325.1 175.7Z" fill="white"/>
<path d="M141.9 170.6C141.9 171.1 142 171.5 142 172C142 172.4 142.1 172.8 142.2 173.2C142.3 173.7 142.3 174.1 142.4 174.6C142.5 175 142.6 175.4 142.7 175.8C142.8 176.2 142.9 176.7 143 177.1C143.1 177.5 143.2 177.9 143.4 178.3C143.5 178.7 143.7 179.2 143.8 179.6C143.9 180 144.1 180.4 144.2 180.8C144.4 181.3 144.6 181.7 144.8 182.2C145 182.6 145.2 183 145.3 183.4C145.5 183.9 145.8 184.3 146 184.8C146.3 185.3 146.5 185.8 146.8 186.3C146.9 186.4 146.9 186.5 147 186.6C147.4 187.3 147.9 188 148.4 188.7C148.5 188.8 148.6 189 148.7 189.1C149.2 189.8 149.7 190.5 150.2 191.2C150.3 191.3 150.4 191.5 150.5 191.6C151 192.2 151.5 192.8 152 193.4C152.1 193.6 152.3 193.7 152.4 193.9C153 194.6 153.7 195.2 154.3 195.9C154.4 196 154.5 196.1 154.7 196.3C155.2 196.8 155.7 197.3 156.3 197.8C156.7 198.2 157.2 198.6 157.6 199C158 199.4 158.4 199.7 158.9 200.1C159.4 200.5 159.9 200.9 160.3 201.2C160.8 201.5 161.2 201.9 161.7 202.2C162.2 202.6 162.7 202.9 163.3 203.3C163.8 203.6 164.3 204 164.8 204.3C165.3 204.7 165.9 205 166.5 205.4C167.2 205.8 167.9 206.3 168.6 206.7C170 207.5 171.4 208.3 172.8 209C173.2 209.2 173.6 209.4 174.1 209.6C175.2 210.2 176.4 210.7 177.5 211.2C177.9 211.4 178.3 211.6 178.7 211.7C180.2 212.4 181.7 213 183.3 213.6C183.6 213.7 183.9 213.8 184.1 213.9C185.4 214.4 186.8 214.9 188.1 215.3C188.7 215.5 189.2 215.7 189.8 215.8C190.5 216 191.3 216.3 192 216.5C192.6 216.7 193.3 216.9 193.9 217C194.7 217.2 195.4 217.4 196.2 217.6C196.8 217.8 197.5 217.9 198.1 218.1C198.9 218.3 199.7 218.5 200.4 218.6C201 218.7 201.7 218.9 202.4 219C203.2 219.2 204 219.3 204.8 219.5C205.4 219.6 206 219.7 206.7 219.8C208.4 220.1 210.2 220.4 211.9 220.6C212.1 220.6 212.4 220.7 212.6 220.7C214.1 220.9 215.7 221.1 217.2 221.2C217.8 221.3 218.4 221.3 219 221.4C220 221.5 221 221.6 222 221.6C222.6 221.6 223.2 221.7 223.9 221.7C224.9 221.8 226 221.8 227 221.9C227.6 221.9 228.2 222 228.7 222C229.6 222 230.5 222 231.4 222.1C232 222.1 232.7 222.1 233.3 222.1C234.3 222.1 235.2 222.1 236.2 222.1C236.8 222.1 237.3 222.1 237.9 222.1C238.8 222.1 239.7 222 240.5 222C241.1 222 241.7 222 242.3 221.9C243.3 221.8 244.2 221.8 245.2 221.7C245.7 221.7 246.3 221.6 246.8 221.6C247.9 221.5 249.1 221.4 250.2 221.3C250.5 221.3 250.9 221.2 251.2 221.2C252.7 221 254.1 220.8 255.6 220.6C255.8 220.6 256.1 220.5 256.3 220.5C257.6 220.3 258.8 220.1 260.1 219.9C260.6 219.8 261.1 219.7 261.6 219.6C262.6 219.4 263.5 219.3 264.5 219.1C265 219 265.5 218.9 266 218.8C267 218.6 268.1 218.3 269.1 218.1C269.7 218 270.2 217.8 270.8 217.7C271.7 217.5 272.7 217.2 273.6 217C274.1 216.9 274.7 216.7 275.2 216.6C276.7 216.2 278.1 215.7 279.5 215.3C279.8 215.2 280 215.1 280.3 215.1C281.9 214.5 283.6 213.9 285.2 213.3C285.9 213 286.5 212.8 287.1 212.5C287.6 212.3 288.1 212.1 288.6 211.9C289.3 211.6 290 211.3 290.7 210.9C291.2 210.7 291.6 210.5 292.1 210.3C292.9 209.9 293.6 209.5 294.4 209.2C294.8 209 295.2 208.8 295.5 208.6C296.6 208 297.7 207.4 298.8 206.8C317 196.3 326 182.6 326 168.8L326.3 207.2C326.3 220.9 317.3 234.7 299.1 245.2C298 245.8 296.9 246.4 295.8 247C295.4 247.2 295 247.4 294.7 247.6C293.9 248 293.2 248.4 292.4 248.7C291.9 248.9 291.5 249.1 291 249.3C290.3 249.6 289.6 249.9 288.9 250.3C288.4 250.5 287.9 250.7 287.4 250.9C286.9 251.1 286.4 251.3 285.9 251.5C285.7 251.6 285.6 251.6 285.4 251.7C283.8 252.3 282.2 252.9 280.5 253.5C280.2 253.6 280 253.7 279.7 253.7C278.3 254.2 276.8 254.6 275.4 255C275.2 255.1 274.9 255.2 274.7 255.2C274.4 255.3 274.1 255.3 273.9 255.4C273 255.7 272 255.9 271.1 256.1C270.5 256.2 270 256.4 269.4 256.5C268.4 256.7 267.3 257 266.3 257.2C265.9 257.3 265.5 257.4 265.1 257.5C265 257.5 264.9 257.5 264.8 257.6C263.9 257.8 262.9 258 261.9 258.1C261.4 258.2 260.9 258.3 260.4 258.4C259.2 258.6 257.9 258.8 256.6 259C256.4 259 256.2 259.1 255.9 259.1C254.4 259.3 253 259.5 251.5 259.7C251.2 259.7 250.8 259.8 250.5 259.8C249.4 259.9 248.2 260 247.1 260.1H247C246.5 260.1 246 260.2 245.5 260.2C244.5 260.3 243.6 260.3 242.6 260.4C242 260.4 241.4 260.4 240.8 260.5C239.9 260.5 239 260.6 238.2 260.6C238.1 260.6 238.1 260.6 238 260.6C237.5 260.6 237 260.6 236.5 260.6C235.5 260.6 234.6 260.6 233.6 260.6C233 260.6 232.3 260.6 231.7 260.6C230.8 260.6 229.9 260.6 229 260.5C228.8 260.5 228.7 260.5 228.5 260.5C228.1 260.5 227.7 260.5 227.3 260.4C226.3 260.4 225.2 260.3 224.2 260.2C223.6 260.2 223 260.1 222.3 260.1C221.3 260 220.3 259.9 219.3 259.9C219 259.9 218.6 259.8 218.3 259.8C218.1 259.8 217.8 259.7 217.6 259.7C216.1 259.5 214.5 259.4 213 259.2C212.8 259.2 212.5 259.1 212.3 259.1C210.6 258.9 208.8 258.6 207.1 258.3C206.9 258.3 206.8 258.3 206.6 258.2C206.1 258.1 205.7 258 205.2 257.9C204.4 257.7 203.6 257.6 202.8 257.4C202.1 257.3 201.5 257.1 200.8 257C200 256.8 199.2 256.6 198.5 256.5C197.9 256.3 197.2 256.2 196.6 256C195.8 255.8 195.1 255.6 194.3 255.4C193.7 255.2 193 255 192.4 254.9C191.6 254.7 190.9 254.5 190.2 254.2C189.9 254.1 189.5 254 189.2 253.9C189 253.8 188.7 253.7 188.5 253.7C187.1 253.3 185.8 252.8 184.5 252.3C184.2 252.2 183.9 252.1 183.7 252C182.1 251.4 180.6 250.8 179.1 250.1C178.7 249.9 178.3 249.8 177.9 249.6C176.7 249.1 175.6 248.5 174.5 248C174.1 247.8 173.7 247.6 173.2 247.4C171.8 246.7 170.3 245.9 169 245.1C168.6 244.9 168.2 244.7 167.9 244.4C167.6 244.2 167.2 244 166.9 243.8C166.3 243.4 165.8 243.1 165.2 242.7C164.7 242.4 164.2 242 163.7 241.7C163.2 241.3 162.6 241 162.1 240.6C161.6 240.3 161.2 239.9 160.7 239.6C160.2 239.2 159.7 238.9 159.3 238.5C158.9 238.2 158.4 237.8 158 237.4C157.5 237 157.1 236.6 156.7 236.2C156.5 236 156.3 235.9 156.2 235.7C155.8 235.4 155.5 235 155.2 234.7C155.1 234.6 155 234.5 154.8 234.3C154.1 233.6 153.5 233 152.9 232.3C152.8 232.1 152.6 232 152.5 231.8C152 231.2 151.5 230.6 151 230C150.9 229.9 150.8 229.7 150.7 229.6C150.7 229.5 150.6 229.5 150.6 229.4C150.1 228.8 149.7 228.1 149.2 227.5C149.1 227.4 149 227.2 148.9 227.1C148.4 226.4 148 225.7 147.5 225C147.4 224.9 147.4 224.8 147.3 224.7C147.1 224.4 147 224.2 146.8 223.9C146.7 223.7 146.6 223.5 146.5 223.2C146.3 222.7 146 222.3 145.8 221.8C145.6 221.4 145.4 221 145.3 220.6C145.1 220.1 144.9 219.7 144.7 219.2C144.6 219 144.5 218.8 144.4 218.6C144.3 218.4 144.3 218.2 144.2 218C144 217.6 143.9 217.1 143.8 216.7C143.7 216.3 143.6 215.9 143.4 215.5C143.3 215.1 143.2 214.6 143.1 214.2C143 214 143 213.7 142.9 213.5C142.9 213.3 142.9 213.2 142.8 213C142.7 212.5 142.6 212.1 142.6 211.6C142.5 211.2 142.5 210.8 142.4 210.4C142.4 209.9 142.3 209.5 142.3 209C142.3 208.7 142.2 208.5 142.2 208.2C142.2 207.9 142.2 207.7 142.2 207.4L141.9 169C141.9 169.6 141.9 170.1 141.9 170.6Z" fill="#2F58FF"/>
<path d="M325.1 175.7C328.8 159.8 320.1 143.2 299.2 131.1C263.4 110.3 205.1 110.3 169 131.1C147.8 143.3 139 160 142.6 175.9" stroke="#171A21" stroke-width="2" stroke-miterlimit="10" stroke-linecap="round" stroke-linejoin="round"/>
<path d="M233.3 153.8C275.771 153.8 310.2 119.371 310.2 76.9C310.2 34.4293 275.771 0 233.3 0C190.829 0 156.4 34.4293 156.4 76.9C156.4 119.371 190.829 153.8 233.3 153.8Z" fill="#E8F4FA"/>
<path d="M194.3 10.6001C194.8 10.8001 195.3 11.1001 195.8 11.5001C197.8 12.9001 198 22.7001 205.8 25.3001C219.6 30.0001 225.4 22.6001 231.4 28.6001C234.1 31.2001 229.2 38.1001 232.1 41.3001C235.6 45.1001 251.6 44.7001 249.5 53.8001C247.7 61.8001 234.6 59.7001 229.4 62.8001C211.2 73.5001 217.2 87.4001 203.5 88.7001C195.6 89.5001 192.7 82.9001 185.1 87.4001C180.4 90.2001 186.2 97.7001 178.5 101.6C168.8 106.6 166.2 96.9001 158.1 93.0001C157 87.8001 156.4 82.3001 156.4 76.7001C156.4 48.7001 171.6 24.0001 194.3 10.6001ZM310.2 76.9001C310.2 63.9001 307 51.7001 301.3 41.0001C296.5 43.9001 292.4 47.2001 289.1 53.1001C286.2 58.2001 283.9 64.6001 281.4 66.6001C279.1 68.5001 272.6 69.4001 271.4 73.4001C269.1 81.3001 281.3 83.7001 281.1 91.8001C281 96.4001 274 99.2001 273.5 103.9C273 108.3 278.6 111.2 279.6 115C281.4 121.3 280.5 131.5 286.9 132C301.3 118 310.2 98.5001 310.2 76.9001ZM233.3 153.8C240.5 153.8 247.6 152.8 254.2 150.9C253.2 148.5 250.7 146.8 248.2 146.1C244.9 145.2 241.5 145.6 238.1 145.5C234.1 145.4 229.9 144.5 226.7 142C224.8 140.5 223.3 138.4 221.5 136.8C219.6 135.2 217 134.1 214.7 135C212.3 135.9 211 138.7 208.7 139.9C207.7 140.4 206.5 140.6 205.4 141C202.8 141.7 200.3 143.3 198.8 145.6C198.8 145.6 198.8 145.6 198.8 145.7C209.2 150.8 220.9 153.8 233.3 153.8Z" fill="#2F58FF"/>
<path d="M180 22.1001C178.1 22.8001 176.3 23.6001 174.4 24.3001" stroke="#171A21" stroke-width="2" stroke-linecap="round" stroke-linejoin="round"/>
<path d="M163.9 29.6001C163.8 29.7001 163.6 29.8001 163.5 29.8001C124.5 52.4001 124.7 89.2001 164 111.8C203.2 134.4 266.6 134.4 305.6 111.8C341 91.2001 344.1 59.1001 315 36.4001" stroke="#171A21" stroke-width="2" stroke-linecap="round" stroke-linejoin="round" stroke-dasharray="11.76 11.76"/>
<path d="M310.2 33C308.6 31.9 306.9 30.9 305.1 29.8" stroke="#171A21" stroke-width="2" stroke-linecap="round" stroke-linejoin="round"/>
<path d="M305.1 29.8C303.4 28.8 301.6 27.9 299.8 27" stroke="#171A21" stroke-width="2" stroke-linecap="round" stroke-linejoin="round"/>
<path d="M292.1 23.4999C290.3 22.6999 288.4 21.9999 286.5 21.3999" stroke="#171A21" stroke-width="2" stroke-linecap="round" stroke-linejoin="round"/>
<path d="M418.7 101.3C419.5 97.8999 417.7 94.2999 413.1 91.5999C405.4 86.9999 392.8 86.8999 385 91.2999C380.5 93.8999 378.6 97.3999 379.3 100.9L380.2 106.9L393.5 114.8L405.3 115.6L414.2 109.3L418.1 105L418.7 101.3Z" fill="#E8F4FA"/>
<path d="M418.9 100.2C418.9 100.3 418.9 100.4 418.9 100.5C418.9 100.6 418.9 100.7 418.9 100.8C418.9 100.9 418.9 101 418.8 101.1C418.8 101.2 418.8 101.3 418.7 101.4C418.7 101.5 418.7 101.6 418.6 101.7C418.6 101.8 418.5 101.9 418.5 102C418.5 102.1 418.4 102.2 418.4 102.3C418.4 102.4 418.3 102.5 418.3 102.6C418.3 102.7 418.2 102.8 418.2 102.9C418.2 103 418.1 103.1 418.1 103.1C418.1 103.2 418 103.3 417.9 103.4C417.8 103.5 417.8 103.6 417.7 103.7C417.7 103.7 417.7 103.7 417.7 103.8C417.6 104 417.5 104.1 417.4 104.2C417.4 104.2 417.4 104.3 417.3 104.3C417.2 104.4 417.1 104.6 417 104.7C417 104.7 417 104.8 416.9 104.8C416.8 104.9 416.7 105.1 416.6 105.2L416.5 105.3C416.4 105.4 416.2 105.6 416.1 105.7L416 105.8C415.9 105.9 415.8 106 415.7 106.1C415.6 106.2 415.5 106.3 415.4 106.3C415.3 106.4 415.2 106.5 415.1 106.5C415 106.6 414.9 106.7 414.8 106.7C414.7 106.8 414.6 106.8 414.5 106.9C414.4 107 414.3 107.1 414.2 107.1C414.1 107.2 414 107.2 413.9 107.3C413.8 107.4 413.7 107.4 413.5 107.5C413.3 107.6 413.2 107.7 413 107.8C412.7 108 412.4 108.1 412.1 108.3C412 108.3 411.9 108.4 411.8 108.4C411.6 108.5 411.3 108.6 411.1 108.7C411 108.7 410.9 108.8 410.8 108.8C410.5 108.9 410.1 109.1 409.8 109.2C409.7 109.2 409.7 109.2 409.6 109.3C409.3 109.4 409 109.5 408.7 109.6C408.6 109.6 408.5 109.7 408.3 109.7C408.1 109.7 408 109.8 407.8 109.8C407.7 109.8 407.5 109.9 407.4 109.9C407.2 109.9 407.1 110 406.9 110C406.8 110 406.6 110.1 406.5 110.1C406.3 110.1 406.2 110.2 406 110.2C405.9 110.2 405.7 110.3 405.6 110.3C405.4 110.3 405.3 110.4 405.1 110.4C405 110.4 404.8 110.4 404.7 110.5C404.3 110.6 404 110.6 403.6 110.7C403.5 110.7 403.5 110.7 403.4 110.7C403.1 110.7 402.7 110.8 402.4 110.8C402.3 110.8 402.1 110.8 402 110.8C401.8 110.8 401.6 110.8 401.4 110.8C401.3 110.8 401.1 110.8 401 110.8C400.8 110.8 400.6 110.8 400.3 110.8C400.2 110.8 400 110.8 399.9 110.8C399.7 110.8 399.5 110.8 399.3 110.8C399.2 110.8 399 110.8 398.9 110.8C398.7 110.8 398.5 110.8 398.3 110.8C398.2 110.8 398.1 110.8 397.9 110.8C397.7 110.8 397.5 110.8 397.3 110.8C397.2 110.8 397 110.8 396.9 110.8C396.7 110.8 396.5 110.8 396.3 110.8C396.2 110.8 396.1 110.8 396 110.8C395.8 110.8 395.5 110.7 395.3 110.7C395.2 110.7 395.2 110.7 395.1 110.7C394.8 110.7 394.5 110.6 394.2 110.6H394.1C393.8 110.6 393.6 110.5 393.3 110.5C393.2 110.5 393.1 110.5 393 110.4C392.8 110.4 392.6 110.3 392.4 110.3C392.3 110.3 392.2 110.3 392.1 110.2C391.9 110.1 391.7 110.1 391.4 110C391.3 110 391.2 109.9 391 109.9C390.8 109.8 390.6 109.8 390.4 109.7C390.3 109.7 390.2 109.6 390.1 109.6C389.8 109.5 389.5 109.4 389.2 109.3C389.1 109.3 389.1 109.3 389 109.2C388.6 109.1 388.3 108.9 388 108.8C387.9 108.7 387.7 108.7 387.6 108.6C387.5 108.6 387.4 108.5 387.3 108.5C387.1 108.4 387 108.4 386.8 108.3C386.7 108.3 386.6 108.2 386.5 108.2C386.3 108.1 386.2 108 386 107.9C385.9 107.9 385.8 107.8 385.8 107.8C385.6 107.7 385.3 107.5 385.1 107.4C381.2 105.1 379.3 102.1 379.3 99.1997L379.1 110.9C379.1 113.9 381 116.8 384.9 119.1C385.1 119.2 385.4 119.4 385.6 119.5C385.7 119.5 385.8 119.6 385.8 119.6C386 119.7 386.1 119.8 386.3 119.9C386.4 119.9 386.5 120 386.6 120C386.8 120.1 386.9 120.1 387.1 120.2C387.2 120.2 387.3 120.3 387.4 120.3C387.5 120.3 387.6 120.4 387.7 120.4H387.8C388.1 120.5 388.5 120.7 388.8 120.8C388.9 120.8 388.9 120.8 389 120.9C389.3 121 389.6 121.1 389.9 121.2C390 121.2 390 121.2 390.1 121.3C390.2 121.3 390.2 121.3 390.3 121.4C390.5 121.5 390.7 121.5 390.9 121.6C391 121.6 391.1 121.7 391.3 121.7C391.5 121.8 391.7 121.8 392 121.9C392.1 121.9 392.2 121.9 392.2 122C392.2 122 392.2 122 392.3 122C392.5 122 392.7 122.1 392.9 122.1C393 122.1 393.1 122.1 393.2 122.2C393.5 122.2 393.7 122.3 394 122.3H394.1C394.4 122.3 394.7 122.4 395 122.4C395.1 122.4 395.1 122.4 395.2 122.4C395.4 122.4 395.7 122.5 395.9 122.5C396 122.5 396.1 122.5 396.2 122.5C396.4 122.5 396.6 122.5 396.8 122.5C396.9 122.5 397.1 122.5 397.2 122.5C397.4 122.5 397.6 122.5 397.8 122.5C397.9 122.5 398 122.5 398.1 122.5C398.3 122.5 398.5 122.5 398.7 122.5C398.8 122.5 399 122.5 399.1 122.5C399.3 122.5 399.5 122.5 399.7 122.5H399.8C399.9 122.5 400 122.5 400.1 122.5C400.3 122.5 400.5 122.5 400.8 122.5C400.9 122.5 401.1 122.5 401.2 122.5C401.4 122.5 401.6 122.5 401.8 122.5C401.9 122.5 401.9 122.5 402 122.5C402.1 122.5 402.1 122.5 402.2 122.5C402.5 122.5 402.9 122.4 403.2 122.4C403.3 122.4 403.3 122.4 403.4 122.4C403.8 122.4 404.2 122.3 404.5 122.2H404.6C404.7 122.2 404.8 122.2 404.9 122.1C405.1 122.1 405.2 122 405.4 122C405.5 122 405.7 121.9 405.8 121.9C406 121.9 406.1 121.8 406.3 121.8C406.4 121.8 406.6 121.7 406.7 121.7C406.9 121.7 407 121.6 407.2 121.6C407.3 121.6 407.5 121.5 407.6 121.5C407.8 121.5 407.9 121.4 408.1 121.4C408.2 121.4 408.2 121.4 408.3 121.3C408.4 121.3 408.4 121.3 408.4 121.2C408.7 121.1 409 121 409.3 120.9C409.4 120.9 409.4 120.9 409.5 120.8C409.8 120.7 410.2 120.5 410.5 120.4C410.6 120.4 410.7 120.3 410.8 120.3C411.1 120.2 411.3 120.1 411.5 120C411.6 120 411.7 119.9 411.8 119.9C412.1 119.7 412.4 119.6 412.7 119.4C412.8 119.4 412.9 119.3 412.9 119.3C413 119.3 413 119.2 413.1 119.2C413.2 119.1 413.3 119.1 413.5 119C413.6 118.9 413.7 118.9 413.8 118.8C413.9 118.7 414 118.6 414.1 118.6C414.2 118.5 414.3 118.5 414.4 118.4C414.5 118.3 414.6 118.2 414.7 118.2C414.8 118.1 414.9 118.1 415 118C415.1 117.9 415.2 117.8 415.3 117.8L415.4 117.7C415.5 117.6 415.6 117.6 415.6 117.5L415.7 117.4C415.8 117.3 416 117.1 416.1 117L416.2 116.9C416.3 116.8 416.4 116.7 416.5 116.5C416.5 116.5 416.5 116.4 416.6 116.4C416.7 116.3 416.8 116.1 416.9 116C416.9 116 416.9 115.9 417 115.9C417.1 115.8 417.2 115.6 417.3 115.5C417.3 115.5 417.3 115.5 417.3 115.4C417.3 115.3 417.4 115.3 417.4 115.2C417.4 115.2 417.4 115.1 417.5 115.1C417.6 115 417.6 114.9 417.7 114.8C417.7 114.7 417.8 114.6 417.8 114.6C417.8 114.5 417.9 114.4 417.9 114.3C417.9 114.3 417.9 114.2 418 114.2V114.1C418 114 418.1 113.9 418.1 113.8C418.1 113.7 418.2 113.6 418.2 113.5C418.2 113.4 418.3 113.3 418.3 113.2C418.3 113.1 418.3 113.1 418.3 113V112.9C418.3 112.8 418.3 112.7 418.4 112.6C418.4 112.5 418.4 112.4 418.4 112.3C418.4 112.2 418.4 112.1 418.4 112C418.4 111.9 418.4 111.9 418.4 111.8C418.4 111.7 418.4 111.7 418.4 111.6L418.6 99.8997C418.9 99.8997 418.9 99.9997 418.9 100.2Z" fill="#2F58FF"/>
<path d="M418.7 86.9C419.5 83.5 417.7 79.9 413.1 77.2C405.4 72.6 392.8 72.5 385 76.9C380.5 79.5 378.6 83 379.3 86.5L380.2 92.5L393.5 100.4L405.3 101.2L414.2 94.9L418.1 90.6L418.7 86.9Z" fill="#E8F4FA"/>
<path d="M418.9 85.8C418.9 85.9 418.9 86 418.9 86.1C418.9 86.2 418.9 86.3 418.9 86.4C418.9 86.5 418.9 86.6 418.8 86.7C418.8 86.8 418.8 86.9 418.7 87C418.7 87.1 418.7 87.2 418.6 87.3C418.6 87.4 418.5 87.5 418.5 87.6C418.5 87.7 418.4 87.8 418.4 87.9C418.4 88 418.3 88.1 418.3 88.2C418.3 88.3 418.2 88.4 418.2 88.5C418.2 88.6 418.1 88.7 418.1 88.7C418.1 88.8 418 88.9 417.9 89C417.8 89.1 417.8 89.2 417.7 89.3C417.7 89.3 417.7 89.3 417.7 89.4C417.6 89.6 417.5 89.7 417.4 89.8C417.4 89.8 417.4 89.9 417.3 89.9C417.2 90 417.1 90.2 417 90.3C417 90.3 417 90.4 416.9 90.4C416.8 90.5 416.7 90.7 416.6 90.8L416.5 90.9C416.4 91 416.2 91.2 416.1 91.3L416 91.4C415.9 91.5 415.8 91.6 415.7 91.7C415.6 91.8 415.5 91.9 415.4 91.9C415.3 92 415.2 92.1 415.1 92.1C415 92.2 414.9 92.3 414.8 92.3C414.7 92.4 414.6 92.4 414.5 92.5C414.4 92.6 414.3 92.7 414.2 92.7C414.1 92.8 414 92.8 413.9 92.9C413.8 93 413.7 93 413.5 93.1C413.3 93.2 413.2 93.3 413 93.4C412.7 93.6 412.4 93.7 412.1 93.9C412 93.9 411.9 94 411.8 94C411.6 94.1 411.3 94.2 411.1 94.3C411 94.3 410.9 94.4 410.8 94.4C410.5 94.5 410.1 94.7 409.8 94.8C409.7 94.8 409.7 94.8 409.6 94.9C409.3 95 409 95.1 408.7 95.2C408.6 95.2 408.5 95.3 408.3 95.3C408.1 95.3 408 95.4 407.8 95.4C407.7 95.4 407.5 95.5 407.4 95.5C407.2 95.5 407.1 95.6 406.9 95.6C406.8 95.6 406.6 95.7 406.5 95.7C406.3 95.7 406.2 95.8 406 95.8C405.9 95.8 405.7 95.9 405.6 95.9C405.4 95.9 405.3 96 405.1 96C405 96 404.8 96 404.7 96.1C404.3 96.2 404 96.2 403.6 96.3C403.5 96.3 403.5 96.3 403.4 96.3C403.1 96.3 402.7 96.4 402.4 96.4C402.3 96.4 402.1 96.4 402 96.4C401.8 96.4 401.6 96.4 401.4 96.4C401.3 96.4 401.1 96.4 401 96.4C400.8 96.4 400.6 96.4 400.3 96.4C400.2 96.4 400 96.4 399.9 96.4C399.7 96.4 399.5 96.4 399.3 96.4C399.2 96.4 399 96.4 398.9 96.4C398.7 96.4 398.5 96.4 398.3 96.4C398.2 96.4 398.1 96.4 397.9 96.4C397.7 96.4 397.5 96.4 397.3 96.4C397.2 96.4 397 96.4 396.9 96.4C396.7 96.4 396.5 96.4 396.3 96.4C396.2 96.4 396.1 96.4 396 96.4C395.8 96.4 395.5 96.3 395.3 96.3C395.2 96.3 395.2 96.3 395.1 96.3C394.8 96.3 394.5 96.2 394.2 96.2H394.1C393.8 96.2 393.6 96.1 393.3 96.1C393.2 96.1 393.1 96.1 393 96C392.8 96 392.6 95.9 392.4 95.9C392.3 95.9 392.2 95.9 392.1 95.8C391.9 95.7 391.7 95.7 391.4 95.6C391.3 95.6 391.2 95.5 391 95.5C390.8 95.4 390.6 95.4 390.4 95.3C390.3 95.3 390.2 95.2 390.1 95.2C389.8 95.1 389.5 95 389.2 94.9C389.1 94.9 389.1 94.9 389 94.8C388.6 94.7 388.3 94.5 388 94.4C387.9 94.3 387.7 94.3 387.6 94.2C387.5 94.2 387.4 94.1 387.3 94.1C387.1 94 387 94 386.8 93.9C386.7 93.9 386.6 93.8 386.5 93.8C386.3 93.7 386.2 93.6 386 93.5C385.9 93.5 385.8 93.4 385.8 93.4C385.6 93.3 385.3 93.1 385.1 93C381.2 90.7 379.3 87.7 379.3 84.8L379.1 96.5C379.1 99.5 381 102.4 384.9 104.7C385.1 104.8 385.4 105 385.6 105.1C385.7 105.1 385.8 105.2 385.8 105.2C386 105.3 386.1 105.4 386.3 105.5C386.4 105.5 386.5 105.6 386.6 105.6C386.8 105.7 386.9 105.7 387.1 105.8C387.2 105.8 387.3 105.9 387.4 105.9C387.5 105.9 387.6 106 387.7 106H387.8C388.1 106.1 388.5 106.3 388.8 106.4C388.9 106.4 388.9 106.4 389 106.5C389.3 106.6 389.6 106.7 389.9 106.8C390 106.8 390 106.8 390.1 106.9C390.2 106.9 390.2 106.9 390.3 107C390.5 107.1 390.7 107.1 390.9 107.2C391 107.2 391.1 107.3 391.3 107.3C391.5 107.4 391.7 107.4 392 107.5C392.1 107.5 392.2 107.5 392.2 107.6C392.2 107.6 392.2 107.6 392.3 107.6C392.5 107.6 392.7 107.7 392.9 107.7C393 107.7 393.1 107.7 393.2 107.8C393.5 107.8 393.7 107.9 394 107.9H394.1C394.4 107.9 394.7 108 395 108C395.1 108 395.1 108 395.2 108C395.4 108 395.7 108.1 395.9 108.1C396 108.1 396.1 108.1 396.2 108.1C396.4 108.1 396.6 108.1 396.8 108.1C396.9 108.1 397.1 108.1 397.2 108.1C397.4 108.1 397.6 108.1 397.8 108.1C397.9 108.1 398 108.1 398.1 108.1C398.3 108.1 398.5 108.1 398.7 108.1C398.8 108.1 399 108.1 399.1 108.1C399.3 108.1 399.5 108.1 399.7 108.1H399.8C399.9 108.1 400 108.1 400.1 108.1C400.3 108.1 400.5 108.1 400.8 108.1C400.9 108.1 401.1 108.1 401.2 108.1C401.4 108.1 401.6 108.1 401.8 108.1C401.9 108.1 401.9 108.1 402 108.1C402.1 108.1 402.1 108.1 402.2 108.1C402.5 108.1 402.9 108 403.2 108C403.3 108 403.3 108 403.4 108C403.8 108 404.2 107.9 404.5 107.8H404.6C404.7 107.8 404.8 107.8 404.9 107.7C405.1 107.7 405.2 107.6 405.4 107.6C405.5 107.6 405.7 107.5 405.8 107.5C406 107.5 406.1 107.4 406.3 107.4C406.4 107.4 406.6 107.3 406.7 107.3C406.9 107.3 407 107.2 407.2 107.2C407.3 107.2 407.5 107.1 407.6 107.1C407.8 107.1 407.9 107 408.1 107C408.2 107 408.2 107 408.3 106.9C408.4 106.9 408.4 106.9 408.4 106.8C408.7 106.7 409 106.6 409.3 106.5C409.4 106.5 409.4 106.5 409.5 106.4C409.8 106.3 410.2 106.1 410.5 106C410.6 106 410.7 105.9 410.8 105.9C411.1 105.8 411.3 105.7 411.5 105.6C411.6 105.6 411.7 105.5 411.8 105.5C412.1 105.3 412.4 105.2 412.7 105C412.8 105 412.9 104.9 412.9 104.9C413 104.9 413 104.8 413.1 104.8C413.2 104.7 413.3 104.7 413.5 104.6C413.6 104.5 413.7 104.5 413.8 104.4C413.9 104.3 414 104.2 414.1 104.2C414.2 104.1 414.3 104.1 414.4 104C414.5 103.9 414.6 103.8 414.7 103.8C414.8 103.7 414.9 103.7 415 103.6C415.1 103.5 415.2 103.4 415.3 103.4L415.4 103.3C415.5 103.2 415.6 103.2 415.6 103.1L415.7 103C415.8 102.9 416 102.7 416.1 102.6L416.2 102.5C416.3 102.4 416.4 102.3 416.5 102.1C416.5 102.1 416.5 102 416.6 102C416.7 101.9 416.8 101.7 416.9 101.6C416.9 101.6 416.9 101.5 417 101.5C417.1 101.4 417.2 101.2 417.3 101.1C417.3 101.1 417.3 101.1 417.3 101C417.3 100.9 417.4 100.9 417.4 100.8C417.4 100.8 417.4 100.7 417.5 100.7C417.6 100.6 417.6 100.5 417.7 100.4C417.7 100.3 417.8 100.2 417.8 100.2C417.8 100.1 417.9 100 417.9 99.9C417.9 99.9 417.9 99.8 418 99.8V99.7C418 99.6 418.1 99.5 418.1 99.4C418.1 99.3 418.2 99.2 418.2 99.1C418.2 99 418.3 98.9 418.3 98.8C418.3 98.7 418.3 98.7 418.3 98.6V98.5C418.3 98.4 418.3 98.3 418.4 98.2C418.4 98.1 418.4 98 418.4 97.9C418.4 97.8 418.4 97.7 418.4 97.6C418.4 97.5 418.4 97.5 418.4 97.4C418.4 97.3 418.4 97.3 418.4 97.2L418.6 85.5C418.9 85.6 418.9 85.7 418.9 85.8Z" fill="#2F58FF"/>
<path d="M418.7 72.5001C419.5 69.1001 417.7 65.5001 413.1 62.8001C405.4 58.2001 392.8 58.1001 385 62.5001C380.5 65.1001 378.6 68.6001 379.3 72.1001L380.2 78.1001L393.5 86.0001L405.3 86.8001L414.2 80.5001L418.1 76.2001L418.7 72.5001Z" fill="white"/>
<path d="M418.9 71.3999C418.9 71.4999 418.9 71.5999 418.9 71.6999C418.9 71.7999 418.9 71.8999 418.9 71.9999C418.9 72.0999 418.9 72.1999 418.8 72.2999C418.8 72.3999 418.8 72.4999 418.7 72.5999C418.7 72.6999 418.7 72.7999 418.6 72.8999C418.6 72.9999 418.5 73.0999 418.5 73.1999C418.5 73.2999 418.4 73.3999 418.4 73.4999C418.4 73.5999 418.3 73.6999 418.3 73.7999C418.3 73.8999 418.2 73.9999 418.2 74.0999C418.2 74.1999 418.1 74.2999 418.1 74.2999C418.1 74.3999 418 74.4999 417.9 74.5999C417.8 74.6999 417.8 74.7999 417.7 74.8999C417.7 74.8999 417.7 74.8999 417.7 74.9999C417.6 75.1999 417.5 75.2999 417.4 75.3999C417.4 75.3999 417.4 75.4999 417.3 75.4999C417.2 75.5999 417.1 75.7999 417 75.8999C417 75.8999 417 75.9999 416.9 75.9999C416.8 76.0999 416.7 76.2999 416.6 76.3999L416.5 76.4999C416.4 76.5999 416.2 76.7999 416.1 76.8999L416 76.9999C415.9 77.0999 415.8 77.1999 415.7 77.2999C415.6 77.3999 415.5 77.4999 415.4 77.4999C415.3 77.5999 415.2 77.6999 415.1 77.6999C415 77.7999 414.9 77.8999 414.8 77.8999C414.7 77.9999 414.6 77.9999 414.5 78.0999C414.4 78.1999 414.3 78.2999 414.2 78.2999C414.1 78.3999 414 78.3999 413.9 78.4999C413.8 78.5999 413.7 78.5999 413.5 78.6999C413.3 78.7999 413.2 78.8999 413 78.9999C412.7 79.1999 412.4 79.2999 412.1 79.4999C412 79.4999 411.9 79.5999 411.8 79.5999C411.6 79.6999 411.3 79.7999 411.1 79.8999C411 79.8999 410.9 79.9999 410.8 79.9999C410.5 80.0999 410.1 80.2999 409.8 80.3999C409.7 80.3999 409.7 80.3999 409.6 80.4999C409.3 80.5999 409 80.6999 408.7 80.7999C408.6 80.7999 408.5 80.8999 408.3 80.8999C408.1 80.8999 408 80.9999 407.8 80.9999C407.7 80.9999 407.5 81.0999 407.4 81.0999C407.2 81.0999 407.1 81.1999 406.9 81.1999C406.8 81.1999 406.6 81.2999 406.5 81.2999C406.3 81.2999 406.2 81.3999 406 81.3999C405.9 81.3999 405.7 81.4999 405.6 81.4999C405.4 81.4999 405.3 81.5999 405.1 81.5999C405 81.5999 404.8 81.5999 404.7 81.6999C404.3 81.7999 404 81.7999 403.6 81.8999C403.5 81.8999 403.5 81.8999 403.4 81.8999C403.1 81.8999 402.7 81.9999 402.4 81.9999C402.3 81.9999 402.1 81.9999 402 81.9999C401.8 81.9999 401.6 81.9999 401.4 81.9999C401.3 81.9999 401.1 81.9999 401 81.9999C400.8 81.9999 400.6 81.9999 400.3 81.9999C400.2 81.9999 400 81.9999 399.9 81.9999C399.7 81.9999 399.5 81.9999 399.3 81.9999C399.2 81.9999 399 81.9999 398.9 81.9999C398.7 81.9999 398.5 81.9999 398.3 81.9999C398.2 81.9999 398.1 81.9999 397.9 81.9999C397.7 81.9999 397.5 81.9999 397.3 81.9999C397.2 81.9999 397 81.9999 396.9 81.9999C396.7 81.9999 396.5 81.9999 396.3 81.9999C396.2 81.9999 396.1 81.9999 396 81.9999C395.8 81.9999 395.5 81.8999 395.3 81.8999C395.2 81.8999 395.2 81.8999 395.1 81.8999C394.8 81.8999 394.5 81.7999 394.2 81.7999H394.1C393.8 81.7999 393.6 81.6999 393.3 81.6999C393.2 81.6999 393.1 81.6999 393 81.5999C392.8 81.5999 392.6 81.4999 392.4 81.4999C392.3 81.4999 392.2 81.4999 392.1 81.3999C391.9 81.2999 391.7 81.2999 391.4 81.1999C391.3 81.1999 391.2 81.0999 391 81.0999C390.8 80.9999 390.6 80.9999 390.4 80.8999C390.3 80.8999 390.2 80.7999 390.1 80.7999C389.8 80.6999 389.5 80.5999 389.2 80.4999C389.1 80.4999 389.1 80.4999 389 80.3999C388.6 80.2999 388.3 80.0999 388 79.9999C387.9 79.8999 387.7 79.8999 387.6 79.7999C387.5 79.7999 387.4 79.6999 387.3 79.6999C387.1 79.5999 387 79.5999 386.8 79.4999C386.7 79.4999 386.6 79.3999 386.5 79.3999C386.3 79.2999 386.2 79.1999 386 79.0999C385.9 79.0999 385.8 78.9999 385.8 78.9999C385.6 78.8999 385.3 78.6999 385.1 78.5999C381.2 76.2999 379.3 73.2999 379.3 70.3999L379.1 82.0999C379.1 85.0999 381 87.9999 384.9 90.2999C385.1 90.3999 385.4 90.5999 385.6 90.6999C385.7 90.6999 385.8 90.7999 385.8 90.7999C386 90.8999 386.1 90.9999 386.3 91.0999C386.4 91.0999 386.5 91.1999 386.6 91.1999C386.8 91.2999 386.9 91.2999 387.1 91.3999C387.2 91.3999 387.3 91.4999 387.4 91.4999C387.5 91.4999 387.6 91.5999 387.7 91.5999H387.8C388.1 91.6999 388.5 91.8999 388.8 91.9999C388.9 91.9999 388.9 91.9999 389 92.0999C389.3 92.1999 389.6 92.2999 389.9 92.3999C390 92.3999 390 92.3999 390.1 92.4999C390.2 92.4999 390.2 92.4999 390.3 92.5999C390.5 92.6999 390.7 92.6999 390.9 92.7999C391 92.7999 391.1 92.8999 391.3 92.8999C391.5 92.9999 391.7 92.9999 392 93.0999C392.1 93.0999 392.2 93.0999 392.2 93.1999C392.2 93.1999 392.2 93.1999 392.3 93.1999C392.5 93.1999 392.7 93.2999 392.9 93.2999C393 93.2999 393.1 93.2999 393.2 93.3999C393.5 93.3999 393.7 93.4999 394 93.4999H394.1C394.4 93.4999 394.7 93.5999 395 93.5999C395.1 93.5999 395.1 93.5999 395.2 93.5999C395.4 93.5999 395.7 93.6999 395.9 93.6999C396 93.6999 396.1 93.6999 396.2 93.6999C396.4 93.6999 396.6 93.6999 396.8 93.6999C396.9 93.6999 397.1 93.6999 397.2 93.6999C397.4 93.6999 397.6 93.6999 397.8 93.6999C397.9 93.6999 398 93.6999 398.1 93.6999C398.3 93.6999 398.5 93.6999 398.7 93.6999C398.8 93.6999 399 93.6999 399.1 93.6999C399.3 93.6999 399.5 93.6999 399.7 93.6999H399.8C399.9 93.6999 400 93.6999 400.1 93.6999C400.3 93.6999 400.5 93.6999 400.8 93.6999C400.9 93.6999 401.1 93.6999 401.2 93.6999C401.4 93.6999 401.6 93.6999 401.8 93.6999C401.9 93.6999 401.9 93.6999 402 93.6999C402.1 93.6999 402.1 93.6999 402.2 93.6999C402.5 93.6999 402.9 93.5999 403.2 93.5999C403.3 93.5999 403.3 93.5999 403.4 93.5999C403.8 93.5999 404.2 93.4999 404.5 93.3999H404.6C404.7 93.3999 404.8 93.3999 404.9 93.2999C405.1 93.2999 405.2 93.1999 405.4 93.1999C405.5 93.1999 405.7 93.0999 405.8 93.0999C406 93.0999 406.1 92.9999 406.3 92.9999C406.4 92.9999 406.6 92.8999 406.7 92.8999C406.9 92.8999 407 92.7999 407.2 92.7999C407.3 92.7999 407.5 92.6999 407.6 92.6999C407.8 92.6999 407.9 92.5999 408.1 92.5999C408.2 92.5999 408.2 92.5999 408.3 92.4999C408.4 92.4999 408.4 92.4999 408.4 92.3999C408.7 92.2999 409 92.1999 409.3 92.0999C409.4 92.0999 409.4 92.0999 409.5 91.9999C409.8 91.8999 410.2 91.6999 410.5 91.5999C410.6 91.5999 410.7 91.4999 410.8 91.4999C411.1 91.3999 411.3 91.2999 411.5 91.1999C411.6 91.1999 411.7 91.0999 411.8 91.0999C412.1 90.8999 412.4 90.7999 412.7 90.5999C412.8 90.5999 412.9 90.4999 412.9 90.4999C413 90.4999 413 90.3999 413.1 90.3999C413.2 90.2999 413.3 90.2999 413.5 90.1999C413.6 90.0999 413.7 90.0999 413.8 89.9999C413.9 89.8999 414 89.7999 414.1 89.7999C414.2 89.6999 414.3 89.6999 414.4 89.5999C414.5 89.4999 414.6 89.3999 414.7 89.3999C414.8 89.2999 414.9 89.2999 415 89.1999C415.1 89.0999 415.2 88.9999 415.3 88.9999L415.4 88.8999C415.5 88.7999 415.6 88.7999 415.6 88.6999L415.7 88.5999C415.8 88.4999 416 88.2999 416.1 88.1999L416.2 88.0999C416.3 87.9999 416.4 87.8999 416.5 87.6999C416.5 87.6999 416.5 87.5999 416.6 87.5999C416.7 87.4999 416.8 87.2999 416.9 87.1999C416.9 87.1999 416.9 87.0999 417 87.0999C417.1 86.9999 417.2 86.7999 417.3 86.6999C417.3 86.6999 417.3 86.6999 417.3 86.5999C417.3 86.4999 417.4 86.4999 417.4 86.3999C417.4 86.3999 417.4 86.2999 417.5 86.2999C417.6 86.1999 417.6 86.0999 417.7 85.9999C417.7 85.8999 417.8 85.7999 417.8 85.7999C417.8 85.6999 417.9 85.5999 417.9 85.4999C417.9 85.4999 417.9 85.3999 418 85.3999V85.2999C418 85.1999 418.1 85.0999 418.1 84.9999C418.1 84.8999 418.2 84.7999 418.2 84.6999C418.2 84.5999 418.3 84.4999 418.3 84.3999C418.3 84.2999 418.3 84.2999 418.3 84.1999V84.0999C418.3 83.9999 418.3 83.8999 418.4 83.7999C418.4 83.6999 418.4 83.5999 418.4 83.4999C418.4 83.3999 418.4 83.2999 418.4 83.1999C418.4 83.0999 418.4 83.0999 418.4 82.9999C418.4 82.8999 418.4 82.8999 418.4 82.7999L418.6 71.0999C418.9 71.1999 418.9 71.2999 418.9 71.3999Z" fill="#2F58FF"/>
<path d="M379.4 72C378.7 68.6 380.6 65 385.1 62.4C392.9 58 405.4 58.1 413.2 62.7C417.7 65.4 419.6 69 418.8 72.4" stroke="#171A21" stroke-width="2" stroke-miterlimit="10" stroke-linecap="round" stroke-linejoin="round"/>
<path d="M427.2 114.6C427 114.4 426.8 114.1 426.6 113.8C426.4 113.5 426.2 113.2 426 112.9C425.9 112.7 425.7 112.5 425.6 112.3C425.5 112.1 425.4 111.9 425.2 111.7C425 111.4 424.9 111.1 424.7 110.8C424.6 110.6 424.5 110.5 424.4 110.3C424.2 110 424.1 109.6 423.9 109.3C423.8 109.2 423.8 109 423.7 108.9C423.5 108.4 423.3 107.9 423.1 107.4C423.1 107.3 423.1 107.3 423 107.2C422.8 106.8 422.7 106.3 422.5 105.8C422.5 105.7 422.4 105.5 422.4 105.4C422.3 105 422.1 104.5 422 104.1C422 104 421.9 103.9 421.9 103.8C421.8 103.3 421.6 102.8 421.5 102.2C421.5 102 421.4 101.9 421.4 101.7C421.3 101.3 421.3 100.9 421.2 100.6C421.2 100.4 421.1 100.2 421.1 99.9998C421.1 99.6998 421 99.3998 421 98.9998C421 98.6998 420.9 98.4998 420.9 98.1998C420.9 97.8998 420.9 97.6998 420.9 97.3998C420.9 96.9998 420.9 96.4998 420.9 96.0998C420.9 95.7998 420.9 95.5998 420.9 95.2998C420.9 95.0998 420.9 94.8998 420.9 94.6998C420.9 94.3998 420.9 93.9998 421 93.6998C421 93.4998 421 93.2998 421.1 93.0998C421.1 92.6998 421.2 92.3998 421.2 92.0998C421.2 91.8998 421.2 91.7998 421.3 91.5998C421.4 91.0998 421.5 90.5998 421.6 90.0998C421.7 89.5998 421.9 89.1998 422 88.7998C422 88.6998 422.1 88.5998 422.1 88.4998C422.3 88.0998 422.4 87.6998 422.6 87.3998C422.6 87.3998 422.6 87.3998 422.6 87.2998C422.8 86.9998 422.9 86.6998 423.1 86.3998C423.2 86.1998 423.3 86.0998 423.4 85.8998C423.5 85.6998 423.7 85.4998 423.8 85.2998C423.9 85.1998 424 85.0998 424.1 84.9998C424.3 84.7998 424.5 84.5998 424.7 84.3998L424.8 84.2998C425.1 84.0998 425.3 83.8998 425.6 83.6998C425.7 83.6998 425.7 83.5998 425.8 83.5998C426 83.4998 426.2 83.2998 426.5 83.1998C426.6 83.1998 426.6 83.0998 426.7 83.0998C427 82.9998 427.3 82.8998 427.6 82.7998L415.5 85.9998H415.4C415.2 86.0998 414.9 86.0998 414.7 86.1998C414.7 86.1998 414.6 86.1998 414.6 86.2998C414.5 86.2998 414.5 86.3998 414.4 86.3998C414.3 86.4998 414.2 86.4998 414.1 86.5998C414 86.6998 413.9 86.6998 413.8 86.7998C413.7 86.7998 413.7 86.8998 413.6 86.8998C413.6 86.8998 413.5 86.8998 413.5 86.9998C413.3 87.1998 413.1 87.2998 412.9 87.4998L412.8 87.5998C412.6 87.6998 412.5 87.8998 412.3 87.9998C412.3 88.0998 412.2 88.0998 412.2 88.1998C412.1 88.2998 412 88.3998 411.9 88.4998C411.8 88.5998 411.7 88.6998 411.7 88.7998C411.6 88.8998 411.6 88.9998 411.5 89.0998C411.4 89.2998 411.3 89.3998 411.2 89.5998C411.1 89.6998 411.1 89.7998 411 89.8998C410.9 90.0998 410.8 90.2998 410.7 90.4998C410.7 90.4998 410.7 90.4998 410.7 90.5998C410.6 90.8998 410.5 91.0998 410.3 91.3998C410.3 91.4998 410.2 91.5998 410.2 91.6998C410.2 91.7998 410.1 91.8998 410.1 91.9998C409.9 92.3998 409.8 92.8998 409.7 93.2998C409.6 93.7998 409.5 94.2998 409.4 94.7998C409.4 94.9998 409.3 95.0998 409.3 95.2998C409.2 95.5998 409.2 95.9998 409.2 96.2998C409.2 96.4998 409.2 96.6998 409.1 96.8998C409.1 97.1998 409 97.5998 409 97.8998C409 98.0998 409 98.2998 409 98.4998C409 98.5998 409 98.7998 409 98.8998C409 98.9998 409 99.1998 409 99.2998C409 99.6998 409 100.2 409 100.6C409 100.7 409 100.9 409 101C409 101.1 409 101.2 409 101.4C409 101.7 409.1 101.9 409.1 102.2C409.1 102.4 409.1 102.6 409.2 102.7C409.2 102.8 409.2 103 409.3 103.1C409.3 103.3 409.4 103.5 409.4 103.7C409.4 103.8 409.4 104 409.5 104.1C409.5 104.3 409.6 104.6 409.6 104.8C409.6 105 409.7 105.1 409.7 105.3C409.7 105.4 409.7 105.4 409.7 105.5C409.8 105.9 409.9 106.4 410 106.8V106.9C410 107 410.1 107.1 410.1 107.2C410.2 107.5 410.3 107.8 410.4 108.1C410.4 108.2 410.5 108.4 410.5 108.5C410.5 108.6 410.6 108.8 410.6 108.9C410.6 109 410.7 109.1 410.7 109.3C410.8 109.6 410.9 110 411.1 110.3C411.1 110.4 411.1 110.4 411.2 110.5C411.4 110.9 411.5 111.3 411.7 111.7C411.7 111.8 411.8 111.8 411.8 111.9C411.9 112 411.9 112.2 412 112.3C412.1 112.5 412.2 112.7 412.3 112.9C412.4 113 412.5 113.2 412.5 113.3C412.6 113.5 412.7 113.6 412.8 113.8C412.9 113.9 412.9 114 413 114.1C413.1 114.3 413.2 114.5 413.3 114.6C413.4 114.8 413.5 115 413.7 115.2C413.7 115.3 413.8 115.3 413.8 115.4C413.9 115.5 414 115.7 414.1 115.8C414.3 116.1 414.5 116.4 414.7 116.7C414.8 116.8 414.8 116.9 414.9 116.9C415 117.1 415.2 117.2 415.3 117.4C415.4 117.5 415.5 117.6 415.6 117.8C415.9 118.2 416.3 118.5 416.6 118.9C419.6 121.9 422.7 122.9 425.4 122.2L437.5 119C434.8 119.7 431.7 118.7 428.7 115.7C428.4 115.4 428 115 427.7 114.6C427.4 114.8 427.3 114.7 427.2 114.6Z" fill="#2F58FF"/>
<path d="M421.6 90.2999C423.8 82.0999 430.5 80.2999 436.5 86.1999C442.5 92.0999 445.6 103.7 443.4 111.9C441.2 120.1 434.5 121.9 428.5 116C422.5 110.1 419.4 98.4999 421.6 90.2999Z" fill="white"/>
<path d="M424.7 84.5999C427.8 81.6999 432.3 82.0999 436.4 86.1999C442.4 92.1999 445.5 103.7 443.3 111.9C441.6 118.3 437.1 120.8 432.4 118.8" stroke="#171A21" stroke-width="2" stroke-miterlimit="10" stroke-linecap="round" stroke-linejoin="round"/>
<path d="M91.2 30.6999C91.3 30.5999 91.5 30.5999 91.6 30.4999C91.8 30.3999 92.0001 30.2999 92.3001 30.1999C92.4001 30.0999 92.5 30.0999 92.6 29.9999C92.9 29.7999 93.3 29.6999 93.6 29.4999C93.8 29.3999 93.9001 29.3999 94 29.2999C94 29.2999 94 29.2999 94.1 29.2999C94.2 29.2999 94.4001 29.1999 94.5 29.1999C94.6 29.1999 94.8001 29.1999 94.9001 29.1999C95 29.1999 95.1 29.2999 95.2 29.2999L81 20.9999C81 20.9999 80.9001 20.9999 80.9001 20.8999H80.8001C80.8001 20.8999 80.8 20.8999 80.7 20.8999C80.7 20.8999 80.7 20.8999 80.6 20.8999C80.5 20.8999 80.5 20.8999 80.4001 20.8999C80.3001 20.8999 80.3 20.8999 80.2 20.8999C80.1 20.8999 80.1 20.8999 80 20.8999C79.9001 20.8999 79.9001 20.8999 79.8001 20.8999C79.8001 20.8999 79.8 20.8999 79.7 20.8999C79.6 20.8999 79.6 20.8999 79.5 20.9999C79.4001 20.9999 79.3001 21.0999 79.3001 21.0999C79.0001 21.2999 78.6001 21.4999 78.3001 21.5999C78.2001 21.6999 78.1 21.6999 78 21.7999C77.8 21.8999 77.6001 21.9999 77.3001 22.0999C77.2001 22.1999 77 22.1999 76.9001 22.2999C76.7001 22.3999 76.5001 22.4999 76.3001 22.5999C76.2001 22.6999 76 22.6999 75.9001 22.7999C75.7001 22.8999 75.6001 22.8999 75.4001 22.9999C75 23.0999 74.7001 23.2999 74.4001 23.3999H74.3001C74.0001 23.4999 73.7001 23.5999 73.4001 23.6999C73.3001 23.6999 73.2 23.7999 73.1 23.7999C72.9 23.8999 72.7001 23.8999 72.4001 23.9999C72.3001 23.9999 72.2 24.0999 72.1 24.0999C71.9 24.1999 71.7001 24.1999 71.5 24.2999C71.4001 24.2999 71.3 24.3999 71.2 24.3999C70.8 24.4999 70.3001 24.5999 69.9001 24.6999C69.8001 24.6999 69.8 24.6999 69.7 24.6999C69.3 24.7999 68.9001 24.8999 68.5 24.8999C68.4001 24.8999 68.4001 24.8999 68.3001 24.8999C68.0001 24.9999 67.6001 24.9999 67.3001 24.9999H67.2C66.9 24.9999 66.6001 25.0999 66.3001 25.0999H66.2C65.9 25.0999 65.6001 25.0999 65.4001 25.0999C65.3001 25.0999 65.3 25.0999 65.2 25.0999C65 25.0999 64.7001 25.0999 64.5 25.0999H64.4001C64.2001 25.0999 63.9001 25.0999 63.7001 24.9999C63.6 24.9999 63.6 24.9999 63.5 24.9999C63.3 24.9999 63.1001 24.8999 62.9001 24.8999C62.9001 24.8999 62.9 24.8999 62.8 24.8999C62.6 24.8999 62.4001 24.7999 62.2001 24.7999H62.1C61.9 24.7999 61.7001 24.6999 61.5 24.5999C61.3 24.4999 61.1001 24.4999 60.9001 24.3999H60.8C60.6 24.2999 60.5 24.2999 60.3 24.1999C60.3 24.1999 60.3001 24.1999 60.2001 24.1999C60 24.0999 59.9001 24.0999 59.7001 23.9999C59.5 23.8999 59.4 23.7999 59.3 23.7999L59 23.5999C59 23.5999 58.9001 23.5999 58.9001 23.4999H58.8H58.7001C58.7001 23.4999 58.6 23.4999 58.5 23.4999C58.4 23.4999 58.4 23.4999 58.3 23.4999H58.2001C58.2001 23.4999 58.2 23.4999 58.1 23.4999C58 23.4999 58.0001 23.4999 57.9001 23.4999H57.8H57.7001H57.6C57.5 23.4999 57.4001 23.5999 57.2001 23.6999C57 23.7999 56.9001 23.8999 56.7001 23.9999C56.6 23.9999 56.6 24.0999 56.6 24.0999C56.5 24.1999 56.4001 24.1999 56.4001 24.2999L56.3 24.3999L56.2001 24.4999L56.1 24.5999C56 24.6999 56.0001 24.7999 55.9001 24.7999C55.9001 24.7999 55.9 24.8999 55.8 24.8999C55.8 24.8999 55.8001 24.9999 55.7001 24.9999C55.7001 25.0999 55.6 25.0999 55.6 25.1999C55.6 25.2999 55.5 25.2999 55.5 25.3999V25.4999C55.4 25.7999 55.2001 25.9999 55 26.2999C54.9 26.3999 54.9 26.4999 54.8 26.6999C54.7 26.8999 54.6001 27.0999 54.4001 27.2999C54.3001 27.3999 54.2001 27.5999 54.2001 27.6999C54.1 27.8999 53.9 28.1999 53.8 28.3999C53.7 28.4999 53.6 28.6999 53.6 28.7999C53.4 29.0999 53.2001 29.3999 53 29.6999C53 29.7999 52.9001 29.7999 52.9001 29.8999C52.6001 30.2999 52.3 30.6999 52 31.0999C51.9 31.1999 51.8001 31.2999 51.7001 31.3999C51.5 31.6999 51.3 31.9999 51 32.2999C50.8 32.4999 50.7001 32.6999 50.5 32.8999C50.3 33.0999 50.1001 33.3999 49.9001 33.5999C49.7001 33.7999 49.5001 33.9999 49.4001 34.1999C49.2001 34.4999 48.9001 34.6999 48.7001 34.9999C48.6 35.0999 48.5 35.1999 48.5 35.2999C48.1 35.6999 47.7001 36.0999 47.4001 36.5999C47.4001 36.6999 47.3001 36.6999 47.2001 36.7999C46.8001 37.1999 46.4 37.5999 46 37.9999C45.9 38.0999 45.9 38.0999 45.8 38.1999C45 38.9999 44.5 39.3999 44 39.8999C43.9 39.9999 43.8001 40.0999 43.7001 40.1999C43.3001 40.4999 43 40.8999 42.6 41.1999C42.4 41.2999 42.3 41.4999 42.1 41.5999C41.7 41.9999 41.2001 42.3999 40.7001 42.6999C40.6 42.7999 40.6 42.7999 40.5 42.8999C40 43.2999 39.4 43.7999 38.8 44.1999C38.6 44.2999 38.5 44.3999 38.3 44.4999C37.9 44.7999 37.4 45.0999 37 45.4999C36.8 45.5999 36.6 45.6999 36.5 45.8999C35.9 46.2999 35.3 46.6999 34.6 47.1999C34.4 47.2999 34.3001 47.3999 34.2001 47.4999L34.1 47.5999C34 47.5999 34.0001 47.6999 33.9001 47.6999C33.8001 47.7999 33.8001 47.7999 33.7001 47.8999C33.7001 47.8999 33.7 47.8999 33.6 47.9999C33.5 48.0999 33.5001 48.1999 33.4001 48.1999C33.3001 48.2999 33.3001 48.2999 33.2001 48.3999C33.1001 48.4999 33.1 48.4999 33.1 48.5999C33.1 48.6999 33 48.6999 33 48.7999C33 48.7999 33.0001 48.8999 32.9001 48.8999V48.9999C32.9001 49.0999 32.8 49.0999 32.8 49.1999C32.8 49.2999 32.7001 49.2999 32.7001 49.3999C32.7001 49.3999 32.7 49.4999 32.6 49.4999C32.6 49.5999 32.5 49.6999 32.5 49.6999C32.5 49.7999 32.5001 49.7999 32.4001 49.8999C32.4001 49.9999 32.3 50.0999 32.3 50.1999C32.3 50.2999 32.3 50.2999 32.3 50.3999V50.4999C32.3 50.4999 32.3 50.4999 32.3 50.5999C32.3 50.7999 32.3 50.8999 32.3 51.0999L32.4001 82.4999C32.4001 88.7999 34.6001 93.4999 38.4001 95.5999L52.6 103.9C48.8 101.7 46.6 96.9999 46.6 90.7999L46.5 59.3999C46.5 59.1999 46.5 58.9999 46.5 58.7999V58.6999C46.5 58.4999 46.6 58.2999 46.6 58.1999C46.7 57.9999 46.7 57.7999 46.8 57.5999C46.9 57.3999 47 57.1999 47.1 56.9999C47.2 56.7999 47.3001 56.5999 47.4001 56.4999C47.5001 56.2999 47.7 56.1999 47.8 55.9999C47.8 55.9999 47.8001 55.9999 47.9001 55.8999C48.0001 55.7999 48.1 55.6999 48.2001 55.5999L48.3 55.4999C48.4 55.3999 48.6 55.2999 48.7001 55.1999C49.3001 54.7999 50 54.3999 50.6 53.8999C50.8 53.7999 51 53.6999 51.1 53.4999C51.6 53.1999 52.0001 52.8999 52.4001 52.4999C52.6001 52.3999 52.7001 52.2999 52.9001 52.1999C53.5001 51.7999 54 51.2999 54.6 50.8999C54.7 50.7999 54.7 50.7999 54.8 50.6999C55.3 50.2999 55.7001 49.8999 56.2001 49.5999C56.4001 49.4999 56.5 49.2999 56.7001 49.1999C57.1 48.8999 57.5 48.4999 57.8 48.1999C57.9 48.0999 58 47.9999 58.2001 47.8999C58.6 47.4999 59.1 47.0999 59.5 46.6999L59.6 46.5999C59.7 46.4999 59.7 46.4999 59.8 46.3999C60.2 45.9999 60.6 45.5999 61 45.1999C61 45.0999 61.1 45.0999 61.2001 44.9999C61.6 44.5999 62 44.1999 62.3 43.6999C62.4 43.5999 62.5 43.4999 62.5 43.3999C62.6 43.2999 62.7001 43.1999 62.7001 43.0999C62.9001 42.8999 63 42.6999 63.2001 42.5999C63.4001 42.3999 63.6 42.1999 63.7001 41.9999C63.9001 41.7999 64.1001 41.4999 64.3001 41.2999C64.5001 41.0999 64.6001 40.8999 64.8001 40.6999L64.9001 40.5999C65.1001 40.2999 65.3 40.0999 65.5 39.8999C65.6 39.7999 65.7001 39.6999 65.8001 39.5999C66.1001 39.1999 66.4 38.7999 66.6 38.3999C66.6 38.2999 66.7 38.2999 66.7 38.1999C66.9 37.8999 67.1001 37.5999 67.3001 37.2999C67.4001 37.1999 67.5 36.9999 67.5 36.8999C67.6 36.6999 67.7001 36.5999 67.8001 36.3999C67.8001 36.2999 67.9001 36.2999 67.9001 36.1999C68 36.0999 68.1 35.8999 68.1 35.7999C68.2 35.5999 68.4001 35.3999 68.5 35.1999C68.6 35.0999 68.6 34.9999 68.7 34.7999C68.7 34.6999 68.8001 34.6999 68.8001 34.5999C68.9001 34.3999 69 34.1999 69.1 33.9999C69.2 33.7999 69.4001 33.5999 69.5 33.3999C69.6 33.1999 69.8001 33.0999 69.9001 32.8999L70 32.7999C70.1 32.6999 70.2001 32.5999 70.3001 32.4999L70.4001 32.3999C70.6001 32.2999 70.7001 32.1999 70.9001 32.0999C71 31.9999 71.2001 31.8999 71.3001 31.8999H71.4001C71.5 31.8999 71.7001 31.7999 71.8001 31.7999C71.9001 31.7999 72.1 31.7999 72.2 31.7999C72.3 31.7999 72.5 31.8999 72.6 31.8999L72.8001 31.9999C72.8001 31.9999 72.9001 31.9999 72.9001 32.0999C73 32.1999 73.2001 32.2999 73.3001 32.2999C73.5001 32.3999 73.6001 32.3999 73.8001 32.4999C74.0001 32.5999 74.1001 32.5999 74.3001 32.6999H74.4001C74.6001 32.7999 74.8 32.7999 75 32.8999C75.2001 32.9999 75.4 32.9999 75.6 33.0999H75.7C75.9 33.0999 76.1001 33.1999 76.3001 33.1999C76.5001 33.1999 76.7001 33.2999 76.9001 33.2999C77 33.2999 77 33.2999 77.1 33.2999C77.3 33.2999 77.6001 33.2999 77.8001 33.3999C77.8001 33.3999 77.8001 33.3999 77.9001 33.3999C78.1001 33.3999 78.4 33.3999 78.6 33.3999C78.7 33.3999 78.7001 33.3999 78.8001 33.3999C79.1001 33.3999 79.3 33.3999 79.6 33.3999H79.7C80 33.3999 80.3 33.3999 80.6 33.2999H80.7C81 33.2999 81.4 33.1999 81.7 33.1999H81.8001H81.9001C82.3001 33.0999 82.7 33.0999 83.1 32.9999C83.2 32.9999 83.2001 32.9999 83.3001 32.9999C83.7001 32.8999 84.2 32.7999 84.6 32.6999C84.6 32.6999 84.6 32.6999 84.7 32.6999C84.8 32.6999 84.8001 32.6999 84.9001 32.5999C85.1001 32.4999 85.3 32.4999 85.5 32.3999C85.6 32.3999 85.7001 32.2999 85.8001 32.2999C86.0001 32.1999 86.2001 32.1999 86.5 32.0999C86.6 32.0999 86.7001 31.9999 86.8001 31.9999C87.1001 31.8999 87.4 31.7999 87.7 31.6999H87.8001C88.1001 31.5999 88.5001 31.3999 88.8001 31.2999H88.9001C89 31.1999 89.2001 31.1999 89.3001 31.0999C89.4001 30.9999 89.6 30.9999 89.7 30.8999C90.9 30.8999 91 30.7999 91.2 30.6999Z" fill="#E8F4FA"/>
<path d="M71.2001 32.1999C71.9001 31.7999 72.5001 31.6999 73.0001 31.9999C75.8001 33.6999 82.1001 35.4999 93.6001 29.4999C95.0001 28.7999 96.0001 29.4999 96.0001 31.0999L96.1001 62.4999C96.1001 70.8999 92.2001 80.8999 85.9001 88.7999L75.2001 102.1C74.0001 103.6 72.7001 104.7 71.4001 105.5C70.1001 106.3 68.7001 106.6 67.6001 106.5L56.8001 105.6C50.4001 105.1 46.5001 99.4999 46.5001 91.0999L46.4001 59.6999C46.4001 58.0999 47.5001 56.1999 48.8001 55.2999C60.3001 47.9999 66.6001 38.9999 69.3001 33.9999C69.9001 33.2999 70.5001 32.5999 71.2001 32.1999Z" fill="#2F58FF"/>
<path d="M71.2001 43.4C71.0001 43.5 70.7001 43.8 70.5001 44.1C67.5001 48.6 62.6001 54.5 55.3001 59.8C54.8001 60.2 54.3001 61 54.4001 61.6L54.5001 85.7C54.5001 91.1 57.0001 94.6 61.1001 95L70.3001 95.8C70.6001 95.8 71.0001 95.7 71.4001 95.5C71.8001 95.3 72.2001 94.9 72.5001 94.5L81.6001 83C85.6001 78 88.1001 71.5 88.1001 66.1L88.0001 42C88.0001 41.4 87.6001 41.1 87.0001 41.3C79.7001 44.5 74.8001 44.2 71.8001 43.2C71.7001 43.2 71.5001 43.3 71.2001 43.4Z" fill="white"/>
<path d="M79.6001 267.9C79.6001 267.8 79.6001 267.8 79.6001 267.7C79.6001 267.3 79.6001 266.8 79.7001 266.4V266.3C79.7001 266.2 79.7001 266.1 79.7001 265.9C79.7001 265.6 79.7001 265.3 79.8001 265C79.8001 264.9 79.8001 264.8 79.8001 264.7C79.8001 264.5 79.8001 264.3 79.9001 264.1C79.9001 263.9 79.9001 263.7 80.0001 263.6C80.0001 263.4 80.0001 263.3 80.1001 263.1C80.1001 262.9 80.2001 262.7 80.2001 262.5C80.2001 262.4 80.2001 262.3 80.2001 262.2C80.2001 261.9 80.3001 261.7 80.3001 261.4C80.3001 261.2 80.4001 261 80.4001 260.9C80.4001 260.8 80.4001 260.8 80.4001 260.7C80.5001 260.3 80.6001 259.9 80.7001 259.5C80.7001 259.4 80.7001 259.4 80.7001 259.3C80.8001 258.8 80.9001 258.3 81.1001 257.8V257.7C81.1001 257.5 81.2001 257.4 81.2001 257.2C81.3001 256.9 81.4001 256.6 81.4001 256.3C81.4001 256.2 81.4001 256.1 81.5001 256.1C81.6001 255.9 81.6001 255.7 81.7001 255.5C81.8001 255.3 81.8001 255.1 81.9001 254.8C81.9001 254.7 82.0001 254.5 82.0001 254.4C82.1001 254.2 82.1001 254 82.2001 253.8C82.3001 253.6 82.3001 253.5 82.4001 253.3C82.5001 253.1 82.5001 252.9 82.6001 252.7C82.7001 252.5 82.7001 252.3 82.8001 252.1C82.8001 252 82.9001 251.9 82.9001 251.8C83.0001 251.5 83.1001 251.2 83.2001 250.9C83.3001 250.8 83.3001 250.6 83.4001 250.5V250.4C83.6001 249.9 83.8001 249.5 84.0001 249V248.9C84.1001 248.8 84.1001 248.7 84.2001 248.5C84.3001 248.2 84.5001 247.9 84.6001 247.6C84.6001 247.5 84.7001 247.4 84.7001 247.3C84.8001 247.1 84.9001 246.9 84.9001 246.8C85.0001 246.6 85.1001 246.4 85.1001 246.3C85.2001 246.1 85.2001 246 85.3001 245.8C85.4001 245.6 85.5001 245.3 85.6001 245.1C85.7001 245 85.7001 244.8 85.8001 244.7C85.9001 244.5 86.0001 244.3 86.1001 244.2C86.2001 244 86.4001 243.7 86.5001 243.5C86.6001 243.4 86.6001 243.3 86.7001 243.2C86.8001 243.1 86.8001 243 86.9001 242.9C87.2001 242.3 87.6001 241.6 88.0001 241C88.0001 240.9 88.1001 240.8 88.1001 240.7C88.1001 240.7 88.1001 240.6 88.2001 240.6C88.5001 240.1 88.8001 239.6 89.1001 239C89.1001 238.9 89.2001 238.9 89.2001 238.8C89.6001 238.2 89.9001 237.7 90.3001 237.1C90.3001 237.1 90.3001 237 90.4001 237C90.4001 236.9 90.5001 236.9 90.5001 236.8C91.0001 236.1 91.5001 235.4 92.0001 234.7C92.1001 234.6 92.1001 234.5 92.2001 234.4C92.2001 234.3 92.3001 234.3 92.3001 234.2C92.6001 233.9 92.8001 233.5 93.1001 233.2C93.2001 233.1 93.3001 232.9 93.4001 232.7L93.5001 232.6C93.6001 232.4 93.8001 232.2 93.9001 232.1C94.1001 231.9 94.3001 231.6 94.5001 231.4C94.5001 231.3 94.6001 231.3 94.6001 231.2C94.8001 231 94.9001 230.8 95.1001 230.6C95.3001 230.4 95.4001 230.2 95.6001 230C95.7001 229.9 95.7001 229.9 95.8001 229.8C96.0001 229.6 96.1001 229.4 96.3001 229.3C96.4001 229.1 96.6001 229 96.7001 228.8C96.8001 228.7 96.9001 228.6 97.0001 228.5C97.2001 228.3 97.4001 228.1 97.5001 227.9C97.6001 227.8 97.7001 227.6 97.9001 227.5C98.0001 227.4 98.1001 227.3 98.2001 227.2C98.4001 227 98.6001 226.8 98.8001 226.6C98.9001 226.5 99.0001 226.4 99.1001 226.3C99.2001 226.2 99.3001 226.1 99.5001 226C99.7001 225.8 99.9001 225.6 100.1 225.4C100.2 225.3 100.3 225.2 100.4 225.1C100.5 225 100.7 224.9 100.8 224.8C101 224.6 101.2 224.4 101.4 224.3C101.5 224.2 101.6 224.1 101.7 224.1C101.9 224 102 223.9 102.2 223.7C102.4 223.5 102.6 223.4 102.8 223.2C102.9 223.1 103 223.1 103 223C103.2 222.9 103.4 222.7 103.5 222.6C103.7 222.5 103.9 222.3 104 222.2C104.1 222.2 104.1 222.1 104.2 222.1C104.4 221.9 104.7 221.8 104.9 221.6C105 221.5 105.2 221.4 105.3 221.3C105.3 221.3 105.4 221.3 105.4 221.2C105.8 220.9 106.2 220.7 106.6 220.4C106.7 220.4 106.7 220.3 106.8 220.3C107.1 220.1 107.4 219.9 107.8 219.7C107.9 219.6 108 219.6 108.1 219.5C108.4 219.3 108.7 219.2 109 219C109.1 218.9 109.2 218.9 109.3 218.8C109.5 218.7 109.6 218.6 109.8 218.6C109.9 218.5 110 218.5 110.2 218.4C110.4 218.3 110.6 218.2 110.8 218.1C110.9 218 111.1 218 111.2 217.9C111.3 217.9 111.3 217.8 111.4 217.8C111.8 217.6 112.2 217.5 112.5 217.3C112.9 217.1 113.3 217 113.6 216.9H113.7C113.8 216.9 114 216.8 114.1 216.8C114.3 216.7 114.5 216.7 114.7 216.6C114.8 216.6 114.9 216.5 115 216.5C115.2 216.5 115.3 216.4 115.5 216.4C115.6 216.4 115.8 216.3 115.9 216.3C116 216.3 116.2 216.2 116.3 216.2C116.5 216.2 116.6 216.1 116.8 216.1C116.9 216.1 117 216.1 117.1 216C117.3 216 117.4 215.9 117.6 215.9C117.8 215.9 118 215.8 118.2 215.8C118.3 215.8 118.3 215.8 118.4 215.8C118.6 215.8 118.7 215.8 118.9 215.8C119.1 215.8 119.3 215.8 119.5 215.7C119.6 215.7 119.6 215.7 119.7 215.7C119.8 215.7 120 215.7 120.1 215.7C120.3 215.7 120.6 215.7 120.8 215.7C120.9 215.7 120.9 215.7 121 215.7C121.1 215.7 121.2 215.7 121.3 215.7C121.6 215.7 121.9 215.7 122.2 215.7C122.3 215.7 122.4 215.7 122.5 215.7C122.6 215.7 122.8 215.7 122.9 215.7C123 215.7 123.1 215.7 123.2 215.7C123.5 215.7 123.9 215.8 124.2 215.9C124.3 215.9 124.4 215.9 124.5 216C124.8 216.1 125 216.1 125.3 216.2C125.4 216.2 125.6 216.3 125.7 216.3C125.9 216.4 126 216.4 126.2 216.5C126.2 216.5 126.3 216.5 126.3 216.6C126.6 216.7 126.8 216.8 127.1 216.9C127.2 217 127.3 217 127.5 217.1C127.9 217.3 128.2 217.5 128.6 217.7L142.3 226.2C142 226 141.6 225.8 141.2 225.6C141.1 225.5 141 225.5 140.8 225.4C140.5 225.3 140.3 225.2 140 225.1C139.8 225 139.6 225 139.4 224.9C139.3 224.9 139.1 224.8 139 224.8C138.7 224.7 138.5 224.7 138.2 224.6C138.1 224.6 138 224.6 137.9 224.5C137.6 224.4 137.2 224.4 136.9 224.3C136.8 224.3 136.7 224.3 136.6 224.3C136.4 224.3 136.2 224.3 136 224.2C135.7 224.2 135.4 224.2 135.1 224.2C134.9 224.2 134.8 224.2 134.6 224.2C134.4 224.2 134.1 224.2 133.9 224.2C133.7 224.2 133.5 224.2 133.3 224.2C133.1 224.2 132.9 224.2 132.7 224.3C132.5 224.3 132.3 224.3 132 224.4C131.8 224.4 131.6 224.5 131.4 224.5C131.2 224.5 130.9 224.6 130.7 224.6C130.5 224.6 130.4 224.7 130.2 224.7C129.9 224.8 129.7 224.8 129.4 224.9C129.2 224.9 129.1 225 128.9 225C128.6 225.1 128.3 225.2 128 225.3C127.9 225.3 127.7 225.4 127.6 225.4C126.7 225.7 125.9 226 125 226.4C124.9 226.5 124.7 226.5 124.6 226.6C124.3 226.7 124 226.9 123.7 227.1C123.5 227.2 123.4 227.3 123.2 227.3C122.8 227.5 122.4 227.7 122 228C121.6 228.2 121.2 228.5 120.7 228.8C120.6 228.8 120.6 228.9 120.5 228.9C120.1 229.2 119.6 229.5 119.2 229.8C119.1 229.9 118.9 230 118.8 230.1C118.5 230.3 118.2 230.5 117.9 230.7C117.7 230.8 117.5 231 117.4 231.1C117.1 231.3 116.9 231.5 116.6 231.7C116.4 231.9 116.2 232 116 232.2C115.8 232.4 115.5 232.6 115.3 232.8C115.1 233 114.9 233.1 114.7 233.3C114.5 233.5 114.2 233.7 114 233.9C113.8 234.1 113.6 234.3 113.4 234.5C113.2 234.7 112.9 234.9 112.7 235.2C112.5 235.4 112.3 235.6 112.1 235.8C111.9 236 111.6 236.3 111.4 236.5C111.2 236.7 111 236.9 110.9 237.1C110.7 237.3 110.4 237.6 110.2 237.9C110 238.1 109.9 238.3 109.7 238.4C109.5 238.7 109.2 238.9 109 239.2C108.8 239.4 108.7 239.6 108.5 239.8C108.3 240.1 108 240.4 107.8 240.6C107.7 240.8 107.5 241 107.4 241.1C107.3 241.3 107.1 241.5 107 241.6C106.7 241.9 106.5 242.3 106.2 242.6C106.1 242.7 106 242.9 105.9 243C105.4 243.7 104.9 244.4 104.4 245.1C104.3 245.2 104.3 245.3 104.2 245.4C103.8 246 103.5 246.5 103.1 247.1C103.1 247.1 103 247.2 103 247.3C102.7 247.8 102.4 248.3 102 248.9C101.9 249 101.9 249.1 101.8 249.3C101.4 249.9 101.1 250.6 100.7 251.2C100.6 251.4 100.5 251.6 100.4 251.8C100.3 252 100.1 252.3 100 252.5C99.8001 252.8 99.7001 253.1 99.5001 253.4C99.4001 253.6 99.3001 253.9 99.2001 254.1C99.0001 254.4 98.9001 254.8 98.7001 255.1C98.6001 255.3 98.5001 255.5 98.5001 255.6C98.3001 256 98.1001 256.4 98.0001 256.8C97.9001 256.9 97.9001 257 97.8001 257.2C97.6001 257.7 97.4001 258.2 97.2001 258.8C97.1001 258.9 97.1001 259.1 97.0001 259.2C96.9001 259.6 96.7001 260 96.6001 260.4C96.5001 260.6 96.5001 260.8 96.4001 261C96.3001 261.3 96.2001 261.7 96.1001 262C96.0001 262.2 96.0001 262.4 95.9001 262.6C95.8001 262.9 95.7001 263.3 95.6001 263.6C95.5001 263.8 95.5001 264 95.4001 264.2C95.3001 264.6 95.2001 265 95.1001 265.3C95.1001 265.5 95.0001 265.6 95.0001 265.8C94.9001 266.3 94.7001 266.9 94.6001 267.4C94.6001 267.5 94.6001 267.5 94.6001 267.6C94.5001 268.1 94.4001 268.5 94.3001 269C94.3001 269.2 94.2001 269.4 94.2001 269.5C94.1001 269.9 94.1001 270.2 94.0001 270.6C94.0001 270.8 93.9001 271 93.9001 271.2C93.9001 271.5 93.8001 271.9 93.8001 272.2C93.8001 272.4 93.8001 272.6 93.7001 272.8C93.7001 273.2 93.6001 273.6 93.6001 274C93.6001 274.1 93.6001 274.2 93.6001 274.4C93.6001 274.9 93.5001 275.5 93.5001 276C93.5001 276.4 93.5001 276.8 93.5001 277.2C93.5001 277.7 93.5001 278.3 93.5001 278.8C93.5001 278.9 93.5001 279.1 93.5001 279.2C93.5001 279.6 93.5001 279.9 93.6001 280.2C93.6001 280.4 93.6001 280.6 93.7001 280.8C93.7001 281.1 93.8001 281.4 93.8001 281.7C93.8001 281.9 93.9001 282.1 93.9001 282.3C93.9001 282.6 94.0001 282.8 94.0001 283.1C94.0001 283.3 94.1001 283.6 94.1001 283.8C94.1001 284 94.2001 284.3 94.3001 284.5C94.4001 284.8 94.4001 285 94.5001 285.3C94.6001 285.5 94.6001 285.7 94.7001 285.9C94.8001 286.2 94.9001 286.5 95.0001 286.8C95.1001 287 95.1001 287.1 95.2001 287.3C95.4001 287.8 95.6001 288.3 95.8001 288.7C96.1001 289.4 96.5001 290.1 96.9001 290.8C96.9001 290.9 97.0001 290.9 97.0001 291C97.2001 291.2 97.3001 291.5 97.5001 291.7C97.6001 291.8 97.6001 291.9 97.7001 292C97.9001 292.2 98.0001 292.4 98.2001 292.6C98.3001 292.7 98.3001 292.7 98.4001 292.8C98.6001 293.1 98.9001 293.3 99.1001 293.5L99.2001 293.6C99.4001 293.8 99.6001 294 99.9001 294.2C100 294.3 100.1 294.3 100.1 294.4C100.3 294.6 100.5 294.7 100.7 294.8C100.8 294.9 100.9 294.9 100.9 295C101.2 295.2 101.5 295.4 101.7 295.5L88.0001 287C87.7001 286.8 87.4001 286.7 87.2001 286.5C87.1001 286.4 87.0001 286.4 87.0001 286.3C86.8001 286.2 86.6001 286 86.4001 285.9C86.3001 285.8 86.2001 285.8 86.2001 285.7C86.0001 285.5 85.8001 285.3 85.5001 285.1L85.4001 285C85.2001 284.8 84.9001 284.5 84.7001 284.3C84.6001 284.2 84.6001 284.2 84.5001 284.1C84.3001 283.9 84.2001 283.7 84.0001 283.5C83.9001 283.4 83.9001 283.3 83.8001 283.2C83.6001 283 83.5001 282.7 83.3001 282.5C83.3001 282.4 83.2001 282.4 83.2001 282.3C83.2001 282.3 83.2001 282.3 83.2001 282.2C82.8001 281.6 82.5001 280.9 82.1001 280.3C81.9001 279.8 81.7001 279.4 81.5001 278.9C81.5001 278.9 81.5001 278.8 81.4001 278.8C81.4001 278.7 81.3001 278.6 81.3001 278.4C81.2001 278.1 81.1001 277.8 81.0001 277.5C81.0001 277.4 80.9001 277.3 80.9001 277.3C80.9001 277.2 80.8001 277.1 80.8001 276.9C80.7001 276.6 80.7001 276.4 80.6001 276.1C80.6001 276 80.5001 275.9 80.5001 275.8C80.5001 275.7 80.5001 275.6 80.4001 275.4C80.4001 275.2 80.3001 274.9 80.3001 274.7C80.3001 274.6 80.3001 274.5 80.2001 274.3C80.2001 274.2 80.2001 274 80.1001 273.9C80.1001 273.7 80.0001 273.5 80.0001 273.3C80.0001 273.2 80.0001 273.1 80.0001 273C80.0001 272.8 80.0001 272.6 79.9001 272.5C79.9001 272.3 79.9001 272.1 79.8001 271.9C79.8001 271.8 79.8001 271.7 79.8001 271.7C79.8001 271.4 79.8001 271.2 79.7001 270.9C79.7001 270.8 79.7001 270.6 79.7001 270.5V270.4C79.7001 269.9 79.7001 269.5 79.7001 269V268.9C79.6001 268.7 79.6001 268.3 79.6001 267.9Z" fill="#E8F4FA"/>
<path d="M119 231.1L106.5 223.6V217.8L119 223.6V231.1Z" fill="#171A21"/>
<path d="M114.3 207C114.3 207 114.3 206.9 114.3 207C114.2 206.9 114.2 206.9 114.1 206.9C114.1 206.9 114.1 206.9 114 206.9H113.9H113.8C113.8 206.9 113.8 206.9 113.7 206.9H113.6C113.6 206.9 113.6 206.9 113.5 206.9C113.5 206.9 113.5 206.9 113.4 206.9C113.4 206.9 113.4 206.9 113.3 206.9C113.2 206.9 113.2 207 113.1 207L105.2 211.6C105 211.7 104.9 211.8 104.7 212C104.7 212 104.7 212 104.6 212.1C104.6 212.1 104.6 212.1 104.5 212.2C104.5 212.2 104.5 212.2 104.4 212.3C104.4 212.4 104.3 212.4 104.3 212.5C104.3 212.5 104.3 212.5 104.3 212.6C104.3 212.6 104.3 212.6 104.3 212.7L104.2 212.8L104.1 212.9C104.1 212.9 104.1 213 104 213C104 213 104 213.1 103.9 213.1C103.9 213.1 103.9 213.2 103.8 213.2C103.8 213.2 103.8 213.3 103.7 213.3C103.7 213.4 103.7 213.4 103.6 213.5V213.6C103.6 213.6 103.6 213.6 103.6 213.7C103.6 213.8 103.6 213.8 103.6 213.9V214C103.6 214 103.6 214 103.6 214.1C103.6 214.1 103.6 214.1 103.6 214.2C103.6 214.3 103.6 214.4 103.6 214.5V217.7C103.6 218.2 103.8 218.6 104.1 218.7L116.2 225.8C115.9 225.6 115.7 225.3 115.7 224.8V221.6C115.7 221.5 115.7 221.4 115.7 221.2C115.7 221.2 115.7 221.2 115.7 221.1C115.7 221 115.7 220.9 115.8 220.8C115.8 220.7 115.9 220.5 115.9 220.4C116 220.3 116 220.1 116.1 220C116.2 219.9 116.2 219.8 116.3 219.7C116.4 219.6 116.5 219.5 116.5 219.4C116.5 219.4 116.5 219.4 116.6 219.3L116.7 219.2C116.9 219.1 117 218.9 117.2 218.8L125.1 214.2C125.2 214.1 125.3 214.1 125.4 214.1C125.4 214.1 125.4 214.1 125.5 214.1C125.6 214.1 125.7 214.1 125.8 214C125.9 214 126 214 126.1 214C126.2 214 126.3 214 126.3 214.1L114.3 207Z" fill="white"/>
<path d="M125.9 214.7L114.3 206.9H114.2H114.1C114.1 206.9 114.1 206.9 114 206.9H113.9H113.8C113.8 206.9 113.8 206.9 113.7 206.9H113.6C113.6 206.9 113.6 206.9 113.5 206.9C113.5 206.9 113.5 206.9 113.4 206.9C113.4 206.9 113.4 206.9 113.3 206.9C113.2 206.9 113.2 207 113.1 207L105.2 211.6C105 211.7 104.9 211.8 104.7 212C104.7 212 104.7 212 104.6 212.1C104.6 212.1 104.6 212.1 104.5 212.2C104.5 212.2 104.5 212.2 104.4 212.3C104.4 212.4 104.3 212.4 104.3 212.5C104.3 212.5 104.3 212.5 104.3 212.6C104.3 212.6 104.3 212.6 104.3 212.7L104.2 212.8L104.1 212.9C104.1 212.9 104.1 213 104 213C104 213 104 213.1 103.9 213.1C103.9 213.1 103.9 213.2 103.8 213.2C103.8 213.2 103.8 213.3 103.7 213.3C103.7 213.4 103.7 213.4 103.6 213.5V213.6C103.6 213.6 103.6 213.6 103.6 213.7C103.6 213.8 103.6 213.8 103.6 213.9V214C103.6 214 103.6 214 103.6 214.1C103.6 214.1 103.6 214.1 103.6 214.2C103.6 214.3 103.6 214.4 103.6 214.5V217.7C103.6 218.2 103.8 218.6 104.1 218.7L116.2 225.8L125.9 214.7Z" stroke="#171A21" stroke-width="2" stroke-miterlimit="10" stroke-linecap="round" stroke-linejoin="round"/>
<path d="M126.9 215.1C126.9 214.1 126.2 213.7 125.3 214.2L117.4 218.8C116.5 219.3 115.8 220.6 115.8 221.6V224.8C115.8 225.8 116.5 226.2 117.4 225.7L118.6 225V230.7C119 230.4 119.4 230.2 119.7 229.9C120.4 229.4 121.1 229 121.7 228.6C122.4 228.2 123.2 227.8 123.9 227.4V221.8L125.2 221C126.1 220.5 126.8 219.2 126.8 218.2L126.9 215.1Z" fill="#2F58FF"/>
<path d="M121.7 228.4C106.3 237.3 93.8 258.6 93.3 276.4C93.3 276.8 93.3 277.2 93.3 277.6C93.4 295.7 106.2 303 121.9 293.9C137.6 284.8 150.4 262.8 150.3 244.7C150.3 244.3 150.3 243.9 150.3 243.5C149.7 226.3 137.1 219.5 121.7 228.4Z" fill="#2F58FF"/>
<path d="M121.7 236.9C110.2 243.6 100.8 259.5 100.3 272.9V273C100.3 273.3 100.3 273.7 100.3 274C100.3 287.6 110 293.1 121.8 286.3C133.6 279.5 143.2 262.9 143.2 249.3C143.2 249 143.2 248.6 143.2 248.3V248.2C142.7 235.3 133.2 230.2 121.7 236.9Z" fill="white"/>
<path d="M122.3 260.3L138.5 251C138.5 250.9 138.5 250.9 138.5 250.8C138.5 240.4 131.1 236.2 122 241.4L122.1 260.2L122.3 260.3Z" fill="#171A21"/>
</g>
<defs>
<clipPath id="clip0">
<rect width="468.7" height="339.5" fill="white"/>
</clipPath>
</defs>
</svg>
