<?xml version="1.0" encoding="utf-8"?>
<!-- Generator: Adobe Illustrator 22.1.0, SVG Export Plug-In . SVG Version: 6.00 Build 0)  -->
<svg version="1.1" id="Слой_1" xmlns="http://www.w3.org/2000/svg" xmlns:xlink="http://www.w3.org/1999/xlink" x="0px" y="0px"
	 viewBox="0 0 22 30" style="enable-background:new 0 0 22 30;" xml:space="preserve">
<style type="text/css">
	.st0{fill:#2F58FF;}
</style>
<path class="st0" d="M11,30c0.4,0,0.7-0.2,0.9-0.4C13,28.3,22,17.1,22,11.3C22,5,17.1,0,11,0C4.9,0,0,5,0,11.3c0,5.8,9,17,10.1,18.3
	C10.3,29.8,10.6,30,11,30z M11,2.5c4.7,0,8.6,3.9,8.6,8.8c0,3.7-5.5,11.6-8.6,15.5C8,22.9,2.4,15,2.4,11.3C2.4,6.4,6.3,2.5,11,2.5z"
	/>
<path class="st0" d="M15.3,15.2c0.5-0.5,0.4-1.2,0-1.7c-0.5-0.5-1.2-0.5-1.7,0c-0.7,0.7-1.6,1.1-2.6,1.1c-2,0-3.6-1.6-3.6-3.6
	S9,7.4,11,7.4S14.6,9,14.6,11c0,0.7,0.5,1.2,1.2,1.2S17,11.7,17,11c0-3.3-2.7-6-6-6s-6,2.7-6,6s2.7,6,6,6
	C12.6,17,14.2,16.4,15.3,15.2z"/>
</svg>
