<?xml version="1.0" encoding="utf-8"?>
<!-- Generator: Adobe Illustrator 22.1.0, SVG Export Plug-In . SVG Version: 6.00 Build 0)  -->
<svg version="1.1" id="Слой_1" xmlns="http://www.w3.org/2000/svg" xmlns:xlink="http://www.w3.org/1999/xlink" x="0px" y="0px"
	 viewBox="0 0 30 30" style="enable-background:new 0 0 30 30;" xml:space="preserve">
<style type="text/css">
	.st0{fill:#2F58FF;}
</style>
<path class="st0" d="M21,11.4c0-1.3-1.2-2.4-2.6-2.4c-1.4,0-2.6,1.1-2.6,2.4c0,1.3,1.2,2.4,2.7,2.4c-0.8,2.2-2.8,4-5.2,4.8
	c0-1.4-1.2-2.5-2.6-2.5c-1.4,0-2.6,1.1-2.6,2.4c0,1.4,1.2,2.4,2.6,2.4C16.6,21,21.2,16.3,21,11.4z"/>
<path class="st0" d="M25.6,4.4c-5.9-5.9-15.3-5.9-21.2,0c-5.9,5.9-5.9,15.3,0,21.2c5.9,5.9,15.3,5.9,21.2,0
	C31.5,19.7,31.5,10.3,25.6,4.4z M15,27.5C8.1,27.5,2.5,21.9,2.5,15C2.5,8.1,8.1,2.5,15,2.5c6.9,0,12.5,5.6,12.5,12.5
	C27.5,21.9,21.9,27.5,15,27.5z"/>
</svg>
