<?xml version="1.0" encoding="utf-8"?>
<!-- Generator: Adobe Illustrator 22.1.0, SVG Export Plug-In . SVG Version: 6.00 Build 0)  -->
<svg version="1.1" id="Слой_1" xmlns="http://www.w3.org/2000/svg" xmlns:xlink="http://www.w3.org/1999/xlink" x="0px" y="0px"
	 viewBox="0 0 306 48" style="enable-background:new 0 0 306 48;" xml:space="preserve">
<style type="text/css">
	.st0{fill:#FFD394;}
	.st1{fill:#2F58FF;}
	.st2{fill:#9AF4DC;}
	.st3{fill:#FB7070;}
	.st4{fill:#171A21;}
</style>
<path class="st0" d="M24,48V0c13.3,0,24,10.7,24,24S37.3,48,24,48z"/>
<path class="st1" d="M0,12l24,12v24L0,36V12z"/>
<path class="st2" d="M24,24V0L0,12L24,24z"/>
<path class="st3" d="M24,0v24l22.4-8.6C42.9,6.4,34.2,0,24,0z"/>
<path class="st4" d="M71.4,15.4h2.9l5.1,13.8h-3.3L75,26.1h-4.3l-1.1,3.1h-3.3L71.4,15.4z M74.5,23.9L72.8,19l-1.7,4.9H74.5z"/>
<path class="st4" d="M81,15h3.1v10.6c0,0.8,0.3,1.2,1,1.2c0.2,0,0.3,0,0.5-0.1c0.2-0.1,0.4-0.1,0.5-0.2l0.4,2.3
	c-0.4,0.2-0.8,0.3-1.4,0.4c-0.5,0.1-1,0.2-1.4,0.2c-0.9,0-1.6-0.2-2.1-0.7c-0.5-0.5-0.7-1.1-0.7-2V15z"/>
<path class="st4" d="M88.1,15h3.1v10.6c0,0.8,0.3,1.2,1,1.2c0.2,0,0.3,0,0.5-0.1c0.2-0.1,0.4-0.1,0.5-0.2l0.4,2.3
	c-0.4,0.2-0.8,0.3-1.4,0.4c-0.5,0.1-1,0.2-1.4,0.2c-0.9,0-1.6-0.2-2.1-0.7c-0.5-0.5-0.7-1.1-0.7-2V15z"/>
<path class="st4" d="M95.2,29.2V19h3.1v10.2H95.2z M95.2,17.8V15h3.1v2.8H95.2z"/>
<path class="st4" d="M103.9,29.4c-0.5,0-1-0.1-1.4-0.2c-0.4-0.2-0.8-0.4-1.1-0.7c-0.3-0.3-0.6-0.6-0.7-1c-0.2-0.4-0.3-0.8-0.3-1.3
	c0-0.5,0.1-1,0.3-1.4c0.2-0.4,0.5-0.8,0.9-1.1c0.4-0.3,0.9-0.5,1.4-0.7c0.5-0.2,1.1-0.3,1.8-0.3c0.4,0,0.9,0,1.3,0.1
	c0.4,0.1,0.8,0.2,1.1,0.3v-0.5c0-1.2-0.7-1.8-2.1-1.8c-0.6,0-1.1,0.1-1.6,0.3c-0.5,0.2-1,0.5-1.6,0.8l-0.9-1.9
	c0.7-0.4,1.4-0.8,2.1-1c0.7-0.2,1.5-0.3,2.3-0.3c1.6,0,2.8,0.4,3.6,1.1c0.9,0.7,1.3,1.8,1.3,3.2v2.6c0,0.3,0,0.5,0.1,0.7
	c0.1,0.1,0.3,0.2,0.5,0.2v2.6c-0.3,0.1-0.5,0.1-0.7,0.1c-0.2,0-0.4,0-0.6,0c-0.6,0-1-0.1-1.3-0.3c-0.3-0.2-0.5-0.6-0.6-1l-0.1-0.5
	c-0.5,0.6-1,1-1.7,1.3C105.3,29.2,104.6,29.4,103.9,29.4z M104.8,27.2c0.3,0,0.7-0.1,1-0.2c0.3-0.1,0.6-0.3,0.8-0.5
	c0.3-0.2,0.5-0.5,0.5-0.7v-1c-0.3-0.1-0.6-0.2-0.9-0.2c-0.3-0.1-0.6-0.1-0.9-0.1c-0.6,0-1.1,0.1-1.4,0.4c-0.4,0.3-0.6,0.6-0.6,1
	c0,0.4,0.1,0.7,0.4,0.9C104,27,104.4,27.2,104.8,27.2z"/>
<path class="st4" d="M122.9,29.2h-3.1v-5.7c0-0.7-0.1-1.2-0.4-1.5c-0.2-0.3-0.6-0.5-1-0.5c-0.2,0-0.4,0-0.7,0.1
	c-0.2,0.1-0.4,0.2-0.6,0.4c-0.2,0.2-0.4,0.3-0.6,0.6c-0.2,0.2-0.3,0.5-0.4,0.7v5.9H113V19h2.8v1.7c0.4-0.6,0.9-1.1,1.6-1.4
	c0.7-0.3,1.5-0.5,2.4-0.5c0.7,0,1.2,0.1,1.6,0.4c0.4,0.2,0.7,0.5,0.9,0.9c0.2,0.4,0.4,0.8,0.4,1.2c0.1,0.5,0.1,0.9,0.1,1.3V29.2z"/>
<path class="st4" d="M124.9,24.1c0-0.7,0.1-1.4,0.4-2c0.2-0.6,0.6-1.2,1.1-1.7c0.5-0.5,1-0.9,1.7-1.2c0.7-0.3,1.5-0.4,2.4-0.4
	c1.2,0,2.2,0.3,3,0.8c0.8,0.5,1.4,1.1,1.8,1.9l-3.1,0.9c-0.4-0.6-1-1-1.8-1c-0.7,0-1.2,0.2-1.7,0.7c-0.4,0.5-0.6,1.1-0.6,1.9
	c0,0.4,0.1,0.8,0.2,1.1c0.1,0.3,0.3,0.6,0.5,0.8c0.2,0.2,0.5,0.4,0.7,0.5c0.3,0.1,0.6,0.2,0.9,0.2c0.4,0,0.8-0.1,1.1-0.3
	c0.3-0.2,0.6-0.4,0.7-0.7l3.1,0.9c-0.4,0.8-1,1.4-1.8,1.9c-0.8,0.5-1.8,0.8-3,0.8c-0.9,0-1.6-0.1-2.3-0.4c-0.7-0.3-1.3-0.7-1.8-1.2
	c-0.5-0.5-0.8-1.1-1.1-1.7C125,25.5,124.9,24.8,124.9,24.1z"/>
<path class="st4" d="M142.1,29.4c-0.9,0-1.6-0.1-2.3-0.4c-0.7-0.3-1.3-0.7-1.8-1.1c-0.5-0.5-0.8-1-1.1-1.7c-0.2-0.6-0.4-1.3-0.4-2
	c0-0.7,0.1-1.4,0.4-2.1c0.2-0.7,0.6-1.2,1.1-1.7c0.5-0.5,1-0.9,1.7-1.2c0.7-0.3,1.5-0.4,2.4-0.4c0.9,0,1.7,0.1,2.3,0.4
	c0.7,0.3,1.3,0.7,1.7,1.2c0.5,0.5,0.8,1,1.1,1.7c0.2,0.6,0.4,1.3,0.4,2c0,0.2,0,0.4,0,0.5c0,0.2,0,0.3-0.1,0.4h-7.6
	c0.1,0.7,0.3,1.2,0.7,1.6c0.5,0.4,1,0.5,1.6,0.5c0.5,0,0.9-0.1,1.3-0.3c0.4-0.2,0.7-0.5,0.9-0.9l2.7,0.7c-0.4,0.8-1,1.5-1.9,2
	C144.3,29.1,143.3,29.4,142.1,29.4z M144.2,23.1c-0.1-0.6-0.3-1.2-0.7-1.5c-0.4-0.4-0.9-0.6-1.5-0.6c-0.6,0-1.1,0.2-1.5,0.6
	c-0.4,0.4-0.6,0.9-0.7,1.5H144.2z"/>
<path class="st4" d="M154,22.2c0-0.8,0.2-1.7,0.5-2.5c0.3-0.8,0.8-1.6,1.4-2.2c0.6-0.6,1.3-1.2,2.2-1.6c0.9-0.4,1.8-0.6,2.9-0.6
	c1.3,0,2.4,0.3,3.4,0.8c1,0.6,1.7,1.3,2.2,2.2l-2.5,1.7c-0.2-0.4-0.4-0.7-0.6-0.9c-0.2-0.2-0.5-0.4-0.8-0.6
	c-0.3-0.2-0.6-0.3-0.9-0.3c-0.3-0.1-0.6-0.1-0.9-0.1c-0.6,0-1.2,0.1-1.6,0.4c-0.5,0.2-0.8,0.6-1.1,1s-0.5,0.8-0.7,1.3
	c-0.1,0.5-0.2,1-0.2,1.5c0,0.5,0.1,1.1,0.3,1.6c0.2,0.5,0.4,1,0.7,1.3c0.3,0.4,0.7,0.7,1.2,0.9c0.5,0.2,1,0.3,1.5,0.3
	c0.3,0,0.6,0,0.9-0.1c0.3-0.1,0.6-0.2,0.9-0.3c0.3-0.2,0.6-0.4,0.8-0.6c0.2-0.2,0.4-0.5,0.6-0.9l2.6,1.5c-0.2,0.5-0.5,1-0.9,1.4
	c-0.4,0.4-0.9,0.7-1.4,1c-0.5,0.3-1.1,0.5-1.7,0.6c-0.6,0.1-1.2,0.2-1.8,0.2c-1,0-1.9-0.2-2.8-0.6c-0.8-0.4-1.6-1-2.2-1.6
	c-0.6-0.7-1.1-1.4-1.4-2.3C154.2,23.9,154,23.1,154,22.2z"/>
<path class="st4" d="M173.5,29.4c-0.9,0-1.7-0.1-2.4-0.4c-0.7-0.3-1.3-0.7-1.7-1.1c-0.5-0.5-0.8-1.1-1.1-1.7c-0.2-0.6-0.4-1.3-0.4-2
	c0-0.7,0.1-1.4,0.4-2c0.2-0.6,0.6-1.2,1.1-1.7c0.5-0.5,1-0.9,1.7-1.2c0.7-0.3,1.5-0.4,2.4-0.4c0.9,0,1.7,0.1,2.3,0.4
	c0.7,0.3,1.3,0.7,1.7,1.2c0.5,0.5,0.8,1,1.1,1.7c0.2,0.6,0.4,1.3,0.4,2c0,0.7-0.1,1.4-0.4,2c-0.2,0.6-0.6,1.2-1.1,1.7
	c-0.5,0.5-1.1,0.9-1.8,1.1C175.2,29.3,174.4,29.4,173.5,29.4z M171.2,24.1c0,0.8,0.2,1.5,0.6,1.9c0.4,0.5,1,0.7,1.7,0.7
	c0.3,0,0.6-0.1,0.9-0.2c0.3-0.1,0.5-0.3,0.7-0.5c0.2-0.2,0.4-0.5,0.5-0.8c0.1-0.3,0.2-0.7,0.2-1.1c0-0.8-0.2-1.4-0.6-1.9
	c-0.4-0.5-1-0.7-1.6-0.7c-0.3,0-0.6,0.1-0.9,0.2c-0.3,0.1-0.5,0.3-0.7,0.5c-0.2,0.2-0.4,0.5-0.5,0.9
	C171.3,23.4,171.2,23.7,171.2,24.1z"/>
<path class="st4" d="M184.2,29.4c-1.1,0-1.9-0.3-2.4-1c-0.5-0.7-0.8-1.6-0.8-2.9V19h3.1v5.9c0,0.6,0.1,1.1,0.4,1.4
	c0.2,0.3,0.6,0.5,1.1,0.5c0.4,0,0.8-0.1,1.2-0.3c0.4-0.2,0.7-0.6,1-1.1V19h3.1v6.7c0,0.3,0,0.5,0.1,0.7c0.1,0.1,0.3,0.2,0.5,0.2v2.6
	c-0.3,0.1-0.6,0.1-0.8,0.1c-0.2,0-0.4,0-0.6,0c-1.1,0-1.8-0.4-1.9-1.3l-0.1-0.6c-0.5,0.7-1.1,1.2-1.8,1.5
	C185.9,29.2,185.1,29.4,184.2,29.4z"/>
<path class="st4" d="M200.5,21.7c-0.8,0-1.4,0.1-2.1,0.4c-0.6,0.2-1.1,0.6-1.3,1.1v6.1h-3.1V19h2.9v2.1c0.4-0.7,0.8-1.2,1.4-1.6
	c0.6-0.4,1.2-0.6,1.8-0.6c0.1,0,0.2,0,0.3,0c0.1,0,0.1,0,0.2,0V21.7z"/>
<path class="st4" d="M202.3,29.2V19h3.1v10.2H202.3z M202.3,17.8V15h3.1v2.8H202.3z"/>
<path class="st4" d="M213,29.4c-0.9,0-1.6-0.1-2.3-0.4c-0.7-0.3-1.3-0.7-1.8-1.1c-0.5-0.5-0.8-1-1.1-1.7c-0.2-0.6-0.4-1.3-0.4-2
	c0-0.7,0.1-1.4,0.4-2.1c0.2-0.7,0.6-1.2,1.1-1.7c0.5-0.5,1-0.9,1.7-1.2c0.7-0.3,1.5-0.4,2.4-0.4c0.9,0,1.7,0.1,2.3,0.4
	c0.7,0.3,1.3,0.7,1.7,1.2c0.5,0.5,0.8,1,1.1,1.7c0.2,0.6,0.4,1.3,0.4,2c0,0.2,0,0.4,0,0.5c0,0.2,0,0.3-0.1,0.4h-7.6
	c0.1,0.7,0.3,1.2,0.7,1.6c0.5,0.4,1,0.5,1.6,0.5c0.5,0,0.9-0.1,1.3-0.3c0.4-0.2,0.7-0.5,0.9-0.9l2.7,0.7c-0.4,0.8-1,1.5-1.9,2
	C215.2,29.1,214.2,29.4,213,29.4z M215.2,23.1c-0.1-0.6-0.3-1.2-0.7-1.5c-0.4-0.4-0.9-0.6-1.5-0.6c-0.6,0-1.1,0.2-1.5,0.6
	c-0.4,0.4-0.6,0.9-0.7,1.5H215.2z"/>
<path class="st4" d="M227,21.7c-0.8,0-1.4,0.1-2.1,0.4c-0.6,0.2-1.1,0.6-1.3,1.1v6.1h-3.1V19h2.9v2.1c0.4-0.7,0.8-1.2,1.4-1.6
	c0.6-0.4,1.2-0.6,1.8-0.6c0.1,0,0.2,0,0.3,0c0.1,0,0.1,0,0.2,0V21.7z"/>
<path class="st4" d="M242,19.4c0-0.1-0.2-0.1-0.4-0.3c-0.2-0.1-0.5-0.3-0.9-0.4s-0.7-0.3-1.2-0.4c-0.4-0.1-0.8-0.2-1.3-0.2
	c-1.2,0-1.7,0.4-1.7,1.1c0,0.2,0.1,0.4,0.2,0.6c0.1,0.2,0.3,0.3,0.6,0.4c0.2,0.1,0.6,0.2,0.9,0.3c0.4,0.1,0.8,0.2,1.3,0.4
	c0.7,0.2,1.3,0.4,1.8,0.6c0.5,0.2,1,0.5,1.4,0.8c0.4,0.3,0.7,0.7,0.9,1.1c0.2,0.5,0.3,1,0.3,1.6c0,0.8-0.1,1.4-0.5,2
	c-0.3,0.5-0.7,1-1.2,1.3c-0.5,0.3-1,0.6-1.7,0.7c-0.6,0.1-1.3,0.2-1.9,0.2c-0.5,0-1,0-1.6-0.1c-0.5-0.1-1.1-0.2-1.6-0.3
	c-0.5-0.2-1-0.3-1.5-0.5c-0.5-0.2-0.9-0.4-1.3-0.7l1.4-2.8c0.1,0.1,0.2,0.2,0.5,0.4c0.3,0.2,0.6,0.4,1.1,0.5
	c0.4,0.2,0.9,0.3,1.4,0.5c0.5,0.1,1.1,0.2,1.6,0.2c1.1,0,1.7-0.3,1.7-1c0-0.3-0.1-0.5-0.3-0.6c-0.2-0.2-0.4-0.3-0.7-0.4
	c-0.3-0.1-0.7-0.3-1.1-0.4c-0.4-0.1-0.9-0.2-1.3-0.4c-0.6-0.2-1.2-0.4-1.7-0.6c-0.5-0.2-0.9-0.5-1.2-0.8c-0.3-0.3-0.5-0.6-0.7-1
	c-0.1-0.4-0.2-0.8-0.2-1.4c0-0.7,0.1-1.4,0.4-1.9c0.3-0.6,0.6-1,1.1-1.4c0.5-0.4,1-0.7,1.6-0.9c0.6-0.2,1.3-0.3,2-0.3
	c0.5,0,1,0,1.4,0.1c0.5,0.1,0.9,0.2,1.4,0.4c0.4,0.1,0.8,0.3,1.2,0.5c0.4,0.2,0.7,0.4,1,0.5L242,19.4z"/>
<path class="st4" d="M250.9,29.4c-0.9,0-1.6-0.1-2.3-0.4c-0.7-0.3-1.3-0.7-1.8-1.1c-0.5-0.5-0.8-1-1.1-1.7c-0.2-0.6-0.4-1.3-0.4-2
	c0-0.7,0.1-1.4,0.4-2.1c0.2-0.7,0.6-1.2,1.1-1.7c0.5-0.5,1-0.9,1.7-1.2c0.7-0.3,1.5-0.4,2.4-0.4c0.9,0,1.7,0.1,2.3,0.4
	c0.7,0.3,1.3,0.7,1.7,1.2c0.5,0.5,0.8,1,1.1,1.7c0.2,0.6,0.4,1.3,0.4,2c0,0.2,0,0.4,0,0.5c0,0.2,0,0.3-0.1,0.4h-7.6
	c0.1,0.7,0.3,1.2,0.7,1.6c0.5,0.4,1,0.5,1.6,0.5c0.5,0,0.9-0.1,1.3-0.3c0.4-0.2,0.7-0.5,0.9-0.9l2.7,0.7c-0.4,0.8-1,1.5-1.9,2
	C253.2,29.1,252.1,29.4,250.9,29.4z M253.1,23.1c-0.1-0.6-0.3-1.2-0.7-1.5c-0.4-0.4-0.9-0.6-1.5-0.6c-0.6,0-1.1,0.2-1.5,0.6
	c-0.4,0.4-0.6,0.9-0.7,1.5H253.1z"/>
<path class="st4" d="M264.9,21.7c-0.8,0-1.4,0.1-2.1,0.4s-1.1,0.6-1.3,1.1v6.1h-3.1V19h2.9v2.1c0.4-0.7,0.8-1.2,1.4-1.6
	c0.6-0.4,1.2-0.6,1.8-0.6c0.1,0,0.2,0,0.3,0c0.1,0,0.1,0,0.2,0V21.7z"/>
<path class="st4" d="M269.4,29.2L265.7,19h3.2l2.3,7.7l2.3-7.7h2.9l-3.6,10.2H269.4z"/>
<path class="st4" d="M278.2,29.2V19h3.1v10.2H278.2z M278.2,17.8V15h3.1v2.8H278.2z"/>
<path class="st4" d="M283.3,24.1c0-0.7,0.1-1.4,0.4-2c0.2-0.6,0.6-1.2,1.1-1.7c0.5-0.5,1-0.9,1.7-1.2c0.7-0.3,1.5-0.4,2.4-0.4
	c1.2,0,2.2,0.3,3,0.8c0.8,0.5,1.4,1.1,1.8,1.9l-3.1,0.9c-0.4-0.6-1-1-1.8-1c-0.7,0-1.2,0.2-1.7,0.7c-0.4,0.5-0.6,1.1-0.6,1.9
	c0,0.4,0.1,0.8,0.2,1.1c0.1,0.3,0.3,0.6,0.5,0.8c0.2,0.2,0.5,0.4,0.7,0.5c0.3,0.1,0.6,0.2,0.9,0.2c0.4,0,0.8-0.1,1.1-0.3
	c0.3-0.2,0.6-0.4,0.7-0.7l3.1,0.9c-0.4,0.8-1,1.4-1.8,1.9c-0.8,0.5-1.8,0.8-3,0.8c-0.9,0-1.6-0.1-2.3-0.4c-0.7-0.3-1.3-0.7-1.8-1.2
	c-0.5-0.5-0.8-1.1-1.1-1.7C283.5,25.5,283.3,24.8,283.3,24.1z"/>
<path class="st4" d="M300.5,29.4c-0.9,0-1.6-0.1-2.3-0.4c-0.7-0.3-1.3-0.7-1.8-1.1c-0.5-0.5-0.8-1-1.1-1.7c-0.2-0.6-0.4-1.3-0.4-2
	c0-0.7,0.1-1.4,0.4-2.1c0.2-0.7,0.6-1.2,1.1-1.7c0.5-0.5,1-0.9,1.7-1.2c0.7-0.3,1.5-0.4,2.4-0.4c0.9,0,1.7,0.1,2.3,0.4
	c0.7,0.3,1.3,0.7,1.7,1.2c0.5,0.5,0.8,1,1.1,1.7c0.2,0.6,0.4,1.3,0.4,2c0,0.2,0,0.4,0,0.5c0,0.2,0,0.3-0.1,0.4h-7.6
	c0.1,0.7,0.3,1.2,0.7,1.6c0.5,0.4,1,0.5,1.6,0.5c0.5,0,0.9-0.1,1.3-0.3c0.4-0.2,0.7-0.5,0.9-0.9l2.7,0.7c-0.4,0.8-1,1.5-1.9,2
	C302.7,29.1,301.7,29.4,300.5,29.4z M302.7,23.1c-0.1-0.6-0.3-1.2-0.7-1.5c-0.4-0.4-0.9-0.6-1.5-0.6c-0.6,0-1.1,0.2-1.5,0.6
	c-0.4,0.4-0.6,0.9-0.7,1.5H302.7z"/>
</svg>
