<?xml version="1.0" encoding="utf-8"?>
<!-- Generator: Adobe Illustrator 22.1.0, SVG Export Plug-In . SVG Version: 6.00 Build 0)  -->
<svg version="1.1" id="Слой_1" xmlns="http://www.w3.org/2000/svg" xmlns:xlink="http://www.w3.org/1999/xlink" x="0px" y="0px"
	 viewBox="0 0 229 36" style="enable-background:new 0 0 229 36;" xml:space="preserve">
<style type="text/css">
	.st0{fill:#FFD394;}
	.st1{fill:#FFFFFF;}
	.st2{fill:#9AF4DC;}
	.st3{fill:#FB7070;}
</style>
<path class="st0" d="M18,36V0c9.9,0,18,8.1,18,18C35.9,27.9,27.9,36,18,36z"/>
<path class="st1" d="M0,9l18,9v18L0,27V9z"/>
<path class="st2" d="M18,18V0L0,9L18,18z"/>
<path class="st3" d="M18,0v18l16.8-6.5C32.1,4.8,25.6,0,18,0z"/>
<path class="st1" d="M53.4,11.5h2.2l3.8,10.4h-2.5l-0.8-2.3h-3.3l-0.8,2.3h-2.5L53.4,11.5z M55.7,17.9l-1.2-3.7l-1.3,3.7H55.7z"/>
<path class="st1" d="M60.6,11.3H63v7.9c0,0.6,0.3,0.9,0.8,0.9c0.1,0,0.2,0,0.4,0c0.1,0,0.3-0.1,0.4-0.2l0.3,1.8
	c-0.3,0.1-0.6,0.2-1,0.3C63.4,22,63,22,62.7,22c-0.7,0-1.2-0.2-1.6-0.5c-0.4-0.4-0.5-0.9-0.5-1.5V11.3z"/>
<path class="st1" d="M65.9,11.3h2.4v7.9c0,0.6,0.3,0.9,0.8,0.9c0.1,0,0.2,0,0.4,0c0.1,0,0.3-0.1,0.4-0.2l0.3,1.8
	c-0.3,0.1-0.6,0.2-1,0.3C68.7,22,68.3,22,68,22c-0.7,0-1.2-0.2-1.6-0.5c-0.4-0.4-0.5-0.9-0.5-1.5V11.3z"/>
<path class="st1" d="M71.2,21.9v-7.7h2.4v7.7H71.2z M71.2,13.4v-2.1h2.4v2.1H71.2z"/>
<path class="st1" d="M77.7,22c-0.4,0-0.7-0.1-1.1-0.2c-0.3-0.1-0.6-0.3-0.8-0.5c-0.2-0.2-0.4-0.5-0.6-0.8c-0.1-0.3-0.2-0.6-0.2-1
	c0-0.4,0.1-0.7,0.2-1c0.2-0.3,0.4-0.6,0.7-0.8c0.3-0.2,0.6-0.4,1-0.5c0.4-0.1,0.8-0.2,1.3-0.2c0.3,0,0.6,0,0.9,0.1
	c0.3,0,0.6,0.1,0.8,0.2V17c0-0.9-0.5-1.3-1.5-1.3c-0.4,0-0.8,0.1-1.2,0.2c-0.4,0.1-0.8,0.3-1.2,0.6l-0.7-1.5c0.5-0.3,1-0.6,1.6-0.7
	c0.5-0.2,1.1-0.2,1.8-0.2c1.2,0,2.1,0.3,2.7,0.8c0.6,0.5,1,1.3,1,2.4v2c0,0.2,0,0.4,0.1,0.5c0.1,0.1,0.2,0.1,0.4,0.2v2
	c-0.2,0-0.4,0.1-0.6,0.1c-0.2,0-0.3,0-0.5,0c-0.4,0-0.8-0.1-1-0.2c-0.2-0.2-0.4-0.4-0.4-0.7l0-0.4c-0.3,0.4-0.8,0.8-1.2,1
	C78.8,21.9,78.3,22,77.7,22z M78.4,20.4c0.3,0,0.5,0,0.7-0.1c0.2-0.1,0.4-0.2,0.6-0.4c0.2-0.2,0.3-0.4,0.3-0.6v-0.7
	c-0.2-0.1-0.4-0.1-0.7-0.2c-0.2,0-0.5-0.1-0.7-0.1c-0.4,0-0.8,0.1-1.1,0.3c-0.3,0.2-0.4,0.4-0.4,0.8c0,0.3,0.1,0.5,0.3,0.7
	C77.8,20.3,78.1,20.4,78.4,20.4z"/>
<path class="st1" d="M92,21.9h-2.4v-4.3c0-0.5-0.1-0.9-0.3-1.1c-0.2-0.2-0.4-0.4-0.8-0.4c-0.2,0-0.3,0-0.5,0.1
	c-0.2,0.1-0.3,0.2-0.5,0.3c-0.2,0.1-0.3,0.3-0.4,0.4c-0.1,0.2-0.2,0.3-0.3,0.5v4.4h-2.4v-7.7h2.1v1.3c0.3-0.5,0.7-0.8,1.2-1.1
	c0.5-0.3,1.1-0.4,1.8-0.4c0.5,0,0.9,0.1,1.2,0.3c0.3,0.2,0.5,0.4,0.7,0.7c0.2,0.3,0.3,0.6,0.3,0.9c0.1,0.3,0.1,0.7,0.1,1V21.9z"/>
<path class="st1" d="M93.5,18.1c0-0.5,0.1-1,0.3-1.5c0.2-0.5,0.5-0.9,0.8-1.3c0.4-0.4,0.8-0.7,1.3-0.9c0.5-0.2,1.1-0.3,1.8-0.3
	c0.9,0,1.6,0.2,2.3,0.6c0.6,0.4,1.1,0.9,1.4,1.5l-2.3,0.7c-0.3-0.5-0.8-0.7-1.3-0.7c-0.5,0-0.9,0.2-1.2,0.5
	c-0.3,0.4-0.5,0.8-0.5,1.4c0,0.3,0,0.6,0.1,0.8c0.1,0.2,0.2,0.5,0.4,0.6c0.2,0.2,0.3,0.3,0.5,0.4c0.2,0.1,0.4,0.1,0.7,0.1
	c0.3,0,0.6-0.1,0.8-0.2c0.2-0.1,0.4-0.3,0.5-0.6l2.3,0.7c-0.3,0.6-0.7,1.1-1.4,1.5c-0.6,0.4-1.4,0.6-2.3,0.6c-0.6,0-1.2-0.1-1.8-0.3
	c-0.5-0.2-0.9-0.5-1.3-0.9c-0.4-0.4-0.6-0.8-0.8-1.3C93.6,19.1,93.5,18.6,93.5,18.1z"/>
<path class="st1" d="M106.3,22c-0.6,0-1.2-0.1-1.8-0.3c-0.5-0.2-0.9-0.5-1.3-0.9c-0.4-0.4-0.6-0.8-0.8-1.2c-0.2-0.5-0.3-1-0.3-1.5
	c0-0.6,0.1-1.1,0.3-1.6c0.2-0.5,0.5-0.9,0.8-1.3c0.4-0.4,0.8-0.7,1.3-0.9c0.5-0.2,1.1-0.3,1.8-0.3c0.7,0,1.2,0.1,1.8,0.3
	c0.5,0.2,0.9,0.5,1.3,0.9c0.4,0.4,0.6,0.8,0.8,1.3c0.2,0.5,0.3,1,0.3,1.5c0,0.1,0,0.3,0,0.4c0,0.1,0,0.2,0,0.3h-5.7
	c0,0.5,0.2,0.9,0.6,1.2c0.3,0.3,0.7,0.4,1.2,0.4c0.3,0,0.7-0.1,1-0.2c0.3-0.2,0.5-0.4,0.6-0.7l2,0.6c-0.3,0.6-0.8,1.1-1.4,1.5
	C108,21.9,107.2,22,106.3,22z M107.9,17.4c0-0.5-0.2-0.9-0.5-1.2c-0.3-0.3-0.7-0.4-1.1-0.4c-0.5,0-0.8,0.1-1.1,0.4
	c-0.3,0.3-0.5,0.7-0.5,1.1H107.9z"/>
<path class="st1" d="M115.3,16.6c0-0.6,0.1-1.2,0.4-1.9c0.2-0.6,0.6-1.2,1-1.7c0.5-0.5,1-0.9,1.6-1.2c0.6-0.3,1.4-0.5,2.2-0.5
	c1,0,1.8,0.2,2.5,0.6c0.7,0.4,1.3,1,1.6,1.6l-1.9,1.3c-0.1-0.3-0.3-0.5-0.5-0.7c-0.2-0.2-0.4-0.3-0.6-0.4c-0.2-0.1-0.4-0.2-0.7-0.2
	c-0.2,0-0.4-0.1-0.7-0.1c-0.5,0-0.9,0.1-1.2,0.3c-0.3,0.2-0.6,0.4-0.9,0.7c-0.2,0.3-0.4,0.6-0.5,1c-0.1,0.4-0.2,0.7-0.2,1.1
	c0,0.4,0.1,0.8,0.2,1.2c0.1,0.4,0.3,0.7,0.5,1c0.2,0.3,0.5,0.5,0.9,0.7c0.3,0.2,0.7,0.2,1.1,0.2c0.2,0,0.4,0,0.7-0.1
	c0.2-0.1,0.5-0.1,0.7-0.2c0.2-0.1,0.4-0.3,0.6-0.4c0.2-0.2,0.3-0.4,0.4-0.7l2,1.2c-0.2,0.4-0.4,0.7-0.7,1c-0.3,0.3-0.7,0.6-1.1,0.8
	c-0.4,0.2-0.8,0.4-1.3,0.5c-0.5,0.1-0.9,0.2-1.3,0.2c-0.8,0-1.5-0.2-2.1-0.5c-0.6-0.3-1.2-0.7-1.6-1.2c-0.5-0.5-0.8-1.1-1.1-1.7
	C115.4,17.9,115.3,17.3,115.3,16.6z"/>
<path class="st1" d="M129.9,22c-0.7,0-1.2-0.1-1.8-0.3c-0.5-0.2-0.9-0.5-1.3-0.9c-0.4-0.4-0.6-0.8-0.8-1.3c-0.2-0.5-0.3-1-0.3-1.5
	s0.1-1,0.3-1.5c0.2-0.5,0.5-0.9,0.8-1.3c0.4-0.4,0.8-0.7,1.3-0.9c0.5-0.2,1.1-0.3,1.8-0.3c0.7,0,1.2,0.1,1.8,0.3
	c0.5,0.2,0.9,0.5,1.3,0.9c0.4,0.4,0.6,0.8,0.8,1.3c0.2,0.5,0.3,1,0.3,1.5s-0.1,1-0.3,1.5c-0.2,0.5-0.4,0.9-0.8,1.3
	c-0.4,0.4-0.8,0.6-1.3,0.9C131.1,21.9,130.5,22,129.9,22z M128.1,18.1c0,0.6,0.2,1.1,0.5,1.5c0.3,0.4,0.7,0.5,1.2,0.5
	c0.2,0,0.5,0,0.7-0.1c0.2-0.1,0.4-0.2,0.5-0.4c0.2-0.2,0.3-0.4,0.4-0.6c0.1-0.3,0.1-0.5,0.1-0.8c0-0.6-0.2-1.1-0.5-1.4
	c-0.3-0.4-0.7-0.6-1.2-0.6c-0.2,0-0.5,0-0.7,0.1c-0.2,0.1-0.4,0.2-0.5,0.4c-0.1,0.2-0.3,0.4-0.4,0.6
	C128.2,17.5,128.1,17.8,128.1,18.1z"/>
<path class="st1" d="M137.9,22c-0.8,0-1.4-0.2-1.8-0.7c-0.4-0.5-0.6-1.2-0.6-2.2v-4.9h2.4v4.4c0,0.5,0.1,0.8,0.3,1.1
	c0.2,0.2,0.5,0.4,0.8,0.4c0.3,0,0.6-0.1,0.9-0.2c0.3-0.2,0.6-0.5,0.8-0.9v-4.7h2.4v5c0,0.2,0,0.4,0.1,0.5c0.1,0.1,0.2,0.1,0.4,0.2v2
	c-0.2,0-0.4,0.1-0.6,0.1c-0.2,0-0.3,0-0.4,0c-0.8,0-1.3-0.3-1.4-1l0-0.5c-0.4,0.5-0.8,0.9-1.3,1.1C139.1,21.9,138.5,22,137.9,22z"/>
<path class="st1" d="M150,16.2c-0.6,0-1.1,0.1-1.5,0.3c-0.5,0.2-0.8,0.4-1,0.8v4.6h-2.4v-7.7h2.2v1.5c0.3-0.5,0.6-0.9,1-1.2
	c0.4-0.3,0.9-0.4,1.3-0.5c0.1,0,0.2,0,0.2,0c0,0,0.1,0,0.1,0V16.2z"/>
<path class="st1" d="M151.4,21.9v-7.7h2.4v7.7H151.4z M151.4,13.4v-2.1h2.4v2.1H151.4z"/>
<path class="st1" d="M159.4,22c-0.6,0-1.2-0.1-1.8-0.3c-0.5-0.2-0.9-0.5-1.3-0.9c-0.4-0.4-0.6-0.8-0.8-1.2c-0.2-0.5-0.3-1-0.3-1.5
	c0-0.6,0.1-1.1,0.3-1.6c0.2-0.5,0.5-0.9,0.8-1.3c0.4-0.4,0.8-0.7,1.3-0.9c0.5-0.2,1.1-0.3,1.8-0.3c0.7,0,1.2,0.1,1.8,0.3
	c0.5,0.2,0.9,0.5,1.3,0.9c0.4,0.4,0.6,0.8,0.8,1.3c0.2,0.5,0.3,1,0.3,1.5c0,0.1,0,0.3,0,0.4c0,0.1,0,0.2,0,0.3h-5.7
	c0,0.5,0.2,0.9,0.6,1.2c0.3,0.3,0.7,0.4,1.2,0.4c0.3,0,0.7-0.1,1-0.2c0.3-0.2,0.5-0.4,0.6-0.7l2,0.6c-0.3,0.6-0.8,1.1-1.4,1.5
	C161.1,21.9,160.3,22,159.4,22z M161,17.4c0-0.5-0.2-0.9-0.5-1.2c-0.3-0.3-0.7-0.4-1.1-0.4c-0.5,0-0.8,0.1-1.1,0.4
	c-0.3,0.3-0.5,0.7-0.5,1.1H161z"/>
<path class="st1" d="M169.9,16.2c-0.6,0-1.1,0.1-1.5,0.3c-0.5,0.2-0.8,0.4-1,0.8v4.6H165v-7.7h2.2v1.5c0.3-0.5,0.6-0.9,1-1.2
	c0.4-0.3,0.9-0.4,1.3-0.5c0.1,0,0.2,0,0.2,0c0,0,0.1,0,0.1,0V16.2z"/>
<path class="st1" d="M181.1,14.6c0,0-0.1-0.1-0.3-0.2c-0.2-0.1-0.4-0.2-0.7-0.3c-0.3-0.1-0.6-0.2-0.9-0.3c-0.3-0.1-0.6-0.1-0.9-0.1
	c-0.9,0-1.3,0.3-1.3,0.9c0,0.2,0,0.3,0.1,0.4c0.1,0.1,0.2,0.2,0.4,0.3c0.2,0.1,0.4,0.2,0.7,0.2c0.3,0.1,0.6,0.2,1,0.3
	c0.5,0.1,1,0.3,1.4,0.5c0.4,0.2,0.7,0.4,1,0.6c0.3,0.2,0.5,0.5,0.6,0.9c0.2,0.3,0.2,0.7,0.2,1.2c0,0.6-0.1,1.1-0.3,1.5
	c-0.2,0.4-0.5,0.7-0.9,1c-0.4,0.2-0.8,0.4-1.3,0.5c-0.5,0.1-1,0.2-1.5,0.2c-0.4,0-0.8,0-1.2-0.1c-0.4-0.1-0.8-0.1-1.2-0.2
	c-0.4-0.1-0.8-0.3-1.1-0.4c-0.4-0.2-0.7-0.3-1-0.5l1.1-2.1c0,0,0.2,0.1,0.4,0.3c0.2,0.1,0.5,0.3,0.8,0.4c0.3,0.1,0.7,0.3,1.1,0.4
	c0.4,0.1,0.8,0.2,1.2,0.2c0.9,0,1.3-0.3,1.3-0.8c0-0.2-0.1-0.4-0.2-0.5c-0.1-0.1-0.3-0.2-0.5-0.3c-0.2-0.1-0.5-0.2-0.8-0.3
	c-0.3-0.1-0.6-0.2-1-0.3c-0.5-0.1-0.9-0.3-1.3-0.5c-0.4-0.2-0.6-0.4-0.9-0.6c-0.2-0.2-0.4-0.5-0.5-0.8c-0.1-0.3-0.2-0.6-0.2-1
	c0-0.5,0.1-1,0.3-1.4c0.2-0.4,0.5-0.8,0.8-1.1c0.4-0.3,0.8-0.5,1.2-0.7c0.5-0.1,1-0.2,1.5-0.2c0.4,0,0.7,0,1.1,0.1s0.7,0.2,1,0.3
	c0.3,0.1,0.6,0.2,0.9,0.4c0.3,0.1,0.5,0.3,0.8,0.4L181.1,14.6z"/>
<path class="st1" d="M187.8,22c-0.6,0-1.2-0.1-1.8-0.3c-0.5-0.2-0.9-0.5-1.3-0.9c-0.4-0.4-0.6-0.8-0.8-1.2c-0.2-0.5-0.3-1-0.3-1.5
	c0-0.6,0.1-1.1,0.3-1.6c0.2-0.5,0.5-0.9,0.8-1.3c0.4-0.4,0.8-0.7,1.3-0.9c0.5-0.2,1.1-0.3,1.8-0.3c0.7,0,1.2,0.1,1.8,0.3
	c0.5,0.2,0.9,0.5,1.3,0.9c0.4,0.4,0.6,0.8,0.8,1.3c0.2,0.5,0.3,1,0.3,1.5c0,0.1,0,0.3,0,0.4c0,0.1,0,0.2,0,0.3h-5.7
	c0,0.5,0.2,0.9,0.6,1.2c0.3,0.3,0.7,0.4,1.2,0.4c0.3,0,0.7-0.1,1-0.2c0.3-0.2,0.5-0.4,0.6-0.7l2,0.6c-0.3,0.6-0.8,1.1-1.4,1.5
	C189.5,21.9,188.7,22,187.8,22z M189.4,17.4c0-0.5-0.2-0.9-0.5-1.2c-0.3-0.3-0.7-0.4-1.1-0.4c-0.5,0-0.8,0.1-1.1,0.4
	c-0.3,0.3-0.5,0.7-0.5,1.1H189.4z"/>
<path class="st1" d="M198.3,16.2c-0.6,0-1.1,0.1-1.5,0.3c-0.5,0.2-0.8,0.4-1,0.8v4.6h-2.4v-7.7h2.2v1.5c0.3-0.5,0.6-0.9,1-1.2
	c0.4-0.3,0.9-0.4,1.3-0.5c0.1,0,0.2,0,0.2,0c0,0,0.1,0,0.1,0V16.2z"/>
<path class="st1" d="M201.6,21.9l-2.7-7.7h2.4L203,20l1.7-5.8h2.2l-2.7,7.7H201.6z"/>
<path class="st1" d="M208.2,21.9v-7.7h2.4v7.7H208.2z M208.2,13.4v-2.1h2.4v2.1H208.2z"/>
<path class="st1" d="M212,18.1c0-0.5,0.1-1,0.3-1.5c0.2-0.5,0.5-0.9,0.8-1.3c0.4-0.4,0.8-0.7,1.3-0.9c0.5-0.2,1.1-0.3,1.8-0.3
	c0.9,0,1.6,0.2,2.3,0.6c0.6,0.4,1.1,0.9,1.4,1.5l-2.3,0.7c-0.3-0.5-0.8-0.7-1.3-0.7c-0.5,0-0.9,0.2-1.2,0.5
	c-0.3,0.4-0.5,0.8-0.5,1.4c0,0.3,0,0.6,0.1,0.8c0.1,0.2,0.2,0.5,0.4,0.6c0.2,0.2,0.3,0.3,0.5,0.4c0.2,0.1,0.4,0.1,0.7,0.1
	c0.3,0,0.6-0.1,0.8-0.2c0.2-0.1,0.4-0.3,0.5-0.6l2.3,0.7c-0.3,0.6-0.7,1.1-1.4,1.5c-0.6,0.4-1.4,0.6-2.3,0.6c-0.6,0-1.2-0.1-1.8-0.3
	c-0.5-0.2-0.9-0.5-1.3-0.9c-0.4-0.4-0.6-0.8-0.8-1.3C212.1,19.1,212,18.6,212,18.1z"/>
<path class="st1" d="M224.9,22c-0.6,0-1.2-0.1-1.8-0.3c-0.5-0.2-0.9-0.5-1.3-0.9c-0.4-0.4-0.6-0.8-0.8-1.2c-0.2-0.5-0.3-1-0.3-1.5
	c0-0.6,0.1-1.1,0.3-1.6c0.2-0.5,0.5-0.9,0.8-1.3c0.4-0.4,0.8-0.7,1.3-0.9c0.5-0.2,1.1-0.3,1.8-0.3c0.7,0,1.2,0.1,1.8,0.3
	c0.5,0.2,0.9,0.5,1.3,0.9c0.4,0.4,0.6,0.8,0.8,1.3c0.2,0.5,0.3,1,0.3,1.5c0,0.1,0,0.3,0,0.4c0,0.1,0,0.2,0,0.3h-5.7
	c0,0.5,0.2,0.9,0.6,1.2c0.3,0.3,0.7,0.4,1.2,0.4c0.3,0,0.7-0.1,1-0.2c0.3-0.2,0.5-0.4,0.6-0.7l2,0.6c-0.3,0.6-0.8,1.1-1.4,1.5
	C226.5,21.9,225.8,22,224.9,22z M226.5,17.4c-0.1-0.5-0.2-0.9-0.5-1.2c-0.3-0.3-0.7-0.4-1.1-0.4c-0.5,0-0.8,0.1-1.1,0.4
	c-0.3,0.3-0.5,0.7-0.5,1.1H226.5z"/>
</svg>
