<?xml version="1.0" encoding="utf-8"?>
<!-- Generator: Adobe Illustrator 22.1.0, SVG Export Plug-In . SVG Version: 6.00 Build 0)  -->
<svg version="1.1" id="Слой_1" xmlns="http://www.w3.org/2000/svg" xmlns:xlink="http://www.w3.org/1999/xlink" x="0px" y="0px"
	 viewBox="0 0 30.2 30" style="enable-background:new 0 0 30.2 30;" xml:space="preserve">
<style type="text/css">
	.st0{clip-path:url(#SVGID_2_);}
	.st1{fill:#171A21;}
</style>
<g>
	<defs>
		<rect id="SVGID_1_" width="30.2" height="30"/>
	</defs>
	<clipPath id="SVGID_2_">
		<use xlink:href="#SVGID_1_"  style="overflow:visible;"/>
	</clipPath>
	<g class="st0">
		<path class="st1" d="M25.8,4.4c-5.9-5.9-15.4-5.9-21.3,0c-5.9,5.9-5.9,15.3,0,21.2c5.9,5.9,15.4,5.9,21.3,0
			C31.7,19.7,31.7,10.3,25.8,4.4z M15.1,27.5c-7,0-12.6-5.6-12.6-12.5c0-6.9,5.7-12.5,12.6-12.5S27.7,8.1,27.7,15
			C27.7,21.9,22.1,27.5,15.1,27.5z"/>
		<path class="st1" d="M18.1,14.6c1.6-2.4-0.1-5.6-3-5.6c-2.9,0-4.6,3.2-3,5.6c-1.8,1-3,3-3,5.2c0,0.7,0.5,1.2,1.2,1.2
			c0.7,0,1.2-0.5,1.2-1.2c0-2,1.6-3.6,3.6-3.6c2,0,3.6,1.6,3.6,3.6c0,0.7,0.5,1.2,1.2,1.2c0.7,0,1.2-0.5,1.2-1.2
			C21.1,17.6,19.9,15.6,18.1,14.6z M15.1,11.4c0.7,0,1.2,0.5,1.2,1.2c0,0.7-0.6,1.2-1.2,1.2c-0.7,0-1.2-0.5-1.2-1.2
			C13.9,11.9,14.4,11.4,15.1,11.4z"/>
	</g>
</g>
</svg>
