<svg width="144" height="144" viewBox="0 0 144 144" fill="none" xmlns="http://www.w3.org/2000/svg">
<g clip-path="url(#clip0)">
<path d="M138.5 33.8L81.9 1.59998C79.6 0.299985 77.7 1.29998 77.7 3.99998L77.5 84C77.5 86.6 79.3 89.9 81.6 91.2L138.2 123.4C140.5 124.7 142.4 123.7 142.4 121L142.6 40.9C142.6 38.3 140.8 35.1 138.5 33.8Z" fill="#EAECFD" stroke="#171A21" stroke-width="2" stroke-miterlimit="10" stroke-linecap="round" stroke-linejoin="round"/>
<path d="M124.201 42.3L67.6012 10.1C65.3012 8.79999 63.4012 9.79998 63.4012 12.5L63.2012 92.6C63.2012 95.2 65.0012 98.5 67.3012 99.8L123.901 132C126.201 133.3 128.101 132.3 128.101 129.6L128.301 49.5C128.301 46.8 126.501 43.6 124.201 42.3Z" fill="#EAECFD" stroke="#171A21" stroke-width="2" stroke-miterlimit="10" stroke-linecap="round" stroke-linejoin="round"/>
<path d="M109.9 50.8L53.3004 18.6C51.0004 17.3 49.1004 18.3 49.1004 21L48.9004 101C48.9004 103.6 50.7004 106.9 53.0004 108.2L109.6 140.4C111.9 141.7 113.8 140.7 113.8 138L114 58C114 55.4 112.2 52.1 109.9 50.8Z" fill="white" stroke="#171A21" stroke-width="2" stroke-miterlimit="10" stroke-linecap="round" stroke-linejoin="round"/>
<path d="M2.80117 113.8C2.60117 113.8 2.40117 113.9 2.20117 114L12.6012 108.4H12.7012C12.8012 108.3 12.9012 108.3 13.1012 108.3H13.2012H13.3012C13.5012 108.3 13.7012 108.3 13.9012 108.3L18.5012 108.9C18.7012 108.9 18.9012 108.9 19.1012 108.9H19.2012C19.4012 108.9 19.6012 108.8 19.8012 108.7L9.40117 114.3H9.30117C9.20117 114.4 9.00117 114.4 8.90117 114.4H8.80117H8.70117C8.50117 114.4 8.30117 114.4 8.10117 114.4L3.50117 113.8C3.30117 113.8 3.10117 113.8 2.90117 113.8C2.80117 113.8 2.80117 113.8 2.80117 113.8Z" fill="#98A2F4"/>
<path d="M35.4012 122.7C35.6012 122.5 35.7012 122.3 35.8012 122.1C35.8012 122 35.8012 121.9 35.9012 121.9C35.9012 121.7 36.0012 121.6 36.0012 121.4C36.0012 121.3 36.0012 121.2 36.0012 121.1C36.0012 121 36.0012 120.8 36.0012 120.7C36.0012 120.6 36.0012 120.5 35.9012 120.4C35.9012 120.3 35.8012 120.1 35.8012 120C35.8012 120 35.8012 119.9 35.7012 119.9C35.6012 119.7 35.5012 119.5 35.4012 119.3C35.3012 119.1 35.1012 118.9 34.9012 118.8C34.9012 118.8 34.9012 118.8 34.8012 118.8C34.6012 118.6 34.4012 118.5 34.2012 118.4C34.0012 118.3 33.7012 118.2 33.5012 118.2L28.9012 117.6C28.7012 117.6 28.5012 117.5 28.2012 117.4H28.1012L28.0012 117.3C27.9012 117.3 27.9012 117.2 27.8012 117.2C27.8012 117.2 27.7012 117.2 27.7012 117.1C27.6012 117.1 27.6012 117 27.5012 116.9C27.5012 116.9 27.4012 116.9 27.4012 116.8C27.3012 116.7 27.2012 116.6 27.1012 116.5C27.1012 116.5 27.1012 116.5 27.1012 116.4C27.1012 116.4 27.1012 116.3 27.0012 116.3L26.9012 116.2C26.9012 116.1 26.8012 116.1 26.8012 116C26.8012 116 26.8012 115.9 26.7012 115.9C26.7012 115.9 26.7012 115.9 26.7012 115.8C26.6012 115.7 26.6012 115.6 26.5012 115.5V115.4C26.5012 115.3 26.4012 115.2 26.4012 115.1C26.4012 115 26.4012 115 26.4012 114.9C26.4012 114.7 26.3012 114.5 26.3012 114.3L26.2012 82.4C26.2012 82.2 26.2012 82 26.1012 81.8C26.1012 81.7 26.1012 81.7 26.1012 81.6C26.1012 81.5 26.0012 81.4 26.0012 81.2C25.9012 81.1 25.9012 80.9 25.8012 80.8C25.8012 80.8 25.8012 80.7 25.7012 80.7C25.6012 80.6 25.6012 80.5 25.5012 80.4C25.5012 80.4 25.5012 80.3 25.4012 80.3C25.3012 80.2 25.2012 80.1 25.1012 80C25.1012 80 25.1012 80 25.0012 79.9C24.9012 79.8 24.8012 79.7 24.7012 79.7C24.6012 79.7 24.6012 79.6 24.5012 79.6C24.4012 79.6 24.4012 79.5 24.3012 79.5C24.1012 79.4 23.9012 79.3 23.6012 79.3L13.0012 77.8C12.8012 77.8 12.6012 77.8 12.4012 77.8H12.3012C12.1012 77.8 11.9012 77.9 11.7012 78L22.1012 72.4H22.2012C22.3012 72.3 22.5012 72.3 22.6012 72.3H22.7012H22.8012C23.0012 72.3 23.2012 72.3 23.4012 72.3L34.0012 73.8C34.2012 73.8 34.4012 73.9 34.7012 74H34.8012L34.9012 74.1C35.0012 74.1 35.0012 74.2 35.1012 74.2C35.1012 74.2 35.2012 74.2 35.2012 74.3C35.3012 74.4 35.3012 74.4 35.4012 74.5C35.4012 74.5 35.4012 74.5 35.5012 74.6C35.6012 74.7 35.7012 74.8 35.8012 74.9C35.8012 74.9 35.8012 74.9 35.8012 75C35.8012 75 35.8012 75.1 35.9012 75.1L36.0012 75.2C36.0012 75.3 36.1012 75.3 36.1012 75.4C36.1012 75.4 36.1012 75.5 36.2012 75.5C36.3012 75.6 36.3012 75.8 36.4012 75.9C36.4012 76 36.5012 76.1 36.5012 76.3C36.5012 76.4 36.5012 76.4 36.5012 76.5C36.5012 76.7 36.6012 76.9 36.6012 77.1L36.7012 109C36.7012 109.2 36.7012 109.4 36.8012 109.6C36.8012 109.7 36.8012 109.7 36.9012 109.8C36.9012 109.9 37.0012 110 37.0012 110.1V110.2C37.1012 110.3 37.1012 110.5 37.2012 110.6C37.2012 110.6 37.2012 110.7 37.3012 110.7C37.4012 110.8 37.4012 110.9 37.5012 111C37.5012 111 37.5012 111.1 37.6012 111.1C37.7012 111.2 37.8012 111.3 37.9012 111.4C37.9012 111.4 38.0012 111.4 38.0012 111.5C38.1012 111.6 38.2012 111.6 38.3012 111.7C38.4012 111.7 38.4012 111.8 38.5012 111.8C38.6012 111.8 38.6012 111.9 38.7012 111.9C38.9012 112 39.1012 112.1 39.4012 112.1L44.0012 112.7C44.3012 112.7 44.5012 112.8 44.7012 112.9C44.8012 113 45.0012 113 45.1012 113.1C45.2012 113.1 45.2012 113.2 45.3012 113.3C45.3012 113.3 45.3012 113.3 45.4012 113.3C45.5012 113.4 45.6012 113.5 45.7012 113.6C45.8012 113.7 45.8012 113.7 45.9012 113.8C46.0012 113.9 46.0012 114 46.1012 114.1C46.1012 114.2 46.2012 114.2 46.2012 114.3C46.2012 114.3 46.2012 114.4 46.3012 114.4V114.5C46.3012 114.6 46.4012 114.7 46.4012 114.8C46.4012 114.9 46.5012 115 46.5012 115.1C46.5012 115.2 46.5012 115.4 46.5012 115.5C46.5012 115.6 46.5012 115.7 46.5012 115.8C46.5012 116 46.4012 116.1 46.4012 116.3C46.4012 116.4 46.4012 116.5 46.3012 116.5C46.2012 116.7 46.1012 116.9 45.9012 117.1L31.0012 135.4C30.8012 135.6 30.6012 135.8 30.4012 135.9L20.0012 141.5C20.2012 141.4 20.4012 141.2 20.6012 141L35.4012 122.7Z" fill="#98A2F4"/>
<path d="M13.0999 77.7C11.6999 77.5 10.5999 78.6 10.5999 80.1L10.6999 112C10.6999 113.5 9.59991 114.6 8.19991 114.4L3.59991 113.8C1.49991 113.5 0.299907 116 1.59991 117.9L16.5999 140.4C17.0999 141.2 17.7999 141.6 18.5999 141.7C19.2999 141.8 20.0999 141.6 20.5999 140.9L35.4999 122.6C36.7999 121 35.5999 118.2 33.4999 117.9L28.8999 117.3C27.4999 117.1 26.3999 115.7 26.3999 114.2L26.2999 82.3C26.2999 80.8 25.1999 79.4 23.7999 79.2L13.0999 77.7Z" fill="white"/>
<path d="M13.0996 77.7C11.6996 77.5 10.5996 78.6 10.5996 80.1L10.6996 112" stroke="#171A21" stroke-width="2" stroke-miterlimit="10" stroke-linecap="round" stroke-linejoin="round"/>
<path d="M3.5003 113.8C1.4003 113.5 0.200298 116 1.5003 117.9L16.5003 140.4C17.0003 141.2 17.7003 141.6 18.5003 141.7C19.2003 141.8 20.0003 141.6 20.5003 140.9L23.4003 137.3" stroke="#171A21" stroke-width="2" stroke-miterlimit="10" stroke-linecap="round" stroke-linejoin="round"/>
<path d="M106.202 100.5C106.202 100.6 106.202 100.6 106.202 100.7V100.8C106.202 100.9 106.202 100.9 106.202 101C106.202 101 106.202 101.1 106.102 101.1C106.102 101.2 106.102 101.2 106.002 101.3C106.002 101.3 106.002 101.4 105.902 101.4C105.902 101.5 105.802 101.5 105.802 101.6C105.802 101.7 105.702 101.7 105.702 101.8C105.602 101.9 105.602 102 105.502 102C105.402 102 105.402 102.1 105.302 102.1C105.302 102.1 105.202 102.2 105.102 102.2C105.002 102.2 105.002 102.3 104.902 102.3C104.802 102.3 104.802 102.4 104.702 102.4L95.3016 107.8C95.1016 107.9 95.0016 108 94.8016 108.1C94.7016 108.1 94.7016 108.1 94.6016 108.2C94.5016 108.3 94.3016 108.3 94.2016 108.4C94.1016 108.4 94.1016 108.4 94.0016 108.5C93.9016 108.5 93.8016 108.6 93.7016 108.6C93.6016 108.6 93.6016 108.6 93.5016 108.7C93.4016 108.7 93.3016 108.7 93.2016 108.8C93.1016 108.8 93.1016 108.8 93.0016 108.8C92.8016 108.8 92.6016 108.9 92.4016 108.9C92.3016 108.9 92.3016 108.9 92.2016 108.9C92.1016 108.9 92.0016 108.9 91.8016 108.9C91.7016 108.9 91.6016 108.9 91.6016 108.9C91.5016 108.9 91.4016 108.9 91.3016 108.9C91.2016 108.9 91.1016 108.9 91.1016 108.9C91.0016 108.9 90.9016 108.9 90.8016 108.9C90.7016 108.9 90.6016 108.9 90.6016 108.9C90.5016 108.9 90.4016 108.9 90.3016 108.9C90.2016 108.9 90.1016 108.9 90.1016 108.9C90.0016 108.9 89.9016 108.9 89.8016 108.9C89.7016 108.9 89.7016 108.9 89.6016 108.9C89.5016 108.9 89.4016 108.8 89.3016 108.8C89.2016 108.8 89.2016 108.8 89.1016 108.8C88.9016 108.7 88.7016 108.7 88.5016 108.6C88.4016 108.6 88.3016 108.5 88.2016 108.5C88.2016 108.5 88.1016 108.5 88.1016 108.4C88.0016 108.3 87.8016 108.3 87.7016 108.2L56.2016 89.9001C55.4016 89.4001 54.9016 88.9001 54.7016 88.3001C54.6016 88.1001 54.6016 87.9001 54.6016 87.7001V96.4001C54.6016 97.2001 55.1016 98.0001 56.2016 98.6001L87.6016 116.7C87.7016 116.8 87.9016 116.8 88.0016 116.9C88.0016 116.9 88.1016 116.9 88.1016 117C88.2016 117 88.3016 117.1 88.3016 117.1C88.5016 117.2 88.7016 117.2 88.9016 117.3H89.0016C89.1016 117.3 89.2016 117.4 89.3016 117.4H89.4016H89.5016C89.6016 117.4 89.7016 117.4 89.8016 117.4H89.9016H90.0016C90.1016 117.4 90.2016 117.4 90.3016 117.4H90.4016H90.5016C90.6016 117.4 90.7016 117.4 90.8016 117.4H90.9016H91.0016C91.1016 117.4 91.2016 117.4 91.3016 117.4H91.4016H91.5016C91.6016 117.4 91.7016 117.4 91.9016 117.4H92.0016C92.2016 117.4 92.4016 117.4 92.6016 117.3C92.7016 117.3 92.7016 117.3 92.8016 117.3C92.9016 117.3 93.0016 117.3 93.1016 117.2C93.2016 117.2 93.2016 117.2 93.3016 117.1C93.4016 117.1 93.5016 117 93.6016 117C93.6016 117 93.6016 117 93.7016 117H93.8016C93.9016 117 94.1016 116.9 94.2016 116.8C94.3016 116.8 94.3016 116.8 94.4016 116.7C94.6016 116.6 94.7016 116.5 94.9016 116.4L104.302 111C104.302 111 104.302 111 104.402 111L104.502 110.9C104.602 110.9 104.602 110.8 104.702 110.8C104.802 110.8 104.802 110.7 104.902 110.7C105.002 110.7 105.002 110.6 105.102 110.6C105.202 110.5 105.202 110.5 105.302 110.4L105.402 110.3C105.402 110.3 105.402 110.3 105.402 110.2C105.402 110.1 105.502 110.1 105.502 110C105.502 110 105.502 109.9 105.602 109.9C105.602 109.8 105.702 109.8 105.702 109.7V109.6C105.702 109.5 105.702 109.5 105.702 109.4V109.3C105.702 109.2 105.702 109.2 105.702 109.1V109V100.3C106.202 100.4 106.202 100.5 106.202 100.5Z" fill="#98A2F4"/>
<path d="M104.6 98.1001C106.7 99.3001 106.7 101.3 104.6 102.5L95.2 107.9C93.1 109.1 89.7 109.1 87.6 107.9L56.2 89.9001C54.1 88.7001 54.1 86.7001 56.2 85.5001L65.6 80.1001C67.7 78.9001 71.1 78.9001 73.2 80.1001L104.6 98.1001Z" fill="#EAECFD"/>
<path d="M56.2 89.9001C54.1 88.7001 54.1 86.7001 56.2 85.5001L65.6 80.1001C67.7 78.9001 71.1 78.9001 73.2 80.1001L104.6 98.2001C106.7 99.4001 106.7 101.4 104.6 102.6" stroke="#171A21" stroke-width="2" stroke-miterlimit="10" stroke-linecap="round" stroke-linejoin="round"/>
<path d="M77.4004 83.4L76.1004 84.2C75.6004 84.5 75.4004 84.8 75.4004 85.2V81C75.4004 80.6 75.6004 80.3 76.1004 80L77.4004 79.2C77.9004 78.9 78.1004 78.6 78.1004 78.2V82.4C78.1004 82.8 77.9004 83.1 77.4004 83.4Z" fill="#2F58FF"/>
<path d="M63.1004 85C63.1004 85 63.0004 85 63.1004 85C63.1004 84.9 63.1004 84.9 63.1004 84.9C63.1004 84.9 63.1004 84.9 63.1004 84.8C63.1004 84.8 63.1004 84.8 63.1004 84.7C63.1004 84.7 63.1004 84.7 63.1004 84.6C63.1004 84.6 63.1004 84.5 63.0004 84.5L62.9004 84.4C62.9004 84.4 62.9004 84.4 62.8004 84.3C62.8004 84.3 62.8004 84.3 62.7004 84.2C62.7004 84.2 62.6004 84.2 62.6004 84.1C62.6004 84.1 62.5004 84.1 62.5004 84L61.0004 83.4C61.0004 83.4 61.0004 83.4 60.9004 83.4C60.9004 83.4 60.8004 83.4 60.8004 83.3C60.8004 83.3 60.8004 83.3 60.7004 83.2C60.7004 83.2 60.6004 83.2 60.6004 83.1L60.5004 83C60.5004 83 60.5004 82.9 60.4004 82.9C60.4004 82.9 60.4004 82.9 60.4004 82.8C60.4004 82.8 60.4004 82.8 60.4004 82.7C60.4004 82.7 60.4004 82.7 60.4004 82.6V78.4C60.4004 78.4 60.4004 78.4 60.4004 78.5C60.4004 78.5 60.4004 78.5 60.4004 78.6C60.4004 78.6 60.4004 78.6 60.4004 78.7C60.4004 78.7 60.4004 78.7 60.4004 78.8C60.4004 78.8 60.4004 78.8 60.4004 78.9C60.4004 78.9 60.4004 78.9 60.4004 79C60.4004 79 60.4004 79 60.4004 79.1C60.4004 79.1 60.4004 79.2 60.5004 79.2L60.6004 79.3C60.6004 79.3 60.6004 79.3 60.7004 79.4C60.7004 79.4 60.7004 79.4 60.8004 79.5C60.8004 79.5 60.9004 79.5 60.9004 79.6C60.9004 79.6 61.0004 79.6 61.0004 79.7L62.3004 80.5C62.3004 80.5 62.3004 80.5 62.4004 80.5C62.4004 80.5 62.5004 80.5 62.5004 80.6C62.5004 80.6 62.5004 80.6 62.6004 80.7C62.6004 80.7 62.7004 80.7 62.7004 80.8L62.8004 80.9C62.8004 80.9 62.8004 81 62.9004 81C62.9004 81 62.9004 81 62.9004 81.1C62.9004 81.1 62.9004 81.1 62.9004 81.2C62.9004 81.2 62.9004 81.2 62.9004 81.3V85.5C63.1004 85.1 63.1004 85.1 63.1004 85C63.1004 85 63.1004 85.1 63.1004 85Z" fill="#98A2F4"/>
<path d="M60.3008 83.7C60.3008 83.7 60.3008 83.8 60.3008 83.7C60.3008 83.8 60.3008 83.8 60.3008 83.8C60.3008 83.8 60.3008 83.8 60.3008 83.9C60.3008 83.9 60.3008 83.9 60.3008 84C60.3008 84 60.3008 84 60.3008 84.1C60.3008 84.1 60.3008 84.1 60.3008 84.2C60.3008 84.2 60.3008 84.3 60.4008 84.3L60.5008 84.4C60.5008 84.4 60.5008 84.4 60.6008 84.5C60.6008 84.5 60.6008 84.5 60.7008 84.6C60.7008 84.6 60.8008 84.6 60.8008 84.7C60.8008 84.7 60.9008 84.7 60.9008 84.8L62.7008 85.9C62.8008 86 62.9008 86 63.0008 86.1H63.1008C63.2008 86.1 63.3008 86.2 63.4008 86.2C63.5008 86.2 63.6008 86.2 63.8008 86.3C63.8008 86.3 63.8008 86.3 63.9008 86.3C64.0008 86.3 64.2008 86.3 64.3008 86.3C64.3008 86.3 64.3008 86.3 64.4008 86.3C64.5008 86.3 64.7008 86.3 64.8008 86.3C64.8008 86.3 64.8008 86.3 64.9008 86.3C65.0008 86.3 65.2008 86.3 65.3008 86.2C65.3008 86.2 65.3008 86.2 65.4008 86.2C65.5008 86.2 65.6008 86.1 65.7008 86.1C65.7008 86.1 65.7008 86.1 65.8008 86.1C65.9008 86.1 66.0008 86 66.2008 85.9L67.5008 85.1C67.6008 85 67.7008 85 67.8008 84.9C67.8008 84.9 67.8008 84.9 67.9008 84.9C68.0008 84.9 68.0008 84.8 68.1008 84.8H68.2008C68.2008 84.8 68.2008 84.8 68.3008 84.8C68.3008 84.8 68.3008 84.8 68.4008 84.8C68.5008 84.8 68.6008 84.8 68.6008 84.8H68.7008C68.7008 84.8 68.7008 84.8 68.8008 84.8H68.9008C69.0008 84.8 69.1008 84.8 69.1008 84.8C69.1008 84.8 69.1008 84.8 69.2008 84.8C69.2008 84.8 69.2008 84.8 69.3008 84.8H69.4008C69.5008 84.8 69.6008 84.8 69.7008 84.8C69.7008 84.8 69.7008 84.8 69.8008 84.8C69.9008 84.8 69.9008 84.8 70.0008 84.8C70.1008 84.8 70.1008 84.8 70.2008 84.8C70.3008 84.8 70.4008 84.8 70.4008 84.9H70.5008H70.6008C70.7008 84.9 70.8008 85 70.9008 85.1L72.2008 85.9C72.3008 86 72.4008 86 72.5008 86.1H72.6008C72.7008 86.1 72.8008 86.2 72.9008 86.2C73.0008 86.2 73.1008 86.2 73.3008 86.3C73.3008 86.3 73.3008 86.3 73.4008 86.3C73.5008 86.3 73.7008 86.3 73.8008 86.3C73.8008 86.3 73.8008 86.3 73.9008 86.3C74.0008 86.3 74.2008 86.3 74.3008 86.3C74.3008 86.3 74.3008 86.3 74.4008 86.3C74.5008 86.3 74.7008 86.3 74.8008 86.2C74.8008 86.2 74.8008 86.2 74.9008 86.2C75.0008 86.2 75.1008 86.1 75.2008 86.1C75.2008 86.1 75.2008 86.1 75.3008 86.1C75.4008 86.1 75.5008 86 75.7008 85.9L77.5008 84.8C78.0008 84.5 78.2008 84.2 78.2008 83.8V88C78.2008 88.4 78.0008 88.7 77.5008 89L75.7008 90.1C75.6008 90.2 75.5008 90.2 75.4008 90.3C75.4008 90.3 75.4008 90.3 75.3008 90.3C75.2008 90.3 75.2008 90.4 75.1008 90.4H75.0008C75.0008 90.4 75.0008 90.4 74.9008 90.4C74.9008 90.4 74.9008 90.4 74.8008 90.4C74.7008 90.4 74.6008 90.4 74.6008 90.4H74.5008C74.5008 90.4 74.5008 90.4 74.4008 90.4H74.3008C74.2008 90.4 74.1008 90.4 74.1008 90.4C74.1008 90.4 74.1008 90.4 74.0008 90.4C74.0008 90.4 74.0008 90.4 73.9008 90.4H73.8008C73.7008 90.4 73.6008 90.4 73.5008 90.4C73.5008 90.4 73.5008 90.4 73.4008 90.4C73.3008 90.4 73.3008 90.4 73.2008 90.4C73.1008 90.4 73.1008 90.4 73.0008 90.4C72.9008 90.4 72.8008 90.4 72.8008 90.3H72.7008H72.6008C72.5008 90.3 72.4008 90.2 72.3008 90.1L71.0008 89.3C70.9008 89.2 70.8008 89.2 70.7008 89.1H70.6008C70.5008 89.1 70.4008 89 70.3008 89C70.2008 89 70.1008 89 69.9008 88.9C69.9008 88.9 69.9008 88.9 69.8008 88.9C69.7008 88.9 69.5008 88.9 69.4008 88.9C69.4008 88.9 69.4008 88.9 69.3008 88.9C69.2008 88.9 69.0008 88.9 68.9008 88.9C68.9008 88.9 68.9008 88.9 68.8008 88.9C68.7008 88.9 68.5008 88.9 68.4008 89C68.4008 89 68.4008 89 68.3008 89C68.2008 89 68.1008 89.1 68.0008 89.1C68.0008 89.1 68.0008 89.1 67.9008 89.1C67.8008 89.1 67.7008 89.2 67.5008 89.3L66.2008 90.1C66.1008 90 66.0008 90 65.8008 90.1C65.8008 90.1 65.8008 90.1 65.7008 90.1C65.6008 90.1 65.6008 90.2 65.5008 90.2H65.4008C65.4008 90.2 65.4008 90.2 65.3008 90.2C65.3008 90.2 65.3008 90.2 65.2008 90.2C65.1008 90.2 65.0008 90.2 65.0008 90.2H64.9008C64.9008 90.2 64.9008 90.2 64.8008 90.2H64.7008C64.6008 90.2 64.5008 90.2 64.5008 90.2C64.5008 90.2 64.5008 90.2 64.4008 90.2C64.4008 90.2 64.4008 90.2 64.3008 90.2H64.2008C64.1008 90.2 64.0008 90.2 63.9008 90.2C63.9008 90.2 63.9008 90.2 63.8008 90.2C63.7008 90.2 63.7008 90.2 63.6008 90.2C63.5008 90.2 63.5008 90.2 63.4008 90.2C63.3008 90.2 63.2008 90.2 63.2008 90.1H63.1008H63.0008C62.9008 90.1 62.8008 90 62.7008 89.9L61.0008 88.8C61.0008 88.8 61.0008 88.8 60.9008 88.8C60.9008 88.8 60.8008 88.8 60.8008 88.7C60.8008 88.7 60.8008 88.7 60.7008 88.6C60.7008 88.6 60.7008 88.6 60.6008 88.5L60.5008 88.4C60.5008 88.4 60.5008 88.3 60.4008 88.3C60.4008 88.3 60.4008 88.3 60.4008 88.2C60.4008 88.2 60.4008 88.2 60.4008 88.1C60.4008 88.1 60.4008 88.1 60.4008 88L60.3008 83.7Z" fill="#98A2F4"/>
<path d="M61.0012 77.2C60.1012 77.7 60.1012 78.6 61.0012 79.1L62.3012 79.9C63.2012 80.4 63.2012 81.3 62.3012 81.8L61.0012 82.7C60.1012 83.2 60.1012 84.1 61.0012 84.6L62.8012 85.7C63.7012 86.2 65.2012 86.2 66.1012 85.7L67.4012 84.9C68.3012 84.4 69.8012 84.4 70.7012 84.9L72.0012 85.7C72.9012 86.2 74.4012 86.2 75.3012 85.7L77.1012 84.6C78.0012 84.1 78.0012 83.2 77.1012 82.7L75.8012 81.9C74.9012 81.4 74.9012 80.5 75.8012 80L77.1012 79.2C78.0012 78.7 78.0012 77.8 77.1012 77.3L75.3012 76.2C74.4012 75.7 72.9012 75.7 72.0012 76.2L70.9012 77C70.0012 77.5 68.5012 77.5 67.6012 77L66.3012 76.2C65.4012 75.7 63.9012 75.7 63.0012 76.2L61.0012 77.2Z" fill="white"/>
<path d="M77.4012 79.2C78.3012 78.7 78.3012 77.8 77.4012 77.3L75.6012 76.2C74.7012 75.7 73.2012 75.7 72.3012 76.2L70.9012 77C70.0012 77.5 68.5012 77.5 67.6012 77L66.3012 76.2C65.4012 75.7 63.9012 75.7 63.0012 76.2L61.0012 77.2C60.1012 77.7 60.1012 78.6 61.0012 79.1" stroke="#171A21" stroke-width="2" stroke-miterlimit="10" stroke-linecap="round" stroke-linejoin="round"/>
<path d="M66.4004 79.1C68.0004 78.2 70.5004 78.2 72.0004 79.1C73.5004 80 73.5004 81.4 72.0004 82.3C70.4004 83.2 67.9004 83.2 66.4004 82.3C64.9004 81.4 64.9004 79.9 66.4004 79.1Z" fill="#98A2F4"/>
<path d="M81.3008 94.9C78.4008 94.9 76.1008 93.7 76.1008 90.8L76.0008 57.8C76.0008 54.9 75.2008 52.7 73.9008 52C72.6008 51.2 70.2008 51.7 67.7008 53.1C60.4008 57.3 54.2008 60.6 54.2008 69C54.2008 71.9 51.9008 73.1 49.0008 73.2C46.1008 73.2 43.8008 72 43.8008 69.1C43.8008 57 52.0008 50.1 62.5008 44.1C68.4008 40.7 74.5008 40.3 79.2008 43C83.9008 45.7 86.5008 51.1 86.6008 57.9L86.7008 90.9C86.5008 93.7 84.2008 94.9 81.3008 94.9Z" fill="#98A2F4"/>
<path d="M100.301 96.7L99.0008 97.5C98.5008 97.8 98.3008 98.1 98.3008 98.5V94.3C98.3008 93.9 98.5008 93.6 99.0008 93.3L100.301 92.5C100.801 92.2 101.001 91.9 101.001 91.5V95.7C101.001 96.1 100.801 96.5 100.301 96.7Z" fill="#98A2F4"/>
<path d="M86.0004 98.3C86.0004 98.2 86.0004 98.2 86.0004 98.2C86.0004 98.2 86.0004 98.2 86.0004 98.1C86.0004 98.1 86.0004 98.1 86.0004 98C86.0004 98 86.0004 98 86.0004 97.9C86.0004 97.9 86.0004 97.8 85.9004 97.8L85.8004 97.7C85.8004 97.7 85.8004 97.7 85.7004 97.6C85.7004 97.6 85.7004 97.6 85.6004 97.5C85.6004 97.5 85.5004 97.5 85.5004 97.4C85.5004 97.4 85.4004 97.4 85.4004 97.3L84.0004 96.7C84.0004 96.7 84.0004 96.7 83.9004 96.7C83.9004 96.7 83.8004 96.7 83.8004 96.6C83.8004 96.6 83.8004 96.6 83.7004 96.5C83.7004 96.5 83.6004 96.5 83.6004 96.4L83.5004 96.3C83.5004 96.3 83.5004 96.2 83.4004 96.2C83.4004 96.2 83.4004 96.2 83.4004 96.1C83.4004 96.1 83.4004 96.1 83.4004 96C83.4004 96 83.4004 96 83.4004 95.9V91.7C83.4004 91.7 83.4004 91.7 83.4004 91.8C83.4004 91.8 83.4004 91.8 83.4004 91.9C83.4004 91.9 83.4004 91.9 83.4004 92C83.4004 92 83.4004 92 83.4004 92.1C83.4004 92.1 83.4004 92.1 83.4004 92.2C83.4004 92.2 83.4004 92.2 83.4004 92.3C83.4004 92.3 83.4004 92.3 83.4004 92.4C83.4004 92.4 83.4004 92.5 83.5004 92.5L83.6004 92.6C83.6004 92.6 83.6004 92.6 83.7004 92.7C83.7004 92.7 83.7004 92.7 83.8004 92.8C83.8004 92.8 83.9004 92.8 83.9004 92.9C83.9004 92.9 84.0004 92.9 84.0004 93L85.3004 93.8C85.3004 93.8 85.3004 93.8 85.4004 93.8C85.4004 93.8 85.5004 93.8 85.5004 93.9C85.5004 93.9 85.5004 93.9 85.6004 94C85.6004 94 85.7004 94 85.7004 94.1L85.8004 94.2C85.8004 94.2 85.8004 94.3 85.9004 94.3C85.9004 94.3 85.9004 94.3 85.9004 94.4C85.9004 94.4 85.9004 94.4 85.9004 94.5C85.9004 94.5 85.9004 94.5 85.9004 94.6V98.8C86.0004 98.4 86.0004 98.4 86.0004 98.3C86.0004 98.4 86.0004 98.4 86.0004 98.3Z" fill="#98A2F4"/>
<path d="M83.2012 97C83.2012 97.1 83.2012 97.1 83.2012 97C83.2012 97.1 83.2012 97.1 83.2012 97.1C83.2012 97.1 83.2012 97.1 83.2012 97.2C83.2012 97.2 83.2012 97.2 83.2012 97.3C83.2012 97.3 83.2012 97.3 83.2012 97.4C83.2012 97.4 83.2012 97.4 83.2012 97.5C83.2012 97.5 83.2012 97.6 83.3012 97.6L83.4012 97.7C83.4012 97.7 83.4012 97.7 83.5012 97.8C83.5012 97.8 83.5012 97.8 83.6012 97.9C83.6012 97.9 83.7012 97.9 83.7012 98C83.7012 98 83.8012 98 83.8012 98.1L85.6012 99.2C85.7012 99.3 85.8012 99.3 85.9012 99.4H86.0012C86.1012 99.4 86.2012 99.5 86.3012 99.5C86.4012 99.5 86.5012 99.5 86.7012 99.6C86.7012 99.6 86.7012 99.6 86.8012 99.6C86.9012 99.6 87.1012 99.6 87.2012 99.6C87.2012 99.6 87.2012 99.6 87.3012 99.6C87.4012 99.6 87.6012 99.6 87.7012 99.6C87.7012 99.6 87.7012 99.6 87.8012 99.6C87.9012 99.6 88.1012 99.6 88.2012 99.5C88.2012 99.5 88.2012 99.5 88.3012 99.5C88.4012 99.5 88.5012 99.4 88.6012 99.4C88.6012 99.4 88.6012 99.4 88.7012 99.4C88.8012 99.4 88.9012 99.3 89.1012 99.2L90.4012 98.4C90.5012 98.3 90.6012 98.3 90.7012 98.2C90.7012 98.2 90.7012 98.2 90.8012 98.2C90.9012 98.2 90.9012 98.1 91.0012 98.1H91.1012C91.1012 98.1 91.1012 98.1 91.2012 98.1C91.2012 98.1 91.2012 98.1 91.3012 98.1C91.4012 98.1 91.5012 98.1 91.5012 98.1H91.6012C91.6012 98.1 91.6012 98.1 91.7012 98.1H91.8012C91.9012 98.1 92.0012 98.1 92.0012 98.1C92.0012 98.1 92.0012 98.1 92.1012 98.1C92.1012 98.1 92.1012 98.1 92.2012 98.1H92.3012C92.4012 98.1 92.5012 98.1 92.6012 98.1C92.6012 98.1 92.6012 98.1 92.7012 98.1C92.8012 98.1 92.8012 98.1 92.9012 98.1C93.0012 98.1 93.0012 98.1 93.1012 98.1C93.2012 98.1 93.3012 98.1 93.3012 98.2H93.4012H93.5012C93.6012 98.2 93.7012 98.3 93.8012 98.4L95.1012 99.2C95.2012 99.3 95.3012 99.3 95.4012 99.4H95.5012C95.6012 99.4 95.7012 99.5 95.8012 99.5C95.9012 99.5 96.0012 99.5 96.2012 99.6C96.2012 99.6 96.2012 99.6 96.3012 99.6C96.4012 99.6 96.6012 99.6 96.7012 99.6C96.7012 99.6 96.7012 99.6 96.8012 99.6C96.9012 99.6 97.1012 99.6 97.2012 99.6C97.2012 99.6 97.2012 99.6 97.3012 99.6C97.4012 99.6 97.6012 99.6 97.7012 99.5C97.7012 99.5 97.7012 99.5 97.8012 99.5C97.9012 99.5 98.0012 99.4 98.1012 99.4C98.1012 99.4 98.1012 99.4 98.2012 99.4C98.3012 99.4 98.4012 99.3 98.6012 99.2L100.401 98.1C100.901 97.8 101.101 97.5 101.101 97.1V101.3C101.101 101.7 100.901 102 100.401 102.3L98.6012 103.4C98.5012 103.5 98.4012 103.5 98.3012 103.6C98.3012 103.6 98.3012 103.6 98.2012 103.6C98.1012 103.6 98.1012 103.7 98.0012 103.7H97.9012C97.9012 103.7 97.9012 103.7 97.8012 103.7C97.8012 103.7 97.8012 103.7 97.7012 103.7C97.6012 103.7 97.5012 103.7 97.5012 103.7H97.4012C97.4012 103.7 97.4012 103.7 97.3012 103.7H97.2012C97.1012 103.7 97.0012 103.7 97.0012 103.7C97.0012 103.7 97.0012 103.7 96.9012 103.7C96.9012 103.7 96.9012 103.7 96.8012 103.7H96.7012C96.6012 103.7 96.5012 103.7 96.4012 103.7C96.4012 103.7 96.4012 103.7 96.3012 103.7C96.2012 103.7 96.2012 103.7 96.1012 103.7C96.0012 103.7 96.0012 103.7 95.9012 103.7C95.8012 103.7 95.7012 103.7 95.7012 103.6H95.6012H95.5012C95.4012 103.6 95.3012 103.5 95.2012 103.4L93.9012 102.6C93.8012 102.5 93.7012 102.5 93.6012 102.4H93.5012C93.4012 102.4 93.3012 102.3 93.2012 102.3C93.1012 102.3 93.0012 102.3 92.8012 102.2C92.8012 102.2 92.8012 102.2 92.7012 102.2C92.6012 102.2 92.4012 102.2 92.3012 102.2C92.3012 102.2 92.3012 102.2 92.2012 102.2C92.1012 102.2 91.9012 102.2 91.8012 102.2C91.8012 102.2 91.8012 102.2 91.7012 102.2C91.6012 102.2 91.4012 102.2 91.3012 102.3C91.3012 102.3 91.3012 102.3 91.2012 102.3C91.1012 102.3 91.0012 102.4 90.9012 102.4C90.9012 102.4 90.9012 102.4 90.8012 102.4C90.7012 102.4 90.6012 102.5 90.4012 102.6L89.1012 103.4C89.0012 103.5 88.9012 103.5 88.8012 103.6C88.8012 103.6 88.8012 103.6 88.7012 103.6C88.6012 103.6 88.6012 103.7 88.5012 103.7H88.4012C88.4012 103.7 88.4012 103.7 88.3012 103.7C88.3012 103.7 88.3012 103.7 88.2012 103.7C88.1012 103.7 88.0012 103.7 88.0012 103.7H87.9012C87.9012 103.7 87.9012 103.7 87.8012 103.7H87.7012C87.6012 103.7 87.5012 103.7 87.5012 103.7C87.5012 103.7 87.5012 103.7 87.4012 103.7C87.4012 103.7 87.4012 103.7 87.3012 103.7H87.2012C87.1012 103.7 87.0012 103.7 86.9012 103.7C86.9012 103.7 86.9012 103.7 86.8012 103.7C86.7012 103.7 86.7012 103.7 86.6012 103.7C86.5012 103.7 86.5012 103.7 86.4012 103.7C86.3012 103.7 86.2012 103.7 86.2012 103.6H86.1012H86.0012C85.9012 103.6 85.8012 103.5 85.7012 103.4L83.9012 102.3C83.9012 102.3 83.9012 102.3 83.8012 102.3C83.8012 102.3 83.7012 102.3 83.7012 102.2C83.7012 102.2 83.7012 102.2 83.6012 102.1C83.6012 102.1 83.6012 102.1 83.5012 102L83.4012 101.9C83.4012 101.9 83.4012 101.8 83.3012 101.8C83.3012 101.8 83.3012 101.8 83.3012 101.7C83.3012 101.7 83.3012 101.7 83.3012 101.6C83.3012 101.6 83.3012 101.6 83.3012 101.5L83.2012 97Z" fill="#98A2F4"/>
<path d="M84.0016 90.6C83.1016 91.1 83.1016 92 84.0016 92.5L85.3016 93.3C86.2016 93.8 86.2016 94.7 85.3016 95.2L83.9016 96C83.0016 96.5 83.0016 97.4 83.9016 97.9L85.7016 99C86.6016 99.5 88.1016 99.5 89.0016 99L90.3016 98.2C91.2016 97.7 92.7016 97.7 93.6016 98.2L94.9016 99C95.8016 99.5 97.3016 99.5 98.2016 99L100.002 97.9C100.902 97.4 100.902 96.5 100.002 96L99.0016 95.2C98.1016 94.7 98.1016 93.8 99.0016 93.3L100.302 92.5C101.202 92 101.202 91.1 100.302 90.6L98.5016 89.5C97.6016 89 96.1016 89 95.2016 89.5L93.9016 90.3C93.0016 90.8 91.5016 90.8 90.6016 90.3L89.3016 89.5C88.4016 89 86.9016 89 86.0016 89.5L84.0016 90.6Z" fill="white"/>
<path d="M100.302 92.5C101.202 92 101.202 91.1 100.302 90.6L98.502 89.5C97.602 89 96.102 89 95.202 89.5L93.902 90.3C93.002 90.8 91.502 90.8 90.602 90.3L89.302 89.5C88.402 89 86.902 89 86.002 89.5" stroke="#171A21" stroke-width="2" stroke-miterlimit="10" stroke-linecap="round" stroke-linejoin="round"/>
<path d="M89.3008 92.4C90.9008 91.5 93.4008 91.5 94.9008 92.4C96.4008 93.3 96.4008 94.7 94.9008 95.6C93.3008 96.5 90.8008 96.5 89.3008 95.6C87.8008 94.7 87.8008 93.3 89.3008 92.4Z" fill="#98A2F4"/>
</g>
<defs>
<clipPath id="clip0">
<rect width="144" height="144" fill="white"/>
</clipPath>
</defs>
</svg>
