<svg width="144" height="144" viewBox="0 0 144 144" fill="none" xmlns="http://www.w3.org/2000/svg">
<g clip-path="url(#clip0)">
<path d="M11.584 18.9L121.232 82.3" stroke="#171A21" stroke-width="2" stroke-miterlimit="10" stroke-linecap="round" stroke-linejoin="round"/>
<path d="M15.6787 129.4L119.734 68.8" stroke="#171A21" stroke-width="2" stroke-miterlimit="10" stroke-linecap="round" stroke-linejoin="round"/>
<path d="M142.502 72.5C143.8 66.9 140.705 61 133.315 56.7C120.633 49.3 100.061 49.3 87.2789 56.7C79.8892 61.1 76.7935 67 78.0917 72.6C78.0917 72.6 77.892 94.7 110.347 94.7C142.802 94.7 142.502 72.5 142.502 72.5Z" fill="white"/>
<path d="M77.7918 70.7C77.7918 70.9 77.7918 71 77.7918 71.2C77.7918 71.3 77.7918 71.5 77.8916 71.6C77.8916 71.8 77.8916 71.9 77.9915 72.1C77.9915 72.2 78.0914 72.4 78.0914 72.5C78.0914 72.7 78.1912 72.8 78.1912 73C78.1912 73.1 78.2911 73.3 78.2911 73.4C78.2911 73.6 78.3909 73.7 78.4908 73.9C78.4908 74 78.5907 74.2 78.6905 74.3C78.7904 74.5 78.7904 74.6 78.8902 74.8C78.9901 74.9 78.9901 75.1 79.09 75.2C79.1898 75.4 79.2897 75.5 79.3896 75.7C79.4894 75.9 79.5893 76 79.6891 76.2C79.6891 76.2 79.6891 76.3 79.789 76.3C79.9887 76.5 80.0886 76.8 80.2883 77L80.3882 77.1C80.5879 77.3 80.7876 77.6 80.8875 77.8L80.9873 77.9C81.1871 78.1 81.2869 78.3 81.4866 78.5C81.5865 78.6 81.5865 78.6 81.6864 78.7C81.8861 78.9 82.0858 79.2 82.3854 79.4L82.4853 79.5C82.685 79.7 82.8847 79.8 83.0844 80C83.2841 80.1 83.384 80.3 83.5837 80.4C83.6836 80.5 83.8833 80.7 83.9832 80.8C84.1829 80.9 84.2828 81.1 84.4825 81.2C84.6822 81.3 84.7821 81.4 84.9818 81.6C85.1815 81.7 85.3812 81.9 85.581 82C85.7807 82.1 85.8805 82.2 86.0803 82.4C86.28 82.5 86.4797 82.7 86.6794 82.8C86.8792 83 87.1787 83.1 87.4783 83.3C87.9776 83.6 88.4769 83.9 88.9762 84.1C89.0761 84.2 89.2758 84.2 89.3757 84.3C89.7751 84.5 90.1746 84.7 90.574 84.9C90.6739 85 90.8736 85 90.9735 85.1C91.4728 85.3 92.0719 85.6 92.5712 85.8C92.6711 85.8 92.771 85.9 92.8708 85.9C93.3701 86.1 93.7696 86.2 94.2689 86.4C94.4686 86.5 94.6683 86.5 94.8681 86.6C95.1676 86.7 95.3674 86.8 95.6669 86.8C95.8667 86.9 96.0664 86.9 96.366 87C96.6656 87.1 96.8653 87.1 97.1649 87.2C97.3646 87.3 97.6642 87.3 97.8639 87.4C98.1635 87.5 98.4631 87.5 98.6628 87.6C98.8625 87.7 99.1621 87.7 99.3618 87.8C99.6614 87.9 99.961 87.9 100.261 88C100.46 88 100.66 88.1 100.96 88.1C101.559 88.2 102.158 88.3 102.757 88.4C102.857 88.4 102.957 88.4 103.057 88.4C103.556 88.5 104.155 88.5 104.654 88.6C104.854 88.6 105.054 88.6 105.254 88.7C105.553 88.7 105.953 88.8 106.252 88.8C106.452 88.8 106.652 88.8 106.951 88.8C107.351 88.8 107.65 88.8 108.05 88.9C108.249 88.9 108.449 88.9 108.649 88.9C108.948 88.9 109.248 88.9 109.648 88.9C109.847 88.9 110.047 88.9 110.347 88.9C110.646 88.9 111.046 88.9 111.345 88.9C111.545 88.9 111.745 88.9 111.944 88.9C112.244 88.9 112.544 88.9 112.843 88.9C113.043 88.9 113.243 88.9 113.442 88.9C113.742 88.9 114.141 88.9 114.441 88.8C114.641 88.8 114.84 88.8 115.04 88.8C115.439 88.8 115.839 88.7 116.238 88.7C116.338 88.7 116.438 88.7 116.638 88.7C117.137 88.6 117.636 88.6 118.236 88.5C118.335 88.5 118.435 88.5 118.435 88.5C118.835 88.4 119.334 88.4 119.734 88.3C119.933 88.3 120.133 88.2 120.233 88.2C120.532 88.1 120.932 88.1 121.231 88C121.431 88 121.531 87.9 121.731 87.9C122.13 87.8 122.43 87.7 122.829 87.7C123.029 87.7 123.229 87.6 123.428 87.5C123.728 87.4 124.127 87.3 124.427 87.2C124.627 87.1 124.826 87.1 125.026 87C125.525 86.8 126.025 86.7 126.524 86.5C126.624 86.5 126.724 86.4 126.824 86.4C127.423 86.2 128.022 86 128.521 85.8C128.721 85.7 129.021 85.6 129.22 85.5C129.42 85.4 129.62 85.4 129.72 85.3C130.019 85.2 130.219 85.1 130.519 85C130.718 84.9 130.818 84.9 131.018 84.8C131.317 84.7 131.517 84.5 131.817 84.4C131.917 84.3 132.116 84.3 132.216 84.2C132.616 84 133.015 83.8 133.415 83.6C139.806 79.9 143.001 75 143.001 70.2L143.101 80C143.101 84.9 139.905 89.7 133.514 93.4C133.115 93.6 132.715 93.8 132.316 94C132.216 94.1 132.016 94.1 131.917 94.2C131.617 94.3 131.417 94.5 131.118 94.6C130.918 94.7 130.818 94.7 130.618 94.8C130.319 94.9 130.119 95 129.82 95.1C129.62 95.2 129.42 95.2 129.32 95.3C129.12 95.4 129.021 95.4 128.821 95.5C128.721 95.5 128.721 95.5 128.621 95.6C128.022 95.8 127.523 96 126.924 96.2C126.824 96.2 126.724 96.3 126.624 96.3C126.125 96.5 125.625 96.6 125.126 96.8C125.026 96.8 124.926 96.9 124.826 96.9C124.727 96.9 124.627 97 124.527 97C124.227 97.1 123.828 97.2 123.528 97.3C123.329 97.4 123.129 97.4 122.929 97.5C122.53 97.6 122.23 97.7 121.831 97.7C121.731 97.7 121.531 97.8 121.431 97.8H121.331C121.032 97.9 120.632 97.9 120.333 98C120.133 98 119.933 98.1 119.833 98.1C119.434 98.2 118.935 98.2 118.535 98.3C118.435 98.3 118.335 98.3 118.335 98.3C117.836 98.4 117.337 98.4 116.738 98.5C116.638 98.5 116.538 98.5 116.338 98.5C115.939 98.5 115.539 98.6 115.14 98.6C114.94 98.6 114.74 98.6 114.641 98.6C114.341 98.6 113.942 98.7 113.642 98.7C113.442 98.7 113.243 98.7 113.043 98.7C112.743 98.7 112.444 98.7 112.144 98.7H112.044C111.844 98.7 111.745 98.7 111.545 98.7C111.245 98.7 110.846 98.7 110.546 98.7C110.347 98.7 110.147 98.7 109.847 98.7C109.548 98.7 109.248 98.7 108.849 98.7C108.749 98.7 108.749 98.7 108.649 98.7C108.549 98.7 108.349 98.7 108.249 98.7C107.85 98.7 107.55 98.7 107.151 98.6C106.951 98.6 106.752 98.6 106.452 98.6C106.053 98.6 105.753 98.5 105.453 98.5C105.353 98.5 105.254 98.5 105.054 98.5C104.954 98.5 104.854 98.5 104.754 98.5C104.255 98.4 103.656 98.4 103.157 98.3C103.057 98.3 102.957 98.3 102.857 98.3C102.258 98.2 101.659 98.1 101.059 98C100.96 98 100.96 98 100.86 98C100.66 98 100.56 97.9 100.36 97.9C100.061 97.8 99.7613 97.8 99.4617 97.7C99.2619 97.7 98.9624 97.6 98.7626 97.5C98.4631 97.4 98.1635 97.4 97.9638 97.3C97.764 97.2 97.4644 97.2 97.2647 97.1C96.9651 97 96.7654 97 96.4658 96.9C96.2661 96.8 96.0664 96.8 95.7668 96.7C95.4672 96.6 95.2675 96.5 94.9679 96.5C94.8681 96.5 94.7682 96.4 94.6683 96.4C94.5685 96.4 94.4686 96.3 94.4686 96.3C93.9693 96.1 93.5699 96 93.0705 95.8C92.9707 95.8 92.8708 95.7 92.771 95.7C92.1718 95.5 91.6725 95.3 91.1732 95C91.0733 94.9 90.8736 94.9 90.7737 94.8C90.3743 94.6 89.9748 94.4 89.5754 94.2C89.4755 94.1 89.2758 94.1 89.176 94C88.6767 93.7 88.1774 93.5 87.678 93.2C87.5782 93.1 87.3785 93 87.2786 93C87.1787 92.9 87.0789 92.8 86.8792 92.8C86.6794 92.7 86.4797 92.6 86.28 92.4C86.0803 92.3 85.9804 92.2 85.7807 92C85.581 91.9 85.3812 91.7 85.1815 91.6C84.9818 91.5 84.8819 91.4 84.6822 91.2C84.4825 91.1 84.3826 90.9 84.1829 90.8C83.9832 90.7 83.8833 90.6 83.7835 90.4C83.5837 90.3 83.4839 90.1 83.2841 90C82.9846 90.1 82.8847 90 82.7848 90C82.685 89.9 82.5851 89.8 82.3854 89.6L82.2855 89.5C82.0858 89.3 81.7862 89 81.5865 88.8C81.4866 88.7 81.4866 88.7 81.3868 88.6C81.1871 88.4 80.9873 88.2 80.8875 88L80.7876 87.9C80.7876 87.9 80.7876 87.9 80.6878 87.8C80.488 87.6 80.3882 87.4 80.1884 87.1L80.0886 87C79.8889 86.8 79.789 86.5 79.5893 86.3C79.5893 86.3 79.5893 86.2 79.4894 86.2C79.3896 86.1 79.3896 86 79.2897 85.9C79.2897 85.8 79.1898 85.7 79.1898 85.7C79.09 85.5 78.9901 85.4 78.8902 85.2C78.7904 85.1 78.7904 84.9 78.6905 84.8C78.5907 84.6 78.5907 84.5 78.4908 84.3C78.4908 84.2 78.3909 84.2 78.3909 84.1C78.3909 84 78.3909 84 78.2911 83.9C78.1912 83.7 78.1912 83.6 78.0914 83.4C78.0914 83.3 77.9915 83.1 77.9915 83C77.9915 82.8 77.8916 82.7 77.8916 82.5C77.8916 82.4 77.8916 82.3 77.7918 82.2C77.7918 82.1 77.7918 82.1 77.7918 82C77.7918 81.8 77.6919 81.7 77.6919 81.5C77.6919 81.4 77.6919 81.2 77.592 81.1C77.592 80.9 77.592 80.8 77.592 80.6C77.592 80.5 77.592 80.4 77.592 80.3C77.592 80.2 77.592 80.1 77.592 80L77.4922 70.2C77.7918 70.4 77.7918 70.6 77.7918 70.7Z" fill="#98A2F4"/>
<path d="M142.502 72.5C143.8 66.9 140.705 61 133.315 56.7C120.633 49.3 100.061 49.3 87.2789 56.7C79.8892 61.1 76.7935 67 78.0917 72.6" stroke="#171A21" stroke-width="2" stroke-miterlimit="10" stroke-linecap="round" stroke-linejoin="round"/>
<path d="M65.7093 33.8C67.0075 28.2 63.9118 22.3 56.522 18C43.8396 10.6 23.2682 10.6 10.486 18C3.09624 22.4 0.00053668 28.3 1.29873 33.9C1.29873 33.9 1.09901 56 33.5539 56C66.0089 56 65.7093 33.8 65.7093 33.8Z" fill="white"/>
<path d="M0.999275 32.1C0.999275 32.3 0.999275 32.4 0.999275 32.6C0.999275 32.7 0.999275 32.9 1.09914 33C1.09914 33.2 1.09914 33.3 1.199 33.5C1.199 33.6 1.29886 33.8 1.29886 33.9C1.29886 34.1 1.39872 34.2 1.39872 34.4C1.39872 34.5 1.49858 34.7 1.49858 34.8C1.49858 35 1.59844 35.1 1.6983 35.3C1.6983 35.4 1.79817 35.6 1.89803 35.7C1.89803 35.9 1.99789 36 1.99789 36.2C2.09775 36.3 2.09775 36.5 2.19761 36.6C2.29747 36.8 2.39733 36.9 2.4972 37.1C2.59706 37.3 2.69692 37.4 2.79678 37.6C2.79678 37.6 2.79678 37.7 2.89664 37.7C2.9965 38 3.19622 38.2 3.29609 38.5L3.39595 38.6C3.59567 38.8 3.79539 39.1 3.89525 39.3L3.99511 39.4C4.19484 39.6 4.2947 39.8 4.49442 40C4.59428 40.1 4.59428 40.1 4.69414 40.2C4.99373 40.5 5.19345 40.7 5.39317 41L5.49303 41.1C5.69276 41.3 5.89248 41.4 6.0922 41.6C6.29192 41.7 6.39179 41.9 6.59151 42C6.69137 42.1 6.89109 42.3 6.99095 42.4C7.19068 42.5 7.29054 42.7 7.49026 42.8C7.68998 42.9 7.88971 43 7.98957 43.1C8.18929 43.2 8.38901 43.4 8.58874 43.5C8.78846 43.6 8.88832 43.7 9.08804 43.9C9.28777 44 9.48749 44.2 9.68721 44.3C9.88693 44.5 10.1865 44.6 10.4861 44.8C10.9854 45.1 11.4847 45.4 11.984 45.6C12.0839 45.7 12.2836 45.7 12.3835 45.8C12.7829 46 13.1824 46.2 13.5818 46.4C13.6817 46.5 13.8814 46.5 13.9812 46.6C14.4806 46.8 15.0797 47.1 15.579 47.3C15.6789 47.3 15.7788 47.4 15.8786 47.4C16.3779 47.6 16.7774 47.7 17.2767 47.9C17.4764 48 17.6761 48 17.8758 48.1C18.1754 48.2 18.3751 48.3 18.6747 48.3C18.8745 48.4 19.0742 48.4 19.3738 48.5C19.6733 48.6 19.8731 48.6 20.1726 48.7C20.3724 48.8 20.672 48.8 20.8717 48.9C21.1713 49 21.4708 49 21.6706 49.1C21.8703 49.2 22.1699 49.2 22.3696 49.3C22.6692 49.4 22.9688 49.4 23.2683 49.5C23.4681 49.5 23.6678 49.6 23.9674 49.6C24.5665 49.7 25.1657 49.8 25.7649 49.9C25.8647 49.9 25.9646 49.9 26.0645 49.9C26.5638 50 27.1629 50 27.6622 50.1C27.862 50.1 28.0617 50.1 28.2614 50.2C28.561 50.2 28.9604 50.3 29.26 50.3C29.4598 50.3 29.6595 50.3 29.9591 50.3C30.3585 50.3 30.6581 50.3 31.0575 50.4C31.2573 50.4 31.457 50.4 31.6567 50.4C31.9563 50.4 32.2559 50.4 32.6553 50.4C32.855 50.4 33.0548 50.4 33.3543 50.4C33.6539 50.4 34.0534 50.4 34.353 50.4C34.5527 50.4 34.7524 50.4 34.9521 50.4C35.2517 50.4 35.5513 50.4 35.8509 50.4C36.0506 50.4 36.2503 50.4 36.45 50.4C36.7496 50.4 37.1491 50.4 37.4487 50.3C37.6484 50.3 37.8481 50.3 38.0478 50.3C38.4473 50.3 38.8467 50.2 39.2462 50.2C39.346 50.2 39.4459 50.2 39.6456 50.2C40.1449 50.1 40.6442 50.1 41.2434 50C41.3432 50 41.4431 50 41.4431 50C41.8426 49.9 42.3419 49.9 42.7413 49.8C42.941 49.8 43.1408 49.7 43.2406 49.7C43.5402 49.6 43.9396 49.6 44.2392 49.5C44.4389 49.5 44.5388 49.4 44.7385 49.4C45.138 49.3 45.4376 49.2 45.837 49.2C46.0367 49.2 46.2365 49.1 46.4362 49C46.7358 48.9 47.1352 48.8 47.4348 48.7C47.6345 48.6 47.8342 48.6 48.034 48.5C48.5333 48.3 49.0326 48.2 49.5319 48C49.6317 48 49.7316 47.9 49.8315 47.9C50.4306 47.7 51.0298 47.5 51.5291 47.3C51.7288 47.2 52.0284 47.1 52.2281 47C52.4279 46.9 52.6276 46.9 52.7274 46.8C53.027 46.7 53.2267 46.6 53.5263 46.5C53.726 46.4 53.8259 46.4 54.0256 46.3C54.3252 46.2 54.5249 46 54.8245 45.9C54.9244 45.8 55.1241 45.8 55.224 45.7C55.6234 45.5 56.0229 45.3 56.4223 45.1C62.8134 41.4 66.009 36.5 66.009 31.7L66.1088 41.5C66.1088 46.4 62.9133 51.2 56.5222 54.9C56.1227 55.1 55.7233 55.3 55.3238 55.5C55.224 55.6 55.0242 55.6 54.9244 55.7C54.6248 55.8 54.4251 56 54.1255 56.1C53.9258 56.2 53.8259 56.2 53.6262 56.3C53.3266 56.4 53.1269 56.5 52.8273 56.6C52.6276 56.7 52.4279 56.7 52.328 56.8C52.1283 56.9 52.0284 56.9 51.8287 57C51.7288 57 51.7288 57 51.629 57.1C51.0298 57.3 50.5305 57.5 49.9313 57.7C49.8315 57.7 49.7316 57.8 49.6317 57.8C49.1324 58 48.6331 58.1 48.1338 58.3C48.034 58.3 47.9341 58.4 47.8342 58.4C47.7344 58.4 47.6345 58.5 47.5346 58.5C47.2351 58.6 46.8356 58.7 46.536 58.8C46.3363 58.9 46.1366 58.9 45.9369 59C45.5374 59.1 45.2378 59.2 44.8384 59.2C44.7385 59.2 44.5388 59.3 44.4389 59.3H44.3391C44.0395 59.4 43.6401 59.4 43.3405 59.5C43.1408 59.5 42.941 59.6 42.8412 59.6C42.4417 59.7 41.9424 59.7 41.543 59.8C41.4431 59.8 41.3432 59.8 41.3432 59.8C40.8439 59.9 40.3446 59.9 39.7455 60C39.6456 60 39.5457 60 39.346 60C38.9466 60 38.5471 60.1 38.1477 60.1C37.948 60.1 37.7482 60.1 37.6484 60.1C37.3488 60.1 36.9493 60.2 36.6498 60.2C36.45 60.2 36.2503 60.2 36.0506 60.2C35.751 60.2 35.4514 60.2 35.1518 60.2H35.052C34.8523 60.2 34.7524 60.2 34.5527 60.2C34.2531 60.2 33.8536 60.2 33.5541 60.2C33.3543 60.2 33.1546 60.2 32.855 60.2C32.5555 60.2 32.2559 60.2 31.8564 60.2C31.7566 60.2 31.7566 60.2 31.6567 60.2C31.5568 60.2 31.3571 60.2 31.2573 60.2C30.8578 60.2 30.5582 60.2 30.1588 60.1C29.9591 60.1 29.7593 60.1 29.4598 60.1C29.0603 60.1 28.7607 60 28.4611 60C28.3613 60 28.2614 60 28.0617 60C27.9618 60 27.862 60 27.7621 60C27.2628 59.9 26.6636 59.9 26.1643 59.8C26.0645 59.8 25.9646 59.8 25.8647 59.8C25.2656 59.7 24.6664 59.6 24.0672 59.5C23.9674 59.5 23.9674 59.5 23.8675 59.5C23.6678 59.5 23.5679 59.4 23.3682 59.4C23.0686 59.3 22.769 59.3 22.4695 59.2C22.2697 59.2 21.9702 59.1 21.7704 59C21.4708 58.9 21.1713 58.9 20.9715 58.8C20.7718 58.7 20.4722 58.7 20.2725 58.6C19.9729 58.5 19.7732 58.5 19.4736 58.4C19.2739 58.3 19.0742 58.3 18.7746 58.2C18.475 58.1 18.2753 58 17.9757 58C17.8758 58 17.776 57.9 17.6761 57.9C17.5763 57.9 17.4764 57.8 17.4764 57.8C16.9771 57.6 16.5776 57.5 16.0783 57.3C15.9785 57.3 15.8786 57.2 15.7788 57.2C15.1796 57 14.6803 56.8 14.181 56.5C14.0811 56.4 13.8814 56.4 13.7815 56.3C13.3821 56.1 12.9826 55.9 12.5832 55.7C12.4833 55.6 12.2836 55.6 12.1837 55.5C11.6844 55.2 11.1851 55 10.6858 54.7C10.586 54.6 10.3862 54.5 10.2864 54.5C10.1865 54.4 10.0867 54.3 9.88693 54.3C9.68721 54.2 9.48749 54.1 9.28777 53.9C9.08804 53.8 8.98818 53.7 8.78846 53.5C8.58874 53.4 8.38901 53.2 8.18929 53.1C7.98957 53 7.88971 52.9 7.68998 52.7C7.49026 52.6 7.3904 52.4 7.19068 52.3C6.99095 52.1 6.79123 52 6.69137 51.9C6.49165 51.8 6.39179 51.6 6.19206 51.5C6.0922 51.4 6.0922 51.4 5.99234 51.3C5.89248 51.2 5.79262 51.1 5.5929 50.9L5.49303 50.8C5.29331 50.6 4.99373 50.3 4.79401 50.1C4.79401 50 4.79401 50 4.69414 49.9C4.49442 49.7 4.2947 49.5 4.19484 49.3L4.09498 49.2C4.09498 49.2 4.09498 49.2 3.99511 49.1C3.79539 48.9 3.69553 48.7 3.49581 48.4L3.39595 48.3C3.19622 48.1 3.09636 47.8 2.89664 47.6C2.89664 47.6 2.89664 47.5 2.79678 47.5C2.69692 47.4 2.69692 47.3 2.59706 47.2C2.59706 47.1 2.4972 47 2.4972 47C2.39733 46.8 2.29747 46.7 2.19761 46.5C2.09775 46.4 2.09775 46.2 1.99789 46.1C1.89803 45.9 1.89803 45.8 1.79817 45.6C1.79817 45.5 1.6983 45.5 1.6983 45.4C1.6983 45.3 1.6983 45.3 1.59844 45.2C1.49858 45 1.49858 44.9 1.39872 44.7C1.39872 44.6 1.29886 44.4 1.29886 44.3C1.29886 44.1 1.199 44 1.199 43.8C1.199 43.7 1.199 43.6 1.09914 43.5C1.09914 43.4 1.09914 43.4 1.09914 43.3C1.09914 43.1 0.999275 43 0.999275 42.8C0.999275 42.7 0.999275 42.5 0.899414 42.4C0.899414 42.2 0.899414 42.1 0.899414 41.9C0.899414 41.8 0.899414 41.7 0.899414 41.6C0.899414 41.5 0.899414 41.4 0.899414 41.3L0.999275 31.5C0.999275 31.7 0.999275 31.9 0.999275 32.1Z" fill="#98A2F4"/>
<path d="M65.7093 33.8C67.0075 28.2 63.9118 22.3 56.522 18C43.8396 10.6 23.2682 10.6 10.486 18C3.09624 22.4 0.000536658 28.3 1.29873 33.9" stroke="#171A21" stroke-width="2" stroke-miterlimit="10" stroke-linecap="round" stroke-linejoin="round"/>
<path d="M65.8088 117.3C67.107 111.7 64.0113 105.8 56.6216 101.5C43.9392 94.1 23.3678 94.1 10.5855 101.5C3.09592 105.8 0.000213861 111.7 1.29841 117.3C1.29841 117.3 1.09869 139.4 33.5536 139.4C66.0085 139.4 65.8088 117.3 65.8088 117.3Z" fill="white"/>
<path d="M1.09863 115.5C1.09863 115.7 1.09863 115.8 1.09863 116C1.09863 116.1 1.09863 116.3 1.19849 116.4C1.19849 116.6 1.19849 116.7 1.29836 116.9C1.29836 117 1.39822 117.2 1.39822 117.3C1.39822 117.5 1.49808 117.6 1.49808 117.8C1.49808 117.9 1.59794 118.1 1.59794 118.2C1.59794 118.4 1.6978 118.5 1.79766 118.7C1.79766 118.8 1.89752 119 1.99738 119.1C2.09725 119.3 2.09725 119.4 2.19711 119.6C2.29697 119.7 2.29697 119.9 2.39683 120C2.49669 120.2 2.59655 120.3 2.69641 120.5C2.79628 120.7 2.89614 120.8 2.996 121C2.996 121 2.996 121.1 3.09586 121.1C3.29558 121.3 3.39544 121.6 3.59517 121.8L3.69503 121.9C3.89475 122.1 4.09447 122.4 4.19433 122.6L4.29419 122.7C4.49392 122.9 4.59378 123.1 4.7935 123.3C4.89336 123.4 4.89336 123.4 4.99322 123.5C5.19295 123.7 5.39267 124 5.69225 124.2L5.79211 124.3C5.99184 124.5 6.19156 124.6 6.39128 124.8C6.591 124.9 6.69087 125.1 6.89059 125.2C6.99045 125.3 7.19017 125.5 7.29003 125.6C7.48976 125.7 7.58962 125.9 7.78934 126C7.98906 126.1 8.08892 126.2 8.28865 126.4C8.48837 126.5 8.68809 126.7 8.88781 126.8C9.08754 126.9 9.1874 127 9.38712 127.2C9.58684 127.3 9.78657 127.5 9.98629 127.6C10.186 127.8 10.4856 127.9 10.7852 128.1C11.2845 128.4 11.7838 128.7 12.2831 128.9C12.383 129 12.5827 129 12.6825 129.1C13.082 129.3 13.4814 129.5 13.8809 129.7C13.9807 129.8 14.1805 129.8 14.2803 129.9C14.7796 130.1 15.3788 130.4 15.8781 130.6C15.978 130.6 16.0778 130.7 16.1777 130.7C16.677 130.9 17.0764 131 17.5757 131.2C17.7755 131.3 17.9752 131.3 18.1749 131.4C18.4745 131.5 18.6742 131.6 18.9738 131.6C19.1735 131.7 19.3733 131.7 19.6728 131.8C19.9724 131.9 20.1721 131.9 20.4717 132C20.6714 132.1 20.971 132.1 21.1708 132.2C21.4703 132.3 21.7699 132.3 21.9696 132.4C22.1694 132.5 22.469 132.5 22.6687 132.6C22.9683 132.7 23.2678 132.7 23.5674 132.8C23.7671 132.8 23.9669 132.9 24.2665 132.9C24.8656 133 25.4648 133.1 26.064 133.2C26.1638 133.2 26.2637 133.2 26.3635 133.2C26.8628 133.3 27.462 133.3 27.9613 133.4C28.161 133.4 28.3608 133.4 28.5605 133.5C28.8601 133.5 29.2595 133.6 29.5591 133.6C29.7588 133.6 29.9585 133.6 30.2581 133.6C30.6576 133.6 30.9572 133.6 31.3566 133.7C31.5563 133.7 31.7561 133.7 31.9558 133.7C32.2554 133.7 32.5549 133.7 32.9544 133.7C33.1541 133.7 33.3538 133.7 33.6534 133.7C33.953 133.7 34.3525 133.7 34.652 133.7C34.8518 133.7 35.0515 133.7 35.2512 133.7C35.5508 133.7 35.8504 133.7 36.15 133.7C36.3497 133.7 36.5494 133.7 36.7491 133.7C37.0487 133.7 37.4482 133.7 37.7477 133.6C37.9475 133.6 38.1472 133.6 38.3469 133.6C38.7463 133.6 39.1458 133.5 39.5452 133.5C39.6451 133.5 39.745 133.5 39.9447 133.5C40.444 133.4 40.9433 133.4 41.5425 133.3C41.6423 133.3 41.7422 133.3 41.7422 133.3C42.1416 133.2 42.6409 133.2 43.0404 133.1C43.2401 133.1 43.4398 133 43.5397 133C43.8393 132.9 44.2387 132.9 44.5383 132.8C44.738 132.8 44.8379 132.7 45.0376 132.7C45.4371 132.6 45.7366 132.5 46.1361 132.5C46.3358 132.5 46.5355 132.4 46.7352 132.3C47.0348 132.2 47.4343 132.1 47.7339 132C47.9336 131.9 48.1333 131.9 48.333 131.8C48.8323 131.6 49.3316 131.5 49.831 131.3C49.9308 131.3 50.0307 131.2 50.1305 131.2C50.7297 131 51.3289 130.8 51.8282 130.6C52.0279 130.5 52.3275 130.4 52.5272 130.3C52.7269 130.2 52.9267 130.2 53.0265 130.1C53.3261 130 53.5258 129.9 53.8254 129.8C54.0251 129.7 54.125 129.7 54.3247 129.6C54.6243 129.5 54.824 129.3 55.1236 129.2C55.2235 129.1 55.4232 129.1 55.523 129C55.9225 128.8 56.3219 128.6 56.7214 128.4C63.1125 124.7 66.3081 119.8 66.3081 115L66.4079 124.8C66.4079 129.7 63.2124 134.5 56.8212 138.2C56.4218 138.4 56.0224 138.6 55.6229 138.8C55.523 138.9 55.3233 138.9 55.2235 139C54.9239 139.1 54.7242 139.3 54.4246 139.4C54.2248 139.5 54.125 139.5 53.9253 139.6C53.6257 139.7 53.426 139.8 53.1264 139.9C52.9267 140 52.7269 140 52.6271 140.1C52.4273 140.2 52.3275 140.2 52.1278 140.3C52.0279 140.3 52.0279 140.3 51.928 140.4C51.3289 140.6 50.8296 140.8 50.2304 141C50.1305 141 50.0307 141.1 49.9308 141.1C49.4315 141.3 48.9322 141.4 48.4329 141.6C48.333 141.6 48.2332 141.7 48.1333 141.7C48.0334 141.7 47.9336 141.8 47.8337 141.8C47.5341 141.9 47.1347 142 46.8351 142.1C46.6354 142.2 46.4357 142.2 46.2359 142.3C45.8365 142.4 45.5369 142.5 45.1375 142.5C45.0376 142.5 44.8379 142.6 44.738 142.6H44.6382C44.3386 142.7 43.9391 142.7 43.6396 142.8C43.4398 142.8 43.2401 142.9 43.1402 142.9C42.7408 143 42.2415 143 41.842 143.1C41.7422 143.1 41.6423 143.1 41.6423 143.1C41.143 143.2 40.6437 143.2 40.0445 143.3C39.9447 143.3 39.8448 143.3 39.6451 143.3C39.2457 143.3 38.8462 143.4 38.4468 143.4C38.247 143.4 38.0473 143.4 37.9475 143.4C37.6479 143.4 37.2484 143.5 36.9488 143.5C36.7491 143.5 36.5494 143.5 36.3497 143.5C36.0501 143.5 35.7505 143.5 35.4509 143.5H35.3511C35.1513 143.5 35.0515 143.5 34.8518 143.5C34.5522 143.5 34.1527 143.5 33.8531 143.5C33.6534 143.5 33.4537 143.5 33.1541 143.5C32.8545 143.5 32.5549 143.5 32.1555 143.5C32.0556 143.5 32.0556 143.5 31.9558 143.5C31.8559 143.5 31.6562 143.5 31.5563 143.5C31.1569 143.5 30.8573 143.5 30.4579 143.4C30.2581 143.4 30.0584 143.4 29.7588 143.4C29.3594 143.4 29.0598 143.3 28.7602 143.3C28.6604 143.3 28.5605 143.3 28.3608 143.3C28.2609 143.3 28.161 143.3 28.0612 143.3C27.5619 143.2 26.9627 143.2 26.4634 143.1C26.3635 143.1 26.2637 143.1 26.1638 143.1C25.5647 143 24.9655 142.9 24.3663 142.8C24.2665 142.8 24.2665 142.8 24.1666 142.8C23.9669 142.8 23.867 142.7 23.6673 142.7C23.3677 142.6 23.0681 142.6 22.7685 142.5C22.5688 142.5 22.2692 142.4 22.0695 142.3C21.7699 142.2 21.4703 142.2 21.2706 142.1C21.0709 142 20.7713 142 20.5716 141.9C20.272 141.8 20.0723 141.8 19.7727 141.7C19.573 141.6 19.3733 141.6 19.0737 141.5C18.7741 141.4 18.5744 141.3 18.2748 141.3C18.1749 141.3 18.0751 141.2 17.9752 141.2C17.8753 141.2 17.7755 141.1 17.7755 141.1C17.2762 140.9 16.8767 140.8 16.3774 140.6C16.2776 140.6 16.1777 140.5 16.0778 140.5C15.4787 140.3 14.9794 140.1 14.48 139.8C14.3802 139.7 14.1805 139.7 14.0806 139.6C13.6812 139.4 13.2817 139.2 12.8823 139C12.7824 138.9 12.5827 138.9 12.4828 138.8C11.9835 138.5 11.4842 138.3 10.9849 138C10.885 137.9 10.6853 137.8 10.5855 137.8C10.4856 137.7 10.3857 137.6 10.186 137.6C9.98629 137.5 9.78657 137.4 9.58684 137.2C9.38712 137.1 9.28726 137 9.08754 136.8C8.88781 136.7 8.68809 136.5 8.48837 136.4C8.28865 136.3 8.18879 136.2 7.98906 136C7.78934 135.9 7.68948 135.7 7.48976 135.6C7.29003 135.5 7.19017 135.4 7.09031 135.2C6.89059 135.1 6.79073 134.9 6.591 134.8C6.49114 134.7 6.49114 134.7 6.39128 134.6C6.29142 134.5 6.19156 134.4 5.99184 134.2L5.89198 134.1C5.69225 133.9 5.39267 133.6 5.19295 133.4C5.09309 133.3 5.09309 133.3 4.99322 133.2C4.7935 133 4.59378 132.8 4.49392 132.6L4.39406 132.5C4.39406 132.5 4.39406 132.5 4.29419 132.4C4.09447 132.2 3.99461 132 3.79489 131.7L3.69503 131.6C3.4953 131.4 3.39544 131.1 3.19572 130.9C3.19572 130.9 3.19572 130.8 3.09586 130.8C2.996 130.7 2.996 130.6 2.89614 130.5C2.89614 130.4 2.79627 130.3 2.79627 130.3C2.69641 130.1 2.59655 130 2.49669 129.8C2.39683 129.7 2.39683 129.5 2.29697 129.4C2.19711 129.2 2.19711 129.1 2.09725 128.9C2.09725 128.8 1.99738 128.8 1.99738 128.7C1.99738 128.6 1.99738 128.6 1.89752 128.5C1.79766 128.3 1.79766 128.2 1.6978 128C1.6978 127.9 1.59794 127.7 1.59794 127.6C1.59794 127.4 1.49808 127.3 1.49808 127.1C1.49808 127 1.49808 126.9 1.39822 126.8C1.39822 126.7 1.39822 126.7 1.39822 126.6C1.39822 126.4 1.29836 126.3 1.29836 126.1C1.29836 126 1.29836 125.8 1.19849 125.7C1.19849 125.5 1.19849 125.4 1.19849 125.2C1.19849 125.1 1.19849 125 1.19849 124.9C1.19849 124.8 1.19849 124.7 1.19849 124.6L1.09863 114.8C1.09863 115.1 1.09863 115.3 1.09863 115.5Z" fill="#98A2F4"/>
<path d="M65.8088 117.3C67.107 111.7 64.0113 105.8 56.6216 101.5C43.9392 94.1 23.3678 94.1 10.5855 101.5C3.09592 105.8 0.00021381 111.7 1.29841 117.3" stroke="#171A21" stroke-width="2" stroke-miterlimit="10" stroke-linecap="round" stroke-linejoin="round"/>
<path d="M108.45 58.7L90.1749 48.2C89.6756 47.9 89.0764 48.3 89.0764 48.8L88.9766 67.4C88.9766 68.4 89.4759 69.4 90.3746 69.9L108.25 80.2C109.149 80.7 110.247 80.7 111.046 80.2L128.821 69.9C129.72 69.4 130.219 68.5 130.219 67.5L130.319 48.9C130.319 48.4 129.72 48 129.221 48.3L111.146 58.8C110.447 59.2 109.348 59.2 108.45 58.7Z" fill="#98A2F4"/>
<path d="M129.421 48.2L111.246 58.7C110.347 59.2 109.249 59.2 108.45 58.7L90.1753 48.2C89.676 47.9 89.676 47.2 90.1753 47L108.35 36.5C109.249 36 110.347 36 111.146 36.5L129.421 47.1C129.92 47.2 129.92 47.9 129.421 48.2Z" fill="#EAECFD"/>
<path d="M129.021 69.9C129.919 69.4 130.419 68.5 130.419 67.5L130.519 49.3C130.519 48.3 130.019 47.3 129.121 46.8L111.245 36.5C110.347 36 109.248 36 108.449 36.5L90.5741 46.7C89.6753 47.2 89.176 48.1 89.176 49.1L89.0762 67.3C89.0762 68.3 89.5755 69.3 90.4742 69.8" stroke="#171A21" stroke-width="2" stroke-miterlimit="10" stroke-linecap="round" stroke-linejoin="round"/>
<path d="M33.8532 36.9C43.6151 36.9 51.5286 28.9754 51.5286 19.2C51.5286 9.42456 43.6151 1.5 33.8532 1.5C24.0913 1.5 16.1777 9.42456 16.1777 19.2C16.1777 28.9754 24.0913 36.9 33.8532 36.9Z" fill="#EAECFD" stroke="#171A21" stroke-width="2" stroke-miterlimit="10" stroke-linecap="round" stroke-linejoin="round"/>
<path d="M33.2541 83.6L8.58832 110.2C7.88929 110.9 8.08901 112.1 8.98776 112.6L30.9573 125.3C31.9559 125.9 33.2541 125.2 33.2541 124V83.6Z" fill="#98A2F4"/>
<path d="M33.0547 83.6L57.8203 110.1C58.5193 110.8 58.3196 112 57.4208 112.5L35.4514 125.2C34.4527 125.8 33.1546 125.1 33.1546 123.9L33.0547 83.6Z" fill="#EAECFD"/>
<path d="M32.4553 126.1C32.9546 126.4 33.5538 126.4 33.9532 126.1L57.4207 112.5C58.3194 112 58.4193 110.9 57.8201 110.1L33.8534 84.4C33.4539 84 32.7549 84 32.3555 84.4" stroke="#171A21" stroke-width="2" stroke-miterlimit="10" stroke-linecap="round" stroke-linejoin="round"/>
</g>
<defs>
<clipPath id="clip0">
<rect width="144" height="144" fill="white"/>
</clipPath>
</defs>
</svg>
