<svg width="144" height="144" viewBox="0 0 144 144" fill="none" xmlns="http://www.w3.org/2000/svg">
<path d="M111.499 69.6C120.599 64.3 120.499 55.8 111.399 50.5C102.299 45.2 93.1991 48.6 84.1991 53.8L52.7991 72.1C46.0991 76 35.1991 76 28.4991 72.1C21.7991 68.2 21.6991 61.9 28.3991 58L57.6991 40.9" stroke="#171A21" stroke-width="2" stroke-miterlimit="10" stroke-linecap="round" stroke-linejoin="round"/>
<path d="M137.2 74.8C138.1 70.9 136 66.8 130.8 63.8C122 58.7 107.6 58.7 98.7998 63.8C93.5998 66.8 91.3998 70.9 92.2998 74.8C92.2998 74.8 92.1998 101.7 114.8 101.7C137.4 101.7 137.2 74.8 137.2 74.8Z" fill="white"/>
<path d="M92.0996 73.6C92.0996 73.7 92.0996 73.8 92.0996 73.9C92.0996 74 92.0996 74.1 92.0996 74.2C92.0996 74.3 92.0996 74.4 92.1996 74.5C92.1996 74.6 92.1996 74.7 92.2996 74.8C92.2996 74.9 92.3996 75 92.3996 75.1C92.3996 75.2 92.4996 75.3 92.4996 75.4C92.4996 75.5 92.5996 75.6 92.5996 75.7C92.5996 75.8 92.6996 75.9 92.6996 76C92.6996 76.1 92.7996 76.2 92.7996 76.3C92.7996 76.4 92.8996 76.5 92.8996 76.6C92.9996 76.7 92.9996 76.8 93.0996 76.9C93.1996 77 93.1996 77.1 93.2996 77.3V77.4C93.3996 77.6 93.4996 77.7 93.5996 77.9C93.5996 77.9 93.5996 78 93.6996 78C93.7996 78.2 93.8996 78.3 94.0996 78.5L94.1996 78.6C94.2996 78.7 94.3996 78.9 94.5996 79L94.6996 79.1C94.8996 79.3 94.9996 79.4 95.1996 79.6L95.2996 79.7C95.3996 79.8 95.5996 79.9 95.6996 80.1C95.7996 80.2 95.8996 80.3 95.9996 80.4C96.0996 80.5 96.1996 80.6 96.2996 80.7C96.3996 80.8 96.4996 80.9 96.6996 81C96.7996 81.1 96.8996 81.2 96.9996 81.3C97.0996 81.4 97.2996 81.5 97.3996 81.6C97.4996 81.7 97.5996 81.8 97.7996 81.8C97.8996 81.9 98.0996 82 98.1996 82.1C98.3996 82.2 98.4996 82.3 98.6996 82.4C98.9996 82.6 99.3996 82.8 99.6996 83C99.7996 83.1 99.8996 83.1 99.9996 83.2C100.3 83.3 100.6 83.5 100.8 83.6C100.9 83.6 101 83.7 101.1 83.7C101.5 83.9 101.8 84 102.2 84.2C102.3 84.2 102.3 84.2 102.4 84.3C102.7 84.4 103.1 84.5 103.4 84.6C103.5 84.6 103.7 84.7 103.8 84.7C104 84.8 104.2 84.8 104.4 84.9C104.6 84.9 104.7 85 104.9 85C105.1 85.1 105.3 85.1 105.5 85.2C105.7 85.2 105.8 85.3 106 85.3C106.2 85.3 106.4 85.4 106.6 85.4C106.8 85.4 106.9 85.5 107.1 85.5C107.3 85.5 107.5 85.6 107.7 85.6C107.9 85.6 108 85.7 108.2 85.7C108.6 85.8 109.1 85.8 109.5 85.9C109.6 85.9 109.6 85.9 109.7 85.9C110.1 86 110.5 86 110.8 86C110.9 86 111.1 86 111.2 86C111.4 86 111.7 86 111.9 86.1C112.1 86.1 112.2 86.1 112.4 86.1C112.7 86.1 112.9 86.1 113.2 86.1C113.3 86.1 113.5 86.1 113.6 86.1C113.8 86.1 114 86.1 114.3 86.1C114.5 86.1 114.6 86.1 114.8 86.1C115 86.1 115.3 86.1 115.5 86.1C115.6 86.1 115.8 86.1 115.9 86.1C116.1 86.1 116.3 86.1 116.6 86.1C116.8 86.1 116.9 86.1 117.1 86.1C117.3 86.1 117.6 86.1 117.8 86.1C117.9 86.1 118.1 86.1 118.2 86.1C118.5 86.1 118.8 86 119 86C119.1 86 119.2 86 119.3 86C119.7 86 120 85.9 120.4 85.9C120.5 85.9 120.5 85.9 120.6 85.9C120.9 85.9 121.2 85.8 121.5 85.8C121.6 85.8 121.8 85.8 121.9 85.7C122.1 85.7 122.4 85.6 122.6 85.6C122.7 85.6 122.8 85.5 123 85.5C123.3 85.4 123.5 85.4 123.8 85.3C123.9 85.3 124.1 85.2 124.2 85.2C124.4 85.1 124.7 85.1 124.9 85C125 85 125.2 84.9 125.3 84.9C125.7 84.8 126 84.7 126.4 84.6C126.5 84.6 126.5 84.6 126.6 84.5C127 84.4 127.4 84.2 127.8 84.1C128 84 128.1 84 128.3 83.9C128.4 83.8 128.6 83.8 128.7 83.7C128.9 83.6 129.1 83.5 129.2 83.5C129.3 83.4 129.4 83.4 129.5 83.3C129.7 83.2 129.9 83.1 130.1 83C130.2 83 130.3 82.9 130.4 82.9C130.7 82.8 130.9 82.6 131.2 82.5C135.7 79.9 137.9 76.5 137.9 73.2L138 91.6C138 95 135.8 98.4 131.3 100.9C131 101.1 130.8 101.2 130.5 101.3C130.4 101.3 130.3 101.4 130.2 101.4C130 101.5 129.8 101.6 129.6 101.7C129.5 101.8 129.4 101.8 129.3 101.9C129.1 102 128.9 102.1 128.8 102.1C128.7 102.2 128.6 102.2 128.4 102.3C128.3 102.3 128.2 102.4 128 102.5H127.9C127.5 102.7 127.1 102.8 126.7 102.9C126.6 102.9 126.6 102.9 126.5 103C126.1 103.1 125.8 103.2 125.4 103.3C125.3 103.3 125.3 103.3 125.2 103.4C125.1 103.4 125.1 103.4 125 103.5C124.8 103.6 124.5 103.6 124.3 103.7C124.2 103.7 124 103.8 123.9 103.8C123.6 103.9 123.4 103.9 123.1 104C123 104 122.9 104 122.8 104.1H122.7C122.5 104.1 122.2 104.2 122 104.2C121.9 104.2 121.7 104.2 121.6 104.3C121.3 104.4 121 104.4 120.7 104.4C120.6 104.4 120.6 104.4 120.5 104.4C120.1 104.5 119.8 104.5 119.4 104.5C119.3 104.5 119.2 104.5 119.1 104.5C118.8 104.5 118.5 104.6 118.3 104.6C118.2 104.6 118.1 104.6 117.9 104.6C117.7 104.6 117.4 104.6 117.2 104.6C117 104.6 116.9 104.6 116.7 104.6C116.5 104.6 116.3 104.6 116 104.6C116 104.6 116 104.6 115.9 104.6C115.8 104.6 115.7 104.6 115.5 104.6C115.3 104.6 115 104.6 114.8 104.6C114.6 104.6 114.5 104.6 114.3 104.6C114.1 104.6 113.9 104.6 113.6 104.6H113.5C113.4 104.6 113.3 104.6 113.2 104.6C112.9 104.6 112.7 104.6 112.4 104.6C112.2 104.6 112.1 104.6 111.9 104.6C111.7 104.6 111.4 104.6 111.2 104.5C111.1 104.5 111 104.5 110.9 104.5C110.8 104.5 110.8 104.5 110.7 104.5C110.3 104.5 109.9 104.4 109.6 104.4C109.5 104.4 109.5 104.4 109.4 104.4C109 104.3 108.5 104.3 108.1 104.2H108C107.9 104.2 107.8 104.2 107.7 104.1C107.5 104.1 107.3 104 107.1 104C106.9 104 106.8 103.9 106.6 103.9C106.4 103.9 106.2 103.8 106 103.8C105.8 103.8 105.7 103.7 105.5 103.7C105.3 103.7 105.1 103.6 104.9 103.5C104.7 103.5 104.6 103.4 104.4 103.4C104.2 103.3 104 103.3 103.8 103.2C103.7 103.2 103.6 103.2 103.6 103.1C103.5 103.1 103.5 103.1 103.4 103C103.1 102.9 102.7 102.8 102.4 102.7C102.3 102.7 102.3 102.7 102.2 102.6C101.8 102.5 101.4 102.3 101.1 102.1C101 102.1 100.9 102 100.8 102C100.5 101.9 100.2 101.7 99.9996 101.6C99.8996 101.5 99.7996 101.5 99.6996 101.4C99.2996 101.2 98.9996 101 98.6996 100.8C98.5996 100.7 98.4996 100.7 98.3996 100.6C98.2996 100.5 98.1996 100.5 98.1996 100.4C98.0996 100.3 97.8996 100.2 97.7996 100.1C97.6996 100 97.5996 99.9 97.3996 99.9C97.2996 99.8 97.0996 99.7 96.9996 99.6C96.8996 99.5 96.7996 99.4 96.6996 99.3C96.5996 99.2 96.4996 99.1 96.2996 99C96.1996 98.9 96.0996 98.8 95.9996 98.7C95.8996 98.6 95.7996 98.5 95.6996 98.4L95.5996 98.3C95.4996 98.2 95.3996 98.1 95.2996 98.1L95.1996 98C94.9996 97.8 94.8996 97.7 94.6996 97.5L94.5996 97.4C94.4996 97.3 94.2996 97.1 94.1996 97L94.0996 96.9C93.9996 96.7 93.8996 96.6 93.7996 96.4C93.7996 96.4 93.7996 96.3 93.6996 96.3C93.5996 96.1 93.4996 96 93.3996 95.8V95.7C93.3996 95.6 93.2996 95.6 93.2996 95.5C93.2996 95.4 93.1996 95.4 93.1996 95.3C93.0996 95.2 93.0996 95.1 92.9996 95C92.9996 94.9 92.8996 94.8 92.8996 94.7C92.7996 94.6 92.7996 94.5 92.7996 94.4C92.7996 94.3 92.7996 94.3 92.6996 94.2V94.1C92.6996 94 92.5996 93.9 92.5996 93.8C92.5996 93.7 92.4996 93.6 92.4996 93.5C92.4996 93.4 92.3996 93.3 92.3996 93.2C92.3996 93.1 92.3996 93.1 92.3996 93V92.9C92.3996 92.8 92.3996 92.7 92.2996 92.6C92.2996 92.5 92.2996 92.4 92.2996 92.3C92.2996 92.2 92.2996 92.1 92.2996 92C92.2996 91.9 92.2996 91.9 92.2996 91.8C92.2996 91.7 92.2996 91.7 92.2996 91.6L92.1996 73.2C92.0996 73.3 92.0996 73.5 92.0996 73.6Z" fill="#98A2F4"/>
<path d="M137.2 74.8C138.1 70.9 136 66.8 130.8 63.8C122 58.7 107.6 58.7 98.7998 63.8C93.5998 66.8 91.3998 70.9 92.2998 74.8" stroke="#171A21" stroke-width="2" stroke-miterlimit="10" stroke-linecap="round" stroke-linejoin="round"/>
<path d="M56.4996 30.0999L79.5996 16.7999C80.1996 16.4999 80.8996 16.8999 80.8996 17.5999L80.9996 40.8999C80.9996 42.1999 80.2996 43.3999 79.1996 43.9999L56.4996 56.9999C55.3996 57.5999 53.9996 57.5999 52.8996 56.9999L30.4996 43.8999C29.3996 43.2999 28.6996 42.0999 28.6996 40.7999L28.5996 17.4999C28.5996 16.7999 29.2996 16.3999 29.8996 16.6999L52.8996 29.9999C53.9996 30.6999 55.3996 30.6999 56.4996 30.0999Z" fill="#98A2F4"/>
<path d="M29.9988 16.7L52.8988 30C53.9988 30.6 55.3988 30.6 56.4988 30L79.5988 16.7C80.1988 16.4 80.1988 15.5 79.5988 15.2L56.5988 1.89995C55.4988 1.29995 54.0988 1.29995 52.9988 1.89995L29.9988 15.2C29.3988 15.5 29.3988 16.4 29.9988 16.7Z" fill="#EAECFD"/>
<path d="M28.6992 18C28.6992 16.7 29.3992 15.5 30.4992 14.9L52.9992 1.89995C54.0992 1.29995 55.4992 1.29995 56.5992 1.89995L79.0992 15C80.1992 15.6 80.8992 16.8 80.8992 18.1" stroke="#171A21" stroke-width="2" stroke-miterlimit="10" stroke-linecap="round" stroke-linejoin="round"/>
<path d="M70 9.69998L63.7 6.09998L37.5 21.2L43.8 24.8L70 9.69998Z" fill="white" stroke="#171A21" stroke-width="2" stroke-miterlimit="10" stroke-linecap="round" stroke-linejoin="round"/>
<path d="M13.7988 108.5C13.7988 108.3 13.7988 108.2 13.7988 108V107.9C13.7988 107.8 13.7988 107.6 13.8988 107.5V107.4C13.8988 107.2 13.9988 107.1 13.9988 106.9V106.8C13.9988 106.7 14.0988 106.5 14.0988 106.4C14.0988 106.4 14.0988 106.4 14.0988 106.3C14.1988 106.1 14.1988 106 14.2988 105.8V105.7C14.3988 105.6 14.3988 105.4 14.4988 105.3V105.2C14.5988 105 14.5988 104.9 14.6988 104.7C14.6988 104.7 14.6988 104.6 14.7988 104.6C14.8988 104.5 14.8988 104.4 14.9988 104.2L15.0988 104.1C15.1988 103.9 15.2988 103.8 15.3988 103.6C15.4988 103.5 15.5988 103.3 15.6988 103.2L15.7988 103.1C15.8988 103 15.9988 102.9 15.9988 102.8C16.0988 102.7 16.0988 102.7 16.1988 102.6C16.2988 102.5 16.3988 102.4 16.3988 102.3C16.4988 102.2 16.4988 102.2 16.5988 102.1C16.6988 102 16.7988 101.9 16.8988 101.8C16.9988 101.7 16.9988 101.7 17.0988 101.6C17.1988 101.5 17.2988 101.4 17.3988 101.3L17.4988 101.2C17.5988 101.1 17.7988 100.9 17.8988 100.8L17.9988 100.7C18.0988 100.6 18.1988 100.6 18.2988 100.5C18.3988 100.5 18.3988 100.4 18.4988 100.4C18.5988 100.3 18.6988 100.3 18.7988 100.2C18.8988 100.2 18.8988 100.1 18.9988 100.1C19.0988 100 19.1988 100 19.2988 99.9C19.3988 99.9 19.3988 99.8 19.4988 99.8C19.5988 99.7 19.6988 99.6 19.7988 99.6L19.8988 99.5C20.0988 99.4 20.1988 99.3 20.3988 99.2C20.3988 99.2 20.4988 99.2 20.4988 99.1C20.5988 99 20.7988 98.9 20.8988 98.9C21.0988 98.8 21.2988 98.7 21.4988 98.6H21.5988C21.7988 98.5 21.9988 98.4 22.0988 98.3C22.1988 98.3 22.1988 98.2 22.2988 98.2C22.3988 98.1 22.5988 98.1 22.6988 98C22.7988 98 22.8988 97.9 22.8988 97.9C22.9988 97.8 23.1988 97.8 23.2988 97.7C23.3988 97.7 23.3988 97.6 23.4988 97.6C23.6988 97.5 23.8988 97.4 24.0988 97.4C24.0988 97.4 24.1988 97.4 24.1988 97.3C24.3988 97.2 24.6988 97.1 24.8988 97C24.9988 97 24.9988 96.9 25.0988 96.9C25.2988 96.8 25.3988 96.8 25.5988 96.7C25.6988 96.7 25.7988 96.6 25.8988 96.6C26.0988 96.5 26.1988 96.5 26.3988 96.4C26.4988 96.4 26.5988 96.3 26.5988 96.3C26.8988 96.2 27.1988 96.1 27.5988 96C27.6988 96 27.6988 96 27.7988 95.9C28.0988 95.8 28.4988 95.7 28.7988 95.6C29.1988 95.5 29.4988 95.4 29.8988 95.3C29.9988 95.3 29.9988 95.3 30.0988 95.3C30.4988 95.2 30.7988 95.2 31.1988 95.1C31.2988 95.1 31.3988 95.1 31.4988 95C31.5988 95 31.7988 95 31.8988 94.9C31.9988 94.9 32.0988 94.9 32.2988 94.8C32.3988 94.8 32.5988 94.8 32.6988 94.7C32.7988 94.7 32.8988 94.7 33.0988 94.6C33.1988 94.6 33.3988 94.6 33.4988 94.5C33.5988 94.5 33.6988 94.5 33.8988 94.5C33.9988 94.5 34.1988 94.5 34.2988 94.5C34.3988 94.5 34.4988 94.5 34.5988 94.5C34.9988 94.5 35.3988 94.4 35.7988 94.4C35.8988 94.4 35.8988 94.4 35.9988 94.4C36.3988 94.4 36.7988 94.4 37.1988 94.3C37.3988 94.3 37.4988 94.3 37.6988 94.3C37.7988 94.3 37.8988 94.3 37.9988 94.3C38.2988 94.3 38.4988 94.3 38.7988 94.3C39.1988 94.3 39.5988 94.3 39.9988 94.3C40.1988 94.3 40.3988 94.3 40.5988 94.3C40.7988 94.3 41.0988 94.3 41.2988 94.3C41.4988 94.3 41.6988 94.3 41.8988 94.3C42.0988 94.3 42.2988 94.3 42.5988 94.3C42.7988 94.3 42.9988 94.3 43.1988 94.4C43.3988 94.4 43.5988 94.4 43.7988 94.5C43.9988 94.5 44.1988 94.5 44.3988 94.6C44.5988 94.6 44.7988 94.7 44.9988 94.7C45.1988 94.7 45.4988 94.8 45.6988 94.8C45.8988 94.8 46.0988 94.9 46.1988 94.9C46.3988 94.9 46.6988 95 46.8988 95C47.0988 95 47.1988 95.1 47.3988 95.1C47.7988 95.2 48.1988 95.3 48.5988 95.4H48.6988C49.0988 95.5 49.4988 95.6 49.7988 95.7C50.0988 95.8 50.3988 95.9 50.6988 96C50.7988 96 50.7988 96 50.8988 96.1C51.1988 96.2 51.3988 96.3 51.6988 96.4C51.7988 96.4 51.8988 96.5 51.9988 96.5C52.2988 96.6 52.4988 96.7 52.7988 96.8C52.7988 96.8 52.8988 96.8 52.8988 96.9C53.0988 97 53.2988 97.1 53.4988 97.1C53.5988 97.2 53.7988 97.2 53.8988 97.3C54.0988 97.4 54.2988 97.5 54.4988 97.6C54.5988 97.7 54.7988 97.7 54.8988 97.8C55.0988 97.9 55.2988 98 55.4988 98.1C55.5988 98.2 55.6988 98.2 55.7988 98.3C56.0988 98.5 56.3988 98.6 56.6988 98.8C56.7988 98.9 56.9988 99 57.0988 99L57.1988 99.1C57.2988 99.2 57.3988 99.2 57.4988 99.3C57.5988 99.3 57.5988 99.4 57.6988 99.4C57.7988 99.5 57.8988 99.5 57.8988 99.6C57.9988 99.6 57.9988 99.7 58.0988 99.7C58.1988 99.7 58.1988 99.8 58.2988 99.8C58.3988 99.8 58.3988 99.9 58.4988 99.9C58.5988 99.9 58.5988 100 58.6988 100C58.7988 100 58.7988 100.1 58.8988 100.1C58.9988 100.1 58.9988 100.2 59.0988 100.2C59.1988 100.2 59.1988 100.3 59.2988 100.3C59.3988 100.4 59.3988 100.4 59.4988 100.5C59.5988 100.5 59.5988 100.6 59.6988 100.6C59.7988 100.7 59.7988 100.7 59.8988 100.8C59.9988 100.8 59.9988 100.9 59.9988 100.9C60.0988 101 60.0988 101 60.1988 101.1L60.2988 101.2C60.3988 101.3 60.3988 101.3 60.4988 101.4L60.5988 101.5C60.6988 101.6 60.6988 101.6 60.7988 101.7L60.8988 101.8C60.9988 101.9 60.9988 101.9 61.0988 102L61.1988 102.1C61.2988 102.2 61.2988 102.2 61.3988 102.3L61.4988 102.4C61.5988 102.5 61.5988 102.5 61.6988 102.6L61.7988 102.7C61.8988 102.8 61.9988 102.9 61.9988 103C62.0988 103.1 62.1988 103.2 62.1988 103.3C62.1988 103.3 62.1988 103.4 62.2988 103.4C62.3988 103.5 62.3988 103.5 62.4988 103.6L62.5988 103.7C62.5988 103.8 62.6988 103.8 62.6988 103.9L62.7988 104C62.7988 104.1 62.8988 104.1 62.8988 104.2L62.9988 104.3C62.9988 104.4 63.0988 104.4 63.0988 104.5L63.1988 104.6C63.1988 104.7 63.2988 104.7 63.2988 104.8C63.2988 104.9 63.3988 104.9 63.3988 105C63.3988 105.1 63.4988 105.1 63.4988 105.2C63.4988 105.3 63.4988 105.3 63.5988 105.4C63.5988 105.5 63.6988 105.5 63.6988 105.6C63.6988 105.7 63.6988 105.7 63.7988 105.8C63.7988 105.9 63.7988 105.9 63.8988 106C63.8988 106.1 63.8988 106.1 63.9988 106.2C63.9988 106.3 63.9988 106.3 64.0988 106.4C64.0988 106.5 64.0988 106.5 64.1988 106.6C64.1988 106.7 64.1988 106.7 64.2988 106.8C64.2988 106.9 64.2988 106.9 64.2988 107C64.2988 107.1 64.2988 107.1 64.3988 107.2C64.3988 107.2 64.3988 107.3 64.3988 107.4C64.3988 107.5 64.3988 107.5 64.3988 107.6V107.7C64.3988 107.8 64.3988 107.9 64.3988 107.9V108C64.3988 108.1 64.3988 108.2 64.3988 108.3C64.3988 108.4 64.3988 108.5 64.3988 108.5V108.6C64.3988 108.7 64.3988 108.8 64.3988 109C64.3988 108.7 64.3988 108.4 64.3988 108V107.6C64.3988 107.2 64.3988 106.8 64.3988 106.4V105.8C64.3988 105.6 64.3988 105.5 64.3988 105.3V104.7C64.3988 104.3 64.3988 103.8 64.3988 103.4V102.9C64.3988 102.7 64.3988 102.5 64.3988 102.3V101.1C64.3988 101 64.3988 100.8 64.3988 100.7V99.7C64.3988 99.6 64.3988 99.4 64.3988 99.3C64.3988 99.3 64.3988 99.3 64.3988 99.2C64.3988 99.1 64.3988 99 64.3988 98.9C64.3988 98.8 64.3988 98.7 64.3988 98.6V98.5C64.3988 98.4 64.3988 98.3 64.3988 98.3V98.2C64.3988 98.1 64.3988 98.1 64.3988 98V97.9C64.3988 97.8 64.3988 97.8 64.2988 97.7C64.2988 97.6 64.2988 97.6 64.2988 97.5C64.2988 97.4 64.2988 97.4 64.1988 97.3C64.1988 97.2 64.1988 97.2 64.1988 97.1C64.1988 97 64.1988 97 64.0988 96.9C64.0988 96.8 64.0988 96.8 63.9988 96.7C63.9988 96.6 63.9988 96.6 63.8988 96.5C63.8988 96.4 63.8988 96.4 63.7988 96.3C63.7988 96.2 63.6988 96.2 63.6988 96.1C63.6988 96 63.6988 96 63.5988 95.9C63.5988 95.8 63.4988 95.8 63.4988 95.7C63.4988 95.6 63.4988 95.6 63.3988 95.5C63.3988 95.4 63.2988 95.4 63.2988 95.3L63.1988 95.2C63.1988 95.1 63.0988 95.1 63.0988 95L62.9988 94.9C62.9988 94.8 62.8988 94.8 62.8988 94.7L62.7988 94.6C62.7988 94.5 62.6988 94.5 62.6988 94.4L62.5988 94.3C62.5988 94.2 62.4988 94.2 62.3988 94.1C62.3988 94.1 62.3988 94 62.2988 94C62.1988 93.9 62.0988 93.8 62.0988 93.7C61.9988 93.6 61.8988 93.5 61.8988 93.4L61.7988 93.3C61.6988 93.2 61.6988 93.2 61.5988 93.1L61.4988 93C61.3988 92.9 61.3988 92.9 61.2988 92.8L61.1988 92.7C61.0988 92.6 61.0988 92.6 60.9988 92.5L60.8988 92.4C60.7988 92.3 60.7988 92.3 60.6988 92.2L60.5988 92.1C60.4988 92 60.4988 92 60.3988 91.9L60.2988 91.8C60.1988 91.7 60.1988 91.7 60.0988 91.6C60.0988 91.6 59.9988 91.5 59.8988 91.5C59.7988 91.4 59.7988 91.4 59.6988 91.3C59.5988 91.3 59.5988 91.2 59.4988 91.2C59.3988 91.1 59.3988 91.1 59.2988 91C59.1988 91 59.1988 90.9 59.0988 90.9C58.9988 90.9 58.9988 90.8 58.8988 90.8C58.7988 90.8 58.7988 90.7 58.6988 90.7C58.5988 90.7 58.5988 90.6 58.4988 90.6C58.3988 90.6 58.3988 90.5 58.2988 90.5C58.1988 90.5 58.1988 90.4 58.0988 90.4C57.9988 90.4 57.9988 90.3 57.8988 90.3C57.7988 90.2 57.6988 90.2 57.6988 90.1C57.5988 90.1 57.5988 90 57.4988 90C57.3988 89.9 57.2988 89.9 57.1988 89.8L57.0988 89.7C56.9988 89.6 56.7988 89.5 56.6988 89.5C56.3988 89.3 56.0988 89.2 55.7988 89C55.6988 88.9 55.5988 88.9 55.4988 88.8C55.2988 88.7 55.0988 88.6 54.8988 88.5C54.7988 88.4 54.5988 88.4 54.4988 88.3C54.2988 88.2 54.0988 88.1 53.8988 88C53.7988 87.9 53.5988 87.9 53.4988 87.8C53.2988 87.7 53.1988 87.7 52.9988 87.6C52.9988 87.6 52.8988 87.6 52.8988 87.5C52.5988 87.4 52.3988 87.3 52.0988 87.2C51.9988 87.2 51.8988 87.1 51.7988 87.1C51.4988 87 51.2988 86.9 50.9988 86.8C50.8988 86.8 50.8988 86.8 50.7988 86.7C50.4988 86.6 50.1988 86.5 49.9988 86.4H49.8988C49.4988 86.3 49.1988 86.2 48.7988 86.1H48.6988C48.2988 86 47.8988 85.9 47.4988 85.8H47.3988C47.2988 85.8 47.0988 85.7 46.9988 85.7C46.7988 85.7 46.5988 85.6 46.2988 85.6C46.0988 85.6 45.8988 85.5 45.7988 85.5C45.5988 85.5 45.3988 85.4 45.0988 85.4H44.9988C44.7988 85.4 44.6988 85.4 44.4988 85.3C44.2988 85.3 44.0988 85.2 43.8988 85.2C43.6988 85.2 43.4988 85.2 43.2988 85.1C43.0988 85.1 42.8988 85.1 42.6988 85H42.5988C42.3988 85 42.1988 85 42.0988 85C41.8988 85 41.6988 85 41.4988 85C41.2988 85 40.9988 85 40.7988 85C40.5988 85 40.3988 85 40.1988 85H40.0988C39.6988 85 39.3988 85 38.9988 85C38.6988 85 38.4988 85 38.1988 85C38.0988 85 37.9988 85 37.8988 85C37.6988 85 37.5988 85 37.3988 85C36.9988 85 36.5988 85 36.1988 85.1C36.0988 85.1 36.0988 85.1 35.9988 85.1C35.5988 85.1 35.1988 85.2 34.7988 85.2H34.6988C34.5988 85.2 34.5988 85.2 34.4988 85.2C34.3988 85.2 34.1988 85.2 34.0988 85.2C33.9988 85.2 33.8988 85.2 33.6988 85.2C33.5988 85.2 33.3988 85.2 33.2988 85.3C33.1988 85.3 33.0988 85.3 32.8988 85.4C32.7988 85.4 32.5988 85.4 32.4988 85.5C32.3988 85.5 32.2988 85.5 32.0988 85.6C31.9988 85.6 31.7988 85.6 31.6988 85.7C31.5988 85.7 31.5988 85.7 31.4988 85.7H31.3988C30.9988 85.8 30.6988 85.8 30.2988 85.9C30.1988 85.9 30.1988 85.9 30.0988 85.9C29.6988 86 29.3988 86.1 28.9988 86.2C28.5988 86.3 28.2988 86.4 27.9988 86.5C27.8988 86.5 27.8988 86.5 27.7988 86.6C27.4988 86.7 27.0988 86.8 26.7988 86.9H26.6988C26.5988 86.9 26.5988 86.9 26.4988 87C26.2988 87.1 26.1988 87.1 25.9988 87.2C25.8988 87.2 25.7988 87.3 25.6988 87.3C25.4988 87.4 25.3988 87.4 25.1988 87.5C25.0988 87.5 25.0988 87.6 24.9988 87.6C24.7988 87.7 24.4988 87.8 24.2988 87.9C24.2988 87.9 24.1988 87.9 24.1988 88C23.9988 88.1 23.7988 88.2 23.5988 88.2C23.4988 88.2 23.3988 88.3 23.3988 88.3C23.2988 88.4 23.0988 88.4 22.9988 88.5C22.8988 88.5 22.7988 88.6 22.7988 88.6C22.6988 88.7 22.4988 88.7 22.3988 88.8C22.2988 88.8 22.2988 88.9 22.1988 88.9C21.9988 89 21.7988 89.1 21.6988 89.2H21.5988C21.3988 89.3 21.1988 89.4 20.9988 89.5C20.8988 89.6 20.7988 89.6 20.6988 89.7C20.6988 89.7 20.5988 89.7 20.5988 89.8C20.3988 89.9 20.2988 90 20.0988 90.1L19.9988 90.2C19.8988 90.3 19.7988 90.4 19.6988 90.4C19.5988 90.4 19.5988 90.5 19.4988 90.5C19.0988 90.9 18.9988 90.9 18.9988 91C18.8988 91 18.8988 91.1 18.7988 91.1C18.6988 91.2 18.5988 91.2 18.4988 91.3C18.3988 91.3 18.3988 91.4 18.2988 91.4C18.1988 91.5 18.0988 91.5 17.9988 91.6L17.8988 91.7C17.7988 91.8 17.5988 91.9 17.4988 92.1C17.3988 92.1 17.3988 92.2 17.3988 92.2C17.2988 92.3 17.1988 92.4 17.0988 92.5C16.9988 92.6 16.9988 92.6 16.8988 92.7C16.7988 92.8 16.6988 92.9 16.5988 93C16.4988 93.1 16.4988 93.1 16.3988 93.2C16.2988 93.3 16.1988 93.4 16.1988 93.5C16.0988 93.6 16.0988 93.6 15.9988 93.7L15.8988 93.8C15.8988 93.9 15.7988 93.9 15.7988 94L15.6988 94.1C15.5988 94.2 15.4988 94.4 15.3988 94.5C15.2988 94.6 15.1988 94.8 15.0988 95L14.9988 95.1C14.9988 95.2 14.8988 95.2 14.8988 95.3C14.8988 95.4 14.7988 95.4 14.7988 95.5C14.7988 95.5 14.7988 95.6 14.6988 95.6C14.5988 95.8 14.4988 95.9 14.4988 96.1V96.2C14.3988 96.3 14.3988 96.5 14.2988 96.6V96.7V96.8C14.2988 96.9 14.1988 97.1 14.1988 97.2C14.1988 97.2 14.1988 97.2 14.1988 97.3C14.1988 97.4 14.0988 97.6 14.0988 97.7V97.8C14.0988 97.9 13.9988 98.1 13.9988 98.2V98.3C13.9988 98.4 13.9988 98.6 13.8988 98.7V98.8C13.8988 99 13.8988 99.1 13.8988 99.3V99.4C13.8988 99.5 13.8988 99.5 13.8988 99.6C13.8988 99.7 13.8988 99.8 13.8988 99.9V109.1C13.8988 108.9 13.8988 108.8 13.8988 108.6C13.7988 108.5 13.7988 108.5 13.7988 108.5Z" fill="#98A2F4"/>
<path d="M70.2996 100.2C70.2996 100.3 70.2996 100.5 70.2996 100.6C70.2996 100.6 70.2996 100.6 70.2996 100.7C70.2996 100.8 70.2996 100.9 70.2996 101.1C70.2996 101.2 70.2996 101.2 70.2996 101.3C70.2996 101.4 70.2996 101.5 70.2996 101.6C70.2996 101.7 70.2996 101.7 70.2996 101.8C70.2996 101.9 70.2996 102 70.2996 102.1C70.2996 102.2 70.2996 102.2 70.2996 102.3C70.2996 102.4 70.2996 102.5 70.1996 102.5C70.1996 102.6 70.1996 102.6 70.1996 102.7C70.1996 102.8 70.1996 102.9 70.0996 102.9C70.0996 103 70.0996 103 70.0996 103.1C70.0996 103.2 69.9996 103.3 69.9996 103.3C69.9996 103.4 69.9996 103.4 69.8996 103.5C69.8996 103.6 69.7996 103.7 69.7996 103.8C69.7996 103.9 69.7996 103.9 69.6996 104C69.5996 104.1 69.5996 104.3 69.4996 104.4C69.3996 104.5 69.3996 104.7 69.2996 104.8C69.2996 104.8 69.2996 104.9 69.1996 104.9C69.1996 105 69.0996 105.1 69.0996 105.2C69.0996 105.3 68.9996 105.3 68.9996 105.4C68.9996 105.5 68.8996 105.6 68.8996 105.7C68.8996 105.8 68.7996 105.8 68.7996 105.9C68.6996 106 68.6996 106.1 68.5996 106.2C68.5996 106.2 68.5996 106.3 68.4996 106.3C68.3996 106.4 68.2996 106.6 68.1996 106.7C68.1996 106.7 68.1996 106.7 68.1996 106.8C68.0996 106.9 67.9996 107 67.8996 107.2L67.7996 107.3C67.6996 107.4 67.6996 107.5 67.5996 107.6L67.4996 107.7C67.3996 107.9 67.1996 108 67.0996 108.2C67.0996 108.2 67.0996 108.3 66.9996 108.3C66.8996 108.4 66.7996 108.6 66.5996 108.7L66.4996 108.8C66.3996 109 66.1996 109.1 66.0996 109.3L65.9996 109.4C65.8996 109.5 65.6996 109.7 65.5996 109.8L65.4996 109.9C65.2996 110 65.1996 110.2 64.9996 110.3L64.8996 110.4C64.6996 110.5 64.5996 110.7 64.3996 110.8C64.3996 110.8 64.3996 110.8 64.2996 110.8C64.0996 110.9 63.8996 111.1 63.7996 111.2L63.6996 111.3C63.4996 111.4 63.2996 111.6 63.0996 111.7C62.8996 111.9 62.6996 112 62.3996 112.1C62.2996 112.1 62.2996 112.2 62.1996 112.2C61.9996 112.3 61.7996 112.5 61.4996 112.6L61.3996 112.7C61.2996 112.8 61.0996 112.9 60.9996 113C60.8996 113 60.8996 113.1 60.7996 113.1C60.6996 113.2 60.4996 113.2 60.3996 113.3C60.2996 113.3 60.2996 113.4 60.1996 113.4C60.0996 113.5 59.8996 113.5 59.7996 113.6C59.6996 113.6 59.6996 113.7 59.5996 113.7C59.3996 113.8 59.1996 113.9 58.9996 114C58.5996 114.2 58.2996 114.3 57.8996 114.5C57.7996 114.6 57.6996 114.6 57.4996 114.7C57.1996 114.8 56.9996 114.9 56.6996 115C56.4996 115.1 56.3996 115.1 56.1996 115.2C55.9996 115.3 55.6996 115.4 55.4996 115.5C55.2996 115.6 55.1996 115.6 54.9996 115.7C54.7996 115.8 54.4996 115.9 54.2996 115.9C54.0996 116 53.9996 116 53.7996 116.1C53.4996 116.2 53.1996 116.3 52.9996 116.4C52.7996 116.4 52.6996 116.5 52.4996 116.5C52.1996 116.6 51.8996 116.7 51.5996 116.7C51.3996 116.7 51.2996 116.8 51.0996 116.8C50.6996 116.9 50.2996 117 49.8996 117.1C49.7996 117.1 49.7996 117.1 49.6996 117.1C49.1996 117.2 48.7996 117.3 48.2996 117.4C47.8996 117.5 47.4996 117.5 47.1996 117.6C47.0996 117.6 46.9996 117.6 46.9996 117.6C46.6996 117.6 46.3996 117.7 45.9996 117.7C45.8996 117.7 45.6996 117.7 45.5996 117.7C45.2996 117.7 44.9996 117.8 44.6996 117.8C44.5996 117.8 44.4996 117.8 44.3996 117.8C43.9996 117.8 43.5996 117.9 43.1996 117.9C43.0996 117.9 42.9996 117.9 42.8996 117.9C42.4996 117.9 42.0996 118 41.6996 118H41.5996C41.1996 118 40.7996 118 40.3996 118.1C40.2996 118.1 40.1996 118.1 40.0996 118.1C39.6996 118.1 39.2996 118.1 38.7996 118.1C38.2996 118.1 37.7996 118.1 37.2996 118.1C37.0996 118.1 36.7996 118.1 36.5996 118.1C36.2996 118.1 35.9996 118.1 35.6996 118.1C35.4996 118.1 35.1996 118.1 34.9996 118.1C34.6996 118.1 34.3996 118.1 34.1996 118C33.9996 118 33.6996 118 33.4996 117.9C33.1996 117.9 32.9996 117.8 32.6996 117.8C32.4996 117.8 32.1996 117.7 31.9996 117.7C31.6996 117.7 31.4996 117.6 31.1996 117.6C30.8996 117.6 30.5996 117.5 30.2996 117.5C30.0996 117.5 29.7996 117.4 29.5996 117.4C29.2996 117.3 28.9996 117.3 28.6996 117.2C28.4996 117.2 28.1996 117.1 27.9996 117.1C27.8996 117.1 27.8996 117.1 27.7996 117.1C27.3996 117 26.9996 116.9 26.4996 116.8C26.4996 116.8 26.4996 116.8 26.3996 116.8C25.9996 116.7 25.5996 116.6 25.1996 116.5C25.0996 116.5 25.0996 116.5 24.9996 116.4C24.5996 116.3 24.1996 116.2 23.7996 116C23.6996 116 23.6996 116 23.5996 115.9C23.2996 115.8 22.8996 115.7 22.5996 115.6C22.4996 115.6 22.3996 115.5 22.2996 115.5C21.9996 115.4 21.6996 115.3 21.2996 115.1C21.1996 115.1 21.1996 115.1 21.0996 115C20.8996 114.9 20.5996 114.8 20.3996 114.7C20.1996 114.6 19.9996 114.6 19.8996 114.5C19.6996 114.4 19.3996 114.3 19.1996 114.2C18.9996 114.1 18.8996 114.1 18.6996 114C18.3996 113.9 18.1996 113.8 17.8996 113.6C17.7996 113.5 17.5996 113.5 17.4996 113.4C17.0996 113.2 16.7996 113 16.3996 112.8C10.6996 109.5 7.19961 105 7.09961 100V109.2C7.09961 114.2 10.6996 118.8 16.3996 122C16.7996 122.2 17.0996 122.4 17.4996 122.6C17.5996 122.7 17.7996 122.7 17.8996 122.8C18.0996 122.9 18.3996 123.1 18.6996 123.2C18.8996 123.3 18.9996 123.3 19.1996 123.4C19.3996 123.5 19.6996 123.6 19.8996 123.7C20.0996 123.8 20.1996 123.8 20.3996 123.9C20.5996 124 20.7996 124.1 20.9996 124.2C20.9996 124.2 20.9996 124.2 21.0996 124.2C21.1996 124.2 21.1996 124.2 21.2996 124.3C21.5996 124.4 21.8996 124.5 22.2996 124.7C22.3996 124.7 22.4996 124.8 22.5996 124.8C22.8996 124.9 23.2996 125 23.5996 125.1C23.6996 125.1 23.6996 125.1 23.7996 125.2C24.0996 125.3 24.4996 125.4 24.7996 125.5C24.8996 125.5 24.8996 125.5 24.9996 125.5C25.0996 125.5 25.0996 125.5 25.1996 125.6C25.5996 125.7 25.9996 125.8 26.4996 125.9C26.4996 125.9 26.4996 125.9 26.5996 125.9C26.9996 126 27.3996 126.1 27.8996 126.2C27.9996 126.2 27.9996 126.2 28.0996 126.2H28.1996C28.3996 126.2 28.5996 126.3 28.6996 126.3C28.9996 126.4 29.2996 126.4 29.5996 126.5C29.7996 126.5 30.0996 126.6 30.2996 126.6C30.5996 126.6 30.8996 126.7 31.1996 126.7C31.2996 126.7 31.2996 126.7 31.3996 126.7C31.5996 126.7 31.7996 126.7 31.9996 126.8C32.1996 126.8 32.4996 126.9 32.6996 126.9C32.9996 126.9 33.1996 127 33.4996 127C33.6996 127 33.9996 127 34.1996 127.1C34.2996 127.1 34.2996 127.1 34.3996 127.1C34.5996 127.1 34.8996 127.1 35.0996 127.1C35.2996 127.1 35.5996 127.1 35.7996 127.1C36.0996 127.1 36.3996 127.1 36.6996 127.1C36.8996 127.1 37.1996 127.1 37.3996 127.1H37.4996C37.9996 127.1 38.3996 127.1 38.8996 127.1C39.2996 127.1 39.6996 127.1 40.1996 127.1C40.2996 127.1 40.3996 127.1 40.4996 127.1C40.5996 127.1 40.6996 127.1 40.7996 127.1C41.0996 127.1 41.3996 127.1 41.6996 127.1H41.7996C42.1996 127.1 42.5996 127.1 42.9996 127C43.0996 127 43.1996 127 43.2996 127C43.5996 127 43.9996 126.9 44.2996 126.9H44.3996C44.4996 126.9 44.5996 126.9 44.6996 126.9C44.9996 126.9 45.2996 126.8 45.5996 126.8C45.6996 126.8 45.8996 126.8 45.9996 126.8C46.2996 126.8 46.5996 126.7 46.9996 126.7C47.0996 126.7 47.1996 126.7 47.1996 126.7C47.5996 126.6 47.8996 126.6 48.2996 126.5H48.3996C48.8996 126.4 49.2996 126.3 49.7996 126.2C49.8996 126.2 49.8996 126.2 49.9996 126.2C50.3996 126.1 50.7996 126 51.1996 125.9C51.3996 125.9 51.4996 125.8 51.6996 125.8C51.9996 125.7 52.2996 125.6 52.5996 125.6C52.7996 125.6 52.8996 125.5 53.0996 125.5C53.3996 125.4 53.6996 125.3 53.8996 125.2C53.9996 125.2 54.0996 125.1 54.1996 125.1C54.2996 125.1 54.2996 125 54.3996 125C54.5996 124.9 54.8996 124.8 55.0996 124.8C55.2996 124.7 55.3996 124.7 55.5996 124.6C55.7996 124.5 56.0996 124.4 56.2996 124.3C56.4996 124.2 56.5996 124.2 56.7996 124.1C57.0996 124 57.2996 123.9 57.5996 123.8C57.6996 123.7 57.7996 123.7 57.9996 123.6C58.3996 123.4 58.6996 123.3 59.0996 123.1C59.2996 123 59.4996 122.9 59.6996 122.8C59.7996 122.8 59.7996 122.7 59.8996 122.7C59.9996 122.6 60.1996 122.6 60.2996 122.5C60.3996 122.5 60.3996 122.4 60.4996 122.4C60.5996 122.3 60.7996 122.3 60.8996 122.2C60.9996 122.2 60.9996 122.1 61.0996 122.1C61.1996 122 61.3996 121.9 61.4996 121.8C61.4996 121.8 61.5996 121.8 61.5996 121.7C61.7996 121.6 62.0996 121.4 62.2996 121.3C62.3996 121.3 62.3996 121.2 62.4996 121.2C62.6996 121.1 62.8996 120.9 63.1996 120.8C63.3996 120.7 63.5996 120.5 63.7996 120.4L63.8996 120.3C63.9996 120.2 64.0996 120.2 64.1996 120.1V126.1L68.2996 123.7V115.7C68.3996 115.6 68.3996 115.5 68.4996 115.4C68.4996 115.4 68.4996 115.3 68.5996 115.3C68.6996 115.2 68.6996 115.1 68.7996 115C68.7996 115 68.7996 115 68.7996 114.9V114.8C68.7996 114.7 68.8996 114.6 68.8996 114.5C68.8996 114.4 68.9996 114.4 68.9996 114.3C68.9996 114.2 69.0996 114.1 69.0996 114C69.0996 114 69.0996 113.9 69.1996 113.9C69.2996 113.8 69.2996 113.6 69.3996 113.5C69.4996 113.4 69.4996 113.2 69.5996 113.1V113C69.5996 112.9 69.6996 112.8 69.6996 112.7C69.6996 112.6 69.6996 112.6 69.7996 112.5C69.7996 112.4 69.8996 112.3 69.8996 112.3C69.8996 112.2 69.8996 112.2 69.8996 112.1C69.8996 112 69.8996 111.9 69.9996 111.9C69.9996 111.8 69.9996 111.8 69.9996 111.7C69.9996 111.6 69.9996 111.5 70.0996 111.5V111.4C70.0996 111.4 70.0996 111.4 70.0996 111.3C70.0996 111.2 70.0996 111.1 70.0996 111C70.0996 110.9 70.0996 110.9 70.0996 110.8C70.0996 110.7 70.0996 110.6 70.0996 110.5C70.0996 110.4 70.0996 110.4 70.0996 110.3C70.0996 110.2 70.0996 110.1 70.0996 109.9C70.0996 109.9 70.0996 109.9 70.0996 109.8C70.0996 109.7 70.0996 109.5 70.0996 109.4C70.0996 109.3 70.0996 109.1 70.0996 109V99.8C70.2996 99.9 70.2996 100 70.2996 100.2Z" fill="#98A2F4"/>
<path d="M64.1 116.7V125.9L59 123V113.8L64.1 116.7Z" fill="#98A2F4"/>
<path d="M7.50053 99.9C7.50053 104.9 11.1005 109.5 16.8005 112.7C22.5005 116 30.4005 118 39.0005 118C46.6005 118 53.6005 116.4 59.0005 113.8C60.5005 113.1 61.9005 112.3 63.1005 111.4C67.6005 108.2 70.2005 104.2 70.2005 99.8C70.2005 94.8 66.6005 90.2 60.9005 87C55.2005 83.7 47.3005 81.7 38.6005 81.7C21.4005 81.7 7.40053 89.9 7.50053 99.9ZM13.8005 99.9C13.7005 91.9 24.9005 85.3 38.8005 85.3C45.7005 85.3 52.0005 86.9 56.6005 89.5C61.2005 92.1 64.0005 95.7 64.0005 99.8C64.1005 107.8 52.9005 114.4 39.0005 114.4C32.1005 114.4 25.8005 112.8 21.2005 110.2C16.7005 107.6 13.8005 103.9 13.8005 99.9Z" fill="white"/>
<path d="M69.6005 103.7C70.1005 102.4 70.3005 101.1 70.3005 99.7C70.3005 94.7 66.7005 90.1 61.0005 86.9C55.3005 83.6 47.4005 81.6 38.7005 81.6C21.3005 81.6 7.40054 89.8 7.50054 99.9C7.50054 101.2 7.80054 102.5 8.20054 103.7M64.0005 99.8C64.1005 107.8 52.9005 114.4 39.0005 114.4C32.1005 114.4 25.8005 112.8 21.2005 110.2C16.6005 107.6 13.8005 104 13.8005 99.9" stroke="#171A21" stroke-width="2" stroke-miterlimit="10" stroke-linecap="round" stroke-linejoin="round"/>
<path d="M68.2 114.3L64.1 116.7L59 113.8C60.5 113.1 61.9 112.3 63.1 111.4L68.2 114.3Z" fill="white"/>
<path d="M99.8 130.6C99.8 130.7 99.8 130.7 99.8 130.8V130.9V131V131.1V131.2V131.3V131.4V131.5V131.6V131.7V131.8C99.8 131.8 99.8 131.9 99.7 131.9V132L99.6 132.1C99.6 132.1 99.6 132.2 99.5 132.2L99.4 132.3C99.4 132.3 99.4 132.4 99.3 132.4C99.3 132.5 99.2 132.5 99.1 132.6C99 132.7 99 132.7 98.9 132.8C98.9 132.8 98.8 132.8 98.8 132.9L98.7 133C98.7 133 98.6 133 98.6 133.1L98.5 133.2C98.5 133.2 98.4 133.2 98.4 133.3L98.3 133.4C98.3 133.4 98.2 133.4 98.2 133.5L98.1 133.6C98.1 133.6 98 133.6 98 133.7C97.9 133.8 97.8 133.8 97.7 133.9C97.7 133.9 97.7 133.9 97.6 133.9C97.5 134 97.4 134 97.3 134.1C97.3 134.1 97.3 134.1 97.2 134.1C97.1 134.2 96.9 134.2 96.8 134.3H96.7C96.6 134.3 96.4 134.4 96.3 134.4C96.1 134.5 95.9 134.5 95.6 134.6C95.4 134.7 95.1 134.7 94.9 134.8C94.9 134.8 94.9 134.8 94.8 134.8C94.7 134.8 94.6 134.8 94.5 134.9H94.4C94.3 134.9 94.2 134.9 94.1 134.9H94C93.8 134.9 93.5 134.9 93.3 134.9C93.3 134.9 93.3 134.9 93.2 134.9C93.1 134.9 92.9 134.9 92.8 134.9C92.6 134.9 92.4 134.9 92.2 134.9C92.1 134.9 92 134.9 91.8 134.9C91.7 134.9 91.5 134.9 91.4 134.9C91.3 134.9 91.2 134.9 91.1 134.9C91 134.9 90.9 134.9 90.7 134.8C90.6 134.8 90.4 134.8 90.3 134.7C90.1 134.7 89.9 134.6 89.7 134.6C89.5 134.6 89.3 134.5 89.2 134.4C89.1 134.4 89.1 134.4 89 134.3C88.8 134.2 88.6 134.2 88.4 134.1C88.3 134 88.1 134 88 133.9C87.9 133.9 87.9 133.8 87.8 133.8C87.6 133.7 87.4 133.6 87.2 133.5L63.6 118.8C63.2 118.6 63 118.3 63 117.9V127.1C63 127.4 63.2 127.7 63.6 128L87.2 142.7C87.4 142.8 87.6 142.9 87.8 143C87.9 143 87.9 143.1 88 143.1C88.1 143.2 88.3 143.2 88.4 143.3C88.6 143.4 88.8 143.4 89 143.5C89.1 143.5 89.1 143.5 89.2 143.6C89.3 143.6 89.3 143.6 89.4 143.7C89.5 143.7 89.6 143.8 89.7 143.8C89.8 143.8 90 143.9 90.1 143.9H90.2C90.3 143.9 90.4 143.9 90.6 144C90.7 144 90.7 144 90.8 144H90.9C91 144 91.1 144 91.2 144C91.3 144 91.4 144 91.4 144C91.5 144 91.5 144 91.6 144C91.7 144 91.8 144 92 144C92.1 144 92.2 144 92.2 144C92.3 144 92.4 144 92.5 144C92.6 144 92.8 144 92.9 144C93.1 144 93.4 144 93.6 144H93.7C93.8 144 93.9 144 94 144H94.1C94.2 144 94.3 144 94.4 143.9C94.4 143.9 94.4 143.9 94.5 143.9C94.7 143.9 95 143.8 95.2 143.7C95.4 143.6 95.6 143.6 95.9 143.5C96 143.5 96.2 143.4 96.3 143.4H96.4C96.5 143.3 96.7 143.3 96.8 143.2C96.8 143.2 96.8 143.2 96.9 143.2C97 143.1 97.1 143.1 97.2 143C97.2 143 97.2 143 97.3 143C97.4 142.9 97.5 142.9 97.6 142.8C97.6 142.8 97.6 142.8 97.7 142.8L97.8 142.7C97.8 142.7 97.9 142.7 97.9 142.6L98 142.5C98 142.5 98.1 142.5 98.1 142.4L98.2 142.3C98.2 142.3 98.3 142.3 98.3 142.2L98.4 142.1C98.4 142.1 98.4 142.1 98.5 142C98.6 141.9 98.6 141.9 98.7 141.8C98.8 141.7 98.8 141.7 98.9 141.6L99 141.5C99 141.5 99 141.4 99.1 141.4L99.2 141.3C99.2 141.3 99.2 141.3 99.2 141.2C99.2 141.2 99.2 141.1 99.3 141.1V141V140.9V140.8V140.7V140.6V140.5V140.4V140.3V140.2V140.1C99.3 140.1 99.3 140.1 99.3 140V139.9L99.8 130.6Z" fill="#98A2F4"/>
<path d="M97.7988 127.7C99.0988 128.4 99.7988 129.5 99.7988 130.6C99.7988 132.9 96.4988 134.9 92.4988 134.9C90.3988 134.9 88.4988 134.4 86.9988 133.6L63.3988 118.9C62.5988 118.4 62.5988 117.7 63.3988 117.2L68.7988 114C69.5988 113.5 70.8988 113.5 71.6988 114L97.2988 127.6C97.5988 127.6 97.6988 127.7 97.7988 127.7Z" fill="#EAECFD"/>
<path d="M63.5 117.1L68.9 113.9C69.7 113.4 71 113.4 71.8 113.9L97.4 127.5C97.5 127.6 97.6 127.6 97.7 127.7C99 128.4 99.7 129.5 99.7 130.6" stroke="#171A21" stroke-width="2" stroke-miterlimit="10" stroke-linecap="round" stroke-linejoin="round"/>
<path d="M115.901 55.2H116.001C116.101 55.2 116.101 55.2 116.201 55.1C116.301 55.1 116.401 55 116.401 55C116.401 55 116.501 55 116.501 54.9C116.601 54.8 116.701 54.8 116.801 54.7L123.301 50.3C123.201 50.4 123.101 50.4 123.001 50.5C123.001 50.5 122.901 50.5 122.901 50.6C122.801 50.6 122.801 50.7 122.701 50.7C122.601 50.7 122.601 50.7 122.501 50.8H122.401C122.301 50.8 122.201 50.8 122.201 50.9H122.101C122.001 50.9 121.801 51 121.701 51H121.601C121.501 51 121.401 51 121.301 51C121.201 51 121.201 51 121.101 51C121.001 51 121.001 51 120.901 51C120.801 51 120.801 51 120.701 51C120.601 51 120.601 51 120.501 51C120.401 51 120.401 51 120.301 51C120.201 51 120.201 51 120.101 51C120.001 51 120.001 51 119.901 51H119.801C119.701 51 119.601 51 119.601 50.9C119.601 50.9 119.501 50.9 119.401 50.9C119.301 50.9 119.201 50.8 119.101 50.8C119.101 50.8 119.001 50.8 119.001 50.7C118.901 50.6 118.701 50.5 118.601 50.5C118.501 50.4 118.301 50.4 118.201 50.3C118.201 50.3 118.101 50.3 118.101 50.2C118.001 50.1 117.901 50.1 117.801 50L117.701 49.9C117.601 49.8 117.501 49.7 117.301 49.7C117.201 49.6 117.001 49.5 116.901 49.4C116.801 49.3 116.601 49.2 116.501 49.1L116.401 49C116.301 48.9 116.201 48.9 116.101 48.8C116.001 48.8 116.001 48.7 115.901 48.7C115.801 48.6 115.701 48.6 115.701 48.5C115.601 48.4 115.601 48.4 115.501 48.3C115.401 48.2 115.301 48.2 115.301 48.1C115.201 48 115.201 48 115.101 47.9C115.001 47.8 115.001 47.7 114.901 47.7C114.801 47.6 114.801 47.6 114.701 47.5C114.601 47.4 114.601 47.3 114.501 47.3C114.401 47.2 114.401 47.2 114.301 47.1C114.201 47 114.201 46.9 114.101 46.8C114.101 46.7 114.001 46.7 114.001 46.6C113.901 46.5 113.801 46.4 113.701 46.3L113.601 46.2C113.501 46 113.401 45.9 113.201 45.7C113.201 45.7 113.201 45.7 113.201 45.6C113.101 45.5 113.001 45.3 112.901 45.2C112.801 45 112.701 44.8 112.501 44.7C112.301 44.4 112.201 44.2 112.001 43.9L111.901 43.8C111.701 43.5 111.501 43.1 111.301 42.8C111.301 42.8 111.301 42.7 111.201 42.7C111.101 42.5 111.001 42.2 110.801 41.9C110.801 41.8 110.701 41.7 110.701 41.6C110.701 41.5 110.601 41.4 110.601 41.3C110.501 41.2 110.501 41 110.401 40.9C110.401 40.9 110.401 40.8 110.301 40.8C110.201 40.6 110.201 40.4 110.101 40.3C110.101 40.3 110.101 40.2 110.001 40.2C109.901 40.1 109.901 39.9 109.901 39.8C109.901 39.7 109.901 39.7 109.801 39.6C109.801 39.5 109.701 39.3 109.701 39.2C109.701 39.1 109.701 39.1 109.601 39C109.501 38.8 109.501 38.7 109.401 38.5C109.301 38.3 109.301 38.1 109.201 37.9C109.201 37.8 109.201 37.8 109.201 37.7C109.201 37.6 109.101 37.4 109.101 37.3C109.101 37.2 109.101 37.2 109.101 37.1C109.101 37 109.001 36.9 109.001 36.7C109.001 36.6 109.001 36.6 109.001 36.5C109.001 36.4 109.001 36.3 108.901 36.1C108.901 36 108.901 36 108.901 35.9C108.901 35.7 108.801 35.6 108.801 35.4V35.3C108.801 35.1 108.801 34.9 108.701 34.7C108.701 34.6 108.701 34.6 108.701 34.5C108.701 34.4 108.701 34.2 108.701 34.1C108.701 34 108.701 34 108.701 33.9C108.701 33.8 108.701 33.7 108.701 33.5C108.701 33.4 108.701 33.4 108.701 33.3C108.701 33.1 108.701 32.9 108.701 32.8C108.701 32.6 108.701 32.4 108.701 32.3C108.701 32.2 108.701 32.2 108.701 32.2C108.701 32.1 108.701 32 108.701 31.8C108.701 31.7 108.701 31.7 108.701 31.6C108.701 31.5 108.701 31.4 108.701 31.3C108.701 31.2 108.701 31.2 108.701 31.1C108.701 31 108.701 30.9 108.701 30.8C108.701 30.7 108.701 30.6 108.701 30.6C108.701 30.5 108.701 30.4 108.701 30.4C108.701 30.3 108.701 30.2 108.801 30.1C108.801 30 108.801 30 108.901 29.9C108.901 29.8 109.001 29.7 109.001 29.6C109.001 29.5 109.001 29.5 109.101 29.4C109.201 29.2 109.201 29.1 109.301 28.9C109.301 28.9 109.301 28.9 109.301 28.8C109.401 28.6 109.501 28.4 109.601 28.2C109.701 28 109.801 27.9 109.901 27.8C109.901 27.8 109.901 27.7 110.001 27.7C110.101 27.6 110.201 27.4 110.301 27.3C110.401 27.2 110.501 27.1 110.601 27L110.701 26.9C110.801 26.8 110.901 26.7 111.101 26.6L104.601 31C104.501 31.1 104.301 31.2 104.201 31.3L104.101 31.4C104.001 31.5 103.901 31.6 103.801 31.7C103.701 31.8 103.601 31.9 103.501 32.1C103.501 32.1 103.501 32.2 103.401 32.2C103.301 32.3 103.201 32.5 103.101 32.6C103.001 32.8 102.901 33 102.801 33.2C102.701 33.4 102.701 33.5 102.601 33.7V33.8C102.601 33.9 102.501 34 102.501 34.1V34.2V34.3C102.501 34.4 102.501 34.5 102.401 34.6V34.7V34.8C102.401 34.9 102.401 35 102.401 35V35.1V35.2C102.401 35.3 102.401 35.3 102.401 35.4V35.5C102.401 35.6 102.401 35.6 102.401 35.7C102.401 35.8 102.401 35.8 102.401 35.9V36C102.401 36.1 102.401 36.2 102.401 36.3V36.4H102.301C102.301 36.6 102.201 36.7 102.201 36.9C102.201 37 102.301 37.2 102.301 37.3L102.401 37.4C102.401 37.5 102.401 37.5 102.401 37.6C102.401 37.7 102.401 37.7 102.401 37.8C102.401 37.9 102.401 37.9 102.401 38C102.401 38.1 102.401 38.1 102.401 38.2V38.3C102.401 38.4 102.401 38.5 102.401 38.6C102.401 38.7 102.401 38.7 102.401 38.8C102.401 38.8 102.401 38.8 102.401 38.9C102.401 39.1 102.401 39.2 102.501 39.4C102.501 39.4 102.501 39.4 102.501 39.5C102.501 39.6 102.501 39.8 102.601 39.9C102.601 39.9 102.601 39.9 102.601 40C102.601 40.1 102.601 40.1 102.601 40.2C102.601 40.3 102.601 40.4 102.601 40.4V40.5C102.601 40.6 102.601 40.6 102.601 40.7C102.601 40.8 102.601 40.8 102.601 40.9C102.601 41 102.601 41 102.601 41.1C102.601 41.2 102.601 41.2 102.601 41.3V41.4C102.601 41.5 102.601 41.6 102.701 41.7C102.701 41.8 102.701 41.8 102.701 41.9C102.701 41.9 102.701 41.9 102.701 42C102.701 42.2 102.801 42.3 102.801 42.5C102.801 42.7 102.901 42.8 102.901 43C102.901 43 102.901 43 102.901 43.1C102.901 43.2 102.901 43.2 103.001 43.3C103.001 43.4 103.101 43.5 103.101 43.5C103.101 43.6 103.101 43.6 103.201 43.7C103.201 43.8 103.201 43.8 103.301 43.9V44C103.301 44.1 103.401 44.2 103.401 44.3C103.401 44.3 103.401 44.4 103.501 44.4C103.501 44.4 103.501 44.4 103.501 44.5C103.601 44.7 103.601 44.8 103.701 45C103.701 45 103.701 45.1 103.801 45.1C103.901 45.2 103.901 45.3 104.001 45.5C104.001 45.5 104.001 45.5 104.001 45.6C104.001 45.7 104.101 45.8 104.101 45.9C104.101 46 104.201 46.1 104.201 46.1C104.301 46.4 104.401 46.6 104.601 46.9C104.601 46.9 104.601 46.9 104.601 47C104.601 47 104.601 47 104.601 47.1C104.801 47.5 105.001 47.8 105.201 48.1C105.201 48.1 105.201 48.1 105.201 48.2C105.201 48.2 105.201 48.3 105.301 48.3C105.501 48.6 105.601 48.8 105.801 49.1C105.901 49.3 106.001 49.5 106.201 49.6C106.301 49.7 106.401 49.9 106.501 50C106.501 50 106.501 50 106.501 50.1C106.601 50.3 106.701 50.4 106.801 50.5L106.901 50.6C107.001 50.7 107.001 50.8 107.101 50.9C107.101 51 107.201 51 107.201 51.1C107.301 51.2 107.301 51.2 107.401 51.3C107.401 51.3 107.401 51.3 107.501 51.4C107.601 51.5 107.601 51.5 107.701 51.6C107.701 51.7 107.801 51.7 107.801 51.8L107.901 51.9C108.001 52 108.001 52 108.101 52.1L108.201 52.2L108.301 52.3C108.401 52.4 108.401 52.4 108.501 52.5L108.601 52.6L108.701 52.7C108.801 52.8 108.801 52.8 108.901 52.9L109.001 53L109.101 53.1C109.201 53.1 109.201 53.2 109.301 53.2C109.301 53.2 109.301 53.2 109.401 53.3C109.501 53.4 109.501 53.4 109.601 53.5L109.701 53.6C109.801 53.7 109.901 53.8 110.101 53.9C110.201 54 110.301 54.1 110.401 54.1C110.401 54.1 110.501 54.1 110.501 54.2C110.601 54.3 110.701 54.3 110.801 54.4C110.801 54.4 110.901 54.4 110.901 54.5L111.001 54.6C111.001 54.6 111.101 54.6 111.101 54.7C111.201 54.7 111.201 54.8 111.301 54.8C111.301 54.8 111.401 54.8 111.401 54.9C111.401 54.9 111.401 54.9 111.501 54.9C111.601 55 111.701 55 111.801 55.1C111.901 55.2 112.001 55.2 112.101 55.2H112.201C112.301 55.2 112.301 55.2 112.401 55.3H112.501C112.601 55.3 112.601 55.3 112.701 55.3H112.801H112.901C113.001 55.3 113.001 55.3 113.101 55.3H113.201H113.301C113.401 55.3 113.401 55.3 113.501 55.3C113.501 55.3 113.501 55.3 113.601 55.3H113.701C113.801 55.3 113.801 55.3 113.901 55.3C113.901 55.3 113.901 55.3 114.001 55.3H114.101C114.201 55.3 114.201 55.3 114.301 55.3C114.301 55.3 114.301 55.3 114.401 55.3H114.501C114.601 55.3 114.701 55.3 114.801 55.3H114.901C114.901 55.3 114.901 55.3 115.001 55.3C115.101 55.3 115.301 55.3 115.401 55.2H115.501C115.701 55.2 115.801 55.2 115.901 55.2Z" fill="#EAECFD"/>
<path d="M111.301 26.4C111.201 26.5 111.001 26.6 110.901 26.7L110.801 26.7999C110.701 26.8999 110.601 27 110.501 27.1C110.401 27.2 110.301 27.3 110.201 27.5C110.201 27.5 110.201 27.6 110.101 27.6C110.001 27.7 109.901 27.9 109.801 28C109.701 28.2 109.601 28.4 109.501 28.6C109.501 28.6 109.501 28.6 109.501 28.7C109.401 28.9 109.401 29 109.301 29.2C109.301 29.3 109.301 29.3 109.201 29.4C109.201 29.4999 109.101 29.6 109.101 29.7C109.101 29.8 109.101 29.8 109.001 29.9C109.001 29.9999 109.001 30.1 108.901 30.2C108.901 30.3 108.901 30.4 108.901 30.4C108.901 30.4999 108.901 30.6 108.901 30.6C108.901 30.7 108.901 30.8 108.901 30.9C108.901 30.9999 108.901 31 108.901 31.1C108.901 31.2 108.901 31.3 108.901 31.4C108.901 31.4999 108.901 31.5 108.901 31.6C108.901 31.7 108.901 31.8 108.901 32V32.0999C108.901 32.2999 108.901 32.4999 108.901 32.5999C108.901 32.7999 108.901 32.9999 108.901 33.0999C108.901 33.1999 108.901 33.1999 108.901 33.2999C108.901 33.4 108.901 33.5 108.901 33.7C108.901 33.8 108.901 33.8 108.901 33.9C108.901 34 108.901 34.1999 108.901 34.2999C108.901 34.4 108.901 34.4 108.901 34.5C108.901 34.7 108.901 34.8999 109.001 35.0999V35.2C109.001 35.4 109.001 35.5 109.101 35.7C109.101 35.8 109.101 35.8 109.101 35.9C109.101 36 109.101 36.0999 109.201 36.2999C109.201 36.4 109.201 36.4 109.201 36.5C109.201 36.6 109.301 36.7 109.301 36.9C109.301 37 109.301 36.9999 109.301 37.0999C109.301 37.1999 109.401 37.4 109.401 37.5C109.401 37.6 109.401 37.6 109.401 37.7C109.401 37.9 109.501 38.0999 109.601 38.2999C109.701 38.4999 109.701 38.5999 109.801 38.7999C109.801 38.9 109.801 38.9 109.901 39C109.901 39.1 110.001 39.3 110.001 39.4C110.001 39.5 110.001 39.4999 110.101 39.5999C110.101 39.6999 110.201 39.9 110.201 40C110.201 40 110.201 40.0999 110.301 40.0999C110.401 40.2999 110.401 40.4999 110.501 40.5999C110.501 40.5999 110.501 40.7 110.601 40.7C110.701 40.8 110.701 40.9999 110.801 41.0999C110.801 41.1999 110.901 41.3 110.901 41.4C110.901 41.5 111.001 41.6 111.001 41.7C111.101 42 111.201 42.2 111.401 42.5C111.401 42.5 111.401 42.5999 111.501 42.5999C111.701 42.9999 111.901 43.2999 112.101 43.5999L112.201 43.7C112.401 44 112.501 44.2 112.701 44.5C112.801 44.7 112.901 44.9 113.101 45C113.201 45.1 113.301 45.3 113.401 45.4C113.401 45.4 113.401 45.4 113.401 45.5C113.501 45.7 113.601 45.7999 113.801 46L113.901 46.0999C114.001 46.1999 114.101 46.3 114.201 46.4C114.201 46.5 114.301 46.4999 114.301 46.5999C114.401 46.6999 114.401 46.8 114.501 46.9C114.601 47 114.601 46.9999 114.701 47.0999C114.801 47.1999 114.801 47.2999 114.901 47.2999C115.001 47.4 115.001 47.4 115.101 47.5C115.201 47.6 115.201 47.7 115.301 47.7C115.401 47.8 115.401 47.8 115.501 47.9C115.601 48 115.601 47.9999 115.701 48.0999C115.801 48.1999 115.801 48.1999 115.901 48.2999C116.001 48.4 116.101 48.4 116.101 48.5C116.201 48.5 116.201 48.5999 116.301 48.5999C116.401 48.6999 116.501 48.6999 116.601 48.7999L116.701 48.9C116.801 49 117.001 49.1 117.101 49.2C117.201 49.3 117.401 49.4 117.501 49.5C117.601 49.6 117.701 49.7 117.901 49.7L118.001 49.7999C118.101 49.9 118.201 49.9 118.301 50C118.301 50 118.401 49.9999 118.401 50.0999C118.501 50.1999 118.701 50.1999 118.801 50.2999C118.901 50.2999 119.101 50.4 119.201 50.5C119.201 50.5 119.301 50.4999 119.301 50.5999C119.401 50.5999 119.501 50.7 119.601 50.7C119.701 50.7 119.701 50.7 119.801 50.7C119.901 50.7 120.001 50.6999 120.001 50.7999C120.101 50.7999 120.101 50.7999 120.101 50.7999C120.201 50.7999 120.201 50.7999 120.301 50.7999C120.401 50.7999 120.401 50.7999 120.501 50.7999C120.601 50.7999 120.601 50.7999 120.701 50.7999C120.801 50.7999 120.801 50.7999 120.901 50.7999C121.001 50.7999 121.001 51 121.101 51C121.201 51 121.201 51.2 121.301 51.2L121.401 51C121.501 51 121.601 50.9 121.701 50.9L121.801 50.7999C121.901 50.7999 122.101 50.7 122.201 50.7H122.301C122.401 50.7 122.501 50.6999 122.501 50.5999H122.601C122.701 50.5999 122.701 50.6 122.801 50.5C122.901 50.5 123.001 50.4 123.001 50.4C123.001 50.4 123.101 50.4 123.101 50.2999C123.201 50.1999 123.301 50.1999 123.401 50.0999L116.901 54.5C116.801 54.6 116.701 54.6 116.601 54.7C116.601 54.7 116.501 54.6999 116.501 54.7999C116.401 54.7999 116.401 54.9 116.301 54.9C116.301 54.9 116.201 54.9 116.101 55H116.001C115.901 55 115.801 54.9999 115.801 55.0999H115.701C115.601 55.0999 115.401 55.2 115.301 55.2C115.301 55.2 115.301 55.2 115.201 55.2H115.101C115.001 55.2 114.901 55.2 114.801 55.2H114.701C114.701 55.2 114.701 55.2 114.601 55.2C114.501 55.2 114.501 55.2 114.401 55.2H114.301C114.301 55.2 114.301 55.2 114.201 55.2C114.101 55.2 114.101 55.2 114.001 55.2H113.901C113.901 55.2 113.901 55.2 113.801 55.2C113.701 55.2 113.701 55.2 113.601 55.2H113.501H113.401C113.401 55.2 113.301 55.2 113.201 55.2H113.101H113.001C113.001 55.2 112.901 55.2 112.801 55.2H112.701C112.601 55.2 112.601 55.1999 112.501 55.0999H112.401C112.301 55.0999 112.201 55 112.101 55C112.001 54.9 111.901 54.9 111.801 54.7999C111.801 54.7999 111.801 54.7999 111.701 54.7999C111.701 54.7999 111.601 54.8 111.601 54.7C111.501 54.7 111.501 54.5999 111.401 54.5999C111.401 54.5999 111.301 54.6 111.301 54.5L111.201 54.4C111.201 54.4 111.101 54.4 111.101 54.2999C111.001 54.1999 110.901 54.1999 110.801 54.0999C110.801 54.0999 110.701 54.1 110.701 54C110.601 53.9 110.501 53.7999 110.401 53.7999C110.301 53.6999 110.201 53.6 110.001 53.5L109.901 53.4C109.801 53.3 109.801 53.3 109.701 53.2C109.701 53.2 109.701 53.1999 109.601 53.0999C109.501 53.0999 109.501 53 109.401 53L109.301 52.9L109.201 52.7999C109.101 52.6999 109.101 52.6999 109.001 52.5999L108.901 52.5L108.801 52.4C108.701 52.3 108.701 52.3 108.601 52.2L108.501 52.0999L108.401 52C108.301 51.9 108.301 51.9 108.201 51.7999L108.101 51.7C108.101 51.6 108.001 51.6 108.001 51.5C107.901 51.4 107.901 51.4 107.801 51.2999C107.801 51.2999 107.801 51.3 107.701 51.2C107.601 51.1 107.601 51.1 107.501 51C107.501 50.9 107.401 50.9 107.401 50.7999C107.301 50.6999 107.301 50.6 107.201 50.5L107.101 50.4C107.001 50.3 106.901 50.1 106.801 50C106.801 50 106.801 50 106.801 49.9C106.701 49.8 106.601 49.6 106.501 49.5C106.401 49.2999 106.301 49.1 106.101 49C105.901 48.7 105.801 48.5 105.601 48.2C105.601 48.2 105.601 48.0999 105.501 48.0999C105.501 48.0999 105.501 48.1 105.501 48C105.301 47.7 105.101 47.2999 104.901 47C104.901 47 104.901 47 104.901 46.9C104.901 46.9 104.901 46.9 104.901 46.7999C104.801 46.5999 104.701 46.2999 104.501 46C104.501 45.9 104.401 45.7999 104.401 45.7999C104.401 45.6999 104.301 45.6 104.301 45.5C104.301 45.5 104.301 45.5 104.301 45.4C104.201 45.3 104.201 45.2 104.101 45C104.101 45 104.101 44.9 104.001 44.9C103.901 44.7 103.901 44.6 103.801 44.4C103.801 44.4 103.801 44.4 103.801 44.2999C103.801 44.2999 103.801 44.2 103.701 44.2C103.701 44.1 103.601 44 103.601 43.9V43.7999C103.601 43.6999 103.601 43.6999 103.501 43.5999C103.501 43.4999 103.501 43.5 103.401 43.4C103.401 43.3 103.301 43.2 103.301 43.2C103.301 43.1 103.301 43.1 103.201 43C103.201 43 103.201 43 103.201 42.9C103.201 42.7 103.101 42.6 103.101 42.4C103.101 42.2 103.001 42.1 103.001 41.9C103.001 41.9 103.001 41.9 103.001 41.7999C103.001 41.6999 103.001 41.6999 103.001 41.5999C103.001 41.4999 103.001 41.4 102.901 41.2999V41.2C102.901 41.1 102.901 41.1 102.901 41C102.901 40.9 102.901 40.9 102.901 40.7999C102.901 40.6999 102.901 40.6999 102.901 40.5999C102.901 40.4999 102.901 40.5 102.901 40.4V40.2999C102.901 40.1999 102.901 40.0999 102.901 40.0999C102.901 39.9999 102.901 40 102.901 39.9C102.901 39.9 102.901 39.9 102.901 39.7999C102.901 39.6999 102.901 39.5 102.801 39.4C102.801 39.4 102.801 39.4 102.801 39.2999C102.801 39.0999 102.801 38.9999 102.701 38.7999C102.701 38.7999 102.701 38.8 102.701 38.7C102.701 38.6 102.701 38.6 102.701 38.5C102.701 38.4 102.701 38.3 102.701 38.2V38.0999C102.701 37.9999 102.701 38 102.701 37.9C102.701 37.8 102.701 37.8 102.701 37.7C102.701 37.6 102.701 37.6 102.701 37.5C102.701 37.4 102.701 37.4 102.701 37.2999L102.501 37.2C102.501 37.1 102.401 36.9 102.401 36.7999C102.401 36.5999 102.501 36.4999 102.501 36.2999H102.601C102.601 36.1999 102.601 36.2 102.701 36.2C102.701 36.1 102.701 36 102.701 35.9V35.7999C102.701 35.6999 102.701 35.6999 102.701 35.5999C102.701 35.4999 102.701 35.5 102.701 35.4V35.2999C102.701 35.1999 102.701 35.1999 102.701 35.0999V35V34.9C102.701 34.8 102.701 34.7 102.701 34.7V34.5999V34.5C102.701 34.4 102.701 34.3 102.801 34.2V34.0999V34C102.801 33.9 102.901 33.8 102.901 33.7V33.5999C103.001 33.3999 103.001 33.2999 103.101 33.0999C103.201 32.8999 103.301 32.7 103.401 32.5C103.501 32.3 103.601 32.1999 103.701 32.0999C103.701 32.0999 103.701 32 103.801 32C103.901 31.9 104.001 31.7 104.101 31.6C104.201 31.5 104.301 31.3999 104.401 31.2999L104.501 31.2C104.601 31.1 104.701 30.9999 104.901 30.9L111.301 26.4ZM110.201 24.7L103.701 29.1C103.501 29.2 103.301 29.4 103.101 29.5L103.001 29.6C102.801 29.8 102.601 29.9 102.501 30.1C102.501 30.1 102.501 30.1 102.401 30.2C102.301 30.4 102.101 30.5 102.001 30.7L101.901 30.7999C101.801 30.9999 101.701 31.2 101.501 31.4C101.501 31.4 101.501 31.4 101.501 31.5C101.501 31.5 101.501 31.5 101.501 31.6C101.401 31.8 101.301 32.0999 101.201 32.2999V32.4C101.201 32.4 101.201 32.4 101.201 32.5C101.101 32.7 101.101 32.8999 101.001 33.0999V33.2C101.001 33.3 101.001 33.3 101.001 33.4C101.001 33.5 100.901 33.6999 100.901 33.7999V33.9V34C100.901 34.1 100.801 34.1999 100.801 34.2999V34.4V34.5C100.801 34.6 100.801 34.6999 100.701 34.7999V34.9V35V35.2999V35.4V35.5999V35.7V35.9V36C100.701 36.1 100.701 36.1999 100.701 36.2999V36.4V36.5999C100.701 36.7999 100.701 36.8999 100.701 37.0999C100.701 37.1999 100.701 37.2999 100.701 37.2999C100.701 37.4 100.701 37.4999 100.701 37.5999C100.701 37.5999 100.701 37.6999 100.701 37.7999C100.701 37.9 100.701 38 100.701 38V38.2V38.2999V38.5V38.5999V38.7999V38.9V39V39.0999V39.2C100.701 39.4 100.701 39.6 100.801 39.7V39.7999C100.801 39.9999 100.801 40.0999 100.901 40.2999V40.4V40.5999V40.7V40.7999V41V41.0999L101.001 41.4V41.5V41.5999V41.7999V41.9L101.101 42.0999V42.2L101.201 42.4V42.5V42.5999V42.7V42.7999C101.201 43 101.301 43.1999 101.401 43.2999C101.401 43.5 101.501 43.5999 101.501 43.7999V43.9V44V44.0999V44.2L101.601 44.4V44.5V44.5999L101.701 44.7999L101.801 45L101.901 45.2V45.2999V45.4V45.5C102.001 45.7 102.001 45.7999 102.101 46L102.201 46.0999V46.2C102.201 46.3 102.301 46.4 102.301 46.5V46.5999L102.401 46.9V47V47.0999L102.501 47.2999V47.4C102.601 47.6 102.701 47.9 102.901 48.2V48.2999C102.901 48.2999 102.901 48.4 103.001 48.4C103.201 48.8 103.401 49.1 103.601 49.5V49.5999L103.701 49.7C103.901 50 104.001 50.2999 104.201 50.5999C104.301 50.7999 104.501 51 104.601 51.2C104.701 51.4 104.801 51.5 104.901 51.7C105.001 51.9 105.101 52 105.301 52.2L105.401 52.2999V52.4C105.501 52.5 105.501 52.5999 105.601 52.5999C105.601 52.5999 105.601 52.6 105.601 52.7L105.701 52.7999L105.801 52.9L105.901 53.0999L106.001 53.2L106.201 53.4L106.301 53.5L106.401 53.5999L106.501 53.7L106.701 53.9L106.801 54L106.901 54.0999L107.101 54.2999L107.201 54.4L107.301 54.5L107.501 54.7L107.601 54.7999L107.701 54.9L107.901 55.0999L108.001 55.2C108.101 55.2 108.101 55.2999 108.201 55.2999H108.301L108.401 55.4C108.501 55.5 108.701 55.6 108.801 55.7C108.901 55.8 109.001 55.9 109.201 56L109.301 56.0999C109.401 56.1999 109.501 56.1999 109.601 56.2999L109.701 56.4L109.901 56.5L110.001 56.5999C110.101 56.5999 110.101 56.7 110.201 56.7L110.401 56.7999H110.501C110.601 56.8999 110.801 56.9 110.901 57C111.001 57.0999 111.201 57.1 111.301 57.2H111.401H111.501H111.601C111.701 57.2 111.701 57.2 111.801 57.2999H111.901C112.001 57.2999 112.001 57.3 112.101 57.4C112.201 57.4 112.201 57.4 112.301 57.4C112.401 57.4 112.401 57.4 112.401 57.4C112.501 57.4 112.501 57.4 112.601 57.5H112.701C112.801 57.5 112.801 57.5 112.901 57.5C113.001 57.5 113.101 57.5 113.101 57.5H113.201C113.301 57.5 113.301 57.5 113.401 57.5C113.501 57.5 113.601 57.5 113.601 57.5H113.701C113.801 57.5 113.801 57.5 113.901 57.5C114.001 57.5 114.101 57.5 114.201 57.5H114.301C114.401 57.5 114.401 57.5 114.501 57.5C114.601 57.5 114.701 57.5 114.801 57.5C114.901 57.5 114.901 57.5 115.001 57.5H115.101C115.301 57.5 115.401 57.5 115.601 57.4H115.701H115.801H115.901C116.001 57.4 116.101 57.2999 116.201 57.2999C116.301 57.2999 116.301 57.2999 116.401 57.2C116.501 57.2 116.601 57.0999 116.601 57.0999H116.701C116.801 57.0999 116.901 57 117.001 57C117.101 57 117.101 56.9 117.201 56.9C117.401 56.8 117.501 56.6999 117.701 56.5999L124.201 52.2C124.801 51.8 125.101 51.2 125.101 50.5C125.101 49.4 124.201 48.5 123.101 48.5C122.701 48.5 122.301 48.5999 122.001 48.7999C122.001 48.7999 121.901 48.8 121.901 48.9C121.901 48.9 121.901 48.9 121.801 48.9H121.701H121.601H121.501H121.401C121.301 48.9 121.301 48.9 121.201 48.9H121.101H121.001H120.901H120.801H120.701H120.601H120.401H120.301C120.201 48.9 120.201 48.9 120.101 48.9H120.001C119.901 48.9 119.901 48.9 119.801 48.9H119.701H119.601C119.501 48.8 119.201 48.6999 118.901 48.5999C118.901 48.5999 118.901 48.5999 118.801 48.5999H118.701C118.601 48.4999 118.501 48.5 118.401 48.5L118.301 48.4C118.201 48.3 118.101 48.3 118.001 48.2C117.901 48.1 117.801 48 117.701 48C117.701 48 117.701 48 117.601 48C117.501 47.9 117.401 47.9 117.301 47.7999H117.201H117.101C117.001 47.6999 116.901 47.6999 116.901 47.5999L116.801 47.5C116.701 47.4 116.601 47.4 116.601 47.2999L116.401 47.2C116.301 47.1 116.301 47.1 116.201 47L116.001 46.7999C115.901 46.6999 115.901 46.6999 115.801 46.5999L115.601 46.4C115.501 46.3 115.501 46.3 115.401 46.2L115.301 46C115.201 45.9 115.201 45.7999 115.101 45.7999V45.7L115.001 45.5999C114.901 45.4999 114.801 45.4 114.801 45.2999L114.701 45.2C114.601 45.1 114.501 44.9 114.401 44.7999V44.7C114.301 44.6 114.201 44.5 114.101 44.2999C114.001 44.0999 113.901 44 113.801 43.7999C113.601 43.5999 113.501 43.2999 113.401 43.0999L113.301 43C113.101 42.7 112.901 42.4 112.801 42V41.9V41.7999C112.701 41.5999 112.601 41.2999 112.501 41.0999L112.401 40.9V40.7999V40.7L112.301 40.5C112.201 40.4 112.201 40.1999 112.101 40.0999V40V39.9C112.001 39.7 112.001 39.6 111.901 39.4V39.2999V39.2C111.901 39.1 111.801 38.9 111.801 38.7999L111.701 38.5999C111.701 38.4999 111.601 38.4 111.601 38.2V38.0999V38C111.601 37.8 111.501 37.7 111.501 37.5C111.501 37.3 111.401 37.2 111.401 37V36.9V36.7999C111.401 36.6999 111.301 36.6 111.301 36.4V36.2C111.301 36.1 111.201 35.9999 111.201 35.7999V35.5999C111.201 35.4999 111.201 35.4 111.101 35.2999V35.2V35.0999C111.101 34.9999 111.101 34.8 111.001 34.7V34.5999C111.001 34.3999 111.001 34.2999 110.901 34.0999V34V33.9C110.901 33.8 110.901 33.7 110.901 33.5V33.2999C110.901 33.1999 110.901 33.1 110.901 33V32.9V32.7999C110.901 32.5999 110.901 32.4999 110.901 32.2999C110.901 32.0999 110.901 31.9999 110.901 31.7999V31.7V31.6C110.901 31.5 110.901 31.3999 110.901 31.2999V31.2C110.901 31.1 110.901 30.9999 110.901 30.9V30.7C110.901 30.6 110.901 30.6 110.901 30.5V30.2999V30.1C110.901 30 110.901 29.9999 110.901 29.9V29.7C110.901 29.6 110.901 29.5 111.001 29.5V29.4V29.2999C111.001 29.1999 111.101 29.0999 111.101 28.9C111.201 28.6999 111.201 28.6 111.301 28.5C111.301 28.5 111.301 28.4999 111.301 28.4C111.401 28.3 111.401 28.2 111.501 28.1V28C111.601 27.9 111.601 27.7999 111.701 27.7999C111.801 27.6999 111.801 27.7 111.901 27.6C112.001 27.5 112.001 27.4999 112.101 27.4L111.001 25.7L110.201 24.7Z" fill="#171A21"/>
<path d="M134.101 47.9C134.101 47.8 134.101 47.6999 134.101 47.5999C134.101 47.4999 134.101 47.4 134.101 47.2C134.101 47.1 134.101 47 134.101 47C134.101 46.7999 134.101 46.7 134.001 46.5C134.001 46.4 134.001 46.3 134.001 46.2V46.0999C134.001 45.7999 133.901 45.5 133.901 45.2V45.0999C133.901 44.7999 133.801 44.5999 133.801 44.2999V44.2C133.801 44.1 133.801 44 133.701 43.7999C133.701 43.5999 133.601 43.5 133.601 43.2999C133.601 43.1999 133.601 43.0999 133.501 43.0999C133.501 42.9999 133.401 42.8 133.401 42.7C133.401 42.6 133.401 42.5 133.301 42.4C133.301 42.3 133.201 42.2 133.201 42C133.201 41.9 133.101 41.6999 133.101 41.5999C133.101 41.4999 133.101 41.5 133.101 41.4C133.101 41.2 133.001 41.1 133.001 40.9C133.001 40.8 132.901 40.6999 132.901 40.5999V40.5C132.801 40.2 132.701 39.8999 132.601 39.5999V39.5C132.501 39.2 132.401 38.9 132.301 38.7V38.5999C132.301 38.4999 132.201 38.4 132.201 38.2999C132.101 38.1999 132.101 38 132.001 37.9C132.001 37.8 131.901 37.6999 131.901 37.5999C131.901 37.4999 131.801 37.4 131.801 37.2C131.801 37.1 131.701 37 131.701 36.9C131.601 36.7 131.601 36.6 131.501 36.4C131.501 36.3 131.401 36.1999 131.401 36.0999V36C131.301 35.7 131.201 35.3999 131.001 35.0999C131.001 34.9999 130.901 34.9 130.901 34.9C130.801 34.7 130.701 34.4 130.601 34.2C130.601 34.2 130.601 34.0999 130.501 34.0999C130.401 33.8999 130.301 33.6999 130.201 33.5999C130.101 33.4999 130.101 33.3 130.001 33.2V33.0999C129.801 32.5999 129.501 32.2 129.301 31.7C129.301 31.7 129.301 31.6 129.201 31.6C129.101 31.5 129.101 31.4 129.001 31.2C128.901 31 128.801 30.8 128.701 30.6C128.601 30.4 128.501 30.3 128.401 30.1C128.301 29.9 128.201 29.7 128.101 29.5C128.101 29.4 128.001 29.4 128.001 29.2999C128.001 29.1999 127.901 29.2 127.901 29.1C127.601 28.6 127.301 28.1 126.901 27.6C126.701 27.3 126.401 26.9 126.201 26.6C126.001 26.4 125.801 26.0999 125.701 25.9C125.701 25.7999 125.601 25.8 125.601 25.7C125.401 25.4 125.201 25.0999 124.901 24.9C124.801 24.7999 124.801 24.7 124.701 24.7C124.601 24.5 124.401 24.4 124.301 24.2L124.201 24.1C124.101 24 124.001 23.8999 123.901 23.7999C123.801 23.6999 123.701 23.5999 123.601 23.4L123.501 23.2999C123.401 23.1999 123.301 23.1 123.201 23C123.101 22.9 123.001 22.8 122.901 22.7C122.801 22.6 122.801 22.6 122.701 22.5C122.601 22.4 122.501 22.3 122.301 22.2C122.201 22.1 122.101 22 122.101 22C122.001 21.9 122.001 21.8999 121.901 21.7999C121.801 21.6999 121.701 21.6 121.501 21.5C121.401 21.4 121.401 21.3999 121.301 21.2999C121.201 21.1999 121.101 21.2 121.101 21.1C121.001 21 120.901 20.8999 120.801 20.7999C120.701 20.6999 120.701 20.7 120.601 20.6C120.501 20.5 120.401 20.4 120.301 20.4C120.201 20.3 120.101 20.2 120.001 20.1L119.901 20C119.801 19.9 119.601 19.8 119.501 19.7C119.401 19.6 119.301 19.6 119.201 19.5C119.201 19.5 119.201 19.4999 119.101 19.4C118.901 19.1999 118.601 19.1 118.401 18.9C118.401 18.9 118.401 18.9 118.301 18.9C118.101 18.8 117.901 18.6 117.601 18.5C117.501 18.5 117.501 18.4 117.401 18.4C117.201 18.3 117.001 18.2 116.801 18.1C116.801 18.1 116.801 18.1 116.701 18.1C116.501 18 116.301 17.8999 116.101 17.7999C116.101 17.7999 116.001 17.8 116.001 17.7C115.901 17.7 115.801 17.6 115.701 17.6C115.601 17.6 115.501 17.5 115.401 17.5C115.301 17.5 115.301 17.4 115.201 17.4C115.101 17.4 115.001 17.2999 114.901 17.2999C114.801 17.2999 114.801 17.2 114.701 17.2C114.601 17.2 114.501 17.1 114.401 17.1C114.301 17.1 114.201 17 114.101 17H114.001C113.901 16.9 113.701 16.8999 113.601 16.7999C113.501 16.7999 113.501 16.7 113.401 16.7C113.201 16.6 112.901 16.6 112.701 16.5H112.601C112.401 16.4 112.201 16.4 112.001 16.4C111.901 16.4 111.801 16.3999 111.701 16.2999C111.601 16.2999 111.501 16.3 111.301 16.2C111.201 16.2 111.001 16.2 110.901 16.2C110.801 16.2 110.701 16.2 110.601 16.2C110.601 16.2 109.101 16.1999 108.401 16.2999C108.201 16.2999 108.101 16.3 107.901 16.4H107.801C107.701 16.4 107.601 16.4 107.501 16.5C107.401 16.5 107.301 16.6 107.101 16.6C107.001 16.6 106.901 16.7 106.801 16.7C106.701 16.7 106.701 16.6999 106.601 16.7999H106.501C106.301 16.8999 106.201 16.9 106.001 17C105.901 17 105.901 17.1 105.801 17.1C105.601 17.2 105.401 17.3 105.201 17.5L98.8008 21.5C99.0008 21.4 99.2008 21.3 99.4008 21.1C99.5008 21.1 99.5008 21 99.6008 21C99.8008 20.9 99.9008 20.8999 100.101 20.7999C100.201 20.7999 100.301 20.7 100.401 20.7C100.501 20.7 100.601 20.6 100.701 20.6C100.801 20.6 100.901 20.5 101.101 20.5C101.201 20.5 101.301 20.4999 101.401 20.4C101.601 20.4 101.801 20.2999 102.001 20.2999C102.201 20.2999 102.401 20.2 102.601 20.2H102.701C102.901 20.2 103.101 20.2 103.301 20.2C103.601 20.2 103.801 20.2 104.101 20.2C104.201 20.2 104.301 20.2 104.401 20.2C104.501 20.2 104.701 20.2 104.801 20.2C104.901 20.2 105.101 20.1999 105.201 20.2999C105.301 20.2999 105.401 20.3 105.501 20.4C105.701 20.4 105.901 20.5 106.101 20.5H106.201C106.401 20.6 106.701 20.6 107.001 20.7C107.101 20.7 107.101 20.7999 107.201 20.7999C107.401 20.8999 107.601 20.9 107.701 21C107.801 21 107.901 21.1 108.001 21.1C108.201 21.2 108.301 21.1999 108.501 21.2999C108.601 21.2999 108.701 21.4 108.801 21.4C109.001 21.4999 109.101 21.6 109.301 21.6C109.401 21.6 109.501 21.7 109.601 21.7C109.801 21.8 110.101 22 110.301 22.1C110.501 22.2 110.701 22.3 110.901 22.5C111.201 22.7 111.501 22.9 111.701 23C111.701 23 111.701 23 111.801 23C112.101 23.2 112.301 23.4 112.601 23.6C112.701 23.7 112.801 23.6999 112.901 23.7999C113.101 23.8999 113.301 24.1 113.401 24.2C113.501 24.3 113.601 24.4 113.701 24.5C113.901 24.6 114.001 24.7999 114.201 24.9C114.301 25 114.401 25.1 114.501 25.2C114.701 25.3 114.801 25.5 115.001 25.6C115.101 25.7 115.201 25.7999 115.401 25.9C115.501 26 115.701 26.1999 115.801 26.2999C115.901 26.4 116.001 26.5 116.201 26.6C116.301 26.7 116.501 26.9 116.601 27.1C116.701 27.2 116.801 27.2999 116.901 27.4C117.101 27.5999 117.201 27.7 117.301 27.9C117.401 28 117.501 28.1 117.601 28.2C117.801 28.4 117.901 28.5999 118.101 28.7999C118.201 28.9 118.201 29 118.301 29C118.501 29.3 118.801 29.5999 119.001 29.9L119.101 30C119.301 30.3 119.501 30.4999 119.701 30.7999C119.901 31.0999 120.201 31.4999 120.401 31.7999C120.701 32.2999 121.101 32.7999 121.401 33.2999C121.501 33.4 121.601 33.5 121.601 33.7C121.701 33.9 121.801 34.0999 121.901 34.2999C122.001 34.5 122.101 34.5999 122.201 34.7999C122.301 35 122.401 35.2 122.501 35.4C122.601 35.6 122.701 35.7 122.801 35.9C123.101 36.4 123.301 36.7999 123.501 37.2999C123.601 37.5 123.701 37.5999 123.801 37.7999C123.901 38 124.001 38.1999 124.101 38.2999C124.201 38.5999 124.301 38.7999 124.501 39.0999C124.501 39.1999 124.601 39.2999 124.601 39.2999C124.701 39.5999 124.901 40 125.001 40.2999C125.001 40.4 125.101 40.4999 125.101 40.5999C125.201 40.8999 125.301 41.1 125.401 41.4C125.401 41.5 125.501 41.6 125.501 41.7C125.601 41.9 125.701 42.2 125.801 42.4C125.801 42.5 125.901 42.6 125.901 42.7C126.001 43 126.101 43.3 126.201 43.7V43.7999C126.301 44.1999 126.401 44.5 126.501 44.9C126.501 45 126.601 45.1 126.601 45.2C126.701 45.4 126.701 45.7 126.801 45.9C126.801 46 126.901 46.1999 126.901 46.2999C127.001 46.5 127.001 46.7999 127.101 47C127.101 47.1 127.201 47.3 127.201 47.4C127.201 47.6 127.301 47.8999 127.301 48.0999C127.301 48.1999 127.301 48.2999 127.401 48.5C127.501 48.7999 127.501 49.1 127.601 49.4V49.5C127.701 49.7999 127.701 50.2 127.701 50.5C127.701 50.5999 127.701 50.7 127.701 50.7999C127.701 51 127.801 51.2999 127.801 51.5C127.801 51.5999 127.801 51.7 127.801 51.9C127.801 52.1 127.801 52.3999 127.801 52.5999C127.801 52.6999 127.801 52.8 127.801 52.9C127.801 53.2 127.801 53.6 127.801 53.9C127.801 54.2 127.801 54.5 127.801 54.9C127.801 55 127.801 55.1 127.801 55.2C127.801 55.4 127.801 55.5999 127.801 55.7999C127.801 55.8999 127.801 56.1 127.801 56.2C127.801 56.4 127.801 56.5 127.701 56.7C127.701 56.7999 127.701 57 127.601 57.0999C127.601 57.2999 127.501 57.5 127.501 57.7V57.7999C127.501 57.7999 127.501 57.9 127.501 58C127.501 58.0999 127.501 58.1 127.501 58.2C127.501 58.2 127.501 58.2 127.501 58.2999C127.401 58.5999 127.401 59 127.301 59.2999C127.301 59.3999 127.201 59.5 127.201 59.5999C127.101 59.7999 127.101 60 127.001 60.2C126.901 60.4 126.801 60.7 126.701 60.9C126.701 61 126.701 61 126.601 61C126.501 61.2 126.401 61.5 126.301 61.7C126.201 61.7999 126.201 62 126.101 62.2C126.101 62.2999 126.101 62.3 126.001 62.4C125.901 62.6 125.801 62.7999 125.701 63L125.601 63.0999C125.501 63.2999 125.401 63.3999 125.301 63.5999C125.301 63.6999 125.201 63.7999 125.201 63.7999C125.101 63.8999 125.001 64.0999 125.001 64.1999C125.001 64.2999 124.901 64.3 124.901 64.4C124.801 64.6 124.701 64.7 124.601 64.9C124.601 65 124.501 65 124.501 65.0999C124.401 65.2999 124.301 65.3999 124.201 65.5999L124.101 65.6999C124.001 65.8999 123.801 66.1 123.601 66.3C123.601 66.4 123.501 66.4 123.501 66.5C123.401 66.7 123.201 66.7999 123.101 67C123.001 67.0999 123.001 67.0999 122.901 67.1999C122.801 67.3999 122.601 67.4999 122.501 67.6999C122.401 67.7999 122.401 67.8 122.301 67.9C122.101 68.1 121.901 68.2999 121.701 68.5L121.601 68.5999C121.401 68.7999 121.301 69 121.101 69.0999C121.001 69.1999 121.001 69.2 120.901 69.3C120.701 69.5 120.601 69.6 120.401 69.8C120.301 69.9 120.301 69.9 120.201 70C120.001 70.2 119.701 70.3999 119.401 70.5999L119.301 70.6999C119.101 70.8999 118.801 71.0999 118.601 71.1999C118.501 71.2999 118.401 71.3 118.301 71.4C118.101 71.5 117.901 71.7 117.701 71.8C117.601 71.9 117.501 71.9 117.401 72C117.101 72.2 116.801 72.3999 116.501 72.5999L122.901 68.5999C123.201 68.3999 123.501 68.2 123.801 68C123.901 67.9 124.001 67.9 124.101 67.8C124.301 67.7 124.501 67.5 124.701 67.4C124.801 67.3 124.901 67.2999 125.001 67.1999C125.201 66.9999 125.501 66.7999 125.701 66.6999L125.801 66.5999C126.101 66.3999 126.301 66.2 126.601 66C126.701 65.9 126.701 65.9 126.801 65.8C127.001 65.6 127.101 65.5 127.301 65.3C127.401 65.2 127.401 65.1999 127.501 65.0999C127.701 64.8999 127.901 64.6999 128.001 64.5999L128.101 64.5C128.301 64.2999 128.501 64.1 128.701 63.9C128.801 63.8 128.801 63.7999 128.801 63.7C128.901 63.5 129.101 63.4 129.201 63.2C129.301 63.1 129.301 63.0999 129.401 63C129.501 62.7999 129.701 62.7 129.801 62.5C129.801 62.4 129.901 62.3999 129.901 62.2999C130.101 62.0999 130.201 61.9 130.401 61.7L130.501 61.5999C130.601 61.3999 130.701 61.2999 130.801 61.0999C130.801 61 130.901 61 130.901 60.9C131.001 60.7 131.101 60.6 131.201 60.4C131.201 60.3 131.301 60.2999 131.301 60.2C131.301 60.2 131.301 60.1999 131.301 60.0999C131.401 60 131.401 59.9 131.501 59.7C131.501 59.6 131.601 59.5 131.601 59.5C131.701 59.2999 131.801 59.2 131.901 59L132.001 58.9C132.101 58.7 132.201 58.5 132.301 58.2999C132.301 58.2 132.301 58.1999 132.401 58.0999C132.501 58 132.501 57.7999 132.601 57.7C132.601 57.7 132.601 57.6999 132.601 57.5999C132.701 57.3999 132.801 57.2999 132.801 57.0999C132.801 57 132.901 57 132.901 56.9C132.901 56.9 132.901 56.7999 133.001 56.7999C133.101 56.5999 133.201 56.3999 133.301 56.0999C133.301 56.0999 133.301 56.0999 133.301 56C133.401 55.7999 133.401 55.6 133.501 55.4C133.501 55.3 133.601 55.1999 133.601 55.0999C133.701 54.7999 133.801 54.5 133.801 54.0999C133.801 54 133.801 54 133.801 53.9C133.801 53.8 133.801 53.7999 133.801 53.7V53.5999C133.801 53.5 133.801 53.3999 133.801 53.2999C133.801 53.2 133.801 53.0999 133.801 53C133.801 52.9 133.801 52.6999 133.901 52.5999V52.5C133.901 52.4 133.901 52.1999 133.901 52.0999C133.901 52 133.901 51.9 133.901 51.7V51.5999C134.101 51.2999 134.201 48.7 134.101 47.9Z" fill="#EAECFD" stroke="#171A21" stroke-width="2" stroke-miterlimit="10" stroke-linecap="round" stroke-linejoin="round"/>
<path d="M111.501 19.7999C121.201 25.9999 129.001 40.7999 129.001 52.9999C129.001 54.3999 128.901 55.7999 128.701 56.9999C128.701 56.9999 128.701 57.1999 128.601 57.5999C128.301 58.9999 127.901 60.1999 127.401 61.1999C125.601 65.2999 121.501 71.4999 112.401 75.2999C112.101 75.3999 111.801 75.2999 111.401 75.0999C111.001 74.8999 110.701 74.4999 110.401 73.9999C101.301 58.6999 97.2005 47.3999 95.5005 40.9999C95.0005 39.2999 94.6005 37.5999 94.3005 35.8999C94.2005 35.3999 94.2005 35.0999 94.2005 35.0999C93.9005 32.8999 93.8005 30.6999 94.0005 28.5999C94.9005 18.1999 102.201 14.1999 110.901 19.2999C111.101 19.5999 111.301 19.6999 111.501 19.7999ZM111.401 52.7999C116.101 55.7999 119.901 53.3999 120.001 47.4999C120.001 41.5999 116.201 34.3999 111.501 31.3999C106.801 28.3999 103.001 30.7999 102.901 36.6999C102.901 42.6999 106.701 49.8999 111.401 52.7999Z" fill="#98A2F4"/>
</svg>
