<svg width="144" height="144" viewBox="0 0 144 144" fill="none" xmlns="http://www.w3.org/2000/svg">
<g clip-path="url(#clip0)">
<path d="M30.0791 48.2L66.254 27.2C67.1534 26.7 68.3525 27.3 68.3525 28.4L68.2526 50.1C68.2526 50.6 67.9528 51.1 67.5531 51.3L32.1776 72C31.2783 72.5 30.0791 71.9 30.0791 70.8V48.2Z" fill="#98A2F4"/>
<path d="M16.7882 22.3L52.5634 1.40003C53.2629 1.00003 54.0623 1.20003 54.462 1.90003L67.6529 24.7C68.0526 25.4 67.8527 26.2 67.1532 26.6L30.079 48.2L16.1886 24.2C15.8888 23.5 16.0887 22.7 16.7882 22.3Z" fill="#EAECFD"/>
<path d="M30.0794 48.2L16.1891 24.2C15.7894 23.5 15.9892 22.7 16.6887 22.3L52.5638 1.40003C53.2633 1.00003 54.0628 1.20003 54.4625 1.90003L67.6533 24.7C68.0531 25.4 67.8532 26.2 67.1537 26.6" stroke="#171A21" stroke-width="2" stroke-miterlimit="10" stroke-linecap="round" stroke-linejoin="round"/>
<path d="M16.2894 24.2001L30.1797 48.2001L30.0798 70.8001C30.0798 71.9001 28.8806 72.6001 27.9813 72.0001L1.69951 56.8001C1.29979 56.6001 1 56.1001 1 55.6001L1.09993 32.2001C1.09993 31.7001 1.39972 31.2001 1.79944 31.0001L14.3907 23.7001C14.9903 23.3001 15.8897 23.5001 16.2894 24.2001Z" fill="white"/>
<path d="M18.9865 49.3L9.7929 44.1C9.09339 43.7 8.29395 44.2 8.29395 45V59.1C8.29395 60.2 8.89353 61.2 9.89283 61.8L19.0864 67C19.786 67.4 20.5854 66.9 20.5854 66.1V52C20.5854 50.9 19.9858 49.8 18.9865 49.3Z" fill="#98A2F4"/>
<path d="M30.0798 70.8001C30.0798 71.9001 28.8806 72.6001 27.9813 72.0001L1.69951 56.8001C1.29979 56.6001 1 56.1001 1 55.6001L1.09993 32.2001C1.09993 31.7001 1.39972 31.2001 1.79944 31.0001L14.3907 23.7001C15.0902 23.3001 15.8897 23.5001 16.2894 24.2001L30.1797 48.2001" stroke="#171A21" stroke-width="2" stroke-miterlimit="10" stroke-linecap="round" stroke-linejoin="round"/>
<path d="M67.4531 67.8L103.628 46.8C104.527 46.3 105.727 46.9 105.727 48L105.627 69.6999C105.627 70.1999 105.327 70.7 104.927 70.9L69.5517 91.6C68.6523 92.1 67.4531 91.5 67.4531 90.4V67.8Z" fill="#98A2F4"/>
<path d="M54.1622 41.9L89.9374 21.1C90.6369 20.7 91.4363 20.9 91.8361 21.6L105.027 44.4C105.427 45.1 105.227 45.9 104.527 46.3L67.453 67.8L53.5626 43.8C53.2628 43.2 53.4627 42.3 54.1622 41.9Z" fill="#EAECFD"/>
<path d="M67.8525 33.9L89.9372 21.1C90.6367 20.7 91.4362 20.9 91.8359 21.6L105.027 44.4C105.426 45.1 105.227 45.9 104.527 46.3" stroke="#171A21" stroke-width="2" stroke-miterlimit="10" stroke-linecap="round" stroke-linejoin="round"/>
<path d="M53.6624 43.8L67.5528 67.8L67.4529 90.4C67.4529 91.5 66.2537 92.2 65.3543 91.6L39.0726 76.5C38.6728 76.2 38.373 75.8 38.373 75.3L38.473 51.9C38.473 51.4 38.7728 50.9 39.1725 50.7L51.7637 43.4C52.3633 42.9 53.2627 43.2 53.6624 43.8Z" fill="white"/>
<path d="M56.4602 68.9L47.2665 63.7C46.567 63.3 45.7676 63.8 45.7676 64.6V78.7C45.7676 79.8 46.3672 80.8 47.3665 81.4L56.5601 86.6C57.2596 87 58.059 86.5 58.059 85.7V71.6C57.9591 70.5 57.3595 69.5 56.4602 68.9Z" fill="#98A2F4"/>
<path d="M67.4529 90.4C67.4529 91.5 66.2537 92.2 65.3543 91.6L39.0726 76.5C38.6728 76.2 38.373 75.8 38.373 75.3V67.9" stroke="#171A21" stroke-width="2" stroke-miterlimit="10" stroke-linecap="round" stroke-linejoin="round"/>
<path d="M104.427 88.8L140.602 67.8C141.501 67.3 142.701 67.8999 142.701 68.9999L142.601 90.6999C142.601 91.1999 142.301 91.7 141.901 91.9L106.426 112.5C105.526 113 104.327 112.4 104.327 111.3L104.427 88.8Z" fill="#98A2F4"/>
<path d="M91.1368 62.9L126.912 42.1C127.612 41.7 128.411 41.9 128.811 42.6L142.002 65.4C142.401 66.1 142.201 66.9 141.502 67.3L104.428 88.8L90.5373 64.8C90.2375 64.2 90.4373 63.3 91.1368 62.9Z" fill="#EAECFD"/>
<path d="M104.827 54.9L126.912 42.1C127.611 41.7 128.411 41.9 128.81 42.6L142.001 65.4C142.401 66.1 142.201 66.9 141.502 67.3" stroke="#171A21" stroke-width="2" stroke-miterlimit="10" stroke-linecap="round" stroke-linejoin="round"/>
<path d="M90.637 64.8L104.527 88.8L104.427 111.4C104.427 112.5 103.228 113.2 102.329 112.6L76.0472 97.5C75.6474 97.2 75.3477 96.8 75.3477 96.3L75.4476 72.9C75.4476 72.4 75.7474 71.9 76.1471 71.7L88.7384 64.4C89.3379 63.9 90.2373 64.2 90.637 64.8Z" fill="white"/>
<path d="M93.4348 89.9L84.2411 84.7C83.5416 84.3 82.7422 84.8 82.7422 85.6V99.7C82.7422 100.8 83.3418 101.8 84.3411 102.4L93.5347 107.6C94.2342 108 95.0337 107.5 95.0337 106.7V92.6C94.9337 91.5 94.3341 90.5 93.4348 89.9Z" fill="#98A2F4"/>
<path d="M104.427 111.4C104.427 112.5 103.228 113.2 102.329 112.6L76.0472 97.5C75.6474 97.2 75.3477 96.8 75.3477 96.3V88.9" stroke="#171A21" stroke-width="2" stroke-miterlimit="10" stroke-linecap="round" stroke-linejoin="round"/>
<path d="M2.79848 107.5C2.69855 107.5 2.69855 107.5 2.59862 107.5H2.49869C2.39876 107.5 2.39876 107.5 2.29883 107.6L22.8845 95.6C22.8845 95.6 22.9845 95.6 22.9845 95.5C22.9845 95.5 22.9845 95.5 23.0844 95.5H23.1843H23.2843H23.3842H23.4841L29.8797 95.2C29.9796 95.2 29.9796 95.2 30.0795 95.2C30.1795 95.2 30.1795 95.2 30.2794 95.2H30.3793C30.4793 95.2 30.4793 95.2 30.5792 95.1L9.99348 107.1C9.99348 107.1 9.89355 107.1 9.89355 107.2C9.89355 107.2 9.89355 107.2 9.79362 107.2H9.69369H9.59376C9.59376 107.2 9.59376 107.2 9.49383 107.2H9.3939L2.99834 107.5C2.99834 107.5 2.89841 107.5 2.79848 107.5C2.79848 107.5 2.89841 107.5 2.79848 107.5Z" fill="#98A2F4"/>
<path d="M19.2873 125.1L13.5913 116.1L8.59473 118.9L13.891 128.1" fill="#98A2F4"/>
<path d="M11.1919 119.2C9.79287 118.4 8.5937 118.6 7.89418 119.5C7.59439 120 7.39453 120.6 7.39453 121.4C7.39453 121.5 7.39453 121.6 7.39453 121.7C7.49446 124 9.09335 126.8 11.1919 127.9C13.1905 129.1 14.7894 128.2 14.9893 126C14.9893 125.9 14.9893 125.8 14.9893 125.7C14.9893 124.9 14.7894 124.1 14.4896 123.2C13.7901 121.6 12.5909 120.1 11.1919 119.2Z" fill="#98A2F4"/>
<path d="M44.2694 139.5L38.5734 130.5L33.6768 133.3L38.9731 142.5" fill="#98A2F4"/>
<path d="M36.1743 133.6C34.7753 132.8 33.5761 133 32.8766 133.9C32.5768 134.4 32.377 135 32.377 135.8C32.377 135.9 32.377 136 32.377 136.1C32.4769 138.4 34.0758 141.2 36.1743 142.3C38.1729 143.5 39.7718 142.6 39.9717 140.4C39.9717 140.3 39.9717 140.2 39.9717 140.1C39.9717 139.3 39.7718 138.5 39.472 137.6C38.7725 136 37.5733 134.4 36.1743 133.6Z" fill="#98A2F4"/>
<path d="M14.9895 96.8C14.8896 96.8 14.8896 96.7 14.7897 96.7C14.6897 96.7 14.6897 96.7 14.5898 96.7H14.4899H14.3899C14.3899 96.7 14.3899 96.7 14.29 96.7H14.1901C14.0902 96.7 14.0902 96.7 13.9902 96.7H13.8903C13.7904 96.7 13.7904 96.7 13.6904 96.8L34.2761 84.8C34.2761 84.8 34.3761 84.8 34.3761 84.7C34.3761 84.7 34.3761 84.7 34.476 84.7C34.476 84.7 34.476 84.7 34.5759 84.7H34.6759H34.7758C34.7758 84.7 34.7758 84.7 34.8757 84.7C34.8757 84.7 34.8757 84.7 34.9756 84.7C34.9756 84.7 34.9756 84.7 35.0756 84.7H35.1755H35.2754C35.2754 84.7 35.3754 84.7 35.3754 84.8C35.3754 84.8 35.3754 84.8 35.4753 84.8C35.4753 84.8 35.4753 84.8 35.5752 84.8C35.6752 84.8 35.6752 84.9 35.7751 84.9L64.755 101.7C64.8549 101.7 64.8549 101.8 64.9548 101.8C64.9548 101.8 64.9548 101.8 65.0548 101.9L65.1547 102C65.1547 102 65.2546 102 65.2546 102.1L65.3546 102.2C65.3546 102.2 65.4545 102.2 65.4545 102.3C65.4545 102.3 65.4545 102.3 65.4545 102.4C65.5544 102.5 65.5544 102.5 65.6543 102.6C65.6543 102.6 65.6543 102.6 65.6543 102.7L65.7543 102.8C65.7543 102.8 65.7543 102.8 65.8542 102.9C65.8542 102.9 65.8542 102.9 65.8542 103C65.8542 103 65.8542 103.1 65.9541 103.1C65.9541 103.1 65.9541 103.1 65.9541 103.2C65.9541 103.2 65.9541 103.3 66.0541 103.3C66.0541 103.3 66.0541 103.3 66.0541 103.4C66.0541 103.5 66.154 103.5 66.154 103.6L66.2539 103.7C66.2539 103.7 66.2539 103.7 66.2539 103.8C66.2539 103.8 66.2539 103.8 66.2539 103.9C66.2539 103.9 66.2539 103.9 66.2539 104C66.2539 104.1 66.3539 104.1 66.3539 104.2C66.3539 104.3 66.4538 104.3 66.4538 104.4V104.5V104.6V104.7V104.8C66.4538 104.8 66.4538 104.8 66.4538 104.9V105V105.1V105.2C66.4538 105.3 66.4538 105.3 66.4538 105.4C66.4538 105.4 66.4538 105.4 66.4538 105.5V105.6V105.7C66.4538 105.8 66.4538 105.9 66.4538 106L67.0534 129C67.0534 129.5 66.9534 129.8 66.7536 130.1C66.6537 130.3 66.5537 130.4 66.3539 130.5L45.7682 142.5C46.1679 142.3 46.4677 141.7 46.4677 141L46.5676 117.8C46.5676 117.7 46.5676 117.6 46.5676 117.5V117.4C46.5676 117.3 46.5676 117.3 46.5676 117.2C46.5676 117.1 46.5676 117.1 46.5676 117V116.9V116.8C46.5676 116.7 46.5676 116.7 46.5676 116.6V116.5C46.5676 116.4 46.5676 116.4 46.4677 116.3V116.2C46.4677 116.1 46.3677 116 46.3677 115.9C46.3677 115.8 46.2678 115.8 46.2678 115.7C46.2678 115.7 46.2678 115.7 46.2678 115.6C46.2678 115.5 46.1679 115.5 46.1679 115.4C46.1679 115.3 46.0679 115.2 46.0679 115.2C46.0679 115.2 46.0679 115.2 46.0679 115.1C46.0679 115 45.968 115 45.968 114.9C45.968 114.9 45.968 114.8 45.8681 114.8L45.7682 114.7L45.6682 114.6L45.5683 114.5C45.4684 114.4 45.4684 114.4 45.3684 114.3L45.2685 114.2C45.2685 114.2 45.1686 114.2 45.1686 114.1L45.0686 114C45.0686 114 44.9687 114 44.9687 113.9L44.8688 113.8C44.8688 113.8 44.8688 113.8 44.7688 113.7C44.6689 113.7 44.6689 113.6 44.569 113.6L15.2893 97C15.1894 96.9 15.0895 96.9 14.9895 96.8C14.9895 96.9 15.0895 96.9 14.9895 96.8Z" fill="#98A2F4"/>
<path d="M15.2891 97C14.2898 96.4 13.3904 96.6 13.0907 97.5L12.3911 100.1L10.6923 106.4C10.4925 107 9.9928 107.3 9.39322 107.3L2.99766 107.6C2.09829 107.5 1.59863 108.2 1.59863 109.2V115.1C1.59863 116.6 2.59794 118.3 3.89704 119.1L6.79502 120.8C6.79502 118 8.79364 116.8 11.2919 118.3C13.7902 119.8 15.6888 123.2 15.6888 126L20.4855 128.8L31.8776 135.4C31.8776 134 32.3773 133 33.1767 132.5C33.9761 132 35.1753 132.1 36.2746 132.8C38.7728 134.2 40.6715 137.7 40.6715 140.5L44.1691 142.5C45.4682 143.2 46.4675 142.6 46.4675 141.2L46.5674 118C46.5674 116.5 45.5681 114.8 44.269 114L15.2891 97Z" fill="white"/>
<path d="M40.7715 140.3L44.2691 142.3C45.5682 143 46.5675 142.4 46.5675 141" stroke="#171A21" stroke-width="2" stroke-miterlimit="10" stroke-linecap="round" stroke-linejoin="round"/>
<path d="M15.6885 125.8L20.4851 128.6L31.8772 135.1" stroke="#171A21" stroke-width="2" stroke-miterlimit="10" stroke-linecap="round" stroke-linejoin="round"/>
<path d="M3.09727 107.5C2.1979 107.4 1.69824 108.1 1.69824 109.1V115C1.69824 116.5 2.69755 118.2 3.99665 119L6.89463 120.7" stroke="#171A21" stroke-width="2" stroke-miterlimit="10" stroke-linecap="round" stroke-linejoin="round"/>
<path d="M15.2892 97C14.2899 96.4 13.3905 96.6 13.0907 97.5L12.3912 100.1L10.6924 106.4" stroke="#171A21" stroke-width="2" stroke-miterlimit="10" stroke-linecap="round" stroke-linejoin="round"/>
<path d="M22.3837 105C23.2831 105.5 23.8827 106.7 23.8827 107.7V114.4C23.8827 115.4 23.1832 115.8 22.2838 115.3L14.4892 110.8C14.1894 110.6 13.9895 110.2 14.0895 109.9L15.4885 104.5L16.0881 102.3C16.188 101.9 16.6877 101.7 16.9875 101.9L22.3837 105Z" fill="#EAECFD" stroke="#171A21" stroke-width="2" stroke-miterlimit="10" stroke-linecap="round" stroke-linejoin="round"/>
<path d="M63.8552 114.3V127.8C63.8552 128 63.7552 128.2 63.5554 128.3L49.665 136.3V121.7C49.665 120.6 50.2646 119.6 51.2639 119L61.5568 113.1C62.5561 112.4 63.8552 113.1 63.8552 114.3Z" fill="#EAECFD"/>
<path d="M32.8774 111.9V118.4L27.5811 113C27.9808 112.1 28.5804 111.5 29.3798 111.3H29.4797C32.7774 111.9 32.7774 111.9 32.8774 111.9C32.7774 111.9 32.7774 111.9 32.8774 111.9Z" fill="white"/>
<path d="M53.4629 43.1L67.4532 67.8" stroke="#171A21" stroke-width="2" stroke-miterlimit="10" stroke-linecap="round" stroke-linejoin="round"/>
<path d="M90.4365 64.1L104.427 88.8" stroke="#171A21" stroke-width="2" stroke-miterlimit="10" stroke-linecap="round" stroke-linejoin="round"/>
</g>
<defs>
<clipPath id="clip0">
<rect width="144" height="144" fill="white"/>
</clipPath>
</defs>
</svg>
