<svg width="144" height="144" viewBox="0 0 144 144" fill="none" xmlns="http://www.w3.org/2000/svg">
<path d="M14.0996 92.1V98.3C14.0996 98.6 14.2996 99 14.7996 99.2L89.7996 142.5C89.8996 142.6 89.9996 142.6 90.0996 142.7C90.0996 142.7 90.0996 142.7 90.1996 142.7C90.2996 142.7 90.2996 142.7 90.3996 142.8H90.4996C90.4996 142.8 90.4996 142.8 90.5996 142.8C90.5996 142.8 90.5996 142.8 90.6996 142.8C90.7996 142.8 90.7996 142.8 90.8996 142.8H90.9996C90.9996 142.8 90.9996 142.8 91.0996 142.8H91.1996C91.2996 142.8 91.9996 142.8 91.9996 142.8C92.0996 142.8 92.0996 142.8 92.1996 142.8H92.2996C92.3996 142.8 92.4996 142.8 92.4996 142.7H92.5996H92.6996H92.7996C92.8996 142.7 92.9996 142.6 93.0996 142.6L138 116.5C138.1 116.4 138.2 116.4 138.2 116.3C138.3 116.3 138.3 116.2 138.3 116.1C138.3 116.1 138.1 116.1 138.1 116C138.1 116 138 115.7 138 115.6V113.1L138.2 109.4C138.2 109.5 138.4 109.6 138.3 109.6C138.3 109.7 138.2 109.7 138.2 109.8C138.1 109.9 138.1 109.9 138 110" stroke="#171A21" stroke-width="2" stroke-miterlimit="10" stroke-linecap="round" stroke-linejoin="round"/>
<path d="M62.6 65C61.7 64.5 61 63.3 61 62.2001L61.1 10.3C61.1 9.80005 61.3 9.40005 61.6 9.30005C62.8 8.60005 64.8 7.40005 64.8 7.40005C64.9 7.40005 65 7.30005 65.2 7.30005C65.3 7.30005 65.4 7.30005 65.5 7.30005C65.7 7.40005 65.8 7.40005 66 7.50005L141 50.8C141.5 51.1 141.8 51.5 142.1 52C142.2 52.2001 142.6 52.8 142.6 53.5C142.6 54.2001 142.3 103.7 142.3 104.5C142.3 105.2 142.2 106.5 141.7 106.8L138.9 108.4" fill="white"/>
<path d="M62.6 65C61.7 64.5 61 63.3001 61 62.2001L61.1 10.3C61.1 9.80005 61.3 9.40005 61.6 9.30005C62.8 8.60005 64.8 7.40005 64.8 7.40005C64.9 7.40005 65 7.30005 65.2 7.30005C65.3 7.30005 65.4 7.30005 65.5 7.30005C65.7 7.40005 65.8 7.40005 66 7.50005L141 50.8C141.5 51.1 141.8 51.5 142.1 52C142.2 52.2 142.6 52.8 142.6 53.5C142.6 54.2 142.3 103.7 142.3 104.5C142.3 105.2 142.2 106.5 141.7 106.8L138.9 108.4" stroke="#171A21" stroke-width="2" stroke-miterlimit="10" stroke-linecap="round" stroke-linejoin="round"/>
<path d="M136.3 107C138.7 108.4 138.7 110.6 136.3 112L93.1004 137.1C92.3004 137.6 91.0004 137.6 90.2004 137.1L16.2004 94.4C13.8004 93 13.8004 90.8 16.2004 89.4L59.4004 64.3C60.2004 63.8 61.5004 63.8 62.3004 64.3L136.3 107Z" fill="#98A2F4"/>
<path d="M85.8 108.6L62.7 95.2C62.1 94.9 61.2 94.9 60.6 95.2L47.2 103C46.6 103.3 46.6 103.9 47.2 104.2L70.4 117.6C71 117.9 71.9 117.9 72.5 117.6L85.8 109.8C86.4 109.5 86.4 108.9 85.8 108.6Z" stroke="white" stroke-width="2" stroke-miterlimit="10"/>
<path d="M66.5004 19.5001L66.4004 58.4001C66.4004 59.8001 67.1004 61.0001 68.3004 61.7001L133.8 99.5001C134.6 100 135.7 99.4001 135.7 98.4001L135.8 59.5001C135.8 58.1001 135.1 56.9001 133.9 56.2001L68.4004 18.4001C67.6004 17.9001 66.5004 18.5001 66.5004 19.5001Z" fill="#EAECFD" stroke="#171A21" stroke-width="2" stroke-miterlimit="10" stroke-linecap="round" stroke-linejoin="round"/>
<path d="M123.9 58.7L103.6 47.2C102.5 46.6 101.2 47.4 101.2 48.6V50.3C101.2 52 102.1 53.6 103.6 54.5L123.9 66C125 66.6 126.3 65.9 126.3 64.6V62.9C126.4 61.2 125.4 59.6 123.9 58.7Z" fill="#98A2F4"/>
<path d="M123.9 68.9001L103.6 57.4001C102.5 56.8001 101.2 57.6001 101.2 58.8001V60.5001C101.2 62.2001 102.1 63.8001 103.6 64.7001L123.9 76.2001C125 76.8001 126.3 76.1001 126.3 74.8001V73.1001C126.4 71.4001 125.4 69.8001 123.9 68.9001Z" fill="#98A2F4"/>
<path d="M123.9 79.1L103.6 67.6C102.5 67 101.2 67.8 101.2 69V70.7C101.2 72.4 102.1 74 103.6 74.9L123.9 86.4C125 87 126.3 86.3 126.3 85V83.3C126.4 81.6 125.4 80 123.9 79.1Z" fill="#98A2F4"/>
<path d="M91.4998 39.6001L77.1998 31.5001C76.0998 30.9001 74.7998 31.7001 74.7998 32.9001V55.0001C74.7998 56.7001 75.6998 58.4001 77.1998 59.2001L91.4998 67.4001C92.5998 68.0001 93.8998 67.2001 93.8998 66.0001V43.8001C93.8998 42.1001 92.9998 40.4001 91.4998 39.6001Z" fill="#98A2F4"/>
<path d="M16 15.5C15.4 15.8 14.7 16.5 14.5 17.1C14.2 17.9 14.4 28.1 14.3 32.1C14.2 43.2 14.1 54.3 14.1 65.4C14.1 66.6 14.1 67.8 14.1 69C14.1 69.5 14 70 14.3 70.4C14.9 71.1 16.4 71.6 17.2 72.1C16 71.4 16.6 68 16.6 66.9C16.6 62.6 16.6 58.3 16.6 53.9C16.6 44.1 16.6 34.3 16.6 24.5C16.6 23.3 16.6 22.2 16.6 21C16.6 20.7 16.6 20.4 16.6 20.1C16.7 19.4 16.7 19.4 17.3 19.3C17.5 19.2 18.9 19.2 18.9 19C18.9 18.9 17.8 18.8 17.7 18.7C17.2 18.4 17.3 18.3 17.7 17.8C18 17.4 18.5 17.1 19 16.8C20.7 15.8 22.4 14.8 24.1 13.9C29.5 10.8 34.9 7.70004 40.3 4.70004C41.1 4.20004 42.9 2.70004 44 3.30004C42.7 2.60004 41.3 1.20004 39.7 1.80004C38.5 2.30004 37.3 3.20004 36.1 3.90004C30.8 6.90004 25.5 10 20.2 13C18.8 13.9 17.4 14.7 16 15.5Z" fill="#98A2F4"/>
<path d="M16.6 20.9001L16.5 70.8001C16.5 72.2001 17.5 72.8001 18.7 72.1001L42.3 58.6001C43.5 57.9001 44.5 56.2001 44.5 54.8001L44.6 4.90006C44.6 3.50006 43.6 2.90006 42.4 3.60006L18.8 17.1001C17.6 17.8001 16.6 19.5001 16.6 20.9001Z" fill="white"/>
<path d="M16.5 70.8001C16.5 72.2001 17.5 72.8001 18.7 72.1001L42.3 58.6001C43.5 57.9001 44.5 56.2001 44.5 54.8001L44.6 4.90006C44.6 3.50006 43.6 2.90006 42.4 3.60006" stroke="#171A21" stroke-width="2" stroke-miterlimit="10" stroke-linecap="round" stroke-linejoin="round"/>
<path d="M19.5004 22.3L19.4004 60.5C19.4004 61.5 20.1004 61.9 20.9004 61.4L40.1004 50.4C41.0004 49.9 41.6004 48.7 41.6004 47.7L41.7004 9.50002C41.7004 8.50002 41.0004 8.10002 40.2004 8.60002L21.0004 19.6C20.2004 20.1 19.5004 21.3 19.5004 22.3Z" fill="#98A2F4"/>
<path d="M27.5996 61.4C27.5996 62.1 28.0996 62.4 28.6996 62L32.2996 59.9C32.8996 59.6 33.3996 58.7 33.3996 58C33.3996 57.3 32.8996 57 32.2996 57.4L28.6996 59.5C28.0996 59.9 27.5996 60.7 27.5996 61.4Z" fill="#171A21"/>
<path d="M25.4004 45.1L37.0004 38.5C37.6004 38.1 38.4004 38.6 38.4004 39.3V40.3C38.4004 41.3 37.9004 42.2 37.0004 42.7L25.3004 49.3C24.7004 49.7 23.9004 49.2 23.9004 48.5V47.5C23.9004 46.5 24.5004 45.6 25.4004 45.1Z" fill="#EAECFD"/>
<path d="M25.4004 50.8999L37.0004 44.2999C37.6004 43.8999 38.4004 44.3999 38.4004 45.0999V46.0999C38.4004 47.0999 37.9004 47.9999 37.0004 48.4999L25.3004 55.0999C24.7004 55.4999 23.9004 54.9999 23.9004 54.2999V53.2999C23.9004 52.3999 24.5004 51.4999 25.4004 50.8999Z" fill="#EAECFD"/>
<path d="M25.8 20.8L36.6 14.7C37.4 14.2 38.4 14.8 38.4 15.8V32.4C38.4 33.7 37.7 34.9 36.6 35.6L25.8 41.8C25 42.2 24 41.6 24 40.7V24C24 22.7 24.7 21.5 25.8 20.8Z" fill="#EAECFD"/>
</svg>
