<svg width="144" height="144" viewBox="0 0 144 144" fill="none" xmlns="http://www.w3.org/2000/svg">
<path d="M31 40.5C30.9 40.5 30.8 40.5 30.7 40.5C30.7 40.5 30.7 40.5 30.6 40.5C30.5 40.5 30.4 40.5 30.4 40.6C30.4 40.6 30.4 40.6 30.3 40.6C30.2 40.6 30.1 40.7 30 40.7L65.9 19.8C66 19.8 66 19.7 66.1 19.7C66.1 19.7 66.1 19.7 66.2 19.7H66.3H66.4C66.4 19.7 66.4 19.7 66.5 19.7C66.6 19.7 66.7 19.7 66.7 19.7H66.8C66.9 19.7 66.9 19.7 67 19.7C67.1 19.7 67.1 19.7 67.2 19.7L78.3 19.2C78.4 19.2 78.5 19.2 78.6 19.2C78.6 19.2 78.6 19.2 78.7 19.2C78.8 19.2 78.9 19.2 79 19.2C79 19.2 79 19.2 79.1 19.2C79.2 19.2 79.3 19.2 79.3 19.1C79.3 19.1 79.3 19.1 79.4 19.1C79.5 19.1 79.6 19 79.7 19L43.8 39.8C43.7 39.8 43.7 39.9 43.6 39.9C43.6 39.9 43.6 39.9 43.5 39.9H43.4H43.3C43.3 39.9 43.3 39.9 43.2 39.9C43.1 39.9 43 39.9 43 39.9C43 39.9 43 39.9 42.9 39.9H42.8C42.7 39.9 42.7 39.9 42.6 39.9L31.5 40.4C31.3 40.5 31.2 40.5 31 40.5Z" fill="#9AF4DC"/>
<path d="M59.6006 71.2001L49.7006 55.6001L41.1006 60.4001L50.3006 76.5001" fill="#9AF4DC"/>
<path d="M45.5004 61.0001C43.1004 59.6001 40.9004 59.9001 39.8004 61.5001C39.2004 62.3001 38.9004 63.4001 38.9004 64.8001C38.9004 65.0001 38.9004 65.1001 38.9004 65.3001C39.1004 69.4001 42.0004 74.1001 45.4004 76.2001C48.9004 78.2001 51.8004 76.7001 52.0004 72.9001C52.0004 72.7001 52.0004 72.6001 52.0004 72.4001C52.0004 71.0001 51.7004 69.6001 51.1004 68.1001C50.1004 65.2001 47.9004 62.5001 45.5004 61.0001Z" fill="#9AF4DC"/>
<path d="M103.301 96.3999L93.4008 80.7L84.8008 85.4999L94.0008 101.6" fill="#9AF4DC"/>
<path d="M89.2006 86.2001C86.8006 84.8001 84.6006 85.1001 83.5006 86.7001C82.9006 87.5001 82.6006 88.6001 82.6006 90.0001C82.6006 90.2001 82.6006 90.3001 82.6006 90.5001C82.8006 94.6001 85.7006 99.3001 89.1006 101.4C92.6006 103.4 95.5006 101.9 95.7006 98.1001C95.7006 97.9001 95.7006 97.8001 95.7006 97.6001C95.7006 96.2001 95.4006 94.8001 94.8006 93.3001C93.7006 90.3001 91.6006 87.6001 89.2006 86.2001Z" fill="#9AF4DC"/>
<path d="M52.2008 22C52.1008 21.9 52.0008 21.9 51.9008 21.9C51.8008 21.9 51.7008 21.8 51.6008 21.8C51.5008 21.8 51.5008 21.8 51.4008 21.8C51.3008 21.8 51.3008 21.8 51.2008 21.8H51.1008C51.0008 21.8 50.9008 21.8 50.9008 21.8C50.9008 21.8 50.9008 21.8 50.8008 21.8C50.7008 21.8 50.6008 21.8 50.5008 21.8C50.5008 21.8 50.5008 21.8 50.4008 21.8C50.3008 21.8 50.2008 21.8 50.2008 21.9C50.2008 21.9 50.2008 21.9 50.1008 21.9C50.0008 21.9 49.9008 22 49.8008 22L85.7008 1.1C85.8008 1.1 85.8008 1 85.9008 1C85.9008 1 85.9008 1 86.0008 1H86.1008H86.2008C86.2008 1 86.2008 1 86.3008 1C86.4008 1 86.5008 1 86.5008 1C86.5008 1 86.5008 1 86.6008 1C86.7008 1 86.7008 1 86.8008 1C86.8008 1 86.8008 1 86.9008 1H87.0008H87.1008H87.2008C87.3008 1 87.3008 1 87.4008 1H87.5008C87.6008 1 87.6008 1 87.7008 1.1C87.8008 1.1 87.9008 1.2 87.9008 1.2H88.0008H88.1008C88.2008 1.3 88.3008 1.3 88.5008 1.4L139.201 30.6C139.301 30.7 139.501 30.8 139.601 30.8L139.701 30.9C139.801 31 139.901 31 140.001 31.1L140.101 31.2C140.201 31.3 140.301 31.3 140.301 31.4L140.401 31.5L140.501 31.6L140.601 31.7C140.701 31.8 140.801 31.9 140.901 32L141.001 32.1C141.001 32.1 141.001 32.2 141.101 32.2C141.201 32.3 141.201 32.3 141.301 32.4L141.401 32.5L141.501 32.6C141.501 32.7 141.601 32.7 141.601 32.8L141.701 32.9C141.701 33 141.801 33 141.801 33.1L141.901 33.2C142.001 33.3 142.001 33.4 142.101 33.5C142.101 33.5 142.101 33.5 142.101 33.6C142.101 33.7 142.201 33.8 142.201 33.8C142.201 33.8 142.201 33.9 142.301 33.9C142.301 33.9 142.301 34 142.401 34C142.401 34 142.401 34.1 142.501 34.1C142.501 34.2 142.601 34.3 142.601 34.4C142.601 34.4 142.601 34.4 142.601 34.5C142.701 34.6 142.701 34.7 142.701 34.9C142.701 34.9 142.701 34.9 142.701 35V35.1C142.701 35.2 142.701 35.2 142.801 35.3V35.4C142.801 35.5 142.801 35.5 142.901 35.6V35.7C142.901 35.8 142.901 35.8 142.901 35.9C142.901 36 142.901 36 143.001 36.1C143.001 36.1 143.001 36.1 143.001 36.2V36.3C143.001 36.4 143.001 36.5 143.101 36.6V36.7C143.101 36.8 143.101 36.8 143.101 36.9V37C143.101 37.1 143.101 37.3 143.101 37.4L143.001 78C143.001 78.8 142.801 79.4 142.501 79.9C142.301 80.2 142.101 80.4 141.801 80.6L105.901 101.5C106.601 101.1 107.101 100.2 107.101 98.9L107.201 58.3C107.201 58.2 107.201 58 107.201 57.9V57.8C107.201 57.7 107.201 57.6 107.201 57.5C107.201 57.4 107.201 57.3 107.101 57.2C107.101 57.1 107.101 57.1 107.101 57C107.101 56.9 107.101 56.9 107.001 56.8C107.001 56.7 107.001 56.6 106.901 56.5C106.901 56.4 106.901 56.4 106.801 56.3C106.801 56.2 106.701 56.1 106.701 56V55.9C106.601 55.8 106.601 55.6 106.501 55.5C106.501 55.5 106.501 55.5 106.501 55.4C106.401 55.3 106.401 55.1 106.301 55C106.301 55 106.301 54.9 106.201 54.9C106.101 54.8 106.101 54.7 106.001 54.5C106.001 54.5 106.001 54.5 106.001 54.4C105.901 54.3 105.801 54.1 105.701 54L105.601 53.9C105.501 53.8 105.501 53.7 105.401 53.6C105.401 53.5 105.301 53.5 105.301 53.4C105.201 53.3 105.201 53.2 105.101 53.2C105.001 53.1 105.001 53.1 104.901 53C104.801 52.9 104.801 52.9 104.701 52.8C104.601 52.7 104.501 52.6 104.401 52.5C104.301 52.4 104.301 52.4 104.201 52.3L104.101 52.2C104.001 52.1 103.901 52.1 103.901 52L103.801 51.9C103.701 51.8 103.601 51.8 103.501 51.7L103.401 51.6C103.301 51.5 103.101 51.4 103.001 51.4L52.7008 22.2C52.6008 22.1 52.5008 22.1 52.2008 22C52.3008 22 52.3008 22 52.2008 22Z" fill="#9AF4DC"/>
<path d="M52.7004 22.2C51.0004 21.2 49.4004 21.6 48.9004 23.2L47.7004 27.7L44.8004 38.6C44.4004 39.6 43.6004 40.2 42.5004 40.1L31.4004 40.6C29.9004 40.4 28.9004 41.6 28.9004 43.4V53.7C28.9004 56.3 30.7004 59.4 32.9004 60.6L37.9004 63.5C37.9004 58.6 41.4004 56.6 45.7004 59.1C50.0004 61.6 53.4004 67.6 53.4004 72.5L61.7004 77.3L81.6004 88.8C81.6004 86.4 82.4004 84.6 83.9004 83.8C85.4004 83 87.3004 83.2 89.4004 84.4C93.7004 86.9 97.1004 92.9 97.1004 97.8L103.2 101.3C105.4 102.6 107.2 101.6 107.2 99L107.3 58.4C107.3 55.9 105.5 52.7 103.3 51.5L52.7004 22.2Z" fill="white"/>
<path d="M97.1006 97.7002L103.201 101.2C105.401 102.5 107.201 101.5 107.201 98.9002" stroke="#171A21" stroke-width="2" stroke-miterlimit="10" stroke-linecap="round" stroke-linejoin="round"/>
<path d="M53.4004 72.5L61.7004 77.3L81.6004 88.8" stroke="#171A21" stroke-width="2" stroke-miterlimit="10" stroke-linecap="round" stroke-linejoin="round"/>
<path d="M31.4004 40.5C29.9004 40.3 28.9004 41.5 28.9004 43.3V53.6C28.9004 56.2 30.7004 59.3 32.9004 60.5L37.9004 63.4" stroke="#171A21" stroke-width="2" stroke-miterlimit="10" stroke-linecap="round" stroke-linejoin="round"/>
<path d="M52.7008 22.2C51.0008 21.2 49.4008 21.6 48.9008 23.2L47.7008 27.7L44.8008 38.6" stroke="#171A21" stroke-width="2" stroke-miterlimit="10" stroke-linecap="round" stroke-linejoin="round"/>
<path d="M65.2005 36.2C66.7005 37.1 67.9005 39.1 67.9005 40.9V52.6C67.9005 54.3 66.7005 55 65.2005 54.1L51.6005 46.3C51.0005 46 50.8005 45.3 50.9005 44.7L53.4005 35.4L54.4005 31.6C54.6005 30.9 55.4005 30.6 56.0005 30.9L65.2005 36.2Z" fill="#EBFDF8" stroke="#171A21" stroke-width="2" stroke-miterlimit="10" stroke-linecap="round" stroke-linejoin="round"/>
<path d="M137.5 52.5L137.6 76C137.6 76.3 137.4 76.6 137.1 76.8L112.8 90.8L112.7 65.2C112.7 63.3 113.7 61.5 115.4 60.5L133.3 50.1C135.3 49.1 137.5 50.4 137.5 52.5Z" fill="#EBFDF8"/>
<path d="M83.4002 48.3V59.7001L74.2002 50.3C74.8002 48.8 75.9002 47.7 77.3002 47.3H77.4002C77.4002 47.3 77.4002 47.3 77.5002 47.3C77.5002 47.3 77.5002 47.3 77.6002 47.3C77.6002 47.3 77.6002 47.3 77.7002 47.3C77.7002 47.3 77.7002 47.3 77.8002 47.3C77.8002 47.3 77.8002 47.3 77.9002 47.3C77.9002 47.3 77.9002 47.3 78.0002 47.3C78.0002 47.3 78.0002 47.3 78.1002 47.3C78.1002 47.3 78.1002 47.3 78.2002 47.3C78.2002 47.3 78.2002 47.3 78.3002 47.3C78.3002 47.3 78.3002 47.3 78.4002 47.3C78.4002 47.3 78.4002 47.3 78.5002 47.3C78.5002 47.3 78.5002 47.3 78.6002 47.3C78.6002 47.3 78.6002 47.3 78.7002 47.3C78.7002 47.3 78.7002 47.3 78.8002 47.3C78.8002 47.3 78.8002 47.3 78.9002 47.3C78.9002 47.3 78.9002 47.3 79.0002 47.3C79.0002 47.3 79.0002 47.3 79.1002 47.3C79.1002 47.3 79.1002 47.3 79.2002 47.3C79.2002 47.3 79.2002 47.3 79.3002 47.3C79.3002 47.3 79.3002 47.3 79.4002 47.3C79.4002 47.3 79.4002 47.3 79.5002 47.3C79.5002 47.3 79.5002 47.3 79.6002 47.3C79.6002 47.3 79.6002 47.3 79.7002 47.3C79.7002 47.3 79.7002 47.3 79.8002 47.3C79.8002 47.3 79.8002 47.3 79.9002 47.3C79.9002 47.3 79.9002 47.3 80.0002 47.3C80.0002 47.3 80.0002 47.3 80.1002 47.3C80.1002 47.3 80.1002 47.3 80.2002 47.3C80.2002 47.3 80.2002 47.3 80.3002 47.3C80.3002 47.3 80.3002 47.3 80.4002 47.3C80.4002 47.3 80.4002 47.3 80.5002 47.3C80.5002 47.3 80.5002 47.3 80.6002 47.3C80.6002 47.3 80.6002 47.3 80.7002 47.3C80.7002 47.3 80.7002 47.3 80.8002 47.3C80.8002 47.3 80.8002 47.3 80.9002 47.3C80.9002 47.3 80.9002 47.3 81.0002 47.3C81.0002 47.3 81.0002 47.3 81.1002 47.3C81.1002 47.3 81.1002 47.3 81.2002 47.3C81.2002 47.3 81.2002 47.3 81.3002 47.3C81.3002 47.3 81.3002 47.3 81.4002 47.3C81.4002 47.3 81.4002 47.3 81.5002 47.3C81.5002 47.3 81.5002 47.3 81.6002 47.3C81.6002 47.3 81.6002 47.3 81.7002 47.3C81.7002 47.3 81.7002 47.3 81.8002 47.3C81.8002 47.3 81.8002 47.3 81.9002 47.3H82.0002C82.0002 47.3 82.0002 47.3 82.1002 47.3H82.2002C82.2002 47.3 82.2002 47.3 82.3002 47.3H82.4002H82.5002H82.6002H82.7002H82.8002H82.9002H83.0002H83.1002H83.2002H83.3002H83.4002H83.5002H83.6002H83.7002C83.3002 48.2 83.3002 48.2 83.4002 48.3C83.4002 48.2 83.4002 48.3 83.4002 48.3Z" fill="white"/>
<path d="M84.8002 111C84.8002 111 84.8002 111.1 84.8002 111C84.8002 111.1 84.8002 111.1 84.8002 111.1C84.8002 111.1 84.8002 111.1 84.8002 111.2V111.3C84.8002 111.3 84.8002 111.4 84.7002 111.4L84.6002 111.5L84.5002 111.6L72.4002 121C72.3002 121 72.3002 121.1 72.2002 121.1C72.1002 121.1 72.1002 121.2 72.0002 121.2C72.0002 121.2 72.0002 121.2 71.9002 121.2C71.8002 121.2 71.8002 121.2 71.7002 121.3C71.7002 121.3 71.7002 121.3 71.6002 121.3C71.5002 121.3 71.4002 121.4 71.3002 121.4C71.3002 121.4 71.3002 121.4 71.2002 121.4C71.1002 121.4 71.1002 121.4 71.0002 121.4C70.9002 121.4 70.9002 121.4 70.8002 121.4H70.7002H70.6002H70.5002C70.5002 121.4 70.5002 121.4 70.4002 121.4C70.3002 121.4 70.3002 121.4 70.2002 121.4C70.2002 121.4 70.2002 121.4 70.1002 121.4H70.0002C69.9002 121.4 69.9002 121.4 69.8002 121.3C69.7002 121.3 69.7002 121.3 69.6002 121.2C69.6002 121.2 69.6002 121.2 69.5002 121.2C69.4002 121.2 69.3002 121.1 69.2002 121.1C69.1002 121.1 69.1002 121 69.0002 121L64.1002 117.2V109.7C63.0002 108.1 61.3002 106.6 59.2002 105.4C58.9002 105.2 58.7002 105.1 58.4002 105C58.3002 105 58.2002 104.9 58.1002 104.9C57.9002 104.8 57.7002 104.7 57.5002 104.6C57.4002 104.5 57.3002 104.5 57.2002 104.4C57.0002 104.3 56.9002 104.2 56.7002 104.2C56.6002 104.1 56.5002 104.1 56.3002 104C56.2002 104 56.1002 103.9 56.0002 103.9C55.9002 103.9 55.9002 103.8 55.8002 103.8C55.7002 103.8 55.6002 103.7 55.6002 103.7C55.4002 103.6 55.1002 103.5 54.9002 103.4H54.8002C54.5002 103.3 54.2002 103.2 53.9002 103.1C53.8002 103.1 53.7002 103.1 53.7002 103C53.6002 103 53.5002 102.9 53.4002 102.9C53.3002 102.9 53.2002 102.9 53.2002 102.8C53.0002 102.7 52.8002 102.7 52.5002 102.6C52.4002 102.6 52.2002 102.5 52.1002 102.5C51.9002 102.4 51.6002 102.4 51.4002 102.3C51.3002 102.3 51.2002 102.3 51.1002 102.2H51.0002C50.8002 102.2 50.6002 102.1 50.4002 102.1C50.2002 102.1 50.1002 102 49.9002 102C49.7002 102 49.5002 101.9 49.2002 101.9C49.1002 101.9 49.0002 101.9 48.8002 101.8C48.8002 101.8 48.8002 101.8 48.7002 101.8C48.5002 101.8 48.3002 101.7 48.1002 101.7C47.9002 101.7 47.8002 101.7 47.6002 101.6C47.4002 101.6 47.2002 101.6 47.0002 101.5C46.9002 101.5 46.7002 101.5 46.6002 101.5C46.4002 101.5 46.2002 101.5 46.0002 101.5C45.8002 101.5 45.7002 101.5 45.5002 101.5C45.3002 101.5 45.0002 101.5 44.8002 101.5C44.7002 101.5 44.5002 101.5 44.4002 101.5C44.0002 101.5 43.7002 101.5 43.3002 101.5C43.2002 101.5 43.1002 101.5 43.0002 101.5C42.7002 101.5 42.4002 101.5 42.1002 101.5C42.0002 101.5 41.9002 101.5 41.8002 101.5C41.5002 101.5 41.2002 101.5 40.9002 101.5C40.8002 101.5 40.6002 101.5 40.5002 101.5C40.3002 101.5 40.0002 101.5 39.8002 101.6C39.7002 101.6 39.7002 101.6 39.6002 101.6C39.4002 101.6 39.2002 101.6 39.0002 101.7H38.9002C38.6002 101.7 38.3002 101.8 38.0002 101.8C37.9002 101.8 37.8002 101.8 37.8002 101.8C37.5002 101.8 37.3002 101.9 37.0002 101.9C36.9002 101.9 36.9002 101.9 36.8002 101.9C36.8002 101.9 36.8002 101.9 36.7002 101.9C36.6002 101.9 36.4002 102 36.3002 102C36.1002 102 35.9002 102.1 35.7002 102.1C35.5002 102.1 35.4002 102.2 35.2002 102.2C35.0002 102.2 34.8002 102.3 34.6002 102.3C34.4002 102.3 34.3002 102.4 34.1002 102.4C33.9002 102.4 33.7002 102.5 33.5002 102.6C33.3002 102.6 33.2002 102.7 33.0002 102.7C32.8002 102.8 32.6002 102.8 32.4002 102.9H32.3002C32.1002 103 31.9002 103 31.7002 103.1C31.4002 103.2 31.1002 103.3 30.9002 103.4C30.8002 103.4 30.7002 103.5 30.7002 103.5C30.5002 103.6 30.3002 103.7 30.0002 103.8C29.9002 103.8 29.9002 103.9 29.8002 103.9C29.5002 104 29.3002 104.1 29.0002 104.3C28.9002 104.3 28.9002 104.4 28.8002 104.4C28.6002 104.5 28.4002 104.6 28.2002 104.7C28.1002 104.7 28.1002 104.8 28.0002 104.8C27.7002 104.9 27.5002 105.1 27.3002 105.2C27.2002 105.3 27.1002 105.3 27.0002 105.3H26.9002C26.8002 105.3 26.8002 105.3 26.7002 105.4C26.6002 105.4 26.6002 105.4 26.5002 105.4C26.4002 105.4 26.3002 105.4 26.2002 105.4C26.2002 105.4 26.2002 105.4 26.1002 105.4C26.0002 105.4 25.9002 105.4 25.8002 105.4C25.8002 105.4 25.8002 105.4 25.7002 105.4C25.6002 105.4 25.5002 105.4 25.4002 105.4C25.4002 105.4 25.4002 105.4 25.3002 105.4C25.2002 105.4 25.1002 105.4 25.0002 105.3C25.0002 105.3 25.0002 105.3 24.9002 105.3C24.8002 105.3 24.7002 105.2 24.6002 105.2C24.6002 105.2 24.6002 105.2 24.5002 105.2C24.4002 105.2 24.3002 105.1 24.2002 105.1C24.1002 105.1 24.1002 105 24.0002 105L19.1002 101.2C18.8002 101 18.7002 100.7 18.7002 100.5V109.9C18.7002 110.1 18.8002 110.4 19.1002 110.6L24.0002 114.4C24.1002 114.4 24.1002 114.5 24.2002 114.5C24.3002 114.6 24.4002 114.6 24.5002 114.6C24.5002 114.6 24.5002 114.6 24.6002 114.6C24.7002 114.6 24.7002 114.6 24.8002 114.7H24.9002C24.9002 114.7 24.9002 114.7 25.0002 114.7C25.0002 114.7 25.0002 114.7 25.1002 114.7C25.2002 114.7 25.2002 114.7 25.3002 114.7C25.3002 114.7 25.3002 114.7 25.4002 114.7C25.4002 114.7 25.4002 114.7 25.5002 114.7H25.6002C25.7002 114.7 25.7002 114.7 25.8002 114.7C25.8002 114.7 25.8002 114.7 25.9002 114.7C25.9002 114.7 25.9002 114.7 26.0002 114.7H26.1002C26.2002 114.7 26.3002 114.7 26.3002 114.7C26.3002 114.7 26.3002 114.7 26.4002 114.7C26.5002 114.7 26.5002 114.7 26.6002 114.7H26.7002C26.8002 114.7 26.8002 114.7 26.9002 114.7H27.0002H27.1002H27.2002C27.3002 114.7 27.4002 114.6 27.5002 114.6C27.7002 114.5 28.0002 114.3 28.2002 114.2C28.3002 114.2 28.3002 114.1 28.4002 114.1C28.6002 114 28.8002 113.9 29.0002 113.8C29.1002 113.8 29.1002 113.7 29.2002 113.7C29.5002 113.6 29.7002 113.5 30.0002 113.3C30.1002 113.3 30.1002 113.2 30.2002 113.2C30.4002 113.1 30.6002 113 30.9002 112.9C31.0002 112.9 31.1002 112.8 31.1002 112.8C31.4002 112.7 31.7002 112.6 31.9002 112.5C32.2002 112.4 32.4002 112.3 32.7002 112.2C32.9002 112.1 33.1002 112.1 33.3002 112C33.5002 112 33.6002 111.9 33.8002 111.9C34.0002 111.8 34.2002 111.8 34.4002 111.7C34.6002 111.7 34.7002 111.6 34.9002 111.6C35.1002 111.6 35.3002 111.5 35.5002 111.5C35.7002 111.5 35.8002 111.4 36.0002 111.4C36.2002 111.4 36.4002 111.3 36.6002 111.3C36.7002 111.3 36.9002 111.2 37.0002 111.2C37.1002 111.2 37.1002 111.2 37.2002 111.2C37.5002 111.2 37.7002 111.1 38.0002 111.1C38.1002 111.1 38.2002 111.1 38.2002 111.1C38.5002 111.1 38.8002 111 39.1002 111H39.2002C39.4002 111 39.7002 110.9 39.9002 110.9C40.1002 110.9 40.4002 110.9 40.6002 110.8C40.7002 110.8 40.9002 110.8 41.0002 110.8C41.3002 110.8 41.6002 110.8 41.9002 110.8C42.0002 110.8 42.1002 110.8 42.2002 110.8C42.5002 110.8 42.8002 110.8 43.1002 110.8C43.2002 110.8 43.3002 110.8 43.4002 110.8C43.8002 110.8 44.1002 110.8 44.5002 110.8C44.6002 110.8 44.8002 110.8 44.9002 110.8C45.1002 110.8 45.4002 110.8 45.6002 110.8C45.8002 110.8 45.9002 110.8 46.1002 110.8C46.3002 110.8 46.5002 110.8 46.7002 110.8C46.9002 110.8 47.0002 110.8 47.2002 110.8C47.4002 110.8 47.6002 110.8 47.8002 110.9C48.0002 110.9 48.1002 110.9 48.3002 111C48.5002 111 48.7002 111 48.9002 111.1C49.0002 111.1 49.2002 111.1 49.3002 111.2C49.5002 111.2 49.7002 111.3 50.0002 111.3C50.2002 111.3 50.3002 111.4 50.5002 111.4C50.7002 111.4 50.9002 111.5 51.1002 111.5C51.2002 111.5 51.4002 111.6 51.5002 111.6C51.7002 111.7 52.0002 111.7 52.2002 111.8C52.3002 111.8 52.5002 111.9 52.6002 111.9C52.8002 112 53.0002 112 53.3002 112.1C53.5002 112.2 53.7002 112.2 53.8002 112.3C53.9002 112.3 54.0002 112.3 54.0002 112.4C54.3002 112.5 54.6002 112.6 54.9002 112.7H55.0002C55.3002 112.8 55.5002 112.9 55.7002 113C55.8002 113 55.9002 113.1 55.9002 113.1C56.1002 113.2 56.3002 113.2 56.5002 113.3H56.6002V120.1C56.6002 120.3 56.7002 120.6 57.0002 120.8L67.7002 129C67.7002 129 67.7002 129 67.6002 129C67.6002 129 67.6002 129 67.5002 129C67.5002 129 67.4002 129 67.4002 129.1C67.0002 129.3 66.6002 129.5 66.2002 129.7C66.1002 129.7 66.0002 129.8 65.9002 129.8C65.5002 130 65.1002 130.2 64.7002 130.4C64.6002 130.4 64.6002 130.5 64.5002 130.5C64.1002 130.7 63.8002 130.8 63.4002 131C63.3002 131 63.2002 131.1 63.2002 131.1C62.8002 131.3 62.4002 131.4 62.0002 131.6C61.9002 131.6 61.8002 131.7 61.7002 131.7C61.3002 131.8 60.9002 132 60.5002 132.1C60.4002 132.1 60.4002 132.1 60.3002 132.2C60.1002 132.3 59.9002 132.3 59.7002 132.4C59.4002 132.5 59.0002 132.6 58.7002 132.7C58.5002 132.8 58.3002 132.8 58.1002 132.9C57.8002 133 57.5002 133.1 57.2002 133.1C57.0002 133.2 56.7002 133.2 56.5002 133.3C56.2002 133.4 55.9002 133.4 55.6002 133.5C55.4002 133.6 55.1002 133.6 54.9002 133.6C54.6002 133.7 54.3002 133.7 54.0002 133.8C53.6002 133.9 53.2002 134 52.7002 134C52.2002 134.1 51.8002 134.1 51.3002 134.2C51.2002 134.2 51.0002 134.2 50.9002 134.2C50.5002 134.3 50.1002 134.3 49.7002 134.3C49.6002 134.3 49.6002 134.3 49.5002 134.3C49.0002 134.3 48.6002 134.4 48.1002 134.4C48.0002 134.4 47.9002 134.4 47.8002 134.4C47.3002 134.4 46.9002 134.5 46.4002 134.5C46.3002 134.5 46.2002 134.5 46.2002 134.5C45.9002 134.5 45.5002 134.5 45.2002 134.5C44.9002 134.5 44.6002 134.5 44.3002 134.5C44.0002 134.5 43.8002 134.5 43.5002 134.5C43.2002 134.5 42.9002 134.5 42.6002 134.5C42.3002 134.5 42.1002 134.5 41.8002 134.5C41.5002 134.5 41.2002 134.5 40.9002 134.5C40.6002 134.5 40.4002 134.5 40.1002 134.5C39.8002 134.5 39.5002 134.5 39.2002 134.4C38.9002 134.4 38.7002 134.4 38.4002 134.3C38.1002 134.3 37.8002 134.2 37.5002 134.2C37.2002 134.2 37.0002 134.1 36.7002 134.1C36.4002 134.1 36.1002 134 35.8002 134C35.6002 134 35.3002 133.9 35.1002 133.9C34.8002 133.9 34.4002 133.8 34.1002 133.7C33.9002 133.7 33.7002 133.6 33.5002 133.6C33.1002 133.5 32.8002 133.5 32.4002 133.4C32.2002 133.4 32.0002 133.3 31.8002 133.3C31.7002 133.3 31.7002 133.3 31.6002 133.3C31.2002 133.2 30.7002 133.1 30.3002 133C30.2002 133 30.2002 133 30.1002 133C29.7002 132.9 29.2002 132.8 28.8002 132.7C28.7002 132.7 28.6002 132.7 28.5002 132.6C28.1002 132.5 27.6002 132.4 27.2002 132.2C27.2002 132.2 27.2002 132.2 27.1002 132.2C26.7002 132.1 26.2002 131.9 25.8002 131.8C25.7002 131.8 25.6002 131.7 25.4002 131.7C25.1002 131.6 24.7002 131.5 24.4002 131.3C24.3002 131.3 24.2002 131.2 24.1002 131.2C23.8002 131.1 23.6002 131 23.3002 130.9C23.1002 130.8 22.9002 130.7 22.7002 130.7C22.4002 130.6 22.2002 130.5 21.9002 130.3C21.7002 130.2 21.5002 130.1 21.4002 130.1C21.1002 130 20.8002 129.8 20.5002 129.7C20.4002 129.6 20.2002 129.6 20.1002 129.5C19.7002 129.3 19.3002 129.1 18.9002 128.8C14.4002 126.2 11.3002 123 9.8002 119.5H3.7002C3.6002 119.5 3.4002 119.5 3.3002 119.5C3.2002 119.5 3.1002 119.5 3.0002 119.4C3.0002 119.4 3.0002 119.4 2.9002 119.4C2.8002 119.4 2.7002 119.3 2.6002 119.3C2.5002 119.3 2.4002 119.2 2.3002 119.2C1.9002 119 1.7002 118.7 1.7002 118.4V127.8C1.7002 128.1 1.9002 128.4 2.3002 128.6C2.4002 128.7 2.5002 128.7 2.6002 128.7C2.7002 128.7 2.8002 128.8 2.8002 128.8C2.8002 128.8 2.8002 128.8 2.9002 128.8C2.9002 128.8 2.9002 128.8 3.0002 128.8C3.0002 128.8 3.0002 128.8 3.1002 128.8C3.2002 128.8 3.2002 128.8 3.3002 128.8C3.3002 128.8 3.3002 128.8 3.4002 128.8H3.5002C3.6002 128.8 3.6002 128.8 3.7002 128.8H3.8002H9.9002C11.4002 132.3 14.6002 135.5 19.0002 138.1C19.4002 138.3 19.8002 138.6 20.2002 138.8C20.3002 138.9 20.5002 138.9 20.6002 139C20.9002 139.1 21.2002 139.3 21.5002 139.4C21.7002 139.5 21.9002 139.6 22.0002 139.6C22.3002 139.7 22.5002 139.8 22.8002 140C23.0002 140.1 23.2002 140.2 23.4002 140.2C23.6002 140.3 23.8002 140.4 24.0002 140.5C24.1002 140.5 24.1002 140.5 24.2002 140.6C24.3002 140.6 24.4002 140.7 24.5002 140.7C24.8002 140.8 25.2002 140.9 25.5002 141.1C25.6002 141.1 25.7002 141.2 25.9002 141.2C26.3002 141.3 26.8002 141.5 27.2002 141.6C27.2002 141.6 27.2002 141.6 27.3002 141.6C27.6002 141.7 28.0002 141.8 28.3002 141.9C28.4002 141.9 28.5002 142 28.6002 142C28.7002 142 28.8002 142 28.9002 142.1C29.3002 142.2 29.8002 142.3 30.2002 142.4C30.3002 142.4 30.3002 142.4 30.4002 142.4C30.8002 142.5 31.3002 142.6 31.7002 142.7C31.8002 142.7 31.8002 142.7 31.9002 142.7H32.0002C32.2002 142.7 32.3002 142.8 32.5002 142.8C32.9002 142.9 33.2002 142.9 33.6002 143C33.8002 143 34.0002 143.1 34.2002 143.1C34.5002 143.2 34.9002 143.2 35.2002 143.3C35.3002 143.3 35.3002 143.3 35.4002 143.3C35.6002 143.3 35.8002 143.3 36.0002 143.4C36.3002 143.4 36.6002 143.5 36.9002 143.5C37.2002 143.5 37.4002 143.6 37.7002 143.6C38.0002 143.6 38.3002 143.7 38.6002 143.7C38.7002 143.7 38.8002 143.7 38.9002 143.7C39.1002 143.7 39.2002 143.7 39.4002 143.7C39.7002 143.7 40.0002 143.7 40.3002 143.8C40.6002 143.8 40.8002 143.8 41.1002 143.8C41.4002 143.8 41.7002 143.8 42.0002 143.8C42.1002 143.8 42.2002 143.8 42.3002 143.8C42.4002 143.8 42.6002 143.8 42.7002 143.8C43.0002 143.8 43.3002 143.8 43.6002 143.8C43.9002 143.8 44.1002 143.8 44.4002 143.8C44.7002 143.8 45.0002 143.8 45.3002 143.8C45.4002 143.8 45.6002 143.8 45.7002 143.8C45.9002 143.8 46.1002 143.8 46.3002 143.8C46.4002 143.8 46.5002 143.8 46.5002 143.8C47.0002 143.8 47.4002 143.7 47.9002 143.7C48.0002 143.7 48.1002 143.7 48.2002 143.7C48.6002 143.7 49.1002 143.6 49.5002 143.6H49.6002C49.7002 143.6 49.7002 143.6 49.8002 143.6C50.2002 143.6 50.6002 143.5 51.0002 143.5C51.1002 143.5 51.2002 143.5 51.4002 143.5C51.9002 143.4 52.3002 143.4 52.8002 143.3C53.1002 143.2 53.5002 143.2 53.8002 143.1C53.9002 143.1 54.0002 143.1 54.0002 143.1C54.3002 143 54.6002 143 54.9002 142.9C55.1002 142.9 55.4002 142.8 55.6002 142.8C55.9002 142.7 56.2002 142.7 56.5002 142.6C56.7002 142.5 57.0002 142.5 57.2002 142.4C57.5002 142.3 57.8002 142.2 58.1002 142.2C58.3002 142.1 58.5002 142.1 58.7002 142C59.0002 141.9 59.4002 141.8 59.7002 141.7C59.9002 141.6 60.0002 141.6 60.2002 141.6C60.2002 141.6 60.2002 141.6 60.3002 141.6C60.4002 141.6 60.4002 141.6 60.5002 141.5C60.9002 141.4 61.3002 141.2 61.7002 141.1C61.8002 141.1 61.9002 141 62.0002 141C62.4002 140.8 62.8002 140.7 63.2002 140.5C63.3002 140.5 63.4002 140.4 63.4002 140.4C63.8002 140.2 64.1002 140.1 64.5002 139.9C64.6002 139.9 64.6002 139.8 64.7002 139.8C65.1002 139.6 65.5002 139.4 65.9002 139.2C66.0002 139.2 66.1002 139.1 66.2002 139.1C66.6002 138.9 67.0002 138.7 67.4002 138.5C67.4002 138.5 67.4002 138.5 67.5002 138.5C67.5002 138.5 67.5002 138.5 67.6002 138.5C67.6002 138.5 67.6002 138.5 67.7002 138.5C67.7002 138.5 67.7002 138.5 67.8002 138.5L67.9002 138.4C67.9002 138.4 67.9002 138.4 67.9002 138.3C67.9002 138.3 67.9002 138.3 67.9002 138.2C67.9002 138.2 67.9002 138.2 67.9002 138.1C67.9002 138.1 67.9002 138.1 67.9002 138C67.9002 138 67.9002 138 67.9002 137.9V129.5L69.1002 130.4C69.2002 130.4 69.2002 130.5 69.3002 130.5C69.4002 130.5 69.5002 130.6 69.6002 130.6C69.7002 130.6 69.7002 130.6 69.8002 130.7C69.9002 130.7 69.9002 130.7 70.0002 130.8H70.1002C70.1002 130.8 70.1002 130.8 70.2002 130.8C70.3002 130.8 70.3002 130.8 70.4002 130.8C70.4002 130.8 70.4002 130.8 70.5002 130.8H70.6002H70.7002H70.8002C70.9002 130.8 70.9002 130.8 71.0002 130.8C71.1002 130.8 71.2002 130.8 71.2002 130.8C71.3002 130.8 71.4002 130.7 71.5002 130.7C71.6002 130.7 71.6002 130.7 71.7002 130.6C71.7002 130.6 71.7002 130.6 71.8002 130.6C71.9002 130.6 71.9002 130.5 72.0002 130.5C72.1002 130.5 72.1002 130.4 72.2002 130.4L84.3002 121L84.4002 120.9L84.5002 120.8L84.6002 120.7V120.6C84.6002 120.6 84.6002 120.6 84.6002 120.5V120.4L84.8002 111Z" fill="#9AF4DC"/>
<path d="M28.4002 129.1H28.5002C28.5002 129.1 28.5002 129.1 28.6002 129.1C28.7002 129.1 28.7002 129.1 28.8002 129.1C28.9002 129.1 29.1002 129 29.2002 129C29.3002 129 29.3002 128.9 29.4002 128.9C29.4002 128.9 29.4002 128.9 29.5002 128.9C29.6002 128.9 29.6002 128.8 29.7002 128.8L29.8002 128.7L29.9002 128.6L30.0002 128.5C30.0002 128.5 30.0002 128.4 30.1002 128.4C30.1002 128.4 30.1002 128.4 30.1002 128.3C30.1002 128.3 30.1002 128.3 30.1002 128.2C30.1002 128.2 30.1002 128.2 30.1002 128.1V118.7C30.1002 118.7 30.1002 118.7 30.1002 118.8C30.1002 118.8 30.1002 118.8 30.1002 118.9C30.1002 118.9 30.1002 118.9 30.1002 119C30.1002 119 30.1002 119 30.1002 119.1C30.1002 119.1 30.1002 119.1 30.1002 119.2C30.1002 119.2 30.1002 119.3 30.0002 119.3L29.9002 119.4L29.8002 119.5L29.7002 119.6C29.6002 119.6 29.6002 119.7 29.5002 119.7C29.5002 119.7 29.5002 119.7 29.4002 119.7C29.3002 119.7 29.3002 119.8 29.2002 119.8C29.1002 119.8 29.0002 119.9 28.8002 119.9C28.7002 119.9 28.7002 119.9 28.6002 119.9H28.5002H28.4002C28.3002 119.9 28.3002 119.9 28.2002 119.9H22.7002V129.3H28.2002C28.2002 129.1 28.3002 129.1 28.4002 129.1C28.3002 129.1 28.3002 129.1 28.4002 129.1Z" fill="#9AF4DC"/>
<path d="M24.4002 105.7C24.3002 105.7 24.3002 105.6 24.2002 105.6L19.3002 101.8C18.7002 101.3 18.8002 100.7 19.5002 100.2C33.1002 92.7002 54.3002 92.8002 67.7002 100.6C72.2002 103.2 75.3002 106.4 76.8002 109.9H82.7002C83.3002 109.9 83.8002 110 84.1002 110.2C84.8002 110.6 85.0002 111.2 84.3002 111.7L72.2002 121.1C71.4002 121.7 70.0002 121.7 69.1002 121.2C69.0002 121.2 69.0002 121.1 68.9002 121.1L56.7002 111.7C55.7002 110.9 56.7002 109.8 58.3002 109.8H64.0002C62.9002 108.2 61.2002 106.7 59.1002 105.5C50.3002 100.4 35.9002 100.5 27.3002 105.6C26.5002 106.1 25.2002 106.1 24.4002 105.7Z" fill="#EBFDF8"/>
<path d="M67.3998 127.9C67.9998 128.4 67.8998 129.1 67.1998 129.5C53.5998 137 32.3998 136.8 19.0998 129.1C14.5998 126.5 11.4998 123.3 9.99983 119.8H3.89983C3.29983 119.8 2.79983 119.7 2.49983 119.5C1.79983 119.1 1.59983 118.5 2.29983 118L14.3998 108.6C15.1998 108 16.5998 108 17.4998 108.5C17.5998 108.5 17.5998 108.6 17.6998 108.6L29.8998 118C30.8998 118.8 29.8998 119.9 28.2998 119.9H22.7998C23.8998 121.5 25.5998 123 27.6998 124.2C36.3998 129.2 50.5998 129.2 59.2998 124.2C60.1998 123.7 61.5998 123.8 62.2998 124.2C62.3998 124.2 62.3998 124.3 62.3998 124.3L67.3998 127.9Z" fill="#EBFDF8"/>
<path d="M19.3002 101.7C18.7002 101.2 18.8002 100.6 19.5002 100.1C33.1002 92.6001 54.3002 92.7001 67.7002 100.5C72.2002 103.1 75.3002 106.3 76.8002 109.8H82.7002C83.3002 109.8 83.8002 109.9 84.1002 110.1C84.8002 110.5 85.0002 111.1 84.3002 111.6" stroke="#171A21" stroke-width="2" stroke-miterlimit="10" stroke-linecap="round" stroke-linejoin="round"/>
<path d="M2.40022 119.4C1.70022 119 1.50022 118.4 2.20022 117.9L14.3002 108.5C15.1002 107.9 16.5002 107.9 17.4002 108.4C17.5002 108.4 17.5002 108.5 17.6002 108.5L29.8002 117.9C30.8002 118.7 29.8002 119.8 28.2002 119.8H22.7002C23.8002 121.4 25.5002 122.9 27.6002 124.1C36.3002 129.1 50.5002 129.1 59.2002 124.1C60.1002 123.6 61.5002 123.7 62.2002 124.1C62.3002 124.1 62.3002 124.2 62.3002 124.2" stroke="#171A21" stroke-width="2" stroke-miterlimit="10" stroke-linecap="round" stroke-linejoin="round"/>
<path d="M94.7 75.0001C95 75.1001 95.1001 75.5001 94.8001 75.8001C94.4001 76.1001 91.3 77.6001 86.2 74.6001C81 71.6001 77.1001 65.3001 75.9001 62.9001C75.6001 62.4001 75.8001 62.3001 76.0001 62.4001C76.1001 62.4001 76.1 62.5001 76.2 62.6001C78.6 65.7001 81.9001 69.9001 86.4001 72.6001C88.8001 74.0001 91.5 74.9001 94.6 75.0001C94.6 74.9001 94.6 74.9001 94.7 75.0001ZM93.6 73.4001C93.9 73.5001 94.4001 73.8001 94.9001 74.0001C95.4001 74.3001 95.8001 74.6001 96.0001 74.9001C96.3001 75.6001 95.5001 77.4001 95.4001 77.7001C95.3001 77.9001 95.4001 78.0001 95.5001 78.1001C95.6001 78.1001 95.7001 78.1001 95.8001 78.1001C96.1001 78.0001 96.5001 77.6001 96.9001 76.9001C97.2001 76.2001 97.4 75.0001 97.2 74.7001C97 74.3001 96.3 73.8001 95.7 73.4001C95.4 73.2001 95.2001 73.1001 95.0001 73.0001C94.2001 72.7001 93 72.5001 93.1 72.9001" fill="#9AF4DC"/>
<path d="M88.4004 57.7V57.3C88.4004 56.5 88.5004 55.6 88.1004 54.7C87.7004 53.9 87.1004 53.2 86.5004 52.9C85.4004 52.3 84.4004 52.3 84.1004 53.6C84.1004 53.9 83.9004 54.1 83.6004 53.9L80.8004 51.9C80.6004 51.7 80.3004 51.3 80.4004 50.9C81.1004 47.3 84.2004 47.9 87.0004 49.5C88.4004 50.3 90.3004 51.8 91.4004 53.7C92.8004 56 92.7004 58 92.7004 60.2V65.4C92.7004 67 93.3004 68 93.8004 69.2C94.0004 69.6 94.0004 70 93.8004 70.1C93.2004 70.3 92.1004 70.8 91.5004 71C91.4004 71 91.2004 71 91.1004 70.9C91.0004 70.8 90.9004 70.7 90.8004 70.6C89.8004 69.1 89.7004 68.6 89.1004 67.4C87.5004 68.4 86.4004 68.3 84.3004 67.1C81.8004 65.7 79.9004 62.8 79.9004 59.3C79.9004 56.6 81.2004 55.5 83.0004 55.6C84.5004 55.8 86.7004 57 88.4004 57.7ZM87.8004 64.4C88.4004 63.6 88.4004 62.5 88.4004 61.1V60.4C86.3004 59.2 84.0004 58.4 84.0004 61.3C84.0004 62.8 84.6004 64.1 85.8004 64.8C86.6004 65.3 87.3004 65.1 87.8004 64.4Z" fill="#9AF4DC"/>
</svg>
