<svg width="144" height="144" viewBox="0 0 144 144" fill="none" xmlns="http://www.w3.org/2000/svg">
<path d="M132.1 83.0001C132.1 82.9001 132.1 82.9001 132.1 82.9001C132.1 82.8001 132.1 82.8001 132.1 82.7001V82.6001C132.1 82.6001 132.1 82.6001 132.1 82.5001C132.1 82.5001 132.1 82.5001 132.1 82.4001C132.1 82.3001 132.1 82.3001 132.1 82.2001V82.1001V82.0001V81.9001V81.8001C132.1 81.8001 132.1 81.8001 132.1 81.7001C132.1 81.7001 132.1 81.7001 132.1 81.6001C132.1 81.6001 132.1 81.6001 132.1 81.5001C132.1 81.5001 132.1 81.5001 132.1 81.4001C132.1 81.4001 132.1 81.4001 132.1 81.3001C132.1 81.2001 132 81.2001 132 81.1001C132 81.1001 132 81.0001 131.9 81.0001L131.8 80.9001L131.7 80.8001L131.6 80.7001C131.6 80.7001 131.6 80.7001 131.5 80.6001C131.4 80.5001 131.4 80.5001 131.3 80.4001C131.2 80.3001 131.2 80.3001 131.1 80.2001C131 80.1001 130.9 80.1001 130.9 80.0001C130.8 79.9001 130.7 79.8001 130.6 79.8001C130.6 79.8001 130.6 79.8001 130.5 79.8001C130.3 79.7001 130.2 79.6001 130 79.4001C130 79.4001 129.9 79.4001 129.9 79.3001C129.8 79.2001 129.7 79.2001 129.7 79.1001C129.6 79.0001 129.5 79.0001 129.4 78.9001L129.3 78.8001C129.2 78.7001 129.1 78.6001 128.9 78.6001C128.8 78.5001 128.7 78.5001 128.7 78.4001L128.6 78.3001C128.4 78.2001 128.3 78.1001 128.1 78.0001C128 78.0001 127.9 77.9001 127.9 77.9001C127.8 77.9001 127.8 77.8001 127.7 77.8001C127.5 77.7001 127.3 77.5001 127 77.4001C126.9 77.3001 126.8 77.3001 126.7 77.2001C126.6 77.2001 126.5 77.1001 126.4 77.1001C126.3 77.1001 126.3 77.0001 126.2 77.0001C126 76.9001 125.8 76.8001 125.6 76.7001C125.6 76.7001 125.5 76.7001 125.5 76.6001C125.4 76.6001 125.3 76.5001 125.2 76.5001C125.1 76.4001 124.9 76.4001 124.8 76.3001C124.7 76.2001 124.5 76.2001 124.4 76.2001C124.4 76.2001 124.4 76.2001 124.3 76.2001C124.3 76.2001 124.3 76.2001 124.2 76.2001C124 76.2001 123.9 76.1001 123.7 76.1001C123.5 76.1001 123.3 76.0001 123.1 76.0001C123.1 76.0001 123.1 76.0001 123 76.0001C122.8 76.0001 122.6 75.9001 122.4 75.9001C122.4 75.9001 122.4 75.9001 122.3 75.9001C122.1 75.9001 122 75.9001 121.8 75.8001C121.7 75.8001 121.5 75.8001 121.4 75.8001C121.4 75.8001 121.4 75.8001 121.3 75.8001C121.2 75.8001 121.1 75.8001 121.1 75.8001C121.1 75.8001 121.1 75.8001 121 75.8001C120.9 75.8001 120.9 75.8001 120.8 75.8001C120.8 75.8001 120.8 75.8001 120.7 75.8001C120.6 75.8001 120.6 75.8001 120.5 75.9001C120.4 75.9001 120.4 75.9001 120.3 76.0001L112.9 80.3001C112.6 80.2001 112.2 80.1001 111.9 80.0001H111.8C111.1 79.8001 110.5 79.6001 109.8 79.4001C109.6 79.3001 109.5 79.3001 109.3 79.2001C108.8 79.0001 108.3 78.8001 107.8 78.6001C107.7 78.5001 107.5 78.5001 107.4 78.4001C106.8 78.2001 106.2 77.9001 105.6 77.6001C105.5 77.5001 105.3 77.5001 105.2 77.4001C104.7 77.2001 104.3 77.0001 103.8 76.8001C103.6 76.7001 103.5 76.6001 103.3 76.6001C102.8 76.3001 102.3 76.1001 101.8 75.8001C101.7 75.8001 101.7 75.7001 101.6 75.7001C101.1 75.4001 100.7 75.2001 100.2 74.9001C99.4 74.4001 98.6 73.9001 97.8 73.4001C97.6 73.3001 97.5 73.2001 97.3 73.1001C96.7 72.7001 96.1 72.3001 95.5 71.9001C95.2 71.7001 95 71.5001 94.7 71.4001C94.2 71.1001 93.7 70.7001 93.3 70.3001C93 70.1001 92.8 69.9001 92.5 69.7001C92.1 69.4001 91.6 69.0001 91.2 68.6001C90.9 68.4001 90.6 68.1001 90.3 67.9001C89.9 67.6001 89.5 67.2001 89.1 66.9001C88.8 66.6001 88.5 66.3001 88.1 66.1001C87.8 65.8001 87.4 65.5001 87.1 65.2001C86.7 64.9001 86.4 64.5001 86 64.2001C85.7 63.9001 85.4 63.6001 85.1 63.3001C84.7 62.9001 84.3 62.5001 83.9 62.1001C83.6 61.8001 83.4 61.5001 83.1 61.3001C82.6 60.8001 82.2 60.4001 81.8 59.9001C81.5 59.6001 81.3 59.4001 81.1 59.1001C80.6 58.5001 80 57.9001 79.5 57.3001C79.3 57.1001 79.1 56.8001 78.9 56.6001C78.7 56.4001 78.5 56.2001 78.4 56.0001C78 55.6001 77.7 55.2001 77.3 54.7001C77.1 54.5001 76.9 54.3001 76.8 54.0001C76.5 53.7001 76.3 53.4001 76 53.1001C75.5 52.5001 75 51.9001 74.5 51.2001C74.3 51.0001 74.2 50.8001 74 50.6001C73.4 49.8001 72.8 49.0001 72.2 48.3001C71.8 47.9001 71.5 47.4001 71.2 47.0001C71.1 46.9001 71 46.7001 70.9 46.6001C70.5 46.0001 70 45.5001 69.6 44.9001L51 53.8001H51.1H51.2H51.3C51.4 53.8001 51.4 53.8001 51.5 53.9001C51.6 54.0001 51.7 54.0001 51.8 54.1001C51.9 54.2001 52 54.3001 52 54.4001C52.4 54.9001 52.9 55.5001 53.3 56.1001C53.4 56.3001 53.5 56.4001 53.7 56.6001C54 57.0001 54.3 57.4001 54.6 57.8001C54.6 57.8001 54.6 57.9001 54.7 57.9001C55.3 58.7001 55.9 59.4001 56.5 60.2001C56.7 60.4001 56.8 60.6001 57 60.8001C57.5 61.4001 58 62.0001 58.5 62.7001C58.6 62.9001 58.7 63.0001 58.9 63.1001C59 63.2001 59.2 63.4001 59.3 63.6001C59.5 63.8001 59.7 64.0001 59.9 64.3001C60.3 64.7001 60.6 65.1001 61 65.6001C61.2 65.8001 61.4 66.0001 61.5 66.2001C61.6 66.3001 61.6 66.4001 61.7 66.5001C61.8 66.6001 62 66.8001 62.1 66.9001C62.6 67.5001 63.2 68.1001 63.7 68.7001C63.8 68.8001 64 69.0001 64.1 69.1001C64.2 69.2001 64.3 69.4001 64.5 69.5001C64.9 70.0001 65.4 70.4001 65.8 70.9001C66 71.1001 66.2 71.3001 66.3 71.5001C66.4 71.6001 66.5 71.7001 66.6 71.8001C67 72.2001 67.4 72.6001 67.8 73.0001C68 73.2001 68.2 73.5001 68.5 73.7001C68.6 73.8001 68.6 73.8001 68.7 73.9001C69.1 74.2001 69.4 74.6001 69.8 74.9001C70.1 75.2001 70.3 75.4001 70.6 75.7001C70.7 75.8001 70.7 75.8001 70.8 75.9001C71.1 76.2001 71.4 76.5001 71.8 76.7001C72.1 77.0001 72.4 77.3001 72.7 77.5001C72.8 77.6001 72.9 77.6001 73 77.7001C73.3 77.9001 73.6 78.2001 73.9 78.4001C74.2 78.7001 74.5 78.9001 74.8 79.2001C74.9 79.3001 75.1 79.4001 75.2 79.5001C75.5 79.7001 75.7 79.9001 76 80.1001C76.3 80.3001 76.5 80.5001 76.8 80.7001C77 80.9001 77.3 81.0001 77.5 81.2001C77.8 81.4001 78 81.6001 78.3 81.7001C78.5 81.8001 78.6 81.9001 78.8 82.0001C79.2 82.3001 79.6 82.6001 80.1 82.8001C80.3 82.9001 80.4 83.0001 80.6 83.1001L80.7 83.2001C81.3 83.6001 81.9 84.0001 82.6 84.3001C82.7 84.4001 82.9 84.5001 83 84.6001C83.5 84.9001 83.9 85.1001 84.4 85.4001C84.5 85.4001 84.5 85.5001 84.6 85.5001C85.1 85.8001 85.6 86.0001 86.1 86.3001C86.2 86.3001 86.3 86.4001 86.3 86.4001C86.4 86.4001 86.5 86.5001 86.6 86.5001C87 86.7001 87.5 86.9001 88 87.1001C88.1 87.1001 88.2 87.2001 88.3 87.2001H88.4C89 87.5001 89.6 87.7001 90.2 88.0001H90.3C90.4 88.0001 90.5 88.1001 90.6 88.1001C91.1 88.3001 91.6 88.5001 92.1 88.7001C92.2 88.7001 92.3 88.8001 92.4 88.8001C92.5 88.8001 92.5 88.8001 92.6 88.9001C93.2 89.1001 93.9 89.3001 94.6 89.5001H94.7C95.3 89.7001 96 89.9001 96.7 90.0001C96.8 90.0001 96.9 90.1001 97 90.1001C97.1 90.1001 97.1 90.1001 97.2 90.1001C97.9 90.3001 98.7 90.5001 99.4 90.6001H99.5C99.6 90.6001 99.6 90.6001 99.7 90.6001C100.5 90.8001 101.4 90.9001 102.2 91.0001H102.3C102.3 91.0001 102.3 91.0001 102.4 91.0001C102.6 91.0001 102.8 91.1001 103.1 91.1001C103.4 91.1001 103.8 91.2001 104.1 91.2001C104.3 91.2001 104.6 91.2001 104.8 91.3001C105.1 91.3001 105.3 91.4001 105.6 91.4001H105.7C106.3 91.4001 107 91.5001 107.6 91.5001C107.7 91.5001 107.8 91.5001 107.9 91.6001C108 91.6001 108.1 91.7001 108.2 91.7001C108.4 91.8001 108.6 92.0001 108.7 92.1001C108.8 92.2001 108.8 92.3001 108.9 92.4001C108.9 92.5001 109 92.6001 109 92.7001C109 92.8001 109 92.9001 109 93.0001C109 93.1001 109 93.2001 108.9 93.3001C108.9 93.4001 108.8 93.5001 108.7 93.6001C108.7 93.6001 108.7 93.6001 108.7 93.7001C108.6 93.8001 108.5 93.9001 108.4 94.0001C108.3 94.0001 108.3 94.1001 108.2 94.2001C108.1 94.3001 108 94.3001 107.9 94.4001L114.8 90.4001C114.9 90.5001 115 90.6001 115 90.7001C115.1 90.8001 115.2 91.0001 115.3 91.1001C115.3 91.2001 115.4 91.3001 115.4 91.3001C115.4 91.4001 115.4 91.5001 115.5 91.6001C115.5 91.7001 115.5 91.8001 115.5 91.9001C115.5 92.0001 115.5 92.1001 115.5 92.2001C115.5 92.2001 115.5 92.2001 115.5 92.3001C115.5 92.4001 115.5 92.5001 115.5 92.6001V92.7001C115.5 92.8001 115.5 92.9001 115.5 93.1001C115.5 93.1001 115.5 93.1001 115.5 93.2001C115.5 93.3001 115.5 93.5001 115.5 93.6001V93.7001C115.5 93.9001 115.5 94.0001 115.4 94.2001C115.4 94.3001 115.4 94.3001 115.4 94.4001C115.4 94.6001 115.3 94.9001 115.3 95.1001V95.2001C115.2 95.5001 115.2 95.8001 115.1 96.1001V96.2001C115 96.5001 114.9 96.8001 114.8 97.1001V97.2001C114.7 97.4001 114.6 97.6001 114.6 97.8001C114.5 98.0001 114.4 98.2001 114.3 98.3001C114.3 98.3001 114.3 98.4001 114.2 98.4001C114.1 98.6001 114 98.7001 113.9 98.9001C113.7 99.1001 113.6 99.4001 113.4 99.6001L113.3 99.7001C113.1 99.9001 113 100 112.8 100.2C112.6 100.4 112.5 100.5 112.3 100.6L112.2 100.7C112 100.8 111.9 100.9 111.8 101L128.5 91.3001C128.6 91.2001 128.8 91.1001 128.9 91.0001L129 90.9001C129.2 90.8001 129.3 90.6001 129.5 90.5001C129.6 90.4001 129.8 90.2001 130 90.0001L130.1 89.9001C130.3 89.7001 130.4 89.5001 130.6 89.2001C130.7 89.0001 130.8 88.9001 130.9 88.7001C130.9 88.7001 130.9 88.6001 131 88.6001C131.1 88.5001 131.1 88.4001 131.2 88.3001C131.2 88.2001 131.3 88.2001 131.3 88.1001C131.4 87.9001 131.5 87.7001 131.5 87.5001C131.5 87.5001 131.5 87.5001 131.5 87.4001C131.5 87.4001 131.5 87.4001 131.5 87.3001C131.6 87.0001 131.7 86.7001 131.8 86.4001C131.8 86.4001 131.8 86.4001 131.8 86.3001C131.9 86.0001 132 85.7001 132 85.4001C132 85.4001 132 85.4001 132 85.3001C132.1 85.1001 132.1 84.8001 132.1 84.6001C132.1 84.6001 132.1 84.6001 132.1 84.5001V84.4001C132.1 84.2001 132.2 84.1001 132.2 83.9001V83.8001C132.2 83.7001 132.2 83.5001 132.2 83.4001C132.2 83.4001 132.2 83.4001 132.2 83.3001C132.1 83.3001 132.1 83.1001 132.1 83.0001Z" fill="#9AF4DC"/>
<path d="M121.9 66.5C121.9 66.4 121.9 66.4 121.9 66.5C121.9 66.4 121.9 66.4 121.9 66.5C121.9 66.4 121.9 66.4 121.9 66.3V66.2V66.1V66V65.9V65.8V65.7C121.9 65.7 121.9 65.7 121.9 65.6V65.5V65.4001C121.9 65.4001 121.9 65.4001 121.9 65.3001C121.9 65.3001 121.9 65.3 121.9 65.2C121.9 65.2 121.9 65.1 121.8 65.1C121.8 65.1 121.8 65 121.7 65V64.9001C121.4 64.3001 121.2 63.8 120.9 63.2001C120.7 62.9001 120.6 62.5 120.4 62.2001C120.2 61.8 120.1 61.5 119.9 61.1V61C119.7 60.6 119.6 60.2001 119.4 59.8V59.7001C119.3 59.3 119.1 58.8001 119 58.4001C119 58.4001 119 58.4 119 58.3C118.9 57.8 118.8 57.4001 118.7 56.9001C118.7 56.9001 118.7 56.9 118.7 56.8C118.6 56.3 118.5 55.8 118.5 55.3C118.5 55.3 118.5 55.3 118.5 55.2001C118.5 54.7001 118.4 54.1 118.4 53.5V37.7001C118.4 37.3 118.4 37 118.4 36.7001C118.4 36.4001 118.4 36.2001 118.4 35.9001C118.4 35.7001 118.4 35.4001 118.4 35.2001C118.4 35.1001 118.4 35.1 118.4 35C118.4 34.9001 118.4 34.9 118.4 34.8C118.4 34.4 118.4 34.1001 118.4 33.7001C118.4 33.5 118.4 33.4001 118.4 33.2001C118.4 32.9001 118.4 32.5 118.4 32.2001C118.4 32.1 118.4 32 118.4 31.9V31.8C118.4 31.3 118.4 30.9 118.3 30.4C118.3 30.1 118.3 29.9 118.2 29.6C118.2 29.5 118.2 29.3001 118.2 29.2001C118.2 28.9001 118.1 28.5 118.1 28.2001V28.1C118.1 28 118.1 27.9 118.1 27.8C118.1 27.6 118.1 27.5 118 27.3C118 27.2 118 27 117.9 26.9C117.9 26.8 117.9 26.7001 117.9 26.7001C117.9 26.6 117.9 26.6 117.9 26.5C117.9 26.3 117.8 26 117.8 25.8V25.7001C117.8 25.6 117.8 25.6 117.8 25.5C117.8 25.4 117.7 25.2001 117.7 25.1C117.6 24.9 117.6 24.7001 117.5 24.5C117.5 24.5 117.5 24.5 117.5 24.4V24.3C117.5 24.1 117.4 24 117.4 23.8C117.3 23.6 117.3 23.4001 117.2 23.2001C117.2 23.2001 117.2 23.2001 117.2 23.1V23C117.2 22.9 117.1 22.7001 117.1 22.6C117 22.4 117 22.2001 116.9 22.1C116.9 22 116.8 22 116.8 21.9V21.8C116.8 21.7 116.7 21.7001 116.7 21.6C116.6 21.4 116.6 21.3001 116.5 21.1C116.4 20.9 116.4 20.8001 116.3 20.6C116.2 20.4 116.1 20.2001 116 20C115.9 19.8 115.8 19.6 115.7 19.3C115.7 19.3 115.7 19.2001 115.6 19.2001C115.4 18.9001 115.2 18.5 115 18.2001C115 18.1 114.9 18.1 114.9 18C114.7 17.6 114.4 17.2 114.1 16.8L114 16.7C113.9 16.6 113.8 16.5 113.8 16.4C113.7 16.2 113.5 16 113.4 15.8C113.4 15.7 113.3 15.7 113.3 15.6C113.2 15.4 113 15.3 112.9 15.1C112.9 15 112.8 15 112.8 14.9C112.8 14.9 112.8 14.9 112.8 14.8C112.6 14.6 112.4 14.3 112.2 14.1L112.1 14C112 13.9 112 13.9 111.9 13.8C111.8 13.7 111.7 13.5 111.6 13.4C111.5 13.3 111.5 13.2 111.4 13.2C111.3 13.1 111.2 13 111.1 12.9C111 12.8 111 12.8 110.9 12.7C110.8 12.6 110.7 12.5 110.6 12.4C110.5 12.3 110.4 12.2 110.3 12.1L110.2 12C110.1 11.9 110 11.8 109.8 11.6C109.7 11.5 109.5 11.3 109.4 11.2L109.3 11.1C109.2 11 109.1 10.9 109 10.8C108.8 10.6 108.7 10.5 108.5 10.3L108.4 10.2C108.3 10.1 108.2 10 108.1 10C107.9 9.80005 107.7 9.60005 107.5 9.50005C107.4 9.50005 107.4 9.40005 107.3 9.40005C107.2 9.30005 107.2 9.30005 107.1 9.20005C106.9 9.00005 106.7 8.80005 106.4 8.70005C106.3 8.60005 106.3 8.60005 106.2 8.50005L106.1 8.40005C105.8 8.20005 105.6 8.00005 105.3 7.80005C105.2 7.80005 105.2 7.70005 105.1 7.70005C104.8 7.40005 104.4 7.20005 104.1 7.00005C104.1 7.00005 104.1 7.00005 104 7.00005C103.9 7.00005 103.9 6.90005 103.8 6.90005C103.5 6.70005 103.3 6.60005 103 6.40005L102.9 6.30005C102.8 6.30005 102.8 6.20005 102.7 6.20005C102.5 6.10005 102.3 5.90005 102 5.80005C101.9 5.80005 101.9 5.70005 101.8 5.70005C101.7 5.70005 101.6 5.60005 101.6 5.60005C101.3 5.40005 100.9 5.20005 100.6 5.00005C100.2 4.80005 99.8002 4.60005 99.4002 4.40005C99.4002 4.40005 99.3002 4.40005 99.3002 4.30005C99.2002 4.20005 99.1002 4.20005 99.0002 4.20005C98.8002 4.10005 98.5002 4.00005 98.3002 3.90005C98.2002 3.90005 98.2002 3.80005 98.1002 3.80005C98.0002 3.80005 97.9002 3.70005 97.8002 3.70005C97.6002 3.60005 97.4002 3.50005 97.2002 3.40005C97.1002 3.40005 97.1002 3.30005 97.0002 3.30005C96.9002 3.30005 96.8002 3.20005 96.7002 3.20005C96.5002 3.10005 96.3002 3.10005 96.1002 3.00005C96.0002 3.00005 95.9002 2.90005 95.9002 2.90005C95.8002 2.90005 95.7002 2.80005 95.6002 2.80005C95.4002 2.70005 95.3002 2.70005 95.1002 2.60005C95.0002 2.60005 94.9002 2.50005 94.9002 2.50005C94.8002 2.50005 94.7002 2.40005 94.6002 2.40005C94.4002 2.40005 94.3002 2.30005 94.1002 2.30005C94.0002 2.30005 94.0002 2.30005 93.9002 2.20005C93.8002 2.20005 93.7002 2.20005 93.6002 2.10005C93.5002 2.10005 93.3002 2.00005 93.2002 2.00005C93.1002 2.00005 93.1002 2.00005 93.0002 2.00005C92.9002 2.00005 92.8002 2.00005 92.6002 1.90005C92.5002 1.90005 92.3002 1.90005 92.2002 1.80005H92.1002C92.0002 1.80005 91.8002 1.80005 91.7002 1.80005C91.6002 1.80005 91.4002 1.80005 91.3002 1.80005H91.2002C91.0002 1.80005 90.9002 1.80005 90.7002 1.80005C90.6002 1.80005 90.5002 1.80005 90.3002 1.80005C90.3002 1.80005 90.3002 1.80005 90.2002 1.80005C90.0002 1.80005 89.9002 1.80005 89.7002 1.80005C89.6002 1.80005 89.4002 1.80005 89.3002 1.80005C89.2002 1.80005 89.1002 1.80005 89.0002 1.80005C88.8002 1.80005 88.6002 1.80005 88.4002 1.90005C88.4002 1.90005 88.4002 1.90005 88.3002 1.90005C88.2002 1.90005 88.2002 1.90005 88.1002 1.90005C87.8002 2.00005 87.6002 2.00005 87.3002 2.10005C87.3002 2.10005 87.2002 2.10005 87.1002 2.10005C87.0002 2.10005 86.9002 2.20005 86.8002 2.20005C86.7002 2.20005 86.7002 2.30005 86.6002 2.30005C86.4002 2.40005 86.1002 2.50005 85.9002 2.70005L69.2002 12.4C69.4002 12.3 69.7002 12.2 69.9002 12C70.0002 12 70.0002 11.9 70.1002 11.9C70.2002 11.8 70.4002 11.8 70.5002 11.7C70.7002 11.6 71.0002 11.6 71.3002 11.5C71.4002 11.5 71.5002 11.5 71.5002 11.4C71.7002 11.4 71.9002 11.3 72.1002 11.3C72.2002 11.3 72.3002 11.3 72.4002 11.3C72.5002 11.3 72.7002 11.3 72.8002 11.3C73.0002 11.3 73.1002 11.3 73.3002 11.3C73.4002 11.3 73.5002 11.3 73.7002 11.3C73.9002 11.3 74.1002 11.3 74.3002 11.3C74.4002 11.3 74.6002 11.3 74.7002 11.3C74.9002 11.3 75.1002 11.3 75.3002 11.4C75.4002 11.4 75.6002 11.4 75.7002 11.5C75.9002 11.5 76.1002 11.6 76.3002 11.6C76.4002 11.6 76.6002 11.7 76.7002 11.7C76.9002 11.7 77.1002 11.8 77.2002 11.8C77.4002 11.8 77.5002 11.9 77.7002 11.9C77.9002 12 78.1002 12 78.2002 12.1C78.4002 12.2 78.5002 12.2 78.7002 12.3C78.9002 12.4 79.0002 12.4 79.2002 12.5C79.4002 12.6 79.6002 12.6 79.8002 12.7C80.0002 12.8 80.1002 12.8 80.3002 12.9C80.5002 13 80.7002 13.1 80.9002 13.2C81.1002 13.3 81.2002 13.3 81.4002 13.4C81.6002 13.5 81.9002 13.6 82.1002 13.7C82.2002 13.8 82.4002 13.8 82.5002 13.9C82.9002 14.1 83.3002 14.3 83.7002 14.5C84.0002 14.7 84.4002 14.9 84.7002 15.1C84.8002 15.2 85.0002 15.3 85.1002 15.4C85.3002 15.5 85.5002 15.7 85.8002 15.8C85.9002 15.9 86.0002 15.9 86.1002 16C86.3002 16.2 86.6002 16.3 86.9002 16.5C87.0002 16.6 87.1002 16.6 87.2002 16.7C87.5002 16.9 87.9002 17.2 88.2002 17.4C88.3002 17.5 88.4002 17.5 88.4002 17.6C88.6002 17.7 88.8002 17.9 89.0002 18L78.1002 24.3C77.9002 24.4 77.7002 24.6 77.5002 24.7001C77.3002 24.9001 77.2002 25.1 77.0002 25.3C76.9002 25.4 76.8002 25.6 76.8002 25.7001C76.8002 25.8001 76.7002 25.9 76.7002 25.9C76.7002 25.9 76.7002 26 76.6002 26C76.6002 26.1 76.5002 26.2 76.5002 26.4V26.5C76.5002 26.6 76.5002 26.7 76.4002 26.8C76.4002 26.9 76.4002 26.9 76.4002 27C76.4002 27.1 76.4002 27.2 76.3002 27.3C76.3002 27.4 76.2002 27.5 76.2002 27.5C76.2002 27.6 76.1002 27.6 76.1002 27.7001C76.1002 27.7001 76.1002 27.8 76.0002 27.8C75.9002 27.9 75.9002 27.9 75.8002 28L90.8002 19.3C91.0002 19.4 91.1002 19.6 91.3002 19.7001C91.4002 19.8001 91.5002 19.9 91.7002 20C91.9002 20.2001 92.1002 20.3 92.2002 20.5C92.3002 20.6 92.5002 20.7 92.6002 20.9C92.7002 21 92.9002 21.2 93.0002 21.3C93.2002 21.5 93.3002 21.6 93.5002 21.8C93.6002 21.9 93.7002 22 93.8002 22.1C94.0002 22.3001 94.1002 22.5 94.3002 22.6C94.4002 22.7001 94.5002 22.8 94.6002 22.9C94.8002 23.1 95.0002 23.3 95.1002 23.5C95.2002 23.6 95.2002 23.6 95.3002 23.7001C95.5002 24 95.8002 24.3001 96.0002 24.6C96.0002 24.7001 96.1002 24.7 96.1002 24.8C96.3002 25 96.4002 25.2001 96.6002 25.5C96.7002 25.6 96.8002 25.8 96.9002 25.9C96.4002 25.7 96.0002 25.6 95.6002 25.4H95.5002C95.4002 25.4 95.4002 25.4 95.3002 25.3C94.9002 25.2 94.5002 25 94.1002 24.9C94.0002 24.9 94.0002 24.9 93.9002 24.8H93.8002C93.4002 24.7 93.0002 24.6 92.6002 24.5C92.5002 24.5 92.5002 24.5 92.5002 24.5C92.2002 24.4 91.9002 24.4 91.6002 24.3C91.6002 24.3 91.6002 24.3 91.5002 24.3C91.4002 24.3 91.2002 24.3001 91.1002 24.2001C90.9002 24.2001 90.8002 24.1 90.6002 24.1C90.6002 24.1 90.6002 24.1 90.5002 24.1C90.2002 24.1 89.9002 24 89.7002 24H89.6002C89.5002 24 89.5002 24 89.4002 24C89.2002 24 89.0002 24 88.8002 24H88.7002C88.6002 24 88.6002 24 88.5002 24C88.3002 24 88.1002 24 87.9002 24C87.8002 24 87.8002 24 87.7002 24H87.6002C87.3002 24 87.0002 24.1 86.8002 24.1C86.8002 24.1 86.8002 24.1 86.7002 24.1C86.4002 24.2001 86.1002 24.3 85.7002 24.4H85.6002C85.5002 24.4 85.3002 24.5 85.2002 24.6C85.1002 24.6 85.1002 24.7001 85.0002 24.7001C84.8002 24.8001 84.6002 24.9 84.4002 25L67.7002 34.7001C67.9002 34.6001 68.1002 34.5 68.3002 34.4001C68.4002 34.4001 68.4002 34.3 68.5002 34.3C68.6002 34.2001 68.8002 34.2 68.9002 34.1H69.0002C69.3002 34 69.6002 33.9 70.0002 33.8C70.0002 33.8 70.0002 33.8 70.1002 33.8C70.4002 33.7 70.7002 33.7001 70.9002 33.7001C71.0002 33.7001 71.1002 33.7001 71.1002 33.7001C71.3002 33.7001 71.5002 33.7001 71.7002 33.7001C71.8002 33.7001 71.9002 33.7001 72.0002 33.7001C72.2002 33.7001 72.4002 33.7001 72.6002 33.7001C72.7002 33.7001 72.8002 33.7001 72.9002 33.7001C73.2002 33.7001 73.5002 33.8 73.8002 33.8C74.0002 33.8 74.1002 33.9001 74.3002 33.9001C74.5002 33.9001 74.6002 34 74.8002 34C75.1002 34.1 75.4002 34.1001 75.7002 34.2001C75.8002 34.2001 75.8002 34.2001 75.9002 34.2001C76.3002 34.3 76.7002 34.4001 77.1002 34.5C77.2002 34.5 77.3002 34.6 77.4002 34.6C77.8002 34.7 78.2002 34.8 78.6002 35C78.7002 35 78.8002 35.1 78.9002 35.1C79.5002 35.3 80.1002 35.6 80.8002 35.8C80.9002 35.8 81.0002 35.9001 81.1002 35.9001C81.6002 36.1001 82.1002 36.3 82.6002 36.5C82.7002 36.5 82.8002 36.6 82.9002 36.6C83.4002 36.8 83.8002 37 84.3002 37.2001C84.4002 37.2001 84.4002 37.3 84.5002 37.3C84.9002 37.5 85.3002 37.7001 85.7002 37.9001C85.8002 38 85.9002 38 86.1002 38.1C86.4002 38.3 86.8002 38.4 87.1002 38.6C87.4002 38.7 87.7002 38.9001 88.0002 39C88.2002 39.1 88.3002 39.1001 88.5002 39.2001C88.6002 39.2001 88.6002 39.3 88.7002 39.3L78.7002 45.1C78.6002 45.2 78.4002 45.3001 78.3002 45.4001L78.2002 45.5C78.1002 45.6 78.0002 45.7001 77.9002 45.8C77.8002 45.9 77.7002 46 77.6002 46.2001V46.3C77.6002 46.4 77.5002 46.4001 77.5002 46.5C77.5002 46.6 77.4002 46.6001 77.4002 46.7001C77.4002 46.8 77.3002 46.8001 77.3002 46.9001C77.3002 46.9001 77.3002 47 77.2002 47V47.1C77.1002 47.2 77.1002 47.4001 77.1002 47.5V47.6V47.7001C77.1002 47.8 77.1002 47.9001 77.0002 48C77.0002 48.1 76.9002 48.3001 76.9002 48.4001C76.9002 48.4001 76.9002 48.4001 76.9002 48.5C76.9002 48.6 76.9002 48.7001 76.8002 48.8C76.8002 49 76.8002 49.1 76.7002 49.3C76.7002 49.3 76.7002 49.3001 76.7002 49.4001C76.7002 49.5 76.7002 49.7001 76.7002 49.8C76.7002 50 76.7002 50.2001 76.7002 50.4001C76.7002 50.6001 76.7002 50.7001 76.7002 50.9001C76.7002 51 76.7002 51.1001 76.7002 51.2001V51.3V51.4001C76.7002 51.6001 76.7002 51.7001 76.7002 51.9001C76.7002 52 76.7002 52 76.7002 52.1V52.2001C76.7002 52.3 76.7002 52.3001 76.7002 52.4001C76.7002 52.5 76.7002 52.7001 76.8002 52.8V52.9001V53C76.8002 53.1 76.8002 53.1001 76.8002 53.2001C76.8002 53.3 76.9002 53.5 76.9002 53.6V53.7001V53.8C76.9002 53.9 76.9002 53.9001 76.9002 54C76.9002 54.1 77.0002 54.2001 77.0002 54.4001V54.5C77.0002 54.5 77.0002 54.5 77.0002 54.6V54.7001C77.0002 54.8 77.1002 54.9001 77.1002 55C77.1002 55.1 77.1002 55.1001 77.2002 55.2001C77.2002 55.3 77.3002 55.4001 77.3002 55.5C77.3002 55.6 77.4002 55.7001 77.4002 55.8V55.9001C77.4002 55.9001 77.4002 56 77.5002 56C77.5002 56.1 77.6002 56.2001 77.6002 56.3C77.6002 56.4 77.7002 56.5 77.7002 56.6C77.7002 56.7 77.8002 56.8001 77.8002 56.9001C77.9002 57 77.9002 57.1001 78.0002 57.2001C78.0002 57.2001 78.0002 57.3 78.1002 57.3C78.1002 57.3 78.1002 57.3001 78.1002 57.4001C78.2002 57.6001 78.3002 57.7001 78.4002 57.9001L78.5002 58C78.6002 58.1 78.6002 58.2001 78.7002 58.3C78.8002 58.4 78.8002 58.5 78.9002 58.5C79.0002 58.6 79.0002 58.7001 79.1002 58.7001C79.2002 58.8 79.2002 58.8001 79.3002 58.9001L79.4002 59C79.4002 59 79.4002 59 79.5002 59.1C79.6002 59.2 79.6002 59.2001 79.7002 59.3C79.8002 59.4 79.8002 59.4001 79.9002 59.5C80.0002 59.6 80.0002 59.6001 80.1002 59.7001C80.2002 59.8 80.3002 59.8001 80.3002 59.9001L80.4002 60C80.4002 60 80.4002 60 80.5002 60C80.5002 60 80.6002 60 80.6002 60.1C80.7002 60.2 80.8002 60.2001 80.8002 60.3C80.9002 60.3 80.9002 60.4001 81.0002 60.4001C81.1002 60.5 81.2002 60.5 81.3002 60.6C81.4002 60.7 81.5002 60.7001 81.6002 60.8C81.6002 60.8 81.6002 60.8 81.7002 60.8C81.8002 60.8 81.8002 60.9001 81.9002 60.9001C82.0002 60.9001 82.1002 61 82.1002 61C82.2002 61 82.2002 61.1 82.3002 61.1C82.4002 61.1 82.5002 61.2001 82.5002 61.2001C82.6002 61.2001 82.7002 61.3 82.7002 61.3H82.8002H82.9002C83.0002 61.3 83.1002 61.3001 83.2002 61.4001C83.3002 61.4001 83.4002 61.4001 83.4002 61.5C83.5002 61.5 83.6002 61.5 83.7002 61.5C83.8002 61.5 83.9002 61.5 84.0002 61.5C84.1002 61.5 84.2002 61.5 84.2002 61.5C84.3002 61.5 84.4002 61.5 84.5002 61.5C84.5002 61.5 84.5002 61.5 84.6002 61.5C84.7002 61.5 84.9002 61.5 85.0002 61.4001C85.0002 61.4001 85.0002 61.4001 85.1002 61.4001C85.2002 61.4001 85.3002 61.4 85.3002 61.3C85.4002 61.3 85.4002 61.3 85.5002 61.2001C85.5002 61.2001 85.5002 61.2001 85.6002 61.2001C85.8002 61.1001 86.0002 61 86.2002 60.9001L101.7 51.9001V62.7001L91.1002 68.9C91.0002 68.9 91.0002 69 90.9002 69L101.7 62.7001V62.8C101.7 63 101.7 63.2001 101.7 63.4001C101.7 63.6001 101.7 63.8 101.7 64C101.7 64.1 101.7 64.3001 101.7 64.4001C101.7 64.4001 101.7 64.4001 101.7 64.5V64.6C101.7 64.8 101.7 65 101.8 65.1C101.8 65.3 101.8 65.4 101.9 65.6C101.9 65.7 101.9 65.8 102 66C102 66 102 66 102 66.1V66.2C102 66.4 102.1 66.5 102.1 66.7C102.1 66.9 102.2 67 102.2 67.2C102.2 67.3 102.3 67.4 102.3 67.5C102.3 67.5 102.3 67.5 102.3 67.6V67.7C102.3 67.9 102.4 68 102.4 68.2C102.5 68.4 102.5 68.5 102.6 68.7C102.6 68.8 102.6 68.8 102.7 68.9V69C102.7 69.1 102.8 69.1 102.8 69.2C102.9 69.4 102.9 69.6001 103 69.8C103.1 69.9 103.1 70.1 103.2 70.2V70.3V70.4C103.3 70.7001 103.4 70.9 103.5 71.2C103.5 71.3 103.6 71.3 103.6 71.4C103.8 71.7001 103.9 72.1 104.1 72.4C104.4 73 104.6 73.5 104.9 74.1C105 74.2 105 74.4 105.1 74.5C105.2 74.6 105.2 74.8 105.2 74.9C105.2 75 105.3 75.2001 105.3 75.3C105.3 75.4 105.3 75.5 105.3 75.7C105.3 75.8 105.3 75.9 105.3 76C105.3 76.1 105.3 76.2001 105.2 76.3C105.2 76.4 105.1 76.4 105.1 76.5C105 76.6 105 76.7 104.9 76.7L121.6 67C121.7 66.9 121.8 66.9 121.8 66.8V66.7C121.8 66.7 121.8 66.7 121.8 66.6C121.8 66.6 121.8 66.6 121.8 66.5C121.8 66.5 121.8 66.5 121.8 66.4C121.8 66.4 121.8 66.4 121.8 66.3C121.8 66.3 121.8 66.3 121.8 66.2C121.8 66.2 121.8 66.2 121.8 66.1C121.9 66.6 121.9 66.6 121.9 66.5ZM101.4 52.1C101.3 52.1 101.2 52.1 101.1 52.1C101.1 52.1 101.1 52.1 101 52.1C100.8 52.1 100.7 52.1 100.5 52.1C100.3 52.1 100.1 52.1 99.9002 52C99.7002 52 99.5002 51.9 99.3002 51.8C99.1002 51.7001 98.9002 51.7 98.7002 51.6C98.5002 51.5 98.3002 51.4 98.1002 51.3C97.9002 51.2001 97.7002 51.1001 97.5002 50.9001C97.3002 50.8001 97.1002 50.6 97.0002 50.5C97.0002 50.5 97.0002 50.5 96.9002 50.5C96.7002 50.4001 96.6002 50.2 96.4002 50.1C96.2002 49.9 96.1002 49.8 95.9002 49.6C95.7002 49.4 95.6002 49.2 95.4002 49.1C95.3002 48.9 95.1002 48.8 95.0002 48.6L94.9002 48.5C94.8002 48.3 94.7002 48.1001 94.5002 47.9001C94.5002 47.9001 94.5002 47.8 94.4002 47.8C94.3002 47.6 94.2002 47.4 94.1002 47.3C94.0002 47.1 93.9002 46.9 93.8002 46.6C93.7002 46.4 93.6002 46.1001 93.5002 45.9001C93.4002 45.7001 93.3002 45.5 93.3002 45.2001C93.3002 45.2001 93.3002 45.2 93.3002 45.1C93.2002 44.9 93.2002 44.6001 93.1002 44.4001V44.3C93.0002 44.1 93.0002 43.8 93.0002 43.6V43.5C93.0002 43.3 92.9002 43 92.9002 42.8V42.7001C92.9002 42.5 92.9002 42.2001 92.8002 42V41.9001C92.8002 41.7001 92.8002 41.4001 92.8002 41.2001C92.8002 40.8 92.8002 40.5 92.8002 40.2001C92.8002 40.2001 92.8002 40.2 92.8002 40.1C92.8002 39.8 92.9002 39.5 92.9002 39.2001C92.9002 39.2001 92.9002 39.2 92.9002 39.1C92.9002 38.8 93.0002 38.6001 93.1002 38.4001V38.3C93.2002 38.1 93.2002 37.9001 93.3002 37.7001L100.2 33.7001C100.3 33.9001 100.3 34.1001 100.4 34.4001V34.5C100.5 34.9001 100.6 35.2 100.7 35.6C100.7 35.7 100.7 35.7001 100.7 35.8C100.8 36.1 100.8 36.5 100.9 36.8C100.9 36.9 100.9 37 100.9 37C101 37.3 101 37.6001 101 37.9001C101 38 101 38.1001 101 38.2001C101 38.6001 101.1 38.9 101.1 39.3C101.1 39.4 101.1 39.6001 101.1 39.7001C101.1 40 101.1 40.2001 101.2 40.5C101.2 41 101.2 41.4001 101.3 41.9001C101.3 42 101.3 42.2001 101.3 42.3C101.3 42.6 101.3 43 101.3 43.3C101.3 43.5 101.3 43.6 101.3 43.8C101.3 44.2001 101.3 44.5 101.3 44.9001C101.3 45 101.3 45.2001 101.3 45.3C101.3 45.5 101.3 45.8 101.3 46C101.3 46.3 101.3 46.5 101.3 46.8C101.3 47 101.3 47.2001 101.3 47.4001C101.3 47.6001 101.3 47.7001 101.3 47.9001L101.4 52.1Z" fill="#9AF4DC"/>
<path d="M108 91.7001C108.8 92.1001 109.1 93.2001 108.2 94.0001C107 95.0001 97.8 99.4001 82.2 90.5001C66.7 81.5001 54.8 62.4001 51.2 55.3001C50.4 53.9001 50.9 53.6001 51.5 53.9001C51.7 54.0001 51.9 54.2001 52 54.4001C59.2 63.6001 69 76.4001 82.8 84.4001C89.9 88.5001 98.1 91.3001 107.4 91.6001C107.6 91.5001 107.8 91.6001 108 91.7001ZM104.8 87.1001C105.6 87.5001 107.2 88.2001 108.7 89.1001C110.1 89.9001 111.4 90.9001 111.9 91.8001C112.8 93.8001 110.4 99.2001 110 100.1C109.7 100.6 109.9 101.1 110.2 101.3C110.4 101.4 110.7 101.4 111 101.3C111.8 101 113.2 99.9001 114.2 97.8001C115.2 95.6001 115.7 92.2001 115.2 91.0001C114.7 89.9001 112.6 88.4001 110.6 87.2001C109.8 86.7001 109 86.3001 108.4 86.1001C106 85.1001 102.5 84.7001 102.8 85.8001" fill="white"/>
<path d="M107.4 91.5001C107.6 91.5001 107.8 91.6001 108 91.7001C108.8 92.1001 109.1 93.2001 108.2 94.0001C107 95.0001 97.8 99.4001 82.2 90.5001C66.7 81.5001 54.8 62.4001 51.2 55.3001C50.4 53.9001 50.9 53.6001 51.5 53.9001C51.7 54.0001 51.9 54.2001 52 54.4001M108.7 89.1001C110.1 89.9001 111.4 90.9001 111.9 91.8001C112.8 93.8001 110.4 99.2001 110 100.1C109.7 100.6 109.9 101.1 110.2 101.3C110.4 101.4 110.7 101.4 111 101.3C111.8 101 113.2 99.9001 114.2 97.8001" stroke="#171A21" stroke-width="2" stroke-miterlimit="10" stroke-linecap="round" stroke-linejoin="round"/>
<path d="M89.0999 39.9001V38.6001C89.0999 36.2001 89.2999 33.4001 88.0999 30.7001C86.9999 28.2001 84.9999 26.3001 83.1999 25.2001C79.7999 23.3001 76.7999 23.5001 76.0999 27.2001C75.9999 28.0001 75.3999 28.6001 74.5999 28.2001L66.0999 22.2001C65.3999 21.6001 64.5999 20.5001 64.7999 19.3001C66.7999 8.50014 76.1999 10.4001 84.4999 15.2001C88.7999 17.7001 94.3999 22.2001 97.6999 27.9001C102 35.0001 101.5 40.9001 101.5 47.5001V63.3001C101.5 68.0001 103.2 71.1001 104.8 74.6001C105.4 75.8001 105.5 77.0001 104.8 77.3001C103 78.0001 99.7999 79.3001 97.9999 80.1001C97.5999 80.2001 97.1999 80.1001 96.7999 79.9001C96.4999 79.7001 96.1999 79.4001 95.8999 79.1001C92.9999 74.6001 92.4999 73.0001 90.8999 69.4001C86.0999 72.3001 82.5999 72.0001 76.3999 68.4001C68.7999 64.1001 62.9999 55.5001 63.0999 45.0001C63.0999 36.8001 66.9999 33.4001 72.4999 33.9001C77.2999 34.2001 83.9999 37.7001 89.0999 39.9001ZM87.2999 60.0001C88.9999 57.5001 88.9999 54.2001 88.9999 50.2001V48.0001C82.5999 44.3001 75.8999 42.0001 75.8999 50.6001C75.8999 55.0001 77.7999 59.1001 81.1999 61.0001C83.6999 62.5001 85.8999 62.0001 87.2999 60.0001Z" fill="white"/>
<path d="M104.7 74.5001C105.3 75.7001 105.4 76.9001 104.7 77.2001C102.9 77.9001 99.7 79.2001 97.9 80.0001C97.5 80.1001 97.1 80.0001 96.7 79.8001C96.4 79.6001 96.1 79.3001 95.8 79.0001M83.1 25.2001C79.7 23.3001 76.7 23.5001 76 27.2001C75.9 28.0001 75.3 28.6001 74.5 28.2001L66 22.2001C65.3 21.6001 64.5 20.5001 64.7 19.3001C66.7 8.50014 76.1 10.4001 84.4 15.2001M63.4 49.7001C63.1 48.2001 63 46.6001 63 45.0001C63 36.8001 66.9 33.4001 72.4 33.9001" stroke="#171A21" stroke-width="2" stroke-miterlimit="10" stroke-linecap="round" stroke-linejoin="round"/>
<path d="M113.6 119.8C113.5 119.9 113.5 119.9 113.5 119.9C113.5 119.9 113.4 119.9 113.4 120C113.3 120 113.3 120.1 113.2 120.1C112.6 120.4 112 120.7 111.4 121C111.3 121.1 111.1 121.1 111 121.2C110.4 121.5 109.8 121.8 109.2 122.1C109.1 122.1 109 122.2 108.9 122.2C108.3 122.4 107.8 122.7 107.2 122.9C107.1 123 107 123 106.8 123.1C106.2 123.4 105.5 123.6 104.9 123.8C104.8 123.8 104.6 123.9 104.5 123.9C103.9 124.1 103.3 124.3 102.7 124.5C102.6 124.5 102.5 124.6 102.5 124.6C102.2 124.7 101.9 124.8 101.6 124.9C101.1 125.1 100.6 125.2 100.1 125.4C99.8004 125.5 99.4004 125.6 99.1004 125.7C98.6004 125.8 98.2004 126 97.7004 126.1C97.4004 126.2 97.0004 126.3 96.7004 126.3C96.2004 126.4 95.8004 126.5 95.3004 126.6C94.9004 126.7 94.6004 126.8 94.2004 126.8C93.7004 126.9 93.3004 127 92.8004 127.1C92.2004 127.2 91.5004 127.3 90.8004 127.4C90.8004 127.4 90.8004 127.4 90.7004 127.4C90.0004 127.5 89.3004 127.6 88.5004 127.7C88.3004 127.7 88.1004 127.8 87.9004 127.8C87.3004 127.9 86.6004 128 86.0004 128C85.9004 128 85.8004 128 85.7004 128C85.0004 128.1 84.2004 128.1 83.5004 128.2C83.4004 128.2 83.2004 128.2 83.1004 128.2C82.4004 128.3 81.7004 128.3 80.9004 128.3C80.8004 128.3 80.7004 128.3 80.5004 128.3C80.0004 128.3 79.5004 128.3 79.0004 128.3C78.5004 128.3 78.0004 128.3 77.6004 128.3C77.2004 128.3 76.8004 128.3 76.4004 128.3C75.9004 128.3 75.4004 128.3 74.9004 128.3C74.5004 128.3 74.1004 128.3 73.7004 128.3C73.2004 128.3 72.8004 128.3 72.3004 128.2C71.9004 128.2 71.5004 128.2 71.1004 128.1C70.6004 128.1 70.2004 128 69.7004 128C69.3004 128 68.9004 127.9 68.5004 127.9C68.0004 127.9 67.6004 127.8 67.1004 127.8C66.7004 127.8 66.3004 127.7 65.9004 127.7C65.4004 127.6 65.0004 127.6 64.5004 127.5C64.1004 127.4 63.7004 127.4 63.4004 127.3C62.9004 127.2 62.4004 127.1 61.8004 127.1C61.5004 127 61.1004 127 60.8004 126.9C60.2004 126.8 59.7004 126.7 59.1004 126.6C58.8004 126.5 58.5004 126.5 58.2004 126.4C58.1004 126.4 58.0004 126.4 58.0004 126.3C57.3004 126.2 56.7004 126 56.0004 125.8C55.9004 125.8 55.8004 125.8 55.7004 125.7C55.0004 125.5 54.3004 125.4 53.7004 125.2C53.6004 125.2 53.4004 125.1 53.3004 125.1C52.6004 124.9 52.0004 124.7 51.3004 124.5H51.2004C50.5004 124.3 49.9004 124.1 49.2004 123.8C49.0004 123.7 48.8004 123.7 48.6004 123.6C48.1004 123.4 47.6004 123.2 47.1004 123C46.9004 122.9 46.8004 122.9 46.6004 122.8C46.2004 122.6 45.8004 122.5 45.4004 122.3C45.1004 122.2 44.8004 122.1 44.5004 121.9C44.1004 121.7 43.7004 121.5 43.3004 121.3C43.0004 121.2 42.8004 121.1 42.5004 120.9C42.1004 120.7 41.6004 120.5 41.2004 120.2C41.0004 120.1 40.8004 120 40.5004 119.9C39.8004 119.6 39.2004 119.2 38.6004 118.8C31.7004 114.8 26.8004 109.9 24.5004 104.4H15.1004C14.9004 104.4 14.7004 104.4 14.5004 104.4C14.5004 104.4 14.5004 104.4 14.4004 104.4C14.2004 104.4 14.1004 104.3 13.9004 104.3H13.8004C13.6004 104.3 13.5004 104.2 13.3004 104.2C13.1004 104.1 13.0004 104.1 12.8004 104C12.2004 103.7 11.9004 103.2 11.9004 102.7V117.2C11.9004 117.7 12.2004 118.2 12.8004 118.5C12.9004 118.6 13.1004 118.7 13.3004 118.7C13.4004 118.7 13.5004 118.8 13.7004 118.8H13.8004H13.9004H14.0004C14.1004 118.8 14.2004 118.8 14.3004 118.9H14.4004C14.4004 118.9 14.4004 118.9 14.5004 118.9H14.6004C14.7004 118.9 14.8004 118.9 14.9004 118.9H15.0004H24.4004C26.8004 124.3 31.6004 129.3 38.5004 133.3C39.1004 133.7 39.8004 134 40.4004 134.4C40.6004 134.5 40.8004 134.6 41.1004 134.7C41.5004 134.9 42.0004 135.1 42.4004 135.4C42.7004 135.5 42.9004 135.6 43.2004 135.8C43.6004 136 44.0004 136.2 44.4004 136.4C44.7004 136.5 45.0004 136.6 45.3004 136.8C45.6004 136.9 45.9004 137.1 46.3004 137.2C46.4004 137.2 46.5004 137.3 46.6004 137.3C46.8004 137.4 46.9004 137.4 47.1004 137.5C47.6004 137.7 48.1004 137.9 48.6004 138.1C48.8004 138.2 49.0004 138.2 49.2004 138.3C49.9004 138.5 50.5004 138.8 51.2004 139H51.3004C51.8004 139.2 52.3004 139.3 52.8004 139.5C53.0004 139.5 53.1004 139.6 53.3004 139.6C53.4004 139.6 53.6004 139.7 53.7004 139.7C54.4004 139.9 55.1004 140.1 55.7004 140.2C55.8004 140.2 55.9004 140.2 56.0004 140.3C56.7004 140.5 57.3004 140.6 58.0004 140.8C58.1004 140.8 58.2004 140.8 58.2004 140.9H58.3004C58.5004 141 58.8004 141 59.0004 141C59.6004 141.1 60.1004 141.2 60.7004 141.3C61.0004 141.4 61.4004 141.4 61.7004 141.5C62.2004 141.6 62.7004 141.7 63.2004 141.7C63.3004 141.7 63.4004 141.7 63.5004 141.7C63.8004 141.7 64.1004 141.8 64.4004 141.8C64.9004 141.9 65.3004 141.9 65.8004 142C66.2004 142 66.6004 142.1 67.0004 142.1C67.5004 142.1 67.9004 142.2 68.4004 142.2C68.5004 142.2 68.7004 142.2 68.8004 142.2C69.1004 142.2 69.3004 142.2 69.6004 142.3C70.1004 142.3 70.5004 142.4 71.0004 142.4C71.4004 142.4 71.8004 142.4 72.2004 142.5C72.7004 142.5 73.1004 142.5 73.6004 142.6C73.8004 142.6 73.9004 142.6 74.1004 142.6C74.3004 142.6 74.6004 142.6 74.8004 142.6C75.3004 142.6 75.8004 142.6 76.3004 142.6C76.7004 142.6 77.1004 142.6 77.5004 142.6C78.0004 142.6 78.5004 142.6 78.9004 142.6C79.1004 142.6 79.3004 142.6 79.5004 142.6C79.8004 142.6 80.1004 142.6 80.4004 142.6C80.5004 142.6 80.6004 142.6 80.8004 142.6C81.5004 142.6 82.3004 142.5 83.0004 142.5C83.1004 142.5 83.3004 142.5 83.4004 142.5C84.1004 142.4 84.8004 142.4 85.5004 142.3H85.6004C85.7004 142.3 85.8004 142.3 85.9004 142.3C86.5004 142.2 87.2004 142.2 87.8004 142.1C88.0004 142.1 88.2004 142.1 88.4004 142C89.1004 141.9 89.9004 141.8 90.6004 141.7C90.6004 141.7 90.6004 141.7 90.7004 141.7C91.2004 141.6 91.8004 141.5 92.3004 141.4C92.4004 141.4 92.5004 141.3 92.7004 141.3C93.2004 141.2 93.6004 141.1 94.1004 141C94.5004 140.9 94.8004 140.9 95.2004 140.8C95.7004 140.7 96.1004 140.6 96.6004 140.5C96.9004 140.4 97.3004 140.3 97.6004 140.3C98.1004 140.2 98.6004 140 99.0004 139.9C99.3004 139.8 99.7004 139.7 100 139.6C100.5 139.5 101 139.3 101.5 139.1C101.7 139 102 139 102.3 138.9H102.4C102.5 138.9 102.6 138.8 102.6 138.8C103.2 138.6 103.8 138.4 104.4 138.2C104.5 138.2 104.7 138.1 104.8 138.1C105.4 137.9 106.1 137.6 106.7 137.4C106.8 137.3 106.9 137.3 107.1 137.2C107.7 137 108.2 136.7 108.8 136.5C108.9 136.5 109 136.4 109.1 136.4C109.7 136.1 110.3 135.8 110.9 135.5C111 135.4 111.2 135.4 111.3 135.3C111.9 135 112.5 134.7 113.1 134.4C113.1 134.4 113.2 134.4 113.2 134.3C113.2 134.3 113.2 134.3 113.3 134.3C113.3 134.3 113.4 134.3 113.4 134.2C113.4 134.2 113.5 134.2 113.5 134.1L113.6 134L113.7 133.9L113.8 133.8C113.8 133.8 113.8 133.8 113.8 133.7V133.6C113.8 133.6 113.8 133.6 113.8 133.5V133.4V133.3V133.2V133.1V120.1" fill="#9AF4DC"/>
<path d="M53.2008 119.5C53.3008 119.5 53.3008 119.5 53.4008 119.5H53.5008C53.6008 119.5 53.7008 119.5 53.8008 119.5C54.0008 119.5 54.2008 119.4 54.4008 119.4C54.5008 119.4 54.6008 119.3 54.7008 119.3H54.8008C54.9008 119.3 55.0008 119.2 55.1008 119.2C55.2008 119.2 55.2008 119.1 55.3008 119.1C55.4008 119.1 55.4008 119 55.5008 119C55.6008 118.9 55.6008 118.9 55.7008 118.8L55.8008 118.7V118.6C55.8008 118.6 55.8008 118.6 55.8008 118.5V118.4C55.8008 118.4 55.8008 118.4 55.8008 118.3V118.2C55.8008 118.2 55.8008 118.2 55.8008 118.1V103.6V103.7V103.8V103.9V104C55.8008 104 55.8008 104 55.8008 104.1V104.2C55.8008 104.2 55.8008 104.2 55.8008 104.3L55.7008 104.4C55.7008 104.4 55.7008 104.4 55.7008 104.5C55.7008 104.6 55.6008 104.6 55.5008 104.7C55.5008 104.7 55.4008 104.8 55.3008 104.8C55.2008 104.8 55.2008 104.9 55.1008 104.9C55.0008 104.9 54.9008 105 54.8008 105H54.7008C54.6008 105 54.5008 105.1 54.4008 105.1C54.2008 105.2 54.0008 105.2 53.8008 105.2C53.8008 105.2 53.8008 105.2 53.7008 105.2C53.6008 105.2 53.5008 105.2 53.4008 105.2H53.3008C53.2008 105.2 53.2008 105.2 53.1008 105.2C53.0008 105.2 52.9008 105.2 52.8008 105.2H44.3008V119.7H52.8008C53.0008 119.5 53.0008 119.5 53.2008 119.5C53.2008 119.5 53.1008 119.5 53.2008 119.5Z" fill="#9AF4DC"/>
<path d="M113.5 117.6C114.5 118.3 114.3 119.4 113.2 120C92.1002 131.5 59.4002 131.3 38.8002 119.3C31.9002 115.3 27.0002 110.4 24.7002 104.9H15.3002C14.4002 104.9 13.6002 104.7 13.1002 104.4C12.1002 103.8 11.8002 102.8 12.8002 102L31.6002 87.4002C32.8002 86.5002 35.0002 86.4002 36.3002 87.2002C36.4002 87.3002 36.5002 87.3002 36.6002 87.4002L55.5002 102C57.1002 103.2 55.6002 104.9 53.0002 104.9H44.5002C46.2002 107.4 48.8002 109.6 52.1002 111.5C65.6002 119.3 87.6002 119.3 101 111.5C102.4 110.7 104.6 110.8 105.7 111.4C105.8 111.4 105.8 111.5 105.9 111.5L113.5 117.6Z" fill="#EBFDF8"/>
<path d="M15.2006 105C14.3006 105 13.5006 104.8 13.0006 104.5C12.0006 103.9 11.7006 102.9 12.7006 102.1L31.5006 87.5003C32.7006 86.6003 34.9006 86.5003 36.2006 87.3003C36.3006 87.4003 36.4006 87.4003 36.5006 87.5003L55.4006 102.1C57.0006 103.3 55.5006 105 52.9006 105H44.4006C46.1006 107.5 48.7006 109.7 52.0006 111.6C65.5006 119.4 87.5006 119.4 100.901 111.6C102.301 110.8 104.501 110.9 105.601 111.5C105.701 111.5 105.701 111.6 105.801 111.6L113.401 117.5C114.401 118.2 114.201 119.3 113.101 119.9" stroke="#171A21" stroke-width="2" stroke-miterlimit="10" stroke-linecap="round" stroke-linejoin="round"/>
</svg>
