<svg width="144" height="144" viewBox="0 0 144 144" fill="none" xmlns="http://www.w3.org/2000/svg">
<path d="M48.6996 75.1L87.7996 52.5C88.7996 51.9 90.0996 52.6 90.0996 53.8L90.1996 93.1C90.1996 95.3 89.0996 97.3 87.1996 98.4L48.8996 120.5C46.9996 121.6 44.6996 121.6 42.7996 120.5L4.79961 98.4C2.89961 97.3 1.79961 95.3 1.79961 93.2L1.59961 53.9C1.59961 52.7 2.89961 52 3.89961 52.6L42.6996 75.1C44.4996 76.2 46.8996 76.2 48.6996 75.1Z" fill="#9AF4DC"/>
<path d="M3.89941 52.6L42.6994 75.0999C44.5994 76.1999 46.8994 76.1999 48.7994 75.0999L87.8994 52.5C88.8994 51.9 88.8994 50.5 87.8994 49.9L48.9994 27.4C47.0994 26.3 44.7994 26.3 42.8994 27.4L3.89941 50C2.89941 50.6 2.89941 52 3.89941 52.6Z" fill="#EBFDF8"/>
<path d="M4.79961 98.4C2.89961 97.3 1.79961 95.3 1.79961 93.2L1.59961 54.8C1.59961 52.6 2.69961 50.6 4.59961 49.5L42.9996 27.4C44.8996 26.3 47.1996 26.3 49.0996 27.4L87.0996 49.5C88.9996 50.6 90.0996 52.6 90.0996 54.7L90.1996 93.1C90.1996 95.3 89.0996 97.3 87.1996 98.4" stroke="#171A21" stroke-width="2" stroke-miterlimit="10" stroke-linecap="round" stroke-linejoin="round"/>
<path d="M75.0992 42.6L30.6992 68.2L15.1992 59.1L59.4992 33.5L75.0992 42.6Z" fill="white" stroke="#171A21" stroke-width="2" stroke-miterlimit="10" stroke-linecap="round" stroke-linejoin="round"/>
<path d="M57.7996 127.5L83.1996 142.3C84.3996 143 85.8996 143 87.1996 142.3L133.7 115.8C134.4 115.4 134.4 114.5 133.7 114.1L108.3 99.2999C107.1 98.5999 105.6 98.5999 104.3 99.2999L57.7996 125.8C57.1996 126.2 57.1996 127.1 57.7996 127.5Z" fill="#EBFDF8" stroke="#171A21" stroke-width="2" stroke-miterlimit="10" stroke-linecap="round" stroke-linejoin="round"/>
<path d="M120.8 82.4001C121 82.2001 121.2 82.1001 121.5 82.0001C121.6 81.9001 121.7 81.9001 121.8 81.8001C122.1 81.6001 122.5 81.4001 122.8 81.2001C123.1 81.0001 123.4 80.8001 123.7 80.7001C123.8 80.7001 123.9 80.6001 123.9 80.6001C124.2 80.5001 124.5 80.3001 124.7 80.2001H124.8C125.1 80.1001 125.4 79.9001 125.7 79.8001C125.8 79.8001 125.8 79.8001 125.9 79.7001C126.2 79.6001 126.5 79.5001 126.8 79.4001H126.9C127.2 79.3001 127.5 79.2001 127.7 79.1001H127.8C128 79.0001 128.2 79.0001 128.5 78.9001C128.6 78.9001 128.7 78.8001 128.8 78.8001C129.1 78.7001 129.4 78.7001 129.7 78.6001C130 78.6001 130.3 78.5001 130.5 78.5001C130.6 78.5001 130.7 78.5001 130.8 78.5001C131 78.5001 131.2 78.5001 131.4 78.5001C131.5 78.5001 131.6 78.5001 131.7 78.5001C131.9 78.5001 132.1 78.5001 132.3 78.5001C132.4 78.5001 132.4 78.5001 132.5 78.5001C132.8 78.5001 133 78.5001 133.3 78.6001C133.4 78.6001 133.4 78.6001 133.5 78.6001C133.7 78.6001 133.9 78.7001 134.1 78.7001C134.2 78.7001 134.2 78.7001 134.3 78.7001C134.5 78.7001 134.8 78.8001 135 78.9001C135.2 79.0001 135.5 79.0001 135.7 79.1001C135.8 79.1001 135.8 79.1001 135.9 79.2001C136.1 79.3001 136.3 79.3001 136.4 79.4001C136.4 79.4001 136.5 79.4001 136.5 79.5001C136.7 79.6001 137 79.7001 137.2 79.9001L115.1 67.0001C115.1 67.0001 115 67.0001 115 66.9001C114.8 66.8001 114.6 66.7001 114.4 66.6001C114.4 66.6001 114.3 66.6001 114.3 66.5001C114.2 66.5001 114.1 66.4001 114 66.4001C113.9 66.4001 113.9 66.3001 113.8 66.3001C113.7 66.3001 113.7 66.3001 113.6 66.2001C113.4 66.1001 113.2 66.0001 112.9 66.0001C112.7 65.9001 112.5 65.9001 112.2 65.8001C112.1 65.8001 112.1 65.8001 112 65.8001C111.9 65.8001 111.9 65.8001 111.8 65.8001C111.7 65.8001 111.5 65.8001 111.4 65.7001C111.3 65.7001 111.3 65.7001 111.2 65.7001C111 65.7001 110.7 65.6001 110.5 65.6001H110.4C110.3 65.6001 110.3 65.6001 110.2 65.6001C110 65.6001 109.8 65.6001 109.6 65.6001C109.5 65.6001 109.4 65.6001 109.3 65.6001C109.2 65.6001 109.2 65.6001 109.1 65.6001C109 65.6001 108.8 65.6001 108.7 65.6001C108.6 65.6001 108.5 65.6001 108.4 65.6001C108.1 65.6001 107.9 65.7001 107.6 65.7001C107.3 65.7001 107 65.8001 106.7 65.9001C106.6 65.9001 106.5 66.0001 106.4 66.0001C106.2 66.0001 106 66.1001 105.8 66.1001H105.7H105.6C105.3 66.2001 105 66.3001 104.8 66.4001H104.7C104.4 66.5001 104.1 66.6001 103.8 66.7001C103.7 66.7001 103.7 66.7001 103.6 66.8001C103.5 66.8001 103.5 66.8001 103.4 66.9001C103.2 67.0001 102.9 67.1001 102.7 67.2001H102.6C102.3 67.3001 102 67.5001 101.8 67.6001C101.7 67.6001 101.6 67.7001 101.6 67.7001C101.3 67.9001 101 68.0001 100.7 68.2001C100.4 68.4001 100 68.6001 99.7 68.8001C99.6 68.9001 99.5 68.9001 99.4 69.0001C99.2 69.1001 99 69.3001 98.7 69.4001C98.6 69.5001 98.5 69.6001 98.3 69.7001C98.1 69.8001 97.9 70.0001 97.7 70.1001C97.6 70.2001 97.5 70.3001 97.3 70.4001C97.1 70.6001 96.9 70.7001 96.7 70.9001C96.6 71.0001 96.5 71.1001 96.4 71.2001C96.2 71.4001 95.9 71.6001 95.7 71.8001C95.6 71.9001 95.5 71.9001 95.5 72.0001C95.2 72.3001 94.9 72.5001 94.6 72.8001C94.5 72.9001 94.5 72.9001 94.4 73.0001C94.2 73.2001 94 73.4001 93.8 73.6001L93.7 73.7001C93.3 74.0001 93 74.4001 92.7 74.8001C92.7 74.8001 92.7 74.8001 92.6 74.9001C92.3 75.2001 92 75.6001 91.6 76.0001L91.5 76.1001C91.4 76.2001 91.3 76.4001 91.1 76.5001C91 76.7001 90.8 76.8001 90.7 77.0001C90.5 77.2001 90.4 77.4001 90.2 77.6001C90.1 77.8001 90 77.9001 89.8 78.1001C89.8 78.1001 89.8 78.2001 89.7 78.2001C89.5 78.5001 89.2 78.8001 89 79.1001C88.8 79.4001 88.6 79.7001 88.4 80.0001C88.4 80.0001 88.4 80.0001 88.4 80.1001C88 80.6001 87.7 81.1001 87.4 81.6001C87.4 81.7001 87.3 81.7001 87.3 81.7001C87.3 81.8001 87.2 81.9001 87.2 81.9001C86.9 82.3001 86.7 82.8001 86.4 83.2001C86.4 83.3001 86.3 83.3001 86.3 83.4001V83.5001C86 84.0001 85.7 84.5001 85.5 85.0001C85.5 85.0001 85.5 85.1001 85.4 85.1001C85.4 85.2001 85.3 85.3001 85.3 85.4001C85.1 85.8001 84.9 86.2001 84.7 86.6001C84.7 86.7001 84.6 86.8001 84.6 86.9001C84.6 87.0001 84.6 87.0001 84.5 87.1001C84.3 87.6001 84 88.1001 83.8 88.7001C83.6 89.0001 83.5 89.4001 83.4 89.8001C83.4 89.9001 83.3 90.0001 83.3 90.1001C83.2 90.3001 83.2 90.4001 83.1 90.6001C83.1 90.7001 83 90.8001 83 91.0001C83 91.1001 82.9 91.2001 82.9 91.4001C82.8 91.7001 82.7 92.0001 82.6 92.4001C82.6 92.5001 82.6 92.5001 82.5 92.6001C82.4 93.0001 82.3 93.4001 82.1 93.7001C82.1 93.8001 82 93.9001 82 94.0001C81.9 94.2001 81.9 94.4001 81.8 94.6001C81.8 94.7001 81.8 94.7001 81.7 94.8001C81.7 95.0001 81.6 95.2001 81.6 95.3001C81.5 95.5001 81.5 95.8001 81.4 96.0001C81.4 96.2001 81.3 96.4001 81.3 96.5001C81.3 96.6001 81.2 96.7001 81.2 96.9001C81.2 97.0001 81.2 97.1001 81.1 97.2001C81 97.5001 81 97.7001 80.9 98.0001C80.9 98.2001 80.8 98.4001 80.8 98.6001C80.8 98.9001 80.7 99.2001 80.7 99.4001C80.7 99.5001 80.7 99.7001 80.6 99.8001C80.6 99.9001 80.6 99.9001 80.6 100C80.6 100.1 80.6 100.3 80.6 100.4C80.6 100.7 80.5 100.9 80.5 101.2C80.5 101.3 80.5 101.5 80.5 101.6C80.5 101.9 80.5 102.1 80.5 102.4C80.5 102.5 80.5 102.6 80.5 102.8C80.5 103.2 80.5 103.6 80.5 103.9C80.5 110.4 82.8 114.9 86.5 117L108.6 129.9C104.9 127.8 102.6 123.2 102.6 116.8C102.6 116.4 102.6 116.1 102.6 115.7C102.6 115.6 102.6 115.5 102.6 115.3C102.6 115 102.6 114.8 102.6 114.5C102.6 114.4 102.6 114.2 102.6 114.1C102.6 113.8 102.6 113.6 102.7 113.3V113.2L114.3 119.9C114.3 119.9 114.3 119.9 114.4 119.9H114.5C114.6 120 114.8 120.1 115 120.1H115.1C115.1 120.1 115.1 120.1 115.2 120.1C115.4 120.2 115.6 120.2 115.8 120.3C116 120.4 116.2 120.4 116.4 120.4C116.4 120.4 116.4 120.4 116.5 120.4H116.6C116.8 120.4 117 120.5 117.2 120.5H117.3H117.4C117.5 120.5 117.6 120.5 117.8 120.5C117.9 120.5 117.9 120.5 118 120.5H118.1C118.2 120.5 118.3 120.5 118.3 120.5C118.4 120.5 118.4 120.5 118.5 120.5C118.7 120.5 118.8 120.5 119 120.4C119.2 120.4 119.4 120.3 119.6 120.3C119.7 120.3 119.7 120.3 119.8 120.3C119.9 120.3 120 120.2 120.1 120.2C120.3 120.1 120.5 120.1 120.8 120C120.8 120 120.9 120 120.9 119.9C121.1 119.8 121.3 119.8 121.4 119.7C121.4 119.7 121.4 119.7 121.5 119.7C121.5 119.7 121.6 119.7 121.6 119.6C121.8 119.5 122 119.4 122.2 119.3C122.3 119.3 122.3 119.2 122.4 119.2C122.7 119.1 122.9 118.9 123.2 118.8C123.4 118.7 123.6 118.6 123.8 118.4C123.9 118.4 123.9 118.3 124 118.3C124.1 118.2 124.3 118.1 124.4 118C124.5 118 124.5 117.9 124.6 117.8C124.7 117.7 124.8 117.6 125 117.5C125.1 117.4 125.1 117.4 125.2 117.3C125.3 117.2 125.4 117.1 125.6 117C125.7 116.9 125.7 116.9 125.8 116.8C125.9 116.7 126.1 116.6 126.2 116.5L126.3 116.4C126.5 116.2 126.7 116.1 126.8 115.9L126.9 115.8C127 115.7 127.1 115.6 127.3 115.5C127.3 115.5 127.3 115.5 127.4 115.4C127.6 115.2 127.8 115 128 114.8C128.2 114.6 128.4 114.4 128.6 114.2C128.6 114.2 128.6 114.2 128.7 114.1C128.7 114.1 128.7 114 128.8 114C129.1 113.6 129.4 113.3 129.7 112.9C129.7 112.9 129.7 112.8 129.8 112.8C130 112.5 130.3 112.2 130.5 111.9C130.5 111.9 130.5 111.8 130.6 111.8C130.8 111.5 131 111.2 131.2 110.9C131.2 110.9 131.2 110.8 131.3 110.8L131.4 110.7C131.6 110.4 131.7 110.2 131.9 109.9L132 109.8C132.2 109.5 132.3 109.2 132.5 108.9C132.5 108.9 132.5 108.9 132.5 108.8C132.5 108.7 132.6 108.7 132.6 108.6C132.7 108.4 132.9 108.1 133 107.9C133 107.8 133.1 107.8 133.1 107.7V107.6C133.2 107.3 133.4 107 133.5 106.7V106.6C133.6 106.3 133.7 106 133.9 105.7C133.9 105.7 133.9 105.6 134 105.6V105.5C134.1 105.2 134.3 104.8 134.4 104.5C134.4 104.5 134.4 104.5 134.4 104.4C134.5 104 134.6 103.7 134.7 103.3V103.2V103.1C134.7 103 134.8 102.9 134.8 102.8C134.8 102.7 134.9 102.5 134.9 102.4C134.9 102.3 134.9 102.2 135 102.1C135 102 135 101.9 135.1 101.9C135.1 101.8 135.1 101.8 135.1 101.7C135.1 101.5 135.2 101.4 135.2 101.2C135.2 101.1 135.2 101 135.3 100.9C135.3 100.7 135.4 100.6 135.4 100.4C135.4 100.3 135.4 100.2 135.4 100.2V100.1C135.4 100 135.4 99.9001 135.4 99.9001C135.4 99.7001 135.4 99.6001 135.4 99.4001C135.4 99.3001 135.4 99.2001 135.4 99.2001C135.4 99.0001 135.4 98.9001 135.4 98.7001C135.4 98.6001 135.4 98.6001 135.4 98.5001C135.4 98.3001 135.4 98.0001 135.4 97.8001C135.4 93.9001 134 91.2001 131.8 89.9001L120 83.1001C120.2 83.0001 120.3 82.9001 120.5 82.7001C120.6 82.6001 120.7 82.5001 120.8 82.4001ZM111.8 91.6001C111.7 91.9001 111.6 92.3001 111.4 92.6001C111.4 92.7001 111.3 92.8001 111.3 92.9001C111.2 93.2001 111.1 93.5001 110.9 93.8001C110.9 93.8001 110.9 93.9001 110.8 93.9001C110.7 94.2001 110.5 94.5001 110.4 94.8001C110.4 94.9001 110.3 95.0001 110.3 95.0001C110.2 95.2001 110.1 95.5001 109.9 95.7001C109.9 95.8001 109.8 95.9001 109.8 95.9001C109.6 96.2001 109.5 96.5001 109.3 96.8001C109.3 96.9001 109.2 96.9001 109.2 97.0001C109 97.3001 108.9 97.5001 108.7 97.8001C108.7 97.9001 108.6 98.0001 108.6 98.0001C108.4 98.3001 108.2 98.6001 108 98.9001L107.9 99.0001C107.7 99.3001 107.4 99.6001 107.2 99.9001L107.1 100C106.8 100.4 106.5 100.7 106.2 101.1L106.1 101.2C105.9 101.4 105.7 101.6 105.5 101.8C105.6 101.6 105.7 101.4 105.8 101.2C106 100.7 106.3 100.1 106.5 99.6001C106.6 99.5001 106.6 99.3001 106.7 99.2001C106.9 98.8001 107.1 98.4001 107.3 98.0001C107.4 97.9001 107.4 97.7001 107.5 97.6001C107.8 97.1001 108.1 96.6001 108.3 96.1001C108.4 96.0001 108.4 95.9001 108.5 95.8001C108.8 95.4001 109 94.9001 109.3 94.5001C109.4 94.4001 109.5 94.2001 109.5 94.1001C109.8 93.6001 110.2 93.1001 110.5 92.6001C110.7 92.3001 111 92.0001 111.2 91.6001C111.4 91.3001 111.6 91.1001 111.8 90.8001C111.9 91.2001 111.9 91.3001 111.8 91.6001C111.8 91.5001 111.8 91.5001 111.8 91.6001Z" fill="#EBFDF8"/>
<path d="M136.699 79.4C136.899 79.5 137.199 79.6 137.399 79.8L115.299 66.9C115.299 66.9 115.199 66.9 115.199 66.8C114.999 66.7 114.799 66.6 114.599 66.5C114.599 66.5 114.499 66.5 114.499 66.4C114.399 66.4 114.299 66.3 114.199 66.3C114.099 66.3 114.099 66.2 113.999 66.2C113.899 66.2 113.899 66.2 113.799 66.1C113.599 66 113.399 65.9 113.099 65.9C112.899 65.8 112.699 65.8 112.399 65.7C112.299 65.7 112.299 65.7 112.199 65.7C112.099 65.7 112.099 65.7 111.999 65.7C111.899 65.7 111.699 65.7 111.599 65.6C111.499 65.6 111.499 65.6 111.399 65.6C111.199 65.6 110.899 65.5 110.699 65.5H110.599C110.499 65.5 110.499 65.5 110.399 65.5C110.199 65.5 109.999 65.5 109.799 65.5C109.699 65.5 109.599 65.5 109.499 65.5C109.399 65.5 109.399 65.5 109.299 65.5C109.199 65.5 108.999 65.5 108.899 65.5C108.799 65.5 108.699 65.5 108.599 65.5C108.299 65.5 108.099 65.6 107.799 65.6C107.499 65.6 107.199 65.7 106.899 65.8C106.799 65.8 106.699 65.9 106.599 65.9C106.399 65.9 106.199 66 105.999 66H105.899H105.799C105.499 66.1 105.199 66.2 104.999 66.3H104.899C104.599 66.4 104.299 66.5 103.999 66.6C103.899 66.6 103.899 66.6 103.799 66.7C103.699 66.7 103.699 66.7 103.599 66.8C103.399 66.9 103.099 67 102.899 67.1H102.799C102.499 67.2 102.199 67.4 101.999 67.5C101.899 67.5 101.799 67.6 101.799 67.6C101.499 67.8 101.199 67.9 100.899 68.1C100.599 68.3 100.199 68.5 99.8992 68.7C99.7992 68.8 99.6992 68.8 99.5992 68.9C99.3992 69 99.1992 69.2 98.8992 69.3C98.7992 69.4 98.6992 69.5 98.4992 69.6C98.2992 69.7 98.0992 69.9 97.8992 70C97.7992 70.1 97.6992 70.2 97.4992 70.3C97.2992 70.5 97.0992 70.6 96.8992 70.8C96.7992 70.9 96.6992 71 96.5992 71.1C96.3992 71.3 96.0992 71.5 95.8992 71.7C95.7992 71.8 95.6992 71.8 95.6992 71.9C95.3992 72.2 95.0992 72.4 94.7992 72.7C94.6992 72.8 94.6992 72.8 94.5992 72.9C94.3992 73.1 94.1992 73.3 93.9992 73.5L93.8992 73.6C93.4992 73.9 93.1992 74.3 92.8992 74.7C92.8992 74.7 92.8992 74.7 92.7992 74.8C92.4992 75.1 92.1992 75.5 91.7992 75.9L91.6992 76C91.5992 76.1 91.4992 76.3 91.2992 76.4C91.1992 76.6 90.9992 76.7 90.8992 76.9C90.6992 77.1 90.5992 77.3 90.3992 77.5C90.2992 77.7 90.1992 77.8 89.9992 78C89.9992 78 89.9992 78.1 89.8992 78.1C89.6992 78.4 89.3992 78.7 89.1992 79C88.9992 79.3 88.7992 79.6 88.5992 79.9C88.5992 79.9 88.5992 79.9 88.5992 80C88.1992 80.5 87.8992 81 87.5992 81.5C87.5992 81.6 87.4992 81.6 87.4992 81.6C87.4992 81.7 87.3992 81.8 87.3992 81.8C87.0992 82.2 86.8992 82.7 86.5992 83.1C86.5992 83.2 86.4992 83.2 86.4992 83.3V83.4C86.1992 83.9 85.8992 84.4 85.6992 84.9C85.6992 84.9 85.6992 85 85.5992 85C85.5992 85.1 85.4992 85.2 85.4992 85.3C85.2992 85.7 85.0992 86.1 84.8992 86.5C84.8992 86.6 84.7992 86.7 84.7992 86.8C84.7992 86.9 84.7992 86.9 84.6992 87C84.4992 87.5 84.1992 88 83.9992 88.6C83.7992 88.9 83.6992 89.3 83.5992 89.7C83.5992 89.8 83.4992 89.9 83.4992 90C83.3992 90.2 83.3992 90.3 83.2992 90.5C83.2992 90.6 83.1992 90.7 83.1992 90.9C83.1992 91 83.0992 91.1 83.0992 91.3C82.9992 91.6 82.8992 91.9 82.7992 92.3C82.7992 92.4 82.7992 92.4 82.6992 92.5C82.5992 92.9 82.4992 93.3 82.2992 93.6C82.2992 93.7 82.1992 93.8 82.1992 93.9C82.0992 94.1 82.0992 94.3 81.9992 94.5C81.9992 94.6 81.9992 94.6 81.8992 94.7C81.8992 94.9 81.7992 95.1 81.7992 95.2C81.6992 95.4 81.6992 95.7 81.5992 95.9C81.5992 96.1 81.4992 96.3 81.4992 96.4C81.4992 96.5 81.3992 96.6 81.3992 96.8C81.3992 96.9 81.3992 97 81.2992 97.1C81.1992 97.4 81.1992 97.6 81.0992 97.9C81.0992 98.1 80.9992 98.3 80.9992 98.5C80.9992 98.8 80.8992 99.1 80.8992 99.3C80.8992 99.4 80.8992 99.6 80.7992 99.7C80.7992 99.8 80.7992 99.8 80.7992 99.9C80.7992 100 80.7992 100.2 80.7992 100.3C80.7992 100.6 80.6992 100.8 80.6992 101.1C80.6992 101.2 80.6992 101.4 80.6992 101.5C80.6992 101.8 80.6992 102 80.6992 102.3C80.6992 102.4 80.6992 102.5 80.6992 102.7C80.6992 103.1 80.6992 103.5 80.6992 103.8C80.6992 110.3 82.9992 114.8 86.6992 116.9L108.799 129.8" stroke="#171A21" stroke-width="2" stroke-miterlimit="10" stroke-linecap="round" stroke-linejoin="round"/>
<path d="M122.799 81.1999C134.099 74.6999 143.299 79.8999 143.299 92.8999C143.299 105.9 134.199 121.7 122.899 128.2C111.599 134.7 102.399 129.5 102.399 116.5C102.299 103.6 111.499 87.6999 122.799 81.1999ZM122.899 118.8C129.699 114.9 135.199 105.4 135.099 97.5999C135.099 89.7999 129.599 86.6999 122.799 90.5999C115.999 94.4999 110.499 104 110.599 111.8C110.599 119.6 116.099 122.7 122.899 118.8Z" fill="#9AF4DC"/>
<path d="M97.1002 2.49997L130.4 21.7C134.4 24 137.7 29.6 137.7 34.3L137.6 58.2C137.6 62.8 134.3 64.7 130.3 62.4L97.0002 43.1C93.0002 40.8 89.7002 35.2 89.7002 30.5L89.8002 6.59997C89.8002 1.99997 93.1002 0.0999738 97.1002 2.49997Z" fill="#9AF4DC"/>
<path d="M105.9 15.0999C104.8 14.4999 103.9 14.9999 103.9 16.1999L103.8 28.0999C103.8 29.2999 104.7 30.8999 105.8 31.4999C106.9 32.0999 107.8 31.5999 107.8 30.3999L107.9 18.4999C107.8 17.1999 107 15.6999 105.9 15.0999ZM113.7 19.5999C112.6 18.9999 111.7 19.4999 111.7 20.6999L111.6 32.5999C111.6 33.7999 112.5 35.3999 113.6 35.9999C114.7 36.5999 115.6 36.0999 115.6 34.8999L115.7 22.9999C115.6 21.6999 114.8 20.1999 113.7 19.5999ZM121.5 24.0999C120.4 23.4999 119.5 23.9999 119.5 25.1999L119.4 37.0999C119.4 38.2999 120.3 39.8999 121.4 40.4999C122.5 41.0999 123.4 40.5999 123.4 39.3999L123.5 27.4999C123.5 26.1999 122.6 24.6999 121.5 24.0999ZM129.3 28.5999C128.2 27.9999 127.3 28.4999 127.3 29.6999L127.2 50.5999C127.2 51.7999 128.1 53.3999 129.2 53.9999C130.3 54.5999 131.2 54.0999 131.2 52.8999L131.3 31.9999C131.3 30.7999 130.4 29.1999 129.3 28.5999ZM105.7 35.9999C105.2 35.6999 104.7 35.5999 104.3 35.8999C103.5 36.2999 103.6 37.7999 104.3 39.0999C104.7 39.6999 105.1 40.1999 105.6 40.4999C106.1 40.7999 106.6 40.7999 107 40.5999C107.2 40.4999 107.3 40.3999 107.4 40.0999C107.6 39.6999 107.6 39.0999 107.4 38.3999C107.3 38.0999 107.2 37.6999 107 37.3999C106.7 36.7999 106.2 36.2999 105.7 35.9999ZM113.6 40.4999C113.1 40.1999 112.6 40.0999 112.2 40.3999C111.4 40.7999 111.5 42.2999 112.2 43.5999C112.6 44.1999 113 44.6999 113.5 44.9999C114.6 45.5999 115.4 45.0999 115.4 43.7999C115.4 43.1999 115.2 42.5999 114.8 41.8999C114.6 41.2999 114.1 40.7999 113.6 40.4999ZM121.4 44.9999C120.9 44.6999 120.4 44.5999 120 44.8999C119.8 44.9999 119.7 45.0999 119.6 45.3999C119.4 45.7999 119.4 46.3999 119.6 47.0999C119.7 47.3999 119.8 47.7999 120 48.0999C120.3 48.6999 120.8 49.2999 121.4 49.5999C122.5 50.1999 123.3 49.6999 123.3 48.3999C123.3 47.7999 123.1 47.1999 122.7 46.4999C122.4 45.7999 121.9 45.2999 121.4 44.9999ZM98.1 10.5999C97 9.99994 96.1 10.4999 96.1 11.6999L96 32.5999C96 33.7999 96.9 35.3999 98 35.9999C99.1 36.5999 100 36.0999 100 34.8999L100.1 13.9999C100 12.6999 99.1 11.1999 98.1 10.5999Z" fill="white"/>
</svg>
