<svg width="144" height="144" viewBox="0 0 144 144" fill="none" xmlns="http://www.w3.org/2000/svg">
<path d="M87.0002 6.99512L136.3 34.7758L136.6 103.928L86.7002 76.1471L87.0002 6.99512Z" fill="#EBFDF8"/>
<path d="M93.1004 73.9486C92.5004 73.5489 92.0004 72.7494 92.0004 71.95V7.99438L88.9004 9.79314V73.7487C88.9004 74.4482 89.4004 75.3476 90.0004 75.7473L135.6 101.929L138.7 100.13L93.1004 73.9486Z" fill="#9AF4DC"/>
<path d="M137.5 27.6813L117 15.8895L91.9998 1.59942C90.3998 0.700045 88.9998 0.600115 87.9998 1.1997L84.7998 2.99845C85.7998 2.39887 87.2998 2.4988 88.7998 3.39817L126.1 24.7833L134.3 29.4801C137.4 31.2788 140 35.6758 140 39.2733V104.528C140 106.327 139.4 107.626 138.4 108.125L141.5 106.327C142.5 105.727 143.1 104.428 143.1 102.729V37.4745C143.2 33.877 140.7 29.4801 137.5 27.6813Z" fill="#9AF4DC"/>
<path d="M134.4 29.4794C137.5 31.2782 140.1 35.6751 140.1 39.2726V104.527C140.1 108.125 137.5 109.624 134.4 107.825L88.9002 81.6432C85.8002 79.8444 83.2002 75.4475 83.2002 71.85V6.5953C83.2002 2.9978 85.8002 1.49884 88.9002 3.29759L109.4 15.0894C109.4 16.4884 110.4 18.2872 111.7 18.9867C113 19.6862 114 19.0866 114 17.6876L134.4 29.4794ZM134.4 99.9305V37.274C134.4 36.5745 133.9 35.6751 133.3 35.2754L90.0002 10.5925C89.4002 10.1928 88.9002 10.4926 88.9002 11.292V73.9485C88.9002 74.648 89.4002 75.5474 90.0002 75.9471L133.3 100.73C133.9 100.93 134.4 100.73 134.4 99.9305Z" fill="white"/>
<path d="M134.4 99.9305V37.274C134.4 36.5745 133.9 35.6751 133.3 35.2754L90.0004 10.5925C89.4004 10.1928 88.9004 10.4926 88.9004 11.2921M133.3 100.63C133.9 101.03 134.4 100.73 134.4 99.9305L133.3 100.63Z" stroke="#171A21" stroke-width="2" stroke-miterlimit="10" stroke-linecap="round" stroke-linejoin="round"/>
<path d="M140.1 104.527C140.1 108.125 137.5 109.624 134.4 107.825L88.9002 81.6432C85.8002 79.8444 83.2002 75.4475 83.2002 71.85V6.5953C83.2002 2.9978 85.8002 1.49884 88.9002 3.29759" stroke="#171A21" stroke-width="2" stroke-miterlimit="10" stroke-linecap="round" stroke-linejoin="round"/>
<path d="M116.401 16.1887C115.101 15.4892 114.101 13.6905 114.101 12.2914C114.101 11.5919 114.401 11.0923 114.801 10.7925L108.501 14.4899C108.101 14.6898 107.801 15.1894 107.801 15.9889C107.801 17.3879 108.801 19.1867 110.101 19.8862C110.701 20.2859 111.301 20.2859 111.701 20.086L118.001 16.3886C117.601 16.5885 117.001 16.5885 116.401 16.1887Z" fill="#EBFDF8"/>
<path d="M121.501 15.889L118.601 14.1901C117.801 12.0916 116.301 10.2928 114.701 9.29354C113.501 8.59402 112.301 8.49409 111.501 8.99375L110.601 9.4934L107.901 7.99444C106.301 7.09506 104.901 6.99513 103.901 7.59472L100.801 9.39347C101.801 8.79388 103.301 8.89382 104.801 9.79319L107.701 11.492L109.301 10.5926C110.001 10.4927 110.801 10.6926 111.601 11.1922C113.201 12.0916 114.701 13.9903 115.501 16.0888L118.401 17.7876C121.501 19.5864 124.101 23.9833 124.101 27.5808V32.7772C124.101 33.177 124.001 33.3768 123.801 33.4767L126.901 31.678C127.101 31.5781 127.201 31.2783 127.201 30.9785V25.7821C127.201 22.0847 124.601 17.6877 121.501 15.889Z" fill="#9AF4DC"/>
<path d="M118.401 17.6877C121.501 19.4865 124.101 23.8834 124.101 27.4809V32.6773C124.101 33.3768 123.601 33.6766 123.001 33.3768L100.201 20.2859C99.6006 19.8862 99.1006 19.0867 99.1006 18.2873V13.0909C99.1006 9.49341 101.701 7.99445 104.801 9.7932L107.701 11.492C108.501 10.3928 110.001 10.1929 111.601 11.0923C113.201 11.9917 114.701 13.8904 115.501 15.9889L118.401 17.6877ZM111.501 18.8869C112.701 19.5864 113.601 18.9868 113.601 17.6877C113.601 16.3886 112.601 14.6898 111.501 13.9903C110.301 13.2908 109.401 13.8904 109.401 15.1894C109.401 16.4885 110.401 18.1874 111.501 18.8869Z" fill="#9AF4DC"/>
<path d="M126.9 53.6627L100.5 38.5732C99.4 37.9736 98.5 38.4733 98.5 39.6724C98.5 40.8716 99.4 42.3706 100.5 43.0701L126.9 58.1596C128 58.7592 128.9 58.2595 128.9 57.0604C128.9 55.8612 127.9 54.2623 126.9 53.6627ZM126.9 63.8556L122.4 61.2575C121.3 60.6579 120.4 61.1575 120.4 62.3567C120.4 63.5559 121.3 65.0548 122.4 65.7543L126.9 68.3525C128 68.9521 128.9 68.4525 128.9 67.2533C128.8 65.9542 127.9 64.4552 126.9 63.8556ZM113.3 56.161L100.5 48.7661C99.4 48.1665 98.5 48.6662 98.5 49.8654C98.5 51.0645 99.4 52.5635 100.5 53.263L113.3 60.6579C114.4 61.2575 115.3 60.7578 115.3 59.5586C115.3 58.2595 114.4 56.7606 113.3 56.161ZM126.9 74.0486L100.5 58.959C99.4 58.3595 98.5 58.8591 98.5 60.0583C98.5 61.2574 99.4 62.7564 100.5 63.4559L126.9 78.5454C128 79.145 128.9 78.6454 128.9 77.4462C128.9 76.247 127.9 74.6481 126.9 74.0486ZM126.9 43.4698L100.5 28.3803C99.4 27.7807 98.5 28.2804 98.5 29.4795C98.5 30.6787 99.4 32.1776 100.5 32.8772L126.9 47.9667C128 48.5663 128.9 48.0666 128.9 46.8674C128.8 45.5683 127.9 44.0694 126.9 43.4698Z" fill="#9AF4DC"/>
<path d="M70.7 127.811L121.8 98.3318C122.9 97.7322 124.3 98.5317 124.3 99.7309V112.122C124.3 112.722 124 113.221 123.5 113.521L72.7 142.901C72.2 143.201 71 140.702 70.4 140.403L69 127.811C69.6 128.111 70.2 128.111 70.7 127.811Z" fill="#9AF4DC"/>
<path d="M1.40039 88.1388C1.50039 88.1388 1.50039 88.0389 1.60039 88.0389C1.70039 88.0389 1.70039 88.0389 1.80039 88.0389C1.90039 88.0389 1.90039 88.0389 2.00039 88.0389C2.10039 88.0389 2.20039 88.1388 2.20039 88.1388L8.40039 91.7363L6.80039 92.6357L3.00039 90.4372V100.93L49.9004 128.011L68.7004 139.603L71.0004 136.805V135.406L72.7004 134.407C72.6004 134.407 72.6004 134.507 72.5004 134.507C72.4004 134.507 72.4004 134.507 72.3004 134.507C72.2004 134.507 72.2004 134.507 72.1004 134.507C72.0004 134.507 71.9004 134.407 71.9004 134.407L71.2004 134.007V129.81L42.9004 113.521V112.322C42.9004 112.122 43.0004 111.922 43.0004 111.722L71.7004 128.311C71.8004 128.411 71.9004 128.411 72.0004 128.511C72.0004 128.511 72.1004 128.511 72.1004 128.611C72.2004 128.711 72.2004 128.711 72.3004 128.811C72.4004 128.91 72.4004 129.01 72.5004 129.01C72.6004 129.11 72.6004 129.21 72.7004 129.31C72.8004 129.41 72.8004 129.51 72.9004 129.61C72.9004 129.71 73.0004 129.81 73.0004 129.91C73.0004 130.01 73.1004 130.11 73.1004 130.21C73.1004 130.31 73.1004 130.409 73.1004 130.509L77.1004 128.211C77.1004 128.111 77.1004 128.011 77.1004 127.911V127.811C77.1004 127.711 77.1004 127.711 77.1004 127.611C77.1004 127.611 77.1004 127.611 77.1004 127.511V127.412V127.312V127.212C77.1004 127.212 77.1004 127.112 77.0004 127.112C77.0004 127.112 77.0004 127.012 76.9004 127.012C76.9004 127.012 76.9004 126.912 76.8004 126.912L76.7004 126.812C76.7004 126.812 76.7004 126.812 76.7004 126.712L76.6004 126.612C76.6004 126.612 76.6004 126.612 76.5004 126.512C76.5004 126.512 76.5004 126.512 76.4004 126.412L76.3004 126.312C76.3004 126.312 76.2004 126.312 76.2004 126.212C76.1004 126.112 76.0004 126.112 75.9004 126.013L6.40039 85.8404C6.30039 85.8404 6.30039 85.7405 6.20039 85.7405C6.20039 85.7405 6.20039 85.7405 6.10039 85.7405C6.10039 85.7405 6.10039 85.7405 6.00039 85.7405H5.90039C5.90039 85.7405 5.90039 85.7405 5.80039 85.7405H5.70039H5.60039C5.60039 85.7405 5.60039 85.7405 5.50039 85.7405C5.50039 85.7405 5.50039 85.7405 5.40039 85.7405L1.40039 88.1388ZM8.70039 91.8362L43.0004 111.622L41.4004 112.522L8.50039 93.5351V92.3359C8.50039 92.236 8.60039 92.0361 8.70039 91.8362Z" fill="#9AF4DC"/>
<path d="M73.1002 142.001V130.609L77.1002 128.311V139.703C77.1002 140.003 77.0002 140.302 76.9002 140.402C76.9002 140.502 76.8002 140.502 76.7002 140.502L72.7002 142.801C73.0002 142.701 73.1002 142.401 73.1002 142.001Z" fill="#9AF4DC"/>
<path d="M1 100.43C1 101.33 1.6 102.329 2.3 102.729L71.7 142.801C72.4 143.201 73.1 142.901 73.1 142.001V130.609C73.1 129.71 72.5 128.711 71.7 128.311L70.8 127.811L121.7 98.4317C122.8 97.8321 122.8 96.2332 121.7 95.5337L55.9 57.2602C55.4 56.9605 54.7 56.9605 54.2 57.2602L2.2 87.2394C1.9 87.4393 1.7 87.7391 1.7 88.0389C1.3 88.0389 1 88.4386 1 89.0382V100.43ZM5.8 100.93C5.1 100.53 4.5 99.431 4.5 98.6315V94.8342C4.5 93.9348 5.1 93.635 5.9 94.0347L68 129.81C68.7 130.21 69.3 131.309 69.3 132.108V135.906C69.3 136.805 68.7 137.105 67.9 136.705L5.8 100.93Z" fill="white"/>
<path d="M121.8 98.4316C122.9 97.8321 122.9 96.2332 121.8 95.5337L55.9 57.2602C55.4 56.9605 54.7 56.9605 54.2 57.2602L2.2 87.2394C1.3 87.839 1 88.4386 1 88.9382V100.33C1 101.23 1.6 102.229 2.3 102.629L71.7 142.701C72.4 143.101 73.1 142.801 73.1 141.901" stroke="#171A21" stroke-width="2" stroke-miterlimit="10" stroke-linecap="round" stroke-linejoin="round"/>
<path d="M46.3998 72.15L20.3998 57.1605C19.6998 56.7607 18.8998 57.2604 18.8998 58.0598L18.7998 81.7434C18.7998 83.1424 19.5998 84.5414 20.7998 85.241L46.2998 99.9308C47.5998 100.63 49.0998 100.63 50.2998 99.9308L75.5998 85.241C76.7998 84.5414 77.5998 83.2424 77.5998 81.7434L77.6998 58.0598C77.6998 57.2604 76.8998 56.7607 76.1998 57.1605L50.3998 72.15C49.1998 72.9495 47.6998 72.9495 46.3998 72.15Z" fill="#9AF4DC"/>
<path d="M76.2996 57.1606L50.4996 72.1501C49.2996 72.8496 47.6996 72.8496 46.4996 72.1501L20.4996 57.1606C19.7996 56.7608 19.7996 55.7615 20.4996 55.4617L46.2996 40.4721C47.4996 39.7726 49.0996 39.7726 50.2996 40.4721L76.2996 55.4617C76.9996 55.8615 76.9996 56.7608 76.2996 57.1606Z" fill="#EBFDF8"/>
<path d="M75.6998 85.2409C76.8998 84.5414 77.6998 83.2423 77.6998 81.7433L77.7998 58.6593C77.7998 57.2603 76.9998 55.8613 75.7998 55.1618L50.2998 40.372C48.9998 39.6725 47.4998 39.6725 46.2998 40.372L20.8998 55.1618C19.6998 55.8613 18.8998 57.1604 18.8998 58.6593L18.7998 81.7433C18.7998 83.1423 19.5998 84.5414 20.7998 85.2409" stroke="#171A21" stroke-width="2" stroke-miterlimit="10" stroke-linecap="round" stroke-linejoin="round"/>
<path d="M28.8994 50.4651L58.3994 67.5532L68.7994 61.5574L39.1994 44.4692L28.8994 50.4651Z" fill="white" stroke="#171A21" stroke-width="2" stroke-miterlimit="10" stroke-linecap="round" stroke-linejoin="round"/>
<path d="M80.9992 93.6352L106.999 78.6456C107.699 78.2458 108.499 78.7455 108.499 79.5449L108.599 99.1313C108.599 100.53 107.799 101.929 106.599 102.629L81.0992 117.319C79.7992 118.018 78.2992 118.018 77.0992 117.319L51.7992 102.629C50.5992 101.929 49.7992 100.63 49.7992 99.1313L49.6992 79.5449C49.6992 78.7455 50.4992 78.2458 51.1992 78.6456L76.9992 93.6352C78.1992 94.3347 79.7992 94.3347 80.9992 93.6352Z" fill="#9AF4DC"/>
<path d="M51.1998 78.6457L76.9998 93.6353C78.1998 94.3348 79.7998 94.3348 80.9998 93.6353L107 78.6457C107.7 78.2459 107.7 77.2466 107 76.9468L81.1998 61.9573C79.9998 61.2577 78.3998 61.2577 77.1998 61.9573L51.1998 76.9468C50.4998 77.2466 50.4998 78.2459 51.1998 78.6457Z" fill="#EBFDF8"/>
<path d="M51.6996 102.529C50.4996 101.829 49.6996 100.53 49.6996 99.0313L49.5996 80.0445C49.5996 78.6455 50.3996 77.2465 51.5996 76.547L77.0996 61.8572C78.3996 61.1576 79.8996 61.1576 81.0996 61.8572L106.4 76.547C107.6 77.2465 108.4 78.5456 108.4 80.0445L108.5 99.0313C108.5 100.43 107.7 101.829 106.5 102.529" stroke="#171A21" stroke-width="2" stroke-miterlimit="10" stroke-linecap="round" stroke-linejoin="round"/>
<path d="M98.5992 71.9502L68.9992 88.9384L58.6992 82.9425L88.1992 65.9543L98.5992 71.9502Z" fill="white" stroke="#171A21" stroke-width="2" stroke-miterlimit="10" stroke-linecap="round" stroke-linejoin="round"/>
</svg>
