<svg width="144" height="144" viewBox="0 0 144 144" fill="none" xmlns="http://www.w3.org/2000/svg">
<g clip-path="url(#clip0)">
<path d="M34.7998 38.1002C34.7998 38.2002 34.7998 38.2002 34.7998 38.3002C34.7998 38.4002 34.7998 38.4002 34.7998 38.5002C34.7998 38.6002 34.7998 38.6002 34.7998 38.7002C34.7998 38.8002 34.7998 38.8002 34.7998 38.9002C34.7998 39.0002 34.7998 39.0002 34.7998 39.1002C34.7998 39.2002 34.7998 39.2002 34.8998 39.3002C34.8998 39.4002 34.8998 39.4002 34.9998 39.5002C34.9998 39.6002 34.9998 39.6002 35.0998 39.7002C35.0998 39.8002 35.1998 39.8002 35.1998 39.9002C35.1998 40.0002 35.2998 40.0002 35.2998 40.1002C35.2998 40.2002 35.3998 40.2002 35.3998 40.3002C35.3998 40.4002 35.4998 40.4002 35.4998 40.5002C35.4998 40.6002 35.5998 40.7002 35.6998 40.7002L35.7998 40.8002C35.8998 40.9002 35.8998 41.0002 35.9998 41.1002L36.0998 41.2002C36.0998 41.2002 36.0998 41.2002 36.0998 41.3002C36.1998 41.4002 36.1998 41.5002 36.2998 41.6002C36.2998 41.6002 36.2998 41.6002 36.3998 41.7002C36.4998 41.8002 36.5998 41.9002 36.6998 42.0002C36.6998 42.0002 36.6998 42.0002 36.7998 42.1002C36.8998 42.2002 36.9998 42.2002 36.9998 42.3002C37.0998 42.4002 37.0998 42.4002 37.1998 42.5002C37.2998 42.6002 37.2998 42.6002 37.3998 42.7002C37.4998 42.8002 37.4998 42.8002 37.5998 42.9002C37.6998 43.0002 37.6998 43.0002 37.7998 43.1002C37.8998 43.2002 37.9998 43.2002 37.9998 43.3002C38.0998 43.4002 38.0998 43.4002 38.1998 43.4002C38.2998 43.5002 38.3998 43.5002 38.4998 43.6002C38.5998 43.7002 38.6998 43.7002 38.7998 43.8002C38.9998 43.9002 39.1998 44.0002 39.3998 44.1002C39.4998 44.1002 39.4998 44.2002 39.5998 44.2002C39.7998 44.3002 39.8998 44.4002 40.0998 44.4002C40.1998 44.4002 40.1998 44.5002 40.2998 44.5002C40.4998 44.6002 40.7998 44.7002 40.9998 44.8002H41.0998C41.2998 44.9002 41.4998 44.9002 41.6998 45.0002C41.7998 45.0002 41.8998 45.1002 41.9998 45.1002C42.0998 45.1002 42.1998 45.2002 42.2998 45.2002C42.3998 45.2002 42.4998 45.3002 42.5998 45.3002C42.6998 45.3002 42.7998 45.4002 42.8998 45.4002C42.9998 45.4002 43.0998 45.4002 43.1998 45.5002C43.2998 45.5002 43.3998 45.6002 43.5998 45.6002C43.6998 45.6002 43.7998 45.6002 43.8998 45.7002C43.9998 45.7002 44.0998 45.7002 44.2998 45.8002C44.3998 45.8002 44.4998 45.8002 44.5998 45.9002C44.8998 45.9002 45.0998 46.0002 45.3998 46.0002H45.4998C45.6998 46.0002 45.9998 46.1002 46.1998 46.1002C46.2998 46.1002 46.3998 46.1002 46.4998 46.1002C46.5998 46.1002 46.7998 46.1002 46.8998 46.1002C46.9998 46.1002 47.0998 46.1002 47.1998 46.1002C47.3998 46.1002 47.4998 46.1002 47.6998 46.1002C47.7998 46.1002 47.8998 46.1002 47.9998 46.1002C48.0998 46.1002 48.2998 46.1002 48.3998 46.1002C48.4998 46.1002 48.5998 46.1002 48.6998 46.1002C48.7998 46.1002 48.9998 46.1002 49.0998 46.1002C49.1998 46.1002 49.2998 46.1002 49.3998 46.1002C49.4998 46.1002 49.6998 46.1002 49.7998 46.1002C49.8998 46.1002 49.9998 46.1002 50.0998 46.1002C50.1998 46.1002 50.3998 46.1002 50.4998 46.1002C50.5998 46.1002 50.6998 46.1002 50.6998 46.1002C50.8998 46.1002 51.0998 46.1002 51.1998 46.0002H51.2998C51.4998 46.0002 51.6998 45.9002 51.9998 45.9002H52.0998C52.2998 45.9002 52.4998 45.8002 52.6998 45.8002C52.7998 45.8002 52.8998 45.8002 52.8998 45.8002C52.9998 45.8002 53.1998 45.7002 53.2998 45.7002C53.3998 45.7002 53.3998 45.7002 53.4998 45.7002C53.6998 45.7002 53.7998 45.6002 53.9998 45.6002C54.0998 45.6002 54.1998 45.6002 54.2998 45.5002C54.3998 45.5002 54.5998 45.4002 54.6998 45.4002C54.7998 45.4002 54.8998 45.4002 54.8998 45.3002C55.0998 45.2002 55.2998 45.2002 55.5998 45.1002H55.6998C55.8998 45.0002 56.1998 44.9002 56.3998 44.8002C56.4998 44.8002 56.5998 44.7002 56.6998 44.7002C56.7998 44.7002 56.8998 44.6002 56.8998 44.6002C56.9998 44.6002 57.0998 44.5002 57.1998 44.5002C57.2998 44.5002 57.2998 44.4002 57.3998 44.4002C57.4998 44.3002 57.5998 44.3002 57.6998 44.2002C57.7998 44.2002 57.7998 44.1002 57.8998 44.1002C58.0998 44.0002 58.1998 43.9002 58.3998 43.8002C61.0998 42.2002 62.4998 40.1002 62.4998 38.1002L62.5998 71.2002C62.5998 73.3002 61.1998 75.3002 58.4998 76.9002C58.2998 77.0002 58.1998 77.1002 57.9998 77.2002C57.8998 77.2002 57.8998 77.3002 57.7998 77.3002C57.6998 77.4002 57.5998 77.4002 57.4998 77.5002C57.3998 77.5002 57.3998 77.6002 57.2998 77.6002C57.1998 77.6002 57.0998 77.7002 56.9998 77.7002C56.8998 77.7002 56.7998 77.8002 56.7998 77.8002C56.6998 77.8002 56.6998 77.9002 56.5998 77.9002C56.5998 77.9002 56.5998 77.9002 56.4998 77.9002C56.2998 78.0002 55.9998 78.1002 55.7998 78.2002H55.6998C55.4998 78.3002 55.2998 78.3002 54.9998 78.4002H54.8998H54.7998C54.6998 78.4002 54.4998 78.5002 54.3998 78.5002C54.2998 78.5002 54.1998 78.5002 54.0998 78.6002C53.8998 78.6002 53.7998 78.7002 53.5998 78.7002C53.4998 78.7002 53.4998 78.7002 53.3998 78.7002C53.2998 78.7002 53.0998 78.8002 52.9998 78.8002C52.8998 78.8002 52.7998 78.8002 52.7998 78.8002C52.5998 78.8002 52.3998 78.9002 52.1998 78.9002H52.0998C51.8998 78.9002 51.6998 79.0002 51.3998 79.0002C51.2998 79.0002 51.2998 79.0002 51.1998 79.0002C50.9998 79.0002 50.8998 79.0002 50.6998 79.0002C50.5998 79.0002 50.4998 79.0002 50.4998 79.0002C50.3998 79.0002 50.1998 79.0002 50.0998 79.0002C49.9998 79.0002 49.8998 79.0002 49.7998 79.0002C49.6998 79.0002 49.4998 79.0002 49.3998 79.0002C49.2998 79.0002 49.2998 79.0002 49.1998 79.0002C49.0998 79.0002 48.8998 79.0002 48.7998 79.0002C48.6998 79.0002 48.5998 79.0002 48.4998 79.0002C48.3998 79.0002 48.1998 79.0002 48.0998 79.0002C48.0998 79.0002 48.0998 79.0002 47.9998 79.0002C47.8998 79.0002 47.8998 79.0002 47.7998 79.0002C47.5998 79.0002 47.4998 79.0002 47.2998 79.0002C47.1998 79.0002 47.0998 79.0002 46.9998 79.0002C46.8998 79.0002 46.6998 79.0002 46.5998 79.0002C46.4998 79.0002 46.4998 79.0002 46.3998 79.0002H46.2998C46.0998 79.0002 45.7998 78.9002 45.5998 78.9002H45.4998C45.1998 78.9002 44.9998 78.8002 44.6998 78.8002C44.6998 78.8002 44.6998 78.8002 44.5998 78.8002C44.4998 78.8002 44.4998 78.8002 44.3998 78.8002C44.2998 78.8002 44.1998 78.8002 43.9998 78.7002C43.8998 78.7002 43.7998 78.7002 43.6998 78.6002C43.5998 78.6002 43.4998 78.5002 43.2998 78.5002C43.1998 78.5002 43.0998 78.5002 42.9998 78.4002C42.8998 78.4002 42.7998 78.3002 42.6998 78.3002C42.5998 78.3002 42.4998 78.2002 42.3998 78.2002C42.2998 78.2002 42.1998 78.1002 42.0998 78.1002H41.9998H41.8998C41.6998 78.0002 41.4998 78.0002 41.2998 77.9002H41.1998C40.9998 77.8002 40.6998 77.7002 40.4998 77.6002C40.3998 77.6002 40.3998 77.5002 40.2998 77.5002C40.0998 77.4002 39.9998 77.3002 39.7998 77.3002C39.6998 77.3002 39.6998 77.2002 39.5998 77.2002C39.3998 77.1002 39.1998 77.0002 38.9998 76.9002C38.8998 76.9002 38.8998 76.8002 38.7998 76.8002C38.6998 76.8002 38.6998 76.7002 38.5998 76.7002C38.4998 76.6002 38.3998 76.6002 38.2998 76.5002C38.1998 76.5002 38.1998 76.4002 38.0998 76.3002C37.9998 76.1002 37.8998 76.0002 37.8998 76.0002C37.7998 75.9002 37.7998 75.9002 37.6998 75.8002C37.5998 75.7002 37.5998 75.7002 37.4998 75.6002C37.3998 75.5002 37.3998 75.5002 37.2998 75.4002C37.1998 75.3002 37.1998 75.3002 37.0998 75.2002C37.0998 75.2002 36.9998 75.2002 36.9998 75.1002C36.8998 75.1002 36.8998 75.0002 36.7998 75.0002C36.7998 75.0002 36.7998 75.0002 36.6998 74.9002C36.5998 74.8002 36.4998 74.7002 36.3998 74.6002C36.3998 74.6002 36.3998 74.6002 36.2998 74.5002C36.1998 74.4002 36.0998 74.3002 36.0998 74.2002C36.0998 74.2002 36.0998 74.2002 36.0998 74.1002C36.0998 74.1002 36.0998 74.0002 35.9998 74.0002C35.8998 73.9002 35.8998 73.8002 35.7998 73.7002L35.6998 73.6002C35.5998 73.5002 35.5998 73.4002 35.4998 73.4002C35.4998 73.4002 35.4998 73.4002 35.4998 73.3002C35.4998 73.3002 35.4998 73.2002 35.3998 73.2002C35.3998 73.1002 35.2998 73.1002 35.2998 73.0002C35.2998 72.9002 35.1998 72.9002 35.1998 72.8002C35.1998 72.7002 35.0998 72.7002 35.0998 72.6002V72.5002V72.4002C35.0998 72.3002 35.0998 72.3002 34.9998 72.2002C34.9998 72.1002 34.9998 72.1002 34.8998 72.0002C34.8998 71.9002 34.8998 71.9002 34.8998 71.8002V71.7002C34.8998 71.7002 34.8998 71.7002 34.8998 71.6002C34.8998 71.5002 34.8998 71.5002 34.8998 71.4002C34.8998 71.3002 34.8998 71.3002 34.8998 71.2002C34.8998 71.1002 34.8998 71.1002 34.8998 71.0002V70.9002V70.8002L34.7998 37.7002C34.7998 38.0002 34.7998 38.1002 34.7998 38.1002Z" fill="#9AF4DC"/>
<path d="M62.6003 42.4001L62.5003 9.0001C62.5003 7.0001 61.2003 4.9001 58.5003 3.3001C53.1003 0.200098 44.3003 0.200098 38.9003 3.3001C36.0003 5.0001 34.7003 7.1001 34.8003 9.3001C34.8003 9.2001 34.8003 9.2001 34.8003 9.1001L34.9003 42.3001" stroke="#171A21" stroke-width="2" stroke-miterlimit="10" stroke-linecap="round" stroke-linejoin="round"/>
<path d="M73.0996 29.5002C73.0996 29.6002 73.0996 29.6002 73.0996 29.7002C73.0996 29.8002 73.0996 29.8002 73.0996 29.9002C73.0996 30.0002 73.0996 30.0002 73.0996 30.1002C73.0996 30.2002 73.0996 30.2002 73.0996 30.3002C73.0996 30.4002 73.0996 30.4002 73.0996 30.5002C73.0996 30.6002 73.0996 30.6002 73.1996 30.7002C73.1996 30.8002 73.1996 30.8002 73.2996 30.9002C73.2996 31.0002 73.2996 31.0002 73.3996 31.1002C73.3996 31.2002 73.4996 31.2002 73.4996 31.3002C73.4996 31.4002 73.5996 31.4002 73.5996 31.5002C73.5996 31.6002 73.6996 31.6002 73.6996 31.7002C73.6996 31.8002 73.7996 31.8002 73.7996 31.9002C73.7996 32.0002 73.8996 32.1002 73.9996 32.1002L74.0996 32.2002C74.1996 32.3002 74.1996 32.4002 74.2996 32.5002L74.3996 32.6002C74.3996 32.6002 74.3996 32.6002 74.3996 32.7002C74.4996 32.8002 74.4996 32.9002 74.5996 33.0002C74.5996 33.0002 74.5996 33.0002 74.6996 33.1002C74.7996 33.2002 74.8996 33.3002 74.9996 33.4002C74.9996 33.4002 74.9996 33.4002 75.0996 33.5002C75.1996 33.6002 75.2996 33.6002 75.2996 33.7002C75.3996 33.8002 75.3996 33.8002 75.4996 33.9002C75.5996 34.0002 75.5996 34.0002 75.6996 34.1002C75.7996 34.2002 75.7996 34.2002 75.8996 34.3002C75.9996 34.4002 75.9996 34.4002 76.0996 34.5002C76.1996 34.6002 76.2996 34.6002 76.2996 34.7002C76.3996 34.8002 76.3996 34.8002 76.4996 34.8002C76.5996 34.9002 76.6996 34.9002 76.7996 35.0002C76.8996 35.1002 76.9996 35.1002 77.0996 35.2002C77.2996 35.3002 77.4996 35.4002 77.6996 35.5002C77.7996 35.5002 77.7996 35.6002 77.8996 35.6002C78.0996 35.7002 78.1996 35.8002 78.3996 35.8002C78.4996 35.8002 78.4996 35.9002 78.5996 35.9002C78.7996 36.0002 79.0996 36.1002 79.2996 36.2002H79.3996C79.5996 36.3002 79.7996 36.3002 79.9996 36.4002C80.0996 36.4002 80.1996 36.5002 80.2996 36.5002C80.3996 36.5002 80.4996 36.6002 80.5996 36.6002C80.6996 36.6002 80.7996 36.7002 80.8996 36.7002C80.9996 36.7002 81.0996 36.8002 81.1996 36.8002C81.2996 36.8002 81.3996 36.8002 81.4996 36.9002C81.5996 36.9002 81.6996 37.0002 81.8996 37.0002C81.9996 37.0002 82.0996 37.0002 82.1996 37.1002C82.2996 37.1002 82.3996 37.1002 82.5996 37.2002C82.6996 37.2002 82.7996 37.2002 82.8996 37.3002C83.1996 37.3002 83.3996 37.4002 83.6996 37.4002H83.7996C83.9996 37.4002 84.2996 37.5002 84.4996 37.5002C84.5996 37.5002 84.6996 37.5002 84.7996 37.5002C84.8996 37.5002 85.0996 37.5002 85.1996 37.5002C85.2996 37.5002 85.3996 37.5002 85.4996 37.5002C85.6996 37.5002 85.7996 37.5002 85.9996 37.5002C86.0996 37.5002 86.1996 37.5002 86.2996 37.5002C86.3996 37.5002 86.5996 37.5002 86.6996 37.5002C86.7996 37.5002 86.8996 37.5002 86.9996 37.5002C87.0996 37.5002 87.2996 37.5002 87.3996 37.5002C87.4996 37.5002 87.5996 37.5002 87.6996 37.5002C87.7996 37.5002 87.9996 37.5002 88.0996 37.5002C88.1996 37.5002 88.2996 37.5002 88.3996 37.5002C88.4996 37.5002 88.6996 37.5002 88.7996 37.5002C88.8996 37.5002 88.9996 37.5002 88.9996 37.5002C89.1996 37.5002 89.3996 37.5002 89.4996 37.4002H89.5996C89.7996 37.4002 89.9996 37.3002 90.2996 37.3002H90.3996C90.5996 37.3002 90.7996 37.2002 90.9996 37.2002C91.0996 37.2002 91.1996 37.2002 91.1996 37.2002C91.2996 37.2002 91.4996 37.1002 91.5996 37.1002C91.6996 37.1002 91.6996 37.1002 91.7996 37.1002C91.9996 37.1002 92.0996 37.0002 92.2996 37.0002C92.3996 37.0002 92.4996 37.0002 92.5996 36.9002C92.6996 36.9002 92.8996 36.8002 92.9996 36.8002C93.0996 36.8002 93.1996 36.8002 93.1996 36.7002C93.3996 36.6002 93.5996 36.6002 93.8996 36.5002H93.9996C94.1996 36.4002 94.4996 36.3002 94.6996 36.2002C94.7996 36.2002 94.8996 36.1002 94.9996 36.1002C95.0996 36.1002 95.1996 36.0002 95.1996 36.0002C95.2996 36.0002 95.3996 35.9002 95.4996 35.9002C95.5996 35.9002 95.5996 35.8002 95.6996 35.8002C95.7996 35.7002 95.8996 35.7002 95.9996 35.6002C96.0996 35.6002 96.0996 35.5002 96.1996 35.5002C96.3996 35.4002 96.4996 35.3002 96.6996 35.2002C99.3996 33.6002 100.8 31.5002 100.8 29.5002L100.9 92.6002C100.9 94.7002 99.4996 96.7002 96.7996 98.3002C96.5996 98.4002 96.4996 98.5002 96.2996 98.6002C96.1996 98.6002 96.1996 98.7002 96.0996 98.7002C95.9996 98.8002 95.8996 98.8002 95.7996 98.9002C95.6996 98.9002 95.6996 99.0002 95.5996 99.0002C95.4996 99.0002 95.3996 99.1002 95.2996 99.1002C95.1996 99.1002 95.0996 99.2002 95.0996 99.2002C94.9996 99.2002 94.9996 99.3002 94.8996 99.3002C94.8996 99.3002 94.8996 99.3002 94.7996 99.3002C94.5996 99.4002 94.2996 99.5002 94.0996 99.6002H93.9996C93.7996 99.7002 93.5996 99.7002 93.2996 99.8002H93.1996H93.0996C92.9996 99.8002 92.7996 99.9002 92.6996 99.9002C92.5996 99.9002 92.4996 99.9002 92.3996 100C92.1996 100 92.0996 100.1 91.8996 100.1C91.7996 100.1 91.7996 100.1 91.6996 100.1C91.5996 100.1 91.3996 100.2 91.2996 100.2C91.1996 100.2 91.0996 100.2 91.0996 100.2C90.8996 100.2 90.6996 100.3 90.4996 100.3H90.3996C90.1996 100.3 89.9996 100.4 89.6996 100.4C89.5996 100.4 89.5996 100.4 89.4996 100.4C89.2996 100.4 89.1996 100.4 88.9996 100.4C88.8996 100.4 88.7996 100.4 88.7996 100.4C88.6996 100.4 88.4996 100.4 88.3996 100.4C88.2996 100.4 88.1996 100.4 88.0996 100.4C87.9996 100.4 87.7996 100.4 87.6996 100.4C87.5996 100.4 87.5996 100.4 87.4996 100.4C87.3996 100.4 87.1996 100.4 87.0996 100.4C86.9996 100.4 86.8996 100.4 86.7996 100.4C86.6996 100.4 86.4996 100.4 86.3996 100.4C86.3996 100.4 86.3996 100.4 86.2996 100.4C86.1996 100.4 86.1996 100.4 86.0996 100.4C85.8996 100.4 85.7996 100.4 85.5996 100.4C85.4996 100.4 85.3996 100.4 85.2996 100.4C85.1996 100.4 84.9996 100.4 84.8996 100.4C84.7996 100.4 84.7996 100.4 84.6996 100.4H84.5996C84.3996 100.4 84.0996 100.3 83.8996 100.3H83.7996C83.4996 100.3 83.2996 100.2 82.9996 100.2C82.9996 100.2 82.9996 100.2 82.8996 100.2C82.7996 100.2 82.7996 100.2 82.6996 100.2C82.5996 100.2 82.4996 100.2 82.2996 100.1C82.1996 100.1 82.0996 100.1 81.9996 100C81.8996 100 81.7996 99.9002 81.5996 99.9002C81.4996 99.9002 81.3996 99.9002 81.2996 99.8002C81.1996 99.8002 81.0996 99.7002 80.9996 99.7002C80.8996 99.7002 80.7996 99.6002 80.6996 99.6002C80.5996 99.6002 80.4996 99.5002 80.3996 99.5002H80.2996H80.1996C79.9996 99.4002 79.7996 99.4002 79.5996 99.3002H79.4996C79.2996 99.2002 78.9996 99.1002 78.7996 99.0002C78.6996 99.0002 78.6996 98.9002 78.5996 98.9002C78.3996 98.8002 78.2996 98.7002 78.0996 98.7002C77.9996 98.7002 77.9996 98.6002 77.8996 98.6002C77.6996 98.5002 77.4996 98.4002 77.2996 98.3002C77.1996 98.3002 77.1996 98.2002 77.0996 98.2002C76.9996 98.2002 76.9996 98.1002 76.8996 98.1002C76.7996 98.0002 76.6996 98.0002 76.5996 97.9002C76.4996 97.9002 76.4996 97.8002 76.3996 97.7002C76.2996 97.6002 76.1996 97.6002 76.1996 97.5002C76.0996 97.4002 76.0996 97.4002 75.9996 97.3002C75.8996 97.2002 75.8996 97.2002 75.7996 97.1002C75.6996 97.0002 75.6996 97.0002 75.5996 96.9002C75.4996 96.8002 75.4996 96.8002 75.3996 96.7002C75.3996 96.7002 75.2996 96.7002 75.2996 96.6002C75.1996 96.6002 75.1996 96.5002 75.0996 96.5002C75.0996 96.5002 75.0996 96.5002 74.9996 96.4002C74.8996 96.3002 74.7996 96.2002 74.6996 96.1002C74.6996 96.1002 74.6996 96.1002 74.5996 96.0002C74.4996 95.9002 74.3996 95.8002 74.3996 95.7002C74.3996 95.7002 74.3996 95.7002 74.3996 95.6002C74.3996 95.6002 74.3996 95.5002 74.2996 95.5002C74.1996 95.4002 74.1996 95.3002 74.0996 95.2002L73.9996 95.1002C73.9996 95.1002 73.9996 95.0002 73.8996 94.9002C73.8996 94.9002 73.8996 94.9002 73.8996 94.8002C73.8996 94.8002 73.8996 94.7002 73.7996 94.7002C73.7996 94.6002 73.6996 94.6002 73.6996 94.5002C73.6996 94.4002 73.5996 94.4002 73.5996 94.3002C73.5996 94.2002 73.4996 94.2002 73.4996 94.1002V94.0002V93.9002C73.4996 93.8002 73.4996 93.8002 73.3996 93.7002C73.3996 93.6002 73.3996 93.6002 73.2996 93.5002C73.2996 93.4002 73.2996 93.4002 73.2996 93.3002V93.2002C73.2996 93.2002 73.2996 93.2002 73.2996 93.1002C73.2996 93.0002 73.2996 93.0002 73.2996 92.9002C73.2996 92.8002 73.2996 92.8002 73.2996 92.7002C73.2996 92.6002 73.2996 92.6002 73.2996 92.5002V92.4002V92.3002L73.1996 29.2002C73.0996 29.4002 73.0996 29.4002 73.0996 29.5002Z" fill="#9AF4DC"/>
<path d="M73.2002 92.5V92.6C73.2002 92.7 73.2002 92.7 73.2002 92.8" stroke="#171A21" stroke-width="2" stroke-miterlimit="10" stroke-linecap="round" stroke-linejoin="round"/>
<path d="M100.8 30.4001C100.8 28.4001 99.4997 26.3001 96.7997 24.8001C91.3997 21.7001 82.5997 21.7001 77.1997 24.8001C74.3997 26.4001 72.9997 28.6001 73.0997 30.7001C73.0997 30.6001 73.0997 30.6001 73.0997 30.5001" stroke="#171A21" stroke-width="2" stroke-miterlimit="10" stroke-linecap="round" stroke-linejoin="round"/>
<path d="M111.399 92.9001C111.399 93.0001 111.399 93.0001 111.399 93.1001C111.399 93.2001 111.399 93.2001 111.399 93.3001C111.399 93.4001 111.399 93.4001 111.399 93.5001C111.399 93.6001 111.399 93.6001 111.399 93.7001C111.399 93.8001 111.399 93.8001 111.399 93.9001C111.399 94.0001 111.399 94.0001 111.499 94.1001C111.499 94.2001 111.499 94.2001 111.599 94.3001C111.599 94.4001 111.599 94.4001 111.699 94.5001C111.699 94.6001 111.799 94.6001 111.799 94.7001C111.799 94.8001 111.899 94.8001 111.899 94.9001C111.899 95.0001 111.999 95.0001 111.999 95.1001C111.999 95.2001 112.099 95.2001 112.099 95.3001C112.099 95.4001 112.199 95.5001 112.299 95.5001L112.399 95.6001C112.499 95.7001 112.499 95.8001 112.599 95.9001L112.699 96.0001C112.699 96.0001 112.699 96.0001 112.699 96.1001C112.799 96.2001 112.799 96.3001 112.899 96.4001C112.899 96.4001 112.899 96.4001 112.999 96.5001C113.099 96.6001 113.199 96.7001 113.299 96.8001C113.299 96.8001 113.299 96.8001 113.399 96.9001C113.499 97.0001 113.599 97.0001 113.599 97.1001C113.699 97.2001 113.699 97.2001 113.799 97.3001C113.899 97.4001 113.899 97.4001 113.999 97.5001C114.099 97.6001 114.099 97.6001 114.199 97.7001C114.299 97.8001 114.299 97.8001 114.399 97.9001C114.499 98.0001 114.599 98.0001 114.599 98.1001C114.699 98.2001 114.699 98.2001 114.799 98.2001C114.899 98.3001 114.999 98.3001 115.099 98.4001C115.199 98.5001 115.299 98.5001 115.399 98.6001C115.599 98.7001 115.799 98.8001 115.999 98.9001C116.099 98.9001 116.099 99.0001 116.199 99.0001C116.399 99.1001 116.499 99.2001 116.699 99.2001C116.799 99.2001 116.799 99.3001 116.899 99.3001C117.099 99.4001 117.399 99.5001 117.599 99.6001H117.699C117.899 99.7001 118.099 99.7001 118.299 99.8001C118.399 99.8001 118.499 99.9001 118.599 99.9001C118.699 99.9001 118.799 100 118.899 100C118.999 100 119.099 100.1 119.199 100.1C119.299 100.1 119.399 100.2 119.499 100.2C119.599 100.2 119.699 100.2 119.799 100.3C119.899 100.3 119.999 100.4 120.199 100.4C120.299 100.4 120.399 100.4 120.499 100.5C120.599 100.5 120.699 100.5 120.899 100.6C120.999 100.6 121.099 100.6 121.199 100.7C121.499 100.7 121.699 100.8 121.999 100.8H122.099C122.299 100.8 122.599 100.9 122.799 100.9C122.899 100.9 122.999 100.9 123.099 100.9C123.199 100.9 123.399 100.9 123.499 100.9C123.599 100.9 123.699 100.9 123.799 100.9C123.999 100.9 124.099 100.9 124.299 100.9C124.399 100.9 124.499 100.9 124.599 100.9C124.699 100.9 124.899 100.9 124.999 100.9C125.099 100.9 125.199 100.9 125.299 100.9C125.399 100.9 125.599 100.9 125.699 100.9C125.799 100.9 125.899 100.9 125.999 100.9C126.099 100.9 126.299 100.9 126.399 100.9C126.499 100.9 126.599 100.9 126.699 100.9C126.799 100.9 126.999 100.9 127.099 100.9C127.199 100.9 127.299 100.9 127.299 100.9C127.499 100.9 127.699 100.9 127.799 100.8H127.899C128.099 100.8 128.299 100.7 128.599 100.7H128.699C128.899 100.7 129.099 100.6 129.299 100.6C129.399 100.6 129.499 100.6 129.499 100.6C129.599 100.6 129.799 100.5 129.899 100.5C129.999 100.5 129.999 100.5 130.099 100.5C130.299 100.5 130.399 100.4 130.599 100.4C130.699 100.4 130.799 100.4 130.899 100.3C130.999 100.3 131.199 100.2 131.299 100.2C131.399 100.2 131.499 100.2 131.499 100.1C131.699 100 131.899 100 132.199 99.9001H132.299C132.499 99.8001 132.799 99.7001 132.999 99.6001C133.099 99.6001 133.199 99.5001 133.299 99.5001C133.399 99.5001 133.499 99.4001 133.499 99.4001C133.599 99.4001 133.699 99.3001 133.799 99.3001C133.899 99.3001 133.899 99.2001 133.999 99.2001C134.099 99.1001 134.199 99.1001 134.299 99.0001C134.399 99.0001 134.399 98.9001 134.499 98.9001C134.699 98.8001 134.799 98.7001 134.999 98.6001C137.699 97.0001 139.099 94.9001 139.099 92.9001L139.199 115C139.199 117.1 137.799 119.1 135.099 120.7C134.899 120.8 134.799 120.9 134.599 121C134.499 121 134.499 121.1 134.399 121.1C134.299 121.2 134.199 121.2 134.099 121.3C133.999 121.3 133.999 121.4 133.899 121.4C133.799 121.4 133.699 121.5 133.599 121.5C133.499 121.5 133.399 121.6 133.399 121.6C133.299 121.6 133.299 121.7 133.199 121.7C133.199 121.7 133.199 121.7 133.099 121.7C132.899 121.8 132.599 121.9 132.399 122H132.299C132.099 122.1 131.899 122.1 131.599 122.2H131.499H131.399C131.299 122.2 131.099 122.3 130.999 122.3C130.899 122.3 130.799 122.3 130.699 122.4C130.499 122.4 130.399 122.5 130.199 122.5C130.099 122.5 130.099 122.5 129.999 122.5C129.899 122.5 129.699 122.6 129.599 122.6C129.499 122.6 129.399 122.6 129.399 122.6C129.199 122.6 128.999 122.7 128.799 122.7H128.699C128.499 122.7 128.299 122.8 127.999 122.8C127.899 122.8 127.899 122.8 127.799 122.8C127.599 122.8 127.499 122.8 127.299 122.8C127.199 122.8 127.099 122.8 127.099 122.8C126.999 122.8 126.799 122.8 126.699 122.8C126.599 122.8 126.499 122.8 126.399 122.8C126.299 122.8 126.099 122.8 125.999 122.8C125.899 122.8 125.899 122.8 125.799 122.8C125.699 122.8 125.499 122.8 125.399 122.8C125.299 122.8 125.199 122.8 125.099 122.8C124.999 122.8 124.799 122.8 124.699 122.8C124.699 122.8 124.699 122.8 124.599 122.8C124.499 122.8 124.499 122.8 124.399 122.8C124.199 122.8 124.099 122.8 123.899 122.8C123.799 122.8 123.699 122.8 123.599 122.8C123.499 122.8 123.299 122.8 123.199 122.8C123.099 122.8 123.099 122.8 122.999 122.8H122.899C122.699 122.8 122.399 122.7 122.199 122.7H122.099C121.799 122.7 121.599 122.6 121.299 122.6C121.299 122.6 121.299 122.6 121.199 122.6C121.099 122.6 121.099 122.6 120.999 122.6C120.899 122.6 120.799 122.6 120.599 122.5C120.499 122.5 120.399 122.5 120.299 122.4C120.199 122.4 120.099 122.3 119.899 122.3C119.799 122.3 119.699 122.3 119.599 122.2C119.499 122.2 119.399 122.1 119.299 122.1C119.199 122.1 119.099 122 118.999 122C118.899 122 118.799 121.9 118.699 121.9H118.599H118.499C118.299 121.8 118.099 121.8 117.899 121.7H117.799C117.599 121.6 117.299 121.5 117.099 121.4C116.999 121.4 116.999 121.3 116.899 121.3C116.699 121.2 116.599 121.1 116.399 121.1C116.299 121.1 116.299 121 116.199 121C115.999 120.9 115.799 120.8 115.599 120.7C115.499 120.7 115.499 120.6 115.399 120.6C115.299 120.6 115.299 120.5 115.199 120.5C115.099 120.4 114.999 120.4 114.899 120.3C114.799 120.3 114.799 120.2 114.699 120.1C114.599 120 114.499 120 114.499 119.9C114.399 119.8 114.399 119.8 114.299 119.7C114.199 119.6 114.199 119.6 114.099 119.5C113.999 119.4 113.999 119.4 113.899 119.3C113.799 119.2 113.799 119.2 113.699 119.1C113.699 119.1 113.599 119.1 113.599 119C113.499 119 113.499 118.9 113.399 118.9C113.399 118.9 113.399 118.9 113.299 118.8C113.199 118.7 113.099 118.6 112.999 118.5C112.999 118.5 112.999 118.5 112.899 118.4C112.799 118.3 112.699 118.2 112.699 118.1C112.699 118.1 112.699 118.1 112.699 118C112.699 118 112.699 117.9 112.599 117.9C112.499 117.8 112.499 117.7 112.399 117.6L112.299 117.5C112.199 117.4 112.199 117.3 112.099 117.3C112.099 117.3 112.099 117.3 112.099 117.2C112.099 117.2 112.099 117.1 111.999 117.1C111.999 117 111.899 117 111.899 116.9C111.899 116.8 111.799 116.8 111.799 116.7C111.799 116.6 111.699 116.6 111.699 116.5V116.4V116.3C111.699 116.2 111.699 116.2 111.599 116.1C111.599 116 111.599 116 111.499 115.9C111.499 115.8 111.499 115.8 111.499 115.7V115.6C111.499 115.6 111.499 115.6 111.499 115.5C111.499 115.4 111.499 115.4 111.499 115.3C111.499 115.2 111.499 115.2 111.499 115.1C111.499 115 111.499 115 111.499 114.9V114.8V114.7L111.399 92.6001C111.399 92.7001 111.399 92.8001 111.399 92.9001Z" fill="#9AF4DC"/>
<path d="M139.2 95.7L139.1 52.7C139.1 50.7 137.8 48.6 135.1 47C129.7 43.9 120.9 43.9 115.5 47C112.7 48.6 111.3 50.8001 111.4 52.9001C111.4 52.8001 111.4 52.8 111.4 52.7L111.5 96.1" stroke="#171A21" stroke-width="2" stroke-miterlimit="10" stroke-linecap="round" stroke-linejoin="round"/>
<path d="M20.1994 81.1L4.29941 71.9C3.89941 71.7 3.39941 72 3.39941 72.4V88.6C3.39941 89.5 3.89941 90.3 4.59941 90.7L20.1994 99.7C20.9994 100.1 21.8994 100.1 22.6994 99.7L38.1994 90.7C38.9994 90.3 39.3994 89.5 39.3994 88.6V72.4C39.3994 71.9 38.8994 71.6 38.4994 71.9L22.6994 81.1C21.8994 81.5 20.9994 81.5 20.1994 81.1Z" fill="#9AF4DC"/>
<path d="M38.5 71.9001L22.7 81.1C21.9 81.5 21 81.5 20.2 81.1L4.3 71.9001C3.9 71.7001 3.9 71.1001 4.3 70.8001L20.1 61.6C20.9 61.2 21.8 61.2 22.6 61.6L38.5 70.8001C38.9 71.1001 38.9 71.7001 38.5 71.9001Z" fill="#EBFDF8"/>
<path d="M38.0998 90.8001C38.8998 90.4001 39.2998 89.6001 39.2998 88.7001V72.8001C39.2998 71.9001 38.7998 71.1001 38.0998 70.7001L22.4998 61.7001C21.6998 61.3001 20.7998 61.3001 19.9998 61.7001L4.4998 70.7001C3.6998 71.1001 3.2998 71.9001 3.2998 72.8001V88.7001C3.2998 89.6001 3.7998 90.4001 4.4998 90.8001" stroke="#171A21" stroke-width="2" stroke-miterlimit="10" stroke-linecap="round" stroke-linejoin="round"/>
<path d="M65.1002 119.3C73.6054 119.3 80.5002 112.405 80.5002 103.9C80.5002 95.3948 73.6054 88.5 65.1002 88.5C56.595 88.5 49.7002 95.3948 49.7002 103.9C49.7002 112.405 56.595 119.3 65.1002 119.3Z" fill="#EBFDF8" stroke="#171A21" stroke-width="2" stroke-miterlimit="10" stroke-linecap="round" stroke-linejoin="round"/>
<path d="M104 105.7L82.4002 128.8C81.8002 129.4 82.0002 130.4 82.7002 130.9L101.9 142C102.8 142.5 103.9 141.9 103.9 140.9L104 105.7Z" fill="#9AF4DC"/>
<path d="M103.8 105.7L125.4 128.8C126 129.4 125.8 130.4 125.1 130.9L105.9 142C105 142.5 103.9 141.9 103.9 140.9L103.8 105.7Z" fill="#EBFDF8"/>
<path d="M103.201 142.7C103.601 142.9 104.101 142.9 104.501 142.7L125.001 130.9C125.701 130.5 125.901 129.5 125.301 128.8L104.401 106.4C104.001 106 103.501 106 103.101 106.4" stroke="#171A21" stroke-width="2" stroke-miterlimit="10" stroke-linecap="round" stroke-linejoin="round"/>
</g>
<defs>
<clipPath id="clip0">
<rect width="144" height="144" fill="white"/>
</clipPath>
</defs>
</svg>
