<svg width="144" height="144" viewBox="0 0 144 144" fill="none" xmlns="http://www.w3.org/2000/svg">
<path d="M96.3003 127.3C95.7003 124.9 97.0003 122.4 100.2 120.5C105.6 117.3 114.4 117.2 119.8 120.3C123 122.1 124.3 124.6 123.8 127L123.2 131.2L113.9 136.7L105.6 137.3L99.4003 132.9L96.7003 129.9L96.3003 127.3Z" fill="white"/>
<path d="M96.2002 126.5C96.2002 126.6 96.2002 126.6 96.2002 126.7C96.2002 126.8 96.2002 126.8 96.2002 126.9C96.2002 127 96.2002 127 96.2002 127.1C96.2002 127.2 96.2002 127.2 96.2002 127.3C96.2002 127.4 96.2002 127.4 96.3002 127.5C96.3002 127.6 96.3002 127.6 96.4002 127.7C96.4002 127.8 96.4002 127.8 96.5002 127.9C96.5002 128 96.5002 128 96.6002 128.1C96.6002 128.2 96.7002 128.2 96.7002 128.3C96.7002 128.4 96.8002 128.4 96.8002 128.5C96.8002 128.6 96.9002 128.6 96.9002 128.7C96.9002 128.8 97.0002 128.8 97.0002 128.9C97.0002 128.9 97.0002 128.9 97.0002 129C97.1002 129.1 97.1002 129.2 97.2002 129.3C97.2002 129.3 97.2002 129.3 97.2002 129.4C97.3002 129.5 97.4002 129.6 97.4002 129.7C97.4002 129.7 97.4002 129.7 97.4002 129.8C97.5002 129.9 97.5002 130 97.6002 130.1C97.6002 130.1 97.6002 130.1 97.7002 130.2C97.8002 130.3 97.9002 130.4 98.0002 130.5C98.0002 130.5 98.0002 130.5 98.1002 130.6C98.2002 130.7 98.3002 130.7 98.3002 130.8C98.4002 130.9 98.4002 130.9 98.5002 131C98.6002 131.1 98.6002 131.1 98.7002 131.2C98.8002 131.3 98.8002 131.3 98.9002 131.4C99.0002 131.5 99.0002 131.5 99.1002 131.6C99.2002 131.7 99.3002 131.7 99.3002 131.8C99.4002 131.8 99.4002 131.9 99.5002 131.9C99.6002 132 99.7002 132 99.8002 132.1C99.9002 132.2 100 132.2 100.1 132.3C100.3 132.4 100.5 132.5 100.7 132.6C100.8 132.6 100.8 132.7 100.9 132.7C101.1 132.8 101.2 132.9 101.4 132.9C101.5 132.9 101.5 133 101.6 133C101.8 133.1 102.1 133.2 102.3 133.3H102.4C102.6 133.4 102.8 133.4 103 133.5C103.1 133.5 103.2 133.6 103.3 133.6C103.4 133.6 103.5 133.7 103.6 133.7C103.7 133.7 103.8 133.8 103.9 133.8C104 133.8 104.1 133.9 104.2 133.9C104.3 133.9 104.4 133.9 104.5 134C104.6 134 104.7 134.1 104.9 134.1C105 134.1 105.1 134.1 105.2 134.2C105.3 134.2 105.4 134.2 105.6 134.3C105.7 134.3 105.8 134.3 105.9 134.3C106.2 134.3 106.4 134.4 106.7 134.4H106.8C107 134.4 107.3 134.5 107.5 134.5C107.6 134.5 107.7 134.5 107.8 134.5C107.9 134.5 108.1 134.5 108.2 134.5C108.3 134.5 108.4 134.5 108.5 134.5C108.7 134.5 108.8 134.5 109 134.5C109.1 134.5 109.2 134.5 109.3 134.5C109.4 134.5 109.6 134.5 109.7 134.5C109.8 134.5 109.9 134.5 110 134.5C110.1 134.5 110.3 134.5 110.4 134.5C110.5 134.5 110.6 134.5 110.7 134.5C110.8 134.5 111 134.5 111.1 134.5C111.2 134.5 111.3 134.5 111.4 134.5C111.5 134.5 111.7 134.5 111.8 134.5C111.9 134.5 112 134.5 112 134.5C112.2 134.5 112.3 134.5 112.5 134.4C112.6 134.4 112.6 134.4 112.7 134.4C112.9 134.4 113.1 134.3 113.4 134.3H113.5C113.7 134.3 113.9 134.2 114.1 134.2C114.2 134.2 114.3 134.2 114.3 134.2C114.4 134.2 114.6 134.1 114.7 134.1C114.8 134.1 114.8 134.1 114.9 134C115.1 134 115.2 133.9 115.4 133.9C115.5 133.9 115.6 133.9 115.7 133.8C115.8 133.8 116 133.7 116.1 133.7C116.2 133.7 116.3 133.7 116.3 133.6C116.5 133.5 116.7 133.5 117 133.4H117.1C117.3 133.3 117.6 133.2 117.8 133.1C117.9 133.1 118 133 118.1 133C118.2 133 118.3 132.9 118.3 132.9C118.4 132.9 118.5 132.8 118.6 132.8C118.7 132.8 118.7 132.7 118.8 132.7C118.9 132.6 119 132.6 119.1 132.5C119.2 132.5 119.2 132.4 119.3 132.4C119.5 132.3 119.6 132.2 119.8 132.1C122.5 130.5 123.9 128.4 123.8 126.3L123.9 134.5C123.9 136.6 122.6 138.7 119.9 140.3C119.7 140.4 119.6 140.5 119.4 140.6C119.3 140.6 119.3 140.7 119.2 140.7C119.1 140.8 119 140.8 118.9 140.9C118.8 140.9 118.8 141 118.7 141C118.6 141.1 118.5 141.1 118.4 141.1C118.3 141.1 118.2 141.2 118.2 141.2C118.1 141.2 118.1 141.3 118 141.3C118 141.3 118 141.3 117.9 141.3C117.7 141.4 117.4 141.5 117.2 141.6H117.1C116.9 141.7 116.7 141.7 116.4 141.8H116.3H116.2C116.1 141.8 115.9 141.9 115.8 141.9C115.7 141.9 115.6 141.9 115.5 142C115.3 142 115.2 142.1 115 142.1C114.9 142.1 114.9 142.1 114.8 142.1C114.7 142.1 114.5 142.2 114.4 142.2C114.3 142.2 114.2 142.2 114.2 142.2C114 142.2 113.8 142.3 113.6 142.3H113.5C113.3 142.3 113.1 142.4 112.8 142.4C112.7 142.4 112.7 142.4 112.6 142.4C112.4 142.4 112.3 142.4 112.1 142.5C112 142.5 111.9 142.5 111.9 142.5C111.8 142.5 111.6 142.5 111.5 142.5C111.4 142.5 111.3 142.5 111.2 142.5C111.1 142.5 110.9 142.5 110.8 142.5C110.7 142.5 110.7 142.5 110.6 142.5C110.5 142.5 110.3 142.5 110.2 142.5C110.1 142.5 110 142.5 109.9 142.5C109.8 142.5 109.6 142.5 109.5 142.5H109.4C109.3 142.5 109.3 142.5 109.2 142.5C109 142.5 108.9 142.5 108.7 142.5C108.6 142.5 108.5 142.5 108.4 142.5C108.3 142.5 108.1 142.5 108 142.5C107.9 142.5 107.9 142.5 107.8 142.5H107.7C107.5 142.5 107.2 142.5 107 142.4H106.9C106.6 142.4 106.4 142.3 106.1 142.3C106.1 142.3 106.1 142.3 106 142.3C105.9 142.3 105.9 142.3 105.8 142.3C105.7 142.3 105.6 142.3 105.4 142.2C105.3 142.2 105.2 142.2 105.1 142.1C105 142.1 104.9 142 104.7 142C104.6 142 104.5 142 104.4 141.9C104.3 141.9 104.2 141.8 104.1 141.8C104 141.8 103.9 141.7 103.8 141.7C103.7 141.7 103.6 141.6 103.5 141.6H103.4H103.3C103.1 141.5 102.9 141.5 102.7 141.4H102.6C102.4 141.3 102.1 141.2 101.9 141.1C101.8 141.1 101.8 141 101.7 141C101.5 140.9 101.4 140.8 101.2 140.8C101.1 140.8 101.1 140.7 101 140.7C100.8 140.6 100.6 140.5 100.4 140.4C100.3 140.4 100.3 140.3 100.2 140.3C100.1 140.3 100.1 140.2 100 140.2C99.9002 140.1 99.8002 140.1 99.7002 140C99.6002 140 99.6002 139.9 99.5002 139.9C99.4002 139.8 99.3002 139.8 99.3002 139.7C99.2002 139.6 99.2002 139.6 99.1002 139.5C99.0002 139.4 99.0002 139.4 98.9002 139.3C98.8002 139.2 98.8002 139.2 98.7002 139.1C98.6002 139 98.6002 139 98.5002 138.9C98.5002 138.9 98.4002 138.9 98.4002 138.8C98.3002 138.8 98.3002 138.7 98.2002 138.7C98.2002 138.7 98.2002 138.7 98.1002 138.6C98.0002 138.5 97.9002 138.4 97.8002 138.3C97.8002 138.3 97.8002 138.3 97.7002 138.2C97.6002 138.1 97.5002 138 97.5002 137.9C97.5002 137.9 97.5002 137.9 97.5002 137.8C97.4002 137.7 97.4002 137.6 97.3002 137.5C97.3002 137.5 97.3002 137.5 97.3002 137.4C97.2002 137.3 97.2002 137.2 97.1002 137.1C97.1002 137.1 97.1002 137.1 97.1002 137C97.1002 137 97.1002 136.9 97.0002 136.9C97.0002 136.9 97.0002 136.8 96.9002 136.8C96.9002 136.7 96.8002 136.7 96.8002 136.6C96.8002 136.5 96.7002 136.5 96.7002 136.4C96.7002 136.3 96.6002 136.3 96.6002 136.2V136.1V136C96.6002 135.9 96.6002 135.9 96.5002 135.8C96.5002 135.7 96.5002 135.7 96.4002 135.6C96.4002 135.5 96.4002 135.5 96.3002 135.4V135.3C96.3002 135.3 96.3002 135.3 96.3002 135.2C96.3002 135.1 96.3002 135.1 96.3002 135C96.3002 134.9 96.3002 134.9 96.3002 134.8C96.3002 134.7 96.3002 134.7 96.3002 134.6V134.5V134.4L96.2002 126.2C96.2002 126.4 96.2002 126.4 96.2002 126.5Z" fill="#9AF4DC"/>
<path d="M124.201 126.9C124.701 124.5 123.401 122 120.201 120.2C114.801 117.1 106.001 117.2 100.601 120.4C97.4007 122.3 96.1007 124.8 96.7007 127.2" stroke="#171A21" stroke-width="2" stroke-miterlimit="10" stroke-linecap="round" stroke-linejoin="round"/>
<path d="M110.2 127.3C113 127.3 115.4 125 115.4 122.1V43.8001C115.4 41.0001 113.1 38.6001 110.2 38.6001C107.4 38.6001 105 40.9001 105 43.8001V122.1C105.1 125 107.4 127.3 110.2 127.3Z" fill="#EBFDF8" stroke="#171A21" stroke-width="2" stroke-miterlimit="10" stroke-linecap="round" stroke-linejoin="round"/>
<path d="M85.2008 60.6C85.2008 60.2 85.1008 59.7 85.1008 59.3C85.1008 59.2 85.1008 59.1 85.0008 58.9C85.0008 58.7 84.9008 58.5 84.9008 58.3C84.9008 58.2 84.9008 58 84.8008 57.9C84.8008 57.7 84.7008 57.5 84.7008 57.3C84.7008 57.2 84.7008 57.1 84.6008 57C84.5008 56.5 84.4008 56 84.2008 55.5C84.2008 55.4 84.2008 55.3 84.1008 55.2C84.0008 54.8 83.8008 54.3 83.7008 53.9V53.8C83.6008 53.4 83.4008 53 83.2008 52.5C83.2008 52.4 83.1008 52.3 83.1008 52.2C83.0008 51.8 82.8008 51.5 82.7008 51.1C82.7008 51 82.7008 51 82.6008 50.9C82.4008 50.5 82.3008 50.1 82.1008 49.7C82.1008 49.6 82.0008 49.5 82.0008 49.4C81.9008 49.1 81.7008 48.8 81.5008 48.5C81.5008 48.4 81.4008 48.3 81.4008 48.2C81.2008 47.8 81.0008 47.4 80.8008 47.1C80.8008 47 80.7008 47 80.7008 46.9C80.5008 46.6 80.3008 46.3 80.1008 45.9C80.0008 45.8 80.0008 45.7 79.9008 45.6C79.7008 45.2 79.4008 44.8 79.1008 44.5C79.1008 44.4 79.0008 44.4 79.0008 44.3C78.7008 43.9 78.4008 43.5 78.1008 43.1L78.0008 43C77.6008 42.5 77.3008 42.1 76.9008 41.6C76.8008 41.5 76.8008 41.5 76.7008 41.4C76.5008 41.1 76.2008 40.9 76.0008 40.6C75.7008 40.3 75.5008 40.1 75.2008 39.8C75.1008 39.7 75.1008 39.7 75.0008 39.6C74.7008 39.3 74.3008 38.9 74.0008 38.6L73.9008 38.5C73.5008 38.2 73.2008 37.9 72.8008 37.6C72.7008 37.5 72.7008 37.5 72.6008 37.4C72.2008 37.1 71.9008 36.8 71.5008 36.6C71.4008 36.6 71.4008 36.5 71.3008 36.5C70.9008 36.2 70.5008 36 70.1008 35.8C69.8008 35.6 69.5008 35.4 69.1008 35.3C69.0008 35.3 68.9008 35.2 68.8008 35.2C68.6008 35.1 68.3008 35 68.1008 34.9C68.2008 35 68.1008 35 68.0008 35C67.8008 34.9 67.6008 34.8 67.3008 34.7C67.2008 34.7 67.2008 34.7 67.1008 34.6C66.8008 34.5 66.6008 34.4 66.3008 34.3C66.1008 34.3 66.0008 34.2 65.8008 34.2C65.7008 34.2 65.7008 34.2 65.6008 34.1C65.4008 34.1 65.1008 34 64.9008 34C64.7008 34 64.5008 33.9 64.3008 33.9C64.2008 33.9 64.2008 33.9 64.1008 33.9C64.0008 33.9 63.9008 33.9 63.7008 33.9C63.4008 33.9 63.1008 33.9 62.8008 33.9H62.7008C62.5008 33.9 62.2008 33.9 62.0008 34C61.9008 34 61.9008 34 61.8008 34C61.5008 34 61.3008 34.1 61.0008 34.2C60.8008 34.3 60.5008 34.4 60.3008 34.4C60.2008 34.4 60.2008 34.5 60.1008 34.5C59.9008 34.6 59.7008 34.7 59.5008 34.8C59.4008 34.8 59.4008 34.9 59.3008 34.9L116.001 1.9H116.101H116.201C116.401 1.8 116.601 1.7 116.801 1.6C116.801 1.6 116.901 1.6 116.901 1.5H117.001C117.201 1.4 117.401 1.3 117.701 1.3C117.901 1.2 118.201 1.2 118.501 1.1H118.601H118.701C118.901 1.1 119.201 1 119.401 1H119.501C119.801 1 120.101 1 120.401 1H120.501C120.601 1 120.701 1 120.801 1C120.901 1 120.901 1 121.001 1C121.201 1 121.401 1 121.601 1.1C121.801 1.1 122.101 1.2 122.301 1.2C122.401 1.2 122.401 1.2 122.501 1.3C122.601 1.3 122.801 1.4 122.901 1.4C123.201 1.5 123.401 1.6 123.701 1.7C123.801 1.7 123.801 1.7 123.901 1.8C124.101 1.9 124.301 2 124.601 2.1H124.701C124.801 2.1 124.801 2.2 124.901 2.2C125.101 2.3 125.401 2.4 125.601 2.5C125.701 2.5 125.801 2.6 125.901 2.6C126.201 2.8 126.501 2.9 126.901 3.1C127.301 3.3 127.701 3.6 128.101 3.8C128.201 3.8 128.201 3.9 128.301 3.9C128.701 4.2 129.001 4.4 129.401 4.7C129.501 4.8 129.501 4.8 129.601 4.9C130.001 5.2 130.301 5.5 130.701 5.8L130.801 5.9C131.101 6.2 131.501 6.5 131.801 6.9L131.901 7C131.901 7 131.901 7 132.001 7.1C132.301 7.4 132.501 7.6 132.801 7.9C133.001 8.2 133.301 8.4 133.501 8.7C133.501 8.7 133.501 8.7 133.601 8.8L133.701 8.9C134.101 9.3 134.501 9.8 134.801 10.3C134.801 10.3 134.801 10.3 134.901 10.4C135.201 10.8 135.501 11.2 135.701 11.5L135.801 11.6C135.801 11.6 135.801 11.6 135.801 11.7C136.101 12.1 136.301 12.5 136.601 12.8L136.701 12.9C136.701 13 136.801 13 136.801 13.1C137.001 13.4 137.201 13.7 137.401 14.1C137.401 14.2 137.501 14.2 137.501 14.3C137.501 14.3 137.501 14.3 137.501 14.4C137.701 14.8 137.901 15.1 138.101 15.5C138.101 15.5 138.101 15.6 138.201 15.6C138.201 15.7 138.301 15.7 138.301 15.8C138.501 16.1 138.601 16.4 138.801 16.7C138.801 16.8 138.901 16.8 138.901 16.9C138.901 16.9 138.901 17 139.001 17C139.201 17.4 139.401 17.8 139.501 18.2C139.501 18.2 139.501 18.3 139.601 18.3C139.801 18.7 139.901 19 140.001 19.4C140.001 19.5 140.001 19.5 140.101 19.6C140.101 19.6 140.101 19.7 140.201 19.7C140.401 20.1 140.501 20.5 140.701 21V21.1C140.901 21.5 141.101 21.8 141.101 22.2C141.101 22.3 141.101 22.4 141.201 22.5V22.6C141.301 23.1 141.501 23.6 141.601 24.1V24.2C141.601 24.3 141.601 24.3 141.601 24.4C141.601 24.6 141.701 24.8 141.701 25C141.701 25.1 141.801 25.3 141.801 25.4C141.801 25.6 141.901 25.8 141.901 26C141.901 26.1 141.901 26.2 141.901 26.3V26.4C142.001 26.8 142.001 27.3 142.001 27.7C142.001 27.8 142.001 27.9 142.001 28C142.001 28.4 142.001 28.9 142.001 29.3L141.901 59C141.901 59.6 141.601 60.2 141.101 60.5L87.7008 91.5C86.6008 92.2 85.2008 91.3 85.2008 90L85.3008 62.2C85.3008 61.8 85.3008 61.3 85.3008 60.9C85.2008 60.8 85.2008 60.7 85.2008 60.6Z" fill="#9AF4DC"/>
<path d="M70.2004 36C61.8004 31.2 55.0004 35 55.0004 44.7L54.9004 74.4C54.9004 75 55.2004 75.6 55.7004 75.9L82.6004 91.4C83.7004 92 85.1004 91.2 85.1004 89.9L85.2004 62.0999C85.3004 52.5999 78.5004 40.9 70.2004 36Z" fill="#EBFDF8"/>
<path d="M70.2004 36C61.8004 31.2 55.0004 35 55.0004 44.7L54.9004 74.4C54.9004 75 55.2004 75.6 55.7004 75.9L82.6004 91.4C83.7004 92 85.1004 91.2 85.1004 89.9" stroke="#171A21" stroke-width="2" stroke-miterlimit="10" stroke-linecap="round" stroke-linejoin="round"/>
<path d="M99.7 55.2001L121.7 42.5001C123.2 41.7001 124.4 42.3001 124.4 44.0001V47.0001V52.1001C124.4 54.6001 122.7 57.6001 120.5 58.8001C118.3 60.0001 116.6 59.0001 116.6 56.6001V51.5001L99.7 61.3001C98.2 62.1001 97 61.5001 97 59.8001C97.1 58.1001 98.3 56.1001 99.7 55.2001Z" fill="white"/>
<path d="M29.1007 115.6C28.9007 115.6 28.5007 115.5 28.5007 115.5L27.9007 115.4L27.4007 115.3L26.9007 115.1L26.7007 115L26.9007 114L26.6007 114.9L26.5007 114.8C26.3007 114.7 26.1007 114.6 25.9007 114.6C25.7007 114.5 25.6007 114.4 25.4007 114.4L25.2007 114.3L25.6007 113.4L25.1007 114.3L24.8007 114.1L24.4007 113.9C24.3007 113.8 23.9007 113.6 23.9007 113.6C23.7007 113.5 23.6007 113.4 23.4007 113.3C23.2007 113.2 23.1007 113 22.9007 112.9L22.4007 112.5L21.8007 112L21.4007 111.6L20.9007 111.1L20.8007 111L21.4007 110.2L20.7007 110.9L20.4007 110.6L19.9007 110L19.5007 109.5L19.0007 108.9C18.8007 108.7 18.7007 108.5 18.5007 108.2C18.5007 108.2 18.2007 107.7 18.0007 107.6C17.8007 107.3 17.6007 107.1 17.5007 106.8C17.3007 106.4 17.0007 106.1 16.8007 105.7L16.7007 105.6C16.4007 105.1 16.1007 104.6 15.9007 104.1L15.8007 104C15.6007 103.6 15.4007 103.2 15.2007 102.9L14.8007 102L14.5007 101.3C14.4007 101.1 14.3007 100.8 14.2007 100.6L14.1007 100.4L15.0007 100L14.1007 100.3L13.8007 99.5L14.7007 99.1L13.8007 99.4L13.5007 98.6C13.4007 98.4 13.4007 98.2 13.3007 98C13.2007 97.7 13.1007 97.5 13.1007 97.2L12.9007 96.3L12.8007 95.7L12.7007 95L12.5007 94C12.5007 93.8 12.4007 93.3 12.4007 93.3C12.4007 93.1 12.3007 92.8 12.3007 92.6L12.2007 92V91.3V91.1C12.2007 90.9 12.2007 90.9 12.2007 90.8C12.2007 90.7 12.2007 90.6 12.2007 90.5C12.2007 90.4 12.2007 90.3 12.2007 90.2C12.2007 90.1 12.2007 90.1 12.2007 90C12.2007 89.9 12.2007 89.8 12.2007 89.7C12.2007 89.6 12.2007 89.6 12.2007 89.5C12.2007 89.4 12.1007 89.3 12.2007 89.1V88.9L13.2007 88.8H12.2007L12.3007 88.1H13.3007L12.3007 88L12.4007 87.2L12.5007 86.5L12.7007 85.8V85.7C12.7007 85.5 12.8007 85.4 12.8007 85.2L12.9007 85C13.0007 84.7 13.1007 84.4 13.2007 84.2V84.1C13.3007 83.8 13.5007 83.5 13.6007 83.2L13.7007 83.1C13.8007 82.9 13.9007 82.7 14.1007 82.5L14.2007 82.4C14.4007 82.1 14.5007 82 14.7007 81.8C14.9007 81.6 15.1007 81.4 15.3007 81.2L15.4007 81.1C15.6007 80.9 15.8007 80.8 16.0007 80.6L24.8007 74.7C25.0007 74.6 25.2007 74.5 25.4007 74.5C25.7007 74.5 26.0007 74.7 26.2007 74.9C26.5007 75.4 26.4007 76 25.9007 76.3C25.8007 76.4 25.6007 76.5 25.5007 76.6L25.4007 76.7C25.3007 76.8 25.1007 76.9 25.0007 77.1C24.9007 77.3 24.7007 77.4 24.6007 77.6L24.5007 77.7C24.4007 77.9 24.3007 78 24.2007 78.2C24.1007 78.5 23.9007 78.7 23.8007 79C23.7007 79.3 23.6007 79.5 23.6007 79.7C23.6007 79.7 23.5007 80.2 23.4007 80.3L23.3007 80.6L23.2007 81L23.1007 81.3L23.0007 81.9V82.2V82.8C23.0007 83 23.0007 83.4 23.0007 83.4C23.0007 83.7 23.0007 83.9 23.0007 84.2C23.0007 84.4 23.0007 84.6 23.0007 84.9C23.0007 84.9 23.0007 85.5 23.0007 85.6V85.8C23.0007 86 23.1007 86.5 23.1007 86.5C23.1007 86.7 23.2007 87 23.2007 87.2C23.2007 87.5 23.3007 87.7 23.3007 87.9L23.5007 88.8L23.7007 89.6C23.7007 89.8 23.9007 90.3 23.9007 90.3C24.0007 90.5 24.0007 90.8 24.1007 91C24.2007 91.3 24.3007 91.5 24.3007 91.7C24.3007 91.7 24.5007 92.3 24.5007 92.4L24.8007 93.4C24.9007 93.6 25.0007 93.9 25.1007 94.1C25.1007 94.1 25.3007 94.6 25.4007 94.8L25.7007 95.5C25.9007 95.8 26.0007 96.2 26.2007 96.5L26.3007 96.7C26.5007 97.1 26.8007 97.6 27.0007 98L27.1007 98.2C27.3007 98.6 27.5007 98.9 27.7007 99.2C27.9007 99.4 28.0007 99.7 28.2007 99.9C28.3007 100.1 28.5007 100.3 28.6007 100.4L27.9007 101.1L28.7007 100.5C28.8007 100.7 29.0007 100.9 29.2007 101.1C29.2007 101.1 29.6007 101.6 29.7007 101.7L30.4007 102.5L30.9007 103L31.2007 103.3L31.7007 103.8L31.9007 104L32.4007 104.5C32.5007 104.6 32.9007 104.9 32.9007 104.9C33.1007 105 33.2007 105.2 33.4007 105.3C33.6007 105.4 33.8007 105.6 34.0007 105.7C34.2007 105.8 34.3007 105.9 34.5007 106L34.7007 106.1C34.8007 106.2 34.9007 106.2 35.0007 106.3C35.0007 106.3 35.4007 106.5 35.5007 106.5C35.8007 106.5 36.0007 106.7 36.1007 106.8C36.2007 106.8 36.2007 106.9 36.3007 106.9C36.4007 106.9 36.5007 107 36.6007 107L36.8007 107.1C36.9007 107.1 37.0007 107.2 37.1007 107.2H37.3007L37.8007 107.3L38.2007 107.4H38.6007H38.7007C38.9007 107.4 39.0007 107.4 39.1007 107.4H39.3007C39.4007 107.4 39.6007 107.4 39.7007 107.3L40.0007 108.3L39.8007 107.3C39.9007 107.3 40.0007 107.3 40.1007 107.2L40.4007 107.1C40.5007 107.1 40.6007 107 40.6007 107L41.2007 107.8L40.7007 106.9C40.8007 106.8 40.9007 106.8 41.0007 106.7C41.2007 106.6 41.4007 106.5 41.6007 106.5C41.9007 106.5 42.2007 106.7 42.4007 106.9C42.7007 107.4 42.6007 108 42.1007 108.3L33.3007 114.2C33.1007 114.3 33.0007 114.4 32.8007 114.5L32.7007 114.6C32.5007 114.7 32.4007 114.7 32.3007 114.8C32.2007 114.9 32.1007 114.9 32.1007 114.9L31.6007 114L32.0007 114.9L31.9007 115C31.8007 115 31.6007 115.1 31.5007 115.1H31.4007H31.3007C31.2007 115.1 30.9007 115.2 30.7007 115.2C30.6007 115.2 30.5007 115.2 30.5007 115.2C30.4007 115.2 30.2007 115.2 30.1007 115.2H30.0007C29.7007 115.6 29.1007 115.6 29.1007 115.6Z" fill="white"/>
<path d="M25.3004 75.7C25.1004 75.8 25.0004 75.9 24.8004 76.1L24.7004 76.2C24.5004 76.3 24.4004 76.5 24.2004 76.7C24.1004 76.9 23.9004 77 23.8004 77.2L23.7004 77.3C23.6004 77.5 23.4004 77.7 23.3004 77.9C23.3004 77.9 23.3004 77.9 23.3004 78C23.2004 78.3 23.0004 78.5 22.9004 78.8C22.9004 78.8 22.9004 78.8 22.9004 78.9C22.8004 79.1 22.7004 79.3 22.7004 79.6C22.7004 79.7 22.7004 79.7 22.6004 79.8C22.6004 79.9 22.5004 80.1 22.5004 80.2C22.5004 80.3 22.5004 80.4 22.4004 80.5C22.4004 80.6 22.3004 80.7 22.3004 80.9C22.3004 81 22.3004 81.1 22.2004 81.2C22.2004 81.3 22.2004 81.4 22.1004 81.5C22.1004 81.6 22.1004 81.7 22.0004 81.9C22.0004 82 22.0004 82.1 22.0004 82.2C22.0004 82.3 22.0004 82.5 22.0004 82.6C22.0004 82.7 22.0004 82.8 22.0004 82.9C22.0004 83.1 22.0004 83.2 22.0004 83.4C22.0004 83.5 22.0004 83.5 22.0004 83.6C22.0004 83.8 22.0004 84.1 22.0004 84.3C22.0004 84.5 22.0004 84.8 22.0004 85C22.0004 85.1 22.0004 85.2 22.0004 85.2C22.0004 85.4 22.0004 85.5 22.0004 85.7C22.0004 85.8 22.0004 85.9 22.0004 86C22.0004 86.2 22.0004 86.4 22.0004 86.5C22.0004 86.6 22.0004 86.6 22.0004 86.7C22.0004 86.9 22.1004 87.2 22.1004 87.4V87.5C22.1004 87.7 22.2004 87.9 22.2004 88.1C22.2004 88.2 22.2004 88.3 22.2004 88.4C22.2004 88.6 22.3004 88.7 22.3004 88.9C22.3004 89 22.3004 89.1 22.4004 89.2C22.4004 89.4 22.5004 89.5 22.5004 89.7C22.5004 89.8 22.5004 89.9 22.6004 90C22.6004 90.2 22.7004 90.3 22.7004 90.5C22.7004 90.6 22.7004 90.7 22.8004 90.7C22.9004 91 22.9004 91.2 23.0004 91.5C23.0004 91.5 23.0004 91.5 23.0004 91.6C23.1004 91.8 23.1004 92.1 23.2004 92.3C23.2004 92.4 23.2004 92.5 23.3004 92.5C23.4004 92.7 23.4004 92.9 23.5004 93C23.5004 93.1 23.6004 93.2 23.6004 93.2C23.7004 93.4 23.7004 93.6 23.8004 93.7C23.8004 93.8 23.8004 93.8 23.9004 93.9C24.0004 94.1 24.1004 94.4 24.2004 94.6C24.2004 94.7 24.3004 94.7 24.3004 94.8C24.4004 95 24.5004 95.2 24.5004 95.4C24.6004 95.5 24.6004 95.7 24.7004 95.8C24.8004 95.9 24.8004 96.1 24.9004 96.2C25.1004 96.5 25.2004 96.9 25.4004 97.2C25.4004 97.3 25.5004 97.3 25.5004 97.4C25.7004 97.9 26.0004 98.3 26.3004 98.8C26.3004 98.9 26.4004 98.9 26.4004 99C26.6004 99.4 26.8004 99.7 27.0004 100.1C27.2004 100.3 27.3004 100.6 27.5004 100.8C27.6004 101 27.8004 101.2 27.9004 101.4C27.9004 101.4 27.9004 101.5 28.0004 101.5C28.2004 101.7 28.3004 101.9 28.5004 102.1C28.5004 102.2 28.6004 102.2 28.6004 102.3C28.7004 102.4 28.8004 102.6 28.9004 102.7C29.0004 102.8 29.0004 102.9 29.1004 102.9C29.2004 103 29.3004 103.1 29.4004 103.3C29.5004 103.4 29.5004 103.5 29.6004 103.5C29.7004 103.6 29.8004 103.7 29.9004 103.8C30.0004 103.9 30.1004 104 30.1004 104C30.2004 104.1 30.3004 104.2 30.4004 104.3C30.5004 104.4 30.6004 104.5 30.6004 104.5C30.7004 104.6 30.8004 104.7 30.9004 104.8C31.0004 104.9 31.1004 104.9 31.1004 105C31.2004 105.1 31.3004 105.2 31.4004 105.3C31.5004 105.4 31.5004 105.4 31.6004 105.5C31.7004 105.6 31.8004 105.7 32.0004 105.8C32.1004 105.8 32.1004 105.9 32.2004 105.9C32.4004 106 32.6004 106.2 32.7004 106.3C32.9004 106.4 33.1004 106.6 33.3004 106.7C33.5004 106.8 33.6004 106.9 33.8004 107C33.9004 107 33.9004 107.1 34.0004 107.1C34.1004 107.2 34.3004 107.2 34.4004 107.3C34.5004 107.3 34.5004 107.4 34.6004 107.4C34.8004 107.5 34.9004 107.6 35.1004 107.7C35.3004 107.7 35.4004 107.9 35.6004 107.9C35.7004 107.9 35.7004 108 35.8004 108C35.9004 108 36.0004 108.1 36.1004 108.1C36.2004 108.1 36.2004 108.1 36.3004 108.2C36.4004 108.2 36.5004 108.3 36.6004 108.3C36.7004 108.3 36.7004 108.3 36.8004 108.4C36.9004 108.4 37.0004 108.4 37.1004 108.5C37.2004 108.5 37.3004 108.5 37.3004 108.5C37.4004 108.5 37.5004 108.5 37.6004 108.5C37.7004 108.5 37.8004 108.5 37.8004 108.5C37.9004 108.5 38.0004 108.4 38.0004 108.4C38.1004 108.4 38.2004 108.3 38.3004 108.3C38.4004 108.3 38.4004 108.4 38.5004 108.4C38.6004 108.4 38.7004 108.5 38.9004 108.5C39.0004 108.5 39.0004 108.5 39.1004 108.5C39.3004 108.5 39.5004 108.5 39.6004 108.4C39.6004 108.4 39.6004 108.4 39.7004 108.4H39.8004C39.9004 108.4 40.0004 108.3 40.1004 108.3C40.2004 108.3 40.2004 108.3 40.3004 108.2C40.4004 108.2 40.5004 108.1 40.6004 108.1C40.7004 108.1 40.8004 108 40.9004 108C40.9004 108 41.0004 108 41.0004 107.9C41.1004 107.8 41.3004 107.7 41.4004 107.6L32.6004 113.5C32.5004 113.6 32.3004 113.7 32.2004 113.8C32.2004 113.8 32.1004 113.8 32.1004 113.9C32.0004 113.9 31.9004 114 31.8004 114C31.7004 114 31.7004 114 31.6004 114.1C31.5004 114.1 31.5004 114.1 31.4004 114.2C31.3004 114.2 31.2004 114.3 31.1004 114.3H31.0004C30.8004 114.3 30.6004 114.4 30.5004 114.4H30.4004H30.3004C30.2004 114.4 30.1004 114.3 29.9004 114.3L29.8004 114.2L29.7004 114.3C29.6004 114.3 29.5004 114.3 29.4004 114.3C29.3004 114.3 29.3004 114.3 29.2004 114.3C29.2004 114.3 29.2004 114.3 29.1004 114.3C29.0004 114.3 28.9004 114.3 28.9004 114.3C28.8004 114.3 28.8004 114.3 28.7004 114.3H28.6004C28.5004 114.3 28.4004 114.3 28.4004 114.3C28.3004 114.3 28.3004 114.3 28.2004 114.3H28.1004C28.0004 114.3 28.0004 114.3 27.9004 114.2C27.8004 114.2 27.8004 114.2 27.7004 114.2C27.6004 114.2 27.6004 114.2 27.5004 114.2C27.4004 114.2 27.4004 114.2 27.3004 114.1H27.2004C27.1004 114.1 27.0004 114 27.0004 114C26.9004 114 26.9004 114 26.8004 113.9C26.8004 113.9 26.8004 113.9 26.7004 113.9C26.5004 113.8 26.4004 113.8 26.2004 113.7C26.0004 113.6 25.9004 113.6 25.7004 113.5C25.7004 113.5 25.7004 113.5 25.6004 113.5C25.5004 113.5 25.5004 113.4 25.4004 113.4C25.3004 113.4 25.2004 113.3 25.2004 113.3L25.1004 113.2C25.0004 113.2 25.0004 113.1 24.9004 113.1L24.8004 113C24.7004 112.9 24.6004 112.8 24.4004 112.8L24.3004 112.7C24.2004 112.6 24.0004 112.5 23.9004 112.4C23.7004 112.3 23.6004 112.2 23.4004 112C23.3004 112 23.3004 111.9 23.2004 111.9C23.1004 111.8 23.0004 111.8 22.9004 111.7L22.8004 111.6C22.7004 111.5 22.7004 111.5 22.6004 111.4C22.5004 111.3 22.5004 111.3 22.4004 111.2L22.3004 111.1C22.2004 111 22.1004 111 22.1004 110.9C22.0004 110.9 22.0004 110.8 21.9004 110.8L21.8004 110.7C21.7004 110.6 21.6004 110.5 21.6004 110.5L21.5004 110.4C21.4004 110.3 21.4004 110.3 21.3004 110.2C21.2004 110.1 21.1004 110 21.1004 109.9L21.0004 109.8C20.9004 109.7 20.9004 109.7 20.8004 109.6C20.7004 109.5 20.7004 109.4 20.6004 109.4L20.5004 109.3C20.4004 109.2 20.4004 109.1 20.3004 109C20.2004 108.9 20.2004 108.8 20.1004 108.8C20.1004 108.8 20.1004 108.8 20.0004 108.7C19.9004 108.6 19.8004 108.5 19.7004 108.3C19.7004 108.2 19.6004 108.2 19.6004 108.1C19.5004 107.9 19.3004 107.7 19.2004 107.5C19.2004 107.5 19.2004 107.4 19.1004 107.4C19.0004 107.2 18.9004 107 18.7004 106.9C18.5004 106.7 18.4004 106.4 18.2004 106.2C18.0004 105.9 17.8004 105.5 17.6004 105.1L17.5004 105V104.9C17.2004 104.4 17.0004 104 16.7004 103.5C16.7004 103.5 16.7004 103.4 16.6004 103.4V103.3C16.4004 103 16.3004 102.6 16.1004 102.3C16.1004 102.3 16.1004 102.3 16.1004 102.2C16.1004 102.1 16.0004 102 16.0004 101.9C15.9004 101.8 15.9004 101.6 15.8004 101.5V101.4C15.7004 101.2 15.7004 101.1 15.6004 100.9C15.6004 100.8 15.5004 100.8 15.5004 100.7C15.4004 100.5 15.3004 100.3 15.2004 100.1C15.2004 100.1 15.2004 100.1 15.2004 100C15.2004 99.9 15.2004 99.9 15.1004 99.8C15.1004 99.7 15.0004 99.6 15.0004 99.4C15.0004 99.3 15.0004 99.3 14.9004 99.2C14.9004 99.1 14.8004 99 14.8004 99C14.8004 98.9 14.8004 98.9 14.7004 98.8C14.7004 98.7 14.6004 98.6 14.6004 98.5C14.6004 98.4 14.5004 98.3 14.5004 98.3V98.2C14.4004 98 14.4004 97.8 14.3004 97.6C14.3004 97.6 14.3004 97.6 14.3004 97.5C14.2004 97.3 14.2004 97 14.1004 96.8C14.1004 96.8 14.1004 96.8 14.1004 96.7C14.1004 96.6 14.1004 96.5 14.0004 96.5C14.0004 96.4 13.9004 96.2 13.9004 96.1V96C13.9004 95.9 13.9004 95.8 13.8004 95.7C13.8004 95.6 13.8004 95.5 13.7004 95.4C13.7004 95.3 13.7004 95.3 13.7004 95.2C13.7004 95.1 13.7004 95 13.6004 94.9C13.6004 94.8 13.6004 94.8 13.6004 94.7C13.6004 94.6 13.6004 94.5 13.5004 94.4C13.5004 94.3 13.5004 94.2 13.5004 94.1V94C13.5004 93.8 13.4004 93.6 13.4004 93.4V93.3C13.4004 93.1 13.3004 92.9 13.3004 92.6C13.3004 92.6 13.3004 92.6 13.3004 92.5C13.3004 92.4 13.3004 92.4 13.3004 92.3C13.3004 92.2 13.3004 92.1 13.3004 91.9C13.3004 91.8 13.3004 91.8 13.3004 91.7C13.3004 91.6 13.3004 91.5 13.3004 91.4C13.3004 91.3 13.3004 91.3 13.3004 91.2C13.3004 91.1 13.3004 91 13.3004 90.9C13.3004 90.8 13.3004 90.7 13.3004 90.7L13.2004 90.6C13.2004 90.4 13.1004 90.2 13.1004 90C13.1004 89.8 13.2004 89.6 13.2004 89.4C13.2004 89.3 13.2004 89.3 13.2004 89.2C13.2004 89.1 13.2004 88.9 13.2004 88.8V88.7C13.2004 88.6 13.2004 88.5 13.2004 88.4C13.2004 88.3 13.2004 88.2 13.2004 88.1V88C13.2004 87.9 13.2004 87.8 13.2004 87.7C13.2004 87.6 13.2004 87.6 13.2004 87.5C13.2004 87.4 13.2004 87.4 13.2004 87.3C13.2004 87.2 13.2004 87.1 13.3004 87C13.3004 86.9 13.3004 86.9 13.3004 86.8C13.3004 86.7 13.3004 86.7 13.3004 86.7C13.3004 86.6 13.4004 86.5 13.4004 86.3C13.4004 86.2 13.4004 86.2 13.4004 86.1V86C13.4004 85.9 13.5004 85.7 13.5004 85.6C13.5004 85.5 13.5004 85.5 13.5004 85.4C13.5004 85.4 13.5004 85.4 13.5004 85.3C13.6004 85.1 13.7004 84.8 13.7004 84.6C13.8004 84.3 13.9004 84 14.1004 83.8C14.2004 83.6 14.3004 83.4 14.5004 83.2L14.6004 83.1C14.7004 82.9 14.9004 82.8 15.0004 82.6C15.1004 82.4 15.3004 82.3 15.5004 82.1L15.6004 82C15.8004 81.9 15.9004 81.7 16.1004 81.6L25.3004 75.7ZM24.1004 74L15.3004 79.9C15.1004 80 14.9004 80.2 14.6004 80.4C14.5004 80.4 14.5004 80.5 14.4004 80.5C14.2004 80.7 14.0004 80.9 13.8004 81.1C13.8004 81.1 13.8004 81.1 13.7004 81.2C13.5004 81.4 13.4004 81.6 13.2004 81.8L13.1004 82C12.9004 82.2 12.8004 82.5 12.6004 82.7C12.6004 82.7 12.6004 82.7 12.6004 82.8V82.9C12.4004 83.2 12.3004 83.5 12.2004 83.8V83.9C12.2004 83.9 12.2004 83.9 12.2004 84C12.1004 84.2 12.0004 84.5 11.9004 84.7V84.8C11.9004 84.9 11.9004 84.9 11.8004 85C11.7004 85.2 11.7004 85.3 11.7004 85.5V85.6C11.7004 85.7 11.7004 85.7 11.7004 85.8C11.7004 86 11.6004 86.1 11.6004 86.2C11.6004 86.3 11.6004 86.3 11.6004 86.4V86.6C11.6004 86.8 11.6004 86.9 11.5004 87C11.5004 87.1 11.5004 87.1 11.5004 87.2C11.5004 87.3 11.5004 87.3 11.5004 87.4V87.5C11.5004 87.6 11.5004 87.7 11.5004 87.8V88C11.5004 88.1 11.5004 88.1 11.5004 88.2V88.3V88.6V88.7C11.5004 88.8 11.5004 88.9 11.5004 89V89.1V89.2V89.4C11.5004 89.6 11.5004 89.8 11.6004 89.9V90V90.1V90.2C11.6004 90.3 11.6004 90.4 11.6004 90.5C11.6004 90.6 11.5004 90.7 11.5004 90.9C11.5004 91 11.4004 91.1 11.4004 91.2V91.3C11.4004 91.4 11.5004 91.5 11.5004 91.6V91.7V91.9V92V92.2V92.4C11.5004 92.5 11.5004 92.6 11.5004 92.7V92.8V92.9V93V93.1C11.5004 93.3 11.6004 93.6 11.6004 93.8V93.9C11.6004 94.1 11.7004 94.3 11.7004 94.5V94.6V94.8V94.9V95V95.2V95.3V95.4L11.8004 95.7V95.8V96V96.2V96.3L11.9004 96.6V96.8L12.0004 97.1V97.2V97.3V97.5V97.6C12.1004 97.8 12.1004 98.1 12.2004 98.3C12.3004 98.5 12.3004 98.7 12.4004 98.9V99L12.5004 99.2V99.3V99.4L12.6004 99.6L12.7004 99.7V99.8L12.8004 100.1V100.2V100.3L12.9004 100.6V100.7V100.8L13.0004 100.9V101C13.1004 101.2 13.2004 101.5 13.3004 101.7L13.4004 101.9V102V102.1C13.5004 102.3 13.5004 102.4 13.6004 102.6V102.7L13.8004 103V103.1V103.2L13.9004 103.4V103.5C14.1004 103.8 14.2004 104.2 14.4004 104.6V104.7C14.4004 104.7 14.4004 104.8 14.5004 104.8C14.8004 105.3 15.0004 105.8 15.3004 106.3V106.4L15.4004 106.5C15.6004 106.9 15.9004 107.3 16.1004 107.6C16.2004 107.8 16.4004 108.1 16.6004 108.3C16.8004 108.5 16.9004 108.7 17.0004 108.9V109C17.2004 109.2 17.3004 109.4 17.5004 109.6L17.6004 109.7V109.8L17.7004 109.9C17.8004 110 17.9004 110.1 18.0004 110.2C18.0004 110.2 18.0004 110.3 18.1004 110.3L18.3004 110.5L18.4004 110.6L18.5004 110.7L18.7004 110.9L18.8004 111L19.0004 111.2L19.1004 111.3L19.2004 111.5L19.3004 111.6C19.4004 111.7 19.5004 111.8 19.6004 111.9L19.7004 112L19.8004 112.1L19.9004 112.2C20.0004 112.3 20.1004 112.4 20.2004 112.5L20.3004 112.6L20.4004 112.7C20.5004 112.8 20.6004 112.9 20.7004 112.9L20.8004 113L21.0004 113.1L21.1004 113.2L21.3004 113.4L21.4004 113.5C21.5004 113.6 21.5004 113.6 21.6004 113.7L21.7004 113.8H21.8004L21.9004 113.9H22.0004C22.2004 114 22.4004 114.2 22.5004 114.3C22.6004 114.4 22.8004 114.5 23.0004 114.6L23.1004 114.7C23.2004 114.8 23.4004 114.9 23.5004 115L23.6004 115.1L23.8004 115.2L24.0004 115.3C24.1004 115.3 24.1004 115.4 24.2004 115.4H24.3004L24.4004 115.5H24.5004C24.7004 115.6 24.9004 115.7 25.0004 115.8C25.2004 115.9 25.4004 116 25.6004 116H25.7004H25.8004H25.9004C26.0004 116 26.0004 116.1 26.1004 116.1H26.2004C26.3004 116.1 26.4004 116.2 26.5004 116.2C26.6004 116.2 26.6004 116.2 26.7004 116.3C26.8004 116.3 26.8004 116.3 26.9004 116.3C27.0004 116.3 27.1004 116.4 27.2004 116.4H27.3004C27.4004 116.4 27.4004 116.4 27.5004 116.4L27.9004 114.4L27.5004 116.4C27.6004 116.4 27.7004 116.4 27.8004 116.5H27.9004C28.0004 116.5 28.0004 116.5 28.1004 116.5H28.2004C28.3004 116.5 28.4004 116.5 28.4004 116.5H28.5004C28.6004 116.5 28.6004 116.5 28.7004 116.5C28.8004 116.5 28.9004 116.5 29.1004 116.5H29.2004C29.3004 116.5 29.3004 116.5 29.4004 116.5C29.5004 116.5 29.7004 116.5 29.8004 116.5C29.9004 116.5 29.9004 116.5 30.0004 116.5C30.0004 116.5 30.1004 116.5 30.2004 116.5C30.4004 116.5 30.6004 116.4 30.8004 116.4H30.9004C30.9004 116.4 30.9004 116.4 31.0004 116.4H31.1004C31.2004 116.4 31.4004 116.3 31.5004 116.3C31.6004 116.3 31.6004 116.3 31.7004 116.2H31.8004C31.9004 116.2 32.0004 116.1 32.0004 116.1H32.1004C32.2004 116 32.4004 116 32.5004 115.9C32.6004 115.9 32.6004 115.8 32.7004 115.8C32.9004 115.7 33.1004 115.6 33.3004 115.4L42.0004 109.5C42.6004 109.1 42.9004 108.3 42.9004 107.6C42.9004 106.5 42.0004 105.4 41.0004 105.4C41.0004 105.4 41.0004 105.4 40.9004 105.4C40.7004 105.4 40.5004 105.6 40.3004 105.7C40.1004 105.8 39.9004 106 39.8004 106.1C39.7004 106.2 39.6004 106.3 39.6004 106.3L39.5004 106.4C39.4004 106.4 39.4004 106.5 39.3004 106.5C39.2004 106.5 39.2004 106.5 39.1004 106.6H39.0004C38.9004 106.6 38.8004 106.6 38.8004 106.7C38.8004 106.7 38.8004 106.7 38.7004 106.7C38.6004 106.7 38.5004 106.7 38.4004 106.8H38.3004C38.2004 106.8 38.1004 106.8 38.1004 106.8H38.0004C37.9004 106.8 37.9004 106.8 37.8004 106.8H37.7004H37.6004H37.5004H37.4004C37.3004 106.8 37.3004 106.8 37.2004 106.8H37.1004C37.0004 106.8 36.9004 106.8 36.8004 106.7H36.6004C36.5004 106.7 36.4004 106.7 36.4004 106.6H36.2004C36.1004 106.6 36.1004 106.6 36.0004 106.5H35.9004C35.7004 106.4 35.5004 106.2 35.1004 106.1C35.0004 106.1 35.0004 106 34.9004 106H34.8004H34.7004C34.6004 105.9 34.5004 105.9 34.4004 105.8L34.2004 105.7C34.1004 105.6 33.9004 105.5 33.8004 105.4C33.6004 105.3 33.5004 105.2 33.3004 105.1C33.3004 105.1 33.3004 105.1 33.2004 105.1C33.1004 105 32.9004 104.9 32.8004 104.8L32.7004 104.7L32.6004 104.6C32.5004 104.5 32.4004 104.4 32.3004 104.3L32.1004 104.2C32.0004 104.1 31.9004 104 31.8004 103.9L31.6004 103.7C31.5004 103.6 31.4004 103.5 31.3004 103.4L31.1004 103.2C31.0004 103.1 30.9004 103 30.8004 102.9L30.6004 102.7C30.5004 102.6 30.4004 102.5 30.3004 102.4L30.1004 102.2C30.0004 102.1 29.9004 102 29.8004 101.9L29.7004 101.8L29.6004 101.7C29.5004 101.6 29.4004 101.4 29.3004 101.3L30.0004 101L29.9004 100.9C29.8004 100.7 29.6004 100.5 29.5004 100.3L29.4004 100.2C29.3004 100 29.2004 99.9 29.0004 99.7C28.8004 99.5 28.7004 99.2 28.5004 99C28.3004 98.7 28.1004 98.3 27.9004 98V97.9L27.8004 97.8C27.6004 97.4 27.3004 96.9 27.1004 96.5V96.4V96.3C26.9004 96 26.8004 95.7 26.6004 95.3L26.5004 95V94.9V94.8L26.4004 94.5C26.3004 94.3 26.2004 94.1 26.2004 94V93.9V93.8C26.1004 93.6 26.0004 93.3 25.9004 93.1V93V92.9C25.8004 92.7 25.8004 92.6 25.7004 92.4L25.6004 92.2C25.5004 92 25.5004 91.9 25.4004 91.7V91.6V91.5C25.1004 91.4 25.0004 91.2 25.0004 91C25.0004 91 25.0004 91 25.0004 90.9C24.9004 90.7 24.9004 90.4 24.8004 90.2V90.1V90C24.8004 89.8 24.7004 89.7 24.7004 89.5L24.6004 89.3C24.6004 89.1 24.5004 89 24.5004 88.8L24.4004 88.5C24.4004 88.3 24.3004 88.2 24.3004 88V87.9V87.7C24.3004 87.5 24.2004 87.3 24.2004 87.1V87C24.2004 86.7 24.1004 86.5 24.1004 86.3V86.2V86.1C24.1004 85.9 24.1004 85.8 24.1004 85.6V85.4C24.1004 85.2 24.1004 85.1 24.1004 84.9V84.8V84.6C24.1004 84.4 24.1004 84.2 24.1004 84C24.1004 83.8 24.1004 83.6 24.1004 83.3V83.2V83.1C24.1004 83 24.1004 82.8 24.1004 82.7V82.5V82.4C24.1004 82.3 24.1004 82.2 24.1004 82.1V81.8C24.1004 81.7 24.1004 81.6 24.1004 81.5C24.1004 81.4 24.1004 81.3 24.1004 81.2C24.1004 81.1 24.1004 81 24.2004 80.9C24.2004 80.8 24.2004 80.7 24.3004 80.6C24.3004 80.5 24.3004 80.4 24.4004 80.4C24.4004 80.3 24.5004 80.2 24.5004 80.1V80V79.9C24.6004 79.7 24.6004 79.5 24.7004 79.4V79.3C24.8004 79.1 24.9004 78.9 25.0004 78.7V78.6C25.1004 78.5 25.2004 78.3 25.3004 78.2L25.4004 78.1C25.5004 78 25.6004 77.9 25.7004 77.8C25.8004 77.7 25.9004 77.6 26.0004 77.5L26.1004 77.4C26.2004 77.3 26.3004 77.2 26.4004 77.2L25.3004 75.5L24.1004 74Z" fill="#171A21"/>
<path d="M55.9002 104.6C55.9002 104.5 55.9002 104.3 55.9002 104.2C55.9002 104 55.9002 103.9 55.9002 103.7C55.9002 103.6 55.9002 103.5 55.9002 103.4C55.9002 103.2 55.9002 102.9 55.8002 102.7C55.8002 102.6 55.8002 102.4 55.8002 102.3V102.2C55.8002 101.8 55.7002 101.4 55.6002 101C55.6002 100.9 55.6002 100.9 55.6002 100.8C55.5002 100.5 55.5002 100.1 55.4002 99.8001C55.4002 99.7001 55.4002 99.7 55.4002 99.6C55.4002 99.4 55.3002 99.3 55.3002 99.1C55.3002 98.9 55.2002 98.7001 55.2002 98.5C55.2002 98.4001 55.2002 98.3 55.1002 98.2C55.1002 98 55.0002 97.8 55.0002 97.7C55.0002 97.6 54.9002 97.4001 54.9002 97.3001C54.9002 97.1001 54.8002 97.0001 54.8002 96.8001C54.8002 96.6001 54.7002 96.4001 54.7002 96.3001C54.7002 96.2001 54.7002 96.1 54.6002 96C54.5002 95.8 54.5002 95.5001 54.4002 95.3001C54.4002 95.1001 54.3002 95.0001 54.3002 94.8001V94.7C54.2002 94.3 54.1002 93.9001 53.9002 93.4001V93.3001C53.8002 92.9001 53.7002 92.5 53.5002 92.2C53.5002 92.1 53.5002 92.1 53.4002 92C53.4002 91.9 53.3002 91.7 53.3002 91.6C53.2002 91.4 53.2002 91.2001 53.1002 91C53.1002 90.9 53.0002 90.7 53.0002 90.6C52.9002 90.4 52.9002 90.3 52.8002 90.1C52.8002 90 52.7002 89.9001 52.7002 89.8001C52.6002 89.6001 52.5002 89.4 52.4002 89.1C52.3002 89 52.3002 88.9 52.3002 88.7C52.3002 88.7 52.3002 88.6 52.2002 88.6C52.0002 88.2 51.9002 87.8001 51.7002 87.4001C51.7002 87.3001 51.6002 87.2 51.6002 87.1C51.5002 86.8 51.3002 86.5 51.2002 86.2C51.2002 86.2 51.2002 86.1 51.1002 86.1C51.0002 85.9 50.9002 85.6001 50.7002 85.4001C50.6002 85.2001 50.5002 85.0001 50.4002 84.8001C50.4002 84.8001 50.4002 84.7 50.3002 84.7C50.0002 84.1 49.6002 83.4001 49.3002 82.8001C49.3002 82.7001 49.2002 82.7 49.2002 82.6C49.1002 82.4 49.0002 82.3 48.9002 82.1C48.8002 81.8 48.6002 81.6001 48.5002 81.3001C48.4002 81.1001 48.2002 80.9 48.1002 80.6C48.0002 80.4 47.8002 80.1001 47.6002 79.9001C47.5002 79.8001 47.5002 79.7 47.4002 79.7C47.4002 79.6 47.3002 79.5 47.2002 79.5C46.8002 78.8 46.3002 78.2001 45.9002 77.5C45.6002 77 45.3002 76.6 44.9002 76.1C44.9002 76.1 44.9002 76.1 44.9002 76C44.7002 75.7 44.4002 75.4 44.2002 75C44.1002 74.9 44.1002 74.9001 44.0002 74.8001C43.7002 74.4001 43.4002 74.1 43.1002 73.7C43.1002 73.7 43.1002 73.7 43.1002 73.6C43.0002 73.5 42.9002 73.4001 42.8002 73.3001C42.6002 73.1001 42.4002 72.8 42.2002 72.6L42.1002 72.5C42.0002 72.4 41.8002 72.2 41.7002 72.1C41.6002 71.9 41.4002 71.8 41.3002 71.6C41.2002 71.5 41.2002 71.5001 41.1002 71.4001C41.0002 71.2001 40.8002 71.1001 40.7002 70.9001C40.6002 70.8001 40.5002 70.6 40.3002 70.5C40.2002 70.4 40.2002 70.4001 40.1002 70.3001C39.9002 70.1001 39.8002 70.0001 39.6002 69.8001C39.5002 69.7001 39.4002 69.6 39.3002 69.5C39.2002 69.4 39.1002 69.3001 39.0002 69.3001C38.8002 69.2001 38.7002 69.0001 38.5002 68.9001C38.4002 68.8001 38.3002 68.7 38.2002 68.6C38.1002 68.5 38.0002 68.4001 37.9002 68.3001C37.7002 68.2001 37.6002 68.0001 37.4002 67.9001C37.3002 67.8001 37.2002 67.8 37.2002 67.7C37.1002 67.6 36.9002 67.5001 36.8002 67.4001C36.7002 67.3001 36.5002 67.2 36.4002 67C36.3002 67 36.3002 66.9001 36.2002 66.9001C36.0002 66.8001 35.8002 66.6 35.7002 66.5C35.6002 66.4 35.5002 66.3 35.3002 66.2C35.3002 66.2 35.2002 66.2 35.2002 66.1C34.9002 65.9 34.5002 65.6001 34.2002 65.4001H34.1002C33.8002 65.2001 33.5002 65.0001 33.2002 64.8001C33.1002 64.8001 33.0002 64.7 33.0002 64.7C32.8002 64.5 32.5002 64.4001 32.3002 64.3001C32.3002 64.3001 32.2002 64.3 32.2002 64.2C31.9002 64 31.6002 63.9001 31.4002 63.7001C31.3002 63.7001 31.3002 63.6 31.2002 63.6C31.1002 63.5 31.0002 63.5001 30.8002 63.4001C30.7002 63.3001 30.5002 63.3001 30.4002 63.2001C30.3002 63.2001 30.2002 63.1 30.1002 63.1C30.0002 63 29.8002 63.0001 29.7002 62.9001C29.6002 62.9001 29.5002 62.8 29.4002 62.8C29.3002 62.7 29.1002 62.7 29.0002 62.6C28.9002 62.6 28.8002 62.5 28.6002 62.5C28.6002 62.5 28.5002 62.5001 28.5002 62.4001C28.3002 62.3001 28.1002 62.3001 27.9002 62.2001C27.8002 62.2001 27.7002 62.1 27.6002 62.1C27.6002 62.1 27.6002 62.1 27.5002 62.1C27.2002 62 26.9002 61.9 26.6002 61.8H26.5002C26.2002 61.7 26.0002 61.7 25.7002 61.6C25.7002 61.6 25.7002 61.6 25.6002 61.6C25.4002 61.6 25.3002 61.5 25.1002 61.5C24.9002 61.5 24.8002 61.4001 24.6002 61.4001C24.6002 61.4001 24.6002 61.4001 24.5002 61.4001C24.3002 61.4001 24.1002 61.4 23.9002 61.3C23.8002 61.3 23.6002 61.3 23.5002 61.3C23.5002 61.3 21.5002 61.3 20.6002 61.5C20.4002 61.5 20.2002 61.6 19.9002 61.6H19.8002C19.7002 61.6 19.6002 61.7001 19.4002 61.7001C19.2002 61.7001 19.1002 61.8 18.9002 61.8C18.8002 61.8 18.7002 61.9001 18.5002 61.9001C18.4002 61.9001 18.3002 62 18.2002 62C18.2002 62 18.1002 62 18.1002 62.1C17.9002 62.2 17.7002 62.3001 17.5002 62.4001C17.4002 62.4001 17.3002 62.5 17.2002 62.5C16.9002 62.6 16.6002 62.8 16.3002 63L7.7002 68.3001C8.0002 68.1001 8.3002 68.0001 8.6002 67.8001C8.7002 67.8001 8.8002 67.7 8.9002 67.7C9.1002 67.6 9.3002 67.5001 9.5002 67.4001C9.6002 67.3001 9.8002 67.3 9.9002 67.2C10.0002 67.2 10.1002 67.1 10.3002 67.1C10.5002 67.1 10.6002 67 10.8002 67C10.9002 67 11.0002 66.9001 11.2002 66.9001C11.5002 66.8001 11.7002 66.8 12.0002 66.7C12.3002 66.7 12.6002 66.6 12.8002 66.6C12.9002 66.6 12.9002 66.6 13.0002 66.6C13.3002 66.6 13.6002 66.6 13.8002 66.6C14.1002 66.6 14.5002 66.6 14.8002 66.6C14.9002 66.6 15.1002 66.6 15.2002 66.6C15.4002 66.6 15.6002 66.6 15.8002 66.7C16.0002 66.7 16.2002 66.8001 16.4002 66.8001C16.6002 66.8001 16.7002 66.8001 16.9002 66.9001C17.2002 67.0001 17.5002 67 17.8002 67.1H17.9002C18.2002 67.2 18.6002 67.3001 18.9002 67.4001C19.0002 67.4001 19.1002 67.5 19.2002 67.5C19.4002 67.6 19.7002 67.7001 19.9002 67.8001C20.0002 67.8001 20.1002 67.9001 20.3002 67.9001C20.5002 68.0001 20.7002 68.1 21.0002 68.2C21.1002 68.3 21.3002 68.3001 21.4002 68.4001C21.6002 68.5001 21.9002 68.6 22.1002 68.7C22.2002 68.8 22.3002 68.8001 22.5002 68.9001C22.8002 69.1001 23.2002 69.2001 23.5002 69.4001C23.8002 69.6001 24.1002 69.7001 24.3002 69.9001C24.7002 70.1001 25.1002 70.4 25.4002 70.6C25.4002 70.6 25.4002 70.6 25.5002 70.6C25.9002 70.8 26.2002 71.1001 26.6002 71.4001C26.7002 71.5001 26.8002 71.6 27.0002 71.7C27.2002 71.9 27.5002 72.1001 27.7002 72.3001C27.8002 72.4001 28.0002 72.5 28.1002 72.7C28.3002 72.9 28.5002 73.1 28.7002 73.2C28.9002 73.3 29.0002 73.5 29.2002 73.6C29.4002 73.8 29.6002 74 29.8002 74.1C30.0002 74.2 30.1002 74.4 30.3002 74.5C30.5002 74.7 30.7002 74.9 30.9002 75.1C31.1002 75.3 31.2002 75.4 31.4002 75.6C31.6002 75.8 31.8002 76 32.0002 76.2C32.1002 76.4 32.3002 76.5 32.4002 76.7C32.6002 76.9 32.8002 77.1001 33.0002 77.4001C33.1002 77.5001 33.3002 77.7001 33.4002 77.8001C33.6002 78.1001 33.9002 78.3 34.1002 78.6C34.2002 78.7 34.3002 78.8001 34.4002 78.9001C34.7002 79.3001 35.0002 79.7 35.3002 80.1C35.4002 80.2 35.4002 80.2001 35.4002 80.3001C35.7002 80.6001 35.9002 81.0001 36.2002 81.3001C36.5002 81.7001 36.9002 82.2 37.2002 82.7C37.6002 83.3 38.1002 84 38.5002 84.7C38.6002 84.9 38.7002 85 38.8002 85.2C39.0002 85.4 39.1002 85.7001 39.3002 85.9001C39.4002 86.1001 39.6002 86.3 39.7002 86.6C39.8002 86.9 40.0002 87.1001 40.1002 87.4001C40.2002 87.6001 40.3002 87.8 40.5002 88C40.8002 88.6 41.2002 89.3001 41.5002 89.9001C41.6002 90.1001 41.7002 90.4 41.8002 90.6C41.9002 90.8 42.0002 91.1001 42.2002 91.3001C42.4002 91.7001 42.5002 92.0001 42.7002 92.4001C42.7002 92.5001 42.8002 92.6 42.8002 92.7C43.0002 93.2 43.2002 93.6 43.4002 94.1C43.5002 94.2 43.5002 94.3 43.5002 94.5C43.6002 94.8 43.8002 95.2001 43.9002 95.5C44.0002 95.7001 44.0002 95.8 44.1002 96C44.2002 96.3 44.3002 96.7001 44.5002 97C44.5002 97.1 44.6002 97.3001 44.6002 97.4001C44.7002 97.8001 44.9002 98.3 45.0002 98.7V98.8001C45.1002 99.3001 45.3002 99.7 45.4002 100.2C45.4002 100.4 45.5002 100.5 45.5002 100.7C45.6002 101 45.7002 101.3 45.8002 101.7C45.8002 101.9 45.9002 102.1 45.9002 102.2C46.0002 102.5 46.0002 102.8 46.1002 103.1C46.1002 103.3 46.2002 103.5 46.2002 103.6C46.3002 103.9 46.3002 104.2 46.4002 104.5C46.4002 104.7 46.5002 104.8 46.5002 105C46.6002 105.4 46.6002 105.8 46.7002 106.2C46.7002 106.3 46.7002 106.3 46.7002 106.4C46.8002 106.9 46.8002 107.3 46.9002 107.8C46.9002 107.9 46.9002 108.1 46.9002 108.2C46.9002 108.5 47.0002 108.9 47.0002 109.2C47.0002 109.4 47.0002 109.5 47.0002 109.7C47.0002 110 47.0002 110.3 47.1002 110.6C47.1002 110.7 47.1002 110.9 47.1002 111C47.1002 111.4 47.1002 111.9 47.1002 112.3C47.1002 112.7 47.1002 113.2 47.1002 113.6C47.1002 113.7 47.1002 113.8 47.1002 114C47.1002 114.3 47.1002 114.6 47.0002 114.9C47.0002 115.1 47.0002 115.2 47.0002 115.4C47.0002 115.6 47.0002 115.9 46.9002 116.1C46.9002 116.3 46.8002 116.5 46.8002 116.7C46.8002 117 46.7002 117.2 46.7002 117.5V117.6C46.7002 117.7 46.7002 117.7 46.7002 117.8C46.7002 117.9 46.7002 118 46.6002 118.1V118.2C46.5002 118.6 46.4002 119.1 46.3002 119.5C46.3002 119.6 46.2002 119.8 46.2002 119.9C46.1002 120.2 46.0002 120.4 46.0002 120.7C45.9002 121 45.8002 121.3 45.6002 121.7C45.6002 121.8 45.5002 121.8 45.5002 121.9C45.4002 122.2 45.2002 122.5 45.1002 122.8C45.0002 123 44.9002 123.2 44.8002 123.4C44.8002 123.5 44.7002 123.5 44.7002 123.6C44.6002 123.9 44.4002 124.1 44.3002 124.4C44.3002 124.5 44.2002 124.5 44.2002 124.6C44.1002 124.8 44.0002 125 43.8002 125.3C43.7002 125.4 43.7002 125.5 43.6002 125.6C43.5002 125.8 43.4002 126 43.3002 126.2C43.3002 126.3 43.2002 126.3 43.2002 126.4C43.1002 126.6 42.9002 126.8 42.8002 127C42.7002 127.1 42.7002 127.2 42.6002 127.3C42.5002 127.5 42.3002 127.7 42.1002 128C42.1002 128.1 42.0002 128.1 42.0002 128.2C41.8002 128.5 41.6002 128.8 41.4002 129.1C41.3002 129.2 41.3002 129.2 41.2002 129.3C41.0002 129.5 40.9002 129.7 40.7002 130C40.6002 130.1 40.5002 130.2 40.5002 130.3C40.3002 130.5 40.1002 130.7 39.9002 131C39.8002 131.1 39.8002 131.2 39.7002 131.2C39.4002 131.5 39.2002 131.8 38.9002 132.1C38.8002 132.2 38.8002 132.2 38.7002 132.3C38.5002 132.5 38.2002 132.8 38.0002 133C37.9002 133.1 37.8002 133.2 37.7002 133.3C37.5002 133.5 37.2002 133.7 37.0002 133.9C36.9002 134 36.8002 134.1 36.7002 134.1C36.4002 134.4 36.0002 134.7 35.7002 135L35.6002 135.1C35.3002 135.3 35.0002 135.6 34.6002 135.8C34.5002 135.9 34.4002 136 34.3002 136.1C34.0002 136.3 33.7002 136.5 33.5002 136.7C33.4002 136.8 33.3002 136.9 33.1002 136.9C32.7002 137.2 32.3002 137.4 31.9002 137.7L40.5002 132.4C40.9002 132.1 41.3002 131.9 41.7002 131.6C41.8002 131.5 41.9002 131.4 42.1002 131.4C42.4002 131.2 42.7002 131 42.9002 130.8C43.0002 130.7 43.1002 130.6 43.2002 130.5C43.5002 130.3 43.8002 130 44.2002 129.8L44.3002 129.7C44.6002 129.4 45.0002 129.1 45.3002 128.8C45.4002 128.7 45.5002 128.6 45.6002 128.6C45.8002 128.4 46.1002 128.2 46.3002 128C46.4002 127.9 46.5002 127.8 46.6002 127.7C46.8002 127.5 47.1002 127.2 47.3002 127C47.4002 126.9 47.4002 126.9 47.5002 126.8C47.8002 126.5 48.0002 126.2 48.3002 125.9C48.4002 125.8 48.4002 125.7 48.5002 125.7C48.7002 125.5 48.9002 125.3 49.1002 125C49.2002 124.9 49.3002 124.8 49.3002 124.7C49.5002 124.5 49.7002 124.3 49.8002 124C49.9002 123.9 49.9002 123.9 50.0002 123.8C50.2002 123.5 50.4002 123.2 50.6002 122.9C50.6002 122.8 50.7002 122.8 50.7002 122.7C50.9002 122.5 51.0002 122.3 51.2002 122C51.3002 121.9 51.3002 121.8 51.4002 121.7C51.5002 121.5 51.7002 121.3 51.8002 121.1C51.8002 121 51.9002 121 51.9002 120.9C51.9002 120.9 51.9002 120.8 52.0002 120.8C52.1002 120.6 52.2002 120.5 52.3002 120.3C52.4002 120.2 52.4002 120.1 52.5002 120C52.6002 119.8 52.7002 119.6 52.9002 119.3C52.9002 119.2 53.0002 119.2 53.0002 119.1C53.1002 118.8 53.3002 118.6 53.4002 118.3C53.4002 118.2 53.5002 118.2 53.5002 118.1C53.6002 117.9 53.7002 117.7 53.7002 117.6V117.5C53.8002 117.3 53.9002 117.1 54.0002 116.8C54.0002 116.7 54.1002 116.6 54.1002 116.5C54.1002 116.4 54.2002 116.4 54.2002 116.3C54.3002 116 54.4002 115.7 54.5002 115.4V115.3C54.6002 115 54.7002 114.8 54.7002 114.5C54.7002 114.4 54.8002 114.2 54.8002 114.1C54.9002 113.7 55.0002 113.2 55.1002 112.8C55.1002 112.8 55.1002 112.8 55.1002 112.7C55.1002 112.6 55.1002 112.5 55.2002 112.4C55.2002 112.3 55.2002 112.3 55.2002 112.2C55.2002 112.1 55.2002 112.1 55.2002 112.1C55.2002 112 55.2002 111.9 55.3002 111.8C55.3002 111.7 55.3002 111.5 55.4002 111.4C55.4002 111.2 55.5002 111 55.5002 110.8C55.5002 110.7 55.5002 110.7 55.5002 110.6C55.5002 110.4 55.5002 110.2 55.6002 110.1C55.6002 109.9 55.6002 109.8 55.6002 109.6V109.5C55.9002 109.1 56.0002 105.7 55.9002 104.6Z" fill="white" stroke="#171A21" stroke-width="2" stroke-miterlimit="10" stroke-linecap="round" stroke-linejoin="round"/>
<path d="M25.4998 66.9002C38.4998 75.1002 48.9998 95.0002 48.9998 111.3C48.9998 113.2 48.7998 115 48.5998 116.6C48.5998 116.6 48.5998 116.9 48.3998 117.4C47.9998 119.2 47.4998 120.8 46.7998 122.3C44.3998 127.9 38.8998 136.2 26.5998 141.2C26.1998 141.4 25.7998 141.3 25.2998 141C24.7998 140.7 24.3998 140.2 23.9998 139.6C11.7998 119.1 6.39981 103.9 3.9998 95.4002C3.2998 93.1002 2.7998 90.8002 2.3998 88.5002C2.2998 87.8002 2.1998 87.5002 2.1998 87.5002C1.7998 84.5002 1.6998 81.6002 1.8998 78.8002C3.0998 64.8002 12.7998 59.5002 24.5998 66.4002C24.9998 66.6002 25.2998 66.7002 25.4998 66.9002ZM25.3998 111.2C31.6998 115.2 36.8998 112 36.8998 104.1C36.8998 96.2002 31.7998 86.5002 25.4998 82.5002C19.1998 78.5002 13.9998 81.7002 13.9998 89.6002C13.9998 97.5002 19.0998 107.2 25.3998 111.2Z" fill="#9AF4DC"/>
</svg>
