<svg width="144" height="144" viewBox="0 0 144 144" fill="none" xmlns="http://www.w3.org/2000/svg">
<path d="M100.9 10.3999V29.6999L81.9004 19.2999L89.4004 10.7999L100.9 10.3999Z" fill="#9AF4DC"/>
<path d="M142.5 34.5999L126.4 25.1999C126.4 25.1999 115 30.3999 103.4 23.6999C91.8 16.9999 100.9 10.3999 100.9 10.3999L84.5 0.899902L3.8 47.4999C2.4 47.5999 1.5 48.7999 1.5 50.6999C1.5 53.5999 3.5 57.0999 6.1 58.5999L61.7 91.6999V81.1999H61.8L142.5 34.5999Z" fill="#9AF4DC"/>
<path d="M63.4003 79.9999L142.5 34.5999V43.3999C142.5 44.4999 141.9 45.4999 141 45.9999L63.9003 91.0999C61.4003 92.5999 59.5003 91.3999 59.3003 88.4999C59.1003 83.8999 60.9003 81.3999 63.4003 79.9999Z" fill="#EBFDF8"/>
<path d="M142.5 34.5999V43.3999C142.5 44.4999 141.9 45.4999 141 45.9999L63.8998 91.0999C61.3998 92.5999 59.4998 91.3999 59.2998 88.4999" stroke="#171A21" stroke-width="2" stroke-miterlimit="10" stroke-linecap="round" stroke-linejoin="round"/>
<path d="M100.9 10.3998L95.5996 7.2998L79.4996 16.5998C77.8996 17.4998 78.2996 19.9998 80.1996 20.2998L103.5 23.7998L109.6 37.5998C110.3 39.1998 112.3 39.8998 113.8 38.9998L132 28.4998L126.4 25.2998C126.4 25.2998 115 30.4998 103.4 23.7998C91.7996 16.9998 100.9 10.3998 100.9 10.3998Z" fill="white"/>
<path d="M132 28.4999L126.4 25.2999C126.4 25.2999 115 30.4999 103.4 23.7999C91.7996 17.0999 100.9 10.4999 100.9 10.4999L95.5996 7.3999" stroke="#171A21" stroke-width="2" stroke-miterlimit="10" stroke-linecap="round" stroke-linejoin="round"/>
<path d="M112.101 111.6V103.7L114.701 98.2L120.401 86.2V94.1L114.701 106.1L112.101 111.6Z" fill="#EBFDF8"/>
<path d="M78.0008 120.8C78.0008 120.7 78.0008 120.7 78.0008 120.6C78.0008 120.6 78.0008 120.6 78.0008 120.5V120.4C78.0008 120.4 78.0008 120.4 78.0008 120.3C78.0008 120.2 78.0008 120.2 77.9008 120.1C77.9008 120 77.8008 120 77.8008 119.9C77.8008 119.9 77.8008 119.9 77.8008 119.8C77.8008 119.8 77.8008 119.7 77.7008 119.7C77.7008 119.7 77.7008 119.7 77.7008 119.6C77.7008 119.6 77.7008 119.5 77.6008 119.5C77.6008 119.5 77.6008 119.5 77.6008 119.4L77.5008 119.3C77.4008 119.2 77.4008 119.2 77.3008 119.1C77.3008 119.1 77.3008 119.1 77.2008 119L77.1008 118.9C77.1008 118.9 77.0008 118.9 77.0008 118.8L76.9008 118.7C76.9008 118.7 76.8008 118.7 76.8008 118.6C76.8008 118.6 76.7008 118.6 76.7008 118.5C76.7008 118.5 76.6008 118.5 76.6008 118.4C76.6008 118.4 76.5008 118.4 76.5008 118.3C76.5008 118.3 76.5008 118.3 76.4008 118.3C76.3008 118.3 76.3008 118.2 76.2008 118.2C76.2008 118.2 76.2008 118.2 76.1008 118.2C76.0008 118.2 75.9008 118.1 75.8008 118.1C75.8008 118.1 75.8008 118.1 75.7008 118.1C75.6008 118.1 75.5008 118 75.4008 118H75.3008C75.2008 118 75.1008 117.9 75.0008 117.9C74.9008 117.9 74.8008 117.8 74.7008 117.8C74.6008 117.8 74.5008 117.7 74.4008 117.7C74.3008 117.7 74.2008 117.7 74.1008 117.6C74.0008 117.6 73.9008 117.6 73.8008 117.5C73.6008 117.5 73.5008 117.4 73.3008 117.4C73.3008 117.4 73.3008 117.4 73.2008 117.4C73.1008 117.4 72.9008 117.4 72.8008 117.4C72.7008 117.4 72.6008 117.4 72.4008 117.4C72.3008 117.4 72.2008 117.4 72.1008 117.4C72.0008 117.4 71.9008 117.4 71.8008 117.4C71.7008 117.4 71.6008 117.4 71.5008 117.4C71.4008 117.4 71.3008 117.4 71.2008 117.4C71.1008 117.4 71.0008 117.4 70.9008 117.4C70.8008 117.4 70.7008 117.4 70.6008 117.4C70.5008 117.4 70.4008 117.4 70.2008 117.4C70.1008 117.4 69.9008 117.4 69.8008 117.5H69.7008C69.5008 117.5 69.3008 117.6 69.1008 117.6C69.0008 117.6 68.9008 117.7 68.8008 117.7C68.7008 117.7 68.6008 117.8 68.5008 117.8C68.4008 117.9 68.2008 117.9 68.1008 118H68.0008C67.9008 118.1 67.7008 118.1 67.6008 118.2C66.5008 118.9 65.8008 119.8 65.8008 120.7V112.8C65.8008 111.8 66.5008 110.9 67.6008 110.3C67.7008 110.2 67.8008 110.2 68.0008 110.1H68.1008C68.2008 110 68.3008 110 68.5008 109.9C68.6008 109.9 68.7008 109.8 68.8008 109.8C68.9008 109.8 69.0008 109.7 69.1008 109.7C69.3008 109.6 69.5008 109.6 69.7008 109.6C69.7008 109.6 69.7008 109.6 69.8008 109.6C69.9008 109.6 70.1008 109.5 70.2008 109.5H70.3008C70.4008 109.5 70.4008 109.5 70.5008 109.5C70.6008 109.5 70.7008 109.5 70.8008 109.5C70.8008 109.5 70.8008 109.5 70.9008 109.5C71.0008 109.5 71.0008 109.5 71.1008 109.5C71.2008 109.5 71.3008 109.5 71.4008 109.5H71.5008C71.6008 109.5 71.6008 109.5 71.7008 109.5C71.8008 109.5 71.9008 109.5 72.0008 109.5H72.1008C72.2008 109.5 72.2008 109.5 72.3008 109.5C72.4008 109.5 72.6008 109.5 72.7008 109.5H72.8008C72.9008 109.5 73.0008 109.5 73.1008 109.5C73.1008 109.5 73.1008 109.5 73.2008 109.5C73.3008 109.5 73.5008 109.5 73.6008 109.6C73.6008 109.6 73.6008 109.6 73.7008 109.6C73.8008 109.6 73.9008 109.6 74.0008 109.7C74.1008 109.7 74.2008 109.7 74.3008 109.8C74.4008 109.8 74.5008 109.9 74.6008 109.9C74.7008 109.9 74.7008 109.9 74.8008 110H74.9008C75.0008 110 75.1008 110.1 75.2008 110.1H75.3008C75.4008 110.1 75.5008 110.2 75.6008 110.2C75.6008 110.2 75.6008 110.2 75.7008 110.2C75.8008 110.2 75.9008 110.3 76.0008 110.3C76.0008 110.3 76.0008 110.3 76.1008 110.3C76.2008 110.3 76.2008 110.4 76.3008 110.4C76.3008 110.4 76.4008 110.4 76.4008 110.5C76.4008 110.5 76.5008 110.5 76.5008 110.6C76.5008 110.6 76.6008 110.6 76.6008 110.7C76.6008 110.7 76.7008 110.7 76.7008 110.8C76.7008 110.8 76.8008 110.8 76.8008 110.9C76.8008 110.9 76.9008 110.9 76.9008 111L77.0008 111.1C77.0008 111.1 77.0008 111.1 77.1008 111.2C77.2008 111.3 77.2008 111.3 77.3008 111.4L77.4008 111.5C77.4008 111.5 77.4008 111.6 77.5008 111.6C77.5008 111.6 77.5008 111.6 77.5008 111.7C77.5008 111.7 77.5008 111.8 77.6008 111.8C77.6008 111.9 77.7008 111.9 77.7008 112C77.7008 112 77.7008 112.1 77.8008 112.1C77.8008 112.1 77.8008 112.1 77.8008 112.2V112.3C77.8008 112.3 77.8008 112.3 77.8008 112.4C77.8008 112.5 77.8008 112.5 77.8008 112.6C77.8008 112.7 77.8008 112.7 77.8008 112.8C77.8008 112.8 77.8008 112.8 77.8008 112.9V120.8C78.0008 120.9 78.0008 120.9 78.0008 120.8Z" fill="#EBFDF8"/>
<path d="M59.0004 113.4C59.0004 113.5 59.0004 113.6 59.0004 113.7C59.0004 113.8 59.0004 113.9 59.0004 114C59.0004 114 59.0004 114 59.0004 114.1C59.0004 114.2 59.0004 114.3 59.1004 114.4C59.1004 114.5 59.2004 114.6 59.2004 114.7C59.2004 114.7 59.2004 114.7 59.2004 114.8C59.2004 114.9 59.3004 115 59.3004 115.1C59.4004 115.2 59.4004 115.4 59.5004 115.5L59.6004 115.6C59.6004 115.7 59.7004 115.8 59.7004 115.8L59.8004 115.9C59.9004 116 59.9004 116 60.0004 116.1L60.1004 116.2C60.2004 116.3 60.3004 116.4 60.4004 116.5L60.5004 116.6C60.6004 116.7 60.7004 116.9 60.9004 117C60.9004 117 61.0004 117.1 61.1004 117.1C61.2004 117.2 61.2004 117.2 61.3004 117.3C61.4004 117.3 61.4004 117.4 61.5004 117.4C61.6004 117.5 61.6004 117.5 61.7004 117.6C61.8004 117.6 61.8004 117.7 61.9004 117.7C62.0004 117.8 62.0004 117.8 62.1004 117.9C62.2004 117.9 62.2004 118 62.3004 118C62.4004 118 62.5004 118.1 62.5004 118.1L62.6004 118.2C62.8004 118.3 62.9004 118.4 63.1004 118.5L63.2004 118.6C63.4004 118.7 63.6004 118.8 63.8004 118.9H63.9004C64.1004 119 64.3004 119.1 64.5004 119.1C64.6004 119.1 64.6004 119.1 64.7004 119.2C64.9004 119.3 65.2004 119.4 65.4004 119.5C65.5004 119.5 65.7004 119.6 65.8004 119.6C65.9004 119.6 66.0004 119.7 66.1004 119.7C66.2004 119.7 66.3004 119.8 66.4004 119.8C66.5004 119.8 66.6004 119.9 66.7004 119.9C66.8004 119.9 66.9004 119.9 67.0004 120C67.1004 120 67.2004 120 67.3004 120.1C67.4004 120.1 67.5004 120.1 67.6004 120.2C67.7004 120.2 67.8004 120.2 67.9004 120.3C68.0004 120.3 68.1004 120.3 68.2004 120.3C68.4004 120.3 68.6004 120.4 68.8004 120.4C68.9004 120.4 68.9004 120.4 69.0004 120.4C69.2004 120.4 69.5004 120.5 69.7004 120.5C69.8004 120.5 69.9004 120.5 69.9004 120.5C70.0004 120.5 70.2004 120.5 70.3004 120.5C70.4004 120.5 70.5004 120.5 70.6004 120.5C70.7004 120.5 70.9004 120.5 71.0004 120.5C71.1004 120.5 71.2004 120.5 71.3004 120.5C71.4004 120.5 71.5004 120.5 71.6004 120.5C71.7004 120.5 71.8004 120.5 71.9004 120.5C72.0004 120.5 72.1004 120.5 72.2004 120.5C72.3004 120.5 72.4004 120.5 72.5004 120.5C72.6004 120.5 72.7004 120.5 72.8004 120.5C72.9004 120.5 73.0004 120.5 73.1004 120.5C73.2004 120.5 73.3004 120.5 73.4004 120.5C73.5004 120.5 73.6004 120.5 73.7004 120.5C73.8004 120.5 73.9004 120.5 74.0004 120.5C74.1004 120.5 74.2004 120.5 74.3004 120.5C74.4004 120.5 74.5004 120.5 74.6004 120.5C74.8004 120.5 74.9004 120.5 75.1004 120.4C75.4004 120.4 75.7004 120.3 76.0004 120.2C76.2004 120.2 76.4004 120.1 76.6004 120.1C76.7004 120.1 76.7004 120.1 76.8004 120.1C77.0004 120 77.3004 120 77.5004 119.9C77.7004 119.8 78.0004 119.8 78.2004 119.7H78.3004C78.6004 119.6 78.8004 119.5 79.0004 119.4C79.2004 119.3 79.4004 119.2 79.6004 119.1C79.7004 119.1 79.7004 119.1 79.8004 119C79.9004 118.9 80.1004 118.9 80.2004 118.8C80.3004 118.8 80.3004 118.7 80.4004 118.7C80.6004 118.6 80.8004 118.5 80.9004 118.4C82.8004 117.3 84.1004 115.9 84.6004 114.3L89.8004 113.5L96.7004 112.4V120.3L89.8004 121.4L84.6004 122.2C84.1004 123.8 82.8004 125.2 80.9004 126.3C80.7004 126.4 80.5004 126.5 80.4004 126.6C80.3004 126.6 80.3004 126.7 80.2004 126.7C80.1004 126.8 79.9004 126.8 79.8004 126.9C79.7004 126.9 79.7004 126.9 79.6004 127C79.4004 127.1 79.2004 127.2 79.0004 127.2C78.8004 127.3 78.5004 127.4 78.3004 127.5H78.2004C78.0004 127.6 77.7004 127.6 77.5004 127.7C77.3004 127.8 77.0004 127.8 76.8004 127.9C76.7004 127.9 76.7004 127.9 76.6004 127.9C76.4004 127.9 76.3004 128 76.1004 128C76.1004 128 76.1004 128 76.0004 128C75.7004 128.1 75.4004 128.1 75.1004 128.2C75.0004 128.2 74.9004 128.2 74.8004 128.2C74.7004 128.2 74.7004 128.2 74.6004 128.2C74.5004 128.2 74.4004 128.2 74.3004 128.2C74.2004 128.2 74.1004 128.2 74.0004 128.2C73.9004 128.2 73.8004 128.2 73.7004 128.2C73.6004 128.2 73.6004 128.2 73.5004 128.2C73.4004 128.2 73.4004 128.2 73.3004 128.2C73.2004 128.2 73.1004 128.2 73.0004 128.2C72.9004 128.2 72.8004 128.2 72.7004 128.2C72.6004 128.2 72.5004 128.2 72.4004 128.2C72.3004 128.2 72.3004 128.2 72.2004 128.2H72.1004C72.0004 128.2 71.9004 128.2 71.8004 128.2C71.7004 128.2 71.6004 128.2 71.5004 128.2C71.4004 128.2 71.3004 128.2 71.2004 128.2C71.1004 128.2 71.1004 128.2 71.0004 128.2H70.9004C70.8004 128.2 70.6004 128.2 70.5004 128.2C70.4004 128.2 70.3004 128.2 70.2004 128.2C70.1004 128.2 69.9004 128.2 69.8004 128.2C69.7004 128.2 69.7004 128.2 69.6004 128.2C69.4004 128.2 69.1004 128.1 68.9004 128.1C68.8004 128.1 68.8004 128.1 68.7004 128.1C68.5004 128.1 68.3004 128 68.1004 128H68.0004H67.9004C67.8004 128 67.7004 128 67.6004 127.9C67.5004 127.9 67.4004 127.9 67.3004 127.8C67.2004 127.8 67.1004 127.8 67.0004 127.7C66.9004 127.7 66.8004 127.7 66.7004 127.6C66.6004 127.6 66.5004 127.5 66.4004 127.5C66.3004 127.5 66.2004 127.4 66.1004 127.4C66.0004 127.4 65.9004 127.3 65.8004 127.3C65.7004 127.3 65.7004 127.3 65.6004 127.2C65.5004 127.2 65.5004 127.2 65.4004 127.1C65.2004 127 64.9004 126.9 64.7004 126.8C64.6004 126.8 64.6004 126.8 64.5004 126.7C64.3004 126.6 64.1004 126.5 63.9004 126.5H63.8004C63.6004 126.4 63.4004 126.3 63.2004 126.2L63.1004 126.1C62.9004 126 62.8004 125.9 62.6004 125.8C62.6004 125.8 62.5004 125.8 62.5004 125.7C62.5004 125.7 62.5004 125.7 62.4004 125.7C62.3004 125.7 62.2004 125.6 62.2004 125.6C62.1004 125.6 62.1004 125.5 62.0004 125.5C61.9004 125.4 61.9004 125.4 61.8004 125.3C61.7004 125.3 61.7004 125.2 61.6004 125.2C61.5004 125.1 61.5004 125.1 61.4004 125C61.3004 125 61.3004 124.9 61.2004 124.9C61.1004 124.8 61.1004 124.8 61.0004 124.7L60.9004 124.6C60.8004 124.5 60.6004 124.3 60.5004 124.2L60.4004 124.1C60.3004 124 60.2004 123.9 60.1004 123.8C60.1004 123.8 60.1004 123.8 60.0004 123.7C60.0004 123.7 60.0004 123.7 59.9004 123.6C59.8004 123.5 59.8004 123.5 59.7004 123.4L59.6004 123.3C59.5004 123.2 59.5004 123.1 59.5004 123.1C59.5004 123.1 59.5004 123 59.4004 123C59.3004 122.9 59.3004 122.7 59.2004 122.6C59.2004 122.5 59.1004 122.4 59.1004 122.3C59.1004 122.2 59.0004 122.1 59.0004 122C59.0004 121.9 58.9004 121.8 58.9004 121.7C58.9004 121.6 58.9004 121.5 58.9004 121.4C58.9004 121.3 58.9004 121.2 58.9004 121.1V121V113.1C58.9004 113.3 59.0004 113.3 59.0004 113.4Z" fill="#EBFDF8"/>
<path d="M103.9 128.9V121L105.3 118L108.8 110.5L116.3 109.3H116.4H116.5H116.6H116.7H116.8C116.8 109.3 116.8 109.3 116.9 109.3H117H117.1H117.2H117.3H117.4C117.5 109.3 117.5 109.3 117.6 109.3H117.7H117.8H117.9H118H118.1H118.2H118.3H118.4H118.5H118.6C118.7 109.3 118.7 109.3 118.8 109.3H118.9C119 109.3 119 109.3 119.1 109.3H119.2C119.3 109.3 119.4 109.3 119.5 109.2H119.6C119.7 109.2 119.7 109.2 119.8 109.2H119.9C120 109.2 120 109.2 120.1 109.2H120.2C120.3 109.2 120.3 109.2 120.4 109.2C120.5 109.2 120.5 109.2 120.6 109.2C120.7 109.2 120.7 109.2 120.8 109.2C120.9 109.2 120.9 109.2 121 109.2C121.1 109.2 121.1 109.2 121.2 109.2H121.3C121.4 109.2 121.5 109.2 121.5 109.2H121.6C121.7 109.2 121.8 109.2 122 109.1C122 109.1 122 109.1 122.1 109.1C122.2 109.1 122.3 109.1 122.4 109H122.5C122.6 109 122.7 109 122.8 109C122.9 109 122.9 109 123 109C123.1 109 123.2 109 123.2 109C123.3 109 123.3 109 123.4 109C123.5 109 123.6 109 123.6 108.9C123.7 108.9 123.7 108.9 123.8 108.9C123.9 108.9 124 108.9 124 108.8C124.1 108.8 124.1 108.8 124.2 108.8H124.3C124.6 108.7 124.8 108.7 125.1 108.6H125.2C125.5 108.5 125.7 108.5 126 108.4H126.1C126.4 108.3 126.6 108.3 126.9 108.2H127C127.3 108.1 127.5 108.1 127.8 108H127.9C128.2 107.9 128.4 107.9 128.7 107.8H128.8C129.1 107.7 129.3 107.7 129.6 107.6H129.7C130 107.5 130.2 107.5 130.5 107.4H130.6C130.9 107.3 131.1 107.3 131.4 107.2H131.5C131.6 107.2 131.8 107.1 131.9 107.1H132C132.2 107 132.4 107 132.5 106.9H132.6C132.8 106.9 132.9 106.8 133.1 106.8C133.2 106.8 133.2 106.8 133.3 106.7C133.4 106.7 133.6 106.6 133.7 106.6H133.8C134 106.5 134.1 106.5 134.3 106.4H134.4C134.5 106.4 134.7 106.3 134.8 106.3C134.8 106.3 134.9 106.3 134.9 106.2C135.1 106.1 135.2 106.1 135.3 106C135.3 106 135.3 106 135.4 106C135.6 105.9 135.7 105.9 135.9 105.8C136 105.8 136 105.8 136.1 105.7C136.2 105.7 136.3 105.6 136.3 105.6C136.4 105.6 136.4 105.6 136.5 105.5C136.6 105.5 136.6 105.4 136.7 105.4C136.8 105.4 136.8 105.4 136.9 105.3C137 105.3 137 105.2 137.1 105.2C137.2 105.2 137.2 105.2 137.3 105.1C137.4 105.1 137.4 105 137.5 105C137.6 105 137.6 105 137.7 104.9C137.8 104.9 137.8 104.8 137.9 104.8C138 104.8 138 104.8 138.1 104.7C138.2 104.7 138.2 104.6 138.3 104.6C138.3 104.6 138.4 104.6 138.4 104.5C138.5 104.5 138.6 104.4 138.6 104.4C138.6 104.4 138.7 104.4 138.7 104.3C138.8 104.2 138.9 104.2 139 104.1C140.7 103.1 141.8 102 141.8 100.8V108.7C141.8 109.9 140.7 111 139 112C138.9 112.1 138.8 112.1 138.7 112.2C138.7 112.2 138.6 112.2 138.6 112.3C138.5 112.3 138.5 112.4 138.4 112.4C138.4 112.4 138.3 112.4 138.3 112.5C138.2 112.5 138.2 112.6 138.1 112.6C138.1 112.6 138 112.6 137.9 112.7C137.8 112.7 137.8 112.8 137.7 112.8C137.6 112.8 137.6 112.8 137.5 112.9C137.4 112.9 137.4 113 137.3 113C137.2 113 137.2 113 137.1 113.1C137 113.1 137 113.2 136.9 113.2C136.8 113.2 136.8 113.2 136.7 113.3C136.6 113.3 136.6 113.4 136.5 113.4C136.4 113.4 136.4 113.4 136.3 113.5C136.2 113.5 136.1 113.6 136.1 113.6H136C135.8 113.7 135.7 113.7 135.5 113.8C135.5 113.8 135.5 113.8 135.4 113.8C135.3 113.9 135.1 113.9 134.9 114C134.9 114 134.8 114 134.8 114.1C134.7 114.1 134.5 114.2 134.4 114.2H134.3C134.1 114.3 134 114.3 133.8 114.4H133.7C133.6 114.4 133.4 114.5 133.3 114.5C133.2 114.5 133.2 114.5 133.1 114.6C132.9 114.6 132.8 114.7 132.6 114.7H132.5C132.3 114.8 132.1 114.8 132 114.9H131.9C131.8 114.9 131.6 115 131.5 115H131.4C131.1 115.1 130.9 115.2 130.6 115.2H130.5C130.2 115.3 130 115.3 129.7 115.4H129.6C129.3 115.5 129 115.5 128.8 115.6H128.7C128.4 115.7 128.1 115.7 127.9 115.8H127.8C127.5 115.9 127.2 115.9 127 116H126.9C126.6 116.1 126.4 116.1 126.1 116.2H126C125.7 116.3 125.5 116.3 125.2 116.4H125.1C124.8 116.5 124.6 116.5 124.3 116.6C124.3 116.6 124.3 116.6 124.2 116.6C124.2 116.6 124.2 116.6 124.1 116.6C124 116.6 124 116.6 123.9 116.6C123.8 116.6 123.7 116.6 123.7 116.6C123.6 116.6 123.6 116.6 123.5 116.6C123.4 116.6 123.3 116.6 123.3 116.6C123.2 116.6 123.2 116.6 123.1 116.6C123 116.6 122.9 116.6 122.9 116.6C122.8 116.6 122.8 116.6 122.7 116.6C122.6 116.6 122.5 116.6 122.4 116.7H122.3C122.2 116.7 122.1 116.7 122 116.8C122 116.8 122 116.8 121.9 116.8C121.8 116.8 121.6 116.8 121.5 116.9H121.4C121.3 116.9 121.2 116.9 121.1 116.9H121C120.9 116.9 120.8 116.9 120.8 116.9H120.7C120.6 116.9 120.6 116.9 120.5 116.9H120.4C120.3 116.9 120.2 116.9 120.2 116.9H120.1C120 116.9 120 116.9 119.9 116.9H119.8C119.7 116.9 119.7 116.9 119.6 116.9H119.5C119.4 116.9 119.3 116.9 119.2 117C119.1 117 119 117 118.9 117H118.8C118.7 117 118.7 117 118.6 117H118.5C118.4 117 118.4 117 118.3 117H118.2C118.1 117 118.1 117 118 117H117.9C117.8 117 117.8 117 117.7 117H117.6C117.5 117 117.5 117 117.4 117H117.3C117.2 117 117.2 117 117.1 117C117 117 117 117 116.9 117C116.8 117 116.8 117 116.7 117H116.6H116.5C116.5 117 116.5 117 116.4 117C116.4 117 116.4 117 116.3 117C116.2 117 116.1 117 116.1 117H116H115.9L108.4 118.2L104.9 125.7L103.9 128.9Z" fill="#EBFDF8"/>
<path d="M101.7 134.5C101.7 134.4 101.7 134.4 101.7 134.3C101.7 134.3 101.7 134.3 101.7 134.2V134.1C101.7 134.1 101.7 134.1 101.7 134C101.7 133.9 101.7 133.9 101.6 133.8C101.6 133.7 101.5 133.7 101.5 133.6C101.5 133.6 101.5 133.6 101.5 133.5L101.4 133.4C101.4 133.4 101.4 133.4 101.3 133.3L101.2 133.2C101.2 133.2 101.2 133.2 101.2 133.1C101.1 133 101.1 133 101 132.9C100.9 132.8 100.9 132.8 100.8 132.7C100.7 132.6 100.7 132.6 100.6 132.5C100.5 132.5 100.5 132.4 100.4 132.4C100.3 132.4 100.3 132.3 100.2 132.3C100.1 132.3 100 132.2 100 132.2C100 132.2 99.9004 132.2 99.9004 132.1C99.8004 132 99.6004 132 99.5004 131.9C99.4004 131.8 99.2004 131.8 99.1004 131.7H99.0004C98.9004 131.7 98.8004 131.6 98.7004 131.6C98.6004 131.6 98.5004 131.5 98.4004 131.5C98.3004 131.5 98.2004 131.5 98.1004 131.4C98.0004 131.4 97.9004 131.4 97.8004 131.3C97.7004 131.3 97.5004 131.2 97.4004 131.2C97.2004 131.2 97.1004 131.2 96.9004 131.1H96.8004C96.6004 131.1 96.4004 131.1 96.2004 131.1C96.0004 131.1 95.8004 131.1 95.7004 131.1H95.6004C95.4004 131.1 95.3004 131.1 95.1004 131.1C94.9004 131.1 94.8004 131.1 94.6004 131.2H94.5004C94.3004 131.2 94.1004 131.3 94.0004 131.3C93.8004 131.3 93.6004 131.4 93.4004 131.4C93.4004 131.4 93.4004 131.4 93.3004 131.4C93.2004 131.4 93.1004 131.5 93.0004 131.5C93.0004 131.5 93.0004 131.5 92.9004 131.5C92.8004 131.5 92.7004 131.6 92.6004 131.6C92.5004 131.7 92.4004 131.7 92.2004 131.8H92.1004C92.0004 131.9 91.8004 131.9 91.7004 132C91.0004 132.4 90.4004 133 90.1004 133.6C90.0004 133.9 89.9004 134.2 89.9004 134.5V126.6C89.9004 126.3 90.0004 126 90.1004 125.7C90.4004 125.1 91.0004 124.5 91.7004 124.1C91.8004 124 91.9004 124 92.1004 123.9H92.2004C92.3004 123.8 92.4004 123.8 92.6004 123.7C92.7004 123.7 92.8004 123.6 92.9004 123.6C92.9004 123.6 92.9004 123.6 93.0004 123.6C93.1004 123.6 93.2004 123.5 93.3004 123.5C93.5004 123.4 93.7004 123.4 93.9004 123.4C94.1004 123.4 94.3004 123.3 94.4004 123.3C94.4004 123.3 94.4004 123.3 94.5004 123.3C94.5004 123.3 94.5004 123.3 94.6004 123.3C94.8004 123.3 94.9004 123.3 95.1004 123.2C95.3004 123.2 95.4004 123.2 95.6004 123.2C95.6004 123.2 95.6004 123.2 95.7004 123.2C95.7004 123.2 95.7004 123.2 95.8004 123.2C96.0004 123.2 96.2004 123.2 96.3004 123.2C96.5004 123.2 96.7004 123.2 96.9004 123.2C96.9004 123.2 96.9004 123.2 97.0004 123.2C97.0004 123.2 97.0004 123.2 97.1004 123.2C97.3004 123.2 97.4004 123.2 97.6004 123.3C97.7004 123.3 97.8004 123.3 97.8004 123.3C97.9004 123.3 97.9004 123.3 98.0004 123.3C98.1004 123.3 98.2004 123.3 98.3004 123.4C98.4004 123.4 98.5004 123.4 98.6004 123.5C98.7004 123.5 98.8004 123.6 98.9004 123.6H99.0004C99.1004 123.6 99.1004 123.6 99.2004 123.7H99.3004C99.4004 123.8 99.6004 123.8 99.7004 123.9C99.8004 124 100 124 100.1 124.1C100.1 124.1 100.2 124.1 100.2 124.2C100.3 124.2 100.3 124.3 100.4 124.3C100.4 124.3 100.5 124.3 100.5 124.4C100.6 124.4 100.6 124.5 100.7 124.5C100.8 124.5 100.8 124.6 100.9 124.6C101 124.6 101 124.7 101.1 124.8L101.2 124.9L101.3 125C101.4 125.1 101.4 125.1 101.5 125.2C101.5 125.2 101.5 125.2 101.5 125.3C101.5 125.3 101.5 125.3 101.6 125.4C101.6 125.4 101.6 125.4 101.7 125.5C101.7 125.5 101.7 125.5 101.8 125.6L101.9 125.7C101.9 125.7 101.9 125.7 101.9 125.8C101.9 125.9 102 125.9 102 126C102 126 102 126.1 102.1 126.1C102.1 126.1 102.1 126.1 102.1 126.2V126.3C102.1 126.3 102.1 126.3 102.1 126.4C102.1 126.5 102.1 126.5 102.1 126.6C102.1 126.7 102.1 126.7 102.1 126.8C102.1 126.8 102.1 126.8 102.1 126.9V134.8C101.7 134.7 101.7 134.6 101.7 134.5Z" fill="#EBFDF8"/>
<path d="M82.7008 127.5C82.7008 127.6 82.7008 127.7 82.8008 127.8V127.9C82.8008 128 82.8008 128.1 82.9008 128.2C82.9008 128.3 83.0008 128.4 83.0008 128.5V128.6C83.0008 128.7 83.1008 128.8 83.1008 128.9C83.1008 129 83.2008 129.1 83.3008 129.2C83.3008 129.2 83.3008 129.2 83.3008 129.3C83.4008 129.4 83.4008 129.5 83.5008 129.6C83.5008 129.6 83.5008 129.6 83.5008 129.7C83.6008 129.8 83.7008 129.9 83.7008 130C83.8008 130.1 83.8008 130.2 83.9008 130.3C83.9008 130.3 83.9008 130.3 84.0008 130.4C84.1008 130.5 84.2008 130.6 84.3008 130.7C84.4008 130.8 84.5008 130.9 84.6008 131C84.7008 131.1 84.7008 131.1 84.8008 131.2C84.9008 131.2 84.9008 131.3 85.0008 131.3C85.1008 131.4 85.1008 131.4 85.2008 131.5C85.3008 131.5 85.3008 131.6 85.4008 131.6C85.5008 131.7 85.6008 131.7 85.6008 131.8C85.7008 131.8 85.7008 131.9 85.8008 131.9C85.9008 132 86.0008 132 86.1008 132.1C86.2008 132.1 86.2008 132.2 86.3008 132.2C86.5008 132.3 86.7008 132.4 86.9008 132.5C87.0008 132.5 87.0008 132.6 87.1008 132.6C87.3008 132.7 87.5008 132.8 87.7008 132.9C87.9008 133 88.2008 133.1 88.4008 133.2C88.5008 133.2 88.5008 133.2 88.6008 133.3C88.8008 133.4 89.1008 133.5 89.3008 133.6C89.5008 133.7 89.7008 133.7 89.9008 133.8C90.0008 133.8 90.0008 133.8 90.1008 133.8C90.2008 133.8 90.4008 133.9 90.5008 133.9C90.6008 133.9 90.7008 133.9 90.7008 134C90.8008 134 90.9008 134.1 91.1008 134.1C91.2008 134.1 91.3008 134.1 91.4008 134.2C91.5008 134.2 91.6008 134.2 91.8008 134.3C92.0008 134.3 92.2008 134.4 92.4008 134.4C92.7008 134.4 92.9008 134.5 93.2008 134.5C93.3008 134.5 93.3008 134.5 93.4008 134.5C93.6008 134.5 93.8008 134.5 94.0008 134.6C94.1008 134.6 94.2008 134.6 94.2008 134.6C94.5008 134.6 94.7008 134.6 95.0008 134.6H95.1008C95.3008 134.6 95.5008 134.6 95.8008 134.6C95.9008 134.6 96.0008 134.6 96.0008 134.6C96.2008 134.6 96.4008 134.6 96.6008 134.6C96.7008 134.6 96.7008 134.6 96.8008 134.6C97.1008 134.6 97.3008 134.6 97.6008 134.6H97.7008C97.9008 134.6 98.1008 134.6 98.4008 134.5C98.5008 134.5 98.6008 134.5 98.6008 134.5C98.8008 134.5 99.0008 134.5 99.1008 134.4C99.2008 134.4 99.3008 134.4 99.4008 134.4C99.6008 134.4 99.8008 134.3 100.001 134.3C100.101 134.3 100.101 134.3 100.201 134.3C100.501 134.2 100.701 134.2 100.901 134.1H101.001C101.201 134 101.401 134 101.601 133.9C101.801 133.8 102.001 133.8 102.201 133.7H102.301C102.601 133.6 102.801 133.5 103.101 133.4C103.301 133.3 103.501 133.2 103.701 133.1C103.801 133.1 103.801 133.1 103.901 133C104.101 132.9 104.201 132.9 104.301 132.8C104.401 132.8 104.401 132.7 104.501 132.7C104.701 132.6 104.901 132.5 105.101 132.4C106.701 131.5 107.901 130.4 108.501 129C108.701 128.5 108.901 128 108.901 127.5C108.901 127.3 108.901 127.2 108.901 127V134.9C108.901 135.6 108.701 136.3 108.401 136.9C107.801 138.2 106.601 139.4 105.001 140.3C104.801 140.4 104.601 140.5 104.401 140.6C104.301 140.6 104.301 140.7 104.201 140.7C104.101 140.8 103.901 140.8 103.801 140.9C103.701 140.9 103.701 140.9 103.601 141C103.401 141.1 103.201 141.2 103.001 141.2C102.801 141.3 102.501 141.4 102.201 141.5H102.101C101.901 141.6 101.701 141.6 101.501 141.7C101.301 141.8 101.101 141.8 101.001 141.8H100.901C100.701 141.9 100.401 141.9 100.201 142C100.101 142 100.101 142 100.001 142C99.8008 142 99.6008 142.1 99.4008 142.1C99.3008 142.1 99.2008 142.1 99.1008 142.1C99.0008 142.1 98.9008 142.1 98.8008 142.1C98.7008 142.1 98.6008 142.1 98.5008 142.1C98.4008 142.1 98.3008 142.1 98.3008 142.1C98.1008 142.1 97.9008 142.1 97.6008 142.2H97.5008C97.3008 142.2 97.0008 142.2 96.8008 142.2C96.7008 142.2 96.7008 142.2 96.6008 142.2C96.5008 142.2 96.4008 142.2 96.3008 142.2C96.2008 142.2 96.1008 142.2 96.0008 142.2C95.9008 142.2 95.8008 142.2 95.8008 142.2C95.6008 142.2 95.4008 142.2 95.1008 142.2H95.0008C94.7008 142.2 94.5008 142.2 94.2008 142.2C94.1008 142.2 94.1008 142.2 94.0008 142.2C93.9008 142.2 93.7008 142.2 93.6008 142.2C93.5008 142.2 93.5008 142.2 93.4008 142.2C93.3008 142.2 93.3008 142.2 93.2008 142.2C92.9008 142.2 92.7008 142.1 92.4008 142.1C92.2008 142.1 92.0008 142 91.9008 142C91.8008 142 91.7008 142 91.5008 141.9C91.4008 141.9 91.3008 141.9 91.2008 141.8C91.1008 141.8 91.0008 141.7 90.8008 141.7C90.7008 141.7 90.6008 141.7 90.6008 141.6C90.5008 141.6 90.3008 141.5 90.2008 141.5C90.1008 141.5 90.1008 141.5 90.0008 141.5C89.8008 141.4 89.6008 141.4 89.4008 141.3C89.2008 141.2 88.9008 141.1 88.7008 141C88.6008 141 88.6008 141 88.5008 140.9C88.3008 140.8 88.0008 140.7 87.8008 140.6C87.6008 140.5 87.4008 140.4 87.2008 140.3C87.1008 140.3 87.1008 140.2 87.0008 140.2C86.8008 140.1 86.6008 140 86.4008 139.9C86.3008 139.9 86.3008 139.8 86.2008 139.8C86.1008 139.7 86.0008 139.7 85.9008 139.6C85.8008 139.6 85.8008 139.5 85.7008 139.5C85.6008 139.4 85.5008 139.4 85.5008 139.3C85.4008 139.3 85.4008 139.2 85.3008 139.2C85.2008 139.1 85.2008 139.1 85.1008 139C85.0008 139 85.0008 138.9 84.9008 138.9C84.8008 138.8 84.8008 138.8 84.7008 138.7C84.6008 138.6 84.5008 138.5 84.4008 138.5C84.3008 138.4 84.2008 138.3 84.1008 138.2C84.1008 138.2 84.1008 138.2 84.0008 138.1C83.9008 138 83.9008 137.9 83.8008 137.8C83.7008 137.7 83.6008 137.6 83.6008 137.5C83.6008 137.5 83.6008 137.5 83.6008 137.4C83.5008 137.3 83.5008 137.2 83.4008 137.1C83.3008 137 83.3008 136.9 83.2008 136.8C83.2008 136.7 83.1008 136.6 83.1008 136.5C83.1008 136.4 83.0008 136.3 83.0008 136.2C83.0008 136.1 82.9008 136 82.9008 135.9C82.9008 135.8 82.9008 135.7 82.8008 135.6C82.8008 135.5 82.8008 135.4 82.8008 135.3V135.2V127.3C82.8008 127.4 82.8008 127.4 82.8008 127.5C82.6008 127.2 82.7008 127.4 82.7008 127.5Z" fill="#EBFDF8"/>
<path d="M120.401 86.2V94.1L114.701 106.1L113.501 108.7" stroke="#171A21" stroke-width="2" stroke-miterlimit="10" stroke-linecap="round" stroke-linejoin="round"/>
<path d="M84.8006 122.3C84.3006 123.9 83.0006 125.3 81.1006 126.4C80.9006 126.5 80.7006 126.6 80.6006 126.7C80.5006 126.7 80.5006 126.8 80.4006 126.8C80.3006 126.9 80.1006 126.9 80.0006 127C79.9006 127 79.9006 127 79.8006 127.1C79.6006 127.2 79.4006 127.3 79.2006 127.3C79.0006 127.4 78.7006 127.5 78.5006 127.6H78.4006C78.2006 127.7 77.9006 127.7 77.7006 127.8C77.5006 127.9 77.2006 127.9 77.0006 128C76.9006 128 76.9006 128 76.8006 128C76.6006 128 76.5006 128.1 76.3006 128.1C76.3006 128.1 76.3006 128.1 76.2006 128.1C75.9006 128.2 75.6006 128.2 75.3006 128.3C75.2006 128.3 75.1006 128.3 75.0006 128.3C74.9006 128.3 74.9006 128.3 74.8006 128.3C74.7006 128.3 74.6006 128.3 74.5006 128.3C74.4006 128.3 74.3006 128.3 74.2006 128.3C74.1006 128.3 74.0006 128.3 73.9006 128.3C73.8006 128.3 73.8006 128.3 73.7006 128.3C73.6006 128.3 73.6006 128.3 73.5006 128.3C73.4006 128.3 73.3006 128.3 73.2006 128.3C73.1006 128.3 73.0006 128.3 72.9006 128.3C72.8006 128.3 72.7006 128.3 72.6006 128.3C72.5006 128.3 72.5006 128.3 72.4006 128.3H72.3006C72.2006 128.3 72.1006 128.3 72.0006 128.3C71.9006 128.3 71.8006 128.3 71.7006 128.3C71.6006 128.3 71.5006 128.3 71.4006 128.3C71.3006 128.3 71.3006 128.3 71.2006 128.3H71.1006C71.0006 128.3 70.8006 128.3 70.7006 128.3C70.6006 128.3 70.5006 128.3 70.4006 128.3C70.3006 128.3 70.1006 128.3 70.0006 128.3C69.9006 128.3 69.9006 128.3 69.8006 128.3C69.6006 128.3 69.3006 128.2 69.1006 128.2C69.0006 128.2 69.0006 128.2 68.9006 128.2C68.7006 128.2 68.5006 128.1 68.3006 128.1H68.2006H68.1006C68.0006 128.1 67.9006 128.1 67.8006 128C67.7006 128 67.6006 128 67.5006 127.9C67.4006 127.9 67.3006 127.9 67.2006 127.8C67.1006 127.8 67.0006 127.8 66.9006 127.7C66.8006 127.7 66.7006 127.6 66.6006 127.6C66.5006 127.6 66.4006 127.5 66.3006 127.5C66.2006 127.5 66.1006 127.4 66.0006 127.4C65.9006 127.4 65.9006 127.4 65.8006 127.3C65.7006 127.3 65.7006 127.3 65.6006 127.2C65.4006 127.1 65.1006 127 64.9006 126.9C64.8006 126.9 64.8006 126.9 64.7006 126.8C64.5006 126.7 64.3006 126.6 64.1006 126.6H64.0006C63.8006 126.5 63.6006 126.4 63.4006 126.3L63.3006 126.2C63.1006 126.1 63.0006 126 62.8006 125.9C62.8006 125.9 62.7006 125.9 62.7006 125.8C62.7006 125.8 62.7006 125.8 62.6006 125.8C62.5006 125.8 62.4006 125.7 62.4006 125.7C62.3006 125.7 62.3006 125.6 62.2006 125.6C62.1006 125.5 62.1006 125.5 62.0006 125.4C61.9006 125.4 61.9006 125.3 61.8006 125.3C61.7006 125.2 61.7006 125.2 61.6006 125.1C61.5006 125.1 61.5006 125 61.4006 125C61.3006 124.9 61.3006 124.9 61.2006 124.8L61.1006 124.7C61.0006 124.6 60.8006 124.4 60.7006 124.3L60.6006 124.2C60.5006 124.1 60.4006 124 60.3006 123.9C60.3006 123.9 60.3006 123.9 60.2006 123.8C60.2006 123.8 60.2006 123.8 60.1006 123.7C60.0006 123.6 60.0006 123.6 59.9006 123.5L59.8006 123.4C59.7006 123.3 59.7006 123.2 59.7006 123.2C59.7006 123.2 59.7006 123.1 59.6006 123.1C59.5006 123 59.5006 122.8 59.4006 122.7C59.4006 122.6 59.3006 122.5 59.3006 122.4C59.3006 122.3 59.2006 122.2 59.2006 122.1C59.2006 122 59.1006 121.9 59.1006 121.8C59.1006 121.7 59.1006 121.6 59.1006 121.5C59.1006 121.4 59.1006 121.3 59.1006 121.2V121.1V113.2C59.1006 113.3 59.1006 113.3 59.1006 113.4C59.1006 113.5 59.1006 113.6 59.1006 113.7C59.1006 113.8 59.1006 113.9 59.1006 114C59.1006 114 59.1006 114 59.1006 114.1C59.1006 114.2 59.1006 114.3 59.2006 114.4C59.2006 114.5 59.3006 114.6 59.3006 114.7" stroke="#171A21" stroke-width="2" stroke-miterlimit="10" stroke-linecap="round" stroke-linejoin="round"/>
<path d="M142.5 99.8999V107.8C142.5 109 141.4 110.1 139.7 111.1C139.6 111.2 139.5 111.2 139.4 111.3C139.4 111.3 139.3 111.3 139.3 111.4C139.2 111.4 139.2 111.5 139.1 111.5C139.1 111.5 139 111.5 139 111.6C138.9 111.6 138.9 111.7 138.8 111.7C138.8 111.7 138.7 111.7 138.6 111.8C138.5 111.8 138.5 111.9 138.4 111.9C138.3 111.9 138.3 111.9 138.2 112C138.1 112 138.1 112.1 138 112.1C137.9 112.1 137.9 112.1 137.8 112.2C137.7 112.2 137.7 112.3 137.6 112.3C137.5 112.3 137.5 112.3 137.4 112.4C137.3 112.4 137.3 112.5 137.2 112.5C137.1 112.5 137.1 112.5 137 112.6C136.9 112.6 136.8 112.7 136.8 112.7H136.7C136.5 112.8 136.4 112.8 136.2 112.9C136.2 112.9 136.2 112.9 136.1 112.9C136 113 135.8 113 135.6 113.1C135.6 113.1 135.5 113.1 135.5 113.2C135.4 113.2 135.2 113.3 135.1 113.3H135C134.8 113.4 134.7 113.4 134.5 113.5H134.4C134.3 113.5 134.1 113.6 134 113.6C133.9 113.6 133.9 113.6 133.8 113.7C133.6 113.7 133.5 113.8 133.3 113.8H133.2C133 113.9 132.8 113.9 132.7 114H132.6C132.5 114 132.3 114.1 132.2 114.1H132.1C131.8 114.2 131.6 114.3 131.3 114.3H131.2C130.9 114.4 130.7 114.4 130.4 114.5H130.3C130 114.6 129.7 114.6 129.5 114.7H129.4C129.1 114.8 128.8 114.8 128.6 114.9H128.5C128.2 115 127.9 115 127.7 115.1H127.6C127.3 115.2 127.1 115.2 126.8 115.3H126.7C126.4 115.4 126.2 115.4 125.9 115.5H125.8C125.5 115.6 125.3 115.6 125 115.7C125 115.7 125 115.7 124.9 115.7C124.9 115.7 124.9 115.7 124.8 115.7C124.7 115.7 124.7 115.7 124.6 115.7C124.5 115.7 124.4 115.7 124.4 115.7C124.3 115.7 124.3 115.7 124.2 115.7C124.1 115.7 124 115.7 124 115.7C123.9 115.7 123.9 115.7 123.8 115.7C123.7 115.7 123.6 115.7 123.6 115.7C123.5 115.7 123.5 115.7 123.4 115.7C123.3 115.7 123.2 115.7 123.1 115.8H123C122.9 115.8 122.8 115.8 122.7 115.9C122.7 115.9 122.7 115.9 122.6 115.9C122.5 115.9 122.3 115.9 122.2 116H122.1C122 116 121.9 116 121.8 116H121.7C121.6 116 121.5 116 121.5 116H121.4C121.3 116 121.3 116 121.2 116H121.1C121 116 120.9 116 120.9 116H120.8C120.7 116 120.7 116 120.6 116H120.5C120.4 116 120.4 116 120.3 116H120.2C120.1 116 120 116 119.9 116.1C119.8 116.1 119.7 116.1 119.6 116.1H119.5C119.4 116.1 119.4 116.1 119.3 116.1H119.2C119.1 116.1 119.1 116.1 119 116.1H118.9C118.8 116.1 118.8 116.1 118.7 116.1H118.6C118.5 116.1 118.5 116.1 118.4 116.1H118.3C118.2 116.1 118.2 116.1 118.1 116.1H118C117.9 116.1 117.9 116.1 117.8 116.1C117.7 116.1 117.7 116.1 117.6 116.1C117.5 116.1 117.5 116.1 117.4 116.1H117.3H117.2C117.2 116.1 117.2 116.1 117.1 116.1C117.1 116.1 117.1 116.1 117 116.1C116.9 116.1 116.8 116.1 116.8 116.1H116.7H116.6L109.1 117.3L105.6 124.8L104.2 127.8" stroke="#171A21" stroke-width="2" stroke-miterlimit="10" stroke-linecap="round" stroke-linejoin="round"/>
<path d="M108.201 128.8C108.401 128.3 108.601 127.8 108.601 127.3C108.601 127.1 108.601 127 108.601 126.8V134.7C108.601 135.4 108.401 136.1 108.101 136.7C107.501 138 106.301 139.2 104.701 140.1C104.501 140.2 104.301 140.3 104.101 140.4C104.001 140.4 104.001 140.5 103.901 140.5C103.801 140.6 103.601 140.6 103.501 140.7C103.401 140.7 103.401 140.7 103.301 140.8C103.101 140.9 102.901 141 102.701 141C102.501 141.1 102.201 141.2 101.901 141.3H101.801C101.601 141.4 101.401 141.4 101.201 141.5C101.001 141.6 100.801 141.6 100.701 141.6H100.601C100.401 141.7 100.101 141.7 99.901 141.8C99.801 141.8 99.801 141.8 99.701 141.8C99.501 141.8 99.301 141.9 99.101 141.9C99.001 141.9 98.901 141.9 98.801 141.9C98.701 141.9 98.601 141.9 98.501 141.9C98.401 141.9 98.301 141.9 98.201 141.9C98.101 141.9 98.001 141.9 98.001 141.9C97.801 141.9 97.601 141.9 97.301 142H97.201C97.001 142 96.701 142 96.501 142C96.401 142 96.401 142 96.301 142C96.201 142 96.101 142 96.001 142C95.901 142 95.801 142 95.701 142C95.601 142 95.501 142 95.501 142C95.301 142 95.101 142 94.801 142H94.701C94.401 142 94.201 142 93.901 142C93.801 142 93.801 142 93.701 142C93.601 142 93.401 142 93.301 142C93.201 142 93.201 142 93.101 142C93.001 142 93.001 142 92.901 142C92.601 142 92.401 141.9 92.101 141.9C91.901 141.9 91.701 141.8 91.601 141.8C91.501 141.8 91.401 141.8 91.201 141.7C91.101 141.7 91.001 141.7 90.901 141.6C90.801 141.6 90.701 141.5 90.501 141.5C90.401 141.5 90.301 141.5 90.301 141.4C90.201 141.4 90.001 141.3 89.901 141.3C89.801 141.3 89.801 141.3 89.701 141.3C89.501 141.2 89.301 141.2 89.101 141.1C88.901 141 88.601 140.9 88.401 140.8C88.301 140.8 88.301 140.8 88.201 140.7C88.001 140.6 87.701 140.5 87.501 140.4C87.301 140.3 87.101 140.2 86.901 140.1C86.801 140.1 86.801 140 86.701 140C86.501 139.9 86.301 139.8 86.101 139.7C86.001 139.7 86.001 139.6 85.901 139.6C85.801 139.5 85.701 139.5 85.601 139.4C85.501 139.4 85.501 139.3 85.401 139.3C85.301 139.2 85.201 139.2 85.201 139.1C85.101 139.1 85.101 139 85.001 139C84.901 138.9 84.901 138.9 84.801 138.8C84.701 138.8 84.701 138.7 84.601 138.7C84.501 138.6 84.501 138.6 84.401 138.5C84.301 138.4 84.201 138.3 84.101 138.3C84.001 138.2 83.901 138.1 83.801 138C83.801 138 83.801 138 83.701 137.9C83.601 137.8 83.601 137.7 83.501 137.6C83.401 137.5 83.301 137.4 83.301 137.3C83.301 137.3 83.301 137.3 83.301 137.2C83.201 137.1 83.201 137 83.101 136.9C83.001 136.8 83.001 136.7 82.901 136.6C82.901 136.5 82.801 136.4 82.801 136.3C82.801 136.2 82.701 136.1 82.701 136C82.701 135.9 82.601 135.8 82.601 135.7C82.601 135.6 82.601 135.5 82.501 135.4C82.501 135.3 82.501 135.2 82.501 135.1V135V127.1C82.501 127.2 82.501 127.2 82.501 127.3C82.501 127.4 82.501 127.5 82.501 127.6C82.501 127.7 82.501 127.8 82.601 127.9V128C82.601 128.1 82.601 128.2 82.701 128.3C82.701 128.4 82.801 128.5 82.801 128.6V128.7C82.801 128.8 82.901 128.9 82.901 129" stroke="#171A21" stroke-width="2" stroke-miterlimit="10" stroke-linecap="round" stroke-linejoin="round"/>
<path d="M86.5 121.6C88.4 120.5 90.9 119.7 93.6 119.5L95 116.5L96.9 112.5L90 113.6L84.8 114.4C84.3 116 83 117.4 81.1 118.5C79.5 119.4 77.6 120.1 75.3 120.4C71.9 120.9 68.4 120.7 65.4 119.7C62.4 118.7 60.3 117.1 59.4 115.1C58.2 112.4 59.7 109.7 62.9 107.8C64.5 106.9 66.4 106.2 68.7 105.9C72.1 105.4 75.6 105.6 78.6 106.6C79.6 106.9 80.5 107.3 81.3 107.8C81.6 108 81.9 108.2 82.2 108.4L87.4 107.6L100.3 105.6L102.3 101.3C102.8 100.3 106.7 91.5 113.2 87.8C115.4 86.5 117.8 85.9 120.5 86.3L114.8 98.4L112.2 103.8L121.6 102.3L142.4 99C143.1 100.6 141.9 102 139.8 103.2C133.4 106.9 118.1 109.2 116.4 109.4L108.9 110.6L105.4 118.1L104 121.1C104.3 121.3 104.7 121.4 105 121.6C105.8 122.1 106.5 122.6 107.1 123.2C108.8 124.9 109.3 127 108.4 128.9C107.8 130.2 106.6 131.4 105 132.3C101.8 134.1 97 135 92.4 134.3C89 133.8 86.3 132.5 84.5 130.8C82.8 129.1 82.3 127 83.2 125.1C83.7 123.6 84.9 122.5 86.5 121.6ZM75 110.1C73.6 109.6 72 109.5 70.4 109.8C69.3 110 68.4 110.3 67.7 110.7C66.2 111.6 65.5 112.8 66.1 114.1C66.4 114.7 66.9 115.2 67.6 115.7C68 115.9 68.4 116.1 68.8 116.3C70.2 116.8 71.8 116.9 73.4 116.6C74.5 116.4 75.4 116.1 76.1 115.7C77.6 114.8 78.3 113.6 77.7 112.3C77.4 111.3 76.4 110.6 75 110.1ZM94 130.3C96.2 130.6 98.4 130.2 99.9 129.4C100.6 129 101.2 128.4 101.5 127.8C101.9 126.9 101.7 126 100.9 125.1C100.1 124.3 98.8 123.7 97.3 123.5C95.1 123.2 92.9 123.6 91.4 124.4C90.7 124.8 90.1 125.4 89.8 126C89.4 126.9 89.6 127.8 90.4 128.7C90.7 129 91 129.2 91.3 129.4C92.1 129.8 93 130.1 94 130.3Z" fill="#9AF4DC"/>
<path d="M1 88.7999L14.2 87.9999L15.6 80.3999L50 100.3L36.8 101.1L35.4 108.7L1 88.7999Z" fill="white" stroke="#171A21" stroke-width="2" stroke-miterlimit="10" stroke-linecap="round" stroke-linejoin="round"/>
</svg>
