<svg width="144" height="144" viewBox="0 0 144 144" fill="none" xmlns="http://www.w3.org/2000/svg">
<path d="M38.9004 19.8C38.9004 19.9 38.9004 20.1 38.9004 20.2C38.9004 20.3 38.9004 20.4 38.9004 20.6C38.9004 20.7 38.9004 20.9 39.0004 21C39.0004 21.1 39.1004 21.2 39.1004 21.4C39.1004 21.5 39.2004 21.7 39.2004 21.8C39.2004 21.9 39.3004 22 39.3004 22.2C39.3004 22.3 39.4004 22.5 39.4004 22.6C39.4004 22.7 39.5004 22.8 39.5004 23C39.6004 23.1 39.6004 23.3 39.7004 23.4C39.8004 23.5 39.8004 23.6 39.9004 23.8C40.0004 23.9 40.0004 24.1 40.1004 24.2C40.2004 24.3 40.2004 24.4 40.3004 24.5C40.4004 24.7 40.5004 24.8 40.6004 25C40.7004 25.1 40.7004 25.2 40.8004 25.3C40.9004 25.5 41.1004 25.7 41.2004 25.8C41.3004 25.9 41.3004 26 41.4004 26C41.6004 26.3 41.9004 26.6 42.1004 26.9C42.2004 27 42.2004 27 42.3004 27.1C42.5004 27.3 42.7004 27.5 42.9004 27.7C43.0004 27.8 43.1004 27.9 43.2004 28C43.3004 28.1 43.5004 28.2 43.6004 28.4C43.7004 28.5 43.9004 28.6 44.0004 28.7C44.1004 28.8 44.3004 28.9 44.4004 29C44.5004 29.1 44.7004 29.2 44.8004 29.3C45.0004 29.4 45.1004 29.5 45.3004 29.6C45.4004 29.7 45.6004 29.8 45.7004 29.9C45.9004 30 46.0004 30.1 46.2004 30.2C46.4004 30.3 46.6004 30.5 46.9004 30.6C47.3004 30.8 47.8004 31.1 48.2004 31.3C48.3004 31.4 48.5004 31.4 48.6004 31.5C48.9004 31.7 49.3004 31.8 49.6004 32C49.7004 32.1 49.8004 32.1 50.0004 32.2C50.5004 32.4 50.9004 32.6 51.4004 32.8C51.5004 32.8 51.6004 32.9 51.7004 32.9C52.1004 33.1 52.5004 33.2 52.9004 33.3C53.1004 33.4 53.2004 33.4 53.4004 33.5C53.6004 33.6 53.9004 33.6 54.1004 33.7C54.3004 33.8 54.5004 33.8 54.7004 33.9C54.9004 34 55.2004 34 55.4004 34.1C55.6004 34.2 55.8004 34.2 56.0004 34.2C56.2004 34.3 56.5004 34.3 56.7004 34.4C56.9004 34.4 57.1004 34.5 57.3004 34.5C57.5004 34.6 57.8004 34.6 58.0004 34.6C58.2004 34.6 58.4004 34.7 58.6004 34.7C59.1004 34.8 59.7004 34.9 60.2004 35C60.3004 35 60.4004 35 60.4004 35C60.9004 35.1 61.3004 35.1 61.8004 35.2C62.0004 35.2 62.2004 35.2 62.3004 35.3C62.6004 35.3 62.9004 35.4 63.2004 35.4C63.4004 35.4 63.6004 35.4 63.8004 35.4C64.1004 35.4 64.4004 35.4 64.8004 35.4C65.0004 35.4 65.2004 35.4 65.3004 35.4C65.6004 35.4 65.9004 35.4 66.1004 35.4C66.3004 35.4 66.5004 35.4 66.7004 35.4C67.0004 35.4 67.3004 35.4 67.6004 35.4C67.8004 35.4 67.9004 35.4 68.1004 35.4C68.4004 35.4 68.6004 35.4 68.9004 35.4C69.1004 35.4 69.3004 35.4 69.5004 35.4C69.8004 35.4 70.1004 35.4 70.4004 35.3C70.6004 35.3 70.7004 35.3 70.9004 35.3C71.3004 35.3 71.6004 35.2 72.0004 35.2C72.1004 35.2 72.2004 35.2 72.3004 35.2C72.8004 35.1 73.2004 35.1 73.7004 35C73.8004 35 73.8004 35 73.9004 35C74.3004 34.9 74.7004 34.9 75.1004 34.8C75.3004 34.8 75.4004 34.7 75.6004 34.7C75.9004 34.6 76.2004 34.6 76.5004 34.5C76.7004 34.5 76.8004 34.4 77.0004 34.4C77.3004 34.3 77.6004 34.3 77.9004 34.2C78.1004 34.2 78.3004 34.1 78.4004 34.1C78.7004 34 79.0004 34 79.3004 33.9C79.5004 33.9 79.6004 33.8 79.8004 33.8C80.3004 33.7 80.7004 33.5 81.1004 33.4C81.2004 33.4 81.3004 33.4 81.3004 33.3C81.8004 33.1 82.3004 32.9 82.8004 32.8C83.0004 32.7 83.2004 32.6 83.4004 32.6C83.6004 32.5 83.7004 32.5 83.9004 32.4C84.1004 32.3 84.3004 32.2 84.6004 32.1C84.7004 32 84.9004 32 85.0004 31.9C85.2004 31.8 85.5004 31.7 85.7004 31.5C85.8004 31.4 85.9004 31.4 86.0004 31.3C86.3004 31.1 86.7004 30.9 87.0004 30.7C89.4004 29.3 91.3004 27.7 92.7004 26C93.1004 25.5 93.4004 25 93.7004 24.5C93.9004 24.2 94.0004 24 94.1004 23.7C94.9004 22.2 95.3004 20.6 95.3004 19L95.4004 65.5C95.4004 69.7 92.6004 73.9 87.1004 77.2C86.8004 77.4 86.4004 77.6 86.1004 77.8C86.1004 77.9 86.0004 78 85.9004 78C85.7004 78.1 85.4004 78.2 85.2004 78.4C85.1004 78.5 84.9004 78.5 84.8004 78.6C84.6004 78.7 84.4004 78.8 84.1004 78.9C83.9004 79 83.8004 79 83.6004 79.1C83.4004 79.2 83.3004 79.2 83.1004 79.3C83.1004 79.3 83.0004 79.3 83.0004 79.4C82.5004 79.6 82.0004 79.8 81.5004 79.9C81.4004 79.9 81.3004 79.9 81.3004 80C80.9004 80.1 80.4004 80.3 80.0004 80.4C79.9004 80.4 79.9004 80.4 79.8004 80.5C79.7004 80.5 79.6004 80.5 79.5004 80.6C79.2004 80.7 78.9004 80.8 78.6004 80.8C78.4004 80.8 78.3004 80.9 78.1004 80.9C77.8004 81 77.5004 81 77.1004 81.1C77.0004 81.1 76.9004 81.2 76.7004 81.2H76.6004C76.3004 81.3 76.0004 81.3 75.7004 81.4C75.5004 81.4 75.4004 81.5 75.2004 81.5C74.8004 81.6 74.4004 81.6 74.0004 81.7C73.9004 81.7 73.9004 81.7 73.8004 81.7C73.4004 81.8 72.9004 81.8 72.4004 81.9C72.3004 81.9 72.2004 81.9 72.1004 81.9C71.7004 81.9 71.4004 82 71.0004 82C70.8004 82 70.7004 82 70.5004 82C70.2004 82 69.9004 82 69.6004 82.1C69.4004 82.1 69.2004 82.1 69.0004 82.1C68.7004 82.1 68.5004 82.1 68.2004 82.1C68.2004 82.1 68.2004 82.1 68.1004 82.1C67.9004 82.1 67.8004 82.1 67.6004 82.1C67.3004 82.1 67.0004 82.1 66.7004 82.1C66.5004 82.1 66.3004 82.1 66.1004 82.1C65.8004 82.1 65.6004 82.1 65.3004 82.1C65.2004 82.1 65.2004 82.1 65.1004 82.1C65.0004 82.1 64.8004 82.1 64.7004 82.1C64.4004 82.1 64.1004 82.1 63.7004 82.1C63.5004 82.1 63.3004 82.1 63.1004 82.1C62.8004 82.1 62.5004 82.1 62.2004 82C62.1004 82 62.0004 82 61.9004 82C61.8004 82 61.8004 82 61.7004 82C61.2004 82 60.8004 81.9 60.3004 81.8C60.2004 81.8 60.1004 81.8 60.1004 81.8C59.6004 81.7 59.0004 81.6 58.5004 81.5C58.5004 81.5 58.4004 81.5 58.3004 81.5C58.2004 81.5 58.0004 81.4 57.9004 81.4C57.7004 81.4 57.4004 81.3 57.2004 81.3C57.0004 81.3 56.8004 81.2 56.6004 81.2C56.4004 81.1 56.1004 81.1 55.9004 81C55.7004 81 55.5004 80.9 55.3004 80.9C55.1004 80.8 54.8004 80.8 54.6004 80.7C54.4004 80.6 54.2004 80.6 54.0004 80.5C53.8004 80.4 53.5004 80.4 53.3004 80.3C53.2004 80.3 53.1004 80.2 53.0004 80.2C52.9004 80.2 52.9004 80.1 52.8004 80.1C52.4004 80 52.0004 79.8 51.6004 79.7C51.5004 79.7 51.4004 79.6 51.3004 79.6C50.8004 79.4 50.4004 79.2 49.9004 79C49.8004 78.9 49.7004 78.9 49.5004 78.8C49.1004 78.6 48.8004 78.5 48.4004 78.3C48.3004 78.2 48.1004 78.2 48.0004 78.1C47.6004 77.9 47.1004 77.6 46.7004 77.4C46.6004 77.3 46.5004 77.3 46.4004 77.2C46.3004 77.1 46.2004 77.1 46.1004 77C45.9004 76.9 45.8004 76.8 45.6004 76.7C45.4004 76.6 45.3004 76.5 45.1004 76.4C44.9004 76.3 44.8004 76.2 44.6004 76.1C44.5004 76 44.3004 75.9 44.2004 75.8C44.1004 75.7 43.9004 75.6 43.8004 75.5C43.7004 75.4 43.5004 75.3 43.4004 75.2C43.3004 75.1 43.1004 75 43.0004 74.8C42.9004 74.8 42.9004 74.7 42.8004 74.7C42.7004 74.7 42.7004 74.6 42.7004 74.6C42.5004 74.4 42.3004 74.2 42.1004 74C42.0004 73.9 42.0004 73.9 41.9004 73.8C41.6004 73.5 41.4004 73.2 41.2004 72.9C41.1004 72.8 41.1004 72.8 41.1004 72.7C41.0004 72.5 40.8004 72.3 40.7004 72.2C40.6004 72.1 40.6004 72 40.5004 71.9C40.4004 71.7 40.3004 71.6 40.2004 71.4L40.1004 71.3C40.1004 71.2 40.0004 71.2 40.0004 71.1C39.9004 71 39.9004 70.8 39.8004 70.7C40.1004 70.1 40.0004 70 40.0004 69.9C39.9004 69.8 39.9004 69.6 39.8004 69.5C39.8004 69.4 39.7004 69.4 39.7004 69.3C39.7004 69.2 39.7004 69.2 39.6004 69.1C39.6004 69 39.5004 68.8 39.5004 68.7C39.5004 68.6 39.4004 68.5 39.4004 68.3C39.4004 68.2 39.3004 68 39.3004 67.9C39.3004 67.8 39.3004 67.8 39.2004 67.7C39.2004 67.6 39.2004 67.6 39.2004 67.5C39.2004 67.4 39.2004 67.2 39.1004 67.1C39.1004 67 39.1004 66.9 39.1004 66.7C39.1004 66.6 39.1004 66.4 39.1004 66.3C39.1004 66.2 39.1004 66.1 39.1004 66C39.1004 65.9 39.1004 65.8 39.1004 65.8L39.0004 19.3C38.9004 19.4 38.9004 19.6 38.9004 19.8Z" fill="#EBFDF8" stroke="#171A21" stroke-width="2" stroke-miterlimit="10" stroke-linecap="round" stroke-linejoin="round"/>
<path d="M47.3 7.60005C36.2 14 36.1 24.4 47.1 30.8C58.1 37.2001 76 37.2001 87.1 30.8C98.2 24.4 98.3 14 87.2 7.60005C76.1 1.20005 58.3 1.20005 47.3 7.60005Z" fill="white" stroke="#171A21" stroke-width="2" stroke-miterlimit="10" stroke-linecap="round" stroke-linejoin="round"/>
<path d="M51.7008 10.2C43.1008 14.7 43.1008 22.1 51.6008 26.7C60.1008 31.3 74.0008 31.2 82.6008 26.7C91.2008 22.2 91.2008 14.8 82.7008 10.2C74.2008 5.59996 60.3008 5.69996 51.7008 10.2Z" fill="#9AF4DC"/>
<path d="M101.9 61.3C102 51.5 97.1 44.4 88.8 39.4C88.3 39.1 87.7 39.1 87.2 39.4L86.7 39.7C86.2 40 85.1 41.8 85.1 42.5V45.1C85.1 45.7 85.4 46.2 85.9 46.5C88.1 47.8 90.2 49.3 91.5 51C92 51.7 93.6 53.9 93.6 59.5C93.6 61.7 93.3 63.1 93 63.9C91.6 63.7 90 62.8 88.8 62.1C88.3 61.8 87.7 61.8 87.2 62.1L86.8 62.3C85.9 62.7 85 65 85 65.7V68.4C85 69 85.3 69.5001 85.8 69.8001C89.2 71.7001 92 72.5 94.4 72.4C98.6 72.1 101.9 66.4 101.9 61.3Z" fill="#9AF4DC"/>
<path d="M61.8008 42.4001L54.3008 54.8001L56.7008 65.5001L56.4008 71.9001L60.8008 80.5001L63.1008 76.5001L61.7008 69.0001L65.9008 60.5001L69.4008 59.8001" stroke="#171A21" stroke-width="2" stroke-miterlimit="10" stroke-linecap="round" stroke-linejoin="round"/>
<path d="M51.7002 45.2L50.7002 49.7L54.3002 54.7999" stroke="#171A21" stroke-width="2" stroke-miterlimit="10" stroke-linecap="round" stroke-linejoin="round"/>
<path d="M80.6998 51.8C80.6998 51.9 80.6998 52.1 80.6998 52.2C80.6998 52.3 80.6998 52.4 80.6998 52.6C80.6998 52.7 80.6998 52.9 80.7998 53C80.7998 53.1 80.8998 53.2 80.8998 53.4C80.8998 53.5 80.9998 53.7 80.9998 53.8C80.9998 53.9 81.0998 54 81.0998 54.2C81.0998 54.3 81.1998 54.5 81.1998 54.6C81.1998 54.7 81.2998 54.8 81.2998 55C81.3998 55.1 81.3998 55.3 81.4998 55.4C81.5998 55.5 81.5998 55.6 81.6998 55.8C81.7998 55.9 81.7998 56.1 81.8998 56.2C81.9998 56.3 81.9998 56.4 82.0998 56.5C82.1998 56.7 82.2998 56.8 82.3998 57C82.4998 57.1 82.4998 57.2 82.5998 57.3C82.6998 57.5 82.8998 57.7 82.9998 57.8C83.0998 57.9 83.0998 58 83.1998 58C83.3998 58.3 83.6998 58.6 83.8998 58.9C83.9998 59 83.9998 59 84.0998 59.1C84.2998 59.3 84.4998 59.5 84.6998 59.7C84.7998 59.8 84.8998 59.9 84.9998 60C85.0998 60.1 85.2998 60.2 85.3998 60.4C85.4998 60.5 85.6998 60.6 85.7998 60.7C85.8998 60.8 86.0998 60.9 86.1998 61C86.2998 61.1 86.4998 61.2 86.5998 61.3C86.7998 61.4 86.8998 61.5 87.0998 61.6C87.1998 61.7 87.3998 61.8 87.4998 61.9C87.6998 62 87.7998 62.1 87.9998 62.2C88.1998 62.3 88.3998 62.5 88.6998 62.6C89.0998 62.8 89.5998 63.1 89.9998 63.3C90.0998 63.4 90.2998 63.4 90.3998 63.5C90.6998 63.7 91.0998 63.8 91.3998 64C91.4998 64.1 91.5998 64.1 91.7998 64.2C92.2998 64.4 92.6998 64.6 93.1998 64.8C93.2998 64.8 93.3998 64.9 93.4998 64.9C93.8998 65.1 94.2998 65.2 94.6998 65.3C94.8998 65.4 94.9998 65.4 95.1998 65.5C95.3998 65.6 95.6998 65.6 95.8998 65.7C96.0998 65.8 96.2998 65.8 96.4998 65.9C96.6998 66 96.9998 66 97.1998 66.1C97.3998 66.2 97.5998 66.2 97.7998 66.2C97.9998 66.3 98.2998 66.3 98.4998 66.4C98.6998 66.4 98.8998 66.5 99.0998 66.5C99.2998 66.6 99.5998 66.6 99.7998 66.6C99.9998 66.6 100.2 66.7 100.4 66.7C100.9 66.8 101.5 66.9 102 67C102.1 67 102.2 67 102.2 67C102.7 67.1 103.1 67.1 103.6 67.2C103.8 67.2 104 67.2 104.1 67.3C104.4 67.3 104.7 67.4 105 67.4C105.2 67.4 105.4 67.4 105.6 67.4C105.9 67.4 106.2 67.4 106.6 67.4C106.8 67.4 107 67.4 107.1 67.4C107.4 67.4 107.7 67.4 107.9 67.4C108.1 67.4 108.3 67.4 108.5 67.4C108.8 67.4 109.1 67.4 109.4 67.4C109.6 67.4 109.7 67.4 109.9 67.4C110.2 67.4 110.4 67.4 110.7 67.4C110.9 67.4 111.1 67.4 111.3 67.4C111.6 67.4 111.9 67.4 112.2 67.3C112.4 67.3 112.5 67.3 112.7 67.3C113.1 67.3 113.4 67.2 113.8 67.2C113.9 67.2 114 67.2 114.1 67.2C114.6 67.1 115 67.1 115.5 67C115.6 67 115.6 67 115.7 67C116.1 66.9 116.5 66.9 116.9 66.8C117.1 66.8 117.2 66.7 117.4 66.7C117.7 66.6 118 66.6 118.3 66.5C118.5 66.5 118.6 66.4 118.8 66.4C119.1 66.3 119.4 66.3 119.7 66.2C119.9 66.2 120.1 66.1 120.2 66.1C120.5 66 120.8 66 121.1 65.9C121.3 65.9 121.4 65.8 121.6 65.8C122.1 65.7 122.5 65.5 122.9 65.4C123 65.4 123.1 65.4 123.1 65.3C123.6 65.1 124.1 64.9 124.6 64.8C124.8 64.7 125 64.6 125.2 64.6C125.4 64.5 125.5 64.5 125.7 64.4C125.9 64.3 126.1 64.2 126.4 64.1C126.5 64 126.7 64 126.8 63.9C127 63.8 127.3 63.7 127.5 63.5C127.6 63.4 127.7 63.4 127.8 63.3C128.1 63.1 128.5 62.9 128.8 62.7C131.2 61.3 133.1 59.7 134.5 58C134.9 57.5 135.2 57 135.5 56.5C135.7 56.2 135.8 56 135.9 55.7C136.7 54.2 137.1 52.6 137.1 51L137.2 97.5C137.2 101.7 134.4 105.9 128.9 109.2C128.6 109.4 128.2 109.6 127.9 109.8C127.8 109.9 127.7 109.9 127.6 110C127.4 110.1 127.1 110.2 126.9 110.4C126.8 110.5 126.6 110.5 126.5 110.6C126.3 110.7 126.1 110.8 125.8 110.9C125.6 111 125.5 111 125.3 111.1C125.1 111.2 125 111.2 124.8 111.3C124.8 111.3 124.7 111.3 124.7 111.4C124.2 111.6 123.7 111.8 123.2 111.9C123.1 111.9 123 111.9 123 112C122.6 112.1 122.1 112.3 121.7 112.4C121.6 112.4 121.6 112.4 121.5 112.5C121.4 112.5 121.3 112.5 121.2 112.6C120.9 112.7 120.6 112.8 120.3 112.8C120.1 112.8 120 112.9 119.8 112.9C119.5 113 119.2 113 118.8 113.1C118.7 113.1 118.6 113.2 118.4 113.2H118.3C118 113.3 117.7 113.3 117.4 113.4C117.2 113.4 117.1 113.5 116.9 113.5C116.5 113.6 116.1 113.6 115.7 113.7C115.6 113.7 115.6 113.7 115.5 113.7C115.1 113.8 114.6 113.8 114.1 113.9C114 113.9 113.9 113.9 113.8 113.9C113.4 113.9 113.1 114 112.7 114C112.5 114 112.4 114 112.2 114C111.9 114 111.6 114 111.3 114.1C111.1 114.1 110.9 114.1 110.7 114.1C110.4 114.1 110.2 114.1 109.9 114.1C109.9 114.1 109.9 114.1 109.8 114.1C109.6 114.1 109.5 114.1 109.3 114.1C109 114.1 108.7 114.1 108.4 114.1C108.2 114.1 108 114.1 107.8 114.1C107.5 114.1 107.3 114.1 107 114.1C106.9 114.1 106.9 114.1 106.8 114.1C106.7 114.1 106.5 114.1 106.4 114.1C106.1 114.1 105.8 114.1 105.4 114.1C105.2 114.1 105 114.1 104.8 114.1C104.5 114.1 104.2 114.1 103.9 114C103.8 114 103.7 114 103.6 114C103.5 114 103.5 114 103.4 114C102.9 114 102.5 113.9 102 113.8C101.9 113.8 101.8 113.8 101.8 113.8C101.3 113.7 100.7 113.6 100.2 113.5C100.2 113.5 100.1 113.5 99.9998 113.5C99.8998 113.5 99.6998 113.4 99.5998 113.4C99.3998 113.4 99.0998 113.3 98.8998 113.3C98.6998 113.3 98.4998 113.2 98.2998 113.2C98.0998 113.1 97.7998 113.1 97.5998 113C97.3998 113 97.1998 112.9 96.9998 112.9C96.7998 112.8 96.4998 112.8 96.2998 112.7C96.0998 112.6 95.8998 112.6 95.6998 112.5C95.4998 112.4 95.1998 112.4 94.9998 112.3C94.8998 112.3 94.7998 112.2 94.6998 112.2C94.5998 112.2 94.5998 112.1 94.4998 112.1C94.0998 112 93.6998 111.8 93.2998 111.7C93.1998 111.7 93.0998 111.6 92.9998 111.6C92.4998 111.4 92.0998 111.2 91.5998 111C91.4998 110.9 91.3998 110.9 91.1998 110.8C90.7998 110.6 90.4998 110.5 90.0998 110.3C89.9998 110.2 89.7998 110.2 89.6998 110.1C89.2998 109.9 88.7998 109.6 88.3998 109.4C88.2998 109.3 88.1998 109.3 88.0998 109.2C87.9998 109.1 87.8998 109.1 87.7998 109C87.5998 108.9 87.4998 108.8 87.2998 108.7C87.0998 108.6 86.9998 108.5 86.7998 108.4C86.5998 108.3 86.4998 108.2 86.2998 108.1C86.1998 108 85.9998 107.9 85.8998 107.8C85.7998 107.7 85.5998 107.6 85.4998 107.5C85.3998 107.4 85.1998 107.3 85.0998 107.2C84.9998 107.1 84.7998 107 84.6998 106.8C84.5998 106.8 84.5998 106.7 84.4998 106.7C84.3998 106.7 84.3998 106.6 84.3998 106.6C84.1998 106.4 83.9998 106.2 83.7998 106C83.6998 105.9 83.6998 105.9 83.5998 105.8C83.2998 105.5 83.0998 105.2 82.8998 104.9C82.7998 104.8 82.7998 104.8 82.7998 104.7C82.6998 104.5 82.4998 104.3 82.3998 104.2C82.2998 104.1 82.2998 104 82.1998 103.9C82.0998 103.7 81.9998 103.6 81.8998 103.4L81.7998 103.3C81.7998 103.2 81.6998 103.2 81.6998 103.1C81.5998 103 81.5998 102.8 81.4998 102.7C81.3998 102.6 81.3998 102.5 81.2998 102.3C81.1998 102.2 81.1998 102 81.0998 101.9C81.0998 101.8 80.9998 101.8 80.9998 101.7C80.9998 101.6 80.9998 101.6 80.8998 101.5C80.8998 101.4 80.7998 101.2 80.7998 101.1C80.7998 101 80.6998 100.9 80.6998 100.7C80.6998 100.6 80.5998 100.4 80.5998 100.3C80.5998 100.2 80.5998 100.2 80.4998 100.1C80.4998 100 80.4998 100 80.4998 99.9C80.4998 99.8 80.4998 99.6 80.3998 99.5C80.3998 99.4 80.3998 99.3 80.3998 99.1C80.3998 99 80.3998 98.8 80.3998 98.7C80.3998 98.6 80.3998 98.5 80.3998 98.4C80.3998 98.3 80.3998 98.2 80.3998 98.2L80.2998 51.7C80.6998 51.5 80.6998 51.6 80.6998 51.8Z" fill="#EBFDF8" stroke="#171A21" stroke-width="2" stroke-miterlimit="10" stroke-linecap="round" stroke-linejoin="round"/>
<path d="M88.9997 39.6C77.8997 46 77.8997 56.4 88.8997 62.8C99.8997 69.2001 117.8 69.2001 128.9 62.8C140 56.4 140 46 129 39.6C118 33.2 100.1 33.2 88.9997 39.6Z" fill="white" stroke="#171A21" stroke-width="2" stroke-miterlimit="10" stroke-linecap="round" stroke-linejoin="round"/>
<path d="M93.4997 42.3001C84.8997 46.8001 84.8997 54.2001 93.3997 58.8001C101.9 63.4001 115.8 63.3001 124.4 58.8001C133 54.3001 133 46.9001 124.5 42.3001C116 37.7001 102.1 37.7001 93.4997 42.3001Z" fill="#9AF4DC"/>
<path d="M143.6 93.3001C143.7 83.5001 138.8 76.4 130.5 71.4C130 71.1 129.4 71.1 128.9 71.4L128.4 71.7C127.9 72 126.8 73.8 126.8 74.5V77.1C126.8 77.7 127.1 78.2 127.6 78.5C129.8 79.8 131.9 81.3 133.2 83C133.7 83.7 135.3 85.9 135.3 91.5C135.3 93.7 135 95.1 134.7 95.9C133.3 95.7 131.7 94.8 130.5 94.1C130 93.8 129.4 93.8 128.9 94.1L128.5 94.3001C127.7 94.7001 126.8 97.1 126.8 97.8001V100.5C126.8 101.1 127.1 101.6 127.6 101.9C131 103.8 133.8 104.6 136.2 104.5C140.4 104.2 143.6 98.4001 143.6 93.3001Z" fill="#9AF4DC"/>
<path d="M38.4996 125.1L64.6996 140.4C65.9996 141.1 67.4996 141.1 68.7996 140.4L95.1996 125.1C95.8996 124.7 95.8996 123.7 95.1996 123.3L68.9996 108.1C67.6996 107.4 66.1996 107.4 64.8996 108.1L38.4996 123.4C37.7996 123.8 37.7996 124.7 38.4996 125.1Z" fill="#9AF4DC"/>
<path d="M85.8002 124.1C85.1002 123.7 84.2002 123.5 83.1002 123.5H62.7002C62.2002 123.5 61.7002 123.4 61.4002 123.2C61.1002 123 60.9002 122.7 60.9002 122.5L60.8002 119.3C60.8002 118.7 60.4002 118.2 59.7002 117.8C59.0002 117.4 58.1002 117.2 57.0002 117.2C54.9002 117.2 53.2002 118.2 53.2002 119.4L53.3002 125.9C53.3002 126.5 53.7002 127.1 54.4002 127.4C55.1002 127.8 56.0002 128 57.1002 128H83.1002C85.2002 128 86.9002 127 86.9002 125.8C86.9002 125 86.4002 124.5 85.8002 124.1Z" fill="white"/>
<path d="M0.9 101.8L27.1 117.1C28.4 117.8 29.9 117.8 31.2 117.1L57.6 101.8C58.3 101.4 58.3 100.4 57.6 99.9999L31.4 84.7999C30.1 84.0999 28.6 84.0999 27.3 84.7999L0.9 100.1C0.2 100.5 0.2 101.5 0.9 101.8Z" fill="#9AF4DC"/>
<path d="M39.5002 99.4999C38.8002 99.0999 37.9002 98.8999 37.0002 98.8999H32.0002V95.9999C32.0002 95.3999 31.6002 94.8999 30.9002 94.4999C30.2002 94.0999 29.3002 93.8999 28.4002 93.8999C26.4002 93.8999 24.8002 94.7999 24.8002 95.9999V98.8999H19.8002C17.8002 98.8999 16.2002 99.7999 16.2002 101C16.2002 101.6 16.6002 102.1 17.3002 102.5C18.0002 102.9 18.9002 103.1 19.8002 103.1H24.8002V106C24.8002 106.6 25.2002 107.1 25.9002 107.5C26.6002 107.9 27.5002 108.1 28.4002 108.1C30.4002 108.1 32.0002 107.2 32.0002 106V103.1H37.0002C39.0002 103.1 40.6002 102.2 40.6002 101C40.6002 100.4 40.2002 99.8999 39.5002 99.4999Z" fill="white"/>
</svg>
