<svg width="144" height="145" viewBox="0 0 144 145" fill="none" xmlns="http://www.w3.org/2000/svg">
<path d="M29.0998 37.1995L48.7998 25.7995C49.2998 25.4995 49.8998 25.8995 49.8998 26.4995L49.9998 46.3995C49.9998 47.4995 49.3998 48.4995 48.4998 49.0995L29.0998 60.2995C28.1998 60.7995 26.9998 60.7995 25.9998 60.2995L6.8998 49.0995C5.9998 48.5995 5.3998 47.5995 5.3998 46.4995L5.2998 26.4995C5.2998 25.8995 5.8998 25.4995 6.3998 25.7995L25.9998 37.1995C26.8998 37.7995 28.0998 37.7995 29.0998 37.1995Z" fill="#9AF4DC"/>
<path d="M6.39844 25.7996L25.9984 37.1996C26.8984 37.6996 28.0984 37.7996 29.0984 37.1996L48.7984 25.7996C49.2984 25.4996 49.2984 24.7996 48.7984 24.4996L29.1984 13.0996C28.2984 12.5996 27.0984 12.4996 26.0984 13.0996L6.39844 24.4996C5.89844 24.7996 5.89844 25.5996 6.39844 25.7996Z" fill="#EBFDF8"/>
<path d="M5.2998 26.9996C5.2998 25.8996 5.8998 24.8996 6.7998 24.2996L26.0998 13.0996C26.9998 12.5996 28.1998 12.5996 29.1998 13.0996L48.3998 24.2996C49.2998 24.7996 49.8998 25.7996 49.8998 26.8996" stroke="#171A21" stroke-width="2" stroke-miterlimit="10" stroke-linecap="round" stroke-linejoin="round"/>
<path d="M38 43.9998L86.6 88.6997" stroke="#171A21" stroke-width="2" stroke-miterlimit="10" stroke-linecap="round" stroke-linejoin="round"/>
<path d="M87.4006 93.9999C87.3006 93.4999 87.3006 92.8999 87.2006 92.3999C87.1006 91.7999 87.0006 91.1999 86.9006 90.5999C86.8006 90.1999 86.7006 89.7999 86.7006 89.2999C86.6006 88.8999 86.5006 88.4999 86.4006 88.0999C86.3006 87.5999 86.1006 86.9999 86.0006 86.4999C85.9006 86.1999 85.8006 85.8999 85.7006 85.4999C85.5006 84.8999 85.3006 84.2999 85.1006 83.6999C85.0006 83.3999 84.9006 83.1999 84.8006 82.8999C84.5006 82.0999 84.1006 81.1999 83.8006 80.3999C83.8006 80.2999 83.7006 80.1999 83.7006 80.0999C83.4006 79.2999 83.0006 78.5999 82.6006 77.8999C82.5006 77.6999 82.4006 77.3999 82.2006 77.1999C81.8006 76.4999 81.5006 75.7999 81.1006 75.0999C81.0006 74.9999 80.9006 74.7999 80.9006 74.6999C80.4006 73.8999 80.0006 73.0999 79.5006 72.2999C79.4006 72.0999 79.2006 71.8999 79.1006 71.5999C78.7006 70.9999 78.3006 70.4999 78.0006 69.9999C77.8006 69.6999 77.6006 69.3999 77.4006 69.0999C77.1006 68.6999 76.7006 68.1999 76.4006 67.7999C76.1006 67.3999 75.8006 67.0999 75.5006 66.6999C75.2006 66.3999 74.9006 65.9999 74.6006 65.6999C74.1006 65.0999 73.6006 64.5999 73.1006 64.0999C72.8006 63.7999 72.5006 63.3999 72.1006 63.0999C71.8006 62.8999 71.6006 62.5999 71.3006 62.3999C70.9006 61.9999 70.4006 61.5999 70.0006 61.2999C69.7006 61.0999 69.5006 60.8999 69.2006 60.6999C68.7006 60.2999 68.2006 59.9999 67.8006 59.5999C67.6006 59.3999 67.3006 59.2999 67.1006 59.0999C66.4006 58.5999 65.7006 58.0999 64.9006 57.6999C64.2006 57.2999 63.5006 56.8999 62.8006 56.5999C62.6006 56.4999 62.4006 56.3999 62.3006 56.3999C61.6006 56.0999 61.0006 55.7999 60.3006 55.5999H60.2006C59.6006 55.3999 59.1006 55.2999 58.5006 55.0999C58.2006 54.9999 57.9006 54.9999 57.6006 54.8999C57.2006 54.7999 56.8006 54.7999 56.4006 54.6999C56.2006 54.6999 55.9006 54.5999 55.7006 54.5999C55.2006 54.5999 54.7006 54.5999 54.2006 54.5999C54.1006 54.5999 54.0006 54.5999 53.9006 54.5999C53.3006 54.5999 52.8006 54.6999 52.2006 54.7999C52.1006 54.7999 51.9006 54.8999 51.8006 54.8999C51.4006 54.9999 50.9006 55.0999 50.5006 55.2999C50.4006 55.2999 50.2006 55.3999 50.1006 55.3999C49.6006 55.5999 49.1006 55.7999 48.6006 56.0999L67.0006 45.2999C67.0006 45.2999 67.1006 45.2999 67.1006 45.1999C67.5006 44.9999 67.9006 44.7999 68.3006 44.5999C68.4006 44.5999 68.5006 44.4999 68.5006 44.4999C68.6006 44.3999 68.8006 44.3999 68.9006 44.3999C69.1006 44.2999 69.3006 44.1999 69.5006 44.1999C69.7006 44.0999 69.9006 44.0999 70.2006 43.9999C70.3006 43.9999 70.5006 43.8999 70.6006 43.8999C70.7006 43.8999 70.7006 43.8999 70.8006 43.7999C71.3006 43.6999 71.7006 43.6999 72.2006 43.5999H72.3006C72.4006 43.5999 72.5006 43.5999 72.6006 43.5999C73.0006 43.5999 73.3006 43.5999 73.7006 43.5999C73.8006 43.5999 74.0006 43.5999 74.1006 43.5999C74.3006 43.5999 74.6006 43.5999 74.8006 43.6999C75.0006 43.6999 75.2006 43.6999 75.4006 43.7999C75.6006 43.7999 75.8006 43.8999 76.0006 43.8999C76.3006 43.9999 76.6006 43.9999 76.9006 44.0999C77.1006 44.0999 77.2006 44.1999 77.4006 44.1999C77.8006 44.2999 78.2006 44.3999 78.6006 44.5999H78.7006C79.2006 44.7999 79.6006 44.8999 80.1006 45.0999C80.3006 45.1999 80.5006 45.2999 80.7006 45.3999C80.9006 45.4999 81.1006 45.5999 81.2006 45.5999C81.9006 45.8999 82.6006 46.2999 83.3006 46.6999C84.0006 47.0999 84.8006 47.5999 85.5006 48.0999C85.7006 48.2999 86.0006 48.3999 86.2006 48.5999C86.7006 48.9999 87.2006 49.2999 87.6006 49.6999C87.9006 49.8999 88.1006 50.0999 88.4006 50.2999C88.8006 50.6999 89.3006 50.9999 89.7006 51.3999C90.0006 51.5999 90.2006 51.8999 90.5006 52.0999C90.7006 52.2999 90.8006 52.3999 91.0006 52.4999C91.2006 52.6999 91.3006 52.8999 91.5006 52.9999C92.0006 53.4999 92.5006 54.0999 93.0006 54.5999C93.2006 54.7999 93.3006 54.8999 93.5006 55.0999C93.6006 55.2999 93.8006 55.3999 93.9006 55.5999C94.2006 55.9999 94.5006 56.2999 94.8006 56.6999C95.0006 56.8999 95.2006 57.1999 95.4006 57.3999C95.6006 57.5999 95.7006 57.7999 95.9006 57.9999C96.1006 58.2999 96.3006 58.5999 96.5006 58.8999C96.6006 59.0999 96.8006 59.2999 96.9006 59.4999C97.1006 59.7999 97.4006 60.1999 97.6006 60.5999C97.7006 60.7999 97.9006 60.9999 98.0006 61.2999C98.1006 61.3999 98.1006 61.4999 98.2006 61.5999C98.6006 62.1999 99.0006 62.8999 99.4006 63.4999C99.4006 63.4999 99.4006 63.5999 99.5006 63.5999C99.6006 63.6999 99.7006 63.8999 99.7006 63.9999C100.001 64.4999 100.201 64.8999 100.501 65.3999C100.601 65.5999 100.701 65.7999 100.801 66.0999C100.901 66.2999 101.001 66.5999 101.201 66.7999C101.301 66.9999 101.401 67.1999 101.501 67.3999C101.801 67.8999 102.001 68.4999 102.301 68.9999C102.301 69.0999 102.401 69.1999 102.401 69.2999V69.3999C102.701 70.0999 103.001 70.7999 103.201 71.4999C103.201 71.5999 103.301 71.7999 103.301 71.8999C103.401 72.1999 103.501 72.3999 103.601 72.6999C103.701 72.9999 103.901 73.3999 104.001 73.6999C104.101 73.9999 104.201 74.1999 104.201 74.4999C104.301 74.7999 104.401 75.0999 104.501 75.4999C104.601 75.6999 104.601 75.8999 104.701 76.0999C104.801 76.4999 104.901 76.7999 105.001 77.1999C105.101 77.5999 105.201 77.9999 105.301 78.3999C105.301 78.4999 105.401 78.6999 105.401 78.7999C105.501 79.0999 105.501 79.3999 105.501 79.5999C105.601 80.1999 105.701 80.7999 105.801 81.3999C105.801 81.5999 105.901 81.6999 105.901 81.8999C105.901 82.2999 106.001 82.6999 106.001 82.9999C106.001 83.2999 106.101 83.4999 106.101 83.7999C106.201 84.6999 106.201 85.4999 106.201 86.2999C106.201 93.4999 103.601 98.5998 99.5006 101L80.8006 111.8C84.9006 109.4 87.5006 104.3 87.5006 97.0999C87.5006 96.2999 87.5006 95.3999 87.4006 94.5999C87.5006 94.5999 87.4006 94.2999 87.4006 93.9999Z" fill="#9AF4DC"/>
<path d="M64.7002 57.6998C52.0002 50.3998 41.7002 56.2998 41.7002 70.7998C41.7002 85.3998 51.9002 103.1 64.6002 110.5C77.3002 117.8 87.6002 111.9 87.6002 97.3998C87.6002 82.7998 77.4002 65.0998 64.7002 57.6998Z" fill="white"/>
<path d="M53.9002 54.5999C46.7002 54.7999 41.7002 60.7999 41.7002 70.8999C41.7002 85.4999 51.9002 103.2 64.6002 110.6C74.5002 116.3 83.0002 114 86.2002 105.7" stroke="#171A21" stroke-width="2" stroke-miterlimit="10" stroke-linecap="round" stroke-linejoin="round"/>
<path d="M95.5 95.2998L132.7 129.4" stroke="#171A21" stroke-width="2" stroke-miterlimit="10" stroke-linecap="round" stroke-linejoin="round"/>
<path d="M77.2998 57.8998L94.9998 28.2998" stroke="#171A21" stroke-width="2" stroke-miterlimit="10" stroke-linecap="round" stroke-linejoin="round"/>
<path d="M117.5 120.699L137.2 109.299C137.7 108.999 138.3 109.399 138.3 109.999L138.4 129.899C138.4 130.999 137.8 131.999 136.9 132.599L117.6 143.799C116.7 144.299 115.5 144.299 114.5 143.799L95.3002 132.599C94.4002 132.099 93.8002 131.099 93.8002 129.999L93.7002 110.099C93.7002 109.499 94.3002 109.099 94.8002 109.399L114.4 120.799C115.4 121.299 116.6 121.299 117.5 120.699Z" fill="#9AF4DC"/>
<path d="M94.9004 109.299L114.5 120.699C115.4 121.199 116.6 121.299 117.6 120.699L137.3 109.299C137.8 108.999 137.8 108.299 137.3 107.999L117.7 96.5994C116.8 96.0994 115.6 95.9994 114.6 96.5994L94.9004 107.999C94.4004 108.299 94.4004 108.999 94.9004 109.299Z" fill="#EBFDF8"/>
<path d="M93.7002 110.4C93.7002 109.3 94.3002 108.3 95.2002 107.7L114.5 96.4995C115.4 95.9995 116.6 95.9995 117.6 96.4995L136.8 107.7C137.7 108.2 138.3 109.2 138.3 110.3" stroke="#171A21" stroke-width="2" stroke-miterlimit="10" stroke-linecap="round" stroke-linejoin="round"/>
<path d="M99.5998 26.2996L119.3 14.8996C119.8 14.5996 120.4 14.9996 120.4 15.5996L120.5 35.4996C120.5 36.5996 119.9 37.5996 119 38.1996L99.6998 49.2996C98.7998 49.7996 97.5998 49.7996 96.5998 49.2996L77.3998 38.1996C76.4998 37.6996 75.8998 36.6996 75.8998 35.5996L75.7998 15.6996C75.7998 15.0996 76.3998 14.6996 76.8998 14.9996L96.4998 26.3996C97.4998 26.7996 98.6998 26.7996 99.5998 26.2996Z" fill="#9AF4DC"/>
<path d="M77 14.8997L96.6 26.2997C97.5 26.7997 98.7 26.8997 99.7 26.2997L119.4 14.8997C119.9 14.5997 119.9 13.8997 119.4 13.5997L99.8 2.19973C98.9 1.69973 97.7 1.59973 96.7 2.19973L77 13.5997C76.5 13.8997 76.5 14.5997 77 14.8997Z" fill="#EBFDF8"/>
<path d="M75.7998 15.9997C75.7998 14.8997 76.3998 13.8997 77.2998 13.2997L96.6998 2.19971C97.5998 1.69971 98.7998 1.69971 99.7998 2.19971L119 13.3997C119.9 13.8997 120.5 14.8997 120.5 15.9997" stroke="#171A21" stroke-width="2" stroke-miterlimit="10" stroke-linecap="round" stroke-linejoin="round"/>
<path d="M77.7996 95.5998C78.2996 96.2998 78.3996 97.1998 78.0996 97.6998L75.2996 101.6C75.0996 101.9 74.5996 102 74.1996 101.7C73.9996 101.6 73.8996 101.5 73.6996 101.3L70.5996 97.9998C69.9996 98.0998 69.3996 98.1998 68.6996 98.1998L68.1996 101.7C68.0996 102.4 67.5996 102.6 66.8996 102.2L61.3996 98.9998C60.7996 98.5998 60.1996 97.7998 60.0996 96.9998L59.5996 92.8998C58.8996 92.1998 58.2996 91.3998 57.6996 90.5998L54.5996 90.1998C54.3996 90.1998 54.2996 90.0998 54.0996 89.9998C53.5996 89.6998 53.1996 89.1998 52.9996 88.5998L50.2996 81.4998C49.9996 80.6998 50.0996 79.8998 50.5996 79.7998L53.2996 78.9998C53.1996 78.0998 53.1996 77.2998 53.2996 76.4998L50.6996 72.5998C50.1996 71.8998 50.0996 70.9998 50.3996 70.4998L53.1996 66.5998C53.3996 66.2998 53.8996 66.1998 54.2996 66.4998C54.4996 66.5998 54.5996 66.6998 54.7996 66.8998L57.8996 70.1998C58.4996 70.0998 59.0996 69.9998 59.7996 69.9998L60.2996 66.4998C60.3996 65.7998 60.8996 65.5998 61.5996 65.9998L67.0996 69.1998C67.6996 69.5998 68.2996 70.3998 68.3996 71.1998L68.8996 75.2998C69.5996 75.9998 70.1996 76.7998 70.7996 77.5998L73.8996 77.9998C74.0996 77.9998 74.1996 78.0998 74.3996 78.1998C74.8996 78.4998 75.2996 78.9998 75.4996 79.5998L78.1996 86.6998C78.4996 87.4998 78.3996 88.1998 77.8996 88.3998L75.1996 89.2998C75.2996 90.1998 75.2996 90.9998 75.1996 91.7998L77.7996 95.5998ZM64.2996 90.9998C67.5996 92.8998 70.2996 91.3998 70.2996 87.5998C70.2996 83.7998 67.5996 79.0998 64.2996 77.1998C60.9996 75.2998 58.2996 76.7998 58.2996 80.5998C58.2996 84.4998 60.8996 89.0998 64.2996 90.9998Z" fill="#9AF4DC"/>
<path d="M31.5998 106.8C26.6998 109.6 24.2998 113.3 24.2998 117V105.8C24.2998 102.1 26.6998 98.3996 31.5998 95.5996C31.9998 95.2996 32.2998 94.9996 32.2998 94.6996V94.5996V105.8C32.3998 106.1 32.0998 106.5 31.5998 106.8Z" fill="#9AF4DC"/>
<path d="M10.7002 105.899C10.7002 106.099 10.7002 106.399 10.7002 106.599C10.7002 106.799 10.7002 106.999 10.7002 107.199C10.7002 107.399 10.7002 107.499 10.8002 107.699C10.8002 107.899 10.9002 108.099 10.9002 108.299C10.9002 108.499 11.0002 108.599 11.0002 108.799C11.0002 108.999 11.1002 109.199 11.1002 109.399C11.1002 109.599 11.2002 109.699 11.3002 109.899C11.4002 110.099 11.4002 110.299 11.5002 110.399C11.6002 110.599 11.6002 110.699 11.7002 110.899C11.8002 111.099 11.9002 111.299 11.9002 111.499C12.0002 111.699 12.1002 111.799 12.1002 111.999C12.2002 112.199 12.3002 112.399 12.4002 112.599C12.5002 112.799 12.6002 112.999 12.8002 113.299C12.8002 113.299 12.8002 113.399 12.9002 113.399C13.1002 113.699 13.3002 113.999 13.5002 114.299C13.5002 114.399 13.6002 114.399 13.6002 114.499C13.8002 114.799 14.0002 115.099 14.2002 115.299C14.3002 115.399 14.3002 115.399 14.4002 115.499C14.6002 115.699 14.8002 115.999 15.0002 116.199C15.1002 116.299 15.1002 116.299 15.2002 116.399C15.5002 116.699 15.7002 116.999 16.0002 117.199C16.1002 117.299 16.1002 117.299 16.2002 117.399C16.4002 117.599 16.6002 117.799 16.8002 117.999C17.0002 118.199 17.2002 118.299 17.4002 118.499C17.6002 118.599 17.7002 118.799 17.9002 118.899C18.1002 119.099 18.3002 119.199 18.5002 119.399C18.7002 119.499 18.9002 119.699 19.1002 119.799C19.3002 119.999 19.5002 120.099 19.8002 120.299C20.0002 120.399 20.2002 120.599 20.4002 120.699C20.6002 120.899 20.9002 120.999 21.1002 121.199C21.4002 121.399 21.7002 121.599 22.0002 121.699C22.3002 121.899 22.6002 122.099 23.0002 122.199C23.1002 122.299 23.2002 122.299 23.3002 122.399C23.5002 122.499 23.7002 122.599 24.0002 122.699C24.1002 122.799 24.3002 122.799 24.4002 122.899C24.6002 122.999 24.8002 123.099 25.0002 123.199C25.1002 123.299 25.3002 123.299 25.4002 123.399C25.6002 123.499 25.8002 123.599 26.0002 123.699C26.2002 123.799 26.3002 123.799 26.5002 123.899C26.7002 123.999 26.9002 124.099 27.1002 124.199C27.3002 124.299 27.4002 124.299 27.6002 124.399C27.8002 124.499 28.0002 124.599 28.2002 124.599C28.4002 124.699 28.5002 124.699 28.7002 124.799C28.9002 124.899 29.1002 124.899 29.3002 124.999C29.5002 125.099 29.6002 125.099 29.8002 125.199C30.0002 125.299 30.2002 125.299 30.4002 125.399C30.5002 125.399 30.7002 125.499 30.8002 125.499C31.2002 125.599 31.7002 125.799 32.1002 125.899C32.2002 125.899 32.3002 125.999 32.4002 125.999C32.9002 126.099 33.4002 126.299 33.9002 126.399C34.0002 126.399 34.1002 126.499 34.3002 126.499C34.8002 126.599 35.2002 126.699 35.7002 126.799C35.8002 126.799 35.9002 126.799 36.0002 126.899C36.5002 126.999 37.1002 127.099 37.6002 127.199C37.7002 127.199 37.8002 127.199 38.0002 127.299C38.6002 127.399 39.2002 127.499 39.9002 127.599V131.699V131.799C39.9002 131.899 40.0002 131.899 40.0002 131.999L40.1002 132.099C40.2002 132.199 40.3002 132.199 40.4002 132.299C40.4002 132.299 40.5002 132.299 40.5002 132.399C40.5002 132.399 40.6002 132.399 40.6002 132.499H40.7002C40.7002 132.499 40.8002 132.499 40.8002 132.599H40.9002C41.0002 132.599 41.2002 132.699 41.3002 132.699H41.4002C41.5002 132.699 41.5002 132.699 41.6002 132.699C41.7002 132.699 41.7002 132.699 41.8002 132.699C41.8002 132.699 41.8002 132.699 41.9002 132.699C42.0002 132.699 42.1002 132.699 42.2002 132.699C42.2002 132.699 42.2002 132.699 42.3002 132.699C42.4002 132.699 42.4002 132.699 42.5002 132.699C42.5002 132.699 42.5002 132.699 42.6002 132.699C42.7002 132.699 42.8002 132.699 42.9002 132.699C42.9002 132.699 42.9002 132.699 43.0002 132.699C43.1002 132.699 43.1002 132.699 43.2002 132.599H43.3002C43.4002 132.599 43.4002 132.599 43.5002 132.499L61.6002 124.699C61.7002 124.699 61.8002 124.599 61.8002 124.599C62.2002 124.299 62.5002 123.999 62.5002 123.699V134.899C62.5002 135.199 62.3002 135.599 61.8002 135.799C61.7002 135.799 61.6002 135.899 61.6002 135.899L43.5002 143.699H43.4002H43.3002H43.2002C43.1002 143.699 43.1002 143.699 43.0002 143.699C42.9002 143.699 42.9002 143.699 42.8002 143.699C42.8002 143.699 42.8002 143.699 42.7002 143.699H42.6002H42.5002C42.5002 143.699 42.5002 143.699 42.4002 143.699C42.3002 143.699 42.2002 143.699 42.2002 143.699C42.2002 143.699 42.2002 143.699 42.1002 143.699C42.0002 143.699 42.0002 143.699 41.9002 143.699C41.8002 143.699 41.8002 143.699 41.7002 143.699H41.6002C41.5002 143.699 41.3002 143.599 41.2002 143.599C41.2002 143.599 41.2002 143.599 41.1002 143.599C41.0002 143.599 41.0002 143.599 41.0002 143.499H40.9002C40.9002 143.499 40.8002 143.499 40.8002 143.399C40.8002 143.399 40.8002 143.399 40.7002 143.399C40.6002 143.299 40.5002 143.299 40.4002 143.199L40.3002 143.099L40.2002 142.999C40.2002 142.999 40.2002 142.999 40.2002 142.899C40.2002 142.899 40.2002 142.899 40.2002 142.799V142.699V138.799C39.6002 138.699 39.0002 138.599 38.4002 138.499C38.3002 138.499 38.3002 138.499 38.2002 138.499H38.1002C37.6002 138.399 37.0002 138.299 36.5002 138.199C36.4002 138.199 36.3002 138.199 36.2002 138.099C35.7002 137.999 35.3002 137.899 34.8002 137.799C34.7002 137.799 34.6002 137.699 34.4002 137.699C33.9002 137.599 33.4002 137.399 32.9002 137.299C32.8002 137.299 32.7002 137.199 32.6002 137.199C32.2002 137.099 31.7002 136.899 31.3002 136.799C31.2002 136.799 31.2002 136.799 31.1002 136.699C31.0002 136.699 31.0002 136.699 30.9002 136.599C30.7002 136.499 30.5002 136.499 30.3002 136.399C30.1002 136.299 29.9002 136.299 29.8002 136.199C29.6002 136.099 29.4002 136.099 29.2002 135.999C29.0002 135.899 28.9002 135.899 28.7002 135.799C28.5002 135.699 28.3002 135.599 28.1002 135.599C27.9002 135.499 27.8002 135.499 27.6002 135.399C27.4002 135.299 27.2002 135.199 27.0002 135.099C26.8002 134.999 26.7002 134.999 26.5002 134.899C26.3002 134.799 26.1002 134.699 25.9002 134.599C25.8002 134.499 25.6002 134.499 25.5002 134.399C25.3002 134.299 25.1002 134.199 24.9002 134.099C24.8002 133.999 24.6002 133.999 24.5002 133.899C24.3002 133.799 24.1002 133.699 23.8002 133.599C23.7002 133.499 23.6002 133.499 23.5002 133.399C23.2002 133.199 22.9002 132.999 22.5002 132.899C22.3002 132.799 22.2002 132.699 22.0002 132.599C21.9002 132.499 21.7002 132.399 21.6002 132.299C21.4002 132.099 21.1002 131.999 20.9002 131.799C20.7002 131.699 20.5002 131.499 20.3002 131.399C20.1002 131.199 19.9002 131.099 19.6002 130.899C19.4002 130.799 19.2002 130.599 19.0002 130.499C18.8002 130.299 18.6002 130.199 18.4002 129.999C18.2002 129.899 18.0002 129.699 17.9002 129.599C17.7002 129.399 17.5002 129.299 17.3002 129.099C17.2002 128.999 17.1002 128.999 17.0002 128.899C16.9002 128.799 16.8002 128.699 16.6002 128.599C16.5002 128.499 16.5002 128.499 16.4002 128.399C16.1002 128.099 15.9002 127.799 15.6002 127.599C15.5002 127.499 15.5002 127.499 15.4002 127.399C15.2002 127.199 15.0002 126.899 14.8002 126.699C14.7002 126.599 14.7002 126.599 14.6002 126.499L14.5002 126.399C14.3002 126.199 14.1002 125.899 14.0002 125.699C14.0002 125.599 13.9002 125.599 13.9002 125.499C13.7002 125.199 13.5002 124.899 13.3002 124.599C13.3002 124.599 13.3002 124.499 13.2002 124.499C13.1002 124.399 13.0002 124.199 13.0002 124.099C13.0002 123.999 12.9002 123.899 12.9002 123.799C12.8002 123.599 12.7002 123.399 12.6002 123.199C12.5002 122.999 12.4002 122.899 12.4002 122.699C12.3002 122.499 12.2002 122.299 12.2002 122.099C12.2002 121.999 12.1002 121.899 12.1002 121.799C12.1002 121.699 12.1002 121.699 12.0002 121.599C11.9002 121.399 11.9002 121.199 11.8002 121.099C11.7002 120.899 11.7002 120.799 11.6002 120.599C11.6002 120.399 11.5002 120.199 11.5002 119.999C11.5002 119.899 11.4002 119.799 11.4002 119.699C11.4002 119.599 11.4002 119.599 11.4002 119.499C11.4002 119.299 11.3002 119.099 11.3002 118.899C11.3002 118.699 11.3002 118.599 11.2002 118.399C11.2002 118.199 11.2002 117.999 11.2002 117.799C11.2002 117.699 11.2002 117.599 11.2002 117.499C11.2002 117.399 11.2002 117.299 11.2002 117.199L10.7002 105.899Z" fill="#9AF4DC"/>
<path d="M21.2999 90.4994C10.0999 97.3994 7.79986 107.099 14.1999 115.099C15.9999 117.399 18.5999 119.599 21.8999 121.499C26.7999 124.399 32.9999 126.399 39.6999 127.299V131.199C39.6999 132.299 41.7999 132.899 43.2999 132.199L61.3999 124.399C61.4999 124.399 61.5999 124.299 61.5999 124.299C62.5999 123.699 62.4999 122.799 61.3999 122.299L43.3999 114.499C42.3999 114.099 41.1999 114.199 40.3999 114.599C39.9999 114.799 39.6999 115.099 39.6999 115.499V119.099C36.5999 118.399 33.7999 117.299 31.4999 115.899C21.7999 110.299 21.8999 101.199 31.5999 95.5994C32.6999 94.9994 32.3999 93.9994 31.4999 93.4994L24.1999 90.2994C23.2999 89.9994 22.0999 90.0994 21.2999 90.4994Z" fill="#EBFDF8"/>
<path d="M31.6002 95.5996C32.7002 94.9996 32.4002 93.9996 31.5002 93.4996L24.2002 90.2996C23.3002 89.8996 22.0002 89.9996 21.2002 90.3996C10.0002 97.2996 7.70025 107 14.1002 115" stroke="#171A21" stroke-width="2" stroke-miterlimit="10" stroke-linecap="round" stroke-linejoin="round"/>
<path d="M61.4 124.499C61.5 124.499 61.6 124.399 61.6 124.399C62.6 123.799 62.5 122.899 61.4 122.399L43.4 114.599C42.4 114.199 41.2 114.299 40.4 114.699C40 114.899 39.7 115.199 39.7 115.599V119.199C36.6 118.499 33.8 117.399 31.5 115.999C28.2 114.099 26 111.699 25 109.299" stroke="#171A21" stroke-width="2" stroke-miterlimit="10" stroke-linecap="round" stroke-linejoin="round"/>
</svg>
