<svg width="144" height="144" viewBox="0 0 144 144" fill="none" xmlns="http://www.w3.org/2000/svg">
<path d="M59.3002 59.9L89.7002 42.4C90.5002 41.9 91.5002 42.5 91.5002 43.4L91.6002 74.1C91.6002 75.8 90.7002 77.3 89.2002 78.2L59.4002 95.4C57.9002 96.2 56.1002 96.2 54.7002 95.4L25.1002 78.2C23.7002 77.4 22.8002 75.8 22.8002 74.1L22.7002 43.4C22.7002 42.5 23.7002 41.9 24.5002 42.4L54.6002 59.9C56.0002 60.8 57.8002 60.8 59.3002 59.9Z" fill="#9AF4DC"/>
<path d="M24.3998 42.4L54.5998 59.9C56.0998 60.7 57.8998 60.7 59.2998 59.9L89.6998 42.4C90.4998 41.9 90.4998 40.8 89.6998 40.4L59.4998 22.8C57.9998 22 56.1998 22 54.7998 22.8L24.3998 40.4C23.5998 40.8 23.5998 41.9 24.3998 42.4Z" stroke="#171A21" stroke-width="2" stroke-miterlimit="10" stroke-linecap="round" stroke-linejoin="round"/>
<path d="M56.7998 21.3999L74.1998 17.1999C74.8998 16.7999 75.7998 16.7999 76.4998 17.1999L106.3 34.3999C107.9 35.2999 107.9 37.5999 106.3 38.4999L91.2998 41.2999L56.7998 21.3999Z" fill="white" stroke="#171A21" stroke-width="2" stroke-miterlimit="10" stroke-linecap="round" stroke-linejoin="round"/>
<path d="M57.0003 61.1998L45.4003 77.9998C44.7003 78.3998 43.8003 78.3998 43.1003 77.9998L13.3003 60.7998C11.7003 59.8998 12.2003 58.2998 13.3003 56.6998L22.5003 41.2998L57.0003 61.1998Z" fill="white" stroke="#171A21" stroke-width="2" stroke-miterlimit="10" stroke-linecap="round" stroke-linejoin="round"/>
<path d="M57.2001 21.6998L41.7001 17.9998C40.6001 17.6998 39.2001 17.7998 38.3001 18.2998L8.10005 35.7998C6.70005 36.5998 6.50005 38.4998 7.70005 39.5998L22.7001 41.5998L57.2001 21.6998Z" fill="white" stroke="#171A21" stroke-width="2" stroke-miterlimit="10" stroke-linecap="round" stroke-linejoin="round"/>
<path d="M56.7998 61.1998L66.2998 77.5998C66.9998 78.6998 68.3998 79.0998 69.4998 78.4998L99.8998 60.8998C101 60.1998 101.4 58.7998 100.8 57.6998L91.2998 41.2998L56.7998 61.1998Z" fill="white" stroke="#171A21" stroke-width="2" stroke-miterlimit="10" stroke-linecap="round" stroke-linejoin="round"/>
<path d="M91.3998 65.7998L99.8998 60.8998C101 60.1998 101.4 58.7998 100.8 57.6998L91.2998 41.2998" stroke="#171A21" stroke-width="2" stroke-miterlimit="10" stroke-linecap="round" stroke-linejoin="round"/>
<path d="M56.9004 60.0999L81.8004 45.6999L81.7004 20.3999C81.7004 24.0999 79.3004 27.7999 74.3004 30.6999C74.0004 30.8999 73.7004 30.9999 73.4004 31.1999C73.3004 31.2999 73.2004 31.2999 73.1004 31.3999C72.9004 31.4999 72.7004 31.5999 72.5004 31.6999C72.4004 31.7999 72.2004 31.7999 72.1004 31.8999C71.9004 31.9999 71.7004 32.0999 71.5004 32.1999C71.4004 32.2999 71.2004 32.2999 71.1004 32.3999C70.9004 32.4999 70.8004 32.4999 70.6004 32.5999C70.2004 32.7999 69.7004 32.8999 69.3004 33.0999C69.2004 33.0999 69.2004 33.0999 69.1004 33.1999C68.7004 33.2999 68.3004 33.4999 67.9004 33.5999C67.8004 33.5999 67.6004 33.6999 67.5004 33.6999C67.2004 33.7999 67.0004 33.7999 66.7004 33.8999C66.5004 33.8999 66.4004 33.9999 66.2004 33.9999C65.9004 34.0999 65.6004 34.0999 65.4004 34.1999C65.3004 34.1999 65.1004 34.2999 65.0004 34.2999C64.7004 34.3999 64.5004 34.3999 64.2004 34.3999C64.1004 34.3999 63.9004 34.4999 63.8004 34.4999C63.5004 34.5999 63.1004 34.5999 62.8004 34.6999C62.7004 34.6999 62.7004 34.6999 62.6004 34.6999C62.2004 34.7999 61.8004 34.7999 61.4004 34.8999C61.3004 34.8999 61.2004 34.8999 61.2004 34.8999C60.9004 34.8999 60.6004 34.9999 60.2004 34.9999C60.1004 34.9999 59.9004 34.9999 59.8004 34.9999C59.5004 34.9999 59.3004 34.9999 59.0004 35.0999C58.8004 35.0999 58.7004 35.0999 58.5004 35.0999C58.3004 35.0999 58.0004 35.0999 57.8004 35.0999C57.6004 35.0999 57.5004 35.0999 57.3004 35.0999C57.0004 35.0999 56.8004 35.0999 56.5004 35.0999C56.3004 35.0999 56.2004 35.0999 56.0004 35.0999C55.8004 35.0999 55.5004 35.0999 55.3004 35.0999C55.1004 35.0999 55.0004 35.0999 54.8004 35.0999C54.5004 35.0999 54.2004 35.0999 54.0004 35.0999C53.8004 35.0999 53.7004 35.0999 53.5004 35.0999C53.2004 35.0999 53.0004 35.0999 52.7004 34.9999C52.5004 34.9999 52.4004 34.9999 52.2004 34.9999C51.8004 34.9999 51.4004 34.8999 51.0004 34.8999C50.9004 34.8999 50.9004 34.8999 50.8004 34.8999C50.3004 34.7999 49.9004 34.7999 49.4004 34.6999C49.2004 34.6999 49.1004 34.5999 48.9004 34.5999C48.7004 34.5999 48.5004 34.4999 48.2004 34.4999C48.0004 34.4999 47.8004 34.3999 47.7004 34.3999C47.5004 34.3999 47.3004 34.2999 47.1004 34.2999C46.9004 34.2999 46.8004 34.1999 46.6004 34.1999C46.4004 34.0999 46.2004 34.0999 46.0004 33.9999C45.8004 33.9999 45.7004 33.8999 45.5004 33.8999C45.3004 33.7999 45.1004 33.7999 44.9004 33.6999C44.7004 33.6999 44.6004 33.5999 44.4004 33.5999C44.0004 33.4999 43.7004 33.3999 43.3004 33.1999C43.2004 33.1999 43.1004 33.0999 43.1004 33.0999C42.7004 32.8999 42.3004 32.7999 41.9004 32.5999C41.8004 32.5999 41.7004 32.4999 41.6004 32.4999C41.3004 32.3999 41.0004 32.1999 40.7004 32.0999C40.6004 31.9999 40.5004 31.9999 40.4004 31.8999C40.0004 31.6999 39.6004 31.4999 39.3004 31.2999C39.1004 31.1999 38.9004 31.0999 38.7004 30.8999C38.5004 30.7999 38.4004 30.6999 38.2004 30.5999C38.1004 30.4999 37.9004 30.3999 37.8004 30.2999C37.7004 30.1999 37.5004 30.0999 37.4004 29.9999C37.3004 29.8999 37.2004 29.7999 37.0004 29.6999C36.9004 29.5999 36.7004 29.4999 36.6004 29.3999C36.5004 29.2999 36.4004 29.1999 36.3004 29.0999C36.2004 28.9999 36.1004 28.8999 35.9004 28.7999C35.8004 28.6999 35.6004 28.4999 35.5004 28.3999L35.4004 28.2999C35.2004 28.0999 35.0004 27.8999 34.9004 27.7999L34.8004 27.6999C34.7004 27.4999 34.5004 27.3999 34.4004 27.1999L34.3004 27.0999C34.2004 26.9999 34.2004 26.8999 34.1004 26.8999C34.0004 26.6999 33.9004 26.5999 33.7004 26.3999C33.6004 26.2999 33.6004 26.1999 33.5004 26.0999C33.4004 25.9999 33.3004 25.7999 33.2004 25.6999C33.1004 25.5999 33.1004 25.4999 33.0004 25.3999C32.9004 25.2999 32.9004 25.1999 32.8004 24.9999C32.7004 24.8999 32.7004 24.7999 32.7004 24.6999C32.6004 24.5999 32.6004 24.3999 32.5004 24.2999C32.5004 24.1999 32.4004 24.0999 32.4004 23.9999C32.4004 23.8999 32.3004 23.7999 32.3004 23.5999C32.3004 23.4999 32.2004 23.3999 32.2004 23.2999C32.2004 23.1999 32.1004 23.0999 32.1004 22.8999C32.1004 22.7999 32.1004 22.6999 32.0004 22.5999C32.0004 22.4999 32.0004 22.3999 31.9004 22.1999C31.9004 22.0999 31.9004 21.9999 31.9004 21.8999C31.9004 21.7999 31.9004 21.5999 31.9004 21.4999C31.9004 21.3999 31.9004 21.1999 31.9004 21.0999L32.0004 46.1999L56.9004 60.0999Z" fill="#9AF4DC"/>
<path d="M39.2004 11.2C29.4004 16.8 29.4004 26 39.1004 31.6C48.8004 37.2 64.6004 37.2 74.4004 31.6C84.2004 26 84.2004 16.8 74.5004 11.2C64.8004 5.6 49.0004 5.6 39.2004 11.2Z" fill="white"/>
<path d="M80.8001 24.2C83.1001 19.4 81.0001 14 74.4001 10.2C64.7001 4.6 48.9001 4.6 39.2001 10.2C32.2001 14.2 30.2001 20 33.1001 25.1" stroke="#171A21" stroke-width="2" stroke-miterlimit="10" stroke-linecap="round" stroke-linejoin="round"/>
<path d="M49.2002 5.59985V5.69985V5.79985V5.89985V5.99985V6.09985V6.19985V6.29985V6.39985V6.49985V6.59985C49.2002 6.59985 49.2002 6.69985 49.3002 6.69985C49.3002 6.69985 49.3002 6.79985 49.4002 6.79985L49.5002 6.89985C49.5002 6.89985 49.5002 6.99985 49.6002 6.99985L49.7002 7.09985C49.7002 7.09985 49.7002 7.09985 49.8002 7.19985L49.9002 7.29985C50.0002 7.39985 50.0002 7.39985 50.1002 7.49985L50.2002 7.59985L50.3002 7.69985L50.4002 7.79985L50.5002 7.89985L50.6002 7.99985L50.7002 8.09985L50.8002 8.19985L50.9002 8.29985C51.0002 8.29985 51.0002 8.39985 51.1002 8.39985C51.2002 8.49985 51.3002 8.49985 51.5002 8.59985C51.5002 8.59985 51.6002 8.59985 51.6002 8.69985C51.7002 8.69985 51.8002 8.79985 51.9002 8.79985H52.0002C52.1002 8.89985 52.3002 8.89985 52.4002 8.99985C52.4002 8.99985 52.4002 8.99985 52.5002 8.99985C52.6002 8.99985 52.7002 9.09985 52.8002 9.09985H52.9002C53.0002 9.09985 53.0002 9.09985 53.1002 9.19985C53.2002 9.19985 53.2002 9.19985 53.3002 9.19985C53.4002 9.19985 53.4002 9.19985 53.5002 9.29985C53.6002 9.29985 53.6002 9.29985 53.7002 9.29985C53.8002 9.29985 53.8002 9.29985 53.9002 9.29985C54.0002 9.29985 54.0002 9.29985 54.1002 9.29985C54.2002 9.29985 54.2002 9.29985 54.3002 9.29985C54.4002 9.29985 54.4002 9.29985 54.5002 9.29985C54.6002 9.29985 54.8002 9.29985 54.9002 9.39985C54.9002 9.39985 54.9002 9.39985 55.0002 9.39985C55.1002 9.39985 55.3002 9.39985 55.4002 9.39985H55.5002C55.6002 9.39985 55.7002 9.39985 55.7002 9.39985C55.8002 9.39985 55.8002 9.39985 55.9002 9.39985C56.0002 9.39985 56.1002 9.39985 56.2002 9.39985H56.3002C56.4002 9.39985 56.4002 9.39985 56.5002 9.39985C56.6002 9.39985 56.6002 9.39985 56.7002 9.39985C56.8002 9.39985 56.9002 9.39985 56.9002 9.39985H57.0002C57.1002 9.39985 57.1002 9.39985 57.2002 9.39985C57.3002 9.39985 57.3002 9.39985 57.4002 9.39985C57.5002 9.39985 57.6002 9.39985 57.6002 9.39985H57.7002C57.8002 9.39985 57.9002 9.39985 58.0002 9.39985H58.1002C58.2002 9.39985 58.3002 9.39985 58.5002 9.39985C58.5002 9.39985 58.5002 9.39985 58.6002 9.39985C58.7002 9.39985 58.8002 9.39985 58.9002 9.39985H59.0002C59.1002 9.39985 59.2002 9.39985 59.2002 9.39985H59.3002C59.4002 9.39985 59.5002 9.39985 59.6002 9.29985H59.7002C59.8002 9.29985 59.9002 9.29985 59.9002 9.19985H60.0002C60.1002 9.19985 60.2002 9.09985 60.4002 9.09985C60.4002 9.09985 60.4002 9.09985 60.5002 9.09985C60.6002 9.09985 60.8002 8.99985 60.9002 8.99985C61.0002 8.99985 61.0002 8.99985 61.1002 8.89985C61.1002 8.89985 61.2002 8.89985 61.2002 8.79985C61.3002 8.79985 61.3002 8.69985 61.4002 8.69985C61.4002 8.69985 61.5002 8.69985 61.5002 8.59985C61.6002 8.59985 61.6002 8.49985 61.7002 8.49985H61.8002C61.9002 8.49985 62.0002 8.39985 62.1002 8.29985C63.6002 7.39985 64.4002 6.29985 64.4002 5.09985L64.5002 16.6999C64.5002 17.7999 63.7002 18.9999 62.2002 19.8999C62.1002 19.9999 62.0002 19.9999 61.9002 20.0999H61.8002C61.7002 20.0999 61.7002 20.1999 61.6002 20.1999C61.6002 20.1999 61.5002 20.1999 61.5002 20.2999C61.4002 20.2999 61.4002 20.3999 61.3002 20.3999C61.3002 20.3999 61.2002 20.3999 61.2002 20.4999C61.2002 20.4999 61.1002 20.4999 61.1002 20.5999C61.0002 20.6999 60.8002 20.6999 60.7002 20.6999C60.7002 20.6999 60.7002 20.6999 60.6002 20.6999C60.5002 20.6999 60.4002 20.7999 60.2002 20.7999C60.2002 20.7999 60.2002 20.7999 60.1002 20.7999C60.1002 20.7999 60.1002 20.7999 60.0002 20.7999C59.9002 20.7999 59.8002 20.7999 59.8002 20.8999H59.7002C59.6002 20.8999 59.5002 20.8999 59.4002 20.9999H59.3002C59.2002 20.9999 59.1002 20.9999 59.1002 20.9999H59.0002C58.9002 20.9999 58.8002 20.9999 58.7002 20.9999C58.7002 20.9999 58.7002 20.9999 58.6002 20.9999C58.5002 20.9999 58.4002 20.9999 58.2002 20.9999H58.1002C58.0002 20.9999 57.9002 20.9999 57.8002 20.9999H57.7002C57.6002 20.9999 57.5002 20.9999 57.5002 20.9999C57.4002 20.9999 57.4002 20.9999 57.3002 20.9999C57.2002 20.9999 57.2002 20.9999 57.1002 20.9999H57.0002C56.9002 20.9999 56.8002 20.9999 56.8002 20.9999C56.7002 20.9999 56.7002 20.9999 56.6002 20.9999C56.5002 20.9999 56.5002 20.9999 56.4002 20.9999H56.3002C56.2002 20.9999 56.1002 20.9999 56.0002 20.9999C55.9002 20.9999 55.9002 20.9999 55.8002 20.9999C55.7002 20.9999 55.6002 20.9999 55.6002 20.9999H55.5002C55.5002 20.9999 55.5002 20.9999 55.4002 20.9999C55.3002 20.9999 55.1002 20.9999 55.0002 20.9999C55.0002 20.9999 55.0002 20.9999 54.9002 20.9999C54.8002 20.9999 54.6002 20.9999 54.5002 20.8999H54.4002C54.3002 20.8999 54.3002 20.8999 54.2002 20.8999C54.1002 20.8999 54.1002 20.8999 54.0002 20.8999C53.9002 20.8999 53.9002 20.8999 53.8002 20.8999C53.7002 20.8999 53.7002 20.8999 53.6002 20.8999C53.5002 20.8999 53.5002 20.8999 53.4002 20.7999C53.3002 20.7999 53.3002 20.7999 53.2002 20.7999C53.1002 20.7999 53.1002 20.7999 53.0002 20.6999H52.9002C52.9002 20.6999 52.9002 20.6999 52.8002 20.6999C52.7002 20.6999 52.6002 20.5999 52.5002 20.5999C52.5002 20.5999 52.5002 20.5999 52.4002 20.5999C52.3002 20.5999 52.1002 20.4999 52.0002 20.3999H51.9002C51.8002 20.3999 51.7002 20.2999 51.6002 20.2999C51.6002 20.2999 51.5002 20.2999 51.5002 20.1999C51.4002 20.0999 51.3002 20.0999 51.1002 19.9999C51.1002 19.9999 51.0002 19.9999 51.0002 19.8999C51.0002 19.8999 50.9002 19.8999 50.9002 19.7999L50.8002 19.6999L50.7002 19.5999L50.6002 19.4999L50.5002 19.3999L50.4002 19.2999L50.3002 19.1999L50.2002 19.0999L50.1002 18.9999C50.0002 18.8999 50.0002 18.8999 49.9002 18.7999L49.8002 18.6999C49.8002 18.6999 49.8002 18.6999 49.8002 18.5999L49.7002 18.4999C49.7002 18.4999 49.7002 18.3999 49.6002 18.3999L49.5002 18.2999C49.5002 18.2999 49.5002 18.2999 49.5002 18.1999C49.5002 18.1999 49.5002 18.0999 49.4002 18.0999V17.9999V17.8999C49.4002 17.8999 49.4002 17.8999 49.4002 17.7999V17.6999V17.5999V17.4999C49.4002 17.4999 49.4002 17.4999 49.4002 17.3999V17.2999V17.1999V17.0999C49.4002 17.0999 49.4002 17.0999 49.4002 16.9999C49.4002 16.9999 49.4002 16.9999 49.4002 16.8999L49.2002 5.49985V5.59985Z" fill="#EBFDF8"/>
<path d="M49.2002 5.59985V5.69985V5.79985V5.89985V5.99985V6.09985V6.19985V6.29985V6.39985V6.49985V6.59985C49.2002 6.59985 49.2002 6.69985 49.3002 6.69985C49.3002 6.69985 49.3002 6.79985 49.4002 6.79985L49.5002 6.89985C49.5002 6.89985 49.5002 6.99985 49.6002 6.99985L49.7002 7.09985C49.7002 7.09985 49.7002 7.09985 49.8002 7.19985L49.9002 7.29985C50.0002 7.39985 50.0002 7.39985 50.1002 7.49985L50.2002 7.59985L50.3002 7.69985L50.4002 7.79985L50.5002 7.89985L50.6002 7.99985L50.7002 8.09985L50.8002 8.19985L50.9002 8.29985C51.0002 8.29985 51.0002 8.39985 51.1002 8.39985C51.2002 8.49985 51.3002 8.49985 51.5002 8.59985C51.5002 8.59985 51.6002 8.59985 51.6002 8.69985C51.7002 8.69985 51.8002 8.79985 51.9002 8.79985H52.0002C52.1002 8.89985 52.3002 8.89985 52.4002 8.99985C52.4002 8.99985 52.4002 8.99985 52.5002 8.99985C52.6002 8.99985 52.7002 9.09985 52.8002 9.09985H52.9002C53.0002 9.09985 53.0002 9.09985 53.1002 9.19985C53.2002 9.19985 53.2002 9.19985 53.3002 9.19985C53.4002 9.19985 53.4002 9.19985 53.5002 9.29985C53.6002 9.29985 53.6002 9.29985 53.7002 9.29985C53.8002 9.29985 53.8002 9.29985 53.9002 9.29985C54.0002 9.29985 54.0002 9.29985 54.1002 9.29985C54.2002 9.29985 54.2002 9.29985 54.3002 9.29985C54.4002 9.29985 54.4002 9.29985 54.5002 9.29985C54.6002 9.29985 54.8002 9.29985 54.9002 9.39985C54.9002 9.39985 54.9002 9.39985 55.0002 9.39985C55.1002 9.39985 55.3002 9.39985 55.4002 9.39985H55.5002C55.6002 9.39985 55.7002 9.39985 55.7002 9.39985C55.8002 9.39985 55.8002 9.39985 55.9002 9.39985C56.0002 9.39985 56.1002 9.39985 56.2002 9.39985H56.3002C56.4002 9.39985 56.4002 9.39985 56.5002 9.39985C56.6002 9.39985 56.6002 9.39985 56.7002 9.39985C56.8002 9.39985 56.9002 9.39985 56.9002 9.39985H57.0002C57.1002 9.39985 57.1002 9.39985 57.2002 9.39985C57.3002 9.39985 57.3002 9.39985 57.4002 9.39985C57.5002 9.39985 57.6002 9.39985 57.6002 9.39985H57.7002C57.8002 9.39985 57.9002 9.39985 58.0002 9.39985H58.1002C58.2002 9.39985 58.3002 9.39985 58.5002 9.39985C58.5002 9.39985 58.5002 9.39985 58.6002 9.39985C58.7002 9.39985 58.8002 9.39985 58.9002 9.39985H59.0002C59.1002 9.39985 59.2002 9.39985 59.2002 9.39985H59.3002C59.4002 9.39985 59.5002 9.39985 59.6002 9.29985H59.7002C59.8002 9.29985 59.9002 9.29985 59.9002 9.19985H60.0002C60.1002 9.19985 60.2002 9.09985 60.4002 9.09985C60.4002 9.09985 60.4002 9.09985 60.5002 9.09985C60.6002 9.09985 60.8002 8.99985 60.9002 8.99985C61.0002 8.99985 61.0002 8.99985 61.1002 8.89985C61.1002 8.89985 61.2002 8.89985 61.2002 8.79985C61.3002 8.79985 61.3002 8.69985 61.4002 8.69985C61.4002 8.69985 61.5002 8.69985 61.5002 8.59985C61.6002 8.59985 61.6002 8.49985 61.7002 8.49985H61.8002C61.9002 8.49985 62.0002 8.39985 62.1002 8.29985C63.6002 7.39985 64.4002 6.29985 64.4002 5.09985L64.5002 16.6999C64.5002 17.7999 63.7002 18.9999 62.2002 19.8999C62.1002 19.9999 62.0002 19.9999 61.9002 20.0999H61.8002C61.7002 20.0999 61.7002 20.1999 61.6002 20.1999C61.6002 20.1999 61.5002 20.1999 61.5002 20.2999C61.4002 20.2999 61.4002 20.3999 61.3002 20.3999C61.3002 20.3999 61.2002 20.3999 61.2002 20.4999C61.2002 20.4999 61.1002 20.4999 61.1002 20.5999C61.0002 20.6999 60.8002 20.6999 60.7002 20.6999C60.7002 20.6999 60.7002 20.6999 60.6002 20.6999C60.5002 20.6999 60.4002 20.7999 60.2002 20.7999C60.2002 20.7999 60.2002 20.7999 60.1002 20.7999C60.1002 20.7999 60.1002 20.7999 60.0002 20.7999C59.9002 20.7999 59.8002 20.7999 59.8002 20.8999H59.7002C59.6002 20.8999 59.5002 20.8999 59.4002 20.9999H59.3002C59.2002 20.9999 59.1002 20.9999 59.1002 20.9999H59.0002C58.9002 20.9999 58.8002 20.9999 58.7002 20.9999C58.7002 20.9999 58.7002 20.9999 58.6002 20.9999C58.5002 20.9999 58.4002 20.9999 58.2002 20.9999H58.1002C58.0002 20.9999 57.9002 20.9999 57.8002 20.9999H57.7002C57.6002 20.9999 57.5002 20.9999 57.5002 20.9999C57.4002 20.9999 57.4002 20.9999 57.3002 20.9999C57.2002 20.9999 57.2002 20.9999 57.1002 20.9999H57.0002C56.9002 20.9999 56.8002 20.9999 56.8002 20.9999C56.7002 20.9999 56.7002 20.9999 56.6002 20.9999C56.5002 20.9999 56.5002 20.9999 56.4002 20.9999H56.3002C56.2002 20.9999 56.1002 20.9999 56.0002 20.9999C55.9002 20.9999 55.9002 20.9999 55.8002 20.9999C55.7002 20.9999 55.6002 20.9999 55.6002 20.9999H55.5002C55.5002 20.9999 55.5002 20.9999 55.4002 20.9999C55.3002 20.9999 55.1002 20.9999 55.0002 20.9999C55.0002 20.9999 55.0002 20.9999 54.9002 20.9999C54.8002 20.9999 54.6002 20.9999 54.5002 20.8999H54.4002C54.3002 20.8999 54.3002 20.8999 54.2002 20.8999C54.1002 20.8999 54.1002 20.8999 54.0002 20.8999C53.9002 20.8999 53.9002 20.8999 53.8002 20.8999C53.7002 20.8999 53.7002 20.8999 53.6002 20.8999C53.5002 20.8999 53.5002 20.8999 53.4002 20.7999C53.3002 20.7999 53.3002 20.7999 53.2002 20.7999C53.1002 20.7999 53.1002 20.7999 53.0002 20.6999H52.9002C52.9002 20.6999 52.9002 20.6999 52.8002 20.6999C52.7002 20.6999 52.6002 20.5999 52.5002 20.5999C52.5002 20.5999 52.5002 20.5999 52.4002 20.5999C52.3002 20.5999 52.1002 20.4999 52.0002 20.3999H51.9002C51.8002 20.3999 51.7002 20.2999 51.6002 20.2999C51.6002 20.2999 51.5002 20.2999 51.5002 20.1999C51.4002 20.0999 51.3002 20.0999 51.1002 19.9999C51.1002 19.9999 51.0002 19.9999 51.0002 19.8999C51.0002 19.8999 50.9002 19.8999 50.9002 19.7999L50.8002 19.6999L50.7002 19.5999L50.6002 19.4999L50.5002 19.3999L50.4002 19.2999L50.3002 19.1999L50.2002 19.0999L50.1002 18.9999C50.0002 18.8999 50.0002 18.8999 49.9002 18.7999L49.8002 18.6999C49.8002 18.6999 49.8002 18.6999 49.8002 18.5999L49.7002 18.4999C49.7002 18.4999 49.7002 18.3999 49.6002 18.3999L49.5002 18.2999C49.5002 18.2999 49.5002 18.2999 49.5002 18.1999C49.5002 18.1999 49.5002 18.0999 49.4002 18.0999V17.9999V17.8999C49.4002 17.8999 49.4002 17.8999 49.4002 17.7999V17.6999V17.5999V17.4999C49.4002 17.4999 49.4002 17.4999 49.4002 17.3999V17.2999V17.1999V17.0999C49.4002 17.0999 49.4002 17.0999 49.4002 16.9999C49.4002 16.9999 49.4002 16.9999 49.4002 16.8999L49.2002 5.49985V5.59985Z" stroke="#171A21" stroke-width="2" stroke-miterlimit="10" stroke-linecap="round" stroke-linejoin="round"/>
<path d="M51.4004 2.2999C48.4004 3.9999 48.4004 6.8999 51.4004 8.5999C54.4004 10.2999 59.2004 10.2999 62.3004 8.5999C65.3004 6.8999 65.3004 3.9999 62.3004 2.2999C59.3004 0.599902 54.4004 0.599902 51.4004 2.2999Z" fill="white" stroke="#171A21" stroke-width="2" stroke-miterlimit="10" stroke-linecap="round" stroke-linejoin="round"/>
<path d="M87.1995 68.7001C87.1995 68.8001 87.1995 69.0001 87.1995 69.1001C87.1995 69.2001 87.1995 69.3001 87.1995 69.4001C87.1995 69.5001 87.1995 69.6001 87.2995 69.8001C87.2995 69.9001 87.2995 70.0001 87.3995 70.1001C87.3995 70.2001 87.4995 70.3001 87.4995 70.5001C87.4995 70.6001 87.5995 70.7001 87.5995 70.8001C87.5995 70.9001 87.6995 71.0001 87.6995 71.2001C87.6995 71.3001 87.7995 71.4001 87.7995 71.5001C87.8995 71.6001 87.8995 71.8001 87.9995 71.9001C87.9995 72.0001 88.0995 72.1001 88.0995 72.2001C88.1995 72.3001 88.1995 72.5001 88.2995 72.6001C88.3995 72.7001 88.3995 72.8001 88.4995 72.9001C88.5995 73.0001 88.6995 73.2001 88.7995 73.3001C88.8995 73.4001 88.8995 73.5001 88.9995 73.6001C89.0995 73.8001 89.1995 73.9001 89.3995 74.1001C89.4995 74.2001 89.4995 74.3001 89.5995 74.3001L89.6995 74.4001C89.7995 74.6001 89.9995 74.7001 90.0995 74.9001L90.1995 75.0001C90.3995 75.2001 90.4995 75.4001 90.6995 75.5001L90.7995 75.6001C90.8995 75.7001 91.0995 75.9001 91.1995 76.0001C91.2995 76.1001 91.3995 76.2001 91.5995 76.3001C91.6995 76.4001 91.7995 76.5001 91.8995 76.6001C91.9995 76.7001 92.1995 76.8001 92.2995 76.9001C92.3995 77.0001 92.4995 77.1001 92.6995 77.2001C92.7995 77.3001 92.9995 77.4001 93.0995 77.5001C93.1995 77.6001 93.3995 77.7001 93.4995 77.8001C93.5995 77.9001 93.7995 78.0001 93.9995 78.1001C94.1995 78.2001 94.3995 78.3001 94.5995 78.5001C94.9995 78.7001 95.3995 78.9001 95.6995 79.1001C95.7995 79.2001 95.8995 79.2001 95.9995 79.3001C96.2995 79.5001 96.5995 79.6001 96.8995 79.7001C96.9995 79.7001 97.0995 79.8001 97.1995 79.8001C97.5995 80.0001 97.9995 80.1001 98.3995 80.3001C98.4995 80.3001 98.4995 80.4001 98.5995 80.4001C98.9995 80.5001 99.2995 80.7001 99.6995 80.8001C99.7995 80.8001 99.9995 80.9001 100.199 80.9001C100.399 81.0001 100.599 81.0001 100.799 81.1001C100.999 81.2001 101.099 81.2001 101.299 81.2001C101.499 81.3001 101.699 81.3001 101.899 81.4001C102.099 81.4001 102.199 81.5001 102.399 81.5001C102.599 81.6001 102.799 81.6001 102.999 81.6001C103.199 81.6001 103.399 81.7001 103.499 81.7001C103.699 81.7001 103.899 81.8001 104.199 81.8001C104.399 81.8001 104.499 81.9001 104.699 81.9001C105.199 82.0001 105.599 82.1001 106.099 82.1001C106.199 82.1001 106.199 82.1001 106.299 82.1001C106.699 82.2001 107.099 82.2001 107.499 82.2001C107.699 82.2001 107.799 82.2001 107.999 82.2001C108.299 82.2001 108.499 82.2001 108.799 82.3001C108.999 82.3001 109.099 82.3001 109.299 82.3001C109.599 82.3001 109.899 82.3001 110.099 82.3001C110.299 82.3001 110.399 82.3001 110.599 82.3001C110.799 82.3001 111.099 82.3001 111.299 82.3001C111.499 82.3001 111.599 82.3001 111.799 82.3001C112.099 82.3001 112.299 82.3001 112.599 82.3001C112.799 82.3001 112.899 82.3001 113.099 82.3001C113.299 82.3001 113.599 82.3001 113.799 82.3001C113.999 82.3001 114.099 82.3001 114.299 82.3001C114.599 82.3001 114.799 82.3001 115.099 82.2001C115.199 82.2001 115.399 82.2001 115.499 82.2001C115.799 82.2001 116.099 82.1001 116.499 82.1001C116.599 82.1001 116.699 82.1001 116.699 82.1001C117.099 82.1001 117.499 82.0001 117.899 81.9001C117.999 81.9001 117.999 81.9001 118.099 81.9001C118.399 81.9001 118.799 81.8001 119.099 81.7001C119.199 81.7001 119.399 81.6001 119.499 81.6001C119.799 81.6001 119.999 81.5001 120.299 81.5001C120.399 81.5001 120.599 81.4001 120.699 81.4001C120.999 81.3001 121.299 81.3001 121.499 81.2001C121.699 81.2001 121.799 81.1001 121.999 81.1001C122.299 81.0001 122.499 81.0001 122.799 80.9001C122.899 80.9001 123.099 80.8001 123.199 80.8001C123.599 80.7001 123.999 80.6001 124.399 80.4001C124.499 80.4001 124.499 80.4001 124.599 80.3001C124.999 80.1001 125.499 80.0001 125.899 79.8001C126.099 79.7001 126.299 79.7001 126.399 79.6001C126.499 79.5001 126.699 79.5001 126.799 79.4001C126.999 79.3001 127.199 79.2001 127.399 79.1001C127.499 79.0001 127.699 79.0001 127.799 78.9001C127.999 78.8001 128.199 78.7001 128.399 78.6001C128.499 78.5001 128.599 78.5001 128.699 78.4001C128.999 78.2001 129.299 78.1001 129.599 77.9001C134.499 75.1001 136.999 71.3001 136.999 67.6001L137.199 128.9C137.199 132.6 134.799 136.3 129.799 139.2C129.499 139.4 129.199 139.5 128.899 139.7C128.799 139.8 128.699 139.8 128.599 139.9C128.399 140 128.199 140.1 127.999 140.2C127.899 140.3 127.699 140.3 127.599 140.4C127.399 140.5 127.199 140.6 126.999 140.7C126.899 140.8 126.699 140.8 126.599 140.9C126.499 141 126.299 141 126.199 141.1H126.099C125.699 141.3 125.199 141.4 124.799 141.6C124.699 141.6 124.699 141.6 124.599 141.7C124.199 141.8 123.799 142 123.399 142.1C123.299 142.1 123.299 142.1 123.199 142.2C123.099 142.2 122.999 142.2 122.999 142.3C122.699 142.4 122.499 142.4 122.199 142.5C121.999 142.5 121.899 142.6 121.699 142.6C121.399 142.7 121.099 142.7 120.899 142.8C120.799 142.8 120.699 142.8 120.599 142.9H120.499C120.199 143 119.999 143 119.699 143C119.599 143 119.399 143.1 119.299 143.1C118.999 143.2 118.599 143.2 118.299 143.3C118.199 143.3 118.199 143.3 118.099 143.3C117.699 143.4 117.299 143.4 116.899 143.5C116.799 143.5 116.699 143.5 116.599 143.5C116.299 143.5 115.999 143.6 115.699 143.6C115.599 143.6 115.399 143.6 115.299 143.6C114.999 143.6 114.799 143.6 114.499 143.7C114.299 143.7 114.199 143.7 113.999 143.7C113.799 143.7 113.499 143.7 113.299 143.7C113.299 143.7 113.299 143.7 113.199 143.7C113.099 143.7 112.899 143.7 112.799 143.7C112.499 143.7 112.299 143.7 111.999 143.7C111.799 143.7 111.699 143.7 111.499 143.7C111.299 143.7 110.999 143.7 110.799 143.7H110.699C110.599 143.7 110.499 143.7 110.399 143.7C110.099 143.7 109.799 143.7 109.599 143.7C109.399 143.7 109.299 143.7 109.099 143.7C108.799 143.7 108.599 143.7 108.299 143.6C108.199 143.6 108.099 143.6 107.999 143.6C107.899 143.6 107.899 143.6 107.799 143.6C107.399 143.6 106.999 143.5 106.599 143.5C106.499 143.5 106.499 143.5 106.399 143.5C105.899 143.4 105.499 143.4 104.999 143.3H104.899C104.799 143.3 104.699 143.3 104.499 143.2C104.299 143.2 104.099 143.1 103.799 143.1C103.599 143.1 103.399 143 103.299 143C103.099 143 102.899 142.9 102.699 142.9C102.499 142.9 102.399 142.8 102.199 142.8C101.999 142.7 101.799 142.7 101.599 142.6C101.399 142.6 101.299 142.5 101.099 142.5C100.899 142.4 100.699 142.4 100.499 142.3C100.399 142.3 100.299 142.2 100.199 142.2C100.099 142.2 100.099 142.2 99.9995 142.1C99.5995 142 99.2995 141.9 98.8995 141.7C98.7995 141.7 98.6995 141.6 98.6995 141.6C98.2995 141.4 97.8995 141.3 97.4995 141.1C97.3995 141.1 97.2995 141 97.1995 141C96.8995 140.9 96.5995 140.7 96.2995 140.6C96.1995 140.5 96.0995 140.5 95.9995 140.4C95.5995 140.2 95.1995 140 94.8995 139.8C94.7995 139.7 94.6995 139.7 94.5995 139.6C94.4995 139.5 94.3995 139.5 94.2995 139.4C94.0995 139.3 93.9995 139.2 93.7995 139.1C93.6995 139 93.4995 138.9 93.3995 138.8C93.2995 138.7 93.0995 138.6 92.9995 138.5C92.8995 138.4 92.7995 138.3 92.5995 138.2C92.4995 138.1 92.2995 138 92.1995 137.9C92.0995 137.8 91.9995 137.7 91.8995 137.6C91.7995 137.5 91.6995 137.4 91.4995 137.3L91.3995 137.2C91.2995 137.1 91.1995 137 91.0995 136.9L90.9995 136.8C90.7995 136.6 90.5995 136.4 90.4995 136.3L90.3995 136.2C90.2995 136 90.0995 135.9 89.9995 135.7L89.8995 135.6C89.8995 135.5 89.7995 135.5 89.7995 135.4C89.6995 135.2 89.5995 135.1 89.3995 134.9C89.2995 134.8 89.2995 134.7 89.1995 134.6C89.0995 134.5 88.9995 134.3 88.8995 134.2L88.7995 134.1C88.7995 134 88.6995 134 88.6995 133.9C88.5995 133.8 88.5995 133.7 88.4995 133.5C88.3995 133.4 88.3995 133.3 88.3995 133.2C88.2995 133.1 88.2995 132.9 88.1995 132.8C88.1995 132.7 88.0995 132.7 88.0995 132.6C88.0995 132.5 88.0995 132.5 87.9995 132.4C87.9995 132.3 87.8995 132.2 87.8995 132C87.8995 131.9 87.7995 131.8 87.7995 131.7C87.7995 131.6 87.6995 131.5 87.6995 131.3C87.6995 131.2 87.6995 131.2 87.6995 131.1V131C87.6995 130.9 87.6995 130.8 87.5995 130.6C87.5995 130.5 87.5995 130.4 87.5995 130.3C87.5995 130.2 87.5995 130 87.5995 129.9C87.5995 129.8 87.5995 129.8 87.5995 129.7C87.5995 129.6 87.5995 129.6 87.5995 129.5L87.3995 68.2001C87.0995 68.4001 87.0995 68.5001 87.1995 68.7001Z" fill="#9AF4DC"/>
<path d="M94.5002 57.9002C84.7002 63.5002 84.7002 72.7002 94.4002 78.3002C104.1 83.9002 119.9 83.9002 129.7 78.3002C139.5 72.7002 139.5 63.5002 129.8 57.9002C120.1 52.3002 104.3 52.3002 94.5002 57.9002Z" fill="white"/>
<path d="M136.1 71.9002C138.4 67.1002 136.3 61.7002 129.7 57.9002C120 52.3002 104.2 52.3002 94.4999 57.9002C87.4999 61.9002 85.4999 67.7002 88.3999 72.8002" stroke="#171A21" stroke-width="2" stroke-miterlimit="10" stroke-linecap="round" stroke-linejoin="round"/>
<path d="M104.5 53.3V53.4001V53.5V53.6V53.7001V53.8V53.9001V54V54.1V54.2001V54.3C104.5 54.3 104.5 54.4001 104.6 54.4001C104.6 54.4001 104.6 54.5 104.7 54.5L104.8 54.6C104.8 54.6 104.8 54.7001 104.9 54.7001L105 54.8C105 54.8 105 54.8001 105.1 54.9001L105.2 55C105.3 55.1 105.3 55.1001 105.4 55.2001L105.5 55.3L105.6 55.4001L105.7 55.5L105.8 55.6L105.9 55.7001L106 55.8L106.1 55.9001L106.2 56C106.3 56 106.3 56.1 106.4 56.1C106.5 56.2 106.6 56.2 106.8 56.3C106.8 56.3 106.9 56.3001 106.9 56.4001C107 56.4001 107.1 56.5 107.2 56.5H107.3C107.4 56.6 107.6 56.6001 107.7 56.7001C107.7 56.7001 107.7 56.7001 107.8 56.7001C107.9 56.7001 108 56.8 108.1 56.8H108.2C108.3 56.8 108.3 56.8001 108.4 56.9001C108.5 56.9001 108.5 56.9001 108.6 56.9001C108.7 56.9001 108.7 56.9 108.8 57C108.9 57 108.9 57 109 57C109.1 57 109.1 57 109.2 57C109.3 57 109.3 57 109.4 57C109.5 57 109.5 57 109.6 57C109.7 57 109.7 57 109.8 57C109.9 57 110.1 57 110.2 57.1C110.2 57.1 110.2 57.1 110.3 57.1C110.4 57.1 110.6 57.1 110.7 57.1H110.8C110.9 57.1 111 57.1 111 57.1C111.1 57.1 111.1 57.1 111.2 57.1C111.3 57.1 111.4 57.1 111.5 57.1H111.6C111.7 57.1 111.7 57.1 111.8 57.1C111.9 57.1 111.9 57.1 112 57.1C112.1 57.1 112.2 57.1 112.2 57.1H112.3C112.4 57.1 112.4 57.1 112.5 57.1C112.6 57.1 112.6 57.1 112.7 57.1C112.8 57.1 112.9 57.1 112.9 57.1H113C113.1 57.1 113.2 57.1 113.3 57.1H113.4C113.5 57.1 113.6 57.1 113.8 57.1C113.8 57.1 113.8 57.1 113.9 57.1C114 57.1 114.1 57.1 114.2 57.1H114.3C114.4 57.1 114.5 57.1 114.5 57.1H114.6C114.7 57.1 114.8 57.1 114.9 57H115C115.1 57 115.2 57.0001 115.2 56.9001H115.3C115.4 56.9001 115.5 56.8 115.7 56.8C115.7 56.8 115.7 56.8 115.8 56.8C115.9 56.8 116.1 56.7001 116.2 56.7001C116.3 56.7001 116.3 56.7 116.4 56.6C116.4 56.6 116.5 56.6 116.5 56.5C116.6 56.5 116.6 56.4001 116.7 56.4001C116.7 56.4001 116.8 56.4 116.8 56.3C116.9 56.3 116.9 56.2001 117 56.2001H117.1C117.2 56.2001 117.3 56.1 117.4 56C118.9 55.1 119.7 54 119.7 52.8L119.8 64.4001C119.8 65.5001 119 66.7 117.5 67.6C117.4 67.7 117.3 67.7001 117.2 67.8001H117.1C117 67.8001 117 67.9001 116.9 67.9001C116.9 67.9001 116.8 67.9 116.8 68C116.7 68 116.7 68.1 116.6 68.1C116.6 68.1 116.5 68.1 116.5 68.2C116.5 68.2 116.4 68.2001 116.4 68.3001C116.3 68.4001 116.1 68.4001 116 68.4001C116 68.4001 116 68.4001 115.9 68.4001C115.8 68.4001 115.7 68.5 115.5 68.5C115.5 68.5 115.5 68.5 115.4 68.5C115.4 68.5 115.4 68.5 115.3 68.5C115.2 68.5 115.1 68.5 115.1 68.6H115C114.9 68.6 114.8 68.6 114.7 68.7H114.6C114.5 68.7 114.4 68.7 114.4 68.7H114.3C114.2 68.7 114.1 68.7 114 68.7C114 68.7 114 68.7 113.9 68.7C113.8 68.7 113.7 68.7 113.5 68.7H113.4C113.3 68.7 113.2 68.7 113.1 68.7H113C112.9 68.7 112.8 68.7 112.8 68.7C112.7 68.7 112.7 68.7 112.6 68.7C112.5 68.7 112.5 68.7 112.4 68.7H112.3C112.2 68.7 112.1 68.7 112.1 68.7C112 68.7 112 68.7 111.9 68.7C111.8 68.7 111.8 68.7 111.7 68.7H111.6C111.5 68.7 111.4 68.7 111.3 68.7C111.2 68.7 111.2 68.7 111.1 68.7C111 68.7 110.9 68.7 110.9 68.7H110.8C110.8 68.7 110.8 68.7 110.7 68.7C110.6 68.7 110.4 68.7 110.3 68.7C110.3 68.7 110.3 68.7 110.2 68.7C110.1 68.7 109.9 68.7 109.8 68.6H109.7C109.6 68.6 109.6 68.6 109.5 68.6C109.4 68.6 109.4 68.6 109.3 68.6C109.2 68.6 109.2 68.6 109.1 68.6C109 68.6 109 68.6 108.9 68.6C108.8 68.6 108.8 68.6 108.7 68.5C108.6 68.5 108.6 68.5 108.5 68.5C108.4 68.5 108.4 68.5001 108.3 68.4001H108.2C108.2 68.4001 108.2 68.4001 108.1 68.4001C108 68.4001 107.9 68.3001 107.8 68.3001C107.8 68.3001 107.8 68.3001 107.7 68.3001C107.6 68.3001 107.4 68.2 107.3 68.1H107.2C107.1 68.1 107 68 106.9 68C106.9 68 106.8 68.0001 106.8 67.9001C106.7 67.8001 106.6 67.8 106.4 67.7C106.4 67.7 106.3 67.7 106.3 67.6C106.3 67.6 106.2 67.6 106.2 67.5L106.1 67.4001L106 67.3001L105.9 67.2L105.8 67.1L105.7 67L105.6 66.9001L105.5 66.8001L105.4 66.7C105.3 66.6 105.3 66.6 105.2 66.5L105.1 66.4001C105.1 66.4001 105.1 66.4001 105.1 66.3001L105 66.2C105 66.2 105 66.1 104.9 66.1L104.8 66C104.8 66 104.8 66.0001 104.8 65.9001C104.8 65.9001 104.8 65.8001 104.7 65.8001V65.7V65.6C104.7 65.6 104.7 65.6 104.7 65.5V65.4001V65.3001V65.2C104.7 65.2 104.7 65.2 104.7 65.1V65V64.9001V64.8001C104.7 64.8001 104.7 64.8 104.7 64.7C104.7 64.7 104.7 64.7 104.7 64.6L104.6 53C104.4 53.2 104.5 53.2 104.5 53.3Z" fill="#EBFDF8"/>
<path d="M104.5 53.3V53.4001V53.5V53.6V53.7001V53.8V53.9001V54V54.1V54.2001V54.3C104.5 54.3 104.5 54.4001 104.6 54.4001C104.6 54.4001 104.6 54.5 104.7 54.5L104.8 54.6C104.8 54.6 104.8 54.7001 104.9 54.7001L105 54.8C105 54.8 105 54.8001 105.1 54.9001L105.2 55C105.3 55.1 105.3 55.1001 105.4 55.2001L105.5 55.3L105.6 55.4001L105.7 55.5L105.8 55.6L105.9 55.7001L106 55.8L106.1 55.9001L106.2 56C106.3 56 106.3 56.1 106.4 56.1C106.5 56.2 106.6 56.2 106.8 56.3C106.8 56.3 106.9 56.3001 106.9 56.4001C107 56.4001 107.1 56.5 107.2 56.5H107.3C107.4 56.6 107.6 56.6001 107.7 56.7001C107.7 56.7001 107.7 56.7001 107.8 56.7001C107.9 56.7001 108 56.8 108.1 56.8H108.2C108.3 56.8 108.3 56.8001 108.4 56.9001C108.5 56.9001 108.5 56.9001 108.6 56.9001C108.7 56.9001 108.7 56.9 108.8 57C108.9 57 108.9 57 109 57C109.1 57 109.1 57 109.2 57C109.3 57 109.3 57 109.4 57C109.5 57 109.5 57 109.6 57C109.7 57 109.7 57 109.8 57C109.9 57 110.1 57 110.2 57.1C110.2 57.1 110.2 57.1 110.3 57.1C110.4 57.1 110.6 57.1 110.7 57.1H110.8C110.9 57.1 111 57.1 111 57.1C111.1 57.1 111.1 57.1 111.2 57.1C111.3 57.1 111.4 57.1 111.5 57.1H111.6C111.7 57.1 111.7 57.1 111.8 57.1C111.9 57.1 111.9 57.1 112 57.1C112.1 57.1 112.2 57.1 112.2 57.1H112.3C112.4 57.1 112.4 57.1 112.5 57.1C112.6 57.1 112.6 57.1 112.7 57.1C112.8 57.1 112.9 57.1 112.9 57.1H113C113.1 57.1 113.2 57.1 113.3 57.1H113.4C113.5 57.1 113.6 57.1 113.8 57.1C113.8 57.1 113.8 57.1 113.9 57.1C114 57.1 114.1 57.1 114.2 57.1H114.3C114.4 57.1 114.5 57.1 114.5 57.1H114.6C114.7 57.1 114.8 57.1 114.9 57H115C115.1 57 115.2 57.0001 115.2 56.9001H115.3C115.4 56.9001 115.5 56.8 115.7 56.8C115.7 56.8 115.7 56.8 115.8 56.8C115.9 56.8 116.1 56.7001 116.2 56.7001C116.3 56.7001 116.3 56.7 116.4 56.6C116.4 56.6 116.5 56.6 116.5 56.5C116.6 56.5 116.6 56.4001 116.7 56.4001C116.7 56.4001 116.8 56.4 116.8 56.3C116.9 56.3 116.9 56.2001 117 56.2001H117.1C117.2 56.2001 117.3 56.1 117.4 56C118.9 55.1 119.7 54 119.7 52.8L119.8 64.4001C119.8 65.5001 119 66.7 117.5 67.6C117.4 67.7 117.3 67.7001 117.2 67.8001H117.1C117 67.8001 117 67.9001 116.9 67.9001C116.9 67.9001 116.8 67.9 116.8 68C116.7 68 116.7 68.1 116.6 68.1C116.6 68.1 116.5 68.1 116.5 68.2C116.5 68.2 116.4 68.2001 116.4 68.3001C116.3 68.4001 116.1 68.4001 116 68.4001C116 68.4001 116 68.4001 115.9 68.4001C115.8 68.4001 115.7 68.5 115.5 68.5C115.5 68.5 115.5 68.5 115.4 68.5C115.4 68.5 115.4 68.5 115.3 68.5C115.2 68.5 115.1 68.5 115.1 68.6H115C114.9 68.6 114.8 68.6 114.7 68.7H114.6C114.5 68.7 114.4 68.7 114.4 68.7H114.3C114.2 68.7 114.1 68.7 114 68.7C114 68.7 114 68.7 113.9 68.7C113.8 68.7 113.7 68.7 113.5 68.7H113.4C113.3 68.7 113.2 68.7 113.1 68.7H113C112.9 68.7 112.8 68.7 112.8 68.7C112.7 68.7 112.7 68.7 112.6 68.7C112.5 68.7 112.5 68.7 112.4 68.7H112.3C112.2 68.7 112.1 68.7 112.1 68.7C112 68.7 112 68.7 111.9 68.7C111.8 68.7 111.8 68.7 111.7 68.7H111.6C111.5 68.7 111.4 68.7 111.3 68.7C111.2 68.7 111.2 68.7 111.1 68.7C111 68.7 110.9 68.7 110.9 68.7H110.8C110.8 68.7 110.8 68.7 110.7 68.7C110.6 68.7 110.4 68.7 110.3 68.7C110.3 68.7 110.3 68.7 110.2 68.7C110.1 68.7 109.9 68.7 109.8 68.6H109.7C109.6 68.6 109.6 68.6 109.5 68.6C109.4 68.6 109.4 68.6 109.3 68.6C109.2 68.6 109.2 68.6 109.1 68.6C109 68.6 109 68.6 108.9 68.6C108.8 68.6 108.8 68.6 108.7 68.5C108.6 68.5 108.6 68.5 108.5 68.5C108.4 68.5 108.4 68.5001 108.3 68.4001H108.2C108.2 68.4001 108.2 68.4001 108.1 68.4001C108 68.4001 107.9 68.3001 107.8 68.3001C107.8 68.3001 107.8 68.3001 107.7 68.3001C107.6 68.3001 107.4 68.2 107.3 68.1H107.2C107.1 68.1 107 68 106.9 68C106.9 68 106.8 68.0001 106.8 67.9001C106.7 67.8001 106.6 67.8 106.4 67.7C106.4 67.7 106.3 67.7 106.3 67.6C106.3 67.6 106.2 67.6 106.2 67.5L106.1 67.4001L106 67.3001L105.9 67.2L105.8 67.1L105.7 67L105.6 66.9001L105.5 66.8001L105.4 66.7C105.3 66.6 105.3 66.6 105.2 66.5L105.1 66.4001C105.1 66.4001 105.1 66.4001 105.1 66.3001L105 66.2C105 66.2 105 66.1 104.9 66.1L104.8 66C104.8 66 104.8 66.0001 104.8 65.9001C104.8 65.9001 104.8 65.8001 104.7 65.8001V65.7V65.6C104.7 65.6 104.7 65.6 104.7 65.5V65.4001V65.3001V65.2C104.7 65.2 104.7 65.2 104.7 65.1V65V64.9001V64.8001C104.7 64.8001 104.7 64.8 104.7 64.7C104.7 64.7 104.7 64.7 104.7 64.6L104.6 53C104.4 53.2 104.5 53.2 104.5 53.3Z" stroke="#171A21" stroke-width="2" stroke-miterlimit="10" stroke-linecap="round" stroke-linejoin="round"/>
<path d="M106.7 50.0001C103.7 51.7001 103.7 54.6001 106.7 56.3001C109.7 58.0001 114.5 58.0001 117.6 56.3001C120.6 54.6001 120.6 51.7001 117.6 50.0001C114.6 48.3001 109.7 48.3001 106.7 50.0001Z" fill="white" stroke="#171A21" stroke-width="2" stroke-miterlimit="10" stroke-linecap="round" stroke-linejoin="round"/>
<path d="M79.5998 127.8C79.5998 127.4 79.4998 127 79.3998 126.5C79.2998 126 79.1998 125.6 79.1998 125.1C79.0998 124.8 79.0998 124.5 78.9998 124.1C78.8998 123.8 78.8998 123.5 78.7998 123.2C78.6998 122.8 78.5998 122.4 78.4998 122C78.3998 121.8 78.3998 121.5 78.2998 121.3C78.1998 120.8 77.9998 120.4 77.7998 119.9C77.6998 119.7 77.6998 119.5 77.5998 119.3C77.3998 118.7 77.0998 118 76.7998 117.4C76.7998 117.3 76.6998 117.3 76.6998 117.2C76.3998 116.6 76.1998 116.1 75.8998 115.5C75.7998 115.3 75.6998 115.1 75.5998 115C75.2998 114.5 74.9998 114 74.7998 113.4C74.6998 113.3 74.6998 113.2 74.5998 113.1C74.1998 112.5 73.8998 111.9 73.4998 111.3C73.3998 111.1 73.2998 111 73.1998 110.8C72.8998 110.4 72.5998 110 72.2998 109.6C72.0998 109.4 71.9998 109.2 71.7998 108.9C71.4998 108.6 71.2998 108.2 70.9998 107.9C70.7998 107.6 70.5998 107.3 70.2998 107.1C70.0998 106.8 69.8998 106.6 69.5998 106.3C69.1998 105.9 68.7998 105.5 68.3998 105.1C68.1998 104.8 67.8998 104.6 67.6998 104.4C67.4998 104.2 67.2998 104 67.0998 103.9C66.7998 103.6 66.3998 103.3 66.0998 103C65.8998 102.8 65.6998 102.7 65.4998 102.5C65.0998 102.2 64.7998 101.9 64.3998 101.7C64.1998 101.6 64.0998 101.4 63.8998 101.3C63.3998 100.9 62.7998 100.6 62.1998 100.2C61.6998 99.9001 61.0998 99.6001 60.5998 99.4001C60.4998 99.3001 60.2998 99.3001 60.1998 99.2001C59.6998 99.0001 59.1998 98.8001 58.6998 98.6001H58.5998C58.1998 98.5001 57.6998 98.3001 57.2998 98.2001C57.0998 98.1001 56.7998 98.1001 56.5998 98.0001C56.2998 97.9001 55.9998 97.9001 55.6998 97.9001C55.4998 97.9001 55.2998 97.9001 55.1998 97.8001C54.7998 97.8001 54.3998 97.8001 54.0998 97.8001C53.9998 97.8001 53.8998 97.8001 53.7998 97.8001C53.3998 97.8001 52.8998 97.9001 52.4998 98.0001C52.3998 98.0001 52.2998 98.0001 52.1998 98.1001C51.8998 98.2001 51.5998 98.3001 51.1998 98.4001C51.0998 98.4001 50.9998 98.5001 50.8998 98.5001C50.4998 98.7001 50.0998 98.8001 49.7998 99.0001L63.9998 90.8001C63.9998 90.8001 64.0998 90.8001 64.0998 90.7001C64.3998 90.5001 64.6998 90.4001 64.9998 90.3001C65.0998 90.3001 65.0998 90.3001 65.1998 90.2001C65.2998 90.2001 65.3998 90.1001 65.4998 90.1001C65.6998 90.0001 65.7998 90.0001 65.9998 89.9001C66.1998 89.9001 66.2998 89.8001 66.4998 89.8001C66.5998 89.8001 66.6998 89.7001 66.7998 89.7001C66.8998 89.7001 66.8998 89.7001 66.9998 89.7001C67.2998 89.6001 67.6998 89.6001 68.0998 89.6001C68.0998 89.6001 68.0998 89.6001 68.1998 89.6001C68.2998 89.6001 68.3998 89.6001 68.4998 89.6001C68.7998 89.6001 69.0998 89.6001 69.2998 89.6001C69.3998 89.6001 69.4998 89.6001 69.5998 89.6001C69.7998 89.6001 69.8998 89.6001 70.0998 89.7001C70.2998 89.7001 70.3998 89.7001 70.5998 89.7001C70.6998 89.7001 70.8998 89.8001 70.9998 89.8001C71.1998 89.8001 71.4998 89.9001 71.6998 90.0001C71.7998 90.0001 71.9998 90.0001 72.0998 90.1001C72.3998 90.2001 72.6998 90.3001 72.9998 90.4001H73.0998C73.4998 90.5001 73.7998 90.7001 74.1998 90.8001C74.2998 90.9001 74.4998 90.9001 74.5998 91.0001C74.6998 91.1001 74.8998 91.1001 74.9998 91.2001C75.4998 91.4001 76.0998 91.7001 76.5998 92.0001C77.1998 92.3001 77.6998 92.7001 78.2998 93.1001C78.4998 93.2001 78.5998 93.4001 78.7998 93.5001C79.1998 93.8001 79.4998 94.0001 79.8998 94.3001C80.0998 94.5001 80.2998 94.6001 80.4998 94.8001C80.7998 95.1001 81.1998 95.4001 81.4998 95.7001C81.6998 95.9001 81.8998 96.1001 82.0998 96.2001C82.1998 96.3001 82.2998 96.4001 82.4998 96.5001C82.5998 96.6001 82.6998 96.8001 82.8998 96.9001C83.2998 97.3001 83.6998 97.7001 84.0998 98.1001C84.1998 98.2001 84.3998 98.4001 84.4998 98.5001C84.5998 98.6001 84.6998 98.7001 84.7998 98.9001C84.9998 99.2001 85.2998 99.4001 85.4998 99.7001C85.5998 99.9001 85.7998 100.1 85.8998 100.2C85.9998 100.4 86.0998 100.5 86.1998 100.7C86.3998 100.9 86.4998 101.1 86.6998 101.4C86.7998 101.6 86.8998 101.7 86.9998 101.8C87.1998 102.1 87.3998 102.3 87.4998 102.6C87.5998 102.8 87.6998 102.9 87.7998 103.1C87.7998 103.2 87.8998 103.2 87.8998 103.3C88.1998 103.8 88.4998 104.3 88.7998 104.8C88.7998 104.8 88.7998 104.9 88.8998 104.9C88.9998 105 88.9998 105.1 89.0998 105.2C89.2998 105.5 89.4998 105.9 89.6998 106.2C89.7998 106.4 89.8998 106.5 89.9998 106.7C90.0998 106.9 90.1998 107.1 90.2998 107.2C90.3998 107.4 90.4998 107.5 90.4998 107.7C90.6998 108.1 90.8998 108.5 91.0998 108.9C91.0998 109 91.1998 109 91.1998 109.1C91.1998 109.1 91.1998 109.1 91.1998 109.2C91.3998 109.7 91.5998 110.2 91.7998 110.8C91.7998 110.9 91.8998 111 91.8998 111.1C91.9998 111.3 91.9998 111.5 92.0998 111.7C92.1998 112 92.2998 112.2 92.3998 112.5C92.4998 112.7 92.4998 112.9 92.5998 113.1C92.6998 113.3 92.7998 113.6 92.7998 113.8C92.7998 113.9 92.8998 114.1 92.8998 114.2C92.9998 114.5 92.9998 114.7 93.0998 115C93.1998 115.3 93.2998 115.6 93.2998 115.9C93.2998 116 93.3998 116.1 93.3998 116.2C93.3998 116.4 93.4998 116.6 93.4998 116.8C93.5998 117.3 93.6998 117.7 93.6998 118.2C93.6998 118.3 93.6998 118.5 93.7998 118.6C93.7998 118.9 93.8998 119.2 93.8998 119.5C93.8998 119.7 93.8998 119.9 93.9998 120.1C93.9998 120.7 94.0998 121.4 94.0998 122C94.0998 127.5 92.0998 131.4 88.9998 133.2L74.7998 141.4C77.8998 139.6 79.8998 135.7 79.8998 130.2C79.8998 129.6 79.8998 128.9 79.7998 128.3C79.5998 128.2 79.5998 128 79.5998 127.8Z" fill="#EBFDF8"/>
<path d="M52.2994 98.1001C51.9994 98.2001 51.6994 98.3001 51.2994 98.4001C51.1994 98.4001 51.0994 98.5001 50.9994 98.5001C50.5994 98.7001 50.1994 98.8001 49.8994 99.0001L64.0994 90.8001C64.0994 90.8001 64.1994 90.8001 64.1994 90.7001C64.4994 90.5001 64.7994 90.4001 65.0994 90.3001C65.1994 90.3001 65.1994 90.3001 65.2994 90.2001C65.3994 90.2001 65.4994 90.1001 65.5994 90.1001C65.7994 90.0001 65.8994 90.0001 66.0994 89.9001C66.2994 89.9001 66.3994 89.8001 66.5994 89.8001C66.6994 89.8001 66.7994 89.7001 66.8994 89.7001C66.9994 89.7001 66.9994 89.7001 67.0994 89.7001C67.3994 89.6001 67.7994 89.6001 68.1994 89.6001C68.1994 89.6001 68.1994 89.6001 68.2994 89.6001C68.3994 89.6001 68.4994 89.6001 68.5994 89.6001C68.8994 89.6001 69.1994 89.6001 69.3994 89.6001C69.4994 89.6001 69.5994 89.6001 69.6994 89.6001C69.8994 89.6001 69.9994 89.6001 70.1994 89.7001C70.3994 89.7001 70.4994 89.7001 70.6994 89.7001C70.7994 89.7001 70.9994 89.8001 71.0994 89.8001C71.2994 89.8001 71.5994 89.9001 71.7994 90.0001C71.8994 90.0001 72.0994 90.0001 72.1994 90.1001C72.4994 90.2001 72.7994 90.3001 73.0994 90.4001H73.1994C73.5994 90.5001 73.8994 90.7001 74.2994 90.8001C74.3994 90.9001 74.5994 90.9001 74.6994 91.0001C74.7994 91.1001 74.9994 91.1001 75.0994 91.2001C75.5994 91.4001 76.1994 91.7001 76.6994 92.0001C77.2994 92.3001 77.7994 92.7001 78.3994 93.1001C78.5994 93.2001 78.6994 93.4001 78.8994 93.5001C79.2994 93.8001 79.5994 94.0001 79.9994 94.3001C80.1994 94.5001 80.3994 94.6001 80.5994 94.8001C80.8994 95.1001 81.2994 95.4001 81.5994 95.7001C81.7994 95.9001 81.9994 96.1001 82.1994 96.2001C82.2994 96.3001 82.3994 96.4001 82.5994 96.5001C82.6994 96.6001 82.7994 96.8001 82.9994 96.9001C83.3994 97.3001 83.7994 97.7001 84.1994 98.1001C84.2994 98.2001 84.4994 98.4001 84.5994 98.5001C84.6994 98.6001 84.7994 98.7001 84.8994 98.9001C85.0994 99.2001 85.3994 99.4001 85.5994 99.7001C85.6994 99.9001 85.8994 100.1 85.9994 100.2C86.0994 100.4 86.1994 100.5 86.2994 100.7C86.4994 100.9 86.5994 101.1 86.7994 101.4C86.8994 101.6 86.9994 101.7 87.0994 101.8C87.2994 102.1 87.4994 102.3 87.5994 102.6C87.6994 102.8 87.7994 102.9 87.8994 103.1C87.8994 103.2 87.9994 103.2 87.9994 103.3C88.2994 103.8 88.5994 104.3 88.8994 104.8C88.8994 104.8 88.8994 104.9 88.9994 104.9C89.0994 105 89.0994 105.1 89.1994 105.2C89.3994 105.5 89.5994 105.9 89.7994 106.2C89.8994 106.4 89.9994 106.5 90.0994 106.7C90.1994 106.9 90.2994 107.1 90.3994 107.2C90.4994 107.4 90.5994 107.5 90.5994 107.7C90.7994 108.1 90.9994 108.5 91.1994 108.9C91.1994 109 91.2994 109 91.2994 109.1C91.2994 109.1 91.2994 109.1 91.2994 109.2C91.4994 109.7 91.6994 110.2 91.8994 110.8C91.8994 110.9 91.9994 111 91.9994 111.1C92.0994 111.3 92.0994 111.5 92.1994 111.7C92.2994 112 92.3994 112.2 92.4994 112.5C92.5994 112.7 92.5994 112.9 92.6994 113.1C92.7994 113.3 92.8994 113.6 92.8994 113.8C92.8994 113.9 92.9994 114.1 92.9994 114.2C93.0994 114.5 93.0994 114.7 93.1994 115C93.2994 115.3 93.3994 115.6 93.3994 115.9C93.3994 116 93.4994 116.1 93.4994 116.2C93.4994 116.4 93.5994 116.6 93.5994 116.8C93.6994 117.3 93.7994 117.7 93.7994 118.2C93.7994 118.3 93.7994 118.5 93.8994 118.6C93.8994 118.9 93.9994 119.2 93.9994 119.5C93.9994 119.7 93.9994 119.9 94.0994 120.1C94.0994 120.7 94.1994 121.4 94.1994 122C94.1994 127.5 92.1994 131.4 89.0994 133.2L74.8994 141.4" stroke="#171A21" stroke-width="2" stroke-miterlimit="10" stroke-linecap="round" stroke-linejoin="round"/>
<path d="M62.2998 100.2C52.6998 94.6 44.7998 99.1 44.7998 110.2C44.7998 121.3 52.5998 134.8 62.1998 140.3C71.7998 145.9 79.6998 141.4 79.6998 130.3C79.6998 119.3 71.9998 105.8 62.2998 100.2Z" fill="#9AF4DC"/>
<path d="M61 109.9C59.7 109.2 58.7 109.8 58.7 111.2V116.2L54.3 113.7C53 113 52 113.6 52 115C52 116.5 53 118.3 54.3 119L58.7 121.5V126.6C58.7 128.1 59.7 129.9 61 130.6C62.3 131.3 63.3 130.7 63.3 129.3V124.2L67.7 126.7C69 127.4 70 126.8 70 125.4C70 123.9 69 122.1 67.7 121.4L63.3 118.9V113.9C63.3 112.4 62.3 110.6 61 109.9Z" fill="white"/>
</svg>
