<svg width="144" height="144" viewBox="0 0 144 144" fill="none" xmlns="http://www.w3.org/2000/svg">
<g clip-path="url(#clip0)">
<path d="M35.9999 81.9C60.5999 67.7 100.4 67.7 124.8 81.9C149.2 96.1 149.1 119.1 124.5 133.3C99.8999 147.5 60.0999 147.5 35.6999 133.3C11.2999 119.2 11.3999 96.1 35.9999 81.9Z" fill="#9AF4DC"/>
<path d="M39.7998 77C39.7998 77.2 39.7998 77.4 39.7998 77.6C39.7998 77.8 39.7998 78 39.8998 78.1C39.8998 78.3 39.9998 78.5 39.9998 78.7C39.9998 78.9 40.0998 79.1 40.0998 79.2C40.0998 79.4 40.1998 79.6 40.1998 79.8C40.1998 80 40.2998 80.2 40.3998 80.3C40.4998 80.5 40.4998 80.7 40.5998 80.9C40.6998 81.1 40.6998 81.2 40.7998 81.4C40.8998 81.6 40.9998 81.8 41.0998 82C41.1998 82.2 41.2998 82.3 41.2998 82.5C41.3998 82.7 41.4998 82.9 41.5998 83.1C41.6998 83.3 41.7998 83.4 41.8998 83.6C41.9998 83.8 42.1998 84.1 42.2998 84.3C42.3998 84.4 42.4998 84.6 42.5998 84.7C42.7998 85 42.9998 85.2 43.1998 85.5C43.2998 85.6 43.3998 85.7 43.4998 85.9C43.4998 86 43.5998 86 43.5998 86.1C43.7998 86.4 43.9998 86.6 44.2998 86.9C44.3998 87 44.3998 87 44.4998 87.1C44.7998 87.4 45.0998 87.7 45.2998 88C45.3998 88.1 45.3998 88.1 45.4998 88.2C45.6998 88.4 45.9998 88.6 46.1998 88.8C46.3998 89 46.5998 89.1 46.7998 89.3C46.9998 89.5 47.1998 89.6 47.3998 89.8C47.5998 90 47.7998 90.1 47.9998 90.3C48.1998 90.5 48.3998 90.6 48.5998 90.8C48.7998 91 49.0998 91.1 49.2998 91.3C49.4998 91.4 49.6998 91.6 49.8998 91.7C50.0998 91.9 50.3998 92 50.5998 92.2C50.8998 92.4 51.1998 92.6 51.4998 92.8C52.0998 93.2 52.6998 93.5 53.3998 93.8C53.5998 93.9 53.7998 94 53.9998 94.1C54.4998 94.3 54.9998 94.6 55.4998 94.8C55.6998 94.9 55.7998 95 55.9998 95C56.6998 95.3 57.2998 95.6 57.9998 95.8C58.0998 95.8 58.1998 95.9 58.3998 95.9C58.9998 96.1 59.5998 96.3 60.1998 96.5C60.3998 96.6 60.6998 96.7 60.8998 96.7C61.1998 96.8 61.5998 96.9 61.8998 97C62.1998 97.1 62.4998 97.2 62.6998 97.2C62.9998 97.3 63.3998 97.4 63.6998 97.5C63.9998 97.6 64.2998 97.6 64.5998 97.7C64.8998 97.8 65.2998 97.9 65.5998 97.9C65.8998 98 66.1998 98 66.4998 98.1C66.8998 98.2 67.1998 98.2 67.5998 98.3C67.8998 98.4 68.0998 98.4 68.3998 98.5C69.1998 98.6 69.8998 98.8 70.6998 98.9C70.7998 98.9 70.8998 98.9 70.9998 98.9C71.6998 99 72.2998 99.1 72.9998 99.1C73.2998 99.1 73.4998 99.2 73.7998 99.2C74.1998 99.2 74.6998 99.3 75.0998 99.3C75.3998 99.3 75.5998 99.3 75.8998 99.4C76.3998 99.4 76.7998 99.4 77.2998 99.5C77.5998 99.5 77.7998 99.5 78.0998 99.5C78.4998 99.5 78.8998 99.5 79.2998 99.5C79.5998 99.5 79.8998 99.5 80.0998 99.5C80.4998 99.5 80.8998 99.5 81.3998 99.5C81.5998 99.5 81.8998 99.5 82.0998 99.5C82.4998 99.5 82.8998 99.5 83.2998 99.5C83.5998 99.5 83.7998 99.5 84.0998 99.5C84.4998 99.5 84.8998 99.4 85.2998 99.4C85.4998 99.4 85.7998 99.4 85.9998 99.4C86.4998 99.4 86.9998 99.3 87.4998 99.3C87.6998 99.3 87.7998 99.3 87.9998 99.3C88.5998 99.2 89.2998 99.1 89.8998 99.1C89.9998 99.1 90.0998 99.1 90.1998 99.1C90.7998 99 91.2998 98.9 91.7998 98.8C91.9998 98.8 92.2998 98.7 92.4998 98.7C92.8998 98.6 93.2998 98.5 93.6998 98.5C93.8998 98.5 94.0998 98.4 94.2998 98.4C94.7998 98.3 95.1998 98.2 95.6998 98.1C95.9998 98 96.1998 98 96.3998 97.9C96.7998 97.8 97.1998 97.7 97.5998 97.6C97.7998 97.5 98.0998 97.5 98.2998 97.4C98.8998 97.2 99.5998 97 100.2 96.8C100.3 96.8 100.4 96.7 100.5 96.7C101.2 96.5 101.9 96.2 102.6 95.9C102.9 95.8 103.2 95.7 103.5 95.6C103.7 95.5 103.9 95.4 104.2 95.3C104.5 95.2 104.8 95 105.1 94.9C105.3 94.8 105.5 94.7 105.7 94.6C106 94.4 106.4 94.3 106.7 94.1C106.9 94 107 93.9 107.2 93.8C107.7 93.5 108.2 93.3 108.7 93C113.7 90.1 117.1 86.7 119 83C120.1 80.8 120.7 78.5 120.7 76.3L120.8 102.2C120.8 108.2 116.8 114.3 108.9 118.9C108.4 119.2 107.9 119.4 107.4 119.7C107.2 119.8 107.1 119.9 106.9 120C106.6 120.2 106.2 120.3 105.9 120.5C105.7 120.6 105.5 120.7 105.3 120.8C105 120.9 104.7 121.1 104.4 121.2C104.2 121.3 104 121.4 103.7 121.5C103.5 121.6 103.3 121.7 103.1 121.8C103 121.8 103 121.8 102.9 121.9C102.2 122.2 101.5 122.4 100.8 122.7C100.7 122.7 100.6 122.8 100.5 122.8C99.8998 123 99.1998 123.2 98.5998 123.4C98.4998 123.4 98.3998 123.5 98.2998 123.5C98.1998 123.5 98.0998 123.6 97.8998 123.6C97.4998 123.7 97.0998 123.8 96.6998 123.9C96.4998 124 96.1998 124 95.9998 124.1C95.4998 124.2 95.0998 124.3 94.5998 124.4C94.3998 124.4 94.2998 124.5 94.0998 124.5H93.9998C93.5998 124.6 93.1998 124.7 92.6998 124.7C92.4998 124.7 92.2998 124.8 91.9998 124.8C91.4998 124.9 90.8998 125 90.2998 125.1C90.1998 125.1 90.0998 125.1 89.9998 125.1C89.3998 125.2 88.6998 125.3 88.0998 125.3C87.9998 125.3 87.7998 125.3 87.6998 125.3C87.1998 125.4 86.6998 125.4 86.1998 125.4C85.9998 125.4 85.7998 125.4 85.4998 125.4C85.0998 125.4 84.6998 125.5 84.2998 125.5C83.9998 125.5 83.7998 125.5 83.4998 125.5C83.0998 125.5 82.6998 125.5 82.2998 125.5H82.1998C81.9998 125.5 81.7998 125.5 81.4998 125.5C81.0998 125.5 80.6998 125.5 80.1998 125.5C79.8998 125.5 79.5998 125.5 79.3998 125.5C78.9998 125.5 78.5998 125.5 78.1998 125.5C78.0998 125.5 78.0998 125.5 77.9998 125.5C77.7998 125.5 77.5998 125.5 77.4998 125.5C76.9998 125.5 76.5998 125.5 76.0998 125.4C75.7998 125.4 75.5998 125.4 75.2998 125.3C74.8998 125.3 74.3998 125.2 73.9998 125.2C73.7998 125.2 73.6998 125.2 73.4998 125.2C73.3998 125.2 73.2998 125.2 73.1998 125.2C72.4998 125.1 71.8998 125 71.1998 125C71.0998 125 70.9998 125 70.8998 125C70.0998 124.9 69.3998 124.8 68.5998 124.6C68.4998 124.6 68.4998 124.6 68.3998 124.6C68.1998 124.6 67.9998 124.5 67.7998 124.5C67.3998 124.4 67.0998 124.4 66.6998 124.3C66.3998 124.2 66.0998 124.2 65.7998 124.1C65.4998 124 65.0998 123.9 64.7998 123.9C64.4998 123.8 64.1998 123.8 63.9998 123.7C63.6998 123.6 63.2998 123.5 62.9998 123.4C62.6998 123.3 62.3998 123.2 62.1998 123.2C61.8998 123.1 61.4998 123 61.1998 122.9C61.0998 122.9 60.8998 122.8 60.7998 122.8C60.6998 122.8 60.5998 122.7 60.4998 122.7C59.8998 122.5 59.2998 122.3 58.6998 122.1C58.5998 122.1 58.4998 122 58.2998 122C57.5998 121.7 56.8998 121.5 56.2998 121.2C56.0998 121.1 55.9998 121 55.7998 121C55.2998 120.8 54.7998 120.5 54.2998 120.3C54.0998 120.2 53.8998 120.1 53.7998 120C53.1998 119.7 52.4998 119.3 51.8998 119C51.6998 118.9 51.5998 118.8 51.3998 118.7C51.1998 118.6 51.0998 118.5 50.9998 118.4C50.7998 118.2 50.4998 118.1 50.2998 117.9C50.0998 117.8 49.8998 117.6 49.6998 117.5C49.4998 117.3 49.1998 117.2 48.9998 117C48.7998 116.9 48.5998 116.7 48.3998 116.5C48.1998 116.3 47.9998 116.2 47.7998 116C47.5998 115.8 47.3998 115.7 47.1998 115.5C46.9998 115.3 46.7998 115.2 46.5998 115C46.4998 114.9 46.3998 114.9 46.3998 114.8C46.1998 114.7 46.0998 114.5 45.8998 114.4C45.7998 114.3 45.7998 114.3 45.6998 114.2C45.3998 113.9 45.0998 113.6 44.8998 113.3C44.7998 113.2 44.7998 113.2 44.6998 113.1C44.4998 112.8 44.2998 112.6 43.9998 112.3C43.9998 112.2 43.8998 112.2 43.8998 112.1C43.8998 112.1 43.8998 112 43.7998 112C43.6998 111.9 43.6998 111.8 43.5998 111.7C43.3998 111.4 43.1998 111.2 42.9998 110.9C42.8998 110.8 42.7998 110.6 42.6998 110.5C42.4998 110.3 42.3998 110 42.2998 109.8C42.2998 109.7 42.1998 109.7 42.1998 109.6C42.0998 109.5 42.0998 109.4 41.9998 109.3C41.8998 109.1 41.7998 108.9 41.6998 108.7C41.5998 108.5 41.4998 108.4 41.4998 108.2C41.3998 108 41.2998 107.8 41.1998 107.6C41.1998 107.5 41.0998 107.4 41.0998 107.3C41.0998 107.2 40.9998 107.1 40.9998 107.1C40.8998 106.9 40.8998 106.7 40.7998 106.5C40.6998 106.3 40.6998 106.1 40.5998 106C40.4998 105.8 40.4998 105.6 40.4998 105.4C40.4998 105.3 40.3998 105.2 40.3998 105.1C40.3998 105 40.3998 105 40.3998 104.9C40.3998 104.7 40.2998 104.5 40.2998 104.3C40.2998 104.1 40.2998 103.9 40.1998 103.8C40.1998 103.6 40.1998 103.4 40.1998 103.2C40.1998 103.1 40.1998 103 40.1998 102.8C40.1998 102.7 40.1998 102.6 40.1998 102.4L40.0998 76.5C39.7998 76.5 39.7998 76.7 39.7998 77Z" fill="#9AF4DC"/>
<path d="M39.7998 92.5999C39.7998 92.7999 39.7998 92.9999 39.7998 93.1999C39.7998 93.3999 39.7998 93.5999 39.8998 93.6999C39.8998 93.8999 39.9998 94.0999 39.9998 94.2999C39.9998 94.4999 40.0998 94.6999 40.0998 94.7999C40.0998 94.9999 40.1998 95.1999 40.1998 95.3999C40.1998 95.5999 40.2998 95.7999 40.3998 95.8999C40.4998 96.0999 40.4998 96.2999 40.5998 96.4999C40.6998 96.6999 40.6998 96.7999 40.7998 96.9999C40.8998 97.1999 40.9998 97.3999 41.0998 97.5999C41.1998 97.7999 41.2998 97.8999 41.2998 98.0999C41.3998 98.2999 41.4998 98.4999 41.5998 98.6999C41.6998 98.8999 41.7998 98.9999 41.8998 99.1999C41.9998 99.3999 42.1998 99.6999 42.2998 99.8999C42.3998 99.9999 42.4998 100.2 42.5998 100.3C42.7998 100.6 42.9998 100.8 43.1998 101.1C43.2998 101.2 43.3998 101.3 43.4998 101.5C43.4998 101.6 43.5998 101.6 43.5998 101.7C43.7998 102 43.9998 102.2 44.2998 102.5C44.3998 102.6 44.3998 102.6 44.4998 102.7C44.7998 103 45.0998 103.3 45.2998 103.6C45.3998 103.7 45.3998 103.7 45.4998 103.8C45.6998 104 45.9998 104.2 46.1998 104.4C46.3998 104.6 46.5998 104.7 46.7998 104.9C46.9998 105.1 47.1998 105.2 47.3998 105.4C47.5998 105.6 47.7998 105.7 47.9998 105.9C48.1998 106.1 48.3998 106.2 48.5998 106.4C48.7998 106.6 49.0998 106.7 49.2998 106.9C49.4998 107 49.6998 107.2 49.8998 107.3C50.0998 107.5 50.3998 107.6 50.5998 107.8C50.8998 108 51.1998 108.2 51.4998 108.4C52.0998 108.8 52.6998 109.1 53.3998 109.4C53.5998 109.5 53.7998 109.6 53.9998 109.7C54.4998 109.9 54.9998 110.2 55.4998 110.4C55.6998 110.5 55.7998 110.6 55.9998 110.6C56.6998 110.9 57.2998 111.2 57.9998 111.4C58.0998 111.4 58.1998 111.5 58.3998 111.5C58.9998 111.7 59.5998 111.9 60.1998 112.1C60.3998 112.2 60.6998 112.3 60.8998 112.3C61.1998 112.4 61.5998 112.5 61.8998 112.6C62.1998 112.7 62.4998 112.8 62.6998 112.8C62.9998 112.9 63.3998 113 63.6998 113.1C63.9998 113.2 64.2998 113.2 64.5998 113.3C64.8998 113.4 65.2998 113.5 65.5998 113.5C65.8998 113.6 66.1998 113.6 66.4998 113.7C66.8998 113.8 67.1998 113.8 67.5998 113.9C67.8998 114 68.0998 114 68.3998 114.1C69.1998 114.2 69.8998 114.4 70.6998 114.5C70.7998 114.5 70.8998 114.5 70.9998 114.5C71.6998 114.6 72.2998 114.7 72.9998 114.7C73.2998 114.7 73.4998 114.8 73.7998 114.8C74.1998 114.8 74.6998 114.9 75.0998 114.9C75.3998 114.9 75.5998 114.9 75.8998 115C76.3998 115 76.7998 115 77.2998 115.1C77.5998 115.1 77.7998 115.1 78.0998 115.1C78.4998 115.1 78.8998 115.1 79.2998 115.1C79.5998 115.1 79.8998 115.1 80.0998 115.1C80.4998 115.1 80.8998 115.1 81.3998 115.1C81.5998 115.1 81.8998 115.1 82.0998 115.1C82.4998 115.1 82.8998 115.1 83.2998 115.1C83.5998 115.1 83.7998 115.1 84.0998 115.1C84.4998 115.1 84.8998 115 85.2998 115C85.4998 115 85.7998 115 85.9998 115C86.4998 115 86.9998 114.9 87.4998 114.9C87.6998 114.9 87.7998 114.9 87.9998 114.9C88.5998 114.8 89.2998 114.7 89.8998 114.7C89.9998 114.7 90.0998 114.7 90.1998 114.7C90.7998 114.6 91.2998 114.5 91.7998 114.4C91.9998 114.4 92.2998 114.3 92.4998 114.3C92.8998 114.2 93.2998 114.1 93.6998 114.1C93.8998 114.1 94.0998 114 94.2998 114C94.7998 113.9 95.1998 113.8 95.6998 113.7C95.9998 113.6 96.1998 113.6 96.3998 113.5C96.7998 113.4 97.1998 113.3 97.5998 113.2C97.7998 113.1 98.0998 113.1 98.2998 113C98.8998 112.8 99.5998 112.6 100.2 112.4C100.3 112.4 100.4 112.3 100.5 112.3C101.2 112.1 101.9 111.8 102.6 111.5C102.9 111.4 103.2 111.3 103.5 111.2C103.7 111.1 103.9 111 104.2 110.9C104.5 110.8 104.8 110.6 105.1 110.5C105.3 110.4 105.5 110.3 105.7 110.2C106 110 106.4 109.9 106.7 109.7C106.9 109.6 107 109.5 107.2 109.4C107.7 109.1 108.2 108.9 108.7 108.6C113.7 105.7 117.1 102.3 119 98.5999C120.1 96.3999 120.7 94.0999 120.7 91.8999L120.8 102.2C120.8 108.2 116.8 114.3 108.9 118.9C108.4 119.2 107.9 119.4 107.4 119.7C107.2 119.8 107.1 119.9 106.9 120C106.6 120.2 106.2 120.3 105.9 120.5C105.7 120.6 105.5 120.7 105.3 120.8C105 120.9 104.7 121.1 104.4 121.2C104.2 121.3 104 121.4 103.7 121.5C103.5 121.6 103.3 121.7 103.1 121.8C103 121.8 103 121.8 102.9 121.9C102.2 122.2 101.5 122.4 100.8 122.7C100.7 122.7 100.6 122.8 100.5 122.8C99.8998 123 99.1998 123.2 98.5998 123.4C98.4998 123.4 98.3998 123.5 98.2998 123.5C98.1998 123.5 98.0998 123.6 97.8998 123.6C97.4998 123.7 97.0998 123.8 96.6998 123.9C96.4998 124 96.1998 124 95.9998 124.1C95.4998 124.2 95.0998 124.3 94.5998 124.4C94.3998 124.4 94.2998 124.5 94.0998 124.5H93.9998C93.5998 124.6 93.1998 124.7 92.6998 124.7C92.4998 124.7 92.2998 124.8 91.9998 124.8C91.4998 124.9 90.8998 125 90.2998 125.1C90.1998 125.1 90.0998 125.1 89.9998 125.1C89.3998 125.2 88.6998 125.3 88.0998 125.3C87.9998 125.3 87.7998 125.3 87.6998 125.3C87.1998 125.4 86.6998 125.4 86.1998 125.4C85.9998 125.4 85.7998 125.4 85.4998 125.4C85.0998 125.4 84.6998 125.5 84.2998 125.5C83.9998 125.5 83.7998 125.5 83.4998 125.5C83.0998 125.5 82.6998 125.5 82.2998 125.5H82.1998C81.9998 125.5 81.7998 125.5 81.4998 125.5C81.0998 125.5 80.6998 125.5 80.1998 125.5C79.8998 125.5 79.5998 125.5 79.3998 125.5C78.9998 125.5 78.5998 125.5 78.1998 125.5C78.0998 125.5 78.0998 125.5 77.9998 125.5C77.7998 125.5 77.5998 125.5 77.4998 125.5C76.9998 125.5 76.5998 125.5 76.0998 125.4C75.7998 125.4 75.5998 125.4 75.2998 125.3C74.8998 125.3 74.3998 125.2 73.9998 125.2C73.7998 125.2 73.6998 125.2 73.4998 125.2C73.3998 125.2 73.2998 125.2 73.1998 125.2C72.4998 125.1 71.8998 125 71.1998 125C71.0998 125 70.9998 125 70.8998 125C70.0998 124.9 69.3998 124.8 68.5998 124.6C68.4998 124.6 68.4998 124.6 68.3998 124.6C68.1998 124.6 67.9998 124.5 67.7998 124.5C67.3998 124.4 67.0998 124.4 66.6998 124.3C66.3998 124.2 66.0998 124.2 65.7998 124.1C65.4998 124 65.0998 123.9 64.7998 123.9C64.4998 123.8 64.1998 123.8 63.9998 123.7C63.6998 123.6 63.2998 123.5 62.9998 123.4C62.6998 123.3 62.3998 123.2 62.1998 123.2C61.8998 123.1 61.4998 123 61.1998 122.9C61.0998 122.9 60.8998 122.8 60.7998 122.8C60.6998 122.8 60.5998 122.7 60.4998 122.7C59.8998 122.5 59.2998 122.3 58.6998 122.1C58.5998 122.1 58.4998 122 58.2998 122C57.5998 121.7 56.8998 121.5 56.2998 121.2C56.0998 121.1 55.9998 121 55.7998 121C55.2998 120.8 54.7998 120.5 54.2998 120.3C54.0998 120.2 53.8998 120.1 53.7998 120C53.1998 119.7 52.4998 119.3 51.8998 119C51.6998 118.9 51.5998 118.8 51.3998 118.7C51.1998 118.6 51.0998 118.5 50.9998 118.4C50.7998 118.2 50.4998 118.1 50.2998 117.9C50.0998 117.8 49.8998 117.6 49.6998 117.5C49.4998 117.3 49.1998 117.2 48.9998 117C48.7998 116.9 48.5998 116.7 48.3998 116.5C48.1998 116.3 47.9998 116.2 47.7998 116C47.5998 115.8 47.3998 115.7 47.1998 115.5C46.9998 115.3 46.7998 115.2 46.5998 115C46.4998 114.9 46.3998 114.9 46.3998 114.8C46.1998 114.7 46.0998 114.5 45.8998 114.4C45.7998 114.3 45.7998 114.3 45.6998 114.2C45.3998 113.9 45.0998 113.6 44.8998 113.3C44.7998 113.2 44.7998 113.2 44.6998 113.1C44.4998 112.8 44.2998 112.6 43.9998 112.3C43.9998 112.2 43.8998 112.2 43.8998 112.1C43.8998 112.1 43.8998 112 43.7998 112C43.6998 111.9 43.6998 111.8 43.5998 111.7C43.3998 111.4 43.1998 111.2 42.9998 110.9C42.8998 110.8 42.7998 110.6 42.6998 110.5C42.4998 110.3 42.3998 110 42.2998 109.8C42.2998 109.7 42.1998 109.7 42.1998 109.6C42.0998 109.5 42.0998 109.4 41.9998 109.3C41.8998 109.1 41.7998 108.9 41.6998 108.7C41.5998 108.5 41.4998 108.4 41.4998 108.2C41.3998 108 41.2998 107.8 41.1998 107.6C41.1998 107.5 41.0998 107.4 41.0998 107.3C41.0998 107.2 40.9998 107.1 40.9998 107.1C40.8998 106.9 40.8998 106.7 40.7998 106.5C40.6998 106.3 40.6998 106.1 40.5998 106C40.4998 105.8 40.4998 105.6 40.4998 105.4C40.4998 105.3 40.3998 105.2 40.3998 105.1C40.3998 105 40.3998 105 40.3998 104.9C40.3998 104.7 40.2998 104.5 40.2998 104.3C40.2998 104.1 40.2998 103.9 40.1998 103.8C40.1998 103.6 40.1998 103.4 40.1998 103.2C40.1998 103.1 40.1998 103 40.1998 102.8C40.1998 102.7 40.1998 102.6 40.1998 102.4L40.0998 92.0999C39.7998 92.0999 39.7998 92.2999 39.7998 92.5999Z" fill="white"/>
<path d="M51.6999 59.6C35.8999 68.7 35.7999 83.6 51.4999 92.7C67.1999 101.8 92.7999 101.8 108.7 92.7C124.5 83.6 124.6 68.7 108.9 59.6C93.1999 50.4 67.5999 50.4 51.6999 59.6Z" fill="#EBFDF8"/>
<path d="M120.699 102V75.9999C120.699 75.9999 120.699 75.9999 120.699 76.0999C120.699 70.0999 116.799 64.1999 108.999 59.5999C93.2995 50.4999 67.6995 50.4999 51.7995 59.5999C43.5995 64.2999 39.5995 70.5999 39.8995 76.7999C39.8995 76.5999 39.8995 76.4999 39.8995 76.2999L39.9995 102.2" stroke="#171A21" stroke-width="2" stroke-miterlimit="10" stroke-linecap="round" stroke-linejoin="round"/>
<path d="M110.3 60.3999L90.5 66.8999L93.3 75.9999L78.5 82.3999V89.3999" stroke="#171A21" stroke-width="2" stroke-miterlimit="10" stroke-linecap="round" stroke-linejoin="round"/>
<path d="M70.7998 74.6999L71.9998 67.8999L80.9998 71.2999L90.4998 66.8999" stroke="#171A21" stroke-width="2" stroke-miterlimit="10" stroke-linecap="round" stroke-linejoin="round"/>
<path d="M72.3004 51.6999C72.3004 51.5999 72.3004 51.3999 72.3004 51.2999V51.1999C72.3004 51.0999 72.3004 50.9999 72.2004 50.8999C72.2004 50.8999 72.2004 50.8999 72.2004 50.7999C72.2004 50.6999 72.1004 50.4999 72.1004 50.3999V50.2999C72.1004 50.1999 72.0004 50.0999 72.0004 49.9999C72.0004 49.9999 72.0004 49.9999 72.0004 49.8999C72.0004 49.7999 71.9004 49.5999 71.9004 49.4999V49.3999C71.9004 49.2999 71.8004 49.1999 71.8004 49.0999C71.8004 49.0999 71.8004 49.0999 71.8004 48.9999C71.7004 48.8999 71.7004 48.6999 71.6004 48.5999V48.4999C71.5004 48.3999 71.5004 48.2999 71.4004 48.1999C71.4004 48.1999 71.4004 48.0999 71.3004 48.0999C71.2004 47.9999 71.1004 47.8999 71.1004 47.6999C71.0004 47.5999 70.9004 47.4999 70.9004 47.3999L70.8004 47.2999C70.7004 47.1999 70.7004 47.0999 70.6004 47.0999C70.6004 46.9999 70.5004 46.9999 70.5004 46.8999C70.4004 46.7999 70.4004 46.7999 70.3004 46.6999C70.3004 46.5999 70.2004 46.5999 70.2004 46.4999C70.1004 46.3999 70.1004 46.3999 70.0004 46.2999L69.9004 46.1999C69.8004 46.0999 69.7004 45.9999 69.7004 45.9999L69.6004 45.8999C69.5004 45.7999 69.4004 45.6999 69.2004 45.5999L69.1004 45.4999C69.0004 45.3999 69.0004 45.3999 68.9004 45.2999L68.8004 45.1999C68.7004 45.0999 68.7004 45.0999 68.6004 44.9999L68.5004 44.8999C68.4004 44.7999 68.3004 44.7999 68.3004 44.6999L68.2004 44.5999C68.1004 44.4999 68.0004 44.4999 67.9004 44.3999C67.9004 44.3999 67.8004 44.3999 67.8004 44.2999C67.7004 44.1999 67.5004 44.0999 67.4004 43.9999H67.3004C67.2004 43.8999 67.1004 43.8999 67.0004 43.7999C66.8004 43.6999 66.7004 43.5999 66.5004 43.4999C66.5004 43.4999 66.5004 43.4999 66.4004 43.4999C66.3004 43.3999 66.1004 43.2999 66.0004 43.2999C65.9004 43.2999 65.9004 43.1999 65.8004 43.1999C65.7004 43.0999 65.6004 43.0999 65.4004 42.9999C65.3004 42.9999 65.3004 42.8999 65.2004 42.8999C65.1004 42.7999 65.0004 42.7999 64.8004 42.6999C64.7004 42.6999 64.7004 42.5999 64.6004 42.5999C64.4004 42.4999 64.3004 42.4999 64.1004 42.3999H64.0004C63.8004 42.2999 63.6004 42.1999 63.4004 42.1999C63.3004 42.1999 63.3004 42.1999 63.2004 42.0999C63.1004 41.9999 62.9004 41.9999 62.8004 41.8999C62.7004 41.8999 62.7004 41.7999 62.6004 41.7999C62.5004 41.7999 62.3004 41.6999 62.2004 41.6999C62.1004 41.6999 62.1004 41.6999 62.0004 41.5999C61.7004 41.4999 61.5004 41.3999 61.2004 41.3999H61.1004C60.8004 41.2999 60.5004 41.1999 60.2004 41.1999C59.6004 41.0999 59.3004 40.9999 59.0004 40.9999C58.9004 40.9999 58.9004 40.9999 58.8004 40.9999C58.5004 40.8999 58.2004 40.8999 57.9004 40.7999C57.8004 40.7999 57.7004 40.7999 57.7004 40.7999C57.6004 40.7999 57.5004 40.7999 57.4004 40.6999C57.3004 40.6999 57.2004 40.6999 57.1004 40.6999C57.0004 40.6999 56.9004 40.6999 56.8004 40.5999C56.7004 40.5999 56.6004 40.5999 56.5004 40.5999C56.4004 40.5999 56.3004 40.5999 56.1004 40.5999C56.0004 40.5999 55.9004 40.5999 55.8004 40.5999C55.7004 40.5999 55.6004 40.5999 55.4004 40.5999C55.3004 40.5999 55.2004 40.5999 55.1004 40.5999C54.8004 40.5999 54.4004 40.4999 54.1004 40.4999C54.0004 40.4999 54.0004 40.4999 53.9004 40.4999C53.6004 40.4999 53.2004 40.4999 52.9004 40.3999C52.8004 40.3999 52.6004 40.3999 52.5004 40.3999C52.4004 40.3999 52.4004 40.3999 52.3004 40.3999C52.1004 40.3999 51.9004 40.3999 51.7004 40.3999C51.4004 40.3999 51.0004 40.3999 50.7004 40.3999C50.5004 40.3999 50.4004 40.3999 50.2004 40.3999C50.0004 40.3999 49.8004 40.3999 49.6004 40.3999C49.4004 40.3999 49.3004 40.3999 49.1004 40.3999C48.9004 40.3999 48.7004 40.3999 48.6004 40.3999C48.4004 40.3999 48.3004 40.3999 48.1004 40.3999C47.9004 40.3999 47.7004 40.3999 47.6004 40.4999C47.4004 40.4999 47.3004 40.4999 47.1004 40.5999C46.9004 40.5999 46.8004 40.5999 46.6004 40.6999C46.4004 40.6999 46.2004 40.7999 46.0004 40.7999C45.9004 40.7999 45.7004 40.7999 45.6004 40.8999C45.4004 40.8999 45.2004 40.9999 45.0004 40.9999C44.9004 40.9999 44.7004 41.0999 44.6004 41.0999C44.3004 41.1999 43.9004 41.1999 43.6004 41.2999C43.6004 41.2999 43.6004 41.2999 43.5004 41.2999C43.2004 41.3999 42.9004 41.4999 42.6004 41.4999C42.3004 41.5999 42.1004 41.5999 41.8004 41.6999H41.7004C41.5004 41.7999 41.3004 41.7999 41.1004 41.8999C41.0004 41.8999 41.0004 41.9999 40.9004 41.9999C40.7004 42.0999 40.5004 42.1999 40.3004 42.1999H40.2004C40.0004 42.2999 39.9004 42.2999 39.7004 42.3999C39.6004 42.3999 39.5004 42.4999 39.4004 42.4999C39.2004 42.5999 39.1004 42.5999 38.9004 42.6999C38.8004 42.6999 38.7004 42.7999 38.6004 42.7999C38.4004 42.8999 38.3004 42.9999 38.1004 42.9999C38.0004 42.9999 37.9004 43.0999 37.9004 43.0999C37.7004 43.1999 37.4004 43.3999 37.2004 43.4999C37.1004 43.5999 37.0004 43.5999 36.9004 43.6999C36.9004 43.6999 36.8004 43.6999 36.8004 43.7999C36.7004 43.7999 36.7004 43.8999 36.6004 43.8999L36.5004 43.9999C36.4004 43.9999 36.4004 44.0999 36.3004 44.0999L36.2004 44.1999C36.1004 44.1999 36.1004 44.2999 36.0004 44.2999L35.9004 44.3999C35.8004 44.3999 35.8004 44.4999 35.7004 44.4999L35.6004 44.5999C35.5004 44.5999 35.5004 44.6999 35.4004 44.6999L35.3004 44.7999C35.2004 44.7999 35.2004 44.8999 35.1004 44.8999L35.0004 44.9999C34.9004 44.9999 34.9004 45.0999 34.8004 45.0999L34.7004 45.1999L34.6004 45.2999L34.5004 45.3999L34.4004 45.4999L34.3004 45.5999L34.2004 45.6999L34.1004 45.7999L34.0004 45.8999L33.9004 45.9999C33.9004 45.9999 33.8004 46.0999 33.8004 46.1999L33.7004 46.2999C33.7004 46.3999 33.6004 46.3999 33.6004 46.4999C33.6004 46.4999 33.6004 46.5999 33.5004 46.5999C33.4004 46.6999 33.4004 46.7999 33.3004 46.7999C33.2004 46.8999 33.2004 46.9999 33.1004 47.0999C33.1004 47.0999 33.1004 47.1999 33.0004 47.1999C33.0004 47.2999 32.9004 47.2999 32.9004 47.3999C32.9004 47.3999 32.9004 47.4999 32.8004 47.4999C32.8004 47.5999 32.7004 47.5999 32.7004 47.6999C32.7004 47.6999 32.7004 47.7999 32.6004 47.7999C32.6004 47.8999 32.5004 47.8999 32.5004 47.9999C32.5004 47.9999 32.5004 48.0999 32.4004 48.0999C32.4004 48.1999 32.3004 48.1999 32.3004 48.2999C32.3004 48.2999 32.3004 48.3999 32.2004 48.3999C32.2004 48.4999 32.1004 48.4999 32.1004 48.5999C32.1004 48.5999 32.1004 48.6999 32.0004 48.6999C32.0004 48.7999 32.0004 48.7999 31.9004 48.8999C31.9004 48.8999 31.9004 48.9999 31.8004 48.9999C31.8004 49.0999 31.8004 49.0999 31.7004 49.1999C31.7004 49.1999 31.7004 49.2999 31.6004 49.2999C31.6004 49.3999 31.6004 49.3999 31.5004 49.4999V49.5999C31.5004 49.6999 31.5004 49.6999 31.4004 49.7999V49.8999C31.4004 49.9999 31.4004 49.9999 31.4004 50.0999V50.1999C31.4004 50.2999 31.4004 50.2999 31.4004 50.3999V50.4999C31.4004 50.5999 31.4004 50.5999 31.4004 50.6999V50.7999C31.4004 50.8999 31.4004 50.8999 31.4004 50.9999V51.0999C31.4004 51.1999 31.4004 51.2999 31.4004 51.3999C31.4004 51.4999 31.4004 51.4999 31.4004 51.5999V51.6999C31.4004 51.7999 31.4004 51.8999 31.4004 51.9999C31.4004 51.6999 31.4004 51.4999 31.4004 51.1999V50.8999C31.4004 50.5999 31.4004 50.1999 31.4004 49.8999V49.3999C31.4004 49.2999 31.4004 49.0999 31.4004 48.9999V48.4999C31.4004 48.0999 31.4004 47.7999 31.4004 47.3999V46.9999C31.4004 46.7999 31.4004 46.6999 31.4004 46.4999V45.4999C31.4004 45.3999 31.4004 45.2999 31.4004 45.1999V44.3999C31.4004 44.2999 31.4004 44.1999 31.4004 44.0999C31.4004 43.9999 31.4004 43.8999 31.4004 43.7999C31.4004 43.6999 31.4004 43.5999 31.4004 43.4999V43.3999C31.4004 43.2999 31.4004 43.2999 31.4004 43.1999V43.0999C31.4004 42.9999 31.4004 42.9999 31.4004 42.8999V42.7999C31.4004 42.6999 31.4004 42.6999 31.4004 42.5999V42.4999C31.4004 42.3999 31.4004 42.3999 31.4004 42.2999V42.1999C31.4004 42.0999 31.4004 42.0999 31.5004 41.9999V41.8999C31.5004 41.7999 31.5004 41.7999 31.6004 41.6999C31.6004 41.6999 31.6004 41.5999 31.7004 41.5999C31.7004 41.4999 31.7004 41.4999 31.8004 41.3999C31.8004 41.3999 31.8004 41.2999 31.9004 41.2999C31.9004 41.1999 31.9004 41.1999 32.0004 41.0999C32.0004 41.0999 32.0004 40.9999 32.1004 40.9999C32.1004 40.8999 32.2004 40.8999 32.2004 40.7999C32.2004 40.7999 32.2004 40.6999 32.3004 40.6999C32.3004 40.5999 32.4004 40.5999 32.4004 40.4999C32.4004 40.4999 32.4004 40.3999 32.5004 40.3999C32.5004 40.2999 32.6004 40.2999 32.6004 40.1999C32.6004 40.1999 32.6004 40.0999 32.7004 40.0999C32.7004 39.9999 32.8004 39.9999 32.8004 39.8999C32.8004 39.8999 32.8004 39.7999 32.9004 39.7999C32.9004 39.6999 33.0004 39.6999 33.0004 39.5999C33.0004 39.5999 33.0004 39.4999 33.1004 39.4999C33.2004 39.3999 33.2004 39.2999 33.3004 39.1999C33.4004 39.0999 33.4004 38.9999 33.5004 38.9999C33.5004 38.9999 33.5004 38.8999 33.6004 38.8999C33.6004 38.7999 33.7004 38.7999 33.7004 38.6999L33.8004 38.5999C33.8004 38.4999 33.9004 38.4999 33.9004 38.3999L34.0004 38.2999L34.1004 38.1999L34.2004 38.0999L34.3004 37.9999L34.4004 37.8999L34.5004 37.7999L34.6004 37.6999L34.7004 37.5999L34.8004 37.4999C34.9004 37.4999 34.9004 37.3999 35.0004 37.3999L35.1004 37.2999C35.2004 37.2999 35.2004 37.1999 35.3004 37.1999L35.4004 37.0999C35.5004 37.0999 35.5004 36.9999 35.6004 36.9999L35.7004 36.8999C35.8004 36.8999 35.8004 36.7999 35.9004 36.7999L36.0004 36.6999C36.1004 36.6999 36.1004 36.5999 36.2004 36.5999L36.3004 36.4999C36.4004 36.4999 36.4004 36.3999 36.5004 36.3999L36.6004 36.2999C36.7004 36.2999 36.7004 36.1999 36.8004 36.1999C36.8004 36.1999 36.9004 36.1999 36.9004 36.0999C37.0004 35.9999 37.1004 35.9999 37.2004 35.8999C37.4004 35.7999 37.7004 35.5999 37.9004 35.4999C38.0004 35.4999 38.1004 35.3999 38.1004 35.3999C38.3004 35.2999 38.4004 35.1999 38.6004 35.1999C38.7004 35.1999 38.8004 35.0999 38.9004 35.0999C39.1004 34.9999 39.2004 34.9999 39.4004 34.8999C39.5004 34.8999 39.6004 34.7999 39.7004 34.7999C39.8004 34.6999 40.0004 34.6999 40.1004 34.5999H40.2004C40.4004 34.4999 40.6004 34.3999 40.8004 34.3999C40.9004 34.3999 40.9004 34.2999 41.0004 34.2999C41.2004 34.1999 41.4004 34.1999 41.6004 34.0999H41.7004C41.9004 33.9999 42.2004 33.9999 42.4004 33.8999H42.5004C42.8004 33.7999 43.1004 33.6999 43.4004 33.6999C43.4004 33.6999 43.4004 33.6999 43.5004 33.6999C43.8004 33.5999 44.2004 33.4999 44.5004 33.4999C44.5004 33.4999 44.5004 33.4999 44.6004 33.4999C44.7004 33.4999 44.8004 33.4999 45.0004 33.3999C45.2004 33.3999 45.4004 33.2999 45.6004 33.2999C45.7004 33.2999 45.9004 33.2999 46.0004 33.1999C46.2004 33.1999 46.4004 33.0999 46.6004 33.0999H46.7004C46.8004 33.0999 47.0004 33.0999 47.1004 33.0999C47.3004 33.0999 47.4004 33.0999 47.6004 32.9999C47.8004 32.9999 48.0004 32.9999 48.1004 32.8999C48.3004 32.8999 48.4004 32.8999 48.6004 32.8999H48.7004C48.8004 32.8999 49.0004 32.8999 49.1004 32.8999C49.3004 32.8999 49.4004 32.8999 49.6004 32.8999C49.8004 32.8999 50.0004 32.8999 50.2004 32.8999C50.4004 32.8999 50.5004 32.8999 50.7004 32.8999H50.8004C51.1004 32.8999 51.4004 32.8999 51.7004 32.8999C51.9004 32.8999 52.1004 32.8999 52.3004 32.8999C52.4004 32.8999 52.4004 32.8999 52.5004 32.8999C52.6004 32.8999 52.8004 32.8999 52.9004 32.8999C53.2004 32.8999 53.6004 32.8999 53.9004 32.9999C54.0004 32.9999 54.0004 32.9999 54.1004 32.9999C54.4004 32.9999 54.8004 33.0999 55.1004 33.0999H55.2004C55.3004 33.0999 55.3004 33.0999 55.4004 33.0999C55.5004 33.0999 55.6004 33.0999 55.8004 33.0999C55.9004 33.0999 56.0004 33.0999 56.1004 33.0999C56.2004 33.0999 56.3004 33.0999 56.5004 33.0999C56.6004 33.0999 56.7004 33.0999 56.8004 33.0999C56.9004 33.0999 57.0004 33.0999 57.1004 33.1999C57.2004 33.1999 57.3004 33.1999 57.4004 33.1999C57.5004 33.1999 57.6004 33.1999 57.7004 33.2999C57.8004 33.2999 57.8004 33.2999 57.9004 33.2999C57.9004 33.2999 57.9004 33.2999 58.0004 33.2999C58.3004 33.3999 58.6004 33.3999 58.9004 33.4999C59.0004 33.4999 59.0004 33.4999 59.1004 33.4999C59.4004 33.5999 59.7004 33.5999 60.0004 33.6999C60.3004 33.7999 60.6004 33.8999 60.9004 33.8999H61.0004C61.3004 33.9999 61.5004 34.0999 61.8004 34.0999C61.8004 34.0999 61.8004 34.0999 61.9004 34.0999H62.0004C62.1004 34.0999 62.3004 34.1999 62.4004 34.1999C62.5004 34.1999 62.5004 34.2999 62.6004 34.2999C62.7004 34.3999 62.9004 34.3999 63.0004 34.4999C63.1004 34.4999 63.1004 34.4999 63.2004 34.5999C63.4004 34.6999 63.6004 34.7999 63.8004 34.7999H63.9004C64.1004 34.8999 64.2004 34.8999 64.4004 34.9999C64.5004 34.9999 64.5004 35.0999 64.6004 35.0999C64.7004 35.1999 64.8004 35.1999 65.0004 35.2999C65.1004 35.2999 65.1004 35.3999 65.2004 35.3999C65.3004 35.4999 65.4004 35.4999 65.6004 35.5999C65.7004 35.5999 65.7004 35.6999 65.8004 35.6999C65.9004 35.7999 66.1004 35.8999 66.2004 35.8999C66.2004 35.8999 66.2004 35.8999 66.3004 35.8999C66.5004 35.9999 66.6004 36.0999 66.8004 36.1999C66.9004 36.2999 67.0004 36.2999 67.1004 36.3999H67.2004C67.3004 36.4999 67.5004 36.5999 67.6004 36.6999C67.6004 36.6999 67.7004 36.6999 67.7004 36.7999C67.8004 36.8999 67.9004 36.8999 68.0004 36.9999L68.1004 37.0999C68.2004 37.1999 68.3004 37.1999 68.3004 37.2999L68.4004 37.3999C68.5004 37.4999 68.5004 37.4999 68.6004 37.5999L68.7004 37.6999C68.8004 37.7999 68.8004 37.7999 68.9004 37.8999C68.9004 37.8999 69.0004 37.8999 69.0004 37.9999C69.1004 38.0999 69.2004 38.1999 69.3004 38.2999L69.4004 38.3999C69.5004 38.4999 69.6004 38.5999 69.6004 38.5999L69.7004 38.6999C69.8004 38.7999 69.8004 38.7999 69.9004 38.8999C69.9004 38.9999 70.0004 38.9999 70.0004 39.0999C70.1004 39.1999 70.1004 39.1999 70.2004 39.2999C70.2004 39.3999 70.3004 39.3999 70.3004 39.4999L70.4004 39.5999L70.5004 39.6999L70.6004 39.7999C70.7004 39.8999 70.8004 39.9999 70.8004 40.0999C70.9004 40.1999 71.0004 40.2999 71.0004 40.4999C71.0004 40.4999 71.0004 40.5999 71.1004 40.5999C71.1004 40.6999 71.2004 40.6999 71.2004 40.7999C71.2004 40.7999 71.2004 40.8999 71.3004 40.8999V40.9999C71.4004 41.0999 71.4004 41.1999 71.5004 41.3999C71.5004 41.3999 71.5004 41.3999 71.5004 41.4999C71.5004 41.5999 71.6004 41.6999 71.6004 41.7999V41.8999C71.6004 41.8999 71.6004 41.8999 71.6004 41.9999C71.6004 42.0999 71.7004 42.1999 71.7004 42.2999C71.7004 42.2999 71.7004 42.2999 71.7004 42.3999C71.7004 42.4999 71.8004 42.5999 71.8004 42.6999V42.7999C71.8004 42.8999 71.9004 42.9999 71.9004 43.1999C71.9004 43.1999 71.9004 43.1999 71.9004 43.2999C71.9004 43.3999 71.9004 43.4999 72.0004 43.5999V43.6999C72.0004 43.7999 72.0004 43.9999 72.0004 44.0999V44.1999C72.0004 44.2999 72.0004 44.2999 72.0004 44.3999C72.0004 44.4999 72.0004 44.5999 72.0004 44.5999V52.0999C72.3004 52.0999 72.3004 51.9999 72.3004 51.6999C72.3004 51.7999 72.3004 51.7999 72.3004 51.6999Z" fill="#9AF4DC"/>
<path d="M25.8008 44.9C25.8008 45 25.8008 45.1 25.8008 45.3C25.8008 45.3 25.8008 45.3 25.8008 45.4C25.8008 45.5 25.8008 45.6 25.8008 45.7V45.8C25.8008 45.9 25.8008 46 25.8008 46V46.1C25.8008 46.2 25.8008 46.2 25.8008 46.3V46.4C25.8008 46.5 25.8008 46.5 25.8008 46.6V46.7C25.8008 46.8 25.8008 46.8 25.9008 46.9V47C25.9008 47.1 25.9008 47.1 26.0008 47.2V47.3C26.0008 47.4 26.0008 47.4 26.1008 47.5V47.6C26.1008 47.7 26.2008 47.8 26.2008 47.9C26.2008 48 26.3008 48.1 26.4008 48.2C26.4008 48.2 26.4008 48.3 26.5008 48.3C26.5008 48.4 26.6008 48.5 26.6008 48.5C26.6008 48.5 26.6008 48.6 26.7008 48.6C26.7008 48.7 26.8008 48.7 26.8008 48.8C26.8008 48.8 26.8008 48.9 26.9008 48.9C26.9008 49 27.0008 49.1 27.1008 49.2C27.1008 49.2 27.1008 49.3 27.2008 49.3C27.3008 49.4 27.3008 49.5 27.4008 49.7C27.5008 49.8 27.5008 49.9 27.6008 50L27.7008 50.1C27.8008 50.2 27.8008 50.3 27.9008 50.3L28.0008 50.4C28.1008 50.5 28.2008 50.7 28.3008 50.8C28.3008 50.8 28.3008 50.8 28.4008 50.9C28.5008 51 28.6008 51.1 28.7008 51.2C28.7008 51.2 28.7008 51.3 28.8008 51.3C28.9008 51.4 29.0008 51.6 29.2008 51.7L29.3008 51.8C29.4008 51.9 29.5008 52 29.6008 52.1C29.6008 52.1 29.6008 52.1 29.7008 52.2C29.8008 52.3 30.0008 52.4 30.1008 52.6L30.2008 52.7C30.3008 52.8 30.5008 52.9 30.6008 53C30.7008 53.1 30.9008 53.2 31.0008 53.3L31.1008 53.4C31.3008 53.5 31.4008 53.6 31.6008 53.7C31.8008 53.8 32.0008 53.9 32.1008 54.1L32.2008 54.2C32.4008 54.3 32.6008 54.4 32.8008 54.6C32.8008 54.6 32.9008 54.6 32.9008 54.7C33.0008 54.8 33.1008 54.8 33.3008 54.9C33.4008 54.9 33.4008 55 33.5008 55C33.6008 55.1 33.7008 55.1 33.8008 55.2C33.9008 55.2 33.9008 55.3 34.0008 55.3C34.1008 55.4 34.2008 55.4 34.3008 55.5C34.4008 55.5 34.4008 55.6 34.5008 55.6C34.7008 55.7 34.8008 55.8 35.0008 55.9C35.3008 56 35.6008 56.2 35.9008 56.3C36.0008 56.3 36.1008 56.4 36.2008 56.4C36.4008 56.5 36.6008 56.6 36.8008 56.7C36.9008 56.7 37.1008 56.8 37.2008 56.8C37.4008 56.9 37.6008 57 37.8008 57C37.9008 57 38.1008 57.1 38.2008 57.1C38.4008 57.2 38.6008 57.2 38.8008 57.3C38.9008 57.3 39.1008 57.4 39.2008 57.4C39.4008 57.5 39.7008 57.5 39.9008 57.6C40.0008 57.6 40.2008 57.7 40.3008 57.7C40.5008 57.8 40.8008 57.8 41.0008 57.9C41.1008 57.9 41.2008 58 41.4008 58C41.7008 58.1 42.1008 58.2 42.4008 58.2H42.5008C42.9008 58.3 43.3008 58.4 43.7008 58.4C44.0008 58.5 44.3008 58.5 44.6008 58.6C44.7008 58.6 44.7008 58.6 44.8008 58.6C45.1008 58.6 45.3008 58.7 45.6008 58.7C45.7008 58.7 45.8008 58.7 45.9008 58.7C46.2008 58.7 46.4008 58.8 46.7008 58.8C46.8008 58.8 46.9008 58.8 47.0008 58.8C47.3008 58.8 47.6008 58.9 48.0008 58.9C48.1008 58.9 48.1008 58.9 48.2008 58.9C48.5008 58.9 48.8008 58.9 49.1008 59H49.2008C49.5008 59 49.9008 59 50.2008 59C50.3008 59 50.4008 59 50.5008 59C50.8008 59 51.2008 59 51.5008 59C51.9008 59 52.3008 59 52.7008 59C52.9008 59 53.1008 59 53.3008 59C53.5008 59 53.8008 59 54.0008 59C54.2008 59 54.4008 59 54.6008 59C54.8008 59 55.1008 59 55.3008 59C55.5008 59 55.7008 59 55.9008 58.9C56.1008 58.9 56.3008 58.9 56.6008 58.8C56.8008 58.8 57.0008 58.8 57.2008 58.7C57.4008 58.7 57.6008 58.6 57.8008 58.6C58.0008 58.6 58.3008 58.5 58.5008 58.5C58.7008 58.5 58.9008 58.4 59.1008 58.4C59.3008 58.4 59.6008 58.3 59.8008 58.3C60.0008 58.3 60.2008 58.2 60.4008 58.2C60.5008 58.2 60.5008 58.2 60.6008 58.2C60.9008 58.1 61.3008 58 61.6008 58C61.6008 58 61.6008 58 61.7008 58C62.0008 57.9 62.4008 57.8 62.7008 57.7C62.8008 57.7 62.8008 57.7 62.9008 57.7C63.2008 57.6 63.6008 57.5 63.9008 57.4C64.0008 57.4 64.0008 57.4 64.1008 57.3C64.4008 57.2 64.6008 57.1 64.9008 57C65.0008 57 65.1008 56.9 65.2008 56.9C65.5008 56.8 65.7008 56.7 66.0008 56.6C66.1008 56.6 66.1008 56.6 66.2008 56.5C66.4008 56.4 66.6008 56.3 66.8008 56.3C66.9008 56.2 67.1008 56.2 67.2008 56.1C67.4008 56 67.6008 55.9 67.8008 55.8C67.9008 55.7 68.1008 55.7 68.2008 55.6C68.4008 55.5 68.6008 55.4 68.8008 55.3C68.9008 55.2 69.0008 55.2 69.1008 55.1C69.4008 54.9 69.7008 54.8 70.0008 54.6C74.7008 51.9 77.6008 48.2 77.7008 44V51.5C77.7008 55.6 74.7008 59.4 70.0008 62.1C69.7008 62.3 69.4008 62.4 69.1008 62.6C69.0008 62.7 68.9008 62.7 68.8008 62.8C68.6008 62.9 68.4008 63 68.2008 63.1C68.1008 63.2 67.9008 63.2 67.8008 63.3C67.6008 63.4 67.4008 63.5 67.2008 63.6C67.1008 63.7 66.9008 63.7 66.8008 63.8C66.6008 63.9 66.4008 63.9 66.3008 64C66.3008 64 66.3008 64 66.2008 64C66.1008 64 66.1008 64 66.0008 64.1C65.7008 64.2 65.5008 64.3 65.2008 64.4C65.1008 64.4 65.0008 64.5 64.9008 64.5C64.6008 64.6 64.4008 64.7 64.1008 64.8C64.0008 64.8 64.0008 64.8 63.9008 64.9C63.6008 65 63.3008 65.1 63.0008 65.2H62.9008C62.8008 65.2 62.8008 65.2 62.7008 65.2C62.4008 65.3 62.0008 65.4 61.7008 65.5C61.4008 65.6 61.0008 65.7 60.7008 65.7C60.6008 65.7 60.6008 65.7 60.5008 65.7H60.4008C60.3008 65.7 60.1008 65.8 60.0008 65.8C59.8008 65.8 59.5008 65.9 59.3008 65.9C59.1008 65.9 58.9008 66 58.7008 66C58.5008 66 58.2008 66.1 58.0008 66.1H57.9008C57.7008 66.1 57.6008 66.1 57.4008 66.2C57.2008 66.2 57.0008 66.3 56.8008 66.3C56.6008 66.3 56.4008 66.3 56.1008 66.4C55.9008 66.4 55.7008 66.4 55.5008 66.5H55.4008C55.2008 66.5 55.0008 66.5 54.8008 66.5C54.6008 66.5 54.4008 66.5 54.2008 66.5C54.0008 66.5 53.7008 66.5 53.5008 66.5C53.3008 66.5 53.1008 66.5 52.9008 66.5H52.8008C52.4008 66.5 52.0008 66.5 51.7008 66.5C51.4008 66.5 51.0008 66.5 50.7008 66.5C50.6008 66.5 50.5008 66.5 50.4008 66.5C50.3008 66.5 50.2008 66.5 50.2008 66.5C49.9008 66.5 49.7008 66.5 49.4008 66.5H49.3008C49.0008 66.5 48.7008 66.5 48.4008 66.4C48.3008 66.4 48.3008 66.4 48.2008 66.4C47.9008 66.4 47.6008 66.4 47.3008 66.3H47.2008C47.1008 66.3 47.0008 66.3 46.9008 66.3C46.6008 66.3 46.4008 66.2 46.1008 66.2C46.0008 66.2 45.9008 66.2 45.8008 66.2C45.5008 66.2 45.3008 66.1 45.0008 66.1C44.9008 66.1 44.9008 66.1 44.8008 66.1C44.5008 66.1 44.2008 66 43.9008 66C43.9008 66 43.9008 66 43.8008 66C43.4008 65.9 43.0008 65.9 42.6008 65.8H42.5008C42.2008 65.7 41.8008 65.6 41.5008 65.6C41.4008 65.6 41.3008 65.5 41.1008 65.5C40.9008 65.4 40.6008 65.4 40.4008 65.3C40.3008 65.3 40.1008 65.2 40.0008 65.2C39.8008 65.1 39.5008 65.1 39.3008 65C39.2008 65 39.1008 65 39.1008 64.9C39.0008 64.9 39.0008 64.9 38.9008 64.8C38.7008 64.7 38.5008 64.7 38.3008 64.6C38.2008 64.6 38.0008 64.5 37.9008 64.5C37.7008 64.4 37.5008 64.4 37.3008 64.3C37.2008 64.3 37.0008 64.2 36.9008 64.2C36.7008 64.1 36.5008 64 36.3008 63.9C36.2008 63.9 36.1008 63.8 36.0008 63.8C35.7008 63.7 35.4008 63.5 35.1008 63.4C34.9008 63.3 34.8008 63.2 34.6008 63.1C34.5008 63.1 34.5008 63 34.4008 63C34.3008 62.9 34.2008 62.9 34.1008 62.8C34.0008 62.8 34.0008 62.7 33.9008 62.7C33.8008 62.6 33.7008 62.6 33.6008 62.5C33.5008 62.5 33.5008 62.4 33.4008 62.4C33.3008 62.3 33.2008 62.3 33.0008 62.2C33.0008 62.2 32.9008 62.2 32.9008 62.1C32.7008 62 32.5008 61.9 32.3008 61.7L32.2008 61.6C32.0008 61.5 31.8008 61.4 31.7008 61.2C31.5008 61.1 31.4008 61 31.2008 60.9L31.1008 60.8C31.0008 60.7 31.0008 60.7 30.9008 60.6V65.6L27.5008 63.6V57C27.4008 56.9 27.4008 56.8 27.3008 56.8C27.3008 56.8 27.3008 56.7 27.2008 56.7C27.1008 56.6 27.1008 56.5 27.0008 56.4C27.0008 56.4 27.0008 56.4 27.0008 56.3C27.0008 56.3 27.0008 56.3 27.0008 56.2C27.0008 56.1 26.9008 56.1 26.9008 56C26.9008 56 26.9008 55.9 26.8008 55.9C26.8008 55.8 26.7008 55.7 26.7008 55.7C26.7008 55.7 26.7008 55.6 26.6008 55.6C26.5008 55.5 26.5008 55.4 26.4008 55.3C26.4008 55.2 26.3008 55.1 26.3008 55V54.9C26.3008 54.8 26.2008 54.8 26.2008 54.7V54.6C26.2008 54.5 26.2008 54.5 26.1008 54.4V54.3C26.1008 54.2 26.1008 54.2 26.0008 54.1V54C26.0008 53.9 26.0008 53.9 26.0008 53.8V53.7C26.0008 53.7 26.0008 53.7 26.0008 53.6C26.0008 53.5 26.0008 53.5 26.0008 53.4V53.3C26.0008 53.2 26.0008 53.1 26.0008 53.1V53C26.0008 52.9 26.0008 52.8 26.0008 52.7C26.0008 52.7 26.0008 52.7 26.0008 52.6C26.0008 52.5 26.0008 52.4 26.0008 52.2C26.0008 52.1 26.0008 52 26.0008 51.9V44.4C25.8008 44.7 25.8008 44.8 25.8008 44.9Z" fill="#9AF4DC"/>
<path d="M30.8008 58.4999V66.0999L35.0008 63.6999V56.0999L30.8008 58.4999Z" fill="#9AF4DC"/>
<path d="M51.7002 29.7C44.5002 29.7 38.1002 31.3 33.4002 34C28.7002 36.7 25.8002 40.3999 25.7002 44.5999C25.7002 48.1999 27.9002 51.6 31.6002 54.2C32.6002 54.9 33.8002 55.6 35.0002 56.2C39.5002 58.4 45.2002 59.7 51.5002 59.7C58.7002 59.7 65.1002 58.1 69.8002 55.4C74.5002 52.7 77.4002 49 77.5002 44.7999C77.6002 36.4 66.1002 29.7 51.7002 29.7ZM66.2002 53.0999C62.4002 55.2999 57.3002 56.5999 51.5002 56.5999C40.1002 56.5999 30.9002 51.1999 30.9002 44.5999C30.9002 41.2999 33.3002 38.2999 37.0002 36.0999C40.8002 33.8999 45.9002 32.5999 51.7002 32.5999C63.1002 32.5999 72.3002 37.9999 72.3002 44.5999C72.3002 47.9999 69.9002 50.9999 66.2002 53.0999Z" fill="white"/>
<path d="M76.8998 47.7999C77.2998 46.7999 77.4998 45.7 77.4998 44.7C77.5998 36.4 66.0998 29.7 51.7998 29.7C44.5998 29.7 38.1998 31.3 33.4998 34C28.7998 36.7 25.8998 40.3999 25.7998 44.5999C25.7998 45.6999 25.9998 46.8 26.3998 47.9M72.2998 44.7C72.2998 48 69.8998 51 66.1998 53.2C62.3998 55.4 57.2998 56.7 51.4998 56.7C40.0998 56.7 30.8998 51.3 30.8998 44.7" stroke="#171A21" stroke-width="2" stroke-miterlimit="10" stroke-linecap="round" stroke-linejoin="round"/>
<path d="M27.4004 56.4999L30.8004 58.4999L35.0004 56.0999C33.8004 55.4999 32.6004 54.7999 31.6004 54.0999L27.4004 56.4999Z" fill="white"/>
<path d="M1.40039 69.9999V70.0999V70.1999V70.2999V70.3999V70.4999V70.5999V70.6999C1.40039 70.6999 1.40039 70.6999 1.40039 70.7999V70.8999V70.9999V71.0999V71.1999C1.40039 71.1999 1.40039 71.1999 1.40039 71.2999C1.40039 71.2999 1.40039 71.3999 1.50039 71.3999C1.50039 71.3999 1.50039 71.3999 1.50039 71.4999C1.50039 71.4999 1.50039 71.5999 1.60039 71.5999C1.60039 71.5999 1.60039 71.5999 1.60039 71.6999C1.60039 71.7999 1.70039 71.7999 1.70039 71.7999C1.80039 71.8999 1.80039 71.8999 1.90039 71.9999C1.90039 71.9999 1.90039 71.9999 2.00039 72.0999L2.10039 72.1999C2.10039 72.1999 2.10039 72.1999 2.20039 72.2999L2.30039 72.3999C2.30039 72.3999 2.40039 72.3999 2.40039 72.4999L2.50039 72.5999C2.50039 72.5999 2.60039 72.5999 2.60039 72.6999L2.70039 72.7999H2.80039C2.90039 72.8999 3.00039 72.8999 3.10039 72.9999C3.10039 72.9999 3.10039 72.9999 3.20039 72.9999C3.30039 72.9999 3.40039 73.0999 3.50039 73.0999C3.50039 73.0999 3.50039 73.0999 3.60039 73.0999C3.70039 73.0999 3.80039 73.1999 3.90039 73.1999C3.90039 73.1999 3.90039 73.1999 4.00039 73.1999C4.10039 73.1999 4.20039 73.2999 4.30039 73.2999C4.50039 73.3999 4.70039 73.3999 4.80039 73.4999C5.00039 73.4999 5.20039 73.5999 5.40039 73.5999C5.40039 73.5999 5.40039 73.5999 5.50039 73.5999C5.60039 73.5999 5.70039 73.5999 5.80039 73.5999H5.90039C6.00039 73.5999 6.10039 73.5999 6.20039 73.5999H6.30039C6.50039 73.5999 6.70039 73.5999 6.90039 73.5999C7.00039 73.5999 7.10039 73.5999 7.20039 73.5999C7.40039 73.5999 7.50039 73.5999 7.70039 73.5999C7.80039 73.5999 7.90039 73.5999 8.00039 73.5999C8.10039 73.5999 8.20039 73.5999 8.30039 73.5999C8.40039 73.5999 8.50039 73.5999 8.60039 73.5999C8.70039 73.5999 8.80039 73.5999 8.90039 73.5999C9.00039 73.5999 9.10039 73.5999 9.20039 73.4999C9.40039 73.4999 9.50039 73.3999 9.70039 73.3999C9.90039 73.3999 10.0004 73.2999 10.1004 73.2999H10.2004C10.4004 73.1999 10.5004 73.1999 10.7004 73.0999C10.8004 73.0999 10.9004 72.9999 11.0004 72.9999C11.1004 72.9999 11.1004 72.9999 11.2004 72.8999C11.4004 72.7999 11.5004 72.6999 11.7004 72.6999L31.1004 60.5999C31.4004 60.3999 31.6004 60.0999 31.6004 59.8999V67.3999C31.6004 67.6999 31.4004 67.8999 31.1004 68.0999L11.9004 79.8999C11.7004 79.9999 11.6004 80.0999 11.4004 80.0999C11.3004 80.0999 11.3004 80.0999 11.2004 80.1999C11.1004 80.1999 11.0004 80.2999 10.9004 80.2999C10.7004 80.3999 10.6004 80.3999 10.4004 80.4999H10.3004C10.2004 80.4999 10.2004 80.4999 10.1004 80.5999C10.0004 80.5999 9.90039 80.5999 9.80039 80.6999C9.70039 80.6999 9.60039 80.7999 9.50039 80.7999H9.40039C9.30039 80.7999 9.20039 80.7999 9.10039 80.8999C9.00039 80.8999 9.00039 80.8999 8.90039 80.8999H8.80039C8.70039 80.8999 8.60039 80.8999 8.50039 80.8999C8.40039 80.8999 8.40039 80.8999 8.30039 80.8999H8.20039C8.10039 80.8999 8.00039 80.8999 7.90039 80.8999C7.80039 80.8999 7.80039 80.8999 7.70039 80.8999C7.60039 80.8999 7.50039 80.8999 7.40039 80.8999C7.30039 80.8999 7.20039 80.8999 7.10039 80.8999C6.90039 80.8999 6.70039 80.8999 6.50039 80.8999C6.50039 80.8999 6.50039 80.8999 6.40039 80.8999C6.30039 80.8999 6.20039 80.8999 6.10039 80.8999H6.00039C5.90039 80.8999 5.80039 80.8999 5.70039 80.8999C5.70039 80.8999 5.70039 80.8999 5.60039 80.8999C5.40039 80.8999 5.20039 80.7999 5.00039 80.7999C4.80039 80.7999 4.60039 80.6999 4.50039 80.5999C4.40039 80.5999 4.30039 80.4999 4.20039 80.4999C4.20039 80.4999 4.20039 80.4999 4.10039 80.4999C4.00039 80.4999 3.90039 80.3999 3.80039 80.3999C3.80039 80.3999 3.80039 80.3999 3.70039 80.3999C3.60039 80.3999 3.50039 80.2999 3.40039 80.2999C3.40039 80.2999 3.40039 80.2999 3.30039 80.2999C3.20039 80.1999 3.10039 80.1999 3.00039 80.0999C3.00039 80.0999 3.00039 80.0999 2.90039 80.0999L2.80039 79.9999C2.80039 79.9999 2.70039 79.9999 2.70039 79.8999L2.60039 79.7999C2.60039 79.7999 2.50039 79.7999 2.50039 79.6999L2.40039 79.5999C2.40039 79.5999 2.30039 79.5999 2.30039 79.4999L2.20039 79.3999C2.20039 79.3999 2.20039 79.3999 2.10039 79.3999C2.00039 79.2999 2.00039 79.2999 1.90039 79.1999C2.10039 79.0999 2.00039 78.9999 2.00039 78.9999C2.00039 78.9999 2.00039 78.8999 1.90039 78.8999C1.90039 78.8999 1.90039 78.8999 1.90039 78.7999C1.90039 78.7999 1.90039 78.6999 1.80039 78.6999V78.5999V78.4999V78.3999C1.80039 78.3999 1.80039 78.3999 1.80039 78.2999C1.80039 78.2999 1.80039 78.2999 1.80039 78.1999V78.0999V77.9999C1.80039 77.9999 1.80039 77.9999 1.80039 77.8999V77.7999V77.6999V77.5999C1.80039 77.5999 1.80039 77.5999 1.80039 77.4999C1.80039 77.4999 1.80039 77.4999 1.80039 77.3999L1.40039 69.9999Z" fill="#9AF4DC"/>
<path d="M3.10039 67.6C2.00039 68.2 1.40039 69.1 1.40039 70C1.40039 71.9 4.10039 73.5 7.40039 73.5C9.10039 73.5 10.7004 73.1 11.9004 72.4L31.3004 60.3C32.0004 59.9 32.0004 59.3 31.3004 58.9L26.8004 56.3C26.1004 55.9 25.1004 55.9 24.4004 56.3L3.30039 67.5C3.30039 67.5 3.20039 67.6 3.10039 67.6Z" fill="#EBFDF8"/>
<path d="M31.3004 58.9L26.8004 56.3C26.1004 55.9 25.1004 55.9 24.4004 56.3L3.30039 67.5C3.20039 67.5 3.10039 67.6 3.00039 67.6C2.00039 68.2 1.40039 69.1 1.40039 70" stroke="#171A21" stroke-width="2" stroke-miterlimit="10" stroke-linecap="round" stroke-linejoin="round"/>
<path d="M143.5 20.3C143.5 20.2 143.5 20.2001 143.5 20.1C143.5 20 143.5 19.9 143.5 19.8V19.7001C143.5 19.7001 143.5 19.7001 143.5 19.6V19.5C143.5 19.4 143.5 19.3001 143.5 19.2001C143.5 19.1 143.5 19.1 143.5 19C143.5 18.9 143.5 18.8001 143.5 18.7001C143.5 18.6 143.5 18.5 143.4 18.4C143.4 18.3 143.4 18.3001 143.3 18.2001C143.3 18.1 143.3 18 143.2 17.9V17.8C143.2 17.8 143.2 17.8001 143.2 17.7001V17.6C143.2 17.5 143.1 17.4 143.1 17.3C143.1 17.2 143.1 17.2001 143 17.1C143 17 142.9 16.9 142.9 16.8C142.9 16.7 142.8 16.6 142.8 16.5V16.4V16.3C142.8 16.2 142.7 16.1 142.7 16C142.7 15.9 142.6 15.8 142.6 15.7C142.6 15.6 142.5 15.5 142.4 15.4C142.3 15.3 142.3 15.2 142.2 15C142.2 15 142.2 15 142.2 14.9C142.1 14.7 141.9 14.4 141.7 14.2C141.6 14.1 141.5 13.9 141.4 13.8C141.3 13.7 141.3 13.6 141.2 13.6C141.1 13.5 141.1 13.4 141 13.4C140.9 13.3 140.9 13.2 140.8 13.2C140.7 13.1 140.7 13 140.6 13L140.5 12.9L140.4 12.8C140.3 12.7 140.3 12.7 140.2 12.6C140.1 12.5 140 12.5 140 12.4C139.9 12.3 139.8 12.3 139.8 12.2C139.7 12.2 139.7 12.1 139.6 12.1C139.5 12 139.4 12 139.4 11.9C139.3 11.8 139.2 11.8 139.2 11.7C139.1 11.6 139.1 11.6 139 11.6C138.9 11.6 138.9 11.5 138.8 11.5C138.7 11.5 138.7 11.4 138.6 11.4C138.5 11.4 138.5 11.3 138.4 11.3H138.3C138.3 11.3 138.3 11.3 138.2 11.3C138.1 11.3 138.1 11.2 138 11.2C137.9 11.2 137.9 11.2 137.8 11.1C137.7 11.1 137.7 11.1 137.6 11C137.5 11 137.5 11 137.4 10.9H137.3C137.2 10.9 137.2 10.9 137.1 10.9C137.1 10.9 137.1 10.9 137 10.9C137 10.9 137 10.9 136.9 10.9H136.8C136.7 10.9 136.6 10.9 136.6 10.9C136.6 10.9 136.6 10.9 136.5 10.9C136.4 10.9 136.4 10.9 136.3 10.9C136.2 10.9 136.2 10.9 136.1 10.9C136.1 10.9 136.1 10.9 136 10.9C135.9 10.9 135.8 11 135.6 11C135.5 11 135.3 11.1 135.2 11.2L129.7 14.4L124.2 4.90005C124.2 4.90005 124.2 4.90005 124.2 4.80005C124.1 4.50005 123.9 4.30005 123.7 4.10005C123.6 4.00005 123.5 3.80005 123.4 3.70005C123.3 3.60005 123.3 3.50005 123.2 3.50005C123.1 3.40005 123.1 3.30005 123 3.30005C122.9 3.20005 122.9 3.10005 122.8 3.10005C122.7 3.00005 122.7 2.90005 122.6 2.90005L122.5 2.80005L122.4 2.70005C122.3 2.60005 122.3 2.60005 122.2 2.50005C122.1 2.40005 122 2.40005 122 2.30005C121.9 2.20005 121.8 2.20005 121.8 2.10005C121.7 2.10005 121.7 2.00005 121.6 2.00005C121.5 1.90005 121.4 1.90005 121.4 1.80005C121.3 1.70005 121.2 1.70005 121.2 1.60005C121.1 1.50005 121.1 1.50005 121 1.50005C120.9 1.50005 120.9 1.40005 120.8 1.40005C120.7 1.40005 120.7 1.30005 120.6 1.30005C120.5 1.30005 120.5 1.20005 120.4 1.20005H120.3C120.3 1.20005 120.3 1.20005 120.2 1.20005C120.1 1.20005 120.1 1.10005 120 1.10005C119.9 1.10005 119.9 1.00005 119.8 1.00005C119.7 1.00005 119.7 1.00005 119.6 0.900049C119.5 0.900049 119.5 0.900049 119.4 0.800049H119.3C119.2 0.800049 119.2 0.800049 119.1 0.800049C119.1 0.800049 119.1 0.800049 119 0.800049C119 0.800049 119 0.800049 118.9 0.800049H118.8C118.7 0.800049 118.6 0.800049 118.6 0.800049C118.6 0.800049 118.6 0.800049 118.5 0.800049C118.5 0.800049 118.5 0.800049 118.4 0.800049H118.3C118.2 0.800049 118.2 0.800049 118.1 0.800049C118.1 0.800049 118.1 0.800049 118 0.800049C117.9 0.800049 117.8 0.900049 117.6 0.900049C117.5 1.00005 117.3 1.00005 117.2 1.10005L104.5 8.50005C104.6 8.40005 104.8 8.40005 104.9 8.30005C105 8.30005 105.2 8.20005 105.3 8.20005C105.3 8.20005 105.3 8.20005 105.4 8.20005C105.5 8.20005 105.6 8.20005 105.8 8.20005C105.8 8.20005 105.8 8.20005 105.9 8.20005C106 8.20005 106.2 8.20005 106.3 8.20005C106.3 8.20005 106.3 8.20005 106.4 8.20005C106.5 8.20005 106.7 8.20005 106.8 8.30005C107 8.30005 107.1 8.40005 107.3 8.40005C107.5 8.50005 107.6 8.50005 107.8 8.60005C108 8.70005 108.1 8.80005 108.3 8.80005C108.6 9.00005 109 9.20005 109.3 9.50005C109.6 9.80005 109.9 10 110.2 10.4C110.5 10.7 110.8 11.1 111.1 11.4C111.4 11.8 111.7 12.2 111.9 12.6L117.3 22L117.1 22.1L104.4 29.5L109.9 26.3L117.2 22V22.1L122.7 18.9C122.8 18.8 123 18.8001 123.1 18.7001C123.2 18.7001 123.4 18.6 123.5 18.6C123.5 18.6 123.5 18.6 123.6 18.6C123.7 18.6 123.8 18.6 124 18.6C124 18.6 124 18.6 124.1 18.6C124.2 18.6 124.4 18.6 124.5 18.6C124.5 18.6 124.5 18.6 124.6 18.6C124.7 18.6 124.9 18.6 125 18.7001C125.2 18.7001 125.3 18.8 125.5 18.8C125.7 18.9 125.8 18.9 126 19C126.2 19.1 126.3 19.2001 126.5 19.2001C126.8 19.4001 127.2 19.6 127.5 19.9C127.8 20.2 128.1 20.4 128.4 20.8C128.7 21.1 129 21.5 129.3 21.8C129.6 22.2 129.9 22.6 130.1 23C130.2 23.2001 130.3 23.4 130.4 23.6C130.5 23.8001 130.6 24 130.7 24.2001C130.8 24.4001 130.9 24.6 130.9 24.8C131 25 131 25.2 131.1 25.4C131.1 25.4 131.1 25.4 131.1 25.5C131.2 25.7001 131.2 25.9 131.3 26.1C131.3 26.3001 131.4 26.5 131.4 26.7001C131.4 26.9001 131.4 27.1 131.5 27.3C131.5 27.3 131.5 27.3 131.5 27.4C131.5 27.6 131.5 27.8 131.5 28C131.5 28.2001 131.5 28.4 131.5 28.5C131.5 28.7001 131.5 28.8 131.4 29C131.4 29 131.4 29 131.4 29.1C131.4 29.3001 131.3 29.4 131.3 29.5C131.3 29.5 131.3 29.5 131.3 29.6C131.3 29.7001 131.2 29.8 131.2 30V30.1C131.2 30.2001 131.1 30.3 131 30.4C131 30.4 131 30.5 130.9 30.5C130.9 30.5 130.9 30.5 130.9 30.6C130.8 30.7001 130.7 30.9 130.6 31L130.5 31.1C130.5 31.1 130.4 31.1 130.4 31.2001L124.5 34.6L130 44.1C130.1 44.3 130.2 44.5 130.3 44.7001C130.4 44.9001 130.5 45.1 130.6 45.3C130.7 45.5 130.8 45.7001 130.8 45.9001C130.9 46.1001 130.9 46.3 131 46.5C131 46.5 131 46.5 131 46.6C131.1 46.8 131.1 47 131.2 47.2001C131.2 47.4001 131.3 47.6 131.3 47.8C131.3 48 131.3 48.2001 131.4 48.4001C131.4 48.4001 131.4 48.4001 131.4 48.5C131.4 48.7001 131.4 48.9 131.4 49.1C131.4 49.3 131.4 49.5 131.4 49.6C131.4 49.8 131.4 49.9 131.3 50.1C131.3 50.1 131.3 50.1001 131.3 50.2001C131.3 50.4001 131.2 50.5 131.2 50.6C131.2 50.6 131.2 50.6001 131.2 50.7001C131.2 50.8 131.1 50.9 131.1 51.1V51.2001C131.1 51.3 131 51.4001 130.9 51.5C130.9 51.5 130.9 51.6 130.8 51.6C130.8 51.6 130.8 51.6001 130.8 51.7001C130.7 51.8 130.6 52 130.5 52.1L130.4 52.2001C130.3 52.3 130.1 52.4001 129.9 52.5L142.6 45.1C142.8 45 142.9 44.9 143.1 44.8L143.2 44.7001C143.3 44.6001 143.4 44.4 143.5 44.3C143.5 44.3 143.5 44.2001 143.6 44.2001C143.6 44.1001 143.7 44 143.7 44C143.7 44 143.7 44 143.7 43.9001V43.8C143.7 43.7001 143.7 43.7 143.8 43.6C143.8 43.5 143.8 43.5 143.9 43.4001C143.9 43.4001 143.9 43.4 143.9 43.3C143.9 43.2001 143.9 43.1 144 43V42.9001C144 42.9001 144 42.9 144 42.8C144 42.8 144 42.8 144 42.7001C144 42.6001 144 42.5 144 42.4001C144 42.3001 144 42.3 144 42.2001C144 42.1001 144 42 144 42C144 41.9001 144 41.8 144 41.8C144 41.7001 144 41.7 144 41.6C144 41.5 144 41.4 144 41.3V41.2001C144 41.2001 144 41.2 144 41.1V41C144 40.9001 144 40.8 144 40.7001C144 40.6001 144 40.6 144 40.5C144 40.4001 144 40.3 144 40.2001C144 40.1001 144 40 143.9 39.9001C143.9 39.8001 143.9 39.8 143.8 39.7001C143.8 39.6001 143.8 39.5 143.7 39.4001V39.3C143.7 39.3 143.7 39.3 143.7 39.2001V39.1C143.7 39 143.6 38.9 143.6 38.8C143.6 38.7001 143.5 38.7 143.5 38.6C143.5 38.5 143.4 38.4 143.4 38.3C143.4 38.2001 143.3 38.1 143.3 38V37.9001V37.8C143.3 37.7001 143.2 37.6 143.2 37.5C143.2 37.4001 143.1 37.3 143.1 37.2001C143.1 37.1001 143 37 143 36.9001C142.9 36.8001 142.9 36.7001 142.8 36.5L137.3 27L142.8 23.8C143 23.7 143.1 23.6 143.3 23.5L143.4 23.4C143.5 23.3 143.6 23.1 143.7 23C143.7 23 143.7 22.9 143.8 22.9C143.8 22.8 143.9 22.7001 143.9 22.7001C143.9 22.7001 143.9 22.7001 143.9 22.6V22.5C143.9 22.4 143.9 22.4 144 22.3C144 22.2 144 22.2001 144.1 22.1C144.1 22.1 144.1 22.1 144.1 22C144.1 21.9 144.1 21.8001 144.2 21.7001V21.6C144.2 21.6 144.2 21.6 144.2 21.5C144.2 21.5 144.2 21.5 144.2 21.4C144.2 21.3 144.2 21.2001 144.2 21.1C144.2 21 144.2 21 144.2 20.9C144.2 20.8 144.2 20.7001 144.2 20.7001C143.5 20.5 143.5 20.4 143.5 20.3Z" fill="#9AF4DC"/>
<path d="M125.6 18.7C126.9 19.5 128.3 20.8 129.3 22.6C131.3 26.1 131.3 29.9 129.3 31.1L123.8 34.3L129.3 43.8C131.3 47.3 131.3 51.1 129.3 52.3C128.3 52.9 126.9 52.7 125.6 51.9C124.3 51.1 122.9 49.8 121.9 48L116.4 38.5L110.9 41.7C109.9 42.3 108.5 42.1 107.2 41.3C105.9 40.5 104.5 39.2 103.5 37.4C101.5 33.9 101.5 30.1 103.5 28.9L109 25.7L103.5 16.2C101.5 12.7 101.5 8.90004 103.5 7.80004C104.5 7.20004 105.9 7.40004 107.2 8.20004C108.5 9.00004 109.9 10.3 110.9 12.1L116.4 21.6L121.9 18.4C123 17.8 124.3 17.9 125.6 18.7Z" fill="white"/>
<path d="M129.2 43.6999C131.2 47.1999 131.2 50.9999 129.2 52.1999C128.2 52.7999 126.8 52.5999 125.5 51.7999C124.2 50.9999 122.8 49.6999 121.8 47.8999L116.3 38.3999L110.8 41.5999C109.8 42.1999 108.4 41.9999 107.1 41.1999C105.8 40.3999 104.4 39.0999 103.4 37.2999C101.4 33.7999 101.4 29.9999 103.4 28.7999L108.9 25.5999L103.4 16.0999C101.4 12.5999 101.4 8.79994 103.4 7.69994C104.4 7.09994 105.8 7.29994 107.1 8.09994" stroke="#171A21" stroke-width="2" stroke-miterlimit="10" stroke-linecap="round" stroke-linejoin="round"/>
</g>
<defs>
<clipPath id="clip0">
<rect width="144" height="144" fill="white"/>
</clipPath>
</defs>
</svg>
