<svg width="144" height="144" viewBox="0 0 144 144" fill="none" xmlns="http://www.w3.org/2000/svg">
<path d="M111.4 24.9C111.4 24 110.9 23.2 110.1 22.7L71.5004 3.10005C69.1004 1.30005 65.5004 1.40005 61.6004 3.70005L39.0004 16.8C35.6004 18.8 32.4004 22.7 30.6004 27L23.9004 43.5C23.7004 43.9 23.4004 44.3 23.1004 44.6L10.5004 53.5C7.00041 55.9 4.20041 60.1 3.00041 64.3C2.50041 66.1001 2.20041 67.8 2.30041 69.4C2.30041 69.6 2.30041 69.8 2.30041 70C2.30041 70.1 2.30041 70.1 2.30041 70.2L2.40041 79.7C2.40041 80.6 2.90041 81.3 3.60041 81.8L34.8004 99.7C36.3004 100.6 38.2004 99.6 38.4004 97.9L40.2004 85.4C40.3004 84.9 40.5004 84.4 40.9004 84L53.2004 72.3C53.4004 72.1001 53.7004 71.9 53.9004 71.8L87.9004 57.5C88.1004 57.4 88.3004 57.3 88.4004 57.2L105 44.4C105.2 44.3 105.4 44.1 105.5 43.9L111 36.1C111.3 35.7 111.4 35.2 111.4 34.7V24.9Z" fill="#9AF4DC"/>
<path d="M49.7 100.2L38.5 93.8001L50.5 74.9001L60.9 80.7001L49.7 100.2Z" fill="#9AF4DC"/>
<path d="M55.5996 81.5C52.5996 83.2 50.0996 86.5 48.6996 90.1C47.9996 91.8 47.5996 93.6 47.5996 95.3C47.5996 95.5 47.5996 95.7 47.5996 95.9C47.8996 100.5 51.2996 102.3 55.5996 99.9C59.7996 97.5 63.2996 91.7 63.4996 86.7C63.4996 86.5 63.4996 86.3 63.4996 86.1C63.4996 84.4 63.0996 83.1 62.3996 82.1C61.0996 80.1 58.5996 79.8 55.5996 81.5Z" fill="#EBFDF8" stroke="#171A21" stroke-width="2" stroke-miterlimit="10" stroke-linecap="round" stroke-linejoin="round"/>
<path d="M98.5008 71.9001L87.3008 65.6001L99.3008 46.6001L109.701 52.5001L98.5008 71.9001Z" fill="#9AF4DC"/>
<path d="M104.4 53.2001C101.4 54.9001 98.9004 58.2001 97.5004 61.8001C96.8004 63.5001 96.4004 65.3001 96.4004 67.0001C96.4004 67.2001 96.4004 67.4001 96.4004 67.6001C96.7004 72.2001 100.1 74.0001 104.4 71.6001C108.6 69.2001 112.1 63.4001 112.3 58.4001C112.3 58.2001 112.3 58.0001 112.3 57.8001C112.3 56.1001 111.9 54.8001 111.2 53.8001C110 51.9001 107.4 51.5001 104.4 53.2001Z" fill="#EBFDF8" stroke="#171A21" stroke-width="2" stroke-miterlimit="10" stroke-linecap="round" stroke-linejoin="round"/>
<path d="M97.1004 24.1001L74.5004 37.1001C71.1004 39.1001 67.9004 43.0001 66.1004 47.3001L59.4004 63.8001C59.2004 64.2001 58.9004 64.6001 58.6004 64.9001L46.0004 73.8001C42.5004 76.3001 39.7004 80.5001 38.5004 84.6001C38.0004 86.4001 37.7004 88.1001 37.8004 89.7001C37.8004 89.9001 37.8004 90.1001 37.8004 90.3001C37.8004 90.4001 37.8004 90.4001 37.8004 90.5001L37.9004 97.2001C37.9004 99.1001 39.9004 100.2 41.5004 99.3001L45.6004 96.9001C45.6004 96.7001 45.6004 96.5001 45.6004 96.3001C45.6004 94.7001 45.8004 93.4001 46.3004 91.6001L46.4004 91.2001C46.5004 90.7001 46.7004 90.2001 46.9004 89.7001C48.7004 85.1001 52.0004 81.0001 55.6004 78.9001C59.2004 76.8001 62.5004 77.1001 64.3004 79.7001C64.5004 80.0001 64.7004 80.3001 64.8004 80.6001C65.3004 81.7001 65.6004 83.1001 65.6004 84.7001C65.6004 84.9001 65.6004 85.1001 65.6004 85.3001L94.4004 68.7001C94.4004 68.5001 94.4004 68.3001 94.4004 68.1001C94.4004 66.5001 94.7004 64.8001 95.2004 63.1001C95.3004 62.6001 95.5004 62.1001 95.7004 61.6001C97.5004 57.0001 100.8 52.9001 104.4 50.8001C108 48.7001 111.3 49.0001 113.1 51.6001C113.3 51.9001 113.5 52.2001 113.6 52.5001C114.1 53.6001 114.4 55.0001 114.4 56.6001C114.4 56.8001 114.4 57.0001 114.4 57.2001L119.5 54.2001C120.3 53.8001 120.7 53.0001 120.7 52.1001V35.7001C120.7 24.8001 109 17.1001 97.1004 24.1001Z" fill="white"/>
<path d="M37.9004 97.3C37.9004 99.2 39.9004 100.3 41.5004 99.4L45.6004 97C45.6004 96.8 45.6004 96.6 45.6004 96.4C45.6004 94.8 45.8004 93.5 46.3004 91.7L46.4004 91.3" stroke="#171A21" stroke-width="2" stroke-miterlimit="10" stroke-linecap="round" stroke-linejoin="round"/>
<path d="M65.6006 85.5001L94.4006 68.9001" stroke="#171A21" stroke-width="2" stroke-miterlimit="10" stroke-linecap="round" stroke-linejoin="round"/>
<path d="M114.401 57.3001L119.501 54.3001C120.301 53.9001 120.701 53.1001 120.701 52.2001V35.8001C120.701 24.8001 109.001 17.0001 97.1006 24.0001" stroke="#171A21" stroke-width="2" stroke-miterlimit="10" stroke-linecap="round" stroke-linejoin="round"/>
<path d="M67.9007 61.7001C67.2007 62.1001 66.5007 61.4001 66.7007 60.7001L71.3007 49.3001C72.3007 46.9001 74.0007 44.8001 75.9007 43.7001L79.9007 41.4001C81.5007 40.5001 83.5007 41.6001 83.5007 43.5001V51.2001C83.5007 52.1001 83.0007 52.9001 82.3007 53.3001L67.9007 61.7001Z" fill="#EBFDF8" stroke="#171A21" stroke-width="2" stroke-miterlimit="10" stroke-linecap="round" stroke-linejoin="round"/>
<path d="M83.2002 58.5L80.3002 60.2C79.7002 60.6 79.2002 61.4 79.2002 62.1C79.2002 62.8 79.7002 63.1 80.3002 62.7L83.2002 61C83.8002 60.6 84.3002 59.8 84.3002 59.1C84.3002 58.4 83.8002 58.1 83.2002 58.5Z" fill="#9AF4DC"/>
<path d="M29.8005 45.4001L53.4005 59.0001C55.1005 60.0001 57.2005 59.3001 58.0005 57.5001L63.6005 45.0001C64.3005 43.5001 63.7005 41.7001 62.2005 40.9001L38.6005 27.4001C36.9005 26.5001 34.8005 27.2001 34.1005 28.9001L28.6005 41.3001C27.8005 42.8001 28.4005 44.6001 29.8005 45.4001Z" fill="#EBFDF8"/>
<path d="M7.20078 71.2C8.80078 72.1 10.0008 74.3 10.0008 76.1C10.0008 77.9 8.70078 78.6 7.10078 77.7C5.50078 76.8 4.30078 74.6 4.30078 72.8C4.40078 71.1 5.70078 70.3 7.20078 71.2Z" fill="#EBFDF8"/>
<path d="M29.2008 83.5C30.8008 84.4 32.0008 86.6 32.0008 88.4C32.0008 90.2 30.7008 90.9 29.1008 90C27.5008 89.1 26.3008 86.9 26.3008 85.1C26.4008 83.3 27.6008 82.6 29.2008 83.5Z" fill="#EBFDF8"/>
<path d="M126.7 77.1999L126.8 111.4V111.5V111.6V111.7V111.8V111.9V112V112.1C126.8 112.2 126.9 112.2 126.9 112.2L127 112.3C127 112.3 127 112.4 127.1 112.4C127.2 112.5 127.3 112.5 127.3 112.6L129.4 113.8C129.8 114 130.4 114 131 113.7C132.2 113 133.2 111.3 133.2 109.9L133.1 76.8999C133.1 76.1999 133.6 75.3999 134.2 74.9999L140.1 71.5999C141.3 70.8999 142.3 69.1999 142.3 67.7999C142.3 67.0999 142.1 66.5999 141.7 66.3999L139.6 65.1999C139.5 65.1999 139.5 65.0999 139.4 65.0999H139.3H139.2H139.1C139.1 65.0999 139.1 65.0999 139 65.0999H138.9H138.8C138.8 65.0999 138.8 65.0999 138.7 65.0999H138.6H138.5C138.5 65.0999 138.5 65.0999 138.4 65.0999H138.3C138.3 65.0999 138.3 65.0999 138.2 65.0999L131.2 69.0999C131.1 69.0999 131.1 69.1999 131 69.1999C130.9 69.1999 130.9 69.2999 130.8 69.2999L130.7 69.3999C130.6 69.3999 130.6 69.4999 130.5 69.4999C130.5 69.4999 130.5 69.4999 130.4 69.5999C130.4 69.5999 130.3 69.5999 130.3 69.6999C130.2 69.7999 130.2 69.7999 130.1 69.8999L130 69.9999C130 69.9999 130 69.9999 129.9 70.0999C129.8 70.1999 129.8 70.1999 129.7 70.2999L129.6 70.3999C129.5 70.4999 129.5 70.4999 129.4 70.5999C129.3 70.6999 129.3 70.6999 129.2 70.7999C129.1 70.8999 129.1 70.8999 129 70.9999C128.9 71.0999 128.9 71.1999 128.8 71.2999C128.7 71.3999 128.6 71.5999 128.5 71.6999C128.4 71.7999 128.4 71.8999 128.3 71.9999C128.3 72.0999 128.2 72.0999 128.2 72.1999C128.2 72.1999 128.2 72.2999 128.1 72.2999C128.1 72.3999 128 72.3999 128 72.4999C128 72.5999 127.9 72.5999 127.9 72.6999C127.9 72.7999 127.8 72.8999 127.8 72.8999C127.8 72.9999 127.7 72.9999 127.7 73.0999C127.7 73.1999 127.7 73.1999 127.6 73.2999C127.6 73.3999 127.5 73.3999 127.5 73.4999C127.5 73.4999 127.5 73.5999 127.4 73.5999C127.4 73.6999 127.3 73.6999 127.3 73.7999C127.3 73.8999 127.3 73.9999 127.2 73.9999C127.2 74.0999 127.2 74.0999 127.2 74.1999C127.2 74.2999 127.2 74.3999 127.1 74.3999V74.4999V74.5999C127.1 74.6999 127.1 74.7999 127.1 74.7999C127.1 74.8999 127.1 74.8999 127.1 74.9999C127.1 75.0999 127.1 75.0999 127.1 75.1999C127.1 75.2999 127.1 75.2999 127.1 75.3999C127.1 75.3999 127.1 75.3999 127.1 75.4999V75.5999C127.1 75.6999 127.1 75.6999 127.1 75.7999C126.7 77.0999 126.7 77.0999 126.7 77.1999ZM141.4 66.5999C141.3 66.5999 141.3 66.4999 141.4 66.5999C141.3 66.4999 141.3 66.4999 141.4 66.5999C141.3 66.5999 141.3 66.4999 141.4 66.5999ZM141 66.5999C141 66.5999 140.9 66.5999 141 66.5999C140.9 66.5999 140.9 66.5999 141 66.5999C141 66.5999 140.9 66.5999 141 66.5999ZM140.8 66.5999C140.7 66.5999 140.7 66.5999 140.8 66.5999C140.7 66.5999 140.7 66.5999 140.8 66.5999C140.7 66.5999 140.7 66.5999 140.8 66.5999ZM141.1 66.4999C141.1 66.4999 141.2 66.4999 141.1 66.4999C141.2 66.4999 141.1 66.4999 141.1 66.4999Z" fill="#9AF4DC"/>
<path d="M107.7 63.4999L107.8 97.6999V97.7999V97.8999V97.9999V98.0999V98.1999V98.2999V98.3999C107.8 98.4999 107.9 98.4999 107.9 98.4999L108 98.5999C108 98.5999 108 98.6999 108.1 98.6999C108.2 98.7999 108.3 98.7999 108.3 98.8999L110.4 100.1C110.8 100.3 111.4 100.3 112 99.9999C113.2 99.2999 114.2 97.5999 114.2 96.1999L114.1 63.1999C114.1 62.4999 114.6 61.6999 115.2 61.2999L121.1 57.8999C122.3 57.1999 123.3 55.4999 123.3 54.0999C123.3 53.3999 123.1 52.8999 122.7 52.6999L120.6 51.4999C120.5 51.4999 120.5 51.3999 120.4 51.3999H120.3H120.2H120.1C120.1 51.3999 120.1 51.3999 120 51.3999H119.9H119.8C119.8 51.3999 119.8 51.3999 119.7 51.3999H119.6H119.5C119.5 51.3999 119.5 51.3999 119.4 51.3999H119.3C119.3 51.3999 119.3 51.3999 119.2 51.3999L112.2 55.3999C112.1 55.3999 112.1 55.4999 112 55.4999C111.9 55.4999 111.9 55.5999 111.8 55.5999L111.7 55.6999C111.6 55.6999 111.6 55.7999 111.5 55.7999C111.5 55.7999 111.5 55.7999 111.4 55.8999C111.4 55.8999 111.3 55.8999 111.3 55.9999C111.2 56.0999 111.2 56.0999 111.1 56.1999L111 56.2999C111 56.2999 111 56.2999 110.9 56.3999C110.8 56.4999 110.8 56.4999 110.7 56.5999L110.6 56.6999C110.5 56.7999 110.5 56.7999 110.4 56.8999C110.3 56.9999 110.3 56.9999 110.2 57.0999C110.1 57.1999 110.1 57.1999 110 57.2999C109.9 57.3999 109.9 57.4999 109.8 57.5999C109.7 57.6999 109.6 57.8999 109.5 57.9999C109.4 58.0999 109.4 58.1999 109.3 58.2999C109.3 58.3999 109.2 58.3999 109.2 58.4999C109.2 58.4999 109.2 58.5999 109.1 58.5999C109.1 58.6999 109 58.6999 109 58.7999C109 58.8999 108.9 58.8999 108.9 58.9999C108.9 59.0999 108.8 59.1999 108.8 59.1999C108.8 59.2999 108.7 59.2999 108.7 59.3999C108.7 59.4999 108.7 59.4999 108.6 59.5999C108.6 59.6999 108.5 59.6999 108.5 59.7999C108.5 59.7999 108.5 59.8999 108.4 59.8999C108.4 59.9999 108.3 59.9999 108.3 60.0999C108.3 60.1999 108.3 60.2999 108.2 60.2999C108.2 60.3999 108.2 60.3999 108.2 60.4999C108.2 60.5999 108.2 60.6999 108.1 60.6999V60.7999V60.8999C108.1 60.9999 108.1 61.0999 108.1 61.0999C108.1 61.1999 108.1 61.1999 108.1 61.2999C108.1 61.3999 108.1 61.3999 108.1 61.4999C108.1 61.5999 108.1 61.5999 108.1 61.6999C108.1 61.6999 108.1 61.6999 108.1 61.7999V61.8999C108.1 61.9999 108.1 61.9999 108.1 62.0999C107.7 63.2999 107.7 63.3999 107.7 63.4999ZM122.5 52.7999C122.4 52.7999 122.4 52.7999 122.5 52.7999C122.4 52.7999 122.5 52.7999 122.5 52.7999ZM122 52.7999C121.9 52.7999 121.9 52.7999 122 52.7999C121.9 52.7999 121.9 52.7999 122 52.7999C121.9 52.7999 121.9 52.7999 122 52.7999ZM121.5 52.9999C121.4 52.9999 121.4 52.9999 121.5 52.9999V52.9999Z" fill="#9AF4DC"/>
<path d="M117 138.2L107.6 132.9L117.6 117.1L126.3 122L117 138.2Z" fill="#9AF4DC"/>
<path d="M121.899 122.6C119.399 124 117.299 126.8 116.099 129.8C115.499 131.2 115.199 132.7 115.199 134.1C115.199 134.3 115.199 134.4 115.199 134.6C115.399 138.5 118.299 140 121.899 137.9C125.399 135.9 128.299 131 128.499 126.9C128.499 126.7 128.499 126.6 128.499 126.4C128.499 125 128.199 123.9 127.599 123.1C126.499 121.5 124.299 121.2 121.899 122.6Z" fill="#EBFDF8" stroke="#171A21" stroke-width="2" stroke-miterlimit="10" stroke-linecap="round" stroke-linejoin="round"/>
<path d="M65.7998 118.6C65.7998 118.7 65.7998 118.8 65.7998 118.9C65.7998 119 65.7998 119.1 65.7998 119.2C65.7998 119.3 65.7998 119.4 65.8998 119.5C65.8998 119.6 65.9998 119.7 65.9998 119.8C65.9998 119.9 66.0998 120 66.0998 120.1C66.0998 120.2 66.1998 120.3 66.2998 120.4C66.3998 120.6 66.4998 120.7 66.5998 120.9C66.5998 120.9 66.5998 120.9 66.6998 121C66.7998 121.1 66.8998 121.3 67.0998 121.4C67.0998 121.4 67.0998 121.5 67.1998 121.5C67.2998 121.7 67.4998 121.8 67.6998 121.9C67.7998 122 67.8998 122.1 67.9998 122.2C68.0998 122.3 68.1998 122.4 68.2998 122.4C68.3998 122.5 68.5998 122.6 68.6998 122.7C68.7998 122.8 68.9998 122.9 69.0998 123C69.2998 123.1 69.5998 123.3 69.7998 123.4C69.8998 123.4 69.8998 123.5 69.9998 123.5C70.1998 123.6 70.4998 123.7 70.6998 123.8H70.7998C71.0998 123.9 71.2998 124 71.5998 124.1C71.7998 124.2 71.9998 124.2 72.1998 124.3C72.2998 124.3 72.4998 124.4 72.5998 124.4C72.7998 124.4 72.9998 124.5 73.1998 124.5C73.2998 124.5 73.4998 124.6 73.5998 124.6C73.9998 124.7 74.3998 124.7 74.7998 124.8C74.8998 124.8 75.0998 124.8 75.1998 124.8C75.3998 124.8 75.6998 124.8 75.8998 124.8C76.0998 124.8 76.1998 124.8 76.3998 124.8C76.5998 124.8 76.7998 124.8 76.9998 124.8C77.1998 124.8 77.2998 124.8 77.4998 124.8C77.6998 124.8 77.8998 124.8 77.9998 124.8C78.1998 124.8 78.2998 124.8 78.4998 124.8C78.6998 124.8 78.8998 124.8 78.9998 124.7C79.1998 124.7 79.2998 124.7 79.4998 124.6C79.6998 124.6 79.8998 124.5 80.0998 124.5C80.1998 124.5 80.3998 124.4 80.4998 124.4C80.6998 124.4 80.8998 124.3 81.1998 124.2C81.2998 124.2 81.4998 124.1 81.5998 124.1C81.6998 124.1 81.7998 124.1 81.7998 124C81.9998 123.9 82.1998 123.9 82.4998 123.8C82.5998 123.8 82.5998 123.8 82.6998 123.7C82.8998 123.6 83.0998 123.5 83.2998 123.5C83.3998 123.5 83.4998 123.4 83.5998 123.4C83.8998 123.3 84.0998 123.1 84.3998 123L115.3 105.5C117.4 104.3 118.5 102.7 118.5 101.1V105.9C118.5 107.5 117.4 109.1 115.3 110.3L84.3998 127.8C84.0998 127.9 83.8998 128.1 83.5998 128.2C83.4998 128.2 83.3998 128.3 83.2998 128.3C83.0998 128.4 82.9998 128.4 82.7998 128.5H82.6998C82.5998 128.5 82.5998 128.5 82.4998 128.6C82.2998 128.7 82.0998 128.8 81.7998 128.8C81.6998 128.8 81.5998 128.8 81.5998 128.9C81.4998 128.9 81.4998 128.9 81.3998 128.9C81.2998 128.9 81.1998 128.9 81.0998 129C80.8998 129.1 80.6998 129.1 80.3998 129.2C80.2998 129.2 80.2998 129.2 80.1998 129.2C80.0998 129.2 79.9998 129.2 79.8998 129.2C79.6998 129.2 79.4998 129.3 79.2998 129.3C79.1998 129.3 79.0998 129.3 79.0998 129.3C78.9998 129.3 78.8998 129.3 78.7998 129.3C78.5998 129.3 78.3998 129.3 78.2998 129.4C78.1998 129.4 78.0998 129.4 77.9998 129.4C77.8998 129.4 77.7998 129.4 77.7998 129.4C77.5998 129.4 77.3998 129.4 77.2998 129.4C77.1998 129.4 77.0998 129.4 76.9998 129.4C76.8998 129.4 76.8998 129.4 76.7998 129.4C76.5998 129.4 76.3998 129.4 76.1998 129.4C76.0998 129.4 75.9998 129.4 75.8998 129.4C75.7998 129.4 75.7998 129.4 75.6998 129.4C75.4998 129.4 75.1998 129.4 74.9998 129.4C74.8998 129.4 74.7998 129.4 74.6998 129.4H74.5998C74.1998 129.4 73.7998 129.3 73.3998 129.2C73.3998 129.2 73.3998 129.2 73.2998 129.2C73.1998 129.2 73.0998 129.1 72.9998 129.1C72.7998 129.1 72.5998 129 72.3998 129C72.2998 129 72.0998 128.9 71.9998 128.9C71.7998 128.8 71.5998 128.8 71.3998 128.7H71.2998C71.0998 128.6 70.8998 128.6 70.5998 128.5H70.4998C70.2998 128.4 69.9998 128.3 69.7998 128.2C69.6998 128.2 69.6998 128.1 69.5998 128.1C69.3998 128 69.0998 127.9 68.8998 127.7L68.7998 127.6C68.6998 127.5 68.5998 127.5 68.4998 127.4C68.3998 127.3 68.1998 127.2 68.0998 127.1C67.9998 127 67.8998 126.9 67.7998 126.9C67.6998 126.8 67.5998 126.7 67.4998 126.6C67.4998 126.6 67.4998 126.6 67.3998 126.5C67.2998 126.4 67.0998 126.2 66.9998 126.1C66.9998 126.1 66.9998 126 66.8998 126C66.7998 125.9 66.7998 125.8 66.6998 125.8C66.5998 125.7 66.5998 125.7 66.5998 125.6C66.5998 125.6 66.5998 125.6 66.4998 125.5C66.3998 125.4 66.2998 125.3 66.2998 125.1V125C66.1998 124.9 66.1998 124.8 66.0998 124.7C66.0998 124.6 65.9998 124.6 65.9998 124.5C65.9998 124.5 65.9998 124.5 65.9998 124.4C65.9998 124.3 65.8998 124.2 65.8998 124.1C65.8998 124 65.8998 124 65.7998 123.9C65.7998 123.9 65.7998 123.9 65.7998 123.8C65.7998 123.7 65.7998 123.6 65.7998 123.5C65.7998 123.4 65.7998 123.4 65.7998 123.3V123.2V118.6Z" fill="#9AF4DC"/>
<path d="M115.1 105.6C119.3 103.2 119.3 99.2 115.1 96.8C110.9 94.4 104.1 94.4 99.8996 96.8L68.9996 114.2C64.7996 116.6 64.7996 120.6 68.9996 123" fill="white"/>
<path d="M115.1 105.6C119.3 103.2 119.3 99.2 115.1 96.8C110.9 94.4 104.1 94.4 99.8996 96.8L68.9996 114.2C64.7996 116.6 64.7996 120.6 68.9996 123" stroke="#171A21" stroke-width="2" stroke-miterlimit="10" stroke-linecap="round" stroke-linejoin="round"/>
<path d="M131.399 118.2C135.599 115.8 135.599 111.8 131.399 109.4C127.199 107 120.399 107 116.199 109.4L85.2994 126.9C81.0994 129.3 81.0994 133.3 85.2994 135.7L93.3994 141L131.399 118.2Z" fill="white"/>
<path d="M82.0996 131.3C82.0996 131.4 82.0996 131.5 82.0996 131.6C82.0996 131.7 82.0996 131.8 82.0996 131.9C82.0996 132 82.0996 132.1 82.1996 132.2C82.1996 132.3 82.2996 132.4 82.2996 132.5C82.2996 132.6 82.3996 132.7 82.3996 132.8C82.3996 132.9 82.4996 133 82.5996 133.1C82.6996 133.3 82.7996 133.4 82.8996 133.6C82.8996 133.6 82.8996 133.6 82.9996 133.7C83.0996 133.8 83.1996 134 83.3996 134.1C83.3996 134.1 83.3996 134.2 83.4996 134.2C83.5996 134.4 83.7996 134.5 83.9996 134.6C84.0996 134.7 84.1996 134.8 84.2996 134.9C84.3996 135 84.4996 135.1 84.5996 135.1C84.6996 135.2 84.8996 135.3 84.9996 135.4C85.0996 135.5 85.2996 135.6 85.3996 135.7C85.5996 135.8 85.8996 136 86.0996 136.1C86.1996 136.1 86.1996 136.2 86.2996 136.2C86.4996 136.3 86.7996 136.4 86.9996 136.5H87.0996C87.3996 136.6 87.5996 136.7 87.8996 136.8C88.0996 136.9 88.2996 136.9 88.4996 137C88.5996 137 88.7996 137.1 88.8996 137.1C89.0996 137.1 89.2996 137.2 89.4996 137.2C89.5996 137.2 89.7996 137.3 89.8996 137.3C90.2996 137.4 90.6996 137.4 91.0996 137.5C91.1996 137.5 91.3996 137.5 91.4996 137.5C91.6996 137.5 91.9996 137.5 92.1996 137.5C92.3996 137.5 92.4996 137.5 92.6996 137.5C92.8996 137.5 93.0996 137.5 93.2996 137.5C93.4996 137.5 93.5996 137.5 93.7996 137.5C93.9996 137.5 94.1996 137.5 94.2996 137.5C94.4996 137.5 94.5996 137.5 94.7996 137.5C94.9996 137.5 95.1996 137.5 95.2996 137.4C95.4996 137.4 95.5996 137.4 95.7996 137.3C95.9996 137.3 96.1996 137.2 96.3996 137.2C96.4996 137.2 96.6996 137.1 96.7996 137.1C96.9996 137.1 97.1996 137 97.4996 136.9C97.5996 136.9 97.7996 136.8 97.8996 136.8C97.9996 136.8 98.0996 136.8 98.0996 136.7C98.2996 136.6 98.4996 136.6 98.7996 136.5C98.8996 136.5 98.8996 136.5 98.9996 136.4C99.1996 136.3 99.3996 136.2 99.5996 136.2C99.6996 136.2 99.7996 136.1 99.8996 136.1C100.2 136 100.4 135.8 100.7 135.7L131.6 118.2C133.7 117 134.8 115.4 134.8 113.8V118.6C134.8 120.2 133.7 121.8 131.6 123L100.7 140.5C100.4 140.6 100.2 140.8 99.8996 140.9C99.7996 140.9 99.6996 141 99.5996 141C99.3996 141.1 99.2996 141.1 99.0996 141.2H98.9996C98.8996 141.2 98.8996 141.2 98.7996 141.3C98.5996 141.4 98.3996 141.5 98.0996 141.5C97.9996 141.5 97.8996 141.5 97.8996 141.6C97.7996 141.6 97.7996 141.6 97.6996 141.6C97.5996 141.6 97.4996 141.6 97.3996 141.7C97.1996 141.8 96.9996 141.8 96.6996 141.9C96.5996 141.9 96.5996 141.9 96.4996 141.9C96.3996 141.9 96.2996 141.9 96.1996 141.9C95.9996 141.9 95.7996 142 95.5996 142C95.4996 142 95.3996 142 95.3996 142C95.2996 142 95.1996 142 95.0996 142C94.8996 142 94.6996 142 94.5996 142.1C94.4996 142.1 94.3996 142.1 94.2996 142.1C94.1996 142.1 94.0996 142.1 94.0996 142.1C93.8996 142.1 93.6996 142.1 93.5996 142.1C93.4996 142.1 93.3996 142.1 93.2996 142.1C93.1996 142.1 93.1996 142.1 93.0996 142.1C92.8996 142.1 92.6996 142.1 92.4996 142.1C92.3996 142.1 92.2996 142.1 92.1996 142.1C92.0996 142.1 92.0996 142.1 91.9996 142.1C91.7996 142.1 91.4996 142.1 91.2996 142.1C91.1996 142.1 91.0996 142.1 90.9996 142.1H90.8996C90.4996 142.1 90.0996 142 89.6996 141.9C89.6996 141.9 89.6996 141.9 89.5996 141.9C89.4996 141.9 89.3996 141.8 89.2996 141.8C89.0996 141.8 88.8996 141.7 88.6996 141.7C88.5996 141.7 88.3996 141.6 88.2996 141.6C88.0996 141.5 87.8996 141.5 87.6996 141.4H87.5996C87.3996 141.3 87.1996 141.3 86.8996 141.2H86.7996C86.5996 141.1 86.2996 141 86.0996 140.9C85.9996 140.9 85.9996 140.8 85.8996 140.8C85.6996 140.7 85.3996 140.6 85.1996 140.4L85.0996 140.3C84.9996 140.2 84.8996 140.2 84.7996 140.1C84.6996 140 84.4996 139.9 84.3996 139.8C84.2996 139.7 84.1996 139.6 84.0996 139.6C83.9996 139.5 83.8996 139.4 83.7996 139.3C83.7996 139.3 83.7996 139.3 83.6996 139.2C83.5996 139.1 83.3996 138.9 83.2996 138.8C83.2996 138.8 83.2996 138.7 83.1996 138.7C83.0996 138.6 83.0996 138.5 82.9996 138.5C82.8996 138.4 82.8996 138.4 82.8996 138.3C82.8996 138.3 82.8996 138.3 82.7996 138.2C82.6996 138.1 82.5996 138 82.5996 137.8V137.7C82.4996 137.6 82.4996 137.5 82.3996 137.4C82.3996 137.3 82.2996 137.3 82.2996 137.2C82.2996 137.2 82.2996 137.2 82.2996 137.1C82.2996 137 82.1996 136.9 82.1996 136.8C82.1996 136.7 82.1996 136.7 82.0996 136.6C82.0996 136.6 82.0996 136.6 82.0996 136.5C82.0996 136.4 82.0996 136.3 82.0996 136.2C82.0996 136.1 82.0996 136.1 82.0996 136V135.9V131.3Z" fill="#9AF4DC"/>
<path d="M131.399 118.2C135.599 115.8 135.599 111.8 131.399 109.4C127.199 107 120.399 107 116.199 109.4L85.2994 126.9C81.0994 129.3 81.0994 133.3 85.2994 135.7" fill="white"/>
<path d="M131.399 118.2C135.599 115.8 135.599 111.8 131.399 109.4C127.199 107 120.399 107 116.199 109.4L85.2994 126.9C81.0994 129.3 81.0994 133.3 85.2994 135.7" stroke="#171A21" stroke-width="2" stroke-miterlimit="10" stroke-linecap="round" stroke-linejoin="round"/>
<path d="M104.999 108.7L126.999 96C127.599 95.7 128.299 96.1 128.299 96.7L128.399 113.3C128.399 114.5 127.799 115.7 126.699 116.3L104.999 128.7C103.899 129.3 102.599 129.3 101.599 128.7L80.1994 116.2C79.1994 115.6 78.4994 114.5 78.4994 113.3L78.3994 96.7C78.3994 96 79.0994 95.6 79.6994 96L101.499 108.7C102.599 109.3 103.899 109.3 104.999 108.7Z" fill="#9AF4DC"/>
<path d="M79.699 96.0001L101.499 108.7C102.599 109.3 103.899 109.3 104.899 108.7L126.999 96.0001C127.599 95.7001 127.599 94.9001 126.999 94.5001L105.199 81.8001C104.099 81.2001 102.799 81.2001 101.799 81.8001L79.799 94.5001C79.199 94.8001 79.099 95.6001 79.699 96.0001Z" fill="#EBFDF8"/>
<path d="M80.1994 116.2C79.1994 115.6 78.4994 114.5 78.4994 113.3L78.3994 97.2C78.3994 96 78.9994 94.8 80.0994 94.2L101.699 81.7C102.799 81.1 104.099 81.1 105.099 81.7L126.499 94.2C127.499 94.8 128.199 95.9 128.199 97.1L128.299 113.2C128.299 114.4 127.699 115.6 126.599 116.2" stroke="#171A21" stroke-width="2" stroke-miterlimit="10" stroke-linecap="round" stroke-linejoin="round"/>
<path d="M119.8 90.3L94.7996 104.8L86.0996 99.7L111.1 85.2L119.8 90.3Z" fill="white" stroke="#171A21" stroke-width="2" stroke-miterlimit="10" stroke-linecap="round" stroke-linejoin="round"/>
</svg>
