<svg width="482" height="417" viewBox="0 0 482 417" fill="none" xmlns="http://www.w3.org/2000/svg">
<path d="M29.2 204.1C23.7 206.1 26 209.4 25.6 216C25.2 222.5 23.2 228.5 20.7 235.1C17.7 243.1 3.50003 242.6 2.00003 251.3C0.100026 263.2 28 267.5 35.4 266.9C49.7 265.8 61.3 255.9 75 252.8C91.7 249 107.6 258.9 123.4 262.8C134.5 265.5 156.7 271.9 165.1 260.6C174.8 247.6 159.3 234.6 148.4 230.1C134.8 224.4 123.6 221.6 114 209.7C103.5 196.7 88.8 189.5 71.7 194.6C64.5 196.7 59.5 200.9 51.8 201.7C44.5 202.3 36.4 201.4 29.2 204.1C38.9 200.5 23.4 206.3 29.2 204.1Z" fill="#2F58FF"/>
<path d="M29.2 195.1C23.7 197.1 17.1 201 16.7 207.5C16.3 214 23.2 219.4 20.7 226C17.7 234 3.50003 233.5 2.00003 242.2C0.100026 254.1 28 258.4 35.4 257.8C49.7 256.7 61.3 246.8 75 243.7C91.7 239.9 107.6 249.8 123.4 253.7C134.5 256.4 156.7 262.8 165.1 251.5C174.8 238.5 159.3 225.5 148.4 221C134.8 215.3 123.6 212.5 114 200.6C103.5 187.6 88.8 180.4 71.7 185.5C64.5 187.6 59.5 191.8 51.8 192.6C44.5 193.3 36.4 192.4 29.2 195.1C38.9 191.5 23.4 197.3 29.2 195.1Z" fill="#FFD394"/>
<path d="M165.2 251.5C174.9 238.5 159.4 225.5 148.5 221C134.9 215.3 123.7 212.5 114.1 200.6C103.6 187.6 88.9 180.4 71.8 185.5C64.6 187.6 59.6 191.8 51.9 192.6C44.4 193.3 36.4 192.4 29.1 195.1C23.2 197.3 38.8 191.5 29.1 195.1C23.6 197.1 17 201 16.6 207.5C16.2 214 23.1 219.4 20.6 226C17.6 234 3.39998 233.5 1.89998 242.2C1.29998 245.9 3.49998 248.8 7.09998 251.1" stroke="#171A21" stroke-width="2" stroke-miterlimit="10" stroke-linecap="round" stroke-linejoin="round"/>
<path d="M47.3 38.3999C50 38.3999 52.2 40.5999 52.2 43.2999V211.4C52.2 214.1 50 216.3 47.3 216.3C44.6 216.3 42.4 214.1 42.4 211.4V43.1999C42.5 40.4999 44.6 38.3999 47.3 38.3999Z" fill="white"/>
<path d="M51.4 54.1L7.19999 28.4C4.59999 26.9 3.19999 29.7 4.89999 32.9L15.9 53.4C16.9 55.3 16.9 57.4 15.9 58.1L4.79999 65.8C2.99999 67 4.39999 71.4 7.09999 73L51.3 98.6C53 99.6 54.4 98.8 54.4 96.9L54.5 59.3C54.5 57.4 53.1 55.1 51.4 54.1Z" fill="#2F58FF"/>
</svg>
