<svg width="481" height="417" viewBox="0 0 481 417" fill="none" xmlns="http://www.w3.org/2000/svg">
<path d="M434.4 415C437.6 416.1 440.7 418.5 443.6 415.5C445.7 413.4 444.4 410.6 446.1 408.1C449.2 403.6 456.6 404.5 459.3 400.1C464 392.6 455.1 393.1 450.4 392.5C444.6 391.7 440.9 388 435.4 386.3C429.1 384.3 420.5 383.1 415.1 387.9C411.7 390.9 411.9 393.4 411.8 397.5C411.8 399 410.4 405.1 410.8 406.1C413.5 413 418.9 406.2 423.6 407.2C427.3 408 425.7 410 427.5 411.5C430 413.4 431.4 414 434.4 415Z" fill="#2F58FF"/>
<path d="M434.4 408.7C437.6 409.8 440.7 412.2 443.6 409.2C445.7 407.1 444.4 404.3 446.1 401.8C449.2 397.3 456.6 398.2 459.3 393.8C464 386.3 455.1 386.8 450.4 386.2C444.6 385.4 440.9 381.7 435.4 380C429.1 378 420.5 376.8 415.1 381.6C411.7 384.6 411.9 387.1 411.8 391.2C411.8 392.7 410.4 398.8 410.8 399.8C413.5 406.7 418.9 399.9 423.6 400.9C427.3 401.7 425.7 403.7 427.5 405.2C430 407.1 431.4 407.7 434.4 408.7Z" fill="#FFD394"/>
<path d="M459.4 393.9C464.1 386.4 455.2 386.9 450.5 386.3C444.7 385.5 441 381.8 435.5 380.1C429.2 378.1 420.6 376.9 415.2 381.7C411.8 384.7 412 387.2 411.9 391.3C411.9 392.8 410.5 398.9 410.9 399.9C411.9 402.5 413.3 403.1 414.9 403" stroke="#171A21" stroke-width="2" stroke-miterlimit="10" stroke-linecap="round" stroke-linejoin="round"/>
</svg>
