<svg width="481" height="417" viewBox="0 0 481 417" fill="none" xmlns="http://www.w3.org/2000/svg">
<path d="M327.9 241L310.3 233.7C310.2 233.6 310.1 233.6 309.9 233.5C309.1 233 308.2 232.4 307.3 231.9L278.1 215.1C277.4 214.7 276.5 214.7 275.8 215.1L272.3 217.1C271.7 217.5 271 217.5 270.3 217.2L262.7 214.1C261.2 213.5 259.6 214.6 259.6 216.2V225.8C259.6 226.5 260 227.3 260.7 227.7L277.8 237.6C295.4 247.8 306 250.8 323.3 251.7C324.1 251.7 324.9 251.3 325.4 250.6L328.6 245.1L329.1 244.3C329.7 243 329.2 241.5 327.9 241Z" fill="#2F58FF"/>
<path d="M308.3 219.9L281.1 204.2C279.2 203.1 276.8 203.1 274.9 204.2L261.2 212.1C260 212.8 260 214.6 261.2 215.3L278.8 225.5C293.8 234.2 310.3 239.9 327.4 242.3C329 242.5 330.1 240.8 329.2 239.5C323.8 231.5 316.7 224.7 308.3 219.9Z" fill="#FFD394"/>
<path d="M327.3 242.4C328.9 242.6 330 240.9 329.1 239.6C323.7 231.5 316.6 224.8 308.2 220L281 204.3C279.1 203.2 276.7 203.2 274.8 204.3L261.1 212.2C259.9 212.9 259.9 214.7 261.1 215.4" stroke="#171A21" stroke-width="2" stroke-miterlimit="10" stroke-linecap="round" stroke-linejoin="round"/>
<path d="M314 225.5L303.3 221.1C303.2 221.1 303.1 221 303.1 221C302.6 220.7 302.1 220.4 301.5 220L283.7 209.7C283.3 209.5 282.7 209.5 282.3 209.7L280.2 210.9C279.8 211.1 279.4 211.1 279 211L274.4 209.1C273.5 208.7 272.5 209.4 272.5 210.4V216.2C272.5 216.7 272.7 217.1 273.2 217.4L283.6 223.4C294.3 229.6 300.8 231.5 311.3 232C311.8 232 312.3 231.8 312.6 231.3L314.5 228L314.8 227.5C315.1 226.7 314.7 225.8 314 225.5Z" fill="#2F58FF"/>
<path d="M302 212.7L285.4 203.1C284.2 202.4 282.8 202.4 281.6 203.1L273.2 207.9C272.4 208.3 272.4 209.4 273.2 209.9L283.9 216.1C293 221.4 303.1 224.8 313.5 226.4C314.5 226.5 315.2 225.5 314.6 224.7C311.5 219.7 307.1 215.6 302 212.7Z" fill="white"/>
</svg>
