<?xml version="1.0" encoding="utf-8"?>
<!-- Generator: Adobe Illustrator 22.1.0, SVG Export Plug-In . SVG Version: 6.00 Build 0)  -->
<svg version="1.1" id="Слой_1" xmlns="http://www.w3.org/2000/svg" xmlns:xlink="http://www.w3.org/1999/xlink" x="0px" y="0px"
	 viewBox="0 0 482 417" style="enable-background:new 0 0 482 417;" xml:space="preserve">
<style type="text/css">
	.st0{fill:#2F58FF;}
	.st1{fill:#FFD394;}
	.st2{fill:none;stroke:#171A21;stroke-width:2;stroke-linecap:round;stroke-linejoin:round;stroke-miterlimit:10;}
	.st3{fill:#FFFFFF;}
</style>
<path class="st0" d="M381.1,285.3c21.3,2.6,117.7,42.2,95.8,72.5c-11.7,16.2-43.3,8.4-58.7,12.4c-21,5.5-34.1,25.8-56.2,29.4
	c-20.4,3.3-35.1-5.6-50.5-21.4c-9.8-10.1-41.6-25.2-36.4-43c5.2-17.7,44-21.5,58-29.3C347.6,297.8,363.7,283.2,381.1,285.3z"/>
<path class="st1" d="M381.1,273.3c21.3,2.6,117.7,42.2,95.8,72.5c-11.7,16.2-43.3,8.4-58.7,12.4c-21,5.5-34.1,25.8-56.2,29.4
	c-20.4,3.3-35.1-5.6-50.5-21.4c-9.8-10.1-41.6-25.2-36.4-43c5.2-17.7,44-21.5,58-29.3C347.6,285.8,363.7,271.2,381.1,273.3z"/>
<path class="st2" d="M278.3,337.4c-3.1-4.5-4.6-9.3-3.1-14.3c5.2-17.7,44-21.5,58-29.3c14.4-8,30.5-22.6,47.9-20.6
	c21.3,2.6,117.7,42.2,95.8,72.5"/>
<path class="st0" d="M412.4,74c3.7,0,6.7,3,6.7,6.7v229.8c0,3.7-3,6.7-6.7,6.7c-3.7,0-6.7-3-6.7-6.7V80.6
	C405.8,77,408.8,74,412.4,74z"/>
<path class="st3" d="M417.7,95.5l-60.4-35c-3.6-2.1-5.5,1.7-3.1,6.2l15,28c1.4,2.6,1.4,5.4,0,6.4L354,111.6
	c-2.4,1.7-0.5,7.7,3.1,9.8l60.4,35c2.3,1.3,4.2,0.3,4.2-2.4l0.1-51.4C421.8,100,420,96.8,417.7,95.5z"/>
</svg>
