<svg width="481" height="418" viewBox="0 0 481 418" fill="none" xmlns="http://www.w3.org/2000/svg">
<path d="M208.7 5.6001C200.6 0.900096 191.9 1.0001 185.7 4.5001L165.1 16.3001C163.7 17.1001 163.7 19.7001 165.1 22.2001C168 27.2001 171.6 31.2001 175.3 33.9001C176.1 34.5001 177 35.1001 177.8 35.6001C178.7 36.1001 179.5 36.5001 180.3 36.9001C181.2 38.4001 182.1 39.8001 183.1 41.2001C185.4 44.2001 187.9 46.8001 190.5 48.7001C191.3 49.3001 192.2 49.9001 193 50.4001C196.6 52.5001 200.1 53.3001 203.2 52.7001C203.3 52.8001 203.4 52.9001 203.5 53.1001C206.5 57.1001 210 60.3001 213.4 62.3001C218 65.0001 222.6 65.6001 226.2 63.6001L231.5 60.6001C233.6 59.4001 236.4 59.8001 239.2 61.4001C242 63.0001 244.7 65.8001 246.8 69.5001C246.9 69.7001 247.2 69.9001 247.4 70.1001C249.8 71.5001 256.7 69.7001 258 68.9001C258 68.9001 228.6 27.5001 218.5 14.6001C215.6 10.5001 212.2 7.6001 208.7 5.6001Z" fill="#FFD394"/>
<path d="M258.1 68.7001C258.1 68.7001 228.7 27.3001 218.6 14.4001C215.6 10.5001 212.2 7.7001 208.7 5.6001" stroke="#171A21" stroke-width="2" stroke-miterlimit="10" stroke-linecap="round" stroke-linejoin="round"/>
<path d="M203.6 52.9001C206.6 56.9001 210.1 60.1001 213.5 62.1001C218.1 64.8001 222.7 65.4001 226.3 63.4001L231.6 60.4001C233.7 59.2001 236.5 59.6001 239.3 61.2001" stroke="#171A21" stroke-width="2" stroke-miterlimit="10" stroke-linecap="round" stroke-linejoin="round"/>
<path d="M180.3 36.9001C181.2 38.4001 182.1 39.8001 183.1 41.2001C185.4 44.2001 187.9 46.8001 190.5 48.7001C191.3 49.3001 192.2 49.9001 193 50.4001C195.8 52.0001 198.3 53.9001 201.4 52.9001C203.6 52.2001 207.1 49.9001 209.5 48.6001" stroke="#171A21" stroke-width="2" stroke-miterlimit="10" stroke-linecap="round" stroke-linejoin="round"/>
<path d="M208.7 5.6001C200.6 0.900096 191.9 1.0001 185.7 4.5001L165.1 16.3001C163.7 17.1001 163.7 19.7001 165.1 22.2001C168 27.2001 171.6 31.2001 175.3 33.9001C176.1 34.5001 177.3 35.4001 177.8 35.6001C181.3 36.6001 187.7 32.7001 191.4 30.6001" stroke="#171A21" stroke-width="2" stroke-miterlimit="10" stroke-linecap="round" stroke-linejoin="round"/>
<path d="M238.5 94.0001L310.1 52.7001C311.9 51.6001 314.3 53.0001 314.3 55.1001L314.5 127.5C314.5 131.5 312.4 135.1 309 137.1L238.8 177.6C235.4 179.6 231.1 179.6 227.7 177.6L158 137.1C154.6 135.1 152.5 131.5 152.5 127.5L152.3 55.1001C152.3 53.0001 154.6 51.6001 156.5 52.7001L227.5 94.0001C230.8 96.0001 235.1 96.0001 238.5 94.0001Z" fill="#2F58FF"/>
<path d="M156.3 52.7001L227.4 94.0001C230.8 96.0001 235.1 96.0001 238.5 94.0001L310.1 52.7001C311.9 51.6001 311.9 49.0001 310.1 47.9001L239 6.6001C235.6 4.6001 231.3 4.6001 227.9 6.6001L156.3 47.9001C154.5 49.0001 154.5 51.6001 156.3 52.7001Z" fill="#FFD394"/>
<path d="M280.5 30.9L261 19.5L179.7 66.5L199.2 77.8L280.5 30.9Z" fill="white" stroke="#171A21" stroke-width="2" stroke-miterlimit="10" stroke-linecap="round" stroke-linejoin="round" stroke-dasharray="12 12"/>
<path d="M152.2 56.7001C152.2 52.7001 154.3 49.1001 157.7 47.1001L227.9 6.6001C231.3 4.6001 235.6 4.6001 239 6.6001L308.7 47.1001C312.1 49.1001 314.2 52.7001 314.2 56.7001" stroke="#171A21" stroke-width="2" stroke-miterlimit="10" stroke-linecap="round" stroke-linejoin="round"/>
<path d="M138.7 58.1001C130.6 53.4001 121.9 53.5001 115.7 57.0001L95.1 68.8001C93.7 69.6001 93.7 72.2001 95.1 74.7001C98 79.7001 101.6 83.7001 105.3 86.4001C106.1 87.0001 107 87.6001 107.8 88.1001C108.7 88.6001 109.5 89.0001 110.3 89.4001C111.2 90.9001 112.1 92.3001 113.1 93.7001C115.4 96.7001 117.9 99.3001 120.5 101.2C121.3 101.8 122.2 102.4 123 102.9C126.6 105 130.1 105.8 133.2 105.2C133.3 105.3 133.4 105.4 133.5 105.6C136.5 109.6 140 112.8 143.4 114.8C148 117.5 152.6 118.1 156.2 116.1L161.5 113.1C163.6 111.9 166.4 112.3 169.2 113.9C172 115.5 174.7 118.3 176.8 122C176.9 122.2 177.2 122.4 177.4 122.6C179.8 124 186.7 122.2 188 121.4C188 121.4 158.6 80.0001 148.5 67.1001C145.6 63.0001 142.2 60.1001 138.7 58.1001Z" fill="#FFD394"/>
<path d="M188.1 121.1C188.1 121.1 158.7 79.7 148.6 66.8C145.6 62.9 142.2 60.1 138.7 58" stroke="#171A21" stroke-width="2" stroke-miterlimit="10" stroke-linecap="round" stroke-linejoin="round"/>
<path d="M133.6 105.4C136.6 109.4 140.1 112.6 143.5 114.6C148.1 117.3 152.7 117.9 156.3 115.9L161.6 112.9C163.7 111.7 166.5 112.1 169.3 113.7" stroke="#171A21" stroke-width="2" stroke-miterlimit="10" stroke-linecap="round" stroke-linejoin="round"/>
<path d="M110.3 89.4001C111.2 90.9001 112.1 92.3001 113.1 93.7001C115.4 96.7001 117.9 99.3001 120.5 101.2C121.3 101.8 122.2 102.4 123 102.9C125.8 104.5 128.3 106.4 131.4 105.4C133.6 104.7 137.1 102.4 139.5 101.1" stroke="#171A21" stroke-width="2" stroke-miterlimit="10" stroke-linecap="round" stroke-linejoin="round"/>
<path d="M138.7 58.1001C130.6 53.4001 121.9 53.5001 115.7 57.0001L95.1 68.8001C93.7 69.6001 93.7 72.2001 95.1 74.7001C98 79.7001 101.6 83.7001 105.3 86.4001C106.1 87.0001 107.3 87.9001 107.8 88.1001C111.3 89.1001 117.7 85.2001 121.4 83.1001" stroke="#171A21" stroke-width="2" stroke-miterlimit="10" stroke-linecap="round" stroke-linejoin="round"/>
</svg>
