<svg width="481" height="417" viewBox="0 0 481 417" fill="none" xmlns="http://www.w3.org/2000/svg">
<path d="M382.5 376.5C401.8 365.3 401.7 347.1 382.3 335.8C362.9 324.6 331.4 324.6 312.1 335.8L190.7 406.3C176.5 414.6 153.2 414.6 138.9 406.3C124.6 398 124.5 384.6 138.7 376.3L260.1 305.8C279.4 294.6 279.3 276.4 259.9 265.2C240.5 254 209 254 189.7 265.2L95.8 319.5C81.6 327.8 58.3 327.8 44 319.5C29.7 311.2 29.6 297.8 43.8 289.5L133.5 237.7" stroke="#171A21" stroke-width="2" stroke-miterlimit="10" stroke-linecap="round" stroke-linejoin="round" stroke-dasharray="12 12"/>
</svg>
