<svg width="483" height="418" viewBox="0 0 483 418" fill="none" xmlns="http://www.w3.org/2000/svg">
<path d="M383.5 377.5C402.8 366.3 402.7 348.1 383.3 336.8C363.9 325.6 332.4 325.6 313.1 336.8L191.7 407.3C177.5 415.6 154.2 415.6 139.9 407.3C125.6 399 125.5 385.6 139.7 377.3L261.1 306.8C280.4 295.6 280.3 277.4 260.9 266.2C241.5 255 210 255 190.7 266.2L96.8 320.5C82.6 328.8 59.3 328.8 45 320.5C30.7 312.2 30.6 298.8 44.8 290.5L134.5 238.7" stroke="#171A21" stroke-width="2" stroke-miterlimit="10" stroke-linecap="round" stroke-linejoin="round" stroke-dasharray="12 12"/>
<path d="M382.1 286.3C403.4 288.9 499.8 328.5 477.9 358.8C466.2 375 434.6 367.2 419.2 371.2C398.2 376.7 385.1 397 363 400.6C342.6 403.9 327.9 395 312.5 379.2C302.7 369.1 270.9 354 276.1 336.2C281.3 318.5 320.1 314.7 334.1 306.9C348.6 298.8 364.7 284.2 382.1 286.3Z" fill="#2F58FF"/>
<path d="M382.1 274.3C403.4 276.9 499.8 316.5 477.9 346.8C466.2 363 434.6 355.2 419.2 359.2C398.2 364.7 385.1 385 363 388.6C342.6 391.9 327.9 383 312.5 367.2C302.7 357.1 270.9 342 276.1 324.2C281.3 306.5 320.1 302.7 334.1 294.9C348.6 286.8 364.7 272.2 382.1 274.3Z" fill="#FFD394"/>
<path d="M279.3 338.4C276.2 333.9 274.7 329.1 276.2 324.1C281.4 306.4 320.2 302.6 334.2 294.8C348.6 286.8 364.7 272.2 382.1 274.2C403.4 276.8 499.8 316.4 477.9 346.7" stroke="#171A21" stroke-width="2" stroke-miterlimit="10" stroke-linecap="round" stroke-linejoin="round"/>
<path d="M435.4 416C438.6 417.1 441.7 419.5 444.6 416.5C446.7 414.4 445.4 411.6 447.1 409.1C450.2 404.6 457.6 405.5 460.3 401.1C465 393.6 456.1 394.1 451.4 393.5C445.6 392.7 441.9 389 436.4 387.3C430.1 385.3 421.5 384.1 416.1 388.9C412.7 391.9 412.9 394.4 412.8 398.5C412.8 400 411.4 406.1 411.8 407.1C414.5 414 419.9 407.2 424.6 408.2C428.3 409 426.7 411 428.5 412.5C431 414.4 432.4 415 435.4 416Z" fill="#2F58FF"/>
<path d="M435.4 409.7C438.6 410.8 441.7 413.2 444.6 410.2C446.7 408.1 445.4 405.3 447.1 402.8C450.2 398.3 457.6 399.2 460.3 394.8C465 387.3 456.1 387.8 451.4 387.2C445.6 386.4 441.9 382.7 436.4 381C430.1 379 421.5 377.8 416.1 382.6C412.7 385.6 412.9 388.1 412.8 392.2C412.8 393.7 411.4 399.8 411.8 400.8C414.5 407.7 419.9 400.9 424.6 401.9C428.3 402.7 426.7 404.7 428.5 406.2C431 408.1 432.4 408.7 435.4 409.7Z" fill="#FFD394"/>
<path d="M460.4 394.9C465.1 387.4 456.2 387.9 451.5 387.3C445.7 386.5 442 382.8 436.5 381.1C430.2 379.1 421.6 377.9 416.2 382.7C412.8 385.7 413 388.2 412.9 392.3C412.9 393.8 411.5 399.9 411.9 400.9C412.9 403.5 414.3 404.1 415.9 404" stroke="#171A21" stroke-width="2" stroke-miterlimit="10" stroke-linecap="round" stroke-linejoin="round"/>
<path d="M291.7 394.2C299.1 396.7 311.3 380.5 289.7 380.3C273.5 380.2 283.6 391.4 291.7 394.2Z" fill="#2F58FF"/>
<path d="M291.7 389.5C299.1 392 311.3 375.8 289.7 375.6C273.5 375.5 283.6 386.7 291.7 389.5Z" fill="#FFD394"/>
<path d="M300.6 385.5C303.4 381.4 302.4 375.7 289.7 375.6C279.5 375.5 279.7 379.9 283.2 383.8" stroke="#171A21" stroke-width="2" stroke-miterlimit="10" stroke-linecap="round" stroke-linejoin="round"/>
<path d="M29.2 205.1C23.7 207.1 26 210.4 25.6 217C25.2 223.5 23.2 229.5 20.7 236.1C17.7 244.1 3.50003 243.6 2.00003 252.3C0.100026 264.2 28 268.5 35.4 267.9C49.7 266.8 61.3 256.9 75 253.8C91.7 250 107.6 259.9 123.4 263.8C134.5 266.5 156.7 272.9 165.1 261.6C174.8 248.6 159.3 235.6 148.4 231.1C134.8 225.4 123.6 222.6 114 210.7C103.5 197.7 88.8 190.5 71.7 195.6C64.5 197.7 59.5 201.9 51.8 202.7C44.5 203.3 36.4 202.4 29.2 205.1C38.9 201.5 23.4 207.3 29.2 205.1Z" fill="#2F58FF"/>
<path d="M29.2 196.1C23.7 198.1 17.1 202 16.7 208.5C16.3 215 23.2 220.4 20.7 227C17.7 235 3.50003 234.5 2.00003 243.2C0.100026 255.1 28 259.4 35.4 258.8C49.7 257.7 61.3 247.8 75 244.7C91.7 240.9 107.6 250.8 123.4 254.7C134.5 257.4 156.7 263.8 165.1 252.5C174.8 239.5 159.3 226.5 148.4 222C134.8 216.3 123.6 213.5 114 201.6C103.5 188.6 88.8 181.4 71.7 186.5C64.5 188.6 59.5 192.8 51.8 193.6C44.5 194.3 36.4 193.4 29.2 196.1C38.9 192.5 23.4 198.3 29.2 196.1Z" fill="#FFD394"/>
<path d="M165.2 252.5C174.9 239.5 159.4 226.5 148.5 222C134.9 216.3 123.7 213.5 114.1 201.6C103.6 188.6 88.9 181.4 71.8 186.5C64.6 188.6 59.6 192.8 51.9 193.6C44.4 194.3 36.4 193.4 29.1 196.1C23.2 198.3 38.8 192.5 29.1 196.1C23.6 198.1 17 202 16.6 208.5C16.2 215 23.1 220.4 20.6 227C17.6 235 3.39998 234.5 1.89998 243.2C1.29998 246.9 3.49998 249.8 7.09998 252.1" stroke="#171A21" stroke-width="2" stroke-miterlimit="10" stroke-linecap="round" stroke-linejoin="round"/>
<path d="M209.7 5.6001C201.6 0.900096 192.9 1.0001 186.7 4.5001L166.1 16.3001C164.7 17.1001 164.7 19.7001 166.1 22.2001C169 27.2001 172.6 31.2001 176.3 33.9001C177.1 34.5001 178 35.1001 178.8 35.6001C179.7 36.1001 180.5 36.5001 181.3 36.9001C182.2 38.4001 183.1 39.8001 184.1 41.2001C186.4 44.2001 188.9 46.8001 191.5 48.7001C192.3 49.3001 193.2 49.9001 194 50.4001C197.6 52.5001 201.1 53.3001 204.2 52.7001C204.3 52.8001 204.4 52.9001 204.5 53.1001C207.5 57.1001 211 60.3001 214.4 62.3001C219 65.0001 223.6 65.6001 227.2 63.6001L232.5 60.6001C234.6 59.4001 237.4 59.8001 240.2 61.4001C243 63.0001 245.7 65.8001 247.8 69.5001C247.9 69.7001 248.2 69.9001 248.4 70.1001C250.8 71.5001 257.7 69.7001 259 68.9001C259 68.9001 229.6 27.5001 219.5 14.6001C216.6 10.5001 213.2 7.6001 209.7 5.6001Z" fill="#FFD394"/>
<path d="M259.1 68.7001C259.1 68.7001 229.7 27.3001 219.6 14.4001C216.6 10.5001 213.2 7.7001 209.7 5.6001" stroke="#171A21" stroke-width="2" stroke-miterlimit="10" stroke-linecap="round" stroke-linejoin="round"/>
<path d="M204.6 52.9001C207.6 56.9001 211.1 60.1001 214.5 62.1001C219.1 64.8001 223.7 65.4001 227.3 63.4001L232.6 60.4001C234.7 59.2001 237.5 59.6001 240.3 61.2001" stroke="#171A21" stroke-width="2" stroke-miterlimit="10" stroke-linecap="round" stroke-linejoin="round"/>
<path d="M181.3 36.9001C182.2 38.4001 183.1 39.8001 184.1 41.2001C186.4 44.2001 188.9 46.8001 191.5 48.7001C192.3 49.3001 193.2 49.9001 194 50.4001C196.8 52.0001 199.3 53.9001 202.4 52.9001C204.6 52.2001 208.1 49.9001 210.5 48.6001" stroke="#171A21" stroke-width="2" stroke-miterlimit="10" stroke-linecap="round" stroke-linejoin="round"/>
<path d="M209.7 5.6001C201.6 0.900096 192.9 1.0001 186.7 4.5001L166.1 16.3001C164.7 17.1001 164.7 19.7001 166.1 22.2001C169 27.2001 172.6 31.2001 176.3 33.9001C177.1 34.5001 178.3 35.4001 178.8 35.6001C182.3 36.6001 188.7 32.7001 192.4 30.6001" stroke="#171A21" stroke-width="2" stroke-miterlimit="10" stroke-linecap="round" stroke-linejoin="round"/>
<path d="M239.5 94.0001L311.1 52.7001C312.9 51.6001 315.3 53.0001 315.3 55.1001L315.5 127.5C315.5 131.5 313.4 135.1 310 137.1L239.8 177.6C236.4 179.6 232.1 179.6 228.7 177.6L159 137.1C155.6 135.1 153.5 131.5 153.5 127.5L153.3 55.1001C153.3 53.0001 155.6 51.6001 157.5 52.7001L228.5 94.0001C231.8 96.0001 236.1 96.0001 239.5 94.0001Z" fill="#2F58FF"/>
<path d="M157.3 52.7001L228.4 94.0001C231.8 96.0001 236.1 96.0001 239.5 94.0001L311.1 52.7001C312.9 51.6001 312.9 49.0001 311.1 47.9001L240 6.6001C236.6 4.6001 232.3 4.6001 228.9 6.6001L157.3 47.9001C155.5 49.0001 155.5 51.6001 157.3 52.7001Z" fill="#FFD394"/>
<path d="M281.5 30.9L262 19.5L180.7 66.5L200.2 77.8L281.5 30.9Z" fill="white" stroke="#171A21" stroke-width="2" stroke-miterlimit="10" stroke-linecap="round" stroke-linejoin="round" stroke-dasharray="12 12"/>
<path d="M153.2 56.7001C153.2 52.7001 155.3 49.1001 158.7 47.1001L228.9 6.6001C232.3 4.6001 236.6 4.6001 240 6.6001L309.7 47.1001C313.1 49.1001 315.2 52.7001 315.2 56.7001" stroke="#171A21" stroke-width="2" stroke-miterlimit="10" stroke-linecap="round" stroke-linejoin="round"/>
<path d="M413.4 75C417.1 75 420.1 78 420.1 81.7V311.5C420.1 315.2 417.1 318.2 413.4 318.2C409.7 318.2 406.7 315.2 406.7 311.5V81.6C406.8 78 409.8 75 413.4 75Z" fill="#2F58FF"/>
<path d="M418.7 96.5L358.3 61.5C354.7 59.4 352.8 63.2 355.2 67.7L370.2 95.7C371.6 98.3 371.6 101.1 370.2 102.1L355 112.6C352.6 114.3 354.5 120.3 358.1 122.4L418.5 157.4C420.8 158.7 422.7 157.7 422.7 155L422.8 103.6C422.8 101 421 97.8 418.7 96.5Z" fill="white"/>
<path d="M47.3 39.3999C50 39.3999 52.2 41.5999 52.2 44.2999V212.4C52.2 215.1 50 217.3 47.3 217.3C44.6 217.3 42.4 215.1 42.4 212.4V44.1999C42.5 41.4999 44.6 39.3999 47.3 39.3999Z" fill="white"/>
<path d="M51.4 55.1L7.19999 29.4C4.59999 27.9 3.19999 30.7 4.89999 33.9L15.9 54.4C16.9 56.3 16.9 58.4 15.9 59.1L4.79999 66.8C2.99999 68 4.39999 72.4 7.09999 74L51.3 99.6C53 100.6 54.4 99.8 54.4 97.9L54.5 60.3C54.5 58.4 53.1 56.1 51.4 55.1Z" fill="#2F58FF"/>
<path d="M139.7 58.1001C131.6 53.4001 122.9 53.5001 116.7 57.0001L96.1 68.8001C94.7 69.6001 94.7 72.2001 96.1 74.7001C99 79.7001 102.6 83.7001 106.3 86.4001C107.1 87.0001 108 87.6001 108.8 88.1001C109.7 88.6001 110.5 89.0001 111.3 89.4001C112.2 90.9001 113.1 92.3001 114.1 93.7001C116.4 96.7001 118.9 99.3001 121.5 101.2C122.3 101.8 123.2 102.4 124 102.9C127.6 105 131.1 105.8 134.2 105.2C134.3 105.3 134.4 105.4 134.5 105.6C137.5 109.6 141 112.8 144.4 114.8C149 117.5 153.6 118.1 157.2 116.1L162.5 113.1C164.6 111.9 167.4 112.3 170.2 113.9C173 115.5 175.7 118.3 177.8 122C177.9 122.2 178.2 122.4 178.4 122.6C180.8 124 187.7 122.2 189 121.4C189 121.4 159.6 80.0001 149.5 67.1001C146.6 63.0001 143.2 60.1001 139.7 58.1001Z" fill="#FFD394"/>
<path d="M189.1 121.1C189.1 121.1 159.7 79.7 149.6 66.8C146.6 62.9 143.2 60.1 139.7 58" stroke="#171A21" stroke-width="2" stroke-miterlimit="10" stroke-linecap="round" stroke-linejoin="round"/>
<path d="M134.6 105.4C137.6 109.4 141.1 112.6 144.5 114.6C149.1 117.3 153.7 117.9 157.3 115.9L162.6 112.9C164.7 111.7 167.5 112.1 170.3 113.7" stroke="#171A21" stroke-width="2" stroke-miterlimit="10" stroke-linecap="round" stroke-linejoin="round"/>
<path d="M111.3 89.4001C112.2 90.9001 113.1 92.3001 114.1 93.7001C116.4 96.7001 118.9 99.3001 121.5 101.2C122.3 101.8 123.2 102.4 124 102.9C126.8 104.5 129.3 106.4 132.4 105.4C134.6 104.7 138.1 102.4 140.5 101.1" stroke="#171A21" stroke-width="2" stroke-miterlimit="10" stroke-linecap="round" stroke-linejoin="round"/>
<path d="M139.7 58.1001C131.6 53.4001 122.9 53.5001 116.7 57.0001L96.1 68.8001C94.7 69.6001 94.7 72.2001 96.1 74.7001C99 79.7001 102.6 83.7001 106.3 86.4001C107.1 87.0001 108.3 87.9001 108.8 88.1001C112.3 89.1001 118.7 85.2001 122.4 83.1001" stroke="#171A21" stroke-width="2" stroke-miterlimit="10" stroke-linecap="round" stroke-linejoin="round"/>
<path d="M328.9 242L311.3 234.7C311.2 234.6 311.1 234.6 310.9 234.5C310.1 234 309.2 233.4 308.3 232.9L279.1 216.1C278.4 215.7 277.5 215.7 276.8 216.1L273.3 218.1C272.7 218.5 272 218.5 271.3 218.2L263.7 215.1C262.2 214.5 260.6 215.6 260.6 217.2V226.8C260.6 227.5 261 228.3 261.7 228.7L278.8 238.6C296.4 248.8 307 251.8 324.3 252.7C325.1 252.7 325.9 252.3 326.4 251.6L329.6 246.1L330.1 245.3C330.7 244 330.2 242.5 328.9 242Z" fill="#2F58FF"/>
<path d="M309.3 220.9L282.1 205.2C280.2 204.1 277.8 204.1 275.9 205.2L262.2 213.1C261 213.8 261 215.6 262.2 216.3L279.8 226.5C294.8 235.2 311.3 240.9 328.4 243.3C330 243.5 331.1 241.8 330.2 240.5C324.8 232.5 317.7 225.7 309.3 220.9Z" fill="#FFD394"/>
<path d="M328.3 243.4C329.9 243.6 331 241.9 330.1 240.6C324.7 232.5 317.6 225.8 309.2 221L282 205.3C280.1 204.2 277.7 204.2 275.8 205.3L262.1 213.2C260.9 213.9 260.9 215.7 262.1 216.4" stroke="#171A21" stroke-width="2" stroke-miterlimit="10" stroke-linecap="round" stroke-linejoin="round"/>
<path d="M315 226.5L304.3 222.1C304.2 222.1 304.1 222 304.1 222C303.6 221.7 303.1 221.4 302.5 221L284.7 210.7C284.3 210.5 283.7 210.5 283.3 210.7L281.2 211.9C280.8 212.1 280.4 212.1 280 212L275.4 210.1C274.5 209.7 273.5 210.4 273.5 211.4V217.2C273.5 217.7 273.7 218.1 274.2 218.4L284.6 224.4C295.3 230.6 301.8 232.5 312.3 233C312.8 233 313.3 232.8 313.6 232.3L315.5 229L315.8 228.5C316.1 227.7 315.7 226.8 315 226.5Z" fill="#2F58FF"/>
<path d="M303 213.7L286.4 204.1C285.2 203.4 283.8 203.4 282.6 204.1L274.2 208.9C273.4 209.3 273.4 210.4 274.2 210.9L284.9 217.1C294 222.4 304.1 225.8 314.5 227.4C315.5 227.5 316.2 226.5 315.6 225.7C312.5 220.7 308.1 216.6 303 213.7Z" fill="white"/>
</svg>
