<svg width="144" height="144" viewBox="0 0 144 144" fill="none" xmlns="http://www.w3.org/2000/svg">
<path d="M61.0012 62.0999L95.4012 42.2999C96.3012 41.7999 97.4012 42.3999 97.4012 43.3999L97.5012 85.5999C97.5012 87.4999 96.5012 89.2999 94.8012 90.1999L61.1012 109.7C59.4012 110.7 57.4012 110.7 55.8012 109.7L22.4012 90.1999C20.8012 89.1999 19.8012 87.4999 19.8012 85.5999L19.7012 43.3999C19.7012 42.3999 20.8012 41.6999 21.7012 42.1999L55.8012 61.9999C57.4012 62.9999 59.4012 62.9999 61.0012 62.0999Z" fill="#FB7070"/>
<path d="M58.701 18.8999L40.501 2.39995C39.601 1.59995 38.401 1.49995 37.401 2.09995L3.20097 21.7999C1.60097 22.6999 1.40097 24.8999 2.70097 26.0999L19.601 41.3999L58.701 18.8999Z" fill="white"/>
<path d="M58.2012 18.4999L77.9012 7.29993C78.7012 6.79993 79.7012 6.79993 80.6012 7.29993L114.301 26.7999C116.101 27.7999 116.101 30.3999 114.301 31.3999L97.2012 40.9999L58.2012 18.4999Z" fill="white"/>
<path d="M58.5004 63.5L38.9004 74.8C38.1004 75.3 37.1004 75.3 36.2004 74.8L2.50039 55.3C0.700391 54.3 0.700391 51.7 2.50039 50.7L19.5004 41L58.5004 63.5Z" fill="white"/>
<path d="M58.3008 63.5L69.0008 82.1C69.7008 83.4 71.4008 83.8 72.6008 83.1L107.001 63.2C108.301 62.5 108.701 60.8 108.001 59.6L97.3008 41L58.3008 63.5Z" fill="white"/>
<path d="M97.4008 68.8L107.101 63.2C108.401 62.5 108.801 60.8 108.101 59.6L97.3008 41" stroke="#171A21" stroke-width="2" stroke-miterlimit="10" stroke-linecap="round" stroke-linejoin="round"/>
<path d="M97.2004 40.9999L114.1 31.2999C115.9 30.2999 115.9 27.6999 114.1 26.6999L80.5004 7.29992C79.7004 6.79992 78.7004 6.79992 77.8004 7.29992L58.3004 18.4999L40.5004 2.49992C39.6004 1.69992 38.4004 1.59992 37.4004 2.19992L3.20039 21.7999C1.60039 22.6999 1.40039 24.8999 2.70039 26.0999L19.3004 41.0999L2.50039 50.6999C0.700391 51.6999 0.700391 54.2999 2.50039 55.2999L19.6004 65.1999" stroke="#171A21" stroke-width="2" stroke-miterlimit="10" stroke-linecap="round" stroke-linejoin="round"/>
<path d="M21.6008 42.2L55.7008 62C57.3008 63 59.4008 63 61.0008 62L95.4008 42.2C96.3008 41.7 96.3008 40.4 95.4008 39.9L61.3008 20.1C59.7008 19.1 57.6008 19.1 56.0008 20.1L21.6008 39.9C20.7008 40.4 20.7008 41.7 21.6008 42.2Z" fill="#FB7070"/>
<path d="M61 62.0999L78.7 51.8999L78.6 30.2999C78.6 33.2999 76.6 36.2999 72.7 38.5999C72.5 38.6999 72.2 38.8999 72 38.9999C71.9 38.9999 71.8 39.0999 71.8 39.0999C71.6 39.1999 71.5 39.2999 71.3 39.2999C71.2 39.2999 71.1 39.3999 71 39.3999C70.8 39.4999 70.7 39.4999 70.5 39.5999C70.4 39.5999 70.3 39.6999 70.2 39.6999C70.1 39.7999 69.9 39.7999 69.8 39.8999C69.5 39.9999 69.1 40.1999 68.7 40.2999C68.6 40.2999 68.6 40.2999 68.5 40.3999C68.2 40.4999 67.9 40.5999 67.5 40.6999C67.4 40.6999 67.3 40.7999 67.2 40.7999C67 40.8999 66.8 40.8999 66.6 40.9999C66.5 40.9999 66.4 41.0999 66.2 41.0999C66 41.1999 65.8 41.1999 65.5 41.2999C65.4 41.2999 65.3 41.2999 65.2 41.3999C65 41.3999 64.8 41.4999 64.6 41.4999C64.5 41.4999 64.4 41.4999 64.3 41.5999C64 41.5999 63.8 41.6999 63.5 41.6999C63.4 41.6999 63.4 41.6999 63.3 41.6999C63 41.6999 62.7 41.7999 62.3 41.7999C62.2 41.7999 62.2 41.7999 62.1 41.7999C61.8 41.7999 61.6 41.8999 61.3 41.8999C61.2 41.8999 61.1 41.8999 60.9 41.8999C60.7 41.8999 60.5 41.8999 60.3 41.8999C60.2 41.8999 60 41.8999 59.9 41.8999C59.7 41.8999 59.5 41.8999 59.3 41.8999C59.2 41.8999 59.1 41.8999 58.9 41.8999C58.7 41.8999 58.5 41.8999 58.3 41.8999C58.2 41.8999 58 41.8999 57.9 41.8999C57.7 41.8999 57.5 41.8999 57.3 41.8999C57.2 41.8999 57 41.8999 56.9 41.8999C56.7 41.8999 56.4 41.8999 56.2 41.8999C56.1 41.8999 55.9 41.8999 55.8 41.8999C55.6 41.8999 55.4 41.8999 55.2 41.7999C55.1 41.7999 54.9 41.7999 54.8 41.7999C54.5 41.7999 54.1 41.6999 53.8 41.6999C53.7 41.6999 53.7 41.6999 53.6 41.6999C53.2 41.5999 52.8 41.5999 52.5 41.4999C52.4 41.4999 52.2 41.3999 52.1 41.3999C51.9 41.3999 51.7 41.2999 51.6 41.2999C51.5 41.2999 51.3 41.1999 51.2 41.1999C51 41.1999 50.9 41.0999 50.7 41.0999C50.6 41.0999 50.4 40.9999 50.3 40.9999C50.1 40.9999 50 40.8999 49.8 40.8999C49.7 40.8999 49.5 40.7999 49.4 40.7999C49.2 40.7999 49.1 40.6999 48.9 40.6999C48.8 40.6999 48.7 40.5999 48.5 40.5999C48.2 40.4999 47.9 40.3999 47.6 40.2999C47.5 40.2999 47.5 40.2999 47.4 40.1999C47.1 40.0999 46.7 39.8999 46.4 39.7999C46.3 39.7999 46.2 39.6999 46.1 39.6999C45.8 39.5999 45.6 39.4999 45.4 39.2999C45.3 39.2999 45.2 39.1999 45.1 39.1999C44.8 38.9999 44.5 38.8999 44.2 38.6999C44 38.5999 43.9 38.4999 43.7 38.3999C43.6 38.2999 43.5 38.1999 43.3 38.1999C43.2 38.0999 43.1 38.0999 43 37.9999C42.9 37.8999 42.8 37.7999 42.7 37.7999C42.6 37.6999 42.5 37.6999 42.4 37.5999C42.3 37.4999 42.2 37.3999 42.1 37.3999C42 37.2999 41.9 37.1999 41.8 37.1999C41.7 37.0999 41.6 36.9999 41.5 36.8999C41.4 36.7999 41.3 36.6999 41.2 36.5999L41.1 36.4999C41 36.3999 40.8 36.1999 40.7 36.0999L40.6 35.9999C40.5 35.8999 40.4 35.6999 40.3 35.5999C40.3 35.5999 40.3 35.4999 40.2 35.4999C40.2 35.3999 40.1 35.3999 40.1 35.2999C40 35.1999 39.9 34.9999 39.8 34.8999C39.8 34.7999 39.7 34.7999 39.7 34.6999C39.6 34.5999 39.5 34.4999 39.5 34.2999C39.5 34.1999 39.4 34.0999 39.4 34.0999C39.3 33.9999 39.3 33.8999 39.2 33.7999C39.2 33.6999 39.1 33.5999 39.1 33.4999C39.1 33.3999 39 33.2999 39 33.1999C39 33.0999 38.9 32.9999 38.9 32.8999C38.9 32.7999 38.8 32.6999 38.8 32.5999C38.8 32.4999 38.7 32.3999 38.7 32.2999C38.7 32.1999 38.7 32.0999 38.6 31.9999C38.6 31.8999 38.6 31.7999 38.5 31.6999C38.5 31.5999 38.5 31.4999 38.5 31.3999C38.5 31.2999 38.5 31.1999 38.5 31.0999C38.5 30.9999 38.5 30.8999 38.5 30.7999C38.5 30.6999 38.5 30.5999 38.5 30.3999L38.6 52.1999L55.7 62.0999C57.4 62.9999 59.4 62.9999 61 62.0999Z" fill="#FEE2E2"/>
<path d="M44.5001 21.9999C36.6001 26.4999 36.6001 33.8999 44.4001 38.4999C52.2001 42.9999 64.9001 42.9999 72.8001 38.4999C80.7001 33.9999 80.7001 26.5999 72.9001 21.9999C65.1001 17.3999 52.3001 17.4999 44.5001 21.9999Z" fill="white" stroke="#171A21" stroke-width="2" stroke-miterlimit="10" stroke-linecap="round" stroke-linejoin="round"/>
<path d="M52.5 18.2999C52.5 18.3999 52.5 18.3999 52.5 18.4999V18.5999V18.6999V18.7999V18.8999V18.9999V19.0999V19.1999V19.2999V19.3999C52.5 19.3999 52.5 19.3999 52.5 19.4999C52.5 19.4999 52.5 19.5999 52.6 19.5999C52.6 19.5999 52.6 19.5999 52.6 19.6999L52.7 19.7999C52.7 19.7999 52.7 19.7999 52.7 19.8999L52.8 19.9999L52.9 20.0999L53 20.1999L53.1 20.2999C53.1 20.2999 53.2 20.2999 53.2 20.3999L53.3 20.4999C53.3 20.4999 53.4 20.4999 53.4 20.5999C53.4 20.5999 53.5 20.5999 53.5 20.6999C53.5 20.6999 53.6 20.6999 53.6 20.7999C53.6 20.7999 53.7 20.7999 53.7 20.8999L53.8 20.9999C53.9 21.0999 54 21.0999 54.1 21.1999H54.2C54.3 21.1999 54.4 21.2999 54.4 21.2999H54.5C54.6 21.2999 54.7 21.3999 54.8 21.3999C54.8 21.3999 54.8 21.3999 54.9 21.3999C55 21.3999 55.1 21.4999 55.2 21.4999H55.3C55.4 21.4999 55.4 21.4999 55.5 21.4999H55.6C55.7 21.4999 55.7 21.4999 55.8 21.4999H55.9C56 21.4999 56 21.4999 56.1 21.4999H56.2C56.3 21.4999 56.3 21.4999 56.4 21.4999H56.5C56.6 21.4999 56.7 21.4999 56.8 21.5999C56.8 21.5999 56.8 21.5999 56.9 21.5999C57 21.5999 57.1 21.5999 57.2 21.5999H57.3C57.4 21.5999 57.4 21.5999 57.5 21.5999H57.6C57.7 21.5999 57.7 21.5999 57.8 21.5999H57.9C58 21.5999 58 21.5999 58.1 21.5999H58.2C58.3 21.5999 58.3 21.5999 58.4 21.5999H58.5C58.6 21.5999 58.6 21.5999 58.7 21.5999H58.8C58.9 21.5999 58.9 21.5999 59 21.5999H59.1C59.2 21.5999 59.3 21.5999 59.3 21.5999C59.3 21.5999 59.3 21.5999 59.4 21.5999C59.5 21.5999 59.6 21.5999 59.7 21.5999C59.8 21.5999 59.9 21.5999 60 21.5999H60.1C60.2 21.5999 60.2 21.5999 60.3 21.5999H60.4C60.5 21.5999 60.5 21.5999 60.6 21.5999H60.7C60.8 21.5999 60.8 21.5999 60.9 21.5999H61C61.1 21.5999 61.2 21.4999 61.3 21.4999C61.3 21.4999 61.3 21.4999 61.4 21.4999C61.5 21.4999 61.6 21.3999 61.7 21.3999C61.7 21.3999 61.8 21.3999 61.8 21.2999H61.9C61.9 21.2999 62 21.2999 62 21.1999H62.1C62.2 21.1999 62.2 21.0999 62.3 21.0999H62.4C62.5 21.0999 62.5 20.9999 62.6 20.9999C63.8 20.2999 64.4 19.3999 64.4 18.3999V27.7999C64.4 28.6999 63.8 29.5999 62.6 30.3999C62.5 30.3999 62.5 30.4999 62.4 30.4999H62.3C62.2 30.4999 62.2 30.5999 62.1 30.5999H62C62 30.5999 61.9 30.5999 61.9 30.6999H61.8H61.7C61.6 30.6999 61.5 30.7999 61.4 30.7999C61.4 30.7999 61.4 30.7999 61.3 30.7999C61.2 30.7999 61.1 30.8999 61 30.8999C61 30.8999 61 30.8999 60.9 30.8999C60.8 30.8999 60.8 30.8999 60.7 30.8999H60.6C60.5 30.8999 60.5 30.8999 60.4 30.8999H60.3C60.2 30.8999 60.2 30.8999 60.1 30.8999H60C59.9 30.8999 59.8 30.8999 59.8 30.8999C59.7 30.8999 59.6 30.8999 59.5 30.8999C59.5 30.8999 59.5 30.8999 59.4 30.8999C59.3 30.8999 59.2 30.8999 59.2 30.8999H59.1C59 30.8999 59 30.8999 58.9 30.8999H58.8C58.7 30.8999 58.7 30.8999 58.6 30.8999H58.5C58.4 30.8999 58.4 30.8999 58.3 30.8999H58.2C58.1 30.8999 58.1 30.8999 58 30.8999H57.9C57.8 30.8999 57.8 30.8999 57.7 30.8999H57.6C57.5 30.8999 57.5 30.8999 57.4 30.8999C57.4 30.8999 57.4 30.8999 57.3 30.8999C57.2 30.8999 57.1 30.8999 57 30.8999C57 30.8999 57 30.8999 56.9 30.8999C56.8 30.8999 56.7 30.8999 56.6 30.7999H56.5C56.4 30.7999 56.4 30.7999 56.3 30.7999H56.2C56.1 30.7999 56.1 30.7999 56 30.7999H55.9C55.8 30.7999 55.8 30.7999 55.7 30.7999H55.6C55.5 30.7999 55.5 30.7999 55.4 30.7999C55.4 30.7999 55.4 30.7999 55.3 30.7999C55.2 30.7999 55.1 30.6999 55 30.6999C55 30.6999 55 30.6999 54.9 30.6999C54.8 30.6999 54.7 30.5999 54.6 30.5999H54.5C54.4 30.5999 54.3 30.4999 54.3 30.4999H54.2C54.1 30.4999 54 30.3999 53.9 30.2999H53.8C53.8 30.2999 53.8 30.2999 53.7 30.2999C53.7 30.2999 53.6 30.2999 53.6 30.1999C53.6 30.1999 53.5 30.1999 53.5 30.0999C53.5 30.0999 53.4 30.0999 53.4 29.9999C53.4 29.9999 53.3 29.9999 53.3 29.8999L53.2 29.7999C53.2 29.7999 53.1 29.7999 53.1 29.6999L53 29.5999C53 29.5999 53 29.5999 52.9 29.4999L52.8 29.3999L52.7 29.2999L52.6 29.1999C52.6 29.1999 52.6 29.1999 52.6 29.0999C52.6 29.0999 52.6 28.9999 52.5 28.9999V28.8999V28.7999V28.6999V28.5999V28.4999V28.3999V28.2999V28.1999V28.0999C52.5 28.0999 52.5 28.0999 52.5 27.9999C52.5 27.9999 52.5 27.9999 52.5 27.8999V18.4999C52.5 18.1999 52.5 18.1999 52.5 18.2999Z" fill="#FB7070"/>
<path d="M54.3 15.5999C51.9 16.9999 51.9 19.2999 54.3 20.6999C56.7 22.0999 60.6 22.0999 63 20.6999C65.4 19.2999 65.4 16.9999 63 15.5999C60.7 14.1999 56.7 14.1999 54.3 15.5999Z" fill="white"/>
<path d="M63 20.6999C65.4 19.2999 65.4 16.9999 63 15.5999C60.6 14.1999 56.7 14.1999 54.3 15.5999C51.9 16.9999 51.9 19.2999 54.3 20.6999" stroke="#171A21" stroke-width="2" stroke-miterlimit="10" stroke-linecap="round" stroke-linejoin="round"/>
<path d="M70.6992 131.4L88.8992 142C89.7992 142.5 90.8992 142.5 91.7992 142L125.099 123C125.599 122.7 125.599 122 125.099 121.8L106.899 111.2C105.999 110.7 104.899 110.7 103.999 111.2L70.6992 130.2C70.1992 130.5 70.1992 131.2 70.6992 131.4Z" fill="#FEE2E2" stroke="#171A21" stroke-width="2" stroke-miterlimit="10" stroke-linecap="round" stroke-linejoin="round"/>
<path d="M126.499 91.9C126.699 91.8 126.799 91.7 126.999 91.6C127.099 91.6 127.099 91.5 127.199 91.5C127.399 91.4 127.699 91.2 127.899 91.1C128.099 91 128.399 90.8 128.599 90.7C128.699 90.7 128.699 90.6 128.799 90.6C128.999 90.5 129.199 90.4 129.399 90.3C129.399 90.3 129.399 90.3 129.499 90.3C129.699 90.2 129.899 90.1 130.199 90C130.199 90 130.299 90 130.299 89.9C130.499 89.8 130.699 89.7 130.899 89.7C130.899 89.7 130.899 89.7 130.999 89.7C131.199 89.6 131.399 89.6 131.599 89.5H131.699C131.899 89.5 131.999 89.4 132.199 89.4C132.299 89.4 132.299 89.4 132.399 89.3C132.599 89.3 132.799 89.2 133.099 89.2C133.299 89.2 133.499 89.1 133.699 89.1C133.799 89.1 133.799 89.1 133.899 89.1C133.999 89.1 134.199 89.1 134.299 89.1C134.399 89.1 134.399 89.1 134.499 89.1C134.599 89.1 134.799 89.1 134.899 89.1H134.999C135.199 89.1 135.399 89.1 135.499 89.1H135.599C135.699 89.1 135.899 89.1 135.999 89.2H136.099C136.299 89.2 136.399 89.3 136.599 89.3C136.799 89.3 136.899 89.4 137.099 89.5C137.099 89.5 137.199 89.5 137.199 89.6C137.299 89.7 137.499 89.7 137.599 89.8H137.699C137.899 89.9 137.999 90 138.199 90.1L122.299 80.9H122.199C122.099 80.8 121.899 80.8 121.799 80.7H121.699C121.599 80.7 121.499 80.6 121.499 80.6C121.399 80.6 121.399 80.6 121.299 80.5C121.299 80.5 121.199 80.5 121.199 80.4C120.999 80.3 120.899 80.3 120.699 80.2C120.499 80.2 120.399 80.1 120.199 80.1H120.099C119.999 80.1 119.999 80.1 119.899 80.1C119.799 80.1 119.699 80.1 119.599 80.1H119.499C119.299 80.1 119.199 80.1 118.999 80.1C118.999 80.1 118.999 80.1 118.899 80.1H118.799C118.699 80.1 118.499 80.1 118.399 80.1C118.299 80.1 118.299 80.1 118.199 80.1H118.099C117.999 80.1 117.899 80.1 117.799 80.1C117.699 80.1 117.699 80.1 117.599 80.1C117.399 80.1 117.199 80.1 116.999 80.2C116.799 80.2 116.599 80.3 116.299 80.3C116.199 80.3 116.199 80.3 116.099 80.4C115.999 80.4 115.799 80.5 115.699 80.5C115.699 80.5 115.699 80.5 115.599 80.5H115.499C115.299 80.6 115.099 80.6 114.899 80.7C114.899 80.7 114.899 80.7 114.799 80.7C114.599 80.8 114.399 80.9 114.199 80.9C114.199 80.9 114.099 80.9 114.099 81C114.099 81 113.999 81 113.999 81.1C113.799 81.2 113.599 81.3 113.499 81.3C113.499 81.3 113.499 81.3 113.399 81.3C113.199 81.4 112.999 81.5 112.799 81.6C112.699 81.6 112.699 81.7 112.599 81.7C112.399 81.8 112.199 81.9 111.899 82.1C111.699 82.2 111.399 82.4 111.199 82.5C111.099 82.5 110.999 82.6 110.999 82.6C110.799 82.7 110.699 82.8 110.499 82.9C110.399 83 110.299 83 110.199 83.1C110.099 83.2 109.899 83.3 109.799 83.4C109.699 83.5 109.599 83.5 109.499 83.6C109.399 83.7 109.199 83.8 109.099 83.9C108.999 84 108.899 84 108.899 84.1C108.699 84.2 108.599 84.4 108.399 84.5C108.299 84.6 108.299 84.6 108.199 84.7C107.999 84.9 107.799 85.1 107.599 85.3L107.499 85.4C107.399 85.5 107.199 85.7 107.099 85.8C107.099 85.8 107.099 85.8 106.999 85.9C106.699 86.2 106.499 86.4 106.299 86.7C106.099 86.9 105.799 87.2 105.599 87.5C105.599 87.5 105.599 87.5 105.499 87.6C105.399 87.7 105.299 87.8 105.199 87.9C105.099 88 104.999 88.1 104.899 88.2C104.799 88.3 104.699 88.5 104.599 88.6C104.499 88.7 104.399 88.8 104.299 88.9C104.299 88.9 104.299 88.9 104.299 89C104.099 89.2 103.999 89.4 103.799 89.7C103.599 89.9 103.499 90.1 103.299 90.3C103.299 90.3 103.299 90.3 103.299 90.4C102.999 90.8 102.799 91.1 102.599 91.5C102.599 91.5 102.599 91.6 102.499 91.6C102.499 91.7 102.399 91.7 102.399 91.8C102.199 92.1 101.999 92.4 101.799 92.7L101.699 92.8C101.699 92.8 101.699 92.8 101.699 92.9C101.499 93.3 101.299 93.6 101.099 94V94.1C101.099 94.2 100.999 94.2 100.999 94.3C100.799 94.6 100.699 94.9 100.599 95.2C100.599 95.3 100.499 95.3 100.499 95.4C100.499 95.4 100.499 95.5 100.399 95.5C100.199 95.9 99.9992 96.2 99.8992 96.6C99.7992 96.9 99.6992 97.1 99.5992 97.4C99.5992 97.5 99.4992 97.5 99.4992 97.6C99.4992 97.7 99.3992 97.8 99.3992 98C99.3992 98.1 99.2992 98.2 99.2992 98.3C99.2992 98.4 99.1992 98.5 99.1992 98.6C99.0992 98.8 98.9992 99.1 98.9992 99.3V99.4C98.8992 99.7 98.7992 99.9 98.6992 100.2C98.6992 100.3 98.6992 100.4 98.5992 100.4C98.5992 100.6 98.4992 100.7 98.4992 100.9V101C98.4992 101.1 98.3992 101.3 98.3992 101.4C98.3992 101.6 98.2992 101.7 98.2992 101.9C98.2992 102 98.1992 102.2 98.1992 102.3C98.1992 102.4 98.1992 102.5 98.0992 102.6C98.0992 102.7 98.0992 102.7 98.0992 102.8C98.0992 103 97.9992 103.2 97.9992 103.4C97.9992 103.5 97.9992 103.7 97.8992 103.8C97.8992 104 97.7992 104.2 97.7992 104.4C97.7992 104.5 97.7992 104.6 97.7992 104.7V104.8C97.7992 104.9 97.7992 105 97.7992 105.1C97.7992 105.3 97.7992 105.5 97.6992 105.7C97.6992 105.8 97.6992 105.9 97.6992 106C97.6992 106.2 97.6992 106.4 97.6992 106.6C97.6992 106.7 97.6992 106.8 97.6992 106.9C97.6992 107.2 97.6992 107.4 97.6992 107.7C97.6992 112.3 99.2992 115.6 101.999 117.1L117.899 126.3C115.299 124.8 113.599 121.5 113.599 116.9C113.599 116.6 113.599 116.4 113.599 116.1C113.599 116 113.599 115.9 113.599 115.8C113.599 115.6 113.599 115.4 113.599 115.2C113.599 115.1 113.599 115 113.599 114.9C113.599 114.7 113.599 114.5 113.699 114.3V114.2L121.999 119C121.999 119 121.999 119 122.099 119C122.199 119.1 122.299 119.1 122.399 119.2C122.399 119.2 122.399 119.2 122.499 119.2C122.499 119.2 122.499 119.2 122.599 119.2C122.699 119.3 122.899 119.3 122.999 119.3C123.099 119.3 123.299 119.4 123.399 119.4C123.399 119.4 123.399 119.4 123.499 119.4C123.499 119.4 123.499 119.4 123.599 119.4C123.699 119.4 123.899 119.4 123.999 119.4C123.999 119.4 123.999 119.4 124.099 119.4H124.199C124.299 119.4 124.399 119.4 124.499 119.4H124.599H124.699C124.799 119.4 124.799 119.4 124.899 119.4H124.999C125.099 119.4 125.199 119.4 125.399 119.4C125.499 119.4 125.699 119.4 125.799 119.3H125.899C125.999 119.3 126.099 119.3 126.099 119.2C126.299 119.2 126.399 119.1 126.599 119.1H126.699C126.799 119.1 126.999 119 127.099 119C127.099 119 127.099 119 127.199 119H127.299C127.399 118.9 127.599 118.9 127.699 118.8C127.799 118.8 127.799 118.7 127.899 118.7C128.099 118.6 128.299 118.5 128.499 118.4C128.599 118.3 128.799 118.2 128.899 118.1L128.999 118C129.099 117.9 129.199 117.9 129.299 117.8C129.399 117.8 129.399 117.7 129.499 117.7C129.599 117.6 129.699 117.6 129.799 117.5C129.899 117.5 129.899 117.4 129.999 117.4C130.099 117.3 130.199 117.3 130.299 117.2L130.399 117.1C130.499 117 130.599 116.9 130.699 116.9L130.799 116.8C130.899 116.7 131.099 116.6 131.199 116.4L131.299 116.3C131.399 116.2 131.499 116.1 131.599 116.1C131.799 115.9 131.899 115.8 131.999 115.6C132.099 115.4 132.299 115.3 132.399 115.1C132.399 115.1 132.399 115.1 132.399 115C132.599 114.7 132.799 114.5 132.999 114.2C132.999 114.2 132.999 114.2 132.999 114.1C133.199 113.9 133.299 113.7 133.499 113.4C133.499 113.4 133.499 113.4 133.499 113.3C133.699 113.1 133.799 112.9 133.899 112.6C133.899 112.6 133.899 112.6 133.899 112.5C133.899 112.5 133.899 112.4 133.999 112.4C134.099 112.2 134.199 112 134.299 111.8C134.299 111.8 134.299 111.7 134.399 111.7C134.499 111.5 134.599 111.3 134.799 111C134.799 111 134.799 111 134.799 110.9C134.799 110.9 134.799 110.8 134.899 110.8C134.999 110.6 135.099 110.4 135.199 110.3C135.199 110.3 135.199 110.2 135.299 110.2C135.299 110.2 135.299 110.2 135.299 110.1C135.399 109.9 135.499 109.7 135.599 109.4C135.599 109.4 135.599 109.4 135.599 109.3C135.699 109.1 135.799 108.9 135.899 108.7V108.6V108.5C135.999 108.3 136.099 108 136.199 107.8C136.299 107.5 136.399 107.3 136.399 107V106.9V106.8C136.399 106.7 136.399 106.6 136.499 106.6C136.499 106.5 136.599 106.4 136.599 106.3C136.599 106.2 136.599 106.1 136.699 106.1C136.699 106 136.699 106 136.699 105.9V105.8C136.699 105.7 136.699 105.6 136.799 105.5C136.799 105.4 136.799 105.3 136.799 105.3C136.799 105.2 136.799 105.1 136.899 104.9C136.899 104.8 136.899 104.8 136.899 104.7C136.899 104.7 136.899 104.7 136.899 104.6C136.899 104.5 136.899 104.5 136.899 104.4C136.899 104.3 136.899 104.2 136.899 104.1C136.899 104 136.899 104 136.899 103.9C136.899 103.8 136.899 103.7 136.899 103.6C136.899 103.5 136.899 103.5 136.899 103.4C136.899 103.2 136.899 103.1 136.899 102.9C136.899 100.1 135.899 98.2 134.299 97.3L125.999 92.5C126.099 92.4 126.199 92.3 126.299 92.2C126.299 92 126.399 92 126.499 91.9ZM119.999 98.4C119.899 98.6 119.799 98.9 119.699 99.1C119.699 99.2 119.699 99.2 119.599 99.3C119.499 99.5 119.399 99.7 119.299 99.9V100C119.199 100.2 119.099 100.5 118.999 100.7C118.999 100.8 118.899 100.8 118.899 100.9C118.799 101.1 118.699 101.3 118.599 101.4C118.599 101.5 118.499 101.5 118.499 101.6C118.399 101.8 118.299 102 118.099 102.3C118.099 102.3 118.099 102.4 117.999 102.4C117.899 102.6 117.799 102.8 117.699 103C117.699 103.1 117.599 103.1 117.599 103.2C117.499 103.4 117.299 103.6 117.199 103.9C117.199 103.9 117.199 104 117.099 104C116.899 104.2 116.799 104.4 116.599 104.7C116.599 104.7 116.599 104.8 116.499 104.8C116.299 105.1 116.099 105.3 115.899 105.6L115.799 105.7C115.699 105.9 115.499 106 115.399 106.2C115.499 106.1 115.499 105.9 115.599 105.8C115.799 105.4 115.899 105 116.099 104.7C116.099 104.6 116.199 104.5 116.199 104.4C116.299 104.1 116.499 103.8 116.599 103.5C116.599 103.4 116.699 103.3 116.699 103.2C116.899 102.8 117.099 102.5 117.299 102.1C117.299 102 117.399 102 117.399 101.9C117.599 101.6 117.799 101.3 117.999 101C118.099 100.9 118.099 100.8 118.199 100.7C118.399 100.3 118.699 100 118.899 99.6C119.099 99.4 119.199 99.1 119.399 98.9C119.499 98.7 119.699 98.5 119.799 98.3C120.099 98.2 120.099 98.3 119.999 98.4Z" fill="#FEE2E2"/>
<path d="M137.799 89.8C137.999 89.9 138.099 90 138.299 90.1L122.399 80.9H122.299C122.199 80.8 121.999 80.8 121.899 80.7H121.799C121.699 80.7 121.599 80.6 121.599 80.6C121.499 80.6 121.499 80.6 121.399 80.5C121.399 80.5 121.299 80.5 121.299 80.4C121.099 80.3 120.999 80.3 120.799 80.2C120.599 80.2 120.499 80.1 120.299 80.1H120.199C120.099 80.1 120.099 80.1 119.999 80.1C119.899 80.1 119.799 80.1 119.699 80.1H119.599C119.399 80.1 119.299 80.1 119.099 80.1C119.099 80.1 119.099 80.1 118.999 80.1H118.899C118.799 80.1 118.599 80.1 118.499 80.1C118.399 80.1 118.399 80.1 118.299 80.1H118.199C118.099 80.1 117.999 80.1 117.899 80.1C117.799 80.1 117.799 80.1 117.699 80.1C117.499 80.1 117.299 80.1 117.099 80.2C116.899 80.2 116.699 80.3 116.399 80.3C116.299 80.3 116.299 80.3 116.199 80.4C116.099 80.4 115.899 80.5 115.799 80.5C115.799 80.5 115.799 80.5 115.699 80.5H115.599C115.399 80.6 115.199 80.6 114.999 80.7C114.999 80.7 114.999 80.7 114.899 80.7C114.699 80.8 114.499 80.9 114.299 80.9C114.299 80.9 114.199 80.9 114.199 81C114.199 81 114.099 81 114.099 81.1C113.899 81.2 113.699 81.3 113.599 81.3C113.599 81.3 113.599 81.3 113.499 81.3C113.299 81.4 113.099 81.5 112.899 81.6C112.799 81.6 112.799 81.7 112.699 81.7C112.499 81.8 112.299 81.9 111.999 82.1C111.799 82.2 111.499 82.4 111.299 82.5C111.199 82.5 111.099 82.6 111.099 82.6C110.899 82.7 110.799 82.8 110.599 82.9C110.499 83 110.399 83 110.299 83.1C110.199 83.2 109.999 83.3 109.899 83.4C109.799 83.5 109.699 83.5 109.599 83.6C109.499 83.7 109.299 83.8 109.199 83.9C109.099 84 108.999 84 108.999 84.1C108.799 84.2 108.699 84.4 108.499 84.5C108.399 84.6 108.399 84.6 108.299 84.7C108.099 84.9 107.899 85.1 107.699 85.3L107.599 85.4C107.499 85.5 107.299 85.7 107.199 85.8C107.199 85.8 107.199 85.8 107.099 85.9C106.799 86.2 106.599 86.4 106.399 86.7C106.199 86.9 105.899 87.2 105.699 87.5C105.699 87.5 105.699 87.5 105.599 87.6C105.499 87.7 105.399 87.8 105.299 87.9C105.199 88 105.099 88.1 104.999 88.2C104.899 88.3 104.799 88.5 104.699 88.6C104.599 88.7 104.499 88.8 104.399 88.9C104.399 88.9 104.399 88.9 104.399 89C104.199 89.2 104.099 89.4 103.899 89.7C103.699 89.9 103.599 90.1 103.399 90.3C103.399 90.3 103.399 90.3 103.399 90.4C103.099 90.8 102.899 91.1 102.699 91.5C102.699 91.5 102.699 91.6 102.599 91.6C102.599 91.7 102.499 91.7 102.499 91.8C102.299 92.1 102.099 92.4 101.899 92.7L101.799 92.8C101.799 92.8 101.799 92.8 101.799 92.9C101.599 93.3 101.399 93.6 101.199 94V94.1C101.199 94.2 101.099 94.2 101.099 94.3C100.899 94.6 100.799 94.9 100.699 95.2C100.699 95.3 100.599 95.3 100.599 95.4C100.599 95.4 100.599 95.5 100.499 95.5C100.299 95.9 100.099 96.2 99.9988 96.6C99.8988 96.9 99.7988 97.1 99.6988 97.4C99.6988 97.5 99.5988 97.5 99.5988 97.6C99.5988 97.7 99.4988 97.8 99.4988 98C99.4988 98.1 99.3988 98.2 99.3988 98.3C99.3988 98.4 99.2988 98.5 99.2988 98.6C99.1988 98.8 99.0988 99.1 99.0988 99.3V99.4C98.9988 99.7 98.8988 99.9 98.7988 100.2C98.7988 100.3 98.7988 100.4 98.6988 100.4C98.6988 100.6 98.5988 100.7 98.5988 100.9V101C98.5988 101.1 98.4988 101.3 98.4988 101.4C98.4988 101.6 98.3988 101.7 98.3988 101.9C98.3988 102 98.2988 102.2 98.2988 102.3C98.2988 102.4 98.2988 102.5 98.1988 102.6C98.1988 102.7 98.1988 102.7 98.1988 102.8C98.1988 103 98.0988 103.2 98.0988 103.4C98.0988 103.5 98.0988 103.7 97.9988 103.8C97.9988 104 97.8988 104.2 97.8988 104.4C97.8988 104.5 97.8988 104.6 97.8988 104.7V104.8C97.8988 104.9 97.8988 105 97.8988 105.1C97.8988 105.3 97.8988 105.5 97.7988 105.7C97.7988 105.8 97.7988 105.9 97.7988 106C97.7988 106.2 97.7988 106.4 97.7988 106.6C97.7988 106.7 97.7988 106.8 97.7988 106.9C97.7988 107.2 97.7988 107.4 97.7988 107.7C97.7988 112.3 99.3988 115.6 102.099 117.1L117.999 126.3" stroke="#171A21" stroke-width="2" stroke-miterlimit="10" stroke-linecap="round" stroke-linejoin="round"/>
<path d="M127.9 91C136 86.3 142.6 90.1 142.6 99.4C142.6 108.7 136.1 120 128 124.7C119.9 129.4 113.3 125.6 113.3 116.3C113.2 107 119.8 95.7 127.9 91ZM128 118C132.9 115.2 136.8 108.4 136.8 102.8C136.8 97.2 132.8 95 128 97.8C123.1 100.6 119.2 107.4 119.2 113C119.1 118.5 123.1 120.8 128 118Z" fill="#FB7070"/>
</svg>
