<svg width="144" height="144" viewBox="0 0 144 144" fill="none" xmlns="http://www.w3.org/2000/svg">
<g clip-path="url(#clip0)">
<path d="M142.1 72.0994C142.1 72.0001 142.1 71.9008 142.1 71.8014C142.1 71.2056 142.1 70.6097 142 70.0139V69.9146C142 69.7159 142 69.6166 142 69.418C142 69.0208 141.9 68.6235 141.9 68.2263C141.9 68.127 141.9 67.9283 141.9 67.829C141.9 67.5311 141.8 67.3325 141.8 67.0345C141.8 66.8359 141.7 66.538 141.7 66.3394C141.7 66.1408 141.6 65.8428 141.6 65.6442C141.6 65.3463 141.5 65.1477 141.5 64.8497C141.5 64.6511 141.5 64.5518 141.4 64.3532C141.3 64.0552 141.3 63.658 141.2 63.3601C141.2 63.1614 141.1 62.8635 141.1 62.6649C141.1 62.5656 141.1 62.4663 141.1 62.4663C141 61.8704 140.9 61.3739 140.8 60.778C140.8 60.6787 140.8 60.5794 140.7 60.4801C140.5 59.7849 140.4 59.0897 140.2 58.3945V58.2952C140.1 58.0966 140.1 57.7987 140 57.6001C139.9 57.2028 139.8 56.8056 139.7 56.4083C139.7 56.309 139.6 56.2097 139.6 56.1104C139.5 55.8125 139.4 55.5145 139.4 55.2166C139.3 54.9187 139.2 54.6208 139.1 54.3228C139 54.1242 139 54.0249 138.9 53.8263C138.8 53.5283 138.7 53.2304 138.6 52.9325C138.5 52.7339 138.5 52.5352 138.4 52.2373C138.3 51.9394 138.2 51.7408 138.1 51.4428C138 51.1449 137.9 50.9463 137.8 50.6483C137.8 50.549 137.7 50.3504 137.7 50.2511C137.6 49.8539 137.4 49.4566 137.2 49.0594C137.1 48.8608 137.1 48.6621 137 48.4635C137 48.4635 137 48.3642 136.9 48.3642C136.7 47.7683 136.4 47.0732 136.1 46.4773C136.1 46.4773 136.1 46.378 136 46.378C135.9 46.1794 135.9 46.0801 135.8 45.8814C135.6 45.4842 135.4 44.9877 135.3 44.5904C135.2 44.4911 135.2 44.2925 135.1 44.1932C135 43.9945 134.9 43.6966 134.8 43.498C134.7 43.2001 134.6 43.0014 134.5 42.7035C134.4 42.5049 134.3 42.3063 134.2 42.1077C134.1 41.8097 133.9 41.5118 133.7 41.2139C133.6 41.0152 133.5 40.9159 133.4 40.7173C133.3 40.5187 133.1 40.2208 133 40.0221C132.8 39.7242 132.7 39.327 132.5 39.029C132.4 38.9297 132.4 38.7311 132.3 38.6318C132.2 38.5325 132.1 38.3339 132.1 38.2345C131.6 37.3408 131.1 36.447 130.6 35.6525C130.5 35.5532 130.5 35.4539 130.4 35.3545L130.3 35.2552C129.9 34.5601 129.4 33.8649 129 33.0704C129 32.9711 128.9 32.9711 128.9 32.8718C128.4 32.0773 127.9 31.2828 127.4 30.5876C127.4 30.5876 127.4 30.4883 127.3 30.4883C127.2 30.389 127.2 30.2897 127.1 30.2897C126.4 29.2966 125.8 28.4028 125.1 27.4097C125 27.3104 124.9 27.2111 124.9 27.0125C124.8 26.9132 124.8 26.8139 124.7 26.8139C124.3 26.3173 124 25.8208 123.6 25.4235C123.4 25.2249 123.3 25.0263 123.1 24.8276L123 24.7283C122.8 24.4304 122.6 24.2318 122.4 24.0332C122.1 23.7352 121.9 23.4373 121.6 23.0401C121.5 22.9408 121.5 22.9408 121.4 22.8414C121.2 22.5435 121 22.3449 120.7 22.047C120.5 21.749 120.2 21.5504 120 21.2525C119.9 21.1532 119.8 21.0539 119.7 20.9545C119.5 20.6566 119.3 20.458 119 20.2594C118.8 20.0608 118.6 19.8621 118.4 19.5642C118.3 19.4649 118.2 19.3656 118 19.167C117.8 18.869 117.5 18.6704 117.3 18.3725C117.1 18.1739 117 17.9752 116.8 17.8759C116.7 17.7766 116.5 17.578 116.4 17.4787C116.1 17.1808 115.9 16.9821 115.6 16.6842C115.4 16.5849 115.3 16.3863 115.1 16.287C114.9 16.0883 114.8 15.989 114.6 15.7904C114.3 15.4925 114.1 15.2939 113.8 14.9959C113.7 14.8966 113.5 14.698 113.4 14.5987C113.2 14.4001 113 14.3008 112.9 14.1021C112.6 13.9035 112.3 13.6056 112.1 13.407C112 13.3076 111.9 13.2083 111.7 13.109C111.5 12.9104 111.3 12.8111 111.1 12.6125C110.8 12.4139 110.6 12.2152 110.3 11.9173C110.2 11.818 110.1 11.7187 110 11.6194C109.7 11.4208 109.5 11.2221 109.2 11.0235C109 10.8249 108.7 10.6263 108.5 10.4276C108.4 10.3283 108.3 10.3283 108.3 10.229C108 10.0304 107.6 9.73248 107.3 9.53385C107.1 9.43454 106.9 9.23592 106.7 9.13661L106.6 9.0373C106 8.64006 105.5 8.34213 104.9 7.94489C104.8 7.84558 104.7 7.84558 104.6 7.74627C104.2 7.44834 103.7 7.15041 103.3 6.95179C103.2 6.85247 103 6.75316 102.9 6.75316C102.5 6.55454 102.1 6.25661 101.6 6.05799C101.4 5.95868 101.3 5.85937 101.1 5.85937C100.9 5.76006 100.7 5.66075 100.5 5.56144C100.3 5.46213 100.2 5.36282 99.9996 5.26351C99.6996 5.1642 99.4996 5.06489 99.1996 4.86627C98.9996 4.76696 98.7996 4.66765 98.5996 4.56834C98.4996 4.56834 98.3996 4.46903 98.3996 4.46903C97.9996 3.87316 97.4996 3.67454 96.9996 3.37661C96.4996 3.17799 95.8996 2.97937 95.3996 2.78075C95.2996 2.78075 95.2996 2.78075 95.1996 2.68144C94.9996 2.58213 94.7996 2.58213 94.5996 2.48282C94.2996 2.38351 94.0996 2.2842 93.7996 2.18489C93.6996 2.18489 93.4996 2.08558 93.3996 2.08558C93.1996 1.98627 92.8996 1.98627 92.6996 1.88696C92.4996 1.88696 92.2996 1.78765 92.1996 1.78765C91.9996 1.78765 91.7996 1.68834 91.5996 1.68834C91.3996 1.58903 91.0996 1.58903 90.8996 1.48972C90.7996 1.48972 90.6996 1.39041 90.4996 1.39041C90.2996 1.39041 90.0996 1.2911 89.8996 1.2911C89.5996 1.2911 89.3996 1.19178 89.0996 1.19178C88.9996 1.19178 88.8996 1.19178 88.7996 1.19178C88.5996 1.19178 88.3996 1.19178 88.1996 1.09247C87.8996 1.09247 87.5996 0.993164 87.2996 0.993164C87.1996 0.993164 87.0996 0.993164 86.9996 0.993164C86.7996 0.993164 86.5996 0.993164 86.3996 0.993164C86.0996 0.993164 85.7996 0.993164 85.3996 0.993164C85.2996 0.993164 85.1996 0.993164 85.0996 0.993164C84.9996 0.993164 84.7996 0.993164 84.6996 0.993164C84.2996 0.993164 83.8996 0.993164 83.4996 1.09247C83.3996 1.09247 83.2996 1.09247 83.0996 1.09247C82.8996 1.09247 82.7996 1.09247 82.5996 1.19178C82.4996 1.19178 82.2996 1.19178 82.1996 1.19178C81.6996 1.2911 81.2996 1.2911 80.7996 1.39041C80.6996 1.39041 80.4996 1.48972 80.3996 1.48972C79.9996 1.58903 79.6996 1.68834 79.2996 1.78765C79.0996 1.88696 78.8996 1.88696 78.7996 1.98627C78.5996 2.08558 78.2996 2.08558 78.0996 2.18489C77.9996 2.18489 77.9996 2.2842 77.8996 2.2842C77.4996 2.38351 77.1996 2.58213 76.7996 2.68144C76.5996 2.78075 76.4996 2.78075 76.2996 2.88006C75.7996 3.07868 75.2996 3.37661 74.7996 3.67454L60.0996 12.2152C60.5996 11.9173 61.0996 11.7187 61.5996 11.4208C61.7996 11.3214 61.8996 11.3214 62.0996 11.2221C62.3996 11.1228 62.7996 10.9242 63.0996 10.8249C63.3996 10.7256 63.6996 10.6263 63.9996 10.527C64.1996 10.4276 64.2996 10.4276 64.4996 10.3283C64.8996 10.229 65.1996 10.1297 65.5996 10.0304C65.6996 10.0304 65.7996 9.9311 65.9996 9.9311C66.4996 9.83179 66.8996 9.73248 67.3996 9.73248C67.4996 9.73248 67.6996 9.73248 67.7996 9.73248C68.0996 9.73248 68.3996 9.63316 68.6996 9.63316C69.0996 9.63316 69.4996 9.63317 69.8996 9.53385C70.0996 9.53385 70.3996 9.53385 70.5996 9.53385C70.8996 9.53385 71.1996 9.53385 71.5996 9.53385C71.8996 9.53385 72.1996 9.53385 72.3996 9.53385C72.6996 9.53385 72.9996 9.63316 73.2996 9.63316C73.5996 9.63316 73.8996 9.73248 74.1996 9.73248C74.4996 9.73248 74.6996 9.83179 74.9996 9.83179C75.2996 9.9311 75.6996 9.9311 75.9996 10.0304C76.1996 10.0304 76.4996 10.1297 76.6996 10.229C77.0996 10.3283 77.3996 10.4276 77.7996 10.527C77.9996 10.6263 78.2996 10.6263 78.4996 10.7256C78.8996 10.8249 79.2996 10.9242 79.6996 11.1228C79.8996 11.2221 80.0996 11.2221 80.2996 11.3214C81.4996 11.7187 82.6996 12.2152 83.8996 12.7118C84.0996 12.8111 84.2996 12.9104 84.4996 13.0097C84.8996 13.2083 85.3996 13.407 85.7996 13.6056C85.9996 13.7049 86.1996 13.8042 86.3996 13.9035C86.9996 14.2014 87.4996 14.4994 88.0996 14.7973C88.6996 15.0952 89.2996 15.4925 89.7996 15.7904C89.8996 15.8897 89.9996 15.8897 90.0996 15.989C90.6996 16.3863 91.2996 16.7835 91.8996 17.1807C92.0996 17.2801 92.2996 17.4787 92.4996 17.578C92.8996 17.8759 93.2996 18.1739 93.6996 18.4718C93.8996 18.6704 94.1996 18.869 94.3996 19.0676C94.7996 19.3656 95.0996 19.5642 95.4996 19.8621C95.7996 20.0608 95.9996 20.2594 96.2996 20.5573C96.5996 20.8552 96.9996 21.1532 97.2996 21.3518C97.5996 21.5504 97.8996 21.8483 98.0996 22.047C98.3996 22.3449 98.6996 22.6428 99.0996 22.9408C99.3996 23.2387 99.5996 23.4373 99.8996 23.7352C100.2 24.0332 100.5 24.3311 100.8 24.629C101.1 24.927 101.3 25.1256 101.6 25.4235C101.9 25.7214 102.2 26.0194 102.5 26.4166C102.7 26.7145 103 26.9132 103.2 27.2111C103.5 27.509 103.8 27.9063 104.2 28.2042C104.4 28.4028 104.6 28.7008 104.9 28.8994C105.2 29.2966 105.5 29.5945 105.8 29.9918C106 30.2897 106.2 30.4883 106.5 30.7863C106.8 31.1835 107.1 31.5808 107.5 31.978C107.7 32.1766 107.9 32.4745 108.1 32.6732C108.3 32.8718 108.5 33.1697 108.7 33.4676C109.1 33.9642 109.4 34.3614 109.8 34.858C109.9 35.0566 110.1 35.2552 110.2 35.4539C110.9 36.3476 111.6 37.3408 112.2 38.3339C112.3 38.4332 112.4 38.5325 112.4 38.7311C112.9 39.5256 113.4 40.2208 113.9 41.0152C113.9 41.1145 114 41.1145 114 41.2139C114.4 41.909 114.9 42.6042 115.3 43.3987C115.4 43.5973 115.5 43.6966 115.6 43.8952C116.1 44.789 116.6 45.6828 117.1 46.4773C117.3 46.7752 117.4 47.0732 117.6 47.3711C117.8 47.669 118 48.0663 118.1 48.3642C118.3 48.7614 118.5 49.1587 118.7 49.5559C118.9 49.8539 119 50.1518 119.2 50.4497C119.4 50.9463 119.6 51.3435 119.8 51.8401C119.9 52.0387 120 52.3366 120.1 52.5352C120.3 53.1311 120.6 53.6276 120.8 54.2235C120.9 54.4221 120.9 54.5214 121 54.7201C121.3 55.4152 121.6 56.1104 121.9 56.9049C122 57.1035 122 57.3021 122.1 57.5008C122.3 57.9973 122.5 58.5932 122.7 59.0897C122.8 59.3876 122.9 59.5863 123 59.8842C123.2 60.3808 123.3 60.8773 123.5 61.2745C123.6 61.5725 123.7 61.8704 123.8 62.1683C123.9 62.6649 124.1 63.1614 124.2 63.5587C124.3 63.8566 124.4 64.1545 124.4 64.4525C124.5 64.949 124.7 65.5449 124.8 66.0414C124.9 66.2401 124.9 66.538 125 66.7366C125.2 67.5311 125.4 68.2263 125.5 69.0208C125.5 69.1201 125.5 69.2194 125.6 69.3187C125.7 70.0139 125.9 70.6097 126 71.3049C126 71.5035 126.1 71.8014 126.1 72.0001C126.2 72.4966 126.3 72.9932 126.3 73.4897C126.3 73.7877 126.4 73.9863 126.4 74.2842C126.5 74.7808 126.5 75.2773 126.6 75.6745C126.6 75.9725 126.7 76.1711 126.7 76.469C126.8 76.9656 126.8 77.5614 126.8 78.058C126.8 78.2566 126.8 78.3559 126.8 78.5545C126.8 79.2497 126.9 80.0442 126.9 80.7394C126.9 81.3352 126.9 81.8318 126.9 82.4277C126.9 83.1228 126.9 83.9173 126.8 84.6125C126.8 84.8111 126.8 85.0097 126.8 85.2083C126.8 85.7049 126.7 86.2014 126.7 86.5987C126.7 86.8966 126.6 87.0952 126.6 87.3932C126.6 87.7904 126.5 88.1876 126.5 88.5849C126.5 88.8828 126.4 89.1808 126.4 89.4787C126.3 89.8759 126.3 90.1739 126.2 90.5711C126.1 90.869 126.1 91.167 126 91.4649C125.9 91.7628 125.9 92.0608 125.8 92.3587C125.7 92.7559 125.6 93.0539 125.5 93.4511C125.4 93.749 125.3 94.047 125.3 94.2456C125.2 94.6428 125 95.0401 124.9 95.4373C124.8 95.6359 124.7 95.8345 124.7 96.1325C124.4 96.8277 124.2 97.5228 123.9 98.1187C123.4 99.1118 122.9 100.006 122.3 100.899C122.2 100.999 122.2 101.098 122.1 101.197C121.9 101.495 121.7 101.892 121.4 102.19C121.3 102.29 121.2 102.389 121.1 102.588C120.9 102.886 120.7 103.184 120.4 103.382C120.3 103.481 120.2 103.581 120.1 103.68C119.8 104.077 119.5 104.375 119.1 104.673L119 104.772C118.7 105.07 118.4 105.269 118.1 105.567C118 105.666 117.9 105.766 117.8 105.865C117.5 106.064 117.3 106.262 117 106.461C116.9 106.56 116.8 106.659 116.7 106.659C116.3 106.957 115.9 107.156 115.5 107.355L130.2 98.8139C130.6 98.6152 131 98.3173 131.4 98.1187C131.5 98.0194 131.6 97.9201 131.7 97.9201C132 97.7214 132.2 97.5228 132.5 97.3242C132.6 97.2249 132.7 97.1256 132.8 97.0263C133.1 96.7283 133.4 96.5297 133.7 96.2318L133.8 96.1325C134.1 95.8345 134.5 95.4373 134.8 95.1394C134.9 95.0401 135 94.9408 135.1 94.8414C135.3 94.5435 135.6 94.3449 135.8 94.047C135.9 93.9476 136 93.8483 136.1 93.6497C136.3 93.3518 136.6 93.0539 136.8 92.6566C136.9 92.5573 136.9 92.458 137 92.3587C137 92.3587 137 92.2594 137.1 92.2594C137.6 91.4649 138.1 90.5711 138.6 89.578C138.6 89.578 138.6 89.578 138.6 89.4787C138.9 88.8828 139.2 88.1877 139.4 87.4925C139.4 87.3932 139.5 87.3932 139.5 87.2939C139.6 87.0952 139.6 86.9959 139.7 86.7973C139.8 86.4001 140 86.0028 140.1 85.6056C140.1 85.5063 140.2 85.407 140.2 85.3077C140.2 85.109 140.3 85.0097 140.3 84.8111C140.4 84.4139 140.5 84.1159 140.6 83.7187C140.6 83.6194 140.7 83.4208 140.7 83.3214C140.7 83.1228 140.8 83.0235 140.8 82.8249C140.9 82.527 140.9 82.229 141 81.9311C141 81.7325 141.1 81.6332 141.1 81.4345C141.1 81.2359 141.2 81.0373 141.2 80.8387C141.2 80.5408 141.3 80.2428 141.3 79.9449C141.3 79.8456 141.3 79.647 141.4 79.5477C141.4 79.349 141.5 79.0511 141.5 78.7532C141.5 78.4552 141.6 78.2566 141.6 77.9587C141.6 77.8594 141.6 77.7601 141.6 77.6608C141.6 77.2635 141.6 76.9656 141.7 76.5683C141.7 76.3697 141.7 76.1711 141.7 75.9725V75.8732C141.7 75.2773 141.7 74.5821 141.7 73.9863V73.887C142.2 73.1918 142.1 72.5959 142.1 72.0994Z" fill="white"/>
<path d="M119.7 104.475L119.6 104.574C119.3 104.872 119 105.07 118.7 105.368C118.6 105.468 118.5 105.567 118.4 105.666C118.1 105.865 117.9 106.064 117.6 106.262C117.5 106.361 117.4 106.461 117.3 106.461C116.9 106.759 116.5 106.957 116.1 107.156L130.8 98.6152C131.2 98.4166 131.6 98.1187 132 97.9201C132.1 97.8207 132.2 97.7214 132.3 97.7214C132.6 97.5228 132.8 97.3242 133.1 97.1256C133.2 97.0263 133.3 96.927 133.4 96.8276C133.7 96.5297 134 96.3311 134.3 96.0332L134.4 95.9339C134.7 95.6359 135.1 95.2387 135.4 94.9407C135.5 94.8414 135.6 94.7421 135.7 94.6428C135.9 94.3449 136.2 94.1463 136.4 93.8483C136.5 93.749 136.6 93.6497 136.7 93.4511C136.9 93.1532 137.2 92.8552 137.4 92.458C137.5 92.3587 137.5 92.2594 137.6 92.1601C137.6 92.1601 137.6 92.0607 137.7 92.0607C138.2 91.2663 138.7 90.3725 139.2 89.3794C139.2 89.3794 139.2 89.3794 139.2 89.2801C139.5 88.6842 139.8 87.989 140 87.2939C140 87.1945 140.1 87.1945 140.1 87.0952C140.2 86.8966 140.2 86.7973 140.3 86.5987C140.4 86.2014 140.6 85.8042 140.7 85.407C140.7 85.3076 140.8 85.2083 140.8 85.109C140.8 84.9104 140.9 84.8111 140.9 84.6125C141 84.2152 141.1 83.9173 141.2 83.5201C141.2 83.4207 141.3 83.2221 141.3 83.1228C141.3 82.9242 141.4 82.8249 141.4 82.6263C141.5 82.3283 141.5 82.0304 141.6 81.7325C141.6 81.5339 141.7 81.4345 141.7 81.2359C141.7 81.0373 141.8 80.8387 141.8 80.6401C141.8 80.3421 141.9 80.0442 141.9 79.7463C141.9 79.647 141.9 79.4483 142 79.349C142 79.1504 142.1 78.8525 142.1 78.5545C142.1 78.2566 142.2 78.058 142.2 77.7601C142.2 77.6608 142.2 77.5614 142.2 77.4621C142.2 77.0649 142.2 76.767 142.3 76.3697C142.3 76.1711 142.3 75.9725 142.3 75.7739V75.6745C142.3 75.0787 142.3 74.3835 142.3 73.7876V73.6883C142.3 73.1918 142.3 72.5959 142.3 72.0001C142.3 71.9008 142.3 71.8014 142.3 71.7021C142.3 71.1063 142.3 70.5104 142.2 69.9145V69.8152C142.2 69.6166 142.2 69.5173 142.2 69.3187C142.2 68.9214 142.1 68.5242 142.1 68.127C142.1 68.0276 142.1 67.829 142.1 67.7297C142.1 67.4318 142 67.2332 142 66.9352C142 66.7366 141.9 66.4387 141.9 66.2401C141.9 66.0414 141.8 65.7435 141.8 65.5449C141.8 65.247 141.7 65.0483 141.7 64.7504C141.7 64.5518 141.7 64.4525 141.6 64.2539C141.5 63.9559 141.5 63.5587 141.4 63.2608C141.4 63.0621 141.3 62.7642 141.3 62.5656C141.3 62.4663 141.3 62.367 141.3 62.367C141.2 61.7711 141.1 61.2745 141 60.6787C141 60.5794 141 60.4801 140.9 60.3807C140.7 59.6856 140.6 58.9904 140.4 58.2952V58.1959C140.3 57.9973 140.3 57.6994 140.2 57.5008C140.1 57.1035 140 56.7063 139.9 56.309C139.9 56.2097 139.8 56.1104 139.8 56.0111C139.7 55.7132 139.6 55.4152 139.6 55.1173C139.5 54.8194 139.4 54.5214 139.3 54.2235C139.2 54.0249 139.2 53.9256 139.1 53.727C139 53.429 138.9 53.1311 138.8 52.8332C138.7 52.6345 138.7 52.4359 138.6 52.138C138.5 51.8401 138.4 51.6414 138.3 51.3435C138.2 51.0456 138.1 50.847 138 50.549C138 50.4497 137.9 50.2511 137.9 50.1518C137.8 49.7545 137.6 49.3573 137.4 48.9601C137.3 48.7614 137.3 48.5628 137.2 48.3642C137.2 48.3642 137.2 48.2649 137.1 48.2649C136.9 47.669 136.6 46.9739 136.3 46.378C136.3 46.378 136.3 46.2787 136.2 46.2787C136.1 46.0801 136.1 45.9807 136 45.7821C135.8 45.3849 135.6 44.8883 135.5 44.4911C135.4 44.3918 135.4 44.1932 135.3 44.0939C135.2 43.8952 135.1 43.5973 135 43.3987C134.9 43.1008 134.8 42.9021 134.7 42.6042C134.6 42.4056 134.5 42.207 134.4 42.0083C134.3 41.7104 134.1 41.4125 133.9 41.1145C133.8 40.9159 133.7 40.8166 133.6 40.618C133.5 40.4194 133.3 40.1214 133.2 39.9228C133 39.6249 132.9 39.2276 132.7 38.9297C132.6 38.8304 132.6 38.6318 132.5 38.5325C132.4 38.4332 132.3 38.2345 132.3 38.1352C131.8 37.2414 131.3 36.3476 130.8 35.5532C130.7 35.4539 130.7 35.3545 130.6 35.2552L130.5 35.1559C130.1 34.4608 129.6 33.7656 129.2 32.9711C129.2 32.8718 129.1 32.8718 129.1 32.7725C128.6 31.978 128.1 31.1835 127.6 30.4883C127.6 30.4883 127.6 30.389 127.5 30.389C127.4 30.2897 127.4 30.1904 127.3 30.1904C126.6 29.1973 126 28.3035 125.3 27.3104C125.2 27.2111 125.1 27.1118 125.1 26.9132C125 26.8139 125 26.7145 124.9 26.7145C124.5 26.218 124.2 25.7214 123.8 25.3242C123.6 25.1256 123.5 24.927 123.3 24.7283L123.2 24.629C123 24.3311 122.8 24.1325 122.6 23.9339C122.3 23.6359 122.1 23.338 121.8 22.9408C121.7 22.8414 121.7 22.8414 121.6 22.7421C121.4 22.4442 121.2 22.2456 120.9 21.9476C120.7 21.6497 120.4 21.4511 120.2 21.1532C120.1 21.0539 120 20.9545 119.9 20.8552C119.7 20.5573 119.5 20.3587 119.2 20.1601C119 19.9614 118.8 19.7628 118.6 19.4649C118.5 19.3656 118.4 19.2663 118.2 19.0676C118 18.7697 117.7 18.5711 117.5 18.2732C117.3 18.0745 117.2 17.8759 117 17.7766C116.9 17.6773 116.7 17.4787 116.6 17.3794C116.3 17.0814 116.1 16.8828 115.8 16.5849C115.6 16.4856 115.5 16.287 115.3 16.1876C115.1 15.989 115 15.8897 114.8 15.6911C114.5 15.3932 114.3 15.1945 114 14.8966C113.9 14.7973 113.7 14.5987 113.6 14.4994C113.4 14.3008 113.2 14.2014 113.1 14.0028C112.8 13.8042 112.5 13.5063 112.3 13.3076C112.2 13.2083 112.1 13.109 111.9 13.0097C111.7 12.8111 111.5 12.7118 111.3 12.5132C111 12.3145 110.8 12.1159 110.5 11.818C110.4 11.7187 110.3 11.6194 110.2 11.5201C109.9 11.3214 109.7 11.1228 109.4 10.9242C109.2 10.7256 108.9 10.527 108.7 10.3283C108.6 10.229 108.5 10.229 108.5 10.1297C108.2 9.93109 107.8 9.63316 107.5 9.43454C107.3 9.33523 107.1 9.13661 106.9 9.0373L106.8 8.93799C106.2 8.54075 105.7 8.24282 105.1 7.84558C105 7.74627 104.9 7.74627 104.8 7.64696C104.4 7.34903 103.9 7.0511 103.5 6.85247C103.4 6.75316 103.2 6.65385 103.1 6.65385C102.7 6.45523 102.3 6.1573 101.8 5.95868C101.6 5.85937 101.5 5.76006 101.3 5.76006C101.1 5.66075 100.9 5.56144 100.7 5.46213C100.5 5.36282 100.4 5.26351 100.2 5.1642C99.8996 5.06489 99.6996 4.96558 99.3996 4.76696C99.1996 4.66765 98.9996 4.56834 98.7996 4.46903C98.6996 4.46903 98.5996 4.36972 98.5996 4.36972C97.9996 3.87316 97.4996 3.67454 96.9996 3.37661C96.4996 3.17799 95.8996 2.97937 95.3996 2.78075C95.2996 2.78075 95.2996 2.78075 95.1996 2.68144C94.9996 2.58213 94.7996 2.58213 94.5996 2.48282C94.2996 2.38351 94.0996 2.2842 93.7996 2.18489C93.6996 2.18489 93.4996 2.08558 93.3996 2.08558C93.1996 1.98627 92.8996 1.98627 92.6996 1.88696C92.4996 1.88696 92.2996 1.78765 92.1996 1.78765C91.9996 1.78765 91.7996 1.68834 91.5996 1.68834C91.3996 1.58903 91.0996 1.58903 90.8996 1.48972C90.7996 1.48972 90.6996 1.39041 90.4996 1.39041C90.2996 1.39041 90.0996 1.2911 89.8996 1.2911C89.5996 1.2911 89.3996 1.19178 89.0996 1.19178C88.9996 1.19178 88.8996 1.19178 88.7996 1.19178C88.5996 1.19178 88.3996 1.19178 88.1996 1.09247C87.8996 1.09247 87.5996 0.993164 87.2996 0.993164C87.1996 0.993164 87.0996 0.993164 86.9996 0.993164C86.7996 0.993164 86.5996 0.993164 86.3996 0.993164C86.0996 0.993164 85.7996 0.993164 85.3996 0.993164C85.2996 0.993164 85.1996 0.993164 85.0996 0.993164C84.9996 0.993164 84.7996 0.993164 84.6996 0.993164C84.2996 0.993164 83.8996 0.993164 83.4996 1.09247C83.3996 1.09247 83.2996 1.09247 83.0996 1.09247C82.8996 1.09247 82.7996 1.09247 82.5996 1.19178C82.4996 1.19178 82.2996 1.19178 82.1996 1.19178C81.6996 1.2911 81.2996 1.2911 80.7996 1.39041C80.6996 1.39041 80.4996 1.48972 80.3996 1.48972C79.9996 1.58903 79.6996 1.68834 79.2996 1.78765C79.0996 1.88696 78.8996 1.88696 78.7996 1.98627C78.5996 2.08558 78.2996 2.08558 78.0996 2.18489C77.9996 2.18489 77.9996 2.2842 77.8996 2.2842C77.4996 2.38351 77.1996 2.58213 76.7996 2.68144C76.5996 2.78075 76.4996 2.78075 76.2996 2.88006C75.7996 3.07868 75.2996 3.37661 74.7996 3.67454L60.0996 12.2152" stroke="#171A21" stroke-width="2" stroke-miterlimit="10" stroke-linecap="round" stroke-linejoin="round"/>
<path d="M88.1992 14.8967C109.399 27.1118 126.699 56.2098 127.399 80.6401C127.399 81.236 127.399 81.7325 127.399 82.3284C127.299 107.057 109.699 117.087 87.9993 104.673C66.2993 92.0608 48.6993 61.9698 48.7993 37.1422C48.7993 36.6456 48.7993 36.0498 48.7993 35.5532C49.6993 11.9174 66.9992 2.68149 88.1992 14.8967Z" fill="#FB7070"/>
<path d="M88.199 92.3587C87.499 91.9615 86.999 91.0677 86.999 90.2732V86.1022C86.999 85.3077 87.499 85.0098 88.199 85.407C88.899 85.8042 89.399 86.698 89.399 87.4925V91.6636C89.399 92.3587 88.799 92.6566 88.199 92.3587ZM61.299 46.1794C60.599 45.7822 60.099 44.8884 60.099 44.0939C60.099 43.2994 60.599 43.0015 61.299 43.3987L64.999 45.4842C65.699 45.8815 66.199 46.7753 66.199 47.5698C66.199 48.3642 65.699 48.6622 64.999 48.2649L61.299 46.1794ZM111.499 74.8801C110.799 74.4829 110.299 73.5891 110.299 72.7946C110.299 72.0001 110.799 71.7022 111.499 72.0994L115.199 74.1849C115.899 74.5822 116.399 75.476 116.399 76.2704C116.399 77.0649 115.899 77.3629 115.199 76.9656L111.499 74.8801ZM84.199 58.0966L81.999 54.5215L69.099 34.0635C68.099 32.4746 67.999 30.7863 68.899 30.0911C69.399 29.7932 69.999 29.7932 70.699 30.1904C71.299 30.4884 71.799 31.0842 72.299 31.7794L84.899 51.9394L86.899 55.1173C87.299 55.2166 87.799 55.316 88.299 55.6139C88.699 55.8125 88.999 56.1104 89.399 56.4084L91.299 55.316L96.899 52.0387C97.399 51.7408 97.999 51.8401 98.599 52.2373C99.199 52.5353 99.799 53.2304 100.299 53.9256C101.199 55.5146 101.199 57.2029 100.299 57.7987L94.499 61.1753L92.399 62.367C92.399 62.4663 92.399 62.4663 92.399 62.5656C92.399 65.1477 90.599 66.1408 88.299 64.8498C85.999 63.658 84.299 60.5794 84.199 58.0966ZM88.299 35.0566C87.599 34.6594 87.099 33.7656 87.099 32.9711V28.8001C87.099 28.0056 87.599 27.7077 88.299 28.1049C88.999 28.5022 89.499 29.396 89.499 30.1904V34.3615C89.499 35.156 88.999 35.4539 88.299 35.0566ZM88.399 23.8346C71.199 14.0029 57.199 21.4511 56.399 40.4194V40.5187C56.399 41.0153 56.399 41.5118 56.399 42.0084C56.299 62.0691 70.599 86.5987 88.199 96.7284C105.799 106.858 120.099 98.7146 120.199 78.6539C120.199 78.1573 120.199 77.6608 120.199 77.1642V77.0649C119.399 57.1035 105.499 33.6663 88.399 23.8346Z" fill="#FEE2E2"/>
<path d="M88.3996 23.8345C78.6996 18.2732 69.9996 18.2732 64.0996 22.6428L68.8996 30.0911C69.3996 29.7932 69.9996 29.7932 70.6996 30.1904C71.2996 30.4883 71.7996 31.0842 72.2996 31.7794L84.8996 51.9394L86.8996 55.1173C87.2996 55.2166 87.7996 55.3159 88.2996 55.6138C88.6996 55.8125 88.9996 56.1104 89.3996 56.4083L91.2996 55.3159L96.8996 52.0387C97.3996 51.7407 97.9996 51.8401 98.5996 52.2373C99.1996 52.5352 99.7996 53.2304 100.3 53.9256C100.3 54.0249 100.4 54.1242 100.4 54.1242L111.3 47.9669C105.4 37.9366 97.2996 28.9987 88.3996 23.8345ZM89.4996 34.4607C89.4996 35.2552 88.9996 35.5532 88.2996 35.1559C87.5996 34.7587 87.0996 33.8649 87.0996 33.0704V28.8994C87.0996 28.1049 87.5996 27.807 88.2996 28.2042C88.9996 28.6014 89.4996 29.4952 89.4996 30.2897V34.4607Z" fill="white"/>
<path d="M70.7001 30.1905C70.0001 29.7932 69.4001 29.7932 68.9001 30.0912C68.0001 30.687 68.1001 32.4746 69.1001 34.0636L82.0001 54.5215L84.2001 58.0967C84.2001 57.9974 84.2001 57.9974 84.2001 57.8981C84.2001 57.3022 84.3001 56.8056 84.5001 56.4084C84.9001 55.4153 85.8001 54.9187 86.9001 55.0181L84.9001 51.8401L72.3001 31.7794C71.8001 31.0843 71.3001 30.4884 70.7001 30.1905Z" fill="#FB7070"/>
<path d="M98.4988 52.2373C97.8988 51.84 97.2988 51.84 96.7988 52.0387L91.1988 55.3159L89.2988 56.4083C90.5988 57.5007 91.5988 59.189 91.9988 60.778C92.0988 61.2745 92.1988 61.8704 92.1988 62.3669L94.2988 61.1752L100.099 57.7987C100.999 57.3021 100.999 55.5145 100.099 53.9256C99.6988 53.1311 99.0988 52.5352 98.4988 52.2373Z" fill="#FB7070"/>
<path d="M88.2992 55.6139C87.7992 55.3159 87.3992 55.2166 86.8992 55.1173C85.7992 54.9187 84.8992 55.4153 84.4992 56.5077C84.2992 56.9049 84.1992 57.4015 84.1992 57.9973C84.1992 58.0966 84.1992 58.0966 84.1992 58.1959C84.2992 60.6787 85.9992 63.7573 88.1992 65.0484C90.3992 66.3394 92.2992 65.3463 92.2992 62.7642C92.2992 62.6649 92.2992 62.6649 92.2992 62.5656C92.2992 62.069 92.1992 61.5725 92.0992 60.9766C91.6992 59.2884 90.5992 57.6994 89.3992 56.607C88.9992 56.1104 88.5992 55.8125 88.2992 55.6139Z" fill="white" stroke="#171A21" stroke-width="2" stroke-miterlimit="10" stroke-linecap="round" stroke-linejoin="round"/>
<path d="M88.1996 85.407C87.4996 85.0098 86.9996 85.3077 86.9996 86.1022V90.2732C86.9996 91.0677 87.4996 91.9615 88.1996 92.3587C88.8996 92.756 89.3996 92.458 89.3996 91.6636V87.4925C89.3996 86.698 88.7996 85.8042 88.1996 85.407ZM64.9996 45.5836L61.2996 43.498C60.5996 43.1008 60.0996 43.3987 60.0996 44.1932C60.0996 44.9877 60.5996 45.8815 61.2996 46.2787L64.9996 48.3642C65.6996 48.7615 66.1996 48.4636 66.1996 47.6691C66.1996 46.8746 65.6996 45.9808 64.9996 45.5836ZM115.2 74.2842L111.5 72.1987C110.8 71.8015 110.3 72.0994 110.3 72.8939C110.3 73.6884 110.8 74.5822 111.5 74.9794L115.2 77.0649C115.9 77.4622 116.4 77.1642 116.4 76.3698C116.4 75.5753 115.8 74.6815 115.2 74.2842ZM88.2996 28.2042C87.5996 27.807 87.0996 28.1049 87.0996 28.8994V33.0704C87.0996 33.8649 87.5996 34.7587 88.2996 35.156C88.9996 35.5532 89.4996 35.2553 89.4996 34.4608V30.2898C89.4996 29.4953 88.9996 28.5022 88.2996 28.2042Z" fill="#FB7070"/>
<path d="M13.1992 83.52C13.1992 83.52 13.0992 83.52 13.1992 83.52C12.9992 83.52 12.8992 83.4207 12.7992 83.4207C12.6992 83.4207 12.5992 83.4207 12.4992 83.4207C12.3992 83.4207 12.2992 83.52 12.1992 83.52L23.2992 77.1642H23.3992H23.4992H23.5992H23.6992H23.7992C23.8992 77.1642 23.8992 77.1642 23.9992 77.1642C24.0992 77.1642 24.0992 77.1642 24.1992 77.2635C24.2992 77.2635 24.2992 77.3628 24.3992 77.3628C24.6992 77.4621 24.8992 77.6607 25.1992 77.7601C25.2992 77.7601 25.3992 77.8594 25.4992 77.8594C25.6992 77.9587 25.7992 78.058 25.9992 78.058C26.0992 78.058 26.1992 78.1573 26.2992 78.1573C26.3992 78.2566 26.5992 78.2566 26.6992 78.3559C26.7992 78.3559 26.8992 78.4552 26.9992 78.4552C27.0992 78.5545 27.2992 78.5545 27.3992 78.6538C27.6992 78.7532 27.9992 78.8525 28.1992 78.9518H28.2992C28.4992 79.0511 28.7992 79.1504 28.9992 79.2497C29.0992 79.2497 29.1992 79.349 29.2992 79.349C29.4992 79.4483 29.5992 79.4483 29.7992 79.5476C29.8992 79.5476 29.9992 79.6469 30.0992 79.6469C30.2992 79.6469 30.3992 79.7463 30.5992 79.7463C30.6992 79.7463 30.6992 79.7463 30.7992 79.8456C31.0992 79.9449 31.4992 80.0442 31.7992 80.0442C31.8992 80.0442 31.8992 80.0442 31.9992 80.0442C32.2992 80.1435 32.5992 80.1435 32.8992 80.2428C32.9992 80.2428 32.9992 80.2428 33.0992 80.2428C33.3992 80.2428 33.5992 80.3421 33.8992 80.3421H33.9992C34.1992 80.3421 34.4992 80.3421 34.6992 80.4414H34.7992C34.9992 80.4414 35.1992 80.4414 35.3992 80.4414H35.4992C35.6992 80.4414 35.8992 80.4414 36.0992 80.4414C36.0992 80.4414 36.0992 80.4414 36.1992 80.4414C36.3992 80.4414 36.5992 80.4414 36.7992 80.3421H36.8992C37.0992 80.3421 37.1992 80.3421 37.3992 80.2428C37.5992 80.2428 37.6992 80.1435 37.8992 80.1435H37.9992C38.1992 80.1435 38.2992 80.0442 38.4992 80.0442C38.6992 80.0442 38.7992 79.9449 38.8992 79.9449H38.9992C39.0992 79.9449 39.2992 79.8456 39.3992 79.7463C39.3992 79.7463 39.3992 79.7463 39.4992 79.7463C39.5992 79.6469 39.7992 79.6469 39.8992 79.5476C39.9992 79.4483 40.0992 79.4483 40.1992 79.349L40.3992 79.2497H40.4992H40.5992H40.6992H40.7992H40.8992C40.8992 79.2497 40.8992 79.2497 40.9992 79.2497C41.0992 79.2497 41.0992 79.2497 41.1992 79.2497H41.2992C41.2992 79.2497 41.2992 79.2497 41.3992 79.2497C41.3992 79.2497 41.3992 79.2497 41.4992 79.2497C41.5992 79.2497 41.6992 79.349 41.7992 79.349C41.8992 79.4483 41.9992 79.5476 42.1992 79.6469L42.2992 79.7463C42.3992 79.8456 42.3992 79.8456 42.4992 79.9449C42.4992 79.9449 42.4992 79.9449 42.5992 80.0442C42.5992 80.0442 42.5992 80.0442 42.6992 80.1435L42.7992 80.2428C42.8992 80.3421 42.8992 80.3421 42.9992 80.4414C42.9992 80.4414 42.9992 80.4414 43.0992 80.5407C43.0992 80.5407 43.0992 80.5407 43.1992 80.64C43.1992 80.7394 43.2992 80.7394 43.2992 80.8387C43.2992 80.938 43.3992 80.938 43.3992 81.0373C43.3992 81.0373 43.3992 81.0373 43.3992 81.1366C43.4992 81.3352 43.5992 81.5338 43.7992 81.7325C43.8992 81.8318 43.8992 81.9311 43.9992 82.0304C44.0992 82.229 44.1992 82.3283 44.2992 82.5269C44.3992 82.6263 44.3992 82.7256 44.4992 82.8249C44.5992 83.0235 44.6992 83.2221 44.7992 83.3214C44.8992 83.4207 44.8992 83.52 44.9992 83.6194C45.1992 83.818 45.2992 84.1159 45.4992 84.3145C45.4992 84.4138 45.5992 84.4138 45.5992 84.5132C45.7992 84.8111 45.9992 85.109 46.2992 85.4069C46.3992 85.5063 46.3992 85.6056 46.4992 85.7049C46.6992 85.9035 46.7992 86.2014 46.9992 86.4C47.0992 86.5987 47.1992 86.698 47.3992 86.8966C47.5992 87.0952 47.6992 87.2938 47.8992 87.4925C47.9992 87.6911 48.1992 87.7904 48.2992 87.989C48.4992 88.1876 48.6992 88.3863 48.8992 88.5849C48.9992 88.3863 48.9992 88.3863 49.0992 88.4856C49.3992 88.7835 49.6992 89.1807 49.9992 89.4787L50.0992 89.578C50.3992 89.8759 50.6992 90.1738 50.9992 90.4718L51.0992 90.5711C51.3992 90.869 51.7992 91.2663 52.1992 91.5642C52.2992 91.6635 52.3992 91.7628 52.4992 91.7628C52.7992 92.0607 53.0992 92.2594 53.3992 92.5573C53.4992 92.6566 53.5992 92.7559 53.7992 92.8552C54.0992 93.1532 54.4992 93.4511 54.8992 93.749C54.9992 93.749 54.9992 93.8483 55.0992 93.8483C55.4992 94.1463 55.9992 94.5435 56.3992 94.8414C56.4992 94.9407 56.5992 95.0401 56.7992 95.1394C57.0992 95.4373 57.4992 95.6359 57.8992 95.9338C57.9992 96.0332 58.1992 96.1325 58.2992 96.2318C58.7992 96.5297 59.2992 96.9269 59.7992 97.2249C59.8992 97.3242 59.9992 97.4235 60.0992 97.5228L60.1992 97.6221L60.2992 97.7214C60.3992 97.8207 60.3992 97.8207 60.3992 97.92C60.4992 98.0194 60.4992 98.0194 60.5992 98.1187C60.5992 98.218 60.6992 98.218 60.6992 98.3173C60.6992 98.4166 60.7992 98.4166 60.7992 98.5159C60.7992 98.6152 60.8992 98.6152 60.8992 98.7145V98.8138C60.8992 98.8138 60.8992 98.8138 60.8992 98.9132C60.8992 99.0125 60.9992 99.0125 60.9992 99.1118C60.9992 99.2111 61.0992 99.2111 61.0992 99.3104V99.4097C61.0992 99.509 61.0992 99.509 61.1992 99.6083V99.7076C61.1992 99.8069 61.1992 99.9063 61.2992 99.9063C61.2992 100.006 61.2992 100.006 61.2992 100.105C61.2992 100.105 61.2992 100.105 61.2992 100.204C61.2992 100.204 61.2992 100.204 61.2992 100.303C61.2992 100.403 61.2992 100.601 61.2992 100.701L61.1992 125.032C61.1992 129.898 59.4992 133.473 56.4992 135.261L45.3992 141.617" fill="white"/>
<path d="M13.1992 83.52C13.1992 83.52 13.0992 83.52 13.1992 83.52C12.9992 83.52 12.8992 83.4207 12.7992 83.4207C12.6992 83.4207 12.5992 83.4207 12.4992 83.4207C12.3992 83.4207 12.2992 83.52 12.1992 83.52L23.2992 77.1642H23.3992H23.4992H23.5992H23.6992H23.7992C23.8992 77.1642 23.8992 77.1642 23.9992 77.1642C24.0992 77.1642 24.0992 77.1642 24.1992 77.2635C24.2992 77.2635 24.2992 77.3628 24.3992 77.3628C24.6992 77.4621 24.8992 77.6607 25.1992 77.7601C25.2992 77.7601 25.3992 77.8594 25.4992 77.8594C25.6992 77.9587 25.7992 78.058 25.9992 78.058C26.0992 78.058 26.1992 78.1573 26.2992 78.1573C26.3992 78.2566 26.5992 78.2566 26.6992 78.3559C26.7992 78.3559 26.8992 78.4552 26.9992 78.4552C27.0992 78.5545 27.2992 78.5545 27.3992 78.6538C27.6992 78.7532 27.9992 78.8525 28.1992 78.9518H28.2992C28.4992 79.0511 28.7992 79.1504 28.9992 79.2497C29.0992 79.2497 29.1992 79.349 29.2992 79.349C29.4992 79.4483 29.5992 79.4483 29.7992 79.5476C29.8992 79.5476 29.9992 79.6469 30.0992 79.6469C30.2992 79.6469 30.3992 79.7463 30.5992 79.7463C30.6992 79.7463 30.6992 79.7463 30.7992 79.8456C31.0992 79.9449 31.4992 80.0442 31.7992 80.0442C31.8992 80.0442 31.8992 80.0442 31.9992 80.0442C32.2992 80.1435 32.5992 80.1435 32.8992 80.2428C32.9992 80.2428 32.9992 80.2428 33.0992 80.2428C33.3992 80.2428 33.5992 80.3421 33.8992 80.3421H33.9992C34.1992 80.3421 34.4992 80.3421 34.6992 80.4414H34.7992C34.9992 80.4414 35.1992 80.4414 35.3992 80.4414H35.4992C35.6992 80.4414 35.8992 80.4414 36.0992 80.4414C36.0992 80.4414 36.0992 80.4414 36.1992 80.4414C36.3992 80.4414 36.5992 80.4414 36.7992 80.3421H36.8992C37.0992 80.3421 37.1992 80.3421 37.3992 80.2428C37.5992 80.2428 37.6992 80.1435 37.8992 80.1435H37.9992C38.1992 80.1435 38.2992 80.0442 38.4992 80.0442C38.6992 80.0442 38.7992 79.9449 38.8992 79.9449H38.9992C39.0992 79.9449 39.2992 79.8456 39.3992 79.7463C39.3992 79.7463 39.3992 79.7463 39.4992 79.7463C39.5992 79.6469 39.7992 79.6469 39.8992 79.5476C39.9992 79.4483 40.0992 79.4483 40.1992 79.349L40.3992 79.2497H40.4992H40.5992H40.6992H40.7992H40.8992C40.8992 79.2497 40.8992 79.2497 40.9992 79.2497C41.0992 79.2497 41.0992 79.2497 41.1992 79.2497H41.2992C41.2992 79.2497 41.2992 79.2497 41.3992 79.2497C41.3992 79.2497 41.3992 79.2497 41.4992 79.2497C41.5992 79.2497 41.6992 79.349 41.7992 79.349C41.8992 79.4483 41.9992 79.5476 42.1992 79.6469L42.2992 79.7463C42.3992 79.8456 42.3992 79.8456 42.4992 79.9449C42.4992 79.9449 42.4992 79.9449 42.5992 80.0442C42.5992 80.0442 42.5992 80.0442 42.6992 80.1435L42.7992 80.2428C42.8992 80.3421 42.8992 80.3421 42.9992 80.4414C42.9992 80.4414 42.9992 80.4414 43.0992 80.5407C43.0992 80.5407 43.0992 80.5407 43.1992 80.64C43.1992 80.7394 43.2992 80.7394 43.2992 80.8387C43.2992 80.938 43.3992 80.938 43.3992 81.0373C43.3992 81.0373 43.3992 81.0373 43.3992 81.1366C43.4992 81.3352 43.5992 81.5338 43.7992 81.7325C43.8992 81.8318 43.8992 81.9311 43.9992 82.0304C44.0992 82.229 44.1992 82.3283 44.2992 82.5269C44.3992 82.6263 44.3992 82.7256 44.4992 82.8249C44.5992 83.0235 44.6992 83.2221 44.7992 83.3214C44.8992 83.4207 44.8992 83.52 44.9992 83.6194C45.1992 83.818 45.2992 84.1159 45.4992 84.3145C45.4992 84.4138 45.5992 84.4138 45.5992 84.5132C45.7992 84.8111 45.9992 85.109 46.2992 85.4069C46.3992 85.5063 46.3992 85.6056 46.4992 85.7049C46.6992 85.9035 46.7992 86.2014 46.9992 86.4C47.0992 86.5987 47.1992 86.698 47.3992 86.8966C47.5992 87.0952 47.6992 87.2938 47.8992 87.4925C47.9992 87.6911 48.1992 87.7904 48.2992 87.989C48.4992 88.1876 48.6992 88.3863 48.8992 88.5849C48.9992 88.3863 48.9992 88.3863 49.0992 88.4856C49.3992 88.7835 49.6992 89.1807 49.9992 89.4787L50.0992 89.578C50.3992 89.8759 50.6992 90.1738 50.9992 90.4718L51.0992 90.5711C51.3992 90.869 51.7992 91.2663 52.1992 91.5642C52.2992 91.6635 52.3992 91.7628 52.4992 91.7628C52.7992 92.0607 53.0992 92.2594 53.3992 92.5573C53.4992 92.6566 53.5992 92.7559 53.7992 92.8552C54.0992 93.1532 54.4992 93.4511 54.8992 93.749C54.9992 93.749 54.9992 93.8483 55.0992 93.8483C55.4992 94.1463 55.9992 94.5435 56.3992 94.8414C56.4992 94.9407 56.5992 95.0401 56.7992 95.1394C57.0992 95.4373 57.4992 95.6359 57.8992 95.9338C57.9992 96.0332 58.1992 96.1325 58.2992 96.2318C58.7992 96.5297 59.2992 96.9269 59.7992 97.2249C59.8992 97.3242 59.9992 97.4235 60.0992 97.5228L60.1992 97.6221L60.2992 97.7214C60.3992 97.8207 60.3992 97.8207 60.3992 97.92C60.4992 98.0194 60.4992 98.0194 60.5992 98.1187C60.5992 98.218 60.6992 98.218 60.6992 98.3173C60.6992 98.4166 60.7992 98.4166 60.7992 98.5159C60.7992 98.6152 60.8992 98.6152 60.8992 98.7145V98.8138C60.8992 98.8138 60.8992 98.8138 60.8992 98.9132C60.8992 99.0125 60.9992 99.0125 60.9992 99.1118C60.9992 99.2111 61.0992 99.2111 61.0992 99.3104V99.4097C61.0992 99.509 61.0992 99.509 61.1992 99.6083V99.7076C61.1992 99.8069 61.1992 99.9063 61.2992 99.9063C61.2992 100.006 61.2992 100.006 61.2992 100.105C61.2992 100.105 61.2992 100.105 61.2992 100.204C61.2992 100.204 61.2992 100.204 61.2992 100.303C61.2992 100.403 61.2992 100.601 61.2992 100.701L61.1992 125.032C61.1992 129.898 59.4992 133.473 56.4992 135.261L45.3992 141.617" stroke="#171A21" stroke-width="2" stroke-miterlimit="10" stroke-linecap="round" stroke-linejoin="round"/>
<path d="M31 85.7048C30.5 85.4069 30 85.3076 29.6 85.6055C27.4 86.8965 22.5 88.2869 13.5 83.7186C12.4 83.1228 11.6 83.7186 11.6 84.9103L11.5 109.241C11.5 115.796 14.5 123.542 19.4 129.6L27.8 139.928C28.7 141.12 29.8 142.014 30.8 142.61C31.8 143.206 32.9 143.503 33.8 143.404L42.2 142.709C47.2 142.312 50.2 138.041 50.2 131.487L50.3 107.156C50.3 105.964 49.5 104.474 48.4 103.779C39.4 98.1186 34.5 91.1669 32.4 87.2938C32.1 86.5986 31.5 86.0028 31 85.7048Z" fill="#FB7070"/>
<path d="M30.9996 94.3449C31.1996 94.4442 31.3996 94.6428 31.4996 94.8414C33.8996 98.3173 37.6996 102.886 43.3996 107.057C43.7996 107.355 44.0996 107.95 44.0996 108.447V127.117C44.0996 131.288 42.0996 134.069 38.8996 134.268L31.6996 134.864C31.3996 134.864 31.0996 134.764 30.7996 134.665C30.4996 134.466 30.1996 134.268 29.8996 133.87L22.6996 125.032C19.4996 121.159 17.5996 116.094 17.5996 111.923V93.2525C17.5996 92.7559 17.8996 92.5573 18.2996 92.7559C23.9996 95.2387 27.7996 94.9407 30.1996 94.2456C30.5996 94.2456 30.7996 94.2456 30.9996 94.3449Z" fill="#FEE2E2"/>
<path d="M30.4992 19.8621L7.29922 33.1697C4.49922 34.7587 2.19922 38.6318 2.19922 41.909V58.4939C2.19922 61.6718 4.49922 62.9628 7.29922 61.3738L30.4992 48.0663C33.2992 46.4773 35.5992 42.6042 35.5992 39.327V22.7421C35.5992 19.5642 33.2992 18.2732 30.4992 19.8621Z" fill="#FB7070"/>
<path d="M24.3996 28.6015C23.5996 28.9987 22.9996 30.0911 22.9996 30.9849L23.0996 39.2277C23.0996 40.1215 23.6996 40.4194 24.4996 40.0221C25.2996 39.6249 25.8996 38.5325 25.8996 37.6387L25.7996 29.3959C25.7996 28.5021 25.1996 28.2042 24.3996 28.6015ZM18.8996 31.7794C18.0996 32.1766 17.4996 33.269 17.4996 34.1628L17.5996 42.4056C17.5996 43.2994 18.1996 43.5973 18.9996 43.2001C19.7996 42.8028 20.3996 41.7104 20.3996 40.8166L20.2996 32.5739C20.2996 31.6801 19.6996 31.2828 18.8996 31.7794ZM13.4996 34.858C12.6996 35.2552 12.0996 36.3477 12.0996 37.2415L12.1996 45.4842C12.1996 46.378 12.7996 46.6759 13.5996 46.2787C14.3996 45.8815 14.9996 44.789 14.9996 43.8952L14.8996 35.6525C14.8996 34.7587 14.1996 34.4608 13.4996 34.858ZM7.99961 38.0359C7.19961 38.4332 6.59961 39.5256 6.59961 40.4194L6.69961 54.9187C6.69961 55.8125 7.29961 56.1104 8.09961 55.7132C8.89961 55.3159 9.49961 54.2235 9.49961 53.3297L9.39961 38.8304C9.39961 37.9366 8.79961 37.5394 7.99961 38.0359ZM24.4996 43.1008C24.1996 43.2994 23.7996 43.5973 23.4996 44.0939C23.3996 44.2925 23.2996 44.4911 23.1996 44.789C23.0996 45.2856 23.0996 45.6828 23.1996 45.9808C23.2996 46.1794 23.3996 46.2787 23.4996 46.2787C23.6996 46.4773 24.0996 46.378 24.3996 46.1794C24.7996 45.9808 25.0996 45.5835 25.2996 45.1863C25.7996 44.2925 25.7996 43.2994 25.2996 43.0015C25.1996 42.9021 24.7996 42.9021 24.4996 43.1008ZM18.9996 46.2787C18.6996 46.4773 18.2996 46.7752 17.9996 47.2718C17.7996 47.669 17.5996 48.1656 17.5996 48.5628C17.5996 49.4566 18.1996 49.7546 18.8996 49.3573C19.2996 49.1587 19.5996 48.7615 19.7996 48.3642C20.2996 47.4704 20.2996 46.4773 19.7996 46.1794C19.6996 45.9808 19.3996 46.0801 18.9996 46.2787ZM13.5996 49.3573C13.2996 49.5559 12.8996 49.8539 12.5996 50.3504C12.3996 50.7477 12.1996 51.2442 12.1996 51.6415C12.1996 52.5352 12.7996 52.8332 13.4996 52.4359C13.8996 52.2373 14.1996 51.8401 14.3996 51.4428C14.4996 51.2442 14.5996 51.0456 14.6996 50.7477C14.7996 50.2511 14.7996 49.8539 14.6996 49.5559C14.5996 49.3573 14.4996 49.258 14.3996 49.258C14.2996 49.1587 13.8996 49.1587 13.5996 49.3573ZM29.8996 25.5228C29.0996 25.9201 28.4996 27.0125 28.4996 27.9063L28.5996 42.4056C28.5996 43.2994 29.1996 43.5973 29.9996 43.2001C30.7996 42.8028 31.3996 41.7104 31.3996 40.8166L31.2996 26.3173C31.1996 25.4235 30.5996 25.0263 29.8996 25.5228Z" fill="#FEE2E2"/>
</g>
<defs>
<clipPath id="clip0">
<rect width="144" height="144" fill="white"/>
</clipPath>
</defs>
</svg>
