<svg width="144" height="144" viewBox="0 0 144 144" fill="none" xmlns="http://www.w3.org/2000/svg">
<g clip-path="url(#clip0)">
<path d="M106.326 74.0457L141.102 53.9874C142.002 53.4885 143.101 54.0872 143.101 55.185L143.201 90.3118C143.201 92.2078 142.201 94.0041 140.503 95.002L106.426 114.661C104.727 115.659 102.729 115.659 101.03 114.661L67.1535 94.9022C65.4547 93.9043 64.4554 92.2078 64.4554 90.3118L64.3555 55.185C64.3555 54.187 65.4547 53.4885 66.3541 53.9874L100.83 73.9459C102.529 75.0436 104.628 75.0436 106.326 74.0457Z" fill="#FB7070"/>
<path d="M66.4558 54.0873L100.932 74.0457C102.631 75.0436 104.629 75.0436 106.328 74.0457L141.104 53.9875C142.003 53.4885 142.003 52.1912 141.104 51.6923L106.628 31.6341C104.929 30.6361 102.93 30.6361 101.232 31.6341L66.4558 51.6923C65.5564 52.1912 65.5564 53.4885 66.4558 54.0873Z" fill="#FEE2E2"/>
<path d="M64.4551 55.9833C64.4551 54.0873 65.4544 52.291 67.1532 51.2931L101.23 31.6341C102.928 30.6361 104.927 30.6361 106.626 31.6341L140.402 51.2931C142.101 52.291 143.1 53.9875 143.1 55.8835" stroke="#171A21" stroke-width="2" stroke-miterlimit="10" stroke-linecap="round" stroke-linejoin="round"/>
<path d="M115.519 37.3222C115.519 37.1226 115.519 36.923 115.419 36.7234V36.6236C115.419 36.424 115.319 36.2244 115.319 36.0249V35.9251C115.319 35.7255 115.219 35.5259 115.219 35.3263V35.2265C115.219 35.0269 115.12 34.8273 115.02 34.6278V34.528C114.92 34.3284 114.92 34.1288 114.82 33.9292C114.82 33.8294 114.82 33.8294 114.72 33.7296C114.62 33.53 114.62 33.3305 114.52 33.2307V33.1309C114.42 32.9313 114.32 32.7317 114.22 32.5321L114.12 32.4323C114.02 32.2328 113.92 32.133 113.82 31.9334C113.82 31.8336 113.721 31.8336 113.721 31.7338C113.621 31.5342 113.521 31.3346 113.321 31.135C113.221 30.9355 113.021 30.7359 112.921 30.5363C112.921 30.4365 112.821 30.4365 112.821 30.3367C112.721 30.2369 112.621 30.0373 112.521 29.9375C112.421 29.8377 112.421 29.738 112.321 29.6382C112.222 29.5384 112.122 29.4386 112.022 29.239C111.922 29.1392 111.922 29.0394 111.822 29.0394C111.722 28.9396 111.622 28.8398 111.522 28.6402C111.422 28.5404 111.422 28.4407 111.322 28.4407C111.222 28.3409 111.022 28.1413 110.922 28.0415C110.823 27.9417 110.823 27.9417 110.723 27.8419C110.523 27.6423 110.323 27.5425 110.123 27.3429C110.023 27.2431 110.023 27.2431 109.923 27.1434C109.823 27.0436 109.723 26.9438 109.623 26.844C109.523 26.7442 109.523 26.7442 109.424 26.6444C109.324 26.5446 109.224 26.4448 109.124 26.345C109.024 26.2452 109.024 26.2452 108.924 26.1454C108.824 26.0456 108.724 25.9458 108.524 25.8461C108.424 25.7463 108.424 25.7463 108.324 25.6465C108.224 25.5467 108.024 25.4469 107.925 25.3471C107.825 25.3471 107.825 25.2473 107.725 25.2473C107.525 25.1475 107.325 24.9479 107.125 24.8481L107.025 24.7483C106.825 24.6486 106.725 24.5488 106.526 24.449C106.226 24.2494 106.026 24.1496 105.726 23.95C105.726 23.95 105.626 23.95 105.626 23.8502C105.426 23.7504 105.126 23.5508 104.927 23.451C104.827 23.451 104.727 23.3513 104.627 23.3513C104.427 23.2515 104.227 23.1517 104.027 23.0519C103.927 22.9521 103.827 22.9521 103.727 22.8523C103.528 22.7525 103.328 22.6527 103.128 22.5529C103.028 22.5529 102.928 22.4531 102.828 22.4531C102.628 22.3533 102.328 22.2535 102.029 22.1538C101.929 22.1538 101.929 22.1538 101.829 22.054C101.529 21.9542 101.229 21.7546 100.929 21.6548C100.829 21.6548 100.73 21.555 100.63 21.555C100.43 21.4552 100.13 21.3554 99.9301 21.2556C99.8302 21.2556 99.7302 21.1558 99.6303 21.1558C99.4304 21.056 99.2306 21.056 99.0307 20.9562C98.9308 20.9562 98.8309 20.8565 98.7309 20.8565C98.3312 20.7567 97.8316 20.5571 97.4318 20.4573C97.3319 20.4573 97.232 20.4573 97.232 20.3575C96.7323 20.2577 96.3326 20.0581 95.8329 19.9583C95.3333 19.8585 94.8336 19.7587 94.4339 19.6589C94.334 19.6589 94.234 19.6589 94.1341 19.5592C93.6345 19.4594 93.2347 19.3596 92.7351 19.2598C92.6352 19.2598 92.4353 19.2598 92.3354 19.16C92.1355 19.16 91.9356 19.0602 91.7358 19.0602C91.5359 19.0602 91.436 18.9604 91.2361 18.9604C91.0363 18.9604 90.8364 18.8606 90.6365 18.8606C90.4367 18.8606 90.3368 18.8606 90.1369 18.7608C89.937 18.7608 89.7372 18.661 89.5373 18.661C89.3374 18.661 89.2375 18.661 89.0377 18.5612C88.8378 18.5612 88.6379 18.5612 88.4381 18.4614C88.3381 18.4614 88.1383 18.4614 88.0383 18.4614C87.5387 18.3616 86.9391 18.3616 86.4395 18.3616C86.3395 18.3616 86.2396 18.3616 86.1397 18.3616C85.64 18.3616 85.0404 18.2619 84.5408 18.2619C84.3409 18.2619 84.1411 18.2619 83.8413 18.2619C83.7413 18.2619 83.6414 18.2619 83.5415 18.2619C83.2417 18.2619 82.842 18.2619 82.5422 18.2619C82.0425 18.2619 81.4429 18.2619 80.9433 18.2619C80.6435 18.2619 80.4436 18.2619 80.1438 18.2619C79.844 18.2619 79.5443 18.2619 79.2445 18.2619C78.9447 18.2619 78.7448 18.2619 78.445 18.3616C78.1452 18.3616 77.8454 18.3616 77.5456 18.4614C77.2458 18.4614 77.046 18.4614 76.7462 18.5612C76.4464 18.5612 76.1466 18.661 75.8468 18.661C75.547 18.661 75.3472 18.7608 75.0474 18.7608C74.7476 18.7608 74.4478 18.8606 74.2479 18.8606C73.9481 18.8606 73.6483 18.9604 73.3486 18.9604C73.1487 18.9604 72.8489 19.0602 72.649 19.0602C72.3492 19.16 72.0495 19.16 71.7497 19.2598C71.5498 19.2598 71.25 19.3596 71.0501 19.3596C70.4506 19.4594 69.9509 19.5592 69.3513 19.7587H69.2514C68.7517 19.8585 68.2521 20.0581 67.7524 20.1579C67.3527 20.2577 66.953 20.3575 66.5533 20.5571C66.4533 20.5571 66.3534 20.6569 66.3534 20.6569C66.0536 20.7567 65.6539 20.8565 65.3541 20.9562C65.2542 20.9562 65.1542 21.056 64.9544 21.056C64.6546 21.1558 64.2549 21.2556 63.9551 21.4552C63.8551 21.4552 63.8551 21.4552 63.7552 21.555C63.4554 21.6548 63.2556 21.7546 62.9558 21.8544C62.7559 21.9542 62.5561 21.9542 62.3562 22.054C62.0564 22.1538 61.8565 22.2535 61.5567 22.3533C61.3569 22.4531 61.2569 22.4531 61.0571 22.5529C60.7573 22.6527 60.5574 22.8523 60.2576 22.9521C60.1577 23.0519 59.9579 23.0519 59.8579 23.1517C59.4582 23.3513 59.0585 23.5508 58.6588 23.7504C58.4589 23.8502 58.259 23.95 58.1591 24.0498C58.0592 24.0498 58.0592 24.1496 57.9592 24.1496C57.8593 24.2494 57.7594 24.2494 57.5595 24.3492C57.4596 24.3492 57.4596 24.449 57.3597 24.449C57.2597 24.5488 57.1598 24.5488 57.0599 24.6486C56.9599 24.6486 56.9599 24.7483 56.86 24.7483C56.7601 24.8481 56.6601 24.8481 56.5602 24.9479C56.4603 25.0477 56.4603 25.0477 56.3604 25.1475C56.1605 25.8461 56.0606 25.9459 55.9606 25.9459C55.8607 26.0456 55.8607 26.0456 55.7608 26.1454C55.6608 26.2452 55.5609 26.2452 55.461 26.345C55.361 26.4448 55.361 26.4448 55.2611 26.5446C55.1612 26.6444 55.0613 26.6444 54.9613 26.7442C54.8614 26.844 54.8614 26.844 54.7615 26.9438C54.6615 27.0436 54.5616 27.0436 54.5616 27.1434C54.4617 27.2431 54.4617 27.2431 54.3617 27.3429C54.2618 27.4427 54.1619 27.4427 54.1619 27.5425C54.0619 27.6423 54.0619 27.6423 53.962 27.7421C53.8621 27.8419 53.7622 27.8419 53.7622 27.9417C53.6622 28.0415 53.6622 28.0415 53.5623 28.1413C53.4624 28.2411 53.3624 28.2411 53.3624 28.3409C53.2625 28.4407 53.2625 28.4407 53.1626 28.5404C53.0626 28.6402 53.0626 28.74 52.9627 28.74C52.8628 28.8398 52.8628 28.8398 52.7628 28.9396C52.6629 29.0394 52.6629 29.1392 52.563 29.1392C52.563 29.239 52.4631 29.239 52.4631 29.3388C52.3631 29.4386 52.2632 29.5384 52.2632 29.6382L52.1633 29.7379C52.0633 29.8377 51.9634 30.0373 51.8635 30.1371C51.7635 30.2369 51.6636 30.4365 51.5637 30.5363L51.4638 30.6361C51.3638 30.7359 51.3638 30.8357 51.2639 30.9355C51.2639 31.0352 51.164 31.0352 51.164 31.135C51.064 31.2348 51.064 31.3346 50.9641 31.4344C50.9641 31.5342 50.8642 31.5342 50.8642 31.634C50.7642 31.7338 50.7642 31.8336 50.6643 31.9334C50.6643 32.0332 50.5644 32.0332 50.5644 32.133C50.5644 32.2328 50.4644 32.3325 50.4644 32.3325C50.4644 32.4323 50.3645 32.4323 50.3645 32.5321C50.3645 32.6319 50.2646 32.7317 50.2646 32.7317C50.2646 32.8315 50.1647 32.8315 50.1647 32.9313C50.1647 33.0311 50.0647 33.1309 50.0647 33.1309C50.0647 33.2307 49.9648 33.2307 49.9648 33.3305C49.9648 33.4303 49.8649 33.53 49.8649 33.53C49.8649 33.6298 49.7649 33.6298 49.7649 33.7296C49.7649 33.8294 49.665 33.9292 49.665 34.029C49.665 34.1288 49.5651 34.1288 49.5651 34.2286C49.5651 34.3284 49.4651 34.4282 49.4651 34.528C49.4651 34.6278 49.4651 34.6278 49.3652 34.7276C49.3652 34.8273 49.2653 34.9271 49.2653 35.0269C49.2653 35.1267 49.2653 35.1267 49.1653 35.2265C49.1653 35.3263 49.1653 35.4261 49.0654 35.5259C49.0654 35.6257 49.0654 35.6257 49.0654 35.7255C49.0654 35.8253 49.0654 35.9251 48.9655 36.0249C48.9655 36.1246 48.9655 36.1246 48.9655 36.2244C48.9655 36.3242 48.9655 36.424 48.8656 36.5238C48.8656 36.6236 48.8656 36.6236 48.8656 36.7234C48.8656 36.8232 48.8656 37.0228 48.7656 37.1226C48.7656 37.2224 48.7656 37.3221 48.7656 37.4219C48.7656 37.5217 48.7656 37.5217 48.7656 37.6215C48.7656 37.8211 48.7656 37.9209 48.7656 38.1205C48.7656 37.7213 48.7656 37.3222 48.7656 36.8232V36.3242C48.7656 35.8253 48.7656 35.2265 48.7656 34.7276V33.9292C48.7656 33.7296 48.7656 33.5301 48.7656 33.3305V32.5321C48.7656 31.9334 48.7656 31.3346 48.7656 30.7359V30.1371C48.7656 29.8377 48.7656 29.6382 48.7656 29.3388V27.7421C48.7656 27.5425 48.7656 27.3429 48.7656 27.2431V25.9459C48.7656 25.7463 48.7656 25.6465 48.7656 25.4469C48.7656 25.4469 48.7656 25.4469 48.7656 25.3471C48.7656 25.2473 48.7656 25.0477 48.7656 24.9479C48.7656 24.7483 48.7656 24.6486 48.8656 24.449C48.8656 24.3492 48.8656 24.3492 48.8656 24.2494C48.8656 24.1496 48.8656 24.0498 48.9655 23.95C48.9655 23.8502 48.9655 23.8502 48.9655 23.7504C48.9655 23.6506 48.9655 23.5508 49.0654 23.451C49.0654 23.3513 49.0654 23.3513 49.0654 23.2515C49.0654 23.1517 49.0654 23.0519 49.1653 22.9521C49.1653 22.8523 49.1653 22.8523 49.2653 22.7525C49.2653 22.6527 49.2653 22.5529 49.3652 22.4531C49.3652 22.3533 49.3652 22.3533 49.4651 22.2535C49.4651 22.1537 49.5651 22.054 49.5651 21.9542C49.5651 21.8544 49.5651 21.8544 49.665 21.7546C49.665 21.6548 49.7649 21.555 49.7649 21.4552C49.7649 21.3554 49.8649 21.3554 49.8649 21.2556C49.8649 21.1558 49.9648 21.056 49.9648 21.056C49.9648 20.9562 50.0647 20.9562 50.0647 20.8565C50.0647 20.7567 50.1647 20.6569 50.1647 20.6569C50.1647 20.5571 50.2646 20.5571 50.2646 20.4573C50.2646 20.3575 50.3645 20.2577 50.3645 20.2577C50.3645 20.1579 50.4644 20.1579 50.4644 20.0581C50.4644 19.9583 50.5644 19.8585 50.5644 19.8585C50.5644 19.7587 50.6643 19.7587 50.6643 19.6589C50.7642 19.5592 50.7642 19.4594 50.8642 19.3596C50.8642 19.2598 50.9641 19.2598 50.9641 19.16C51.064 19.0602 51.064 18.9604 51.164 18.8606C51.164 18.7608 51.2639 18.7608 51.2639 18.661C51.3638 18.5612 51.3638 18.4614 51.4638 18.3616L51.5637 18.2619C51.6636 18.1621 51.7635 17.9625 51.8635 17.8627C51.9634 17.7629 52.0633 17.5633 52.1633 17.4635L52.2632 17.3637C52.3631 17.2639 52.4631 17.1641 52.4631 17.0644C52.4631 16.9646 52.563 16.9646 52.563 16.8648C52.6629 16.765 52.6629 16.6652 52.7628 16.6652C52.8628 16.5654 52.8628 16.5654 52.9627 16.4656C53.0626 16.3658 53.0626 16.266 53.1626 16.266C53.2625 16.1662 53.2625 16.1662 53.3624 16.0664C53.4624 15.9666 53.4624 15.9666 53.5623 15.8668C53.6622 15.7671 53.6622 15.7671 53.7622 15.6673C53.8621 15.5675 53.962 15.5675 53.962 15.4677C54.0619 15.3679 54.0619 15.3679 54.1619 15.2681C54.2618 15.1683 54.3617 15.1683 54.3617 15.0685C54.4617 14.9687 54.4617 14.9687 54.5616 14.8689C54.6615 14.7691 54.7615 14.7691 54.7615 14.6693C54.8614 14.5696 54.8614 14.5696 54.9613 14.4698C55.0613 14.37 55.1612 14.37 55.2611 14.2702C55.361 14.1704 55.361 14.1704 55.461 14.0706C55.5609 13.9708 55.6608 13.9708 55.7608 13.871C55.8607 13.7712 55.8607 13.7712 55.9606 13.6714C56.0606 13.5716 56.1605 13.5716 56.2604 13.4718C56.3604 13.372 56.3604 13.372 56.4603 13.2723C56.5602 13.1725 56.6601 13.1725 56.7601 13.0727C56.86 13.0727 56.86 12.9729 56.9599 12.9729C57.0599 12.8731 57.1598 12.8731 57.2597 12.7733C57.3597 12.7733 57.3597 12.6735 57.4596 12.6735C57.5595 12.5737 57.6595 12.5737 57.8593 12.4739C57.9592 12.4739 57.9592 12.3741 58.0592 12.3741C58.259 12.2743 58.4589 12.1745 58.5588 12.0747C58.9585 11.8752 59.3583 11.6756 59.758 11.476C59.8579 11.3762 60.0578 11.3762 60.1577 11.2764C60.4575 11.1766 60.6574 10.977 60.9572 10.8772C61.157 10.7774 61.257 10.6777 61.4568 10.6777C61.7566 10.5779 61.9565 10.4781 62.2563 10.3783C62.4561 10.2785 62.656 10.1787 62.8558 10.1787C63.0557 10.0789 63.3555 9.97911 63.5554 9.87932C63.5554 9.87932 63.5554 9.87932 63.6553 9.87932C63.7552 9.87932 63.7552 9.87932 63.8551 9.77953C64.1549 9.67974 64.5547 9.48015 64.8545 9.38036C64.9544 9.38036 65.0543 9.28057 65.2542 9.28057C65.554 9.18078 65.9537 9.08098 66.2535 8.98119C66.3534 8.98119 66.4533 8.8814 66.4533 8.8814C66.8531 8.78161 67.1529 8.68182 67.5526 8.58202H67.6525C68.1522 8.48223 68.6518 8.28265 69.1515 8.18286H69.2514C69.7511 8.08306 70.3506 7.88348 70.9502 7.78369H71.0501C71.25 7.78369 71.4499 7.68389 71.6497 7.68389C71.9495 7.5841 72.2493 7.5841 72.5491 7.48431C72.749 7.48431 73.0488 7.38452 73.2486 7.38452C73.5484 7.38452 73.8482 7.28473 74.148 7.28473C74.2479 7.28473 74.2479 7.28473 74.3479 7.28473C74.4478 7.08514 74.6477 6.98535 74.9474 6.98535C75.2472 6.98535 75.4471 6.88556 75.7469 6.88556C76.0467 6.88556 76.3465 6.78577 76.6463 6.78577C76.9461 6.78577 77.1459 6.68597 77.4457 6.68597C77.5456 6.68597 77.5456 6.68597 77.6456 6.68597C77.8454 6.68597 78.1452 6.68597 78.3451 6.68597C78.6449 6.68597 78.8447 6.68597 79.1445 6.58618C79.4443 6.58618 79.7441 6.58618 80.0439 6.58618C80.3437 6.58618 80.5436 6.58618 80.8433 6.58618H80.9433C81.4429 6.58618 81.9426 6.58618 82.4422 6.58618C82.742 6.58618 83.1418 6.58618 83.4415 6.58618C83.5415 6.58618 83.6414 6.58618 83.7413 6.58618C83.9412 6.58618 84.1411 6.58618 84.3409 6.58618C84.9405 6.58618 85.4402 6.68597 85.9398 6.68597C86.0397 6.68597 86.1397 6.68597 86.2396 6.68597C86.7393 6.68597 87.3388 6.78577 87.8385 6.78577H87.9384C88.0384 6.78577 88.1383 6.78577 88.2382 6.78577C88.4381 6.78577 88.6379 6.78577 88.8378 6.88556C88.9377 6.98535 89.1376 6.98535 89.2375 6.98535C89.4374 6.98535 89.6372 6.98535 89.8371 7.08514C90.037 7.08514 90.1369 7.08514 90.3368 7.18493C90.5366 7.18493 90.7365 7.28473 90.9363 7.28473C91.1362 7.28473 91.2361 7.28473 91.436 7.38452C91.6359 7.38452 91.8357 7.48431 92.0356 7.48431C92.1355 7.48431 92.2354 7.48431 92.3354 7.48431H92.4353C92.935 7.5841 93.3347 7.6839 93.8343 7.78369C93.9343 7.78369 94.0342 7.78369 94.1341 7.88348C94.6338 7.98327 95.1334 8.08306 95.5331 8.18286C96.0328 8.28265 96.4325 8.38244 96.9322 8.58202C97.0321 8.58202 97.132 8.58202 97.132 8.68182C97.5318 8.68182 97.9315 8.8814 98.3312 8.98119H98.4311C98.5311 8.98119 98.5311 8.98119 98.631 9.08098C98.8309 9.18078 99.0307 9.18078 99.2306 9.28057C99.3305 9.28057 99.4304 9.38036 99.5304 9.38036C99.7302 9.48015 100.03 9.57994 100.23 9.67974C100.33 9.67974 100.43 9.77953 100.53 9.77953C100.829 9.87932 101.129 9.97911 101.429 10.1787C101.529 10.1787 101.529 10.1787 101.629 10.2785C101.929 10.3783 102.129 10.4781 102.428 10.5779C102.528 10.5779 102.628 10.6777 102.728 10.6777C102.928 10.7775 103.128 10.8772 103.328 10.977C103.428 11.0768 103.528 11.0768 103.628 11.1766C103.827 11.2764 104.027 11.3762 104.227 11.476C104.327 11.476 104.427 11.5758 104.527 11.5758C104.727 11.6756 105.027 11.8752 105.226 11.975C105.226 11.975 105.326 11.975 105.326 12.0747C105.626 12.2743 105.826 12.3741 106.126 12.5737C106.126 12.5737 106.126 12.5737 106.226 12.5737C106.426 12.6735 106.526 12.7733 106.625 12.8731L106.725 12.9729C106.925 13.0727 107.125 13.2723 107.325 13.372C107.425 13.372 107.425 13.4718 107.525 13.4718C107.625 13.5716 107.825 13.6714 107.925 13.7712C108.024 13.871 108.024 13.871 108.124 13.9708C108.224 14.0706 108.324 14.1704 108.524 14.2702C108.624 14.37 108.624 14.37 108.724 14.4698C108.824 14.5696 108.924 14.6693 109.024 14.7691C109.124 14.8689 109.124 14.8689 109.224 14.9687C109.324 15.0685 109.424 15.1683 109.523 15.2681L109.623 15.3679C109.823 15.5675 110.023 15.6673 110.123 15.8668C110.223 15.9666 110.223 15.9666 110.323 16.0664C110.423 16.1662 110.623 16.3658 110.723 16.4656C110.823 16.5654 110.823 16.6652 110.922 16.6652C111.022 16.765 111.122 16.8648 111.222 17.0644C111.322 17.1641 111.322 17.2639 111.422 17.2639C111.522 17.3637 111.622 17.4635 111.722 17.6631C111.822 17.7629 111.822 17.8627 111.922 17.9625C111.922 18.0623 112.022 18.0623 112.022 18.1621C112.122 18.2619 112.122 18.2619 112.222 18.3616C112.222 18.4614 112.321 18.4614 112.321 18.5612C112.421 18.7608 112.621 18.9604 112.721 19.16C112.821 19.3596 113.021 19.5592 113.121 19.7587C113.121 19.8585 113.221 19.8585 113.221 19.9583C113.221 20.0581 113.321 20.1579 113.321 20.1579C113.321 20.2577 113.421 20.3575 113.421 20.3575L113.521 20.4573C113.621 20.6569 113.721 20.8565 113.82 21.056V21.1558C113.92 21.3554 114.02 21.555 114.02 21.6548C114.02 21.7546 114.02 21.7546 114.12 21.8544V21.9542C114.22 22.1537 114.22 22.2535 114.32 22.4531V22.5529C114.42 22.7525 114.42 22.9521 114.52 23.1517V23.2515C114.52 23.451 114.62 23.6506 114.62 23.8502C114.62 23.8502 114.62 23.8502 114.62 23.95V24.0498C114.62 24.2494 114.72 24.449 114.72 24.6486V24.7483C114.72 24.9479 114.72 25.1475 114.82 25.3471V25.4469C114.82 25.5467 114.82 25.6465 114.82 25.7463C114.82 25.8461 114.82 26.0456 114.82 26.1454V38.3201C114.82 38.1205 114.82 37.9209 114.82 37.6215C115.519 37.4219 115.519 37.4219 115.519 37.3222Z" fill="#FB7070"/>
<path d="M40.3724 26.2452C40.3724 26.4448 40.3724 26.6444 40.3724 26.844V26.9438C40.3724 27.1434 40.3724 27.2432 40.3724 27.4427C40.3724 27.5425 40.3724 27.5425 40.3724 27.6423C40.3724 27.7421 40.3724 27.8419 40.3724 28.0415C40.3724 28.1413 40.3724 28.2411 40.3724 28.2411C40.3724 28.3409 40.3724 28.4407 40.4723 28.5405C40.4723 28.6402 40.4723 28.74 40.4723 28.74C40.4723 28.8398 40.4723 28.9396 40.5722 29.0394C40.5722 29.1392 40.5722 29.239 40.6722 29.239C40.6722 29.3388 40.7721 29.4386 40.7721 29.5384C40.7721 29.6382 40.7721 29.738 40.872 29.738C40.872 29.8378 40.972 29.9375 40.972 30.0373C40.972 30.1371 40.972 30.2369 41.0719 30.2369C41.0719 30.3367 41.1718 30.4365 41.1718 30.5363C41.1718 30.6361 41.1718 30.6361 41.2718 30.7359C41.3717 30.9355 41.3717 31.135 41.4716 31.2348C41.5715 31.4344 41.6715 31.634 41.6715 31.8336C41.6715 31.9334 41.7714 31.9334 41.7714 32.0332C41.8713 32.133 41.8713 32.3326 41.9713 32.4323C41.9713 32.5321 42.0712 32.5321 42.0712 32.6319C42.1711 32.7317 42.1711 32.8315 42.2711 32.9313C42.2711 33.0311 42.371 33.0311 42.371 33.1309C42.4709 33.2307 42.5709 33.4303 42.5709 33.5301C42.5709 33.6299 42.6708 33.6299 42.6708 33.7296C42.7707 33.9292 42.8706 34.1288 43.0705 34.3284C43.0705 34.3284 43.0705 34.4282 43.1704 34.4282C43.2704 34.6278 43.3703 34.7276 43.4702 34.9271C43.4702 35.0269 43.5702 35.0269 43.5702 35.1267C43.6701 35.2265 43.77 35.4261 43.87 35.5259C43.87 35.6257 43.9699 35.6257 43.9699 35.7255C44.1697 35.9251 44.2697 36.1247 44.4695 36.3242L44.5695 36.424C44.7693 36.6236 44.8693 36.8232 45.0691 36.923L45.169 37.0228C45.3689 37.2224 45.5688 37.422 45.7686 37.6215L45.8686 37.7213C46.0684 37.9209 46.2683 38.1205 46.3682 38.2203L46.4681 38.3201C46.668 38.5197 46.8679 38.7192 47.0677 38.9188L47.1677 39.0186C47.3675 39.2182 47.5674 39.4178 47.7672 39.5176C47.7672 39.5176 47.8672 39.5176 47.8672 39.6174C48.067 39.817 48.3668 40.0165 48.5667 40.2161C48.6666 40.2161 48.6666 40.3159 48.7665 40.3159C48.9664 40.5155 49.2662 40.7151 49.566 40.9147C49.8658 41.1143 50.1656 41.3138 50.4654 41.5134C50.5653 41.5134 50.5653 41.6132 50.6652 41.6132C50.965 41.8128 51.2648 42.0124 51.5646 42.212C51.6645 42.212 51.6645 42.3118 51.7645 42.3118C51.9643 42.4116 52.1642 42.5113 52.3641 42.6111C52.464 42.7109 52.5639 42.7109 52.6638 42.8107C52.8637 42.9105 52.9636 43.0103 53.1635 43.1101C53.2634 43.2099 53.3634 43.2099 53.4633 43.3097C53.6631 43.4095 53.863 43.5093 54.0629 43.6091C54.1628 43.6091 54.2627 43.7089 54.3627 43.7089C54.6625 43.8086 54.9622 44.0082 55.1621 44.108C55.6618 44.3076 56.1614 44.607 56.6611 44.8066C56.8609 44.9064 56.9609 44.9064 57.1607 45.0061C57.4605 45.1059 57.8602 45.3055 58.16 45.4053C58.3599 45.5051 58.5597 45.6049 58.7596 45.6049C59.0594 45.7047 59.3592 45.8045 59.659 46.0041C59.8588 46.1039 60.0587 46.2037 60.3585 46.2037C60.6583 46.3034 60.9581 46.4032 61.2579 46.503C61.4577 46.6028 61.6576 46.6028 61.9574 46.7026C62.3571 46.8024 62.6569 46.9022 63.0566 47.002C63.2565 47.1018 63.4563 47.1018 63.7561 47.2016C64.1559 47.3014 64.5556 47.4012 64.9553 47.501C65.1552 47.6007 65.355 47.6007 65.5549 47.7005C66.0545 47.8003 66.6541 47.9999 67.1538 48.0997C67.2537 48.0997 67.2537 48.0997 67.3536 48.1995C67.9532 48.2993 68.5528 48.4989 69.2523 48.5987C69.752 48.6985 70.2516 48.7983 70.7513 48.898C70.8512 48.898 70.9511 48.898 71.0511 48.898C71.4508 48.9978 71.9505 48.9978 72.3502 49.0976C72.55 49.0976 72.65 49.0976 72.8498 49.1974C73.2495 49.2972 73.6493 49.2972 74.049 49.2972C74.1489 49.2972 74.3488 49.2972 74.4487 49.2972C74.9484 49.397 75.448 49.397 76.0476 49.397C76.1475 49.397 76.2475 49.397 76.3474 49.397C76.8471 49.397 77.3467 49.4968 77.8464 49.4968H77.9463C78.4459 49.4968 79.0455 49.5966 79.5452 49.5966C79.6451 49.5966 79.845 49.5966 79.9449 49.5966C80.5445 49.5966 81.0441 49.5966 81.6437 49.5966C82.3432 49.5966 82.9428 49.5966 83.6423 49.5966C83.9421 49.5966 84.2419 49.5966 84.6416 49.5966C85.0414 49.5966 85.4411 49.5966 85.7409 49.5966C86.0407 49.5966 86.3405 49.5966 86.7402 49.4968C87.1399 49.4968 87.4397 49.4968 87.8394 49.397C88.1392 49.397 88.5389 49.2972 88.8387 49.2972C89.2384 49.2972 89.5382 49.1974 89.938 49.1974C90.2378 49.1974 90.6375 49.0976 90.9373 49.0976C91.2371 49.0976 91.6368 48.9978 91.9366 48.9978C92.3363 48.898 92.736 48.898 93.0358 48.7983C93.3356 48.7983 93.6354 48.6985 93.9352 48.6985C94.3349 48.5987 94.7346 48.5987 95.0344 48.4989C95.3342 48.3991 95.634 48.3991 95.9338 48.2993C96.0337 48.2993 96.1337 48.2993 96.2336 48.1995C96.8332 48.0997 97.3328 47.9999 97.9324 47.8003H98.0323C98.6319 47.7005 99.1316 47.501 99.7312 47.4012C99.8311 47.4012 99.931 47.3014 100.031 47.3014C100.531 47.1018 101.13 47.002 101.63 46.8024C101.73 46.8024 101.83 46.7026 101.93 46.7026C102.329 46.6028 102.829 46.4032 103.229 46.3034C103.429 46.2037 103.529 46.2037 103.728 46.1039C104.128 45.9043 104.628 45.8045 105.027 45.6049C105.127 45.6049 105.227 45.5051 105.327 45.5051C105.627 45.4053 105.927 45.2057 106.227 45.1059C106.427 45.0062 106.726 44.9064 106.926 44.8066C107.226 44.7068 107.526 44.5072 107.826 44.4074C108.025 44.3076 108.225 44.2078 108.425 44.108C108.725 43.9084 109.125 43.8086 109.424 43.6091C109.624 43.5093 109.724 43.4095 109.924 43.3097C110.424 43.0103 110.923 42.8107 111.323 42.5113C118.918 38.1205 123.615 32.133 123.715 25.4469V37.6215C123.615 44.3076 118.918 50.2951 111.323 54.686C110.823 54.9854 110.324 55.1849 109.924 55.4843C109.724 55.5841 109.624 55.6839 109.424 55.6839C109.125 55.8835 108.725 55.9833 108.425 56.1829C108.225 56.2827 108.025 56.3824 107.826 56.4822C107.526 56.582 107.226 56.7816 106.926 56.8814C106.726 56.9812 106.427 57.081 106.227 57.1808C105.927 57.2806 105.627 57.3804 105.327 57.58H105.227C105.127 57.58 105.027 57.6797 104.928 57.6797C104.528 57.8793 104.128 57.9791 103.628 58.1787C103.529 58.2785 103.329 58.2785 103.229 58.3783C102.829 58.4781 102.329 58.6777 101.93 58.7775C101.83 58.7775 101.73 58.8773 101.63 58.8773C101.13 58.977 100.73 59.1766 100.231 59.2764C100.131 59.2764 100.031 59.2764 100.031 59.3762C99.931 59.3762 99.8311 59.476 99.7312 59.476C99.2315 59.5758 98.6319 59.7754 98.0323 59.8752H97.9324C97.3328 59.975 96.8332 60.1746 96.2336 60.2743C96.1337 60.2743 96.0337 60.2743 95.9338 60.3741C95.8339 60.3741 95.8339 60.3741 95.7339 60.3741C95.5341 60.3741 95.2343 60.4739 95.0344 60.4739C94.6347 60.5737 94.235 60.5737 93.9352 60.6735C93.6354 60.7733 93.3356 60.7733 93.0358 60.7733C92.6361 60.8731 92.2364 60.8731 91.9366 60.9729C91.8366 60.9729 91.8366 60.9729 91.7367 60.9729C91.4369 60.9729 91.2371 61.0727 90.9373 61.0727C90.6375 61.0727 90.3377 61.1725 89.938 61.1725C89.5382 61.1725 89.2384 61.2723 88.8387 61.2723C88.5389 61.2723 88.1392 61.3721 87.8394 61.3721C87.7395 61.3721 87.7395 61.3721 87.6396 61.3721C87.3398 61.3721 87.04 61.3721 86.7402 61.4718C86.4404 61.4718 86.1406 61.4718 85.7409 61.5716C85.3412 61.5716 84.9414 61.5716 84.6416 61.5716C84.3418 61.5716 84.0421 61.5716 83.6423 61.5716C83.5424 61.5716 83.5424 61.5716 83.4425 61.5716C82.8429 61.5716 82.2433 61.5716 81.6437 61.5716C81.0441 61.5716 80.5445 61.5716 79.9449 61.5716C79.845 61.5716 79.6451 61.5716 79.5452 61.5716C79.4452 61.5716 79.2454 61.5716 79.1455 61.5716C78.7457 61.5716 78.346 61.5716 77.9463 61.4718H77.8464C77.3467 61.4718 76.8471 61.3721 76.3474 61.3721C76.2475 61.3721 76.1475 61.3721 76.0476 61.3721C75.548 61.3721 75.1482 61.2723 74.6486 61.2723C74.5486 61.2723 74.5486 61.2723 74.4487 61.2723C74.3488 61.2723 74.1489 61.2723 74.049 61.2723C73.6493 61.2723 73.2495 61.1725 72.8498 61.1725C72.65 61.1725 72.55 61.1725 72.3502 61.0727C71.9505 60.9729 71.4508 60.9729 71.0511 60.8731C70.9511 60.8731 70.8512 60.8731 70.7513 60.8731C70.2516 60.7733 69.8519 60.6735 69.3523 60.6735H69.2523C68.6527 60.5737 67.9532 60.4739 67.3536 60.2743C67.2537 60.2743 67.2537 60.2743 67.1538 60.1745C66.6541 60.0748 66.0545 59.975 65.5549 59.7754C65.355 59.6756 65.1552 59.6756 64.9553 59.5758C64.5556 59.476 64.1559 59.3762 63.7561 59.2764C63.5563 59.1766 63.3564 59.1766 63.0566 59.0768C62.6569 58.977 62.3571 58.8773 61.9574 58.7775C61.8575 58.7775 61.6576 58.6777 61.5577 58.6777C61.4577 58.6777 61.3578 58.5779 61.2579 58.5779C60.9581 58.4781 60.6583 58.3783 60.3585 58.2785C60.1586 58.1787 59.9588 58.0789 59.659 58.0789C59.3592 57.9791 59.0594 57.8793 58.7596 57.6797C58.5597 57.58 58.3599 57.4802 58.16 57.4802C57.8602 57.3804 57.4605 57.1808 57.1607 57.081C56.9609 56.9812 56.8609 56.9812 56.6611 56.8814C56.1614 56.6818 55.6618 56.4822 55.1621 56.1829C54.8623 56.0831 54.5625 55.8835 54.3627 55.7837C54.2627 55.7837 54.1628 55.6839 54.0629 55.6839C53.863 55.5841 53.6631 55.4843 53.4633 55.3845C53.3634 55.2847 53.2634 55.2847 53.1635 55.1849C52.9636 55.0852 52.7638 54.9854 52.6638 54.8856C52.5639 54.7858 52.464 54.7858 52.3641 54.686C52.1642 54.5862 51.9643 54.4864 51.7645 54.3866C51.7645 54.3866 51.6645 54.2868 51.5646 54.2868C51.2648 54.0872 50.965 53.8876 50.6652 53.6881C50.5653 53.6881 50.5653 53.5883 50.4654 53.5883C50.1656 53.3887 49.8658 53.1891 49.566 52.9895C49.2662 52.7899 49.0663 52.5904 48.7665 52.3908C48.6666 52.3908 48.6666 52.291 48.5667 52.291C48.4668 52.1912 48.3668 52.0914 48.167 51.9916V59.975L42.6708 56.7816V46.1039C42.5709 46.0041 42.4709 45.8045 42.371 45.7047C42.371 45.6049 42.2711 45.6049 42.2711 45.5051C42.1711 45.4053 42.0712 45.2057 42.0712 45.1059C42.0712 45.1059 42.0712 45.0061 41.9713 45.0061C41.9713 45.0061 41.9713 44.9064 41.8713 44.9064C41.7714 44.8066 41.7714 44.7068 41.6715 44.607C41.6715 44.5072 41.5715 44.5072 41.5715 44.4074C41.4716 44.3076 41.4716 44.108 41.3717 44.0082C41.3717 43.9084 41.2718 43.9084 41.2718 43.8086C41.1718 43.6091 41.0719 43.4095 41.0719 43.2099C40.972 43.0103 40.972 42.8107 40.872 42.7109C40.872 42.6111 40.872 42.6111 40.7721 42.5113C40.7721 42.4116 40.6722 42.3118 40.6722 42.212C40.6722 42.1122 40.6722 42.0124 40.5722 42.0124C40.5722 41.9126 40.4723 41.8128 40.4723 41.713C40.4723 41.6132 40.4723 41.5134 40.3724 41.5134C40.3724 41.4136 40.2724 41.3138 40.2724 41.2141C40.2724 41.1143 40.2724 41.0145 40.1725 41.0145C40.1725 40.9147 40.1725 40.8149 40.0726 40.7151V40.6153V40.5155C40.0726 40.4157 40.0726 40.3159 39.9727 40.2161C39.9727 40.1163 39.9727 40.0165 39.9727 40.0165C39.9727 39.9168 39.9727 39.817 39.9727 39.6174C39.9727 39.5176 39.9727 39.5176 39.9727 39.4178C39.9727 39.2182 39.9727 39.1184 39.9727 38.9188V38.819C39.9727 38.6195 39.9727 38.4199 39.9727 38.2203C39.9727 38.0207 39.9727 37.9209 39.9727 37.7213V25.5467C40.2724 25.9459 40.2724 26.1454 40.3724 26.2452Z" fill="#FB7070"/>
<path d="M88.0396 61.9707C87.9396 61.9707 87.9396 61.9707 87.8397 61.9707C87.5399 61.9707 87.2401 61.9708 86.9403 62.0705C86.6405 62.0705 86.3407 62.0705 85.941 62.1703C85.5413 62.1703 85.1416 62.1703 84.8418 62.1703C84.542 62.1703 84.2422 62.1703 83.8425 62.1703C83.7426 62.1703 83.7425 62.1703 83.6426 62.1703C83.043 62.1703 82.4435 62.1703 81.8439 62.1703C81.2443 62.1703 80.7446 62.1703 80.145 62.1703C80.0451 62.1703 79.8453 62.1703 79.7453 62.1703C79.6454 62.1703 79.4455 62.1703 79.3456 62.1703C78.9459 62.1703 78.5462 62.1703 78.1464 62.0705H78.0465C77.5469 62.0705 77.0472 61.9707 76.5475 61.9707C76.4476 61.9707 76.3477 61.9707 76.2478 61.9707C75.7481 61.9707 75.3484 61.871 74.8487 61.871C74.7488 61.871 74.7488 61.871 74.6489 61.871C74.5489 61.871 74.3491 61.871 74.2491 61.871C73.8494 61.871 73.4497 61.7712 73.05 61.7712C72.8501 61.7712 72.7502 61.7712 72.5503 61.6714C72.1506 61.5716 71.6509 61.5716 71.2512 61.4718C71.1513 61.4718 71.0514 61.4718 70.9514 61.4718C70.4518 61.372 70.0521 61.2722 69.5524 61.2722H69.4525C68.8529 61.1724 68.1534 61.0726 67.5538 60.873C67.4539 60.873 67.4539 60.873 67.3539 60.7732C66.8543 60.6735 66.2547 60.5737 65.755 60.3741C65.5552 60.2743 65.3553 60.2743 65.1555 60.1745C64.7557 60.0747 64.356 59.9749 63.9563 59.8751C63.7564 59.7753 63.5566 59.7753 63.2568 59.6755C62.857 59.5757 62.5573 59.4759 62.1575 59.3762C62.0576 59.3762 61.8577 59.2764 61.7578 59.2764" stroke="#171A21" stroke-width="2" stroke-miterlimit="10" stroke-linecap="round" stroke-linejoin="round"/>
<path d="M48.4668 48.2994V60.474L55.2621 56.5821V44.4075L48.4668 48.2994Z" fill="#FB7070"/>
<path d="M82.2423 1.69641C70.6504 1.69641 60.2576 4.29101 52.6629 8.68186C45.0682 13.0727 40.3714 19.0602 40.2715 25.7463C40.2715 31.634 43.7691 37.0228 49.7649 41.2141C51.4637 42.4116 53.2625 43.4095 55.2611 44.4074C62.4561 47.9002 71.7496 49.9958 81.8426 49.9958C93.4346 49.9958 103.827 47.4012 111.422 43.0103C119.017 38.6195 123.714 32.632 123.813 25.9459C124.013 12.5737 105.426 1.7962 82.2423 1.69641ZM105.626 39.6174C99.5303 43.1101 91.1362 45.2058 81.9425 45.2058C63.4554 45.2058 48.5657 36.4241 48.6657 25.7463C48.6657 20.4573 52.463 15.5675 58.5588 12.0748C64.6545 8.58207 73.0487 6.48643 82.2423 6.48643C100.729 6.48643 115.619 15.2681 115.519 25.9459C115.419 31.3347 111.722 36.1247 105.626 39.6174Z" fill="white"/>
<path d="M122.914 31.0353C123.513 29.4386 123.813 27.7422 123.913 25.9459C124.013 12.5738 105.426 1.69641 82.3419 1.69641C70.75 1.69641 60.3572 4.29101 52.7625 8.68186C45.1678 13.0727 40.471 19.0602 40.3711 25.7463C40.3711 27.5426 40.6709 29.3388 41.3704 31.0353M115.519 25.9459C115.519 31.2349 111.722 36.1247 105.626 39.6174C99.53 43.1101 91.1358 45.2058 81.9422 45.2058C63.4551 45.2058 48.5654 36.4241 48.6653 25.7463" stroke="#171A21" stroke-width="2" stroke-miterlimit="10" stroke-linecap="round" stroke-linejoin="round"/>
<path d="M42.9688 45.106L48.4649 48.2994L55.2602 44.4075C53.2616 43.4095 51.4628 42.4116 49.764 41.2141L42.9688 45.106Z" fill="white"/>
<path d="M1 66.7608C1 66.8606 1 66.8606 1 66.9604V67.0602C1 67.16 1 67.16 1 67.2598V67.3596C1 67.4593 1 67.4593 1 67.4593V67.5591C1 67.6589 1 67.6589 1 67.6589V67.7587C1 67.7587 1 67.8585 1.09993 67.8585C1.09993 67.8585 1.09993 67.9583 1.19986 67.9583C1.19986 67.9583 1.19986 68.0581 1.29979 68.0581C1.29979 68.0581 1.29979 68.1579 1.39972 68.1579C1.39972 68.1579 1.39972 68.2577 1.49965 68.2577C1.49965 68.3575 1.59958 68.3575 1.59958 68.4573L1.69951 68.5571C1.69951 68.6568 1.79944 68.6568 1.79944 68.7566L1.89938 68.8564C1.99931 69.1558 1.99931 69.2556 2.09924 69.3554C2.09924 69.3554 2.09924 69.3554 2.19917 69.4552C2.2991 69.555 2.39903 69.6548 2.49896 69.7546L2.59889 69.8544H2.69882L2.79875 69.9541C2.89868 69.9541 2.89868 70.0539 2.99861 70.0539L3.09854 70.1537C3.19847 70.1537 3.19847 70.2535 3.2984 70.2535L3.39833 70.3533C3.49827 70.3533 3.49827 70.4531 3.5982 70.4531L3.69813 70.5529C3.79806 70.6527 3.99792 70.7525 4.19778 70.8523H4.29771C4.39764 70.9521 4.5975 70.9521 4.69743 71.0519H4.79736C4.99722 71.1516 5.09716 71.1517 5.29702 71.2514H5.39695C5.59681 71.3512 5.69674 71.3512 5.8966 71.451C5.8966 71.451 5.8966 71.451 5.99653 71.451C6.29632 71.5508 6.59611 71.6506 6.89591 71.7504C7.1957 71.8502 7.49549 71.8502 7.79528 71.95H7.89521C7.99514 71.95 8.195 72.0498 8.29493 72.0498C8.39486 72.0498 8.39486 72.0498 8.4948 72.0498C8.59473 72.0498 8.79459 72.0498 8.89452 72.1496H8.99445C9.29424 72.1496 9.59403 72.2494 9.99375 72.2494C9.99375 72.2494 9.99375 72.2494 10.0937 72.2494C10.2935 72.2494 10.4934 72.2494 10.5933 72.2494C10.8931 72.2494 11.093 72.2494 11.3928 72.2494C11.5926 72.2494 11.6926 72.2494 11.8924 72.2494C12.0923 72.2494 12.1922 72.2494 12.3921 72.2494C12.5919 72.2494 12.6919 72.2494 12.8917 72.1496C13.0916 72.1496 13.1915 72.1496 13.3914 72.0498C13.5913 72.0498 13.6912 71.95 13.891 71.95C14.0909 71.95 14.3907 71.8502 14.5906 71.7504C14.7904 71.6506 15.0902 71.6506 15.2901 71.5508C15.39 71.5508 15.39 71.5508 15.4899 71.451C15.7897 71.3512 15.9896 71.2514 16.2894 71.1517C16.4892 71.0519 16.6891 70.9521 16.789 70.9521C16.889 70.9521 16.9889 70.8523 17.0888 70.8523C17.3886 70.7525 17.5885 70.5529 17.8883 70.4531L49.2665 50.8939C49.8661 50.5945 50.0659 50.1953 50.0659 49.7961V61.9708C50.0659 62.3699 49.7661 62.7691 49.2665 63.0685L17.9882 82.8273C17.7883 82.9271 17.4886 83.1267 17.1888 83.2265C17.0888 83.2265 16.9889 83.3263 16.889 83.3263C16.6891 83.4261 16.4892 83.5259 16.3893 83.5259C16.1895 83.6257 15.8897 83.7255 15.6898 83.8252C15.5899 83.8252 15.5899 83.8252 15.4899 83.925C15.39 83.925 15.2901 84.0248 15.1901 84.0248C15.0902 84.0248 14.8904 84.1246 14.7904 84.1246C14.5906 84.1246 14.3907 84.2244 14.1908 84.2244C14.0909 84.2244 14.0909 84.2244 13.991 84.2244C13.7911 84.2244 13.6912 84.3242 13.4913 84.3242C13.3914 84.3242 13.2915 84.3242 13.1915 84.424C13.0916 84.424 13.0916 84.424 12.9917 84.424C12.7918 84.424 12.6919 84.424 12.492 84.5238C12.3921 84.5238 12.2922 84.5238 12.1922 84.5238C12.0923 84.5238 12.0923 84.5238 11.9924 84.5238C11.7925 84.5238 11.6926 84.5238 11.4927 84.5238C11.3928 84.5238 11.2929 84.5238 11.1929 84.5238C11.093 84.5238 10.8931 84.5238 10.7932 84.5238C10.5933 84.5238 10.3935 84.5238 10.2935 84.5238C9.99375 84.5238 9.69396 84.5238 9.29424 84.424H9.19431C9.09438 84.424 8.89452 84.424 8.79459 84.3242C8.69466 84.3242 8.69466 84.3242 8.59473 84.3242C8.39487 84.3242 8.29493 84.3242 8.195 84.2244H8.09507C7.79528 84.1246 7.49549 84.1246 7.1957 84.0248C6.89591 83.925 6.59611 83.8252 6.29632 83.7255C6.29632 83.7255 6.29632 83.7255 6.19639 83.7255C5.99653 83.6257 5.8966 83.6257 5.69674 83.5259H5.59681C5.39695 83.4261 5.19709 83.4261 5.09715 83.3263H4.99722C4.79736 83.2265 4.69743 83.2265 4.5975 83.1267H4.49757C4.29771 83.0269 4.19778 82.9271 3.99792 82.8273C3.99792 82.8273 3.89799 82.8273 3.89799 82.7275C3.79806 82.7275 3.79806 82.6277 3.69813 82.6277L3.5982 82.5279C3.49827 82.5279 3.49827 82.4282 3.39833 82.4282L3.2984 82.3284C3.19847 82.3284 3.19847 82.2286 3.09854 82.2286L2.99861 82.1288C2.89868 82.1288 2.89868 82.029 2.79875 82.029C2.79875 82.029 2.69882 82.029 2.69882 81.9292C2.59889 81.8294 2.49896 81.7296 2.39903 81.6298C2.39903 81.6298 2.39903 81.6298 2.2991 81.53C1.99931 81.4302 1.99931 81.3304 1.89938 81.2307C1.89938 81.2307 1.89938 81.2307 1.89938 81.1309C1.89938 81.0311 1.79944 81.0311 1.79944 80.9313L1.69951 80.8315C1.69951 80.7317 1.59958 80.7317 1.59958 80.6319V80.5321C1.59958 80.5321 1.59958 80.4323 1.49965 80.4323C1.49965 80.4323 1.49965 80.3325 1.39972 80.3325C1.39972 80.3325 1.39972 80.2327 1.29979 80.2327V80.1329V80.0331V79.9334V79.8336V79.7338V79.634C1.29979 79.5342 1.29979 79.5342 1.29979 79.4344V79.3346V79.2348V79.135L1 66.7608Z" fill="#FB7070"/>
<path d="M3.69813 62.9687C1.99931 63.8668 1 65.3637 1 66.7608C1 69.8544 5.39695 72.4489 10.6933 72.4489C13.4913 72.4489 15.9896 71.8502 17.9882 70.6527L49.3664 51.0934C50.4656 50.4947 50.4656 49.4968 49.3664 48.7982L42.1714 44.607C41.0722 44.0082 39.3734 43.9084 38.2741 44.607L4.09785 62.6693C3.99792 62.7691 3.79806 62.8689 3.69813 62.9687Z" fill="#FEE2E2"/>
<path d="M49.3664 48.7982L42.1714 44.607C41.0722 44.0082 39.3734 43.9084 38.2741 44.607L4.09785 62.6693C3.99792 62.7691 3.79806 62.8689 3.69813 62.9687C1.99931 63.8668 1 65.3637 1 66.7608" stroke="#171A21" stroke-width="2" stroke-miterlimit="10" stroke-linecap="round" stroke-linejoin="round"/>
<path d="M16.289 124.141L47.6672 142.304C49.1662 143.202 51.0649 143.202 52.5638 142.304L84.1419 124.042C84.9414 123.543 84.9414 122.445 84.1419 121.946L52.7637 103.784C51.2647 102.886 49.3661 102.886 47.8671 103.784L16.289 122.046C15.4896 122.545 15.4896 123.742 16.289 124.141Z" fill="#FEE2E2" stroke="#171A21" stroke-width="2" stroke-miterlimit="10" stroke-linecap="round" stroke-linejoin="round"/>
<path d="M69.1532 121.746C68.4537 121.347 67.5543 121.148 66.555 121.148H46.6688C46.1692 121.148 45.7695 121.048 45.3697 120.848C45.0699 120.649 44.8701 120.449 44.8701 120.15L44.7702 117.056C44.7702 116.457 44.3704 115.958 43.6709 115.559C42.9714 115.16 42.072 114.961 41.0727 114.961C38.9742 114.961 37.2754 115.958 37.3753 117.156L37.4752 123.443C37.4752 124.042 37.8749 124.541 38.5745 124.94C39.274 125.339 40.1733 125.539 41.1727 125.539H66.555C68.6536 125.539 70.2525 124.541 70.2525 123.343C70.2525 122.645 69.8527 122.146 69.1532 121.746Z" fill="#FB7070"/>
</g>
<defs>
<clipPath id="clip0">
<rect width="144" height="144" fill="white"/>
</clipPath>
</defs>
</svg>
