<svg width="30" height="30" viewBox="0 0 30 30" fill="none" xmlns="http://www.w3.org/2000/svg">
<g clip-path="url(#clip0)">
<path d="M1.6402 8.17425C4.09268 3.38394 8.93517 0.258121 14.2932 0.015871C14.2932 0.015871 14.2932 0.015871 14.301 0.015871H14.3088C14.3088 0.015871 14.3166 0.015871 14.3244 0.015871C14.34 0.015871 14.3634 0.015871 14.3791 0.015871C14.5821 0.000242233 14.793 0.000242233 15.0039 0.000242233C19.1513 0.000242233 23.1502 1.74289 25.9776 4.77493C27.5944 6.50975 28.7972 8.6353 29.4376 10.9171C29.8125 12.2456 30 13.621 30 15.012C30 15.473 29.9766 15.9185 29.9375 16.3717C29.6641 19.3725 28.516 22.1857 26.6103 24.5144C23.736 27.9997 19.5027 30.0002 14.9961 30.0002C7.75579 30.0002 1.56209 24.8427 0.257745 17.7392V17.7314V17.7236C0.0859151 16.8406 0 15.9263 0 14.9963C0 14.3008 0.0468628 13.6132 0.140588 12.9567C0.359281 11.2922 0.866962 9.68245 1.6402 8.17425ZM7.81047 11.8705C7.9823 11.8705 8.12288 11.7299 8.12288 11.5579V10.3076C8.12288 10.1357 7.9823 9.99503 7.81047 9.99503H3.53814C3.07732 11.05 2.77272 12.1518 2.61651 13.3006C2.5384 13.8554 2.49935 14.4259 2.49935 14.9963C2.49935 15.4183 2.52278 15.8403 2.56183 16.2467H4.68628C4.85811 16.2467 4.9987 16.106 4.9987 15.9341V14.6838C4.9987 13.1365 6.26399 11.8705 7.81047 11.8705ZM27.4928 14.9963C27.4928 14.1524 27.4304 13.3084 27.2429 12.4957C27.0633 11.7299 26.7899 10.8312 26.4541 9.99503C25.9307 8.69001 25.1106 7.5022 24.15 6.47068C21.9318 4.09506 18.8623 2.67282 15.6287 2.50871V4.05599C15.6287 4.22791 15.7693 4.36857 15.9412 4.36857H17.8157C19.3621 4.36857 20.6274 5.63452 20.6274 7.1818V9.68245C20.6274 11.2297 19.3621 12.4957 17.8157 12.4957C17.6438 12.4957 17.5033 12.6363 17.5033 12.8083V14.6838C17.5033 16.231 16.238 17.497 14.6915 17.497C14.5197 17.497 14.3791 17.6376 14.3791 17.8096V21.8341C14.3791 22.1779 14.6602 22.4592 15.0039 22.4592H25.0325C26.4072 20.615 27.2351 18.4425 27.446 16.1294C27.4772 15.7543 27.4928 15.3792 27.4928 14.9963ZM14.9961 27.4996C17.761 27.4996 20.4009 26.5931 22.5488 24.9599H14.9961C13.27 24.9599 11.8719 23.5611 11.8719 21.8341V17.8096C11.8719 16.2623 13.1372 14.9963 14.6837 14.9963C14.8555 14.9963 14.9961 14.8557 14.9961 14.6838V12.8083C14.9961 11.261 16.2614 9.99503 17.8079 9.99503C17.9797 9.99503 18.1203 9.85437 18.1203 9.68245V7.1818C18.1203 7.00988 17.9797 6.86922 17.8079 6.86922H15.9334C14.3869 6.86922 13.1216 5.60326 13.1216 4.05599V2.64156C9.88024 3.13387 6.95913 4.89214 4.9987 7.49438H7.81047C9.35694 7.49438 10.6222 8.76034 10.6222 10.3076V11.5579C10.6222 13.1052 9.35694 14.3712 7.81047 14.3712C7.63864 14.3712 7.49805 14.5118 7.49805 14.6838V15.9341C7.49805 17.4814 6.23275 18.7473 4.68628 18.7473H3.06951C4.67847 23.8971 9.4741 27.4996 14.9961 27.4996Z" fill="#FFD394"/>
</g>
<defs>
<clipPath id="clip0">
<rect width="30" height="30" fill="white" transform="translate(0 0.000244141)"/>
</clipPath>
</defs>
</svg>
