<svg width="30" height="30" viewBox="0 0 30 30" fill="none" xmlns="http://www.w3.org/2000/svg">
<g clip-path="url(#clip0)">
<path d="M29.7819 21.1781C28.0006 18.5061 24.6021 17.4046 21.5942 18.5374C21.0395 18.7483 20.9536 18.7796 20.7504 18.8499C19.8832 16.8342 18.0785 15.342 15.8753 14.9045L8.57049 13.4435L8.69549 12.6701C8.79706 12.0138 8.36736 11.3966 7.71891 11.2716L1.46097 10.0216C0.70314 9.86533 -0.0078125 10.4435 -0.0078125 11.2247V24.9906C-0.0078125 25.6703 0.546887 26.225 1.22659 26.225C1.35159 26.225 0.984395 26.2719 5.78137 25.5844C6.32044 25.5063 6.74233 25.0922 6.82045 24.5531L6.86733 24.2406C16.6097 27.6782 15.9378 27.4751 16.2425 27.4751C16.5394 27.4751 15.4613 27.8188 29.1647 23.0219C29.9225 22.764 30.235 21.85 29.7819 21.1781ZM2.45318 23.5687V12.7248L6.07825 13.4513L4.53134 23.2719L2.45318 23.5687ZM16.2425 24.936L7.25796 21.764L8.18767 15.8733L15.3909 17.3108C16.6332 17.5608 17.6722 18.3343 18.2738 19.3968C16.0628 19.6468 13.7972 19.2562 11.7737 18.2483C11.1643 17.9436 10.4221 18.1936 10.1174 18.803C9.81271 19.4124 10.0627 20.1546 10.6721 20.4593C13.6175 21.9359 16.9925 22.3109 20.1723 21.5687C20.9457 21.4203 22.0786 20.9749 22.4458 20.8421C23.8442 20.3187 25.3521 20.5296 26.524 21.3265L16.2425 24.936Z" fill="#FFD394"/>
<path fill-rule="evenodd" clip-rule="evenodd" d="M20.5 4.40024C18.7982 4.40024 17.4 5.79842 17.4 7.50025C17.4 9.20207 18.7982 10.6002 20.5 10.6002C22.2018 10.6002 23.6 9.20207 23.6 7.50025C23.6 5.79841 22.2018 4.40024 20.5 4.40024ZM15 7.50025C15 4.47293 17.4727 2.00024 20.5 2.00024C23.5273 2.00024 26 4.47293 26 7.50025C26 10.5276 23.5273 13.0002 20.5 13.0002C17.4727 13.0002 15 10.5276 15 7.50025Z" fill="#FFD394"/>
</g>
<defs>
<clipPath id="clip0">
<rect width="30" height="30" fill="white" transform="translate(0 0.000244141)"/>
</clipPath>
</defs>
</svg>
