<svg width="30" height="30" viewBox="0 0 30 30" fill="none" xmlns="http://www.w3.org/2000/svg">
<g clip-path="url(#clip0)">
<path d="M29.3391 15.5051L23.1262 12.5049V4.48235C23.1262 4.02638 22.8619 3.60344 22.4455 3.40519L15.5122 0.114238C15.1884 -0.0377538 14.8116 -0.0377538 14.4878 0.114238L7.6074 3.4118C7.19762 3.61005 6.93325 4.02638 6.93325 4.47574V12.4851L0.674157 15.5051C0.264375 15.6967 0 16.1196 0 16.5756V25.3251C0 25.7744 0.251157 26.1841 0.654329 26.389L7.57436 29.8716C7.73959 29.9575 7.93126 29.9972 8.11633 29.9972C8.34765 29.9972 8.57237 29.9311 8.76405 29.8121L14.9967 26.6599L21.3219 29.8716C21.692 30.0632 22.1547 30.0368 22.5116 29.8187L29.3523 26.389C29.7488 26.1908 30 25.781 30 25.3251V16.5756C30 16.113 29.7488 15.7033 29.3391 15.5051ZM6.93325 20.7983V26.878L2.37938 24.5915V18.5119L6.93325 20.7983ZM12.3199 16.5954L8.10972 18.7233L3.87971 16.5954L8.12294 14.5535L12.3199 16.5954ZM13.8136 18.5119V24.5915L9.31923 26.8648V20.7851L13.8136 18.5119ZM13.8136 8.69847V14.6724L9.31923 12.4851V6.4186L13.8136 8.69847ZM19.2135 4.50879L15.0033 6.63667L10.813 4.51539L15.0033 2.50646L19.2135 4.50879ZM26.1269 16.5954L21.8705 18.7299L17.6867 16.6087L21.9167 14.5667L26.1269 16.5954ZM20.6874 20.7983V26.878L16.193 24.5915V18.5119L20.6874 20.7983ZM16.193 14.6724V8.69847L20.7469 6.39877V12.4652L16.193 14.6724ZM27.6338 18.5053V24.5915L23.0734 26.878V20.7917L27.6338 18.5053Z" fill="#FFD394"/>
</g>
<defs>
<clipPath id="clip0">
<rect width="30" height="30" fill="white" transform="translate(0 0.000244141)"/>
</clipPath>
</defs>
</svg>
