<svg width="30" height="30" viewBox="0 0 30 30" fill="none" xmlns="http://www.w3.org/2000/svg">
<g clip-path="url(#clip0)">
<path d="M21.8869 0.000244141H8.13692C6.7541 0.000244141 5.63691 1.11743 5.63691 2.50025V15.0003H3.76191C2.72285 15.0003 1.80879 15.6253 1.43379 16.6018C1.05879 17.5706 1.3166 18.6487 2.09785 19.3596L13.3322 29.344C13.8166 29.7815 14.4182 30.0003 15.0197 30.0003C15.6213 30.0003 16.215 29.7815 16.6838 29.3518L27.9416 19.344C28.715 18.6409 28.965 17.5628 28.59 16.594C28.215 15.6253 27.2932 15.0003 26.2541 15.0003H24.3791V2.50025C24.3869 1.11743 23.2619 0.000244141 21.8869 0.000244141ZM26.2619 17.4846L14.9963 27.4846L3.76191 17.5003H5.63691C7.01191 17.5003 8.13692 16.3831 8.13692 15.0003V2.50025H21.8869V15.0003C21.8869 16.3753 23.0119 17.5003 24.3869 17.5003L26.2619 17.4846Z" fill="#FFD394"/>
<path d="M12.5117 10.0002C13.1992 10.0002 13.7617 9.43775 13.7617 8.75024C13.7617 8.06274 13.1992 7.50024 12.5117 7.50024H11.8867C11.1992 7.50024 10.6367 8.06274 10.6367 8.75024C10.6367 9.43775 11.1992 10.0002 11.8867 10.0002H12.5117Z" fill="#FFD394"/>
<path d="M18.1367 15.0002H17.5117C16.8242 15.0002 16.2617 15.5627 16.2617 16.2502C16.2617 16.9377 16.8242 17.5002 17.5117 17.5002H18.1367C18.8242 17.5002 19.3867 16.9377 19.3867 16.2502C19.3867 15.5549 18.8242 15.0002 18.1367 15.0002Z" fill="#FFD394"/>
<path d="M18.395 9.11743C17.9106 8.63306 17.1138 8.63306 16.6294 9.11743L11.6294 14.1174C11.145 14.6096 11.145 15.3987 11.6294 15.8831C11.8716 16.1252 12.1919 16.2502 12.5122 16.2502C12.8325 16.2502 13.1528 16.1252 13.395 15.8831L18.395 10.8831C18.8794 10.3909 18.8794 9.60181 18.395 9.11743Z" fill="#FFD394"/>
</g>
<defs>
<clipPath id="clip0">
<rect width="30" height="30" fill="white" transform="translate(0 0.000244141)"/>
</clipPath>
</defs>
</svg>
