<svg width="30" height="30" viewBox="0 0 30 30" fill="none" xmlns="http://www.w3.org/2000/svg">
<path d="M27.3594 3.17139H2.64062C1.1875 3.17139 0 4.35889 0 5.81201V19.2651C0 20.7183 1.1875 21.9058 2.64062 21.9058H4.125L3.90625 19.4604L4.125 21.9214H7.78125C8.80469 24.8354 11.5859 26.9292 14.8516 26.9292C18.1094 26.9292 20.8906 24.8354 21.9141 21.9214H25.7812L25.7969 21.9058H27.3594C28.8125 21.9058 30 20.7183 30 19.2651V5.81201C30 4.35889 28.8125 3.17139 27.3594 3.17139ZM14.8438 24.4683C12.0703 24.4683 9.82031 22.2104 9.82031 19.4448C9.82031 16.6714 12.0781 14.4214 14.8438 14.4214C17.6172 14.4214 19.8672 16.6792 19.8672 19.4448C19.8672 22.2104 17.6172 24.4683 14.8438 24.4683ZM21.1094 15.3354C21.1094 15.3354 21.1094 15.3433 21.1094 15.3354C21.1094 15.3433 21.1094 15.3354 21.1094 15.3354ZM21.2891 15.6245C21.2891 15.6245 21.2891 15.6323 21.2969 15.6323C21.2891 15.6323 21.2891 15.6245 21.2891 15.6245ZM21.4531 15.9214C21.4531 15.9214 21.4609 15.9292 21.4531 15.9214C21.4609 15.9292 21.4531 15.9214 21.4531 15.9214ZM27.5391 19.2651C27.5391 19.3589 27.4609 19.4448 27.3594 19.4448H22.3359C22.3359 18.7808 22.25 18.1401 22.0859 17.5308H24.2188C24.8984 17.5308 25.4531 16.9761 25.4531 16.2964C25.4531 15.6167 24.8984 15.062 24.2188 15.062H20.9219C19.5547 13.1714 17.3281 11.9526 14.8516 11.9526C10.7578 11.9526 7.35938 15.2729 7.35938 19.4448H2.64062C2.54688 19.4448 2.46094 19.3667 2.46094 19.2651V10.0151H27.5312V19.2651H27.5391ZM27.5391 7.5542H2.46094V5.81201C2.46094 5.71826 2.53906 5.63232 2.64062 5.63232H27.3594C27.4531 5.63232 27.5391 5.71045 27.5391 5.81201V7.5542Z" fill="#FFD394"/>
<path d="M16.9687 17.3198C16.4844 16.8354 15.7109 16.8354 15.2266 17.3198L14.8437 17.7026L14.4609 17.3198C13.9766 16.8354 13.2031 16.8354 12.7187 17.3198C12.2344 17.8042 12.2344 18.5776 12.7187 19.062L13.1016 19.4448L12.7187 19.8276C12.2344 20.312 12.2344 21.0854 12.7187 21.5698C13.2031 22.0542 13.9766 22.0542 14.4609 21.5698L14.8437 21.187L15.2266 21.5698C15.7109 22.0542 16.4844 22.0542 16.9687 21.5698C17.4531 21.0854 17.4531 20.312 16.9687 19.8276L16.5859 19.4448L16.9687 19.062C17.4453 18.5776 17.4453 17.8042 16.9687 17.3198Z" fill="#FFD394"/>
</svg>
