<svg width="30" height="30" viewBox="0 0 30 30" fill="none" xmlns="http://www.w3.org/2000/svg">
<g clip-path="url(#clip0)">
<path d="M28.75 0.000244141H1.25C0.5625 0.000244141 0 0.562744 0 1.25024V28.7502C0 29.4377 0.5625 30.0002 1.25 30.0002H28.75C29.4375 30.0002 30 29.4377 30 28.7502V1.25024C30 0.562744 29.4375 0.000244141 28.75 0.000244141ZM2.5 2.50024H27.5V27.5002H2.5V2.50024Z" fill="#FFD394"/>
<path d="M24.7059 7.00024H5.29412C4.58235 7.00024 4 7.57024 4 8.26691V24.7336C4 25.4302 4.58235 26.0002 5.29412 26.0002H24.7059C25.4176 26.0002 26 25.4302 26 24.7336V8.26691C26 7.57024 25.4176 7.00024 24.7059 7.00024ZM6.58824 9.53358H23.4118V23.4669H6.58824V9.53358Z" fill="#FFD394"/>
<path d="M5.29043 7.00835C4.98327 7.00835 4.67612 7.11097 4.43362 7.32411C3.90014 7.78986 3.85164 8.58716 4.32854 9.10817L9.50173 14.7919C9.76848 15.084 10.1565 15.2418 10.5606 15.2103C10.9567 15.1866 11.3285 14.9734 11.5468 14.6498L14.295 10.6238L19.0641 18.3837C19.2904 18.7468 19.6865 18.9836 20.131 18.9994C20.5675 19.0152 20.9878 18.8099 21.2384 18.4626L25.765 12.1474C26.1772 11.579 26.0317 10.7896 25.4497 10.387C24.8677 9.9844 24.0594 10.1265 23.6472 10.6949L20.2442 15.4234L15.4509 7.61619C15.2246 7.24517 14.8123 7.01624 14.3759 7.00046C13.9394 6.99256 13.511 7.2057 13.2685 7.56093L10.3181 11.8869L6.26041 7.43463C6.00175 7.15044 5.64609 7.00835 5.29043 7.00835Z" fill="#FFD394"/>
<path d="M11 18.0002C9.9 18.0002 9 18.9002 9 20.0002C9 21.1002 9.9 22.0002 11 22.0002C12.1 22.0002 13 21.1002 13 20.0002C13 18.9002 12.1 18.0002 11 18.0002Z" fill="#FFD394"/>
</g>
<defs>
<clipPath id="clip0">
<rect width="30" height="30" fill="white" transform="translate(0 0.000244141)"/>
</clipPath>
</defs>
</svg>
