<svg width="30" height="30" viewBox="0 0 30 30" fill="none" xmlns="http://www.w3.org/2000/svg">
<g clip-path="url(#clip0)">
<path d="M27.6266 16.6494C31.4153 15.3447 30.4154 9.68037 26.4158 9.76631C25.5955 9.78193 25.0721 8.86002 25.5018 8.13342C26.4236 6.59429 26.1033 4.71921 24.7206 3.57072C23.3614 2.44567 21.4944 2.47692 20.1742 3.64885C19.557 4.19574 18.5884 3.83635 18.4634 3.00038C18.1978 1.23467 16.7761 0.000244141 15.0028 0.000244141C13.2295 0.000244141 11.8078 1.23467 11.5344 3.00038C11.4094 3.83635 10.4407 4.19574 9.82361 3.64885C8.50342 2.47692 6.63641 2.44567 5.27717 3.57072C3.89449 4.71139 3.58202 6.58648 4.496 8.13342C4.92564 8.86002 4.41007 9.78193 3.58202 9.76631C1.81656 9.72724 0.371391 10.9226 0.0589213 12.6727C-0.253549 14.4306 0.699485 16.0713 2.37901 16.6494C3.16019 16.9229 3.34767 17.9776 2.69148 18.5089C1.3088 19.6417 0.972896 21.509 1.87125 23.056C2.76179 24.5795 4.52724 25.1967 6.16771 24.556C6.93326 24.2591 7.72225 24.931 7.56601 25.767C7.2223 27.5249 8.15189 29.1812 9.83142 29.7828C11.4875 30.3766 13.2373 29.7047 14.0888 28.1499C14.4872 27.4155 15.5106 27.4155 15.909 28.1499C16.7526 29.7047 18.5025 30.3844 20.1664 29.7828C21.8459 29.1812 22.7755 27.5249 22.4318 25.767C22.2677 24.931 23.0645 24.2513 23.8301 24.556C25.4705 25.1967 27.236 24.5795 28.1265 23.056C29.0327 21.509 28.6968 19.6339 27.3063 18.5089C26.6579 17.9776 26.8376 16.9229 27.6266 16.6494ZM26.822 14.3212C24.2129 15.2197 23.6035 18.6651 25.7518 20.423C26.4392 20.9777 26.0799 21.6809 25.9939 21.8137C25.8846 21.9934 25.4862 22.5559 24.7284 22.2591C22.1349 21.2434 19.4789 23.5169 20.0101 26.2436C20.1742 27.0952 19.5336 27.3921 19.3305 27.4702C19.1352 27.5405 18.4712 27.7124 18.0728 26.978C16.7448 24.5404 13.253 24.5092 11.9172 26.978C11.5188 27.7124 10.8548 27.5405 10.6595 27.4702C10.4564 27.3999 9.8158 27.0952 9.97984 26.2436C10.511 23.5247 7.85505 21.2434 5.26155 22.2591C4.50381 22.5559 4.0976 21.9934 3.99604 21.8137C3.91793 21.6809 3.55859 20.9777 4.23821 20.423C6.38644 18.673 5.77712 15.2275 3.168 14.3212C2.3712 14.0477 2.43369 13.3212 2.47275 13.1102C2.56649 12.5789 2.93365 12.2195 3.51953 12.2352C6.31613 12.2977 8.00347 9.22722 6.59736 6.86774C6.13646 6.10208 6.71453 5.57081 6.83171 5.46924C6.98794 5.33642 7.5582 4.95359 8.16752 5.49268C10.2611 7.35214 13.5342 6.11771 13.956 3.3754C14.081 2.53161 14.7763 2.4691 14.9872 2.4691C15.1981 2.4691 15.8933 2.53161 16.0183 3.3754C16.4402 6.12552 19.7133 7.34432 21.8068 5.49268C22.4161 4.95359 22.9864 5.33642 23.1426 5.46924C23.2598 5.57081 23.8379 6.10208 23.377 6.86774C21.9631 9.22722 23.666 12.2899 26.4548 12.2352C27.2751 12.2195 27.4625 12.8993 27.5016 13.1102C27.5563 13.3212 27.6188 14.0399 26.822 14.3212Z" fill="#FFD394"/>
<path d="M17.0763 18.7419C17.1262 18.7002 17.1678 18.6586 17.2094 18.6169C17.7171 18.1086 18 17.4419 18 16.7586C18 16.0086 17.6588 15.2836 17.0763 14.7669C16.5187 14.2752 15.7781 14.0086 15.0042 14.0086C14.4632 14.0086 14.0055 13.6669 14.0055 13.2586C14.0055 12.8502 14.4632 12.5086 15.0042 12.5086C15.4702 12.5086 15.8031 12.7419 15.9279 12.9752C16.1859 13.4669 16.7933 13.6502 17.276 13.3836C17.7587 13.1252 17.9501 12.5169 17.6838 12.0336C17.3426 11.3836 16.7268 10.9086 15.9945 10.6669V10.0002C15.9945 9.45024 15.5451 9.00024 14.9958 9.00024C14.4466 9.00024 13.9972 9.45024 13.9972 10.0002V10.6669C12.8405 11.0502 12 12.0586 12 13.2502C12 14.7669 13.3481 16.0002 14.9958 16.0002C15.2788 16.0002 15.5617 16.1002 15.7531 16.2669C15.8447 16.3502 15.9945 16.5169 15.9945 16.7502C15.9945 16.9836 15.8363 17.1586 15.7531 17.2336C15.5617 17.4002 15.2871 17.5002 14.9958 17.5002C14.5298 17.5002 14.1969 17.2669 14.0721 17.0252C13.8141 16.5419 13.2067 16.3502 12.724 16.6169C12.2413 16.8752 12.0583 17.4836 12.3162 17.9669C12.6574 18.6086 13.2816 19.0919 13.9972 19.3336V20.0002C13.9972 20.5502 14.4466 21.0002 14.9958 21.0002C15.2705 21.0002 15.5201 20.8919 15.7032 20.7086C15.8863 20.5252 15.9945 20.2752 15.9945 20.0002V19.3336C16.4022 19.2086 16.7684 19.0169 17.0763 18.7419Z" fill="#FFD394"/>
</g>
<defs>
<clipPath id="clip0">
<rect width="30" height="30" fill="white" transform="translate(0 0.000244141)"/>
</clipPath>
</defs>
</svg>
