<svg width="30" height="30" viewBox="0 0 30 30" fill="none" xmlns="http://www.w3.org/2000/svg">
<g clip-path="url(#clip0)">
<path d="M25 3.75024H7.5V1.25024C7.5 0.562744 6.9375 0.000244141 6.25 0.000244141C2.80208 0.000244141 0 2.80233 0 6.25024V20.0002C0 22.7607 2.23958 25.0002 5 25.0002H22.5V28.7502C22.5 29.4377 23.0625 30.0002 23.75 30.0002H26.25C28.3229 30.0002 30 28.3232 30 26.2502V8.75024C30 5.98983 27.7604 3.75024 25 3.75024ZM2.5 6.25024C2.5 4.62524 3.54167 3.22941 5 2.71899V15.0002C4.09375 15.0002 3.23958 15.2398 2.5 15.6669V6.25024ZM5 22.5002C3.625 22.5002 2.5 21.3752 2.5 20.0002C2.5 18.6252 3.625 17.5002 5 17.5002H6.25C6.9375 17.5002 7.5 16.9377 7.5 16.2502V6.25024H25C26.375 6.25024 27.5 7.37524 27.5 8.75024V22.719C27.1042 22.5836 26.6875 22.5002 26.25 22.5002H5ZM26.25 27.5002H25V25.0002H26.25C26.9375 25.0002 27.5 25.5627 27.5 26.2502C27.5 26.9377 26.9375 27.5002 26.25 27.5002Z" fill="#FFD394"/>
<path d="M23.75 10.0002H11.25C10.5625 10.0002 10 10.5627 10 11.2502C10 11.9377 10.5625 12.5002 11.25 12.5002H23.75C24.4375 12.5002 25 11.9377 25 11.2502C25 10.5627 24.4375 10.0002 23.75 10.0002Z" fill="#FFD394"/>
<path d="M20 15.0002H11.25C10.5625 15.0002 10 15.5627 10 16.2502C10 16.9377 10.5625 17.5002 11.25 17.5002H20C20.6875 17.5002 21.25 16.9377 21.25 16.2502C21.25 15.5627 20.6875 15.0002 20 15.0002Z" fill="#FFD394"/>
</g>
<defs>
<clipPath id="clip0">
<rect width="30" height="30" fill="white" transform="translate(0 0.000244141)"/>
</clipPath>
</defs>
</svg>
