<?xml version="1.0" encoding="utf-8"?>
<!-- Generator: Adobe Illustrator 22.1.0, SVG Export Plug-In . SVG Version: 6.00 Build 0)  -->
<svg version="1.1" id="Слой_1" xmlns="http://www.w3.org/2000/svg" xmlns:xlink="http://www.w3.org/1999/xlink" x="0px" y="0px"
	 viewBox="0 0 525 444" style="enable-background:new 0 0 525 444;" xml:space="preserve">
<style type="text/css">
	.st0{fill:#2F58FF;}
	.st1{fill:#FFFFFF;}
	.st2{fill:none;stroke:#171A21;stroke-width:2;stroke-linecap:round;stroke-linejoin:round;stroke-miterlimit:10;}
</style>
<g>
	<g>
		<path class="st0" d="M57.3,208.3c-0.1,0-0.2,0-0.2,0.1c0,0-0.1,0-0.1,0.1l-7.3,3.8l16.2-4.3l7.3-3.8c0.1-0.1,0.2-0.1,0.3-0.1
			L57.3,208.3z"/>
		<path class="st0" d="M82.1,286.5l-8.4-6.4l-16.2,4.3l8.4,6.4c0.7,0.6,1.4,0.7,2.1,0.6l16.2-4.3C83.6,287.2,82.9,287,82.1,286.5z"
			/>
		<path class="st0" d="M60,222.6c-0.3-0.4-0.7-0.8-1-1.1c-4-4-8.2-5.3-11.7-4.4L31,221.4c3.6-0.9,7.8,0.4,11.7,4.4
			c0.4,0.4,0.7,0.7,1,1.1c0.1,0.1,0.1,0.2,0.2,0.2c0.3,0.4,0.7,0.8,1,1.2c0.1,0.1,0.2,0.2,0.3,0.3c0.1,0.2,0.3,0.4,0.4,0.6
			c0.1,0.1,0.2,0.3,0.3,0.4c0.1,0.2,0.3,0.4,0.4,0.6c0.1,0.1,0.1,0.2,0.2,0.3c0.3,0.5,0.6,1,1,1.6c0,0.1,0.1,0.2,0.1,0.3
			c0.3,0.5,0.5,0.9,0.7,1.4c0,0,0,0.1,0.1,0.1c0.2,0.5,0.5,0.9,0.7,1.4c0.1,0.1,0.1,0.2,0.2,0.4c0.2,0.4,0.4,0.8,0.5,1.2
			c0,0.1,0.1,0.1,0.1,0.2c0.2,0.5,0.4,0.9,0.5,1.4c0,0.1,0.1,0.2,0.1,0.4c0.1,0.4,0.3,0.8,0.4,1.1c0,0.1,0.1,0.2,0.1,0.4
			c0.1,0.5,0.3,1,0.4,1.5c0,0.1,0,0.2,0.1,0.3c0.1,0.4,0.2,0.9,0.3,1.3c0,0.1,0.1,0.3,0.1,0.4c0.1,0.5,0.2,1.1,0.3,1.6
			c0,0.1,0,0.2,0,0.2c0.1,0.6,0.2,1.1,0.2,1.7c0,0.1,0,0.1,0,0.2c0.1,0.7,0.2,1.4,0.2,2.1c0,0.1,0,0.2,0,0.3c0,0.4,0.1,0.9,0.1,1.3
			c0,0.4,0,0.9,0,1.3c0,0.1,0,0.2,0,0.3c0,0.6,0,1.1-0.1,1.7v0.1c0,0.6-0.1,1.1-0.2,1.7c0,0.1,0,0.2,0,0.3c-0.1,0.5-0.2,1.1-0.3,1.6
			c0,0.1,0,0.2-0.1,0.3c-0.1,0.5-0.2,1.1-0.4,1.6c-0.1,0.4-0.2,0.8-0.4,1.2c0,0.1-0.1,0.2-0.1,0.3c-0.1,0.3-0.2,0.6-0.3,0.9
			c0,0.1-0.1,0.2-0.1,0.3c-0.1,0.3-0.2,0.5-0.3,0.8c0,0.1-0.1,0.1-0.1,0.2c-0.2,0.3-0.3,0.6-0.5,0.9c-0.1,0.2-0.2,0.3-0.3,0.5
			c0,0.1-0.1,0.2-0.1,0.2c-0.2,0.2-0.3,0.5-0.5,0.7c-0.2,0.3-0.5,0.6-0.8,0.9c-0.1,0.1-0.1,0.1-0.2,0.2c-0.2,0.3-0.5,0.5-0.7,0.7
			l-0.1,0.1c-0.2,0.2-0.4,0.3-0.6,0.5c-0.1,0-0.1,0.1-0.2,0.1c-0.3,0.2-0.5,0.3-0.8,0.5c-0.2,0.1-0.5,0.3-0.8,0.4
			c-0.1,0-0.2,0.1-0.2,0.1c-0.2,0.1-0.5,0.2-0.7,0.2c-0.1,0-0.2,0.1-0.2,0.1l16.2-4.3h0.1H60c0.2-0.1,0.5-0.1,0.7-0.2h0.1h0.1
			c0.3-0.1,0.5-0.2,0.8-0.4c0.3-0.1,0.5-0.3,0.8-0.5c0,0,0.1,0,0.1-0.1l0.1-0.1c0.2-0.2,0.4-0.3,0.6-0.5l0.1-0.1
			c0.3-0.2,0.5-0.5,0.7-0.7c0,0,0,0,0.1-0.1l0.1-0.1c0.3-0.3,0.5-0.6,0.8-0.9c0.2-0.2,0.3-0.4,0.5-0.7c0-0.1,0.1-0.2,0.1-0.2
			c0.1-0.1,0.2-0.3,0.3-0.4c0.2-0.3,0.3-0.6,0.5-0.9c0-0.1,0.1-0.1,0.1-0.2c0.1-0.3,0.2-0.5,0.3-0.8v-0.1c0-0.1,0-0.1,0.1-0.2
			c0.1-0.3,0.2-0.6,0.3-0.9c0-0.1,0.1-0.2,0.1-0.3c0.1-0.4,0.3-0.8,0.4-1.2c0.1-0.5,0.3-1.1,0.4-1.6c0-0.1,0-0.2,0.1-0.3
			c0.1-0.5,0.2-1.1,0.3-1.6c0-0.1,0-0.2,0-0.3c0.1-0.6,0.1-1.1,0.2-1.7v-0.1c0-0.5,0.1-1.1,0.1-1.7c0-0.1,0-0.1,0-0.2v-0.1
			c0-0.4,0-0.9,0-1.3c0-0.4,0-0.9-0.1-1.3v-0.1v-0.1c-0.1-0.7-0.1-1.4-0.2-2.1c0,0,0,0,0-0.1s0-0.1,0-0.2c-0.1-0.6-0.2-1.1-0.2-1.7
			c0-0.1,0-0.1,0-0.2v-0.1c-0.1-0.5-0.2-1.1-0.3-1.6c0-0.1,0-0.1,0-0.2s0-0.2-0.1-0.2c-0.1-0.4-0.2-0.9-0.3-1.3c0-0.1,0-0.1,0-0.2
			c0,0,0,0,0-0.1c-0.1-0.5-0.3-1-0.4-1.5v-0.1c0-0.1-0.1-0.2-0.1-0.2c-0.1-0.4-0.2-0.8-0.4-1.1c0-0.1,0-0.2-0.1-0.2
			c0,0,0-0.1-0.1-0.1c-0.2-0.5-0.3-0.9-0.5-1.4c0-0.1,0-0.1-0.1-0.1c-0.2-0.4-0.3-0.8-0.5-1.2c0-0.1-0.1-0.1-0.1-0.2
			c0-0.1-0.1-0.1-0.1-0.2c-0.2-0.5-0.4-1-0.7-1.4v-0.1c-0.2-0.5-0.5-0.9-0.8-1.4c0-0.1-0.1-0.1-0.1-0.2c0,0,0-0.1-0.1-0.1
			c-0.3-0.5-0.6-1.1-1-1.6l-0.1-0.1c0-0.1-0.1-0.1-0.1-0.2c-0.1-0.2-0.3-0.4-0.4-0.6c-0.1-0.1-0.2-0.3-0.3-0.4
			c-0.1-0.2-0.3-0.4-0.4-0.6c-0.1-0.1-0.1-0.2-0.2-0.3c0,0,0,0-0.1-0.1c-0.3-0.4-0.6-0.8-1-1.2C60.1,222.7,60.1,222.7,60,222.6z"/>
		<path class="st0" d="M20.7,248.3l5.8-7.3c-0.2-1-0.3-1.9-0.4-2.9c0-0.3-0.1-0.7-0.1-1c0-0.3-0.1-0.6-0.1-1c0-0.4-0.1-0.8-0.1-1.2
			c0-0.3-0.1-0.6-0.1-0.9c0-0.6-0.1-1.2-0.1-1.8l-7.6-9.6c-0.2-0.2-0.3-0.4-0.5-0.7c0,0,0-0.1-0.1-0.1c-0.1-0.2-0.3-0.5-0.4-0.7
			c-0.1-0.3-0.2-0.5-0.3-0.8c0,0,0,0,0-0.1c-0.1-0.3-0.2-0.6-0.2-0.8c-0.1-0.3-0.1-0.6-0.2-0.9c0,0,0,0,0-0.1c0-0.3,0-0.5,0-0.7
			v-0.1c0-0.2,0-0.4,0-0.6c0-0.1,0-0.2,0-0.3c0-0.3,0.1-0.5,0.1-0.8l2.6-9.6l14.5-3.8c0.3-0.4,0.6-0.7,1-1c0.1,0,0.1-0.1,0.2-0.1
			c0.3-0.3,0.5-0.5,0.8-0.7c0.1-0.1,0.2-0.1,0.3-0.2c0.3-0.2,0.6-0.5,0.9-0.7l0.1-0.1c0.4-0.3,0.7-0.5,1.1-0.7l-0.3-13.3
			c0-0.2,0-0.4,0-0.6c0-0.1,0-0.2,0-0.3c0-0.3,0.1-0.5,0.2-0.8c0-0.2,0.1-0.3,0.2-0.5c0,0,0-0.1,0.1-0.1c0-0.1,0.1-0.2,0.1-0.3
			l0.1-0.1l0.1-0.1c0-0.1,0.1-0.1,0.1-0.2l0.1-0.1c0-0.1,0.1-0.1,0.2-0.2c0,0,0,0,0.1-0.1c0.1-0.1,0.1-0.1,0.2-0.2
			c0.1,0,0.1-0.1,0.2-0.1c0,0,0,0,0.1,0c0.1,0,0.2-0.1,0.3-0.1L23.3,186c-0.1,0-0.1,0-0.2,0.1c0,0,0,0-0.1,0h-0.1c0,0-0.1,0-0.1,0.1
			c-0.1,0-0.1,0.1-0.2,0.1c0,0,0,0-0.1,0.1l-0.1,0.1c0,0,0,0-0.1,0.1l-0.1,0.1c0,0,0,0-0.1,0.1c0,0,0,0.1-0.1,0.1l-0.1,0.1
			c0,0,0,0,0,0.1v0.1c0,0.1-0.1,0.2-0.1,0.3v0.1c0,0,0,0,0,0.1c-0.1,0.2-0.1,0.3-0.2,0.5c-0.1,0.2-0.1,0.5-0.2,0.8
			c0,0.1,0,0.2,0,0.3c0,0.2,0,0.4,0,0.5v0.1l0.1,6.1l-14.6,3.9c-0.1,0-0.1,0-0.2,0.1c0,0,0,0-0.1,0H6.5c0,0-0.1,0-0.1,0.1
			c0,0,0,0-0.1,0c-0.1,0-0.1,0.1-0.2,0.1L6,200.3c0,0,0,0,0,0.1c0,0,0,0.1-0.1,0.1c0,0,0,0-0.1,0.1c0,0,0,0.1-0.1,0.1l-0.1,0.1
			c0,0,0,0,0,0.1v0.1c0,0.1-0.1,0.2-0.1,0.3v0.1c0,0,0,0,0,0.1c-0.1,0.2-0.1,0.3-0.2,0.5l-4.9,18.3c-0.1,0.3-0.1,0.5-0.1,0.8
			c0,0.1,0,0.2,0,0.3c0,0.2,0,0.3,0,0.5c0,0,0,0,0,0.1v0.1c0,0.1,0,0.3,0,0.4s0,0.2,0,0.4c0,0,0,0,0,0.1s0,0.3,0.1,0.4
			c0,0.1,0,0.3,0.1,0.4c0,0.1,0,0.2,0.1,0.3c0,0.1,0.1,0.2,0.1,0.3c0,0.1,0,0.1,0.1,0.2c0,0,0,0,0,0.1v0.1c0,0.1,0.1,0.2,0.1,0.3
			c0,0.1,0.1,0.2,0.1,0.3c0,0,0,0,0,0.1s0.1,0.2,0.1,0.2c0.1,0.1,0.1,0.2,0.2,0.4l0.1,0.1c0,0,0,0.1,0.1,0.1c0,0.1,0.1,0.1,0.1,0.2
			c0.1,0.2,0.2,0.3,0.3,0.4c0,0,0,0.1,0.1,0.1l7.6,9.6c0,0.5,0.1,1,0.1,1.4c0,0.1,0,0.3,0,0.4c0,0.3,0.1,0.6,0.1,0.9
			c0,0.4,0.1,0.8,0.1,1.2c0,0.3,0.1,0.6,0.1,1c0,0.2,0,0.4,0.1,0.6c0,0.1,0,0.2,0.1,0.4c0.1,1,0.3,1.9,0.4,2.9l-5.8,7.3
			c0,0,0,0,0,0.1c-0.1,0.1-0.1,0.2-0.2,0.3c0,0.1-0.1,0.1-0.1,0.2c0,0,0,0.1-0.1,0.1v0.1c-0.1,0.2-0.1,0.4-0.2,0.6
			c-0.1,0.2-0.1,0.5-0.1,0.7c0,0.1,0,0.1,0,0.2c0,0.2,0,0.4,0,0.5v0.1v0.1c0,0.1,0,0.2,0,0.3s0,0.1,0,0.2c0,0.1,0,0.1,0,0.2
			s0,0.1,0,0.2v0.1c0,0.1,0,0.3,0.1,0.4c0,0,0,0,0,0.1v0.1c0,0.1,0,0.1,0,0.2s0.1,0.2,0.1,0.4c0,0,0,0,0,0.1s0,0.2,0.1,0.3
			c0,0.1,0.1,0.2,0.1,0.3c0,0,0,0,0,0.1c0,0.1,0.1,0.2,0.1,0.2c0,0.1,0.1,0.2,0.1,0.3l9.1,20.5c0,0,0,0,0,0.1
			c0.1,0.1,0.1,0.2,0.2,0.3s0.1,0.2,0.2,0.4c0.1,0.1,0.1,0.2,0.2,0.4c0.1,0.1,0.1,0.1,0.2,0.2l0.1,0.1c0,0,0,0.1,0.1,0.1
			c0.1,0.2,0.2,0.3,0.4,0.4c0,0,0,0,0.1,0.1c0.1,0.1,0.3,0.2,0.4,0.4l0.1,0.1c0.1,0.1,0.3,0.2,0.4,0.3c0,0,0.1,0,0.1,0.1
			c0.2,0.1,0.3,0.1,0.5,0.2h0.1c0.1,0,0.2,0,0.4,0.1h0.1c0.2,0,0.3,0,0.5-0.1l9-2.4c1.3,1.4,2.6,2.6,3.9,3.7l2.7,13.7
			c0,0.1,0,0.1,0,0.2s0.1,0.2,0.1,0.4c0,0.1,0.1,0.2,0.1,0.4c0,0.1,0.1,0.2,0.1,0.3c0,0.1,0.1,0.2,0.1,0.3s0.1,0.2,0.1,0.2
			s0,0,0,0.1c0,0,0,0,0,0.1c0.1,0.1,0.1,0.2,0.2,0.3c0.1,0.1,0.1,0.2,0.2,0.4c0.1,0.1,0.1,0.2,0.2,0.3c0.1,0.1,0.1,0.2,0.2,0.3
			l0.1,0.1c0,0,0,0,0,0.1c0.1,0.1,0.2,0.2,0.3,0.3c0.1,0.1,0.1,0.2,0.2,0.2c0.1,0.1,0.2,0.2,0.3,0.3c0.1,0.1,0.1,0.1,0.2,0.2
			c0.1,0.1,0.3,0.2,0.4,0.2c0.1,0,0.1,0.1,0.2,0.1c0.2,0.1,0.4,0.2,0.6,0.2l13.9,2.3c0.3,0.1,0.6,0,0.8,0l16.2-4.3
			c-0.3,0.1-0.5,0.1-0.8,0L53,298.5c-0.2,0-0.4-0.1-0.6-0.2c-0.1,0-0.1-0.1-0.2-0.1c-0.1-0.1-0.3-0.1-0.4-0.2
			c-0.1-0.1-0.1-0.1-0.2-0.2c-0.1-0.1-0.2-0.2-0.3-0.3c-0.1-0.1-0.1-0.2-0.2-0.3c-0.1-0.1-0.2-0.2-0.3-0.4l-0.1-0.1
			c-0.1-0.2-0.3-0.4-0.4-0.6c-0.1-0.2-0.3-0.5-0.4-0.8c0,0,0,0,0-0.1c-0.1-0.3-0.2-0.5-0.3-0.8c-0.1-0.3-0.2-0.6-0.2-0.9l-2.7-13.7
			c-1.8-1.5-3.6-3.2-5.2-5.2L31,277.4c-0.1-0.1-0.2-0.3-0.4-0.4l-0.1-0.1c-0.1-0.2-0.3-0.4-0.4-0.6c-0.1-0.2-0.3-0.5-0.4-0.8
			L20.6,255c-0.1-0.2-0.2-0.4-0.3-0.6c0,0,0,0,0-0.1c-0.1-0.2-0.1-0.4-0.2-0.6c0,0,0,0,0-0.1c-0.1-0.2-0.1-0.4-0.1-0.6v-0.1
			c0-0.2-0.1-0.4-0.1-0.6c0-0.1,0-0.1,0-0.2c0-0.1,0-0.3,0-0.4c0-0.1,0-0.2,0-0.3c0-0.1,0-0.2,0-0.3c0-0.2,0-0.4,0-0.5
			c0-0.1,0-0.1,0-0.2c0-0.2,0.1-0.5,0.1-0.7c0.1-0.2,0.1-0.5,0.2-0.7c0,0,0-0.1,0.1-0.1C20.5,248.7,20.6,248.5,20.7,248.3z
			 M21.5,197.2l0.1,5.9c-0.4,0.2-0.7,0.4-1.1,0.7l-0.1,0.1c-0.3,0.2-0.6,0.4-0.9,0.7c0,0,0,0-0.1,0l1.9-7.1
			C21.4,197.5,21.4,197.3,21.5,197.2z"/>
		<path class="st1" d="M73.2,204.1c1.4-0.7,3.2,0.5,4.3,2.9l9.1,20.6c0.8,1.8,1,3.8,0.6,5.2c-0.1,0.5-0.3,1-0.6,1.3l-5.8,7.3
			c0.5,3,0.8,5.9,1,8.8l7.6,9.6c1.4,1.8,2.1,4.7,1.5,6.8L86,284.9c-0.6,2.1-2.2,2.8-3.8,1.5l-8.4-6.4c-1.3,1.5-2.7,2.7-4.3,3.6
			l0.3,13.3c0,0.6-0.1,1.2-0.2,1.7c-0.4,1.5-1.4,2.4-2.6,2.2l-14-2.3c-1.6-0.3-3.2-2.4-3.7-5l-2.7-13.7c-1.8-1.5-3.6-3.2-5.2-5.2
			l-7.3,3.8c-1.4,0.7-3.2-0.5-4.3-3l-9.1-20.5c-0.8-1.8-1-3.8-0.6-5.2c0.1-0.5,0.3-1,0.6-1.3l5.8-7.3c-0.5-3-0.8-5.9-1-8.8l-7.6-9.6
			c-1.4-1.8-2.1-4.7-1.5-6.8l4.9-18.3c0.6-2.1,2.2-2.8,3.8-1.6l8.4,6.4c1.3-1.5,2.7-2.7,4.3-3.6l-0.3-13.3c0-0.6,0.1-1.2,0.2-1.7
			c0.4-1.5,1.4-2.4,2.6-2.2l13.9,2.3c1.6,0.3,3.2,2.4,3.7,5l2.7,13.7c1.8,1.5,3.6,3.2,5.2,5.2L73.2,204.1z M68.1,255.7
			c2.9-10.9-1.2-26.2-9.2-34.2S42,216,39.1,226.9c-2.9,10.9,1.2,26.3,9.2,34.2C56.3,269,65.2,266.6,68.1,255.7z"/>
		<path class="st2" d="M37.8,183.8c0.4-1.5,1.4-2.4,2.6-2.2l13.9,2.3c1.6,0.3,3.2,2.4,3.7,5l2.7,13.7c1.8,1.5,3.6,3.2,5.2,5.2
			l7.3-3.8c1.4-0.7,3.2,0.5,4.3,2.9l9.1,20.6c0.8,1.8,1,3.8,0.6,5.2c-0.1,0.5-0.3,1-0.6,1.3l-5.8,7.3c0.5,3,0.8,5.9,1,8.8l7.6,9.6
			c1.4,1.8,2.1,4.7,1.5,6.8L86,284.8c-0.6,2.1-2.2,2.8-3.8,1.5l-8.4-6.4c-1.3,1.5-2.7,2.7-4.3,3.6l0.3,13.3c0,0.6-0.1,1.2-0.2,1.7
			c-0.4,1.5-1.4,2.4-2.6,2.2 M42.4,220.3c-1.4,1.6-2.5,3.8-3.2,6.6c-2.9,10.9,1.2,26.3,9.2,34.2c1.7,1.7,3.5,3,5.3,3.7"/>
	</g>
</g>
</svg>
