<?xml version="1.0" encoding="utf-8"?>
<!-- Generator: Adobe Illustrator 22.1.0, SVG Export Plug-In . SVG Version: 6.00 Build 0)  -->
<svg version="1.1" id="Слой_1" xmlns="http://www.w3.org/2000/svg" xmlns:xlink="http://www.w3.org/1999/xlink" x="0px" y="0px"
	 viewBox="0 0 525 444" style="enable-background:new 0 0 525 444;" xml:space="preserve">
<style type="text/css">
	.st0{fill:#2F58FF;}
	.st1{fill:#FFFFFF;}
	.st2{fill:#E8F4FA;}
	.st3{fill:none;stroke:#171A21;stroke-width:2;stroke-linecap:round;stroke-linejoin:round;stroke-miterlimit:10;}
</style>
<g>
	<g>
		<path class="st0" d="M387.5,271.5H149.9c-9.9,0-18-8.1-18-18V115.6c0-9.9,8.1-18,18-18h237.6c9.9,0,18,8.1,18,18v137.9
			C405.5,263.4,397.4,271.5,387.5,271.5z"/>
		<path class="st1" d="M378.5,256.5H158.9c-6.6,0-12-5.4-12-12V124.6c0-6.6,5.4-12,12-12h219.6c6.6,0,12,5.4,12,12v119.9
			C390.5,251.1,385.1,256.5,378.5,256.5z"/>
		<path class="st2" d="M445.5,355.2H91.9c-4.5,0-7.4-4.8-5.3-8.8l40.2-65.7c3.1-5.9,9.2-9.6,15.9-9.6h251.9c6.7,0,12.8,3.7,15.9,9.6
			l40.2,65.7C452.9,350.3,450,355.2,445.5,355.2z"/>
		<path class="st3" d="M91.9,355.2c-4.5,0-7.4-4.8-5.3-8.8l40.2-65.7c3.1-5.9,9.2-9.6,15.9-9.6"/>
		<path class="st3" d="M394.6,271.1c6.7,0,12.8,3.7,15.9,9.6l40.2,65.7c2.1,4-0.8,8.8-5.3,8.8"/>
		<path class="st1" d="M317.2,339.3h-97.1c-2.3,0-3.7-2.4-2.6-4.4l12.5-23.4c1-2,3.1-3.2,5.3-3.2h66.9c2.2,0,4.3,1.2,5.3,3.2
			l12.5,23.4C320.9,336.8,319.5,339.3,317.2,339.3z"/>
		<path class="st0" d="M447.6,370.8H89.7c-4.3,0-7.8-3.5-7.8-7.8s3.5-7.8,7.8-7.8h357.9c4.3,0,7.8,3.5,7.8,7.8
			C455.5,367.3,452,370.8,447.6,370.8z"/>
		<path class="st2" d="M354.8,162h-57.3c-6.6,0-12-5.4-12-12s5.4-12,12-12h57.3c6.6,0,12,5.4,12,12S361.4,162,354.8,162z"/>
		<path class="st2" d="M354.8,195h-57.3c-6.6,0-12-5.4-12-12s5.4-12,12-12h57.3c6.6,0,12,5.4,12,12S361.4,195,354.8,195z"/>
		<path class="st2" d="M354.8,228h-57.3c-6.6,0-12-5.4-12-12s5.4-12,12-12h57.3c6.6,0,12,5.4,12,12S361.4,228,354.8,228z"/>
	</g>
</g>
</svg>
