<?xml version="1.0" encoding="utf-8"?>
<!-- Generator: Adobe Illustrator 22.1.0, SVG Export Plug-In . SVG Version: 6.00 Build 0)  -->
<svg version="1.1" id="Слой_1" xmlns="http://www.w3.org/2000/svg" xmlns:xlink="http://www.w3.org/1999/xlink" x="0px" y="0px"
	 viewBox="0 0 525 444" style="enable-background:new 0 0 525 444;" xml:space="preserve">
<style type="text/css">
	.st0{fill:#E8F4FA;}
	.st1{fill:none;stroke:#171A21;stroke-width:2;stroke-linecap:round;stroke-linejoin:round;stroke-miterlimit:10;}
	.st2{fill:#E8F4FA;stroke:#171A21;stroke-width:2;stroke-linecap:round;stroke-linejoin:round;stroke-miterlimit:10;}
</style>
<g>
	<g>
		<path class="st0" d="M257.9,195.1h-85.1c-6.6,0-12-5.4-12-12V90c0-6.6,5.4-12,12-12h85.1c6.6,0,12,5.4,12,12v93.1
			C269.9,189.7,264.5,195.1,257.9,195.1z"/>
		<path class="st1" d="M160.8,102.8V90c0-6.6,5.4-12,12-12h85.1c6.6,0,12,5.4,12,12v12.8"/>
		<path class="st2" d="M216.8,135.5l25.6-14.8c0.7-0.4,1.5,0.1,1.5,0.9l0.1,25.9c0,1.4-0.8,2.7-2,3.4l-25.1,14.5
			c-1.2,0.7-2.7,0.7-4,0L188,150.9c-1.2-0.7-2-2-2-3.4l-0.1-25.9c0-0.8,0.8-1.2,1.5-0.9l25.4,14.8
			C214,136.2,215.5,136.2,216.8,135.5z"/>
		<path class="st2" d="M187.4,120.7l25.4,14.8c1.2,0.7,2.7,0.7,4,0l25.6-14.8c0.7-0.4,0.7-1.3,0-1.7L217,104.2c-1.2-0.7-2.7-0.7-4,0
			L187.4,119C186.7,119.4,186.7,120.3,187.4,120.7z"/>
	</g>
</g>
</svg>
