<svg width="525" height="444" viewBox="0 0 525 444" fill="none" xmlns="http://www.w3.org/2000/svg">
<g clip-path="url(#clip0)">
<path d="M269.9 429.4C388.199 429.4 484.1 333.499 484.1 215.2C484.1 96.9006 388.199 1 269.9 1C151.601 1 55.7 96.9006 55.7 215.2C55.7 333.499 151.601 429.4 269.9 429.4Z" stroke="#171A21" stroke-width="2" stroke-miterlimit="10" stroke-linecap="round" stroke-linejoin="round" stroke-dasharray="12 12"/>
<path d="M387.5 271.5H149.9C140 271.5 131.9 263.4 131.9 253.5V115.6C131.9 105.7 140 97.6 149.9 97.6H387.5C397.4 97.6 405.5 105.7 405.5 115.6V253.5C405.5 263.4 397.4 271.5 387.5 271.5Z" fill="#2F58FF"/>
<path d="M378.5 256.5H158.9C152.3 256.5 146.9 251.1 146.9 244.5V124.6C146.9 118 152.3 112.6 158.9 112.6H378.5C385.1 112.6 390.5 118 390.5 124.6V244.5C390.5 251.1 385.1 256.5 378.5 256.5Z" fill="white"/>
<path d="M257.9 195.1H172.8C166.2 195.1 160.8 189.7 160.8 183.1V90C160.8 83.4 166.2 78 172.8 78H257.9C264.5 78 269.9 83.4 269.9 90V183.1C269.9 189.7 264.5 195.1 257.9 195.1Z" fill="#E8F4FA"/>
<path d="M160.8 102.8V90C160.8 83.4 166.2 78 172.8 78H257.9C264.5 78 269.9 83.4 269.9 90V102.8" stroke="#171A21" stroke-width="2" stroke-miterlimit="10" stroke-linecap="round" stroke-linejoin="round"/>
<path d="M445.5 355.2H91.9C87.4 355.2 84.5 350.4 86.6 346.4L126.8 280.7C129.9 274.8 136 271.1 142.7 271.1H394.6C401.3 271.1 407.4 274.8 410.5 280.7L450.7 346.4C452.9 350.3 450 355.2 445.5 355.2Z" fill="#E8F4FA"/>
<path d="M91.9 355.2C87.4 355.2 84.5 350.4 86.6 346.4L126.8 280.7C129.9 274.8 136 271.1 142.7 271.1" stroke="#171A21" stroke-width="2" stroke-miterlimit="10" stroke-linecap="round" stroke-linejoin="round"/>
<path d="M394.6 271.1C401.3 271.1 407.4 274.8 410.5 280.7L450.7 346.4C452.8 350.4 449.9 355.2 445.4 355.2" stroke="#171A21" stroke-width="2" stroke-miterlimit="10" stroke-linecap="round" stroke-linejoin="round"/>
<path d="M317.2 339.3H220.1C217.8 339.3 216.4 336.9 217.5 334.9L230 311.5C231 309.5 233.1 308.3 235.3 308.3H302.2C304.4 308.3 306.5 309.5 307.5 311.5L320 334.9C320.9 336.8 319.5 339.3 317.2 339.3Z" fill="white"/>
<path d="M447.6 370.8H89.7C85.4 370.8 81.9 367.3 81.9 363C81.9 358.7 85.4 355.2 89.7 355.2H447.6C451.9 355.2 455.4 358.7 455.4 363C455.5 367.3 452 370.8 447.6 370.8Z" fill="#2F58FF"/>
<path d="M354.8 162H297.5C290.9 162 285.5 156.6 285.5 150C285.5 143.4 290.9 138 297.5 138H354.8C361.4 138 366.8 143.4 366.8 150C366.8 156.6 361.4 162 354.8 162Z" fill="#E8F4FA"/>
<path d="M354.8 195H297.5C290.9 195 285.5 189.6 285.5 183C285.5 176.4 290.9 171 297.5 171H354.8C361.4 171 366.8 176.4 366.8 183C366.8 189.6 361.4 195 354.8 195Z" fill="#E8F4FA"/>
<path d="M354.8 228H297.5C290.9 228 285.5 222.6 285.5 216C285.5 209.4 290.9 204 297.5 204H354.8C361.4 204 366.8 209.4 366.8 216C366.8 222.6 361.4 228 354.8 228Z" fill="#E8F4FA"/>
<path d="M216.8 135.5L242.4 120.7C243.1 120.3 243.9 120.8 243.9 121.6L244 147.5C244 148.9 243.2 150.2 242 150.9L216.9 165.4C215.7 166.1 214.2 166.1 212.9 165.4L188 150.9C186.8 150.2 186 148.9 186 147.5L185.9 121.6C185.9 120.8 186.7 120.4 187.4 120.7L212.8 135.5C214 136.2 215.5 136.2 216.8 135.5Z" fill="#E8F4FA" stroke="#171A21" stroke-width="2" stroke-miterlimit="10" stroke-linecap="round" stroke-linejoin="round"/>
<path d="M187.4 120.7L212.8 135.5C214 136.2 215.5 136.2 216.8 135.5L242.4 120.7C243.1 120.3 243.1 119.4 242.4 119L217 104.2C215.8 103.5 214.3 103.5 213 104.2L187.4 119C186.7 119.4 186.7 120.3 187.4 120.7Z" fill="#E8F4FA" stroke="#171A21" stroke-width="2" stroke-miterlimit="10" stroke-linecap="round" stroke-linejoin="round"/>
<path d="M511 212.5C513.5 207.8 512.2 201.7 506.6 195.9C497 186.1 478.5 180.9 465.3 184.3C457.6 186.3 453.3 190.8 453.1 196.2L452 205.5L468.6 222.5L485.7 228.4L501.3 222.6L508.8 217.8L511 212.5Z" fill="white"/>
<path d="M511.6 210.9C511.6 211 511.5 211.2 511.4 211.3C511.4 211.4 511.3 211.5 511.2 211.7C511.1 211.8 511.1 212 511 212.1C510.9 212.2 510.9 212.3 510.8 212.5C510.7 212.6 510.7 212.8 510.6 212.9C510.5 213 510.5 213.1 510.4 213.3C510.3 213.4 510.2 213.6 510.1 213.7C510 213.8 509.9 213.9 509.9 214C509.8 214.1 509.7 214.3 509.6 214.4C509.5 214.5 509.4 214.6 509.3 214.7C509.2 214.8 509.1 215 509 215.1C508.9 215.2 508.7 215.4 508.6 215.5L508.5 215.6C508.3 215.8 508.1 216 507.9 216.1L507.8 216.2C507.6 216.4 507.4 216.5 507.1 216.7L507 216.8C506.8 216.9 506.6 217.1 506.4 217.2C506.3 217.2 506.3 217.3 506.2 217.3C505.9 217.5 505.7 217.6 505.4 217.8L505.3 217.9C505.1 218 504.9 218.1 504.7 218.2C504.5 218.3 504.4 218.4 504.2 218.4C504 218.5 503.9 218.6 503.7 218.6C503.5 218.7 503.3 218.8 503.1 218.8C502.9 218.9 502.8 218.9 502.6 219C502.4 219.1 502.2 219.1 502 219.2C501.8 219.3 501.6 219.3 501.4 219.4C501.2 219.5 501 219.5 500.8 219.6C500.5 219.7 500.3 219.8 500 219.8C499.5 219.9 499 220 498.5 220.2C498.3 220.2 498.2 220.3 498 220.3C497.6 220.4 497.2 220.4 496.8 220.5C496.7 220.5 496.5 220.5 496.4 220.6C495.9 220.7 495.3 220.7 494.8 220.8C494.7 220.8 494.6 220.8 494.5 220.8C494 220.8 493.6 220.9 493.1 220.9C492.9 220.9 492.7 220.9 492.5 220.9C492.2 220.9 492 220.9 491.7 220.9C491.5 220.9 491.3 220.9 491 220.9C490.7 220.9 490.5 220.9 490.2 220.9C490 220.9 489.8 220.9 489.5 220.9C489.2 220.9 489 220.9 488.7 220.9C488.5 220.9 488.3 220.9 488 220.9C487.7 220.9 487.5 220.9 487.2 220.8C487 220.8 486.8 220.8 486.6 220.7C486 220.6 485.4 220.6 484.9 220.5C484.8 220.5 484.7 220.5 484.7 220.5C484.2 220.4 483.7 220.4 483.2 220.3C483 220.3 482.8 220.2 482.6 220.2C482.3 220.1 482 220.1 481.6 220C481.4 220 481.2 219.9 481 219.9C480.7 219.8 480.3 219.8 480 219.7C479.8 219.7 479.6 219.6 479.4 219.6C479.1 219.5 478.8 219.5 478.5 219.4C478.3 219.3 478.1 219.3 477.9 219.2C477.6 219.1 477.3 219 477 218.9C476.8 218.8 476.6 218.8 476.5 218.7C476.2 218.6 475.9 218.5 475.7 218.4C475.5 218.3 475.3 218.3 475.1 218.2C474.8 218.1 474.5 218 474.2 217.9C474 217.8 473.9 217.8 473.7 217.7C473.3 217.6 473 217.4 472.6 217.3C472.5 217.3 472.4 217.2 472.3 217.2C471.8 217 471.4 216.8 471 216.6C470.9 216.6 470.9 216.5 470.8 216.5C470.4 216.3 470 216.2 469.7 216C469.5 215.9 469.4 215.8 469.2 215.8C468.9 215.7 468.6 215.5 468.3 215.4C468.2 215.3 468 215.2 467.9 215.2C467.6 215 467.3 214.9 467 214.7C466.8 214.6 466.7 214.5 466.5 214.4C466.2 214.2 465.9 214.1 465.7 213.9C465.5 213.8 465.4 213.7 465.2 213.6C464.8 213.3 464.4 213.1 463.9 212.8C463.8 212.8 463.7 212.7 463.7 212.7C463.2 212.4 462.8 212 462.3 211.7C462.1 211.6 461.9 211.4 461.8 211.3C461.7 211.2 461.5 211.1 461.4 211C461.2 210.8 461 210.7 460.8 210.5C460.7 210.4 460.5 210.3 460.4 210.2C460.2 210 460 209.8 459.8 209.6C459.7 209.5 459.6 209.4 459.5 209.3C459.2 209 458.9 208.7 458.6 208.4C453.8 203.5 452.1 198.3 453.3 193.9L448.4 211.2C447.2 215.6 448.8 220.7 453.7 225.7C454 226 454.3 226.3 454.6 226.6C454.7 226.7 454.8 226.8 454.9 226.9C455.1 227.1 455.3 227.3 455.5 227.5C455.6 227.6 455.8 227.7 455.9 227.8C456.1 228 456.3 228.1 456.5 228.3C456.6 228.4 456.8 228.5 456.9 228.6C457 228.7 457.2 228.8 457.3 228.9L457.4 229C457.9 229.3 458.3 229.7 458.8 230C458.9 230.1 458.9 230.1 459 230.1C459.4 230.4 459.8 230.6 460.3 230.9C460.4 230.9 460.4 231 460.5 231C460.6 231.1 460.7 231.1 460.7 231.1C461 231.3 461.2 231.4 461.5 231.6C461.7 231.7 461.8 231.8 462 231.9C462.3 232.1 462.6 232.2 462.9 232.4C463 232.5 463.1 232.5 463.2 232.6H463.3C463.6 232.7 463.9 232.9 464.2 233C464.4 233.1 464.5 233.2 464.7 233.2C465.1 233.4 465.5 233.6 465.8 233.7C465.9 233.7 465.9 233.8 466 233.8C466.4 234 466.9 234.2 467.3 234.4C467.4 234.4 467.5 234.5 467.6 234.5C467.9 234.6 468.3 234.8 468.7 234.9C468.9 235 469 235 469.2 235.1C469.5 235.2 469.8 235.3 470.1 235.4C470.3 235.5 470.5 235.5 470.7 235.6C471 235.7 471.3 235.8 471.5 235.9C471.5 235.9 471.5 235.9 471.6 235.9C471.8 235.9 471.9 236 472.1 236C472.4 236.1 472.7 236.2 473 236.3C473.2 236.4 473.4 236.4 473.6 236.5C473.9 236.6 474.2 236.7 474.5 236.7C474.6 236.7 474.6 236.7 474.7 236.7C474.8 236.7 475 236.8 475.1 236.8C475.4 236.9 475.8 237 476.1 237C476.3 237 476.5 237.1 476.7 237.1C477 237.2 477.3 237.2 477.7 237.3C477.8 237.3 477.9 237.3 478 237.4C478.1 237.4 478.2 237.4 478.2 237.4C478.7 237.5 479.2 237.6 479.7 237.6C479.8 237.6 479.9 237.6 479.9 237.6C480.5 237.7 481.1 237.7 481.6 237.8C481.7 237.8 481.7 237.8 481.8 237.8C482 237.8 482.1 237.8 482.3 237.8C482.6 237.8 482.8 237.8 483.1 237.9C483.3 237.9 483.5 237.9 483.8 237.9C484.1 237.9 484.3 237.9 484.6 237.9C484.8 237.9 485 237.9 485.3 237.9C485.6 237.9 485.8 237.9 486.1 237.9C486.3 237.9 486.5 237.9 486.8 237.9C487.1 237.9 487.3 237.9 487.6 237.9C487.7 237.9 487.8 237.9 487.9 237.9C488 237.9 488.1 237.9 488.1 237.9C488.6 237.9 489 237.8 489.5 237.8C489.6 237.8 489.7 237.8 489.8 237.8C490.3 237.8 490.9 237.7 491.4 237.6C491.5 237.6 491.7 237.6 491.8 237.5C492.2 237.4 492.6 237.4 493 237.3C493.2 237.3 493.3 237.2 493.5 237.2C494 237.1 494.5 237 495 236.8C495.1 236.8 495.3 236.7 495.4 236.7C495.5 236.7 495.7 236.6 495.8 236.6C496 236.5 496.2 236.5 496.4 236.4C496.6 236.3 496.8 236.3 497 236.2C497.2 236.1 497.4 236.1 497.6 236C497.8 235.9 498 235.9 498.1 235.8C498.3 235.7 498.5 235.6 498.7 235.6C498.9 235.5 499 235.5 499.2 235.4C499.4 235.3 499.6 235.2 499.7 235.2C499.8 235.2 499.8 235.1 499.9 235.1C500 235 500.2 235 500.3 234.9L500.4 234.8C500.7 234.6 500.9 234.5 501.2 234.3C501.3 234.3 501.3 234.2 501.4 234.2C501.6 234.1 501.8 233.9 502 233.8L502.1 233.7C502.1 233.7 502.1 233.7 502.2 233.7C502.4 233.5 502.6 233.4 502.8 233.2L502.9 233.1C503.1 232.9 503.3 232.7 503.5 232.6L503.6 232.5C503.7 232.4 503.7 232.4 503.8 232.3C503.9 232.2 503.9 232.2 504 232.1C504.1 232 504.2 231.9 504.3 231.7C504.4 231.6 504.5 231.5 504.6 231.4C504.7 231.3 504.8 231.1 504.9 231C504.9 230.9 505 230.9 505 230.8C505 230.7 505.1 230.7 505.1 230.6C505.2 230.5 505.3 230.3 505.4 230.2C505.5 230.1 505.6 230 505.6 229.8C505.7 229.7 505.8 229.5 505.8 229.4C505.8 229.3 505.9 229.3 505.9 229.2C505.9 229.2 505.9 229.1 506 229.1C506.1 229 506.1 228.8 506.2 228.7C506.3 228.6 506.3 228.5 506.4 228.3C506.5 228.2 506.5 228 506.6 227.9C506.6 227.8 506.7 227.7 506.7 227.6C506.7 227.5 506.8 227.4 506.8 227.3L511.7 210C511.8 210.6 511.7 210.8 511.6 210.9Z" fill="#2F58FF"/>
<path d="M516.7 191.3C519.2 186.6 517.9 180.5 512.3 174.7C502.7 164.9 484.2 159.7 471 163.1C463.3 165.1 459 169.6 458.8 175L457.7 184.3L474.3 201.3L491.4 207.2L507 201.4L514.5 196.6L516.7 191.3Z" fill="white"/>
<path d="M517.3 189.7C517.3 189.8 517.2 190 517.1 190.1C517.1 190.2 517 190.3 516.9 190.5C516.8 190.6 516.8 190.8 516.7 190.9C516.6 191 516.6 191.1 516.5 191.3C516.4 191.4 516.4 191.6 516.3 191.7C516.2 191.8 516.2 191.9 516.1 192.1C516 192.2 515.9 192.4 515.8 192.5C515.7 192.6 515.6 192.7 515.6 192.8C515.5 192.9 515.4 193.1 515.3 193.2C515.2 193.3 515.1 193.4 515 193.5C514.9 193.6 514.8 193.8 514.7 193.9C514.6 194 514.4 194.2 514.3 194.3L514.2 194.4C514 194.6 513.8 194.8 513.6 194.9L513.5 195C513.3 195.2 513.1 195.3 512.8 195.5L512.7 195.6C512.5 195.7 512.3 195.9 512.1 196C512 196 512 196.1 511.9 196.1C511.6 196.3 511.4 196.4 511.1 196.6L511 196.7C510.8 196.8 510.6 196.9 510.4 197C510.2 197.1 510.1 197.2 509.9 197.2C509.7 197.3 509.6 197.4 509.4 197.4C509.2 197.5 509 197.6 508.8 197.6C508.6 197.7 508.5 197.7 508.3 197.8C508.1 197.9 507.9 197.9 507.7 198C507.5 198.1 507.3 198.1 507.1 198.2C506.9 198.3 506.7 198.3 506.5 198.4C506.2 198.5 506 198.6 505.7 198.6C505.2 198.7 504.7 198.8 504.2 199C504 199 503.9 199.1 503.7 199.1C503.3 199.2 502.9 199.2 502.5 199.3C502.4 199.3 502.2 199.3 502.1 199.4C501.6 199.5 501 199.5 500.5 199.6C500.4 199.6 500.3 199.6 500.2 199.6C499.7 199.6 499.3 199.7 498.8 199.7C498.6 199.7 498.4 199.7 498.2 199.7C497.9 199.7 497.7 199.7 497.4 199.7C497.2 199.7 497 199.7 496.7 199.7C496.4 199.7 496.2 199.7 495.9 199.7C495.7 199.7 495.5 199.7 495.2 199.7C494.9 199.7 494.7 199.7 494.4 199.7C494.2 199.7 494 199.7 493.7 199.7C493.4 199.7 493.2 199.7 492.9 199.6C492.7 199.6 492.5 199.6 492.3 199.5C491.7 199.4 491.1 199.4 490.6 199.3C490.5 199.3 490.4 199.3 490.4 199.3C489.9 199.2 489.4 199.2 488.9 199.1C488.7 199.1 488.5 199 488.3 199C488 198.9 487.7 198.9 487.3 198.8C487.1 198.8 486.9 198.7 486.7 198.7C486.4 198.6 486 198.6 485.7 198.5C485.5 198.5 485.3 198.4 485.1 198.4C484.8 198.3 484.5 198.3 484.2 198.2C484 198.1 483.8 198.1 483.6 198C483.3 197.9 483 197.8 482.7 197.7C482.5 197.6 482.3 197.6 482.2 197.5C481.9 197.4 481.6 197.3 481.4 197.2C481.2 197.1 481 197.1 480.8 197C480.5 196.9 480.2 196.8 479.9 196.7C479.7 196.6 479.6 196.6 479.4 196.5C479 196.4 478.7 196.2 478.3 196.1C478.2 196.1 478.1 196 478 196C477.5 195.8 477.1 195.6 476.7 195.4C476.6 195.4 476.6 195.3 476.5 195.3C476.1 195.1 475.7 195 475.4 194.8C475.2 194.7 475.1 194.6 474.9 194.6C474.6 194.5 474.3 194.3 474 194.2C473.9 194.1 473.7 194 473.6 194C473.3 193.8 473 193.7 472.7 193.5C472.5 193.4 472.4 193.3 472.2 193.2C471.9 193 471.6 192.9 471.4 192.7C471.2 192.6 471.1 192.5 470.9 192.4C470.5 192.1 470.1 191.9 469.6 191.6C469.5 191.6 469.4 191.5 469.4 191.5C468.9 191.2 468.5 190.8 468 190.5C467.8 190.4 467.6 190.2 467.5 190.1C467.4 190 467.2 189.9 467.1 189.8C466.9 189.6 466.7 189.5 466.5 189.3C466.4 189.2 466.2 189.1 466.1 189C465.9 188.8 465.7 188.6 465.5 188.4C465.4 188.3 465.3 188.2 465.2 188.1C464.9 187.8 464.6 187.5 464.3 187.2C459.5 182.3 457.8 177.1 459 172.7L454.1 190C452.9 194.4 454.5 199.5 459.4 204.5C459.7 204.8 460 205.1 460.3 205.4C460.4 205.5 460.5 205.6 460.6 205.7C460.8 205.9 461 206.1 461.2 206.3C461.3 206.4 461.5 206.5 461.6 206.6C461.8 206.8 462 206.9 462.2 207.1C462.3 207.2 462.5 207.3 462.6 207.4C462.7 207.5 462.9 207.6 463 207.7L463.1 207.8C463.6 208.1 464 208.5 464.5 208.8C464.6 208.9 464.6 208.9 464.7 208.9C465.1 209.2 465.5 209.4 466 209.7C466.1 209.7 466.1 209.8 466.2 209.8C466.3 209.9 466.4 209.9 466.4 209.9C466.7 210.1 466.9 210.2 467.2 210.4C467.4 210.5 467.5 210.6 467.7 210.7C468 210.9 468.3 211 468.6 211.2C468.7 211.3 468.8 211.3 468.9 211.4H469C469.3 211.5 469.6 211.7 469.9 211.8C470.1 211.9 470.2 212 470.4 212C470.8 212.2 471.2 212.4 471.5 212.5C471.6 212.5 471.6 212.6 471.7 212.6C472.1 212.8 472.6 213 473 213.2C473.1 213.2 473.2 213.3 473.3 213.3C473.6 213.4 474 213.6 474.4 213.7C474.6 213.8 474.7 213.8 474.9 213.9C475.2 214 475.5 214.1 475.8 214.2C476 214.3 476.2 214.3 476.4 214.4C476.7 214.5 477 214.6 477.2 214.7C477.2 214.7 477.2 214.7 477.3 214.7C477.5 214.7 477.6 214.8 477.8 214.8C478.1 214.9 478.4 215 478.7 215.1C478.9 215.2 479.1 215.2 479.3 215.3C479.6 215.4 479.9 215.5 480.2 215.5C480.3 215.5 480.3 215.5 480.4 215.5C480.5 215.5 480.7 215.6 480.8 215.6C481.1 215.7 481.5 215.8 481.8 215.8C482 215.8 482.2 215.9 482.4 215.9C482.7 216 483 216 483.4 216.1C483.5 216.1 483.6 216.1 483.7 216.2C483.8 216.2 483.9 216.2 483.9 216.2C484.4 216.3 484.9 216.4 485.4 216.4C485.5 216.4 485.6 216.4 485.6 216.4C486.2 216.5 486.8 216.5 487.3 216.6C487.4 216.6 487.4 216.6 487.5 216.6C487.7 216.6 487.8 216.6 488 216.6C488.3 216.6 488.5 216.6 488.8 216.7C489 216.7 489.2 216.7 489.5 216.7C489.8 216.7 490 216.7 490.3 216.7C490.5 216.7 490.7 216.7 491 216.7C491.3 216.7 491.5 216.7 491.8 216.7C492 216.7 492.2 216.7 492.5 216.7C492.8 216.7 493 216.7 493.3 216.7C493.4 216.7 493.5 216.7 493.6 216.7C493.7 216.7 493.8 216.7 493.8 216.7C494.3 216.7 494.7 216.6 495.2 216.6C495.3 216.6 495.4 216.6 495.5 216.6C496 216.6 496.6 216.5 497.1 216.4C497.2 216.4 497.4 216.4 497.5 216.3C497.9 216.2 498.3 216.2 498.7 216.1C498.9 216.1 499 216 499.2 216C499.7 215.9 500.2 215.8 500.7 215.6C500.8 215.6 501 215.5 501.1 215.5C501.2 215.5 501.4 215.4 501.5 215.4C501.7 215.3 501.9 215.3 502.1 215.2C502.3 215.1 502.5 215.1 502.7 215C502.9 214.9 503.1 214.9 503.3 214.8C503.5 214.7 503.7 214.7 503.8 214.6C504 214.5 504.2 214.4 504.4 214.4C504.6 214.3 504.7 214.3 504.9 214.2C505.1 214.1 505.3 214 505.4 214C505.5 214 505.5 213.9 505.6 213.9C505.7 213.8 505.9 213.8 506 213.7L506.1 213.6C506.4 213.4 506.6 213.3 506.9 213.1C507 213.1 507 213 507.1 213C507.3 212.9 507.5 212.7 507.7 212.6L507.8 212.5C507.8 212.5 507.8 212.5 507.9 212.5C508.1 212.3 508.3 212.2 508.5 212L508.6 211.9C508.8 211.7 509 211.5 509.2 211.4L509.3 211.3C509.4 211.2 509.4 211.2 509.5 211.1C509.6 211 509.6 211 509.7 210.9C509.8 210.8 509.9 210.7 510 210.5C510.1 210.4 510.2 210.3 510.3 210.2C510.4 210.1 510.5 209.9 510.6 209.8C510.6 209.7 510.7 209.7 510.7 209.6C510.7 209.5 510.8 209.5 510.8 209.4C510.9 209.3 511 209.1 511.1 209C511.2 208.9 511.3 208.8 511.3 208.6C511.4 208.5 511.5 208.3 511.5 208.2C511.5 208.1 511.6 208.1 511.6 208C511.6 208 511.6 207.9 511.7 207.9C511.8 207.8 511.8 207.6 511.9 207.5C512 207.4 512 207.3 512.1 207.1C512.2 207 512.2 206.8 512.3 206.7C512.3 206.6 512.4 206.5 512.4 206.4C512.4 206.3 512.5 206.2 512.5 206.1L517.4 188.8C517.5 189.3 517.4 189.5 517.3 189.7Z" fill="#2F58FF"/>
<path d="M522.3 170C524.8 165.3 523.5 159.2 517.9 153.4C508.3 143.6 489.8 138.4 476.6 141.8C468.9 143.8 464.6 148.3 464.4 153.7L463.3 163L479.9 180L497 185.9L512.6 180.1L520.1 175.3L522.3 170Z" fill="white"/>
<path d="M523 168.4C523 168.5 522.9 168.7 522.8 168.8C522.8 168.9 522.7 169 522.6 169.2C522.5 169.3 522.5 169.5 522.4 169.6C522.3 169.7 522.3 169.8 522.2 170C522.1 170.1 522.1 170.3 522 170.4C521.9 170.5 521.9 170.6 521.8 170.8C521.7 170.9 521.6 171.1 521.5 171.2C521.4 171.3 521.3 171.4 521.3 171.5C521.2 171.6 521.1 171.8 521 171.9C520.9 172 520.8 172.1 520.7 172.2C520.6 172.3 520.5 172.5 520.4 172.6C520.3 172.7 520.1 172.9 520 173L519.9 173.1C519.7 173.3 519.5 173.5 519.3 173.6L519.2 173.7C519 173.9 518.8 174 518.5 174.2L518.4 174.3C518.2 174.4 518 174.6 517.8 174.7C517.7 174.7 517.7 174.8 517.6 174.8C517.3 175 517.1 175.1 516.8 175.3L516.7 175.4C516.5 175.5 516.3 175.6 516.1 175.7C515.9 175.8 515.8 175.9 515.6 175.9C515.4 176 515.3 176.1 515.1 176.1C514.9 176.2 514.7 176.3 514.5 176.3C514.3 176.4 514.2 176.4 514 176.5C513.8 176.6 513.6 176.6 513.4 176.7C513.2 176.8 513 176.8 512.8 176.9C512.6 177 512.4 177 512.2 177.1C511.9 177.2 511.7 177.3 511.4 177.3C510.9 177.4 510.4 177.5 509.9 177.7C509.7 177.7 509.6 177.8 509.4 177.8C509 177.9 508.6 177.9 508.2 178C508.1 178 507.9 178 507.8 178.1C507.3 178.2 506.7 178.2 506.2 178.3C506.1 178.3 506 178.3 505.9 178.3C505.4 178.3 505 178.4 504.5 178.4C504.3 178.4 504.1 178.4 503.9 178.4C503.6 178.4 503.4 178.4 503.1 178.4C502.9 178.4 502.7 178.4 502.4 178.4C502.1 178.4 501.9 178.4 501.6 178.4C501.4 178.4 501.2 178.4 500.9 178.4C500.6 178.4 500.4 178.4 500.1 178.4C499.9 178.4 499.7 178.4 499.4 178.4C499.1 178.4 498.9 178.4 498.6 178.3C498.4 178.3 498.2 178.3 498 178.2C497.4 178.1 496.8 178.1 496.3 178C496.2 178 496.1 178 496.1 178C495.6 177.9 495.1 177.9 494.6 177.8C494.4 177.8 494.2 177.7 494 177.7C493.7 177.6 493.4 177.6 493 177.5C492.8 177.5 492.6 177.4 492.4 177.4C492.1 177.3 491.7 177.3 491.4 177.2C491.2 177.2 491 177.1 490.8 177.1C490.5 177 490.2 177 489.9 176.9C489.7 176.8 489.5 176.8 489.3 176.7C489 176.6 488.7 176.5 488.4 176.4C488.2 176.3 488 176.3 487.9 176.2C487.6 176.1 487.3 176 487.1 175.9C486.9 175.8 486.7 175.8 486.5 175.7C486.2 175.6 485.9 175.5 485.6 175.4C485.4 175.3 485.3 175.3 485.1 175.2C484.7 175.1 484.4 174.9 484 174.8C483.9 174.8 483.8 174.7 483.7 174.7C483.2 174.5 482.8 174.3 482.4 174.1C482.3 174.1 482.3 174 482.2 174C481.8 173.8 481.4 173.7 481.1 173.5C480.9 173.4 480.8 173.3 480.6 173.3C480.3 173.2 480 173 479.7 172.9C479.6 172.8 479.4 172.7 479.3 172.7C479 172.5 478.7 172.4 478.4 172.2C478.2 172.1 478.1 172 477.9 171.9C477.6 171.7 477.3 171.6 477.1 171.4C476.9 171.3 476.8 171.2 476.6 171.1C476.2 170.8 475.8 170.6 475.3 170.3C475.2 170.3 475.1 170.2 475.1 170.2C474.6 169.9 474.2 169.5 473.7 169.2C473.5 169.1 473.3 168.9 473.2 168.8C473.1 168.7 472.9 168.6 472.8 168.5C472.6 168.3 472.4 168.2 472.2 168C472.1 167.9 471.9 167.8 471.8 167.7C471.6 167.5 471.4 167.3 471.2 167.1C471.1 167 471 166.9 470.9 166.8C470.6 166.5 470.3 166.2 470 165.9C465.2 161 463.5 155.8 464.7 151.4L459.8 168.7C458.6 173.1 460.2 178.2 465.1 183.2C465.4 183.5 465.7 183.8 466 184.1C466.1 184.2 466.2 184.3 466.3 184.4C466.5 184.6 466.7 184.8 466.9 185C467 185.1 467.2 185.2 467.3 185.3C467.5 185.5 467.7 185.6 467.9 185.8C468 185.9 468.2 186 468.3 186.1C468.4 186.2 468.6 186.3 468.7 186.4L468.8 186.5C469.3 186.8 469.7 187.2 470.2 187.5C470.3 187.6 470.3 187.6 470.4 187.6C470.8 187.9 471.2 188.1 471.7 188.4C471.8 188.4 471.8 188.5 471.9 188.5C472 188.6 472.1 188.6 472.1 188.6C472.4 188.8 472.6 188.9 472.9 189.1C473.1 189.2 473.2 189.3 473.4 189.4C473.7 189.6 474 189.7 474.3 189.9C474.4 190 474.5 190 474.6 190.1H474.7C475 190.2 475.3 190.4 475.6 190.5C475.8 190.6 475.9 190.7 476.1 190.7C476.5 190.9 476.9 191.1 477.2 191.2C477.3 191.2 477.3 191.3 477.4 191.3C477.8 191.5 478.3 191.7 478.7 191.9C478.8 191.9 478.9 192 479 192C479.3 192.1 479.7 192.3 480.1 192.4C480.3 192.5 480.4 192.5 480.6 192.6C480.9 192.7 481.2 192.8 481.5 192.9C481.7 193 481.9 193 482.1 193.1C482.4 193.2 482.7 193.3 482.9 193.4C482.9 193.4 482.9 193.4 483 193.4C483.2 193.4 483.3 193.5 483.5 193.5C483.8 193.6 484.1 193.7 484.4 193.8C484.6 193.9 484.8 193.9 485 194C485.3 194.1 485.6 194.2 485.9 194.2C486 194.2 486 194.2 486.1 194.2C486.2 194.2 486.4 194.3 486.5 194.3C486.8 194.4 487.2 194.5 487.5 194.5C487.7 194.5 487.9 194.6 488.1 194.6C488.4 194.7 488.7 194.7 489.1 194.8C489.2 194.8 489.3 194.8 489.4 194.9C489.5 194.9 489.6 194.9 489.6 194.9C490.1 195 490.6 195.1 491.1 195.1C491.2 195.1 491.3 195.1 491.3 195.1C491.9 195.2 492.5 195.2 493 195.3C493.1 195.3 493.1 195.3 493.2 195.3C493.4 195.3 493.5 195.3 493.7 195.3C494 195.3 494.2 195.3 494.5 195.4C494.7 195.4 494.9 195.4 495.2 195.4C495.5 195.4 495.7 195.4 496 195.4C496.2 195.4 496.4 195.4 496.7 195.4C497 195.4 497.2 195.4 497.5 195.4C497.7 195.4 497.9 195.4 498.2 195.4C498.5 195.4 498.7 195.4 499 195.4C499.1 195.4 499.2 195.4 499.3 195.4C499.4 195.4 499.5 195.4 499.5 195.4C500 195.4 500.4 195.3 500.9 195.3C501 195.3 501.1 195.3 501.2 195.3C501.7 195.3 502.3 195.2 502.8 195.1C502.9 195.1 503.1 195.1 503.2 195C503.6 194.9 504 194.9 504.4 194.8C504.6 194.8 504.7 194.7 504.9 194.7C505.4 194.6 505.9 194.5 506.4 194.3C506.5 194.3 506.7 194.2 506.8 194.2C506.9 194.2 507.1 194.1 507.2 194.1C507.4 194 507.6 194 507.8 193.9C508 193.8 508.2 193.8 508.4 193.7C508.6 193.6 508.8 193.6 509 193.5C509.2 193.4 509.4 193.4 509.5 193.3C509.7 193.2 509.9 193.1 510.1 193.1C510.3 193 510.4 193 510.6 192.9C510.8 192.8 511 192.7 511.1 192.7C511.2 192.7 511.2 192.6 511.3 192.6C511.4 192.5 511.6 192.5 511.7 192.4L511.8 192.3C512.1 192.1 512.3 192 512.6 191.8C512.7 191.8 512.7 191.7 512.8 191.7C513 191.6 513.2 191.4 513.4 191.3L513.5 191.2C513.5 191.2 513.5 191.2 513.6 191.2C513.8 191 514 190.9 514.2 190.7L514.3 190.6C514.5 190.4 514.7 190.2 514.9 190.1L515 190C515.1 189.9 515.1 189.9 515.2 189.8C515.3 189.7 515.3 189.7 515.4 189.6C515.5 189.5 515.6 189.4 515.7 189.2C515.8 189.1 515.9 189 516 188.9C516.1 188.8 516.2 188.6 516.3 188.5C516.3 188.4 516.4 188.4 516.4 188.3C516.4 188.2 516.5 188.2 516.5 188.1C516.6 188 516.7 187.8 516.8 187.7C516.9 187.6 517 187.5 517 187.3C517.1 187.2 517.2 187 517.2 186.9C517.2 186.8 517.3 186.8 517.3 186.7C517.3 186.7 517.3 186.6 517.4 186.6C517.5 186.5 517.5 186.3 517.6 186.2C517.7 186.1 517.7 186 517.8 185.8C517.9 185.7 517.9 185.5 518 185.4C518 185.3 518.1 185.2 518.1 185.1C518.1 185 518.2 184.9 518.2 184.8L523.1 167.5C523.1 168.1 523.1 168.3 523 168.4Z" fill="#2F58FF"/>
<path d="M464.4 153.7C464.6 148.3 468.9 143.8 476.6 141.8C489.8 138.4 508.3 143.6 517.9 153.4C523.5 159.2 524.8 165.2 522.3 170" stroke="#171A21" stroke-width="2" stroke-miterlimit="10" stroke-linecap="round" stroke-linejoin="round"/>
<path d="M57.3001 208.3C57.2001 208.3 57.1001 208.3 57.1001 208.4C57.1001 208.4 57.0001 208.4 57.0001 208.5L49.7001 212.3L65.9001 208L73.2001 204.2C73.3001 204.1 73.4001 204.1 73.5001 204.1L57.3001 208.3Z" fill="#2F58FF"/>
<path d="M82.1 286.5L73.7 280.1L57.5 284.4L65.9 290.8C66.6 291.4 67.3 291.5 68 291.4L84.2 287.1C83.6 287.2 82.9 287 82.1 286.5Z" fill="#2F58FF"/>
<path d="M60 222.6C59.7 222.2 59.3 221.8 59 221.5C55 217.5 50.8 216.2 47.3 217.1L31 221.4C34.6 220.5 38.8 221.8 42.7 225.8C43.1 226.2 43.4 226.5 43.7 226.9C43.8 227 43.8 227.1 43.9 227.1C44.2 227.5 44.6 227.9 44.9 228.3C45 228.4 45.1 228.5 45.2 228.6C45.3 228.8 45.5 229 45.6 229.2C45.7 229.3 45.8 229.5 45.9 229.6C46 229.8 46.2 230 46.3 230.2C46.4 230.3 46.4 230.4 46.5 230.5C46.8 231 47.1 231.5 47.5 232.1C47.5 232.2 47.6 232.3 47.6 232.4C47.9 232.9 48.1 233.3 48.3 233.8C48.3 233.8 48.3 233.9 48.4 233.9C48.6 234.4 48.9 234.8 49.1 235.3C49.2 235.4 49.2 235.5 49.3 235.7C49.5 236.1 49.7 236.5 49.8 236.9C49.8 237 49.9 237 49.9 237.1C50.1 237.6 50.3 238 50.4 238.5C50.4 238.6 50.5 238.7 50.5 238.9C50.6 239.3 50.8 239.7 50.9 240C50.9 240.1 51 240.2 51 240.4C51.1 240.9 51.3 241.4 51.4 241.9C51.4 242 51.4 242.1 51.5 242.2C51.6 242.6 51.7 243.1 51.8 243.5C51.8 243.6 51.9 243.8 51.9 243.9C52 244.4 52.1 245 52.2 245.5C52.2 245.6 52.2 245.7 52.2 245.7C52.3 246.3 52.4 246.8 52.4 247.4C52.4 247.5 52.4 247.5 52.4 247.6C52.5 248.3 52.6 249 52.6 249.7C52.6 249.8 52.6 249.9 52.6 250C52.6 250.4 52.7 250.9 52.7 251.3C52.7 251.7 52.7 252.2 52.7 252.6C52.7 252.7 52.7 252.8 52.7 252.9C52.7 253.5 52.7 254 52.6 254.6V254.7C52.6 255.3 52.5 255.8 52.4 256.4C52.4 256.5 52.4 256.6 52.4 256.7C52.3 257.2 52.2 257.8 52.1 258.3C52.1 258.4 52.1 258.5 52 258.6C51.9 259.1 51.8 259.7 51.6 260.2C51.5 260.6 51.4 261 51.2 261.4C51.2 261.5 51.1 261.6 51.1 261.7C51 262 50.9 262.3 50.8 262.6C50.8 262.7 50.7 262.8 50.7 262.9C50.6 263.2 50.5 263.4 50.4 263.7C50.4 263.8 50.3 263.8 50.3 263.9C50.1 264.2 50 264.5 49.8 264.8C49.7 265 49.6 265.1 49.5 265.3C49.5 265.4 49.4 265.5 49.4 265.5C49.2 265.7 49.1 266 48.9 266.2C48.7 266.5 48.4 266.8 48.1 267.1C48 267.2 48 267.2 47.9 267.3C47.7 267.6 47.4 267.8 47.2 268L47.1 268.1C46.9 268.3 46.7 268.4 46.5 268.6C46.4 268.6 46.4 268.7 46.3 268.7C46 268.9 45.8 269 45.5 269.2C45.3 269.3 45 269.5 44.7 269.6C44.6 269.6 44.5 269.7 44.5 269.7C44.3 269.8 44 269.9 43.8 269.9C43.7 269.9 43.6 270 43.6 270L59.8 265.7H59.9H60C60.2 265.6 60.5 265.6 60.7 265.5H60.8H60.9C61.2 265.4 61.4 265.3 61.7 265.1C62 265 62.2 264.8 62.5 264.6C62.5 264.6 62.6 264.6 62.6 264.5L62.7 264.4C62.9 264.2 63.1 264.1 63.3 263.9L63.4 263.8C63.7 263.6 63.9 263.3 64.1 263.1C64.1 263.1 64.1 263.1 64.2 263L64.3 262.9C64.6 262.6 64.8 262.3 65.1 262C65.3 261.8 65.4 261.6 65.6 261.3C65.6 261.2 65.7 261.1 65.7 261.1C65.8 261 65.9 260.8 66 260.7C66.2 260.4 66.3 260.1 66.5 259.8C66.5 259.7 66.6 259.7 66.6 259.6C66.7 259.3 66.8 259.1 66.9 258.8V258.7C66.9 258.6 66.9 258.6 67 258.5C67.1 258.2 67.2 257.9 67.3 257.6C67.3 257.5 67.4 257.4 67.4 257.3C67.5 256.9 67.7 256.5 67.8 256.1C67.9 255.6 68.1 255 68.2 254.5C68.2 254.4 68.2 254.3 68.3 254.2C68.4 253.7 68.5 253.1 68.6 252.6C68.6 252.5 68.6 252.4 68.6 252.3C68.7 251.7 68.7 251.2 68.8 250.6V250.5C68.8 250 68.9 249.4 68.9 248.8C68.9 248.7 68.9 248.7 68.9 248.6V248.5C68.9 248.1 68.9 247.6 68.9 247.2C68.9 246.8 68.9 246.3 68.8 245.9V245.8V245.7C68.7 245 68.7 244.3 68.6 243.6C68.6 243.6 68.6 243.6 68.6 243.5C68.6 243.4 68.6 243.4 68.6 243.3C68.5 242.7 68.4 242.2 68.4 241.6C68.4 241.5 68.4 241.5 68.4 241.4V241.3C68.3 240.8 68.2 240.2 68.1 239.7C68.1 239.6 68.1 239.6 68.1 239.5C68.1 239.4 68.1 239.3 68 239.3C67.9 238.9 67.8 238.4 67.7 238C67.7 237.9 67.7 237.9 67.7 237.8C67.7 237.8 67.7 237.8 67.7 237.7C67.6 237.2 67.4 236.7 67.3 236.2V236.1C67.3 236 67.2 235.9 67.2 235.9C67.1 235.5 67 235.1 66.8 234.8C66.8 234.7 66.8 234.6 66.7 234.6C66.7 234.6 66.7 234.5 66.6 234.5C66.4 234 66.3 233.6 66.1 233.1C66.1 233 66.1 233 66 233C65.8 232.6 65.7 232.2 65.5 231.8C65.5 231.7 65.4 231.7 65.4 231.6C65.4 231.5 65.3 231.5 65.3 231.4C65.1 230.9 64.9 230.4 64.6 230V229.9C64.4 229.4 64.1 229 63.8 228.5C63.8 228.4 63.7 228.4 63.7 228.3C63.7 228.3 63.7 228.2 63.6 228.2C63.3 227.7 63 227.1 62.6 226.6L62.5 226.5C62.5 226.4 62.4 226.4 62.4 226.3C62.3 226.1 62.1 225.9 62 225.7C61.9 225.6 61.8 225.4 61.7 225.3C61.6 225.1 61.4 224.9 61.3 224.7C61.2 224.6 61.2 224.5 61.1 224.4C61.1 224.4 61.1 224.4 61 224.3C60.7 223.9 60.4 223.5 60 223.1C60.1 222.7 60.1 222.7 60 222.6Z" fill="#2F58FF"/>
<path d="M20.7001 248.3L26.5 241C26.3 240 26.2001 239.1 26.1 238.1C26.1 237.8 26 237.4 26 237.1C26 236.8 25.9 236.5 25.9 236.1C25.9 235.7 25.8 235.3 25.8 234.9C25.8 234.6 25.7001 234.3 25.7001 234C25.7001 233.4 25.6 232.8 25.6 232.2L18 222.6C17.8 222.4 17.7001 222.2 17.5 221.9C17.5 221.9 17.5 221.8 17.4 221.8C17.3 221.6 17.1 221.3 17 221.1C16.9 220.8 16.8001 220.6 16.7001 220.3C16.7001 220.3 16.7001 220.3 16.7001 220.2C16.6 219.9 16.5 219.6 16.5 219.4C16.4 219.1 16.4 218.8 16.3 218.5C16.3 218.5 16.3 218.5 16.3 218.4C16.3 218.1 16.3 217.9 16.3 217.7V217.6C16.3 217.4 16.3 217.2 16.3 217C16.3 216.9 16.3 216.8 16.3 216.7C16.3 216.4 16.4 216.2 16.4 215.9L19 206.3L33.5 202.5C33.8 202.1 34.1 201.8 34.5 201.5C34.6 201.5 34.6001 201.4 34.7001 201.4C35 201.1 35.2001 200.9 35.5 200.7C35.6 200.6 35.7001 200.6 35.8 200.5C36.1 200.3 36.4001 200 36.7001 199.8L36.8 199.7C37.2001 199.4 37.5 199.2 37.9001 199L37.6 185.7C37.6 185.5 37.6 185.3 37.6 185.1C37.6 185 37.6 184.9 37.6 184.8C37.6 184.5 37.7001 184.3 37.8 184C37.8 183.8 37.9001 183.7 38 183.5C38 183.5 38 183.4 38.1 183.4C38.1 183.3 38.2001 183.2 38.2001 183.1L38.3 183L38.4001 182.9C38.4001 182.8 38.5 182.8 38.5 182.7L38.6 182.6C38.6 182.5 38.7001 182.5 38.8 182.4C38.8 182.4 38.8001 182.4 38.9001 182.3C39 182.2 39 182.2 39.1 182.1C39.2 182.1 39.2001 182 39.3 182C39.3 182 39.3001 182 39.4001 182C39.5 182 39.6001 181.9 39.7001 181.9L23.3 186C23.2 186 23.2001 186 23.1 186.1C23.1 186.1 23.1 186.1 23 186.1H22.9C22.9 186.1 22.8 186.1 22.8 186.2C22.7 186.2 22.7001 186.3 22.6 186.3C22.6 186.3 22.6 186.3 22.5 186.4L22.4 186.5C22.4 186.5 22.4 186.5 22.3 186.6L22.2001 186.7C22.2001 186.7 22.2001 186.7 22.1 186.8C22.1 186.8 22.1 186.9 22 186.9L21.9 187C21.9 187 21.9 187 21.9 187.1V187.2C21.9 187.3 21.8 187.4 21.8 187.5V187.6C21.8 187.6 21.8 187.6 21.8 187.7C21.7 187.9 21.7001 188 21.6 188.2C21.5 188.4 21.5 188.7 21.4 189C21.4 189.1 21.4 189.2 21.4 189.3C21.4 189.5 21.4 189.7 21.4 189.8V189.9L21.5 196L6.90005 199.9C6.80005 199.9 6.80005 199.9 6.70005 200C6.70005 200 6.70005 200 6.60005 200H6.50005C6.50005 200 6.40005 200 6.40005 200.1C6.40005 200.1 6.40005 200.1 6.30005 200.1C6.20005 200.1 6.20005 200.2 6.10005 200.2L6.00005 200.3C6.00005 200.3 6.00005 200.3 6.00005 200.4C6.00005 200.4 6.00005 200.5 5.90005 200.5C5.90005 200.5 5.90005 200.5 5.80005 200.6C5.80005 200.6 5.80005 200.7 5.70005 200.7L5.60005 200.8C5.60005 200.8 5.60005 200.8 5.60005 200.9V201C5.60005 201.1 5.50005 201.2 5.50005 201.3V201.4C5.50005 201.4 5.50005 201.4 5.50005 201.5C5.40005 201.7 5.40005 201.8 5.30005 202L0.400049 220.3C0.300049 220.6 0.300049 220.8 0.300049 221.1C0.300049 221.2 0.300049 221.3 0.300049 221.4C0.300049 221.6 0.300049 221.7 0.300049 221.9C0.300049 221.9 0.300049 221.9 0.300049 222V222.1C0.300049 222.2 0.300049 222.4 0.300049 222.5C0.300049 222.6 0.300049 222.7 0.300049 222.9C0.300049 222.9 0.300049 222.9 0.300049 223C0.300049 223.1 0.300049 223.3 0.400049 223.4C0.400049 223.5 0.400049 223.7 0.500049 223.8C0.500049 223.9 0.500049 224 0.600049 224.1C0.600049 224.2 0.700049 224.3 0.700049 224.4C0.700049 224.5 0.700049 224.5 0.800049 224.6C0.800049 224.6 0.800049 224.6 0.800049 224.7V224.8C0.800049 224.9 0.900049 225 0.900049 225.1C0.900049 225.2 1.00005 225.3 1.00005 225.4C1.00005 225.4 1.00005 225.4 1.00005 225.5C1.00005 225.6 1.10005 225.7 1.10005 225.7C1.20005 225.8 1.20005 225.9 1.30005 226.1L1.40005 226.2C1.40005 226.2 1.40005 226.3 1.50005 226.3C1.50005 226.4 1.60005 226.4 1.60005 226.5C1.70005 226.7 1.80005 226.8 1.90005 226.9C1.90005 226.9 1.90005 227 2.00005 227L9.60005 236.6C9.60005 237.1 9.70005 237.6 9.70005 238C9.70005 238.1 9.70005 238.3 9.70005 238.4C9.70005 238.7 9.80005 239 9.80005 239.3C9.80005 239.7 9.90005 240.1 9.90005 240.5C9.90005 240.8 10 241.1 10 241.5C10 241.7 10 241.9 10.1 242.1C10.1 242.2 10.1 242.3 10.2 242.5C10.3 243.5 10.5 244.4 10.6 245.4L4.80005 252.7C4.80005 252.7 4.80005 252.7 4.80005 252.8C4.70005 252.9 4.70005 253 4.60005 253.1C4.60005 253.2 4.50005 253.2 4.50005 253.3C4.50005 253.3 4.50005 253.4 4.40005 253.4V253.5C4.30005 253.7 4.30005 253.9 4.20005 254.1C4.10005 254.3 4.10005 254.6 4.10005 254.8C4.10005 254.9 4.10005 254.9 4.10005 255C4.10005 255.2 4.10005 255.4 4.10005 255.5V255.6V255.7C4.10005 255.8 4.10005 255.9 4.10005 256C4.10005 256.1 4.10005 256.1 4.10005 256.2C4.10005 256.3 4.10005 256.3 4.10005 256.4C4.10005 256.5 4.10005 256.5 4.10005 256.6V256.7C4.10005 256.8 4.10005 257 4.20005 257.1C4.20005 257.1 4.20005 257.1 4.20005 257.2V257.3C4.20005 257.4 4.20005 257.4 4.20005 257.5C4.20005 257.6 4.30005 257.7 4.30005 257.9C4.30005 257.9 4.30005 257.9 4.30005 258C4.30005 258.1 4.30005 258.2 4.40005 258.3C4.40005 258.4 4.50005 258.5 4.50005 258.6C4.50005 258.6 4.50005 258.6 4.50005 258.7C4.50005 258.8 4.60005 258.9 4.60005 258.9C4.60005 259 4.70005 259.1 4.70005 259.2L13.8 279.7C13.8 279.7 13.8 279.7 13.8 279.8C13.9 279.9 13.9 280 14 280.1C14.1 280.2 14.1 280.3 14.2 280.5C14.3 280.6 14.3 280.7 14.4 280.9C14.5 281 14.5 281 14.6 281.1L14.7 281.2C14.7 281.2 14.7 281.3 14.8 281.3C14.9 281.5 15 281.6 15.2 281.7C15.2 281.7 15.2 281.7 15.3 281.8C15.4 281.9 15.6 282 15.7 282.2L15.8 282.3C15.9 282.4 16.1 282.5 16.2 282.6C16.2 282.6 16.3 282.6 16.3 282.7C16.5 282.8 16.6 282.8 16.8 282.9H16.9C17 282.9 17.1 282.9 17.3 283H17.4C17.6 283 17.7 283 17.9 282.9L26.9 280.5C28.2 281.9 29.5 283.1 30.8 284.2L33.5 297.9C33.5 298 33.5 298 33.5 298.1C33.5 298.2 33.6 298.3 33.6 298.5C33.6 298.6 33.7001 298.7 33.7001 298.9C33.7001 299 33.8 299.1 33.8 299.2C33.8 299.3 33.9001 299.4 33.9001 299.5C33.9001 299.6 34 299.7 34 299.7C34 299.7 34 299.7 34 299.8C34 299.8 34 299.8 34 299.9C34.1 300 34.1001 300.1 34.2001 300.2C34.3 300.3 34.3001 300.4 34.4001 300.6C34.5 300.7 34.5 300.8 34.6 300.9C34.7 301 34.7001 301.1 34.8 301.2L34.9001 301.3C34.9001 301.3 34.9001 301.3 34.9001 301.4C35 301.5 35.1001 301.6 35.2001 301.7C35.3 301.8 35.3001 301.9 35.4001 301.9C35.5 302 35.6001 302.1 35.7001 302.2C35.8 302.3 35.8001 302.3 35.9001 302.4C36 302.5 36.2001 302.6 36.3 302.6C36.4 302.6 36.4001 302.7 36.5 302.7C36.7001 302.8 36.9 302.9 37.1 302.9L51 305.2C51.3 305.3 51.6 305.2 51.8 305.2L68 300.9C67.7 301 67.5 301 67.2 300.9L53 298.5C52.8 298.5 52.6001 298.4 52.4001 298.3C52.3001 298.3 52.3 298.2 52.2001 298.2C52.1001 298.1 51.9 298.1 51.8 298C51.7001 297.9 51.7 297.9 51.6 297.8C51.5 297.7 51.4 297.6 51.3 297.5C51.2001 297.4 51.2 297.3 51.1 297.2C51 297.1 50.9 297 50.8 296.8L50.7001 296.7C50.6001 296.5 50.4 296.3 50.3 296.1C50.2001 295.9 50 295.6 49.9001 295.3C49.9001 295.3 49.9001 295.3 49.9001 295.2C49.8001 294.9 49.7 294.7 49.6 294.4C49.5 294.1 49.4001 293.8 49.4001 293.5L46.7001 279.8C44.9001 278.3 43.1 276.6 41.5 274.6L31 277.4C30.9 277.3 30.8001 277.1 30.6 277L30.5 276.9C30.4 276.7 30.2001 276.5 30.1 276.3C30 276.1 29.8001 275.8 29.7001 275.5L20.6 255C20.5 254.8 20.4 254.6 20.3 254.4C20.3 254.4 20.3 254.4 20.3 254.3C20.2 254.1 20.2001 253.9 20.1 253.7C20.1 253.7 20.1 253.7 20.1 253.6C20 253.4 20 253.2 20 253V252.9C20 252.7 19.9 252.5 19.9 252.3C19.9 252.2 19.9 252.2 19.9 252.1C19.9 252 19.9 251.8 19.9 251.7C19.9 251.6 19.9 251.5 19.9 251.4C19.9 251.3 19.9 251.2 19.9 251.1C19.9 250.9 19.9 250.7 19.9 250.6C19.9 250.5 19.9 250.5 19.9 250.4C19.9 250.2 20 249.9 20 249.7C20.1 249.5 20.1 249.2 20.2001 249C20.2001 249 20.2 248.9 20.3 248.9C20.5 248.7 20.6 248.5 20.7001 248.3ZM21.5 197.2L21.6 203.1C21.2001 203.3 20.9 203.5 20.5 203.8L20.4 203.9C20.1 204.1 19.8 204.3 19.5 204.6C19.5 204.6 19.5 204.6 19.4 204.6L21.3 197.5C21.4 197.5 21.4 197.3 21.5 197.2Z" fill="#2F58FF"/>
<path d="M73.2001 204.1C74.6001 203.4 76.4001 204.6 77.5001 207L86.6001 227.6C87.4001 229.4 87.6001 231.4 87.2001 232.8C87.1001 233.3 86.9001 233.8 86.6001 234.1L80.8001 241.4C81.3001 244.4 81.6001 247.3 81.8001 250.2L89.4001 259.8C90.8001 261.6 91.5001 264.5 90.9001 266.6L86.0001 284.9C85.4001 287 83.8 287.7 82.2001 286.4L73.8001 280C72.5001 281.5 71.1001 282.7 69.5001 283.6L69.8001 296.9C69.8001 297.5 69.7001 298.1 69.6001 298.6C69.2001 300.1 68.2001 301 67.0001 300.8L53.0001 298.5C51.4001 298.2 49.8001 296.1 49.3001 293.5L46.6001 279.8C44.8001 278.3 43.0001 276.6 41.4001 274.6L34.1001 278.4C32.7001 279.1 30.9001 277.9 29.8001 275.4L20.7001 254.9C19.9001 253.1 19.7001 251.1 20.1001 249.7C20.2001 249.2 20.4001 248.7 20.7001 248.4L26.5001 241.1C26.0001 238.1 25.7001 235.2 25.5001 232.3L17.9001 222.7C16.5001 220.9 15.8001 218 16.4001 215.9L21.3001 197.6C21.9001 195.5 23.5001 194.8 25.1001 196L33.5001 202.4C34.8001 200.9 36.2001 199.7 37.8001 198.8L37.5001 185.5C37.5001 184.9 37.6001 184.3 37.7001 183.8C38.1001 182.3 39.1001 181.4 40.3001 181.6L54.2001 183.9C55.8001 184.2 57.4001 186.3 57.9001 188.9L60.6001 202.6C62.4001 204.1 64.2001 205.8 65.8001 207.8L73.2001 204.1ZM68.1001 255.7C71.0001 244.8 66.9001 229.5 58.9001 221.5C50.9001 213.5 42.0001 216 39.1001 226.9C36.2001 237.8 40.3001 253.2 48.3001 261.1C56.3001 269 65.2001 266.6 68.1001 255.7Z" fill="white"/>
<path d="M37.8 183.8C38.2 182.3 39.2001 181.4 40.4001 181.6L54.3 183.9C55.9 184.2 57.5 186.3 58 188.9L60.7001 202.6C62.5001 204.1 64.3001 205.8 65.9001 207.8L73.2 204C74.6 203.3 76.4 204.5 77.5 206.9L86.6 227.5C87.4 229.3 87.6 231.3 87.2 232.7C87.1 233.2 86.9 233.7 86.6 234L80.8001 241.3C81.3001 244.3 81.6001 247.2 81.8001 250.1L89.4001 259.7C90.8001 261.5 91.5001 264.4 90.9001 266.5L86 284.8C85.4 286.9 83.8 287.6 82.2 286.3L73.8001 279.9C72.5001 281.4 71.1 282.6 69.5 283.5L69.8001 296.8C69.8001 297.4 69.7 298 69.6 298.5C69.2 300 68.2 300.9 67 300.7M42.4001 220.3C41.0001 221.9 39.9001 224.1 39.2001 226.9C36.3001 237.8 40.4001 253.2 48.4001 261.1C50.1001 262.8 51.9001 264.1 53.7001 264.8" stroke="#171A21" stroke-width="2" stroke-miterlimit="10" stroke-linecap="round" stroke-linejoin="round"/>
<path d="M352.6 32.6C360.995 32.6 367.8 25.7947 367.8 17.4C367.8 9.00527 360.995 2.2 352.6 2.2C344.205 2.2 337.4 9.00527 337.4 17.4C337.4 25.7947 344.205 32.6 352.6 32.6Z" fill="#2F58FF"/>
<path d="M206.9 443C218.443 443 227.8 433.643 227.8 422.1C227.8 410.557 218.443 401.2 206.9 401.2C195.357 401.2 186 410.557 186 422.1C186 433.643 195.357 443 206.9 443Z" fill="white"/>
</g>
<defs>
<clipPath id="clip0">
<rect width="524.6" height="443.1" fill="white"/>
</clipPath>
</defs>
</svg>
