<svg width="144" height="144" viewBox="0 0 144 144" fill="none" xmlns="http://www.w3.org/2000/svg">
<g clip-path="url(#clip0)">
<path d="M108.3 94.0001C117.9 88.4001 117.8 79.4001 108.2 73.8001C98.5999 68.2001 88.9999 71.8001 79.4999 77.3001L46.3999 96.6001C39.2999 100.7 27.7999 100.7 20.6999 96.6001C13.5999 92.5001 13.5999 85.8001 20.5999 81.7001L51.5999 63.6001" stroke="#171A21" stroke-width="2" stroke-miterlimit="10" stroke-linecap="round" stroke-linejoin="round"/>
<path d="M65.4003 51L103.6 28.8C104.6 28.2 105.8 28.9 105.8 30.1L105.7 53.1C105.7 53.6 105.4 54.1001 105 54.4001L67.5003 76.1C66.5003 76.7 65.3003 76.0001 65.3003 74.8001L65.4003 51Z" fill="#2F58FF"/>
<path d="M51.3002 23.6001L89.2002 1.60011C89.9002 1.20011 90.8002 1.40011 91.2002 2.10011L105.1 26.2001C105.5 26.9001 105.3 27.8001 104.6 28.2001L65.4002 51.0001L50.7002 25.6001C50.3002 24.9001 50.6002 24.0001 51.3002 23.6001Z" fill="#F1F9FD"/>
<path d="M65.4 51.0001L50.7 25.6001C50.3 24.9001 50.5 24.0001 51.2 23.6001L89.1 1.60011C89.8 1.20011 90.7 1.40011 91.1 2.10011L105 26.2001C105.4 26.9001 105.2 27.8001 104.5 28.2001" stroke="#171A21" stroke-width="2" stroke-miterlimit="10" stroke-linecap="round" stroke-linejoin="round"/>
<path d="M50.8002 25.6001L65.4002 51.0001L65.3002 74.8001C65.3002 75.9001 64.1002 76.7001 63.1002 76.1001L35.4002 60.1001C34.9002 59.8001 34.7002 59.3001 34.7002 58.8001L34.8002 34.1001C34.8002 33.6001 35.1002 33.1001 35.5002 32.8001L48.8002 25.1001C49.4002 24.7001 50.3002 24.9001 50.8002 25.6001Z" fill="white"/>
<path d="M53.7004 52.1L44.0004 46.6C43.3004 46.2 42.4004 46.7 42.4004 47.5V62.4C42.4004 63.6 43.0004 64.7 44.1004 65.3L53.8004 70.8C54.5004 71.2 55.4004 70.7 55.4004 69.9V55C55.3004 53.8 54.7004 52.7 53.7004 52.1Z" fill="#2F58FF"/>
<path d="M65.3002 74.8001C65.3002 75.9001 64.1002 76.7001 63.1002 76.1001L35.4002 60.1001C34.9002 59.8001 34.7002 59.3001 34.7002 58.8001L34.8002 34.1001C34.8002 33.6001 35.1002 33.1001 35.5002 32.8001L48.8002 25.1001C49.5002 24.7001 50.4002 24.9001 50.8002 25.6001L65.4002 51.0001" stroke="#171A21" stroke-width="2" stroke-miterlimit="10" stroke-linecap="round" stroke-linejoin="round"/>
<path d="M100.5 115.1L124.8 101C125.4 100.6 126.2 101.1 126.2 101.8L126.3 126.4C126.3 127.8 125.6 129 124.4 129.7L100.5 143.5C99.3 144.2 97.9 144.2 96.7 143.5L73 129.7C71.8 129 71.1 127.8 71.1 126.4L71 101.8C71 101.1 71.8 100.6 72.4 101L96.6 115C97.9 115.7 99.3 115.7 100.5 115.1Z" fill="#2F58FF"/>
<path d="M72.4998 101L96.6998 115C97.8998 115.7 99.2998 115.7 100.5 115L124.8 100.9C125.4 100.5 125.4 99.5999 124.8 99.2999L100.6 85.2999C99.3998 84.5999 97.9998 84.5999 96.7998 85.2999L72.4998 99.3999C71.8998 99.6999 71.8998 100.6 72.4998 101Z" fill="#F1F9FD"/>
<path d="M71.1001 102.4C71.1001 101 71.8001 99.7999 73.0001 99.0999L96.9001 85.2999C98.1001 84.5999 99.5001 84.5999 100.7 85.2999L124.4 99.0999C125.6 99.7999 126.3 101 126.3 102.4" stroke="#171A21" stroke-width="2" stroke-miterlimit="10" stroke-linecap="round" stroke-linejoin="round"/>
<path d="M114.8 93.6L108.1 89.7L80.5 105.7L87.1 109.5L114.8 93.6Z" fill="white" stroke="#171A21" stroke-width="2" stroke-miterlimit="10" stroke-linecap="round" stroke-linejoin="round"/>
</g>
<defs>
<clipPath id="clip0">
<rect width="144" height="144" fill="white"/>
</clipPath>
</defs>
</svg>
