<svg width="144" height="144" viewBox="0 0 144 144" fill="none" xmlns="http://www.w3.org/2000/svg">
<path d="M139.3 50C139.3 49.9 139.3 49.7 139.3 49.6C139.3 49.5 139.3 49.5 139.3 49.4V49.3V49.2C139.3 49.1 139.3 48.9 139.3 48.8C139.3 48.7 139.3 48.5 139.2 48.4C139.2 48.3 139.2 48.1 139.1 48C139.1 47.9 139 47.7 139 47.6C139 47.5 139 47.5 139 47.4V47.3C139 47.2 139 47.2 139 47.1C139 47 138.9 46.8 138.9 46.7C138.9 46.6 138.8 46.5 138.8 46.4C138.8 46.4 138.8 46.4 138.8 46.3C138.8 46.3 138.8 46.3 138.8 46.2C138.8 46.1 138.7 45.9 138.7 45.8C138.7 45.7 138.6 45.5 138.6 45.4V45.3C138.6 45.3 138.6 45.3 138.6 45.2C138.6 45.1 138.5 45 138.5 44.9C138.4 44.8 138.4 44.6 138.3 44.5C138.3 44.4 138.2 44.3 138.2 44.2C138.2 44.2 138.2 44.2 138.2 44.1C138.1 44 138.1 43.8 138 43.7C137.9 43.6 137.9 43.4 137.8 43.3C137.8 43.3 137.8 43.3 137.8 43.2V43.1C137.7 43 137.7 42.9 137.6 42.8C137.5 42.7 137.4 42.5 137.4 42.4C137.4 42.3 137.3 42.3 137.3 42.2V42.1C137.2 42 137.2 41.9 137.1 41.7C137 41.5 136.9 41.4 136.8 41.2C136.8 41.2 136.8 41.1 136.7 41.1C136.5 40.9 136.4 40.6 136.2 40.4C136.1 40.2 136 40.1 135.8 39.9C135.7 39.8 135.6 39.7 135.5 39.5C135.4 39.4 135.3 39.3 135.2 39.1C135.1 39 135 38.9 134.9 38.8C134.9 38.8 134.9 38.8 134.8 38.7C134.8 38.7 134.8 38.7 134.7 38.6C134.6 38.5 134.6 38.4 134.5 38.4C134.4 38.3 134.3 38.2 134.2 38.1L134.1 38L134 37.9C133.9 37.8 133.9 37.8 133.8 37.7C133.7 37.6 133.6 37.5 133.4 37.4C133.3 37.4 133.3 37.3 133.2 37.3C133.2 37.3 133.1 37.3 133.1 37.2L133 37.1C132.9 37 132.8 36.9 132.6 36.8C132.5 36.7 132.4 36.7 132.3 36.6C132.2 36.5 132.1 36.4 132 36.4C131.9 36.3 131.8 36.3 131.7 36.2H131.6L71.9001 2.1C71.8001 2.1 71.7001 2 71.6001 2C71.5001 1.9 71.4001 1.9 71.3001 1.8C71.2001 1.8 71.2001 1.7 71.1001 1.7C71.1001 1.7 71.1001 1.7 71.0001 1.7C71.0001 1.7 71.0001 1.7 70.9001 1.7C70.8001 1.7 70.7001 1.6 70.6001 1.6C70.5001 1.6 70.4001 1.5 70.3001 1.5C70.3001 1.5 70.3001 1.5 70.2001 1.5C70.1001 1.5 70.1001 1.5 70.0001 1.4C69.9001 1.4 69.8001 1.3 69.7001 1.3C69.6001 1.3 69.6001 1.3 69.5001 1.3C69.5001 1.3 69.5001 1.3 69.4001 1.3H69.3001C69.2001 1 69.1001 1 69.0001 1C68.9001 1 68.9001 1 68.8001 1C68.8001 1 68.8001 1 68.7001 1C68.7001 1 68.7001 1 68.6001 1C68.5001 1 68.3001 1 68.2001 1C68.1001 1 68.1001 1 68.0001 1H67.9001H67.8001C67.6001 1 67.5001 1 67.3001 1.1H67.2001C67.0001 1.1 66.9001 1.2 66.7001 1.2C66.7001 1.2 66.7001 1.2 66.6001 1.2C66.6001 1.2 66.6001 1.2 66.5001 1.2C66.3001 1.3 66.1001 1.4 66.0001 1.5L53.6001 8.6C53.8001 8.5 53.9001 8.4 54.1001 8.3C54.1001 8.3 54.1001 8.3 54.2001 8.3C54.4001 8.2 54.5001 8.2 54.7001 8.2H54.8001C55.0001 8.2 55.2001 8.1 55.4001 8.1H55.5001C55.7001 8.1 55.9001 8.1 56.1001 8.1H56.2001C56.4001 8.1 56.6001 8.2 56.9001 8.2C56.9001 8.2 56.9001 8.2 57.0001 8.2C57.2001 8.3 57.5001 8.3 57.7001 8.4C58.0001 8.5 58.2001 8.6 58.5001 8.7C58.5001 8.7 58.5001 8.7 58.6001 8.7C58.9001 8.8 59.1001 9 59.4001 9.1L118.8 43.4C119.1 43.6 119.3 43.7 119.6 43.9C119.8 44.1 120.1 44.3 120.3 44.5C120.3 44.5 120.4 44.5 120.4 44.6C120.6 44.8 120.9 45 121.1 45.2L121.2 45.3C121.4 45.5 121.7 45.7 121.9 46C121.9 46 121.9 46 122 46.1C122.2 46.4 122.5 46.6 122.7 46.9C122.9 47.2 123.1 47.5 123.4 47.7C123.6 48 123.8 48.2 124 48.5C124.1 48.7 124.2 48.8 124.3 49C124.4 49.1 124.5 49.3 124.6 49.4C124.6 49.5 124.7 49.5 124.7 49.6C124.8 49.8 125 50.1 125.1 50.4V50.5C125.3 50.8 125.4 51.1 125.5 51.4C125.6 51.7 125.8 52 125.9 52.3C125.9 52.3 125.9 52.3 125.9 52.4C126 52.7 126.1 53 126.2 53.4C126.2 53.4 126.2 53.4 126.2 53.5C126.3 53.8 126.4 54.1 126.4 54.4V54.5C126.5 54.8 126.5 55.1 126.6 55.5C126.7 55.8 126.7 56.1 126.7 56.5V56.6C126.7 56.9 126.7 57.2 126.7 57.5L126.6 112.8C126.6 113.1 126.6 113.4 126.6 113.7V113.8C126.6 114.1 126.5 114.3 126.5 114.6V114.7C126.5 114.9 126.4 115.2 126.3 115.4V115.5C126.2 115.7 126.2 115.9 126.1 116.1C126.1 116.1 126.1 116.1 126.1 116.2C126 116.4 125.9 116.6 125.8 116.8C125.8 116.8 125.8 116.8 125.7 116.9C125.6 117 125.5 117.2 125.4 117.3L125.3 117.4C125.2 117.5 125.1 117.6 125 117.7L124.9 117.8C124.8 117.9 124.6 118 124.4 118.1L136.9 111C137.1 110.9 137.2 110.8 137.4 110.7L137.5 110.6C137.6 110.5 137.7 110.4 137.8 110.3L137.9 110.2C138 110.1 138.1 109.9 138.2 109.8C138.2 109.8 138.2 109.8 138.3 109.7C138.4 109.5 138.5 109.3 138.6 109.1C138.6 109.1 138.6 109.1 138.6 109C138.7 108.9 138.7 108.8 138.8 108.6C138.8 108.5 138.8 108.5 138.9 108.4V108.3V108.2C138.9 108.1 139 107.9 139 107.8C139 107.8 139 107.7 139 107.6V107.5V107.4C139 107.3 139 107.1 139.1 107C139.1 106.9 139.1 106.9 139.1 106.8V106.7V106.6C139.1 106.5 139.1 106.3 139.1 106.2C139.1 106.1 139.1 105.9 139.1 105.8L139.2 50.5C139.3 50.2 139.3 50.1 139.3 50Z" fill="#2F58FF"/>
<path d="M118.7 43.4001C123.2 46.0001 126.8 52.2001 126.8 57.4001L126.7 112.7C126.7 117.8 123 119.9 118.6 117.3L89 100.3L71.7 108.2C71.2 108.4 70.6 108.3 69.9 108C69.8 107.9 69.7 107.9 69.6 107.8C68.1 106.8 67.1 104.6 67.2 103L68.7 88.7001L59.1 83.2001C54.6 80.6001 51 74.4001 51 69.2001L51.1 13.9001C51.1 8.80008 54.8 6.70008 59.2 9.30008L118.7 43.4001Z" fill="white" stroke="#171A21" stroke-width="2" stroke-miterlimit="10" stroke-linecap="round" stroke-linejoin="round"/>
<path d="M103.5 78C103.5 78.1 103.5 78.1 103.5 78C103.3 78.1 103.3 78.1 103.2 78.1H103.1C103 78.1 103 78.2 102.9 78.2H102.8C102.7 78.2 102.7 78.2001 102.6 78.3001H102.5H102.4C102.3 78.3001 102.3 78.3001 102.2 78.3001H102.1C102 78.3001 102 78.3001 101.9 78.3001H101.8C101.7 78.3001 101.7 78.3001 101.6 78.3001H101.5C101.5 78.3001 101.5 78.3001 101.4 78.3001C101.3 78.3001 101.2 78.3001 101.1 78.4001H101C100.9 78.4001 100.8 78.4001 100.7 78.4001C100.6 78.4001 100.5 78.4001 100.4 78.4001H100.3C100.2 78.4001 100.1 78.4001 100 78.4001H99.9C99.8 78.4001 99.8 78.4001 99.7 78.4001H99.6C99.5 78.4001 99.5 78.4001 99.4 78.4001C99.3 78.4001 99.3 78.4001 99.2 78.4001C99.1 78.4001 99.1 78.4001 99 78.4001C98.9 78.4001 98.9 78.4001 98.8 78.4001C98.7 78.4001 98.7 78.4001 98.6 78.4001C98.5 78.4001 98.5 78.4001 98.4 78.4001H98.3C98.2 78.4001 98.2 78.4001 98.1 78.4001H98C97.9 78.4001 97.9 78.4001 97.8 78.4001H97.7C97.6 78.4001 97.5 78.4001 97.4 78.3001C97.4 78.3001 97.4 78.3001 97.3 78.3001C97.2 78.3001 97.1 78.2 97 78.2H96.9C96.8 78.2 96.7 78.2 96.7 78.1H96.6C96.5 78.1 96.5 78.1 96.4 78H96.3C96.2 78 96.2 77.9001 96.1 77.9001H96C95.9 77.9001 95.8 77.8001 95.7 77.8001C95.6 77.8001 95.5 77.7 95.4 77.7H95.3C95.2 77.7 95.1 77.6 95.1 77.6C95.1 77.6 95 77.6 95 77.5C94.9 77.5 94.8 77.4001 94.8 77.4001H94.7C94.6 77.3001 94.5 77.3 94.4 77.2C94.3 77.1 94.2 77.1 94.1 77C94 76.9 93.8 76.8001 93.7 76.8001C93.6 76.8001 93.6 76.7 93.5 76.7C93.3 76.6 93.1 76.5001 93 76.4001C92.9 76.3001 92.8 76.3 92.7 76.2C92.7 76.2 92.6 76.2 92.6 76.1C92.5 76 92.4 76.0001 92.4 75.9001L92.3 75.8001C92.2 75.8001 92.2 75.7 92.1 75.7L92 75.6C91.9 75.6 91.9 75.5 91.8 75.5L91.7 75.4001C91.6 75.3001 91.6 75.3 91.5 75.2L91.4 75.1C91.3 75 91.3 75.0001 91.2 74.9001L91.1 74.8001C91 74.7001 90.9 74.7 90.9 74.6L90.8 74.5C90.7 74.4 90.6 74.3 90.5 74.2C90.4 74.1 90.3 74.0001 90.2 73.9001L90.1 73.8001C90 73.7001 90 73.7 89.9 73.6L89.8 73.5C89.7 73.4 89.7 73.4001 89.6 73.3001C89.4 73.1001 89.2 72.9001 89.1 72.8001L89 72.7C88.9 72.6 88.7 72.4001 88.6 72.3001L91.1 70.8001C91.1 70.8001 91.1 70.8001 91.2 70.8001V70.7C91.2 70.7 91.2 70.7 91.2 70.6C91.2 70.6 91.2 70.6 91.2 70.5C91.2 70.5 91.2 70.5001 91.2 70.4001C91.2 70.4001 91.2 70.4001 91.2 70.3001C91.2 70.3001 91.2 70.3 91.2 70.2C91.2 70.2 91.2 70.2 91.2 70.1C91.2 70.1 91.2 70.1 91.2 70C91.2 70 91.2 70.0001 91.2 69.9001C91.2 69.9001 91.2 69.9001 91.2 69.8001C91.2 69.8001 91.2 69.8 91.2 69.7C91.2 69.7 91.2 69.7 91.2 69.6C91.2 69.6 91.2 69.6 91.2 69.5C91.2 69.5 91.2 69.4001 91.1 69.4001C91.1 69.4001 91.1 69.4001 91.1 69.3001C91.1 69.3001 91.1 69.2 91 69.2C91 69.2 91 69.2 91 69.1C91 69.1 91 69.1 90.9 69C90.9 69 90.9 69.0001 90.8 68.9001C90.8 68.9001 90.8 68.9001 90.7 68.9001L77.8 59.3C77.8 59.3 77.8 59.3 77.7 59.3C77.7 59.3 77.7 59.3 77.6 59.3C77.6 59.3 77.6 59.3 77.5 59.3C77.5 59.3 77.5 59.3 77.4 59.3C77.4 59.3 77.4 59.3 77.3 59.3C77.3 59.3 77.3 59.3 77.2 59.3C77.2 59.3 77.2 59.3 77.1 59.3C77.1 59.3 77.1 59.3 77 59.3H76.9C76.9 59.3 76.9 59.3 76.8 59.3H76.7L67.5 64.7H67.6C67.6 64.7 67.6 64.7 67.7 64.7H67.8H67.9H68H68.1H68.2C68.2 64.7 68.3 64.7001 68.3 64.8001C68.3 64.8001 68.4 64.8001 68.4 64.9001C68.4 64.9001 68.5 64.9 68.5 65L81.4 74.6C81.4 74.6 81.5 74.6 81.5 74.7C81.5 74.7 81.6 74.7001 81.6 74.8001C81.6 74.8001 81.6 74.8001 81.7 74.9001L81.8 75C81.8 75 81.8 75.1 81.9 75.1C81.9 75.1 81.9 75.1 82 75.2C82 75.2 82 75.3001 82.1 75.3001C82.1 75.3001 82.1 75.3001 82.1 75.4001C82.1 75.4001 82.1 75.5 82.2 75.5V75.6V75.7V75.8001V75.9001V76V76.1V76.2V76.3001V76.4001V76.5V76.6V76.7V76.8001C82.2 76.8001 82.2 76.8001 82.2 76.9001V77C82.2 77 82.2 77 82.2 77.1V77.2L79.5 78.7C79.6 78.8 79.8 79 79.9 79.1C79.9 79.1 79.9 79.1 80 79.1C80.2 79.3 80.4 79.5 80.5 79.6C80.6 79.7 80.6 79.7001 80.7 79.8001L80.8 79.9001C80.9 80.0001 80.9 80 81 80.1L81.1 80.2C81.2 80.3 81.3 80.4 81.4 80.5C81.5 80.6 81.6 80.7 81.7 80.7L81.8 80.8001C81.9 80.9001 82 80.9 82 81L82.1 81.1C82.2 81.1 82.2 81.2 82.3 81.2L82.4 81.3001C82.5 81.4001 82.5 81.4 82.6 81.5L82.7 81.6L82.8 81.7C82.8 81.7 82.9 81.7001 82.9 81.8001L83 81.9001C83.1 81.9001 83.1 82 83.2 82L83.3 82.1C83.3 82.1 83.3 82.1 83.4 82.1C83.5 82.1 83.5 82.2 83.6 82.2C83.6 82.2 83.7 82.2001 83.7 82.3001C83.8 82.4001 83.9 82.4 84 82.5C84.2 82.6 84.4 82.7001 84.5 82.8001C84.5 82.8001 84.5 82.8001 84.6 82.8001L84.7 82.9001C84.8 83.0001 85 83.1 85.1 83.1C85.2 83.1 85.3 83.2 85.4 83.2C85.5 83.3 85.6 83.3001 85.7 83.3001H85.8C85.9 83.3001 86 83.4001 86 83.4001C86 83.4001 86.1 83.4 86.1 83.5H86.2C86.2 83.5 86.3 83.5 86.3 83.6H86.4C86.5 83.6 86.6 83.7 86.7 83.7C86.8 83.7 86.9 83.8001 87 83.8001H87.1C87.1 83.8001 87.2 83.8001 87.2 83.9001H87.3H87.4C87.5 83.9001 87.5 83.9 87.6 84H87.7C87.8 84 87.8 84 87.9 84.1H88C88.1 84.1 88.2 84.2 88.3 84.2C88.3 84.2 88.3 84.2 88.4 84.2C88.5 84.2 88.6 84.2001 88.7 84.3001H88.8H88.9C88.9 84.3001 88.9 84.3001 89 84.3001H89.1C89.2 84.3001 89.2 84.3001 89.3 84.3001H89.4H89.5C89.5 84.3001 89.5 84.3001 89.6 84.3001C89.7 84.3001 89.7 84.3001 89.8 84.3001C89.9 84.3001 89.9 84.3001 90 84.3001C90.1 84.3001 90.1 84.3001 90.2 84.3001H90.3C90.3 84.3001 90.3 84.3001 90.4 84.3001C90.5 84.3001 90.5 84.3001 90.6 84.3001H90.7C90.8 84.3001 90.8 84.3001 90.9 84.3001H91C91.1 84.3001 91.2 84.3001 91.3 84.3001H91.4C91.5 84.3001 91.6 84.3001 91.7 84.3001C91.8 84.3001 91.9 84.3001 92 84.3001H92.1C92.2 84.3001 92.3 84.3 92.4 84.2H92.5C92.6 84.2 92.6 84.2 92.7 84.2H92.8C92.9 84.2 92.9 84.2 93 84.2H93.1C93.2 84.2 93.2 84.2 93.3 84.2H93.4C93.4 84.2 93.4 84.2 93.5 84.2C93.5 84.2 93.5 84.2 93.6 84.2C93.7 84.2 93.7 84.2 93.8 84.1H93.9C94 84.1 94 84.1 94.1 84H94.2C94.3 84 94.3 83.9001 94.4 83.9001H94.5C94.6 83.9001 94.7 83.8001 94.8 83.8001L104 78.4001C103.7 77.9001 103.6 78 103.5 78Z" fill="#2F58FF"/>
<path d="M115.8 73.9002C115.8 73.8002 115.8 73.8002 115.8 73.9002C115.8 73.8002 115.8 73.8002 115.8 73.9002C115.8 73.8002 115.8 73.8002 115.8 73.8002C115.8 73.8002 115.8 73.8002 115.8 73.7002C115.8 73.7002 115.8 73.7002 115.8 73.6002C115.8 73.6002 115.8 73.6002 115.8 73.5002C115.8 73.5002 115.8 73.5002 115.8 73.4002C115.8 73.4002 115.8 73.4002 115.8 73.3002C115.8 73.3002 115.8 73.3002 115.8 73.2002C115.8 73.2002 115.8 73.2002 115.8 73.1002C115.8 73.1002 115.8 73.1002 115.8 73.0002C115.8 73.0002 115.8 73.0002 115.8 72.9002C115.8 72.9002 115.8 72.9002 115.8 72.8002C115.8 72.8002 115.8 72.8002 115.8 72.7002C115.8 72.7002 115.8 72.6002 115.7 72.6002C115.7 72.6002 115.7 72.6002 115.7 72.5002C115.7 72.5002 115.7 72.5002 115.6 72.4002C115.6 72.4002 115.6 72.4002 115.6 72.3002C115.6 72.3002 115.6 72.3002 115.5 72.2002C115.5 72.2002 115.5 72.2002 115.4 72.1002C115.4 72.1002 115.4 72.1002 115.3 72.1002C115.3 72.1002 115.3 72.1002 115.2 72.1002L110 68.2002C110 68.2002 110 68.2002 109.9 68.2002C109.9 68.2002 109.9 68.2002 109.8 68.2002C109.8 68.2002 109.8 68.2002 109.7 68.2002C109.7 68.2002 109.7 68.2002 109.6 68.2002H109.5C109.5 68.2002 109.5 68.2002 109.4 68.2002C109.4 68.2002 109.3 68.2002 109.3 68.3002L100.1 73.7002C100.1 73.7002 100.2 73.7002 100.2 73.6002H100.3H100.4H100.5H100.6H100.7H100.8C100.8 73.6002 100.9 73.6002 100.9 73.7002L101 73.8002L106.2 77.7002L106.3 77.8002L106.4 77.9002L106.5 78.0002L106.6 78.1002L106.7 78.2002C106.7 78.2002 106.7 78.3002 106.8 78.3002C106.8 78.3002 106.8 78.4002 106.9 78.4002C106.9 78.4002 106.9 78.5002 107 78.5002C107 78.5002 107 78.6002 107.1 78.6002C107.1 78.6002 107.1 78.7002 107.2 78.7002V78.8002V78.9002V79.0002V79.1002V79.2002V79.3002C107.2 79.5002 107.2 79.6002 107.2 79.8002C107.2 79.9002 107.2 80.0002 107.2 80.0002C107.2 80.1002 107.2 80.2002 107.2 80.3002C107.2 80.4002 107.2 80.5002 107.2 80.5002C107.2 80.6002 107.2 80.7002 107.2 80.8002C107.2 80.9002 107.2 81.0002 107.2 81.0002C107.2 81.1002 107.2 81.2002 107.2 81.3002C107.2 81.4002 107.2 81.5002 107.2 81.5002C107.2 81.6002 107.2 81.7002 107.2 81.8002C107.2 81.9002 107.2 82.0002 107.2 82.0002C107.2 82.1002 107.2 82.2002 107.2 82.3002C107.2 82.4002 107.2 82.5002 107.2 82.5002C107.2 82.6002 107.2 82.7002 107.2 82.7002C107.2 82.8002 107.2 82.9002 107.1 83.0002C107.1 83.1002 107.1 83.2002 107 83.2002C107 83.3002 107 83.4002 106.9 83.5002C106.9 83.6002 106.9 83.6002 106.8 83.7002C106.8 83.8002 106.7 83.9002 106.7 84.0002C106.7 84.1002 106.7 84.2002 106.6 84.2002C106.6 84.3002 106.5 84.4002 106.5 84.5002C106.5 84.6002 106.5 84.6002 106.4 84.7002C106.4 84.8002 106.3 84.9002 106.3 85.1002C106.3 85.2002 106.3 85.2002 106.2 85.3002C106.2 85.4002 106.1 85.6002 106.1 85.7002C106.1 85.7002 106.1 85.8002 106 85.8002C105.9 86.0002 105.8 86.2002 105.8 86.4002C105.8 86.4002 105.8 86.5002 105.7 86.5002C105.6 86.7002 105.6 86.8002 105.5 87.0002C105.5 87.0002 105.5 87.1002 105.4 87.1002C105.4 87.2002 105.3 87.2002 105.3 87.3002C105.3 87.4002 105.2 87.5002 105.2 87.5002C105.2 87.6002 105.1 87.6002 105.1 87.7002C105.1 87.8002 105 87.8002 105 87.9002C105 88.0002 104.9 88.0002 104.9 88.1002C104.9 88.2002 104.8 88.2002 104.8 88.3002C104.8 88.4002 104.7 88.4002 104.7 88.5002C104.7 88.6002 104.6 88.7002 104.5 88.7002C104.5 88.7002 104.5 88.8002 104.4 88.8002C104.3 88.9002 104.2 89.0002 104.2 89.1002C104.1 89.2002 104.1 89.3002 104 89.4002L103.9 89.5002C103.8 89.6002 103.8 89.6002 103.7 89.7002L103.6 89.8002C103.5 89.9002 103.5 89.9002 103.4 90.0002C103.4 90.0002 103.4 90.1002 103.3 90.1002C103.2 90.2002 103.1 90.3002 103 90.4002C103 90.4002 103 90.4002 102.9 90.5002C102.8 90.6002 102.8 90.6002 102.7 90.7002L102.6 90.8002C102.5 90.9002 102.5 90.9002 102.4 91.0002L102.3 91.1002C102.2 91.2002 102.1 91.2002 102.1 91.3002C102.1 91.3002 102.1 91.3002 102 91.3002C101.9 91.4002 101.8 91.5002 101.7 91.5002C101.7 91.5002 101.6 91.5002 101.6 91.6002C101.5 91.7002 101.5 91.7002 101.4 91.8002C101.4 91.8002 101.3 91.8002 101.3 91.9002C101.2 92.0002 101.2 92.0002 101.1 92.0002C101.1 92.0002 101 92.0002 101 92.1002C100.9 92.2002 100.8 92.2002 100.7 92.3002L109.9 86.9002C110 86.8002 110.1 86.8002 110.2 86.7002C110.2 86.7002 110.3 86.7002 110.3 86.6002C110.4 86.6002 110.4 86.5002 110.5 86.5002C110.5 86.5002 110.6 86.5002 110.6 86.4002C110.7 86.3002 110.8 86.3002 110.8 86.2002C110.8 86.2002 110.9 86.2002 110.9 86.1002C111 86.0002 111.1 85.9002 111.2 85.9002C111.2 85.9002 111.2 85.9002 111.3 85.9002C111.4 85.8002 111.5 85.8002 111.5 85.7002L111.6 85.6002C111.7 85.5002 111.7 85.5002 111.8 85.4002L111.9 85.3002C112 85.2002 112 85.2002 112.1 85.1002C112.1 85.1002 112.1 85.1002 112.2 85.0002C112.3 84.9002 112.4 84.8002 112.5 84.7002C112.5 84.7002 112.5 84.6002 112.6 84.6002C112.7 84.5002 112.7 84.5002 112.8 84.4002L112.9 84.3002C113 84.2002 113 84.2002 113.1 84.1002L113.2 84.0002C113.3 83.9002 113.3 83.8002 113.4 83.7002C113.5 83.6002 113.6 83.5002 113.6 83.4002C113.6 83.4002 113.6 83.3002 113.7 83.3002C113.7 83.2002 113.8 83.2002 113.8 83.1002C113.8 83.1002 113.8 83.0002 113.9 83.0002C113.9 82.9002 114 82.9002 114 82.8002C114 82.7002 114.1 82.7002 114.1 82.6002C114.1 82.5002 114.2 82.5002 114.2 82.4002C114.2 82.3002 114.3 82.3002 114.3 82.2002C114.3 82.1002 114.4 82.1002 114.4 82.0002C114.4 81.9002 114.5 81.8002 114.5 81.8002C114.5 81.7002 114.6 81.7002 114.6 81.6002C114.6 81.6002 114.6 81.6002 114.6 81.5002V81.4002C114.7 81.2002 114.7 81.1002 114.8 80.9002C114.8 80.9002 114.8 80.8002 114.9 80.8002C115 80.6002 115.1 80.4002 115.1 80.2002V80.1002C115.1 80.0002 115.2 79.8002 115.2 79.7002C115.2 79.6002 115.2 79.6002 115.3 79.5002C115.3 79.4002 115.4 79.3002 115.4 79.1002V79.0002V78.9002C115.4 78.8002 115.5 78.7002 115.5 78.6002C115.5 78.5002 115.5 78.4002 115.6 78.4002C115.6 78.3002 115.7 78.2002 115.7 78.1002C115.7 78.0002 115.7 78.0002 115.7 77.9002C115.7 77.9002 115.7 77.9002 115.7 77.8002C115.7 77.7002 115.7 77.6002 115.8 77.5002C115.8 77.4002 115.8 77.3002 115.9 77.3002C115.9 77.2002 115.9 77.1002 116 77.0002C116 76.9002 116 76.9002 116 76.8002C116 76.7002 116 76.6002 116 76.6002C116 76.5002 116 76.4002 116 76.3002C116 76.2002 116 76.1002 116 76.1002C116 76.0002 116 75.9002 116 75.9002C116 75.9002 116 75.9002 116 75.8002C116 75.7002 116 75.6002 116 75.6002C116 75.5002 116 75.4002 116 75.3002C116 75.2002 116 75.1002 116 75.1002C116 75.0002 116 75.0002 116 74.9002V74.8002C116 74.7002 116 74.6002 116 74.6002C116 74.5002 116 74.4002 116 74.3002C116 74.2002 116 74.1002 116 74.1002V74.0002C116 73.9002 116 73.8002 116 73.6002C115.8 74.0002 115.8 74.0002 115.8 73.9002Z" fill="#2F58FF"/>
<path d="M79.1 51.1V51C79.1 50.8 79.1 50.6001 79.1 50.4001C79.1 50.2001 79.1 50 79.2 49.8V49.7001C79.2 49.6001 79.2 49.6 79.2 49.5C79.2 49.4 79.2 49.4 79.2 49.3C79.2 49.2 79.2 49.2 79.2 49.1C79.2 49 79.2 49.0001 79.2 48.9001C79.2 48.8001 79.2 48.8001 79.2 48.7001C79.2 48.6001 79.2 48.6 79.2 48.5C79.2 48.4 79.2 48.4 79.2 48.3C79.2 48.2 79.2 48.2 79.2 48.1C79.2 48 79.2 48.0001 79.2 47.9001C79.2 47.8001 79.2 47.8001 79.2 47.7001C79.2 47.6001 79.2 47.6 79.3 47.5C79.3 47.4 79.3 47.4 79.3 47.3C79.3 47.2 79.3 47.1 79.4 47.1V47C79.4 46.9 79.5 46.8 79.5 46.8V46.7001C79.5 46.6001 79.6 46.4 79.6 46.3V46.2001C79.6 46.1001 79.7 46.0001 79.7 45.9001C79.7 45.9001 79.7 45.8 79.8 45.8C79.8 45.8 79.8 45.7001 79.9 45.7001C79.9 45.6001 80 45.6 80 45.5C80 45.5 80 45.4001 80.1 45.4001C80.1 45.3001 80.2 45.3001 80.2 45.2001C80.2 45.2001 80.2 45.1 80.3 45.1C80.3 45 80.4 45.0001 80.4 44.9001C80.4 44.9001 80.4 44.9 80.4 44.8C80.5 44.7 80.5 44.6 80.6 44.5C80.6 44.5 80.6 44.4001 80.7 44.4001C80.8 44.3001 80.9 44.2 80.9 44.1C81 44 81.1 43.9 81.1 43.8C81.1 43.8 81.1 43.8001 81.2 43.7001C81.3 43.6001 81.4 43.5001 81.5 43.4001C81.6 43.3001 81.7 43.2 81.8 43.1C81.8 43.1 81.8 43.1 81.9 43C82 42.9 82.1 42.8 82.2 42.8C82.3 42.7 82.4 42.7 82.5 42.6C82.5 42.6 82.6 42.6 82.6 42.5C82.7 42.4 82.8 42.4 82.9 42.3L74 48C73.9 48.1 73.8 48.1001 73.7 48.2001C73.7 48.2001 73.6 48.2 73.6 48.3C73.5 48.4 73.4 48.4 73.3 48.5C73.2 48.6 73.1 48.7001 73 48.7001C73 48.7001 73 48.7 72.9 48.8C72.8 48.9 72.7 49 72.6 49.1C72.5 49.2 72.4 49.3001 72.3 49.4001C72.3 49.4001 72.3 49.4 72.2 49.5C72.1 49.6 72 49.7 72 49.8C71.9 49.9 71.8 50 71.8 50.1C71.8 50.1 71.8 50.2001 71.7 50.2001C71.6 50.3001 71.6 50.4 71.5 50.5C71.5 50.5 71.5 50.5 71.5 50.6C71.5 50.7 71.4 50.7 71.4 50.8C71.4 50.8 71.4 50.9001 71.3 50.9001C71.3 51.0001 71.2 51 71.2 51.1C71.2 51.1 71.2 51.2001 71.1 51.2001C71.1 51.3001 71 51.3001 71 51.4001C71 51.4001 71 51.5 70.9 51.5V51.6C70.9 51.6 70.9 51.6 70.9 51.7001C70.9 51.8001 70.8 51.9 70.8 52V52.1C70.7 52.2 70.7 52.3 70.7 52.5V52.6C70.7 52.7 70.6 52.8 70.6 52.8V52.9001C70.6 53.0001 70.6 53 70.5 53.1C70.5 53.1 70.5 53.1 70.5 53.2001V53.3C70.5 53.4 70.5 53.4 70.4 53.5C70.4 53.6 70.4 53.6 70.4 53.7001C70.4 53.8001 70.4 53.8001 70.4 53.9001V54C70.4 54 70.4 54 70.4 54.1C70.4 54.2 70.4 54.2 70.4 54.3C70.4 54.4 70.4 54.4 70.4 54.5C70.4 54.6 70.4 54.6 70.4 54.7001V54.8V54.9001C70.4 55.0001 70.4 55 70.4 55.1C70.4 55.2 70.4 55.2 70.4 55.3C70.4 55.4 70.4 55.4 70.4 55.5C70.4 55.5 70.4 55.5 70.4 55.6C70.4 55.6 70.4 55.6 70.4 55.7001C70.4 55.9001 70.4 56.1 70.3 56.3C70.3 56.5 70.3 56.7001 70.3 56.9001C70.3 56.9001 70.3 56.9 70.3 57C70.3 57.2 70.3 57.4 70.3 57.6C70.3 57.6 70.3 57.6 70.3 57.7001C70.3 57.8001 70.3 57.9 70.3 58C70.3 58.1 70.3 58.1 70.3 58.2001V58.3V58.4001V58.5C70.3 58.5 70.3 58.6 70.2 58.6C70.2 58.6 70.2 58.7001 70.1 58.7001C70.1 58.7001 70.1 58.7 70 58.8L79.2 53.4001C79.2 53.4001 79.3 53.4 79.3 53.3C79.3 53.3 79.3 53.3001 79.4 53.2001V53.1C79.4 53.1 79.4 53.1 79.4 53C79.4 53 79.4 53.0001 79.4 52.9001C79.4 52.9001 79.4 52.9 79.4 52.8C79.4 52.8 79.4 52.8001 79.4 52.7001C79.4 52.7001 79.4 52.7 79.4 52.6C79.4 52.6 79.4 52.6 79.4 52.5C79.4 52.4 79.4 52.3001 79.4 52.2001C79.1 51.5001 79.1 51.3 79.1 51.1Z" fill="#2F58FF"/>
<path d="M68.9999 38.1001C69.0999 38.1001 69.1999 38.0001 69.2999 38.0001C69.3999 38.0001 69.3999 38.0001 69.4999 37.9001C69.5999 37.9001 69.6999 37.8001 69.7999 37.8001C69.8999 37.8001 69.8999 37.8001 69.9999 37.7001C70.0999 37.7001 70.1999 37.6001 70.2999 37.6001C70.3999 37.6001 70.3999 37.5001 70.4999 37.5001C70.5999 37.5001 70.5999 37.5001 70.6999 37.4001C70.7999 37.4001 70.8999 37.3001 70.8999 37.3001C70.9999 37.3001 70.9999 37.3001 71.0999 37.3001C71.1999 37.3001 71.2999 37.3001 71.3999 37.2001H71.4999C71.5999 37.2001 71.6999 37.1001 71.8999 37.1001C71.8999 37.1001 71.8999 37.1001 71.9999 37.1001C72.0999 37.1001 72.2999 37.1001 72.3999 37.0001H72.4999C72.5999 37.0001 72.6999 37.0001 72.7999 37.0001H72.8999C72.9999 37.0001 73.1999 37.0001 73.2999 37.0001C73.4999 37.0001 73.5999 37.0001 73.7999 37.0001C73.9999 37.0001 74.0999 37.0001 74.2999 37.0001C74.3999 37.0001 74.3999 37.0001 74.4999 37.0001C74.5999 37.0001 74.6999 37.0001 74.7999 37.0001C74.8999 37.0001 74.9999 37.0001 74.9999 37.0001C75.0999 37.0001 75.1999 37.0001 75.2999 37.0001C75.3999 37.0001 75.4999 37.0001 75.5999 37.0001C75.6999 37.0001 75.7999 37.0001 75.7999 37.0001C75.8999 37.0001 75.9999 37.0001 76.0999 37.0001C76.1999 37.0001 76.2999 37.0001 76.2999 37.0001C76.3999 37.0001 76.4999 37.0001 76.5999 37.0001C76.6999 37.0001 76.6999 37.0001 76.7999 37.0001C76.8999 37.0001 76.9999 37.0001 77.0999 37.1001C77.1999 37.1001 77.1999 37.1001 77.2999 37.1001C77.3999 37.1001 77.5999 37.2001 77.6999 37.2001C77.6999 37.2001 77.6999 37.2001 77.7999 37.2001C77.9999 37.2001 78.0999 37.3001 78.2999 37.3001H78.3999C78.4999 37.3001 78.5999 37.4001 78.7999 37.4001C78.8999 37.4001 78.8999 37.4001 78.9999 37.5001C79.0999 37.5001 79.1999 37.6001 79.2999 37.6001C79.3999 37.6001 79.3999 37.6001 79.4999 37.7001C79.5999 37.7001 79.6999 37.8001 79.7999 37.8001C79.8999 37.8001 79.8999 37.8001 79.9999 37.9001C80.0999 37.9001 80.2999 38.0001 80.3999 38.0001H80.4999C80.6999 38.1001 80.7999 38.1001 80.9999 38.2001H81.0999C81.1999 38.3001 81.3999 38.3001 81.4999 38.4001C81.5999 38.4001 81.5999 38.5001 81.6999 38.5001C81.7999 38.6001 81.8999 38.6001 82.0999 38.7001C82.1999 38.7001 82.1999 38.8001 82.2999 38.8001C82.3999 38.9001 82.5999 38.9001 82.6999 39.0001C82.6999 39.0001 82.7999 39.0001 82.7999 39.1001C82.9999 39.2001 83.0999 39.3001 83.2999 39.4001C83.2999 39.4001 83.3999 39.4001 83.3999 39.5001C83.4999 39.6001 83.6999 39.7001 83.7999 39.7001C83.7999 39.7001 83.8999 39.7001 83.8999 39.8001C84.0999 39.9001 84.1999 40.0001 84.3999 40.1001C84.4999 40.2001 84.5999 40.2001 84.6999 40.3001C84.7999 40.4001 84.8999 40.4001 84.9999 40.5001L85.0999 40.6001C85.1999 40.7001 85.3999 40.8001 85.4999 40.9001C85.5999 41.0001 85.7999 41.1001 85.8999 41.2001L85.9999 41.3001C86.0999 41.4001 86.1999 41.4001 86.2999 41.5001L86.3999 41.6001C86.4999 41.7001 86.5999 41.7001 86.6999 41.8001L86.7999 41.9001C86.8999 42.0001 87.0999 42.1001 87.1999 42.2001C87.2999 42.3001 87.4999 42.4001 87.5999 42.5001L87.6999 42.6001C87.7999 42.7001 87.8999 42.8001 87.9999 42.8001L88.0999 42.9001C88.1999 43.0001 88.3999 43.1001 88.4999 43.3001C88.5999 43.4001 88.7999 43.5001 88.8999 43.6001L88.9999 43.7001C89.0999 43.8001 89.1999 43.9001 89.2999 44.0001L89.3999 44.1001C89.4999 44.2001 89.6999 44.4001 89.7999 44.5001C89.7999 44.5001 89.7999 44.5001 89.8999 44.6001C89.9999 44.7001 90.0999 44.8001 90.2999 44.9001L90.3999 45.0001C90.4999 45.1001 90.5999 45.2001 90.6999 45.3001L90.7999 45.4001C90.8999 45.5001 91.0999 45.7001 91.1999 45.8001L91.2999 45.9001C91.3999 46.0001 91.4999 46.1001 91.5999 46.2001L91.6999 46.3001C91.7999 46.4001 91.8999 46.5001 91.9999 46.6001L92.0999 46.7001C92.1999 46.8001 92.3999 47.0001 92.4999 47.1001L92.5999 47.2001C92.6999 47.3001 92.7999 47.4001 92.8999 47.5001L92.9999 47.6001C93.0999 47.7001 93.1999 47.8001 93.2999 47.9001L93.3999 48.0001C93.4999 48.1001 93.5999 48.3001 93.7999 48.4001C93.8999 48.6001 94.0999 48.7001 94.1999 48.9001L94.2999 49.0001C94.3999 49.1001 94.4999 49.2001 94.5999 49.4001C94.5999 49.5001 94.6999 49.5001 94.6999 49.6001C94.7999 49.7001 94.8999 49.9001 94.9999 50.0001C94.9999 50.0001 94.9999 50.1001 95.0999 50.1001L87.2999 55.0001L89.8999 53.5001L95.6999 50.1001L98.3999 48.6001H98.4999H98.5999H98.6999H98.7999H98.8999H98.9999H99.0999C99.0999 48.6001 99.1999 48.6001 99.1999 48.7001C99.1999 48.7001 99.2999 48.7001 99.2999 48.8001C99.2999 48.8001 99.3999 48.8001 99.3999 48.9001L99.4999 49.0001L99.5999 49.1001L99.6999 49.2001L99.7999 49.3001L99.8999 49.4001C99.8999 49.4001 99.8999 49.5001 99.9999 49.5001L100.1 49.6001C100.1 49.6001 100.1 49.7001 100.2 49.7001C100.2 49.7001 100.2 49.8001 100.3 49.8001C100.3 49.8001 100.3 49.9001 100.4 49.9001C100.4 49.9001 100.4 50.0001 100.5 50.0001V50.1001C100.5 50.2001 100.5 50.2001 100.5 50.3001C100.5 50.4001 100.5 50.4001 100.5 50.5001L102.3 66.4001C102.3 66.5001 102.3 66.5001 102.3 66.6001C102.3 66.7001 102.3 66.7001 102.3 66.8001C102.3 66.9001 102.3 66.9001 102.3 66.9001V67.0001V67.1001C102.3 67.1001 102.3 67.2001 102.2 67.2001C102.2 67.2001 102.2 67.3001 102.1 67.3001C102.1 67.3001 102 67.3001 102 67.4001L111.2 62.0001C111.2 62.0001 111.3 62.0001 111.3 61.9001C111.3 61.9001 111.4 61.9001 111.4 61.8001C111.4 61.8001 111.4 61.8001 111.4 61.7001C111.4 61.7001 111.4 61.7001 111.4 61.6001C111.4 61.6001 111.4 61.6001 111.4 61.5001C111.4 61.5001 111.4 61.5001 111.4 61.4001C111.4 61.4001 111.4 61.4001 111.4 61.3001C111.4 61.3001 111.4 61.3001 111.4 61.2001C111.4 61.2001 111.4 61.2001 111.4 61.1001C111.4 61.1001 111.4 61.1001 111.4 61.0001C111.4 61.0001 111.4 61.0001 111.4 60.9001L109.6 45.0001C109.6 45.0001 109.6 45.0001 109.6 44.9001C109.6 44.9001 109.6 44.9001 109.6 44.8001C109.6 44.8001 109.6 44.8001 109.6 44.7001C109.6 44.7001 109.6 44.7001 109.6 44.6001C109.6 44.6001 109.6 44.6001 109.6 44.5001C109.6 44.5001 109.6 44.5001 109.6 44.4001C109.6 44.4001 109.6 44.4001 109.6 44.3001C109.6 44.3001 109.6 44.3001 109.6 44.2001C109.6 44.2001 109.6 44.2001 109.6 44.1001C109.6 44.1001 109.6 44.1001 109.6 44.0001C109.6 44.0001 109.6 43.9001 109.5 43.9001L109.4 43.8001C109.4 43.8001 109.4 43.7001 109.3 43.7001C109.3 43.7001 109.3 43.6001 109.2 43.6001C109.2 43.6001 109.2 43.6001 109.1 43.5001C109.1 43.5001 109.1 43.5001 109 43.4001C109 43.4001 109 43.4001 108.9 43.3001C108.9 43.3001 108.9 43.3001 108.8 43.3001C108.8 43.3001 108.8 43.3001 108.7 43.3001C108.7 43.3001 108.7 43.3001 108.6 43.3001C108.6 43.3001 108.6 43.3001 108.5 43.3001C108.5 43.3001 108.5 43.3001 108.4 43.3001C108.4 43.3001 108.4 43.3001 108.3 43.3001C108.3 43.3001 108.3 43.3001 108.2 43.3001C108.2 43.3001 108.2 43.3001 108.1 43.3001C108.1 43.3001 108.1 43.3001 108 43.3001C108 43.3001 108 43.3001 107.9 43.3001H107.8H107.7L105 44.8001C105 44.8001 105 44.8001 105 44.7001C105 44.7001 105 44.6001 104.9 44.6001C104.8 44.5001 104.7 44.3001 104.6 44.2001C104.6 44.1001 104.5 44.1001 104.5 44.0001C104.4 43.9001 104.3 43.8001 104.2 43.6001L104.1 43.5001C104 43.3001 103.8 43.2001 103.7 43.0001C103.6 42.9001 103.5 42.7001 103.4 42.6001C103.4 42.6001 103.4 42.6001 103.4 42.5001L103.3 42.4001C103.2 42.3001 103.1 42.2001 103 42.1001L102.9 42.0001C102.8 41.9001 102.7 41.8001 102.6 41.7001C102.6 41.7001 102.6 41.6001 102.5 41.6001C102.4 41.5001 102.2 41.3001 102.1 41.2001L102 41.1001C101.9 41.0001 101.8 40.9001 101.7 40.8001C101.7 40.8001 101.7 40.8001 101.6 40.7001C101.6 40.7001 101.6 40.7001 101.5 40.6001C101.4 40.5001 101.3 40.4001 101.2 40.3001L101.1 40.2001C101 40.1001 100.8 39.9001 100.7 39.8001C100.7 39.8001 100.7 39.8001 100.6 39.7001C100.5 39.6001 100.4 39.5001 100.3 39.4001L100.2 39.3001C100.1 39.2001 99.9999 39.1001 99.7999 39.0001C99.7999 39.0001 99.7999 39.0001 99.6999 38.9001C99.5999 38.8001 99.3999 38.6001 99.2999 38.5001L99.1999 38.4001C99.0999 38.3001 98.9999 38.2001 98.8999 38.1001C98.8999 38.1001 98.7999 38.1001 98.7999 38.0001C98.7999 38.0001 98.7999 38.0001 98.6999 38.0001C98.5999 37.9001 98.3999 37.8001 98.2999 37.7001C98.1999 37.6001 97.9999 37.5001 97.8999 37.3001C97.8999 37.3001 97.7999 37.3001 97.7999 37.2001C97.6999 37.1001 97.5999 37.0001 97.4999 37.0001L97.3999 36.9001C97.2999 36.8001 97.0999 36.7001 96.9999 36.6001C96.8999 36.5001 96.6999 36.4001 96.5999 36.3001L96.4999 36.2001C96.3999 36.1001 96.2999 36.1001 96.1999 36.0001C96.1999 36.0001 96.1999 36.0001 96.0999 35.9001C96.0999 35.9001 96.0999 35.9001 95.9999 35.9001C95.8999 35.8001 95.7999 35.8001 95.6999 35.7001L95.5999 35.6001C95.4999 35.5001 95.2999 35.4001 95.1999 35.3001C95.0999 35.2001 94.8999 35.1001 94.7999 35.0001L94.6999 34.9001C94.5999 34.8001 94.4999 34.8001 94.3999 34.7001C94.3999 34.7001 94.3999 34.7001 94.2999 34.7001C94.1999 34.7001 94.1999 34.6001 94.0999 34.6001C93.8999 34.5001 93.7999 34.4001 93.5999 34.3001C93.5999 34.3001 93.4999 34.3001 93.4999 34.2001C93.4999 34.2001 93.3999 34.2001 93.3999 34.1001C93.2999 34.0001 93.1999 34.0001 92.9999 33.9001H92.8999C92.6999 33.8001 92.5999 33.7001 92.3999 33.7001C92.3999 33.7001 92.2999 33.7001 92.2999 33.6001C92.1999 33.5001 91.9999 33.5001 91.8999 33.4001C91.7999 33.4001 91.7999 33.3001 91.6999 33.3001C91.5999 33.3001 91.5999 33.2001 91.4999 33.2001C91.3999 33.2001 91.3999 33.1001 91.2999 33.1001C91.1999 33.1001 91.1999 33.0001 91.0999 33.0001C90.9999 32.9001 90.7999 32.9001 90.6999 32.8001H90.5999C90.3999 32.7001 90.2999 32.7001 90.0999 32.6001H89.9999C89.8999 32.6001 89.7999 32.5001 89.6999 32.5001H89.5999C89.4999 32.5001 89.4999 32.5001 89.3999 32.4001C89.2999 32.4001 89.1999 32.3001 89.0999 32.3001C88.9999 32.3001 88.9999 32.3001 88.8999 32.2001H88.7999C88.6999 32.2001 88.6999 32.2001 88.5999 32.1001C88.4999 32.1001 88.4999 32.1001 88.3999 32.0001C88.2999 32.0001 88.1999 31.9001 87.9999 31.9001H87.8999C87.6999 31.9001 87.5999 31.8001 87.3999 31.8001C87.3999 31.8001 87.3999 31.8001 87.2999 31.8001C87.1999 31.8001 86.9999 31.7001 86.8999 31.7001C86.7999 31.7001 86.7999 31.7001 86.6999 31.7001C86.5999 31.7001 86.4999 31.7001 86.3999 31.6001C86.2999 31.6001 86.2999 31.6001 86.1999 31.6001C86.0999 31.6001 86.0999 31.6001 85.9999 31.6001C85.9999 31.6001 85.9999 31.6001 85.8999 31.6001C85.7999 31.6001 85.6999 31.6001 85.6999 31.6001C85.5999 31.6001 85.4999 31.6001 85.3999 31.6001C85.2999 31.6001 85.1999 31.6001 85.1999 31.6001C85.0999 31.6001 85.0999 31.6001 84.9999 31.6001C84.9999 31.6001 84.9999 31.6001 84.8999 31.6001C84.7999 31.6001 84.6999 31.6001 84.5999 31.6001C84.4999 31.6001 84.3999 31.6001 84.3999 31.6001C84.2999 31.6001 84.1999 31.6001 84.0999 31.6001C83.9999 31.6001 83.9999 31.6001 83.8999 31.6001C83.6999 31.6001 83.5999 31.6001 83.3999 31.6001C83.1999 31.6001 82.9999 31.6001 82.8999 31.6001C82.7999 31.6001 82.6999 31.6001 82.4999 31.6001H82.3999C82.2999 31.6001 82.1999 31.6001 82.0999 31.6001H81.9999C81.8999 31.6001 81.6999 31.6001 81.5999 31.7001C81.5999 31.7001 81.5999 31.7001 81.4999 31.7001C81.3999 31.7001 81.2999 31.8001 81.0999 31.8001H80.9999C80.8999 31.8001 80.7999 31.8001 80.6999 31.9001C80.5999 31.9001 80.5999 31.9001 80.4999 31.9001C80.3999 31.9001 80.2999 31.9001 80.2999 32.0001C80.1999 32.0001 80.1999 32.0001 80.0999 32.1001H79.9999H79.8999C79.7999 32.1001 79.6999 32.2001 79.5999 32.2001C79.4999 32.2001 79.4999 32.2001 79.3999 32.3001C79.2999 32.3001 79.1999 32.4001 79.0999 32.4001C78.9999 32.4001 78.9999 32.4001 78.8999 32.5001C78.7999 32.5001 78.6999 32.6001 78.5999 32.6001C78.5999 32.6001 78.4999 32.6001 78.4999 32.7001C78.3999 32.8001 78.1999 32.8001 78.0999 32.9001L68.8999 38.3001C68.9999 38.2001 69.1999 38.1001 69.2999 38.1001C68.8999 38.1001 68.9999 38.1001 68.9999 38.1001Z" fill="#2F58FF"/>
<path d="M105.4 77.2001C106.1 77.7001 106.5 78.6001 106.5 79.4001C106.1 93.0001 96.4 98.2001 84.3 91.3001C80.3 89.0001 76.3 85.5001 72.9 81.1001L70.1 82.7001C69.8 82.9001 69.5 82.8001 69.2 82.6001C68.6 82.2001 68 81.4001 67.9 80.6001L66.1 64.7001C66 63.7001 66.6 63.3001 67.4 63.7001C67.5 63.7001 67.5 63.8001 67.6 63.8001L80.5 73.4001C81.6 74.2001 82 75.9001 81.2 76.4001L78.7 77.8001C80.5 79.7001 82.4 81.2001 84.3 82.3001C92.2 86.9001 98.7 83.2001 98.7 74.1001C98.7 73.1001 99.4 72.9001 100.1 73.3001L100.2 73.4001L105.4 77.2001ZM69.8 57.4001C69.7 48.1001 76.2 44.4001 84.2 49.0001C86.1 50.1001 88 51.7001 89.8 53.6001L87.3 55.0001C86.5 55.4001 87 57.2001 88 58.0001L100.9 67.6001C101 67.6001 101 67.7001 101.1 67.7001C101.9 68.1001 102.5 67.7001 102.4 66.7001L100.6 50.8001C100.5 49.9001 99.9 49.1001 99.3 48.8001C99 48.6001 98.6 48.6001 98.4 48.7001L95.7 50.2001C92.3 45.8001 88.3 42.3001 84.3 40.0001C72.1 33.0001 62.4 38.3001 62 52.0001C62 52.8001 62.5 53.7001 63.1 54.2001L68.3 58.1001C68.4 58.1001 68.4 58.2001 68.5 58.2001C69.2 58.6001 69.9 58.3001 69.8 57.4001Z" fill="#F1F9FD"/>
<path d="M96.7 81.4002C98 79.7002 98.8 77.2002 98.8 74.1002C98.8 73.1002 99.5 72.9002 100.2 73.3002L100.3 73.4002L105.5 77.3002C106.2 77.8002 106.6 78.7002 106.6 79.5002C106.1 93.0002 96.4 98.2002 84.3 91.3002C80.3 89.0002 76.3 85.5002 72.9 81.1002L70.1 82.7002C69.8 82.9002 69.5 82.8002 69.2 82.6002C68.6 82.2002 68 81.4002 67.9 80.6002L66.1 64.7002C66 63.7002 66.6 63.3002 67.4 63.7002C67.5 63.7002 67.5 63.8002 67.6 63.8002M75.7 37.0002C67.8 36.2002 62.3 41.7002 62 52.0002C62 52.8002 62.5 53.7002 63.1 54.2002L68.3 58.1002C68.4 58.1002 68.4 58.2002 68.5 58.2002C69.2 58.6002 69.8 58.3002 69.8 57.4002C69.7 48.1002 76.2 44.4002 84.2 49.0002C86.1 50.1002 88 51.7002 89.8 53.6002L87.3 55.0002C86.5 55.4002 87 57.2002 88 58.0002L100.9 67.6002C101 67.6002 101 67.7002 101.1 67.7002C101.9 68.1002 102.5 67.7002 102.4 66.7002" stroke="#171A21" stroke-width="2" stroke-miterlimit="10" stroke-linecap="round" stroke-linejoin="round"/>
<path d="M43.4001 126.4C43.4001 126 43.3001 125.5 43.2001 125.1C43.1001 124.6 43.0001 124.1 42.9001 123.6C42.8001 123.3 42.8001 122.9 42.7001 122.6C42.6001 122.3 42.5001 122 42.5001 121.6C42.4001 121.2 42.3001 120.7 42.1001 120.3C42.0001 120 41.9001 119.8 41.9001 119.5C41.7001 119 41.6001 118.5 41.4001 118C41.3001 117.8 41.3001 117.6 41.2001 117.4C40.9001 116.7 40.7001 116 40.4001 115.3C40.4001 115.2 40.3001 115.2 40.3001 115.1C40.0001 114.5 39.7001 113.9 39.4001 113.3C39.3001 113.1 39.2001 112.9 39.1001 112.7C38.8001 112.1 38.5001 111.6 38.2001 111C38.1001 110.9 38.1001 110.8 38.0001 110.7C37.6001 110.1 37.2001 109.4 36.8001 108.8C36.7001 108.6 36.6001 108.4 36.4001 108.3C36.1001 107.8 35.8001 107.4 35.5001 107C35.3001 106.8 35.2001 106.5 35.0001 106.3C34.7001 105.9 34.4001 105.6 34.2001 105.2C34.0001 104.9 33.7001 104.6 33.5001 104.3C33.3001 104 33.0001 103.8 32.8001 103.5C32.4001 103 32.0001 102.6 31.6001 102.2C31.3001 101.9 31.1001 101.7 30.8001 101.4C30.6001 101.2 30.4001 101 30.2001 100.8C29.9001 100.5 29.5001 100.2 29.1001 99.9001C28.9001 99.7001 28.7001 99.5001 28.5001 99.4001C28.1001 99.1001 27.7001 98.8001 27.3001 98.5001C27.1001 98.4001 26.9001 98.2001 26.7001 98.1001C26.1001 97.7001 25.5001 97.3001 24.9001 97.0001C24.3001 96.7001 23.7001 96.4001 23.2001 96.1001C23.1001 96.0001 22.9001 96.0001 22.8001 95.9001C22.3001 95.7001 21.7001 95.4001 21.2001 95.3001H21.1001C20.6001 95.1001 20.2001 95.0001 19.7001 94.9001C19.4001 94.8001 19.2001 94.8001 18.9001 94.7001C18.6001 94.6001 18.2001 94.6001 17.9001 94.5001C17.7001 94.5001 17.5001 94.5001 17.3001 94.4001C16.9001 94.4001 16.5001 94.4001 16.1001 94.4001C16.0001 94.4001 15.9001 94.4001 15.8001 94.4001C15.3001 94.4001 14.9001 94.5001 14.4001 94.6001C14.3001 94.6001 14.2001 94.7001 14.1001 94.7001C13.7001 94.8001 13.4001 94.9001 13.1001 95.0001C13.0001 95.0001 12.9001 95.1001 12.8001 95.1001C12.4001 95.3001 12.0001 95.5001 11.6001 95.7001L26.8001 86.9001C26.8001 86.9001 26.9001 86.9001 26.9001 86.8001C27.2001 86.6001 27.5001 86.5001 27.8001 86.3001C27.9001 86.3001 27.9001 86.3001 28.0001 86.2001C28.1001 86.2001 28.2001 86.1001 28.3001 86.1001C28.5001 86.0001 28.6001 86.0001 28.8001 85.9001C29.0001 85.8001 29.2001 85.8001 29.3001 85.8001C29.4001 85.8001 29.5001 85.7001 29.6001 85.7001C29.7001 85.7001 29.7001 85.7001 29.8001 85.7001C30.2001 85.6001 30.5001 85.6001 30.9001 85.6001C30.9001 85.6001 30.9001 85.6001 31.0001 85.6001C31.1001 85.6001 31.2001 85.6001 31.3001 85.6001C31.6001 85.6001 31.9001 85.6001 32.2001 85.6001C32.3001 85.6001 32.4001 85.6001 32.5001 85.6001C32.7001 85.6001 32.9001 85.6001 33.1001 85.7001C33.3001 85.7001 33.4001 85.7001 33.6001 85.8001C33.8001 85.8001 33.9001 85.9001 34.1001 85.9001C34.4001 85.9001 34.6001 86.0001 34.9001 86.1001C35.0001 86.1001 35.2001 86.2001 35.3001 86.2001C35.6001 86.3001 35.9001 86.4001 36.3001 86.5001H36.4001C36.8001 86.6001 37.2001 86.8001 37.6001 86.9001C37.8001 87.0001 37.9001 87.0001 38.1001 87.1001C38.2001 87.2001 38.4001 87.2001 38.5001 87.3001C39.1001 87.6001 39.6001 87.9001 40.2001 88.2001C40.8001 88.5001 41.4001 88.9001 42.0001 89.3001C42.2001 89.4001 42.4001 89.6001 42.6001 89.7001C43.0001 90.0001 43.4001 90.3001 43.8001 90.6001C44.0001 90.8001 44.2001 90.9001 44.4001 91.1001C44.8001 91.4001 45.1001 91.7001 45.5001 92.0001C45.7001 92.2001 45.9001 92.4001 46.1001 92.6001C46.2001 92.7001 46.4001 92.8001 46.5001 93.0001C46.6001 93.1001 46.8001 93.3001 46.9001 93.4001C47.3001 93.8001 47.7001 94.3001 48.1001 94.7001C48.2001 94.8001 48.4001 95.0001 48.5001 95.1001C48.6001 95.2001 48.7001 95.4001 48.8001 95.5001C49.0001 95.8001 49.3001 96.1001 49.5001 96.4001C49.7001 96.6001 49.8001 96.8001 50.0001 97.0001C50.1001 97.2001 50.2001 97.3001 50.4001 97.5001C50.6001 97.7001 50.7001 98.0001 50.9001 98.2001C51.0001 98.4001 51.1001 98.5001 51.3001 98.7001C51.5001 99.0001 51.7001 99.3001 51.9001 99.6001C52.0001 99.8001 52.1001 100 52.3001 100.1C52.3001 100.2 52.4001 100.2 52.4001 100.3C52.7001 100.8 53.1001 101.4 53.4001 101.9C53.4001 101.9 53.4001 102 53.5001 102C53.6001 102.1 53.6001 102.2 53.7001 102.3C53.9001 102.7 54.1001 103 54.3001 103.4C54.4001 103.6 54.5001 103.8 54.6001 103.9C54.7001 104.1 54.8001 104.3 54.9001 104.5C55.0001 104.7 55.1001 104.8 55.1001 105C55.3001 105.4 55.5001 105.9 55.7001 106.3C55.7001 106.4 55.8001 106.5 55.8001 106.5C55.8001 106.5 55.8001 106.5 55.8001 106.6C56.0001 107.2 56.3001 107.7 56.5001 108.3C56.5001 108.4 56.6001 108.5 56.6001 108.6C56.7001 108.8 56.7001 109 56.8001 109.2C56.9001 109.5 57.0001 109.8 57.1001 110C57.2001 110.2 57.2001 110.4 57.3001 110.7C57.4001 111 57.5001 111.2 57.5001 111.5C57.5001 111.7 57.6001 111.8 57.6001 112C57.7001 112.3 57.7001 112.6 57.8001 112.9C57.9001 113.2 58.0001 113.5 58.0001 113.9C58.0001 114 58.1001 114.1 58.1001 114.2C58.1001 114.4 58.2001 114.7 58.2001 114.9C58.3001 115.4 58.4001 115.9 58.5001 116.4C58.5001 116.5 58.6001 116.7 58.6001 116.8C58.6001 117.1 58.7001 117.4 58.7001 117.7C58.7001 117.9 58.7001 118.1 58.8001 118.4C58.9001 119.1 58.9001 119.8 58.9001 120.5C58.9001 126.4 56.8001 130.6 53.4001 132.5L38.0001 141.1C41.4001 139.1 43.5001 135 43.5001 129.1C43.5001 128.4 43.5001 127.7 43.4001 127C43.4001 126.8 43.4001 126.6 43.4001 126.4Z" fill="#2F58FF"/>
<path d="M24.8 96.8002C14.4 90.8002 6 95.6002 6 107.5C6 119.4 14.3 133.9 24.7 139.9C35 145.9 43.5 141.1 43.5 129.2C43.5 117.2 35.2 102.7 24.8 96.8002Z" fill="white"/>
<path d="M16.1001 94.2002C10.2001 94.4002 6.1001 99.2002 6.1001 107.5C6.1001 119.4 14.4001 133.9 24.8001 139.9C32.9001 144.6 39.8001 142.7 42.4001 135.9" stroke="#171A21" stroke-width="2" stroke-miterlimit="10" stroke-linecap="round" stroke-linejoin="round"/>
<path d="M29.8999 124.6L27.0999 121.3C26.7999 121 26.6999 120.6 26.6999 120.2V119C26.7999 118.9 26.7999 118.9 26.8999 118.8C27.2999 118.4 27.5999 117.9 27.7999 117.3C28.1999 117.3 28.4999 117 28.4999 116.5V115.1C28.4999 114.8 28.3999 114.4 28.1999 114V112.2C28.1999 112 28.2999 110.9 27.5999 109.6C26.9999 108.4 25.9999 107.5 24.6999 106.7C23.3999 105.9 22.3999 105.8 21.7999 106.2C21.0999 106.7 21.1999 107.9 21.1999 108.1V109.9C20.9999 110 20.8999 110.3 20.8999 110.6V112C20.8999 112.4 21.0999 112.9 21.2999 113.3C21.5999 114.7 22.0999 116 22.2999 116.4V117.5C22.2999 117.8 22.0999 118 21.8999 118.1L19.2999 118.2C18.3999 118.2 17.8999 119 17.8999 120.1V121.2C17.8999 122.8 22.3999 125.8 24.6999 127.2C27.0999 128.6 31.4999 130.7 31.4999 129.1V128.1C31.3999 127 30.7999 125.6 29.8999 124.6Z" fill="#2F58FF"/>
</svg>
