<svg width="144" height="144" viewBox="0 0 144 144" fill="none" xmlns="http://www.w3.org/2000/svg">
<path d="M26.2002 94.3V99.8C26.2002 100.1 26.4002 100.4 26.8002 100.6L94.2002 139.5C94.3002 139.6 94.4002 139.6 94.5002 139.6C94.6002 139.6 94.6002 139.6 94.7002 139.7H94.8002C94.8002 139.7 94.8002 139.7 94.9002 139.7C94.9002 139.7 94.9002 139.7 95.0002 139.7C95.1002 139.7 95.1002 139.7 95.2002 139.7C95.2002 139.7 95.2002 139.7 95.3002 139.7C95.3002 139.7 95.3002 139.7 95.4002 139.7C95.4002 139.7 95.4002 139.7 95.5002 139.7C95.6002 139.7 96.2002 139.7 96.2002 139.7C96.3002 139.7 96.3002 139.7 96.4002 139.7C96.4002 139.7 96.4002 139.7 96.5002 139.7C96.6002 139.7 96.6002 139.7 96.7002 139.7H96.8002H96.9002H97.0002C97.1002 139.7 97.2002 139.6 97.3002 139.6L137.6 116.2C137.7 116.2 137.8 116.1 137.8 116L137.9 115.9C137.9 115.9 138 115.9 138 115.8L138.2 115.5V113.2L138.1 109.9C138.1 110 138.1 110 138.1 110.1H138C138 110.2 137.9 110.2 137.9 110.3C137.9 110.4 137.8 110.4 137.7 110.5" stroke="#171A21" stroke-width="2" stroke-miterlimit="10" stroke-linecap="round" stroke-linejoin="round"/>
<path d="M69.7003 70C68.9003 69.5 68.3003 68.4 68.3003 67.5L68.4003 20.9C68.4003 20.4999 68.6003 20.1 68.8003 20C69.8003 19.4 71.6003 18.2999 71.6003 18.2999C71.6003 18.2999 71.8003 18.2 71.9003 18.2C72.0003 18.2 72.1003 18.2 72.2003 18.2C72.4003 18.3 72.5003 18.3 72.6003 18.4L140 57.2999C140.4 57.5 140.8 57.9 141 58.4C141.1 58.6 141.4 59.0999 141.4 59.7999C141.4 60.3999 141.1 104.8 141.1 105.6C141.1 106.3 141.1 107.4 140.5 107.6L138 109.1" fill="white"/>
<path d="M69.7003 70C68.9003 69.5 68.3003 68.4 68.3003 67.5L68.4003 20.9C68.4003 20.5 68.6003 20.1 68.8003 20C69.8003 19.4 71.6003 18.2999 71.6003 18.2999C71.6003 18.2999 71.8003 18.2 71.9003 18.2C72.0003 18.2 72.1003 18.2 72.2003 18.2C72.4003 18.3 72.5003 18.3 72.6003 18.4L140 57.2999C140.4 57.4999 140.8 57.9 141 58.4C141.1 58.6 141.4 59.0999 141.4 59.7999C141.4 60.3999 141.1 104.8 141.1 105.6C141.1 106.3 141.1 107.4 140.5 107.6L138 109.1" stroke="#171A21" stroke-width="2" stroke-miterlimit="10" stroke-linecap="round" stroke-linejoin="round"/>
<path d="M135.9 107.7C138 108.9 138 110.9 135.9 112.2L97.1004 134.8C96.4004 135.2 95.2004 135.2 94.5004 134.8L28.1004 96.4C26.0004 95.2 26.0004 93.2 28.1004 91.9L66.9004 69.3C67.6004 68.9 68.8004 68.9 69.5004 69.3L135.9 107.7Z" fill="#2F58FF"/>
<path d="M90.6004 109.1L69.8004 97.1C69.3004 96.8 68.4004 96.8 67.9004 97.1L55.9004 104.1C55.4004 104.4 55.4004 104.9 55.9004 105.2L76.7004 117.2C77.2004 117.5 78.1004 117.5 78.6004 117.2L90.6004 110.2C91.1004 109.9 91.1004 109.4 90.6004 109.1Z" stroke="white" stroke-width="2" stroke-miterlimit="10"/>
<path d="M73.3002 29.0999L73.2002 63.9999C73.2002 65.1999 73.8002 66.2999 74.9002 66.8999L133.7 100.9C134.5 101.3 135.4 100.8 135.4 99.8998L135.5 64.9999C135.5 63.7999 134.9 62.6998 133.8 62.0998L75.0002 28.0999C74.2002 27.6999 73.3002 28.1999 73.3002 29.0999Z" fill="#F1F9FD" stroke="#171A21" stroke-width="2" stroke-miterlimit="10" stroke-linecap="round" stroke-linejoin="round"/>
<path d="M136.4 65.6001C136.4 65.6001 136.2 69.3001 136.2 68.9001C136.2 70.7001 134.9 72.9001 133.4 73.8001C131.8 74.7001 130.6 74.0001 130.6 72.2001V69.0001L136.4 65.6001Z" fill="#2F58FF"/>
<path d="M62.8999 30.2L136.1 59.5999C136.5 59.7999 136.8 60.2 136.8 60.7V64.8C136.8 65.2 136.6 65.6 136.2 65.8L130.6 69C130.3 69.2 129.8 69.2 129.5 69L62.8999 30.2Z" fill="#2F58FF"/>
<path d="M130.6 69.2V72.4C130.6 74.2 129.3 74.9 127.8 74C126.9 73.5 126.1 72.5 125.6 71.5C125.3 70.9 124.7 70.7 124.1 71C123.6 71.3 122.9 71.2 122.2 70.8C121.3 70.3 120.5 69.3 120 68.3C119.7 67.7 119.1 67.5 118.5 67.8C118 68.1 117.3 68 116.6 67.6C115.7 67.1 114.9 66.1 114.4 65.1C114.1 64.5 113.5 64.3 112.9 64.6C112.4 64.9 111.7 64.8 111 64.4C110.1 63.9 109.3 62.9 108.8 61.9C108.5 61.3 107.9 61.1 107.3 61.4C106.8 61.7 106.1 61.6 105.4 61.2C104.5 60.7 103.7 59.7 103.2 58.7C102.9 58.1 102.3 57.9 101.7 58.2C101.2 58.5 100.5 58.4 99.8001 58C98.9001 57.5 98.1001 56.5 97.6001 55.5C97.3001 54.9 96.7001 54.7 96.1001 55C95.6001 55.3 94.9001 55.2 94.2001 54.8C93.0001 54 92.2001 53.1 91.7001 52C91.4001 51.4 90.8001 51.2 90.2001 51.5C89.7001 51.8 89.0001 51.7 88.3001 51.3C87.4001 50.8 86.6001 49.8 86.1001 48.8C85.8001 48.2 85.2001 48 84.6001 48.3C84.1001 48.6 83.4001 48.5 82.7001 48.1C81.8001 47.6 81.0001 46.6 80.5001 45.6C80.2001 45 79.5001 44.7 79.0001 45C78.5001 45.3 77.8001 45.2 77.1001 44.8C76.2001 44.3 75.4001 43.3 74.9001 42.3C74.6001 41.7 74.0001 41.5 73.4001 41.8C72.9001 42.1 72.2001 42 71.5001 41.6C70.6001 41.1 69.8001 40.1 69.3001 39.1C69.0001 38.5 68.4001 38.3 67.8001 38.6C67.3001 38.9 66.6001 38.8 65.9001 38.4C64.3001 37.5 63.1001 35.3 63.1001 33.5C63.1001 32.1 64.7001 31.2 65.9001 31.9L130.6 69.2Z" fill="#2F58FF"/>
<path d="M68.0998 23L64.3998 28.3C63.5998 29.4 63.9998 30.9 65.0998 31.5L128.8 68.2C129.8 68.8 131.1 68.5 131.8 67.5L135.6 61.9C136.3 60.8 136 59.3 134.9 58.7L70.9998 22.3C69.9998 21.7 68.6998 22 68.0998 23Z" fill="#2F58FF"/>
<path d="M54.7998 40.3999L90.3998 60.9999" stroke="#171A21" stroke-width="2" stroke-miterlimit="10" stroke-linecap="round" stroke-linejoin="round"/>
<path d="M29.7998 54.9999L54.7998 40.3999" stroke="#171A21" stroke-width="2" stroke-miterlimit="10" stroke-linecap="round" stroke-linejoin="round"/>
<path d="M22.2002 49.3001H22.1002C22.0002 49.3001 22.0002 49.3001 21.9002 49.2001C21.8002 49.2001 21.7002 49.1001 21.6002 49.1001C21.6002 49.1001 21.5002 49.1001 21.5002 49.0001C21.4002 48.9001 21.3002 48.9001 21.1002 48.8001L13.7002 43.9001C13.8002 44.0001 13.9002 44.0001 14.1002 44.1001C14.1002 44.1001 14.2002 44.1001 14.2002 44.2001C14.3002 44.2001 14.4002 44.3001 14.5002 44.3001C14.6002 44.3001 14.6002 44.4001 14.7002 44.4001H14.8002C14.9002 44.4001 15.0002 44.5001 15.1002 44.5001H15.2002C15.3002 44.5001 15.5002 44.6001 15.7002 44.6001C15.8002 44.6001 15.8002 44.6001 15.9002 44.6001C16.0002 44.6001 16.1002 44.6001 16.2002 44.6001C16.3002 44.6001 16.3002 44.6001 16.4002 44.6001C16.5002 44.6001 16.6002 44.6001 16.6002 44.6001C16.7002 44.6001 16.7002 44.6001 16.8002 44.6001C16.9002 44.6001 16.9002 44.6001 17.0002 44.6001C17.1002 44.6001 17.2002 44.6001 17.2002 44.6001C17.3002 44.6001 17.3002 44.6001 17.4002 44.6001C17.5002 44.6001 17.6002 44.6001 17.6002 44.5001C17.7002 44.5001 17.7002 44.5001 17.8002 44.5001C17.9002 44.5001 18.0002 44.5001 18.1002 44.4001C18.2002 44.4001 18.2002 44.4001 18.3002 44.3001C18.4002 44.3001 18.5002 44.2001 18.6002 44.2001C18.6002 44.2001 18.7002 44.2001 18.7002 44.1001C18.8002 44.0001 19.0002 43.9001 19.1002 43.9001C19.2002 43.8001 19.4002 43.8001 19.5002 43.7001C19.5002 43.7001 19.6002 43.7001 19.6002 43.6001C19.7002 43.5001 19.8002 43.5001 19.9002 43.4001C20.0002 43.4001 20.0002 43.3001 20.1002 43.3001C20.2002 43.2001 20.4002 43.1001 20.5002 43.0001C20.7002 42.9001 20.8002 42.8001 21.0002 42.7001C21.2002 42.6001 21.3002 42.5001 21.5002 42.4001C21.6002 42.4001 21.6002 42.3001 21.7002 42.3001C21.8002 42.2001 21.9002 42.1001 22.0002 42.0001C22.1002 41.9001 22.1002 41.9001 22.2002 41.8001C22.3002 41.7001 22.4002 41.6001 22.5002 41.6001C22.6002 41.5001 22.6002 41.5001 22.7002 41.4001C22.8002 41.3001 22.9002 41.2001 23.0002 41.2001C23.0002 41.1001 23.0002 41.0001 23.1002 41.0001C23.2002 40.9001 23.3002 40.8001 23.3002 40.7001C23.4002 40.6001 23.4002 40.6001 23.5002 40.5001C23.6002 40.4001 23.7002 40.3001 23.7002 40.2001C23.8002 40.1001 23.8002 40.1001 23.9002 40.0001C24.0002 39.9001 24.1002 39.8001 24.2002 39.7001C24.3002 39.6001 24.3002 39.6001 24.4002 39.5001C24.5002 39.4001 24.6002 39.3001 24.7002 39.1001L24.8002 39.0001C24.9002 38.8001 25.1002 38.6001 25.2002 38.5001C25.2002 38.5001 25.2002 38.4001 25.3002 38.4001C25.4002 38.2001 25.5002 38.1001 25.6002 37.9001C25.7002 37.7001 25.9002 37.5001 26.0002 37.3001C26.2002 37.0001 26.4002 36.7001 26.5002 36.4001C26.5002 36.3001 26.6002 36.3001 26.6002 36.2001C26.8002 35.8001 27.0002 35.4001 27.2002 35.0001C27.2002 34.9001 27.3002 34.9001 27.3002 34.8001C27.4002 34.5001 27.6002 34.2001 27.7002 33.9001C27.7002 33.8001 27.8002 33.7001 27.8002 33.6001C27.8002 33.5001 27.9002 33.4001 27.9002 33.3001C28.0002 33.1001 28.0002 33.0001 28.1002 32.8001C28.1002 32.7001 28.1002 32.7001 28.2002 32.6001C28.3002 32.4001 28.4002 32.2001 28.4002 32.0001C28.4002 31.9001 28.4002 31.9001 28.5002 31.8001C28.6002 31.6001 28.6002 31.5001 28.7002 31.3001C28.7002 31.2001 28.7002 31.2001 28.8002 31.1001C28.9002 31.0001 28.9002 30.8001 28.9002 30.7001C28.9002 30.6001 28.9002 30.6001 29.0002 30.5001C29.1002 30.3001 29.1002 30.1001 29.2002 29.9001C29.3002 29.7001 29.3002 29.5001 29.4002 29.3001C29.4002 29.2001 29.4002 29.2001 29.5002 29.1001C29.5002 29.0001 29.6002 28.8001 29.6002 28.7001C29.6002 28.6001 29.6002 28.5001 29.7002 28.5001C29.7002 28.4001 29.8002 28.2001 29.8002 28.1001C29.8002 28.0001 29.8002 27.9001 29.8002 27.9001C29.8002 27.8001 29.9002 27.6001 29.9002 27.5001C29.9002 27.4001 29.9002 27.4001 29.9002 27.3001C29.9002 27.1001 30.0002 26.9001 30.0002 26.8001V26.7001C30.0002 26.5001 30.1002 26.3001 30.1002 26.1001C30.1002 26.0001 30.1002 26.0001 30.1002 25.9001C30.1002 25.8001 30.1002 25.6001 30.1002 25.5001C30.1002 25.4001 30.1002 25.4001 30.1002 25.3001C30.1002 25.2001 30.1002 25.0001 30.1002 24.9001C30.1002 24.8001 30.1002 24.8001 30.1002 24.7001C30.1002 24.5001 30.1002 24.3001 30.1002 24.1001C30.1002 23.9001 30.1002 23.7001 30.1002 23.5001C30.1002 23.4001 30.1002 23.4001 30.1002 23.3001C30.1002 23.2001 30.1002 23.0001 30.1002 22.9001C30.1002 22.8001 30.1002 22.7001 30.1002 22.7001C30.1002 22.6001 30.1002 22.5001 30.1002 22.4001C30.1002 22.3001 30.1002 22.2001 30.1002 22.2001C30.1002 22.1001 30.1002 22.0001 30.1002 21.9001C30.1002 21.8001 30.1002 21.7001 30.1002 21.6001C30.1002 21.5001 30.1002 21.4001 30.0002 21.3001C30.0002 21.2001 30.0002 21.1001 29.9002 21.0001C29.9002 20.9001 29.9002 20.8001 29.8002 20.8001C29.8002 20.7001 29.7002 20.6001 29.7002 20.4001C29.7002 20.3001 29.7002 20.3001 29.6002 20.2001C29.5002 20.0001 29.5002 19.8001 29.4002 19.6001C29.4002 19.6001 29.4002 19.6001 29.4002 19.5001C29.3002 19.3001 29.2002 19.0001 29.1002 18.8001C29.1002 18.8001 29.1002 18.8001 29.1002 18.7001C29.0002 18.5001 28.9002 18.4001 28.8002 18.2001L28.7002 18.1001C28.6002 18.0001 28.5002 17.8001 28.4002 17.7001C28.3002 17.6001 28.1002 17.4001 28.0002 17.3001L27.9002 17.2001C27.8002 17.1001 27.6002 17.0001 27.5002 16.9001L34.9002 21.8001C35.0002 21.9001 35.2002 22.0001 35.3002 22.1001L35.4002 22.2001C35.5002 22.3001 35.7002 22.4001 35.8002 22.6001C35.9002 22.7001 36.0002 22.9001 36.1002 23.0001L36.2002 23.1001C36.3002 23.3001 36.4002 23.4001 36.5002 23.6001C36.6002 23.8001 36.7002 24.0001 36.8002 24.3001C36.9002 24.5001 36.9002 24.7001 37.0002 24.9001V25.0001C37.0002 25.1001 37.1002 25.2001 37.1002 25.4001V25.5001V25.6001C37.1002 25.7001 37.1002 25.8001 37.2002 25.9001V26.0001V26.1001C37.2002 26.2001 37.2002 26.3001 37.2002 26.4001V26.5001C37.2002 26.6001 37.2002 26.6001 37.2002 26.7001C37.2002 26.8001 37.2002 26.9001 37.2002 26.9001V27.0001C37.2002 27.1001 37.2002 27.1001 37.2002 27.2001C37.2002 27.3001 37.2002 27.4001 37.2002 27.4001V27.5001C37.2002 27.6001 37.2002 27.7001 37.2002 27.8001C37.2002 27.9001 37.2002 27.9001 37.2002 28.0001H36.9002C36.9002 28.2001 36.7002 28.4001 36.7002 28.5001C36.7002 28.7001 37.0002 28.8001 37.0002 29.0001L37.1002 29.1001C37.1002 29.2001 37.2002 29.2001 37.2002 29.3001C37.2002 29.4001 37.2002 29.5001 37.2002 29.5001C37.2002 29.6001 37.2002 29.6001 37.2002 29.7001C37.2002 29.8001 37.2002 29.8001 37.2002 29.9001V30.0001C37.2002 30.1001 37.2002 30.2001 37.2002 30.3001C37.2002 30.4001 37.2002 30.4001 37.2002 30.5001C37.2002 30.5001 37.2002 30.5001 37.2002 30.6001C37.2002 30.8001 37.2002 31.0001 37.1002 31.2001V31.3001C37.1002 31.5001 37.1002 31.6001 37.0002 31.8001V31.9001C37.0002 32.0001 37.0002 32.0001 37.0002 32.1001C37.0002 32.2001 37.0002 32.3001 37.0002 32.4001C37.0002 32.5001 37.0002 32.5001 37.0002 32.6001C37.0002 32.7001 37.0002 32.8001 37.0002 32.8001C37.0002 32.9001 37.0002 32.9001 37.0002 33.0001C37.0002 33.1001 37.0002 33.1001 36.9002 33.2001C36.9002 33.3001 36.9002 33.4001 36.8002 33.4001V33.5001C36.8002 33.6001 36.7002 33.7001 36.7002 33.8001C36.7002 33.9001 36.7002 33.9001 36.6002 34.0001C36.6002 34.0001 36.6002 34.0001 36.6002 34.1001C36.5002 34.3001 36.5002 34.5001 36.4002 34.7001C36.4002 34.9001 36.3002 35.0001 36.2002 35.2001V35.3001C36.2002 35.4001 36.2002 35.4001 36.1002 35.5001C36.1002 35.6001 36.0002 35.7001 36.0002 35.8001C36.0002 35.9001 36.0002 35.9001 35.9002 36.0001C35.9002 36.1001 35.9002 36.1001 35.8002 36.2001C35.8002 36.3001 35.8002 36.3001 35.7002 36.4001C35.7002 36.5001 35.6002 36.6001 35.6002 36.7001C35.6002 36.8001 35.6002 36.8001 35.5002 36.9001C35.5002 36.9001 35.5002 36.9001 35.5002 37.0001C35.4002 37.2001 35.4002 37.4001 35.3002 37.5001C35.3002 37.5001 35.3002 37.6001 35.2002 37.6001C35.1002 37.7001 35.1002 37.9001 35.0002 38.0001C35.0002 38.0001 35.0002 38.0001 35.0002 38.1001C35.0002 38.2001 34.9002 38.3001 34.9002 38.4001C34.9002 38.5001 34.8002 38.6001 34.8002 38.7001C34.7002 39.0001 34.5002 39.3001 34.4002 39.5001C34.4002 39.5001 34.4002 39.5001 34.4002 39.6001V39.7001C34.2002 40.1001 34.0002 40.5001 33.8002 40.9001C33.8002 40.9001 33.8002 40.9001 33.8002 41.0001C33.8002 41.0001 33.8002 41.1001 33.7002 41.1001C33.5002 41.4001 33.3002 41.7001 33.2002 42.0001C33.1002 42.2001 32.9002 42.4001 32.8002 42.6001C32.7002 42.7001 32.6002 42.9001 32.5002 43.0001C32.5002 43.0001 32.5002 43.1001 32.4002 43.1001C32.3002 43.3001 32.2002 43.4001 32.0002 43.6001L31.9002 43.7001C31.8002 43.8001 31.7002 43.9001 31.7002 44.0001C31.7002 44.0001 31.7002 44.0001 31.7002 44.1001C31.6002 44.2001 31.6002 44.2001 31.5002 44.3001C31.4002 44.4001 31.4002 44.4001 31.3002 44.5001C31.3002 44.5001 31.3002 44.6001 31.2002 44.6001C31.1002 44.7001 31.1002 44.7001 31.0002 44.8001C30.9002 44.9001 30.9002 44.9001 30.8002 45.0001L30.7002 45.1001C30.6002 45.2001 30.6002 45.2001 30.5002 45.3001L30.4002 45.4001L30.3002 45.5001C30.2002 45.6001 30.2002 45.6001 30.1002 45.7001L30.0002 45.8001L29.9002 45.9001C29.8002 46.0001 29.8002 46.0001 29.7002 46.1001L29.6002 46.2001C29.5002 46.3001 29.5002 46.3001 29.4002 46.3001C29.3002 46.4001 29.3002 46.4001 29.2002 46.5001C29.2002 46.5001 29.2002 46.5001 29.1002 46.6001C29.0002 46.7001 28.9002 46.7001 28.9002 46.8001C28.8002 46.8001 28.8002 46.9001 28.7002 46.9001C28.6002 47.0001 28.4002 47.1001 28.3002 47.2001C28.2002 47.3001 28.1002 47.4001 27.9002 47.5001C27.9002 47.5001 27.8002 47.5001 27.8002 47.6001C27.7002 47.7001 27.6002 47.7001 27.5002 47.8001C27.5002 47.8001 27.4002 47.8001 27.4002 47.9001C27.3002 47.9001 27.3002 48.0001 27.2002 48.0001C27.2002 48.0001 27.1002 48.0001 27.1002 48.1001C27.0002 48.1001 27.0002 48.2001 26.9002 48.2001L26.8002 48.3001C26.8002 48.3001 26.8002 48.3001 26.7002 48.3001C26.6002 48.4001 26.4002 48.4001 26.3002 48.5001C26.2002 48.6001 26.0002 48.6001 25.9002 48.7001C25.9002 48.7001 25.8002 48.7001 25.8002 48.8001C25.7002 48.8001 25.7002 48.9001 25.6002 48.9001H25.5002C25.4002 48.9001 25.4002 48.9001 25.3002 49.0001H25.2002H25.1002C25.0002 49.0001 25.0002 49.0001 24.9002 49.0001H24.8002C24.7002 49.0001 24.7002 49.0001 24.6002 49.0001C24.5002 49.0001 24.5002 49.0001 24.4002 49.0001C24.4002 49.0001 24.4002 49.0001 24.3002 49.0001C24.2002 49.0001 24.2002 49.0001 24.1002 49.0001C24.0002 49.0001 24.0002 49.0001 23.9002 49.0001C23.9002 49.0001 23.9002 49.0001 23.8002 49.0001H23.7002C23.6002 49.0001 23.5002 49.0001 23.5002 49.0001C23.5002 49.0001 23.5002 49.0001 23.4002 49.0001H23.3002C23.2002 49.0001 23.1002 49.0001 23.0002 49.0001H22.9002C22.9002 49.0001 22.9002 49.0001 22.8002 49.0001C22.6002 49.0001 22.5002 49.0001 22.3002 48.9001H22.2002C22.4002 49.3001 22.3002 49.3001 22.2002 49.3001Z" fill="white"/>
<path d="M27.4001 16.9L34.8001 21.8C34.9001 21.9 35.1001 22 35.2001 22.1L35.3001 22.2C35.4001 22.3 35.6001 22.4 35.7001 22.6C35.8001 22.7 35.9001 22.9 36.0001 23L36.1001 23.1C36.2001 23.3 36.3001 23.4 36.4001 23.6C36.5001 23.8 36.6001 24 36.7001 24.3C36.8001 24.5 36.8001 24.7 36.9001 24.9V25C36.9001 25.1 37.0001 25.2 37.0001 25.4V25.5V25.6C37.0001 25.7 37.0001 25.8 37.1001 25.9V26V26.1C37.1001 26.2 37.1001 26.3 37.1001 26.4V26.5C37.1001 26.6 37.1001 26.6 37.1001 26.7C37.1001 26.8 37.1001 26.9 37.1001 26.9V27C37.1001 27.1 37.1001 27.1 37.1001 27.2C37.1001 27.3 37.1001 27.4 37.1001 27.4V27.5C37.1001 27.6 37.1001 27.7 37.1001 27.8C37.1001 27.9 37.1001 27.9 37.1001 28H36.8001C36.8001 28.2 36.6001 28.4 36.6001 28.5C36.6001 28.7 36.9001 28.8 36.9001 29L37.0001 29.1C37.0001 29.2 37.1001 29.2 37.1001 29.3C37.1001 29.4 37.1001 29.5 37.1001 29.5C37.1001 29.6 37.1001 29.6 37.1001 29.7C37.1001 29.8 37.1001 29.8 37.1001 29.9V30C37.1001 30.1 37.1001 30.2 37.1001 30.3C37.1001 30.4 37.1001 30.4 37.1001 30.5C37.1001 30.5 37.1001 30.5 37.1001 30.6C37.1001 30.8 37.1001 31 37.0001 31.2001V31.3C37.0001 31.5 37.0001 31.6 36.9001 31.8V31.9C36.9001 32 36.9001 32 36.9001 32.1C36.9001 32.2 36.9001 32.3001 36.9001 32.4001C36.9001 32.5001 36.9001 32.5 36.9001 32.6C36.9001 32.7 36.9001 32.8 36.9001 32.8C36.9001 32.9 36.9001 32.9 36.9001 33C36.9001 33.1 36.9001 33.1 36.8001 33.2001C36.8001 33.3001 36.8001 33.4001 36.7001 33.4001V33.5C36.7001 33.6 36.6001 33.7 36.6001 33.8C36.6001 33.9 36.6001 33.9 36.5001 34C36.5001 34 36.5001 34 36.5001 34.1C36.4001 34.3 36.4001 34.5 36.3001 34.7001C36.3001 34.9001 36.2001 35 36.1001 35.2001V35.3C36.1001 35.4 36.1001 35.4 36.0001 35.5C36.0001 35.6 35.9001 35.7 35.9001 35.8C35.9001 35.9 35.9001 35.9 35.8001 36C35.8001 36.1 35.8001 36.1 35.7001 36.2001C35.7001 36.3001 35.7001 36.3001 35.6001 36.4001C35.6001 36.5001 35.5001 36.6 35.5001 36.7001C35.5001 36.8001 35.5001 36.8001 35.4001 36.9001C35.4001 36.9001 35.4001 36.9 35.4001 37C35.3001 37.2001 35.3001 37.4 35.2001 37.5C35.2001 37.5 35.2001 37.6 35.1001 37.6C35.0001 37.7 35.0001 37.9 34.9001 38C34.9001 38 34.9001 38 34.9001 38.1C34.9001 38.2 34.8001 38.3001 34.8001 38.4001C34.8001 38.5001 34.7001 38.6 34.7001 38.7001C34.6001 39 34.4001 39.3 34.3001 39.5C34.3001 39.5 34.3001 39.5 34.3001 39.6V39.7001C34.1001 40.1 33.9001 40.5001 33.7001 40.9001C33.7001 40.9001 33.7001 40.9 33.7001 41C33.7001 41 33.7001 41.1 33.6001 41.1C33.4001 41.4 33.2001 41.7001 33.1001 42C33.0001 42.2001 32.8001 42.4 32.7001 42.6C32.6001 42.7 32.5001 42.9 32.4001 43C32.4001 43 32.4001 43.1 32.3001 43.1C32.2001 43.3 32.1001 43.4 31.9001 43.6L31.8001 43.7001C31.7001 43.8001 31.6001 43.9 31.6001 44C31.6001 44 31.6001 44 31.6001 44.1C31.5001 44.2 31.5001 44.2 31.4001 44.3C31.3001 44.4 31.3001 44.4 31.2001 44.5C31.2001 44.5 31.2001 44.6 31.1001 44.6C31.0001 44.7 31.0001 44.7 30.9001 44.8C30.8001 44.9 30.8001 44.9 30.7001 45L30.6001 45.1C30.5001 45.2 30.5001 45.2 30.4001 45.3L30.3001 45.4001L30.2001 45.5C30.1001 45.6 30.1001 45.6 30.0001 45.7001L29.9001 45.8L29.8001 45.9001C29.7001 46.0001 29.7001 46 29.6001 46.1L29.5001 46.2001C29.4001 46.3 29.4001 46.3 29.3001 46.3C29.2001 46.4 29.2001 46.4001 29.1001 46.5C29.1001 46.5 29.1001 46.5 29.0001 46.6C28.9001 46.7 28.8001 46.7001 28.8001 46.8C28.7001 46.8 28.7001 46.9001 28.6001 46.9001C28.5001 47 28.3001 47.1001 28.2001 47.2001C28.1001 47.3 28.0001 47.4001 27.8001 47.5C27.8001 47.5 27.7001 47.5 27.7001 47.6C27.6001 47.7 27.5001 47.7001 27.4001 47.8C27.4001 47.8 27.3001 47.8001 27.3001 47.9001C27.2001 47.9001 27.2001 48 27.1001 48C27.1001 48 27.0001 48 27.0001 48.1C26.9001 48.1 26.9001 48.2001 26.8001 48.2001L26.7001 48.3C26.7001 48.3 26.7001 48.3 26.6001 48.3C26.5001 48.4 26.3001 48.4001 26.2001 48.5C26.1001 48.6 25.9001 48.6001 25.8001 48.7001C25.8001 48.7001 25.7001 48.7001 25.7001 48.8C25.6001 48.8 25.6001 48.9001 25.5001 48.9001H25.4001C25.3001 48.9001 25.3001 48.9001 25.2001 49H25.1001H25.0001C24.9001 49 24.9001 49 24.8001 49H24.7001C24.6001 49 24.6001 49 24.5001 49C24.4001 49 24.4001 49 24.3001 49C24.3001 49 24.3001 49 24.2001 49C24.1001 49 24.1001 49 24.0001 49C23.9001 49 23.9001 49 23.8001 49C23.8001 49 23.8001 49 23.7001 49H23.6001C23.5001 49 23.4001 49 23.4001 49C23.4001 49 23.4001 49 23.3001 49H23.2001C23.1001 49 23.0001 49 22.9001 49H22.8001C22.8001 49 22.8001 49 22.7001 49C22.5001 49 22.4001 49 22.2001 48.9001H22.1001C22.0001 48.9001 21.9001 48.9 21.8001 48.8H21.7001C21.6001 48.8 21.6001 48.8 21.5001 48.7001C21.4001 48.7001 21.3001 48.6 21.2001 48.6C21.2001 48.6 21.1001 48.6 21.1001 48.5C21.0001 48.4001 20.9001 48.4 20.7001 48.3L13.3001 43.4001C13.4001 43.5001 13.5001 43.5 13.7001 43.6C13.7001 43.6 13.8001 43.6 13.8001 43.7001C13.9001 43.7001 14.0001 43.8 14.1001 43.8C14.2001 43.8 14.2001 43.9001 14.3001 43.9001H14.4001C14.5001 43.9001 14.6001 44 14.7001 44H14.8001C14.9001 44 15.1001 44.1 15.3001 44.1C15.4001 44.1 15.4001 44.1 15.5001 44.1C15.6001 44.1 15.7001 44 15.8001 44C15.9001 44 15.9001 43.9001 16.0001 43.9001C16.1001 43.9001 16.2001 44 16.2001 44C16.3001 44 16.3001 44 16.4001 44C16.5001 44 16.5001 44 16.6001 44C16.7001 44 16.8001 44 16.8001 44C16.9001 44 16.9001 44 17.0001 44C17.1001 44 17.2001 44.0001 17.2001 43.9001C17.3001 43.9001 17.3001 43.9001 17.4001 43.9001C17.5001 43.9001 17.6001 43.9 17.7001 43.8C17.8001 43.8 17.8001 43.8001 17.9001 43.7001C18.0001 43.7001 18.1001 43.6 18.2001 43.6C18.2001 43.6 18.3001 43.6 18.3001 43.5C18.4001 43.4 18.6001 43.3 18.7001 43.3C18.8001 43.2 19.0001 43.2 19.1001 43.1C19.1001 43.1 19.2001 43.1 19.2001 43C19.3001 42.9 19.4001 42.9 19.5001 42.8C19.6001 42.8 19.6001 42.7001 19.7001 42.7001C19.8001 42.6 20.0001 42.5001 20.1001 42.4001C20.3001 42.3001 20.4001 42.2 20.6001 42.1C20.8001 42 20.9001 41.9 21.1001 41.8C21.2001 41.8 21.2001 41.7001 21.3001 41.7001C21.4001 41.6 21.5001 41.5001 21.6001 41.4001C21.7001 41.3001 21.7001 41.3001 21.8001 41.2001C21.9001 41.1 22.0001 41 22.1001 41C22.2001 40.9 22.2001 40.9 22.3001 40.8C22.4001 40.7 22.5001 40.6 22.6001 40.6C23.0001 41.1 23.0001 41 23.1001 41C23.2001 40.9 23.3001 40.8001 23.3001 40.7001C23.4001 40.6 23.4001 40.6 23.5001 40.5C23.6001 40.4 23.7001 40.3001 23.7001 40.2001C23.8001 40.1 23.8001 40.1 23.9001 40C24.0001 39.9 24.1001 39.8001 24.2001 39.7001C24.3001 39.6 24.3001 39.6 24.4001 39.5C24.5001 39.4 24.6001 39.3 24.7001 39.1L24.8001 39C24.9001 38.8 25.1001 38.6 25.2001 38.5C25.2001 38.5 25.2001 38.4001 25.3001 38.4001C25.4001 38.2001 25.5001 38.1001 25.6001 37.9001C25.7001 37.7001 25.9001 37.5 26.0001 37.3C26.2001 37 26.4001 36.7001 26.5001 36.4001C26.5001 36.3001 26.6001 36.3001 26.6001 36.2001C26.8001 35.8001 27.0001 35.4 27.2001 35C27.2001 34.9 27.3001 34.9 27.3001 34.8C27.4001 34.5 27.6001 34.2001 27.7001 33.9001C27.7001 33.8001 27.8001 33.7 27.8001 33.6C27.8001 33.5 27.9001 33.4 27.9001 33.3C28.0001 33.1 28.0001 33 28.1001 32.8C28.1001 32.7 28.1001 32.7 28.2001 32.6C28.3001 32.4 28.4001 32.2001 28.4001 32C28.4001 31.9 28.4001 31.9 28.5001 31.8C28.6001 31.6 28.6001 31.5 28.7001 31.3C28.7001 31.2 28.7001 31.2 28.8001 31.1C28.9001 31 28.9001 30.8001 28.9001 30.7001C28.9001 30.6 28.9001 30.6 29.0001 30.5C29.1001 30.3 29.1001 30.1 29.2001 29.9C29.3001 29.7 29.3001 29.5 29.4001 29.3C29.4001 29.2 29.4001 29.2 29.5001 29.1C29.5001 29 29.6001 28.8 29.6001 28.7C29.6001 28.6 29.6001 28.5 29.7001 28.5C29.7001 28.4 29.8001 28.2 29.8001 28.1C29.8001 28 29.8001 27.9 29.8001 27.9C29.8001 27.8 29.9001 27.6 29.9001 27.5C29.9001 27.4 29.9001 27.4 29.9001 27.3C29.9001 27.1 30.0001 26.9 30.0001 26.8V26.7C30.0001 26.5 30.1001 26.3 30.1001 26.1C30.1001 26 30.1001 26 30.1001 25.9C30.1001 25.8 30.1001 25.6 30.1001 25.5C30.1001 25.4 30.1001 25.4 30.1001 25.3C30.1001 25.2 30.1001 25 30.1001 24.9C30.1001 24.8 30.1001 24.8 30.1001 24.7C30.1001 24.5 30.1001 24.3 30.1001 24.1C30.1001 23.9 30.1001 23.7 30.1001 23.5C30.1001 23.4 30.1001 23.4 30.1001 23.3C30.1001 23.2 30.1001 23 30.1001 22.9C30.1001 22.8 30.1001 22.7 30.1001 22.7C30.1001 22.6 30.1001 22.5 30.1001 22.4C30.1001 22.3 30.1001 22.2 30.1001 22.2C30.1001 22.1 30.1001 22 30.1001 21.9C30.1001 21.8 30.1001 21.7 30.1001 21.6C30.1001 21.5 30.1001 21.4 30.0001 21.3C30.0001 21.2 30.0001 21.1 29.9001 21C29.9001 20.9 29.9001 20.8 29.8001 20.8C29.8001 20.7 29.7001 20.6 29.7001 20.4C29.7001 20.3 29.7001 20.3 29.6001 20.2C29.5001 20 29.5001 19.8 29.4001 19.6C29.4001 19.6 29.4001 19.6 29.4001 19.5C29.3001 19.3 29.2001 19 29.1001 18.8C29.1001 18.8 29.1001 18.8 29.1001 18.7C29.0001 18.5 28.9001 18.4 28.8001 18.2L28.7001 18.1C28.6001 18 28.5001 17.8 28.4001 17.7C28.3001 17.6 28.1001 17.4 28.0001 17.3L27.9001 17.2C27.6001 17.1 27.5001 17 27.4001 16.9ZM27.4001 14.9C26.8001 14.9 26.1001 15.2 25.7001 15.8C25.1001 16.7 25.3001 18 26.2001 18.6C26.3001 18.7 26.4001 18.7 26.4001 18.8H26.5001C26.6001 18.9 26.6001 18.9 26.7001 19C26.8001 19.1 26.8001 19.2 26.9001 19.3L27.0001 19.4C27.1001 19.5 27.1001 19.6 27.2001 19.7V19.8C27.3001 20 27.4001 20.1 27.4001 20.3V20.4C27.4001 20.5 27.5001 20.6 27.5001 20.8V20.9V21C27.5001 21.1 27.6001 21.2 27.6001 21.3V21.5C27.6001 21.6 27.6001 21.7 27.7001 21.7C27.7001 21.8 27.7001 21.8 27.7001 21.9C27.7001 22 27.7001 22 27.7001 22.1C27.7001 22.2 27.7001 22.3 27.7001 22.4V22.6C27.7001 22.7 27.7001 22.8 27.7001 22.9V23.1C27.7001 23.2 27.7001 23.3 27.7001 23.5V23.6V23.7C27.7001 23.9 27.7001 24.1 27.7001 24.2C27.7001 24.4 27.7001 24.5 27.7001 24.7V24.8V24.9C27.7001 25 27.7001 25.1 27.7001 25.3V25.5C27.7001 25.6 27.7001 25.8 27.7001 25.9V26V26.1C27.7001 26.3 27.7001 26.5 27.6001 26.7V26.8C27.6001 27 27.6001 27.1 27.5001 27.3V27.4V27.5C27.5001 27.6 27.5001 27.8 27.4001 27.9V28.1C27.4001 28.2 27.3001 28.4 27.3001 28.5L27.2001 28.7C27.2001 28.8 27.1001 29 27.1001 29.1V29.2V29.3C27.0001 29.5 27.0001 29.7 26.9001 29.9C26.8001 30.1 26.8001 30.3 26.7001 30.5V30.6V30.7001C26.7001 30.8001 26.6001 31 26.6001 31.1L26.5001 31.3C26.4001 31.4 26.4001 31.6 26.3001 31.7001V31.8V31.9C26.2001 32.1 26.2001 32.3 26.1001 32.5V32.6V32.7001C26.0001 32.8001 26.0001 33 25.9001 33.1L25.8001 33.3V33.4001V33.5L25.7001 33.7001C25.6001 34 25.4001 34.2001 25.3001 34.5V34.6V34.7001C25.1001 35.1 24.9001 35.4 24.7001 35.8L24.6001 35.9001C24.4001 36.2001 24.3001 36.5 24.1001 36.7001C24.0001 36.9001 23.9001 37.1 23.7001 37.2001C23.6001 37.3001 23.5001 37.5 23.4001 37.6V37.7001C23.3001 37.9001 23.2001 38 23.0001 38.2001V38.3L22.9001 38.4001C22.8001 38.5001 22.7001 38.6 22.6001 38.7001L22.5001 38.8L22.4001 38.9001C22.3001 39.0001 22.2001 39.1 22.2001 39.2001L22.1001 39.4001C22.0001 39.5001 21.9001 39.6 21.9001 39.7001L21.7001 39.9001C21.6001 40.0001 21.6001 40.1 21.5001 40.1L21.3001 40.3C21.2001 40.4 21.2001 40.4 21.1001 40.5L20.9001 40.7001C20.8001 40.8001 20.7001 40.8001 20.7001 40.9001L20.5001 41C20.4001 41.1 20.3001 41.1 20.2001 41.2001L20.1001 41.3L20.0001 41.4001C19.9001 41.5001 19.7001 41.6 19.6001 41.7001C19.4001 41.8001 19.3001 41.9 19.2001 42C19.1001 42.1 19.0001 42.2001 18.8001 42.2001L19.0001 41.7001C18.9001 41.8001 18.8001 41.8001 18.7001 41.9001H18.6001H18.5001H18.4001C18.1001 42.0001 17.8001 42.1 17.7001 42.2001C17.6001 42.2001 17.6001 42.2 17.5001 42.3H17.4001C17.3001 42.3 17.3001 42.3001 17.2001 42.4001H17.1001C17.0001 42.4001 17.0001 42.4001 16.9001 42.4001H16.8001H16.7001H16.5001H16.4001C16.3001 42.4001 16.3001 42.4001 16.2001 42.4001H16.1001C16.0001 42.4001 15.9001 42.4001 15.9001 42.4001H15.8001C15.7001 42.4001 15.6001 42.4001 15.5001 42.4001C15.4001 42.4001 15.4001 42.4001 15.4001 42.4001H15.3001H15.2001C15.2001 42.4001 15.1001 42.4 15.1001 42.3H15.0001C15.0001 42.3 14.9001 42.2001 14.8001 42.2001L13.7001 43.9001L12.6001 45.6L20.0001 50.5C20.2001 50.6 20.3001 50.7001 20.5001 50.8C20.6001 50.8 20.6001 50.9001 20.7001 50.9001C20.8001 51 20.9001 51 21.0001 51.1H21.1001C21.2001 51.1 21.3001 51.2001 21.3001 51.2001L22.0001 49.3L21.3001 51.2001C21.4001 51.2001 21.4001 51.2001 21.5001 51.3C21.6001 51.3 21.8001 51.4001 21.9001 51.4001C21.9001 51.4001 21.9001 51.4001 22.0001 51.4001C22.0001 51.4001 22.0001 51.4001 22.1001 51.4001H22.2001C22.4001 51.4001 22.6001 51.5 22.7001 51.5H22.8001C22.8001 51.5 22.9001 51.5 23.0001 51.5C23.1001 51.5 23.2001 51.5 23.4001 51.5C23.5001 51.5 23.5001 51.5 23.6001 51.5H23.7001C23.8001 51.5 23.9001 51.5 24.0001 51.5C24.1001 51.5 24.1001 51.5 24.2001 51.5H24.3001C24.4001 51.5 24.4001 51.5 24.5001 51.5C24.6001 51.5 24.7001 51.5 24.7001 51.5H24.8001C24.9001 51.5 24.9001 51.5 25.0001 51.5H25.1001C25.2001 51.5 25.2001 51.5 25.3001 51.5H25.4001C25.5001 51.5 25.5001 51.5 25.6001 51.4001C25.7001 51.4001 25.7001 51.4001 25.8001 51.4001H25.9001C26.0001 51.4001 26.1001 51.4 26.1001 51.3H26.2001C26.3001 51.3 26.3001 51.3 26.4001 51.2001H26.5001L26.7001 51.1H26.8001C27.0001 51 27.1001 51 27.3001 50.9001C27.5001 50.8001 27.6001 50.8 27.8001 50.7001H27.9001L28.0001 50.6H28.1001C28.2001 50.6 28.2001 50.5 28.3001 50.5L28.4001 50.4001L28.6001 50.3L28.7001 50.2001C28.8001 50.1001 28.9001 50.1 29.0001 50L29.1001 49.9001C29.2001 49.8001 29.4001 49.7 29.5001 49.6C29.5001 49.6 29.6001 49.6 29.6001 49.5C29.7001 49.4001 29.9001 49.3 30.0001 49.2001C30.0001 49.2001 30.0001 49.2001 30.1001 49.2001L30.2001 49.1L30.3001 49C30.4001 48.9001 30.4001 48.9 30.5001 48.8L30.6001 48.7001L30.8001 48.5L30.9001 48.4001L31.0001 48.3L31.1001 48.2001L31.3001 48L31.4001 47.9001L31.5001 47.8L31.7001 47.6L31.8001 47.5L31.9001 47.4001L32.1001 47.2001L32.2001 47.1L32.3001 47V46.9001L32.5001 46.7001L32.6001 46.6L33.0001 46L33.1001 45.9001V45.8L33.2001 45.6L33.3001 45.5C33.4001 45.4 33.4001 45.3001 33.5001 45.2001V45.1L33.6001 45C33.8001 44.8 33.9001 44.6001 34.0001 44.4001L34.1001 44.3C34.2001 44.1 34.3001 44 34.4001 43.8C34.4001 43.8 34.4001 43.8001 34.4001 43.7001C34.5001 43.5 34.7001 43.3 34.8001 43.1C35.0001 42.8 35.2001 42.5 35.4001 42.1L35.5001 42C35.5001 42 35.5001 41.9001 35.6001 41.9001C35.8001 41.5001 36.0001 41.1 36.3001 40.7001V40.6V40.5C36.4001 40.2001 36.6001 39.9 36.7001 39.6L36.8001 39.4001V39.3V39.2001L36.9001 38.9001V38.8C37.0001 38.7 37.0001 38.5001 37.1001 38.4001V38.3V38.2001V38.1C37.2001 37.9 37.3001 37.7001 37.3001 37.5C37.3001 37.5 37.3001 37.5001 37.3001 37.4001V37.3V37.2001V37.1L37.4001 36.9001V36.8V36.7001L37.5001 36.5V36.4001V36.3L37.6001 36.1V36V35.9001V35.8V35.7001C37.7001 35.5 37.7001 35.3001 37.8001 35.2001C37.9001 35 37.9001 34.8 38.0001 34.6V34.5V34.3V34.2001V34.1L38.1001 33.8V33.7001L38.2001 33.4001V33.3V33.1V33V32.9001L38.3001 32.6V32.4001V32.2001V32.1V32V31.8V31.7001C38.3001 31.5 38.4001 31.4001 38.4001 31.2001V31.1C38.4001 30.9 38.5001 30.7001 38.5001 30.5V30.4V30.3V30.2V30.1V29.8V29.7V29.5V29.4V29.2C38.5001 29.1 38.5001 29 38.5001 28.9C38.5001 28.8 38.5001 28.7 38.5001 28.6C38.5001 28.5 38.5001 28.4 38.5001 28.3C38.5001 28.2 38.5001 28.1 38.5001 28V27.9V27.8C38.5001 27.6 38.6001 27.4 38.6001 27.3V27.2V27.1C38.6001 27 38.6001 26.9 38.6001 26.8V26.7V26.5V26.4V26.2V26.1V25.8V25.6V25.5C38.6001 25.4 38.6001 25.3 38.5001 25.2V25C38.5001 24.9 38.5001 24.9 38.5001 24.9C38.5001 24.8 38.4001 24.7 38.4001 24.5C38.4001 24.4 38.4001 24.4 38.4001 24.3V24.2C38.4001 24.1 38.3001 23.9 38.3001 23.8C38.3001 23.7 38.3001 23.7 38.2001 23.6V23.5C38.1001 23.3 38.1001 23.1 38.0001 22.9C38.0001 22.9 38.0001 22.9 38.0001 22.8V22.7C37.9001 22.4 37.8001 22.2 37.6001 21.9V21.8C37.6001 21.8 37.6001 21.8 37.6001 21.7C37.5001 21.5 37.4001 21.3 37.2001 21.1L37.1001 21C36.9001 20.8 36.8001 20.6 36.7001 20.4C36.7001 20.4 36.7001 20.4 36.6001 20.3C36.4001 20.1 36.3001 19.9 36.1001 19.8L36.0001 19.7C35.8001 19.5 35.6001 19.4 35.4001 19.2L28.0001 14.3C28.1001 15 27.7001 14.9 27.4001 14.9Z" fill="#171A21"/>
<path d="M1.69988 41.0999C1.69988 41 1.69988 40.8999 1.69988 40.7999C1.69988 40.7 1.69988 40.5 1.69988 40.4C1.69988 40.3 1.69988 40.1999 1.69988 40.0999C1.69988 39.8999 1.69987 39.7 1.79987 39.5C1.79987 39.4 1.79987 39.2999 1.79987 39.2V39.0999C1.79987 38.7999 1.89987 38.3999 1.89987 38.0999V38C1.89987 37.7 1.99987 37.3999 1.99987 37.0999C1.99987 37 1.99987 37 1.99987 36.9C1.99987 36.8 2.09987 36.6 2.09987 36.5C2.09987 36.2999 2.19988 36.2 2.19988 36C2.19988 35.9 2.19987 35.8 2.29987 35.7C2.29987 35.6 2.39988 35.4 2.39988 35.2999C2.39988 35.1999 2.39987 35.1 2.49988 35C2.49988 34.9 2.59987 34.6999 2.59987 34.5999C2.59987 34.3999 2.69987 34.2999 2.69987 34.0999C2.69987 33.9999 2.69987 34 2.79987 33.9C2.89987 33.7 2.89987 33.5 2.99987 33.2999C2.99987 33.1999 3.09987 33 3.09987 32.9V32.7999C3.19987 32.4 3.29988 32.1 3.39988 31.7V31.6C3.49988 31.3 3.59988 31 3.69988 30.7C3.69988 30.7 3.69988 30.6 3.79988 30.6C3.79988 30.5 3.89988 30.4 3.89988 30.2C3.99988 30 3.99988 29.9 4.09987 29.7C4.09987 29.6 4.19987 29.5 4.19987 29.4C4.19987 29.3 4.29988 29.1 4.29988 29C4.29988 28.9 4.39988 28.8 4.39988 28.7C4.49988 28.5 4.59987 28.3 4.59987 28.1C4.59987 28 4.69987 27.9 4.69987 27.7999V27.7C4.79987 27.4 4.99988 27 5.09987 26.7C5.09987 26.6 5.19987 26.5 5.19987 26.4C5.29987 26.1 5.39987 25.9 5.59987 25.6C5.59987 25.6 5.59987 25.5 5.69987 25.5C5.79987 25.2999 5.89988 25.1 5.99988 24.9C6.09987 24.7 6.19987 24.6 6.19987 24.4V24.2999C6.49988 23.7999 6.69987 23.2 6.99988 22.7C6.99988 22.7 6.99988 22.6 7.09987 22.6C7.19987 22.5 7.29988 22.3 7.29988 22.2C7.39988 22 7.49988 21.8 7.69987 21.6C7.79987 21.4 7.89988 21.2 7.99988 21C8.09987 20.7999 8.29987 20.6 8.39987 20.4C8.39987 20.3 8.49988 20.3 8.49988 20.2C8.89988 20 8.99988 20 8.99988 19.9C9.39988 19.3 9.69988 18.8 10.0999 18.2C10.3999 17.8 10.5999 17.4 10.8999 17.1C10.8999 17.1 10.8999 17.1 10.8999 17C11.0999 16.7 11.2999 16.5 11.4999 16.2C11.4999 16.1 11.5999 16.1 11.5999 16C11.7999 15.7 12.0999 15.4 12.2999 15.1C12.3999 15 12.4999 14.9 12.4999 14.8C12.6999 14.6 12.7999 14.4 12.9999 14.2L13.0999 14.1C13.1999 14 13.2999 13.9 13.3999 13.7C13.4999 13.6 13.5999 13.4 13.7999 13.3L13.8999 13.2C13.9999 13.1 14.0999 12.9 14.2999 12.8C14.3999 12.7 14.4999 12.6 14.5999 12.5C14.6999 12.4 14.6999 12.4 14.7999 12.3C14.8999 12.2 15.0999 12 15.1999 11.9C15.2999 11.8 15.3999 11.7 15.4999 11.6C15.5999 11.5 15.5999 11.5 15.6999 11.4C15.7999 11.3 15.9999 11.2 16.0999 11C16.1999 10.9 16.2999 10.8 16.2999 10.8C16.3999 10.7 16.4999 10.6 16.5999 10.6C16.6999 10.5 16.8999 10.4 16.9999 10.3C17.0999 10.2 17.0999 10.2 17.1999 10.1C17.2999 9.99995 17.3999 9.89995 17.4999 9.79995C17.5999 9.69995 17.6999 9.59995 17.8999 9.49995L17.9999 9.39995C18.0999 9.29995 18.2999 9.19995 18.4999 9.09995C18.7999 8.99995 18.8999 8.89995 18.9999 8.79995C18.9999 8.79995 19.0999 8.79995 19.0999 8.69995C19.3999 8.49995 19.5999 8.29995 19.8999 8.09995C19.8999 8.09995 19.8999 8.09995 19.9999 8.09995C20.1999 7.89995 20.4999 7.79995 20.6999 7.59995C20.7999 7.59995 20.7999 7.49995 20.8999 7.49995C21.0999 7.39995 21.2999 7.29995 21.4999 7.09995H21.5999C21.7999 6.99995 22.0999 6.79995 22.2999 6.69995C22.2999 6.69995 22.3999 6.69995 22.3999 6.59995C22.4999 6.49995 22.5999 6.49995 22.6999 6.39995C22.7999 6.29995 22.8999 6.29995 22.9999 6.19995C23.0999 6.19995 23.1999 6.09995 23.1999 6.09995C23.2999 6.09995 23.3999 5.99995 23.4999 5.99995C23.5999 5.99995 23.5999 5.89995 23.6999 5.89995C23.7999 5.89995 23.8999 5.79995 23.9999 5.79995C24.0999 5.79995 24.1999 5.69995 24.2999 5.69995H24.3999C24.5999 5.59995 24.6999 5.59995 24.8999 5.49995C24.9999 5.49995 25.0999 5.39995 25.0999 5.39995C25.3999 5.29995 25.5999 5.19995 25.8999 5.19995H25.9999C26.4999 5.09995 26.7999 5.09995 26.9999 4.99995C27.0999 4.99995 27.2999 4.99995 27.3999 4.89995C27.4999 4.89995 27.6999 4.79995 27.7999 4.79995C27.7999 4.79995 27.7999 4.79995 27.8999 4.79995C28.0999 4.79995 28.1999 4.79995 28.3999 4.69995C28.4999 4.69995 28.5999 4.69995 28.6999 4.69995C28.6999 4.69995 30.3999 4.69995 31.1999 4.79995C31.3999 4.79995 31.5999 4.79995 31.7999 4.89995H31.8999C31.9999 4.89995 32.0999 4.89995 32.1999 4.99995C32.2999 4.99995 32.4999 5.09995 32.5999 5.09995C32.6999 5.09995 32.7999 5.19995 32.8999 5.19995C32.9999 5.19995 33.0999 5.19995 33.0999 5.29995C33.0999 5.29995 33.1999 5.29995 33.1999 5.39995C33.3999 5.49995 33.5999 5.49995 33.6999 5.59995C33.7999 5.59995 33.8999 5.69995 33.8999 5.69995C34.0999 5.79995 34.3999 5.99995 34.5999 6.09995L41.7999 10.6C41.5999 10.5 41.2999 10.3 41.0999 10.2C40.9999 10.2 40.8999 10.1 40.8999 10.1C40.6999 9.99995 40.5999 9.89995 40.3999 9.89995C40.2999 9.89995 40.1999 9.79995 39.9999 9.79995C39.8999 9.79995 39.7999 9.69995 39.6999 9.69995C39.5999 9.69995 39.3999 9.59995 39.2999 9.59995C39.1999 9.59995 39.0999 9.49995 38.9999 9.49995C38.7999 9.49995 38.5999 9.39995 38.2999 9.39995C38.0999 9.39995 37.7999 9.29995 37.5999 9.29995C37.4999 9.29995 37.4999 9.29995 37.3999 9.29995C37.1999 9.29995 36.8999 9.29995 36.6999 9.29995C36.3999 9.29995 36.0999 9.29995 35.7999 9.29995C35.6999 9.29995 35.4999 9.29995 35.3999 9.29995C35.1999 9.29995 35.0999 9.29995 34.8999 9.39995C34.6999 9.39995 34.5999 9.49995 34.3999 9.49995C34.2999 9.49995 34.0999 9.49995 33.9999 9.59995C33.7999 9.59995 33.4999 9.69995 33.2999 9.79995H33.1999C32.8999 9.89995 32.5999 9.99995 32.3999 9.99995C32.2999 9.99995 32.1999 10.1 32.1999 10.1C31.9999 10.2 31.7999 10.2 31.5999 10.3C31.4999 10.3 31.3999 10.4 31.2999 10.4C31.0999 10.5 30.8999 10.6 30.6999 10.6C30.5999 10.6 30.4999 10.7 30.3999 10.7C30.1999 10.8 29.9999 10.9 29.7999 11C29.6999 11 29.5999 11.1 29.4999 11.2C29.1999 11.3 28.8999 11.5 28.6999 11.7C28.4999 11.8 28.1999 12 27.9999 12.1C27.6999 12.3 27.3999 12.5 27.0999 12.7C27.0999 12.7 27.0999 12.7 26.9999 12.7C26.6999 12.9 26.3999 13.1 26.0999 13.3C25.9999 13.4 25.8999 13.5 25.7999 13.5C25.5999 13.7 25.3999 13.8 25.1999 14C25.0999 14.1 24.9999 14.2 24.7999 14.3C24.5999 14.4 24.3999 14.6 24.2999 14.7C24.1999 14.8 23.9999 14.9 23.8999 15C23.6999 15.1 23.5999 15.3 23.3999 15.5C23.2999 15.6 23.0999 15.7 22.9999 15.9C22.7999 16.1 22.6999 16.2 22.4999 16.4C22.3999 16.5 22.1999 16.7 22.0999 16.8C21.8999 17 21.7999 17.1 21.5999 17.3C21.4999 17.4 21.3999 17.6 21.1999 17.7C20.9999 17.9 20.8999 18.1 20.6999 18.3C20.5999 18.4 20.4999 18.5 20.3999 18.7C20.1999 18.9 19.9999 19.1 19.7999 19.4C19.6999 19.5 19.5999 19.6 19.5999 19.7C19.2999 20 19.0999 20.4 18.7999 20.7C18.7999 20.8 18.6999 20.8 18.6999 20.9C18.4999 21.2 18.2999 21.5 17.9999 21.7999C17.6999 22.1999 17.4999 22.5 17.1999 22.9C16.7999 23.4 16.4999 24 16.0999 24.6C15.9999 24.7 15.8999 24.9 15.7999 25C15.6999 25.2 15.4999 25.4 15.3999 25.6C15.2999 25.8 15.1999 26 15.0999 26.2C14.9999 26.4 14.8999 26.5999 14.6999 26.7999C14.5999 27 14.4999 27.1999 14.3999 27.2999C14.0999 27.7999 13.7999 28.4 13.5999 28.9C13.4999 29.1 13.3999 29.2999 13.2999 29.5C13.1999 29.7 13.0999 29.9 12.9999 30.1C12.8999 30.4 12.6999 30.7 12.5999 31C12.5999 31.1 12.4999 31.1999 12.4999 31.2999C12.2999 31.6999 12.1999 32.1 11.9999 32.4C11.9999 32.5 11.8999 32.6 11.8999 32.7C11.7999 33 11.6999 33.2999 11.5999 33.5C11.4999 33.6 11.4999 33.8 11.4999 33.9C11.3999 34.2 11.2999 34.5 11.1999 34.7C11.1999 34.8 11.0999 34.8999 11.0999 35.0999C10.9999 35.4999 10.8999 35.8 10.6999 36.2V36.2999C10.5999 36.6999 10.4999 37.0999 10.2999 37.5C10.2999 37.5999 10.1999 37.8 10.1999 37.9C10.0999 38.2 10.0999 38.4 9.99988 38.7C9.99988 38.9 9.89987 39 9.89987 39.2C9.79987 39.5 9.79988 39.7 9.69987 40C9.69987 40.2 9.59988 40.2999 9.59988 40.5C9.49988 40.7999 9.49987 41 9.39987 41.2999C9.39987 41.3999 9.29988 41.6 9.29988 41.7C9.19988 42 9.19988 42.4 9.09988 42.7V42.7999C8.99988 43.2 8.99987 43.5999 8.89987 44C8.89987 44.0999 8.89987 44.2 8.89987 44.2999C8.99987 44.2999 8.99988 44.5999 8.99988 44.7999C8.99988 44.8999 8.99988 45.1 8.99988 45.2C8.99988 45.5 8.99988 45.7 8.99988 46C8.99988 46.0999 8.99988 46.3 8.99988 46.4C8.99988 46.8 8.99988 47.0999 8.99988 47.5C8.99988 47.9 8.99988 48.1999 8.99988 48.5999C8.99988 48.6999 8.99988 48.8 8.99988 48.9C8.99988 49.1 8.99988 49.3999 8.99988 49.5999C8.99988 49.6999 8.99988 49.9 8.99988 50C8.99988 50.2 8.99988 50.3999 9.09988 50.5999C9.09988 50.7999 9.09987 50.8999 9.19987 51.0999C9.19987 51.2999 9.29988 51.5 9.29988 51.7999V51.9C9.29988 51.9 9.29988 52 9.29988 52.0999C9.29988 52.1999 9.29988 52.2 9.29988 52.2999C9.29988 52.2999 9.29988 52.3 9.29988 52.4C9.39988 52.8 9.49988 53.0999 9.59988 53.5C9.59988 53.5999 9.69987 53.7 9.69987 53.9C9.79988 54.1 9.79987 54.3999 9.89987 54.5999C9.99988 54.8999 10.0999 55.1 10.1999 55.4C10.1999 55.5 10.1999 55.5 10.2999 55.5999C10.3999 55.8999 10.4999 56.1 10.6999 56.4C10.7999 56.6 10.8999 56.7 10.8999 56.9C10.8999 57 10.9999 57 10.9999 57.0999C11.0999 57.2999 11.1999 57.5999 11.2999 57.7999C11.2999 57.8999 11.3999 57.9 11.3999 58C11.4999 58.2 11.5999 58.4 11.6999 58.5C11.6999 58.5999 11.7999 58.7 11.8999 58.7999C11.9999 59 12.0999 59.0999 12.1999 59.2999C12.1999 59.3999 12.2999 59.4 12.2999 59.5C12.3999 59.7 12.4999 59.7999 12.5999 60C12.5999 60.0999 12.6999 60.2 12.6999 60.2C12.7999 60.4 12.8999 60.5999 13.0999 60.7999C13.0999 60.8999 13.1999 60.9 13.1999 61C13.3999 61.2 13.4999 61.5 13.6999 61.7C13.6999 61.7999 13.7999 61.8 13.7999 61.9C13.8999 62.1 14.0999 62.2999 14.1999 62.5C14.2999 62.5999 14.2999 62.7 14.3999 62.7C14.5999 62.9 14.6999 63.0999 14.8999 63.2999C14.9999 63.3999 14.9999 63.4 15.0999 63.5C15.2999 63.7 15.4999 63.9999 15.7999 64.1999L15.8999 64.3C16.0999 64.5 16.2999 64.7 16.4999 64.9C16.5999 65 16.6999 65.0999 16.6999 65.0999C16.8999 65.2999 17.0999 65.5 17.2999 65.5999C17.3999 65.6999 17.4999 65.7 17.4999 65.8C17.7999 66 18.0999 66.2999 18.2999 66.5L18.3999 66.5999C18.6999 66.7999 18.8999 66.9999 19.1999 67.1999C19.2999 67.2999 19.3999 67.3 19.4999 67.4C19.6999 67.6 19.9999 67.7 20.1999 67.9C20.2999 68 20.3999 68 20.4999 68.0999C20.7999 68.2999 21.1999 68.6 21.4999 68.8L14.2999 64.3C13.8999 64.1 13.5999 63.8999 13.2999 63.5999C13.1999 63.5 13.0999 63.5 12.9999 63.4C12.7999 63.2 12.4999 63.1 12.2999 62.9C12.1999 62.8 12.0999 62.7999 11.9999 62.7C11.6999 62.5 11.4999 62.2999 11.1999 62.0999L11.0999 62C10.7999 61.7999 10.4999 61.5 10.2999 61.2999C10.1999 61.2 10.0999 61.1999 10.0999 61.0999C9.89988 60.8999 9.69987 60.6999 9.49988 60.5999C9.39988 60.5 9.29988 60.4 9.29988 60.4C9.09988 60.2 8.89987 60 8.69987 59.7999L8.59988 59.7C8.39988 59.5 8.09987 59.2 7.89988 59C7.79988 58.9 7.79987 58.8999 7.69987 58.7999C7.49988 58.5999 7.39987 58.4 7.19987 58.2C7.09987 58.1 7.09987 58 6.99988 58C6.79988 57.7999 6.69987 57.6 6.59987 57.4C6.59987 57.3 6.49988 57.2999 6.49988 57.2C6.29988 57 6.09987 56.7 5.99988 56.5C5.99988 56.4 5.89988 56.3999 5.89988 56.2999C5.79988 56.0999 5.59987 55.9 5.49988 55.7C5.49988 55.6 5.39988 55.5 5.39988 55.5C5.19988 55.2 5.09987 55 4.99988 54.7999C4.99988 54.7 4.89988 54.6999 4.89988 54.5999V54.5C4.79988 54.4 4.69987 54.1999 4.69987 54.0999C4.69987 54 4.59987 53.8999 4.49988 53.7999C4.39988 53.5999 4.29987 53.3999 4.19987 53.2999C4.19987 53.2 4.09987 53.1999 4.09987 53.0999C3.99988 53 3.89987 52.7999 3.79988 52.5C3.79988 52.4 3.69988 52.3999 3.69988 52.2999C3.59988 52.0999 3.59987 52 3.49987 51.9C3.49987 51.9 3.49987 51.8999 3.49987 51.7999C3.39987 51.5999 3.29988 51.4 3.19987 51.2C3.19987 51.1 3.09987 51 3.09987 51C3.09987 50.9 3.09987 50.8999 2.99987 50.7999C2.89987 50.5999 2.79988 50.2999 2.69987 50.0999C2.69987 50.0999 2.69987 50.0999 2.69987 50C2.59987 49.7999 2.59988 49.5999 2.49988 49.2999C2.49988 49.2 2.39988 49.0999 2.39988 49C2.29988 48.5999 2.19987 48.3 2.09987 47.9C2.09987 47.8 2.09987 47.7 2.09987 47.7C2.09987 47.6 2.09987 47.5999 2.09987 47.5V47.4C2.09987 47.3 2.09987 47.1999 2.09987 47.0999C2.09987 47 2.09987 46.7999 1.99987 46.7C1.99987 46.5 1.99987 46.4 1.89987 46.2V46.0999C1.89987 46 1.89987 45.7999 1.89987 45.7C1.89987 45.6 1.89987 45.3999 1.89987 45.2999V45.2C1.69987 44.7999 1.59988 42 1.69988 41.0999Z" fill="white" stroke="#171A21" stroke-width="2" stroke-miterlimit="10" stroke-linecap="round" stroke-linejoin="round"/>
<path d="M27.8 9.09993C37.6 3.29993 45.8 7.79993 46.8 19.4999C47 21.7999 46.9 24.2999 46.6 26.7999C46.6 26.7999 46.6 27.0999 46.5 27.6999C46.2 29.5999 45.7 31.4999 45.2 33.4999C43.2 40.5999 38.7 53.3999 28.5 70.5999C28.2 71.0999 27.8 71.4999 27.4 71.7999C27 72.0999 26.6 72.0999 26.3 71.9999C15.9 67.5999 11.3 60.5999 9.3 55.9999C8.7 54.7999 8.3 53.4999 8 51.8999C7.9 51.4999 7.9 51.1999 7.9 51.1999C7.7 49.7999 7.5 48.2999 7.5 46.6999C7.5 32.9999 16.3 16.2999 27.2 9.49993C27.4 9.39993 27.6 9.19993 27.8 9.09993ZM27.2 46.5999C32.5 43.2999 36.8 35.1999 36.8 28.4999C36.8 21.8999 32.5 19.1999 27.2 22.4999C21.9 25.7999 17.6 33.8999 17.6 40.5999C17.6 47.2999 21.9 49.9999 27.2 46.5999Z" fill="#2F58FF"/>
</svg>
