<svg width="144" height="144" viewBox="0 0 144 144" fill="none" xmlns="http://www.w3.org/2000/svg">
<path d="M4.5 89.8999V96.2999C4.5 96.5999 4.7 96.9999 5.2 97.2999L83.5 142.5C83.6 142.6 83.7 142.6 83.8 142.7C83.8 142.7 83.8 142.7 83.9 142.7C84 142.7 84 142.7 84.1 142.8H84.2C84.2 142.8 84.2 142.8 84.3 142.8C84.3 142.8 84.3 142.8 84.4 142.8C84.5 142.8 84.6 142.8 84.6 142.8H84.7C84.7 142.8 84.7 142.8 84.8 142.8H84.9C85 142.8 85.7 142.8 85.7 142.8C85.8 142.8 85.8 142.8 85.9 142.8H86C86.1 142.8 86.2 142.8 86.2 142.7H86.3H86.4H86.5C86.6 142.7 86.7 142.6 86.8 142.5L133.6 115.3C133.7 115.2 133.8 115.2 133.9 115.1C134 115 134 115 134 114.9C134 114.9 133.9 114.9 133.9 114.8V114.4V111.8L134.1 108C134.1 108.1 134.2 108.2 134.2 108.2C134.2 108.3 134.1 108.3 134.1 108.4C134 108.5 134 108.5 133.9 108.6" stroke="#171A21" stroke-width="2" stroke-miterlimit="10" stroke-linecap="round" stroke-linejoin="round"/>
<path d="M55.0999 61.7C54.1999 61.2 53.3999 59.9 53.3999 58.8L53.5999 4.6C53.5999 4.1 53.7999 3.7 54.0999 3.5C55.2999 2.8 57.3999 1.6 57.3999 1.6C57.4999 1.6 57.5999 1.5 57.7999 1.5C57.8999 1.5 57.9999 1.5 58.0999 1.5C58.2999 1.6 58.3999 1.6 58.5999 1.7L136.9 47C137.4 47.3 137.8 47.7 138.1 48.2C138.2 48.5 138.6 49 138.6 49.8C138.6 50.5 138.3 102.1 138.2 103C138.2 103.8 138.1 105.1 137.5 105.4L134.6 107.1" fill="white"/>
<path d="M55.0999 61.7C54.1999 61.2 53.3999 59.9 53.3999 58.8L53.5999 4.6C53.5999 4.1 53.7999 3.7 54.0999 3.5C55.2999 2.8 57.3999 1.6 57.3999 1.6C57.4999 1.6 57.5999 1.5 57.7999 1.5C57.8999 1.5 57.9999 1.5 58.0999 1.5C58.2999 1.6 58.3999 1.6 58.5999 1.7L136.9 47C137.4 47.3 137.8 47.7 138.1 48.2C138.2 48.5 138.6 49 138.6 49.8C138.6 50.5 138.3 102.1 138.2 103C138.2 103.8 138.1 105.1 137.5 105.4L134.6 107.1" stroke="#171A21" stroke-width="2" stroke-miterlimit="10" stroke-linecap="round" stroke-linejoin="round"/>
<path d="M132 105.5C134.5 106.9 134.5 109.3 132 110.7L86.8998 136.9C86.0998 137.4 84.6998 137.4 83.8998 136.9L6.7998 92.2999C4.2998 90.8999 4.2998 88.4999 6.7998 87.0999L51.8998 60.8999C52.6998 60.3999 54.0998 60.3999 54.8998 60.8999L132 105.5Z" fill="#2F58FF"/>
<path d="M79.3999 107.1L55.1999 93.1999C54.5999 92.7999 53.5999 92.7999 52.9999 93.1999L39.0999 101.3C38.4999 101.7 38.4999 102.2 39.0999 102.6L63.2999 116.5C63.8999 116.9 64.8999 116.9 65.4999 116.5L79.3999 108.4C79.9999 108 79.9999 107.5 79.3999 107.1Z" stroke="white" stroke-width="2" stroke-miterlimit="10"/>
<path d="M59.2001 14.2L59.1001 54.8C59.1001 56.2 59.8001 57.5 61.1001 58.2L129.5 97.7C130.4 98.2 131.5 97.6 131.5 96.6L131.6 56C131.6 54.6 130.9 53.3 129.6 52.6L61.2001 13C60.3001 12.5 59.2001 13.2 59.2001 14.2Z" fill="#F1F9FD" stroke="#171A21" stroke-width="2" stroke-miterlimit="10" stroke-linecap="round" stroke-linejoin="round"/>
<path d="M67.7002 41.7002C67.7002 41.7002 67.7002 41.8002 67.7002 41.7002C67.7002 41.8002 67.7002 41.8002 67.7002 41.8002C67.7002 41.8002 67.7002 41.8002 67.7002 41.9002C67.7002 41.9002 67.7002 41.9002 67.7002 42.0002C67.7002 42.0002 67.7002 42.0002 67.7002 42.1002C67.7002 42.1002 67.7002 42.1002 67.7002 42.2002C67.7002 42.2002 67.7002 42.2002 67.7002 42.3002C67.7002 42.3002 67.7002 42.3002 67.7002 42.4002C67.7002 42.4002 67.7002 42.4002 67.7002 42.5002C67.7002 42.5002 67.7002 42.5002 67.7002 42.6002C67.7002 42.6002 67.7002 42.6002 67.7002 42.7002C67.7002 42.7002 67.7002 42.7002 67.7002 42.8002C67.7002 42.8002 67.7002 42.9002 67.8002 42.9002C67.8002 42.9002 67.8002 43.0002 67.9002 43.0002C67.9002 43.0002 67.9002 43.1002 68.0002 43.1002L68.1002 43.2002C68.1002 43.2002 68.2002 43.2002 68.2002 43.3002C68.2002 43.3002 68.2002 43.3002 68.3002 43.4002C68.3002 43.4002 68.3002 43.4002 68.4002 43.5002C68.4002 43.5002 68.4002 43.5002 68.5002 43.6002C68.5002 43.6002 68.5002 43.6002 68.6002 43.7002C68.6002 43.7002 68.7002 43.7002 68.7002 43.8002C68.7002 43.8002 68.7002 43.8002 68.8002 43.8002C68.8002 43.8002 68.9002 43.8002 68.9002 43.9002C68.9002 43.9002 69.0002 43.9002 69.0002 44.0002C69.1002 44.0002 69.1002 44.1002 69.2002 44.1002C69.2002 44.1002 69.2002 44.1002 69.3002 44.1002C69.4002 44.1002 69.4002 44.2002 69.5002 44.2002C69.5002 44.2002 69.5002 44.2002 69.6002 44.2002C69.7002 44.2002 69.8002 44.3002 69.8002 44.3002C69.9002 44.3002 69.9002 44.3002 70.0002 44.4002H70.1002H70.2002H70.3002H70.4002H70.5002H70.6002H70.7002H70.8002H70.9002C71.0002 44.4002 71.1002 44.4002 71.2002 44.4002C71.3002 44.4002 71.4002 44.4002 71.4002 44.4002H71.5002H71.6002H71.7002C71.8002 44.4002 71.8002 44.4002 71.9002 44.4002H72.0002H72.1002H72.2002H72.3002H72.4002H72.5002H72.6002H72.7002H72.8002C72.9002 44.4002 72.9002 44.4002 73.0002 44.4002C73.1002 44.4002 73.1002 44.4002 73.2002 44.4002C73.3002 44.4002 73.3002 44.4002 73.4002 44.4002H73.5002H73.6002C73.6002 44.4002 73.6002 44.4002 73.7002 44.4002C73.8002 44.4002 73.8002 44.4002 73.9002 44.4002H74.0002H74.1002H74.2002C74.3002 44.4002 74.3002 44.4002 74.4002 44.3002C74.5002 44.3002 74.6002 44.2002 74.6002 44.2002H74.7002H74.8002H74.9002C74.9002 44.2002 74.9002 44.2002 75.0002 44.2002C75.0002 44.2002 75.1002 44.2002 75.1002 44.1002C75.1002 44.1002 75.1002 44.1002 75.2002 44.1002C75.3002 44.1002 75.3002 44.0002 75.4002 44.0002C76.3002 43.5002 76.8002 42.8002 76.7002 42.1002V53.0002C76.7002 53.7002 76.3002 54.4002 75.4002 54.9002C75.3002 54.9002 75.3002 55.0002 75.2002 55.0002C75.2002 55.0002 75.2002 55.0002 75.1002 55.0002C75.1002 55.0002 75.0002 55.0002 75.0002 55.1002C75.0002 55.1002 75.0002 55.1002 74.9002 55.1002H74.8002H74.7002C74.7002 55.1002 74.7002 55.1002 74.6002 55.1002C74.5002 55.1002 74.4002 55.2002 74.4002 55.2002C74.3002 55.2002 74.3002 55.2002 74.2002 55.3002H74.1002H74.0002C73.9002 55.3002 73.9002 55.3002 73.8002 55.3002C73.8002 55.3002 73.8002 55.3002 73.7002 55.3002H73.6002H73.5002C73.4002 55.3002 73.4002 55.3002 73.3002 55.3002C73.2002 55.3002 73.2002 55.3002 73.1002 55.3002C73.1002 55.3002 73.1002 55.3002 73.0002 55.3002C72.9002 55.3002 72.9002 55.3002 72.8002 55.3002H72.7002H72.6002H72.5002H72.4002C72.4002 55.3002 72.4002 55.3002 72.3002 55.3002H72.2002H72.1002H72.0002C72.0002 55.3002 72.0002 55.3002 71.9002 55.3002C71.8002 55.3002 71.8002 55.3002 71.7002 55.3002H71.6002H71.5002C71.5002 55.3002 71.5002 55.3002 71.4002 55.3002C71.3002 55.3002 71.2002 55.3002 71.2002 55.3002C71.1002 55.3002 71.0002 55.3002 70.9002 55.3002C70.9002 55.3002 70.9002 55.3002 70.8002 55.3002H70.7002H70.6002H70.5002H70.4002H70.3002H70.2002H70.1002C70.0002 55.3002 70.0002 55.3002 69.9002 55.2002C69.8002 55.2002 69.7002 55.1002 69.7002 55.1002C69.7002 55.1002 69.7002 55.1002 69.6002 55.1002C69.5002 55.1002 69.5002 55.0002 69.4002 55.0002C69.4002 55.0002 69.4002 55.0002 69.3002 55.0002C69.2002 55.0002 69.2002 54.9002 69.1002 54.9002C69.1002 54.9002 69.1002 54.9002 69.0002 54.9002C69.0002 54.9002 69.0002 54.9002 68.9002 54.9002C68.9002 54.9002 68.8002 54.9002 68.8002 54.8002C68.8002 54.8002 68.8002 54.8002 68.7002 54.8002C68.7002 54.8002 68.6002 54.8002 68.6002 54.7002C68.6002 54.7002 68.6002 54.7002 68.5002 54.6002C68.5002 54.6002 68.5002 54.6002 68.4002 54.5002C68.4002 54.5002 68.4002 54.5002 68.3002 54.4002C68.3002 54.4002 68.3002 54.4002 68.2002 54.3002C68.2002 54.3002 68.2002 54.3002 68.1002 54.3002L68.0002 54.2002L67.9002 54.1002C67.9002 54.1002 67.9002 54.0002 67.8002 54.0002C67.8002 54.0002 67.8002 53.9002 67.7002 53.9002C67.7002 53.9002 67.7002 53.9002 67.7002 53.8002C67.7002 53.8002 67.7002 53.8002 67.7002 53.7002C67.7002 53.7002 67.7002 53.7002 67.7002 53.6002C67.7002 53.6002 67.7002 53.6002 67.7002 53.5002C67.7002 53.5002 67.7002 53.5002 67.7002 53.4002C67.7002 53.4002 67.7002 53.4002 67.7002 53.3002C67.7002 53.3002 67.7002 53.3002 67.7002 53.2002C67.7002 53.2002 67.7002 53.2002 67.7002 53.1002C67.7002 53.1002 67.7002 53.1002 67.7002 53.0002V41.7002Z" fill="#2F58FF"/>
<path d="M76.8001 43.1002V32.1002C76.8001 31.4002 76.4001 30.7002 75.5001 30.2002C73.7001 29.2002 70.8001 29.2002 69.0001 30.2002C68.1001 30.7002 67.6001 31.4002 67.7001 32.1002C67.7001 32.1002 67.7001 32.1002 67.7001 32.0002V42.9002" stroke="#171A21" stroke-width="2" stroke-miterlimit="10" stroke-linecap="round" stroke-linejoin="round"/>
<path d="M80.3003 38.9C80.3003 39 80.3003 38.9999 80.3003 38.9999C80.3003 38.9999 80.3003 38.9999 80.3003 39.0999C80.3003 39.0999 80.3003 39.1 80.3003 39.2C80.3003 39.2 80.3003 39.1999 80.3003 39.2999C80.3003 39.2999 80.3003 39.3 80.3003 39.4C80.3003 39.4 80.3003 39.3999 80.3003 39.4999C80.3003 39.4999 80.3003 39.4999 80.3003 39.5999C80.3003 39.5999 80.3003 39.6 80.3003 39.7C80.3003 39.7 80.3003 39.6999 80.3003 39.7999C80.3003 39.7999 80.3003 39.8 80.3003 39.9C80.3003 39.9 80.3003 39.8999 80.3003 39.9999C80.3003 39.9999 80.3003 40.0999 80.4003 40.0999C80.4003 40.0999 80.4003 40.2 80.5003 40.2C80.5003 40.2 80.5003 40.2999 80.6003 40.2999L80.7003 40.4C80.7003 40.4 80.8003 40.3999 80.8003 40.4999C80.8003 40.4999 80.8003 40.4999 80.9003 40.5999C80.9003 40.5999 80.9003 40.6 81.0003 40.7C81.0003 40.7 81.0003 40.6999 81.1003 40.7999C81.1003 40.7999 81.1003 40.8 81.2003 40.9C81.2003 40.9 81.3003 40.8999 81.3003 40.9999C81.3003 40.9999 81.3003 40.9999 81.4003 40.9999C81.4003 40.9999 81.5003 40.9999 81.5003 41.0999C81.5003 41.0999 81.6003 41.1 81.6003 41.2C81.7003 41.2 81.7003 41.2999 81.8003 41.2999C81.8003 41.2999 81.8003 41.2999 81.9003 41.2999C82.0003 41.2999 82.0003 41.4 82.1003 41.4C82.1003 41.4 82.1003 41.4 82.2003 41.4C82.3003 41.4 82.4003 41.4999 82.4003 41.4999C82.5003 41.4999 82.5003 41.4999 82.6003 41.5999H82.7003H82.8003H82.9003H83.0003H83.1003H83.2003H83.3003H83.4003H83.5003C83.6003 41.5999 83.7003 41.5999 83.8003 41.5999C83.9003 41.5999 84.0003 41.5999 84.0003 41.5999H84.1003H84.2003H84.3003C84.4003 41.5999 84.4003 41.5999 84.5003 41.5999H84.6003H84.7003H84.8003H84.9003H85.0003H85.1003H85.2003H85.3003H85.4003C85.5003 41.5999 85.5003 41.5999 85.6003 41.5999C85.7003 41.5999 85.7003 41.5999 85.8003 41.5999C85.9003 41.5999 85.9003 41.5999 86.0003 41.5999H86.1003H86.2003C86.2003 41.5999 86.2003 41.5999 86.3003 41.5999C86.4003 41.5999 86.4003 41.5999 86.5003 41.5999H86.6003H86.7003H86.8003C86.9003 41.5999 86.9003 41.5999 87.0003 41.4999C87.1003 41.4999 87.2003 41.4 87.2003 41.4H87.3003H87.4003H87.5003C87.5003 41.4 87.5003 41.4 87.6003 41.4C87.6003 41.4 87.7003 41.3999 87.7003 41.2999C87.7003 41.2999 87.7003 41.2999 87.8003 41.2999C87.9003 41.2999 87.9003 41.2 88.0003 41.2C88.9003 40.7 89.4003 39.9999 89.3003 39.2999V60.0999C89.3003 60.7999 88.9003 61.5 88.0003 62C87.9003 62 87.9003 62.0999 87.8003 62.0999C87.8003 62.0999 87.8003 62.0999 87.7003 62.0999C87.7003 62.0999 87.6003 62.1 87.6003 62.2C87.6003 62.2 87.6003 62.2 87.5003 62.2H87.4003H87.3003C87.3003 62.2 87.3003 62.2 87.2003 62.2C87.1003 62.2 87.0003 62.2999 87.0003 62.2999C86.9003 62.2999 86.9003 62.3 86.8003 62.4H86.7003H86.6003C86.5003 62.4 86.5003 62.4 86.4003 62.4C86.4003 62.4 86.4003 62.4 86.3003 62.4H86.2003H86.1003C86.0003 62.4 86.0003 62.4 85.9003 62.4C85.8003 62.4 85.8003 62.4 85.7003 62.4C85.7003 62.4 85.7003 62.4 85.6003 62.4C85.5003 62.4 85.5003 62.4 85.4003 62.4H85.3003H85.2003H85.1003H85.0003C85.0003 62.4 85.0003 62.4 84.9003 62.4H84.8003H84.7003H84.6003C84.6003 62.4 84.6003 62.4 84.5003 62.4C84.4003 62.4 84.4003 62.4 84.3003 62.4H84.2003H84.1003C84.1003 62.4 84.1003 62.4 84.0003 62.4C83.9003 62.4 83.8003 62.4 83.8003 62.4C83.7003 62.4 83.6003 62.4 83.5003 62.4C83.5003 62.4 83.5003 62.4 83.4003 62.4H83.3003H83.2003H83.1003H83.0003H82.9003H82.8003H82.7003C82.6003 62.4 82.6003 62.4 82.5003 62.2999C82.4003 62.2999 82.3003 62.2 82.3003 62.2C82.3003 62.2 82.3003 62.2 82.2003 62.2C82.1003 62.2 82.1003 62.0999 82.0003 62.0999C82.0003 62.0999 82.0003 62.0999 81.9003 62.0999C81.8003 62.0999 81.8003 62 81.7003 62C81.7003 62 81.7003 62 81.6003 62C81.6003 62 81.6003 62 81.5003 62C81.5003 62 81.4003 62 81.4003 61.9C81.4003 61.9 81.4003 61.9 81.3003 61.9C81.3003 61.9 81.2003 61.9 81.2003 61.7999C81.2003 61.7999 81.2003 61.8 81.1003 61.7C81.1003 61.7 81.1003 61.6999 81.0003 61.5999C81.0003 61.5999 81.0003 61.6 80.9003 61.5C80.9003 61.5 80.9003 61.5 80.8003 61.4C80.8003 61.4 80.8003 61.4 80.7003 61.4L80.6003 61.2999L80.5003 61.2C80.5003 61.2 80.5003 61.0999 80.4003 61.0999C80.4003 61.0999 80.4003 61 80.3003 61C80.3003 61 80.3003 61 80.3003 60.9C80.3003 60.9 80.3003 60.9 80.3003 60.7999C80.3003 60.7999 80.3003 60.8 80.3003 60.7C80.3003 60.7 80.3003 60.6999 80.3003 60.5999C80.3003 60.5999 80.3003 60.6 80.3003 60.5C80.3003 60.5 80.3003 60.5 80.3003 60.4C80.3003 60.4 80.3003 60.4 80.3003 60.2999C80.3003 60.2999 80.3003 60.3 80.3003 60.2C80.3003 60.2 80.3003 60.1999 80.3003 60.0999V38.9C80.3003 38.8 80.3003 38.8 80.3003 38.9Z" fill="#2F58FF"/>
<path d="M89.4002 39.2001C89.4002 38.5001 89.0002 37.9 88.1002 37.3C86.3002 36.3 83.4002 36.3 81.6002 37.3C80.7002 37.8 80.2002 38.5001 80.3002 39.2001C80.3002 39.2001 80.3002 39.2 80.3002 39.1" stroke="#171A21" stroke-width="2" stroke-miterlimit="10" stroke-linecap="round" stroke-linejoin="round"/>
<path d="M92.8999 59.8001C92.8999 59.9001 92.8999 59.9001 92.8999 59.9001C92.8999 59.9001 92.8999 59.9001 92.8999 60.0001C92.8999 60.0001 92.8999 60.0001 92.8999 60.1001C92.8999 60.1001 92.8999 60.1001 92.8999 60.2001C92.8999 60.2001 92.8999 60.2001 92.8999 60.3001C92.8999 60.3001 92.8999 60.3001 92.8999 60.4001C92.8999 60.4001 92.8999 60.4001 92.8999 60.5001C92.8999 60.5001 92.8999 60.5001 92.8999 60.6001C92.8999 60.6001 92.8999 60.6001 92.8999 60.7001C92.8999 60.7001 92.8999 60.7001 92.8999 60.8001C92.8999 60.8001 92.8999 60.8001 92.8999 60.9001C92.8999 60.9001 92.8999 61.0001 92.9999 61.0001C92.9999 61.0001 92.9999 61.1001 93.0999 61.1001C93.0999 61.1001 93.0999 61.2001 93.1999 61.2001L93.2999 61.3001C93.2999 61.3001 93.3999 61.3001 93.3999 61.4001C93.3999 61.4001 93.3999 61.4001 93.4999 61.5001C93.4999 61.5001 93.4999 61.5001 93.5999 61.6001C93.5999 61.6001 93.5999 61.6001 93.6999 61.7001C93.6999 61.7001 93.6999 61.7001 93.7999 61.8001C93.7999 61.8001 93.8999 61.8001 93.8999 61.9001C93.8999 61.9001 93.8999 61.9001 93.9999 61.9001C93.9999 61.9001 94.0999 61.9001 94.0999 62.0001C94.0999 62.0001 94.1999 62.0001 94.1999 62.1001C94.2999 62.1001 94.2999 62.2001 94.3999 62.2001C94.3999 62.2001 94.3999 62.2001 94.4999 62.2001C94.5999 62.2001 94.5999 62.3001 94.6999 62.3001C94.6999 62.3001 94.6999 62.3001 94.7999 62.3001C94.8999 62.3001 94.9999 62.4001 94.9999 62.4001C95.0999 62.4001 95.0999 62.4001 95.1999 62.5001H95.2999H95.3999H95.4999H95.5999H95.6999H95.7999H95.8999H95.9999H96.0999C96.1999 62.5001 96.2999 62.5001 96.3999 62.5001C96.4999 62.5001 96.5999 62.5001 96.5999 62.5001H96.6999H96.7999H96.8999C96.9999 62.5001 96.9999 62.5001 97.0999 62.5001H97.1999H97.2999H97.3999H97.4999H97.5999H97.6999H97.7999H97.8999H97.9999C98.0999 62.5001 98.0999 62.5001 98.1999 62.5001C98.2999 62.5001 98.2999 62.5001 98.3999 62.5001C98.4999 62.5001 98.4999 62.5001 98.5999 62.5001H98.6999H98.7999C98.7999 62.5001 98.7999 62.5001 98.8999 62.5001C98.9999 62.5001 98.9999 62.5001 99.0999 62.5001H99.1999H99.2999H99.3999C99.4999 62.5001 99.4999 62.5001 99.5999 62.4001C99.6999 62.4001 99.7999 62.3001 99.7999 62.3001H99.8999H99.9999H100.1C100.1 62.3001 100.1 62.3001 100.2 62.3001C100.2 62.3001 100.3 62.3001 100.3 62.2001C100.3 62.2001 100.3 62.2001 100.4 62.2001C100.5 62.2001 100.5 62.1001 100.6 62.1001C101.5 61.6001 102 60.9001 101.9 60.2001V67.5001C101.9 68.2001 101.5 68.9001 100.6 69.4001C100.5 69.4001 100.5 69.5001 100.4 69.5001C100.4 69.5001 100.4 69.5001 100.3 69.5001C100.3 69.5001 100.2 69.5001 100.2 69.6001C100.2 69.6001 100.2 69.6001 100.1 69.6001H99.9999H99.8999C99.8999 69.6001 99.8999 69.6001 99.7999 69.6001C99.6999 69.6001 99.5999 69.7001 99.5999 69.7001C99.4999 69.7001 99.4999 69.7001 99.3999 69.8001H99.2999H99.1999C99.0999 69.8001 99.0999 69.8001 98.9999 69.8001C98.9999 69.8001 98.9999 69.8001 98.8999 69.8001H98.7999H98.6999C98.5999 69.8001 98.5999 69.8001 98.4999 69.8001C98.3999 69.8001 98.3999 69.8001 98.2999 69.8001C98.2999 69.8001 98.2999 69.8001 98.1999 69.8001C98.0999 69.8001 98.0999 69.8001 97.9999 69.8001H97.8999H97.7999H97.6999H97.5999C97.5999 69.8001 97.5999 69.8001 97.4999 69.8001H97.3999H97.2999H97.1999C97.1999 69.8001 97.1999 69.8001 97.0999 69.8001C96.9999 69.8001 96.9999 69.8001 96.8999 69.8001H96.7999H96.6999C96.6999 69.8001 96.6999 69.8001 96.5999 69.8001C96.4999 69.8001 96.3999 69.8001 96.3999 69.8001C96.2999 69.8001 96.1999 69.8001 96.0999 69.8001C96.0999 69.8001 96.0999 69.8001 95.9999 69.8001H95.8999H95.7999H95.6999H95.5999H95.4999H95.3999H95.2999C95.1999 69.8001 95.1999 69.8001 95.0999 69.7001C94.9999 69.7001 94.8999 69.6001 94.8999 69.6001C94.8999 69.6001 94.8999 69.6001 94.7999 69.6001C94.6999 69.6001 94.6999 69.5001 94.5999 69.5001C94.5999 69.5001 94.5999 69.5001 94.4999 69.5001C94.3999 69.5001 94.3999 69.4001 94.2999 69.4001C94.2999 69.4001 94.2999 69.4001 94.1999 69.4001C94.1999 69.4001 94.1999 69.4001 94.0999 69.4001C94.0999 69.4001 93.9999 69.4001 93.9999 69.3001C93.9999 69.3001 93.9999 69.3001 93.8999 69.3001C93.8999 69.3001 93.7999 69.3001 93.7999 69.2001C93.7999 69.2001 93.7999 69.2001 93.6999 69.1001C93.6999 69.1001 93.6999 69.1001 93.5999 69.0001C93.5999 69.0001 93.5999 69.0001 93.4999 68.9001C93.4999 68.9001 93.4999 68.9001 93.3999 68.8001C93.3999 68.8001 93.3999 68.8001 93.2999 68.8001L93.1999 68.7001L93.0999 68.6001C93.0999 68.6001 93.0999 68.5001 92.9999 68.5001C92.9999 68.5001 92.9999 68.4001 92.8999 68.4001C92.8999 68.4001 92.8999 68.4001 92.8999 68.3001C92.8999 68.3001 92.8999 68.3001 92.8999 68.2001C92.8999 68.2001 92.8999 68.2001 92.8999 68.1001C92.8999 68.1001 92.8999 68.1001 92.8999 68.0001C92.8999 68.0001 92.8999 68.0001 92.8999 67.9001C92.8999 67.9001 92.8999 67.9001 92.8999 67.8001C92.8999 67.8001 92.8999 67.8001 92.8999 67.7001C92.8999 67.7001 92.8999 67.7001 92.8999 67.6001C92.8999 67.6001 92.8999 67.6001 92.8999 67.5001V59.8001C92.8999 59.7001 92.8999 59.7001 92.8999 59.8001Z" fill="#2F58FF"/>
<path d="M102.1 60.7001V46.5001C102.1 45.8001 101.7 45.1001 100.8 44.6001C98.9999 43.6001 96.0999 43.6001 94.2999 44.6001C93.3999 45.1001 92.8999 45.8001 92.9999 46.5001C92.9999 46.5001 92.9999 46.5001 92.9999 46.4001V60.7001" stroke="#171A21" stroke-width="2" stroke-miterlimit="10" stroke-linecap="round" stroke-linejoin="round"/>
<path d="M108.1 62.8C108.1 57.4 111.9 55.2 116.6 57.9C121.3 60.6 125.1 67.1 125.1 72.5C125.1 77.9 121.3 80.1 116.6 77.4C111.9 74.7 108.1 68.2 108.1 62.8Z" fill="#2F58FF"/>
<path d="M123.8 66.8001C122.3 63.1001 119.6 59.6 116.5 57.8V67.6L123.8 66.8001Z" fill="white"/>
<path d="M123.8 66.8001C122.3 63.1001 119.6 59.6 116.5 57.8" stroke="#171A21" stroke-width="2" stroke-miterlimit="10" stroke-linecap="round" stroke-linejoin="round"/>
</svg>
