<svg width="144" height="144" viewBox="0 0 144 144" fill="none" xmlns="http://www.w3.org/2000/svg">
<path d="M105.8 89.0001L140.8 68.8001C141.7 68.3001 142.8 68.9001 142.8 70.0001L142.9 105.4C142.9 107.3 141.9 109.1 140.2 110.1L105.9 129.9C104.2 130.9 102.1 130.9 100.5 129.9L66.4001 110C64.7001 109 63.7001 107.3 63.7001 105.3L63.6001 70.0001C63.6001 69.0001 64.7001 68.3001 65.6001 68.8001L100.3 89.0001C102 89.9001 104.1 89.9001 105.8 89.0001Z" fill="#2F58FF"/>
<path d="M65.6003 68.8L100.3 89C102 90 104 90 105.7 89L140.7 68.8C141.6 68.3 141.6 67 140.7 66.5L106 46.2C104.3 45.2 102.3 45.2 100.6 46.2L65.6003 66.4C64.7003 66.9 64.7003 68.2 65.6003 68.8Z" fill="#E8F4FA"/>
<path d="M63.6001 70.6999C63.6001 68.7999 64.6001 67 66.3001 66L100.6 46.2C102.3 45.2 104.4 45.2 106 46.2L140.1 66C141.8 67 142.8 68.6999 142.8 70.6999" stroke="#171A21" stroke-width="2" stroke-miterlimit="10" stroke-linecap="round" stroke-linejoin="round"/>
<path d="M126.3 58.0999L116.7 52.5999L77 75.4999L86.6 80.9999L126.3 58.0999Z" fill="white" stroke="#171A21" stroke-width="2" stroke-miterlimit="10" stroke-linecap="round" stroke-linejoin="round"/>
<path d="M118.7 38.4001C118.7 38.2001 118.7 38 118.6 37.7001V37.6C118.6 37.4 118.5 37.2001 118.5 37V36.9001C118.5 36.7001 118.4 36.5 118.4 36.2001V36.1C118.3 35.9 118.3 35.7001 118.2 35.5V35.4001C118.1 35.2001 118.1 35 118 34.8C118 34.7 118 34.7 117.9 34.6C117.8 34.4 117.8 34.2 117.7 34.1V34C117.6 33.8 117.5 33.6001 117.4 33.4001C117.4 33.3001 117.3 33.3001 117.3 33.2001C117.2 33 117.1 32.9001 117 32.7001C117 32.6 116.9 32.6 116.9 32.5C116.8 32.3 116.6 32.1 116.5 31.9C116.4 31.7 116.2 31.5 116.1 31.3C116.1 31.2 116 31.2 116 31.1C115.9 31 115.8 30.8001 115.7 30.7001C115.6 30.6 115.6 30.5 115.5 30.4C115.4 30.3 115.3 30.2001 115.2 30C115.1 29.9 115.1 29.8001 115 29.7001C114.9 29.6 114.8 29.5 114.7 29.3C114.6 29.2 114.6 29.1 114.5 29.1C114.4 29 114.2 28.8001 114.1 28.7001C114 28.6 114 28.6 113.9 28.5C113.7 28.3 113.5 28.1 113.3 28C113.2 27.9 113.2 27.9 113.1 27.8C113 27.7 112.9 27.6 112.7 27.5C112.6 27.4 112.6 27.4 112.5 27.3C112.4 27.2 112.3 27.1 112.1 27C112 26.9 111.9 26.9 111.9 26.8C111.8 26.7 111.6 26.6 111.5 26.5C111.4 26.4 111.4 26.4 111.3 26.3C111.2 26.2 111 26.1 110.9 26C110.8 26 110.8 25.9 110.7 25.9C110.5 25.8 110.3 25.6 110.1 25.5L110 25.4C109.8 25.3 109.7 25.2 109.5 25.1C109.2 24.9 109 24.8 108.7 24.6C108.7 24.6 108.6 24.6 108.6 24.5C108.4 24.4 108.1 24.2 107.9 24.1C107.8 24 107.7 24 107.6 24C107.4 23.9 107.2 23.8001 107 23.7001C106.9 23.6 106.8 23.6 106.7 23.5C106.5 23.4 106.3 23.3001 106.1 23.2001C106 23.2001 105.9 23.1 105.8 23.1C105.5 23 105.3 22.9 105 22.8C104.9 22.8 104.9 22.8 104.8 22.7C104.5 22.6 104.2 22.4 103.8 22.3C103.7 22.3 103.6 22.2 103.5 22.2C103.3 22.1 103 22 102.8 21.9C102.7 21.9 102.6 21.8 102.4 21.8C102.2 21.7 102 21.6 101.7 21.6C101.6 21.6 101.5 21.5 101.4 21.5C101 21.4 100.5 21.2 100.1 21.1C99.9998 21.1 99.8998 21.1 99.8998 21C99.3998 20.9 98.9998 20.7 98.4998 20.6C97.9998 20.5 97.4998 20.4 96.9998 20.3C96.8998 20.3 96.7998 20.3 96.6998 20.2C96.1998 20.1 95.6998 20 95.1998 19.9C95.0998 19.9 94.8998 19.8 94.7998 19.8C94.5998 19.8 94.3998 19.7 94.1998 19.7C93.9998 19.7 93.8998 19.6 93.6998 19.6C93.4998 19.6 93.2998 19.5 93.0998 19.5C92.8998 19.5 92.7998 19.5 92.5998 19.4C92.3998 19.4 92.1998 19.3 91.9998 19.3C91.7998 19.3 91.6998 19.3 91.4998 19.2C91.2998 19.2 91.0998 19.2 90.8998 19.1C90.7998 19.1 90.5998 19.1 90.4998 19.1C89.9998 19 89.3998 19 88.8998 19C88.7998 19 88.6998 19 88.5998 19C87.9998 19 87.4998 18.9 86.8998 18.9C86.6998 18.9 86.3998 18.9 86.1998 18.9C86.0998 18.9 85.9998 18.9 85.8998 18.9C85.4998 18.9 85.1998 18.9 84.7998 18.9C84.1998 18.9 83.6998 18.9 83.1998 18.9C82.8998 18.9 82.6998 18.9 82.3998 18.9C82.0998 18.9 81.7998 18.9 81.4998 18.9C81.1998 18.9 80.9998 18.9 80.6998 19C80.3998 19 80.0998 19 79.7998 19.1C79.4998 19.1 79.2998 19.2 78.9998 19.2C78.6998 19.2 78.3998 19.3 78.0998 19.3C77.7998 19.3 77.5998 19.4 77.2998 19.4C76.9998 19.4 76.6998 19.5 76.4998 19.5C76.1998 19.5 75.8998 19.6 75.5998 19.6C75.3998 19.6 75.0998 19.7 74.8998 19.7C74.5998 19.8 74.2998 19.8 73.9998 19.9C73.7998 19.9 73.4998 20 73.2998 20C72.6998 20.1 72.1998 20.2 71.5998 20.4H71.4998C70.9998 20.5 70.4998 20.7 69.9998 20.8C69.5998 20.9 69.0998 21 68.6998 21.2C68.5998 21.2 68.4998 21.3 68.4998 21.3C68.0998 21.4 67.7998 21.5 67.3998 21.7C67.2998 21.7 67.1998 21.8 66.9998 21.8C66.5998 21.9 66.2998 22.1 65.8998 22.2C65.7998 22.2 65.7998 22.2 65.6998 22.3C65.3998 22.4 65.1998 22.5 64.8998 22.6C64.6998 22.7 64.4998 22.8 64.2998 22.8C63.9998 22.9 63.7998 23 63.4998 23.2001C63.2998 23.3001 63.1998 23.4 62.9998 23.4C62.6998 23.5 62.3998 23.7 62.1998 23.8C62.0998 23.9 61.8998 23.9 61.7998 24C61.3998 24.2001 60.9998 24.4001 60.5998 24.7001C60.3998 24.8001 60.1998 24.9 59.9998 25C59.8998 25 59.8998 25.1 59.7998 25.1C59.6998 25.2 59.5998 25.3 59.3998 25.3C59.2998 25.3 59.2998 25.4 59.1998 25.4C59.0998 25.5 58.9998 25.5 58.8998 25.6C58.7998 25.6 58.7998 25.7001 58.6998 25.7001C58.5998 25.8001 58.4998 25.8 58.3998 25.9C58.2998 26 58.2998 26 58.1998 26.1C58.0998 26.2 57.9998 26.2 57.8998 26.3C57.7998 26.4 57.7998 26.4 57.6998 26.5C57.5998 26.6 57.4998 26.6 57.3998 26.7001C57.2998 26.8001 57.2998 26.8 57.1998 26.9C57.0998 27 56.9998 27 56.8998 27.1C56.7998 27.2 56.7998 27.2 56.6998 27.3C56.5998 27.4 56.4998 27.4 56.3998 27.5C55.9998 27.9 55.9998 28 55.8998 28C55.7998 28.1 55.6998 28.1 55.6998 28.2001C55.5998 28.3001 55.5998 28.3 55.4998 28.4C55.3998 28.5 55.2998 28.5 55.2998 28.6C55.1998 28.7 55.1998 28.7 55.0998 28.8C54.9998 28.9 54.8998 29 54.8998 29C54.7998 29.1 54.7998 29.1 54.6998 29.2001C54.5998 29.3001 54.4998 29.4 54.4998 29.4C54.3998 29.5 54.3998 29.5 54.2998 29.6C54.1998 29.7 54.0998 29.8 54.0998 29.8C54.0998 29.9 53.9998 29.9 53.9998 30C53.8998 30.1 53.7998 30.2 53.7998 30.3L53.6998 30.4C53.5998 30.5 53.4998 30.7 53.3998 30.8C53.2998 30.9 53.1998 31.1 53.0998 31.2001L52.9998 31.3C52.8998 31.4 52.8998 31.5 52.7998 31.6C52.7998 31.7 52.6998 31.7 52.6998 31.8C52.5998 31.9 52.5998 32 52.4998 32.1C52.4998 32.2 52.3998 32.2 52.3998 32.3C52.2998 32.4 52.2998 32.5 52.1998 32.6C52.1998 32.7 52.0998 32.7 52.0998 32.8C52.0998 32.9 51.9998 33 51.9998 33.1C51.9998 33.2 51.8998 33.2 51.8998 33.3C51.8998 33.4 51.7998 33.5 51.7998 33.6C51.7998 33.7 51.6998 33.7 51.6998 33.8C51.6998 33.9 51.5998 34 51.5998 34.1C51.5998 34.2 51.4998 34.2 51.4998 34.3C51.4998 34.4 51.3998 34.5 51.3998 34.6C51.3998 34.7 51.2998 34.7 51.2998 34.8C51.2998 34.9 51.1998 35 51.1998 35.1C51.1998 35.2 51.0998 35.2 51.0998 35.3C51.0998 35.4 50.9998 35.5 50.9998 35.6C50.9998 35.7 50.9998 35.7 50.8998 35.8C50.8998 35.9 50.7998 36 50.7998 36.1C50.7998 36.2 50.7998 36.2 50.6998 36.3C50.6998 36.4 50.6998 36.5 50.5998 36.6C50.5998 36.7 50.5998 36.7 50.5998 36.8C50.5998 36.9 50.5998 37 50.4998 37.1C50.4998 37.2 50.4998 37.2 50.4998 37.3C50.4998 37.4 50.4998 37.5 50.3998 37.6C50.3998 37.7 50.3998 37.7 50.3998 37.8C50.3998 38 50.3998 38.1 50.2998 38.3C50.2998 38.4 50.2998 38.5 50.2998 38.6C50.2998 38.7 50.2998 38.7 50.2998 38.8C50.2998 39 50.2998 39.1 50.2998 39.3C50.2998 38.9 50.2998 38.4 50.2998 38V37.4001C50.2998 36.9001 50.2998 36.3 50.2998 35.8V35C50.2998 34.8 50.2998 34.6001 50.2998 34.4001V33.5C50.2998 32.9 50.2998 32.3001 50.2998 31.7001V31.1C50.2998 30.8 50.2998 30.6 50.2998 30.3V28.7001C50.2998 28.5 50.2998 28.3 50.2998 28.1V26.8C50.2998 26.6 50.2998 26.5 50.2998 26.3C50.2998 26.3 50.2998 26.3001 50.2998 26.2001C50.2998 26.1 50.2998 25.9 50.2998 25.8C50.2998 25.6 50.2998 25.5 50.3998 25.3C50.3998 25.2 50.3998 25.2 50.3998 25.1C50.3998 25 50.3998 24.9 50.4998 24.8C50.4998 24.7 50.4998 24.7 50.4998 24.6C50.4998 24.5 50.4998 24.4 50.5998 24.3C50.5998 24.2 50.5998 24.2 50.5998 24.1C50.5998 24 50.5998 23.9 50.6998 23.8C50.6998 23.7 50.6998 23.7 50.7998 23.6C50.7998 23.5 50.8998 23.4 50.8998 23.3C50.8998 23.2 50.8998 23.2 50.9998 23.1C50.9998 23 51.0998 22.9 51.0998 22.8C51.0998 22.7 51.1998 22.7 51.1998 22.6C51.1998 22.5 51.2998 22.4 51.2998 22.3C51.2998 22.2 51.3998 22.2 51.3998 22.1C51.3998 22 51.4998 21.9 51.4998 21.8C51.4998 21.7 51.5998 21.7 51.5998 21.6C51.5998 21.5 51.6998 21.4 51.6998 21.3C51.6998 21.2 51.7998 21.2 51.7998 21.1C51.7998 21 51.8998 20.9 51.8998 20.8C51.8998 20.7 51.9998 20.7 51.9998 20.6C51.9998 20.5 52.0998 20.4 52.0998 20.3C52.0998 20.2 52.1998 20.2 52.1998 20.1C52.2998 20 52.2998 19.9 52.3998 19.8C52.3998 19.7 52.4998 19.7 52.4998 19.6C52.5998 19.5 52.5998 19.4 52.6998 19.3C52.6998 19.2 52.7998 19.2 52.7998 19.1C52.8998 19 52.8998 18.9 52.9998 18.8L53.0998 18.7C53.1998 18.6 53.2998 18.4 53.3998 18.3C53.4998 18.2 53.5998 18 53.6998 17.9L53.7998 17.8C53.8998 17.7 53.9998 17.6 53.9998 17.5C53.9998 17.4 54.0998 17.4 54.0998 17.3C54.1998 17.2 54.2998 17.1 54.2998 17.1C54.3998 17 54.3998 17 54.4998 16.9C54.5998 16.8 54.6998 16.7 54.6998 16.7C54.7998 16.6 54.7998 16.6 54.8998 16.5C54.9998 16.4 55.0998 16.3 55.0998 16.3C55.1998 16.2 55.1998 16.2 55.2998 16.1C55.3998 16 55.4998 16 55.4998 15.9C55.5998 15.8 55.5998 15.8 55.6998 15.7C55.7998 15.6 55.8998 15.6 55.8998 15.5C55.9998 15.4 55.9998 15.4 56.0998 15.3C56.1998 15.2 56.2998 15.2 56.3998 15.1C56.4998 15 56.4998 15 56.5998 14.9C56.6998 14.8 56.7998 14.8 56.8998 14.7C56.9998 14.6 56.9998 14.6 57.0998 14.5C57.1998 14.4 57.2998 14.4 57.3998 14.3C57.4998 14.2 57.4998 14.2 57.5998 14.1C57.6998 14 57.7998 14 57.8998 13.9C57.9998 13.8 57.9998 13.8 58.0998 13.7C58.1998 13.6 58.2998 13.6 58.3998 13.5C58.4998 13.5 58.4998 13.4 58.5998 13.4C58.6998 13.3 58.7998 13.3 58.8998 13.2C58.9998 13.2 58.9998 13.1 59.0998 13.1C59.1998 13 59.2998 12.9 59.4998 12.9C59.5998 12.9 59.5998 12.8 59.6998 12.8C59.8998 12.7 60.0998 12.6 60.2998 12.5C60.6998 12.3 61.0998 12.1 61.4998 11.8C61.5998 11.7 61.7998 11.7 61.8998 11.6C62.1998 11.5 62.3998 11.3 62.6998 11.2C62.8998 11.1 62.9998 11 63.1998 11C63.4998 10.9 63.6998 10.8 63.9998 10.6C64.1998 10.5 64.3998 10.4 64.5998 10.4C64.7998 10.3 65.0998 10.2 65.2998 10.1C65.2998 10.1 65.2998 10.1 65.3998 10.1C65.4998 10.1 65.4998 10.1 65.5998 10C65.8998 9.90005 66.2998 9.70005 66.6998 9.60005C66.7998 9.60005 66.8998 9.50005 67.0998 9.50005C67.4998 9.40005 67.7998 9.30005 68.1998 9.10005C68.2998 9.10005 68.3998 9.00005 68.3998 9.00005C68.7998 8.90005 69.1998 8.80005 69.5998 8.70005H69.6998C70.1998 8.60005 70.6998 8.40005 71.1998 8.30005H71.2998C71.8998 8.20005 72.3998 8.00005 72.9998 7.90005H73.0998C73.2998 7.90005 73.4998 7.80005 73.6998 7.80005C73.9998 7.70005 74.2998 7.70005 74.5998 7.60005C74.7998 7.60005 75.0998 7.50005 75.2998 7.50005C75.5998 7.50005 75.8998 7.40005 76.1998 7.40005C76.2998 7.40005 76.2998 7.40005 76.3998 7.40005C76.5998 7.40005 76.7998 7.30005 77.0998 7.30005C77.3998 7.30005 77.5998 7.20005 77.8998 7.20005C78.0998 7.00005 78.3998 7.00005 78.6998 7.00005C78.9998 7.00005 79.1998 6.90005 79.4998 6.90005C79.5998 6.90005 79.5998 6.90005 79.6998 6.90005C79.8998 6.90005 80.1998 6.90005 80.3998 6.90005C80.6998 6.90005 80.8998 6.90005 81.1998 6.80005C81.4998 6.80005 81.7998 6.80005 82.0998 6.80005C82.3998 6.80005 82.5998 6.80005 82.8998 6.80005H82.9998C83.4998 6.80005 83.9998 6.80005 84.4998 6.80005C84.8998 6.80005 85.1998 6.80005 85.5998 6.80005C85.6998 6.80005 85.7998 6.80005 85.8998 6.80005C86.0998 6.80005 86.2998 6.80005 86.4998 6.80005C86.4998 6.80005 86.4998 6.80005 86.5998 6.80005C87.1998 6.80005 87.6998 6.90005 88.2998 6.90005C88.3998 6.90005 88.4998 6.90005 88.5998 6.90005C89.0998 6.90005 89.6998 7.00005 90.1998 7.00005H90.2998C90.3998 7.00005 90.4998 7.00005 90.5998 7.00005C90.7998 7.00005 90.9998 7.00005 91.1998 7.10005C91.3998 7.10005 91.4998 7.10005 91.6998 7.20005C91.8998 7.20005 92.0998 7.30005 92.2998 7.30005C92.4998 7.30005 92.5998 7.30005 92.7998 7.40005C92.9998 7.40005 93.1998 7.50005 93.3998 7.50005C93.5998 7.50005 93.6998 7.60005 93.8998 7.60005C94.0998 7.60005 94.2998 7.70005 94.4998 7.70005C94.5998 7.70005 94.6998 7.70005 94.7998 7.80005H94.8998C95.3998 7.90005 95.8998 8.00005 96.3998 8.10005C96.4998 8.10005 96.5998 8.10005 96.6998 8.20005C97.1998 8.30005 97.6998 8.40005 98.1998 8.50005C98.6998 8.60005 99.1998 8.80005 99.5998 8.90005C99.6998 8.90005 99.7998 8.90005 99.7998 9.00005C100.3 9.10005 100.7 9.30005 101.1 9.40005H101.2C101.3 9.40005 101.3 9.40005 101.4 9.50005C101.6 9.60005 101.8 9.70005 102.1 9.70005C102.2 9.70005 102.3 9.80005 102.5 9.80005C102.7 9.90005 103 10 103.2 10.1C103.3 10.1 103.4 10.2 103.5 10.2C103.8 10.3 104.1 10.5 104.5 10.6C104.6 10.6 104.6 10.6 104.7 10.7C105 10.8 105.2 10.9 105.5 11C105.6 11 105.7 11.1 105.8 11.1C106 11.2 106.2 11.3 106.4 11.4C106.5 11.5 106.6 11.5 106.7 11.6C106.9 11.7 107.1 11.8 107.3 11.9C107.4 11.9 107.5 12 107.6 12C107.8 12.1 108.1 12.3 108.3 12.4C108.3 12.4 108.4 12.4 108.4 12.5C108.7 12.7 108.9 12.8 109.2 13C109.2 13 109.2 13 109.3 13C109.5 13.1 109.6 13.2 109.8 13.3L109.9 13.4C110.1 13.5 110.3 13.7 110.5 13.8C110.6 13.8 110.6 13.9 110.7 13.9C110.9 14 111 14.1 111.1 14.2C111.2 14.3 111.2 14.3 111.3 14.4C111.4 14.5 111.6 14.6 111.7 14.7C111.8 14.8 111.9 14.8 111.9 14.9C112 15 112.1 15.1 112.3 15.2C112.4 15.3 112.4 15.3 112.5 15.4C112.6 15.5 112.7 15.6 112.9 15.7L113 15.8C113.2 16 113.4 16.1 113.6 16.3C113.7 16.4 113.7 16.4 113.8 16.5C113.9 16.6 114.1 16.8 114.2 16.9C114.3 17 114.4 17.1 114.4 17.1C114.5 17.2 114.6 17.3 114.7 17.5C114.8 17.6 114.9 17.7 114.9 17.8C115 17.9 115.1 18 115.2 18.2C115.3 18.3 115.3 18.4 115.4 18.5C115.4 18.6 115.5 18.6 115.5 18.7C115.6 18.8 115.6 18.8 115.7 18.9C115.7 19 115.8 19 115.8 19.1C115.9 19.3 116.1 19.5 116.2 19.7C116.3 19.9 116.5 20.1 116.6 20.3C116.6 20.4 116.7 20.4 116.7 20.5C116.7 20.6 116.8 20.7 116.8 20.8C116.8 20.9 116.9 21 116.9 21C116.9 21.1 117 21.1 117 21.2C117.1 21.4 117.2 21.6 117.3 21.8V21.9C117.4 22.1 117.5 22.3 117.5 22.4C117.5 22.5 117.5 22.5 117.6 22.6V22.7C117.7 22.9 117.7 23 117.8 23.2001V23.3C117.9 23.5 117.9 23.7 118 23.9V24C118 24.2001 118.1 24.4 118.1 24.6C118.1 24.6 118.1 24.6 118.1 24.7001V24.8C118.1 25 118.2 25.2 118.2 25.4V25.5C118.2 25.7001 118.2 25.9001 118.3 26.2001V26.3C118.3 26.4 118.3 26.5 118.3 26.6C118.3 26.7 118.3 26.9 118.3 27V39.5C118.3 39.3 118.3 39 118.3 38.8C118.7 38.5 118.7 38.4001 118.7 38.4001Z" fill="#2F58FF"/>
<path d="M41.3998 27C41.3998 27.2 41.3998 27.4 41.3998 27.6V27.7001C41.3998 27.9001 41.3998 28.0001 41.3998 28.2001C41.3998 28.3001 41.3998 28.3 41.3998 28.4C41.3998 28.5 41.3998 28.7 41.4998 28.8C41.4998 28.9 41.4998 29 41.4998 29C41.4998 29.1 41.4998 29.2 41.5998 29.4C41.5998 29.5 41.5998 29.6 41.5998 29.6C41.5998 29.7 41.5998 29.8 41.6998 29.9C41.6998 30 41.6998 30.1 41.7998 30.1C41.7998 30.2 41.8998 30.3 41.8998 30.4C41.8998 30.5 41.8998 30.6 41.9998 30.6C41.9998 30.7 42.0998 30.8 42.0998 30.9C42.0998 31 42.0998 31.1 42.1998 31.1C42.1998 31.2 42.2998 31.3 42.2998 31.5C42.2998 31.6 42.2998 31.6001 42.3998 31.7001C42.4998 31.9001 42.4998 32.1 42.5998 32.3C42.6998 32.5 42.7998 32.7001 42.8998 32.9001C42.8998 33.0001 42.9998 33 42.9998 33.1C43.0998 33.2 43.0998 33.4 43.1998 33.5C43.1998 33.6 43.2998 33.6001 43.2998 33.7001C43.3998 33.8001 43.3998 33.9 43.4998 34.1C43.4998 34.2 43.5998 34.2 43.5998 34.3C43.6998 34.4 43.7998 34.6 43.8998 34.7001C43.8998 34.8001 43.9998 34.8001 43.9998 34.9001C44.0998 35.1001 44.1998 35.3 44.3998 35.5C44.3998 35.5 44.3998 35.6 44.4998 35.6C44.5998 35.8 44.6998 35.9 44.7998 36.1C44.7998 36.2 44.8998 36.2 44.8998 36.3C44.9998 36.4 45.0998 36.6 45.1998 36.7001C45.1998 36.8001 45.2998 36.8001 45.2998 36.9001C45.4998 37.1001 45.5998 37.3 45.7998 37.5L45.8998 37.6C46.0998 37.8 46.1998 38.0001 46.3998 38.2001L46.4998 38.3C46.6998 38.5 46.8998 38.7001 47.0998 38.9001L47.1998 39C47.3998 39.2 47.5998 39.4 47.7998 39.5L47.8998 39.6C48.0998 39.8 48.2998 40.0001 48.5998 40.2001C48.6998 40.2001 48.6998 40.3 48.7998 40.3C48.9998 40.5 49.1998 40.7 49.3998 40.8C49.3998 40.8 49.4998 40.8001 49.4998 40.9001C49.6998 41.1001 49.9998 41.3 50.1998 41.5C50.2998 41.5 50.2998 41.6 50.3998 41.6C50.6998 41.8 50.8998 42.0001 51.1998 42.2001C51.4998 42.4001 51.7998 42.6 52.0998 42.8C52.1998 42.8 52.1998 42.9001 52.2998 42.9001C52.5998 43.1001 52.8998 43.3 53.1998 43.5C53.2998 43.5 53.2998 43.6 53.3998 43.6C53.5998 43.7 53.7998 43.8 53.9998 44C54.0998 44.1 54.1998 44.1 54.2998 44.2001C54.4998 44.3001 54.6998 44.4 54.7998 44.5C54.8998 44.6 54.9998 44.6 55.0998 44.7001C55.2998 44.8001 55.4998 44.9 55.6998 45C55.7998 45 55.8998 45.1 55.9998 45.1C56.2998 45.2 56.5998 45.4 56.8998 45.5C57.3998 45.7001 57.8998 46 58.3998 46.2001C58.5998 46.3001 58.6998 46.3001 58.8998 46.4001C59.1998 46.5001 59.5998 46.7 59.8998 46.8C60.0998 46.9 60.2998 47 60.4998 47C60.7998 47.1 61.0998 47.3001 61.4998 47.4001C61.6998 47.5001 61.9998 47.6 62.1998 47.6C62.4998 47.7 62.7998 47.8001 63.1998 47.9001C63.3998 48.0001 63.6998 48 63.8998 48.1C64.2998 48.2 64.6998 48.3001 64.9998 48.4001C65.1998 48.5001 65.4998 48.5 65.6998 48.6C66.0998 48.7 66.4998 48.8001 66.8998 48.9001C67.0998 49.0001 67.2998 49 67.4998 49.1C67.9998 49.2 68.5998 49.4 69.1998 49.5C69.2998 49.5 69.2998 49.5 69.3998 49.6C69.9998 49.7 70.6998 49.9 71.2998 50C71.7998 50.1 72.2998 50.2 72.8998 50.3C72.9998 50.3 73.0998 50.3 73.1998 50.3C73.5998 50.4 74.0998 50.4 74.4998 50.5C74.6998 50.5 74.7998 50.5 74.9998 50.6C75.3998 50.7 75.7998 50.7001 76.2998 50.7001C76.3998 50.7001 76.5998 50.7001 76.6998 50.7001C77.1998 50.8001 77.7998 50.8 78.2998 50.8C78.3998 50.8 78.4998 50.8 78.5998 50.8C79.0998 50.8 79.5998 50.9001 80.1998 50.9001C80.2998 50.9001 80.2998 50.9001 80.3998 50.9001C80.9998 50.9001 81.4998 51 82.0998 51C82.1998 51 82.3998 51 82.4998 51C83.0998 51 83.6998 51 84.1998 51C84.8998 51 85.5998 51 86.2998 51C86.5998 51 86.9998 51 87.2998 51C87.6998 51 88.0998 51 88.4998 51C88.7998 51 89.1998 51.0001 89.4998 50.9001C89.8998 50.9001 90.2998 50.9 90.5998 50.8C90.8998 50.8 91.2998 50.7001 91.5998 50.7001C91.9998 50.7001 92.2998 50.6 92.6998 50.6C92.9998 50.6 93.3998 50.5 93.6998 50.5C94.0998 50.5 94.3998 50.4001 94.7998 50.4001C95.1998 50.3001 95.5998 50.3001 95.9998 50.2001C96.2998 50.2001 96.5998 50.1 96.8998 50.1C97.2998 50 97.6998 50.0001 98.0998 49.9001C98.3998 49.8001 98.6998 49.8001 98.9998 49.7001C99.0998 49.7001 99.1998 49.7 99.2998 49.6C99.8998 49.5 100.5 49.3001 101 49.2001H101.1C101.7 49.1 102.2 48.9 102.8 48.8C102.9 48.8 103 48.7001 103.1 48.7001C103.7 48.5 104.2 48.4001 104.8 48.2001C104.9 48.2001 105 48.1 105.1 48.1C105.6 48 106 47.8001 106.5 47.7001C106.7 47.6 106.8 47.6 107 47.5C107.4 47.3 107.9 47.2001 108.3 47C108.4 47 108.5 46.9001 108.6 46.9001C108.9 46.8001 109.2 46.6 109.6 46.5C109.8 46.4 110.1 46.3001 110.3 46.2001C110.6 46.1 110.9 45.9 111.3 45.8C111.5 45.7 111.7 45.6 111.9 45.5C112.2 45.3 112.6 45.2001 112.9 45C113.1 44.9 113.3 44.8001 113.4 44.7001C113.9 44.4001 114.4 44.2001 114.9 43.9001C122.7 39.4001 127.6 33.2 127.6 26.3V38.8C127.5 45.7 122.7 51.9001 114.9 56.4001C114.4 56.7001 113.9 56.9001 113.4 57.2001C113.2 57.3001 113.1 57.4 112.9 57.5C112.6 57.7001 112.2 57.8 111.9 58C111.7 58.1 111.5 58.2 111.3 58.3C111 58.4 110.7 58.6001 110.3 58.7001C110.1 58.8 109.8 58.9001 109.6 59C109.3 59.1 109 59.2001 108.7 59.4001H108.6C108.5 59.4001 108.4 59.5 108.3 59.5C107.9 59.7001 107.4 59.8 107 60C106.8 60.1 106.7 60.1001 106.5 60.2001C106.1 60.4001 105.6 60.5 105.1 60.6C105 60.6 104.9 60.7001 104.8 60.7001C104.3 60.8 103.9 61 103.4 61.1C103.3 61.1 103.2 61.1001 103.2 61.2001C103.1 61.2001 103 61.3 102.9 61.3C102.3 61.5 101.8 61.6001 101.2 61.7001H101.1C100.5 61.8 99.9998 62 99.3998 62.1C99.2998 62.1 99.1998 62.1001 99.0998 62.2001C98.9998 62.2001 98.9998 62.2001 98.8998 62.2001C98.6998 62.3 98.3998 62.3 98.1998 62.3C97.7998 62.4 97.3998 62.5 96.9998 62.5C96.6998 62.6 96.3998 62.6 96.0998 62.6C95.6998 62.7 95.2998 62.7001 94.8998 62.8C94.7998 62.8 94.7998 62.8 94.6998 62.8C94.3998 62.8 94.0998 62.9001 93.8998 62.9001C93.5998 62.9001 93.1998 63 92.8998 63C92.4998 63 92.1998 63.1 91.7998 63.1C91.4998 63.1 91.0998 63.2001 90.7998 63.2001C90.6998 63.2001 90.6998 63.2001 90.5998 63.2001C90.2998 63.2001 89.9998 63.2001 89.6998 63.3C89.3998 63.3 88.9998 63.3001 88.6998 63.4001C88.2998 63.4001 87.8998 63.4001 87.4998 63.4001C87.1998 63.4001 86.7998 63.4001 86.4998 63.4001C86.3998 63.4001 86.3998 63.4001 86.2998 63.4001C85.6998 63.4001 84.9998 63.4001 84.3998 63.4001C83.7998 63.4001 83.1998 63.4001 82.6998 63.4001C82.5998 63.4001 82.3998 63.4001 82.2998 63.4001C82.1998 63.4001 81.9998 63.4001 81.8998 63.4001C81.4998 63.4001 81.0998 63.4 80.5998 63.3C80.4998 63.3 80.4998 63.3 80.3998 63.3C79.8998 63.3 79.2998 63.2001 78.7998 63.2001C78.6998 63.2001 78.5998 63.2001 78.4998 63.2001C77.9998 63.2001 77.4998 63.1 77.0998 63.1C76.9998 63.1 76.9998 63.1 76.8998 63.1C76.7998 63.1 76.5998 63.1 76.4998 63.1C76.0998 63.1 75.6998 63 75.1998 63C74.9998 63 74.8998 63 74.6998 62.9001C74.2998 62.8001 73.7998 62.8 73.3998 62.7001C73.2998 62.7001 73.1998 62.7001 73.0998 62.7001C72.5998 62.6001 72.0998 62.5 71.6998 62.5H71.5998C70.9998 62.4001 70.2998 62.3 69.6998 62.1C69.5998 62.1 69.5998 62.1 69.4998 62C68.8998 61.9001 68.3998 61.7 67.7998 61.6C67.5998 61.5 67.3998 61.5 67.1998 61.4001C66.7998 61.3001 66.3998 61.2 65.9998 61.1C65.7998 61 65.4998 61 65.2998 60.9001C64.8998 60.8001 64.4998 60.7 64.1998 60.6C64.0998 60.6 63.8998 60.5 63.7998 60.5C63.6998 60.5 63.5998 60.4001 63.4998 60.4001C63.1998 60.3001 62.8998 60.2 62.4998 60.1C62.2998 60 61.9998 59.9001 61.7998 59.9001C61.4998 59.8001 61.0998 59.7001 60.7998 59.5C60.5998 59.4001 60.3998 59.3 60.1998 59.3C59.7998 59.2001 59.4998 59 59.1998 58.9001C58.9998 58.8001 58.8998 58.8 58.6998 58.7001C58.1998 58.5 57.6998 58.2001 57.1998 58C56.8998 57.9 56.5998 57.7 56.2998 57.6C56.1998 57.6 56.0998 57.5 55.9998 57.5C55.7998 57.4 55.5998 57.3001 55.3998 57.2001C55.2998 57.1 55.1998 57.1 55.0998 57C54.8998 56.9 54.6998 56.8001 54.5998 56.7001C54.4998 56.6 54.3998 56.6 54.2998 56.5C54.0998 56.4 53.8998 56.3 53.6998 56.1C53.5998 56.1 53.5998 56 53.4998 56C53.1998 55.8 52.8998 55.6001 52.5998 55.4001C52.4998 55.4001 52.4998 55.3 52.3998 55.3C52.0998 55.1 51.7998 54.9001 51.4998 54.7001C51.1998 54.5 50.9998 54.3 50.6998 54.1C50.5998 54.1 50.5998 54 50.4998 54C50.0998 54.1 49.9998 54 49.8998 54V62.3L44.2998 59V48C44.1998 47.9 44.0998 47.7 43.9998 47.6C43.9998 47.5 43.8998 47.5001 43.8998 47.4001C43.7998 47.3001 43.6998 47.1 43.5998 47C43.5998 47 43.5998 46.9001 43.4998 46.9001C43.4998 46.9001 43.4998 46.8 43.3998 46.8C43.2998 46.7 43.2998 46.6001 43.1998 46.4001C43.1998 46.3001 43.0998 46.3001 43.0998 46.2001C42.9998 46.1 42.9998 45.9 42.8998 45.8C42.8998 45.7 42.7998 45.7 42.7998 45.6C42.6998 45.4 42.5998 45.2001 42.4998 45C42.3998 44.8 42.3998 44.6001 42.2998 44.4001C42.2998 44.3001 42.2998 44.3001 42.1998 44.2001C42.1998 44.1 42.0998 44 42.0998 43.8C42.0998 43.7 42.0998 43.6 41.9998 43.6C41.9998 43.5 41.8998 43.4 41.8998 43.3C41.8998 43.2 41.8998 43.1 41.7998 43.1C41.7998 43 41.6998 42.9 41.6998 42.8C41.6998 42.7 41.6998 42.6 41.5998 42.6C41.5998 42.5 41.4998 42.4 41.4998 42.3C41.4998 42.2 41.4998 42.2001 41.4998 42.2001V42.1C41.4998 42 41.4998 41.9001 41.3998 41.7001C41.3998 41.6 41.3998 41.5 41.3998 41.5C41.3998 41.4 41.3998 41.2 41.2998 41.1C41.2998 41 41.2998 41.0001 41.2998 40.9001C41.2998 40.7001 41.2998 40.6001 41.2998 40.4001V40.3C41.2998 40.1 41.2998 39.9001 41.2998 39.7001C41.2998 39.5001 41.2998 39.4001 41.2998 39.2001V26.7001C41.3998 26.7001 41.3998 26.8 41.3998 27Z" fill="#2F58FF"/>
<path d="M49.8999 49.7V62.2L56.7999 58.2V45.7L49.8999 49.7Z" fill="#2F58FF"/>
<path d="M84.5999 1.69995C72.6999 1.69995 61.9999 4.39995 54.0999 8.89995C46.2999 13.4 41.3999 19.6 41.3999 26.5C41.3999 32.5 44.9999 38.1 51.0999 42.4C52.7999 43.6 54.6999 44.7 56.6999 45.7C64.0999 49.2999 73.5999 51.5 84.0999 51.5C95.9999 51.5 106.7 48.7999 114.6 44.2999C122.4 39.7999 127.3 33.6 127.3 26.7C127.5 12.9 108.4 1.79995 84.5999 1.69995ZM108.6 40.7C102.4 44.2999 93.6999 46.5 84.2999 46.5C65.2999 46.5 49.9999 37.5 50.0999 26.5C50.0999 21 53.9999 16 60.2999 12.5C66.4999 8.89995 75.1999 6.69995 84.5999 6.69995C103.6 6.69995 118.9 15.7 118.8 26.7C118.7 32.2 114.8 37.1 108.6 40.7Z" fill="white"/>
<path d="M126.4 31.9C127 30.1999 127.4 28.5 127.4 26.7C127.5 12.9 108.4 1.79995 84.5999 1.69995C72.6999 1.69995 61.9999 4.39995 54.0999 8.89995C46.2999 13.4 41.3999 19.6 41.3999 26.5C41.3999 28.4 41.6999 30.1999 42.3999 31.9M118.8 26.7C118.8 32.2 114.9 37.1999 108.6 40.7999C102.4 44.3999 93.6999 46.5999 84.2999 46.5999C65.2999 46.5999 49.9999 37.6 50.0999 26.6" stroke="#171A21" stroke-width="2" stroke-miterlimit="10" stroke-linecap="round" stroke-linejoin="round"/>
<path d="M44.1997 46.3999L49.7997 49.6999L56.7997 45.6999C54.6997 44.6999 52.8997 43.5999 51.1997 42.3999L44.1997 46.3999Z" fill="white"/>
<path d="M1 68.7C1 68.8 1 68.8001 1 68.9001V69C1 69.1 1 69.1 1 69.2V69.3001C1 69.4001 1 69.4 1 69.5V69.6C1 69.7 1 69.7001 1 69.8001V69.9001C1 69.9001 1 70 1.1 70C1.1 70 1.1 70.1 1.2 70.1C1.2 70.1 1.2 70.2 1.3 70.2C1.3 70.2 1.3 70.3001 1.4 70.3001C1.4 70.3001 1.4 70.4001 1.5 70.4001C1.5 70.5001 1.6 70.5 1.6 70.6L1.7 70.7C1.7 70.8 1.8 70.8001 1.8 70.9001L1.9 71C2 71.1 2 71.2 2.1 71.2C2.1 71.2 2.1 71.2001 2.2 71.3001C2.3 71.4001 2.4 71.5 2.5 71.6L2.6 71.7C2.7 71.7 2.7 71.8001 2.8 71.8001L2.9 71.9001C3 71.9001 3 72 3.1 72L3.2 72.1C3.3 72.1 3.3 72.2 3.4 72.2L3.5 72.3001C3.6 72.3001 3.6 72.4001 3.7 72.4001L3.8 72.5C4 72.8 4.2 72.9 4.3 73H4.4C4.5 73.1 4.7 73.1 4.9 73.2H5C5.2 73.3 5.4 73.4001 5.5 73.4001H5.6C5.8 73.5001 5.9 73.5 6.1 73.6C6.1 73.6 6.1 73.6 6.2 73.6C6.5 73.9 6.8 74 7.1 74C7.4 74.1 7.7 74.1 8.1 74.2H8.2C8.4 74.2 8.5 74.3001 8.7 74.3001C8.8 74.3001 8.8 74.3001 8.9 74.3001C9 74.3001 9.2 74.3001 9.3 74.4001H9.4C9.7 74.4001 10.1 74.5 10.4 74.5C10.4 74.5 10.4 74.5 10.5 74.5C10.7 74.5 10.9 74.5 11 74.5C11.3 74.5 11.5 74.5 11.8 74.5C12 74.5 12.1 74.5 12.3 74.5C12.5 74.5 12.7 74.5 12.8 74.5C13 74.5 13.1 74.5001 13.3 74.4001C13.5 74.4001 13.6 74.4001 13.8 74.3001C14 74.3001 14.1 74.2 14.3 74.2C14.6 74.2 14.8 74.1 15.1 74C15.1 74 15.1 74 15.2 74C15.5 73.9 15.7 73.9001 15.9 73.8001C16 73.8001 16 73.8 16.1 73.7C16.4 73.6 16.6 73.5001 16.9 73.4001C17.1 73.3001 17.3 73.2 17.5 73.2C17.6 73.2 17.7 73.1 17.8 73.1C18.1 73 18.3 72.8 18.6 72.7L50.8 52.5C51.4 52.2 51.7 51.8 51.7 51.3V63.8C51.7 64.2 51.4 64.6 50.8 65L18.4 85.2C18.1 85.3 17.9 85.5 17.6 85.6C17.5 85.6 17.4 85.7 17.3 85.7C17.1 85.8 16.9 85.9001 16.7 85.9001C16.5 86 16.2 86.1 15.9 86.2C15.8 86.2 15.8 86.2001 15.7 86.3001C15.6 86.3001 15.5 86.4001 15.4 86.4001C15.2 86.4001 15.1 86.5 14.9 86.5C14.9 86.5 14.9 86.5 14.8 86.5C14.6 86.5 14.4 86.6 14.2 86.6C14.1 86.6 14.1 86.6 14 86.6C13.8 86.6 13.7 86.7 13.5 86.7C13.4 86.7 13.3 86.7001 13.2 86.8001C13.1 86.8001 13.1 86.8001 13 86.8001C12.8 86.8001 12.7 86.8001 12.5 86.9001C12.4 86.9001 12.3 86.9001 12.2 86.9001C12.1 86.9001 12.1 86.9001 12 86.9001C11.8 86.9001 11.7 86.9001 11.5 86.9001C11.4 86.9001 11.3 86.9001 11.2 86.9001C11 86.9001 10.9 86.9001 10.7 86.9001C10.5 86.9001 10.3 86.9001 10.2 86.9001C9.9 86.9001 9.5 86.9001 9.2 86.8001H9.1C9 86.8001 8.8 86.8 8.7 86.7C8.6 86.7 8.6 86.7 8.5 86.7C8.3 86.7 8.2 86.7 8 86.6H7.9C7.6 86.5 7.3 86.5 6.9 86.4001C6.6 86.3001 6.3 86.2 6 86.1C6 86.1 6 86.1 5.9 86.1C5.7 86 5.6 86 5.4 85.9001H5.3C5.3 86 5.1 85.9001 5 85.8001H4.9C4.7 85.7001 4.6 85.7 4.4 85.6H4.3C4.1 85.5 4 85.4001 3.8 85.3001C3.8 85.3001 3.7 85.3 3.7 85.2C3.6 85.2 3.6 85.1 3.5 85.1L3.4 85C3.3 85 3.3 84.9001 3.2 84.9001L3.1 84.8001C3 84.8001 3 84.7 2.9 84.7L2.8 84.6C2.7 84.6 2.7 84.5 2.6 84.5C2.6 84.5 2.5 84.5 2.5 84.4001C2.4 84.3001 2.3 84.2 2.2 84.1C2.2 84.1 2.2 84.1 2.1 84C2 83.9001 2 83.8001 1.9 83.8001C1.9 83.8001 1.9 83.8 1.9 83.7C1.9 83.6 1.8 83.6 1.8 83.5L1.7 83.4001C1.7 83.3001 1.6 83.3 1.6 83.2V83.1C1.6 83.1 1.6 83 1.5 83C1.5 83 1.5 82.9001 1.4 82.9001C1.4 82.9001 1.4 82.8001 1.3 82.8001V82.7V82.6C1.3 82.5 1.3 82.5001 1.3 82.4001V82.3001V82.2V82.1C1.3 82 1.3 82.0001 1.3 81.9001V81.8001V81.7V81.6L1 68.7Z" fill="#2F58FF"/>
<path d="M3.8 64.8C2 65.8 1 67.3 1 68.7C1 71.9 5.5 74.5 11 74.5C13.9 74.5 16.4 73.9 18.5 72.7L50.7 52.5C51.9 51.8 51.9 50.8 50.7 50.2L43.3 45.9C42.2 45.2 40.4 45.2 39.3 45.9L4.2 64.5C4 64.6 3.9 64.7 3.8 64.8Z" fill="#E8F4FA"/>
<path d="M50.7 50.2L43.3 45.9C42.2 45.2 40.4 45.2 39.3 45.9L4.2 64.5C4.1 64.6 3.9 64.6 3.8 64.7C2 65.8 1 67.3 1 68.7" stroke="#171A21" stroke-width="2" stroke-miterlimit="10" stroke-linecap="round" stroke-linejoin="round"/>
<path d="M53.8 119.5V119.4V119.3C53.8 119.3 53.8 119.3 53.8 119.2V119.1V119C53.8 119 53.8 119 53.8 118.9V118.8V118.7V118.6V118.5V118.4V118.3V118.2V118.1V118C53.8 118 53.8 118 53.8 117.9C53.8 117.9 53.8 117.8 53.7 117.8C53.7 117.8 53.7 117.7 53.6 117.7C53.6 117.7 53.6 117.7 53.6 117.6C53.6 117.5 53.5 117.4 53.5 117.3C53.5 117.3 53.5 117.3 53.5 117.2V117.1C53.4 117 53.4 116.9 53.3 116.8C53.3 116.8 53.3 116.7 53.2 116.7L53.1 116.6L53 116.5C53 116.5 53 116.5 52.9 116.4L52.8 116.3L52.7 116.2C52.7 116.2 52.7 116.2 52.6 116.1L52.5 116L52.4 115.9C52.4 115.9 52.3 115.9 52.3 115.8L45.3 110.6C45.1 110.5 44.9 110.3 44.7 110.1C44.5 109.9 44.4 109.7 44.2 109.5C44 109.3 43.9 109.1 43.8 108.8C43.7 108.6 43.6 108.3 43.5 108.1L40.4 99V98.9V98.8V98.7C40.4 98.7 40.4 98.6 40.3 98.6V98.5C40.3 98.5 40.3 98.4 40.2 98.4C40.2 98.4 40.2 98.3 40.1 98.3C40.1 98.3 40.1 98.2 40 98.2C40 98.1 39.9 98.1 39.9 98C39.9 98 39.9 98 39.9 97.9C39.9 97.8 39.8 97.8 39.8 97.7L39.7 97.6L39.6 97.5L39.5 97.4L39.4 97.3C39.4 97.3 39.4 97.3 39.3 97.2L39.2 97.1L39.1 97C39.1 97 39.1 97 39 96.9L38.9 96.8L38.8 96.7C38.8 96.7 38.7 96.7 38.7 96.6C38.7 96.6 38.6 96.6 38.6 96.5C38.6 96.5 38.5 96.5 38.5 96.4H38.4C38.4 96.4 38.3 96.4 38.3 96.3H38.2H38.1H38H37.9H37.8H37.7H37.6C37.6 96.3 37.6 96.3 37.5 96.3H37.4H37.3H37.2C37.1 96.3 37.1 96.3 37 96.3C36.9 96.3 36.9 96.4 36.8 96.4L28.1 101.5L24.4 100H24.3H24.2H24.1C24.1 100 24.1 100 24 100H23.9H23.8H23.7H23.6H23.5C23.5 100 23.5 100 23.4 100C23.4 100 23.4 100 23.3 100C23.2 100 23.2 100.1 23.1 100.1L12.5 106.3C12.6 106.3 12.7 106.2 12.8 106.2C12.9 106.2 13 106.2 13.1 106.2C13.2 106.2 13.3 106.2 13.5 106.2C13.6 106.2 13.8 106.3 13.9 106.3L20.9 109.2H21H21.1H21.2C21.2 109.2 21.2 109.2 21.3 109.2H21.4H21.5H21.6H21.7H21.8C21.8 109.2 21.8 109.2 21.9 109.2C21.9 109.2 21.9 109.2 22 109.2C22.1 109.2 22.1 109.1 22.2 109.1L29.7 104.7C29.8 104.8 29.8 105 29.9 105.1C30 105.3 30 105.4 30.1 105.6L33.2 114.7V114.8V114.9V115V115.1C33.2 115.1 33.2 115.2 33.3 115.2C33.3 115.2 33.3 115.3 33.4 115.3C33.4 115.3 33.4 115.3 33.4 115.4C33.4 115.4 33.4 115.4 33.4 115.5C33.4 115.6 33.5 115.6 33.5 115.7C33.6 115.8 33.6 115.9 33.7 116C33.7 116 33.7 116.1 33.8 116.1C33.8 116.1 33.8 116.2 33.9 116.2L34 116.3L34.1 116.4L34.2 116.5L34.3 116.6L34.4 116.7L34.5 116.8L34.6 116.9L34.7 117C34.7 117 34.8 117 34.8 117.1L41.8 122.3C41.9 122.4 42 122.5 42.2 122.6C42.3 122.7 42.4 122.8 42.5 122.9C42.6 123 42.7 123.1 42.8 123.2C42.9 123.3 43 123.4 43 123.6C43.1 123.7 43.1 123.8 43.2 124C43.3 124.1 43.3 124.3 43.4 124.4C43.5 124.5 43.5 124.7 43.6 124.8C43.6 124.9 43.7 125.1 43.7 125.2C43.7 125.3 43.8 125.5 43.8 125.6C43.8 125.7 43.8 125.9 43.8 126C43.8 126.1 43.8 126.2 43.8 126.4C43.8 126.5 43.8 126.6 43.8 126.7C43.8 126.8 43.7 126.9 43.7 127C43.7 127.1 43.6 127.1 43.6 127.2L38 130.5C37.9 130.5 37.9 130.6 37.8 130.7C37.8 130.7 37.8 130.7 37.7 130.8L37.6 130.9V131C37.6 131 37.6 131 37.6 131.1C37.6 131.1 37.6 131.2 37.5 131.2V131.3V131.4V131.5V131.6C37.5 131.6 37.5 131.6 37.5 131.7V131.8V131.9C37.5 131.9 37.5 131.9 37.5 132V132.1V132.2L38.7 140.9C38.7 141 38.7 141.1 38.7 141.3C38.7 141.4 38.7 141.5 38.7 141.6C38.7 141.7 38.7 141.8 38.7 141.9C38.7 142 38.7 142.1 38.6 142.1C38.6 142.2 38.5 142.2 38.5 142.3C38.5 142.3 38.5 142.3 38.5 142.4C38.5 142.4 38.5 142.5 38.4 142.5C38.4 142.6 38.3 142.6 38.3 142.7C38.3 142.7 38.3 142.7 38.2 142.8C38.1 142.9 38.1 142.9 38 143L48.6 136.8C48.7 136.8 48.7 136.7 48.8 136.6C48.8 136.6 48.8 136.6 48.9 136.5L49 136.4C49 136.4 49 136.4 49 136.3C49 136.3 49 136.3 49 136.2C49 136.2 49 136.1 49.1 136.1C49.1 136.1 49.1 136.1 49.1 136V135.9C49.1 135.9 49.1 135.9 49.1 135.8V135.7V135.6C49.1 135.6 49.1 135.6 49.1 135.5V135.4V135.3V135.2V135.1V135L47.9 126.3C47.9 126.2 47.9 126.1 47.9 126C47.9 125.9 47.9 125.8 47.9 125.7C47.9 125.6 47.9 125.5 47.9 125.4C47.9 125.3 47.9 125.2 48 125.2C48 125.1 48.1 125.1 48.1 125C48.1 125 48.1 125 48.1 124.9L53.7 121.7C53.8 121.7 53.9 121.6 53.9 121.5C53.9 121.5 53.9 121.4 54 121.4C54 121.4 54.1 121.3 54.1 121.2C54.1 121.1 54.2 121.1 54.2 121C54.2 121 54.2 121 54.2 120.9V120.8V120.7V120.6V120.5V120.4C53.8 119.6 53.8 119.6 53.8 119.5C53.8 119.6 53.8 119.6 53.8 119.5Z" fill="#2F58FF"/>
<path d="M26.9998 101.9C27.8998 102.4 28.6998 103.4 29.1998 104.7L32.2998 113.8C32.6998 114.8 33.2998 115.8 34.0998 116.4L41.0998 121.6C43.0998 123.1 43.8998 126.4 42.3998 127.1L37.2998 129.8C36.6998 130.1 36.4998 130.9 36.5998 131.9L37.7998 140.6C38.0998 142.6 36.7998 143.3 35.3998 142.5C34.9998 142.3 34.5998 142 34.2998 141.5L27.9998 134.1C27.5998 133.7 27.2998 133.3 26.8998 133.1C26.4998 132.9 26.0998 132.8 25.7998 132.8L19.4998 133C19.0998 133 18.6998 132.9 18.3998 132.7C16.9998 131.9 15.6998 129.7 15.9998 128.1L17.1998 120.8C17.2998 120 17.0998 118.9 16.4998 117.9L11.3998 109.3C9.99981 106.9 10.7998 104.5 12.7998 105.3L19.7998 108.2C20.5998 108.5 21.2998 108.3 21.5998 107.7L24.7998 102.2C25.2998 101.4 26.0998 101.4 26.9998 101.9Z" fill="white"/>
<path d="M37.7998 140.6C38.0998 142.6 36.7998 143.3 35.3998 142.5C34.9998 142.3 34.5998 142 34.2998 141.5L27.9998 134.1C27.5998 133.7 27.2998 133.3 26.8998 133.1C26.4998 132.9 26.0998 132.8 25.7998 132.8L19.4998 133C19.0998 133 18.6998 132.9 18.3998 132.7C16.9998 131.9 15.6998 129.7 15.9998 128.1L17.1998 120.8C17.2998 120 17.0998 118.9 16.4998 117.9L11.3998 109.3C9.99981 106.9 10.7998 104.5 12.7998 105.3" stroke="#171A21" stroke-width="2" stroke-miterlimit="10" stroke-linecap="round" stroke-linejoin="round"/>
</svg>
