<svg width="144" height="144" viewBox="0 0 144 144" fill="none" xmlns="http://www.w3.org/2000/svg">
<path d="M140.7 99.2001C140.7 99.3001 140.7 99.3001 140.7 99.3001V99.4001C140.7 99.4001 140.7 99.5001 140.6 99.5001L140.5 99.6001C140.5 99.7001 140.4 99.7001 140.4 99.8001L140.3 99.9001L124.4 112.2C124.3 112.3 124.3 112.3 124.2 112.3C124.2 112.3 124.2 112.3 124.1 112.3C124 112.3 124 112.4 123.9 112.4H123.8C123.7 112.4 123.7 112.5 123.6 112.5C123.6 112.5 123.6 112.5 123.5 112.5C123.4 112.5 123.2 112.6 123 112.6C123 112.6 123 112.6 122.9 112.6C122.8 112.6 122.7 112.6 122.6 112.6C122.5 112.6 122.4 112.6 122.3 112.6H122.2H122.1C122 112.6 122 112.6 121.9 112.6H121.8C121.7 112.6 121.6 112.6 121.5 112.6H121.4C121.3 112.6 121.3 112.6 121.2 112.6C121.1 112.6 121 112.6 120.9 112.5C120.8 112.5 120.7 112.4 120.6 112.4C120.6 112.4 120.6 112.4 120.5 112.4C120.4 112.4 120.3 112.3 120.2 112.2C120.1 112.1 120 112.1 119.9 112L113.4 107V97.2001C111.9 95.1001 109.7 93.2001 106.9 91.5001C106.6 91.3001 106.2 91.1001 105.8 90.9001C105.7 90.8001 105.6 90.8001 105.4 90.7001C105.2 90.6001 104.9 90.5001 104.7 90.3001C104.6 90.2001 104.4 90.2001 104.3 90.1001C104.1 90.0001 103.8 89.9001 103.6 89.8001C103.4 89.7001 103.3 89.7001 103.1 89.6001C103 89.5001 102.8 89.5001 102.7 89.4001C102.6 89.4001 102.5 89.3001 102.4 89.3001C102.3 89.3001 102.2 89.2001 102.1 89.2001C101.8 89.1001 101.5 89.0001 101.1 88.8001C101.1 88.8001 101 88.8001 101 88.7001C100.6 88.6001 100.2 88.5001 99.9002 88.3001C99.8002 88.3001 99.7002 88.2001 99.6002 88.2001C99.5002 88.2001 99.3002 88.1001 99.2002 88.1001C99.1002 88.1001 99.0002 88.0001 98.9002 88.0001C98.6002 87.9001 98.3002 87.8001 98.0002 87.8001C97.8002 87.8001 97.6002 87.7001 97.4002 87.7001C97.1002 87.6001 96.8002 87.6001 96.5002 87.5001C96.4002 87.5001 96.2002 87.4001 96.1002 87.4001C96.0002 87.4001 96.0002 87.4001 95.9002 87.4001C95.6002 87.3001 95.4002 87.3001 95.1002 87.2001C94.9002 87.2001 94.7002 87.1001 94.5002 87.1001C94.2002 87.1001 93.9002 87.0001 93.6002 87.0001C93.4002 87.0001 93.3002 86.9001 93.1002 86.9001H93.0002C92.7002 86.9001 92.5002 86.8001 92.2002 86.8001C92.0002 86.8001 91.8002 86.7001 91.6002 86.7001C91.3002 86.7001 91.1002 86.6001 90.8002 86.6001C90.6002 86.6001 90.4002 86.6001 90.2002 86.5001C90.2002 86.5001 90.2002 86.5001 90.1002 86.5001C89.8002 86.5001 89.6002 86.5001 89.3002 86.4001C89.1002 86.4001 88.9002 86.4001 88.7002 86.4001C88.4002 86.4001 88.1002 86.4001 87.8002 86.4001C87.6002 86.4001 87.5002 86.4001 87.3002 86.4001C86.8002 86.4001 86.3002 86.4001 85.8002 86.4001C85.7002 86.4001 85.6002 86.4001 85.5002 86.4001C85.1002 86.4001 84.8002 86.4001 84.4002 86.4001C84.4002 86.4001 84.4002 86.4001 84.3002 86.4001C84.2002 86.4001 84.1002 86.4001 84.0002 86.4001C83.6002 86.4001 83.2002 86.4001 82.9002 86.5001C82.7002 86.5001 82.5002 86.5001 82.3002 86.5001C82.0002 86.5001 81.7002 86.5001 81.3002 86.6001C81.2002 86.6001 81.1002 86.6001 81.1002 86.6001C80.9002 86.6001 80.6002 86.7001 80.4002 86.7001C80.3002 86.7001 80.3002 86.7001 80.2002 86.7001C79.8002 86.7001 79.4002 86.8001 79.0002 86.9001C78.9002 86.9001 78.8002 86.9001 78.7002 86.9001C78.4002 87.0001 78.0002 87.0001 77.7002 87.1001C77.6002 87.1001 77.6002 87.1001 77.5002 87.1001H77.4002C77.2002 87.1001 77.1002 87.2001 76.9002 87.2001C76.6002 87.3001 76.4002 87.3001 76.1002 87.4001C75.9002 87.4001 75.7002 87.5001 75.5002 87.5001C75.2002 87.6001 75.0002 87.6001 74.7002 87.7001C74.5002 87.7001 74.3002 87.8001 74.1002 87.9001C73.9002 88.0001 73.6002 88.0001 73.4002 88.1001C73.2002 88.2001 73.0002 88.2001 72.8002 88.3001C72.6002 88.4001 72.3002 88.4001 72.1002 88.5001C72.0002 88.5001 72.0002 88.5001 71.9002 88.6001C71.6002 88.7001 71.3002 88.8001 71.1002 88.9001C71.1002 88.9001 71.1002 88.9001 71.0002 88.9001C70.6002 89.0001 70.3002 89.2001 69.9002 89.3001C69.8002 89.3001 69.7002 89.4001 69.6002 89.4001C69.3002 89.5001 69.0002 89.6001 68.7002 89.8001C68.6002 89.8001 68.5002 89.9001 68.5002 89.9001C68.2002 90.1001 67.8002 90.2001 67.5002 90.4001C67.4002 90.4001 67.4002 90.5001 67.3002 90.5001C67.0002 90.6001 66.8002 90.8001 66.5002 90.9001C66.4002 90.9001 66.3002 91.0001 66.2002 91.0001C65.9002 91.2001 65.5002 91.4001 65.2002 91.6001C65.1002 91.7001 65.0002 91.7001 64.8002 91.8001H64.7002C64.6002 91.8001 64.5002 91.9001 64.4002 91.9001C64.3002 91.9001 64.2002 91.9001 64.1002 92.0001C64.0002 92.0001 63.9002 92.0001 63.8002 92.1001C63.8002 92.1001 63.8002 92.1001 63.7002 92.1001C63.5002 92.1001 63.4002 92.1001 63.2002 92.1001C63.2002 92.1001 63.2002 92.1001 63.1002 92.1001C63.0002 92.1001 62.8002 92.1001 62.7002 92.1001C62.7002 92.1001 62.7002 92.1001 62.6002 92.1001C62.5002 92.1001 62.3002 92.1001 62.2002 92.0001H62.1002C62.0002 92.0001 61.9002 91.9001 61.7002 91.9001C61.7002 91.9001 61.7002 91.9001 61.6002 91.9001C61.5002 91.8001 61.3002 91.8001 61.2002 91.7001C61.1002 91.6001 61.0002 91.6001 60.9002 91.5001L54.4002 86.5001C54.0002 86.2001 53.9002 85.9001 53.9002 85.6001V97.9001C53.9002 98.2001 54.1002 98.6001 54.4002 98.8001L60.9002 103.8C61.0002 103.9 61.1002 103.9 61.2002 104C61.3002 104.1 61.4002 104.1 61.6002 104.2C61.6002 104.2 61.6002 104.2 61.7002 104.2C61.8002 104.2 61.9002 104.3 61.9002 104.3H62.0002H62.1002C62.1002 104.3 62.1002 104.3 62.2002 104.3C62.3002 104.3 62.4002 104.3 62.5002 104.3H62.6002C62.6002 104.3 62.6002 104.3 62.7002 104.3H62.8002C62.9002 104.3 63.0002 104.3 63.1002 104.3H63.2002C63.2002 104.3 63.2002 104.3 63.3002 104.3H63.4002C63.5002 104.3 63.6002 104.3 63.7002 104.3C63.7002 104.3 63.7002 104.3 63.8002 104.3C63.9002 104.3 64.0002 104.3 64.0002 104.3H64.1002C64.2002 104.3 64.3002 104.3 64.4002 104.2H64.5002H64.6002H64.7002C64.8002 104.1 65.0002 104.1 65.1002 104C65.4002 103.8 65.7002 103.6 66.1002 103.4C66.2002 103.3 66.3002 103.3 66.4002 103.3C66.7002 103.2 66.9002 103 67.2002 102.9C67.3002 102.9 67.3002 102.8 67.4002 102.8C67.7002 102.6 68.1002 102.5 68.4002 102.3C68.5002 102.3 68.6002 102.2 68.6002 102.2C68.9002 102.1 69.2002 102 69.5002 101.8C69.6002 101.8 69.7002 101.7 69.8002 101.7C70.2002 101.6 70.5002 101.4 70.9002 101.3C70.9002 101.3 70.9002 101.3 71.0002 101.3C71.3002 101.2 71.7002 101.1 72.0002 101C72.2002 100.9 72.5002 100.9 72.7002 100.8C72.9002 100.7 73.1002 100.7 73.3002 100.6C73.5002 100.5 73.8002 100.5 74.0002 100.4C74.2002 100.3 74.4002 100.3 74.6002 100.2C74.9002 100.1 75.1002 100.1 75.4002 100C75.6002 100 75.8002 99.9001 76.0002 99.9001C76.3002 99.8001 76.5002 99.8001 76.8002 99.7001C77.0002 99.7001 77.2002 99.6001 77.4002 99.6001C77.5002 99.6001 77.5002 99.6001 77.6002 99.6001C77.9002 99.5001 78.3002 99.5001 78.6002 99.4001C78.7002 99.4001 78.8002 99.4001 78.9002 99.4001C79.3002 99.3001 79.7002 99.3001 80.1002 99.2001C80.2002 99.2001 80.2002 99.2001 80.3002 99.2001C80.6002 99.2001 80.9002 99.1001 81.3002 99.1001C81.6002 99.1001 81.9002 99.0001 82.3002 99.0001C82.5002 99.0001 82.7002 99.0001 82.9002 99.0001C83.3002 99.0001 83.7002 99.0001 84.0002 98.9001C84.1002 98.9001 84.3002 98.9001 84.4002 98.9001C84.8002 98.9001 85.1002 98.9001 85.5002 98.9001C85.6002 98.9001 85.7002 98.9001 85.8002 98.9001C86.3002 98.9001 86.8002 98.9001 87.3002 98.9001C87.5002 98.9001 87.7002 98.9001 87.8002 98.9001C88.1002 98.9001 88.4002 98.9001 88.7002 98.9001C88.9002 98.9001 89.1002 98.9001 89.3002 98.9001C89.6002 98.9001 89.9002 98.9001 90.1002 99.0001C90.3002 99.0001 90.5002 99.0001 90.7002 99.1001C91.0002 99.1001 91.2002 99.1001 91.5002 99.2001C91.7002 99.2001 91.9002 99.3001 92.1002 99.3001C92.4002 99.3001 92.6002 99.4001 92.9002 99.4001C93.1002 99.4001 93.3002 99.5001 93.5002 99.5001C93.8002 99.5001 94.1002 99.6001 94.4002 99.6001C94.6002 99.6001 94.8002 99.7001 95.0002 99.7001C95.3002 99.7001 95.5002 99.8001 95.8002 99.9001C96.0002 99.9001 96.2002 100 96.3002 100C96.6002 100.1 96.9002 100.1 97.2002 100.2C97.4002 100.2 97.6002 100.3 97.8002 100.3C98.1002 100.4 98.4002 100.5 98.7002 100.5C98.9002 100.6 99.2002 100.6 99.4002 100.7C99.5002 100.7 99.6002 100.8 99.7002 100.8C100.1 100.9 100.5 101 100.8 101.2C100.8 101.2 100.9 101.2 100.9 101.3C101.2 101.4 101.6 101.5 101.9 101.7C102 101.7 102.1 101.8 102.2 101.8C102.4 101.9 102.7 102 102.9 102.1C103 102.1 103 102.1 103.1 102.2V111.2C103.1 111.5 103.3 111.8 103.6 112.1L117.6 122.9C117.6 122.9 117.5 122.9 117.5 123C117.5 123 117.4 123 117.4 123.1L117.3 123.2C116.8 123.5 116.3 123.7 115.8 124C115.7 124.1 115.6 124.1 115.5 124.2C115 124.4 114.5 124.7 114 124.9C113.9 124.9 113.8 125 113.8 125C113.3 125.2 112.8 125.4 112.4 125.6C112.3 125.6 112.2 125.7 112.1 125.7C111.6 125.9 111 126.1 110.5 126.3C110.4 126.3 110.3 126.4 110.2 126.4C109.7 126.6 109.2 126.8 108.7 126.9C108.6 126.9 108.6 126.9 108.5 127C108.3 127.1 108 127.1 107.8 127.2C107.4 127.3 106.9 127.5 106.5 127.6C106.2 127.7 105.9 127.8 105.7 127.8C105.3 127.9 104.9 128 104.5 128.1C104.2 128.2 103.9 128.2 103.6 128.3C103.2 128.4 102.8 128.5 102.4 128.6C102.1 128.7 101.8 128.7 101.5 128.8C101.1 128.9 100.7 129 100.3 129C99.7002 129.1 99.2002 129.2 98.6002 129.3C98.6002 129.3 98.6002 129.3 98.5002 129.3C97.9002 129.4 97.3002 129.5 96.7002 129.6C96.5002 129.6 96.4002 129.6 96.2002 129.7C95.7002 129.8 95.1002 129.8 94.6002 129.9C94.5002 129.9 94.4002 129.9 94.3002 129.9C93.7002 130 93.1002 130 92.5002 130.1C92.4002 130.1 92.3002 130.1 92.1002 130.1C91.5002 130.1 90.9002 130.2 90.3002 130.2C90.2002 130.2 90.1002 130.2 90.0002 130.2C89.6002 130.2 89.1002 130.2 88.7002 130.2C88.3002 130.2 87.9002 130.2 87.5002 130.2C87.2002 130.2 86.8002 130.2 86.5002 130.2C86.1002 130.2 85.7002 130.2 85.3002 130.2C85.0002 130.2 84.6002 130.2 84.3002 130.2C83.9002 130.2 83.5002 130.2 83.1002 130.2C82.8002 130.2 82.4002 130.2 82.1002 130.1C81.7002 130.1 81.3002 130 80.9002 130C80.6002 130 80.2002 130 79.9002 129.9C79.5002 129.9 79.1002 129.8 78.8002 129.8C78.5002 129.8 78.1002 129.7 77.8002 129.7C77.4002 129.7 77.0002 129.6 76.7002 129.6C76.4002 129.6 76.1002 129.5 75.7002 129.5C75.3002 129.4 74.8002 129.4 74.4002 129.3C74.1002 129.3 73.8002 129.2 73.6002 129.2C73.1002 129.1 72.6002 129 72.2002 128.9C72.0002 128.9 71.7002 128.8 71.5002 128.8C71.4002 128.8 71.4002 128.8 71.3002 128.8C70.7002 128.7 70.2002 128.6 69.6002 128.4C69.5002 128.4 69.4002 128.4 69.4002 128.3C68.8002 128.2 68.2002 128 67.7002 127.9C67.6002 127.9 67.5002 127.8 67.4002 127.8C66.8002 127.6 66.3002 127.5 65.7002 127.3H65.6002C65.0002 127.1 64.5002 126.9 63.9002 126.7C63.7002 126.6 63.6002 126.6 63.4002 126.5C63.0002 126.3 62.5002 126.2 62.1002 126C62.0002 125.9 61.8002 125.9 61.7002 125.8C61.3002 125.7 61.0002 125.5 60.6002 125.4C60.3002 125.3 60.1002 125.2 59.8002 125.1C59.4002 124.9 59.1002 124.8 58.8002 124.6C58.6002 124.5 58.3002 124.4 58.1002 124.3C57.7002 124.1 57.3002 123.9 57.0002 123.7C56.8002 123.6 56.6002 123.5 56.4002 123.4C55.8002 123.1 55.3002 122.8 54.8002 122.5C48.9002 119.1 44.8002 114.9 42.8002 110.3H34.9002C34.7002 110.3 34.6002 110.3 34.4002 110.3C34.4002 110.3 34.4002 110.3 34.3002 110.3C34.1002 110.3 34.0002 110.3 33.9002 110.2H33.8002C33.7002 110.2 33.5002 110.1 33.4002 110.1C33.3002 110 33.1002 110 33.0002 109.9C32.5002 109.6 32.2002 109.2 32.2002 108.8V121.1C32.2002 121.5 32.5002 121.9 33.0002 122.2C33.1002 122.3 33.2002 122.3 33.4002 122.4C33.5002 122.4 33.6002 122.5 33.7002 122.5H33.8002H33.9002H34.0002C34.1002 122.5 34.2002 122.5 34.3002 122.5C34.3002 122.5 34.3002 122.5 34.4002 122.5C34.4002 122.5 34.4002 122.5 34.5002 122.5H34.6002C34.7002 122.5 34.8002 122.5 34.9002 122.5H35.0002H42.9002C44.9002 127.1 49.0002 131.3 54.9002 134.7C55.4002 135 56.0002 135.3 56.5002 135.6C56.7002 135.7 56.9002 135.8 57.1002 135.9C57.5002 136.1 57.8002 136.3 58.2002 136.5C58.4002 136.6 58.7002 136.7 58.9002 136.8C59.2002 137 59.6002 137.1 59.9002 137.3C60.2002 137.4 60.4002 137.5 60.7002 137.6C61.0002 137.7 61.2002 137.8 61.5002 137.9C61.6002 137.9 61.6002 138 61.7002 138C61.8002 138.1 62.0002 138.1 62.1002 138.2C62.5002 138.4 63.0002 138.5 63.4002 138.7C63.6002 138.8 63.7002 138.8 63.9002 138.9C64.5002 139.1 65.0002 139.3 65.6002 139.5H65.7002C66.1002 139.6 66.6002 139.8 67.0002 139.9C67.1002 139.9 67.3002 140 67.4002 140C67.5002 140 67.6002 140.1 67.7002 140.1C68.3002 140.3 68.9002 140.4 69.4002 140.5C69.5002 140.5 69.6002 140.5 69.6002 140.6C70.2002 140.7 70.7002 140.9 71.3002 141C71.4002 141 71.4002 141 71.5002 141H71.6002C71.8002 141 72.0002 141.1 72.2002 141.1C72.7002 141.2 73.2002 141.3 73.6002 141.4C73.9002 141.4 74.2002 141.5 74.5002 141.5C74.9002 141.6 75.4002 141.6 75.8002 141.7C75.9002 141.7 76.0002 141.7 76.0002 141.7C76.2002 141.7 76.5002 141.8 76.7002 141.8C77.1002 141.9 77.5002 141.9 77.8002 141.9C78.1002 141.9 78.5002 142 78.8002 142C79.2002 142 79.6002 142.1 79.9002 142.1C80.0002 142.1 80.1002 142.1 80.2002 142.1C80.4002 142.1 80.6002 142.1 80.9002 142.1C81.3002 142.1 81.7002 142.2 82.1002 142.2C82.4002 142.2 82.8002 142.2 83.1002 142.3C83.5002 142.3 83.9002 142.3 84.3002 142.3C84.4002 142.3 84.6002 142.3 84.7002 142.3C84.9002 142.3 85.1002 142.3 85.3002 142.3C85.7002 142.3 86.1002 142.3 86.5002 142.3C86.8002 142.3 87.2002 142.3 87.5002 142.3C87.9002 142.3 88.3002 142.3 88.7002 142.3C88.9002 142.3 89.1002 142.3 89.3002 142.3C89.5002 142.3 89.8002 142.3 90.0002 142.3C90.1002 142.3 90.2002 142.3 90.3002 142.3C90.9002 142.3 91.5002 142.2 92.1002 142.2C92.2002 142.2 92.3002 142.2 92.5002 142.2C93.1002 142.2 93.7002 142.1 94.2002 142H94.3002C94.4002 142 94.5002 142 94.6002 142C95.1002 141.9 95.7002 141.9 96.2002 141.8C96.4002 141.8 96.5002 141.8 96.7002 141.7C97.3002 141.6 97.9002 141.5 98.5002 141.4C98.5002 141.4 98.5002 141.4 98.6002 141.4C99.0002 141.3 99.5002 141.3 99.9002 141.2C100 141.2 100.1 141.2 100.2 141.1C100.6 141 101 140.9 101.4 140.9C101.7 140.8 102 140.8 102.3 140.7C102.7 140.6 103.1 140.5 103.5 140.4C103.8 140.3 104.1 140.3 104.4 140.2C104.8 140.1 105.2 140 105.6 139.9C105.9 139.8 106.2 139.8 106.4 139.7C106.8 139.6 107.3 139.4 107.7 139.3C107.9 139.2 108.1 139.2 108.3 139.1H108.4C108.5 139.1 108.5 139.1 108.6 139C109.1 138.8 109.6 138.7 110.1 138.5C110.2 138.5 110.3 138.4 110.4 138.4C110.9 138.2 111.5 138 112 137.8C112.1 137.8 112.2 137.7 112.3 137.7C112.8 137.5 113.3 137.3 113.7 137.1C113.8 137.1 113.9 137 113.9 137C114.4 136.8 114.9 136.5 115.4 136.3C115.5 136.2 115.6 136.2 115.7 136.1C116.2 135.8 116.7 135.6 117.2 135.3C117.2 135.3 117.3 135.3 117.3 135.2C117.3 135.2 117.3 135.2 117.4 135.2C117.4 135.2 117.5 135.2 117.5 135.1C117.5 135.1 117.6 135.1 117.6 135C117.6 135 117.7 135 117.7 134.9L117.8 134.8C117.8 134.8 117.8 134.7 117.9 134.7V134.6C117.9 134.6 117.9 134.6 117.9 134.5C117.9 134.5 117.9 134.5 117.9 134.4C117.9 134.4 117.9 134.4 117.9 134.3V134.2C117.9 134.2 117.9 134.2 117.9 134.1V123.1L119.5 124.3C119.6 124.4 119.7 124.4 119.8 124.5C119.9 124.6 120 124.6 120.1 124.7C120.2 124.7 120.3 124.8 120.4 124.8C120.5 124.8 120.6 124.8 120.7 124.9C120.8 124.9 120.8 124.9 120.9 124.9H121C121.1 124.9 121.2 124.9 121.3 124.9C121.3 124.9 121.3 124.9 121.4 124.9C121.5 124.9 121.5 124.9 121.6 124.9H121.7H121.8C121.9 124.9 122 124.9 122.1 124.9C122.2 124.9 122.3 124.9 122.4 124.9C122.6 124.9 122.7 124.8 122.9 124.8C122.9 124.8 122.9 124.8 123 124.8C123.1 124.8 123.1 124.7 123.2 124.7H123.3C123.4 124.7 123.4 124.6 123.5 124.6C123.6 124.6 123.6 124.5 123.7 124.5L139.6 112.2L139.7 112.1C139.8 112 139.8 112 139.8 111.9L139.9 111.8C139.9 111.8 139.9 111.7 140 111.7V111.6V111.5L140.7 99.2001Z" fill="#2F58FF"/>
<path d="M66.7003 123C66.8003 123 66.8003 123 66.9003 123H67.0003C67.1003 123 67.2003 123 67.3003 123C67.5003 123 67.6003 122.9 67.8003 122.9C67.9003 122.9 68.0003 122.8 68.1003 122.8C68.1003 122.8 68.1003 122.8 68.2003 122.8C68.3003 122.8 68.4003 122.7 68.4003 122.7C68.5003 122.7 68.5003 122.6 68.6003 122.6L68.7003 122.5L68.8003 122.4C68.8003 122.4 68.8003 122.3 68.9003 122.3V122.2V122.1C68.9003 122.1 68.9003 122.1 68.9003 122V121.9C68.9003 121.9 68.9003 121.9 68.9003 121.8V109.5V109.6V109.7C68.9003 109.7 68.9003 109.7 68.9003 109.8V109.9C68.9003 109.9 68.9003 109.9 68.9003 110V110.1C68.9003 110.1 68.9003 110.1 68.9003 110.2C68.9003 110.2 68.9003 110.3 68.8003 110.3C68.8003 110.3 68.8003 110.3 68.8003 110.4L68.7003 110.5L68.6003 110.6C68.5003 110.6 68.5003 110.7 68.4003 110.7C68.3003 110.7 68.3003 110.8 68.2003 110.8C68.2003 110.8 68.2003 110.8 68.1003 110.8C68.0003 110.8 67.9003 110.9 67.8003 110.9C67.6003 111 67.5003 111 67.3003 111C67.2003 111 67.1003 111 67.0003 111H66.9003C66.8003 111 66.8003 111 66.7003 111C66.6003 111 66.6003 111 66.5003 111H59.3003V123.3H66.5003C66.5003 123 66.6003 123 66.7003 123Z" fill="#2F58FF"/>
<path d="M61.5003 92.2C61.4003 92.1 61.3003 92.1 61.2003 92L54.7003 87C53.9003 86.4 54.0003 85.5 55.0003 85C72.9003 75.1 100.7 75.3 118.3 85.5C124.1 88.9 128.3 93.1 130.3 97.7H138.1C138.9 97.7 139.5 97.9 140 98.1C140.9 98.6 141.1 99.5 140.3 100.1L124.4 112.4C123.4 113.2 121.5 113.2 120.4 112.6C120.3 112.5 120.2 112.5 120.1 112.4L104 100.1C102.7 99.1 103.9 97.6 106.1 97.6H113.6C112.1 95.5 109.9 93.6 107.1 91.9C95.5003 85.2 76.7003 85.3 65.4003 92.1C64.2003 92.8 62.5003 92.8 61.5003 92.2Z" fill="white"/>
<path d="M117.9 121.4C118.7 122 118.6 122.9 117.6 123.5C99.7001 133.3 72.0001 133 54.5001 122.9C48.6001 119.5 44.5001 115.3 42.5001 110.7H34.6001C33.8001 110.7 33.2001 110.5 32.7001 110.3C31.8001 109.8 31.6001 108.9 32.4001 108.3L48.3001 96C49.3001 95.2 51.2001 95.2 52.3001 95.8C52.4001 95.9 52.5001 95.9 52.6001 96L68.7001 108.4C70.0001 109.4 68.8001 110.9 66.6001 110.9H59.4001C60.9001 113 63.1001 114.9 65.9001 116.5C77.4001 123.1 96.0001 123.1 107.4 116.5C108.6 115.8 110.5 115.9 111.4 116.5C111.5 116.5 111.5 116.6 111.6 116.6L117.9 121.4Z" fill="white"/>
<path d="M54.7999 87C53.9999 86.4 54.0999 85.5 55.0999 85C72.9999 75.1 100.8 75.3 118.4 85.5C124.2 88.9 128.4 93.1 130.4 97.7H138.2C139 97.7 139.6 97.9 140.1 98.1C141 98.6 141.2 99.5 140.4 100.1" stroke="#171A21" stroke-width="2" stroke-miterlimit="10" stroke-linecap="round" stroke-linejoin="round"/>
<path d="M32.7001 110.2C31.8001 109.7 31.6001 108.8 32.4001 108.2L48.3001 95.8999C49.3001 95.0999 51.2001 95.0999 52.3001 95.6999C52.4001 95.7999 52.5001 95.7999 52.6001 95.8999L68.7001 108.3C70.0001 109.3 68.8001 110.8 66.6001 110.8H59.4001C60.9001 112.9 63.1001 114.8 65.9001 116.4C77.4001 123 96.0001 123 107.4 116.4C108.6 115.7 110.5 115.8 111.4 116.4C111.5 116.4 111.5 116.5 111.6 116.5" stroke="#171A21" stroke-width="2" stroke-miterlimit="10" stroke-linecap="round" stroke-linejoin="round"/>
<path d="M57.1 24.3001C57.1 24.4001 57.1 24.6001 57.1 24.7001C57.1 24.8001 57.1 24.9001 57.1 25.1001C57.1 25.2001 57.1 25.4001 57.2 25.5001C57.2 25.6001 57.2 25.7001 57.3 25.9001C57.3 26.0001 57.4 26.2001 57.4 26.3001C57.4 26.4001 57.5 26.5001 57.5 26.7001C57.5 26.8001 57.6 27.0001 57.6 27.1001C57.6 27.2001 57.7 27.3001 57.7 27.5001C57.8 27.6001 57.8 27.8001 57.9 27.9001C58 28.0001 58 28.1001 58.1 28.2001C58.2 28.3001 58.2 28.5001 58.3 28.6001C58.4 28.7001 58.4 28.8001 58.5 28.9001C58.6 29.1001 58.7 29.2001 58.8 29.4001C58.9 29.5001 58.9 29.6001 59 29.7001C59.1 29.9001 59.3 30.1001 59.4 30.2001C59.5 30.3001 59.5 30.4001 59.6 30.4001L59.7 30.5001C59.8 30.7001 60 30.8001 60.1 31.0001L60.2 31.1001C60.4 31.3001 60.6 31.5001 60.8 31.7001L60.9 31.8001C61.1 31.9001 61.2 32.1001 61.4 32.2001C61.5 32.3001 61.7 32.4001 61.8 32.5001C61.9 32.6001 62 32.7001 62.2 32.8001C62.3 32.9001 62.5 33.0001 62.6 33.1001C62.7 33.2001 62.9 33.3001 63 33.4001C63.2 33.5001 63.3 33.6001 63.5 33.7001C63.6 33.8001 63.8 33.9001 63.9 34.0001C64.1 34.1001 64.2 34.2001 64.4 34.3001C64.6 34.4001 64.8 34.6001 65 34.7001C65.4 34.9001 65.8 35.2001 66.3 35.4001C66.4 35.5001 66.5 35.5001 66.7 35.6001C67 35.8001 67.4 35.9001 67.7 36.1001C67.8 36.2001 67.9 36.2001 68 36.3001C68.4 36.5001 68.9 36.7001 69.4 36.9001C69.5 36.9001 69.6 37.0001 69.6 37.0001C70 37.1001 70.4 37.3001 70.8 37.4001C71 37.5001 71.1 37.5001 71.3 37.6001C71.5 37.7001 71.7 37.7001 72 37.8001C72.2 37.9001 72.4 37.9001 72.6 38.0001C72.8 38.1001 73.1 38.1001 73.3 38.2001C73.5 38.2001 73.7 38.3001 73.9 38.3001C74.1 38.4001 74.4 38.4001 74.6 38.5001C74.8 38.5001 75 38.6001 75.2 38.6001C75.4 38.6001 75.7 38.7001 75.9 38.7001C76.1 38.7001 76.3 38.8001 76.5 38.8001C77 38.9001 77.5 39.0001 78 39.0001C78.1 39.0001 78.1 39.0001 78.2 39.0001C78.7 39.1001 79.1 39.1001 79.6 39.2001C79.8 39.2001 79.9 39.2001 80.1 39.3001C80.4 39.3001 80.7 39.4001 81 39.4001C81.2 39.4001 81.4 39.4001 81.6 39.4001C81.9 39.4001 82.2 39.4001 82.5 39.4001C82.7 39.4001 82.8 39.4001 83 39.4001C83.3 39.4001 83.5 39.4001 83.8 39.4001C84 39.4001 84.2 39.4001 84.4 39.4001C84.7 39.4001 85 39.4001 85.3 39.4001C85.5 39.4001 85.6 39.4001 85.8 39.4001C86.1 39.4001 86.3 39.4001 86.6 39.4001C86.8 39.4001 87 39.4001 87.2 39.4001C87.5 39.4001 87.8 39.4001 88 39.3001C88.2 39.3001 88.3 39.3001 88.5 39.3001C88.8 39.3001 89.2 39.2001 89.5 39.2001C89.6 39.2001 89.7 39.2001 89.8 39.2001C90.2 39.2001 90.7 39.1001 91.1 39.0001C91.2 39.0001 91.2 39.0001 91.3 39.0001C91.7 38.9001 92 38.9001 92.4 38.8001C92.6 38.8001 92.7 38.7001 92.9 38.7001C93.2 38.6001 93.5 38.6001 93.7 38.5001C93.8 38.5001 94 38.4001 94.1 38.4001C94.4 38.3001 94.7 38.3001 95 38.2001C95.2 38.2001 95.3 38.1001 95.5 38.1001C95.8 38.0001 96.1 38.0001 96.3 37.9001C96.5 37.9001 96.6 37.8001 96.8 37.8001C97.2 37.7001 97.7 37.5001 98.1 37.4001C98.2 37.4001 98.3 37.4001 98.3 37.3001C98.8 37.1001 99.3 37.0001 99.7 36.8001C99.9 36.7001 100.1 36.6001 100.3 36.6001C100.5 36.5001 100.6 36.5001 100.8 36.4001C101 36.3001 101.2 36.2001 101.4 36.1001C101.5 36.0001 101.7 36.0001 101.8 35.9001C102 35.8001 102.3 35.7001 102.5 35.6001C102.6 35.5001 102.7 35.5001 102.8 35.4001C103.1 35.2001 103.5 35.0001 103.8 34.9001C109.2 31.8001 111.9 27.7001 111.9 23.6001L112.1 67.5001C112.1 71.6001 109.4 75.7001 104 78.8001C103.7 79.0001 103.3 79.2001 103 79.3001C102.9 79.4001 102.8 79.4001 102.7 79.5001C102.5 79.6001 102.2 79.7001 102 79.8001C101.9 79.9001 101.7 79.9001 101.6 80.0001C101.4 80.1001 101.2 80.2001 101 80.3001C100.8 80.4001 100.7 80.4001 100.5 80.5001C100.4 80.6001 100.2 80.6001 100.1 80.7001C100.1 80.7001 100 80.7001 100 80.8001C99.5 81.0001 99 81.2001 98.6 81.3001C98.5 81.3001 98.4 81.3001 98.4 81.4001C98 81.5001 97.5 81.7001 97.1 81.8001C97 81.8001 97 81.8001 96.9 81.9001C96.8 81.9001 96.7 81.9001 96.6 82.0001C96 82.0001 95.8 82.0001 95.5 82.1001C95.3 82.1001 95.2 82.2001 95 82.2001C94.7 82.3001 94.4 82.3001 94.1 82.4001C94 82.4001 93.9 82.5001 93.8 82.5001H93.7C93.4 82.6001 93.1 82.6001 92.9 82.7001C92.7 82.7001 92.6 82.8001 92.4 82.8001C92 82.9001 91.7 82.9001 91.3 83.0001C91.2 83.0001 91.2 83.0001 91.1 83.0001C90.7 83.1001 90.2 83.1001 89.8 83.2001C89.7 83.2001 89.6 83.2001 89.5 83.2001C89.2 83.2001 88.8 83.3001 88.5 83.3001C88.4 83.3001 88.2 83.3001 88.1 83.3001C87.8 83.3001 87.5 83.3001 87.2 83.4001C87 83.4001 86.8 83.4001 86.7 83.4001C86.4 83.4001 86.2 83.4001 85.9 83.4001C85.9 83.4001 85.9 83.4001 85.8 83.4001C85.7 83.4001 85.5 83.4001 85.4 83.4001C85.1 83.4001 84.8 83.4001 84.5 83.4001C84.3 83.4001 84.1 83.4001 83.9 83.4001C83.6 83.4001 83.4 83.4001 83.1 83.4001H83C82.9 83.4001 82.8 83.4001 82.6 83.4001C82.3 83.4001 82 83.4001 81.7 83.4001C81.5 83.4001 81.3 83.4001 81.1 83.4001C80.8 83.4001 80.5 83.4001 80.2 83.3001C80.1 83.3001 80 83.3001 79.9 83.3001C79.8 83.3001 79.8 83.3001 79.7 83.3001C79.2 83.3001 78.8 83.2001 78.3 83.1001C78.2 83.1001 78.2 83.1001 78.1 83.1001C77.6 83.0001 77.1 82.9001 76.6 82.9001H76.5C76.4 82.9001 76.2 82.8001 76.1 82.8001C75.9 82.8001 75.6 82.7001 75.4 82.7001C75.2 82.7001 75 82.6001 74.8 82.6001C74.6 82.5001 74.3 82.5001 74.1 82.4001C73.9 82.4001 73.7 82.3001 73.5 82.3001C73.3 82.2001 73 82.2001 72.8 82.1001C72.6 82.0001 72.4 82.0001 72.2 81.9001C72 81.8001 71.8 81.8001 71.5 81.7001C71.4 81.7001 71.3 81.6001 71.2 81.6001C71.1 81.6001 71.1 81.6001 71 81.5001C70.6 81.4001 70.2 81.2001 69.8 81.1001C69.7 81.1001 69.6 81.0001 69.6 81.0001C69.1 80.8001 68.7 80.6001 68.2 80.4001C68.1 80.3001 68 80.3001 67.9 80.2001C67.6 80.0001 67.2 79.9001 66.9 79.7001C66.8 79.6001 66.7 79.6001 66.5 79.5001C66.1 79.3001 65.7 79.1001 65.2 78.8001C65.1 78.7001 65 78.7001 64.9 78.6001C64.8 78.5001 64.7 78.5001 64.6 78.4001C64.4 78.3001 64.3 78.2001 64.1 78.1001C64 78.0001 63.8 77.9001 63.7 77.8001C63.5 77.7001 63.4 77.6001 63.2 77.5001C63.1 77.4001 62.9 77.3001 62.8 77.2001C62.7 77.1001 62.5 77.0001 62.4 76.9001C62.3 76.8001 62.1 76.7001 62 76.6001C61.9 76.5001 61.7 76.4001 61.6 76.3001C61.5 76.3001 61.5 76.2001 61.4 76.2001C61.3 76.1001 61.2 76.0001 61.1 75.9001L61 75.8001C60.8 75.6001 60.6 75.4001 60.4 75.2001L60.3 75.1001C60.1 74.9001 60 74.8001 59.9 74.6001L59.8 74.5001C59.8 74.5001 59.8 74.5001 59.8 74.4001C59.7 74.3001 59.7 74.3001 59.7 74.2001C59.6 74.0001 59.4 73.8001 59.3 73.7001C59.2 73.6001 59.2 73.5001 59.1 73.4001C59 73.2001 58.9 73.1001 58.8 72.9001L58.7 72.8001C58.7 72.7001 58.6 72.7001 58.6 72.6001C58.5 72.5001 58.5 72.3001 58.4 72.2001C58.3 72.1001 58.3 72.0001 58.2 71.9001C58.1 71.8001 58.1 71.6001 58 71.5001C58 71.4001 57.9 71.4001 57.9 71.3001C57.9 71.2001 57.9 71.2001 57.8 71.1001C57.8 71.0001 57.7 70.8001 57.7 70.7001C57.7 70.6001 57.6 70.5001 57.6 70.3001C57.6 70.2001 57.5 70.0001 57.5 69.9001C57.5 69.8001 57.5 69.8001 57.4 69.7001V69.6001C57.4 69.5001 57.4 69.3001 57.3 69.2001C57.3 69.1001 57.3 69.0001 57.3 68.8001C57.3 68.7001 57.3 68.5001 57.3 68.4001C57.3 68.3001 57.3 68.2001 57.3 68.2001C57.3 68.1001 57.3 68.0001 57.3 68.0001L57 23.8001C57 23.9001 57 24.1001 57.1 24.3001Z" fill="#2F58FF"/>
<path d="M65.1001 12.5001C54.4001 18.7001 54.3001 28.7001 65.0001 34.9001C75.7001 41.1001 92.9001 41.1001 103.7 34.9001C114.4 28.7001 114.5 18.7001 103.8 12.5001C93.1001 6.3001 75.8001 6.3001 65.1001 12.5001Z" fill="white"/>
<path d="M110.7 27.8001C113.2 22.5001 110.9 16.6001 103.7 12.5001C93.0998 6.3001 75.7998 6.3001 64.9998 12.5001C57.3998 16.9001 55.0998 23.3001 58.3998 28.8001" stroke="#171A21" stroke-width="2" stroke-miterlimit="10" stroke-linecap="round" stroke-linejoin="round"/>
<path d="M76 7.3999V7.4999V7.5999V7.6999V7.7999V7.8999V7.9999V8.0999V8.1999C76 8.1999 76 8.2999 76.1 8.2999V8.3999C76.1 8.3999 76.1 8.4999 76.2 8.4999C76.2 8.4999 76.2 8.5999 76.3 8.5999L76.4 8.6999C76.4 8.6999 76.4 8.7999 76.5 8.7999C76.5 8.8999 76.6 8.8999 76.6 8.9999C76.6 8.9999 76.6 9.0999 76.7 9.0999C76.7 9.1999 76.8 9.1999 76.8 9.2999C76.9 9.3999 76.9 9.3999 77 9.4999L77.1 9.5999L77.2 9.6999L77.3 9.7999L77.4 9.8999L77.5 9.9999L77.6 10.0999L77.7 10.1999C77.7 10.1999 77.8 10.2999 77.9 10.2999C78 10.2999 78 10.3999 78.1 10.3999C78.2 10.4999 78.4 10.4999 78.5 10.5999C78.5 10.5999 78.6 10.5999 78.6 10.6999C78.7 10.7999 78.8 10.7999 78.9 10.7999H79C79.1 10.8999 79.3 10.8999 79.4 10.9999H79.5C79.6 10.9999 79.7 11.0999 79.9 11.0999C80 11.0999 80 11.0999 80.1 11.0999C80.2 11.0999 80.2 11.0999 80.3 11.1999C80.4 11.1999 80.4 11.1999 80.5 11.1999C80.6 11.1999 80.6 11.1999 80.7 11.2999C80.8 11.2999 80.8 11.2999 80.9 11.2999C81 11.2999 81 11.2999 81.1 11.2999C81.2 11.2999 81.2 11.2999 81.3 11.2999C81.4 11.2999 81.4 11.2999 81.5 11.2999C81.6 11.2999 81.6 11.2999 81.7 11.2999C81.9 11.2999 82 11.3999 82.2 11.3999C82.2 11.3999 82.2 11.3999 82.3 11.3999C82.4 11.3999 82.6 11.3999 82.7 11.3999C82.8 11.3999 82.8 11.3999 82.9 11.3999C83 11.3999 83.1 11.3999 83.2 11.3999C83.3 11.3999 83.3 11.3999 83.4 11.3999C83.5 11.3999 83.6 11.3999 83.7 11.3999C83.8 11.3999 83.8 11.3999 83.9 11.3999C84 11.3999 84.1 11.3999 84.1 11.3999C84.2 11.3999 84.2 11.3999 84.3 11.3999C84.4 11.3999 84.5 11.3999 84.6 11.3999C84.7 11.3999 84.7 11.3999 84.8 11.3999C84.9 11.3999 85 11.3999 85 11.3999C85.1 11.3999 85.1 11.3999 85.2 11.3999C85.3 11.3999 85.4 11.3999 85.5 11.3999H85.6C85.7 11.3999 85.8 11.3999 85.9 11.3999H86C86.1 11.3999 86.3 11.3999 86.4 11.2999C86.4 11.2999 86.4 11.2999 86.5 11.2999C86.6 11.2999 86.7 11.2999 86.8 11.1999H86.9C87 11.1999 87.1 11.1999 87.2 11.1999H87.3C87.4 11.1999 87.5 11.1999 87.6 11.0999C87.7 11.0999 87.7 11.0999 87.8 11.0999C87.9 11.0999 88 11.0999 88.1 10.9999H88.2C88.3 10.9999 88.5 10.8999 88.6 10.8999C88.6 10.8999 88.6 10.8999 88.7 10.8999C88.9 10.7999 89 10.7999 89.1 10.6999C89.2 10.6999 89.2 10.6999 89.3 10.5999C89.3 10.5999 89.4 10.5999 89.4 10.4999C89.5 10.4999 89.5 10.3999 89.6 10.3999C89.6 10.3999 89.7 10.3999 89.7 10.2999C89.8 10.2999 89.8 10.1999 89.9 10.1999C89.9 10.1999 90 10.1999 90 10.0999C90.1 9.9999 90.2 9.9999 90.3 9.8999C92 8.8999 92.8 7.6999 92.8 6.3999L92.9 19.9999C92.9 21.2999 92.1 22.4999 90.4 23.4999C90.3 23.5999 90.2 23.5999 90.1 23.6999C90.1 23.6999 90 23.6999 90 23.7999C89.9 23.7999 89.9 23.8999 89.8 23.8999C89.8 23.8999 89.7 23.8999 89.7 23.9999C89.6 23.9999 89.6 24.0999 89.5 24.0999C89.5 24.0999 89.4 24.0999 89.4 24.1999C89.4 24.1999 89.3 24.1999 89.3 24.2999C89.2 24.3999 89 24.3999 88.9 24.4999C88.9 24.4999 88.9 24.4999 88.8 24.4999C88.7 24.4999 88.5 24.5999 88.4 24.5999C88.4 24.5999 88.4 24.5999 88.3 24.5999H88.2C88.1 24.5999 88 24.5999 87.9 24.6999C87.8 24.6999 87.8 24.6999 87.7 24.6999C87.6 24.6999 87.5 24.6999 87.4 24.7999H87.3C87.2 24.7999 87.1 24.7999 87 24.7999H86.9C86.8 24.7999 86.7 24.7999 86.6 24.8999C86.6 24.8999 86.6 24.8999 86.5 24.8999C86.4 24.8999 86.2 24.8999 86.1 24.9999H86C85.9 24.9999 85.8 24.9999 85.7 24.9999H85.6C85.5 24.9999 85.4 24.9999 85.3 24.9999C85.2 24.9999 85.2 24.9999 85.1 24.9999C85 24.9999 84.9 24.9999 84.9 24.9999H84.8C84.7 24.9999 84.6 24.9999 84.5 24.9999C84.4 24.9999 84.4 24.9999 84.3 24.9999C84.2 24.9999 84.1 24.9999 84.1 24.9999H84C83.9 24.9999 83.8 24.9999 83.7 24.9999C83.6 24.9999 83.6 24.9999 83.5 24.9999C83.4 24.9999 83.3 24.9999 83.2 24.9999H83.1C83.1 24.9999 83.1 24.9999 83 24.9999C82.9 24.9999 82.7 24.9999 82.6 24.9999C82.6 24.9999 82.6 24.9999 82.5 24.9999C82.3 24.9999 82.2 24.9999 82 24.8999H81.9C81.8 24.8999 81.8 24.8999 81.7 24.8999C81.6 24.8999 81.6 24.8999 81.5 24.8999C81.4 24.8999 81.4 24.8999 81.3 24.8999C81.2 24.8999 81.2 24.8999 81.1 24.8999C81 24.8999 81 24.8999 80.9 24.7999C80.8 24.7999 80.8 24.7999 80.7 24.6999C80.6 24.6999 80.6 24.6999 80.5 24.5999H80.4C80.4 24.5999 80.4 24.5999 80.3 24.5999C80.2 24.5999 80.1 24.4999 79.9 24.4999H79.8C79.7 24.3999 79.5 24.3999 79.4 24.2999H79.3C79.2 24.2999 79.1 24.1999 79 24.1999C79 24.1999 78.9 24.1999 78.9 24.0999C78.8 23.9999 78.6 23.9999 78.5 23.8999C78.5 23.8999 78.4 23.8999 78.4 23.7999C78.4 23.7999 78.3 23.7999 78.3 23.6999C78.2 23.6999 78.2 23.5999 78.1 23.5999L78 23.4999L77.9 23.3999L77.8 23.2999L77.7 23.1999L77.6 23.0999L77.5 22.9999L77.4 22.8999C77.3 22.7999 77.3 22.7999 77.2 22.6999C77.2 22.5999 77.1 22.5999 77.1 22.4999C77.1 22.4999 77.1 22.4999 77.1 22.3999C77.1 22.2999 77 22.2999 77 22.1999C77 22.1999 77 22.0999 76.9 22.0999L76.8 21.9999C76.8 21.9999 76.8 21.9999 76.8 21.8999C76.8 21.8999 76.8 21.7999 76.7 21.7999V21.6999C76.7 21.6999 76.7 21.5999 76.6 21.5999C76.6 21.5999 76.6 21.5999 76.6 21.4999C76.6 21.4999 76.6 21.4999 76.6 21.3999V21.2999V21.1999V21.0999C76.6 21.0999 76.6 21.0999 76.6 20.9999V20.8999V20.7999V20.6999C76.6 20.6999 76.6 20.6999 76.6 20.5999C76.6 20.5999 76.6 20.5999 76.6 20.4999L76 7.2999V7.3999Z" fill="#F1F9FD"/>
<path d="M76 7.3999V7.4999V7.5999V7.6999V7.7999V7.8999V7.9999V8.0999V8.1999C76 8.1999 76 8.2999 76.1 8.2999V8.3999C76.1 8.3999 76.1 8.4999 76.2 8.4999C76.2 8.4999 76.2 8.5999 76.3 8.5999L76.4 8.6999C76.4 8.6999 76.4 8.7999 76.5 8.7999C76.5 8.8999 76.6 8.8999 76.6 8.9999C76.6 8.9999 76.6 9.0999 76.7 9.0999C76.7 9.1999 76.8 9.1999 76.8 9.2999C76.9 9.3999 76.9 9.3999 77 9.4999L77.1 9.5999L77.2 9.6999L77.3 9.7999L77.4 9.8999L77.5 9.9999L77.6 10.0999L77.7 10.1999C77.7 10.1999 77.8 10.2999 77.9 10.2999C78 10.2999 78 10.3999 78.1 10.3999C78.2 10.4999 78.4 10.4999 78.5 10.5999C78.5 10.5999 78.6 10.5999 78.6 10.6999C78.7 10.7999 78.8 10.7999 78.9 10.7999H79C79.1 10.8999 79.3 10.8999 79.4 10.9999H79.5C79.6 10.9999 79.7 11.0999 79.9 11.0999C80 11.0999 80 11.0999 80.1 11.0999C80.2 11.0999 80.2 11.0999 80.3 11.1999C80.4 11.1999 80.4 11.1999 80.5 11.1999C80.6 11.1999 80.6 11.1999 80.7 11.2999C80.8 11.2999 80.8 11.2999 80.9 11.2999C81 11.2999 81 11.2999 81.1 11.2999C81.2 11.2999 81.2 11.2999 81.3 11.2999C81.4 11.2999 81.4 11.2999 81.5 11.2999C81.6 11.2999 81.6 11.2999 81.7 11.2999C81.9 11.2999 82 11.3999 82.2 11.3999C82.2 11.3999 82.2 11.3999 82.3 11.3999C82.4 11.3999 82.6 11.3999 82.7 11.3999C82.8 11.3999 82.8 11.3999 82.9 11.3999C83 11.3999 83.1 11.3999 83.2 11.3999C83.3 11.3999 83.3 11.3999 83.4 11.3999C83.5 11.3999 83.6 11.3999 83.7 11.3999C83.8 11.3999 83.8 11.3999 83.9 11.3999C84 11.3999 84.1 11.3999 84.1 11.3999C84.2 11.3999 84.2 11.3999 84.3 11.3999C84.4 11.3999 84.5 11.3999 84.6 11.3999C84.7 11.3999 84.7 11.3999 84.8 11.3999C84.9 11.3999 85 11.3999 85 11.3999C85.1 11.3999 85.1 11.3999 85.2 11.3999C85.3 11.3999 85.4 11.3999 85.5 11.3999H85.6C85.7 11.3999 85.8 11.3999 85.9 11.3999H86C86.1 11.3999 86.3 11.3999 86.4 11.2999C86.4 11.2999 86.4 11.2999 86.5 11.2999C86.6 11.2999 86.7 11.2999 86.8 11.1999H86.9C87 11.1999 87.1 11.1999 87.2 11.1999H87.3C87.4 11.1999 87.5 11.1999 87.6 11.0999C87.7 11.0999 87.7 11.0999 87.8 11.0999C87.9 11.0999 88 11.0999 88.1 10.9999H88.2C88.3 10.9999 88.5 10.8999 88.6 10.8999C88.6 10.8999 88.6 10.8999 88.7 10.8999C88.9 10.7999 89 10.7999 89.1 10.6999C89.2 10.6999 89.2 10.6999 89.3 10.5999C89.3 10.5999 89.4 10.5999 89.4 10.4999C89.5 10.4999 89.5 10.3999 89.6 10.3999C89.6 10.3999 89.7 10.3999 89.7 10.2999C89.8 10.2999 89.8 10.1999 89.9 10.1999C89.9 10.1999 90 10.1999 90 10.0999C90.1 9.9999 90.2 9.9999 90.3 9.8999C92 8.8999 92.8 7.6999 92.8 6.3999L92.9 19.9999C92.9 21.2999 92.1 22.4999 90.4 23.4999C90.3 23.5999 90.2 23.5999 90.1 23.6999C90.1 23.6999 90 23.6999 90 23.7999C89.9 23.7999 89.9 23.8999 89.8 23.8999C89.8 23.8999 89.7 23.8999 89.7 23.9999C89.6 23.9999 89.6 24.0999 89.5 24.0999C89.5 24.0999 89.4 24.0999 89.4 24.1999C89.4 24.1999 89.3 24.1999 89.3 24.2999C89.2 24.3999 89 24.3999 88.9 24.4999C88.9 24.4999 88.9 24.4999 88.8 24.4999C88.7 24.4999 88.5 24.5999 88.4 24.5999C88.4 24.5999 88.4 24.5999 88.3 24.5999H88.2C88.1 24.5999 88 24.5999 87.9 24.6999C87.8 24.6999 87.8 24.6999 87.7 24.6999C87.6 24.6999 87.5 24.6999 87.4 24.7999H87.3C87.2 24.7999 87.1 24.7999 87 24.7999H86.9C86.8 24.7999 86.7 24.7999 86.6 24.8999C86.6 24.8999 86.6 24.8999 86.5 24.8999C86.4 24.8999 86.2 24.8999 86.1 24.9999H86C85.9 24.9999 85.8 24.9999 85.7 24.9999H85.6C85.5 24.9999 85.4 24.9999 85.3 24.9999C85.2 24.9999 85.2 24.9999 85.1 24.9999C85 24.9999 84.9 24.9999 84.9 24.9999H84.8C84.7 24.9999 84.6 24.9999 84.5 24.9999C84.4 24.9999 84.4 24.9999 84.3 24.9999C84.2 24.9999 84.1 24.9999 84.1 24.9999H84C83.9 24.9999 83.8 24.9999 83.7 24.9999C83.6 24.9999 83.6 24.9999 83.5 24.9999C83.4 24.9999 83.3 24.9999 83.2 24.9999H83.1C83.1 24.9999 83.1 24.9999 83 24.9999C82.9 24.9999 82.7 24.9999 82.6 24.9999C82.6 24.9999 82.6 24.9999 82.5 24.9999C82.3 24.9999 82.2 24.9999 82 24.8999H81.9C81.8 24.8999 81.8 24.8999 81.7 24.8999C81.6 24.8999 81.6 24.8999 81.5 24.8999C81.4 24.8999 81.4 24.8999 81.3 24.8999C81.2 24.8999 81.2 24.8999 81.1 24.8999C81 24.8999 81 24.8999 80.9 24.7999C80.8 24.7999 80.8 24.7999 80.7 24.6999C80.6 24.6999 80.6 24.6999 80.5 24.5999H80.4C80.4 24.5999 80.4 24.5999 80.3 24.5999C80.2 24.5999 80.1 24.4999 79.9 24.4999H79.8C79.7 24.3999 79.5 24.3999 79.4 24.2999H79.3C79.2 24.2999 79.1 24.1999 79 24.1999C79 24.1999 78.9 24.1999 78.9 24.0999C78.8 23.9999 78.6 23.9999 78.5 23.8999C78.5 23.8999 78.4 23.8999 78.4 23.7999C78.4 23.7999 78.3 23.7999 78.3 23.6999C78.2 23.6999 78.2 23.5999 78.1 23.5999L78 23.4999L77.9 23.3999L77.8 23.2999L77.7 23.1999L77.6 23.0999L77.5 22.9999L77.4 22.8999C77.3 22.7999 77.3 22.7999 77.2 22.6999C77.2 22.5999 77.1 22.5999 77.1 22.4999C77.1 22.4999 77.1 22.4999 77.1 22.3999C77.1 22.2999 77 22.2999 77 22.1999C77 22.1999 77 22.0999 76.9 22.0999L76.8 21.9999C76.8 21.9999 76.8 21.9999 76.8 21.8999C76.8 21.8999 76.8 21.7999 76.7 21.7999V21.6999C76.7 21.6999 76.7 21.5999 76.6 21.5999C76.6 21.5999 76.6 21.5999 76.6 21.4999C76.6 21.4999 76.6 21.4999 76.6 21.3999V21.2999V21.1999V21.0999C76.6 21.0999 76.6 21.0999 76.6 20.9999V20.8999V20.7999V20.6999C76.6 20.6999 76.6 20.6999 76.6 20.5999C76.6 20.5999 76.6 20.5999 76.6 20.4999L76 7.2999V7.3999Z" stroke="#171A21" stroke-width="2" stroke-miterlimit="10" stroke-linecap="round" stroke-linejoin="round"/>
<path d="M78.4999 3.8C75.1999 5.7 75.1999 8.8 78.4999 10.7C81.7999 12.6 87.0999 12.6 90.3999 10.7C93.6999 8.8 93.6999 5.7 90.3999 3.8C87.0999 1.9 81.7999 1.9 78.4999 3.8Z" fill="white" stroke="#171A21" stroke-width="2" stroke-miterlimit="10" stroke-linecap="round" stroke-linejoin="round"/>
<path d="M23.0001 84.2C23.0001 84.3 23.0001 84.4 23.1001 84.4C23.1001 84.5 23.2001 84.5 23.2001 84.6L23.3001 84.7C23.3001 84.7 23.3001 84.7 23.3001 84.8C23.3001 84.8 23.4001 84.9 23.5001 84.9L16.5001 80.8C16.4001 80.8 16.4001 80.7 16.3001 80.7C16.3001 80.7 16.3001 80.7 16.3001 80.6L16.2001 80.5C16.2001 80.5 16.2001 80.5 16.2001 80.4V80.3V80.2V80.1C16.2001 80.1 16.2001 80.1 16.2001 80L15.6001 75.7L22.6001 79.8L23.0001 84.2Z" fill="white"/>
<path d="M23.3001 84.8C23.3001 84.8 23.4001 84.9 23.5001 84.9L16.5001 80.8C16.4001 80.8 16.4001 80.7 16.3001 80.7C16.3001 80.7 16.3001 80.7 16.3001 80.6L16.2001 80.5C16.2001 80.5 16.2001 80.5 16.2001 80.4V80.3V80.2V80.1C16.2001 80.1 16.2001 80.1 16.2001 80L15.6001 75.7" stroke="#171A21" stroke-width="2" stroke-miterlimit="10" stroke-linecap="round" stroke-linejoin="round"/>
<path d="M23.8002 71.9999C23.8002 71.8999 23.8002 71.8999 23.8002 71.9999C23.6002 71.9999 23.5002 71.8999 23.3002 71.8999C23.2002 71.8999 23.2002 71.7999 23.1002 71.7999H23.0002C22.9002 71.7999 22.8002 71.6999 22.7002 71.6999L15.7002 67.5999C15.8002 67.6999 15.9002 67.6999 16.0002 67.6999H16.1002C16.2002 67.6999 16.2002 67.7999 16.3002 67.7999C16.3002 67.7999 16.3002 67.7999 16.4002 67.7999C16.6002 67.8999 16.7002 67.8999 16.9002 67.8999C17.0002 67.8999 17.1002 67.8999 17.2002 67.8999H17.3002C17.4002 67.8999 17.5002 67.8999 17.5002 67.8999H17.6002C17.7002 67.8999 17.7002 67.8999 17.8002 67.8999C17.9002 67.8999 17.9002 67.8999 18.0002 67.8999C18.1002 67.8999 18.1002 67.8999 18.2002 67.8999C18.3002 67.8999 18.3002 67.8999 18.4002 67.8999H18.5002C18.6002 67.8999 18.6002 67.8999 18.7002 67.8999H18.8002C18.9002 67.8999 18.9002 67.8999 19.0002 67.7999H19.1002C19.2002 67.7999 19.2002 67.7999 19.3002 67.6999H19.4002C19.5002 67.6999 19.6002 67.5999 19.7002 67.5999C19.8002 67.5999 19.9002 67.4999 20.0002 67.4999H20.1002C20.2002 67.4999 20.3002 67.3999 20.3002 67.3999C20.3002 67.3999 20.4002 67.3999 20.4002 67.2999C20.5002 67.1999 20.6002 67.1999 20.7002 67.0999C20.9002 66.9999 21.2002 66.7999 21.4002 66.5999C21.6002 66.3999 21.8002 66.2999 22.1002 66.0999C22.1002 66.0999 22.1002 66.0999 22.2002 65.9999C22.4002 65.7999 22.6002 65.5999 22.8002 65.4999C22.8002 65.4999 22.8002 65.4999 22.9002 65.3999C23.1002 65.1999 23.3002 64.9999 23.5002 64.7999C23.5002 64.7999 23.5002 64.7999 23.6002 64.6999C23.8002 64.4999 24.0002 64.1999 24.2002 63.9999C24.4002 63.7999 24.6002 63.4999 24.8002 63.1999C25.0002 62.9999 25.1002 62.6999 25.3002 62.4999C25.4002 62.2999 25.5002 62.1999 25.6002 61.9999C25.7002 61.8999 25.8002 61.6999 25.8002 61.5999C25.8002 61.4999 25.9002 61.4999 25.9002 61.3999C26.0002 61.1999 26.2002 60.8999 26.3002 60.6999V60.5999C26.4002 60.2999 26.6002 59.9999 26.7002 59.6999C26.8002 59.3999 26.9002 59.0999 27.0002 58.8999C27.0002 58.8999 27.0002 58.8999 27.0002 58.7999C27.1002 58.4999 27.2002 58.1999 27.3002 57.8999C27.3002 57.8999 27.3002 57.8999 27.3002 57.7999C27.4002 57.4999 27.5002 57.1999 27.5002 56.9999V56.8999C27.6002 56.5999 27.6002 56.2999 27.7002 55.9999C27.7002 55.6999 27.8002 55.3999 27.8002 55.0999C27.8002 55.0999 27.8002 55.0999 27.8002 54.9999C27.8002 54.6999 27.8002 54.3999 27.8002 54.1999C27.8002 53.8999 27.8002 53.6999 27.8002 53.3999C27.8002 53.3999 27.8002 53.3999 27.8002 53.2999C27.8002 53.0999 27.7002 52.7999 27.7002 52.5999V52.4999C27.7002 52.2999 27.6002 52.0999 27.5002 51.8999V51.7999C27.4002 51.5999 27.4002 51.3999 27.3002 51.2999C27.3002 51.2999 27.3002 51.2999 27.3002 51.1999C27.2002 50.9999 27.1002 50.7999 27.0002 50.6999C27.0002 50.6999 27.0002 50.6999 27.0002 50.5999C26.9002 50.4999 26.8002 50.2999 26.7002 50.1999L26.6002 50.0999C26.5002 49.9999 26.4002 49.8999 26.3002 49.7999L26.2002 49.6999C26.1002 49.5999 25.9002 49.4999 25.8002 49.3999L32.8002 53.4999C32.9002 53.5999 33.1002 53.6999 33.2002 53.7999L33.3002 53.8999C33.4002 53.9999 33.5002 54.0999 33.6002 54.1999L33.7002 54.2999C33.8002 54.3999 33.9002 54.4999 34.0002 54.6999C34.0002 54.6999 34.0002 54.6999 34.0002 54.7999C34.1002 54.9999 34.2002 55.0999 34.3002 55.2999C34.3002 55.2999 34.3002 55.2999 34.3002 55.3999C34.4002 55.4999 34.4002 55.5999 34.4002 55.6999C34.4002 55.7999 34.4002 55.7999 34.5002 55.8999V55.9999V56.0999C34.5002 56.1999 34.6002 56.2999 34.6002 56.4999V56.5999V56.6999V56.7999C34.6002 56.8999 34.6002 56.9999 34.7002 57.1999C34.7002 57.2999 34.7002 57.2999 34.7002 57.3999C34.7002 57.3999 34.7002 57.3999 34.7002 57.4999V57.5999C34.7002 57.6999 34.7002 57.7999 34.7002 57.8999C34.7002 57.9999 34.7002 58.0999 34.7002 58.2999C34.7002 58.3999 34.7002 58.4999 34.7002 58.5999C34.7002 58.6999 34.7002 58.7999 34.7002 58.9999C34.7002 59.0999 34.7002 59.0999 34.7002 59.1999C34.7002 59.1999 34.7002 59.1999 34.7002 59.2999V59.3999C34.7002 59.4999 34.7002 59.5999 34.7002 59.7999C34.7002 59.8999 34.7002 59.9999 34.6002 60.1999C34.6002 60.2999 34.6002 60.3999 34.5002 60.4999C34.5002 60.5999 34.5002 60.7999 34.4002 60.8999V60.9999V61.0999C34.4002 61.1999 34.4002 61.1999 34.4002 61.2999C34.4002 61.3999 34.3002 61.5999 34.3002 61.6999C34.3002 61.7999 34.2002 61.8999 34.2002 61.9999C34.2002 61.9999 34.2002 61.9999 34.2002 62.0999C34.2002 62.0999 34.2002 62.0999 34.2002 62.1999C34.2002 62.2999 34.1002 62.4999 34.1002 62.5999C34.1002 62.6999 34.0002 62.7999 34.0002 62.9999C34.0002 62.9999 34.0002 62.9999 34.0002 63.0999C34.0002 63.0999 34.0002 63.0999 34.0002 63.1999C34.0002 63.2999 33.9002 63.3999 33.9002 63.3999C33.9002 63.4999 33.8002 63.5999 33.8002 63.7999C33.8002 63.8999 33.7002 63.9999 33.7002 64.0999C33.6002 64.1999 33.6002 64.2999 33.5002 64.4999C33.4002 64.5999 33.4002 64.7999 33.3002 64.8999C33.3002 64.8999 33.3002 64.8999 33.3002 64.9999V65.0999C33.2002 65.1999 33.2002 65.2999 33.1002 65.3999C33.0002 65.4999 33.0002 65.6999 32.9002 65.7999C32.9002 65.8999 32.8002 65.8999 32.8002 65.9999V66.0999C32.7002 66.1999 32.7002 66.2999 32.6002 66.3999C32.5002 66.5999 32.4002 66.6999 32.3002 66.8999V66.9999C32.1002 67.1999 32.0002 67.3999 31.8002 67.6999C31.7002 67.7999 31.6002 67.9999 31.5002 68.0999C31.4002 68.1999 31.3002 68.2999 31.2002 68.3999C31.1002 68.4999 31.0002 68.5999 30.9002 68.6999C30.8002 68.7999 30.7002 68.8999 30.6002 68.9999C30.6002 68.9999 30.6002 68.9999 30.5002 69.0999C30.4002 69.1999 30.4002 69.1999 30.3002 69.2999C30.2002 69.3999 30.1002 69.4999 30.0002 69.5999L29.9002 69.6999C29.9002 69.6999 29.9002 69.6999 29.8002 69.7999C29.7002 69.7999 29.7002 69.8999 29.6002 69.8999C29.5002 69.9999 29.4002 70.0999 29.3002 70.1999L29.2002 70.2999C29.2002 70.2999 29.2002 70.2999 29.1002 70.3999L29.0002 70.4999C28.9002 70.5999 28.8002 70.6999 28.7002 70.6999C28.6002 70.7999 28.5002 70.7999 28.5002 70.8999C28.4002 70.9999 28.3002 70.9999 28.2002 71.0999C28.1002 71.1999 28.0002 71.1999 27.9002 71.2999C27.9002 71.2999 27.9002 71.2999 27.8002 71.2999C27.7002 71.2999 27.6002 71.3999 27.6002 71.3999H27.5002C27.5002 71.3999 27.4002 71.3999 27.4002 71.4999H27.3002C27.2002 71.4999 27.2002 71.4999 27.1002 71.5999H27.0002C26.9002 71.5999 26.8002 71.6999 26.7002 71.6999C26.6002 71.6999 26.5002 71.7999 26.4002 71.7999H26.3002H26.2002H26.1002H26.0002H25.9002H25.8002H25.7002C25.7002 71.7999 25.7002 71.7999 25.6002 71.7999H25.5002H25.4002C25.4002 71.7999 25.4002 71.7999 25.3002 71.7999H25.2002C25.1002 71.7999 25.1002 71.7999 25.0002 71.7999H24.9002C24.8002 71.7999 24.8002 71.7999 24.7002 71.7999C24.7002 71.7999 24.7002 71.7999 24.6002 71.7999H24.5002C24.4002 71.7999 24.3002 71.7999 24.3002 71.7999C24.3002 71.7999 24.3002 71.7999 24.2002 71.7999C24.2002 71.7999 24.2002 71.7999 24.1002 71.7999C24.0002 71.9999 23.9002 71.9999 23.8002 71.9999Z" fill="#F1F9FD"/>
<path d="M15.7002 67.5C15.8002 67.6 15.9002 67.6 16.0002 67.6H16.1002C16.2002 67.6 16.2002 67.7 16.3002 67.7C16.3002 67.7 16.3002 67.7 16.4002 67.7C16.6002 67.8 16.7002 67.8001 16.9002 67.8001C17.0002 67.8001 17.1002 67.8001 17.2002 67.8001H17.3002C17.4002 67.8001 17.5002 67.8001 17.5002 67.8001H17.6002C17.7002 67.8001 17.7002 67.8001 17.8002 67.8001C17.9002 67.8001 17.9002 67.8001 18.0002 67.8001C18.1002 67.8001 18.1002 67.8001 18.2002 67.8001C18.3002 67.8001 18.3002 67.8001 18.4002 67.8001H18.5002C18.6002 67.8001 18.6002 67.8001 18.7002 67.8001H18.8002C18.9002 67.8001 18.9002 67.8 19.0002 67.7H19.1002C19.2002 67.7 19.2002 67.7 19.3002 67.6H19.4002C19.5002 67.6 19.6002 67.5 19.7002 67.5C19.8002 67.5 19.9002 67.4001 20.0002 67.4001H20.1002C20.2002 67.4001 20.3002 67.3001 20.3002 67.3001C20.3002 67.3001 20.4002 67.3 20.4002 67.2C20.5002 67.1 20.6002 67.1 20.7002 67C20.9002 66.9 21.2002 66.7 21.4002 66.5C21.6002 66.3 21.8002 66.2 22.1002 66C22.1002 66 22.1002 66.0001 22.2002 65.9001C22.4002 65.7001 22.6002 65.5001 22.8002 65.4001C22.8002 65.4001 22.8002 65.4001 22.9002 65.3001C23.1002 65.1001 23.3002 64.9 23.5002 64.7C23.5002 64.7 23.5002 64.7 23.6002 64.6C23.8002 64.4 24.0002 64.1001 24.2002 63.9001C24.4002 63.7001 24.6002 63.4 24.8002 63.1C25.0002 62.9 25.1002 62.6001 25.3002 62.4001C25.4002 62.2001 25.5002 62.1001 25.6002 61.9001C25.7002 61.8001 25.8002 61.6 25.8002 61.5C25.8002 61.4 25.9002 61.4 25.9002 61.3C26.0002 61.1 26.2002 60.8 26.3002 60.6V60.5C26.4002 60.2 26.6002 59.9 26.7002 59.6C26.8002 59.3 26.9002 59 27.0002 58.8C27.0002 58.8 27.0002 58.8001 27.0002 58.7001C27.1002 58.4001 27.2002 58.1 27.3002 57.8C27.3002 57.8 27.3002 57.8001 27.3002 57.7001C27.4002 57.4001 27.5002 57.1001 27.5002 56.9001V56.8C27.6002 56.5 27.6002 56.2001 27.7002 55.9001C27.7002 55.6001 27.8002 55.3 27.8002 55C27.8002 55 27.8002 55.0001 27.8002 54.9001C27.8002 54.6001 27.8002 54.3 27.8002 54.1C27.8002 53.8 27.8002 53.6 27.8002 53.3C27.8002 53.3 27.8002 53.3001 27.8002 53.2001C27.8002 53.0001 27.7002 52.7 27.7002 52.5V52.4001C27.7002 52.2001 27.6002 52 27.5002 51.8V51.7001C27.4002 51.5001 27.4002 51.3001 27.3002 51.2001C27.3002 51.2001 27.3002 51.2 27.3002 51.1C27.2002 50.9 27.1002 50.7 27.0002 50.6C27.0002 50.6 27.0002 50.6 27.0002 50.5C26.9002 50.4 26.8002 50.2 26.7002 50.1L26.6002 50C26.5002 49.9 26.4002 49.8001 26.3002 49.7001L26.2002 49.6C26.1002 49.5 25.9002 49.4 25.8002 49.3" stroke="#171A21" stroke-width="2" stroke-miterlimit="10" stroke-linecap="round" stroke-linejoin="round"/>
<path d="M3.7002 62.5C3.7002 62.4 3.7002 62.4 3.7002 62.4V62.2999V62.2C3.7002 62.2 3.7002 62.1999 3.7002 62.0999V62V61.9V61.7999C3.7002 61.7999 3.7002 61.8 3.7002 61.7V61.5999V61.5V61.4C3.7002 61.4 3.7002 61.4 3.7002 61.2999L7.1002 52.7V52.5999V52.5V52.4V52.2999C7.1002 52.2999 7.1002 52.2 7.2002 52.2C7.2002 52.1 7.3002 52.1 7.3002 52C7.3002 52 7.3002 51.9 7.4002 51.9C7.4002 51.9 7.4002 51.7999 7.5002 51.7999C7.5002 51.7999 7.5002 51.8 7.6002 51.7C7.6002 51.7 7.6002 51.6999 7.7002 51.5999C7.7002 51.5999 7.7002 51.6 7.8002 51.5C7.8002 51.5 7.8002 51.5 7.9002 51.4C7.9002 51.4 7.9002 51.4 8.0002 51.2999C8.0002 51.2999 8.0002 51.3 8.1002 51.2C8.1002 51.2 8.1002 51.2 8.2002 51.2C8.2002 51.2 8.2002 51.2 8.3002 51.2C8.3002 51.2 8.3002 51.2 8.4002 51.2C8.4002 51.2 8.4002 51.2 8.5002 51.2C8.5002 51.2 8.5002 51.2 8.6002 51.2C8.6002 51.2 8.6002 51.2 8.7002 51.2C8.7002 51.2 8.7002 51.2 8.8002 51.2C8.8002 51.2 8.8002 51.2 8.9002 51.2C8.9002 51.2 8.9002 51.2 9.0002 51.2C9.0002 51.2 9.0002 51.2 9.1002 51.2C9.1002 51.2 9.1002 51.2 9.2002 51.2L13.0002 50.7999C13.1002 50.5999 13.3002 50.4 13.4002 50.2C13.4002 50.2 13.4002 50.0999 13.5002 50.0999C13.6002 49.9999 13.7002 49.9 13.7002 49.7999C13.8002 49.6999 13.8002 49.6 13.9002 49.5L14.0002 49.4C14.1002 49.3 14.1002 49.1999 14.2002 49.0999C14.3002 48.9999 14.3002 48.9 14.4002 48.9C14.4002 48.8 14.5002 48.8 14.5002 48.7C14.6002 48.6 14.6002 48.5 14.7002 48.5C14.7002 48.4 14.8002 48.4 14.8002 48.2999C14.9002 48.1999 15.0002 48 15.1002 47.9L15.7002 42.9V42.7999V42.7V42.5999C15.7002 42.5999 15.7002 42.6 15.7002 42.5V42.4V42.2999V42.2V42.0999C15.7002 42.0999 15.7002 42.1 15.7002 42C15.7002 42 15.7002 42 15.7002 41.9C15.7002 41.9 15.7002 41.8999 15.7002 41.7999V41.7V41.5999L15.8002 41.5V41.4C15.8002 41.4 15.8002 41.3999 15.8002 41.2999C15.8002 41.2999 15.8002 41.3 15.8002 41.2L15.9002 41.0999C15.9002 41.0999 15.9002 41 16.0002 41C16.0002 41 16.0002 41 16.1002 40.9C16.1002 40.9 16.1002 40.8999 16.2002 40.7999C16.2002 40.7999 16.2002 40.8 16.3002 40.7C16.3002 40.7 16.3002 40.6999 16.4002 40.5999C16.4002 40.5999 16.4002 40.6 16.5002 40.5C16.5002 40.5 16.5002 40.5 16.6002 40.4C16.6002 40.4 16.6002 40.3999 16.7002 40.2999C16.7002 40.2999 16.7002 40.3 16.8002 40.2C16.8002 40.2 16.8002 40.1999 16.9002 40.0999C16.9002 40.0999 16.9002 40.0999 17.0002 40.0999C17.0002 40.0999 17.0002 40.0999 17.1002 40.0999C17.1002 40.0999 17.1002 40.0999 17.2002 40.0999L24.0002 36.2C24.0002 36.2 24.0002 36.2 24.1002 36.2C24.1002 36.2 24.1002 36.2 24.2002 36.2C24.2002 36.2 24.2002 36.2 24.3002 36.2C24.3002 36.2 24.3002 36.2 24.4002 36.2C24.4002 36.2 24.4002 36.2 24.5002 36.2C24.5002 36.2 24.5002 36.2 24.6002 36.2C24.6002 36.2 24.6002 36.2 24.7002 36.2C24.7002 36.2 24.7002 36.2 24.8002 36.2H24.9002H25.0002H25.1002C25.1002 36.2 25.2002 36.1999 25.2002 36.2999L30.6002 39.4L32.3002 37.5999C32.3002 37.5999 32.3002 37.6 32.4002 37.5C32.4002 37.5 32.4002 37.5 32.5002 37.4C32.5002 37.4 32.5002 37.3999 32.6002 37.2999C32.6002 37.2999 32.6002 37.3 32.7002 37.2C32.7002 37.2 32.7002 37.1999 32.8002 37.0999C32.8002 37.0999 32.8002 37.0999 32.9002 37.0999C32.9002 37.0999 32.9002 37.0999 33.0002 37.0999C33.0002 37.0999 33.0002 37.0999 33.1002 37.0999C33.1002 37.0999 33.1002 37.0999 33.2002 37.0999C33.2002 37.0999 33.2002 37.0999 33.3002 37.0999C33.3002 37.0999 33.3002 37.0999 33.4002 37.0999C33.4002 37.0999 33.4002 37.0999 33.5002 37.0999C33.5002 37.0999 33.5002 37.0999 33.6002 37.0999C33.6002 37.0999 33.6002 37.0999 33.7002 37.0999C33.7002 37.0999 33.7002 37.0999 33.8002 37.0999C33.8002 37.0999 33.8002 37.0999 33.9002 37.0999C33.9002 37.0999 33.9002 37.0999 34.0002 37.0999H34.1002H34.2002H34.3002C34.3002 37.0999 34.4002 37.1 34.4002 37.2L41.4002 41.2999C41.3002 41.2999 41.2002 41.2 41.2002 41.2C41.1002 41.2 41.0002 41.2 40.9002 41.2C40.8002 41.2 40.7002 41.1999 40.6002 41.2999C40.5002 41.2999 40.4002 41.4 40.3002 41.4C40.2002 41.5 40.1002 41.4999 40.0002 41.5999C39.9002 41.6999 39.8002 41.8 39.7002 41.9L35.9002 45.9C35.8002 45.9 35.6002 45.7999 35.5002 45.7999C35.3002 45.7999 35.0002 45.7 34.8002 45.7C34.8002 45.7 34.8002 45.7 34.7002 45.7C34.5002 45.7 34.3002 45.7 34.1002 45.7C33.9002 45.7 33.8002 45.7 33.6002 45.7L28.0002 42.2L24.5002 44.2C24.4002 44.3 24.3002 44.3 24.2002 44.4C24.1002 44.5 24.0002 44.5999 23.9002 44.5999C23.8002 44.6999 23.7002 44.8 23.7002 44.9C23.6002 45 23.6002 45.1 23.5002 45.2C23.5002 45.2 23.5002 45.1999 23.5002 45.2999C23.4002 45.4 23.4002 45.4999 23.3002 45.5999C23.2002 45.6999 23.2002 45.8 23.1002 45.9C23.1002 46 23.0002 46.0999 23.0002 46.2999C23.0002 46.4 22.9002 46.5 22.9002 46.7L22.3002 51.7C22.1002 51.9 22.0002 52.0999 21.8002 52.2999C21.7002 52.4 21.7002 52.5 21.6002 52.5C21.5002 52.6 21.4002 52.8 21.3002 52.9C21.2002 53 21.2002 53.1 21.1002 53.2C21.0002 53.3 20.9002 53.4999 20.8002 53.5999C20.7002 53.6999 20.6002 53.8 20.6002 53.9C20.4002 54.1 20.3002 54.2999 20.1002 54.5999L16.2002 55C16.1002 55 16.0002 54.9999 15.9002 55.0999C15.8002 55.0999 15.7002 55.2 15.6002 55.2C15.5002 55.2 15.5002 55.2999 15.4002 55.2999C15.3002 55.2999 15.3002 55.4 15.2002 55.5C15.1002 55.6 15.1002 55.6 15.0002 55.7C14.9002 55.8 14.9002 55.8 14.8002 55.9C14.7002 56 14.7002 55.9999 14.6002 56.0999C14.5002 56.1999 14.5002 56.2999 14.4002 56.2999C14.4002 56.4 14.3002 56.5 14.3002 56.5C14.3002 56.6 14.2002 56.6999 14.2002 56.7999L10.8002 65.4C10.8002 65.5 10.7002 65.5999 10.7002 65.6999C10.7002 65.7999 10.6002 65.9 10.6002 66C10.6002 66.1 10.6002 66.1999 10.6002 66.1999L14.4002 68.4C14.4002 68.6 14.4002 68.8999 14.4002 69.0999C14.4002 69.1999 14.4002 69.2 14.4002 69.3C14.4002 69.5 14.4002 69.7 14.4002 69.9C14.4002 69.9 14.4002 69.9 14.4002 70C14.4002 70.2 14.4002 70.4999 14.4002 70.6999C14.4002 70.7999 14.4002 70.8 14.4002 70.9C14.4002 71.1 14.4002 71.2999 14.4002 71.5L11.2002 76.3C11.1002 76.4 11.1002 76.5 11.0002 76.5999C10.9002 76.6999 10.9002 76.8 10.8002 76.9C10.8002 77 10.7002 77.1 10.7002 77.3C10.7002 77.4 10.6002 77.5 10.6002 77.5999C10.6002 77.6999 10.6002 77.8 10.6002 77.9C10.6002 78 10.6002 78.0999 10.6002 78.1999C10.6002 78.2999 10.6002 78.4 10.7002 78.5C10.7002 78.5999 10.8002 78.6999 10.8002 78.6999L14.2002 83.5C14.3002 83.5999 14.4002 83.6999 14.5002 83.6999L7.5002 79.5999C7.5002 80 7.4002 80 7.3002 79.9L3.9002 75.0999C3.9002 75.0999 3.9002 75 3.8002 75V74.9C3.8002 74.9 3.8002 74.9 3.8002 74.8V74.6999V74.5999V74.5C3.8002 74.5 3.8002 74.5 3.8002 74.4C3.8002 74.4 3.8002 74.4 3.8002 74.3V74.1999V74.0999V74C3.8002 74 3.8002 74 3.8002 73.9V73.8V73.6999V73.5999V73.5V73.4V73.3V73.1999V73.0999C3.8002 73.0999 3.8002 73.0999 3.8002 73V72.9C4.0002 73 4.0002 73 4.0002 73C4.0002 73 4.0002 73 4.0002 72.9L4.1002 72.8C4.1002 72.7 4.2002 72.6999 4.2002 72.5999L7.4002 67.8C7.4002 67.7 7.4002 67.6 7.4002 67.4C7.4002 67.3 7.4002 67.1999 7.4002 67.0999C7.4002 66.9999 7.4002 67 7.4002 66.9V66.8C7.4002 66.6 7.4002 66.3999 7.4002 66.1999V66.0999C7.4002 65.8999 7.4002 65.7999 7.4002 65.5999C7.4002 65.4999 7.4002 65.5 7.4002 65.4C7.4002 65.4 7.4002 65.4 7.4002 65.3L4.1002 63.4C4.0002 63.4 4.0002 63.2999 3.9002 63.2999C3.9002 63.2999 3.9002 63.3 3.9002 63.2C3.9002 63.2 3.9002 63.0999 3.8002 63.0999V63C3.8002 63 3.8002 63 3.8002 62.9V62.7999V62.7C3.8002 62.7 3.8002 62.6999 3.8002 62.5999C3.8002 62.5999 3.8002 62.6 3.8002 62.5V62.4C3.7002 62.6 3.7002 62.6 3.7002 62.5C3.7002 62.6 3.7002 62.5 3.7002 62.5Z" fill="#F1F9FD"/>
<path d="M14.3003 83.9C14.4003 84 14.5003 84.1 14.6003 84.1L7.60029 80C7.50029 80 7.40029 80 7.30029 79.9L3.90029 75.1C3.90029 75.1 3.90029 75 3.80029 75V74.9C3.80029 74.9 3.80029 74.9 3.80029 74.8V74.7V74.6V74.5C3.80029 74.5 3.80029 74.5 3.80029 74.4C3.80029 74.4 3.80029 74.4 3.80029 74.3V74.2V74.1V74C3.80029 74 3.80029 74 3.80029 73.9V73.8V73.7V73.6V73.5V73.4V73.3V73.2V73.1C3.80029 73.1 3.80029 73.1 3.80029 73V72.9C4.00029 73 4.00029 73 4.00029 73C4.00029 73 4.00029 73 4.00029 72.9L4.10029 72.8C4.10029 72.7 4.20029 72.7 4.20029 72.6L7.40029 67.8C7.40029 67.7 7.40029 67.6 7.40029 67.4C7.40029 67.3 7.40029 67.2 7.40029 67.1C7.40029 67 7.40029 67 7.40029 66.9V66.8C7.40029 66.6 7.40029 66.4 7.40029 66.2V66.1C7.40029 65.9 7.40029 65.8 7.40029 65.6C7.40029 65.5 7.40029 65.5 7.40029 65.4C7.40029 65.4 7.40029 65.4 7.40029 65.3L4.10029 63.4C4.00029 63.4 4.00029 63.3 3.90029 63.3C3.90029 63.3 3.90029 63.3 3.90029 63.2C3.90029 63.2 3.90029 63.1 3.80029 63.1V63C3.80029 63 3.80029 63 3.80029 62.9V62.8V62.7C3.80029 62.7 3.80029 62.7 3.80029 62.6C3.80029 62.6 3.80029 62.6 3.80029 62.5V62.4C3.80029 62.4 3.80029 62.4 3.80029 62.3V62.2V62.1V62C3.80029 62 3.80029 62 3.80029 61.9V61.8V61.7V61.6C3.80029 61.6 3.80029 61.6 3.80029 61.5V61.4V61.3V61.2C3.80029 61.2 3.80029 61.2 3.80029 61.1L7.20029 52.5V52.4V52.3V52.2V52.1C7.20029 52.1 7.20029 52 7.30029 52C7.30029 51.9 7.40029 51.9 7.40029 51.8C7.40029 51.8 7.40029 51.7 7.50029 51.7C7.50029 51.7 7.50029 51.6 7.60029 51.6C7.60029 51.6 7.60029 51.6 7.70029 51.5C7.70029 51.5 7.70029 51.5 7.80029 51.4C7.80029 51.4 7.80029 51.4 7.90029 51.3C7.90029 51.3 7.90029 51.3 8.00029 51.2C8.00029 51.2 8.00029 51.2 8.10029 51.1C8.10029 51.1 8.10029 51.1 8.20029 51C8.20029 51 8.20029 51 8.30029 51C8.30029 51 8.30029 51 8.40029 51C8.40029 51 8.40029 51 8.50029 51C8.50029 51 8.50029 51 8.60029 51C8.60029 51 8.60029 51 8.70029 51C8.70029 51 8.70029 51 8.80029 51C8.80029 51 8.80029 51 8.90029 51C8.90029 51 8.90029 51 9.00029 51C9.00029 51 9.00029 51 9.10029 51C9.10029 51 9.10029 51 9.20029 51C9.20029 51 9.20029 51 9.30029 51L13.1003 50.6C13.2003 50.4 13.4003 50.2 13.5003 50C13.5003 50 13.5003 49.9 13.6003 49.9C13.7003 49.8 13.8003 49.7 13.8003 49.6C13.9003 49.5 13.9003 49.4 14.0003 49.3L14.1003 49.2C14.2003 49.1 14.2003 49 14.3003 48.9C14.4003 48.8 14.4003 48.7 14.5003 48.7C14.5003 48.6 14.6003 48.6 14.6003 48.5C14.7003 48.4 14.7003 48.3 14.8003 48.3C14.8003 48.2 14.9003 48.2 14.9003 48.1C15.0003 48 15.1003 47.8 15.2003 47.7L15.8003 42.7V42.6V42.5V42.4C15.8003 42.4 15.8003 42.4 15.8003 42.3V42.2V42.1V42V41.9C15.8003 41.9 15.8003 41.9 15.8003 41.8C15.8003 41.8 15.8003 41.8 15.8003 41.7C15.8003 41.7 15.8003 41.7 15.8003 41.6V41.5V41.4L15.9003 41.3V41.2C15.9003 41.2 15.9003 41.2 15.9003 41.1C15.9003 41.1 15.9003 41.1 15.9003 41L16.0003 40.9C16.0003 40.9 16.0003 40.8 16.1003 40.8C16.1003 40.8 16.1003 40.8 16.2003 40.7C16.2003 40.7 16.2003 40.7 16.3003 40.6C16.3003 40.6 16.3003 40.6 16.4003 40.5C16.4003 40.5 16.4003 40.5 16.5003 40.4C16.5003 40.4 16.5003 40.4 16.6003 40.3C16.6003 40.3 16.6003 40.3 16.7003 40.2C16.7003 40.2 16.7003 40.2 16.8003 40.1C16.8003 40.1 16.8003 40.1 16.9003 40C16.9003 40 16.9003 40 17.0003 39.9C17.0003 39.9 17.0003 39.9 17.1003 39.9C17.1003 39.9 17.1003 39.9 17.2003 39.9C17.2003 39.9 17.2003 39.9 17.3003 39.9L24.1003 36C24.1003 36 24.1003 36 24.2003 36C24.2003 36 24.2003 36 24.3003 36C24.3003 36 24.3003 36 24.4003 36C24.4003 36 24.4003 36 24.5003 36C24.5003 36 24.5003 36 24.6003 36C24.6003 36 24.6003 36 24.7003 36C24.7003 36 24.7003 36 24.8003 36C24.8003 36 24.8003 36 24.9003 36H25.0003H25.1003H25.2003C25.2003 36 25.3003 36 25.3003 36.1L30.7003 39.2L32.4003 37.4C32.4003 37.4 32.4003 37.4 32.5003 37.3C32.5003 37.3 32.5003 37.3 32.6003 37.2C32.6003 37.2 32.6003 37.2 32.7003 37.1C32.7003 37.1 32.7003 37.1 32.8003 37C32.8003 37 32.8003 37 32.9003 36.9C32.9003 36.9 32.9003 36.9 33.0003 36.9C33.0003 36.9 33.0003 36.9 33.1003 36.9C33.1003 36.9 33.1003 36.9 33.2003 36.9C33.2003 36.9 33.2003 36.9 33.3003 36.9C33.3003 36.9 33.3003 36.9 33.4003 36.9C33.4003 36.9 33.4003 36.9 33.5003 36.9C33.5003 36.9 33.5003 36.9 33.6003 36.9C33.6003 36.9 33.6003 36.9 33.7003 36.9C33.7003 36.9 33.7003 36.9 33.8003 36.9C33.8003 36.9 33.8003 36.9 33.9003 36.9C33.9003 36.9 33.9003 36.9 34.0003 36.9C34.0003 36.9 34.0003 36.9 34.1003 36.9H34.2003H34.3003H34.4003C34.4003 36.9 34.5003 36.9 34.5003 37L41.5003 41.1C41.4003 41.1 41.3003 41 41.3003 41C41.2003 41 41.1003 41 41.0003 41" stroke="#171A21" stroke-width="2" stroke-miterlimit="10" stroke-linecap="round" stroke-linejoin="round"/>
<path d="M14.5004 71.8001C14.4004 70.8001 14.4004 69.8001 14.5004 68.7001L11.2004 67.7001C10.6004 67.5001 10.4004 66.6001 10.8004 65.6001L14.2004 57.0001C14.5004 56.2001 15.0004 55.6001 15.6004 55.3001C15.8004 55.2001 16.0004 55.1001 16.2004 55.1001L20.0004 54.7001C20.7004 53.7001 21.5004 52.7001 22.3004 51.8001L22.9004 46.8001C23.0004 45.8001 23.7004 44.8001 24.5004 44.3001L31.3004 40.4001C32.1004 40.0001 32.7004 40.2001 32.8004 41.1001L33.4004 45.4001C34.2004 45.4001 35.0004 45.4001 35.7004 45.6001L39.5004 41.6001C39.7004 41.4001 39.9004 41.3001 40.1004 41.1001C40.7004 40.8001 41.2004 40.8001 41.5004 41.2001L44.9004 46.0001C45.3004 46.6001 45.1004 47.6001 44.5004 48.6001L41.3004 53.4001C41.4004 54.4001 41.4004 55.4001 41.3004 56.5001L44.6004 57.5001C45.2004 57.7001 45.4004 58.6001 45.0004 59.6001L41.6004 68.2001C41.3004 69.0001 40.8004 69.6001 40.2004 69.9001C40.0004 70.0001 39.8004 70.1001 39.6004 70.1001L35.8004 70.5001C35.1004 71.5001 34.3004 72.5001 33.5004 73.4001L32.9004 78.4001C32.8004 79.3001 32.1004 80.4001 31.4004 80.8001L24.6004 84.7001C23.8004 85.1001 23.2004 84.9001 23.1004 84.0001L22.5004 79.7001C21.7004 79.7001 20.9004 79.7001 20.2004 79.5001L16.4004 83.5001C16.2004 83.7001 16.0004 83.8001 15.8004 84.0001C15.2004 84.3001 14.7004 84.3001 14.4004 83.9001L11.0004 79.1001C10.6004 78.5001 10.8004 77.5001 11.4004 76.6001L14.5004 71.8001ZM27.9004 71.0001C32.0004 68.7001 35.2004 63.0001 35.2004 58.3001C35.2004 53.6001 31.9004 51.8001 27.8004 54.1001C23.7004 56.4001 20.5004 62.1001 20.5004 66.8001C20.5004 71.5001 23.8004 73.4001 27.9004 71.0001Z" fill="#2F58FF"/>
</svg>
