<svg width="144" height="144" viewBox="0 0 144 144" fill="none" xmlns="http://www.w3.org/2000/svg">
<path d="M1.5 87.6001C1.5 87.7001 1.5 87.7001 1.5 87.8001C1.5 87.9001 1.5 87.9001 1.5 88.0001C1.5 88.1001 1.5 88.1001 1.6 88.2001C1.6 88.3001 1.6 88.3001 1.7 88.4001C1.7 88.5001 1.8 88.5001 1.8 88.6001C1.8 88.7001 1.9 88.7001 1.9 88.7001C2 88.8001 2 88.9001 2.1 89.0001L2.2 89.1001C2.3 89.2001 2.4 89.3001 2.5 89.4001L2.6 89.5001C2.7 89.6001 2.7 89.6001 2.8 89.7001C2.9 89.7001 2.9 89.8001 3 89.8001C3 89.9001 3.1 90.0001 3.2 90.0001C3.3 90.1001 3.4 90.1001 3.5 90.2001L80.5 135C80.7 135.1 80.9 135.2 81.1 135.3C81.2 135.3 81.2 135.4 81.3 135.4C81.5 135.5 81.6 135.5 81.8 135.6C81.9 135.6 81.9 135.6 82 135.7C82.1 135.7 82.2 135.8 82.3 135.8C82.4 135.8 82.5 135.8 82.6 135.9C82.7 135.9 82.8 136 83 136C83.1 136 83.2 136 83.3 136.1C83.6 136.1 83.8 136.2 84.1 136.2C84.2 136.2 84.3 136.2 84.3 136.2C84.5 136.2 84.6 136.2 84.8 136.2C84.9 136.2 85 136.2 85.1 136.2C85.2 136.2 85.3 136.2 85.5 136.2C85.6 136.2 85.7 136.2 85.8 136.2C85.9 136.2 86 136.2 86.1 136.2C86.2 136.2 86.3 136.2 86.4 136.2C86.5 136.2 86.6 136.2 86.7 136.2C86.8 136.2 86.9 136.2 87 136.2C87.1 136.2 87.2 136.2 87.4 136.1C87.5 136.1 87.6 136.1 87.7 136C87.8 136 88 135.9 88.1 135.9C88.2 135.9 88.3 135.9 88.3 135.8C88.5 135.7 88.8 135.6 89 135.6C89.1 135.6 89.2 135.5 89.3 135.5C89.4 135.5 89.4 135.5 89.5 135.4C89.7 135.3 89.8 135.2 90 135.1L140.8 105.8C142.1 105 142.8 104 142.8 103V109.4C142.8 110.4 142.1 111.4 140.8 112.2L90 141.5C89.8 141.6 89.7 141.7 89.5 141.8C89.4 141.8 89.4 141.8 89.3 141.9C89.2 141.9 89.1 142 89 142C88.8 142.1 88.5 142.2 88.3 142.2C88.3 142.2 88.3 142.2 88.2 142.2C88.1 142.2 88.1 142.2 88 142.2C87.9 142.2 87.7 142.3 87.6 142.3H87.5C87.4 142.3 87.4 142.3 87.3 142.3C87.2 142.3 87.1 142.3 86.9 142.4H86.8C86.7 142.4 86.7 142.4 86.6 142.4C86.5 142.4 86.4 142.4 86.3 142.4C86.2 142.4 86.2 142.4 86.1 142.4C86.1 142.4 86 142.4 85.9 142.4C85.8 142.4 85.7 142.4 85.6 142.4C85.5 142.4 85.5 142.4 85.4 142.4H85.3C85.2 142.4 85.1 142.4 84.9 142.4C84.8 142.4 84.8 142.4 84.7 142.4H84.6C84.4 142.4 84.3 142.4 84.1 142.4C84 142.4 84 142.4 83.9 142.4C83.9 142.4 83.9 142.4 83.8 142.4C83.5 142.4 83.3 142.3 83 142.3C82.9 142.3 82.9 142.3 82.8 142.3C82.7 142.3 82.6 142.3 82.4 142.2C82.3 142.2 82.2 142.2 82.1 142.1C82 142.1 81.9 142 81.8 142H81.7H81.6C81.4 141.9 81.2 141.9 81.1 141.8C81 141.8 81 141.7 80.9 141.7C80.7 141.6 80.5 141.5 80.3 141.4L3.5 96.6001H3.4C3.3 96.6001 3.3 96.5001 3.2 96.5001C3.1 96.4001 3 96.4001 3 96.3001C2.9 96.3001 2.9 96.2001 2.8 96.2001C2.7 96.1001 2.7 96.0001 2.6 96.0001C2.6 96.0001 2.6 95.9001 2.5 95.9001C2.4 95.8001 2.3 95.7001 2.2 95.6001C2.2 95.6001 2.2 95.6001 2.1 95.5001C2.1 95.5001 2.1 95.5001 2.1 95.4001C2 95.3001 2 95.3001 1.9 95.2001C1.9 95.2001 1.9 95.1001 1.8 95.1001C1.8 95.1001 1.8 95.1001 1.8 95.0001C1.8 94.9001 1.7 94.9001 1.7 94.8001C1.7 94.8001 1.7 94.7001 1.6 94.7001C1.6 94.6001 1.6 94.6001 1.5 94.5001V94.4001C1.5 94.3001 1.5 94.3001 1.5 94.2001V94.1001C1.5 94.1001 1.5 94.1001 1.5 94.0001V87.6001C1.5 87.6001 1.5 87.5001 1.5 87.6001Z" fill="white"/>
<path d="M142.9 102.9V109.3C142.9 110.3 142.2 111.3 140.9 112.1L90.1 141.4C89.9 141.5 89.8 141.6 89.6 141.7C89.5 141.7 89.5 141.7 89.4 141.8C89.3 141.8 89.2 141.9 89.1 141.9C88.9 142 88.6 142.1 88.4 142.1C88.4 142.1 88.4 142.1 88.3 142.1C88.2 142.1 88.2 142.1 88.1 142.1C88 142.1 87.8 142.2 87.7 142.2H87.6C87.5 142.2 87.5 142.2 87.4 142.2C87.3 142.2 87.2 142.2 87 142.3H86.9C86.8 142.3 86.8 142.3 86.7 142.3C86.6 142.3 86.5 142.3 86.4 142.3C86.3 142.3 86.3 142.3 86.2 142.3C86.2 142.3 86.1 142.3 86 142.3C85.9 142.3 85.8 142.3 85.7 142.3C85.6 142.3 85.6 142.3 85.5 142.3H85.4C85.3 142.3 85.2 142.3 85 142.3C84.9 142.3 84.9 142.3 84.8 142.3H84.7C84.5 142.3 84.4 142.3 84.2 142.3C84.1 142.3 84.1 142.3 84 142.3C84 142.3 84 142.3 83.9 142.3C83.6 142.3 83.4 142.2 83.1 142.2C83 142.2 83 142.2 82.9 142.2C82.8 142.2 82.7 142.2 82.5 142.1C82.4 142.1 82.3 142.1 82.2 142C82.1 142 82 141.9 81.9 141.9H81.8H81.7C81.5 141.8 81.3 141.8 81.2 141.7C81.1 141.7 81.1 141.6 81 141.6C80.8 141.5 80.6 141.4 80.4 141.3L3.5 96.6001H3.4C3.3 96.6001 3.3 96.5001 3.2 96.5001C3.1 96.4001 3 96.4001 3 96.3001C2.9 96.3001 2.9 96.2001 2.8 96.2001C2.7 96.1001 2.7 96.0001 2.6 96.0001C2.6 96.0001 2.6 95.9001 2.5 95.9001C2.4 95.8001 2.3 95.7001 2.2 95.6001C2.2 95.6001 2.2 95.6001 2.1 95.5001C2.1 95.5001 2.1 95.5001 2.1 95.4001C2 95.3001 2 95.3001 1.9 95.2001C1.9 95.2001 1.9 95.1001 1.8 95.1001C1.8 95.1001 1.8 95.1001 1.8 95.0001C1.8 94.9001 1.7 94.9001 1.7 94.8001C1.7 94.8001 1.7 94.7001 1.6 94.7001C1.6 94.6001 1.6 94.6001 1.5 94.5001V94.4001C1.5 94.3001 1.5 94.3001 1.5 94.2001V94.1001C1.5 94.1001 1.5 94.1001 1.5 94.0001V87.6001C1.5 87.7001 1.5 87.7001 1.5 87.8001C1.5 87.9001 1.5 87.9001 1.5 88.0001C1.5 88.1001 1.5 88.1001 1.5 88.2001C1.5 88.3001 1.5 88.3001 1.6 88.4001C1.6 88.5001 1.6 88.5001 1.7 88.6001" stroke="#171A21" stroke-width="2" stroke-miterlimit="10" stroke-linecap="round" stroke-linejoin="round"/>
<path d="M3.5001 84.6C0.800098 86.1 0.800098 88.6 3.5001 90.1L80.5001 135C83.1001 136.5 87.4001 136.5 90.1001 135L140.9 105.7C143.5 104.2 143.6 101.7 140.9 100.2L63.8001 55.3C61.2001 53.8 56.9001 53.8 54.2001 55.3L3.5001 84.6Z" fill="#2F58FF"/>
<path d="M15.0999 85.9001L56.2999 62.1001C58.0999 61.1001 60.8999 61.1001 62.6999 62.1001L122.4 96.8001C124.2 97.8001 124.1 99.5001 122.4 100.5L81.1999 124.3C79.3999 125.3 76.5999 125.3 74.7999 124.3L15.0999 89.6001C13.2999 88.6001 13.3999 86.9001 15.0999 85.9001Z" fill="#F1F9FD"/>
<path d="M106.9 114.7C108.4 113.9 110.8 113.9 112.2 114.7C113.7 115.5 113.7 116.9 112.2 117.8C110.7 118.6 108.3 118.6 106.9 117.8C105.5 117 105.5 115.6 106.9 114.7Z" fill="#F1F9FD"/>
<path d="M105 34.8C103 34.4 100.7 34.2 98.6001 34.4" stroke="#171A21" stroke-width="2" stroke-miterlimit="10" stroke-linecap="round" stroke-linejoin="round"/>
<path d="M96.3999 30.2L48.1999 2.40003C45.9999 1.10003 44.0999 2.10003 44.0999 4.70003L43.8999 73C43.8999 75.6 45.6999 78.7 47.8999 80L96.0999 107.8C98.2999 109.1 100.2 108.1 100.2 105.5L100.4 37.2C100.5 34.6 98.6999 31.5 96.3999 30.2Z" fill="white"/>
<path d="M100.3 77.4L100.4 37.2C100.4 34.6 98.5999 31.5 96.3999 30.2L48.1999 2.40003C45.9999 1.10003 44.0999 2.10003 44.0999 4.70003L43.9999 61.4M43.8999 68.5V73C43.8999 75.6 45.6999 78.7 47.8999 80L96.0999 107.8C98.2999 109.1 100.2 108.1 100.2 105.5L100.3 84" stroke="#171A21" stroke-width="2" stroke-miterlimit="10" stroke-linecap="round" stroke-linejoin="round"/>
<path d="M91.6001 39.8001C93.0001 40.6001 94.1001 39.9001 94.1001 38.4001C94.1001 36.8001 93.0001 34.9001 91.6001 34.1001C90.2001 33.3001 89.1001 34.0001 89.1001 35.5001C89.1001 37.1001 90.2001 39.0001 91.6001 39.8001Z" fill="#2F58FF"/>
<path d="M107.1 33.4001C107 33.4001 107 33.3001 107 33.3001H106.9H106.8C106.7 33.3001 106.7 33.3001 106.6 33.3001C106.5 33.3001 106.5 33.3001 106.5 33.3001H106.4H106.3H106.2H106.1H106L112.8 29.4001H112.9H113H113.1H113.2H113.3H113.4C113.5 29.4001 113.5 29.4001 113.6 29.4001H113.7H113.8H113.9C113.9 29.4001 114 29.4001 114 29.5001L125.2 35.9001C125.3 35.9001 125.3 36.0001 125.4 36.0001C125.4 36.0001 125.4 36.0001 125.5 36.0001C125.5 36.0001 125.6 36.0001 125.6 36.1001C125.6 36.1001 125.6 36.1001 125.7 36.1001C125.7 36.1001 125.8 36.1001 125.8 36.2001C125.8 36.2001 125.8 36.2001 125.9 36.2001L126 36.3001C126 36.3001 126 36.3001 126.1 36.3001L126.2 36.4001C126.2 36.4001 126.2 36.4001 126.3 36.4001L126.4 36.5001L126.5 36.6001C126.6 36.7001 126.6 36.7001 126.7 36.8001C126.7 36.8001 126.8 36.9001 126.8 37.0001C126.9 37.1001 127 37.2001 127.1 37.3001C127.2 37.4001 127.2 37.5001 127.3 37.6001C127.4 37.7001 127.4 37.8001 127.5 37.9001C127.5 38.0001 127.6 38.0001 127.6 38.1001V38.2001L141.7 63.0001C141.7 63.1001 141.8 63.1002 141.8 63.2001C141.8 63.3001 141.9 63.4001 141.9 63.5001C141.9 63.6001 142 63.6002 142 63.7001C142 63.8001 142.1 63.9001 142.1 64.0001C142.1 64.1001 142.2 64.2001 142.2 64.3001C142.2 64.4001 142.3 64.5001 142.3 64.6001V64.7001V64.8001V64.9001V65.0001C142.3 65.1001 142.3 65.1001 142.3 65.2001V65.3001C142.3 65.4001 142.3 65.4001 142.3 65.4001C142.3 65.5001 142.3 65.5001 142.3 65.6001V65.7001C142.3 65.8001 142.3 65.8001 142.3 65.9001C142.3 66.0001 142.3 66.0001 142.3 66.1001C142.3 66.1001 142.3 66.1001 142.3 66.2001C142.3 66.3001 142.3 66.3001 142.3 66.4001C142.3 66.4001 142.3 66.4001 142.3 66.5001V66.6001C142.3 66.6001 142.3 66.6001 142.3 66.7001V66.8001C142.3 66.8001 142.3 66.8001 142.3 66.9001C142.3 67.0001 142.3 67.0001 142.3 67.1001C142.3 67.2001 142.3 67.2001 142.3 67.3001C142.3 67.3001 142.3 67.3001 142.3 67.4001V67.5001C142.3 67.5001 142.3 67.5001 142.3 67.6001V67.7001C142.3 67.7001 142.3 67.7001 142.3 67.8001C142.3 67.8001 142.3 67.9001 142.2 67.9001L142.1 68.0001L142 68.1001L141.9 68.2001C141.9 68.2001 141.8 68.2001 141.8 68.3001L141.7 68.4001L135 73.0001L135.1 72.9001C135.1 72.9001 135.2 72.9001 135.2 72.8001L135.3 72.7001L135.4 72.6001L135.5 72.5001C135.5 72.5001 135.5 72.4001 135.6 72.4001C135.6 72.4001 135.6 72.4001 135.6 72.3001V72.2001C135.6 72.2001 135.6 72.2001 135.6 72.1001V72.0001C135.6 72.0001 135.6 72.0001 135.6 71.9001C135.6 71.8001 135.6 71.8001 135.6 71.7001C135.6 71.6001 135.6 71.6001 135.6 71.5001C135.6 71.5001 135.6 71.5001 135.6 71.4001V71.3001C135.6 71.3001 135.6 71.3001 135.6 71.2001V71.1001C135.6 71.1001 135.6 71.1001 135.6 71.0001C135.6 70.9001 135.6 70.9001 135.6 70.8001C135.6 70.8001 135.6 70.8001 135.6 70.7001C135.6 70.6001 135.6 70.6001 135.6 70.5001C135.6 70.4001 135.6 70.4001 135.6 70.3001V70.2001C135.6 70.1001 135.6 70.1001 135.6 70.0001V69.9001V69.8001V69.7001C135.6 69.6001 135.6 69.6001 135.6 69.5001C135.6 69.5001 135.6 69.5001 135.6 69.4001V69.3001V69.2001V69.1001V69.0001C135.6 68.9001 135.5 68.8001 135.5 68.7001C135.5 68.7001 135.5 68.7001 135.5 68.6001C135.5 68.5001 135.4 68.4001 135.4 68.3001C135.4 68.2001 135.3 68.1001 135.3 68.0001C135.3 68.0001 135.3 68.0001 135.3 67.9001C135.3 67.8001 135.2 67.8001 135.2 67.7001V67.6001C135.2 67.5001 135.1 67.4001 135.1 67.3001C135.1 67.2001 135 67.2001 135 67.1001L120.9 42.3001C120.9 42.3001 120.9 42.2001 120.8 42.2001C120.8 42.1001 120.7 42.1001 120.7 42.0001C120.7 42.0001 120.7 42.0001 120.7 41.9001C120.6 41.8001 120.6 41.7001 120.5 41.6001C120.4 41.5001 120.4 41.4001 120.3 41.3001C120.2 41.2001 120.1 41.1001 120 41.0001C120 40.9001 119.9 40.9001 119.9 40.8001C119.8 40.7001 119.8 40.7001 119.7 40.6001C119.6 40.6001 119.6 40.5001 119.5 40.5001L119.4 40.4001C119.4 40.4001 119.4 40.4001 119.3 40.4001L119.2 40.3001C119.2 40.3001 119.2 40.3001 119.1 40.3001L119 40.2001C119 40.2001 119 40.2001 118.9 40.2001C118.9 40.2001 118.8 40.2001 118.8 40.1001C118.8 40.1001 118.8 40.1001 118.7 40.1001C118.7 40.1001 118.6 40.1001 118.6 40.0001C118.6 40.0001 118.6 40.0001 118.5 40.0001C118.4 40.0001 118.4 39.9001 118.3 39.9001L115.5 38.3001V38.4001C115.5 38.4001 115.5 38.4001 115.5 38.5001V38.6001C115.5 38.6001 115.5 38.6001 115.5 38.7001V38.8001C115.5 38.8001 115.5 38.8001 115.5 38.9001C115.5 39.0001 115.5 39.1001 115.6 39.2001C115.6 39.3001 115.6 39.3001 115.7 39.4001C115.7 39.5001 115.8 39.5001 115.8 39.6001C115.8 39.6001 115.8 39.6001 115.8 39.7001C115.8 39.8001 115.8 39.8001 115.9 39.9001C115.9 40.0001 116 40.0001 116 40.1001C116 40.1001 116 40.1001 116 40.2001C116 40.3001 116.1 40.3001 116.1 40.4001C116.1 40.5001 116.2 40.5001 116.2 40.6001C116.2 40.7001 116.3 40.7001 116.3 40.8001C116.3 40.9001 116.4 40.9001 116.4 41.0001C116.4 41.1001 116.5 41.1001 116.5 41.2001C116.6 41.3001 116.6 41.4001 116.7 41.4001L116.8 41.5001L116.9 41.6001C117 41.7001 117 41.7001 117.1 41.8001C117.2 41.9001 117.2 41.9001 117.3 42.0001C117.4 42.0001 117.4 42.1001 117.5 42.1001C117.6 42.1001 117.6 42.2001 117.7 42.2001C117.8 42.2001 117.8 42.3001 117.9 42.3001C117.9 42.3001 118 42.3001 118 42.4001H118.1H118.2H118.3H118.4C118.5 42.4001 118.5 42.4001 118.6 42.4001C118.7 42.4001 118.7 42.4001 118.8 42.4001H118.9H119H119.1H119.2L112.4 46.3001H112.3H112.2H112.1H112C112 46.3001 111.9 46.3001 111.8 46.3001C111.7 46.3001 111.7 46.3001 111.6 46.3001H111.5H111.4H111.3H111.2C111.2 46.3001 111.1 46.3001 111.1 46.2001C111 46.2001 111 46.1001 110.9 46.1001C110.8 46.1001 110.8 46.0001 110.7 46.0001C110.6 46.0001 110.6 45.9001 110.5 45.9001C110.4 45.8001 110.4 45.8001 110.3 45.7001C110.2 45.6001 110.2 45.6001 110.1 45.5001L110 45.4001L109.9 45.3001C109.8 45.2001 109.8 45.1001 109.7 45.1001C109.7 45.0001 109.6 45.0001 109.6 44.9001C109.6 44.8001 109.5 44.8001 109.5 44.7001C109.5 44.6001 109.4 44.6001 109.4 44.5001C109.4 44.4001 109.3 44.4001 109.3 44.3001C109.3 44.2001 109.2 44.2001 109.2 44.1001C109.2 44.0001 109.1 44.0001 109.1 43.9001C109.1 43.8001 109 43.8001 109 43.7001C109 43.6001 108.9 43.6001 108.9 43.5001C108.9 43.4001 108.9 43.4001 108.8 43.3001C108.8 43.2001 108.8 43.1001 108.7 43.0001V42.9001C108.7 42.9001 108.7 42.9001 108.7 42.8001V42.7001C108.7 42.7001 108.7 42.7001 108.7 42.6001C108.7 42.5001 108.7 42.5001 108.7 42.4001C108.7 42.3001 108.7 42.2001 108.7 42.2001C108.7 41.4001 109 40.8001 109.5 40.5001L114.1 37.8001L107.1 33.8001C107.2 33.5001 107.2 33.5001 107.1 33.4001Z" fill="#2F58FF"/>
<path d="M107.2 33.5001L118.4 39.9001C119.3 40.4001 120.2 41.4001 120.9 42.6001L135 67.4001C136.3 69.7001 136.3 72.3001 135 73.1001L125.3 78.6001C124.6 79.0001 123.7 78.9001 122.8 78.3001C121.9 77.8001 121 76.9001 120.3 75.7001L106 51.1001C105.3 50.0001 105 48.7001 105 47.6001L105.1 34.8001C105 33.4001 106 32.8001 107.2 33.5001ZM111.5 46.4001C112.9 47.2001 114.1 46.6001 114.1 44.9001C114.1 43.3001 112.9 41.3001 111.5 40.4001C110.1 39.6001 108.9 40.2001 108.9 41.9001C108.9 43.6001 110 45.6001 111.5 46.4001Z" fill="#F1F9FD"/>
<path d="M107.2 33.5001C106 32.8001 105 33.4001 105 34.8001L104.9 47.6001C104.9 48.7001 105.3 50.0001 105.9 51.1001L120.3 75.7001C121 76.9001 121.9 77.7001 122.8 78.3001C123.7 78.8001 124.6 78.9001 125.3 78.6001L135 73.0001C136.4 72.2001 136.4 69.7001 135 67.3001" stroke="#171A21" stroke-width="2" stroke-miterlimit="10" stroke-linecap="round" stroke-linejoin="round"/>
<path d="M111.5 46.4003C110.1 45.6003 108.9 43.6003 108.9 41.9003C108.9 40.3003 110.1 39.6003 111.5 40.4003C112.9 41.2003 114.1 43.2003 114.1 44.9003C114.1 46.5003 112.9 47.2003 111.5 46.4003Z" fill="#2F58FF"/>
<path d="M92.6999 36.4001C92.3999 36.5001 92.1999 36.6001 91.9999 36.8001C87.4999 39.2001 87.4999 43.1001 91.8999 45.5001C96.3999 47.9001 103.7 47.9001 108.2 45.5001C110.3 44.4001 111.4 43.0001 111.6 41.6001" stroke="#171A21" stroke-width="2" stroke-miterlimit="10" stroke-linecap="round" stroke-linejoin="round"/>
<path d="M52.1001 41.6999C52.1001 41.7999 52.1001 41.8999 52.1001 41.8999C52.1001 41.9999 52.1001 41.9999 52.1001 42.0999C52.1001 42.1999 52.1001 42.2999 52.1001 42.2999C52.1001 42.3999 52.1001 42.3999 52.1001 42.4999C52.1001 42.5999 52.1001 42.6999 52.2001 42.6999C52.2001 42.7999 52.2001 42.7999 52.3001 42.8999C52.3001 42.9999 52.3001 43.0999 52.4001 43.0999C52.4001 43.1999 52.5001 43.1999 52.5001 43.2999C52.5001 43.3999 52.6001 43.4999 52.6001 43.4999C52.6001 43.5999 52.7001 43.5999 52.7001 43.6999C52.7001 43.7999 52.8001 43.8999 52.8001 43.8999C52.8001 43.9999 52.9001 43.9999 52.9001 44.0999C53.0001 44.1999 53.0001 44.2999 53.1001 44.3999C53.1001 44.4999 53.2001 44.4999 53.2001 44.5999C53.3001 44.6999 53.3001 44.7999 53.4001 44.8999L53.5001 44.9999C53.6001 45.1999 53.8001 45.2999 53.9001 45.4999L54.0001 45.5999C54.1001 45.6999 54.2001 45.7999 54.4001 45.9999C54.5001 46.0999 54.5001 46.0999 54.6001 46.1999C54.7001 46.2999 54.8001 46.2999 54.8001 46.3999C54.9001 46.4999 54.9001 46.4999 55.0001 46.5999C55.1001 46.6999 55.2001 46.6999 55.3001 46.7999C55.4001 46.8999 55.5001 46.8999 55.5001 46.9999C55.6001 47.0999 55.7001 47.0999 55.8001 47.1999C55.9001 47.2999 56.0001 47.2999 56.1001 47.3999C56.2001 47.4999 56.3001 47.4999 56.4001 47.5999C56.5001 47.6999 56.6001 47.7999 56.8001 47.7999C57.0001 47.8999 57.3001 48.0999 57.5001 48.1999C57.6001 48.1999 57.6001 48.2999 57.7001 48.2999C57.9001 48.3999 58.1001 48.4999 58.3001 48.5999C58.4001 48.5999 58.4001 48.6999 58.5001 48.6999C58.8001 48.7999 59.0001 48.8999 59.3001 48.9999C59.3001 48.9999 59.4001 48.9999 59.4001 49.0999C59.6001 49.1999 59.9001 49.2999 60.1001 49.2999C60.2001 49.2999 60.3001 49.3999 60.4001 49.3999C60.5001 49.3999 60.7001 49.4999 60.8001 49.4999C60.9001 49.4999 61.0001 49.5999 61.1001 49.5999C61.2001 49.5999 61.4001 49.6999 61.5001 49.6999C61.6001 49.6999 61.7001 49.7999 61.8001 49.7999C61.9001 49.7999 62.1001 49.8999 62.2001 49.8999C62.3001 49.8999 62.4001 49.9999 62.5001 49.9999C62.6001 49.9999 62.8001 50.0999 62.9001 50.0999C63.0001 50.0999 63.1001 50.0999 63.2001 50.1999C63.5001 50.2999 63.8001 50.2999 64.1001 50.2999H64.2001C64.5001 50.2999 64.7001 50.3999 65.0001 50.3999C65.1001 50.3999 65.2001 50.3999 65.3001 50.3999C65.5001 50.3999 65.6001 50.3999 65.8001 50.3999C65.9001 50.3999 66.0001 50.3999 66.1001 50.3999C66.3001 50.3999 66.5001 50.3999 66.6001 50.3999C66.7001 50.3999 66.8001 50.3999 66.9001 50.3999C67.1001 50.3999 67.2001 50.3999 67.4001 50.3999C67.5001 50.3999 67.6001 50.3999 67.7001 50.3999C67.9001 50.3999 68.0001 50.3999 68.2001 50.3999C68.3001 50.3999 68.4001 50.3999 68.5001 50.3999C68.7001 50.3999 68.8001 50.3999 69.0001 50.3999C69.1001 50.3999 69.2001 50.3999 69.3001 50.3999C69.5001 50.3999 69.6001 50.3999 69.8001 50.3999C69.9001 50.3999 70.0001 50.3999 70.1001 50.3999C70.3001 50.3999 70.5001 50.3999 70.7001 50.2999C70.8001 50.2999 70.8001 50.2999 70.9001 50.2999C71.2001 50.2999 71.4001 50.1999 71.7001 50.1999H71.8001C72.0001 50.1999 72.2001 50.0999 72.5001 50.0999C72.6001 50.0999 72.7001 50.0999 72.8001 49.9999C73.0001 49.9999 73.1001 49.8999 73.3001 49.8999C73.4001 49.8999 73.5001 49.8999 73.6001 49.7999C73.8001 49.7999 74.0001 49.6999 74.1001 49.6999C74.2001 49.6999 74.3001 49.5999 74.4001 49.5999C74.6001 49.5999 74.7001 49.4999 74.9001 49.4999C75.0001 49.4999 75.1001 49.3999 75.2001 49.3999C75.5001 49.2999 75.7001 49.1999 76.0001 49.1999H76.1001C76.4001 49.0999 76.7001 48.9999 77.0001 48.8999C77.1001 48.8999 77.2001 48.7999 77.3001 48.7999C77.4001 48.7999 77.5001 48.6999 77.6001 48.6999C77.7001 48.5999 77.9001 48.5999 78.0001 48.4999C78.1001 48.4999 78.2001 48.3999 78.2001 48.3999C78.3001 48.2999 78.5001 48.2999 78.6001 48.1999C78.7001 48.1999 78.7001 48.0999 78.8001 48.0999C79.0001 47.9999 79.2001 47.8999 79.4001 47.7999C80.8001 46.9999 81.9001 46.0999 82.7001 45.0999C82.9001 44.7999 83.1001 44.4999 83.3001 44.1999C83.4001 44.0999 83.5001 43.8999 83.5001 43.7999C83.9001 42.8999 84.2001 41.9999 84.2001 41.0999L84.5001 67.9999C84.5001 70.3999 82.9001 72.7999 79.7001 74.6999C79.5001 74.7999 79.3001 74.8999 79.1001 74.9999C79.0001 74.9999 79.0001 75.0999 78.9001 75.0999C78.8001 75.1999 78.6001 75.1999 78.5001 75.2999C78.4001 75.2999 78.3001 75.3999 78.3001 75.3999C78.2001 75.4999 78.1001 75.4999 77.9001 75.5999C77.8001 75.5999 77.7001 75.6999 77.6001 75.6999C77.5001 75.6999 77.4001 75.7999 77.3001 75.7999H77.2001C76.9001 75.8999 76.6001 75.9999 76.3001 76.0999H76.2001C75.9001 76.1999 75.7001 76.2999 75.4001 76.2999H75.3001H75.2001C75.0001 76.2999 74.9001 76.3999 74.7001 76.3999C74.6001 76.3999 74.5001 76.4999 74.4001 76.4999C74.2001 76.4999 74.0001 76.5999 73.9001 76.5999C73.8001 76.5999 73.8001 76.5999 73.7001 76.5999C73.7001 76.5999 73.7001 76.5999 73.6001 76.5999C73.4001 76.5999 73.3001 76.6999 73.1001 76.6999C73.0001 76.6999 72.9001 76.6999 72.8001 76.7999C72.6001 76.7999 72.4001 76.8999 72.1001 76.8999H72.0001C71.7001 76.8999 71.5001 76.9999 71.2001 76.9999C71.1001 76.9999 71.1001 76.9999 71.0001 76.9999C70.8001 76.9999 70.6001 76.9999 70.4001 77.0999C70.3001 77.0999 70.2001 77.0999 70.1001 77.0999C69.9001 77.0999 69.8001 77.0999 69.6001 77.0999C69.5001 77.0999 69.4001 77.0999 69.3001 77.0999C69.1001 77.0999 69.0001 77.0999 68.8001 77.0999C68.7001 77.0999 68.6001 77.0999 68.5001 77.0999C68.3001 77.0999 68.2001 77.0999 68.0001 77.0999C67.9001 77.0999 67.8001 77.0999 67.7001 77.0999C67.5001 77.0999 67.4001 77.0999 67.2001 77.0999H67.1001C67.0001 77.0999 67.0001 77.0999 66.9001 77.0999C66.7001 77.0999 66.5001 77.0999 66.4001 77.0999C66.3001 77.0999 66.2001 77.0999 66.1001 77.0999C65.9001 77.0999 65.8001 77.0999 65.6001 77.0999C65.5001 77.0999 65.5001 77.0999 65.4001 77.0999H65.3001C65.0001 77.0999 64.8001 76.9999 64.5001 76.9999H64.4001C64.1001 76.9999 63.8001 76.8999 63.5001 76.8999H63.4001C63.3001 76.8999 63.2001 76.8999 63.2001 76.8999C63.1001 76.8999 62.9001 76.7999 62.8001 76.7999C62.7001 76.7999 62.6001 76.7999 62.5001 76.6999C62.4001 76.6999 62.2001 76.5999 62.1001 76.5999C62.0001 76.5999 61.9001 76.4999 61.8001 76.4999C61.7001 76.4999 61.5001 76.3999 61.4001 76.3999C61.3001 76.3999 61.2001 76.2999 61.1001 76.2999C61.0001 76.2999 60.8001 76.1999 60.7001 76.1999C60.6001 76.1999 60.6001 76.1999 60.5001 76.0999H60.4001C60.2001 75.9999 59.9001 75.8999 59.7001 75.8999C59.7001 75.8999 59.6001 75.8999 59.6001 75.7999C59.3001 75.6999 59.1001 75.5999 58.8001 75.4999C58.7001 75.4999 58.7001 75.3999 58.6001 75.3999C58.4001 75.2999 58.2001 75.1999 58.0001 75.0999C57.9001 75.0999 57.9001 74.9999 57.8001 74.9999C57.5001 74.8999 57.3001 74.6999 57.1001 74.5999C57.0001 74.5999 57.0001 74.4999 56.9001 74.4999C56.8001 74.4999 56.8001 74.3999 56.7001 74.3999C56.6001 74.2999 56.5001 74.2999 56.4001 74.1999C56.3001 74.0999 56.2001 74.0999 56.1001 73.9999C56.0001 73.8999 55.9001 73.8999 55.8001 73.7999C55.7001 73.6999 55.6001 73.6999 55.6001 73.5999C55.5001 73.4999 55.4001 73.4999 55.3001 73.3999C55.2001 73.2999 55.1001 73.2999 55.1001 73.1999C55.0001 73.0999 54.9001 73.0999 54.9001 72.9999L54.8001 72.8999L54.7001 72.7999C54.6001 72.6999 54.5001 72.5999 54.3001 72.3999L54.2001 72.2999C54.1001 72.0999 53.9001 71.9999 53.8001 71.7999L53.7001 71.6999C53.6001 71.5999 53.5001 71.4999 53.5001 71.3999C53.5001 71.2999 53.4001 71.2999 53.4001 71.1999C53.3001 71.0999 53.3001 70.9999 53.2001 70.8999V70.7999C53.2001 70.7999 53.2001 70.6999 53.1001 70.6999C53.1001 70.5999 53.0001 70.4999 53.0001 70.4999C53.0001 70.3999 52.9001 70.3999 52.9001 70.2999C52.9001 70.1999 52.8001 70.0999 52.8001 70.0999V69.9999V69.8999C52.8001 69.7999 52.7001 69.6999 52.7001 69.6999C52.7001 69.5999 52.7001 69.5999 52.6001 69.4999C52.6001 69.3999 52.6001 69.2999 52.5001 69.2999V69.1999V69.0999C52.5001 68.9999 52.5001 68.8999 52.5001 68.8999C52.5001 68.7999 52.5001 68.7999 52.5001 68.6999C52.5001 68.5999 52.5001 68.4999 52.5001 68.4999V68.3999V68.2999L52.4001 41.5999C52.1001 41.4999 52.1001 41.5999 52.1001 41.6999Z" fill="#2F58FF"/>
<path d="M56.8002 34.7999C50.5002 38.4999 50.4002 44.3999 56.7002 48.0999C63.0002 51.7999 73.3002 51.7999 79.6002 48.0999C85.9002 44.3999 86.0002 38.4999 79.7002 34.7999C73.4002 31.0999 63.2002 31.0999 56.8002 34.7999Z" fill="#F1F9FD"/>
<path d="M83.8001 44.0999C85.4001 40.8999 84.1001 37.2999 79.8001 34.7999C73.5001 31.0999 63.2001 31.0999 56.9001 34.7999C52.5001 37.3999 51.1001 40.9999 52.9001 44.2999" stroke="#171A21" stroke-width="2" stroke-miterlimit="10" stroke-linecap="round" stroke-linejoin="round"/>
<path d="M88.1 65.4999C88.2 59.8999 85.4 55.7999 80.6 52.9999C80.3 52.7999 80 52.7999 79.7 52.9999L79.4 53.1999C79.1 53.3999 78.5 54.3999 78.5 54.7999V56.2999C78.5 56.5999 78.7 56.8999 78.9 57.0999C80.1 57.7999 81.3 58.6999 82.1 59.6999C82.4 60.0999 83.3 61.2999 83.3 64.5999C83.3 65.8999 83.2 66.5999 83 67.0999C82.2 66.9999 81.3 66.4999 80.6 66.0999C80.3 65.8999 80 65.8999 79.7 66.0999L79.5 66.1999C79.1 66.3998 78.5 67.7999 78.5 68.1999V69.7999C78.5 70.0999 78.7 70.3999 79 70.5999C81 71.6999 82.5 72.1999 83.9 72.0999C86.3 71.6999 88.1 68.3999 88.1 65.4999Z" fill="#F1F9FD"/>
<path d="M82 71.6999C82.7 71.8999 83.3 71.8999 83.9 71.8999C86.3 71.6999 88.2 68.3999 88.2 65.4999C88.2 61.4999 86.8 58.1999 84.2 55.5999" stroke="#171A21" stroke-width="2" stroke-miterlimit="10" stroke-linecap="round" stroke-linejoin="round"/>
</svg>
