<svg width="144" height="144" viewBox="0 0 144 144" fill="none" xmlns="http://www.w3.org/2000/svg">
<path d="M17.7644 23.2001C17.6651 23.2001 17.6651 23.2001 17.7644 23.2001C17.2682 22.9001 16.8712 22.8001 16.2758 22.7001C15.4818 22.6001 14.6879 22.8001 14.1917 23.1001L10.619 25.2001C10.0235 25.5001 9.82503 26.0001 9.92427 26.5001L17.0697 51.2001L35.6279 41.8001C18.3598 23.9001 18.0621 23.4001 17.7644 23.2001Z" fill="#2F58FF"/>
<path d="M63.2173 21.0999L53.2931 27.7999C52.5984 26.4999 51.0105 17.4999 50.4151 14.0999C50.3158 13.2999 50.5143 12.4999 51.209 11.9999L51.606 11.6999C52.1022 11.2999 52.6976 11.2999 53.1938 11.6999L63.118 20.8999L63.2173 21.0999Z" fill="#2F58FF"/>
<path d="M68.3778 21.2C68.3778 21.1 68.3778 21.1 68.2786 21C67.8816 20 67.2862 20.1 66.2937 20.1C66.1945 20.1 65.996 20.2 65.599 20.4L68.874 3.70002C69.0725 2.60002 67.9808 1.70002 66.9884 2.00002C65.996 2.60002 64.5074 3.70002 64.0112 5.00002C62.2248 9.70003 56.4688 21.4 55.0794 26C39.4984 34.5 13.1001 49.3 9.82509 51.9C4.86299 55.9 6.35162 59.9 3.47361 63C1.48877 65.2 1.48877 66.3 1.48877 66.3C1.48877 66.4 1.48877 66.5 1.48877 66.5C1.48877 67 1.68725 67.4 1.98498 67.7C3.77133 69.4 10.1228 67.5 14.8864 66.2C20.5432 64.6 54.8809 42.4 56.4688 41.1C58.0567 39.8 67.1869 27.3 68.3778 24.4C69.1717 22.4 69.0725 22.2 68.7748 21.9C68.6755 21.7 68.4771 21.6 68.3778 21.2Z" fill="white"/>
<path d="M15.8797 48.1C12.8032 49.9 10.7191 51.3 9.92519 51.9C4.96309 55.9 6.45172 59.9 3.57371 63C1.58887 65.2 1.58887 66.3 1.58887 66.3C1.58887 66.4 1.58887 66.5 1.58887 66.5C1.58887 67 1.78735 67.4 2.08508 67.7C3.87143 69.4 10.2229 67.5 14.9865 66.2C20.6433 64.6 54.981 42.4 56.5689 41.1C58.1568 39.8 67.0885 27.1 68.4779 24.4C69.4703 22.5 69.2718 21.4 68.6764 21C67.7832 20.4 66.1953 20.2 65.7984 20.4L69.0734 3.70002C69.2718 2.60002 68.1802 1.70002 67.1878 2.00002C66.1953 2.60002 64.7067 3.70002 64.2105 5.00002C62.9204 7.80002 60.5386 13 58.4545 17.7" stroke="#171A21" stroke-width="2" stroke-miterlimit="10" stroke-linecap="round" stroke-linejoin="round"/>
<path d="M54.9801 26.1001C48.5293 29.6001 40.193 34.2001 32.4521 38.6001" stroke="#171A21" stroke-width="2" stroke-miterlimit="10" stroke-linecap="round" stroke-linejoin="round"/>
<path d="M84.0581 31.4001C84.6535 31.6001 84.6535 32.5001 84.0581 32.7001C83.1649 33.1001 81.7755 33.2001 80.4854 33.2001C75.821 32.9001 64.3089 33.7001 59.7438 33.0001C58.5529 32.8001 57.8582 32.5001 57.759 32.1001C57.2628 28.9 66.79 24.3 66.79 24.3L67.1869 24.5L84.0581 31.4001Z" fill="#2F58FF"/>
<path d="M72.943 57.1C72.6452 56.9 71.9505 56.7 41.8802 47C41.384 46.8 40.6893 46.9 40.2924 47.2L26.3985 56.6C25.9023 56.9 26.0015 57.4 26.4977 57.6C26.6962 57.7 26.8947 57.8 27.1924 57.8L67.3854 61.7001C68.1793 61.8 68.9733 61.6 69.5687 61.3L73.1414 59.2001C73.7369 58.9001 73.9354 58.4 73.8361 58C73.6376 57.6 73.4392 57.3 72.943 57.1C73.0422 57.1 73.0422 57.1 72.943 57.1Z" fill="#2F58FF"/>
<path d="M9.62679 60.1001C9.03134 60.1001 8.43588 60.1001 8.03892 59.9001C7.64195 59.8001 7.34422 59.7001 7.24498 59.7001C7.0465 59.6001 6.74877 59.7001 6.64953 60.0001C6.3518 60.6001 6.3518 61.0001 6.15332 61.6001C6.15332 61.8001 6.15332 61.9001 6.25256 62.1001C6.45105 62.3001 6.74877 62.5001 7.14574 62.6001C7.74119 62.8001 8.63437 62.8001 9.62679 62.6001C10.9169 62.4001 12.2071 62.0001 12.8025 61.9001C13.001 61.8001 13.1995 61.6001 13.1003 61.3001L12.8025 60.3001C12.7033 60.1001 12.5048 59.9001 12.3063 60.0001C11.7109 59.9001 10.6192 60.1001 9.62679 60.1001Z" fill="#2F58FF"/>
<path d="M24.6123 93.5L45.8501 84.7C46.0485 84.6 46.1478 84.6 46.247 84.5C47.2394 83.9 48.2319 83.2 49.3235 82.6L84.3559 62.2C85.2491 61.7 86.2415 61.7 87.0354 62.2L91.3028 64.7C91.9975 65.1 92.8907 65.2 93.6847 64.9L102.815 61.1C104.601 60.4 106.586 61.7 106.586 63.6V75.2C106.586 76.1 106.189 77 105.296 77.5L84.7529 89.5C63.6144 101.8 50.8121 105.5 30.0706 106.5C29.0782 106.5 28.0858 106 27.5895 105.1L23.8184 98.5L23.2229 97.5C22.5282 96 23.1237 94.1 24.6123 93.5Z" fill="#2F58FF"/>
<path d="M48.3309 67.9999L80.9815 48.9999C83.264 47.6999 86.1421 47.6999 88.4246 48.9999L104.998 58.5999C106.487 59.4999 106.487 61.5999 104.998 62.4999L83.7603 74.7999C65.6982 85.2999 45.9491 92.1999 25.406 95.1999C23.5204 95.4999 22.131 93.3999 23.2227 91.7999C29.5742 81.9999 38.2082 73.7999 48.3309 67.9999Z" fill="white"/>
<path d="M25.406 95.1999C23.5204 95.4999 22.131 93.3999 23.2227 91.7999C29.5742 81.9999 38.2082 73.7999 48.3309 67.9999L80.9815 48.9999C83.264 47.6999 86.1421 47.6999 88.4246 48.9999L104.998 58.5999C106.487 59.4999 106.487 61.5999 104.998 62.4999" stroke="#171A21" stroke-width="2" stroke-miterlimit="10" stroke-linecap="round" stroke-linejoin="round"/>
<path d="M41.4834 74.8001L54.3848 69.4001C54.4841 69.4001 54.5833 69.3001 54.6825 69.3001C55.278 68.9001 55.8734 68.5001 56.5681 68.1001L77.9051 55.7001C78.4014 55.4001 79.0961 55.4001 79.5923 55.7001L82.1726 57.2001C82.5695 57.5001 83.165 57.5001 83.6612 57.3001L89.2187 55.0001C90.3104 54.5001 91.5013 55.4001 91.5013 56.5001V63.5001C91.5013 64.1001 91.2036 64.6001 90.7074 64.9001L78.2029 72.2001C65.3014 79.7001 57.5606 82.0001 44.8576 82.6001C44.2621 82.6001 43.6667 82.3001 43.369 81.8001L41.0864 77.8001L40.6894 77.1001C40.094 76.3001 40.491 75.1001 41.4834 74.8001Z" fill="#F1F9FD" stroke="#171A21" stroke-width="2" stroke-miterlimit="10" stroke-linecap="round" stroke-linejoin="round"/>
<path d="M55.8731 59.2L75.8207 47.6C77.2101 46.8 78.9964 46.8 80.3858 47.6L90.4093 53.5C91.3024 54 91.3024 55.3 90.4093 55.9L77.5078 63.4C66.492 69.7 54.3844 74 41.88 75.8C40.6891 76 39.8951 74.7 40.4906 73.7C44.4603 67.8 49.7201 62.8 55.8731 59.2Z" fill="white"/>
<path d="M63.4155 54.8L75.7215 47.6C77.1108 46.8 78.8972 46.8 80.2866 47.6L90.31 53.5C91.2032 54 91.2032 55.3 90.31 55.9L77.4086 63.4C66.492 69.7 54.3844 74 41.88 75.8C40.6891 76 39.8951 74.7 40.4906 73.7C44.361 67.8 49.6208 62.8 55.7738 59.2" stroke="#171A21" stroke-width="2" stroke-miterlimit="10" stroke-linecap="round" stroke-linejoin="round"/>
<path d="M136.856 91.6C136.856 91 136.558 90.4 135.962 90.2L110.457 77.1C108.869 75.9 106.488 76 103.907 77.5L88.9218 86.2C86.6392 87.5 84.5552 90.1 83.3643 93L78.8984 104C78.7991 104.3 78.6006 104.5 78.3029 104.7L69.9666 110.6C67.684 112.2 65.7984 115 65.0045 117.8C64.6075 119 64.5083 120.1 64.5083 121.2C64.5083 121.3 64.5083 121.5 64.5083 121.6V121.7L64.6075 128C64.6075 128.6 64.9053 129.1 65.4015 129.4L86.0438 141.4C87.0362 142 88.2271 141.4 88.4256 140.2L89.6165 131.9C89.7157 131.5 89.815 131.2 90.1127 131L98.2505 123.2C98.3498 123.1 98.5483 123 98.7467 122.9L121.275 113.3C121.374 113.2 121.572 113.2 121.672 113.1L132.588 104.5C132.687 104.4 132.787 104.3 132.886 104.2L136.459 99C136.657 98.7 136.756 98.4 136.756 98.1V91.6H136.856Z" fill="white"/>
<path d="M88.8217 86.1999C86.5391 87.4999 84.4551 90.0999 83.2642 92.9999L78.7983 104C78.699 104.3 78.5006 104.5 78.2028 104.7L69.8665 110.6C67.5839 112.2 65.6983 115 64.9044 117.8C64.5074 119 64.4082 120.1 64.4082 121.2C64.4082 121.3 64.4082 121.5 64.4082 121.6V121.7L64.5074 128C64.5074 128.6 64.8052 129.1 65.3014 129.4L85.9437 141.4C86.9361 142 88.127 141.4 88.3255 140.2L89.5164 131.9C89.6156 131.5 89.7149 131.2 90.0126 131L98.1505 123.2C98.2497 123.1 98.4482 123 98.6467 122.9L121.175 113.3C121.274 113.2 121.472 113.2 121.572 113.1L132.488 104.5C132.587 104.4 132.687 104.3 132.786 104.2L136.359 98.9999C136.557 98.6999 136.656 98.3999 136.656 98.0999V91.4999C136.656 90.8999 136.359 90.2999 135.763 90.0999L110.258 76.9999C108.67 75.7999 106.288 75.8999 103.708 77.3999" stroke="#171A21" stroke-width="2" stroke-miterlimit="10" stroke-linecap="round" stroke-linejoin="round"/>
<path d="M129.61 93.8V102.1L133.779 99.7C133.779 99.7 133.282 97.7 132.985 96.6L132.885 96.2C132.786 96 132.786 95.8 132.687 95.6C132.091 94.3 131 93.7 129.61 93.8Z" fill="#98A2F2"/>
<path d="M127.328 94.5L119.19 99.2V108.1L127.725 103.1V94.2C127.626 94.4 127.526 94.5 127.328 94.5Z" fill="#98A2F2"/>
<path d="M95.9671 141.9L88.5239 137.7L96.4633 125L103.41 128.9L95.9671 141.9Z" fill="#2F58FF"/>
<path d="M99.8375 129.4C97.8526 130.5 96.1655 132.8 95.2723 135.1C94.8754 136.3 94.5776 137.5 94.5776 138.6C94.5776 138.7 94.5776 138.9 94.5776 139C94.7761 142.1 97.0587 143.3 99.8375 141.7C102.616 140.1 104.899 136.2 105.097 132.9C105.097 132.8 105.097 132.6 105.097 132.5C105.097 131.4 104.8 130.5 104.403 129.9C103.509 128.5 101.822 128.3 99.8375 129.4Z" fill="#F1F9FD"/>
<path d="M94.5776 138.6C94.5776 138.7 94.5776 138.9 94.5776 139C94.7761 142.1 97.0587 143.3 99.8375 141.7C102.616 140.1 104.899 136.2 105.097 132.9C105.097 132.8 105.097 132.6 105.097 132.5C105.097 131.4 104.8 130.5 104.403 129.9C103.509 128.6 101.723 128.4 99.8375 129.5L94.5776 138.6Z" stroke="#171A21" stroke-width="2" stroke-miterlimit="10" stroke-linecap="round" stroke-linejoin="round"/>
<path d="M128.32 123L120.877 118.8L128.816 106.1L135.763 110L128.32 123Z" fill="#2F58FF"/>
<path d="M132.19 110.5C130.206 111.6 128.519 113.9 127.625 116.2C127.228 117.4 126.931 118.6 126.931 119.7C126.931 119.8 126.931 120 126.931 120.1C127.129 123.2 129.412 124.4 132.19 122.8C134.969 121.2 137.252 117.3 137.45 114C137.45 113.9 137.45 113.7 137.45 113.6C137.45 112.5 137.153 111.6 136.756 111C135.862 109.6 134.175 109.4 132.19 110.5Z" fill="#F1F9FD"/>
<path d="M126.931 119.7C126.931 119.8 126.931 120 126.931 120.1C127.129 123.2 129.412 124.4 132.19 122.8C134.969 121.2 137.252 117.3 137.45 114C137.45 113.9 137.45 113.7 137.45 113.6C137.45 112.5 137.153 111.6 136.756 111C135.862 109.7 134.076 109.5 132.19 110.6L126.931 119.7Z" stroke="#171A21" stroke-width="2" stroke-miterlimit="10" stroke-linecap="round" stroke-linejoin="round"/>
<path d="M127.328 91.1L112.342 99.8C110.06 101.1 107.976 103.7 106.785 106.6L102.319 117.6C102.22 117.9 102.021 118.1 101.723 118.3L93.387 124.2C91.1045 125.8 89.2189 128.6 88.4249 131.4C88.028 132.6 87.9287 133.7 87.9287 134.8C87.9287 134.9 87.9287 135.1 87.9287 135.2V135.3L88.028 139.8C88.028 141 89.4173 141.8 90.4098 141.2L93.0893 139.6C93.0893 139.5 93.0893 139.3 93.0893 139.2C93.0893 138.1 93.1885 137.2 93.5855 136.1L93.6847 135.9C93.784 135.6 93.8832 135.2 93.9825 134.9C95.1734 131.8 97.3567 129.1 99.7385 127.7C102.12 126.3 104.304 126.5 105.495 128.2C105.594 128.4 105.693 128.6 105.792 128.8C106.189 129.6 106.388 130.5 106.388 131.5C106.388 131.6 106.388 131.8 106.388 131.9L125.442 120.8C125.442 120.7 125.442 120.5 125.442 120.4C125.442 119.3 125.641 118.2 125.938 117C126.038 116.7 126.137 116.3 126.236 116C127.427 112.9 129.61 110.2 131.992 108.8C134.374 107.4 136.557 107.6 137.748 109.3C137.847 109.5 137.947 109.7 138.046 109.9C138.443 110.6 138.641 111.6 138.641 112.6C138.641 112.7 138.641 112.9 138.641 113L142.016 111C142.512 110.7 142.809 110.2 142.809 109.6V98.7C143.008 91.6 135.267 86.4 127.328 91.1Z" fill="#2F58FF"/>
<path d="M107.975 116.2C107.578 116.5 106.983 116 107.182 115.5L110.258 107.9C110.853 106.3 112.044 104.9 113.235 104.2L115.915 102.7C117.006 102.1 118.297 102.9 118.297 104.1V109.3C118.297 109.9 117.999 110.4 117.503 110.7L107.975 116.2Z" fill="#F1F9FD"/>
<path d="M118.098 114L116.113 115.1C115.716 115.3 115.418 115.9 115.418 116.4C115.418 116.9 115.716 117.1 116.113 116.8L118.098 115.7C118.495 115.5 118.793 114.9 118.793 114.4C118.793 114 118.495 113.8 118.098 114Z" fill="#2F58FF"/>
<path d="M83.5619 105.2L98.0512 113.6C99.0436 114.2 100.334 113.8 100.83 112.7L104.204 104.9C104.601 104 104.303 102.9 103.41 102.3L88.9209 93.9999C87.9285 93.3999 86.6384 93.7999 86.1421 94.8999L82.7679 102.6C82.2717 103.6 82.6687 104.7 83.5619 105.2Z" fill="#F1F9FD" stroke="#171A21" stroke-width="2" stroke-miterlimit="10" stroke-linecap="round" stroke-linejoin="round"/>
<path d="M68.7748 122.6C69.8664 123.2 70.6604 124.7 70.6604 125.9C70.6604 127.1 69.7672 127.6 68.7748 127C67.6831 126.4 66.8892 124.9 66.8892 123.7C66.8892 122.5 67.7823 122 68.7748 122.6Z" fill="#2F58FF"/>
<path d="M83.3636 130.8C84.4553 131.4 85.2492 132.9 85.2492 134.1C85.2492 135.3 84.356 135.8 83.3636 135.2C82.272 134.6 81.478 133.1 81.478 131.9C81.478 130.6 82.272 130.1 83.3636 130.8Z" fill="#2F58FF"/>
<path d="M137.748 12.7999L104.204 4.99991C101.921 4.49991 100.036 6.49991 100.036 9.49991L100.135 31.1999C100.135 34.1999 102.02 37.0999 104.402 37.6999L115.617 40.2999L115.517 40.4999L119.785 47.0999C120.182 47.6999 120.678 47.9999 121.174 48.0999C121.67 48.1999 122.167 48.0999 122.564 47.6999L126.831 43.0999L126.732 42.8999L137.946 45.4999C140.229 45.9999 142.114 43.9999 142.114 40.9999L141.916 19.1999C141.916 16.1999 140.03 13.2999 137.748 12.7999Z" fill="white" stroke="#171A21" stroke-width="2" stroke-miterlimit="10" stroke-linecap="round" stroke-linejoin="round"/>
<path d="M127.426 19.1C126.93 19 126.533 19.1 126.235 19.5L120.479 25.6C120.182 26 119.685 26.1 119.288 26C118.792 25.9 118.395 25.6 117.998 25L115.914 21.8C115.616 21.3 115.12 20.9 114.624 20.8C114.128 20.7 113.731 20.8 113.433 21.2C112.738 21.9 112.738 23.4 113.433 24.4L117.998 31.4C118.296 31.9 118.792 32.3 119.288 32.4C119.785 32.5 120.182 32.4 120.479 32L128.716 23.2C129.411 22.5 129.411 21 128.716 20C128.319 19.5 127.922 19.2 127.426 19.1Z" fill="#2F58FF"/>
</svg>
