<svg width="144" height="144" viewBox="0 0 144 144" fill="none" xmlns="http://www.w3.org/2000/svg">
<g clip-path="url(#clip0)">
<path d="M88.8764 69.5C88.0775 66.1 89.875 62.5 94.3688 59.9C101.958 55.4 114.441 55.2 122.13 59.6C126.624 62.1 128.521 65.7 127.722 69.1L126.824 75.1L113.642 82.9L101.958 83.7L93.1704 77.5L89.2758 73.2L88.8764 69.5Z" fill="white"/>
<path d="M88.6768 68.4C88.6768 68.5 88.6768 68.6 88.6768 68.7C88.6768 68.8 88.6768 68.9 88.6768 69C88.6768 69.1 88.6768 69.2 88.6768 69.3C88.6768 69.4 88.6768 69.5 88.7766 69.6C88.7766 69.7 88.7766 69.8 88.8765 69.9C88.8765 70 88.9763 70.1 88.9763 70.2C88.9763 70.3 89.0762 70.4 89.0762 70.5C89.0762 70.6 89.1761 70.7 89.1761 70.8C89.1761 70.9 89.2759 71 89.2759 71.1C89.2759 71.2 89.3758 71.3 89.3758 71.3C89.3758 71.4 89.4756 71.5 89.5755 71.6C89.6754 71.7 89.6754 71.8 89.7752 71.9C89.7752 71.9 89.7752 71.9 89.7752 72C89.8751 72.1 89.9749 72.3 90.0748 72.4C90.0748 72.4 90.0748 72.5 90.1747 72.5C90.2745 72.6 90.3744 72.8 90.4743 72.9C90.4743 72.9 90.4743 73 90.5741 73C90.674 73.1 90.7738 73.2 90.8737 73.4L90.9736 73.5C91.0734 73.6 91.2731 73.8 91.373 73.9C91.373 73.9 91.4729 73.9 91.4729 74C91.5727 74.1 91.6726 74.2 91.7725 74.3C91.8723 74.4 91.9722 74.5 92.072 74.5C92.1719 74.6 92.2718 74.6 92.3716 74.7C92.4715 74.8 92.5713 74.9 92.6712 74.9C92.7711 75 92.8709 75 92.9708 75.1C93.0707 75.2 93.1705 75.3 93.2704 75.3C93.3702 75.4 93.4701 75.4 93.57 75.5C93.6698 75.6 93.7697 75.6 93.9694 75.7C94.1691 75.8 94.269 75.9 94.4687 76C94.7683 76.2 95.0679 76.3 95.3675 76.5C95.4673 76.5 95.5672 76.6 95.667 76.6C95.8668 76.7 96.1664 76.8 96.3661 76.9C96.4659 76.9 96.5658 77 96.6657 77C96.9652 77.1 97.3647 77.3 97.6643 77.4C97.7641 77.4 97.7641 77.4 97.864 77.5C98.1636 77.6 98.4632 77.7 98.7627 77.8C98.8626 77.8 98.9625 77.9 99.1622 77.9C99.3619 77.9 99.4618 78 99.6615 78C99.7614 78 99.9611 78.1 100.061 78.1C100.261 78.1 100.361 78.2 100.56 78.2C100.66 78.2 100.86 78.3 100.96 78.3C101.159 78.3 101.259 78.4 101.459 78.4C101.559 78.4 101.759 78.5 101.858 78.5C102.058 78.5 102.158 78.6 102.358 78.6C102.458 78.6 102.657 78.6 102.757 78.7C103.157 78.8 103.456 78.8 103.856 78.9C103.956 78.9 103.956 78.9 104.055 78.9C104.355 78.9 104.754 79 105.054 79C105.154 79 105.254 79 105.453 79C105.653 79 105.853 79 106.053 79C106.152 79 106.352 79 106.452 79C106.652 79 106.852 79 107.151 79C107.251 79 107.351 79 107.551 79C107.75 79 107.95 79 108.15 79C108.25 79 108.449 79 108.549 79C108.749 79 108.949 79 109.148 79C109.248 79 109.348 79 109.548 79C109.747 79 109.947 79 110.147 79C110.247 79 110.447 79 110.546 79C110.746 79 110.946 79 111.146 79C111.245 79 111.345 79 111.445 79C111.645 79 111.944 78.9 112.144 78.9C112.244 78.9 112.244 78.9 112.344 78.9C112.643 78.9 112.943 78.8 113.243 78.8H113.342C113.642 78.8 113.842 78.7 114.141 78.7C114.241 78.7 114.341 78.7 114.441 78.6C114.641 78.6 114.84 78.5 115.04 78.5C115.14 78.5 115.24 78.5 115.34 78.4C115.539 78.3 115.739 78.3 116.039 78.2C116.139 78.2 116.238 78.1 116.438 78.1C116.638 78 116.838 78 117.037 77.9C117.137 77.9 117.237 77.8 117.337 77.8C117.637 77.7 117.936 77.6 118.236 77.5C118.336 77.5 118.336 77.5 118.435 77.4C118.835 77.3 119.134 77.1 119.434 77C119.534 76.9 119.734 76.9 119.833 76.8C119.933 76.8 120.033 76.7 120.133 76.7C120.333 76.6 120.433 76.6 120.632 76.5C120.732 76.5 120.832 76.4 120.932 76.4C121.132 76.3 121.232 76.2 121.431 76.2C121.531 76.2 121.631 76.1 121.631 76.1C121.831 76 122.13 75.8 122.33 75.7C126.125 73.4 128.122 70.5 128.022 67.5L128.222 79.1C128.222 82 126.324 85 122.53 87.3C122.33 87.4 122.03 87.6 121.831 87.7C121.731 87.7 121.631 87.8 121.631 87.8C121.431 87.9 121.331 88 121.132 88C121.032 88 120.932 88.1 120.832 88.1C120.632 88.2 120.533 88.2 120.333 88.3C120.233 88.3 120.133 88.4 120.033 88.4C119.933 88.4 119.833 88.5 119.734 88.5H119.634C119.334 88.6 118.935 88.8 118.635 88.9C118.535 88.9 118.535 88.9 118.435 89C118.136 89.1 117.836 89.2 117.537 89.3C117.437 89.3 117.437 89.3 117.337 89.3C117.237 89.3 117.237 89.3 117.137 89.4C116.938 89.5 116.738 89.5 116.538 89.6C116.438 89.6 116.338 89.7 116.139 89.7C115.939 89.8 115.739 89.8 115.44 89.9C115.34 89.9 115.24 89.9 115.24 90C115.24 90 115.24 90 115.14 90C114.94 90 114.741 90.1 114.541 90.1C114.441 90.1 114.341 90.1 114.241 90.2C113.942 90.2 113.742 90.3 113.442 90.3H113.342C113.043 90.3 112.743 90.4 112.444 90.4C112.344 90.4 112.344 90.4 112.244 90.4C112.044 90.4 111.745 90.5 111.545 90.5C111.445 90.5 111.345 90.5 111.245 90.5C111.046 90.5 110.846 90.5 110.646 90.5C110.546 90.5 110.347 90.5 110.247 90.5C110.047 90.5 109.847 90.5 109.648 90.5C109.548 90.5 109.448 90.5 109.348 90.5C109.148 90.5 108.949 90.5 108.749 90.5C108.649 90.5 108.449 90.5 108.349 90.5C108.15 90.5 107.95 90.5 107.75 90.5H107.65C107.551 90.5 107.451 90.5 107.351 90.5C107.151 90.5 106.951 90.5 106.652 90.5C106.552 90.5 106.352 90.5 106.252 90.5C106.053 90.5 105.853 90.5 105.653 90.5C105.553 90.5 105.553 90.5 105.453 90.5C105.354 90.5 105.354 90.5 105.254 90.5C104.954 90.5 104.555 90.4 104.255 90.4C104.155 90.4 104.155 90.4 104.055 90.4C103.656 90.4 103.356 90.3 102.957 90.2H102.857C102.757 90.2 102.657 90.2 102.557 90.1C102.358 90.1 102.258 90 102.058 90C101.958 90 101.759 89.9 101.659 89.9C101.459 89.9 101.359 89.8 101.159 89.8C101.06 89.8 100.86 89.7 100.76 89.7C100.56 89.7 100.46 89.6 100.261 89.6C100.161 89.6 99.9611 89.5 99.8612 89.5C99.6615 89.5 99.5616 89.4 99.3619 89.4C99.2621 89.4 99.2621 89.4 99.1622 89.3H99.0623C98.7627 89.2 98.4632 89.1 98.1636 89C97.864 89 97.864 89 97.7641 89C97.4646 88.9 97.0651 88.7 96.7655 88.6C96.6657 88.6 96.5658 88.5 96.5658 88.5C96.3661 88.4 96.0665 88.3 95.8668 88.2C95.7669 88.2 95.667 88.1 95.5672 88.1C95.2676 87.9 94.968 87.8 94.6684 87.6C94.5686 87.6 94.4687 87.5 94.4687 87.5C94.3688 87.5 94.3689 87.4 94.269 87.4C94.1691 87.3 94.0693 87.3 93.8695 87.2C93.7697 87.1 93.6698 87.1 93.57 87C93.4701 86.9 93.3702 86.8 93.2704 86.8C93.1705 86.7 93.0707 86.7 92.9708 86.6C92.8709 86.5 92.7711 86.4 92.6712 86.4C92.5713 86.3 92.4715 86.3 92.3716 86.2C92.2718 86.1 92.1719 86 92.072 86L91.9722 85.9C91.8723 85.8 91.8723 85.8 91.7725 85.7C91.7725 85.7 91.6726 85.7 91.6726 85.6C91.5727 85.5 91.373 85.3 91.2732 85.2L91.1733 85.1C91.0734 85 90.9736 84.9 90.8737 84.7C90.8737 84.7 90.8737 84.6 90.7738 84.6C90.674 84.5 90.5741 84.3 90.4743 84.2C90.4743 84.2 90.4743 84.1 90.3744 84.1C90.2745 84 90.1747 83.8 90.0748 83.7C90.0748 83.7 90.0748 83.7 90.0748 83.6C90.0748 83.5 89.975 83.5 89.975 83.4C89.975 83.4 89.975 83.3 89.8751 83.3C89.7752 83.2 89.7752 83.1 89.6754 83C89.6754 82.9 89.5755 82.8 89.5755 82.8C89.5755 82.7 89.4756 82.6 89.4756 82.5C89.4756 82.5 89.4756 82.4 89.3758 82.4V82.3C89.3758 82.2 89.2759 82.1 89.2759 82C89.2759 81.9 89.1761 81.8 89.1761 81.7C89.1761 81.6 89.0762 81.5 89.0762 81.4C89.0762 81.3 89.0762 81.3 89.0762 81.2V81.1C89.0762 81 89.0762 80.9 89.0762 80.8C89.0762 80.7 89.0762 80.6 89.0762 80.5C89.0762 80.4 89.0762 80.3 89.0762 80.2C89.0762 80.1 89.0762 80.1 89.0762 80C89.0762 79.9 89.0762 79.9 89.0762 79.8L88.6768 68C88.6768 68.1 88.6768 68.2 88.6768 68.4Z" fill="#2F58FF"/>
<path d="M88.8764 55.2C88.0775 51.8 89.875 48.2 94.3688 45.6C101.958 41.1 114.441 40.9 122.13 45.3C126.624 47.8 128.521 51.4 127.722 54.8L126.824 60.8L113.642 68.6L101.958 69.4L93.1704 63.2L89.2758 58.9L88.8764 55.2Z" fill="white"/>
<path d="M88.6768 54.0999C88.6768 54.1999 88.6768 54.3 88.6768 54.4C88.6768 54.5 88.6768 54.6 88.6768 54.7C88.6768 54.8 88.6768 54.9 88.6768 55C88.6768 55.1 88.6768 55.1999 88.7766 55.2999C88.7766 55.3999 88.7766 55.4999 88.8765 55.5999C88.8765 55.6999 88.9763 55.8 88.9763 55.9C88.9763 56 89.0762 56.1 89.0762 56.2C89.0762 56.3 89.1761 56.4 89.1761 56.5C89.1761 56.6 89.2759 56.6999 89.2759 56.7999C89.2759 56.8999 89.3758 57 89.3758 57C89.3758 57.1 89.4756 57.1999 89.5755 57.2999C89.6754 57.3999 89.6754 57.4999 89.7752 57.5999C89.7752 57.5999 89.7752 57.6 89.7752 57.7C89.8751 57.8 89.9749 57.9999 90.0748 58.0999C90.0748 58.0999 90.0748 58.2 90.1747 58.2C90.2745 58.3 90.3744 58.4999 90.4743 58.5999C90.4743 58.5999 90.4743 58.7 90.5741 58.7C90.674 58.8 90.7738 58.8999 90.8737 59.0999L90.9736 59.2C91.0734 59.3 91.2731 59.4999 91.373 59.5999C91.373 59.5999 91.4729 59.6 91.4729 59.7C91.5727 59.8 91.6726 59.9 91.7725 60C91.8723 60.1 91.9722 60.2 92.072 60.2C92.1719 60.3 92.2718 60.3 92.3716 60.4C92.4715 60.5 92.5713 60.5999 92.6712 60.5999C92.7711 60.6999 92.8709 60.6999 92.9708 60.7999C93.0707 60.8999 93.1705 61 93.2704 61C93.3702 61.1 93.4701 61.1 93.57 61.2C93.6698 61.3 93.7697 61.3 93.9694 61.4C94.1691 61.5 94.269 61.6 94.4687 61.7C94.7683 61.9 95.0679 62 95.3675 62.2C95.4673 62.2 95.5672 62.2999 95.667 62.2999C95.8668 62.4 96.1664 62.4999 96.3661 62.5999C96.4659 62.5999 96.5658 62.7 96.6657 62.7C96.9652 62.8 97.3647 62.9999 97.6643 63.0999C97.7641 63.0999 97.7641 63.1 97.864 63.2C98.1636 63.3 98.4632 63.4 98.7627 63.5C98.8626 63.5 98.9625 63.5999 99.1622 63.5999C99.3619 63.5999 99.4618 63.7 99.6615 63.7C99.7614 63.7 99.9611 63.7999 100.061 63.7999C100.261 63.7999 100.361 63.9 100.56 63.9C100.66 63.9 100.86 64 100.96 64C101.159 64 101.259 64.0999 101.459 64.0999C101.559 64.0999 101.759 64.1999 101.858 64.1999C102.058 64.1999 102.158 64.3 102.358 64.3C102.458 64.3 102.657 64.3 102.757 64.4C103.157 64.5 103.456 64.4999 103.856 64.5999C103.956 64.5999 103.956 64.5999 104.055 64.5999C104.355 64.5999 104.754 64.6999 105.054 64.6999C105.154 64.6999 105.254 64.6999 105.453 64.6999C105.653 64.6999 105.853 64.6999 106.053 64.6999C106.152 64.6999 106.352 64.6999 106.452 64.6999C106.652 64.6999 106.852 64.6999 107.151 64.6999C107.251 64.6999 107.351 64.6999 107.551 64.6999C107.75 64.6999 107.95 64.6999 108.15 64.6999C108.25 64.6999 108.449 64.6999 108.549 64.6999C108.749 64.6999 108.949 64.6999 109.148 64.6999C109.248 64.6999 109.348 64.6999 109.548 64.6999C109.747 64.6999 109.947 64.6999 110.147 64.6999C110.247 64.6999 110.447 64.6999 110.546 64.6999C110.746 64.6999 110.946 64.6999 111.146 64.6999C111.245 64.6999 111.345 64.6999 111.445 64.6999C111.645 64.6999 111.944 64.5999 112.144 64.5999C112.244 64.5999 112.244 64.5999 112.344 64.5999C112.643 64.5999 112.943 64.5 113.243 64.5H113.342C113.642 64.5 113.842 64.4 114.141 64.4C114.241 64.4 114.341 64.4 114.441 64.3C114.641 64.3 114.84 64.1999 115.04 64.1999C115.14 64.1999 115.24 64.1999 115.34 64.0999C115.539 63.9999 115.739 64 116.039 63.9C116.139 63.9 116.238 63.7999 116.438 63.7999C116.638 63.6999 116.838 63.6999 117.037 63.5999C117.137 63.5999 117.237 63.5 117.337 63.5C117.637 63.4 117.936 63.3 118.236 63.2C118.336 63.2 118.336 63.1999 118.435 63.0999C118.835 62.9999 119.134 62.8 119.434 62.7C119.534 62.6 119.734 62.6 119.833 62.5C119.933 62.5 120.033 62.4 120.133 62.4C120.333 62.3 120.433 62.3 120.632 62.2C120.732 62.2 120.832 62.0999 120.932 62.0999C121.132 61.9999 121.232 61.9 121.431 61.9C121.531 61.9 121.631 61.7999 121.631 61.7999C121.831 61.6999 122.13 61.5 122.33 61.4C126.125 59.1 128.122 56.2 128.022 53.2L128.222 64.8C128.222 67.7 126.324 70.7 122.53 73C122.33 73.1 122.03 73.3 121.831 73.4C121.731 73.4 121.631 73.5 121.631 73.5C121.431 73.6 121.331 73.6999 121.132 73.6999C121.032 73.6999 120.932 73.8 120.832 73.8C120.632 73.9 120.533 73.9 120.333 74C120.233 74 120.133 74.0999 120.033 74.0999C119.933 74.0999 119.833 74.1999 119.734 74.1999H119.634C119.334 74.2999 118.935 74.4999 118.635 74.5999C118.535 74.5999 118.535 74.5999 118.435 74.6999C118.136 74.7999 117.836 74.9 117.537 75C117.437 75 117.437 75 117.337 75C117.237 75 117.237 74.9999 117.137 75.0999C116.938 75.1999 116.738 75.2 116.538 75.3C116.438 75.3 116.338 75.4 116.139 75.4C115.939 75.5 115.739 75.4999 115.44 75.5999C115.34 75.5999 115.24 75.5999 115.24 75.6999C115.24 75.6999 115.24 75.6999 115.14 75.6999C114.94 75.6999 114.741 75.8 114.541 75.8C114.441 75.8 114.341 75.8 114.241 75.9C113.942 75.9 113.742 76 113.442 76H113.342C113.043 76 112.743 76.0999 112.444 76.0999C112.344 76.0999 112.344 76.0999 112.244 76.0999C112.044 76.0999 111.745 76.1999 111.545 76.1999C111.445 76.1999 111.345 76.1999 111.245 76.1999C111.046 76.1999 110.846 76.1999 110.646 76.1999C110.546 76.1999 110.347 76.1999 110.247 76.1999C110.047 76.1999 109.847 76.1999 109.648 76.1999C109.548 76.1999 109.448 76.1999 109.348 76.1999C109.148 76.1999 108.949 76.1999 108.749 76.1999C108.649 76.1999 108.449 76.1999 108.349 76.1999C108.15 76.1999 107.95 76.1999 107.75 76.1999H107.65C107.551 76.1999 107.451 76.1999 107.351 76.1999C107.151 76.1999 106.951 76.1999 106.652 76.1999C106.552 76.1999 106.352 76.1999 106.252 76.1999C106.053 76.1999 105.853 76.1999 105.653 76.1999C105.553 76.1999 105.553 76.1999 105.453 76.1999C105.354 76.1999 105.354 76.1999 105.254 76.1999C104.954 76.1999 104.555 76.0999 104.255 76.0999C104.155 76.0999 104.155 76.0999 104.055 76.0999C103.656 76.0999 103.356 76 102.957 75.9H102.857C102.757 75.9 102.657 75.9 102.557 75.8C102.358 75.8 102.258 75.6999 102.058 75.6999C101.958 75.6999 101.759 75.5999 101.659 75.5999C101.459 75.5999 101.359 75.5 101.159 75.5C101.06 75.5 100.86 75.4 100.76 75.4C100.56 75.4 100.46 75.3 100.261 75.3C100.161 75.3 99.9611 75.1999 99.8612 75.1999C99.6615 75.1999 99.5616 75.0999 99.3619 75.0999C99.2621 75.0999 99.2621 75.1 99.1622 75H99.0623C98.7627 74.9 98.4632 74.7999 98.1636 74.6999C98.0637 74.6999 98.0637 74.6999 97.9639 74.5999C97.6643 74.4999 97.2648 74.2999 96.9652 74.1999C96.8654 74.1999 96.7655 74.0999 96.7655 74.0999C96.5658 73.9999 96.2662 73.9 96.0665 73.8C95.9666 73.8 95.8668 73.6999 95.7669 73.6999C95.4673 73.4999 95.1677 73.3999 94.8682 73.1999C94.7683 73.1999 94.6684 73.0999 94.6684 73.0999C94.5686 73.0999 94.5686 73 94.4687 73C94.3688 72.9 94.269 72.9 94.0693 72.8C93.9694 72.7 93.8695 72.6999 93.7697 72.5999C93.6698 72.4999 93.57 72.4 93.4701 72.4C93.3702 72.3 93.2704 72.2999 93.1705 72.1999C93.0707 72.0999 92.9708 72 92.8709 72C92.7711 71.9 92.6712 71.9 92.5713 71.8C92.4715 71.7 92.3716 71.5999 92.2718 71.5999L92.1719 71.5C92.072 71.4 92.072 71.4 91.9722 71.3C91.9722 71.3 91.8723 71.2999 91.8723 71.1999C91.7725 71.0999 91.5727 70.9 91.4729 70.8L91.373 70.6999C91.2731 70.5999 91.1733 70.5 91.0734 70.3C91.0734 70.3 91.0734 70.1999 90.9736 70.1999C90.8737 70.0999 90.7738 69.9 90.674 69.8C90.674 69.8 90.674 69.6999 90.5741 69.6999C90.4743 69.5999 90.3744 69.4 90.2745 69.3C90.2745 69.3 90.2745 69.2999 90.2745 69.1999C89.8751 68.9999 89.8751 69 89.8751 68.9C89.8751 68.9 89.8751 68.8 89.7752 68.8C89.6754 68.7 89.6754 68.6 89.5755 68.5C89.5755 68.4 89.4756 68.3 89.4756 68.3C89.4756 68.2 89.3758 68.1 89.3758 68C89.3758 68 89.3758 67.9 89.2759 67.9V67.8C89.2759 67.7 89.1761 67.6 89.1761 67.5C89.1761 67.4 89.0762 67.2999 89.0762 67.1999C89.0762 67.0999 88.9763 67 88.9763 66.9C88.9763 66.8 88.9763 66.7999 88.9763 66.6999V66.5999C88.9763 66.4999 88.9763 66.4 88.9763 66.3C88.9763 66.2 88.9763 66.1 88.9763 66C88.9763 65.9 88.9763 65.7999 88.9763 65.6999C88.9763 65.5999 88.9763 65.6 88.9763 65.5C88.9763 65.4 88.9763 65.4 88.9763 65.3L88.7766 53.7C88.6768 53.9 88.6768 53.9999 88.6768 54.0999Z" fill="#2F58FF"/>
<path d="M88.8769 41C88.078 37.6 89.8755 34 94.3692 31.4C101.959 26.9 114.441 26.7 122.131 31.1C126.624 33.6 128.522 37.2 127.723 40.6L126.824 46.6L113.642 54.4L101.959 55.2L93.1709 49L89.2763 44.7L88.8769 41Z" fill="white"/>
<path d="M88.6768 39.9C88.6768 40 88.6768 40.1 88.6768 40.2C88.6768 40.3 88.6768 40.4 88.6768 40.5C88.6768 40.6 88.6768 40.7 88.6768 40.8C88.6768 40.9 88.6768 41 88.7766 41.1C88.7766 41.2 88.7766 41.3 88.8765 41.4C88.8765 41.5 88.9763 41.6 88.9763 41.7C88.9763 41.8 89.0762 41.9 89.0762 42C89.0762 42.1 89.1761 42.2 89.1761 42.3C89.1761 42.4 89.2759 42.5 89.2759 42.6C89.2759 42.7 89.3758 42.8 89.3758 42.8C89.3758 42.9 89.4756 43 89.5755 43.1C89.6754 43.2 89.6754 43.3 89.7752 43.4C89.7752 43.4 89.7752 43.4 89.7752 43.5C89.8751 43.6 89.9749 43.8 90.0748 43.9C90.0748 43.9 90.0748 44 90.1747 44C90.2745 44.1 90.3744 44.3 90.4743 44.4C90.4743 44.4 90.4743 44.5 90.5741 44.5C90.674 44.6 90.7738 44.7 90.8737 44.9L90.9736 45C91.0734 45.1 91.2731 45.3 91.373 45.4C91.373 45.4 91.4729 45.4 91.4729 45.5C91.5727 45.6 91.6726 45.7 91.7725 45.8C91.8723 45.9 91.9722 46 92.072 46C92.1719 46.1 92.2718 46.1 92.3716 46.2C92.4715 46.3 92.5713 46.4 92.6712 46.4C92.7711 46.5 92.8709 46.5 92.9708 46.6C93.0707 46.7 93.1705 46.8 93.2704 46.8C93.3702 46.9 93.4701 46.9 93.57 47C93.6698 47.1 93.7697 47.1 93.9694 47.2C94.1691 47.3 94.269 47.4 94.4687 47.5C94.7683 47.7 95.0679 47.8 95.3675 48C95.4673 48 95.5672 48.1 95.667 48.1C95.8668 48.2 96.1664 48.3 96.3661 48.4C96.4659 48.4 96.5658 48.5 96.6657 48.5C96.9652 48.6 97.3647 48.8 97.6643 48.9C97.7641 48.9 97.7641 48.9 97.864 49C98.1636 49.1 98.4632 49.2 98.7627 49.3C98.8626 49.3 98.9625 49.4 99.1622 49.4C99.3619 49.4 99.4618 49.5 99.6615 49.5C99.7614 49.5 99.9611 49.6 100.061 49.6C100.261 49.6 100.361 49.7 100.56 49.7C100.66 49.7 100.86 49.8 100.96 49.8C101.159 49.8 101.259 49.9 101.459 49.9C101.559 49.9 101.759 50 101.858 50C102.058 50 102.158 50.1 102.358 50.1C102.458 50.1 102.657 50.1 102.757 50.2C103.157 50.3 103.456 50.3 103.856 50.4C103.956 50.4 103.956 50.4 104.055 50.4C104.355 50.4 104.754 50.5 105.054 50.5C105.154 50.5 105.254 50.5 105.453 50.5C105.653 50.5 105.853 50.5 106.053 50.5C106.152 50.5 106.352 50.5 106.452 50.5C106.652 50.5 106.852 50.5 107.151 50.5C107.251 50.5 107.351 50.5 107.551 50.5C107.75 50.5 107.95 50.5 108.15 50.5C108.25 50.5 108.449 50.5 108.549 50.5C108.749 50.5 108.949 50.5 109.148 50.5C109.248 50.5 109.348 50.5 109.548 50.5C109.747 50.5 109.947 50.5 110.147 50.5C110.247 50.5 110.447 50.5 110.546 50.5C110.746 50.5 110.946 50.5 111.146 50.5C111.245 50.5 111.345 50.5 111.445 50.5C111.645 50.5 111.944 50.4 112.144 50.4C112.244 50.4 112.244 50.4 112.344 50.4C112.643 50.4 112.943 50.3 113.243 50.3H113.342C113.642 50.3 113.842 50.2 114.141 50.2C114.241 50.2 114.341 50.2 114.441 50.1C114.641 50.1 114.84 50 115.04 50C115.14 50 115.24 50 115.34 49.9C115.539 49.8 115.739 49.8 116.039 49.7C116.139 49.7 116.238 49.6 116.438 49.6C116.638 49.5 116.838 49.5 117.037 49.4C117.137 49.4 117.237 49.3 117.337 49.3C117.637 49.2 117.936 49.1 118.236 49C118.336 49 118.336 49 118.435 48.9C118.835 48.8 119.134 48.6 119.434 48.5C119.534 48.4 119.734 48.4 119.833 48.3C119.933 48.3 120.033 48.2 120.133 48.2C120.333 48.1 120.433 48.1 120.632 48C120.732 48 120.832 47.9 120.932 47.9C121.132 47.8 121.232 47.7 121.431 47.7C121.531 47.7 121.631 47.6 121.631 47.6C121.831 47.5 122.13 47.3 122.33 47.2C126.125 44.9 128.122 42 128.022 39L128.222 50.6C128.222 53.5 126.324 56.5 122.53 58.8C122.33 58.9 122.03 59.1 121.831 59.2C121.731 59.2 121.631 59.3 121.631 59.3C121.431 59.4 121.331 59.5 121.132 59.5C121.032 59.5 120.932 59.6 120.832 59.6C120.632 59.7 120.533 59.7 120.333 59.8C120.233 59.8 120.133 59.9 120.033 59.9C119.933 59.9 119.833 60 119.734 60H119.634C119.334 60.1 118.935 60.3 118.635 60.4C118.535 60.4 118.535 60.4 118.435 60.5C118.136 60.6 117.836 60.7 117.537 60.8C117.437 60.8 117.437 60.8 117.337 60.8C117.237 60.8 117.237 60.8 117.137 60.9C116.938 61 116.738 61 116.538 61.1C116.438 61.1 116.338 61.2 116.139 61.2C115.939 61.3 115.739 61.3 115.44 61.4C115.34 61.4 115.24 61.4 115.24 61.5C115.24 61.5 115.24 61.5 115.14 61.5C114.94 61.5 114.741 61.6 114.541 61.6C114.441 61.6 114.341 61.6 114.241 61.7C113.942 61.7 113.742 61.8 113.442 61.8H113.342C113.043 61.8 112.743 61.9 112.444 61.9C112.344 61.9 112.344 61.9 112.244 61.9C112.044 61.9 111.745 62 111.545 62C111.445 62 111.345 62 111.245 62C111.046 62 110.846 62 110.646 62C110.546 62 110.347 62 110.247 62C110.047 62 109.847 62 109.648 62C109.548 62 109.448 62 109.348 62C109.148 62 108.949 62 108.749 62C108.649 62 108.449 62 108.349 62C108.15 62 107.95 62 107.75 62H107.65C107.551 62 107.451 62 107.351 62C107.151 62 106.951 62 106.652 62C106.552 62 106.352 62 106.252 62C106.053 62 105.853 62 105.653 62C105.553 62 105.553 62 105.453 62C105.354 62 105.354 62 105.254 62C104.954 62 104.555 61.9 104.255 61.9C104.155 61.9 104.155 61.9 104.055 61.9C103.656 61.9 103.356 61.8 102.957 61.7H102.857C102.757 61.7 102.657 61.7 102.557 61.6C102.358 61.6 102.258 61.5 102.058 61.5C101.958 61.5 101.759 61.4 101.659 61.4C101.459 61.4 101.359 61.3 101.159 61.3C101.06 61.3 100.86 61.2 100.76 61.2C100.56 61.2 100.46 61.1 100.261 61.1C100.161 61.1 99.9611 61 99.8612 61C99.6615 61 99.5616 60.9 99.3619 60.9C99.2621 60.9 99.2621 60.9 99.1622 60.8H99.0623C98.7627 60.7 98.4632 60.6 98.1636 60.5C98.0637 60.5 98.0637 60.5 97.9639 60.4C97.6643 60.3 97.2648 60.1 96.9652 60C96.8654 60 96.7655 59.9 96.7655 59.9C96.5658 59.8 96.2662 59.7 96.0665 59.6C95.9666 59.6 95.8668 59.5 95.7669 59.5C95.4673 59.3 95.1677 59.2 94.8682 59C94.7683 59 94.6684 58.9 94.6684 58.9C94.5686 58.9 94.5686 58.8 94.4687 58.8C94.3688 58.7 94.269 58.7 94.0693 58.6C93.9694 58.5 93.8695 58.5 93.7697 58.4C93.6698 58.3 93.57 58.2 93.4701 58.2C93.3702 58.1 93.2704 58.1 93.1705 58C93.0707 57.9 92.9708 57.8 92.8709 57.8C92.7711 57.7 92.6712 57.7 92.5713 57.6C92.4715 57.5 92.3716 57.4 92.2718 57.4L92.1719 57.3C92.072 57.2 92.072 57.2 91.9722 57.1C91.9722 57.1 91.8723 57.1 91.8723 57C91.7725 56.9 91.5727 56.7 91.4729 56.6L91.373 56.5C91.2731 56.4 91.1733 56.3 91.0734 56.1C91.0734 56.1 91.0734 56 90.9736 56C90.8737 55.9 90.7738 55.7 90.674 55.6C90.674 55.6 90.674 55.5 90.5741 55.5C90.4743 55.4 90.3744 55.2 90.2745 55.1C90.2745 55.1 90.2745 55.1 90.2745 55C90.2745 54.9 90.1747 54.9 90.1747 54.8C90.1747 54.8 90.1747 54.7 90.0748 54.7C89.9749 54.6 89.975 54.5 89.8751 54.4C89.8751 54.3 89.7752 54.2 89.7752 54.2C89.7752 54.1 89.6754 54 89.6754 53.9C89.6754 53.9 89.6754 53.8 89.5755 53.8V53.7C89.5755 53.6 89.4756 53.5 89.4756 53.4C89.4756 53.3 89.3758 53.2 89.3758 53.1C89.3758 53 89.2759 52.9 89.2759 52.8C89.2759 52.7 89.2759 52.7 89.2759 52.6V52.5C89.2759 52.4 89.2759 52.3 89.2759 52.2C89.2759 52.1 89.2759 52 89.2759 51.9C89.2759 51.8 89.2759 51.7 89.2759 51.6C89.2759 51.5 89.2759 51.5 89.2759 51.4C89.2759 51.3 89.2759 51.3 89.2759 51.2L89.0762 39.6C88.6768 39.6 88.6768 39.8 88.6768 39.9Z" fill="#2F58FF"/>
<path d="M127.723 40.4999C128.422 37.0999 126.624 33.5999 122.131 30.9999C114.441 26.5999 102.058 26.7999 94.3691 31.2999C89.8753 33.9999 87.9779 37.5999 88.8767 40.9999" stroke="#171A21" stroke-width="2" stroke-miterlimit="10" stroke-linecap="round" stroke-linejoin="round"/>
<path d="M116.838 29.8C116.838 29.5 116.738 29.2 116.738 28.9C116.638 28.5 116.638 28.2 116.538 27.8C116.538 27.6 116.438 27.3 116.438 27.1C116.339 26.9 116.339 26.6 116.239 26.4C116.139 26.1 116.039 25.8 115.939 25.5C115.839 25.3 115.839 25.1 115.739 25C115.64 24.6 115.54 24.3 115.34 23.9C115.24 23.8 115.24 23.6 115.14 23.5C114.941 23 114.741 22.5 114.541 22C114.541 21.9 114.541 21.9 114.441 21.8C114.242 21.4 114.042 20.9 113.842 20.5C113.742 20.4 113.742 20.2 113.642 20.1C113.443 19.7 113.243 19.3 113.043 18.9C113.043 18.8 112.943 18.7 112.943 18.7C112.644 18.2 112.444 17.8 112.144 17.3C112.045 17.2 111.945 17 111.845 16.9C111.645 16.6 111.445 16.3 111.146 16C111.046 15.8 110.946 15.7 110.746 15.5C110.547 15.2 110.347 15 110.147 14.7C109.948 14.5 109.848 14.3 109.648 14.1C109.448 13.9 109.348 13.7 109.149 13.5C108.849 13.2 108.549 12.9 108.25 12.6C108.05 12.4 107.85 12.2 107.651 12C107.551 11.9 107.351 11.7 107.251 11.6C107.052 11.4 106.752 11.2 106.552 10.9C106.452 10.8 106.253 10.6 106.053 10.5C105.753 10.3 105.454 10.1 105.254 9.9C105.154 9.8 104.954 9.7 104.855 9.6C104.455 9.3 104.056 9 103.556 8.8C103.157 8.6 102.757 8.4 102.358 8.2C102.258 8.2 102.158 8.1 102.058 8.1C101.659 7.9 101.26 7.8 100.96 7.6C100.96 7.6 100.96 7.6 100.86 7.6C100.561 7.5 100.261 7.4 99.8615 7.3C99.6618 7.3 99.4621 7.2 99.3622 7.2C99.1625 7.2 98.8629 7.1 98.6632 7.1C98.5633 7.1 98.3636 7.1 98.2637 7.1C97.9641 7.1 97.6646 7.1 97.365 7.1C97.2651 7.1 97.2651 7.1 97.1653 7.1C96.8657 7.1 96.4662 7.2 96.1666 7.2C96.0668 7.2 95.9669 7.2 95.9669 7.3C95.7672 7.4 95.4676 7.4 95.2679 7.5C95.168 7.5 95.0682 7.6 95.0682 7.6C94.8684 7.7 94.6687 7.8 94.3691 8L105.054 1.8C105.054 1.8 105.054 1.8 105.154 1.8C105.354 1.7 105.554 1.6 105.853 1.5H105.953C106.053 1.5 106.053 1.4 106.153 1.4C106.253 1.4 106.352 1.3 106.452 1.3C106.552 1.3 106.752 1.2 106.852 1.2C106.952 1.2 107.052 1.2 107.052 1.1H107.151C107.451 1.1 107.651 1 107.95 1C107.95 1 107.95 1 108.05 1C108.15 1 108.15 1 108.25 1C108.45 1 108.649 1 108.849 1C108.949 1 108.949 1 109.049 1C109.149 1 109.348 1 109.448 1C109.548 1 109.648 1 109.848 1C109.948 1 110.047 1 110.147 1.1C110.347 1.1 110.547 1.2 110.647 1.2C110.746 1.2 110.846 1.2 110.946 1.3C111.146 1.4 111.346 1.4 111.645 1.5C111.645 1.5 111.645 1.5 111.745 1.5C112.045 1.6 112.244 1.7 112.544 1.8C112.644 1.8 112.744 1.9 112.843 1.9C112.943 1.9 113.043 2 113.143 2C113.543 2.2 113.942 2.4 114.341 2.6C114.741 2.8 115.14 3.1 115.64 3.4C115.739 3.5 115.939 3.6 116.039 3.7C116.339 3.9 116.638 4.1 116.838 4.3C117.038 4.4 117.138 4.5 117.237 4.7C117.537 4.9 117.737 5.1 117.936 5.4C118.036 5.5 118.236 5.7 118.336 5.8C118.436 5.9 118.536 6 118.635 6.1C118.735 6.2 118.835 6.3 118.935 6.4C119.235 6.7 119.534 7 119.834 7.3C119.934 7.4 120.033 7.5 120.133 7.6C120.233 7.7 120.233 7.8 120.333 7.9C120.533 8.1 120.633 8.3 120.832 8.5C120.932 8.6 121.032 8.8 121.132 8.9C121.232 9 121.332 9.1 121.432 9.3C121.531 9.5 121.631 9.6 121.831 9.8C121.931 9.9 122.031 10 122.031 10.1C122.131 10.3 122.33 10.5 122.43 10.7C122.53 10.8 122.63 11 122.73 11.1C122.73 11.2 122.83 11.2 122.83 11.3C123.029 11.7 123.329 12 123.529 12.4V12.5C123.529 12.6 123.629 12.7 123.629 12.7C123.728 13 123.928 13.2 124.028 13.5C124.128 13.6 124.128 13.8 124.228 13.9C124.328 14 124.328 14.2 124.427 14.3C124.527 14.4 124.527 14.5 124.627 14.6C124.827 14.9 124.927 15.2 125.027 15.5C125.027 15.6 125.126 15.6 125.126 15.7C125.326 16.1 125.426 16.5 125.626 16.9C125.626 17 125.726 17 125.726 17.1C125.825 17.2 125.825 17.4 125.925 17.5C126.025 17.7 126.025 17.9 126.125 18.1C126.225 18.3 126.225 18.4 126.225 18.6C126.325 18.8 126.325 19 126.425 19.1C126.425 19.2 126.524 19.3 126.524 19.4C126.624 19.6 126.624 19.8 126.624 20C126.724 20.2 126.724 20.5 126.824 20.7C126.824 20.8 126.824 20.9 126.924 20.9C126.924 21.1 127.024 21.2 127.024 21.4C127.124 21.8 127.124 22.1 127.224 22.5C127.224 22.6 127.224 22.7 127.323 22.8C127.323 23 127.323 23.2 127.423 23.5C127.423 23.7 127.423 23.8 127.423 24C127.423 24.5 127.523 25 127.523 25.5C127.523 29.7 126.025 32.6 123.629 34L112.943 40.2C115.34 38.8 116.738 35.9 116.838 31.7C116.838 31.2 116.838 30.7 116.738 30.2C116.838 30.1 116.838 29.9 116.838 29.8Z" fill="#2F58FF"/>
<path d="M103.756 8.90004C96.4661 4.70004 90.5742 8.10004 90.4744 16.5C90.3745 24.9 96.3662 35.1 103.656 39.3C110.946 43.5 116.838 40.1 116.938 31.7C117.037 23.3 111.046 13.1 103.756 8.90004Z" fill="white"/>
<path d="M97.5648 7.1001C93.3706 7.2001 90.4746 10.6001 90.4746 16.5001C90.4746 24.9001 96.3664 35.1001 103.656 39.3001C109.348 42.6001 114.242 41.2001 116.039 36.5001" stroke="#171A21" stroke-width="2" stroke-miterlimit="10" stroke-linecap="round" stroke-linejoin="round"/>
<path d="M50.5301 71.3001C50.2305 71.6001 50.0308 71.9001 50.0308 72.3001V81.2001V67.7001V58.8001C50.0308 58.5001 50.2305 58.1001 50.5301 57.8001L54.0252 54.4001C54.3248 54.1001 54.5245 53.7001 54.5245 53.4001V66.9001C54.5245 67.2001 54.3248 67.6001 54.0252 67.9001L50.5301 71.3001Z" fill="#2F58FF"/>
<path d="M1.09888 87.2002C1.09888 87.3002 1.09888 87.3002 1.09888 87.2002C1.19875 87.4002 1.29861 87.5002 1.39847 87.6002L2.99625 89.6002C3.09611 89.7002 3.09611 89.7002 3.19597 89.8002C3.29583 89.9002 3.39569 89.9002 3.49556 90.0002L3.59542 90.1002C3.59542 90.1002 3.69528 90.2002 3.79514 90.2002C3.895 90.2002 3.99486 90.3002 3.99486 90.3002C4.09472 90.3002 4.09472 90.3002 4.19459 90.4002C4.29445 90.4002 4.39431 90.5002 4.39431 90.5002C4.59403 90.5002 4.69389 90.6002 4.89361 90.6002C4.89361 90.6002 4.89361 90.6002 4.99348 90.6002C4.99348 90.6002 4.99348 90.6002 5.09334 90.6002C5.1932 90.6002 5.39292 90.6002 5.49278 90.7002H5.59264C5.6925 90.7002 5.89223 90.7002 5.99209 90.7002C5.99209 90.7002 5.99209 90.7002 6.09195 90.7002C6.29167 90.7002 6.4914 90.7002 6.59126 90.7002L19.2736 89.2002C19.3735 89.2002 19.3735 89.2002 19.4734 89.2002C19.5732 89.2002 19.6731 89.2002 19.7729 89.2002C19.8728 89.2002 19.9727 89.2002 20.0725 89.2002H20.1724H20.2723H20.3721C20.472 89.2002 20.5718 89.2002 20.6717 89.2002H20.7716H20.8714C21.0711 89.2002 21.171 89.3002 21.2709 89.3002H21.3707C21.3707 89.3002 21.4706 89.3002 21.4706 89.4002C21.5705 89.4002 21.5705 89.4002 21.6703 89.5002C21.7702 89.5002 21.7702 89.6002 21.87 89.6002C21.9699 89.6002 21.9699 89.7002 22.0698 89.7002C22.0698 89.7002 22.0698 89.7002 22.1696 89.7002C22.1696 89.7002 22.1696 89.7002 22.2695 89.8002C22.3693 89.9002 22.4692 89.9002 22.5691 90.0002C22.5691 90.0002 22.6689 90.0002 22.6689 90.1002L22.7688 90.2002L32.9546 101L33.0545 101.1C33.0545 101.1 33.0545 101.1 33.0545 101.2C33.0545 101.2 33.0545 101.3 33.1544 101.3V101.4C33.1544 101.4 33.1544 101.4 33.1544 101.5V101.6C33.1544 101.7 33.1544 101.7 33.1544 101.8V112.4L42.9408 109.6C43.0406 109.6 43.1405 109.5 43.3402 109.5H43.4401C43.5399 109.5 43.5399 109.5 43.6398 109.5H43.7397H43.8395H43.9394C44.0392 109.5 44.0392 109.5 44.1391 109.5H44.239C44.3388 109.5 44.4387 109.5 44.5386 109.5C44.5386 109.5 44.5386 109.5 44.6384 109.5C44.7383 109.5 44.8381 109.5 44.938 109.5C45.0379 109.5 45.1377 109.5 45.2376 109.5H45.3374C45.5372 109.5 45.7369 109.6 45.9366 109.6C45.9366 109.6 45.9366 109.6 46.0365 109.6C46.0365 109.6 46.0365 109.6 46.1363 109.6C46.2362 109.6 46.3361 109.7 46.4359 109.7H46.5358C46.6356 109.8 46.7355 109.8 46.8354 109.9C46.9352 110 47.1349 110.1 47.2348 110.2L47.3347 110.3C47.3347 110.3 47.3347 110.3 47.4345 110.4C47.4345 110.4 47.4345 110.5 47.5344 110.5C47.5344 110.5 47.5344 110.6 47.6343 110.6C47.6343 110.6 47.6343 110.6 47.6343 110.7C47.6343 110.7 47.6343 110.7 47.6343 110.8C47.6343 110.8 47.6343 110.8 47.6343 110.9V111C47.6343 111.1 47.6343 111.1 47.6343 111.2V113.5C47.6343 113.6 47.6343 113.7 47.6343 113.8C47.6343 113.9 47.7341 114 47.834 114.1C47.834 114.1 47.834 114.1 47.834 114.2C47.9338 114.3 48.0337 114.4 48.1336 114.5C48.2334 114.6 48.3333 114.6 48.3333 114.7C48.4331 114.7 48.4331 114.8 48.533 114.8L51.2293 116.4C51.429 116.5 51.7286 116.6 52.0282 116.7H52.128C52.4276 116.8 52.6273 116.8 52.9269 116.9C52.9269 116.9 52.9269 116.9 53.0268 116.9C53.3264 116.9 53.6259 116.9 53.9255 116.9C53.9255 116.9 53.9255 116.9 54.0254 116.9C54.325 116.9 54.6245 116.8 54.9241 116.8L63.8118 114.6C63.9117 114.6 63.9116 114.6 64.0115 114.6C64.1114 114.6 64.2112 114.6 64.3111 114.5H64.411C64.411 114.5 64.411 114.5 64.5108 114.5H64.6107C64.7105 114.5 64.8104 114.5 64.9103 114.5C65.0101 114.5 65.0101 114.5 65.11 114.5C65.11 114.5 65.11 114.5 65.2098 114.5C65.2098 114.5 65.2098 114.5 65.3097 114.5C65.4096 114.5 65.5094 114.5 65.7092 114.5C65.809 114.5 65.809 114.5 65.9089 114.5H66.0087H66.1086C66.3083 114.5 66.4082 114.6 66.6079 114.6L70.8021 115.8H70.9019C71.1017 115.9 71.2015 115.9 71.4012 116H71.5011C71.601 116 71.601 116.1 71.7008 116.1L71.8007 116.2C71.9006 116.2 71.9006 116.3 72.0004 116.3C72.0004 116.3 72.1003 116.3 72.1003 116.4C72.2001 116.5 72.2001 116.5 72.3 116.6C72.3 116.7 72.3999 116.7 72.3999 116.8C72.3999 116.9 72.4997 116.9 72.4997 117L73.5982 120.3C73.5982 120.4 73.6981 120.6 73.7979 120.7C73.8978 120.8 73.9976 120.9 74.0975 121C74.1974 121 74.1974 121.1 74.2972 121.1C74.3971 121.2 74.4969 121.2 74.5968 121.3C74.5968 121.3 74.6967 121.3 74.6967 121.4C74.8964 121.5 75.0961 121.6 75.2958 121.6L100.661 129C100.86 129.1 101.06 129.1 101.26 129.1H101.36C101.559 129.1 101.759 129.1 101.959 129.2C102.159 129.2 102.358 129.2 102.558 129.2C102.558 129.2 102.558 129.2 102.658 129.2C102.858 129.2 103.057 129.1 103.257 129.1L118.835 125.5C119.035 125.5 119.235 125.4 119.335 125.3C119.335 125.3 119.335 125.3 119.435 125.3C119.634 125.2 119.834 125.1 119.934 125.1L134.813 116.5C135.213 116.3 135.412 116 135.612 115.7L141.803 105.1C141.903 104.9 142.003 104.7 142.003 104.5V118C142.003 118.2 141.903 118.4 141.803 118.6L135.612 129.2C135.412 129.5 135.213 129.7 134.813 130L119.934 138.6C119.734 138.7 119.634 138.8 119.435 138.8C119.435 138.8 119.435 138.8 119.335 138.8C119.235 138.8 119.135 138.9 119.035 138.9C118.935 138.9 118.935 138.9 118.835 139L103.257 142.6H103.157C103.057 142.6 102.957 142.6 102.858 142.7C102.758 142.7 102.758 142.7 102.658 142.7C102.658 142.7 102.658 142.7 102.558 142.7C102.558 142.7 102.558 142.7 102.458 142.7C102.358 142.7 102.258 142.7 102.159 142.7C102.059 142.7 101.959 142.7 101.859 142.7C101.759 142.7 101.659 142.7 101.46 142.7C101.36 142.7 101.36 142.7 101.26 142.7H101.16H101.06C100.86 142.7 100.76 142.6 100.561 142.6L75.196 135.2H75.0961C74.8964 135.1 74.7965 135.1 74.5968 135C74.5968 135 74.4969 135 74.4969 134.9C74.3971 134.9 74.3971 134.8 74.2972 134.8L74.1974 134.7C74.0975 134.7 74.0975 134.6 73.9976 134.6C73.9976 134.6 73.8978 134.6 73.8978 134.5C73.7979 134.4 73.7979 134.4 73.6981 134.3C73.6981 134.2 73.5982 134.2 73.5982 134.1C73.5982 134 73.4983 134 73.4983 133.9L72.3999 130.6C72.3999 130.5 72.3 130.3 72.2001 130.2C72.1003 130.1 72.0004 130 71.9006 129.9C71.8007 129.9 71.8007 129.8 71.7008 129.8C71.601 129.7 71.5011 129.7 71.4012 129.6H71.3014C71.1017 129.5 70.9019 129.4 70.7022 129.4L66.508 128.2C66.3083 128.1 66.1086 128.1 65.9089 128.1H65.809C65.6093 128.1 65.4096 128.1 65.2098 128.1C65.2098 128.1 65.2098 128.1 65.11 128.1C64.9103 128.1 64.7105 128.1 64.5108 128.1C64.5108 128.1 64.5108 128.1 64.411 128.1C64.2112 128.1 64.0115 128.2 63.7119 128.2L54.8243 130.4C54.7244 130.4 54.7244 130.4 54.6245 130.4C54.5247 130.4 54.4248 130.4 54.325 130.5C54.2251 130.5 54.1252 130.5 54.0254 130.5H53.9255C53.9255 130.5 53.9255 130.5 53.8257 130.5C53.7258 130.5 53.7258 130.5 53.6259 130.5C53.5261 130.5 53.4262 130.5 53.3264 130.5C53.2265 130.5 53.1266 130.5 52.9269 130.5C52.9269 130.5 52.9269 130.5 52.827 130.5C52.7272 130.5 52.6273 130.5 52.5275 130.5C52.3277 130.5 52.2279 130.4 52.0282 130.4H51.9283C51.6287 130.3 51.429 130.2 51.2293 130.1L48.533 128.5C48.4331 128.5 48.4331 128.4 48.3333 128.4C48.2334 128.3 48.1336 128.3 48.1336 128.2C48.0337 128.1 48.0337 128.1 47.9338 128C47.9338 128 47.9338 128 47.9338 127.9C47.9338 127.9 47.9338 127.8 47.834 127.8C47.834 127.7 47.7341 127.7 47.7341 127.6V127.5C47.7341 127.4 47.7341 127.4 47.7341 127.3V125V124.9C47.7341 124.8 47.7341 124.8 47.6343 124.7C47.6343 124.7 47.6343 124.7 47.6343 124.6L47.5344 124.5C47.5344 124.5 47.5344 124.4 47.4345 124.4L47.3347 124.3L47.2348 124.2C47.2348 124.2 47.2348 124.2 47.1349 124.1C47.0351 124 46.9352 123.9 46.7355 123.8C46.6356 123.7 46.5358 123.7 46.4359 123.6H46.3361C46.2362 123.6 46.1363 123.5 46.0365 123.5H45.9366C45.7369 123.4 45.5372 123.4 45.3374 123.4H45.2376C45.1377 123.4 45.0379 123.4 44.938 123.4C44.8381 123.4 44.7383 123.4 44.6384 123.4C44.6384 123.4 44.6384 123.4 44.5386 123.4C44.4387 123.4 44.239 123.4 44.1391 123.4H44.0392C43.9394 123.4 43.8395 123.4 43.7397 123.4H43.6398C43.5399 123.4 43.4401 123.4 43.3402 123.4H43.2404C43.1405 123.4 42.9408 123.5 42.8409 123.5L28.6606 127.6C28.5607 127.6 28.4609 127.7 28.361 127.7H28.2612H28.1613C28.0614 127.7 28.0614 127.7 27.9616 127.7C27.8617 127.7 27.7619 127.7 27.662 127.7C27.5621 127.7 27.4623 127.7 27.3624 127.7H27.2625H27.1627H27.0628C26.963 127.7 26.8631 127.7 26.7632 127.7C26.7632 127.7 26.7632 127.7 26.6634 127.7C26.5635 127.7 26.3638 127.7 26.2639 127.6C26.0642 127.6 25.8645 127.5 25.6648 127.5C25.6648 127.5 25.6648 127.5 25.5649 127.5C25.3652 127.4 25.0656 127.3 24.8659 127.2L23.368 126.3C23.2681 126.3 23.2681 126.2 23.1682 126.2C23.0684 126.1 22.9685 126.1 22.9685 126C22.8687 125.9 22.8687 125.9 22.7688 125.8C22.7688 125.8 22.7688 125.8 22.7688 125.7C22.7688 125.7 22.7688 125.7 22.7688 125.6C22.7688 125.6 22.7688 125.5 22.6689 125.5C22.6689 125.4 22.5691 125.4 22.5691 125.3V125.2C22.5691 125.1 22.5691 125.1 22.5691 125V111.5C22.5691 111.6 22.5691 111.7 22.6689 111.8C22.6689 111.9 22.7688 112 22.8687 112.1C22.8687 112.1 22.8687 112.1 22.8687 112.2C22.9685 112.3 23.0684 112.4 23.1682 112.5C23.2681 112.6 23.368 112.6 23.368 112.7C23.4678 112.7 23.4678 112.8 23.5677 112.8L25.0656 113.7C25.2653 113.8 25.465 113.9 25.7646 114H25.8645C26.0642 114.1 26.2639 114.1 26.4637 114.1C26.6634 114.1 26.7632 114.1 26.963 114.2C26.963 114.2 26.963 114.2 27.0628 114.2C27.1627 114.2 27.3624 114.2 27.4623 114.2H27.5621C27.662 114.2 27.8617 114.2 27.9616 114.2C28.0614 114.2 28.2612 114.2 28.361 114.1H28.4609C28.6606 114.1 28.7605 114 28.9602 114L31.5566 113.3L22.9685 103.9C22.8687 103.8 22.8687 103.8 22.7688 103.7C22.6689 103.6 22.5691 103.6 22.4692 103.5L22.3693 103.4C22.2695 103.4 22.2695 103.3 22.1696 103.3C22.0698 103.3 22.0698 103.2 21.9699 103.2C21.87 103.2 21.87 103.1 21.7702 103.1C21.6703 103.1 21.6703 103.1 21.5705 103C21.4706 103 21.2709 102.9 21.171 102.9H21.0711H20.9713C20.8714 102.9 20.7716 102.9 20.5718 102.9H20.472C20.3721 102.9 20.1724 102.9 20.0725 102.9C19.8728 102.9 19.6731 102.9 19.5732 102.9L6.89084 104.4C6.79098 104.4 6.79098 104.4 6.69112 104.4C6.59126 104.4 6.4914 104.4 6.39153 104.4C6.39153 104.4 6.39153 104.4 6.29167 104.4C6.19181 104.4 6.09195 104.4 5.99209 104.4C5.89223 104.4 5.89223 104.4 5.79237 104.4H5.6925H5.59264C5.49278 104.4 5.39292 104.4 5.29306 104.4H5.1932C5.1932 104.4 5.1932 104.4 5.09334 104.4C4.89361 104.4 4.79375 104.3 4.59403 104.3C4.59403 104.3 4.59403 104.3 4.49417 104.3C4.39431 104.3 4.39431 104.3 4.29445 104.2C4.19459 104.2 4.19459 104.2 4.09472 104.1C3.99486 104.1 3.895 104 3.895 104C3.79514 104 3.79514 103.9 3.69528 103.9C3.69528 103.9 3.69528 103.9 3.59542 103.8C3.49556 103.7 3.39569 103.7 3.29583 103.6C3.29583 103.6 3.29583 103.6 3.19597 103.6C3.09611 103.5 3.09611 103.5 2.99625 103.4L1.39847 101.5C1.39847 101.5 1.39847 101.5 1.29861 101.4C1.19875 101.3 1.19875 101.3 1.19875 101.2C1.19875 101.2 1.19875 101.1 1.09888 101.1C1.09888 101 1.09888 101 0.999023 100.9C0.999023 100.8 0.999023 100.8 0.999023 100.7V87.2002C0.999023 87.0002 0.999023 87.1002 1.09888 87.2002Z" fill="#2F58FF"/>
<path d="M41.7424 52.8001C41.4428 53.0001 41.1432 53.2001 41.0433 53.4001L34.4525 63.0001C34.2528 63.2001 34.053 63.5001 33.7535 63.6001L22.569 70.1001C22.0697 70.4001 21.7701 70.7001 21.6702 71.1001L18.6744 79.5001C18.5746 79.9001 18.1751 80.2001 17.7757 80.5001C17.3762 80.7001 16.777 80.9001 16.2777 81.0001L5.59258 82.5001C4.99341 82.6001 4.49411 82.8001 4.09466 83.0001C3.89494 83.1001 3.59535 83.3001 3.49549 83.5001L1.39841 85.9001C0.899099 86.4001 0.899099 87.1001 1.39841 87.6001L2.99619 89.6001C3.69522 90.4001 5.09327 90.8001 6.59119 90.6001L19.2736 89.1001C20.6716 88.9001 22.1696 89.3001 22.8686 90.1001L32.9546 101C33.5537 101.7 33.4539 102.5 32.655 103.1L23.4678 110C22.4691 110.8 22.569 111.9 23.7673 112.5L25.2653 113.4C26.2639 114 27.8617 114.1 29.06 113.8L43.2403 109.7C45.4372 109.1 48.0336 110 48.0336 111.4V113.6C48.0336 114.1 48.3332 114.6 49.0322 115L51.7285 116.6C52.7271 117.2 54.1252 117.3 55.4234 117L64.311 114.8C65.2098 114.6 66.2084 114.6 67.1071 114.8L71.3013 116C72.2001 116.3 72.8991 116.8 73.0988 117.3L74.1973 120.6C74.397 121.2 75.096 121.7 75.9948 121.9L101.36 129.3C102.158 129.5 103.157 129.6 104.056 129.4L119.634 125.8C120.034 125.7 120.433 125.6 120.733 125.4L135.612 116.8C136.011 116.6 136.211 116.3 136.411 116L142.602 105.4C143.002 104.7 142.602 103.8 141.604 103.3L69.1044 67.2001C68.2056 66.7001 66.9074 66.6001 65.7091 66.9001L54.5246 69.5001C52.3277 69.9001 49.931 69.0001 49.931 67.6001V58.7001C49.931 58.4001 50.1307 58.0001 50.4303 57.7001L53.9254 54.3001C54.7243 53.5001 54.5246 52.6001 53.4261 51.9001L50.5302 50.2001C49.232 49.4001 47.1349 49.4001 45.8367 50.2001L41.7424 52.8001Z" fill="white"/>
<path d="M32.6552 103.1L23.468 110C22.4694 110.8 22.5692 111.9 23.7676 112.5" stroke="#171A21" stroke-width="2" stroke-miterlimit="10" stroke-linecap="round" stroke-linejoin="round"/>
<path d="M54.0253 54.4002C54.8242 53.6002 54.6245 52.7002 53.526 52.0002L50.63 50.3002C49.3318 49.5002 47.2347 49.5002 45.9365 50.3002L41.7424 52.7002C41.4428 52.9002 41.1432 53.1002 41.0433 53.3002L34.4525 63.0002C34.2528 63.2002 34.0531 63.5002 33.7535 63.6002L22.569 70.1002C22.0697 70.4002 21.7701 70.7002 21.6703 71.1002L18.6744 79.5002C18.5746 79.9002 18.1751 80.2002 17.7757 80.5002C17.3762 80.7002 16.777 80.9002 16.2777 81.0002L5.59258 82.5002C4.99341 82.6002 4.49411 82.8002 4.09466 83.0002C3.89494 83.1002 3.59535 83.3002 3.49549 83.5002L1.39841 85.9002C0.899099 86.4002 0.899099 87.1002 1.39841 87.6002L2.99619 89.6002" stroke="#171A21" stroke-width="2" stroke-miterlimit="10" stroke-linecap="round" stroke-linejoin="round"/>
<path d="M136.211 116L142.403 105.4C142.802 104.7 142.403 103.8 141.404 103.3L69.1045 67.2002C68.2058 66.7002 66.9076 66.6002 65.7092 66.9002L54.5248 69.5002C52.3278 69.9002 49.9312 69.0002 49.9312 67.6002" stroke="#171A21" stroke-width="2" stroke-miterlimit="10" stroke-linecap="round" stroke-linejoin="round"/>
<path d="M34.3524 15C33.254 15 32.4551 15.9 32.4551 16.9V77.1C32.4551 78.2 33.3538 79 34.3524 79C35.4509 79 36.2498 78.1 36.2498 77.1V16.9C36.3497 15.8 35.4509 15 34.3524 15Z" fill="#2F58FF"/>
<path d="M32.7545 22.3L50.4299 12C51.5284 11.4 52.0277 12.5 51.3287 13.8L46.9348 22C46.5353 22.8 46.5353 23.6 46.9348 23.9L51.3287 27C52.0277 27.5 51.5284 29.3 50.4299 29.9L32.7545 40.1C32.0555 40.5 31.5562 40.2 31.5562 39.4V24.4C31.5562 23.6 32.0555 22.7 32.7545 22.3Z" fill="#E8F4FA" stroke="#171A21" stroke-width="2" stroke-miterlimit="10" stroke-linecap="round" stroke-linejoin="round"/>
</g>
<defs>
<clipPath id="clip0">
<rect width="144" height="144" fill="white"/>
</clipPath>
</defs>
</svg>
