<svg width="144" height="144" viewBox="0 0 144 144" fill="none" xmlns="http://www.w3.org/2000/svg">
<path d="M63 26.6C63.9 26.1 64.5 25.1 64.5 24V15.9C64.5 13.6 62 12.1 60 13.3" stroke="#171A21" stroke-width="2" stroke-miterlimit="10" stroke-linecap="round" stroke-linejoin="round"/>
<path d="M82.3 37.7001C83.2 37.2001 83.8 36.2001 83.8 35.1001V27.0001C83.8 24.7001 81.3 23.2001 79.3 24.4001" stroke="#171A21" stroke-width="2" stroke-miterlimit="10" stroke-linecap="round" stroke-linejoin="round"/>
<path d="M101.6 48.8999C102.5 48.3999 103.1 47.3999 103.1 46.2999V38.2999C103.1 35.9999 100.6 34.4999 98.6001 35.6999" stroke="#171A21" stroke-width="2" stroke-miterlimit="10" stroke-linecap="round" stroke-linejoin="round"/>
<path d="M58.7001 11.9001L45.5001 14.6001C45.4001 14.6001 45.3001 14.7001 45.2001 14.7001L6.60012 37.0001C5.60012 37.6001 6.20012 39.1001 7.30012 38.8001L20.5001 36.1001C20.6001 36.1001 20.7001 36.0001 20.8001 36.0001L59.3001 13.6001C60.3001 13.2001 59.8001 11.7001 58.7001 11.9001Z" fill="#2F58FF"/>
<path d="M78.0002 23.0002L64.7002 25.7002C64.6002 25.7002 64.5002 25.8002 64.4002 25.8002L25.9002 48.2002C24.9002 48.8002 25.5002 50.3002 26.6002 50.0002L39.9002 47.3002C40.0002 47.3002 40.1002 47.2002 40.2002 47.2002L78.7002 24.8002C79.7002 24.3002 79.1002 22.8002 78.0002 23.0002Z" fill="#2F58FF"/>
<path d="M83.7001 36.9001L45.1001 59.3001C44.1001 59.9001 44.7001 61.4001 45.8001 61.1001L59.1001 58.5001C59.2001 58.5001 59.3001 58.4001 59.4001 58.4001L98.0001 36.0001C99.0001 35.4001 98.4001 33.9001 97.3001 34.2001L84.0001 36.8001C83.9001 36.9001 83.8001 36.9001 83.7001 36.9001Z" fill="#2F58FF"/>
<path d="M59.3 73.4999L101.7 48.8999C102.6 48.3999 103.8 48.3999 104.7 48.8999L138.3 68.2999C140.3 69.4999 140.3 72.2999 138.3 73.4999" stroke="#171A21" stroke-width="2" stroke-miterlimit="10" stroke-linecap="round" stroke-linejoin="round"/>
<path d="M98.8 138.6C98.8 140.9 96.3 142.3 94.3 141.2L2.80005 88.4001C1.90005 87.9001 1.30005 86.9001 1.30005 85.8001L1.40005 42.5001C1.40005 41.1001 2.40005 39.8001 3.80005 39.6001L11.5 38.0001L17.1 36.9001C19 36.5001 20.7001 38.0001 20.7001 39.8001V47.5001C20.7001 49.4001 22.4 50.8001 24.3 50.5001L36.5 48.1001C38.4 47.7001 40.1 49.2001 40.1 51.1001V58.8001C40.1 60.7001 41.8001 62.1001 43.7001 61.8001L55.9001 59.4001C57.8001 59.0001 59.5 60.5001 59.5 62.4001V72.0001C59.5 73.1001 60.1 74.1001 61 74.6001L97.6 95.7001C98.5 96.2001 99.1 97.2001 99.1 98.3001" fill="white"/>
<path d="M55.7 59.2C57.6 58.8 59.2999 60.3 59.2999 62.2V71.8C59.2999 72.9 59.8999 73.9 60.7999 74.4L97.4 95.5C98.3 96 98.9 97 98.9 98.1" stroke="#171A21" stroke-width="2" stroke-miterlimit="10" stroke-linecap="round" stroke-linejoin="round"/>
<path d="M36.3999 48.0999C38.2999 47.6999 39.9999 49.1999 39.9999 51.0999V58.7999C39.9999 60.6999 41.6999 62.0999 43.5999 61.7999" stroke="#171A21" stroke-width="2" stroke-miterlimit="10" stroke-linecap="round" stroke-linejoin="round"/>
<path d="M17.1001 36.9001C19.0001 36.5001 20.7001 38.0001 20.7001 39.8001V47.5001C20.7001 49.4001 22.4001 50.8001 24.3001 50.5001" stroke="#171A21" stroke-width="2" stroke-miterlimit="10" stroke-linecap="round" stroke-linejoin="round"/>
<path d="M98.8 138.6C98.8 140.9 96.3 142.3 94.3 141.2L2.80005 88.4001C1.90005 87.9001 1.30005 86.9001 1.30005 85.8001L1.40005 42.5001C1.40005 41.1001 2.40005 39.8001 3.80005 39.6001" stroke="#171A21" stroke-width="2" stroke-miterlimit="10" stroke-linecap="round" stroke-linejoin="round"/>
<path d="M41.5 81.1V90.3C41.5 91.7 42.3 93.1 43.5 93.8L48.3 96.5C49.6 97.3 51.3 96.3 51.3 94.8V85.6C51.3 84.2 50.5 82.8 49.3 82.1L44.5 79.4C43.2 78.6 41.6 79.6 41.5 81.1ZM28.4 73.5V82.7C28.4 84.1 29.2 85.5 30.4 86.2L35.2 88.9C36.5 89.7 38.2 88.7 38.2 87.2V78C38.2 76.6 37.4 75.2 36.2 74.5L31.4 71.8C30.1 71 28.4 72 28.4 73.5ZM15.5 66.1V75.3C15.5 76.7 16.3 78.1 17.5 78.8L22.3 81.5C23.6 82.3 25.3 81.3 25.3 79.8V70.6C25.3 69.2 24.5 67.8 23.3 67.1L18.5 64.4C17.2 63.6 15.5 64.5 15.5 66.1ZM57.7 86.7L57.6 110.8C57.6 112.2 58.4 113.6 59.6 114.3L70.9 120.8C72.2 121.6 73.9 120.6 73.9 119.1L74 95C74 93.6 73.2 92.2 72 91.5L60.7 85C59.4 84.2 57.7 85.1 57.7 86.7Z" fill="#2F58FF"/>
<path d="M100.4 95.4999L138.3 73.4999C140.3 72.2999 142.8 73.7999 142.8 76.0999L142.7 116.6C142.7 117.7 142.1 118.6 141.2 119.2L103.3 141.2C101.3 142.4 98.8 140.9 98.8 138.6L98.9 98.0999C98.9 96.9999 99.4 95.9999 100.4 95.4999Z" fill="#2F58FF"/>
<path d="M118.6 69.3L113.2 9C113.2 10.7 112.1 12.4 109.9 13.6C105.5 16.2 98.3 16.2 93.9 13.6C91.7 12.3 90.6 10.6 90.5 9L85.1 69.1C85.1 69.2 85.1 69.3 85 69.4C85 69.6 85 69.9 85 70.1V70.3C85 72.8 86.7 75.3 90 77.2C96.6 81 107.3 81 113.8 77.2C117.5 75 119.1 72.1 118.6 69.3Z" fill="#2F58FF"/>
<path d="M88.1001 40.3C88.1001 42.3 89.5001 44.4001 92.2001 45.9001C97.6001 49.0001 106.3 49.0001 111.6 45.9001C114.3 44.3001 115.6 42.3 115.6 40.3" stroke="white" stroke-width="2" stroke-miterlimit="10" stroke-linecap="round" stroke-linejoin="round"/>
<path d="M90.3999 9.20005C90.3999 7.50005 91.4999 5.80005 93.7999 4.50005C98.2999 1.90005 105.6 1.90005 110.1 4.50005C112.3 5.80005 113.5 7.50005 113.4 9.20005" stroke="#171A21" stroke-width="2" stroke-miterlimit="10" stroke-linecap="round" stroke-linejoin="round"/>
<path d="M86.8 52.8999C86.8 55.0999 88.3 57.3999 91.3 59.0999C97.2 62.4999 106.7 62.4999 112.6 59.0999C115.5 57.3999 117 55.1999 117 52.8999" stroke="white" stroke-width="2" stroke-miterlimit="10" stroke-linecap="round" stroke-linejoin="round"/>
</svg>
