<svg width="144" height="144" viewBox="0 0 144 144" fill="none" xmlns="http://www.w3.org/2000/svg">
<path d="M78.5001 109.1L29.4001 81.1999C28.0001 80.3999 26.3001 81.3999 26.3001 82.9999L26.1001 108.1C26.1001 111 27.7001 113.7 30.2001 115.2L78.2001 142.5C80.7001 144 83.9001 144 86.4001 142.5L137.8 112.6C140.3 111.1 141.9 108.5 141.9 105.6L142.1 80.3999C142.1 78.7999 140.4 77.7999 139 78.5999L86.7001 109C84.1001 110.6 81.0001 110.6 78.5001 109.1Z" fill="#2F58FF"/>
<path d="M139 78.6L86.6001 109C84.1001 110.5 80.9001 110.5 78.4001 109L29.4001 81.2C28.0001 80.4 28.0001 78.5 29.4001 77.7L81.8001 47.3C84.3001 45.8 87.5001 45.8 90.0001 47.3L139 75.1C140.4 75.9 140.4 77.9 139 78.6Z" fill="white"/>
<path d="M142.1 81.5999V80.4C142.1 80 142 79.6 141.8 79.3C141.2 77.3 139.9 75.6 138 74.5L89.9999 47.2C87.4999 45.7 84.2999 45.7 81.7999 47.2L30.3999 77C28.5999 78.1 27.1999 79.8 26.6999 81.8C26.4999 82.1 26.3999 82.5 26.3999 82.9" stroke="#171A21" stroke-width="2" stroke-miterlimit="10" stroke-linecap="round" stroke-linejoin="round"/>
<path d="M110.9 70.9999L90.9003 59.7999C89.1003 58.6999 86.1003 58.6999 84.2003 59.7999L52.4003 78.2999C50.6003 79.3999 50.6003 81.0999 52.4003 82.1999L72.4003 93.3999C74.2003 94.4999 77.2003 94.4999 79.1003 93.3999L86.3003 89.1999C86.4003 89.2999 86.5003 89.4999 86.7003 89.4999C88.6003 90.4999 90.4003 91.0999 92.6003 91.3999C96.0003 91.7999 99.3003 90.9999 102.7 88.9999C106.1 86.9999 107.5 85.0999 106.8 83.0999C106.3 81.7999 105 80.5999 103.1 79.3999L111 74.7999C112.8 73.7999 112.8 72.0999 110.9 70.9999ZM99.9003 81.6999C100.9 82.2999 101.6 82.9999 101.8 83.5999C101.9 83.8999 102.3 84.8999 99.1003 86.7999C95.9003 88.6999 94.2003 88.4999 93.6003 88.3999C92.4003 88.2999 91.1003 87.6999 89.9003 87.0999L99.7003 81.3999C99.6003 81.5999 99.7003 81.6999 99.9003 81.6999Z" fill="#2F58FF"/>
<path d="M61.1002 18.5C61.2002 18.5 61.3002 18.4 61.4002 18.4C61.5002 18.4 61.6002 18.2999 61.6002 18.2999C61.7002 18.2999 61.8002 18.2 61.9002 18.2C62.0002 18.2 62.1002 18.1 62.2002 18.1C62.3002 18.1 62.4002 18 62.5002 18C62.6002 18 62.7002 18 62.8002 17.9C62.9002 17.9 63.0002 17.9 63.1002 17.7999C63.2002 17.7999 63.3002 17.7999 63.4002 17.7999C63.5002 17.7999 63.6002 17.7999 63.7002 17.7999C63.8002 17.7999 63.9002 17.7999 64.0002 17.7999C64.1002 17.7999 64.2002 17.7999 64.3002 17.7999C64.4002 17.7999 64.5002 17.7999 64.6002 17.7999C64.7002 17.7999 64.9002 17.7999 65.0002 17.7999C65.1002 17.7999 65.2002 17.7999 65.3002 17.7999C65.5002 17.7999 65.6002 17.7999 65.8002 17.9C65.9002 17.9 65.9002 17.9 66.0002 17.9C66.3002 17.9 66.5002 18 66.8002 18C66.9002 18 66.9002 18 67.0002 18.1C67.2002 18.2 67.4002 18.1999 67.6002 18.2999C67.7002 18.2999 67.8002 18.4 67.9002 18.4C68.0002 18.4 68.1002 18.5 68.3002 18.5C68.4002 18.5 68.5002 18.6 68.6002 18.6C68.7002 18.6 68.8002 18.6999 69.0002 18.7999C69.1002 18.7999 69.2002 18.9 69.3002 18.9C69.4002 19 69.6002 19 69.7002 19.1C69.8002 19.2 69.9002 19.1999 70.1002 19.2999C70.2002 19.4 70.4002 19.4 70.5002 19.5C70.7002 19.6 70.8002 19.6999 71.0002 19.7999C71.3002 20 71.6002 20.1999 71.9002 20.4C72.0002 20.5 72.1002 20.5 72.2002 20.6C72.4002 20.8 72.7002 20.9 72.9002 21.1C73.0002 21.2 73.1002 21.1999 73.1002 21.2999C73.4002 21.5 73.7002 21.7 74.0002 22L74.1002 22.1C74.3002 22.3 74.6002 22.5 74.8002 22.7C74.9002 22.8 75.0002 22.9 75.1002 23C75.2002 23.1 75.4002 23.1999 75.5002 23.4C75.6002 23.5 75.7002 23.6 75.8002 23.7C75.9002 23.8 76.0002 23.9 76.2002 24.1C76.3002 24.2 76.4002 24.2999 76.5002 24.4C76.6002 24.5 76.7002 24.6999 76.9002 24.7999C77.0002 24.9 77.1002 25 77.2002 25.1C77.3002 25.2 77.4002 25.4 77.6002 25.5C77.7002 25.6 77.8002 25.6999 77.9002 25.7999C78.1002 26.0999 78.4002 26.4 78.6002 26.7L78.7002 26.7999C78.9002 27.0999 79.1002 27.3 79.3002 27.6C79.4002 27.7 79.5002 27.7999 79.5002 27.9C79.6002 28.1 79.8002 28.2999 79.9002 28.4C80.0002 28.5 80.1002 28.6 80.1002 28.7C80.2002 28.9 80.3002 29.0999 80.5002 29.2999C80.6002 29.4 80.6002 29.5 80.7002 29.6C80.8002 29.8 80.9002 29.9 81.0002 30.1C81.1002 30.2 81.1002 30.2999 81.2002 30.5C81.3002 30.7 81.4002 30.9 81.5002 31.1C81.6002 31.2 81.6002 31.2999 81.7002 31.4C81.8002 31.6 81.9002 31.6999 82.0002 31.9C82.1002 32 82.1002 32.0999 82.2002 32.2999C82.3002 32.5 82.4002 32.7 82.5002 32.9C82.6002 33 82.6002 33.1 82.7002 33.2C82.8002 33.4 82.9002 33.7 83.0002 33.9C83.0002 34 83.1002 34 83.1002 34.0999C83.2002 34.3999 83.4002 34.7 83.5002 35C83.5002 35 83.5002 35.0999 83.6002 35.0999C83.7002 35.3999 83.8002 35.6 83.9002 35.9C83.9002 36 84.0002 36.1 84.0002 36.2C84.1002 36.4 84.1002 36.5999 84.2002 36.7999C84.2002 36.8999 84.3002 37 84.3002 37.0999C84.4002 37.2999 84.4002 37.5 84.5002 37.7999C84.5002 37.8999 84.6002 38 84.6002 38.2C84.7002 38.4 84.7002 38.5999 84.8002 38.7999C84.8002 38.8999 84.9002 39 84.9002 39.0999C85.0002 39.3999 85.1002 39.7999 85.1002 40.0999C85.1002 40.1999 85.1002 40.2 85.1002 40.2999C85.2002 40.7 85.2002 41.1 85.3002 41.4C85.3002 41.6 85.3002 41.7 85.4002 41.9C85.4002 42 85.4002 42.0999 85.4002 42.2999C85.4002 42.5 85.4002 42.5999 85.5002 42.7999C85.5002 42.8999 85.5002 43 85.5002 43.0999C85.5002 43.2999 85.5002 43.5 85.5002 43.7C85.5002 43.7999 85.5002 43.9 85.5002 44C85.5002 44.2999 85.5002 44.5999 85.5002 44.7999C85.5002 46.7999 85.2002 48.5999 84.6002 50C84.4002 50.4 84.3002 50.7999 84.0002 51.2C83.9002 51.4 83.8002 51.6 83.7002 51.7C83.0002 52.7 82.2002 53.5 81.2002 54.0999L110.2 37.5C112.8 36 114.5 32.7 114.5 28.1C114.5 27.8 114.5 27.5 114.5 27.2999C114.5 27.1999 114.5 27.1 114.5 27C114.5 26.7999 114.5 26.6 114.5 26.4C114.5 26.2999 114.5 26.2 114.5 26.1C114.5 25.9 114.5 25.8 114.4 25.6C114.4 25.5 114.4 25.4 114.4 25.2C114.4 25.1 114.4 25 114.4 24.9V24.7999C114.3 24.4 114.3 24.1 114.2 23.7C114.2 23.6 114.2 23.6 114.2 23.5C114.1 23.2 114.1 22.7999 114 22.5C114 22.4 114 22.4 114 22.2999C114 22.1999 114 22.2 113.9 22.1C113.8 21.9 113.8 21.7 113.7 21.5C113.7 21.4 113.6 21.3 113.6 21.1C113.5 20.9 113.5 20.6999 113.4 20.4C113.4 20.2999 113.4 20.2 113.3 20.2C113.3 20.2 113.3 20.2 113.3 20.1C113.2 19.9 113.2 19.7 113.1 19.5C113.1 19.4 113 19.3 113 19.2C112.9 18.9 112.8 18.6999 112.7 18.4C112.7 18.4 112.7 18.2999 112.6 18.2999C112.5 18 112.4 17.6999 112.2 17.4C112.2 17.2999 112.1 17.3 112.1 17.2C112 17 111.9 16.7 111.8 16.5C111.8 16.4 111.7 16.3 111.7 16.2C111.6 16 111.5 15.8 111.4 15.6C111.3 15.5 111.3 15.4 111.2 15.2C111.1 15 111 14.9 110.9 14.7C110.8 14.6 110.8 14.5 110.7 14.4C110.6 14.2 110.5 14 110.4 13.8C110.3 13.7 110.3 13.6 110.2 13.4C110.1 13.2 110 13.1 109.9 12.9C109.9 12.9 109.9 12.8 109.8 12.8C109.8 12.7 109.7 12.6 109.7 12.6C109.6 12.4 109.5 12.2 109.3 12C109.2 11.9 109.1 11.8 109.1 11.7C109 11.5 108.9 11.3 108.7 11.2C108.7 11.1 108.6 11.1 108.6 11L108.5 10.9C108.3 10.6 108.1 10.4 107.9 10.1L107.8 9.99995C107.6 9.69995 107.3 9.39995 107.1 9.09995C107.1 9.09995 107.1 8.99995 107 8.99995C106.9 8.89995 106.9 8.79995 106.8 8.79995C106.7 8.69995 106.6 8.49995 106.4 8.39995C106.3 8.29995 106.2 8.19995 106.1 8.09995C106 7.99995 105.9 7.79995 105.7 7.69995C105.6 7.59995 105.5 7.49995 105.4 7.39995C105.3 7.29995 105.2 7.19995 105 6.99995C104.9 6.89995 104.8 6.79995 104.7 6.69995C104.6 6.59995 104.4 6.49995 104.3 6.29995C104.2 6.19995 104.2 6.19995 104.1 6.09995L104 5.99995C103.8 5.79995 103.5 5.59995 103.3 5.39995L103.2 5.29995C102.9 5.09995 102.6 4.79995 102.3 4.59995C102.2 4.49995 102.1 4.49995 102.1 4.39995C101.9 4.19995 101.6 4.09995 101.4 3.89995C101.3 3.79995 101.2 3.79995 101.1 3.69995C100.8 3.49995 100.5 3.29995 100.2 3.09995C100.1 3.09995 100 2.99995 99.9002 2.99995C99.8002 2.99995 99.7002 2.89995 99.7002 2.89995C99.6002 2.79995 99.4002 2.79995 99.3002 2.69995C99.2002 2.59995 99.1002 2.59995 98.9002 2.49995C98.8002 2.39995 98.6002 2.39995 98.5002 2.29995C98.4002 2.19995 98.3002 2.19995 98.2002 2.19995C97.8002 1.99995 97.7002 1.99995 97.5002 1.99995C97.4002 1.99995 97.3002 1.89995 97.2002 1.89995C97.1002 1.89995 97.0002 1.79995 96.8002 1.79995C96.7002 1.79995 96.7002 1.79995 96.6002 1.69995H96.5002C96.3002 1.59995 96.1002 1.59995 95.9002 1.49995C95.8002 1.49995 95.8002 1.49995 95.7002 1.39995C95.4002 1.29995 95.2002 1.29995 94.9002 1.29995C94.8002 1.29995 94.8002 1.29995 94.7002 1.29995C94.5002 1.29995 94.4002 1.29995 94.2002 1.19995C94.1002 1.19995 94.0002 1.19995 93.9002 1.19995C93.8002 1.19995 93.6002 1.19995 93.5002 1.19995H93.4002C93.3002 1.19995 93.3002 1.19995 93.2002 1.19995C93.1002 1.19995 93.0002 1.19995 92.9002 1.19995C92.8002 1.19995 92.7002 1.19995 92.6002 1.19995C92.5002 1.19995 92.4002 1.19995 92.3002 1.19995H92.2002H92.1002C92.0002 1.19995 91.9002 1.19995 91.8002 1.29995C91.7002 1.29995 91.6002 1.29995 91.5002 1.39995C91.4002 1.39995 91.3002 1.49995 91.2002 1.49995C91.1002 1.49995 91.1002 1.49995 91.0002 1.49995H90.9002C90.8002 1.49995 90.7002 1.59995 90.6002 1.59995C90.5002 1.59995 90.4002 1.69995 90.4002 1.69995C90.3002 1.69995 90.2002 1.79995 90.1002 1.79995C90.0002 1.89995 90.0002 1.99995 89.9002 1.99995C89.8002 1.99995 89.8002 2.09995 89.7002 2.09995L60.7002 18.7C60.9002 18.6 61.0002 18.6 61.1002 18.5Z" fill="#2F58FF"/>
<path d="M56.5 28.0999C56.5 18.8999 62.9 15.1999 70.8 19.6999C78.7 24.1999 85.1 35.3999 85.1 44.5999C85.1 53.7999 78.7 57.4999 70.8 52.9999C62.9 48.4999 56.5 37.2999 56.5 28.0999Z" fill="#F1F9FD"/>
<path d="M83.5 51.5C81.1 55.3 76.3 56.1 70.9 53C63 48.4 56.5 37.3 56.5 28.1C56.5 22.4 59 18.8 62.7 18" stroke="#171A21" stroke-width="2" stroke-miterlimit="10" stroke-linecap="round" stroke-linejoin="round"/>
<path d="M113.9 35.4C113.9 35.3 113.9 35.3 113.9 35.2C113.9 34.8 113.8 34.4 113.7 34.1C113.1 32.5 111.4 31.3 109 29.7C108.3 29.2 104.5 32.8 104.5 33.6V34C104.5 34.4 104.7 34.8 105.1 35C105.9 35.4 106.8 36 107.5 36.6C107 37.1 106.3 37.6 105.3 38.2C101.8 40.2 99.9 40 99.3 39.9C97.7 39.7 96.1 38.9 94.5 38.1C94.1 37.9 93.7 37.9 93.4 38.1C93.4 38.1 90 41.1 90 42V42.4C90 42.8 90.2 43.2 90.6 43.4C96.8 46.7 103.1 47.1 109.4 43.4C112.9 41.4 113.9 39.7 113.9 35.9C113.9 35.7 113.9 35.6 113.9 35.4Z" fill="#F1F9FD"/>
<path d="M94.2002 44.9999C99.2002 46.6999 104.4 46.3999 109.4 43.3999C112.9 41.3999 113.9 39.6999 113.9 35.8999C113.9 35.6999 113.9 35.4999 113.9 35.2999C113.9 35.1999 113.9 35.1999 113.9 35.0999C113.9 34.6999 113.8 34.2999 113.7 33.9999C113.5 33.3999 113.1 32.8999 112.6 32.3999L94.2002 44.9999Z" stroke="#171A21" stroke-width="2" stroke-miterlimit="10" stroke-linecap="round" stroke-linejoin="round"/>
<path d="M31.7 6.80012L8.7 20.1001C5 22.2001 2 27.4001 2 31.7001L2.1 58.2001C2.1 62.4001 5.1 64.2001 8.8 62.0001L31.9 48.7001C35.6 46.6001 38.6 41.4001 38.6 37.1001L38.5 10.6001C38.4 6.40012 35.4 4.70012 31.7 6.80012Z" fill="white" stroke="#171A21" stroke-width="2" stroke-miterlimit="10" stroke-linecap="round" stroke-linejoin="round"/>
<path d="M30.3001 18.1001C29.5001 18.5001 28.7001 19.3001 28.2001 20.4001L17.4001 38.9001C17.3001 39.2001 17.1001 39.4001 16.9001 39.5001C16.7001 39.6001 16.5001 39.6001 16.4001 39.6001L12.4001 37.3001C11.8001 37.0001 11.0001 37.1001 10.2001 37.5001C9.4001 37.9001 8.6001 38.7001 8.0001 39.8001C6.8001 41.9001 6.8001 44.1001 8.0001 44.7001L14.7001 48.5001C15.3001 48.8001 16.1001 48.7001 16.9001 48.3001C17.7001 47.9001 18.5001 47.1001 19.1001 46.0001L32.5001 22.8001C33.1001 21.8001 33.4001 20.7001 33.4001 19.8001C33.4001 18.9001 33.1001 18.2001 32.5001 17.8001C31.9001 17.5001 31.1001 17.6001 30.3001 18.1001Z" fill="#2F58FF"/>
</svg>
