<svg width="375" height="252" viewBox="0 0 375 252" fill="none" xmlns="http://www.w3.org/2000/svg">
<mask id="mask0" mask-type="alpha" maskUnits="userSpaceOnUse" x="0" y="0" width="375" height="252">
<rect width="375" height="252" fill="#F1F9FD"/>
</mask>
<g mask="url(#mask0)">
<path d="M415.109 341.844L-20.5812 90.298C-90.0437 210.611 -48.8216 364.454 71.491 433.916C191.804 503.379 345.647 462.157 415.109 341.844Z" fill="#FFD394"/>
<path d="M214.114 -64.6606L197.264 216.071L415.109 341.844L431.96 61.1124L214.114 -64.6606Z" fill="#2F58FF"/>
<path d="M197.264 216.071L-20.5811 90.2982L214.114 -64.6605L197.264 216.071Z" fill="#9AF4DC"/>
<path d="M-20.5812 90.298L197.264 216.071L1.61978 374.289C-61.9018 295.706 -74.1259 183.04 -20.5812 90.298Z" fill="#FB7070"/>
<path d="M-19.2533 83.9661L198.592 209.739L2.94768 367.957C-60.5739 289.374 -72.798 176.708 -19.2533 83.9661Z" stroke="#171A21" stroke-width="2" stroke-linecap="round" stroke-linejoin="round" stroke-dasharray="12 12"/>
<path d="M475.325 79.2162L356.325 9.46619" stroke="#171A21" stroke-width="2"/>
</g>
</svg>
