<svg width="938" height="579" viewBox="0 0 938 579" fill="none" xmlns="http://www.w3.org/2000/svg">
<path d="M938 71.9429V77.7761L928.486 86.4179L921.134 93.1153L912.701 92.8993L906.431 96.356L908.16 103.269V108.022L893.457 115.152L890.862 125.306V144.318L902.322 158.145L900.809 163.978L888.7 168.947V176.725L880.051 181.478L874.213 184.502H864.698L849.562 199.841L851.941 202.218L854.536 219.501L850.427 229.007L844.805 241.97L841.13 241.322L840.265 235.057L830.967 234.625L837.454 245.859L845.022 254.717L841.778 268.112L836.589 276.537H831.399L832.264 266.815L827.94 259.902L821.453 256.445L820.804 247.803L822.75 236.785L819.507 234.841L812.371 242.402L814.966 247.803L815.615 259.902L820.155 262.278L825.129 271.568L826.21 276.537L826.858 279.562L824.912 286.259L832.48 286.907L838.319 289.5L836.805 296.846L841.778 300.086L841.562 302.895L836.589 307.432L845.238 314.129V322.771L842.859 324.283L838.535 326.876L842.643 334.005L839.832 341.135L816.912 344.807V353.665L810.209 366.412L799.614 368.788L797.884 371.597L791.613 382.183L791.829 388.016L777.991 402.707H771.936L767.396 412.862L759.828 416.966L759.611 419.343L757.665 449.373L763.071 456.503L765.45 466.657L765.666 466.873L771.504 471.842V479.619L785.343 491.502L786.856 504.897L792.046 514.619L802.208 533.415V562.149H780.802C780.802 562.149 780.802 561.932 780.802 561.716C779.937 559.556 774.747 555.019 774.747 555.019L766.747 555.667V545.729H761.125L758.746 542.056V536.655L754.206 536.439L744.908 525.637L745.989 519.588L741.448 520.236L739.07 515.915L739.286 514.619L741.232 505.761L739.718 490.638L734.745 488.909L720.042 472.706L707.5 471.842L692.797 480.484L686.959 481.996L678.093 468.817L654.092 467.089L650.632 466.873L650.2 467.089L642.848 472.706L638.74 468.169L633.55 472.706H612.143V481.996L608.035 487.397L619.063 498.631L613.008 502.304L598.305 495.391L590.521 504.681H577.331L573.655 491.718L558.302 487.397V494.094L555.059 496.039L533.869 490.638H525.436L496.893 503.384V509.218L488.461 514.835L485.217 516.995L472.46 519.588L467.919 526.501L461.648 527.149L458.189 535.143L453.864 536.223L454.08 553.075C453.215 555.883 453.432 559.124 453.864 562.365C454.945 569.494 458.189 576.407 458.189 576.407L454.513 579.216L438.944 574.679C428.998 572.735 422.727 567.334 419.051 562.365C414.943 556.963 413.862 551.994 413.862 551.994C412.781 544.217 411.051 541.408 411.051 541.408C401.537 536.007 394.185 515.699 394.185 515.699C394.185 515.483 393.969 515.267 393.969 515.051C387.049 498.415 377.319 490.422 377.319 490.422H367.805L364.994 487.181L348.777 486.533V497.767L338.614 505.545C323.478 501.872 312.883 483.076 312.883 483.076L313.315 472.922L308.775 467.305L280.449 432.954L249.744 430.577L247.149 442.46L192.444 435.762L165.847 419.775L129.305 397.522V387.368H85.1941L83.6805 371.597L83.0318 364.684L75.4638 361.875V353.233H68.5445L67.4633 346.968L61.6252 345.456L50.5975 331.845L36.1102 330.116L31.1369 326.012L31.7856 324.067L33.9479 317.802L32.2181 314.561L30.7045 310.888L32.6505 305.703L30.272 299.654L28.9746 296.413L23.5689 282.803L20.9742 280.426V276.969L25.0825 272.648V268.328L18.3794 260.55L19.0281 243.482L12.9737 236.785L13.6224 227.495L6.91932 217.341L7.568 203.73L9.51406 195.088L0 184.07L5.62195 176.509L15.7847 160.089L14.7036 152.096L17.2983 146.91L18.3794 126.17L29.1909 106.51L36.7589 92.6832V85.1217L39.7861 80.5847L42.3808 76.6959L48.219 58.116V52.931L53.4085 46.8817L50.5975 41.0485L51.03 31.5425L55.787 26.7896L51.2462 26.1414L51.4624 19.444L48.6515 17.9317V13.3948L51.4624 5.61716H55.5708L58.1655 12.5306L67.6796 16.2034L77.8423 17.9317V24.8451L73.5177 30.8944L67.6796 32.8388L68.7607 42.1287H77.1936L83.0318 35.2153V27.2216L85.4103 24.4131L80.8695 18.3638L84.113 12.5306L85.4103 9.28993L82.8156 6.69739L85.1941 0L121.088 11.0183L165.415 22.9007L180.551 26.1414L182.497 26.5735L205.417 30.2463L257.961 38.672L259.474 38.8881L277.854 41.0485L371.481 52.2828L380.13 52.7149L386.401 52.931L452.783 55.7396L462.946 55.0914L490.839 53.147V45.5854L498.623 50.1224V59.6284L514.841 65.4616L519.381 60.2765L531.923 64.8134L535.382 70.6466L547.275 74.7515L556.573 71.9429L576.898 75.1836L581.871 67.406L587.926 66.7578L595.926 58.116L595.278 54.8754L597.656 50.5545L619.711 51.4187L623.82 54.0112L632.253 69.7825L640.686 69.9985L642.415 65.4616L649.551 69.7825L650.2 77.344L654.74 80.5847L654.957 86.634V89.0105L659.93 89.2265V95.0597L665.336 99.1646L667.714 104.35L687.391 103.269L717.014 102.621L728.691 114.288L737.988 128.115L734.529 134.164H721.771L715.284 126.818L713.338 127.899L714.203 134.164L714.852 138.917L708.798 149.935L712.906 166.787L703.608 174.348L702.743 181.478L702.311 188.607L692.797 191.848V196.817L703.392 197.465L717.014 181.694L718.528 179.965L732.799 180.829L745.34 171.107L753.989 171.324L756.368 166.787L754.422 162.682L745.124 163.762L743.61 157.065L752.908 148.207L768.477 139.781L780.586 140.429L778.856 135.028L780.586 133.948L798.316 126.602L802.641 117.744L814.75 107.158L861.023 96.356L863.834 88.5784L870.969 86.634L872.699 83.1772L872.915 77.7761L877.023 76.2638L876.807 70.2146L873.348 63.0851L878.105 39.3202H909.89L917.458 63.0851L924.378 63.3011L925.242 70.6466L938 71.9429Z" fill="#F1F9FD"/>
<path d="M173.199 22.2527C173.199 22.2527 159.793 55.3075 162.388 58.7643C164.766 62.221 160.009 79.5045 160.009 79.5045L157.631 86.8501C157.631 86.8501 163.036 94.6277 162.604 98.0844C162.171 101.541 154.171 108.887 154.82 110.831C155.252 112.775 144.873 119.257 145.954 121.633C147.035 124.01 149.414 125.09 147.9 128.979C146.387 132.868 136.656 174.78 136.656 174.78" stroke="white" stroke-width="4" stroke-miterlimit="10"/>
<path d="M45.1918 52.2828C45.1918 52.2828 57.0844 51.8507 59.0304 52.7149C60.9765 53.7951 60.9765 57.6839 60.9765 57.6839C60.9765 57.6839 65.9498 55.7395 67.4634 56.6037C68.977 57.6839 69.4094 63.5172 69.4094 63.5172C69.4094 63.5172 69.4094 67.406 67.8958 69.3504C66.3822 71.2948 69.4094 73.6713 71.3555 74.3194C73.3015 74.7515 77.1936 72.375 79.1397 72.8071C81.0858 73.2392 89.0862 77.128 89.0862 77.128L97.9516 78.2082L105.736 76.6959L110.06 80.1526L122.385 79.0724C122.385 79.0724 131.251 79.0724 138.603 81.4489C145.954 83.8254 157.414 86.4179 157.414 86.4179" stroke="white" stroke-width="4" stroke-miterlimit="10"/>
<path d="M187.038 25.7095L181.632 45.8016L184.659 54.6595L182.281 58.9804C182.281 58.9804 184.659 64.3815 188.768 66.3259C192.66 68.2703 190.714 80.5848 193.741 81.6651C193.741 81.6651 202.174 80.1528 202.174 81.6651C202.174 83.1774 194.39 95.0598 194.39 95.0598C194.39 95.0598 194.39 98.9487 192.876 100.893C191.362 102.837 193.308 103.27 194.822 104.35C196.336 105.43 203.255 102.405 202.606 105.43C202.174 108.455 203.687 113.856 203.687 113.856L208.228 122.714L206.282 128.115C206.282 128.115 209.742 128.547 209.742 130.059C209.742 131.571 209.309 133.084 211.255 134.38C213.201 135.892 217.742 136.324 217.742 136.324C217.742 136.324 225.094 136.324 227.04 136.756C228.986 137.189 232.878 136.756 232.878 136.756C232.878 136.756 236.77 132.436 238.284 133.732C239.798 135.244 241.311 139.133 241.311 139.133" stroke="white" stroke-width="4" stroke-miterlimit="10"/>
<path d="M15.136 141.726C15.136 141.726 170.172 189.039 232.23 193.36" stroke="white" stroke-width="4" stroke-miterlimit="10"/>
<path d="M362.399 49.6904C362.399 49.6904 347.696 204.162 346.615 231.816" stroke="white" stroke-width="4" stroke-miterlimit="10"/>
<path d="M354.615 139.781C348.128 142.157 301.855 135.892 294.071 135.892C286.287 135.892 243.257 128.979 243.257 128.979C241.311 143.67 227.473 216.045 227.473 216.045C227.473 216.045 329.1 233.328 380.13 233.977C380.13 233.977 380.563 314.345 376.238 323.419C376.238 323.419 190.281 308.944 163.469 297.062" stroke="white" stroke-width="4" stroke-miterlimit="10"/>
<path d="M351.155 187.527C351.155 187.527 440.89 194.44 475.703 190.551" stroke="white" stroke-width="4" stroke-miterlimit="10"/>
<path d="M461 55.7397C461 55.7397 464.459 63.0853 463.378 65.6778C462.297 68.0543 460.351 78.8565 464.459 82.3132C468.351 85.77 469 92.2513 469.433 96.1401C469.865 100.029 468.351 106.942 469.433 109.967C470.514 112.992 474.406 121.849 474.406 124.658C474.406 127.683 469 135.46 469 135.46L473.973 138.485C473.973 138.485 477.001 173.916 476.352 178.885C475.919 183.854 473.325 192.064 475.271 196.169C477.217 200.058 475.703 208.483 477.649 211.508C479.595 214.533 483.055 222.31 484.136 225.335C485.217 228.36 482.622 242.618 487.163 246.507C491.488 250.396 494.083 256.877 495.596 257.742C497.11 258.822 496.677 262.711 501.434 262.062C506.408 261.63 507.273 262.062 504.894 264.007C502.515 265.951 497.11 267.464 498.407 268.976C499.921 270.488 499.921 269.408 501.867 271.352C503.813 273.297 504.894 277.834 504.894 277.834C507.273 277.834 509.867 280.21 509.867 280.21C509.867 280.21 508.354 294.901 509.435 297.494C510.516 299.87 509.435 323.635 510.948 325.58C512.462 327.524 509.002 336.814 511.381 340.919C513.759 344.808 512.894 357.554 512.894 357.554C516.354 362.955 512.894 386.072 515.273 394.498C517.651 402.924 514.841 402.276 514.841 402.276L522.625 403.356C522.625 403.356 521.544 430.361 525.652 436.843C529.544 443.324 530.193 444.188 530.625 447.213C531.058 450.237 534.085 452.182 535.166 454.558C536.247 456.935 537.112 463.416 535.166 465.793C533.22 468.169 529.76 472.706 531.274 475.083C532.787 477.459 534.734 482.86 532.787 485.021C530.841 486.965 531.274 492.798 531.274 492.798" stroke="white" stroke-width="4" stroke-miterlimit="10"/>
<path d="M577.114 73.4553C577.114 73.4553 544.031 98.0844 541.653 101.109C539.274 104.134 541.653 112.343 541.653 112.343C541.653 112.343 529.76 125.738 530.841 128.979C531.923 132.436 532.788 134.38 532.788 139.349C532.788 144.318 532.788 150.151 536.68 151.664C540.572 153.176 545.545 153.608 549.437 157.497C553.329 161.386 552.897 163.33 556.789 165.274C560.681 167.219 560.681 173.7 560.681 175.645C560.681 177.589 564.141 182.99 564.141 182.99L563.06 188.823L564.573 194.224H569.546L576.033 199.625C576.033 199.625 579.061 202.002 579.925 205.027C581.007 208.051 583.385 211.94 580.358 214.317C577.331 216.693 583.818 217.773 577.331 221.23C570.844 224.687 568.898 222.742 568.465 224.687C568.033 226.631 568.465 235.489 568.465 235.489L561.546 241.322C561.546 241.322 558.086 257.958 563.06 261.414C568.033 264.871 577.331 267.896 579.277 271.784C581.223 275.673 581.223 283.667 584.25 286.475C587.277 289.5 587.71 295.333 587.71 295.333C587.71 295.333 591.169 301.815 596.143 302.247C601.116 302.679 601.981 307.216 601.981 309.16C601.981 311.105 595.061 313.481 600.467 316.506C605.873 319.53 607.819 321.475 607.819 321.475L608.251 326.012L605.224 329.9C605.224 329.9 596.359 330.333 597.872 332.925C599.386 335.302 601.332 336.814 601.332 336.814L601.764 344.592C601.764 344.592 601.765 345.672 601.332 348.048C600.9 350.425 596.359 352.585 595.494 354.53C594.413 356.474 593.115 366.412 591.169 368.356C589.223 370.301 590.088 371.381 587.71 373.325C585.331 375.27 579.277 383.696 581.223 385.64C583.169 387.584 577.763 390.609 577.763 390.609C577.763 390.609 572.357 393.634 576.25 400.547C580.142 407.461 574.736 411.781 577.331 413.726C579.709 415.67 579.709 418.695 579.709 418.695L583.601 425.608C583.601 425.608 578.628 428.633 579.709 430.145C579.709 430.145 571.276 447.429 573.222 453.262C575.168 459.095 577.763 459.743 577.763 459.743L604.792 454.774L607.819 463.2C607.819 463.2 606.738 469.681 609.765 470.978L614.738 473.354" stroke="white" stroke-width="4" stroke-miterlimit="10"/>
<path d="M144.657 339.622C139.251 334.653 73.734 232.896 70.2743 230.952C66.8147 229.007 86.9239 163.114 86.9239 163.114" stroke="white" stroke-width="4" stroke-miterlimit="10"/>
<path d="M183.146 187.527C183.146 187.527 160.442 314.993 158.063 318.882C155.685 322.771 154.171 319.314 154.171 319.314L147.684 314.345C145.306 317.37 145.522 322.339 145.738 324.715C146.171 327.092 147.036 332.709 147.036 334.005C147.036 335.301 141.414 341.999 142.927 343.079C144.225 344.159 145.306 347.616 145.954 348.912C146.603 350.209 148.333 353.665 149.414 355.826C150.495 357.986 149.414 361.011 146.603 360.363C143.792 359.715 141.414 361.659 141.414 361.659C141.414 361.659 137.521 370.733 139.035 372.677C140.332 374.838 136.873 374.838 136.873 377.214C136.873 379.591 133.846 382.399 135.792 383.479C137.954 384.56 142.711 384.776 139.9 386.504C137.089 388.232 135.143 389.313 132.981 389.313C130.818 389.313 128.872 386.936 128.872 386.936" stroke="white" stroke-width="4" stroke-miterlimit="10"/>
<path d="M262.502 221.662C262.502 221.662 233.095 433.818 235.689 442.892" stroke="white" stroke-width="4" stroke-miterlimit="10"/>
<path d="M358.94 321.475C360.021 321.475 357.858 335.734 357.858 335.734C355.696 337.462 352.237 424.528 351.588 434.25C351.588 434.25 285.638 430.145 283.26 430.145C280.881 430.145 279.8 432.738 279.8 432.738" stroke="white" stroke-width="4" stroke-miterlimit="10"/>
<path d="M376.238 323.419C376.238 323.419 488.461 329.252 510.732 325.148" stroke="white" stroke-width="4" stroke-miterlimit="10"/>
<path d="M357.858 335.734C357.858 335.734 406.726 337.03 410.186 337.462L411.916 380.887L416.456 384.776L423.808 383.48L426.835 387.584L435.268 391.473H440.89L445.647 390.393L451.269 394.282V396.658L459.702 395.362L464.243 397.09L467.703 396.658L472.46 396.01L477 397.09L480.893 399.467L486.731 397.306H495.38L500.137 394.498L503.597 395.794C503.597 395.794 511.381 401.843 514.624 402.275" stroke="white" stroke-width="4" stroke-miterlimit="10"/>
<path d="M379.481 257.309C379.481 257.309 450.404 262.494 495.596 257.525" stroke="white" stroke-width="4" stroke-miterlimit="10"/>
<path d="M485.866 244.779C485.866 244.779 491.704 245.427 501.218 245.427C510.732 245.427 545.977 240.674 549.437 240.674C552.897 240.674 556.356 241.754 556.356 241.754H561.978" stroke="white" stroke-width="4" stroke-miterlimit="10"/>
<path d="M476.136 178.669C476.136 178.669 494.083 177.157 500.786 178.885C507.272 180.614 534.734 178.237 539.923 177.805C545.113 177.373 560.681 175.645 560.681 175.645" stroke="white" stroke-width="4" stroke-miterlimit="10"/>
<path d="M541.004 105.43C541.004 105.43 551.167 103.053 553.113 103.053C555.275 103.053 554.41 99.5967 557.221 100.029C560.032 100.461 561.762 102.837 562.411 104.782C563.06 106.942 571.709 106.942 571.709 106.942C571.709 106.942 577.331 107.374 587.277 111.695C597.44 116.232 603.278 116.88 603.278 116.88L603.927 120.337L609.765 124.226L613.657 132.22L616.9 137.837L617.117 149.719L616.9 173.916L614.954 188.607C614.954 188.607 616.252 192.928 616.9 195.089C616.9 195.089 616.468 196.817 617.333 199.842C617.982 202.866 619.495 202.002 624.685 203.946C629.874 206.107 629.874 208.483 629.874 208.483C629.874 208.483 627.712 218.205 626.847 223.823C625.766 229.44 630.955 262.711 631.388 266.383C631.82 270.272 632.469 277.402 632.469 277.402C632.469 277.402 628.577 287.124 626.847 291.012C625.117 294.901 626.847 297.278 627.928 298.574C629.009 299.87 627.496 304.407 627.496 304.407C627.496 304.407 622.955 305.487 619.063 306.136C615.171 306.784 619.711 310.24 620.144 312.401C620.576 314.561 619.495 315.426 619.495 315.426L616.468 313.049C616.468 313.049 611.927 313.481 609.549 313.697C607.17 314.129 608.251 321.691 608.251 321.691" stroke="white" stroke-width="4" stroke-miterlimit="10"/>
<path d="M572.357 197.249C572.357 197.249 581.655 197.681 584.899 197.681C587.926 197.681 600.467 195.953 600.467 195.953L609.765 194.224L616.252 193.792" stroke="white" stroke-width="4" stroke-miterlimit="10"/>
<path d="M509.219 337.03C509.219 337.03 526.517 332.925 532.139 334.653C537.761 336.382 552.897 335.086 552.897 335.086L568.898 333.357C568.898 333.357 590.521 330.549 591.818 332.061C593.115 333.357 591.385 339.622 589.656 341.783C587.926 343.943 590.953 344.159 594.196 343.943C597.224 343.511 599.386 340.055 601.116 340.919" stroke="white" stroke-width="4" stroke-miterlimit="10"/>
<path d="M695.175 195.088C695.175 195.088 684.796 202.218 681.337 202.866C677.877 203.514 670.309 204.594 670.309 204.594L664.471 201.786L651.281 205.242L638.091 208.699L630.09 208.267" stroke="white" stroke-width="4" stroke-miterlimit="10"/>
<path d="M605.657 330.333C605.657 330.333 628.577 330.549 628.577 328.82C628.577 327.092 628.577 324.932 628.577 324.932L642.848 323.635C642.848 323.635 672.255 318.018 686.31 317.154C700.148 316.074 711.392 313.049 724.582 310.673C737.772 308.296 761.99 307.648 770.423 305.055C778.856 302.679 800.911 298.79 809.344 294.685C817.777 290.58 827.291 284.315 827.291 284.315" stroke="white" stroke-width="4" stroke-miterlimit="10"/>
<path d="M523.057 415.454C523.057 415.454 540.788 414.374 546.41 414.806C552.032 415.238 577.547 412.429 577.547 412.429" stroke="white" stroke-width="4" stroke-miterlimit="10"/>
<path d="M592.467 366.412C592.467 366.412 600.9 365.332 604.575 364.252C608.468 363.171 593.548 364.9 643.713 360.363C694.094 355.826 717.014 349.561 717.014 349.561L722.853 348.48C722.853 348.48 731.285 342.647 735.394 341.999C739.502 341.351 753.341 338.974 753.341 338.974C753.341 338.974 754.638 337.894 758.53 338.542C762.422 339.19 765.45 339.839 765.45 339.839L765.882 344.375L771.72 345.024L788.802 340.271L803.722 350.425L816.263 353.881" stroke="white" stroke-width="4" stroke-miterlimit="10"/>
<path d="M650.632 468.169L653.227 463.632V458.015C653.227 458.015 654.524 454.126 651.929 453.478C649.119 452.83 649.551 449.373 649.551 449.373L655.822 448.293L663.822 447.861L677.012 446.781L691.932 444.404C691.932 444.404 698.419 443.108 701.662 443.756C704.689 444.404 705.554 447.645 705.554 447.645L710.744 448.293C710.744 448.293 715.501 446.565 724.582 446.565C733.664 446.565 741.232 445.484 746.421 445.484C751.611 445.484 752.043 444.404 753.773 445.052C755.503 445.7 758.314 449.805 759.395 449.805" stroke="white" stroke-width="4" stroke-miterlimit="10"/>
<path d="M626.847 362.091C626.847 362.091 632.469 369.437 632.685 370.733C632.901 372.029 632.685 390.393 632.685 390.393C632.685 390.393 629.225 417.183 629.874 418.047C630.523 419.127 628.793 429.929 630.307 431.658C631.604 433.386 632.685 439.219 632.685 439.219C632.685 439.219 636.577 462.768 636.793 465.577C637.226 468.385 639.821 471.194 639.821 471.194" stroke="white" stroke-width="4" stroke-miterlimit="10"/>
<path d="M678.526 357.554V362.091C678.526 362.091 678.093 360.363 683.283 374.838C688.472 389.313 694.094 411.565 695.824 413.078C697.554 414.374 697.986 417.831 696.905 419.559C695.824 421.287 695.608 422.368 695.175 424.096C694.743 425.824 694.743 428.633 694.743 428.633L699.284 434.466L696.473 439.651V442.028" stroke="white" stroke-width="4" stroke-miterlimit="10"/>
<path d="M721.555 348.48L718.744 354.962L723.501 357.338C727.393 359.066 727.393 359.066 727.393 359.066L734.745 364.251L740.583 371.597C740.583 371.597 741.016 376.782 746.854 380.023C752.692 383.047 758.746 386.504 758.746 386.504C758.746 386.504 759.828 387.584 760.476 389.529C761.125 391.689 762.855 395.146 762.855 395.146C762.855 395.146 765.666 398.171 766.963 400.331C768.261 402.491 772.585 404.004 772.585 404.004" stroke="white" stroke-width="4" stroke-miterlimit="10"/>
<path d="M699.284 353.233C699.284 353.233 698.851 350.209 699.284 347.616C699.716 345.24 702.095 344.808 703.824 344.808C705.554 344.808 704.257 340.919 706.203 340.055C708.365 338.974 712.041 336.598 713.771 336.598C715.501 336.598 716.582 333.141 716.582 333.141L723.934 327.956L726.096 324.931C730.853 323.851 734.529 322.771 734.529 322.771C734.529 322.771 750.53 313.481 754.638 307.216" stroke="white" stroke-width="4" stroke-miterlimit="10"/>
<path d="M670.525 204.811C670.525 204.811 676.796 258.174 678.526 262.711" stroke="white" stroke-width="4" stroke-miterlimit="10"/>
<path d="M751.827 168.947L752.476 181.046C752.476 181.046 815.615 164.842 821.237 163.978C826.858 163.33 826.858 165.706 826.858 165.706L829.237 168.515C829.237 168.515 828.805 169.811 830.967 170.891C833.129 171.972 837.886 174.78 837.886 174.78L847.616 176.509C847.616 176.509 852.373 182.126 854.968 180.613C857.347 179.317 854.32 178.237 854.32 176.509C854.32 174.78 855.401 172.404 855.401 172.404C855.401 172.404 854.32 155.12 853.022 152.96C851.725 150.799 849.995 141.941 849.995 141.941L848.265 131.787L844.373 119.257C844.373 119.257 842.643 110.831 839.616 107.806C836.589 104.782 834.859 99.1646 834.859 99.1646" stroke="white" stroke-width="4" stroke-miterlimit="10"/>
<path d="M626.847 294.685C626.847 294.685 637.01 297.062 638.307 297.062C639.604 297.062 643.064 295.981 643.064 295.981L644.794 292.957C644.794 292.957 644.794 291.66 653.227 287.772C661.66 283.883 671.174 277.618 671.174 277.618L675.066 273.081C675.715 270.704 679.607 270.704 678.958 269.192C678.309 267.896 674.417 263.359 676.796 262.926C679.174 262.494 682.418 261.198 682.634 262.278C683.066 263.359 685.661 262.926 688.472 264.655C691.283 266.383 692.58 269.192 692.58 269.192H701.662C705.554 268.112 709.014 268.112 709.014 268.112C709.014 268.112 707.717 265.303 709.663 265.303C711.825 265.303 713.555 262.278 714.852 264.007C716.149 265.735 715.501 268.112 715.501 268.112L718.528 271.568C718.528 271.568 718.528 279.13 720.906 280.642C723.285 281.938 729.988 286.907 731.718 288.204C733.448 289.5 735.826 293.821 738.205 293.821C740.583 293.821 744.475 293.389 744.475 293.389L745.557 291.228C748.584 291.876 752.908 289.5 752.908 289.5L760.26 285.611L763.72 283.451V275.457C763.72 275.457 761.99 271.568 763.72 270.92C765.45 270.272 769.99 259.902 769.774 257.957C769.558 256.013 770.639 252.556 771.72 251.476C772.801 250.396 769.558 251.692 774.747 249.316C780.153 246.723 779.721 248.452 781.234 247.155C782.748 245.859 785.775 240.89 786.208 238.729C786.856 236.569 788.154 236.137 787.072 234.193C785.991 232.248 784.261 230.736 787.937 233.112C791.613 235.273 792.911 236.137 794.857 236.785C796.803 237.433 798.965 238.081 798.965 236.785C798.965 235.489 797.235 232.032 798.965 232.032C800.695 232.032 804.803 235.921 808.047 237.001C811.29 238.081 810.425 241.754 813.885 242.402" stroke="white" stroke-width="4" stroke-miterlimit="10"/>
<path d="M732.799 180.614C732.799 180.614 737.556 187.311 738.421 187.743C739.286 188.391 740.367 192.712 740.367 192.712C740.367 192.712 739.718 201.354 742.097 204.162C744.259 206.971 744.908 212.588 744.908 212.588C744.908 212.588 742.962 227.927 743.61 229.44C744.259 230.736 742.529 233.328 743.61 235.705C744.692 237.865 741.664 239.594 740.583 241.322C739.502 243.05 739.286 245.211 737.124 245.211C737.124 245.211 730.637 248.02 730.421 250.18C730.204 252.34 729.772 254.069 729.772 256.445C729.772 258.606 729.123 259.038 729.123 259.038L726.312 257.309L725.447 259.47L725.231 262.495C725.231 262.495 728.691 259.686 725.231 264.439C721.771 269.192 721.339 270.92 721.339 270.92L718.744 271.568" stroke="white" stroke-width="4" stroke-miterlimit="10"/>
<path d="M771.288 250.828C771.288 250.828 769.558 247.803 769.558 245.427C769.558 243.266 767.396 237.649 767.396 237.649L766.098 232.68C766.098 232.68 763.503 233.76 761.99 234.625C760.26 235.489 759.179 237.433 757.233 237.217C755.287 237.001 751.611 235.921 751.611 235.921L749.881 233.976C749.881 233.976 746.421 233.112 747.286 231.168C748.151 229.223 745.34 227.711 745.34 227.711C742.746 228.359 743.61 228.575 743.61 228.575" stroke="white" stroke-width="4" stroke-miterlimit="10"/>
<path d="M832.264 235.489C832.264 235.489 829.453 228.792 829.67 226.199C829.886 223.606 828.588 220.582 828.588 220.582L825.561 216.477L819.074 215.829L807.182 218.853L795.722 220.798L787.937 227.495C787.937 227.495 784.478 230.52 785.991 232.896" stroke="white" stroke-width="4" stroke-miterlimit="10"/>
<path d="M834.859 171.972C834.859 171.972 828.372 176.725 829.453 178.669C830.534 180.613 831.616 182.774 831.616 182.774L831.399 185.799L832.48 188.607L832.697 192.064L833.562 195.953L838.967 198.761L832.697 217.773L836.805 222.526L830.102 221.23" stroke="white" stroke-width="4" stroke-miterlimit="10"/>
</svg>
