<svg width="144" height="144" viewBox="0 0 144 144" fill="none" xmlns="http://www.w3.org/2000/svg">
<path d="M4.5 89.8999V96.2999C4.5 96.5999 4.7 96.9999 5.2 97.2999L83.5 142.5C83.6 142.6 83.7 142.6 83.8 142.7C83.8 142.7 83.8 142.7 83.9 142.7C84 142.7 84 142.7 84.1 142.8H84.2C84.2 142.8 84.2 142.8 84.3 142.8C84.3 142.8 84.3 142.8 84.4 142.8C84.5 142.8 84.6 142.8 84.6 142.8H84.7C84.7 142.8 84.7 142.8 84.8 142.8H84.9C85 142.8 85.7 142.8 85.7 142.8C85.8 142.8 85.8 142.8 85.9 142.8H86C86.1 142.8 86.2 142.8 86.2 142.7H86.3H86.4H86.5C86.6 142.7 86.7 142.6 86.8 142.5L133.6 115.3C133.7 115.2 133.8 115.2 133.9 115.1C134 115 134 115 134 114.9C134 114.9 133.9 114.9 133.9 114.8V114.4V111.8L134.1 108C134.1 108.1 134.2 108.2 134.2 108.2C134.2 108.3 134.1 108.3 134.1 108.4C134 108.5 134 108.5 133.9 108.6" stroke="#171A21" stroke-width="2" stroke-miterlimit="10" stroke-linecap="round" stroke-linejoin="round"/>
<path d="M55.0999 61.7C54.1999 61.2 53.3999 59.9 53.3999 58.8L53.5999 4.6C53.5999 4.1 53.7999 3.7 54.0999 3.5C55.2999 2.8 57.3999 1.6 57.3999 1.6C57.4999 1.6 57.5999 1.5 57.7999 1.5C57.8999 1.5 57.9999 1.5 58.0999 1.5C58.2999 1.6 58.3999 1.6 58.5999 1.7L136.9 47C137.4 47.3 137.8 47.7 138.1 48.2C138.2 48.5 138.6 49 138.6 49.8C138.6 50.5 138.3 102.1 138.2 103C138.2 103.8 138.1 105.1 137.5 105.4L134.6 107.1" fill="white"/>
<path d="M55.0999 61.7C54.1999 61.2 53.3999 59.9 53.3999 58.8L53.5999 4.6C53.5999 4.1 53.7999 3.7 54.0999 3.5C55.2999 2.8 57.3999 1.6 57.3999 1.6C57.4999 1.6 57.5999 1.5 57.7999 1.5C57.8999 1.5 57.9999 1.5 58.0999 1.5C58.2999 1.6 58.3999 1.6 58.5999 1.7L136.9 47C137.4 47.3 137.8 47.7 138.1 48.2C138.2 48.5 138.6 49 138.6 49.8C138.6 50.5 138.3 102.1 138.2 103C138.2 103.8 138.1 105.1 137.5 105.4L134.6 107.1" stroke="#171A21" stroke-width="2" stroke-miterlimit="10" stroke-linecap="round" stroke-linejoin="round"/>
<path d="M132 105.5C134.5 106.9 134.5 109.3 132 110.7L86.9 136.9C86.1 137.4 84.7 137.4 83.9 136.9L6.80005 92.2999C4.30005 90.8999 4.30005 88.4999 6.80005 87.0999L51.9001 60.8999C52.7001 60.3999 54.1001 60.3999 54.9001 60.8999L132 105.5Z" fill="#2F58FF"/>
<path d="M79.3999 107.1L55.1999 93.1999C54.5999 92.7999 53.5999 92.7999 52.9999 93.1999L39.0999 101.3C38.4999 101.7 38.4999 102.2 39.0999 102.6L63.2999 116.5C63.8999 116.9 64.8999 116.9 65.4999 116.5L79.3999 108.4C79.9999 108 79.9999 107.5 79.3999 107.1Z" stroke="white" stroke-width="2" stroke-miterlimit="10"/>
<path d="M59.2001 14.2L59.1001 54.8C59.1001 56.2 59.8001 57.5 61.1001 58.2L129.5 97.7C130.4 98.2 131.5 97.6 131.5 96.6L131.6 56C131.6 54.6 130.9 53.3 129.6 52.6L61.2001 13C60.3001 12.5 59.2001 13.2 59.2001 14.2Z" fill="#E8F4FA" stroke="#171A21" stroke-width="2" stroke-miterlimit="10" stroke-linecap="round" stroke-linejoin="round"/>
<path d="M113.6 63.1C113.6 62.9 113.6 62.8 113.6 62.6C113.6 62.5 113.6 62.5001 113.6 62.4001V62.3C113.6 62.2 113.6 62.2 113.6 62.1C113.6 61.9 113.6 61.8 113.5 61.6C113.5 61.5 113.5 61.3001 113.4 61.2001C113.4 61.0001 113.3 60.9001 113.3 60.7001C113.3 60.5001 113.2 60.4001 113.2 60.2001V60.1V60C113.2 59.9 113.2 59.8001 113.1 59.7001C113.1 59.5001 113 59.4001 113 59.2001C113 59.1001 112.9 59.0001 112.9 58.9001V58.8V58.7001C112.9 58.5001 112.8 58.4001 112.7 58.2001C112.6 58.0001 112.6 57.9001 112.5 57.7001C112.5 57.6001 112.4 57.4 112.3 57.3C112.2 57.1 112.2 57 112.1 56.8C112.1 56.7 112 56.6 112 56.5C112 56.5 112 56.5001 112 56.4001V56.3C111.9 56.1 111.9 56 111.8 55.8C111.7 55.6 111.6 55.5 111.6 55.3C111.6 55.3 111.6 55.3001 111.6 55.2001V55.1C111.5 55 111.5 54.8001 111.4 54.7001C111.3 54.5001 111.1 54.2 111 54C111 54 111 53.9001 110.9 53.9001C110.9 53.8001 110.8 53.7001 110.7 53.7001C110.5 53.4001 110.3 53.1 110.1 52.8L110 52.7001C109.8 52.4001 109.6 52.2001 109.5 51.9001C109.4 51.7001 109.2 51.6001 109.1 51.4001C109 51.2001 108.9 51.1 108.7 51C108.6 50.9 108.5 50.8001 108.4 50.7001C108.3 50.6001 108.2 50.4 108 50.3L107.9 50.2001L107.8 50.1C107.7 50 107.7 50.0001 107.6 49.9001C107.5 49.8001 107.3 49.6 107.2 49.5C107.1 49.4 107.1 49.4 107 49.3L106.9 49.2001L106.8 49.1C106.7 49 106.5 48.9001 106.4 48.7001C106.3 48.6001 106.2 48.6 106.2 48.5C106.2 48.5 106.1 48.5001 106.1 48.4001L106 48.3C105.9 48.2 105.7 48.1 105.6 48C105.5 47.9 105.4 47.8 105.3 47.8C105.2 47.7 105 47.6 104.9 47.5C104.8 47.4 104.6 47.3 104.5 47.3C104.5 47.3 104.4 47.3001 104.4 47.2001L99.4998 44.4001L97.9998 45.2001C97.8998 45.1001 97.7998 45 97.6998 44.8C97.5998 44.7 97.4998 44.5001 97.2998 44.4001C97.1998 44.3001 97.0998 44.1 96.9998 44C96.8998 43.9 96.6998 43.7 96.5998 43.6C96.4998 43.5 96.3998 43.4001 96.3998 43.4001L96.2998 43.3C96.1998 43.2 96.1998 43.2 96.0998 43.1C95.9998 43 95.8998 42.9 95.7998 42.8C95.6998 42.7 95.4998 42.6 95.3998 42.5C95.2998 42.4 95.0998 42.3001 94.9998 42.2001C94.8998 42.1001 94.8998 42.1 94.7998 42L94.6998 41.9001C94.6998 41.9001 94.5998 41.9 94.5998 41.8C94.4998 41.7 94.2998 41.6 94.1998 41.5L94.0998 41.4001C94.0998 41.4001 93.9998 41.4 93.9998 41.3C93.8998 41.3 93.8998 41.2001 93.7998 41.2001C93.6998 41.1001 93.4998 41 93.3998 41C93.3998 41 93.2998 41.0001 93.2998 40.9001L88.0998 37.9001C87.9998 37.8001 87.8998 37.8001 87.7998 37.7001C87.6998 37.6001 87.4998 37.6 87.3998 37.5C87.2998 37.5 87.2998 37.4001 87.1998 37.4001C87.1998 37.4001 87.1998 37.4001 87.0998 37.4001H86.9998C86.8998 37.3001 86.6998 37.3001 86.5998 37.2001C86.4998 37.1001 86.2998 37.1 86.1998 37.1C86.0998 37.1 85.9998 37 85.8998 37C85.7998 37 85.5998 36.9001 85.4998 36.9001H85.3998H85.2998C85.1998 36.9001 85.1998 36.9001 85.0998 36.9001C84.9998 36.9001 84.7998 36.9 84.6998 36.8C84.5998 36.8 84.5998 36.8 84.4998 36.8H84.3998H84.2998C84.1998 36.8 83.9998 36.8 83.8998 36.8H83.7998H83.6998C83.5998 36.8 83.5998 36.8 83.4998 36.8C83.2998 36.8 83.1998 36.8001 82.9998 36.9001C82.9998 36.9001 82.9998 36.9001 82.8998 36.9001C82.6998 36.9001 82.4998 37 82.1998 37.1C81.8998 37.2 81.6998 37.3001 81.4998 37.4001L71.2998 43.3C71.4998 43.2 71.7998 43.1 71.9998 43C72.1998 42.9 72.4998 42.9 72.6998 42.8C72.6998 42.8 72.6998 42.8 72.7998 42.8C72.9998 42.8 73.1998 42.7001 73.4998 42.7001H73.5998C73.7998 42.7001 74.0998 42.7001 74.2998 42.7001H74.3998C74.6998 42.7001 74.8998 42.8 75.1998 42.8H75.2998C75.5998 42.9 75.8998 42.9 76.0998 43C76.3998 43.1 76.6998 43.2001 76.9998 43.4001C76.9998 43.4001 76.9998 43.4001 77.0998 43.4001C77.3998 43.5001 77.6998 43.7001 77.9998 43.9001L82.0998 46.3L75.2998 50.2001C75.1998 50.3001 75.0998 50.4001 74.9998 50.4001C74.9998 50.4001 74.9998 50.4 74.8998 50.5C74.7998 50.6 74.6998 50.7 74.5998 50.8C74.4998 50.9 74.4998 51 74.4998 51.1C74.4998 51.1 74.4998 51.1001 74.4998 51.2001C74.4998 51.2001 74.4998 51.3 74.3998 51.3V51.4001C74.3998 51.4001 74.3998 51.4 74.3998 51.5C74.3998 51.6 74.3998 51.6001 74.3998 51.7001V51.8C74.3998 51.8 74.3998 51.8001 74.3998 51.9001C74.3998 52.0001 74.3998 52 74.3998 52.1V52.2001C74.3998 52.3001 74.3998 52.3001 74.3998 52.4001C74.3998 52.5001 74.3998 52.5 74.3998 52.6C74.3998 52.7 74.3998 52.7 74.3998 52.8C74.3998 52.9 74.3998 52.9 74.3998 53V53.1C74.3998 53.1 74.3998 53.1001 74.3998 53.2001C74.3998 53.3001 74.3998 53.3001 74.3998 53.4001C74.3998 53.5001 74.3998 53.5 74.3998 53.6C74.3998 53.7 74.3998 53.7 74.3998 53.8C74.3998 53.9 74.3998 53.9 74.3998 54C74.3998 54 74.3998 54 74.3998 54.1V54.2001C74.3998 54.3001 74.3998 54.3001 74.4998 54.4001V54.5C74.4998 54.6 74.4998 54.6001 74.5998 54.7001C74.5998 54.8001 74.5998 54.8001 74.6998 54.9001V55C74.6998 55.1 74.6998 55.1001 74.7998 55.2001C74.7998 55.2001 74.7998 55.3 74.8998 55.3C74.8998 55.4 74.9998 55.4 74.9998 55.5C74.9998 55.6 75.0998 55.6001 75.0998 55.7001C75.0998 55.7001 75.0998 55.8 75.1998 55.8C75.1998 55.9 75.2998 56 75.3998 56.1C75.3998 56.1 75.3998 56.2001 75.4998 56.2001C75.5998 56.3001 75.6998 56.5 75.6998 56.6C75.6998 56.6 75.6998 56.6001 75.6998 56.7001C75.7998 56.8001 75.7998 56.9001 75.8998 56.9001C75.9998 57.0001 75.9998 57 76.0998 57.1C76.0998 57.2 76.1998 57.2 76.1998 57.3C76.1998 57.4 76.2998 57.4 76.2998 57.5C76.2998 57.6 76.3998 57.6001 76.3998 57.7001L76.4998 57.8C76.5998 57.9 76.5998 57.9 76.6998 58C76.6998 58 76.7998 58 76.7998 58.1C76.8998 58.1 76.8998 58.2001 76.9998 58.2001C76.9998 58.2001 76.9998 58.2 77.0998 58.3C77.0998 58.3 77.0998 58.3 77.1998 58.3C77.2998 58.3 77.2998 58.4001 77.3998 58.4001L77.4998 58.5C77.5998 58.5 77.5998 58.6 77.6998 58.6C77.7998 58.6 77.7998 58.7001 77.8998 58.7001C77.8998 58.8001 77.9998 59 77.9998 59.1C78.0998 59.3 78.0998 59.5001 78.1998 59.7001C78.2998 59.9001 78.2998 60.1 78.3998 60.3C78.4998 60.5 78.4998 60.7001 78.5998 60.9001C78.6998 61.1001 79.0998 60.8 79.0998 61C79.1998 61.2 79.2998 60.4 79.3998 60.6L79.4998 61.2001V60.9001C79.5998 61.1001 79.5998 60.4 79.6998 60.6C79.7998 60.8 79.6998 60.6 79.7998 60.8C79.8998 61 80.2998 60.3 80.3998 60.5L79.7998 60.8L80.0998 61C80.1998 61.2 80.0998 61.0001 80.1998 61.2001C80.2998 61.5001 80.7998 61.4001 80.8998 61.7001L80.5998 61.5C80.6998 61.6 81.2998 61.9 81.3998 62C81.5998 62.4 81.6998 62 81.9998 62.3L82.6998 62.7001C82.8998 63.0001 82.6998 62.5 82.8998 62.8C82.9998 62.9 84.1998 64 84.2998 64.1L88.1998 64.6C88.2998 64.6 88.2998 64.7 88.3998 64.7C88.4998 64.7 88.4998 64.8001 88.5998 64.8001L93.7998 67.8001C93.7998 67.8001 93.8998 67.8001 93.8998 67.9001C93.9998 67.9001 93.9998 68 94.0998 68H94.1998C94.2998 68 94.2998 68 94.3998 68.1C94.4998 68.1 94.4998 68.1 94.5998 68.2H94.6998C94.7998 68.2 94.7998 68.2 94.8998 68.2H94.9998C95.0998 68.2 95.0998 68.2 95.1998 68.2C95.1998 68.2 95.1998 68.2 95.2998 68.2C95.2998 68.2 95.2998 68.2 95.3998 68.2C95.4998 68.2 95.4998 68.2 95.5998 68.2C95.5998 68.2 95.5998 68.2 95.6998 68.2C95.6998 68.2 95.6998 68.2 95.7998 68.2H95.8998C95.9998 68.2 95.9998 68.2 96.0998 68.2C96.1998 68.2 96.2998 68.2 96.3998 68.1C96.4998 68.1 96.5998 68 96.6998 68L102.8 64.4001C102.9 64.7001 103 65.1001 103.1 65.4001V65.5C103.2 65.9 103.3 66.2 103.3 66.6C103.4 67 103.4 67.3 103.4 67.7V67.8001C103.4 68.2001 103.4 68.5001 103.4 68.9001C103.4 69.3001 103.4 69.6001 103.4 69.9001V70C103.4 70.3 103.3 70.6001 103.3 70.9001V71C103.2 71.3 103.2 71.5001 103.1 71.8001V71.9001C103 72.1001 102.9 72.3 102.9 72.5C102.9 72.5 102.9 72.6 102.8 72.6C102.7 72.8 102.6 73.1001 102.4 73.3001C102.3 73.5001 103 73.3 103 73.1C103.1 71.8 102 72.6 102 72.5C102 71.5 101.9 72.9 101.7 73C101.6 73 101.7 73.1 101.7 73C102.2 71.6 103.9 70.8 102.3 73.2L110.9 68.9001C111.1 68.8001 111.3 68.7 111.5 68.5C111.6 68.5 111.6 68.4001 111.7 68.4001C111.8 68.3001 112 68.2 112.1 68C112.1 67.9 112.2 67.9001 112.2 67.8001C112.3 67.6001 112.5 67.5001 112.6 67.3001C112.7 67.1001 112.8 66.9 112.9 66.7C112.9 66.7 112.9 66.6 113 66.6C113.1 66.5 113.1 66.4 113.2 66.2C113.2 66.1 113.3 66.0001 113.3 65.9001V65.8001V65.7C113.3 65.5 113.4 65.4 113.4 65.2C113.4 65.1 113.4 65.1 113.4 65V64.9001V64.8001C113.4 64.7001 113.4 64.5001 113.5 64.3001C113.5 64.2001 113.5 64.1 113.5 64V63.9001V63.8C113.5 63.7 113.5 63.5 113.5 63.3C113.5 63.1 113.5 63 113.5 62.8C113.6 63.4 113.6 63.3 113.6 63.1ZM85.0998 49.8C84.9998 49.7 84.9998 49.5001 84.8998 49.4001C84.7998 49.3001 84.7998 49.1 84.6998 49C84.5998 48.9 84.5998 48.7 84.5998 48.6C84.5998 48.5 84.4998 48.3001 84.4998 48.2001C84.4998 48.1001 84.4998 48.1 84.4998 48C84.4998 48 84.4998 48 84.5998 48L84.6998 48.1C84.8998 48.3 85.0998 48.4 85.2998 48.6C85.4998 48.8 85.7998 49.0001 85.9998 49.2001C86.0998 49.3001 86.1998 49.4 86.2998 49.5L86.3998 49.6L85.1998 50C85.1998 50 85.1998 49.9 85.0998 49.8Z" fill="#2F58FF"/>
<path d="M82.0999 56.0999C82.6999 58.2999 83.5999 60.4999 84.7999 62.4999C85.3999 63.4999 85.9999 64.3999 86.6999 65.2999L81.7999 62.4999C79.2999 60.9999 76.8999 58.4999 75.0999 55.4999C73.2999 52.3999 72.2999 49.0999 72.3999 46.1999C72.3999 43.2999 73.3999 41.0999 75.1999 40.0999C76.9999 39.0999 79.3999 39.2999 81.8999 40.7999L87.0999 43.7999C88.0999 44.3999 88.9999 45.0999 89.8999 45.8999C89.9999 45.9999 90.0999 46.0999 90.1999 46.1999C91.4999 47.4999 92.7999 49.0999 93.6999 50.7999C94.6999 52.4999 95.4999 54.3999 95.8999 56.0999C95.9999 56.5999 96.0999 57.0999 96.1999 57.6999C96.2999 58.4999 96.3999 59.2999 96.3999 60.0999C96.3999 60.8999 96.2999 61.5999 96.1999 62.1999L92.5999 60.0999C92.0999 59.7999 91.5999 59.2999 91.1999 58.5999C90.7999 57.9999 90.5999 57.2999 90.5999 56.6999C90.5999 55.4999 90.1999 54.1999 89.4999 52.9999C88.9999 51.9999 87.9999 50.9999 86.9999 50.3999L81.7999 47.3999C80.7999 46.7999 79.8999 46.6999 79.0999 47.0999C78.3999 47.4999 77.9999 48.3999 77.9999 49.4999C77.9999 50.6999 78.3999 51.9999 79.0999 53.1999C79.7999 54.3999 80.6999 55.3999 81.6999 55.9999C81.8999 56.0999 81.9999 56.0999 82.0999 56.0999ZM97.9999 50.1999L93.0999 47.3999C93.7999 48.2999 94.3999 49.1999 94.9999 50.1999C96.1999 52.1999 97.0999 54.3999 97.6999 56.5999C97.7999 56.5999 97.8999 56.6999 97.9999 56.6999C98.9999 57.2999 99.8999 58.2999 100.6 59.4999C101.3 60.6999 101.7 61.9999 101.7 63.1999C101.7 64.3999 101.3 65.1999 100.6 65.5999C99.8999 65.9999 98.8999 65.8999 97.8999 65.2999L92.6999 62.2999C91.6999 61.6999 90.7999 60.6999 90.0999 59.4999C89.3999 58.2999 88.9999 56.9999 88.9999 55.7999C88.9999 55.1999 88.7999 54.4999 88.3999 53.8999C87.9999 53.2999 87.4999 52.6999 86.9999 52.3999L84.5999 50.9999L83.3999 50.2999C83.2999 50.9999 83.1999 51.6999 83.1999 52.3999C83.1999 53.1999 83.2999 53.9999 83.3999 54.7999C83.4999 55.2999 83.5999 55.7999 83.6999 56.3999C84.1999 58.1999 84.8999 59.9999 85.8999 61.6999C86.8999 63.3999 88.0999 64.9999 89.3999 66.2999C89.4999 66.3999 89.5999 66.4999 89.6999 66.5999C90.5999 67.4999 91.5999 68.1999 92.4999 68.6999L97.6999 71.6999C100.2 73.1999 102.6 73.3999 104.4 72.3999C106.2 71.3999 107.2 69.1999 107.2 66.2999C107.2 63.3999 106.2 60.0999 104.5 56.9999C102.9 54.0999 100.5 51.5999 97.9999 50.1999Z" fill="white" stroke="#2F58FF" stroke-width="2" stroke-miterlimit="10" stroke-linecap="round" stroke-linejoin="round"/>
</svg>
