<svg width="362" height="425" viewBox="0 0 362 425" fill="none" xmlns="http://www.w3.org/2000/svg">
<path d="M343.703 152.881V333.016" stroke="#171A21" stroke-width="2" stroke-miterlimit="10" stroke-linecap="round" stroke-linejoin="round" stroke-dasharray="12 12"/>
<path d="M343.703 152.455L243.709 93.9004" stroke="#171A21" stroke-width="2" stroke-miterlimit="10" stroke-linecap="round" stroke-linejoin="round" stroke-dasharray="12 12"/>
<path d="M162.224 394.126L114.249 421.806" stroke="#171A21" stroke-width="2" stroke-miterlimit="10" stroke-linecap="round" stroke-linejoin="round" stroke-dasharray="12 12"/>
<path d="M62.2303 335.571L14.2544 363.252" stroke="#171A21" stroke-width="2" stroke-miterlimit="10" stroke-linecap="round" stroke-linejoin="round" stroke-dasharray="12 12"/>
<path d="M114.249 421.806L14.2544 363.251" stroke="#171A21" stroke-width="2" stroke-miterlimit="10" stroke-linecap="round" stroke-linejoin="round" stroke-dasharray="12 12"/>
<path d="M213.498 136.592L130.631 88.6836C128.503 87.406 125.844 89.003 125.844 91.4516L125.631 220.059C125.631 224.637 128.078 228.895 132.013 231.237L213.179 278.188C217.115 280.53 222.115 280.53 226.051 278.188L306.684 231.237C310.62 228.895 313.067 224.743 313.067 220.165L313.386 91.5581C313.386 89.1094 310.726 87.5125 308.599 88.79L226.37 136.592C222.434 138.934 217.54 138.934 213.498 136.592Z" fill="#E8F4FA"/>
<path d="M308.599 88.6835L226.37 136.485C222.434 138.827 217.54 138.827 213.498 136.485L130.631 88.577C128.503 87.2994 128.503 84.212 130.631 83.0409L212.86 35.2391C216.796 32.8969 221.689 32.8969 225.731 35.2391L308.599 83.1474C310.726 84.4249 310.833 87.5124 308.599 88.6835Z" fill="white"/>
<path d="M306.79 231.237C310.726 228.895 313.173 224.743 313.173 220.165L313.386 93.3678C313.386 88.7899 310.939 84.5314 307.003 82.1892L225.838 35.2391C221.902 32.8969 216.902 32.8969 212.966 35.2391L132.333 82.1892C128.397 84.5314 125.95 88.6834 125.95 93.2614L125.737 220.059C125.737 224.637 128.184 228.895 132.12 231.237" stroke="#171A21" stroke-width="2" stroke-miterlimit="10" stroke-linecap="round" stroke-linejoin="round"/>
<path d="M88.9309 254.233L6.06343 206.325C3.93589 205.048 1.27647 206.645 1.27647 209.093L1.06372 303.206C1.06372 307.784 3.51039 312.043 7.44632 314.385L88.6118 361.335C92.5477 363.677 97.5474 363.677 101.483 361.335L182.117 314.385C186.053 312.043 188.5 307.891 188.5 303.313L188.712 209.2C188.712 206.751 186.053 205.154 183.925 206.432L101.696 254.233C97.8665 256.469 92.9732 256.469 88.9309 254.233Z" fill="#E8F4FA"/>
<path d="M184.032 206.325L101.802 254.127C97.8665 256.469 92.9732 256.469 88.9309 254.127L6.06342 206.219C3.93589 204.941 3.93589 201.854 6.06342 200.683L88.2926 152.881C92.2286 150.538 97.1219 150.538 101.164 152.881L184.032 200.789C186.159 201.96 186.159 205.047 184.032 206.325Z" fill="white"/>
<path d="M182.223 314.278C186.159 311.936 188.606 307.784 188.606 303.206L188.819 211.009C188.819 206.432 186.372 202.173 182.436 199.831L101.271 152.881C97.3347 150.538 92.335 150.538 88.399 152.881L7.65908 199.831C3.72314 202.173 1.27647 206.325 1.27647 210.903L1.06372 303.206C1.06372 307.784 3.51039 312.043 7.44632 314.385" stroke="#171A21" stroke-width="2" stroke-miterlimit="10" stroke-linecap="round" stroke-linejoin="round"/>
<path d="M261.049 320.773L178.181 272.865C176.054 271.587 173.394 273.184 173.394 275.633L173.181 338.127C173.181 342.704 175.628 346.963 179.564 349.305L260.729 396.255C264.665 398.597 269.665 398.597 273.601 396.255L354.235 349.305C358.171 346.963 360.617 342.811 360.617 338.233L360.83 275.739C360.83 273.291 358.171 271.694 356.043 272.971L273.814 320.773C269.984 323.009 265.091 323.009 261.049 320.773Z" fill="#E8F4FA"/>
<path d="M356.149 272.865L273.92 320.666C269.984 323.009 265.091 323.009 261.049 320.666L178.181 272.758C176.054 271.481 176.054 268.393 178.181 267.222L260.41 219.42C264.346 217.078 269.24 217.078 273.282 219.42L356.149 267.329C358.277 268.606 358.277 271.693 356.149 272.865Z" fill="white"/>
<path d="M354.341 349.198C358.277 346.856 360.724 342.704 360.724 338.126L360.936 277.549C360.936 272.971 358.49 268.713 354.554 266.37L273.388 219.527C269.452 217.184 264.453 217.184 260.517 219.527L179.777 266.37C175.841 268.713 173.394 272.865 173.394 277.442L173.181 338.02C173.181 342.598 175.628 346.856 179.564 349.198" stroke="#171A21" stroke-width="2" stroke-miterlimit="10" stroke-linecap="round" stroke-linejoin="round"/>
</svg>
