<svg width="362" height="425" viewBox="0 0 362 425" fill="none" xmlns="http://www.w3.org/2000/svg">
<path d="M156.161 363.145C156.161 363.251 156.161 363.251 156.161 363.358V363.464L157.544 369.958V356.438L156.161 349.943C156.161 349.837 156.161 349.73 156.161 349.624V363.145Z" fill="#2F58FF"/>
<path d="M222.008 360.164L215.306 365.381V378.901L222.008 373.685C222.54 373.259 222.859 372.726 222.859 372.194V358.673C222.859 359.099 222.54 359.632 222.008 360.164Z" fill="#2F58FF"/>
<path d="M167.756 363.997C167.437 364.209 167.011 364.422 166.692 364.529C162.756 366.765 160.842 369.746 160.842 372.727V386.247C160.842 383.266 162.756 380.285 166.692 378.05C167.011 377.837 167.437 377.624 167.756 377.517C167.862 377.517 167.862 377.411 167.969 377.411C168.288 377.198 168.713 377.092 169.033 376.879C169.139 376.879 169.245 376.772 169.352 376.772C169.564 376.666 169.671 376.666 169.884 376.559C169.99 376.559 170.096 376.453 170.203 376.453C170.415 376.346 170.522 376.346 170.735 376.24C170.841 376.24 170.947 376.133 171.054 376.133C171.479 376.027 172.011 375.814 172.437 375.707C172.543 375.707 172.543 375.707 172.649 375.601C173.075 375.495 173.5 375.388 173.926 375.282H174.032C174.458 375.175 174.883 375.175 175.309 375.069C175.415 375.069 175.522 375.069 175.628 375.069C175.947 374.962 176.373 374.962 176.692 374.962C176.798 374.962 176.798 374.962 176.904 374.962C177.33 374.962 177.755 374.856 178.075 374.856C178.181 374.856 178.287 374.856 178.394 374.856C178.713 374.856 179.032 374.856 179.351 374.856C179.457 374.856 179.564 374.856 179.67 374.856C180.096 374.856 180.521 374.856 180.84 374.856C180.947 374.856 180.947 374.856 181.053 374.856C181.372 374.856 181.798 374.856 182.117 374.856C182.223 374.856 182.33 374.856 182.436 374.856C182.862 374.856 183.287 374.856 183.713 374.962C183.819 374.962 183.819 374.962 183.925 374.962C184.351 374.962 184.776 375.069 185.308 375.069C185.415 375.069 185.415 375.069 185.521 375.069C186.053 375.175 186.585 375.282 187.117 375.388C187.223 375.388 187.223 375.388 187.329 375.388C187.648 375.495 187.968 375.495 188.393 375.601C188.712 375.707 189.031 375.814 189.457 375.814C189.563 375.814 189.563 375.814 189.67 375.92C190.095 376.027 190.521 376.133 190.946 376.346H191.053C191.478 376.453 191.904 376.666 192.329 376.772C192.435 376.772 192.435 376.879 192.542 376.879C192.967 377.092 193.393 377.198 193.712 377.411C193.818 377.411 193.818 377.517 193.925 377.517C194.35 377.73 194.669 377.943 195.095 378.156C195.414 378.369 195.733 378.476 195.946 378.688C196.052 378.688 196.052 378.795 196.159 378.795C196.371 378.901 196.584 379.114 196.797 379.221C196.903 379.221 196.903 379.327 197.01 379.327C197.222 379.434 197.329 379.647 197.542 379.753L197.648 379.86C197.861 380.072 198.073 380.179 198.286 380.392C198.393 380.498 198.499 380.605 198.605 380.711L198.712 380.818C198.818 381.031 199.031 381.137 199.137 381.35C199.35 381.563 199.563 381.882 199.669 382.095L199.775 382.202C199.882 382.415 200.095 382.628 200.201 382.947C200.201 382.947 200.201 383.053 200.307 383.053C200.414 383.266 200.52 383.479 200.52 383.692C200.52 383.799 200.52 383.799 200.626 383.905C200.733 384.118 200.733 384.331 200.839 384.65C200.946 384.863 200.946 385.076 200.946 385.289C200.946 385.396 200.946 385.396 200.946 385.502C200.946 385.715 200.946 385.928 200.946 386.034C200.946 386.141 200.946 386.141 200.946 386.247V372.727V372.62V372.514C200.946 372.301 200.946 372.088 200.946 371.981V371.875V371.768C200.946 371.555 200.839 371.343 200.839 371.13C200.733 370.917 200.733 370.704 200.626 370.384V370.278V370.171C200.52 369.959 200.414 369.746 200.414 369.533V369.426C200.307 369.213 200.201 368.894 199.988 368.681C199.988 368.681 199.988 368.681 199.988 368.574C199.988 368.574 199.988 368.468 199.882 368.468C199.669 368.255 199.563 367.936 199.35 367.723C199.244 367.51 199.031 367.403 198.924 367.19L198.818 367.084C198.712 366.978 198.605 366.871 198.499 366.765C198.286 366.552 198.073 366.445 197.861 366.232L197.754 366.126C197.542 366.019 197.435 365.806 197.222 365.7C197.222 365.7 197.222 365.7 197.116 365.594L197.01 365.487C196.797 365.381 196.584 365.168 196.371 365.061C196.265 364.955 196.265 364.955 196.159 364.955C195.839 364.742 195.627 364.635 195.308 364.422C194.882 364.209 194.563 363.997 194.137 363.784C194.031 363.784 194.031 363.677 193.925 363.677C193.499 363.464 193.18 363.358 192.755 363.145C192.648 363.145 192.648 363.038 192.542 363.038C192.116 362.825 191.691 362.719 191.265 362.613H191.159C190.733 362.506 190.308 362.293 189.882 362.187H189.776H189.67C189.351 362.08 189.031 361.974 188.606 361.974C188.287 361.867 187.968 361.867 187.542 361.761H187.436H187.329C186.797 361.654 186.266 361.548 185.734 361.441H185.627C185.202 361.335 184.776 361.335 184.244 361.335H184.138C184.138 361.335 184.138 361.335 184.032 361.335C183.606 361.335 183.181 361.229 182.755 361.229H182.649C182.542 361.229 182.542 361.229 182.436 361.229C182.117 361.229 181.691 361.229 181.372 361.229C181.266 361.229 181.266 361.229 181.16 361.229C181.16 361.229 181.16 361.229 181.053 361.229C180.628 361.229 180.202 361.229 179.883 361.229H179.777C179.67 361.229 179.67 361.229 179.564 361.229C179.245 361.229 178.926 361.229 178.606 361.229C178.5 361.229 178.5 361.229 178.394 361.229H178.287C177.862 361.229 177.436 361.335 177.117 361.335H177.011C176.692 361.335 176.266 361.441 175.947 361.441C175.841 361.441 175.841 361.441 175.734 361.441H175.628C175.202 361.548 174.777 361.548 174.351 361.654C174.351 361.654 174.351 361.654 174.245 361.654C173.82 361.761 173.394 361.867 172.969 361.974H172.862C172.862 361.974 172.862 361.974 172.756 361.974C172.224 362.08 171.798 362.187 171.373 362.4H171.266C171.16 362.4 171.16 362.4 171.054 362.506C170.841 362.613 170.735 362.613 170.522 362.719C170.415 362.719 170.309 362.825 170.203 362.825C169.99 362.932 169.884 362.932 169.671 363.038C169.564 363.038 169.458 363.145 169.458 363.145C169.458 363.145 169.458 363.145 169.352 363.145C168.926 363.358 168.607 363.464 168.182 363.677C167.969 363.997 167.862 363.997 167.756 363.997Z" fill="#2F58FF"/>
<path d="M179.564 399.874L175.096 393.806C174.351 393.7 173.5 393.593 172.756 393.487C172.437 393.487 172.224 393.38 171.905 393.38C171.692 393.38 171.373 393.274 171.16 393.274C170.841 393.274 170.522 393.167 170.203 393.167C169.99 393.167 169.671 393.061 169.458 393.061C168.926 392.954 168.501 392.848 167.969 392.741L158.927 396.681C158.714 396.787 158.501 396.893 158.289 396.893H158.182C157.969 397 157.757 397 157.544 397C157.331 397 157.118 397.106 156.799 397.106C156.587 397.106 156.374 397.106 156.055 397.106C155.842 397.106 155.629 397.106 155.31 397C155.31 397 155.31 397 155.204 397C154.991 397 154.778 396.893 154.565 396.893H154.459C154.353 396.893 154.14 396.787 154.033 396.787C153.927 396.787 153.927 396.787 153.821 396.681C153.608 396.574 153.395 396.468 153.182 396.361L146.268 392.316V380.179C146.055 379.859 145.842 379.54 145.63 379.221C145.63 379.221 145.63 379.114 145.523 379.114C145.417 378.901 145.204 378.582 145.098 378.369C145.098 378.262 144.991 378.156 144.991 378.156C144.885 377.837 144.779 377.624 144.672 377.304V377.198C144.566 376.878 144.46 376.559 144.353 376.133L133.928 373.578C133.716 373.578 133.609 373.472 133.396 373.365C133.29 373.365 133.29 373.365 133.184 373.259C132.971 373.152 132.758 373.046 132.652 372.939C132.545 372.833 132.439 372.833 132.333 372.726C132.333 372.726 132.226 372.726 132.226 372.62C132.12 372.62 132.12 372.513 132.014 372.513L131.907 372.407L131.801 372.3L131.694 372.194C131.694 372.194 131.694 372.194 131.588 372.088L131.482 371.981C131.482 371.981 131.482 371.981 131.482 371.875C131.482 371.768 131.375 371.768 131.375 371.662C131.375 371.555 131.375 371.555 131.375 371.449C131.375 371.449 131.375 371.449 131.375 371.342C131.375 371.236 131.375 371.236 131.375 371.129V384.65C131.375 384.757 131.375 384.757 131.375 384.863C131.375 384.863 131.375 384.863 131.375 384.97C131.375 384.97 131.375 384.97 131.375 385.076V385.182C131.375 385.289 131.375 385.289 131.482 385.395C131.482 385.395 131.482 385.395 131.482 385.502C131.482 385.502 131.482 385.608 131.588 385.608C131.588 385.608 131.588 385.608 131.588 385.715C131.588 385.715 131.588 385.715 131.694 385.821C131.694 385.821 131.694 385.821 131.694 385.928C131.694 385.928 131.694 385.928 131.801 386.034L131.907 386.141C131.907 386.141 131.907 386.141 132.014 386.141C132.12 386.141 132.12 386.247 132.226 386.247C132.226 386.247 132.226 386.247 132.333 386.247C132.439 386.354 132.545 386.46 132.652 386.46C132.865 386.567 133.077 386.673 133.184 386.779C133.29 386.779 133.29 386.779 133.396 386.886C133.503 386.886 133.716 386.992 133.822 386.992H133.928L138.715 388.163V400.3C138.715 400.407 138.715 400.407 138.715 400.513C138.715 400.513 138.715 400.513 138.715 400.62C138.715 400.62 138.715 400.62 138.715 400.726V400.833C138.715 400.939 138.715 400.939 138.822 401.045C138.822 401.045 138.822 401.152 138.928 401.152C138.928 401.152 138.928 401.152 139.034 401.258C139.034 401.258 139.034 401.258 139.034 401.365C139.034 401.365 139.034 401.365 139.141 401.471L139.247 401.578C139.247 401.578 139.247 401.578 139.353 401.578C139.46 401.578 139.46 401.684 139.566 401.684C139.566 401.684 139.566 401.684 139.673 401.684C139.779 401.791 139.885 401.897 139.992 401.897L153.182 409.456C153.395 409.563 153.608 409.669 153.821 409.775C153.927 409.775 153.927 409.775 154.033 409.882C154.14 409.882 154.246 409.988 154.459 409.988C154.459 409.988 154.459 409.988 154.565 409.988H154.672C154.778 409.988 154.884 409.988 154.991 410.095C155.097 410.095 155.204 410.095 155.31 410.095C155.31 410.095 155.31 410.095 155.416 410.095C155.523 410.095 155.629 410.095 155.736 410.095C155.842 410.095 155.948 410.095 156.055 410.095C156.161 410.095 156.267 410.095 156.267 410.095C156.374 410.095 156.48 410.095 156.587 410.095C156.693 410.095 156.693 410.095 156.799 410.095C156.799 410.095 156.799 410.095 156.906 410.095C157.012 410.095 157.118 410.095 157.225 410.095C157.331 410.095 157.438 410.095 157.544 410.095C157.65 410.095 157.65 410.095 157.757 410.095C157.863 410.095 157.969 410.095 158.076 409.988H158.182H158.289H158.395C158.501 409.988 158.714 409.882 158.82 409.882C158.82 409.882 158.82 409.882 158.927 409.882L167.969 405.943C168.394 406.049 168.713 406.049 169.139 406.156C169.245 406.156 169.352 406.156 169.458 406.262C169.671 406.262 169.99 406.369 170.203 406.369C170.522 406.475 170.841 406.475 171.16 406.475C171.373 406.475 171.692 406.582 171.905 406.582C172.118 406.582 172.224 406.688 172.437 406.688C172.543 406.688 172.649 406.688 172.756 406.688C173.5 406.794 174.245 406.901 175.096 407.007L179.564 413.076C179.67 413.182 179.67 413.182 179.777 413.289L179.883 413.395C179.883 413.395 179.989 413.395 179.989 413.502C179.989 413.502 179.989 413.502 180.096 413.608C180.202 413.715 180.309 413.821 180.521 413.821C180.628 413.928 180.84 414.034 181.053 414.034C181.16 414.034 181.16 414.034 181.266 414.14C181.372 414.14 181.585 414.247 181.691 414.247H181.798H181.904C182.011 414.247 182.011 414.247 182.117 414.247H182.223C182.33 414.247 182.33 414.247 182.436 414.247H182.542C182.542 414.247 182.542 414.247 182.649 414.247C182.755 414.247 182.862 414.247 182.968 414.247C182.968 414.247 182.968 414.247 183.074 414.247C183.074 414.247 183.074 414.247 183.181 414.247C183.287 414.247 183.287 414.247 183.393 414.247C183.5 414.247 183.606 414.247 183.713 414.247C183.819 414.247 183.819 414.247 183.925 414.247C184.032 414.247 184.138 414.247 184.244 414.247C184.351 414.247 184.351 414.247 184.457 414.247C184.564 414.247 184.67 414.247 184.776 414.247L202.648 411.479C202.754 411.479 202.86 411.479 202.967 411.372C203.073 411.372 203.18 411.372 203.286 411.266C203.392 411.266 203.499 411.159 203.605 411.159C203.711 411.159 203.711 411.159 203.818 411.053H203.924C203.924 411.053 203.924 411.053 204.031 411.053C204.137 410.947 204.35 410.947 204.456 410.84C204.456 410.84 204.456 410.84 204.562 410.84C204.669 410.734 204.775 410.734 204.882 410.627L204.988 410.521C205.094 410.414 205.201 410.308 205.307 410.308C205.307 410.308 205.307 410.308 205.413 410.201C205.52 410.095 205.626 409.988 205.626 409.882V409.775C205.626 409.669 205.733 409.563 205.733 409.456V409.35C205.733 409.243 205.839 409.137 205.839 409.03V401.471C207.222 400.726 208.392 399.981 209.562 399.236L220.732 399.981H220.838C220.944 399.981 221.051 399.981 221.157 399.981C221.264 399.981 221.37 399.981 221.476 399.981C221.583 399.981 221.583 399.981 221.689 399.981C221.795 399.981 221.902 399.981 222.008 399.981C222.115 399.981 222.115 399.981 222.221 399.981C222.327 399.981 222.434 399.981 222.54 399.874C222.646 399.874 222.753 399.874 222.859 399.768C222.966 399.768 223.072 399.661 223.178 399.661C223.285 399.661 223.391 399.555 223.391 399.555H223.497C223.497 399.555 223.497 399.555 223.604 399.555C223.71 399.555 223.817 399.449 223.923 399.449C224.029 399.449 224.136 399.342 224.136 399.342C224.242 399.236 224.349 399.236 224.455 399.129C224.561 399.129 224.561 399.023 224.668 399.023C224.774 398.916 224.88 398.81 224.88 398.81L224.987 398.703C225.093 398.597 225.2 398.384 225.306 398.277L229.986 387.951C230.093 387.738 230.093 387.525 230.093 387.312V373.791C230.093 374.004 230.093 374.217 229.986 374.43L225.306 384.757C225.2 384.863 225.2 385.076 224.987 385.182L224.88 385.289C224.774 385.395 224.774 385.502 224.668 385.502C224.561 385.502 224.561 385.608 224.455 385.608C224.349 385.715 224.242 385.715 224.136 385.821C224.029 385.821 223.923 385.928 223.923 385.928C223.817 386.034 223.71 386.034 223.604 386.141H223.497C223.285 386.247 223.178 386.247 222.966 386.354C222.753 386.46 222.54 386.46 222.327 386.46C222.115 386.46 221.902 386.567 221.583 386.567C221.37 386.567 221.051 386.567 220.838 386.567L209.669 385.821C208.179 386.886 206.477 387.951 204.562 388.802V397.426C204.456 397.532 204.35 397.532 204.137 397.639H204.031C203.818 397.745 203.711 397.745 203.499 397.852C203.286 397.958 203.073 397.958 202.86 397.958L184.989 400.726C184.776 400.726 184.67 400.726 184.457 400.833C184.244 400.833 184.138 400.833 183.925 400.833C183.713 400.833 183.606 400.833 183.393 400.833C183.393 400.833 183.393 400.833 183.287 400.833C183.074 400.833 182.968 400.833 182.862 400.726H182.755C182.649 400.726 182.542 400.726 182.436 400.62C182.33 400.62 182.33 400.62 182.223 400.62C182.117 400.62 182.117 400.62 182.011 400.513C181.904 400.513 181.691 400.407 181.585 400.407C181.479 400.407 181.479 400.407 181.372 400.3C181.16 400.194 181.053 400.194 180.84 400.087C180.628 399.981 180.521 399.874 180.415 399.768C180.415 399.768 180.309 399.768 180.309 399.661C179.777 400.194 179.67 399.981 179.564 399.874ZM140.098 388.696L144.779 389.867C144.885 390.186 144.991 390.506 145.098 390.825V390.932C145.204 391.251 145.311 391.464 145.417 391.783L140.311 388.802C140.205 388.802 140.098 388.696 140.098 388.696Z" fill="#2F58FF"/>
<path d="M156.161 349.944C155.948 348.666 157.225 347.601 159.246 347.282L177.117 344.514C178.607 344.301 180.202 344.514 181.266 345.153C181.585 345.366 181.904 345.579 182.117 345.898L186.585 351.966C189.032 352.179 191.372 352.605 193.606 353.031L202.648 349.092C204.35 348.347 206.69 348.453 208.179 349.305L221.37 356.864C222.859 357.715 223.072 359.099 221.796 360.164L215.094 365.381C215.945 366.658 216.583 368.042 217.009 369.426L227.434 371.981C227.965 372.088 228.391 372.301 228.71 372.514C229.774 373.152 230.306 374.111 229.88 374.962L225.2 385.289C224.668 386.46 222.647 387.312 220.519 387.099L209.35 386.354C207.86 387.419 206.158 388.483 204.243 389.335L205.626 395.829C205.839 397.107 204.563 398.278 202.435 398.597L184.564 401.365C183.074 401.578 181.479 401.365 180.415 400.726C180.096 400.513 179.777 400.301 179.564 399.981L175.096 393.913C172.65 393.7 170.309 393.38 168.075 392.848L159.033 396.787C157.331 397.533 154.991 397.426 153.395 396.574L140.205 389.015C138.715 388.164 138.503 386.78 139.779 385.715L146.481 380.498C145.63 379.221 144.992 377.837 144.566 376.453L134.141 373.898C133.609 373.791 133.184 373.578 132.865 373.365C131.801 372.727 131.269 371.768 131.694 370.917L136.375 360.59C136.907 359.419 138.928 358.567 141.056 358.78L152.225 359.525C153.714 358.461 155.416 357.396 157.331 356.544L156.161 349.944ZM195.095 364.635C187.223 360.058 174.458 360.058 166.586 364.635C158.714 369.213 158.821 376.559 166.692 381.137C174.564 385.715 187.33 385.715 195.201 381.137C203.073 376.559 203.073 369.213 195.095 364.635Z" fill="white"/>
<path d="M133.077 373.259C132.014 372.62 131.482 371.662 131.907 370.81L136.588 360.483C137.12 359.312 139.141 358.461 141.268 358.673L152.438 359.419C153.927 358.354 155.629 357.289 157.544 356.438L156.161 349.944C155.948 348.666 157.225 347.601 159.246 347.282L177.117 344.514C178.607 344.301 180.202 344.514 181.266 345.153C181.585 345.366 181.904 345.579 182.117 345.898L186.585 351.966C189.031 352.179 191.372 352.605 193.606 353.031L202.648 349.092C204.35 348.347 206.69 348.453 208.179 349.305L221.37 356.864C222.859 357.715 223.072 359.099 221.795 360.164L215.094 365.381C215.945 366.658 216.583 368.042 217.009 369.426L227.433 371.981C227.965 372.088 228.391 372.301 228.71 372.514C229.774 373.152 230.306 374.111 229.88 374.962M162.331 377.305C163.288 378.689 164.778 380.073 166.799 381.137C174.671 385.715 187.436 385.715 195.308 381.137C197.01 380.179 198.393 379.008 199.35 377.837" stroke="#171A21" stroke-width="2" stroke-miterlimit="10" stroke-linecap="round" stroke-linejoin="round"/>
</svg>
