<svg width="362" height="425" viewBox="0 0 362 425" fill="none" xmlns="http://www.w3.org/2000/svg">
<path d="M98.2922 178.113L147.651 149.581C148.927 148.835 150.523 149.794 150.523 151.284L150.63 201.322C150.63 204.09 149.14 206.645 146.8 208.029L98.3985 236.029C96.0582 237.413 93.0797 237.413 90.7394 236.029L42.6571 208.029C40.3168 206.645 38.8276 204.196 38.8276 201.428L38.7212 151.391C38.7212 149.9 40.3168 148.942 41.5934 149.687L90.633 178.219C92.9733 179.497 95.8455 179.497 98.2922 178.113Z" fill="#2F58FF"/>
<path d="M94.888 115.938L68.7194 92.3034C67.4428 91.2388 65.6344 91.0259 64.2515 91.8776L15.1055 120.303C12.8716 121.581 12.5525 124.668 14.4672 126.478L38.8275 148.409L94.888 115.938Z" fill="white"/>
<path d="M94.1436 115.406L122.333 99.3302C123.504 98.6914 124.993 98.6914 126.163 99.3302L174.564 127.33C177.117 128.82 177.117 132.547 174.564 133.931L150.204 147.877L94.1436 115.406Z" fill="white"/>
<path d="M94.569 180.242L66.3792 196.318C65.209 196.956 63.7197 196.956 62.5496 196.318L14.1482 168.318C11.5951 166.827 11.5951 163.101 14.1482 161.717L38.5085 147.771L94.569 180.242Z" fill="white"/>
<path d="M94.2498 180.242L109.674 206.964C110.738 208.774 113.078 209.413 114.887 208.348L164.352 179.709C166.16 178.645 166.799 176.303 165.735 174.493L150.31 147.877L94.2498 180.242Z" fill="white"/>
<path d="M150.523 187.694L164.458 179.709C166.267 178.645 166.905 176.303 165.841 174.493L150.417 147.877" stroke="#171A21" stroke-width="2" stroke-miterlimit="10" stroke-linecap="round" stroke-linejoin="round"/>
<path d="M150.31 147.771L174.671 133.824C177.224 132.334 177.224 128.607 174.671 127.223L126.269 99.2235C125.099 98.5848 123.61 98.5848 122.44 99.2235L94.2499 115.299L68.7194 92.197C67.4429 91.1324 65.6345 90.9194 64.2516 91.7711L15.1056 120.197C12.8717 121.474 12.5525 124.562 14.4673 126.372L38.2957 147.877L14.1482 161.611C11.5951 163.101 11.5951 166.828 14.1482 168.212L38.7212 182.371" stroke="#171A21" stroke-width="2" stroke-miterlimit="10" stroke-linecap="round" stroke-linejoin="round"/>
<path d="M41.487 149.58L90.5267 178.112C92.8669 179.496 95.8455 179.496 98.1858 178.112L147.545 149.58C148.821 148.835 148.821 147.025 147.545 146.28L98.5049 117.748C96.1646 116.364 93.1861 116.364 90.8458 117.748L41.487 146.28C40.3168 146.919 40.3168 148.835 41.487 149.58Z" fill="#171A21"/>
<path d="M98.2921 178.113L123.823 163.421L123.716 132.333C123.716 136.592 120.844 140.957 115.206 144.257C114.887 144.47 114.568 144.683 114.142 144.79C114.036 144.896 113.929 144.896 113.823 145.003C113.61 145.109 113.398 145.216 113.078 145.322C112.972 145.428 112.759 145.428 112.653 145.535C112.44 145.641 112.227 145.748 112.015 145.854C111.908 145.961 111.696 145.961 111.589 146.067C111.376 146.174 111.164 146.28 110.951 146.28C110.419 146.493 109.994 146.706 109.462 146.812C109.355 146.812 109.249 146.812 109.249 146.919C108.823 147.025 108.292 147.238 107.866 147.345C107.653 147.345 107.547 147.451 107.334 147.451C107.015 147.558 106.802 147.558 106.483 147.664C106.27 147.664 106.164 147.771 105.951 147.771C105.632 147.877 105.313 147.877 104.994 147.984C104.887 147.984 104.675 148.09 104.568 148.09C104.249 148.196 103.93 148.196 103.717 148.303C103.505 148.303 103.398 148.409 103.185 148.409C102.76 148.516 102.441 148.516 102.015 148.622C101.909 148.622 101.909 148.622 101.803 148.622C101.377 148.729 100.845 148.729 100.42 148.835C100.313 148.835 100.207 148.835 100.101 148.835C99.7814 148.835 99.3559 148.942 99.0367 148.942C98.824 148.942 98.7176 148.942 98.5049 148.942C98.1857 148.942 97.8666 148.942 97.6538 149.048C97.4411 149.048 97.2283 149.048 97.122 149.048C96.8028 149.048 96.5901 149.048 96.2709 149.048C96.0582 149.048 95.9518 149.048 95.7391 149.048C95.4199 149.048 95.1008 149.048 94.888 149.048C94.6753 149.048 94.4625 149.048 94.2498 149.048C93.9307 149.048 93.7179 149.048 93.3988 149.048C93.186 149.048 93.0796 149.048 92.8669 149.048C92.5478 149.048 92.2286 149.048 91.9095 149.048C91.6967 149.048 91.484 149.048 91.3776 149.048C91.0585 149.048 90.7394 149.048 90.4202 148.942C90.2075 148.942 90.1011 148.942 89.8883 148.835C89.3565 148.835 88.9309 148.729 88.5054 148.622C88.3991 148.622 88.3991 148.622 88.2927 148.622C87.7608 148.516 87.2289 148.409 86.697 148.409C86.4843 148.409 86.2715 148.303 86.1652 148.303C85.9524 148.303 85.6333 148.196 85.4205 148.196C85.2078 148.196 84.995 148.09 84.7823 148.09C84.5695 147.984 84.2504 147.984 84.0376 147.877C83.8249 147.877 83.6121 147.771 83.3994 147.771C83.1866 147.664 82.8675 147.664 82.6547 147.558C82.442 147.451 82.2292 147.451 82.0165 147.345C81.8037 147.238 81.591 147.238 81.2718 147.132C81.0591 147.025 80.9527 147.025 80.7399 146.919C80.3144 146.812 79.8889 146.6 79.4634 146.493C79.357 146.493 79.2507 146.387 79.2507 146.387C78.7188 146.174 78.2933 145.961 77.7614 145.748C77.655 145.748 77.5486 145.641 77.4423 145.535C77.1231 145.322 76.6976 145.216 76.3785 145.003C76.2721 144.896 76.1657 144.896 75.953 144.79C75.5275 144.577 75.102 144.364 74.6765 144.044C74.4637 143.938 74.251 143.725 74.0382 143.619C73.8255 143.512 73.7191 143.406 73.5063 143.299C73.3999 143.193 73.1872 143.086 73.0808 142.98C72.8681 142.873 72.7617 142.767 72.5489 142.66C72.4426 142.554 72.2298 142.447 72.1234 142.341C72.0171 142.235 71.8043 142.128 71.6979 142.022C71.5915 141.915 71.3788 141.809 71.2724 141.702C71.166 141.596 70.9533 141.489 70.8469 141.383C70.6342 141.276 70.5278 141.063 70.315 140.957L70.2086 140.851C69.9959 140.638 69.7831 140.425 69.5704 140.212L69.464 140.105C69.2513 139.892 69.1449 139.786 69.0385 139.573L68.9321 139.467C68.8258 139.36 68.8257 139.254 68.7194 139.254C68.613 139.041 68.4002 138.934 68.2939 138.721C68.1875 138.615 68.1875 138.508 68.0811 138.402C67.9747 138.189 67.8684 138.082 67.762 137.87C67.6556 137.763 67.6556 137.657 67.5492 137.55C67.4428 137.444 67.4428 137.231 67.3365 137.124C67.2301 137.018 67.2301 136.911 67.1237 136.805C67.0173 136.698 67.0173 136.486 66.911 136.379C66.911 136.273 66.8046 136.166 66.8046 136.06C66.8046 135.953 66.6982 135.74 66.6982 135.634C66.6982 135.527 66.5918 135.421 66.5918 135.208C66.5918 135.102 66.4855 134.889 66.4855 134.782C66.4855 134.676 66.3791 134.569 66.3791 134.356C66.3791 134.25 66.3791 134.037 66.2727 133.93C66.2727 133.824 66.2727 133.718 66.2727 133.505C66.2727 133.398 66.2727 133.185 66.2727 133.079C66.2727 132.866 66.2727 132.759 66.2727 132.546L66.3791 163.953L90.9521 178.219C92.9733 179.497 95.8454 179.497 98.2921 178.113Z" fill="#2F58FF"/>
<path d="M74.4637 120.41C63.1878 126.904 63.0814 137.55 74.3573 144.044C85.6333 150.539 103.93 150.539 115.206 144.044C126.482 137.55 126.588 126.904 115.312 120.41C104.036 113.916 85.7396 113.916 74.4637 120.41Z" fill="white"/>
<path d="M123.078 135.527C124.886 130.204 122.227 124.562 115.206 120.516C103.93 114.022 85.6333 114.022 74.3573 120.516C66.4854 125.094 64.0388 131.695 67.1237 137.444" stroke="#171A21" stroke-width="2" stroke-miterlimit="10" stroke-linecap="round" stroke-linejoin="round"/>
<path d="M85.9524 115.087V115.193V115.3V115.406V115.512V115.619V115.725V115.832V115.938C85.9524 115.938 85.9524 116.045 86.0588 116.045V116.151C86.0588 116.151 86.0588 116.258 86.1651 116.258C86.1651 116.258 86.1651 116.364 86.2715 116.364L86.3779 116.471C86.3779 116.471 86.3779 116.577 86.4843 116.577C86.4843 116.684 86.5907 116.684 86.5907 116.79C86.5907 116.79 86.5906 116.896 86.697 116.896C86.697 117.003 86.8034 117.003 86.8034 117.109C86.9098 117.216 86.9098 117.216 87.0162 117.322L87.1225 117.429L87.2289 117.535L87.3353 117.642L87.4417 117.748L87.548 117.855L87.6544 117.961L87.7608 118.068C87.7608 118.068 87.8672 118.174 87.9735 118.174C88.0799 118.174 88.0799 118.28 88.1863 118.28C88.2927 118.387 88.5054 118.387 88.6118 118.493C88.6118 118.493 88.7182 118.493 88.7182 118.6C88.8246 118.706 88.9309 118.706 89.0373 118.706H89.1437C89.2501 118.813 89.4628 118.813 89.5692 118.919H89.6756C89.782 118.919 89.8883 119.026 90.1011 119.026C90.2075 119.026 90.2075 119.026 90.3138 119.026C90.4202 119.026 90.4202 119.026 90.5266 119.132C90.633 119.132 90.633 119.132 90.7393 119.132C90.8457 119.132 90.8457 119.132 90.9521 119.239C91.0585 119.239 91.0585 119.239 91.1648 119.239C91.2712 119.239 91.2712 119.239 91.3776 119.239C91.484 119.239 91.484 119.239 91.5904 119.239C91.6967 119.239 91.6967 119.239 91.8031 119.239C91.9095 119.239 91.9095 119.239 92.0159 119.239C92.2286 119.239 92.335 119.345 92.5477 119.345C92.5477 119.345 92.5477 119.345 92.6541 119.345C92.7605 119.345 92.9733 119.345 93.0796 119.345C93.186 119.345 93.186 119.345 93.2924 119.345C93.3988 119.345 93.5051 119.345 93.6115 119.345C93.7179 119.345 93.7179 119.345 93.8243 119.345C93.9306 119.345 94.037 119.345 94.1434 119.345C94.2498 119.345 94.2498 119.345 94.3561 119.345C94.4625 119.345 94.5689 119.345 94.5689 119.345C94.6753 119.345 94.6753 119.345 94.7817 119.345C94.888 119.345 94.9944 119.345 95.1008 119.345C95.2072 119.345 95.2072 119.345 95.3135 119.345C95.4199 119.345 95.5263 119.345 95.5263 119.345C95.6327 119.345 95.6327 119.345 95.739 119.345C95.8454 119.345 95.9518 119.345 96.0582 119.345H96.1646C96.2709 119.345 96.3773 119.345 96.4837 119.345H96.5901C96.6964 119.345 96.9092 119.345 97.0156 119.239C97.0156 119.239 97.0156 119.239 97.1219 119.239C97.2283 119.239 97.3347 119.239 97.4411 119.132H97.5474C97.6538 119.132 97.7602 119.132 97.8666 119.132H97.973C98.0793 119.132 98.1857 119.132 98.2921 119.026C98.3985 119.026 98.3985 119.026 98.5048 119.026C98.6112 119.026 98.7176 119.026 98.824 118.919H98.9303C99.0367 118.919 99.2495 118.813 99.3559 118.813C99.3559 118.813 99.3559 118.813 99.4622 118.813C99.5686 118.706 99.7814 118.706 99.8877 118.6C99.9941 118.6 99.9941 118.6 100.1 118.493C100.1 118.493 100.207 118.493 100.207 118.387C100.313 118.387 100.313 118.28 100.42 118.28C100.42 118.28 100.526 118.28 100.526 118.174C100.632 118.174 100.632 118.068 100.739 118.068C100.739 118.068 100.845 118.068 100.845 117.961C100.952 117.855 101.058 117.855 101.164 117.748C102.866 116.684 103.824 115.406 103.824 114.128L103.93 127.649C103.93 128.927 103.079 130.311 101.271 131.269C101.164 131.375 101.058 131.375 100.952 131.482C100.952 131.482 100.845 131.482 100.845 131.588C100.739 131.588 100.739 131.695 100.632 131.695C100.632 131.695 100.526 131.695 100.526 131.801C100.42 131.801 100.42 131.908 100.313 131.908C100.313 131.908 100.207 131.908 100.207 132.014C100.207 132.014 100.1 132.014 100.1 132.121C99.9941 132.227 99.7814 132.227 99.675 132.334C99.675 132.334 99.675 132.334 99.5686 132.334C99.4622 132.334 99.2495 132.44 99.1431 132.44C99.1431 132.44 99.1431 132.44 99.0367 132.44H98.9303C98.824 132.44 98.7176 132.44 98.6112 132.547C98.5048 132.547 98.5048 132.547 98.3985 132.547C98.2921 132.547 98.1857 132.547 98.0793 132.653H97.973C97.8666 132.653 97.7602 132.653 97.6538 132.653H97.5474C97.4411 132.653 97.3347 132.653 97.2283 132.759C97.2283 132.759 97.2283 132.759 97.1219 132.759C97.0156 132.759 96.8028 132.759 96.6964 132.866H96.5901C96.4837 132.866 96.3773 132.866 96.2709 132.866H96.1646C96.0582 132.866 95.9518 132.866 95.8454 132.866C95.739 132.866 95.739 132.866 95.6327 132.866C95.5263 132.866 95.4199 132.866 95.4199 132.866H95.3135C95.2072 132.866 95.1008 132.866 94.9944 132.866C94.888 132.866 94.888 132.866 94.7817 132.866C94.6753 132.866 94.5689 132.866 94.5689 132.866H94.4625C94.3562 132.866 94.2498 132.866 94.1434 132.866C94.037 132.866 94.037 132.866 93.9306 132.866C93.8243 132.866 93.7179 132.866 93.6115 132.866H93.5051C93.5051 132.866 93.5051 132.866 93.3988 132.866C93.2924 132.866 93.0796 132.866 92.9733 132.866C92.9733 132.866 92.9733 132.866 92.8669 132.866C92.6541 132.866 92.5477 132.866 92.335 132.759H92.2286C92.1222 132.759 92.1222 132.759 92.0159 132.759C91.9095 132.759 91.9095 132.759 91.8031 132.759C91.6967 132.759 91.6967 132.759 91.5904 132.759C91.484 132.759 91.484 132.759 91.3776 132.759C91.2712 132.759 91.2712 132.759 91.1648 132.653C91.0585 132.653 91.0585 132.653 90.9521 132.653C90.8457 132.653 90.8457 132.653 90.7393 132.547H90.633C90.633 132.547 90.633 132.547 90.5266 132.547C90.4202 132.547 90.3138 132.44 90.1011 132.44H89.9947C89.8883 132.334 89.6756 132.334 89.5692 132.227H89.4628C89.3564 132.227 89.2501 132.121 89.1437 132.121C89.1437 132.121 89.0373 132.121 89.0373 132.014C88.9309 131.908 88.7182 131.908 88.6118 131.801C88.6118 131.801 88.5054 131.801 88.5054 131.695C88.5054 131.695 88.3991 131.695 88.3991 131.588C88.2927 131.588 88.2927 131.482 88.1863 131.482L88.0799 131.375L87.9735 131.269L87.8672 131.162L87.7608 131.056L87.6544 130.95L87.548 130.843L87.4417 130.737C87.3353 130.63 87.3353 130.63 87.2289 130.524C87.2289 130.417 87.1225 130.417 87.1225 130.311C87.1225 130.311 87.1225 130.311 87.1225 130.204C87.1225 130.098 87.0162 130.098 87.0162 129.991C87.0162 129.991 87.0162 129.885 86.9098 129.885L86.8034 129.778C86.8034 129.778 86.8034 129.778 86.8034 129.672C86.8034 129.672 86.8034 129.566 86.697 129.566V129.459C86.697 129.459 86.697 129.353 86.5907 129.353C86.5907 129.353 86.5907 129.353 86.5907 129.246C86.5907 129.246 86.5907 129.246 86.5907 129.14V129.033V128.927V128.82C86.5907 128.82 86.5907 128.82 86.5907 128.714V128.607V128.501V128.394C86.5907 128.394 86.5907 128.394 86.5907 128.288C86.5907 128.288 86.5907 128.288 86.5907 128.182L86.4843 114.661C85.9524 114.98 85.9524 114.98 85.9524 115.087Z" fill="#171A21"/>
<path d="M88.6118 111.254C85.1014 113.277 85.1014 116.577 88.6118 118.493C92.1223 120.516 97.6538 120.516 101.164 118.493C104.675 116.471 104.675 113.17 101.164 111.254C97.6538 109.231 92.0159 109.231 88.6118 111.254Z" fill="white" stroke="#171A21" stroke-width="2" stroke-miterlimit="10" stroke-linecap="round" stroke-linejoin="round"/>
</svg>
