<svg width="362" height="425" viewBox="0 0 362 425" fill="none" xmlns="http://www.w3.org/2000/svg">
<path d="M303.28 205.899C297.749 202.705 291.472 200.47 285.09 199.298C278.813 198.127 272.324 197.489 265.942 197.808C253.815 198.447 241.05 201.215 231.157 208.667C225.838 212.713 221.264 218.568 221.37 225.595L221.264 269.138C221.264 261.047 227.114 254.553 233.603 250.507C240.199 246.249 247.858 243.8 255.623 242.416C263.814 241.032 272.218 240.926 280.409 241.99C288.387 243.055 296.472 245.397 303.493 249.549C309.769 253.169 315.833 258.705 317.215 266.157C317.428 267.115 317.535 268.074 317.535 269.138L317.641 225.595C317.428 217.93 312.003 210.903 303.28 205.899C312.003 210.903 302.748 205.58 303.28 205.899Z" fill="#171A21"/>
<path d="M239.348 193.975C239.348 194.082 239.348 194.295 239.348 194.401C239.348 194.508 239.348 194.614 239.348 194.827C239.348 194.933 239.348 195.146 239.454 195.253C239.454 195.359 239.454 195.466 239.56 195.679C239.56 195.785 239.667 195.998 239.667 196.104C239.667 196.211 239.773 196.317 239.773 196.53C239.773 196.637 239.88 196.85 239.88 196.956C239.88 197.063 239.986 197.169 239.986 197.276C240.092 197.382 240.092 197.595 240.199 197.701C240.305 197.808 240.305 197.914 240.411 198.021C240.518 198.127 240.518 198.34 240.624 198.447C240.731 198.553 240.731 198.66 240.837 198.766C240.943 198.979 241.05 199.085 241.156 199.298C241.262 199.405 241.262 199.511 241.369 199.618C241.475 199.831 241.688 200.044 241.794 200.15C241.901 200.257 241.901 200.363 242.007 200.363L242.113 200.469C242.22 200.682 242.433 200.789 242.539 201.002L242.645 201.108C242.858 201.321 243.071 201.534 243.284 201.747L243.39 201.853C243.496 201.96 243.709 202.173 243.922 202.279C244.028 202.386 244.241 202.492 244.347 202.599C244.454 202.705 244.56 202.812 244.773 202.918C244.879 203.025 245.092 203.131 245.198 203.237C245.305 203.344 245.518 203.45 245.624 203.557C245.73 203.663 245.943 203.77 246.156 203.876C246.262 203.983 246.475 204.089 246.581 204.196C246.794 204.302 246.9 204.409 247.113 204.515C247.326 204.622 247.539 204.834 247.751 204.941C248.177 205.154 248.602 205.473 249.028 205.686C249.134 205.793 249.241 205.793 249.453 205.899C249.773 206.112 250.198 206.218 250.517 206.431C250.624 206.538 250.73 206.538 250.836 206.644C251.262 206.857 251.794 207.07 252.326 207.283C252.432 207.283 252.538 207.39 252.538 207.39C252.964 207.496 253.389 207.709 253.815 207.815C254.028 207.922 254.134 207.922 254.347 208.028C254.56 208.135 254.772 208.135 255.091 208.241C255.304 208.348 255.517 208.348 255.73 208.454C255.942 208.561 256.262 208.561 256.474 208.667C256.687 208.667 256.9 208.774 257.113 208.774C257.325 208.88 257.644 208.88 257.857 208.986C258.07 208.986 258.283 209.093 258.495 209.093C258.708 209.093 259.027 209.199 259.24 209.199C259.453 209.199 259.666 209.306 259.772 209.306C260.304 209.412 260.836 209.519 261.368 209.519C261.474 209.519 261.474 209.519 261.58 209.519C262.006 209.625 262.538 209.625 262.963 209.732C263.176 209.732 263.282 209.732 263.495 209.838C263.814 209.838 264.133 209.945 264.453 209.945C264.665 209.945 264.878 209.945 264.984 209.945C265.304 209.945 265.623 209.945 265.942 209.945C266.155 209.945 266.261 209.945 266.474 209.945C266.793 209.945 267.006 209.945 267.325 209.945C267.537 209.945 267.75 209.945 267.963 209.945C268.282 209.945 268.601 209.945 268.814 209.945C269.027 209.945 269.133 209.945 269.346 209.945C269.665 209.945 269.878 209.945 270.197 209.945C270.41 209.945 270.622 209.945 270.729 209.945C271.048 209.945 271.367 209.945 271.58 209.838C271.793 209.838 271.899 209.838 272.112 209.838C272.431 209.838 272.856 209.732 273.175 209.732C273.282 209.732 273.388 209.732 273.495 209.732C273.92 209.732 274.452 209.625 274.877 209.519C274.984 209.519 274.984 209.519 275.09 209.519C275.516 209.412 275.835 209.412 276.26 209.306C276.473 209.306 276.58 209.199 276.792 209.199C277.111 209.093 277.431 209.093 277.643 208.986C277.75 208.986 277.962 208.88 278.069 208.88C278.388 208.774 278.707 208.774 279.026 208.667C279.239 208.667 279.345 208.561 279.558 208.561C279.877 208.454 280.196 208.454 280.409 208.348C280.622 208.348 280.728 208.241 280.941 208.241C281.366 208.135 281.898 207.922 282.324 207.815C282.43 207.815 282.537 207.815 282.537 207.709C283.069 207.496 283.6 207.39 284.026 207.177C284.239 207.07 284.451 206.964 284.664 206.964C284.771 206.857 284.983 206.857 285.09 206.751C285.302 206.644 285.515 206.538 285.728 206.431C285.834 206.325 286.047 206.325 286.153 206.218C286.366 206.112 286.685 206.006 286.898 205.899C287.004 205.793 287.111 205.793 287.217 205.686C287.536 205.473 287.962 205.26 288.281 205.154C294.025 201.853 296.791 197.595 296.791 193.23L297.004 264.241C297.004 268.499 294.132 272.864 288.494 276.165C288.175 276.378 287.855 276.59 287.43 276.697C287.324 276.803 287.217 276.803 287.111 276.91C286.898 277.016 286.685 277.123 286.366 277.229C286.26 277.336 286.047 277.336 285.941 277.442C285.728 277.549 285.515 277.655 285.302 277.762C285.196 277.868 284.983 277.868 284.771 277.974C284.664 278.081 284.451 278.081 284.345 278.187C284.345 278.187 284.239 278.187 284.239 278.294C283.707 278.507 283.281 278.72 282.749 278.826C282.643 278.826 282.537 278.826 282.537 278.933C282.111 279.039 281.579 279.252 281.154 279.358C281.047 279.358 281.047 279.358 280.941 279.465C280.835 279.465 280.728 279.465 280.728 279.571C280.409 279.678 280.196 279.678 279.877 279.784C279.664 279.784 279.558 279.891 279.345 279.891C279.026 279.997 278.707 279.997 278.388 280.104C278.282 280.104 278.175 280.21 278.069 280.21H277.962C277.643 280.317 277.324 280.317 277.111 280.423C276.899 280.423 276.792 280.53 276.58 280.53C276.154 280.636 275.835 280.636 275.409 280.743C275.303 280.743 275.303 280.743 275.197 280.743C274.771 280.849 274.239 280.849 273.814 280.955C273.707 280.955 273.601 280.955 273.495 280.955C273.175 280.955 272.75 281.062 272.431 281.062C272.324 281.062 272.112 281.062 272.005 281.062C271.686 281.062 271.367 281.062 271.154 281.168C270.942 281.168 270.729 281.168 270.622 281.168C270.303 281.168 270.091 281.168 269.771 281.168C269.771 281.168 269.771 281.168 269.665 281.168C269.559 281.168 269.346 281.168 269.24 281.168C268.92 281.168 268.601 281.168 268.282 281.168C268.069 281.168 267.857 281.168 267.644 281.168C267.325 281.168 267.112 281.168 266.793 281.168H266.686C266.58 281.168 266.474 281.168 266.261 281.168C265.942 281.168 265.623 281.168 265.304 281.168C265.091 281.168 264.878 281.168 264.772 281.168C264.453 281.168 264.133 281.168 263.814 281.062C263.708 281.062 263.602 281.062 263.495 281.062C263.389 281.062 263.389 281.062 263.282 281.062C262.751 281.062 262.325 280.955 261.793 280.849C261.687 280.849 261.687 280.849 261.58 280.849C261.049 280.742 260.517 280.636 259.985 280.636H259.878C259.772 280.636 259.559 280.53 259.453 280.53C259.24 280.53 258.921 280.423 258.708 280.423C258.495 280.423 258.283 280.317 258.07 280.317C257.857 280.21 257.538 280.21 257.325 280.104C257.113 280.104 256.9 279.997 256.687 279.997C256.474 279.891 256.155 279.891 255.942 279.784C255.73 279.678 255.517 279.678 255.304 279.571C255.091 279.465 254.879 279.465 254.56 279.358C254.453 279.358 254.347 279.252 254.24 279.252C254.134 279.252 254.134 279.252 254.028 279.146C253.602 279.039 253.177 278.826 252.751 278.72C252.645 278.72 252.538 278.613 252.538 278.613C252.006 278.4 251.581 278.187 251.049 277.974C250.943 277.868 250.836 277.868 250.73 277.762C250.411 277.549 249.985 277.442 249.666 277.229C249.56 277.123 249.453 277.123 249.241 277.016C248.815 276.803 248.39 276.59 247.964 276.271C247.858 276.165 247.751 276.165 247.645 276.058C247.539 275.952 247.432 275.952 247.326 275.845C247.113 275.739 247.007 275.632 246.794 275.526C246.688 275.419 246.475 275.313 246.369 275.206C246.156 275.1 246.049 274.994 245.837 274.887C245.73 274.781 245.518 274.674 245.411 274.568C245.305 274.461 245.092 274.355 244.986 274.248C244.879 274.142 244.666 274.035 244.56 273.929C244.454 273.822 244.241 273.716 244.135 273.609C244.028 273.609 244.028 273.503 243.922 273.503C243.815 273.397 243.709 273.29 243.603 273.184L243.496 273.077C243.284 272.864 243.071 272.651 242.858 272.438L242.752 272.332C242.539 272.119 242.433 272.013 242.326 271.8L242.22 271.693C242.22 271.693 242.22 271.693 242.22 271.587C242.113 271.48 242.113 271.48 242.113 271.374C242.007 271.161 241.794 271.054 241.688 270.841C241.582 270.735 241.582 270.629 241.475 270.522C241.369 270.309 241.262 270.203 241.156 269.99L241.05 269.883C241.05 269.777 240.943 269.777 240.943 269.67C240.837 269.564 240.837 269.351 240.731 269.244C240.624 269.138 240.624 269.032 240.518 268.925C240.411 268.819 240.411 268.606 240.305 268.499C240.305 268.393 240.199 268.393 240.199 268.286C240.199 268.18 240.199 268.18 240.092 268.073C240.092 267.967 239.986 267.754 239.986 267.648C239.986 267.541 239.88 267.435 239.88 267.222C239.88 267.115 239.773 266.902 239.773 266.796C239.773 266.689 239.773 266.689 239.667 266.583V266.476C239.667 266.37 239.667 266.157 239.56 266.051C239.56 265.944 239.56 265.838 239.56 265.625C239.56 265.518 239.56 265.305 239.56 265.199C239.56 265.092 239.56 264.986 239.56 264.986C239.56 264.88 239.56 264.773 239.56 264.773L239.348 193.762C239.348 193.549 239.348 193.762 239.348 193.975Z" fill="#2F58FF"/>
<path d="M247.858 181.519C236.582 188.013 236.475 198.66 247.751 205.154C259.027 211.648 277.324 211.648 288.6 205.154C299.876 198.66 299.982 188.013 288.706 181.519C277.43 175.025 259.134 175.025 247.858 181.519Z" fill="white"/>
<path d="M296.046 197.701C298.706 192.059 296.259 185.884 288.706 181.519C277.43 175.025 259.134 175.025 247.858 181.519C239.773 186.203 237.433 192.911 240.837 198.766" stroke="#171A21" stroke-width="2" stroke-miterlimit="10" stroke-linecap="round" stroke-linejoin="round"/>
<path d="M259.346 176.09V176.196V176.302V176.409V176.515V176.622V176.728V176.835V176.941C259.346 176.941 259.346 177.048 259.453 177.048V177.154C259.453 177.154 259.453 177.261 259.559 177.261C259.559 177.261 259.559 177.367 259.666 177.367L259.772 177.474C259.772 177.474 259.772 177.58 259.878 177.58C259.878 177.686 259.985 177.686 259.985 177.793C259.985 177.793 259.985 177.899 260.091 177.899C260.091 178.006 260.197 178.006 260.197 178.112C260.304 178.219 260.304 178.219 260.41 178.325L260.517 178.432L260.623 178.538L260.729 178.645L260.836 178.751L260.942 178.858L261.048 178.964L261.155 179.07C261.155 179.07 261.261 179.177 261.368 179.177C261.474 179.177 261.474 179.283 261.58 179.283C261.687 179.39 261.899 179.39 262.006 179.496C262.006 179.496 262.112 179.496 262.112 179.603C262.219 179.709 262.325 179.709 262.431 179.709H262.538C262.644 179.816 262.857 179.816 262.963 179.922H263.07C263.176 179.922 263.282 180.029 263.495 180.029C263.601 180.029 263.601 180.029 263.708 180.029C263.814 180.029 263.814 180.029 263.921 180.135C264.027 180.135 264.027 180.135 264.133 180.135C264.24 180.135 264.24 180.135 264.346 180.242C264.453 180.242 264.453 180.242 264.559 180.242C264.665 180.242 264.665 180.242 264.772 180.242C264.878 180.242 264.878 180.242 264.984 180.242C265.091 180.242 265.091 180.242 265.197 180.242C265.304 180.242 265.304 180.242 265.41 180.242C265.623 180.242 265.729 180.348 265.942 180.348C265.942 180.348 265.942 180.348 266.048 180.348C266.155 180.348 266.367 180.348 266.474 180.348C266.58 180.348 266.58 180.348 266.686 180.348C266.793 180.348 266.899 180.348 267.006 180.348C267.112 180.348 267.112 180.348 267.218 180.348C267.325 180.348 267.431 180.348 267.537 180.348C267.644 180.348 267.644 180.348 267.75 180.348C267.857 180.348 267.963 180.348 267.963 180.348C268.069 180.348 268.069 180.348 268.176 180.348C268.282 180.348 268.388 180.348 268.495 180.348C268.601 180.348 268.601 180.348 268.708 180.348C268.814 180.348 268.92 180.348 268.92 180.348C269.027 180.348 269.027 180.348 269.133 180.348C269.239 180.348 269.346 180.348 269.452 180.348H269.559C269.665 180.348 269.771 180.348 269.878 180.348H269.984C270.09 180.348 270.303 180.348 270.41 180.242C270.41 180.242 270.41 180.242 270.516 180.242C270.622 180.242 270.729 180.242 270.835 180.135H270.941C271.048 180.135 271.154 180.135 271.261 180.135H271.367C271.473 180.135 271.58 180.135 271.686 180.029C271.792 180.029 271.793 180.029 271.899 180.029C272.005 180.029 272.112 180.029 272.218 179.922H272.324C272.431 179.922 272.644 179.816 272.75 179.816C272.75 179.816 272.75 179.816 272.856 179.816C272.963 179.709 273.175 179.709 273.282 179.603C273.388 179.603 273.388 179.603 273.495 179.496C273.495 179.496 273.601 179.496 273.601 179.39C273.707 179.39 273.707 179.283 273.814 179.283C273.814 179.283 273.92 179.283 273.92 179.177C274.026 179.177 274.026 179.07 274.133 179.07C274.133 179.07 274.239 179.07 274.239 178.964C274.346 178.858 274.452 178.858 274.558 178.751C276.26 177.686 277.218 176.409 277.218 175.131L277.324 188.652C277.324 189.93 276.473 191.314 274.665 192.272C274.558 192.378 274.452 192.378 274.346 192.485C274.346 192.485 274.239 192.485 274.239 192.591C274.133 192.591 274.133 192.698 274.026 192.698C274.026 192.698 273.92 192.698 273.92 192.804C273.814 192.804 273.814 192.911 273.707 192.911C273.707 192.911 273.601 192.911 273.601 193.017C273.601 193.017 273.495 193.017 273.495 193.124C273.388 193.23 273.175 193.23 273.069 193.337C273.069 193.337 273.069 193.337 272.963 193.337C272.856 193.337 272.644 193.443 272.537 193.443C272.537 193.443 272.537 193.443 272.431 193.443H272.324C272.218 193.443 272.112 193.443 272.005 193.549C271.899 193.549 271.899 193.549 271.792 193.549C271.686 193.549 271.58 193.549 271.473 193.656H271.367C271.261 193.656 271.154 193.656 271.048 193.656H270.941C270.835 193.656 270.729 193.656 270.622 193.762C270.622 193.762 270.622 193.762 270.516 193.762C270.41 193.762 270.197 193.762 270.09 193.869H269.984C269.878 193.869 269.771 193.869 269.665 193.869H269.559C269.452 193.869 269.346 193.869 269.239 193.869C269.133 193.869 269.133 193.869 269.027 193.869C268.92 193.869 268.814 193.869 268.814 193.869H268.708C268.601 193.869 268.495 193.869 268.388 193.869C268.282 193.869 268.282 193.869 268.176 193.869C268.069 193.869 267.963 193.869 267.963 193.869H267.857C267.75 193.869 267.644 193.869 267.537 193.869C267.431 193.869 267.431 193.869 267.325 193.869C267.218 193.869 267.112 193.869 267.006 193.869H266.899C266.899 193.869 266.899 193.869 266.793 193.869C266.686 193.869 266.474 193.869 266.367 193.869C266.367 193.869 266.367 193.869 266.261 193.869C266.048 193.869 265.942 193.869 265.729 193.762H265.623C265.516 193.762 265.516 193.762 265.41 193.762C265.304 193.762 265.304 193.762 265.197 193.762C265.091 193.762 265.091 193.762 264.984 193.762C264.878 193.762 264.878 193.762 264.772 193.762C264.665 193.762 264.665 193.762 264.559 193.656C264.453 193.656 264.453 193.656 264.346 193.656C264.24 193.656 264.24 193.656 264.133 193.549H264.027C264.027 193.549 264.027 193.549 263.921 193.549C263.814 193.549 263.708 193.443 263.495 193.443H263.389C263.282 193.336 263.07 193.336 262.963 193.23H262.857C262.75 193.23 262.644 193.124 262.538 193.124C262.538 193.124 262.431 193.124 262.431 193.017C262.325 192.911 262.112 192.911 262.006 192.804C262.006 192.804 261.899 192.804 261.899 192.698C261.899 192.698 261.793 192.698 261.793 192.591C261.687 192.591 261.687 192.485 261.58 192.485L261.474 192.378L261.368 192.272L261.261 192.165L261.155 192.059L261.048 191.952L260.942 191.846L260.836 191.74C260.729 191.633 260.729 191.633 260.623 191.527C260.623 191.42 260.517 191.42 260.517 191.314C260.517 191.314 260.517 191.314 260.517 191.207C260.517 191.101 260.41 191.101 260.41 190.994C260.41 190.994 260.41 190.888 260.304 190.888L260.197 190.781C260.197 190.781 260.197 190.781 260.197 190.675C260.197 190.675 260.197 190.568 260.091 190.568V190.462C260.091 190.462 260.091 190.356 259.985 190.356C259.985 190.356 259.985 190.356 259.985 190.249C259.985 190.249 259.985 190.249 259.985 190.143V190.036V189.93V189.823C259.985 189.823 259.985 189.823 259.985 189.717V189.61V189.504V189.397C259.985 189.397 259.985 189.397 259.985 189.291C259.985 189.291 259.985 189.291 259.985 189.184L259.878 175.664C259.346 175.983 259.346 176.09 259.346 176.09Z" fill="#171A21"/>
<path d="M262.006 172.257C258.495 174.28 258.495 177.58 262.006 179.496C265.516 181.519 271.048 181.519 274.558 179.496C278.069 177.474 278.069 174.173 274.558 172.257C271.048 170.234 265.41 170.234 262.006 172.257Z" fill="white" stroke="#171A21" stroke-width="2" stroke-miterlimit="10" stroke-linecap="round" stroke-linejoin="round"/>
<path d="M267.218 253.382C258.815 253.169 250.305 251.678 242.539 248.591C235.625 245.823 228.604 241.671 224.455 235.389C222.54 232.515 221.37 229.108 221.37 225.595L221.264 269.138C221.264 276.271 225.944 282.127 231.476 286.172C238.39 291.282 246.794 294.157 255.198 295.754C259.134 296.499 263.07 296.818 267.112 296.925C268.389 296.925 269.452 295.967 269.452 294.583L269.559 255.724C269.559 254.446 268.495 253.488 267.218 253.382C267.218 253.382 267.325 253.382 267.218 253.382Z" fill="white"/>
<path d="M222.434 225.595L222.327 269.138C222.327 276.271 225.944 282.127 231.476 286.172C238.39 291.282 246.794 294.157 255.198 295.754C259.134 296.499 263.07 296.818 267.112 296.925C268.389 296.925 269.452 295.967 269.452 294.583V279.252" stroke="#171A21" stroke-width="2" stroke-miterlimit="10" stroke-linecap="round" stroke-linejoin="round"/>
</svg>
