<svg width="362" height="425" viewBox="0 0 362 425" fill="none" xmlns="http://www.w3.org/2000/svg">
<path d="M222.646 62.3872L272.005 33.8551C273.282 33.1099 274.877 34.068 274.877 35.5585L274.984 85.4896C274.984 88.2577 273.494 90.8128 271.154 92.0903L222.753 119.984C220.412 121.368 217.434 121.368 215.094 119.984L167.011 92.0903C164.671 90.7063 163.182 88.2577 163.182 85.4896L163.075 35.5585C163.075 34.068 164.671 33.1099 165.948 33.8551L214.881 62.2807C217.328 63.7712 220.306 63.7712 222.646 62.3872Z" fill="#2F58FF"/>
<path d="M165.948 33.9617L214.987 62.4938C217.328 63.8778 220.306 63.8778 222.646 62.4938L272.005 33.9617C273.282 33.2165 273.282 31.4066 272.005 30.6614L222.966 2.12932C220.625 0.745304 217.647 0.745304 215.306 2.12932L165.948 30.5549C164.671 31.3002 164.671 33.2165 165.948 33.9617Z" fill="#E8F4FA"/>
<path d="M251.581 18.8441L238.071 11.0723L182.117 43.437L195.52 51.2088L251.581 18.8441Z" fill="white" stroke="#171A21" stroke-width="2" stroke-miterlimit="10" stroke-linecap="round" stroke-linejoin="round" stroke-dasharray="12 12"/>
<path d="M163.182 36.7298C163.182 33.9617 164.671 31.4066 167.011 30.1291L215.306 2.12932C217.647 0.745304 220.625 0.745304 222.966 2.12932L271.048 30.0226C273.388 31.4066 274.877 33.8553 274.877 36.6233" stroke="#171A21" stroke-width="2" stroke-miterlimit="10" stroke-linecap="round" stroke-linejoin="round"/>
<path d="M264.027 67.2847L247.432 76.8664C245.411 78.0375 243.815 80.8055 243.815 83.1477V95.0715C243.815 97.4137 245.411 98.2654 247.432 97.2008L264.027 87.6191C266.048 86.448 267.644 83.68 267.644 81.3378V69.414C267.644 67.0718 266.048 66.2201 264.027 67.2847Z" fill="#E8F4FA"/>
<path d="M259.666 73.6722C259.134 73.9916 258.708 74.7369 258.708 75.3757V81.3376C258.708 81.9764 259.134 82.1893 259.666 81.8699C260.198 81.5505 260.623 80.8053 260.623 80.1665V74.2046C260.623 73.5658 260.198 73.3529 259.666 73.6722ZM255.73 75.908C255.198 76.2274 254.772 76.9726 254.772 77.6114V83.5733C254.772 84.2121 255.198 84.425 255.73 84.1056C256.262 83.7862 256.687 83.041 256.687 82.4022V76.4403C256.687 75.8015 256.262 75.5886 255.73 75.908ZM251.794 78.1437C251.262 78.4631 250.836 79.2083 250.836 79.8471V85.809C250.836 86.4478 251.262 86.6607 251.794 86.3413C252.326 86.022 252.751 85.2767 252.751 84.6379V78.676C252.858 78.0372 252.432 77.8243 251.794 78.1437ZM247.964 80.3794C247.432 80.6988 247.007 81.444 247.007 82.0828L247.113 92.5162C247.113 93.155 247.539 93.3679 248.071 93.0485C248.602 92.7291 249.028 91.9839 249.028 91.3451L248.922 80.9117C248.922 80.3794 248.496 80.06 247.964 80.3794ZM259.666 84.1056C259.453 84.2121 259.134 84.5315 259.027 84.8509C258.921 84.9573 258.815 85.1702 258.815 85.3832C258.708 85.7026 258.708 86.022 258.815 86.2349C258.815 86.3413 258.921 86.4478 259.027 86.4478C259.24 86.5543 259.453 86.5543 259.666 86.4478C259.878 86.3413 260.198 86.022 260.304 85.7026C260.729 85.0638 260.729 84.3185 260.304 84.1056C260.198 83.8927 259.985 83.8927 259.666 84.1056ZM255.836 86.3413C255.623 86.4478 255.304 86.7672 255.198 87.0866C254.985 87.406 254.879 87.7254 254.879 88.0447C254.879 88.6835 255.304 88.8964 255.836 88.5771C256.049 88.4706 256.368 88.1512 256.474 87.8318C256.9 87.193 256.9 86.4478 256.474 86.2349C256.262 86.1284 256.049 86.2349 255.836 86.3413ZM251.9 88.5771C251.687 88.6835 251.368 89.0029 251.262 89.3223C251.049 89.6417 250.943 89.9611 250.943 90.2805C250.943 90.9193 251.368 91.1322 251.9 90.8128C252.113 90.7063 252.432 90.3869 252.538 90.0675C252.645 89.9611 252.751 89.7482 252.751 89.5352C252.858 89.2158 252.858 88.8965 252.751 88.6835C252.751 88.5771 252.645 88.4706 252.538 88.4706C252.432 88.4706 252.113 88.4706 251.9 88.5771ZM263.602 71.3301C263.07 71.6495 262.644 72.3947 262.644 73.0335L262.751 83.4668C262.751 84.1056 263.176 84.3185 263.708 83.9992C264.24 83.6798 264.665 82.9345 264.665 82.2958L264.559 71.8624C264.559 71.3301 264.133 71.0107 263.602 71.3301Z" fill="#171A21"/>
</svg>
