<?xml version="1.0" encoding="utf-8"?>
<!-- Generator: Adobe Illustrator 22.1.0, SVG Export Plug-In . SVG Version: 6.00 Build 0)  -->
<svg version="1.1" id="Слой_1" xmlns="http://www.w3.org/2000/svg" xmlns:xlink="http://www.w3.org/1999/xlink" x="0px" y="0px"
	 viewBox="0 0 361.9 422.7" style="enable-background:new 0 0 361.9 422.7;" xml:space="preserve">
<style type="text/css">
	
		.st0{fill:none;stroke:#171A21;stroke-width:2;stroke-linecap:round;stroke-linejoin:round;stroke-miterlimit:10;stroke-dasharray:12,12;}
	.st1{fill:#E8F4FA;}
	.st2{fill:#FFFFFF;}
	.st3{fill:none;stroke:#171A21;stroke-width:2;stroke-linecap:round;stroke-linejoin:round;stroke-miterlimit:10;}
	.st4{fill:#2F58FF;}
	
		.st5{fill:#FFFFFF;stroke:#171A21;stroke-width:2;stroke-linecap:round;stroke-linejoin:round;stroke-miterlimit:10;stroke-dasharray:12,12;}
	.st6{fill:#171A21;}
	.st7{fill:#FFFFFF;stroke:#171A21;stroke-width:2;stroke-linecap:round;stroke-linejoin:round;stroke-miterlimit:10;}
</style>
<path class="st0" d="M343.6,152.8v180.1"/>
<path class="st0" d="M343.6,152.4l-100-58.6"/>
<path class="st0" d="M162.2,394l-48,27.7"/>
<path class="st0" d="M62.2,335.5l-48,27.7"/>
<path class="st0" d="M114.2,421.7l-100-58.6"/>
<path class="st1" d="M213.4,136.5l-82.9-47.9c-2.1-1.3-4.8,0.3-4.8,2.8L125.6,220c0,4.6,2.4,8.8,6.4,11.2l81.2,47
	c3.9,2.3,8.9,2.3,12.9,0l80.6-47c3.9-2.3,6.4-6.5,6.4-11.1l0.3-128.6c0-2.4-2.7-4-4.8-2.8l-82.2,47.8
	C222.4,138.8,217.5,138.8,213.4,136.5z"/>
<path class="st2" d="M308.5,88.6l-82.2,47.8c-3.9,2.3-8.8,2.3-12.9,0l-82.9-47.9c-2.1-1.3-2.1-4.4,0-5.5l82.2-47.8
	c3.9-2.3,8.8-2.3,12.9,0l82.9,47.9C310.7,84.3,310.8,87.4,308.5,88.6z"/>
<path class="st3" d="M306.7,231.1c3.9-2.3,6.4-6.5,6.4-11.1l0.2-126.8c0-4.6-2.4-8.8-6.4-11.2l-81.2-47c-3.9-2.3-8.9-2.3-12.9,0
	l-80.6,47c-3.9,2.3-6.4,6.5-6.4,11.1L125.7,220c0,4.6,2.4,8.8,6.4,11.2"/>
<path class="st4" d="M222.6,62.3l49.4-28.5c1.3-0.7,2.9,0.2,2.9,1.7l0.1,49.9c0,2.8-1.5,5.3-3.8,6.6l-48.4,27.9
	c-2.3,1.4-5.3,1.4-7.7,0L166.9,92c-2.3-1.4-3.8-3.8-3.8-6.6L163,35.5c0-1.5,1.6-2.4,2.9-1.7l48.9,28.4
	C217.3,63.7,220.2,63.7,222.6,62.3z"/>
<path class="st1" d="M165.9,33.9l49,28.5c2.3,1.4,5.3,1.4,7.7,0l49.4-28.5c1.3-0.7,1.3-2.6,0-3.3L222.9,2c-2.3-1.4-5.3-1.4-7.7,0
	l-49.4,28.4C164.6,31.2,164.6,33.1,165.9,33.9z"/>
<path class="st5" d="M251.5,18.8L238,11l-56,32.4l13.4,7.8L251.5,18.8z"/>
<path class="st3" d="M163.1,36.6c0-2.8,1.5-5.3,3.8-6.6l48.3-28c2.3-1.4,5.3-1.4,7.7,0L271,29.9c2.3,1.4,3.8,3.8,3.8,6.6"/>
<path class="st1" d="M264,67.2l-16.6,9.6c-2,1.2-3.6,3.9-3.6,6.3V95c0,2.3,1.6,3.2,3.6,2.1l16.6-9.6c2-1.2,3.6-3.9,3.6-6.3V69.3
	C267.6,67,266,66.1,264,67.2z"/>
<path class="st6" d="M259.6,73.6c-0.5,0.3-1,1.1-1,1.7v6c0,0.6,0.4,0.9,1,0.5c0.5-0.3,1-1.1,1-1.7v-6
	C260.6,73.5,260.1,73.3,259.6,73.6z M255.7,75.8c-0.5,0.3-1,1.1-1,1.7v6c0,0.6,0.4,0.9,1,0.5c0.5-0.3,1-1.1,1-1.7v-6
	C256.6,75.7,256.2,75.5,255.7,75.8z M251.7,78.1c-0.5,0.3-1,1.1-1,1.7v6c0,0.6,0.4,0.9,1,0.5c0.5-0.3,1-1.1,1-1.7v-6
	C252.8,77.9,252.4,77.7,251.7,78.1z M247.9,80.3c-0.5,0.3-1,1.1-1,1.7l0.1,10.4c0,0.6,0.4,0.9,1,0.5c0.5-0.3,1-1.1,1-1.7l-0.1-10.4
	C248.9,80.3,248.4,80,247.9,80.3z M259.6,84c-0.2,0.1-0.5,0.4-0.6,0.7c-0.1,0.1-0.2,0.3-0.2,0.5c-0.1,0.3-0.1,0.6,0,0.9
	c0,0.1,0.1,0.2,0.2,0.2c0.2,0.1,0.4,0.1,0.6,0c0.2-0.1,0.5-0.4,0.6-0.7c0.4-0.6,0.4-1.4,0-1.6C260.1,83.8,259.9,83.8,259.6,84z
	 M255.8,86.2c-0.2,0.1-0.5,0.4-0.6,0.7c-0.2,0.3-0.3,0.6-0.3,1c0,0.6,0.4,0.9,1,0.5c0.2-0.1,0.5-0.4,0.6-0.7c0.4-0.6,0.4-1.4,0-1.6
	C256.2,86,256,86.1,255.8,86.2z M251.8,88.5c-0.2,0.1-0.5,0.4-0.6,0.7c-0.2,0.3-0.3,0.6-0.3,1c0,0.6,0.4,0.9,1,0.5
	c0.2-0.1,0.5-0.4,0.6-0.7c0.1-0.1,0.2-0.3,0.2-0.5c0.1-0.3,0.1-0.6,0-0.9c0-0.1-0.1-0.2-0.2-0.2C252.4,88.4,252,88.4,251.8,88.5z
	 M263.5,71.2c-0.5,0.3-1,1.1-1,1.7l0.1,10.4c0,0.6,0.4,0.9,1,0.5c0.5-0.3,1-1.1,1-1.7l-0.1-10.4C264.5,71.2,264.1,70.9,263.5,71.2z"
	/>
<path class="st1" d="M88.9,254.1L6,206.2c-2.1-1.3-4.8,0.3-4.8,2.8L1,303.1c0,4.6,2.4,8.8,6.4,11.2l81.2,46.9
	c3.9,2.3,8.9,2.3,12.9,0l80.6-46.9c3.9-2.3,6.4-6.5,6.4-11.1l0.2-94.1c0-2.4-2.7-4-4.8-2.8l-82.2,47.8
	C97.8,256.4,92.9,256.4,88.9,254.1z"/>
<path class="st2" d="M184,206.2L101.7,254c-3.9,2.3-8.8,2.3-12.9,0L6,206.1c-2.1-1.3-2.1-4.4,0-5.5l82.2-47.8
	c3.9-2.3,8.8-2.3,12.9,0l82.9,47.9C186.1,201.9,186.1,205,184,206.2z"/>
<path class="st3" d="M182.2,314.2c3.9-2.3,6.4-6.5,6.4-11.1l0.2-92.2c0-4.6-2.4-8.8-6.4-11.2l-81.2-46.9c-3.9-2.3-8.9-2.3-12.9,0
	L7.6,199.7c-3.9,2.3-6.4,6.5-6.4,11.1L1,303.1c0,4.6,2.4,8.8,6.4,11.2"/>
<path class="st4" d="M98.2,178l49.4-28.5c1.3-0.7,2.9,0.2,2.9,1.7l0.1,50c0,2.8-1.5,5.3-3.8,6.7l-48.4,28c-2.3,1.4-5.3,1.4-7.7,0
	l-48.1-28c-2.3-1.4-3.8-3.8-3.8-6.6l-0.1-50c0-1.5,1.6-2.4,2.9-1.7l49,28.5C92.9,179.4,95.8,179.4,98.2,178z"/>
<path class="st2" d="M94.8,115.8L68.7,92.2c-1.3-1.1-3.1-1.3-4.5-0.4L15,120.2c-2.2,1.3-2.6,4.4-0.6,6.2l24.4,21.9L94.8,115.8z"/>
<path class="st2" d="M94.1,115.3l28.2-16.1c1.2-0.6,2.7-0.6,3.8,0l48.4,28c2.6,1.5,2.6,5.2,0,6.6l-24.4,13.9L94.1,115.3z"/>
<path class="st2" d="M94.5,180.2l-28.2,16.1c-1.2,0.6-2.7,0.6-3.8,0l-48.4-28c-2.6-1.5-2.6-5.2,0-6.6l24.4-13.9L94.5,180.2z"/>
<path class="st2" d="M94.2,180.2l15.4,26.7c1.1,1.8,3.4,2.4,5.2,1.4l49.5-28.6c1.8-1.1,2.4-3.4,1.4-5.2l-15.4-26.6L94.2,180.2z"/>
<path class="st3" d="M150.5,187.6l13.9-8c1.8-1.1,2.4-3.4,1.4-5.2l-15.4-26.6"/>
<path class="st3" d="M150.2,147.7l24.4-13.9c2.6-1.5,2.6-5.2,0-6.6l-48.4-28c-1.2-0.6-2.7-0.6-3.8,0l-28.2,16.1L68.7,92.1
	c-1.3-1.1-3.1-1.3-4.5-0.4L15,120.1c-2.2,1.3-2.6,4.4-0.6,6.2l23.8,21.5l-24.1,13.7c-2.6,1.5-2.6,5.2,0,6.6l24.6,14.2"/>
<path class="st6" d="M41.4,149.5l49,28.5c2.3,1.4,5.3,1.4,7.7,0l49.4-28.5c1.3-0.7,1.3-2.6,0-3.3l-49-28.5c-2.3-1.4-5.3-1.4-7.7,0
	l-49.4,28.5C40.3,146.8,40.3,148.7,41.4,149.5z"/>
<path class="st4" d="M98.2,178l25.5-14.7l-0.1-31.1c0,4.3-2.9,8.6-8.5,11.9c-0.3,0.2-0.6,0.4-1.1,0.5c-0.1,0.1-0.2,0.1-0.3,0.2
	c-0.2,0.1-0.4,0.2-0.7,0.3c-0.1,0.1-0.3,0.1-0.4,0.2c-0.2,0.1-0.4,0.2-0.6,0.3c-0.1,0.1-0.3,0.1-0.4,0.2c-0.2,0.1-0.4,0.2-0.6,0.2
	c-0.5,0.2-1,0.4-1.5,0.5c-0.1,0-0.2,0-0.2,0.1c-0.4,0.1-1,0.3-1.4,0.4c-0.2,0-0.3,0.1-0.5,0.1c-0.3,0.1-0.5,0.1-0.9,0.2
	c-0.2,0-0.3,0.1-0.5,0.1c-0.3,0.1-0.6,0.1-1,0.2c-0.1,0-0.3,0.1-0.4,0.1c-0.3,0.1-0.6,0.1-0.9,0.2c-0.2,0-0.3,0.1-0.5,0.1
	c-0.4,0.1-0.7,0.1-1.2,0.2c-0.1,0-0.1,0-0.2,0c-0.4,0.1-1,0.1-1.4,0.2c-0.1,0-0.2,0-0.3,0c-0.3,0-0.7,0.1-1.1,0.1
	c-0.2,0-0.3,0-0.5,0c-0.3,0-0.6,0-0.9,0.1c-0.2,0-0.4,0-0.5,0c-0.3,0-0.5,0-0.9,0c-0.2,0-0.3,0-0.5,0c-0.3,0-0.6,0-0.9,0
	c-0.2,0-0.4,0-0.6,0c-0.3,0-0.5,0-0.9,0c-0.2,0-0.3,0-0.5,0c-0.3,0-0.6,0-1,0c-0.2,0-0.4,0-0.5,0c-0.3,0-0.6,0-1-0.1
	c-0.2,0-0.3,0-0.5-0.1c-0.5,0-1-0.1-1.4-0.2c-0.1,0-0.1,0-0.2,0c-0.5-0.1-1.1-0.2-1.6-0.2c-0.2,0-0.4-0.1-0.5-0.1
	c-0.2,0-0.5-0.1-0.7-0.1c-0.2,0-0.4-0.1-0.6-0.1c-0.2-0.1-0.5-0.1-0.7-0.2c-0.2,0-0.4-0.1-0.6-0.1c-0.2-0.1-0.5-0.1-0.7-0.2
	c-0.2-0.1-0.4-0.1-0.6-0.2c-0.2-0.1-0.4-0.1-0.7-0.2c-0.2-0.1-0.3-0.1-0.5-0.2c-0.4-0.1-0.9-0.3-1.3-0.4c-0.1,0-0.2-0.1-0.2-0.1
	c-0.5-0.2-1-0.4-1.5-0.6c-0.1,0-0.2-0.1-0.3-0.2c-0.3-0.2-0.7-0.3-1.1-0.5c-0.1-0.1-0.2-0.1-0.4-0.2c-0.4-0.2-0.9-0.4-1.3-0.7
	c-0.2-0.1-0.4-0.3-0.6-0.4c-0.2-0.1-0.3-0.2-0.5-0.3c-0.1-0.1-0.3-0.2-0.4-0.3c-0.2-0.1-0.3-0.2-0.5-0.3c-0.1-0.1-0.3-0.2-0.4-0.3
	c-0.1-0.1-0.3-0.2-0.4-0.3c-0.1-0.1-0.3-0.2-0.4-0.3c-0.1-0.1-0.3-0.2-0.4-0.3c-0.2-0.1-0.3-0.3-0.5-0.4l-0.1-0.1
	c-0.2-0.2-0.4-0.4-0.6-0.6l-0.1-0.1c-0.2-0.2-0.3-0.3-0.4-0.5l-0.1-0.1c-0.1-0.1-0.1-0.2-0.2-0.2c-0.1-0.2-0.3-0.3-0.4-0.5
	c-0.1-0.1-0.1-0.2-0.2-0.3c-0.1-0.2-0.2-0.3-0.3-0.5c-0.1-0.1-0.1-0.2-0.2-0.3c-0.1-0.1-0.1-0.3-0.2-0.4c-0.1-0.1-0.1-0.2-0.2-0.3
	c-0.1-0.1-0.1-0.3-0.2-0.4c0-0.1-0.1-0.2-0.1-0.3c0-0.1-0.1-0.3-0.1-0.4c0-0.1-0.1-0.2-0.1-0.4c0-0.1-0.1-0.3-0.1-0.4
	c0-0.1-0.1-0.2-0.1-0.4c0-0.1,0-0.3-0.1-0.4c0-0.1,0-0.2,0-0.4c0-0.1,0-0.3,0-0.4c0-0.2,0-0.3,0-0.5l0.1,31.4l24.6,14.3
	C92.9,179.4,95.8,179.4,98.2,178z"/>
<path class="st2" d="M74.4,120.3c-11.3,6.5-11.4,17.1-0.1,23.6c11.3,6.5,29.6,6.5,40.8,0c11.3-6.5,11.4-17.1,0.1-23.6
	C104,113.8,85.7,113.8,74.4,120.3z"/>
<path class="st3" d="M123,135.4c1.8-5.3-0.9-11-7.9-15c-11.3-6.5-29.6-6.5-40.8,0c-7.9,4.6-10.3,11.2-7.2,16.9"/>
<path class="st6" d="M85.9,115v0.1v0.1v0.1v0.1v0.1v0.1v0.1v0.1c0,0,0,0.1,0.1,0.1v0.1c0,0,0,0.1,0.1,0.1c0,0,0,0.1,0.1,0.1l0.1,0.1
	c0,0,0,0.1,0.1,0.1c0,0.1,0.1,0.1,0.1,0.2c0,0,0,0.1,0.1,0.1c0,0.1,0.1,0.1,0.1,0.2c0.1,0.1,0.1,0.1,0.2,0.2l0.1,0.1l0.1,0.1
	l0.1,0.1l0.1,0.1l0.1,0.1l0.1,0.1l0.1,0.1c0,0,0.1,0.1,0.2,0.1c0.1,0,0.1,0.1,0.2,0.1c0.1,0.1,0.3,0.1,0.4,0.2c0,0,0.1,0,0.1,0.1
	c0.1,0.1,0.2,0.1,0.3,0.1h0.1c0.1,0.1,0.3,0.1,0.4,0.2h0.1c0.1,0,0.2,0.1,0.4,0.1c0.1,0,0.1,0,0.2,0c0.1,0,0.1,0,0.2,0.1
	c0.1,0,0.1,0,0.2,0c0.1,0,0.1,0,0.2,0.1c0.1,0,0.1,0,0.2,0c0.1,0,0.1,0,0.2,0s0.1,0,0.2,0c0.1,0,0.1,0,0.2,0s0.1,0,0.2,0
	c0.2,0,0.3,0.1,0.5,0.1c0,0,0,0,0.1,0s0.3,0,0.4,0c0.1,0,0.1,0,0.2,0c0.1,0,0.2,0,0.3,0c0.1,0,0.1,0,0.2,0c0.1,0,0.2,0,0.3,0
	s0.1,0,0.2,0c0.1,0,0.2,0,0.2,0c0.1,0,0.1,0,0.2,0c0.1,0,0.2,0,0.3,0s0.1,0,0.2,0c0.1,0,0.2,0,0.2,0c0.1,0,0.1,0,0.2,0
	c0.1,0,0.2,0,0.3,0h0.1c0.1,0,0.2,0,0.3,0h0.1c0.1,0,0.3,0,0.4-0.1c0,0,0,0,0.1,0c0.1,0,0.2,0,0.3-0.1h0.1c0.1,0,0.2,0,0.3,0h0.1
	c0.1,0,0.2,0,0.3-0.1c0.1,0,0.1,0,0.2,0c0.1,0,0.2,0,0.3-0.1h0.1c0.1,0,0.3-0.1,0.4-0.1c0,0,0,0,0.1,0c0.1-0.1,0.3-0.1,0.4-0.2
	c0.1,0,0.1,0,0.2-0.1c0,0,0.1,0,0.1-0.1c0.1,0,0.1-0.1,0.2-0.1c0,0,0.1,0,0.1-0.1c0.1,0,0.1-0.1,0.2-0.1c0,0,0.1,0,0.1-0.1
	c0.1-0.1,0.2-0.1,0.3-0.2c1.7-1.1,2.7-2.3,2.7-3.6l0.1,13.5c0,1.3-0.9,2.7-2.7,3.6c-0.1,0.1-0.2,0.1-0.3,0.2c0,0-0.1,0-0.1,0.1
	c-0.1,0-0.1,0.1-0.2,0.1c0,0-0.1,0-0.1,0.1c-0.1,0-0.1,0.1-0.2,0.1c0,0-0.1,0-0.1,0.1c0,0-0.1,0-0.1,0.1c-0.1,0.1-0.3,0.1-0.4,0.2
	c0,0,0,0-0.1,0c-0.1,0-0.3,0.1-0.4,0.1c0,0,0,0-0.1,0h-0.1c-0.1,0-0.2,0-0.3,0.1c-0.1,0-0.1,0-0.2,0c-0.1,0-0.2,0-0.3,0.1h-0.1
	c-0.1,0-0.2,0-0.3,0h-0.1c-0.1,0-0.2,0-0.3,0.1c0,0,0,0-0.1,0c-0.1,0-0.3,0-0.4,0.1h-0.1c-0.1,0-0.2,0-0.3,0h-0.1
	c-0.1,0-0.2,0-0.3,0s-0.1,0-0.2,0c-0.1,0-0.2,0-0.2,0h-0.1c-0.1,0-0.2,0-0.3,0s-0.1,0-0.2,0c-0.1,0-0.2,0-0.2,0h-0.1
	c-0.1,0-0.2,0-0.3,0s-0.1,0-0.2,0c-0.1,0-0.2,0-0.3,0h-0.1c0,0,0,0-0.1,0c-0.1,0-0.3,0-0.4,0c0,0,0,0-0.1,0c-0.2,0-0.3,0-0.5-0.1
	h-0.1c-0.1,0-0.1,0-0.2,0c-0.1,0-0.1,0-0.2,0s-0.1,0-0.2,0c-0.1,0-0.1,0-0.2,0s-0.1,0-0.2-0.1c-0.1,0-0.1,0-0.2,0s-0.1,0-0.2-0.1
	h-0.1c0,0,0,0-0.1,0c-0.1,0-0.2-0.1-0.4-0.1h-0.1c-0.1-0.1-0.3-0.1-0.4-0.2h-0.1c-0.1,0-0.2-0.1-0.3-0.1c0,0-0.1,0-0.1-0.1
	c-0.1-0.1-0.3-0.1-0.4-0.2c0,0-0.1,0-0.1-0.1c0,0-0.1,0-0.1-0.1c-0.1,0-0.1-0.1-0.2-0.1l-0.1-0.1l-0.1-0.1l-0.1-0.1l-0.1-0.1
	l-0.1-0.1l-0.1-0.1l-0.1-0.1c-0.1-0.1-0.1-0.1-0.2-0.2c0-0.1-0.1-0.1-0.1-0.2c0,0,0,0,0-0.1c0-0.1-0.1-0.1-0.1-0.2
	c0,0,0-0.1-0.1-0.1l-0.1-0.1c0,0,0,0,0-0.1c0,0,0-0.1-0.1-0.1v-0.1c0,0,0-0.1-0.1-0.1c0,0,0,0,0-0.1c0,0,0,0,0-0.1v-0.1v-0.1v-0.1
	c0,0,0,0,0-0.1v-0.1v-0.1v-0.1c0,0,0,0,0-0.1c0,0,0,0,0-0.1l-0.1-13.5C85.9,114.9,85.9,114.9,85.9,115z"/>
<path class="st7" d="M88.5,111.2c-3.5,2-3.5,5.3,0,7.2c3.5,2,9,2,12.6,0c3.5-2,3.5-5.3,0-7.2C97.6,109.1,92,109.1,88.5,111.2z"/>
<path class="st1" d="M261,320.7l-82.9-47.9c-2.1-1.3-4.8,0.3-4.8,2.8l-0.2,62.5c0,4.6,2.4,8.8,6.4,11.2l81.2,47
	c3.9,2.3,8.9,2.3,12.9,0l80.6-47c3.9-2.3,6.4-6.5,6.4-11.1l0.2-62.5c0-2.4-2.7-4-4.8-2.8l-82.2,47.8
	C269.9,322.9,265,322.9,261,320.7z"/>
<path class="st2" d="M356.1,272.8l-82.2,47.8c-3.9,2.3-8.8,2.3-12.9,0l-82.9-47.9c-2.1-1.3-2.1-4.4,0-5.5l82.2-47.8
	c3.9-2.3,8.8-2.3,12.9,0l82.9,47.9C358.2,268.5,358.2,271.6,356.1,272.8z"/>
<path class="st3" d="M354.3,349.1c3.9-2.3,6.4-6.5,6.4-11.1l0.2-60.6c0-4.6-2.4-8.8-6.4-11.2l-81.2-46.8c-3.9-2.3-8.9-2.3-12.9,0
	l-80.7,46.8c-3.9,2.3-6.4,6.5-6.4,11.1l-0.2,60.6c0,4.6,2.4,8.8,6.4,11.2"/>
<path class="st6" d="M303.2,205.8c-5.5-3.2-11.8-5.4-18.2-6.6c-6.3-1.2-12.8-1.8-19.1-1.5c-12.1,0.6-24.9,3.4-34.8,10.9
	c-5.3,4-9.9,9.9-9.8,16.9l-0.1,43.5c0-8.1,5.8-14.6,12.3-18.6c6.6-4.3,14.3-6.7,22-8.1c8.2-1.4,16.6-1.5,24.8-0.4
	c8,1.1,16.1,3.4,23.1,7.6c6.3,3.6,12.3,9.2,13.7,16.6c0.2,1,0.3,1.9,0.3,3l0.1-43.5C317.4,217.8,311.9,210.8,303.2,205.8
	C311.9,210.8,302.7,205.5,303.2,205.8z"/>
<path class="st4" d="M239.3,193.9c0,0.1,0,0.3,0,0.4c0,0.1,0,0.2,0,0.4c0,0.1,0,0.3,0.1,0.4c0,0.1,0,0.2,0.1,0.4
	c0,0.1,0.1,0.3,0.1,0.4c0,0.1,0.1,0.2,0.1,0.4c0,0.1,0.1,0.3,0.1,0.4c0,0.1,0.1,0.2,0.1,0.3c0.1,0.1,0.1,0.3,0.2,0.4
	c0.1,0.1,0.1,0.2,0.2,0.3c0.1,0.1,0.1,0.3,0.2,0.4c0.1,0.1,0.1,0.2,0.2,0.3c0.1,0.2,0.2,0.3,0.3,0.5c0.1,0.1,0.1,0.2,0.2,0.3
	c0.1,0.2,0.3,0.4,0.4,0.5c0.1,0.1,0.1,0.2,0.2,0.2l0.1,0.1c0.1,0.2,0.3,0.3,0.4,0.5l0.1,0.1c0.2,0.2,0.4,0.4,0.6,0.6l0.1,0.1
	c0.1,0.1,0.3,0.3,0.5,0.4c0.1,0.1,0.3,0.2,0.4,0.3c0.1,0.1,0.2,0.2,0.4,0.3c0.1,0.1,0.3,0.2,0.4,0.3c0.1,0.1,0.3,0.2,0.4,0.3
	c0.1,0.1,0.3,0.2,0.5,0.3c0.1,0.1,0.3,0.2,0.4,0.3c0.2,0.1,0.3,0.2,0.5,0.3c0.2,0.1,0.4,0.3,0.6,0.4c0.4,0.2,0.9,0.5,1.3,0.7
	c0.1,0.1,0.2,0.1,0.4,0.2c0.3,0.2,0.7,0.3,1.1,0.5c0.1,0.1,0.2,0.1,0.3,0.2c0.4,0.2,1,0.4,1.5,0.6c0.1,0,0.2,0.1,0.2,0.1
	c0.4,0.1,0.9,0.3,1.3,0.4c0.2,0.1,0.3,0.1,0.5,0.2c0.2,0.1,0.4,0.1,0.7,0.2c0.2,0.1,0.4,0.1,0.6,0.2c0.2,0.1,0.5,0.1,0.7,0.2
	c0.2,0,0.4,0.1,0.6,0.1c0.2,0.1,0.5,0.1,0.7,0.2c0.2,0,0.4,0.1,0.6,0.1c0.2,0,0.5,0.1,0.7,0.1c0.2,0,0.4,0.1,0.5,0.1
	c0.5,0.1,1.1,0.2,1.6,0.2c0.1,0,0.1,0,0.2,0c0.4,0.1,1,0.1,1.4,0.2c0.2,0,0.3,0,0.5,0.1c0.3,0,0.6,0.1,1,0.1c0.2,0,0.4,0,0.5,0
	c0.3,0,0.6,0,1,0c0.2,0,0.3,0,0.5,0c0.3,0,0.5,0,0.9,0c0.2,0,0.4,0,0.6,0c0.3,0,0.6,0,0.9,0c0.2,0,0.3,0,0.5,0c0.3,0,0.5,0,0.9,0
	c0.2,0,0.4,0,0.5,0c0.3,0,0.6,0,0.9-0.1c0.2,0,0.3,0,0.5,0c0.3,0,0.7-0.1,1.1-0.1c0.1,0,0.2,0,0.3,0c0.4,0,1-0.1,1.4-0.2
	c0.1,0,0.1,0,0.2,0c0.4-0.1,0.7-0.1,1.2-0.2c0.2,0,0.3-0.1,0.5-0.1c0.3-0.1,0.6-0.1,0.9-0.2c0.1,0,0.3-0.1,0.4-0.1
	c0.3-0.1,0.6-0.1,1-0.2c0.2,0,0.3-0.1,0.5-0.1c0.3-0.1,0.6-0.1,0.9-0.2c0.2,0,0.3-0.1,0.5-0.1c0.4-0.1,1-0.3,1.4-0.4
	c0.1,0,0.2,0,0.2-0.1c0.5-0.2,1.1-0.3,1.5-0.5c0.2-0.1,0.4-0.2,0.6-0.2c0.1-0.1,0.3-0.1,0.4-0.2c0.2-0.1,0.4-0.2,0.6-0.3
	c0.1-0.1,0.3-0.1,0.4-0.2c0.2-0.1,0.5-0.2,0.7-0.3c0.1-0.1,0.2-0.1,0.3-0.2c0.3-0.2,0.7-0.4,1.1-0.5c5.7-3.3,8.5-7.6,8.5-11.9
	l0.2,71c0,4.3-2.9,8.6-8.5,11.9c-0.3,0.2-0.6,0.4-1.1,0.5c-0.1,0.1-0.2,0.1-0.3,0.2c-0.2,0.1-0.4,0.2-0.7,0.3
	c-0.1,0.1-0.3,0.1-0.4,0.2c-0.2,0.1-0.4,0.2-0.6,0.3c-0.1,0.1-0.3,0.1-0.5,0.2c-0.1,0.1-0.3,0.1-0.4,0.2c0,0-0.1,0-0.1,0.1
	c-0.5,0.2-1,0.4-1.5,0.5c-0.1,0-0.2,0-0.2,0.1c-0.4,0.1-1,0.3-1.4,0.4c-0.1,0-0.1,0-0.2,0.1c-0.1,0-0.2,0-0.2,0.1
	c-0.3,0.1-0.5,0.1-0.9,0.2c-0.2,0-0.3,0.1-0.5,0.1c-0.3,0.1-0.6,0.1-1,0.2c-0.1,0-0.2,0.1-0.3,0.1h-0.1c-0.3,0.1-0.6,0.1-0.9,0.2
	c-0.2,0-0.3,0.1-0.5,0.1c-0.4,0.1-0.7,0.1-1.2,0.2c-0.1,0-0.1,0-0.2,0c-0.4,0.1-1,0.1-1.4,0.2c-0.1,0-0.2,0-0.3,0
	c-0.3,0-0.7,0.1-1.1,0.1c-0.1,0-0.3,0-0.4,0c-0.3,0-0.6,0-0.9,0.1c-0.2,0-0.4,0-0.5,0c-0.3,0-0.5,0-0.9,0c0,0,0,0-0.1,0
	c-0.1,0-0.3,0-0.4,0c-0.3,0-0.6,0-1,0c-0.2,0-0.4,0-0.6,0c-0.3,0-0.5,0-0.9,0h-0.1c-0.1,0-0.2,0-0.4,0c-0.3,0-0.6,0-1,0
	c-0.2,0-0.4,0-0.5,0c-0.3,0-0.6,0-1-0.1c-0.1,0-0.2,0-0.3,0c-0.1,0-0.1,0-0.2,0c-0.5,0-1-0.1-1.5-0.2c-0.1,0-0.1,0-0.2,0
	c-0.5-0.1-1.1-0.2-1.6-0.2h-0.1c-0.1,0-0.3-0.1-0.4-0.1c-0.2,0-0.5-0.1-0.7-0.1c-0.2,0-0.4-0.1-0.6-0.1c-0.2-0.1-0.5-0.1-0.7-0.2
	c-0.2,0-0.4-0.1-0.6-0.1c-0.2-0.1-0.5-0.1-0.7-0.2c-0.2-0.1-0.4-0.1-0.6-0.2c-0.2-0.1-0.4-0.1-0.7-0.2c-0.1,0-0.2-0.1-0.3-0.1
	c-0.1,0-0.1,0-0.2-0.1c-0.4-0.1-0.9-0.3-1.3-0.4c-0.1,0-0.2-0.1-0.2-0.1c-0.5-0.2-1-0.4-1.5-0.6c-0.1-0.1-0.2-0.1-0.3-0.2
	c-0.3-0.2-0.7-0.3-1.1-0.5c-0.1-0.1-0.2-0.1-0.4-0.2c-0.4-0.2-0.9-0.4-1.3-0.7c-0.1-0.1-0.2-0.1-0.3-0.2c-0.1-0.1-0.2-0.1-0.3-0.2
	c-0.2-0.1-0.3-0.2-0.5-0.3c-0.1-0.1-0.3-0.2-0.4-0.3c-0.2-0.1-0.3-0.2-0.5-0.3c-0.1-0.1-0.3-0.2-0.4-0.3c-0.1-0.1-0.3-0.2-0.4-0.3
	c-0.1-0.1-0.3-0.2-0.4-0.3c-0.1-0.1-0.3-0.2-0.4-0.3c-0.1,0-0.1-0.1-0.2-0.1c-0.1-0.1-0.2-0.2-0.3-0.3l-0.1-0.1
	c-0.2-0.2-0.4-0.4-0.6-0.6l-0.1-0.1c-0.2-0.2-0.3-0.3-0.4-0.5l-0.1-0.1c0,0,0,0,0-0.1c-0.1-0.1-0.1-0.1-0.1-0.2
	c-0.1-0.2-0.3-0.3-0.4-0.5c-0.1-0.1-0.1-0.2-0.2-0.3c-0.1-0.2-0.2-0.3-0.3-0.5l-0.1-0.1c0-0.1-0.1-0.1-0.1-0.2
	c-0.1-0.1-0.1-0.3-0.2-0.4c-0.1-0.1-0.1-0.2-0.2-0.3c-0.1-0.1-0.1-0.3-0.2-0.4c0-0.1-0.1-0.1-0.1-0.2c0-0.1,0-0.1-0.1-0.2
	c0-0.1-0.1-0.3-0.1-0.4c0-0.1-0.1-0.2-0.1-0.4c0-0.1-0.1-0.3-0.1-0.4c0-0.1,0-0.1-0.1-0.2v-0.1c0-0.1,0-0.3-0.1-0.4
	c0-0.1,0-0.2,0-0.4c0-0.1,0-0.3,0-0.4c0-0.1,0-0.2,0-0.2c0-0.1,0-0.2,0-0.2l-0.2-71C239.3,193.5,239.3,193.7,239.3,193.9z"/>
<path class="st2" d="M247.8,181.4c-11.3,6.5-11.4,17.1-0.1,23.6c11.3,6.5,29.6,6.5,40.8,0c11.3-6.5,11.4-17.1,0.1-23.6
	S259.1,174.9,247.8,181.4z"/>
<path class="st3" d="M296,197.6c2.7-5.6,0.2-11.8-7.3-16.2c-11.3-6.5-29.6-6.5-40.8,0c-8.1,4.7-10.4,11.4-7,17.2"/>
<path class="st6" d="M259.3,176v0.1v0.1v0.1v0.1v0.1v0.1v0.1v0.1c0,0,0,0.1,0.1,0.1v0.1c0,0,0,0.1,0.1,0.1c0,0,0,0.1,0.1,0.1
	l0.1,0.1c0,0,0,0.1,0.1,0.1c0,0.1,0.1,0.1,0.1,0.2c0,0,0,0.1,0.1,0.1c0,0.1,0.1,0.1,0.1,0.2c0.1,0.1,0.1,0.1,0.2,0.2l0.1,0.1
	l0.1,0.1l0.1,0.1l0.1,0.1l0.1,0.1l0.1,0.1l0.1,0.1c0,0,0.1,0.1,0.2,0.1c0.1,0,0.1,0.1,0.2,0.1c0.1,0.1,0.3,0.1,0.4,0.2
	c0,0,0.1,0,0.1,0.1c0.1,0.1,0.2,0.1,0.3,0.1h0.1c0.1,0.1,0.3,0.1,0.4,0.2h0.1c0.1,0,0.2,0.1,0.4,0.1c0.1,0,0.1,0,0.2,0
	c0.1,0,0.1,0,0.2,0.1c0.1,0,0.1,0,0.2,0c0.1,0,0.1,0,0.2,0.1c0.1,0,0.1,0,0.2,0c0.1,0,0.1,0,0.2,0c0.1,0,0.1,0,0.2,0
	c0.1,0,0.1,0,0.2,0c0.1,0,0.1,0,0.2,0c0.2,0,0.3,0.1,0.5,0.1c0,0,0,0,0.1,0c0.1,0,0.3,0,0.4,0c0.1,0,0.1,0,0.2,0c0.1,0,0.2,0,0.3,0
	c0.1,0,0.1,0,0.2,0c0.1,0,0.2,0,0.3,0c0.1,0,0.1,0,0.2,0c0.1,0,0.2,0,0.2,0c0.1,0,0.1,0,0.2,0c0.1,0,0.2,0,0.3,0c0.1,0,0.1,0,0.2,0
	c0.1,0,0.2,0,0.2,0c0.1,0,0.1,0,0.2,0c0.1,0,0.2,0,0.3,0h0.1c0.1,0,0.2,0,0.3,0h0.1c0.1,0,0.3,0,0.4-0.1c0,0,0,0,0.1,0
	c0.1,0,0.2,0,0.3-0.1h0.1c0.1,0,0.2,0,0.3,0h0.1c0.1,0,0.2,0,0.3-0.1c0.1,0,0.1,0,0.2,0c0.1,0,0.2,0,0.3-0.1h0.1
	c0.1,0,0.3-0.1,0.4-0.1c0,0,0,0,0.1,0c0.1-0.1,0.3-0.1,0.4-0.2c0.1,0,0.1,0,0.2-0.1c0,0,0.1,0,0.1-0.1c0.1,0,0.1-0.1,0.2-0.1
	c0,0,0.1,0,0.1-0.1c0.1,0,0.1-0.1,0.2-0.1c0,0,0.1,0,0.1-0.1c0.1-0.1,0.2-0.1,0.3-0.2c1.7-1.1,2.7-2.3,2.7-3.6l0.1,13.5
	c0,1.3-0.9,2.7-2.7,3.6c-0.1,0.1-0.2,0.1-0.3,0.2c0,0-0.1,0-0.1,0.1c-0.1,0-0.1,0.1-0.2,0.1c0,0-0.1,0-0.1,0.1
	c-0.1,0-0.1,0.1-0.2,0.1c0,0-0.1,0-0.1,0.1c0,0-0.1,0-0.1,0.1c-0.1,0.1-0.3,0.1-0.4,0.2c0,0,0,0-0.1,0c-0.1,0-0.3,0.1-0.4,0.1
	c0,0,0,0-0.1,0h-0.1c-0.1,0-0.2,0-0.3,0.1c-0.1,0-0.1,0-0.2,0c-0.1,0-0.2,0-0.3,0.1h-0.1c-0.1,0-0.2,0-0.3,0h-0.1
	c-0.1,0-0.2,0-0.3,0.1c0,0,0,0-0.1,0c-0.1,0-0.3,0-0.4,0.1h-0.1c-0.1,0-0.2,0-0.3,0h-0.1c-0.1,0-0.2,0-0.3,0c-0.1,0-0.1,0-0.2,0
	c-0.1,0-0.2,0-0.2,0h-0.1c-0.1,0-0.2,0-0.3,0c-0.1,0-0.1,0-0.2,0c-0.1,0-0.2,0-0.2,0h-0.1c-0.1,0-0.2,0-0.3,0c-0.1,0-0.1,0-0.2,0
	c-0.1,0-0.2,0-0.3,0h-0.1c0,0,0,0-0.1,0c-0.1,0-0.3,0-0.4,0c0,0,0,0-0.1,0c-0.2,0-0.3,0-0.5-0.1h-0.1c-0.1,0-0.1,0-0.2,0
	c-0.1,0-0.1,0-0.2,0c-0.1,0-0.1,0-0.2,0c-0.1,0-0.1,0-0.2,0c-0.1,0-0.1,0-0.2-0.1c-0.1,0-0.1,0-0.2,0c-0.1,0-0.1,0-0.2-0.1H264
	c0,0,0,0-0.1,0c-0.1,0-0.2-0.1-0.4-0.1h-0.1c-0.1-0.1-0.3-0.1-0.4-0.2h-0.1c-0.1,0-0.2-0.1-0.3-0.1c0,0-0.1,0-0.1-0.1
	c-0.1-0.1-0.3-0.1-0.4-0.2c0,0-0.1,0-0.1-0.1c0,0-0.1,0-0.1-0.1c-0.1,0-0.1-0.1-0.2-0.1l-0.1-0.1l-0.1-0.1l-0.1-0.1l-0.1-0.1
	l-0.1-0.1l-0.1-0.1l-0.1-0.1c-0.1-0.1-0.1-0.1-0.2-0.2c0-0.1-0.1-0.1-0.1-0.2c0,0,0,0,0-0.1c0-0.1-0.1-0.1-0.1-0.2
	c0,0,0-0.1-0.1-0.1l-0.1-0.1c0,0,0,0,0-0.1c0,0,0-0.1-0.1-0.1v-0.1c0,0,0-0.1-0.1-0.1c0,0,0,0,0-0.1c0,0,0,0,0-0.1v-0.1v-0.1v-0.1
	c0,0,0,0,0-0.1v-0.1v-0.1v-0.1c0,0,0,0,0-0.1c0,0,0,0,0-0.1l-0.1-13.5C259.3,175.9,259.3,176,259.3,176z"/>
<path class="st7" d="M261.9,172.2c-3.5,2-3.5,5.3,0,7.2c3.5,2,9,2,12.6,0c3.5-2,3.5-5.3,0-7.2C271,170.1,265.3,170.1,261.9,172.2z"
	/>
<path class="st2" d="M267.2,253.3c-8.4-0.2-16.9-1.7-24.7-4.8c-6.9-2.8-13.9-6.9-18.1-13.2c-1.9-2.9-3.1-6.3-3.1-9.8l-0.1,43.5
	c0,7.1,4.7,13,10.2,17c6.9,5.1,15.3,8,23.7,9.6c3.9,0.7,7.9,1.1,11.9,1.2c1.3,0,2.3-1,2.3-2.3l0.1-38.9
	C269.5,254.4,268.4,253.4,267.2,253.3C267.2,253.3,267.3,253.3,267.2,253.3z"/>
<path class="st3" d="M222.4,225.5l-0.1,43.5c0,7.1,3.6,13,9.1,17c6.9,5.1,15.3,8,23.7,9.6c3.9,0.7,7.9,1.1,11.9,1.2
	c1.3,0,2.3-1,2.3-2.3v-15.3"/>
<path class="st4" d="M156.1,363.1c0,0.1,0,0.1,0,0.2v0.1l1.4,6.5v-13.5l-1.4-6.5c0-0.1,0-0.2,0-0.3V363.1z"/>
<path class="st4" d="M221.9,360.1l-6.7,5.2v13.5l6.7-5.2c0.5-0.4,0.9-1,0.9-1.5v-13.5C222.8,359,222.5,359.5,221.9,360.1z"/>
<path class="st4" d="M167.7,363.9c-0.3,0.2-0.7,0.4-1.1,0.5c-3.9,2.2-5.9,5.2-5.9,8.2v13.5c0-3,1.9-6,5.9-8.2
	c0.3-0.2,0.7-0.4,1.1-0.5c0.1,0,0.1-0.1,0.2-0.1c0.3-0.2,0.7-0.3,1.1-0.5c0.1,0,0.2-0.1,0.3-0.1c0.2-0.1,0.3-0.1,0.5-0.2
	c0.1,0,0.2-0.1,0.3-0.1c0.2-0.1,0.3-0.1,0.5-0.2c0.1,0,0.2-0.1,0.3-0.1c0.4-0.1,1-0.3,1.4-0.4c0.1,0,0.1,0,0.2-0.1
	c0.4-0.1,0.9-0.2,1.3-0.3h0.1c0.4-0.1,0.9-0.1,1.3-0.2c0.1,0,0.2,0,0.3,0c0.3-0.1,0.7-0.1,1.1-0.1c0.1,0,0.1,0,0.2,0
	c0.4,0,0.9-0.1,1.2-0.1c0.1,0,0.2,0,0.3,0c0.3,0,0.6,0,1,0c0.1,0,0.2,0,0.3,0c0.4,0,0.9,0,1.2,0c0.1,0,0.1,0,0.2,0
	c0.3,0,0.7,0,1.1,0c0.1,0,0.2,0,0.3,0c0.4,0,0.9,0,1.3,0.1c0.1,0,0.1,0,0.2,0c0.4,0,0.9,0.1,1.4,0.1c0.1,0,0.1,0,0.2,0
	c0.5,0.1,1.1,0.2,1.6,0.3c0.1,0,0.1,0,0.2,0c0.3,0.1,0.6,0.1,1.1,0.2c0.3,0.1,0.6,0.2,1.1,0.2c0.1,0,0.1,0,0.2,0.1
	c0.4,0.1,0.9,0.2,1.3,0.4h0.1c0.4,0.1,0.9,0.3,1.3,0.4c0.1,0,0.1,0.1,0.2,0.1c0.4,0.2,0.9,0.3,1.2,0.5c0.1,0,0.1,0.1,0.2,0.1
	c0.4,0.2,0.7,0.4,1.2,0.6c0.3,0.2,0.6,0.3,0.9,0.5c0.1,0,0.1,0.1,0.2,0.1c0.2,0.1,0.4,0.3,0.6,0.4c0.1,0,0.1,0.1,0.2,0.1
	c0.2,0.1,0.3,0.3,0.5,0.4l0.1,0.1c0.2,0.2,0.4,0.3,0.6,0.5c0.1,0.1,0.2,0.2,0.3,0.3l0.1,0.1c0.1,0.2,0.3,0.3,0.4,0.5
	c0.2,0.2,0.4,0.5,0.5,0.7l0.1,0.1c0.1,0.2,0.3,0.4,0.4,0.7c0,0,0,0.1,0.1,0.1c0.1,0.2,0.2,0.4,0.2,0.6c0,0.1,0,0.1,0.1,0.2
	c0.1,0.2,0.1,0.4,0.2,0.7c0.1,0.2,0.1,0.4,0.1,0.6c0,0.1,0,0.1,0,0.2c0,0.2,0,0.4,0,0.5c0,0.1,0,0.1,0,0.2v-13.5v-0.1v-0.1
	c0-0.2,0-0.4,0-0.5v-0.1v-0.1c0-0.2-0.1-0.4-0.1-0.6c-0.1-0.2-0.1-0.4-0.2-0.7v-0.1v-0.1c-0.1-0.2-0.2-0.4-0.2-0.6v-0.1
	c-0.1-0.2-0.2-0.5-0.4-0.7c0,0,0,0,0-0.1c0,0,0-0.1-0.1-0.1c-0.2-0.2-0.3-0.5-0.5-0.7c-0.1-0.2-0.3-0.3-0.4-0.5l-0.1-0.1
	c-0.1-0.1-0.2-0.2-0.3-0.3c-0.2-0.2-0.4-0.3-0.6-0.5l-0.1-0.1c-0.2-0.1-0.3-0.3-0.5-0.4c0,0,0,0-0.1-0.1l-0.1-0.1
	c-0.2-0.1-0.4-0.3-0.6-0.4c-0.1-0.1-0.1-0.1-0.2-0.1c-0.3-0.2-0.5-0.3-0.9-0.5c-0.4-0.2-0.7-0.4-1.2-0.6c-0.1,0-0.1-0.1-0.2-0.1
	c-0.4-0.2-0.7-0.3-1.2-0.5c-0.1,0-0.1-0.1-0.2-0.1c-0.4-0.2-0.9-0.3-1.3-0.4h-0.1c-0.4-0.1-0.9-0.3-1.3-0.4h-0.1h-0.1
	c-0.3-0.1-0.6-0.2-1.1-0.2c-0.3-0.1-0.6-0.1-1.1-0.2h-0.1h-0.1c-0.5-0.1-1.1-0.2-1.6-0.3h-0.1c-0.4-0.1-0.9-0.1-1.4-0.1h-0.1
	c0,0,0,0-0.1,0c-0.4,0-0.9-0.1-1.3-0.1h-0.1c-0.1,0-0.1,0-0.2,0c-0.3,0-0.7,0-1.1,0c-0.1,0-0.1,0-0.2,0c0,0,0,0-0.1,0
	c-0.4,0-0.9,0-1.2,0h-0.1c-0.1,0-0.1,0-0.2,0c-0.3,0-0.6,0-1,0c-0.1,0-0.1,0-0.2,0h-0.1c-0.4,0-0.9,0.1-1.2,0.1h-0.1
	c-0.3,0-0.7,0.1-1.1,0.1c-0.1,0-0.1,0-0.2,0h-0.1c-0.4,0.1-0.9,0.1-1.3,0.2c0,0,0,0-0.1,0c-0.4,0.1-0.9,0.2-1.3,0.3h-0.1
	c0,0,0,0-0.1,0c-0.5,0.1-1,0.2-1.4,0.4h-0.1c-0.1,0-0.1,0-0.2,0.1c-0.2,0.1-0.3,0.1-0.5,0.2c-0.1,0-0.2,0.1-0.3,0.1
	c-0.2,0.1-0.3,0.1-0.5,0.2c-0.1,0-0.2,0.1-0.2,0.1s0,0-0.1,0c-0.4,0.2-0.7,0.3-1.2,0.5C167.9,363.9,167.8,363.9,167.7,363.9z"/>
<path class="st4" d="M179.5,399.8l-4.5-6.1c-0.7-0.1-1.6-0.2-2.3-0.3c-0.3,0-0.5-0.1-0.9-0.1c-0.2,0-0.5-0.1-0.7-0.1
	c-0.3,0-0.6-0.1-1-0.1c-0.2,0-0.5-0.1-0.7-0.1c-0.5-0.1-1-0.2-1.5-0.3l-9,3.9c-0.2,0.1-0.4,0.2-0.6,0.2h-0.1
	c-0.2,0.1-0.4,0.1-0.6,0.1c-0.2,0-0.4,0.1-0.7,0.1c-0.2,0-0.4,0-0.7,0c-0.2,0-0.4,0-0.7-0.1c0,0,0,0-0.1,0c-0.2,0-0.4-0.1-0.6-0.1
	h-0.1c-0.1,0-0.3-0.1-0.4-0.1c-0.1,0-0.1,0-0.2-0.1c-0.2-0.1-0.4-0.2-0.6-0.3l-6.9-4v-12.1c-0.2-0.3-0.4-0.6-0.6-1
	c0,0,0-0.1-0.1-0.1c-0.1-0.2-0.3-0.5-0.4-0.7c0-0.1-0.1-0.2-0.1-0.2c-0.1-0.3-0.2-0.5-0.3-0.9v-0.1c-0.1-0.3-0.2-0.6-0.3-1.1
	l-10.4-2.6c-0.2,0-0.3-0.1-0.5-0.2c-0.1,0-0.1,0-0.2-0.1c-0.2-0.1-0.4-0.2-0.5-0.3c-0.1-0.1-0.2-0.1-0.3-0.2c0,0-0.1,0-0.1-0.1
	c-0.1,0-0.1-0.1-0.2-0.1l-0.1-0.1l-0.1-0.1l-0.1-0.1c0,0,0,0-0.1-0.1l-0.1-0.1c0,0,0,0,0-0.1c0-0.1-0.1-0.1-0.1-0.2
	c0-0.1,0-0.1,0-0.2c0,0,0,0,0-0.1c0-0.1,0-0.1,0-0.2v13.5c0,0.1,0,0.1,0,0.2c0,0,0,0,0,0.1c0,0,0,0,0,0.1v0.1c0,0.1,0,0.1,0.1,0.2
	c0,0,0,0,0,0.1c0,0,0,0.1,0.1,0.1c0,0,0,0,0,0.1c0,0,0,0,0.1,0.1c0,0,0,0,0,0.1c0,0,0,0,0.1,0.1l0.1,0.1c0,0,0,0,0.1,0
	c0.1,0,0.1,0.1,0.2,0.1c0,0,0,0,0.1,0c0.1,0.1,0.2,0.2,0.3,0.2c0.2,0.1,0.4,0.2,0.5,0.3c0.1,0,0.1,0,0.2,0.1c0.1,0,0.3,0.1,0.4,0.1
	h0.1l4.8,1.2v12.1c0,0.1,0,0.1,0,0.2c0,0,0,0,0,0.1c0,0,0,0,0,0.1v0.1c0,0.1,0,0.1,0.1,0.2c0,0,0,0.1,0.1,0.1c0,0,0,0,0.1,0.1
	c0,0,0,0,0,0.1c0,0,0,0,0.1,0.1l0.1,0.1c0,0,0,0,0.1,0c0.1,0,0.1,0.1,0.2,0.1c0,0,0,0,0.1,0c0.1,0.1,0.2,0.2,0.3,0.2l13.2,7.6
	c0.2,0.1,0.4,0.2,0.6,0.3c0.1,0,0.1,0,0.2,0.1c0.1,0,0.2,0.1,0.4,0.1c0,0,0,0,0.1,0h0.1c0.1,0,0.2,0,0.3,0.1c0.1,0,0.2,0,0.3,0
	c0,0,0,0,0.1,0c0.1,0,0.2,0,0.3,0c0.1,0,0.2,0,0.3,0c0.1,0,0.2,0,0.2,0c0.1,0,0.2,0,0.3,0c0.1,0,0.1,0,0.2,0c0,0,0,0,0.1,0
	c0.1,0,0.2,0,0.3,0c0.1,0,0.2,0,0.3,0c0.1,0,0.1,0,0.2,0c0.1,0,0.2,0,0.3-0.1h0.1h0.1h0.1c0.1,0,0.3-0.1,0.4-0.1c0,0,0,0,0.1,0
	l9-3.9c0.4,0.1,0.7,0.1,1.2,0.2c0.1,0,0.2,0,0.3,0.1c0.2,0,0.5,0.1,0.7,0.1c0.3,0.1,0.6,0.1,1,0.1c0.2,0,0.5,0.1,0.7,0.1
	s0.3,0.1,0.5,0.1c0.1,0,0.2,0,0.3,0c0.7,0.1,1.5,0.2,2.3,0.3l4.5,6.1c0.1,0.1,0.1,0.1,0.2,0.2l0.1,0.1c0,0,0.1,0,0.1,0.1
	c0,0,0,0,0.1,0.1c0.1,0.1,0.2,0.2,0.4,0.2c0.1,0.1,0.3,0.2,0.5,0.2c0.1,0,0.1,0,0.2,0.1c0.1,0,0.3,0.1,0.4,0.1h0.1h0.1
	c0.1,0,0.1,0,0.2,0h0.1c0.1,0,0.1,0,0.2,0h0.1c0,0,0,0,0.1,0c0.1,0,0.2,0,0.3,0c0,0,0,0,0.1,0c0,0,0,0,0.1,0c0.1,0,0.1,0,0.2,0
	c0.1,0,0.2,0,0.3,0c0.1,0,0.1,0,0.2,0c0.1,0,0.2,0,0.3,0c0.1,0,0.1,0,0.2,0c0.1,0,0.2,0,0.3,0l17.9-2.8c0.1,0,0.2,0,0.3-0.1
	c0.1,0,0.2,0,0.3-0.1c0.1,0,0.2-0.1,0.3-0.1s0.1,0,0.2-0.1h0.1c0,0,0,0,0.1,0c0.1-0.1,0.3-0.1,0.4-0.2c0,0,0,0,0.1,0
	c0.1-0.1,0.2-0.1,0.3-0.2l0.1-0.1c0.1-0.1,0.2-0.2,0.3-0.2c0,0,0,0,0.1-0.1c0.1-0.1,0.2-0.2,0.2-0.3v-0.1c0-0.1,0.1-0.2,0.1-0.3
	v-0.1c0-0.1,0.1-0.2,0.1-0.3v-7.6c1.4-0.7,2.6-1.5,3.7-2.2l11.2,0.7h0.1c0.1,0,0.2,0,0.3,0c0.1,0,0.2,0,0.3,0c0.1,0,0.1,0,0.2,0
	s0.2,0,0.3,0c0.1,0,0.1,0,0.2,0c0.1,0,0.2,0,0.3-0.1c0.1,0,0.2,0,0.3-0.1c0.1,0,0.2-0.1,0.3-0.1c0.1,0,0.2-0.1,0.2-0.1h0.1
	c0,0,0,0,0.1,0c0.1,0,0.2-0.1,0.3-0.1s0.2-0.1,0.2-0.1c0.1-0.1,0.2-0.1,0.3-0.2c0.1,0,0.1-0.1,0.2-0.1c0.1-0.1,0.2-0.2,0.2-0.2
	l0.1-0.1c0.1-0.1,0.2-0.3,0.3-0.4l4.7-10.3c0.1-0.2,0.1-0.4,0.1-0.6v-13.5c0,0.2,0,0.4-0.1,0.6l-4.7,10.3c-0.1,0.1-0.1,0.3-0.3,0.4
	l-0.1,0.1c-0.1,0.1-0.1,0.2-0.2,0.2c-0.1,0-0.1,0.1-0.2,0.1c-0.1,0.1-0.2,0.1-0.3,0.2c-0.1,0-0.2,0.1-0.2,0.1
	c-0.1,0.1-0.2,0.1-0.3,0.2h-0.1c-0.2,0.1-0.3,0.1-0.5,0.2c-0.2,0.1-0.4,0.1-0.6,0.1c-0.2,0-0.4,0.1-0.7,0.1c-0.2,0-0.5,0-0.7,0
	l-11.2-0.7c-1.5,1.1-3.2,2.1-5.1,3v8.6c-0.1,0.1-0.2,0.1-0.4,0.2H204c-0.2,0.1-0.3,0.1-0.5,0.2c-0.2,0.1-0.4,0.1-0.6,0.1l-17.9,2.8
	c-0.2,0-0.3,0-0.5,0.1c-0.2,0-0.3,0-0.5,0c-0.2,0-0.3,0-0.5,0c0,0,0,0-0.1,0c-0.2,0-0.3,0-0.4-0.1h-0.1c-0.1,0-0.2,0-0.3-0.1
	c-0.1,0-0.1,0-0.2,0c-0.1,0-0.1,0-0.2-0.1c-0.1,0-0.3-0.1-0.4-0.1c-0.1,0-0.1,0-0.2-0.1c-0.2-0.1-0.3-0.1-0.5-0.2
	c-0.2-0.1-0.3-0.2-0.4-0.3c0,0-0.1,0-0.1-0.1C179.7,400.1,179.6,399.9,179.5,399.8z M140,388.6l4.7,1.2c0.1,0.3,0.2,0.6,0.3,1v0.1
	c0.1,0.3,0.2,0.5,0.3,0.9l-5.1-3C140.1,388.7,140,388.6,140,388.6z"/>
<path class="st2" d="M156.1,349.9c-0.2-1.3,1.1-2.3,3.1-2.7l17.9-2.8c1.5-0.2,3.1,0,4.1,0.6c0.3,0.2,0.6,0.4,0.9,0.7l4.5,6.1
	c2.4,0.2,4.8,0.6,7,1.1l9-3.9c1.7-0.7,4-0.6,5.5,0.2l13.2,7.6c1.5,0.9,1.7,2.2,0.4,3.3l-6.7,5.2c0.9,1.3,1.5,2.7,1.9,4l10.4,2.6
	c0.5,0.1,1,0.3,1.3,0.5c1.1,0.6,1.6,1.6,1.2,2.4l-4.7,10.3c-0.5,1.2-2.6,2-4.7,1.8l-11.2-0.7c-1.5,1.1-3.2,2.1-5.1,3l1.4,6.5
	c0.2,1.3-1.1,2.4-3.2,2.8l-17.9,2.8c-1.5,0.2-3.1,0-4.1-0.6c-0.3-0.2-0.6-0.4-0.9-0.7l-4.5-6.1c-2.4-0.2-4.8-0.5-7-1.1l-9,3.9
	c-1.7,0.7-4,0.6-5.6-0.2l-13.2-7.6c-1.5-0.9-1.7-2.2-0.4-3.3l6.7-5.2c-0.9-1.3-1.5-2.7-1.9-4l-10.4-2.6c-0.5-0.1-1-0.3-1.3-0.5
	c-1.1-0.6-1.6-1.6-1.2-2.4l4.7-10.3c0.5-1.2,2.6-2,4.7-1.8l11.2,0.7c1.5-1.1,3.2-2.1,5.1-3L156.1,349.9z M195,364.5
	c-7.9-4.6-20.6-4.6-28.5,0c-7.9,4.6-7.8,11.9,0.1,16.5c7.9,4.6,20.6,4.6,28.5,0C203,376.5,203,369.1,195,364.5z"/>
<path class="st3" d="M133,373.2c-1.1-0.6-1.6-1.6-1.2-2.4l4.7-10.3c0.5-1.2,2.6-2,4.7-1.8l11.2,0.7c1.5-1.1,3.2-2.1,5.1-3l-1.4-6.5
	c-0.2-1.3,1.1-2.3,3.1-2.7l17.9-2.8c1.5-0.2,3.1,0,4.1,0.6c0.3,0.2,0.6,0.4,0.9,0.7l4.5,6.1c2.4,0.2,4.8,0.6,7,1.1l9-3.9
	c1.7-0.7,4-0.6,5.5,0.2l13.2,7.6c1.5,0.9,1.7,2.2,0.4,3.3l-6.7,5.2c0.9,1.3,1.5,2.7,1.9,4l10.4,2.6c0.5,0.1,1,0.3,1.3,0.5
	c1.1,0.6,1.6,1.6,1.2,2.4 M162.3,377.2c1,1.4,2.4,2.8,4.5,3.8c7.9,4.6,20.6,4.6,28.5,0c1.7-1,3.1-2.1,4-3.3"/>
</svg>
