<svg width="30" height="30" viewBox="0 0 30 30" fill="none" xmlns="http://www.w3.org/2000/svg">
<path d="M1.6402 8.174C4.09268 3.38369 8.93517 0.257877 14.2932 0.0156269C14.2932 0.0156269 14.2932 0.0156269 14.301 0.0156269H14.3088C14.3088 0.0156269 14.3166 0.0156269 14.3244 0.0156269C14.34 0.0156269 14.3634 0.0156269 14.3791 0.0156269C14.5821 -1.90735e-06 14.793 -1.90735e-06 15.0039 -1.90735e-06C19.1513 -1.90735e-06 23.1502 1.74264 25.9776 4.77468C27.5944 6.50951 28.7972 8.63506 29.4376 10.9169C29.8125 12.2454 30 13.6207 30 15.0117C30 15.4728 29.9766 15.9182 29.9375 16.3715C29.6641 19.3722 28.516 22.1855 26.6103 24.5142C23.736 27.9995 19.5027 30 14.9961 30C7.75579 30 1.56209 24.8424 0.257745 17.739V17.7312V17.7234C0.0859151 16.8403 0 15.926 0 14.9961C0 14.3006 0.0468628 13.6129 0.140588 12.9565C0.359281 11.292 0.866962 9.68221 1.6402 8.174ZM7.81047 11.8703C7.9823 11.8703 8.12288 11.7296 8.12288 11.5577V10.3074C8.12288 10.1355 7.9823 9.99479 7.81047 9.99479H3.53814C3.07732 11.0498 2.77272 12.1516 2.61651 13.3003C2.5384 13.8552 2.49935 14.4256 2.49935 14.9961C2.49935 15.4181 2.52278 15.8401 2.56183 16.2464H4.68628C4.85811 16.2464 4.9987 16.1058 4.9987 15.9338V14.6835C4.9987 13.1362 6.26399 11.8703 7.81047 11.8703ZM27.4928 14.9961C27.4928 14.1521 27.4304 13.3082 27.2429 12.4954C27.0633 11.7296 26.7899 10.8309 26.4541 9.99479C25.9307 8.68976 25.1106 7.50195 24.15 6.47043C21.9318 4.09481 18.8623 2.67257 15.6287 2.50846V4.05574C15.6287 4.22766 15.7693 4.36832 15.9412 4.36832H17.8157C19.3621 4.36832 20.6274 5.63428 20.6274 7.18156V9.68221C20.6274 11.2295 19.3621 12.4954 17.8157 12.4954C17.6438 12.4954 17.5033 12.6361 17.5033 12.808V14.6835C17.5033 16.2308 16.238 17.4967 14.6915 17.4967C14.5197 17.4967 14.3791 17.6374 14.3791 17.8093V21.8338C14.3791 22.1776 14.6602 22.459 15.0039 22.459H25.0325C26.4072 20.6147 27.2351 18.4423 27.446 16.1292C27.4772 15.7541 27.4928 15.379 27.4928 14.9961ZM14.9961 27.4993C17.761 27.4993 20.4009 26.5929 22.5488 24.9596H14.9961C13.27 24.9596 11.8719 23.5608 11.8719 21.8338V17.8093C11.8719 16.262 13.1372 14.9961 14.6837 14.9961C14.8555 14.9961 14.9961 14.8554 14.9961 14.6835V12.808C14.9961 11.2607 16.2614 9.99479 17.8079 9.99479C17.9797 9.99479 18.1203 9.85413 18.1203 9.68221V7.18156C18.1203 7.00964 17.9797 6.86897 17.8079 6.86897H15.9334C14.3869 6.86897 13.1216 5.60302 13.1216 4.05574V2.64131C9.88024 3.13363 6.95913 4.8919 4.9987 7.49414H7.81047C9.35694 7.49414 10.6222 8.76009 10.6222 10.3074V11.5577C10.6222 13.105 9.35694 14.3709 7.81047 14.3709C7.63864 14.3709 7.49805 14.5116 7.49805 14.6835V15.9338C7.49805 17.4811 6.23275 18.7471 4.68628 18.7471H3.06951C4.67847 23.8968 9.4741 27.4993 14.9961 27.4993Z" fill="#FB7070"/>
</svg>
