<svg width="30" height="30" viewBox="0 0 30 30" fill="none" xmlns="http://www.w3.org/2000/svg">
<path d="M1.73444 11.1641C2.37507 11.4141 3.10163 11.0938 3.35163 10.4531C5.24225 5.625 9.81257 2.5 15.0001 2.5C20.1876 2.5 24.7579 5.625 26.6485 10.4531C26.8438 10.9453 27.3126 11.25 27.8126 11.25C27.961 11.25 28.1173 11.2187 28.2657 11.1641C28.9063 10.9141 29.2266 10.1875 28.9766 9.54688C26.711 3.75 21.2266 0 15.0001 0C8.7735 0 3.28913 3.75 1.0235 9.54688C0.773503 10.1875 1.086 10.9141 1.73444 11.1641Z" fill="#9AF4DC"/>
<path d="M24.9297 13.8672C24.3672 8.88281 20.1328 5 15 5C9.86719 5 5.63281 8.88281 5.07031 13.8672C2.1875 14.4219 0 16.9609 0 20C0 23.4453 2.80469 26.25 6.25 26.25C6.9375 26.25 7.5 25.6875 7.5 25V15C7.5 10.8672 10.8672 7.5 15 7.5C19.1328 7.5 22.5 10.8672 22.5 15V26.25C22.5 26.9375 21.9375 27.5 21.25 27.5H18.75C18.0625 27.5 17.5 26.9375 17.5 26.25C17.5 25.5625 16.9375 25 16.25 25C15.5625 25 15 25.5625 15 26.25C15 28.3203 16.6797 30 18.75 30H21.25C23.3203 30 25 28.3203 25 26.25V26.125C27.8516 25.5469 30 23.0156 30 20C30 16.9609 27.8125 14.4219 24.9297 13.8672ZM2.5 20C2.5 18.3672 3.54688 16.9844 5 16.4688V23.5312C3.54688 23.0156 2.5 21.6328 2.5 20ZM25 23.5312V16.4688C26.4531 16.9844 27.5 18.3672 27.5 20C27.5 21.6328 26.4531 23.0156 25 23.5312Z" fill="#9AF4DC"/>
</svg>
