<svg width="30" height="30" viewBox="0 0 30 30" fill="none" xmlns="http://www.w3.org/2000/svg">
<path d="M23.75 0H6.25C2.80469 0 0 2.80469 0 6.25C0 9.375 2.3125 11.9688 5.3125 12.4219C6.03125 15.3125 8.00781 17.6953 10.625 18.9766V22.8672C8.79688 23.6094 7.5 25.4062 7.5 27.5V28.75C7.5 29.4375 8.0625 30 8.75 30H21.25C21.9375 30 22.5 29.4375 22.5 28.75V27.5C22.5 25.4062 21.2031 23.6094 19.375 22.8672V18.9766C21.9922 17.6953 23.9688 15.3047 24.6875 12.4219C27.6875 11.9688 30 9.375 30 6.25C30 2.80469 27.1953 0 23.75 0ZM2.5 6.25C2.5 4.61719 3.54688 3.23438 5 2.71875V9.78125C3.54688 9.26562 2.5 7.88281 2.5 6.25ZM10 27.5C10 26.125 11.125 25 12.5 25H17.5C18.875 25 20 26.125 20 27.5H10ZM16.875 22.5H13.125V19.8203C13.7344 19.9375 14.3594 20 15 20C15.6406 20 16.2656 19.9375 16.875 19.8203V22.5ZM15 17.5C10.8672 17.5 7.5 14.1328 7.5 10V2.5H22.5V10C22.5 14.1328 19.1328 17.5 15 17.5ZM25 9.78125V2.71875C26.4531 3.23438 27.5 4.61719 27.5 6.25C27.5 7.88281 26.4531 9.26562 25 9.78125Z" fill="#98A2F4"/>
<path d="M18.75 5C18.0625 5 17.5 5.5625 17.5 6.25V10C17.5 11.375 16.375 12.5 15 12.5C14.3125 12.5 13.75 13.0625 13.75 13.75C13.75 14.4375 14.3125 15 15 15C17.7578 15 20 12.7578 20 10V6.25C20 5.5625 19.4375 5 18.75 5Z" fill="#98A2F4"/>
</svg>
