<svg width="30" height="30" viewBox="0 0 30 30" fill="none" xmlns="http://www.w3.org/2000/svg">
<path d="M28.75 11.25C29.4375 11.25 30 10.6875 30 10C30 9.3125 29.4375 8.75 28.75 8.75H26.25V5C26.25 4.3125 25.6875 3.75 25 3.75H21.25V1.25C21.25 0.5625 20.6875 0 20 0C19.3125 0 18.75 0.5625 18.75 1.25V3.75H16.25V2.5C16.25 1.8125 15.6875 1.25 15 1.25C14.3125 1.25 13.75 1.8125 13.75 2.5V3.75H11.25V1.25C11.25 0.5625 10.6875 0 10 0C9.3125 0 8.75 0.5625 8.75 1.25V3.75H5C4.3125 3.75 3.75 4.3125 3.75 5V8.75H1.25C0.5625 8.75 0 9.3125 0 10C0 10.6875 0.5625 11.25 1.25 11.25H3.75V13.75H2.5C1.8125 13.75 1.25 14.3125 1.25 15C1.25 15.6875 1.8125 16.25 2.5 16.25H3.75V18.75H1.25C0.5625 18.75 0 19.3125 0 20C0 20.6875 0.5625 21.25 1.25 21.25H3.75V25C3.75 25.6875 4.3125 26.25 5 26.25H8.75V28.75C8.75 29.4375 9.3125 30 10 30C10.6875 30 11.25 29.4375 11.25 28.75V26.25H13.75V27.5C13.75 28.1875 14.3125 28.75 15 28.75C15.6875 28.75 16.25 28.1875 16.25 27.5V26.25H18.75V28.75C18.75 29.4375 19.3125 30 20 30C20.6875 30 21.25 29.4375 21.25 28.75V26.25H25C25.6875 26.25 26.25 25.6875 26.25 25V21.25H28.75C29.4375 21.25 30 20.6875 30 20C30 19.3125 29.4375 18.75 28.75 18.75H26.25V16.25H27.5C28.1875 16.25 28.75 15.6875 28.75 15C28.75 14.3125 28.1875 13.75 27.5 13.75H26.25V11.25H28.75ZM23.75 23.75H6.25V6.25H23.75V23.75Z" fill="#98A2F4"/>
<path d="M15.625 13.125H14.375C13.6875 13.125 13.125 13.6875 13.125 14.375V15.625C13.125 16.3125 13.6875 16.875 14.375 16.875H15.625C16.3125 16.875 16.875 16.3125 16.875 15.625V14.375C16.875 13.6875 16.3125 13.125 15.625 13.125Z" fill="#98A2F4"/>
<path d="M20 8.75H16.25C15.5625 8.75 15 9.3125 15 10C15 10.6875 15.5625 11.25 16.25 11.25H18.75V13.75C18.75 14.4375 19.3125 15 20 15C20.6875 15 21.25 14.4375 21.25 13.75V10C21.25 9.3125 20.6875 8.75 20 8.75Z" fill="#98A2F4"/>
<path d="M13.75 18.75H11.25V16.25C11.25 15.5625 10.6875 15 10 15C9.3125 15 8.75 15.5625 8.75 16.25V20C8.75 20.6875 9.3125 21.25 10 21.25H13.75C14.4375 21.25 15 20.6875 15 20C15 19.3125 14.4375 18.75 13.75 18.75Z" fill="#98A2F4"/>
<path d="M20 17.5C19.3125 17.5 18.75 18.0625 18.75 18.75V20C18.75 20.6875 19.3125 21.25 20 21.25C20.6875 21.25 21.25 20.6875 21.25 20V18.75C21.25 18.0625 20.6875 17.5 20 17.5Z" fill="#98A2F4"/>
<path d="M10 11.25H11.25C11.9375 11.25 12.5 10.6875 12.5 10C12.5 9.3125 11.9375 8.75 11.25 8.75H10C9.3125 8.75 8.75 9.3125 8.75 10C8.75 10.6875 9.3125 11.25 10 11.25Z" fill="#98A2F4"/>
</svg>
