<svg width="30" height="30" viewBox="0 0 30 30" fill="none" xmlns="http://www.w3.org/2000/svg">
<path d="M25.5341 4.39453C19.6758 -1.46484 10.1933 -1.46484 4.32727 4.39453C-1.53096 10.2539 -1.53096 19.7383 4.32727 25.6055C10.1855 31.4648 19.668 31.4648 25.5341 25.6055C31.4001 19.7383 31.4001 10.2539 25.5341 4.39453ZM14.9346 27.5273C8.02186 27.5273 2.40577 21.9023 2.40577 14.9961C2.40577 8.08984 8.02186 2.46484 14.9346 2.46484C21.8473 2.46484 27.4634 8.08984 27.4634 14.9961C27.4634 21.9023 21.8473 27.5273 14.9346 27.5273Z" fill="#2F58FF"/>
<path d="M15.8007 12.1133C16.2069 11.707 16.285 11.0508 15.957 10.5586C15.8632 10.4102 15.9335 10.5039 13.9261 8.49609C13.4418 8.01172 12.6685 8.01172 12.1843 8.49609C11.7703 8.91016 11.7156 9.53516 12.0046 10.0117H10.5518C7.8023 10.0117 5.56836 12.2461 5.56836 14.9961C5.56836 17.7461 7.8023 19.9805 10.5518 19.9805C11.2313 19.9805 11.7859 19.4258 11.7859 18.7461C11.7859 18.0664 11.2313 17.5117 10.5518 17.5117C9.16141 17.5117 8.02882 16.3789 8.02882 14.9883C8.02882 13.5977 9.16141 12.4648 10.5518 12.4648H12.0046C11.4969 13.2852 12.0905 14.3398 13.0513 14.3398C13.3637 14.3398 13.684 14.2227 13.9183 13.9805L15.8007 12.1133Z" fill="#2F58FF"/>
<path d="M19.3164 10.0117C18.6369 10.0117 18.0823 10.5664 18.0823 11.2461C18.0823 11.9258 18.6369 12.4805 19.3164 12.4805C20.7068 12.4805 21.8394 13.6133 21.8394 15.0039C21.8394 16.3945 20.7068 17.5273 19.3164 17.5273H17.8636C18.1526 17.0508 18.0979 16.4258 17.6839 16.0117C17.1997 15.5273 16.4264 15.5273 15.9421 16.0117L14.0674 17.8867C13.6613 18.293 13.5832 18.9414 13.9112 19.4414C14.005 19.582 13.9112 19.4727 15.9421 21.5039C16.4264 21.9883 17.1997 21.9883 17.6839 21.5039C18.0979 21.0898 18.1526 20.4648 17.8636 19.9883H19.3164C22.0659 19.9883 24.2998 17.7539 24.2998 15.0039C24.2998 12.2539 22.0659 10.0117 19.3164 10.0117Z" fill="#2F58FF"/>
</svg>
