<svg width="144" height="144" viewBox="0 0 144 144" fill="none" xmlns="http://www.w3.org/2000/svg">
<g clip-path="url(#clip0)">
<path d="M71.8998 143.107C95.7033 143.107 115 123.956 115 100.333C115 76.7103 95.7033 57.5601 71.8998 57.5601C48.0963 57.5601 28.7998 76.7103 28.7998 100.333C28.7998 123.956 48.0963 143.107 71.8998 143.107Z" fill="#FFF6EA"/>
<path d="M93.6998 137.152C93.3998 137.053 93.0998 136.854 92.7998 136.656C91.6998 135.862 91.5998 130.403 87.1998 128.915C79.4998 126.334 76.2998 130.403 72.8998 127.128C71.3998 125.64 74.0998 121.869 72.4998 120.082C70.5998 117.899 61.5998 118.197 62.7998 113.135C63.7998 108.669 71.1998 109.86 74.0998 108.173C84.2998 102.219 80.8998 94.5771 88.5998 93.7831C92.9998 93.3862 94.5998 97.0581 98.8998 94.4778C101.5 92.89 98.2998 88.7218 102.6 86.5385C108 83.7597 109.5 89.1188 114 91.3021C114.6 94.1801 115 97.2566 115 100.333C114.9 116.013 106.4 129.709 93.6998 137.152ZM28.7998 100.333C28.7998 107.578 30.5998 114.326 33.7998 120.281C36.4998 118.693 38.7998 116.807 40.5998 113.632C42.1998 110.754 43.4998 107.28 44.8998 106.089C46.1998 104.997 49.7998 104.501 50.4998 102.318C51.7998 97.9513 44.9998 96.6612 45.0998 92.096C45.1998 89.5157 49.0998 87.9279 49.3998 85.3476C49.6998 82.8665 46.5998 81.2787 45.9998 79.1946C44.9998 75.7211 45.4998 70.0643 41.8998 69.7666C33.7998 77.5075 28.7998 88.3248 28.7998 100.333Z" fill="#FFD394"/>
<path d="M71.8998 143.107C95.7033 143.107 115 123.956 115 100.333C115 76.7103 95.7033 57.5601 71.8998 57.5601C48.0963 57.5601 28.7998 76.7103 28.7998 100.333C28.7998 123.956 48.0963 143.107 71.8998 143.107Z" stroke="#171A21" stroke-width="2" stroke-miterlimit="10" stroke-linecap="round" stroke-linejoin="round"/>
<path d="M28.3999 102.219C12.1999 114.823 3.39989 126.732 6.79989 133.381C12.1999 143.702 45.4999 137.152 81.0999 118.693C116.7 100.234 141.2 77.0115 135.8 66.6903C132.4 60.1403 117.7 60.4381 98.3999 66.1941" stroke="#171A21" stroke-width="2" stroke-miterlimit="10" stroke-linecap="round" stroke-linejoin="round"/>
<path d="M62.4001 37.4141C59.6001 39.0019 57.9001 41.9792 57.9001 45.1549L57.8001 99.2418C57.8001 99.5395 57.8001 99.8372 57.7001 100.135C57.6001 100.433 57.6001 100.631 57.5001 100.929C57.4001 101.127 57.3001 101.227 57.2001 101.425L57.1001 101.524C57.0001 101.624 56.8001 101.822 56.6001 101.921L77.7001 89.7145C77.9001 89.6153 78.0001 89.5161 78.2001 89.3176L78.3001 89.2183C78.4001 89.1191 78.4001 89.1191 78.5001 89.0198C78.6001 88.9206 78.6001 88.8214 78.7001 88.7221C78.7001 88.6229 78.8001 88.6229 78.8001 88.5236C78.8001 88.4244 78.9001 88.4244 78.9001 88.3251C78.9001 88.2259 78.9001 88.2259 79.0001 88.1267V88.0274V87.9282C79.0001 87.8289 79.0001 87.8289 79.0001 87.7297C79.0001 87.6305 79.0001 87.6305 79.0001 87.5312C79.0001 87.432 79.0001 87.432 79.0001 87.3327C79.0001 87.2335 79.0001 87.2335 79.0001 87.1343L79.1001 27.7876L62.4001 37.4141Z" fill="#FFD394"/>
<path d="M79.1002 27.6881C79.1002 27.5889 79.1002 27.5889 79.1002 27.4897C79.1002 27.3904 79.1002 27.3904 79.1002 27.2912C79.1002 27.1919 79.1002 27.1919 79.1002 27.0927C79.1002 26.9934 79.1002 26.9934 79.1002 26.8942C79.1002 26.795 79.1002 26.795 79.1002 26.6957C79.1002 26.5965 79.1002 26.5965 79.1002 26.4972C79.1002 26.398 79.1002 26.398 79.0002 26.2988C79.0002 26.1995 79.0002 26.1003 78.9002 26.1003C78.9002 26.001 78.9002 26.001 78.8002 25.9018C78.8002 25.8025 78.8002 25.8025 78.7002 25.7033C78.7002 25.6041 78.7002 25.6041 78.6002 25.5048C78.6002 25.4056 78.5002 25.4056 78.5002 25.3063C78.5002 25.2071 78.4002 25.2071 78.4002 25.1078C78.4002 25.0086 78.4002 25.0086 78.3002 24.9094C78.3002 24.8101 78.2002 24.8101 78.2002 24.7109C78.2002 24.6116 78.1002 24.6116 78.1002 24.5124C78.1002 24.4132 78.0002 24.3139 78.0002 24.2147C78.0002 24.1154 77.9002 24.0162 77.8002 23.9169C77.8002 23.9169 77.8002 23.9169 77.8002 23.8177C77.7002 23.6192 77.6002 23.52 77.5002 23.3215C77.4002 23.2223 77.3002 23.0238 77.2002 22.9245C77.1002 22.8253 77.1002 22.726 77.0002 22.726C76.9002 22.6268 76.9002 22.6268 76.8002 22.5276C76.7002 22.4283 76.7002 22.4283 76.6002 22.3291C76.5002 22.2298 76.5002 22.2298 76.4002 22.1306L76.3002 22.0313C76.2002 21.9321 76.2002 21.9321 76.1002 21.8329C76.0002 21.7336 76.0002 21.7336 75.9002 21.6344C75.8002 21.5351 75.8002 21.5351 75.7002 21.4359L75.6002 21.3367C75.6002 21.3367 75.6002 21.3367 75.5002 21.2374C75.4002 21.2374 75.4002 21.1382 75.3002 21.1382C75.2002 21.1382 75.2002 21.0389 75.1002 21.0389C75.0002 21.0389 75.0002 20.9397 74.9002 20.9397C74.8002 20.9397 74.8002 20.8404 74.7002 20.8404L41.8002 1.58752L41.7002 1.48828C41.6002 1.48828 41.6002 1.38903 41.5002 1.38903C41.5002 1.38903 41.4002 1.38903 41.4002 1.28979C41.3002 1.28979 41.3002 1.28979 41.2002 1.19055C41.1002 1.19055 41.1002 1.19055 41.0002 1.09131H40.9002C40.8002 1.09131 40.8002 1.09131 40.7002 1.09131H40.6002C40.6002 1.09131 40.6002 1.09131 40.5002 1.09131C40.4002 1.09131 40.4002 1.09131 40.3002 1.09131H40.2002C40.1002 1.09131 40.1002 1.09131 40.0002 1.09131H39.9002C39.9002 1.09131 39.9002 1.09131 39.8002 1.09131C39.8002 1.09131 39.8002 1.09131 39.7002 1.09131C39.6002 1.09131 39.5002 1.09131 39.5002 1.09131C39.4002 1.09131 39.3002 1.09131 39.3002 1.19055C39.2002 1.19055 39.1002 1.28979 39.0002 1.38903L17.6002 13.4965C16.8002 13.8935 16.4002 14.8859 16.4002 16.1761L16.2002 75.3243C16.2002 78.103 18.2002 81.378 20.4002 82.6682C21.1002 83.0651 21.8002 83.2636 22.4002 83.2636L35.0002 82.6682C35.6002 82.6682 36.3002 82.8666 37.0002 83.2636C37.7002 83.6606 38.4002 84.256 39.0002 85.05L51.5002 99.9362C52.2002 100.73 52.9002 101.326 53.5002 101.723C55.7002 103.013 57.8002 102.12 57.8002 99.3408L58.0002 39.9941L79.1002 27.7874V27.6881Z" fill="white"/>
<path d="M79.1002 27.7874C79.1002 27.6881 79.1002 27.6881 79.1002 27.5889C79.1002 27.4897 79.1002 27.4897 79.1002 27.3904C79.1002 27.2912 79.1002 27.2912 79.1002 27.1919C79.1002 27.0927 79.1002 27.0927 79.1002 26.9934C79.1002 26.8942 79.1002 26.8942 79.1002 26.795C79.1002 26.6957 79.1002 26.6957 79.1002 26.5965C79.1002 26.4972 79.1002 26.4972 79.1002 26.398C79.1002 26.2988 79.1002 26.2988 79.0002 26.1995C79.0002 26.1003 79.0002 26.001 78.9002 26.001C78.9002 25.9018 78.9002 25.9018 78.8002 25.8025C78.8002 25.7033 78.8002 25.7033 78.7002 25.6041C78.7002 25.5048 78.7002 25.5048 78.6002 25.4056C78.6002 25.3063 78.5002 25.3063 78.5002 25.2071C78.5002 25.1078 78.4002 25.1078 78.4002 25.0086C78.4002 24.9094 78.4002 24.9094 78.3002 24.8101C78.3002 24.7109 78.2002 24.7109 78.2002 24.6116C78.2002 24.5124 78.1002 24.5124 78.1002 24.4132C78.1002 24.3139 78.0002 24.2147 78.0002 24.1154C78.0002 24.0162 77.9002 23.9169 77.8002 23.8177C77.8002 23.8177 77.8002 23.8177 77.8002 23.7185C77.7002 23.52 77.6002 23.4207 77.5002 23.2223C77.4002 23.123 77.3002 22.9245 77.2002 22.8253C77.1002 22.726 77.1002 22.6268 77.0002 22.6268C76.9002 22.5276 76.9002 22.5276 76.8002 22.4283C76.7002 22.3291 76.7002 22.3291 76.6002 22.2298C76.5002 22.1306 76.5002 22.1306 76.4002 22.0313L76.3002 21.9321C76.2002 21.8329 76.2002 21.8329 76.1002 21.7336C76.0002 21.6344 76.0002 21.6344 75.9002 21.5351C75.8002 21.4359 75.8002 21.4359 75.7002 21.3367L75.6002 21.2374C75.6002 21.2374 75.6002 21.2374 75.5002 21.1382C75.4002 21.1382 75.4002 21.0389 75.3002 21.0389C75.2002 21.0389 75.2002 20.9397 75.1002 20.9397C75.0002 20.9397 75.0002 20.8404 74.9002 20.8404C74.8002 20.8404 74.8002 20.7412 74.7002 20.7412L41.8002 1.58752L41.7002 1.48828C41.6002 1.48828 41.6002 1.38903 41.5002 1.38903C41.5002 1.38903 41.4002 1.38903 41.4002 1.28979C41.3002 1.28979 41.3002 1.28979 41.2002 1.19055C41.1002 1.19055 41.1002 1.19055 41.0002 1.09131H40.9002C40.8002 1.09131 40.8002 1.09131 40.7002 1.09131H40.6002C40.6002 1.09131 40.6002 1.09131 40.5002 1.09131C40.4002 1.09131 40.4002 1.09131 40.3002 1.09131H40.2002C40.1002 1.09131 40.1002 1.09131 40.0002 1.09131H39.9002C39.9002 1.09131 39.9002 1.09131 39.8002 1.09131C39.8002 1.09131 39.8002 1.09131 39.7002 1.09131C39.6002 1.09131 39.5002 1.09131 39.5002 1.09131C39.4002 1.09131 39.3002 1.09131 39.3002 1.19055C39.2002 1.19055 39.1002 1.28979 39.0002 1.38903L17.6002 13.4965C16.8002 13.8935 16.4002 14.8859 16.4002 16.1761L16.2002 75.3243C16.2002 78.103 18.2002 81.378 20.4002 82.6682C21.1002 83.0651 21.8002 83.2636 22.4002 83.2636L35.0002 82.6682C35.6002 82.6682 36.3002 82.8666 37.0002 83.2636C37.7002 83.6606 38.4002 84.256 39.0002 85.05L51.5002 99.9362C52.2002 100.73 52.9002 101.326 53.5002 101.723C55.7002 103.013 57.8002 102.12 57.8002 99.3408" stroke="#171A21" stroke-width="2" stroke-miterlimit="10" stroke-linecap="round" stroke-linejoin="round"/>
<path d="M45.4003 48.1321C44.9003 47.8343 44.4003 47.8343 44.1003 48.0328L25.2003 58.6517C24.5003 59.0487 24.5003 60.438 25.2003 61.7282C25.6003 62.3236 26.0003 62.8199 26.5003 63.1176C27.0003 63.4153 27.5003 63.4153 27.8003 63.2168L46.7003 52.5979C47.4003 52.201 47.4003 50.8116 46.7003 49.5214C46.3003 48.8267 45.9003 48.3305 45.4003 48.1321ZM41.6003 65.2017C39.5003 64.0108 37.8003 65.0032 37.8003 67.385C37.8003 69.7668 39.5003 72.6448 41.6003 73.8357C43.7003 75.0266 45.4003 74.0342 45.4003 71.6524C45.3003 69.2706 43.6003 66.3926 41.6003 65.2017ZM30.3003 37.3147C28.2003 36.1238 26.5003 37.1162 26.5003 39.498C26.5003 41.8798 28.2003 44.7578 30.2003 45.9487C32.3003 47.1396 34.0003 46.1472 34.0003 43.7654C34.0003 41.3836 32.4003 38.5056 30.3003 37.3147Z" fill="#FFD394"/>
</g>
<defs>
<clipPath id="clip0">
<rect width="144" height="144" fill="white"/>
</clipPath>
</defs>
</svg>
