<svg width="144" height="144" viewBox="0 0 144 144" fill="none" xmlns="http://www.w3.org/2000/svg">
<path d="M43.8 28.8002L65.6 16.2002C66.2 15.9002 66.9 16.3002 66.9 16.9002L67 38.9002C67 40.1002 66.4 41.2002 65.3 41.8002L43.9 54.2002C42.9 54.8002 41.6 54.8002 40.5 54.2002L19.3 41.9002C18.3 41.3002 17.6 40.2002 17.6 39.0002L17.5 17.0002C17.5 16.3002 18.2 15.9002 18.8 16.3002L40.4 28.9002C41.5 29.4002 42.7 29.4002 43.8 28.8002Z" fill="#FFD394"/>
<path d="M18.8001 16.2L40.4001 28.8C41.4001 29.4 42.7001 29.4 43.8001 28.8L65.6001 16.2C66.2001 15.9 66.2001 15.1 65.6001 14.7L44.0001 2.2C43.0001 1.6 41.7001 1.6 40.6001 2.2L18.8001 14.8C18.2001 15.1 18.2001 15.9 18.8001 16.2Z" fill="#FFF6EA"/>
<path d="M17.5 17.4C17.5 16.2 18.1 15.1 19.2 14.5L40.6 2.2C41.6 1.6 42.9 1.6 44 2.2L65.2 14.5C66.2 15.1 66.9 16.2 66.9 17.4" stroke="#171A21" stroke-width="2" stroke-miterlimit="10" stroke-linecap="round" stroke-linejoin="round"/>
<path d="M54.2998 36.1001L79.4998 51.0001" stroke="#171A21" stroke-width="2" stroke-miterlimit="10" stroke-linecap="round" stroke-linejoin="round"/>
<path d="M94.3999 73.2001L125 55.5001C125.8 55.0001 126.8 55.6001 126.8 56.5001L126.9 87.5001C126.9 89.2001 126 90.8001 124.5 91.6001L94.4999 108.9C92.9999 109.8 91.1999 109.7 89.6999 108.9L59.8999 91.7001C58.3999 90.9001 57.4999 89.3001 57.4999 87.6001L57.3999 56.6001C57.3999 55.7001 58.3999 55.1001 59.1999 55.6001L89.5999 73.3001C91.0999 74.1001 92.8999 74.1001 94.3999 73.2001Z" fill="#FFD394"/>
<path d="M59.2001 55.5L89.6001 73.2C91.1001 74.1 92.9001 74.1 94.4001 73.2L125 55.5C125.8 55 125.8 53.9 125 53.4L94.6001 35.8C93.1001 34.9 91.3001 34.9 89.8001 35.8L59.2001 53.5C58.4001 53.9 58.4001 55.1 59.2001 55.5Z" fill="#FFF6EA"/>
<path d="M57.5 57.2998C57.5 55.5998 58.4 53.9998 59.9 53.1998L89.9 35.8998C91.4 34.9998 93.2 35.0998 94.7 35.8998L124.5 53.1998C126 53.9998 126.9 55.5998 126.9 57.2998" stroke="#171A21" stroke-width="2" stroke-miterlimit="10" stroke-linecap="round" stroke-linejoin="round"/>
<path d="M112.4 46.1998L104 41.2998L69.1997 61.3998L77.5997 66.2998L112.4 46.1998Z" fill="white" stroke="#171A21" stroke-width="2" stroke-miterlimit="10" stroke-linecap="round" stroke-linejoin="round"/>
<path d="M73.2 83.3999L48 98.2999" stroke="#171A21" stroke-width="2" stroke-miterlimit="10" stroke-linecap="round" stroke-linejoin="round"/>
<path d="M43.8 118.1L65.6 105.5C66.2 105.2 66.9 105.6 66.9 106.2L67 128.2C67 129.4 66.4 130.5 65.3 131.1L43.9 143.4C42.9 144 41.6 144 40.5 143.4L19.3 131.1C18.3 130.5 17.6 129.4 17.6 128.2L17.5 106.2C17.5 105.5 18.2 105.1 18.8 105.5L40.4 118.1C41.5 118.7 42.7 118.7 43.8 118.1Z" fill="#FFD394"/>
<path d="M18.8001 105.5L40.4001 118.1C41.4001 118.7 42.7001 118.7 43.8001 118.1L65.6001 105.5C66.2001 105.2 66.2001 104.4 65.6001 104L44.0001 91.4998C43.0001 90.8998 41.7001 90.8998 40.6001 91.4998L18.8001 104.1C18.2001 104.4 18.2001 105.2 18.8001 105.5Z" fill="#FFF6EA"/>
<path d="M17.5 106.8C17.5 105.6 18.1 104.5 19.2 103.9L40.6 91.5999C41.6 90.9999 42.9 90.9999 44 91.5999L65.2 103.9C66.2 104.5 66.9 105.6 66.9 106.8" stroke="#171A21" stroke-width="2" stroke-miterlimit="10" stroke-linecap="round" stroke-linejoin="round"/>
</svg>
