<svg width="144" height="144" viewBox="0 0 144 144" fill="none" xmlns="http://www.w3.org/2000/svg">
<path d="M88.1 102.1C87.1 98.0001 89.4 93.6001 94.8 90.4001C104.1 84.9001 119.3 84.7001 128.6 90.0001C134.1 93.1001 136.4 97.4001 135.5 101.5L134.4 108.8L118.3 118.3L104.1 119.3L93.4 111.7L88.7 106.5L88.1 102.1Z" fill="#FFF6EA"/>
<path d="M87.8998 100.8C87.8998 100.9 87.8998 101 87.8998 101.2C87.8998 101.3 87.8998 101.4 87.8998 101.5C87.8998 101.6 87.8998 101.7 87.9998 101.9C87.9998 102 87.9998 102.1 88.0998 102.2C88.0998 102.3 88.1998 102.4 88.1998 102.5C88.1998 102.6 88.2998 102.7 88.2998 102.8C88.2998 102.9 88.3998 103 88.3998 103.1C88.3998 103.2 88.4998 103.3 88.4998 103.4C88.4998 103.5 88.5998 103.6 88.6998 103.8C88.6998 103.9 88.7998 104 88.7998 104.1C88.8998 104.2 88.8998 104.3 88.9998 104.5C89.0998 104.6 89.0998 104.8 89.1998 104.9C89.1998 104.9 89.1998 105 89.2998 105C89.3998 105.2 89.4998 105.4 89.6998 105.5C89.6998 105.5 89.6998 105.6 89.7998 105.6C89.8998 105.8 90.0998 106 90.1998 106.1L90.2998 106.2C90.3998 106.4 90.5998 106.5 90.6998 106.7L90.7998 106.8C90.9998 107 91.0998 107.1 91.2998 107.3L91.3998 107.4C91.4998 107.5 91.6998 107.7 91.7998 107.8C91.8998 107.9 91.9998 108 92.0998 108.1C92.1998 108.2 92.2998 108.3 92.3998 108.4C92.4998 108.5 92.5998 108.6 92.7998 108.7C92.8998 108.8 92.9998 108.9 93.1998 109C93.2998 109.1 93.4998 109.2 93.5998 109.3C93.6998 109.4 93.8998 109.5 93.9998 109.6C94.0998 109.7 94.2998 109.8 94.3998 109.9C94.5998 110 94.7998 110.1 94.9998 110.2C95.3998 110.4 95.6998 110.6 96.0998 110.8C96.1998 110.9 96.2998 110.9 96.3998 111C96.6998 111.1 96.9998 111.3 97.2998 111.4C97.3998 111.4 97.4998 111.5 97.5998 111.5C97.9998 111.7 98.3998 111.8 98.7998 112C98.8998 112 98.8998 112 98.9998 112.1C99.2998 112.2 99.6998 112.3 99.9998 112.5C100.1 112.5 100.3 112.6 100.4 112.6C100.6 112.7 100.8 112.7 101 112.8C101.2 112.8 101.3 112.9 101.5 112.9C101.7 113 101.9 113 102.1 113.1C102.3 113.1 102.4 113.2 102.6 113.2C102.8 113.2 103 113.3 103.2 113.3C103.4 113.3 103.5 113.4 103.7 113.4C103.9 113.4 104.1 113.5 104.3 113.5C104.5 113.5 104.6 113.6 104.8 113.6C105.2 113.7 105.7 113.7 106.2 113.8C106.3 113.8 106.3 113.8 106.4 113.8C106.8 113.8 107.2 113.9 107.6 113.9C107.8 113.9 107.9 113.9 108.1 113.9C108.4 113.9 108.6 113.9 108.9 114C109.1 114 109.2 114 109.4 114C109.7 114 109.9 114 110.2 114C110.4 114 110.5 114 110.7 114C110.9 114 111.2 114 111.4 114C111.6 114 111.7 114 111.9 114C112.1 114 112.4 114 112.6 114C112.7 114 112.9 114 113 114C113.2 114 113.5 114 113.7 114C113.9 114 114 114 114.2 114C114.4 114 114.7 114 114.9 113.9C115 113.9 115.2 113.9 115.3 113.9C115.6 113.9 115.9 113.8 116.2 113.8C116.3 113.8 116.4 113.8 116.5 113.8C116.9 113.8 117.3 113.7 117.6 113.6C117.7 113.6 117.7 113.6 117.8 113.6C118.1 113.5 118.5 113.5 118.8 113.4C118.9 113.4 119.1 113.3 119.2 113.3C119.4 113.3 119.7 113.2 119.9 113.2C120 113.2 120.2 113.1 120.3 113.1C120.6 113 120.8 113 121.1 112.9C121.2 112.9 121.4 112.8 121.5 112.8C121.7 112.7 122 112.7 122.2 112.6C122.3 112.6 122.5 112.5 122.6 112.5C123 112.4 123.4 112.3 123.7 112.1C123.8 112.1 123.8 112.1 123.9 112C124.3 111.8 124.7 111.7 125.2 111.5C125.4 111.4 125.5 111.4 125.7 111.3C125.8 111.2 126 111.2 126.1 111.1C126.3 111 126.5 110.9 126.7 110.8C126.8 110.7 126.9 110.7 127.1 110.6C127.3 110.5 127.5 110.4 127.7 110.3C127.8 110.2 127.9 110.2 128 110.1C128.3 109.9 128.6 109.8 128.9 109.6C133.6 106.8 135.9 103.2 135.9 99.6001L136.1 113.8C136.2 117.4 133.8 121 129.1 123.8C128.8 124 128.5 124.1 128.2 124.3C128.1 124.4 128 124.4 127.9 124.5C127.7 124.6 127.5 124.7 127.3 124.8C127.2 124.9 127.1 124.9 126.9 125C126.7 125.1 126.5 125.2 126.3 125.3C126.2 125.4 126 125.4 125.9 125.5C125.8 125.6 125.6 125.6 125.5 125.7H125.4C125 125.9 124.6 126 124.1 126.2C124 126.2 124 126.2 123.9 126.3C123.5 126.4 123.2 126.5 122.8 126.7C122.7 126.7 122.7 126.7 122.6 126.8C122.5 126.8 122.5 126.8 122.4 126.9C122.2 127 121.9 127 121.7 127.1C121.6 127.1 121.4 127.2 121.3 127.2C121 127.3 120.8 127.3 120.5 127.4C120.4 127.4 120.3 127.4 120.2 127.5H120.1C119.9 127.6 119.6 127.6 119.4 127.6C119.3 127.6 119.1 127.7 119 127.7C118.7 127.8 118.4 127.8 118 127.9C117.9 127.9 117.9 127.9 117.8 127.9C117.4 128 117 128 116.7 128.1C116.6 128.1 116.5 128.1 116.4 128.1C116.1 128.1 115.8 128.2 115.5 128.2C115.4 128.2 115.2 128.2 115.1 128.2C114.9 128.2 114.6 128.2 114.4 128.3C114.2 128.3 114.1 128.3 113.9 128.3C113.7 128.3 113.4 128.3 113.2 128.3C113.2 128.3 113.2 128.3 113.1 128.3C113 128.3 112.8 128.3 112.7 128.3C112.5 128.3 112.2 128.3 112 128.3C111.8 128.3 111.7 128.3 111.5 128.3C111.3 128.3 111 128.3 110.8 128.3H110.7C110.6 128.3 110.5 128.3 110.4 128.3C110.1 128.3 109.9 128.3 109.6 128.3C109.4 128.3 109.3 128.3 109.1 128.3C108.8 128.3 108.6 128.3 108.3 128.2C108.2 128.2 108.1 128.2 108 128.2C107.9 128.2 107.9 128.2 107.8 128.2C107.4 128.2 107 128.1 106.6 128.1C106.5 128.1 106.5 128.1 106.4 128.1C105.9 128 105.5 128 105 127.9H104.9C104.8 127.9 104.7 127.9 104.5 127.8C104.3 127.8 104.1 127.7 103.9 127.7C103.7 127.7 103.6 127.6 103.4 127.6C103.2 127.6 103 127.5 102.8 127.5C102.6 127.5 102.5 127.4 102.3 127.4C102.1 127.4 101.9 127.3 101.7 127.2C101.5 127.2 101.4 127.1 101.2 127.1C101 127 100.8 127 100.6 126.9C100.5 126.9 100.4 126.9 100.3 126.8C100.2 126.8 100.2 126.8 100.1 126.7C99.6998 126.6 99.3998 126.5 99.0998 126.3C98.9998 126.3 98.9998 126.3 98.8998 126.2C98.4998 126.1 98.0998 125.9 97.6998 125.7C97.5998 125.7 97.4998 125.6 97.3998 125.6C97.0998 125.5 96.7998 125.3 96.4998 125.2C96.3998 125.1 96.2998 125.1 96.1998 125C95.7998 124.8 95.4998 124.6 95.0998 124.4C94.9998 124.3 94.8998 124.3 94.7998 124.2C94.6998 124.1 94.5998 124.1 94.4998 124C94.3998 123.9 94.1998 123.8 94.0998 123.7C93.9998 123.6 93.7998 123.5 93.6998 123.4C93.5998 123.3 93.3998 123.2 93.2998 123.1C93.1998 123 93.0998 122.9 92.8998 122.8C92.7998 122.7 92.5998 122.6 92.4998 122.5C92.3998 122.4 92.2998 122.3 92.1998 122.2C92.0998 122.1 91.9998 122 91.8998 121.9L91.7998 121.8C91.6998 121.7 91.5998 121.6 91.4998 121.5L91.3998 121.4C91.1998 121.2 91.0998 121.1 90.8998 120.9L90.7998 120.8C90.6998 120.7 90.4998 120.5 90.3998 120.3L90.2998 120.2C90.1998 120 89.9998 119.9 89.8998 119.7C89.8998 119.7 89.8998 119.6 89.7998 119.6C89.6998 119.4 89.5998 119.2 89.3998 119.1C89.3998 119.1 89.3998 119 89.2998 119C89.2998 118.9 89.1998 118.9 89.1998 118.8C89.1998 118.7 89.0998 118.7 89.0998 118.6C88.9998 118.5 88.9998 118.4 88.8998 118.2C88.7998 118.1 88.7998 118 88.7998 117.9C88.6998 117.8 88.6998 117.7 88.5998 117.5C88.5998 117.4 88.5998 117.4 88.4998 117.3C88.4998 117.3 88.4998 117.2 88.3998 117.2C88.3998 117.1 88.2998 117 88.2998 116.9C88.2998 116.8 88.1998 116.7 88.1998 116.6C88.1998 116.5 88.0998 116.4 88.0998 116.3C88.0998 116.2 88.0998 116.2 88.0998 116.1V116C88.0998 115.9 88.0998 115.8 87.9998 115.6C87.9998 115.5 87.9998 115.4 87.9998 115.3C87.9998 115.2 87.9998 115.1 87.9998 114.9C87.9998 114.8 87.9998 114.8 87.9998 114.7C87.9998 114.6 87.9998 114.6 87.9998 114.5L87.7998 100.3C87.8998 100.5 87.8998 100.6 87.8998 100.8Z" fill="#FFD394"/>
<path d="M88.1 84.7998C87.1 80.6998 89.4 76.2998 94.8 73.0998C104.1 67.5998 119.3 67.3998 128.6 72.6998C134.1 75.7998 136.4 80.0998 135.5 84.1998L134.4 91.4998L118.3 101L104.1 102L93.4 94.3998L88.7 89.1998L88.1 84.7998Z" fill="#FFF6EA"/>
<path d="M87.8999 83.3997C87.8999 83.4997 87.8999 83.5997 87.8999 83.7997C87.8999 83.8997 87.8999 83.9997 87.8999 84.0997C87.8999 84.1997 87.8999 84.2997 87.9999 84.4997C87.9999 84.5997 87.9999 84.6997 88.0999 84.7997C88.0999 84.8997 88.1999 84.9997 88.1999 85.0997C88.1999 85.1997 88.2999 85.2997 88.2999 85.3997C88.2999 85.4997 88.3999 85.5997 88.3999 85.6997C88.3999 85.7997 88.4999 85.8997 88.4999 85.9997C88.4999 86.0997 88.5999 86.1997 88.6999 86.3997C88.6999 86.4997 88.7999 86.5997 88.7999 86.6997C88.8999 86.7997 88.8999 86.8997 88.9999 87.0997C89.0999 87.1997 89.0999 87.3997 89.1999 87.4997C89.1999 87.4997 89.1999 87.5997 89.2999 87.5997C89.3999 87.7997 89.4999 87.9997 89.6999 88.0997C89.6999 88.0997 89.6999 88.1997 89.7999 88.1997C89.8999 88.3997 90.0999 88.5997 90.1999 88.6997L90.2999 88.7997C90.3999 88.9997 90.5999 89.0997 90.6999 89.2997L90.7999 89.3997C90.9999 89.5997 91.0999 89.6997 91.2999 89.8997L91.3999 89.9997C91.4999 90.0997 91.6999 90.2997 91.7999 90.3997C91.8999 90.4997 91.9999 90.5997 92.0999 90.6997C92.1999 90.7997 92.2999 90.8997 92.3999 90.9997C92.4999 91.0997 92.5999 91.1997 92.7999 91.2997C92.8999 91.3997 92.9999 91.4997 93.1999 91.5997C93.2999 91.6997 93.4999 91.7997 93.5999 91.8997C93.6999 91.9997 93.8999 92.0997 93.9999 92.1997C94.0999 92.2997 94.2999 92.3997 94.3999 92.4997C94.5999 92.5997 94.7999 92.6997 94.9999 92.7997C95.3999 92.9997 95.6999 93.1997 96.0999 93.3997C96.1999 93.4997 96.2999 93.4997 96.3999 93.5997C96.6999 93.6997 96.9999 93.8997 97.2999 93.9997C97.3999 93.9997 97.4999 94.0997 97.5999 94.0997C97.9999 94.2997 98.3999 94.3997 98.7999 94.5997C98.8999 94.5997 98.8999 94.5997 98.9999 94.6997C99.2999 94.7997 99.6999 94.8997 99.9999 95.0997C100.1 95.0997 100.3 95.1997 100.4 95.1997C100.6 95.2997 100.8 95.2997 101 95.3997C101.2 95.3997 101.3 95.4997 101.5 95.4997C101.7 95.5997 101.9 95.5997 102.1 95.6997C102.3 95.6997 102.4 95.7997 102.6 95.7997C102.8 95.7997 103 95.8997 103.2 95.8997C103.4 95.8997 103.5 95.9997 103.7 95.9997C103.9 95.9997 104.1 96.0997 104.3 96.0997C104.5 96.0997 104.6 96.1997 104.8 96.1997C105.2 96.2997 105.7 96.2997 106.2 96.3997C106.3 96.3997 106.3 96.3997 106.4 96.3997C106.8 96.3997 107.2 96.4997 107.6 96.4997C107.8 96.4997 107.9 96.4997 108.1 96.4997C108.4 96.4997 108.6 96.4997 108.9 96.5997C109.1 96.5997 109.2 96.5997 109.4 96.5997C109.7 96.5997 109.9 96.5997 110.2 96.5997C110.4 96.5997 110.5 96.5997 110.7 96.5997C110.9 96.5997 111.2 96.5997 111.4 96.5997C111.6 96.5997 111.7 96.5997 111.9 96.5997C112.1 96.5997 112.4 96.5997 112.6 96.5997C112.7 96.5997 112.9 96.5997 113 96.5997C113.2 96.5997 113.5 96.5997 113.7 96.5997C113.9 96.5997 114 96.5997 114.2 96.5997C114.4 96.5997 114.7 96.5997 114.9 96.4997C115 96.4997 115.2 96.4997 115.3 96.4997C115.6 96.4997 115.9 96.3997 116.2 96.3997C116.3 96.3997 116.4 96.3997 116.5 96.3997C116.9 96.3997 117.3 96.2997 117.6 96.1997C117.7 96.1997 117.7 96.1997 117.8 96.1997C118.1 96.0997 118.5 96.0997 118.8 95.9997C118.9 95.9997 119.1 95.8997 119.2 95.8997C119.4 95.8997 119.7 95.7997 119.9 95.7997C120 95.7997 120.2 95.6997 120.3 95.6997C120.6 95.5997 120.8 95.5997 121.1 95.4997C121.2 95.4997 121.4 95.3997 121.5 95.3997C121.7 95.2997 122 95.2997 122.2 95.1997C122.3 95.1997 122.5 95.0997 122.6 95.0997C123 94.9997 123.4 94.8997 123.7 94.6997C123.8 94.6997 123.8 94.6997 123.9 94.5997C124.3 94.3997 124.7 94.2997 125.2 94.0997C125.4 93.9997 125.5 93.9997 125.7 93.8997C125.8 93.7997 126 93.7997 126.1 93.6997C126.3 93.5997 126.5 93.4997 126.7 93.3997C126.8 93.2997 126.9 93.2997 127.1 93.1997C127.3 93.0997 127.5 92.9997 127.7 92.8997C127.8 92.7997 127.9 92.7997 128 92.6997C128.3 92.4997 128.6 92.3997 128.9 92.1997C133.6 89.3997 135.9 85.7997 135.9 82.1997L136.1 96.3997C136.2 99.9997 133.8 103.6 129.1 106.4C128.8 106.6 128.5 106.7 128.2 106.9C128.1 107 128 107 127.9 107.1C127.7 107.2 127.5 107.3 127.3 107.4C127.2 107.5 127.1 107.5 126.9 107.6C126.7 107.7 126.5 107.8 126.3 107.9C126.2 108 126 108 125.9 108.1C125.8 108.2 125.6 108.2 125.5 108.3H125.4C125 108.5 124.6 108.6 124.1 108.8C124 108.8 124 108.8 123.9 108.9C123.5 109 123.2 109.1 122.8 109.3C122.7 109.3 122.7 109.3 122.6 109.4C122.5 109.4 122.5 109.4 122.4 109.5C122.2 109.6 121.9 109.6 121.7 109.7C121.6 109.7 121.4 109.8 121.3 109.8C121 109.9 120.8 109.9 120.5 110C120.4 110 120.3 110 120.2 110.1H120.1C119.9 110.2 119.6 110.2 119.4 110.2C119.3 110.2 119.1 110.3 119 110.3C118.7 110.4 118.4 110.4 118 110.5C117.9 110.5 117.9 110.5 117.8 110.5C117.4 110.6 117 110.6 116.7 110.7C116.6 110.7 116.5 110.7 116.4 110.7C116.1 110.7 115.8 110.8 115.5 110.8C115.4 110.8 115.2 110.8 115.1 110.8C114.9 110.8 114.6 110.8 114.4 110.9C114.2 110.9 114.1 110.9 113.9 110.9C113.7 110.9 113.4 110.9 113.2 110.9C113.2 110.9 113.2 110.9 113.1 110.9C113 110.9 112.8 110.9 112.7 110.9C112.5 110.9 112.2 110.9 112 110.9C111.8 110.9 111.7 110.9 111.5 110.9C111.3 110.9 111 110.9 110.8 110.9H110.7C110.6 110.9 110.5 110.9 110.4 110.9C110.1 110.9 109.9 110.9 109.6 110.9C109.4 110.9 109.3 110.9 109.1 110.9C108.8 110.9 108.6 110.9 108.3 110.8C108.2 110.8 108.1 110.8 108 110.8C107.9 110.8 107.9 110.8 107.8 110.8C107.4 110.8 107 110.7 106.6 110.7C106.5 110.7 106.5 110.7 106.4 110.7C105.9 110.6 105.5 110.6 105 110.5H104.9C104.8 110.5 104.7 110.5 104.5 110.4C104.3 110.4 104.1 110.3 103.9 110.3C103.7 110.3 103.6 110.2 103.4 110.2C103.2 110.2 103 110.1 102.8 110.1C102.6 110.1 102.5 110 102.3 110C102.1 110 101.9 109.9 101.7 109.8C101.5 109.8 101.4 109.7 101.2 109.7C101 109.6 100.8 109.6 100.6 109.5C100.5 109.5 100.4 109.5 100.3 109.4C100.2 109.4 100.2 109.4 100.1 109.3C99.6999 109.2 99.3999 109.1 99.0999 108.9C98.9999 108.9 98.9999 108.9 98.8999 108.8C98.4999 108.7 98.0999 108.5 97.6999 108.3C97.5999 108.3 97.4999 108.2 97.3999 108.2C97.0999 108.1 96.7999 107.9 96.4999 107.8C96.3999 107.7 96.2999 107.7 96.1999 107.6C95.7999 107.4 95.4999 107.2 95.0999 107C94.9999 106.9 94.8999 106.9 94.7999 106.8C94.6999 106.7 94.5999 106.7 94.4999 106.6C94.3999 106.5 94.1999 106.4 94.0999 106.3C93.9999 106.2 93.7999 106.1 93.6999 106C93.5999 105.9 93.3999 105.8 93.2999 105.7C93.1999 105.6 93.0999 105.5 92.8999 105.4C92.7999 105.3 92.5999 105.2 92.4999 105.1C92.3999 105 92.2999 104.9 92.1999 104.8C92.0999 104.7 91.9999 104.6 91.8999 104.5L91.7999 104.4C91.6999 104.3 91.5999 104.2 91.4999 104.1L91.3999 104C91.1999 103.8 91.0999 103.7 90.8999 103.5L90.7999 103.4C90.6999 103.3 90.4999 103.1 90.3999 102.9L90.2999 102.8C90.1999 102.6 89.9999 102.5 89.8999 102.3C89.8999 102.3 89.8999 102.2 89.7999 102.2C89.6999 102 89.5999 101.8 89.3999 101.7C89.3999 101.7 89.3999 101.6 89.2999 101.6C89.2999 101.5 89.1999 101.5 89.1999 101.4C89.1999 101.3 89.0999 101.3 89.0999 101.2C88.9999 101.1 88.9999 101 88.8999 100.8C88.7999 100.7 88.7999 100.6 88.7999 100.5C88.6999 100.4 88.6999 100.3 88.5999 100.1C88.5999 99.9997 88.5999 99.9997 88.4999 99.8997C88.4999 99.8997 88.4999 99.7997 88.3999 99.7997C88.3999 99.6997 88.2999 99.5997 88.2999 99.4997C88.2999 99.3997 88.1999 99.2997 88.1999 99.1997C88.1999 99.0997 88.0999 98.9997 88.0999 98.8997C88.0999 98.7997 88.0999 98.7997 88.0999 98.6997V98.5997C88.0999 98.4997 88.0999 98.3997 87.9999 98.1997C87.9999 98.0997 87.9999 97.9997 87.9999 97.8997C87.9999 97.7997 87.9999 97.6997 87.9999 97.4997C87.9999 97.3997 87.9999 97.3997 87.9999 97.2997C87.9999 97.1997 87.9999 97.1997 87.9999 97.0997L87.8999 82.9997C87.8999 83.0997 87.8999 83.2997 87.8999 83.3997Z" fill="#FFD394"/>
<path d="M88.1 67.3999C87.1 63.2999 89.4 58.8999 94.8 55.6999C104.1 50.1999 119.3 49.9999 128.6 55.2999C134.1 58.3999 136.4 62.6999 135.5 66.7999L134.4 74.0999L118.3 83.5999L104.1 84.5999L93.4 76.9999L88.7 71.7999L88.1 67.3999Z" fill="#FFF6EA"/>
<path d="M87.8998 66.0999C87.8998 66.1999 87.8998 66.2999 87.8998 66.4999C87.8998 66.5999 87.8998 66.6999 87.8998 66.7999C87.8998 66.8999 87.8998 66.9999 87.9998 67.1999C87.9998 67.2999 87.9998 67.3999 88.0998 67.4999C88.0998 67.5999 88.1998 67.6999 88.1998 67.7999C88.1998 67.8999 88.2998 67.9999 88.2998 68.0999C88.2998 68.1999 88.3998 68.2999 88.3998 68.3999C88.3998 68.4999 88.4998 68.5999 88.4998 68.6999C88.4998 68.7999 88.5998 68.8999 88.6998 69.0999C88.6998 69.1999 88.7998 69.2999 88.7998 69.3999C88.8998 69.4999 88.8998 69.5999 88.9998 69.7999C89.0998 69.8999 89.0998 70.0999 89.1998 70.1999C89.1998 70.1999 89.1998 70.2999 89.2998 70.2999C89.3998 70.4999 89.4998 70.6999 89.6998 70.7999C89.6998 70.7999 89.6998 70.8999 89.7998 70.8999C89.8998 71.0999 90.0998 71.2999 90.1998 71.3999L90.2998 71.4999C90.3998 71.6999 90.5998 71.7999 90.6998 71.9999L90.7998 72.0999C90.9998 72.2999 91.0998 72.3999 91.2998 72.5999L91.3998 72.6999C91.4998 72.7999 91.6998 72.9999 91.7998 73.0999C91.8998 73.1999 91.9998 73.2999 92.0998 73.3999C92.1998 73.4999 92.2998 73.5999 92.3998 73.6999C92.4998 73.7999 92.5998 73.8999 92.7998 73.9999C92.8998 74.0999 92.9998 74.1999 93.1998 74.2999C93.2998 74.3999 93.4998 74.4999 93.5998 74.5999C93.6998 74.6999 93.8998 74.7999 93.9998 74.8999C94.0998 74.9999 94.2998 75.0999 94.3998 75.1999C94.5998 75.2999 94.7998 75.3999 94.9998 75.4999C95.3998 75.6999 95.6998 75.8999 96.0998 76.0999C96.1998 76.1999 96.2998 76.1999 96.3998 76.2999C96.6998 76.3999 96.9998 76.5999 97.2998 76.6999C97.3998 76.6999 97.4998 76.7999 97.5998 76.7999C97.9998 76.9999 98.3998 77.0999 98.7998 77.2999C98.8998 77.2999 98.8998 77.2999 98.9998 77.3999C99.2998 77.4999 99.6998 77.5999 99.9998 77.7999C100.1 77.7999 100.3 77.8999 100.4 77.8999C100.6 77.9999 100.8 77.9999 101 78.0999C101.2 78.0999 101.3 78.1999 101.5 78.1999C101.7 78.2999 101.9 78.2999 102.1 78.3999C102.3 78.3999 102.4 78.4999 102.6 78.4999C102.8 78.4999 103 78.5999 103.2 78.5999C103.4 78.5999 103.5 78.6999 103.7 78.6999C103.9 78.6999 104.1 78.7999 104.3 78.7999C104.5 78.7999 104.6 78.8999 104.8 78.8999C105.2 78.9999 105.7 78.9999 106.2 79.0999C106.3 79.0999 106.3 79.0999 106.4 79.0999C106.8 79.0999 107.2 79.1999 107.6 79.1999C107.8 79.1999 107.9 79.1999 108.1 79.1999C108.4 79.1999 108.6 79.1999 108.9 79.2999C109.1 79.2999 109.2 79.2999 109.4 79.2999C109.7 79.2999 109.9 79.2999 110.2 79.2999C110.4 79.2999 110.5 79.2999 110.7 79.2999C110.9 79.2999 111.2 79.2999 111.4 79.2999C111.6 79.2999 111.7 79.2999 111.9 79.2999C112.1 79.2999 112.4 79.2999 112.6 79.2999C112.7 79.2999 112.9 79.2999 113 79.2999C113.2 79.2999 113.5 79.2999 113.7 79.2999C113.9 79.2999 114 79.2999 114.2 79.2999C114.4 79.2999 114.7 79.2999 114.9 79.1999C115 79.1999 115.2 79.1999 115.3 79.1999C115.6 79.1999 115.9 79.0999 116.2 79.0999C116.3 79.0999 116.4 79.0999 116.5 79.0999C116.9 79.0999 117.3 78.9999 117.6 78.8999C117.7 78.8999 117.7 78.8999 117.8 78.8999C118.1 78.7999 118.5 78.7999 118.8 78.6999C118.9 78.6999 119.1 78.5999 119.2 78.5999C119.4 78.5999 119.7 78.4999 119.9 78.4999C120 78.4999 120.2 78.3999 120.3 78.3999C120.6 78.2999 120.8 78.2999 121.1 78.1999C121.2 78.1999 121.4 78.0999 121.5 78.0999C121.7 77.9999 122 77.9999 122.2 77.8999C122.3 77.8999 122.5 77.7999 122.6 77.7999C123 77.6999 123.4 77.5999 123.7 77.3999C123.8 77.3999 123.8 77.3999 123.9 77.2999C124.3 77.0999 124.7 76.9999 125.2 76.7999C125.4 76.6999 125.5 76.6999 125.7 76.5999C125.8 76.4999 126 76.4999 126.1 76.3999C126.3 76.2999 126.5 76.1999 126.7 76.0999C126.8 75.9999 126.9 75.9999 127.1 75.8999C127.3 75.7999 127.5 75.6999 127.7 75.5999C127.8 75.4999 127.9 75.4999 128 75.3999C128.3 75.1999 128.6 75.0999 128.9 74.8999C133.6 72.0999 135.9 68.4999 135.9 64.8999L136.1 79.0999C136.2 82.6999 133.8 86.2999 129.1 89.0999C128.8 89.2999 128.5 89.3999 128.2 89.5999C128.1 89.6999 128 89.6999 127.9 89.7999C127.7 89.8999 127.5 89.9999 127.3 90.0999C127.2 90.1999 127.1 90.1999 126.9 90.2999C126.7 90.3999 126.5 90.4999 126.3 90.5999C126.2 90.6999 126 90.6999 125.9 90.7999C125.8 90.8999 125.6 90.8999 125.5 90.9999H125.4C125 91.1999 124.6 91.2999 124.1 91.4999C124 91.4999 124 91.4999 123.9 91.5999C123.5 91.6999 123.2 91.7999 122.8 91.9999C122.7 91.9999 122.7 91.9999 122.6 92.0999C122.5 92.0999 122.5 92.0999 122.4 92.1999C122.2 92.2999 121.9 92.2999 121.7 92.3999C121.6 92.3999 121.4 92.4999 121.3 92.4999C121 92.5999 120.8 92.5999 120.5 92.6999C120.4 92.6999 120.3 92.6999 120.2 92.7999H120.1C119.9 92.8999 119.6 92.8999 119.4 92.8999C119.3 92.8999 119.1 92.9999 119 92.9999C118.7 93.0999 118.4 93.0999 118 93.1999C117.9 93.1999 117.9 93.1999 117.8 93.1999C117.4 93.2999 117 93.2999 116.7 93.3999C116.6 93.3999 116.5 93.3999 116.4 93.3999C116.1 93.3999 115.8 93.4999 115.5 93.4999C115.4 93.4999 115.2 93.4999 115.1 93.4999C114.9 93.4999 114.6 93.4999 114.4 93.5999C114.2 93.5999 114.1 93.5999 113.9 93.5999C113.7 93.5999 113.4 93.5999 113.2 93.5999C113.2 93.5999 113.2 93.5999 113.1 93.5999C113 93.5999 112.8 93.5999 112.7 93.5999C112.5 93.5999 112.2 93.5999 112 93.5999C111.8 93.5999 111.7 93.5999 111.5 93.5999C111.3 93.5999 111 93.5999 110.8 93.5999H110.7C110.6 93.5999 110.5 93.5999 110.4 93.5999C110.1 93.5999 109.9 93.5999 109.6 93.5999C109.4 93.5999 109.3 93.5999 109.1 93.5999C108.8 93.5999 108.6 93.5999 108.3 93.4999C108.2 93.4999 108.1 93.4999 108 93.4999C107.9 93.4999 107.9 93.4999 107.8 93.4999C107.4 93.4999 107 93.3999 106.6 93.3999C106.5 93.3999 106.5 93.3999 106.4 93.3999C105.9 93.2999 105.5 93.2999 105 93.1999H104.9C104.8 93.1999 104.7 93.1999 104.5 93.0999C104.3 93.0999 104.1 92.9999 103.9 92.9999C103.7 92.9999 103.6 92.8999 103.4 92.8999C103.2 92.8999 103 92.7999 102.8 92.7999C102.6 92.7999 102.5 92.6999 102.3 92.6999C102.1 92.6999 101.9 92.5999 101.7 92.4999C101.5 92.4999 101.4 92.3999 101.2 92.3999C101 92.2999 100.8 92.2999 100.6 92.1999C100.5 92.1999 100.4 92.1999 100.3 92.0999C100.2 92.0999 100.2 92.0999 100.1 91.9999C99.6998 91.8999 99.3998 91.7999 99.0998 91.5999C98.9998 91.5999 98.9998 91.5999 98.8998 91.4999C98.4998 91.3999 98.0998 91.1999 97.6998 90.9999C97.5998 90.9999 97.4998 90.8999 97.3998 90.8999C97.0998 90.7999 96.7998 90.5999 96.4998 90.4999C96.3998 90.3999 96.2998 90.3999 96.1998 90.2999C95.7998 90.0999 95.4998 89.8999 95.0998 89.6999C94.9998 89.5999 94.8998 89.5999 94.7998 89.4999C94.6998 89.3999 94.5998 89.3999 94.4998 89.2999C94.3998 89.1999 94.1998 89.0999 94.0998 88.9999C93.9998 88.8999 93.7998 88.7999 93.6998 88.6999C93.5998 88.5999 93.3998 88.4999 93.2998 88.3999C93.1998 88.2999 93.0998 88.1999 92.8998 88.0999C92.7998 87.9999 92.5998 87.8999 92.4998 87.7999C92.3998 87.6999 92.2998 87.5999 92.1998 87.4999C92.0998 87.3999 91.9998 87.2999 91.8998 87.1999L91.7998 87.0999C91.6998 86.9999 91.5998 86.8999 91.4998 86.7999L91.3998 86.6999C91.1998 86.4999 91.0998 86.3999 90.8998 86.1999L90.7998 86.0999C90.6998 85.9999 90.4998 85.7999 90.3998 85.5999L90.2998 85.4999C90.1998 85.2999 89.9998 85.1999 89.8998 84.9999C89.8998 84.9999 89.8998 84.8999 89.7998 84.8999C89.6998 84.6999 89.5998 84.4999 89.3998 84.3999C89.3998 84.3999 89.3998 84.2999 89.2998 84.2999C89.2998 84.1999 89.1998 84.1999 89.1998 84.0999C89.1998 83.9999 89.0998 83.9999 89.0998 83.8999C88.9998 83.7999 88.9998 83.6999 88.8998 83.4999C88.7998 83.3999 88.7998 83.2999 88.7998 83.1999C88.6998 83.0999 88.6998 82.9999 88.5998 82.7999C88.5998 82.6999 88.5998 82.6999 88.4998 82.5999C88.4998 82.5999 88.4998 82.4999 88.3998 82.4999C88.3998 82.3999 88.2998 82.2999 88.2998 82.1999C88.2998 82.0999 88.1998 81.9999 88.1998 81.8999C88.1998 81.7999 88.0998 81.6999 88.0998 81.5999C88.0998 81.4999 88.0998 81.4999 88.0998 81.3999V81.2999C88.0998 81.1999 88.0998 81.0999 87.9998 80.8999C87.9998 80.7999 87.9998 80.6999 87.9998 80.5999C87.9998 80.4999 87.9998 80.3999 87.9998 80.1999C87.9998 80.0999 87.9998 80.0999 87.9998 79.9999C87.9998 79.8999 87.9998 79.8999 87.9998 79.7999L87.7998 65.5999C87.8998 65.7999 87.8998 65.8999 87.8998 66.0999Z" fill="#FFD394"/>
<path d="M135.6 66.7999C136.5 62.6999 134.2 58.3999 128.7 55.2999C119.3 49.9999 104.2 50.1999 94.8998 55.6999C89.3998 58.8999 87.1998 63.2999 88.1998 67.3999" stroke="#171A21" stroke-width="2" stroke-miterlimit="10" stroke-linecap="round" stroke-linejoin="round"/>
<path d="M122.199 53.7999C122.199 53.3999 122.099 52.9999 122.099 52.5999C121.999 52.1999 121.999 51.6999 121.899 51.2999C121.799 50.9999 121.799 50.6999 121.699 50.3999C121.599 50.0999 121.599 49.8999 121.499 49.5999C121.399 49.1999 121.299 48.7999 121.199 48.4999C121.099 48.2999 121.099 48.0999 120.999 47.7999C120.899 47.3999 120.699 46.8999 120.599 46.4999C120.499 46.2999 120.499 46.0999 120.399 45.9999C120.199 45.3999 119.899 44.7999 119.699 44.1999C119.699 44.0999 119.599 44.0999 119.599 43.9999C119.399 43.4999 119.099 42.9999 118.899 42.3999C118.799 42.1999 118.699 42.0999 118.699 41.8999C118.499 41.3999 118.199 40.8999 117.899 40.4999C117.799 40.3999 117.799 40.2999 117.699 40.1999C117.399 39.5999 116.999 39.0999 116.699 38.5999C116.599 38.3999 116.499 38.2999 116.399 38.0999C116.099 37.6999 115.899 37.2999 115.599 36.8999C115.499 36.6999 115.299 36.4999 115.199 36.2999C114.999 35.9999 114.699 35.6999 114.499 35.3999C114.299 35.0999 114.099 34.8999 113.899 34.5999C113.699 34.3999 113.499 34.0999 113.299 33.8999C112.999 33.4999 112.599 33.0999 112.199 32.7999C111.999 32.5999 111.699 32.2999 111.499 32.0999C111.299 31.8999 111.099 31.7999 110.999 31.5999C110.699 31.2999 110.399 31.0999 110.099 30.7999C109.899 30.5999 109.699 30.4999 109.599 30.2999C109.299 29.9999 108.899 29.7999 108.599 29.4999C108.399 29.3999 108.299 29.2999 108.099 29.0999C107.599 28.7999 107.099 28.3999 106.599 28.0999C106.099 27.7999 105.599 27.5999 105.099 27.2999C104.999 27.1999 104.799 27.1999 104.699 27.0999C104.199 26.8999 103.799 26.6999 103.299 26.4999H103.199C102.799 26.3999 102.399 26.2999 101.999 26.1999C101.799 26.0999 101.599 26.0999 101.299 26.0999C100.999 25.9999 100.699 25.9999 100.399 25.9999C100.199 25.9999 100.099 25.9999 99.8994 25.9999C99.4994 25.9999 99.1994 25.9999 98.8994 25.9999C98.7994 25.9999 98.6994 25.9999 98.6994 25.9999C98.2994 25.9999 97.8994 26.0999 97.4994 26.0999C97.3994 26.0999 97.2994 26.0999 97.1994 26.1999C96.8994 26.2999 96.5994 26.3999 96.2994 26.4999C96.1994 26.4999 96.0994 26.5999 95.9994 26.5999C95.5994 26.6999 95.2994 26.8999 94.8994 27.0999L107.999 19.4999C107.999 19.4999 108.099 19.4999 108.099 19.3999C108.399 19.2999 108.599 19.0999 108.899 18.9999C108.999 18.9999 108.999 18.9999 109.099 18.8999C109.199 18.8999 109.299 18.7999 109.399 18.7999C109.499 18.7999 109.699 18.6999 109.799 18.6999C109.999 18.6999 110.099 18.5999 110.299 18.5999C110.399 18.5999 110.499 18.5999 110.599 18.4999C110.699 18.4999 110.699 18.4999 110.799 18.4999C111.099 18.3999 111.399 18.3999 111.799 18.3999C111.799 18.3999 111.799 18.3999 111.899 18.3999C111.999 18.3999 112.099 18.3999 112.099 18.3999C112.399 18.3999 112.599 18.3999 112.899 18.3999C112.999 18.3999 113.099 18.3999 113.199 18.3999C113.399 18.3999 113.499 18.3999 113.699 18.3999C113.899 18.3999 113.999 18.3999 114.199 18.3999C114.299 18.3999 114.499 18.4999 114.599 18.4999C114.799 18.4999 114.999 18.5999 115.299 18.5999C115.399 18.5999 115.499 18.5999 115.699 18.6999C115.999 18.7999 116.199 18.8999 116.499 18.9999H116.599C116.899 19.0999 117.299 19.1999 117.599 19.3999C117.699 19.4999 117.899 19.4999 117.999 19.5999C118.099 19.6999 118.299 19.6999 118.399 19.7999C118.899 19.9999 119.399 20.2999 119.899 20.5999C120.399 20.8999 120.899 21.1999 121.399 21.5999C121.599 21.6999 121.699 21.7999 121.899 21.9999C122.199 22.1999 122.599 22.4999 122.899 22.7999C123.099 22.8999 123.299 23.0999 123.399 23.2999C123.699 23.5999 123.999 23.7999 124.299 24.0999C124.499 24.2999 124.699 24.3999 124.799 24.5999C124.899 24.6999 124.999 24.7999 125.099 24.8999C125.199 24.9999 125.299 25.0999 125.399 25.2999C125.799 25.6999 126.099 25.9999 126.499 26.3999C126.599 26.4999 126.699 26.5999 126.799 26.7999C126.899 26.8999 126.999 26.9999 127.099 27.0999C127.299 27.2999 127.499 27.5999 127.699 27.8999C127.799 28.0999 127.999 28.1999 128.099 28.3999C128.199 28.4999 128.299 28.6999 128.399 28.7999C128.599 28.9999 128.699 29.1999 128.799 29.3999C128.899 29.4999 128.999 29.6999 129.099 29.7999C129.299 29.9999 129.399 30.2999 129.599 30.4999C129.699 30.6999 129.799 30.7999 129.899 30.9999C129.899 31.0999 129.999 31.0999 129.999 31.1999C130.299 31.5999 130.599 32.0999 130.799 32.5999C130.799 32.5999 130.799 32.6999 130.899 32.6999C130.999 32.7999 130.999 32.8999 131.099 32.9999C131.299 33.2999 131.499 33.5999 131.599 33.9999C131.699 34.1999 131.799 34.2999 131.799 34.4999C131.899 34.6999 131.999 34.7999 131.999 34.9999C132.099 35.0999 132.099 35.2999 132.199 35.3999C132.399 35.7999 132.599 36.1999 132.699 36.4999C132.699 36.5999 132.799 36.5999 132.799 36.6999C132.799 36.6999 132.799 36.6999 132.799 36.7999C132.999 37.2999 133.199 37.7999 133.399 38.1999C133.399 38.2999 133.499 38.3999 133.499 38.4999C133.599 38.6999 133.599 38.8999 133.699 38.9999C133.799 39.1999 133.899 39.4999 133.999 39.6999C134.099 39.8999 134.099 40.0999 134.199 40.2999C134.299 40.4999 134.299 40.6999 134.399 40.9999C134.399 41.0999 134.499 41.2999 134.499 41.3999C134.599 41.5999 134.599 41.8999 134.699 42.0999C134.799 42.3999 134.799 42.6999 134.899 42.8999C134.899 42.9999 134.899 43.0999 134.999 43.1999C134.999 43.3999 135.099 43.5999 135.099 43.7999C135.199 44.1999 135.299 44.6999 135.299 45.0999C135.299 45.1999 135.299 45.2999 135.399 45.4999C135.399 45.7999 135.499 45.9999 135.499 46.2999C135.499 46.4999 135.499 46.6999 135.599 46.8999C135.599 47.4999 135.699 48.0999 135.699 48.6999C135.699 53.7999 133.899 57.2999 130.999 58.9999L117.899 66.5999C120.799 64.8999 122.599 61.2999 122.599 56.2999C122.599 55.6999 122.599 55.0999 122.499 54.4999C122.299 54.0999 122.199 53.8999 122.199 53.7999Z" fill="#FFD394"/>
<path d="M106.3 28.2999C97.3996 23.1999 90.1996 27.2999 90.0996 37.4999C90.0996 47.6999 97.2996 60.1999 106.1 65.2999C115 70.3999 122.2 66.2999 122.2 56.0999C122.4 45.8999 115.2 33.3999 106.3 28.2999Z" fill="white"/>
<path d="M98.7997 26.1001C93.6997 26.3001 90.1997 30.4001 90.1997 37.5001C90.1997 47.7001 97.3997 60.2001 106.2 65.3001C113.1 69.3001 119.1 67.7001 121.4 61.9001" stroke="#171A21" stroke-width="2" stroke-miterlimit="10" stroke-linecap="round" stroke-linejoin="round"/>
<path d="M48.1 116.1C47.1 112 49.4 107.6 54.8 104.4C64.1 98.9001 79.3 98.7001 88.6 104C94.1 107.1 96.4 111.4 95.5 115.5L94.4 122.8L78.3 132.3L64.1 133.3L53.4 125.7L48.7 120.5L48.1 116.1Z" fill="#FFF6EA"/>
<path d="M47.8998 114.8C47.8998 114.9 47.8998 115 47.8998 115.2C47.8998 115.3 47.8998 115.4 47.8998 115.5C47.8998 115.6 47.8998 115.7 47.9998 115.9C47.9998 116 47.9998 116.1 48.0998 116.2C48.0998 116.3 48.1998 116.4 48.1998 116.5C48.1998 116.6 48.2998 116.7 48.2998 116.8C48.2998 116.9 48.3998 117 48.3998 117.1C48.3998 117.2 48.4998 117.3 48.4998 117.4C48.4998 117.5 48.5998 117.6 48.6998 117.8C48.6998 117.9 48.7998 118 48.7998 118.1C48.8998 118.2 48.8998 118.3 48.9998 118.5C49.0998 118.6 49.0998 118.8 49.1998 118.9C49.1998 118.9 49.1998 119 49.2998 119C49.3998 119.2 49.4998 119.4 49.6998 119.5C49.6998 119.5 49.6998 119.6 49.7998 119.6C49.8998 119.8 50.0998 120 50.1998 120.1L50.2998 120.2C50.3998 120.4 50.5998 120.5 50.6998 120.7L50.7998 120.8C50.9998 121 51.0998 121.1 51.2998 121.3L51.3998 121.4C51.4998 121.5 51.6998 121.7 51.7998 121.8C51.8998 121.9 51.9998 122 52.0998 122.1C52.1998 122.2 52.2998 122.3 52.3998 122.4C52.4998 122.5 52.5998 122.6 52.7998 122.7C52.8998 122.8 52.9998 122.9 53.1998 123C53.2998 123.1 53.4998 123.2 53.5998 123.3C53.6998 123.4 53.8998 123.5 53.9998 123.6C54.0998 123.7 54.2998 123.8 54.3998 123.9C54.5998 124 54.7998 124.1 54.9998 124.2C55.3998 124.4 55.6998 124.6 56.0998 124.8C56.1998 124.9 56.2998 124.9 56.3998 125C56.6998 125.1 56.9998 125.3 57.2998 125.4C57.3998 125.4 57.4998 125.5 57.5998 125.5C57.9998 125.7 58.3998 125.8 58.7998 126C58.8998 126 58.8998 126 58.9998 126.1C59.2998 126.2 59.6998 126.3 59.9998 126.5C60.0998 126.5 60.2998 126.6 60.3998 126.6C60.5998 126.7 60.7998 126.7 60.9998 126.8C61.1998 126.8 61.2998 126.9 61.4998 126.9C61.6998 127 61.8998 127 62.0998 127.1C62.2998 127.1 62.3998 127.2 62.5998 127.2C62.7998 127.2 62.9998 127.3 63.1998 127.3C63.3998 127.3 63.4998 127.4 63.6998 127.4C63.8998 127.4 64.0998 127.5 64.2998 127.5C64.4998 127.5 64.5998 127.6 64.7998 127.6C65.1998 127.7 65.6998 127.7 66.1998 127.8C66.2998 127.8 66.2998 127.8 66.3998 127.8C66.7998 127.8 67.1998 127.9 67.5998 127.9C67.7998 127.9 67.8998 127.9 68.0998 127.9C68.3998 127.9 68.5998 127.9 68.8998 128C69.0998 128 69.1998 128 69.3998 128C69.6998 128 69.8998 128 70.1998 128C70.3998 128 70.4998 128 70.6998 128C70.8998 128 71.1998 128 71.3998 128C71.5998 128 71.6998 128 71.8998 128C72.0998 128 72.3998 128 72.5998 128C72.6998 128 72.8998 128 72.9998 128C73.1998 128 73.4998 128 73.6998 128C73.8998 128 73.9998 128 74.1998 128C74.3998 128 74.6998 128 74.8998 127.9C74.9998 127.9 75.1998 127.9 75.2998 127.9C75.5998 127.9 75.8998 127.8 76.1998 127.8C76.2998 127.8 76.3998 127.8 76.4998 127.8C76.8998 127.8 77.2998 127.7 77.5998 127.6C77.6998 127.6 77.6998 127.6 77.7998 127.6C78.0998 127.5 78.4998 127.5 78.7998 127.4C78.8998 127.4 79.0998 127.3 79.1998 127.3C79.3998 127.3 79.6998 127.2 79.8998 127.2C79.9998 127.2 80.1998 127.1 80.2998 127.1C80.5998 127 80.7998 127 81.0998 126.9C81.1998 126.9 81.3998 126.8 81.4998 126.8C81.6998 126.7 81.9998 126.7 82.1998 126.6C82.2998 126.6 82.4998 126.5 82.5998 126.5C82.9998 126.4 83.3998 126.3 83.6998 126.1C83.7998 126.1 83.7998 126.1 83.8998 126C84.2998 125.8 84.6998 125.7 85.1998 125.5C85.3998 125.4 85.4998 125.4 85.6998 125.3C85.7998 125.2 85.9998 125.2 86.0998 125.1C86.2998 125 86.4998 124.9 86.6998 124.8C86.7998 124.7 86.8998 124.7 87.0998 124.6C87.2998 124.5 87.4998 124.4 87.6998 124.3C87.7998 124.2 87.8998 124.2 87.9998 124.1C88.2998 123.9 88.5998 123.8 88.8998 123.6C93.5998 120.8 95.8998 117.2 95.8998 113.6L96.0998 127.8C96.1998 131.4 93.7998 135 89.0998 137.8C88.7998 138 88.4998 138.1 88.1998 138.3C88.0998 138.4 87.9998 138.4 87.8998 138.5C87.6998 138.6 87.4998 138.7 87.2998 138.8C87.1998 138.9 87.0998 138.9 86.8998 139C86.6998 139.1 86.4998 139.2 86.2998 139.3C86.1998 139.4 85.9998 139.4 85.8998 139.5C85.7998 139.6 85.5998 139.6 85.4998 139.7H85.3998C84.9998 139.9 84.5998 140 84.0998 140.2C83.9998 140.2 83.9998 140.2 83.8998 140.3C83.4998 140.4 83.1998 140.5 82.7998 140.7C82.6998 140.7 82.6998 140.7 82.5998 140.8C82.4998 140.8 82.4998 140.8 82.3998 140.9C82.1998 141 81.8998 141 81.6998 141.1C81.5998 141.1 81.3998 141.2 81.2998 141.2C80.9998 141.3 80.7998 141.3 80.4998 141.4C80.3998 141.4 80.2998 141.4 80.1998 141.5H80.0998C79.8998 141.6 79.5998 141.6 79.3998 141.6C79.2998 141.6 79.0998 141.7 78.9998 141.7C78.6998 141.8 78.3998 141.8 77.9998 141.9C77.8998 141.9 77.8998 141.9 77.7998 141.9C77.3998 142 76.9998 142 76.6998 142.1C76.5998 142.1 76.4998 142.1 76.3998 142.1C76.0998 142.1 75.7998 142.2 75.4998 142.2C75.3998 142.2 75.1998 142.2 75.0998 142.2C74.8998 142.2 74.5998 142.2 74.3998 142.3C74.1998 142.3 74.0998 142.3 73.8998 142.3C73.6998 142.3 73.3998 142.3 73.1998 142.3C73.1998 142.3 73.1998 142.3 73.0998 142.3C72.9998 142.3 72.7998 142.3 72.6998 142.3C72.4998 142.3 72.1998 142.3 71.9998 142.3C71.7998 142.3 71.6998 142.3 71.4998 142.3C71.2998 142.3 70.9998 142.3 70.7998 142.3H70.6998C70.5998 142.3 70.4998 142.3 70.3998 142.3C70.0998 142.3 69.8998 142.3 69.5998 142.3C69.3998 142.3 69.2998 142.3 69.0998 142.3C68.7998 142.3 68.5998 142.3 68.2998 142.2C68.1998 142.2 68.0998 142.2 67.9998 142.2C67.8998 142.2 67.8998 142.2 67.7998 142.2C67.3998 142.2 66.9998 142.1 66.5998 142.1C66.4998 142.1 66.4998 142.1 66.3998 142.1C65.8998 142 65.4998 142 64.9998 141.9H64.8998C64.7998 141.9 64.6998 141.9 64.4998 141.8C64.2998 141.8 64.0998 141.7 63.8998 141.7C63.6998 141.7 63.5998 141.6 63.3998 141.6C63.1998 141.6 62.9998 141.5 62.7998 141.5C62.5998 141.5 62.4998 141.4 62.2998 141.4C62.0998 141.4 61.8998 141.3 61.6998 141.2C61.4998 141.2 61.3998 141.1 61.1998 141.1C60.9998 141 60.7998 141 60.5998 140.9C60.4998 140.9 60.3998 140.9 60.2998 140.8C60.1998 140.8 60.1998 140.8 60.0998 140.7C59.6998 140.6 59.3998 140.5 59.0998 140.3C58.9998 140.3 58.9998 140.3 58.8998 140.2C58.4998 140.1 58.0998 139.9 57.6998 139.7C57.5998 139.7 57.4998 139.6 57.3998 139.6C57.0998 139.5 56.7998 139.3 56.4998 139.2C56.3998 139.1 56.2998 139.1 56.1998 139C55.7998 138.8 55.4998 138.6 55.0998 138.4C54.9998 138.3 54.8998 138.3 54.7998 138.2C54.6998 138.1 54.5998 138.1 54.4998 138C54.3998 137.9 54.1998 137.8 54.0998 137.7C53.9998 137.6 53.7998 137.5 53.6998 137.4C53.5998 137.3 53.3998 137.2 53.2998 137.1C53.1998 137 53.0998 136.9 52.8998 136.8C52.7998 136.7 52.5998 136.6 52.4998 136.5C52.3998 136.4 52.2998 136.3 52.1998 136.2C52.0998 136.1 51.9998 136 51.8998 135.9L51.7998 135.8C51.6998 135.7 51.5998 135.6 51.4998 135.5L51.3998 135.4C51.1998 135.2 51.0998 135.1 50.8998 134.9L50.7998 134.8C50.6998 134.7 50.4998 134.5 50.3998 134.3L50.2998 134.2C50.1998 134 49.9998 133.9 49.8998 133.7C49.8998 133.7 49.8998 133.6 49.7998 133.6C49.6998 133.4 49.5998 133.2 49.3998 133.1C49.3998 133.1 49.3998 133 49.2998 133C49.2998 132.9 49.1998 132.9 49.1998 132.8C49.1998 132.7 49.0998 132.7 49.0998 132.6C48.9998 132.5 48.9998 132.4 48.8998 132.2C48.7998 132.1 48.7998 132 48.7998 131.9C48.6998 131.8 48.6998 131.7 48.5998 131.5C48.5998 131.4 48.5998 131.4 48.4998 131.3C48.4998 131.3 48.4998 131.2 48.3998 131.2C48.3998 131.1 48.2998 131 48.2998 130.9C48.2998 130.8 48.1998 130.7 48.1998 130.6C48.1998 130.5 48.0998 130.4 48.0998 130.3C48.0998 130.2 48.0998 130.2 48.0998 130.1V130C48.0998 129.9 48.0998 129.8 47.9998 129.6C47.9998 129.5 47.9998 129.4 47.9998 129.3C47.9998 129.2 47.9998 129.1 47.9998 128.9C47.9998 128.8 47.9998 128.8 47.9998 128.7C47.9998 128.6 47.9998 128.6 47.9998 128.5L47.7998 114.3C47.8998 114.5 47.8998 114.6 47.8998 114.8Z" fill="#FFD394"/>
<path d="M48.1 98.8003C47.1 94.7003 49.4 90.3003 54.8 87.1003C64.1 81.6003 79.3 81.4003 88.6 86.7003C94.1 89.8003 96.4 94.1003 95.5 98.2003L94.4 105.5L78.4 115L64.2 116L53.5 108.4L48.8 103.2L48.1 98.8003Z" fill="#FFF6EA"/>
<path d="M47.8999 97.4002C47.8999 97.5002 47.8999 97.6002 47.8999 97.8002C47.8999 97.9002 47.8999 98.0002 47.8999 98.1002C47.8999 98.2002 47.8999 98.3002 47.9999 98.5002C47.9999 98.6002 47.9999 98.7002 48.0999 98.8002C48.0999 98.9002 48.1999 99.0002 48.1999 99.1002C48.1999 99.2002 48.2999 99.3002 48.2999 99.4002C48.2999 99.5002 48.3999 99.6002 48.3999 99.7002C48.3999 99.8002 48.4999 99.9002 48.4999 100C48.4999 100.1 48.5999 100.2 48.6999 100.4C48.6999 100.5 48.7999 100.6 48.7999 100.7C48.8999 100.8 48.8999 100.9 48.9999 101.1C49.0999 101.2 49.0999 101.4 49.1999 101.5C49.1999 101.5 49.1999 101.6 49.2999 101.6C49.3999 101.8 49.4999 102 49.6999 102.1C49.6999 102.1 49.6999 102.2 49.7999 102.2C49.8999 102.4 50.0999 102.6 50.1999 102.7L50.2999 102.8C50.3999 103 50.5999 103.1 50.6999 103.3L50.7999 103.4C50.9999 103.6 51.0999 103.7 51.2999 103.9L51.3999 104C51.4999 104.1 51.6999 104.3 51.7999 104.4C51.8999 104.5 51.9999 104.6 52.0999 104.7C52.1999 104.8 52.2999 104.9 52.3999 105C52.4999 105.1 52.5999 105.2 52.7999 105.3C52.8999 105.4 52.9999 105.5 53.1999 105.6C53.2999 105.7 53.4999 105.8 53.5999 105.9C53.6999 106 53.8999 106.1 53.9999 106.2C54.0999 106.3 54.2999 106.4 54.3999 106.5C54.5999 106.6 54.7999 106.7 54.9999 106.8C55.3999 107 55.6999 107.2 56.0999 107.4C56.1999 107.5 56.2999 107.5 56.3999 107.6C56.6999 107.7 56.9999 107.9 57.2999 108C57.3999 108 57.4999 108.1 57.5999 108.1C57.9999 108.3 58.3999 108.4 58.7999 108.6C58.8999 108.6 58.8999 108.6 58.9999 108.7C59.2999 108.8 59.6999 108.9 59.9999 109.1C60.0999 109.1 60.2999 109.2 60.3999 109.2C60.5999 109.3 60.7999 109.3 60.9999 109.4C61.1999 109.4 61.2999 109.5 61.4999 109.5C61.6999 109.6 61.8999 109.6 62.0999 109.7C62.2999 109.7 62.3999 109.8 62.5999 109.8C62.7999 109.8 62.9999 109.9 63.1999 109.9C63.3999 109.9 63.4999 110 63.6999 110C63.8999 110 64.0999 110.1 64.2999 110.1C64.4999 110.1 64.5999 110.2 64.7999 110.2C65.1999 110.3 65.6999 110.3 66.1999 110.4C66.2999 110.4 66.2999 110.4 66.3999 110.4C66.7999 110.4 67.1999 110.5 67.5999 110.5C67.7999 110.5 67.8999 110.5 68.0999 110.5C68.3999 110.5 68.5999 110.5 68.8999 110.6C69.0999 110.6 69.1999 110.6 69.3999 110.6C69.6999 110.6 69.8999 110.6 70.1999 110.6C70.3999 110.6 70.4999 110.6 70.6999 110.6C70.8999 110.6 71.1999 110.6 71.3999 110.6C71.5999 110.6 71.6999 110.6 71.8999 110.6C72.0999 110.6 72.3999 110.6 72.5999 110.6C72.6999 110.6 72.8999 110.6 72.9999 110.6C73.1999 110.6 73.4999 110.6 73.6999 110.6C73.8999 110.6 73.9999 110.6 74.1999 110.6C74.3999 110.6 74.6999 110.6 74.8999 110.5C74.9999 110.5 75.1999 110.5 75.2999 110.5C75.5999 110.5 75.8999 110.4 76.1999 110.4C76.2999 110.4 76.3999 110.4 76.4999 110.4C76.8999 110.4 77.2999 110.3 77.5999 110.2C77.6999 110.2 77.6999 110.2 77.7999 110.2C78.0999 110.1 78.4999 110.1 78.7999 110C78.8999 110 79.0999 109.9 79.1999 109.9C79.3999 109.9 79.6999 109.8 79.8999 109.8C79.9999 109.8 80.1999 109.7 80.2999 109.7C80.5999 109.6 80.7999 109.6 81.0999 109.5C81.1999 109.5 81.3999 109.4 81.4999 109.4C81.6999 109.3 81.9999 109.3 82.1999 109.2C82.2999 109.2 82.4999 109.1 82.5999 109.1C82.9999 109 83.3999 108.9 83.6999 108.7C83.7999 108.7 83.7999 108.7 83.8999 108.6C84.2999 108.4 84.6999 108.3 85.1999 108.1C85.3999 108 85.4999 108 85.6999 107.9C85.7999 107.8 85.9999 107.8 86.0999 107.7C86.2999 107.6 86.4999 107.5 86.6999 107.4C86.7999 107.3 86.8999 107.3 87.0999 107.2C87.2999 107.1 87.4999 107 87.6999 106.9C87.7999 106.8 87.8999 106.8 87.9999 106.7C88.2999 106.5 88.5999 106.4 88.8999 106.2C93.5999 103.4 95.8999 99.8002 95.8999 96.2002L96.0999 110.4C96.1999 114 93.7999 117.6 89.0999 120.4C88.7999 120.6 88.4999 120.7 88.1999 120.9C88.0999 121 87.9999 121 87.8999 121.1C87.6999 121.2 87.4999 121.3 87.2999 121.4C87.1999 121.5 87.0999 121.5 86.8999 121.6C86.6999 121.7 86.4999 121.8 86.2999 121.9C86.1999 122 85.9999 122 85.8999 122.1C85.7999 122.2 85.5999 122.2 85.4999 122.3H85.3999C84.9999 122.5 84.5999 122.6 84.0999 122.8C83.9999 122.8 83.9999 122.8 83.8999 122.9C83.4999 123 83.1999 123.1 82.7999 123.3C82.6999 123.3 82.6999 123.3 82.5999 123.4C82.4999 123.4 82.4999 123.4 82.3999 123.5C82.1999 123.6 81.8999 123.6 81.6999 123.7C81.5999 123.7 81.3999 123.8 81.2999 123.8C80.9999 123.9 80.7999 123.9 80.4999 124C80.3999 124 80.2999 124 80.1999 124.1H80.0999C79.8999 124.2 79.5999 124.2 79.3999 124.2C79.2999 124.2 79.0999 124.3 78.9999 124.3C78.6999 124.4 78.3999 124.4 77.9999 124.5C77.8999 124.5 77.8999 124.5 77.7999 124.5C77.3999 124.6 76.9999 124.6 76.6999 124.7C76.5999 124.7 76.4999 124.7 76.3999 124.7C76.0999 124.7 75.7999 124.8 75.4999 124.8C75.3999 124.8 75.1999 124.8 75.0999 124.8C74.8999 124.8 74.5999 124.8 74.3999 124.9C74.1999 124.9 74.0999 124.9 73.8999 124.9C73.6999 124.9 73.3999 124.9 73.1999 124.9C73.1999 124.9 73.1999 124.9 73.0999 124.9C72.9999 124.9 72.7999 124.9 72.6999 124.9C72.4999 124.9 72.1999 124.9 71.9999 124.9C71.7999 124.9 71.6999 124.9 71.4999 124.9C71.2999 124.9 70.9999 124.9 70.7999 124.9H70.6999C70.5999 124.9 70.4999 124.9 70.3999 124.9C70.0999 124.9 69.8999 124.9 69.5999 124.9C69.3999 124.9 69.2999 124.9 69.0999 124.9C68.7999 124.9 68.5999 124.9 68.2999 124.8C68.1999 124.8 68.0999 124.8 67.9999 124.8C67.8999 124.8 67.8999 124.8 67.7999 124.8C67.3999 124.8 66.9999 124.7 66.5999 124.7C66.4999 124.7 66.4999 124.7 66.3999 124.7C65.8999 124.6 65.4999 124.6 64.9999 124.5H64.8999C64.7999 124.5 64.6999 124.5 64.4999 124.4C64.2999 124.4 64.0999 124.3 63.8999 124.3C63.6999 124.3 63.5999 124.2 63.3999 124.2C63.1999 124.2 62.9999 124.1 62.7999 124.1C62.5999 124.1 62.4999 124 62.2999 124C62.0999 124 61.8999 123.9 61.6999 123.8C61.4999 123.8 61.3999 123.7 61.1999 123.7C60.9999 123.6 60.7999 123.6 60.5999 123.5C60.4999 123.5 60.3999 123.5 60.2999 123.4C60.1999 123.4 60.1999 123.4 60.0999 123.3C59.6999 123.2 59.3999 123.1 59.0999 122.9C58.9999 122.9 58.9999 122.9 58.8999 122.8C58.4999 122.7 58.0999 122.5 57.6999 122.3C57.5999 122.3 57.4999 122.2 57.3999 122.2C57.0999 122.1 56.7999 121.9 56.4999 121.8C56.3999 121.7 56.2999 121.7 56.1999 121.6C55.7999 121.4 55.4999 121.2 55.0999 121C54.9999 120.9 54.8999 120.9 54.7999 120.8C54.6999 120.7 54.5999 120.7 54.4999 120.6C54.3999 120.5 54.1999 120.4 54.0999 120.3C53.9999 120.2 53.7999 120.1 53.6999 120C53.5999 119.9 53.3999 119.8 53.2999 119.7C53.1999 119.6 53.0999 119.5 52.8999 119.4C52.7999 119.3 52.5999 119.2 52.4999 119.1C52.3999 119 52.2999 118.9 52.1999 118.8C52.0999 118.7 51.9999 118.6 51.8999 118.5L51.7999 118.4C51.6999 118.3 51.5999 118.2 51.4999 118.1L51.3999 118C51.1999 117.8 51.0999 117.7 50.8999 117.5L50.7999 117.4C50.6999 117.3 50.4999 117.1 50.3999 116.9L50.2999 116.8C50.1999 116.6 49.9999 116.5 49.8999 116.3C49.8999 116.3 49.8999 116.2 49.7999 116.2C49.6999 116 49.5999 115.8 49.3999 115.7C49.3999 115.7 49.3999 115.6 49.2999 115.6C49.2999 115.5 49.1999 115.5 49.1999 115.4C49.1999 115.3 49.0999 115.3 49.0999 115.2C48.9999 115.1 48.9999 115 48.8999 114.8C48.7999 114.7 48.7999 114.6 48.7999 114.5C48.6999 114.4 48.6999 114.3 48.5999 114.1C48.5999 114 48.5999 114 48.4999 113.9C48.4999 113.9 48.4999 113.8 48.3999 113.8C48.3999 113.7 48.2999 113.6 48.2999 113.5C48.2999 113.4 48.1999 113.3 48.1999 113.2C48.1999 113.1 48.0999 113 48.0999 112.9C48.0999 112.8 48.0999 112.8 48.0999 112.7V112.6C48.0999 112.5 48.0999 112.4 47.9999 112.2C47.9999 112.1 47.9999 112 47.9999 111.9C47.9999 111.8 47.9999 111.7 47.9999 111.5C47.9999 111.4 47.9999 111.4 47.9999 111.3C47.9999 111.2 47.9999 111.2 47.9999 111.1L47.8999 97.0002C47.8999 97.1002 47.8999 97.3002 47.8999 97.4002Z" fill="#FFD394"/>
<path d="M96.0998 98.1002C96.9998 94.0002 94.6998 89.7002 89.1998 86.6002C79.7998 81.3002 64.6998 81.5002 55.3998 87.0002C49.8998 90.2002 47.6998 94.6002 48.6998 98.7002" stroke="#171A21" stroke-width="2" stroke-miterlimit="10" stroke-linecap="round" stroke-linejoin="round"/>
<path d="M7.6001 71.7001C7.4001 71.7001 7.2001 71.8001 7.1001 71.9001L16.7001 66.7001C16.7001 66.7001 16.7001 66.7001 16.8001 66.7001C16.9001 66.6001 17.0001 66.6001 17.2001 66.6001H17.3001H17.4001C17.6001 66.6001 17.8001 66.6001 18.0001 66.6001L22.3001 67.2001C22.5001 67.2001 22.7001 67.2001 22.9001 67.2001H23.0001C23.2001 67.2001 23.4001 67.1001 23.5001 67.0001L13.9001 72.2001C13.9001 72.2001 13.9001 72.2001 13.8001 72.2001C13.7001 72.3001 13.6001 72.3001 13.4001 72.3001H13.3001H13.2001C13.0001 72.3001 12.8001 72.3001 12.6001 72.3001L8.3001 71.7001C8.1001 71.7001 7.9001 71.7001 7.7001 71.7001C7.6001 71.7001 7.6001 71.7001 7.6001 71.7001Z" fill="#FFD394"/>
<path d="M38.0003 79.9999C38.1003 79.7999 38.3003 79.5999 38.3003 79.3999C38.3003 79.2999 38.3003 79.2999 38.4003 79.1999C38.4003 79.0999 38.5003 78.8999 38.5003 78.7999C38.5003 78.6999 38.5003 78.5999 38.5003 78.4999C38.5003 78.3999 38.5003 78.1999 38.5003 78.0999C38.5003 77.9999 38.5003 77.8999 38.4003 77.7999C38.4003 77.6999 38.3003 77.4999 38.3003 77.3999C38.3003 77.3999 38.3003 77.2999 38.2003 77.2999C38.1003 77.0999 38.0003 76.8999 37.9003 76.7999C37.8003 76.5999 37.6003 76.4999 37.5003 76.2999C37.5003 76.2999 37.5003 76.2999 37.4003 76.2999C37.2003 76.1999 37.0003 75.9999 36.8003 75.8999C36.6003 75.7999 36.3003 75.6999 36.1003 75.6999L31.8003 74.9999C31.6003 74.9999 31.4003 74.8999 31.2003 74.7999H31.1003C31.1003 74.7999 31.0003 74.7999 31.0003 74.6999C30.9003 74.6999 30.9003 74.5999 30.8003 74.5999H30.7003C30.6003 74.5999 30.6003 74.4999 30.5003 74.4999C30.5003 74.4999 30.5003 74.4999 30.4003 74.3999C30.3003 74.2999 30.2003 74.1999 30.2003 74.1999C30.2003 74.1999 30.2003 74.1999 30.2003 74.0999C30.2003 74.0999 30.2003 73.9999 30.1003 73.9999L30.0003 73.8999C30.0003 73.7999 29.9003 73.7999 29.9003 73.6999C29.9003 73.6999 29.9003 73.5999 29.8003 73.5999C29.8003 73.5999 29.8003 73.5999 29.8003 73.4999C29.7003 73.3999 29.7003 73.2999 29.7003 73.1999C29.7003 73.1999 29.7003 73.1999 29.7003 73.0999C29.7003 72.9999 29.6003 72.8999 29.6003 72.7999C29.6003 72.6999 29.6003 72.6999 29.6003 72.5999C29.6003 72.3999 29.6003 72.2999 29.6003 72.0999L29.5003 10.2999C29.5003 10.0999 29.5003 9.9999 29.5003 9.7999C29.5003 9.6999 29.5003 9.6999 29.5003 9.5999C29.5003 9.4999 29.4003 9.3999 29.4003 9.2999C29.2003 9.0999 29.1003 8.9999 29.0003 8.8999C29.0003 8.8999 29.0003 8.7999 28.9003 8.7999C28.8003 8.6999 28.8003 8.5999 28.7003 8.4999C28.7003 8.4999 28.7003 8.3999 28.6003 8.3999C28.5003 8.2999 28.4003 8.1999 28.3003 8.0999C28.3003 8.0999 28.3003 8.0999 28.2003 7.9999C28.1003 7.8999 28.0003 7.8999 27.9003 7.7999C27.8003 7.7999 27.8003 7.6999 27.7003 7.6999C27.6003 7.6999 27.6003 7.5999 27.5003 7.5999C27.3003 7.4999 27.1003 7.3999 26.9003 7.3999L17.0003 5.9999C16.8003 5.9999 16.6003 5.9999 16.4003 5.9999H16.3003C16.1003 5.9999 15.9003 6.0999 15.8003 6.1999L25.6003 0.999902C25.6003 0.999902 25.6003 0.999902 25.7003 0.999902C25.8003 0.899902 25.9003 0.899902 26.1003 0.899902H26.2003H26.3003C26.5003 0.899902 26.7003 0.899902 26.9003 0.899902L36.8003 2.2999C37.0003 2.2999 37.2003 2.3999 37.4003 2.4999H37.5003L37.6003 2.5999C37.7003 2.5999 37.7003 2.6999 37.8003 2.6999H37.9003C38.0003 2.6999 38.0003 2.7999 38.1003 2.8999C38.1003 2.8999 38.1003 2.8999 38.2003 2.8999C38.3003 2.9999 38.4003 3.0999 38.4003 3.0999C38.4003 3.0999 38.4003 3.0999 38.4003 3.1999C38.4003 3.1999 38.4003 3.2999 38.5003 3.2999L38.6003 3.3999C38.6003 3.4999 38.7003 3.4999 38.7003 3.5999C38.7003 3.5999 38.7003 3.6999 38.8003 3.6999C38.9003 3.7999 38.9003 3.8999 39.0003 4.0999C39.0003 4.1999 39.1003 4.2999 39.1003 4.3999C39.1003 4.4999 39.1003 4.4999 39.1003 4.5999C39.1003 4.7999 39.1003 4.8999 39.1003 5.0999L39.2003 66.8999C39.2003 67.0999 39.2003 67.1999 39.2003 67.3999C39.2003 67.4999 39.2003 67.4999 39.2003 67.5999C39.2003 67.6999 39.3003 67.7999 39.3003 67.8999C39.3003 67.8999 39.3003 67.8999 39.3003 67.9999C39.3003 68.0999 39.4003 68.1999 39.5003 68.3999C39.5003 68.3999 39.5003 68.4999 39.6003 68.4999C39.7003 68.5999 39.7003 68.6999 39.8003 68.7999C39.8003 68.7999 39.8003 68.8999 39.9003 68.8999C40.0003 68.9999 40.1003 69.0999 40.2003 69.1999C40.2003 69.1999 40.2003 69.1999 40.3003 69.2999C40.4003 69.3999 40.5003 69.3999 40.6003 69.4999C40.7003 69.4999 40.7003 69.5999 40.8003 69.5999C40.9003 69.5999 40.9003 69.6999 41.0003 69.6999C41.2003 69.7999 41.4003 69.8999 41.6003 69.8999L45.9003 70.4999C46.1003 70.4999 46.4003 70.5999 46.6003 70.6999C46.7003 70.7999 46.9003 70.7999 47.0003 70.8999C47.1003 70.8999 47.1003 70.9999 47.2003 70.9999C47.2003 70.9999 47.2003 70.9999 47.3003 70.9999C47.4003 71.0999 47.5003 71.1999 47.5003 71.1999C47.6003 71.2999 47.6003 71.2999 47.7003 71.3999C47.8003 71.4999 47.8003 71.5999 47.9003 71.6999C47.9003 71.7999 48.0003 71.7999 48.0003 71.8999C48.0003 71.8999 48.0003 71.9999 48.1003 71.9999V72.0999C48.1003 72.1999 48.1003 72.2999 48.2003 72.3999C48.2003 72.4999 48.3003 72.5999 48.3003 72.6999C48.3003 72.7999 48.3003 72.9999 48.3003 73.0999C48.3003 73.1999 48.3003 73.2999 48.3003 73.3999C48.3003 73.4999 48.2003 73.6999 48.2003 73.7999C48.2003 73.8999 48.2003 73.9999 48.1003 73.9999C48.0003 74.1999 47.9003 74.3999 47.8003 74.5999L33.7003 91.7999C33.5003 91.9999 33.3003 92.1999 33.1003 92.2999L23.5003 97.4999C23.7003 97.3999 23.9003 97.1999 24.1003 96.9999L38.0003 79.9999Z" fill="#FFD394"/>
<path d="M17.2001 6.0997C15.9001 5.8997 14.9001 6.8997 14.9001 8.2997L15.0001 70.0997C15.0001 71.4997 14.0001 72.4997 12.7001 72.2997L8.40011 71.6997C6.40011 71.3997 5.30011 73.6997 6.60011 75.5997L20.5001 96.5997C21.0001 97.2997 21.7001 97.6997 22.4001 97.7997C23.1001 97.8997 23.8001 97.6997 24.2001 97.0997L38.0001 79.9997C39.2001 78.4997 38.1001 75.8997 36.1001 75.5997L31.8001 74.9997C30.5001 74.7997 29.4001 73.4997 29.4001 72.0997L29.3001 10.2997C29.3001 8.8997 28.2001 7.5997 26.9001 7.3997L17.2001 6.0997Z" fill="white"/>
<path d="M17.1999 6.0997C15.8999 5.8997 14.8999 6.8997 14.8999 8.2997L14.9999 70.0997" stroke="#171A21" stroke-width="2" stroke-miterlimit="10" stroke-linecap="round" stroke-linejoin="round"/>
<path d="M8.30001 71.6999C6.30001 71.3999 5.20001 73.6999 6.50001 75.5999L20.4 96.5999C20.9 97.2999 21.6 97.6999 22.3 97.7999C23 97.8999 23.7 97.6999 24.1 97.0999L26.8 93.7999" stroke="#171A21" stroke-width="2" stroke-miterlimit="10" stroke-linecap="round" stroke-linejoin="round"/>
<path d="M38.5 39.7001C38.3 39.7001 38.1 39.8001 38 39.9001L47.6 34.7001C47.6 34.7001 47.6 34.7001 47.7 34.7001C47.8 34.6001 47.9 34.6001 48.1 34.6001H48.2H48.3C48.5 34.6001 48.7 34.6001 48.9 34.6001L53.2 35.2001C53.4 35.2001 53.6 35.2001 53.8 35.2001H53.9C54.1 35.2001 54.3 35.1001 54.4 35.0001L44.8 40.2001C44.8 40.2001 44.8 40.2001 44.7 40.2001C44.6 40.3001 44.5 40.3001 44.3 40.3001H44.2H44.1C43.9 40.3001 43.7 40.3001 43.5 40.3001L39.2 39.7001C39 39.7001 38.8 39.7001 38.6 39.7001C38.5 39.7001 38.5 39.7001 38.5 39.7001Z" fill="#FFD394"/>
<path d="M68.8998 48C68.9998 47.8 69.1998 47.6 69.1998 47.4C69.1998 47.3 69.1998 47.3 69.2998 47.2C69.2998 47.1 69.3998 46.9 69.3998 46.8C69.3998 46.7 69.3998 46.6 69.3998 46.5C69.3998 46.4 69.3998 46.2 69.3998 46.1C69.3998 46 69.3998 45.9 69.2998 45.8C69.2998 45.7 69.1998 45.5 69.1998 45.4C69.1998 45.4 69.1998 45.3 69.0998 45.3C68.9998 45.1 68.8998 44.9 68.7998 44.8C68.6998 44.6 68.4998 44.5 68.3998 44.3C68.3998 44.3 68.3998 44.3 68.2998 44.3C68.0998 44.2 67.8998 44 67.6998 43.9C67.4998 43.8 67.1998 43.7 66.9998 43.7L62.6998 43C62.4998 43 62.2998 42.9 62.0998 42.8H61.9998C61.9998 42.8 61.8998 42.8 61.8998 42.7C61.7998 42.7 61.7998 42.6 61.6998 42.6H61.5998C61.4998 42.6 61.4998 42.5 61.3998 42.5C61.3998 42.5 61.3998 42.5 61.2998 42.4C61.1998 42.3 61.0998 42.2 61.0998 42.2C61.0998 42.2 61.0998 42.2 61.0998 42.1C61.0998 42.1 61.0998 42 60.9998 42L60.8998 41.9C60.8998 41.8 60.7998 41.8 60.7998 41.7C60.7998 41.7 60.7998 41.6 60.6998 41.6C60.6998 41.6 60.6998 41.6 60.6998 41.5C60.5998 41.4 60.5998 41.3 60.5998 41.2C60.5998 41.2 60.5998 41.2 60.5998 41.1C60.5998 41 60.4998 40.9 60.4998 40.8C60.4998 40.7 60.4998 40.7 60.4998 40.6C60.4998 40.4 60.4998 40.3 60.4998 40.1L60.3998 10.4C60.3998 10.2 60.3998 10.1 60.3998 9.9C60.3998 9.8 60.3998 9.8 60.3998 9.7C60.3998 9.6 60.2998 9.5 60.2998 9.4C60.0998 9.2 59.9998 9.1 59.8998 9C59.8998 9 59.8998 8.9 59.7998 8.9C59.6998 8.8 59.6998 8.7 59.5998 8.6C59.5998 8.6 59.5998 8.5 59.4998 8.5C59.3998 8.4 59.2998 8.3 59.1998 8.2C59.1998 8.2 59.1998 8.2 59.0998 8.1C59.0998 8.1 58.9998 8 58.8998 7.9C58.7998 7.9 58.7998 7.8 58.6998 7.8C58.5998 7.8 58.5998 7.7 58.4998 7.7C58.2998 7.6 58.0998 7.5 57.8998 7.5L47.9998 6.1C47.7998 6.1 47.5998 6.1 47.3998 6.1H47.2998C47.0998 6.1 46.8998 6.2 46.7998 6.3L56.3998 1.1C56.3998 1.1 56.3998 1.1 56.4998 1.1C56.6998 1 56.7998 1 56.8998 1C56.9998 1 56.9998 1 56.9998 1H57.0998C57.2998 1 57.4998 1 57.6998 1L67.5998 2.4C67.7998 2.4 67.9998 2.5 68.1998 2.6H68.2998L68.3998 2.7C68.4998 2.7 68.4998 2.8 68.5998 2.8H68.6998C68.7998 2.8 68.7998 2.9 68.8998 3C68.8998 3 68.8998 3 68.9998 3C68.9998 3 69.0998 3.1 69.1998 3.2C69.1998 3.2 69.1998 3.2 69.1998 3.3C69.1998 3.3 69.1998 3.4 69.2998 3.4L69.3998 3.5C69.3998 3.6 69.4998 3.6 69.4998 3.7C69.4998 3.7 69.4998 3.8 69.5998 3.8C69.6998 3.9 69.6998 4 69.7998 4.2C69.7998 4.3 69.8998 4.4 69.8998 4.5C69.8998 4.6 69.8998 4.6 69.8998 4.7C69.8998 4.9 69.8998 5 69.8998 5.2L69.9998 34.9C69.9998 35.1 69.9998 35.2 69.9998 35.4C69.9998 35.5 69.9998 35.5 69.9998 35.6C69.9998 35.7 70.0998 35.8 70.0998 35.9C70.0998 35.9 70.0998 35.9 70.0998 36C70.0998 36.1 70.1998 36.2 70.2998 36.4C70.2998 36.4 70.2998 36.5 70.3998 36.5C70.4998 36.6 70.4998 36.7 70.5998 36.8C70.5998 36.8 70.5998 36.9 70.6998 36.9C70.7998 37 70.8998 37.1 70.9998 37.2C70.9998 37.2 70.9998 37.2 71.0998 37.3C71.1998 37.4 71.2998 37.4 71.3998 37.5C71.4998 37.5 71.4998 37.6 71.5998 37.6C71.6998 37.6 71.6998 37.7 71.7998 37.7C71.9998 37.8 72.1998 37.9 72.3998 37.9L76.6998 38.5C76.8998 38.5 77.1998 38.6 77.3998 38.7C77.4998 38.8 77.6998 38.8 77.7998 38.9C77.8998 38.9 77.8998 39 77.9998 39C77.9998 39 77.9998 39 78.0998 39C78.1998 39.1 78.2998 39.2 78.2998 39.2C78.3998 39.3 78.3998 39.3 78.4998 39.4C78.5998 39.5 78.5998 39.6 78.6998 39.7C78.6998 39.8 78.7998 39.8 78.7998 39.9C78.7998 39.9 78.7998 40 78.8998 40V40.1C78.8998 40.2 78.8998 40.3 78.9998 40.4C78.9998 40.5 79.0998 40.6 79.0998 40.7C79.0998 40.8 79.0998 41 79.0998 41.1C79.0998 41.2 79.0998 41.3 79.0998 41.4C79.0998 41.5 78.9998 41.7 78.9998 41.8C78.9998 41.9 78.9998 42 78.8998 42C78.7998 42.2 78.6998 42.4 78.5998 42.6L64.5998 59.8C64.3998 60 64.1998 60.2 63.9998 60.3L54.3998 65.5C54.5998 65.4 54.7998 65.2 54.9998 65L68.8998 48Z" fill="#FFD394"/>
<path d="M48.0999 6.1998C46.7999 5.9998 45.6999 6.9998 45.6999 8.3998L45.7999 38.0998C45.7999 39.4998 44.7999 40.4998 43.4999 40.2998L39.1999 39.6998C37.1999 39.3998 36.0999 41.6998 37.3999 43.5998L51.2999 64.5998C51.7999 65.2998 52.4999 65.6998 53.1999 65.7998C53.8999 65.8998 54.5999 65.6998 54.9999 65.0998L68.8999 47.9998C70.0999 46.4998 68.9999 43.8998 66.9999 43.5998L62.6999 42.9998C61.3999 42.7998 60.2999 41.4998 60.2999 40.0998L60.1999 10.3998C60.1999 8.9998 59.0999 7.6998 57.7999 7.4998L48.0999 6.1998Z" fill="white"/>
<path d="M48.0997 6.1998C46.7997 5.9998 45.6997 6.9998 45.6997 8.3998L45.7997 38.0998" stroke="#171A21" stroke-width="2" stroke-miterlimit="10" stroke-linecap="round" stroke-linejoin="round"/>
<path d="M39.1999 39.6999C37.1999 39.3999 36.0999 41.6999 37.3999 43.5999L51.2999 64.5999C51.7999 65.2999 52.4999 65.6999 53.1999 65.7999C53.8999 65.8999 54.5999 65.6999 54.9999 65.0999L57.6999 61.7999" stroke="#171A21" stroke-width="2" stroke-miterlimit="10" stroke-linecap="round" stroke-linejoin="round"/>
</svg>
