<svg width="144" height="144" viewBox="0 0 144 144" fill="none" xmlns="http://www.w3.org/2000/svg">
<g clip-path="url(#clip0)">
<path d="M42.0001 66.615C41.7001 66.8144 41.4001 67.0139 41.3001 67.2133L34.7001 76.687C34.5001 76.8864 34.3001 77.1856 34.0001 77.2853L22.7001 83.7673C22.2001 84.0665 21.9001 84.3657 21.8001 84.7646L18.8001 93.1413C18.7001 93.5402 18.3001 93.8393 17.9001 94.1385C17.5001 94.338 16.9001 94.5374 16.4001 94.6371L5.8001 96.133C5.2001 96.2327 4.7001 96.4321 4.3001 96.6316C4.1001 96.7313 3.8001 96.9308 3.7001 97.1302L1.6001 99.5236C1.1001 100.022 1.1001 100.72 1.6001 101.219L3.2001 103.114C3.9001 103.911 5.3001 104.31 6.8001 104.111L19.5001 102.615C20.9001 102.416 22.4001 102.814 23.1001 103.612L33.2001 114.482C33.8001 115.18 33.7001 115.978 32.9001 116.576L23.7001 123.457C22.7001 124.255 22.8001 125.352 24.0001 125.95L25.5001 126.848C26.5001 127.446 28.1001 127.546 29.3001 127.247L43.5001 123.158C45.7001 122.56 48.3001 123.457 48.3001 124.853V127.047C48.3001 127.546 48.6001 128.044 49.3001 128.443L52.0001 130.039C53.0001 130.637 54.4001 130.737 55.7001 130.438L64.6001 128.244C65.5001 128.044 66.5001 128.044 67.4001 128.244L71.6001 129.44C72.5001 129.74 73.2001 130.238 73.4001 130.737L74.5001 134.028C74.7001 134.626 75.4001 135.125 76.3001 135.324L101.7 142.704C102.5 142.903 103.5 143.003 104.4 142.803L120 139.213C120.4 139.114 120.8 139.014 121.1 138.814L136 130.238C136.4 130.039 136.6 129.74 136.8 129.44L143 118.87C143.4 118.172 143 117.274 142 116.776L69.4001 80.8754C68.5001 80.3767 67.2001 80.277 66.0001 80.5762L54.8001 83.169C52.6001 83.6676 50.2001 82.7701 50.3001 81.374V72.4986C50.3001 72.1995 50.5001 71.8006 50.8001 71.5014L54.3001 68.1108C55.1001 67.313 54.9001 66.4155 53.8001 65.7175L50.9001 64.0222C49.6001 63.2244 47.5001 63.2244 46.2001 64.0222L42.0001 66.615Z" fill="#FFF6EA" stroke="#171A21" stroke-width="2" stroke-miterlimit="10" stroke-linecap="round" stroke-linejoin="round"/>
<path d="M14.5 80.2772C13.9 77.8839 15.2 75.3908 18.4 73.4961C23.8 70.3049 32.6 70.2052 38 73.2966C41.2 75.0916 42.5 77.5847 42 79.9781L41.4 84.1664L32.1 89.6512L23.8 90.2495L17.6 85.8617L14.9 82.87L14.5 80.2772Z" fill="white"/>
<path d="M14.3999 79.4791C14.3999 79.5788 14.3999 79.5788 14.3999 79.6785C14.3999 79.7783 14.3999 79.7783 14.3999 79.878C14.3999 79.9777 14.3999 79.9777 14.3999 80.0774C14.3999 80.1772 14.3999 80.1771 14.3999 80.2769C14.3999 80.3766 14.3999 80.3766 14.4999 80.4763C14.4999 80.576 14.4999 80.576 14.5999 80.6758C14.5999 80.7755 14.5999 80.7755 14.6999 80.8752C14.6999 80.9749 14.6999 80.9749 14.7999 81.0747C14.7999 81.1744 14.8999 81.1744 14.8999 81.2741C14.8999 81.3738 14.9999 81.3738 14.9999 81.4735C14.9999 81.5733 15.0999 81.5733 15.0999 81.673C15.0999 81.7727 15.1999 81.7727 15.1999 81.8724C15.1999 81.8724 15.1999 81.8724 15.1999 81.9722C15.2999 82.0719 15.2999 82.1716 15.3999 82.2713C15.3999 82.2713 15.3999 82.2713 15.3999 82.3711C15.4999 82.4708 15.5999 82.5705 15.5999 82.6702C15.5999 82.6702 15.5999 82.6702 15.5999 82.7699C15.6999 82.8697 15.6999 82.9694 15.7999 83.0691C15.7999 83.0691 15.7999 83.0691 15.8999 83.1688C15.9999 83.2686 16.0999 83.3683 16.1999 83.468C16.1999 83.468 16.1999 83.468 16.2999 83.5677C16.3999 83.6675 16.4999 83.6675 16.4999 83.7672C16.5999 83.8669 16.5999 83.8669 16.6999 83.9666C16.7999 84.0663 16.7999 84.0663 16.8999 84.1661C16.9999 84.2658 16.9999 84.2658 17.0999 84.3655C17.1999 84.4652 17.1999 84.4652 17.2999 84.565C17.3999 84.6647 17.4999 84.6647 17.4999 84.7644C17.5999 84.7644 17.5999 84.8641 17.6999 84.8641C17.7999 84.9638 17.8999 84.9639 17.9999 85.0636C18.0999 85.1633 18.1999 85.1633 18.2999 85.263C18.4999 85.3627 18.6999 85.4625 18.8999 85.5622C18.9999 85.5622 18.9999 85.6619 19.0999 85.6619C19.2999 85.7616 19.3999 85.8614 19.5999 85.8614C19.6999 85.8614 19.6999 85.9611 19.7999 85.9611C19.9999 86.0608 20.2999 86.1605 20.4999 86.2602H20.5999C20.7999 86.36 20.9999 86.36 21.1999 86.4597C21.2999 86.4597 21.3999 86.5594 21.4999 86.5594C21.5999 86.5594 21.6999 86.6591 21.7999 86.6591C21.8999 86.6591 21.9999 86.7589 22.0999 86.7589C22.1999 86.7589 22.2999 86.8586 22.3999 86.8586C22.4999 86.8586 22.5999 86.8586 22.6999 86.9583C22.7999 86.9583 22.8999 87.058 23.0999 87.058C23.1999 87.058 23.2999 87.058 23.3999 87.1578C23.4999 87.1578 23.5999 87.1578 23.7999 87.2575C23.8999 87.2575 23.9999 87.2575 24.0999 87.2575C24.3999 87.2575 24.5999 87.3572 24.8999 87.3572H24.9999C25.1999 87.3572 25.4999 87.4569 25.6999 87.4569C25.7999 87.4569 25.8999 87.4569 25.9999 87.4569C26.0999 87.4569 26.2999 87.4569 26.3999 87.4569C26.4999 87.4569 26.5999 87.4569 26.6999 87.4569C26.8999 87.4569 26.9999 87.4569 27.1999 87.4569C27.2999 87.4569 27.3999 87.4569 27.4999 87.4569C27.5999 87.4569 27.7999 87.4569 27.8999 87.4569C27.9999 87.4569 28.0999 87.4569 28.1999 87.4569C28.2999 87.4569 28.4999 87.4569 28.5999 87.4569C28.6999 87.4569 28.7999 87.4569 28.8999 87.4569C28.9999 87.4569 29.1999 87.4569 29.2999 87.4569C29.3999 87.4569 29.4999 87.4569 29.5999 87.4569C29.6999 87.4569 29.8999 87.4569 29.9999 87.4569C30.0999 87.4569 30.1999 87.4569 30.1999 87.4569C30.3999 87.4569 30.4999 87.4569 30.6999 87.3572C30.7999 87.3572 30.7999 87.3572 30.8999 87.3572C31.0999 87.3572 31.2999 87.2575 31.5999 87.2575H31.6999C31.8999 87.2575 32.0999 87.1578 32.2999 87.1578C32.3999 87.1578 32.4999 87.1578 32.4999 87.1578C32.5999 87.1578 32.7999 87.058 32.8999 87.058C32.9999 87.058 32.9999 87.058 33.0999 86.9583C33.2999 86.9583 33.3999 86.8586 33.5999 86.8586C33.6999 86.8586 33.7999 86.8586 33.8999 86.7589C33.9999 86.7589 34.1999 86.6591 34.2999 86.6591C34.3999 86.6591 34.4999 86.6591 34.4999 86.5594C34.6999 86.4597 34.8999 86.4597 35.1999 86.36H35.2999C35.4999 86.2602 35.7999 86.1605 35.9999 86.0608C36.0999 86.0608 36.1999 85.9611 36.2999 85.9611C36.3999 85.9611 36.4999 85.8614 36.4999 85.8614C36.5999 85.8614 36.6999 85.7616 36.7999 85.7616C36.8999 85.7616 36.8999 85.6619 36.9999 85.6619C37.0999 85.5622 37.1999 85.5622 37.2999 85.4625C37.3999 85.4625 37.3999 85.3627 37.4999 85.3627C37.6999 85.263 37.7999 85.1633 37.9999 85.0636C40.6999 83.468 42.0999 81.3738 41.9999 79.2796L42.0999 87.4569C42.0999 89.5511 40.7999 91.6453 38.0999 93.2409C37.8999 93.3406 37.7999 93.4403 37.5999 93.54C37.4999 93.54 37.4999 93.6398 37.3999 93.6398C37.2999 93.7395 37.1999 93.7395 37.0999 93.8392C36.9999 93.8392 36.9999 93.9389 36.8999 93.9389C36.7999 94.0386 36.6999 94.0386 36.5999 94.0386C36.4999 94.0386 36.3999 94.1384 36.3999 94.1384C36.2999 94.1384 36.2999 94.2381 36.1999 94.2381C36.1999 94.2381 36.1999 94.2381 36.0999 94.2381C35.8999 94.3378 35.5999 94.4375 35.3999 94.5373H35.2999C35.0999 94.637 34.8999 94.637 34.5999 94.7367H34.4999H34.3999C34.2999 94.7367 34.0999 94.8364 33.9999 94.8364C33.8999 94.8364 33.7999 94.8364 33.6999 94.9361C33.4999 94.9361 33.3999 95.0359 33.1999 95.0359C33.0999 95.0359 33.0999 95.0359 32.9999 95.0359C32.8999 95.0359 32.6999 95.1356 32.5999 95.1356C32.4999 95.1356 32.3999 95.1356 32.3999 95.1356C32.1999 95.1356 31.9999 95.2353 31.7999 95.2353H31.6999C31.4999 95.2353 31.2999 95.335 30.9999 95.335C30.8999 95.335 30.8999 95.335 30.7999 95.335C30.5999 95.335 30.4999 95.335 30.2999 95.4348C30.1999 95.4348 30.0999 95.4348 30.0999 95.4348C29.9999 95.4348 29.7999 95.4348 29.6999 95.4348C29.5999 95.4348 29.4999 95.4348 29.3999 95.4348C29.2999 95.4348 29.0999 95.4348 28.9999 95.4348C28.8999 95.4348 28.8999 95.4348 28.7999 95.4348C28.6999 95.4348 28.4999 95.4348 28.3999 95.4348C28.2999 95.4348 28.1999 95.4348 28.0999 95.4348C27.9999 95.4348 27.7999 95.4348 27.6999 95.4348H27.5999C27.4999 95.4348 27.4999 95.4348 27.3999 95.4348C27.1999 95.4348 27.0999 95.4348 26.8999 95.4348C26.7999 95.4348 26.6999 95.4348 26.5999 95.4348C26.4999 95.4348 26.2999 95.4348 26.1999 95.4348C26.0999 95.4348 26.0999 95.4348 25.9999 95.4348H25.8999C25.6999 95.4348 25.3999 95.4348 25.1999 95.335H25.0999C24.7999 95.335 24.5999 95.2353 24.2999 95.2353C24.2999 95.2353 24.2999 95.2353 24.1999 95.2353C24.0999 95.2353 24.0999 95.2353 23.9999 95.2353C23.8999 95.2353 23.7999 95.2353 23.5999 95.1356C23.4999 95.1356 23.3999 95.1356 23.2999 95.0359C23.1999 95.0359 23.0999 94.9361 22.8999 94.9361C22.7999 94.9361 22.6999 94.9361 22.5999 94.8364C22.4999 94.8364 22.3999 94.7367 22.2999 94.7367C22.1999 94.7367 22.0999 94.637 21.9999 94.637C21.8999 94.637 21.7999 94.5373 21.6999 94.5373H21.5999H21.4999C21.2999 94.4375 21.0999 94.4375 20.8999 94.3378H20.7999C20.5999 94.2381 20.2999 94.1384 20.0999 94.0386C20.0999 93.7395 20.0999 93.7395 19.9999 93.7395C19.7999 93.6398 19.6999 93.54 19.4999 93.54C19.3999 93.54 19.3999 93.4403 19.2999 93.4403C19.0999 93.3406 18.8999 93.2409 18.6999 93.1411C18.5999 93.1411 18.5999 93.0414 18.4999 93.0414C18.3999 93.0414 18.3999 92.9417 18.2999 92.9417C18.1999 92.842 18.0999 92.842 17.9999 92.7422C17.8999 92.7422 17.8999 92.6425 17.7999 92.6425C17.6999 92.5428 17.5999 92.5428 17.5999 92.4431C17.4999 92.3433 17.4999 92.3434 17.3999 92.2436C17.2999 92.1439 17.2999 92.1439 17.1999 92.0442C17.0999 91.9445 17.0999 91.9445 16.9999 91.8447C16.8999 91.745 16.8999 91.745 16.7999 91.6453C16.7999 91.6453 16.6999 91.6453 16.6999 91.5456C16.5999 91.5456 16.5999 91.4458 16.4999 91.4458C16.4999 91.4458 16.4999 91.4458 16.3999 91.3461C16.2999 91.2464 16.1999 91.1467 16.0999 91.047C16.0999 91.047 16.0999 91.0469 15.9999 90.9472C15.8999 90.8475 15.7999 90.7478 15.7999 90.6481C15.7999 90.6481 15.7999 90.6481 15.7999 90.5483C15.6999 90.4486 15.6999 90.3489 15.5999 90.2492C15.5999 90.2492 15.5999 90.2492 15.5999 90.1494C15.4999 90.0497 15.4999 89.95 15.3999 89.8503C15.3999 89.8503 15.3999 89.8503 15.3999 89.7506C15.3999 89.7506 15.3999 89.6508 15.2999 89.6508C15.2999 89.6508 15.2999 89.5511 15.1999 89.5511C15.1999 89.4514 15.0999 89.4514 15.0999 89.3517C15.0999 89.2519 14.9999 89.2519 14.9999 89.1522C14.9999 89.0525 14.8999 89.0525 14.8999 88.9528V88.853V88.7533C14.8999 88.6536 14.8999 88.6536 14.7999 88.5539C14.7999 88.4542 14.7999 88.4542 14.6999 88.3544C14.6999 88.2547 14.6999 88.2547 14.5999 88.155V88.0553C14.5999 88.0553 14.5999 88.0553 14.5999 87.9555C14.5999 87.8558 14.5999 87.8558 14.5999 87.7561C14.5999 87.6564 14.5999 87.6564 14.5999 87.5567C14.5999 87.4569 14.5999 87.4569 14.5999 87.3572V87.2575V87.1578L14.4999 78.9805C14.3999 79.3794 14.3999 79.4791 14.3999 79.4791Z" fill="#FFD394"/>
<path d="M42.3999 79.878C42.8999 77.4846 41.5999 74.9915 38.3999 73.1965C32.9999 70.1051 24.1999 70.2048 18.7999 73.396C15.5999 75.2907 14.2999 77.7838 14.8999 80.1771" stroke="#171A21" stroke-width="2" stroke-miterlimit="10" stroke-linecap="round" stroke-linejoin="round"/>
<path d="M66.2002 88.4545C65.6002 86.0611 66.9002 83.5681 70.1002 81.6733C75.5002 78.4822 84.3002 78.3825 89.7002 81.4739C92.9002 83.2689 94.2002 85.762 93.7002 88.1553L93.1002 92.3437L83.8002 97.8285L75.5002 98.4268L69.3002 94.039L66.6002 91.0473L66.2002 88.4545Z" fill="white"/>
<path d="M66.1001 87.6561C66.1001 87.7558 66.1001 87.7558 66.1001 87.8555C66.1001 87.9553 66.1001 87.9553 66.1001 88.055C66.1001 88.1547 66.1001 88.1547 66.1001 88.2544C66.1001 88.3542 66.1001 88.3542 66.1001 88.4539C66.1001 88.5536 66.1001 88.5536 66.2001 88.6533C66.2001 88.7531 66.2001 88.7531 66.3001 88.8528C66.3001 88.9525 66.3001 88.9525 66.4001 89.0522C66.4001 89.152 66.4001 89.1519 66.5001 89.2517C66.5001 89.3514 66.6001 89.3514 66.6001 89.4511C66.6001 89.5508 66.7001 89.5508 66.7001 89.6506C66.7001 89.7503 66.8001 89.7503 66.8001 89.85C66.8001 89.9497 66.9001 89.9497 66.9001 90.0495C66.9001 90.0495 66.9001 90.0495 66.9001 90.1492C67.0001 90.2489 67.0001 90.3486 67.1001 90.4483C67.1001 90.4483 67.1001 90.4484 67.1001 90.5481C67.2001 90.6478 67.3001 90.7475 67.3001 90.8472C67.3001 90.8472 67.3001 90.8472 67.3001 90.947C67.4001 91.0467 67.4001 91.1464 67.5001 91.2461C67.5001 91.2461 67.5001 91.2461 67.6001 91.3459C67.7001 91.4456 67.8001 91.5453 67.9001 91.645C67.9001 91.645 67.9001 91.645 68.0001 91.7447C68.1001 91.8445 68.2001 91.8445 68.2001 91.9442C68.3001 92.0439 68.3001 92.0439 68.4001 92.1436C68.5001 92.2434 68.5001 92.2434 68.6001 92.3431C68.7001 92.4428 68.7001 92.4428 68.8001 92.5425C68.9001 92.6423 68.9001 92.6423 69.0001 92.742C69.1001 92.8417 69.2001 92.8417 69.2001 92.9414C69.3001 92.9414 69.3001 93.0411 69.4001 93.0411C69.5001 93.1409 69.6001 93.1409 69.7001 93.2406C69.8001 93.3403 69.9001 93.3403 70.0001 93.44C70.2001 93.5398 70.4001 93.6395 70.6001 93.7392C70.7001 93.7392 70.7001 93.8389 70.8001 93.8389C71.0001 93.9387 71.1001 94.0384 71.3001 94.0384C71.4001 94.0384 71.4001 94.1381 71.5001 94.1381C71.7001 94.2378 72.0001 94.3375 72.2001 94.4373H72.3001C72.5001 94.537 72.7001 94.537 72.9001 94.6367C73.0001 94.6367 73.1001 94.7364 73.2001 94.7364C73.3001 94.7364 73.4001 94.8362 73.5001 94.8362C73.6001 94.8362 73.7001 94.9359 73.8001 94.9359C73.9001 94.9359 74.0001 95.0356 74.1001 95.0356C74.2001 95.0356 74.3001 95.0356 74.4001 95.1353C74.5001 95.1353 74.6001 95.2351 74.8001 95.2351C74.9001 95.2351 75.0001 95.2351 75.1001 95.3348C75.2001 95.3348 75.3001 95.3348 75.5001 95.4345C75.6001 95.4345 75.7001 95.4345 75.8001 95.4345C76.1001 95.4345 76.3001 95.5342 76.6001 95.5342H76.7001C76.9001 95.5342 77.2001 95.6339 77.4001 95.6339C77.5001 95.6339 77.6001 95.6339 77.7001 95.6339C77.8001 95.6339 78.0001 95.6339 78.1001 95.6339C78.2001 95.6339 78.3001 95.6339 78.4001 95.6339C78.6001 95.6339 78.7001 95.6339 78.9001 95.6339C79.0001 95.6339 79.1001 95.6339 79.2001 95.6339C79.3001 95.6339 79.5001 95.6339 79.6001 95.6339C79.7001 95.6339 79.8001 95.6339 79.9001 95.6339C80.0001 95.6339 80.2001 95.6339 80.3001 95.6339C80.4001 95.6339 80.5001 95.6339 80.6001 95.6339C80.7001 95.6339 80.9001 95.6339 81.0001 95.6339C81.1001 95.6339 81.2001 95.6339 81.3001 95.6339C81.4001 95.6339 81.6001 95.6339 81.7001 95.6339C81.8001 95.6339 81.9001 95.6339 81.9001 95.6339C82.1001 95.6339 82.2001 95.6339 82.4001 95.5342C82.5001 95.5342 82.5001 95.5342 82.6001 95.5342C82.8001 95.5342 83.0001 95.4345 83.3001 95.4345H83.4001C83.6001 95.4345 83.8001 95.3348 84.0001 95.3348C84.1001 95.3348 84.2001 95.3348 84.2001 95.3348C84.3001 95.3348 84.5001 95.2351 84.6001 95.2351C84.7001 95.2351 84.7001 95.2351 84.8001 95.1353C85.0001 95.1353 85.1001 95.0356 85.3001 95.0356C85.4001 95.0356 85.5001 95.0356 85.6001 94.9359C85.7001 94.9359 85.9001 94.8362 86.0001 94.8362C86.1001 94.8362 86.2001 94.8362 86.2001 94.7364C86.4001 94.6367 86.6001 94.6367 86.9001 94.537H87.0001C87.2001 94.4373 87.5001 94.3375 87.7001 94.2378C87.8001 94.2378 87.9001 94.1381 88.0001 94.1381C88.1001 94.1381 88.2001 94.0384 88.2001 94.0384C88.3001 94.0384 88.4001 93.9387 88.5001 93.9387C88.6001 93.9387 88.6001 93.8389 88.7001 93.8389C88.8001 93.7392 88.9001 93.7392 89.0001 93.6395C89.1001 93.6395 89.1001 93.5398 89.2001 93.5398C89.4001 93.44 89.5001 93.3403 89.7001 93.2406C92.4001 91.645 93.8001 89.5508 93.7001 87.4567L93.8001 95.6339C93.8001 97.7281 92.5001 99.8223 89.8001 101.418C89.6001 101.518 89.5001 101.617 89.3001 101.717C89.2001 101.717 89.2001 101.817 89.1001 101.817C89.0001 101.916 88.9001 101.916 88.8001 102.016C88.7001 102.016 88.7001 102.116 88.6001 102.116C88.5001 102.216 88.4001 102.216 88.3001 102.216C88.2001 102.216 88.1001 102.315 88.1001 102.315C88.0001 102.315 88.0001 102.415 87.9001 102.415C87.9001 102.415 87.9001 102.415 87.8001 102.415C87.6001 102.515 87.3001 102.615 87.1001 102.714H87.0001C86.8001 102.814 86.6001 102.814 86.3001 102.914H86.2001H86.1001C86.0001 102.914 85.8001 103.013 85.7001 103.013C85.6001 103.013 85.5001 103.013 85.4001 103.113C85.2001 103.113 85.1001 103.213 84.9001 103.213C84.8001 103.213 84.8001 103.213 84.7001 103.213C84.6001 103.213 84.4001 103.313 84.3001 103.313C84.2001 103.313 84.1001 103.313 84.1001 103.313C83.9001 103.313 83.7001 103.412 83.5001 103.412H83.4001C83.2001 103.412 83.0001 103.512 82.7001 103.512C82.6001 103.512 82.6001 103.512 82.5001 103.512C82.3001 103.512 82.2001 103.512 82.0001 103.612C81.9001 103.612 81.8001 103.612 81.8001 103.612C81.7001 103.612 81.5001 103.612 81.4001 103.612C81.3001 103.612 81.2001 103.612 81.1001 103.612C81.0001 103.612 80.8001 103.612 80.7001 103.612C80.6001 103.612 80.6001 103.612 80.5001 103.612C80.4001 103.612 80.2001 103.612 80.1001 103.612C80.0001 103.612 79.9001 103.612 79.8001 103.612C79.7001 103.612 79.5001 103.612 79.4001 103.612H79.3001C79.2001 103.612 79.2001 103.612 79.1001 103.612C78.9001 103.612 78.8001 103.612 78.6001 103.612C78.5001 103.612 78.4001 103.612 78.3001 103.612C78.2001 103.612 78.0001 103.612 77.9001 103.612C77.8001 103.612 77.8001 103.612 77.7001 103.612H77.6001C77.4001 103.612 77.1001 103.612 76.9001 103.512H76.8001C76.5001 103.512 76.3001 103.412 76.0001 103.412C76.0001 103.412 76.0001 103.412 75.9001 103.412C75.8001 103.412 75.8001 103.412 75.7001 103.412C75.6001 103.412 75.5001 103.412 75.3001 103.313C75.2001 103.313 75.1001 103.313 75.0001 103.213C74.9001 103.213 74.8001 103.113 74.6001 103.113C74.5001 103.113 74.4001 103.113 74.3001 103.013C74.2001 103.013 74.1001 102.914 74.0001 102.914C73.9001 102.914 73.8001 102.814 73.7001 102.814C73.6001 102.814 73.5001 102.714 73.4001 102.714H73.3001H73.2001C73.0001 102.615 72.8001 102.615 72.6001 102.515H72.5001C72.3001 102.415 72.0001 102.315 71.8001 102.216C71.7001 102.216 71.7001 102.116 71.6001 102.116C71.4001 102.016 71.3001 101.916 71.1001 101.916C71.0001 101.916 71.0001 101.817 70.9001 101.817C70.7001 101.717 70.5001 101.617 70.3001 101.518C70.2001 101.518 70.2001 101.418 70.1001 101.418C70.0001 101.418 70.0001 101.318 69.9001 101.318C69.8001 101.218 69.7001 101.218 69.6001 101.119C69.5001 101.119 69.5001 101.019 69.4001 101.019C69.3001 100.919 69.2001 100.919 69.2001 100.82C69.1001 100.72 69.1001 100.72 69.0001 100.62C68.9001 100.52 68.9001 100.52 68.8001 100.421C68.7001 100.321 68.7001 100.321 68.6001 100.221C68.5001 100.121 68.5001 100.121 68.4001 100.022C68.4001 100.022 68.3001 100.022 68.3001 99.922C68.2001 99.922 68.2001 99.8223 68.1001 99.8223C68.1001 99.8223 68.1001 99.8223 68.0001 99.7226C67.9001 99.6229 67.8001 99.5231 67.7001 99.4234C67.7001 99.4234 67.7001 99.4234 67.6001 99.3237C67.5001 99.224 67.4001 99.1243 67.4001 99.0245C67.4001 99.0245 67.4001 99.0245 67.4001 98.9248C67.3001 98.8251 67.3001 98.7254 67.2001 98.6256C67.2001 98.6256 67.2001 98.6256 67.2001 98.5259C67.1001 98.4262 67.1001 98.3265 67.0001 98.2267C67.0001 98.2267 67.0001 98.2267 67.0001 98.127C67.0001 98.127 67.0001 98.0273 66.9001 98.0273C66.9001 98.0273 66.9001 97.9276 66.8001 97.9276C66.8001 97.8278 66.7001 97.8279 66.7001 97.7281C66.7001 97.6284 66.6001 97.6284 66.6001 97.5287C66.6001 97.429 66.5001 97.429 66.5001 97.3292V97.2295V97.1298C66.5001 97.0301 66.5001 97.0301 66.4001 96.9303C66.4001 96.8306 66.4001 96.8306 66.3001 96.7309C66.3001 96.6312 66.3001 96.6312 66.2001 96.5315V96.4317C66.2001 96.4317 66.2001 96.4317 66.2001 96.332C66.2001 96.2323 66.2001 96.2323 66.2001 96.1326C66.2001 96.0328 66.2001 96.0328 66.2001 95.9331C66.2001 95.8334 66.2001 95.8334 66.2001 95.7337V95.6339V95.5342L66.1001 87.3569C66.1001 87.4567 66.1001 87.5564 66.1001 87.6561Z" fill="#FFD394"/>
<path d="M94.1001 88.0552C94.6001 85.6619 93.3001 83.1688 90.1001 81.3738C84.7001 78.2824 75.9001 78.3821 70.5001 81.5732C67.3001 83.468 66.0001 85.961 66.6001 88.3544" stroke="#171A21" stroke-width="2" stroke-miterlimit="10" stroke-linecap="round" stroke-linejoin="round"/>
<path d="M110.5 128.144C109.9 125.751 111.2 123.258 114.4 121.363C119.8 118.172 128.6 118.072 134 121.164C137.2 122.959 138.5 125.452 138 127.845L137.4 132.034L128.1 137.518L119.8 138.117L113.6 133.729L110.9 130.737L110.5 128.144Z" fill="white"/>
<path d="M110.4 127.346C110.4 127.446 110.4 127.446 110.4 127.545C110.4 127.645 110.4 127.645 110.4 127.745C110.4 127.845 110.4 127.845 110.4 127.944C110.4 128.044 110.4 128.044 110.4 128.144C110.4 128.244 110.4 128.244 110.5 128.343C110.5 128.443 110.5 128.443 110.6 128.543C110.6 128.642 110.6 128.642 110.7 128.742C110.7 128.842 110.7 128.842 110.8 128.942C110.8 129.041 110.9 129.041 110.9 129.141C110.9 129.241 111 129.241 111 129.34C111 129.44 111.1 129.44 111.1 129.54C111.1 129.64 111.2 129.64 111.2 129.739C111.2 129.739 111.2 129.739 111.2 129.839C111.3 129.939 111.3 130.039 111.4 130.138C111.4 130.138 111.4 130.138 111.4 130.238C111.5 130.338 111.6 130.437 111.6 130.537C111.6 130.537 111.6 130.537 111.6 130.637C111.7 130.737 111.7 130.836 111.8 130.936C111.8 130.936 111.8 130.936 111.9 131.036C112 131.136 112.1 131.235 112.2 131.335C112.2 131.335 112.2 131.335 112.3 131.435C112.4 131.534 112.5 131.534 112.5 131.634C112.6 131.734 112.6 131.734 112.7 131.834C112.8 131.933 112.8 131.933 112.9 132.033C113 132.133 113 132.133 113.1 132.232C113.2 132.332 113.2 132.332 113.3 132.432C113.4 132.532 113.5 132.532 113.5 132.631C113.6 132.631 113.6 132.731 113.7 132.731C113.8 132.831 113.9 132.831 114 132.931C114.1 133.03 114.2 133.03 114.3 133.13C114.5 133.23 114.7 133.329 114.9 133.429C115 133.429 115 133.529 115.1 133.529C115.3 133.629 115.4 133.728 115.6 133.728C115.7 133.728 115.7 133.828 115.8 133.828C116 133.928 116.3 134.027 116.5 134.127H116.6C116.8 134.227 117 134.227 117.2 134.327C117.3 134.327 117.4 134.426 117.5 134.426C117.6 134.426 117.7 134.526 117.8 134.526C117.9 134.526 118 134.626 118.1 134.626C118.2 134.626 118.3 134.726 118.4 134.726C118.5 134.726 118.6 134.726 118.7 134.825C118.8 134.825 118.9 134.925 119.1 134.925C119.2 134.925 119.3 134.925 119.4 135.025C119.5 135.025 119.6 135.025 119.8 135.124C119.9 135.124 120 135.124 120.1 135.124C120.4 135.124 120.6 135.224 120.9 135.224H121C121.2 135.224 121.5 135.324 121.7 135.324C121.8 135.324 121.9 135.324 122 135.324C122.1 135.324 122.3 135.324 122.4 135.324C122.5 135.324 122.6 135.324 122.7 135.324C122.9 135.324 123 135.324 123.2 135.324C123.3 135.324 123.4 135.324 123.5 135.324C123.6 135.324 123.8 135.324 123.9 135.324C124 135.324 124.1 135.324 124.2 135.324C124.3 135.324 124.5 135.324 124.6 135.324C124.7 135.324 124.8 135.324 124.9 135.324C125 135.324 125.2 135.324 125.3 135.324C125.4 135.324 125.5 135.324 125.6 135.324C125.7 135.324 125.9 135.324 126 135.324C126.1 135.324 126.2 135.324 126.2 135.324C126.4 135.324 126.5 135.324 126.7 135.224C126.8 135.224 126.8 135.224 126.9 135.224C127.1 135.224 127.3 135.124 127.6 135.124H127.7C127.9 135.124 128.1 135.025 128.3 135.025C128.4 135.025 128.5 135.025 128.5 135.025C128.6 135.025 128.8 134.925 128.9 134.925C129 134.925 129 134.925 129.1 134.825C129.3 134.825 129.4 134.726 129.6 134.726C129.7 134.726 129.8 134.726 129.9 134.626C130 134.626 130.2 134.526 130.3 134.526C130.4 134.526 130.5 134.526 130.5 134.426C130.7 134.327 130.9 134.327 131.2 134.227H131.3C131.5 134.127 131.8 134.027 132 133.928C132.1 133.928 132.2 133.828 132.3 133.828C132.4 133.828 132.5 133.728 132.5 133.728C132.6 133.728 132.7 133.629 132.8 133.629C132.9 133.629 132.9 133.529 133 133.529C133.1 133.429 133.2 133.429 133.3 133.329C133.4 133.329 133.4 133.23 133.5 133.23C133.7 133.13 133.8 133.03 134 132.931C136.7 131.335 138.1 129.241 138 127.147L138.1 135.324C138.1 137.418 136.8 139.512 134.1 141.108C133.9 141.208 133.8 141.307 133.6 141.407C133.5 141.407 133.5 141.507 133.4 141.507C133.3 141.606 133.2 141.606 133.1 141.706C133 141.706 133 141.806 132.9 141.806C132.8 141.906 132.7 141.906 132.6 141.906C132.5 141.906 132.4 142.005 132.4 142.005C132.3 142.005 132.3 142.105 132.2 142.105C132.2 142.105 132.2 142.105 132.1 142.105C131.9 142.205 131.6 142.304 131.4 142.404H131.3C131.1 142.504 130.9 142.504 130.6 142.604H130.5H130.4C130.3 142.604 130.1 142.703 130 142.703C129.9 142.703 129.8 142.703 129.7 142.803C129.5 142.803 129.4 142.903 129.2 142.903C129.1 142.903 129.1 142.903 129 142.903C128.9 142.903 128.7 143.003 128.6 143.003C128.5 143.003 128.4 143.003 128.4 143.003C128.2 143.003 128 143.102 127.8 143.102H127.7C127.5 143.102 127.3 143.202 127 143.202C126.9 143.202 126.9 143.202 126.8 143.202C126.6 143.202 126.5 143.202 126.3 143.302C126.2 143.302 126.1 143.302 126.1 143.302C126 143.302 125.8 143.302 125.7 143.302C125.6 143.302 125.5 143.302 125.4 143.302C125.3 143.302 125.1 143.302 125 143.302C124.9 143.302 124.9 143.302 124.8 143.302C124.7 143.302 124.5 143.302 124.4 143.302C124.3 143.302 124.2 143.302 124.1 143.302C124 143.302 123.8 143.302 123.7 143.302H123.6C123.5 143.302 123.5 143.302 123.4 143.302C123.2 143.302 123.1 143.302 122.9 143.302C122.8 143.302 122.7 143.302 122.6 143.302C122.5 143.302 122.3 143.302 122.2 143.302C122.1 143.302 122.1 143.302 122 143.302H121.9C121.7 143.302 121.4 143.302 121.2 143.202H121.1C120.8 143.202 120.6 143.102 120.3 143.102C120.3 143.102 120.3 143.102 120.2 143.102C120.1 143.102 120.1 143.102 120 143.102C119.9 143.102 119.8 143.102 119.6 143.003C119.5 143.003 119.4 143.003 119.3 142.903C119.2 142.903 119.1 142.803 118.9 142.803C118.8 142.803 118.7 142.803 118.6 142.703C118.5 142.703 118.4 142.604 118.3 142.604C118.2 142.604 118.1 142.504 118 142.504C117.9 142.504 117.8 142.404 117.7 142.404H117.6H117.5C117.3 142.304 117.1 142.304 116.9 142.205H116.8C116.6 142.105 116.3 142.005 116.1 141.906C116 141.906 116 141.806 115.9 141.806C115.7 141.706 115.6 141.606 115.4 141.606C115.3 141.606 115.3 141.507 115.2 141.507C115 141.407 114.8 141.307 114.6 141.208C114.5 141.208 114.5 141.108 114.4 141.108C114.3 141.108 114.3 141.008 114.2 141.008C114.1 140.908 114 140.908 113.9 140.809C113.8 140.809 113.8 140.709 113.7 140.709C113.6 140.609 113.5 140.609 113.5 140.509C113.4 140.41 113.4 140.41 113.3 140.31C113.2 140.21 113.2 140.21 113.1 140.111C113 140.011 113 140.011 112.9 139.911C112.8 139.811 112.8 139.811 112.7 139.712C112.7 139.712 112.6 139.712 112.6 139.612C112.5 139.612 112.5 139.512 112.4 139.512C112.4 139.512 112.4 139.512 112.3 139.413C112.2 139.313 112.1 139.213 112 139.113C112 139.113 112 139.113 111.9 139.014C111.8 138.914 111.7 138.814 111.7 138.714C111.7 138.714 111.7 138.714 111.7 138.615C111.6 138.515 111.6 138.415 111.5 138.316C111.5 138.316 111.5 138.316 111.5 138.216C111.4 138.116 111.4 138.016 111.3 137.917C111.3 137.917 111.3 137.917 111.3 137.817C111.3 137.817 111.3 137.717 111.2 137.717C111.2 137.717 111.2 137.618 111.1 137.618C111.1 137.518 111 137.518 111 137.418C111 137.318 110.9 137.318 110.9 137.219C110.9 137.119 110.8 137.119 110.8 137.019V136.919V136.82C110.8 136.72 110.8 136.72 110.7 136.62C110.7 136.521 110.7 136.521 110.6 136.421C110.6 136.321 110.6 136.321 110.5 136.221V136.122C110.5 136.122 110.5 136.122 110.5 136.022C110.5 135.922 110.5 135.922 110.5 135.822C110.5 135.723 110.5 135.723 110.5 135.623C110.5 135.523 110.5 135.523 110.5 135.424V135.324V135.224L110.4 127.047C110.4 127.246 110.4 127.346 110.4 127.346Z" fill="#FFD394"/>
<path d="M138.4 127.745C138.9 125.352 137.6 122.859 134.4 121.064C129 117.972 120.2 118.072 114.8 121.263C111.6 123.158 110.3 125.651 110.9 128.044" stroke="#171A21" stroke-width="2" stroke-miterlimit="10" stroke-linecap="round" stroke-linejoin="round"/>
<path d="M79.7003 23.0356C78.6003 23.0356 77.8003 23.9332 77.8003 24.9304V84.9636C77.8003 86.0606 78.7003 86.8584 79.7003 86.8584C80.8003 86.8584 81.6003 85.9609 81.6003 84.9636V24.9304C81.6003 23.8334 80.7003 23.0356 79.7003 23.0356Z" fill="#FFD394"/>
<path d="M103.1 28.4209V28.3212V28.2214C103.1 28.2214 103.1 28.2214 103.1 28.1217V28.022V27.9223C103.1 27.9223 103.1 27.9223 103.1 27.8226V27.7228V27.6231V27.5234V27.4237V27.3239V27.2242V27.1245V27.0248V26.925C103.1 26.925 103.1 26.925 103.1 26.8253C103.1 26.8253 103.1 26.7256 103 26.7256C103 26.7256 103 26.6259 102.9 26.6259C102.9 26.6259 102.9 26.6259 102.9 26.5262C102.9 26.4264 102.8 26.3267 102.8 26.227C102.8 26.227 102.8 26.227 102.8 26.1273V26.0275C102.7 25.9278 102.7 25.8281 102.6 25.7284C102.6 25.7284 102.6 25.6286 102.5 25.6286L102.4 25.5289L102.3 25.4292C102.3 25.4292 102.3 25.4292 102.2 25.3295L102.1 25.2298L102 25.13C102 25.13 102 25.13 101.9 25.0303L101.8 24.9306L101.7 24.8309C101.7 24.8309 101.6 24.8309 101.6 24.7311L94.6003 19.5455C94.4003 19.4458 94.2003 19.2464 94.0003 19.0469C93.8003 18.8475 93.7003 18.648 93.5003 18.4486C93.3003 18.2491 93.2003 18.0497 93.1003 17.7505C93.0003 17.5511 92.9003 17.2519 92.8003 17.0525L89.7003 7.97768V7.87795V7.77823V7.67851C89.7003 7.67851 89.7003 7.57878 89.6003 7.57878V7.47906C89.6003 7.47906 89.6003 7.37934 89.5003 7.37934C89.5003 7.37934 89.5003 7.27962 89.4003 7.27962C89.4003 7.27962 89.4003 7.17989 89.3003 7.17989C89.3003 7.08017 89.2003 7.08017 89.2003 6.98045C89.2003 6.98045 89.2003 6.98045 89.2003 6.88072C89.2003 6.781 89.1003 6.781 89.1003 6.68128L89.0003 6.58155L88.9003 6.48183L88.8003 6.38211L88.7003 6.28239C88.7003 6.28239 88.7003 6.28239 88.6003 6.18266L88.5003 6.08294L88.4003 5.98322C88.4003 5.98322 88.4003 5.98322 88.3003 5.88349L88.2003 5.78377L88.1003 5.68405C88.1003 5.68405 88.0003 5.68405 88.0003 5.58432C88.0003 5.58432 87.9003 5.58433 87.9003 5.4846C87.9003 5.4846 87.8003 5.4846 87.8003 5.38488H87.7003C87.7003 5.38488 87.6003 5.38488 87.6003 5.28516H87.5003H87.4003H87.3003H87.2003H87.1003H87.0003H86.9003C86.9003 5.28516 86.9003 5.28516 86.8003 5.28516H86.7003H86.6003H86.5003C86.4003 5.28516 86.4003 5.28516 86.3003 5.28516C86.2003 5.28516 86.2003 5.38488 86.1003 5.38488L77.4003 10.4708L73.7003 8.97491H73.6003H73.5003H73.4003C73.4003 8.97491 73.4003 8.97491 73.3003 8.97491H73.2003H73.1003H73.0003H72.9003H72.8003C72.8003 8.97491 72.8003 8.97491 72.7003 8.97491C72.7003 8.97491 72.7003 8.97491 72.6003 8.97491C72.5003 8.97491 72.5003 9.07463 72.4003 9.07463L61.8003 15.2575C61.9003 15.2575 62.0003 15.1577 62.1003 15.1577C62.2003 15.1577 62.3003 15.1577 62.4003 15.1577C62.5003 15.1577 62.6003 15.1577 62.8003 15.1577C62.9003 15.1577 63.1003 15.2575 63.2003 15.2575L70.2003 18.1494H70.3003H70.4003H70.5003C70.5003 18.1494 70.5003 18.1494 70.6003 18.1494H70.7003H70.8003H70.9003H71.0003H71.1003C71.1003 18.1494 71.1003 18.1494 71.2003 18.1494C71.2003 18.1494 71.2003 18.1494 71.3003 18.1494C71.4003 18.1494 71.4003 18.0497 71.5003 18.0497L79.0003 13.6619C79.1003 13.7616 79.1003 13.9611 79.2003 14.0608C79.3003 14.2602 79.3003 14.3599 79.4003 14.5594L82.5003 23.6342V23.7339V23.8336V23.9334V24.0331C82.5003 24.0331 82.5003 24.1328 82.6003 24.1328C82.6003 24.1328 82.6003 24.2325 82.7003 24.2325C82.7003 24.2325 82.7003 24.2325 82.7003 24.3322C82.7003 24.3322 82.7003 24.3322 82.7003 24.432C82.7003 24.5317 82.8003 24.5317 82.8003 24.6314C82.9003 24.7311 82.9003 24.8309 83.0003 24.9306C83.0003 24.9306 83.0003 25.0303 83.1003 25.0303C83.1003 25.0303 83.1003 25.13 83.2003 25.13L83.3003 25.2298L83.4003 25.3295L83.5003 25.4292L83.6003 25.5289L83.7003 25.6286L83.8003 25.7284L83.9003 25.8281L84.0003 25.9278C84.0003 25.9278 84.1003 25.9278 84.1003 26.0275L91.1003 31.2131C91.2003 31.3129 91.3003 31.4126 91.5003 31.5123C91.6003 31.612 91.7003 31.7117 91.8003 31.8115C91.9003 31.9112 92.0003 32.0109 92.1003 32.1106C92.2003 32.2104 92.3003 32.3101 92.3003 32.5095C92.4003 32.6093 92.4003 32.709 92.5003 32.9084C92.6003 33.0082 92.6003 33.2076 92.7003 33.3073C92.8003 33.407 92.8003 33.6065 92.9003 33.7062C92.9003 33.8059 93.0003 34.0054 93.0003 34.1051C93.0003 34.2048 93.1003 34.4043 93.1003 34.504C93.1003 34.6037 93.1003 34.8032 93.1003 34.9029C93.1003 35.0026 93.1003 35.1023 93.1003 35.3018C93.1003 35.4015 93.1003 35.5012 93.1003 35.6009C93.1003 35.7007 93.0003 35.8004 93.0003 35.9001C93.0003 35.9998 92.9003 35.9998 92.9003 36.0996L87.3003 39.3904C87.2003 39.3904 87.2003 39.4901 87.1003 39.5899C87.1003 39.5899 87.1003 39.5899 87.0003 39.6896L86.9003 39.7893V39.889C86.9003 39.889 86.9003 39.889 86.9003 39.9888C86.9003 39.9888 86.9003 40.0885 86.8003 40.0885V40.1882V40.2879V40.3877V40.4874C86.8003 40.4874 86.8003 40.4874 86.8003 40.5871V40.6868V40.7865C86.8003 40.7865 86.8003 40.7865 86.8003 40.8863V40.986V41.0857L88.0003 49.7616C88.0003 49.8613 88.0003 49.9611 88.0003 50.1605C88.0003 50.2602 88.0003 50.36 88.0003 50.4597C88.0003 50.5594 88.0003 50.6591 88.0003 50.7588C88.0003 50.8586 88.0003 50.9583 87.9003 50.9583C87.9003 51.058 87.8003 51.058 87.8003 51.1577C87.8003 51.1577 87.8003 51.1577 87.8003 51.2575C87.8003 51.2575 87.8003 51.3572 87.7003 51.3572C87.7003 51.4569 87.6003 51.4569 87.6003 51.5566C87.6003 51.5566 87.6003 51.5566 87.5003 51.6564C87.4003 51.7561 87.4003 51.7561 87.3003 51.8558L97.9003 45.673C98.0003 45.673 98.0003 45.5732 98.1003 45.4735C98.1003 45.4735 98.1003 45.4735 98.2003 45.3738L98.3003 45.2741C98.3003 45.2741 98.3003 45.2741 98.3003 45.1744C98.3003 45.1744 98.3003 45.1744 98.3003 45.0746C98.3003 45.0746 98.3003 44.9749 98.4003 44.9749C98.4003 44.9749 98.4003 44.9749 98.4003 44.8752V44.7755C98.4003 44.7755 98.4003 44.7755 98.4003 44.6757V44.576V44.4763C98.4003 44.4763 98.4003 44.4763 98.4003 44.3766V44.2769V44.1771V44.0774V43.9777V43.878L97.2003 35.2021C97.2003 35.1023 97.2003 35.0026 97.2003 34.9029C97.2003 34.8032 97.2003 34.7034 97.2003 34.6037C97.2003 34.504 97.2003 34.4043 97.2003 34.3046C97.2003 34.2048 97.2003 34.1051 97.3003 34.1051C97.3003 34.0054 97.4003 34.0054 97.4003 33.9057C97.4003 33.9057 97.4003 33.9057 97.4003 33.8059L103 30.6148C103.1 30.6148 103.2 30.5151 103.2 30.4154C103.2 30.4154 103.2 30.3156 103.3 30.3156C103.3 30.3156 103.4 30.2159 103.4 30.1162C103.4 30.0165 103.5 30.0165 103.5 29.9167C103.5 29.9167 103.5 29.9167 103.5 29.817V29.7173V29.6176V29.5178V29.4181V29.3184C103.1 28.5206 103.1 28.5206 103.1 28.4209C103.1 28.4209 103.1 28.5206 103.1 28.4209Z" fill="#FFD394"/>
<path d="M76.3001 10.7701C77.2001 11.2687 78.0001 12.2659 78.5001 13.5623L81.6001 22.6371C82.0001 23.6344 82.6001 24.6316 83.4001 25.2299L90.4001 30.4155C92.4001 31.9114 93.2001 35.2022 91.7001 35.9003L86.6001 38.5928C86.0001 38.892 85.8001 39.6898 85.9001 40.687L87.1001 49.3629C87.4001 51.3574 86.1001 52.0554 84.7001 51.2576C84.3001 51.0582 83.9001 50.759 83.6001 50.2604L77.3001 42.8809C76.9001 42.482 76.6001 42.0831 76.2001 41.8837C75.8001 41.6842 75.4001 41.5845 75.1001 41.5845L68.8001 41.8837C68.4001 41.8837 68.0001 41.784 67.7001 41.5845C66.3001 40.7867 65.0001 38.5928 65.3001 36.9973L66.5001 29.7175C66.6001 28.9197 66.4001 27.8227 65.8001 26.8255L60.7001 18.2493C59.3001 15.856 60.1001 13.4626 62.1001 14.2604L69.1001 17.1524C69.9001 17.4515 70.6001 17.2521 70.9001 16.6538L74.1001 11.169C74.6001 10.3712 75.5001 10.2715 76.3001 10.7701Z" fill="white"/>
<path d="M87.2001 49.4622C87.5001 51.4567 86.2001 52.1547 84.8001 51.357C84.4001 51.1575 84.0001 50.8583 83.7001 50.3597L77.4001 42.9802C77.0001 42.5813 76.7001 42.1824 76.3001 41.983C75.9001 41.7835 75.5001 41.6838 75.2001 41.6838L68.8001 41.8833C68.4001 41.8833 68.0001 41.7836 67.7001 41.5841C66.3001 40.7863 65.0001 38.5924 65.3001 36.9968L66.5001 29.7171C66.6001 28.9193 66.4001 27.8223 65.8001 26.8251L60.7001 18.2489C59.3001 15.8556 60.1001 13.4622 62.1001 14.26" stroke="#171A21" stroke-width="2" stroke-miterlimit="10" stroke-linecap="round" stroke-linejoin="round"/>
<path d="M27.7003 15.0581C26.6003 15.0581 25.8003 15.9556 25.8003 16.9528V76.9861C25.8003 78.083 26.7003 78.8808 27.7003 78.8808C28.8003 78.8808 29.6003 77.9833 29.6003 76.9861V16.9528C29.6003 15.8559 28.7003 15.0581 27.7003 15.0581Z" fill="#FFD394"/>
<path d="M47.3003 31.313C47.3003 31.2133 47.3003 31.1136 47.3003 31.1136C47.3003 31.1136 47.3003 31.1136 47.3003 31.0139V30.9141V30.8144C47.3003 30.8144 47.3003 30.8144 47.3003 30.7147V30.615V30.5152C47.3003 30.5152 47.3003 30.5152 47.3003 30.4155V30.3158V30.2161V30.1163V30.0166V29.9169V29.8172C47.3003 29.8172 47.3003 29.8172 47.3003 29.7175V29.6177C47.3003 29.6177 47.3003 29.518 47.2003 29.518C47.2003 29.518 47.2003 29.518 47.2003 29.4183C47.2003 29.3186 47.1003 29.3186 47.1003 29.2188C47.1003 29.2188 47.1003 29.2188 47.1003 29.1191C47.1003 29.1191 47.1003 29.1191 47.1003 29.0194C47.1003 28.9197 47.0003 28.9197 47.0003 28.8199C47.0003 28.8199 47.0003 28.8199 46.9003 28.7202L46.8003 28.6205C46.8003 28.6205 46.8003 28.5208 46.7003 28.5208L46.6003 28.4211L46.5003 28.3213L46.4003 28.2216L46.3003 28.1219C46.3003 28.1219 46.2003 28.1219 46.2003 28.0222L40.4003 23.7341C40.2003 23.6344 40.1003 23.4349 39.9003 23.3352C39.8003 23.1357 39.6003 23.036 39.5003 22.8366C39.4003 22.6371 39.3003 22.4377 39.2003 22.2382C39.1003 22.0388 39.0003 21.8393 38.9003 21.6399L36.3003 14.1607V14.0609V13.9612V13.8615V13.7618V13.6621V13.5623C36.3003 13.5623 36.3003 13.4626 36.2003 13.4626C36.2003 13.4626 36.2003 13.3629 36.1003 13.3629C36.1003 13.2632 36.0003 13.2632 36.0003 13.1634C36.0003 13.1634 36.0003 13.1634 36.0003 13.0637C36.0003 12.964 35.9003 12.964 35.9003 12.8643L35.8003 12.7645C35.8003 12.7645 35.8003 12.6648 35.7003 12.6648C35.7003 12.6648 35.7003 12.5651 35.6003 12.5651L35.5003 12.4654C35.5003 12.4654 35.5003 12.4654 35.4003 12.3657L35.3003 12.2659L35.2003 12.1662C35.2003 12.1662 35.2003 12.1662 35.1003 12.0665L35.0003 11.9668C35.0003 11.9668 34.9003 11.9668 34.9003 11.867C34.9003 11.867 34.9003 11.867 34.8003 11.7673C34.8003 11.7673 34.7003 11.7673 34.7003 11.6676C34.7003 11.6676 34.6003 11.6676 34.6003 11.5679C34.6003 11.5679 34.6003 11.5679 34.5003 11.5679H34.4003H34.3003H34.2003C34.2003 11.5679 34.2003 11.5679 34.1003 11.5679H34.0003H33.9003H33.8003H33.7003C33.7003 11.5679 33.7003 11.5679 33.6003 11.5679H33.5003H33.4003H33.3003H33.2003C33.1003 11.5679 33.1003 11.5679 33.0003 11.6676L25.8003 15.856L22.7003 14.5596H22.6003H22.5003H22.4003C22.4003 14.5596 22.4003 14.5596 22.3003 14.5596H22.2003H22.1003H22.0003H21.9003H21.8003C21.8003 14.5596 21.8003 14.5596 21.7003 14.5596C21.6003 14.5596 21.6003 14.5596 21.5003 14.6593L12.8003 19.7452C12.9003 19.7452 12.9003 19.6454 13.0003 19.6454C13.1003 19.6454 13.2003 19.6454 13.2003 19.6454C13.3003 19.6454 13.4003 19.6454 13.5003 19.6454C13.6003 19.6454 13.7003 19.7452 13.8003 19.7452L19.6003 22.1385H19.7003H19.8003H19.9003C19.9003 22.1385 19.9003 22.1385 20.0003 22.1385H20.1003H20.2003H20.3003H20.4003H20.5003C20.5003 22.1385 20.5003 22.1385 20.6003 22.1385C20.7003 22.1385 20.7003 22.1385 20.8003 22.0388L27.0003 18.4488C27.1003 18.5485 27.1003 18.6482 27.2003 18.7479C27.3003 18.8476 27.3003 19.0471 27.4003 19.1468L30.0003 26.626V26.7258V26.8255V26.9252V27.0249V27.1247V27.2244C30.0003 27.2244 30.0003 27.2244 30.0003 27.3241C30.0003 27.4238 30.1003 27.4238 30.1003 27.5236C30.2003 27.6233 30.2003 27.723 30.3003 27.8227C30.3003 27.8227 30.3003 27.8227 30.3003 27.9224C30.3003 27.9224 30.3003 28.0222 30.4003 28.0222L30.5003 28.1219L30.6003 28.2216L30.7003 28.3213L30.8003 28.4211L30.9003 28.5208L31.0003 28.6205L31.1003 28.7202C31.1003 28.7202 31.2003 28.7202 31.2003 28.8199C31.2003 28.8199 31.3003 28.8199 31.3003 28.9197L37.1003 33.2078C37.2003 33.3075 37.3003 33.4072 37.4003 33.4072C37.5003 33.5069 37.6003 33.6067 37.7003 33.7064C37.8003 33.8061 37.9003 33.9058 37.9003 34.0055C38.0003 34.1053 38.0003 34.205 38.1003 34.3047C38.2003 34.4044 38.2003 34.5042 38.3003 34.6039C38.4003 34.7036 38.4003 34.8033 38.5003 34.9031C38.5003 35.0028 38.6003 35.1025 38.6003 35.2022C38.6003 35.3019 38.7003 35.4017 38.7003 35.5014C38.7003 35.6011 38.7003 35.7008 38.8003 35.8006C38.8003 35.9003 38.8003 36 38.8003 36.0997C38.8003 36.1995 38.8003 36.2992 38.8003 36.3989C38.8003 36.4986 38.8003 36.5983 38.8003 36.6981C38.8003 36.7978 38.8003 36.8975 38.7003 36.8975C38.7003 36.8975 38.7003 36.9972 38.6003 36.9972L33.8003 39.8892C33.7003 39.8892 33.7003 39.9889 33.6003 39.9889C33.6003 39.9889 33.6003 39.9889 33.6003 40.0886L33.5003 40.1884C33.5003 40.1884 33.5003 40.1884 33.5003 40.2881V40.3878V40.4875C33.5003 40.4875 33.5003 40.4875 33.5003 40.5873V40.687V40.7867V40.8864V40.9862C33.5003 40.9862 33.5003 40.9862 33.5003 41.0859V41.1856V41.2853L34.5003 48.4654C34.5003 48.5651 34.5003 48.6648 34.5003 48.7646C34.5003 48.8643 34.5003 48.964 34.5003 49.0637C34.5003 49.1634 34.5003 49.2632 34.5003 49.2632C34.5003 49.3629 34.5003 49.3629 34.4003 49.4626C34.4003 49.5623 34.4003 49.5623 34.3003 49.6621C34.3003 49.6621 34.3003 49.7618 34.2003 49.7618L34.1003 49.8615C34.0003 49.8615 34.0003 49.9612 33.9003 49.9612L42.6003 44.8754C42.7003 44.8754 42.7003 44.7756 42.8003 44.7756L42.9003 44.6759C42.9003 44.6759 42.9003 44.6759 42.9003 44.5762V44.4765C42.9003 44.4765 42.9003 44.4765 42.9003 44.3767V44.277V44.1773V44.0776C42.9003 44.0776 42.9003 44.0776 42.9003 43.9778V43.8781V43.7784C42.9003 43.7784 42.9003 43.7784 42.9003 43.6787V43.579V43.4792L41.9003 36.2992C41.9003 36.1995 41.9003 36.0997 41.9003 36C41.9003 35.9003 41.9003 35.8006 41.9003 35.7008C41.9003 35.6011 41.9003 35.5014 41.9003 35.5014C41.9003 35.4017 41.9003 35.4017 42.0003 35.3019C42.0003 35.2022 42.0003 35.2022 42.1003 35.1025L46.7003 32.41C46.8003 32.41 46.8003 32.3103 46.9003 32.3103C46.9003 32.3103 46.9003 32.3103 47.0003 32.2105L47.1003 32.1108L47.2003 32.0111C47.2003 32.0111 47.2003 32.0111 47.2003 31.9114V31.8116V31.7119V31.6122V31.5125C47.3003 31.5125 47.3003 31.4127 47.3003 31.313C47.3003 31.4127 47.3003 31.4127 47.3003 31.313C47.3003 31.4127 47.3003 31.4127 47.3003 31.313C47.3003 31.313 47.3003 31.4127 47.3003 31.313Z" fill="#FFD394"/>
<path d="M25.3002 16.853C26.0002 17.2519 26.7002 18.0497 27.1002 19.1466L29.7002 26.6259C30.0002 27.4237 30.5002 28.2214 31.2002 28.7201L37.0002 33.0081C38.6002 34.2048 39.3002 36.8973 38.1002 37.5954L33.9002 39.889C33.4002 40.1882 33.2002 40.7865 33.3002 41.5843L34.3002 48.7644C34.5002 50.3599 33.5002 50.9583 32.3002 50.3599C32.0002 50.1605 31.7002 49.9611 31.4002 49.5622L26.2002 43.4791C25.9002 43.1799 25.6002 42.8807 25.3002 42.6813C25.0002 42.4818 24.7002 42.3821 24.4002 42.3821L19.2002 42.4818C18.9002 42.4818 18.6002 42.3821 18.3002 42.1827C17.1002 41.4846 16.1002 39.6896 16.3002 38.3932L17.3002 32.4098C17.4002 31.7117 17.2002 30.8142 16.7002 30.0165L12.5002 22.9361C11.3002 20.9417 12.0002 19.0469 13.6002 19.6453L19.4002 22.0386C20.1002 22.3378 20.6002 22.1383 20.9002 21.6397L23.5002 17.1522C23.8002 16.4541 24.6002 16.4541 25.3002 16.853Z" fill="white"/>
<path d="M34.2001 48.665C34.4001 50.2605 33.4001 50.8589 32.2001 50.2605C31.9001 50.0611 31.6001 49.8616 31.3001 49.4627L26.1001 43.3796C25.8001 43.0805 25.5001 42.7813 25.2001 42.5819C24.9001 42.3824 24.6001 42.2827 24.3001 42.2827L19.1001 42.3824C18.8001 42.3824 18.5001 42.2827 18.2001 42.0832C17.0001 41.3852 16.0001 39.5902 16.2001 38.2938L17.2001 32.3104C17.3001 31.6123 17.1001 30.7148 16.6001 29.917L12.4001 22.8367C11.2001 20.8422 11.9001 18.9475 13.5001 19.5458" stroke="#171A21" stroke-width="2" stroke-miterlimit="10" stroke-linecap="round" stroke-linejoin="round"/>
<path d="M123.7 62.9253C122.6 62.9253 121.8 63.8228 121.8 64.82V124.853C121.8 125.95 122.7 126.748 123.7 126.748C124.8 126.748 125.6 125.851 125.6 124.853V64.82C125.6 63.7231 124.7 62.9253 123.7 62.9253Z" fill="#FFD394"/>
<path d="M143.3 79.1802C143.3 79.0805 143.3 78.9808 143.3 78.9808C143.3 78.9808 143.3 78.9808 143.3 78.881V78.7813V78.6816C143.3 78.6816 143.3 78.6816 143.3 78.5819V78.4821V78.3824C143.3 78.3824 143.3 78.3824 143.3 78.2827V78.183V78.0833V77.9835V77.8838V77.7841V77.6844C143.3 77.6844 143.3 77.6844 143.3 77.5846V77.4849C143.3 77.4849 143.3 77.3852 143.2 77.3852C143.2 77.3852 143.2 77.3852 143.2 77.2855C143.2 77.1858 143.1 77.1858 143.1 77.086C143.1 77.086 143.1 77.086 143.1 76.9863C143.1 76.9863 143.1 76.9863 143.1 76.8866C143.1 76.7869 143 76.7869 143 76.6871C143 76.6871 143 76.6871 142.9 76.5874L142.8 76.4877C142.8 76.4877 142.8 76.388 142.7 76.388L142.6 76.2882L142.5 76.1885L142.4 76.0888L142.3 75.9891C142.3 75.9891 142.2 75.9891 142.2 75.8894L136.4 71.6013C136.2 71.5015 136.1 71.3021 135.9 71.2024C135.8 71.0029 135.6 70.9032 135.5 70.7038C135.4 70.5043 135.3 70.3049 135.2 70.1054C135.1 69.906 135 69.7065 134.9 69.5071L132.3 62.0279V61.9281V61.8284V61.7287V61.629V61.5292V61.4295C132.3 61.4295 132.3 61.3298 132.2 61.3298C132.2 61.3298 132.2 61.2301 132.1 61.2301C132.1 61.1304 132 61.1304 132 61.0306C132 61.0306 132 61.0306 132 60.9309C132 60.8312 131.9 60.8312 131.9 60.7315L131.8 60.6317C131.8 60.6317 131.8 60.532 131.7 60.532C131.7 60.532 131.7 60.4323 131.6 60.4323L131.5 60.3326C131.5 60.3326 131.5 60.3326 131.4 60.2328L131.3 60.1331L131.2 60.0334C131.2 60.0334 131.2 60.0334 131.1 59.9337L131 59.834C131 59.834 130.9 59.834 130.9 59.7342C130.9 59.7342 130.9 59.7342 130.8 59.6345C130.8 59.6345 130.7 59.6345 130.7 59.5348C130.7 59.5348 130.6 59.5348 130.6 59.4351C130.6 59.4351 130.6 59.4351 130.5 59.4351H130.4H130.3H130.2C130.2 59.4351 130.2 59.4351 130.1 59.4351H130H129.9H129.8H129.7C129.7 59.4351 129.7 59.4351 129.6 59.4351H129.5H129.4H129.3H129.2C129.1 59.4351 129.1 59.4351 129 59.5348L121.8 63.7232L118.7 62.4267H118.6H118.5H118.4C118.4 62.4267 118.4 62.4267 118.3 62.4267H118.2H118.1H118H117.9H117.8C117.8 62.4267 117.8 62.4267 117.7 62.4267C117.6 62.4267 117.6 62.4268 117.5 62.5265L108.8 67.6123C108.9 67.6123 108.9 67.5126 109 67.5126C109.1 67.5126 109.2 67.5126 109.2 67.5126C109.3 67.5126 109.4 67.5126 109.5 67.5126C109.6 67.5126 109.7 67.6123 109.8 67.6123L115.6 70.0057H115.7H115.8H115.9C115.9 70.0057 115.9 70.0057 116 70.0057H116.1H116.2H116.3H116.4H116.5C116.5 70.0057 116.5 70.0057 116.6 70.0057C116.7 70.0057 116.7 70.0057 116.8 69.906L123 66.3159C123.1 66.4157 123.1 66.5154 123.2 66.6151C123.3 66.7148 123.3 66.9143 123.4 67.014L126 74.4932V74.593V74.6927V74.7924V74.8921V74.9918V75.0916C126 75.0916 126 75.0916 126 75.1913C126 75.291 126.1 75.291 126.1 75.3907C126.2 75.4905 126.2 75.5902 126.3 75.6899C126.3 75.6899 126.3 75.6899 126.3 75.7896C126.3 75.7896 126.3 75.8894 126.4 75.8894L126.5 75.9891L126.6 76.0888L126.7 76.1885L126.8 76.2882L126.9 76.388L127 76.4877L127.1 76.5874C127.1 76.5874 127.2 76.5874 127.2 76.6871C127.2 76.6871 127.3 76.6871 127.3 76.7869L133.1 81.075C133.2 81.1747 133.3 81.2744 133.4 81.2744C133.5 81.3741 133.6 81.4738 133.7 81.5736C133.8 81.6733 133.9 81.773 133.9 81.8727C134 81.9725 134 82.0722 134.1 82.1719C134.2 82.2716 134.2 82.3713 134.3 82.4711C134.4 82.5708 134.4 82.6705 134.5 82.7702C134.5 82.87 134.6 82.9697 134.6 83.0694C134.6 83.1691 134.7 83.2689 134.7 83.3686C134.7 83.4683 134.7 83.568 134.8 83.6678C134.8 83.7675 134.8 83.8672 134.8 83.9669C134.8 84.0666 134.8 84.1664 134.8 84.2661C134.8 84.3658 134.8 84.4655 134.8 84.5653C134.8 84.665 134.8 84.7647 134.7 84.7647C134.7 84.7647 134.7 84.8644 134.6 84.8644L130 87.5569C129.9 87.5569 129.9 87.6567 129.8 87.6567C129.8 87.6567 129.8 87.6567 129.8 87.7564L129.7 87.8561C129.7 87.8561 129.7 87.8561 129.7 87.9558V88.0556V88.1553C129.7 88.1553 129.7 88.1553 129.7 88.255V88.3547V88.4544V88.5542V88.6539C129.7 88.6539 129.7 88.6539 129.7 88.7536V88.8533V88.9531L130.7 96.1331C130.7 96.2328 130.7 96.3326 130.7 96.4323C130.7 96.532 130.7 96.6317 130.7 96.7315C130.7 96.8312 130.7 96.9309 130.7 96.9309C130.7 97.0306 130.7 97.0306 130.6 97.1304C130.6 97.2301 130.6 97.2301 130.5 97.3298C130.5 97.3298 130.5 97.4295 130.4 97.4295L130.3 97.5292C130.2 97.5292 130.2 97.629 130.1 97.629L138.8 92.5431C138.9 92.5431 138.9 92.4434 139 92.4434L139.1 92.3436C139.1 92.3436 139.1 92.3436 139.1 92.2439V92.1442C139.1 92.1442 139.1 92.1442 139.1 92.0445V91.9448V91.845V91.7453C139.1 91.7453 139.1 91.7453 139.1 91.6456V91.5459V91.4461C139.1 91.4461 139.1 91.4461 139.1 91.3464V91.2467V91.147L138.1 83.9669C138.1 83.8672 138.1 83.7675 138.1 83.6678C138.1 83.568 138.1 83.4683 138.1 83.3686C138.1 83.2689 138.1 83.1691 138.1 83.1691C138.1 83.0694 138.1 83.0694 138.2 82.9697C138.2 82.87 138.2 82.87 138.3 82.7702L142.9 80.0777C143 80.0777 143 79.978 143.1 79.978C143.1 79.978 143.1 79.978 143.2 79.8783L143.3 79.7786L143.4 79.6788C143.4 79.6788 143.4 79.6788 143.4 79.5791V79.4794V79.3797V79.2799V79.1802C143.3 79.3797 143.3 79.2799 143.3 79.1802C143.3 79.2799 143.3 79.2799 143.3 79.1802C143.3 79.2799 143.3 79.2799 143.3 79.1802C143.3 79.1802 143.3 79.2799 143.3 79.1802Z" fill="#FFD394"/>
<path d="M121.3 64.7202C122 65.1191 122.7 65.9169 123.1 67.0138L125.7 74.4931C126 75.2908 126.5 76.0886 127.2 76.5872L133 80.8753C134.6 82.072 135.3 84.7645 134.1 85.4626L129.9 87.7562C129.4 88.0554 129.2 88.6537 129.3 89.4515L130.3 96.6316C130.5 98.2271 129.5 98.8255 128.3 98.2271C128 98.0277 127.7 97.8282 127.4 97.4294L122.2 91.3462C121.9 91.0471 121.6 90.7479 121.3 90.5485C121 90.349 120.7 90.2493 120.4 90.2493L115.2 90.349C114.9 90.349 114.6 90.2493 114.3 90.0499C113.1 89.3518 112.1 87.5568 112.3 86.2604L113.3 80.277C113.4 79.5789 113.2 78.6814 112.7 77.8836L108.5 70.8033C107.3 68.8088 108 66.9141 109.6 67.5124L115.4 69.9058C116.1 70.205 116.6 70.0055 116.9 69.5069L119.5 65.0194C119.8 64.3213 120.6 64.3213 121.3 64.7202Z" fill="white"/>
<path d="M130.2 96.5321C130.4 98.1277 129.4 98.7261 128.2 98.1277C127.9 97.9283 127.6 97.7288 127.3 97.3299L122.1 91.2468C121.8 90.9477 121.5 90.6485 121.2 90.449C120.9 90.2496 120.6 90.1499 120.3 90.1499L115.1 90.2496C114.8 90.2496 114.5 90.1499 114.2 89.9504C113 89.2524 112 87.4574 112.2 86.161L113.2 80.1776C113.3 79.4795 113.1 78.582 112.6 77.7842L108.4 70.7039C107.2 68.7094 107.9 66.8147 109.5 67.413" stroke="#171A21" stroke-width="2" stroke-miterlimit="10" stroke-linecap="round" stroke-linejoin="round"/>
</g>
<defs>
<clipPath id="clip0">
<rect width="144" height="144" fill="white"/>
</clipPath>
</defs>
</svg>
