<?xml version="1.0" encoding="utf-8"?>
<!-- Generator: Adobe Illustrator 22.1.0, SVG Export Plug-In . SVG Version: 6.00 Build 0)  -->
<svg version="1.1" id="Слой_1" xmlns="http://www.w3.org/2000/svg" xmlns:xlink="http://www.w3.org/1999/xlink" x="0px" y="0px"
	 viewBox="0 0 625 456.9" style="enable-background:new 0 0 625 456.9;" xml:space="preserve">
<style type="text/css">
	.st0{fill:#FFFFFF;}
	.st1{fill:none;stroke:#171A21;stroke-width:2;stroke-linecap:round;stroke-linejoin:round;stroke-miterlimit:10;}
	.st2{fill:#2F58FF;}
</style>
<g>
	<g>
		<path class="st0" d="M374,12.4L356.6,2.2c0,0-0.1,0-0.1-0.1c0,0-0.1,0-0.1-0.1c-0.2-0.1-0.5-0.2-0.7-0.3c0,0-0.1,0-0.1-0.1h-0.1
			c-0.3-0.1-0.6-0.2-0.9-0.3s-0.6-0.2-1-0.2h-0.1c0,0-0.1,0-0.2,0c-0.3,0-0.6-0.1-0.9-0.1h-0.1c-0.4,0-0.7,0-1.1,0h-0.1H351
			c-0.4,0-0.8,0.1-1.3,0.1c-0.5,0.1-1.1,0.2-1.6,0.3H348c-0.3,0.1-0.7,0.2-1,0.3c-0.1,0-0.1,0.1-0.2,0.1c-0.3,0.1-0.6,0.2-0.8,0.3
			h-0.1c-0.1,0-0.1,0.1-0.2,0.1c-0.3,0.1-0.6,0.3-0.9,0.4c-0.1,0.1-0.2,0.1-0.3,0.2c-0.4,0.2-0.8,0.4-1.2,0.7c-0.5,0.3-1,0.6-1.5,1
			c-0.2,0.1-0.3,0.2-0.5,0.3c-0.3,0.2-0.7,0.5-1,0.8c-0.2,0.1-0.4,0.3-0.5,0.4c-0.3,0.3-0.7,0.5-1,0.8c-0.2,0.1-0.3,0.3-0.5,0.4
			c-0.4,0.4-0.8,0.7-1.2,1.1c-0.1,0.1-0.1,0.1-0.2,0.2c-0.1,0.1-0.2,0.2-0.3,0.3c-0.3,0.3-0.6,0.6-0.9,0.9c-0.1,0.1-0.3,0.3-0.4,0.4
			c-0.2,0.2-0.3,0.4-0.5,0.5c-0.1,0.1-0.1,0.1-0.2,0.2c-0.2,0.3-0.5,0.6-0.7,0.9l-4.5-2.6L329.3,9c-0.1,0-0.1-0.1-0.2-0.1
			c-0.3-0.2-0.6-0.3-0.9-0.4c-0.1,0-0.1-0.1-0.2-0.1s-0.1,0-0.2-0.1c-0.3-0.1-0.7-0.3-1-0.4h-0.1c-0.4-0.1-0.8-0.2-1.3-0.3h-0.1
			c-0.1,0-0.1,0-0.2,0c-0.4-0.1-0.7-0.1-1.1-0.1c-0.1,0-0.1,0-0.2,0h-0.1c-0.5,0-1,0-1.5,0h-0.1c-0.1,0-0.1,0-0.2,0
			c-0.5,0-1,0.1-1.6,0.2h-0.1c0,0,0,0-0.1,0s-0.3,0.1-0.4,0.1c-0.2,0-0.5,0.1-0.7,0.1S318.7,8,318.5,8s-0.3,0.1-0.5,0.1h-0.1
			c-0.4,0.1-0.8,0.2-1.2,0.4c-0.1,0-0.1,0-0.2,0.1c-0.5,0.2-0.9,0.3-1.4,0.5H315c-0.1,0-0.2,0.1-0.2,0.1c-0.4,0.2-0.9,0.4-1.3,0.6
			c-0.1,0.1-0.3,0.1-0.5,0.2c-0.5,0.3-1.1,0.6-1.6,0.9c-0.7,0.4-1.3,0.8-2,1.3c-0.1,0.1-0.2,0.2-0.3,0.2c-0.6,0.4-1.3,0.9-1.9,1.4
			c-0.1,0.1-0.2,0.2-0.4,0.3c-0.6,0.5-1.3,1-1.9,1.5l-0.1,0.1c-0.6,0.5-1.2,1.1-1.8,1.6c-0.1,0.1-0.1,0.1-0.2,0.2l-0.1,0.1
			c-0.4,0.4-0.8,0.8-1.2,1.2l-0.1,0.1c-0.4,0.5-0.8,0.9-1.3,1.4l-0.1,0.1c0,0.1-0.1,0.1-0.1,0.2c-0.6,0.8-1.3,1.5-1.9,2.3l-0.1,0.1
			c-0.5,0.6-1,1.3-1.4,1.9c-0.1,0.1-0.1,0.1-0.2,0.2l-0.1,0.1c-0.4,0.6-0.9,1.3-1.3,1.9c0,0.1-0.1,0.1-0.1,0.2
			c-0.1,0.1-0.1,0.2-0.2,0.3c-0.3,0.5-0.7,1-1,1.6c-0.1,0.1-0.1,0.2-0.2,0.3l-0.1,0.1c-0.4,0.6-0.7,1.3-1.1,1.9c0,0,0,0.1-0.1,0.1
			c-0.1,0.1-0.1,0.2-0.2,0.3c-0.3,0.5-0.5,1-0.8,1.6c-0.1,0.1-0.1,0.2-0.2,0.3c0,0.1-0.1,0.2-0.1,0.2c-0.3,0.7-0.6,1.3-0.9,2
			s-0.6,1.3-0.8,2c0,0.1-0.1,0.2-0.1,0.3s-0.1,0.2-0.1,0.3c-0.3,0.7-0.5,1.4-0.8,2.1c-0.3,0.8-0.5,1.6-0.7,2.4
			c0,0.1-0.1,0.2-0.1,0.3s0,0.1,0,0.2c-0.2,0.9-0.4,1.7-0.6,2.6c0,0.1,0,0.1-0.1,0.2c0,0.1,0,0.2-0.1,0.4c-0.1,0.3-0.1,0.7-0.2,1
			c0,0.2-0.1,0.5-0.1,0.7c-0.1,0.4-0.1,0.7-0.2,1.1c0,0.2-0.1,0.3-0.1,0.5v0.1c-0.1,0.8-0.2,1.5-0.2,2.3c0,0.2,0,0.3,0,0.5
			c0,0.8-0.1,1.5-0.1,2.3c-0.6,0.4-1.1,0.9-1.7,1.4c-0.2,0.2-0.3,0.3-0.5,0.5c-0.4,0.3-0.7,0.6-1.1,1l-0.1,0.1
			c-0.4,0.4-0.9,0.9-1.3,1.3c-0.1,0.1-0.2,0.3-0.4,0.4c-0.1,0.1-0.2,0.3-0.3,0.4c-0.1,0.2-0.3,0.4-0.4,0.5c-0.3,0.3-0.6,0.7-0.9,1
			c-0.1,0.1-0.2,0.2-0.3,0.4s-0.3,0.4-0.4,0.6c-0.2,0.3-0.4,0.6-0.6,0.8c-0.1,0.1-0.2,0.2-0.3,0.4c-0.2,0.2-0.3,0.5-0.5,0.7
			s-0.3,0.5-0.5,0.7c-0.1,0.1-0.1,0.2-0.2,0.3c-0.2,0.4-0.5,0.7-0.7,1.1c-0.1,0.2-0.2,0.3-0.3,0.5c0,0,0,0.1-0.1,0.1
			c-0.3,0.5-0.6,1.1-0.9,1.7c0,0,0,0.1-0.1,0.1c-0.1,0.2-0.2,0.3-0.2,0.5c-0.2,0.4-0.4,0.7-0.5,1.1c-0.1,0.1-0.1,0.3-0.2,0.4
			c-0.1,0.2-0.2,0.4-0.3,0.7c-0.1,0.2-0.2,0.4-0.3,0.6c-0.1,0.2-0.2,0.5-0.3,0.7c-0.1,0.2-0.2,0.4-0.3,0.7c0,0.1-0.1,0.2-0.1,0.4
			c-0.1,0.4-0.3,0.7-0.4,1.1c-0.1,0.2-0.1,0.4-0.2,0.6c0,0,0,0.1-0.1,0.1c-0.2,0.6-0.4,1.1-0.5,1.7c0,0.1-0.1,0.2-0.1,0.2
			c-0.1,0.3-0.1,0.5-0.2,0.8c-0.1,0.5-0.2,0.9-0.3,1.4c-0.1,0.6-0.2,1.2-0.3,1.9c0,0.1,0,0.3-0.1,0.4c0,0.1,0,0.3-0.1,0.4
			c0,0.3-0.1,0.7-0.1,1c0,0.2,0,0.4-0.1,0.6c0,0.7-0.1,1.3-0.1,1.9c0,6,2.2,10.2,5.6,12.2l17.6,10.2"/>
		<path class="st1" d="M374,12.4L356.6,2.2c0,0-0.1,0-0.1-0.1c0,0-0.1,0-0.1-0.1c-0.2-0.1-0.5-0.2-0.7-0.3c0,0-0.1,0-0.1-0.1h-0.1
			c-0.3-0.1-0.6-0.2-0.9-0.3s-0.6-0.2-1-0.2h-0.1c0,0-0.1,0-0.2,0c-0.3,0-0.6-0.1-0.9-0.1h-0.1c-0.4,0-0.7,0-1.1,0h-0.1H351
			c-0.4,0-0.8,0.1-1.3,0.1c-0.5,0.1-1.1,0.2-1.6,0.3H348c-0.3,0.1-0.7,0.2-1,0.3c-0.1,0-0.1,0.1-0.2,0.1c-0.3,0.1-0.6,0.2-0.8,0.3
			h-0.1c-0.1,0-0.1,0.1-0.2,0.1c-0.3,0.1-0.6,0.3-0.9,0.4c-0.1,0.1-0.2,0.1-0.3,0.2c-0.4,0.2-0.8,0.4-1.2,0.7c-0.5,0.3-1,0.6-1.5,1
			c-0.2,0.1-0.3,0.2-0.5,0.3c-0.3,0.2-0.7,0.5-1,0.8c-0.2,0.1-0.4,0.3-0.5,0.4c-0.3,0.3-0.7,0.5-1,0.8c-0.2,0.1-0.3,0.3-0.5,0.4
			c-0.4,0.4-0.8,0.7-1.2,1.1c-0.1,0.1-0.1,0.1-0.2,0.2c-0.1,0.1-0.2,0.2-0.3,0.3c-0.3,0.3-0.6,0.6-0.9,0.9c-0.1,0.1-0.3,0.3-0.4,0.4
			c-0.2,0.2-0.3,0.4-0.5,0.5c-0.1,0.1-0.1,0.1-0.2,0.2c-0.2,0.3-0.5,0.6-0.7,0.9l-4.5-2.6L329.3,9c-0.1,0-0.1-0.1-0.2-0.1
			c-0.3-0.2-0.6-0.3-0.9-0.4c-0.1,0-0.1-0.1-0.2-0.1s-0.1,0-0.2-0.1c-0.3-0.1-0.7-0.3-1-0.4h-0.1c-0.4-0.1-0.8-0.2-1.3-0.3h-0.1
			c-0.1,0-0.1,0-0.2,0c-0.4-0.1-0.7-0.1-1.1-0.1c-0.1,0-0.1,0-0.2,0h-0.1c-0.5,0-1,0-1.5,0h-0.1c-0.1,0-0.1,0-0.2,0
			c-0.5,0-1,0.1-1.6,0.2h-0.1c0,0,0,0-0.1,0s-0.3,0.1-0.4,0.1c-0.2,0-0.5,0.1-0.7,0.1S318.7,8,318.5,8s-0.3,0.1-0.5,0.1h-0.1
			c-0.4,0.1-0.8,0.2-1.2,0.4c-0.1,0-0.1,0-0.2,0.1c-0.5,0.2-0.9,0.3-1.4,0.5H315c-0.1,0-0.2,0.1-0.2,0.1c-0.4,0.2-0.9,0.4-1.3,0.6
			c-0.1,0.1-0.3,0.1-0.5,0.2c-0.5,0.3-1.1,0.6-1.6,0.9c-0.7,0.4-1.3,0.8-2,1.3c-0.1,0.1-0.2,0.2-0.3,0.2c-0.6,0.4-1.3,0.9-1.9,1.4
			c-0.1,0.1-0.2,0.2-0.4,0.3c-0.6,0.5-1.3,1-1.9,1.5l-0.1,0.1c-0.6,0.5-1.2,1.1-1.8,1.6c-0.1,0.1-0.1,0.1-0.2,0.2l-0.1,0.1
			c-0.4,0.4-0.8,0.8-1.2,1.2l-0.1,0.1c-0.4,0.5-0.8,0.9-1.3,1.4l-0.1,0.1c0,0.1-0.1,0.1-0.1,0.2c-0.6,0.8-1.3,1.5-1.9,2.3l-0.1,0.1
			c-0.5,0.6-1,1.3-1.4,1.9c-0.1,0.1-0.1,0.1-0.2,0.2l-0.1,0.1c-0.4,0.6-0.9,1.3-1.3,1.9c0,0.1-0.1,0.1-0.1,0.2
			c-0.1,0.1-0.1,0.2-0.2,0.3c-0.3,0.5-0.7,1-1,1.6c-0.1,0.1-0.1,0.2-0.2,0.3l-0.1,0.1c-0.4,0.6-0.7,1.3-1.1,1.9c0,0,0,0.1-0.1,0.1
			c-0.1,0.1-0.1,0.2-0.2,0.3c-0.3,0.5-0.5,1-0.8,1.6c-0.1,0.1-0.1,0.2-0.2,0.3c0,0.1-0.1,0.2-0.1,0.2c-0.3,0.7-0.6,1.3-0.9,2
			s-0.6,1.3-0.8,2c0,0.1-0.1,0.2-0.1,0.3s-0.1,0.2-0.1,0.3c-0.3,0.7-0.5,1.4-0.8,2.1c-0.3,0.8-0.5,1.6-0.7,2.4
			c0,0.1-0.1,0.2-0.1,0.3s0,0.1,0,0.2c-0.2,0.9-0.4,1.7-0.6,2.6c0,0.1,0,0.1-0.1,0.2c0,0.1,0,0.2-0.1,0.4c-0.1,0.3-0.1,0.7-0.2,1
			c0,0.2-0.1,0.5-0.1,0.7c-0.1,0.4-0.1,0.7-0.2,1.1c0,0.2-0.1,0.3-0.1,0.5v0.1c-0.1,0.8-0.2,1.5-0.2,2.3c0,0.2,0,0.3,0,0.5
			c0,0.8-0.1,1.5-0.1,2.3c-0.6,0.4-1.1,0.9-1.7,1.4c-0.2,0.2-0.3,0.3-0.5,0.5c-0.4,0.3-0.7,0.6-1.1,1l-0.1,0.1
			c-0.4,0.4-0.9,0.9-1.3,1.3c-0.1,0.1-0.2,0.3-0.4,0.4c-0.1,0.1-0.2,0.3-0.3,0.4c-0.1,0.2-0.3,0.4-0.4,0.5c-0.3,0.3-0.6,0.7-0.9,1
			c-0.1,0.1-0.2,0.2-0.3,0.4s-0.3,0.4-0.4,0.6c-0.2,0.3-0.4,0.6-0.6,0.8c-0.1,0.1-0.2,0.2-0.3,0.4c-0.2,0.2-0.3,0.5-0.5,0.7
			s-0.3,0.5-0.5,0.7c-0.1,0.1-0.1,0.2-0.2,0.3c-0.2,0.4-0.5,0.7-0.7,1.1c-0.1,0.2-0.2,0.3-0.3,0.5c0,0,0,0.1-0.1,0.1
			c-0.3,0.5-0.6,1.1-0.9,1.7c0,0,0,0.1-0.1,0.1c-0.1,0.2-0.2,0.3-0.2,0.5c-0.2,0.4-0.4,0.7-0.5,1.1c-0.1,0.1-0.1,0.3-0.2,0.4
			c-0.1,0.2-0.2,0.4-0.3,0.7c-0.1,0.2-0.2,0.4-0.3,0.6c-0.1,0.2-0.2,0.5-0.3,0.7c-0.1,0.2-0.2,0.4-0.3,0.7c0,0.1-0.1,0.2-0.1,0.4
			c-0.1,0.4-0.3,0.7-0.4,1.1c-0.1,0.2-0.1,0.4-0.2,0.6c0,0,0,0.1-0.1,0.1c-0.2,0.6-0.4,1.1-0.5,1.7c0,0.1-0.1,0.2-0.1,0.2
			c-0.1,0.3-0.1,0.5-0.2,0.8c-0.1,0.5-0.2,0.9-0.3,1.4c-0.1,0.6-0.2,1.2-0.3,1.9c0,0.1,0,0.3-0.1,0.4c0,0.1,0,0.3-0.1,0.4
			c0,0.3-0.1,0.7-0.1,1c0,0.2,0,0.4-0.1,0.6c0,0.7-0.1,1.3-0.1,1.9c0,6,2.2,10.2,5.6,12.2l17.6,10.2"/>
		<path class="st2" d="M328.4,20.6c9.3-5.4,17.7-4.6,22.3,1.7c3-3.9,6.6-7.1,10.2-9.2c9.7-5.6,17.8-2.1,19.3,7.8
			c9.3-3.7,16.7,1.3,16.8,12.5c0,12.4-8.9,27.6-19.7,33.8l-71.5,41.3c-10.8,6.2-19.7,1.3-19.8-11c0-11.1,7.2-24.5,16.4-31.6
			C302.4,49,314,28.8,328.4,20.6z"/>
	</g>
</g>
</svg>
