<?xml version="1.0" encoding="utf-8"?>
<!-- Generator: Adobe Illustrator 22.1.0, SVG Export Plug-In . SVG Version: 6.00 Build 0)  -->
<svg version="1.1" id="Слой_1" xmlns="http://www.w3.org/2000/svg" xmlns:xlink="http://www.w3.org/1999/xlink" x="0px" y="0px"
	 viewBox="0 0 625 456.9" style="enable-background:new 0 0 625 456.9;" xml:space="preserve">
<style type="text/css">
	.st0{fill:#FFFFFF;stroke:#171A21;stroke-width:2;stroke-linecap:round;stroke-linejoin:round;stroke-miterlimit:10;}
	.st1{fill:#98A2F4;}
	.st2{fill:#9AF4DC;}
	.st3{fill:#2F58FF;}
</style>
<g>
	<g>
		<g>
			<g>
				<g>
					<path class="st0" d="M105.3,221.4l37.1-21.2l25.9,20.1l-33.2,27.9L105.3,221.4z"/>
					<path class="st0" d="M115.3,211.4c0-1.1,0.6-2.1,1.6-2.6l46.5-23.5c2.9-2.1,7.2-2,11.9,0.7l27.3,15.7c4.1,2.3,8,7,10.1,12.3
						l8.1,19.8c0.2,0.5,0.6,1,1,1.3l15.2,10.7c4.2,2.9,7.6,8,9.1,13c0.7,2.1,1,4.3,0.9,6.2c0,0.2,0,0.5-0.1,0.7c0,0.1,0,0.2,0,0.2
						l-0.1,11.4c0,1.1-0.6,1.9-1.5,2.5l-37.6,21.6c-1.8,1.1-4.1-0.1-4.4-2.1l-2.1-15c-0.1-0.7-0.4-1.3-0.9-1.7l-14.7-14
						c-0.3-0.3-0.6-0.5-0.9-0.6l-41-17.2c-0.2-0.1-0.5-0.2-0.7-0.4l-20-15.5c-0.2-0.2-0.4-0.4-0.6-0.6l-6.6-9.3
						c-0.4-0.5-0.5-1.1-0.5-1.7V211.4z"/>
					<path class="st1" d="M128.4,215.3v15l-7.5-4.4c0,0,0.9-3.6,1.5-5.5l0.2-0.8c0.1-0.4,0.3-0.8,0.4-1.2
						C123.9,216.3,125.9,215.1,128.4,215.3z"/>
					<path class="st1" d="M132.5,216.8l14.8,8.5v16l-15.5-8.9v-15.9C132,216.5,132.3,216.6,132.5,216.8z"/>
					<path class="st1" d="M150.6,227.2l9.2,5.2c2.2,1.3,4.3,3.9,5.5,6.7l6.6,16.3l-21.3-12.2V227.2z"/>
					<path class="st1" d="M161.4,257.8l-3.4-1.9c-0.6-0.3-1-0.9-1.3-1.5c-0.6-1.5,0.2-2.2,1.2-1.7l3.5,2c0.6,0.3,1.1,0.9,1.3,1.5
						C163.1,257.6,162.4,258.3,161.4,257.8z M137.1,243.8l-3.5-1.9c-0.6-0.3-1-0.9-1.3-1.5c-0.6-1.5,0.2-2.2,1.2-1.7l3.5,1.9
						c0.6,0.3,1.1,0.9,1.3,1.5C138.8,243.6,138,244.4,137.1,243.8z M129.9,231.2l-5.7-3.2c-1.1-0.7-1.7-1.9-1.4-3.2
						c0.3-1.2,0.7-2.5,0.9-3.5l0.2-0.8c0.1-0.4,0.3-0.8,0.4-1.2v-0.1c1.3-2.7,5.5-1.7,5.5,1.4L129.9,231.2z M173.6,256.3l-20-11.5
						c-0.9-0.5-1.5-1.5-1.5-2.5v-9.4c0-2.2,2.4-3.6,4.3-2.4l4.9,2.8c2.2,1.3,4.3,3.9,5.5,6.7L173.6,256.3z M148.8,242l-14.1-8.1
						c-0.9-0.6-1.5-1.6-1.5-2.5v-14.3c0.3,0.1,0.5,0.3,0.8,0.4l13.4,7.7c0.9,0.5,1.5,1.5,1.5,2.5L148.8,242L148.8,242z M134.1,212.1
						c-7.1-4.1-13.4-3-15.3,3.8l-0.2,0.8c-0.6,2.1-1.8,3.7-3.3,4.6c-1.6,0.9-3.5,1.1-5.8,0.5s-4,1-4,3.7v19.7c0,1.1,0.6,1.9,1.5,2.5
						l22,12.6c0-0.3,0-0.5,0-0.7c0-1.9,0.4-3.6,1-5c0.2-0.4,0.4-0.8,0.6-1.1c2.1-3,6.2-3.4,10.5-0.9s-7.5-1.7-5.4,3.9
						c0.2,0.6,0.4,1.2,0.6,1.7c0.7,2.1,1,4.2,1,6c0,0.2,0,0.5,0,0.7l50.6,29c0-0.2,0-0.5,0-0.7c0-1.9,0.4-3.6,1-5
						c0.2-0.4,0.4-0.7,0.6-1.1c2.1-3,6.2-3.4,10.5-0.9s-7.5-1.7-5.4,3.9c0.2,0.6,0.4,1.2,0.6,1.7l0.1,0.5c0.7,2.1,0.9,3.7,0.9,5.6
						c0,0.2,0,0.5,0,0.7l3,1.7c1.9,1.1,4.3-0.3,4.3-2.4l0.1-8.2c0-0.1,0-0.2,0-0.2c0-0.2,0-0.5,0.1-0.7c0.1-1.9-0.2-4.1-0.9-6.2
						c-1.6-5-6.1-8.4-10.2-11.5l-15.1-10.7c-0.5-0.4-0.9-0.9-1.1-1.5l-6.8-21.2c0-0.1-0.1-0.2-0.1-0.3c-2.1-5.1-5.9-8.9-10-11.4
						L134.1,212.1z"/>
					<path class="st2" d="M189.7,302l13.6-7.7l-14.5-22.7l-12.6,7L189.7,302z"/>
					<path class="st2" d="M182.6,279.5c-3.6-2-6.7-1.7-8.4,0.7c-0.8,1.2-1.3,2.7-1.3,4.8c0,0.2,0,0.5,0,0.7
						c0.3,5.9,4.5,12.9,9.6,15.8s9.3,0.8,9.7-4.8c0-0.2,0-0.5,0-0.7c0-2-0.5-4.2-1.3-6.2C189.3,285.6,186.2,281.6,182.6,279.5z"/>
					<path class="st2" d="M130.8,268l13.6-7.7l-14.5-22.7l-12.6,7L130.8,268z"/>
					<path class="st2" d="M123.7,245.5c-3.6-2-6.7-1.7-8.4,0.7c-0.8,1.2-1.3,2.7-1.3,4.8c0,0.2,0,0.5,0,0.7
						c0.3,5.9,4.5,12.9,9.6,15.8c5.1,2.9,9.3,0.8,9.7-4.8c0-0.2,0-0.5,0-0.7c0-2-0.5-4.2-1.3-6.2
						C130.4,251.6,127.3,247.6,123.7,245.5z"/>
					<path class="st3" d="M159.9,257l-3.4-1.9c-0.6-0.3-1.1-0.9-1.3-1.5c-0.6-1.5,0.2-2.2,1.2-1.7l3.4,1.9c0.6,0.3,1.1,0.9,1.3,1.5
						C161.5,256.8,160.8,257.6,159.9,257z M152.1,244.1c-0.9-0.5-1.5-1.5-1.5-2.5v-9.3c0-2.2,2.4-3.6,4.4-2.5l4.8,2.7
						c2.2,1.3,4.3,3.9,5.5,6.7l5.6,13.7c0.4,0.9-0.6,1.6-1.4,1.2L152.1,244.1z M132.5,210.5c-14.3-8.3-28.5,1-28.5,14.2v19.7
						c0,1.1,0.6,2,1.5,2.5l6.1,3.6c0-0.3,0-0.5,0-0.7c0-1.9,0.4-3.6,1-5c0.2-0.4,0.4-0.8,0.7-1.1c2.1-3,6.2-3.4,10.5-0.9
						c4.3,2.5,8.3,7.5,10.4,12.9c0.2,0.6,0.4,1.2,0.6,1.7c0.7,2.1,1,4.2,1,6c0,0.2,0,0.5,0,0.7l34.7,20c0-0.2,0-0.5,0-0.7
						c0-1.9,0.4-3.6,1-5c0.2-0.4,0.4-0.7,0.6-1.1c2.1-3,6.2-3.4,10.5-0.9s8.3,7.5,10.4,12.9c0.2,0.6,0.4,1.2,0.6,1.7l0.1,0.5
						c0.7,2.1,0.9,3.7,0.9,5.6c0,0.2,0,0.5,0,0.7l5,2.8c1.9,1.1,4.4-0.3,4.4-2.5l0.1-8.1c0-0.1,0-0.2,0-0.2c0-0.2,0-0.5,0.1-0.7
						c0.1-1.9-0.2-4.1-0.9-6.2c-1.6-5-4.9-10.1-9.1-13l-15.1-10.7c-0.5-0.3-0.8-0.8-1-1.3l-8.1-19.8c-2.1-5.2-5.9-9.9-10.1-12.3
						L132.5,210.5z"/>
					<path class="st2" d="M156.3,251.8l3.5,2c0.8,0.4,1.4,1.5,1.4,2.3c0,0.8-0.6,1.2-1.4,0.8l-3.5-2c-0.8-0.4-1.4-1.5-1.4-2.3
						C155,251.7,155.6,251.4,156.3,251.8z"/>
					<path class="st2" d="M138.2,241.6l3.5,2c0.8,0.4,1.4,1.5,1.4,2.3c0,0.9-0.6,1.2-1.4,0.8l-3.5-2c-0.8-0.4-1.4-1.5-1.4-2.3
						C136.9,241.5,137.4,241.2,138.2,241.6z"/>
					<path class="st1" d="M213.7,236.2l-28.5,16.3c-2,1.2-4.6,0.3-5.5-1.7l-6.7-15c-0.8-1.8-0.1-4,1.7-5l28.6-16.1
						c2-1.2,4.6-0.3,5.5,1.8l6.6,14.9C216.1,233.1,215.4,235.2,213.7,236.2z"/>
					<path class="st2" d="M242.2,262.5c1-0.6,1.9-0.6,2.4-0.2l2.2,1.3c-0.6-0.4-1.5-0.3-2.4,0.2c-1.9,1.1-3.4,3.8-3.4,5.9
						c0,1.1,0.4,1.8,1,2.2l-2.2-1.3c-0.6-0.4-1-1.2-1-2.2C238.7,266.2,240.3,263.6,242.2,262.5z"/>
					<path class="st2" d="M244.5,263.8c-1.9,1.1-3.4,3.8-3.4,5.9s1.6,3,3.4,1.9c1.9-1.1,3.4-3.8,3.4-5.9
						C247.9,263.6,246.3,262.7,244.5,263.8z"/>
					<path class="st2" d="M210.5,280.7c1-0.6,1.9-0.6,2.4-0.2l2.2,1.3c-0.6-0.4-1.5-0.3-2.4,0.2c-1.9,1.1-3.4,3.8-3.4,5.9
						c0,1.1,0.4,1.8,1,2.2l-2.2-1.3c-0.6-0.4-1-1.2-1-2.2C207.1,284.4,208.6,281.7,210.5,280.7z"/>
					<path class="st2" d="M212.7,281.9c-1.9,1.1-3.4,3.8-3.4,5.9s1.6,3,3.4,1.9c1.9-1.1,3.4-3.8,3.4-5.9
						C216.2,281.7,214.7,280.9,212.7,281.9z"/>
				</g>
			</g>
		</g>
	</g>
</g>
</svg>
