<?xml version="1.0" encoding="utf-8"?>
<!-- Generator: Adobe Illustrator 22.1.0, SVG Export Plug-In . SVG Version: 6.00 Build 0)  -->
<svg version="1.1" id="Слой_1" xmlns="http://www.w3.org/2000/svg" xmlns:xlink="http://www.w3.org/1999/xlink" x="0px" y="0px"
	 viewBox="0 0 625 456.9" style="enable-background:new 0 0 625 456.9;" xml:space="preserve">
<style type="text/css">
	.st0{fill:#F1F9FD;}
	.st1{fill:#98A2F4;}
	.st2{fill:#9AF4DC;}
	.st3{fill:none;stroke:#171A21;stroke-width:2;stroke-linecap:round;stroke-linejoin:round;stroke-miterlimit:10;}
	
		.st4{fill:#FFFFFF;stroke:#171A21;stroke-width:2;stroke-linecap:round;stroke-linejoin:round;stroke-miterlimit:10;stroke-dasharray:12,12;}
	
		.st5{fill:none;stroke:#171A21;stroke-width:2;stroke-linecap:round;stroke-linejoin:round;stroke-miterlimit:10;stroke-dasharray:12,12;}
	
		.st6{fill:none;stroke:#2F58FF;stroke-width:2;stroke-linecap:round;stroke-linejoin:round;stroke-miterlimit:10;stroke-dasharray:12,12;}
	.st7{fill:#FFFFFF;}
</style>
<path class="st0" d="M407.4,417.5c-161.7,0-186.9,59.4-248.7,32.3c-61.9-27-35.7-105.7-115.5-189.1c-79.9-83.4-39.3-194.8,44-206.3
	c83.4-11.5,99,46.5,182.6,64.6c187.4,40.6,317.3,100,346.5,168.3C651.3,369.1,579.9,417.5,407.4,417.5z"/>
<g>
	<g>
		<path class="st1" d="M218.4,131.5l77.5-44.7c2-1.2,4.5,0.3,4.5,2.6l0.2,78.4c0,4.3-2.3,8.3-6,10.4L218.7,222
			c-3.7,2.1-8.3,2.1-12,0l-75.5-43.8c-3.7-2.1-6-6.1-6-10.3L125,89.4c0-2.3,2.5-3.8,4.5-2.6l76.9,44.7
			C210.1,133.7,214.7,133.7,218.4,131.5z"/>
		<path class="st2" d="M129.5,86.8l76.9,44.7c3.7,2.2,8.3,2.2,12,0l77.5-44.7c2-1.2,2-4,0-5.2L219,36.9c-3.7-2.2-8.3-2.2-12,0
			l-77.5,44.7C127.5,82.8,127.5,85.7,129.5,86.8z"/>
		<path class="st3" d="M131.2,178.2c-3.7-2.1-6-6.1-6-10.3L125,91.2c0-4.3,2.3-8.3,6-10.4l75.9-43.9c3.7-2.1,8.3-2.1,12,0l75.4,43.8
			c3.7,2.1,6,6.1,6,10.3l0.2,76.6c0,4.3-2.3,8.3-6,10.4"/>
		<path class="st4" d="M263.8,63.2l-21.1-12.3l-88,50.8l21.2,12.3L263.8,63.2z"/>
		<path class="st5" d="M375.4,167.9c0.1-52.4-36.7-116.3-82.4-142.7c-45.6-26.4-82.8-5.2-82.9,47.3"/>
		<path class="st1" d="M287.4,354.3C287.4,354.4,287.4,354.4,287.4,354.3c0.1,0.2,0.2,0.4,0.3,0.6c0,0,0,0.1,0.1,0.1
			c0.1,0.2,0.3,0.3,0.4,0.5c0,0,0,0,0.1,0c0.2,0.2,0.4,0.3,0.6,0.5L396,418.2c0.2,0.1,0.5,0.3,0.8,0.4c0.1,0,0.1,0.1,0.2,0.1
			c0.2,0.1,0.3,0.1,0.5,0.2c0.2,0,0.4,0.1,0.5,0.1c0.2,0,0.4,0.1,0.6,0.1c0.1,0,0.1-0.3,0.2-0.3c0.3,0,0.6-0.2,0.9-0.2h0.1
			c0.3,0,0.6,0.3,0.9,0.2l0.1,0.1c0.3,0,0.6,0,0.9-0.1c0.1,0,0.1,0,0.2,0c0.3-0.1,0.5-0.1,0.7-0.2h0.1c0.3-0.1,0.6-0.2,0.8-0.4
			l179-103.4c1.1-0.6,1.6-1.4,1.6-2.2v14.7c0,0.8-0.5,1.6-1.6,2.2l-179,103.4c-0.2,0.1-0.5,0.3-0.8,0.4h-0.1
			c-0.2,0.1-0.3,0.1-0.5,0.2c-0.1,0-0.2,0-0.3,0.1c-0.1,0-0.1,0-0.2,0h-0.1c-0.2,0-0.4,0.1-0.5,0.1s-0.1,0-0.2,0h-0.1
			c-0.1,0-0.1,0-0.2,0c-0.2,0-1.8-0.1-1.9-0.1c-0.2,0-0.3,0-0.5-0.1c-0.1,0-0.1,0-0.2,0c-0.2,0-0.4-0.1-0.5-0.1s-0.2,0-0.3-0.1
			c-0.1,0-0.1-0.1-0.2-0.1s-0.1-0.1-0.2-0.1c-0.3-0.1-0.5-0.2-0.7-0.4l-107.1-62.2c0,0,0,0-0.1,0c-0.2-0.1-0.4-0.3-0.6-0.4
			c0,0,0,0-0.1-0.1s-0.2-0.2-0.3-0.4c0,0,0-0.1-0.1-0.1c0,0,0-0.1-0.1-0.1l-0.1-0.1c-0.1-0.1-0.4-0.8-0.4-0.9v-6l0.1-8.7
			C287.2,354,287.4,354.2,287.4,354.3z"/>
		<path class="st2" d="M288.9,351.6c-2.1,1.2-2.1,3.2,0,4.4L396,418.2c2.1,1.2,5.5,1.2,7.6,0l179-103.4c2.1-1.2,2.1-3.2,0-4.4
			l-107.1-62.2c-2.1-1.2-5.5-1.2-7.6,0L288.9,351.6z"/>
		<path class="st6" d="M413,356.5l55.2-31.9c1.4-0.8,3.7-0.8,5.1,0l31.8,18.5c1.4,0.8,1.4,2.1,0,2.9l-55.2,31.9
			c-1.4,0.8-3.7,0.8-5.1,0L413,359.4C411.5,358.7,411.6,357.3,413,356.5z"/>
		<path class="st7" d="M468.4,248.1c2.1-1.2,3.8-4.2,3.8-6.6l-0.4-123.9c0-1.2-0.4-2.1-1.1-2.5c-2.8-1.6-7.6-4.4-7.6-4.4
			c-0.1-0.1-0.5-0.3-0.8-0.3s-0.5,0-0.7,0.1c-0.5,0.2-0.7,0.3-1.1,0.5l-179,103.4c-1.1,0.6-2,1.7-2.7,2.8c-0.3,0.6-1.1,1.9-1.1,3.6
			c0,1.7,0.8,119.7,0.8,121.6c0,1.8,0.1,4.7,1.5,5.4l6.6,3.9"/>
		<path class="st3" d="M468.4,248.1c2.1-1.2,3.8-4.2,3.8-6.6l-0.4-123.9c0-1.2-0.4-2.1-1.1-2.5c-2.8-1.6-7.6-4.4-7.6-4.4
			c-0.1-0.1-0.5-0.3-0.8-0.3s-0.5,0-0.7,0.1c-0.5,0.2-0.7,0.3-1.1,0.5l-179,103.4c-1.1,0.6-2,1.7-2.7,2.8c-0.3,0.6-1.1,1.9-1.1,3.6
			c0,1.7,0.8,119.7,0.8,121.6c0,1.8,0.1,4.7,1.5,5.4l6.6,3.9"/>
		<path class="st2" d="M461.3,139.4l0.3,92.9c0,3.2-1.7,6.2-4.5,7.8l-156.3,90.3c-2,1.2-4.5-0.3-4.5-2.6l-0.3-92.9
			c0-3.2,1.7-6.2,4.5-7.8l156.3-90.3C458.8,135.7,461.3,137.1,461.3,139.4z"/>
		<path class="st1" d="M335,226.5l33.2-19.1c2.7-1.5,6,0.4,6,3.5v4.3c0,4.3-2.3,8.3-6,10.4l-33.2,19c-2.7,1.5-6-0.4-6-3.4v-4.1
			C328.9,232.7,331.2,228.6,335,226.5z"/>
		<path class="st1" d="M335,251.7l33.2-19.1c2.7-1.5,6,0.4,6,3.5v4.3c0,4.3-2.3,8.3-6,10.4l-33.2,19c-2.7,1.5-6-0.4-6-3.4v-4.1
			C328.9,257.9,331.2,253.9,335,251.7z"/>
		<path class="st1" d="M335,277l33.2-19.1c2.7-1.5,6,0.4,6,3.5v4.3c0,4.3-2.3,8.3-6,10.4l-33.2,19c-2.7,1.5-6-0.4-6-3.4v-4.1
			C328.9,283.2,331.2,279.1,335,277z"/>
		<path class="st1" d="M398.2,188.4l35.4-20.1c2.7-1.5,6,0.4,6,3.5l0.1,54.6c0,4.3-2.3,8.3-6.1,10.4L398.1,257c-2.7,1.5-6-0.4-6-3.5
			v-54.6C392.2,194.6,394.5,190.6,398.2,188.4z"/>
	</g>
</g>
</svg>
