<?xml version="1.0" encoding="utf-8"?>
<!-- Generator: Adobe Illustrator 22.1.0, SVG Export Plug-In . SVG Version: 6.00 Build 0)  -->
<svg version="1.1" id="Слой_1" xmlns="http://www.w3.org/2000/svg" xmlns:xlink="http://www.w3.org/1999/xlink" x="0px" y="0px"
	 viewBox="0 0 625 456.9" style="enable-background:new 0 0 625 456.9;" xml:space="preserve">
<style type="text/css">
	.st0{fill:#F1F9FD;}
	.st1{fill:#98A2F4;}
	.st2{fill:#9AF4DC;}
	.st3{fill:none;stroke:#171A21;stroke-width:2;stroke-linecap:round;stroke-linejoin:round;stroke-miterlimit:10;}
	
		.st4{fill:#FFFFFF;stroke:#171A21;stroke-width:2;stroke-linecap:round;stroke-linejoin:round;stroke-miterlimit:10;stroke-dasharray:12,12;}
	
		.st5{fill:none;stroke:#171A21;stroke-width:2;stroke-linecap:round;stroke-linejoin:round;stroke-miterlimit:10;stroke-dasharray:12,12;}
	.st6{fill:#FFFFFF;}
	.st7{fill:#2F58FF;}
	
		.st8{fill:none;stroke:#2F58FF;stroke-width:2;stroke-linecap:round;stroke-linejoin:round;stroke-miterlimit:10;stroke-dasharray:12,12;}
	.st9{fill:#FFFFFF;stroke:#171A21;stroke-width:2;stroke-linecap:round;stroke-linejoin:round;stroke-miterlimit:10;}
</style>
<path class="st0" d="M407.4,417.5c-161.7,0-186.9,59.4-248.7,32.3c-61.9-27-35.7-105.7-115.5-189.1c-79.9-83.4-39.3-194.8,44-206.3
	c83.4-11.5,99,46.5,182.6,64.6c187.4,40.6,317.3,100,346.5,168.3C651.3,369.1,579.9,417.5,407.4,417.5z"/>
<g>
	<g>
		<path class="st1" d="M218.4,131.5l77.5-44.7c2-1.2,4.5,0.3,4.5,2.6l0.2,78.4c0,4.3-2.3,8.3-6,10.4L218.7,222
			c-3.7,2.1-8.3,2.1-12,0l-75.5-43.8c-3.7-2.1-6-6.1-6-10.3L125,89.4c0-2.3,2.5-3.8,4.5-2.6l76.9,44.7
			C210.1,133.7,214.7,133.7,218.4,131.5z"/>
		<path class="st2" d="M129.5,86.8l76.9,44.7c3.7,2.2,8.3,2.2,12,0l77.5-44.7c2-1.2,2-4,0-5.2L219,36.9c-3.7-2.2-8.3-2.2-12,0
			l-77.5,44.7C127.5,82.8,127.5,85.7,129.5,86.8z"/>
		<path class="st3" d="M131.2,178.2c-3.7-2.1-6-6.1-6-10.3L125,91.2c0-4.3,2.3-8.3,6-10.4l75.9-43.9c3.7-2.1,8.3-2.1,12,0l75.4,43.8
			c3.7,2.1,6,6.1,6,10.3l0.2,76.6c0,4.3-2.3,8.3-6,10.4"/>
		<path class="st4" d="M263.8,63.2l-21.1-12.3l-88,50.8l21.2,12.3L263.8,63.2z"/>
		<path class="st5" d="M375.4,167.9c0.1-52.4-36.7-116.3-82.4-142.7c-45.6-26.4-82.8-5.2-82.9,47.3"/>
		<path class="st6" d="M374,12.4L356.6,2.2c0,0-0.1,0-0.1-0.1c0,0-0.1,0-0.1-0.1c-0.2-0.1-0.5-0.2-0.7-0.3c0,0-0.1,0-0.1-0.1h-0.1
			c-0.3-0.1-0.6-0.2-0.9-0.3s-0.6-0.2-1-0.2h-0.1c0,0-0.1,0-0.2,0c-0.3,0-0.6-0.1-0.9-0.1h-0.1c-0.4,0-0.7,0-1.1,0h-0.1H351
			c-0.4,0-0.8,0.1-1.3,0.1c-0.5,0.1-1.1,0.2-1.6,0.3H348c-0.3,0.1-0.7,0.2-1,0.3c-0.1,0-0.1,0.1-0.2,0.1c-0.3,0.1-0.6,0.2-0.8,0.3
			h-0.1c-0.1,0-0.1,0.1-0.2,0.1c-0.3,0.1-0.6,0.3-0.9,0.4c-0.1,0.1-0.2,0.1-0.3,0.2c-0.4,0.2-0.8,0.4-1.2,0.7c-0.5,0.3-1,0.6-1.5,1
			c-0.2,0.1-0.3,0.2-0.5,0.3c-0.3,0.2-0.7,0.5-1,0.8c-0.2,0.1-0.4,0.3-0.5,0.4c-0.3,0.3-0.7,0.5-1,0.8c-0.2,0.1-0.3,0.3-0.5,0.4
			c-0.4,0.4-0.8,0.7-1.2,1.1c-0.1,0.1-0.1,0.1-0.2,0.2c-0.1,0.1-0.2,0.2-0.3,0.3c-0.3,0.3-0.6,0.6-0.9,0.9c-0.1,0.1-0.3,0.3-0.4,0.4
			c-0.2,0.2-0.3,0.4-0.5,0.5c-0.1,0.1-0.1,0.1-0.2,0.2c-0.2,0.3-0.5,0.6-0.7,0.9l-4.5-2.6L329.3,9c-0.1,0-0.1-0.1-0.2-0.1
			c-0.3-0.2-0.6-0.3-0.9-0.4c-0.1,0-0.1-0.1-0.2-0.1s-0.1,0-0.2-0.1c-0.3-0.1-0.7-0.3-1-0.4h-0.1c-0.4-0.1-0.8-0.2-1.3-0.3h-0.1
			c-0.1,0-0.1,0-0.2,0c-0.4-0.1-0.7-0.1-1.1-0.1c-0.1,0-0.1,0-0.2,0h-0.1c-0.5,0-1,0-1.5,0h-0.1c-0.1,0-0.1,0-0.2,0
			c-0.5,0-1,0.1-1.6,0.2h-0.1c0,0,0,0-0.1,0s-0.3,0.1-0.4,0.1c-0.2,0-0.5,0.1-0.7,0.1S318.7,8,318.5,8s-0.3,0.1-0.5,0.1h-0.1
			c-0.4,0.1-0.8,0.2-1.2,0.4c-0.1,0-0.1,0-0.2,0.1c-0.5,0.2-0.9,0.3-1.4,0.5H315c-0.1,0-0.2,0.1-0.2,0.1c-0.4,0.2-0.9,0.4-1.3,0.6
			c-0.1,0.1-0.3,0.1-0.5,0.2c-0.5,0.3-1.1,0.6-1.6,0.9c-0.7,0.4-1.3,0.8-2,1.3c-0.1,0.1-0.2,0.2-0.3,0.2c-0.6,0.4-1.3,0.9-1.9,1.4
			c-0.1,0.1-0.2,0.2-0.4,0.3c-0.6,0.5-1.3,1-1.9,1.5l-0.1,0.1c-0.6,0.5-1.2,1.1-1.8,1.6c-0.1,0.1-0.1,0.1-0.2,0.2l-0.1,0.1
			c-0.4,0.4-0.8,0.8-1.2,1.2l-0.1,0.1c-0.4,0.5-0.8,0.9-1.3,1.4l-0.1,0.1c0,0.1-0.1,0.1-0.1,0.2c-0.6,0.8-1.3,1.5-1.9,2.3l-0.1,0.1
			c-0.5,0.6-1,1.3-1.4,1.9c-0.1,0.1-0.1,0.1-0.2,0.2l-0.1,0.1c-0.4,0.6-0.9,1.3-1.3,1.9c0,0.1-0.1,0.1-0.1,0.2
			c-0.1,0.1-0.1,0.2-0.2,0.3c-0.3,0.5-0.7,1-1,1.6c-0.1,0.1-0.1,0.2-0.2,0.3l-0.1,0.1c-0.4,0.6-0.7,1.3-1.1,1.9c0,0,0,0.1-0.1,0.1
			c-0.1,0.1-0.1,0.2-0.2,0.3c-0.3,0.5-0.5,1-0.8,1.6c-0.1,0.1-0.1,0.2-0.2,0.3c0,0.1-0.1,0.2-0.1,0.2c-0.3,0.7-0.6,1.3-0.9,2
			s-0.6,1.3-0.8,2c0,0.1-0.1,0.2-0.1,0.3s-0.1,0.2-0.1,0.3c-0.3,0.7-0.5,1.4-0.8,2.1c-0.3,0.8-0.5,1.6-0.7,2.4
			c0,0.1-0.1,0.2-0.1,0.3s0,0.1,0,0.2c-0.2,0.9-0.4,1.7-0.6,2.6c0,0.1,0,0.1-0.1,0.2c0,0.1,0,0.2-0.1,0.4c-0.1,0.3-0.1,0.7-0.2,1
			c0,0.2-0.1,0.5-0.1,0.7c-0.1,0.4-0.1,0.7-0.2,1.1c0,0.2-0.1,0.3-0.1,0.5v0.1c-0.1,0.8-0.2,1.5-0.2,2.3c0,0.2,0,0.3,0,0.5
			c0,0.8-0.1,1.5-0.1,2.3c-0.6,0.4-1.1,0.9-1.7,1.4c-0.2,0.2-0.3,0.3-0.5,0.5c-0.4,0.3-0.7,0.6-1.1,1l-0.1,0.1
			c-0.4,0.4-0.9,0.9-1.3,1.3c-0.1,0.1-0.2,0.3-0.4,0.4c-0.1,0.1-0.2,0.3-0.3,0.4c-0.1,0.2-0.3,0.4-0.4,0.5c-0.3,0.3-0.6,0.7-0.9,1
			c-0.1,0.1-0.2,0.2-0.3,0.4s-0.3,0.4-0.4,0.6c-0.2,0.3-0.4,0.6-0.6,0.8c-0.1,0.1-0.2,0.2-0.3,0.4c-0.2,0.2-0.3,0.5-0.5,0.7
			s-0.3,0.5-0.5,0.7c-0.1,0.1-0.1,0.2-0.2,0.3c-0.2,0.4-0.5,0.7-0.7,1.1c-0.1,0.2-0.2,0.3-0.3,0.5c0,0,0,0.1-0.1,0.1
			c-0.3,0.5-0.6,1.1-0.9,1.7c0,0,0,0.1-0.1,0.1c-0.1,0.2-0.2,0.3-0.2,0.5c-0.2,0.4-0.4,0.7-0.5,1.1c-0.1,0.1-0.1,0.3-0.2,0.4
			c-0.1,0.2-0.2,0.4-0.3,0.7c-0.1,0.2-0.2,0.4-0.3,0.6c-0.1,0.2-0.2,0.5-0.3,0.7c-0.1,0.2-0.2,0.4-0.3,0.7c0,0.1-0.1,0.2-0.1,0.4
			c-0.1,0.4-0.3,0.7-0.4,1.1c-0.1,0.2-0.1,0.4-0.2,0.6c0,0,0,0.1-0.1,0.1c-0.2,0.6-0.4,1.1-0.5,1.7c0,0.1-0.1,0.2-0.1,0.2
			c-0.1,0.3-0.1,0.5-0.2,0.8c-0.1,0.5-0.2,0.9-0.3,1.4c-0.1,0.6-0.2,1.2-0.3,1.9c0,0.1,0,0.3-0.1,0.4c0,0.1,0,0.3-0.1,0.4
			c0,0.3-0.1,0.7-0.1,1c0,0.2,0,0.4-0.1,0.6c0,0.7-0.1,1.3-0.1,1.9c0,6,2.2,10.2,5.6,12.2l17.6,10.2"/>
		<path class="st3" d="M374,12.4L356.6,2.2c0,0-0.1,0-0.1-0.1c0,0-0.1,0-0.1-0.1c-0.2-0.1-0.5-0.2-0.7-0.3c0,0-0.1,0-0.1-0.1h-0.1
			c-0.3-0.1-0.6-0.2-0.9-0.3s-0.6-0.2-1-0.2h-0.1c0,0-0.1,0-0.2,0c-0.3,0-0.6-0.1-0.9-0.1h-0.1c-0.4,0-0.7,0-1.1,0h-0.1H351
			c-0.4,0-0.8,0.1-1.3,0.1c-0.5,0.1-1.1,0.2-1.6,0.3H348c-0.3,0.1-0.7,0.2-1,0.3c-0.1,0-0.1,0.1-0.2,0.1c-0.3,0.1-0.6,0.2-0.8,0.3
			h-0.1c-0.1,0-0.1,0.1-0.2,0.1c-0.3,0.1-0.6,0.3-0.9,0.4c-0.1,0.1-0.2,0.1-0.3,0.2c-0.4,0.2-0.8,0.4-1.2,0.7c-0.5,0.3-1,0.6-1.5,1
			c-0.2,0.1-0.3,0.2-0.5,0.3c-0.3,0.2-0.7,0.5-1,0.8c-0.2,0.1-0.4,0.3-0.5,0.4c-0.3,0.3-0.7,0.5-1,0.8c-0.2,0.1-0.3,0.3-0.5,0.4
			c-0.4,0.4-0.8,0.7-1.2,1.1c-0.1,0.1-0.1,0.1-0.2,0.2c-0.1,0.1-0.2,0.2-0.3,0.3c-0.3,0.3-0.6,0.6-0.9,0.9c-0.1,0.1-0.3,0.3-0.4,0.4
			c-0.2,0.2-0.3,0.4-0.5,0.5c-0.1,0.1-0.1,0.1-0.2,0.2c-0.2,0.3-0.5,0.6-0.7,0.9l-4.5-2.6L329.3,9c-0.1,0-0.1-0.1-0.2-0.1
			c-0.3-0.2-0.6-0.3-0.9-0.4c-0.1,0-0.1-0.1-0.2-0.1s-0.1,0-0.2-0.1c-0.3-0.1-0.7-0.3-1-0.4h-0.1c-0.4-0.1-0.8-0.2-1.3-0.3h-0.1
			c-0.1,0-0.1,0-0.2,0c-0.4-0.1-0.7-0.1-1.1-0.1c-0.1,0-0.1,0-0.2,0h-0.1c-0.5,0-1,0-1.5,0h-0.1c-0.1,0-0.1,0-0.2,0
			c-0.5,0-1,0.1-1.6,0.2h-0.1c0,0,0,0-0.1,0s-0.3,0.1-0.4,0.1c-0.2,0-0.5,0.1-0.7,0.1S318.7,8,318.5,8s-0.3,0.1-0.5,0.1h-0.1
			c-0.4,0.1-0.8,0.2-1.2,0.4c-0.1,0-0.1,0-0.2,0.1c-0.5,0.2-0.9,0.3-1.4,0.5H315c-0.1,0-0.2,0.1-0.2,0.1c-0.4,0.2-0.9,0.4-1.3,0.6
			c-0.1,0.1-0.3,0.1-0.5,0.2c-0.5,0.3-1.1,0.6-1.6,0.9c-0.7,0.4-1.3,0.8-2,1.3c-0.1,0.1-0.2,0.2-0.3,0.2c-0.6,0.4-1.3,0.9-1.9,1.4
			c-0.1,0.1-0.2,0.2-0.4,0.3c-0.6,0.5-1.3,1-1.9,1.5l-0.1,0.1c-0.6,0.5-1.2,1.1-1.8,1.6c-0.1,0.1-0.1,0.1-0.2,0.2l-0.1,0.1
			c-0.4,0.4-0.8,0.8-1.2,1.2l-0.1,0.1c-0.4,0.5-0.8,0.9-1.3,1.4l-0.1,0.1c0,0.1-0.1,0.1-0.1,0.2c-0.6,0.8-1.3,1.5-1.9,2.3l-0.1,0.1
			c-0.5,0.6-1,1.3-1.4,1.9c-0.1,0.1-0.1,0.1-0.2,0.2l-0.1,0.1c-0.4,0.6-0.9,1.3-1.3,1.9c0,0.1-0.1,0.1-0.1,0.2
			c-0.1,0.1-0.1,0.2-0.2,0.3c-0.3,0.5-0.7,1-1,1.6c-0.1,0.1-0.1,0.2-0.2,0.3l-0.1,0.1c-0.4,0.6-0.7,1.3-1.1,1.9c0,0,0,0.1-0.1,0.1
			c-0.1,0.1-0.1,0.2-0.2,0.3c-0.3,0.5-0.5,1-0.8,1.6c-0.1,0.1-0.1,0.2-0.2,0.3c0,0.1-0.1,0.2-0.1,0.2c-0.3,0.7-0.6,1.3-0.9,2
			s-0.6,1.3-0.8,2c0,0.1-0.1,0.2-0.1,0.3s-0.1,0.2-0.1,0.3c-0.3,0.7-0.5,1.4-0.8,2.1c-0.3,0.8-0.5,1.6-0.7,2.4
			c0,0.1-0.1,0.2-0.1,0.3s0,0.1,0,0.2c-0.2,0.9-0.4,1.7-0.6,2.6c0,0.1,0,0.1-0.1,0.2c0,0.1,0,0.2-0.1,0.4c-0.1,0.3-0.1,0.7-0.2,1
			c0,0.2-0.1,0.5-0.1,0.7c-0.1,0.4-0.1,0.7-0.2,1.1c0,0.2-0.1,0.3-0.1,0.5v0.1c-0.1,0.8-0.2,1.5-0.2,2.3c0,0.2,0,0.3,0,0.5
			c0,0.8-0.1,1.5-0.1,2.3c-0.6,0.4-1.1,0.9-1.7,1.4c-0.2,0.2-0.3,0.3-0.5,0.5c-0.4,0.3-0.7,0.6-1.1,1l-0.1,0.1
			c-0.4,0.4-0.9,0.9-1.3,1.3c-0.1,0.1-0.2,0.3-0.4,0.4c-0.1,0.1-0.2,0.3-0.3,0.4c-0.1,0.2-0.3,0.4-0.4,0.5c-0.3,0.3-0.6,0.7-0.9,1
			c-0.1,0.1-0.2,0.2-0.3,0.4s-0.3,0.4-0.4,0.6c-0.2,0.3-0.4,0.6-0.6,0.8c-0.1,0.1-0.2,0.2-0.3,0.4c-0.2,0.2-0.3,0.5-0.5,0.7
			s-0.3,0.5-0.5,0.7c-0.1,0.1-0.1,0.2-0.2,0.3c-0.2,0.4-0.5,0.7-0.7,1.1c-0.1,0.2-0.2,0.3-0.3,0.5c0,0,0,0.1-0.1,0.1
			c-0.3,0.5-0.6,1.1-0.9,1.7c0,0,0,0.1-0.1,0.1c-0.1,0.2-0.2,0.3-0.2,0.5c-0.2,0.4-0.4,0.7-0.5,1.1c-0.1,0.1-0.1,0.3-0.2,0.4
			c-0.1,0.2-0.2,0.4-0.3,0.7c-0.1,0.2-0.2,0.4-0.3,0.6c-0.1,0.2-0.2,0.5-0.3,0.7c-0.1,0.2-0.2,0.4-0.3,0.7c0,0.1-0.1,0.2-0.1,0.4
			c-0.1,0.4-0.3,0.7-0.4,1.1c-0.1,0.2-0.1,0.4-0.2,0.6c0,0,0,0.1-0.1,0.1c-0.2,0.6-0.4,1.1-0.5,1.7c0,0.1-0.1,0.2-0.1,0.2
			c-0.1,0.3-0.1,0.5-0.2,0.8c-0.1,0.5-0.2,0.9-0.3,1.4c-0.1,0.6-0.2,1.2-0.3,1.9c0,0.1,0,0.3-0.1,0.4c0,0.1,0,0.3-0.1,0.4
			c0,0.3-0.1,0.7-0.1,1c0,0.2,0,0.4-0.1,0.6c0,0.7-0.1,1.3-0.1,1.9c0,6,2.2,10.2,5.6,12.2l17.6,10.2"/>
		<path class="st7" d="M328.4,20.6c9.3-5.4,17.7-4.6,22.3,1.7c3-3.9,6.6-7.1,10.2-9.2c9.7-5.6,17.8-2.1,19.3,7.8
			c9.3-3.7,16.7,1.3,16.8,12.5c0,12.4-8.9,27.6-19.7,33.8l-71.5,41.3c-10.8,6.2-19.7,1.3-19.8-11c0-11.1,7.2-24.5,16.4-31.6
			C302.4,49,314,28.8,328.4,20.6z"/>
		<path class="st1" d="M287.4,354.3C287.4,354.4,287.4,354.4,287.4,354.3c0.1,0.2,0.2,0.4,0.3,0.6c0,0,0,0.1,0.1,0.1
			c0.1,0.2,0.3,0.3,0.4,0.5c0,0,0,0,0.1,0c0.2,0.2,0.4,0.3,0.6,0.5L396,418.2c0.2,0.1,0.5,0.3,0.8,0.4c0.1,0,0.1,0.1,0.2,0.1
			c0.2,0.1,0.3,0.1,0.5,0.2c0.2,0,0.4,0.1,0.5,0.1c0.2,0,0.4,0.1,0.6,0.1c0.1,0,0.1-0.3,0.2-0.3c0.3,0,0.6-0.2,0.9-0.2h0.1
			c0.3,0,0.6,0.3,0.9,0.2l0.1,0.1c0.3,0,0.6,0,0.9-0.1c0.1,0,0.1,0,0.2,0c0.3-0.1,0.5-0.1,0.7-0.2h0.1c0.3-0.1,0.6-0.2,0.8-0.4
			l179-103.4c1.1-0.6,1.6-1.4,1.6-2.2v14.7c0,0.8-0.5,1.6-1.6,2.2l-179,103.4c-0.2,0.1-0.5,0.3-0.8,0.4h-0.1
			c-0.2,0.1-0.3,0.1-0.5,0.2c-0.1,0-0.2,0-0.3,0.1c-0.1,0-0.1,0-0.2,0h-0.1c-0.2,0-0.4,0.1-0.5,0.1s-0.1,0-0.2,0h-0.1
			c-0.1,0-0.1,0-0.2,0c-0.2,0-1.8-0.1-1.9-0.1c-0.2,0-0.3,0-0.5-0.1c-0.1,0-0.1,0-0.2,0c-0.2,0-0.4-0.1-0.5-0.1s-0.2,0-0.3-0.1
			c-0.1,0-0.1-0.1-0.2-0.1s-0.1-0.1-0.2-0.1c-0.3-0.1-0.5-0.2-0.7-0.4l-107.1-62.2c0,0,0,0-0.1,0c-0.2-0.1-0.4-0.3-0.6-0.4
			c0,0,0,0-0.1-0.1s-0.2-0.2-0.3-0.4c0,0,0-0.1-0.1-0.1c0,0,0-0.1-0.1-0.1l-0.1-0.1c-0.1-0.1-0.4-0.8-0.4-0.9v-6l0.1-8.7
			C287.2,354,287.4,354.2,287.4,354.3z"/>
		<path class="st2" d="M288.9,351.6c-2.1,1.2-2.1,3.2,0,4.4L396,418.2c2.1,1.2,5.5,1.2,7.6,0l179-103.4c2.1-1.2,2.1-3.2,0-4.4
			l-107.1-62.2c-2.1-1.2-5.5-1.2-7.6,0L288.9,351.6z"/>
		<path class="st8" d="M413,356.5l55.2-31.9c1.4-0.8,3.7-0.8,5.1,0l31.8,18.5c1.4,0.8,1.4,2.1,0,2.9l-55.2,31.9
			c-1.4,0.8-3.7,0.8-5.1,0L413,359.4C411.5,358.7,411.6,357.3,413,356.5z"/>
		<path class="st6" d="M468.4,248.1c2.1-1.2,3.8-4.2,3.8-6.6l-0.4-123.9c0-1.2-0.4-2.1-1.1-2.5c-2.8-1.6-7.6-4.4-7.6-4.4
			c-0.1-0.1-0.5-0.3-0.8-0.3s-0.5,0-0.7,0.1c-0.5,0.2-0.7,0.3-1.1,0.5l-179,103.4c-1.1,0.6-2,1.7-2.7,2.8c-0.3,0.6-1.1,1.9-1.1,3.6
			c0,1.7,0.8,119.7,0.8,121.6c0,1.8,0.1,4.7,1.5,5.4l6.6,3.9"/>
		<path class="st3" d="M468.4,248.1c2.1-1.2,3.8-4.2,3.8-6.6l-0.4-123.9c0-1.2-0.4-2.1-1.1-2.5c-2.8-1.6-7.6-4.4-7.6-4.4
			c-0.1-0.1-0.5-0.3-0.8-0.3s-0.5,0-0.7,0.1c-0.5,0.2-0.7,0.3-1.1,0.5l-179,103.4c-1.1,0.6-2,1.7-2.7,2.8c-0.3,0.6-1.1,1.9-1.1,3.6
			c0,1.7,0.8,119.7,0.8,121.6c0,1.8,0.1,4.7,1.5,5.4l6.6,3.9"/>
		<path class="st2" d="M461.3,139.4l0.3,92.9c0,3.2-1.7,6.2-4.5,7.8l-156.3,90.3c-2,1.2-4.5-0.3-4.5-2.6l-0.3-92.9
			c0-3.2,1.7-6.2,4.5-7.8l156.3-90.3C458.8,135.7,461.3,137.1,461.3,139.4z"/>
		<path class="st1" d="M335,226.5l33.2-19.1c2.7-1.5,6,0.4,6,3.5v4.3c0,4.3-2.3,8.3-6,10.4l-33.2,19c-2.7,1.5-6-0.4-6-3.4v-4.1
			C328.9,232.7,331.2,228.6,335,226.5z"/>
		<path class="st1" d="M335,251.7l33.2-19.1c2.7-1.5,6,0.4,6,3.5v4.3c0,4.3-2.3,8.3-6,10.4l-33.2,19c-2.7,1.5-6-0.4-6-3.4v-4.1
			C328.9,257.9,331.2,253.9,335,251.7z"/>
		<path class="st1" d="M335,277l33.2-19.1c2.7-1.5,6,0.4,6,3.5v4.3c0,4.3-2.3,8.3-6,10.4l-33.2,19c-2.7,1.5-6-0.4-6-3.4v-4.1
			C328.9,283.2,331.2,279.1,335,277z"/>
		<path class="st1" d="M398.2,188.4l35.4-20.1c2.7-1.5,6,0.4,6,3.5l0.1,54.6c0,4.3-2.3,8.3-6.1,10.4L398.1,257c-2.7,1.5-6-0.4-6-3.5
			v-54.6C392.2,194.6,394.5,190.6,398.2,188.4z"/>
		<g>
			<g>
				<g>
					<path class="st9" d="M105.3,221.4l37.1-21.2l25.9,20.1l-33.2,27.9L105.3,221.4z"/>
					<path class="st9" d="M115.3,211.4c0-1.1,0.6-2.1,1.6-2.6l46.5-23.5c2.9-2.1,7.2-2,11.9,0.7l27.3,15.7c4.1,2.3,8,7,10.1,12.3
						l8.1,19.8c0.2,0.5,0.6,1,1,1.3l15.2,10.7c4.2,2.9,7.6,8,9.1,13c0.7,2.1,1,4.3,0.9,6.2c0,0.2,0,0.5-0.1,0.7c0,0.1,0,0.2,0,0.2
						l-0.1,11.4c0,1.1-0.6,1.9-1.5,2.5l-37.6,21.6c-1.8,1.1-4.1-0.1-4.4-2.1l-2.1-15c-0.1-0.7-0.4-1.3-0.9-1.7l-14.7-14
						c-0.3-0.3-0.6-0.5-0.9-0.6l-41-17.2c-0.2-0.1-0.5-0.2-0.7-0.4l-20-15.5c-0.2-0.2-0.4-0.4-0.6-0.6l-6.6-9.3
						c-0.4-0.5-0.5-1.1-0.5-1.7V211.4z"/>
					<path class="st1" d="M128.4,215.3v15l-7.5-4.4c0,0,0.9-3.6,1.5-5.5l0.2-0.8c0.1-0.4,0.3-0.8,0.4-1.2
						C123.9,216.3,125.9,215.1,128.4,215.3z"/>
					<path class="st1" d="M132.5,216.8l14.8,8.5v16l-15.5-8.9v-15.9C132,216.5,132.3,216.6,132.5,216.8z"/>
					<path class="st1" d="M150.6,227.2l9.2,5.2c2.2,1.3,4.3,3.9,5.5,6.7l6.6,16.3l-21.3-12.2V227.2z"/>
					<path class="st1" d="M161.4,257.8l-3.4-1.9c-0.6-0.3-1-0.9-1.3-1.5c-0.6-1.5,0.2-2.2,1.2-1.7l3.5,2c0.6,0.3,1.1,0.9,1.3,1.5
						C163.1,257.6,162.4,258.3,161.4,257.8z M137.1,243.8l-3.5-1.9c-0.6-0.3-1-0.9-1.3-1.5c-0.6-1.5,0.2-2.2,1.2-1.7l3.5,1.9
						c0.6,0.3,1.1,0.9,1.3,1.5C138.8,243.6,138,244.4,137.1,243.8z M129.9,231.2l-5.7-3.2c-1.1-0.7-1.7-1.9-1.4-3.2
						c0.3-1.2,0.7-2.5,0.9-3.5l0.2-0.8c0.1-0.4,0.3-0.8,0.4-1.2v-0.1c1.3-2.7,5.5-1.7,5.5,1.4L129.9,231.2z M173.6,256.3l-20-11.5
						c-0.9-0.5-1.5-1.5-1.5-2.5v-9.4c0-2.2,2.4-3.6,4.3-2.4l4.9,2.8c2.2,1.3,4.3,3.9,5.5,6.7L173.6,256.3z M148.8,242l-14.1-8.1
						c-0.9-0.6-1.5-1.6-1.5-2.5v-14.3c0.3,0.1,0.5,0.3,0.8,0.4l13.4,7.7c0.9,0.5,1.5,1.5,1.5,2.5L148.8,242L148.8,242z M134.1,212.1
						c-7.1-4.1-13.4-3-15.3,3.8l-0.2,0.8c-0.6,2.1-1.8,3.7-3.3,4.6c-1.6,0.9-3.5,1.1-5.8,0.5s-4,1-4,3.7v19.7c0,1.1,0.6,1.9,1.5,2.5
						l22,12.6c0-0.3,0-0.5,0-0.7c0-1.9,0.4-3.6,1-5c0.2-0.4,0.4-0.8,0.6-1.1c2.1-3,6.2-3.4,10.5-0.9s-7.5-1.7-5.4,3.9
						c0.2,0.6,0.4,1.2,0.6,1.7c0.7,2.1,1,4.2,1,6c0,0.2,0,0.5,0,0.7l50.6,29c0-0.2,0-0.5,0-0.7c0-1.9,0.4-3.6,1-5
						c0.2-0.4,0.4-0.7,0.6-1.1c2.1-3,6.2-3.4,10.5-0.9s-7.5-1.7-5.4,3.9c0.2,0.6,0.4,1.2,0.6,1.7l0.1,0.5c0.7,2.1,0.9,3.7,0.9,5.6
						c0,0.2,0,0.5,0,0.7l3,1.7c1.9,1.1,4.3-0.3,4.3-2.4l0.1-8.2c0-0.1,0-0.2,0-0.2c0-0.2,0-0.5,0.1-0.7c0.1-1.9-0.2-4.1-0.9-6.2
						c-1.6-5-6.1-8.4-10.2-11.5l-15.1-10.7c-0.5-0.4-0.9-0.9-1.1-1.5l-6.8-21.2c0-0.1-0.1-0.2-0.1-0.3c-2.1-5.1-5.9-8.9-10-11.4
						L134.1,212.1z"/>
					<path class="st2" d="M189.7,302l13.6-7.7l-14.5-22.7l-12.6,7L189.7,302z"/>
					<path class="st2" d="M182.6,279.5c-3.6-2-6.7-1.7-8.4,0.7c-0.8,1.2-1.3,2.7-1.3,4.8c0,0.2,0,0.5,0,0.7
						c0.3,5.9,4.5,12.9,9.6,15.8s9.3,0.8,9.7-4.8c0-0.2,0-0.5,0-0.7c0-2-0.5-4.2-1.3-6.2C189.3,285.6,186.2,281.6,182.6,279.5z"/>
					<path class="st2" d="M130.8,268l13.6-7.7l-14.5-22.7l-12.6,7L130.8,268z"/>
					<path class="st2" d="M123.7,245.5c-3.6-2-6.7-1.7-8.4,0.7c-0.8,1.2-1.3,2.7-1.3,4.8c0,0.2,0,0.5,0,0.7
						c0.3,5.9,4.5,12.9,9.6,15.8c5.1,2.9,9.3,0.8,9.7-4.8c0-0.2,0-0.5,0-0.7c0-2-0.5-4.2-1.3-6.2
						C130.4,251.6,127.3,247.6,123.7,245.5z"/>
					<path class="st7" d="M159.9,257l-3.4-1.9c-0.6-0.3-1.1-0.9-1.3-1.5c-0.6-1.5,0.2-2.2,1.2-1.7l3.4,1.9c0.6,0.3,1.1,0.9,1.3,1.5
						C161.5,256.8,160.8,257.6,159.9,257z M152.1,244.1c-0.9-0.5-1.5-1.5-1.5-2.5v-9.3c0-2.2,2.4-3.6,4.4-2.5l4.8,2.7
						c2.2,1.3,4.3,3.9,5.5,6.7l5.6,13.7c0.4,0.9-0.6,1.6-1.4,1.2L152.1,244.1z M132.5,210.5c-14.3-8.3-28.5,1-28.5,14.2v19.7
						c0,1.1,0.6,2,1.5,2.5l6.1,3.6c0-0.3,0-0.5,0-0.7c0-1.9,0.4-3.6,1-5c0.2-0.4,0.4-0.8,0.7-1.1c2.1-3,6.2-3.4,10.5-0.9
						c4.3,2.5,8.3,7.5,10.4,12.9c0.2,0.6,0.4,1.2,0.6,1.7c0.7,2.1,1,4.2,1,6c0,0.2,0,0.5,0,0.7l34.7,20c0-0.2,0-0.5,0-0.7
						c0-1.9,0.4-3.6,1-5c0.2-0.4,0.4-0.7,0.6-1.1c2.1-3,6.2-3.4,10.5-0.9s8.3,7.5,10.4,12.9c0.2,0.6,0.4,1.2,0.6,1.7l0.1,0.5
						c0.7,2.1,0.9,3.7,0.9,5.6c0,0.2,0,0.5,0,0.7l5,2.8c1.9,1.1,4.4-0.3,4.4-2.5l0.1-8.1c0-0.1,0-0.2,0-0.2c0-0.2,0-0.5,0.1-0.7
						c0.1-1.9-0.2-4.1-0.9-6.2c-1.6-5-4.9-10.1-9.1-13l-15.1-10.7c-0.5-0.3-0.8-0.8-1-1.3l-8.1-19.8c-2.1-5.2-5.9-9.9-10.1-12.3
						L132.5,210.5z"/>
					<path class="st2" d="M156.3,251.8l3.5,2c0.8,0.4,1.4,1.5,1.4,2.3c0,0.8-0.6,1.2-1.4,0.8l-3.5-2c-0.8-0.4-1.4-1.5-1.4-2.3
						C155,251.7,155.6,251.4,156.3,251.8z"/>
					<path class="st2" d="M138.2,241.6l3.5,2c0.8,0.4,1.4,1.5,1.4,2.3c0,0.9-0.6,1.2-1.4,0.8l-3.5-2c-0.8-0.4-1.4-1.5-1.4-2.3
						C136.9,241.5,137.4,241.2,138.2,241.6z"/>
					<path class="st1" d="M213.7,236.2l-28.5,16.3c-2,1.2-4.6,0.3-5.5-1.7l-6.7-15c-0.8-1.8-0.1-4,1.7-5l28.6-16.1
						c2-1.2,4.6-0.3,5.5,1.8l6.6,14.9C216.1,233.1,215.4,235.2,213.7,236.2z"/>
					<path class="st2" d="M242.2,262.5c1-0.6,1.9-0.6,2.4-0.2l2.2,1.3c-0.6-0.4-1.5-0.3-2.4,0.2c-1.9,1.1-3.4,3.8-3.4,5.9
						c0,1.1,0.4,1.8,1,2.2l-2.2-1.3c-0.6-0.4-1-1.2-1-2.2C238.7,266.2,240.3,263.6,242.2,262.5z"/>
					<path class="st2" d="M244.5,263.8c-1.9,1.1-3.4,3.8-3.4,5.9s1.6,3,3.4,1.9c1.9-1.1,3.4-3.8,3.4-5.9
						C247.9,263.6,246.3,262.7,244.5,263.8z"/>
					<path class="st2" d="M210.5,280.7c1-0.6,1.9-0.6,2.4-0.2l2.2,1.3c-0.6-0.4-1.5-0.3-2.4,0.2c-1.9,1.1-3.4,3.8-3.4,5.9
						c0,1.1,0.4,1.8,1,2.2l-2.2-1.3c-0.6-0.4-1-1.2-1-2.2C207.1,284.4,208.6,281.7,210.5,280.7z"/>
					<path class="st2" d="M212.7,281.9c-1.9,1.1-3.4,3.8-3.4,5.9s1.6,3,3.4,1.9c1.9-1.1,3.4-3.8,3.4-5.9
						C216.2,281.7,214.7,280.9,212.7,281.9z"/>
				</g>
			</g>
		</g>
	</g>
</g>
</svg>
