<svg width="492" height="464" viewBox="0 0 492 464" fill="none" xmlns="http://www.w3.org/2000/svg">
<path d="M457.6 74.3001C439.3 63.7001 424.3 72.2001 424.2 93.3001C424.1 114.4 439 140.1 457.3 150.7C475.6 161.3 490.6 152.8 490.7 131.7C490.8 110.6 475.9 84.9001 457.6 74.3001Z" fill="#FB7070" stroke="#171A21" stroke-width="2" stroke-miterlimit="10" stroke-linecap="round" stroke-linejoin="round"/>
<path d="M461.8 113.4L455 109.4C454.2 108.9 453.2 109.5 453.2 110.5L453.1 130.9C453.1 131.3 453.3 131.7 453.7 132L459.9 135.6C460.7 136.1 461.7 135.5 461.7 134.5L461.8 113.4ZM457.6 90.9001C454.4 89.1001 451.8 90.5001 451.8 94.2001C451.8 97.9001 454.4 102.3 457.6 104.2C460.8 106 463.4 104.6 463.4 100.9C463.3 97.2001 460.7 92.8001 457.6 90.9001Z" fill="white"/>
</svg>
