<svg width="491" height="464" viewBox="0 0 491 464" fill="none" xmlns="http://www.w3.org/2000/svg">
<path d="M269 266.8L367.6 240.4C370.1 239.7 372.5 242 371.8 244.6L348.9 331C347.6 335.7 343.9 339.5 339.2 340.7L242.5 366.6C237.8 367.9 232.7 366.5 229.2 363L159 292.4C155.6 288.9 154.2 283.9 155.5 279.2L178.4 192.7C179.1 190.1 182.3 189.3 184.1 191.2L255.7 263.2C259.2 266.7 264.3 268.1 269 266.8Z" fill="#2F58FF"/>
<path d="M291.9 157.8L257.6 104.8C256 102.3 252.9 101.1 250.1 101.9L152 128.3C147.5 129.5 145.5 134.7 148 138.6L179.9 187.8L291.9 157.8Z" fill="#FB7070"/>
<path d="M291 156.6L347.3 141.8C349.7 141.2 352.2 141.9 353.9 143.6L424.7 214.4C428.4 218.1 426.7 224.5 421.6 225.9L373 238.6L291 156.6Z" fill="#FB7070"/>
<path d="M261.7 268.7L205.4 283.5C203 284.1 200.5 283.4 198.8 281.7L128.1 211C124.4 207.3 126.1 200.9 131.2 199.5L179.7 186.8L261.7 268.7Z" fill="#FB7070"/>
<path d="M261.1 268.6L275.5 321.8C276.5 325.4 280.2 327.6 283.9 326.6L382.7 300.1C386.4 299.1 388.5 295.4 387.5 291.7L373.1 238.5L261.1 268.6Z" fill="#FB7070"/>
<path d="M354.9 307.6L382.7 300.2C386.4 299.2 388.5 295.5 387.5 291.8L373.1 238.6" stroke="#171A21" stroke-width="2" stroke-miterlimit="10" stroke-linecap="round" stroke-linejoin="round"/>
<path d="M373 238.6L421.5 225.9C426.6 224.6 428.3 218.2 424.6 214.4L353.8 143.6C352.1 141.9 349.6 141.2 347.2 141.8L291 156.5L257.5 104.8C255.9 102.3 252.8 101.1 250 101.9L152 128.3C147.5 129.5 145.5 134.7 148 138.6L179.3 186.9L131.2 199.5C126.1 200.8 124.4 207.2 128.1 211L164 246.9" stroke="#171A21" stroke-width="2" stroke-miterlimit="10" stroke-linecap="round" stroke-linejoin="round"/>
<path d="M184.1 191.2L255.7 263.2C259.2 266.7 264.2 268 269 266.8L367.6 240.4C370.1 239.7 371 236.5 369.1 234.7L297.5 162.7C294 159.2 289 157.9 284.2 159.1L185.6 185.5C183.1 186.2 182.3 189.3 184.1 191.2Z" stroke="#171A21" stroke-width="2" stroke-miterlimit="10" stroke-linecap="round" stroke-linejoin="round" stroke-dasharray="12 12"/>
</svg>
