<svg width="491" height="464" viewBox="0 0 491 464" fill="none" xmlns="http://www.w3.org/2000/svg">
<path d="M102.1 112.9L49.7001 143.1C43.4001 146.8 38.3 155.6 38.3 162.9L38.4 200.5C38.4 207.8 43.6 210.7 49.9 207L102.3 176.8C108.6 173.1 113.7 164.3 113.7 157L113.6 119.4C113.6 112.2 108.5 109.3 102.1 112.9Z" fill="#2F58FF"/>
<path d="M95.6001 128C94.7001 128.5 94.0001 129.8 94.0001 130.8L94.1001 160.9C94.1001 161.9 94.8001 162.4 95.7001 161.8C96.6001 161.3 97.3001 160 97.3001 159L97.2001 128.9C97.3001 127.9 96.5001 127.5 95.6001 128ZM89.1001 131.8C88.2001 132.3 87.5001 133.6 87.5001 134.6L87.6001 164.7C87.6001 165.7 88.3001 166.2 89.2001 165.6C90.1001 165.1 90.8001 163.8 90.8001 162.8L90.7001 132.7C90.7001 131.7 90.0001 131.2 89.1001 131.8ZM82.5001 135.5C81.6001 136 80.9001 137.3 80.9001 138.3L81.0001 168.4C81.0001 169.4 81.7001 169.9 82.6001 169.3C83.5001 168.8 84.2001 167.5 84.2001 166.5L84.1001 136.4C84.2001 135.4 83.5001 135 82.5001 135.5ZM76.0001 139.3C75.1001 139.8 74.4001 141.1 74.4001 142.1L74.5001 179.7C74.5001 180.7 75.2001 181.2 76.1001 180.6C77.0001 180.1 77.7001 178.8 77.7001 177.8L77.6001 140.2C77.6001 139.2 76.9001 138.8 76.0001 139.3ZM69.5001 143.1C68.6001 143.6 67.9001 144.9 67.9001 145.9L68.0001 176C68.0001 177 68.7001 177.5 69.6001 176.9C70.5001 176.4 71.2001 175.1 71.2001 174.1L71.1001 144C71.1001 143 70.4001 142.6 69.5001 143.1ZM62.9001 146.9C62.0001 147.4 61.3001 148.7 61.3001 149.7L61.4001 179.8C61.4001 180.8 62.1001 181.3 63.0001 180.7C63.9001 180.2 64.6001 178.9 64.6001 177.9L64.5001 147.8C64.6001 146.8 63.8001 146.3 62.9001 146.9ZM56.4001 150.6C55.5001 151.1 54.8001 152.4 54.8001 153.4L54.9001 183.5C54.9001 184.5 55.6001 185 56.5001 184.4C57.4001 183.9 58.1001 182.6 58.1001 181.6L58.0001 151.6C58.0001 150.5 57.3001 150.1 56.4001 150.6ZM49.8001 154.4C48.9001 154.9 48.2001 156.2 48.2001 157.2L48.3001 194.8C48.3001 195.8 49.0001 196.3 49.9001 195.7C50.8001 195.2 51.5001 193.9 51.5001 192.9L51.4001 155.3C51.5001 154.3 50.7001 153.9 49.8001 154.4ZM63.0001 184.5C62.8001 184.6 62.6001 184.8 62.4001 185C62.2001 185.2 62.0001 185.4 61.9001 185.7L61.8001 185.8C61.2001 186.9 61.2001 188 61.9001 188.3C62.0001 188.4 62.2001 188.4 62.4001 188.4C62.6001 188.4 62.8001 188.3 63.0001 188.2C63.4001 187.9 63.8001 187.5 64.1001 187C64.7001 185.9 64.8001 184.7 64.1001 184.3C63.9001 184.2 63.4001 184.2 63.0001 184.5ZM56.5001 188.3C56.3001 188.4 56.1001 188.6 55.9001 188.8C55.5001 189.2 55.2001 189.8 55.0001 190.3C54.8001 190.9 54.8001 191.4 55.0001 191.7C55.1001 191.9 55.2001 192 55.4001 192.1C55.5001 192.2 55.7001 192.2 55.9001 192.2C56.1001 192.2 56.3001 192.1 56.5001 192C56.9001 191.7 57.3001 191.3 57.6001 190.8C58.2001 189.7 58.3001 188.5 57.6001 188.1C57.3001 188 56.9001 188 56.5001 188.3ZM69.6001 180.7C69.4001 180.8 69.2001 181 69.0001 181.2C68.8001 181.4 68.6001 181.6 68.5001 181.9L68.4001 182C67.8001 183.1 67.8001 184.2 68.5001 184.5C68.6001 184.6 68.8001 184.6 69.0001 184.6C69.2001 184.6 69.4001 184.5 69.6001 184.4C70.0001 184.2 70.4001 183.7 70.7001 183.2C70.9001 182.9 71.0001 182.7 71.1001 182.4C71.3001 181.8 71.3001 181.3 71.1001 181C71.0001 180.8 70.9001 180.7 70.7001 180.6C70.4001 180.4 70.0001 180.5 69.6001 180.7ZM95.7001 165.6C95.3001 165.8 94.9001 166.3 94.6001 166.8C94.4001 167.1 94.3001 167.3 94.2001 167.6C94.0001 168.2 94.0001 168.7 94.2001 169C94.3001 169.2 94.4001 169.3 94.6001 169.4C94.9001 169.6 95.3001 169.6 95.7001 169.3C96.1001 169 96.5001 168.6 96.8001 168.1C97.4001 167 97.4001 165.8 96.8001 165.4C96.6001 165.3 96.2001 165.4 95.7001 165.6ZM89.2001 169.4C88.8001 169.6 88.4001 170.1 88.1001 170.6C87.8001 171.1 87.6001 171.7 87.6001 172.2C87.6001 173.2 88.3001 173.7 89.2001 173.2C89.6001 172.9 90.0001 172.5 90.3001 172C90.9001 170.9 91.0001 169.7 90.3001 169.3C90.0001 169.1 89.6001 169.1 89.2001 169.4ZM82.7001 173.2C82.3001 173.4 81.9001 173.9 81.6001 174.4C81.3001 174.9 81.1001 175.5 81.1001 176C81.1001 177 81.8001 177.5 82.7001 177C83.1001 176.8 83.5001 176.3 83.8001 175.8C84.0001 175.5 84.1001 175.3 84.2001 175C84.4001 174.4 84.4001 173.9 84.2001 173.6C84.1001 173.4 84.0001 173.3 83.8001 173.2C83.5001 172.9 83.1001 172.9 82.7001 173.2ZM102.2 124.2C101.3 124.7 100.6 126 100.6 127L100.7 164.6C100.7 165.6 101.4 166.1 102.3 165.5C103.2 165 103.9 163.7 103.9 162.7L103.8 125.1C103.8 124.1 103.1 123.7 102.2 124.2Z" fill="white"/>
</svg>
