<svg width="491" height="464" viewBox="0 0 491 464" fill="none" xmlns="http://www.w3.org/2000/svg">
<path d="M390.7 372.6C388.9 371.6 386.4 372.2 385.1 374C343.8 442.1 262.7 452.3 211.9 459.5C209.6 459.8 208 461.3 209.6 462.3C210.2 462.7 211.3 462.9 213.1 463C236.4 464.3 301.7 462.1 346.6 436C391.6 409.9 393.6 380.1 392.6 375.7C392.4 374.1 391.6 373.1 390.7 372.6ZM343.2 357.6C342 356.9 340.1 356.4 338.1 356.2C327 355.2 316.8 355 304.8 348.1L264.9 325.1C262.2 323.5 259.6 322 256.9 320.5C243.1 312.6 229.8 305.8 209.6 306.2C190.4 306.4 170.9 313.9 158.5 321.1C134.3 335.2 116.4 356.1 140.8 376.8C141.1 377 141.4 377.2 141.7 377.4C144.3 378.9 147.7 378.5 150 377.7L177.3 364.9C179.5 363.5 178.9 361.2 177 359.6C168.7 352.4 172.4 344.5 182.1 338.8C187.3 335.8 195.2 333.4 203 334.4C210 335.2 215.6 338.1 220.7 341C222 341.8 223.3 342.5 224.6 343.3L227.9 345.2C214.9 354.7 196.7 366.6 189 378.1C180 391.3 182.9 406 203.7 418C230.3 433.4 260.3 431.3 281.6 418.9C299.7 408.4 305.3 400.2 304.9 383.8C316.3 385 321.1 386 336.6 385.2C339.5 384.7 341.8 383.2 342 381.4H342.1C342.6 375.8 343.8 365.8 344.6 360.3C345 359.2 344.4 358.3 343.2 357.6ZM236.6 393.9C214.8 381.3 230.2 367.7 248.6 357L254.1 360.2C255 360.7 255.9 361.2 256.8 361.7C265.6 366.8 273 371.3 276.5 378.6C279.7 385.1 277.7 391.4 270.5 395.5C260.8 401.3 247.7 400.3 236.6 393.9ZM398.8 355.4C397.3 354.6 396 354 395 353.9C390.1 353.5 378.7 359.5 372.8 364C367 368.3 361.2 376.1 363.8 377.6C363.9 377.7 364 377.7 364.2 377.8C365.6 378.1 366.1 377.3 370.4 374.3C374.6 371.3 386.1 362.7 392.5 363.2C393.5 363.3 394.7 363.7 395.9 364.4C402 367.9 409.5 378.1 410.8 380.1C411.2 380.6 411.6 381 412 381.3C413.4 382.1 414.9 381.3 415.2 379.5C415.6 377.1 414.9 371.9 410.9 366.4C407.7 362.2 402.7 357.6 398.8 355.4Z" fill="white"/>
</svg>
