<svg width="491" height="464" viewBox="0 0 491 464" fill="none" xmlns="http://www.w3.org/2000/svg">
<path d="M334.4 33.5C322.7 30.4 310.1 29.4 298.1 30.3C286 31.2 274 33.3 262.4 37C240.6 44 218.5 55.3 204.2 73.8C196.4 83.8 191.1 96.8 194.6 109.5L215.6 188.9C211.6 174.2 219.2 159.5 228.9 148.8C238.9 137.8 251.7 129.5 265.1 123.4C279.4 116.9 294.6 112.6 310.1 110.6C325.2 108.6 341.1 109 355.9 113C369.1 116.6 382.9 123.8 389.1 136.6C389.9 138.3 390.6 140 391.1 141.9L370.1 62.5C366.1 48.5 352.8 38.4 334.4 33.5C352.8 38.4 333.3 33.2 334.4 33.5Z" fill="#2F58FF"/>
<path d="M318.6 20.9999C318.7 21.2999 318.7 21.4999 318.8 21.7999C318.8 21.9999 318.9 22.2999 318.9 22.4999C318.9 22.7999 319 22.9999 319 23.2999C319 23.4999 319 23.7999 319 23.9999C319 24.2999 319 24.4999 319 24.7999C319 24.9999 319 25.2999 319 25.4999C319 25.7999 319 25.9999 319 26.2999C319 26.4999 319 26.7999 318.9 26.9999C318.9 27.2999 318.8 27.5999 318.8 27.8999C318.8 28.0999 318.7 28.3999 318.7 28.5999C318.6 28.8999 318.6 29.1999 318.5 29.4999C318.4 29.6999 318.4 29.9999 318.3 30.1999C318.2 30.5999 318.1 30.8999 318 31.2999C317.9 31.4999 317.9 31.6999 317.8 31.8999C317.7 32.2999 317.5 32.6999 317.3 33.0999C317.2 33.2999 317.2 33.3999 317.1 33.5999C316.8 34.1999 316.5 34.8999 316.2 35.4999C316.1 35.6999 316 35.7999 315.9 35.9999C315.6 36.4999 315.4 36.9999 315 37.4999C314.9 37.6999 314.7 37.8999 314.6 38.1999C314.4 38.4999 314.2 38.7999 314 38.9999C313.8 39.2999 313.6 39.4999 313.5 39.7999C313.3 40.0999 313.1 40.3999 312.9 40.5999C312.7 40.8999 312.5 41.0999 312.3 41.3999C312.1 41.6999 311.8 41.9999 311.6 42.1999C311.4 42.4999 311.2 42.6999 310.9 42.9999C310.6 43.2999 310.4 43.5999 310.1 43.7999C309.8 44.0999 309.5 44.4999 309.1 44.7999C308.5 45.3999 307.8 46.0999 307.1 46.6999C306.9 46.8999 306.7 47.0999 306.5 47.1999C306 47.6999 305.4 48.0999 304.8 48.5999C304.6 48.7999 304.4 48.8999 304.2 49.0999C303.5 49.6999 302.7 50.2999 301.9 50.7999C301.8 50.8999 301.6 50.9999 301.5 51.0999C300.8 51.5999 300.2 51.9999 299.5 52.4999C299.2 52.6999 298.9 52.8999 298.7 52.9999C298.3 53.1999 297.9 53.4999 297.6 53.6999C297.3 53.8999 297 54.0998 296.6 54.2999C296.2 54.4999 295.8 54.7999 295.4 54.9999C295.1 55.1999 294.7 55.3999 294.4 55.5999C294 55.7999 293.6 55.9999 293.2 56.2999C292.9 56.4999 292.5 56.6999 292.2 56.7999C291.8 56.9999 291.4 57.1999 290.9 57.3999C290.6 57.5999 290.3 57.6999 289.9 57.8999C289 58.2999 288.1 58.6999 287.1 59.0999C287 59.1999 286.8 59.1999 286.7 59.2999C285.9 59.5998 285.1 59.9999 284.2 60.2999C283.9 60.3998 283.6 60.4999 283.3 60.6999C282.8 60.8999 282.2 61.0998 281.7 61.2999C281.4 61.3998 281 61.4999 280.7 61.5999C280.1 61.7999 279.6 61.9999 279 62.0999C278.7 62.1999 278.4 62.2999 278 62.3999C277.5 62.4999 277 62.6999 276.5 62.7999C276.2 62.8998 275.8 62.9999 275.5 63.0999C275 63.1999 274.4 63.3999 273.9 63.4999C273.6 63.5999 273.3 63.6999 273 63.6999C272.5 63.7999 272 63.8999 271.5 63.9999C271.2 64.0999 270.8 64.1999 270.5 64.1999C270 64.2999 269.4 64.3999 268.9 64.4999C268.6 64.5999 268.3 64.5999 268 64.6999C267.3 64.7999 266.7 64.8999 266 64.9999C265.8 64.9999 265.6 65.0999 265.4 65.0999C264.6 65.1999 263.7 65.2999 262.9 65.3999C262.8 65.3999 262.6 65.3999 262.5 65.3999C261.8 65.4999 261 65.5999 260.3 65.5999C260 65.5999 259.7 65.5999 259.4 65.6999C258.8 65.6999 258.3 65.7999 257.7 65.7999C257.4 65.7999 257.1 65.7999 256.8 65.7999C256.2 65.7999 255.6 65.8999 255 65.8999C254.7 65.8999 254.3 65.8999 254 65.8999C253.4 65.8999 252.9 65.8999 252.3 65.8999C252 65.8999 251.7 65.8999 251.4 65.8999C250.5 65.8999 249.6 65.7999 248.8 65.7999C248.6 65.7999 248.5 65.7999 248.3 65.7999C247.3 65.6999 246.3 65.5999 245.3 65.4999C244.9 65.4999 244.5 65.3999 244.1 65.3999C243.8 65.3999 243.5 65.2999 243.2 65.2999C242.8 65.1999 242.3 65.1999 241.9 65.0999C241.6 65.0999 241.3 64.9999 241 64.9999C240.5 64.8999 240 64.7999 239.5 64.6999C239.3 64.6999 239 64.5999 238.8 64.5999C238.1 64.3999 237.4 64.2999 236.7 64.0999C231.6 62.6999 227.4 60.7999 224.1 58.2999C223.2 57.5998 222.3 56.8999 221.5 56.0999C221.1 55.6999 220.7 55.2999 220.4 54.8999C218.2 52.4999 216.8 49.7999 216 46.9999L238.3 131.3C240.3 138.9 247.4 145.2 259.1 148.4C259.8 148.6 260.5 148.8 261.2 148.9C261.4 149 261.7 149 261.9 149C262.4 149.1 262.9 149.2 263.3 149.3C263.6 149.4 263.9 149.4 264.2 149.4C264.6 149.5 265.1 149.5 265.5 149.6C265.8 149.6 266.1 149.7 266.4 149.7C266.7 149.7 267 149.8 267.3 149.8C267.4 149.8 267.5 149.8 267.6 149.8C268.6 149.9 269.6 150 270.6 150.1C270.8 150.1 270.9 150.1 271.1 150.1C272 150.2 272.8 150.2 273.7 150.2C273.8 150.2 274 150.2 274.1 150.2C274.3 150.2 274.4 150.2 274.6 150.2C275.2 150.2 275.7 150.2 276.3 150.2C276.6 150.2 277 150.2 277.3 150.2C277.9 150.2 278.5 150.2 279.1 150.1C279.3 150.1 279.6 150.1 279.8 150.1C279.9 150.1 279.9 150.1 280 150.1C280.6 150.1 281.1 150 281.7 150C282 150 282.3 150 282.6 149.9C283.3 149.8 284.1 149.8 284.8 149.7C284.9 149.7 285 149.7 285.2 149.7C286 149.6 286.9 149.5 287.7 149.4C287.9 149.4 288.1 149.3 288.3 149.3C289 149.2 289.6 149.1 290.3 149C290.6 148.9 290.9 148.9 291.2 148.8C291.7 148.7 292.3 148.6 292.8 148.5C293.1 148.4 293.5 148.3 293.8 148.3C294.3 148.2 294.8 148.1 295.3 148H295.4C295.7 147.9 296 147.9 296.2 147.8C296.7 147.7 297.3 147.5 297.8 147.4C298.2 147.3 298.5 147.2 298.8 147.1C299.3 147 299.8 146.8 300.3 146.7C300.4 146.7 300.5 146.6 300.6 146.6C300.8 146.5 301.1 146.5 301.3 146.4C301.9 146.2 302.4 146 303 145.9C303.3 145.8 303.7 145.7 304 145.6C304.5 145.4 305.1 145.2 305.6 145C305.8 144.9 306 144.9 306.2 144.8C306.3 144.8 306.5 144.7 306.6 144.6C307.4 144.3 308.3 144 309.1 143.6C309.2 143.5 309.4 143.5 309.5 143.4C310.4 143 311.4 142.6 312.3 142.2C312.4 142.2 312.5 142.1 312.6 142.1C312.8 142 313.1 141.9 313.3 141.7C313.7 141.5 314.1 141.3 314.6 141.1C314.9 140.9 315.3 140.7 315.6 140.6C316 140.4 316.4 140.2 316.8 139.9C317.1 139.7 317.5 139.5 317.8 139.3C318.2 139.1 318.6 138.8 319 138.6C319.3 138.4 319.7 138.2 320 138C320.4 137.8 320.8 137.5 321.1 137.3C321.3 137.2 321.4 137.1 321.6 137C321.7 136.9 321.8 136.8 321.9 136.8C322.6 136.4 323.3 135.9 323.9 135.4C324 135.3 324.2 135.2 324.3 135.1C325.1 134.5 325.8 134 326.6 133.4C326.8 133.2 327 133.1 327.2 132.9C327.8 132.4 328.3 132 328.9 131.5C329.1 131.3 329.3 131.1 329.5 131C330.2 130.4 330.9 129.7 331.5 129.1C331.7 128.9 331.9 128.7 332 128.6C332.2 128.4 332.3 128.3 332.5 128.1C332.8 127.8 333 127.5 333.3 127.3C333.5 127 333.7 126.8 334 126.5C334.2 126.2 334.5 125.9 334.7 125.7C334.9 125.4 335.1 125.2 335.3 124.9C335.5 124.6 335.7 124.3 335.9 124.1C336.1 123.8 336.3 123.6 336.4 123.3C336.6 123 336.8 122.7 337 122.5C337.1 122.4 337.2 122.3 337.2 122.2C337.3 122.1 337.3 122 337.4 121.9C337.7 121.4 338 120.9 338.3 120.4C338.4 120.2 338.5 120.1 338.6 119.9C338.9 119.3 339.2 118.6 339.5 118V117.9C339.6 117.8 339.6 117.6 339.7 117.5C339.9 117.1 340 116.7 340.2 116.3C340.3 116.1 340.3 115.9 340.4 115.7C340.5 115.3 340.6 115 340.7 114.6C340.7 114.5 340.8 114.4 340.8 114.3C340.8 114.2 340.9 114 340.9 113.9C341 113.6 341 113.3 341.1 113C341.1 112.8 341.2 112.5 341.2 112.3C341.2 112 341.3 111.7 341.3 111.4C341.3 111.3 341.3 111.1 341.4 111C341.4 110.9 341.4 110.8 341.4 110.7C341.4 110.4 341.4 110.2 341.4 109.9C341.4 109.7 341.4 109.4 341.4 109.2C341.4 108.9 341.4 108.7 341.4 108.4C341.4 108.3 341.4 108.1 341.4 108C341.4 107.9 341.4 107.8 341.4 107.7C341.4 107.4 341.3 107.2 341.3 106.9C341.3 106.7 341.2 106.4 341.2 106.2C341.2 105.9 341.1 105.7 341 105.4C341 105.2 340.9 105.1 340.9 104.9C340.9 104.7 340.8 104.6 340.8 104.4L318.5 20.0999C318.5 20.3999 318.6 20.6999 318.6 20.9999Z" fill="white"/>
<path d="M297.7 2.99996C320.8 9.19996 326 28 309.1 44.9C292.2 61.8 259.9 70.5 236.7 64.3C213.5 58.1 208.4 39.4 225.2 22.4C242 5.39996 274.5 -3.20004 297.7 2.99996Z" fill="#FB7070"/>
<path d="M220.4 55.1999C212.5 46.4999 213.7 33.9999 225.2 22.3999C242.1 5.49992 274.5 -3.20008 297.7 2.99992C312 6.79992 319.4 15.4999 319 25.4999" fill="#FB7070"/>
<path d="M220.4 55.1999C212.5 46.4999 213.7 33.9999 225.2 22.3999C242.1 5.49992 274.5 -3.20008 297.7 2.99992C312 6.79992 319.4 15.4999 319 25.4999" stroke="#171A21" stroke-width="2" stroke-miterlimit="10" stroke-linecap="round" stroke-linejoin="round"/>
<path d="M292.7 8.19992C311.9 12.5999 315.8 26.9999 301.5 40.2999C287.2 53.5999 260.2 60.8999 241 56.5999C221.8 52.2999 217.9 37.7999 232.2 24.4999C246.5 11.1999 273.6 3.79992 292.7 8.19992Z" fill="#2F58FF"/>
<path d="M237.8 127C241.3 127.2 244.9 123.5 247.4 120.9C248.2 120.1 249.3 119.8 250.3 120.1L251.2 120.3C253.5 120.9 254.2 123.8 252.5 125.4C250.1 127.6 247.3 129.6 244.8 128.9L237.2 126.8C237.4 126.9 237.6 127 237.8 127ZM223.2 125.9C226.2 136.7 230 140.2 241 143C230.5 140.1 228.4 120.8 228.7 112.3C229 100.7 234.1 91.2001 241.4 82.9001C242.9 81.2001 242.1 78.6001 239.9 78.0001L238.8 77.7001C237.7 77.4001 236.6 77.7001 235.9 78.5001C223.3 91.8001 218.1 107.6 223.2 125.9Z" fill="white"/>
<path d="M241.4 82.8C242.9 81.1 242.1 78.5 239.9 77.9L238.8 77.6C237.7 77.3 236.6 77.6 235.9 78.4C223.3 91.7 218.1 107.6 223.2 125.8C226.2 136.6 230 140.1 241 142.9" fill="white"/>
<path d="M237.2 126.9C237.4 126.9 237.6 127 237.8 127C241.3 127.2 244.9 123.5 247.4 120.9C248.2 120.1 249.3 119.8 250.3 120.1L251.2 120.3C253.5 120.9 254.2 123.8 252.5 125.4M241.4 82.8C242.9 81.1 242.1 78.5 239.9 77.9L238.8 77.6C237.7 77.3 236.6 77.6 235.9 78.4C223.3 91.7 218.1 107.6 223.2 125.8C226.2 136.6 230 140.1 241 142.9" stroke="#171A21" stroke-width="2" stroke-miterlimit="10" stroke-linecap="round" stroke-linejoin="round"/>
<path d="M246.1 84.3999C245.5 82.0999 242.6 81.3998 241 83.1998C237 87.6998 233.8 92.2999 231.5 97.9999C228 107 227.7 116.7 230.6 127.6C233.6 138.6 237.9 143.7 243.7 143.3C248.2 143 252.7 139.6 258 134.5C258.8 133.7 259.1 132.6 258.8 131.5L257.5 126.6C256.9 124.4 254.3 123.7 252.6 125.1C250.1 127.3 247.7 128.9 245.9 129C244.9 129.1 241.8 129.3 239.1 119.1C236.4 108.9 238.2 104.3 238.8 102.7C240.3 98.8998 243.4 95.2999 246.7 91.7999C247.4 90.9999 247.7 89.9999 247.4 88.8999L246.1 84.3999Z" fill="#2F58FF"/>
<path d="M292 137.8C276.6 141.5 260.4 143 244.6 141.2C230.6 139.6 215.8 135.5 205.1 125.9C200.2 121.5 196.3 115.9 194.6 109.5L215.6 188.9C219.1 201.8 230.6 210.3 242.5 215C257.6 221 274.5 222.1 290.5 220.8C298 220.2 305.5 219 312.8 217.2C315.2 216.6 316.7 214.2 316 211.8L297.2 140.9C296.6 138.6 294.3 137.2 292 137.8Z" fill="white"/>
<path d="M300.2 151.9L297.6 141.9C297 139.6 294.7 138.2 292.3 138.8C276.9 142.5 260.7 144 244.9 142.2C230.9 140.6 216.1 136.5 205.4 126.9" stroke="#171A21" stroke-width="2" stroke-miterlimit="10" stroke-linecap="round" stroke-linejoin="round"/>
</svg>
