<svg width="493" height="464" viewBox="0 0 493 464" fill="none" xmlns="http://www.w3.org/2000/svg">
<path d="M391.7 372.6C389.9 371.6 387.4 372.2 386.1 374C344.8 442.1 263.7 452.3 212.9 459.5C210.6 459.8 209 461.3 210.6 462.3C211.2 462.7 212.3 462.9 214.1 463C237.4 464.3 302.7 462.1 347.6 436C392.6 409.9 394.6 380.1 393.6 375.7C393.4 374.1 392.6 373.1 391.7 372.6ZM344.2 357.6C343 356.9 341.1 356.4 339.1 356.2C328 355.2 317.8 355 305.8 348.1L265.9 325.1C263.2 323.5 260.6 322 257.9 320.5C244.1 312.6 230.8 305.8 210.6 306.2C191.4 306.4 171.9 313.9 159.5 321.1C135.3 335.2 117.4 356.1 141.8 376.8C142.1 377 142.4 377.2 142.7 377.4C145.3 378.9 148.7 378.5 151 377.7L178.3 364.9C180.5 363.5 179.9 361.2 178 359.6C169.7 352.4 173.4 344.5 183.1 338.8C188.3 335.8 196.2 333.4 204 334.4C211 335.2 216.6 338.1 221.7 341C223 341.8 224.3 342.5 225.6 343.3L228.9 345.2C215.9 354.7 197.7 366.6 190 378.1C181 391.3 183.9 406 204.7 418C231.3 433.4 261.3 431.3 282.6 418.9C300.7 408.4 306.3 400.2 305.9 383.8C317.3 385 322.1 386 337.6 385.2C340.5 384.7 342.8 383.2 343 381.4H343.1C343.6 375.8 344.8 365.8 345.6 360.3C346 359.2 345.4 358.3 344.2 357.6ZM237.6 393.9C215.8 381.3 231.2 367.7 249.6 357L255.1 360.2C256 360.7 256.9 361.2 257.8 361.7C266.6 366.8 274 371.3 277.5 378.6C280.7 385.1 278.7 391.4 271.5 395.5C261.8 401.3 248.7 400.3 237.6 393.9ZM399.8 355.4C398.3 354.6 397 354 396 353.9C391.1 353.5 379.7 359.5 373.8 364C368 368.3 362.2 376.1 364.8 377.6C364.9 377.7 365 377.7 365.2 377.8C366.6 378.1 367.1 377.3 371.4 374.3C375.6 371.3 387.1 362.7 393.5 363.2C394.5 363.3 395.7 363.7 396.9 364.4C403 367.9 410.5 378.1 411.8 380.1C412.2 380.6 412.6 381 413 381.3C414.4 382.1 415.9 381.3 416.2 379.5C416.6 377.1 415.9 371.9 411.9 366.4C408.7 362.2 403.7 357.6 399.8 355.4Z" fill="white"/>
<path d="M270 266.8L368.6 240.4C371.1 239.7 373.5 242 372.8 244.6L349.9 331C348.6 335.7 344.9 339.5 340.2 340.7L243.5 366.6C238.8 367.9 233.7 366.5 230.2 363L160 292.4C156.6 288.9 155.2 283.9 156.5 279.2L179.4 192.7C180.1 190.1 183.3 189.3 185.1 191.2L256.7 263.2C260.2 266.7 265.3 268.1 270 266.8Z" fill="#2F58FF"/>
<path d="M292.9 157.8L258.6 104.8C257 102.3 253.9 101.1 251.1 101.9L153 128.3C148.5 129.5 146.5 134.7 149 138.6L180.9 187.8L292.9 157.8Z" fill="#FB7070"/>
<path d="M292 156.6L348.3 141.8C350.7 141.2 353.2 141.9 354.9 143.6L425.7 214.4C429.4 218.1 427.7 224.5 422.6 225.9L374 238.6L292 156.6Z" fill="#FB7070"/>
<path d="M262.7 268.7L206.4 283.5C204 284.1 201.5 283.4 199.8 281.7L129.1 211C125.4 207.3 127.1 200.9 132.2 199.5L180.7 186.8L262.7 268.7Z" fill="#FB7070"/>
<path d="M262.1 268.6L276.5 321.8C277.5 325.4 281.2 327.6 284.9 326.6L383.7 300.1C387.4 299.1 389.5 295.4 388.5 291.7L374.1 238.5L262.1 268.6Z" fill="#FB7070"/>
<path d="M355.9 307.6L383.7 300.2C387.4 299.2 389.5 295.5 388.5 291.8L374.1 238.6" stroke="#171A21" stroke-width="2" stroke-miterlimit="10" stroke-linecap="round" stroke-linejoin="round"/>
<path d="M374 238.6L422.5 225.9C427.6 224.6 429.3 218.2 425.6 214.4L354.8 143.6C353.1 141.9 350.6 141.2 348.2 141.8L292 156.5L258.5 104.8C256.9 102.3 253.8 101.1 251 101.9L153 128.3C148.5 129.5 146.5 134.7 149 138.6L180.3 186.9L132.2 199.5C127.1 200.8 125.4 207.2 129.1 211L165 246.9" stroke="#171A21" stroke-width="2" stroke-miterlimit="10" stroke-linecap="round" stroke-linejoin="round"/>
<path d="M185.1 191.2L256.7 263.2C260.2 266.7 265.2 268 270 266.8L368.6 240.4C371.1 239.7 372 236.5 370.1 234.7L298.5 162.7C295 159.2 290 157.9 285.2 159.1L186.6 185.5C184.1 186.2 183.3 189.3 185.1 191.2Z" stroke="#171A21" stroke-width="2" stroke-miterlimit="10" stroke-linecap="round" stroke-linejoin="round" stroke-dasharray="12 12"/>
<path d="M335.4 33.5C323.7 30.4 311.1 29.4 299.1 30.3C287 31.2 275 33.3 263.4 37C241.6 44 219.5 55.3 205.2 73.8C197.4 83.8 192.1 96.8 195.6 109.5L216.6 188.9C212.6 174.2 220.2 159.5 229.9 148.8C239.9 137.8 252.7 129.5 266.1 123.4C280.4 116.9 295.6 112.6 311.1 110.6C326.2 108.6 342.1 109 356.9 113C370.1 116.6 383.9 123.8 390.1 136.6C390.9 138.3 391.6 140 392.1 141.9L371.1 62.5C367.1 48.5 353.8 38.4 335.4 33.5C353.8 38.4 334.3 33.2 335.4 33.5Z" fill="#2F58FF"/>
<path d="M319.6 20.9999C319.7 21.2999 319.7 21.4999 319.8 21.7999C319.8 21.9999 319.9 22.2999 319.9 22.4999C319.9 22.7999 320 22.9999 320 23.2999C320 23.4999 320 23.7999 320 23.9999C320 24.2999 320 24.4999 320 24.7999C320 24.9999 320 25.2999 320 25.4999C320 25.7999 320 25.9999 320 26.2999C320 26.4999 320 26.7999 319.9 26.9999C319.9 27.2999 319.8 27.5999 319.8 27.8999C319.8 28.0999 319.7 28.3999 319.7 28.5999C319.6 28.8999 319.6 29.1999 319.5 29.4999C319.4 29.6999 319.4 29.9999 319.3 30.1999C319.2 30.5999 319.1 30.8999 319 31.2999C318.9 31.4999 318.9 31.6999 318.8 31.8999C318.7 32.2999 318.5 32.6999 318.3 33.0999C318.2 33.2999 318.2 33.3999 318.1 33.5999C317.8 34.1999 317.5 34.8999 317.2 35.4999C317.1 35.6999 317 35.7999 316.9 35.9999C316.6 36.4999 316.4 36.9999 316 37.4999C315.9 37.6999 315.7 37.8999 315.6 38.1999C315.4 38.4999 315.2 38.7999 315 38.9999C314.8 39.2999 314.6 39.4999 314.5 39.7999C314.3 40.0999 314.1 40.3999 313.9 40.5999C313.7 40.8999 313.5 41.0999 313.3 41.3999C313.1 41.6999 312.8 41.9999 312.6 42.1999C312.4 42.4999 312.2 42.6999 311.9 42.9999C311.6 43.2999 311.4 43.5999 311.1 43.7999C310.8 44.0999 310.5 44.4999 310.1 44.7999C309.5 45.3999 308.8 46.0999 308.1 46.6999C307.9 46.8999 307.7 47.0999 307.5 47.1999C307 47.6999 306.4 48.0999 305.8 48.5999C305.6 48.7999 305.4 48.8999 305.2 49.0999C304.5 49.6999 303.7 50.2999 302.9 50.7999C302.8 50.8999 302.6 50.9999 302.5 51.0999C301.8 51.5999 301.2 51.9999 300.5 52.4999C300.2 52.6999 299.9 52.8999 299.7 52.9999C299.3 53.1999 298.9 53.4999 298.6 53.6999C298.3 53.8999 298 54.0998 297.6 54.2999C297.2 54.4999 296.8 54.7999 296.4 54.9999C296.1 55.1999 295.7 55.3999 295.4 55.5999C295 55.7999 294.6 55.9999 294.2 56.2999C293.9 56.4999 293.5 56.6999 293.2 56.7999C292.8 56.9999 292.4 57.1999 291.9 57.3999C291.6 57.5999 291.3 57.6999 290.9 57.8999C290 58.2999 289.1 58.6999 288.1 59.0999C288 59.1999 287.8 59.1999 287.7 59.2999C286.9 59.5998 286.1 59.9999 285.2 60.2999C284.9 60.3998 284.6 60.4999 284.3 60.6999C283.8 60.8999 283.2 61.0998 282.7 61.2999C282.4 61.3998 282 61.4999 281.7 61.5999C281.1 61.7999 280.6 61.9999 280 62.0999C279.7 62.1999 279.4 62.2999 279 62.3999C278.5 62.4999 278 62.6999 277.5 62.7999C277.2 62.8998 276.8 62.9999 276.5 63.0999C276 63.1999 275.4 63.3999 274.9 63.4999C274.6 63.5999 274.3 63.6999 274 63.6999C273.5 63.7999 273 63.8999 272.5 63.9999C272.2 64.0999 271.8 64.1999 271.5 64.1999C271 64.2999 270.4 64.3999 269.9 64.4999C269.6 64.5999 269.3 64.5999 269 64.6999C268.3 64.7999 267.7 64.8999 267 64.9999C266.8 64.9999 266.6 65.0999 266.4 65.0999C265.6 65.1999 264.7 65.2999 263.9 65.3999C263.8 65.3999 263.6 65.3999 263.5 65.3999C262.8 65.4999 262 65.5999 261.3 65.5999C261 65.5999 260.7 65.5999 260.4 65.6999C259.8 65.6999 259.3 65.7999 258.7 65.7999C258.4 65.7999 258.1 65.7999 257.8 65.7999C257.2 65.7999 256.6 65.8999 256 65.8999C255.7 65.8999 255.3 65.8999 255 65.8999C254.4 65.8999 253.9 65.8999 253.3 65.8999C253 65.8999 252.7 65.8999 252.4 65.8999C251.5 65.8999 250.6 65.7999 249.8 65.7999C249.6 65.7999 249.5 65.7999 249.3 65.7999C248.3 65.6999 247.3 65.5999 246.3 65.4999C245.9 65.4999 245.5 65.3999 245.1 65.3999C244.8 65.3999 244.5 65.2999 244.2 65.2999C243.8 65.1999 243.3 65.1999 242.9 65.0999C242.6 65.0999 242.3 64.9999 242 64.9999C241.5 64.8999 241 64.7999 240.5 64.6999C240.3 64.6999 240 64.5999 239.8 64.5999C239.1 64.3999 238.4 64.2999 237.7 64.0999C232.6 62.6999 228.4 60.7999 225.1 58.2999C224.2 57.5998 223.3 56.8999 222.5 56.0999C222.1 55.6999 221.7 55.2999 221.4 54.8999C219.2 52.4999 217.8 49.7999 217 46.9999L239.3 131.3C241.3 138.9 248.4 145.2 260.1 148.4C260.8 148.6 261.5 148.8 262.2 148.9C262.4 149 262.7 149 262.9 149C263.4 149.1 263.9 149.2 264.3 149.3C264.6 149.4 264.9 149.4 265.2 149.4C265.6 149.5 266.1 149.5 266.5 149.6C266.8 149.6 267.1 149.7 267.4 149.7C267.7 149.7 268 149.8 268.3 149.8C268.4 149.8 268.5 149.8 268.6 149.8C269.6 149.9 270.6 150 271.6 150.1C271.8 150.1 271.9 150.1 272.1 150.1C273 150.2 273.8 150.2 274.7 150.2C274.8 150.2 275 150.2 275.1 150.2C275.3 150.2 275.4 150.2 275.6 150.2C276.2 150.2 276.7 150.2 277.3 150.2C277.6 150.2 278 150.2 278.3 150.2C278.9 150.2 279.5 150.2 280.1 150.1C280.3 150.1 280.6 150.1 280.8 150.1C280.9 150.1 280.9 150.1 281 150.1C281.6 150.1 282.1 150 282.7 150C283 150 283.3 150 283.6 149.9C284.3 149.8 285.1 149.8 285.8 149.7C285.9 149.7 286 149.7 286.2 149.7C287 149.6 287.9 149.5 288.7 149.4C288.9 149.4 289.1 149.3 289.3 149.3C290 149.2 290.6 149.1 291.3 149C291.6 148.9 291.9 148.9 292.2 148.8C292.7 148.7 293.3 148.6 293.8 148.5C294.1 148.4 294.5 148.3 294.8 148.3C295.3 148.2 295.8 148.1 296.3 148H296.4C296.7 147.9 297 147.9 297.2 147.8C297.7 147.7 298.3 147.5 298.8 147.4C299.2 147.3 299.5 147.2 299.8 147.1C300.3 147 300.8 146.8 301.3 146.7C301.4 146.7 301.5 146.6 301.6 146.6C301.8 146.5 302.1 146.5 302.3 146.4C302.9 146.2 303.4 146 304 145.9C304.3 145.8 304.7 145.7 305 145.6C305.5 145.4 306.1 145.2 306.6 145C306.8 144.9 307 144.9 307.2 144.8C307.3 144.8 307.5 144.7 307.6 144.6C308.4 144.3 309.3 144 310.1 143.6C310.2 143.5 310.4 143.5 310.5 143.4C311.4 143 312.4 142.6 313.3 142.2C313.4 142.2 313.5 142.1 313.6 142.1C313.8 142 314.1 141.9 314.3 141.7C314.7 141.5 315.1 141.3 315.6 141.1C315.9 140.9 316.3 140.7 316.6 140.6C317 140.4 317.4 140.2 317.8 139.9C318.1 139.7 318.5 139.5 318.8 139.3C319.2 139.1 319.6 138.8 320 138.6C320.3 138.4 320.7 138.2 321 138C321.4 137.8 321.8 137.5 322.1 137.3C322.3 137.2 322.4 137.1 322.6 137C322.7 136.9 322.8 136.8 322.9 136.8C323.6 136.4 324.3 135.9 324.9 135.4C325 135.3 325.2 135.2 325.3 135.1C326.1 134.5 326.8 134 327.6 133.4C327.8 133.2 328 133.1 328.2 132.9C328.8 132.4 329.3 132 329.9 131.5C330.1 131.3 330.3 131.1 330.5 131C331.2 130.4 331.9 129.7 332.5 129.1C332.7 128.9 332.9 128.7 333 128.6C333.2 128.4 333.3 128.3 333.5 128.1C333.8 127.8 334 127.5 334.3 127.3C334.5 127 334.7 126.8 335 126.5C335.2 126.2 335.5 125.9 335.7 125.7C335.9 125.4 336.1 125.2 336.3 124.9C336.5 124.6 336.7 124.3 336.9 124.1C337.1 123.8 337.3 123.6 337.4 123.3C337.6 123 337.8 122.7 338 122.5C338.1 122.4 338.2 122.3 338.2 122.2C338.3 122.1 338.3 122 338.4 121.9C338.7 121.4 339 120.9 339.3 120.4C339.4 120.2 339.5 120.1 339.6 119.9C339.9 119.3 340.2 118.6 340.5 118V117.9C340.6 117.8 340.6 117.6 340.7 117.5C340.9 117.1 341 116.7 341.2 116.3C341.3 116.1 341.3 115.9 341.4 115.7C341.5 115.3 341.6 115 341.7 114.6C341.7 114.5 341.8 114.4 341.8 114.3C341.8 114.2 341.9 114 341.9 113.9C342 113.6 342 113.3 342.1 113C342.1 112.8 342.2 112.5 342.2 112.3C342.2 112 342.3 111.7 342.3 111.4C342.3 111.3 342.3 111.1 342.4 111C342.4 110.9 342.4 110.8 342.4 110.7C342.4 110.4 342.4 110.2 342.4 109.9C342.4 109.7 342.4 109.4 342.4 109.2C342.4 108.9 342.4 108.7 342.4 108.4C342.4 108.3 342.4 108.1 342.4 108C342.4 107.9 342.4 107.8 342.4 107.7C342.4 107.4 342.3 107.2 342.3 106.9C342.3 106.7 342.2 106.4 342.2 106.2C342.2 105.9 342.1 105.7 342 105.4C342 105.2 341.9 105.1 341.9 104.9C341.9 104.7 341.8 104.6 341.8 104.4L319.5 20.0999C319.5 20.3999 319.6 20.6999 319.6 20.9999Z" fill="white"/>
<path d="M298.7 2.99996C321.8 9.19996 327 28 310.1 44.9C293.2 61.8 260.9 70.5 237.7 64.3C214.5 58.1 209.4 39.4 226.2 22.4C243 5.39996 275.5 -3.20004 298.7 2.99996Z" fill="#FB7070"/>
<path d="M221.4 55.1999C213.5 46.4999 214.7 33.9999 226.2 22.3999C243.1 5.49992 275.5 -3.20008 298.7 2.99992C313 6.79992 320.4 15.4999 320 25.4999" fill="#FB7070"/>
<path d="M221.4 55.1999C213.5 46.4999 214.7 33.9999 226.2 22.3999C243.1 5.49992 275.5 -3.20008 298.7 2.99992C313 6.79992 320.4 15.4999 320 25.4999" stroke="#171A21" stroke-width="2" stroke-miterlimit="10" stroke-linecap="round" stroke-linejoin="round"/>
<path d="M293.7 8.19992C312.9 12.5999 316.8 26.9999 302.5 40.2999C288.2 53.5999 261.2 60.8999 242 56.5999C222.8 52.2999 218.9 37.7999 233.2 24.4999C247.5 11.1999 274.6 3.79992 293.7 8.19992Z" fill="#2F58FF"/>
<path d="M238.8 127C242.3 127.2 245.9 123.5 248.4 120.9C249.2 120.1 250.3 119.8 251.3 120.1L252.2 120.3C254.5 120.9 255.2 123.8 253.5 125.4C251.1 127.6 248.3 129.6 245.8 128.9L238.2 126.8C238.4 126.9 238.6 127 238.8 127ZM224.2 125.9C227.2 136.7 231 140.2 242 143C231.5 140.1 229.4 120.8 229.7 112.3C230 100.7 235.1 91.2001 242.4 82.9001C243.9 81.2001 243.1 78.6001 240.9 78.0001L239.8 77.7001C238.7 77.4001 237.6 77.7001 236.9 78.5001C224.3 91.8001 219.1 107.6 224.2 125.9Z" fill="white"/>
<path d="M242.4 82.8C243.9 81.1 243.1 78.5 240.9 77.9L239.8 77.6C238.7 77.3 237.6 77.6 236.9 78.4C224.3 91.7 219.1 107.6 224.2 125.8C227.2 136.6 231 140.1 242 142.9" fill="white"/>
<path d="M238.2 126.9C238.4 126.9 238.6 127 238.8 127C242.3 127.2 245.9 123.5 248.4 120.9C249.2 120.1 250.3 119.8 251.3 120.1L252.2 120.3C254.5 120.9 255.2 123.8 253.5 125.4M242.4 82.8C243.9 81.1 243.1 78.5 240.9 77.9L239.8 77.6C238.7 77.3 237.6 77.6 236.9 78.4C224.3 91.7 219.1 107.6 224.2 125.8C227.2 136.6 231 140.1 242 142.9" stroke="#171A21" stroke-width="2" stroke-miterlimit="10" stroke-linecap="round" stroke-linejoin="round"/>
<path d="M247.1 84.3999C246.5 82.0999 243.6 81.3998 242 83.1998C238 87.6998 234.8 92.2999 232.5 97.9999C229 107 228.7 116.7 231.6 127.6C234.6 138.6 238.9 143.7 244.7 143.3C249.2 143 253.7 139.6 259 134.5C259.8 133.7 260.1 132.6 259.8 131.5L258.5 126.6C257.9 124.4 255.3 123.7 253.6 125.1C251.1 127.3 248.7 128.9 246.9 129C245.9 129.1 242.8 129.3 240.1 119.1C237.4 108.9 239.2 104.3 239.8 102.7C241.3 98.8998 244.4 95.2999 247.7 91.7999C248.4 90.9999 248.7 89.9999 248.4 88.8999L247.1 84.3999Z" fill="#2F58FF"/>
<path d="M293 137.8C277.6 141.5 261.4 143 245.6 141.2C231.6 139.6 216.8 135.5 206.1 125.9C201.2 121.5 197.3 115.9 195.6 109.5L216.6 188.9C220.1 201.8 231.6 210.3 243.5 215C258.6 221 275.5 222.1 291.5 220.8C299 220.2 306.5 219 313.8 217.2C316.2 216.6 317.7 214.2 317 211.8L298.2 140.9C297.6 138.6 295.3 137.2 293 137.8Z" fill="white"/>
<path d="M301.2 151.9L298.6 141.9C298 139.6 295.7 138.2 293.3 138.8C277.9 142.5 261.7 144 245.9 142.2C231.9 140.6 217.1 136.5 206.4 126.9" stroke="#171A21" stroke-width="2" stroke-miterlimit="10" stroke-linecap="round" stroke-linejoin="round"/>
<path d="M103.1 112.9L50.7001 143.1C44.4001 146.8 39.3 155.6 39.3 162.9L39.4 200.5C39.4 207.8 44.6 210.7 50.9 207L103.3 176.8C109.6 173.1 114.7 164.3 114.7 157L114.6 119.4C114.6 112.2 109.5 109.3 103.1 112.9Z" fill="#2F58FF"/>
<path d="M96.6001 128C95.7001 128.5 95.0001 129.8 95.0001 130.8L95.1001 160.9C95.1001 161.9 95.8001 162.4 96.7001 161.8C97.6001 161.3 98.3001 160 98.3001 159L98.2001 128.9C98.3001 127.9 97.5001 127.5 96.6001 128ZM90.1001 131.8C89.2001 132.3 88.5001 133.6 88.5001 134.6L88.6001 164.7C88.6001 165.7 89.3001 166.2 90.2001 165.6C91.1001 165.1 91.8001 163.8 91.8001 162.8L91.7001 132.7C91.7001 131.7 91.0001 131.2 90.1001 131.8ZM83.5001 135.5C82.6001 136 81.9001 137.3 81.9001 138.3L82.0001 168.4C82.0001 169.4 82.7001 169.9 83.6001 169.3C84.5001 168.8 85.2001 167.5 85.2001 166.5L85.1001 136.4C85.2001 135.4 84.5001 135 83.5001 135.5ZM77.0001 139.3C76.1001 139.8 75.4001 141.1 75.4001 142.1L75.5001 179.7C75.5001 180.7 76.2001 181.2 77.1001 180.6C78.0001 180.1 78.7001 178.8 78.7001 177.8L78.6001 140.2C78.6001 139.2 77.9001 138.8 77.0001 139.3ZM70.5001 143.1C69.6001 143.6 68.9001 144.9 68.9001 145.9L69.0001 176C69.0001 177 69.7001 177.5 70.6001 176.9C71.5001 176.4 72.2001 175.1 72.2001 174.1L72.1001 144C72.1001 143 71.4001 142.6 70.5001 143.1ZM63.9001 146.9C63.0001 147.4 62.3001 148.7 62.3001 149.7L62.4001 179.8C62.4001 180.8 63.1001 181.3 64.0001 180.7C64.9001 180.2 65.6001 178.9 65.6001 177.9L65.5001 147.8C65.6001 146.8 64.8001 146.3 63.9001 146.9ZM57.4001 150.6C56.5001 151.1 55.8001 152.4 55.8001 153.4L55.9001 183.5C55.9001 184.5 56.6001 185 57.5001 184.4C58.4001 183.9 59.1001 182.6 59.1001 181.6L59.0001 151.6C59.0001 150.5 58.3001 150.1 57.4001 150.6ZM50.8001 154.4C49.9001 154.9 49.2001 156.2 49.2001 157.2L49.3001 194.8C49.3001 195.8 50.0001 196.3 50.9001 195.7C51.8001 195.2 52.5001 193.9 52.5001 192.9L52.4001 155.3C52.5001 154.3 51.7001 153.9 50.8001 154.4ZM64.0001 184.5C63.8001 184.6 63.6001 184.8 63.4001 185C63.2001 185.2 63.0001 185.4 62.9001 185.7L62.8001 185.8C62.2001 186.9 62.2001 188 62.9001 188.3C63.0001 188.4 63.2001 188.4 63.4001 188.4C63.6001 188.4 63.8001 188.3 64.0001 188.2C64.4001 187.9 64.8001 187.5 65.1001 187C65.7001 185.9 65.8001 184.7 65.1001 184.3C64.9001 184.2 64.4001 184.2 64.0001 184.5ZM57.5001 188.3C57.3001 188.4 57.1001 188.6 56.9001 188.8C56.5001 189.2 56.2001 189.8 56.0001 190.3C55.8001 190.9 55.8001 191.4 56.0001 191.7C56.1001 191.9 56.2001 192 56.4001 192.1C56.5001 192.2 56.7001 192.2 56.9001 192.2C57.1001 192.2 57.3001 192.1 57.5001 192C57.9001 191.7 58.3001 191.3 58.6001 190.8C59.2001 189.7 59.3001 188.5 58.6001 188.1C58.3001 188 57.9001 188 57.5001 188.3ZM70.6001 180.7C70.4001 180.8 70.2001 181 70.0001 181.2C69.8001 181.4 69.6001 181.6 69.5001 181.9L69.4001 182C68.8001 183.1 68.8001 184.2 69.5001 184.5C69.6001 184.6 69.8001 184.6 70.0001 184.6C70.2001 184.6 70.4001 184.5 70.6001 184.4C71.0001 184.2 71.4001 183.7 71.7001 183.2C71.9001 182.9 72.0001 182.7 72.1001 182.4C72.3001 181.8 72.3001 181.3 72.1001 181C72.0001 180.8 71.9001 180.7 71.7001 180.6C71.4001 180.4 71.0001 180.5 70.6001 180.7ZM96.7001 165.6C96.3001 165.8 95.9001 166.3 95.6001 166.8C95.4001 167.1 95.3001 167.3 95.2001 167.6C95.0001 168.2 95.0001 168.7 95.2001 169C95.3001 169.2 95.4001 169.3 95.6001 169.4C95.9001 169.6 96.3001 169.6 96.7001 169.3C97.1001 169 97.5001 168.6 97.8001 168.1C98.4001 167 98.4001 165.8 97.8001 165.4C97.6001 165.3 97.2001 165.4 96.7001 165.6ZM90.2001 169.4C89.8001 169.6 89.4001 170.1 89.1001 170.6C88.8001 171.1 88.6001 171.7 88.6001 172.2C88.6001 173.2 89.3001 173.7 90.2001 173.2C90.6001 172.9 91.0001 172.5 91.3001 172C91.9001 170.9 92.0001 169.7 91.3001 169.3C91.0001 169.1 90.6001 169.1 90.2001 169.4ZM83.7001 173.2C83.3001 173.4 82.9001 173.9 82.6001 174.4C82.3001 174.9 82.1001 175.5 82.1001 176C82.1001 177 82.8001 177.5 83.7001 177C84.1001 176.8 84.5001 176.3 84.8001 175.8C85.0001 175.5 85.1001 175.3 85.2001 175C85.4001 174.4 85.4001 173.9 85.2001 173.6C85.1001 173.4 85.0001 173.3 84.8001 173.2C84.5001 172.9 84.1001 172.9 83.7001 173.2ZM103.2 124.2C102.3 124.7 101.6 126 101.6 127L101.7 164.6C101.7 165.6 102.4 166.1 103.3 165.5C104.2 165 104.9 163.7 104.9 162.7L104.8 125.1C104.8 124.1 104.1 123.7 103.2 124.2Z" fill="white"/>
<path d="M8.80003 36.9001L1.30003 65.1001C0.400028 68.5001 1.70003 73.3 4.10003 75.7001L23 94.5001C25.5 97.0001 28.2 96.2001 29.1 92.8001L36.6 64.7001C37.5 61.3001 36.2 56.5001 33.8 54.1001L15 35.3001C12.5 32.8001 9.70003 33.5001 8.80003 36.9001Z" fill="#FB7070" stroke="#171A21" stroke-width="2" stroke-miterlimit="10" stroke-linecap="round" stroke-linejoin="round"/>
<path d="M492 242.5V278C492 282.3 489 287.5 485.3 289.6L457.2 305.7C453.5 307.8 450.5 306.1 450.5 301.8V266.3C450.5 262 453.5 256.8 457.2 254.7L485.3 238.6C489 236.4 492 238.2 492 242.5Z" fill="#2F58FF"/>
<path d="M458.6 74.3001C440.3 63.7001 425.3 72.2001 425.2 93.3001C425.1 114.4 440 140.1 458.3 150.7C476.6 161.3 491.6 152.8 491.7 131.7C491.8 110.6 476.9 84.9001 458.6 74.3001Z" fill="#FB7070" stroke="#171A21" stroke-width="2" stroke-miterlimit="10" stroke-linecap="round" stroke-linejoin="round"/>
<path d="M462.8 113.4L456 109.4C455.2 108.9 454.2 109.5 454.2 110.5L454.1 130.9C454.1 131.3 454.3 131.7 454.7 132L460.9 135.6C461.7 136.1 462.7 135.5 462.7 134.5L462.8 113.4ZM458.6 90.9001C455.4 89.1001 452.8 90.5001 452.8 94.2001C452.8 97.9001 455.4 102.3 458.6 104.2C461.8 106 464.4 104.6 464.4 100.9C464.3 97.2001 461.7 92.8001 458.6 90.9001Z" fill="white"/>
</svg>
