<svg width="411" height="435" viewBox="0 0 411 435" fill="none" xmlns="http://www.w3.org/2000/svg">
<path d="M407.721 301.839L347.697 267.431L305.799 300.211L359.636 345.257L407.721 301.839Z" fill="white" stroke="#171A21" stroke-width="2" stroke-miterlimit="10" stroke-linecap="round" stroke-linejoin="round"/>
<path d="M391.657 285.667C391.657 283.93 390.68 282.302 389.052 281.433L313.831 243.226C309.056 239.753 302.109 239.97 294.511 244.312L250.334 269.819C243.604 273.727 237.417 281.216 233.944 289.791L220.81 321.92C220.484 322.788 219.942 323.44 219.182 323.982L194.651 341.349C187.921 346.125 182.386 354.375 179.998 362.515C178.912 365.989 178.478 369.354 178.586 372.501C178.586 372.935 178.586 373.261 178.695 373.695C178.695 373.804 178.695 373.912 178.695 374.129L178.912 392.582C178.912 394.21 179.889 395.838 181.3 396.598L242.193 431.549C245.124 433.177 248.705 431.44 249.248 428.076L252.722 403.762C252.83 402.676 253.373 401.699 254.133 401.048L278.121 378.254C278.555 377.82 278.989 377.494 279.532 377.277L345.852 349.382C346.286 349.273 346.612 349.056 346.937 348.73L379.175 323.657C379.5 323.331 379.826 323.006 380.151 322.68L390.789 307.484C391.331 306.724 391.657 305.747 391.657 304.77V285.667Z" fill="#FB7070"/>
<path d="M401.208 344.171L363.326 336.79L305.798 399.311L256.736 397.141L339.881 340.372L388.399 319.315L406.418 329.192L401.208 344.171Z" fill="#2F58FF"/>
<path d="M271.282 432.634L249.248 420.26L272.802 383.247L293.1 394.644L271.282 432.634Z" fill="#2F58FF"/>
<path d="M282.787 396.163C277.035 399.528 272.042 406.041 269.328 412.879C268.025 416.244 267.266 419.717 267.266 422.974C267.266 423.408 267.266 423.733 267.266 424.168C267.808 433.177 274.538 436.65 282.787 431.874C291.037 427.098 297.766 415.81 298.309 406.258C298.309 405.824 298.309 405.498 298.309 405.064C298.309 401.808 297.549 399.203 296.247 397.357C293.533 393.558 288.54 392.799 282.787 396.163Z" fill="#FB7070"/>
<path d="M282.787 405.064C279.856 406.692 277.359 409.948 276.057 413.422C275.406 415.158 275.08 416.895 275.08 418.523C275.08 418.74 275.08 418.958 275.08 419.066C275.406 423.625 278.771 425.362 282.895 422.974C287.02 420.586 290.385 414.941 290.602 410.166C290.602 409.948 290.602 409.731 290.602 409.623C290.602 407.995 290.168 406.692 289.516 405.715C288.214 403.761 285.609 403.436 282.787 405.064Z" fill="#2F58FF"/>
<path d="M366.475 377.495L344.549 365.121L367.994 328.107L388.4 339.504L366.475 377.495Z" fill="#2F58FF"/>
<path d="M377.981 341.024C372.228 344.389 367.235 350.902 364.521 357.74C363.219 361.105 362.459 364.578 362.459 367.835C362.459 368.269 362.459 368.594 362.459 369.029C363.002 378.038 369.731 381.511 377.981 376.735C386.23 371.959 392.96 360.671 393.502 351.119C393.502 350.685 393.502 350.359 393.502 349.925C393.502 346.669 392.743 344.064 391.44 342.218C388.835 338.311 383.733 337.66 377.981 341.024Z" fill="#FB7070"/>
<path d="M377.98 349.925C375.049 351.553 372.553 354.809 371.25 358.283C370.599 360.019 370.273 361.756 370.273 363.384C370.273 363.601 370.273 363.818 370.273 363.927C370.599 368.486 373.964 370.222 378.089 367.834C382.213 365.446 385.578 359.802 385.795 355.026C385.795 354.809 385.795 354.592 385.795 354.484C385.795 352.855 385.361 351.553 384.71 350.576C383.407 348.622 380.911 348.297 377.98 349.925Z" fill="#2F58FF"/>
<path d="M363.761 284.147L319.584 309.655C312.854 313.563 306.667 321.052 303.194 329.627L290.06 361.756C289.734 362.624 289.191 363.275 288.432 363.818L263.901 381.185C257.171 385.961 251.636 394.21 249.248 402.351C248.162 405.824 247.728 409.189 247.836 412.337C247.836 412.771 247.836 413.097 247.945 413.531C247.945 413.639 247.945 413.748 247.945 413.965L248.162 427.099C248.162 430.681 252.178 432.96 255.217 431.115L263.25 426.448C263.25 426.122 263.25 425.688 263.25 425.254C263.25 422.214 263.575 419.501 264.661 416.136L264.878 415.376C265.203 414.399 265.529 413.422 265.855 412.554C269.328 403.654 275.841 395.513 282.787 391.497C289.734 387.481 296.247 388.023 299.829 393.016C300.154 393.559 300.48 394.102 300.806 394.753C301.891 396.924 302.434 399.637 302.434 402.785C302.434 403.219 302.434 403.545 302.434 403.979L358.551 371.525C358.551 371.199 358.551 370.765 358.551 370.331C358.551 367.291 359.093 363.927 360.179 360.453C360.504 359.476 360.83 358.499 361.156 357.631C364.629 348.731 371.142 340.59 378.089 336.574C385.035 332.558 391.548 333.1 395.021 338.093C395.347 338.636 395.781 339.179 395.998 339.83C397.084 342.001 397.626 344.714 397.626 347.862C397.626 348.296 397.626 348.622 397.626 349.056L407.612 343.303C409.023 342.435 410 340.915 410 339.179V307.158C409.783 285.667 386.989 270.471 363.761 284.147Z" fill="white"/>
<path d="M394.913 338.093C395.238 338.636 395.672 339.179 395.89 339.83C396.975 342.001 397.518 344.714 397.518 347.862C397.518 348.296 397.518 348.622 397.518 349.056L407.504 343.303C408.915 342.435 409.892 340.915 409.892 339.179V307.158C409.892 285.667 387.098 270.471 363.869 284.147M299.72 393.016C300.046 393.559 300.371 394.102 300.697 394.753C301.783 396.924 302.325 399.637 302.325 402.785C302.325 403.219 302.325 403.545 302.325 403.979L358.442 371.525M248.162 427.099C248.162 430.681 252.178 432.96 255.217 431.115L263.25 426.448" stroke="#171A21" stroke-width="2" stroke-miterlimit="10" stroke-linecap="round" stroke-linejoin="round"/>
<path d="M232.531 325.827L278.553 352.312C281.81 354.157 285.934 352.855 287.454 349.381L298.308 324.959C299.611 322.028 298.525 318.555 295.703 316.927L249.464 290.659C246.207 288.814 242.083 290.225 240.563 293.59L229.817 317.795C228.515 320.726 229.709 324.199 232.531 325.827Z" fill="#FEE2E2" stroke="#171A21" stroke-width="2" stroke-miterlimit="10" stroke-linecap="round" stroke-linejoin="round" stroke-dasharray="12 12"/>
<path d="M334.452 311.174L319.582 319.749C316 321.812 312.527 325.936 310.681 330.604L299.936 357.088L334.561 337.116L334.452 311.174Z" fill="#FEE2E2" stroke="#171A21" stroke-width="2" stroke-miterlimit="10" stroke-linecap="round" stroke-linejoin="round" stroke-dasharray="12 12"/>
<path d="M186.4 368.485C184.88 367.617 183.469 367.508 182.492 368.051L178.91 370.113C179.887 369.571 181.298 369.571 182.818 370.547C185.857 372.284 188.353 376.626 188.353 380.208C188.353 381.944 187.702 383.247 186.725 383.79L190.307 381.727C191.284 381.185 191.935 379.882 191.935 378.145C191.935 374.564 189.439 370.222 186.4 368.485Z" fill="#2F58FF"/>
<path d="M182.818 370.548C185.858 372.285 188.354 376.626 188.354 380.208C188.354 383.79 185.858 385.201 182.818 383.356C179.779 381.619 177.283 377.278 177.283 373.696C177.174 370.222 179.671 368.811 182.818 370.548Z" fill="#2F58FF"/>
<path d="M237.741 397.9C236.222 397.032 234.811 396.923 233.834 397.466L230.252 399.528C231.229 398.986 232.64 398.986 234.16 399.963C237.199 401.699 239.695 406.041 239.695 409.623C239.695 411.36 239.044 412.662 238.067 413.205L241.649 411.142C242.626 410.6 243.277 409.297 243.277 407.561C243.277 403.979 240.781 399.745 237.741 397.9Z" fill="#2F58FF"/>
<path d="M234.051 400.071C237.091 401.808 239.587 406.15 239.587 409.731C239.587 413.313 237.091 414.724 234.051 412.879C231.012 411.143 228.516 406.801 228.516 403.219C228.516 399.637 231.012 398.226 234.051 400.071Z" fill="#2F58FF"/>
</svg>
