<svg width="410" height="435" viewBox="0 0 410 435" fill="none" xmlns="http://www.w3.org/2000/svg">
<path d="M92.292 95.4982C92.0749 95.4982 91.8578 95.4982 91.5322 95.6068H91.4236C91.2065 95.6068 91.098 95.7153 90.8809 95.7153C90.8809 95.7153 90.7724 95.7153 90.7724 95.8239C90.5553 95.9324 90.3382 96.0409 90.1211 96.1495L175.545 46.5452C175.653 46.4366 175.87 46.3281 175.979 46.3281H176.087C176.087 46.3281 176.196 46.3281 176.196 46.2196C176.305 46.2196 176.305 46.111 176.413 46.111C176.522 46.111 176.63 46.111 176.739 46.0025H176.847C176.847 46.0025 176.847 46.0025 176.956 46.0025C177.173 46.0025 177.281 45.8939 177.498 45.8939C177.498 45.8939 177.498 45.8939 177.607 45.8939C177.716 45.8939 177.716 45.8939 177.824 45.8939C177.933 45.8939 178.041 45.8939 178.15 45.8939C178.258 45.8939 178.367 45.8939 178.475 45.8939L205.068 44.8085C205.286 44.8085 205.611 44.8085 205.828 44.8085C205.937 44.8085 205.937 44.8085 206.045 44.8085C206.262 44.8085 206.48 44.8085 206.805 44.6999H206.914C207.131 44.6999 207.239 44.5914 207.456 44.5914C207.456 44.5914 207.565 44.5914 207.565 44.4829C207.782 44.3743 207.999 44.2658 208.216 44.1572L122.793 93.7615C122.684 93.8701 122.467 93.9786 122.358 93.9786H122.25C122.25 93.9786 122.141 93.9786 122.141 94.0872C122.033 94.0872 122.033 94.1957 121.924 94.1957C121.816 94.1957 121.707 94.1957 121.599 94.3042H121.49C121.49 94.3042 121.49 94.3042 121.382 94.3042C121.164 94.3042 121.056 94.3042 120.839 94.4128H120.73C120.622 94.4128 120.622 94.4128 120.513 94.4128C120.405 94.4128 120.296 94.4128 120.188 94.4128C120.079 94.4128 119.862 94.4128 119.753 94.4128L93.1603 95.4982C92.9432 95.4982 92.6176 95.4982 92.4005 95.4982C92.4005 95.4982 92.4005 95.4982 92.292 95.4982Z" fill="#FB7070"/>
<path d="M109.333 145.32C109.441 144.777 109.659 144.126 109.876 143.691C110.418 142.389 111.07 141.195 111.938 140.327C112.589 139.567 113.349 138.916 114.217 138.481L199.532 88.7686C197.47 89.9625 195.842 92.0249 194.974 94.847C194.431 96.4751 194.105 98.4289 194.105 100.6L108.682 150.204C108.79 148.467 109.007 146.839 109.333 145.32Z" fill="#2F58FF"/>
<path d="M218.417 198.615L303.841 149.01C301.453 150.421 299.825 152.809 298.957 156.066C298.631 157.585 298.414 159.105 298.414 160.95L212.99 210.446C212.99 206.538 213.967 203.39 215.595 201.111C216.355 200.026 217.332 199.157 218.417 198.615Z" fill="#2F58FF"/>
<path d="M138.423 181.139L160.566 168.657L136.903 131.426L116.389 142.932L138.423 181.139Z" fill="#2F58FF"/>
<path d="M126.917 144.452C121.056 141.087 116.063 141.847 113.349 145.646C112.047 147.491 111.287 150.096 111.287 153.461C111.287 153.895 111.287 154.22 111.287 154.655C111.83 164.315 118.56 175.712 126.917 180.488C135.275 185.264 142.005 181.79 142.548 172.673C142.548 172.347 142.548 171.913 142.548 171.479C142.548 168.223 141.788 164.749 140.485 161.276C137.772 154.329 132.67 147.708 126.917 144.452Z" fill="#FB7070"/>
<path d="M126.916 153.352C123.985 151.724 121.489 152.05 120.078 153.895C119.426 154.872 118.992 156.174 118.992 157.802C118.992 158.02 118.992 158.237 118.992 158.345C119.209 163.23 122.574 168.874 126.807 171.262C130.932 173.65 134.405 171.913 134.622 167.354C134.622 167.137 134.622 167.029 134.622 166.812C134.622 165.183 134.297 163.447 133.537 161.71C132.343 158.345 129.738 155.089 126.916 153.352Z" fill="#2F58FF"/>
<path d="M242.409 240.947L264.552 228.464L240.89 191.234L220.375 202.739L242.409 240.947Z" fill="#2F58FF"/>
<path d="M230.904 204.151C225.042 200.786 220.049 201.546 217.336 205.345C216.033 207.19 215.273 209.795 215.273 213.16C215.273 213.594 215.273 213.92 215.273 214.354C215.816 224.014 222.546 235.411 230.904 240.187C239.262 244.963 245.991 241.49 246.534 232.372C246.534 232.046 246.534 231.612 246.534 231.178C246.534 227.922 245.774 224.448 244.472 220.975C241.758 214.137 236.656 207.516 230.904 204.151Z" fill="#FB7070"/>
<path d="M230.902 213.16C227.971 211.532 225.475 211.857 224.064 213.703C223.413 214.679 222.979 215.982 222.979 217.61C222.979 217.827 222.979 218.044 222.979 218.153C223.196 223.037 226.56 228.682 230.794 231.069C234.918 233.457 238.392 231.721 238.609 227.162C238.609 226.945 238.609 226.836 238.609 226.619C238.609 224.991 238.283 223.254 237.523 221.518C236.329 218.153 233.724 214.897 230.902 213.16Z" fill="#2F58FF"/>
<path d="M142.982 51.3211C142.657 51.2126 142.44 51.104 142.114 50.9955C141.897 50.887 141.571 50.887 141.354 50.7784C141.246 50.7784 141.137 50.6699 140.92 50.6699C140.703 50.6699 140.594 50.5613 140.377 50.5613C140.269 50.5613 140.16 50.5613 140.052 50.5613C139.835 50.5613 139.618 50.5613 139.509 50.5613C139.401 50.5613 139.401 50.5613 139.292 50.5613C139.075 50.5613 138.858 50.5613 138.532 50.6699H138.424C138.207 50.6699 138.098 50.7784 137.881 50.7784C137.772 50.7784 137.772 50.7784 137.772 50.887C137.555 50.9955 137.338 51.1041 137.121 51.2126L222.545 1.60829C222.653 1.49975 222.87 1.3912 222.979 1.3912H223.087C223.087 1.3912 223.196 1.3912 223.196 1.28266C223.305 1.28266 223.305 1.17412 223.413 1.17412C223.522 1.17412 223.63 1.17412 223.739 1.06557H223.847C223.847 1.06557 223.847 1.06557 223.956 1.06557C224.173 1.06557 224.39 0.957031 224.498 0.957031C224.607 0.957031 224.607 0.957031 224.716 0.957031C224.824 0.957031 224.933 0.957031 225.15 0.957031C225.258 0.957031 225.258 0.957031 225.367 0.957031C225.475 0.957031 225.584 0.957031 225.692 0.957031C225.801 0.957031 225.91 0.957031 225.91 0.957031C226.018 0.957031 226.127 0.957031 226.127 0.957031C226.235 0.957031 226.344 0.957031 226.561 1.06557C226.669 1.06557 226.669 1.06557 226.778 1.06557C226.995 1.06557 227.104 1.17412 227.321 1.28266C227.538 1.3912 227.646 1.3912 227.863 1.49975C227.972 1.49975 228.08 1.60829 228.08 1.60829C228.189 1.60829 228.189 1.71683 228.297 1.71683C228.623 1.82538 228.84 2.04246 229.166 2.15101L349.757 71.7273C350.083 71.9444 350.409 72.0529 350.626 72.27C350.734 72.3785 350.843 72.3785 350.951 72.4871C351.169 72.5956 351.386 72.8127 351.603 72.9213C351.711 73.0298 351.82 73.1384 351.928 73.1384C352.145 73.2469 352.254 73.464 352.471 73.5725C352.58 73.6811 352.688 73.7896 352.797 73.8981C352.905 74.0067 352.905 74.0067 353.014 74.1152C353.122 74.2238 353.122 74.2238 353.231 74.3323C353.448 74.5494 353.665 74.7665 353.882 74.9836C353.991 75.0921 353.991 75.0921 354.099 75.2007C354.208 75.3092 354.208 75.3092 354.208 75.4178C354.316 75.5263 354.425 75.7434 354.533 75.8519C354.642 75.9605 354.75 76.069 354.75 76.1776C354.859 76.2861 354.859 76.3947 354.968 76.3947C355.076 76.5032 355.185 76.6117 355.185 76.7203C355.293 76.8288 355.293 76.9374 355.402 76.9374C355.51 77.0459 355.619 77.263 355.727 77.3715C355.836 77.4801 355.836 77.5886 355.944 77.6972C355.944 77.6972 355.944 77.8057 356.053 77.8057C356.27 78.0228 356.379 78.3484 356.596 78.5655C356.596 78.6741 356.704 78.6741 356.704 78.7826C356.813 78.9997 356.921 79.2168 357.03 79.3253C357.03 79.4339 357.138 79.5424 357.138 79.6509C357.138 79.7595 357.247 79.868 357.247 79.9766C357.247 80.0851 357.356 80.1937 357.356 80.1937C357.464 80.4108 357.573 80.6278 357.681 80.8449C357.681 80.8449 357.681 80.9535 357.79 80.9535C357.898 81.2791 358.007 81.4962 358.115 81.8218C358.115 81.8218 358.115 81.9304 358.224 81.9304C358.224 82.0389 358.332 82.1474 358.332 82.256C358.332 82.3645 358.441 82.5816 358.441 82.6902C358.441 82.7987 358.549 82.9072 358.549 83.0158C358.549 83.1243 358.658 83.2329 358.658 83.45C358.658 83.5585 358.658 83.6671 358.767 83.6671C358.767 83.7756 358.875 83.9927 358.875 84.1012C358.875 84.3183 358.984 84.4269 358.984 84.6439C358.984 84.7525 358.984 84.7525 358.984 84.861C358.984 84.9696 358.984 85.0781 359.092 85.1867C359.092 85.4037 359.201 85.7294 359.201 85.9465C359.201 86.055 359.201 86.055 359.201 86.1636C359.201 86.2721 359.201 86.4892 359.201 86.5977C359.201 86.7063 359.201 86.8148 359.201 86.9233C359.201 87.249 359.201 87.6832 359.201 88.0088L358.875 184.612C358.875 186.458 358.441 188.086 357.681 189.171C357.247 189.822 356.704 190.365 356.053 190.799L271.172 240.729C272.909 239.752 273.994 237.581 273.994 234.542L274.32 137.939C274.32 137.613 274.32 137.287 274.32 136.853C274.32 136.745 274.32 136.636 274.32 136.528C274.32 136.311 274.32 136.093 274.211 135.876C274.211 135.659 274.103 135.334 274.103 135.117C274.103 134.9 273.994 134.791 273.994 134.574C273.994 134.357 273.886 134.248 273.886 134.031C273.777 133.814 273.777 133.597 273.669 133.38C273.669 133.271 273.56 133.163 273.56 132.946C273.452 132.729 273.343 132.403 273.343 132.186C273.343 132.077 273.234 131.969 273.234 131.86C273.126 131.535 272.909 131.209 272.8 130.775C272.8 130.775 272.8 130.666 272.692 130.666C272.583 130.341 272.366 130.015 272.258 129.798C272.258 129.689 272.149 129.581 272.149 129.472C272.04 129.147 271.823 128.93 271.715 128.604C271.715 128.495 271.606 128.495 271.606 128.387C271.389 128.061 271.172 127.736 270.955 127.41C270.846 127.301 270.846 127.193 270.738 127.084C270.629 126.867 270.412 126.65 270.304 126.433C270.195 126.325 270.087 126.216 270.087 126.107C269.978 125.89 269.761 125.782 269.653 125.565C269.544 125.456 269.435 125.239 269.327 125.131C269.218 125.022 269.11 124.805 269.001 124.696C268.784 124.479 268.567 124.262 268.35 124.045C268.241 123.937 268.133 123.72 267.916 123.611C267.807 123.502 267.699 123.394 267.59 123.285C267.373 123.177 267.265 122.96 267.047 122.851C266.939 122.743 266.83 122.634 266.722 122.634C266.505 122.526 266.288 122.308 266.071 122.2C265.962 122.091 265.853 122.091 265.745 121.983C265.419 121.766 265.094 121.549 264.877 121.44L144.068 51.9724C143.742 51.7553 143.525 51.6468 143.2 51.5382C143.091 51.4297 143.091 51.4297 142.982 51.3211Z" fill="#FB7070"/>
<path d="M144.068 51.9726C139.943 49.5847 136.253 50.5615 134.95 54.252L132.128 64.8893L125.182 90.9397C124.313 93.4362 122.251 94.7387 119.754 94.5216L93.1613 95.607C89.5794 95.2814 87.1914 97.8864 87.1914 102.337V126.868C87.1914 132.946 91.4246 140.327 96.7432 143.366L108.683 150.313C108.683 138.59 117.041 133.923 127.244 139.784C137.447 145.645 145.696 159.973 145.696 171.696L165.56 183.201L212.993 210.554C212.993 204.91 214.947 200.677 218.42 198.723C221.894 196.769 226.561 197.204 231.445 200.026C241.649 205.887 249.898 220.215 249.898 231.937L264.334 240.295C269.653 243.335 273.886 240.947 273.994 234.868L274.32 138.265C274.32 132.186 270.087 124.805 264.768 121.766L144.068 51.9726Z" fill="white"/>
<path d="M249.898 231.72L264.335 240.078C269.653 243.117 273.887 240.729 273.995 234.651" stroke="#171A21" stroke-width="2" stroke-miterlimit="10" stroke-linecap="round" stroke-linejoin="round"/>
<path d="M145.695 171.587L165.559 183.093L212.992 210.446" stroke="#171A21" stroke-width="2" stroke-miterlimit="10" stroke-linecap="round" stroke-linejoin="round"/>
<path d="M93.2698 95.4985C89.6879 95.1729 87.2999 97.7779 87.2999 102.228L87.1914 126.868C87.1914 132.946 91.4246 140.327 96.7432 143.366L108.683 150.313" stroke="#171A21" stroke-width="2" stroke-miterlimit="10" stroke-linecap="round" stroke-linejoin="round"/>
<path d="M144.068 51.9726C139.944 49.5847 136.253 50.5615 134.951 54.252L132.128 64.8893L125.182 90.9397" stroke="#171A21" stroke-width="2" stroke-miterlimit="10" stroke-linecap="round" stroke-linejoin="round"/>
<path d="M165.342 76.9371C168.924 78.9995 171.746 83.9925 171.746 88.0086L171.637 115.904C171.637 120.029 168.707 121.657 165.233 119.595L132.888 100.925C131.585 100.165 130.825 98.5373 131.259 97.0177L137.229 74.7663L139.617 65.7572C140.051 64.129 141.897 63.3692 143.416 64.129L165.342 76.9371Z" fill="#FEE2E2" stroke="#171A21" stroke-width="2" stroke-miterlimit="10" stroke-linecap="round" stroke-linejoin="round" stroke-dasharray="12 12"/>
<path d="M167.187 136.853C167.187 139.35 165.45 140.435 163.171 139.133L156.007 135.008C153.836 133.705 152.1 130.666 152.1 128.17C152.1 125.673 153.836 124.696 156.116 125.89" fill="white"/>
<path d="M167.187 136.853C167.187 139.35 165.45 140.435 163.171 139.133L156.007 135.008C153.836 133.705 152.1 130.666 152.1 128.17C152.1 125.673 153.836 124.696 156.116 125.89" stroke="#171A21" stroke-width="2" stroke-miterlimit="10" stroke-linecap="round" stroke-linejoin="round"/>
<path d="M351.93 115.903L352.147 183.2C352.147 184.177 351.604 185.045 350.844 185.48L281.268 225.641L281.051 152.374C281.051 146.838 283.981 141.628 288.866 138.806L340.207 109.065C345.417 106.134 351.93 109.933 351.93 115.903Z" fill="#2F58FF"/>
<mask id="mask0" mask-type="alpha" maskUnits="userSpaceOnUse" x="281" y="108" width="72" height="118">
<path d="M351.93 115.903L352.147 183.2C352.147 184.177 351.604 185.045 350.844 185.48L281.268 225.641L281.051 152.374C281.051 146.838 283.981 141.628 288.866 138.806L340.207 109.065C345.417 106.134 351.93 109.933 351.93 115.903Z" fill="#3359FD"/>
</mask>
<g mask="url(#mask0)">
<path d="M299.287 152.916L281.269 142.496C280.835 142.279 280.184 142.605 280.184 143.147V156.715C280.184 157.692 280.726 158.669 281.595 159.103L299.287 169.306C300.156 169.849 301.241 169.849 302.109 169.306L319.693 159.103C320.562 158.561 321.104 157.692 321.104 156.715V143.147C321.104 142.605 320.562 142.279 320.019 142.496L302.109 152.916C301.241 153.351 300.156 153.351 299.287 152.916Z" fill="#FEE2E2"/>
<path d="M320.019 142.497L302.109 152.917C301.241 153.46 300.156 153.46 299.287 152.917L281.269 142.497C280.835 142.28 280.835 141.52 281.269 141.303L299.179 130.883C300.047 130.34 301.132 130.34 302.001 130.883L320.019 141.303C320.453 141.52 320.453 142.171 320.019 142.497Z" fill="#FB7070"/>
<path d="M319.584 159.104C320.452 158.562 320.995 157.693 320.995 156.716V143.583C320.995 142.606 320.452 141.629 319.584 141.195L301.891 130.992C301.023 130.449 299.938 130.449 299.069 130.992L281.485 141.195C280.617 141.737 280.074 142.606 280.074 143.583V156.716C280.074 157.693 280.617 158.67 281.485 159.104" stroke="#171A21" stroke-width="2" stroke-miterlimit="10" stroke-linecap="round" stroke-linejoin="round"/>
<path d="M287.129 137.83L307.644 149.661L314.807 145.536L294.293 133.705L287.129 137.83Z" fill="white"/>
<path d="M299.937 136.961L294.293 133.705L287.129 137.83L292.773 141.086" stroke="#171A21" stroke-width="2" stroke-linecap="round" stroke-linejoin="round"/>
<path d="M302 146.404L307.644 149.66L314.808 145.536L309.164 142.279" stroke="#171A21" stroke-width="2" stroke-linecap="round" stroke-linejoin="round"/>
<path d="M274.973 170.935L256.955 160.515C256.52 160.298 255.869 160.623 255.869 161.166V174.734C255.869 175.711 256.412 176.688 257.28 177.122L274.973 187.325C275.841 187.868 276.927 187.868 277.795 187.325L295.379 177.122C296.247 176.579 296.79 175.711 296.79 174.734V161.166C296.79 160.623 296.247 160.298 295.705 160.515L277.795 170.935C276.927 171.369 275.841 171.369 274.973 170.935Z" fill="#FEE2E2"/>
<path d="M295.705 160.515L277.795 170.935C276.927 171.478 275.841 171.478 274.973 170.935L256.955 160.515C256.52 160.298 256.52 159.538 256.955 159.321L274.864 148.901C275.733 148.358 276.818 148.358 277.686 148.901L295.705 159.321C296.139 159.538 296.139 160.19 295.705 160.515Z" fill="#FB7070"/>
<path d="M295.27 177.123C296.138 176.58 296.681 175.712 296.681 174.735V161.601C296.681 160.624 296.138 159.647 295.27 159.213L277.577 149.01C276.709 148.467 275.623 148.467 274.755 149.01L257.171 159.213C256.302 159.756 255.76 160.624 255.76 161.601V174.735C255.76 175.712 256.302 176.689 257.171 177.123" stroke="#171A21" stroke-width="2" stroke-miterlimit="10" stroke-linecap="round" stroke-linejoin="round"/>
<path d="M262.814 155.848L283.221 167.68L290.493 163.555L269.978 151.724L262.814 155.848Z" fill="white"/>
<path d="M277.576 164.423L283.22 167.679L290.493 163.555L284.849 160.298" stroke="#171A21" stroke-width="2" stroke-linecap="round" stroke-linejoin="round"/>
<path d="M323.709 168.222L305.691 157.801C305.257 157.584 304.605 157.91 304.605 158.453V172.021C304.605 172.997 305.148 173.974 306.017 174.409L323.709 184.612C324.577 185.154 325.663 185.154 326.531 184.612L344.115 174.409C344.984 173.866 345.526 172.997 345.526 172.021V158.453C345.526 157.91 344.984 157.584 344.441 157.801L326.531 168.222C325.554 168.656 324.577 168.656 323.709 168.222Z" fill="#FEE2E2"/>
<path d="M344.331 157.802L326.422 168.222C325.553 168.765 324.468 168.765 323.6 168.222L305.581 157.802C305.147 157.585 305.147 156.825 305.581 156.608L323.491 146.188C324.359 145.645 325.445 145.645 326.313 146.188L344.331 156.608C344.874 156.825 344.874 157.476 344.331 157.802Z" fill="#FB7070"/>
<path d="M344.006 174.409C344.874 173.866 345.417 172.998 345.417 172.021V158.887C345.417 157.91 344.874 156.933 344.006 156.499L326.313 146.296C325.445 145.753 324.36 145.753 323.491 146.296L305.907 156.499C305.039 157.042 304.496 157.91 304.496 158.887V172.021C304.496 172.998 305.039 173.975 305.907 174.409" stroke="#171A21" stroke-width="2" stroke-miterlimit="10" stroke-linecap="round" stroke-linejoin="round"/>
<path d="M311.551 153.135L331.957 164.966L339.121 160.841L318.715 149.01L311.551 153.135Z" fill="white"/>
<path d="M324.359 152.267L318.715 149.01L311.551 153.135L317.195 156.391" stroke="#171A21" stroke-width="2" stroke-linecap="round" stroke-linejoin="round"/>
<path d="M326.312 161.71L331.957 164.966L339.121 160.841L333.476 157.585" stroke="#171A21" stroke-width="2" stroke-linecap="round" stroke-linejoin="round"/>
<path d="M299.287 186.239L281.269 175.819C280.835 175.602 280.184 175.928 280.184 176.47V190.038C280.184 191.015 280.726 191.992 281.595 192.426L299.287 202.629C300.156 203.172 301.241 203.172 302.109 202.629L319.693 192.426C320.562 191.883 321.104 191.015 321.104 190.038V176.47C321.104 175.928 320.562 175.602 320.019 175.819L302.109 186.239C301.241 186.782 300.156 186.782 299.287 186.239Z" fill="#FEE2E2"/>
<path d="M320.019 175.82L302.109 186.24C301.241 186.782 300.156 186.782 299.287 186.24L281.269 175.82C280.835 175.602 280.835 174.843 281.269 174.626L299.179 164.205C300.047 163.663 301.132 163.663 302.001 164.205L320.019 174.626C320.453 174.843 320.453 175.602 320.019 175.82Z" fill="#FB7070"/>
<path d="M319.584 192.427C320.452 191.885 320.995 191.016 320.995 190.04V176.906C320.995 175.929 320.452 174.952 319.584 174.518L301.891 164.315C301.023 163.772 299.938 163.772 299.069 164.315L281.485 174.518C280.617 175.061 280.074 175.929 280.074 176.906V190.04C280.074 191.016 280.617 191.993 281.485 192.427" stroke="#171A21" stroke-width="2" stroke-miterlimit="10" stroke-linecap="round" stroke-linejoin="round"/>
<path d="M287.129 171.152L307.644 182.984L314.807 178.859L294.293 167.028L287.129 171.152Z" fill="white"/>
<path d="M299.937 170.284L294.293 167.028L287.129 171.152L292.773 174.409" stroke="#171A21" stroke-width="2" stroke-linecap="round" stroke-linejoin="round"/>
<path d="M302 179.727L307.644 182.983L314.808 178.859L309.164 175.603" stroke="#171A21" stroke-width="2" stroke-linecap="round" stroke-linejoin="round"/>
</g>
<path d="M347.479 108.089C347.479 102.553 350.409 97.3429 355.294 94.5208L380.259 80.1931C381.236 79.6503 382.538 79.7589 383.406 80.6272L387.314 85.8373L354.642 183.852L348.455 182.224C348.021 181.79 347.696 181.03 347.696 180.379L347.479 108.089Z" fill="#2F58FF"/>
<path d="M351.82 112.322C351.82 106.786 354.751 101.576 359.635 98.7538L383.515 84.9688C385.252 83.9919 387.423 85.1859 387.423 87.2482V163.771C387.423 164.748 386.88 165.508 386.12 166.051L355.945 183.526C354.208 184.503 352.037 183.309 352.037 181.247L351.82 112.322Z" fill="white"/>
<path d="M383.515 85.0777C385.251 84.1008 387.422 85.2948 387.422 87.3571V163.772C387.422 164.749 386.88 165.508 386.12 166.051L355.945 183.527C354.208 184.503 352.037 183.309 352.037 181.247" stroke="#171A21" stroke-width="2" stroke-miterlimit="10" stroke-linecap="round" stroke-linejoin="round"/>
<path d="M265.745 145.645C270.955 142.606 281.593 146.839 281.593 155.088L248.378 244.962L242.951 242.465C242.517 242.031 242.191 241.271 242.191 240.62V160.732C242.191 159.755 242.734 158.996 243.494 158.453L265.745 145.645Z" fill="#2F58FF"/>
<path d="M270.087 149.878C275.297 146.839 281.81 150.638 281.81 156.608L282.027 223.904C282.027 224.881 281.484 225.75 280.724 226.184L250.441 243.768C248.704 244.745 246.533 243.551 246.533 241.488V165.074C246.533 164.097 247.076 163.337 247.836 162.795L270.087 149.878Z" fill="white"/>
<path d="M282.027 224.013C282.027 224.99 281.484 225.858 280.724 226.293L250.441 243.877C248.704 244.854 246.533 243.66 246.533 241.597" stroke="#171A21" stroke-width="2" stroke-miterlimit="10" stroke-linecap="round" stroke-linejoin="round"/>
</svg>
