<svg width="410" height="435" viewBox="0 0 410 435" fill="none" xmlns="http://www.w3.org/2000/svg">
<path d="M71.7773 272.424L323.055 126.433" stroke="#171A21" stroke-width="2" stroke-miterlimit="10" stroke-linecap="round" stroke-linejoin="round" stroke-dasharray="12 12"/>
<path d="M297.007 384.224L92.4023 265.369" stroke="#171A21" stroke-width="2" stroke-miterlimit="10" stroke-linecap="round" stroke-linejoin="round" stroke-dasharray="12 12"/>
<path d="M126.484 324.416C126.484 324.525 126.484 324.742 126.484 324.85C126.484 325.067 126.484 325.176 126.375 325.393C126.375 325.502 126.267 325.719 126.267 325.827C126.267 325.936 126.158 326.153 126.158 326.261C126.158 326.37 126.05 326.479 125.941 326.696C125.832 326.913 125.832 327.021 125.724 327.238C125.615 327.455 125.507 327.673 125.29 327.89C125.29 327.89 125.29 327.998 125.181 327.998C125.073 328.215 124.856 328.432 124.638 328.649L124.53 328.758C124.313 328.975 124.096 329.192 123.879 329.409C123.77 329.518 123.553 329.735 123.336 329.843C123.227 329.952 123.01 330.06 122.902 330.169C122.685 330.278 122.468 330.386 122.359 330.603C122.142 330.712 121.925 330.82 121.708 331.037C121.382 331.254 120.948 331.472 120.622 331.58C120.514 331.58 120.405 331.689 120.297 331.689C119.971 331.797 119.645 332.014 119.211 332.123C119.211 332.123 119.103 332.123 119.103 332.231C118.669 332.34 118.343 332.557 117.909 332.666C117.583 332.774 117.366 332.883 117.04 332.883C116.823 332.991 116.606 332.991 116.389 333.1C116.064 333.208 115.738 333.208 115.521 333.317C115.304 333.317 115.087 333.425 114.87 333.425C114.218 333.534 113.676 333.642 113.024 333.642C112.807 333.642 112.59 333.642 112.482 333.642C112.156 333.642 111.722 333.751 111.396 333.751C111.179 333.751 110.962 333.751 110.745 333.751C110.419 333.751 110.094 333.751 109.877 333.751C109.659 333.751 109.334 333.751 109.117 333.751C108.791 333.751 108.574 333.751 108.248 333.751C108.031 333.751 107.706 333.751 107.489 333.642C107.163 333.642 106.946 333.534 106.62 333.534C106.403 333.534 106.186 333.425 105.86 333.425C105.535 333.425 105.318 333.317 104.992 333.317C104.775 333.317 104.558 333.208 104.341 333.208C104.015 333.1 103.69 333.1 103.364 332.991C103.147 332.883 102.93 332.883 102.713 332.774C102.604 332.774 102.496 332.666 102.387 332.666C102.061 332.557 101.736 332.448 101.41 332.34C101.302 332.34 101.193 332.231 101.085 332.231C100.759 332.123 100.542 332.014 100.216 331.906C100.108 331.797 99.8906 331.797 99.782 331.689C99.3479 331.472 99.0222 331.254 98.5881 331.037L15.4439 283.061C12.1876 281.216 10.668 278.719 10.668 276.332V283.604C10.668 285.992 12.2961 288.488 15.4439 290.334L98.5881 338.31C99.0222 338.527 99.3479 338.744 99.782 338.961C99.8906 339.07 100.108 339.07 100.216 339.178C100.433 339.287 100.65 339.395 100.976 339.504H101.085C101.193 339.504 101.302 339.612 101.41 339.612C101.736 339.721 102.061 339.829 102.387 339.938C102.496 339.938 102.604 340.046 102.713 340.046C102.821 340.046 102.821 340.046 102.93 340.155C103.038 340.155 103.255 340.264 103.364 340.264C103.69 340.372 104.015 340.481 104.341 340.481C104.449 340.481 104.558 340.481 104.558 340.589C104.666 340.589 104.884 340.589 104.992 340.698C105.318 340.806 105.535 340.806 105.86 340.806C105.969 340.806 106.078 340.806 106.186 340.915C106.295 340.915 106.403 340.915 106.62 340.915C106.837 340.915 107.163 341.023 107.38 341.023C107.489 341.023 107.597 341.023 107.814 341.023C107.923 341.023 108.031 341.023 108.14 341.023C108.466 341.023 108.683 341.023 109.008 341.023C109.117 341.023 109.334 341.023 109.442 341.023C109.551 341.023 109.659 341.023 109.768 341.023C110.094 341.023 110.311 341.023 110.636 341.023C110.745 341.023 110.962 341.023 111.071 341.023C111.179 341.023 111.288 341.023 111.288 341.023C111.613 341.023 112.047 341.023 112.373 340.915C112.482 340.915 112.699 340.915 112.807 340.915H112.916C113.567 340.806 114.11 340.806 114.761 340.698H114.87C115.087 340.698 115.195 340.589 115.412 340.589C115.738 340.481 116.064 340.481 116.281 340.372C116.498 340.372 116.715 340.264 116.932 340.155C117.258 340.046 117.475 340.046 117.8 339.938C117.909 339.938 117.909 339.938 118.017 339.938C118.343 339.829 118.669 339.721 118.994 339.612C118.994 339.612 119.103 339.612 119.103 339.504C119.428 339.395 119.754 339.178 120.188 339.07C120.297 339.07 120.405 338.961 120.514 338.961C120.839 338.744 121.274 338.635 121.599 338.418C121.708 338.418 121.708 338.31 121.816 338.31C121.925 338.201 122.142 338.093 122.251 337.984C122.468 337.876 122.685 337.767 122.793 337.55C122.902 337.441 123.119 337.333 123.227 337.224C123.444 337.116 123.553 336.899 123.77 336.79L123.879 336.682C124.096 336.465 124.313 336.247 124.421 336.139L124.53 336.03C124.638 335.922 124.747 335.813 124.856 335.705C124.964 335.596 124.964 335.488 125.073 335.379C125.073 335.379 125.073 335.271 125.181 335.271C125.29 335.053 125.398 334.945 125.507 334.728C125.507 334.728 125.507 334.619 125.615 334.619C125.724 334.402 125.832 334.294 125.832 334.077C125.832 333.968 125.941 333.86 125.941 333.751V333.642C126.05 333.534 126.05 333.317 126.05 333.208C126.05 333.1 126.158 332.991 126.158 332.883V332.774C126.158 332.557 126.158 332.448 126.267 332.231C126.267 332.123 126.267 332.014 126.267 331.906V331.797L126.484 324.416Z" fill="#2F58FF"/>
<path d="M121.707 317.687C128.111 321.377 128.111 327.347 121.816 331.038C115.52 334.728 105.1 334.728 98.8046 331.038L15.6604 283.062C9.25639 279.371 9.25639 273.401 15.5519 269.711C21.8474 266.02 32.2676 266.02 38.5631 269.711L121.707 317.687Z" fill="white" stroke="#171A21" stroke-width="2" stroke-miterlimit="10" stroke-linecap="round" stroke-linejoin="round"/>
<path d="M171.964 298.365C171.964 298.474 171.964 298.691 171.964 298.8C171.964 299.017 171.964 299.125 171.856 299.342C171.856 299.451 171.747 299.668 171.747 299.777C171.747 299.885 171.639 300.102 171.639 300.211C171.639 300.319 171.53 300.428 171.421 300.645C171.313 300.862 171.313 300.971 171.204 301.188C171.096 301.405 170.987 301.622 170.77 301.839C170.77 301.839 170.77 301.947 170.662 301.947C170.553 302.164 170.336 302.382 170.119 302.599L170.01 302.707C169.793 302.924 169.576 303.141 169.359 303.358C169.251 303.467 169.034 303.684 168.816 303.793C168.708 303.901 168.491 304.01 168.382 304.118C168.165 304.227 167.948 304.335 167.84 304.552C167.622 304.661 167.405 304.77 167.188 304.987C166.863 305.204 166.428 305.421 166.103 305.529C165.994 305.529 165.886 305.638 165.777 305.638C165.452 305.746 165.126 305.964 164.692 306.072C164.692 306.072 164.583 306.072 164.583 306.181C164.149 306.289 163.823 306.506 163.389 306.615C163.064 306.723 162.847 306.832 162.521 306.832C162.304 306.94 162.087 306.94 161.87 307.049C161.544 307.157 161.218 307.157 161.001 307.266C160.784 307.266 160.567 307.375 160.35 307.375C159.699 307.483 159.156 307.592 158.505 307.592C158.288 307.592 158.071 307.592 157.962 307.592C157.636 307.592 157.202 307.7 156.877 307.7C156.66 307.7 156.442 307.7 156.225 307.7C155.9 307.7 155.574 307.7 155.357 307.7C155.14 307.7 154.814 307.7 154.597 307.7C154.272 307.7 154.055 307.7 153.729 307.7C153.512 307.7 153.186 307.7 152.969 307.592C152.643 307.592 152.426 307.483 152.101 307.483C151.884 307.483 151.667 307.375 151.341 307.375C151.015 307.375 150.798 307.266 150.473 307.266C150.256 307.266 150.038 307.157 149.821 307.157C149.496 307.049 149.17 307.049 148.844 306.94C148.627 306.832 148.41 306.832 148.193 306.723C148.085 306.723 147.976 306.615 147.868 306.615C147.542 306.506 147.216 306.398 146.891 306.289C146.782 306.289 146.674 306.181 146.565 306.181C146.239 306.072 146.022 305.963 145.697 305.855C145.588 305.746 145.371 305.746 145.263 305.638C144.828 305.421 144.503 305.204 144.069 304.987L60.9243 257.01C57.668 255.165 56.1484 252.669 56.1484 250.281V257.553C56.1484 259.941 57.7766 262.438 60.9243 264.283L144.069 312.259C144.503 312.476 144.828 312.693 145.263 312.91C145.371 313.019 145.588 313.019 145.697 313.127C145.914 313.236 146.131 313.344 146.456 313.453H146.565C146.674 313.453 146.782 313.562 146.891 313.562C147.216 313.67 147.542 313.779 147.868 313.887C147.976 313.887 148.085 313.996 148.193 313.996C148.302 313.996 148.302 313.996 148.41 314.104C148.519 314.104 148.736 314.213 148.844 314.213C149.17 314.321 149.496 314.43 149.821 314.43C149.93 314.43 150.038 314.43 150.038 314.538C150.147 314.538 150.364 314.538 150.473 314.647C150.798 314.756 151.015 314.756 151.341 314.756C151.449 314.756 151.558 314.756 151.667 314.864C151.775 314.864 151.884 314.864 152.101 314.864C152.318 314.864 152.643 314.973 152.861 314.973C152.969 314.973 153.078 314.973 153.295 314.973C153.403 314.973 153.512 314.973 153.62 314.973C153.946 314.973 154.163 314.973 154.489 314.973C154.597 314.973 154.814 314.973 154.923 314.973C155.031 314.973 155.14 314.973 155.248 314.973C155.574 314.973 155.791 314.973 156.117 314.973C156.225 314.973 156.442 314.973 156.551 314.973C156.66 314.973 156.768 314.973 156.768 314.973C157.094 314.973 157.528 314.973 157.854 314.864C157.962 314.864 158.179 314.864 158.288 314.864H158.396C159.048 314.756 159.59 314.756 160.242 314.647H160.35C160.567 314.647 160.676 314.538 160.893 314.538C161.218 314.43 161.544 314.43 161.761 314.321C161.978 314.321 162.195 314.213 162.412 314.104C162.738 313.996 162.955 313.996 163.281 313.887C163.389 313.887 163.389 313.887 163.498 313.887C163.823 313.779 164.149 313.67 164.475 313.562C164.475 313.562 164.583 313.562 164.583 313.453C164.909 313.344 165.234 313.127 165.669 313.019C165.777 313.019 165.886 312.91 165.994 312.91C166.32 312.693 166.754 312.585 167.08 312.368C167.188 312.368 167.188 312.259 167.297 312.259C167.405 312.15 167.622 312.042 167.731 311.933C167.948 311.825 168.165 311.716 168.274 311.499C168.382 311.391 168.599 311.282 168.708 311.174C168.925 311.065 169.034 310.848 169.251 310.739L169.359 310.631C169.576 310.414 169.793 310.197 169.902 310.088L170.01 309.98C170.119 309.871 170.227 309.763 170.336 309.654C170.445 309.545 170.445 309.437 170.553 309.328C170.553 309.328 170.553 309.22 170.662 309.22C170.77 309.003 170.879 308.894 170.987 308.677C170.987 308.677 170.987 308.569 171.096 308.569C171.204 308.351 171.313 308.243 171.313 308.026C171.313 307.917 171.421 307.809 171.421 307.7V307.592C171.53 307.483 171.53 307.266 171.53 307.157C171.53 307.049 171.639 306.94 171.639 306.832V306.723C171.639 306.506 171.639 306.398 171.747 306.181C171.747 306.072 171.747 305.963 171.747 305.855V305.746L171.964 298.365Z" fill="#2F58FF"/>
<path d="M167.08 291.636C173.484 295.327 173.484 301.296 167.189 304.987C160.893 308.677 150.473 308.677 144.178 304.987L61.0335 257.011C54.6294 253.32 54.6294 247.35 60.925 243.66C67.2205 239.969 77.6406 239.969 83.9361 243.66L167.08 291.636Z" fill="white" stroke="#171A21" stroke-width="2" stroke-miterlimit="10" stroke-linecap="round" stroke-linejoin="round"/>
<path d="M37.4813 155.631C37.3728 155.631 37.3728 155.631 37.4813 155.631C37.3728 155.414 37.3728 155.414 37.2642 155.306C37.2642 155.306 37.2642 155.306 37.2642 155.197C37.2642 155.089 37.1557 155.089 37.1557 154.98C37.1557 154.98 37.1557 154.98 37.0472 154.98C36.9386 154.872 36.8301 154.872 36.8301 154.872L31.4029 153.46C31.5114 153.46 31.62 153.569 31.62 153.569C31.62 153.569 31.62 153.569 31.7285 153.569C31.8371 153.569 31.8371 153.678 31.8371 153.786C31.8371 153.786 31.8371 153.786 31.8371 153.895C31.9456 154.003 31.9456 154.112 31.9456 154.22C31.9456 154.329 32.0542 154.437 32.0542 154.546C32.0542 154.654 32.0542 154.654 32.0542 154.763C32.0542 154.872 32.0542 154.98 32.0542 155.197C32.0542 155.306 32.0542 155.523 32.0542 155.631L29.9918 167.463C29.9918 167.68 29.8833 167.788 29.8833 168.005C29.8833 168.222 29.7747 168.331 29.6662 168.439C29.5577 168.548 29.5577 168.657 29.4491 168.765C29.4491 168.765 29.4491 168.874 29.3406 168.874C29.232 168.982 29.1235 169.091 29.1235 169.199L26.7355 171.587C26.627 171.696 26.5184 171.696 26.5184 171.804C26.4099 171.804 26.4099 171.913 26.3014 171.913C26.1928 171.913 26.0843 171.913 26.0843 172.021C25.9757 172.021 25.8672 172.021 25.8672 172.021L31.2944 173.432H31.4029H31.5114C31.5114 173.432 31.5114 173.432 31.62 173.432H31.7285H31.8371C31.8371 173.432 31.9456 173.432 31.9456 173.324C31.9456 173.324 31.9456 173.324 32.0542 173.324C32.0542 173.324 32.0542 173.324 32.1627 173.324C32.2712 173.324 32.2712 173.215 32.3798 173.107L34.7677 170.719C34.8763 170.61 34.9848 170.502 34.9848 170.393C34.9848 170.393 34.9848 170.285 35.0934 170.285L35.2019 170.176C35.2019 170.068 35.3105 170.068 35.3105 169.959C35.3105 169.85 35.419 169.85 35.419 169.742C35.419 169.633 35.419 169.633 35.5275 169.525V169.416V169.308V169.199V169.091L37.5899 157.259V157.151C37.5899 157.042 37.5899 157.042 37.5899 157.042V156.934C37.5899 156.825 37.5899 156.825 37.5899 156.717C37.5899 156.608 37.5899 156.608 37.5899 156.5C37.5899 156.391 37.5899 156.391 37.5899 156.283C37.4813 155.848 37.4813 155.74 37.4813 155.631Z" fill="#2F58FF"/>
<path d="M37.1543 147.599C37.2629 147.599 37.2629 147.491 37.3714 147.491C37.48 147.491 37.48 147.382 37.5885 147.382C37.6971 147.382 37.6971 147.274 37.8056 147.274H37.9141C38.0227 147.274 38.1312 147.165 38.2398 147.165C38.3483 147.165 38.4569 147.165 38.5654 147.165H38.674C38.7825 147.165 38.891 147.165 38.891 147.165H38.9996C39.1081 147.165 39.2167 147.165 39.3252 147.274L33.898 145.863C33.7895 145.863 33.681 145.863 33.681 145.863H33.5724H33.4639H33.3553H33.2468C33.1382 145.863 33.0297 145.863 32.9212 145.863C32.8126 145.863 32.8126 145.863 32.7041 145.971C32.7041 145.971 32.7041 145.971 32.5955 145.971H32.487H32.3784C32.3784 145.971 32.2699 145.971 32.2699 146.08C32.1614 146.08 32.1614 146.188 32.0528 146.188H31.9443C31.9443 146.188 31.8357 146.188 31.8357 146.297C31.7272 146.406 31.6186 146.406 31.5101 146.514C31.5101 146.514 31.4016 146.514 31.4016 146.623C31.4016 146.623 31.4015 146.623 31.293 146.623C31.0759 146.731 30.9674 146.948 30.7503 147.057L16.2055 161.927C15.9884 162.144 15.7713 162.361 15.5542 162.687C15.4457 162.796 15.4457 162.904 15.3371 162.904C15.2286 163.121 15.12 163.23 15.0115 163.447L14.903 163.555C14.7944 163.664 14.7944 163.772 14.7944 163.881C14.7944 163.99 14.6859 164.098 14.6859 164.098C14.6859 164.098 14.6859 164.207 14.5773 164.207C14.4688 164.424 14.3602 164.532 14.3602 164.749C14.3602 164.749 14.3602 164.749 14.3602 164.858V164.966C14.3602 165.075 14.2517 165.184 14.2517 165.292C14.2517 165.401 14.1432 165.618 14.1432 165.726C14.1432 165.835 14.0346 166.052 14.0346 166.16C14.0346 166.269 14.0346 166.377 13.9261 166.486C13.9261 166.486 13.9261 166.486 13.9261 166.595C13.9261 166.703 13.8175 166.92 13.8175 167.029C13.8175 167.137 13.8175 167.246 13.8175 167.354V167.463C13.8175 167.463 13.8175 167.463 13.8175 167.571C13.8175 167.68 13.8175 167.897 13.709 168.006C13.709 168.114 13.709 168.114 13.709 168.223V168.331V168.44C13.709 168.657 13.709 168.765 13.709 168.983C13.709 168.983 13.709 168.983 13.709 169.091V169.2C13.709 169.308 13.709 169.417 13.709 169.525C13.709 169.634 13.709 169.634 13.709 169.742C13.709 169.851 13.709 169.959 13.709 170.068C13.709 170.177 13.709 170.177 13.709 170.285C13.709 170.394 13.709 170.502 13.8175 170.611V170.719C13.8175 170.936 13.9261 171.153 14.0346 171.37V171.479C14.1432 171.696 14.1432 171.805 14.2517 171.913C14.2517 171.913 14.2517 172.022 14.3602 172.022C14.4688 172.239 14.5773 172.347 14.6859 172.564C14.6859 172.564 14.6859 172.564 14.7944 172.673C14.903 172.782 15.0115 172.89 15.12 172.999L15.2286 173.107C15.3371 173.216 15.5542 173.324 15.6628 173.433L26.6256 179.945C27.3854 180.38 27.9282 181.248 28.2538 182.333L48.7685 254.949L54.1956 256.36L33.4639 183.853C33.1382 182.768 32.5955 181.899 31.8357 181.465L20.8728 174.952C20.7643 174.844 20.5472 174.735 20.4387 174.627L20.3301 174.518C20.2216 174.41 20.113 174.301 20.0045 174.193C20.0045 174.193 20.0045 174.193 19.896 174.084C19.7874 173.976 19.6789 173.758 19.5703 173.541C19.5703 173.541 19.5703 173.433 19.4618 173.433C19.3532 173.324 19.3532 173.107 19.2447 172.999V172.89C19.1362 172.673 19.1362 172.456 19.0276 172.239V172.13C19.0276 171.913 18.9191 171.805 18.9191 171.588C18.9191 171.479 18.9191 171.37 18.9191 171.262C18.9191 171.045 18.9191 170.936 18.9191 170.719V170.611C18.9191 170.394 18.9191 170.068 18.9191 169.851V169.742C18.9191 169.525 18.9191 169.2 19.0276 168.983V168.874C19.0276 168.657 19.1362 168.331 19.1362 168.114C19.1362 168.114 19.1362 168.114 19.1362 168.006C19.2447 167.68 19.2447 167.463 19.3532 167.137C19.4618 166.92 19.5703 166.595 19.5703 166.377V166.269C19.6789 166.052 19.7874 165.835 19.896 165.509C19.896 165.401 20.0045 165.292 20.0045 165.292C20.113 165.184 20.113 164.966 20.2216 164.858C20.3301 164.641 20.4387 164.424 20.5472 164.315C20.6558 164.207 20.6558 164.098 20.7643 164.098C20.9814 163.881 21.1985 163.555 21.4156 163.338L35.9604 148.468C36.1775 148.251 36.286 148.142 36.5031 148.034C36.6116 148.034 36.6116 147.925 36.7202 147.925C36.9373 147.708 37.0458 147.599 37.1543 147.599Z" fill="#2F58FF"/>
<path d="M36.1779 148.359C39.3257 145.102 42.582 148.142 41.8222 153.569L38.5659 174.626C38.3488 176.037 38.4573 177.34 38.6744 178.425L59.1891 251.041L53.8705 256.468L33.4643 183.852C33.1387 182.767 32.596 181.899 31.8362 181.464L20.8733 174.952C18.0512 173.215 18.4853 166.485 21.7416 163.121L36.1779 148.359ZM37.4804 157.042C37.806 155.197 36.7206 154.111 35.6352 155.197L24.8894 166.16C23.804 167.245 23.6954 169.633 24.6723 170.067L30.9678 173.432C31.2935 173.649 31.8362 173.541 32.2703 173.107L34.6583 170.719C35.0925 170.284 35.4181 169.633 35.5266 168.982L37.4804 157.042Z" fill="white"/>
<path d="M36.1791 148.359C39.3269 145.102 42.5832 148.142 41.8234 153.569L38.5671 174.626C38.35 176.037 38.4586 177.34 38.6756 178.425L59.1903 251.041L53.8717 256.468M35.6364 155.305L24.8906 166.268C23.8052 167.354 23.6967 169.742 24.6735 170.176L30.9691 173.541" stroke="#171A21" stroke-width="2" stroke-miterlimit="10" stroke-linecap="round" stroke-linejoin="round"/>
<path d="M75.4688 326.804L86.9743 315.95L158.287 274.595L175.98 268.083V280.022L172.181 287.62L113.676 317.47L84.3693 334.077L78.8336 339.07L75.4688 326.804Z" fill="#FB7070"/>
<path d="M78.5089 320.943L4.59086 278.285C2.96271 277.309 1.00893 278.503 1.00893 280.348L0.900391 298.366C0.900391 299.234 1.33456 299.994 2.09437 300.428L75.4697 342.652C76.2295 343.086 77.9662 339.504 78.726 339.07L80.7883 320.943C80.137 321.377 79.1601 321.377 78.5089 320.943Z" fill="#FB7070"/>
<path d="M178.043 263.306C178.152 263.306 178.26 263.306 178.369 263.306C178.477 263.306 178.586 263.415 178.694 263.415L172.833 260.05H172.724H172.616C172.616 260.05 172.616 260.05 172.507 260.05H172.399H172.29C172.29 260.05 172.29 260.05 172.182 260.05C172.073 260.05 172.073 260.05 171.965 260.05C171.965 260.05 171.965 260.05 171.856 260.05C171.856 260.05 171.856 260.05 171.748 260.05H171.639C171.53 260.05 171.422 260.158 171.313 260.158L70.9108 318.121C70.8023 318.229 70.6937 318.229 70.5852 318.338L70.4766 318.446C70.3681 318.446 70.3681 318.555 70.2596 318.555C70.2596 318.555 70.2595 318.555 70.151 318.663C70.151 318.663 70.151 318.663 70.0425 318.772C70.0425 318.772 70.0425 318.772 69.9339 318.88C69.8254 318.989 69.8254 318.989 69.8254 319.097C69.8254 319.097 69.8254 319.097 69.8254 319.206C69.8254 319.206 69.8254 319.206 69.8254 319.314C69.8254 319.423 69.7168 319.423 69.7168 319.532C69.7168 319.64 69.6083 319.64 69.6083 319.749L69.4997 319.857C69.4997 319.966 69.3912 319.966 69.3912 320.074C69.3912 320.074 69.3912 320.183 69.2827 320.183C69.2827 320.291 69.2827 320.291 69.1741 320.4C69.1741 320.508 69.1741 320.508 69.0656 320.617V320.726C69.0656 320.726 69.0656 320.726 69.0656 320.834C69.0656 320.943 69.0656 320.943 68.957 321.051V321.16C68.957 321.16 68.957 321.16 68.957 321.268C68.957 321.268 68.957 321.268 68.957 321.377C68.957 321.485 68.957 321.594 68.957 321.811L74.8184 325.176C74.8184 325.067 74.8184 324.85 74.8184 324.742C74.8184 324.742 74.8184 324.742 74.8184 324.633C74.8184 324.525 74.9269 324.307 74.9269 324.199C74.9269 324.09 75.0355 323.873 75.144 323.765C75.2525 323.656 75.2525 323.439 75.3611 323.331C75.4696 323.222 75.5782 323.005 75.6867 322.896C75.7953 322.788 75.9038 322.679 76.0123 322.571C76.0123 322.571 76.0124 322.571 76.1209 322.462C76.2294 322.354 76.2294 322.354 76.338 322.245L76.4465 322.137C76.5551 322.028 76.6636 321.92 76.7722 321.92L118.344 297.931C118.453 298.149 118.561 298.474 118.561 298.8V304.335C118.561 304.444 118.561 304.661 118.561 304.77C118.561 304.77 118.561 304.77 118.561 304.878C118.561 304.987 118.453 305.204 118.453 305.312C118.453 305.421 118.344 305.638 118.236 305.747C118.127 305.855 118.127 306.072 118.019 306.181C117.91 306.289 117.802 306.506 117.693 306.615C117.584 306.723 117.476 306.832 117.367 306.941C117.367 306.941 117.367 306.941 117.259 307.049C117.15 307.158 117.15 307.158 117.042 307.266L116.933 307.375C116.825 307.483 116.716 307.592 116.608 307.592L76.5551 330.712C76.4465 330.82 76.338 330.82 76.2294 330.929C76.2294 330.929 76.2294 330.929 76.1209 330.929C76.0124 330.929 75.9038 331.037 75.7953 331.037C75.6867 331.037 75.5782 331.037 75.4696 331.037C75.3611 331.037 75.2525 330.929 75.144 330.929L81.0053 334.293H81.1139H81.2224C81.2224 334.293 81.2224 334.293 81.331 334.293H81.4395H81.5481C81.5481 334.293 81.5481 334.293 81.6566 334.293C81.7651 334.293 81.7651 334.293 81.8737 334.293C81.8737 334.293 81.8737 334.293 81.9822 334.293C81.9822 334.293 81.9822 334.293 82.0908 334.293H82.1993C82.3079 334.293 82.4164 334.185 82.5249 334.185L122.577 311.065C122.686 310.957 122.795 310.957 122.903 310.848L123.012 310.74C123.12 310.74 123.12 310.631 123.229 310.631C123.229 310.631 123.229 310.631 123.337 310.522C123.337 310.522 123.337 310.522 123.446 310.414C123.446 310.414 123.446 310.414 123.554 310.305C123.663 310.197 123.663 310.197 123.663 310.088C123.663 310.088 123.663 310.088 123.663 309.98C123.663 309.98 123.663 309.98 123.663 309.871C123.663 309.763 123.771 309.763 123.771 309.654C123.771 309.546 123.88 309.546 123.88 309.437C123.88 309.437 123.88 309.328 123.989 309.328C123.989 309.22 124.097 309.22 124.097 309.111C124.097 309.111 124.097 309.003 124.206 309.003C124.206 308.894 124.206 308.894 124.314 308.786C124.314 308.677 124.314 308.677 124.423 308.569V308.46C124.423 308.46 124.423 308.46 124.423 308.352C124.423 308.243 124.423 308.243 124.531 308.135V308.026C124.531 308.026 124.531 308.026 124.531 307.917C124.531 307.917 124.531 307.917 124.531 307.809C124.531 307.7 124.531 307.592 124.531 307.375V301.839C124.531 301.188 124.314 300.754 123.989 300.536L118.67 297.389L168.274 268.733C168.383 268.95 168.491 269.276 168.491 269.602V275.137C168.491 275.246 168.491 275.463 168.491 275.572C168.491 275.572 168.491 275.572 168.491 275.68C168.491 275.789 168.383 276.006 168.383 276.114C168.383 276.223 168.274 276.44 168.166 276.548C168.057 276.657 168.057 276.874 167.949 276.983C167.84 277.091 167.731 277.308 167.623 277.417C167.514 277.525 167.406 277.634 167.297 277.742C167.297 277.742 167.297 277.742 167.189 277.851C167.08 277.959 167.08 277.959 166.972 278.068L166.863 278.177C166.755 278.285 166.646 278.394 166.537 278.394L126.485 301.513C126.376 301.622 126.268 301.622 126.159 301.73C126.159 301.73 126.159 301.73 126.051 301.73C125.942 301.73 125.834 301.839 125.725 301.839C125.617 301.839 125.508 301.839 125.4 301.839C125.291 301.839 125.182 301.73 125.074 301.73L130.935 305.095H131.044H131.152C131.152 305.095 131.152 305.095 131.261 305.095H131.369H131.478C131.478 305.095 131.478 305.095 131.587 305.095C131.695 305.095 131.695 305.095 131.804 305.095C131.804 305.095 131.804 305.095 131.912 305.095C131.912 305.095 131.912 305.095 132.021 305.095H132.129C132.238 305.095 132.346 304.987 132.455 304.987L172.507 281.867C172.616 281.758 172.724 281.758 172.833 281.65L172.942 281.541C173.05 281.541 173.05 281.433 173.159 281.433C173.159 281.433 173.159 281.433 173.267 281.324C173.267 281.324 173.267 281.324 173.376 281.216C173.376 281.216 173.376 281.216 173.484 281.107C173.593 280.999 173.593 280.999 173.593 280.89C173.593 280.89 173.593 280.89 173.593 280.782C173.593 280.782 173.593 280.782 173.593 280.673C173.593 280.565 173.701 280.564 173.701 280.456C173.701 280.347 173.81 280.347 173.81 280.239C173.81 280.239 173.81 280.13 173.918 280.13C173.918 280.022 174.027 280.022 174.027 279.913C174.027 279.913 174.027 279.805 174.136 279.805C174.136 279.696 174.136 279.696 174.244 279.588C174.244 279.479 174.244 279.479 174.353 279.371V279.262C174.353 279.262 174.353 279.262 174.353 279.153C174.353 279.045 174.353 279.045 174.461 278.936V278.828C174.461 278.828 174.461 278.828 174.461 278.719C174.461 278.719 174.461 278.719 174.461 278.611C174.461 278.502 174.461 278.394 174.461 278.177V272.641C174.461 271.99 174.244 271.555 173.918 271.338L168.6 268.191L177.5 263.089C177.609 262.98 177.717 262.98 177.826 262.872C177.826 262.872 177.826 262.872 177.935 262.872C177.826 263.415 177.935 263.306 178.043 263.306Z" fill="#FB7070"/>
<path d="M74.9258 341.457L69.0645 338.092C69.0645 338.526 69.173 338.961 69.3901 339.178C69.4986 339.286 69.4986 339.286 69.6072 339.395L75.4685 342.76C75.1429 342.543 74.9258 342.108 74.9258 341.457Z" fill="#FB7070"/>
<path d="M74.9258 341.457L69.0645 338.092V321.594L74.9258 324.959V341.457Z" fill="#FB7070"/>
<path d="M177.284 263.632C178.37 262.98 179.238 263.523 179.238 264.717V281.216C179.238 282.41 178.37 283.929 177.284 284.58L76.8815 342.543C75.7961 343.194 74.9277 342.651 74.9277 341.457V324.959C74.9277 323.765 75.7961 322.245 76.8815 321.594L177.284 263.632ZM124.532 307.375V301.839C124.532 300.645 123.664 300.102 122.578 300.753L82.5258 323.873C81.4403 324.524 80.572 326.044 80.572 327.238V332.774C80.572 333.968 81.4403 334.51 82.5258 333.859L122.578 310.739C123.664 310.088 124.532 308.569 124.532 307.375ZM174.353 278.611V273.075C174.353 271.881 173.485 271.338 172.4 271.989L132.347 295.109C131.262 295.76 130.393 297.28 130.393 298.474V304.01C130.393 305.204 131.262 305.746 132.347 305.095L172.4 281.975C173.485 281.324 174.353 279.805 174.353 278.611Z" fill="#FEE2E2"/>
<path d="M177.5 264.826L80.8962 320.943C80.1364 321.377 79.2681 321.377 78.5083 320.943L4.59025 278.285C2.9621 277.309 2.9621 275.029 4.59025 274.161L99.8913 218.804C100.651 218.369 101.519 218.369 102.279 218.804L177.5 262.221C178.477 262.764 178.477 264.283 177.5 264.826Z" fill="#FEE2E2"/>
<path d="M41.9309 299.886L40.0857 298.8L140.163 240.621L142.008 241.706L41.9309 299.886ZM11.7559 282.519L13.6011 283.604L113.678 225.425L111.833 224.339L11.7559 282.519ZM170.338 257.988L168.492 256.902L68.4155 315.082L70.2607 316.167L170.338 257.988Z" fill="#FB7070"/>
<path d="M85.1296 266.129L44.5344 242.683C43.449 242.032 42.1465 242.792 42.1465 243.986V274.595C42.1465 276.875 43.3405 278.937 45.2942 280.022L85.0211 302.925C86.9749 304.01 89.3628 304.01 91.3166 302.925L130.826 280.022C132.78 278.937 133.974 276.875 133.974 274.595L134.083 243.986C134.083 242.792 132.78 242.032 131.695 242.575L91.4252 265.912C89.4714 267.214 87.0834 267.214 85.1296 266.129Z" fill="#FB7070"/>
<path d="M131.695 242.683L91.4255 266.129C89.4717 267.214 87.0838 267.214 85.13 266.129L44.5348 242.683C43.4493 242.032 43.4493 240.621 44.5348 239.97L84.8044 216.525C86.7581 215.439 89.1461 215.439 91.0999 216.525L131.695 239.97C132.781 240.621 132.781 242.141 131.695 242.683Z" fill="#FEE2E2"/>
<path d="M130.826 280.023C132.78 278.937 133.974 276.875 133.974 274.596L134.083 244.963C134.083 242.684 132.889 240.621 130.935 239.536L91.2081 216.633C89.2543 215.548 86.8663 215.548 84.9126 216.633L45.4028 239.536C43.449 240.621 42.255 242.684 42.255 244.963L42.1465 274.596C42.1465 276.875 43.3405 278.937 45.2942 280.023" stroke="#171A21" stroke-width="2" stroke-miterlimit="10" stroke-linecap="round" stroke-linejoin="round"/>
<path d="M57.7773 232.263L103.8 258.857L119.973 249.522L73.9503 222.929L57.7773 232.263Z" fill="white"/>
<path d="M63.4235 229.006L57.7793 232.263L63.4235 235.519" stroke="#171A21" stroke-width="2" stroke-linecap="round" stroke-linejoin="round"/>
<path d="M75.0371 242.249L92.404 252.235" stroke="#171A21" stroke-width="2" stroke-linecap="round" stroke-linejoin="round" stroke-dasharray="12.33 12.33"/>
<path d="M98.1582 255.6L103.802 258.856L109.447 255.6" stroke="#171A21" stroke-width="2" stroke-linecap="round" stroke-linejoin="round"/>
<path d="M114.33 252.778L119.974 249.521L114.33 246.265" stroke="#171A21" stroke-width="2" stroke-linecap="round" stroke-linejoin="round"/>
<path d="M102.717 239.535L85.3496 229.549" stroke="#171A21" stroke-width="2" stroke-linecap="round" stroke-linejoin="round" stroke-dasharray="12.33 12.33"/>
<path d="M79.5971 226.185L73.9529 222.928L68.3086 226.185" stroke="#171A21" stroke-width="2" stroke-linecap="round" stroke-linejoin="round"/>
</svg>
