<?xml version="1.0" encoding="utf-8"?>
<!-- Generator: Adobe Illustrator 22.1.0, SVG Export Plug-In . SVG Version: 6.00 Build 0)  -->
<svg version="1.1" id="Слой_1" xmlns="http://www.w3.org/2000/svg" xmlns:xlink="http://www.w3.org/1999/xlink" x="0px" y="0px"
	 viewBox="0 0 383 321" style="enable-background:new 0 0 383 321;" xml:space="preserve">
<style type="text/css">
	.st0{fill:#FFD394;}
	.st1{fill:#171A21;}
</style>
<polygon class="st0" points="180.1,170.8 258.3,122.1 236.2,103.8 158.3,149 "/>
<path class="st1" d="M170.8,140.7l-10.5,6.1c-0.5,0.3-0.6,0.9-0.4,1.3l0,0c0.3,0.5,0.9,0.6,1.3,0.4l10.5-6.1
	c0.5-0.3,0.6-0.9,0.4-1.3l0,0C171.8,140.6,171.2,140.5,170.8,140.7z"/>
<path class="st1" d="M191.6,128.6l-10.5,6.1c-0.5,0.3-0.6,0.9-0.4,1.3l0,0c0.3,0.5,0.9,0.6,1.3,0.4l10.5-6.1
	c0.5-0.3,0.6-0.9,0.4-1.3l0,0C192.6,128.5,192,128.3,191.6,128.6z"/>
<path class="st1" d="M212.3,116.6l-10.5,6.1c-0.5,0.3-0.6,0.9-0.4,1.3l0,0c0.3,0.5,0.9,0.6,1.3,0.4l10.5-6.1
	c0.5-0.3,0.6-0.9,0.4-1.3l0,0C213.4,116.5,212.8,116.3,212.3,116.6z"/>
<path class="st1" d="M233.1,104.5l-10.5,6.1c-0.5,0.3-0.6,0.9-0.4,1.3l0,0c0.3,0.5,0.9,0.6,1.3,0.4l10.5-6.1
	c0.5-0.3,0.6-0.9,0.4-1.3l0,0C234.1,104.4,233.5,104.3,233.1,104.5z"/>
</svg>
