<svg width="383" height="321" viewBox="0 0 383 321" fill="none" xmlns="http://www.w3.org/2000/svg">
<g clip-path="url(#clip0)">
<path d="M132.6 187.8L10.3999 258.3" stroke="#171A21" stroke-width="2" stroke-miterlimit="10" stroke-linecap="round" stroke-linejoin="round" stroke-dasharray="12 12"/>
<path d="M132.6 165.8L36.1001 221.5" stroke="#171A21" stroke-width="2" stroke-miterlimit="10" stroke-linecap="round" stroke-linejoin="round" stroke-dasharray="12 12"/>
<path d="M375.3 151C375.6 151 375.9 151 376.1 151.1C376.2 151.1 376.2 151.1 376.3 151.1C376.5 151.1 376.7 151.2 376.9 151.3C377 151.3 377 151.3 377.1 151.4C377.4 151.5 377.6 151.6 377.8 151.7L279.2 94.4C279.2 94.4 279.2 94.4 279.1 94.4C278.9 94.3 278.7 94.2 278.5 94.1H278.4C278.3 94.1 278.3 94.1 278.2 94C278.1 94 278 93.9 277.9 93.9C277.8 93.9 277.7 93.8 277.5 93.8C277.4 93.8 277.4 93.8 277.3 93.8H277.2C277 93.8 276.8 93.7 276.5 93.7H276.4C276.3 93.7 276.3 93.7 276.2 93.7C276.1 93.7 275.9 93.7 275.8 93.7C275.7 93.7 275.5 93.7 275.4 93.7L245 92.4C244.7 92.4 244.4 92.4 244.2 92.4C244.1 92.4 244.1 92.4 244 92.4C243.7 92.4 243.4 92.4 243.2 92.3C243.1 92.3 243.1 92.3 243 92.3C242.8 92.3 242.6 92.2 242.4 92.1C242.3 92.1 242.3 92.1 242.2 92C241.9 91.9 241.7 91.8 241.5 91.7L340 149C340 149 340 149 340.1 149C340.3 149.1 340.5 149.2 340.7 149.3H340.8C340.9 149.3 340.9 149.3 341 149.4C341.1 149.4 341.2 149.5 341.3 149.5C341.4 149.5 341.5 149.6 341.7 149.6C341.8 149.6 341.8 149.6 341.9 149.6C341.9 149.6 341.9 149.6 342 149.6C342.2 149.6 342.4 149.7 342.6 149.7H342.7C342.8 149.7 342.8 149.7 342.9 149.7C343 149.7 343.1 149.7 343.3 149.7C343.5 149.7 343.6 149.7 343.8 149.7L374.4 151C374.7 151 375 151 375.2 151C375.2 151 375.2 151 375.3 151Z" fill="#FFD394"/>
<path d="M355.7 208.6C355.5 207.9 355.3 207.3 355.1 206.7C354.5 205.2 353.7 203.9 352.8 202.8C352 201.9 351.2 201.2 350.2 200.7L251.6 143.4C254 144.8 255.8 147.2 256.8 150.4C257.4 152.3 257.8 154.6 257.8 157.1L356.4 214.4C356.3 212.2 356.1 210.3 355.7 208.6Z" fill="#2F58FF"/>
<path d="M229.8 270L131.2 212.7C134 214.3 135.9 217.1 136.8 220.8C137.2 222.5 137.5 224.4 137.5 226.4L236.1 283.7C236.1 279.2 235 275.5 233 272.9C232.1 271.7 231 270.7 229.8 270Z" fill="#2F58FF"/>
<path d="M322.1 249.9L296.5 235.5L323.8 192.5L347.5 205.8L322.1 249.9Z" fill="#2F58FF"/>
<path d="M335.4 207.5C328.7 211.4 322.9 218.9 319.8 226.9C318.3 230.8 317.4 234.9 317.4 238.7C317.4 239.2 317.4 239.6 317.4 240C318 250.5 325.9 254.5 335.5 249C345.1 243.5 352.9 230.4 353.5 219.2C353.5 218.7 353.5 218.3 353.5 217.8C353.5 214 352.6 211 351.1 208.8C347.9 204.4 342.1 203.6 335.4 207.5Z" fill="#FFD394"/>
<path d="M335.4 217.8C332.1 219.7 329.1 223.5 327.6 227.5C326.8 229.5 326.4 231.5 326.4 233.4C326.4 233.6 326.4 233.8 326.4 234.1C326.7 239.3 330.7 241.4 335.4 238.6C340.2 235.8 344.1 229.3 344.4 223.7C344.4 223.5 344.4 223.2 344.4 223C344.4 221.1 344 219.6 343.2 218.5C341.7 216.3 338.8 215.9 335.4 217.8Z" fill="#2F58FF"/>
<path d="M202.1 318.9L176.5 304.5L203.8 261.5L227.5 274.8L202.1 318.9Z" fill="#2F58FF"/>
<path d="M215.4 276.5C208.7 280.4 202.9 287.9 199.8 295.9C198.3 299.8 197.4 303.9 197.4 307.7C197.4 308.2 197.4 308.6 197.4 309C198 319.5 205.9 323.5 215.5 318C225.1 312.5 232.9 299.4 233.5 288.2C233.5 287.7 233.5 287.3 233.5 286.8C233.5 283 232.6 280 231.1 277.8C227.9 273.4 222.1 272.6 215.4 276.5Z" fill="#FFD394"/>
<path d="M215.4 286.8C212.1 288.7 209.1 292.5 207.6 296.5C206.8 298.5 206.4 300.5 206.4 302.4C206.4 302.6 206.4 302.8 206.4 303.1C206.7 308.3 210.7 310.4 215.4 307.6C220.2 304.8 224.1 298.3 224.4 292.7C224.4 292.5 224.4 292.2 224.4 292C224.4 290.1 224 288.6 223.2 287.5C221.7 285.3 218.8 284.9 215.4 286.8Z" fill="#2F58FF"/>
<path d="M316.8 100.1C317.1 100 317.4 99.8 317.7 99.7C318 99.6 318.3 99.5 318.5 99.5C318.7 99.5 318.8 99.4 319 99.4C319.2 99.4 319.4 99.3 319.6 99.3C319.7 99.3 319.8 99.3 319.9 99.3C320.1 99.3 320.4 99.3 320.6 99.3C320.7 99.3 320.7 99.3 320.8 99.3C321.1 99.3 321.4 99.3 321.6 99.4C321.7 99.4 321.7 99.4 321.8 99.4C322 99.4 322.2 99.5 322.4 99.6C322.5 99.6 322.5 99.6 322.6 99.7C322.9 99.8 323.1 99.9 323.3 100L224.7 42.7C224.7 42.7 224.7 42.7 224.6 42.7C224.4 42.6 224.2 42.5 224 42.4H223.9C223.8 42.4 223.8 42.4 223.7 42.3C223.6 42.3 223.5 42.2 223.4 42.2C223.3 42.2 223.2 42.1 223.1 42.1C223 42.1 223 42.1 222.9 42.1H222.8C222.6 42.1 222.4 42 222.1 42C222.1 42 222.1 42 222 42C221.9 42 221.9 42 221.8 42C221.6 42 221.5 42 221.3 42C221.2 42 221.2 42 221.1 42C221 42 220.9 42 220.8 42C220.7 42 220.6 42 220.5 42C220.4 42 220.3 42 220.2 42.1C220 42.1 219.9 42.2 219.7 42.2C219.6 42.2 219.6 42.2 219.5 42.2C219.3 42.3 219.1 42.3 218.9 42.4C218.7 42.5 218.5 42.6 218.2 42.6C218.1 42.6 218 42.7 217.9 42.7C217.8 42.7 217.7 42.8 217.6 42.8C217.3 43 216.9 43.1 216.6 43.3L77.8 123.8C77.4 124 77.1 124.2 76.7 124.5C76.6 124.6 76.5 124.7 76.4 124.7C76.2 124.9 75.9 125 75.7 125.2C75.6 125.3 75.4 125.4 75.3 125.5C75.1 125.7 74.9 125.9 74.7 126C74.6 126.1 74.5 126.2 74.3 126.3C74.2 126.4 74.1 126.4 74.1 126.5C74 126.6 73.9 126.7 73.9 126.8C73.6 127.1 73.4 127.3 73.2 127.6C73.1 127.7 73 127.8 73 127.9C72.9 128 72.9 128.1 72.8 128.1C72.7 128.3 72.5 128.4 72.4 128.6C72.3 128.7 72.2 128.8 72.1 128.9C72 129 72 129.1 71.9 129.2C71.8 129.3 71.7 129.5 71.6 129.6C71.5 129.7 71.5 129.8 71.4 129.9C71.3 130.1 71.2 130.2 71.1 130.4C71 130.5 71 130.6 70.9 130.7L70.8 130.8C70.6 131.1 70.4 131.4 70.2 131.7C70.2 131.7 70.2 131.7 70.2 131.8C70.2 131.9 70.1 131.9 70.1 132C70 132.2 69.8 132.4 69.7 132.7C69.6 132.8 69.6 132.9 69.5 133C69.4 133.1 69.4 133.2 69.3 133.3C69.3 133.4 69.2 133.5 69.2 133.6C69.1 133.9 69 134.1 68.8 134.4C68.8 134.4 68.8 134.5 68.7 134.5C68.6 134.8 68.4 135.2 68.3 135.5C68.3 135.6 68.3 135.6 68.2 135.7C68.2 135.8 68.1 135.9 68.1 136.1C68 136.3 68 136.4 67.9 136.6C67.9 136.7 67.8 136.9 67.8 137C67.8 137.2 67.7 137.3 67.7 137.5C67.7 137.6 67.6 137.7 67.6 137.8C67.6 138 67.5 138.1 67.5 138.3C67.5 138.5 67.4 138.7 67.4 138.9C67.4 139 67.4 139 67.4 139.1C67.4 139.2 67.4 139.4 67.3 139.5C67.2 139.8 67.2 140.1 67.1 140.4C67.1 140.5 67.1 140.6 67.1 140.6C67.1 140.8 67.1 141 67 141.1C67 141.2 67 141.4 67 141.5C67 141.9 66.9 142.3 67 142.7L67.3 254.1C67.3 256.3 67.8 258 68.6 259.4C69.1 260.2 69.7 260.8 70.5 261.2L169.1 318.5C167.1 317.3 165.9 314.9 165.9 311.4L165.6 200C165.6 199.6 165.6 199.2 165.6 198.8C165.6 198.7 165.6 198.5 165.6 198.4C165.6 198.1 165.7 197.9 165.7 197.6C165.7 197.3 165.8 197 165.9 196.7C165.9 196.5 166 196.3 166 196.1C166 195.9 166.1 195.7 166.1 195.5C166.2 195.2 166.2 195 166.3 194.7C166.3 194.5 166.4 194.4 166.4 194.2C166.5 193.9 166.6 193.6 166.7 193.3C166.7 193.2 166.8 193.1 166.8 192.9C167 192.5 167.1 192.1 167.3 191.7C167.3 191.7 167.3 191.6 167.4 191.6C167.6 191.2 167.7 190.9 167.9 190.5C168 190.4 168 190.3 168.1 190.2C168.3 189.9 168.5 189.5 168.6 189.2C168.6 189.1 168.7 189.1 168.7 189C168.9 188.6 169.2 188.2 169.4 187.9C169.5 187.8 169.5 187.7 169.6 187.6C169.8 187.3 170 187.1 170.1 186.8C170.2 186.7 170.3 186.5 170.4 186.4C170.6 186.2 170.7 186 170.9 185.8C171 185.6 171.2 185.4 171.3 185.3C171.4 185.1 171.6 185 171.7 184.8C171.9 184.5 172.2 184.3 172.4 184C172.6 183.8 172.7 183.7 172.9 183.5C173 183.4 173.1 183.3 173.3 183.2C173.5 183 173.7 182.8 173.9 182.7C174 182.6 174.2 182.5 174.3 182.4C174.5 182.2 174.8 182 175 181.9C175.1 181.8 175.2 181.7 175.3 181.7C175.6 181.5 176 181.2 176.4 181L315.6 100.6C315.9 100.4 316.3 100.2 316.6 100.1C316.7 100.2 316.8 100.1 316.8 100.1Z" fill="#FFD394"/>
<path d="M315.6 100.7C320.3 97.9999 324.6 98.9999 326.1 103.3L329.4 115.6L337.4 145.6C338.4 148.4 340.7 150 343.7 149.7L374.3 151C378.4 150.6 381.1 153.7 381.1 158.8L381.2 187.2C381.2 194.2 376.3 202.8 370.2 206.3L356.4 214.3C356.4 200.8 346.8 195.3 335 202.1C323.2 208.9 313.7 225.4 313.8 238.9L290.9 252.1L236.2 283.7C236.2 277.2 233.9 272.3 229.9 270C225.9 267.7 220.5 268.3 214.8 271.5C203 278.3 193.5 294.8 193.6 308.3L176.9 317.9C170.8 321.4 165.8 318.6 165.8 311.6L165.5 200.2C165.5 193.2 170.4 184.6 176.5 181.1L315.6 100.7Z" fill="white"/>
<path d="M193.5 308.3L176.8 317.9C170.7 321.4 165.7 318.6 165.7 311.6" stroke="#171A21" stroke-width="2" stroke-miterlimit="10" stroke-linecap="round" stroke-linejoin="round"/>
<path d="M313.7 238.9L290.8 252.1L236.1 283.7" stroke="#171A21" stroke-width="2" stroke-miterlimit="10" stroke-linecap="round" stroke-linejoin="round"/>
<path d="M374.2 151C378.3 150.6 381 153.7 381 158.8L381.1 187.2C381.1 194.2 376.2 202.8 370.1 206.3L356.3 214.3" stroke="#171A21" stroke-width="2" stroke-miterlimit="10" stroke-linecap="round" stroke-linejoin="round"/>
<path d="M315.6 100.7C320.3 97.9999 324.6 98.9999 326.1 103.3L329.4 115.6L337.4 145.6" stroke="#171A21" stroke-width="2" stroke-miterlimit="10" stroke-linecap="round" stroke-linejoin="round"/>
<path d="M291 129.6C286.9 132 283.6 137.7 283.6 142.4L283.7 174.6C283.7 179.3 287 181.2 291.1 178.8L328.5 157.2C330.1 156.3 330.8 154.5 330.4 152.7L323.6 127L320.8 116.6C320.3 114.7 318.1 113.8 316.4 114.8L291 129.6Z" fill="#FFF6EA" stroke="#171A21" stroke-width="2" stroke-miterlimit="10" stroke-linecap="round" stroke-linejoin="round" stroke-dasharray="12 12"/>
<path d="M288.8 198.8C288.8 201.7 290.9 202.9 293.4 201.4L301.6 196.6C304.1 195.1 306.2 191.6 306.2 188.7C306.2 185.8 304.1 184.6 301.6 186.1" fill="white"/>
<path d="M288.8 198.8C288.8 201.7 290.9 202.9 293.4 201.4L301.6 196.6C304.1 195.1 306.2 191.6 306.2 188.7C306.2 185.8 304.1 184.6 301.6 186.1" stroke="#171A21" stroke-width="2" stroke-miterlimit="10" stroke-linecap="round" stroke-linejoin="round"/>
<path d="M75.4998 174L75.2998 251.7C75.2998 252.8 75.8998 253.8 76.7998 254.3L157.1 300.7L157.3 216.1C157.3 209.7 153.9 203.7 148.3 200.5L88.9998 166.2C82.9998 162.7 75.5998 167 75.4998 174Z" fill="#FFF6EA"/>
<path d="M247.7 169.3C247.8 169.3 248 169.4 248.1 169.4C248 169.4 247.8 169.3 247.7 169.3ZM247.5 169.2C247.6 169.2 247.6 169.2 247.7 169.3C247.6 169.3 247.6 169.2 247.5 169.2ZM247.3 169.2C247.4 169.2 247.4 169.2 247.5 169.3C247.4 169.2 247.4 169.2 247.3 169.2ZM247.1 169.1C247.2 169.1 247.2 169.1 247.3 169.2C247.2 169.1 247.2 169.1 247.1 169.1ZM246.9 169.1C247 169.1 247 169.1 247.1 169.1C247 169.1 247 169.1 246.9 169.1ZM246.7 169C246.8 169 246.8 169 246.9 169C246.8 169 246.8 169 246.7 169ZM246.5 169C246.6 169 246.6 169 246.7 169C246.6 169 246.6 169 246.5 169ZM246.3 168.9C246.4 168.9 246.4 168.9 246.5 168.9C246.4 169 246.4 168.9 246.3 168.9ZM246.1 168.9C246.2 168.9 246.2 168.9 246.3 168.9C246.2 168.9 246.1 168.9 246.1 168.9ZM245.9 168.9C246 168.9 246 168.9 246.1 168.9C246 168.9 245.9 168.9 245.9 168.9ZM245.6 168.8C245.7 168.8 245.7 168.8 245.8 168.8C245.8 168.8 245.7 168.8 245.6 168.8ZM245.5 168.8C245.6 168.8 245.6 168.8 245.7 168.8C245.6 168.8 245.5 168.8 245.5 168.8ZM245.2 168.8C245.3 168.8 245.3 168.8 245.4 168.8C245.3 168.8 245.3 168.8 245.2 168.8ZM245 168.7H245.1C245.1 168.8 245.1 168.7 245 168.7ZM244.8 168.7C244.9 168.7 244.9 168.7 245 168.7C244.9 168.7 244.9 168.7 244.8 168.7ZM244.6 168.7H244.7H244.6ZM244.4 168.7C244.5 168.7 244.5 168.7 244.6 168.7C244.5 168.7 244.4 168.7 244.4 168.7ZM244.2 168.7H244.3C244.2 168.7 244.2 168.7 244.2 168.7ZM243.9 168.7C244 168.7 244 168.7 244.1 168.7C244 168.7 244 168.7 243.9 168.7ZM243.7 168.7H243.8C243.8 168.7 243.8 168.7 243.7 168.7ZM243.5 168.7C243.6 168.7 243.6 168.7 243.7 168.7C243.6 168.7 243.5 168.7 243.5 168.7ZM243.2 168.7C243.3 168.7 243.3 168.7 243.4 168.7C243.4 168.7 243.3 168.7 243.2 168.7ZM243 168.7C243.1 168.7 243.1 168.7 243.2 168.7C243.1 168.7 243.1 168.7 243 168.7ZM242.8 168.7C242.9 168.7 242.9 168.7 243 168.7C242.9 168.7 242.8 168.7 242.8 168.7ZM242.6 168.7H242.7H242.6ZM242.3 168.7C242.4 168.7 242.4 168.7 242.5 168.7C242.4 168.7 242.4 168.7 242.3 168.7ZM242.1 168.7H242.2C242.2 168.7 242.2 168.7 242.1 168.7ZM241.9 168.7C242 168.7 242 168.7 242.1 168.7C242 168.7 241.9 168.7 241.9 168.7ZM241.6 168.7H241.7C241.7 168.7 241.7 168.7 241.6 168.7ZM241.4 168.8C241.5 168.8 241.5 168.8 241.6 168.8C241.5 168.7 241.4 168.8 241.4 168.8ZM241.2 168.8H241.3H241.2ZM240.9 168.8C241 168.8 241 168.8 241.1 168.8C241 168.8 241 168.8 240.9 168.8ZM240.7 168.8H240.8H240.7ZM240.4 168.9C240.5 168.9 240.5 168.9 240.6 168.9C240.5 168.9 240.5 168.9 240.4 168.9ZM240.2 168.9C240.3 168.9 240.3 168.9 240.4 168.9C240.3 168.9 240.2 168.9 240.2 168.9ZM240 169C240.1 169 240.1 169 240.2 169C240.1 168.9 240 169 240 169ZM239.7 169C239.8 169 239.8 169 239.9 169C239.8 169 239.8 169 239.7 169ZM239.5 169.1C239.6 169.1 239.6 169.1 239.7 169.1C239.6 169 239.5 169.1 239.5 169.1ZM239.2 169.1C239.3 169.1 239.3 169.1 239.4 169.1C239.3 169.1 239.3 169.1 239.2 169.1ZM239 169.2H239.1C239.1 169.1 239 169.2 239 169.2ZM238.7 169.2C238.8 169.2 238.8 169.2 238.9 169.2C238.8 169.2 238.8 169.2 238.7 169.2ZM238.5 169.3C238.6 169.3 238.6 169.3 238.7 169.3C238.6 169.3 238.5 169.3 238.5 169.3ZM238.2 169.4C238.3 169.4 238.3 169.4 238.4 169.3C238.4 169.3 238.3 169.3 238.2 169.4ZM238 169.4C238.1 169.4 238.1 169.4 238.2 169.4C238.1 169.4 238 169.4 238 169.4ZM237.7 169.5C237.8 169.5 237.8 169.5 237.9 169.4C237.9 169.5 237.8 169.5 237.7 169.5ZM237.5 169.6C237.6 169.6 237.6 169.6 237.7 169.5C237.6 169.5 237.5 169.6 237.5 169.6ZM237.2 169.7C237.3 169.7 237.3 169.7 237.4 169.6C237.3 169.6 237.3 169.6 237.2 169.7ZM236.9 169.7C237 169.7 237 169.7 237.1 169.6C237.1 169.7 237 169.7 236.9 169.7ZM236.7 169.8C236.8 169.8 236.8 169.8 236.9 169.7C236.8 169.8 236.8 169.8 236.7 169.8ZM236.4 169.9C236.5 169.9 236.5 169.9 236.6 169.8C236.6 169.9 236.5 169.9 236.4 169.9ZM236.2 170C236.3 170 236.3 170 236.4 169.9C236.3 170 236.3 170 236.2 170ZM235.9 170.1C236 170.1 236 170 236.1 170C236.1 170 236 170.1 235.9 170.1ZM235.7 170.2C235.8 170.2 235.8 170.2 235.9 170.1C235.8 170.1 235.7 170.2 235.7 170.2ZM235.4 170.3C235.5 170.3 235.5 170.2 235.6 170.2C235.6 170.2 235.5 170.3 235.4 170.3ZM235.2 170.4C235.3 170.4 235.3 170.3 235.4 170.3C235.3 170.3 235.2 170.4 235.2 170.4ZM234.9 170.5C235 170.5 235 170.4 235.1 170.4C235 170.4 235 170.5 234.9 170.5ZM234.6 170.6C234.7 170.6 234.7 170.5 234.8 170.5C234.8 170.6 234.7 170.6 234.6 170.6ZM234.4 170.7C234.5 170.7 234.6 170.6 234.6 170.6C234.5 170.7 234.4 170.7 234.4 170.7ZM234.1 170.9C234.2 170.9 234.3 170.8 234.3 170.8C234.2 170.8 234.2 170.8 234.1 170.9ZM233.8 171C233.9 171 233.9 170.9 234 170.9C234 170.9 233.9 170.9 233.8 171ZM233.6 171.1C233.7 171.1 233.8 171 233.8 171C233.7 171 233.6 171.1 233.6 171.1ZM233.3 171.2C233.4 171.2 233.4 171.1 233.5 171.1C233.4 171.2 233.4 171.2 233.3 171.2ZM233 171.4C233.1 171.4 233.2 171.3 233.2 171.3C233.2 171.3 233.1 171.3 233 171.4ZM232.8 171.5C232.9 171.5 232.9 171.4 233 171.4C232.9 171.4 232.8 171.4 232.8 171.5ZM232.5 171.6C232.6 171.6 232.7 171.5 232.7 171.5C232.7 171.5 232.6 171.6 232.5 171.6ZM232.2 171.8C232.3 171.8 232.3 171.7 232.4 171.7C232.4 171.7 232.3 171.7 232.2 171.8ZM232 171.9C232.1 171.9 232.2 171.8 232.2 171.8C232.1 171.8 232 171.9 232 171.9ZM231.7 172.1C231.8 172.1 231.8 172 231.9 172C231.8 172 231.8 172 231.7 172.1ZM231.4 172.2C231.5 172.2 231.6 172.1 231.6 172.1C231.6 172.1 231.5 172.2 231.4 172.2ZM231.1 172.4C231.2 172.4 231.3 172.3 231.3 172.3C231.3 172.3 231.2 172.3 231.1 172.4ZM231.1 172.4L231.2 203.6L231.3 234.8C246.3 226.1 258.4 205.1 258.4 187.9C258.4 178 254.4 171.5 248.1 169.4C251.8 170.7 254.8 173.5 256.5 177.7L231.2 203.6L231.1 172.4Z" fill="#FFD394"/>
<path d="M204 203.7L204.1 234.9L231.3 234.8L231.2 203.6L204 203.7Z" fill="#2F58FF"/>
<path d="M231.1 172.4L204 203.7L231.2 203.6L231.1 172.4Z" fill="#FFF6EA"/>
<path d="M231.1 172.4L231.2 203.6L256.5 177.7C254.7 173.5 251.8 170.6 248.1 169.4C248 169.4 247.8 169.3 247.7 169.3C247.6 169.3 247.6 169.3 247.5 169.2C247.4 169.2 247.4 169.2 247.3 169.1C247.2 169.1 247.2 169.1 247.1 169C247 169 247 169 246.9 169C246.8 169 246.8 169 246.7 169C246.6 169 246.6 169 246.5 169C246.4 169 246.4 169 246.3 169C246.2 169 246.2 169 246.1 169C246 169 246 169 245.9 169C245.9 169 245.9 169 245.8 169C245.7 169 245.7 169 245.6 169C245.5 169 245.5 169 245.4 169C245.4 169 245.4 169 245.3 169C245.2 169 245.2 169 245.1 169H245C245 169 245 169 244.9 169C244.8 169 244.8 169 244.7 169C244.7 169 244.7 169 244.6 169H244.5C244.5 169 244.5 169 244.4 169C244.3 169 244.3 169 244.2 169C244.2 169 244.2 169 244.1 169H244C244 169 244 169 243.9 169C243.8 169 243.8 169 243.7 169C243.7 169 243.7 169 243.6 169H243.5C243.5 169 243.5 169 243.4 169C243.3 169 243.3 169 243.2 169H243.1C243 169 243 169 242.9 169C242.9 169 242.9 169 242.8 169C242.7 169 242.7 169 242.6 169H242.5C242.4 169 242.4 169 242.3 169H242.2H242.1H242C241.9 169 241.9 169 241.8 169C241.8 169 241.8 169 241.7 169H241.6H241.5C241.4 169 241.4 169 241.3 169H241.2H241.1H241C240.9 169 240.9 169 240.8 169H240.7H240.6C240.6 169 240.6 169 240.5 169C240.4 169 240.4 169 240.3 169H240.2H240.1H240C239.9 169 239.9 169 239.8 169H239.7C239.6 169 239.6 169 239.5 169H239.4C239.3 169 239.3 169 239.2 169H239.1C239 169 239 169 238.9 169C238.9 169 238.9 169 238.8 169C238.7 169 238.7 169 238.6 169C238.6 169 238.6 169 238.5 169C238.4 169 238.4 169 238.3 169H238.2H238.1C238.1 169 238.1 169 238 169C237.9 169 237.9 169 237.8 169C237.8 169 237.8 169 237.7 169C237.6 169 237.6 169 237.5 169C237.5 169 237.5 169 237.4 169C237.3 169 237.3 169 237.2 169.1C237.2 169.1 237.2 169.1 237.1 169.1C237 169.1 237 169.1 236.9 169.1C236.9 169.1 236.9 169.1 236.8 169.1C236.7 169.1 236.7 169.1 236.6 169.2H236.5C236.4 169.2 236.4 169.2 236.3 169.3C236.3 169.3 236.3 169.3 236.2 169.3C236.1 169.3 236.1 169.3 236 169.4H235.9C235.8 169.4 235.8 169.4 235.7 169.5C235.7 169.5 235.7 169.5 235.6 169.5C235.5 169.5 235.5 169.5 235.4 169.6H235.3C235.2 169.6 235.2 169.6 235.1 169.7C235.1 169.7 235.1 169.7 235 169.7C234.9 169.7 234.9 169.7 234.8 169.8C234.8 169.8 234.8 169.8 234.7 169.8C234.6 169.8 234.6 169.9 234.5 169.9C234.5 169.9 234.5 169.9 234.4 169.9C234.3 169.9 234.3 169.9 234.2 170C234.2 170 234.2 170 234.1 170C234 170 234 170.1 233.9 170.1C233.9 170.1 233.9 170.1 233.8 170.1C233.7 170.1 233.7 170.2 233.6 170.2C233.5 170.2 233.5 170.3 233.4 170.3C233.4 170.3 233.4 170.3 233.3 170.3C233.2 170.3 233.2 170.4 233.1 170.4C233 170.4 232.9 170.5 232.9 170.5C232.9 170.5 232.9 170.5 232.8 170.5C232.7 170.5 232.6 170.6 232.6 170.6C232.5 170.6 232.5 170.7 232.4 170.7C232.4 170.7 232.4 170.7 232.3 170.7C232.2 170.7 232.1 170.8 232.1 170.8C232 170.8 232 170.9 231.9 170.9C231.8 170.9 231.7 171 231.7 171C231.6 171 231.6 171.1 231.5 171.1C231.4 171.1 231.3 171.2 231.3 171.2C231.2 171.2 231.2 171.3 231.1 171.3C231 171.3 230.9 171.4 230.9 171.4C230.9 171.4 230.9 171.4 230.8 171.4C230.7 171.4 230.7 171.5 230.6 171.5C230.5 171.5 230.4 171.6 230.4 171.6C230.4 171.6 230.4 171.6 230.3 171.6C231.3 172.3 231.2 172.3 231.1 172.4Z" fill="white"/>
<path d="M256.5 177.7C254.7 173.5 251.8 170.6 248.1 169.4C248 169.4 247.8 169.3 247.7 169.3C247.6 169.3 247.6 169.3 247.5 169.2C247.4 169.2 247.4 169.2 247.3 169.1C247.2 169.1 247.2 169.1 247.1 169C247 169 247 169 246.9 169C246.8 169 246.8 169 246.7 169C246.6 169 246.6 169 246.5 169C246.4 169 246.4 169 246.3 169C246.2 169 246.2 169 246.1 169C246 169 246 169 245.9 169C245.9 169 245.9 169 245.8 169C245.7 169 245.7 169 245.6 169C245.5 169 245.5 169 245.4 169C245.4 169 245.4 169 245.3 169C245.2 169 245.2 169 245.1 169H245C245 169 245 169 244.9 169C244.8 169 244.8 169 244.7 169C244.7 169 244.7 169 244.6 169H244.5C244.5 169 244.5 169 244.4 169C244.3 169 244.3 169 244.2 169C244.2 169 244.2 169 244.1 169H244C244 169 244 169 243.9 169C243.8 169 243.8 169 243.7 169C243.7 169 243.7 169 243.6 169H243.5C243.5 169 243.5 169 243.4 169C243.3 169 243.3 169 243.2 169H243.1C243 169 243 169 242.9 169C242.9 169 242.9 169 242.8 169C242.7 169 242.7 169 242.6 169H242.5C242.4 169 242.4 169 242.3 169H242.2H242.1H242C241.9 169 241.9 169 241.8 169C241.8 169 241.8 169 241.7 169H241.6H241.5C241.4 169 241.4 169 241.3 169H241.2H241.1H241C240.9 169 240.9 169 240.8 169H240.7H240.6C240.6 169 240.6 169 240.5 169C240.4 169 240.4 169 240.3 169H240.2H240.1H240C239.9 169 239.9 169 239.8 169H239.7C239.6 169 239.6 169 239.5 169H239.4C239.3 169 239.3 169 239.2 169H239.1C239 169 239 169 238.9 169C238.9 169 238.9 169 238.8 169C238.7 169 238.7 169 238.6 169C238.6 169 238.6 169 238.5 169C238.4 169 238.4 169 238.3 169H238.2H238.1C238.1 169 238.1 169 238 169C237.9 169 237.9 169 237.8 169C237.8 169 237.8 169 237.7 169C237.6 169 237.6 169 237.5 169C237.5 169 237.5 169 237.4 169C237.3 169 237.3 169 237.2 169.1C237.2 169.1 237.2 169.1 237.1 169.1C237 169.1 237 169.1 236.9 169.1C236.9 169.1 236.9 169.1 236.8 169.1C236.7 169.1 236.7 169.1 236.6 169.2H236.5C236.4 169.2 236.4 169.2 236.3 169.3C236.3 169.3 236.3 169.3 236.2 169.3C236.1 169.3 236.1 169.3 236 169.4H235.9C235.8 169.4 235.8 169.4 235.7 169.5C235.7 169.5 235.7 169.5 235.6 169.5C235.5 169.5 235.5 169.5 235.4 169.6H235.3C235.2 169.6 235.2 169.6 235.1 169.7C235.1 169.7 235.1 169.7 235 169.7C234.9 169.7 234.9 169.7 234.8 169.8C234.8 169.8 234.8 169.8 234.7 169.8C234.6 169.8 234.6 169.9 234.5 169.9C234.5 169.9 234.5 169.9 234.4 169.9C234.3 169.9 234.3 169.9 234.2 170C234.2 170 234.2 170 234.1 170C234 170 234 170.1 233.9 170.1C233.9 170.1 233.9 170.1 233.8 170.1C233.7 170.1 233.7 170.2 233.6 170.2C233.5 170.2 233.5 170.3 233.4 170.3C233.4 170.3 233.4 170.3 233.3 170.3C233.2 170.3 233.2 170.4 233.1 170.4C233 170.4 232.9 170.5 232.9 170.5C232.9 170.5 232.9 170.5 232.8 170.5C232.7 170.5 232.6 170.6 232.6 170.6C232.5 170.6 232.5 170.7 232.4 170.7C232.4 170.7 232.4 170.7 232.3 170.7C232.2 170.7 232.1 170.8 232.1 170.8C232 170.8 232 170.9 231.9 170.9C231.8 170.9 231.7 171 231.7 171C231.6 171 231.6 171.1 231.5 171.1C231.4 171.1 231.3 171.2 231.3 171.2C231.2 171.2 231.2 171.3 231.1 171.3C231 171.3 230.9 171.4 230.9 171.4C230.9 171.4 230.9 171.4 230.8 171.4C230.7 171.4 230.7 171.5 230.6 171.5C230.5 171.5 230.4 171.6 230.4 171.6C230.4 171.6 230.4 171.6 230.3 171.6C230.2 171.6 230.1 171.7 230.1 171.7" stroke="#171A21" stroke-width="2" stroke-miterlimit="10" stroke-linecap="round" stroke-linejoin="round"/>
<path d="M212.6 247.8L90.3999 318.3" stroke="#171A21" stroke-width="2" stroke-miterlimit="10" stroke-linecap="round" stroke-linejoin="round" stroke-dasharray="12 12"/>
<path d="M212.6 225.8L116.1 281.5" stroke="#171A21" stroke-width="2" stroke-miterlimit="10" stroke-linecap="round" stroke-linejoin="round" stroke-dasharray="12 12"/>
<path d="M251.9 87.4L234.3 77.2C230.9 75.2 225.3 75.2 221.9 77.2L126.1 132.9C122.7 134.9 122.7 138.1 126.1 140.1L143.7 150.3C147.1 152.3 152.7 152.3 156.1 150.3L252 94.6C255.4 92.6 255.4 89.4 251.9 87.4Z" fill="#FFF6EA" stroke="#171A21" stroke-width="2" stroke-miterlimit="10" stroke-linecap="round" stroke-linejoin="round" stroke-dasharray="12 12"/>
</g>
<defs>
<clipPath id="clip0">
<rect width="382.2" height="320.5" fill="white"/>
</clipPath>
</defs>
</svg>
