<svg width="383" height="321" viewBox="0 0 383 321" fill="none" xmlns="http://www.w3.org/2000/svg">
<path d="M75.7998 163.6C76.8998 158.6 74.1998 153.4 67.6998 149.6C56.4998 143.1 38.2998 143.1 26.9998 149.6C20.3998 153.4 17.5998 158.6 18.6998 163.6C18.6998 163.6 18.4998 183.1 47.2998 183.1C76.0998 183.1 75.7998 163.6 75.7998 163.6Z" fill="#FFF6EA"/>
<path d="M18.4999 162C18.4999 162.1 18.4999 162.3 18.4999 162.4C18.4999 162.5 18.4999 162.7 18.4999 162.8C18.4999 162.9 18.4999 163.1 18.5999 163.2C18.5999 163.3 18.6999 163.5 18.6999 163.6C18.6999 163.7 18.7999 163.9 18.7999 164C18.7999 164.1 18.8999 164.3 18.8999 164.4C18.8999 164.5 18.9999 164.7 18.9999 164.8C18.9999 164.9 19.0999 165 19.0999 165.2C19.1999 165.3 19.1999 165.5 19.2999 165.6C19.3999 165.7 19.3999 165.8 19.4999 166C19.5999 166.1 19.5999 166.3 19.6999 166.4C19.7999 166.6 19.8999 166.7 19.9999 166.9C19.9999 166.9 19.9999 167 20.0999 167C20.1999 167.2 20.3999 167.4 20.4999 167.7L20.5999 167.8C20.7999 168 20.8999 168.2 21.0999 168.4L21.1999 168.5C21.2999 168.7 21.4999 168.9 21.6999 169C21.6999 169.1 21.7999 169.1 21.7999 169.2C21.9999 169.4 22.1999 169.6 22.3999 169.8L22.4999 169.9C22.6999 170.1 22.7999 170.2 22.9999 170.4C23.0999 170.5 23.2999 170.6 23.3999 170.8C23.4999 170.9 23.6999 171 23.7999 171.1C23.8999 171.2 24.0999 171.3 24.2999 171.5C24.3999 171.6 24.5999 171.7 24.6999 171.8C24.8999 171.9 24.9999 172 25.1999 172.1C25.3999 172.2 25.4999 172.3 25.6999 172.4C25.8999 172.5 25.9999 172.6 26.1999 172.7C26.3999 172.8 26.5999 173 26.8999 173.1C27.2999 173.4 27.7999 173.6 28.1999 173.8C28.2999 173.9 28.4999 173.9 28.5999 174C28.9999 174.2 29.2999 174.3 29.6999 174.5C29.7999 174.6 29.8999 174.6 30.0999 174.7C30.5999 174.9 30.9999 175.1 31.4999 175.3C31.5999 175.3 31.6999 175.4 31.7999 175.4C32.1999 175.6 32.5999 175.7 33.0999 175.8C33.2999 175.9 33.3999 175.9 33.5999 176C33.7999 176.1 34.0999 176.1 34.2999 176.2C34.4999 176.3 34.6999 176.3 34.8999 176.4C35.0999 176.5 35.3999 176.5 35.5999 176.6C35.7999 176.7 35.9999 176.7 36.1999 176.8C36.3999 176.9 36.6999 176.9 36.8999 177C37.0999 177 37.2999 177.1 37.4999 177.1C37.6999 177.2 37.9999 177.2 38.2999 177.2C38.4999 177.2 38.6999 177.3 38.8999 177.3C39.3999 177.4 39.9999 177.5 40.4999 177.6C40.5999 177.6 40.6999 177.6 40.6999 177.6C41.1999 177.7 41.6999 177.7 42.0999 177.8C42.2999 177.8 42.4999 177.8 42.5999 177.9C42.8999 177.9 43.1999 178 43.4999 178C43.6999 178 43.8999 178 44.0999 178C44.3999 178 44.6999 178 45.0999 178C45.2999 178 45.4999 178 45.5999 178C45.8999 178 46.1999 178 46.3999 178C46.5999 178 46.7999 178 46.9999 178C47.2999 178 47.5999 178 47.8999 178C48.0999 178 48.2999 178 48.3999 178C48.6999 178 48.9999 178 49.1999 178C49.3999 178 49.5999 178 49.7999 178C50.0999 178 50.3999 178 50.6999 177.9C50.8999 177.9 50.9999 177.9 51.1999 177.9C51.5999 177.9 51.8999 177.8 52.2999 177.8C52.3999 177.8 52.4999 177.8 52.5999 177.8C53.0999 177.7 53.4999 177.7 53.9999 177.6C54.0999 177.6 54.0999 177.6 54.1999 177.6C54.5999 177.5 54.9999 177.5 55.3999 177.4C55.5999 177.4 55.6999 177.3 55.8999 177.3C56.1999 177.2 56.4999 177.2 56.7999 177.1C56.9999 177.1 57.0999 177 57.2999 177C57.5999 176.9 57.8999 176.9 58.2999 176.8C58.4999 176.8 58.6999 176.7 58.7999 176.7C59.0999 176.6 59.3999 176.5 59.6999 176.5C59.8999 176.5 59.9999 176.4 60.1999 176.4C60.6999 176.3 61.0999 176.1 61.5999 176C61.6999 176 61.7999 175.9 61.7999 175.9C62.2999 175.7 62.7999 175.5 63.2999 175.3C63.4999 175.2 63.6999 175.1 63.8999 175.1C64.0999 175 64.1999 175 64.3999 174.9C64.5999 174.8 64.7999 174.7 65.0999 174.6C65.1999 174.5 65.3999 174.5 65.4999 174.4C65.6999 174.3 65.9999 174.2 66.1999 174C66.2999 173.9 66.3999 173.9 66.5999 173.8C66.9999 173.6 67.2999 173.4 67.5999 173.2C73.2999 169.9 76.0999 165.6 76.0999 161.3L76.1999 173.3C76.1999 177.6 73.3999 181.9 67.6999 185.2C67.3999 185.4 66.9999 185.6 66.6999 185.8C66.5999 185.9 66.4999 185.9 66.2999 186C66.0999 186.1 65.7999 186.2 65.5999 186.4C65.4999 186.5 65.2999 186.5 65.1999 186.6C64.9999 186.7 64.7999 186.8 64.4999 186.9C64.2999 187 64.1999 187 63.9999 187.1C63.7999 187.2 63.6999 187.2 63.4999 187.3C63.4999 187.3 63.3999 187.3 63.3999 187.4C62.8999 187.6 62.3999 187.8 61.8999 188C61.7999 188 61.6999 188.1 61.6999 188.1C61.2999 188.2 60.7999 188.4 60.2999 188.5C60.1999 188.5 60.0999 188.5 60.0999 188.6C59.9999 188.6 59.8999 188.6 59.7999 188.7C59.4999 188.8 59.1999 188.9 58.8999 188.9C58.6999 188.9 58.4999 189 58.3999 189C58.0999 189.1 57.7999 189.1 57.3999 189.2C57.2999 189.2 57.1999 189.3 56.9999 189.3H56.8999C56.5999 189.4 56.2999 189.4 55.9999 189.5C55.7999 189.5 55.6999 189.6 55.4999 189.6C55.0999 189.7 54.6999 189.7 54.2999 189.8C54.1999 189.8 54.1999 189.8 54.0999 189.8C53.5999 189.9 53.1999 189.9 52.6999 190C52.5999 190 52.4999 190 52.3999 190C51.9999 190 51.6999 190.1 51.2999 190.1C51.0999 190.1 50.9999 190.1 50.7999 190.1C50.4999 190.1 50.1999 190.1 49.8999 190.2C49.6999 190.2 49.4999 190.2 49.2999 190.2C48.9999 190.2 48.6999 190.2 48.4999 190.2C48.4999 190.2 48.4999 190.2 48.3999 190.2C48.1999 190.2 48.0999 190.2 47.8999 190.2C47.5999 190.2 47.2999 190.2 46.9999 190.2C46.7999 190.2 46.5999 190.2 46.3999 190.2C46.0999 190.2 45.7999 190.2 45.5999 190.2C45.4999 190.2 45.4999 190.2 45.3999 190.2C45.2999 190.2 45.0999 190.2 44.9999 190.2C44.6999 190.2 44.3999 190.2 43.9999 190.2C43.7999 190.2 43.5999 190.2 43.3999 190.2C43.0999 190.2 42.7999 190.2 42.4999 190.1C42.3999 190.1 42.2999 190.1 42.1999 190.1C42.0999 190.1 42.0999 190.1 41.9999 190.1C41.4999 190 40.9999 190 40.5999 189.9C40.4999 189.9 40.3999 189.9 40.3999 189.9C39.8999 189.8 39.2999 189.7 38.7999 189.6C38.6999 189.6 38.6999 189.6 38.5999 189.6C38.4999 189.6 38.2999 189.5 38.1999 189.5C37.8999 189.5 37.6999 189.4 37.3999 189.4C37.1999 189.4 36.9999 189.3 36.7999 189.3C36.5999 189.2 36.2999 189.2 36.0999 189.1C35.8999 189.1 35.6999 189 35.4999 188.9C35.2999 188.8 34.9999 188.8 34.7999 188.7C34.5999 188.6 34.3999 188.6 34.1999 188.5C33.9999 188.4 33.6999 188.4 33.4999 188.3C33.3999 188.3 33.2999 188.2 33.1999 188.2C33.0999 188.2 33.0999 188.1 32.9999 188.1C32.5999 188 32.1999 187.8 31.6999 187.7C31.5999 187.7 31.4999 187.6 31.3999 187.6C30.8999 187.4 30.3999 187.2 29.9999 187C29.8999 186.9 29.7999 186.9 29.5999 186.8C29.1999 186.6 28.8999 186.5 28.4999 186.3C28.3999 186.2 28.1999 186.2 28.0999 186.1C27.5999 185.9 27.1999 185.6 26.7999 185.4C26.6999 185.3 26.5999 185.3 26.3999 185.2C26.2999 185.1 26.1999 185.1 26.0999 185C25.8999 184.9 25.6999 184.8 25.5999 184.7C25.3999 184.6 25.2999 184.5 25.0999 184.4C24.8999 184.3 24.7999 184.2 24.5999 184.1C24.4999 184 24.2999 183.9 24.1999 183.8C23.9999 183.7 23.8999 183.6 23.6999 183.4C23.5999 183.3 23.3999 183.2 23.2999 183.1C23.1999 183 22.9999 182.9 22.8999 182.7C22.7999 182.6 22.7999 182.6 22.6999 182.6C22.5999 182.5 22.4999 182.4 22.3999 182.3L22.2999 182.2C22.0999 182 21.8999 181.8 21.6999 181.6L21.5999 181.5C21.3999 181.3 21.2999 181.1 21.0999 180.9L20.9999 180.8C20.9999 180.8 20.9999 180.8 20.9999 180.7C20.7999 180.5 20.6999 180.3 20.5999 180.1L20.4999 180C20.3999 179.8 20.1999 179.6 20.0999 179.3C20.0999 179.3 20.0999 179.2 19.9999 179.2C19.9999 179.1 19.8999 179 19.8999 179C19.8999 178.9 19.7999 178.9 19.7999 178.8C19.6999 178.7 19.5999 178.5 19.5999 178.4C19.4999 178.3 19.4999 178.2 19.3999 178C19.2999 177.9 19.2999 177.7 19.1999 177.6C19.1999 177.5 19.0999 177.5 19.0999 177.4C19.0999 177.3 19.0999 177.3 18.9999 177.2C18.9999 177.1 18.8999 176.9 18.8999 176.8C18.8999 176.7 18.7999 176.5 18.7999 176.4C18.7999 176.3 18.6999 176.1 18.6999 176C18.6999 175.9 18.6999 175.8 18.5999 175.8C18.5999 175.7 18.5999 175.7 18.5999 175.6C18.5999 175.5 18.5999 175.3 18.4999 175.2C18.4999 175.1 18.4999 174.9 18.4999 174.8C18.4999 174.7 18.4999 174.5 18.4999 174.4C18.4999 174.3 18.4999 174.2 18.4999 174.1C18.4999 174 18.4999 173.9 18.4999 173.8L18.3999 161.8C18.4999 161.7 18.4999 161.9 18.4999 162Z" fill="#2F58FF"/>
<path d="M68.4999 152.7C69.2999 149.2 67.3999 145.5 62.7999 142.8C54.8999 138.2 41.9999 138.2 33.9999 142.8C29.2999 145.5 27.3999 149.2 28.1999 152.7C28.1999 152.7 28.0999 166.5 48.3999 166.5C68.6999 166.5 68.4999 152.7 68.4999 152.7Z" fill="white"/>
<path d="M28 151.6C28 151.7 28 151.8 28 151.9C28 152 28 152.1 28 152.2C28 152.3 28 152.4 28 152.5C28 152.6 28 152.7 28.1 152.8C28.1 152.9 28.1 153 28.2 153.1C28.2 153.2 28.3 153.3 28.3 153.4C28.3 153.5 28.4 153.6 28.4 153.7C28.4 153.8 28.5 153.9 28.5 154C28.5 154.1 28.6 154.2 28.6 154.3C28.6 154.4 28.7 154.5 28.7 154.6C28.7 154.7 28.8 154.8 28.9 154.9C29 155 29 155.1 29.1 155.2V155.3C29.2 155.5 29.3 155.6 29.4 155.8C29.4 155.8 29.4 155.9 29.5 155.9C29.6 156.1 29.7 156.2 29.8 156.4C29.8 156.4 29.8 156.5 29.9 156.5C30 156.6 30.1 156.8 30.2 156.9L30.3 157C30.4 157.1 30.6 157.3 30.7 157.4L30.8 157.5C30.9 157.6 31 157.7 31.1 157.8C31.2 157.9 31.3 158 31.4 158.1C31.5 158.2 31.6 158.3 31.7 158.3C31.8 158.4 31.9 158.5 32 158.5C32.1 158.6 32.2 158.7 32.3 158.7C32.4 158.8 32.5 158.9 32.6 158.9C32.7 159 32.8 159 32.9 159.1C33 159.2 33.1 159.3 33.3 159.3C33.5 159.4 33.6 159.5 33.8 159.6C34.1 159.8 34.4 159.9 34.7 160.1C34.8 160.1 34.9 160.2 35 160.2C35.2 160.3 35.5 160.4 35.8 160.6C35.9 160.6 36 160.7 36.1 160.7C36.4 160.8 36.8 161 37.1 161.1C37.2 161.1 37.2 161.1 37.3 161.2C37.6 161.3 37.9 161.4 38.2 161.5C38.3 161.5 38.4 161.6 38.6 161.6C38.8 161.7 38.9 161.7 39.1 161.8C39.2 161.8 39.4 161.9 39.5 161.9C39.7 161.9 39.8 162 40 162C40.1 162 40.3 162.1 40.4 162.1C40.6 162.1 40.7 162.2 40.9 162.2C41 162.2 41.2 162.3 41.3 162.3C41.5 162.3 41.7 162.4 41.8 162.4C41.9 162.4 42.1 162.5 42.2 162.5C42.6 162.6 43 162.6 43.4 162.7C43.5 162.7 43.5 162.7 43.6 162.7C43.9 162.7 44.3 162.8 44.6 162.8C44.7 162.8 44.9 162.8 45 162.8C45.2 162.8 45.4 162.8 45.7 162.9C45.8 162.9 46 162.9 46.1 162.9C46.3 162.9 46.6 162.9 46.8 162.9C46.9 162.9 47.1 162.9 47.2 162.9C47.4 162.9 47.6 162.9 47.8 162.9C47.9 162.9 48.1 162.9 48.2 162.9C48.4 162.9 48.6 162.9 48.8 162.9C48.9 162.9 49.1 162.9 49.2 162.9C49.4 162.9 49.6 162.9 49.8 162.9C49.9 162.9 50.1 162.9 50.2 162.9C50.4 162.9 50.6 162.9 50.8 162.9C50.9 162.9 51 162.9 51.2 162.9C51.5 162.9 51.7 162.9 52 162.8C52.1 162.8 52.2 162.8 52.2 162.8C52.5 162.8 52.8 162.7 53.2 162.7C53.3 162.7 53.3 162.7 53.4 162.7C53.7 162.7 54 162.6 54.2 162.6C54.3 162.6 54.4 162.6 54.5 162.5C54.7 162.5 54.9 162.4 55.1 162.4C55.2 162.4 55.3 162.4 55.4 162.3C55.6 162.3 55.9 162.2 56.1 162.1C56.2 162.1 56.4 162 56.5 162C56.7 161.9 56.9 161.9 57.1 161.8C57.2 161.8 57.3 161.7 57.4 161.7C57.7 161.6 58 161.5 58.4 161.4C58.5 161.4 58.5 161.4 58.6 161.3C59 161.2 59.3 161 59.7 160.9C59.8 160.8 60 160.8 60.1 160.7C60.2 160.7 60.3 160.6 60.4 160.6C60.6 160.5 60.7 160.5 60.9 160.4C61 160.4 61.1 160.3 61.2 160.3C61.4 160.2 61.5 160.1 61.7 160C61.8 160 61.9 159.9 61.9 159.9C62.1 159.8 62.4 159.6 62.6 159.5C66.6 157.2 68.6 154.1 68.6 151.1L68.7 159.6C68.7 162.6 66.7 165.7 62.7 168C62.5 168.1 62.2 168.3 62 168.4C61.9 168.4 61.8 168.5 61.8 168.5C61.6 168.6 61.5 168.7 61.3 168.8C61.2 168.8 61.1 168.9 61 168.9C60.8 169 60.7 169 60.5 169.1C60.4 169.1 60.3 169.2 60.2 169.2C60.1 169.2 60 169.3 59.9 169.3H59.8C59.4 169.4 59.1 169.6 58.7 169.7C58.6 169.7 58.6 169.7 58.5 169.8C58.2 169.9 57.9 170 57.5 170.1C57.4 170.1 57.4 170.1 57.3 170.1C57.2 170.1 57.2 170.1 57.1 170.1C56.9 170.2 56.7 170.2 56.5 170.3C56.4 170.3 56.2 170.4 56.1 170.4C55.9 170.5 55.6 170.5 55.4 170.6C55.3 170.6 55.2 170.6 55.1 170.7C55.1 170.7 55.1 170.7 55 170.7C54.8 170.7 54.6 170.8 54.4 170.8C54.3 170.8 54.2 170.8 54.1 170.9C53.8 170.9 53.5 171 53.3 171H53.2C52.9 171 52.6 171.1 52.2 171.1C52.1 171.1 52 171.1 52 171.1C51.7 171.1 51.5 171.2 51.2 171.2C51.1 171.2 51 171.2 50.9 171.2C50.7 171.2 50.5 171.2 50.3 171.2C50.2 171.2 50 171.2 49.9 171.2C49.7 171.2 49.5 171.2 49.3 171.2C49.2 171.2 49.1 171.2 49 171.2C48.8 171.2 48.6 171.2 48.4 171.2C48.3 171.2 48.1 171.2 48 171.2C47.8 171.2 47.6 171.2 47.4 171.2H47.3C47.2 171.2 47.1 171.2 47 171.2C46.8 171.2 46.5 171.2 46.3 171.2C46.2 171.2 46 171.2 45.9 171.2C45.7 171.2 45.5 171.2 45.2 171.1C45.1 171.1 45 171.1 45 171.1C44.9 171.1 44.9 171.1 44.8 171.1C44.5 171.1 44.1 171 43.8 171C43.7 171 43.7 171 43.6 171C43.2 170.9 42.8 170.9 42.4 170.8H42.3C42.2 170.8 42.1 170.8 42 170.7C41.8 170.7 41.6 170.6 41.5 170.6C41.4 170.6 41.2 170.5 41.1 170.5C40.9 170.5 40.8 170.4 40.6 170.4C40.5 170.4 40.3 170.3 40.2 170.3C40 170.3 39.9 170.2 39.7 170.2C39.6 170.2 39.4 170.1 39.3 170.1C39.1 170.1 39 170 38.8 169.9C38.7 169.9 38.7 169.9 38.6 169.8C38.5 169.8 38.5 169.8 38.4 169.7C38.1 169.6 37.8 169.5 37.5 169.4C37.4 169.4 37.4 169.4 37.3 169.3C37 169.2 36.6 169 36.3 168.9C36.2 168.9 36.1 168.8 36 168.8C35.7 168.7 35.5 168.6 35.2 168.4C35.1 168.4 35 168.3 34.9 168.3C34.6 168.1 34.3 168 34 167.8C33.9 167.8 33.8 167.7 33.8 167.7C33.7 167.7 33.7 167.6 33.6 167.6C33.5 167.5 33.4 167.4 33.2 167.4C33.1 167.3 33 167.3 32.9 167.2C32.8 167.1 32.7 167 32.6 167C32.5 166.9 32.4 166.8 32.3 166.8C32.2 166.7 32.1 166.6 32 166.6C31.9 166.5 31.8 166.4 31.7 166.4C31.6 166.3 31.5 166.2 31.4 166.1L31.3 166C31.2 165.9 31.1 165.9 31.1 165.8L31 165.7C30.9 165.6 30.7 165.4 30.6 165.3L30.5 165.2C30.4 165.1 30.3 164.9 30.2 164.8C30.2 164.8 30.2 164.7 30.1 164.7C30 164.6 29.9 164.4 29.8 164.3C29.8 164.3 29.8 164.2 29.7 164.2C29.6 164 29.5 163.9 29.4 163.7V163.6C29.4 163.5 29.3 163.5 29.3 163.4C29.3 163.4 29.3 163.3 29.2 163.3C29.1 163.2 29.1 163.1 29 163C29 162.9 28.9 162.8 28.9 162.7C28.9 162.6 28.8 162.5 28.8 162.4C28.8 162.4 28.8 162.3 28.7 162.3V162.2C28.7 162.1 28.6 162 28.6 161.9C28.6 161.8 28.5 161.7 28.5 161.6C28.5 161.5 28.4 161.4 28.4 161.3C28.4 161.2 28.4 161.2 28.4 161.1V161C28.4 160.9 28.4 160.8 28.4 160.7C28.4 160.6 28.4 160.5 28.4 160.4C28.4 160.3 28.4 160.2 28.4 160.1C28.4 160 28.4 160 28.4 159.9C28.4 159.8 28.4 159.8 28.4 159.7L28.3 151.2C28 151.4 28 151.5 28 151.6Z" fill="#2F58FF"/>
<path d="M68.4999 152.7C69.2999 149.2 67.3999 145.5 62.7999 142.8C54.8999 138.2 41.9999 138.2 33.9999 142.8C29.2999 145.5 27.3999 149.2 28.1999 152.7" stroke="#171A21" stroke-width="2" stroke-miterlimit="10" stroke-linecap="round" stroke-linejoin="round"/>
<path d="M48.6999 17.5C45.4999 17.5 42.8999 20.1 42.8999 23.3V147.3C42.8999 150.5 45.4999 153.1 48.6999 153.1C51.8999 153.1 54.4999 150.5 54.4999 147.3V23.3C54.4999 20.2 51.8999 17.5 48.6999 17.5Z" fill="#2F58FF"/>
<path d="M56.9001 76.8001L3.80014 107.6C0.600136 109.4 -1.09986 106.1 1.10014 102.1L14.3001 77.5001C15.5001 75.2001 15.5001 72.8001 14.3001 71.9001L1.00014 62.6001C-1.09986 61.1001 0.500136 55.8001 3.70014 54.0001L56.8001 23.2001C58.8001 22.0001 60.5001 23.0001 60.5001 25.3001L60.6001 70.4001C60.6001 72.8001 59.0001 75.6001 56.9001 76.8001Z" fill="#FFD394"/>
</svg>
