<?xml version="1.0" encoding="utf-8"?>
<!-- Generator: Adobe Illustrator 22.1.0, SVG Export Plug-In . SVG Version: 6.00 Build 0)  -->
<svg version="1.1" id="Слой_1" xmlns="http://www.w3.org/2000/svg" xmlns:xlink="http://www.w3.org/1999/xlink" x="0px" y="0px"
	 viewBox="0 0 383 321" style="enable-background:new 0 0 383 321;" xml:space="preserve">
<style type="text/css">
	.st0{fill:#FFFFFF;}
	.st1{fill:none;stroke:#2F58FF;stroke-width:1.5;stroke-linecap:round;stroke-linejoin:round;stroke-miterlimit:10;}
	.st2{fill:none;stroke:#171A21;stroke-width:1.5;stroke-linecap:round;stroke-linejoin:round;stroke-miterlimit:10;}
	.st3{fill:#2F58FF;}
</style>
<path class="st0" d="M159.5,115.8c0.1-0.9,0.2-1.8,0.3-2.6c0.1-1,0.3-1.9,0.5-2.9c0.1-0.7,0.2-1.3,0.4-2c0.1-0.6,0.3-1.3,0.5-1.9
	c0.2-0.9,0.4-1.7,0.7-2.6c0.1-0.5,0.3-1,0.5-1.5c0.3-1,0.6-2,1-2.9c0.1-0.4,0.3-0.8,0.4-1.2c0.5-1.3,1-2.7,1.6-4
	c0.1-0.1,0.1-0.3,0.2-0.4c0.5-1.2,1.1-2.4,1.7-3.6c0.2-0.4,0.4-0.7,0.6-1.1c0.6-1.1,1.2-2.2,1.8-3.3c0.1-0.2,0.2-0.4,0.4-0.7
	c0.7-1.3,1.5-2.5,2.3-3.8c0.2-0.4,0.5-0.7,0.7-1.1c0.6-0.9,1.2-1.8,1.8-2.6c0.3-0.5,0.7-0.9,1-1.4c0.5-0.7,1.1-1.4,1.7-2.1
	c0.5-0.6,0.9-1.2,1.4-1.7s0.9-1.1,1.4-1.6c0.8-0.9,1.6-1.8,2.4-2.6c0.5-0.5,1-1.1,1.6-1.6c0.4-0.4,0.8-0.8,1.2-1.1
	c0.7-0.6,1.4-1.2,2.1-1.8c0.4-0.3,0.8-0.7,1.3-1c0.8-0.6,1.5-1.2,2.3-1.7c0.4-0.3,0.7-0.5,1.1-0.8c1.2-0.8,2.3-1.5,3.5-2.2
	c1.1-0.7,2.3-1.2,3.4-1.7c0.3-0.1,0.6-0.3,0.9-0.4c1.1-0.5,2.1-0.9,3.2-1.3c0.1,0,0.1,0,0.2-0.1c0.9-0.3,1.8-0.5,2.7-0.7
	c0.5-0.1,1-0.2,1.5-0.3c0.7-0.1,1.3-0.2,1.9-0.3c0.4,0,0.7-0.1,1.1-0.1c0.8-0.1,1.6-0.1,2.4,0c0.2,0,0.4,0,0.5,0
	c0.9,0.1,1.8,0.2,2.7,0.3c0.2,0,0.4,0.1,0.6,0.1c0.7,0.2,1.4,0.4,2,0.6c0.2,0.1,0.4,0.1,0.6,0.2c0.8,0.3,1.6,0.7,2.4,1.1L197.1,42
	c-0.1,0-0.1-0.1-0.2-0.1c-0.6-0.3-1.2-0.6-1.8-0.9c-0.1,0-0.2-0.1-0.4-0.1c-0.2-0.1-0.4-0.1-0.6-0.2c-0.3-0.1-0.6-0.2-1-0.3
	c-0.3-0.1-0.7-0.2-1.1-0.2c-0.2,0-0.4-0.1-0.6-0.1c-0.1,0-0.2-0.1-0.4-0.1c-0.7-0.1-1.5-0.2-2.2-0.3h-0.1c-0.2,0-0.4,0-0.5,0
	c-0.6,0-1.2,0-1.8,0c-0.2,0-0.4,0-0.6,0.1c-0.4,0-0.7,0.1-1.1,0.1c-0.3,0-0.7,0-1,0.1c-0.3,0-0.6,0.1-0.9,0.2
	c-0.5,0.1-1,0.2-1.5,0.3c-0.3,0.1-0.5,0.1-0.8,0.2c-0.6,0.2-1.2,0.4-1.9,0.6c-0.1,0-0.1,0-0.2,0.1c-0.7,0.3-1.5,0.5-2.3,0.9
	c-0.3,0.1-0.6,0.3-0.9,0.4c-0.3,0.1-0.6,0.3-0.9,0.4c-1.1,0.5-2.2,1.1-3.4,1.7c-1.2,0.7-2.3,1.4-3.5,2.2c-0.4,0.3-0.7,0.5-1.1,0.8
	c-0.8,0.6-1.5,1.1-2.3,1.7c-0.4,0.3-0.8,0.7-1.2,1c-0.7,0.6-1.4,1.2-2.1,1.8c-0.4,0.4-0.8,0.8-1.2,1.2c-0.3,0.2-0.5,0.5-0.8,0.7
	c-0.3,0.3-0.5,0.6-0.8,0.8c-0.8,0.8-1.6,1.7-2.4,2.6c-0.3,0.3-0.5,0.5-0.8,0.8c-0.2,0.2-0.4,0.5-0.6,0.8c-0.5,0.6-1,1.1-1.4,1.7
	c-0.3,0.4-0.6,0.7-0.9,1.1c-0.2,0.3-0.5,0.7-0.7,1c-0.3,0.5-0.7,0.9-1,1.4c-0.2,0.3-0.5,0.6-0.7,0.9c-0.4,0.6-0.8,1.1-1.1,1.7
	c-0.2,0.4-0.5,0.7-0.7,1.1c-0.1,0.1-0.2,0.3-0.3,0.4c-0.7,1-1.3,2.1-1.9,3.1c0,0.1-0.1,0.1-0.1,0.2c-0.1,0.2-0.2,0.4-0.4,0.7
	c-0.4,0.7-0.8,1.5-1.2,2.2c-0.2,0.4-0.4,0.7-0.5,1.1c-0.2,0.4-0.4,0.7-0.6,1.1c-0.2,0.3-0.3,0.6-0.5,0.9c-0.4,0.9-0.8,1.7-1.2,2.6
	c-0.1,0.1-0.1,0.3-0.2,0.4c0,0,0,0.1-0.1,0.1c-0.5,1.1-0.9,2.2-1.3,3.3c-0.1,0.2-0.1,0.4-0.2,0.6c-0.2,0.4-0.3,0.8-0.4,1.2
	c-0.2,0.5-0.4,1.1-0.6,1.6c-0.1,0.4-0.3,0.9-0.4,1.3c-0.2,0.5-0.3,1-0.5,1.5c-0.1,0.3-0.2,0.6-0.3,0.9c-0.2,0.6-0.3,1.1-0.4,1.7
	c-0.2,0.6-0.3,1.3-0.5,1.9c0,0.2-0.1,0.4-0.2,0.7c-0.1,0.5-0.1,0.9-0.2,1.3c-0.2,1-0.4,2-0.5,2.9c0,0.3-0.1,0.5-0.1,0.8
	c-0.1,0.6-0.1,1.2-0.2,1.8c0,0.4-0.1,0.9-0.1,1.3c-0.1,1.4-0.2,2.7-0.2,4.1c0,11.6,4.1,19.7,10.7,23.5l24.8,13.3
	c-6.6-3.8-10.7-12-10.7-23.5c0-1.3,0.1-2.7,0.2-4.1C159.4,116.7,159.5,116.3,159.5,115.8z"/>
<path class="st1" d="M135.8,118.4l29.5,16.7 M207.5,54.3L182.7,40L207.5,54.3z M167.6,46.5l26,14.5L167.6,46.5z M186.9,72.2
	l-30-16.9L186.9,72.2z M180.7,83.7L149.5,66L180.7,83.7z M142.4,76.9l33.3,18.9L142.4,76.9z M169.9,107.5l-32.5-18.4L169.9,107.5z
	 M167.5,121.2l-32.8-18.6L167.5,121.2z"/>
<path class="st2" d="M218.9,53.9c0.2,0.1,0.4,0.1,0.6,0.2c0.8,0.3,1.6,0.7,2.4,1.1L197.1,42c-0.1,0-0.1-0.1-0.2-0.1
	c-0.6-0.3-1.2-0.6-1.8-0.9c-0.1,0-0.2-0.1-0.4-0.1c-0.2-0.1-0.4-0.1-0.6-0.2c-0.3-0.1-0.6-0.2-1-0.3c-0.3-0.1-0.7-0.2-1.1-0.2
	c-0.2,0-0.4-0.1-0.6-0.1c-0.1,0-0.2-0.1-0.4-0.1c-0.7-0.1-1.5-0.2-2.2-0.3h-0.1c-0.2,0-0.4,0-0.5,0c-0.6,0-1.2,0-1.8,0
	c-0.2,0-0.4,0-0.6,0.1c-0.4,0-0.7,0.1-1.1,0.1c-0.3,0-0.7,0-1,0.1c-0.3,0-0.6,0.1-0.9,0.2c-0.5,0.1-1,0.2-1.5,0.3
	c-0.3,0.1-0.5,0.1-0.8,0.2c-0.6,0.2-1.2,0.4-1.9,0.6c-0.1,0-0.1,0-0.2,0.1c-0.7,0.3-1.5,0.5-2.3,0.9c-0.3,0.1-0.6,0.3-0.9,0.4
	c-0.3,0.1-0.6,0.3-0.9,0.4c-1.1,0.5-2.2,1.1-3.4,1.7c-1.2,0.7-2.3,1.4-3.5,2.2c-0.4,0.3-0.7,0.5-1.1,0.8c-0.8,0.6-1.5,1.1-2.3,1.7
	c-0.4,0.3-0.8,0.7-1.2,1c-0.7,0.6-1.4,1.2-2.1,1.8c-0.4,0.4-0.8,0.8-1.2,1.2c-0.3,0.2-0.5,0.5-0.8,0.7c-0.3,0.3-0.5,0.6-0.8,0.8
	c-0.8,0.8-1.6,1.7-2.4,2.6c-0.3,0.3-0.5,0.5-0.8,0.8c-0.2,0.2-0.4,0.5-0.6,0.8c-0.5,0.6-1,1.1-1.4,1.7c-0.3,0.4-0.6,0.7-0.9,1.1
	c-0.2,0.3-0.5,0.7-0.7,1c-0.3,0.5-0.7,0.9-1,1.4c-0.2,0.3-0.5,0.6-0.7,0.9c-0.4,0.6-0.8,1.1-1.1,1.7c-0.2,0.4-0.5,0.7-0.7,1.1
	c-0.1,0.1-0.2,0.3-0.3,0.4c-0.7,1-1.3,2.1-1.9,3.1c0,0.1-0.1,0.1-0.1,0.2c-0.1,0.2-0.2,0.4-0.4,0.7c-0.4,0.7-0.8,1.5-1.2,2.2
	c-0.2,0.4-0.4,0.7-0.5,1.1c-0.2,0.4-0.4,0.7-0.6,1.1c-0.2,0.3-0.3,0.6-0.5,0.9c-0.4,0.9-0.8,1.7-1.2,2.6c-0.1,0.1-0.1,0.3-0.2,0.4
	c0,0,0,0.1-0.1,0.1c-0.5,1.1-0.9,2.2-1.3,3.3c-0.1,0.2-0.1,0.4-0.2,0.6c-0.2,0.4-0.3,0.8-0.4,1.2c-0.2,0.5-0.4,1.1-0.6,1.6
	c-0.1,0.4-0.3,0.9-0.4,1.3c-0.2,0.5-0.3,1-0.5,1.5c-0.1,0.3-0.2,0.6-0.3,0.9c-0.2,0.6-0.3,1.1-0.4,1.7c-0.2,0.6-0.3,1.3-0.5,1.9
	c0,0.2-0.1,0.4-0.2,0.7c-0.1,0.5-0.1,0.9-0.2,1.3c-0.2,1-0.4,2-0.5,2.9c0,0.3-0.1,0.5-0.1,0.8c-0.1,0.6-0.1,1.2-0.2,1.8
	c0,0.4-0.1,0.9-0.1,1.3c-0.1,1.4-0.2,2.7-0.2,4.1c0,11.6,4.1,19.7,10.7,23.5l24.8,13.3"/>
<path class="st3" d="M195.8,57.8c20.3-11.7,36.8-2.3,36.8,21c0.1,23.3-16.3,51.7-36.6,63.4s-36.7,2.3-36.8-21
	C159.2,97.9,175.5,69.5,195.8,57.8z"/>
</svg>
