<svg width="410" height="380" viewBox="0 0 410 380" fill="none" xmlns="http://www.w3.org/2000/svg">
<g clip-path="url(#clip0)">
<path d="M161.7 336.4L234.6 378.7" stroke="#171A21" stroke-width="2" stroke-miterlimit="10" stroke-linecap="round" stroke-linejoin="round" stroke-dasharray="12 12"/>
<path d="M234.6 378.7L360.8 304.9" stroke="#171A21" stroke-width="2" stroke-miterlimit="10" stroke-linecap="round" stroke-linejoin="round" stroke-dasharray="12 12"/>
<path d="M288.6 262.7L361.5 304.9" stroke="#171A21" stroke-width="2" stroke-miterlimit="10" stroke-linecap="round" stroke-linejoin="round" stroke-dasharray="12 12"/>
<path d="M399.1 244.9C399 245.1 398.9 245.3 398.8 245.5C398.8 245.5 398.8 245.6 398.7 245.6C398.6 245.8 398.4 245.9 398.3 246.1C398.3 246.1 398.3 246.1 398.2 246.1C398 246.3 397.8 246.4 397.6 246.6L290.5 308.8C290.3 308.9 290 309.1 289.7 309.2C289.6 309.2 289.6 309.3 289.5 309.3C289.3 309.4 289.2 309.4 289 309.5C288.8 309.5 288.6 309.6 288.5 309.6C288.3 309.6 288.1 309.7 287.9 309.7C287.8 309.7 287.8 309.4 287.7 309.4C287.4 309.4 287.1 309.2 286.8 309.2H286.7C286.4 309.2 286.1 309.5 285.8 309.4L285.7 309.5C285.4 309.5 285.1 309.5 284.8 309.4C284.7 309.4 284.7 309.4 284.6 309.4C284.3 309.3 284.1 309.3 283.9 309.2H283.8C283.5 309.1 283.2 309 283 308.8L104 205.4C102.9 204.8 102.4 204 102.4 203.2V217.9C102.4 218.7 102.9 219.5 104 220.1L283 323.5C283.2 323.6 283.5 323.8 283.8 323.9H283.9C284.1 324 284.2 324 284.4 324.1C284.5 324.1 284.6 324.1 284.7 324.2C284.8 324.2 284.8 324.2 284.9 324.2H285C285.2 324.2 285.4 324.3 285.5 324.3C285.6 324.3 285.6 324.3 285.7 324.3H285.8C285.9 324.3 285.9 324.3 286 324.3C286.2 324.3 287.8 324.2 287.9 324.2C288.1 324.2 288.2 324.2 288.4 324.1C288.5 324.1 288.5 324.1 288.6 324.1C288.8 324.1 289 324 289.1 324C289.2 324 289.3 324 289.4 323.9C289.5 323.9 289.5 323.8 289.6 323.8C289.7 323.8 289.7 323.7 289.8 323.7C290.1 323.6 290.3 323.5 290.5 323.3L397.6 261.1C397.6 261.1 397.6 261.1 397.7 261.1C397.9 261 398.1 260.8 398.3 260.7C398.3 260.7 398.3 260.7 398.4 260.6C398.5 260.5 398.6 260.4 398.7 260.2C398.7 260.2 398.7 260.1 398.8 260.1C398.8 260.1 398.8 260 398.9 260L399.1 259.9C399.2 259.8 399.6 259.1 399.6 259V253L399.5 244.3C399.4 244.5 399.1 244.7 399.1 244.9Z" fill="#2F58FF"/>
<path d="M397.6 242.1C399.7 243.3 399.7 245.3 397.6 246.5L290.5 308.7C288.4 309.9 285 309.9 282.9 308.7L103.9 205.3C101.8 204.1 101.8 202.1 103.9 200.9L211 138.8C213.1 137.6 216.5 137.6 218.6 138.8L397.6 242.1Z" fill="#FFD394"/>
<path d="M273.6 247.1L218.4 215.2C217 214.4 214.7 214.4 213.3 215.2L181.5 233.7C180.1 234.5 180.1 235.8 181.5 236.6L236.7 268.5C238.1 269.3 240.4 269.3 241.8 268.5L273.6 250C275 249.2 275 247.9 273.6 247.1Z" stroke="#2F58FF" stroke-width="2" stroke-miterlimit="10"/>
<path d="M214.3 132C214.3 134.4 216 137.4 218.1 138.6L397.1 242C398.3 242.7 399.4 242.7 400.1 242C400 242.1 399.9 242.2 399.8 242.2L407.4 237.8C407.6 237.7 407.7 237.6 407.8 237.5L407 237.4C407 237.3 406.3 235.5 406.3 235.4L407.7 111.5C407.7 111.4 408.8 111.4 408.8 111.3C408.8 111.2 408.8 111.2 408.8 111.1C408.8 111 408.8 111 408.8 110.9C408.8 110.8 408.8 110.8 408.8 110.7C408.8 110.6 408.6 110.6 408.6 110.5H408.4C408.4 110.4 408.6 110.4 408.6 110.3C408.6 110.2 408.7 110.2 408.7 110.1C408.7 110 408.7 110 408.7 109.9C408.7 109.8 408.7 109.8 408.7 109.7C408.7 109.6 408.7 109.6 408.7 109.5C408.7 109.4 408.7 109.4 408.6 109.3C408.6 109.2 408.6 109.2 408.5 109.1C408.5 109 408.5 109 408.4 108.9C408.4 108.8 408.4 108.8 408.3 108.7C408.3 108.7 408.3 108.6 408.2 108.6C408.2 108.5 408.1 108.5 408.1 108.4C408.1 108.3 408 108.3 408 108.2C408 108.1 407.9 108 407.9 108C407.9 107.9 407.8 107.8 407.8 107.8C407.8 107.8 407.8 107.8 407.8 107.7C407.7 107.5 407.6 107.4 407.5 107.3C407.4 107.2 407.3 107.1 407.3 107C407.2 106.9 407.2 106.9 407.1 106.8C407.1 106.7 407 106.7 407 106.6C407 106.5 406.9 106.5 406.9 106.4C406.9 106.3 406.8 106.3 406.8 106.2L406.7 106.1C406.6 106 406.6 106 406.5 105.9C406.4 105.8 406.4 105.8 406.3 105.7C406.2 105.6 406.2 105.6 406.1 105.6C406.1 105.6 406 105.6 406 105.5C406 105.5 406 105.5 405.9 105.4C405.8 105.4 405.8 105.3 405.7 105.3C405.6 105.3 405.6 105.2 405.5 105.2C405.4 105.2 405.4 105.1 405.3 105.1C405.2 105.1 405.2 105 405.1 105L226 1.59995C226 1.59995 225.9 1.59995 225.9 1.49995C225.8 1.49995 225.8 1.39995 225.7 1.39995H225.6C225.5 1.39995 225.5 1.39995 225.4 1.29995C225.3 1.29995 225.3 1.29995 225.2 1.19995H225.1C225 1.19995 225 1.19995 224.9 1.19995C224.9 1.19995 224.9 1.19995 224.8 1.19995C224.7 1.19995 224.7 1.19995 224.6 1.19995H224.5C224.4 1.19995 224.4 1.19995 224.3 1.19995H224.2C224.2 1.19995 224.2 1.19995 224.1 1.19995C224.1 1.19995 224.1 0.699951 224 0.699951C223.9 0.699951 223.9 0.199951 223.8 0.199951V0.699951C223.7 0.699951 223.7 0.999951 223.6 0.999951V1.09995C223.5 1.09995 223.4 1.19995 223.3 1.29995L215.7 5.69995C215.8 5.59995 215.9 5.59995 216 5.59995C216.1 5.59995 216.2 5.59995 216.2 5.49995C216.3 5.49995 216.4 5.49995 216.5 5.49995C216.5 5.49995 216.5 5.49995 216.6 5.49995C216.7 5.49995 216.8 5.49995 216.9 5.49995C215.5 5.39995 214.6 6.39995 214.6 8.19995L214.3 132ZM217.7 5.59995C217.5 5.49995 217.2 5.49995 217 5.39995C217.1 5.39995 217.2 5.39995 217.3 5.39995C217.4 5.59995 217.6 5.59995 217.7 5.59995ZM400.2 112.2C400 111.9 399.8 111.6 399.6 111.4C399.8 111.6 400 111.9 400.2 112.2ZM400.2 112.2C400.4 112.5 400.5 112.8 400.6 113.1C400.5 112.8 400.3 112.5 400.2 112.2ZM400.6 113.1C400.7 113.3 400.7 113.4 400.8 113.6C400.8 113.4 400.7 113.3 400.6 113.1ZM400.3 241.8C400.7 241.4 400.9 240.7 400.9 239.8L401.3 115.9C401.3 115.3 401.2 114.7 401 114H401.1C401.2 114.3 401.4 114.6 401.4 114.9C401.4 115.2 401.4 115.5 401.4 115.8L401 239.8C401 240.1 401 240.4 400.9 240.6C400.8 240.8 400.8 241.1 400.7 241.3C400.5 241.5 400.4 241.6 400.3 241.8ZM398.3 109.9C398.5 110.1 398.8 110.3 399 110.6C398.7 110.3 398.5 110.1 398.3 109.9ZM397.5 109.4C397.8 109.5 398 109.7 398.3 109.9C398 109.7 397.7 109.5 397.5 109.4ZM217.7 5.59995C217.8 5.59995 217.9 5.69995 218.1 5.69995C218.2 5.79995 218.3 5.79995 218.5 5.89995C218.2 5.79995 217.9 5.69995 217.7 5.59995Z" fill="#FFF6EA"/>
<path d="M225.2 29.9998L224.9 122.9C224.9 126.1 226.6 129.1 229.4 130.7L385.7 221C387.7 222.2 390.2 220.7 390.2 218.4L390.5 125.5C390.5 122.3 388.8 119.3 386 117.7L229.7 27.3998C227.7 26.1998 225.2 27.6998 225.2 29.9998Z" fill="white" stroke="#171A21" stroke-width="2" stroke-miterlimit="10" stroke-linecap="round" stroke-linejoin="round"/>
<path d="M355.5 118L322.3 98.8999C319.6 97.3999 316.3 99.2999 316.3 102.4V106.7C316.3 111 318.6 115 322.3 117.1L355.5 136.2C358.2 137.7 361.5 135.8 361.5 132.8V128.7C361.6 124.2 359.3 120.2 355.5 118Z" fill="#FFD394"/>
<path d="M355.5 143.3L322.3 124.2C319.6 122.7 316.3 124.6 316.3 127.7V132C316.3 136.3 318.6 140.3 322.3 142.4L355.5 161.5C358.2 163 361.5 161.1 361.5 158.1V154C361.6 149.5 359.3 145.4 355.5 143.3Z" fill="#FFD394"/>
<path d="M355.5 168.5L322.3 149.4C319.6 147.9 316.3 149.8 316.3 152.9V157.2C316.3 161.5 318.6 165.5 322.3 167.6L355.5 186.7C358.2 188.2 361.5 186.3 361.5 183.3V179.2C361.6 174.7 359.3 170.7 355.5 168.5Z" fill="#FFD394"/>
<path d="M287.8 79.4999L252.4 59.3999C249.7 57.8999 246.4 59.7999 246.4 62.8999L246.3 117.5C246.3 121.8 248.6 125.8 252.4 127.9L287.9 148.1C290.6 149.6 293.9 147.7 293.9 144.6V89.9999C293.9 85.5999 291.5 81.6999 287.8 79.4999Z" fill="#FFD394"/>
<path d="M269.9 94.3001C267.1 92.7001 264.2 91.8001 262.1 91.9001C262 91.9001 261.8 91.9001 261.7 91.9001H261.6C261.5 91.9001 261.4 91.9001 261.3 92.0001H261.2L261 92.1001H260.9L260.7 92.2001H260.6L260.4 92.3001L260.3 92.4001L260.1 92.5001H260L259.8 92.6001L259.7 92.7001L259.5 92.9001L259.4 93.1001L259.3 93.3001C259.3 93.4001 259.2 93.5001 259.2 93.5001C259.2 93.6001 259.1 93.7001 259.1 93.8001C259.1 93.9001 259 94.0001 259 94.1001C259 94.2001 259 94.3001 258.9 94.4001C258.9 94.5001 258.9 94.6001 258.9 94.7001C258.9 94.8001 258.9 94.9001 258.9 95.1001V94.9001V96.1001C258.6 96.1001 258.2 96.1001 257.9 96.1001C251.2 96.7001 251.1 103.9 257.8 112.2C261.1 116.4 265.5 120 269.9 122.5C274.3 125 278.7 126.5 282.1 126.2C288.8 125.6 288.9 118.4 282.2 110.1C281.8 109.6 281.4 109.2 281.1 108.7V107.6C281.1 106.8 280.9 105.8 280.5 104.8C280.4 104.7 280.4 104.5 280.3 104.4C280.2 104.3 280.2 104.1 280.1 104V103.9L279.9 103.5V103.4L279.7 103L279.6 102.9L279.4 102.5L279.3 102.3L279.1 102L279 101.8L278.8 101.5L278.6 101.2L278.4 101C278.3 100.9 278.2 100.8 278.1 100.6L278 100.5C277.3 99.7001 276.6 98.9001 275.8 98.1001C274.9 97.2001 273.9 96.3001 272.8 95.6001C271.7 95.4001 270.8 94.8001 269.9 94.3001Z" fill="white"/>
<path d="M394.7 126.6C394.7 126.6 394.3 136.5 394.3 135.5C394.3 140.3 391 146.1 386.8 148.5C382.6 150.9 379.3 149 379.2 144.2V135.5L394.7 126.6Z" fill="#2F58FF"/>
<path d="M198.5 32.1001L394.1 110.6C395.2 111.1 396 112.2 396 113.4L395.9 124.4C395.9 125.5 395.3 126.4 394.4 127L379.5 135.6C378.6 136.1 377.4 136.1 376.5 135.6L198.5 32.1001Z" fill="#FFD394"/>
<path d="M379.2 136.2V144.9C379.2 149.7 375.8 151.6 371.6 149.2C369.2 147.8 367.1 145.3 365.7 142.5C365 141 363.2 140.4 361.7 141.1C360.3 141.8 358.5 141.6 356.5 140.5C354.1 139.1 352 136.6 350.6 133.8C349.9 132.3 348.1 131.7 346.6 132.4C345.2 133.1 343.4 132.9 341.4 131.8C339 130.4 336.9 127.9 335.5 125.1C334.8 123.6 333 123 331.5 123.7C330.1 124.4 328.3 124.2 326.3 123.1C323.9 121.7 321.8 119.2 320.4 116.4C319.7 114.9 317.9 114.3 316.4 115C315 115.7 313.2 115.5 311.2 114.4C308.8 113 306.7 110.5 305.3 107.7C304.6 106.2 302.8 105.6 301.3 106.3C299.9 107 298.1 106.8 296.1 105.7C293.7 104.3 291.6 101.8 290.2 99.0001C289.5 97.5001 287.7 96.9001 286.2 97.6001C284.8 98.3001 283 98.1001 281 97.0001C278.6 95.6001 276.5 93.1002 275.1 90.3002C274.4 88.8002 272.6 88.2001 271.1 88.9002C269.7 89.6002 267.9 89.4002 265.9 88.3002C263.5 86.9002 261.4 84.4001 260 81.6001C259.3 80.1001 257.5 79.5001 256 80.2001C254.6 80.9001 252.8 80.7001 250.8 79.6001C248.4 78.2001 246.3 75.7001 244.9 72.9002C244.2 71.4002 242.4 70.8001 240.9 71.5001C239.5 72.2001 237.7 72.0001 235.7 70.9002C233.3 69.5001 231.2 67.0001 229.8 64.2001C229.1 62.7001 227.3 62.1001 225.8 62.8001C224.4 63.5001 222.6 63.3001 220.6 62.2001C218.2 60.8001 216.1 58.3001 214.7 55.5001C214 54.0001 212.2 53.4001 210.7 54.1001C209.3 54.8001 207.5 54.6001 205.5 53.5001C201.3 51.1001 198 45.3001 198 40.5001C198 36.6001 202.2 34.3002 205.5 36.2002L379.2 136.2Z" fill="#2F58FF"/>
<path d="M212.2 12.6L202.3 26.7C200.3 29.6 201.2 33.6 204.2 35.4L374.4 133.4C377.1 135 380.6 134.2 382.4 131.6L392.5 116.7C394.5 113.8 393.5 109.9 390.5 108.1L220.1 10.9C217.4 9.30005 214 10.1 212.2 12.6Z" fill="white"/>
<path d="M392.4 116.7C394.4 113.8 393.4 109.9 390.4 108.1L220.1 10.9C217.4 9.39997 214 10.1 212.2 12.7L202.3 26.8C200.3 29.7 201.2 33.7 204.2 35.5" stroke="#171A21" stroke-width="2" stroke-miterlimit="10" stroke-linecap="round" stroke-linejoin="round"/>
<path d="M176.8 59.1001L271.8 114.1" stroke="#171A21" stroke-width="2" stroke-miterlimit="10" stroke-linecap="round" stroke-linejoin="round" stroke-dasharray="12 12"/>
<path d="M109.8 98.3L176.8 59.2" stroke="#171A21" stroke-width="2" stroke-miterlimit="10" stroke-linecap="round" stroke-linejoin="round" stroke-dasharray="12 12"/>
</g>
<defs>
<clipPath id="clip0">
<rect width="409.8" height="379.7" fill="white"/>
</clipPath>
</defs>
</svg>
