<svg width="410" height="380" viewBox="0 0 410 380" fill="none" xmlns="http://www.w3.org/2000/svg">
<path d="M35.8999 67.1C65.0999 50.2 112.4 50.2 141.4 67.1C170.4 84 170.3 111.3 141.1 128.2C111.9 145.1 64.5999 145.1 35.5999 128.2C6.49986 111.3 6.59987 84 35.8999 67.1Z" fill="#FFD394"/>
<path d="M40.3997 61.2C40.3997 61.4 40.3997 61.7 40.4997 61.9C40.4997 62.1 40.5997 62.3 40.5997 62.5C40.5997 62.7 40.6997 63 40.6997 63.2C40.6997 63.4 40.7997 63.5999 40.7997 63.7999C40.8997 63.9999 40.8997 64.3 40.9997 64.5C41.0997 64.7 41.0997 64.8999 41.1997 65.0999C41.2997 65.2999 41.2997 65.6 41.3997 65.8C41.4997 66 41.5997 66.2 41.5997 66.4C41.6997 66.6 41.7997 66.8999 41.8997 67.0999C41.9997 67.2999 42.0997 67.4999 42.1997 67.6999C42.2997 67.8999 42.3997 68.2 42.5997 68.4C42.6997 68.6 42.7997 68.8 42.8997 69C43.0997 69.3 43.1997 69.6 43.3997 69.9C43.4997 70.1 43.5997 70.2 43.6997 70.4C43.8997 70.7 44.0997 71 44.3997 71.3C44.4997 71.4 44.5997 71.5999 44.6997 71.6999C44.7997 71.7999 44.7997 71.8 44.8997 71.9C45.1997 72.2 45.3997 72.5 45.6997 72.8C45.7997 72.9 45.7997 73 45.8997 73C46.1997 73.4 46.5997 73.7 46.8997 74C46.9997 74.1 46.9997 74.0999 47.0997 74.1999C47.3997 74.4999 47.5997 74.7 47.8997 75C48.0997 75.2 48.3997 75.3999 48.5997 75.5999C48.7997 75.7999 48.9997 75.9999 49.2997 76.1999C49.4997 76.3999 49.7997 76.6 50.0997 76.8C50.2997 77 50.5997 77.2 50.7997 77.3C51.0997 77.5 51.2997 77.7 51.5997 77.9C51.8997 78.1 52.0997 78.2 52.3997 78.4C52.6997 78.6 52.9997 78.7999 53.2997 79C53.6997 79.2 53.9997 79.4999 54.3997 79.6999C55.0997 80.0999 55.8997 80.5 56.5997 80.9C56.7997 81 56.9997 81.0999 57.2997 81.1999C57.8997 81.4999 58.4997 81.7999 59.0997 82C59.2997 82.1 59.4997 82.2 59.6997 82.3C60.4997 82.6 61.2997 83 62.0997 83.3C62.1997 83.4 62.3997 83.4 62.4997 83.5C63.1997 83.7999 63.8997 83.9999 64.5997 84.1999C64.8997 84.2999 65.1997 84.4 65.4997 84.5C65.8997 84.6 66.2997 84.7 66.6997 84.9C66.9997 85 67.3997 85.0999 67.6997 85.1999C68.0997 85.2999 68.4997 85.4 68.8997 85.5C69.1997 85.6 69.5997 85.7 69.8997 85.8C70.2997 85.9 70.6997 85.9999 71.0997 86.0999C71.3997 86.1999 71.7997 86.3 72.0997 86.3C72.4997 86.4 72.8997 86.5 73.3997 86.5C73.6997 86.6 73.9997 86.5999 74.3997 86.6999C75.2997 86.8999 76.1997 86.9999 77.0997 87.0999C77.1997 87.0999 77.3997 87.0999 77.4997 87.0999C78.2997 87.1999 79.0997 87.3 79.8997 87.4C80.1997 87.4 80.4997 87.5 80.7997 87.5C81.2997 87.5 81.7997 87.5999 82.2997 87.5999C82.5997 87.5999 82.9997 87.5999 83.2997 87.6999C83.7997 87.6999 84.3997 87.8 84.8997 87.8C85.1997 87.8 85.4997 87.8 85.7997 87.8C86.2997 87.8 86.6997 87.8 87.1997 87.8C87.4997 87.8 87.8997 87.8 88.1997 87.8C88.6997 87.8 89.1997 87.8 89.6997 87.8C89.9997 87.8 90.2997 87.8 90.5997 87.8C91.0997 87.8 91.4997 87.7999 91.9997 87.6999C92.2997 87.6999 92.5997 87.6999 92.9997 87.6999C93.4997 87.6999 93.9997 87.5999 94.4997 87.5999C94.7997 87.5999 95.0997 87.6 95.2997 87.5C95.8997 87.5 96.4997 87.4 97.0997 87.3C97.2997 87.3 97.4997 87.2999 97.6997 87.1999C98.4997 87.0999 99.1997 87 99.9997 86.9C100.1 86.9 100.2 86.9 100.4 86.8C101.1 86.7 101.7 86.6 102.4 86.5C102.7 86.5 102.9 86.4 103.2 86.3C103.7 86.2 104.2 86.1 104.7 86C105 85.9 105.2 85.9 105.5 85.8C106 85.7 106.6 85.6 107.1 85.4C107.4 85.3 107.7 85.2999 108 85.1999C108.5 85.0999 109 84.9 109.5 84.8C109.8 84.7 110 84.5999 110.3 84.5999C111.1 84.3999 111.8 84.1 112.6 83.9C112.7 83.9 112.9 83.8 113 83.8C113.9 83.5 114.7 83.2 115.5 82.9C115.8 82.8 116.2 82.6 116.5 82.5C116.8 82.4 117 82.2999 117.3 82.1999C117.7 81.9999 118 81.8999 118.4 81.6999C118.6 81.5999 118.9 81.5 119.1 81.4C119.5 81.2 119.9 81 120.3 80.8C120.5 80.7 120.7 80.6 120.9 80.5C121.5 80.2 122.1 79.9 122.6 79.5C128.5 76.1 132.6 71.9999 134.8 67.6999C136.1 65.0999 136.8 62.4 136.8 59.7L136.9 90.5C136.9 97.7 132.2 104.8 122.7 110.3C122.1 110.6 121.6 110.9 121 111.3C120.8 111.4 120.6 111.5 120.4 111.6C120 111.8 119.6 112 119.2 112.2C119 112.3 118.7 112.4 118.5 112.5C118.1 112.7 117.8 112.8 117.4 113C117.1 113.1 116.9 113.2 116.6 113.3C116.3 113.4 116.1 113.5 115.8 113.6C115.7 113.6 115.6 113.7 115.6 113.7C114.8 114 113.9 114.3 113.1 114.6C113 114.6 112.8 114.7 112.7 114.7C112 114.9 111.2 115.2 110.4 115.4C110.3 115.4 110.2 115.5 110 115.5C109.9 115.5 109.7 115.6 109.6 115.6C109.1 115.7 108.6 115.9 108.1 116C107.8 116.1 107.5 116.2 107.2 116.2C106.7 116.3 106.1 116.4 105.6 116.6C105.4 116.6 105.2 116.7 105 116.7C104.9 116.7 104.9 116.7 104.8 116.7C104.3 116.8 103.8 116.9 103.3 117C103 117 102.8 117.1 102.5 117.1C101.8 117.2 101.2 117.3 100.5 117.4C100.4 117.4 100.3 117.4 100.2 117.5C99.3997 117.6 98.6997 117.7 97.8997 117.8C97.6997 117.8 97.5997 117.8 97.3997 117.8C96.7997 117.9 96.1997 117.9 95.5997 118C95.2997 118 95.0997 118 94.7997 118.1C94.2997 118.1 93.7997 118.2 93.2997 118.2C92.9997 118.2 92.6997 118.2 92.2997 118.2C91.7997 118.2 91.3997 118.2 90.8997 118.3H90.7997C90.4997 118.3 90.2997 118.3 89.9997 118.3C89.4997 118.3 88.9997 118.3 88.4997 118.3C88.1997 118.3 87.7997 118.3 87.4997 118.3C86.9997 118.3 86.5997 118.3 86.0997 118.3C85.9997 118.3 85.8997 118.3 85.7997 118.3C85.5997 118.3 85.3997 118.3 85.0997 118.3C84.5997 118.3 83.9997 118.3 83.4997 118.2C83.1997 118.2 82.8997 118.2 82.4997 118.1C81.9997 118.1 81.4997 118 80.9997 118C80.7997 118 80.5997 118 80.4997 118C80.3997 118 80.2997 118 80.0997 118C79.2997 117.9 78.4997 117.8 77.6997 117.7C77.5997 117.7 77.3997 117.7 77.2997 117.7C76.3997 117.6 75.4997 117.4 74.5997 117.3C74.4997 117.3 74.3997 117.3 74.2997 117.3C74.0997 117.3 73.7997 117.2 73.5997 117.2C73.1997 117.1 72.7997 117 72.2997 117C71.9997 116.9 71.5997 116.9 71.2997 116.8C70.8997 116.7 70.4997 116.6 70.0997 116.5C69.7997 116.4 69.3997 116.3 69.0997 116.2C68.6997 116.1 68.2997 116 67.8997 115.9C67.5997 115.8 67.1997 115.7 66.8997 115.6C66.4997 115.5 66.0997 115.4 65.6997 115.2C65.4997 115.1 65.3997 115.1 65.1997 115C65.0997 115 64.9997 114.9 64.7997 114.9C64.0997 114.7 63.3997 114.4 62.6997 114.2C62.5997 114.1 62.3997 114.1 62.2997 114C61.4997 113.7 60.6997 113.4 59.8997 113C59.6997 112.9 59.4997 112.8 59.2997 112.7C58.6997 112.4 58.0997 112.2 57.4997 111.9C57.2997 111.8 57.0997 111.7 56.7997 111.6C55.9997 111.2 55.2997 110.8 54.5997 110.4C54.3997 110.3 54.1997 110.2 53.9997 110.1C53.7997 110 53.6997 109.9 53.4997 109.8C53.1997 109.6 52.8997 109.4 52.5997 109.2C52.2997 109 52.0997 108.9 51.7997 108.7C51.4997 108.5 51.2997 108.3 50.9997 108.1C50.7997 107.9 50.4997 107.7 50.2997 107.6C49.9997 107.4 49.7997 107.2 49.4997 107C49.2997 106.8 49.0997 106.6 48.7997 106.4C48.5997 106.2 48.2997 106 48.0997 105.8C47.9997 105.7 47.8997 105.6 47.7997 105.6C47.5997 105.4 47.3997 105.3 47.2997 105.1C47.1997 105 47.1997 105 47.0997 104.9C46.7997 104.6 46.3997 104.2 46.0997 103.9C45.9997 103.8 45.9997 103.7 45.8997 103.7C45.5997 103.4 45.3997 103.1 45.0997 102.8C44.9997 102.7 44.9997 102.7 44.8997 102.6L44.7997 102.5C44.6997 102.4 44.5997 102.3 44.4997 102.2C44.2997 101.9 43.9997 101.6 43.7997 101.3C43.6997 101.1 43.5997 101 43.4997 100.8C43.2997 100.5 43.0997 100.2 42.9997 100C42.9997 99.9 42.8997 99.8 42.8997 99.8C42.7997 99.7 42.7997 99.6 42.6997 99.4C42.5997 99.2 42.3997 98.8999 42.2997 98.6999C42.1997 98.4999 42.0997 98.2999 41.9997 98.0999C41.8997 97.8999 41.7997 97.6 41.6997 97.4C41.6997 97.3 41.5997 97.1999 41.5997 97.0999C41.5997 97 41.4997 96.9 41.4997 96.8C41.3997 96.6 41.2997 96.2999 41.2997 96.0999C41.1997 95.8999 41.1997 95.7 41.0997 95.5C40.9997 95.2999 40.9997 95 40.8997 94.8C40.8997 94.7 40.7997 94.5 40.7997 94.4C40.7997 94.3 40.7997 94.1999 40.7997 94.0999C40.7997 93.8999 40.6997 93.6 40.6997 93.4C40.6997 93.2 40.5997 93 40.5997 92.8C40.5997 92.6 40.5997 92.2999 40.4997 92.0999C40.4997 92 40.4997 91.7999 40.4997 91.6999C40.4997 91.5999 40.4997 91.4 40.4997 91.3L40.3997 60.5C40.2997 60.6 40.2997 60.9 40.3997 61.2Z" fill="#FFD394"/>
<path d="M40.3997 79.7C40.3997 79.9 40.3997 80.2 40.4997 80.4C40.4997 80.6 40.5997 80.8 40.5997 81C40.5997 81.2 40.6997 81.5 40.6997 81.7C40.6997 81.9 40.7997 82.1 40.7997 82.3C40.8997 82.5 40.8997 82.8 40.9997 83C41.0997 83.2 41.0997 83.4 41.1997 83.6C41.2997 83.8 41.2997 84.1 41.3997 84.3C41.4997 84.5 41.5997 84.7 41.5997 84.9C41.6997 85.1 41.7997 85.4 41.8997 85.6C41.9997 85.8 42.0997 86 42.1997 86.2C42.2997 86.4 42.3997 86.7 42.5997 86.9C42.6997 87.1 42.7997 87.3 42.8997 87.5C43.0997 87.8 43.1997 88.1 43.3997 88.4C43.4997 88.6 43.5997 88.7 43.6997 88.9C43.8997 89.2 44.0997 89.5 44.3997 89.8C44.4997 89.9 44.5997 90.1 44.6997 90.2C44.7997 90.3 44.7997 90.3 44.8997 90.4C45.1997 90.7 45.3997 91 45.6997 91.3C45.7997 91.4 45.7997 91.5 45.8997 91.5C46.1997 91.9 46.5997 92.2 46.8997 92.5C46.9997 92.6 46.9997 92.6 47.0997 92.7C47.3997 93 47.5997 93.2 47.8997 93.5C48.0997 93.7 48.3997 93.9 48.5997 94.1C48.7997 94.3 48.9997 94.5 49.2997 94.7C49.4997 94.9 49.7997 95.1 50.0997 95.3C50.2997 95.5 50.5997 95.7 50.7997 95.8C51.0997 96 51.2997 96.2 51.5997 96.4C51.8997 96.6 52.0997 96.7 52.3997 96.9C52.6997 97.1 52.9997 97.3 53.2997 97.5C53.6997 97.7 53.9997 98 54.3997 98.2C55.0997 98.6 55.8997 99 56.5997 99.4C56.7997 99.5 56.9997 99.6 57.2997 99.7C57.8997 100 58.4997 100.3 59.0997 100.5C59.2997 100.6 59.4997 100.7 59.6997 100.8C60.4997 101.1 61.2997 101.5 62.0997 101.8C62.1997 101.9 62.3997 101.9 62.4997 102C63.1997 102.3 63.8997 102.5 64.5997 102.7C64.8997 102.8 65.1997 102.9 65.4997 103C65.8997 103.1 66.2997 103.2 66.6997 103.4C66.9997 103.5 67.3997 103.6 67.6997 103.7C68.0997 103.8 68.4997 103.9 68.8997 104C69.1997 104.1 69.5997 104.2 69.8997 104.3C70.2997 104.4 70.6997 104.5 71.0997 104.6C71.3997 104.7 71.7997 104.8 72.0997 104.8C72.4997 104.9 72.8997 105 73.3997 105C73.6997 105.1 73.9997 105.1 74.3997 105.2C75.2997 105.4 76.1997 105.5 77.0997 105.6C77.1997 105.6 77.3997 105.6 77.4997 105.6C78.2997 105.7 79.0997 105.8 79.8997 105.9C80.1997 105.9 80.4997 106 80.7997 106C81.2997 106 81.7997 106.1 82.2997 106.1C82.5997 106.1 82.9997 106.1 83.2997 106.2C83.7997 106.2 84.3997 106.3 84.8997 106.3C85.1997 106.3 85.4997 106.3 85.7997 106.3C86.2997 106.3 86.6997 106.3 87.1997 106.3C87.4997 106.3 87.8997 106.3 88.1997 106.3C88.6997 106.3 89.1997 106.3 89.6997 106.3C89.9997 106.3 90.2997 106.3 90.5997 106.3C91.0997 106.3 91.4997 106.3 91.9997 106.2C92.2997 106.2 92.5997 106.2 92.9997 106.2C93.4997 106.2 93.9997 106.1 94.4997 106.1C94.7997 106.1 95.0997 106.1 95.2997 106C95.8997 106 96.4997 105.9 97.0997 105.8C97.2997 105.8 97.4997 105.8 97.6997 105.7C98.4997 105.6 99.1997 105.5 99.9997 105.4C100.1 105.4 100.2 105.4 100.4 105.3C101.1 105.2 101.7 105.1 102.4 105C102.7 105 102.9 104.9 103.2 104.8C103.7 104.7 104.2 104.6 104.7 104.5C105 104.4 105.2 104.4 105.5 104.3C106 104.2 106.6 104.1 107.1 103.9C107.4 103.8 107.7 103.8 108 103.7C108.5 103.6 109 103.4 109.5 103.3C109.8 103.2 110 103.1 110.3 103.1C111.1 102.9 111.8 102.6 112.6 102.4C112.7 102.4 112.9 102.3 113 102.3C113.9 102 114.7 101.7 115.5 101.4C115.8 101.3 116.2 101.1 116.5 101C116.8 100.9 117 100.8 117.3 100.7C117.7 100.5 118 100.4 118.4 100.2C118.6 100.1 118.9 100 119.1 99.9C119.5 99.7 119.9 99.5 120.3 99.3C120.5 99.2 120.7 99.1 120.9 99C121.5 98.7 122.1 98.4 122.6 98C128.5 94.6 132.6 90.5 134.8 86.2C136.1 83.6 136.8 80.9 136.8 78.2L136.9 90.5C136.9 97.7 132.2 104.8 122.7 110.3C122.1 110.6 121.6 110.9 121 111.3C120.8 111.4 120.6 111.5 120.4 111.6C120 111.8 119.6 112 119.2 112.2C119 112.3 118.7 112.4 118.5 112.5C118.1 112.7 117.8 112.8 117.4 113C117.1 113.1 116.9 113.2 116.6 113.3C116.3 113.4 116.1 113.5 115.8 113.6C115.7 113.6 115.6 113.7 115.6 113.7C114.8 114 113.9 114.3 113.1 114.6C113 114.6 112.8 114.7 112.7 114.7C112 114.9 111.2 115.2 110.4 115.4C110.3 115.4 110.2 115.5 110 115.5C109.9 115.5 109.7 115.6 109.6 115.6C109.1 115.7 108.6 115.9 108.1 116C107.8 116.1 107.5 116.2 107.2 116.2C106.7 116.3 106.1 116.4 105.6 116.6C105.4 116.6 105.2 116.7 105 116.7C104.9 116.7 104.9 116.7 104.8 116.7C104.3 116.8 103.8 116.9 103.3 117C103 117 102.8 117.1 102.5 117.1C101.8 117.2 101.2 117.3 100.5 117.4C100.4 117.4 100.3 117.4 100.2 117.5C99.3997 117.6 98.6997 117.7 97.8997 117.8C97.6997 117.8 97.5997 117.8 97.3997 117.8C96.7997 117.9 96.1997 117.9 95.5997 118C95.2997 118 95.0997 118 94.7997 118.1C94.2997 118.1 93.7997 118.2 93.2997 118.2C92.9997 118.2 92.6997 118.2 92.2997 118.2C91.7997 118.2 91.3997 118.2 90.8997 118.3H90.7997C90.4997 118.3 90.2997 118.3 89.9997 118.3C89.4997 118.3 88.9997 118.3 88.4997 118.3C88.1997 118.3 87.7997 118.3 87.4997 118.3C86.9997 118.3 86.5997 118.3 86.0997 118.3C85.9997 118.3 85.8997 118.3 85.7997 118.3C85.5997 118.3 85.3997 118.3 85.0997 118.3C84.5997 118.3 83.9997 118.3 83.4997 118.2C83.1997 118.2 82.8997 118.2 82.4997 118.1C81.9997 118.1 81.4997 118 80.9997 118C80.7997 118 80.5997 118 80.4997 118C80.3997 118 80.2997 118 80.0997 118C79.2997 117.9 78.4997 117.8 77.6997 117.7C77.5997 117.7 77.3997 117.7 77.2997 117.7C76.3997 117.6 75.4997 117.4 74.5997 117.3C74.4997 117.3 74.3997 117.3 74.2997 117.3C74.0997 117.3 73.7997 117.2 73.5997 117.2C73.1997 117.1 72.7997 117 72.2997 117C71.9997 116.9 71.5997 116.9 71.2997 116.8C70.8997 116.7 70.4997 116.6 70.0997 116.5C69.7997 116.4 69.3997 116.3 69.0997 116.2C68.6997 116.1 68.2997 116 67.8997 115.9C67.5997 115.8 67.1997 115.7 66.8997 115.6C66.4997 115.5 66.0997 115.4 65.6997 115.2C65.4997 115.1 65.3997 115.1 65.1997 115C65.0997 115 64.9997 114.9 64.7997 114.9C64.0997 114.7 63.3997 114.4 62.6997 114.2C62.5997 114.1 62.3997 114.1 62.2997 114C61.4997 113.7 60.6997 113.4 59.8997 113C59.6997 112.9 59.4997 112.8 59.2997 112.7C58.6997 112.4 58.0997 112.2 57.4997 111.9C57.2997 111.8 57.0997 111.7 56.7997 111.6C55.9997 111.2 55.2997 110.8 54.5997 110.4C54.3997 110.3 54.1997 110.2 53.9997 110.1C53.7997 110 53.6997 109.9 53.4997 109.8C53.1997 109.6 52.8997 109.4 52.5997 109.2C52.2997 109 52.0997 108.9 51.7997 108.7C51.4997 108.5 51.2997 108.3 50.9997 108.1C50.7997 107.9 50.4997 107.7 50.2997 107.6C49.9997 107.4 49.7997 107.2 49.4997 107C49.2997 106.8 49.0997 106.6 48.7997 106.4C48.5997 106.2 48.2997 106 48.0997 105.8C47.9997 105.7 47.8997 105.6 47.7997 105.6C47.5997 105.4 47.3997 105.3 47.2997 105.1C47.1997 105 47.1997 105 47.0997 104.9C46.7997 104.6 46.3997 104.2 46.0997 103.9C45.9997 103.8 45.9997 103.7 45.8997 103.7C45.5997 103.4 45.3997 103.1 45.0997 102.8C44.9997 102.7 44.9997 102.7 44.8997 102.6L44.7997 102.5C44.6997 102.4 44.5997 102.3 44.4997 102.2C44.2997 101.9 43.9997 101.6 43.7997 101.3C43.6997 101.1 43.5997 101 43.4997 100.8C43.2997 100.5 43.0997 100.2 42.9997 100C42.9997 99.9 42.8997 99.8 42.8997 99.8C42.7997 99.7 42.7997 99.6 42.6997 99.4C42.5997 99.2 42.3997 98.9 42.2997 98.7C42.1997 98.5 42.0997 98.3 41.9997 98.1C41.8997 97.9 41.7997 97.6 41.6997 97.4C41.6997 97.3 41.5997 97.2 41.5997 97.1C41.5997 97 41.4997 96.9 41.4997 96.8C41.3997 96.6 41.2997 96.3 41.2997 96.1C41.1997 95.9 41.1997 95.7 41.0997 95.5C40.9997 95.3 40.9997 95 40.8997 94.8C40.8997 94.7 40.7997 94.5 40.7997 94.4C40.7997 94.3 40.7997 94.2 40.7997 94.1C40.7997 93.9 40.6997 93.6 40.6997 93.4C40.6997 93.2 40.5997 93 40.5997 92.8C40.5997 92.6 40.5997 92.3 40.4997 92.1C40.4997 92 40.4997 91.8 40.4997 91.7C40.4997 91.6 40.4997 91.4 40.4997 91.3L40.3997 79C40.2997 79.2 40.2997 79.5 40.3997 79.7Z" fill="#2F58FF"/>
<path d="M54.4996 40.5001C35.6996 51.4001 35.5996 69.0001 54.2996 79.9001C72.9996 90.8001 103.4 90.8001 122.2 79.9001C141 69.0001 141.1 51.4001 122.4 40.6001C103.7 29.7001 73.2996 29.7001 54.4996 40.5001Z" fill="white"/>
<path d="M40.3998 91.2L40.2998 60.4001C40.2998 60.6001 40.2998 60.8 40.3998 61C39.9998 53.6 44.7998 46.2 54.7998 40.1C73.5998 29.2 104 29.2 122.7 40.1C132.1 45.5 136.7 52.6001 136.7 59.7001V59.6L136.8 90.4001" stroke="#171A21" stroke-width="2" stroke-miterlimit="10" stroke-linecap="round" stroke-linejoin="round"/>
</svg>
