<svg width="410" height="380" viewBox="0 0 410 380" fill="none" xmlns="http://www.w3.org/2000/svg">
<path d="M79.2002 185.2L90.3002 265.4C90.5002 266.6 91.2002 267.7 92.3002 268.4L177.3 317.5C179.7 318.9 182.8 317.5 183.3 314.7L193.6 254.4C193.9 252.7 193.1 251.1 191.6 250.2L79.2002 185.2ZM180.2 258L173.7 297.6C173.2 300.4 170.1 301.9 167.7 300.5L164.9 298.9C163.6 298.1 162.8 296.7 162.9 295.1L165.8 253.5C166 250.5 169.3 248.8 171.9 250.3L178.3 254C179.7 254.7 180.5 256.3 180.2 258ZM156.1 243.7L153.2 285.3C153 288.3 149.7 290 147.1 288.5L143.5 286.4C142.2 285.7 141.5 284.3 141.5 282.9L141.6 239.7C141.6 236.6 145 234.6 147.7 236.2L154.1 239.9C155.4 240.6 156.2 242.1 156.1 243.7ZM131.6 226.9L131.5 272.5C131.5 275.6 128.1 277.6 125.4 276L122.1 274.1C120.9 273.4 120.2 272.2 120.1 270.8L117.5 226C117.3 222.8 120.8 220.6 123.6 222.3L131.6 226.9ZM107.1 214.9L109.7 259.7C109.9 262.9 106.4 265.1 103.6 263.4L101.8 262.3C100.7 261.7 100 260.6 99.8002 259.3L93.6002 212.4C93.2002 209.1 96.7002 206.7 99.6002 208.4L105 211.5C106.3 212.3 107 213.5 107.1 214.9Z" fill="#FFD394"/>
<path d="M90.0998 267.5L26.1998 303.8C23.4998 305.3 23.4998 309.3 26.1998 310.8L105.2 356.4C109.4 358.8 114.5 358.8 118.6 356.4L177.7 322.8C180.4 321.3 180.4 317.3 177.7 315.8L93.9998 267.5C92.8998 266.8 91.2998 266.7 90.0998 267.5Z" fill="#FFD394"/>
<path d="M91.2999 266.8L21.7999 306.3C20.9999 306.8 19.8999 306.3 19.7999 305.3L10.0999 234.7C9.99995 234.2 10.2999 233.6 10.6999 233.4L79.7999 191C80.6 190.5 81.7 191 81.7999 192L91.9999 265.4C92.0999 265.9 91.7999 266.5 91.2999 266.8Z" fill="#FFD394"/>
<path d="M182.8 319.9L116.8 357.4C114.8 358.5 112.4 356.8 112.8 354.6L122.3 299.2C122.4 298.4 122.9 297.7 123.6 297.3L189.5 260.4C191.5 259.3 193.9 261 193.5 263.2L184.1 318.1C184 318.8 183.5 319.5 182.8 319.9Z" fill="#FFD394"/>
<path d="M8.7002 225.1L19.8002 305.3C20.0002 306.5 20.7002 307.6 21.8002 308.3L106.8 357.4C109.2 358.8 112.3 357.4 112.8 354.6L123.1 294.3C123.4 292.6 122.6 291 121.1 290.1L8.7002 225.1ZM109.8 297.9L103.3 337.5C102.8 340.3 99.7002 341.8 97.3002 340.4L94.5002 338.8C93.2002 338 92.4002 336.6 92.5002 335L95.4002 293.4C95.6002 290.4 98.9002 288.7 101.5 290.2L107.9 293.9C109.2 294.6 110 296.2 109.8 297.9ZM85.6002 283.5L82.7002 325.1C82.5002 328.1 79.2002 329.8 76.6002 328.3L73.0002 326.2C71.7002 325.5 71.0002 324.1 71.0002 322.7L71.1002 279.5C71.1002 276.4 74.5002 274.4 77.2002 276L83.6002 279.7C84.9002 280.5 85.7002 282 85.6002 283.5ZM61.2002 266.8L61.0002 312.4C61.0002 315.5 57.6002 317.5 54.9002 315.9L51.6002 314C50.4002 313.3 49.7002 312.1 49.6002 310.7L47.0002 265.8C46.8002 262.6 50.3002 260.4 53.1002 262.1L61.2002 266.8ZM36.7002 254.8L39.3002 299.6C39.5002 302.8 36.0002 305 33.2002 303.3L31.4002 302.2C30.3002 301.6 29.6002 300.5 29.4002 299.2L23.2002 252.3C22.8002 249 26.3002 246.6 29.2002 248.3L34.6002 251.4C35.8002 252.2 36.6002 253.4 36.7002 254.8Z" fill="#FFF6EA"/>
<path d="M78.7 183.8L3 227.4C1.7 228.1 1 229.5 1 230.9V232C1 233.4 1.8 234.8 3 235.5L120.8 304C122.1 304.7 123.6 304.7 124.9 304L200.6 260.3C201.9 259.6 202.6 258.2 202.6 256.8V255.7C202.6 254.3 201.8 252.9 200.6 252.2L82.7 183.8C81.5 183 79.9 183 78.7 183.8ZM120.8 289.3L27.4 235C24.7 233.4 24.7 229.5 27.4 228L78.7 198.4C80 197.7 81.5 197.7 82.8 198.4L176.2 252.7C178.9 254.3 178.9 258.2 176.2 259.7L124.9 289.3C123.6 290.1 122 290.1 120.8 289.3Z" fill="#FFF6EA"/>
<path d="M82.7 183.8C81.4 183.1 79.9 183.1 78.6 183.8L3 227.4C1.7 228.1 1 229.5 1 230.9V232C1 233.4 1.8 234.8 3 235.5L120.8 304C122.1 304.7 123.6 304.7 124.9 304" stroke="#171A21" stroke-width="2" stroke-miterlimit="10" stroke-linecap="round" stroke-linejoin="round"/>
<path d="M69.7003 203.7L145.1 160.2C146.6 159.4 148.4 160.4 148.4 162.1L148.6 222.6C148.6 223.4 148.2 224.1 147.5 224.5L143.9 226.6C143.2 227 142.4 227 141.7 226.6L139.5 225.3C138.8 224.9 138.4 224.2 138.4 223.4L138.3 174.6C138.3 172.9 136.5 171.9 135 172.7L75.6003 207C74.9003 207.4 74.5003 208.1 74.5003 208.9L74.7003 265.3C74.7003 266.1 74.3003 266.8 73.6003 267.2L70.0003 269.3C69.3003 269.7 68.5003 269.7 67.8003 269.3L65.6003 268C64.9003 267.6 64.5003 266.9 64.5003 266.1L64.3003 205.6C64.3003 203.9 66.1003 202.8 67.6003 203.7C68.2003 204.1 69.0003 204.1 69.7003 203.7Z" fill="#2F58FF"/>
<path d="M147.2 155.5C146.5 155.1 145.6 155.1 144.9 155.5L65.4002 201.4C63.8002 202.3 63.8002 204.5 65.4002 205.4C66.1002 205.8 67.0002 205.8 67.7002 205.4L147.2 159.5C148.8 158.7 148.8 156.4 147.2 155.5Z" fill="white"/>
<path d="M147.8 159.9C149.2 158.8 148.8 156.4 147.2 155.5C146.5 155.1 145.6 155.1 144.9 155.5L65.4002 201.4C63.8002 202.3 63.8002 204.5 65.4002 205.4" stroke="#171A21" stroke-width="2" stroke-miterlimit="10" stroke-linecap="round" stroke-linejoin="round"/>
</svg>
