<?xml version="1.0" encoding="utf-8"?>
<!-- Generator: Adobe Illustrator 22.1.0, SVG Export Plug-In . SVG Version: 6.00 Build 0)  -->
<svg version="1.1" id="Слой_1" xmlns="http://www.w3.org/2000/svg" xmlns:xlink="http://www.w3.org/1999/xlink" x="0px" y="0px"
	 viewBox="0 0 481.6 316.6" style="enable-background:new 0 0 481.6 316.6;" xml:space="preserve">
<style type="text/css">
	.st0{fill:#98A2F4;}
	.st1{fill:#EAECFD;}
	.st2{fill:#FFFFFF;}
	.st3{fill:none;stroke:#171A21;stroke-width:2;stroke-linecap:round;stroke-linejoin:round;stroke-dasharray:12,12;}
	.st4{fill:none;stroke:#171A21;stroke-width:2;stroke-linecap:round;stroke-linejoin:round;stroke-miterlimit:10;}
</style>
<g id="_x32_">
	<path class="st0" d="M322.1,194.9l88.4-51c2.3-1.3,5.1,0.3,5.1,3l0.3,66.6c0,4.9-2.6,9.4-6.8,11.9l-86.7,50
		c-4.2,2.5-9.5,2.4-13.7,0l-86.1-50c-4.2-2.4-6.8-6.9-6.8-11.8l-0.3-66.6c0-2.6,2.9-4.3,5.1-3l87.7,51
		C312.6,197.4,317.8,197.4,322.1,194.9z"/>
	<path class="st1" d="M220.6,143.9l87.8,51c4.2,2.5,9.5,2.5,13.7,0l88.4-51c2.3-1.3,2.3-4.6,0-5.9l-87.8-51c-4.2-2.5-9.5-2.5-13.7,0
		l-88.4,51C218.3,139.3,218.3,142.6,220.6,143.9z"/>
	<path class="st2" d="M381.7,121.2l-100.4,58l-35.2-20.4l100.4-58L381.7,121.2z"/>
	<path class="st3" d="M381.6,121.3l-100.4,58L246,158.9l100.4-58"/>
	<path class="st4" d="M222.5,225.3c-4.2-2.4-6.8-6.9-6.8-11.8l-0.2-64.7c0-4.9,2.6-9.4,6.8-11.9l86.7-50c4.2-2.5,9.5-2.4,13.7,0
		l86.1,50c4.2,2.4,6.8,6.9,6.8,11.8l0.2,64.7c0,4.9-2.6,9.4-6.8,11.9"/>
</g>
</svg>
