<?xml version="1.0" encoding="utf-8"?>
<!-- Generator: Adobe Illustrator 22.1.0, SVG Export Plug-In . SVG Version: 6.00 Build 0)  -->
<svg version="1.1" id="Слой_1" xmlns="http://www.w3.org/2000/svg" xmlns:xlink="http://www.w3.org/1999/xlink" x="0px" y="0px"
	 viewBox="0 0 481.6 316.6" style="enable-background:new 0 0 481.6 316.6;" xml:space="preserve">
<style type="text/css">
	.st0{fill:#98A2F4;}
	.st1{fill:#EAECFD;}
	.st2{fill:#FFFFFF;}
	.st3{fill:none;stroke:#171A21;stroke-width:2;stroke-linecap:round;stroke-linejoin:round;stroke-dasharray:12,12;}
	.st4{fill:none;stroke:#171A21;stroke-width:2;stroke-linecap:round;stroke-linejoin:round;stroke-miterlimit:10;}
	.st5{fill:#2F58FF;}
</style>
<g id="_x31_">
	<path class="st0" d="M204.5,110.7l-88.4-51c-2.3-1.3-5.1,0.3-5.1,3l-0.3,90.7c0,4.9,2.6,9.4,6.8,11.9l86.7,50
		c4.2,2.5,9.5,2.4,13.7,0l86.1-50c4.2-2.4,6.8-6.9,6.8-11.8l0.3-90.7c0-2.6-2.9-4.3-5.1-3l-87.7,51
		C214,113.2,208.7,113.2,204.5,110.7z"/>
	<path class="st1" d="M306,59.7l-87.8,51c-4.2,2.5-9.5,2.5-13.7,0l-88.4-51c-2.3-1.3-2.3-4.6,0-5.9l87.8-51c4.2-2.5,9.5-2.5,13.7,0
		l88.4,51C308.3,55.1,308.3,58.4,306,59.7z"/>
	<path class="st2" d="M144.9,37l100.4,58l35.2-20.4L180,16.6L144.9,37z"/>
	<path class="st3" d="M145,37.3l100.4,58l35.2-20.4l-100.5-58"/>
	<path class="st4" d="M304,165.2c4.2-2.4,6.8-6.9,6.8-11.8l0.2-88.7c0-4.9-2.6-9.4-6.8-11.9l-86.7-50c-4.2-2.5-9.5-2.4-13.7,0
		l-86.1,50c-4.2,2.4-6.8,6.9-6.8,11.8l-0.2,88.7c0,4.9,2.6,9.4,6.8,11.9"/>
	<path class="st2" d="M140.1,95.8l33,19c5.3,3.1,9.6,10.5,9.5,16.5l-0.1,37.9c0,6.1-4.3,8.5-9.6,5.5l-33-19
		c-5.3-3.1-9.6-10.5-9.5-16.5l0.1-37.9C130.5,95.2,134.8,92.8,140.1,95.8z"/>
	<path class="st5" d="M169.8,130.1c-1-0.6-2.1-0.7-2.8-0.3l-14.2,8.1c-0.2,0.1-0.5,0.1-0.7-0.1c-0.3-0.1-0.5-0.4-0.7-0.8l-5.2-9
		c-0.8-1.4-1.8-2.4-2.8-3s-2.1-0.7-2.8-0.3c-1.6,0.9-1.6,3.8,0,6.5l8.8,15.2c0.8,1.3,1.8,2.4,2.8,3s2.1,0.7,2.8,0.3l17.8-10.1
		c0.8-0.4,1.2-1.4,1.2-2.6c0-1.2-0.4-2.6-1.2-3.9C171.9,131.7,170.8,130.7,169.8,130.1z"/>
</g>
</svg>
