<?xml version="1.0" encoding="utf-8"?>
<!-- Generator: Adobe Illustrator 22.1.0, SVG Export Plug-In . SVG Version: 6.00 Build 0)  -->
<svg version="1.1" id="Слой_1" xmlns="http://www.w3.org/2000/svg" xmlns:xlink="http://www.w3.org/1999/xlink" x="0px" y="0px"
	 viewBox="0 0 481.6 316.6" style="enable-background:new 0 0 481.6 316.6;" xml:space="preserve">
<style type="text/css">
	
		.st0{fill:none;stroke:#171A21;stroke-width:2;stroke-linecap:round;stroke-linejoin:round;stroke-miterlimit:10;stroke-dasharray:12,12;}
	.st1{fill:#98A2F4;}
	.st2{fill:#EAECFD;}
	.st3{fill:#FFFFFF;}
	.st4{fill:none;stroke:#171A21;stroke-width:2;stroke-linecap:round;stroke-linejoin:round;stroke-dasharray:12,12;}
	.st5{fill:none;stroke:#171A21;stroke-width:2;stroke-linecap:round;stroke-linejoin:round;stroke-miterlimit:10;}
	.st6{fill:#2F58FF;}
	.st7{fill:#FFFFFF;stroke:#171A21;stroke-width:2;stroke-linecap:round;stroke-linejoin:round;stroke-miterlimit:10;}
</style>
<path class="st0" d="M173.8,307.6l93.7-54.8"/>
<path class="st0" d="M57,244.9l105-61"/>
<path class="st1" d="M204.5,110.7l-88.4-51c-2.3-1.3-5.1,0.3-5.1,3l-0.3,90.7c0,4.9,2.6,9.4,6.8,11.9l86.7,50
	c4.2,2.5,9.5,2.4,13.7,0l86.1-50c4.2-2.4,6.8-6.9,6.8-11.8l0.3-90.7c0-2.6-2.9-4.3-5.1-3l-87.7,51
	C214,113.2,208.7,113.2,204.5,110.7z"/>
<path class="st2" d="M306,59.7l-87.8,51c-4.2,2.5-9.5,2.5-13.7,0l-88.4-51c-2.3-1.3-2.3-4.6,0-5.9l87.8-51c4.2-2.5,9.5-2.5,13.7,0
	l88.4,51C308.3,55.1,308.3,58.4,306,59.7z"/>
<path class="st3" d="M144.9,37l100.4,58l35.2-20.4L180,16.6L144.9,37z"/>
<path class="st4" d="M145,37.3l100.4,58l35.2-20.4l-100.5-58"/>
<path class="st5" d="M304,165.2c4.2-2.4,6.8-6.9,6.8-11.8l0.2-88.7c0-4.9-2.6-9.4-6.8-11.9l-86.7-50c-4.2-2.5-9.5-2.4-13.7,0
	l-86.1,50c-4.2,2.4-6.8,6.9-6.8,11.8l-0.2,88.7c0,4.9,2.6,9.4,6.8,11.9"/>
<path class="st1" d="M322.1,194.9l88.4-51c2.3-1.3,5.1,0.3,5.1,3l0.3,66.6c0,4.9-2.6,9.4-6.8,11.9l-86.7,50c-4.2,2.5-9.5,2.4-13.7,0
	l-86.1-50c-4.2-2.4-6.8-6.9-6.8-11.8l-0.3-66.6c0-2.6,2.9-4.3,5.1-3l87.7,51C312.6,197.4,317.8,197.4,322.1,194.9z"/>
<path class="st2" d="M220.6,143.9l87.8,51c4.2,2.5,9.5,2.5,13.7,0l88.4-51c2.3-1.3,2.3-4.6,0-5.9l-87.8-51c-4.2-2.5-9.5-2.5-13.7,0
	l-88.4,51C218.3,139.3,218.3,142.6,220.6,143.9z"/>
<path class="st3" d="M381.7,121.2l-100.4,58l-35.2-20.4l100.4-58L381.7,121.2z"/>
<path class="st4" d="M381.6,121.3l-100.4,58L246,158.9l100.4-58"/>
<path class="st5" d="M222.5,225.3c-4.2-2.4-6.8-6.9-6.8-11.8l-0.2-64.7c0-4.9,2.6-9.4,6.8-11.9l86.7-50c4.2-2.5,9.5-2.4,13.7,0
	l86.1,50c4.2,2.4,6.8,6.9,6.8,11.8l0.2,64.7c0,4.9-2.6,9.4-6.8,11.9"/>
<path class="st0" d="M447.5,294.8l-78.9-46.1"/>
<path class="st3" d="M198.6,287.2c0-0.1,0-0.1,0-0.2c0-0.5,0-0.9-0.1-1.4v-0.1c0-0.1,0-0.3,0-0.4c0-0.3,0-0.6-0.1-0.9
	c0-0.1,0-0.2,0-0.3c0-0.2,0-0.4-0.1-0.6c0-0.2,0-0.4-0.1-0.6c0-0.2-0.1-0.4-0.1-0.5c0-0.2-0.1-0.4-0.1-0.6c0-0.1,0-0.2,0-0.4
	c0-0.3-0.1-0.5-0.1-0.8c0-0.2-0.1-0.4-0.1-0.6c0-0.1,0-0.1,0-0.2c-0.1-0.4-0.2-0.9-0.3-1.3c0-0.1,0-0.1,0-0.2
	c-0.1-0.5-0.2-1.1-0.4-1.6v-0.1c0-0.2-0.1-0.4-0.1-0.5c-0.1-0.3-0.2-0.6-0.3-1c0-0.1,0-0.2-0.1-0.3c-0.1-0.2-0.1-0.4-0.2-0.7
	c-0.1-0.2-0.1-0.5-0.2-0.7c0-0.1-0.1-0.3-0.1-0.4c-0.1-0.2-0.1-0.4-0.2-0.7c-0.1-0.2-0.1-0.3-0.2-0.5c-0.1-0.2-0.1-0.4-0.2-0.6
	c-0.1-0.2-0.1-0.4-0.2-0.6c0-0.1-0.1-0.2-0.1-0.3c-0.1-0.3-0.2-0.6-0.4-0.9c-0.1-0.1-0.1-0.3-0.2-0.4v-0.1c-0.2-0.5-0.4-1-0.6-1.5
	v-0.1c-0.1-0.1-0.1-0.3-0.2-0.4c-0.1-0.3-0.3-0.7-0.4-1c0-0.1-0.1-0.2-0.1-0.3c-0.1-0.2-0.2-0.4-0.3-0.6c-0.1-0.2-0.2-0.4-0.3-0.6
	c-0.1-0.2-0.2-0.3-0.2-0.5c-0.1-0.2-0.2-0.5-0.3-0.7c-0.1-0.1-0.1-0.3-0.2-0.4c-0.1-0.2-0.2-0.4-0.3-0.6c-0.1-0.3-0.3-0.5-0.4-0.8
	c-0.1-0.1-0.1-0.2-0.2-0.3c-0.1-0.1-0.1-0.2-0.2-0.3c-0.4-0.7-0.7-1.4-1.1-2c-0.1-0.1-0.1-0.2-0.1-0.3c0,0,0-0.1-0.1-0.1
	c-0.3-0.6-0.7-1.1-1-1.7c0-0.1-0.1-0.1-0.1-0.2c-0.4-0.6-0.8-1.2-1.2-1.8c0,0,0-0.1-0.1-0.1c0-0.1-0.1-0.1-0.1-0.2
	c-0.5-0.7-1-1.5-1.6-2.2c-0.1-0.1-0.1-0.2-0.2-0.3c0-0.1-0.1-0.1-0.1-0.2c-0.3-0.4-0.6-0.7-0.8-1.1c-0.1-0.2-0.2-0.3-0.4-0.5
	l-0.1-0.1c-0.2-0.2-0.3-0.4-0.5-0.6c-0.2-0.2-0.4-0.5-0.6-0.7c0-0.1-0.1-0.1-0.1-0.2c-0.2-0.2-0.3-0.4-0.5-0.6
	c-0.2-0.2-0.4-0.4-0.5-0.6c-0.1-0.1-0.1-0.1-0.2-0.2c-0.2-0.2-0.3-0.4-0.5-0.6c-0.2-0.2-0.3-0.3-0.5-0.5c-0.1-0.1-0.2-0.2-0.3-0.3
	c-0.2-0.2-0.4-0.4-0.6-0.6c-0.1-0.1-0.3-0.3-0.4-0.4c-0.1-0.1-0.2-0.2-0.3-0.3c-0.2-0.2-0.4-0.4-0.6-0.6c-0.1-0.1-0.2-0.2-0.3-0.3
	s-0.3-0.2-0.4-0.4c-0.2-0.2-0.4-0.4-0.6-0.6c-0.1-0.1-0.2-0.2-0.3-0.3c-0.1-0.1-0.3-0.2-0.4-0.4c-0.2-0.2-0.4-0.4-0.6-0.6
	c-0.1-0.1-0.2-0.2-0.3-0.2c-0.2-0.1-0.3-0.3-0.5-0.4c-0.2-0.2-0.4-0.3-0.6-0.5c-0.1-0.1-0.2-0.1-0.2-0.2c-0.2-0.2-0.4-0.3-0.6-0.4
	s-0.4-0.3-0.6-0.4c-0.1,0-0.1-0.1-0.2-0.1c-0.3-0.2-0.5-0.4-0.8-0.5c-0.2-0.1-0.3-0.2-0.5-0.3c0,0-0.1,0-0.1-0.1
	c-0.4-0.3-0.9-0.6-1.3-0.9c-0.1,0-0.1-0.1-0.2-0.1c-0.3-0.2-0.7-0.4-1-0.6c-0.1-0.1-0.2-0.1-0.3-0.2c-0.3-0.2-0.6-0.4-1-0.5
	c-0.1-0.1-0.2-0.1-0.4-0.2c-0.2-0.1-0.3-0.2-0.5-0.3c-0.1-0.1-0.3-0.1-0.4-0.2c-0.2-0.1-0.4-0.2-0.6-0.3c-0.1-0.1-0.3-0.1-0.4-0.2
	c-0.1,0-0.1-0.1-0.2-0.1c-0.4-0.2-0.8-0.4-1.2-0.5c-0.4-0.2-0.8-0.3-1.2-0.5c-0.1,0-0.1,0-0.2-0.1c-0.1-0.1-0.3-0.1-0.4-0.1
	c-0.2-0.1-0.4-0.1-0.6-0.2c-0.1,0-0.2-0.1-0.3-0.1c-0.2-0.1-0.4-0.1-0.5-0.1c-0.1,0-0.3-0.1-0.4-0.1c-0.1,0-0.3-0.1-0.4-0.1
	c-0.2,0-0.4-0.1-0.5-0.1c-0.1,0-0.2,0-0.3-0.1c-0.2,0-0.3-0.1-0.5-0.1s-0.4-0.1-0.6-0.1c-0.1,0-0.1,0-0.2,0c-0.2,0-0.3,0-0.5-0.1
	c-0.2,0-0.4-0.1-0.7-0.1c-0.1,0-0.1,0-0.2,0c-0.2,0-0.3,0-0.4,0c-0.2,0-0.5,0-0.7,0c-0.1,0-0.1,0-0.2,0s-0.2,0-0.3,0
	c-0.3,0-0.6,0-1,0c-0.1,0-0.2,0-0.3,0c-0.1,0-0.3,0-0.4,0s-0.2,0-0.3,0c-0.4,0-0.7,0.1-1.1,0.2c-0.1,0-0.2,0-0.3,0.1
	c-0.3,0.1-0.6,0.1-0.8,0.2c-0.1,0-0.3,0.1-0.4,0.1c-0.2,0.1-0.3,0.1-0.5,0.2c0,0-0.1,0-0.1,0.1c-0.3,0.1-0.5,0.2-0.8,0.3
	c-0.1,0.1-0.3,0.1-0.4,0.2c-0.4,0.2-0.8,0.4-1.1,0.6l-11.3,6.6c0.4-0.2,0.8-0.4,1.1-0.6c0.1-0.1,0.3-0.1,0.4-0.2
	c0.3-0.1,0.5-0.2,0.8-0.3c0.2-0.1,0.4-0.2,0.7-0.2c0.1,0,0.3-0.1,0.4-0.1c0.3-0.1,0.6-0.1,0.8-0.2c0.1,0,0.2,0,0.3-0.1
	c0.4-0.1,0.7-0.1,1.1-0.2c0.1,0,0.2,0,0.3,0c0.2,0,0.5,0,0.7-0.1c0.3,0,0.6,0,1,0c0.2,0,0.4,0,0.5,0c0.2,0,0.5,0,0.7,0s0.4,0,0.6,0
	s0.4,0,0.7,0.1c0.2,0,0.5,0.1,0.7,0.1s0.4,0.1,0.6,0.1c0.3,0,0.5,0.1,0.8,0.1c0.2,0,0.4,0.1,0.5,0.1c0.3,0.1,0.6,0.1,0.8,0.2
	c0.2,0,0.4,0.1,0.5,0.1c0.3,0.1,0.6,0.2,0.9,0.3c0.1,0,0.3,0.1,0.4,0.1c0.9,0.3,1.8,0.7,2.8,1.1c0.1,0.1,0.3,0.1,0.4,0.2
	c0.3,0.2,0.7,0.3,1,0.5c0.2,0.1,0.3,0.2,0.5,0.3c0.4,0.2,0.9,0.5,1.3,0.7c0.4,0.3,0.9,0.5,1.3,0.8c0.1,0,0.1,0.1,0.2,0.1
	c0.5,0.3,0.9,0.6,1.4,0.9c0.2,0.1,0.3,0.2,0.5,0.3c0.3,0.2,0.6,0.5,1,0.7c0.2,0.1,0.4,0.3,0.6,0.4c0.3,0.2,0.6,0.4,0.8,0.6
	c0.2,0.2,0.4,0.3,0.6,0.5c0.3,0.2,0.5,0.4,0.8,0.6c0.2,0.2,0.4,0.4,0.6,0.6c0.2,0.2,0.5,0.4,0.7,0.7c0.2,0.2,0.4,0.4,0.6,0.6
	c0.2,0.2,0.5,0.5,0.7,0.7c0.2,0.2,0.4,0.4,0.6,0.6c0.2,0.2,0.5,0.5,0.7,0.7c0.2,0.2,0.4,0.4,0.6,0.6c0.2,0.3,0.5,0.5,0.7,0.8
	c0.2,0.2,0.3,0.4,0.5,0.6c0.2,0.3,0.5,0.6,0.7,0.8c0.2,0.2,0.3,0.4,0.5,0.6c0.2,0.3,0.5,0.6,0.7,0.9c0.2,0.2,0.3,0.4,0.5,0.6
	c0.2,0.2,0.3,0.4,0.4,0.6c0.3,0.4,0.6,0.7,0.8,1.1c0.1,0.1,0.2,0.3,0.3,0.5c0.5,0.7,1,1.5,1.6,2.2c0.1,0.1,0.1,0.2,0.2,0.3
	c0.4,0.6,0.8,1.2,1.2,1.8c0,0.1,0.1,0.1,0.1,0.2c0.3,0.6,0.7,1.1,1,1.7c0.1,0.1,0.1,0.3,0.2,0.4c0.4,0.7,0.8,1.4,1.1,2
	c0.1,0.2,0.2,0.4,0.4,0.7c0.1,0.3,0.3,0.5,0.4,0.8c0.2,0.3,0.3,0.6,0.5,1c0.1,0.2,0.2,0.5,0.3,0.7c0.2,0.4,0.3,0.7,0.5,1.1
	c0.1,0.2,0.2,0.4,0.3,0.6c0.2,0.4,0.4,0.9,0.6,1.3c0.1,0.1,0.1,0.3,0.2,0.4c0.2,0.6,0.5,1.1,0.7,1.7c0.1,0.1,0.1,0.3,0.2,0.4
	c0.2,0.4,0.3,0.8,0.5,1.3c0.1,0.2,0.1,0.4,0.2,0.6c0.1,0.4,0.3,0.7,0.4,1.1c0.1,0.2,0.1,0.4,0.2,0.7c0.1,0.4,0.2,0.7,0.3,1.1
	c0.1,0.2,0.1,0.4,0.2,0.7c0.1,0.4,0.2,0.8,0.3,1.2c0,0.2,0.1,0.3,0.1,0.5c0.1,0.6,0.3,1.2,0.4,1.7c0,0.1,0,0.1,0,0.2
	c0.1,0.5,0.2,1,0.3,1.5c0,0.2,0.1,0.4,0.1,0.6c0.1,0.4,0.1,0.8,0.2,1.2c0,0.2,0.1,0.4,0.1,0.6c0.1,0.4,0.1,0.7,0.1,1.1
	c0,0.2,0,0.4,0.1,0.6c0,0.4,0.1,0.8,0.1,1.3c0,0.1,0,0.3,0,0.4c0,0.6,0.1,1.1,0.1,1.7c0,0.4,0,0.9,0,1.3c0,0.6,0,1.1,0,1.7
	c0,0.2,0,0.3,0,0.5c0,0.4,0,0.7-0.1,1.1c0,0.2,0,0.4-0.1,0.6c0,0.3-0.1,0.6-0.1,0.9c0,0.2-0.1,0.4-0.1,0.7s-0.1,0.6-0.1,0.8
	s-0.1,0.5-0.1,0.7c-0.1,0.2-0.1,0.5-0.2,0.7c-0.1,0.3-0.1,0.6-0.2,0.8c-0.1,0.2-0.1,0.4-0.2,0.6c-0.1,0.3-0.2,0.6-0.3,1
	c-0.1,0.2-0.1,0.3-0.2,0.5c-0.2,0.5-0.4,1-0.6,1.5c-0.4,0.8-0.8,1.5-1.2,2.2c0,0.1-0.1,0.1-0.1,0.2c-0.2,0.3-0.3,0.5-0.5,0.7
	c-0.1,0.1-0.1,0.2-0.2,0.3c-0.2,0.2-0.3,0.4-0.5,0.6c-0.1,0.1-0.1,0.2-0.2,0.2c-0.2,0.3-0.5,0.5-0.8,0.8l-0.1,0.1
	c-0.2,0.2-0.5,0.4-0.7,0.6c-0.1,0.1-0.2,0.1-0.3,0.2c-0.2,0.2-0.4,0.3-0.6,0.5c-0.1,0.1-0.2,0.1-0.3,0.2c-0.3,0.2-0.6,0.4-0.9,0.6
	l11.3-6.6c0.3-0.2,0.6-0.4,0.9-0.6c0.1-0.1,0.2-0.1,0.3-0.2c0.2-0.2,0.4-0.3,0.6-0.5c0.1-0.1,0.2-0.1,0.3-0.2
	c0.2-0.2,0.5-0.4,0.7-0.6l0.1-0.1c0.3-0.3,0.5-0.5,0.8-0.8c0.1-0.1,0.1-0.2,0.2-0.2c0.2-0.2,0.4-0.4,0.5-0.6
	c0.1-0.1,0.1-0.2,0.2-0.3c0.2-0.2,0.4-0.5,0.5-0.7c0-0.1,0.1-0.1,0.1-0.2c0,0,0,0,0-0.1c0.4-0.6,0.8-1.3,1.1-2.1c0,0,0,0,0-0.1
	c0.2-0.5,0.4-1,0.6-1.5c0,0,0-0.1,0.1-0.1c0-0.1,0.1-0.3,0.1-0.4c0.1-0.3,0.2-0.6,0.3-1c0-0.1,0.1-0.2,0.1-0.3
	c0-0.1,0.1-0.3,0.1-0.4c0.1-0.3,0.1-0.5,0.2-0.8c0-0.1,0.1-0.2,0.1-0.3c0-0.1,0.1-0.3,0.1-0.4c0.1-0.2,0.1-0.5,0.1-0.7
	c0-0.1,0.1-0.2,0.1-0.4c0-0.1,0-0.3,0.1-0.4c0-0.2,0.1-0.4,0.1-0.7c0-0.1,0-0.2,0.1-0.3c0-0.2,0-0.4,0.1-0.6c0-0.2,0-0.4,0.1-0.6
	c0-0.1,0-0.2,0-0.3c0-0.3,0-0.6,0.1-0.9c0-0.2,0-0.3,0-0.5v-0.1c0-0.5,0-1,0-1.5v-0.1C198.6,288.1,198.6,287.6,198.6,287.2z"/>
<path class="st5" d="M181.2,312.3l-0.1,0.1c-0.2,0.2-0.5,0.4-0.7,0.6c-0.1,0.1-0.2,0.1-0.3,0.2c-0.2,0.2-0.4,0.3-0.6,0.5
	c-0.1,0.1-0.2,0.1-0.3,0.2c-0.3,0.2-0.6,0.4-0.9,0.6l11.3-6.6c0.3-0.2,0.6-0.4,0.9-0.6c0.1-0.1,0.2-0.1,0.3-0.2
	c0.2-0.2,0.4-0.3,0.6-0.5c0.1-0.1,0.2-0.1,0.3-0.2c0.2-0.2,0.5-0.4,0.7-0.6l0.1-0.1c0.3-0.3,0.5-0.5,0.8-0.8
	c0.1-0.1,0.1-0.2,0.2-0.2c0.2-0.2,0.4-0.4,0.5-0.6c0.1-0.1,0.1-0.2,0.2-0.3c0.2-0.2,0.4-0.5,0.5-0.7c0-0.1,0.1-0.1,0.1-0.2
	c0,0,0,0,0-0.1c0.4-0.6,0.8-1.3,1.1-2.1c0,0,0,0,0-0.1c0.2-0.5,0.4-1,0.6-1.5c0,0,0-0.1,0.1-0.1c0-0.1,0.1-0.3,0.1-0.4
	c0.1-0.3,0.2-0.6,0.3-1c0-0.1,0.1-0.2,0.1-0.3c0-0.1,0.1-0.3,0.1-0.4c0.1-0.3,0.1-0.5,0.2-0.8c0-0.1,0.1-0.2,0.1-0.3
	c0-0.1,0.1-0.3,0.1-0.4c0.1-0.2,0.1-0.5,0.1-0.7c0-0.1,0.1-0.2,0.1-0.4c0-0.1,0-0.3,0.1-0.4c0-0.2,0.1-0.4,0.1-0.7
	c0-0.1,0-0.2,0.1-0.3c0-0.2,0-0.4,0.1-0.6c0-0.2,0-0.4,0.1-0.6c0-0.1,0-0.2,0-0.3c0-0.3,0-0.6,0.1-0.9c0-0.2,0-0.3,0-0.5v-0.1
	c0-0.5,0-1,0-1.5v-0.1c0-0.4,0-0.8,0-1.3c0-0.1,0-0.1,0-0.2c0-0.5,0-0.9-0.1-1.4v-0.1c0-0.1,0-0.3,0-0.4c0-0.3,0-0.6-0.1-0.9
	c0-0.1,0-0.2,0-0.3c0-0.2,0-0.4-0.1-0.6c0-0.2,0-0.4-0.1-0.6c0-0.2-0.1-0.4-0.1-0.5c0-0.2-0.1-0.4-0.1-0.6c0-0.1,0-0.2,0-0.4
	c0-0.3-0.1-0.5-0.1-0.8c0-0.2-0.1-0.4-0.1-0.6c0-0.1,0-0.1,0-0.2c-0.1-0.4-0.2-0.9-0.3-1.3c0-0.1,0-0.1,0-0.2
	c-0.1-0.5-0.2-1.1-0.4-1.6v-0.1c0-0.2-0.1-0.4-0.1-0.5c-0.1-0.3-0.2-0.6-0.3-1c0-0.1,0-0.2-0.1-0.3c-0.1-0.2-0.1-0.4-0.2-0.7
	c-0.1-0.2-0.1-0.5-0.2-0.7c0-0.1-0.1-0.3-0.1-0.4c-0.1-0.2-0.1-0.4-0.2-0.7c-0.1-0.2-0.1-0.3-0.2-0.5c-0.1-0.2-0.1-0.4-0.2-0.6
	c-0.1-0.2-0.1-0.4-0.2-0.6c0-0.1-0.1-0.2-0.1-0.3c-0.1-0.3-0.2-0.6-0.4-0.9c-0.1-0.1-0.1-0.3-0.2-0.4v-0.1c-0.2-0.5-0.4-1-0.6-1.5
	v-0.1c-0.1-0.1-0.1-0.3-0.2-0.4c-0.1-0.3-0.3-0.7-0.4-1c0-0.1-0.1-0.2-0.1-0.3c-0.1-0.2-0.2-0.4-0.3-0.6c-0.1-0.2-0.2-0.4-0.3-0.6
	c-0.1-0.2-0.2-0.3-0.2-0.5c-0.1-0.2-0.2-0.5-0.3-0.7c-0.1-0.1-0.1-0.3-0.2-0.4c-0.1-0.2-0.2-0.4-0.3-0.6c-0.1-0.3-0.3-0.5-0.4-0.8
	c-0.1-0.1-0.1-0.2-0.2-0.3c-0.1-0.1-0.1-0.2-0.2-0.3c-0.4-0.7-0.7-1.4-1.1-2c-0.1-0.1-0.1-0.2-0.1-0.3c0,0,0-0.1-0.1-0.1
	c-0.3-0.6-0.7-1.1-1-1.7c0-0.1-0.1-0.1-0.1-0.2c-0.4-0.6-0.8-1.2-1.2-1.8c0,0,0-0.1-0.1-0.1c0-0.1-0.1-0.1-0.1-0.2
	c-0.5-0.7-1-1.5-1.6-2.2c-0.1-0.1-0.1-0.2-0.2-0.3c0-0.1-0.1-0.1-0.1-0.2c-0.3-0.4-0.6-0.7-0.8-1.1c-0.1-0.2-0.2-0.3-0.4-0.5
	l-0.1-0.1c-0.2-0.2-0.3-0.4-0.5-0.6c-0.2-0.2-0.4-0.5-0.6-0.7c0-0.1-0.1-0.1-0.1-0.2c-0.2-0.2-0.3-0.4-0.5-0.6
	c-0.2-0.2-0.4-0.4-0.5-0.6c-0.1-0.1-0.1-0.1-0.2-0.2c-0.2-0.2-0.3-0.4-0.5-0.6c-0.2-0.2-0.3-0.3-0.5-0.5c-0.1-0.1-0.2-0.2-0.3-0.3
	c-0.2-0.2-0.4-0.4-0.6-0.6c-0.1-0.1-0.3-0.3-0.4-0.4c-0.1-0.1-0.2-0.2-0.3-0.3c-0.2-0.2-0.4-0.4-0.6-0.6c-0.1-0.1-0.2-0.2-0.3-0.3
	c-0.1-0.1-0.3-0.2-0.4-0.4c-0.2-0.2-0.4-0.4-0.6-0.6c-0.1-0.1-0.2-0.2-0.3-0.3c-0.1-0.1-0.3-0.2-0.4-0.4c-0.2-0.2-0.4-0.4-0.6-0.6
	c-0.1-0.1-0.2-0.2-0.3-0.2c-0.2-0.1-0.3-0.3-0.5-0.4c-0.2-0.2-0.4-0.3-0.6-0.5c-0.1-0.1-0.2-0.1-0.2-0.2c-0.2-0.2-0.4-0.3-0.6-0.4
	c-0.2-0.1-0.4-0.3-0.6-0.4c-0.1,0-0.1-0.1-0.2-0.1c-0.3-0.2-0.5-0.4-0.8-0.5c-0.2-0.1-0.3-0.2-0.5-0.3c0,0-0.1,0-0.1-0.1
	c-0.4-0.3-0.9-0.6-1.3-0.9c-0.1,0-0.1-0.1-0.2-0.1c-0.3-0.2-0.7-0.4-1-0.6c-0.1-0.1-0.2-0.1-0.3-0.2c-0.3-0.2-0.6-0.4-1-0.5
	c-0.1-0.1-0.2-0.1-0.4-0.2c-0.2-0.1-0.3-0.2-0.5-0.3c-0.1-0.1-0.3-0.1-0.4-0.2c-0.2-0.1-0.4-0.2-0.6-0.3c-0.1-0.1-0.3-0.1-0.4-0.2
	c-0.1,0-0.1-0.1-0.2-0.1c-0.4-0.2-0.8-0.4-1.2-0.5c-0.4-0.2-0.8-0.3-1.2-0.5c-0.1,0-0.1,0-0.2-0.1c-0.1-0.1-0.3-0.1-0.4-0.1
	c-0.2-0.1-0.4-0.1-0.6-0.2c-0.1,0-0.2-0.1-0.3-0.1c-0.2-0.1-0.4-0.1-0.5-0.1c-0.1,0-0.3-0.1-0.4-0.1c-0.1,0-0.3-0.1-0.4-0.1
	c-0.2,0-0.4-0.1-0.5-0.1s-0.2,0-0.3-0.1c-0.2,0-0.3-0.1-0.5-0.1s-0.4-0.1-0.6-0.1c-0.1,0-0.1,0-0.2,0c-0.2,0-0.3,0-0.5-0.1
	c-0.2,0-0.4-0.1-0.7-0.1c-0.1,0-0.1,0-0.2,0c-0.2,0-0.3,0-0.4,0c-0.2,0-0.5,0-0.7,0c-0.1,0-0.1,0-0.2,0c-0.1,0-0.2,0-0.3,0
	c-0.3,0-0.6,0-1,0c-0.1,0-0.2,0-0.3,0c-0.1,0-0.3,0-0.4,0c-0.1,0-0.2,0-0.3,0c-0.4,0-0.7,0.1-1.1,0.2c-0.1,0-0.2,0-0.3,0.1
	c-0.3,0.1-0.6,0.1-0.8,0.2c-0.1,0-0.3,0.1-0.4,0.1c-0.2,0.1-0.3,0.1-0.5,0.2c0,0-0.1,0-0.1,0.1c-0.3,0.1-0.5,0.2-0.8,0.3
	c-0.1,0.1-0.3,0.1-0.4,0.2c-0.4,0.2-0.8,0.4-1.1,0.6l-11.3,6.6"/>
<path class="st1" d="M157.1,242.8c16.3,9.4,29.6,32,30.1,51c0,0.4,0,0.9,0,1.3c-0.1,19.2-13.6,27-30.4,17.3
	c-16.7-9.7-30.2-33-30.2-52.2c0-0.4,0-0.8,0-1.3C127.4,240.6,140.7,233.4,157.1,242.8z"/>
<path class="st2" d="M157,302.9c-0.5-0.3-0.9-1-0.9-1.6V298c0-0.6,0.4-0.8,0.9-0.5c0.5,0.3,0.9,1,0.9,1.6v3.3
	C157.9,303,157.5,303.2,157,302.9z M136.3,267.1c-0.5-0.3-0.9-1-0.9-1.6s0.4-0.8,0.9-0.5l2.8,1.6c0.5,0.3,0.9,1,0.9,1.6
	c0,0.6-0.4,0.8-0.9,0.5L136.3,267.1z M174.9,289.4c-0.5-0.3-0.9-1-0.9-1.6c0-0.6,0.4-0.8,0.9-0.5l2.8,1.6c0.5,0.3,0.9,1,0.9,1.6
	c0,0.6-0.4,0.8-0.9,0.5L174.9,289.4z M153.9,276.3l-1.7-2.7l-9.9-15.9c-0.8-1.2-0.8-2.6-0.1-3.1c0.4-0.3,0.9-0.2,1.4,0.1
	c0.4,0.2,0.9,0.7,1.2,1.2l9.7,15.6l1.5,2.5c0.3,0.1,0.7,0.2,1.1,0.4c0.3,0.2,0.6,0.4,0.8,0.6l1.5-0.9l4.3-2.5
	c0.4-0.2,0.8-0.1,1.3,0.1c0.5,0.3,0.9,0.7,1.3,1.3c0.7,1.2,0.7,2.6,0,3l-4.5,2.6l-1.6,0.9v0.1c0,2-1.4,2.8-3.1,1.8
	C155.4,280.6,154,278.3,153.9,276.3z M157.1,258.5c-0.5-0.3-0.9-1-0.9-1.6v-3.3c0-0.6,0.4-0.8,0.9-0.5c0.5,0.3,0.9,1,0.9,1.6v3.3
	C158,258.6,157.6,258.8,157.1,258.5z M157.1,249.8c-13.2-7.6-24-1.9-24.6,12.8v0.1c0,0.4,0,0.8,0,1.2c0,15.6,10.9,34.6,24.5,42.4
	c13.6,7.8,24.6,1.5,24.6-14c0-0.4,0-0.8,0-1.2V291C181.1,275.6,170.4,257.4,157.1,249.8z"/>
<path class="st6" d="M143.6,254.7c-0.5-0.3-1-0.3-1.4-0.1c-0.7,0.5-0.6,1.8,0.1,3.1l9.9,15.9l1.7,2.7v-0.1c0-0.4,0.1-0.8,0.2-1.1
	c0.3-0.8,1-1.2,1.9-1l-1.5-2.5l-9.7-15.6C144.4,255.4,144,255,143.6,254.7z"/>
<path class="st6" d="M165,271.8c-0.5-0.3-0.9-0.3-1.3-0.1l-4.3,2.5l-1.5,0.9c1,0.9,1.7,2.1,2.1,3.4c0.1,0.4,0.2,0.8,0.2,1.2l1.6-0.9
	l4.5-2.6c0.7-0.4,0.7-1.8,0-3C165.9,272.5,165.4,272.1,165,271.8z"/>
<path class="st7" d="M157.1,274.4c-0.4-0.2-0.7-0.3-1.1-0.4c-0.9-0.1-1.6,0.2-1.9,1c-0.1,0.3-0.2,0.7-0.2,1.1v0.1
	c0,2,1.4,4.3,3.1,5.3s3.1,0.2,3.1-1.8v-0.1c0-0.4-0.1-0.8-0.2-1.2c-0.3-1.3-1.1-2.5-2.1-3.4C157.6,274.8,157.4,274.6,157.1,274.4z"
	/>
<path class="st6" d="M157,297.5c-0.5-0.3-0.9-0.1-0.9,0.5v3.3c0,0.6,0.4,1.3,0.9,1.6s0.9,0.1,0.9-0.5v-3.3
	C157.9,298.5,157.5,297.8,157,297.5z M139.2,266.6l-2.8-1.6c-0.5-0.3-0.9-0.1-0.9,0.5s0.4,1.3,0.9,1.6l2.8,1.6
	c0.5,0.3,0.9,0.1,0.9-0.5C140.1,267.6,139.7,266.9,139.2,266.6z M177.8,288.9l-2.8-1.6c-0.5-0.3-0.9-0.1-0.9,0.5
	c0,0.6,0.4,1.3,0.9,1.6l2.8,1.6c0.5,0.3,0.9,0.1,0.9-0.5C178.7,289.9,178.3,289.2,177.8,288.9z M157.1,253.2
	c-0.5-0.3-0.9-0.1-0.9,0.5v3.3c0,0.6,0.4,1.3,0.9,1.6c0.5,0.3,0.9,0.1,0.9-0.5v-3.3C158.1,254.2,157.6,253.4,157.1,253.2z"/>
<path class="st6" d="M37,251.4c6.3,0,11.4-5.1,11.4-11.4v-63.4c0-1.2-1-2.2-2.2-2.2s-2.2,1-2.2,2.2V240c0,3.9-3.2,7-7,7
	c-3.9,0-7.1-3.2-7.1-7c0-1.2-1-2.2-2.2-2.2c-1.2,0-2.2,1-2.2,2.2C25.6,246.2,30.8,251.4,37,251.4z"/>
<path class="st1" d="M26.9,215.6l36.7,0.1l-18.2-43.8L26.9,215.6z"/>
<path class="st1" d="M1.1,179.3L1,200.5l44.4-28.6L1.1,179.3z"/>
<path class="st1" d="M63.8,164.6l-36.7-0.2l18.3,7.5L63.8,164.6z"/>
<path class="st1" d="M89.6,200.9l0.1-21.2l-44.3-7.8L89.6,200.9z"/>
<path class="st3" d="M26.9,215.6L1,200.5l44.4-28.6L26.9,215.6z"/>
<path class="st3" d="M1.1,179.3l26-14.9l18.3,7.5L1.1,179.3z"/>
<path class="st3" d="M89.6,200.9l-26,14.8l-18.2-43.8L89.6,200.9z"/>
<path class="st3" d="M63.8,164.6l25.9,15.1l-44.3-7.8L63.8,164.6z"/>
<path class="st5" d="M26.9,215.6L1,200.5"/>
<path class="st5" d="M1.1,179.3l26-14.9"/>
<path class="st5" d="M89.6,200.9l-26,14.8"/>
<path class="st5" d="M63.8,164.6l25.9,15.1"/>
<path class="st6" d="M44.2,173.6c0.3,0.2,0.7,0.3,1.2,0.3c1.3,0,2.3-1,2.3-2.3l0.1-7.4c0-1.3-1-2.3-2.3-2.3s-2.3,1-2.3,2.3l-0.1,7.3
	C43.1,172.5,43.5,173.2,44.2,173.6z"/>
<path class="st3" d="M434.5,281.2c-0.9-4,1.2-8.2,6.5-11.3c9-5.3,23.7-5.5,32.8-0.4c5.3,3,7.5,7.2,6.7,11.2l-1,7.1l-15.6,9.2
	l-13.8,0.9l-10.4-7.3l-4.6-5L434.5,281.2z"/>
<path class="st6" d="M434.3,279.8c0,0.1,0,0.2,0,0.3c0,0.1,0,0.2,0,0.3s0,0.2,0.1,0.3c0,0.1,0,0.2,0.1,0.3c0,0.1,0.1,0.2,0.1,0.3
	c0,0.1,0.1,0.2,0.1,0.3c0,0.1,0.1,0.2,0.1,0.3s0.1,0.2,0.1,0.3c0,0.1,0.1,0.2,0.2,0.3c0,0.1,0.1,0.2,0.1,0.3
	c0.1,0.1,0.1,0.2,0.2,0.3c0.1,0.1,0.1,0.2,0.2,0.4c0,0,0,0.1,0.1,0.1c0.1,0.2,0.2,0.3,0.3,0.5c0,0,0,0.1,0.1,0.1
	c0.1,0.2,0.3,0.3,0.4,0.5l0.1,0.1c0.1,0.1,0.2,0.3,0.4,0.4l0.1,0.1c0.2,0.2,0.3,0.3,0.5,0.5l0.1,0.1c0.1,0.1,0.3,0.2,0.4,0.4
	c0.1,0.1,0.2,0.2,0.3,0.3c0.1,0.1,0.2,0.2,0.3,0.3s0.2,0.2,0.4,0.3c0.1,0.1,0.2,0.2,0.3,0.3c0.1,0.1,0.3,0.2,0.4,0.3
	c0.1,0.1,0.2,0.2,0.4,0.2c0.1,0.1,0.3,0.2,0.4,0.3c0.2,0.1,0.4,0.2,0.5,0.3c0.3,0.2,0.7,0.4,1.1,0.6c0.1,0.1,0.2,0.1,0.3,0.2
	c0.3,0.1,0.6,0.3,0.9,0.4c0.1,0,0.2,0.1,0.3,0.1c0.4,0.2,0.8,0.3,1.2,0.5c0.1,0,0.1,0,0.2,0.1c0.3,0.1,0.7,0.2,1,0.3
	c0.1,0,0.3,0.1,0.4,0.1c0.2,0.1,0.4,0.1,0.6,0.2c0.2,0,0.3,0.1,0.5,0.1c0.2,0.1,0.4,0.1,0.6,0.1c0.2,0,0.3,0.1,0.5,0.1
	c0.2,0,0.4,0.1,0.6,0.1c0.2,0,0.3,0.1,0.5,0.1c0.2,0,0.4,0.1,0.6,0.1c0.2,0,0.3,0.1,0.5,0.1c0.4,0.1,0.9,0.1,1.3,0.2
	c0.1,0,0.1,0,0.2,0c0.4,0,0.8,0.1,1.2,0.1c0.1,0,0.3,0,0.4,0c0.2,0,0.5,0,0.7,0.1c0.2,0,0.3,0,0.5,0c0.3,0,0.5,0,0.8,0
	c0.1,0,0.3,0,0.4,0c0.2,0,0.5,0,0.7,0s0.3,0,0.5,0s0.5,0,0.7,0c0.1,0,0.3,0,0.4,0c0.2,0,0.4,0,0.7,0c0.2,0,0.3,0,0.5,0
	c0.2,0,0.5,0,0.7-0.1c0.1,0,0.3,0,0.4,0c0.3,0,0.6-0.1,0.9-0.1c0.1,0,0.2,0,0.3,0c0.4,0,0.7-0.1,1.1-0.2c0.1,0,0.1,0,0.2,0
	c0.3,0,0.6-0.1,0.9-0.2c0.1,0,0.3-0.1,0.4-0.1c0.2,0,0.5-0.1,0.7-0.1c0.1,0,0.2-0.1,0.4-0.1c0.3-0.1,0.5-0.1,0.8-0.2
	c0.1,0,0.3-0.1,0.4-0.1c0.2-0.1,0.5-0.1,0.7-0.2c0.1,0,0.3-0.1,0.4-0.1c0.4-0.1,0.7-0.2,1.1-0.4c0.1,0,0.1,0,0.2-0.1
	c0.4-0.1,0.8-0.3,1.2-0.5c0.2-0.1,0.3-0.1,0.5-0.2c0.1-0.1,0.3-0.1,0.4-0.2c0.2-0.1,0.4-0.2,0.5-0.2c0.1-0.1,0.2-0.1,0.3-0.2
	c0.2-0.1,0.4-0.2,0.6-0.3c0.1,0,0.2-0.1,0.3-0.1c0.3-0.2,0.6-0.3,0.8-0.5c4.5-2.7,6.8-6.2,6.7-9.6l0.2,13.7c0,3.5-2.2,6.9-6.7,9.6
	c-0.3,0.2-0.5,0.3-0.8,0.5c-0.1,0-0.2,0.1-0.3,0.1c-0.2,0.1-0.4,0.2-0.6,0.3c-0.1,0.1-0.2,0.1-0.3,0.2c-0.2,0.1-0.4,0.2-0.5,0.2
	c-0.1,0.1-0.3,0.1-0.4,0.2c-0.1,0.1-0.2,0.1-0.4,0.2h-0.1c-0.4,0.2-0.8,0.3-1.2,0.5c-0.1,0-0.1,0-0.2,0.1c-0.4,0.1-0.7,0.2-1.1,0.4
	c-0.1,0-0.1,0-0.2,0.1c-0.1,0-0.1,0-0.2,0.1c-0.2,0.1-0.5,0.1-0.7,0.2c-0.1,0-0.3,0.1-0.4,0.1c-0.3,0.1-0.5,0.1-0.8,0.2
	c-0.1,0-0.2,0-0.3,0.1h-0.1c-0.2,0.1-0.5,0.1-0.7,0.1c-0.1,0-0.3,0.1-0.4,0.1c-0.3,0.1-0.6,0.1-0.9,0.2c-0.1,0-0.1,0-0.2,0
	c-0.4,0.1-0.7,0.1-1.1,0.2c-0.1,0-0.2,0-0.3,0c-0.3,0-0.6,0.1-0.9,0.1c-0.1,0-0.3,0-0.4,0c-0.2,0-0.5,0-0.7,0.1c-0.2,0-0.3,0-0.5,0
	s-0.4,0-0.7,0c0,0,0,0-0.1,0c-0.1,0-0.2,0-0.4,0c-0.2,0-0.5,0-0.7,0c-0.2,0-0.3,0-0.5,0c-0.2,0-0.5,0-0.7,0h-0.1c-0.1,0-0.2,0-0.3,0
	c-0.3,0-0.5,0-0.8,0c-0.2,0-0.3,0-0.5,0c-0.2,0-0.5,0-0.7-0.1c-0.1,0-0.2,0-0.3,0c-0.1,0-0.1,0-0.2,0c-0.4,0-0.8-0.1-1.2-0.1
	c-0.1,0-0.1,0-0.2,0c-0.4-0.1-0.9-0.1-1.3-0.2h-0.1c-0.1,0-0.2,0-0.3-0.1c-0.2,0-0.4-0.1-0.6-0.1c-0.2,0-0.3-0.1-0.5-0.1
	c-0.2,0-0.4-0.1-0.6-0.1c-0.2,0-0.3-0.1-0.5-0.1c-0.2,0-0.4-0.1-0.6-0.1c-0.2,0-0.3-0.1-0.5-0.1c-0.2-0.1-0.4-0.1-0.6-0.2
	c-0.1,0-0.2,0-0.2-0.1c-0.1,0-0.1,0-0.2-0.1c-0.3-0.1-0.7-0.2-1-0.3c-0.1,0-0.1,0-0.2-0.1c-0.4-0.1-0.8-0.3-1.2-0.5
	c-0.1,0-0.2-0.1-0.3-0.1c-0.3-0.1-0.6-0.3-0.9-0.4c-0.1-0.1-0.2-0.1-0.3-0.2c-0.4-0.2-0.7-0.4-1.1-0.6c-0.1-0.1-0.2-0.1-0.3-0.2
	c-0.1-0.1-0.2-0.1-0.3-0.2s-0.3-0.2-0.4-0.3c-0.1-0.1-0.2-0.2-0.4-0.2c-0.1-0.1-0.3-0.2-0.4-0.3c-0.1-0.1-0.2-0.2-0.3-0.3
	c-0.1-0.1-0.2-0.2-0.4-0.3c-0.1-0.1-0.2-0.2-0.3-0.3c-0.1-0.1-0.2-0.2-0.3-0.3l-0.1-0.1c-0.1-0.1-0.2-0.2-0.3-0.2l-0.1-0.1
	c-0.2-0.2-0.3-0.3-0.5-0.5l-0.1-0.1c-0.1-0.1-0.3-0.3-0.4-0.4l-0.1-0.1c-0.1-0.2-0.2-0.3-0.4-0.5c0,0,0-0.1-0.1-0.1
	c-0.1-0.2-0.2-0.3-0.3-0.5c0,0,0-0.1-0.1-0.1c0-0.1-0.1-0.1-0.1-0.2c0-0.1-0.1-0.1-0.1-0.2c-0.1-0.1-0.1-0.2-0.2-0.3
	c0-0.1-0.1-0.2-0.1-0.3c-0.1-0.1-0.1-0.2-0.2-0.3c0-0.1,0-0.1-0.1-0.2v-0.1c0-0.1-0.1-0.2-0.1-0.3c0-0.1-0.1-0.2-0.1-0.3
	c0-0.1-0.1-0.2-0.1-0.3c0-0.1,0-0.1,0-0.2v-0.1c0-0.1,0-0.2-0.1-0.3c0-0.1,0-0.2,0-0.3c0-0.1,0-0.2,0-0.3c0-0.1,0-0.1,0-0.2
	c0-0.1,0-0.1,0-0.2l-0.2-13.7C434.3,279.6,434.3,279.7,434.3,279.8z"/>
<path class="st3" d="M434.5,264.4c-0.9-4,1.2-8.2,6.5-11.3c9-5.3,23.7-5.5,32.8-0.4c5.3,3,7.5,7.2,6.7,11.2l-1,7.1l-15.6,9.2
	l-13.8,0.9l-10.4-7.3l-4.6-5L434.5,264.4z"/>
<path class="st6" d="M434.3,263.1c0,0.1,0,0.2,0,0.3s0,0.2,0,0.3c0,0.1,0,0.2,0.1,0.3c0,0.1,0,0.2,0.1,0.3c0,0.1,0.1,0.2,0.1,0.3
	c0,0.1,0.1,0.2,0.1,0.3s0.1,0.2,0.1,0.3c0,0.1,0.1,0.2,0.1,0.3s0.1,0.2,0.2,0.3c0,0.1,0.1,0.2,0.1,0.3c0.1,0.1,0.1,0.2,0.2,0.3
	s0.1,0.2,0.2,0.4c0,0,0,0.1,0.1,0.1c0.1,0.2,0.2,0.3,0.3,0.5c0,0,0,0.1,0.1,0.1c0.1,0.2,0.3,0.3,0.4,0.5l0.1,0.1
	c0.1,0.1,0.2,0.3,0.4,0.4l0.1,0.1c0.2,0.2,0.3,0.3,0.5,0.5l0.1,0.1c0.1,0.1,0.3,0.2,0.4,0.4c0.1,0.1,0.2,0.2,0.3,0.3
	s0.2,0.2,0.3,0.3c0.1,0.1,0.2,0.2,0.4,0.3c0.1,0.1,0.2,0.2,0.3,0.3c0.1,0.1,0.3,0.2,0.4,0.3c0.1,0.1,0.2,0.2,0.4,0.2
	c0.1,0.1,0.3,0.2,0.4,0.3c0.2,0.1,0.4,0.2,0.5,0.3c0.3,0.2,0.7,0.4,1.1,0.6c0.1,0.1,0.2,0.1,0.3,0.2c0.3,0.1,0.6,0.3,0.9,0.4
	c0.1,0,0.2,0.1,0.3,0.1c0.4,0.2,0.8,0.3,1.2,0.5c0.1,0,0.1,0,0.2,0.1c0.3,0.1,0.7,0.2,1,0.3c0.1,0,0.3,0.1,0.4,0.1
	c0.2,0.1,0.4,0.1,0.6,0.2c0.2,0,0.3,0.1,0.5,0.1c0.2,0.1,0.4,0.1,0.6,0.1c0.2,0,0.3,0.1,0.5,0.1c0.2,0,0.4,0.1,0.6,0.1
	c0.2,0,0.3,0.1,0.5,0.1c0.2,0,0.4,0.1,0.6,0.1s0.3,0.1,0.5,0.1c0.4,0.1,0.9,0.1,1.3,0.2c0.1,0,0.1,0,0.2,0c0.4,0,0.8,0.1,1.2,0.1
	c0.1,0,0.3,0,0.4,0c0.2,0,0.5,0,0.7,0.1c0.2,0,0.3,0,0.5,0c0.3,0,0.5,0,0.8,0c0.1,0,0.3,0,0.4,0c0.2,0,0.5,0,0.7,0
	c0.2,0,0.3,0,0.5,0c0.2,0,0.5,0,0.7,0c0.1,0,0.3,0,0.4,0c0.2,0,0.4,0,0.7,0c0.2,0,0.3,0,0.5,0s0.5,0,0.7-0.1c0.1,0,0.3,0,0.4,0
	c0.3,0,0.6-0.1,0.9-0.1c0.1,0,0.2,0,0.3,0c0.4,0,0.7-0.1,1.1-0.2c0.1,0,0.1,0,0.2,0c0.3,0,0.6-0.1,0.9-0.2c0.1,0,0.3-0.1,0.4-0.1
	c0.2,0,0.5-0.1,0.7-0.1c0.1,0,0.2-0.1,0.4-0.1c0.3-0.1,0.5-0.1,0.8-0.2c0.1,0,0.3-0.1,0.4-0.1c0.2-0.1,0.5-0.1,0.7-0.2
	c0.1,0,0.3-0.1,0.4-0.1c0.4-0.1,0.7-0.2,1.1-0.4c0.1,0,0.1,0,0.2-0.1c0.4-0.1,0.8-0.3,1.2-0.5c0.2-0.1,0.3-0.1,0.5-0.2
	c0.1-0.1,0.3-0.1,0.4-0.2c0.2-0.1,0.4-0.2,0.5-0.2c0.1-0.1,0.2-0.1,0.3-0.2c0.2-0.1,0.4-0.2,0.6-0.3c0.1,0,0.2-0.1,0.3-0.1
	c0.3-0.2,0.6-0.3,0.8-0.5c4.5-2.7,6.8-6.2,6.7-9.6l0.2,13.7c0,3.5-2.2,6.9-6.7,9.6c-0.3,0.2-0.5,0.3-0.8,0.5c-0.1,0-0.2,0.1-0.3,0.1
	c-0.2,0.1-0.4,0.2-0.6,0.3c-0.1,0.1-0.2,0.1-0.3,0.2c-0.2,0.1-0.4,0.2-0.5,0.2c-0.1,0.1-0.3,0.1-0.4,0.2c-0.1,0.1-0.2,0.1-0.4,0.2
	h-0.1c-0.4,0.2-0.8,0.3-1.2,0.5c-0.1,0-0.1,0-0.2,0.1c-0.4,0.1-0.7,0.2-1.1,0.4c-0.1,0-0.1,0-0.2,0.1c-0.1,0-0.1,0-0.2,0.1
	c-0.2,0.1-0.5,0.1-0.7,0.2c-0.1,0-0.3,0.1-0.4,0.1c-0.3,0.1-0.5,0.1-0.8,0.2c-0.1,0-0.2,0-0.3,0.1h-0.1c-0.2,0.1-0.5,0.1-0.7,0.1
	c-0.1,0-0.3,0.1-0.4,0.1c-0.3,0.1-0.6,0.1-0.9,0.2c-0.1,0-0.1,0-0.2,0c-0.4,0.1-0.7,0.1-1.1,0.2c-0.1,0-0.2,0-0.3,0
	c-0.3,0-0.6,0.1-0.9,0.1c-0.1,0-0.3,0-0.4,0c-0.2,0-0.5,0-0.7,0.1c-0.2,0-0.3,0-0.5,0c-0.2,0-0.4,0-0.7,0c0,0,0,0-0.1,0
	s-0.2,0-0.4,0s-0.5,0-0.7,0c-0.2,0-0.3,0-0.5,0c-0.2,0-0.5,0-0.7,0h-0.1c-0.1,0-0.2,0-0.3,0c-0.3,0-0.5,0-0.8,0c-0.2,0-0.3,0-0.5,0
	c-0.2,0-0.5,0-0.7-0.1c-0.1,0-0.2,0-0.3,0s-0.1,0-0.2,0c-0.4,0-0.8-0.1-1.2-0.1c-0.1,0-0.1,0-0.2,0c-0.4-0.1-0.9-0.1-1.3-0.2h-0.1
	c-0.1,0-0.2,0-0.3-0.1c-0.2,0-0.4-0.1-0.6-0.1s-0.3-0.1-0.5-0.1s-0.4-0.1-0.6-0.1c-0.2,0-0.3-0.1-0.5-0.1c-0.2,0-0.4-0.1-0.6-0.1
	c-0.2,0-0.3-0.1-0.5-0.1c-0.2-0.1-0.4-0.1-0.6-0.2c-0.1,0-0.2,0-0.2-0.1c-0.1,0-0.1,0-0.2-0.1c-0.3-0.1-0.7-0.2-1-0.3
	c-0.1,0-0.1,0-0.2-0.1c-0.4-0.1-0.8-0.3-1.2-0.5c-0.1,0-0.2-0.1-0.3-0.1c-0.3-0.1-0.6-0.3-0.9-0.4c-0.1-0.1-0.2-0.1-0.3-0.2
	c-0.4-0.2-0.7-0.4-1.1-0.6c-0.1-0.1-0.2-0.1-0.3-0.2s-0.2-0.1-0.3-0.2c-0.1-0.1-0.3-0.2-0.4-0.3c-0.1-0.1-0.2-0.2-0.4-0.2
	c-0.1-0.1-0.3-0.2-0.4-0.3s-0.2-0.2-0.3-0.3c-0.1-0.1-0.2-0.2-0.4-0.3c-0.1-0.1-0.2-0.2-0.3-0.3c-0.1-0.1-0.2-0.2-0.3-0.3l-0.1-0.1
	c-0.1-0.1-0.2-0.2-0.3-0.2l-0.1-0.1c-0.2-0.2-0.3-0.3-0.5-0.5l-0.1-0.1c-0.1-0.1-0.3-0.3-0.4-0.4l-0.1-0.1c-0.1-0.2-0.2-0.3-0.4-0.5
	c0,0,0-0.1-0.1-0.1c-0.1-0.2-0.2-0.3-0.3-0.5c0,0,0-0.1-0.1-0.1c0-0.1-0.1-0.1-0.1-0.2c0-0.1-0.1-0.1-0.1-0.2
	c-0.1-0.1-0.1-0.2-0.2-0.3c0-0.1-0.1-0.2-0.1-0.3c-0.1-0.1-0.1-0.2-0.2-0.3c0-0.1,0-0.1-0.1-0.2v-0.1c0-0.1-0.1-0.2-0.1-0.3
	c0-0.1-0.1-0.2-0.1-0.3c0-0.1-0.1-0.2-0.1-0.3c0-0.1,0-0.1,0-0.2v-0.1c0-0.1,0-0.2-0.1-0.3c0-0.1,0-0.2,0-0.3c0-0.1,0-0.2,0-0.3
	c0-0.1,0-0.1,0-0.2c0-0.1,0-0.1,0-0.2l-0.2-13.7C434.3,262.8,434.3,262.9,434.3,263.1z"/>
<path class="st5" d="M480.4,263.8c0.9-4-1.3-8.2-6.7-11.2c-9.1-5.1-23.8-5-32.8,0.4c-5.3,3.1-7.5,7.4-6.5,11.3"/>
<path class="st6" d="M467.5,251.1c0-0.4-0.1-0.7-0.1-1.1c-0.1-0.4-0.1-0.8-0.2-1.2c-0.1-0.3-0.1-0.6-0.2-0.9s-0.1-0.5-0.2-0.8
	c-0.1-0.4-0.2-0.7-0.3-1.1c-0.1-0.2-0.1-0.4-0.2-0.6c-0.1-0.4-0.3-0.8-0.4-1.2c-0.1-0.2-0.1-0.3-0.2-0.5c-0.2-0.6-0.4-1.1-0.7-1.7
	c0-0.1-0.1-0.1-0.1-0.2c-0.2-0.5-0.5-1-0.7-1.5c-0.1-0.2-0.2-0.3-0.2-0.5c-0.2-0.5-0.5-0.9-0.8-1.4c-0.1-0.1-0.1-0.2-0.2-0.3
	c-0.3-0.5-0.6-1.1-1-1.6c-0.1-0.2-0.2-0.3-0.3-0.4c-0.3-0.4-0.5-0.7-0.8-1.1c-0.1-0.2-0.3-0.4-0.4-0.6c-0.2-0.3-0.5-0.6-0.7-0.9
	c-0.2-0.2-0.4-0.5-0.6-0.7c-0.2-0.2-0.4-0.5-0.6-0.7c-0.3-0.4-0.7-0.7-1-1.1c-0.2-0.2-0.4-0.4-0.7-0.7c-0.2-0.2-0.3-0.3-0.5-0.5
	c-0.3-0.3-0.6-0.5-0.9-0.8c-0.2-0.1-0.4-0.3-0.5-0.4c-0.3-0.3-0.7-0.5-1-0.7c-0.2-0.1-0.3-0.2-0.5-0.3c-0.5-0.3-1-0.7-1.5-0.9
	c-0.5-0.3-1-0.5-1.4-0.7c-0.1-0.1-0.2-0.1-0.4-0.2c-0.5-0.2-0.9-0.4-1.3-0.5h-0.1c-0.4-0.1-0.8-0.2-1.1-0.3
	c-0.2-0.1-0.4-0.1-0.6-0.1c-0.3-0.1-0.6-0.1-0.8-0.1c-0.2,0-0.3,0-0.5,0c-0.3,0-0.7,0-1,0c-0.1,0-0.2,0-0.2,0
	c-0.4,0-0.8,0.1-1.2,0.1c-0.1,0-0.2,0-0.3,0.1c-0.3,0.1-0.6,0.1-0.9,0.2c-0.1,0-0.2,0.1-0.3,0.1c-0.4,0.1-0.7,0.3-1,0.5l12.7-7.4
	h0.1c0.3-0.1,0.5-0.3,0.8-0.4c0,0,0.1,0,0.2-0.1c0.1,0,0.2-0.1,0.3-0.1s0.3-0.1,0.4-0.1s0.3-0.1,0.5-0.1c0.1,0,0.2,0,0.3-0.1
	c0.1,0,0.1,0,0.1,0c0.3-0.1,0.6-0.1,0.9-0.1c0,0,0,0,0.1,0c0.1,0,0.2,0,0.2,0c0.2,0,0.5,0,0.7,0c0.1,0,0.2,0,0.3,0
	c0.2,0,0.3,0,0.5,0c0.1,0,0.3,0,0.4,0s0.3,0.1,0.4,0.1c0.2,0,0.4,0.1,0.6,0.1c0.1,0,0.2,0,0.3,0.1c0.3,0.1,0.5,0.2,0.8,0.2h0.1
	c0.3,0.1,0.6,0.2,1,0.4c0.1,0.1,0.3,0.1,0.4,0.2s0.2,0.1,0.4,0.2c0.5,0.2,0.9,0.5,1.4,0.7c0.5,0.3,1,0.6,1.5,0.9
	c0.2,0.1,0.3,0.2,0.5,0.3c0.3,0.2,0.7,0.5,1,0.7c0.2,0.1,0.4,0.3,0.5,0.4c0.3,0.3,0.6,0.5,0.9,0.8c0.2,0.2,0.4,0.3,0.5,0.5
	c0.1,0.1,0.2,0.2,0.3,0.3s0.2,0.2,0.3,0.4c0.4,0.4,0.7,0.7,1,1.1c0.1,0.1,0.2,0.2,0.3,0.4c0.1,0.1,0.2,0.2,0.3,0.3
	c0.2,0.2,0.4,0.5,0.6,0.7c0.1,0.2,0.3,0.3,0.4,0.5c0.1,0.1,0.2,0.3,0.3,0.4c0.1,0.2,0.3,0.4,0.4,0.6c0.1,0.1,0.2,0.3,0.3,0.4
	c0.2,0.2,0.3,0.5,0.5,0.7c0.1,0.1,0.2,0.3,0.3,0.4c0,0.1,0.1,0.1,0.1,0.2c0.3,0.4,0.5,0.9,0.8,1.3c0,0,0,0.1,0.1,0.1
	c0.1,0.1,0.1,0.2,0.2,0.3c0.2,0.3,0.4,0.6,0.5,0.9c0.1,0.1,0.2,0.3,0.2,0.5c0.1,0.2,0.2,0.3,0.2,0.5c0.1,0.1,0.1,0.3,0.2,0.4
	c0.2,0.4,0.3,0.7,0.5,1.1c0,0.1,0.1,0.1,0.1,0.2c0,0,0,0,0,0.1c0.2,0.5,0.4,0.9,0.6,1.4c0,0.1,0.1,0.2,0.1,0.3
	c0.1,0.2,0.1,0.3,0.2,0.5c0.1,0.2,0.2,0.5,0.2,0.7c0.1,0.2,0.1,0.4,0.2,0.5c0.1,0.2,0.1,0.4,0.2,0.6c0,0.1,0.1,0.3,0.1,0.4
	c0.1,0.2,0.1,0.5,0.2,0.7c0.1,0.3,0.1,0.5,0.2,0.8c0,0.1,0,0.2,0.1,0.3c0,0.2,0.1,0.4,0.1,0.6c0.1,0.4,0.2,0.8,0.2,1.2
	c0,0.1,0,0.2,0.1,0.3c0,0.3,0.1,0.5,0.1,0.8c0,0.2,0,0.4,0.1,0.6c0,0.6,0.1,1.2,0.1,1.7c0,4.9-1.7,8.4-4.5,10l-12.7,7.4
	c2.8-1.6,4.5-5.1,4.5-10c0-0.6,0-1.1-0.1-1.7C467.5,251.5,467.5,251.3,467.5,251.1z"/>
<path class="st3" d="M452.1,226.5c-8.6-5-15.6-1-15.6,8.9s6.9,21.9,15.5,26.9c8.6,5,15.6,1,15.6-8.9
	C467.7,243.5,460.7,231.5,452.1,226.5z"/>
<path class="st5" d="M444.8,224.4c-4.9,0.2-8.3,4.2-8.3,11c0,9.9,6.9,21.9,15.5,26.9c6.7,3.9,12.5,2.3,14.7-3.3"/>
<path class="st3" d="M140.1,95.8l33,19c5.3,3.1,9.6,10.5,9.5,16.5l-0.1,37.9c0,6.1-4.3,8.5-9.6,5.5l-33-19
	c-5.3-3.1-9.6-10.5-9.5-16.5l0.1-37.9C130.5,95.2,134.8,92.8,140.1,95.8z"/>
<path class="st6" d="M169.8,130.1c-1-0.6-2.1-0.7-2.8-0.3l-14.2,8.1c-0.2,0.1-0.5,0.1-0.7-0.1c-0.3-0.1-0.5-0.4-0.7-0.8l-5.2-9
	c-0.8-1.4-1.8-2.4-2.8-3s-2.1-0.7-2.8-0.3c-1.6,0.9-1.6,3.8,0,6.5l8.8,15.2c0.8,1.3,1.8,2.4,2.8,3s2.1,0.7,2.8,0.3l17.8-10.1
	c0.8-0.4,1.2-1.4,1.2-2.6c0-1.2-0.4-2.6-1.2-3.9C171.9,131.7,170.8,130.7,169.8,130.1z"/>
</svg>
