<?xml version="1.0" encoding="utf-8"?>
<!-- Generator: Adobe Illustrator 22.1.0, SVG Export Plug-In . SVG Version: 6.00 Build 0)  -->
<svg version="1.1" id="Слой_1" xmlns="http://www.w3.org/2000/svg" xmlns:xlink="http://www.w3.org/1999/xlink" x="0px" y="0px"
	 viewBox="0 0 549 529" style="enable-background:new 0 0 549 529;" xml:space="preserve">
<style type="text/css">
	.st0{fill:#FB7070;stroke:#171A21;stroke-width:2;}
	.st1{fill:#FFFFFF;}
	.st2{fill:#2F58FF;}
</style>
<g id="Слой_2_1_">
	<path class="st0" d="M461.8,98.1l52.6-68l-19.2-12.7l-52.5,67.9l0,0c-3,3.9-1.7,9.9,3.7,13.6S458.7,101.9,461.8,98.1z"/>
	<path class="st1" d="M499.1,31c-5.8-3.9-7.6-10.6-3.9-15c0.6-0.9,1.4-1.6,2.3-2.1l16.7-9.2l5.7,5.2l-2.3,15.3
		c-0.1,1.6-0.7,3.3-1.7,4.6C512.2,34.4,504.8,34.9,499.1,31z"/>
	<path class="st2" d="M513.6,5.2l3.3-4c1.1-1.5,3.4-1.6,5.3-0.3c1.6,1.1,2.3,3.1,1.2,4.6l-3.3,4c-1.1,1.5-3.4,1.6-5.3,0.3
		C513,8.7,512.5,6.7,513.6,5.2z"/>
</g>
</svg>
