<?xml version="1.0" encoding="utf-8"?>
<!-- Generator: Adobe Illustrator 22.1.0, SVG Export Plug-In . SVG Version: 6.00 Build 0)  -->
<svg version="1.1" id="Слой_1" xmlns="http://www.w3.org/2000/svg" xmlns:xlink="http://www.w3.org/1999/xlink" x="0px" y="0px"
	 viewBox="0 0 549 529" style="enable-background:new 0 0 549 529;" xml:space="preserve">
<style type="text/css">
	.st0{fill:#FB7070;stroke:#171A21;stroke-width:2;stroke-linecap:round;stroke-linejoin:round;stroke-miterlimit:10;}
	.st1{fill:#FFFFFF;}
</style>
<g id="Слой_4">
	<path class="st0" d="M514.9,130c-18.3-10.6-33.3-2.1-33.4,19s14.8,46.8,33.1,57.4c18.3,10.6,33.3,2.1,33.4-19
		C548.1,166.3,533.2,140.6,514.9,130z"/>
	<path class="st1" d="M519.1,169.1l-6.8-4c-0.8-0.5-1.8,0.1-1.8,1.1l-0.1,20.4c0,0.4,0.2,0.8,0.6,1.1l6.2,3.6
		c0.8,0.5,1.8-0.1,1.8-1.1L519.1,169.1z M514.9,146.6c-3.2-1.8-5.8-0.4-5.8,3.3s2.6,8.1,5.8,10c3.2,1.8,5.8,0.4,5.8-3.3
		C520.6,152.9,518,148.5,514.9,146.6z"/>
</g>
</svg>
