<?xml version="1.0" encoding="utf-8"?>
<!-- Generator: Adobe Illustrator 22.1.0, SVG Export Plug-In . SVG Version: 6.00 Build 0)  -->
<svg version="1.1" id="Слой_1" xmlns="http://www.w3.org/2000/svg" xmlns:xlink="http://www.w3.org/1999/xlink" x="0px" y="0px"
	 viewBox="0 0 549 529" style="enable-background:new 0 0 549 529;" xml:space="preserve">
<style type="text/css">
	.st0{fill:#2F58FF;}
	.st1{fill:#FFFFFF;}
</style>
<g id="Слой_7">
	<path class="st0" d="M129.4,148.6L77,178.8c-6.3,3.7-11.4,12.5-11.4,19.8l0.1,37.6c0,7.3,5.2,10.2,11.5,6.5l52.4-30.2
		c6.3-3.7,11.4-12.5,11.4-19.8l-0.1-37.6C140.9,147.9,135.8,145,129.4,148.6z"/>
	<path class="st1" d="M122.9,163.7c-0.9,0.5-1.6,1.8-1.6,2.8l0.1,30.1c0,1,0.7,1.5,1.6,0.9c0.9-0.5,1.6-1.8,1.6-2.8l-0.1-30.1
		C124.6,163.6,123.8,163.2,122.9,163.7z M116.4,167.5c-0.9,0.5-1.6,1.8-1.6,2.8l0.1,30.1c0,1,0.7,1.5,1.6,0.9
		c0.9-0.5,1.6-1.8,1.6-2.8l-0.1-30.1C118,167.4,117.3,166.9,116.4,167.5z M109.8,171.2c-0.9,0.5-1.6,1.8-1.6,2.8l0.1,30.1
		c0,1,0.7,1.5,1.6,0.9c0.9-0.5,1.6-1.8,1.6-2.8l-0.1-30.1C111.5,171.1,110.8,170.7,109.8,171.2z M103.3,175
		c-0.9,0.5-1.6,1.8-1.6,2.8l0.1,37.6c0,1,0.7,1.5,1.6,0.9c0.9-0.5,1.6-1.8,1.6-2.8l-0.1-37.6C104.9,174.9,104.2,174.5,103.3,175z
		 M96.8,178.8c-0.9,0.5-1.6,1.8-1.6,2.8l0.1,30.1c0,1,0.7,1.5,1.6,0.9c0.9-0.5,1.6-1.8,1.6-2.8l-0.1-30.1
		C98.4,178.7,97.7,178.3,96.8,178.8z M90.2,182.6c-0.9,0.5-1.6,1.8-1.6,2.8l0.1,30.1c0,1,0.7,1.5,1.6,0.9c0.9-0.5,1.6-1.8,1.6-2.8
		l-0.1-30.1C91.9,182.5,91.1,182,90.2,182.6z M83.7,186.3c-0.9,0.5-1.6,1.8-1.6,2.8l0.1,30.1c0,1,0.7,1.5,1.6,0.9
		c0.9-0.5,1.6-1.8,1.6-2.8l-0.1-30C85.3,186.2,84.6,185.8,83.7,186.3z M77.1,190.1c-0.9,0.5-1.6,1.8-1.6,2.8l0.1,37.6
		c0,1,0.7,1.5,1.6,0.9c0.9-0.5,1.6-1.8,1.6-2.8L78.7,191C78.8,190,78,189.6,77.1,190.1z M90.3,220.2c-0.2,0.1-0.4,0.3-0.6,0.5
		s-0.4,0.4-0.5,0.7l-0.1,0.1c-0.6,1.1-0.6,2.2,0.1,2.5c0.1,0.1,0.3,0.1,0.5,0.1s0.4-0.1,0.6-0.2c0.4-0.3,0.8-0.7,1.1-1.2
		c0.6-1.1,0.7-2.3,0-2.7C91.2,219.9,90.7,219.9,90.3,220.2z M83.8,224c-0.2,0.1-0.4,0.3-0.6,0.5c-0.4,0.4-0.7,1-0.9,1.5
		c-0.2,0.6-0.2,1.1,0,1.4c0.1,0.2,0.2,0.3,0.4,0.4c0.1,0.1,0.3,0.1,0.5,0.1s0.4-0.1,0.6-0.2c0.4-0.3,0.8-0.7,1.1-1.2
		c0.6-1.1,0.7-2.3,0-2.7C84.6,223.7,84.2,223.7,83.8,224z M96.9,216.4c-0.2,0.1-0.4,0.3-0.6,0.5s-0.4,0.4-0.5,0.7l-0.1,0.1
		c-0.6,1.1-0.6,2.2,0.1,2.5c0.1,0.1,0.3,0.1,0.5,0.1s0.4-0.1,0.6-0.2c0.4-0.2,0.8-0.7,1.1-1.2c0.2-0.3,0.3-0.5,0.4-0.8
		c0.2-0.6,0.2-1.1,0-1.4c-0.1-0.2-0.2-0.3-0.4-0.4C97.7,216.1,97.3,216.2,96.9,216.4z M123,201.3c-0.4,0.2-0.8,0.7-1.1,1.2
		c-0.2,0.3-0.3,0.5-0.4,0.8c-0.2,0.6-0.2,1.1,0,1.4c0.1,0.2,0.2,0.3,0.4,0.4c0.3,0.2,0.7,0.2,1.1-0.1s0.8-0.7,1.1-1.2
		c0.6-1.1,0.6-2.3,0-2.7C123.9,201,123.5,201.1,123,201.3z M116.5,205.1c-0.4,0.2-0.8,0.7-1.1,1.2c-0.3,0.5-0.5,1.1-0.5,1.6
		c0,1,0.7,1.5,1.6,1c0.4-0.3,0.8-0.7,1.1-1.2c0.6-1.1,0.7-2.3,0-2.7C117.3,204.8,116.9,204.8,116.5,205.1z M110,208.9
		c-0.4,0.2-0.8,0.7-1.1,1.2c-0.3,0.5-0.5,1.1-0.5,1.6c0,1,0.7,1.5,1.6,1c0.4-0.2,0.8-0.7,1.1-1.2c0.2-0.3,0.3-0.5,0.4-0.8
		c0.2-0.6,0.2-1.1,0-1.4c-0.1-0.2-0.2-0.3-0.4-0.4C110.8,208.6,110.4,208.6,110,208.9z M129.5,159.9c-0.9,0.5-1.6,1.8-1.6,2.8
		l0.1,37.6c0,1,0.7,1.5,1.6,0.9c0.9-0.5,1.6-1.8,1.6-2.8l-0.1-37.6C131.1,159.8,130.4,159.4,129.5,159.9z"/>
</g>
</svg>
