<?xml version="1.0" encoding="utf-8"?>
<!-- Generator: Adobe Illustrator 22.1.0, SVG Export Plug-In . SVG Version: 6.00 Build 0)  -->
<svg version="1.1" id="Слой_1" xmlns="http://www.w3.org/2000/svg" xmlns:xlink="http://www.w3.org/1999/xlink" x="0px" y="0px"
	 viewBox="0 0 549 529" style="enable-background:new 0 0 549 529;" xml:space="preserve">
<style type="text/css">
	.st0{fill:#FB7070;stroke:#171A21;stroke-width:2;stroke-linecap:round;stroke-linejoin:round;stroke-miterlimit:10;}
	.st1{fill:none;stroke:#171A21;stroke-width:2;stroke-linecap:round;stroke-linejoin:round;stroke-miterlimit:10;}
	.st2{fill:#FFFFFF;}
</style>
<g id="Слой_3">
	<path class="st0" d="M113,445.5c2,3.6,0.4,6.4-3.7,6.4l-59.8,0.2c-4.1,0-9.1-2.9-11.2-6.5l-36.4-63c-2-3.6-0.4-6.4,3.7-6.4
		l59.8-0.2c4.1,0,9.1,2.9,11.2,6.5L113,445.5z"/>
	<path class="st1" d="M113,445.5c2,3.6,0.4,6.4-3.7,6.4l-59.8,0.2c-4.1,0-9.1-2.9-11.2-6.5l-36.4-63c-2-3.6-0.4-6.4,3.7-6.4
		l59.8-0.2c4.1,0,9.1,2.9,11.2,6.5L113,445.5z"/>
	<path class="st2" d="M95.5,430l-24.8-42.9c-1.2-2-4-3.6-6.4-3.7l-49.2,0.2c-2.4,0-3.3,1.6-2.1,3.7l24.7,42.9c1.2,2,4,3.6,6.4,3.7
		l49.4-0.1C95.7,433.7,96.7,432,95.5,430z"/>
	<path class="st0" d="M131.8,412.9c2,3.6,0.4,6.4-3.7,6.4l-59.8,0.2c-4.1,0-9.1-2.9-11.2-6.5l-36.4-63c-2-3.6-0.4-6.4,3.7-6.5
		l59.8-0.2c4.1,0,9.1,2.9,11.2,6.5L131.8,412.9z"/>
	<path class="st1" d="M131.8,412.9c2,3.6,0.4,6.4-3.7,6.4l-59.8,0.2c-4.1,0-9.1-2.9-11.2-6.5l-36.4-63c-2-3.6-0.4-6.4,3.7-6.5
		l59.8-0.2c4.1,0,9.1,2.9,11.2,6.5L131.8,412.9z"/>
	<path class="st2" d="M114.3,397.3l-24.7-43c-1.2-2-4-3.6-6.3-3.7L34,350.9c-2.4,0-3.3,1.6-2.1,3.7l24.7,42.9c1.2,2,4,3.6,6.4,3.7
		l49.4-0.1C114.6,401,115.5,399.4,114.3,397.3z"/>
</g>
</svg>
