<?xml version="1.0" encoding="utf-8"?>
<!-- Generator: Adobe Illustrator 22.1.0, SVG Export Plug-In . SVG Version: 6.00 Build 0)  -->
<svg version="1.1" id="Слой_1" xmlns="http://www.w3.org/2000/svg" xmlns:xlink="http://www.w3.org/1999/xlink" x="0px" y="0px"
	 viewBox="0 0 549 529" style="enable-background:new 0 0 549 529;" xml:space="preserve">
<style type="text/css">
	.st0{fill:#2F58FF;}
	.st1{fill:#FFFFFF;}
	.st2{fill:#FB7070;}
	.st3{fill:none;stroke:#171A21;stroke-width:2;stroke-linecap:round;stroke-linejoin:round;stroke-miterlimit:10;}
</style>
<g id="Слой_8">
	<path class="st0" d="M371.8,69.2c-11.7-3.1-24.3-4.1-36.3-3.2c-12.1,0.9-24.1,3-35.7,6.7c-21.8,7-43.9,18.3-58.1,36.8
		c-7.8,10-13.1,23-9.6,35.7l21,79.4c-4-14.7,3.6-29.4,13.3-40.1c10-11,22.8-19.3,36.2-25.4c14.3-6.5,29.5-10.8,45-12.8
		c15.1-2,31-1.6,45.8,2.4c13.2,3.6,27,10.8,33.2,23.6c0.8,1.7,1.5,3.4,2,5.3l-21-79.4C403.4,84.2,390.1,74.1,371.8,69.2
		C370.7,68.9,390.1,74.1,371.8,69.2z"/>
	<path class="st1" d="M355.9,56.7c0.1,0.3,0.1,0.5,0.2,0.8c0,0.2,0.1,0.5,0.1,0.7c0,0.3,0.1,0.5,0.1,0.8c0,0.2,0,0.5,0,0.7
		c0,0.3,0,0.5,0,0.8c0,0.2,0,0.5,0,0.7c0,0.3,0,0.5,0,0.8c0,0.2,0,0.5-0.1,0.7c0,0.3-0.1,0.6-0.1,0.9c0,0.2-0.1,0.5-0.1,0.7
		c-0.1,0.3-0.1,0.6-0.2,0.9c-0.1,0.2-0.1,0.5-0.2,0.7c-0.1,0.4-0.2,0.7-0.3,1.1c-0.1,0.2-0.1,0.4-0.2,0.6c-0.1,0.4-0.3,0.8-0.5,1.2
		c-0.1,0.2-0.1,0.3-0.2,0.5c-0.3,0.6-0.6,1.3-0.9,1.9c-0.1,0.2-0.2,0.3-0.3,0.5c-0.3,0.5-0.5,1-0.9,1.5c-0.1,0.2-0.3,0.4-0.4,0.7
		c-0.2,0.3-0.4,0.6-0.6,0.8c-0.2,0.3-0.4,0.5-0.5,0.8c-0.2,0.3-0.4,0.6-0.6,0.8c-0.2,0.3-0.4,0.5-0.6,0.8s-0.5,0.6-0.7,0.8
		c-0.2,0.3-0.4,0.5-0.7,0.8s-0.5,0.6-0.8,0.8c-0.3,0.3-0.6,0.7-1,1c-0.6,0.6-1.3,1.3-2,1.9c-0.2,0.2-0.4,0.4-0.6,0.5
		c-0.5,0.5-1.1,0.9-1.7,1.4c-0.2,0.2-0.4,0.3-0.6,0.5c-0.7,0.6-1.5,1.2-2.3,1.7c-0.1,0.1-0.3,0.2-0.4,0.3c-0.7,0.5-1.3,0.9-2,1.4
		c-0.3,0.2-0.6,0.4-0.8,0.5c-0.4,0.2-0.8,0.5-1.1,0.7c-0.3,0.2-0.6,0.4-1,0.6s-0.8,0.5-1.2,0.7c-0.3,0.2-0.7,0.4-1,0.6
		c-0.4,0.2-0.8,0.4-1.2,0.7c-0.3,0.2-0.7,0.4-1,0.5c-0.4,0.2-0.8,0.4-1.3,0.6c-0.3,0.2-0.6,0.3-1,0.5c-0.9,0.4-1.8,0.8-2.8,1.2
		c-0.1,0.1-0.3,0.1-0.4,0.2c-0.8,0.3-1.6,0.7-2.5,1c-0.3,0.1-0.6,0.2-0.9,0.4c-0.5,0.2-1.1,0.4-1.6,0.6c-0.3,0.1-0.7,0.2-1,0.3
		c-0.6,0.2-1.1,0.4-1.7,0.5c-0.3,0.1-0.6,0.2-1,0.3c-0.5,0.1-1,0.3-1.5,0.4c-0.3,0.1-0.7,0.2-1,0.3c-0.5,0.1-1.1,0.3-1.6,0.4
		c-0.3,0.1-0.6,0.2-0.9,0.2c-0.5,0.1-1,0.2-1.5,0.3c-0.3,0.1-0.7,0.2-1,0.2c-0.5,0.1-1.1,0.2-1.6,0.3c-0.3,0.1-0.6,0.1-0.9,0.2
		c-0.7,0.1-1.3,0.2-2,0.3c-0.2,0-0.4,0.1-0.6,0.1c-0.8,0.1-1.7,0.2-2.5,0.3c-0.1,0-0.3,0-0.4,0c-0.7,0.1-1.5,0.2-2.2,0.2
		c-0.3,0-0.6,0-0.9,0.1c-0.6,0-1.1,0.1-1.7,0.1c-0.3,0-0.6,0-0.9,0c-0.6,0-1.2,0.1-1.8,0.1c-0.3,0-0.7,0-1,0c-0.6,0-1.1,0-1.7,0
		c-0.3,0-0.6,0-0.9,0c-0.9,0-1.8-0.1-2.6-0.1c-0.2,0-0.3,0-0.5,0c-1-0.1-2-0.2-3-0.3c-0.4,0-0.8-0.1-1.2-0.1c-0.3,0-0.6-0.1-0.9-0.1
		c-0.4-0.1-0.9-0.1-1.3-0.2c-0.3,0-0.6-0.1-0.9-0.1c-0.5-0.1-1-0.2-1.5-0.3c-0.2,0-0.5-0.1-0.7-0.1c-0.7-0.2-1.4-0.3-2.1-0.5
		c-5.1-1.4-9.3-3.3-12.6-5.8c-0.9-0.7-1.8-1.4-2.6-2.2c-0.4-0.4-0.8-0.8-1.1-1.2c-2.2-2.4-3.6-5.1-4.4-7.9l22.3,84.3
		c2,7.6,9.1,13.9,20.8,17.1c0.7,0.2,1.4,0.4,2.1,0.5c0.2,0.1,0.5,0.1,0.7,0.1c0.5,0.1,1,0.2,1.4,0.3c0.3,0.1,0.6,0.1,0.9,0.1
		c0.4,0.1,0.9,0.1,1.3,0.2c0.3,0,0.6,0.1,0.9,0.1s0.6,0.1,0.9,0.1c0.1,0,0.2,0,0.3,0c1,0.1,2,0.2,3,0.3c0.2,0,0.3,0,0.5,0
		c0.9,0.1,1.7,0.1,2.6,0.1c0.1,0,0.3,0,0.4,0c0.2,0,0.3,0,0.5,0c0.6,0,1.1,0,1.7,0c0.3,0,0.7,0,1,0c0.6,0,1.2,0,1.8-0.1
		c0.2,0,0.5,0,0.7,0c0.1,0,0.1,0,0.2,0c0.6,0,1.1-0.1,1.7-0.1c0.3,0,0.6,0,0.9-0.1c0.7-0.1,1.5-0.1,2.2-0.2c0.1,0,0.2,0,0.4,0
		c0.8-0.1,1.7-0.2,2.5-0.3c0.2,0,0.4-0.1,0.6-0.1c0.7-0.1,1.3-0.2,2-0.3c0.3-0.1,0.6-0.1,0.9-0.2c0.5-0.1,1.1-0.2,1.6-0.3
		c0.3-0.1,0.7-0.2,1-0.2c0.5-0.1,1-0.2,1.5-0.3h0.1c0.3-0.1,0.6-0.1,0.8-0.2c0.5-0.1,1.1-0.3,1.6-0.4c0.4-0.1,0.7-0.2,1-0.3
		c0.5-0.1,1-0.3,1.5-0.4c0.1,0,0.2-0.1,0.3-0.1c0.2-0.1,0.5-0.1,0.7-0.2c0.6-0.2,1.1-0.4,1.7-0.5c0.3-0.1,0.7-0.2,1-0.3
		c0.5-0.2,1.1-0.4,1.6-0.6c0.2-0.1,0.4-0.1,0.6-0.2c0.1,0,0.3-0.1,0.4-0.2c0.8-0.3,1.7-0.6,2.5-1c0.1-0.1,0.3-0.1,0.4-0.2
		c0.9-0.4,1.9-0.8,2.8-1.2c0.1,0,0.2-0.1,0.3-0.1c0.2-0.1,0.5-0.2,0.7-0.4c0.4-0.2,0.8-0.4,1.3-0.6c0.3-0.2,0.7-0.4,1-0.5
		c0.4-0.2,0.8-0.4,1.2-0.7c0.3-0.2,0.7-0.4,1-0.6c0.4-0.2,0.8-0.5,1.2-0.7c0.3-0.2,0.7-0.4,1-0.6c0.4-0.2,0.8-0.5,1.1-0.7
		c0.2-0.1,0.3-0.2,0.5-0.3c0.1-0.1,0.2-0.2,0.3-0.2c0.7-0.4,1.4-0.9,2-1.4c0.1-0.1,0.3-0.2,0.4-0.3c0.8-0.6,1.5-1.1,2.3-1.7
		c0.2-0.2,0.4-0.3,0.6-0.5c0.6-0.5,1.1-0.9,1.7-1.4c0.2-0.2,0.4-0.4,0.6-0.5c0.7-0.6,1.4-1.3,2-1.9c0.2-0.2,0.4-0.4,0.5-0.5
		c0.2-0.2,0.3-0.3,0.5-0.5c0.3-0.3,0.5-0.6,0.8-0.8c0.2-0.3,0.4-0.5,0.7-0.8c0.2-0.3,0.5-0.6,0.7-0.8c0.2-0.3,0.4-0.5,0.6-0.8
		s0.4-0.6,0.6-0.8c0.2-0.3,0.4-0.5,0.5-0.8c0.2-0.3,0.4-0.6,0.6-0.8c0.1-0.1,0.2-0.2,0.2-0.3c0.1-0.1,0.1-0.2,0.2-0.3
		c0.3-0.5,0.6-1,0.9-1.5c0.1-0.2,0.2-0.3,0.3-0.5c0.3-0.6,0.6-1.3,0.9-1.9v-0.1c0.1-0.1,0.1-0.3,0.2-0.4c0.2-0.4,0.3-0.8,0.5-1.2
		c0.1-0.2,0.1-0.4,0.2-0.6c0.1-0.4,0.2-0.7,0.3-1.1c0-0.1,0.1-0.2,0.1-0.3s0.1-0.3,0.1-0.4c0.1-0.3,0.1-0.6,0.2-0.9
		c0-0.2,0.1-0.5,0.1-0.7c0-0.3,0.1-0.6,0.1-0.9c0-0.1,0-0.3,0.1-0.4c0-0.1,0-0.2,0-0.3c0-0.3,0-0.5,0-0.8c0-0.2,0-0.5,0-0.7
		c0-0.3,0-0.5,0-0.8c0-0.1,0-0.3,0-0.4c0-0.1,0-0.2,0-0.3c0-0.3-0.1-0.5-0.1-0.8c0-0.2-0.1-0.5-0.1-0.7c0-0.3-0.1-0.5-0.2-0.8
		c0-0.2-0.1-0.3-0.1-0.5s-0.1-0.3-0.1-0.5l-22.3-84.3C355.8,56.1,355.9,56.4,355.9,56.7z"/>
	<path class="st2" d="M335,38.7c23.1,6.2,28.3,25,11.4,41.9S297.2,106.2,274,100s-28.3-24.9-11.5-41.9S311.8,32.5,335,38.7z"/>
	<path class="st2" d="M257.7,90.9c-7.9-8.7-6.7-21.2,4.8-32.8c16.9-16.9,49.3-25.6,72.5-19.4c14.3,3.8,21.7,12.5,21.3,22.5"/>
	<path class="st3" d="M257.7,90.9c-7.9-8.7-6.7-21.2,4.8-32.8c16.9-16.9,49.3-25.6,72.5-19.4c14.3,3.8,21.7,12.5,21.3,22.5"/>
	<path class="st0" d="M330,43.9c19.2,4.4,23.1,18.8,8.8,32.1c-14.3,13.3-41.3,20.6-60.5,16.3c-19.2-4.3-23.1-18.8-8.8-32.1
		C283.8,46.9,310.9,39.5,330,43.9z"/>
	<path class="st1" d="M275.1,162.7c3.5,0.2,7.1-3.5,9.6-6.1c0.8-0.8,1.9-1.1,2.9-0.8l0.9,0.2c2.3,0.6,3,3.5,1.3,5.1
		c-2.4,2.2-5.2,4.2-7.7,3.5l-7.6-2.1C274.7,162.6,274.9,162.7,275.1,162.7z M260.5,161.6c3,10.8,6.8,14.3,17.8,17.1
		c-10.5-2.9-12.6-22.2-12.3-30.7c0.3-11.6,5.4-21.1,12.7-29.4c1.5-1.7,0.7-4.3-1.5-4.9l-1.1-0.3c-1.1-0.3-2.2,0-2.9,0.8
		C260.6,127.5,255.4,143.3,260.5,161.6z"/>
	<path class="st1" d="M278.7,118.5c1.5-1.7,0.7-4.3-1.5-4.9l-1.1-0.3c-1.1-0.3-2.2,0-2.9,0.8c-12.6,13.3-17.8,29.2-12.7,47.4
		c3,10.8,6.8,14.3,17.8,17.1"/>
	<path class="st3" d="M274.5,162.6c0.2,0,0.4,0.1,0.6,0.1c3.5,0.2,7.1-3.5,9.6-6.1c0.8-0.8,1.9-1.1,2.9-0.8l0.9,0.2
		c2.3,0.6,3,3.5,1.3,5.1 M278.7,118.5c1.5-1.7,0.7-4.3-1.5-4.9l-1.1-0.3c-1.1-0.3-2.2,0-2.9,0.8c-12.6,13.3-17.8,29.2-12.7,47.4
		c3,10.8,6.8,14.3,17.8,17.1"/>
	<path class="st0" d="M283.4,120.1c-0.6-2.3-3.5-3-5.1-1.2c-4,4.5-7.2,9.1-9.5,14.8c-3.5,9-3.8,18.7-0.9,29.6
		c3,11,7.3,16.1,13.1,15.7c4.5-0.3,9-3.7,14.3-8.8c0.8-0.8,1.1-1.9,0.8-3l-1.3-4.9c-0.6-2.2-3.2-2.9-4.9-1.5
		c-2.5,2.2-4.9,3.8-6.7,3.9c-1,0.1-4.1,0.3-6.8-9.9c-2.7-10.2-0.9-14.8-0.3-16.4c1.5-3.8,4.6-7.4,7.9-10.9c0.7-0.8,1-1.8,0.7-2.9
		L283.4,120.1z"/>
	<path class="st1" d="M329.3,173.5c-15.4,3.7-31.6,5.2-47.4,3.4c-14-1.6-28.8-5.7-39.5-15.3c-4.9-4.4-8.8-10-10.5-16.4l21,79.4
		c3.5,12.9,15,21.4,26.9,26.1c15.1,6,32,7.1,48,5.8c7.5-0.6,15-1.8,22.3-3.6c2.4-0.6,3.9-3,3.2-5.4l-18.8-70.9
		C333.9,174.3,331.6,172.9,329.3,173.5z"/>
	<path class="st3" d="M337.5,187.6l-2.6-10c-0.6-2.3-2.9-3.7-5.3-3.1c-15.4,3.7-31.6,5.2-47.4,3.4c-14-1.6-28.8-5.7-39.5-15.3"/>
</g>
</svg>
