<?xml version="1.0" encoding="utf-8"?>
<!-- Generator: Adobe Illustrator 22.1.0, SVG Export Plug-In . SVG Version: 6.00 Build 0)  -->
<svg version="1.1" id="Слой_1" xmlns="http://www.w3.org/2000/svg" xmlns:xlink="http://www.w3.org/1999/xlink" x="0px" y="0px"
	 viewBox="0 0 549 529" style="enable-background:new 0 0 549 529;" xml:space="preserve">
<style type="text/css">
	.st0{fill:#2F58FF;}
	.st1{fill:#FB7070;}
	.st2{fill:none;stroke:#171A21;stroke-width:2;stroke-linecap:round;stroke-linejoin:round;stroke-miterlimit:10;}
	
		.st3{fill:none;stroke:#171A21;stroke-width:2;stroke-linecap:round;stroke-linejoin:round;stroke-miterlimit:10;stroke-dasharray:12,12;}
</style>
<g id="Слой_9">
	<path class="st0" d="M306.3,322.5l98.6-26.4c2.5-0.7,4.9,1.6,4.2,4.2l-22.9,86.4c-1.3,4.7-5,8.5-9.7,9.7l-96.7,25.9
		c-4.7,1.3-9.8-0.1-13.3-3.6l-70.2-70.6c-3.4-3.5-4.8-8.5-3.5-13.2l22.9-86.5c0.7-2.6,3.9-3.4,5.7-1.5l71.6,72
		C296.5,322.4,301.6,323.8,306.3,322.5z"/>
	<path class="st1" d="M329.2,213.5l-34.3-53c-1.6-2.5-4.7-3.7-7.5-2.9L189.3,184c-4.5,1.2-6.5,6.4-4,10.3l31.9,49.2L329.2,213.5z"/>
	<path class="st1" d="M328.3,212.3l56.3-14.8c2.4-0.6,4.9,0.1,6.6,1.8l70.8,70.8c3.7,3.7,2,10.1-3.1,11.5l-48.6,12.7L328.3,212.3z"
		/>
	<path class="st1" d="M299,324.4l-56.3,14.8c-2.4,0.6-4.9-0.1-6.6-1.8l-70.7-70.7c-3.7-3.7-2-10.1,3.1-11.5l48.5-12.7L299,324.4z"/>
	<path class="st1" d="M298.4,324.3l14.4,53.2c1,3.6,4.7,5.8,8.4,4.8l98.8-26.5c3.7-1,5.8-4.7,4.8-8.4l-14.4-53.2L298.4,324.3z"/>
	<path class="st2" d="M392.2,363.3l27.8-7.4c3.7-1,5.8-4.7,4.8-8.4l-14.4-53.2"/>
	<path class="st2" d="M410.3,294.3l48.5-12.7c5.1-1.3,6.8-7.7,3.1-11.5l-70.8-70.8c-1.7-1.7-4.2-2.4-6.6-1.8l-56.2,14.7l-33.5-51.7
		c-1.6-2.5-4.7-3.7-7.5-2.9l-98,26.4c-4.5,1.2-6.5,6.4-4,10.3l31.3,48.3l-48.1,12.6c-5.1,1.3-6.8,7.7-3.1,11.5l35.9,35.9"/>
	<path class="st3" d="M221.4,246.9l71.6,72c3.5,3.5,8.5,4.8,13.3,3.6l98.6-26.4c2.5-0.7,3.4-3.9,1.5-5.7l-71.6-72
		c-3.5-3.5-8.5-4.8-13.3-3.6l-98.6,26.4C220.4,241.9,219.6,245,221.4,246.9z"/>
</g>
</svg>
