<?xml version="1.0" encoding="utf-8"?>
<!-- Generator: Adobe Illustrator 22.1.0, SVG Export Plug-In . SVG Version: 6.00 Build 0)  -->
<svg version="1.1" id="Слой_1" xmlns="http://www.w3.org/2000/svg" xmlns:xlink="http://www.w3.org/1999/xlink" x="0px" y="0px"
	 viewBox="0 0 549 529" style="enable-background:new 0 0 549 529;" xml:space="preserve">
<style type="text/css">
	.st0{fill:#FFFFFF;}
</style>
<path class="st0" d="M428,438.3c-1.8-1-4.3-0.4-5.6,1.4C381.1,507.8,300,518,249.2,525.2c-2.3,0.3-3.9,1.8-2.3,2.8
	c0.6,0.4,1.7,0.6,3.5,0.7c23.3,1.3,88.6-0.9,133.5-27c45-26.1,47-55.9,46-60.3C429.7,439.8,428.9,438.8,428,438.3z M380.5,423.3
	c-1.2-0.7-3.1-1.2-5.1-1.4c-11.1-1-21.3-1.2-33.3-8.1l-39.9-23c-2.7-1.6-5.3-3.1-8-4.6c-13.8-7.9-27.1-14.7-47.3-14.3
	c-19.2,0.2-38.7,7.7-51.1,14.9c-24.2,14.1-42.1,35-17.7,55.7c0.3,0.2,0.6,0.4,0.9,0.6c2.6,1.5,6,1.1,8.3,0.3l27.3-12.8
	c2.2-1.4,1.6-3.7-0.3-5.3c-8.3-7.2-4.6-15.1,5.1-20.8c5.2-3,13.1-5.4,20.9-4.4c7,0.8,12.6,3.7,17.7,6.6c1.3,0.8,2.6,1.5,3.9,2.3
	l3.3,1.9c-13,9.5-31.2,21.4-38.9,32.9c-9,13.2-6.1,27.9,14.7,39.9c26.6,15.4,56.6,13.3,77.9,0.9c18.1-10.5,23.7-18.7,23.3-35.1
	c11.4,1.2,16.2,2.2,31.7,1.4c2.9-0.5,5.2-2,5.4-3.8h0.1c0.5-5.6,1.7-15.6,2.5-21.1C382.3,424.9,381.7,424,380.5,423.3z M273.9,459.6
	c-21.8-12.6-6.4-26.2,12-36.9l5.5,3.2c0.9,0.5,1.8,1,2.7,1.5c8.8,5.1,16.2,9.6,19.7,16.9c3.2,6.5,1.2,12.8-6,16.9
	C298.1,467,285,466,273.9,459.6z M436.1,421.1c-1.5-0.8-2.8-1.4-3.8-1.5c-4.9-0.4-16.3,5.6-22.2,10.1c-5.8,4.3-11.6,12.1-9,13.6
	c0.1,0.1,0.2,0.1,0.4,0.2c1.4,0.3,1.9-0.5,6.2-3.5c4.2-3,15.7-11.6,22.1-11.1c1,0.1,2.2,0.5,3.4,1.2c6.1,3.5,13.6,13.7,14.9,15.7
	c0.4,0.5,0.8,0.9,1.2,1.2c1.4,0.8,2.9,0,3.2-1.8c0.4-2.4-0.3-7.6-4.3-13.1C445,427.9,440,423.3,436.1,421.1z"/>
</svg>
