<?xml version="1.0" encoding="utf-8"?>
<!-- Generator: Adobe Illustrator 22.1.0, SVG Export Plug-In . SVG Version: 6.00 Build 0)  -->
<svg version="1.1" id="Слой_1" xmlns="http://www.w3.org/2000/svg" xmlns:xlink="http://www.w3.org/1999/xlink" x="0px" y="0px"
	 viewBox="0 0 549 529" style="enable-background:new 0 0 549 529;" xml:space="preserve">
<style type="text/css">
	.st0{fill:#FFFFFF;}
	.st1{fill:#2F58FF;}
	.st2{fill:#FB7070;}
	.st3{fill:none;stroke:#171A21;stroke-width:2;stroke-linecap:round;stroke-linejoin:round;stroke-miterlimit:10;}
	
		.st4{fill:none;stroke:#171A21;stroke-width:2;stroke-linecap:round;stroke-linejoin:round;stroke-miterlimit:10;stroke-dasharray:12,12;}
	.st5{fill:#FB7070;stroke:#171A21;stroke-width:2;stroke-linecap:round;stroke-linejoin:round;stroke-miterlimit:10;}
	.st6{fill:#FB7070;stroke:#171A21;stroke-width:2;}
</style>
<path class="st0" d="M428,438.3c-1.8-1-4.3-0.4-5.6,1.4C381.1,507.8,300,518,249.2,525.2c-2.3,0.3-3.9,1.8-2.3,2.8
	c0.6,0.4,1.7,0.6,3.5,0.7c23.3,1.3,88.6-0.9,133.5-27c45-26.1,47-55.9,46-60.3C429.7,439.8,428.9,438.8,428,438.3z M380.5,423.3
	c-1.2-0.7-3.1-1.2-5.1-1.4c-11.1-1-21.3-1.2-33.3-8.1l-39.9-23c-2.7-1.6-5.3-3.1-8-4.6c-13.8-7.9-27.1-14.7-47.3-14.3
	c-19.2,0.2-38.7,7.7-51.1,14.9c-24.2,14.1-42.1,35-17.7,55.7c0.3,0.2,0.6,0.4,0.9,0.6c2.6,1.5,6,1.1,8.3,0.3l27.3-12.8
	c2.2-1.4,1.6-3.7-0.3-5.3c-8.3-7.2-4.6-15.1,5.1-20.8c5.2-3,13.1-5.4,20.9-4.4c7,0.8,12.6,3.7,17.7,6.6c1.3,0.8,2.6,1.5,3.9,2.3
	l3.3,1.9c-13,9.5-31.2,21.4-38.9,32.9c-9,13.2-6.1,27.9,14.7,39.9c26.6,15.4,56.6,13.3,77.9,0.9c18.1-10.5,23.7-18.7,23.3-35.1
	c11.4,1.2,16.2,2.2,31.7,1.4c2.9-0.5,5.2-2,5.4-3.8h0.1c0.5-5.6,1.7-15.6,2.5-21.1C382.3,424.9,381.7,424,380.5,423.3z M273.9,459.6
	c-21.8-12.6-6.4-26.2,12-36.9l5.5,3.2c0.9,0.5,1.8,1,2.7,1.5c8.8,5.1,16.2,9.6,19.7,16.9c3.2,6.5,1.2,12.8-6,16.9
	C298.1,467,285,466,273.9,459.6z M436.1,421.1c-1.5-0.8-2.8-1.4-3.8-1.5c-4.9-0.4-16.3,5.6-22.2,10.1c-5.8,4.3-11.6,12.1-9,13.6
	c0.1,0.1,0.2,0.1,0.4,0.2c1.4,0.3,1.9-0.5,6.2-3.5c4.2-3,15.7-11.6,22.1-11.1c1,0.1,2.2,0.5,3.4,1.2c6.1,3.5,13.6,13.7,14.9,15.7
	c0.4,0.5,0.8,0.9,1.2,1.2c1.4,0.8,2.9,0,3.2-1.8c0.4-2.4-0.3-7.6-4.3-13.1C445,427.9,440,423.3,436.1,421.1z"/>
<g id="Слой_9">
	<path class="st1" d="M306.3,322.5l98.6-26.4c2.5-0.7,4.9,1.6,4.2,4.2l-22.9,86.4c-1.3,4.7-5,8.5-9.7,9.7l-96.7,25.9
		c-4.7,1.3-9.8-0.1-13.3-3.6l-70.2-70.6c-3.4-3.5-4.8-8.5-3.5-13.2l22.9-86.5c0.7-2.6,3.9-3.4,5.7-1.5l71.6,72
		C296.5,322.4,301.6,323.8,306.3,322.5z"/>
	<path class="st2" d="M329.2,213.5l-34.3-53c-1.6-2.5-4.7-3.7-7.5-2.9L189.3,184c-4.5,1.2-6.5,6.4-4,10.3l31.9,49.2L329.2,213.5z"/>
	<path class="st2" d="M328.3,212.3l56.3-14.8c2.4-0.6,4.9,0.1,6.6,1.8l70.8,70.8c3.7,3.7,2,10.1-3.1,11.5l-48.6,12.7L328.3,212.3z"
		/>
	<path class="st2" d="M299,324.4l-56.3,14.8c-2.4,0.6-4.9-0.1-6.6-1.8l-70.7-70.7c-3.7-3.7-2-10.1,3.1-11.5l48.5-12.7L299,324.4z"/>
	<path class="st2" d="M298.4,324.3l14.4,53.2c1,3.6,4.7,5.8,8.4,4.8l98.8-26.5c3.7-1,5.8-4.7,4.8-8.4l-14.4-53.2L298.4,324.3z"/>
	<path class="st3" d="M392.2,363.3l27.8-7.4c3.7-1,5.8-4.7,4.8-8.4l-14.4-53.2"/>
	<path class="st3" d="M410.3,294.3l48.5-12.7c5.1-1.3,6.8-7.7,3.1-11.5l-70.8-70.8c-1.7-1.7-4.2-2.4-6.6-1.8l-56.2,14.7l-33.5-51.7
		c-1.6-2.5-4.7-3.7-7.5-2.9l-98,26.4c-4.5,1.2-6.5,6.4-4,10.3l31.3,48.3l-48.1,12.6c-5.1,1.3-6.8,7.7-3.1,11.5l35.9,35.9"/>
	<path class="st4" d="M221.4,246.9l71.6,72c3.5,3.5,8.5,4.8,13.3,3.6l98.6-26.4c2.5-0.7,3.4-3.9,1.5-5.7l-71.6-72
		c-3.5-3.5-8.5-4.8-13.3-3.6l-98.6,26.4C220.4,241.9,219.6,245,221.4,246.9z"/>
</g>
<g id="Слой_8">
	<path class="st1" d="M371.8,69.2c-11.7-3.1-24.3-4.1-36.3-3.2c-12.1,0.9-24.1,3-35.7,6.7c-21.8,7-43.9,18.3-58.1,36.8
		c-7.8,10-13.1,23-9.6,35.7l21,79.4c-4-14.7,3.6-29.4,13.3-40.1c10-11,22.8-19.3,36.2-25.4c14.3-6.5,29.5-10.8,45-12.8
		c15.1-2,31-1.6,45.8,2.4c13.2,3.6,27,10.8,33.2,23.6c0.8,1.7,1.5,3.4,2,5.3l-21-79.4C403.4,84.2,390.1,74.1,371.8,69.2
		C370.7,68.9,390.1,74.1,371.8,69.2z"/>
	<path class="st0" d="M355.9,56.7c0.1,0.3,0.1,0.5,0.2,0.8c0,0.2,0.1,0.5,0.1,0.7c0,0.3,0.1,0.5,0.1,0.8c0,0.2,0,0.5,0,0.7
		c0,0.3,0,0.5,0,0.8c0,0.2,0,0.5,0,0.7c0,0.3,0,0.5,0,0.8c0,0.2,0,0.5-0.1,0.7c0,0.3-0.1,0.6-0.1,0.9c0,0.2-0.1,0.5-0.1,0.7
		c-0.1,0.3-0.1,0.6-0.2,0.9c-0.1,0.2-0.1,0.5-0.2,0.7c-0.1,0.4-0.2,0.7-0.3,1.1c-0.1,0.2-0.1,0.4-0.2,0.6c-0.1,0.4-0.3,0.8-0.5,1.2
		c-0.1,0.2-0.1,0.3-0.2,0.5c-0.3,0.6-0.6,1.3-0.9,1.9c-0.1,0.2-0.2,0.3-0.3,0.5c-0.3,0.5-0.5,1-0.9,1.5c-0.1,0.2-0.3,0.4-0.4,0.7
		c-0.2,0.3-0.4,0.6-0.6,0.8c-0.2,0.3-0.4,0.5-0.5,0.8c-0.2,0.3-0.4,0.6-0.6,0.8c-0.2,0.3-0.4,0.5-0.6,0.8s-0.5,0.6-0.7,0.8
		c-0.2,0.3-0.4,0.5-0.7,0.8s-0.5,0.6-0.8,0.8c-0.3,0.3-0.6,0.7-1,1c-0.6,0.6-1.3,1.3-2,1.9c-0.2,0.2-0.4,0.4-0.6,0.5
		c-0.5,0.5-1.1,0.9-1.7,1.4c-0.2,0.2-0.4,0.3-0.6,0.5c-0.7,0.6-1.5,1.2-2.3,1.7c-0.1,0.1-0.3,0.2-0.4,0.3c-0.7,0.5-1.3,0.9-2,1.4
		c-0.3,0.2-0.6,0.4-0.8,0.5c-0.4,0.2-0.8,0.5-1.1,0.7c-0.3,0.2-0.6,0.4-1,0.6s-0.8,0.5-1.2,0.7c-0.3,0.2-0.7,0.4-1,0.6
		c-0.4,0.2-0.8,0.4-1.2,0.7c-0.3,0.2-0.7,0.4-1,0.5c-0.4,0.2-0.8,0.4-1.3,0.6c-0.3,0.2-0.6,0.3-1,0.5c-0.9,0.4-1.8,0.8-2.8,1.2
		c-0.1,0.1-0.3,0.1-0.4,0.2c-0.8,0.3-1.6,0.7-2.5,1c-0.3,0.1-0.6,0.2-0.9,0.4c-0.5,0.2-1.1,0.4-1.6,0.6c-0.3,0.1-0.7,0.2-1,0.3
		c-0.6,0.2-1.1,0.4-1.7,0.5c-0.3,0.1-0.6,0.2-1,0.3c-0.5,0.1-1,0.3-1.5,0.4c-0.3,0.1-0.7,0.2-1,0.3c-0.5,0.1-1.1,0.3-1.6,0.4
		c-0.3,0.1-0.6,0.2-0.9,0.2c-0.5,0.1-1,0.2-1.5,0.3c-0.3,0.1-0.7,0.2-1,0.2c-0.5,0.1-1.1,0.2-1.6,0.3c-0.3,0.1-0.6,0.1-0.9,0.2
		c-0.7,0.1-1.3,0.2-2,0.3c-0.2,0-0.4,0.1-0.6,0.1c-0.8,0.1-1.7,0.2-2.5,0.3c-0.1,0-0.3,0-0.4,0c-0.7,0.1-1.5,0.2-2.2,0.2
		c-0.3,0-0.6,0-0.9,0.1c-0.6,0-1.1,0.1-1.7,0.1c-0.3,0-0.6,0-0.9,0c-0.6,0-1.2,0.1-1.8,0.1c-0.3,0-0.7,0-1,0c-0.6,0-1.1,0-1.7,0
		c-0.3,0-0.6,0-0.9,0c-0.9,0-1.8-0.1-2.6-0.1c-0.2,0-0.3,0-0.5,0c-1-0.1-2-0.2-3-0.3c-0.4,0-0.8-0.1-1.2-0.1c-0.3,0-0.6-0.1-0.9-0.1
		c-0.4-0.1-0.9-0.1-1.3-0.2c-0.3,0-0.6-0.1-0.9-0.1c-0.5-0.1-1-0.2-1.5-0.3c-0.2,0-0.5-0.1-0.7-0.1c-0.7-0.2-1.4-0.3-2.1-0.5
		c-5.1-1.4-9.3-3.3-12.6-5.8c-0.9-0.7-1.8-1.4-2.6-2.2c-0.4-0.4-0.8-0.8-1.1-1.2c-2.2-2.4-3.6-5.1-4.4-7.9l22.3,84.3
		c2,7.6,9.1,13.9,20.8,17.1c0.7,0.2,1.4,0.4,2.1,0.5c0.2,0.1,0.5,0.1,0.7,0.1c0.5,0.1,1,0.2,1.4,0.3c0.3,0.1,0.6,0.1,0.9,0.1
		c0.4,0.1,0.9,0.1,1.3,0.2c0.3,0,0.6,0.1,0.9,0.1s0.6,0.1,0.9,0.1c0.1,0,0.2,0,0.3,0c1,0.1,2,0.2,3,0.3c0.2,0,0.3,0,0.5,0
		c0.9,0.1,1.7,0.1,2.6,0.1c0.1,0,0.3,0,0.4,0c0.2,0,0.3,0,0.5,0c0.6,0,1.1,0,1.7,0c0.3,0,0.7,0,1,0c0.6,0,1.2,0,1.8-0.1
		c0.2,0,0.5,0,0.7,0c0.1,0,0.1,0,0.2,0c0.6,0,1.1-0.1,1.7-0.1c0.3,0,0.6,0,0.9-0.1c0.7-0.1,1.5-0.1,2.2-0.2c0.1,0,0.2,0,0.4,0
		c0.8-0.1,1.7-0.2,2.5-0.3c0.2,0,0.4-0.1,0.6-0.1c0.7-0.1,1.3-0.2,2-0.3c0.3-0.1,0.6-0.1,0.9-0.2c0.5-0.1,1.1-0.2,1.6-0.3
		c0.3-0.1,0.7-0.2,1-0.2c0.5-0.1,1-0.2,1.5-0.3h0.1c0.3-0.1,0.6-0.1,0.8-0.2c0.5-0.1,1.1-0.3,1.6-0.4c0.4-0.1,0.7-0.2,1-0.3
		c0.5-0.1,1-0.3,1.5-0.4c0.1,0,0.2-0.1,0.3-0.1c0.2-0.1,0.5-0.1,0.7-0.2c0.6-0.2,1.1-0.4,1.7-0.5c0.3-0.1,0.7-0.2,1-0.3
		c0.5-0.2,1.1-0.4,1.6-0.6c0.2-0.1,0.4-0.1,0.6-0.2c0.1,0,0.3-0.1,0.4-0.2c0.8-0.3,1.7-0.6,2.5-1c0.1-0.1,0.3-0.1,0.4-0.2
		c0.9-0.4,1.9-0.8,2.8-1.2c0.1,0,0.2-0.1,0.3-0.1c0.2-0.1,0.5-0.2,0.7-0.4c0.4-0.2,0.8-0.4,1.3-0.6c0.3-0.2,0.7-0.4,1-0.5
		c0.4-0.2,0.8-0.4,1.2-0.7c0.3-0.2,0.7-0.4,1-0.6c0.4-0.2,0.8-0.5,1.2-0.7c0.3-0.2,0.7-0.4,1-0.6c0.4-0.2,0.8-0.5,1.1-0.7
		c0.2-0.1,0.3-0.2,0.5-0.3c0.1-0.1,0.2-0.2,0.3-0.2c0.7-0.4,1.4-0.9,2-1.4c0.1-0.1,0.3-0.2,0.4-0.3c0.8-0.6,1.5-1.1,2.3-1.7
		c0.2-0.2,0.4-0.3,0.6-0.5c0.6-0.5,1.1-0.9,1.7-1.4c0.2-0.2,0.4-0.4,0.6-0.5c0.7-0.6,1.4-1.3,2-1.9c0.2-0.2,0.4-0.4,0.5-0.5
		c0.2-0.2,0.3-0.3,0.5-0.5c0.3-0.3,0.5-0.6,0.8-0.8c0.2-0.3,0.4-0.5,0.7-0.8c0.2-0.3,0.5-0.6,0.7-0.8c0.2-0.3,0.4-0.5,0.6-0.8
		s0.4-0.6,0.6-0.8c0.2-0.3,0.4-0.5,0.5-0.8c0.2-0.3,0.4-0.6,0.6-0.8c0.1-0.1,0.2-0.2,0.2-0.3c0.1-0.1,0.1-0.2,0.2-0.3
		c0.3-0.5,0.6-1,0.9-1.5c0.1-0.2,0.2-0.3,0.3-0.5c0.3-0.6,0.6-1.3,0.9-1.9v-0.1c0.1-0.1,0.1-0.3,0.2-0.4c0.2-0.4,0.3-0.8,0.5-1.2
		c0.1-0.2,0.1-0.4,0.2-0.6c0.1-0.4,0.2-0.7,0.3-1.1c0-0.1,0.1-0.2,0.1-0.3s0.1-0.3,0.1-0.4c0.1-0.3,0.1-0.6,0.2-0.9
		c0-0.2,0.1-0.5,0.1-0.7c0-0.3,0.1-0.6,0.1-0.9c0-0.1,0-0.3,0.1-0.4c0-0.1,0-0.2,0-0.3c0-0.3,0-0.5,0-0.8c0-0.2,0-0.5,0-0.7
		c0-0.3,0-0.5,0-0.8c0-0.1,0-0.3,0-0.4c0-0.1,0-0.2,0-0.3c0-0.3-0.1-0.5-0.1-0.8c0-0.2-0.1-0.5-0.1-0.7c0-0.3-0.1-0.5-0.2-0.8
		c0-0.2-0.1-0.3-0.1-0.5s-0.1-0.3-0.1-0.5l-22.3-84.3C355.8,56.1,355.9,56.4,355.9,56.7z"/>
	<path class="st2" d="M335,38.7c23.1,6.2,28.3,25,11.4,41.9S297.2,106.2,274,100s-28.3-24.9-11.5-41.9S311.8,32.5,335,38.7z"/>
	<path class="st2" d="M257.7,90.9c-7.9-8.7-6.7-21.2,4.8-32.8c16.9-16.9,49.3-25.6,72.5-19.4c14.3,3.8,21.7,12.5,21.3,22.5"/>
	<path class="st3" d="M257.7,90.9c-7.9-8.7-6.7-21.2,4.8-32.8c16.9-16.9,49.3-25.6,72.5-19.4c14.3,3.8,21.7,12.5,21.3,22.5"/>
	<path class="st1" d="M330,43.9c19.2,4.4,23.1,18.8,8.8,32.1c-14.3,13.3-41.3,20.6-60.5,16.3c-19.2-4.3-23.1-18.8-8.8-32.1
		C283.8,46.9,310.9,39.5,330,43.9z"/>
	<path class="st0" d="M275.1,162.7c3.5,0.2,7.1-3.5,9.6-6.1c0.8-0.8,1.9-1.1,2.9-0.8l0.9,0.2c2.3,0.6,3,3.5,1.3,5.1
		c-2.4,2.2-5.2,4.2-7.7,3.5l-7.6-2.1C274.7,162.6,274.9,162.7,275.1,162.7z M260.5,161.6c3,10.8,6.8,14.3,17.8,17.1
		c-10.5-2.9-12.6-22.2-12.3-30.7c0.3-11.6,5.4-21.1,12.7-29.4c1.5-1.7,0.7-4.3-1.5-4.9l-1.1-0.3c-1.1-0.3-2.2,0-2.9,0.8
		C260.6,127.5,255.4,143.3,260.5,161.6z"/>
	<path class="st0" d="M278.7,118.5c1.5-1.7,0.7-4.3-1.5-4.9l-1.1-0.3c-1.1-0.3-2.2,0-2.9,0.8c-12.6,13.3-17.8,29.2-12.7,47.4
		c3,10.8,6.8,14.3,17.8,17.1"/>
	<path class="st3" d="M274.5,162.6c0.2,0,0.4,0.1,0.6,0.1c3.5,0.2,7.1-3.5,9.6-6.1c0.8-0.8,1.9-1.1,2.9-0.8l0.9,0.2
		c2.3,0.6,3,3.5,1.3,5.1 M278.7,118.5c1.5-1.7,0.7-4.3-1.5-4.9l-1.1-0.3c-1.1-0.3-2.2,0-2.9,0.8c-12.6,13.3-17.8,29.2-12.7,47.4
		c3,10.8,6.8,14.3,17.8,17.1"/>
	<path class="st1" d="M283.4,120.1c-0.6-2.3-3.5-3-5.1-1.2c-4,4.5-7.2,9.1-9.5,14.8c-3.5,9-3.8,18.7-0.9,29.6
		c3,11,7.3,16.1,13.1,15.7c4.5-0.3,9-3.7,14.3-8.8c0.8-0.8,1.1-1.9,0.8-3l-1.3-4.9c-0.6-2.2-3.2-2.9-4.9-1.5
		c-2.5,2.2-4.9,3.8-6.7,3.9c-1,0.1-4.1,0.3-6.8-9.9c-2.7-10.2-0.9-14.8-0.3-16.4c1.5-3.8,4.6-7.4,7.9-10.9c0.7-0.8,1-1.8,0.7-2.9
		L283.4,120.1z"/>
	<path class="st0" d="M329.3,173.5c-15.4,3.7-31.6,5.2-47.4,3.4c-14-1.6-28.8-5.7-39.5-15.3c-4.9-4.4-8.8-10-10.5-16.4l21,79.4
		c3.5,12.9,15,21.4,26.9,26.1c15.1,6,32,7.1,48,5.8c7.5-0.6,15-1.8,22.3-3.6c2.4-0.6,3.9-3,3.2-5.4l-18.8-70.9
		C333.9,174.3,331.6,172.9,329.3,173.5z"/>
	<path class="st3" d="M337.5,187.6l-2.6-10c-0.6-2.3-2.9-3.7-5.3-3.1c-15.4,3.7-31.6,5.2-47.4,3.4c-14-1.6-28.8-5.7-39.5-15.3"/>
</g>
<g id="Слой_7">
	<path class="st1" d="M129.4,148.6L77,178.8c-6.3,3.7-11.4,12.5-11.4,19.8l0.1,37.6c0,7.3,5.2,10.2,11.5,6.5l52.4-30.2
		c6.3-3.7,11.4-12.5,11.4-19.8l-0.1-37.6C140.9,147.9,135.8,145,129.4,148.6z"/>
	<path class="st0" d="M122.9,163.7c-0.9,0.5-1.6,1.8-1.6,2.8l0.1,30.1c0,1,0.7,1.5,1.6,0.9c0.9-0.5,1.6-1.8,1.6-2.8l-0.1-30.1
		C124.6,163.6,123.8,163.2,122.9,163.7z M116.4,167.5c-0.9,0.5-1.6,1.8-1.6,2.8l0.1,30.1c0,1,0.7,1.5,1.6,0.9
		c0.9-0.5,1.6-1.8,1.6-2.8l-0.1-30.1C118,167.4,117.3,166.9,116.4,167.5z M109.8,171.2c-0.9,0.5-1.6,1.8-1.6,2.8l0.1,30.1
		c0,1,0.7,1.5,1.6,0.9c0.9-0.5,1.6-1.8,1.6-2.8l-0.1-30.1C111.5,171.1,110.8,170.7,109.8,171.2z M103.3,175
		c-0.9,0.5-1.6,1.8-1.6,2.8l0.1,37.6c0,1,0.7,1.5,1.6,0.9c0.9-0.5,1.6-1.8,1.6-2.8l-0.1-37.6C104.9,174.9,104.2,174.5,103.3,175z
		 M96.8,178.8c-0.9,0.5-1.6,1.8-1.6,2.8l0.1,30.1c0,1,0.7,1.5,1.6,0.9c0.9-0.5,1.6-1.8,1.6-2.8l-0.1-30.1
		C98.4,178.7,97.7,178.3,96.8,178.8z M90.2,182.6c-0.9,0.5-1.6,1.8-1.6,2.8l0.1,30.1c0,1,0.7,1.5,1.6,0.9c0.9-0.5,1.6-1.8,1.6-2.8
		l-0.1-30.1C91.9,182.5,91.1,182,90.2,182.6z M83.7,186.3c-0.9,0.5-1.6,1.8-1.6,2.8l0.1,30.1c0,1,0.7,1.5,1.6,0.9
		c0.9-0.5,1.6-1.8,1.6-2.8l-0.1-30C85.3,186.2,84.6,185.8,83.7,186.3z M77.1,190.1c-0.9,0.5-1.6,1.8-1.6,2.8l0.1,37.6
		c0,1,0.7,1.5,1.6,0.9c0.9-0.5,1.6-1.8,1.6-2.8L78.7,191C78.8,190,78,189.6,77.1,190.1z M90.3,220.2c-0.2,0.1-0.4,0.3-0.6,0.5
		s-0.4,0.4-0.5,0.7l-0.1,0.1c-0.6,1.1-0.6,2.2,0.1,2.5c0.1,0.1,0.3,0.1,0.5,0.1s0.4-0.1,0.6-0.2c0.4-0.3,0.8-0.7,1.1-1.2
		c0.6-1.1,0.7-2.3,0-2.7C91.2,219.9,90.7,219.9,90.3,220.2z M83.8,224c-0.2,0.1-0.4,0.3-0.6,0.5c-0.4,0.4-0.7,1-0.9,1.5
		c-0.2,0.6-0.2,1.1,0,1.4c0.1,0.2,0.2,0.3,0.4,0.4c0.1,0.1,0.3,0.1,0.5,0.1s0.4-0.1,0.6-0.2c0.4-0.3,0.8-0.7,1.1-1.2
		c0.6-1.1,0.7-2.3,0-2.7C84.6,223.7,84.2,223.7,83.8,224z M96.9,216.4c-0.2,0.1-0.4,0.3-0.6,0.5s-0.4,0.4-0.5,0.7l-0.1,0.1
		c-0.6,1.1-0.6,2.2,0.1,2.5c0.1,0.1,0.3,0.1,0.5,0.1s0.4-0.1,0.6-0.2c0.4-0.2,0.8-0.7,1.1-1.2c0.2-0.3,0.3-0.5,0.4-0.8
		c0.2-0.6,0.2-1.1,0-1.4c-0.1-0.2-0.2-0.3-0.4-0.4C97.7,216.1,97.3,216.2,96.9,216.4z M123,201.3c-0.4,0.2-0.8,0.7-1.1,1.2
		c-0.2,0.3-0.3,0.5-0.4,0.8c-0.2,0.6-0.2,1.1,0,1.4c0.1,0.2,0.2,0.3,0.4,0.4c0.3,0.2,0.7,0.2,1.1-0.1s0.8-0.7,1.1-1.2
		c0.6-1.1,0.6-2.3,0-2.7C123.9,201,123.5,201.1,123,201.3z M116.5,205.1c-0.4,0.2-0.8,0.7-1.1,1.2c-0.3,0.5-0.5,1.1-0.5,1.6
		c0,1,0.7,1.5,1.6,1c0.4-0.3,0.8-0.7,1.1-1.2c0.6-1.1,0.7-2.3,0-2.7C117.3,204.8,116.9,204.8,116.5,205.1z M110,208.9
		c-0.4,0.2-0.8,0.7-1.1,1.2c-0.3,0.5-0.5,1.1-0.5,1.6c0,1,0.7,1.5,1.6,1c0.4-0.2,0.8-0.7,1.1-1.2c0.2-0.3,0.3-0.5,0.4-0.8
		c0.2-0.6,0.2-1.1,0-1.4c-0.1-0.2-0.2-0.3-0.4-0.4C110.8,208.6,110.4,208.6,110,208.9z M129.5,159.9c-0.9,0.5-1.6,1.8-1.6,2.8
		l0.1,37.6c0,1,0.7,1.5,1.6,0.9c0.9-0.5,1.6-1.8,1.6-2.8l-0.1-37.6C131.1,159.8,130.4,159.4,129.5,159.9z"/>
</g>
<g id="Слой_6">
	<path class="st5" d="M25.1,82.6l-7.5,28.2c-0.9,3.4,0.4,8.2,2.8,10.6l18.9,18.8c2.5,2.5,5.2,1.7,6.1-1.7l7.5-28.1
		c0.9-3.4-0.4-8.2-2.8-10.6L31.3,81C28.8,78.5,26,79.2,25.1,82.6z"/>
</g>
<g id="Слой_5">
	<path class="st1" d="M538.3,278.2v35.5c0,4.3-3,9.5-6.7,11.6l-28.1,16.1c-3.7,2.1-6.7,0.4-6.7-3.9V302c0-4.3,3-9.5,6.7-11.6
		l28.1-16.1C535.3,272.1,538.3,273.9,538.3,278.2z"/>
</g>
<g id="Слой_4">
	<path class="st5" d="M514.9,130c-18.3-10.6-33.3-2.1-33.4,19s14.8,46.8,33.1,57.4c18.3,10.6,33.3,2.1,33.4-19
		C548.1,166.3,533.2,140.6,514.9,130z"/>
	<path class="st0" d="M519.1,169.1l-6.8-4c-0.8-0.5-1.8,0.1-1.8,1.1l-0.1,20.4c0,0.4,0.2,0.8,0.6,1.1l6.2,3.6
		c0.8,0.5,1.8-0.1,1.8-1.1L519.1,169.1z M514.9,146.6c-3.2-1.8-5.8-0.4-5.8,3.3s2.6,8.1,5.8,10c3.2,1.8,5.8,0.4,5.8-3.3
		C520.6,152.9,518,148.5,514.9,146.6z"/>
</g>
<g id="Слой_3">
	<path class="st5" d="M113,445.5c2,3.6,0.4,6.4-3.7,6.4l-59.8,0.2c-4.1,0-9.1-2.9-11.2-6.5l-36.4-63c-2-3.6-0.4-6.4,3.7-6.4
		l59.8-0.2c4.1,0,9.1,2.9,11.2,6.5L113,445.5z"/>
	<path class="st3" d="M113,445.5c2,3.6,0.4,6.4-3.7,6.4l-59.8,0.2c-4.1,0-9.1-2.9-11.2-6.5l-36.4-63c-2-3.6-0.4-6.4,3.7-6.4
		l59.8-0.2c4.1,0,9.1,2.9,11.2,6.5L113,445.5z"/>
	<path class="st0" d="M95.5,430l-24.8-42.9c-1.2-2-4-3.6-6.4-3.7l-49.2,0.2c-2.4,0-3.3,1.6-2.1,3.7l24.7,42.9c1.2,2,4,3.6,6.4,3.7
		l49.4-0.1C95.7,433.7,96.7,432,95.5,430z"/>
	<path class="st5" d="M131.8,412.9c2,3.6,0.4,6.4-3.7,6.4l-59.8,0.2c-4.1,0-9.1-2.9-11.2-6.5l-36.4-63c-2-3.6-0.4-6.4,3.7-6.5
		l59.8-0.2c4.1,0,9.1,2.9,11.2,6.5L131.8,412.9z"/>
	<path class="st3" d="M131.8,412.9c2,3.6,0.4,6.4-3.7,6.4l-59.8,0.2c-4.1,0-9.1-2.9-11.2-6.5l-36.4-63c-2-3.6-0.4-6.4,3.7-6.5
		l59.8-0.2c4.1,0,9.1,2.9,11.2,6.5L131.8,412.9z"/>
	<path class="st0" d="M114.3,397.3l-24.7-43c-1.2-2-4-3.6-6.3-3.7L34,350.9c-2.4,0-3.3,1.6-2.1,3.7l24.7,42.9c1.2,2,4,3.6,6.4,3.7
		l49.4-0.1C114.6,401,115.5,399.4,114.3,397.3z"/>
</g>
<g id="Слой_2">
	<path class="st6" d="M461.8,98.1l52.6-68l-19.2-12.7l-52.5,67.9l0,0c-3,3.9-1.7,9.9,3.7,13.6S458.7,101.9,461.8,98.1z"/>
	<path class="st0" d="M499.1,31c-5.8-3.9-7.6-10.6-3.9-15c0.6-0.9,1.4-1.6,2.3-2.1l16.7-9.2l5.7,5.2l-2.3,15.3
		c-0.1,1.6-0.7,3.3-1.7,4.6C512.2,34.4,504.8,34.9,499.1,31z"/>
	<path class="st1" d="M513.6,5.2l3.3-4c1.1-1.5,3.4-1.6,5.3-0.3c1.6,1.1,2.3,3.1,1.2,4.6l-3.3,4c-1.1,1.5-3.4,1.6-5.3,0.3
		C513,8.7,512.5,6.7,513.6,5.2z"/>
</g>
</svg>
