<?xml version="1.0" encoding="utf-8"?>
<!-- Generator: Adobe Illustrator 22.1.0, SVG Export Plug-In . SVG Version: 6.00 Build 0)  -->
<svg version="1.1" id="Слой_1" xmlns="http://www.w3.org/2000/svg" xmlns:xlink="http://www.w3.org/1999/xlink" x="0px" y="0px"
	 viewBox="0 0 427.4 322.5" style="enable-background:new 0 0 427.4 322.5;" xml:space="preserve">
<style type="text/css">
	.st0{fill:#FFFFFF;}
	.st1{fill:none;stroke:#171A21;stroke-width:2;stroke-linecap:round;stroke-linejoin:round;stroke-miterlimit:10;}
	.st2{fill:#EAECFD;}
	.st3{fill:#98A2F4;}
	.st4{fill:none;stroke:#FFFFFF;stroke-width:2;stroke-linecap:round;stroke-linejoin:round;stroke-miterlimit:10;}
</style>
<g id="_x32_">
	<path class="st0" d="M26.8,52.3l38-20.7l46.3,25.2l-1.6,8.7L89.3,85.3H67.2L42.7,68.6L26.8,52.3z"/>
	<path class="st1" d="M63.5,30.3c0.8-0.4,1.2-1.3,1.2-2.2v-6.7c0-1.9-2.1-3.1-3.8-2.2"/>
	<path class="st1" d="M79.6,39.6c0.8-0.4,1.2-1.3,1.2-2.2v-6.7c0-1.9-2.1-3.1-3.8-2.2"/>
	<path class="st2" d="M59.8,18.1l-11.1,2.2c-0.1,0-0.2,0.1-0.3,0.1L16.3,39.1c-0.8,0.5-0.3,1.7,0.6,1.5L28,38.3
		c0.1,0,0.2-0.1,0.3-0.1l32.1-18.7C61.2,19.1,60.7,17.8,59.8,18.1z"/>
	<path class="st2" d="M64.6,29.6L32.4,48.3c-0.8,0.5-0.3,1.7,0.6,1.5l11.1-2.2c0.1,0,0.2-0.1,0.3-0.1l32.2-18.7
		c0.8-0.5,0.3-1.7-0.6-1.5l-11.1,2.2C64.7,29.6,64.7,29.6,64.6,29.6z"/>
	<path class="st1" d="M44.2,60.1l35.3-20.5c0.8-0.5,1.7-0.5,2.5,0l28.1,16.2c1.7,1,1.7,3.4,0,4.3"/>
	<path class="st3" d="M77.1,114.5c0,1.9-2.1,3.1-3.8,2.2L15.1,82.8c-0.8-0.4-1.3-1.3-1.3-2.2l0.1-36.1c0-1.2-0.5-3.3,1-3.6L25,39
		c1.6-0.3,3,0.9,3,2.5v6.4c0,1.6,1.4,2.8,3,2.5l10.2-2c1.6-0.3,3,0.9,3,2.5v8c0,0.9,0.5,1.7,1.3,2.2L76,78.5
		c0.8,0.4,1.3,1.3,1.3,2.2"/>
	<path class="st2" d="M37.8,73.1v7.7c0,1.2,0.6,2.3,1.7,2.9l4,2.3c1.1,0.6,2.5-0.2,2.5-1.4V77c0-1.2-0.6-2.3-1.7-2.9l-4-2.3
		C39.2,71.1,37.8,71.8,37.8,73.1z M26.8,66.8v7.7c0,1.2,0.6,2.3,1.7,2.9l4,2.3c1.1,0.6,2.5-0.2,2.5-1.4v-7.7c0-1.2-0.6-2.3-1.7-2.9
		l-4-2.3C28.2,64.8,26.8,65.6,26.8,66.8z M51.2,77.8V98c0,1.2,0.6,2.3,1.7,2.9l9.4,5.4c1.1,0.6,2.5-0.2,2.5-1.4l0.1-20.1
		c0-1.2-0.6-2.3-1.7-2.9l-9.4-5.4C52.6,75.8,51.2,76.6,51.2,77.8z"/>
	<path class="st2" d="M78.5,78.5l31.6-18.4c1.7-1,3.8,0.2,3.8,2.2l-0.1,33.8c0,0.9-0.5,1.7-1.2,2.2L81,116.6c-1.7,1-3.8-0.2-3.8-2.2
		l0.1-33.8C77.2,79.8,77.7,79,78.5,78.5z"/>
	<path class="st3" d="M93.7,56.6L89.2,6.3c0,1.4-0.9,2.8-2.8,3.9c-3.7,2.1-9.7,2.1-13.4,0c-1.9-1.1-2.8-2.5-2.8-3.9l-4.5,50.1
		c0,0.1,0,0.1,0,0.2c0,0.2,0,0.4,0,0.6v0.1c0,2.1,1.4,4.2,4.1,5.8c5.5,3.2,14.4,3.2,19.9,0C92.8,61.3,94.1,59,93.7,56.6z"/>
	<path class="st4" d="M68.3,32.5c0,1.7,1.1,3.4,3.4,4.7c4.5,2.6,11.8,2.6,16.2,0c2.2-1.3,3.3-3,3.3-4.7"/>
	<path class="st1" d="M70.1,6.6c0-1.4,1-2.8,2.8-3.9c3.8-2.2,9.8-2.2,13.6,0c1.9,1.1,2.8,2.5,2.8,3.9"/>
	<path class="st4" d="M67.2,43c0,1.9,1.2,3.7,3.7,5.2c4.9,2.8,12.9,2.8,17.8,0c2.4-1.4,3.7-3.3,3.7-5.1"/>
</g>
</svg>
