<?xml version="1.0" encoding="utf-8"?>
<!-- Generator: Adobe Illustrator 22.1.0, SVG Export Plug-In . SVG Version: 6.00 Build 0)  -->
<svg version="1.1" id="Слой_1" xmlns="http://www.w3.org/2000/svg" xmlns:xlink="http://www.w3.org/1999/xlink" x="0px" y="0px"
	 viewBox="0 0 427.4 322.5" style="enable-background:new 0 0 427.4 322.5;" xml:space="preserve">
<style type="text/css">
	.st0{fill:#EAECFD;}
	.st1{fill:#98A2F4;}
</style>
<g id="_x31_">
	<path class="st0" d="M412.9,265.8L412.9,265.8c0-0.2,0-0.3,0-0.3v-0.1v-0.1c0,0,0,0,0-0.1s0-0.2,0-0.2l0,0c0,0,0,0,0-0.1
		s0-0.1,0-0.2v-0.1c0,0,0,0,0-0.1v-0.1v-0.1c0,0,0,0,0-0.1c0,0,0,0,0-0.1c0,0,0,0,0-0.1v-0.1c0,0,0,0,0-0.1s-0.1-0.1-0.1-0.2
		c0,0,0-0.1-0.1-0.1l-0.1-0.1l-0.1-0.1c0,0,0,0-0.1-0.1s-0.1-0.1-0.2-0.2s-0.2-0.2-0.3-0.2c-0.1-0.1-0.1-0.1-0.2-0.2l-0.1-0.1
		c-0.1-0.1-0.3-0.2-0.4-0.3c0,0,0,0-0.1,0c-0.1-0.1-0.3-0.2-0.4-0.3c0,0,0,0-0.1-0.1c0,0,0,0-0.1,0c-0.2-0.1-0.4-0.3-0.6-0.4
		c0,0,0,0-0.1,0c-0.3-0.2-0.5-0.3-0.8-0.5c0,0,0,0-0.1,0c-0.3-0.2-0.6-0.4-0.9-0.5c-0.1,0-0.2-0.1-0.2-0.1c-0.3-0.1-0.5-0.3-0.7-0.4
		c0,0-0.1,0-0.1-0.1c-0.2-0.1-0.5-0.2-0.7-0.4c0,0-0.1,0-0.1-0.1c0,0-0.1,0-0.1-0.1c-0.2-0.1-0.3-0.2-0.5-0.2
		c-0.1,0-0.1-0.1-0.2-0.1s-0.1,0-0.2-0.1s-0.2-0.1-0.4-0.2c-0.2-0.1-0.3-0.1-0.5-0.2s-0.4-0.1-0.5-0.2c0,0,0,0-0.1,0h-0.1
		c-0.2-0.1-0.4-0.1-0.6-0.2s-0.5-0.1-0.7-0.2h-0.1c0,0,0,0-0.1,0c-0.2,0-0.5-0.1-0.7-0.1c0,0,0,0-0.1,0c-0.2,0-0.4,0-0.6-0.1
		c-0.2,0-0.3,0-0.5,0c0,0,0,0-0.1,0c0,0,0,0-0.1,0s-0.2,0-0.3,0h-0.1c-0.1,0-0.2,0-0.2,0h-0.1c-0.1,0-0.2,0-0.2,0.1
		c-0.1,0-0.1,0.1-0.2,0.1L390,263c-0.4-0.1-0.8-0.2-1.2-0.3c-0.1,0-0.1,0-0.2-0.1c-0.8-0.2-1.6-0.5-2.3-0.8
		c-0.2-0.1-0.4-0.1-0.6-0.2c-0.6-0.2-1.2-0.4-1.8-0.7c-0.2-0.1-0.3-0.1-0.5-0.2c-0.7-0.3-1.4-0.6-2.1-0.9c-0.1,0-0.2-0.1-0.3-0.1
		l20.1-11.7c0.1-0.1,0.2-0.1,0.3-0.2c0,0,0-0.1,0.1-0.1v-0.1c0,0,0,0,0-0.1v-0.1v-0.1v-0.1c0,0,0,0,0-0.1V247v-0.1v-0.1
		c0,0,0,0,0-0.1v-0.1v-0.1v-0.1v-0.1v-0.1v-0.1V246v-0.1c0-0.1,0-0.1-0.1-0.2c0-0.1,0-0.1-0.1-0.2c0,0,0,0,0-0.1c0,0,0,0,0-0.1
		s0-0.1-0.1-0.2c0-0.1,0-0.1-0.1-0.2v-0.1c-0.3-0.6-0.6-1.2-0.8-1.8c-0.2-0.5-0.5-1.1-0.7-1.6c0-0.1-0.1-0.2-0.1-0.2
		c-0.1-0.2-0.2-0.4-0.3-0.6c0-0.1-0.1-0.2-0.1-0.3s-0.1-0.2-0.1-0.3c-0.1-0.1-0.1-0.3-0.2-0.4c0-0.1-0.1-0.2-0.1-0.3
		c-0.1-0.2-0.1-0.3-0.2-0.5c0-0.1-0.1-0.2-0.1-0.2c-0.1-0.2-0.1-0.4-0.2-0.6v-0.1c-0.1-0.2-0.1-0.5-0.2-0.7c0-0.1,0-0.1,0-0.2
		c-0.1-0.2-0.1-0.4-0.2-0.6c0-0.1,0-0.1,0-0.2c-0.1-0.3-0.1-0.5-0.2-0.8c0-0.1,0-0.1,0-0.2c0-0.2-0.1-0.5-0.1-0.7c0-0.1,0-0.1,0-0.2
		c0-0.3-0.1-0.6-0.1-0.8c0-0.1,0-0.1,0-0.2c0-0.2,0-0.5,0-0.7c0-0.1,0-0.2,0-0.3c0-0.3,0-0.6,0-0.9l0.1-18.8c0-0.4,0-0.8,0-1.3
		c0-0.3,0-0.6,0-0.9c0-0.3,0-0.6,0-0.9c0-0.1,0-0.1,0-0.2c0-0.1,0-0.2,0-0.3c0-0.4,0-0.8,0-1.3c0-0.2,0-0.4,0-0.6c0-0.4,0-0.8,0-1.2
		c0-0.1,0-0.3,0-0.4v-0.1c0-0.6,0-1.1-0.1-1.7c0-0.3,0-0.6-0.1-0.9c0-0.2,0-0.3,0-0.5c0-0.4-0.1-0.8-0.1-1.2V201c0-0.1,0-0.2,0-0.3
		c0-0.2-0.1-0.4-0.1-0.6c0-0.2-0.1-0.3-0.1-0.5c0-0.1,0-0.2,0-0.3s0-0.1,0-0.2c-0.1-0.3-0.1-0.6-0.2-0.9c0-0.1,0-0.1,0-0.2
		s0-0.1-0.1-0.2c0-0.1-0.1-0.3-0.1-0.4c-0.1-0.3-0.1-0.5-0.2-0.8c0,0,0,0,0-0.1v-0.1c-0.1-0.2-0.1-0.4-0.2-0.6
		c-0.1-0.2-0.1-0.5-0.2-0.7V195v-0.1c-0.1-0.2-0.1-0.3-0.2-0.5s-0.2-0.4-0.2-0.7c0-0.1-0.1-0.2-0.1-0.2v-0.1c0-0.1-0.1-0.2-0.1-0.3
		c-0.1-0.2-0.2-0.4-0.3-0.6s-0.2-0.4-0.2-0.5c0,0,0,0,0-0.1c-0.1-0.2-0.2-0.4-0.3-0.7s-0.3-0.5-0.4-0.8c0,0,0-0.1-0.1-0.1
		c-0.2-0.4-0.4-0.8-0.7-1.2c0-0.1-0.1-0.1-0.1-0.2c-0.3-0.5-0.6-1-0.9-1.4l-0.1-0.1c-0.1-0.1-0.2-0.3-0.3-0.4
		c-0.2-0.2-0.3-0.5-0.5-0.7c0-0.1-0.1-0.1-0.1-0.2c-0.2-0.2-0.3-0.4-0.5-0.6c-0.1-0.1-0.1-0.1-0.2-0.2c0,0,0,0,0-0.1
		c-0.2-0.3-0.4-0.6-0.7-0.8l-0.1-0.1c-0.1-0.1-0.2-0.2-0.2-0.3c-0.1-0.1-0.3-0.3-0.4-0.4c-0.1-0.1-0.2-0.2-0.3-0.3
		c-0.1-0.1-0.2-0.2-0.3-0.3c-0.1-0.1-0.1-0.2-0.2-0.2c-0.1-0.1-0.3-0.3-0.4-0.4c-0.1-0.1-0.2-0.3-0.4-0.4l-0.1-0.1
		c-0.1-0.1-0.3-0.3-0.4-0.4c-0.2-0.1-0.3-0.3-0.5-0.4l-0.1-0.1c-0.1-0.1-0.2-0.2-0.4-0.3c-0.2-0.2-0.4-0.4-0.6-0.6l-0.1-0.1
		c-0.1-0.1-0.2-0.2-0.3-0.3c-0.2-0.2-0.5-0.4-0.7-0.6c-0.1-0.1-0.1-0.1-0.2-0.2c-0.1-0.1-0.2-0.1-0.3-0.2c-0.3-0.2-0.5-0.4-0.8-0.6
		c-0.1-0.1-0.2-0.1-0.3-0.2c-0.1,0-0.1-0.1-0.2-0.1c-0.3-0.3-0.6-0.5-1-0.7c-0.1-0.1-0.1-0.1-0.2-0.2c0,0,0,0-0.1,0
		c-0.4-0.3-0.8-0.6-1.2-0.9c0,0,0,0-0.1-0.1s-0.2-0.1-0.2-0.2c-0.3-0.2-0.6-0.4-0.9-0.6c-0.1,0-0.1-0.1-0.2-0.1s-0.1-0.1-0.2-0.1
		c-0.3-0.2-0.5-0.3-0.8-0.5c-0.1,0-0.2-0.1-0.2-0.1c-0.1-0.1-0.2-0.1-0.3-0.2c-0.4-0.2-0.8-0.5-1.2-0.7c-0.5-0.3-0.9-0.5-1.4-0.7
		c0,0-0.1,0-0.1-0.1c-0.1-0.1-0.2-0.1-0.4-0.2c-0.3-0.1-0.6-0.3-0.9-0.4c-0.1,0-0.1-0.1-0.2-0.1c-0.1-0.1-0.2-0.1-0.4-0.2
		c-0.3-0.1-0.5-0.2-0.8-0.3c-0.1,0-0.2-0.1-0.3-0.1s-0.2-0.1-0.3-0.1c-0.2-0.1-0.4-0.2-0.7-0.3c-0.1,0-0.2-0.1-0.3-0.1
		c-0.1,0-0.2-0.1-0.3-0.1c-0.2-0.1-0.4-0.1-0.6-0.2c-0.1,0-0.2-0.1-0.3-0.1s-0.2-0.1-0.3-0.1c-0.2-0.1-0.4-0.1-0.6-0.2
		c-0.1,0-0.2-0.1-0.3-0.1s-0.3-0.1-0.4-0.1c-0.2,0-0.3-0.1-0.5-0.1c-0.1,0-0.1,0-0.2,0s-0.3,0-0.4-0.1c-0.2,0-0.3-0.1-0.5-0.1
		c-0.1,0-0.1,0-0.2,0c-0.2,0-0.3,0-0.5-0.1c-0.2,0-0.3,0-0.5,0h-0.1c-0.2,0-0.4,0-0.6,0c-0.1,0-0.3,0-0.4,0c0,0,0,0-0.1,0
		c-0.2,0-0.4,0-0.5,0c-0.2,0-0.3,0-0.5,0c-0.1,0-0.2,0-0.3,0c-0.2,0-0.5,0.1-0.7,0.1h-0.1c-0.3,0.1-0.5,0.1-0.8,0.2
		c-0.1,0-0.1,0-0.2,0.1c-0.1,0-0.2,0.1-0.3,0.1s-0.2,0.1-0.4,0.1c-0.1,0-0.2,0.1-0.3,0.1c-0.3,0.1-0.6,0.3-0.8,0.4L337,183.1
		c0.3-0.2,0.6-0.3,0.8-0.4c0.1,0,0.2-0.1,0.3-0.1c0.2-0.1,0.4-0.2,0.7-0.2c0.1,0,0.1,0,0.2-0.1c0.3-0.1,0.6-0.1,0.9-0.2
		c0.2,0,0.5-0.1,0.7-0.1c0.1,0,0.3,0,0.4-0.1c0.2,0,0.3,0,0.5,0s0.4,0,0.6,0c0.1,0,0.3,0,0.4,0c0.2,0,0.4,0,0.7,0c0.2,0,0.3,0,0.5,0
		s0.4,0,0.7,0.1c0.2,0,0.3,0.1,0.5,0.1s0.4,0.1,0.7,0.1c0.2,0,0.3,0.1,0.5,0.1c0.2,0.1,0.4,0.1,0.7,0.2c0.2,0,0.4,0.1,0.6,0.2
		c0.2,0.1,0.4,0.1,0.6,0.2c0.2,0.1,0.4,0.1,0.6,0.2c0.2,0.1,0.4,0.1,0.6,0.2c0.2,0.1,0.4,0.2,0.7,0.3c0.2,0.1,0.4,0.2,0.6,0.2
		c0.2,0.1,0.5,0.2,0.8,0.3c0.2,0.1,0.4,0.2,0.6,0.2c0.3,0.1,0.6,0.3,0.9,0.4c0.2,0.1,0.3,0.2,0.5,0.2c0.5,0.2,0.9,0.5,1.4,0.7
		c0.4,0.2,0.8,0.5,1.2,0.7c0.2,0.1,0.3,0.2,0.5,0.3c0.3,0.2,0.5,0.3,0.8,0.5c0.1,0.1,0.3,0.2,0.4,0.3c0.3,0.2,0.6,0.4,0.9,0.6
		c0.1,0.1,0.2,0.1,0.3,0.2c0.4,0.3,0.8,0.6,1.2,0.9c0.1,0.1,0.2,0.1,0.3,0.2c0.2,0.2,0.5,0.4,0.7,0.5l-13,7.6
		c-0.1,0.1-0.2,0.1-0.4,0.2l-0.1,0.1c-0.1,0.1-0.2,0.1-0.2,0.2l-0.1,0.1c-0.1,0.1-0.1,0.1-0.2,0.2c0,0-0.1,0.1-0.1,0.2
		c-0.1,0.1-0.1,0.1-0.2,0.2c-0.1,0.1-0.2,0.3-0.3,0.5c0,0.1-0.1,0.2-0.1,0.3s-0.1,0.1-0.1,0.2c-0.1,0.1-0.1,0.3-0.1,0.4v0.1
		c0,0.1-0.1,0.2-0.1,0.3s0,0.1,0,0.2c0,0.1-0.1,0.3-0.1,0.4s-0.1,0.2-0.1,0.3s-0.1,0.1-0.1,0.2c0,0,0,0.1-0.1,0.1
		c-0.1,0.1-0.2,0.1-0.2,0.2l17.9-10.4c0.2,0.2,0.4,0.3,0.5,0.5c0.1,0.1,0.3,0.3,0.4,0.4c0.2,0.2,0.4,0.4,0.6,0.6
		c0.2,0.1,0.3,0.3,0.5,0.4c0.2,0.1,0.3,0.3,0.5,0.5s0.4,0.4,0.6,0.6c0.1,0.1,0.2,0.3,0.4,0.4c0.2,0.2,0.4,0.4,0.6,0.6
		c0.1,0.1,0.2,0.2,0.3,0.3c0.2,0.2,0.4,0.5,0.6,0.7c0.1,0.1,0.2,0.2,0.2,0.3c0.2,0.2,0.3,0.4,0.4,0.6c-0.1,0-0.2-0.1-0.3-0.1
		s-0.2-0.1-0.3-0.1h-0.1c-0.5-0.1-0.9-0.3-1.4-0.4h-0.1c-0.4-0.1-0.7-0.2-1.1-0.2c0,0,0,0-0.1,0c-0.2,0-0.3-0.1-0.5-0.1
		s-0.4-0.1-0.6-0.1c0,0,0,0-0.1,0c-0.3,0-0.7-0.1-1-0.1c-0.1,0-0.1,0-0.2,0s-0.2,0-0.2,0c-0.2,0-0.4,0-0.6,0h-0.1
		c-0.1,0-0.1,0-0.2,0c-0.2,0-0.5,0-0.7,0c-0.1,0-0.1,0-0.2,0H361c-0.3,0-0.7,0.1-1,0.1c-0.2,0-0.5,0.1-0.7,0.2h-0.1
		c-0.2,0-0.3,0.1-0.5,0.2c0,0,0,0-0.1,0c-0.2,0.1-0.3,0.1-0.5,0.2c-0.1,0-0.2,0.1-0.2,0.1c-0.2,0.1-0.5,0.2-0.7,0.4l-21.6,12.5
		c0.2-0.1,0.5-0.2,0.7-0.4c0.1,0,0.2-0.1,0.2-0.1c0.2-0.1,0.3-0.1,0.5-0.2c0.2-0.1,0.4-0.1,0.6-0.2h0.1c0.2-0.1,0.5-0.1,0.7-0.2
		c0.3-0.1,0.7-0.1,1-0.1c0.1,0,0.2,0,0.3,0c0.2,0,0.4,0,0.7,0c0.1,0,0.2,0,0.3,0c0.2,0,0.4,0,0.6,0c0.1,0,0.3,0,0.4,0
		c0.3,0,0.7,0.1,1,0.1c0.2,0,0.4,0.1,0.6,0.1s0.4,0.1,0.6,0.1c0.4,0.1,0.7,0.2,1.1,0.3h0.1c0.5,0.1,0.9,0.2,1.4,0.4
		c0.1,0,0.2,0.1,0.4,0.1c0.5,0.1,0.9,0.3,1.4,0.5c0.1,0,0.3,0.1,0.4,0.1c0.2,0.1,0.4,0.1,0.6,0.2c0.2,0.1,0.4,0.2,0.7,0.2
		c0.2,0.1,0.4,0.2,0.6,0.2c0.2,0.1,0.4,0.2,0.6,0.2c0.6,0.2,1.2,0.5,1.8,0.8c0.1,0.1,0.2,0.1,0.4,0.2c0.6,0.2,1.1,0.5,1.7,0.7
		c0.1,0,0.1,0.1,0.2,0.1c0.5,0.2,1,0.4,1.5,0.7c0.2,0.1,0.3,0.1,0.5,0.2c0.4,0.2,0.8,0.4,1.2,0.5c0.4,0.2,0.7,0.3,1.1,0.5
		c0.2,0.1,0.4,0.2,0.5,0.2s0.2,0.1,0.3,0.1l-11.9,6.9c-0.2,0.1-0.3,0.2-0.5,0.3l-0.1,0.1c-0.1,0.1-0.3,0.3-0.4,0.4c0,0,0,0,0,0.1
		c-0.1,0.1-0.2,0.3-0.3,0.4c0,0,0,0.1-0.1,0.1c0,0.1-0.1,0.2-0.1,0.3s-0.1,0.2-0.1,0.3s-0.1,0.1-0.1,0.2c0,0.1,0,0.1-0.1,0.2
		c0,0,0,0.1-0.1,0.1c-0.1,0.2-0.1,0.3-0.2,0.5v0.1v0.1c0,0.1-0.1,0.2-0.1,0.3c0,0.2-0.1,0.3-0.1,0.5c0,0,0,0,0,0.1v0.1
		c0,0.1,0,0.3-0.1,0.4c0,0.2,0,0.4-0.1,0.6v0.1c0,0.2,0,0.3,0,0.5s0,0.4,0,0.7c0,0.2,0,0.4,0,0.6v0.1c-0.3-0.4-0.7-0.9-1-1.3
		c-0.2-0.2-0.4-0.5-0.6-0.7c-0.8-0.9-1.5-1.9-2.2-2.8c-0.4-0.5-0.8-1-1.2-1.5c-0.1-0.2-0.3-0.4-0.4-0.6c-0.5-0.7-1.1-1.3-1.6-2
		c0,0,0,0,0-0.1c0,0,0,0-0.1,0c0,0,0,0-0.1,0c0,0,0,0-0.1,0c0,0,0,0-0.1,0c0,0,0,0-0.1,0c0,0,0,0-0.1,0c0,0,0,0-0.1,0c0,0,0,0-0.1,0
		L314.5,232h0.1c0,0,0.1,0,0.2,0s0.1,0,0.2,0s0.1,0.1,0.2,0.1c0.1,0.1,0.2,0.1,0.3,0.2c0.1,0.1,0.2,0.2,0.3,0.3c0.5,0.6,1,1.3,1.6,2
		c0.2,0.2,0.3,0.4,0.5,0.6c0.4,0.5,0.7,0.9,1.1,1.4l0.1,0.1c0.7,0.9,1.4,1.8,2.2,2.8c0.2,0.2,0.4,0.5,0.6,0.7
		c0.6,0.7,1.2,1.5,1.8,2.2c0.2,0.2,0.3,0.4,0.4,0.5c0.1,0.2,0.3,0.4,0.5,0.5c0.2,0.3,0.4,0.5,0.7,0.8c0.4,0.5,0.9,1,1.3,1.5
		c0.2,0.2,0.4,0.5,0.6,0.7c0.1,0.1,0.2,0.2,0.3,0.3c0.1,0.2,0.3,0.3,0.5,0.5c0.6,0.7,1.3,1.4,1.9,2.1c0.2,0.2,0.3,0.3,0.5,0.5
		c0.1,0.2,0.3,0.3,0.4,0.5c0.5,0.6,1.1,1.1,1.6,1.7c0.2,0.2,0.4,0.5,0.6,0.7c0.1,0.1,0.2,0.2,0.3,0.3c0.5,0.5,1,1,1.5,1.5
		c0.3,0.3,0.5,0.5,0.8,0.8c0.1,0.1,0.2,0.1,0.2,0.2c0.4,0.4,0.9,0.8,1.3,1.2c0.3,0.3,0.6,0.6,1,0.9c0.1,0.1,0.2,0.1,0.2,0.2
		c0.4,0.3,0.8,0.7,1.1,1c0.4,0.3,0.7,0.7,1.1,1c0.1,0.1,0.2,0.2,0.3,0.2c0.3,0.3,0.7,0.6,1,0.8c0.4,0.3,0.7,0.6,1.1,0.9
		c0.2,0.1,0.3,0.2,0.5,0.4c0.3,0.3,0.6,0.5,1,0.7c0.3,0.2,0.6,0.5,0.9,0.7s0.5,0.4,0.8,0.6s0.6,0.4,0.9,0.6c0.2,0.1,0.4,0.3,0.6,0.4
		c0.5,0.3,1,0.7,1.5,1c0.2,0.1,0.4,0.2,0.6,0.4c0.1,0,0.1,0.1,0.2,0.1c0.7,0.5,1.5,0.9,2.2,1.4c0.2,0.1,0.3,0.2,0.5,0.3
		c0.5,0.3,1.1,0.6,1.7,0.9c0,0,0,0,0.1,0s0.1,0.1,0.2,0.1c0.6,0.3,1.2,0.6,1.8,0.9c0.1,0,0.2,0.1,0.3,0.1c0.1,0.1,0.2,0.1,0.3,0.2
		c0.5,0.3,1.1,0.5,1.6,0.8c0.1,0.1,0.2,0.1,0.4,0.2c0,0,0.1,0,0.1,0.1c0.7,0.3,1.4,0.6,2.1,0.9c0,0,0.1,0,0.1,0.1
		c0.1,0,0.2,0.1,0.3,0.1c0.6,0.2,1.2,0.5,1.8,0.7c0.1,0,0.2,0.1,0.4,0.1c0.1,0,0.2,0.1,0.3,0.1c0.8,0.3,1.5,0.5,2.3,0.8h0.1
		c0.8,0.2,1.6,0.4,2.3,0.6c0.1,0,0.2,0.1,0.3,0.1s0.2,0,0.3,0.1c0.9,0.2,1.8,0.4,2.7,0.6h0.1c0.4,0.1,0.8,0.2,1.3,0.2
		c0.1,0,0.3,0,0.4,0.1c0.6,0.1,1.2,0.2,1.8,0.3h0.1c0.3,0,0.5,0.1,0.8,0.1c0.4,0,0.8,0.1,1.2,0.1c0.3,0,0.6,0,0.8,0.1
		c0.3,0,0.7,0.1,1,0.1c0.1,0,0.1,0,0.2,0c0.7,0.1,1.5,0.1,2.3,0.1c0.1,0,0.3,0,0.4,0.1c0.1,0,0.2,0.1,0.4,0.2
		c0.1,0.1,0.2,0.1,0.3,0.2c0.1,0.1,0.2,0.2,0.3,0.3c0.1,0.1,0.1,0.2,0.2,0.3c0,0.1,0.1,0.2,0.1,0.4c0,0.1,0,0.3,0,0.4s0,0.3-0.1,0.4
		c0,0.1-0.1,0.2-0.2,0.4c0,0,0,0-0.1,0.1s-0.2,0.2-0.3,0.3s-0.1,0.1-0.2,0.2s-0.2,0.1-0.3,0.2l8.2-4.8c0.1,0.1,0.1,0.2,0.2,0.2
		c0.1,0.1,0.1,0.2,0.2,0.3c0.1,0.1,0.1,0.2,0.1,0.2c0,0.1,0.1,0.2,0.1,0.3c0,0.1,0.1,0.2,0.1,0.3c0,0.1,0,0.2,0,0.4
		c0,0.1,0,0.3,0,0.4v0.1c0,0.1,0,0.2,0,0.4v0.1c0,0.1,0,0.3,0,0.4v0.1v0.1c0,0.2,0,0.3-0.1,0.5v0.1c0,0.2-0.1,0.4-0.1,0.6
		c0,0.1,0,0.1,0,0.2c-0.1,0.3-0.1,0.6-0.2,0.9v0.1c-0.1,0.3-0.2,0.7-0.3,1v0.1c-0.1,0.4-0.2,0.7-0.3,1c0,0,0,0.1-0.1,0.1
		c-0.1,0.2-0.2,0.5-0.3,0.7s-0.2,0.4-0.3,0.6l-0.1,0.1c-0.1,0.2-0.2,0.4-0.4,0.6l-0.1,0.1c-0.1,0.1-0.2,0.3-0.3,0.4
		c0,0.1-0.1,0.1-0.1,0.2c-0.1,0.1-0.2,0.2-0.3,0.3l-0.1,0.1c-0.1,0.1-0.3,0.3-0.4,0.4c0,0,0,0-0.1,0.1s-0.2,0.2-0.3,0.3l-0.1,0.1
		c-0.1,0.1-0.2,0.1-0.3,0.2l-0.1,0.1c-0.1,0.1-0.2,0.2-0.3,0.2l21.6-12.5c0.1-0.1,0.2-0.1,0.3-0.2l0.1-0.1c0.1-0.1,0.2-0.1,0.3-0.2
		l0.1-0.1c0.1-0.1,0.2-0.2,0.3-0.3c0,0,0,0,0.1-0.1s0.3-0.3,0.4-0.4l0.1-0.1c0.1-0.1,0.2-0.2,0.3-0.3c0-0.1,0.1-0.1,0.1-0.2
		c0.1-0.1,0.2-0.3,0.3-0.4l0.1-0.1c0.1-0.2,0.2-0.4,0.3-0.6l0.1-0.1c0.1-0.1,0.1-0.3,0.2-0.4c0-0.1,0.1-0.1,0.1-0.2
		c0.1-0.2,0.2-0.5,0.3-0.7v-0.1c0,0,0,0,0-0.1c0.1-0.3,0.2-0.7,0.3-1c0,0,0,0,0-0.1c0,0,0,0,0-0.1c0.1-0.3,0.2-0.7,0.3-1v-0.1
		c0,0,0,0,0-0.1c0.1-0.3,0.1-0.6,0.2-0.9v-0.1v-0.1c0-0.2,0.1-0.4,0.1-0.6v-0.1c0-0.2,0-0.3,0.1-0.5c0,0,0,0,0-0.1V265.8
		C412.9,266.1,412.9,266.1,412.9,265.8z M363.4,248.3c-0.3-0.3-0.7-0.5-1-0.8c-0.5-0.4-1-0.8-1.4-1.2c-0.4-0.3-0.8-0.7-1.1-1
		c-0.4-0.4-0.8-0.7-1.2-1.1c-0.4-0.4-0.9-0.8-1.3-1.2c-0.4-0.3-0.7-0.7-1.1-1c-0.2-0.2-0.4-0.4-0.7-0.7c0.2-0.1,0.5-0.2,0.7-0.3
		l18.5-10.8v12.9l-10.4,6C364,248.8,363.7,248.6,363.4,248.3z M374.7,244c0,0.1,0,0.1,0,0.2c0,0.1,0,0.2,0,0.3s0,0.2,0,0.3
		s0,0.3,0,0.4c0,0.1,0,0.1,0,0.2v0.1c0,0.2,0,0.4,0.1,0.6v0.1c0,0.1,0,0.1,0,0.2c0,0.1,0,0.2,0,0.3s0,0.2,0.1,0.4c0,0.1,0,0.1,0,0.2
		v0.1c0,0.2,0.1,0.4,0.1,0.6v0.1c0,0.1,0,0.1,0,0.2c0,0.1,0,0.2,0.1,0.3c0,0.1,0.1,0.2,0.1,0.3s0,0.1,0,0.2v0.1
		c0.1,0.2,0.1,0.4,0.2,0.6v0.1c0,0.1,0.1,0.3,0.1,0.4c0,0.1,0,0.1,0.1,0.2c0,0.1,0.1,0.2,0.1,0.2c0,0.1,0,0.1,0.1,0.2
		c0,0.1,0.1,0.2,0.1,0.3s0.1,0.2,0.1,0.3v0.1c0,0.1,0.1,0.2,0.1,0.3s0.1,0.2,0.1,0.3v0.1c0,0.1,0.1,0.1,0.1,0.2
		c0.1,0.2,0.2,0.4,0.3,0.6c0,0,0,0.1,0.1,0.1c0,0,0,0.1,0.1,0.1c0.2,0.5,0.5,1.1,0.7,1.6c0.3,0.6,0.6,1.2,0.8,1.8
		c0.1,0.2,0.1,0.3,0.2,0.5s0.1,0.3,0.2,0.5c0,0.2,0.1,0.3,0.1,0.5c0,0.1,0,0.2,0,0.3c-0.3-0.1-0.5-0.2-0.8-0.4
		c-0.2-0.1-0.4-0.2-0.6-0.3c-0.6-0.3-1.2-0.6-1.8-0.9c-0.1,0-0.2-0.1-0.2-0.1c-0.6-0.3-1.1-0.6-1.7-0.9c-1-0.6-2-1.2-2.9-1.8
		c-0.2-0.1-0.4-0.2-0.6-0.4c-0.7-0.5-1.4-0.9-2.1-1.4c-0.3-0.2-0.6-0.4-0.9-0.6c-0.6-0.4-1.1-0.8-1.7-1.3c-0.3-0.2-0.7-0.5-1-0.7
		c-0.2-0.2-0.4-0.3-0.6-0.5l10.4-6v0.1C374.7,243.5,374.7,243.6,374.7,244z M374.7,229c-0.1,0-0.2,0-0.2,0c-0.2,0-0.5-0.1-0.7-0.2
		c0,0,0,0-0.1,0c-0.2-0.1-0.5-0.2-0.7-0.3s-0.5-0.2-0.8-0.4c-0.2-0.1-0.5-0.3-0.7-0.5s-0.4-0.3-0.6-0.5c0,0,0,0-0.1,0
		c-0.2-0.2-0.4-0.3-0.6-0.5s-0.4-0.4-0.6-0.6c-0.2-0.2-0.4-0.4-0.5-0.6c-0.2-0.2-0.3-0.4-0.4-0.6l-0.1-0.1c-0.1-0.2-0.3-0.4-0.4-0.7
		c0,0-0.1-0.1-0.1-0.2c-0.1-0.2-0.2-0.4-0.4-0.7c-0.1-0.3-0.2-0.5-0.4-0.8c0,0,0,0,0-0.1c-0.1-0.3-0.2-0.5-0.3-0.8c0,0,0,0,0-0.1
		c-0.1-0.3-0.2-0.5-0.3-0.8v-0.1c-0.1-0.3-0.1-0.5-0.2-0.8v-0.1c-0.1-0.3-0.1-0.5-0.2-0.8v-0.1c0-0.3-0.1-0.5-0.1-0.8v-0.1
		c0-0.3-0.1-0.6-0.1-0.8v-0.1c0-0.3,0-0.6,0-0.9c0-0.4,0-0.8,0-1.2v-0.1c0-0.4,0.1-0.7,0.1-1v-0.1c0.1-0.3,0.1-0.6,0.2-0.9v-0.1
		c0.1-0.2,0.1-0.5,0.2-0.7l6.7-3.9c0.1,0.3,0.2,0.5,0.2,0.8v0.1c0.1,0.4,0.2,0.9,0.3,1.3c0,0.1,0,0.1,0.1,0.2
		c0.1,0.4,0.2,0.8,0.3,1.2c0,0.1,0,0.2,0,0.3c0.1,0.3,0.1,0.7,0.2,1c0,0.1,0,0.2,0,0.3c0.1,0.4,0.1,0.9,0.1,1.3c0,0.1,0,0.3,0,0.4
		c0,0.3,0.1,0.6,0.1,1c0,0.6,0.1,1.1,0.1,1.7c0,0.2,0,0.3,0,0.5c0,0.4,0,0.8,0,1.2c0,0.2,0,0.4,0,0.6c0,0.4,0,0.8,0,1.3
		c0,0.2,0,0.3,0,0.5c0,0.3,0,0.6,0,0.8c0,0.3,0,0.7,0,1c0,0.2,0,0.4,0,0.6s0,0.4,0,0.6V229z"/>
	<path class="st1" d="M391.1,276.3c0.7,1.4,0,5.5-1.2,8.1c-1.1,2.6-2.9,3.8-3.8,4.2c-0.4,0.1-0.7,0.1-0.9,0
		c-0.4-0.2-0.6-0.8-0.2-1.4c0.5-1,3.4-7.5,2.3-9.9c-0.5-1.1-2.1-2.3-3.8-3.3c-1.8-1-3.7-1.9-4.7-2.3c-1.1-0.5-1.7-0.7-2-0.9
		c-0.3-0.2-0.4-0.3-0.5-0.6c-0.4-1.4,3.9-0.9,6.7,0.3c0.8,0.3,1.7,0.8,2.7,1.4C388,273.3,390.5,275.1,391.1,276.3z"/>
	<path class="st1" d="M382.7,277.1c0.9,0.5,1.3,1.8,0.2,2.8c-1.4,1.2-12.5,6.5-31-4.2s-32.7-33.5-37-42c-0.9-1.7-0.3-2.1,0.4-1.7
		c0.2,0.1,0.4,0.3,0.6,0.6c8.6,11,20.3,26.3,36.7,35.8c8.5,4.9,18.2,8.2,29.4,8.6C382.2,277,382.4,277.1,382.7,277.1z"/>
	<path class="st1" d="M360,215.3v-1.6c0-2.9,0.2-6.2-1.2-9.5c-1.3-3-3.7-5.3-5.9-6.5c-4-2.3-7.6-2-8.5,2.4c-0.2,1-0.9,1.7-1.8,1.2
		l-10.2-7.1c-0.9-0.7-1.8-2.1-1.6-3.4c2.4-12.8,13.6-10.7,23.5-4.9c5.1,2.9,11.8,8.4,15.8,15.1c5.1,8.4,4.6,15.5,4.6,23.4l-0.1,18.8
		c0,5.7,2,9.3,3.9,13.5c0.7,1.5,0.8,2.9,0,3.2c-2.1,0.8-6,2.4-8.1,3.4c-0.4,0.1-0.9,0-1.4-0.3c-0.4-0.2-0.8-0.5-1.1-0.9
		c-3.5-5.3-4.1-7.2-6-11.5c-5.8,3.4-9.9,3.1-17.3-1.2c-8.8-5.1-15.7-15.3-15.7-27.9c0-9.8,4.7-13.8,11.3-13.3
		C346,208.6,353.9,212.6,360,215.3z M358,239.3c2.1-3,2-7,2-11.7V225c-7.6-4.4-15.6-7.1-15.6,3.1c0,5.2,2.3,10.1,6.4,12.4
		C353.6,242.3,356.3,241.8,358,239.3z"/>
</g>
</svg>
