<?xml version="1.0" encoding="utf-8"?>
<!-- Generator: Adobe Illustrator 22.1.0, SVG Export Plug-In . SVG Version: 6.00 Build 0)  -->
<svg version="1.1" id="Слой_1" xmlns="http://www.w3.org/2000/svg" xmlns:xlink="http://www.w3.org/1999/xlink" x="0px" y="0px"
	 viewBox="0 0 427.4 322.5" style="enable-background:new 0 0 427.4 322.5;" xml:space="preserve">
<style type="text/css">
	.st0{fill:#98A2F4;}
	.st1{fill:#FFFFFF;}
	.st2{fill:none;stroke:#171A21;stroke-width:2;stroke-linecap:round;stroke-linejoin:round;stroke-miterlimit:10;}
</style>
<g id="_x33_">
	<path class="st0" d="M113.7,211.1c0,0,0.1,0,0.1-0.1c0.6-0.3,1.3-0.6,2.2-0.6c1.2-0.1,2.4,0.1,3.3,0.6l5.4,3.1
		c0.9,0.5,1.2,1.2,1.1,1.9l-11,37.6l-28.5-14.3C112.7,212,113.2,211.3,113.7,211.1z"/>
	<path class="st0" d="M44,207.8L59.2,218c1-1.9,3.5-15.7,4.4-20.8c0.2-1.2-0.2-2.4-1.2-3.2l-0.5-0.4c-0.7-0.6-1.7-0.6-2.4,0.1
		l-15.2,13.9L44,207.8z"/>
	<path class="st1" d="M36.1,208c0-0.1,0.1-0.2,0.1-0.3c0.7-1.5,1.6-1.4,3-1.4c0.1,0,0.5,0.2,1.1,0.5l-5-25.3
		c-0.3-1.7,1.3-3.1,2.9-2.5c1.5,0.9,3.8,2.6,4.6,4.5c2.8,7.1,11.5,25,13.7,31.9c23.8,12.9,64.2,35.4,69.2,39.3
		c7.6,6.1,5.3,12.2,9.7,16.9c3,3.3,3,5.1,3,5.1c0,0.1,0,0.3,0,0.4c0,0.8-0.2,1.3-0.7,1.8c-2.7,2.6-12.4-0.3-19.7-2.3
		c-8.7-2.5-61.2-36.2-63.6-38.2c-2.4-2-16.5-21-18.3-25.4c-1.3-3.1-1.1-3.3-0.7-3.9C35.7,208.8,35.9,208.5,36.1,208z"/>
	<path class="st2" d="M116.6,248.8c4.6,2.7,7.9,4.8,9.1,5.8c7.6,6.1,5.3,12.2,9.7,16.9c3,3.3,3,5.1,3,5.1c0,0.1,0,0.3,0,0.4
		c0,0.8-0.2,1.3-0.7,1.8c-2.7,2.6-12.4-0.3-19.7-2.3c-8.7-2.5-61.2-36.2-63.6-38.2s-16-21.2-18.3-25.4c-1.5-2.9-1.3-4.6-0.3-5.2
		c1.4-0.9,3.8-1.2,4.5-0.8l-5-25.3c-0.3-1.7,1.3-3.1,2.9-2.5c1.5,0.9,3.8,2.6,4.6,4.5c1.6,4.2,5.3,12,8.5,19.2"/>
	<path class="st2" d="M56.6,215.3c9.9,5.3,22.7,12.4,34.6,19"/>
	<path class="st0" d="M12.1,223.5c-0.9,0.4-0.9,1.7,0,2c1.3,0.5,3.4,0.8,5.5,0.7c7.1-0.4,24.7,0.8,31.8-0.4c1.8-0.3,2.9-0.8,3-1.4
		c0.7-4.9-13.8-11.9-13.8-11.9l-0.6,0.3L12.1,223.5z"/>
	<path class="st0" d="M29.1,262.5c0.5-0.3,1.5-0.5,47.6-15.4c0.8-0.3,1.8-0.2,2.4,0.3l21.3,14.3c0.7,0.5,0.6,1.2-0.1,1.6
		c-0.3,0.2-0.6,0.3-1.1,0.3l-61.5,5.9c-1.3,0.1-2.5-0.1-3.4-0.6l-5.4-3.1c-0.9-0.5-1.2-1.2-1.1-1.9c0.1-0.5,0.5-0.9,1.1-1.3
		C29,262.5,29,262.5,29.1,262.5z"/>
	<path class="st0" d="M126.1,267.1c0.9,0,1.8-0.1,2.5-0.2c0.7-0.2,1-0.2,1.2-0.3c0.3-0.1,0.7,0.1,0.9,0.4c0.4,0.9,0.5,1.6,0.7,2.4
		c0.1,0.2,0,0.5-0.2,0.7c-0.3,0.3-0.7,0.6-1.3,0.8c-0.9,0.3-2.3,0.3-3.7,0.1c-1.9-0.3-3.9-0.8-4.9-1.1c-0.4-0.1-0.6-0.5-0.5-0.9
		l0.4-1.6c0.1-0.3,0.4-0.6,0.8-0.5C122.8,266.8,124.5,267.1,126.1,267.1z"/>
</g>
</svg>
