<?xml version="1.0" encoding="utf-8"?>
<!-- Generator: Adobe Illustrator 22.1.0, SVG Export Plug-In . SVG Version: 6.00 Build 0)  -->
<svg version="1.1" id="Слой_1" xmlns="http://www.w3.org/2000/svg" xmlns:xlink="http://www.w3.org/1999/xlink" x="0px" y="0px"
	 viewBox="0 0 427.4 322.5" style="enable-background:new 0 0 427.4 322.5;" xml:space="preserve">
<style type="text/css">
	.st0{fill:#FFFFFF;}
	.st1{fill:#2F58FF;}
	.st2{fill:none;stroke:#171A21;stroke-width:2;stroke-linecap:round;stroke-linejoin:round;stroke-miterlimit:10;}
</style>
<g id="_x34_">
	<path class="st0" d="M425.9,273.3c2.4-10.5-3.3-21.5-17.1-29.5c-23.7-13.8-62.2-13.8-86.1,0c-14,8.1-19.8,19.1-17.5,29.6
		c0,0-0.3,41.3,60.4,41.3S425.9,273.3,425.9,273.3z"/>
	<path class="st1" d="M304.7,270c0,0.3,0,0.6,0.1,0.9c0,0.3,0.1,0.5,0.1,0.8s0.1,0.6,0.1,0.9s0.1,0.5,0.2,0.8s0.1,0.6,0.2,0.9
		s0.2,0.5,0.2,0.8c0.1,0.3,0.2,0.6,0.3,0.9c0.1,0.3,0.2,0.5,0.3,0.8s0.3,0.6,0.4,0.9s0.2,0.5,0.4,0.8c0.1,0.3,0.3,0.6,0.5,0.9
		s0.3,0.6,0.5,1c0,0.1,0.1,0.2,0.1,0.2c0.3,0.5,0.6,0.9,0.9,1.4c0.1,0.1,0.1,0.2,0.2,0.3c0.3,0.5,0.7,0.9,1,1.4
		c0.1,0.1,0.1,0.2,0.2,0.3c0.3,0.4,0.6,0.8,1,1.2c0.1,0.1,0.2,0.2,0.3,0.3c0.4,0.4,0.8,0.9,1.3,1.3c0.1,0.1,0.2,0.2,0.2,0.2
		c0.3,0.3,0.7,0.6,1,1c0.3,0.3,0.6,0.5,0.9,0.8c0.3,0.2,0.6,0.5,0.8,0.7c0.3,0.3,0.6,0.5,1,0.7c0.3,0.2,0.6,0.5,0.9,0.7
		s0.7,0.5,1,0.7s0.6,0.4,1,0.7c0.4,0.2,0.7,0.5,1.1,0.7c0.5,0.3,0.9,0.6,1.4,0.9c0.9,0.5,1.8,1,2.8,1.5c0.3,0.1,0.6,0.3,0.8,0.4
		c0.7,0.4,1.5,0.7,2.3,1.1c0.3,0.1,0.5,0.2,0.8,0.3c1,0.4,2,0.8,3,1.2c0.2,0.1,0.4,0.1,0.5,0.2c0.9,0.3,1.8,0.6,2.6,0.9
		c0.4,0.1,0.7,0.2,1.1,0.4c0.5,0.2,1,0.3,1.5,0.5c0.4,0.1,0.8,0.2,1.3,0.4c0.5,0.1,1,0.3,1.5,0.4c0.4,0.1,0.8,0.2,1.3,0.3
		s1,0.2,1.6,0.4c0.4,0.1,0.9,0.2,1.3,0.3c0.5,0.1,1.1,0.2,1.6,0.3c0.4,0.1,0.8,0.2,1.2,0.2c1.1,0.2,2.3,0.4,3.4,0.5
		c0.2,0,0.3,0,0.5,0.1c1,0.1,2,0.3,3,0.4c0.4,0,0.8,0.1,1.2,0.1c0.7,0.1,1.3,0.1,2,0.2c0.4,0,0.8,0.1,1.2,0.1c0.7,0,1.4,0.1,2,0.1
		c0.4,0,0.8,0,1.2,0c0.6,0,1.2,0,1.8,0c0.4,0,0.8,0,1.2,0c0.6,0,1.3,0,1.9,0c0.4,0,0.7,0,1.1,0c0.6,0,1.2,0,1.7-0.1
		c0.4,0,0.8,0,1.2-0.1c0.6,0,1.3-0.1,1.9-0.1c0.4,0,0.7,0,1.1-0.1c0.8-0.1,1.5-0.1,2.3-0.2c0.2,0,0.5,0,0.7-0.1
		c1-0.1,1.9-0.2,2.9-0.4c0.2,0,0.3,0,0.5-0.1c0.8-0.1,1.7-0.2,2.5-0.4c0.3-0.1,0.7-0.1,1-0.2c0.6-0.1,1.3-0.2,1.9-0.4
		c0.3-0.1,0.7-0.1,1-0.2c0.7-0.1,1.4-0.3,2-0.5c0.4-0.1,0.8-0.2,1.1-0.3c0.6-0.2,1.2-0.3,1.8-0.5c0.3-0.1,0.7-0.2,1-0.3
		c1-0.3,1.9-0.6,2.9-0.9c0.2-0.1,0.3-0.1,0.5-0.2c1.1-0.4,2.2-0.8,3.2-1.2c0.4-0.2,0.9-0.3,1.3-0.5c0.3-0.1,0.7-0.3,1-0.4
		c0.5-0.2,0.9-0.4,1.4-0.6c0.3-0.1,0.6-0.3,0.9-0.4c0.5-0.2,1-0.5,1.5-0.8c0.2-0.1,0.5-0.2,0.7-0.4c0.7-0.4,1.5-0.8,2.2-1.2
		c12-6.9,18-16,18-25.1l0.2,18.4c0,9.1-6,18.2-18,25.1c-0.7,0.4-1.5,0.8-2.2,1.2c-0.2,0.1-0.5,0.2-0.7,0.4c-0.5,0.3-1,0.5-1.5,0.8
		c-0.3,0.1-0.6,0.3-0.9,0.4c-0.5,0.2-0.9,0.4-1.4,0.6c-0.3,0.1-0.7,0.3-1,0.4s-0.6,0.3-1,0.4c-0.1,0-0.2,0.1-0.3,0.1
		c-1.1,0.4-2.1,0.8-3.2,1.2c-0.2,0.1-0.3,0.1-0.5,0.2c-0.9,0.3-1.9,0.6-2.9,0.9c-0.2,0-0.3,0.1-0.5,0.1c-0.2,0.1-0.4,0.1-0.6,0.1
		c-0.6,0.2-1.2,0.3-1.8,0.5c-0.4,0.1-0.8,0.2-1.1,0.3c-0.7,0.2-1.4,0.3-2,0.5c-0.3,0.1-0.5,0.1-0.8,0.2c-0.1,0-0.1,0-0.2,0
		c-0.6,0.1-1.3,0.2-1.9,0.4c-0.3,0.1-0.7,0.1-1,0.2c-0.8,0.1-1.7,0.3-2.5,0.4c-0.1,0-0.3,0-0.4,0.1c-1,0.1-1.9,0.3-2.9,0.4
		c-0.2,0-0.5,0-0.7,0.1c-0.7,0.1-1.5,0.2-2.3,0.2c0,0,0,0-0.1,0c-0.3,0-0.7,0-1,0.1c-0.6,0-1.3,0.1-1.9,0.1c-0.4,0-0.8,0-1.2,0.1
		c-0.6,0-1.2,0.1-1.7,0.1h-0.1c-0.3,0-0.7,0-1,0c-0.6,0-1.3,0-1.9,0c-0.4,0-0.8,0-1.2,0c-0.6,0-1.2,0-1.8,0c-0.1,0-0.2,0-0.3,0
		c-0.3,0-0.5,0-0.8,0c-0.7,0-1.4-0.1-2-0.1c-0.4,0-0.8-0.1-1.2-0.1c-0.7,0-1.3-0.1-2-0.2c-0.2,0-0.5,0-0.7-0.1c-0.2,0-0.3,0-0.5-0.1
		c-1-0.1-2-0.2-3-0.4c-0.2,0-0.3,0-0.5-0.1c-1.2-0.2-2.3-0.3-3.4-0.5c-0.1,0-0.2,0-0.3-0.1c-0.3-0.1-0.6-0.1-0.9-0.2
		c-0.5-0.1-1.1-0.2-1.6-0.3c-0.4-0.1-0.9-0.2-1.3-0.3c-0.5-0.1-1-0.2-1.6-0.4c-0.4-0.1-0.9-0.2-1.3-0.3c-0.5-0.1-1-0.3-1.5-0.4
		c-0.4-0.1-0.8-0.2-1.3-0.4c-0.5-0.1-1-0.3-1.5-0.5c-0.2-0.1-0.4-0.1-0.6-0.2c-0.2,0-0.3-0.1-0.5-0.2c-0.9-0.3-1.8-0.6-2.6-0.9
		c-0.2-0.1-0.4-0.1-0.5-0.2c-1-0.4-2-0.8-3-1.2c-0.3-0.1-0.5-0.2-0.8-0.3c-0.8-0.3-1.5-0.7-2.3-1.1c-0.3-0.1-0.6-0.3-0.8-0.4
		c-1-0.5-1.9-1-2.8-1.5c-0.3-0.1-0.5-0.3-0.7-0.4s-0.4-0.3-0.7-0.4c-0.4-0.2-0.7-0.5-1.1-0.7c-0.3-0.2-0.7-0.4-1-0.7
		c-0.3-0.2-0.7-0.5-1-0.7s-0.6-0.4-0.9-0.7c-0.3-0.2-0.6-0.5-1-0.7c-0.3-0.2-0.6-0.5-0.8-0.7c-0.3-0.3-0.6-0.5-0.9-0.8
		c-0.1-0.1-0.2-0.2-0.4-0.3c-0.2-0.2-0.5-0.4-0.7-0.7c-0.1-0.1-0.2-0.2-0.2-0.2c-0.4-0.4-0.9-0.9-1.3-1.3c-0.1-0.1-0.2-0.2-0.3-0.3
		c-0.3-0.4-0.7-0.8-1-1.2c-0.1-0.1-0.1-0.2-0.2-0.3l-0.1-0.1c-0.3-0.4-0.6-0.8-0.9-1.2c-0.1-0.1-0.1-0.2-0.2-0.3
		c-0.3-0.5-0.6-0.9-0.9-1.4c0-0.1-0.1-0.2-0.1-0.2c-0.1-0.2-0.2-0.3-0.3-0.5c-0.1-0.1-0.1-0.3-0.2-0.4c-0.2-0.3-0.3-0.6-0.5-0.9
		c-0.1-0.3-0.2-0.5-0.4-0.8c-0.1-0.3-0.3-0.6-0.4-0.9c-0.1-0.1-0.1-0.3-0.2-0.4c0-0.1-0.1-0.2-0.1-0.4c-0.1-0.3-0.2-0.6-0.3-0.9
		c-0.1-0.3-0.2-0.5-0.2-0.8c-0.1-0.3-0.1-0.6-0.2-0.9c0-0.2-0.1-0.3-0.1-0.5c0-0.1,0-0.2-0.1-0.3c-0.1-0.3-0.1-0.6-0.1-0.9
		s-0.1-0.5-0.1-0.8s0-0.6-0.1-0.9c0-0.2,0-0.4,0-0.5c0-0.2,0-0.4,0-0.5l-0.2-18.4C304.7,269.3,304.7,269.6,304.7,270z"/>
	<path class="st2" d="M425.9,273.3c2.4-10.5-3.3-21.5-17.1-29.5c-23.7-13.8-62.2-13.8-86.1,0c-14,8.1-19.8,19.1-17.5,29.6"/>
	<path class="st0" d="M122.2,94.8c2.4-10.5-3.3-21.5-17.1-29.5c-23.7-13.8-62.2-13.8-86.1,0C5,73.3-0.8,84.3,1.5,95
		c0,0-0.3,41.3,60.4,41.3S122.2,94.8,122.2,94.8z"/>
	<path class="st1" d="M1,91.5c0,0.3,0,0.6,0.1,0.9c0,0.3,0.1,0.5,0.1,0.8s0.1,0.6,0.1,0.9s0.1,0.5,0.2,0.8s0.1,0.6,0.2,0.9
		s0.2,0.5,0.2,0.8c0.1,0.3,0.2,0.6,0.3,0.9c0.1,0.3,0.2,0.5,0.3,0.8s0.3,0.6,0.4,0.9c0.1,0.3,0.2,0.5,0.4,0.8
		c0.1,0.3,0.3,0.6,0.5,0.9s0.3,0.6,0.5,1c0,0.1,0.1,0.2,0.1,0.2c0.3,0.5,0.6,0.9,0.9,1.4c0.1,0.1,0.1,0.2,0.2,0.3
		c0.3,0.5,0.7,0.9,1,1.4c0.1,0.1,0.1,0.2,0.2,0.3c0.3,0.4,0.6,0.8,1,1.2c0.1,0.1,0.2,0.2,0.3,0.3c0.4,0.4,0.8,0.9,1.3,1.3
		c0.1,0.1,0.2,0.2,0.2,0.2c0.3,0.3,0.7,0.6,1,1c0.3,0.3,0.6,0.5,0.9,0.8c0.3,0.2,0.6,0.5,0.8,0.7c0.3,0.3,0.6,0.5,1,0.7
		c0.3,0.2,0.6,0.5,0.9,0.7c0.3,0.2,0.7,0.5,1,0.7s0.6,0.4,1,0.7c0.4,0.2,0.7,0.5,1.1,0.7c0.5,0.3,0.9,0.6,1.4,0.9
		c0.9,0.5,1.8,1,2.8,1.5c0.3,0.1,0.6,0.3,0.8,0.4c0.7,0.4,1.5,0.7,2.3,1.1c0.3,0.1,0.5,0.2,0.8,0.3c1,0.4,2,0.8,3,1.2
		c0.2,0.1,0.4,0.1,0.5,0.2c0.9,0.3,1.8,0.6,2.6,0.9c0.4,0.1,0.7,0.2,1.1,0.4c0.5,0.2,1,0.3,1.5,0.5c0.4,0.1,0.8,0.2,1.3,0.4
		c0.5,0.1,1,0.3,1.5,0.4c0.4,0.1,0.8,0.2,1.3,0.3s1,0.2,1.6,0.4c0.4,0.1,0.9,0.2,1.3,0.3c0.5,0.1,1.1,0.2,1.6,0.3
		c0.4,0.1,0.8,0.2,1.2,0.2c1.1,0.2,2.3,0.4,3.4,0.5c0.2,0,0.3,0,0.5,0.1c1,0.1,2,0.3,3,0.4c0.4,0,0.8,0.1,1.2,0.1
		c0.7,0.1,1.3,0.1,2,0.2c0.4,0,0.8,0.1,1.2,0.1c0.7,0,1.4,0.1,2,0.1c0.4,0,0.8,0,1.2,0c0.6,0,1.2,0,1.8,0c0.4,0,0.8,0,1.2,0
		c0.6,0,1.3,0,1.9,0c0.4,0,0.7,0,1.1,0c0.6,0,1.2,0,1.7-0.1c0.4,0,0.8,0,1.2-0.1c0.6,0,1.3-0.1,1.9-0.1c0.4,0,0.7,0,1.1-0.1
		c0.8-0.1,1.5-0.1,2.3-0.2c0.2,0,0.5,0,0.7-0.1c1-0.1,1.9-0.2,2.9-0.4c0.2,0,0.3,0,0.5-0.1c0.8-0.1,1.7-0.2,2.5-0.4
		c0.3-0.1,0.7-0.1,1-0.2c0.6-0.1,1.3-0.2,1.9-0.4c0.3-0.1,0.7-0.1,1-0.2c0.7-0.1,1.4-0.3,2-0.5c0.4-0.1,0.8-0.2,1.1-0.3
		c0.6-0.2,1.2-0.3,1.8-0.5c0.3-0.1,0.7-0.2,1-0.3c1-0.3,1.9-0.6,2.9-0.9c0.2-0.1,0.3-0.1,0.5-0.2c1.1-0.4,2.2-0.8,3.2-1.2
		c0.4-0.2,0.9-0.3,1.3-0.5c0.3-0.1,0.7-0.3,1-0.4c0.5-0.2,0.9-0.4,1.4-0.6c0.3-0.1,0.6-0.3,0.9-0.4c0.5-0.2,1-0.5,1.5-0.8
		c0.2-0.1,0.5-0.2,0.7-0.4c0.7-0.4,1.5-0.8,2.2-1.2c12-6.9,18-16,18-25.1l0.2,18.4c0,9.1-6,18.2-18,25.1c-0.7,0.4-1.5,0.8-2.2,1.2
		c-0.2,0.1-0.5,0.2-0.7,0.4c-0.5,0.3-1,0.5-1.5,0.8c-0.3,0.1-0.6,0.3-0.9,0.4c-0.5,0.2-0.9,0.4-1.4,0.6c-0.3,0.1-0.7,0.3-1,0.4
		c-0.3,0.1-0.6,0.3-1,0.4c-0.1,0-0.2,0.1-0.3,0.1c-1.1,0.4-2.1,0.8-3.2,1.2c-0.2,0.1-0.3,0.1-0.5,0.2c-0.9,0.3-1.9,0.6-2.9,0.9
		c-0.2,0-0.3,0.1-0.5,0.1c-0.2,0.1-0.4,0.1-0.6,0.1c-0.6,0.2-1.2,0.3-1.8,0.5c-0.4,0.1-0.8,0.2-1.1,0.3c-0.7,0.2-1.4,0.3-2,0.5
		c-0.3,0.1-0.5,0.1-0.8,0.2c-0.1,0-0.1,0-0.2,0c-0.6,0.1-1.3,0.2-1.9,0.4c-0.3,0.1-0.7,0.1-1,0.2c-0.8,0.1-1.7,0.3-2.5,0.4
		c-0.1,0-0.3,0-0.4,0.1c-1,0.1-1.9,0.3-2.9,0.4c-0.2,0-0.5,0-0.7,0.1c-0.7,0.1-1.5,0.2-2.3,0.2c0,0,0,0-0.1,0c-0.3,0-0.7,0-1,0.1
		c-0.6,0-1.3,0.1-1.9,0.1c-0.4,0-0.8,0-1.2,0.1c-0.6,0-1.2,0.1-1.7,0.1h-0.1c-0.3,0-0.7,0-1,0c-0.6,0-1.3,0-1.9,0
		c-0.4,0-0.8,0-1.2,0c-0.6,0-1.2,0-1.8,0c-0.1,0-0.2,0-0.3,0c-0.3,0-0.5,0-0.8,0c-0.7,0-1.4-0.1-2-0.1c-0.4,0-0.8-0.1-1.2-0.1
		c-0.7,0-1.3-0.1-2-0.2c-0.2,0-0.5,0-0.7-0.1c-0.2,0-0.3,0-0.5-0.1c-1-0.1-2-0.2-3-0.4c-0.2,0-0.3,0-0.5-0.1
		c-1.2-0.2-2.3-0.3-3.4-0.5c-0.1,0-0.2,0-0.3-0.1c-0.3-0.1-0.6-0.1-0.9-0.2c-0.5-0.1-1.1-0.2-1.6-0.3c-0.4-0.1-0.9-0.2-1.3-0.3
		c-0.5-0.1-1-0.2-1.6-0.4c-0.4-0.1-0.9-0.2-1.3-0.3c-0.5-0.1-1-0.3-1.5-0.4c-0.4-0.1-0.8-0.2-1.3-0.4c-0.5-0.1-1-0.3-1.5-0.5
		c-0.2-0.1-0.4-0.1-0.6-0.2c-0.2,0-0.3-0.1-0.5-0.2c-0.9-0.3-1.8-0.6-2.6-0.9c-0.2-0.1-0.4-0.1-0.5-0.2c-1-0.4-2-0.8-3-1.2
		c-0.3-0.1-0.5-0.2-0.8-0.3c-0.8-0.3-1.5-0.7-2.3-1.1c-0.3-0.1-0.6-0.3-0.8-0.4c-1-0.5-1.9-1-2.8-1.5c-0.3-0.1-0.5-0.3-0.7-0.4
		c-0.2-0.1-0.4-0.3-0.7-0.4c-0.4-0.2-0.7-0.5-1.1-0.7c-0.3-0.2-0.7-0.4-1-0.7c-0.3-0.2-0.7-0.5-1-0.7s-0.6-0.4-0.9-0.7
		c-0.3-0.2-0.6-0.5-1-0.7c-0.3-0.2-0.6-0.5-0.8-0.7c-0.3-0.3-0.6-0.5-0.9-0.8c-0.1-0.1-0.2-0.2-0.4-0.3c-0.2-0.2-0.5-0.4-0.7-0.7
		c-0.1-0.1-0.2-0.2-0.2-0.2c-0.4-0.4-0.9-0.9-1.3-1.3c-0.1-0.1-0.2-0.2-0.3-0.3c-0.3-0.4-0.7-0.8-1-1.2c-0.1-0.1-0.1-0.2-0.2-0.3
		l-0.1-0.1c-0.3-0.4-0.6-0.8-0.9-1.2c-0.1-0.1-0.1-0.2-0.2-0.3c-0.3-0.5-0.6-0.9-0.9-1.4c0-0.1-0.1-0.2-0.1-0.2
		c-0.1-0.2-0.2-0.3-0.3-0.5c-0.1-0.1-0.1-0.3-0.2-0.4c-0.2-0.3-0.3-0.6-0.5-0.9c-0.1-0.3-0.2-0.5-0.4-0.8c-0.1-0.3-0.3-0.6-0.4-0.9
		c-0.1-0.1-0.1-0.3-0.2-0.4c0-0.1-0.1-0.2-0.1-0.4c-0.1-0.3-0.2-0.6-0.3-0.9c-0.1-0.3-0.2-0.5-0.2-0.8c-0.1-0.3-0.1-0.6-0.2-0.9
		c0-0.2-0.1-0.3-0.1-0.5c0-0.1,0-0.2-0.1-0.3c-0.1-0.3-0.1-0.6-0.1-0.9s-0.1-0.5-0.1-0.8s0-0.6-0.1-0.9c0-0.2,0-0.4,0-0.5
		c0-0.2,0-0.4,0-0.5L1,90.3C1,90.8,1,91.1,1,91.5z"/>
	<path class="st2" d="M122.2,94.8c2.4-10.5-3.3-21.5-17.1-29.5c-23.7-13.8-62.2-13.8-86.1,0C5,73.3-0.8,84.3,1.5,95"/>
	<path class="st0" d="M128.4,259.8c2.4-10.5-3.3-21.5-17.1-29.5c-23.7-13.8-62.2-13.8-86.1,0c-14,8.1-19.8,19.1-17.5,29.6
		c0,0-0.3,41.3,60.4,41.3C128.8,301.1,128.4,259.8,128.4,259.8z"/>
	<path class="st1" d="M7.2,256.5c0,0.3,0,0.6,0.1,0.9c0,0.3,0.1,0.5,0.1,0.8s0.1,0.6,0.1,0.9s0.1,0.5,0.2,0.8s0.1,0.6,0.2,0.9
		s0.2,0.5,0.2,0.8c0.1,0.3,0.2,0.6,0.3,0.9s0.2,0.5,0.3,0.8s0.3,0.6,0.4,0.9c0.1,0.3,0.2,0.5,0.4,0.8c0.1,0.3,0.3,0.6,0.5,0.9
		s0.3,0.6,0.5,1c0,0.1,0.1,0.2,0.1,0.2c0.3,0.5,0.6,0.9,0.9,1.4c0.1,0.1,0.1,0.2,0.2,0.3c0.3,0.5,0.7,0.9,1,1.4
		c0.1,0.1,0.1,0.2,0.2,0.3c0.3,0.4,0.6,0.8,1,1.2c0.1,0.1,0.2,0.2,0.3,0.3c0.4,0.4,0.8,0.9,1.3,1.3c0.1,0.1,0.2,0.2,0.2,0.2
		c0.3,0.3,0.7,0.6,1,1c0.3,0.3,0.6,0.5,0.9,0.8c0.3,0.2,0.6,0.5,0.8,0.7c0.3,0.3,0.6,0.5,1,0.7c0.3,0.2,0.6,0.5,0.9,0.7
		s0.7,0.5,1,0.7s0.6,0.4,1,0.7c0.4,0.2,0.7,0.5,1.1,0.7c0.5,0.3,0.9,0.6,1.4,0.9c0.9,0.5,1.8,1,2.8,1.5c0.3,0.1,0.6,0.3,0.8,0.4
		c0.7,0.4,1.5,0.7,2.3,1.1c0.3,0.1,0.5,0.2,0.8,0.3c1,0.4,2,0.8,3,1.2c0.2,0.1,0.4,0.1,0.5,0.2c0.9,0.3,1.8,0.6,2.6,0.9
		c0.4,0.1,0.7,0.2,1.1,0.4c0.5,0.2,1,0.3,1.5,0.5c0.4,0.1,0.8,0.2,1.3,0.4c0.5,0.1,1,0.3,1.5,0.4c0.4,0.1,0.8,0.2,1.3,0.3
		s1,0.2,1.6,0.4c0.4,0.1,0.9,0.2,1.3,0.3c0.5,0.1,1.1,0.2,1.6,0.3c0.4,0.1,0.8,0.2,1.2,0.2c1.1,0.2,2.3,0.4,3.4,0.5
		c0.2,0,0.3,0,0.5,0.1c1,0.1,2,0.3,3,0.4c0.4,0,0.8,0.1,1.2,0.1c0.7,0.1,1.3,0.1,2,0.2c0.4,0,0.8,0.1,1.2,0.1c0.7,0,1.4,0.1,2,0.1
		c0.4,0,0.8,0,1.2,0c0.6,0,1.2,0,1.8,0c0.4,0,0.8,0,1.2,0c0.6,0,1.3,0,1.9,0c0.4,0,0.7,0,1.1,0c0.6,0,1.2,0,1.7-0.1
		c0.4,0,0.8,0,1.2-0.1c0.6,0,1.3-0.1,1.9-0.1c0.4,0,0.7,0,1.1-0.1c0.8-0.1,1.5-0.1,2.3-0.2c0.2,0,0.5,0,0.7-0.1
		c1-0.1,1.9-0.2,2.9-0.4c0.2,0,0.3,0,0.5-0.1c0.8-0.1,1.7-0.2,2.5-0.4c0.3-0.1,0.7-0.1,1-0.2c0.6-0.1,1.3-0.2,1.9-0.4
		c0.3-0.1,0.7-0.1,1-0.2c0.7-0.1,1.4-0.3,2-0.5c0.4-0.1,0.8-0.2,1.1-0.3c0.6-0.2,1.2-0.3,1.8-0.5c0.3-0.1,0.7-0.2,1-0.3
		c1-0.3,1.9-0.6,2.9-0.9c0.2-0.1,0.3-0.1,0.5-0.2c1.1-0.4,2.2-0.8,3.2-1.2c0.4-0.2,0.9-0.3,1.3-0.5c0.3-0.1,0.7-0.3,1-0.4
		c0.5-0.2,0.9-0.4,1.4-0.6c0.3-0.1,0.6-0.3,0.9-0.4c0.5-0.2,1-0.5,1.5-0.8c0.2-0.1,0.5-0.2,0.7-0.4c0.7-0.4,1.5-0.8,2.2-1.2
		c12-6.9,18-16,18-25.1l0.2,18.4c0,9.1-6,18.2-18,25.1c-0.7,0.4-1.5,0.8-2.2,1.2c-0.2,0.1-0.5,0.2-0.7,0.4c-0.5,0.3-1,0.5-1.5,0.8
		c-0.3,0.1-0.6,0.3-0.9,0.4c-0.5,0.2-0.9,0.4-1.4,0.6c-0.3,0.1-0.7,0.3-1,0.4s-0.6,0.3-1,0.4c-0.1,0-0.2,0.1-0.3,0.1
		c-1.1,0.4-2.1,0.8-3.2,1.2c-0.2,0.1-0.3,0.1-0.5,0.2c-0.9,0.3-1.9,0.6-2.9,0.9c-0.2,0-0.3,0.1-0.5,0.1c-0.2,0.1-0.4,0.1-0.6,0.1
		c-0.6,0.2-1.2,0.3-1.8,0.5c-0.4,0.1-0.8,0.2-1.1,0.3c-0.7,0.2-1.4,0.3-2,0.5c-0.3,0.1-0.5,0.1-0.8,0.2c-0.1,0-0.1,0-0.2,0
		c-0.6,0.1-1.3,0.2-1.9,0.4c-0.3,0.1-0.7,0.1-1,0.2c-0.8,0.1-1.7,0.3-2.5,0.4c-0.1,0-0.3,0-0.4,0.1c-1,0.1-1.9,0.3-2.9,0.4
		c-0.2,0-0.5,0-0.7,0.1c-0.7,0.1-1.5,0.2-2.3,0.2c0,0,0,0-0.1,0c-0.3,0-0.7,0-1,0.1c-0.6,0-1.3,0.1-1.9,0.1c-0.4,0-0.8,0-1.2,0.1
		c-0.6,0-1.2,0.1-1.7,0.1h-0.1c-0.3,0-0.7,0-1,0c-0.6,0-1.3,0-1.9,0c-0.4,0-0.8,0-1.2,0c-0.6,0-1.2,0-1.8,0c-0.1,0-0.2,0-0.3,0
		c-0.3,0-0.5,0-0.8,0c-0.7,0-1.4-0.1-2-0.1c-0.4,0-0.8-0.1-1.2-0.1c-0.7,0-1.3-0.1-2-0.2c-0.2,0-0.5,0-0.7-0.1c-0.2,0-0.3,0-0.5-0.1
		c-1-0.1-2-0.2-3-0.4c-0.2,0-0.3,0-0.5-0.1c-1.2-0.2-2.3-0.3-3.4-0.5c-0.1,0-0.2,0-0.3-0.1c-0.3-0.1-0.6-0.1-0.9-0.2
		c-0.5-0.1-1.1-0.2-1.6-0.3c-0.4-0.1-0.9-0.2-1.3-0.3c-0.5-0.1-1-0.2-1.6-0.4c-0.4-0.1-0.9-0.2-1.3-0.3c-0.5-0.1-1-0.3-1.5-0.4
		c-0.4-0.1-0.8-0.2-1.3-0.4c-0.5-0.1-1-0.3-1.5-0.5c-0.2-0.1-0.4-0.1-0.6-0.2c-0.2,0-0.3-0.1-0.5-0.2c-0.9-0.3-1.8-0.6-2.6-0.9
		c-0.2-0.1-0.4-0.1-0.5-0.2c-1-0.4-2-0.8-3-1.2c-0.3-0.1-0.5-0.2-0.8-0.3c-0.8-0.3-1.5-0.7-2.3-1.1c-0.3-0.1-0.6-0.3-0.8-0.4
		c-1-0.5-1.9-1-2.8-1.5c-0.3-0.1-0.5-0.3-0.7-0.4s-0.4-0.3-0.7-0.4c-0.4-0.2-0.7-0.5-1.1-0.7c-0.3-0.2-0.7-0.4-1-0.7
		c-0.3-0.2-0.7-0.5-1-0.7s-0.6-0.4-0.9-0.7c-0.3-0.2-0.6-0.5-1-0.7c-0.3-0.2-0.6-0.5-0.8-0.7c-0.3-0.3-0.6-0.5-0.9-0.8
		c-0.1-0.1-0.2-0.2-0.4-0.3c-0.2-0.2-0.5-0.4-0.7-0.7c-0.1-0.1-0.2-0.2-0.2-0.2c-0.4-0.4-0.9-0.9-1.3-1.3c-0.1-0.1-0.2-0.2-0.3-0.3
		c-0.3-0.4-0.7-0.8-1-1.2c-0.1-0.1-0.1-0.2-0.2-0.3l-0.1-0.1c-0.3-0.4-0.6-0.8-0.9-1.2c-0.1-0.1-0.1-0.2-0.2-0.3
		c-0.3-0.5-0.6-0.9-0.9-1.4c0-0.1-0.1-0.2-0.1-0.2c-0.1-0.2-0.2-0.3-0.3-0.5c-0.1-0.1-0.1-0.3-0.2-0.4c-0.2-0.3-0.3-0.6-0.5-0.9
		c-0.1-0.3-0.2-0.5-0.4-0.8c-0.1-0.3-0.3-0.6-0.4-0.9c-0.1-0.1-0.1-0.3-0.2-0.4c0-0.1-0.1-0.2-0.1-0.4c-0.1-0.3-0.2-0.6-0.3-0.9
		s-0.2-0.5-0.2-0.8c-0.1-0.3-0.1-0.6-0.2-0.9c0-0.2-0.1-0.3-0.1-0.5c0-0.1,0-0.2-0.1-0.3c-0.1-0.3-0.1-0.6-0.1-0.9s-0.1-0.5-0.1-0.8
		s0-0.6-0.1-0.9c0-0.2,0-0.4,0-0.5c0-0.2,0-0.4,0-0.5l-0.2-18.4C7.2,255.8,7.2,256.1,7.2,256.5z"/>
	<path class="st2" d="M128.4,259.8c2.4-10.5-3.3-21.5-17.1-29.5c-23.7-13.8-62.2-13.8-86.1,0c-14,8.1-19.8,19.1-17.5,29.6"/>
</g>
</svg>
