<?xml version="1.0" encoding="utf-8"?>
<!-- Generator: Adobe Illustrator 22.1.0, SVG Export Plug-In . SVG Version: 6.00 Build 0)  -->
<svg version="1.1" id="Слой_1" xmlns="http://www.w3.org/2000/svg" xmlns:xlink="http://www.w3.org/1999/xlink" x="0px" y="0px"
	 viewBox="0 0 427.4 322.5" style="enable-background:new 0 0 427.4 322.5;" xml:space="preserve">
<style type="text/css">
	
		.st0{fill:none;stroke:#171A21;stroke-width:2;stroke-linecap:round;stroke-linejoin:round;stroke-miterlimit:10;stroke-dasharray:12,12;}
	.st1{fill:#2F58FF;}
	.st2{fill:#98A2F4;}
	.st3{fill:none;stroke:#FFFFFF;stroke-width:2;stroke-miterlimit:10;}
	.st4{fill:#EAECFD;}
	.st5{fill:#FFFFFF;stroke:#171A21;stroke-width:2;stroke-linecap:round;stroke-linejoin:round;stroke-miterlimit:10;}
	.st6{fill:#FFFFFF;}
	.st7{fill:none;stroke:#171A21;stroke-width:2;stroke-linecap:round;stroke-linejoin:round;stroke-miterlimit:10;}
</style>
<path class="st0" d="M22,84l334.1,192.9"/>
<path class="st0" d="M44.8,278.6l231.5-134.5"/>
<path class="st1" d="M309.1,197.5c-0.1,0.2-0.1,0.3-0.2,0.4c0,0,0,0,0,0.1c-0.1,0.1-0.2,0.2-0.3,0.3c-0.1,0.1-0.3,0.2-0.5,0.3
	l-75.8,44.1c-0.2,0.1-0.3,0.2-0.5,0.3c0,0-0.1,0-0.1,0.1c-0.1,0-0.2,0.1-0.4,0.1c-0.1,0-0.3,0.1-0.4,0.1c-0.2,0-0.3,0.1-0.5,0.1
	l-0.1-0.2c-0.2,0-0.4-0.2-0.6-0.2h-0.1c-0.2,0-0.4,0.2-0.6,0.2l-0.1,0.1c-0.2,0-0.4,0-0.6-0.1h-0.1c-0.2,0-0.4-0.1-0.5-0.1h-0.1
	c-0.2-0.1-0.4-0.2-0.6-0.3l-126.7-73.2c-0.7-0.4-1.1-1-1.1-1.6v10.4c0,0.6,0.4,1.1,1.1,1.6L227,253.1c0.2,0.1,0.4,0.2,0.5,0.3h0.1
	c0.1,0,0.2,0.1,0.3,0.1s0.1,0,0.2,0h0.1h0.1c0.1,0,0.2,0,0.4,0.1h0.1h0.1h0.1c0.1,0,1.3,0,1.3,0c0.1,0,0.2,0,0.3,0h0.1
	c0.1,0,0.3-0.1,0.4-0.1s0.1,0,0.2,0c0.1,0,0.1,0,0.2-0.1c0.1,0,0.1,0,0.1-0.1c0.2-0.1,0.4-0.2,0.5-0.3l75.8-44.1
	c0.2-0.1,0.3-0.2,0.4-0.3s0.2-0.2,0.2-0.3c0,0,0,0,0-0.1c0,0,0,0,0-0.1c0,0,0-0.1,0.1-0.1c0-0.1,0.3-0.6,0.3-0.6v-4.3V197
	C309.2,197.1,309.1,197.3,309.1,197.5z"/>
<path class="st2" d="M308,195.5c1.5,0.9,1.5,2.2,0,3.1l-75.8,44.1c-1.5,0.9-3.9,0.9-5.4,0l-126.7-73.2c-1.5-0.9-1.5-2.2,0-3.1
	l75.8-44.1c1.5-0.9,3.9-0.9,5.4,0L308,195.5z"/>
<path class="st3" d="M220.2,199l-39.1-22.6c-1-0.6-2.6-0.6-3.6,0L155,189.6c-1,0.6-1,1.5,0,2.1l39.1,22.6c1,0.6,2.6,0.6,3.6,0
	l22.5-13.1C221.2,200.5,221.2,199.6,220.2,199z"/>
<path class="st4" d="M178.3,117.6c0,1.7,1.2,3.8,2.7,4.7l126.7,73.2c0.9,0.5,1.6,0.5,2.1,0c-0.1,0.1-0.1,0.1-0.2,0.2l5.4-3.1
	c0.1-0.1,0.2-0.1,0.3-0.2c0,0-0.6-0.1-0.5-0.1c0,0-0.5-1.3-0.5-1.4l1-87.7l0.8-0.1V103v-0.1v-0.1l-0.2-0.1h-0.2l0.1-0.1
	c0,0,0.1-0.1,0-0.1v-0.1v-0.1v-0.1v-0.1V102v-0.1c0,0,0-0.1-0.1-0.1v-0.1c0,0,0-0.1-0.1-0.1c0,0,0-0.1-0.1-0.1
	c0-0.1-0.1-0.1-0.1-0.2s-0.1-0.1-0.1-0.2c-0.1-0.1-0.1-0.2-0.2-0.3c-0.1-0.1-0.1-0.2-0.2-0.2c0-0.1-0.1-0.1-0.1-0.2l-0.1-0.1
	l-0.1-0.1l-0.1-0.1l-0.1-0.1l-0.1-0.1l-0.1-0.1l-0.1-0.1c0,0,0,0-0.1,0l-0.1-0.1l-0.1-0.1l-0.1-0.1c0,0-0.1,0-0.1-0.1l-127-74h-0.1
	c0,0-0.1,0-0.1-0.1c0,0,0,0-0.1,0h-0.1h-0.1c0,0,0,0-0.1,0h-0.1c0,0,0,0-0.1,0h-0.1c0,0,0,0-0.1,0h-0.1c0,0,0,0-0.1,0v-0.4
	c-0.1,0-0.1-0.3-0.2-0.3v0.4c-0.1,0-0.1,0.2-0.2,0.2v0.1c-0.1,0-0.1,0.1-0.2,0.1l-5.4,3.1c0.1,0,0.1-0.1,0.2-0.1s0.1,0,0.2,0
	c0.1,0,0.1,0,0.2,0c0.1,0,0.1,0,0.2,0c-1-0.1-1.6,0.6-1.6,1.9L178.3,117.6z M180.7,28.1c-0.2-0.1-0.3-0.1-0.5-0.1c0.1,0,0.1,0,0.2,0
	C180.5,28.1,180.6,28.1,180.7,28.1z M309.8,103.5c-0.1-0.2-0.2-0.4-0.4-0.6C309.6,103.1,309.7,103.3,309.8,103.5z M309.8,103.6
	c0.1,0.2,0.2,0.4,0.3,0.6C310.1,104,310,103.8,309.8,103.6z M310.2,104.1c0,0.1,0.1,0.2,0.1,0.3
	C310.3,104.3,310.2,104.3,310.2,104.1z M310,195.3C310,195.3,309.9,195.3,310,195.3c0.3-0.3,0.4-0.8,0.4-1.4l0.2-87.7
	c0-0.4-0.1-0.9-0.2-1.3c0.1,0.2,0.2,0.4,0.2,0.7c0,0.2,0,0.4,0,0.7l-0.3,87.7c0,0.2,0,0.4-0.1,0.6c0,0.2-0.1,0.3-0.2,0.5
	C310.1,195.1,310,195.1,310,195.3z M308.5,101.8c0.2,0.1,0.3,0.3,0.5,0.5C308.8,102.1,308.7,102.1,308.5,101.8z M307.9,101.5
	c0.2,0.1,0.4,0.2,0.5,0.4C308.3,101.8,308.1,101.6,307.9,101.5z M180.7,28.1c0.1,0,0.2,0.1,0.3,0.1s0.2,0.1,0.3,0.1
	C181,28.3,180.9,28.1,180.7,28.1z"/>
<path class="st5" d="M186,45.3l-0.2,65.7c0,2.3,1.2,4.4,3.2,5.5l110.7,63.9c1.4,0.8,3.2-0.2,3.2-1.8l0.2-65.7c0-2.3-1.2-4.4-3.2-5.5
	l-110.7-64C187.8,42.6,186,43.6,186,45.3z"/>
<path class="st2" d="M259.9,113.8c0,0.1,0,0.1,0,0.2C260,113.8,260,113.8,259.9,113.8z M259.8,113.3L259.8,113.3
	C259.9,113.5,259.9,113.3,259.8,113.3z M259.8,113.1L259.8,113.1L259.8,113.1z M246,92.3C246.1,92.3,246.1,92.3,246,92.3
	C246.1,92.3,246.1,92.3,246,92.3z M245.3,91.8C245.4,91.8,245.4,91.8,245.3,91.8C245.4,91.8,245.4,91.8,245.3,91.8z M244.6,91.3
	C244.6,91.3,244.7,91.3,244.6,91.3C244.7,91.3,244.6,91.3,244.6,91.3z M243.7,90.6C243.7,90.6,243.7,90.8,243.7,90.6
	C243.7,90.8,243.7,90.6,243.7,90.6z M242.9,90.3C243,90.3,243,90.3,242.9,90.3C243,90.3,243,90.3,242.9,90.3z M242.7,90.1
	C242.7,90.1,242.8,90.1,242.7,90.1C242.8,90.1,242.7,90.1,242.7,90.1z M242.5,90l-0.1,21.6l-0.1,21.6c10.4,6,18.8,1.2,18.9-10.7
	c0-2.7-0.4-5.6-1.2-8.5l-17.6-2.4L242.5,90z"/>
<path class="st1" d="M223.7,90l-0.1,21.6l18.8,21.6v-21.6L223.7,90z"/>
<path class="st4" d="M242.5,90h-18.8l18.7,21.6L242.5,90z"/>
<path class="st6" d="M242.5,90l-0.1,21.6L260,114v-0.1c0-0.1,0-0.1,0-0.2s0-0.2-0.1-0.2v-0.1c0-0.1,0-0.1,0-0.2v-0.1
	c0-0.1,0-0.1-0.1-0.2c0,0,0,0,0-0.1c-0.1-0.2-0.1-0.4-0.2-0.6c-2.5-7.6-7.5-15.1-13.4-19.9c-0.2-0.2-0.4-0.3-0.7-0.5
	c-0.1,0-0.1-0.1-0.2-0.1c-0.1-0.1-0.3-0.2-0.4-0.3c-0.1,0-0.1-0.1-0.2-0.1c-0.1,0-0.1-0.1-0.2-0.1s-0.1-0.1-0.2-0.1c0,0,0,0-0.1,0
	S244.1,91,244,91c0,0,0,0-0.1,0s-0.1-0.1-0.2-0.1c-0.1,0-0.1-0.1-0.2-0.1s-0.1-0.1-0.2-0.1c0,0,0,0-0.1,0s-0.1-0.1-0.2-0.1
	c0,0,0,0-0.1,0C242.6,90.1,242.6,90,242.5,90z"/>
<path class="st7" d="M260,114C260,114,260,113.8,260,114c0-0.1,0-0.2-0.1-0.2c0-0.1,0-0.2-0.1-0.2v-0.1c0-0.1,0-0.1,0-0.2v-0.1
	c0-0.1,0-0.1-0.1-0.2c0,0,0,0,0-0.1c-0.1-0.2-0.1-0.4-0.2-0.6c-2.5-7.6-7.5-15.1-13.4-19.9c-0.2-0.2-0.4-0.3-0.7-0.5
	c-0.1,0-0.1-0.1-0.2-0.1c-0.1-0.1-0.3-0.2-0.4-0.3c-0.1,0-0.1-0.1-0.2-0.1c-0.1,0-0.1-0.1-0.2-0.1c-0.1,0-0.1-0.1-0.2-0.1
	c0,0,0,0-0.1,0s-0.1-0.1-0.2-0.1c0,0,0,0-0.1,0s-0.1-0.1-0.2-0.1c-0.1,0-0.1-0.1-0.2-0.1c-0.1,0-0.1-0.1-0.2-0.1c0,0,0,0-0.1,0
	s-0.1-0.1-0.2-0.1c0,0,0,0-0.1,0s-0.1-0.1-0.2-0.1"/>
<g id="_x34_">
</g>
<g id="_x33_">
</g>
<g id="_x32_">
</g>
<g id="_x31_">
</g>
</svg>
