<?xml version="1.0" encoding="utf-8"?>
<!-- Generator: Adobe Illustrator 22.1.0, SVG Export Plug-In . SVG Version: 6.00 Build 0)  -->
<svg version="1.1" id="Слой_1" xmlns="http://www.w3.org/2000/svg" xmlns:xlink="http://www.w3.org/1999/xlink" x="0px" y="0px"
	 viewBox="0 0 427.4 322.5" style="enable-background:new 0 0 427.4 322.5;" xml:space="preserve">
<style type="text/css">
	
		.st0{fill:none;stroke:#171A21;stroke-width:2;stroke-linecap:round;stroke-linejoin:round;stroke-miterlimit:10;stroke-dasharray:12,12;}
	.st1{fill:#FFFFFF;}
	.st2{fill:#2F58FF;}
	.st3{fill:none;stroke:#171A21;stroke-width:2;stroke-linecap:round;stroke-linejoin:round;stroke-miterlimit:10;}
	.st4{fill:#98A2F4;}
	.st5{fill:none;stroke:#FFFFFF;stroke-width:2;stroke-miterlimit:10;}
	.st6{fill:#EAECFD;}
	.st7{fill:#FFFFFF;stroke:#171A21;stroke-width:2;stroke-linecap:round;stroke-linejoin:round;stroke-miterlimit:10;}
	.st8{fill:none;stroke:#FFFFFF;stroke-width:2;stroke-linecap:round;stroke-linejoin:round;stroke-miterlimit:10;}
</style>
<path class="st0" d="M22,84l334.1,192.9"/>
<path class="st0" d="M44.8,278.6l231.5-134.5"/>
<path class="st1" d="M425.9,273.3c2.4-10.5-3.3-21.5-17.1-29.5c-23.7-13.8-62.2-13.8-86.1,0c-14,8.1-19.8,19.1-17.5,29.6
	c0,0-0.3,41.3,60.4,41.3S425.9,273.3,425.9,273.3z"/>
<path class="st2" d="M304.7,270c0,0.3,0,0.6,0.1,0.9c0,0.3,0.1,0.5,0.1,0.8s0.1,0.6,0.1,0.9c0,0.3,0.1,0.5,0.2,0.8
	c0.1,0.3,0.1,0.6,0.2,0.9c0.1,0.3,0.2,0.5,0.2,0.8c0.1,0.3,0.2,0.6,0.3,0.9c0.1,0.3,0.2,0.5,0.3,0.8s0.3,0.6,0.4,0.9
	s0.2,0.5,0.4,0.8c0.1,0.3,0.3,0.6,0.5,0.9c0.2,0.3,0.3,0.6,0.5,1c0,0.1,0.1,0.2,0.1,0.2c0.3,0.5,0.6,0.9,0.9,1.4
	c0.1,0.1,0.1,0.2,0.2,0.3c0.3,0.5,0.7,0.9,1,1.4c0.1,0.1,0.1,0.2,0.2,0.3c0.3,0.4,0.6,0.8,1,1.2c0.1,0.1,0.2,0.2,0.3,0.3
	c0.4,0.4,0.8,0.9,1.3,1.3c0.1,0.1,0.2,0.2,0.2,0.2c0.3,0.3,0.7,0.6,1,1c0.3,0.3,0.6,0.5,0.9,0.8c0.3,0.2,0.6,0.5,0.8,0.7
	c0.3,0.3,0.6,0.5,1,0.7c0.3,0.2,0.6,0.5,0.9,0.7c0.3,0.2,0.7,0.5,1,0.7c0.3,0.2,0.6,0.4,1,0.7c0.4,0.2,0.7,0.5,1.1,0.7
	c0.5,0.3,0.9,0.6,1.4,0.9c0.9,0.5,1.8,1,2.8,1.5c0.3,0.1,0.6,0.3,0.8,0.4c0.7,0.4,1.5,0.7,2.3,1.1c0.3,0.1,0.5,0.2,0.8,0.3
	c1,0.4,2,0.8,3,1.2c0.2,0.1,0.4,0.1,0.5,0.2c0.9,0.3,1.8,0.6,2.6,0.9c0.4,0.1,0.7,0.2,1.1,0.4c0.5,0.2,1,0.3,1.5,0.5
	c0.4,0.1,0.8,0.2,1.3,0.4c0.5,0.1,1,0.3,1.5,0.4c0.4,0.1,0.8,0.2,1.3,0.3s1,0.2,1.6,0.4c0.4,0.1,0.9,0.2,1.3,0.3
	c0.5,0.1,1.1,0.2,1.6,0.3c0.4,0.1,0.8,0.2,1.2,0.2c1.1,0.2,2.3,0.4,3.4,0.5c0.2,0,0.3,0,0.5,0.1c1,0.1,2,0.3,3,0.4
	c0.4,0,0.8,0.1,1.2,0.1c0.7,0.1,1.3,0.1,2,0.2c0.4,0,0.8,0.1,1.2,0.1c0.7,0,1.4,0.1,2,0.1c0.4,0,0.8,0,1.2,0c0.6,0,1.2,0,1.8,0
	c0.4,0,0.8,0,1.2,0c0.6,0,1.3,0,1.9,0c0.4,0,0.7,0,1.1,0c0.6,0,1.2,0,1.7-0.1c0.4,0,0.8,0,1.2-0.1c0.6,0,1.3-0.1,1.9-0.1
	c0.4,0,0.7,0,1.1-0.1c0.8-0.1,1.5-0.1,2.3-0.2c0.2,0,0.5,0,0.7-0.1c1-0.1,1.9-0.2,2.9-0.4c0.2,0,0.3,0,0.5-0.1
	c0.8-0.1,1.7-0.2,2.5-0.4c0.3-0.1,0.7-0.1,1-0.2c0.6-0.1,1.3-0.2,1.9-0.4c0.3-0.1,0.7-0.1,1-0.2c0.7-0.1,1.4-0.3,2-0.5
	c0.4-0.1,0.8-0.2,1.1-0.3c0.6-0.2,1.2-0.3,1.8-0.5c0.3-0.1,0.7-0.2,1-0.3c1-0.3,1.9-0.6,2.9-0.9c0.2-0.1,0.3-0.1,0.5-0.2
	c1.1-0.4,2.2-0.8,3.2-1.2c0.4-0.2,0.9-0.3,1.3-0.5c0.3-0.1,0.7-0.3,1-0.4c0.5-0.2,0.9-0.4,1.4-0.6c0.3-0.1,0.6-0.3,0.9-0.4
	c0.5-0.2,1-0.5,1.5-0.8c0.2-0.1,0.5-0.2,0.7-0.4c0.7-0.4,1.5-0.8,2.2-1.2c12-6.9,18-16,18-25.1l0.2,18.4c0,9.1-6,18.2-18,25.1
	c-0.7,0.4-1.5,0.8-2.2,1.2c-0.2,0.1-0.5,0.2-0.7,0.4c-0.5,0.3-1,0.5-1.5,0.8c-0.3,0.1-0.6,0.3-0.9,0.4c-0.5,0.2-0.9,0.4-1.4,0.6
	c-0.3,0.1-0.7,0.3-1,0.4c-0.3,0.1-0.6,0.3-1,0.4c-0.1,0-0.2,0.1-0.3,0.1c-1.1,0.4-2.1,0.8-3.2,1.2c-0.2,0.1-0.3,0.1-0.5,0.2
	c-0.9,0.3-1.9,0.6-2.9,0.9c-0.2,0-0.3,0.1-0.5,0.1c-0.2,0.1-0.4,0.1-0.6,0.1c-0.6,0.2-1.2,0.3-1.8,0.5c-0.4,0.1-0.8,0.2-1.1,0.3
	c-0.7,0.2-1.4,0.3-2,0.5c-0.3,0.1-0.5,0.1-0.8,0.2c-0.1,0-0.1,0-0.2,0c-0.6,0.1-1.3,0.2-1.9,0.4c-0.3,0.1-0.7,0.1-1,0.2
	c-0.8,0.1-1.7,0.3-2.5,0.4c-0.1,0-0.3,0-0.4,0.1c-1,0.1-1.9,0.3-2.9,0.4c-0.2,0-0.5,0-0.7,0.1c-0.7,0.1-1.5,0.2-2.3,0.2
	c0,0,0,0-0.1,0c-0.3,0-0.7,0-1,0.1c-0.6,0-1.3,0.1-1.9,0.1c-0.4,0-0.8,0-1.2,0.1c-0.6,0-1.2,0.1-1.7,0.1h-0.1c-0.3,0-0.7,0-1,0
	c-0.6,0-1.3,0-1.9,0c-0.4,0-0.8,0-1.2,0c-0.6,0-1.2,0-1.8,0c-0.1,0-0.2,0-0.3,0c-0.3,0-0.5,0-0.8,0c-0.7,0-1.4-0.1-2-0.1
	c-0.4,0-0.8-0.1-1.2-0.1c-0.7,0-1.3-0.1-2-0.2c-0.2,0-0.5,0-0.7-0.1c-0.2,0-0.3,0-0.5-0.1c-1-0.1-2-0.2-3-0.4c-0.2,0-0.3,0-0.5-0.1
	c-1.2-0.2-2.3-0.3-3.4-0.5c-0.1,0-0.2,0-0.3-0.1c-0.3-0.1-0.6-0.1-0.9-0.2c-0.5-0.1-1.1-0.2-1.6-0.3c-0.4-0.1-0.9-0.2-1.3-0.3
	c-0.5-0.1-1-0.2-1.6-0.4c-0.4-0.1-0.9-0.2-1.3-0.3c-0.5-0.1-1-0.3-1.5-0.4c-0.4-0.1-0.8-0.2-1.3-0.4c-0.5-0.1-1-0.3-1.5-0.5
	c-0.2-0.1-0.4-0.1-0.6-0.2c-0.2,0-0.3-0.1-0.5-0.2c-0.9-0.3-1.8-0.6-2.6-0.9c-0.2-0.1-0.4-0.1-0.5-0.2c-1-0.4-2-0.8-3-1.2
	c-0.3-0.1-0.5-0.2-0.8-0.3c-0.8-0.3-1.5-0.7-2.3-1.1c-0.3-0.1-0.6-0.3-0.8-0.4c-1-0.5-1.9-1-2.8-1.5c-0.3-0.1-0.5-0.3-0.7-0.4
	c-0.2-0.1-0.4-0.3-0.7-0.4c-0.4-0.2-0.7-0.5-1.1-0.7c-0.3-0.2-0.7-0.4-1-0.7c-0.3-0.2-0.7-0.5-1-0.7c-0.3-0.2-0.6-0.4-0.9-0.7
	c-0.3-0.2-0.6-0.5-1-0.7c-0.3-0.2-0.6-0.5-0.8-0.7c-0.3-0.3-0.6-0.5-0.9-0.8c-0.1-0.1-0.2-0.2-0.4-0.3c-0.2-0.2-0.5-0.4-0.7-0.7
	c-0.1-0.1-0.2-0.2-0.2-0.2c-0.4-0.4-0.9-0.9-1.3-1.3c-0.1-0.1-0.2-0.2-0.3-0.3c-0.3-0.4-0.7-0.8-1-1.2c-0.1-0.1-0.1-0.2-0.2-0.3
	l-0.1-0.1c-0.3-0.4-0.6-0.8-0.9-1.2c-0.1-0.1-0.1-0.2-0.2-0.3c-0.3-0.5-0.6-0.9-0.9-1.4c0-0.1-0.1-0.2-0.1-0.2
	c-0.1-0.2-0.2-0.3-0.3-0.5c-0.1-0.1-0.1-0.3-0.2-0.4c-0.2-0.3-0.3-0.6-0.5-0.9c-0.1-0.3-0.2-0.5-0.4-0.8c-0.1-0.3-0.3-0.6-0.4-0.9
	c-0.1-0.1-0.1-0.3-0.2-0.4c0-0.1-0.1-0.2-0.1-0.4c-0.1-0.3-0.2-0.6-0.3-0.9c-0.1-0.3-0.2-0.5-0.2-0.8c-0.1-0.3-0.1-0.6-0.2-0.9
	c0-0.2-0.1-0.3-0.1-0.5c0-0.1,0-0.2-0.1-0.3c-0.1-0.3-0.1-0.6-0.1-0.9c0-0.3-0.1-0.5-0.1-0.8s0-0.6-0.1-0.9c0-0.2,0-0.4,0-0.5
	c0-0.2,0-0.4,0-0.5l-0.2-18.4C304.7,269.3,304.7,269.6,304.7,270z"/>
<path class="st3" d="M425.9,273.3c2.4-10.5-3.3-21.5-17.1-29.5c-23.7-13.8-62.2-13.8-86.1,0c-14,8.1-19.8,19.1-17.5,29.6"/>
<path class="st1" d="M122.2,94.8c2.4-10.5-3.3-21.5-17.1-29.5c-23.7-13.8-62.2-13.8-86.1,0C5,73.3-0.8,84.3,1.5,95
	c0,0-0.3,41.3,60.4,41.3C122.6,136.3,122.2,94.8,122.2,94.8z"/>
<path class="st2" d="M1,91.5c0,0.3,0,0.6,0.1,0.9c0,0.3,0.1,0.5,0.1,0.8s0.1,0.6,0.1,0.9c0,0.3,0.1,0.5,0.2,0.8
	c0.1,0.3,0.1,0.6,0.2,0.9c0.1,0.3,0.2,0.5,0.2,0.8c0.1,0.3,0.2,0.6,0.3,0.9c0.1,0.3,0.2,0.5,0.3,0.8s0.3,0.6,0.4,0.9
	c0.1,0.3,0.2,0.5,0.4,0.8c0.1,0.3,0.3,0.6,0.5,0.9c0.2,0.3,0.3,0.6,0.5,1c0,0.1,0.1,0.2,0.1,0.2c0.3,0.5,0.6,0.9,0.9,1.4
	c0.1,0.1,0.1,0.2,0.2,0.3c0.3,0.5,0.7,0.9,1,1.4c0.1,0.1,0.1,0.2,0.2,0.3c0.3,0.4,0.6,0.8,1,1.2c0.1,0.1,0.2,0.2,0.3,0.3
	c0.4,0.4,0.8,0.9,1.3,1.3c0.1,0.1,0.2,0.2,0.2,0.2c0.3,0.3,0.7,0.6,1,1c0.3,0.3,0.6,0.5,0.9,0.8c0.3,0.2,0.6,0.5,0.8,0.7
	c0.3,0.3,0.6,0.5,1,0.7c0.3,0.2,0.6,0.5,0.9,0.7c0.3,0.2,0.7,0.5,1,0.7c0.3,0.2,0.6,0.4,1,0.7c0.4,0.2,0.7,0.5,1.1,0.7
	c0.5,0.3,0.9,0.6,1.4,0.9c0.9,0.5,1.8,1,2.8,1.5c0.3,0.1,0.6,0.3,0.8,0.4c0.7,0.4,1.5,0.7,2.3,1.1c0.3,0.1,0.5,0.2,0.8,0.3
	c1,0.4,2,0.8,3,1.2c0.2,0.1,0.4,0.1,0.5,0.2c0.9,0.3,1.8,0.6,2.6,0.9c0.4,0.1,0.7,0.2,1.1,0.4c0.5,0.2,1,0.3,1.5,0.5
	c0.4,0.1,0.8,0.2,1.3,0.4c0.5,0.1,1,0.3,1.5,0.4c0.4,0.1,0.8,0.2,1.3,0.3s1,0.2,1.6,0.4c0.4,0.1,0.9,0.2,1.3,0.3
	c0.5,0.1,1.1,0.2,1.6,0.3c0.4,0.1,0.8,0.2,1.2,0.2c1.1,0.2,2.3,0.4,3.4,0.5c0.2,0,0.3,0,0.5,0.1c1,0.1,2,0.3,3,0.4
	c0.4,0,0.8,0.1,1.2,0.1c0.7,0.1,1.3,0.1,2,0.2c0.4,0,0.8,0.1,1.2,0.1c0.7,0,1.4,0.1,2,0.1c0.4,0,0.8,0,1.2,0c0.6,0,1.2,0,1.8,0
	c0.4,0,0.8,0,1.2,0c0.6,0,1.3,0,1.9,0c0.4,0,0.7,0,1.1,0c0.6,0,1.2,0,1.7-0.1c0.4,0,0.8,0,1.2-0.1c0.6,0,1.3-0.1,1.9-0.1
	c0.4,0,0.7,0,1.1-0.1c0.8-0.1,1.5-0.1,2.3-0.2c0.2,0,0.5,0,0.7-0.1c1-0.1,1.9-0.2,2.9-0.4c0.2,0,0.3,0,0.5-0.1
	c0.8-0.1,1.7-0.2,2.5-0.4c0.3-0.1,0.7-0.1,1-0.2c0.6-0.1,1.3-0.2,1.9-0.4c0.3-0.1,0.7-0.1,1-0.2c0.7-0.1,1.4-0.3,2-0.5
	c0.4-0.1,0.8-0.2,1.1-0.3c0.6-0.2,1.2-0.3,1.8-0.5c0.3-0.1,0.7-0.2,1-0.3c1-0.3,1.9-0.6,2.9-0.9c0.2-0.1,0.3-0.1,0.5-0.2
	c1.1-0.4,2.2-0.8,3.2-1.2c0.4-0.2,0.9-0.3,1.3-0.5c0.3-0.1,0.7-0.3,1-0.4c0.5-0.2,0.9-0.4,1.4-0.6c0.3-0.1,0.6-0.3,0.9-0.4
	c0.5-0.2,1-0.5,1.5-0.8c0.2-0.1,0.5-0.2,0.7-0.4c0.7-0.4,1.5-0.8,2.2-1.2c12-6.9,18-16,18-25.1l0.2,18.4c0,9.1-6,18.2-18,25.1
	c-0.7,0.4-1.5,0.8-2.2,1.2c-0.2,0.1-0.5,0.2-0.7,0.4c-0.5,0.3-1,0.5-1.5,0.8c-0.3,0.1-0.6,0.3-0.9,0.4c-0.5,0.2-0.9,0.4-1.4,0.6
	c-0.3,0.1-0.7,0.3-1,0.4c-0.3,0.1-0.6,0.3-1,0.4c-0.1,0-0.2,0.1-0.3,0.1c-1.1,0.4-2.1,0.8-3.2,1.2c-0.2,0.1-0.3,0.1-0.5,0.2
	c-0.9,0.3-1.9,0.6-2.9,0.9c-0.2,0-0.3,0.1-0.5,0.1c-0.2,0.1-0.4,0.1-0.6,0.1c-0.6,0.2-1.2,0.3-1.8,0.5c-0.4,0.1-0.8,0.2-1.1,0.3
	c-0.7,0.2-1.4,0.3-2,0.5c-0.3,0.1-0.5,0.1-0.8,0.2c-0.1,0-0.1,0-0.2,0c-0.6,0.1-1.3,0.2-1.9,0.4c-0.3,0.1-0.7,0.1-1,0.2
	c-0.8,0.1-1.7,0.3-2.5,0.4c-0.1,0-0.3,0-0.4,0.1c-1,0.1-1.9,0.3-2.9,0.4c-0.2,0-0.5,0-0.7,0.1c-0.7,0.1-1.5,0.2-2.3,0.2
	c0,0,0,0-0.1,0c-0.3,0-0.7,0-1,0.1c-0.6,0-1.3,0.1-1.9,0.1c-0.4,0-0.8,0-1.2,0.1c-0.6,0-1.2,0.1-1.7,0.1h-0.1c-0.3,0-0.7,0-1,0
	c-0.6,0-1.3,0-1.9,0c-0.4,0-0.8,0-1.2,0c-0.6,0-1.2,0-1.8,0c-0.1,0-0.2,0-0.3,0c-0.3,0-0.5,0-0.8,0c-0.7,0-1.4-0.1-2-0.1
	c-0.4,0-0.8-0.1-1.2-0.1c-0.7,0-1.3-0.1-2-0.2c-0.2,0-0.5,0-0.7-0.1c-0.2,0-0.3,0-0.5-0.1c-1-0.1-2-0.2-3-0.4c-0.2,0-0.3,0-0.5-0.1
	c-1.2-0.2-2.3-0.3-3.4-0.5c-0.1,0-0.2,0-0.3-0.1c-0.3-0.1-0.6-0.1-0.9-0.2c-0.5-0.1-1.1-0.2-1.6-0.3c-0.4-0.1-0.9-0.2-1.3-0.3
	c-0.5-0.1-1-0.2-1.6-0.4c-0.4-0.1-0.9-0.2-1.3-0.3c-0.5-0.1-1-0.3-1.5-0.4c-0.4-0.1-0.8-0.2-1.3-0.4c-0.5-0.1-1-0.3-1.5-0.5
	c-0.2-0.1-0.4-0.1-0.6-0.2c-0.2,0-0.3-0.1-0.5-0.2c-0.9-0.3-1.8-0.6-2.6-0.9c-0.2-0.1-0.4-0.1-0.5-0.2c-1-0.4-2-0.8-3-1.2
	c-0.3-0.1-0.5-0.2-0.8-0.3c-0.8-0.3-1.5-0.7-2.3-1.1c-0.3-0.1-0.6-0.3-0.8-0.4c-1-0.5-1.9-1-2.8-1.5c-0.3-0.1-0.5-0.3-0.7-0.4
	c-0.2-0.1-0.4-0.3-0.7-0.4c-0.4-0.2-0.7-0.5-1.1-0.7c-0.3-0.2-0.7-0.4-1-0.7c-0.3-0.2-0.7-0.5-1-0.7c-0.3-0.2-0.6-0.4-0.9-0.7
	c-0.3-0.2-0.6-0.5-1-0.7c-0.3-0.2-0.6-0.5-0.8-0.7c-0.3-0.3-0.6-0.5-0.9-0.8c-0.1-0.1-0.2-0.2-0.4-0.3c-0.2-0.2-0.5-0.4-0.7-0.7
	c-0.1-0.1-0.2-0.2-0.2-0.2c-0.4-0.4-0.9-0.9-1.3-1.3c-0.1-0.1-0.2-0.2-0.3-0.3c-0.3-0.4-0.7-0.8-1-1.2c-0.1-0.1-0.1-0.2-0.2-0.3
	l-0.1-0.1c-0.3-0.4-0.6-0.8-0.9-1.2c-0.1-0.1-0.1-0.2-0.2-0.3c-0.3-0.5-0.6-0.9-0.9-1.4c0-0.1-0.1-0.2-0.1-0.2
	c-0.1-0.2-0.2-0.3-0.3-0.5c-0.1-0.1-0.1-0.3-0.2-0.4c-0.2-0.3-0.3-0.6-0.5-0.9c-0.1-0.3-0.2-0.5-0.4-0.8c-0.1-0.3-0.3-0.6-0.4-0.9
	c-0.1-0.1-0.1-0.3-0.2-0.4c0-0.1-0.1-0.2-0.1-0.4c-0.1-0.3-0.2-0.6-0.3-0.9c-0.1-0.3-0.2-0.5-0.2-0.8c-0.1-0.3-0.1-0.6-0.2-0.9
	c0-0.2-0.1-0.3-0.1-0.5c0-0.1,0-0.2-0.1-0.3c-0.1-0.3-0.1-0.6-0.1-0.9c0-0.3-0.1-0.5-0.1-0.8s0-0.6-0.1-0.9c0-0.2,0-0.4,0-0.5
	c0-0.2,0-0.4,0-0.5L1,90.3C1,90.8,1,91.1,1,91.5z"/>
<path class="st3" d="M122.2,94.8c2.4-10.5-3.3-21.5-17.1-29.5c-23.7-13.8-62.2-13.8-86.1,0C5,73.3-0.8,84.3,1.5,95"/>
<path class="st1" d="M128.4,259.8c2.4-10.5-3.3-21.5-17.1-29.5c-23.7-13.8-62.2-13.8-86.1,0c-14,8.1-19.8,19.1-17.5,29.6
	c0,0-0.3,41.3,60.4,41.3C128.8,301.1,128.4,259.8,128.4,259.8z"/>
<path class="st2" d="M7.2,256.5c0,0.3,0,0.6,0.1,0.9c0,0.3,0.1,0.5,0.1,0.8s0.1,0.6,0.1,0.9c0,0.3,0.1,0.5,0.2,0.8
	c0.1,0.3,0.1,0.6,0.2,0.9s0.2,0.5,0.2,0.8c0.1,0.3,0.2,0.6,0.3,0.9c0.1,0.3,0.2,0.5,0.3,0.8c0.1,0.3,0.3,0.6,0.4,0.9
	c0.1,0.3,0.2,0.5,0.4,0.8c0.1,0.3,0.3,0.6,0.5,0.9c0.2,0.3,0.3,0.6,0.5,1c0,0.1,0.1,0.2,0.1,0.2c0.3,0.5,0.6,0.9,0.9,1.4
	c0.1,0.1,0.1,0.2,0.2,0.3c0.3,0.5,0.7,0.9,1,1.4c0.1,0.1,0.1,0.2,0.2,0.3c0.3,0.4,0.6,0.8,1,1.2c0.1,0.1,0.2,0.2,0.3,0.3
	c0.4,0.4,0.8,0.9,1.3,1.3c0.1,0.1,0.2,0.2,0.2,0.2c0.3,0.3,0.7,0.6,1,1c0.3,0.3,0.6,0.5,0.9,0.8c0.3,0.2,0.6,0.5,0.8,0.7
	c0.3,0.3,0.6,0.5,1,0.7c0.3,0.2,0.6,0.5,0.9,0.7c0.3,0.2,0.7,0.5,1,0.7c0.3,0.2,0.6,0.4,1,0.7c0.4,0.2,0.7,0.5,1.1,0.7
	c0.5,0.3,0.9,0.6,1.4,0.9c0.9,0.5,1.8,1,2.8,1.5c0.3,0.1,0.6,0.3,0.8,0.4c0.7,0.4,1.5,0.7,2.3,1.1c0.3,0.1,0.5,0.2,0.8,0.3
	c1,0.4,2,0.8,3,1.2c0.2,0.1,0.4,0.1,0.5,0.2c0.9,0.3,1.8,0.6,2.6,0.9c0.4,0.1,0.7,0.2,1.1,0.4c0.5,0.2,1,0.3,1.5,0.5
	c0.4,0.1,0.8,0.2,1.3,0.4c0.5,0.1,1,0.3,1.5,0.4c0.4,0.1,0.8,0.2,1.3,0.3s1,0.2,1.6,0.4c0.4,0.1,0.9,0.2,1.3,0.3
	c0.5,0.1,1.1,0.2,1.6,0.3c0.4,0.1,0.8,0.2,1.2,0.2c1.1,0.2,2.3,0.4,3.4,0.5c0.2,0,0.3,0,0.5,0.1c1,0.1,2,0.3,3,0.4
	c0.4,0,0.8,0.1,1.2,0.1c0.7,0.1,1.3,0.1,2,0.2c0.4,0,0.8,0.1,1.2,0.1c0.7,0,1.4,0.1,2,0.1c0.4,0,0.8,0,1.2,0c0.6,0,1.2,0,1.8,0
	c0.4,0,0.8,0,1.2,0c0.6,0,1.3,0,1.9,0c0.4,0,0.7,0,1.1,0c0.6,0,1.2,0,1.7-0.1c0.4,0,0.8,0,1.2-0.1c0.6,0,1.3-0.1,1.9-0.1
	c0.4,0,0.7,0,1.1-0.1c0.8-0.1,1.5-0.1,2.3-0.2c0.2,0,0.5,0,0.7-0.1c1-0.1,1.9-0.2,2.9-0.4c0.2,0,0.3,0,0.5-0.1
	c0.8-0.1,1.7-0.2,2.5-0.4c0.3-0.1,0.7-0.1,1-0.2c0.6-0.1,1.3-0.2,1.9-0.4c0.3-0.1,0.7-0.1,1-0.2c0.7-0.1,1.4-0.3,2-0.5
	c0.4-0.1,0.8-0.2,1.1-0.3c0.6-0.2,1.2-0.3,1.8-0.5c0.3-0.1,0.7-0.2,1-0.3c1-0.3,1.9-0.6,2.9-0.9c0.2-0.1,0.3-0.1,0.5-0.2
	c1.1-0.4,2.2-0.8,3.2-1.2c0.4-0.2,0.9-0.3,1.3-0.5c0.3-0.1,0.7-0.3,1-0.4c0.5-0.2,0.9-0.4,1.4-0.6c0.3-0.1,0.6-0.3,0.9-0.4
	c0.5-0.2,1-0.5,1.5-0.8c0.2-0.1,0.5-0.2,0.7-0.4c0.7-0.4,1.5-0.8,2.2-1.2c12-6.9,18-16,18-25.1l0.2,18.4c0,9.1-6,18.2-18,25.1
	c-0.7,0.4-1.5,0.8-2.2,1.2c-0.2,0.1-0.5,0.2-0.7,0.4c-0.5,0.3-1,0.5-1.5,0.8c-0.3,0.1-0.6,0.3-0.9,0.4c-0.5,0.2-0.9,0.4-1.4,0.6
	c-0.3,0.1-0.7,0.3-1,0.4c-0.3,0.1-0.6,0.3-1,0.4c-0.1,0-0.2,0.1-0.3,0.1c-1.1,0.4-2.1,0.8-3.2,1.2c-0.2,0.1-0.3,0.1-0.5,0.2
	c-0.9,0.3-1.9,0.6-2.9,0.9c-0.2,0-0.3,0.1-0.5,0.1c-0.2,0.1-0.4,0.1-0.6,0.1c-0.6,0.2-1.2,0.3-1.8,0.5c-0.4,0.1-0.8,0.2-1.1,0.3
	c-0.7,0.2-1.4,0.3-2,0.5c-0.3,0.1-0.5,0.1-0.8,0.2c-0.1,0-0.1,0-0.2,0c-0.6,0.1-1.3,0.2-1.9,0.4c-0.3,0.1-0.7,0.1-1,0.2
	c-0.8,0.1-1.7,0.3-2.5,0.4c-0.1,0-0.3,0-0.4,0.1c-1,0.1-1.9,0.3-2.9,0.4c-0.2,0-0.5,0-0.7,0.1c-0.7,0.1-1.5,0.2-2.3,0.2
	c0,0,0,0-0.1,0c-0.3,0-0.7,0-1,0.1c-0.6,0-1.3,0.1-1.9,0.1c-0.4,0-0.8,0-1.2,0.1c-0.6,0-1.2,0.1-1.7,0.1h-0.1c-0.3,0-0.7,0-1,0
	c-0.6,0-1.3,0-1.9,0c-0.4,0-0.8,0-1.2,0c-0.6,0-1.2,0-1.8,0c-0.1,0-0.2,0-0.3,0c-0.3,0-0.5,0-0.8,0c-0.7,0-1.4-0.1-2-0.1
	c-0.4,0-0.8-0.1-1.2-0.1c-0.7,0-1.3-0.1-2-0.2c-0.2,0-0.5,0-0.7-0.1c-0.2,0-0.3,0-0.5-0.1c-1-0.1-2-0.2-3-0.4c-0.2,0-0.3,0-0.5-0.1
	c-1.2-0.2-2.3-0.3-3.4-0.5c-0.1,0-0.2,0-0.3-0.1c-0.3-0.1-0.6-0.1-0.9-0.2c-0.5-0.1-1.1-0.2-1.6-0.3c-0.4-0.1-0.9-0.2-1.3-0.3
	c-0.5-0.1-1-0.2-1.6-0.4c-0.4-0.1-0.9-0.2-1.3-0.3c-0.5-0.1-1-0.3-1.5-0.4c-0.4-0.1-0.8-0.2-1.3-0.4c-0.5-0.1-1-0.3-1.5-0.5
	c-0.2-0.1-0.4-0.1-0.6-0.2c-0.2,0-0.3-0.1-0.5-0.2c-0.9-0.3-1.8-0.6-2.6-0.9c-0.2-0.1-0.4-0.1-0.5-0.2c-1-0.4-2-0.8-3-1.2
	c-0.3-0.1-0.5-0.2-0.8-0.3c-0.8-0.3-1.5-0.7-2.3-1.1c-0.3-0.1-0.6-0.3-0.8-0.4c-1-0.5-1.9-1-2.8-1.5c-0.3-0.1-0.5-0.3-0.7-0.4
	c-0.2-0.1-0.4-0.3-0.7-0.4c-0.4-0.2-0.7-0.5-1.1-0.7c-0.3-0.2-0.7-0.4-1-0.7c-0.3-0.2-0.7-0.5-1-0.7c-0.3-0.2-0.6-0.4-0.9-0.7
	c-0.3-0.2-0.6-0.5-1-0.7c-0.3-0.2-0.6-0.5-0.8-0.7c-0.3-0.3-0.6-0.5-0.9-0.8c-0.1-0.1-0.2-0.2-0.4-0.3c-0.2-0.2-0.5-0.4-0.7-0.7
	c-0.1-0.1-0.2-0.2-0.2-0.2c-0.4-0.4-0.9-0.9-1.3-1.3c-0.1-0.1-0.2-0.2-0.3-0.3c-0.3-0.4-0.7-0.8-1-1.2c-0.1-0.1-0.1-0.2-0.2-0.3
	l-0.1-0.1c-0.3-0.4-0.6-0.8-0.9-1.2c-0.1-0.1-0.1-0.2-0.2-0.3c-0.3-0.5-0.6-0.9-0.9-1.4c0-0.1-0.1-0.2-0.1-0.2
	c-0.1-0.2-0.2-0.3-0.3-0.5c-0.1-0.1-0.1-0.3-0.2-0.4c-0.2-0.3-0.3-0.6-0.5-0.9c-0.1-0.3-0.2-0.5-0.4-0.8c-0.1-0.3-0.3-0.6-0.4-0.9
	c-0.1-0.1-0.1-0.3-0.2-0.4c0-0.1-0.1-0.2-0.1-0.4c-0.1-0.3-0.2-0.6-0.3-0.9s-0.2-0.5-0.2-0.8c-0.1-0.3-0.1-0.6-0.2-0.9
	c0-0.2-0.1-0.3-0.1-0.5c0-0.1,0-0.2-0.1-0.3c-0.1-0.3-0.1-0.6-0.1-0.9c0-0.3-0.1-0.5-0.1-0.8s0-0.6-0.1-0.9c0-0.2,0-0.4,0-0.5
	c0-0.2,0-0.4,0-0.5l-0.2-18.4C7.2,255.8,7.2,256.1,7.2,256.5z"/>
<path class="st3" d="M128.4,259.8c2.4-10.5-3.3-21.5-17.1-29.5c-23.7-13.8-62.2-13.8-86.1,0c-14,8.1-19.8,19.1-17.5,29.6"/>
<path class="st2" d="M309.1,197.5c-0.1,0.2-0.1,0.3-0.2,0.4c0,0,0,0,0,0.1c-0.1,0.1-0.2,0.2-0.3,0.3c-0.1,0.1-0.3,0.2-0.5,0.3
	l-75.8,44.1c-0.2,0.1-0.3,0.2-0.5,0.3c0,0-0.1,0-0.1,0.1c-0.1,0-0.2,0.1-0.4,0.1c-0.1,0-0.3,0.1-0.4,0.1c-0.2,0-0.3,0.1-0.5,0.1
	l-0.1-0.2c-0.2,0-0.4-0.2-0.6-0.2h-0.1c-0.2,0-0.4,0.2-0.6,0.2l-0.1,0.1c-0.2,0-0.4,0-0.6-0.1h-0.1c-0.2,0-0.4-0.1-0.5-0.1h-0.1
	c-0.2-0.1-0.4-0.2-0.6-0.3l-126.7-73.2c-0.7-0.4-1.1-1-1.1-1.6v10.4c0,0.6,0.4,1.1,1.1,1.6L227,253.1c0.2,0.1,0.4,0.2,0.5,0.3h0.1
	c0.1,0,0.2,0.1,0.3,0.1c0.1,0,0.1,0,0.2,0h0.1h0.1c0.1,0,0.2,0,0.4,0.1h0.1h0.1h0.1c0.1,0,1.3,0,1.3,0c0.1,0,0.2,0,0.3,0h0.1
	c0.1,0,0.3-0.1,0.4-0.1s0.1,0,0.2,0c0.1,0,0.1,0,0.2-0.1c0.1,0,0.1,0,0.1-0.1c0.2-0.1,0.4-0.2,0.5-0.3l75.8-44.1
	c0.2-0.1,0.3-0.2,0.4-0.3c0.1-0.1,0.2-0.2,0.2-0.3c0,0,0,0,0-0.1c0,0,0,0,0-0.1c0,0,0-0.1,0.1-0.1c0-0.1,0.3-0.6,0.3-0.6v-4.3V197
	C309.2,197.1,309.1,197.3,309.1,197.5z"/>
<path class="st4" d="M308,195.5c1.5,0.9,1.5,2.2,0,3.1l-75.8,44.1c-1.5,0.9-3.9,0.9-5.4,0l-126.7-73.2c-1.5-0.9-1.5-2.2,0-3.1
	l75.8-44.1c1.5-0.9,3.9-0.9,5.4,0L308,195.5z"/>
<path class="st5" d="M220.2,199l-39.1-22.6c-1-0.6-2.6-0.6-3.6,0L155,189.6c-1,0.6-1,1.5,0,2.1l39.1,22.6c1,0.6,2.6,0.6,3.6,0
	l22.5-13.1C221.2,200.5,221.2,199.6,220.2,199z"/>
<path class="st6" d="M178.3,117.6c0,1.7,1.2,3.8,2.7,4.7l126.7,73.2c0.9,0.5,1.6,0.5,2.1,0c-0.1,0.1-0.1,0.1-0.2,0.2l5.4-3.1
	c0.1-0.1,0.2-0.1,0.3-0.2c0,0-0.6-0.1-0.5-0.1c0,0-0.5-1.3-0.5-1.4l1-87.7l0.8-0.1V103v-0.1v-0.1l-0.2-0.1h-0.2l0.1-0.1
	c0,0,0.1-0.1,0-0.1v-0.1v-0.1v-0.1v-0.1V102v-0.1c0,0,0-0.1-0.1-0.1v-0.1c0,0,0-0.1-0.1-0.1c0,0,0-0.1-0.1-0.1
	c0-0.1-0.1-0.1-0.1-0.2c0-0.1-0.1-0.1-0.1-0.2c-0.1-0.1-0.1-0.2-0.2-0.3c-0.1-0.1-0.1-0.2-0.2-0.2c0-0.1-0.1-0.1-0.1-0.2l-0.1-0.1
	l-0.1-0.1l-0.1-0.1l-0.1-0.1l-0.1-0.1l-0.1-0.1l-0.1-0.1c0,0,0,0-0.1,0l-0.1-0.1l-0.1-0.1l-0.1-0.1c0,0-0.1,0-0.1-0.1l-127-74h-0.1
	c0,0-0.1,0-0.1-0.1c0,0,0,0-0.1,0h-0.1h-0.1c0,0,0,0-0.1,0h-0.1c0,0,0,0-0.1,0h-0.1c0,0,0,0-0.1,0h-0.1c0,0,0,0-0.1,0v-0.4
	c-0.1,0-0.1-0.3-0.2-0.3v0.4c-0.1,0-0.1,0.2-0.2,0.2v0.1c-0.1,0-0.1,0.1-0.2,0.1l-5.4,3.1c0.1,0,0.1-0.1,0.2-0.1s0.1,0,0.2,0
	c0.1,0,0.1,0,0.2,0c0.1,0,0.1,0,0.2,0c-1-0.1-1.6,0.6-1.6,1.9L178.3,117.6z M180.7,28.1c-0.2-0.1-0.3-0.1-0.5-0.1c0.1,0,0.1,0,0.2,0
	C180.5,28.1,180.6,28.1,180.7,28.1z M309.8,103.5c-0.1-0.2-0.2-0.4-0.4-0.6C309.6,103.1,309.7,103.3,309.8,103.5z M309.8,103.6
	c0.1,0.2,0.2,0.4,0.3,0.6C310.1,104,310,103.8,309.8,103.6z M310.2,104.1c0,0.1,0.1,0.2,0.1,0.3
	C310.3,104.3,310.2,104.3,310.2,104.1z M310,195.3C310,195.3,309.9,195.3,310,195.3c0.3-0.3,0.4-0.8,0.4-1.4l0.2-87.7
	c0-0.4-0.1-0.9-0.2-1.3c0.1,0.2,0.2,0.4,0.2,0.7c0,0.2,0,0.4,0,0.7l-0.3,87.7c0,0.2,0,0.4-0.1,0.6c0,0.2-0.1,0.3-0.2,0.5
	C310.1,195.1,310,195.1,310,195.3z M308.5,101.8c0.2,0.1,0.3,0.3,0.5,0.5C308.8,102.1,308.7,102.1,308.5,101.8z M307.9,101.5
	c0.2,0.1,0.4,0.2,0.5,0.4C308.3,101.8,308.1,101.6,307.9,101.5z M180.7,28.1c0.1,0,0.2,0.1,0.3,0.1c0.1,0,0.2,0.1,0.3,0.1
	C181,28.3,180.9,28.1,180.7,28.1z"/>
<path class="st7" d="M186,45.3l-0.2,65.7c0,2.3,1.2,4.4,3.2,5.5l110.7,63.9c1.4,0.8,3.2-0.2,3.2-1.8l0.2-65.7c0-2.3-1.2-4.4-3.2-5.5
	l-110.7-64C187.8,42.6,186,43.6,186,45.3z"/>
<path class="st4" d="M259.9,113.8c0,0.1,0,0.1,0,0.2C260,113.8,260,113.8,259.9,113.8z M259.8,113.3v0.1
	C259.9,113.5,259.9,113.3,259.8,113.3z M259.8,113.1C259.8,113.1,259.8,113.1,259.8,113.1C259.8,113.1,259.8,113.1,259.8,113.1z
	 M246,92.3C246.1,92.3,246.1,92.3,246,92.3C246.1,92.3,246.1,92.3,246,92.3z M245.3,91.8C245.4,91.8,245.4,91.8,245.3,91.8
	C245.4,91.8,245.4,91.8,245.3,91.8z M244.6,91.3C244.6,91.3,244.7,91.3,244.6,91.3C244.7,91.3,244.6,91.3,244.6,91.3z M243.7,90.6
	C243.7,90.6,243.7,90.8,243.7,90.6C243.7,90.8,243.7,90.6,243.7,90.6z M242.9,90.3C243,90.3,243,90.3,242.9,90.3
	C243,90.3,243,90.3,242.9,90.3z M242.7,90.1C242.7,90.1,242.8,90.1,242.7,90.1C242.8,90.1,242.7,90.1,242.7,90.1z M242.5,90
	l-0.1,21.6l-0.1,21.6c10.4,6,18.8,1.2,18.9-10.7c0-2.7-0.4-5.6-1.2-8.5l-17.6-2.4L242.5,90z"/>
<path class="st2" d="M223.7,90l-0.1,21.6l18.8,21.6v-21.6L223.7,90z"/>
<path class="st6" d="M242.5,90h-18.8l18.7,21.6L242.5,90z"/>
<path class="st1" d="M242.5,90l-0.1,21.6L260,114v-0.1c0-0.1,0-0.1,0-0.2c0-0.1,0-0.2-0.1-0.2v-0.1c0-0.1,0-0.1,0-0.2v-0.1
	c0-0.1,0-0.1-0.1-0.2c0,0,0,0,0-0.1c-0.1-0.2-0.1-0.4-0.2-0.6c-2.5-7.6-7.5-15.1-13.4-19.9c-0.2-0.2-0.4-0.3-0.7-0.5
	c-0.1,0-0.1-0.1-0.2-0.1c-0.1-0.1-0.3-0.2-0.4-0.3c-0.1,0-0.1-0.1-0.2-0.1c-0.1,0-0.1-0.1-0.2-0.1s-0.1-0.1-0.2-0.1c0,0,0,0-0.1,0
	c-0.1,0-0.1-0.1-0.2-0.1c0,0,0,0-0.1,0c-0.1,0-0.1-0.1-0.2-0.1c-0.1,0-0.1-0.1-0.2-0.1s-0.1-0.1-0.2-0.1c0,0,0,0-0.1,0
	c-0.1,0-0.1-0.1-0.2-0.1c0,0,0,0-0.1,0C242.6,90.1,242.6,90,242.5,90z"/>
<path class="st3" d="M260,114C260,114,260,113.8,260,114c0-0.1,0-0.2-0.1-0.2c0-0.1,0-0.2-0.1-0.2v-0.1c0-0.1,0-0.1,0-0.2v-0.1
	c0-0.1,0-0.1-0.1-0.2c0,0,0,0,0-0.1c-0.1-0.2-0.1-0.4-0.2-0.6c-2.5-7.6-7.5-15.1-13.4-19.9c-0.2-0.2-0.4-0.3-0.7-0.5
	c-0.1,0-0.1-0.1-0.2-0.1c-0.1-0.1-0.3-0.2-0.4-0.3c-0.1,0-0.1-0.1-0.2-0.1c-0.1,0-0.1-0.1-0.2-0.1c-0.1,0-0.1-0.1-0.2-0.1
	c0,0,0,0-0.1,0c-0.1,0-0.1-0.1-0.2-0.1c0,0,0,0-0.1,0c-0.1,0-0.1-0.1-0.2-0.1c-0.1,0-0.1-0.1-0.2-0.1c-0.1,0-0.1-0.1-0.2-0.1
	c0,0,0,0-0.1,0c-0.1,0-0.1-0.1-0.2-0.1c0,0,0,0-0.1,0c-0.1,0-0.1-0.1-0.2-0.1"/>
<path class="st1" d="M26.8,52.3l38-20.7l46.3,25.2l-1.6,8.7L89.3,85.3H67.2L42.7,68.6L26.8,52.3z"/>
<path class="st3" d="M63.5,30.3c0.8-0.4,1.2-1.3,1.2-2.2v-6.7c0-1.9-2.1-3.1-3.8-2.2"/>
<path class="st3" d="M79.6,39.6c0.8-0.4,1.2-1.3,1.2-2.2v-6.7c0-1.9-2.1-3.1-3.8-2.2"/>
<path class="st6" d="M59.8,18.1l-11.1,2.2c-0.1,0-0.2,0.1-0.3,0.1L16.3,39.1c-0.8,0.5-0.3,1.7,0.6,1.5L28,38.3
	c0.1,0,0.2-0.1,0.3-0.1l32.1-18.7C61.2,19.1,60.7,17.8,59.8,18.1z"/>
<path class="st6" d="M64.6,29.6L32.4,48.3c-0.8,0.5-0.3,1.7,0.6,1.5l11.1-2.2c0.1,0,0.2-0.1,0.3-0.1l32.2-18.7
	c0.8-0.5,0.3-1.7-0.6-1.5l-11.1,2.2C64.7,29.6,64.7,29.6,64.6,29.6z"/>
<path class="st3" d="M44.2,60.1l35.3-20.5c0.8-0.5,1.7-0.5,2.5,0l28.1,16.2c1.7,1,1.7,3.4,0,4.3"/>
<path class="st4" d="M77.1,114.5c0,1.9-2.1,3.1-3.8,2.2L15.1,82.8c-0.8-0.4-1.3-1.3-1.3-2.2l0.1-36.1c0-1.2-0.5-3.3,1-3.6L25,39
	c1.6-0.3,3,0.9,3,2.5v6.4c0,1.6,1.4,2.8,3,2.5l10.2-2c1.6-0.3,3,0.9,3,2.5v8c0,0.9,0.5,1.7,1.3,2.2L76,78.5c0.8,0.4,1.3,1.3,1.3,2.2
	"/>
<path class="st6" d="M37.8,73.1v7.7c0,1.2,0.6,2.3,1.7,2.9l4,2.3c1.1,0.6,2.5-0.2,2.5-1.4V77c0-1.2-0.6-2.3-1.7-2.9l-4-2.3
	C39.2,71.1,37.8,71.8,37.8,73.1z M26.8,66.8v7.7c0,1.2,0.6,2.3,1.7,2.9l4,2.3c1.1,0.6,2.5-0.2,2.5-1.4v-7.7c0-1.2-0.6-2.3-1.7-2.9
	l-4-2.3C28.2,64.8,26.8,65.6,26.8,66.8z M51.2,77.8V98c0,1.2,0.6,2.3,1.7,2.9l9.4,5.4c1.1,0.6,2.5-0.2,2.5-1.4l0.1-20.1
	c0-1.2-0.6-2.3-1.7-2.9l-9.4-5.4C52.6,75.8,51.2,76.6,51.2,77.8z"/>
<path class="st6" d="M78.5,78.5l31.6-18.4c1.7-1,3.8,0.2,3.8,2.2l-0.1,33.8c0,0.9-0.5,1.7-1.2,2.2L81,116.6c-1.7,1-3.8-0.2-3.8-2.2
	l0.1-33.8C77.2,79.8,77.7,79,78.5,78.5z"/>
<path class="st4" d="M93.7,56.6L89.2,6.3c0,1.4-0.9,2.8-2.8,3.9c-3.7,2.1-9.7,2.1-13.4,0c-1.9-1.1-2.8-2.5-2.8-3.9l-4.5,50.1
	c0,0.1,0,0.1,0,0.2c0,0.2,0,0.4,0,0.6v0.1c0,2.1,1.4,4.2,4.1,5.8c5.5,3.2,14.4,3.2,19.9,0C92.8,61.3,94.1,59,93.7,56.6z"/>
<path class="st8" d="M68.3,32.5c0,1.7,1.1,3.4,3.4,4.7c4.5,2.6,11.8,2.6,16.2,0c2.2-1.3,3.3-3,3.3-4.7"/>
<path class="st3" d="M70.1,6.6c0-1.4,1-2.8,2.8-3.9c3.8-2.2,9.8-2.2,13.6,0c1.9,1.1,2.8,2.5,2.8,3.9"/>
<path class="st8" d="M67.2,43c0,1.9,1.2,3.7,3.7,5.2c4.9,2.8,12.9,2.8,17.8,0c2.4-1.4,3.7-3.3,3.7-5.1"/>
<path class="st6" d="M412.9,265.8C412.9,265.8,412.9,265.8,412.9,265.8c0-0.2,0-0.3,0-0.3v-0.1v-0.1c0,0,0,0,0-0.1
	c0-0.1,0-0.2,0-0.2V265c0,0,0,0,0-0.1c0-0.1,0-0.1,0-0.2v-0.1c0,0,0,0,0-0.1v-0.1v-0.1c0,0,0,0,0-0.1c0,0,0,0,0-0.1c0,0,0,0,0-0.1
	v-0.1c0,0,0,0,0-0.1c0-0.1-0.1-0.1-0.1-0.2c0,0,0-0.1-0.1-0.1l-0.1-0.1l-0.1-0.1c0,0,0,0-0.1-0.1c-0.1-0.1-0.1-0.1-0.2-0.2
	c-0.1-0.1-0.2-0.2-0.3-0.2c-0.1-0.1-0.1-0.1-0.2-0.2l-0.1-0.1c-0.1-0.1-0.3-0.2-0.4-0.3c0,0,0,0-0.1,0c-0.1-0.1-0.3-0.2-0.4-0.3
	c0,0,0,0-0.1-0.1c0,0,0,0-0.1,0c-0.2-0.1-0.4-0.3-0.6-0.4c0,0,0,0-0.1,0c-0.3-0.2-0.5-0.3-0.8-0.5c0,0,0,0-0.1,0
	c-0.3-0.2-0.6-0.4-0.9-0.5c-0.1,0-0.2-0.1-0.2-0.1c-0.3-0.1-0.5-0.3-0.7-0.4c0,0-0.1,0-0.1-0.1c-0.2-0.1-0.5-0.2-0.7-0.4
	c0,0-0.1,0-0.1-0.1c0,0-0.1,0-0.1-0.1c-0.2-0.1-0.3-0.2-0.5-0.2c-0.1,0-0.1-0.1-0.2-0.1s-0.1,0-0.2-0.1c-0.1-0.1-0.2-0.1-0.4-0.2
	c-0.2-0.1-0.3-0.1-0.5-0.2c-0.2-0.1-0.4-0.1-0.5-0.2c0,0,0,0-0.1,0h-0.1c-0.2-0.1-0.4-0.1-0.6-0.2s-0.5-0.1-0.7-0.2h-0.1
	c0,0,0,0-0.1,0c-0.2,0-0.5-0.1-0.7-0.1c0,0,0,0-0.1,0c-0.2,0-0.4,0-0.6-0.1c-0.2,0-0.3,0-0.5,0c0,0,0,0-0.1,0c0,0,0,0-0.1,0
	s-0.2,0-0.3,0h-0.1c-0.1,0-0.2,0-0.2,0h-0.1c-0.1,0-0.2,0-0.2,0.1c-0.1,0-0.1,0.1-0.2,0.1L390,263c-0.4-0.1-0.8-0.2-1.2-0.3
	c-0.1,0-0.1,0-0.2-0.1c-0.8-0.2-1.6-0.5-2.3-0.8c-0.2-0.1-0.4-0.1-0.6-0.2c-0.6-0.2-1.2-0.4-1.8-0.7c-0.2-0.1-0.3-0.1-0.5-0.2
	c-0.7-0.3-1.4-0.6-2.1-0.9c-0.1,0-0.2-0.1-0.3-0.1l20.1-11.7c0.1-0.1,0.2-0.1,0.3-0.2c0,0,0-0.1,0.1-0.1v-0.1c0,0,0,0,0-0.1v-0.1
	v-0.1v-0.1c0,0,0,0,0-0.1V247v-0.1v-0.1c0,0,0,0,0-0.1v-0.1v-0.1v-0.1v-0.1v-0.1v-0.1V246v-0.1c0-0.1,0-0.1-0.1-0.2
	c0-0.1,0-0.1-0.1-0.2c0,0,0,0,0-0.1c0,0,0,0,0-0.1c0-0.1,0-0.1-0.1-0.2c0-0.1,0-0.1-0.1-0.2v-0.1c-0.3-0.6-0.6-1.2-0.8-1.8
	c-0.2-0.5-0.5-1.1-0.7-1.6c0-0.1-0.1-0.2-0.1-0.2c-0.1-0.2-0.2-0.4-0.3-0.6c0-0.1-0.1-0.2-0.1-0.3c0-0.1-0.1-0.2-0.1-0.3
	c-0.1-0.1-0.1-0.3-0.2-0.4c0-0.1-0.1-0.2-0.1-0.3c-0.1-0.2-0.1-0.3-0.2-0.5c0-0.1-0.1-0.2-0.1-0.2c-0.1-0.2-0.1-0.4-0.2-0.6v-0.1
	c-0.1-0.2-0.1-0.5-0.2-0.7c0-0.1,0-0.1,0-0.2c-0.1-0.2-0.1-0.4-0.2-0.6c0-0.1,0-0.1,0-0.2c-0.1-0.3-0.1-0.5-0.2-0.8
	c0-0.1,0-0.1,0-0.2c0-0.2-0.1-0.5-0.1-0.7c0-0.1,0-0.1,0-0.2c0-0.3-0.1-0.6-0.1-0.8c0-0.1,0-0.1,0-0.2c0-0.2,0-0.5,0-0.7
	c0-0.1,0-0.2,0-0.3c0-0.3,0-0.6,0-0.9l0.1-18.8c0-0.4,0-0.8,0-1.3c0-0.3,0-0.6,0-0.9c0-0.3,0-0.6,0-0.9c0-0.1,0-0.1,0-0.2
	c0-0.1,0-0.2,0-0.3c0-0.4,0-0.8,0-1.3c0-0.2,0-0.4,0-0.6c0-0.4,0-0.8,0-1.2c0-0.1,0-0.3,0-0.4v-0.1c0-0.6,0-1.1-0.1-1.7
	c0-0.3,0-0.6-0.1-0.9c0-0.2,0-0.3,0-0.5c0-0.4-0.1-0.8-0.1-1.2V201c0-0.1,0-0.2,0-0.3c0-0.2-0.1-0.4-0.1-0.6c0-0.2-0.1-0.3-0.1-0.5
	c0-0.1,0-0.2,0-0.3c0-0.1,0-0.1,0-0.2c-0.1-0.3-0.1-0.6-0.2-0.9c0-0.1,0-0.1,0-0.2s0-0.1-0.1-0.2c0-0.1-0.1-0.3-0.1-0.4
	c-0.1-0.3-0.1-0.5-0.2-0.8c0,0,0,0,0-0.1v-0.1c-0.1-0.2-0.1-0.4-0.2-0.6c-0.1-0.2-0.1-0.5-0.2-0.7V195v-0.1
	c-0.1-0.2-0.1-0.3-0.2-0.5c-0.1-0.2-0.2-0.4-0.2-0.7c0-0.1-0.1-0.2-0.1-0.2v-0.1c0-0.1-0.1-0.2-0.1-0.3c-0.1-0.2-0.2-0.4-0.3-0.6
	s-0.2-0.4-0.2-0.5c0,0,0,0,0-0.1c-0.1-0.2-0.2-0.4-0.3-0.7s-0.3-0.5-0.4-0.8c0,0,0-0.1-0.1-0.1c-0.2-0.4-0.4-0.8-0.7-1.2
	c0-0.1-0.1-0.1-0.1-0.2c-0.3-0.5-0.6-1-0.9-1.4l-0.1-0.1c-0.1-0.1-0.2-0.3-0.3-0.4c-0.2-0.2-0.3-0.5-0.5-0.7c0-0.1-0.1-0.1-0.1-0.2
	c-0.2-0.2-0.3-0.4-0.5-0.6c-0.1-0.1-0.1-0.1-0.2-0.2c0,0,0,0,0-0.1c-0.2-0.3-0.4-0.6-0.7-0.8l-0.1-0.1c-0.1-0.1-0.2-0.2-0.2-0.3
	c-0.1-0.1-0.3-0.3-0.4-0.4c-0.1-0.1-0.2-0.2-0.3-0.3c-0.1-0.1-0.2-0.2-0.3-0.3c-0.1-0.1-0.1-0.2-0.2-0.2c-0.1-0.1-0.3-0.3-0.4-0.4
	c-0.1-0.1-0.2-0.3-0.4-0.4l-0.1-0.1c-0.1-0.1-0.3-0.3-0.4-0.4c-0.2-0.1-0.3-0.3-0.5-0.4l-0.1-0.1c-0.1-0.1-0.2-0.2-0.4-0.3
	c-0.2-0.2-0.4-0.4-0.6-0.6l-0.1-0.1c-0.1-0.1-0.2-0.2-0.3-0.3c-0.2-0.2-0.5-0.4-0.7-0.6c-0.1-0.1-0.1-0.1-0.2-0.2
	c-0.1-0.1-0.2-0.1-0.3-0.2c-0.3-0.2-0.5-0.4-0.8-0.6c-0.1-0.1-0.2-0.1-0.3-0.2c-0.1,0-0.1-0.1-0.2-0.1c-0.3-0.3-0.6-0.5-1-0.7
	c-0.1-0.1-0.1-0.1-0.2-0.2c0,0,0,0-0.1,0c-0.4-0.3-0.8-0.6-1.2-0.9c0,0,0,0-0.1-0.1c-0.1-0.1-0.2-0.1-0.2-0.2
	c-0.3-0.2-0.6-0.4-0.9-0.6c-0.1,0-0.1-0.1-0.2-0.1c-0.1,0-0.1-0.1-0.2-0.1c-0.3-0.2-0.5-0.3-0.8-0.5c-0.1,0-0.2-0.1-0.2-0.1
	c-0.1-0.1-0.2-0.1-0.3-0.2c-0.4-0.2-0.8-0.5-1.2-0.7c-0.5-0.3-0.9-0.5-1.4-0.7c0,0-0.1,0-0.1-0.1c-0.1-0.1-0.2-0.1-0.4-0.2
	c-0.3-0.1-0.6-0.3-0.9-0.4c-0.1,0-0.1-0.1-0.2-0.1c-0.1-0.1-0.2-0.1-0.4-0.2c-0.3-0.1-0.5-0.2-0.8-0.3c-0.1,0-0.2-0.1-0.3-0.1
	s-0.2-0.1-0.3-0.1c-0.2-0.1-0.4-0.2-0.7-0.3c-0.1,0-0.2-0.1-0.3-0.1c-0.1,0-0.2-0.1-0.3-0.1c-0.2-0.1-0.4-0.1-0.6-0.2
	c-0.1,0-0.2-0.1-0.3-0.1s-0.2-0.1-0.3-0.1c-0.2-0.1-0.4-0.1-0.6-0.2c-0.1,0-0.2-0.1-0.3-0.1s-0.3-0.1-0.4-0.1
	c-0.2,0-0.3-0.1-0.5-0.1c-0.1,0-0.1,0-0.2,0c-0.1,0-0.3,0-0.4-0.1c-0.2,0-0.3-0.1-0.5-0.1c-0.1,0-0.1,0-0.2,0c-0.2,0-0.3,0-0.5-0.1
	c-0.2,0-0.3,0-0.5,0h-0.1c-0.2,0-0.4,0-0.6,0c-0.1,0-0.3,0-0.4,0c0,0,0,0-0.1,0c-0.2,0-0.4,0-0.5,0c-0.2,0-0.3,0-0.5,0
	c-0.1,0-0.2,0-0.3,0c-0.2,0-0.5,0.1-0.7,0.1h-0.1c-0.3,0.1-0.5,0.1-0.8,0.2c-0.1,0-0.1,0-0.2,0.1c-0.1,0-0.2,0.1-0.3,0.1
	s-0.2,0.1-0.4,0.1c-0.1,0-0.2,0.1-0.3,0.1c-0.3,0.1-0.6,0.3-0.8,0.4L337,183.1c0.3-0.2,0.6-0.3,0.8-0.4c0.1,0,0.2-0.1,0.3-0.1
	c0.2-0.1,0.4-0.2,0.7-0.2c0.1,0,0.1,0,0.2-0.1c0.3-0.1,0.6-0.1,0.9-0.2c0.2,0,0.5-0.1,0.7-0.1c0.1,0,0.3,0,0.4-0.1
	c0.2,0,0.3,0,0.5,0s0.4,0,0.6,0c0.1,0,0.3,0,0.4,0c0.2,0,0.4,0,0.7,0c0.2,0,0.3,0,0.5,0c0.2,0,0.4,0,0.7,0.1c0.2,0,0.3,0.1,0.5,0.1
	c0.2,0,0.4,0.1,0.7,0.1c0.2,0,0.3,0.1,0.5,0.1c0.2,0.1,0.4,0.1,0.7,0.2c0.2,0,0.4,0.1,0.6,0.2c0.2,0.1,0.4,0.1,0.6,0.2
	c0.2,0.1,0.4,0.1,0.6,0.2c0.2,0.1,0.4,0.1,0.6,0.2c0.2,0.1,0.4,0.2,0.7,0.3c0.2,0.1,0.4,0.2,0.6,0.2c0.2,0.1,0.5,0.2,0.8,0.3
	c0.2,0.1,0.4,0.2,0.6,0.2c0.3,0.1,0.6,0.3,0.9,0.4c0.2,0.1,0.3,0.2,0.5,0.2c0.5,0.2,0.9,0.5,1.4,0.7c0.4,0.2,0.8,0.5,1.2,0.7
	c0.2,0.1,0.3,0.2,0.5,0.3c0.3,0.2,0.5,0.3,0.8,0.5c0.1,0.1,0.3,0.2,0.4,0.3c0.3,0.2,0.6,0.4,0.9,0.6c0.1,0.1,0.2,0.1,0.3,0.2
	c0.4,0.3,0.8,0.6,1.2,0.9c0.1,0.1,0.2,0.1,0.3,0.2c0.2,0.2,0.5,0.4,0.7,0.5l-13,7.6c-0.1,0.1-0.2,0.1-0.4,0.2l-0.1,0.1
	c-0.1,0.1-0.2,0.1-0.2,0.2l-0.1,0.1c-0.1,0.1-0.1,0.1-0.2,0.2c0,0-0.1,0.1-0.1,0.2c-0.1,0.1-0.1,0.1-0.2,0.2
	c-0.1,0.1-0.2,0.3-0.3,0.5c0,0.1-0.1,0.2-0.1,0.3c0,0.1-0.1,0.1-0.1,0.2c-0.1,0.1-0.1,0.3-0.1,0.4v0.1c0,0.1-0.1,0.2-0.1,0.3
	c0,0.1,0,0.1,0,0.2c0,0.1-0.1,0.3-0.1,0.4s-0.1,0.2-0.1,0.3c0,0.1-0.1,0.1-0.1,0.2c0,0,0,0.1-0.1,0.1c-0.1,0.1-0.2,0.1-0.2,0.2
	l17.9-10.4c0.2,0.2,0.4,0.3,0.5,0.5c0.1,0.1,0.3,0.3,0.4,0.4c0.2,0.2,0.4,0.4,0.6,0.6c0.2,0.1,0.3,0.3,0.5,0.4
	c0.2,0.1,0.3,0.3,0.5,0.5c0.2,0.2,0.4,0.4,0.6,0.6c0.1,0.1,0.2,0.3,0.4,0.4c0.2,0.2,0.4,0.4,0.6,0.6c0.1,0.1,0.2,0.2,0.3,0.3
	c0.2,0.2,0.4,0.5,0.6,0.7c0.1,0.1,0.2,0.2,0.2,0.3c0.2,0.2,0.3,0.4,0.4,0.6c-0.1,0-0.2-0.1-0.3-0.1s-0.2-0.1-0.3-0.1h-0.1
	c-0.5-0.1-0.9-0.3-1.4-0.4h-0.1c-0.4-0.1-0.7-0.2-1.1-0.2c0,0,0,0-0.1,0c-0.2,0-0.3-0.1-0.5-0.1s-0.4-0.1-0.6-0.1c0,0,0,0-0.1,0
	c-0.3,0-0.7-0.1-1-0.1c-0.1,0-0.1,0-0.2,0s-0.2,0-0.2,0c-0.2,0-0.4,0-0.6,0h-0.1c-0.1,0-0.1,0-0.2,0c-0.2,0-0.5,0-0.7,0
	c-0.1,0-0.1,0-0.2,0H361c-0.3,0-0.7,0.1-1,0.1c-0.2,0-0.5,0.1-0.7,0.2h-0.1c-0.2,0-0.3,0.1-0.5,0.2c0,0,0,0-0.1,0
	c-0.2,0.1-0.3,0.1-0.5,0.2c-0.1,0-0.2,0.1-0.2,0.1c-0.2,0.1-0.5,0.2-0.7,0.4l-21.6,12.5c0.2-0.1,0.5-0.2,0.7-0.4
	c0.1,0,0.2-0.1,0.2-0.1c0.2-0.1,0.3-0.1,0.5-0.2c0.2-0.1,0.4-0.1,0.6-0.2h0.1c0.2-0.1,0.5-0.1,0.7-0.2c0.3-0.1,0.7-0.1,1-0.1
	c0.1,0,0.2,0,0.3,0c0.2,0,0.4,0,0.7,0c0.1,0,0.2,0,0.3,0c0.2,0,0.4,0,0.6,0c0.1,0,0.3,0,0.4,0c0.3,0,0.7,0.1,1,0.1
	c0.2,0,0.4,0.1,0.6,0.1c0.2,0,0.4,0.1,0.6,0.1c0.4,0.1,0.7,0.2,1.1,0.3h0.1c0.5,0.1,0.9,0.2,1.4,0.4c0.1,0,0.2,0.1,0.4,0.1
	c0.5,0.1,0.9,0.3,1.4,0.5c0.1,0,0.3,0.1,0.4,0.1c0.2,0.1,0.4,0.1,0.6,0.2c0.2,0.1,0.4,0.2,0.7,0.2c0.2,0.1,0.4,0.2,0.6,0.2
	c0.2,0.1,0.4,0.2,0.6,0.2c0.6,0.2,1.2,0.5,1.8,0.8c0.1,0.1,0.2,0.1,0.4,0.2c0.6,0.2,1.1,0.5,1.7,0.7c0.1,0,0.1,0.1,0.2,0.1
	c0.5,0.2,1,0.4,1.5,0.7c0.2,0.1,0.3,0.1,0.5,0.2c0.4,0.2,0.8,0.4,1.2,0.5c0.4,0.2,0.7,0.3,1.1,0.5c0.2,0.1,0.4,0.2,0.5,0.2
	s0.2,0.1,0.3,0.1l-11.9,6.9c-0.2,0.1-0.3,0.2-0.5,0.3l-0.1,0.1c-0.1,0.1-0.3,0.3-0.4,0.4c0,0,0,0,0,0.1c-0.1,0.1-0.2,0.3-0.3,0.4
	c0,0,0,0.1-0.1,0.1c0,0.1-0.1,0.2-0.1,0.3c0,0.1-0.1,0.2-0.1,0.3c0,0.1-0.1,0.1-0.1,0.2c0,0.1,0,0.1-0.1,0.2c0,0,0,0.1-0.1,0.1
	c-0.1,0.2-0.1,0.3-0.2,0.5v0.1v0.1c0,0.1-0.1,0.2-0.1,0.3c0,0.2-0.1,0.3-0.1,0.5c0,0,0,0,0,0.1v0.1c0,0.1,0,0.3-0.1,0.4
	c0,0.2,0,0.4-0.1,0.6v0.1c0,0.2,0,0.3,0,0.5c0,0.2,0,0.4,0,0.7c0,0.2,0,0.4,0,0.6v0.1c-0.3-0.4-0.7-0.9-1-1.3
	c-0.2-0.2-0.4-0.5-0.6-0.7c-0.8-0.9-1.5-1.9-2.2-2.8c-0.4-0.5-0.8-1-1.2-1.5c-0.1-0.2-0.3-0.4-0.4-0.6c-0.5-0.7-1.1-1.3-1.6-2
	c0,0,0,0,0-0.1c0,0,0,0-0.1,0c0,0,0,0-0.1,0c0,0,0,0-0.1,0c0,0,0,0-0.1,0c0,0,0,0-0.1,0c0,0,0,0-0.1,0c0,0,0,0-0.1,0c0,0,0,0-0.1,0
	L314.5,232h0.1c0,0,0.1,0,0.2,0c0.1,0,0.1,0,0.2,0s0.1,0.1,0.2,0.1c0.1,0.1,0.2,0.1,0.3,0.2c0.1,0.1,0.2,0.2,0.3,0.3
	c0.5,0.6,1,1.3,1.6,2c0.2,0.2,0.3,0.4,0.5,0.6c0.4,0.5,0.7,0.9,1.1,1.4l0.1,0.1c0.7,0.9,1.4,1.8,2.2,2.8c0.2,0.2,0.4,0.5,0.6,0.7
	c0.6,0.7,1.2,1.5,1.8,2.2c0.2,0.2,0.3,0.4,0.4,0.5c0.1,0.2,0.3,0.4,0.5,0.5c0.2,0.3,0.4,0.5,0.7,0.8c0.4,0.5,0.9,1,1.3,1.5
	c0.2,0.2,0.4,0.5,0.6,0.7c0.1,0.1,0.2,0.2,0.3,0.3c0.1,0.2,0.3,0.3,0.5,0.5c0.6,0.7,1.3,1.4,1.9,2.1c0.2,0.2,0.3,0.3,0.5,0.5
	c0.1,0.2,0.3,0.3,0.4,0.5c0.5,0.6,1.1,1.1,1.6,1.7c0.2,0.2,0.4,0.5,0.6,0.7c0.1,0.1,0.2,0.2,0.3,0.3c0.5,0.5,1,1,1.5,1.5
	c0.3,0.3,0.5,0.5,0.8,0.8c0.1,0.1,0.2,0.1,0.2,0.2c0.4,0.4,0.9,0.8,1.3,1.2c0.3,0.3,0.6,0.6,1,0.9c0.1,0.1,0.2,0.1,0.2,0.2
	c0.4,0.3,0.8,0.7,1.1,1c0.4,0.3,0.7,0.7,1.1,1c0.1,0.1,0.2,0.2,0.3,0.2c0.3,0.3,0.7,0.6,1,0.8c0.4,0.3,0.7,0.6,1.1,0.9
	c0.2,0.1,0.3,0.2,0.5,0.4c0.3,0.3,0.6,0.5,1,0.7c0.3,0.2,0.6,0.5,0.9,0.7c0.3,0.2,0.5,0.4,0.8,0.6c0.3,0.2,0.6,0.4,0.9,0.6
	c0.2,0.1,0.4,0.3,0.6,0.4c0.5,0.3,1,0.7,1.5,1c0.2,0.1,0.4,0.2,0.6,0.4c0.1,0,0.1,0.1,0.2,0.1c0.7,0.5,1.5,0.9,2.2,1.4
	c0.2,0.1,0.3,0.2,0.5,0.3c0.5,0.3,1.1,0.6,1.7,0.9c0,0,0,0,0.1,0s0.1,0.1,0.2,0.1c0.6,0.3,1.2,0.6,1.8,0.9c0.1,0,0.2,0.1,0.3,0.1
	c0.1,0.1,0.2,0.1,0.3,0.2c0.5,0.3,1.1,0.5,1.6,0.8c0.1,0.1,0.2,0.1,0.4,0.2c0,0,0.1,0,0.1,0.1c0.7,0.3,1.4,0.6,2.1,0.9
	c0,0,0.1,0,0.1,0.1c0.1,0,0.2,0.1,0.3,0.1c0.6,0.2,1.2,0.5,1.8,0.7c0.1,0,0.2,0.1,0.4,0.1c0.1,0,0.2,0.1,0.3,0.1
	c0.8,0.3,1.5,0.5,2.3,0.8h0.1c0.8,0.2,1.6,0.4,2.3,0.6c0.1,0,0.2,0.1,0.3,0.1s0.2,0,0.3,0.1c0.9,0.2,1.8,0.4,2.7,0.6h0.1
	c0.4,0.1,0.8,0.2,1.3,0.2c0.1,0,0.3,0,0.4,0.1c0.6,0.1,1.2,0.2,1.8,0.3h0.1c0.3,0,0.5,0.1,0.8,0.1c0.4,0,0.8,0.1,1.2,0.1
	c0.3,0,0.6,0,0.8,0.1c0.3,0,0.7,0.1,1,0.1c0.1,0,0.1,0,0.2,0c0.7,0.1,1.5,0.1,2.3,0.1c0.1,0,0.3,0,0.4,0.1c0.1,0,0.2,0.1,0.4,0.2
	c0.1,0.1,0.2,0.1,0.3,0.2c0.1,0.1,0.2,0.2,0.3,0.3c0.1,0.1,0.1,0.2,0.2,0.3c0,0.1,0.1,0.2,0.1,0.4c0,0.1,0,0.3,0,0.4
	c0,0.1,0,0.3-0.1,0.4c0,0.1-0.1,0.2-0.2,0.4c0,0,0,0-0.1,0.1c-0.1,0.1-0.2,0.2-0.3,0.3s-0.1,0.1-0.2,0.2c-0.1,0.1-0.2,0.1-0.3,0.2
	l8.2-4.8c0.1,0.1,0.1,0.2,0.2,0.2c0.1,0.1,0.1,0.2,0.2,0.3c0.1,0.1,0.1,0.2,0.1,0.2c0,0.1,0.1,0.2,0.1,0.3c0,0.1,0.1,0.2,0.1,0.3
	c0,0.1,0,0.2,0,0.4c0,0.1,0,0.3,0,0.4v0.1c0,0.1,0,0.2,0,0.4v0.1c0,0.1,0,0.3,0,0.4v0.1v0.1c0,0.2,0,0.3-0.1,0.5v0.1
	c0,0.2-0.1,0.4-0.1,0.6c0,0.1,0,0.1,0,0.2c-0.1,0.3-0.1,0.6-0.2,0.9v0.1c-0.1,0.3-0.2,0.7-0.3,1v0.1c-0.1,0.4-0.2,0.7-0.3,1
	c0,0,0,0.1-0.1,0.1c-0.1,0.2-0.2,0.5-0.3,0.7s-0.2,0.4-0.3,0.6l-0.1,0.1c-0.1,0.2-0.2,0.4-0.4,0.6l-0.1,0.1
	c-0.1,0.1-0.2,0.3-0.3,0.4c0,0.1-0.1,0.1-0.1,0.2c-0.1,0.1-0.2,0.2-0.3,0.3l-0.1,0.1c-0.1,0.1-0.3,0.3-0.4,0.4c0,0,0,0-0.1,0.1
	c-0.1,0.1-0.2,0.2-0.3,0.3l-0.1,0.1c-0.1,0.1-0.2,0.1-0.3,0.2l-0.1,0.1c-0.1,0.1-0.2,0.2-0.3,0.2l21.6-12.5c0.1-0.1,0.2-0.1,0.3-0.2
	l0.1-0.1c0.1-0.1,0.2-0.1,0.3-0.2l0.1-0.1c0.1-0.1,0.2-0.2,0.3-0.3c0,0,0,0,0.1-0.1s0.3-0.3,0.4-0.4l0.1-0.1
	c0.1-0.1,0.2-0.2,0.3-0.3c0-0.1,0.1-0.1,0.1-0.2c0.1-0.1,0.2-0.3,0.3-0.4l0.1-0.1c0.1-0.2,0.2-0.4,0.3-0.6l0.1-0.1
	c0.1-0.1,0.1-0.3,0.2-0.4c0-0.1,0.1-0.1,0.1-0.2c0.1-0.2,0.2-0.5,0.3-0.7v-0.1c0,0,0,0,0-0.1c0.1-0.3,0.2-0.7,0.3-1c0,0,0,0,0-0.1
	c0,0,0,0,0-0.1c0.1-0.3,0.2-0.7,0.3-1v-0.1c0,0,0,0,0-0.1c0.1-0.3,0.1-0.6,0.2-0.9v-0.1v-0.1c0-0.2,0.1-0.4,0.1-0.6v-0.1
	c0-0.2,0-0.3,0.1-0.5c0,0,0,0,0-0.1V265.8C412.9,266.1,412.9,266.1,412.9,265.8z M363.4,248.3c-0.3-0.3-0.7-0.5-1-0.8
	c-0.5-0.4-1-0.8-1.4-1.2c-0.4-0.3-0.8-0.7-1.1-1c-0.4-0.4-0.8-0.7-1.2-1.1c-0.4-0.4-0.9-0.8-1.3-1.2c-0.4-0.3-0.7-0.7-1.1-1
	c-0.2-0.2-0.4-0.4-0.7-0.7c0.2-0.1,0.5-0.2,0.7-0.3l18.5-10.8v12.9l-10.4,6C364,248.8,363.7,248.6,363.4,248.3z M374.7,244
	c0,0.1,0,0.1,0,0.2c0,0.1,0,0.2,0,0.3s0,0.2,0,0.3c0,0.1,0,0.3,0,0.4c0,0.1,0,0.1,0,0.2v0.1c0,0.2,0,0.4,0.1,0.6v0.1
	c0,0.1,0,0.1,0,0.2c0,0.1,0,0.2,0,0.3c0,0.1,0,0.2,0.1,0.4c0,0.1,0,0.1,0,0.2v0.1c0,0.2,0.1,0.4,0.1,0.6v0.1c0,0.1,0,0.1,0,0.2
	c0,0.1,0,0.2,0.1,0.3c0,0.1,0.1,0.2,0.1,0.3c0,0.1,0,0.1,0,0.2v0.1c0.1,0.2,0.1,0.4,0.2,0.6v0.1c0,0.1,0.1,0.3,0.1,0.4
	c0,0.1,0,0.1,0.1,0.2c0,0.1,0.1,0.2,0.1,0.2c0,0.1,0,0.1,0.1,0.2c0,0.1,0.1,0.2,0.1,0.3c0,0.1,0.1,0.2,0.1,0.3v0.1
	c0,0.1,0.1,0.2,0.1,0.3c0,0.1,0.1,0.2,0.1,0.3v0.1c0,0.1,0.1,0.1,0.1,0.2c0.1,0.2,0.2,0.4,0.3,0.6c0,0,0,0.1,0.1,0.1
	c0,0,0,0.1,0.1,0.1c0.2,0.5,0.5,1.1,0.7,1.6c0.3,0.6,0.6,1.2,0.8,1.8c0.1,0.2,0.1,0.3,0.2,0.5s0.1,0.3,0.2,0.5
	c0,0.2,0.1,0.3,0.1,0.5c0,0.1,0,0.2,0,0.3c-0.3-0.1-0.5-0.2-0.8-0.4c-0.2-0.1-0.4-0.2-0.6-0.3c-0.6-0.3-1.2-0.6-1.8-0.9
	c-0.1,0-0.2-0.1-0.2-0.1c-0.6-0.3-1.1-0.6-1.7-0.9c-1-0.6-2-1.2-2.9-1.8c-0.2-0.1-0.4-0.2-0.6-0.4c-0.7-0.5-1.4-0.9-2.1-1.4
	c-0.3-0.2-0.6-0.4-0.9-0.6c-0.6-0.4-1.1-0.8-1.7-1.3c-0.3-0.2-0.7-0.5-1-0.7c-0.2-0.2-0.4-0.3-0.6-0.5l10.4-6v0.1
	C374.7,243.5,374.7,243.6,374.7,244z M374.7,229c-0.1,0-0.2,0-0.2,0c-0.2,0-0.5-0.1-0.7-0.2c0,0,0,0-0.1,0c-0.2-0.1-0.5-0.2-0.7-0.3
	s-0.5-0.2-0.8-0.4c-0.2-0.1-0.5-0.3-0.7-0.5c-0.2-0.2-0.4-0.3-0.6-0.5c0,0,0,0-0.1,0c-0.2-0.2-0.4-0.3-0.6-0.5
	c-0.2-0.2-0.4-0.4-0.6-0.6c-0.2-0.2-0.4-0.4-0.5-0.6c-0.2-0.2-0.3-0.4-0.4-0.6l-0.1-0.1c-0.1-0.2-0.3-0.4-0.4-0.7
	c0,0-0.1-0.1-0.1-0.2c-0.1-0.2-0.2-0.4-0.4-0.7c-0.1-0.3-0.2-0.5-0.4-0.8c0,0,0,0,0-0.1c-0.1-0.3-0.2-0.5-0.3-0.8c0,0,0,0,0-0.1
	c-0.1-0.3-0.2-0.5-0.3-0.8v-0.1c-0.1-0.3-0.1-0.5-0.2-0.8v-0.1c-0.1-0.3-0.1-0.5-0.2-0.8v-0.1c0-0.3-0.1-0.5-0.1-0.8v-0.1
	c0-0.3-0.1-0.6-0.1-0.8v-0.1c0-0.3,0-0.6,0-0.9c0-0.4,0-0.8,0-1.2v-0.1c0-0.4,0.1-0.7,0.1-1v-0.1c0.1-0.3,0.1-0.6,0.2-0.9v-0.1
	c0.1-0.2,0.1-0.5,0.2-0.7l6.7-3.9c0.1,0.3,0.2,0.5,0.2,0.8v0.1c0.1,0.4,0.2,0.9,0.3,1.3c0,0.1,0,0.1,0.1,0.2
	c0.1,0.4,0.2,0.8,0.3,1.2c0,0.1,0,0.2,0,0.3c0.1,0.3,0.1,0.7,0.2,1c0,0.1,0,0.2,0,0.3c0.1,0.4,0.1,0.9,0.1,1.3c0,0.1,0,0.3,0,0.4
	c0,0.3,0.1,0.6,0.1,1c0,0.6,0.1,1.1,0.1,1.7c0,0.2,0,0.3,0,0.5c0,0.4,0,0.8,0,1.2c0,0.2,0,0.4,0,0.6c0,0.4,0,0.8,0,1.3
	c0,0.2,0,0.3,0,0.5c0,0.3,0,0.6,0,0.8c0,0.3,0,0.7,0,1c0,0.2,0,0.4,0,0.6s0,0.4,0,0.6V229z"/>
<path class="st4" d="M391.1,276.3c0.7,1.4,0,5.5-1.2,8.1c-1.1,2.6-2.9,3.8-3.8,4.2c-0.4,0.1-0.7,0.1-0.9,0c-0.4-0.2-0.6-0.8-0.2-1.4
	c0.5-1,3.4-7.5,2.3-9.9c-0.5-1.1-2.1-2.3-3.8-3.3c-1.8-1-3.7-1.9-4.7-2.3c-1.1-0.5-1.7-0.7-2-0.9c-0.3-0.2-0.4-0.3-0.5-0.6
	c-0.4-1.4,3.9-0.9,6.7,0.3c0.8,0.3,1.7,0.8,2.7,1.4C388,273.3,390.5,275.1,391.1,276.3z"/>
<path class="st4" d="M382.7,277.1c0.9,0.5,1.3,1.8,0.2,2.8c-1.4,1.2-12.5,6.5-31-4.2s-32.7-33.5-37-42c-0.9-1.7-0.3-2.1,0.4-1.7
	c0.2,0.1,0.4,0.3,0.6,0.6c8.6,11,20.3,26.3,36.7,35.8c8.5,4.9,18.2,8.2,29.4,8.6C382.2,277,382.4,277.1,382.7,277.1z"/>
<path class="st4" d="M360,215.3v-1.6c0-2.9,0.2-6.2-1.2-9.5c-1.3-3-3.7-5.3-5.9-6.5c-4-2.3-7.6-2-8.5,2.4c-0.2,1-0.9,1.7-1.8,1.2
	l-10.2-7.1c-0.9-0.7-1.8-2.1-1.6-3.4c2.4-12.8,13.6-10.7,23.5-4.9c5.1,2.9,11.8,8.4,15.8,15.1c5.1,8.4,4.6,15.5,4.6,23.4l-0.1,18.8
	c0,5.7,2,9.3,3.9,13.5c0.7,1.5,0.8,2.9,0,3.2c-2.1,0.8-6,2.4-8.1,3.4c-0.4,0.1-0.9,0-1.4-0.3c-0.4-0.2-0.8-0.5-1.1-0.9
	c-3.5-5.3-4.1-7.2-6-11.5c-5.8,3.4-9.9,3.1-17.3-1.2c-8.8-5.1-15.7-15.3-15.7-27.9c0-9.8,4.7-13.8,11.3-13.3
	C346,208.6,353.9,212.6,360,215.3z M358,239.3c2.1-3,2-7,2-11.7V225c-7.6-4.4-15.6-7.1-15.6,3.1c0,5.2,2.3,10.1,6.4,12.4
	C353.6,242.3,356.3,241.8,358,239.3z"/>
<path class="st4" d="M113.7,211.1c0,0,0.1,0,0.1-0.1c0.6-0.3,1.3-0.6,2.2-0.6c1.2-0.1,2.4,0.1,3.3,0.6l5.4,3.1
	c0.9,0.5,1.2,1.2,1.1,1.9l-11,37.6l-28.5-14.3C112.7,212,113.2,211.3,113.7,211.1z"/>
<path class="st4" d="M44,207.8L59.2,218c1-1.9,3.5-15.7,4.4-20.8c0.2-1.2-0.2-2.4-1.2-3.2l-0.5-0.4c-0.7-0.6-1.7-0.6-2.4,0.1
	l-15.2,13.9L44,207.8z"/>
<path class="st1" d="M36.1,208c0-0.1,0.1-0.2,0.1-0.3c0.7-1.5,1.6-1.4,3-1.4c0.1,0,0.5,0.2,1.1,0.5l-5-25.3
	c-0.3-1.7,1.3-3.1,2.9-2.5c1.5,0.9,3.8,2.6,4.6,4.5c2.8,7.1,11.5,25,13.7,31.9c23.8,12.9,64.2,35.4,69.2,39.3
	c7.6,6.1,5.3,12.2,9.7,16.9c3,3.3,3,5.1,3,5.1c0,0.1,0,0.3,0,0.4c0,0.8-0.2,1.3-0.7,1.8c-2.7,2.6-12.4-0.3-19.7-2.3
	c-8.7-2.5-61.2-36.2-63.6-38.2c-2.4-2-16.5-21-18.3-25.4c-1.3-3.1-1.1-3.3-0.7-3.9C35.7,208.8,35.9,208.5,36.1,208z"/>
<path class="st3" d="M116.6,248.8c4.6,2.7,7.9,4.8,9.1,5.8c7.6,6.1,5.3,12.2,9.7,16.9c3,3.3,3,5.1,3,5.1c0,0.1,0,0.3,0,0.4
	c0,0.8-0.2,1.3-0.7,1.8c-2.7,2.6-12.4-0.3-19.7-2.3c-8.7-2.5-61.2-36.2-63.6-38.2s-16-21.2-18.3-25.4c-1.5-2.9-1.3-4.6-0.3-5.2
	c1.4-0.9,3.8-1.2,4.5-0.8l-5-25.3c-0.3-1.7,1.3-3.1,2.9-2.5c1.5,0.9,3.8,2.6,4.6,4.5c1.6,4.2,5.3,12,8.5,19.2"/>
<path class="st3" d="M56.6,215.3c9.9,5.3,22.7,12.4,34.6,19"/>
<path class="st4" d="M12.1,223.5c-0.9,0.4-0.9,1.7,0,2c1.3,0.5,3.4,0.8,5.5,0.7c7.1-0.4,24.7,0.8,31.8-0.4c1.8-0.3,2.9-0.8,3-1.4
	c0.7-4.9-13.8-11.9-13.8-11.9l-0.6,0.3L12.1,223.5z"/>
<path class="st4" d="M29.1,262.5c0.5-0.3,1.5-0.5,47.6-15.4c0.8-0.3,1.8-0.2,2.4,0.3l21.3,14.3c0.7,0.5,0.6,1.2-0.1,1.6
	c-0.3,0.2-0.6,0.3-1.1,0.3l-61.5,5.9c-1.3,0.1-2.5-0.1-3.4-0.6l-5.4-3.1c-0.9-0.5-1.2-1.2-1.1-1.9c0.1-0.5,0.5-0.9,1.1-1.3
	C29,262.5,29,262.5,29.1,262.5z"/>
<path class="st4" d="M126.1,267.1c0.9,0,1.8-0.1,2.5-0.2c0.7-0.2,1-0.2,1.2-0.3c0.3-0.1,0.7,0.1,0.9,0.4c0.4,0.9,0.5,1.6,0.7,2.4
	c0.1,0.2,0,0.5-0.2,0.7c-0.3,0.3-0.7,0.6-1.3,0.8c-0.9,0.3-2.3,0.3-3.7,0.1c-1.9-0.3-3.9-0.8-4.9-1.1c-0.4-0.1-0.6-0.5-0.5-0.9
	l0.4-1.6c0.1-0.3,0.4-0.6,0.8-0.5C122.8,266.8,124.5,267.1,126.1,267.1z"/>
</svg>
