<svg width="419" height="371" viewBox="0 0 419 371" fill="none" xmlns="http://www.w3.org/2000/svg">
<g clip-path="url(#clip0)">
<path d="M138.5 279.7L6.5 203.5C3.6 201.8 0.1 203.9 0.1 207.2L0 239.3C0 240.8 0.8 242.3 2.1 243L133.2 318.4C134.5 319.2 137.7 312.7 139 311.9L142.7 279.6C141.5 280.4 139.8 280.4 138.5 279.7Z" fill="#2F58FF"/>
<path d="M317.4 177L307 170.9C306.9 170.9 306.9 170.8 306.8 170.8C306.7 170.8 306.7 170.8 306.6 170.7H306.5C306.4 170.7 306.4 170.7 306.3 170.7C306.2 170.7 306.1 170.7 306.1 170.7H306C306 170.7 306 170.7 305.9 170.7H305.8C305.7 170.7 305.6 170.7 305.5 170.8H305.4H305.3C305.2 170.8 305.2 170.8 305.1 170.9C304.9 171 304.8 171 304.6 171.1L125.2 274.7C125 274.8 124.8 275 124.5 275.2C124.4 275.3 124.4 275.3 124.3 275.4C124.2 275.5 124.1 275.6 124 275.7L123.9 275.8L123.8 275.9L123.7 276C123.6 276.1 123.5 276.2 123.4 276.3L123.3 276.4C123.3 276.4 123.3 276.4 123.3 276.5L123.2 276.6C123.1 276.7 123.1 276.8 123 276.9C122.9 277 122.9 277.1 122.8 277.2C122.8 277.3 122.7 277.4 122.7 277.5C122.6 277.6 122.6 277.7 122.5 277.8C122.5 277.9 122.4 278 122.4 278.1C122.4 278.2 122.3 278.3 122.3 278.4C122.3 278.5 122.2 278.6 122.2 278.7C122.2 278.8 122.2 278.8 122.2 278.9C122.2 278.9 122.2 278.9 122.2 279V279.1C122.2 279.2 122.1 279.4 122.1 279.5C122.1 279.6 122.1 279.7 122.1 279.7V279.8V279.9C122.1 280.1 122.1 280.4 122.1 280.6L132.5 286.7C132.5 286.4 132.5 286.2 132.6 285.9V285.8C132.6 285.5 132.7 285.3 132.8 285C132.8 285 132.8 285 132.8 284.9C132.9 284.6 133 284.3 133.1 284.1C133.2 283.8 133.4 283.5 133.5 283.3C133.6 283 133.8 282.8 134 282.6C134 282.6 134 282.6 134 282.5C134.2 282.3 134.3 282.1 134.5 281.9L134.6 281.8C134.7 281.7 134.9 281.5 135 281.4C135.1 281.3 135.1 281.3 135.2 281.2C135.4 281 135.6 280.9 135.9 280.7L210.1 237.8C210.3 238.2 210.5 238.7 210.5 239.4V242.4L137.5 284.5V295.4L135.6 296.5C135.4 296.6 135.2 296.7 135 296.8H134.9C134.7 296.9 134.5 296.9 134.3 296.9C134.3 296.9 134.3 296.9 134.2 296.9C134 296.9 133.8 296.9 133.6 296.9C133.4 296.9 133.3 296.8 133.1 296.7L137.5 299.2V302.9L143.5 310L192 280.1L313 210.3V183.2L303.2 188.8L299 186.4L314.9 177.2C315.1 177.1 315.3 177 315.5 176.9H315.6C315.8 176.8 316 176.8 316.2 176.8C316.2 176.8 316.2 176.8 316.3 176.8C316.5 176.8 316.7 176.8 316.9 176.8C317.1 176.8 317.3 176.9 317.4 177ZM299.1 188.1V191.2L214.2 240.2L210 237.8L298.6 186.6C299 187 299.1 187.5 299.1 188.1Z" fill="#2F58FF"/>
<path d="M132.2 316.2L132.1 286.7L121.7 280.6L121.8 310.1C121.8 310.9 122 311.6 122.4 312C122.5 312.1 122.7 312.3 122.8 312.3L133.2 318.4C132.6 318.1 132.2 317.3 132.2 316.2Z" fill="#2F58FF"/>
<path d="M318.5 179.2C318.5 177.7 317.7 176.8 316.6 176.7C316.5 175.9 316.1 175.1 315.2 174.6L181 97.2001C179.7 96.4001 178 96.4001 176.7 97.2001L6.49997 196.1C3.59997 197.8 3.69997 201.9 6.49997 203.5L138 279.4L135.6 280.8C133.7 281.9 132.1 284.6 132.1 286.8L132.2 316.3C132.2 318.5 133.8 319.4 135.7 318.3L315 214.8C316.9 213.7 318.5 211 318.5 208.8V179.2ZM217.2 261.3L145.8 302.5C143.9 303.6 142.3 302.7 142.3 300.5V290.7C142.3 288.5 143.9 285.8 145.8 284.7L217.2 243.5C219.1 242.4 220.7 243.3 220.7 245.5V255.3C220.7 257.5 219.1 260.2 217.2 261.3ZM306.1 210L234.7 251.2C232.8 252.3 231.2 251.4 231.2 249.2V239.4C231.2 237.2 232.8 234.5 234.7 233.4L306.1 192.2C308 191.1 309.6 192 309.6 194.2V204C309.6 206.2 308 208.9 306.1 210Z" fill="white"/>
<path d="M267.9 148L265.9 146.8L87.1002 250.7L89.1002 251.9L267.9 148ZM237.4 130.4L235.4 129.2L56.7002 233.1L58.7002 234.3L237.4 130.4ZM207 112.8L205 111.6L26.2002 215.5L28.2002 216.7L207 112.8ZM298.4 165.6L296.4 164.4L117.6 268.3L119.6 269.5L298.4 165.6Z" fill="#2F58FF"/>
<path d="M132.2 316.2C132.2 318.4 133.8 319.3 135.7 318.2L315 214.7C316.9 213.6 318.5 210.9 318.5 208.7L318.4 179.2C318.4 177.7 317.6 176.2 315.2 174.6L181 97.2001C179.7 96.4001 178 96.4001 176.7 97.2001L6.49997 196.1C3.59997 197.8 3.69997 201.9 6.49997 203.5" stroke="#171A21" stroke-width="2" stroke-miterlimit="10" stroke-linecap="round" stroke-linejoin="round"/>
<path d="M293.9 283.7L326 302.4C327.6 303.3 329.5 303.3 331 302.4L389.7 268.9C390.5 268.4 390.5 267.2 389.7 266.7L357.6 248C356 247.1 354.1 247.1 352.6 248L293.9 281.5C293.1 282 293.1 283.2 293.9 283.7Z" fill="#FFF6EA"/>
<path d="M384.8 212.2C385.1 212 385.4 211.8 385.6 211.6C385.7 211.5 385.9 211.4 386 211.3C386.4 211 386.8 210.8 387.2 210.5C387.6 210.3 388 210.1 388.4 209.8C388.5 209.7 388.6 209.7 388.7 209.6C389.1 209.4 389.4 209.2 389.8 209.1C389.8 209.1 389.9 209.1 389.9 209C390.3 208.8 390.7 208.7 391.1 208.5C391.2 208.5 391.3 208.4 391.3 208.4C391.7 208.3 392.1 208.1 392.4 208H392.5C392.9 207.9 393.2 207.8 393.6 207.7C393.7 207.7 393.7 207.7 393.8 207.7C394.1 207.6 394.4 207.6 394.6 207.5C394.7 207.5 394.9 207.4 395 207.4C395.4 207.3 395.8 207.2 396.2 207.2C396.6 207.1 396.9 207.1 397.2 207.1C397.3 207.1 397.4 207.1 397.5 207.1C397.7 207.1 398 207.1 398.2 207.1C398.3 207.1 398.4 207.1 398.5 207.1C398.8 207.1 399 207.1 399.3 207.1C399.4 207.1 399.5 207.1 399.6 207.1C399.9 207.1 400.2 207.1 400.6 207.2C400.7 207.2 400.7 207.2 400.8 207.2C401.1 207.2 401.3 207.3 401.6 207.3C401.7 207.3 401.8 207.3 401.9 207.4C402.2 207.5 402.5 207.5 402.8 207.6C402.8 207.6 402.8 207.6 402.9 207.6C403.2 207.7 403.5 207.8 403.8 207.9C403.9 207.9 404 208 404 208C404.2 208.1 404.5 208.2 404.7 208.3C404.8 208.3 404.8 208.4 404.9 208.4C405.2 208.5 405.5 208.7 405.8 208.9L377.9 192.7L377.8 192.6C377.6 192.5 377.3 192.3 377.1 192.2C377 192.2 377 192.1 376.9 192.1C376.8 192 376.6 192 376.5 191.9C376.4 191.9 376.3 191.8 376.2 191.8C376.1 191.8 376 191.7 376 191.7C375.7 191.6 375.4 191.5 375.1 191.4C375.1 191.4 375.1 191.4 375 191.4C374.7 191.3 374.4 191.3 374.1 191.2C374 191.2 373.9 191.2 373.8 191.1C373.7 191.1 373.6 191.1 373.5 191C373.3 191 373.2 191 373 190.9C372.9 190.9 372.9 190.9 372.8 190.9C372.5 190.9 372.2 190.8 371.9 190.8H371.8C371.7 190.8 371.6 190.8 371.5 190.8C371.2 190.8 371 190.8 370.7 190.8C370.6 190.8 370.5 190.8 370.4 190.8C370.3 190.8 370.2 190.8 370.1 190.8C369.9 190.8 369.8 190.8 369.6 190.8C369.5 190.8 369.4 190.8 369.3 190.8C369 190.8 368.6 190.9 368.3 190.9C367.9 191 367.5 191 367.1 191.1C367 191.1 366.8 191.2 366.7 191.2C366.5 191.3 366.2 191.3 366 191.4H365.9C365.8 191.4 365.8 191.4 365.7 191.5C365.4 191.6 365 191.7 364.6 191.8H364.5C364.1 191.9 363.8 192.1 363.4 192.2C363.3 192.2 363.2 192.3 363.2 192.3C363.1 192.3 363 192.4 363 192.4C362.7 192.5 362.4 192.7 362.1 192.8C362.1 192.8 362 192.8 362 192.9C361.7 193.1 361.3 193.2 360.9 193.4C360.8 193.5 360.7 193.5 360.6 193.6C360.2 193.8 359.8 194 359.4 194.3C359 194.5 358.6 194.8 358.2 195.1C358.1 195.2 357.9 195.3 357.8 195.4C357.5 195.6 357.2 195.8 357 196C356.8 196.1 356.7 196.2 356.5 196.3C356.2 196.5 356 196.7 355.7 196.9C355.5 197 355.4 197.1 355.2 197.2C354.9 197.4 354.7 197.6 354.4 197.8C354.3 197.9 354.1 198 354 198.1C353.7 198.3 353.4 198.6 353.1 198.8C353 198.9 352.9 199 352.8 199.1C352.4 199.4 352 199.8 351.7 200.1C351.6 200.2 351.5 200.2 351.5 200.3C351.2 200.5 351 200.8 350.7 201L350.6 201.1C350.2 201.5 349.7 202 349.3 202.5C349.3 202.5 349.3 202.5 349.2 202.6C348.8 203 348.4 203.5 348 203.9L347.9 204C347.7 204.2 347.6 204.4 347.4 204.5C347.2 204.7 347.1 204.9 346.9 205.1C346.7 205.3 346.5 205.6 346.3 205.8C346.1 206 346 206.2 345.8 206.4L345.7 206.5C345.4 206.9 345.1 207.3 344.8 207.7C344.8 207.7 344.8 207.7 344.8 207.8C344.5 208.2 344.3 208.5 344 208.9C344 208.9 344 209 343.9 209C343.5 209.6 343 210.3 342.6 211C342.6 211.1 342.5 211.1 342.5 211.2C342.4 211.3 342.4 211.4 342.3 211.5C342 212 341.6 212.6 341.3 213.1C341.2 213.2 341.2 213.3 341.1 213.4C341.1 213.4 341.1 213.5 341 213.5C340.6 214.1 340.3 214.8 339.9 215.4C339.9 215.5 339.8 215.5 339.8 215.6C339.7 215.7 339.7 215.8 339.6 215.9C339.3 216.4 339.1 216.9 338.8 217.5C338.7 217.6 338.7 217.7 338.6 217.8C338.6 217.9 338.5 217.9 338.5 218C338.2 218.7 337.9 219.3 337.6 220C337.6 220 337.6 220 337.6 220.1C337.4 220.5 337.2 221 337 221.4C337 221.5 336.9 221.6 336.9 221.8C336.8 222 336.7 222.2 336.6 222.4C336.5 222.6 336.5 222.7 336.4 222.9C336.3 223.1 336.3 223.2 336.2 223.4C336.1 223.8 335.9 224.2 335.8 224.6C335.8 224.7 335.7 224.8 335.7 224.8C335.7 224.8 335.7 224.8 335.7 224.9C335.5 225.4 335.4 225.8 335.2 226.3C335.2 226.4 335.1 226.6 335.1 226.7C335 227 334.9 227.2 334.9 227.5C334.9 227.6 334.9 227.7 334.8 227.8C334.7 228 334.7 228.2 334.6 228.5C334.5 228.8 334.4 229.1 334.4 229.4C334.3 229.6 334.3 229.9 334.2 230.1C334.2 230.3 334.1 230.4 334.1 230.6C334.1 230.7 334.1 230.8 334 230.9C333.9 231.2 333.9 231.6 333.8 231.9C333.8 232.1 333.7 232.4 333.7 232.6C333.6 232.9 333.6 233.3 333.5 233.6C333.5 233.8 333.4 233.9 333.4 234.1C333.4 234.2 333.4 234.2 333.4 234.3C333.4 234.5 333.4 234.6 333.3 234.8C333.3 235.1 333.2 235.5 333.2 235.8C333.2 236 333.2 236.1 333.2 236.3C333.2 236.6 333.2 237 333.1 237.3C333.1 237.5 333.1 237.6 333.1 237.8C333.1 238.3 333.1 238.7 333.1 239.2C333.1 247.3 336 253.1 340.6 255.8L368.5 272C363.9 269.3 361 263.6 361 255.4C361 254.9 361 254.5 361 254C361 253.9 361 253.7 361 253.5C361 253.2 361 252.8 361.1 252.5C361.1 252.3 361.1 252.2 361.1 252C361.1 251.7 361.2 251.3 361.2 251V250.9L375.8 259.4H375.9H376C376.2 259.5 376.4 259.6 376.6 259.7C376.6 259.7 376.7 259.7 376.7 259.8H376.8C377 259.9 377.3 260 377.5 260C377.8 260.1 378 260.1 378.3 260.2H378.4H378.5C378.7 260.2 379 260.3 379.2 260.3H379.3C379.3 260.3 379.3 260.3 379.4 260.3C379.5 260.3 379.5 260.3 379.6 260.3C379.8 260.3 379.9 260.3 380.1 260.3C380.2 260.3 380.2 260.3 380.3 260.3C380.4 260.3 380.4 260.3 380.5 260.3C380.6 260.3 380.7 260.3 380.8 260.3C380.9 260.3 380.9 260.3 381 260.3C381.2 260.3 381.4 260.3 381.6 260.2C381.8 260.2 382.1 260.1 382.3 260.1C382.4 260.1 382.5 260.1 382.5 260C382.6 260 382.8 259.9 382.9 259.9C383.2 259.8 383.5 259.7 383.7 259.6C383.8 259.6 383.8 259.6 383.9 259.5C384.1 259.4 384.4 259.3 384.6 259.2H384.7C384.8 259.2 384.8 259.1 384.9 259.1C385.1 259 385.4 258.9 385.6 258.8C385.7 258.8 385.8 258.7 385.9 258.7C386.2 258.5 386.6 258.4 386.9 258.2C387.1 258.1 387.4 257.9 387.6 257.7C387.7 257.7 387.8 257.6 387.8 257.5C388 257.4 388.1 257.3 388.3 257.2C388.4 257.1 388.5 257.1 388.6 257C388.8 256.9 388.9 256.8 389.1 256.7C389.2 256.6 389.3 256.6 389.4 256.5C389.6 256.4 389.7 256.3 389.9 256.1C390 256 390.1 256 390.2 255.9C390.4 255.8 390.5 255.6 390.7 255.5C390.8 255.4 390.8 255.4 390.9 255.3C391.1 255.1 391.4 254.9 391.6 254.7L391.7 254.6C391.8 254.5 392 254.3 392.1 254.2C392.1 254.2 392.1 254.2 392.2 254.1C392.5 253.8 392.7 253.6 393 253.3C393.2 253 393.5 252.8 393.7 252.5C393.7 252.5 393.7 252.5 393.8 252.4L393.9 252.3C394.3 251.8 394.7 251.4 395 250.9L395.1 250.8C395.4 250.4 395.7 250 396 249.6L396.1 249.5C396.1 249.5 396.1 249.5 396.1 249.4C396.4 249 396.6 248.6 396.9 248.2L397 248.1C397 248 397.1 248 397.1 247.9C397.3 247.6 397.5 247.2 397.7 246.9C397.7 246.8 397.8 246.8 397.8 246.7C397.8 246.7 397.8 246.7 397.8 246.6C398 246.2 398.2 245.8 398.4 245.4C398.4 245.4 398.4 245.3 398.5 245.3C398.5 245.2 398.6 245.2 398.6 245.1C398.8 244.8 398.9 244.5 399.1 244.2C399.1 244.1 399.2 244.1 399.2 244C399.2 244 399.2 243.9 399.3 243.9C399.5 243.5 399.7 243.1 399.8 242.7C399.8 242.7 399.8 242.6 399.9 242.6C400.1 242.2 400.2 241.9 400.3 241.5C400.3 241.4 400.3 241.4 400.4 241.3C400.4 241.3 400.4 241.2 400.5 241.2C400.7 240.8 400.8 240.3 401 239.9V239.8C401.1 239.4 401.3 238.9 401.4 238.5C401.4 238.4 401.4 238.4 401.5 238.3C401.5 238.2 401.5 238.2 401.5 238.1C401.5 238 401.6 237.8 401.6 237.7C401.6 237.5 401.7 237.3 401.7 237.2C401.7 237.1 401.8 236.9 401.8 236.8C401.8 236.7 401.8 236.6 401.9 236.5C401.9 236.4 401.9 236.4 401.9 236.3C401.9 236.1 402 235.9 402 235.7C402 235.6 402.1 235.4 402.1 235.3C402.1 235.1 402.2 234.9 402.2 234.7C402.2 234.6 402.2 234.5 402.2 234.4V234.3C402.2 234.2 402.2 234.1 402.2 234C402.2 233.8 402.2 233.6 402.3 233.4C402.3 233.3 402.3 233.2 402.3 233.1C402.3 232.9 402.3 232.7 402.3 232.5C402.3 232.4 402.3 232.3 402.3 232.2C402.3 231.9 402.3 231.6 402.3 231.3C402.3 226.4 400.6 223 397.8 221.4L383.2 212.9C383.4 212.7 383.6 212.6 383.8 212.5C384.5 212.5 384.6 212.4 384.8 212.2ZM373.4 223.7C373.3 224.1 373.1 224.6 372.9 225C372.9 225.1 372.8 225.2 372.8 225.3C372.7 225.7 372.5 226 372.4 226.4C372.4 226.5 372.4 226.5 372.3 226.6C372.1 227 371.9 227.4 371.8 227.8C371.8 227.9 371.7 228 371.6 228.1C371.4 228.4 371.3 228.7 371.1 229C371.1 229.1 371 229.2 371 229.3C370.8 229.7 370.6 230.1 370.4 230.5C370.4 230.6 370.3 230.6 370.3 230.7C370.1 231 369.9 231.4 369.7 231.7C369.6 231.8 369.6 231.9 369.5 232C369.2 232.4 369 232.8 368.7 233.2C368.7 233.3 368.6 233.3 368.6 233.4C368.3 233.8 368 234.2 367.7 234.6C367.7 234.6 367.6 234.7 367.6 234.8C367.2 235.3 366.8 235.7 366.5 236.2C366.4 236.3 366.4 236.3 366.3 236.4C366.1 236.7 365.8 236.9 365.6 237.2C365.7 236.9 365.8 236.7 365.9 236.4C366.2 235.7 366.5 235.1 366.8 234.4C366.9 234.2 367 234.1 367.1 233.9C367.4 233.4 367.6 232.9 367.9 232.3C368 232.1 368.1 232 368.1 231.8C368.4 231.2 368.8 230.5 369.2 229.9C369.3 229.8 369.3 229.7 369.4 229.5C369.7 228.9 370.1 228.4 370.4 227.9C370.5 227.7 370.6 227.6 370.7 227.4C371.1 226.7 371.6 226.1 372 225.4C372.3 225 372.6 224.6 372.9 224.2C372.9 224.2 372.9 224.2 372.9 224.1C373.2 223.8 373.4 223.4 373.7 223.1C373.6 223.3 373.6 223.5 373.5 223.7C373.4 223.7 373.4 223.7 373.4 223.7Z" fill="#FFD394"/>
<path d="M387.3 210.7C401.6 202.5 413.2 209.1 413.2 225.5C413.2 241.9 401.7 261.9 387.5 270.1C373.2 278.3 361.6 271.7 361.6 255.3C361.5 238.9 373 218.9 387.3 210.7ZM387.4 258.2C396 253.3 402.9 241.3 402.8 231.5C402.8 221.7 395.8 217.7 387.3 222.6C378.7 227.5 371.8 239.5 371.9 249.3C371.9 259.1 378.8 263.1 387.4 258.2Z" fill="#2F58FF"/>
<path d="M157.2 336.3L211.8 368C214.4 369.5 217.7 369.5 220.3 368L309.2 316.3C310.6 315.5 310.6 313.4 309.2 312.6L254.6 280.9C252 279.4 248.7 279.4 246.1 280.9L157.2 332.6C155.8 333.4 155.8 335.5 157.2 336.3Z" fill="white"/>
<path d="M221 341.5C218.6 342.9 214.6 342.9 212.2 341.5C209.8 340.1 209.7 337.8 212.2 336.4C214.6 335 218.5 335 221 336.4C223.4 337.8 223.4 340.1 221 341.5ZM251.4 288.2C253.8 289.6 257.8 289.6 260.2 288.2C261.6 287.4 262.2 286.2 261.9 285.1L256.7 282.1C254.8 281.9 252.8 282.3 251.3 283.1C248.9 284.6 248.9 286.8 251.4 288.2ZM247 300.9C249.4 302.3 253.4 302.3 255.8 300.9C258.2 299.5 258.2 297.2 255.8 295.8C253.4 294.4 249.5 294.4 247 295.8C244.5 297.3 244.6 299.5 247 300.9ZM273.3 306C270.9 304.6 267 304.6 264.5 306C262.1 307.4 262.1 309.7 264.5 311.1C266.9 312.5 270.9 312.5 273.3 311.1C275.7 309.7 275.8 307.4 273.3 306ZM229.8 351.6C232.2 353 236.2 353 238.6 351.6C241 350.2 241 347.9 238.6 346.5C236.2 345.1 232.3 345.1 229.8 346.5C227.4 348 227.4 350.2 229.8 351.6ZM229.6 311C227.2 309.6 223.3 309.6 220.8 311C218.4 312.4 218.4 314.7 220.8 316.1C223.2 317.5 227.2 317.5 229.6 316.1C232 314.7 232 312.4 229.6 311ZM233.9 303.4C236.3 302 236.3 299.7 233.9 298.3C231.5 296.9 227.5 296.9 225.1 298.3C222.7 299.7 222.7 302 225.2 303.4C227.6 304.9 231.5 304.8 233.9 303.4ZM212.4 361.8C210 360.4 206.1 360.4 203.6 361.8C203.2 362.1 202.8 362.3 202.5 362.6L210.8 367.5C211.4 367.3 211.9 367.1 212.3 366.9C214.8 365.4 214.8 363.2 212.4 361.8ZM256 331.3C253.5 332.7 253.6 335 256 336.4C258.4 337.8 262.4 337.8 264.8 336.4C267.2 335 267.2 332.7 264.8 331.3C262.3 329.9 258.4 329.9 256 331.3ZM286.5 303.4C284 304.8 284.1 307.1 286.5 308.5C288.9 309.9 292.9 309.9 295.3 308.5C296.7 307.7 297.3 306.6 297.1 305.6L291.7 302.4C289.8 302.3 287.9 302.6 286.5 303.4ZM242.9 333.9C240.5 332.5 236.6 332.5 234.1 333.9C231.7 335.3 231.7 337.6 234.1 339C236.5 340.4 240.5 340.4 242.9 339C245.3 337.5 245.3 335.3 242.9 333.9ZM159.7 331.3C159.7 331.3 159.6 331.3 159.5 331.2L157.2 332.5C155.8 333.3 155.8 335.4 157.2 336.2L158.4 336.9C158.9 336.7 159.3 336.6 159.7 336.3C162.1 335 162.1 332.7 159.7 331.3ZM269 318.7C266.6 317.3 262.7 317.3 260.2 318.7C257.8 320.1 257.8 322.4 260.2 323.8C262.6 325.2 266.6 325.2 269 323.8C271.5 322.3 271.5 320.1 269 318.7ZM268.9 293.3C266.4 294.7 266.5 297 268.9 298.4C271.3 299.8 275.3 299.8 277.7 298.4C279.1 297.6 279.7 296.5 279.4 295.4L274.1 292.3C272.3 292.1 270.4 292.4 268.9 293.3ZM282.2 316.1C279.7 317.5 279.8 319.8 282.2 321.2C284.6 322.6 288.6 322.6 291 321.2C293.4 319.8 293.4 317.5 291 316.1C288.6 314.7 284.6 314.7 282.2 316.1ZM225.3 323.7C222.9 322.3 219 322.3 216.5 323.7C214.1 325.1 214.1 327.4 216.5 328.8C218.9 330.2 222.9 330.2 225.3 328.8C227.8 327.4 227.7 325.1 225.3 323.7ZM194.8 356.7C197.2 355.3 197.2 353 194.8 351.6C192.4 350.2 188.5 350.2 186 351.6C185.6 351.8 185.2 352.1 185 352.4L193.4 357.3C193.9 357.1 194.4 356.9 194.8 356.7ZM172.8 328.8C170.3 330.2 170.4 332.5 172.8 333.9C175.2 335.3 179.2 335.3 181.6 333.9C184 332.5 184 330.2 181.6 328.8C179.1 327.4 175.2 327.4 172.8 328.8ZM234.3 359.2C231.9 357.8 228 357.8 225.5 359.2C223.1 360.6 223.1 362.9 225.5 364.3C225.7 364.4 225.9 364.5 226.2 364.6L234.8 359.6C234.6 359.5 234.5 359.3 234.3 359.2ZM177.3 346.5C179.7 345.1 179.7 342.8 177.3 341.4C174.9 340 171 340 168.5 341.4C168.1 341.6 167.8 341.9 167.5 342.2L175.9 347.1C176.4 347 176.8 346.8 177.3 346.5ZM216.7 349.1C214.3 347.7 210.4 347.7 207.9 349.1C205.5 350.5 205.5 352.8 207.9 354.2C210.3 355.6 214.3 355.6 216.7 354.2C219.1 352.7 219.1 350.5 216.7 349.1ZM309.3 312.7L309.1 312.6C307.3 312.5 305.5 312.8 304.1 313.6C301.7 315 301.7 317.3 304.1 318.7C304.3 318.8 304.5 318.9 304.8 319L309.3 316.4C310.7 315.5 310.7 313.5 309.3 312.7ZM286.6 328.8C284.2 327.4 280.3 327.4 277.8 328.8C275.4 330.2 275.4 332.5 277.8 333.9C278 334 278.2 334.1 278.5 334.2L287.1 329.2C287 329.1 286.8 328.9 286.6 328.8ZM247.2 321.2C244.8 319.8 240.9 319.8 238.4 321.2C236 322.6 236 324.9 238.4 326.3C240.8 327.7 244.8 327.7 247.2 326.3C249.6 324.8 249.6 322.6 247.2 321.2ZM260.5 344C258.1 342.6 254.2 342.6 251.7 344C249.3 345.4 249.3 347.7 251.7 349.1C251.9 349.2 252.1 349.3 252.4 349.4L261 344.4C260.8 344.2 260.7 344.1 260.5 344ZM203.3 306C205.7 307.4 209.7 307.4 212.1 306C214.5 304.6 214.5 302.3 212.1 300.9C212.1 300.9 212 300.9 211.9 300.8L203.2 305.9C203.2 305.9 203.2 305.9 203.3 306ZM177.1 321.2C179.5 322.6 183.5 322.6 185.9 321.2C188.3 319.8 188.3 317.5 185.9 316.1C185.9 316.1 185.8 316.1 185.7 316L177 321.1C177 321.1 177 321.2 177.1 321.2ZM251.5 308.5C249.1 307.1 245.2 307.1 242.7 308.5C240.3 309.9 240.3 312.2 242.7 313.6C245.1 315 249.1 315 251.5 313.6C253.9 312.2 253.9 309.9 251.5 308.5ZM229.4 290.8C231.8 292.2 235.8 292.2 238.2 290.8C240.6 289.4 240.6 287.1 238.2 285.7C238.2 285.7 238.1 285.7 238.1 285.6L229.4 290.7C229.4 290.7 229.4 290.7 229.4 290.8ZM203.4 326.2C201 324.8 197.1 324.8 194.6 326.2C192.2 327.6 192.2 329.9 194.6 331.3C197 332.7 201 332.7 203.4 331.3C205.9 329.9 205.9 327.6 203.4 326.2ZM207.7 313.6C205.3 312.2 201.3 312.2 198.9 313.6C196.5 315 196.5 317.3 199 318.7C201.4 320.1 205.4 320.1 207.8 318.7C210.2 317.2 210.2 315 207.7 313.6ZM190.4 338.9C187.9 340.3 188 342.6 190.4 344C192.8 345.4 196.8 345.4 199.2 344C201.6 342.6 201.6 340.3 199.2 338.9C196.7 337.5 192.8 337.5 190.4 338.9Z" fill="#FFD394"/>
<path d="M203.2 305.8L185.8 316" stroke="#171A21" stroke-width="2" stroke-miterlimit="10" stroke-linecap="round" stroke-linejoin="round"/>
<path d="M229.4 290.7L211.9 300.8" stroke="#171A21" stroke-width="2" stroke-miterlimit="10" stroke-linecap="round" stroke-linejoin="round"/>
<path d="M256.6 282.1L254.6 281C252 279.5 248.7 279.5 246.1 281L238 285.7" stroke="#171A21" stroke-width="2" stroke-miterlimit="10" stroke-linecap="round" stroke-linejoin="round"/>
<path d="M273.3 291.8L261.9 285.2" stroke="#171A21" stroke-width="2" stroke-miterlimit="10" stroke-linecap="round" stroke-linejoin="round"/>
<path d="M291.6 302.4L279.5 295.4" stroke="#171A21" stroke-width="2" stroke-miterlimit="10" stroke-linecap="round" stroke-linejoin="round"/>
<path d="M309.3 312.7L296 305" stroke="#171A21" stroke-width="2" stroke-miterlimit="10" stroke-linecap="round" stroke-linejoin="round"/>
<path d="M286.5 329.5L305.3 318.7" stroke="#171A21" stroke-width="2" stroke-miterlimit="10" stroke-linecap="round" stroke-linejoin="round"/>
<path d="M260.2 344.8L279.4 333.7" stroke="#171A21" stroke-width="2" stroke-miterlimit="10" stroke-linecap="round" stroke-linejoin="round"/>
<path d="M234.2 360L252.9 349.1" stroke="#171A21" stroke-width="2" stroke-miterlimit="10" stroke-linecap="round" stroke-linejoin="round"/>
<path d="M210.8 367.5L211.7 368C214.3 369.5 217.6 369.5 220.2 368L226.1 364.6" stroke="#171A21" stroke-width="2" stroke-miterlimit="10" stroke-linecap="round" stroke-linejoin="round"/>
<path d="M193.4 357.3L203.2 363" stroke="#171A21" stroke-width="2" stroke-miterlimit="10" stroke-linecap="round" stroke-linejoin="round"/>
<path d="M175.9 347.1L185.4 352.7" stroke="#171A21" stroke-width="2" stroke-miterlimit="10" stroke-linecap="round" stroke-linejoin="round"/>
<path d="M157.2 336.3L167.5 342.3" stroke="#171A21" stroke-width="2" stroke-miterlimit="10" stroke-linecap="round" stroke-linejoin="round"/>
<path d="M177 321.1L159.6 331.2" stroke="#171A21" stroke-width="2" stroke-miterlimit="10" stroke-linecap="round" stroke-linejoin="round"/>
</g>
<defs>
<clipPath id="clip0">
<rect width="418.4" height="370.2" fill="white"/>
</clipPath>
</defs>
</svg>
