<svg width="419" height="371" viewBox="0 0 419 371" fill="none" xmlns="http://www.w3.org/2000/svg">
<g clip-path="url(#clip0)">
<path d="M411.3 43.8001L338.7 1.80007C335.3 -0.0999269 332.6 1.40007 332.6 5.30007L332.3 105.2C332.3 109.1 335 113.8 338.4 115.7L411 157.6C414.4 159.5 417.1 158 417.1 154.1L417.4 54.2001C417.4 50.4001 414.7 45.7001 411.3 43.8001Z" fill="white" stroke="#171A21" stroke-width="2" stroke-miterlimit="10" stroke-linecap="round" stroke-linejoin="round"/>
<path d="M405.5 48.7L344.5 13.5C341.9 12 339.8 13.2 339.8 16.2L339.6 86.3C339.6 89.3 341.7 92.9 344.3 94.4L405.3 129.6C407.9 131.1 410 129.9 410 126.9L410.2 56.8C410.1 53.8 408 50.2 405.5 48.7Z" fill="#FFD394"/>
<path d="M382.3 59.8002L309.7 17.9002C306.3 16.0002 303.6 17.5002 303.6 21.4002L303.3 121.3C303.3 125.2 306 129.9 309.4 131.8L382 173.7C385.4 175.6 388.1 174.1 388.1 170.2L388.4 70.3002C388.4 66.4002 385.7 61.7002 382.3 59.8002Z" fill="white"/>
<path d="M339.5 35.1002L309.6 17.9002C306.2 16.0002 303.5 17.5002 303.5 21.4002L303.2 121.3C303.2 125.2 305.9 129.9 309.3 131.8L381.9 173.7C385.3 175.6 388 174.1 388 170.2L388.1 119.9" stroke="#171A21" stroke-width="2" stroke-miterlimit="10" stroke-linecap="round" stroke-linejoin="round"/>
<path d="M376.5 64.7003L315.5 29.5003C312.9 28.0003 310.8 29.2003 310.8 32.2003L310.6 102.3C310.6 105.3 312.7 108.9 315.3 110.4L376.3 145.6C378.9 147.1 381 145.9 381 142.9L381.2 72.8003C381.1 69.8003 379 66.2003 376.5 64.7003Z" fill="#FFD394"/>
<path d="M352.4 60.9L340.1 53.8C337 52 334.3 53 333.7 56.2L330.7 72.2C330.3 74.2 330.8 76.7 332.1 79.2C333.3 81.6 335.2 83.7 337.1 84.8L343.8 88.7V92.8L336.1 88.4C332.5 86.3 329.6 88 329.6 92.1C329.6 94.7 331.4 97.9 333.7 99.3L343.8 105.1V110.5L336.1 106.1C333.5 104.6 331.4 105.8 331.4 108.8V111.5C331.4 113 332.5 114.8 333.8 115.6C335.1 116.4 336.2 115.7 336.2 114.2V111.5L356.3 123.1V125.8C356.3 127.3 357.4 129.1 358.7 129.9C360 130.7 361.1 130 361.1 128.5V125.8C361.1 122.8 359 119.1 356.4 117.6L348.7 113.2V107.8L358.8 113.6C361.1 114.9 362.9 113.9 363 111.2C363 107.1 360.1 102 356.5 100L348.8 95.6V91.5L355.5 95.4C357.4 96.5 359.3 96.6 360.5 95.6C361.7 94.6 362.3 92.6 361.9 90.2L359 70.8C358.2 66.8 355.6 62.7 352.4 60.9Z" fill="#FFF6EA"/>
</g>
<defs>
<clipPath id="clip0">
<rect width="418.4" height="370.2" fill="white"/>
</clipPath>
</defs>
</svg>
