<svg width="419" height="371" viewBox="0 0 419 371" fill="none" xmlns="http://www.w3.org/2000/svg">
<path d="M201.2 110.9L268.4 72.1C270.1 71.1 272.3 72.3 272.3 74.3L272.5 160.3C272.5 164 270.5 167.5 267.3 169.3L201.4 207.3C198.2 209.2 194.2 209.2 191 207.3L125.6 169.3C122.4 167.4 120.4 164 120.4 160.3L120.2 74.3C120.2 72.3 122.4 71 124.1 72L190.8 110.8C194 112.8 198 112.8 201.2 110.9Z" fill="#FFD394"/>
<path d="M124 72.1L190.7 110.9C193.9 112.8 197.9 112.8 201.1 110.9L268.3 72.1C270 71.1 270 68.6 268.3 67.6L201.6 28.8C198.4 26.9 194.4 26.9 191.2 28.8L124 67.6C122.3 68.6 122.3 71.1 124 72.1Z" fill="#FFF6EA"/>
<path d="M125.5 169.4C122.3 167.5 120.3 164.1 120.3 160.4L120.1 75.9001C120.1 72.2001 122.1 68.7001 125.3 66.9001L191.2 28.9001C194.4 27.0001 198.4 27.0001 201.6 28.9001L267 66.9001C270.2 68.8001 272.2 72.2001 272.2 75.9001L272.4 160.4C272.4 164.1 270.4 167.6 267.2 169.4" stroke="#171A21" stroke-width="2" stroke-miterlimit="10" stroke-linecap="round" stroke-linejoin="round"/>
<path d="M246.5 54.8999L170.2 98.9999L143.5 83.3999L219.8 39.3999L246.5 54.8999Z" fill="white"/>
<path d="M246.5 54.8999L170.2 98.9999L143.5 83.3999L219.8 39.3999" stroke="#171A21" stroke-width="2" stroke-linecap="round" stroke-linejoin="round" stroke-dasharray="12 12"/>
</svg>
