<svg width="419" height="371" viewBox="0 0 419 371" fill="none" xmlns="http://www.w3.org/2000/svg">
<path d="M111.8 191.2L44.6 152.4C42.9 151.4 40.7 152.6 40.7 154.6L40.5 205.2C40.5 208.9 42.5 212.4 45.7 214.2L111.6 252.2C114.8 254.1 118.8 254.1 122 252.2L187.4 214.2C190.6 212.3 192.6 208.9 192.6 205.2L192.8 154.6C192.8 152.6 190.6 151.3 188.9 152.3L122.2 191.1C119 193 115.1 193 111.8 191.2Z" fill="#FFD394"/>
<path d="M189 152.4L122.3 191.2C119.1 193.1 115.1 193.1 111.9 191.2L44.6998 152.4C42.9998 151.4 42.9998 148.9 44.6998 147.9L111.4 109.1C114.6 107.2 118.6 107.2 121.8 109.1L189 147.9C190.7 148.9 190.7 151.4 189 152.4Z" fill="#FFF6EA"/>
<path d="M187.5 214.3C190.7 212.4 192.7 209 192.7 205.3L192.9 156.2C192.9 152.5 190.9 149 187.7 147.2L121.8 109.2C118.6 107.3 114.6 107.3 111.4 109.2L46.0001 147.2C42.8001 149.1 40.8001 152.5 40.8001 156.2L40.6001 205.3C40.6001 209 42.6001 212.5 45.8001 214.3" stroke="#171A21" stroke-width="2" stroke-miterlimit="10" stroke-linecap="round" stroke-linejoin="round"/>
<path d="M66.5 135.1L142.8 179.2L169.6 163.6L93.3 119.6L79.9 127.35L66.5 135.1Z" fill="white"/>
<path d="M66.5 135.1L142.8 179.2L169.6 163.6L93.3 119.6" stroke="#171A21" stroke-width="2" stroke-linecap="round" stroke-linejoin="round" stroke-dasharray="12 12"/>
</svg>
