<svg width="458" height="461" viewBox="0 0 458 461" fill="none" xmlns="http://www.w3.org/2000/svg">
<path d="M185.957 154.779L201.284 231.844L259.807 221.125L247.373 163.139L185.957 154.779Z" fill="#FFD394"/>
<path d="M386.604 247.6C390.784 242.455 395.928 227.342 392.927 221.125C388.426 211.8 396.036 206.013 400.859 215.337C405.575 224.555 404.074 226.27 408.898 224.448C419.187 220.589 433.871 207.299 442.553 209.442C451.235 211.586 461.846 220.375 450.699 231.844C439.552 243.312 416.722 264.535 408.255 279.862L386.604 247.6Z" fill="#FFD394"/>
<path d="M386.067 241.061L317.469 321.663C317.469 321.663 296.997 234.952 292.174 230.236C287.351 225.413 273.524 210.943 226.578 207.942C156.801 203.44 133.864 247.707 128.505 258.532C124.86 265.821 94.5274 358.213 75.2344 417.271C86.9174 425.417 99.6722 432.277 113.07 438.065L153.8 360.142L144.368 449.319C190.993 462.931 241.583 464.325 282.849 454.678C285.421 454.035 288.315 453.392 291.317 452.535L292.603 388.117C292.603 388.117 301.177 392.941 305.894 396.263C326.044 410.411 350.589 398.621 359.164 384.795C368.382 369.789 415.114 278.897 415.114 278.897L386.067 241.061Z" fill="#9AF4DC"/>
<path d="M189.171 195.294C188.849 198.938 188.421 211.693 189.171 214.158C189.921 216.623 223.684 219.732 234.938 221.018C246.193 222.197 257.876 216.088 260.234 213.194C262.592 210.192 261.52 197.438 260.234 195.401C258.947 193.365 254.553 193.043 248.979 193.365C243.406 193.793 199.675 193.043 196.459 193.257C193.244 193.257 189.385 192.829 189.171 195.294Z" fill="#9AF4DC"/>
<path d="M189.172 214.158C189.922 216.516 223.685 219.732 234.939 221.018C246.194 222.197 257.877 216.087 260.235 213.193" stroke="#171A21" stroke-width="2" stroke-miterlimit="10" stroke-linecap="round" stroke-linejoin="round"/>
<path d="M180.809 251.565C185.632 260.783 189.383 274.181 181.238 292.402C169.983 317.805 151.012 365.394 151.012 365.394" stroke="#171A21" stroke-width="2" stroke-miterlimit="10" stroke-linecap="round" stroke-linejoin="round"/>
<path d="M290.35 286.4L292.279 395.084" stroke="#171A21" stroke-width="2" stroke-miterlimit="10" stroke-linecap="round" stroke-linejoin="round"/>
<path d="M275.778 90.5756C279.958 106.224 280.709 123.481 282.638 136.45C284.567 149.419 279.101 177.287 249.411 175.679C219.721 174.072 194.64 173.321 185.315 145.132C175.99 116.943 167.416 65.9234 194.426 57.6702C221.436 49.4171 275.778 90.5756 275.778 90.5756Z" fill="#FFD394"/>
<path d="M214.575 81.3579C238.048 108.475 314.792 95.2918 276.849 56.4913C300.75 -31.1849 176.31 -4.92495 175.667 54.8835C129.471 70.8539 138.26 107.082 158.518 130.555C180.598 156.065 189.279 126.911 192.388 121.445C195.496 115.978 218.326 110.405 214.575 81.3579Z" fill="#FB7070"/>
<path d="M176.739 160.674C187.335 160.674 195.924 152.084 195.924 141.488C195.924 130.892 187.335 122.302 176.739 122.302C166.143 122.302 157.553 130.892 157.553 141.488C157.553 152.084 166.143 160.674 176.739 160.674Z" fill="#FFD394"/>
<path d="M179.313 122.516C176.847 122.195 174.275 122.302 171.703 123.052C161.413 125.839 155.411 136.343 158.197 146.633C160.984 156.922 171.488 162.925 181.778 160.138C184.993 159.28 187.887 157.565 190.138 155.422C201.821 173.536 223.901 174.393 249.411 175.679C279.101 177.287 284.567 149.312 282.638 136.45C280.708 123.481 279.958 106.224 275.778 90.5757" stroke="#171A21" stroke-width="2" stroke-miterlimit="10" stroke-linecap="round" stroke-linejoin="round"/>
<path d="M249.09 105.26L261.737 121.337C262.595 122.409 262.916 123.91 262.488 125.196L261.952 127.018C261.416 128.84 259.915 130.019 258.093 130.233L251.662 130.769C249.304 130.984 247.16 129.162 246.946 126.803L245.017 106.867C244.909 104.616 247.696 103.545 249.09 105.26Z" fill="#FB7070"/>
<path d="M268.976 114.152C271.72 113.412 273.106 109.707 272.073 105.878C271.04 102.049 267.978 99.5446 265.235 100.285C262.492 101.025 261.105 104.729 262.138 108.559C263.171 112.388 266.233 114.892 268.976 114.152Z" fill="#2F58FF"/>
<path d="M227.914 125.19C231.286 124.28 233.182 120.438 232.148 116.609C231.115 112.78 227.544 110.413 224.172 111.323C220.8 112.233 218.904 116.074 219.937 119.904C220.97 123.733 224.541 126.1 227.914 125.19Z" fill="#2F58FF"/>
<path d="M240.299 140.202L263.558 136.986C263.558 136.986 262.7 149.741 255.197 150.706C243.514 152.206 240.299 140.202 240.299 140.202Z" fill="white" stroke="#171A21" stroke-width="2" stroke-miterlimit="10" stroke-linecap="round" stroke-linejoin="round"/>
<path d="M183.385 136.129C181.027 132.592 173.417 131.841 170.523 133.771" stroke="#171A21" stroke-width="2" stroke-miterlimit="10" stroke-linecap="round" stroke-linejoin="round"/>
</svg>
