<svg width="459" height="461" viewBox="0 0 459 461" fill="none" xmlns="http://www.w3.org/2000/svg">
<mask id="mask0" mask-type="alpha" maskUnits="userSpaceOnUse" x="1" y="114" width="422" height="347">
<path d="M126.72 115.014C241.943 112.977 228.866 180.396 307.217 238.597C336.907 260.676 419.01 248.243 422.333 344.601C424.583 409.233 324.152 445.247 283.744 454.679C199.498 474.401 76.8798 447.819 27.5753 366.895C-24.1944 282.22 -4.79415 117.265 126.72 115.014Z" fill="#98F2DB"/>
</mask>
<g mask="url(#mask0)">
<path d="M470.351 164.104V131.842C470.351 122.195 462.526 114.478 452.987 114.478H209.573L-59.2436 300.442V308.266L-68.6758 313.09V362.716L-61.2801 369.039V401.623L-68.6758 412.342V444.818C-68.6758 454.465 -60.8514 462.182 -51.312 462.182H452.987C462.633 462.182 470.351 454.358 470.351 444.818V412.556L458.989 401.838V371.29L470.351 362.93V313.304L460.168 303.55V272.36L470.351 263.678V213.945L460.168 204.941V177.609L470.351 164.104Z" fill="#FEE2E2"/>
<path d="M201.213 164.104H470.351V213.837H201.213V164.104ZM200.891 263.463L209.573 313.089H470.351V263.463H200.891ZM-51.312 362.822H-68.6758V412.555H-47.3462H470.351V362.822H-51.312Z" fill="white"/>
<path d="M-51.312 114.37C-60.8514 114.37 -68.6758 122.195 -68.6758 131.841V313.196H-51.312H209.466V114.37H-51.312Z" fill="#F0F8FC"/>
<path d="M-33.8398 153.171C-38.6631 153.171 -42.6289 149.312 -42.6289 144.489C-42.6289 139.666 -38.7703 135.807 -33.947 135.807H-33.8398C-29.0166 135.807 -25.158 139.666 -25.158 144.489C-25.158 149.312 -29.0166 153.171 -33.8398 153.171ZM-33.8398 222.733C-38.6631 222.733 -42.6289 218.874 -42.6289 214.051C-42.6289 209.228 -38.7703 205.369 -33.947 205.369H-33.8398C-29.0166 205.369 -25.158 209.228 -25.158 214.051C-25.158 218.874 -29.0166 222.733 -33.8398 222.733ZM-33.8398 292.295C-38.6631 292.295 -42.6289 288.437 -42.6289 283.613C-42.6289 278.79 -38.7703 274.931 -33.947 274.931H-33.8398C-29.0166 274.931 -25.158 278.79 -25.158 283.613C-25.158 288.329 -29.0166 292.295 -33.8398 292.295ZM-33.8398 187.898C-38.6631 187.898 -42.6289 184.04 -42.6289 179.216C-42.6289 174.393 -38.7703 170.535 -33.947 170.535H-33.8398C-29.0166 170.535 -25.158 174.393 -25.158 179.216C-25.158 184.04 -29.0166 187.898 -33.8398 187.898ZM-33.8398 257.461C-38.6631 257.461 -42.6289 253.602 -42.6289 248.779C-42.6289 243.955 -38.7703 240.097 -33.947 240.097H-33.8398C-29.0166 240.097 -25.158 243.955 -25.158 248.779C-25.158 253.602 -29.0166 257.461 -33.8398 257.461ZM174.847 153.171C170.023 153.171 166.165 149.312 166.165 144.489C166.165 139.666 170.023 135.807 174.847 135.807H174.954C179.777 135.807 183.636 139.666 183.636 144.489C183.529 149.312 179.67 153.171 174.847 153.171ZM174.847 222.733C170.023 222.733 166.165 218.874 166.165 214.051C166.165 209.228 170.023 205.369 174.847 205.369H174.954C179.777 205.369 183.636 209.228 183.636 214.051C183.529 218.874 179.67 222.733 174.847 222.733ZM174.847 292.295C170.023 292.295 166.165 288.437 166.165 283.613C166.165 278.79 170.023 274.931 174.847 274.931H174.954C179.777 274.931 183.636 278.79 183.636 283.613C183.529 288.329 179.67 292.295 174.847 292.295ZM174.847 187.898C170.023 187.898 166.165 184.04 166.165 179.216C166.165 174.393 170.023 170.535 174.847 170.535H174.954C179.777 170.535 183.636 174.393 183.636 179.216C183.529 184.04 179.67 187.898 174.847 187.898ZM174.847 257.461C170.023 257.461 166.165 253.602 166.165 248.779C166.165 243.955 170.023 240.097 174.847 240.097H174.954C179.777 240.097 183.636 243.955 183.636 248.779C183.529 253.602 179.67 257.461 174.847 257.461ZM18.3586 153.171C13.5353 153.171 9.67671 149.312 9.67671 144.489C9.67671 139.666 13.5353 135.807 18.3586 135.807H18.4658C23.289 135.807 27.1476 139.666 27.1476 144.489C27.0405 149.312 23.1818 153.171 18.3586 153.171ZM18.3586 222.733C13.5353 222.733 9.67671 218.874 9.67671 214.051C9.67671 209.228 13.5353 205.369 18.3586 205.369H18.4658C23.289 205.369 27.1476 209.228 27.1476 214.051C27.0405 218.874 23.1818 222.733 18.3586 222.733ZM18.3586 292.295C13.5353 292.295 9.67671 288.437 9.67671 283.613C9.67671 278.79 13.5353 274.931 18.3586 274.931H18.4658C23.289 274.931 27.1476 278.79 27.1476 283.613C27.0405 288.329 23.1818 292.295 18.3586 292.295ZM18.3586 187.898C13.5353 187.898 9.67671 184.04 9.67671 179.216C9.67671 174.393 13.5353 170.535 18.3586 170.535H18.4658C23.289 170.535 27.1476 174.393 27.1476 179.216C27.0405 184.04 23.1818 187.898 18.3586 187.898ZM18.3586 257.461C13.5353 257.461 9.67671 253.602 9.67671 248.779C9.67671 243.955 13.5353 240.097 18.3586 240.097H18.4658C23.289 240.097 27.1476 243.955 27.1476 248.779C27.0405 253.602 23.1818 257.461 18.3586 257.461ZM-7.68704 170.535C-12.5103 170.535 -16.3689 166.676 -16.3689 161.853C-16.3689 157.029 -12.5103 153.171 -7.68704 153.171H-7.57986C-2.75659 153.171 1.10202 157.029 1.10202 161.853C0.994831 166.676 -2.97096 170.535 -7.68704 170.535ZM-7.68704 240.097C-12.5103 240.097 -16.3689 236.238 -16.3689 231.415C-16.3689 226.592 -12.5103 222.733 -7.68704 222.733H-7.57986C-2.75659 222.733 1.10202 226.592 1.10202 231.415C0.994831 236.238 -2.97096 240.097 -7.68704 240.097ZM-7.68704 205.369C-12.5103 205.369 -16.3689 201.511 -16.3689 196.687C-16.3689 191.864 -12.5103 188.006 -7.68704 188.006H-7.57986C-2.75659 188.006 1.10202 191.864 1.10202 196.687C0.994831 201.404 -2.97096 205.369 -7.68704 205.369ZM-7.68704 274.931C-12.5103 274.931 -16.3689 271.073 -16.3689 266.25C-16.3689 261.426 -12.5103 257.568 -7.68704 257.568H-7.57986C-2.75659 257.568 1.10202 261.426 1.10202 266.25C0.994831 270.966 -2.97096 274.931 -7.68704 274.931ZM70.557 153.171C65.7337 153.171 61.8751 149.312 61.8751 144.489C61.8751 139.666 65.7337 135.807 70.557 135.807H70.6642C75.4875 135.807 79.3461 139.666 79.3461 144.489C79.2389 149.312 75.2731 153.171 70.557 153.171ZM70.557 222.733C65.7337 222.733 61.8751 218.874 61.8751 214.051C61.8751 209.228 65.7337 205.369 70.557 205.369H70.6642C75.4875 205.369 79.3461 209.228 79.3461 214.051C79.2389 218.874 75.2731 222.733 70.557 222.733ZM70.557 292.295C65.7337 292.295 61.8751 288.437 61.8751 283.613C61.8751 278.79 65.7337 274.931 70.557 274.931H70.6642C75.4875 274.931 79.3461 278.79 79.3461 283.613C79.2389 288.329 75.2731 292.295 70.557 292.295ZM70.557 187.898C65.7337 187.898 61.8751 184.04 61.8751 179.216C61.8751 174.393 65.7337 170.535 70.557 170.535H70.6642C75.4875 170.535 79.3461 174.393 79.3461 179.216C79.2389 184.04 75.2731 187.898 70.557 187.898ZM70.557 257.461C65.7337 257.461 61.8751 253.602 61.8751 248.779C61.8751 243.955 65.7337 240.097 70.557 240.097H70.6642C75.4875 240.097 79.3461 243.955 79.3461 248.779C79.2389 253.602 75.2731 257.461 70.557 257.461ZM44.4042 170.535C39.5809 170.535 35.6152 166.676 35.6152 161.853C35.6152 157.029 39.4738 153.171 44.297 153.171H44.4042C49.2275 153.171 53.0861 157.029 53.0861 161.853C53.0861 166.676 49.2275 170.535 44.4042 170.535ZM44.4042 240.097C39.5809 240.097 35.6152 236.238 35.6152 231.415C35.6152 226.592 39.4738 222.733 44.297 222.733H44.4042C49.2275 222.733 53.0861 226.592 53.0861 231.415C53.0861 236.238 49.2275 240.097 44.4042 240.097ZM44.4042 205.369C39.5809 205.369 35.6152 201.511 35.6152 196.687C35.6152 191.864 39.4738 188.006 44.297 188.006H44.4042C49.2275 188.006 53.0861 191.864 53.0861 196.687C53.0861 201.404 49.2275 205.369 44.4042 205.369ZM44.4042 274.931C39.5809 274.931 35.6152 271.073 35.6152 266.25C35.6152 261.426 39.4738 257.568 44.297 257.568H44.4042C49.2275 257.568 53.0861 261.426 53.0861 266.25C53.0861 270.966 49.2275 274.931 44.4042 274.931ZM122.648 153.171C117.825 153.171 113.966 149.312 113.966 144.489C113.966 139.666 117.825 135.807 122.648 135.807H122.755C127.579 135.807 131.437 139.666 131.437 144.489C131.33 149.312 127.364 153.171 122.648 153.171ZM122.648 222.733C117.825 222.733 113.966 218.874 113.966 214.051C113.966 209.228 117.825 205.369 122.648 205.369H122.755C127.579 205.369 131.437 209.228 131.437 214.051C131.33 218.874 127.364 222.733 122.648 222.733ZM122.648 292.295C117.825 292.295 113.966 288.437 113.966 283.613C113.966 278.79 117.825 274.931 122.648 274.931H122.755C127.579 274.931 131.437 278.79 131.437 283.613C131.33 288.329 127.364 292.295 122.648 292.295ZM122.648 187.898C117.825 187.898 113.966 184.04 113.966 179.216C113.966 174.393 117.825 170.535 122.648 170.535H122.755C127.579 170.535 131.437 174.393 131.437 179.216C131.33 184.04 127.364 187.898 122.648 187.898ZM122.648 257.461C117.825 257.461 113.966 253.602 113.966 248.779C113.966 243.955 117.825 240.097 122.648 240.097H122.755C127.579 240.097 131.437 243.955 131.437 248.779C131.33 253.602 127.364 257.461 122.648 257.461ZM96.4955 170.535C91.6722 170.535 87.8136 166.676 87.8136 161.853C87.8136 157.029 91.6722 153.171 96.4955 153.171H96.6026C101.426 153.171 105.285 157.029 105.285 161.853C105.177 166.676 101.319 170.535 96.4955 170.535ZM96.4955 240.097C91.6722 240.097 87.8136 236.238 87.8136 231.415C87.8136 226.592 91.6722 222.733 96.4955 222.733H96.6026C101.426 222.733 105.285 226.592 105.285 231.415C105.177 236.238 101.319 240.097 96.4955 240.097ZM96.4955 205.369C91.6722 205.369 87.8136 201.511 87.8136 196.687C87.8136 191.864 91.6722 188.006 96.4955 188.006H96.6026C101.426 188.006 105.285 191.864 105.285 196.687C105.177 201.404 101.319 205.369 96.4955 205.369ZM96.4955 274.931C91.6722 274.931 87.8136 271.073 87.8136 266.25C87.8136 261.426 91.6722 257.568 96.4955 257.568H96.6026C101.426 257.568 105.285 261.426 105.285 266.25C105.177 270.966 101.319 274.931 96.4955 274.931ZM148.801 170.535C143.978 170.535 140.119 166.676 140.119 161.853C140.119 157.029 143.978 153.171 148.801 153.171H148.908C153.732 153.171 157.59 157.029 157.59 161.853C157.483 166.676 153.517 170.535 148.801 170.535ZM148.801 240.097C143.978 240.097 140.119 236.238 140.119 231.415C140.119 226.592 143.978 222.733 148.801 222.733H148.908C153.732 222.733 157.59 226.592 157.59 231.415C157.483 236.238 153.517 240.097 148.801 240.097ZM148.801 205.369C143.978 205.369 140.119 201.511 140.119 196.687C140.119 191.864 143.978 188.006 148.801 188.006H148.908C153.732 188.006 157.59 191.864 157.59 196.687C157.483 201.404 153.517 205.369 148.801 205.369ZM148.801 274.931C143.978 274.931 140.119 271.073 140.119 266.25C140.119 261.426 143.978 257.568 148.801 257.568H148.908C153.732 257.568 157.59 261.426 157.59 266.25C157.483 270.966 153.517 274.931 148.801 274.931Z" fill="white"/>
</g>
<path d="M73.8812 415.664C55.2313 402.373 39.2609 386.188 27.4707 366.895" stroke="#171A21" stroke-width="2" stroke-miterlimit="10" stroke-linecap="round" stroke-linejoin="round" stroke-dasharray="12 12"/>
<path d="M420.939 359.285C416.008 382.33 397.894 401.194 375.707 415.985" stroke="#171A21" stroke-width="2" stroke-miterlimit="10" stroke-linecap="round" stroke-linejoin="round" stroke-dasharray="12 12"/>
<path d="M360.488 257.996C385.248 266.678 409.793 280.934 418.796 317.698" stroke="#171A21" stroke-width="2" stroke-miterlimit="10" stroke-linecap="round" stroke-linejoin="round" stroke-dasharray="12 12"/>
<path d="M7.31799 317.269C-14.2259 230.236 17.822 116.836 126.721 115.014C226.509 113.299 230.046 163.675 280.1 214.909" stroke="#171A21" stroke-width="2" stroke-miterlimit="10" stroke-linecap="round" stroke-linejoin="round" stroke-dasharray="12 12"/>
</svg>
