<svg width="458" height="461" viewBox="0 0 458 461" fill="none" xmlns="http://www.w3.org/2000/svg">
<path d="M431.193 100.115L431.086 100.008L430.979 99.9005C430.979 99.9005 430.872 99.9005 430.872 99.7933C430.872 99.7933 430.872 99.7933 430.765 99.7933C430.765 99.7933 430.658 99.7933 430.658 99.6861C430.658 99.6861 430.658 99.6861 430.55 99.6861C430.443 99.6861 430.443 99.5789 430.336 99.5789C430.122 99.4718 429.8 99.3646 429.586 99.2574C429.479 99.2574 429.479 99.2574 429.371 99.1502H429.264C429.05 99.043 428.728 98.9358 428.514 98.8287C428.407 98.8287 428.407 98.8287 428.3 98.7215C428.085 98.6143 427.764 98.5071 427.335 98.3999C427.013 98.2927 426.477 98.1856 426.263 98.0784C426.156 98.0784 426.156 98.0784 426.049 98.0784C426.049 98.0784 426.049 98.0784 425.941 98.0784H425.834H425.727H425.62H425.513H425.406C425.406 98.0784 425.406 98.0784 425.298 98.0784C424.977 98.0784 424.655 97.9712 424.334 97.9712C424.227 97.9712 424.227 97.9712 424.119 97.9712C424.012 97.9712 423.905 97.9712 423.798 97.9712C423.798 97.9712 423.798 97.9712 423.691 97.9712C423.583 97.9712 423.476 97.9712 423.369 97.9712C423.262 97.9712 423.262 97.9712 423.155 97.9712C422.833 97.9712 422.512 97.9712 422.083 97.9712C421.976 97.9712 421.868 97.9712 421.868 97.9712C421.761 97.9712 421.654 97.9712 421.547 97.9712H421.44C421.333 97.9712 421.225 97.9712 421.225 97.9712C421.225 97.9712 421.225 97.9712 421.118 97.9712C421.011 97.9712 420.904 97.9712 420.797 97.9712C420.475 97.9712 420.154 97.9712 419.725 98.0784C419.618 98.0784 419.51 98.0784 419.51 98.0784C419.403 98.0784 419.296 98.0784 419.296 98.0784H419.189C419.082 98.0784 419.082 98.0784 418.975 98.0784H418.867C418.76 98.0784 418.76 98.0784 418.653 98.0784H418.546C418.546 98.0784 418.546 98.0784 418.439 98.0784C418.331 98.0784 418.331 98.0784 418.224 98.0784C417.903 98.1856 417.581 98.1856 417.26 98.2927C417.152 98.2927 417.045 98.2927 417.045 98.2927C416.724 98.3999 416.295 98.5071 415.759 98.6143H415.652C415.33 98.7215 415.116 98.8287 414.794 98.8287C414.687 98.8287 414.687 98.8287 414.58 98.9358C414.151 99.043 413.83 99.1502 413.401 99.2574C413.294 99.2574 413.187 99.3646 413.187 99.3646C412.865 99.4718 412.544 99.5789 412.008 99.7933C411.9 99.7933 411.793 99.9005 411.686 99.9005C411.364 100.008 411.15 100.115 410.829 100.222C410.721 100.222 410.614 100.329 410.507 100.329C410.185 100.544 409.757 100.651 409.221 100.865C408.792 101.08 408.363 101.294 408.042 101.508C407.935 101.508 407.827 101.615 407.72 101.615C407.399 101.83 406.97 102.044 406.648 102.259C406.541 102.366 406.434 102.366 406.327 102.473L374.172 139.558C372.457 141.595 371.492 144.167 371.492 146.847L371.599 179.216C371.599 181.574 372.886 183.718 374.922 184.897L387.891 192.4L387.784 152.099L422.833 111.691C423.262 111.476 423.691 111.262 424.119 111.048C424.227 111.048 424.334 110.94 424.441 110.94C424.87 110.726 425.298 110.512 425.62 110.297C426.156 110.083 426.477 109.869 426.906 109.761C427.013 109.761 427.12 109.654 427.228 109.654C427.656 109.44 427.978 109.333 428.407 109.118C428.943 108.904 429.264 108.797 429.586 108.69C429.693 108.69 429.8 108.582 429.8 108.582C430.229 108.475 430.55 108.368 430.979 108.261C431.086 108.261 431.086 108.261 431.193 108.154C431.515 108.046 431.837 107.939 432.158 107.832C432.694 107.725 433.123 107.618 433.444 107.511C433.551 107.511 433.659 107.511 433.659 107.511C433.98 107.403 434.302 107.403 434.623 107.296C434.731 107.296 434.838 107.296 434.945 107.296H435.052C435.159 107.296 435.159 107.296 435.266 107.296H435.374C435.481 107.296 435.481 107.296 435.588 107.296C435.588 107.296 435.588 107.296 435.695 107.296C435.802 107.296 435.91 107.296 435.91 107.296C436.017 107.296 436.124 107.296 436.124 107.296C436.445 107.296 436.767 107.189 437.196 107.189C437.303 107.189 437.41 107.189 437.517 107.189H437.624C437.732 107.189 437.839 107.189 437.839 107.189H437.946C438.053 107.189 438.16 107.189 438.268 107.189C438.375 107.189 438.482 107.189 438.482 107.189C438.804 107.189 439.125 107.189 439.554 107.189C439.661 107.189 439.661 107.189 439.768 107.189C439.875 107.189 439.983 107.189 440.09 107.189C440.09 107.189 440.09 107.189 440.197 107.189C440.304 107.189 440.411 107.189 440.518 107.189C440.626 107.189 440.626 107.189 440.733 107.189C441.054 107.189 441.376 107.296 441.697 107.296C441.805 107.296 441.805 107.296 441.912 107.296H442.019H442.126H442.233H442.341C442.341 107.296 442.341 107.296 442.448 107.296C442.555 107.296 442.555 107.296 442.662 107.296C442.769 107.296 442.769 107.296 442.876 107.296C443.198 107.403 443.52 107.403 443.841 107.511C444.27 107.618 444.484 107.725 444.806 107.832C444.913 107.832 444.913 107.832 445.02 107.939C445.342 108.046 445.556 108.154 445.878 108.261C445.985 108.261 445.985 108.261 446.092 108.368C446.306 108.475 446.628 108.582 446.842 108.69C446.949 108.69 446.949 108.797 447.057 108.797C447.057 108.797 447.057 108.797 447.164 108.797C447.164 108.797 447.271 108.797 447.271 108.904C447.271 108.904 447.271 108.904 447.378 108.904C447.378 108.904 447.485 108.904 447.485 109.011C447.593 109.011 447.593 109.118 447.7 109.118H447.807C447.807 109.118 447.807 109.118 447.914 109.118L431.193 100.115Z" fill="#98A2F4"/>
<path d="M437.194 106.974C437.301 106.974 437.301 106.974 437.194 106.974C437.301 106.974 437.301 106.974 437.194 106.974ZM436.015 107.082C436.122 107.082 436.122 107.082 436.015 107.082C436.122 107.082 436.122 107.082 436.015 107.082ZM434.407 107.296C434.514 107.296 434.514 107.189 434.407 107.296C434.514 107.189 434.514 107.296 434.407 107.296ZM431.513 107.832C431.513 107.832 431.62 107.832 431.513 107.832C431.62 107.832 431.513 107.832 431.513 107.832ZM431.084 108.046C431.084 108.046 431.192 108.046 431.084 108.046C431.192 108.046 431.084 108.046 431.084 108.046ZM430.87 108.046C430.977 108.046 430.977 108.046 430.87 108.046C430.977 108.046 430.977 108.046 430.87 108.046ZM430.441 108.153C430.441 108.153 430.549 108.153 430.441 108.153C430.549 108.153 430.441 108.153 430.441 108.153ZM430.227 108.261C430.334 108.261 430.334 108.261 430.227 108.261C430.334 108.261 430.334 108.261 430.227 108.261ZM429.798 108.368C429.798 108.368 429.905 108.368 429.798 108.368C429.905 108.368 429.798 108.368 429.798 108.368ZM429.584 108.475C429.584 108.475 429.691 108.475 429.584 108.475C429.691 108.475 429.584 108.475 429.584 108.475ZM429.37 108.582C429.477 108.582 429.477 108.582 429.37 108.582C429.477 108.582 429.477 108.582 429.37 108.582ZM428.941 108.689C428.941 108.689 429.048 108.689 428.941 108.689C429.048 108.689 428.941 108.689 428.941 108.689ZM428.726 108.796C428.726 108.796 428.834 108.796 428.726 108.796C428.834 108.796 428.726 108.796 428.726 108.796ZM428.298 109.011C428.298 108.904 428.298 108.904 428.298 109.011C428.298 108.904 428.298 108.904 428.298 109.011ZM427.226 109.44C427.226 109.44 427.226 109.332 427.226 109.44C427.226 109.332 427.226 109.44 427.226 109.44ZM426.797 109.654C426.797 109.547 426.797 109.547 426.797 109.654C426.797 109.547 426.797 109.547 426.797 109.654ZM425.832 109.976C425.94 109.976 425.94 109.976 425.832 109.976C425.94 109.976 425.94 109.976 425.832 109.976ZM425.404 110.19C425.404 110.19 425.511 110.19 425.404 110.19C425.511 110.19 425.404 110.19 425.404 110.19ZM425.189 110.297C425.189 110.297 425.297 110.297 425.189 110.297C425.297 110.297 425.189 110.297 425.189 110.297ZM424.975 110.404C424.975 110.404 425.082 110.404 424.975 110.404C425.082 110.404 424.975 110.404 424.975 110.404ZM423.796 111.047C423.903 111.047 423.903 111.047 423.796 111.047C423.903 111.047 423.903 111.047 423.796 111.047ZM423.582 111.155C423.689 111.155 423.689 111.155 423.582 111.155C423.689 111.155 423.689 111.155 423.582 111.155ZM422.724 111.69C422.724 111.583 422.724 111.583 422.724 111.69C422.724 111.583 422.724 111.583 422.724 111.69ZM422.51 111.798L422.617 152.313L422.724 192.828C442.232 181.574 457.988 154.242 457.88 131.948C457.88 126.803 457.023 122.409 455.522 118.765L422.617 152.313L422.51 111.798Z" fill="#FFD394"/>
<path d="M387.246 152.42L387.353 192.936L422.724 192.829L422.617 152.313L387.246 152.42Z" fill="#2F58FF"/>
<path d="M422.51 111.798L387.246 152.42L422.617 152.313L422.51 111.798Z" fill="#9AF4DC"/>
<path d="M422.51 111.798L422.617 152.313L455.522 118.765C452.414 111.369 446.626 107.296 439.123 106.974C438.909 106.974 438.802 106.974 438.587 106.974C438.48 106.974 438.48 106.974 438.373 106.974C438.266 106.974 438.159 106.974 437.944 106.974C437.837 106.974 437.837 106.974 437.73 106.974C437.515 106.974 437.301 106.974 437.194 106.974C437.087 106.974 437.087 106.974 436.98 106.974C436.872 106.974 436.765 106.974 436.551 106.974C436.444 106.974 436.444 106.974 436.336 106.974C436.229 106.974 436.122 106.974 435.908 106.974C435.801 106.974 435.801 106.974 435.693 106.974C435.586 106.974 435.586 106.974 435.479 106.974C435.372 106.974 435.372 106.974 435.265 106.974C435.157 106.974 435.157 106.974 435.05 106.974C434.943 106.974 434.943 106.974 434.836 106.974C434.729 106.974 434.621 106.974 434.407 107.082C434.3 107.082 434.3 107.082 434.193 107.082C434.086 107.082 433.978 107.082 433.764 107.189C433.657 107.189 433.657 107.189 433.55 107.189C433.442 107.189 433.442 107.189 433.335 107.189C433.228 107.189 433.228 107.189 433.121 107.189C433.014 107.189 433.014 107.189 432.907 107.189C432.799 107.189 432.799 107.189 432.692 107.189C432.585 107.189 432.478 107.296 432.263 107.296H432.156C432.049 107.296 432.049 107.296 431.942 107.296C431.835 107.296 431.835 107.296 431.728 107.296H431.62C431.513 107.296 431.513 107.296 431.406 107.296C431.299 107.296 431.299 107.296 431.192 107.403C431.084 107.403 431.084 107.403 430.977 107.403C430.87 107.403 430.87 107.403 430.763 107.403C430.656 107.403 430.549 107.51 430.334 107.51C430.227 107.51 430.227 107.51 430.227 107.51C430.12 107.51 430.12 107.51 430.013 107.617C429.905 107.617 429.905 107.617 429.798 107.725C429.691 107.725 429.691 107.725 429.584 107.832C429.477 107.832 429.477 107.832 429.37 107.939C429.262 107.939 429.262 107.939 429.155 108.046C429.048 108.046 429.048 108.046 428.941 108.153C428.941 108.153 428.941 108.153 428.834 108.153C428.834 108.153 428.726 108.153 428.726 108.261C428.619 108.261 428.619 108.261 428.512 108.368C428.405 108.368 428.405 108.368 428.298 108.475C428.298 108.475 428.19 108.475 428.19 108.582C428.19 108.582 428.19 108.582 428.083 108.582C428.083 108.582 427.976 108.582 427.976 108.689C427.869 108.689 427.869 108.796 427.762 108.796C427.762 108.796 427.655 108.796 427.655 108.904C427.655 108.904 427.655 108.904 427.547 108.904C427.547 108.904 427.44 108.904 427.44 109.011C427.44 109.011 427.44 109.011 427.333 109.011C427.226 109.011 427.226 109.118 427.119 109.118C427.011 109.118 427.011 109.225 426.904 109.225C426.904 109.225 426.904 109.225 426.797 109.225C426.797 109.225 426.69 109.225 426.69 109.332C426.69 109.332 426.69 109.332 426.583 109.332C426.476 109.332 426.476 109.44 426.368 109.44C426.261 109.44 426.261 109.547 426.154 109.547C426.047 109.547 426.047 109.547 426.047 109.654C426.047 109.654 426.047 109.654 425.94 109.654C425.832 109.654 425.832 109.654 425.725 109.761C425.618 109.761 425.618 109.868 425.511 109.868C425.511 109.868 425.404 109.868 425.404 109.976C425.404 109.976 425.404 109.976 425.297 109.976C425.297 109.976 425.189 109.976 425.189 110.083C425.189 110.083 425.189 110.083 425.082 110.083C424.975 110.083 424.975 110.19 424.868 110.19C424.761 110.19 424.761 110.297 424.653 110.297C424.653 110.297 424.653 110.297 424.546 110.297C424.546 110.297 424.439 110.297 424.439 110.404C424.439 110.404 424.439 110.404 424.332 110.404C424.225 110.404 424.225 110.511 424.118 110.511C424.01 110.511 424.01 110.619 423.903 110.619C423.903 110.619 423.903 110.619 423.796 110.619C423.796 110.619 423.689 110.619 423.689 110.726C423.689 110.726 423.689 110.726 423.582 110.726L423.474 110.833C423.367 110.833 423.367 110.94 423.26 110.94C423.153 110.94 423.153 111.047 423.046 111.047C423.046 111.047 423.046 111.047 422.938 111.047L422.831 111.155C422.831 111.155 422.831 111.155 422.724 111.155C422.617 111.69 422.617 111.69 422.51 111.798Z" fill="#FB7070"/>
</svg>
