<?xml version="1.0" encoding="utf-8"?>
<!-- Generator: Adobe Illustrator 22.1.0, SVG Export Plug-In . SVG Version: 6.00 Build 0)  -->
<svg version="1.1" id="Слой_1" xmlns="http://www.w3.org/2000/svg" xmlns:xlink="http://www.w3.org/1999/xlink" x="0px" y="0px"
	 viewBox="0 0 591.8 541.9" style="enable-background:new 0 0 591.8 541.9;" xml:space="preserve">
<style type="text/css">
	.st0{fill:#FFFFFF;}
	.st1{fill:#FB7070;}
	.st2{fill:none;stroke:#171A21;stroke-width:2;stroke-linecap:round;stroke-linejoin:round;stroke-miterlimit:10;}
</style>
<g>
	<g>
		<path class="st0" d="M363.5,110.5l-1.5-11l24-8.5l44.5-4.5L482,91l13.5,5.5l6.5,8.5l-1.5,5.5L498,118l-5.5,8.5
			c-5.7,4-17.4,12.3-19,13.5c-2,1.5-28.5,11.5-31.5,11s-43.5-7.5-45-8c-1.2-0.4-12.2-8.8-17.5-13L363.5,110.5z"/>
		<path class="st0" d="M245,466.5l4.5-11l21.5-3l42-11.5l68.5,6l19.5,8.5l3,15v9.5l-3,12.5L376.5,509c-13.5,4.3-40.7,13-41.5,13
			s-32.3-2.3-48-3.5l-29-17l-11.5-20L245,466.5z"/>
		<path class="st0" d="M2.1,195.3l-1.5-11l24-8.5l44.5-4.5l51.5,4.5l13.5,5.5l6.5,8.5l-1.5,5.5l-2.5,7.5l-5.5,8.5
			c-5.7,4-17.4,12.3-19,13.5c-2,1.5-28.5,11.5-31.5,11s-43.5-7.5-45-8c-1.2-0.4-12.2-8.8-17.5-13L2.1,195.3z"/>
		<path class="st1" d="M140.7,185.8c0,0.4,0,0.7-0.1,1.1c0,0.3-0.1,0.6-0.1,0.9s-0.1,0.7-0.2,1c-0.1,0.3-0.1,0.6-0.2,0.9
			c-0.1,0.3-0.2,0.7-0.2,1c-0.1,0.3-0.2,0.6-0.3,0.9c-0.1,0.3-0.2,0.7-0.3,1s-0.2,0.6-0.3,0.9c-0.1,0.4-0.3,0.7-0.4,1.1
			c-0.1,0.3-0.3,0.6-0.4,0.9c-0.2,0.4-0.4,0.7-0.5,1c-0.2,0.4-0.4,0.7-0.6,1.1c-0.1,0.1-0.1,0.2-0.2,0.3c-0.3,0.5-0.7,1.1-1,1.6
			c-0.1,0.1-0.1,0.2-0.2,0.3c-0.4,0.5-0.8,1-1.2,1.6c-0.1,0.1-0.2,0.2-0.2,0.3c-0.4,0.4-0.7,0.9-1.1,1.3c-0.1,0.1-0.2,0.2-0.3,0.4
			c-0.5,0.5-1,1-1.5,1.5c-0.1,0.1-0.2,0.2-0.3,0.3c-0.4,0.4-0.8,0.7-1.2,1.1c-0.3,0.3-0.7,0.6-1,0.9c-0.3,0.3-0.6,0.5-1,0.8
			c-0.4,0.3-0.7,0.6-1.1,0.9c-0.3,0.3-0.7,0.5-1,0.8c-0.4,0.3-0.8,0.6-1.2,0.8c-0.4,0.3-0.7,0.5-1.1,0.8s-0.8,0.5-1.3,0.8
			s-1.1,0.7-1.6,1c-1,0.6-2.1,1.2-3.2,1.7c-0.3,0.2-0.6,0.3-1,0.5c-0.9,0.4-1.7,0.8-2.6,1.2c-0.3,0.1-0.6,0.3-0.9,0.4
			c-1.1,0.5-2.3,1-3.5,1.4c-0.2,0.1-0.4,0.1-0.6,0.2c-1,0.4-2,0.7-3,1.1c-0.4,0.1-0.8,0.3-1.3,0.4c-0.6,0.2-1.1,0.4-1.7,0.5
			c-0.5,0.1-1,0.3-1.4,0.4c-0.6,0.2-1.2,0.3-1.7,0.5c-0.5,0.1-1,0.3-1.5,0.4c-0.6,0.1-1.2,0.3-1.8,0.4c-0.5,0.1-1,0.2-1.5,0.3
			c-0.6,0.1-1.2,0.2-1.8,0.4c-0.5,0.1-0.9,0.2-1.4,0.3c-1.3,0.2-2.6,0.4-4,0.6c-0.2,0-0.4,0-0.6,0.1c-1.2,0.2-2.3,0.3-3.5,0.4
			c-0.4,0-0.9,0.1-1.3,0.1c-0.7,0.1-1.5,0.1-2.3,0.2c-0.5,0-0.9,0.1-1.4,0.1c-0.8,0-1.6,0.1-2.4,0.1c-0.4,0-0.9,0-1.3,0.1
			c-0.7,0-1.4,0-2,0c-0.5,0-1,0-1.4,0c-0.7,0-1.5,0-2.2,0c-0.4,0-0.9,0-1.3,0c-0.7,0-1.3,0-2-0.1c-0.5,0-0.9,0-1.4-0.1
			c-0.7,0-1.4-0.1-2.2-0.1c-0.4,0-0.8-0.1-1.2-0.1c-0.9-0.1-1.7-0.2-2.6-0.3c-0.3,0-0.5,0-0.8-0.1c-1.1-0.1-2.2-0.3-3.3-0.4
			c-0.2,0-0.3-0.1-0.5-0.1c-1-0.1-1.9-0.3-2.9-0.5c-0.4-0.1-0.8-0.1-1.2-0.2c-0.7-0.1-1.4-0.3-2.2-0.4c-0.4-0.1-0.7-0.2-1.1-0.2
			c-0.8-0.2-1.6-0.3-2.3-0.5c-0.4-0.1-0.9-0.2-1.3-0.3c-0.7-0.2-1.4-0.4-2.1-0.6c-0.4-0.1-0.8-0.2-1.2-0.3c-1.1-0.3-2.2-0.7-3.3-1
			c-0.2-0.1-0.4-0.1-0.6-0.2c-1.3-0.4-2.5-0.9-3.7-1.3c-0.5-0.2-1-0.4-1.5-0.6c-0.4-0.2-0.8-0.3-1.2-0.5c-0.5-0.2-1.1-0.5-1.6-0.7
			c-0.4-0.2-0.7-0.3-1.1-0.5c-0.6-0.3-1.2-0.6-1.7-0.9c-0.3-0.1-0.6-0.3-0.9-0.4c-0.9-0.4-1.7-0.9-2.5-1.4C7.9,205,1,194.6,1,184.1
			l-0.2,27.3c0,10.4,6.9,20.9,20.6,28.8c0.8,0.5,1.7,0.9,2.5,1.4c0.3,0.1,0.6,0.3,0.9,0.4c0.6,0.3,1.2,0.6,1.7,0.9
			c0.3,0.2,0.7,0.3,1.1,0.5c0.5,0.2,1.1,0.5,1.6,0.7c0.4,0.2,0.8,0.3,1.2,0.5c0.4,0.2,0.7,0.3,1.1,0.5c0.1,0,0.2,0.1,0.4,0.1
			c1.2,0.5,2.4,0.9,3.7,1.3c0.2,0.1,0.4,0.1,0.6,0.2c1.1,0.4,2.2,0.7,3.3,1c0.2,0.1,0.4,0.1,0.6,0.2c0.2,0.1,0.4,0.1,0.6,0.2
			c0.7,0.2,1.4,0.4,2.1,0.6c0.4,0.1,0.9,0.2,1.3,0.3c0.8,0.2,1.6,0.4,2.3,0.5c0.3,0.1,0.6,0.1,0.9,0.2c0.1,0,0.2,0,0.2,0
			c0.7,0.1,1.4,0.3,2.2,0.4c0.4,0.1,0.8,0.2,1.2,0.2c0.9,0.2,1.9,0.3,2.9,0.5c0.2,0,0.3,0.1,0.5,0.1c1.1,0.2,2.2,0.3,3.3,0.4
			c0.3,0,0.5,0,0.8,0.1c0.9,0.1,1.7,0.2,2.6,0.3c0,0,0,0,0.1,0c0.4,0,0.8,0.1,1.2,0.1c0.7,0.1,1.4,0.1,2.2,0.1c0.5,0,0.9,0,1.4,0.1
			c0.7,0,1.3,0.1,2,0.1c0.1,0,0.1,0,0.2,0c0.4,0,0.8,0,1.1,0c0.7,0,1.5,0,2.2,0c0.5,0,1,0,1.4,0c0.7,0,1.4,0,2,0c0.1,0,0.3,0,0.4,0
			c0.3,0,0.6,0,0.9,0c0.8,0,1.6-0.1,2.4-0.1c0.5,0,0.9-0.1,1.4-0.1c0.8-0.1,1.5-0.1,2.3-0.2c0.3,0,0.5,0,0.8-0.1
			c0.2,0,0.4,0,0.5-0.1c1.2-0.1,2.3-0.3,3.5-0.4c0.2,0,0.4,0,0.6-0.1c1.3-0.2,2.6-0.4,4-0.6c0.1,0,0.2,0,0.4-0.1
			c0.3-0.1,0.7-0.1,1-0.2c0.6-0.1,1.2-0.2,1.8-0.4c0.5-0.1,1-0.2,1.5-0.3c0.6-0.1,1.2-0.3,1.8-0.4c0.5-0.1,1-0.2,1.5-0.4
			c0.6-0.2,1.2-0.3,1.7-0.5c0.5-0.1,1-0.3,1.4-0.4c0.6-0.2,1.1-0.3,1.7-0.5c0.2-0.1,0.5-0.1,0.7-0.2c0.2-0.1,0.3-0.1,0.5-0.2
			c1-0.3,2-0.7,3-1.1c0.2-0.1,0.4-0.1,0.6-0.2c1.2-0.4,2.3-0.9,3.5-1.4c0.3-0.1,0.6-0.3,0.9-0.4c0.9-0.4,1.7-0.8,2.6-1.2
			c0.3-0.2,0.6-0.3,1-0.5c1.1-0.6,2.2-1.1,3.2-1.7c0.3-0.2,0.6-0.3,0.9-0.5s0.5-0.3,0.8-0.5c0.4-0.3,0.9-0.5,1.3-0.8
			c0.4-0.2,0.7-0.5,1.1-0.8s0.8-0.6,1.2-0.8c0.4-0.3,0.7-0.5,1-0.8c0.4-0.3,0.7-0.6,1.1-0.9c0.3-0.3,0.6-0.5,1-0.8
			c0.3-0.3,0.7-0.6,1-0.9c0.1-0.1,0.3-0.2,0.4-0.4c0.3-0.2,0.5-0.5,0.8-0.8c0.1-0.1,0.2-0.2,0.3-0.3c0.5-0.5,1-1,1.5-1.5
			c0.1-0.1,0.2-0.2,0.3-0.4c0.4-0.4,0.8-0.9,1.1-1.3c0.1-0.1,0.2-0.2,0.2-0.3l0.1-0.1c0.4-0.5,0.7-0.9,1.1-1.4
			c0.1-0.1,0.1-0.2,0.2-0.3c0.4-0.5,0.7-1.1,1-1.6c0.1-0.1,0.1-0.2,0.2-0.3c0.1-0.2,0.2-0.4,0.4-0.6c0.1-0.2,0.2-0.3,0.3-0.5
			c0.2-0.3,0.4-0.7,0.5-1s0.3-0.6,0.4-0.9c0.2-0.4,0.3-0.7,0.4-1.1c0.1-0.2,0.1-0.3,0.2-0.5c0.1-0.1,0.1-0.3,0.1-0.4
			c0.1-0.3,0.2-0.7,0.3-1s0.2-0.6,0.3-0.9c0.1-0.3,0.2-0.7,0.2-1c0-0.2,0.1-0.4,0.1-0.6c0-0.1,0-0.2,0.1-0.4c0.1-0.3,0.1-0.7,0.2-1
			c0-0.3,0.1-0.6,0.1-0.9c0-0.4,0.1-0.7,0.1-1.1c0-0.2,0-0.4,0-0.6s0-0.4,0-0.6l0.2-27.3C140.8,185,140.7,185.4,140.7,185.8z"/>
		<path class="st0" d="M1.6,189.6c-2.8-12,3.8-24.6,19.7-33.9c27.2-15.8,71.4-15.8,98.8,0c16.1,9.3,22.7,21.9,20,34"/>
		<path class="st2" d="M1.6,189.6c-2.8-12,3.8-24.6,19.7-33.9c27.2-15.8,71.4-15.8,98.8,0c16.1,9.3,22.7,21.9,20,34"/>
		<path class="st1" d="M501.8,100.6c0,0.4,0,0.7-0.1,1.1c0,0.3-0.1,0.6-0.1,0.9s-0.1,0.7-0.2,1s-0.1,0.6-0.2,0.9s-0.2,0.7-0.2,1
			c-0.1,0.3-0.2,0.6-0.3,0.9c-0.1,0.3-0.2,0.7-0.3,1c-0.1,0.3-0.2,0.6-0.3,0.9c-0.1,0.4-0.3,0.7-0.4,1.1c-0.1,0.3-0.3,0.6-0.4,0.9
			c-0.2,0.4-0.4,0.7-0.5,1c-0.2,0.4-0.4,0.7-0.6,1.1c-0.1,0.1-0.1,0.2-0.2,0.3c-0.3,0.5-0.7,1.1-1,1.6c-0.1,0.1-0.1,0.2-0.2,0.3
			c-0.4,0.5-0.8,1-1.2,1.6c-0.1,0.1-0.2,0.2-0.2,0.3c-0.4,0.4-0.7,0.9-1.1,1.3c-0.1,0.1-0.2,0.2-0.3,0.4c-0.5,0.5-1,1-1.5,1.5
			c-0.1,0.1-0.2,0.2-0.3,0.3c-0.4,0.4-0.8,0.7-1.2,1.1c-0.3,0.3-0.7,0.6-1,0.9s-0.6,0.5-1,0.8s-0.7,0.6-1.1,0.9
			c-0.3,0.3-0.7,0.5-1,0.8c-0.4,0.3-0.8,0.6-1.2,0.8c-0.4,0.3-0.7,0.5-1.1,0.8s-0.8,0.5-1.3,0.8s-1.1,0.7-1.6,1
			c-1,0.6-2.1,1.2-3.2,1.7c-0.3,0.2-0.6,0.3-1,0.5c-0.9,0.4-1.7,0.8-2.6,1.2c-0.3,0.1-0.6,0.3-0.9,0.4c-1.1,0.5-2.3,1-3.5,1.4
			c-0.2,0.1-0.4,0.1-0.6,0.2c-1,0.4-2,0.7-3,1.1c-0.4,0.1-0.8,0.3-1.3,0.4c-0.6,0.2-1.1,0.4-1.7,0.5c-0.5,0.1-1,0.3-1.4,0.4
			c-0.6,0.2-1.2,0.3-1.7,0.5c-0.5,0.1-1,0.3-1.5,0.4c-0.6,0.1-1.2,0.3-1.8,0.4c-0.5,0.1-1,0.2-1.5,0.3c-0.6,0.1-1.2,0.2-1.8,0.4
			c-0.5,0.1-0.9,0.2-1.4,0.3c-1.3,0.2-2.6,0.4-4,0.6c-0.2,0-0.4,0-0.6,0.1c-1.2,0.2-2.3,0.3-3.5,0.4c-0.4,0-0.9,0.1-1.3,0.1
			c-0.7,0.1-1.5,0.1-2.3,0.2c-0.5,0-0.9,0.1-1.4,0.1c-0.8,0-1.6,0.1-2.4,0.1c-0.4,0-0.9,0-1.3,0.1c-0.7,0-1.4,0-2,0
			c-0.5,0-1,0-1.4,0c-0.7,0-1.5,0-2.2,0c-0.4,0-0.9,0-1.3,0c-0.7,0-1.3,0-2-0.1c-0.5,0-0.9,0-1.4-0.1c-0.7,0-1.4-0.1-2.2-0.1
			c-0.4,0-0.8-0.1-1.2-0.1c-0.9-0.1-1.7-0.2-2.6-0.3c-0.3,0-0.5,0-0.8-0.1c-1.1-0.1-2.2-0.3-3.3-0.4c-0.2,0-0.3-0.1-0.5-0.1
			c-1-0.1-1.9-0.3-2.9-0.5c-0.4-0.1-0.8-0.1-1.2-0.2c-0.7-0.1-1.4-0.3-2.2-0.4c-0.4-0.1-0.7-0.2-1.1-0.2c-0.8-0.2-1.6-0.3-2.3-0.5
			c-0.4-0.1-0.9-0.2-1.3-0.3c-0.7-0.2-1.4-0.4-2.1-0.6c-0.4-0.1-0.8-0.2-1.2-0.3c-1.1-0.3-2.2-0.7-3.3-1c-0.2-0.1-0.4-0.1-0.6-0.2
			c-1.3-0.4-2.5-0.9-3.7-1.3c-0.5-0.2-1-0.4-1.5-0.6c-0.4-0.2-0.8-0.3-1.2-0.5c-0.5-0.2-1.1-0.5-1.6-0.7c-0.4-0.2-0.7-0.3-1.1-0.5
			c-0.6-0.3-1.2-0.6-1.7-0.9c-0.3-0.1-0.6-0.3-0.9-0.4c-0.9-0.4-1.7-0.9-2.5-1.4c-13.8-8-20.7-18.4-20.6-28.8l-0.2,27.3
			c0,10.4,6.9,20.9,20.6,28.8c0.8,0.5,1.7,0.9,2.5,1.4c0.3,0.1,0.6,0.3,0.9,0.4c0.6,0.3,1.2,0.6,1.7,0.9c0.3,0.2,0.7,0.3,1.1,0.5
			c0.5,0.2,1.1,0.5,1.6,0.7c0.4,0.2,0.8,0.3,1.2,0.5c0.4,0.2,0.7,0.3,1.1,0.5c0.1,0,0.2,0.1,0.4,0.1c1.2,0.5,2.4,0.9,3.7,1.3
			c0.2,0.1,0.4,0.1,0.6,0.2c1.1,0.4,2.2,0.7,3.3,1c0.2,0.1,0.4,0.1,0.6,0.2c0.2,0.1,0.4,0.1,0.6,0.2c0.7,0.2,1.4,0.4,2.1,0.6
			c0.4,0.1,0.9,0.2,1.3,0.3c0.8,0.2,1.6,0.4,2.3,0.5c0.3,0.1,0.6,0.1,0.9,0.2c0.1,0,0.2,0,0.2,0c0.7,0.1,1.4,0.3,2.2,0.4
			c0.4,0.1,0.8,0.2,1.2,0.2c0.9,0.2,1.9,0.3,2.9,0.5c0.2,0,0.3,0.1,0.5,0.1c1.1,0.2,2.2,0.3,3.3,0.4c0.3,0,0.5,0,0.8,0.1
			c0.9,0.1,1.7,0.2,2.6,0.3c0,0,0,0,0.1,0c0.4,0,0.8,0.1,1.2,0.1c0.7,0.1,1.4,0.1,2.2,0.1c0.5,0,0.9,0,1.4,0.1c0.7,0,1.3,0.1,2,0.1
			c0.1,0,0.1,0,0.2,0c0.4,0,0.8,0,1.1,0c0.7,0,1.5,0,2.2,0c0.5,0,1,0,1.4,0c0.7,0,1.4,0,2,0c0.1,0,0.3,0,0.4,0c0.3,0,0.6,0,0.9,0
			c0.8,0,1.6-0.1,2.4-0.1c0.5,0,0.9-0.1,1.4-0.1c0.8-0.1,1.5-0.1,2.3-0.2c0.3,0,0.5,0,0.8-0.1c0.2,0,0.4,0,0.5-0.1
			c1.2-0.1,2.3-0.3,3.5-0.4c0.2,0,0.4,0,0.6-0.1c1.3-0.2,2.6-0.4,4-0.6c0.1,0,0.2,0,0.4-0.1c0.3-0.1,0.7-0.1,1-0.2
			c0.6-0.1,1.2-0.2,1.8-0.4c0.5-0.1,1-0.2,1.5-0.3c0.6-0.1,1.2-0.3,1.8-0.4c0.5-0.1,1-0.2,1.5-0.4c0.6-0.2,1.2-0.3,1.7-0.5
			c0.5-0.1,1-0.3,1.4-0.4c0.6-0.2,1.1-0.3,1.7-0.5c0.2-0.1,0.5-0.1,0.7-0.2c0.2-0.1,0.3-0.1,0.5-0.2c1-0.3,2-0.7,3-1.1
			c0.2-0.1,0.4-0.1,0.6-0.2c1.2-0.4,2.3-0.9,3.5-1.4c0.3-0.1,0.6-0.3,0.9-0.4c0.9-0.4,1.7-0.8,2.6-1.2c0.3-0.2,0.6-0.3,1-0.5
			c1.1-0.6,2.2-1.1,3.2-1.7c0.3-0.2,0.6-0.3,0.9-0.5s0.5-0.3,0.8-0.5c0.4-0.3,0.9-0.5,1.3-0.8c0.4-0.2,0.7-0.5,1.1-0.8
			s0.8-0.6,1.2-0.8c0.4-0.3,0.7-0.5,1-0.8c0.4-0.3,0.7-0.6,1.1-0.9c0.3-0.3,0.6-0.5,1-0.8c0.3-0.3,0.7-0.6,1-0.9
			c0.1-0.1,0.3-0.2,0.4-0.4c0.3-0.2,0.5-0.5,0.8-0.8c0.1-0.1,0.2-0.2,0.3-0.3c0.5-0.5,1-1,1.5-1.5c0.1-0.1,0.2-0.2,0.3-0.4
			c0.4-0.4,0.8-0.9,1.1-1.3c0.1-0.1,0.2-0.2,0.2-0.3l0.1-0.1c0.4-0.5,0.7-0.9,1.1-1.4c0.1-0.1,0.1-0.2,0.2-0.3
			c0.4-0.5,0.7-1.1,1-1.6c0.1-0.1,0.1-0.2,0.2-0.3c0.1-0.2,0.2-0.4,0.4-0.6c0.1-0.2,0.2-0.3,0.3-0.5c0.2-0.3,0.4-0.7,0.5-1
			s0.3-0.6,0.4-0.9c0.2-0.4,0.3-0.7,0.4-1.1c0.1-0.2,0.1-0.3,0.2-0.5c0.1-0.1,0.1-0.3,0.1-0.4c0.1-0.3,0.2-0.7,0.3-1
			c0.1-0.3,0.2-0.6,0.3-0.9c0.1-0.3,0.2-0.7,0.2-1c0-0.2,0.1-0.4,0.1-0.6c0-0.1,0-0.2,0.1-0.4c0.1-0.3,0.1-0.7,0.2-1
			c0-0.3,0.1-0.6,0.1-0.9c0-0.4,0.1-0.7,0.1-1.1c0-0.2,0-0.4,0-0.6s0-0.4,0-0.6l0.2-27.3C501.9,99.8,501.9,100.2,501.8,100.6z"/>
		<path class="st0" d="M362.7,104.4c-2.8-12,3.8-24.6,19.7-33.9c27.2-15.8,71.4-15.8,98.8,0c16.1,9.3,22.7,21.9,20,34"/>
		<path class="st2" d="M362.7,104.4c-2.8-12,3.8-24.6,19.7-33.9c27.2-15.8,71.4-15.8,98.8,0c16.1,9.3,22.7,21.9,20,34"/>
		<path class="st1" d="M405.6,465.2c0,0.4,0,0.8-0.1,1.2c0,0.4-0.1,0.7-0.1,1.1c-0.1,0.4-0.1,0.8-0.2,1.2c-0.1,0.4-0.1,0.7-0.2,1.1
			s-0.2,0.8-0.3,1.2c-0.1,0.4-0.2,0.7-0.3,1.1s-0.2,0.8-0.4,1.2c-0.1,0.3-0.3,0.7-0.4,1c-0.2,0.4-0.3,0.8-0.5,1.2
			c-0.2,0.3-0.3,0.7-0.5,1c-0.2,0.4-0.4,0.8-0.6,1.2c-0.2,0.4-0.5,0.9-0.7,1.3c-0.1,0.1-0.1,0.2-0.2,0.3c-0.4,0.6-0.8,1.2-1.2,1.8
			c-0.1,0.1-0.2,0.2-0.2,0.3c-0.4,0.6-0.9,1.2-1.4,1.8c-0.1,0.1-0.2,0.2-0.3,0.3c-0.4,0.5-0.9,1-1.3,1.5c-0.1,0.1-0.2,0.3-0.4,0.4
			c-0.5,0.6-1.1,1.2-1.7,1.8c-0.1,0.1-0.2,0.2-0.3,0.3c-0.4,0.4-0.9,0.9-1.4,1.3c-0.4,0.3-0.8,0.7-1.2,1c-0.4,0.3-0.7,0.6-1.1,0.9
			s-0.8,0.7-1.3,1c-0.4,0.3-0.8,0.6-1.2,0.9c-0.4,0.3-0.9,0.6-1.4,1c-0.4,0.3-0.9,0.6-1.3,0.9c-0.5,0.3-1,0.6-1.5,0.9
			c-0.6,0.4-1.2,0.8-1.9,1.1c-1.2,0.7-2.5,1.4-3.7,2c-0.4,0.2-0.7,0.4-1.1,0.6c-1,0.5-2,1-3,1.4c-0.3,0.2-0.7,0.3-1,0.5
			c-1.3,0.6-2.7,1.1-4,1.6c-0.2,0.1-0.5,0.2-0.7,0.3c-1.2,0.4-2.3,0.8-3.5,1.2c-0.5,0.2-1,0.3-1.5,0.5c-0.7,0.2-1.3,0.4-2,0.6
			c-0.6,0.2-1.1,0.3-1.7,0.5c-0.7,0.2-1.3,0.4-2,0.5c-0.6,0.1-1.1,0.3-1.7,0.4c-0.7,0.2-1.4,0.3-2.1,0.5c-0.6,0.1-1.1,0.3-1.7,0.4
			c-0.7,0.1-1.4,0.3-2.1,0.4c-0.5,0.1-1.1,0.2-1.6,0.3c-1.5,0.3-3,0.5-4.6,0.7c-0.2,0-0.4,0.1-0.6,0.1c-1.3,0.2-2.7,0.3-4,0.5
			c-0.5,0.1-1,0.1-1.5,0.2c-0.9,0.1-1.7,0.2-2.6,0.2c-0.5,0-1.1,0.1-1.6,0.1c-0.9,0.1-1.8,0.1-2.7,0.1c-0.5,0-1,0-1.5,0.1
			c-0.8,0-1.6,0-2.4,0c-0.6,0-1.1,0-1.7,0c-0.8,0-1.7,0-2.5,0c-0.5,0-1,0-1.5,0c-0.8,0-1.6-0.1-2.3-0.1c-0.5,0-1.1,0-1.6-0.1
			c-0.8,0-1.7-0.1-2.5-0.2c-0.5,0-0.9-0.1-1.4-0.1c-1-0.1-2-0.2-3-0.3c-0.3,0-0.6-0.1-0.9-0.1c-1.3-0.1-2.6-0.3-3.9-0.5
			c-0.2,0-0.4-0.1-0.6-0.1c-1.1-0.2-2.2-0.3-3.3-0.5c-0.5-0.1-0.9-0.2-1.4-0.3c-0.8-0.2-1.7-0.3-2.5-0.5c-0.4-0.1-0.9-0.2-1.3-0.3
			c-0.9-0.2-1.8-0.4-2.7-0.6c-0.5-0.1-1-0.3-1.5-0.4c-0.8-0.2-1.6-0.4-2.5-0.7c-0.5-0.1-0.9-0.3-1.4-0.4c-1.3-0.4-2.6-0.8-3.8-1.2
			c-0.2-0.1-0.5-0.1-0.7-0.2c-1.4-0.5-2.9-1-4.3-1.6c-0.6-0.2-1.1-0.5-1.7-0.7c-0.4-0.2-0.9-0.4-1.3-0.6c-0.6-0.3-1.3-0.6-1.9-0.8
			c-0.4-0.2-0.8-0.4-1.2-0.6c-0.7-0.3-1.4-0.7-2-1c-0.3-0.2-0.7-0.3-1-0.5c-1-0.5-2-1.1-2.9-1.6c-16-9.2-24-21.3-23.9-33.4
			l-0.2,31.7c0,12.1,7.9,24.2,23.9,33.4c1,0.6,1.9,1.1,2.9,1.6c0.3,0.2,0.7,0.3,1,0.5c0.7,0.3,1.3,0.7,2,1c0.4,0.2,0.8,0.4,1.2,0.6
			c0.6,0.3,1.3,0.6,1.9,0.8c0.4,0.2,0.9,0.4,1.3,0.6s0.9,0.4,1.3,0.5c0.1,0.1,0.3,0.1,0.4,0.2c1.4,0.5,2.8,1.1,4.3,1.6
			c0.2,0.1,0.5,0.1,0.7,0.2c1.3,0.4,2.5,0.8,3.8,1.2c0.2,0.1,0.4,0.1,0.6,0.2c0.2,0.1,0.5,0.1,0.7,0.2c0.8,0.2,1.6,0.4,2.5,0.7
			c0.5,0.1,1,0.3,1.5,0.4c0.9,0.2,1.8,0.4,2.7,0.6c0.3,0.1,0.7,0.2,1,0.2c0.1,0,0.2,0,0.3,0.1c0.8,0.2,1.7,0.3,2.5,0.5
			c0.5,0.1,0.9,0.2,1.4,0.3c1.1,0.2,2.2,0.4,3.3,0.5c0.2,0,0.4,0.1,0.6,0.1c1.3,0.2,2.6,0.3,3.9,0.5c0.3,0,0.6,0.1,0.9,0.1
			c1,0.1,2,0.2,3,0.3h0.1c0.4,0,0.9,0.1,1.3,0.1c0.8,0.1,1.7,0.1,2.5,0.2c0.5,0,1.1,0,1.6,0.1c0.8,0,1.6,0.1,2.3,0.1
			c0.1,0,0.1,0,0.2,0c0.4,0,0.9,0,1.3,0c0.8,0,1.7,0,2.5,0c0.6,0,1.1,0,1.7,0c0.8,0,1.6,0,2.4,0c0.1,0,0.3,0,0.4,0
			c0.4,0,0.7,0,1.1-0.1c0.9,0,1.8-0.1,2.7-0.1c0.5,0,1.1-0.1,1.6-0.1c0.9-0.1,1.7-0.1,2.6-0.2c0.3,0,0.6,0,0.9-0.1
			c0.2,0,0.4-0.1,0.6-0.1c1.4-0.1,2.7-0.3,4-0.5c0.2,0,0.4-0.1,0.6-0.1c1.5-0.2,3.1-0.5,4.6-0.7c0.1,0,0.3,0,0.4-0.1
			c0.4-0.1,0.8-0.2,1.2-0.2c0.7-0.1,1.4-0.3,2.1-0.4c0.6-0.1,1.1-0.2,1.7-0.4c0.7-0.2,1.4-0.3,2.1-0.5c0.6-0.1,1.1-0.3,1.7-0.4
			c0.7-0.2,1.4-0.4,2-0.5c0.6-0.2,1.1-0.3,1.7-0.5c0.7-0.2,1.3-0.4,2-0.6c0.3-0.1,0.6-0.2,0.9-0.3c0.2-0.1,0.4-0.1,0.6-0.2
			c1.2-0.4,2.4-0.8,3.5-1.2c0.2-0.1,0.5-0.2,0.7-0.3c1.4-0.5,2.7-1.1,4-1.6c0.3-0.1,0.7-0.3,1-0.5c1-0.5,2-0.9,3-1.4
			c0.4-0.2,0.7-0.4,1.1-0.6c1.3-0.6,2.5-1.3,3.7-2c0.3-0.2,0.7-0.4,1-0.6c0.3-0.2,0.6-0.4,0.9-0.6c0.5-0.3,1-0.6,1.5-0.9
			c0.4-0.3,0.9-0.6,1.3-0.9c0.5-0.3,0.9-0.6,1.4-1c0.4-0.3,0.8-0.6,1.2-0.9s0.9-0.7,1.3-1s0.8-0.6,1.1-0.9c0.4-0.3,0.8-0.7,1.2-1
			c0.2-0.1,0.3-0.3,0.5-0.4c0.3-0.3,0.6-0.6,0.9-0.9c0.1-0.1,0.2-0.2,0.3-0.3c0.6-0.6,1.2-1.2,1.7-1.8c0.1-0.1,0.3-0.3,0.4-0.4
			c0.5-0.5,0.9-1,1.3-1.5c0.1-0.1,0.2-0.2,0.3-0.3c0-0.1,0.1-0.1,0.1-0.2c0.4-0.5,0.8-1.1,1.2-1.7c0.1-0.1,0.2-0.2,0.2-0.3
			c0.4-0.6,0.8-1.2,1.2-1.8c0.1-0.1,0.1-0.2,0.2-0.3c0.1-0.2,0.3-0.5,0.4-0.7s0.2-0.4,0.3-0.6c0.2-0.4,0.4-0.8,0.6-1.2
			c0.2-0.3,0.3-0.7,0.5-1c0.2-0.4,0.4-0.8,0.5-1.2c0.1-0.2,0.2-0.4,0.2-0.5c0.1-0.2,0.1-0.3,0.2-0.5c0.1-0.4,0.3-0.8,0.4-1.2
			s0.2-0.7,0.3-1.1c0.1-0.4,0.2-0.8,0.3-1.2c0-0.2,0.1-0.4,0.2-0.6c0-0.1,0-0.3,0.1-0.4c0.1-0.4,0.1-0.8,0.2-1.2
			c0-0.4,0.1-0.7,0.1-1.1s0.1-0.8,0.1-1.2c0-0.2,0-0.5,0.1-0.7c0-0.2,0-0.5,0-0.7l0.2-31.7C405.7,464.2,405.7,464.7,405.6,465.2z"/>
		<path class="st0" d="M244.4,469.6c-3.2-14,4.4-28.6,22.8-39.3c31.5-18.3,82.9-18.3,114.6,0c18.6,10.8,26.4,25.4,23.2,39.4"/>
		<path class="st2" d="M244.4,469.6c-3.2-14,4.4-28.6,22.8-39.3c31.5-18.3,82.9-18.3,114.6,0c18.6,10.8,26.4,25.4,23.2,39.4"/>
	</g>
</g>
</svg>
