<?xml version="1.0" encoding="utf-8"?>
<!-- Generator: Adobe Illustrator 22.1.0, SVG Export Plug-In . SVG Version: 6.00 Build 0)  -->
<svg version="1.1" id="Слой_1" xmlns="http://www.w3.org/2000/svg" xmlns:xlink="http://www.w3.org/1999/xlink" x="0px" y="0px"
	 viewBox="0 0 591.8 541.9" style="enable-background:new 0 0 591.8 541.9;" xml:space="preserve">
<style type="text/css">
	.st0{fill:#FB7070;}
	.st1{fill:#FFD394;}
	.st2{fill:none;stroke:#171A21;stroke-width:2;stroke-linecap:round;stroke-linejoin:round;stroke-miterlimit:10;}
</style>
<g>
	<g>
		<path class="st0" d="M74,158.6c2.4,0,4.3-2.4,4.2-5.4l-1-43.4c0-2.2-1.5-3.9-3.2-3.9s-3.2,1.7-3.2,3.9l-1,43.4
			C69.7,156.2,71.6,158.6,74,158.6z"/>
		<path class="st0" d="M19.1,173.3c0,0.1,0,0.2,0,0.3s0,0.2,0.1,0.3c0,0.1,0.1,0.2,0.1,0.3s0.1,0.2,0.1,0.2c0,0.1,0.1,0.2,0.1,0.3
			c0.1,0.1,0.2,0.3,0.3,0.4c0,0,0,0,0,0.1c0.1,0.1,0.2,0.3,0.3,0.4c0,0,0,0.1,0.1,0.1c0.1,0.1,0.3,0.3,0.4,0.4
			c0.1,0.1,0.2,0.2,0.3,0.3c0.1,0.1,0.2,0.2,0.3,0.2c0.1,0.1,0.2,0.2,0.4,0.2c0.1,0.1,0.2,0.2,0.4,0.2l33.7,19.6
			c0.3,0.2,0.6,0.3,1,0.5c0.1,0,0.2,0.1,0.3,0.1c0.3,0.1,0.5,0.2,0.8,0.3c0.1,0,0.2,0.1,0.3,0.1c0.2,0.1,0.3,0.1,0.5,0.1
			c0.1,0,0.3,0.1,0.4,0.1c0.2,0,0.4,0.1,0.6,0.1c0.1,0,0.3,0.1,0.4,0.1c0.4,0.1,0.8,0.1,1.2,0.2c0.1,0,0.2,0,0.4,0s0.5,0,0.7,0
			c0.1,0,0.3,0,0.4,0c0.2,0,0.4,0,0.6,0c0.2,0,0.3,0,0.5,0s0.3,0,0.5,0c0.2,0,0.3,0,0.5,0s0.3,0,0.5-0.1c0.2,0,0.3,0,0.5-0.1
			c0.2,0,0.4-0.1,0.5-0.1s0.3-0.1,0.4-0.1c0.2,0,0.4-0.1,0.6-0.2c0.1,0,0.2-0.1,0.3-0.1c0.4-0.1,0.7-0.2,1.1-0.4
			c0.2-0.1,0.3-0.1,0.5-0.2c0.1,0,0.2-0.1,0.3-0.1c0.3-0.1,0.5-0.3,0.7-0.4l53.9-31.1c2-1.2,3-2.7,3-4.2V177c0,1.5-1,3-3,4.2
			l-53.9,31.1c-0.2,0.1-0.5,0.3-0.7,0.4c-0.1,0-0.2,0.1-0.3,0.1c-0.2,0.1-0.3,0.1-0.5,0.2c0,0,0,0-0.1,0c-0.4,0.1-0.7,0.3-1.1,0.4
			h-0.1c-0.1,0-0.2,0-0.3,0.1c-0.2,0.1-0.4,0.1-0.6,0.2c-0.1,0-0.1,0-0.2,0s-0.2,0-0.3,0c-0.2,0-0.4,0.1-0.5,0.1s-0.1,0-0.2,0
			s-0.2,0-0.2,0c-0.2,0-0.3,0-0.5,0.1c-0.1,0-0.2,0-0.2,0c-0.1,0-0.2,0-0.2,0c-0.2,0-0.3,0-0.5,0c-0.1,0-0.2,0-0.3,0s-0.1,0-0.2,0
			c-0.2,0-0.4,0-0.6,0c-0.1,0-0.2,0-0.3,0s-0.1,0-0.2,0c-0.2,0-0.5,0-0.7,0c-0.1,0-0.2,0-0.3,0H61c-0.4,0-0.8-0.1-1.2-0.2
			c0,0,0,0-0.1,0s-0.2,0-0.3-0.1c-0.2,0-0.4-0.1-0.6-0.1c-0.1,0-0.3-0.1-0.4-0.1c-0.2,0-0.4-0.1-0.5-0.1h-0.1c-0.1,0-0.1,0-0.2-0.1
			c-0.3-0.1-0.5-0.2-0.8-0.3c-0.1,0-0.2-0.1-0.3-0.1c-0.3-0.1-0.7-0.3-1-0.5L22.1,193c0,0-0.1,0-0.1-0.1c-0.1-0.1-0.2-0.1-0.3-0.2
			c-0.1-0.1-0.3-0.2-0.4-0.2c-0.1-0.1-0.2-0.1-0.3-0.2c-0.1-0.1-0.2-0.2-0.3-0.3c0,0,0,0-0.1-0.1s-0.3-0.2-0.4-0.4
			c0,0,0-0.1-0.1-0.1c-0.1-0.1-0.1-0.2-0.2-0.2c0-0.1-0.1-0.1-0.1-0.2c0,0,0,0,0-0.1c-0.1-0.1-0.2-0.2-0.2-0.4v-0.1
			c-0.1-0.1-0.1-0.2-0.1-0.3s-0.1-0.1-0.1-0.2c0,0,0,0,0-0.1s-0.1-0.2-0.1-0.3s0-0.1-0.1-0.2c0,0,0,0,0-0.1s0-0.2,0-0.3s0-0.1,0-0.2
			v-0.1v-15.9C19.1,173.1,19.1,173.2,19.1,173.3z"/>
		<path class="st1" d="M22.1,168.8c-4,2.3-4,6,0,8.3l33.7,19.6c4,2.3,10.4,2.3,14.4,0l53.9-31.1c4-2.3,4-6,0-8.3l-33.7-19.6
			c-4-2.3-10.4-2.3-14.4,0L22.1,168.8z"/>
		<path class="st2" d="M124.1,181.5c2-1.2,3-2.7,3-4.2v-15.9c0-1.5-1-3-3-4.2l-33.7-19.6c-4-2.3-10.4-2.3-14.4,0l-53.9,31.1
			c-2.1,1.2-3.1,2.9-3,4.5c0-0.1,0-0.2,0-0.3v15.9v0.1c0,0.1,0,0.1,0,0.2c0,0.1,0,0.2,0,0.3c0,0,0,0,0,0.1s0,0.1,0.1,0.2
			c0,0.1,0.1,0.2,0.1,0.3c0,0,0,0,0,0.1s0.1,0.1,0.1,0.2c0,0.1,0.1,0.2,0.1,0.3v0.1c0.1,0.1,0.1,0.2,0.2,0.4c0,0,0,0,0,0.1
			s0.1,0.1,0.1,0.2c0.1,0.1,0.1,0.2,0.2,0.2c0,0,0,0.1,0.1,0.1c0.1,0.1,0.2,0.2,0.4,0.4c0,0,0,0,0.1,0.1s0.2,0.2,0.3,0.3"/>
		<path class="st0" d="M78.2,166.3c1.9-1.1,4.9-1.1,6.7,0c1.9,1.1,1.8,2.8,0,3.9c-1.9,1.1-4.9,1.1-6.7,0
			C76.3,169.1,76.3,167.4,78.2,166.3z"/>
		<path class="st0" d="M70,161.8c2.8-1.6,6.7-2.6,11-2.6h1h1.3c1.6,0,3,0.8,3,1.7c0,0.5-0.3,0.9-0.9,1.2c-0.5,0.3-1.3,0.5-2.1,0.5
			H81c-2.6,0-5,0.6-6.8,1.6c-1.7,1-2.8,2.4-2.8,3.9v1c0,0.5-0.3,0.9-0.9,1.2c-0.5,0.3-1.3,0.5-2.1,0.5c-0.8,0-1.5-0.2-2.1-0.5
			s-0.9-0.8-0.9-1.2v-1c0-0.1,0-0.1,0-0.2v-0.2v-0.1C65.7,165.4,67.4,163.4,70,161.8z"/>
		<path class="st0" d="M63.2,157.7c4.6-2.6,10.9-4.3,17.8-4.4c0.1,0,0.1,0,0.2,0h2.5c1.5,0,2.7,0.7,2.7,1.6c0,0.4-0.3,0.8-0.8,1.1
			s-1.2,0.5-1.9,0.5h-2.5h-0.1c-5.5,0.1-10.5,1.4-14.1,3.5s-5.9,4.9-6,8v1.1c0,0.4-0.3,0.8-0.8,1.1s-1.2,0.5-1.9,0.5
			c-1.5,0-2.7-0.7-2.7-1.6v-0.8v-0.6c0-0.1,0-0.2,0.1-0.3C56,163.6,58.9,160.2,63.2,157.7z"/>
	</g>
</g>
</svg>
