<?xml version="1.0" encoding="utf-8"?>
<!-- Generator: Adobe Illustrator 22.1.0, SVG Export Plug-In . SVG Version: 6.00 Build 0)  -->
<svg version="1.1" id="Слой_1" xmlns="http://www.w3.org/2000/svg" xmlns:xlink="http://www.w3.org/1999/xlink" x="0px" y="0px"
	 viewBox="0 0 591.8 541.9" style="enable-background:new 0 0 591.8 541.9;" xml:space="preserve">
<style type="text/css">
	.st0{fill:#F1F9FD;}
	
		.st1{fill:none;stroke:#171A21;stroke-width:2;stroke-linecap:round;stroke-linejoin:round;stroke-miterlimit:10;stroke-dasharray:12,12;}
	.st2{fill:#FFFFFF;}
	.st3{fill:#2F58FF;}
	.st4{fill:none;stroke:#FB7070;stroke-width:2;stroke-linecap:round;stroke-linejoin:round;stroke-miterlimit:10;}
	.st5{fill:none;stroke:#171A21;stroke-width:2;stroke-linecap:round;stroke-linejoin:round;stroke-miterlimit:10;}
</style>
<path class="st0" d="M125,362.3c85.2-117.5,50.9-162.2,77.9-221.3C264.5,5.8,405.4,19,469.4,31.6c140.1,27.5,169.7,194.9,37.5,290.7
	c-116.4,84.4-70.7,164.8-225,203.6S76.7,428.8,125,362.3z"/>
<g>
	<g>
		<path class="st1" d="M521.6,184.3l-285,164.6"/>
		<path class="st1" d="M423.6,423.8l-45.1,26.1"/>
		<path class="st1" d="M423.6,423.8L82.5,225.6"/>
		<path class="st1" d="M521.6,184.3l-43.9-25.5"/>
		<path class="st2" d="M185,236l-1.5-18l4-4l39.5-10l98,1.5c15.5,1.8,46.8,5.6,48,6s7.8,8.2,11,12l-2,14c-1.7,6.7-5.1,20.2-5.5,21
			s-16.8,16.3-25,24l-35,29C284.7,306,220,295,216,295s-14-19.7-18.5-29.5L185,236z"/>
		<path class="st3" d="M384.3,218.6c0,0.5-0.1,1-0.1,1.5c0,0.4-0.1,0.9-0.2,1.3c-0.1,0.5-0.1,1-0.2,1.5c-0.1,0.4-0.2,0.9-0.3,1.3
			c-0.1,0.5-0.2,1-0.4,1.5c-0.1,0.4-0.3,0.9-0.4,1.3c-0.2,0.5-0.3,1-0.5,1.5c-0.2,0.4-0.3,0.9-0.5,1.3c-0.2,0.5-0.4,1-0.6,1.5
			c-0.2,0.4-0.4,0.8-0.6,1.3s-0.5,1-0.8,1.5s-0.6,1.1-0.9,1.6c-0.1,0.1-0.1,0.3-0.2,0.4c-0.5,0.8-1,1.5-1.5,2.3
			c-0.1,0.1-0.2,0.3-0.3,0.4c-0.5,0.8-1.1,1.5-1.7,2.3c-0.1,0.1-0.2,0.3-0.3,0.4c-0.5,0.6-1.1,1.3-1.6,1.9c-0.2,0.2-0.3,0.4-0.5,0.5
			c-0.7,0.7-1.4,1.5-2.1,2.2c-0.1,0.1-0.3,0.3-0.4,0.4c-0.6,0.5-1.1,1.1-1.7,1.6c-0.5,0.4-1,0.8-1.5,1.3c-0.5,0.4-0.9,0.8-1.4,1.2
			s-1,0.8-1.6,1.2c-0.5,0.4-1,0.8-1.5,1.1c-0.6,0.4-1.1,0.8-1.7,1.2c-0.5,0.4-1.1,0.7-1.6,1.1c-0.6,0.4-1.2,0.8-1.8,1.2
			c-0.8,0.5-1.5,1-2.3,1.4c-1.5,0.9-3.1,1.7-4.6,2.5c-0.5,0.2-0.9,0.5-1.4,0.7c-1.2,0.6-2.5,1.2-3.7,1.8c-0.4,0.2-0.8,0.4-1.3,0.6
			c-1.6,0.7-3.3,1.4-5,2c-0.3,0.1-0.6,0.2-0.9,0.3c-1.4,0.5-2.9,1-4.4,1.5c-0.6,0.2-1.2,0.4-1.8,0.6c-0.8,0.3-1.6,0.5-2.5,0.7
			c-0.7,0.2-1.4,0.4-2.1,0.6c-0.8,0.2-1.7,0.5-2.5,0.7c-0.7,0.2-1.4,0.4-2.1,0.5c-0.9,0.2-1.7,0.4-2.6,0.6c-0.7,0.2-1.4,0.3-2.1,0.5
			c-0.9,0.2-1.8,0.4-2.6,0.5c-0.7,0.1-1.4,0.3-2,0.4c-1.9,0.3-3.8,0.6-5.7,0.9c-0.3,0-0.5,0.1-0.8,0.1c-1.7,0.2-3.3,0.4-5,0.6
			c-0.6,0.1-1.3,0.1-1.9,0.2c-1.1,0.1-2.2,0.2-3.2,0.3c-0.7,0-1.4,0.1-2,0.1c-1.1,0.1-2.3,0.1-3.4,0.2c-0.6,0-1.3,0.1-1.9,0.1
			c-1,0-2,0-2.9,0.1c-0.7,0-1.4,0-2.1,0c-1,0-2.1,0-3.1,0c-0.6,0-1.2,0-1.9,0c-1,0-1.9-0.1-2.9-0.1c-0.7,0-1.3,0-2-0.1
			c-1-0.1-2.1-0.1-3.1-0.2c-0.6,0-1.2-0.1-1.8-0.1c-1.2-0.1-2.5-0.2-3.7-0.4c-0.4,0-0.8-0.1-1.1-0.1c-1.6-0.2-3.2-0.4-4.8-0.6
			c-0.3,0-0.5-0.1-0.8-0.1c-1.4-0.2-2.8-0.4-4.1-0.6c-0.6-0.1-1.1-0.2-1.7-0.3c-1-0.2-2.1-0.4-3.1-0.6c-0.5-0.1-1.1-0.2-1.6-0.4
			c-1.1-0.2-2.3-0.5-3.4-0.8c-0.6-0.2-1.2-0.3-1.9-0.5c-1-0.3-2-0.5-3.1-0.8c-0.6-0.2-1.1-0.3-1.7-0.5c-1.6-0.5-3.2-1-4.8-1.5
			c-0.3-0.1-0.6-0.2-0.8-0.3c-1.8-0.6-3.6-1.3-5.3-1.9c-0.7-0.3-1.4-0.6-2.1-0.9c-0.6-0.2-1.1-0.5-1.7-0.7c-0.8-0.3-1.6-0.7-2.3-1.1
			c-0.5-0.2-1-0.5-1.5-0.7c-0.9-0.4-1.7-0.8-2.5-1.2c-0.4-0.2-0.8-0.4-1.2-0.6c-1.2-0.6-2.4-1.3-3.6-2
			c-19.9-11.5-29.8-26.5-29.7-41.6l-0.3,102c0,15,9.9,30.1,29.7,41.6c1.2,0.7,2.4,1.3,3.6,2c0.4,0.2,0.8,0.4,1.2,0.6
			c0.8,0.4,1.7,0.8,2.5,1.2c0.5,0.2,1,0.5,1.5,0.7c0.8,0.4,1.6,0.7,2.3,1.1c0.6,0.2,1.1,0.5,1.7,0.7c0.5,0.2,1.1,0.5,1.6,0.7
			c0.2,0.1,0.3,0.1,0.5,0.2c1.7,0.7,3.5,1.3,5.3,1.9c0.3,0.1,0.6,0.2,0.8,0.3c1.6,0.5,3.2,1,4.8,1.5c0.3,0.1,0.5,0.2,0.8,0.2
			c0.3,0.1,0.6,0.2,0.9,0.2c1,0.3,2,0.5,3.1,0.8c0.6,0.2,1.2,0.3,1.9,0.5c1.1,0.3,2.3,0.5,3.4,0.8c0.4,0.1,0.8,0.2,1.3,0.3
			c0.1,0,0.2,0,0.3,0.1c1,0.2,2.1,0.4,3.1,0.6c0.6,0.1,1.1,0.2,1.7,0.3c1.4,0.2,2.7,0.4,4.1,0.6c0.2,0,0.5,0.1,0.7,0.1
			c1.6,0.2,3.2,0.4,4.8,0.6c0.4,0,0.8,0.1,1.1,0.1c1.2,0.1,2.5,0.3,3.7,0.4h0.1c0.6,0,1.1,0.1,1.7,0.1c1,0.1,2.1,0.2,3.1,0.2
			c0.7,0,1.3,0.1,2,0.1c1,0,1.9,0.1,2.9,0.1c0.1,0,0.2,0,0.2,0c0.5,0,1.1,0,1.6,0c1,0,2.1,0,3.1,0c0.7,0,1.4,0,2.1,0
			c1,0,2,0,2.9-0.1c0.2,0,0.4,0,0.5,0c0.5,0,0.9,0,1.4-0.1c1.1,0,2.3-0.1,3.4-0.2c0.7,0,1.4-0.1,2-0.1c1.1-0.1,2.2-0.2,3.2-0.3
			c0.4,0,0.8-0.1,1.1-0.1c0.3,0,0.5-0.1,0.8-0.1c1.7-0.2,3.4-0.4,5-0.6c0.3,0,0.5-0.1,0.8-0.1c1.9-0.3,3.8-0.6,5.7-0.9
			c0.2,0,0.4-0.1,0.5-0.1c0.5-0.1,1-0.2,1.5-0.3c0.9-0.2,1.8-0.3,2.6-0.5c0.7-0.1,1.4-0.3,2.1-0.5c0.9-0.2,1.7-0.4,2.6-0.6
			c0.7-0.2,1.4-0.4,2.1-0.5c0.8-0.2,1.7-0.4,2.5-0.7c0.7-0.2,1.4-0.4,2.1-0.6c0.8-0.2,1.6-0.5,2.5-0.7c0.4-0.1,0.7-0.2,1.1-0.3
			c0.3-0.1,0.5-0.2,0.8-0.3c1.5-0.5,2.9-1,4.4-1.5c0.3-0.1,0.6-0.2,0.9-0.3c1.7-0.6,3.4-1.3,5-2.1c0.4-0.2,0.8-0.4,1.3-0.6
			c1.3-0.6,2.5-1.2,3.7-1.8c0.5-0.2,0.9-0.5,1.4-0.7c1.6-0.8,3.1-1.6,4.6-2.5c0.4-0.2,0.8-0.5,1.2-0.7c0.4-0.2,0.7-0.5,1.1-0.7
			c0.6-0.4,1.2-0.8,1.8-1.2c0.5-0.4,1.1-0.7,1.6-1.1c0.6-0.4,1.1-0.8,1.7-1.2c0.5-0.4,1-0.7,1.5-1.1s1.1-0.8,1.6-1.2
			s0.9-0.8,1.4-1.2c0.5-0.4,1-0.8,1.5-1.3c0.2-0.2,0.4-0.3,0.6-0.5c0.4-0.4,0.8-0.7,1.1-1.1c0.1-0.1,0.3-0.3,0.4-0.4
			c0.7-0.7,1.4-1.5,2.1-2.2c0.2-0.2,0.3-0.3,0.5-0.5c0.6-0.6,1.1-1.3,1.6-1.9c0.1-0.1,0.2-0.3,0.3-0.4c0.1-0.1,0.1-0.1,0.2-0.2
			c0.5-0.7,1-1.4,1.5-2.1c0.1-0.1,0.2-0.3,0.3-0.4c0.5-0.8,1-1.5,1.5-2.3c0.1-0.1,0.1-0.2,0.2-0.4c0.2-0.3,0.3-0.6,0.5-0.9
			c0.1-0.2,0.2-0.5,0.4-0.7c0.3-0.5,0.5-1,0.8-1.5c0.2-0.4,0.4-0.8,0.6-1.3s0.4-1,0.6-1.5c0.1-0.2,0.2-0.5,0.3-0.7
			c0.1-0.2,0.1-0.4,0.2-0.6c0.2-0.5,0.3-1,0.5-1.5c0.1-0.4,0.3-0.9,0.4-1.3c0.1-0.5,0.2-1,0.4-1.5c0.1-0.3,0.1-0.5,0.2-0.8
			c0-0.2,0.1-0.4,0.1-0.5c0.1-0.5,0.2-1,0.2-1.5c0.1-0.4,0.1-0.9,0.2-1.3c0.1-0.5,0.1-1,0.1-1.5c0-0.3,0.1-0.6,0.1-0.9s0-0.6,0-0.9
			l0.3-102C384.3,217.5,384.3,218.1,384.3,218.6z"/>
		<path class="st4" d="M384.1,309.6c-5.1,8.3-13.4,16.1-24.8,22.7c-41.5,24.1-109.1,24.1-150.8,0c-11.9-6.9-20.4-14.9-25.6-23.5"/>
		<path class="st4" d="M384.1,282.6c-5.1,8.3-13.4,16.1-24.8,22.7c-41.5,24.1-109.1,24.1-150.8,0c-11.9-6.9-20.4-14.9-25.6-23.5"/>
		<path class="st4" d="M384.1,255.6c-5.1,8.3-13.4,16.1-24.8,22.7c-41.5,24.1-109.1,24.1-150.8,0c-11.9-6.9-20.4-14.9-25.6-23.5"/>
		<path class="st2" d="M183.7,224.2c-4-17.3,5.4-35.5,28.4-48.8c39.2-22.8,103-22.8,142.5,0c23.2,13.4,32.8,31.6,28.9,49"/>
		<path class="st5" d="M183.7,224.2c-4-17.3,5.4-35.5,28.4-48.8c39.2-22.8,103-22.8,142.5,0c23.2,13.4,32.8,31.6,28.9,49"/>
	</g>
</g>
</svg>
