<?xml version="1.0" encoding="utf-8"?>
<!-- Generator: Adobe Illustrator 22.1.0, SVG Export Plug-In . SVG Version: 6.00 Build 0)  -->
<svg version="1.1" id="Слой_1" xmlns="http://www.w3.org/2000/svg" xmlns:xlink="http://www.w3.org/1999/xlink" x="0px" y="0px"
	 viewBox="0 0 591.8 541.9" style="enable-background:new 0 0 591.8 541.9;" xml:space="preserve">
<style type="text/css">
	.st0{fill:#FB7070;}
	.st1{fill:#FFD394;}
	.st2{fill:none;stroke:#171A21;stroke-width:2;stroke-linecap:round;stroke-linejoin:round;stroke-miterlimit:10;}
	.st3{fill:#2F58FF;}
	.st4{fill:#FFFFFF;}
</style>
<g>
	<g>
		<path class="st0" d="M304,94.9L199.9,155c-1.4,0.8-2.1,2.3-1.8,3.9l9.5,55.8c0.4,2.6,3.3,3.9,5.6,2.6l78.8-45.5
			c1-0.6,1.7-1.6,1.8-2.7L304,94.9z M212.3,158.4l5.9-3.4c2.4-1.4,5.4,0.2,5.6,3l2.7,38.6c0.1,1.4-0.6,2.8-1.9,3.5l-2.6,1.5
			c-2.3,1.3-5.2-0.1-5.6-2.6l-6-36.7C210.2,160.8,211,159.2,212.3,158.4z M234.7,145.5l5.9-3.4c2.5-1.4,5.6,0.4,5.6,3.2l0.1,40
			c0,1.3-0.7,2.6-1.9,3.3l-3.4,1.9c-2.4,1.4-5.4-0.2-5.6-3l-2.7-38.6C232.8,147.6,233.5,146.2,234.7,145.5z M255.5,133.5l7.5-4.3
			c2.6-1.5,5.8,0.5,5.6,3.5l-2.4,41.5c-0.1,1.3-0.8,2.4-1.9,3l-3.1,1.8c-2.5,1.4-5.6-0.4-5.6-3.2L255.5,133.5z M280.1,119.3l5-2.9
			c2.7-1.6,6,0.7,5.6,3.7l-5.7,43.4c-0.2,1.2-0.8,2.2-1.8,2.8l-1.7,1c-2.6,1.5-5.8-0.5-5.6-3.5l2.4-41.5
			C278.3,121.1,279,120,280.1,119.3z"/>
		<path class="st0" d="M293.9,171.1l59.1,33.6c2.5,1.4,2.5,5.1,0,6.5l-73,42.2c-3.8,2.2-8.6,2.2-12.4,0l-54.8-31.1
			c-2.5-1.4-2.5-5.1,0-6.5l77.5-44.7C291.4,170.4,292.8,170.4,293.9,171.1z"/>
		<path class="st0" d="M292.8,170.4l64.4,36.5c0.8,0.4,1.7,0,1.9-0.9l9-65.4c0.1-0.5-0.2-1-0.6-1.2l-64-39.3c-0.8-0.5-1.8,0-1.9,0.9
			l-9.4,68.1C292.1,169.7,292.4,170.2,292.8,170.4z"/>
		<path class="st0" d="M208.1,219.7l61.1,34.7c1.8,1,4.1-0.5,3.7-2.6l-8.8-51.3c-0.1-0.7-0.6-1.4-1.2-1.8l-61-34.2
			c-1.8-1-4,0.5-3.7,2.6l8.7,50.8C207,218.6,207.4,219.3,208.1,219.7z"/>
		<path class="st1" d="M369.3,131.8l-104.1,60.1c-1.4,0.8-2.1,2.3-1.8,3.9l9.5,55.8c0.4,2.6,3.3,3.9,5.6,2.6l78.8-45.5
			c1-0.6,1.7-1.6,1.8-2.7L369.3,131.8z M277.6,195.4l5.9-3.4c2.4-1.4,5.4,0.2,5.6,3l2.7,38.6c0.1,1.4-0.6,2.8-1.9,3.5l-2.6,1.5
			c-2.3,1.3-5.2-0.1-5.6-2.6l-6-36.7C275.5,197.7,276.2,196.2,277.6,195.4z M300,182.4l5.9-3.4c2.5-1.4,5.6,0.4,5.6,3.2l0.1,40
			c0,1.3-0.7,2.6-1.9,3.3l-3.4,1.9c-2.4,1.4-5.4-0.2-5.6-3l-2.7-38.6C298,184.5,298.7,183.1,300,182.4z M320.8,170.4l7.5-4.3
			c2.6-1.5,5.8,0.5,5.6,3.5l-2.4,41.5c-0.1,1.3-0.8,2.4-1.9,3l-3.1,1.8c-2.5,1.4-5.6-0.4-5.6-3.2L320.8,170.4z M345.3,156.3l5-2.9
			c2.7-1.6,6,0.7,5.6,3.7l-5.7,43.4c-0.2,1.2-0.8,2.2-1.8,2.8l-1.7,1c-2.6,1.5-5.8-0.5-5.6-3.5l2.4-41.5
			C343.5,158,344.2,156.9,345.3,156.3z"/>
		<path class="st1" d="M300.7,93.5l-109,63.4c-1.2,0.7-1.9,1.9-1.9,3.2v1c0,1.3,0.7,2.6,1.9,3.3l70.1,40.5c1.2,0.7,2.6,0.7,3.8,0
			l109-63.4c1.2-0.7,1.9-1.9,1.9-3.2v-1c0-1.3-0.7-2.6-1.9-3.3l-70.1-40.5C303.3,92.9,301.9,92.9,300.7,93.5z M261.8,191.3
			l-47.5-27.4c-2.5-1.4-2.5-5,0-6.5l86.5-50.3c1.2-0.7,2.6-0.7,3.8,0l47.5,27.4c2.5,1.4,2.5,5,0,6.5l-86.5,50.3
			C264.4,192,262.9,192,261.8,191.3z"/>
		<path class="st2" d="M261.8,204.9c1.2,0.7,2.6,0.7,3.8,0l109-63.4c1.2-0.7,1.9-1.9,1.9-3.2v-1c0-1.3-0.7-2.6-1.9-3.3l-70.1-40.5
			c-1.2-0.7-2.6-0.7-3.8,0"/>
		<path class="st3" d="M312.8,112L243,71.7c-1.4-0.8-3,0.2-3,1.8l-0.2,56.1c0,0.7,0.4,1.4,1,1.8l3.3,1.9c0.6,0.4,1.4,0.4,2,0
			l2.1-1.2c0.6-0.4,1-1,1-1.8l0.1-45.2c0-1.6,1.7-2.5,3-1.8l55,31.8c0.6,0.4,1,1,1,1.8l-0.2,52.2c0,0.7,0.4,1.4,1,1.8l3.3,1.9
			c0.6,0.4,1.4,0.4,2,0l2.1-1.2c0.6-0.4,1-1,1-1.8l0.2-56c0-1.6-1.7-2.6-3.1-1.8C314.2,112.4,313.5,112.4,312.8,112z"/>
		<path class="st4" d="M241,67.4c0.7-0.4,1.5-0.4,2.2,0l73.7,42.5c1.4,0.8,1.4,2.9,0,3.7c-0.7,0.4-1.5,0.4-2.2,0L241,71.1
			C239.6,70.3,239.6,68.2,241,67.4z"/>
		<path class="st2" d="M240.5,71.4c-1.3-1-0.9-3.2,0.5-4c0.7-0.4,1.5-0.4,2.2,0l73.7,42.5c1.4,0.8,1.4,2.9,0,3.7"/>
	</g>
</g>
</svg>
