<?xml version="1.0" encoding="utf-8"?>
<!-- Generator: Adobe Illustrator 22.1.0, SVG Export Plug-In . SVG Version: 6.00 Build 0)  -->
<svg version="1.1" id="Слой_1" xmlns="http://www.w3.org/2000/svg" xmlns:xlink="http://www.w3.org/1999/xlink" x="0px" y="0px"
	 viewBox="0 0 591.8 541.9" style="enable-background:new 0 0 591.8 541.9;" xml:space="preserve">
<style type="text/css">
	.st0{fill:#FB7070;}
	.st1{fill:#FFD394;}
	.st2{fill:#FFFFFF;}
	.st3{fill:#2F58FF;}
	.st4{fill:none;stroke:#171A21;stroke-width:2;stroke-linecap:round;stroke-linejoin:round;stroke-miterlimit:10;}
</style>
<g>
	<g>
		<path class="st0" d="M474.5,79.9c0-0.1,0-0.2,0-0.2c0-0.2,0-0.3,0-0.5s0-0.4,0-0.6s0-0.3,0-0.5s0-0.4,0-0.5s0-0.2,0-0.3
			c0-0.3-0.1-0.5-0.1-0.8c0-0.1,0-0.3,0-0.4V76c-0.1-0.5-0.1-0.9-0.2-1.4c0-0.1,0-0.1,0-0.2c-0.1-0.4-0.1-0.8-0.2-1.2
			c0-0.1,0-0.1,0-0.2c0-0.2-0.1-0.4-0.1-0.5c0-0.2-0.1-0.4-0.1-0.7c0-0.1-0.1-0.2-0.1-0.4s-0.1-0.4-0.1-0.6s-0.1-0.3-0.1-0.5
			s-0.1-0.4-0.1-0.6c-0.1-0.2-0.1-0.4-0.2-0.6c0-0.1-0.1-0.2-0.1-0.3c-0.1-0.3-0.2-0.5-0.2-0.8c-0.1-0.2-0.1-0.3-0.1-0.5v-0.1
			c-0.1-0.5-0.3-0.9-0.5-1.4v-0.1c-0.1-0.4-0.3-0.8-0.4-1.3c0-0.1,0-0.1-0.1-0.2c-0.1-0.2-0.1-0.3-0.2-0.5c-0.1-0.2-0.2-0.4-0.3-0.7
			c-0.1-0.1-0.1-0.3-0.2-0.4c-0.1-0.2-0.1-0.3-0.2-0.5c-0.1-0.1-0.1-0.3-0.2-0.4c-0.1-0.3-0.2-0.5-0.3-0.8c-0.1-0.1-0.1-0.3-0.2-0.4
			c0,0,0-0.1-0.1-0.1c-0.2-0.4-0.4-0.9-0.6-1.3c0,0,0,0,0-0.1c-0.1-0.1-0.1-0.3-0.2-0.4c-0.2-0.3-0.3-0.7-0.5-1
			c0-0.1-0.1-0.1-0.1-0.2c-0.1-0.3-0.3-0.5-0.4-0.8c-0.1-0.2-0.2-0.4-0.3-0.7c0,0,0-0.1-0.1-0.1c-0.4-0.7-0.8-1.4-1.2-2.1
			c0-0.1-0.1-0.1-0.1-0.2c-0.1-0.2-0.2-0.4-0.3-0.5c-0.2-0.3-0.3-0.6-0.5-0.9c-0.2-0.3-0.3-0.5-0.5-0.8s-0.4-0.6-0.5-0.8
			c-0.1-0.1-0.1-0.2-0.2-0.3s-0.1-0.2-0.2-0.3c-0.5-0.7-1-1.5-1.6-2.2c-0.4-0.5-0.8-1-1.2-1.5c0,0,0,0-0.1-0.1
			c-0.3-0.4-0.6-0.7-0.9-1.1c-0.1-0.1-0.1-0.1-0.2-0.2c-0.3-0.4-0.7-0.8-1.1-1.2c0,0,0,0-0.1-0.1s-0.2-0.2-0.3-0.4
			c-0.2-0.3-0.5-0.5-0.7-0.8l-0.1-0.1c-0.2-0.2-0.3-0.3-0.5-0.5s-0.3-0.4-0.5-0.5c-0.1-0.1-0.1-0.1-0.2-0.2
			c-0.2-0.2-0.3-0.3-0.5-0.5c-0.1-0.1-0.3-0.3-0.4-0.4c-0.1-0.1-0.2-0.2-0.3-0.2c-0.2-0.2-0.4-0.3-0.6-0.5c-0.1-0.1-0.3-0.2-0.4-0.4
			c-0.1-0.1-0.2-0.2-0.3-0.3c-0.2-0.2-0.4-0.3-0.6-0.5c-0.1-0.1-0.2-0.2-0.3-0.3c-0.1-0.1-0.3-0.2-0.4-0.3c-0.2-0.2-0.4-0.3-0.6-0.5
			c-0.1-0.1-0.2-0.2-0.3-0.2c-0.2-0.1-0.3-0.2-0.5-0.4c-0.2-0.1-0.3-0.3-0.5-0.4c-0.1-0.1-0.1-0.1-0.2-0.2c-0.2-0.2-0.4-0.3-0.6-0.5
			c-0.1-0.1-0.3-0.2-0.4-0.3l-0.1-0.1c-0.4-0.3-0.8-0.5-1.2-0.8c0,0-0.1,0-0.1-0.1c-0.4-0.2-0.7-0.4-1.1-0.7
			c-0.1-0.1-0.2-0.1-0.3-0.2c-0.3-0.2-0.6-0.3-0.9-0.5c-0.1-0.1-0.2-0.1-0.3-0.2s-0.3-0.2-0.4-0.2c-0.1-0.1-0.2-0.1-0.3-0.2
			c-0.2-0.1-0.4-0.2-0.5-0.3c-0.1-0.1-0.3-0.1-0.4-0.2c-0.1,0-0.1-0.1-0.2-0.1c-0.4-0.2-0.7-0.3-1.1-0.5c-0.4-0.1-0.7-0.3-1.1-0.4
			h-0.1c-0.1,0-0.3-0.1-0.4-0.1c-0.2-0.1-0.4-0.1-0.6-0.2c-0.1,0-0.2,0-0.3-0.1c-0.2,0-0.3-0.1-0.5-0.1c-0.1,0-0.3-0.1-0.4-0.1
			s-0.3-0.1-0.4-0.1c-0.2,0-0.3-0.1-0.5-0.1c-0.1,0-0.2,0-0.3-0.1c-0.2,0-0.3,0-0.4-0.1c-0.2,0-0.4-0.1-0.6-0.1c-0.1,0-0.1,0-0.2,0
			c-0.2,0-0.3,0-0.5,0s-0.4,0-0.6-0.1c-0.1,0-0.1,0-0.2,0s-0.3,0-0.4,0c-0.2,0-0.5,0-0.7,0c-0.1,0-0.1,0-0.2,0s-0.2,0-0.3,0
			c-0.3,0-0.6,0-0.9,0c-0.1,0-0.2,0-0.3,0c-0.1,0-0.2,0-0.4,0c-0.1,0-0.2,0-0.3,0c-0.3,0-0.6,0.1-1,0.2c-0.1,0-0.2,0-0.3,0.1
			c-0.3,0.1-0.5,0.1-0.8,0.2c-0.1,0-0.2,0.1-0.4,0.1c-0.2,0.1-0.3,0.1-0.5,0.2h-0.1c-0.2,0.1-0.5,0.2-0.7,0.3
			c-0.1,0.1-0.2,0.1-0.4,0.1c-0.3,0.2-0.7,0.3-1,0.5L399,48.7c0.3-0.2,0.7-0.4,1-0.5c0.1-0.1,0.2-0.1,0.4-0.1
			c0.2-0.1,0.5-0.2,0.7-0.3s0.4-0.1,0.6-0.2c0.1,0,0.2-0.1,0.4-0.1c0.3-0.1,0.5-0.1,0.8-0.2c0.1,0,0.2,0,0.3-0.1
			c0.3-0.1,0.7-0.1,1-0.2c0.1,0,0.2,0,0.3,0c0.2,0,0.4,0,0.6-0.1c0.3,0,0.6,0,0.9,0c0.2,0,0.3,0,0.5,0s0.5,0,0.7,0s0.4,0,0.6,0
			s0.4,0,0.6,0.1c0.2,0,0.4,0,0.6,0.1c0.2,0,0.4,0.1,0.6,0.1s0.5,0.1,0.7,0.1s0.3,0.1,0.5,0.1c0.3,0.1,0.5,0.1,0.8,0.2
			c0.2,0,0.3,0.1,0.5,0.1c0.3,0.1,0.6,0.2,0.8,0.3c0.1,0,0.3,0.1,0.4,0.1c0.4,0.1,0.8,0.3,1.2,0.5c0.4,0.2,0.8,0.3,1.2,0.5
			c0.1,0.1,0.3,0.1,0.4,0.2c0.3,0.1,0.6,0.3,0.9,0.4c0.1,0.1,0.3,0.2,0.4,0.2c0.4,0.2,0.8,0.4,1.2,0.7c0.4,0.3,0.9,0.5,1.3,0.8
			c0,0,0.1,0,0.1,0.1c0.4,0.3,0.9,0.6,1.3,0.9c0.1,0.1,0.3,0.2,0.4,0.3c0.3,0.2,0.6,0.4,0.9,0.6c0.2,0.1,0.3,0.3,0.5,0.4
			c0.3,0.2,0.5,0.4,0.8,0.6c0.2,0.1,0.4,0.3,0.6,0.5s0.5,0.4,0.7,0.6c0.2,0.2,0.4,0.3,0.6,0.5s0.5,0.4,0.7,0.6s0.4,0.3,0.6,0.5
			s0.5,0.4,0.7,0.7c0.2,0.2,0.3,0.3,0.5,0.5s0.5,0.5,0.7,0.7s0.3,0.3,0.5,0.5c0.3,0.3,0.5,0.6,0.8,0.9c0.1,0.1,0.2,0.2,0.3,0.4
			c0.4,0.4,0.8,0.9,1.1,1.3c0.1,0.1,0.1,0.1,0.2,0.2c0.3,0.4,0.6,0.8,0.9,1.1c0.4,0.5,0.8,1,1.2,1.5l0.8,1c0.1,0.2,0.2,0.3,0.3,0.5
			c0.2,0.4,0.5,0.8,0.8,1.2c0.2,0.3,0.4,0.6,0.5,0.8c0.2,0.3,0.3,0.5,0.5,0.8s0.3,0.6,0.5,0.9c0.1,0.2,0.3,0.5,0.4,0.7
			c0.4,0.7,0.8,1.4,1.2,2.1c0.1,0.3,0.3,0.5,0.4,0.8s0.3,0.5,0.4,0.8c0.2,0.4,0.4,0.8,0.6,1.2c0.1,0.1,0.1,0.3,0.2,0.4
			c0.2,0.5,0.5,1,0.7,1.5c0.1,0.1,0.1,0.3,0.2,0.4c0.2,0.4,0.3,0.8,0.5,1.1c0.1,0.2,0.1,0.3,0.2,0.5c0.1,0.4,0.3,0.7,0.4,1.1
			c0.1,0.2,0.1,0.3,0.2,0.5c0.2,0.5,0.3,1,0.5,1.5v0.1c0.2,0.5,0.3,1.1,0.5,1.6c0.1,0.2,0.1,0.3,0.1,0.5c0.1,0.4,0.2,0.7,0.3,1.1
			c0.1,0.2,0.1,0.4,0.2,0.6c0.1,0.3,0.2,0.7,0.3,1c0,0.2,0.1,0.4,0.1,0.6c0.1,0.3,0.2,0.7,0.2,1c0,0.2,0.1,0.4,0.1,0.5
			c0.1,0.5,0.2,0.9,0.2,1.4c0,0.1,0,0.1,0,0.2c0.1,0.5,0.2,1,0.2,1.6c0,0.1,0,0.3,0,0.4c0,0.4,0.1,0.7,0.1,1.1c0,0.2,0,0.4,0,0.5
			c0,0.3,0,0.7,0.1,1c0,0.2,0,0.3,0,0.5c0,0.5,0,1,0,1.5l-10.3,16.7l5.7,3.3c2.8,1.6,6.2,1.6,8.9,0l21.5-12.5c1.7-1,2.8-2.8,2.8-4.8
			l0.1-19.4C474.5,80.8,474.5,80.3,474.5,79.9z"/>
		<path class="st1" d="M418.4,50.6c15.1,8.7,27.3,29.9,27.3,47.3v16.8c0,2.6-2.8,4.2-5,2.9l-48.1-27.8c-1-0.6-1.7-1.7-1.7-2.9
			l0.1-20.6C391,48.9,403.3,41.9,418.4,50.6z"/>
		<path class="st0" d="M417,63.9c-7-4.1-12.8-0.8-12.8,7.3s5.7,17.9,12.7,22s12.8,0.8,12.8-7.3C429.8,77.8,424.1,68,417,63.9z"/>
		<path class="st1" d="M417.1,67.7c-0.3-0.2-0.6-0.1-0.7,0.5l-1,12.1c0,0.2,0.1,0.5,0.3,0.6l2.9,1.7c0.2,0.1,0.3,0,0.3-0.3l-1-13.3
			C417.8,68.4,417.4,67.9,417.1,67.7z"/>
		<path class="st2" d="M437.5,8.3L405,19.2l22,23.9l33.9-9.2L459,14.1L437.5,8.3z"/>
		<path class="st3" d="M410.8,29.9c0-0.1,0-0.2,0-0.3c0-0.1,0-0.2,0.1-0.4c0-0.1,0-0.2,0.1-0.3c0-0.1,0.1-0.2,0.1-0.3
			c0-0.1,0.1-0.2,0.1-0.3s0.1-0.2,0.1-0.3c0-0.1,0.1-0.2,0.1-0.3s0.1-0.2,0.2-0.4c0-0.1,0.1-0.2,0.1-0.3c0.1-0.1,0.1-0.2,0.2-0.4
			c0.1-0.1,0.1-0.2,0.2-0.3s0.2-0.3,0.3-0.4s0.1-0.2,0.2-0.3c0.1-0.2,0.2-0.3,0.3-0.5C413,25,413,25,413,24.9
			c0.2-0.2,0.4-0.5,0.6-0.7c0.1-0.1,0.1-0.1,0.2-0.2c0.2-0.2,0.4-0.4,0.5-0.5s0.2-0.2,0.3-0.2c0.1-0.1,0.2-0.2,0.3-0.3
			c0.1-0.1,0.2-0.2,0.3-0.3c0.1-0.1,0.2-0.2,0.4-0.3c0.1-0.1,0.2-0.2,0.4-0.3c0.1-0.1,0.3-0.2,0.4-0.3s0.2-0.2,0.4-0.3
			c0.1-0.1,0.3-0.2,0.4-0.3c0.2-0.1,0.4-0.2,0.5-0.3c0.4-0.2,0.7-0.4,1.1-0.6c0.1-0.1,0.2-0.1,0.3-0.2c0.3-0.1,0.6-0.3,0.9-0.4
			c0.1,0,0.2-0.1,0.3-0.1c0.4-0.2,0.8-0.3,1.2-0.5c0.1,0,0.1-0.1,0.2-0.1c0.3-0.1,0.7-0.2,1-0.4c0.1,0,0.3-0.1,0.4-0.1
			c0.2-0.1,0.4-0.1,0.6-0.2c0.2,0,0.3-0.1,0.5-0.1c0.2-0.1,0.4-0.1,0.6-0.2c0.2,0,0.3-0.1,0.5-0.1s0.4-0.1,0.6-0.1s0.3-0.1,0.5-0.1
			s0.4-0.1,0.6-0.1s0.3-0.1,0.5-0.1c0.4-0.1,0.9-0.2,1.3-0.2c0.1,0,0.1,0,0.2,0c0.4-0.1,0.8-0.1,1.2-0.1c0.2,0,0.3,0,0.5,0
			c0.3,0,0.5,0,0.8-0.1c0.2,0,0.3,0,0.5,0c0.3,0,0.5,0,0.8,0c0.2,0,0.3,0,0.5,0s0.5,0,0.7,0s0.3,0,0.5,0s0.5,0,0.7,0
			c0.1,0,0.3,0,0.4,0c0.2,0,0.5,0,0.7,0s0.3,0,0.5,0s0.5,0,0.7,0.1c0.1,0,0.3,0,0.4,0c0.3,0,0.6,0.1,0.9,0.1c0.1,0,0.2,0,0.2,0
			c0.4,0,0.8,0.1,1.1,0.1c0.1,0,0.1,0,0.2,0c0.3,0,0.6,0.1,1,0.2c0.1,0,0.3,0.1,0.4,0.1c0.2,0,0.5,0.1,0.7,0.1
			c0.1,0,0.3,0.1,0.4,0.1c0.3,0.1,0.5,0.1,0.8,0.2c0.1,0,0.3,0.1,0.4,0.1c0.2,0.1,0.5,0.1,0.7,0.2c0.1,0,0.3,0.1,0.4,0.1
			c0.4,0.1,0.8,0.2,1.1,0.3c0.1,0,0.1,0,0.2,0.1c0.4,0.1,0.8,0.3,1.3,0.5c0.2,0.1,0.3,0.1,0.5,0.2c0.1,0.1,0.3,0.1,0.4,0.2
			c0.2,0.1,0.4,0.2,0.6,0.2c0.1,0.1,0.2,0.1,0.4,0.2c0.2,0.1,0.4,0.2,0.6,0.3c0.1,0,0.2,0.1,0.3,0.1c0.3,0.2,0.6,0.3,0.9,0.5
			c4.7,2.7,7,6.2,7,9.8V19.8c0-3.5-2.3-7.1-7-9.8c-0.3-0.2-0.6-0.3-0.9-0.5c-0.1,0-0.2-0.1-0.3-0.1c-0.2-0.1-0.4-0.2-0.6-0.3
			c-0.1-0.1-0.2-0.1-0.4-0.2c-0.2-0.1-0.4-0.2-0.6-0.2c-0.1-0.1-0.3-0.1-0.4-0.2c-0.1-0.1-0.3-0.1-0.4-0.2h-0.1
			c-0.4-0.2-0.8-0.3-1.3-0.5c-0.1,0-0.1,0-0.2-0.1c-0.4-0.1-0.7-0.2-1.1-0.3c-0.1,0-0.1,0-0.2-0.1c-0.1,0-0.1,0-0.2-0.1
			C444.5,7.1,444.2,7,444,7c-0.1,0-0.3-0.1-0.4-0.1c-0.3-0.1-0.5-0.1-0.8-0.2c-0.1,0-0.2,0-0.3-0.1h-0.1c-0.2,0-0.5-0.1-0.7-0.1
			c-0.1,0-0.3-0.1-0.4-0.1c-0.3-0.1-0.6-0.1-1-0.2c-0.1,0-0.1,0-0.2,0c-0.4-0.1-0.8-0.1-1.1-0.1c-0.1,0-0.2,0-0.3,0
			c-0.3,0-0.6-0.1-0.9-0.1c-0.1,0-0.3,0-0.4,0c-0.2,0-0.5,0-0.7-0.1c-0.2,0-0.3,0-0.5,0s-0.5,0-0.7,0c0,0,0,0-0.1,0s-0.3,0-0.4,0
			c-0.2,0-0.5,0-0.7,0s-0.3,0-0.5,0s-0.5,0-0.7,0H433c-0.1,0-0.2,0-0.3,0c-0.3,0-0.5,0-0.8,0c-0.2,0-0.3,0-0.5,0
			c-0.3,0-0.5,0-0.8,0.1c-0.1,0-0.2,0-0.3,0c-0.1,0-0.1,0-0.2,0c-0.4,0-0.8,0.1-1.2,0.1c-0.1,0-0.1,0-0.2,0
			c-0.4,0.1-0.9,0.1-1.3,0.2h-0.1c-0.1,0-0.2,0-0.4,0.1c-0.2,0-0.4,0.1-0.6,0.1s-0.3,0.1-0.5,0.1s-0.4,0.1-0.6,0.1s-0.3,0.1-0.5,0.1
			c-0.2,0.1-0.4,0.1-0.6,0.2c-0.2,0-0.3,0.1-0.5,0.1c-0.2,0.1-0.4,0.1-0.6,0.2c-0.1,0-0.2,0-0.3,0.1c-0.1,0-0.1,0-0.2,0.1
			c-0.3,0.1-0.7,0.2-1,0.4c-0.1,0-0.1,0.1-0.2,0.1c-0.4,0.2-0.8,0.3-1.2,0.5c-0.1,0-0.2,0.1-0.3,0.1c-0.3,0.1-0.6,0.3-0.9,0.4
			c-0.1,0.1-0.2,0.1-0.3,0.2c-0.4,0.2-0.7,0.4-1.1,0.6c-0.1,0.1-0.2,0.1-0.3,0.2c-0.1,0.1-0.2,0.1-0.3,0.2c-0.1,0.1-0.3,0.2-0.4,0.3
			s-0.3,0.2-0.4,0.3s-0.3,0.2-0.4,0.3s-0.2,0.2-0.4,0.3c-0.1,0.1-0.2,0.2-0.4,0.3c-0.1,0.1-0.2,0.2-0.3,0.3
			c-0.1,0.1-0.2,0.2-0.3,0.3l-0.1,0.1l-0.1,0.1c-0.2,0.2-0.4,0.4-0.5,0.5s-0.1,0.1-0.2,0.2c-0.2,0.2-0.4,0.5-0.6,0.7
			c0,0.1-0.1,0.1-0.1,0.2c-0.1,0.2-0.2,0.3-0.3,0.5c-0.1,0.1-0.1,0.2-0.2,0.3s-0.2,0.3-0.3,0.4c0,0,0,0.1-0.1,0.1
			c0,0.1-0.1,0.1-0.1,0.2c-0.1,0.1-0.1,0.2-0.2,0.4c0,0.1-0.1,0.2-0.1,0.3c-0.1,0.1-0.1,0.2-0.2,0.4c0,0.1,0,0.1-0.1,0.2V17
			c0,0.1-0.1,0.2-0.1,0.3s-0.1,0.2-0.1,0.3c0,0.1-0.1,0.2-0.1,0.3s0,0.1,0,0.2v0.1c0,0.1,0,0.2-0.1,0.4c0,0.1,0,0.2,0,0.3
			s0,0.2,0,0.4c0,0.1,0,0.1,0,0.2s0,0.1,0,0.2v11.1c0-0.1,0-0.3,0-0.4C410.8,30.1,410.8,30,410.8,29.9z"/>
		<path class="st3" d="M466.5,20.2c0,0.2,0,0.3,0,0.5c0,0.1,0,0.3-0.1,0.4c0,0.2,0,0.3-0.1,0.5c0,0.1-0.1,0.3-0.1,0.4
			c0,0.2-0.1,0.3-0.1,0.5c0,0.1-0.1,0.3-0.1,0.4c0,0.2-0.1,0.3-0.2,0.5c0,0.1-0.1,0.3-0.2,0.4c-0.1,0.2-0.1,0.3-0.2,0.5
			c-0.1,0.1-0.1,0.3-0.2,0.4c-0.1,0.2-0.2,0.3-0.2,0.5c-0.1,0.1-0.1,0.3-0.2,0.4c-0.1,0.2-0.2,0.4-0.4,0.6c-0.1,0.1-0.1,0.2-0.2,0.3
			c-0.1,0.2-0.3,0.4-0.5,0.6c-0.1,0.1-0.1,0.2-0.2,0.3l-0.1,0.1c-0.2,0.2-0.3,0.4-0.5,0.6c0,0.1-0.1,0.1-0.1,0.2
			c-0.2,0.2-0.4,0.5-0.7,0.7l-0.1,0.1c-0.2,0.2-0.4,0.3-0.5,0.5c-0.2,0.1-0.3,0.3-0.5,0.4c-0.1,0.1-0.3,0.2-0.4,0.4
			c-0.2,0.1-0.3,0.3-0.5,0.4s-0.3,0.2-0.5,0.4c-0.2,0.1-0.4,0.3-0.5,0.4c-0.2,0.1-0.3,0.2-0.5,0.3c-0.2,0.1-0.4,0.2-0.6,0.4
			s-0.5,0.3-0.7,0.5c-0.5,0.3-1,0.5-1.5,0.8c-0.1,0.1-0.3,0.1-0.4,0.2c-0.4,0.2-0.8,0.4-1.2,0.6c-0.1,0.1-0.3,0.1-0.4,0.2
			c-0.5,0.2-1.1,0.4-1.6,0.7c-0.1,0-0.2,0.1-0.3,0.1c-0.5,0.2-0.9,0.3-1.4,0.5c-0.2,0.1-0.4,0.1-0.6,0.2c-0.3,0.1-0.5,0.2-0.8,0.2
			c-0.2,0.1-0.4,0.1-0.7,0.2c-0.3,0.1-0.5,0.1-0.8,0.2c-0.2,0.1-0.4,0.1-0.7,0.2c-0.3,0.1-0.5,0.1-0.8,0.2c-0.2,0.1-0.5,0.1-0.7,0.1
			c-0.3,0.1-0.6,0.1-0.8,0.2c-0.2,0-0.4,0.1-0.6,0.1c-0.6,0.1-1.2,0.2-1.8,0.3c-0.1,0-0.2,0-0.3,0c-0.5,0.1-1.1,0.1-1.6,0.2
			c-0.2,0-0.4,0-0.6,0.1c-0.3,0-0.7,0.1-1,0.1c-0.2,0-0.4,0-0.7,0c-0.4,0-0.7,0-1.1,0.1c-0.2,0-0.4,0-0.6,0c-0.3,0-0.6,0-0.9,0
			c-0.2,0-0.4,0-0.7,0c-0.3,0-0.7,0-1,0c-0.2,0-0.4,0-0.6,0c-0.3,0-0.6,0-0.9,0c-0.2,0-0.4,0-0.7,0s-0.6,0-1-0.1c-0.2,0-0.4,0-0.6,0
			c-0.4,0-0.8-0.1-1.1-0.1c-0.1,0-0.3,0-0.4,0c-0.5-0.1-1-0.1-1.5-0.2c-0.1,0-0.2,0-0.3,0c-0.4-0.1-0.9-0.1-1.3-0.2
			c-0.2,0-0.4-0.1-0.5-0.1c-0.3-0.1-0.7-0.1-1-0.2c-0.2,0-0.3-0.1-0.5-0.1c-0.4-0.1-0.7-0.2-1.1-0.2c-0.2,0-0.4-0.1-0.6-0.1
			c-0.3-0.1-0.6-0.2-1-0.3c-0.2-0.1-0.4-0.1-0.5-0.2c-0.5-0.1-1-0.3-1.5-0.5c-0.1,0-0.2-0.1-0.3-0.1c-0.6-0.2-1.1-0.4-1.7-0.6
			c-0.2-0.1-0.5-0.2-0.7-0.3s-0.4-0.1-0.5-0.2c-0.3-0.1-0.5-0.2-0.7-0.3s-0.3-0.1-0.5-0.2c-0.3-0.1-0.5-0.3-0.8-0.4
			c-0.1-0.1-0.3-0.1-0.4-0.2c-0.4-0.2-0.8-0.4-1.2-0.6c-6.3-3.6-9.5-8.4-9.5-13.2V31c0,4.8,3.1,9.6,9.5,13.2
			c0.4,0.2,0.8,0.4,1.2,0.6c0.1,0.1,0.3,0.1,0.4,0.2c0.3,0.1,0.5,0.3,0.8,0.4c0.2,0.1,0.3,0.1,0.5,0.2c0.2,0.1,0.5,0.2,0.7,0.3
			s0.4,0.1,0.5,0.2c0.2,0.1,0.3,0.1,0.5,0.2c0.1,0,0.1,0,0.2,0.1c0.6,0.2,1.1,0.4,1.7,0.6c0.1,0,0.2,0.1,0.3,0.1
			c0.5,0.2,1,0.3,1.5,0.5c0.1,0,0.2,0.1,0.3,0.1s0.2,0.1,0.3,0.1c0.3,0.1,0.6,0.2,1,0.3c0.2,0.1,0.4,0.1,0.6,0.1
			c0.4,0.1,0.7,0.2,1.1,0.2c0.1,0,0.3,0.1,0.4,0.1h0.1c0.3,0.1,0.7,0.1,1,0.2c0.2,0,0.4,0.1,0.5,0.1c0.4,0.1,0.9,0.1,1.3,0.2
			c0.1,0,0.2,0,0.2,0c0.5,0.1,1,0.1,1.5,0.2c0.1,0,0.2,0,0.4,0c0.4,0,0.8,0.1,1.2,0.1c0.2,0,0.4,0,0.5,0c0.3,0,0.7,0,1,0.1
			c0.2,0,0.4,0,0.6,0c0.3,0,0.6,0,0.9,0h0.1c0.2,0,0.3,0,0.5,0c0.3,0,0.7,0,1,0c0.2,0,0.4,0,0.7,0c0.3,0,0.6,0,0.9,0
			c0.1,0,0.1,0,0.2,0s0.3,0,0.4,0c0.4,0,0.7,0,1.1-0.1c0.2,0,0.4,0,0.6,0c0.3,0,0.7-0.1,1-0.1c0.1,0,0.2,0,0.4,0c0.1,0,0.2,0,0.2,0
			c0.5-0.1,1.1-0.1,1.6-0.2c0.1,0,0.2,0,0.3,0c0.6-0.1,1.2-0.2,1.8-0.3c0.1,0,0.1,0,0.2,0c0.2,0,0.3-0.1,0.5-0.1
			c0.3-0.1,0.6-0.1,0.8-0.2c0.2,0,0.5-0.1,0.7-0.1c0.3-0.1,0.5-0.1,0.8-0.2c0.2-0.1,0.4-0.1,0.7-0.2s0.5-0.1,0.8-0.2
			c0.2-0.1,0.4-0.1,0.7-0.2c0.3-0.1,0.5-0.2,0.8-0.2c0.1,0,0.2-0.1,0.3-0.1s0.2-0.1,0.2-0.1c0.5-0.2,0.9-0.3,1.4-0.5
			c0.1,0,0.2-0.1,0.3-0.1c0.5-0.2,1.1-0.4,1.6-0.7c0.1-0.1,0.3-0.1,0.4-0.2c0.4-0.2,0.8-0.4,1.2-0.6c0.1-0.1,0.3-0.1,0.4-0.2
			c0.5-0.3,1-0.5,1.5-0.8c0.1-0.1,0.3-0.2,0.4-0.2c0.1-0.1,0.2-0.1,0.4-0.2c0.2-0.1,0.4-0.2,0.6-0.4c0.2-0.1,0.3-0.2,0.5-0.3
			s0.4-0.3,0.5-0.4c0.2-0.1,0.3-0.2,0.5-0.4c0.2-0.1,0.3-0.3,0.5-0.4c0.2-0.1,0.3-0.2,0.4-0.4c0.2-0.1,0.3-0.3,0.5-0.4
			c0.1-0.1,0.1-0.1,0.2-0.2c0.1-0.1,0.2-0.2,0.4-0.3l0.1-0.1c0.2-0.2,0.5-0.5,0.7-0.7c0.1-0.1,0.1-0.1,0.1-0.2
			c0.2-0.2,0.4-0.4,0.5-0.6l0.1-0.1c0,0,0,0,0.1-0.1s0.1-0.2,0.2-0.2c0.2-0.2,0.3-0.4,0.5-0.6c0.1-0.1,0.1-0.2,0.2-0.3
			c0.1-0.2,0.2-0.4,0.4-0.6c0-0.1,0.1-0.1,0.1-0.2c0-0.1,0.1-0.2,0.1-0.2c0.1-0.2,0.2-0.3,0.2-0.5c0.1-0.1,0.1-0.3,0.2-0.4
			c0.1-0.2,0.1-0.3,0.2-0.5c0-0.1,0.1-0.1,0.1-0.2s0-0.1,0.1-0.2c0.1-0.2,0.1-0.3,0.2-0.5c0-0.1,0.1-0.3,0.1-0.4
			c0-0.2,0.1-0.3,0.1-0.5c0-0.1,0-0.2,0.1-0.3c0-0.1,0-0.1,0-0.2c0-0.2,0.1-0.3,0.1-0.5c0-0.1,0-0.3,0.1-0.4c0-0.2,0-0.3,0-0.5
			c0-0.1,0-0.2,0-0.3c0-0.1,0-0.2,0-0.3V19.7C466.5,19.8,466.5,20,466.5,20.2z"/>
		<path class="st2" d="M457.1,6.4c12.5,7.2,12.6,19,0.1,26.2s-32.7,7.2-45.3,0c-12.5-7.2-12.6-19-0.1-26.2
			C424.2-0.8,444.5-0.8,457.1,6.4z M417.8,29.3c9.3,5.4,24.3,5.4,33.5,0s9.2-14.1-0.1-19.4c-9.3-5.4-24.3-5.4-33.5,0
			C408.5,15.2,408.5,23.9,417.8,29.3z"/>
		<path class="st4" d="M403.2,23.5c-2.3-6,0.6-12.5,8.5-17.1c12.5-7.2,32.7-7.2,45.3,0c7.8,4.5,10.8,10.8,8.9,16.7
			c-1.2,3.5-4.1,6.9-8.7,9.6"/>
		<path class="st4" d="M417.7,9.8c-6.9,4-8.6,9.9-5.1,14.9c1.2,1.7,2.9,3.2,5.2,4.5"/>
		<path class="st4" d="M417.8,29.3c9.3,5.4,24.3,5.4,33.5,0c2.1-1.2,3.7-2.6,4.8-4.1"/>
	</g>
</g>
</svg>
