<?xml version="1.0" encoding="utf-8"?>
<!-- Generator: Adobe Illustrator 22.1.0, SVG Export Plug-In . SVG Version: 6.00 Build 0)  -->
<svg version="1.1" id="Слой_1" xmlns="http://www.w3.org/2000/svg" xmlns:xlink="http://www.w3.org/1999/xlink" x="0px" y="0px"
	 viewBox="0 0 591.8 541.9" style="enable-background:new 0 0 591.8 541.9;" xml:space="preserve">
<style type="text/css">
	.st0{fill:#FFD394;}
	.st1{fill:none;stroke:#171A21;stroke-width:2;stroke-linecap:round;stroke-linejoin:round;stroke-miterlimit:10;}
	.st2{fill:#FB7070;}
	.st3{fill:#A05F84;}
</style>
<g>
	<g>
		<path class="st0" d="M281.8,441.4c0-0.3,0-0.5,0-0.8c0-0.1,0-0.3,0-0.4c0-0.3,0-0.5,0.1-0.8c0-0.1,0-0.2,0-0.4s0-0.4,0.1-0.5
			c0-0.3,0.1-0.5,0.1-0.8c0-0.2,0.1-0.4,0.1-0.5c0-0.3,0.1-0.5,0.2-0.8c0-0.2,0.1-0.4,0.1-0.6s0.1-0.3,0.1-0.5
			c0.1-0.2,0.1-0.5,0.2-0.7c0-0.2,0.1-0.3,0.1-0.5c0-0.1,0.1-0.3,0.1-0.4c0.2-0.6,0.3-1.1,0.5-1.7v-0.1c0.2-0.6,0.4-1.1,0.6-1.7
			c0.1-0.1,0.1-0.3,0.2-0.4c0.2-0.5,0.4-0.9,0.6-1.4c0-0.1,0.1-0.1,0.1-0.2c0.2-0.5,0.5-1,0.7-1.5c0.1-0.1,0.1-0.3,0.2-0.4
			c0.2-0.4,0.4-0.8,0.6-1.2c0.1-0.1,0.1-0.2,0.2-0.4c0.3-0.5,0.5-1,0.8-1.5c0.1-0.1,0.1-0.2,0.2-0.3c0.3-0.4,0.5-0.8,0.8-1.3
			c0.1-0.1,0.2-0.2,0.2-0.4c0.3-0.5,0.7-1,1-1.5c0.1-0.1,0.1-0.1,0.2-0.2c0.4-0.5,0.7-1,1.1-1.5c0.1-0.1,0.1-0.1,0.2-0.2
			c0.5-0.6,1-1.2,1.5-1.8c0.1-0.1,0.1-0.2,0.2-0.2c0.3-0.4,0.6-0.7,0.9-1c0,0,0,0,0.1-0.1c0.3-0.4,0.7-0.7,1-1
			c0.2-0.2,0.4-0.4,0.7-0.6c0.1-0.1,0.1-0.1,0.2-0.2c0.3-0.3,0.6-0.5,0.9-0.8c0.1-0.1,0.2-0.1,0.2-0.2c0.2-0.2,0.4-0.4,0.7-0.6
			c0.1-0.1,0.2-0.2,0.3-0.3c0.2-0.2,0.4-0.3,0.6-0.5c0.1-0.1,0.2-0.2,0.4-0.3c0.2-0.1,0.4-0.3,0.6-0.4c0.1-0.1,0.2-0.2,0.4-0.2
			c0.2-0.1,0.4-0.3,0.6-0.4c0.1-0.1,0.2-0.1,0.3-0.2c0.3-0.2,0.6-0.4,1-0.6s0.8-0.5,1.3-0.7c0.1-0.1,0.2-0.1,0.4-0.2
			c0.3-0.2,0.6-0.3,1-0.4c0.1,0,0.2-0.1,0.3-0.1c0.3-0.1,0.6-0.2,0.9-0.3c0.1,0,0.1-0.1,0.2-0.1c0.4-0.1,0.7-0.2,1.1-0.3
			c0.2-0.1,0.4-0.1,0.6-0.2c0.1,0,0.2,0,0.3-0.1c0.3-0.1,0.6-0.1,0.9-0.2c0.3,0,0.5-0.1,0.8-0.1c0.1,0,0.2,0,0.3,0
			c0.2,0,0.4,0,0.6,0c0.1,0,0.2,0,0.3,0c0.2,0,0.4,0,0.6,0c0.1,0,0.1,0,0.2,0s0.1,0,0.2,0c0.3,0,0.6,0.1,0.9,0.1c0.1,0,0.2,0,0.3,0
			c0.3,0.1,0.7,0.1,1,0.2s0.6,0.2,0.9,0.3c0.1,0,0.2,0.1,0.3,0.1c0.3,0.1,0.5,0.2,0.7,0.4c0.1,0,0.2,0.1,0.2,0.1l-22.5-13.1
			c0,0-0.1,0-0.1-0.1c0,0-0.1,0-0.1-0.1c-0.2-0.1-0.5-0.2-0.7-0.4c0,0-0.1,0-0.1-0.1h-0.1c-0.3-0.1-0.6-0.2-0.9-0.3
			c-0.3-0.1-0.7-0.2-1-0.2h-0.1c-0.1,0-0.1,0-0.2,0c-0.3,0-0.6-0.1-0.9-0.1h-0.1h-0.1c-0.1,0-0.1,0-0.2,0c-0.2,0-0.4,0-0.6,0
			c-0.1,0-0.2,0-0.3,0s-0.1,0-0.2,0s-0.3,0-0.4,0s-0.2,0-0.3,0c-0.3,0-0.5,0.1-0.8,0.1s-0.6,0.1-0.9,0.2c-0.1,0-0.2,0-0.3,0.1
			c-0.2,0-0.4,0.1-0.6,0.1c0,0,0,0-0.1,0c-0.4,0.1-0.7,0.2-1.1,0.3c-0.1,0-0.1,0.1-0.2,0.1c-0.3,0.1-0.6,0.2-0.9,0.3h-0.1
			c-0.1,0-0.1,0.1-0.2,0.1c-0.3,0.1-0.6,0.3-0.9,0.4c-0.1,0.1-0.2,0.1-0.4,0.2c-0.4,0.2-0.8,0.4-1.3,0.7c-0.3,0.2-0.6,0.4-1,0.6
			c-0.1,0.1-0.2,0.1-0.3,0.2c-0.2,0.1-0.4,0.3-0.6,0.4c-0.1,0.1-0.2,0.2-0.4,0.2c-0.2,0.1-0.4,0.3-0.6,0.4c-0.1,0.1-0.2,0.2-0.4,0.3
			c-0.2,0.2-0.4,0.3-0.6,0.5c-0.1,0.1-0.2,0.2-0.3,0.3c-0.2,0.2-0.4,0.4-0.7,0.6c-0.1,0.1-0.2,0.1-0.2,0.2c-0.3,0.3-0.6,0.5-0.9,0.8
			c-0.1,0.1-0.1,0.1-0.2,0.2c-0.2,0.2-0.4,0.4-0.6,0.6l-0.1,0.1c-0.3,0.3-0.7,0.7-1,1c0,0,0,0-0.1,0.1c-0.3,0.3-0.6,0.7-0.9,1
			l-0.1,0.1l-0.1,0.1c-0.5,0.6-1,1.2-1.5,1.8c0,0,0,0,0,0.1l-0.1,0.1c-0.4,0.5-0.7,1-1.1,1.5c0,0.1-0.1,0.1-0.1,0.2c0,0,0,0,0,0.1
			c-0.3,0.5-0.7,1-1,1.5l-0.1,0.1c0,0.1-0.1,0.1-0.1,0.2c-0.3,0.4-0.5,0.8-0.8,1.3c0,0.1-0.1,0.1-0.1,0.2v0.1
			c-0.3,0.5-0.6,1-0.8,1.5c0,0,0,0.1-0.1,0.1c0,0.1-0.1,0.2-0.1,0.2c-0.2,0.4-0.4,0.8-0.6,1.2c0,0.1-0.1,0.2-0.1,0.2s0,0.1-0.1,0.2
			c-0.2,0.5-0.5,1-0.7,1.5c0,0.1,0,0.1-0.1,0.2c-0.2,0.5-0.4,0.9-0.6,1.4c0,0.1-0.1,0.2-0.1,0.2c0,0.1,0,0.1-0.1,0.2
			c-0.2,0.6-0.4,1.1-0.6,1.7v0.1c-0.2,0.6-0.4,1.1-0.5,1.7c0,0.1,0,0.1-0.1,0.2c0,0.1,0,0.1-0.1,0.2c0,0.2-0.1,0.3-0.1,0.5
			c-0.1,0.2-0.1,0.5-0.2,0.7c0,0.2-0.1,0.3-0.1,0.5c0,0.1-0.1,0.2-0.1,0.4c0,0.1,0,0.2,0,0.3c-0.1,0.3-0.1,0.5-0.2,0.8
			c0,0.2-0.1,0.4-0.1,0.5c0,0.3-0.1,0.5-0.1,0.8c0,0.1,0,0.3-0.1,0.4c0,0.1,0,0.1,0,0.2s0,0.2,0,0.4c0,0.3-0.1,0.5-0.1,0.8
			c0,0.1,0,0.3,0,0.4c0,0.3,0,0.5,0,0.8c0,0.1,0,0.2,0,0.3c0,0.4,0,0.7,0,1.1c0,6.3,2.2,10.7,5.8,12.8l22.5,13.1
			c-3.6-2.1-5.8-6.5-5.8-12.8c0-0.4,0-0.7,0-1.1C281.7,441.6,281.8,441.5,281.8,441.4z"/>
		<path class="st1" d="M293.3,393.9c0,0-0.1,0-0.1-0.1c0,0-0.1,0-0.1-0.1c-0.2-0.1-0.5-0.2-0.7-0.4c0,0-0.1,0-0.1-0.1h-0.1
			c-0.3-0.1-0.6-0.2-0.9-0.3c-0.3-0.1-0.7-0.2-1-0.2h-0.1c-0.1,0-0.1,0-0.2,0c-0.3,0-0.6-0.1-0.9-0.1H289h-0.1c-0.1,0-0.1,0-0.2,0
			c-0.2,0-0.4,0-0.6,0c-0.1,0-0.2,0-0.3,0c-0.1,0-0.1,0-0.2,0s-0.3,0-0.4,0s-0.2,0-0.3,0c-0.3,0-0.5,0.1-0.8,0.1s-0.6,0.1-0.9,0.2
			c-0.1,0-0.2,0-0.3,0.1c-0.2,0-0.4,0.1-0.6,0.1c0,0,0,0-0.1,0c-0.4,0.1-0.7,0.2-1.1,0.3c-0.1,0-0.1,0.1-0.2,0.1
			c-0.3,0.1-0.6,0.2-0.9,0.3h-0.1c-0.1,0-0.1,0.1-0.2,0.1c-0.3,0.1-0.6,0.3-0.9,0.4c-0.1,0.1-0.2,0.1-0.4,0.2
			c-0.4,0.2-0.8,0.4-1.3,0.7c-0.3,0.2-0.6,0.4-1,0.6c-0.1,0.1-0.2,0.1-0.3,0.2c-0.2,0.1-0.4,0.3-0.6,0.4c-0.1,0.1-0.2,0.2-0.4,0.2
			c-0.2,0.1-0.4,0.3-0.6,0.4c-0.1,0.1-0.2,0.2-0.4,0.3c-0.2,0.2-0.4,0.3-0.6,0.5c-0.1,0.1-0.2,0.2-0.3,0.3c-0.2,0.2-0.4,0.4-0.7,0.6
			c-0.1,0.1-0.2,0.1-0.2,0.2c-0.3,0.3-0.6,0.5-0.9,0.8c-0.1,0.1-0.1,0.1-0.2,0.2c-0.2,0.2-0.4,0.4-0.6,0.6l-0.1,0.1
			c-0.3,0.3-0.7,0.7-1,1c0,0,0,0-0.1,0.1c-0.3,0.3-0.6,0.7-0.9,1l-0.1,0.1l-0.1,0.1c-0.5,0.6-1,1.2-1.5,1.8c0,0,0,0,0,0.1l-0.1,0.1
			c-0.4,0.5-0.7,1-1.1,1.5c0,0.1-0.1,0.1-0.1,0.2c0,0,0,0,0,0.1c-0.3,0.5-0.7,1-1,1.5l-0.1,0.1c0,0.1-0.1,0.1-0.1,0.2
			c-0.3,0.4-0.5,0.8-0.8,1.3c0,0.1-0.1,0.1-0.1,0.2v0.1c-0.3,0.5-0.6,1-0.8,1.5c0,0,0,0.1-0.1,0.1c0,0.1-0.1,0.2-0.1,0.2
			c-0.2,0.4-0.4,0.8-0.6,1.2c0,0.1-0.1,0.2-0.1,0.2s0,0.1-0.1,0.2c-0.2,0.5-0.5,1-0.7,1.5c0,0.1,0,0.1-0.1,0.2
			c-0.2,0.5-0.4,0.9-0.6,1.4c0,0.1-0.1,0.2-0.1,0.2c0,0.1,0,0.1-0.1,0.2c-0.2,0.6-0.4,1.1-0.6,1.7v0.1c-0.2,0.6-0.4,1.1-0.5,1.7
			c0,0.1,0,0.1-0.1,0.2c0,0.1,0,0.1-0.1,0.2c0,0.2-0.1,0.3-0.1,0.5c-0.1,0.2-0.1,0.5-0.2,0.7c0,0.2-0.1,0.3-0.1,0.5
			c0,0.1-0.1,0.2-0.1,0.4c0,0.1,0,0.2,0,0.3c-0.1,0.3-0.1,0.5-0.2,0.8c0,0.2-0.1,0.4-0.1,0.5c0,0.3-0.1,0.5-0.1,0.8
			c0,0.1,0,0.3-0.1,0.4c0,0.1,0,0.1,0,0.2s0,0.2,0,0.4c0,0.3-0.1,0.5-0.1,0.8c0,0.1,0,0.3,0,0.4c0,0.3,0,0.5,0,0.8
			c0,0.1,0,0.2,0,0.3c0,0.4,0,0.7,0,1.1c0,6.3,2.2,10.7,5.8,12.8"/>
		<path class="st2" d="M301.6,408.4c11-6.4,20-1.3,20,11.4c0,12.7-8.9,28.1-19.9,34.4c-11,6.4-20,1.3-20-11.4
			S290.6,414.7,301.6,408.4z"/>
		<path class="st0" d="M362.6,453.6c0.2-0.1,0.4-0.2,0.6-0.2c0.1,0,0.3-0.1,0.4-0.1s0.2-0.1,0.4-0.1s0.3-0.1,0.5-0.1
			c0.1,0,0.2,0,0.3,0c0.2,0,0.4,0,0.6,0h0.1c0.2,0,0.5,0,0.7,0.1c0.1,0,0.1,0,0.2,0c0.2,0,0.3,0.1,0.5,0.1c0.1,0,0.1,0,0.2,0.1
			c0.2,0.1,0.4,0.2,0.6,0.3l-56.9-33.1c-0.1-0.1-0.3-0.2-0.5-0.2h-0.1c-0.1,0-0.1,0-0.2-0.1c-0.1,0-0.2-0.1-0.2-0.1
			c-0.1,0-0.2,0-0.3-0.1c-0.1,0-0.1,0-0.2,0h-0.1c-0.2,0-0.4-0.1-0.5-0.1h-0.1c-0.1,0-0.3,0-0.4,0c0,0-0.1,0-0.2,0s-0.2,0-0.3,0
			c-0.1,0-0.2,0-0.3,0s-0.2,0-0.2,0c-0.1,0-0.2,0-0.4,0.1c-0.1,0-0.1,0-0.2,0s-0.1,0.1-0.2,0.1c-0.2,0.1-0.4,0.1-0.6,0.2
			c-0.1,0-0.1,0-0.2,0.1c-0.1,0-0.2,0.1-0.2,0.1c-0.1,0-0.1,0.1-0.2,0.1c-0.3,0.1-0.6,0.3-0.8,0.4c-0.3,0.2-0.6,0.4-0.9,0.6
			c-0.1,0.1-0.2,0.1-0.3,0.2c-0.2,0.1-0.4,0.3-0.6,0.4c-0.1,0.1-0.2,0.2-0.3,0.3c-0.2,0.1-0.3,0.3-0.5,0.4c-0.1,0.1-0.2,0.2-0.3,0.3
			c-0.1,0.1-0.1,0.1-0.2,0.2s-0.1,0.1-0.2,0.2c-0.2,0.2-0.4,0.4-0.6,0.6c-0.1,0.1-0.1,0.1-0.2,0.2s-0.1,0.1-0.2,0.2
			s-0.2,0.3-0.4,0.4c-0.1,0.1-0.2,0.2-0.2,0.3c-0.1,0.1-0.1,0.2-0.2,0.2c-0.1,0.1-0.2,0.2-0.3,0.3s-0.1,0.2-0.2,0.2
			c-0.1,0.1-0.2,0.3-0.3,0.4s-0.1,0.2-0.2,0.3l-0.1,0.1c-0.2,0.3-0.3,0.5-0.5,0.8c0,0,0,0,0,0.1s-0.1,0.1-0.1,0.2
			c-0.1,0.2-0.2,0.4-0.3,0.6c0,0.1-0.1,0.2-0.1,0.3s-0.1,0.2-0.1,0.3c0,0.1-0.1,0.2-0.1,0.2c-0.1,0.2-0.2,0.4-0.3,0.6
			c0,0,0,0.1-0.1,0.1c-0.1,0.3-0.2,0.5-0.3,0.8c0,0,0,0.1-0.1,0.1c0,0.1-0.1,0.2-0.1,0.3c0,0.1-0.1,0.3-0.1,0.4s-0.1,0.2-0.1,0.3
			s-0.1,0.2-0.1,0.4c0,0.1,0,0.2-0.1,0.2c0,0.1-0.1,0.3-0.1,0.4c0,0.2-0.1,0.3-0.1,0.5c0,0.1,0,0.1,0,0.2s0,0.2-0.1,0.3
			c0,0.2-0.1,0.5-0.1,0.7c0,0.1,0,0.1,0,0.2c0,0.2,0,0.3,0,0.5c0,0.1,0,0.2,0,0.3c0,0.3,0,0.7,0,1c0,2.9,1,4.9,2.7,5.8l56.9,33.1
			c-1.6-0.9-2.6-3-2.7-5.8c0-0.3,0-0.7,0-1c0-0.1,0-0.2,0-0.3c0-0.2,0-0.4,0.1-0.7c0-0.2,0.1-0.5,0.1-0.7s0.1-0.3,0.1-0.5
			s0.1-0.3,0.1-0.5c0.1-0.2,0.1-0.4,0.2-0.6c0-0.1,0.1-0.3,0.1-0.4c0.1-0.2,0.2-0.5,0.2-0.7c0-0.1,0.1-0.2,0.1-0.3
			c0.1-0.3,0.3-0.7,0.4-1c0,0,0-0.1,0.1-0.1c0.1-0.3,0.3-0.6,0.4-0.9c0-0.1,0.1-0.2,0.1-0.3c0.1-0.3,0.3-0.5,0.4-0.8
			c0-0.1,0.1-0.1,0.1-0.2c0.2-0.3,0.4-0.6,0.6-0.9c0.1-0.1,0.1-0.2,0.2-0.3c0.1-0.2,0.3-0.4,0.4-0.6c0.1-0.1,0.2-0.2,0.3-0.3
			c0.1-0.2,0.3-0.4,0.4-0.5s0.2-0.3,0.4-0.4c0.1-0.1,0.2-0.3,0.3-0.4c0.2-0.2,0.4-0.4,0.6-0.6c0.1-0.1,0.3-0.3,0.4-0.4
			s0.2-0.2,0.3-0.3c0.2-0.2,0.3-0.3,0.5-0.4c0.1-0.1,0.2-0.2,0.3-0.3c0.2-0.1,0.4-0.3,0.6-0.4c0.1-0.1,0.2-0.1,0.3-0.2
			c0.3-0.2,0.6-0.4,0.9-0.6s0.6-0.3,0.8-0.4c0.1,0,0.1-0.1,0.2-0.1C362.3,453.7,362.4,453.6,362.6,453.6z"/>
		<path class="st3" d="M361.1,454.3c5-2.9,9.1-0.6,9.1,5.2s-4,12.8-9.1,15.7c-5,2.9-9.1,0.6-9.1-5.2S356,457.2,361.1,454.3z"/>
		<path class="st0" d="M342.7,476.5c0-0.3,0-0.5,0-0.8c0-0.1,0-0.3,0-0.4c0-0.3,0-0.5,0.1-0.8c0-0.1,0-0.2,0-0.4
			c0-0.2,0-0.4,0.1-0.5c0-0.3,0.1-0.5,0.1-0.8c0-0.2,0.1-0.4,0.1-0.5c0-0.3,0.1-0.5,0.2-0.8c0-0.2,0.1-0.4,0.1-0.6s0.1-0.3,0.1-0.5
			c0.1-0.2,0.1-0.5,0.2-0.7c0-0.2,0.1-0.3,0.1-0.5c0-0.1,0.1-0.3,0.1-0.4c0.2-0.6,0.3-1.1,0.5-1.7V467c0.2-0.6,0.4-1.1,0.6-1.7
			c0.1-0.1,0.1-0.3,0.2-0.4c0.2-0.5,0.4-0.9,0.6-1.4c0-0.1,0.1-0.1,0.1-0.2c0.2-0.5,0.5-1,0.7-1.5c0.1-0.1,0.1-0.3,0.2-0.4
			c0.2-0.4,0.4-0.8,0.6-1.2c0.1-0.1,0.1-0.2,0.2-0.4c0.3-0.5,0.5-1,0.8-1.5c0.1-0.1,0.1-0.2,0.2-0.3c0.3-0.4,0.5-0.8,0.8-1.3
			c0.1-0.1,0.2-0.2,0.2-0.4c0.3-0.5,0.7-1,1-1.5c0.1-0.1,0.1-0.1,0.2-0.2c0.4-0.5,0.7-1,1.1-1.5c0.1-0.1,0.1-0.1,0.2-0.2
			c0.5-0.6,1-1.2,1.5-1.8c0.1-0.1,0.1-0.2,0.2-0.2c0.3-0.4,0.6-0.7,0.9-1c0,0,0,0,0.1-0.1c0.3-0.4,0.7-0.7,1-1
			c0.2-0.2,0.4-0.4,0.7-0.6c0.1-0.1,0.1-0.1,0.2-0.2c0.3-0.3,0.6-0.5,0.9-0.8c0.1-0.1,0.2-0.1,0.2-0.2c0.2-0.2,0.4-0.4,0.7-0.6
			c0.1-0.1,0.2-0.2,0.3-0.3c0.2-0.2,0.4-0.3,0.6-0.5c0.1-0.1,0.2-0.2,0.4-0.3c0.2-0.1,0.4-0.3,0.6-0.4c0.1-0.1,0.2-0.2,0.4-0.2
			c0.2-0.1,0.4-0.3,0.6-0.4c0.1-0.1,0.2-0.1,0.3-0.2c0.3-0.2,0.6-0.4,1-0.6s0.8-0.5,1.3-0.7c0.1-0.1,0.2-0.1,0.4-0.2
			c0.3-0.2,0.6-0.3,1-0.4c0.1,0,0.2-0.1,0.3-0.1c0.3-0.1,0.6-0.2,0.9-0.3c0.1,0,0.1-0.1,0.2-0.1c0.4-0.1,0.7-0.2,1.1-0.3
			c0.2-0.1,0.4-0.1,0.6-0.2c0.1,0,0.2,0,0.3-0.1c0.3-0.1,0.6-0.1,0.9-0.2c0.3,0,0.5-0.1,0.8-0.1c0.1,0,0.2,0,0.3,0
			c0.2,0,0.4,0,0.6,0c0.1,0,0.2,0,0.3,0c0.2,0,0.4,0,0.6,0c0.1,0,0.1,0,0.2,0s0.1,0,0.2,0c0.3,0,0.6,0.1,0.9,0.1c0.1,0,0.2,0,0.3,0
			c0.3,0.1,0.7,0.1,1,0.2s0.6,0.2,0.9,0.3c0.1,0,0.2,0.1,0.3,0.1c0.3,0.1,0.5,0.2,0.7,0.4c0.1,0,0.2,0.1,0.2,0.1l-22.5-13.1
			c0,0-0.1,0-0.1-0.1c0,0-0.1,0-0.1-0.1c-0.2-0.1-0.5-0.2-0.7-0.4c0,0-0.1,0-0.1-0.1h-0.1c-0.3-0.1-0.6-0.2-0.9-0.3s-0.7-0.2-1-0.2
			h-0.1c-0.1,0-0.1,0-0.2,0c-0.3,0-0.6-0.1-0.9-0.1h-0.1h-0.1c-0.1,0-0.1,0-0.2,0c-0.2,0-0.4,0-0.6,0c-0.1,0-0.2,0-0.3,0
			s-0.1,0-0.2,0s-0.3,0-0.4,0s-0.2,0-0.3,0c-0.3,0-0.5,0.1-0.8,0.1s-0.6,0.1-0.9,0.2c-0.1,0-0.2,0-0.3,0.1c-0.2,0-0.4,0.1-0.6,0.1
			c0,0,0,0-0.1,0c-0.4,0.1-0.7,0.2-1.1,0.3c-0.1,0-0.1,0.1-0.2,0.1c-0.3,0.1-0.6,0.2-0.9,0.3h-0.1c-0.1,0-0.1,0.1-0.2,0.1
			c-0.3,0.1-0.6,0.3-0.9,0.4c-0.1,0.1-0.2,0.1-0.4,0.2c-0.4,0.2-0.8,0.4-1.3,0.7c-0.3,0.2-0.6,0.4-1,0.6c-0.1,0.1-0.2,0.1-0.3,0.2
			c-0.2,0.1-0.4,0.3-0.6,0.4c-0.1,0.1-0.2,0.2-0.4,0.2c-0.2,0.1-0.4,0.3-0.6,0.4c-0.1,0.1-0.2,0.2-0.4,0.3c-0.2,0.2-0.4,0.3-0.6,0.5
			c-0.1,0.1-0.2,0.2-0.3,0.3c-0.2,0.2-0.4,0.4-0.7,0.6c-0.1,0.1-0.2,0.1-0.2,0.2c-0.3,0.3-0.6,0.5-0.9,0.8c-0.1,0.1-0.1,0.1-0.2,0.2
			c-0.2,0.2-0.4,0.4-0.6,0.6l-0.1,0.1c-0.3,0.3-0.7,0.7-1,1c0,0,0,0-0.1,0.1c-0.3,0.3-0.6,0.7-0.9,1l-0.1,0.1l-0.1,0.1
			c-0.5,0.6-1,1.2-1.5,1.8c0,0,0,0,0,0.1l-0.1,0.1c-0.4,0.5-0.7,1-1.1,1.5c0,0.1-0.1,0.1-0.1,0.2c0,0,0,0,0,0.1
			c-0.3,0.5-0.7,1-1,1.5l-0.1,0.1c0,0.1-0.1,0.1-0.1,0.2c-0.3,0.4-0.5,0.8-0.8,1.3c0,0.1-0.1,0.1-0.1,0.2v0.1
			c-0.3,0.5-0.6,1-0.8,1.5c0,0,0,0.1-0.1,0.1c0,0.1-0.1,0.2-0.1,0.2c-0.2,0.4-0.4,0.8-0.6,1.2c0,0.1-0.1,0.2-0.1,0.2s0,0.1-0.1,0.2
			c-0.2,0.5-0.5,1-0.7,1.5c0,0.1,0,0.1-0.1,0.2c-0.2,0.5-0.4,0.9-0.6,1.4c0,0.1-0.1,0.2-0.1,0.2c0,0.1,0,0.1-0.1,0.2
			c-0.2,0.6-0.4,1.1-0.6,1.7v0.1c-0.2,0.6-0.4,1.1-0.5,1.7c0,0.1,0,0.1-0.1,0.2c0,0.1,0,0.1-0.1,0.2c0,0.2-0.1,0.3-0.1,0.5
			c-0.1,0.2-0.1,0.5-0.2,0.7c0,0.2-0.1,0.3-0.1,0.5c0,0.1-0.1,0.2-0.1,0.4c0,0.1,0,0.2,0,0.3c-0.1,0.3-0.1,0.5-0.2,0.8
			c0,0.2-0.1,0.4-0.1,0.5c0,0.3-0.1,0.5-0.1,0.8c0,0.1,0,0.3-0.1,0.4c0,0.1,0,0.1,0,0.2s0,0.2,0,0.4c0,0.3-0.1,0.5-0.1,0.8
			c0,0.1,0,0.3,0,0.4c0,0.3,0,0.5,0,0.8c0,0.1,0,0.2,0,0.3c0,0.4,0,0.7,0,1.1c0,6.3,2.2,10.7,5.8,12.8l22.5,13.1
			c-3.6-2.1-5.8-6.5-5.8-12.8c0-0.4,0-0.7,0-1.1C342.7,476.8,342.7,476.7,342.7,476.5z"/>
		<path class="st1" d="M354.3,429.1c0,0-0.1,0-0.1-0.1c0,0-0.1,0-0.1-0.1c-0.2-0.1-0.5-0.2-0.7-0.4c0,0-0.1,0-0.1-0.1h-0.1
			c-0.3-0.1-0.6-0.2-0.9-0.3c-0.3-0.1-0.7-0.2-1-0.2h-0.1c-0.1,0-0.1,0-0.2,0c-0.3,0-0.6-0.1-0.9-0.1H350h-0.1c-0.1,0-0.1,0-0.2,0
			c-0.2,0-0.4,0-0.6,0c-0.1,0-0.2,0-0.3,0c-0.1,0-0.1,0-0.2,0s-0.3,0-0.4,0s-0.2,0-0.3,0c-0.3,0-0.5,0.1-0.8,0.1s-0.6,0.1-0.9,0.2
			c-0.1,0-0.2,0-0.3,0.1c-0.2,0-0.4,0.1-0.6,0.1c0,0,0,0-0.1,0c-0.4,0.1-0.7,0.2-1.1,0.3c-0.1,0-0.1,0.1-0.2,0.1
			c-0.3,0.1-0.6,0.2-0.9,0.3h-0.1c-0.1,0-0.1,0.1-0.2,0.1c-0.3,0.1-0.6,0.3-0.9,0.4c-0.1,0.1-0.2,0.1-0.4,0.2
			c-0.4,0.2-0.8,0.4-1.3,0.7c-0.3,0.2-0.6,0.4-1,0.6c-0.1,0.1-0.2,0.1-0.3,0.2c-0.2,0.1-0.4,0.3-0.6,0.4c-0.1,0.1-0.2,0.2-0.4,0.2
			c-0.2,0.1-0.4,0.3-0.6,0.4c-0.1,0.1-0.2,0.2-0.4,0.3c-0.2,0.2-0.4,0.3-0.6,0.5c-0.1,0.1-0.2,0.2-0.3,0.3c-0.2,0.2-0.4,0.4-0.7,0.6
			c-0.1,0.1-0.2,0.1-0.2,0.2c-0.3,0.3-0.6,0.5-0.9,0.8c-0.1,0.1-0.1,0.1-0.2,0.2c-0.2,0.2-0.4,0.4-0.6,0.6l-0.1,0.1
			c-0.3,0.3-0.7,0.7-1,1c0,0,0,0-0.1,0.1c-0.3,0.3-0.6,0.7-0.9,1l-0.1,0.1l-0.1,0.1c-0.5,0.6-1,1.2-1.5,1.8c0,0,0,0,0,0.1l-0.1,0.1
			c-0.4,0.5-0.7,1-1.1,1.5c0,0.1-0.1,0.1-0.1,0.2c0,0,0,0,0,0.1c-0.3,0.5-0.7,1-1,1.5l-0.1,0.1c0,0.1-0.1,0.1-0.1,0.2
			c-0.3,0.4-0.5,0.8-0.8,1.3c0,0.1-0.1,0.1-0.1,0.2v0.1c-0.3,0.5-0.6,1-0.8,1.5c0,0,0,0.1-0.1,0.1c0,0.1-0.1,0.2-0.1,0.2
			c-0.2,0.4-0.4,0.8-0.6,1.2c0,0.1-0.1,0.2-0.1,0.2s0,0.1-0.1,0.2c-0.2,0.5-0.5,1-0.7,1.5c0,0.1,0,0.1-0.1,0.2
			c-0.2,0.5-0.4,0.9-0.6,1.4c0,0.1-0.1,0.2-0.1,0.2c0,0.1,0,0.1-0.1,0.2c-0.2,0.6-0.4,1.1-0.6,1.7v0.1c-0.2,0.6-0.4,1.1-0.5,1.7
			c0,0.1,0,0.1-0.1,0.2c0,0.1,0,0.1-0.1,0.2c0,0.2-0.1,0.3-0.1,0.5c-0.1,0.2-0.1,0.5-0.2,0.7c0,0.2-0.1,0.3-0.1,0.5
			c0,0.1-0.1,0.2-0.1,0.4c0,0.1,0,0.2,0,0.3c-0.1,0.3-0.1,0.5-0.2,0.8c0,0.2-0.1,0.4-0.1,0.5c0,0.3-0.1,0.5-0.1,0.8
			c0,0.1,0,0.3-0.1,0.4c0,0.1,0,0.1,0,0.2s0,0.2,0,0.4c0,0.3-0.1,0.5-0.1,0.8c0,0.1,0,0.3,0,0.4c0,0.3,0,0.5,0,0.8
			c0,0.1,0,0.2,0,0.3c0,0.4,0,0.7,0,1.1c0,6.3,2.2,10.7,5.8,12.8"/>
		<path class="st2" d="M362.6,443.5c11-6.4,20-1.3,20,11.4c0,12.7-8.9,28.1-19.9,34.4c-11,6.4-20,1.3-20-11.4
			C342.7,465.3,351.6,449.9,362.6,443.5z"/>
	</g>
</g>
</svg>
