<?xml version="1.0" encoding="utf-8"?>
<!-- Generator: Adobe Illustrator 22.1.0, SVG Export Plug-In . SVG Version: 6.00 Build 0)  -->
<svg version="1.1" id="Слой_1" xmlns="http://www.w3.org/2000/svg" xmlns:xlink="http://www.w3.org/1999/xlink" x="0px" y="0px"
	 viewBox="0 0 591.8 541.9" style="enable-background:new 0 0 591.8 541.9;" xml:space="preserve">
<style type="text/css">
	.st0{fill:#F1F9FD;}
	
		.st1{fill:none;stroke:#171A21;stroke-width:2;stroke-linecap:round;stroke-linejoin:round;stroke-miterlimit:10;stroke-dasharray:12,12;}
	.st2{fill:#FFFFFF;}
	.st3{fill:#FB7070;}
	.st4{fill:none;stroke:#171A21;stroke-width:2;stroke-linecap:round;stroke-linejoin:round;stroke-miterlimit:10;}
	.st5{fill:#FFD394;}
	.st6{fill:#2F58FF;}
	.st7{fill:none;stroke:#FB7070;stroke-width:2;stroke-linecap:round;stroke-linejoin:round;stroke-miterlimit:10;}
	.st8{fill:#A05F84;}
</style>
<path class="st0" d="M125,362.3c85.2-117.5,50.9-162.2,77.9-221.3C264.5,5.8,405.4,19,469.4,31.6c140.1,27.5,169.7,194.9,37.5,290.7
	c-116.4,84.4-70.7,164.8-225,203.6S76.7,428.8,125,362.3z"/>
<g>
	<g>
		<path class="st1" d="M521.6,184.3l-285,164.6"/>
		<path class="st1" d="M423.6,423.8l-45.1,26.1"/>
		<path class="st1" d="M423.6,423.8L82.5,225.6"/>
		<path class="st1" d="M521.6,184.3l-43.9-25.5"/>
		<path class="st2" d="M363.5,110.5l-1.5-11l24-8.5l44.5-4.5L482,91l13.5,5.5l6.5,8.5l-1.5,5.5L498,118l-5.5,8.5
			c-5.7,4-17.4,12.3-19,13.5c-2,1.5-28.5,11.5-31.5,11s-43.5-7.5-45-8c-1.2-0.4-12.2-8.8-17.5-13L363.5,110.5z"/>
		<path class="st2" d="M185,236l-1.5-18l4-4l39.5-10l98,1.5c15.5,1.8,46.8,5.6,48,6s7.8,8.2,11,12l-2,14c-1.7,6.7-5.1,20.2-5.5,21
			s-16.8,16.3-25,24l-35,29C284.7,306,220,295,216,295s-14-19.7-18.5-29.5L185,236z"/>
		<path class="st2" d="M245,466.5l4.5-11l21.5-3l42-11.5l68.5,6l19.5,8.5l3,15v9.5l-3,12.5L376.5,509c-13.5,4.3-40.7,13-41.5,13
			s-32.3-2.3-48-3.5l-29-17l-11.5-20L245,466.5z"/>
		<path class="st3" d="M140.7,185.8c0,0.4,0,0.7-0.1,1.1c0,0.3-0.1,0.6-0.1,0.9s-0.1,0.7-0.2,1c-0.1,0.3-0.1,0.6-0.2,0.9
			c-0.1,0.3-0.2,0.7-0.2,1c-0.1,0.3-0.2,0.6-0.3,0.9c-0.1,0.3-0.2,0.7-0.3,1c-0.1,0.3-0.2,0.6-0.3,0.9c-0.1,0.4-0.3,0.7-0.4,1.1
			c-0.1,0.3-0.3,0.6-0.4,0.9c-0.2,0.4-0.4,0.7-0.5,1c-0.2,0.4-0.4,0.7-0.6,1.1c-0.1,0.1-0.1,0.2-0.2,0.3c-0.3,0.5-0.7,1.1-1,1.6
			c-0.1,0.1-0.1,0.2-0.2,0.3c-0.4,0.5-0.8,1-1.2,1.6c-0.1,0.1-0.2,0.2-0.2,0.3c-0.4,0.4-0.7,0.9-1.1,1.3c-0.1,0.1-0.2,0.2-0.3,0.4
			c-0.5,0.5-1,1-1.5,1.5c-0.1,0.1-0.2,0.2-0.3,0.3c-0.4,0.4-0.8,0.7-1.2,1.1c-0.3,0.3-0.7,0.6-1,0.9c-0.3,0.3-0.6,0.5-1,0.8
			c-0.4,0.3-0.7,0.6-1.1,0.9c-0.3,0.3-0.7,0.5-1,0.8c-0.4,0.3-0.8,0.6-1.2,0.8c-0.4,0.3-0.7,0.5-1.1,0.8s-0.8,0.5-1.3,0.8
			c-0.5,0.3-1.1,0.7-1.6,1c-1,0.6-2.1,1.2-3.2,1.7c-0.3,0.2-0.6,0.3-1,0.5c-0.9,0.4-1.7,0.8-2.6,1.2c-0.3,0.1-0.6,0.3-0.9,0.4
			c-1.1,0.5-2.3,1-3.5,1.4c-0.2,0.1-0.4,0.1-0.6,0.2c-1,0.4-2,0.7-3,1.1c-0.4,0.1-0.8,0.3-1.3,0.4c-0.6,0.2-1.1,0.4-1.7,0.5
			c-0.5,0.1-1,0.3-1.4,0.4c-0.6,0.2-1.2,0.3-1.7,0.5c-0.5,0.1-1,0.3-1.5,0.4c-0.6,0.1-1.2,0.3-1.8,0.4c-0.5,0.1-1,0.2-1.5,0.3
			c-0.6,0.1-1.2,0.2-1.8,0.4c-0.5,0.1-0.9,0.2-1.4,0.3c-1.3,0.2-2.6,0.4-4,0.6c-0.2,0-0.4,0-0.6,0.1c-1.2,0.2-2.3,0.3-3.5,0.4
			c-0.4,0-0.9,0.1-1.3,0.1c-0.7,0.1-1.5,0.1-2.3,0.2c-0.5,0-0.9,0.1-1.4,0.1c-0.8,0-1.6,0.1-2.4,0.1c-0.4,0-0.9,0-1.3,0.1
			c-0.7,0-1.4,0-2,0c-0.5,0-1,0-1.4,0c-0.7,0-1.5,0-2.2,0c-0.4,0-0.9,0-1.3,0c-0.7,0-1.3,0-2-0.1c-0.5,0-0.9,0-1.4-0.1
			c-0.7,0-1.4-0.1-2.2-0.1c-0.4,0-0.8-0.1-1.2-0.1c-0.9-0.1-1.7-0.2-2.6-0.3c-0.3,0-0.5,0-0.8-0.1c-1.1-0.1-2.2-0.3-3.3-0.4
			c-0.2,0-0.3-0.1-0.5-0.1c-1-0.1-1.9-0.3-2.9-0.5c-0.4-0.1-0.8-0.1-1.2-0.2c-0.7-0.1-1.4-0.3-2.2-0.4c-0.4-0.1-0.7-0.2-1.1-0.2
			c-0.8-0.2-1.6-0.3-2.3-0.5c-0.4-0.1-0.9-0.2-1.3-0.3c-0.7-0.2-1.4-0.4-2.1-0.6c-0.4-0.1-0.8-0.2-1.2-0.3c-1.1-0.3-2.2-0.7-3.3-1
			c-0.2-0.1-0.4-0.1-0.6-0.2c-1.3-0.4-2.5-0.9-3.7-1.3c-0.5-0.2-1-0.4-1.5-0.6c-0.4-0.2-0.8-0.3-1.2-0.5c-0.5-0.2-1.1-0.5-1.6-0.7
			c-0.4-0.2-0.7-0.3-1.1-0.5c-0.6-0.3-1.2-0.6-1.7-0.9c-0.3-0.1-0.6-0.3-0.9-0.4c-0.9-0.4-1.7-0.9-2.5-1.4C7.9,205,1,194.6,1,184.1
			l-0.2,27.3c0,10.4,6.9,20.9,20.6,28.8c0.8,0.5,1.7,0.9,2.5,1.4c0.3,0.1,0.6,0.3,0.9,0.4c0.6,0.3,1.2,0.6,1.7,0.9
			c0.3,0.2,0.7,0.3,1.1,0.5c0.5,0.2,1.1,0.5,1.6,0.7c0.4,0.2,0.8,0.3,1.2,0.5c0.4,0.2,0.7,0.3,1.1,0.5c0.1,0,0.2,0.1,0.4,0.1
			c1.2,0.5,2.4,0.9,3.7,1.3c0.2,0.1,0.4,0.1,0.6,0.2c1.1,0.4,2.2,0.7,3.3,1c0.2,0.1,0.4,0.1,0.6,0.2c0.2,0.1,0.4,0.1,0.6,0.2
			c0.7,0.2,1.4,0.4,2.1,0.6c0.4,0.1,0.9,0.2,1.3,0.3c0.8,0.2,1.6,0.4,2.3,0.5c0.3,0.1,0.6,0.1,0.9,0.2c0.1,0,0.2,0,0.2,0
			c0.7,0.1,1.4,0.3,2.2,0.4c0.4,0.1,0.8,0.2,1.2,0.2c0.9,0.2,1.9,0.3,2.9,0.5c0.2,0,0.3,0.1,0.5,0.1c1.1,0.2,2.2,0.3,3.3,0.4
			c0.3,0,0.5,0,0.8,0.1c0.9,0.1,1.7,0.2,2.6,0.3c0,0,0,0,0.1,0c0.4,0,0.8,0.1,1.2,0.1c0.7,0.1,1.4,0.1,2.2,0.1c0.5,0,0.9,0,1.4,0.1
			c0.7,0,1.3,0.1,2,0.1c0.1,0,0.1,0,0.2,0c0.4,0,0.8,0,1.1,0c0.7,0,1.5,0,2.2,0c0.5,0,1,0,1.4,0c0.7,0,1.4,0,2,0c0.1,0,0.3,0,0.4,0
			c0.3,0,0.6,0,0.9,0c0.8,0,1.6-0.1,2.4-0.1c0.5,0,0.9-0.1,1.4-0.1c0.8-0.1,1.5-0.1,2.3-0.2c0.3,0,0.5,0,0.8-0.1
			c0.2,0,0.4,0,0.5-0.1c1.2-0.1,2.3-0.3,3.5-0.4c0.2,0,0.4,0,0.6-0.1c1.3-0.2,2.6-0.4,4-0.6c0.1,0,0.2,0,0.4-0.1
			c0.3-0.1,0.7-0.1,1-0.2c0.6-0.1,1.2-0.2,1.8-0.4c0.5-0.1,1-0.2,1.5-0.3c0.6-0.1,1.2-0.3,1.8-0.4c0.5-0.1,1-0.2,1.5-0.4
			c0.6-0.2,1.2-0.3,1.7-0.5c0.5-0.1,1-0.3,1.4-0.4c0.6-0.2,1.1-0.3,1.7-0.5c0.2-0.1,0.5-0.1,0.7-0.2c0.2-0.1,0.3-0.1,0.5-0.2
			c1-0.3,2-0.7,3-1.1c0.2-0.1,0.4-0.1,0.6-0.2c1.2-0.4,2.3-0.9,3.5-1.4c0.3-0.1,0.6-0.3,0.9-0.4c0.9-0.4,1.7-0.8,2.6-1.2
			c0.3-0.2,0.6-0.3,1-0.5c1.1-0.6,2.2-1.1,3.2-1.7c0.3-0.2,0.6-0.3,0.9-0.5s0.5-0.3,0.8-0.5c0.4-0.3,0.9-0.5,1.3-0.8
			c0.4-0.2,0.7-0.5,1.1-0.8s0.8-0.6,1.2-0.8c0.4-0.3,0.7-0.5,1-0.8c0.4-0.3,0.7-0.6,1.1-0.9c0.3-0.3,0.6-0.5,1-0.8
			c0.3-0.3,0.7-0.6,1-0.9c0.1-0.1,0.3-0.2,0.4-0.4c0.3-0.2,0.5-0.5,0.8-0.8c0.1-0.1,0.2-0.2,0.3-0.3c0.5-0.5,1-1,1.5-1.5
			c0.1-0.1,0.2-0.2,0.3-0.4c0.4-0.4,0.8-0.9,1.1-1.3c0.1-0.1,0.2-0.2,0.2-0.3l0.1-0.1c0.4-0.5,0.7-0.9,1.1-1.4
			c0.1-0.1,0.1-0.2,0.2-0.3c0.4-0.5,0.7-1.1,1-1.6c0.1-0.1,0.1-0.2,0.2-0.3c0.1-0.2,0.2-0.4,0.4-0.6c0.1-0.2,0.2-0.3,0.3-0.5
			c0.2-0.3,0.4-0.7,0.5-1c0.1-0.3,0.3-0.6,0.4-0.9c0.2-0.4,0.3-0.7,0.4-1.1c0.1-0.2,0.1-0.3,0.2-0.5c0.1-0.1,0.1-0.3,0.1-0.4
			c0.1-0.3,0.2-0.7,0.3-1c0.1-0.3,0.2-0.6,0.3-0.9c0.1-0.3,0.2-0.7,0.2-1c0-0.2,0.1-0.4,0.1-0.6c0-0.1,0-0.2,0.1-0.4
			c0.1-0.3,0.1-0.7,0.2-1c0-0.3,0.1-0.6,0.1-0.9c0-0.4,0.1-0.7,0.1-1.1c0-0.2,0-0.4,0-0.6s0-0.4,0-0.6l0.2-27.3
			C140.8,185,140.7,185.4,140.7,185.8z"/>
		<path class="st2" d="M1.6,189.6c-2.8-12,3.8-24.6,19.7-33.9c27.2-15.8,71.4-15.8,98.8,0c16.1,9.3,22.7,21.9,20,34"/>
		<path class="st4" d="M1.6,189.6c-2.8-12,3.8-24.6,19.7-33.9c27.2-15.8,71.4-15.8,98.8,0c16.1,9.3,22.7,21.9,20,34"/>
		<path class="st3" d="M74,158.6c2.4,0,4.3-2.4,4.2-5.4l-1-43.4c0-2.2-1.5-3.9-3.2-3.9s-3.2,1.7-3.2,3.9l-1,43.4
			C69.7,156.2,71.6,158.6,74,158.6z"/>
		<path class="st3" d="M19.1,173.3c0,0.1,0,0.2,0,0.3c0,0.1,0,0.2,0.1,0.3c0,0.1,0.1,0.2,0.1,0.3c0,0.1,0.1,0.2,0.1,0.2
			c0,0.1,0.1,0.2,0.1,0.3c0.1,0.1,0.2,0.3,0.3,0.4c0,0,0,0,0,0.1c0.1,0.1,0.2,0.3,0.3,0.4c0,0,0,0.1,0.1,0.1
			c0.1,0.1,0.3,0.3,0.4,0.4c0.1,0.1,0.2,0.2,0.3,0.3c0.1,0.1,0.2,0.2,0.3,0.2c0.1,0.1,0.2,0.2,0.4,0.2c0.1,0.1,0.2,0.2,0.4,0.2
			l33.7,19.6c0.3,0.2,0.6,0.3,1,0.5c0.1,0,0.2,0.1,0.3,0.1c0.3,0.1,0.5,0.2,0.8,0.3c0.1,0,0.2,0.1,0.3,0.1c0.2,0.1,0.3,0.1,0.5,0.1
			c0.1,0,0.3,0.1,0.4,0.1c0.2,0,0.4,0.1,0.6,0.1c0.1,0,0.3,0.1,0.4,0.1c0.4,0.1,0.8,0.1,1.2,0.2c0.1,0,0.2,0,0.4,0
			c0.2,0,0.5,0,0.7,0c0.1,0,0.3,0,0.4,0c0.2,0,0.4,0,0.6,0c0.2,0,0.3,0,0.5,0c0.2,0,0.3,0,0.5,0c0.2,0,0.3,0,0.5,0
			c0.2,0,0.3,0,0.5-0.1c0.2,0,0.3,0,0.5-0.1c0.2,0,0.4-0.1,0.5-0.1c0.1,0,0.3-0.1,0.4-0.1c0.2,0,0.4-0.1,0.6-0.2
			c0.1,0,0.2-0.1,0.3-0.1c0.4-0.1,0.7-0.2,1.1-0.4c0.2-0.1,0.3-0.1,0.5-0.2c0.1,0,0.2-0.1,0.3-0.1c0.3-0.1,0.5-0.3,0.7-0.4
			l53.9-31.1c2-1.2,3-2.7,3-4.2V177c0,1.5-1,3-3,4.2l-53.9,31.1c-0.2,0.1-0.5,0.3-0.7,0.4c-0.1,0-0.2,0.1-0.3,0.1
			c-0.2,0.1-0.3,0.1-0.5,0.2c0,0,0,0-0.1,0c-0.4,0.1-0.7,0.3-1.1,0.4h-0.1c-0.1,0-0.2,0-0.3,0.1c-0.2,0.1-0.4,0.1-0.6,0.2
			c-0.1,0-0.1,0-0.2,0c-0.1,0-0.2,0-0.3,0c-0.2,0-0.4,0.1-0.5,0.1s-0.1,0-0.2,0c-0.1,0-0.2,0-0.2,0c-0.2,0-0.3,0-0.5,0.1
			c-0.1,0-0.2,0-0.2,0c-0.1,0-0.2,0-0.2,0c-0.2,0-0.3,0-0.5,0c-0.1,0-0.2,0-0.3,0s-0.1,0-0.2,0c-0.2,0-0.4,0-0.6,0
			c-0.1,0-0.2,0-0.3,0c-0.1,0-0.1,0-0.2,0c-0.2,0-0.5,0-0.7,0c-0.1,0-0.2,0-0.3,0H61c-0.4,0-0.8-0.1-1.2-0.2c0,0,0,0-0.1,0
			c-0.1,0-0.2,0-0.3-0.1c-0.2,0-0.4-0.1-0.6-0.1c-0.1,0-0.3-0.1-0.4-0.1c-0.2,0-0.4-0.1-0.5-0.1h-0.1c-0.1,0-0.1,0-0.2-0.1
			c-0.3-0.1-0.5-0.2-0.8-0.3c-0.1,0-0.2-0.1-0.3-0.1c-0.3-0.1-0.7-0.3-1-0.5L22.1,193c0,0-0.1,0-0.1-0.1c-0.1-0.1-0.2-0.1-0.3-0.2
			c-0.1-0.1-0.3-0.2-0.4-0.2c-0.1-0.1-0.2-0.1-0.3-0.2c-0.1-0.1-0.2-0.2-0.3-0.3c0,0,0,0-0.1-0.1c-0.1-0.1-0.3-0.2-0.4-0.4
			c0,0,0-0.1-0.1-0.1c-0.1-0.1-0.1-0.2-0.2-0.2c0-0.1-0.1-0.1-0.1-0.2c0,0,0,0,0-0.1c-0.1-0.1-0.2-0.2-0.2-0.4v-0.1
			c-0.1-0.1-0.1-0.2-0.1-0.3c0-0.1-0.1-0.1-0.1-0.2c0,0,0,0,0-0.1c0-0.1-0.1-0.2-0.1-0.3s0-0.1-0.1-0.2c0,0,0,0,0-0.1
			c0-0.1,0-0.2,0-0.3c0-0.1,0-0.1,0-0.2v-0.1v-15.9C19.1,173.1,19.1,173.2,19.1,173.3z"/>
		<path class="st5" d="M22.1,168.8c-4,2.3-4,6,0,8.3l33.7,19.6c4,2.3,10.4,2.3,14.4,0l53.9-31.1c4-2.3,4-6,0-8.3l-33.7-19.6
			c-4-2.3-10.4-2.3-14.4,0L22.1,168.8z"/>
		<path class="st4" d="M124.1,181.5c2-1.2,3-2.7,3-4.2v-15.9c0-1.5-1-3-3-4.2l-33.7-19.6c-4-2.3-10.4-2.3-14.4,0l-53.9,31.1
			c-2.1,1.2-3.1,2.9-3,4.5c0-0.1,0-0.2,0-0.3v15.9v0.1c0,0.1,0,0.1,0,0.2c0,0.1,0,0.2,0,0.3c0,0,0,0,0,0.1s0,0.1,0.1,0.2
			c0,0.1,0.1,0.2,0.1,0.3c0,0,0,0,0,0.1c0,0.1,0.1,0.1,0.1,0.2c0,0.1,0.1,0.2,0.1,0.3v0.1c0.1,0.1,0.1,0.2,0.2,0.4c0,0,0,0,0,0.1
			c0,0.1,0.1,0.1,0.1,0.2c0.1,0.1,0.1,0.2,0.2,0.2c0,0,0,0.1,0.1,0.1c0.1,0.1,0.2,0.2,0.4,0.4c0,0,0,0,0.1,0.1
			c0.1,0.1,0.2,0.2,0.3,0.3"/>
		<path class="st3" d="M78.2,166.3c1.9-1.1,4.9-1.1,6.7,0c1.9,1.1,1.8,2.8,0,3.9c-1.9,1.1-4.9,1.1-6.7,0
			C76.3,169.1,76.3,167.4,78.2,166.3z"/>
		<path class="st3" d="M70,161.8c2.8-1.6,6.7-2.6,11-2.6h1h1.3c1.6,0,3,0.8,3,1.7c0,0.5-0.3,0.9-0.9,1.2c-0.5,0.3-1.3,0.5-2.1,0.5
			H81c-2.6,0-5,0.6-6.8,1.6c-1.7,1-2.8,2.4-2.8,3.9v1c0,0.5-0.3,0.9-0.9,1.2c-0.5,0.3-1.3,0.5-2.1,0.5c-0.8,0-1.5-0.2-2.1-0.5
			c-0.6-0.3-0.9-0.8-0.9-1.2v-1c0-0.1,0-0.1,0-0.2v-0.2v-0.1C65.7,165.4,67.4,163.4,70,161.8z"/>
		<path class="st3" d="M63.2,157.7c4.6-2.6,10.9-4.3,17.8-4.4c0.1,0,0.1,0,0.2,0h2.5c1.5,0,2.7,0.7,2.7,1.6c0,0.4-0.3,0.8-0.8,1.1
			s-1.2,0.5-1.9,0.5h-2.5h-0.1c-5.5,0.1-10.5,1.4-14.1,3.5s-5.9,4.9-6,8v1.1c0,0.4-0.3,0.8-0.8,1.1s-1.2,0.5-1.9,0.5
			c-1.5,0-2.7-0.7-2.7-1.6v-0.8v-0.6c0-0.1,0-0.2,0.1-0.3C56,163.6,58.9,160.2,63.2,157.7z"/>
		<path class="st3" d="M501.8,100.6c0,0.4,0,0.7-0.1,1.1c0,0.3-0.1,0.6-0.1,0.9c0,0.3-0.1,0.7-0.2,1c-0.1,0.3-0.1,0.6-0.2,0.9
			c-0.1,0.3-0.2,0.7-0.2,1c-0.1,0.3-0.2,0.6-0.3,0.9c-0.1,0.3-0.2,0.7-0.3,1c-0.1,0.3-0.2,0.6-0.3,0.9c-0.1,0.4-0.3,0.7-0.4,1.1
			c-0.1,0.3-0.3,0.6-0.4,0.9c-0.2,0.4-0.4,0.7-0.5,1c-0.2,0.4-0.4,0.7-0.6,1.1c-0.1,0.1-0.1,0.2-0.2,0.3c-0.3,0.5-0.7,1.1-1,1.6
			c-0.1,0.1-0.1,0.2-0.2,0.3c-0.4,0.5-0.8,1-1.2,1.6c-0.1,0.1-0.2,0.2-0.2,0.3c-0.4,0.4-0.7,0.9-1.1,1.3c-0.1,0.1-0.2,0.2-0.3,0.4
			c-0.5,0.5-1,1-1.5,1.5c-0.1,0.1-0.2,0.2-0.3,0.3c-0.4,0.4-0.8,0.7-1.2,1.1c-0.3,0.3-0.7,0.6-1,0.9s-0.6,0.5-1,0.8
			c-0.4,0.3-0.7,0.6-1.1,0.9c-0.3,0.3-0.7,0.5-1,0.8c-0.4,0.3-0.8,0.6-1.2,0.8c-0.4,0.3-0.7,0.5-1.1,0.8c-0.4,0.3-0.8,0.5-1.3,0.8
			c-0.5,0.3-1.1,0.7-1.6,1c-1,0.6-2.1,1.2-3.2,1.7c-0.3,0.2-0.6,0.3-1,0.5c-0.9,0.4-1.7,0.8-2.6,1.2c-0.3,0.1-0.6,0.3-0.9,0.4
			c-1.1,0.5-2.3,1-3.5,1.4c-0.2,0.1-0.4,0.1-0.6,0.2c-1,0.4-2,0.7-3,1.1c-0.4,0.1-0.8,0.3-1.3,0.4c-0.6,0.2-1.1,0.4-1.7,0.5
			c-0.5,0.1-1,0.3-1.4,0.4c-0.6,0.2-1.2,0.3-1.7,0.5c-0.5,0.1-1,0.3-1.5,0.4c-0.6,0.1-1.2,0.3-1.8,0.4c-0.5,0.1-1,0.2-1.5,0.3
			c-0.6,0.1-1.2,0.2-1.8,0.4c-0.5,0.1-0.9,0.2-1.4,0.3c-1.3,0.2-2.6,0.4-4,0.6c-0.2,0-0.4,0-0.6,0.1c-1.2,0.2-2.3,0.3-3.5,0.4
			c-0.4,0-0.9,0.1-1.3,0.1c-0.7,0.1-1.5,0.1-2.3,0.2c-0.5,0-0.9,0.1-1.4,0.1c-0.8,0-1.6,0.1-2.4,0.1c-0.4,0-0.9,0-1.3,0.1
			c-0.7,0-1.4,0-2,0c-0.5,0-1,0-1.4,0c-0.7,0-1.5,0-2.2,0c-0.4,0-0.9,0-1.3,0c-0.7,0-1.3,0-2-0.1c-0.5,0-0.9,0-1.4-0.1
			c-0.7,0-1.4-0.1-2.2-0.1c-0.4,0-0.8-0.1-1.2-0.1c-0.9-0.1-1.7-0.2-2.6-0.3c-0.3,0-0.5,0-0.8-0.1c-1.1-0.1-2.2-0.3-3.3-0.4
			c-0.2,0-0.3-0.1-0.5-0.1c-1-0.1-1.9-0.3-2.9-0.5c-0.4-0.1-0.8-0.1-1.2-0.2c-0.7-0.1-1.4-0.3-2.2-0.4c-0.4-0.1-0.7-0.2-1.1-0.2
			c-0.8-0.2-1.6-0.3-2.3-0.5c-0.4-0.1-0.9-0.2-1.3-0.3c-0.7-0.2-1.4-0.4-2.1-0.6c-0.4-0.1-0.8-0.2-1.2-0.3c-1.1-0.3-2.2-0.7-3.3-1
			c-0.2-0.1-0.4-0.1-0.6-0.2c-1.3-0.4-2.5-0.9-3.7-1.3c-0.5-0.2-1-0.4-1.5-0.6c-0.4-0.2-0.8-0.3-1.2-0.5c-0.5-0.2-1.1-0.5-1.6-0.7
			c-0.4-0.2-0.7-0.3-1.1-0.5c-0.6-0.3-1.2-0.6-1.7-0.9c-0.3-0.1-0.6-0.3-0.9-0.4c-0.9-0.4-1.7-0.9-2.5-1.4
			c-13.8-8-20.7-18.4-20.6-28.8l-0.2,27.3c0,10.4,6.9,20.9,20.6,28.8c0.8,0.5,1.7,0.9,2.5,1.4c0.3,0.1,0.6,0.3,0.9,0.4
			c0.6,0.3,1.2,0.6,1.7,0.9c0.3,0.2,0.7,0.3,1.1,0.5c0.5,0.2,1.1,0.5,1.6,0.7c0.4,0.2,0.8,0.3,1.2,0.5c0.4,0.2,0.7,0.3,1.1,0.5
			c0.1,0,0.2,0.1,0.4,0.1c1.2,0.5,2.4,0.9,3.7,1.3c0.2,0.1,0.4,0.1,0.6,0.2c1.1,0.4,2.2,0.7,3.3,1c0.2,0.1,0.4,0.1,0.6,0.2
			c0.2,0.1,0.4,0.1,0.6,0.2c0.7,0.2,1.4,0.4,2.1,0.6c0.4,0.1,0.9,0.2,1.3,0.3c0.8,0.2,1.6,0.4,2.3,0.5c0.3,0.1,0.6,0.1,0.9,0.2
			c0.1,0,0.2,0,0.2,0c0.7,0.1,1.4,0.3,2.2,0.4c0.4,0.1,0.8,0.2,1.2,0.2c0.9,0.2,1.9,0.3,2.9,0.5c0.2,0,0.3,0.1,0.5,0.1
			c1.1,0.2,2.2,0.3,3.3,0.4c0.3,0,0.5,0,0.8,0.1c0.9,0.1,1.7,0.2,2.6,0.3c0,0,0,0,0.1,0c0.4,0,0.8,0.1,1.2,0.1
			c0.7,0.1,1.4,0.1,2.2,0.1c0.5,0,0.9,0,1.4,0.1c0.7,0,1.3,0.1,2,0.1c0.1,0,0.1,0,0.2,0c0.4,0,0.8,0,1.1,0c0.7,0,1.5,0,2.2,0
			c0.5,0,1,0,1.4,0c0.7,0,1.4,0,2,0c0.1,0,0.3,0,0.4,0c0.3,0,0.6,0,0.9,0c0.8,0,1.6-0.1,2.4-0.1c0.5,0,0.9-0.1,1.4-0.1
			c0.8-0.1,1.5-0.1,2.3-0.2c0.3,0,0.5,0,0.8-0.1c0.2,0,0.4,0,0.5-0.1c1.2-0.1,2.3-0.3,3.5-0.4c0.2,0,0.4,0,0.6-0.1
			c1.3-0.2,2.6-0.4,4-0.6c0.1,0,0.2,0,0.4-0.1c0.3-0.1,0.7-0.1,1-0.2c0.6-0.1,1.2-0.2,1.8-0.4c0.5-0.1,1-0.2,1.5-0.3
			c0.6-0.1,1.2-0.3,1.8-0.4c0.5-0.1,1-0.2,1.5-0.4c0.6-0.2,1.2-0.3,1.7-0.5c0.5-0.1,1-0.3,1.4-0.4c0.6-0.2,1.1-0.3,1.7-0.5
			c0.2-0.1,0.5-0.1,0.7-0.2c0.2-0.1,0.3-0.1,0.5-0.2c1-0.3,2-0.7,3-1.1c0.2-0.1,0.4-0.1,0.6-0.2c1.2-0.4,2.3-0.9,3.5-1.4
			c0.3-0.1,0.6-0.3,0.9-0.4c0.9-0.4,1.7-0.8,2.6-1.2c0.3-0.2,0.6-0.3,1-0.5c1.1-0.6,2.2-1.1,3.2-1.7c0.3-0.2,0.6-0.3,0.9-0.5
			c0.3-0.2,0.5-0.3,0.8-0.5c0.4-0.3,0.9-0.5,1.3-0.8c0.4-0.2,0.7-0.5,1.1-0.8s0.8-0.6,1.2-0.8c0.4-0.3,0.7-0.5,1-0.8
			c0.4-0.3,0.7-0.6,1.1-0.9c0.3-0.3,0.6-0.5,1-0.8c0.3-0.3,0.7-0.6,1-0.9c0.1-0.1,0.3-0.2,0.4-0.4c0.3-0.2,0.5-0.5,0.8-0.8
			c0.1-0.1,0.2-0.2,0.3-0.3c0.5-0.5,1-1,1.5-1.5c0.1-0.1,0.2-0.2,0.3-0.4c0.4-0.4,0.8-0.9,1.1-1.3c0.1-0.1,0.2-0.2,0.2-0.3l0.1-0.1
			c0.4-0.5,0.7-0.9,1.1-1.4c0.1-0.1,0.1-0.2,0.2-0.3c0.4-0.5,0.7-1.1,1-1.6c0.1-0.1,0.1-0.2,0.2-0.3c0.1-0.2,0.2-0.4,0.4-0.6
			c0.1-0.2,0.2-0.3,0.3-0.5c0.2-0.3,0.4-0.7,0.5-1c0.1-0.3,0.3-0.6,0.4-0.9c0.2-0.4,0.3-0.7,0.4-1.1c0.1-0.2,0.1-0.3,0.2-0.5
			c0.1-0.1,0.1-0.3,0.1-0.4c0.1-0.3,0.2-0.7,0.3-1c0.1-0.3,0.2-0.6,0.3-0.9c0.1-0.3,0.2-0.7,0.2-1c0-0.2,0.1-0.4,0.1-0.6
			c0-0.1,0-0.2,0.1-0.4c0.1-0.3,0.1-0.7,0.2-1c0-0.3,0.1-0.6,0.1-0.9c0-0.4,0.1-0.7,0.1-1.1c0-0.2,0-0.4,0-0.6c0-0.2,0-0.4,0-0.6
			l0.2-27.3C501.9,99.8,501.9,100.2,501.8,100.6z"/>
		<path class="st2" d="M362.7,104.4c-2.8-12,3.8-24.6,19.7-33.9c27.2-15.8,71.4-15.8,98.8,0c16.1,9.3,22.7,21.9,20,34"/>
		<path class="st4" d="M362.7,104.4c-2.8-12,3.8-24.6,19.7-33.9c27.2-15.8,71.4-15.8,98.8,0c16.1,9.3,22.7,21.9,20,34"/>
		<path class="st3" d="M474.5,79.9c0-0.1,0-0.2,0-0.2c0-0.2,0-0.3,0-0.5c0-0.2,0-0.4,0-0.6c0-0.2,0-0.3,0-0.5c0-0.2,0-0.4,0-0.5
			c0-0.1,0-0.2,0-0.3c0-0.3-0.1-0.5-0.1-0.8c0-0.1,0-0.3,0-0.4V76c-0.1-0.5-0.1-0.9-0.2-1.4c0-0.1,0-0.1,0-0.2
			c-0.1-0.4-0.1-0.8-0.2-1.2c0-0.1,0-0.1,0-0.2c0-0.2-0.1-0.4-0.1-0.5c0-0.2-0.1-0.4-0.1-0.7c0-0.1-0.1-0.2-0.1-0.4
			s-0.1-0.4-0.1-0.6c0-0.2-0.1-0.3-0.1-0.5c0-0.2-0.1-0.4-0.1-0.6c-0.1-0.2-0.1-0.4-0.2-0.6c0-0.1-0.1-0.2-0.1-0.3
			c-0.1-0.3-0.2-0.5-0.2-0.8c-0.1-0.2-0.1-0.3-0.1-0.5v-0.1c-0.1-0.5-0.3-0.9-0.5-1.4v-0.1c-0.1-0.4-0.3-0.8-0.4-1.3
			c0-0.1,0-0.1-0.1-0.2c-0.1-0.2-0.1-0.3-0.2-0.5c-0.1-0.2-0.2-0.4-0.3-0.7c-0.1-0.1-0.1-0.3-0.2-0.4c-0.1-0.2-0.1-0.3-0.2-0.5
			c-0.1-0.1-0.1-0.3-0.2-0.4c-0.1-0.3-0.2-0.5-0.3-0.8c-0.1-0.1-0.1-0.3-0.2-0.4c0,0,0-0.1-0.1-0.1c-0.2-0.4-0.4-0.9-0.6-1.3
			c0,0,0,0,0-0.1c-0.1-0.1-0.1-0.3-0.2-0.4c-0.2-0.3-0.3-0.7-0.5-1c0-0.1-0.1-0.1-0.1-0.2c-0.1-0.3-0.3-0.5-0.4-0.8
			c-0.1-0.2-0.2-0.4-0.3-0.7c0,0,0-0.1-0.1-0.1c-0.4-0.7-0.8-1.4-1.2-2.1c0-0.1-0.1-0.1-0.1-0.2c-0.1-0.2-0.2-0.4-0.3-0.5
			c-0.2-0.3-0.3-0.6-0.5-0.9c-0.2-0.3-0.3-0.5-0.5-0.8c-0.2-0.3-0.4-0.6-0.5-0.8c-0.1-0.1-0.1-0.2-0.2-0.3c-0.1-0.1-0.1-0.2-0.2-0.3
			c-0.5-0.7-1-1.5-1.6-2.2c-0.4-0.5-0.8-1-1.2-1.5c0,0,0,0-0.1-0.1c-0.3-0.4-0.6-0.7-0.9-1.1c-0.1-0.1-0.1-0.1-0.2-0.2
			c-0.3-0.4-0.7-0.8-1.1-1.2c0,0,0,0-0.1-0.1c-0.1-0.1-0.2-0.2-0.3-0.4c-0.2-0.3-0.5-0.5-0.7-0.8l-0.1-0.1c-0.2-0.2-0.3-0.3-0.5-0.5
			c-0.2-0.2-0.3-0.4-0.5-0.5c-0.1-0.1-0.1-0.1-0.2-0.2c-0.2-0.2-0.3-0.3-0.5-0.5c-0.1-0.1-0.3-0.3-0.4-0.4c-0.1-0.1-0.2-0.2-0.3-0.2
			c-0.2-0.2-0.4-0.3-0.6-0.5c-0.1-0.1-0.3-0.2-0.4-0.4c-0.1-0.1-0.2-0.2-0.3-0.3c-0.2-0.2-0.4-0.3-0.6-0.5c-0.1-0.1-0.2-0.2-0.3-0.3
			c-0.1-0.1-0.3-0.2-0.4-0.3c-0.2-0.2-0.4-0.3-0.6-0.5c-0.1-0.1-0.2-0.2-0.3-0.2c-0.2-0.1-0.3-0.2-0.5-0.4c-0.2-0.1-0.3-0.3-0.5-0.4
			c-0.1-0.1-0.1-0.1-0.2-0.2c-0.2-0.2-0.4-0.3-0.6-0.5c-0.1-0.1-0.3-0.2-0.4-0.3l-0.1-0.1c-0.4-0.3-0.8-0.5-1.2-0.8
			c0,0-0.1,0-0.1-0.1c-0.4-0.2-0.7-0.4-1.1-0.7c-0.1-0.1-0.2-0.1-0.3-0.2c-0.3-0.2-0.6-0.3-0.9-0.5c-0.1-0.1-0.2-0.1-0.3-0.2
			s-0.3-0.2-0.4-0.2c-0.1-0.1-0.2-0.1-0.3-0.2c-0.2-0.1-0.4-0.2-0.5-0.3c-0.1-0.1-0.3-0.1-0.4-0.2c-0.1,0-0.1-0.1-0.2-0.1
			c-0.4-0.2-0.7-0.3-1.1-0.5c-0.4-0.1-0.7-0.3-1.1-0.4h-0.1c-0.1,0-0.3-0.1-0.4-0.1c-0.2-0.1-0.4-0.1-0.6-0.2c-0.1,0-0.2,0-0.3-0.1
			c-0.2,0-0.3-0.1-0.5-0.1c-0.1,0-0.3-0.1-0.4-0.1c-0.1,0-0.3-0.1-0.4-0.1c-0.2,0-0.3-0.1-0.5-0.1c-0.1,0-0.2,0-0.3-0.1
			c-0.2,0-0.3,0-0.4-0.1c-0.2,0-0.4-0.1-0.6-0.1c-0.1,0-0.1,0-0.2,0c-0.2,0-0.3,0-0.5,0c-0.2,0-0.4,0-0.6-0.1c-0.1,0-0.1,0-0.2,0
			s-0.3,0-0.4,0c-0.2,0-0.5,0-0.7,0c-0.1,0-0.1,0-0.2,0c-0.1,0-0.2,0-0.3,0c-0.3,0-0.6,0-0.9,0c-0.1,0-0.2,0-0.3,0
			c-0.1,0-0.2,0-0.4,0c-0.1,0-0.2,0-0.3,0c-0.3,0-0.6,0.1-1,0.2c-0.1,0-0.2,0-0.3,0.1c-0.3,0.1-0.5,0.1-0.8,0.2
			c-0.1,0-0.2,0.1-0.4,0.1c-0.2,0.1-0.3,0.1-0.5,0.2h-0.1c-0.2,0.1-0.5,0.2-0.7,0.3c-0.1,0.1-0.2,0.1-0.4,0.1
			c-0.3,0.2-0.7,0.3-1,0.5L399,48.7c0.3-0.2,0.7-0.4,1-0.5c0.1-0.1,0.2-0.1,0.4-0.1c0.2-0.1,0.5-0.2,0.7-0.3
			c0.2-0.1,0.4-0.1,0.6-0.2c0.1,0,0.2-0.1,0.4-0.1c0.3-0.1,0.5-0.1,0.8-0.2c0.1,0,0.2,0,0.3-0.1c0.3-0.1,0.7-0.1,1-0.2
			c0.1,0,0.2,0,0.3,0c0.2,0,0.4,0,0.6-0.1c0.3,0,0.6,0,0.9,0c0.2,0,0.3,0,0.5,0s0.5,0,0.7,0c0.2,0,0.4,0,0.6,0c0.2,0,0.4,0,0.6,0.1
			c0.2,0,0.4,0,0.6,0.1c0.2,0,0.4,0.1,0.6,0.1c0.2,0,0.5,0.1,0.7,0.1c0.2,0,0.3,0.1,0.5,0.1c0.3,0.1,0.5,0.1,0.8,0.2
			c0.2,0,0.3,0.1,0.5,0.1c0.3,0.1,0.6,0.2,0.8,0.3c0.1,0,0.3,0.1,0.4,0.1c0.4,0.1,0.8,0.3,1.2,0.5c0.4,0.2,0.8,0.3,1.2,0.5
			c0.1,0.1,0.3,0.1,0.4,0.2c0.3,0.1,0.6,0.3,0.9,0.4c0.1,0.1,0.3,0.2,0.4,0.2c0.4,0.2,0.8,0.4,1.2,0.7c0.4,0.3,0.9,0.5,1.3,0.8
			c0,0,0.1,0,0.1,0.1c0.4,0.3,0.9,0.6,1.3,0.9c0.1,0.1,0.3,0.2,0.4,0.3c0.3,0.2,0.6,0.4,0.9,0.6c0.2,0.1,0.3,0.3,0.5,0.4
			c0.3,0.2,0.5,0.4,0.8,0.6c0.2,0.1,0.4,0.3,0.6,0.5c0.2,0.2,0.5,0.4,0.7,0.6c0.2,0.2,0.4,0.3,0.6,0.5c0.2,0.2,0.5,0.4,0.7,0.6
			s0.4,0.3,0.6,0.5c0.2,0.2,0.5,0.4,0.7,0.7c0.2,0.2,0.3,0.3,0.5,0.5c0.2,0.2,0.5,0.5,0.7,0.7s0.3,0.3,0.5,0.5
			c0.3,0.3,0.5,0.6,0.8,0.9c0.1,0.1,0.2,0.2,0.3,0.4c0.4,0.4,0.8,0.9,1.1,1.3c0.1,0.1,0.1,0.1,0.2,0.2c0.3,0.4,0.6,0.8,0.9,1.1
			c0.4,0.5,0.8,1,1.2,1.5l0.8,1c0.1,0.2,0.2,0.3,0.3,0.5c0.2,0.4,0.5,0.8,0.8,1.2c0.2,0.3,0.4,0.6,0.5,0.8c0.2,0.3,0.3,0.5,0.5,0.8
			c0.2,0.3,0.3,0.6,0.5,0.9c0.1,0.2,0.3,0.5,0.4,0.7c0.4,0.7,0.8,1.4,1.2,2.1c0.1,0.3,0.3,0.5,0.4,0.8c0.1,0.3,0.3,0.5,0.4,0.8
			c0.2,0.4,0.4,0.8,0.6,1.2c0.1,0.1,0.1,0.3,0.2,0.4c0.2,0.5,0.5,1,0.7,1.5c0.1,0.1,0.1,0.3,0.2,0.4c0.2,0.4,0.3,0.8,0.5,1.1
			c0.1,0.2,0.1,0.3,0.2,0.5c0.1,0.4,0.3,0.7,0.4,1.1c0.1,0.2,0.1,0.3,0.2,0.5c0.2,0.5,0.3,1,0.5,1.5v0.1c0.2,0.5,0.3,1.1,0.5,1.6
			c0.1,0.2,0.1,0.3,0.1,0.5c0.1,0.4,0.2,0.7,0.3,1.1c0.1,0.2,0.1,0.4,0.2,0.6c0.1,0.3,0.2,0.7,0.3,1c0,0.2,0.1,0.4,0.1,0.6
			c0.1,0.3,0.2,0.7,0.2,1c0,0.2,0.1,0.4,0.1,0.5c0.1,0.5,0.2,0.9,0.2,1.4c0,0.1,0,0.1,0,0.2c0.1,0.5,0.2,1,0.2,1.6
			c0,0.1,0,0.3,0,0.4c0,0.4,0.1,0.7,0.1,1.1c0,0.2,0,0.4,0,0.5c0,0.3,0,0.7,0.1,1c0,0.2,0,0.3,0,0.5c0,0.5,0,1,0,1.5l-10.3,16.7
			l5.7,3.3c2.8,1.6,6.2,1.6,8.9,0l21.5-12.5c1.7-1,2.8-2.8,2.8-4.8l0.1-19.4C474.5,80.8,474.5,80.3,474.5,79.9z"/>
		<path class="st5" d="M418.4,50.6c15.1,8.7,27.3,29.9,27.3,47.3v16.8c0,2.6-2.8,4.2-5,2.9l-48.1-27.8c-1-0.6-1.7-1.7-1.7-2.9
			l0.1-20.6C391,48.9,403.3,41.9,418.4,50.6z"/>
		<path class="st3" d="M417,63.9c-7-4.1-12.8-0.8-12.8,7.3s5.7,17.9,12.7,22c7,4.1,12.8,0.8,12.8-7.3C429.8,77.8,424.1,68,417,63.9z
			"/>
		<path class="st5" d="M417.1,67.7c-0.3-0.2-0.6-0.1-0.7,0.5l-1,12.1c0,0.2,0.1,0.5,0.3,0.6l2.9,1.7c0.2,0.1,0.3,0,0.3-0.3l-1-13.3
			C417.8,68.4,417.4,67.9,417.1,67.7z"/>
		<path class="st2" d="M437.5,8.3L405,19.2l22,23.9l33.9-9.2L459,14.1L437.5,8.3z"/>
		<path class="st6" d="M410.8,29.9c0-0.1,0-0.2,0-0.3c0-0.1,0-0.2,0.1-0.4c0-0.1,0-0.2,0.1-0.3c0-0.1,0.1-0.2,0.1-0.3
			c0-0.1,0.1-0.2,0.1-0.3s0.1-0.2,0.1-0.3c0-0.1,0.1-0.2,0.1-0.3s0.1-0.2,0.2-0.4c0-0.1,0.1-0.2,0.1-0.3c0.1-0.1,0.1-0.2,0.2-0.4
			c0.1-0.1,0.1-0.2,0.2-0.3s0.2-0.3,0.3-0.4s0.1-0.2,0.2-0.3c0.1-0.2,0.2-0.3,0.3-0.5C413,25,413,25,413,24.9
			c0.2-0.2,0.4-0.5,0.6-0.7c0.1-0.1,0.1-0.1,0.2-0.2c0.2-0.2,0.4-0.4,0.5-0.5c0.1-0.1,0.2-0.2,0.3-0.2c0.1-0.1,0.2-0.2,0.3-0.3
			c0.1-0.1,0.2-0.2,0.3-0.3c0.1-0.1,0.2-0.2,0.4-0.3c0.1-0.1,0.2-0.2,0.4-0.3c0.1-0.1,0.3-0.2,0.4-0.3s0.2-0.2,0.4-0.3
			c0.1-0.1,0.3-0.2,0.4-0.3c0.2-0.1,0.4-0.2,0.5-0.3c0.4-0.2,0.7-0.4,1.1-0.6c0.1-0.1,0.2-0.1,0.3-0.2c0.3-0.1,0.6-0.3,0.9-0.4
			c0.1,0,0.2-0.1,0.3-0.1c0.4-0.2,0.8-0.3,1.2-0.5c0.1,0,0.1-0.1,0.2-0.1c0.3-0.1,0.7-0.2,1-0.4c0.1,0,0.3-0.1,0.4-0.1
			c0.2-0.1,0.4-0.1,0.6-0.2c0.2,0,0.3-0.1,0.5-0.1c0.2-0.1,0.4-0.1,0.6-0.2c0.2,0,0.3-0.1,0.5-0.1c0.2,0,0.4-0.1,0.6-0.1
			c0.2,0,0.3-0.1,0.5-0.1c0.2,0,0.4-0.1,0.6-0.1s0.3-0.1,0.5-0.1c0.4-0.1,0.9-0.2,1.3-0.2c0.1,0,0.1,0,0.2,0
			c0.4-0.1,0.8-0.1,1.2-0.1c0.2,0,0.3,0,0.5,0c0.3,0,0.5,0,0.8-0.1c0.2,0,0.3,0,0.5,0c0.3,0,0.5,0,0.8,0c0.2,0,0.3,0,0.5,0
			c0.2,0,0.5,0,0.7,0s0.3,0,0.5,0s0.5,0,0.7,0c0.1,0,0.3,0,0.4,0c0.2,0,0.5,0,0.7,0c0.2,0,0.3,0,0.5,0c0.2,0,0.5,0,0.7,0.1
			c0.1,0,0.3,0,0.4,0c0.3,0,0.6,0.1,0.9,0.1c0.1,0,0.2,0,0.2,0c0.4,0,0.8,0.1,1.1,0.1c0.1,0,0.1,0,0.2,0c0.3,0,0.6,0.1,1,0.2
			c0.1,0,0.3,0.1,0.4,0.1c0.2,0,0.5,0.1,0.7,0.1c0.1,0,0.3,0.1,0.4,0.1c0.3,0.1,0.5,0.1,0.8,0.2c0.1,0,0.3,0.1,0.4,0.1
			c0.2,0.1,0.5,0.1,0.7,0.2c0.1,0,0.3,0.1,0.4,0.1c0.4,0.1,0.8,0.2,1.1,0.3c0.1,0,0.1,0,0.2,0.1c0.4,0.1,0.8,0.3,1.3,0.5
			c0.2,0.1,0.3,0.1,0.5,0.2c0.1,0.1,0.3,0.1,0.4,0.2c0.2,0.1,0.4,0.2,0.6,0.2c0.1,0.1,0.2,0.1,0.4,0.2c0.2,0.1,0.4,0.2,0.6,0.3
			c0.1,0,0.2,0.1,0.3,0.1c0.3,0.2,0.6,0.3,0.9,0.5c4.7,2.7,7,6.2,7,9.8V19.8c0-3.5-2.3-7.1-7-9.8c-0.3-0.2-0.6-0.3-0.9-0.5
			c-0.1,0-0.2-0.1-0.3-0.1c-0.2-0.1-0.4-0.2-0.6-0.3c-0.1-0.1-0.2-0.1-0.4-0.2c-0.2-0.1-0.4-0.2-0.6-0.2c-0.1-0.1-0.3-0.1-0.4-0.2
			c-0.1-0.1-0.3-0.1-0.4-0.2h-0.1c-0.4-0.2-0.8-0.3-1.3-0.5c-0.1,0-0.1,0-0.2-0.1c-0.4-0.1-0.7-0.2-1.1-0.3c-0.1,0-0.1,0-0.2-0.1
			c-0.1,0-0.1,0-0.2-0.1C444.5,7.1,444.2,7,444,7c-0.1,0-0.3-0.1-0.4-0.1c-0.3-0.1-0.5-0.1-0.8-0.2c-0.1,0-0.2,0-0.3-0.1h-0.1
			c-0.2,0-0.5-0.1-0.7-0.1c-0.1,0-0.3-0.1-0.4-0.1c-0.3-0.1-0.6-0.1-1-0.2c-0.1,0-0.1,0-0.2,0c-0.4-0.1-0.8-0.1-1.1-0.1
			c-0.1,0-0.2,0-0.3,0c-0.3,0-0.6-0.1-0.9-0.1c-0.1,0-0.3,0-0.4,0c-0.2,0-0.5,0-0.7-0.1c-0.2,0-0.3,0-0.5,0c-0.2,0-0.5,0-0.7,0
			c0,0,0,0-0.1,0s-0.3,0-0.4,0c-0.2,0-0.5,0-0.7,0c-0.2,0-0.3,0-0.5,0c-0.2,0-0.5,0-0.7,0H433c-0.1,0-0.2,0-0.3,0
			c-0.3,0-0.5,0-0.8,0c-0.2,0-0.3,0-0.5,0c-0.3,0-0.5,0-0.8,0.1c-0.1,0-0.2,0-0.3,0c-0.1,0-0.1,0-0.2,0c-0.4,0-0.8,0.1-1.2,0.1
			c-0.1,0-0.1,0-0.2,0c-0.4,0.1-0.9,0.1-1.3,0.2h-0.1c-0.1,0-0.2,0-0.4,0.1c-0.2,0-0.4,0.1-0.6,0.1c-0.2,0-0.3,0.1-0.5,0.1
			c-0.2,0-0.4,0.1-0.6,0.1c-0.2,0-0.3,0.1-0.5,0.1c-0.2,0.1-0.4,0.1-0.6,0.2c-0.2,0-0.3,0.1-0.5,0.1c-0.2,0.1-0.4,0.1-0.6,0.2
			c-0.1,0-0.2,0-0.3,0.1c-0.1,0-0.1,0-0.2,0.1c-0.3,0.1-0.7,0.2-1,0.4c-0.1,0-0.1,0.1-0.2,0.1c-0.4,0.2-0.8,0.3-1.2,0.5
			c-0.1,0-0.2,0.1-0.3,0.1c-0.3,0.1-0.6,0.3-0.9,0.4c-0.1,0.1-0.2,0.1-0.3,0.2c-0.4,0.2-0.7,0.4-1.1,0.6c-0.1,0.1-0.2,0.1-0.3,0.2
			c-0.1,0.1-0.2,0.1-0.3,0.2c-0.1,0.1-0.3,0.2-0.4,0.3c-0.1,0.1-0.3,0.2-0.4,0.3s-0.3,0.2-0.4,0.3c-0.1,0.1-0.2,0.2-0.4,0.3
			c-0.1,0.1-0.2,0.2-0.4,0.3c-0.1,0.1-0.2,0.2-0.3,0.3c-0.1,0.1-0.2,0.2-0.3,0.3l-0.1,0.1l-0.1,0.1c-0.2,0.2-0.4,0.4-0.5,0.5
			c-0.1,0.1-0.1,0.1-0.2,0.2c-0.2,0.2-0.4,0.5-0.6,0.7c0,0.1-0.1,0.1-0.1,0.2c-0.1,0.2-0.2,0.3-0.3,0.5c-0.1,0.1-0.1,0.2-0.2,0.3
			c-0.1,0.1-0.2,0.3-0.3,0.4c0,0,0,0.1-0.1,0.1c0,0.1-0.1,0.1-0.1,0.2c-0.1,0.1-0.1,0.2-0.2,0.4c0,0.1-0.1,0.2-0.1,0.3
			c-0.1,0.1-0.1,0.2-0.2,0.4c0,0.1,0,0.1-0.1,0.2V17c0,0.1-0.1,0.2-0.1,0.3s-0.1,0.2-0.1,0.3c0,0.1-0.1,0.2-0.1,0.3s0,0.1,0,0.2v0.1
			c0,0.1,0,0.2-0.1,0.4c0,0.1,0,0.2,0,0.3s0,0.2,0,0.4c0,0.1,0,0.1,0,0.2c0,0.1,0,0.1,0,0.2v11.1c0-0.1,0-0.3,0-0.4
			C410.8,30.1,410.8,30,410.8,29.9z"/>
		<path class="st6" d="M466.5,20.2c0,0.2,0,0.3,0,0.5c0,0.1,0,0.3-0.1,0.4c0,0.2,0,0.3-0.1,0.5c0,0.1-0.1,0.3-0.1,0.4
			c0,0.2-0.1,0.3-0.1,0.5c0,0.1-0.1,0.3-0.1,0.4c0,0.2-0.1,0.3-0.2,0.5c0,0.1-0.1,0.3-0.2,0.4c-0.1,0.2-0.1,0.3-0.2,0.5
			c-0.1,0.1-0.1,0.3-0.2,0.4c-0.1,0.2-0.2,0.3-0.2,0.5c-0.1,0.1-0.1,0.3-0.2,0.4c-0.1,0.2-0.2,0.4-0.4,0.6c-0.1,0.1-0.1,0.2-0.2,0.3
			c-0.1,0.2-0.3,0.4-0.5,0.6c-0.1,0.1-0.1,0.2-0.2,0.3l-0.1,0.1c-0.2,0.2-0.3,0.4-0.5,0.6c0,0.1-0.1,0.1-0.1,0.2
			c-0.2,0.2-0.4,0.5-0.7,0.7l-0.1,0.1c-0.2,0.2-0.4,0.3-0.5,0.5c-0.2,0.1-0.3,0.3-0.5,0.4c-0.1,0.1-0.3,0.2-0.4,0.4
			c-0.2,0.1-0.3,0.3-0.5,0.4c-0.2,0.1-0.3,0.2-0.5,0.4c-0.2,0.1-0.4,0.3-0.5,0.4c-0.2,0.1-0.3,0.2-0.5,0.3c-0.2,0.1-0.4,0.2-0.6,0.4
			c-0.2,0.2-0.5,0.3-0.7,0.5c-0.5,0.3-1,0.5-1.5,0.8c-0.1,0.1-0.3,0.1-0.4,0.2c-0.4,0.2-0.8,0.4-1.2,0.6c-0.1,0.1-0.3,0.1-0.4,0.2
			c-0.5,0.2-1.1,0.4-1.6,0.7c-0.1,0-0.2,0.1-0.3,0.1c-0.5,0.2-0.9,0.3-1.4,0.5c-0.2,0.1-0.4,0.1-0.6,0.2c-0.3,0.1-0.5,0.2-0.8,0.2
			c-0.2,0.1-0.4,0.1-0.7,0.2c-0.3,0.1-0.5,0.1-0.8,0.2c-0.2,0.1-0.4,0.1-0.7,0.2c-0.3,0.1-0.5,0.1-0.8,0.2c-0.2,0.1-0.5,0.1-0.7,0.1
			c-0.3,0.1-0.6,0.1-0.8,0.2c-0.2,0-0.4,0.1-0.6,0.1c-0.6,0.1-1.2,0.2-1.8,0.3c-0.1,0-0.2,0-0.3,0c-0.5,0.1-1.1,0.1-1.6,0.2
			c-0.2,0-0.4,0-0.6,0.1c-0.3,0-0.7,0.1-1,0.1c-0.2,0-0.4,0-0.7,0c-0.4,0-0.7,0-1.1,0.1c-0.2,0-0.4,0-0.6,0c-0.3,0-0.6,0-0.9,0
			c-0.2,0-0.4,0-0.7,0c-0.3,0-0.7,0-1,0c-0.2,0-0.4,0-0.6,0c-0.3,0-0.6,0-0.9,0c-0.2,0-0.4,0-0.7,0s-0.6,0-1-0.1c-0.2,0-0.4,0-0.6,0
			c-0.4,0-0.8-0.1-1.1-0.1c-0.1,0-0.3,0-0.4,0c-0.5-0.1-1-0.1-1.5-0.2c-0.1,0-0.2,0-0.3,0c-0.4-0.1-0.9-0.1-1.3-0.2
			c-0.2,0-0.4-0.1-0.5-0.1c-0.3-0.1-0.7-0.1-1-0.2c-0.2,0-0.3-0.1-0.5-0.1c-0.4-0.1-0.7-0.2-1.1-0.2c-0.2,0-0.4-0.1-0.6-0.1
			c-0.3-0.1-0.6-0.2-1-0.3c-0.2-0.1-0.4-0.1-0.5-0.2c-0.5-0.1-1-0.3-1.5-0.5c-0.1,0-0.2-0.1-0.3-0.1c-0.6-0.2-1.1-0.4-1.7-0.6
			c-0.2-0.1-0.5-0.2-0.7-0.3c-0.2-0.1-0.4-0.1-0.5-0.2c-0.3-0.1-0.5-0.2-0.7-0.3c-0.2-0.1-0.3-0.1-0.5-0.2c-0.3-0.1-0.5-0.3-0.8-0.4
			c-0.1-0.1-0.3-0.1-0.4-0.2c-0.4-0.2-0.8-0.4-1.2-0.6c-6.3-3.6-9.5-8.4-9.5-13.2V31c0,4.8,3.1,9.6,9.5,13.2
			c0.4,0.2,0.8,0.4,1.2,0.6c0.1,0.1,0.3,0.1,0.4,0.2c0.3,0.1,0.5,0.3,0.8,0.4c0.2,0.1,0.3,0.1,0.5,0.2c0.2,0.1,0.5,0.2,0.7,0.3
			c0.2,0.1,0.4,0.1,0.5,0.2c0.2,0.1,0.3,0.1,0.5,0.2c0.1,0,0.1,0,0.2,0.1c0.6,0.2,1.1,0.4,1.7,0.6c0.1,0,0.2,0.1,0.3,0.1
			c0.5,0.2,1,0.3,1.5,0.5c0.1,0,0.2,0.1,0.3,0.1s0.2,0.1,0.3,0.1c0.3,0.1,0.6,0.2,1,0.3c0.2,0.1,0.4,0.1,0.6,0.1
			c0.4,0.1,0.7,0.2,1.1,0.2c0.1,0,0.3,0.1,0.4,0.1h0.1c0.3,0.1,0.7,0.1,1,0.2c0.2,0,0.4,0.1,0.5,0.1c0.4,0.1,0.9,0.1,1.3,0.2
			c0.1,0,0.2,0,0.2,0c0.5,0.1,1,0.1,1.5,0.2c0.1,0,0.2,0,0.4,0c0.4,0,0.8,0.1,1.2,0.1c0.2,0,0.4,0,0.5,0c0.3,0,0.7,0,1,0.1
			c0.2,0,0.4,0,0.6,0c0.3,0,0.6,0,0.9,0h0.1c0.2,0,0.3,0,0.5,0c0.3,0,0.7,0,1,0c0.2,0,0.4,0,0.7,0c0.3,0,0.6,0,0.9,0
			c0.1,0,0.1,0,0.2,0s0.3,0,0.4,0c0.4,0,0.7,0,1.1-0.1c0.2,0,0.4,0,0.6,0c0.3,0,0.7-0.1,1-0.1c0.1,0,0.2,0,0.4,0c0.1,0,0.2,0,0.2,0
			c0.5-0.1,1.1-0.1,1.6-0.2c0.1,0,0.2,0,0.3,0c0.6-0.1,1.2-0.2,1.8-0.3c0.1,0,0.1,0,0.2,0c0.2,0,0.3-0.1,0.5-0.1
			c0.3-0.1,0.6-0.1,0.8-0.2c0.2,0,0.5-0.1,0.7-0.1c0.3-0.1,0.5-0.1,0.8-0.2c0.2-0.1,0.4-0.1,0.7-0.2s0.5-0.1,0.8-0.2
			c0.2-0.1,0.4-0.1,0.7-0.2c0.3-0.1,0.5-0.2,0.8-0.2c0.1,0,0.2-0.1,0.3-0.1s0.2-0.1,0.2-0.1c0.5-0.2,0.9-0.3,1.4-0.5
			c0.1,0,0.2-0.1,0.3-0.1c0.5-0.2,1.1-0.4,1.6-0.7c0.1-0.1,0.3-0.1,0.4-0.2c0.4-0.2,0.8-0.4,1.2-0.6c0.1-0.1,0.3-0.1,0.4-0.2
			c0.5-0.3,1-0.5,1.5-0.8c0.1-0.1,0.3-0.2,0.4-0.2c0.1-0.1,0.2-0.1,0.4-0.2c0.2-0.1,0.4-0.2,0.6-0.4c0.2-0.1,0.3-0.2,0.5-0.3
			s0.4-0.3,0.5-0.4c0.2-0.1,0.3-0.2,0.5-0.4c0.2-0.1,0.3-0.3,0.5-0.4c0.2-0.1,0.3-0.2,0.4-0.4c0.2-0.1,0.3-0.3,0.5-0.4
			c0.1-0.1,0.1-0.1,0.2-0.2c0.1-0.1,0.2-0.2,0.4-0.3l0.1-0.1c0.2-0.2,0.5-0.5,0.7-0.7c0.1-0.1,0.1-0.1,0.1-0.2
			c0.2-0.2,0.4-0.4,0.5-0.6l0.1-0.1c0,0,0,0,0.1-0.1c0.1-0.1,0.1-0.2,0.2-0.2c0.2-0.2,0.3-0.4,0.5-0.6c0.1-0.1,0.1-0.2,0.2-0.3
			c0.1-0.2,0.2-0.4,0.4-0.6c0-0.1,0.1-0.1,0.1-0.2c0-0.1,0.1-0.2,0.1-0.2c0.1-0.2,0.2-0.3,0.2-0.5c0.1-0.1,0.1-0.3,0.2-0.4
			c0.1-0.2,0.1-0.3,0.2-0.5c0-0.1,0.1-0.1,0.1-0.2s0-0.1,0.1-0.2c0.1-0.2,0.1-0.3,0.2-0.5c0-0.1,0.1-0.3,0.1-0.4
			c0-0.2,0.1-0.3,0.1-0.5c0-0.1,0-0.2,0.1-0.3c0-0.1,0-0.1,0-0.2c0-0.2,0.1-0.3,0.1-0.5c0-0.1,0-0.3,0.1-0.4c0-0.2,0-0.3,0-0.5
			c0-0.1,0-0.2,0-0.3c0-0.1,0-0.2,0-0.3V19.7C466.5,19.8,466.5,20,466.5,20.2z"/>
		<path class="st2" d="M457.1,6.4c12.5,7.2,12.6,19,0.1,26.2s-32.7,7.2-45.3,0c-12.5-7.2-12.6-19-0.1-26.2
			C424.2-0.8,444.5-0.8,457.1,6.4z M417.8,29.3c9.3,5.4,24.3,5.4,33.5,0c9.2-5.4,9.2-14.1-0.1-19.4c-9.3-5.4-24.3-5.4-33.5,0
			C408.5,15.2,408.5,23.9,417.8,29.3z"/>
		<path class="st4" d="M403.2,23.5c-2.3-6,0.6-12.5,8.5-17.1c12.5-7.2,32.7-7.2,45.3,0c7.8,4.5,10.8,10.8,8.9,16.7
			c-1.2,3.5-4.1,6.9-8.7,9.6"/>
		<path class="st4" d="M417.7,9.8c-6.9,4-8.6,9.9-5.1,14.9c1.2,1.7,2.9,3.2,5.2,4.5"/>
		<path class="st4" d="M417.8,29.3c9.3,5.4,24.3,5.4,33.5,0c2.1-1.2,3.7-2.6,4.8-4.1"/>
		<path class="st6" d="M384.3,218.6c0,0.5-0.1,1-0.1,1.5c0,0.4-0.1,0.9-0.2,1.3c-0.1,0.5-0.1,1-0.2,1.5c-0.1,0.4-0.2,0.9-0.3,1.3
			c-0.1,0.5-0.2,1-0.4,1.5c-0.1,0.4-0.3,0.9-0.4,1.3c-0.2,0.5-0.3,1-0.5,1.5c-0.2,0.4-0.3,0.9-0.5,1.3c-0.2,0.5-0.4,1-0.6,1.5
			c-0.2,0.4-0.4,0.8-0.6,1.3s-0.5,1-0.8,1.5c-0.3,0.5-0.6,1.1-0.9,1.6c-0.1,0.1-0.1,0.3-0.2,0.4c-0.5,0.8-1,1.5-1.5,2.3
			c-0.1,0.1-0.2,0.3-0.3,0.4c-0.5,0.8-1.1,1.5-1.7,2.3c-0.1,0.1-0.2,0.3-0.3,0.4c-0.5,0.6-1.1,1.3-1.6,1.9c-0.2,0.2-0.3,0.4-0.5,0.5
			c-0.7,0.7-1.4,1.5-2.1,2.2c-0.1,0.1-0.3,0.3-0.4,0.4c-0.6,0.5-1.1,1.1-1.7,1.6c-0.5,0.4-1,0.8-1.5,1.3c-0.5,0.4-0.9,0.8-1.4,1.2
			c-0.5,0.4-1,0.8-1.6,1.2c-0.5,0.4-1,0.8-1.5,1.1c-0.6,0.4-1.1,0.8-1.7,1.2c-0.5,0.4-1.1,0.7-1.6,1.1c-0.6,0.4-1.2,0.8-1.8,1.2
			c-0.8,0.5-1.5,1-2.3,1.4c-1.5,0.9-3.1,1.7-4.6,2.5c-0.5,0.2-0.9,0.5-1.4,0.7c-1.2,0.6-2.5,1.2-3.7,1.8c-0.4,0.2-0.8,0.4-1.3,0.6
			c-1.6,0.7-3.3,1.4-5,2c-0.3,0.1-0.6,0.2-0.9,0.3c-1.4,0.5-2.9,1-4.4,1.5c-0.6,0.2-1.2,0.4-1.8,0.6c-0.8,0.3-1.6,0.5-2.5,0.7
			c-0.7,0.2-1.4,0.4-2.1,0.6c-0.8,0.2-1.7,0.5-2.5,0.7c-0.7,0.2-1.4,0.4-2.1,0.5c-0.9,0.2-1.7,0.4-2.6,0.6c-0.7,0.2-1.4,0.3-2.1,0.5
			c-0.9,0.2-1.8,0.4-2.6,0.5c-0.7,0.1-1.4,0.3-2,0.4c-1.9,0.3-3.8,0.6-5.7,0.9c-0.3,0-0.5,0.1-0.8,0.1c-1.7,0.2-3.3,0.4-5,0.6
			c-0.6,0.1-1.3,0.1-1.9,0.2c-1.1,0.1-2.2,0.2-3.2,0.3c-0.7,0-1.4,0.1-2,0.1c-1.1,0.1-2.3,0.1-3.4,0.2c-0.6,0-1.3,0.1-1.9,0.1
			c-1,0-2,0-2.9,0.1c-0.7,0-1.4,0-2.1,0c-1,0-2.1,0-3.1,0c-0.6,0-1.2,0-1.9,0c-1,0-1.9-0.1-2.9-0.1c-0.7,0-1.3,0-2-0.1
			c-1-0.1-2.1-0.1-3.1-0.2c-0.6,0-1.2-0.1-1.8-0.1c-1.2-0.1-2.5-0.2-3.7-0.4c-0.4,0-0.8-0.1-1.1-0.1c-1.6-0.2-3.2-0.4-4.8-0.6
			c-0.3,0-0.5-0.1-0.8-0.1c-1.4-0.2-2.8-0.4-4.1-0.6c-0.6-0.1-1.1-0.2-1.7-0.3c-1-0.2-2.1-0.4-3.1-0.6c-0.5-0.1-1.1-0.2-1.6-0.4
			c-1.1-0.2-2.3-0.5-3.4-0.8c-0.6-0.2-1.2-0.3-1.9-0.5c-1-0.3-2-0.5-3.1-0.8c-0.6-0.2-1.1-0.3-1.7-0.5c-1.6-0.5-3.2-1-4.8-1.5
			c-0.3-0.1-0.6-0.2-0.8-0.3c-1.8-0.6-3.6-1.3-5.3-1.9c-0.7-0.3-1.4-0.6-2.1-0.9c-0.6-0.2-1.1-0.5-1.7-0.7c-0.8-0.3-1.6-0.7-2.3-1.1
			c-0.5-0.2-1-0.5-1.5-0.7c-0.9-0.4-1.7-0.8-2.5-1.2c-0.4-0.2-0.8-0.4-1.2-0.6c-1.2-0.6-2.4-1.3-3.6-2
			c-19.9-11.5-29.8-26.5-29.7-41.6l-0.3,102c0,15,9.9,30.1,29.7,41.6c1.2,0.7,2.4,1.3,3.6,2c0.4,0.2,0.8,0.4,1.2,0.6
			c0.8,0.4,1.7,0.8,2.5,1.2c0.5,0.2,1,0.5,1.5,0.7c0.8,0.4,1.6,0.7,2.3,1.1c0.6,0.2,1.1,0.5,1.7,0.7c0.5,0.2,1.1,0.5,1.6,0.7
			c0.2,0.1,0.3,0.1,0.5,0.2c1.7,0.7,3.5,1.3,5.3,1.9c0.3,0.1,0.6,0.2,0.8,0.3c1.6,0.5,3.2,1,4.8,1.5c0.3,0.1,0.5,0.2,0.8,0.2
			c0.3,0.1,0.6,0.2,0.9,0.2c1,0.3,2,0.5,3.1,0.8c0.6,0.2,1.2,0.3,1.9,0.5c1.1,0.3,2.3,0.5,3.4,0.8c0.4,0.1,0.8,0.2,1.3,0.3
			c0.1,0,0.2,0,0.3,0.1c1,0.2,2.1,0.4,3.1,0.6c0.6,0.1,1.1,0.2,1.7,0.3c1.4,0.2,2.7,0.4,4.1,0.6c0.2,0,0.5,0.1,0.7,0.1
			c1.6,0.2,3.2,0.4,4.8,0.6c0.4,0,0.8,0.1,1.1,0.1c1.2,0.1,2.5,0.3,3.7,0.4h0.1c0.6,0,1.1,0.1,1.7,0.1c1,0.1,2.1,0.2,3.1,0.2
			c0.7,0,1.3,0.1,2,0.1c1,0,1.9,0.1,2.9,0.1c0.1,0,0.2,0,0.2,0c0.5,0,1.1,0,1.6,0c1,0,2.1,0,3.1,0c0.7,0,1.4,0,2.1,0
			c1,0,2,0,2.9-0.1c0.2,0,0.4,0,0.5,0c0.5,0,0.9,0,1.4-0.1c1.1,0,2.3-0.1,3.4-0.2c0.7,0,1.4-0.1,2-0.1c1.1-0.1,2.2-0.2,3.2-0.3
			c0.4,0,0.8-0.1,1.1-0.1c0.3,0,0.5-0.1,0.8-0.1c1.7-0.2,3.4-0.4,5-0.6c0.3,0,0.5-0.1,0.8-0.1c1.9-0.3,3.8-0.6,5.7-0.9
			c0.2,0,0.4-0.1,0.5-0.1c0.5-0.1,1-0.2,1.5-0.3c0.9-0.2,1.8-0.3,2.6-0.5c0.7-0.1,1.4-0.3,2.1-0.5c0.9-0.2,1.7-0.4,2.6-0.6
			c0.7-0.2,1.4-0.4,2.1-0.5c0.8-0.2,1.7-0.4,2.5-0.7c0.7-0.2,1.4-0.4,2.1-0.6c0.8-0.2,1.6-0.5,2.5-0.7c0.4-0.1,0.7-0.2,1.1-0.3
			c0.3-0.1,0.5-0.2,0.8-0.3c1.5-0.5,2.9-1,4.4-1.5c0.3-0.1,0.6-0.2,0.9-0.3c1.7-0.6,3.4-1.3,5-2.1c0.4-0.2,0.8-0.4,1.3-0.6
			c1.3-0.6,2.5-1.2,3.7-1.8c0.5-0.2,0.9-0.5,1.4-0.7c1.6-0.8,3.1-1.6,4.6-2.5c0.4-0.2,0.8-0.5,1.2-0.7c0.4-0.2,0.7-0.5,1.1-0.7
			c0.6-0.4,1.2-0.8,1.8-1.2c0.5-0.4,1.1-0.7,1.6-1.1c0.6-0.4,1.1-0.8,1.7-1.2c0.5-0.4,1-0.7,1.5-1.1s1.1-0.8,1.6-1.2
			s0.9-0.8,1.4-1.2c0.5-0.4,1-0.8,1.5-1.3c0.2-0.2,0.4-0.3,0.6-0.5c0.4-0.4,0.8-0.7,1.1-1.1c0.1-0.1,0.3-0.3,0.4-0.4
			c0.7-0.7,1.4-1.5,2.1-2.2c0.2-0.2,0.3-0.3,0.5-0.5c0.6-0.6,1.1-1.3,1.6-1.9c0.1-0.1,0.2-0.3,0.3-0.4c0.1-0.1,0.1-0.1,0.2-0.2
			c0.5-0.7,1-1.4,1.5-2.1c0.1-0.1,0.2-0.3,0.3-0.4c0.5-0.8,1-1.5,1.5-2.3c0.1-0.1,0.1-0.2,0.2-0.4c0.2-0.3,0.3-0.6,0.5-0.9
			c0.1-0.2,0.2-0.5,0.4-0.7c0.3-0.5,0.5-1,0.8-1.5c0.2-0.4,0.4-0.8,0.6-1.3c0.2-0.5,0.4-1,0.6-1.5c0.1-0.2,0.2-0.5,0.3-0.7
			c0.1-0.2,0.1-0.4,0.2-0.6c0.2-0.5,0.3-1,0.5-1.5c0.1-0.4,0.3-0.9,0.4-1.3c0.1-0.5,0.2-1,0.4-1.5c0.1-0.3,0.1-0.5,0.2-0.8
			c0-0.2,0.1-0.4,0.1-0.5c0.1-0.5,0.2-1,0.2-1.5c0.1-0.4,0.1-0.9,0.2-1.3c0.1-0.5,0.1-1,0.1-1.5c0-0.3,0.1-0.6,0.1-0.9s0-0.6,0-0.9
			l0.3-102C384.3,217.5,384.3,218.1,384.3,218.6z"/>
		<path class="st7" d="M384.1,309.6c-5.1,8.3-13.4,16.1-24.8,22.7c-41.5,24.1-109.1,24.1-150.8,0c-11.9-6.9-20.4-14.9-25.6-23.5"/>
		<path class="st7" d="M384.1,282.6c-5.1,8.3-13.4,16.1-24.8,22.7c-41.5,24.1-109.1,24.1-150.8,0c-11.9-6.9-20.4-14.9-25.6-23.5"/>
		<path class="st7" d="M384.1,255.6c-5.1,8.3-13.4,16.1-24.8,22.7c-41.5,24.1-109.1,24.1-150.8,0c-11.9-6.9-20.4-14.9-25.6-23.5"/>
		<path class="st2" d="M183.7,224.2c-4-17.3,5.4-35.5,28.4-48.8c39.2-22.8,103-22.8,142.5,0c23.2,13.4,32.8,31.6,28.9,49"/>
		<path class="st4" d="M183.7,224.2c-4-17.3,5.4-35.5,28.4-48.8c39.2-22.8,103-22.8,142.5,0c23.2,13.4,32.8,31.6,28.9,49"/>
		<path class="st3" d="M304,94.9L199.9,155c-1.4,0.8-2.1,2.3-1.8,3.9l9.5,55.8c0.4,2.6,3.3,3.9,5.6,2.6l78.8-45.5
			c1-0.6,1.7-1.6,1.8-2.7L304,94.9z M212.3,158.4l5.9-3.4c2.4-1.4,5.4,0.2,5.6,3l2.7,38.6c0.1,1.4-0.6,2.8-1.9,3.5l-2.6,1.5
			c-2.3,1.3-5.2-0.1-5.6-2.6l-6-36.7C210.2,160.8,211,159.2,212.3,158.4z M234.7,145.5l5.9-3.4c2.5-1.4,5.6,0.4,5.6,3.2l0.1,40
			c0,1.3-0.7,2.6-1.9,3.3l-3.4,1.9c-2.4,1.4-5.4-0.2-5.6-3l-2.7-38.6C232.8,147.6,233.5,146.2,234.7,145.5z M255.5,133.5l7.5-4.3
			c2.6-1.5,5.8,0.5,5.6,3.5l-2.4,41.5c-0.1,1.3-0.8,2.4-1.9,3l-3.1,1.8c-2.5,1.4-5.6-0.4-5.6-3.2L255.5,133.5z M280.1,119.3l5-2.9
			c2.7-1.6,6,0.7,5.6,3.7l-5.7,43.4c-0.2,1.2-0.8,2.2-1.8,2.8l-1.7,1c-2.6,1.5-5.8-0.5-5.6-3.5l2.4-41.5
			C278.3,121.1,279,120,280.1,119.3z"/>
		<path class="st3" d="M293.9,171.1l59.1,33.6c2.5,1.4,2.5,5.1,0,6.5l-73,42.2c-3.8,2.2-8.6,2.2-12.4,0l-54.8-31.1
			c-2.5-1.4-2.5-5.1,0-6.5l77.5-44.7C291.4,170.4,292.8,170.4,293.9,171.1z"/>
		<path class="st3" d="M292.8,170.4l64.4,36.5c0.8,0.4,1.7,0,1.9-0.9l9-65.4c0.1-0.5-0.2-1-0.6-1.2l-64-39.3c-0.8-0.5-1.8,0-1.9,0.9
			l-9.4,68.1C292.1,169.7,292.4,170.2,292.8,170.4z"/>
		<path class="st3" d="M208.1,219.7l61.1,34.7c1.8,1,4.1-0.5,3.7-2.6l-8.8-51.3c-0.1-0.7-0.6-1.4-1.2-1.8l-61-34.2
			c-1.8-1-4,0.5-3.7,2.6l8.7,50.8C207,218.6,207.4,219.3,208.1,219.7z"/>
		<path class="st5" d="M369.3,131.8l-104.1,60.1c-1.4,0.8-2.1,2.3-1.8,3.9l9.5,55.8c0.4,2.6,3.3,3.9,5.6,2.6l78.8-45.5
			c1-0.6,1.7-1.6,1.8-2.7L369.3,131.8z M277.6,195.4l5.9-3.4c2.4-1.4,5.4,0.2,5.6,3l2.7,38.6c0.1,1.4-0.6,2.8-1.9,3.5l-2.6,1.5
			c-2.3,1.3-5.2-0.1-5.6-2.6l-6-36.7C275.5,197.7,276.2,196.2,277.6,195.4z M300,182.4l5.9-3.4c2.5-1.4,5.6,0.4,5.6,3.2l0.1,40
			c0,1.3-0.7,2.6-1.9,3.3l-3.4,1.9c-2.4,1.4-5.4-0.2-5.6-3l-2.7-38.6C298,184.5,298.7,183.1,300,182.4z M320.8,170.4l7.5-4.3
			c2.6-1.5,5.8,0.5,5.6,3.5l-2.4,41.5c-0.1,1.3-0.8,2.4-1.9,3l-3.1,1.8c-2.5,1.4-5.6-0.4-5.6-3.2L320.8,170.4z M345.3,156.3l5-2.9
			c2.7-1.6,6,0.7,5.6,3.7l-5.7,43.4c-0.2,1.2-0.8,2.2-1.8,2.8l-1.7,1c-2.6,1.5-5.8-0.5-5.6-3.5l2.4-41.5
			C343.5,158,344.2,156.9,345.3,156.3z"/>
		<path class="st5" d="M300.7,93.5l-109,63.4c-1.2,0.7-1.9,1.9-1.9,3.2v1c0,1.3,0.7,2.6,1.9,3.3l70.1,40.5c1.2,0.7,2.6,0.7,3.8,0
			l109-63.4c1.2-0.7,1.9-1.9,1.9-3.2v-1c0-1.3-0.7-2.6-1.9-3.3l-70.1-40.5C303.3,92.9,301.9,92.9,300.7,93.5z M261.8,191.3
			l-47.5-27.4c-2.5-1.4-2.5-5,0-6.5l86.5-50.3c1.2-0.7,2.6-0.7,3.8,0l47.5,27.4c2.5,1.4,2.5,5,0,6.5l-86.5,50.3
			C264.4,192,262.9,192,261.8,191.3z"/>
		<path class="st4" d="M261.8,204.9c1.2,0.7,2.6,0.7,3.8,0l109-63.4c1.2-0.7,1.9-1.9,1.9-3.2v-1c0-1.3-0.7-2.6-1.9-3.3l-70.1-40.5
			c-1.2-0.7-2.6-0.7-3.8,0"/>
		<path class="st6" d="M312.8,112L243,71.7c-1.4-0.8-3,0.2-3,1.8l-0.2,56.1c0,0.7,0.4,1.4,1,1.8l3.3,1.9c0.6,0.4,1.4,0.4,2,0
			l2.1-1.2c0.6-0.4,1-1,1-1.8l0.1-45.2c0-1.6,1.7-2.5,3-1.8l55,31.8c0.6,0.4,1,1,1,1.8l-0.2,52.2c0,0.7,0.4,1.4,1,1.8l3.3,1.9
			c0.6,0.4,1.4,0.4,2,0l2.1-1.2c0.6-0.4,1-1,1-1.8l0.2-56c0-1.6-1.7-2.6-3.1-1.8C314.2,112.4,313.5,112.4,312.8,112z"/>
		<path class="st2" d="M241,67.4c0.7-0.4,1.5-0.4,2.2,0l73.7,42.5c1.4,0.8,1.4,2.9,0,3.7c-0.7,0.4-1.5,0.4-2.2,0L241,71.1
			C239.6,70.3,239.6,68.2,241,67.4z"/>
		<path class="st4" d="M240.5,71.4c-1.3-1-0.9-3.2,0.5-4c0.7-0.4,1.5-0.4,2.2,0l73.7,42.5c1.4,0.8,1.4,2.9,0,3.7"/>
		<path class="st3" d="M405.6,465.2c0,0.4,0,0.8-0.1,1.2c0,0.4-0.1,0.7-0.1,1.1c-0.1,0.4-0.1,0.8-0.2,1.2c-0.1,0.4-0.1,0.7-0.2,1.1
			c-0.1,0.4-0.2,0.8-0.3,1.2c-0.1,0.4-0.2,0.7-0.3,1.1s-0.2,0.8-0.4,1.2c-0.1,0.3-0.3,0.7-0.4,1c-0.2,0.4-0.3,0.8-0.5,1.2
			c-0.2,0.3-0.3,0.7-0.5,1c-0.2,0.4-0.4,0.8-0.6,1.2c-0.2,0.4-0.5,0.9-0.7,1.3c-0.1,0.1-0.1,0.2-0.2,0.3c-0.4,0.6-0.8,1.2-1.2,1.8
			c-0.1,0.1-0.2,0.2-0.2,0.3c-0.4,0.6-0.9,1.2-1.4,1.8c-0.1,0.1-0.2,0.2-0.3,0.3c-0.4,0.5-0.9,1-1.3,1.5c-0.1,0.1-0.2,0.3-0.4,0.4
			c-0.5,0.6-1.1,1.2-1.7,1.8c-0.1,0.1-0.2,0.2-0.3,0.3c-0.4,0.4-0.9,0.9-1.4,1.3c-0.4,0.3-0.8,0.7-1.2,1c-0.4,0.3-0.7,0.6-1.1,0.9
			c-0.4,0.3-0.8,0.7-1.3,1c-0.4,0.3-0.8,0.6-1.2,0.9c-0.4,0.3-0.9,0.6-1.4,1c-0.4,0.3-0.9,0.6-1.3,0.9c-0.5,0.3-1,0.6-1.5,0.9
			c-0.6,0.4-1.2,0.8-1.9,1.1c-1.2,0.7-2.5,1.4-3.7,2c-0.4,0.2-0.7,0.4-1.1,0.6c-1,0.5-2,1-3,1.4c-0.3,0.2-0.7,0.3-1,0.5
			c-1.3,0.6-2.7,1.1-4,1.6c-0.2,0.1-0.5,0.2-0.7,0.3c-1.2,0.4-2.3,0.8-3.5,1.2c-0.5,0.2-1,0.3-1.5,0.5c-0.7,0.2-1.3,0.4-2,0.6
			c-0.6,0.2-1.1,0.3-1.7,0.5c-0.7,0.2-1.3,0.4-2,0.5c-0.6,0.1-1.1,0.3-1.7,0.4c-0.7,0.2-1.4,0.3-2.1,0.5c-0.6,0.1-1.1,0.3-1.7,0.4
			c-0.7,0.1-1.4,0.3-2.1,0.4c-0.5,0.1-1.1,0.2-1.6,0.3c-1.5,0.3-3,0.5-4.6,0.7c-0.2,0-0.4,0.1-0.6,0.1c-1.3,0.2-2.7,0.3-4,0.5
			c-0.5,0.1-1,0.1-1.5,0.2c-0.9,0.1-1.7,0.2-2.6,0.2c-0.5,0-1.1,0.1-1.6,0.1c-0.9,0.1-1.8,0.1-2.7,0.1c-0.5,0-1,0-1.5,0.1
			c-0.8,0-1.6,0-2.4,0c-0.6,0-1.1,0-1.7,0c-0.8,0-1.7,0-2.5,0c-0.5,0-1,0-1.5,0c-0.8,0-1.6-0.1-2.3-0.1c-0.5,0-1.1,0-1.6-0.1
			c-0.8,0-1.7-0.1-2.5-0.2c-0.5,0-0.9-0.1-1.4-0.1c-1-0.1-2-0.2-3-0.3c-0.3,0-0.6-0.1-0.9-0.1c-1.3-0.1-2.6-0.3-3.9-0.5
			c-0.2,0-0.4-0.1-0.6-0.1c-1.1-0.2-2.2-0.3-3.3-0.5c-0.5-0.1-0.9-0.2-1.4-0.3c-0.8-0.2-1.7-0.3-2.5-0.5c-0.4-0.1-0.9-0.2-1.3-0.3
			c-0.9-0.2-1.8-0.4-2.7-0.6c-0.5-0.1-1-0.3-1.5-0.4c-0.8-0.2-1.6-0.4-2.5-0.7c-0.5-0.1-0.9-0.3-1.4-0.4c-1.3-0.4-2.6-0.8-3.8-1.2
			c-0.2-0.1-0.5-0.1-0.7-0.2c-1.4-0.5-2.9-1-4.3-1.6c-0.6-0.2-1.1-0.5-1.7-0.7c-0.4-0.2-0.9-0.4-1.3-0.6c-0.6-0.3-1.3-0.6-1.9-0.8
			c-0.4-0.2-0.8-0.4-1.2-0.6c-0.7-0.3-1.4-0.7-2-1c-0.3-0.2-0.7-0.3-1-0.5c-1-0.5-2-1.1-2.9-1.6c-16-9.2-24-21.3-23.9-33.4
			l-0.2,31.7c0,12.1,7.9,24.2,23.9,33.4c1,0.6,1.9,1.1,2.9,1.6c0.3,0.2,0.7,0.3,1,0.5c0.7,0.3,1.3,0.7,2,1c0.4,0.2,0.8,0.4,1.2,0.6
			c0.6,0.3,1.3,0.6,1.9,0.8c0.4,0.2,0.9,0.4,1.3,0.6s0.9,0.4,1.3,0.5c0.1,0.1,0.3,0.1,0.4,0.2c1.4,0.5,2.8,1.1,4.3,1.6
			c0.2,0.1,0.5,0.1,0.7,0.2c1.3,0.4,2.5,0.8,3.8,1.2c0.2,0.1,0.4,0.1,0.6,0.2c0.2,0.1,0.5,0.1,0.7,0.2c0.8,0.2,1.6,0.4,2.5,0.7
			c0.5,0.1,1,0.3,1.5,0.4c0.9,0.2,1.8,0.4,2.7,0.6c0.3,0.1,0.7,0.2,1,0.2c0.1,0,0.2,0,0.3,0.1c0.8,0.2,1.7,0.3,2.5,0.5
			c0.5,0.1,0.9,0.2,1.4,0.3c1.1,0.2,2.2,0.4,3.3,0.5c0.2,0,0.4,0.1,0.6,0.1c1.3,0.2,2.6,0.3,3.9,0.5c0.3,0,0.6,0.1,0.9,0.1
			c1,0.1,2,0.2,3,0.3h0.1c0.4,0,0.9,0.1,1.3,0.1c0.8,0.1,1.7,0.1,2.5,0.2c0.5,0,1.1,0,1.6,0.1c0.8,0,1.6,0.1,2.3,0.1
			c0.1,0,0.1,0,0.2,0c0.4,0,0.9,0,1.3,0c0.8,0,1.7,0,2.5,0c0.6,0,1.1,0,1.7,0c0.8,0,1.6,0,2.4,0c0.1,0,0.3,0,0.4,0
			c0.4,0,0.7,0,1.1-0.1c0.9,0,1.8-0.1,2.7-0.1c0.5,0,1.1-0.1,1.6-0.1c0.9-0.1,1.7-0.1,2.6-0.2c0.3,0,0.6,0,0.9-0.1
			c0.2,0,0.4-0.1,0.6-0.1c1.4-0.1,2.7-0.3,4-0.5c0.2,0,0.4-0.1,0.6-0.1c1.5-0.2,3.1-0.5,4.6-0.7c0.1,0,0.3,0,0.4-0.1
			c0.4-0.1,0.8-0.2,1.2-0.2c0.7-0.1,1.4-0.3,2.1-0.4c0.6-0.1,1.1-0.2,1.7-0.4c0.7-0.2,1.4-0.3,2.1-0.5c0.6-0.1,1.1-0.3,1.7-0.4
			c0.7-0.2,1.4-0.4,2-0.5c0.6-0.2,1.1-0.3,1.7-0.5c0.7-0.2,1.3-0.4,2-0.6c0.3-0.1,0.6-0.2,0.9-0.3c0.2-0.1,0.4-0.1,0.6-0.2
			c1.2-0.4,2.4-0.8,3.5-1.2c0.2-0.1,0.5-0.2,0.7-0.3c1.4-0.5,2.7-1.1,4-1.6c0.3-0.1,0.7-0.3,1-0.5c1-0.5,2-0.9,3-1.4
			c0.4-0.2,0.7-0.4,1.1-0.6c1.3-0.6,2.5-1.3,3.7-2c0.3-0.2,0.7-0.4,1-0.6c0.3-0.2,0.6-0.4,0.9-0.6c0.5-0.3,1-0.6,1.5-0.9
			c0.4-0.3,0.9-0.6,1.3-0.9c0.5-0.3,0.9-0.6,1.4-1c0.4-0.3,0.8-0.6,1.2-0.9s0.9-0.7,1.3-1c0.4-0.3,0.8-0.6,1.1-0.9
			c0.4-0.3,0.8-0.7,1.2-1c0.2-0.1,0.3-0.3,0.5-0.4c0.3-0.3,0.6-0.6,0.9-0.9c0.1-0.1,0.2-0.2,0.3-0.3c0.6-0.6,1.2-1.2,1.7-1.8
			c0.1-0.1,0.3-0.3,0.4-0.4c0.5-0.5,0.9-1,1.3-1.5c0.1-0.1,0.2-0.2,0.3-0.3c0-0.1,0.1-0.1,0.1-0.2c0.4-0.5,0.8-1.1,1.2-1.7
			c0.1-0.1,0.2-0.2,0.2-0.3c0.4-0.6,0.8-1.2,1.2-1.8c0.1-0.1,0.1-0.2,0.2-0.3c0.1-0.2,0.3-0.5,0.4-0.7c0.1-0.2,0.2-0.4,0.3-0.6
			c0.2-0.4,0.4-0.8,0.6-1.2c0.2-0.3,0.3-0.7,0.5-1c0.2-0.4,0.4-0.8,0.5-1.2c0.1-0.2,0.2-0.4,0.2-0.5c0.1-0.2,0.1-0.3,0.2-0.5
			c0.1-0.4,0.3-0.8,0.4-1.2s0.2-0.7,0.3-1.1c0.1-0.4,0.2-0.8,0.3-1.2c0-0.2,0.1-0.4,0.2-0.6c0-0.1,0-0.3,0.1-0.4
			c0.1-0.4,0.1-0.8,0.2-1.2c0-0.4,0.1-0.7,0.1-1.1s0.1-0.8,0.1-1.2c0-0.2,0-0.5,0.1-0.7c0-0.2,0-0.5,0-0.7l0.2-31.7
			C405.7,464.2,405.7,464.7,405.6,465.2z"/>
		<path class="st2" d="M244.4,469.6c-3.2-14,4.4-28.6,22.8-39.3c31.5-18.3,82.9-18.3,114.6,0c18.6,10.8,26.4,25.4,23.2,39.4"/>
		<path class="st4" d="M244.4,469.6c-3.2-14,4.4-28.6,22.8-39.3c31.5-18.3,82.9-18.3,114.6,0c18.6,10.8,26.4,25.4,23.2,39.4"/>
		<path class="st5" d="M281.8,441.4c0-0.3,0-0.5,0-0.8c0-0.1,0-0.3,0-0.4c0-0.3,0-0.5,0.1-0.8c0-0.1,0-0.2,0-0.4s0-0.4,0.1-0.5
			c0-0.3,0.1-0.5,0.1-0.8c0-0.2,0.1-0.4,0.1-0.5c0-0.3,0.1-0.5,0.2-0.8c0-0.2,0.1-0.4,0.1-0.6c0-0.2,0.1-0.3,0.1-0.5
			c0.1-0.2,0.1-0.5,0.2-0.7c0-0.2,0.1-0.3,0.1-0.5c0-0.1,0.1-0.3,0.1-0.4c0.2-0.6,0.3-1.1,0.5-1.7v-0.1c0.2-0.6,0.4-1.1,0.6-1.7
			c0.1-0.1,0.1-0.3,0.2-0.4c0.2-0.5,0.4-0.9,0.6-1.4c0-0.1,0.1-0.1,0.1-0.2c0.2-0.5,0.5-1,0.7-1.5c0.1-0.1,0.1-0.3,0.2-0.4
			c0.2-0.4,0.4-0.8,0.6-1.2c0.1-0.1,0.1-0.2,0.2-0.4c0.3-0.5,0.5-1,0.8-1.5c0.1-0.1,0.1-0.2,0.2-0.3c0.3-0.4,0.5-0.8,0.8-1.3
			c0.1-0.1,0.2-0.2,0.2-0.4c0.3-0.5,0.7-1,1-1.5c0.1-0.1,0.1-0.1,0.2-0.2c0.4-0.5,0.7-1,1.1-1.5c0.1-0.1,0.1-0.1,0.2-0.2
			c0.5-0.6,1-1.2,1.5-1.8c0.1-0.1,0.1-0.2,0.2-0.2c0.3-0.4,0.6-0.7,0.9-1c0,0,0,0,0.1-0.1c0.3-0.4,0.7-0.7,1-1
			c0.2-0.2,0.4-0.4,0.7-0.6c0.1-0.1,0.1-0.1,0.2-0.2c0.3-0.3,0.6-0.5,0.9-0.8c0.1-0.1,0.2-0.1,0.2-0.2c0.2-0.2,0.4-0.4,0.7-0.6
			c0.1-0.1,0.2-0.2,0.3-0.3c0.2-0.2,0.4-0.3,0.6-0.5c0.1-0.1,0.2-0.2,0.4-0.3c0.2-0.1,0.4-0.3,0.6-0.4c0.1-0.1,0.2-0.2,0.4-0.2
			c0.2-0.1,0.4-0.3,0.6-0.4c0.1-0.1,0.2-0.1,0.3-0.2c0.3-0.2,0.6-0.4,1-0.6c0.4-0.2,0.8-0.5,1.3-0.7c0.1-0.1,0.2-0.1,0.4-0.2
			c0.3-0.2,0.6-0.3,1-0.4c0.1,0,0.2-0.1,0.3-0.1c0.3-0.1,0.6-0.2,0.9-0.3c0.1,0,0.1-0.1,0.2-0.1c0.4-0.1,0.7-0.2,1.1-0.3
			c0.2-0.1,0.4-0.1,0.6-0.2c0.1,0,0.2,0,0.3-0.1c0.3-0.1,0.6-0.1,0.9-0.2c0.3,0,0.5-0.1,0.8-0.1c0.1,0,0.2,0,0.3,0
			c0.2,0,0.4,0,0.6,0c0.1,0,0.2,0,0.3,0c0.2,0,0.4,0,0.6,0c0.1,0,0.1,0,0.2,0s0.1,0,0.2,0c0.3,0,0.6,0.1,0.9,0.1c0.1,0,0.2,0,0.3,0
			c0.3,0.1,0.7,0.1,1,0.2s0.6,0.2,0.9,0.3c0.1,0,0.2,0.1,0.3,0.1c0.3,0.1,0.5,0.2,0.7,0.4c0.1,0,0.2,0.1,0.2,0.1l-22.5-13.1
			c0,0-0.1,0-0.1-0.1c0,0-0.1,0-0.1-0.1c-0.2-0.1-0.5-0.2-0.7-0.4c0,0-0.1,0-0.1-0.1h-0.1c-0.3-0.1-0.6-0.2-0.9-0.3
			c-0.3-0.1-0.7-0.2-1-0.2h-0.1c-0.1,0-0.1,0-0.2,0c-0.3,0-0.6-0.1-0.9-0.1h-0.1h-0.1c-0.1,0-0.1,0-0.2,0c-0.2,0-0.4,0-0.6,0
			c-0.1,0-0.2,0-0.3,0s-0.1,0-0.2,0s-0.3,0-0.4,0s-0.2,0-0.3,0c-0.3,0-0.5,0.1-0.8,0.1c-0.3,0-0.6,0.1-0.9,0.2c-0.1,0-0.2,0-0.3,0.1
			c-0.2,0-0.4,0.1-0.6,0.1c0,0,0,0-0.1,0c-0.4,0.1-0.7,0.2-1.1,0.3c-0.1,0-0.1,0.1-0.2,0.1c-0.3,0.1-0.6,0.2-0.9,0.3h-0.1
			c-0.1,0-0.1,0.1-0.2,0.1c-0.3,0.1-0.6,0.3-0.9,0.4c-0.1,0.1-0.2,0.1-0.4,0.2c-0.4,0.2-0.8,0.4-1.3,0.7c-0.3,0.2-0.6,0.4-1,0.6
			c-0.1,0.1-0.2,0.1-0.3,0.2c-0.2,0.1-0.4,0.3-0.6,0.4c-0.1,0.1-0.2,0.2-0.4,0.2c-0.2,0.1-0.4,0.3-0.6,0.4c-0.1,0.1-0.2,0.2-0.4,0.3
			c-0.2,0.2-0.4,0.3-0.6,0.5c-0.1,0.1-0.2,0.2-0.3,0.3c-0.2,0.2-0.4,0.4-0.7,0.6c-0.1,0.1-0.2,0.1-0.2,0.2c-0.3,0.3-0.6,0.5-0.9,0.8
			c-0.1,0.1-0.1,0.1-0.2,0.2c-0.2,0.2-0.4,0.4-0.6,0.6l-0.1,0.1c-0.3,0.3-0.7,0.7-1,1c0,0,0,0-0.1,0.1c-0.3,0.3-0.6,0.7-0.9,1
			l-0.1,0.1l-0.1,0.1c-0.5,0.6-1,1.2-1.5,1.8c0,0,0,0,0,0.1l-0.1,0.1c-0.4,0.5-0.7,1-1.1,1.5c0,0.1-0.1,0.1-0.1,0.2c0,0,0,0,0,0.1
			c-0.3,0.5-0.7,1-1,1.5l-0.1,0.1c0,0.1-0.1,0.1-0.1,0.2c-0.3,0.4-0.5,0.8-0.8,1.3c0,0.1-0.1,0.1-0.1,0.2v0.1
			c-0.3,0.5-0.6,1-0.8,1.5c0,0,0,0.1-0.1,0.1c0,0.1-0.1,0.2-0.1,0.2c-0.2,0.4-0.4,0.8-0.6,1.2c0,0.1-0.1,0.2-0.1,0.2s0,0.1-0.1,0.2
			c-0.2,0.5-0.5,1-0.7,1.5c0,0.1,0,0.1-0.1,0.2c-0.2,0.5-0.4,0.9-0.6,1.4c0,0.1-0.1,0.2-0.1,0.2c0,0.1,0,0.1-0.1,0.2
			c-0.2,0.6-0.4,1.1-0.6,1.7v0.1c-0.2,0.6-0.4,1.1-0.5,1.7c0,0.1,0,0.1-0.1,0.2c0,0.1,0,0.1-0.1,0.2c0,0.2-0.1,0.3-0.1,0.5
			c-0.1,0.2-0.1,0.5-0.2,0.7c0,0.2-0.1,0.3-0.1,0.5c0,0.1-0.1,0.2-0.1,0.4c0,0.1,0,0.2,0,0.3c-0.1,0.3-0.1,0.5-0.2,0.8
			c0,0.2-0.1,0.4-0.1,0.5c0,0.3-0.1,0.5-0.1,0.8c0,0.1,0,0.3-0.1,0.4c0,0.1,0,0.1,0,0.2s0,0.2,0,0.4c0,0.3-0.1,0.5-0.1,0.8
			c0,0.1,0,0.3,0,0.4c0,0.3,0,0.5,0,0.8c0,0.1,0,0.2,0,0.3c0,0.4,0,0.7,0,1.1c0,6.3,2.2,10.7,5.8,12.8l22.5,13.1
			c-3.6-2.1-5.8-6.5-5.8-12.8c0-0.4,0-0.7,0-1.1C281.7,441.6,281.8,441.5,281.8,441.4z"/>
		<path class="st4" d="M293.3,393.9c0,0-0.1,0-0.1-0.1c0,0-0.1,0-0.1-0.1c-0.2-0.1-0.5-0.2-0.7-0.4c0,0-0.1,0-0.1-0.1h-0.1
			c-0.3-0.1-0.6-0.2-0.9-0.3c-0.3-0.1-0.7-0.2-1-0.2h-0.1c-0.1,0-0.1,0-0.2,0c-0.3,0-0.6-0.1-0.9-0.1H289h-0.1c-0.1,0-0.1,0-0.2,0
			c-0.2,0-0.4,0-0.6,0c-0.1,0-0.2,0-0.3,0c-0.1,0-0.1,0-0.2,0s-0.3,0-0.4,0c-0.1,0-0.2,0-0.3,0c-0.3,0-0.5,0.1-0.8,0.1
			c-0.3,0-0.6,0.1-0.9,0.2c-0.1,0-0.2,0-0.3,0.1c-0.2,0-0.4,0.1-0.6,0.1c0,0,0,0-0.1,0c-0.4,0.1-0.7,0.2-1.1,0.3
			c-0.1,0-0.1,0.1-0.2,0.1c-0.3,0.1-0.6,0.2-0.9,0.3h-0.1c-0.1,0-0.1,0.1-0.2,0.1c-0.3,0.1-0.6,0.3-0.9,0.4
			c-0.1,0.1-0.2,0.1-0.4,0.2c-0.4,0.2-0.8,0.4-1.3,0.7c-0.3,0.2-0.6,0.4-1,0.6c-0.1,0.1-0.2,0.1-0.3,0.2c-0.2,0.1-0.4,0.3-0.6,0.4
			c-0.1,0.1-0.2,0.2-0.4,0.2c-0.2,0.1-0.4,0.3-0.6,0.4c-0.1,0.1-0.2,0.2-0.4,0.3c-0.2,0.2-0.4,0.3-0.6,0.5c-0.1,0.1-0.2,0.2-0.3,0.3
			c-0.2,0.2-0.4,0.4-0.7,0.6c-0.1,0.1-0.2,0.1-0.2,0.2c-0.3,0.3-0.6,0.5-0.9,0.8c-0.1,0.1-0.1,0.1-0.2,0.2c-0.2,0.2-0.4,0.4-0.6,0.6
			l-0.1,0.1c-0.3,0.3-0.7,0.7-1,1c0,0,0,0-0.1,0.1c-0.3,0.3-0.6,0.7-0.9,1l-0.1,0.1l-0.1,0.1c-0.5,0.6-1,1.2-1.5,1.8c0,0,0,0,0,0.1
			l-0.1,0.1c-0.4,0.5-0.7,1-1.1,1.5c0,0.1-0.1,0.1-0.1,0.2c0,0,0,0,0,0.1c-0.3,0.5-0.7,1-1,1.5l-0.1,0.1c0,0.1-0.1,0.1-0.1,0.2
			c-0.3,0.4-0.5,0.8-0.8,1.3c0,0.1-0.1,0.1-0.1,0.2v0.1c-0.3,0.5-0.6,1-0.8,1.5c0,0,0,0.1-0.1,0.1c0,0.1-0.1,0.2-0.1,0.2
			c-0.2,0.4-0.4,0.8-0.6,1.2c0,0.1-0.1,0.2-0.1,0.2s0,0.1-0.1,0.2c-0.2,0.5-0.5,1-0.7,1.5c0,0.1,0,0.1-0.1,0.2
			c-0.2,0.5-0.4,0.9-0.6,1.4c0,0.1-0.1,0.2-0.1,0.2c0,0.1,0,0.1-0.1,0.2c-0.2,0.6-0.4,1.1-0.6,1.7v0.1c-0.2,0.6-0.4,1.1-0.5,1.7
			c0,0.1,0,0.1-0.1,0.2c0,0.1,0,0.1-0.1,0.2c0,0.2-0.1,0.3-0.1,0.5c-0.1,0.2-0.1,0.5-0.2,0.7c0,0.2-0.1,0.3-0.1,0.5
			c0,0.1-0.1,0.2-0.1,0.4c0,0.1,0,0.2,0,0.3c-0.1,0.3-0.1,0.5-0.2,0.8c0,0.2-0.1,0.4-0.1,0.5c0,0.3-0.1,0.5-0.1,0.8
			c0,0.1,0,0.3-0.1,0.4c0,0.1,0,0.1,0,0.2s0,0.2,0,0.4c0,0.3-0.1,0.5-0.1,0.8c0,0.1,0,0.3,0,0.4c0,0.3,0,0.5,0,0.8
			c0,0.1,0,0.2,0,0.3c0,0.4,0,0.7,0,1.1c0,6.3,2.2,10.7,5.8,12.8"/>
		<path class="st3" d="M301.6,408.4c11-6.4,20-1.3,20,11.4c0,12.7-8.9,28.1-19.9,34.4c-11,6.4-20,1.3-20-11.4
			C281.7,430.1,290.6,414.7,301.6,408.4z"/>
		<path class="st5" d="M362.6,453.6c0.2-0.1,0.4-0.2,0.6-0.2c0.1,0,0.3-0.1,0.4-0.1s0.2-0.1,0.4-0.1s0.3-0.1,0.5-0.1
			c0.1,0,0.2,0,0.3,0c0.2,0,0.4,0,0.6,0h0.1c0.2,0,0.5,0,0.7,0.1c0.1,0,0.1,0,0.2,0c0.2,0,0.3,0.1,0.5,0.1c0.1,0,0.1,0,0.2,0.1
			c0.2,0.1,0.4,0.2,0.6,0.3l-56.9-33.1c-0.1-0.1-0.3-0.2-0.5-0.2h-0.1c-0.1,0-0.1,0-0.2-0.1c-0.1,0-0.2-0.1-0.2-0.1
			c-0.1,0-0.2,0-0.3-0.1c-0.1,0-0.1,0-0.2,0h-0.1c-0.2,0-0.4-0.1-0.5-0.1h-0.1c-0.1,0-0.3,0-0.4,0c0,0-0.1,0-0.2,0s-0.2,0-0.3,0
			c-0.1,0-0.2,0-0.3,0s-0.2,0-0.2,0c-0.1,0-0.2,0-0.4,0.1c-0.1,0-0.1,0-0.2,0s-0.1,0.1-0.2,0.1c-0.2,0.1-0.4,0.1-0.6,0.2
			c-0.1,0-0.1,0-0.2,0.1c-0.1,0-0.2,0.1-0.2,0.1c-0.1,0-0.1,0.1-0.2,0.1c-0.3,0.1-0.6,0.3-0.8,0.4c-0.3,0.2-0.6,0.4-0.9,0.6
			c-0.1,0.1-0.2,0.1-0.3,0.2c-0.2,0.1-0.4,0.3-0.6,0.4c-0.1,0.1-0.2,0.2-0.3,0.3c-0.2,0.1-0.3,0.3-0.5,0.4c-0.1,0.1-0.2,0.2-0.3,0.3
			c-0.1,0.1-0.1,0.1-0.2,0.2c-0.1,0.1-0.1,0.1-0.2,0.2c-0.2,0.2-0.4,0.4-0.6,0.6c-0.1,0.1-0.1,0.1-0.2,0.2c-0.1,0.1-0.1,0.1-0.2,0.2
			c-0.1,0.1-0.2,0.3-0.4,0.4c-0.1,0.1-0.2,0.2-0.2,0.3c-0.1,0.1-0.1,0.2-0.2,0.2c-0.1,0.1-0.2,0.2-0.3,0.3s-0.1,0.2-0.2,0.2
			c-0.1,0.1-0.2,0.3-0.3,0.4s-0.1,0.2-0.2,0.3l-0.1,0.1c-0.2,0.3-0.3,0.5-0.5,0.8c0,0,0,0,0,0.1c0,0.1-0.1,0.1-0.1,0.2
			c-0.1,0.2-0.2,0.4-0.3,0.6c0,0.1-0.1,0.2-0.1,0.3s-0.1,0.2-0.1,0.3c0,0.1-0.1,0.2-0.1,0.2c-0.1,0.2-0.2,0.4-0.3,0.6
			c0,0,0,0.1-0.1,0.1c-0.1,0.3-0.2,0.5-0.3,0.8c0,0,0,0.1-0.1,0.1c0,0.1-0.1,0.2-0.1,0.3c0,0.1-0.1,0.3-0.1,0.4
			c0,0.1-0.1,0.2-0.1,0.3s-0.1,0.2-0.1,0.4c0,0.1,0,0.2-0.1,0.2c0,0.1-0.1,0.3-0.1,0.4c0,0.2-0.1,0.3-0.1,0.5c0,0.1,0,0.1,0,0.2
			c0,0.1,0,0.2-0.1,0.3c0,0.2-0.1,0.5-0.1,0.7c0,0.1,0,0.1,0,0.2c0,0.2,0,0.3,0,0.5c0,0.1,0,0.2,0,0.3c0,0.3,0,0.7,0,1
			c0,2.9,1,4.9,2.7,5.8l56.9,33.1c-1.6-0.9-2.6-3-2.7-5.8c0-0.3,0-0.7,0-1c0-0.1,0-0.2,0-0.3c0-0.2,0-0.4,0.1-0.7
			c0-0.2,0.1-0.5,0.1-0.7c0-0.2,0.1-0.3,0.1-0.5c0-0.2,0.1-0.3,0.1-0.5c0.1-0.2,0.1-0.4,0.2-0.6c0-0.1,0.1-0.3,0.1-0.4
			c0.1-0.2,0.2-0.5,0.2-0.7c0-0.1,0.1-0.2,0.1-0.3c0.1-0.3,0.3-0.7,0.4-1c0,0,0-0.1,0.1-0.1c0.1-0.3,0.3-0.6,0.4-0.9
			c0-0.1,0.1-0.2,0.1-0.3c0.1-0.3,0.3-0.5,0.4-0.8c0-0.1,0.1-0.1,0.1-0.2c0.2-0.3,0.4-0.6,0.6-0.9c0.1-0.1,0.1-0.2,0.2-0.3
			c0.1-0.2,0.3-0.4,0.4-0.6c0.1-0.1,0.2-0.2,0.3-0.3c0.1-0.2,0.3-0.4,0.4-0.5c0.1-0.1,0.2-0.3,0.4-0.4c0.1-0.1,0.2-0.3,0.3-0.4
			c0.2-0.2,0.4-0.4,0.6-0.6c0.1-0.1,0.3-0.3,0.4-0.4c0.1-0.1,0.2-0.2,0.3-0.3c0.2-0.2,0.3-0.3,0.5-0.4c0.1-0.1,0.2-0.2,0.3-0.3
			c0.2-0.1,0.4-0.3,0.6-0.4c0.1-0.1,0.2-0.1,0.3-0.2c0.3-0.2,0.6-0.4,0.9-0.6c0.3-0.2,0.6-0.3,0.8-0.4c0.1,0,0.1-0.1,0.2-0.1
			C362.3,453.7,362.4,453.6,362.6,453.6z"/>
		<path class="st8" d="M361.1,454.3c5-2.9,9.1-0.6,9.1,5.2s-4,12.8-9.1,15.7c-5,2.9-9.1,0.6-9.1-5.2S356,457.2,361.1,454.3z"/>
		<path class="st5" d="M342.7,476.5c0-0.3,0-0.5,0-0.8c0-0.1,0-0.3,0-0.4c0-0.3,0-0.5,0.1-0.8c0-0.1,0-0.2,0-0.4
			c0-0.2,0-0.4,0.1-0.5c0-0.3,0.1-0.5,0.1-0.8c0-0.2,0.1-0.4,0.1-0.5c0-0.3,0.1-0.5,0.2-0.8c0-0.2,0.1-0.4,0.1-0.6
			c0-0.2,0.1-0.3,0.1-0.5c0.1-0.2,0.1-0.5,0.2-0.7c0-0.2,0.1-0.3,0.1-0.5c0-0.1,0.1-0.3,0.1-0.4c0.2-0.6,0.3-1.1,0.5-1.7V467
			c0.2-0.6,0.4-1.1,0.6-1.7c0.1-0.1,0.1-0.3,0.2-0.4c0.2-0.5,0.4-0.9,0.6-1.4c0-0.1,0.1-0.1,0.1-0.2c0.2-0.5,0.5-1,0.7-1.5
			c0.1-0.1,0.1-0.3,0.2-0.4c0.2-0.4,0.4-0.8,0.6-1.2c0.1-0.1,0.1-0.2,0.2-0.4c0.3-0.5,0.5-1,0.8-1.5c0.1-0.1,0.1-0.2,0.2-0.3
			c0.3-0.4,0.5-0.8,0.8-1.3c0.1-0.1,0.2-0.2,0.2-0.4c0.3-0.5,0.7-1,1-1.5c0.1-0.1,0.1-0.1,0.2-0.2c0.4-0.5,0.7-1,1.1-1.5
			c0.1-0.1,0.1-0.1,0.2-0.2c0.5-0.6,1-1.2,1.5-1.8c0.1-0.1,0.1-0.2,0.2-0.2c0.3-0.4,0.6-0.7,0.9-1c0,0,0,0,0.1-0.1
			c0.3-0.4,0.7-0.7,1-1c0.2-0.2,0.4-0.4,0.7-0.6c0.1-0.1,0.1-0.1,0.2-0.2c0.3-0.3,0.6-0.5,0.9-0.8c0.1-0.1,0.2-0.1,0.2-0.2
			c0.2-0.2,0.4-0.4,0.7-0.6c0.1-0.1,0.2-0.2,0.3-0.3c0.2-0.2,0.4-0.3,0.6-0.5c0.1-0.1,0.2-0.2,0.4-0.3c0.2-0.1,0.4-0.3,0.6-0.4
			c0.1-0.1,0.2-0.2,0.4-0.2c0.2-0.1,0.4-0.3,0.6-0.4c0.1-0.1,0.2-0.1,0.3-0.2c0.3-0.2,0.6-0.4,1-0.6c0.4-0.2,0.8-0.5,1.3-0.7
			c0.1-0.1,0.2-0.1,0.4-0.2c0.3-0.2,0.6-0.3,1-0.4c0.1,0,0.2-0.1,0.3-0.1c0.3-0.1,0.6-0.2,0.9-0.3c0.1,0,0.1-0.1,0.2-0.1
			c0.4-0.1,0.7-0.2,1.1-0.3c0.2-0.1,0.4-0.1,0.6-0.2c0.1,0,0.2,0,0.3-0.1c0.3-0.1,0.6-0.1,0.9-0.2c0.3,0,0.5-0.1,0.8-0.1
			c0.1,0,0.2,0,0.3,0c0.2,0,0.4,0,0.6,0c0.1,0,0.2,0,0.3,0c0.2,0,0.4,0,0.6,0c0.1,0,0.1,0,0.2,0s0.1,0,0.2,0c0.3,0,0.6,0.1,0.9,0.1
			c0.1,0,0.2,0,0.3,0c0.3,0.1,0.7,0.1,1,0.2c0.3,0.1,0.6,0.2,0.9,0.3c0.1,0,0.2,0.1,0.3,0.1c0.3,0.1,0.5,0.2,0.7,0.4
			c0.1,0,0.2,0.1,0.2,0.1l-22.5-13.1c0,0-0.1,0-0.1-0.1c0,0-0.1,0-0.1-0.1c-0.2-0.1-0.5-0.2-0.7-0.4c0,0-0.1,0-0.1-0.1h-0.1
			c-0.3-0.1-0.6-0.2-0.9-0.3s-0.7-0.2-1-0.2h-0.1c-0.1,0-0.1,0-0.2,0c-0.3,0-0.6-0.1-0.9-0.1h-0.1h-0.1c-0.1,0-0.1,0-0.2,0
			c-0.2,0-0.4,0-0.6,0c-0.1,0-0.2,0-0.3,0s-0.1,0-0.2,0c-0.1,0-0.3,0-0.4,0s-0.2,0-0.3,0c-0.3,0-0.5,0.1-0.8,0.1
			c-0.3,0-0.6,0.1-0.9,0.2c-0.1,0-0.2,0-0.3,0.1c-0.2,0-0.4,0.1-0.6,0.1c0,0,0,0-0.1,0c-0.4,0.1-0.7,0.2-1.1,0.3
			c-0.1,0-0.1,0.1-0.2,0.1c-0.3,0.1-0.6,0.2-0.9,0.3h-0.1c-0.1,0-0.1,0.1-0.2,0.1c-0.3,0.1-0.6,0.3-0.9,0.4
			c-0.1,0.1-0.2,0.1-0.4,0.2c-0.4,0.2-0.8,0.4-1.3,0.7c-0.3,0.2-0.6,0.4-1,0.6c-0.1,0.1-0.2,0.1-0.3,0.2c-0.2,0.1-0.4,0.3-0.6,0.4
			c-0.1,0.1-0.2,0.2-0.4,0.2c-0.2,0.1-0.4,0.3-0.6,0.4c-0.1,0.1-0.2,0.2-0.4,0.3c-0.2,0.2-0.4,0.3-0.6,0.5c-0.1,0.1-0.2,0.2-0.3,0.3
			c-0.2,0.2-0.4,0.4-0.7,0.6c-0.1,0.1-0.2,0.1-0.2,0.2c-0.3,0.3-0.6,0.5-0.9,0.8c-0.1,0.1-0.1,0.1-0.2,0.2c-0.2,0.2-0.4,0.4-0.6,0.6
			l-0.1,0.1c-0.3,0.3-0.7,0.7-1,1c0,0,0,0-0.1,0.1c-0.3,0.3-0.6,0.7-0.9,1l-0.1,0.1l-0.1,0.1c-0.5,0.6-1,1.2-1.5,1.8c0,0,0,0,0,0.1
			l-0.1,0.1c-0.4,0.5-0.7,1-1.1,1.5c0,0.1-0.1,0.1-0.1,0.2c0,0,0,0,0,0.1c-0.3,0.5-0.7,1-1,1.5l-0.1,0.1c0,0.1-0.1,0.1-0.1,0.2
			c-0.3,0.4-0.5,0.8-0.8,1.3c0,0.1-0.1,0.1-0.1,0.2v0.1c-0.3,0.5-0.6,1-0.8,1.5c0,0,0,0.1-0.1,0.1c0,0.1-0.1,0.2-0.1,0.2
			c-0.2,0.4-0.4,0.8-0.6,1.2c0,0.1-0.1,0.2-0.1,0.2s0,0.1-0.1,0.2c-0.2,0.5-0.5,1-0.7,1.5c0,0.1,0,0.1-0.1,0.2
			c-0.2,0.5-0.4,0.9-0.6,1.4c0,0.1-0.1,0.2-0.1,0.2c0,0.1,0,0.1-0.1,0.2c-0.2,0.6-0.4,1.1-0.6,1.7v0.1c-0.2,0.6-0.4,1.1-0.5,1.7
			c0,0.1,0,0.1-0.1,0.2c0,0.1,0,0.1-0.1,0.2c0,0.2-0.1,0.3-0.1,0.5c-0.1,0.2-0.1,0.5-0.2,0.7c0,0.2-0.1,0.3-0.1,0.5
			c0,0.1-0.1,0.2-0.1,0.4c0,0.1,0,0.2,0,0.3c-0.1,0.3-0.1,0.5-0.2,0.8c0,0.2-0.1,0.4-0.1,0.5c0,0.3-0.1,0.5-0.1,0.8
			c0,0.1,0,0.3-0.1,0.4c0,0.1,0,0.1,0,0.2s0,0.2,0,0.4c0,0.3-0.1,0.5-0.1,0.8c0,0.1,0,0.3,0,0.4c0,0.3,0,0.5,0,0.8
			c0,0.1,0,0.2,0,0.3c0,0.4,0,0.7,0,1.1c0,6.3,2.2,10.7,5.8,12.8l22.5,13.1c-3.6-2.1-5.8-6.5-5.8-12.8c0-0.4,0-0.7,0-1.1
			C342.7,476.8,342.7,476.7,342.7,476.5z"/>
		<path class="st4" d="M354.3,429.1c0,0-0.1,0-0.1-0.1c0,0-0.1,0-0.1-0.1c-0.2-0.1-0.5-0.2-0.7-0.4c0,0-0.1,0-0.1-0.1h-0.1
			c-0.3-0.1-0.6-0.2-0.9-0.3c-0.3-0.1-0.7-0.2-1-0.2h-0.1c-0.1,0-0.1,0-0.2,0c-0.3,0-0.6-0.1-0.9-0.1H350h-0.1c-0.1,0-0.1,0-0.2,0
			c-0.2,0-0.4,0-0.6,0c-0.1,0-0.2,0-0.3,0c-0.1,0-0.1,0-0.2,0s-0.3,0-0.4,0c-0.1,0-0.2,0-0.3,0c-0.3,0-0.5,0.1-0.8,0.1
			c-0.3,0-0.6,0.1-0.9,0.2c-0.1,0-0.2,0-0.3,0.1c-0.2,0-0.4,0.1-0.6,0.1c0,0,0,0-0.1,0c-0.4,0.1-0.7,0.2-1.1,0.3
			c-0.1,0-0.1,0.1-0.2,0.1c-0.3,0.1-0.6,0.2-0.9,0.3h-0.1c-0.1,0-0.1,0.1-0.2,0.1c-0.3,0.1-0.6,0.3-0.9,0.4
			c-0.1,0.1-0.2,0.1-0.4,0.2c-0.4,0.2-0.8,0.4-1.3,0.7c-0.3,0.2-0.6,0.4-1,0.6c-0.1,0.1-0.2,0.1-0.3,0.2c-0.2,0.1-0.4,0.3-0.6,0.4
			c-0.1,0.1-0.2,0.2-0.4,0.2c-0.2,0.1-0.4,0.3-0.6,0.4c-0.1,0.1-0.2,0.2-0.4,0.3c-0.2,0.2-0.4,0.3-0.6,0.5c-0.1,0.1-0.2,0.2-0.3,0.3
			c-0.2,0.2-0.4,0.4-0.7,0.6c-0.1,0.1-0.2,0.1-0.2,0.2c-0.3,0.3-0.6,0.5-0.9,0.8c-0.1,0.1-0.1,0.1-0.2,0.2c-0.2,0.2-0.4,0.4-0.6,0.6
			l-0.1,0.1c-0.3,0.3-0.7,0.7-1,1c0,0,0,0-0.1,0.1c-0.3,0.3-0.6,0.7-0.9,1l-0.1,0.1l-0.1,0.1c-0.5,0.6-1,1.2-1.5,1.8c0,0,0,0,0,0.1
			l-0.1,0.1c-0.4,0.5-0.7,1-1.1,1.5c0,0.1-0.1,0.1-0.1,0.2c0,0,0,0,0,0.1c-0.3,0.5-0.7,1-1,1.5l-0.1,0.1c0,0.1-0.1,0.1-0.1,0.2
			c-0.3,0.4-0.5,0.8-0.8,1.3c0,0.1-0.1,0.1-0.1,0.2v0.1c-0.3,0.5-0.6,1-0.8,1.5c0,0,0,0.1-0.1,0.1c0,0.1-0.1,0.2-0.1,0.2
			c-0.2,0.4-0.4,0.8-0.6,1.2c0,0.1-0.1,0.2-0.1,0.2s0,0.1-0.1,0.2c-0.2,0.5-0.5,1-0.7,1.5c0,0.1,0,0.1-0.1,0.2
			c-0.2,0.5-0.4,0.9-0.6,1.4c0,0.1-0.1,0.2-0.1,0.2c0,0.1,0,0.1-0.1,0.2c-0.2,0.6-0.4,1.1-0.6,1.7v0.1c-0.2,0.6-0.4,1.1-0.5,1.7
			c0,0.1,0,0.1-0.1,0.2c0,0.1,0,0.1-0.1,0.2c0,0.2-0.1,0.3-0.1,0.5c-0.1,0.2-0.1,0.5-0.2,0.7c0,0.2-0.1,0.3-0.1,0.5
			c0,0.1-0.1,0.2-0.1,0.4c0,0.1,0,0.2,0,0.3c-0.1,0.3-0.1,0.5-0.2,0.8c0,0.2-0.1,0.4-0.1,0.5c0,0.3-0.1,0.5-0.1,0.8
			c0,0.1,0,0.3-0.1,0.4c0,0.1,0,0.1,0,0.2c0,0.1,0,0.2,0,0.4c0,0.3-0.1,0.5-0.1,0.8c0,0.1,0,0.3,0,0.4c0,0.3,0,0.5,0,0.8
			c0,0.1,0,0.2,0,0.3c0,0.4,0,0.7,0,1.1c0,6.3,2.2,10.7,5.8,12.8"/>
		<path class="st3" d="M362.6,443.5c11-6.4,20-1.3,20,11.4c0,12.7-8.9,28.1-19.9,34.4c-11,6.4-20,1.3-20-11.4
			C342.7,465.3,351.6,449.9,362.6,443.5z"/>
	</g>
</g>
</svg>
