<?xml version="1.0" encoding="utf-8"?>
<!-- Generator: Adobe Illustrator 22.1.0, SVG Export Plug-In . SVG Version: 6.00 Build 0)  -->
<svg version="1.1" id="Слой_1" xmlns="http://www.w3.org/2000/svg" xmlns:xlink="http://www.w3.org/1999/xlink" x="0px" y="0px"
	 viewBox="0 0 489.6 461.4" style="enable-background:new 0 0 489.6 461.4;" xml:space="preserve">
<style type="text/css">
	.st0{fill:#FFFFFF;stroke:#171A21;stroke-width:2;}
	.st1{fill:#2F58FF;}
	.st2{fill:#FFFFFF;}
</style>
<g>
	<g>
		<g>
			<path class="st0" d="M306,375c-1.6,0-2.9-0.6-3.8-1.8c-1.6-2.1-2-6-0.8-10.3c2.2-8.4,14.9-39.9,18-47.5L218.3,331l-37.7,3.1h-0.1
				c-0.3,0-0.6-0.2-0.8-0.4l-9.9-13.8l-0.1-0.1c-0.7-1.4-1.5-2.9-2.3-4.3c-5.9-11.2-11-20.8-8.6-24.6c0.5-0.8,1.4-1.7,3.4-1.7
				c5.5,0,17.5,6.7,37.8,21c4.2,3,7.8,4.8,12.3,4.8c3,0,6.4-0.8,10.8-2.4c8.9-3.4,73-27.1,84.5-31.1c-11.3-6.6-96.1-41.9-102.2-44
				c-6.6-2.3-10.7-7.2-9.9-12c0.6-3.4,3.9-7,11.6-7c2,0,4.2,0.2,6.5,0.7c8.6,1.8,71.5,20.5,109,31.6c14,4.2,24.2,7.2,25.6,7.6
				c1,0.3,2,0.5,3,0.7c8.8-2.4,9.1-2.4,9.3-2.4c1.7,0,3.2,1.5,4.1,4.1c6.3-1.2,11.6-3,14.8-4.2h0.1c2.9-1,7.1-2.5,12.1-4.3
				c16.7-6,41.9-15.1,49.3-17.2c2.7-0.8,5.5-1.2,8.2-1.2c6.3,0,11.7,2.1,16.2,4.1c1.4,0.6,5.3,0.7,9.5,0.8c1.6,0,3.2,0.1,4.9,0.2
				c3.5,0.1,7.8,2.9,8.7,7.3c0.6,3,0.1,8.8-10.8,14.4c-9.7,4.9-34.8,12.2-57,18.6c-16.2,4.7-33,9.6-34.5,11
				c-1.8,1.8-7.2,8.2-14.1,16.4c-3.2,3.8-6.8,8-10.5,12.5c13.7-3.8,13.8-3.8,14-3.8c2.8,0,4.9,3.9,4.9,9.2c0,5.2-2.1,9.1-4.8,9.2
				l-29.6,3.6c-14.2,16.3-24.4,27.2-31.3,33.3C311.5,373.5,308.5,375,306,375z"/>
			<path class="st1" d="M173.6,340.3c-3.3-4.9-15.3-13.1-24-19.5c-8.6-6.4-3.3-13.1,16.7-6.4c0,0,28.7,8.9,34.3,10s8.9,4.2,22-1.4
				s82.2-28.4,88.1-31.2c5.9-2.8,0.6-5.9-18.7-15c-19.2-9.2-74-34.8-81.9-38.5c-6.1-2.8-12.5-17,12.8-7.2s139.3,42,147.7,43.7
				s18.7-1.9,35.5-7.2c14.9-4.7,47.3-13,62.1-17.6c14.8-4.6,20.5,3.6,10.7,9.5c-17.1,10.2-76.1,33.7-83.1,36.5s-14,11.6-17.8,15.6
				c-6,6.2-51.3,50.2-62.1,58c-9.5,6.8-9.5-3.1-2.2-19c5.9-12.9,8.6-19.8,10-26.2c1.1-4.9-17.6,0-26.5,1.7s-79.8,13.1-86.4,14.9
				c-5.4,1.5-8.8,2.3-18.7,13c-6.1,6.6-14.8,12-16.2,2.8C174.7,347.5,176,343.8,173.6,340.3z"/>
			<path class="st1" d="M457.6,239.8c-6.7-5-21.8,2.2-21.8,2.2l2,3.1L457.6,239.8z"/>
			<path class="st2" d="M360.8,257.5c-0.3,0-37.6,10.5-37.6,10.5c-1.4,0-2.5,2.3-2.5,5.2s1.1,5.2,2.5,5.2c0.1,0,0.2,0,0.3,0
				l37.4-4.6c2.1,0,3.9-3.6,3.9-8.2S362.9,257.5,360.8,257.5z"/>
			<path class="st1" d="M360.8,270.8c1.3,0,2.4-2.3,2.4-5.1c0-2.8-1.1-5.1-2.4-5.1s-2.4,2.3-2.4,5.1S359.4,270.8,360.8,270.8z"/>
			<path class="st2" d="M375.8,316.1c-0.3,0-37.6,10.5-37.6,10.5c-1.4,0-2.5,2.3-2.5,5.2c0,2.9,1.1,5.2,2.5,5.2c0.1,0,0.2,0,0.3,0
				l37.4-4.6c2.1,0,3.9-3.6,3.9-8.2S378,316.1,375.8,316.1z"/>
			<path class="st1" d="M375.8,329.3c1.3,0,2.4-2.3,2.4-5.1c0-2.8-1.1-5.1-2.4-5.1s-2.4,2.3-2.4,5.1S374.4,329.3,375.8,329.3z"/>
		</g>
	</g>
</g>
</svg>
