<?xml version="1.0" encoding="utf-8"?>
<!-- Generator: Adobe Illustrator 22.1.0, SVG Export Plug-In . SVG Version: 6.00 Build 0)  -->
<svg version="1.1" id="Слой_1" xmlns="http://www.w3.org/2000/svg" xmlns:xlink="http://www.w3.org/1999/xlink" x="0px" y="0px"
	 viewBox="0 0 489.6 461.4" style="enable-background:new 0 0 489.6 461.4;" xml:space="preserve">
<style type="text/css">
	.st0{fill:#F1F9FD;}
	.st1{fill:#9AF4DC;}
	.st2{fill:#98A2F4;}
	.st3{fill:none;stroke:#171A21;stroke-width:2;stroke-linecap:round;stroke-linejoin:round;}
	.st4{fill:none;stroke:#171A21;stroke-width:2;stroke-linecap:round;stroke-linejoin:round;stroke-dasharray:12,12;}
	
		.st5{fill:none;stroke:#171A21;stroke-width:2;stroke-linecap:round;stroke-linejoin:round;stroke-miterlimit:10;stroke-dasharray:12,12;}
</style>
<path class="st0" d="M167.6,15.7C119.3-18.8,6.5,3.4,0.2,83.4c-3.8,49.1,37.7,78.4,13.4,180s72,218.6,235,194.9
	c98.3-14.3,189.7-89.2,187.2-162.1s-43.3-117.6-109.8-147C259.6,119.8,215.9,50.2,167.6,15.7z"/>
<g>
	<g>
		<g>
			<path class="st1" d="M248.7,307.5c67.3,0,121.9-54.6,121.9-121.9S316,63.7,248.7,63.7s-121.9,54.6-121.9,121.9
				C126.8,252.9,181.3,307.5,248.7,307.5z"/>
			<path class="st2" d="M370.6,185.6c0,8.8-1,17.5-2.7,25.8c-12.9,6.2-16.9,21.5-32.3,13.7c-12.2-6.2-3-18.1-10.4-22.5
				c-12.1-7.3-16.7,3.2-29.2,2c-21.7-2.1-12.2-24.1-41-41c-8.3-4.8-29-1.7-31.9-14.3c-3.4-14.5,22.1-13.8,27.6-19.9
				c4.6-5.1-3.2-16,1.1-20.2c9.6-9.5,18.8,2.2,40.6-5.2c12.5-4.2,12.7-19.8,15.9-22c0.8-0.5,1.6-1,2.4-1.4
				C346.5,101.8,370.6,140.8,370.6,185.6z M163.6,272.9c10.1-0.8,8.8-17,11.6-27c1.7-6,10.5-10.5,9.7-17.6
				c-0.8-7.4-12-11.9-12.1-19.2c-0.3-13,19.1-16.7,15.4-29.2c-1.9-6.3-12.1-7.7-15.8-10.8c-4-3.3-7.5-13.3-12.1-21.5
				c-5.3-9.3-11.8-14.5-19.4-19.1c-9,17-14.1,36.4-14.1,57C126.8,219.8,140.9,250.7,163.6,272.9z M303.4,294.5c0,0,0-0.1-0.1-0.1
				c-2.3-3.6-6.3-6.1-10.4-7.2c-1.8-0.5-3.6-0.8-5.3-1.7c-3.7-1.9-5.7-6.3-9.5-7.8c-3.6-1.4-7.8,0.4-10.7,2.9
				c-3,2.5-5.2,5.8-8.3,8.2c-5,4-11.6,5.4-18,5.6c-5.4,0.1-10.8-0.5-16,0.9c-4.1,1.1-8,3.9-9.6,7.6c10.5,3,21.6,4.6,33.1,4.6
				C268.4,307.5,287,302.8,303.4,294.5z"/>
			<path class="st3" d="M200,297.3c-1.7,1.1-3.4,2.1-5.1,3.2"/>
			<path class="st3" d="M367.6,140.8c-1.2,1.6-2.3,3.2-3.5,4.8"/>
			<path class="st4" d="M184.5,306.5c-42,23.8-75.6,31.8-88.5,17.9C73.5,300,123.1,217.8,206.7,140.6
				c83.6-77.1,169.6-119.8,192.1-95.4c13.3,14.4,1.4,48.9-27.7,90.7"/>
			<path class="st5" d="M150.9,259.1c-58.1,2.5-99.3-7.1-104.1-27.9c-7.5-32.3,76.3-79.3,187.1-104.9s206.7-20.3,214.2,12.1
				c4.7,20.5-27.2,46.9-79.5,70"/>
		</g>
	</g>
</g>
</svg>
