<?xml version="1.0" encoding="utf-8"?>
<!-- Generator: Adobe Illustrator 22.1.0, SVG Export Plug-In . SVG Version: 6.00 Build 0)  -->
<svg version="1.1" id="Слой_1" xmlns="http://www.w3.org/2000/svg" xmlns:xlink="http://www.w3.org/1999/xlink" x="0px" y="0px"
	 viewBox="0 0 489.6 461.4" style="enable-background:new 0 0 489.6 461.4;" xml:space="preserve">
<style type="text/css">
	.st0{fill:#FFFFFF;stroke:#171A21;stroke-width:2;}
	.st1{fill:#FFFFFF;stroke:#171A21;stroke-width:2;stroke-linecap:round;stroke-linejoin:round;stroke-miterlimit:10;}
	.st2{fill:#2F58FF;}
</style>
<g>
	<g>
		<g>
			<path class="st0" d="M217.6,68.1c-0.2,0-0.3,0-0.5,0c-0.1,0-0.1,0-0.1,0h-0.1c-0.2,0-0.5-0.1-0.7-0.1H216c-0.2,0-0.3-0.1-0.5-0.1
				l-0.2-0.1l0.3-1l-0.4,1c-0.1,0-0.1-0.1-0.2-0.1c0,0-0.1,0-0.1-0.1c-0.1,0-0.2-0.1-0.4-0.2l-0.2-0.1c-0.2-0.1-0.4-0.2-0.6-0.4
				l-10.1-6.8c-0.5-0.3-0.6-1-0.3-1.5c0.2-0.3,0.5-0.5,0.9-0.5c0.2,0,0.4,0.1,0.6,0.2c0.1,0.1,0.3,0.2,0.4,0.2l0.1,0.1
				c0.1,0,0.2,0.1,0.3,0.1s0.2,0.1,0.2,0.1l-0.2,1.1l0.3-1c0.1,0,0.2,0.1,0.3,0.1h0.1c0.2,0,0.4,0.1,0.6,0.1h0.2c0.1,0,0.2,0,0.3,0
				h0.2c0.1,0,0.2,0,0.3,0h0.2l0.5-0.1c0,0,0.4-0.1,0.5-0.1l0.2-0.1c0.1,0,0.2-0.1,0.3-0.1l0.2-0.1c0.1,0,0.2-0.1,0.4-0.1
				c0.1,0,0.1-0.1,0.2-0.1c0.2-0.1,0.4-0.3,0.8-0.3c0.1-0.1,0.2-0.1,0.4-0.2l0.2-0.1c0.1-0.1,0.3-0.1,0.4-0.2l0.2-0.1
				c0.2-0.1,0.4-0.2,0.5-0.3c0.2-0.1,0.4-0.3,0.6-0.4c0.2-0.2,0.4-0.3,0.6-0.5c0,0,0.5-0.4,0.6-0.5l0.6-0.5l0.3-0.2l0.6-0.6l0.6-0.6
				l0.6-0.6l0.6-0.7c0.1-0.2,0.5-0.7,0.5-0.7c0.2-0.2,0.4-0.5,0.5-0.7l0.9,0.5l-0.9-0.6c0.1-0.2,0.3-0.4,0.4-0.6
				c0.2-0.3,0.4-0.5,0.5-0.8c0.3-0.4,0.5-0.8,0.7-1.2l0.1-0.2c0.3-0.5,0.6-1,0.8-1.6l0.1-0.2c0.2-0.4,0.4-0.7,0.5-1.1l0.4-0.9
				c0.1-0.2,0.4-0.8,0.4-0.8c0.1-0.3,0.2-0.5,0.3-0.8c0,0,0.2-0.6,0.3-0.8l0.4-1.1c0.1-0.3,0.2-0.5,0.2-0.8c0.1-0.3,0.2-0.6,0.3-0.9
				l0.2-0.9c0,0,0.2-0.7,0.2-0.9l0.1-0.3c0-0.2,0.2-0.9,0.2-0.9c0-0.2,0.1-0.5,0.1-0.7h1.1l-1.1-0.1c0-0.3,0.1-0.6,0.1-0.8
				c0,0,0.1-0.6,0.1-0.8v-0.3c0-0.2,0-0.8,0-0.8c0-0.3,0-0.5,0-0.8s0-0.5,0-0.8V31c0-0.2,0-0.4,0-0.5l-0.1-0.7v-0.3l-0.1-0.4
				l-0.1-0.3l-0.1-0.3c0-0.1-0.1-0.3-0.1-0.4l-0.1-0.3c0-0.1-0.1-0.3-0.1-0.4l-0.1-0.2c-0.1-0.2-0.2-0.5-0.3-0.7
				c-0.2-0.4-0.3-0.6-0.4-0.9c-0.2-0.3-0.3-0.5-0.4-0.7l-0.1-0.1c-0.1-0.2-0.3-0.3-0.4-0.5c-0.2-0.2-0.3-0.3-0.5-0.5l-0.1-0.1
				c-0.2-0.1-0.3-0.3-0.5-0.4c-0.5-0.3-0.6-1-0.3-1.5c0.2-0.3,0.5-0.5,0.9-0.5c0.2,0,0.4,0.1,0.6,0.2l10.1,6.8
				c0.2,0.2,0.5,0.3,0.7,0.5l0.2,0.1c0.2,0.2,0.4,0.4,0.6,0.6c0.2,0.3,0.4,0.5,0.6,0.7l0.1,0.2c0.2,0.2,0.3,0.5,0.5,0.8l0.1,0.1
				c0.2,0.3,0.3,0.6,0.5,1c0,0,0,0.1,0.1,0.1c0.1,0.2,0.2,0.5,0.3,0.8v0.1v0.1c0.1,0.2,0.1,0.4,0.2,0.6v0.1l0.2,0.8l0.1,0.8l0.1,0.8
				l0.1,0.8V38c0,0.1,0,0.2-0.1,0.4c0,0.1,0,0.1,0,0.2s0,0.2,0,0.2c0,0.1,0,0.2,0,0.3s0,0.2,0,0.4c0,0.1,0,0.2,0,0.3
				c0,0.2,0,0.2,0,0.3v0.3v0.8l-0.1,0.7c0,0.3-0.1,0.6-0.1,0.9l-0.1,0.9l-0.2,0.9l-0.1,0.6l-0.2,0.9l-0.1,0.4l-1.1-0.1l1,0.3
				l-0.1,0.3c-0.1,0.2-0.1,0.5-0.2,0.8c0,0-0.2,0.6-0.2,0.8l-1.1-0.2l1,0.3l-0.3,0.9l-0.2,0.5l-0.2,0.7c-0.1,0.3-0.2,0.6-0.3,0.8
				l-0.4,0.9l-0.4,0.9c-0.2,0.5-0.4,0.9-0.6,1.3l-0.1,0.1l-1-0.4l1,0.5c-0.3,0.6-0.6,1.1-0.9,1.6v0.1l-0.1,0.1
				c-0.3,0.5-0.5,0.9-0.8,1.3c-0.2,0.3-0.4,0.6-0.6,0.9c-0.2,0.3-0.3,0.5-0.5,0.7c0,0-0.1,0.1-0.1,0.2c-0.1,0.2-0.3,0.4-0.5,0.7
				l-0.5,0.7l-0.6,0.7l-0.7,0.7l-0.5,0.6l-0.6,0.6l-0.6,0.6l-0.6,0.5l-0.3,0.3l-0.8-0.8l0.7,0.8l-0.1,0.1c-0.3,0.2-0.4,0.4-0.6,0.5
				c-0.2,0.2-0.4,0.3-0.6,0.4c0,0-0.4,0.3-0.6,0.4l-0.6,0.3l-0.2,0.1l-0.6-0.9l0.4,1l-0.2,0.1c-0.2,0.1-0.4,0.2-0.6,0.3
				c-0.2,0.1-0.4,0.2-0.6,0.2l-0.6,0.2l-0.6,0.2l-0.6,0.2h-0.2l-0.3-1l0.2,1.1l-0.3,0.1c-0.1,0-0.7,0.1-0.7,0.1h-0.2
				c-0.2,0-0.3,0-0.4,0h-0.1C217.8,68.1,217.6,68.1,217.6,68.1z"/>
			<path class="st1" d="M186.5,54.7c0-0.2,0-0.3,0-0.5s0-0.4,0-0.6c0-0.1,0-0.2,0-0.4c0-0.3,0.1-0.5,0.1-0.8c0-0.2,0-0.3,0-0.5
				c0-0.1,0-0.1,0-0.2c0.1-0.5,0.1-1,0.2-1.5c0-0.1,0-0.1,0-0.2c0.1-0.4,0.1-0.8,0.2-1.2c0-0.1,0-0.1,0-0.2c0-0.2,0.1-0.4,0.1-0.6
				c0-0.2,0.1-0.5,0.1-0.7c0-0.1,0.1-0.3,0.1-0.4c0-0.2,0.1-0.4,0.1-0.6c0-0.2,0.1-0.3,0.1-0.5s0.1-0.4,0.1-0.6
				c0.1-0.2,0.1-0.4,0.2-0.6c0-0.1,0.1-0.2,0.1-0.3c0.1-0.3,0.2-0.6,0.2-0.8c0.1-0.2,0.1-0.4,0.1-0.5s0-0.1,0-0.2
				c0.1-0.5,0.3-1,0.5-1.5v-0.1c0.1-0.4,0.3-0.9,0.4-1.3c0-0.1,0-0.1,0.1-0.2c0.1-0.2,0.1-0.3,0.2-0.5c0.1-0.2,0.2-0.5,0.3-0.7
				c0.1-0.1,0.1-0.3,0.2-0.4c0.1-0.2,0.1-0.4,0.2-0.6c0.1-0.1,0.1-0.3,0.2-0.4c0.1-0.3,0.2-0.5,0.3-0.8c0.1-0.1,0.1-0.3,0.2-0.4
				c0-0.1,0-0.1,0.1-0.2c0.2-0.5,0.4-0.9,0.6-1.4c0,0,0,0,0-0.1c0.1-0.1,0.1-0.2,0.2-0.4c0.2-0.4,0.3-0.7,0.5-1.1
				c0-0.1,0.1-0.1,0.1-0.2c0.1-0.3,0.3-0.6,0.4-0.9c0.1-0.2,0.2-0.5,0.3-0.7c0,0,0-0.1,0.1-0.1c0.4-0.7,0.8-1.5,1.2-2.2
				c0-0.1,0.1-0.1,0.1-0.2c0.1-0.2,0.2-0.4,0.3-0.6c0.2-0.3,0.3-0.6,0.5-0.9s0.3-0.5,0.5-0.8s0.4-0.6,0.5-0.9
				c0.1-0.1,0.1-0.2,0.2-0.3c0.1-0.1,0.1-0.2,0.2-0.3c0.5-0.8,1-1.6,1.5-2.3c0.4-0.5,0.8-1.1,1.1-1.6c0,0,0,0,0.1-0.1
				c0.3-0.4,0.6-0.8,0.9-1.1c0.1-0.1,0.1-0.2,0.2-0.2c0.3-0.4,0.7-0.9,1.1-1.3c0,0,0,0,0.1-0.1s0.2-0.3,0.3-0.4
				c0.2-0.3,0.4-0.5,0.7-0.8l0.1-0.1c0.2-0.2,0.3-0.3,0.5-0.5c0.2-0.2,0.3-0.4,0.5-0.6c0.1-0.1,0.1-0.1,0.2-0.2
				c0.2-0.2,0.3-0.4,0.5-0.5c0.1-0.2,0.3-0.3,0.4-0.5c0.1-0.1,0.2-0.2,0.3-0.3c0.2-0.2,0.4-0.4,0.6-0.5c0.1-0.1,0.3-0.3,0.4-0.4
				c0.1-0.1,0.2-0.2,0.3-0.3c0.2-0.2,0.4-0.3,0.6-0.5c0.1-0.1,0.2-0.2,0.3-0.3s0.2-0.2,0.4-0.3c0.2-0.2,0.4-0.3,0.6-0.5
				c0.1-0.1,0.2-0.2,0.3-0.2c0.2-0.1,0.3-0.3,0.5-0.4c0.2-0.1,0.3-0.3,0.5-0.4c0.1-0.1,0.1-0.1,0.2-0.2c0.2-0.2,0.4-0.3,0.6-0.5
				c0.1-0.1,0.3-0.2,0.4-0.3l0.1-0.1c0.4-0.3,0.8-0.5,1.2-0.8c0,0,0.1,0,0.1-0.1c0.3-0.2,0.7-0.5,1.1-0.7c0.1-0.1,0.2-0.1,0.3-0.2
				c0.3-0.2,0.6-0.4,0.9-0.5c0,0,0.1,0,0.1-0.1c0.3-0.2,0.7-0.4,1-0.5c0.1,0,0.1-0.1,0.2-0.1c0.1-0.1,0.3-0.1,0.4-0.2
				c0.2-0.1,0.3-0.2,0.5-0.2c0.1-0.1,0.2-0.1,0.3-0.2c0.2-0.1,0.3-0.1,0.5-0.2c0.1,0,0.2-0.1,0.3-0.1c0.2-0.1,0.3-0.1,0.5-0.2
				c0.1-0.1,0.3-0.1,0.4-0.2c0.1,0,0.1,0,0.2-0.1c0.2-0.1,0.5-0.2,0.7-0.2c0.1,0,0.2-0.1,0.3-0.1c0,0,0,0,0.1,0
				c0.4-0.1,0.7-0.2,1.1-0.3c0.1,0,0.1,0,0.2,0c0.3-0.1,0.6-0.2,0.9-0.2c0,0,0,0,0.1,0c0.2,0,0.4-0.1,0.5-0.1c0.2,0,0.4-0.1,0.6-0.1
				c0,0,0,0,0.1,0c0.2,0,0.4,0,0.7-0.1c0.2,0,0.3,0,0.5-0.1c0,0,2.4,0,3.5,0.2c0.3,0,0.5,0.1,0.8,0.1h0.1c0.1,0,0.3,0.1,0.4,0.1
				c0.2,0,0.4,0.1,0.6,0.2c0.1,0,0.3,0.1,0.4,0.1c0.1,0,0.2,0.1,0.3,0.1s0.1,0.1,0.2,0.1c0.3,0.1,0.5,0.2,0.7,0.3
				c0.1,0.1,0.2,0.1,0.3,0.2c0.3,0.2,0.7,0.4,1,0.6l10.1,6.3c-0.3-0.2-0.7-0.4-1-0.6c-0.1-0.1-0.2-0.1-0.3-0.2
				c-0.2-0.1-0.5-0.2-0.7-0.3s-0.3-0.1-0.5-0.2c-0.1,0-0.3-0.1-0.4-0.1c-0.2-0.1-0.4-0.1-0.6-0.2c-0.1,0-0.3-0.1-0.4-0.1
				c-0.3-0.1-0.6-0.1-0.9-0.2c-0.3,0-0.6-0.1-1-0.1c-0.1,0-0.1,0-0.2,0c-0.3,0-0.7,0-1,0c-0.4,0-0.8,0-1.2,0c-0.2,0-0.4,0-0.5,0.1
				c-0.2,0-0.4,0-0.7,0.1c-0.2,0-0.4,0.1-0.7,0.1c-0.2,0-0.4,0.1-0.5,0.1c-0.3,0.1-0.7,0.1-1,0.2c-0.1,0-0.1,0-0.2,0
				c-0.4,0.1-0.8,0.2-1.2,0.4c-0.1,0-0.2,0.1-0.3,0.1c-0.3,0.1-0.6,0.2-0.9,0.3c-0.1,0.1-0.3,0.1-0.4,0.2c-0.3,0.1-0.5,0.2-0.8,0.3
				c-0.1,0.1-0.3,0.1-0.5,0.2c-0.3,0.1-0.5,0.3-0.8,0.4c-0.1,0.1-0.3,0.1-0.4,0.2c-0.4,0.2-0.8,0.4-1.2,0.6c-0.3,0.2-0.7,0.4-1,0.6
				c-0.4,0.3-0.9,0.6-1.3,0.9c0,0-0.1,0-0.1,0.1c-0.4,0.3-0.9,0.6-1.3,0.9c-0.1,0.1-0.3,0.2-0.4,0.3c-0.3,0.2-0.6,0.4-0.8,0.7
				c-0.2,0.1-0.3,0.3-0.5,0.4c-0.3,0.2-0.5,0.4-0.8,0.6c-0.2,0.2-0.4,0.3-0.6,0.5c-0.2,0.2-0.5,0.4-0.7,0.6s-0.4,0.3-0.6,0.5
				c-0.2,0.2-0.5,0.4-0.7,0.7c-0.2,0.2-0.4,0.4-0.6,0.5c-0.2,0.2-0.5,0.5-0.7,0.7s-0.3,0.4-0.5,0.5c-0.2,0.3-0.5,0.5-0.7,0.8
				c-0.2,0.2-0.3,0.3-0.5,0.5c-0.3,0.3-0.5,0.6-0.8,0.9c-0.1,0.1-0.2,0.3-0.3,0.4c-0.4,0.5-0.7,0.9-1.1,1.4
				c-0.1,0.1-0.1,0.2-0.2,0.2c-0.3,0.4-0.6,0.8-0.9,1.2c-0.4,0.5-0.8,1.1-1.1,1.6c-0.5,0.8-1,1.5-1.5,2.3c-0.1,0.2-0.2,0.4-0.4,0.6
				c-0.2,0.3-0.4,0.6-0.5,0.9c-0.2,0.3-0.3,0.5-0.5,0.8s-0.3,0.6-0.5,0.9c-0.1,0.2-0.3,0.5-0.4,0.7c-0.4,0.7-0.8,1.5-1.2,2.2
				c-0.1,0.3-0.3,0.6-0.4,0.8c-0.1,0.3-0.3,0.6-0.4,0.9c-0.2,0.4-0.4,0.8-0.6,1.3c-0.1,0.1-0.1,0.2-0.2,0.4
				c-0.2,0.5-0.5,1.1-0.7,1.6c-0.1,0.1-0.1,0.3-0.2,0.4c-0.2,0.4-0.3,0.8-0.5,1.2c-0.1,0.2-0.1,0.4-0.2,0.6
				c-0.1,0.4-0.3,0.8-0.4,1.2c-0.1,0.2-0.1,0.3-0.2,0.5c-0.2,0.5-0.3,1-0.5,1.5v0.1c-0.2,0.6-0.3,1.1-0.5,1.7
				c-0.1,0.2-0.1,0.4-0.1,0.5c-0.1,0.4-0.2,0.8-0.3,1.1c-0.1,0.2-0.1,0.4-0.2,0.6c-0.1,0.4-0.2,0.7-0.3,1.1c0,0.2-0.1,0.4-0.1,0.6
				c-0.1,0.4-0.2,0.7-0.2,1.1c0,0.2-0.1,0.4-0.1,0.6c-0.1,0.5-0.2,1-0.2,1.4c0,0.1,0,0.1,0,0.2c-0.1,0.5-0.2,1.1-0.2,1.6
				c0,0.2,0,0.3,0,0.5c0,0.4-0.1,0.8-0.1,1.2c0,0.2,0,0.4,0,0.6c0,0.4,0,0.7-0.1,1.1c0,0.2,0,0.4,0,0.5c0,0.5,0,1,0,1.6
				c0,0.5,0,1,0,1.5c0,0.1,0,0.3,0,0.4c0,0.3,0,0.7,0.1,1c0,0.2,0,0.4,0.1,0.6c0,0.3,0.1,0.6,0.1,0.8c0,0.2,0.1,0.5,0.1,0.7
				c0,0.3,0.1,0.6,0.1,0.9c0,0,0,0,0,0.1v0.1c0,0.1,0,0.1,0,0.2s0,0.2,0.1,0.3v0.1c0.1,0.5,0.2,1,0.4,1.5c0,0.2,0.1,0.3,0.2,0.5
				c0.1,0.3,0.2,0.6,0.3,0.9c0.1,0.4,0.3,0.8,0.4,1.1c0,0.1,0.1,0.2,0.1,0.2c0.2,0.4,0.3,0.8,0.5,1.1c0.1,0.2,0.2,0.5,0.3,0.7
				c0,0.1,0.1,0.2,0.1,0.3c0.2,0.3,0.3,0.6,0.5,1c0,0.1,0.1,0.1,0.1,0.2c0.1,0.3,0.3,0.5,0.4,0.8c0.1,0.1,0.1,0.2,0.2,0.4
				c0.1,0.2,0.3,0.4,0.4,0.7c0.1,0.1,0.1,0.2,0.2,0.3c0.1,0.2,0.3,0.5,0.5,0.7c0.1,0.1,0.1,0.2,0.2,0.3c0.2,0.3,0.3,0.5,0.5,0.8
				c0.1,0.1,0.1,0.2,0.2,0.2c0.2,0.3,0.5,0.7,0.7,1c0.1,0.1,0.1,0.2,0.2,0.2c0.2,0.3,0.4,0.5,0.6,0.8c0.1,0.1,0.2,0.2,0.3,0.3
				c0.2,0.3,0.4,0.5,0.7,0.8c0.1,0.1,0.2,0.2,0.2,0.3c0.3,0.3,0.6,0.7,1,1c0.1,0.1,0.1,0.1,0.2,0.2c0.3,0.3,0.6,0.6,0.8,0.8
				c0.1,0.1,0.2,0.2,0.3,0.3c0.3,0.3,0.5,0.5,0.8,0.8c0.1,0.1,0.2,0.2,0.3,0.3c0.4,0.3,0.8,0.7,1.2,1c0,0,0.1,0.1,0.2,0.1
				c0.4,0.3,0.7,0.6,1.1,0.9c0.1,0.1,0.3,0.2,0.4,0.3c0.3,0.2,0.7,0.5,1,0.7c0.1,0.1,0.3,0.2,0.4,0.3c0.5,0.3,1,0.6,1.5,0.9
				l-10.1-6.3c-0.5-0.3-1-0.6-1.5-0.9c-0.1-0.1-0.3-0.2-0.4-0.3c-0.3-0.2-0.7-0.5-1-0.7c-0.1-0.1-0.3-0.2-0.4-0.3
				c-0.4-0.3-0.8-0.6-1.1-0.9c0,0-0.1-0.1-0.2-0.1c-0.4-0.3-0.8-0.7-1.2-1c-0.1-0.1-0.2-0.2-0.3-0.3c-0.3-0.2-0.6-0.5-0.8-0.8
				c-0.1-0.1-0.2-0.2-0.3-0.3c-0.3-0.3-0.6-0.6-0.8-0.8c-0.1-0.1-0.1-0.1-0.2-0.2c-0.3-0.3-0.6-0.7-1-1c-0.1-0.1-0.2-0.2-0.2-0.3
				c-0.2-0.3-0.4-0.5-0.7-0.8c-0.1-0.1-0.2-0.2-0.3-0.3c-0.2-0.3-0.4-0.5-0.6-0.8c-0.1-0.1-0.1-0.2-0.2-0.2c-0.3-0.3-0.5-0.7-0.7-1
				c-0.1-0.1-0.1-0.2-0.2-0.2c-0.2-0.3-0.4-0.5-0.5-0.8c-0.1-0.1-0.1-0.2-0.2-0.3c-0.2-0.2-0.3-0.5-0.5-0.7
				c-0.1-0.1-0.1-0.2-0.2-0.3c0,0,0-0.1-0.1-0.1c-0.1-0.2-0.2-0.4-0.3-0.6c-0.1-0.1-0.1-0.2-0.2-0.4c-0.1-0.3-0.3-0.5-0.4-0.8
				c0-0.1-0.1-0.1-0.1-0.2c-0.2-0.3-0.3-0.6-0.5-1c0-0.1-0.1-0.2-0.1-0.2c-0.1-0.2-0.2-0.4-0.3-0.6v-0.1c-0.1-0.3-0.3-0.5-0.4-0.8
				c0-0.1-0.1-0.2-0.1-0.3s-0.1-0.2-0.1-0.2c-0.1-0.3-0.3-0.7-0.4-1v-0.1c-0.1-0.3-0.2-0.6-0.3-0.9c0-0.2-0.1-0.3-0.1-0.5
				c0,0,0,0,0-0.1c-0.1-0.5-0.3-1-0.4-1.5c0,0,0,0,0-0.1s0-0.2-0.1-0.3c0-0.1,0-0.2,0-0.2c0-0.1,0-0.1,0-0.1v-0.1
				c0-0.1,0-0.3-0.1-0.4c0-0.2,0-0.4-0.1-0.5c0-0.2-0.1-0.5-0.1-0.7c0-0.1,0-0.1,0-0.2c0-0.2,0-0.4-0.1-0.6c0-0.2,0-0.4-0.1-0.6
				c0-0.1,0-0.1,0-0.2C186.4,60,186.3,56,186.5,54.7z"/>
			<path class="st2" d="M223.6,11.3c13.6-7.9,24.8-1.8,26.2,14.3c0.3,3.2,0.1,6.6-0.3,10c0,0,0,0.4-0.2,1.2c-0.4,2.6-1,5.3-1.8,7.9
				c-2.7,9.8-9,27.4-23.1,51.1c-0.4,0.7-1,1.3-1.5,1.6c-0.5,0.3-1.1,0.5-1.5,0.3c-14.2-5.8-20.5-15.4-23.3-21.8
				c-0.8-1.6-1.4-3.5-1.8-5.6c-0.1-0.6-0.2-0.9-0.2-1c-0.3-1.9-0.5-4-0.5-6.2c0-18.9,12.1-41.8,27.1-51.3
				C222.9,11.7,223.3,11.5,223.6,11.3z M222.7,63.1c7.3-4.6,13.2-15.8,13.2-24.9c0-9.2-6-12.9-13.3-8.3s-13.2,15.8-13.2,24.9
				C209.5,64,215.4,67.7,222.7,63.1z"/>
		</g>
	</g>
</g>
</svg>
