<?xml version="1.0" encoding="utf-8"?>
<!-- Generator: Adobe Illustrator 22.1.0, SVG Export Plug-In . SVG Version: 6.00 Build 0)  -->
<svg version="1.1" id="Слой_1" xmlns="http://www.w3.org/2000/svg" xmlns:xlink="http://www.w3.org/1999/xlink" x="0px" y="0px"
	 viewBox="0 0 489.6 461.4" style="enable-background:new 0 0 489.6 461.4;" xml:space="preserve">
<style type="text/css">
	.st0{fill:#F1F9FD;}
	.st1{fill:#9AF4DC;}
	.st2{fill:#98A2F4;}
	.st3{fill:none;stroke:#171A21;stroke-width:2;stroke-linecap:round;stroke-linejoin:round;}
	.st4{fill:none;stroke:#171A21;stroke-width:2;stroke-linecap:round;stroke-linejoin:round;stroke-dasharray:12,12;}
	
		.st5{fill:none;stroke:#171A21;stroke-width:2;stroke-linecap:round;stroke-linejoin:round;stroke-miterlimit:10;stroke-dasharray:12,12;}
	.st6{fill:#FFFFFF;stroke:#171A21;stroke-width:2;}
	.st7{fill:#FFFFFF;stroke:#171A21;stroke-width:2;stroke-linecap:round;stroke-linejoin:round;stroke-miterlimit:10;}
	.st8{fill:#2F58FF;}
	.st9{fill:#FFFFFF;}
</style>
<path class="st0" d="M167.6,15.7C119.3-18.8,6.5,3.4,0.2,83.4c-3.8,49.1,37.7,78.4,13.4,180s72,218.6,235,194.9
	c98.3-14.3,189.7-89.2,187.2-162.1s-43.3-117.6-109.8-147C259.6,119.8,215.9,50.2,167.6,15.7z"/>
<g>
	<g>
		<g>
			<path class="st1" d="M248.7,307.5c67.3,0,121.9-54.6,121.9-121.9S316,63.7,248.7,63.7s-121.9,54.6-121.9,121.9
				C126.8,252.9,181.3,307.5,248.7,307.5z"/>
			<path class="st2" d="M370.6,185.6c0,8.8-1,17.5-2.7,25.8c-12.9,6.2-16.9,21.5-32.3,13.7c-12.2-6.2-3-18.1-10.4-22.5
				c-12.1-7.3-16.7,3.2-29.2,2c-21.7-2.1-12.2-24.1-41-41c-8.3-4.8-29-1.7-31.9-14.3c-3.4-14.5,22.1-13.8,27.6-19.9
				c4.6-5.1-3.2-16,1.1-20.2c9.6-9.5,18.8,2.2,40.6-5.2c12.5-4.2,12.7-19.8,15.9-22c0.8-0.5,1.6-1,2.4-1.4
				C346.5,101.8,370.6,140.8,370.6,185.6z M163.6,272.9c10.1-0.8,8.8-17,11.6-27c1.7-6,10.5-10.5,9.7-17.6
				c-0.8-7.4-12-11.9-12.1-19.2c-0.3-13,19.1-16.7,15.4-29.2c-1.9-6.3-12.1-7.7-15.8-10.8c-4-3.3-7.5-13.3-12.1-21.5
				c-5.3-9.3-11.8-14.5-19.4-19.1c-9,17-14.1,36.4-14.1,57C126.8,219.8,140.9,250.7,163.6,272.9z M303.4,294.5c0,0,0-0.1-0.1-0.1
				c-2.3-3.6-6.3-6.1-10.4-7.2c-1.8-0.5-3.6-0.8-5.3-1.7c-3.7-1.9-5.7-6.3-9.5-7.8c-3.6-1.4-7.8,0.4-10.7,2.9
				c-3,2.5-5.2,5.8-8.3,8.2c-5,4-11.6,5.4-18,5.6c-5.4,0.1-10.8-0.5-16,0.9c-4.1,1.1-8,3.9-9.6,7.6c10.5,3,21.6,4.6,33.1,4.6
				C268.4,307.5,287,302.8,303.4,294.5z"/>
			<path class="st3" d="M200,297.3c-1.7,1.1-3.4,2.1-5.1,3.2"/>
			<path class="st3" d="M367.6,140.8c-1.2,1.6-2.3,3.2-3.5,4.8"/>
			<path class="st4" d="M184.5,306.5c-42,23.8-75.6,31.8-88.5,17.9C73.5,300,123.1,217.8,206.7,140.6
				c83.6-77.1,169.6-119.8,192.1-95.4c13.3,14.4,1.4,48.9-27.7,90.7"/>
			<path class="st5" d="M150.9,259.1c-58.1,2.5-99.3-7.1-104.1-27.9c-7.5-32.3,76.3-79.3,187.1-104.9s206.7-20.3,214.2,12.1
				c4.7,20.5-27.2,46.9-79.5,70"/>
			<path class="st6" d="M217.6,68.1c-0.2,0-0.3,0-0.5,0c-0.1,0-0.1,0-0.1,0h-0.1c-0.2,0-0.5-0.1-0.7-0.1H216c-0.2,0-0.3-0.1-0.5-0.1
				l-0.2-0.1l0.3-1l-0.4,1c-0.1,0-0.1-0.1-0.2-0.1c0,0-0.1,0-0.1-0.1c-0.1,0-0.2-0.1-0.4-0.2l-0.2-0.1c-0.2-0.1-0.4-0.2-0.6-0.4
				l-10.1-6.8c-0.5-0.3-0.6-1-0.3-1.5c0.2-0.3,0.5-0.5,0.9-0.5c0.2,0,0.4,0.1,0.6,0.2c0.1,0.1,0.3,0.2,0.4,0.2l0.1,0.1
				c0.1,0,0.2,0.1,0.3,0.1s0.2,0.1,0.2,0.1l-0.2,1.1l0.3-1c0.1,0,0.2,0.1,0.3,0.1h0.1c0.2,0,0.4,0.1,0.6,0.1h0.2c0.1,0,0.2,0,0.3,0
				h0.2c0.1,0,0.2,0,0.3,0h0.2l0.5-0.1c0,0,0.4-0.1,0.5-0.1l0.2-0.1c0.1,0,0.2-0.1,0.3-0.1l0.2-0.1c0.1,0,0.2-0.1,0.4-0.1
				c0.1,0,0.1-0.1,0.2-0.1c0.2-0.1,0.4-0.3,0.8-0.3c0.1-0.1,0.2-0.1,0.4-0.2l0.2-0.1c0.1-0.1,0.3-0.1,0.4-0.2l0.2-0.1
				c0.2-0.1,0.4-0.2,0.5-0.3c0.2-0.1,0.4-0.3,0.6-0.4c0.2-0.2,0.4-0.3,0.6-0.5c0,0,0.5-0.4,0.6-0.5l0.6-0.5l0.3-0.2l0.6-0.6l0.6-0.6
				l0.6-0.6l0.6-0.7c0.1-0.2,0.5-0.7,0.5-0.7c0.2-0.2,0.4-0.5,0.5-0.7l0.9,0.5l-0.9-0.6c0.1-0.2,0.3-0.4,0.4-0.6
				c0.2-0.3,0.4-0.5,0.5-0.8c0.3-0.4,0.5-0.8,0.7-1.2l0.1-0.2c0.3-0.5,0.6-1,0.8-1.6l0.1-0.2c0.2-0.4,0.4-0.7,0.5-1.1l0.4-0.9
				c0.1-0.2,0.4-0.8,0.4-0.8c0.1-0.3,0.2-0.5,0.3-0.8c0,0,0.2-0.6,0.3-0.8l0.4-1.1c0.1-0.3,0.2-0.5,0.2-0.8c0.1-0.3,0.2-0.6,0.3-0.9
				l0.2-0.9c0,0,0.2-0.7,0.2-0.9l0.1-0.3c0-0.2,0.2-0.9,0.2-0.9c0-0.2,0.1-0.5,0.1-0.7h1.1l-1.1-0.1c0-0.3,0.1-0.6,0.1-0.8
				c0,0,0.1-0.6,0.1-0.8v-0.3c0-0.2,0-0.8,0-0.8c0-0.3,0-0.5,0-0.8c0-0.3,0-0.5,0-0.8V31c0-0.2,0-0.4,0-0.5l-0.1-0.7v-0.3l-0.1-0.4
				l-0.1-0.3l-0.1-0.3c0-0.1-0.1-0.3-0.1-0.4l-0.1-0.3c0-0.1-0.1-0.3-0.1-0.4l-0.1-0.2c-0.1-0.2-0.2-0.5-0.3-0.7
				c-0.2-0.4-0.3-0.6-0.4-0.9c-0.2-0.3-0.3-0.5-0.4-0.7l-0.1-0.1c-0.1-0.2-0.3-0.3-0.4-0.5c-0.2-0.2-0.3-0.3-0.5-0.5l-0.1-0.1
				c-0.2-0.1-0.3-0.3-0.5-0.4c-0.5-0.3-0.6-1-0.3-1.5c0.2-0.3,0.5-0.5,0.9-0.5c0.2,0,0.4,0.1,0.6,0.2l10.1,6.8
				c0.2,0.2,0.5,0.3,0.7,0.5l0.2,0.1c0.2,0.2,0.4,0.4,0.6,0.6c0.2,0.3,0.4,0.5,0.6,0.7l0.1,0.2c0.2,0.2,0.3,0.5,0.5,0.8l0.1,0.1
				c0.2,0.3,0.3,0.6,0.5,1c0,0,0,0.1,0.1,0.1c0.1,0.2,0.2,0.5,0.3,0.8v0.1v0.1c0.1,0.2,0.1,0.4,0.2,0.6v0.1l0.2,0.8l0.1,0.8l0.1,0.8
				l0.1,0.8V38c0,0.1,0,0.2-0.1,0.4c0,0.1,0,0.1,0,0.2s0,0.2,0,0.2c0,0.1,0,0.2,0,0.3s0,0.2,0,0.4c0,0.1,0,0.2,0,0.3
				c0,0.2,0,0.2,0,0.3v0.3v0.8l-0.1,0.7c0,0.3-0.1,0.6-0.1,0.9l-0.1,0.9l-0.2,0.9l-0.1,0.6l-0.2,0.9l-0.1,0.4l-1.1-0.1l1,0.3
				l-0.1,0.3c-0.1,0.2-0.1,0.5-0.2,0.8c0,0-0.2,0.6-0.2,0.8l-1.1-0.2l1,0.3l-0.3,0.9l-0.2,0.5l-0.2,0.7c-0.1,0.3-0.2,0.6-0.3,0.8
				l-0.4,0.9l-0.4,0.9c-0.2,0.5-0.4,0.9-0.6,1.3l-0.1,0.1l-1-0.4l1,0.5c-0.3,0.6-0.6,1.1-0.9,1.6v0.1l-0.1,0.1
				c-0.3,0.5-0.5,0.9-0.8,1.3c-0.2,0.3-0.4,0.6-0.6,0.9c-0.2,0.3-0.3,0.5-0.5,0.7c0,0-0.1,0.1-0.1,0.2c-0.1,0.2-0.3,0.4-0.5,0.7
				l-0.5,0.7l-0.6,0.7l-0.7,0.7l-0.5,0.6l-0.6,0.6l-0.6,0.6l-0.6,0.5l-0.3,0.3l-0.8-0.8l0.7,0.8l-0.1,0.1c-0.3,0.2-0.4,0.4-0.6,0.5
				c-0.2,0.2-0.4,0.3-0.6,0.4c0,0-0.4,0.3-0.6,0.4l-0.6,0.3l-0.2,0.1l-0.6-0.9l0.4,1l-0.2,0.1c-0.2,0.1-0.4,0.2-0.6,0.3
				c-0.2,0.1-0.4,0.2-0.6,0.2l-0.6,0.2l-0.6,0.2l-0.6,0.2h-0.2l-0.3-1l0.2,1.1l-0.3,0.1c-0.1,0-0.7,0.1-0.7,0.1h-0.2
				c-0.2,0-0.3,0-0.4,0h-0.1C217.8,68.1,217.6,68.1,217.6,68.1z"/>
			<path class="st7" d="M186.5,54.7c0-0.2,0-0.3,0-0.5s0-0.4,0-0.6c0-0.1,0-0.2,0-0.4c0-0.3,0.1-0.5,0.1-0.8c0-0.2,0-0.3,0-0.5
				c0-0.1,0-0.1,0-0.2c0.1-0.5,0.1-1,0.2-1.5c0-0.1,0-0.1,0-0.2c0.1-0.4,0.1-0.8,0.2-1.2c0-0.1,0-0.1,0-0.2c0-0.2,0.1-0.4,0.1-0.6
				c0-0.2,0.1-0.5,0.1-0.7c0-0.1,0.1-0.3,0.1-0.4c0-0.2,0.1-0.4,0.1-0.6c0-0.2,0.1-0.3,0.1-0.5s0.1-0.4,0.1-0.6
				c0.1-0.2,0.1-0.4,0.2-0.6c0-0.1,0.1-0.2,0.1-0.3c0.1-0.3,0.2-0.6,0.2-0.8c0.1-0.2,0.1-0.4,0.1-0.5s0-0.1,0-0.2
				c0.1-0.5,0.3-1,0.5-1.5v-0.1c0.1-0.4,0.3-0.9,0.4-1.3c0-0.1,0-0.1,0.1-0.2c0.1-0.2,0.1-0.3,0.2-0.5c0.1-0.2,0.2-0.5,0.3-0.7
				c0.1-0.1,0.1-0.3,0.2-0.4c0.1-0.2,0.1-0.4,0.2-0.6c0.1-0.1,0.1-0.3,0.2-0.4c0.1-0.3,0.2-0.5,0.3-0.8c0.1-0.1,0.1-0.3,0.2-0.4
				c0-0.1,0-0.1,0.1-0.2c0.2-0.5,0.4-0.9,0.6-1.4c0,0,0,0,0-0.1c0.1-0.1,0.1-0.2,0.2-0.4c0.2-0.4,0.3-0.7,0.5-1.1
				c0-0.1,0.1-0.1,0.1-0.2c0.1-0.3,0.3-0.6,0.4-0.9c0.1-0.2,0.2-0.5,0.3-0.7c0,0,0-0.1,0.1-0.1c0.4-0.7,0.8-1.5,1.2-2.2
				c0-0.1,0.1-0.1,0.1-0.2c0.1-0.2,0.2-0.4,0.3-0.6c0.2-0.3,0.3-0.6,0.5-0.9s0.3-0.5,0.5-0.8s0.4-0.6,0.5-0.9
				c0.1-0.1,0.1-0.2,0.2-0.3c0.1-0.1,0.1-0.2,0.2-0.3c0.5-0.8,1-1.6,1.5-2.3c0.4-0.5,0.8-1.1,1.1-1.6c0,0,0,0,0.1-0.1
				c0.3-0.4,0.6-0.8,0.9-1.1c0.1-0.1,0.1-0.2,0.2-0.2c0.3-0.4,0.7-0.9,1.1-1.3c0,0,0,0,0.1-0.1s0.2-0.3,0.3-0.4
				c0.2-0.3,0.4-0.5,0.7-0.8l0.1-0.1c0.2-0.2,0.3-0.3,0.5-0.5c0.2-0.2,0.3-0.4,0.5-0.6c0.1-0.1,0.1-0.1,0.2-0.2
				c0.2-0.2,0.3-0.4,0.5-0.5c0.1-0.2,0.3-0.3,0.4-0.5c0.1-0.1,0.2-0.2,0.3-0.3c0.2-0.2,0.4-0.4,0.6-0.5c0.1-0.1,0.3-0.3,0.4-0.4
				c0.1-0.1,0.2-0.2,0.3-0.3c0.2-0.2,0.4-0.3,0.6-0.5c0.1-0.1,0.2-0.2,0.3-0.3s0.2-0.2,0.4-0.3c0.2-0.2,0.4-0.3,0.6-0.5
				c0.1-0.1,0.2-0.2,0.3-0.2c0.2-0.1,0.3-0.3,0.5-0.4c0.2-0.1,0.3-0.3,0.5-0.4c0.1-0.1,0.1-0.1,0.2-0.2c0.2-0.2,0.4-0.3,0.6-0.5
				c0.1-0.1,0.3-0.2,0.4-0.3l0.1-0.1c0.4-0.3,0.8-0.5,1.2-0.8c0,0,0.1,0,0.1-0.1c0.3-0.2,0.7-0.5,1.1-0.7c0.1-0.1,0.2-0.1,0.3-0.2
				c0.3-0.2,0.6-0.4,0.9-0.5c0,0,0.1,0,0.1-0.1c0.3-0.2,0.7-0.4,1-0.5c0.1,0,0.1-0.1,0.2-0.1c0.1-0.1,0.3-0.1,0.4-0.2
				c0.2-0.1,0.3-0.2,0.5-0.2c0.1-0.1,0.2-0.1,0.3-0.2c0.2-0.1,0.3-0.1,0.5-0.2c0.1,0,0.2-0.1,0.3-0.1c0.2-0.1,0.3-0.1,0.5-0.2
				c0.1-0.1,0.3-0.1,0.4-0.2c0.1,0,0.1,0,0.2-0.1c0.2-0.1,0.5-0.2,0.7-0.2c0.1,0,0.2-0.1,0.3-0.1c0,0,0,0,0.1,0
				c0.4-0.1,0.7-0.2,1.1-0.3c0.1,0,0.1,0,0.2,0c0.3-0.1,0.6-0.2,0.9-0.2c0,0,0,0,0.1,0c0.2,0,0.4-0.1,0.5-0.1c0.2,0,0.4-0.1,0.6-0.1
				c0,0,0,0,0.1,0c0.2,0,0.4,0,0.7-0.1c0.2,0,0.3,0,0.5-0.1c0,0,2.4,0,3.5,0.2c0.3,0,0.5,0.1,0.8,0.1h0.1c0.1,0,0.3,0.1,0.4,0.1
				c0.2,0,0.4,0.1,0.6,0.2c0.1,0,0.3,0.1,0.4,0.1c0.1,0,0.2,0.1,0.3,0.1s0.1,0.1,0.2,0.1c0.3,0.1,0.5,0.2,0.7,0.3
				c0.1,0.1,0.2,0.1,0.3,0.2c0.3,0.2,0.7,0.4,1,0.6l10.1,6.3c-0.3-0.2-0.7-0.4-1-0.6c-0.1-0.1-0.2-0.1-0.3-0.2
				c-0.2-0.1-0.5-0.2-0.7-0.3s-0.3-0.1-0.5-0.2c-0.1,0-0.3-0.1-0.4-0.1c-0.2-0.1-0.4-0.1-0.6-0.2c-0.1,0-0.3-0.1-0.4-0.1
				c-0.3-0.1-0.6-0.1-0.9-0.2c-0.3,0-0.6-0.1-1-0.1c-0.1,0-0.1,0-0.2,0c-0.3,0-0.7,0-1,0c-0.4,0-0.8,0-1.2,0c-0.2,0-0.4,0-0.5,0.1
				c-0.2,0-0.4,0-0.7,0.1c-0.2,0-0.4,0.1-0.7,0.1c-0.2,0-0.4,0.1-0.5,0.1c-0.3,0.1-0.7,0.1-1,0.2c-0.1,0-0.1,0-0.2,0
				c-0.4,0.1-0.8,0.2-1.2,0.4c-0.1,0-0.2,0.1-0.3,0.1c-0.3,0.1-0.6,0.2-0.9,0.3c-0.1,0.1-0.3,0.1-0.4,0.2c-0.3,0.1-0.5,0.2-0.8,0.3
				c-0.1,0.1-0.3,0.1-0.5,0.2c-0.3,0.1-0.5,0.3-0.8,0.4c-0.1,0.1-0.3,0.1-0.4,0.2c-0.4,0.2-0.8,0.4-1.2,0.6c-0.3,0.2-0.7,0.4-1,0.6
				c-0.4,0.3-0.9,0.6-1.3,0.9c0,0-0.1,0-0.1,0.1c-0.4,0.3-0.9,0.6-1.3,0.9c-0.1,0.1-0.3,0.2-0.4,0.3c-0.3,0.2-0.6,0.4-0.8,0.7
				c-0.2,0.1-0.3,0.3-0.5,0.4c-0.3,0.2-0.5,0.4-0.8,0.6c-0.2,0.2-0.4,0.3-0.6,0.5c-0.2,0.2-0.5,0.4-0.7,0.6s-0.4,0.3-0.6,0.5
				c-0.2,0.2-0.5,0.4-0.7,0.7c-0.2,0.2-0.4,0.4-0.6,0.5c-0.2,0.2-0.5,0.5-0.7,0.7s-0.3,0.4-0.5,0.5c-0.2,0.3-0.5,0.5-0.7,0.8
				c-0.2,0.2-0.3,0.3-0.5,0.5c-0.3,0.3-0.5,0.6-0.8,0.9c-0.1,0.1-0.2,0.3-0.3,0.4c-0.4,0.5-0.7,0.9-1.1,1.4
				c-0.1,0.1-0.1,0.2-0.2,0.2c-0.3,0.4-0.6,0.8-0.9,1.2c-0.4,0.5-0.8,1.1-1.1,1.6c-0.5,0.8-1,1.5-1.5,2.3c-0.1,0.2-0.2,0.4-0.4,0.6
				c-0.2,0.3-0.4,0.6-0.5,0.9c-0.2,0.3-0.3,0.5-0.5,0.8s-0.3,0.6-0.5,0.9c-0.1,0.2-0.3,0.5-0.4,0.7c-0.4,0.7-0.8,1.5-1.2,2.2
				c-0.1,0.3-0.3,0.6-0.4,0.8c-0.1,0.3-0.3,0.6-0.4,0.9c-0.2,0.4-0.4,0.8-0.6,1.3c-0.1,0.1-0.1,0.2-0.2,0.4
				c-0.2,0.5-0.5,1.1-0.7,1.6c-0.1,0.1-0.1,0.3-0.2,0.4c-0.2,0.4-0.3,0.8-0.5,1.2c-0.1,0.2-0.1,0.4-0.2,0.6
				c-0.1,0.4-0.3,0.8-0.4,1.2c-0.1,0.2-0.1,0.3-0.2,0.5c-0.2,0.5-0.3,1-0.5,1.5v0.1c-0.2,0.6-0.3,1.1-0.5,1.7
				c-0.1,0.2-0.1,0.4-0.1,0.5c-0.1,0.4-0.2,0.8-0.3,1.1c-0.1,0.2-0.1,0.4-0.2,0.6c-0.1,0.4-0.2,0.7-0.3,1.1c0,0.2-0.1,0.4-0.1,0.6
				c-0.1,0.4-0.2,0.7-0.2,1.1c0,0.2-0.1,0.4-0.1,0.6c-0.1,0.5-0.2,1-0.2,1.4c0,0.1,0,0.1,0,0.2c-0.1,0.5-0.2,1.1-0.2,1.6
				c0,0.2,0,0.3,0,0.5c0,0.4-0.1,0.8-0.1,1.2c0,0.2,0,0.4,0,0.6c0,0.4,0,0.7-0.1,1.1c0,0.2,0,0.4,0,0.5c0,0.5,0,1,0,1.6
				c0,0.5,0,1,0,1.5c0,0.1,0,0.3,0,0.4c0,0.3,0,0.7,0.1,1c0,0.2,0,0.4,0.1,0.6c0,0.3,0.1,0.6,0.1,0.8c0,0.2,0.1,0.5,0.1,0.7
				c0,0.3,0.1,0.6,0.1,0.9c0,0,0,0,0,0.1v0.1c0,0.1,0,0.1,0,0.2s0,0.2,0.1,0.3v0.1c0.1,0.5,0.2,1,0.4,1.5c0,0.2,0.1,0.3,0.2,0.5
				c0.1,0.3,0.2,0.6,0.3,0.9c0.1,0.4,0.3,0.8,0.4,1.1c0,0.1,0.1,0.2,0.1,0.2c0.2,0.4,0.3,0.8,0.5,1.1c0.1,0.2,0.2,0.5,0.3,0.7
				c0,0.1,0.1,0.2,0.1,0.3c0.2,0.3,0.3,0.6,0.5,1c0,0.1,0.1,0.1,0.1,0.2c0.1,0.3,0.3,0.5,0.4,0.8c0.1,0.1,0.1,0.2,0.2,0.4
				c0.1,0.2,0.3,0.4,0.4,0.7c0.1,0.1,0.1,0.2,0.2,0.3c0.1,0.2,0.3,0.5,0.5,0.7c0.1,0.1,0.1,0.2,0.2,0.3c0.2,0.3,0.3,0.5,0.5,0.8
				c0.1,0.1,0.1,0.2,0.2,0.2c0.2,0.3,0.5,0.7,0.7,1c0.1,0.1,0.1,0.2,0.2,0.2c0.2,0.3,0.4,0.5,0.6,0.8c0.1,0.1,0.2,0.2,0.3,0.3
				c0.2,0.3,0.4,0.5,0.7,0.8c0.1,0.1,0.2,0.2,0.2,0.3c0.3,0.3,0.6,0.7,1,1c0.1,0.1,0.1,0.1,0.2,0.2c0.3,0.3,0.6,0.6,0.8,0.8
				c0.1,0.1,0.2,0.2,0.3,0.3c0.3,0.3,0.5,0.5,0.8,0.8c0.1,0.1,0.2,0.2,0.3,0.3c0.4,0.3,0.8,0.7,1.2,1c0,0,0.1,0.1,0.2,0.1
				c0.4,0.3,0.7,0.6,1.1,0.9c0.1,0.1,0.3,0.2,0.4,0.3c0.3,0.2,0.7,0.5,1,0.7c0.1,0.1,0.3,0.2,0.4,0.3c0.5,0.3,1,0.6,1.5,0.9
				l-10.1-6.3c-0.5-0.3-1-0.6-1.5-0.9c-0.1-0.1-0.3-0.2-0.4-0.3c-0.3-0.2-0.7-0.5-1-0.7c-0.1-0.1-0.3-0.2-0.4-0.3
				c-0.4-0.3-0.8-0.6-1.1-0.9c0,0-0.1-0.1-0.2-0.1c-0.4-0.3-0.8-0.7-1.2-1c-0.1-0.1-0.2-0.2-0.3-0.3c-0.3-0.2-0.6-0.5-0.8-0.8
				c-0.1-0.1-0.2-0.2-0.3-0.3c-0.3-0.3-0.6-0.6-0.8-0.8c-0.1-0.1-0.1-0.1-0.2-0.2c-0.3-0.3-0.6-0.7-1-1c-0.1-0.1-0.2-0.2-0.2-0.3
				c-0.2-0.3-0.4-0.5-0.7-0.8c-0.1-0.1-0.2-0.2-0.3-0.3c-0.2-0.3-0.4-0.5-0.6-0.8c-0.1-0.1-0.1-0.2-0.2-0.2c-0.3-0.3-0.5-0.7-0.7-1
				c-0.1-0.1-0.1-0.2-0.2-0.2c-0.2-0.3-0.4-0.5-0.5-0.8c-0.1-0.1-0.1-0.2-0.2-0.3c-0.2-0.2-0.3-0.5-0.5-0.7
				c-0.1-0.1-0.1-0.2-0.2-0.3c0,0,0-0.1-0.1-0.1c-0.1-0.2-0.2-0.4-0.3-0.6c-0.1-0.1-0.1-0.2-0.2-0.4c-0.1-0.3-0.3-0.5-0.4-0.8
				c0-0.1-0.1-0.1-0.1-0.2c-0.2-0.3-0.3-0.6-0.5-1c0-0.1-0.1-0.2-0.1-0.2c-0.1-0.2-0.2-0.4-0.3-0.6v-0.1c-0.1-0.3-0.3-0.5-0.4-0.8
				c0-0.1-0.1-0.2-0.1-0.3s-0.1-0.2-0.1-0.2c-0.1-0.3-0.3-0.7-0.4-1v-0.1c-0.1-0.3-0.2-0.6-0.3-0.9c0-0.2-0.1-0.3-0.1-0.5
				c0,0,0,0,0-0.1c-0.1-0.5-0.3-1-0.4-1.5c0,0,0,0,0-0.1s0-0.2-0.1-0.3c0-0.1,0-0.2,0-0.2c0-0.1,0-0.1,0-0.1v-0.1
				c0-0.1,0-0.3-0.1-0.4c0-0.2,0-0.4-0.1-0.5c0-0.2-0.1-0.5-0.1-0.7c0-0.1,0-0.1,0-0.2c0-0.2,0-0.4-0.1-0.6c0-0.2,0-0.4-0.1-0.6
				c0-0.1,0-0.1,0-0.2C186.4,60,186.3,56,186.5,54.7z"/>
			<path class="st8" d="M223.6,11.3c13.6-7.9,24.8-1.8,26.2,14.3c0.3,3.2,0.1,6.6-0.3,10c0,0,0,0.4-0.2,1.2c-0.4,2.6-1,5.3-1.8,7.9
				c-2.7,9.8-9,27.4-23.1,51.1c-0.4,0.7-1,1.3-1.5,1.6c-0.5,0.3-1.1,0.5-1.5,0.3c-14.2-5.8-20.5-15.4-23.3-21.8
				c-0.8-1.6-1.4-3.5-1.8-5.6c-0.1-0.6-0.2-0.9-0.2-1c-0.3-1.9-0.5-4-0.5-6.2c0-18.9,12.1-41.8,27.1-51.3
				C222.9,11.7,223.3,11.5,223.6,11.3z M222.7,63.1c7.3-4.6,13.2-15.8,13.2-24.9c0-9.2-6-12.9-13.3-8.3s-13.2,15.8-13.2,24.9
				C209.5,64,215.4,67.7,222.7,63.1z"/>
			<path class="st6" d="M306,375c-1.6,0-2.9-0.6-3.8-1.8c-1.6-2.1-2-6-0.8-10.3c2.2-8.4,14.9-39.9,18-47.5L218.3,331l-37.7,3.1h-0.1
				c-0.3,0-0.6-0.2-0.8-0.4l-9.9-13.8l-0.1-0.1c-0.7-1.4-1.5-2.9-2.3-4.3c-5.9-11.2-11-20.8-8.6-24.6c0.5-0.8,1.4-1.7,3.4-1.7
				c5.5,0,17.5,6.7,37.8,21c4.2,3,7.8,4.8,12.3,4.8c3,0,6.4-0.8,10.8-2.4c8.9-3.4,73-27.1,84.5-31.1c-11.3-6.6-96.1-41.9-102.2-44
				c-6.6-2.3-10.7-7.2-9.9-12c0.6-3.4,3.9-7,11.6-7c2,0,4.2,0.2,6.5,0.7c8.6,1.8,71.5,20.5,109,31.6c14,4.2,24.2,7.2,25.6,7.6
				c1,0.3,2,0.5,3,0.7c8.8-2.4,9.1-2.4,9.3-2.4c1.7,0,3.2,1.5,4.1,4.1c6.3-1.2,11.6-3,14.8-4.2h0.1c2.9-1,7.1-2.5,12.1-4.3
				c16.7-6,41.9-15.1,49.3-17.2c2.7-0.8,5.5-1.2,8.2-1.2c6.3,0,11.7,2.1,16.2,4.1c1.4,0.6,5.3,0.7,9.5,0.8c1.6,0,3.2,0.1,4.9,0.2
				c3.5,0.1,7.8,2.9,8.7,7.3c0.6,3,0.1,8.8-10.8,14.4c-9.7,4.9-34.8,12.2-57,18.6c-16.2,4.7-33,9.6-34.5,11
				c-1.8,1.8-7.2,8.2-14.1,16.4c-3.2,3.8-6.8,8-10.5,12.5c13.7-3.8,13.8-3.8,14-3.8c2.8,0,4.9,3.9,4.9,9.2c0,5.2-2.1,9.1-4.8,9.2
				l-29.6,3.6c-14.2,16.3-24.4,27.2-31.3,33.3C311.5,373.5,308.5,375,306,375z"/>
			<path class="st8" d="M173.6,340.3c-3.3-4.9-15.3-13.1-24-19.5c-8.6-6.4-3.3-13.1,16.7-6.4c0,0,28.7,8.9,34.3,10s8.9,4.2,22-1.4
				s82.2-28.4,88.1-31.2c5.9-2.8,0.6-5.9-18.7-15c-19.2-9.2-74-34.8-81.9-38.5c-6.1-2.8-12.5-17,12.8-7.2s139.3,42,147.7,43.7
				s18.7-1.9,35.5-7.2c14.9-4.7,47.3-13,62.1-17.6c14.8-4.6,20.5,3.6,10.7,9.5c-17.1,10.2-76.1,33.7-83.1,36.5s-14,11.6-17.8,15.6
				c-6,6.2-51.3,50.2-62.1,58c-9.5,6.8-9.5-3.1-2.2-19c5.9-12.9,8.6-19.8,10-26.2c1.1-4.9-17.6,0-26.5,1.7s-79.8,13.1-86.4,14.9
				c-5.4,1.5-8.8,2.3-18.7,13c-6.1,6.6-14.8,12-16.2,2.8C174.7,347.5,176,343.8,173.6,340.3z"/>
			<path class="st8" d="M457.6,239.8c-6.7-5-21.8,2.2-21.8,2.2l2,3.1L457.6,239.8z"/>
			<path class="st9" d="M360.8,257.5c-0.3,0-37.6,10.5-37.6,10.5c-1.4,0-2.5,2.3-2.5,5.2s1.1,5.2,2.5,5.2c0.1,0,0.2,0,0.3,0
				l37.4-4.6c2.1,0,3.9-3.6,3.9-8.2S362.9,257.5,360.8,257.5z"/>
			<path class="st8" d="M360.8,270.8c1.3,0,2.4-2.3,2.4-5.1c0-2.8-1.1-5.1-2.4-5.1s-2.4,2.3-2.4,5.1S359.4,270.8,360.8,270.8z"/>
			<path class="st9" d="M375.8,316.1c-0.3,0-37.6,10.5-37.6,10.5c-1.4,0-2.5,2.3-2.5,5.2c0,2.9,1.1,5.2,2.5,5.2c0.1,0,0.2,0,0.3,0
				l37.4-4.6c2.1,0,3.9-3.6,3.9-8.2S378,316.1,375.8,316.1z"/>
			<path class="st8" d="M375.8,329.3c1.3,0,2.4-2.3,2.4-5.1c0-2.8-1.1-5.1-2.4-5.1s-2.4,2.3-2.4,5.1S374.4,329.3,375.8,329.3z"/>
		</g>
	</g>
</g>
</svg>
