<svg width="421" height="489" viewBox="0 0 421 489" fill="none" xmlns="http://www.w3.org/2000/svg">
<path d="M412.525 380.528C412.525 380.634 412.525 380.846 412.525 380.952C412.525 381.057 412.419 381.163 412.419 381.269C412.419 381.375 412.313 381.587 412.313 381.693C412.313 381.799 412.207 381.905 412.207 382.011C412.101 382.117 412.101 382.329 411.995 382.435C411.889 382.541 411.889 382.647 411.783 382.753C411.677 382.858 411.571 383.07 411.465 383.176C411.359 383.282 411.359 383.388 411.253 383.494C411.042 383.706 410.936 383.918 410.724 384.13C410.618 384.236 410.618 384.236 410.512 384.342C410.406 384.448 410.194 384.554 410.088 384.659C409.982 384.765 409.876 384.871 409.664 384.977C409.558 385.083 409.347 385.189 409.135 385.295C408.923 385.401 408.817 385.507 408.605 385.613L256.685 473.862C256.261 474.074 255.837 474.286 255.413 474.498C255.307 474.604 255.202 474.604 254.99 474.71C254.672 474.816 254.248 475.028 253.93 475.134C253.824 475.134 253.718 475.24 253.506 475.24C253.295 475.345 253.083 475.345 252.871 475.451C252.659 475.451 252.553 475.557 252.341 475.557C252.129 475.663 251.811 475.663 251.6 475.663C251.388 475.663 251.282 475.769 251.07 475.769C250.54 475.875 250.116 475.875 249.587 475.981C249.481 475.981 249.269 475.981 249.163 475.981C248.845 475.981 248.527 475.981 248.315 476.087C248.103 476.087 247.892 476.087 247.786 476.087C247.574 476.087 247.256 476.087 247.044 476.087C246.832 476.087 246.62 476.087 246.408 476.087C246.197 476.087 245.985 476.087 245.773 476.087C245.561 476.087 245.349 476.087 245.137 476.087C244.925 476.087 244.713 476.087 244.501 475.981C244.29 475.981 244.078 475.875 243.866 475.875C243.654 475.875 243.442 475.769 243.124 475.769C242.912 475.769 242.7 475.663 242.595 475.663C242.277 475.557 242.065 475.557 241.747 475.451C241.641 475.451 241.429 475.345 241.323 475.345C240.794 475.24 240.37 475.028 239.84 474.816C239.628 474.71 239.416 474.604 239.204 474.498C239.098 474.498 238.992 474.392 238.887 474.392C238.569 474.18 238.251 474.074 237.933 473.862L137.818 416.018C135.17 414.535 133.898 412.522 133.898 410.509V423.222C133.898 425.235 135.17 427.248 137.818 428.731L237.933 486.575C238.251 486.787 238.569 486.893 238.887 487.105C238.992 487.105 239.098 487.211 239.204 487.211C239.416 487.317 239.628 487.423 239.84 487.423C239.84 487.423 239.84 487.423 239.946 487.423C240.37 487.635 240.899 487.741 241.429 487.952H241.535C241.641 487.952 241.747 488.058 241.853 488.058C242.171 488.164 242.383 488.164 242.7 488.27C242.806 488.27 242.806 488.27 242.912 488.376C243.018 488.376 243.124 488.376 243.23 488.482C243.442 488.482 243.654 488.588 243.972 488.588C244.078 488.588 244.184 488.588 244.29 488.588C244.396 488.588 244.501 488.588 244.607 488.588C244.819 488.588 245.031 488.694 245.243 488.694C245.349 488.694 245.455 488.694 245.561 488.694C245.667 488.694 245.773 488.694 245.879 488.694C246.091 488.694 246.302 488.694 246.514 488.694C246.62 488.694 246.726 488.694 246.832 488.694C246.938 488.694 247.044 488.694 247.15 488.694C247.362 488.694 247.68 488.694 247.892 488.694C247.998 488.694 248.103 488.694 248.209 488.694C248.315 488.694 248.315 488.694 248.421 488.694C248.739 488.694 249.057 488.694 249.375 488.588C249.481 488.588 249.587 488.588 249.693 488.588H249.799C250.328 488.482 250.858 488.482 251.282 488.376C251.282 488.376 251.282 488.376 251.388 488.376C251.494 488.376 251.705 488.27 251.811 488.27C252.023 488.27 252.341 488.164 252.553 488.164C252.765 488.164 252.871 488.058 253.083 488.058C253.295 487.953 253.506 487.953 253.718 487.847H253.824C253.93 487.847 253.93 487.741 254.036 487.741C254.354 487.635 254.778 487.529 255.096 487.317C255.202 487.211 255.307 487.211 255.519 487.105C255.943 486.893 256.367 486.681 256.791 486.469L408.817 398.114C408.923 398.114 408.923 398.008 409.029 398.008C409.135 397.902 409.241 397.902 409.347 397.796C409.558 397.69 409.664 397.584 409.876 397.478C409.982 397.372 410.088 397.267 410.3 397.161C410.406 397.055 410.618 396.949 410.724 396.843C410.724 396.843 410.83 396.843 410.83 396.737L410.936 396.631C411.148 396.419 411.359 396.207 411.465 395.995L411.571 395.889L411.677 395.783C411.783 395.677 411.889 395.466 411.995 395.36C411.995 395.254 412.101 395.254 412.101 395.148V395.042C412.207 394.936 412.207 394.724 412.313 394.618C412.313 394.512 412.419 394.406 412.419 394.406V394.3C412.419 394.194 412.525 393.982 412.525 393.876C412.525 393.77 412.631 393.665 412.631 393.559C412.631 393.559 412.631 393.559 412.631 393.453C412.631 393.347 412.631 393.135 412.631 393.029C412.631 392.923 412.631 392.817 412.631 392.711V392.605V379.892C412.631 380.21 412.525 380.316 412.525 380.528Z" fill="#2F58FF"/>
<path d="M408.605 374.595C413.796 377.667 413.902 382.541 408.711 385.507L256.685 473.862C251.494 476.829 243.018 476.829 237.827 473.862L137.712 416.018C132.521 413.052 132.415 408.073 137.606 405.106L289.633 316.751C294.824 313.679 303.299 313.679 308.49 316.751L408.605 374.595Z" fill="#FB7070"/>
<path d="M385.722 377.138L304.465 330.205C300.969 328.193 295.354 328.193 291.858 330.205L174.157 398.538C170.661 400.551 170.767 403.835 174.157 405.848L255.414 452.78C258.91 454.793 264.525 454.793 268.021 452.78L385.722 384.448C389.218 382.329 389.218 379.15 385.722 377.138Z" fill="#FEE2E2" stroke="#171A21" stroke-width="2" stroke-miterlimit="10" stroke-linecap="round" stroke-linejoin="round" stroke-dasharray="12 12"/>
<path d="M204.561 433.922C201.701 432.227 196.933 432.227 194.073 433.922C191.213 435.617 191.213 438.372 194.073 439.961C196.933 441.656 201.701 441.656 204.561 439.961C207.422 438.266 207.528 435.617 204.561 433.922Z" fill="white" stroke="#171A21" stroke-width="2" stroke-miterlimit="10" stroke-linecap="round" stroke-linejoin="round" stroke-dasharray="12 12"/>
<path d="M202.442 397.69C198.946 399.703 198.946 402.987 202.442 405L252.977 434.346C256.473 436.359 262.087 436.359 265.584 434.346L327.136 398.749C330.632 396.737 330.632 393.452 327.136 391.439L276.601 362.094C273.105 360.081 267.491 360.081 263.994 362.094L202.442 397.69Z" fill="white"/>
<path d="M260.287 387.626L247.786 394.83L245.244 393.347C243.972 392.605 243.972 391.44 245.244 390.698L253.083 386.143C254.355 385.401 256.473 385.401 257.745 386.143L260.287 387.626ZM242.489 389.109C239.629 390.698 239.629 393.347 242.489 395.042L245.032 396.525L242.171 398.22C240.264 399.279 240.264 401.08 242.171 402.246L258.592 411.781C260.499 412.84 263.571 412.84 265.478 411.781L291.752 396.631C292.282 396.313 292.282 395.889 291.752 395.572L270.246 383.07C269.716 382.753 268.974 382.753 268.445 383.07L263.042 386.143L260.499 384.66C257.745 383.07 253.083 383.07 250.329 384.66L242.489 389.109Z" fill="#FB7070"/>
<path d="M291.645 345.779C288.149 347.792 288.149 351.076 291.645 353.089L342.18 382.435C345.676 384.448 351.291 384.448 354.787 382.435L416.339 346.839C419.835 344.826 419.835 341.542 416.339 339.529L365.805 310.183C362.309 308.17 356.694 308.17 353.198 310.183L291.645 345.779Z" fill="white"/>
<path d="M386.145 364.319L416.338 346.838C419.834 344.825 419.834 341.541 416.338 339.528L365.804 310.183C362.308 308.17 356.693 308.17 353.197 310.183L323.533 327.345" stroke="#171A21" stroke-width="2" stroke-miterlimit="10" stroke-linecap="round" stroke-linejoin="round"/>
<path d="M348.323 335.714L335.822 342.918L333.279 341.435C332.008 340.694 332.008 339.528 333.279 338.787L341.119 334.231C342.39 333.49 344.509 333.49 345.78 334.231L348.323 335.714ZM330.419 337.197C327.558 338.787 327.558 341.435 330.419 343.13L332.961 344.613L330.101 346.308C328.194 347.368 328.194 349.169 330.101 350.334L346.522 359.869C348.429 360.928 351.501 360.928 353.408 359.869L379.682 344.719C380.211 344.401 380.211 343.978 379.682 343.66L358.175 331.159C357.646 330.841 356.904 330.841 356.374 331.159L350.971 334.231L348.429 332.748C345.674 331.159 341.013 331.159 338.258 332.748L330.419 337.197Z" fill="#FB7070"/>
</svg>
