<svg width="421" height="489" viewBox="0 0 421 489" fill="none" xmlns="http://www.w3.org/2000/svg">
<path d="M172.566 175.742C172.566 175.954 172.566 176.166 172.566 176.272C172.566 176.484 172.566 176.59 172.672 176.801C172.672 177.013 172.778 177.225 172.778 177.331C172.778 177.543 172.884 177.649 172.884 177.861C172.884 178.073 172.99 178.285 172.99 178.391C172.99 178.602 173.096 178.708 173.096 178.92C173.202 179.132 173.202 179.238 173.308 179.45C173.414 179.662 173.414 179.768 173.52 179.98C173.626 180.192 173.626 180.403 173.732 180.509C173.838 180.721 173.838 180.827 173.944 181.039C174.05 181.251 174.156 181.463 174.261 181.569C174.367 181.675 174.473 181.887 174.473 181.993C174.579 182.204 174.791 182.416 174.897 182.628C175.003 182.734 175.109 182.946 175.215 183.052C175.427 183.264 175.533 183.582 175.745 183.794C175.851 183.9 175.851 184.006 175.957 184.111C176.274 184.535 176.592 184.853 176.91 185.277C177.016 185.383 177.122 185.489 177.228 185.595C177.546 185.912 177.758 186.124 178.075 186.442C178.181 186.548 178.393 186.654 178.499 186.866C178.711 187.078 178.817 187.184 179.029 187.396C179.241 187.502 179.347 187.713 179.559 187.819C179.77 187.925 179.982 188.137 180.194 188.243C180.406 188.349 180.618 188.561 180.724 188.667C180.936 188.773 181.148 188.985 181.36 189.091C181.571 189.197 181.783 189.409 181.995 189.514C182.207 189.62 182.419 189.832 182.737 189.938C183.055 190.15 183.267 190.256 183.584 190.468C184.114 190.786 184.75 191.104 185.385 191.421C185.597 191.527 185.703 191.633 185.915 191.633C186.339 191.845 186.869 192.057 187.292 192.269C187.504 192.375 187.61 192.375 187.822 192.481C188.458 192.799 189.093 193.011 189.729 193.222C189.835 193.222 189.941 193.328 190.047 193.328C190.576 193.54 191.106 193.752 191.742 193.858C191.954 193.964 192.166 193.964 192.483 194.07C192.801 194.176 193.119 194.282 193.437 194.388C193.649 194.494 193.967 194.494 194.178 194.6C194.496 194.706 194.814 194.812 195.132 194.812C195.45 194.917 195.662 194.917 195.98 195.023C196.297 195.129 196.615 195.129 196.933 195.235C197.251 195.341 197.463 195.341 197.781 195.447C198.098 195.553 198.416 195.553 198.734 195.659C198.946 195.659 199.264 195.765 199.476 195.765C200.217 195.871 200.959 195.977 201.594 196.083C201.7 196.083 201.806 196.083 201.912 196.083C202.548 196.189 203.184 196.295 203.819 196.295C204.031 196.295 204.349 196.295 204.561 196.401C204.985 196.401 205.408 196.507 205.832 196.507C206.044 196.507 206.362 196.507 206.574 196.613C206.997 196.613 207.421 196.613 207.845 196.718C208.057 196.718 208.375 196.718 208.587 196.718C209.01 196.718 209.328 196.718 209.752 196.718C209.964 196.718 210.282 196.718 210.493 196.718C210.917 196.718 211.341 196.718 211.659 196.718C211.871 196.718 212.083 196.718 212.4 196.718C212.718 196.718 213.142 196.718 213.46 196.718C213.672 196.718 213.99 196.718 214.201 196.718C214.625 196.718 214.943 196.718 215.367 196.613C215.579 196.613 215.791 196.613 216.002 196.613C216.532 196.613 216.956 196.507 217.38 196.507C217.486 196.507 217.698 196.507 217.803 196.507C218.439 196.401 219.075 196.401 219.604 196.295C219.71 196.295 219.816 196.295 219.922 196.295C220.452 196.189 220.982 196.189 221.511 196.083C221.723 196.083 221.935 195.977 222.147 195.977C222.571 195.871 222.889 195.871 223.312 195.765C223.524 195.765 223.736 195.659 223.948 195.659C224.372 195.553 224.796 195.447 225.219 195.341C225.431 195.235 225.643 195.235 225.961 195.129C226.385 195.023 226.703 194.917 227.126 194.812C227.338 194.706 227.55 194.706 227.762 194.6C228.398 194.388 228.927 194.282 229.563 194.07C229.669 194.07 229.775 193.964 229.881 193.964C230.516 193.752 231.258 193.434 231.894 193.222C232.212 193.116 232.423 193.011 232.741 192.905C232.953 192.799 233.165 192.693 233.377 192.693C233.695 192.587 234.013 192.481 234.224 192.269C234.436 192.163 234.648 192.057 234.754 192.057C235.072 191.951 235.39 191.739 235.708 191.633C235.814 191.527 236.025 191.527 236.131 191.421C236.555 191.21 237.085 190.892 237.509 190.68C240.793 188.773 243.335 186.654 245.242 184.323C245.772 183.688 246.196 182.946 246.62 182.31C246.831 181.993 247.043 181.675 247.149 181.251C248.209 179.132 248.738 177.013 248.738 174.895L248.95 237.718C248.95 243.439 245.242 249.16 237.72 253.503C237.297 253.715 236.767 254.033 236.343 254.245C236.237 254.351 236.025 254.351 235.919 254.457C235.602 254.669 235.284 254.774 234.966 254.88C234.754 254.986 234.542 255.092 234.436 255.198C234.118 255.304 233.801 255.516 233.589 255.622C233.377 255.728 233.165 255.834 232.953 255.834C232.741 255.94 232.529 256.046 232.317 256.046C232.212 256.046 232.212 256.046 232.106 256.152C231.47 256.364 230.728 256.681 230.093 256.893C229.987 256.893 229.881 256.999 229.775 256.999C229.139 257.211 228.61 257.423 227.974 257.529C227.868 257.529 227.762 257.635 227.656 257.635C227.55 257.635 227.444 257.741 227.338 257.741C226.914 257.847 226.597 257.953 226.173 258.059C225.961 258.165 225.749 258.165 225.431 258.271C225.007 258.376 224.584 258.482 224.16 258.588C223.948 258.588 223.842 258.694 223.63 258.694H223.524C223.101 258.8 222.783 258.8 222.359 258.906C222.147 258.906 221.935 259.012 221.723 259.012C221.194 259.118 220.664 259.224 220.134 259.224C220.028 259.224 219.922 259.224 219.922 259.224C219.287 259.33 218.757 259.436 218.121 259.436C218.015 259.436 217.803 259.436 217.698 259.436C217.168 259.436 216.744 259.542 216.214 259.542C216.002 259.542 215.791 259.542 215.579 259.542C215.155 259.542 214.837 259.648 214.413 259.648C214.201 259.648 213.884 259.648 213.672 259.648C213.354 259.648 212.93 259.648 212.612 259.648H212.506C212.294 259.648 212.083 259.648 211.871 259.648C211.447 259.648 211.023 259.648 210.705 259.648C210.493 259.648 210.176 259.648 209.964 259.648C209.646 259.648 209.222 259.648 208.904 259.648C208.798 259.648 208.798 259.648 208.692 259.648C208.481 259.648 208.375 259.648 208.163 259.648C207.739 259.648 207.315 259.648 206.891 259.542C206.68 259.542 206.362 259.542 206.15 259.436C205.726 259.436 205.302 259.33 204.879 259.33C204.773 259.33 204.561 259.33 204.455 259.33C204.349 259.33 204.243 259.33 204.137 259.33C203.501 259.224 202.866 259.224 202.23 259.118C202.124 259.118 202.018 259.118 201.912 259.118C201.171 259.012 200.429 258.906 199.793 258.8C199.687 258.8 199.687 258.8 199.582 258.8C199.37 258.8 199.158 258.694 199.052 258.694C198.734 258.588 198.416 258.588 198.098 258.482C197.781 258.376 197.569 258.376 197.251 258.271C196.933 258.165 196.615 258.165 196.297 258.059C195.98 257.953 195.768 257.953 195.45 257.847C195.132 257.741 194.814 257.635 194.496 257.635C194.284 257.529 193.967 257.529 193.755 257.423C193.437 257.317 193.119 257.211 192.801 257.105C192.695 257.105 192.483 256.999 192.377 256.999C192.272 256.999 192.166 256.893 192.06 256.893C191.53 256.681 191 256.47 190.365 256.364C190.259 256.364 190.153 256.258 190.047 256.258C189.411 256.046 188.775 255.728 188.14 255.516C187.928 255.41 187.822 255.41 187.61 255.304C187.08 255.092 186.657 254.88 186.233 254.669C186.021 254.563 185.915 254.457 185.703 254.457C185.068 254.139 184.538 253.821 183.902 253.503C183.796 253.397 183.584 253.291 183.478 253.185C183.372 253.079 183.161 252.973 183.055 252.973C182.843 252.868 182.631 252.656 182.313 252.55C182.101 252.444 181.889 252.232 181.677 252.126C181.466 252.02 181.254 251.808 181.042 251.702C180.83 251.596 180.618 251.384 180.512 251.278C180.3 251.172 180.088 250.961 179.876 250.855C179.665 250.749 179.559 250.537 179.347 250.431C179.135 250.219 178.923 250.113 178.817 249.901C178.711 249.795 178.711 249.795 178.605 249.689C178.499 249.583 178.499 249.583 178.393 249.477C178.075 249.16 177.758 248.948 177.546 248.63C177.44 248.524 177.334 248.418 177.228 248.312C176.91 247.888 176.592 247.57 176.274 247.147C176.168 247.041 176.168 246.935 176.062 246.829C175.851 246.617 175.745 246.299 175.533 246.087C175.427 245.981 175.321 245.769 175.215 245.664C175.109 245.452 174.897 245.24 174.791 245.028C174.791 244.922 174.685 244.922 174.685 244.816C174.685 244.71 174.579 244.604 174.579 244.498C174.473 244.286 174.367 244.074 174.261 243.968C174.156 243.757 174.156 243.651 174.05 243.439C173.944 243.227 173.838 243.015 173.838 242.909C173.838 242.803 173.732 242.697 173.732 242.697C173.732 242.591 173.732 242.591 173.626 242.485C173.52 242.273 173.52 242.167 173.414 241.956C173.414 241.744 173.308 241.638 173.308 241.426C173.308 241.214 173.202 241.108 173.202 240.896C173.202 240.79 173.096 240.684 173.096 240.578C173.096 240.472 173.096 240.472 173.096 240.366C173.096 240.155 172.99 239.943 172.99 239.837C172.99 239.625 172.99 239.519 172.884 239.307C172.884 239.095 172.884 238.883 172.884 238.777C172.884 238.671 172.884 238.565 172.884 238.459C172.884 238.354 172.884 238.248 172.884 238.142L172.672 175.318C172.566 175.318 172.566 175.53 172.566 175.742Z" fill="#FB7070"/>
<path d="M183.795 159.321C168.857 168.008 168.752 181.993 183.583 190.574C198.415 199.261 222.676 199.261 237.614 190.574C252.551 181.887 252.657 167.902 237.825 159.321C222.994 150.74 198.733 150.74 183.795 159.321Z" fill="white"/>
<path d="M195.661 154.66C191.318 155.719 187.292 157.308 183.796 159.321C173.308 165.36 170.13 174.047 174.261 181.675" stroke="#171A21" stroke-width="2" stroke-miterlimit="10" stroke-linecap="round" stroke-linejoin="round"/>
<path d="M188.245 162.076C175.744 168.75 175.638 179.45 188.139 186.125C200.535 192.799 220.769 192.799 233.271 186.125C245.772 179.45 245.878 168.75 233.376 162.076C220.875 155.402 200.746 155.402 188.245 162.076Z" fill="#2F58FF"/>
<path d="M248.95 234.328L244.077 237.188C242.487 238.142 240.157 237.294 238.038 236.235C236.555 235.493 236.449 233.269 237.932 232.421L238.462 232.103C239.097 231.679 239.945 231.679 240.686 232.103C242.911 233.48 246.089 235.281 248.526 234.54C248.738 234.434 248.844 234.328 248.95 234.328ZM240.898 200.321C240.263 199.897 239.415 199.897 238.674 200.321L238.038 200.745C236.661 201.592 236.555 203.499 237.932 204.452C244.606 208.902 249.903 214.517 252.234 222.568C254.035 228.501 256.154 242.274 249.374 246.299C256.472 242.274 258.485 239.201 258.591 231.15C258.696 217.271 252.128 207.313 240.898 200.321Z" fill="white"/>
<path d="M238.038 236.129C236.555 235.387 236.449 233.163 237.932 232.315L238.462 231.997C239.097 231.574 239.945 231.574 240.686 231.997C242.911 233.375 246.089 235.176 248.526 234.434C248.632 234.434 248.738 234.328 248.95 234.222M249.374 246.193C256.472 242.168 258.485 239.095 258.591 231.044C258.696 217.377 252.128 207.313 240.898 200.427C240.263 200.003 239.415 200.003 238.674 200.427L238.038 200.85C236.661 201.698 236.555 203.605 237.932 204.558" stroke="#171A21" stroke-width="2" stroke-miterlimit="10" stroke-linecap="round" stroke-linejoin="round"/>
<path d="M234.86 206.359C234.86 204.664 236.767 203.605 238.145 204.558C241.747 206.889 244.819 209.538 247.467 213.034C251.599 218.649 253.612 225.323 253.612 233.48C253.612 241.638 251.599 245.982 247.361 246.829C244.183 247.465 240.369 245.876 235.814 243.333C235.072 242.909 234.648 242.274 234.648 241.426V237.718C234.648 236.129 236.344 235.07 237.827 235.811C239.946 236.871 241.958 237.506 243.23 237.294C243.971 237.188 246.09 236.765 246.09 229.137C246.09 221.509 243.971 218.649 243.23 217.695C241.429 215.364 238.674 213.352 235.708 211.657C235.072 211.233 234.648 210.597 234.648 209.856L234.86 206.359Z" fill="#2F58FF"/>
</svg>
