<svg width="421" height="489" viewBox="0 0 421 489" fill="none" xmlns="http://www.w3.org/2000/svg">
<path d="M386.673 196.93L378.092 191.951C378.092 191.951 377.986 191.951 377.986 191.845C377.986 191.845 377.88 191.845 377.88 191.739H377.774C377.668 191.739 377.668 191.739 377.562 191.739C377.456 191.739 377.456 191.739 377.35 191.739C377.35 191.739 377.35 191.739 377.244 191.739H377.138C377.032 191.739 376.927 191.739 376.927 191.845H376.821H376.715H376.609C376.503 191.951 376.291 191.951 376.185 192.057L86.6466 359.339C86.4347 359.445 86.3288 359.551 86.1169 359.763C86.0109 359.763 86.0109 359.869 85.905 359.869C85.7991 359.974 85.6931 359.975 85.6931 360.08L85.5872 360.186L85.4812 360.292L85.3753 360.398C85.2693 360.504 85.1634 360.61 85.1634 360.716C85.1634 360.716 85.1634 360.822 85.0575 360.822L84.9515 360.928C84.8456 361.034 84.8456 361.14 84.7396 361.14C84.7396 361.246 84.6337 361.352 84.6337 361.352C84.6337 361.458 84.5278 361.458 84.5278 361.564C84.5278 361.67 84.4218 361.776 84.4218 361.776C84.4218 361.881 84.3159 361.881 84.3159 361.987C84.3159 362.093 84.2099 362.199 84.2099 362.199C84.2099 362.305 84.104 362.411 84.104 362.517V362.623C84.104 362.623 84.104 362.623 84.104 362.729V362.835C84.104 362.941 83.998 363.047 83.998 363.153C83.998 363.259 83.998 363.259 83.998 363.365V363.471V363.577C83.998 363.788 83.998 364 83.998 364.106L92.5793 369.085C92.5793 368.874 92.5793 368.662 92.6853 368.45V368.344C92.6853 368.132 92.7912 367.92 92.7912 367.708C92.7912 367.708 92.7912 367.708 92.7912 367.602C92.8971 367.39 92.8971 367.179 93.0031 366.967C93.109 366.755 93.215 366.543 93.3209 366.331C93.4269 366.119 93.5328 365.907 93.7447 365.695C93.7447 365.695 93.7447 365.695 93.7447 365.589C93.8506 365.378 94.0625 365.272 94.1684 365.06L94.2744 364.954C94.3803 364.848 94.4863 364.742 94.5922 364.636C94.6981 364.636 94.6982 364.53 94.8041 364.53C95.016 364.424 95.1219 364.212 95.3338 364.106L156.674 328.722C156.886 329.04 156.992 329.463 156.992 329.993V332.536L96.6051 367.496V376.501L95.016 377.455C94.8041 377.561 94.6981 377.667 94.4863 377.667H94.3803C94.1684 377.667 94.0625 377.773 93.9566 377.773C93.7447 377.773 93.6387 377.773 93.5328 377.773C93.4268 377.773 93.215 377.667 93.109 377.667L96.711 379.786V382.858L101.69 388.685L141.736 364L383.071 224.581V202.122L375.02 206.783L371.523 204.77L384.66 197.142C384.872 197.036 384.978 196.93 385.19 196.93H385.296C385.508 196.93 385.614 196.824 385.72 196.824C385.932 196.824 386.037 196.824 386.143 196.824C386.355 196.824 386.567 196.824 386.673 196.93ZM371.523 206.147V208.69L160.276 330.841L156.886 328.828L371.312 204.876C371.418 205.194 371.523 205.618 371.523 206.147Z" fill="#2F58FF"/>
<path d="M97.6655 363.471L5.60224 310.818C3.27152 309.441 0.30516 311.136 0.30516 313.89L0.199219 340.375C0.199219 341.647 0.834868 342.812 2.00023 343.448L93.3219 395.571C94.3813 396.207 97.0298 390.91 98.0892 390.274L101.162 363.577C100.102 364.106 98.7249 364.106 97.6655 363.471Z" fill="#FB7070"/>
<path d="M387.521 198.837C387.521 197.566 386.885 196.825 385.932 196.825C385.826 196.189 385.508 195.447 384.766 195.13L290.902 141.205C289.843 140.57 288.466 140.57 287.3 141.205L5.60155 304.673C3.27084 306.05 3.27084 309.44 5.60155 310.818L97.241 363.259L95.3341 364.424C93.745 365.378 92.4736 367.602 92.4736 369.403L92.5796 393.77C92.5796 395.571 93.8509 396.313 95.44 395.465L384.661 228.077C386.25 227.124 387.521 224.899 387.521 223.098V198.837ZM103.598 382.434C102.008 383.388 100.737 382.646 100.737 380.739V372.582C100.737 370.781 102.008 368.556 103.598 367.602L377.245 209.432C378.834 208.478 380.105 209.22 380.105 211.127V219.284C380.105 221.085 378.834 223.31 377.245 224.263L103.598 382.434Z" fill="#FEE2E2"/>
<path d="M389.215 82.5136L278.824 18.419L247.783 0.514869C247.36 0.302986 246.83 0.302986 246.3 0.514869L163.772 48.4005C162.818 48.9302 162.818 50.3074 163.772 50.9431L193.329 67.9997L234.965 92.0484C235.918 92.5781 235.918 93.9553 234.965 94.591L193.859 118.428C193.435 118.64 193.118 119.169 193.118 119.699L192.906 193.964C192.906 195.13 194.071 195.765 195.025 195.235L277.447 147.35C277.871 147.138 278.189 146.608 278.189 146.079L278.295 119.699C278.295 118.64 279.46 117.898 280.413 118.428L334.656 150.104C335.079 150.316 335.609 150.316 336.139 150.104L418.667 102.219C419.621 101.689 419.621 100.312 418.667 99.6762L389.215 82.5136Z" fill="#FEE2E2"/>
<path d="M235.072 94.5913L193.967 118.428C193.543 118.64 193.226 119.17 193.226 119.699L193.014 193.965C193.014 195.13 194.179 195.766 195.133 195.236L277.555 147.35C277.979 147.138 278.297 146.609 278.297 146.079L278.403 119.699L235.072 94.5913Z" fill="#FB7070"/>
<path d="M334.233 149.575C335.081 150.104 335.61 150.952 335.61 152.011L335.504 201.274L335.292 296.304C335.292 298.423 332.962 299.8 331.055 298.74L304.887 283.697C304.04 283.167 303.51 282.319 303.51 281.26L303.722 184.641C303.722 183.688 303.192 182.734 302.345 182.205L197.462 121.288C195.556 120.229 193.225 121.5 193.225 123.725L193.013 213.881C193.013 216 190.682 217.377 188.775 216.318L162.608 201.274C161.76 200.744 161.23 199.897 161.23 198.837L161.442 100.63L161.548 54.545C161.548 52.4262 163.879 51.049 165.786 52.1084L193.331 67.9996L280.521 118.322L334.233 149.575Z" fill="white"/>
<path d="M193.118 213.881C193.118 216 190.788 217.377 188.881 216.318L162.713 201.274C161.866 200.744 161.336 199.897 161.336 198.837L161.548 100.63L161.654 54.545C161.654 52.4262 163.984 51.049 165.891 52.1084" stroke="#171A21" stroke-width="2" stroke-miterlimit="10" stroke-linecap="round" stroke-linejoin="round"/>
<path d="M335.292 296.303C335.292 298.422 332.962 299.8 331.055 298.74L304.887 283.696C304.039 283.167 303.51 282.319 303.51 281.26" stroke="#171A21" stroke-width="2" stroke-miterlimit="10" stroke-linecap="round" stroke-linejoin="round"/>
<path d="M336.988 149.574C336.141 150.104 335.611 150.952 335.611 152.011L335.505 201.274L335.293 296.197C335.293 298.316 337.624 299.693 339.531 298.634L419.305 252.232C420.152 251.702 420.682 250.854 420.682 249.795L420.894 151.587L421 105.609C421 103.49 418.669 102.112 416.762 103.172L336.988 149.574Z" fill="#2F58FF"/>
<path d="M310.608 69.2714C311.562 65.2457 309.337 61.008 304.04 57.9357C294.929 52.6386 280.203 52.6386 271.092 57.9357C265.689 61.008 263.464 65.2457 264.418 69.2714C264.418 74.3566 272.151 83.1498 287.513 83.1498C310.82 83.2557 310.608 69.2714 310.608 69.2714Z" fill="white"/>
<path d="M264.313 68.0004C264.313 68.1063 264.313 68.2122 264.313 68.3182C264.313 68.4241 264.313 68.5301 264.313 68.636C264.313 68.742 264.312 68.8479 264.418 68.9538C264.418 69.0598 264.418 69.1657 264.524 69.2717C264.524 69.3776 264.524 69.4836 264.63 69.5895C264.63 69.6954 264.736 69.8014 264.736 69.9073C264.736 70.0133 264.842 70.1192 264.842 70.2251C264.842 70.3311 264.948 70.437 264.948 70.543C264.948 70.6489 265.054 70.7548 265.054 70.8608C265.054 70.9667 265.16 71.0727 265.16 71.1786C265.266 71.2846 265.266 71.3905 265.372 71.4964C265.478 71.6024 265.478 71.7083 265.584 71.8143V71.9202C265.69 72.1321 265.796 72.238 265.902 72.4499C265.902 72.4499 265.902 72.5559 266.008 72.5559C266.113 72.7677 266.219 72.8737 266.431 73.0856L266.537 73.1915C266.643 73.2974 266.749 73.5093 266.961 73.6153L267.067 73.7212C267.173 73.9331 267.385 74.039 267.597 74.2509L267.703 74.3569C267.809 74.4628 267.915 74.5687 268.126 74.7806C268.232 74.8866 268.338 74.9925 268.444 75.0985C268.55 75.2044 268.656 75.3103 268.762 75.4163C268.868 75.5222 268.974 75.6282 269.08 75.7341C269.186 75.84 269.292 75.946 269.398 75.946C269.504 76.0519 269.61 76.1579 269.821 76.2638C269.927 76.3697 270.033 76.4757 270.245 76.4757C270.351 76.5816 270.563 76.6876 270.669 76.7935C270.881 76.8995 270.987 77.0054 271.199 77.1113C271.517 77.3232 271.94 77.5351 272.258 77.6411C272.364 77.747 272.47 77.747 272.576 77.747C272.894 77.8529 273.106 78.0648 273.423 78.1708C273.529 78.1708 273.635 78.2767 273.741 78.2767C274.165 78.4886 274.483 78.5945 274.907 78.7005C275.013 78.7005 275.013 78.7005 275.119 78.8064C275.436 78.9123 275.754 79.0183 276.178 79.1242C276.284 79.1242 276.496 79.2302 276.602 79.2302C276.814 79.3361 277.025 79.3361 277.131 79.4421C277.343 79.4421 277.449 79.548 277.661 79.548C277.873 79.6539 278.085 79.6539 278.191 79.6539C278.403 79.6539 278.509 79.7599 278.721 79.7599C278.932 79.7599 279.144 79.8658 279.356 79.8658C279.568 79.8658 279.674 79.9718 279.886 79.9718C280.098 79.9718 280.31 80.0777 280.522 80.0777C280.628 80.0777 280.839 80.1837 280.945 80.1837C281.369 80.2896 281.793 80.2896 282.217 80.3955C282.323 80.3955 282.323 80.3955 282.429 80.3955C282.852 80.3955 283.17 80.5015 283.594 80.5015C283.7 80.5015 283.912 80.5015 284.018 80.5015C284.23 80.5015 284.547 80.5015 284.759 80.6074C284.865 80.6074 285.077 80.6074 285.183 80.6074C285.395 80.6074 285.713 80.6074 285.925 80.6074C286.031 80.6074 286.242 80.6074 286.348 80.6074C286.56 80.6074 286.772 80.6074 286.984 80.6074C287.09 80.6074 287.302 80.6074 287.408 80.6074C287.62 80.6074 287.937 80.6074 288.149 80.6074C288.255 80.6074 288.467 80.6074 288.573 80.6074C288.785 80.6074 288.997 80.6074 289.209 80.6074C289.315 80.6074 289.527 80.6074 289.633 80.6074C289.844 80.6074 290.162 80.6074 290.374 80.6074C290.48 80.6074 290.692 80.6074 290.798 80.6074C291.116 80.6074 291.328 80.5015 291.645 80.5015C291.751 80.5015 291.857 80.5015 291.857 80.5015C292.281 80.5015 292.599 80.3955 293.023 80.3955C293.129 80.3955 293.129 80.3955 293.235 80.3955C293.552 80.3955 293.87 80.2896 294.188 80.2896C294.294 80.2896 294.4 80.2896 294.612 80.1837C294.824 80.1837 295.142 80.0777 295.353 80.0777C295.459 80.0777 295.565 79.9718 295.777 79.9718C295.989 79.8658 296.307 79.8658 296.519 79.7599C296.625 79.7599 296.837 79.6539 296.943 79.6539C297.154 79.548 297.366 79.548 297.684 79.4421C297.79 79.4421 298.002 79.3361 298.108 79.3361C298.426 79.2302 298.849 79.1242 299.167 79.0183C299.273 79.0183 299.273 79.0183 299.379 78.9123C299.803 78.8064 300.227 78.5945 300.65 78.4886C300.862 78.3826 300.968 78.3826 301.18 78.2767C301.286 78.1708 301.392 78.1708 301.604 78.0648C301.816 77.9589 301.922 77.8529 302.134 77.8529C302.24 77.747 302.346 77.747 302.451 77.6411C302.663 77.5351 302.875 77.4292 302.981 77.3232C303.087 77.3232 303.193 77.2173 303.299 77.2173C303.617 77.1113 303.829 76.8995 304.147 76.7935C308.702 74.145 311.033 70.6489 311.033 67.1528L311.139 71.1786C311.139 74.6747 308.808 78.1708 304.252 80.8193C303.935 80.9252 303.723 81.1371 303.405 81.2431C303.299 81.2431 303.193 81.349 303.087 81.349C302.875 81.4549 302.663 81.5609 302.557 81.6668C302.451 81.7728 302.346 81.7728 302.24 81.8787C302.028 81.9847 301.922 82.0906 301.71 82.0906C301.604 82.1965 301.498 82.1965 301.286 82.3025C301.18 82.3025 301.074 82.4084 300.862 82.4084H300.756C300.333 82.5144 299.909 82.7262 299.485 82.8322C299.379 82.8322 299.379 82.8322 299.273 82.9381C298.955 83.0441 298.532 83.15 298.214 83.256C298.108 83.256 298.108 83.256 298.002 83.3619C297.896 83.3619 297.896 83.3619 297.79 83.4678C297.578 83.5738 297.366 83.5738 297.048 83.6797C296.943 83.6797 296.731 83.7857 296.625 83.7857C296.413 83.8916 296.095 83.8916 295.883 83.9975C295.777 83.9975 295.671 83.9975 295.565 84.1035H295.459C295.247 84.1035 294.93 84.2094 294.718 84.2094C294.612 84.2094 294.506 84.2094 294.294 84.3154C293.976 84.4213 293.658 84.4213 293.341 84.4213C293.235 84.4213 293.235 84.4213 293.129 84.4213C292.811 84.4213 292.387 84.5273 291.963 84.5273C291.857 84.5273 291.751 84.5273 291.751 84.5273C291.434 84.5273 291.222 84.6332 290.904 84.6332C290.798 84.6332 290.692 84.6332 290.48 84.6332C290.268 84.6332 289.95 84.6332 289.738 84.6332C289.633 84.6332 289.421 84.6332 289.315 84.6332C289.103 84.6332 288.891 84.6332 288.679 84.6332C288.679 84.6332 288.679 84.6332 288.573 84.6332C288.467 84.6332 288.361 84.6332 288.149 84.6332C287.937 84.6332 287.62 84.6332 287.408 84.6332C287.302 84.6332 287.09 84.6332 286.984 84.6332C286.772 84.6332 286.56 84.6332 286.348 84.6332H286.242C286.136 84.6332 286.031 84.6332 285.925 84.6332C285.713 84.6332 285.395 84.6332 285.183 84.6332C285.077 84.6332 284.865 84.6332 284.759 84.6332C284.547 84.6332 284.23 84.6332 284.018 84.5273C283.912 84.5273 283.806 84.5273 283.806 84.5273C283.7 84.5273 283.7 84.5273 283.594 84.5273C283.17 84.5273 282.852 84.4213 282.429 84.4213C282.323 84.4213 282.323 84.4213 282.217 84.4213C281.793 84.3154 281.369 84.3154 280.945 84.2094H280.839C280.733 84.2094 280.628 84.2094 280.522 84.1035C280.31 84.1035 280.098 83.9975 279.886 83.9975C279.674 83.9975 279.568 83.8916 279.356 83.8916C279.144 83.8916 278.932 83.7857 278.721 83.7857C278.509 83.7857 278.403 83.6797 278.191 83.6797C277.979 83.6797 277.767 83.5738 277.661 83.5738C277.449 83.5738 277.343 83.4678 277.131 83.4678C276.92 83.3619 276.708 83.3619 276.602 83.256C276.496 83.256 276.39 83.256 276.39 83.15C276.284 83.15 276.284 83.15 276.178 83.0441C275.86 82.9381 275.542 82.8322 275.119 82.7262C275.013 82.7262 275.013 82.7262 274.907 82.6203C274.483 82.5144 274.165 82.3025 273.741 82.1965C273.635 82.1965 273.529 82.0906 273.423 82.0906C273.106 81.9847 272.894 81.7728 272.576 81.6668C272.47 81.6668 272.364 81.5609 272.258 81.5609C271.94 81.349 271.517 81.1371 271.199 81.0312C271.093 80.9252 270.987 80.9252 270.881 80.8193C270.775 80.8193 270.669 80.7134 270.669 80.6074C270.563 80.5015 270.351 80.3955 270.245 80.2896C270.139 80.1836 270.033 80.0777 269.821 80.0777C269.716 79.9718 269.504 79.8658 269.398 79.7599C269.292 79.6539 269.186 79.548 269.08 79.548C268.974 79.4421 268.868 79.3361 268.762 79.2302C268.656 79.1242 268.55 79.0183 268.444 78.9123C268.338 78.8064 268.232 78.7005 268.126 78.5945L268.02 78.4886C267.915 78.3826 267.809 78.2767 267.809 78.2767L267.703 78.1708C267.491 77.9589 267.385 77.8529 267.173 77.6411L267.067 77.5351C266.961 77.4292 266.855 77.2173 266.643 77.1113L266.537 77.0054C266.431 76.8995 266.325 76.6876 266.219 76.5816C266.219 76.5816 266.219 76.4757 266.114 76.4757C266.008 76.2638 265.902 76.1579 265.796 75.946V75.84C265.796 75.7341 265.69 75.7341 265.69 75.6282C265.69 75.5222 265.584 75.5222 265.584 75.4163C265.478 75.3103 265.478 75.2044 265.372 75.0985C265.372 74.9925 265.266 74.8866 265.266 74.7806C265.266 74.6747 265.16 74.5687 265.16 74.4628C265.16 74.4628 265.16 74.3569 265.054 74.3569V74.2509C265.054 74.145 264.948 74.039 264.948 73.9331C264.948 73.8272 264.842 73.7212 264.842 73.6153C264.842 73.5093 264.736 73.4034 264.736 73.2974C264.736 73.1915 264.736 73.1915 264.736 73.0856V72.9796C264.736 72.8737 264.736 72.7677 264.63 72.6618C264.63 72.5559 264.63 72.4499 264.63 72.344C264.63 72.238 264.63 72.1321 264.63 72.0261C264.63 71.9202 264.63 71.9202 264.63 71.8143C264.63 71.7083 264.63 71.7083 264.63 71.6024L264.524 67.5766C264.312 67.7885 264.313 67.8944 264.313 68.0004Z" fill="#2F58FF"/>
<path d="M310.608 69.2714C311.562 65.2457 309.337 61.008 304.04 57.9357C294.929 52.6386 280.203 52.6386 271.092 57.9357C265.689 61.008 263.464 65.2457 264.418 69.2714" stroke="#171A21" stroke-width="2" stroke-miterlimit="10" stroke-linecap="round" stroke-linejoin="round"/>
<path d="M306.9 62.3849V62.4909C306.9 61.9612 306.9 61.4315 306.688 60.9017V53.3799C306.688 42.256 298.106 33.3569 287.406 33.3569C276.812 33.3569 268.125 42.362 268.125 53.3799V63.7622V65.6691C268.125 65.7751 268.125 65.7751 268.125 65.881C268.125 65.9869 268.125 65.9869 268.125 66.0929C268.125 66.1988 268.125 66.3048 268.125 66.4107C268.125 66.5167 268.125 66.6226 268.125 66.6226C268.125 66.7285 268.125 66.8345 268.125 66.9404V67.0464V67.1523C268.125 67.2582 268.125 67.3642 268.231 67.4701C268.231 67.5761 268.231 67.682 268.337 67.682C268.337 67.7879 268.443 67.8939 268.443 67.9998V68.1058C268.443 68.1058 268.443 68.2117 268.549 68.2117C268.549 68.3177 268.655 68.4236 268.655 68.5295C268.655 68.6355 268.761 68.7414 268.761 68.7414C268.761 68.8474 268.867 68.9533 268.867 69.0592C268.867 69.0592 268.867 69.1652 268.973 69.1652C268.973 69.2711 269.078 69.2711 269.078 69.3771C269.078 69.3771 269.078 69.3771 269.078 69.483C269.184 69.589 269.29 69.8008 269.396 69.9068C269.396 69.9068 269.396 70.0127 269.502 70.0127C269.608 70.1187 269.714 70.2246 269.82 70.4365C269.82 70.4365 269.82 70.5424 269.926 70.5424C270.032 70.6484 270.138 70.7543 270.244 70.8603L270.35 70.9662C270.456 71.0721 270.562 71.284 270.774 71.39C270.774 71.39 270.774 71.39 270.879 71.4959C270.985 71.6018 270.985 71.6018 271.091 71.7078L271.197 71.8137C271.303 71.9197 271.409 72.0256 271.515 72.0256C271.621 72.1315 271.727 72.1316 271.833 72.2375C271.939 72.3434 272.045 72.3434 272.151 72.4494C272.257 72.5553 272.363 72.5553 272.469 72.6613C272.575 72.7672 272.68 72.7672 272.786 72.8731C272.892 72.9791 272.998 72.9791 273.104 73.085C273.21 73.191 273.316 73.191 273.422 73.2969C273.528 73.2969 273.528 73.4029 273.634 73.4029C273.74 73.4029 273.74 73.5088 273.846 73.5088C274.164 73.7207 274.482 73.8266 274.693 74.0385C274.799 74.0385 274.905 74.1444 274.905 74.1444C275.117 74.2504 275.329 74.3563 275.647 74.4623C275.753 74.4623 275.859 74.5682 275.859 74.5682C276.177 74.6741 276.494 74.886 276.812 74.992C276.918 74.992 276.918 74.992 277.024 75.0979C277.342 75.2039 277.554 75.3098 277.872 75.4157H277.978C278.084 75.4157 278.084 75.4157 278.189 75.5217C278.295 75.5217 278.507 75.6276 278.613 75.6276C278.719 75.6276 278.931 75.7336 279.037 75.7336C279.249 75.7336 279.355 75.8395 279.567 75.8395C279.673 75.8395 279.885 75.9454 279.99 75.9454C280.202 75.9454 280.308 76.0514 280.52 76.0514C280.626 76.0514 280.838 76.1573 280.944 76.1573C281.156 76.1573 281.262 76.2633 281.474 76.2633C281.58 76.2633 281.686 76.2633 281.791 76.3692H281.897C282.215 76.4752 282.639 76.4752 282.957 76.5811H283.063C283.381 76.5811 283.698 76.687 284.016 76.687H284.122C284.228 76.687 284.228 76.687 284.334 76.687C284.546 76.687 284.758 76.687 284.97 76.687C285.076 76.687 285.182 76.687 285.393 76.687C285.605 76.687 285.817 76.687 286.029 76.687C286.135 76.687 286.241 76.687 286.241 76.687H286.347C286.559 76.687 286.771 76.687 286.877 76.687C286.983 76.687 287.089 76.687 287.3 76.687C287.512 76.687 287.724 76.687 287.936 76.687C288.042 76.687 288.148 76.687 288.254 76.687C288.466 76.687 288.572 76.687 288.784 76.687C288.89 76.687 288.995 76.687 289.207 76.687C289.419 76.687 289.631 76.687 289.843 76.687C289.949 76.687 290.055 76.687 290.161 76.687C290.373 76.687 290.585 76.687 290.902 76.5811C291.008 76.5811 291.008 76.5811 291.114 76.5811C291.432 76.5811 291.75 76.4752 292.068 76.4752H292.174C292.386 76.4752 292.703 76.3692 292.915 76.3692C293.021 76.3692 293.127 76.3692 293.233 76.2633C293.445 76.2633 293.657 76.1573 293.869 76.1573C293.869 76.1573 293.869 76.1573 293.975 76.1573C294.081 76.1573 294.187 76.1573 294.187 76.0514C294.399 76.0514 294.61 75.9454 294.822 75.9454C294.928 75.9454 295.034 75.8395 295.14 75.8395C295.352 75.8395 295.564 75.7336 295.776 75.7336C295.882 75.7336 295.882 75.7336 295.988 75.7336H296.094C296.411 75.6276 296.729 75.5217 297.047 75.4157C297.153 75.4157 297.153 75.4157 297.259 75.4157C297.577 75.3098 297.895 75.2039 298.318 74.992H298.424C298.53 74.992 298.636 74.886 298.742 74.886C298.848 74.886 298.954 74.7801 299.06 74.7801C299.166 74.6742 299.378 74.6741 299.484 74.5682C299.59 74.5682 299.696 74.4623 299.802 74.4623C300.013 74.3563 300.119 74.3563 300.331 74.2504C300.437 74.2504 300.543 74.1444 300.543 74.1444C300.755 74.0385 300.967 73.9326 301.285 73.7207C305.099 71.4959 307.006 68.6355 307.006 65.7751L306.9 62.3849Z" fill="#FB7070"/>
<path d="M284.018 55.181L287.62 67.4703L292.069 54.3335" stroke="#171A21" stroke-width="2" stroke-miterlimit="10" stroke-linecap="round" stroke-linejoin="round"/>
<path d="M300.862 152.011C299.167 151.058 297.684 151.27 296.942 152.329C296.519 152.859 296.307 153.6 296.307 154.554C296.307 154.66 296.307 154.766 296.307 154.872C296.413 157.626 298.425 160.91 300.862 162.394C303.299 163.771 305.206 162.817 305.418 160.169C305.418 160.063 305.418 159.957 305.418 159.851C305.418 158.897 305.206 157.944 304.782 156.885C303.934 154.872 302.557 152.965 300.862 152.011Z" fill="#2F58FF"/>
<path d="M283.382 143.324C281.687 142.37 280.203 142.582 279.462 143.642C279.038 144.171 278.826 144.913 278.826 145.866C278.826 145.972 278.826 146.078 278.826 146.184C278.932 148.939 280.945 152.223 283.382 153.706C285.818 155.083 287.725 154.13 287.937 151.481C287.937 151.375 287.937 151.269 287.937 151.163C287.937 150.21 287.725 149.256 287.301 148.197C286.454 146.184 285.077 144.277 283.382 143.324Z" fill="#2F58FF"/>
<path d="M190.152 101.689C190.152 101.478 190.152 101.266 190.046 101.054C190.046 100.842 189.94 100.524 189.94 100.312C189.94 100.1 189.834 99.9944 189.834 99.7825C189.834 99.6766 189.728 99.4647 189.728 99.3588C189.622 99.1469 189.622 98.935 189.516 98.7231C189.516 98.6172 189.41 98.5112 189.41 98.2993C189.305 98.0875 189.305 97.7696 189.199 97.5578C189.199 97.4518 189.093 97.3459 189.093 97.2399C188.987 96.9221 188.881 96.6043 188.669 96.2865V96.1805C188.563 95.8627 188.351 95.5449 188.245 95.333C188.245 95.227 188.139 95.1211 188.139 95.0152C188.033 94.6973 187.821 94.4854 187.715 94.1676C187.715 94.0617 187.609 94.0617 187.609 93.9557C187.398 93.6379 187.186 93.3201 187.08 93.0023C186.974 92.8963 186.974 92.7904 186.868 92.7904C186.762 92.5785 186.55 92.3666 186.444 92.1547C186.338 92.0488 186.232 91.9429 186.232 91.8369C186.126 91.625 185.914 91.5191 185.808 91.3072C185.703 91.2013 185.597 90.9894 185.491 90.8834C185.385 90.7775 185.279 90.6716 185.173 90.4597C184.961 90.2478 184.749 90.0359 184.537 89.824C184.431 89.7181 184.325 89.6121 184.113 89.4003C184.007 89.2943 183.902 89.1884 183.796 89.0824C183.584 88.9765 183.478 88.7646 183.266 88.6587C183.16 88.5527 183.054 88.4468 182.948 88.4468C182.736 88.3408 182.524 88.129 182.418 88.023C182.312 87.9171 182.206 87.9171 182.101 87.8111C181.783 87.5992 181.571 87.3874 181.253 87.2814C180.935 87.0695 180.723 86.9636 180.405 86.8577C180.3 86.8577 180.3 86.7517 180.194 86.7517C179.982 86.6458 179.664 86.5398 179.452 86.4339C179.24 86.328 179.028 86.3279 178.816 86.222C178.71 86.222 178.604 86.1161 178.499 86.1161C178.287 86.1161 178.181 86.0101 177.969 86.0101C177.863 86.0101 177.757 86.0101 177.651 86.0101C177.439 86.0101 177.227 86.0101 177.121 86.0101H177.015C176.803 86.0101 176.592 86.0101 176.38 86.1161C176.274 86.1161 176.274 86.1161 176.168 86.1161C175.956 86.1161 175.85 86.222 175.638 86.222C175.638 86.222 175.532 86.222 175.532 86.3279C175.32 86.4339 175.108 86.5398 174.896 86.6458L182.206 82.4081C182.312 82.3022 182.524 82.3022 182.63 82.1962H182.736C182.736 82.1962 182.842 82.1962 182.842 82.0903C182.948 82.0903 182.948 81.9843 183.054 81.9843C183.16 81.9843 183.266 81.9843 183.266 81.8784C183.372 81.8784 183.372 81.8784 183.478 81.8784H183.584C183.796 81.8784 183.902 81.8784 184.113 81.7725H184.219C184.325 81.7725 184.537 81.7725 184.643 81.7725H184.749C184.855 81.7725 184.961 81.7725 185.067 81.7725C185.173 81.7725 185.279 81.7725 185.279 81.7725C185.385 81.7725 185.385 81.7725 185.491 81.7725C185.597 81.7725 185.703 81.7725 185.808 81.8784C185.914 81.8784 185.914 81.8784 186.02 81.8784C186.126 81.8784 186.338 81.9843 186.444 81.9843C186.656 82.0903 186.762 82.0903 186.974 82.1962C187.08 82.1962 187.08 82.3022 187.186 82.3022C187.292 82.3022 187.292 82.4081 187.398 82.4081C187.715 82.5141 187.927 82.7259 188.245 82.8319C188.563 83.0438 188.775 83.1497 189.093 83.3616C189.199 83.4675 189.305 83.4675 189.41 83.5735C189.622 83.6794 189.834 83.8913 189.94 83.9972C190.046 84.1032 190.152 84.2091 190.258 84.2091C190.47 84.3151 190.576 84.5269 190.788 84.6329C190.894 84.7388 191 84.8448 191.106 84.9507C191.211 85.0567 191.211 85.0566 191.317 85.1626C191.423 85.2685 191.423 85.2685 191.529 85.3745C191.741 85.5864 191.953 85.7982 192.165 86.0101C192.271 86.1161 192.271 86.1161 192.377 86.222C192.377 86.3279 192.483 86.328 192.483 86.4339C192.589 86.5398 192.695 86.7517 192.801 86.8577C192.907 86.9636 192.907 87.0695 193.013 87.1755C193.118 87.2814 193.118 87.3874 193.224 87.3874C193.33 87.4933 193.436 87.5992 193.436 87.7052C193.542 87.8111 193.542 87.8111 193.648 87.9171C193.754 88.023 193.86 88.2349 193.966 88.3408C194.072 88.4468 194.072 88.5527 194.178 88.5527C194.178 88.5527 194.178 88.6587 194.284 88.6587C194.496 88.8705 194.602 89.1884 194.708 89.4003C194.708 89.4003 194.708 89.4003 194.708 89.5062C194.708 89.6121 194.814 89.6121 194.814 89.7181C194.919 89.93 195.025 90.0359 195.131 90.2478C195.131 90.3537 195.237 90.4597 195.237 90.4597C195.237 90.5656 195.343 90.6716 195.343 90.7775C195.343 90.8834 195.449 90.8834 195.449 90.9894C195.555 91.2013 195.661 91.4131 195.767 91.625V91.731C195.873 92.0488 195.979 92.2607 196.085 92.5785C196.085 92.5785 196.085 92.6844 196.191 92.6844C196.191 92.7904 196.297 92.8963 196.297 93.0023C196.297 93.1082 196.403 93.3201 196.403 93.426C196.403 93.532 196.509 93.6379 196.509 93.7439C196.509 93.8498 196.615 93.9557 196.615 94.1676C196.615 94.2736 196.615 94.2736 196.72 94.3795C196.72 94.4855 196.826 94.6973 196.826 94.8033C196.826 94.9092 196.932 95.1211 196.932 95.227C196.932 95.333 196.932 95.333 196.932 95.4389C196.932 95.5449 196.932 95.6508 197.038 95.7567C197.038 95.9686 197.144 96.2865 197.144 96.4983C197.144 96.6043 197.144 96.6043 197.144 96.7102C197.144 96.8162 197.144 97.0281 197.144 97.134C197.144 97.2399 197.144 97.3459 197.144 97.4518C197.144 97.7696 197.144 98.0875 197.144 98.4053C197.144 101.266 196.085 103.279 194.496 104.232L187.186 108.47C188.775 107.516 189.834 105.503 189.834 102.643C189.834 102.325 189.834 102.007 189.834 101.689C190.152 101.901 190.152 101.795 190.152 101.689Z" fill="#2F58FF"/>
<path d="M181.254 87.4933C176.274 84.6329 172.249 86.9636 172.143 92.6844C172.143 98.4053 176.168 105.397 181.148 108.258C186.127 111.118 190.153 108.788 190.153 103.067C190.259 97.3458 186.233 90.3537 181.254 87.4933Z" fill="#FB7070"/>
</svg>
