<svg width="421" height="489" viewBox="0 0 421 489" fill="none" xmlns="http://www.w3.org/2000/svg">
<path d="M146.294 238.248C146.294 238.46 146.294 238.672 146.294 238.778C146.294 238.99 146.294 239.095 146.188 239.307C146.188 239.519 146.082 239.731 146.082 239.837C146.082 240.049 145.976 240.155 145.976 240.367C145.976 240.579 145.87 240.791 145.87 240.896C145.87 241.108 145.764 241.214 145.764 241.426C145.658 241.638 145.658 241.744 145.552 241.956C145.446 242.168 145.447 242.274 145.341 242.486C145.235 242.697 145.235 242.909 145.129 243.015C145.023 243.227 145.023 243.333 144.917 243.545C144.811 243.757 144.705 243.969 144.599 244.075C144.493 244.181 144.387 244.393 144.387 244.498C144.281 244.71 144.069 244.922 143.963 245.134C143.857 245.24 143.751 245.452 143.645 245.558C143.434 245.77 143.328 246.088 143.116 246.299C143.01 246.405 143.01 246.511 142.904 246.617C142.586 247.041 142.268 247.359 141.95 247.783C141.844 247.889 141.739 247.995 141.633 248.1C141.315 248.418 141.103 248.63 140.785 248.948C140.679 249.054 140.467 249.16 140.361 249.372C140.149 249.584 140.043 249.69 139.832 249.902C139.62 250.007 139.514 250.219 139.302 250.325C139.09 250.431 138.878 250.643 138.666 250.749C138.454 250.855 138.242 251.067 138.137 251.173C137.925 251.279 137.713 251.491 137.501 251.597C137.289 251.702 137.077 251.914 136.865 252.02C136.653 252.126 136.441 252.338 136.124 252.444C135.806 252.656 135.594 252.762 135.276 252.974C134.746 253.292 134.111 253.609 133.475 253.927C133.263 254.033 133.157 254.139 132.945 254.139C132.522 254.351 131.992 254.563 131.568 254.775C131.356 254.881 131.25 254.881 131.038 254.987C130.403 255.305 129.767 255.516 129.131 255.728C129.026 255.728 128.92 255.834 128.814 255.834C128.284 256.046 127.754 256.258 127.119 256.364C126.907 256.47 126.695 256.47 126.377 256.576C126.059 256.682 125.741 256.788 125.424 256.894C125.212 257 124.894 257 124.682 257.106C124.364 257.211 124.046 257.317 123.728 257.317C123.411 257.423 123.199 257.423 122.881 257.529C122.563 257.635 122.245 257.635 121.927 257.741C121.61 257.847 121.398 257.847 121.08 257.953C120.762 258.059 120.444 258.059 120.126 258.165C119.915 258.165 119.597 258.271 119.385 258.271C118.643 258.377 117.902 258.483 117.266 258.589C117.16 258.589 117.054 258.589 116.948 258.589C116.313 258.695 115.677 258.801 115.041 258.801C114.829 258.801 114.512 258.801 114.3 258.907C113.876 258.907 113.452 259.012 113.028 259.012C112.816 259.012 112.499 259.012 112.287 259.118C111.863 259.118 111.439 259.118 111.015 259.224C110.804 259.224 110.486 259.224 110.274 259.224C109.85 259.224 109.532 259.224 109.109 259.224C108.897 259.224 108.579 259.224 108.367 259.224C107.943 259.224 107.519 259.224 107.202 259.224C106.99 259.224 106.778 259.224 106.46 259.224C106.142 259.224 105.718 259.224 105.401 259.224C105.189 259.224 104.871 259.224 104.659 259.224C104.235 259.224 103.917 259.224 103.494 259.118C103.282 259.118 103.07 259.118 102.858 259.118C102.328 259.118 101.905 259.012 101.481 259.012C101.375 259.012 101.163 259.012 101.057 259.012C100.421 258.907 99.7857 258.907 99.256 258.801C99.15 258.801 99.0441 258.801 98.9381 258.801C98.4084 258.695 97.8787 258.695 97.349 258.589C97.1371 258.589 96.9253 258.483 96.7134 258.483C96.2896 258.377 95.9718 258.377 95.548 258.271C95.3361 258.271 95.1243 258.165 94.9124 258.165C94.4886 258.059 94.0648 257.953 93.6411 257.847C93.4292 257.741 93.2173 257.741 92.8995 257.635C92.4757 257.529 92.1579 257.423 91.7341 257.317C91.5222 257.211 91.3104 257.211 91.0985 257.106C90.4628 256.894 89.9331 256.788 89.2975 256.576C89.1915 256.576 89.0856 256.47 88.9796 256.47C88.344 256.258 87.6024 255.94 86.9667 255.728C86.6489 255.622 86.437 255.516 86.1192 255.41C85.9073 255.305 85.6954 255.199 85.4836 255.199C85.1657 255.093 84.8479 254.987 84.636 254.775C84.4241 254.669 84.2123 254.563 84.1063 254.563C83.7885 254.457 83.4707 254.245 83.1529 254.139C83.0469 254.033 82.835 254.033 82.7291 253.927C82.3053 253.715 81.7756 253.398 81.3518 253.186C78.0677 251.279 75.5251 249.16 73.6181 246.829C73.0884 246.194 72.6646 245.452 72.2409 244.816C72.029 244.498 71.8171 244.181 71.7112 243.757C70.6517 241.638 70.122 239.519 70.122 237.4L69.9102 300.224C69.9102 305.945 73.6181 311.665 81.14 316.009C81.5637 316.221 82.0934 316.539 82.5172 316.751C82.6231 316.857 82.835 316.857 82.941 316.963C83.2588 317.174 83.5766 317.28 83.8944 317.386C84.1063 317.492 84.3182 317.598 84.4241 317.704C84.742 317.81 85.0598 318.022 85.2717 318.128C85.4836 318.234 85.6955 318.34 85.9073 318.34C86.1192 318.446 86.3311 318.552 86.543 318.552C86.6489 318.552 86.6489 318.552 86.7549 318.658C87.3905 318.869 88.1321 319.187 88.7678 319.399C88.8737 319.399 88.9796 319.505 89.0856 319.505C89.7212 319.717 90.2509 319.929 90.8866 320.035C90.9925 320.035 91.0985 320.141 91.2044 320.141C91.3104 320.141 91.4163 320.247 91.5222 320.247C91.946 320.353 92.2638 320.459 92.6876 320.565C92.8995 320.67 93.1114 320.67 93.4292 320.776C93.853 320.882 94.2767 320.988 94.7005 321.094C94.9124 321.094 95.0183 321.2 95.2302 321.2H95.3361C95.7599 321.306 96.0777 321.306 96.5015 321.412C96.7134 321.412 96.9253 321.518 97.1371 321.518C97.6668 321.624 98.1966 321.73 98.7263 321.73C98.8322 321.73 98.9381 321.73 98.9381 321.73C99.5738 321.836 100.104 321.942 100.739 321.942C100.845 321.942 101.057 321.942 101.163 321.942C101.693 321.942 102.116 322.048 102.646 322.048C102.858 322.048 103.07 322.048 103.282 322.048C103.706 322.048 104.023 322.154 104.447 322.154C104.659 322.154 104.977 322.154 105.189 322.154C105.507 322.154 105.93 322.154 106.248 322.154H106.354C106.566 322.154 106.778 322.154 106.99 322.154C107.413 322.154 107.837 322.154 108.155 322.154C108.367 322.154 108.685 322.154 108.897 322.154C109.214 322.154 109.638 322.154 109.956 322.154C110.062 322.154 110.062 322.154 110.168 322.154C110.38 322.154 110.486 322.154 110.698 322.154C111.121 322.154 111.545 322.154 111.969 322.048C112.181 322.048 112.499 322.048 112.711 321.942C113.134 321.942 113.558 321.836 113.982 321.836C114.088 321.836 114.3 321.836 114.406 321.836C114.512 321.836 114.618 321.836 114.723 321.836C115.359 321.73 115.995 321.73 116.63 321.624C116.736 321.624 116.842 321.624 116.948 321.624C117.69 321.518 118.431 321.412 119.067 321.306C119.173 321.306 119.173 321.306 119.279 321.306C119.491 321.306 119.703 321.2 119.809 321.2C120.126 321.094 120.444 321.094 120.762 320.988C121.08 320.882 121.292 320.882 121.61 320.776C121.927 320.67 122.245 320.67 122.563 320.565C122.881 320.459 123.093 320.459 123.411 320.353C123.728 320.247 124.046 320.141 124.364 320.141C124.576 320.035 124.894 320.035 125.106 319.929C125.424 319.823 125.741 319.717 126.059 319.611C126.165 319.611 126.377 319.505 126.483 319.505C126.589 319.505 126.695 319.399 126.801 319.399C127.33 319.187 127.86 318.975 128.496 318.869C128.602 318.869 128.708 318.764 128.814 318.764C129.449 318.552 130.085 318.234 130.721 318.022C130.933 317.916 131.038 317.916 131.25 317.81C131.78 317.598 132.204 317.386 132.628 317.174C132.839 317.068 132.945 316.963 133.157 316.963C133.793 316.645 134.323 316.327 134.958 316.009C135.064 315.903 135.276 315.797 135.382 315.691C135.488 315.585 135.7 315.479 135.806 315.479C136.018 315.373 136.23 315.162 136.547 315.056C136.759 314.95 136.971 314.738 137.183 314.632C137.395 314.526 137.607 314.314 137.819 314.208C138.031 314.102 138.242 313.89 138.348 313.784C138.56 313.678 138.772 313.466 138.984 313.361C139.196 313.255 139.302 313.043 139.514 312.937C139.726 312.725 139.938 312.619 140.043 312.407C140.149 312.301 140.149 312.301 140.255 312.195C140.361 312.089 140.361 312.089 140.467 311.983C140.785 311.665 141.103 311.454 141.315 311.136C141.421 311.03 141.527 310.924 141.633 310.818C141.95 310.394 142.268 310.076 142.586 309.653C142.692 309.547 142.692 309.441 142.798 309.335C143.01 309.123 143.116 308.805 143.328 308.593C143.434 308.487 143.54 308.275 143.645 308.169C143.751 307.957 143.963 307.746 144.069 307.534C144.069 307.428 144.175 307.428 144.175 307.322C144.175 307.216 144.281 307.11 144.281 307.004C144.387 306.792 144.493 306.58 144.599 306.474C144.705 306.262 144.705 306.156 144.811 305.945C144.917 305.733 145.023 305.521 145.023 305.415C145.023 305.309 145.129 305.203 145.129 305.203C145.129 305.097 145.129 305.097 145.235 304.991C145.341 304.779 145.341 304.673 145.447 304.461C145.447 304.25 145.552 304.144 145.552 303.932C145.552 303.72 145.658 303.614 145.658 303.402C145.658 303.296 145.764 303.19 145.764 303.084C145.764 302.978 145.764 302.978 145.764 302.872C145.764 302.66 145.87 302.449 145.87 302.343C145.87 302.131 145.87 302.025 145.976 301.813C145.976 301.601 145.976 301.389 145.976 301.283C145.976 301.177 145.976 301.071 145.976 300.965C145.976 300.859 145.976 300.753 145.976 300.648L146.188 237.824C146.294 237.824 146.294 238.036 146.294 238.248Z" fill="#FB7070"/>
<path d="M134.957 221.827C149.895 230.514 150.001 244.499 135.169 253.08C120.337 261.767 96.0768 261.767 81.139 253.08C66.2012 244.393 66.0953 230.408 80.9271 221.827C95.7589 213.246 120.02 213.246 134.957 221.827Z" fill="white"/>
<path d="M71.4985 243.757C67.5787 236.235 70.7569 227.76 81.0333 221.827C95.8651 213.14 120.126 213.14 135.063 221.827C145.552 227.866 148.73 236.553 144.598 244.181" stroke="#171A21" stroke-width="2" stroke-miterlimit="10" stroke-linecap="round" stroke-linejoin="round"/>
<path d="M130.614 224.581C143.115 231.256 143.221 241.956 130.72 248.63C118.219 255.304 98.0902 255.304 85.5891 248.63C73.088 241.956 72.9821 231.256 85.4832 224.581C97.9843 217.907 118.113 217.907 130.614 224.581Z" fill="#2F58FF"/>
<path d="M70.2274 296.94C72.5581 297.681 75.8423 295.88 78.067 294.503C78.7027 294.079 79.5502 294.079 80.2918 294.503L80.8215 294.821C82.3047 295.668 82.3047 297.787 80.7156 298.635C78.7027 299.694 76.266 300.542 74.6769 299.588L69.8036 296.728C69.9095 296.834 70.1214 296.94 70.2274 296.94ZM60.2689 293.444C60.3748 301.495 62.3877 304.674 69.4858 308.593C62.7055 304.674 64.8243 290.795 66.6254 284.862C69.062 276.811 74.3591 271.196 80.9275 266.746C82.3047 265.899 82.1988 263.886 80.8215 263.038L80.1859 262.615C79.5502 262.191 78.7027 262.191 77.9611 262.615C66.6254 269.819 60.1629 279.777 60.2689 293.444Z" fill="white"/>
<path d="M69.8036 296.834C69.9095 296.94 70.0155 296.94 70.2273 297.046C72.5581 297.787 75.8423 295.986 78.067 294.609C78.7027 294.185 79.5502 294.185 80.2918 294.609L80.8215 294.927C82.3047 295.774 82.3047 297.893 80.7156 298.741M80.9274 266.852C82.3047 266.005 82.1987 263.992 80.8215 263.144L80.1859 262.721C79.5502 262.297 78.7027 262.297 77.9611 262.721C66.7313 269.607 60.1629 279.671 60.2688 293.338C60.3748 301.389 62.3877 304.568 69.4858 308.487" stroke="#171A21" stroke-width="2" stroke-miterlimit="10" stroke-linecap="round" stroke-linejoin="round"/>
<path d="M83.8942 268.865C83.8942 267.17 81.9873 266.11 80.6101 267.064C77.008 269.395 73.9357 272.043 71.2872 275.539C67.1555 281.154 65.1426 287.828 65.1426 295.986C65.1426 304.143 67.1555 308.487 71.3931 309.335C74.5714 309.97 78.3853 308.381 82.9408 305.838C83.6824 305.415 84.1061 304.779 84.1061 303.931V300.224C84.1061 298.634 82.4111 297.575 80.9279 298.317C78.809 299.376 76.7962 300.012 75.5249 299.8C74.7833 299.694 72.6644 299.27 72.6644 291.642C72.6644 284.014 74.7833 281.154 75.5249 280.201C77.3259 277.87 80.0803 275.857 83.0467 274.162C83.6824 273.738 84.1061 273.102 84.1061 272.361L83.8942 268.865Z" fill="#2F58FF"/>
</svg>
