<svg width="535" height="457" viewBox="0 0 535 457" fill="none" xmlns="http://www.w3.org/2000/svg">
<g clip-path="url(#clip0)">
<path d="M152.3 279.8C152.3 279.7 152.3 279.6 152.3 279.5C152.3 279.4 152.3 279.4 152.3 279.3C152.3 279.3 152.3 279.3 152.3 279.2V279.1C152.3 279 152.3 278.9 152.3 278.8C152.3 278.7 152.3 278.6 152.2 278.4C152.2 278.3 152.2 278.2 152.1 278.1C152.1 278 152.1 277.9 152 277.7V277.6V277.5C152 277.4 152 277.4 152 277.3C152 277.2 151.9 277 151.9 276.9C151.9 276.8 151.8 276.7 151.8 276.6C151.8 276.6 151.8 276.6 151.8 276.5C151.8 276.4 151.7 276.3 151.7 276.1C151.7 276 151.6 275.9 151.6 275.7C151.6 275.7 151.6 275.7 151.6 275.6C151.6 275.6 151.6 275.6 151.6 275.5C151.6 275.4 151.5 275.3 151.5 275.3C151.5 275.2 151.4 275.1 151.4 275C151.4 274.9 151.3 274.8 151.3 274.8C151.2 274.7 151.2 274.6 151.1 274.5C151 274.4 151 274.3 150.9 274.1C150.9 274.1 150.9 274.1 150.9 274C150.9 274 150.9 274 150.9 273.9C150.8 273.8 150.8 273.7 150.7 273.6C150.6 273.5 150.6 273.4 150.5 273.2C150.5 273.1 150.4 273.1 150.4 273C150.4 273 150.4 273 150.4 272.9C150.3 272.8 150.3 272.7 150.2 272.6C150.1 272.4 150 272.3 149.9 272.1C149.9 272.1 149.9 272.1 149.9 272C149.8 271.8 149.6 271.6 149.5 271.4C149.4 271.3 149.3 271.1 149.2 271C149.1 270.9 149 270.8 148.9 270.7C148.8 270.6 148.7 270.5 148.6 270.4C148.5 270.3 148.4 270.2 148.3 270.1C148.3 270.1 148.3 270.1 148.3 270C148.2 269.9 148.2 269.9 148.1 269.8C148 269.7 147.9 269.6 147.8 269.5L147.7 269.4C147.7 269.4 147.7 269.4 147.6 269.3L147.5 269.2C147.4 269.1 147.3 269 147.2 268.9L147.1 268.8C147.1 268.8 147.1 268.8 147 268.7L146.9 268.6C146.8 268.5 146.7 268.4 146.6 268.4C146.5 268.3 146.4 268.3 146.4 268.2C146.3 268.1 146.2 268.1 146.1 268C146 267.9 145.9 267.9 145.8 267.8C145.8 267.8 145.8 267.8 145.7 267.8L134.4 261.3C134.4 261.3 134.3 261.3 134.3 261.2L134.2 261.1H134.1C134.1 261.1 134 261.1 134 261C134 261 133.9 261 133.9 260.9H133.8H133.7C133.7 260.9 133.7 260.9 133.6 260.9C133.5 260.9 133.5 260.9 133.4 260.9H133.3C133.2 260.9 133.2 260.9 133.1 260.9C133.1 260.9 133.1 260.9 133 260.9C133 260.9 133 260.9 132.9 260.9C132.9 260.9 132.9 260.9 132.8 260.9C132.7 260.9 132.7 260.9 132.6 260.9C132.5 260.9 132.5 260.9 132.4 261C132.3 261 132.2 261.1 132.1 261.1L128.6 263.1C128 263.5 127.6 264.3 127.6 265.4C127.6 267.6 129.2 270.4 131.1 271.5L140.7 277C141.7 277.6 142.4 278.9 142.4 280L142.2 404.7C142.2 406.9 143.8 409.7 145.7 410.8C146.7 411.4 147.6 411.4 148.2 411L151.7 409C151.8 408.9 152 408.8 152.1 408.7L152.2 408.6C152.2 408.5 152.3 408.5 152.3 408.4C152.3 408.3 152.4 408.2 152.4 408.2C152.4 408.1 152.5 408.1 152.5 408C152.5 407.9 152.5 407.9 152.6 407.8C152.6 407.7 152.6 407.7 152.6 407.6V407.5C152.6 407.5 152.6 407.5 152.6 407.4C152.6 407.3 152.6 407.3 152.6 407.2C152.6 407.1 152.6 407.1 152.6 407C152.6 406.9 152.6 406.9 152.6 406.8C152.6 406.7 152.6 406.7 152.6 406.6L152.8 279.9C152.3 280 152.3 279.9 152.3 279.8ZM128.4 262.9H128.3H128.4ZM128.7 262.8H128.6C128.6 262.9 128.7 262.9 128.7 262.8ZM129.3 262.9C129.3 262.9 129.4 262.9 129.3 262.9H129.2C129.3 262.9 129.3 262.9 129.3 262.9ZM129.7 263H129.6H129.7ZM130 263.1H129.9C130 263.1 130 263.1 130 263.1ZM128.9 262.8H129C129 262.8 128.9 262.9 128.9 262.8Z" fill="#2F58FF"/>
<path d="M183.1 257.5C183.1 257.4 183.1 257.3 183.1 257.2C183.1 257.1 183.1 257.1 183.1 257C183.1 257 183.1 257 183.1 256.9V256.8C183.1 256.7 183.1 256.6 183.1 256.5C183.1 256.4 183.1 256.3 183 256.1C183 256 183 255.9 182.9 255.8C182.9 255.7 182.9 255.6 182.8 255.4V255.3V255.2C182.8 255.1 182.8 255.1 182.8 255C182.8 254.9 182.7 254.7 182.7 254.6C182.7 254.5 182.6 254.4 182.6 254.3C182.6 254.3 182.6 254.3 182.6 254.2C182.6 254.1 182.5 254 182.5 253.8C182.5 253.7 182.4 253.6 182.4 253.4C182.4 253.4 182.4 253.4 182.4 253.3C182.4 253.3 182.4 253.3 182.4 253.2C182.4 253.1 182.3 253 182.3 253C182.3 252.9 182.2 252.8 182.2 252.7C182.2 252.6 182.1 252.5 182.1 252.5C182 252.4 182 252.3 181.9 252.2C181.8 252.1 181.8 252 181.7 251.8C181.7 251.8 181.7 251.8 181.7 251.7C181.7 251.7 181.7 251.7 181.7 251.6C181.6 251.5 181.6 251.4 181.5 251.3C181.4 251.2 181.4 251.1 181.3 250.9C181.3 250.8 181.2 250.8 181.2 250.7C181.2 250.7 181.2 250.7 181.2 250.6C181.1 250.5 181.1 250.4 181 250.3C180.9 250.1 180.8 250 180.7 249.8C180.7 249.8 180.7 249.8 180.7 249.7C180.6 249.5 180.4 249.3 180.3 249.1C180.2 249 180.1 248.8 180 248.7C179.9 248.6 179.8 248.5 179.7 248.4C179.6 248.3 179.5 248.2 179.4 248.1C179.3 248 179.2 247.9 179.1 247.8C179.1 247.8 179.1 247.8 179.1 247.7C179 247.6 179 247.6 178.9 247.5C178.8 247.4 178.7 247.3 178.6 247.2L178.5 247.1C178.5 247.1 178.5 247.1 178.4 247L178.3 246.9C178.2 246.8 178.1 246.7 178 246.6L177.9 246.5C177.9 246.5 177.9 246.5 177.8 246.4L177.7 246.3C177.6 246.2 177.5 246.1 177.4 246.1C177.3 246 177.2 246 177.2 245.9C177.1 245.8 177 245.8 176.9 245.7C176.8 245.6 176.7 245.6 176.6 245.5C176.6 245.5 176.6 245.5 176.5 245.5L165.2 239C165.2 239 165.1 239 165.1 238.9L165 238.8H164.9C164.9 238.8 164.8 238.8 164.8 238.7C164.8 238.7 164.7 238.7 164.7 238.6H164.6H164.5C164.5 238.6 164.5 238.6 164.4 238.6C164.3 238.6 164.3 238.6 164.2 238.6H164.1C164 238.6 164 238.6 163.9 238.6C163.9 238.6 163.9 238.6 163.8 238.6C163.8 238.6 163.8 238.6 163.7 238.6C163.7 238.6 163.7 238.6 163.6 238.6C163.5 238.6 163.5 238.6 163.4 238.6C163.3 238.6 163.3 238.6 163.2 238.7C163.1 238.7 163 238.8 162.9 238.8L159.4 240.8C158.8 241.2 158.4 242 158.4 243.1C158.4 245.3 160 248.1 161.9 249.2L171.5 254.7C172.5 255.3 173.2 256.6 173.2 257.7L173 382.4C173 384.6 174.6 387.4 176.5 388.5C177.5 389.1 178.4 389.1 179 388.7L182.5 386.7C182.6 386.6 182.8 386.5 182.9 386.4L183 386.3C183 386.2 183.1 386.2 183.1 386.1C183.1 386 183.2 385.9 183.2 385.9C183.2 385.8 183.3 385.8 183.3 385.7C183.3 385.6 183.3 385.6 183.4 385.5C183.4 385.4 183.4 385.4 183.4 385.3V385.2C183.4 385.2 183.4 385.2 183.4 385.1C183.4 385 183.4 385 183.4 384.9C183.4 384.8 183.4 384.8 183.4 384.7C183.4 384.6 183.4 384.6 183.4 384.5C183.4 384.4 183.4 384.4 183.4 384.3L183.6 257.6C183.1 257.7 183.1 257.6 183.1 257.5ZM159.3 240.6H159.2C159.2 240.6 159.2 240.6 159.3 240.6C159.2 240.6 159.2 240.6 159.3 240.6ZM159.5 240.6H159.4C159.5 240.6 159.5 240.6 159.5 240.6ZM160.2 240.6H160.1C160.1 240.6 160.1 240.6 160.2 240.6ZM160.5 240.7H160.4H160.5ZM160.9 240.9H160.8C160.8 240.8 160.8 240.9 160.9 240.9ZM159.7 240.6H159.8C159.8 240.6 159.8 240.6 159.7 240.6Z" fill="#2F58FF"/>
<path d="M168.1 450.3L183.3 441.7L167.1 416.1L153 424L168.1 450.3Z" fill="#2F58FF"/>
<path d="M160.2 425C156.2 422.7 152.7 423.2 150.8 425.8C149.9 427.1 149.4 428.9 149.4 431.1C149.4 431.4 149.4 431.6 149.4 431.9C149.7 438.6 154.4 446.4 160.1 449.7C165.8 453 170.5 450.6 170.9 444.3C170.9 444 170.9 443.8 170.9 443.5C170.9 441.2 170.4 438.8 169.5 436.5C167.6 431.8 164.2 427.3 160.2 425Z" fill="white"/>
<path d="M160.2 431.2C158.2 430 156.5 430.3 155.5 431.6C155 432.2 154.8 433.1 154.8 434.3C154.8 434.4 154.8 434.6 154.8 434.7C155 438 157.3 441.9 160.2 443.6C163.1 445.2 165.4 444 165.6 440.9C165.6 440.8 165.6 440.6 165.6 440.5C165.6 439.4 165.3 438.2 164.9 437C163.9 434.6 162.2 432.3 160.2 431.2Z" fill="#98A2F4"/>
<path d="M251 418.5C251 418.7 251 418.8 251 419C251 419.2 251 419.4 250.9 419.5C250.9 419.6 250.8 419.8 250.8 419.9C250.8 420.1 250.7 420.2 250.7 420.4C250.6 420.5 250.6 420.7 250.5 420.8C250.4 421 250.3 421.2 250.2 421.3C250.1 421.5 249.9 421.8 249.8 422L249.7 422.1C249.5 422.3 249.3 422.6 249.1 422.8L249 422.9C248.8 423.1 248.5 423.4 248.3 423.6C248.1 423.8 247.9 423.9 247.8 424C247.6 424.1 247.5 424.3 247.3 424.4C247.1 424.5 246.9 424.7 246.7 424.8C246.5 424.9 246.3 425.1 246 425.2C245.6 425.4 245.2 425.6 244.8 425.8C244.7 425.9 244.6 425.9 244.5 426C244.1 426.2 243.8 426.3 243.4 426.5C243.3 426.5 243.3 426.5 243.2 426.6C242.8 426.8 242.4 426.9 241.9 427C241.6 427.1 241.3 427.2 241 427.3C240.8 427.4 240.5 427.4 240.3 427.5C240 427.6 239.7 427.6 239.3 427.7C239.1 427.7 238.9 427.8 238.6 427.8C237.9 427.9 237.3 428 236.6 428.1C236.4 428.1 236.2 428.1 236 428.2C235.6 428.2 235.2 428.3 234.8 428.3C234.5 428.3 234.3 428.3 234 428.3C233.7 428.3 233.4 428.3 233 428.3C232.7 428.3 232.5 428.3 232.2 428.3C231.9 428.3 231.6 428.3 231.3 428.3C231 428.3 230.8 428.3 230.5 428.2C230.2 428.2 229.9 428.1 229.6 428.1C229.3 428.1 229.1 428 228.8 428C228.5 428 228.2 427.9 227.9 427.8C227.7 427.8 227.4 427.7 227.2 427.7C226.8 427.6 226.5 427.5 226.1 427.4C225.9 427.3 225.6 427.3 225.4 427.2C225.3 427.2 225.2 427.1 225 427.1C224.6 427 224.3 426.9 223.9 426.7C223.8 426.7 223.7 426.6 223.6 426.6C223.3 426.5 223 426.3 222.7 426.2C222.6 426.1 222.4 426.1 222.2 426C221.8 425.8 221.3 425.6 220.9 425.3L170.8 397C167.4 395 165.6 392.4 165.6 389.8V397.6C165.6 400.2 167.3 402.8 170.8 404.8L220.9 433.1C221.3 433.3 221.7 433.6 222.2 433.8C222.3 433.9 222.5 433.9 222.7 434C223 434.1 223.2 434.2 223.5 434.3C223.5 434.3 223.6 434.3 223.6 434.4C223.7 434.4 223.8 434.5 223.9 434.5C224.2 434.6 224.6 434.7 225 434.9C225.1 434.9 225.2 435 225.4 435C225.5 435 225.6 435.1 225.6 435.1C225.7 435.1 225.9 435.2 226 435.2C226.4 435.3 226.7 435.4 227.1 435.5C227.2 435.5 227.3 435.6 227.4 435.6C227.5 435.6 227.7 435.6 227.8 435.7C228.1 435.8 228.4 435.8 228.7 435.9C228.8 435.9 228.9 435.9 229.1 436C229.2 436 229.4 436 229.5 436C229.8 436 230.1 436.1 230.4 436.1C230.5 436.1 230.7 436.1 230.8 436.1C230.9 436.1 231.1 436.1 231.2 436.1C231.5 436.1 231.8 436.1 232.1 436.1C232.2 436.1 232.4 436.1 232.5 436.1C232.6 436.1 232.7 436.1 232.9 436.1C233.2 436.1 233.5 436.1 233.9 436.1C234.1 436.1 234.2 436.1 234.4 436.1C234.5 436.1 234.6 436.1 234.7 436.1C235.1 436.1 235.5 436.1 235.9 436C236.1 436 236.2 436 236.4 436H236.5C237.2 435.9 237.8 435.8 238.5 435.7H238.6C238.8 435.7 239 435.6 239.2 435.6C239.5 435.5 239.8 435.5 240.2 435.4C240.4 435.3 240.7 435.3 240.9 435.2C241.2 435.1 241.5 435 241.8 434.9C241.9 434.9 241.9 434.9 242 434.8C242.4 434.7 242.7 434.6 243.1 434.4C243.2 434.4 243.2 434.4 243.2 434.3C243.6 434.2 244 434 244.3 433.8C244.4 433.8 244.5 433.7 244.6 433.6C245 433.4 245.4 433.2 245.8 433C245.9 433 245.9 432.9 246 432.9C246.2 432.8 246.3 432.7 246.4 432.6C246.6 432.5 246.8 432.3 247 432.2C247.2 432.1 247.3 431.9 247.5 431.8C247.7 431.7 247.9 431.5 248 431.4L248.1 431.3C248.3 431.1 248.5 430.9 248.7 430.7L248.8 430.6C248.9 430.5 249 430.3 249.1 430.2C249.2 430.1 249.3 430 249.3 429.9L249.4 429.8C249.5 429.6 249.7 429.4 249.8 429.2C249.8 429.2 249.8 429.1 249.9 429.1C250 428.9 250.1 428.7 250.2 428.6C250.2 428.5 250.3 428.4 250.3 428.3V428.2C250.4 428 250.4 427.9 250.4 427.7C250.4 427.6 250.5 427.5 250.5 427.3V427.2C250.5 427 250.5 426.8 250.6 426.7C250.6 426.6 250.6 426.5 250.6 426.3C250.6 426.2 250.6 426.2 250.6 426.1L251 418.5Z" fill="#2F58FF"/>
<path d="M171.2 397.3C164.4 393.4 164.3 387 171.1 383C177.9 379.1 188.9 379.1 195.8 383L245.9 411.3C252.7 415.2 252.8 421.6 246 425.6" fill="#98A2F4"/>
<path d="M171.2 397.3C164.4 393.4 164.3 387 171.1 383C177.9 379.1 188.9 379.1 195.8 383L245.9 411.3C252.7 415.2 252.8 421.6 246 425.6" stroke="#171A21" stroke-width="2" stroke-miterlimit="10" stroke-linecap="round" stroke-linejoin="round"/>
<path d="M144.8 417.8C138 413.9 137.9 407.5 144.7 403.5C151.5 399.6 162.5 399.6 169.4 403.5L219.5 431.8C226.3 435.7 226.4 442.1 219.6 446.1L206.5 454.7L144.8 417.8Z" fill="#98A2F4"/>
<path d="M224.6 439C224.6 439.2 224.6 439.3 224.6 439.5C224.6 439.7 224.6 439.9 224.5 440C224.5 440.1 224.4 440.3 224.4 440.4C224.4 440.6 224.3 440.7 224.3 440.9C224.2 441 224.2 441.2 224.1 441.3C224 441.5 223.9 441.7 223.8 441.8C223.7 442 223.5 442.3 223.4 442.5L223.3 442.6C223.1 442.8 222.9 443.1 222.7 443.3L222.6 443.4C222.4 443.6 222.1 443.9 221.9 444.1C221.7 444.3 221.5 444.4 221.4 444.5C221.2 444.6 221.1 444.8 220.9 444.9C220.7 445 220.5 445.2 220.3 445.3C220.1 445.4 219.9 445.6 219.6 445.7C219.2 445.9 218.8 446.1 218.4 446.3C218.3 446.4 218.2 446.4 218.1 446.5C217.7 446.7 217.4 446.8 217 447C216.9 447 216.9 447 216.8 447.1C216.4 447.3 216 447.4 215.5 447.5C215.2 447.6 214.9 447.7 214.6 447.8C214.4 447.9 214.1 447.9 213.9 448C213.6 448.1 213.3 448.1 212.9 448.2C212.7 448.2 212.5 448.3 212.2 448.3C211.5 448.4 210.9 448.5 210.2 448.6C210 448.6 209.8 448.6 209.6 448.7C209.2 448.7 208.8 448.8 208.4 448.8C208.1 448.8 207.9 448.8 207.6 448.8C207.3 448.8 207 448.8 206.6 448.8C206.3 448.8 206.1 448.8 205.8 448.8C205.5 448.8 205.2 448.8 204.9 448.8C204.6 448.8 204.4 448.8 204.1 448.7C203.8 448.7 203.5 448.6 203.2 448.6C202.9 448.6 202.7 448.5 202.4 448.5C202.1 448.5 201.8 448.4 201.5 448.3C201.3 448.3 201 448.2 200.8 448.2C200.4 448.1 200.1 448 199.7 447.9C199.5 447.8 199.2 447.8 199 447.7C198.9 447.7 198.8 447.6 198.6 447.6C198.2 447.5 197.9 447.4 197.5 447.2C197.4 447.2 197.3 447.1 197.2 447.1C196.9 447 196.6 446.8 196.3 446.7C196.2 446.6 196 446.6 195.8 446.5C195.4 446.3 194.9 446.1 194.5 445.8L144.4 417.5C141 415.5 139.2 412.9 139.2 410.3V418.1C139.2 420.7 140.9 423.3 144.4 425.3L194.5 453.6C194.9 453.8 195.3 454.1 195.8 454.3C195.9 454.4 196.1 454.4 196.3 454.5C196.6 454.6 196.8 454.7 197.1 454.8C197.1 454.8 197.2 454.8 197.2 454.9C197.3 454.9 197.4 455 197.5 455C197.8 455.1 198.2 455.2 198.6 455.4C198.7 455.4 198.8 455.5 199 455.5C199.1 455.5 199.2 455.6 199.2 455.6C199.3 455.6 199.5 455.7 199.6 455.7C200 455.8 200.3 455.9 200.7 456C200.8 456 200.9 456.1 201 456.1C201.1 456.1 201.3 456.1 201.4 456.2C201.7 456.3 202 456.3 202.3 456.4C202.4 456.4 202.5 456.4 202.7 456.5C202.8 456.5 203 456.5 203.1 456.5C203.4 456.5 203.7 456.6 204 456.6C204.1 456.6 204.3 456.6 204.4 456.6C204.5 456.6 204.7 456.6 204.8 456.6C205.1 456.6 205.4 456.6 205.7 456.6C205.8 456.6 206 456.6 206.1 456.6C206.2 456.6 206.3 456.6 206.5 456.6C206.8 456.6 207.1 456.6 207.5 456.6C207.7 456.6 207.8 456.6 208 456.6C208.1 456.6 208.2 456.6 208.3 456.6C208.7 456.6 209.1 456.6 209.5 456.5C209.7 456.5 209.8 456.5 210 456.5H210.1C210.8 456.4 211.4 456.3 212.1 456.2H212.2C212.4 456.2 212.6 456.1 212.8 456.1C213.1 456 213.4 456 213.8 455.9C214 455.8 214.3 455.8 214.5 455.7C214.8 455.6 215.1 455.5 215.4 455.4C215.5 455.4 215.5 455.4 215.6 455.3C216 455.2 216.3 455.1 216.7 454.9C216.8 454.9 216.8 454.9 216.8 454.8C217.2 454.7 217.6 454.5 217.9 454.3C218 454.3 218.1 454.2 218.2 454.1C218.6 453.9 219 453.7 219.4 453.5C219.5 453.5 219.5 453.4 219.6 453.4C219.8 453.3 219.9 453.2 220 453.1C220.2 453 220.4 452.8 220.6 452.7C220.8 452.6 220.9 452.4 221.1 452.3C221.3 452.2 221.5 452 221.6 451.9L221.7 451.8C221.9 451.6 222.1 451.4 222.3 451.2L222.4 451.1C222.5 451 222.6 450.8 222.7 450.7C222.8 450.6 222.9 450.5 222.9 450.4L223 450.3C223.1 450.1 223.3 449.9 223.4 449.7C223.4 449.7 223.4 449.6 223.5 449.6C223.6 449.4 223.7 449.2 223.8 449.1C223.8 449 223.9 448.9 223.9 448.8V448.7C224 448.5 224 448.4 224 448.2C224 448.1 224.1 448 224.1 447.8V447.7C224.1 447.5 224.1 447.3 224.2 447.2C224.2 447.1 224.2 447 224.2 446.8C224.2 446.7 224.2 446.7 224.2 446.6L224.6 439Z" fill="#2F58FF"/>
<path d="M144.8 417.8C138 413.9 137.9 407.5 144.7 403.5C151.5 399.6 162.5 399.6 169.4 403.5L219.5 431.8C226.3 435.7 226.4 442.1 219.6 446.1" fill="#98A2F4"/>
<path d="M144.8 417.8C138 413.9 137.9 407.5 144.7 403.5C151.5 399.6 162.5 399.6 169.4 403.5L219.5 431.8C226.3 435.7 226.4 442.1 219.6 446.1" stroke="#171A21" stroke-width="2" stroke-miterlimit="10" stroke-linecap="round" stroke-linejoin="round"/>
<path d="M187.5 402.4L151.9 381.8C151 381.3 149.8 381.9 149.8 383L149.7 409.8C149.7 411.8 150.7 413.6 152.5 414.6L187.4 434.8C189.1 435.8 191.2 435.8 192.9 434.8L227.6 414.6C229.3 413.6 230.3 411.8 230.3 409.8L230.4 382.9C230.4 381.8 229.2 381.2 228.3 381.7L192.9 402.3C191.4 403.4 189.3 403.4 187.5 402.4Z" fill="white"/>
<path d="M228.5 381.8L193.1 402.4C191.4 403.4 189.3 403.4 187.6 402.4L152 381.8C151.1 381.3 151.1 379.9 152 379.4L187.4 358.8C189.1 357.8 191.2 357.8 192.9 358.8L228.5 379.4C229.4 379.9 229.4 381.3 228.5 381.8Z" fill="#98A2F4"/>
<path d="M227.7 414.6C229.4 413.6 230.4 411.8 230.4 409.8L230.5 383.7C230.5 381.7 229.5 379.9 227.7 378.9L192.8 358.7C191.1 357.7 189 357.7 187.3 358.7L152.6 379C150.9 380 149.9 381.8 149.9 383.8L149.8 409.9C149.8 411.9 150.8 413.7 152.6 414.7" stroke="#171A21" stroke-width="2" stroke-miterlimit="10" stroke-linecap="round" stroke-linejoin="round"/>
<path d="M163.5 372.7L204 396L218.2 387.8L177.7 364.4L163.5 372.7Z" fill="white"/>
<path d="M168.7 369.6L163.5 372.7L168.7 375.7" stroke="#171A21" stroke-width="2" stroke-linecap="round" stroke-linejoin="round"/>
<path d="M178.7 381.4L193.8 390.1" stroke="#171A21" stroke-width="2" stroke-linecap="round" stroke-linejoin="round" stroke-dasharray="11.58 11.58"/>
<path d="M198.8 393L204 396L209.2 393" stroke="#171A21" stroke-width="2" stroke-linecap="round" stroke-linejoin="round"/>
<path d="M213 390.8L218.2 387.8L213 384.8" stroke="#171A21" stroke-width="2" stroke-linecap="round" stroke-linejoin="round"/>
<path d="M202.9 379L187.9 370.3" stroke="#171A21" stroke-width="2" stroke-linecap="round" stroke-linejoin="round" stroke-dasharray="11.58 11.58"/>
<path d="M182.9 367.4L177.7 364.4L172.5 367.4" stroke="#171A21" stroke-width="2" stroke-linecap="round" stroke-linejoin="round"/>
<path d="M187.5 364.7L151.9 344.1C151 343.6 149.8 344.2 149.8 345.3L149.7 372.1C149.7 374.1 150.7 375.9 152.5 376.9L187.4 397.1C189.1 398.1 191.2 398.1 192.9 397.1L227.6 376.9C229.3 375.9 230.3 374.1 230.3 372.1L230.4 345.2C230.4 344.1 229.2 343.5 228.3 344L192.9 364.6C191.4 365.7 189.3 365.7 187.5 364.7Z" fill="white"/>
<path d="M228.5 344.1L193.1 364.7C191.4 365.7 189.3 365.7 187.6 364.7L152 344.1C151.1 343.6 151.1 342.2 152 341.7L187.4 321.1C189.1 320.1 191.2 320.1 192.9 321.1L228.5 341.7C229.4 342.3 229.4 343.6 228.5 344.1Z" fill="#98A2F4"/>
<path d="M227.7 376.9C229.4 375.9 230.4 374.1 230.4 372.1L230.5 346C230.5 344 229.5 342.2 227.7 341.2L192.8 321C191.1 320 189 320 187.3 321L152.6 341.2C150.9 342.2 149.9 344 149.9 346L149.8 372.1C149.8 374.1 150.8 375.9 152.6 376.9" stroke="#171A21" stroke-width="2" stroke-miterlimit="10" stroke-linecap="round" stroke-linejoin="round"/>
<path d="M163.5 335L204 358.3L218.2 350.1L177.7 326.7L163.5 335Z" fill="white"/>
<path d="M168.7 332L163.5 335L168.7 338" stroke="#171A21" stroke-width="2" stroke-linecap="round" stroke-linejoin="round"/>
<path d="M178.7 343.8L193.8 352.4" stroke="#171A21" stroke-width="2" stroke-linecap="round" stroke-linejoin="round" stroke-dasharray="11.58 11.58"/>
<path d="M198.8 355.3L204 358.3L209.2 355.3" stroke="#171A21" stroke-width="2" stroke-linecap="round" stroke-linejoin="round"/>
<path d="M213 353.1L218.2 350.1L213 347.1" stroke="#171A21" stroke-width="2" stroke-linecap="round" stroke-linejoin="round"/>
<path d="M202.9 341.3L187.9 332.6" stroke="#171A21" stroke-width="2" stroke-linecap="round" stroke-linejoin="round" stroke-dasharray="11.58 11.58"/>
<path d="M182.9 329.7L177.7 326.7L172.5 329.8" stroke="#171A21" stroke-width="2" stroke-linecap="round" stroke-linejoin="round"/>
</g>
<defs>
<clipPath id="clip0">
<rect width="534.2" height="456.8" fill="white"/>
</clipPath>
</defs>
</svg>
