<svg width="535" height="457" viewBox="0 0 535 457" fill="none" xmlns="http://www.w3.org/2000/svg">
<path d="M179.6 212.8C179.3 212.8 179 212.8 178.8 212.9C178.7 212.9 178.7 212.9 178.6 212.9C178.4 212.9 178.2 213 178 213.1C177.9 213.1 177.9 213.1 177.8 213.2C177.5 213.3 177.3 213.4 177.1 213.5L275.7 156.2C275.7 156.2 275.7 156.2 275.8 156.2C276 156.1 276.2 156 276.4 155.9H276.5C276.6 155.9 276.6 155.9 276.7 155.8C276.8 155.8 276.9 155.7 277 155.7C277.1 155.7 277.2 155.6 277.4 155.6C277.5 155.6 277.5 155.6 277.6 155.6H277.7C277.9 155.6 278.1 155.5 278.4 155.5H278.5C278.6 155.5 278.6 155.5 278.7 155.5C278.8 155.5 279 155.5 279.1 155.5C279.2 155.5 279.4 155.5 279.5 155.5L310.1 154.2C310.4 154.2 310.7 154.2 310.9 154.2C311 154.2 311 154.2 311.1 154.2C311.4 154.2 311.7 154.2 311.9 154.1C312 154.1 312 154.1 312.1 154.1C312.3 154.1 312.5 154 312.7 153.9C312.8 153.9 312.8 153.9 312.9 153.8C313.2 153.7 313.4 153.6 313.6 153.5L215 210.8C215 210.8 215 210.8 214.9 210.8C214.7 210.9 214.5 211 214.3 211.1H214.2C214.1 211.1 214.1 211.1 214 211.2C213.9 211.2 213.8 211.3 213.7 211.3C213.6 211.3 213.5 211.4 213.3 211.4C213.2 211.4 213.2 211.4 213.1 211.4C213.1 211.4 213.1 211.4 213 211.4C212.8 211.4 212.6 211.5 212.4 211.5H212.3C212.2 211.5 212.2 211.5 212.1 211.5C212 211.5 211.9 211.5 211.7 211.5C211.5 211.5 211.4 211.5 211.2 211.5L180.6 212.8C180.3 212.8 180 212.8 179.8 212.8C179.7 212.8 179.6 212.8 179.6 212.8Z" fill="#98A2F4"/>
<path d="M179.6 212.8C179.3 212.8 179 212.8 178.8 212.9C178.7 212.9 178.7 212.9 178.6 212.9C178.4 212.9 178.2 213 178 213.1C177.9 213.1 177.9 213.1 177.8 213.2C177.5 213.3 177.3 213.4 177.1 213.5L275.7 156.2C275.7 156.2 275.7 156.2 275.8 156.2C276 156.1 276.2 156 276.4 155.9H276.5C276.6 155.9 276.6 155.9 276.7 155.8" fill="#98A2F4"/>
<path d="M179.6 212.8C179.3 212.8 179 212.8 178.8 212.9C178.7 212.9 178.7 212.9 178.6 212.9C178.4 212.9 178.2 213 178 213.1C177.9 213.1 177.9 213.1 177.8 213.2C177.5 213.3 177.3 213.4 177.1 213.5L275.7 156.2C275.7 156.2 275.7 156.2 275.8 156.2C276 156.1 276.2 156 276.4 155.9H276.5C276.6 155.9 276.6 155.9 276.7 155.8" stroke="#171A21" stroke-width="2" stroke-miterlimit="10" stroke-linecap="round" stroke-linejoin="round"/>
<path d="M199.2 270.4C199.4 269.7 199.6 269.1 199.8 268.5C200.4 267 201.2 265.7 202.1 264.6C202.9 263.7 203.7 263 204.7 262.5L303.3 205.2C300.9 206.6 299.1 209 298.1 212.2C297.5 214.1 297.1 216.4 297.1 218.9L198.5 276.2C198.5 274 198.8 272.1 199.2 270.4Z" fill="#2F58FF"/>
<path d="M325.1 331.8L423.7 274.5C420.9 276.1 419 278.9 418.1 282.6C417.7 284.3 417.4 286.2 417.4 288.2L318.8 345.5C318.8 341 319.9 337.3 321.9 334.7C322.7 333.5 323.8 332.5 325.1 331.8Z" fill="#2F58FF"/>
<path d="M232.8 311.7L258.4 297.3L231 254.3L207.4 267.6L232.8 311.7Z" fill="#2F58FF"/>
<path d="M219.5 269.3C212.8 265.4 206.9 266.2 203.8 270.7C202.3 272.9 201.4 275.9 201.4 279.7C201.4 280.2 201.4 280.6 201.4 281.1C202 292.3 209.8 305.4 219.4 310.9C229 316.4 236.9 312.4 237.5 301.9C237.5 301.5 237.5 301 237.5 300.6C237.5 296.8 236.6 292.8 235.1 288.8C232 280.7 226.2 273.2 219.5 269.3Z" fill="white"/>
<path d="M219.5 279.7C216.1 277.8 213.2 278.2 211.6 280.4C210.8 281.5 210.4 283 210.4 284.9C210.4 285.1 210.4 285.4 210.4 285.6C210.7 291.2 214.6 297.7 219.4 300.5C224.2 303.3 228.1 301.2 228.4 296C228.4 295.8 228.4 295.6 228.4 295.3C228.4 293.4 228 291.4 227.2 289.4C225.7 285.4 222.8 281.6 219.5 279.7Z" fill="#98A2F4" stroke="#171A21" stroke-width="2" stroke-miterlimit="10" stroke-linecap="round" stroke-linejoin="round" stroke-dasharray="12 12"/>
<path d="M352.8 380.7L378.4 366.3L351 323.3L327.4 336.6L352.8 380.7Z" fill="#2F58FF"/>
<path d="M339.5 338.3C332.8 334.4 326.9 335.2 323.8 339.7C322.3 341.9 321.4 344.9 321.4 348.7C321.4 349.2 321.4 349.6 321.4 350.1C322 361.3 329.8 374.4 339.4 379.9C349 385.4 356.9 381.4 357.5 370.9C357.5 370.5 357.5 370 357.5 369.6C357.5 365.8 356.6 361.8 355.1 357.8C352 349.7 346.2 342.2 339.5 338.3Z" fill="white"/>
<path d="M339.5 348.7C336.1 346.8 333.2 347.2 331.6 349.4C330.8 350.5 330.4 352 330.4 353.9C330.4 354.1 330.4 354.4 330.4 354.6C330.7 360.2 334.6 366.7 339.4 369.5C344.2 372.3 348.1 370.2 348.4 365C348.4 364.8 348.4 364.6 348.4 364.3C348.4 362.4 348 360.4 347.2 358.4C345.7 354.4 342.8 350.6 339.5 348.7Z" fill="#98A2F4" stroke="#171A21" stroke-width="2" stroke-miterlimit="10" stroke-linecap="round" stroke-linejoin="round" stroke-dasharray="12 12"/>
<path d="M238 161.9C237.7 161.8 237.4 161.6 237.1 161.5C236.8 161.4 236.5 161.3 236.3 161.3C236.1 161.3 236 161.2 235.8 161.2C235.6 161.2 235.4 161.1 235.2 161.1C235.1 161.1 235 161.1 234.9 161.1C234.7 161.1 234.4 161.1 234.2 161.1C234.1 161.1 234.1 161.1 234 161.1C233.7 161.1 233.4 161.1 233.2 161.2C233.1 161.2 233.1 161.2 233 161.2C232.8 161.2 232.6 161.3 232.4 161.4C232.3 161.4 232.3 161.4 232.2 161.5C231.9 161.6 231.7 161.7 231.5 161.8L330.1 104.5C330.1 104.5 330.1 104.5 330.2 104.5C330.4 104.4 330.6 104.3 330.8 104.2H330.9C331 104.2 331 104.2 331.1 104.1C331.2 104.1 331.3 104 331.4 104C331.5 104 331.6 103.9 331.7 103.9C331.8 103.9 331.8 103.9 331.9 103.9H332C332.2 103.9 332.4 103.8 332.7 103.8C332.7 103.8 332.7 103.8 332.8 103.8C332.9 103.8 332.9 103.8 333 103.8C333.2 103.8 333.3 103.8 333.5 103.8C333.6 103.8 333.6 103.8 333.7 103.8C333.8 103.8 333.9 103.8 334 103.8C334.1 103.8 334.2 103.8 334.3 103.8C334.4 103.8 334.5 103.8 334.6 103.9C334.8 103.9 334.9 104 335.1 104C335.2 104 335.2 104 335.3 104C335.5 104.1 335.7 104.1 335.9 104.2C336.1 104.3 336.3 104.4 336.6 104.4C336.7 104.4 336.8 104.5 336.9 104.5C337 104.5 337.1 104.6 337.2 104.6C337.5 104.8 337.9 104.9 338.2 105.1L477.4 185.5C477.8 185.7 478.1 185.9 478.5 186.2C478.6 186.3 478.7 186.4 478.8 186.4C479 186.6 479.3 186.7 479.5 186.9C479.6 187 479.8 187.1 479.9 187.2C480.1 187.4 480.3 187.6 480.5 187.7C480.6 187.8 480.7 187.9 480.9 188C481 188.1 481.1 188.1 481.1 188.2C481.2 188.3 481.3 188.4 481.3 188.5C481.6 188.8 481.8 189 482 189.3C482.1 189.4 482.2 189.5 482.2 189.6C482.3 189.7 482.3 189.8 482.4 189.8C482.5 190 482.7 190.1 482.8 190.3C482.9 190.4 483 190.5 483.1 190.6C483.2 190.7 483.2 190.8 483.3 190.9C483.4 191 483.5 191.2 483.6 191.3C483.7 191.4 483.7 191.5 483.8 191.6C483.9 191.8 484 191.9 484.1 192.1C484.2 192.2 484.2 192.3 484.3 192.4L484.4 192.5C484.6 192.8 484.8 193.1 485 193.4C485 193.4 485 193.4 485 193.5C485 193.6 485.1 193.6 485.1 193.7C485.2 193.9 485.4 194.1 485.5 194.4C485.6 194.5 485.6 194.6 485.7 194.7C485.8 194.8 485.8 194.9 485.9 195C485.9 195.1 486 195.2 486 195.3C486.1 195.6 486.2 195.8 486.4 196.1C486.4 196.1 486.4 196.2 486.5 196.2C486.6 196.5 486.8 196.9 486.9 197.2C486.9 197.3 486.9 197.3 487 197.4C487 197.5 487.1 197.6 487.1 197.8C487.2 198 487.2 198.1 487.3 198.3C487.3 198.4 487.4 198.6 487.4 198.7C487.4 198.9 487.5 199 487.5 199.2C487.5 199.3 487.6 199.4 487.6 199.5C487.6 199.7 487.7 199.8 487.7 200C487.7 200.2 487.8 200.4 487.8 200.6C487.8 200.7 487.8 200.7 487.8 200.8C487.8 200.9 487.8 201.1 487.9 201.2C488 201.5 488 201.8 488.1 202.1C488.1 202.2 488.1 202.3 488.1 202.3C488.1 202.5 488.1 202.7 488.2 202.8C488.2 202.9 488.2 203.1 488.2 203.2C488.2 203.6 488.3 204 488.2 204.4L487.9 315.8C487.9 318 487.4 319.7 486.6 321.1C486.1 321.9 485.5 322.5 484.7 322.9L386.1 380.2C388.1 379 389.3 376.6 389.3 373.1L389.6 261.7C389.6 261.3 389.6 260.9 389.6 260.5C389.6 260.4 389.6 260.2 389.6 260.1C389.6 259.8 389.5 259.6 389.5 259.3C389.5 259 389.4 258.7 389.3 258.4C389.3 258.2 389.2 258 389.2 257.8C389.2 257.6 389.1 257.4 389.1 257.2C389 256.9 389 256.7 388.9 256.4C388.9 256.2 388.8 256.1 388.8 255.9C388.7 255.6 388.6 255.3 388.5 255C388.5 254.9 388.4 254.8 388.4 254.6C388.2 254.2 388.1 253.8 387.9 253.4C387.9 253.4 387.9 253.3 387.8 253.3C387.6 252.9 387.5 252.6 387.3 252.2C387.2 252.1 387.2 252 387.1 251.9C386.9 251.6 386.7 251.2 386.6 250.9C386.6 250.8 386.5 250.8 386.5 250.7C386.3 250.3 386 249.9 385.8 249.6C385.7 249.5 385.7 249.4 385.6 249.3C385.4 249 385.2 248.8 385.1 248.5C385 248.4 384.9 248.2 384.8 248.1C384.6 247.9 384.5 247.7 384.3 247.5C384.2 247.3 384 247.1 383.9 247C383.8 246.8 383.6 246.7 383.5 246.5C383.3 246.2 383 246 382.8 245.7C382.6 245.5 382.5 245.4 382.3 245.2C382.2 245.1 382.1 245 381.9 244.9C381.7 244.7 381.5 244.5 381.3 244.4C381.2 244.3 381 244.2 380.9 244.1C380.7 243.9 380.4 243.7 380.2 243.6C380.1 243.5 380 243.4 379.9 243.4C379.6 243.2 379.2 242.9 378.8 242.7L239.6 162.3C239.3 162.1 238.9 161.9 238.6 161.8C238.2 162 238.1 162 238 161.9Z" fill="#98A2F4"/>
<path d="M231.4 161.8L330 104.5C330 104.5 330 104.5 330.1 104.5C330.3 104.4 330.5 104.3 330.7 104.2H330.8C330.9 104.2 330.9 104.2 331 104.1C331.1 104.1 331.2 104 331.3 104C331.4 104 331.5 103.9 331.6 103.9C331.7 103.9 331.7 103.9 331.8 103.9H331.9C332.1 103.9 332.3 103.8 332.6 103.8C332.6 103.8 332.6 103.8 332.7 103.8C332.8 103.8 332.8 103.8 332.9 103.8C333.1 103.8 333.2 103.8 333.4 103.8C333.5 103.8 333.5 103.8 333.6 103.8C333.7 103.8 333.8 103.8 333.9 103.8C334 103.8 334.1 103.8 334.2 103.8C334.3 103.8 334.4 103.8 334.5 103.9C334.7 103.9 334.8 104 335 104C335.1 104 335.1 104 335.2 104C335.4 104.1 335.6 104.1 335.8 104.2C336 104.3 336.2 104.4 336.5 104.4C336.6 104.4 336.7 104.5 336.8 104.5C336.9 104.5 337 104.6 337.1 104.6C337.4 104.8 337.8 104.9 338.1 105.1L477.3 185.5C477.7 185.7 478 185.9 478.4 186.2C478.5 186.3 478.6 186.4 478.7 186.4C478.9 186.6 479.2 186.7 479.4 186.9C479.5 187 479.7 187.1 479.8 187.2C480 187.4 480.2 187.6 480.4 187.7C480.5 187.8 480.6 187.9 480.8 188C480.9 188.1 481 188.1 481 188.2C481.1 188.3 481.2 188.4 481.2 188.5C481.5 188.8 481.7 189 481.9 189.3C482 189.4 482.1 189.5 482.1 189.6C482.2 189.7 482.2 189.8 482.3 189.8C482.4 190 482.6 190.1 482.7 190.3C482.8 190.4 482.9 190.5 483 190.6C483.1 190.7 483.1 190.8 483.2 190.9C483.3 191 483.4 191.2 483.5 191.3C483.6 191.4 483.6 191.5 483.7 191.6C483.8 191.8 483.9 191.9 484 192.1C484.1 192.2 484.1 192.3 484.2 192.4L484.3 192.5C484.5 192.8 484.7 193.1 484.9 193.4C484.9 193.4 484.9 193.4 484.9 193.5C484.9 193.6 485 193.6 485 193.7C485.1 193.9 485.3 194.1 485.4 194.4C485.5 194.5 485.5 194.6 485.6 194.7C485.7 194.8 485.7 194.9 485.8 195C485.8 195.1 485.9 195.2 485.9 195.3C486 195.6 486.1 195.8 486.3 196.1C486.3 196.1 486.3 196.2 486.4 196.2C486.5 196.5 486.7 196.9 486.8 197.2C486.8 197.3 486.8 197.3 486.9 197.4C486.9 197.5 487 197.6 487 197.8C487.1 198 487.1 198.1 487.2 198.3C487.2 198.4 487.3 198.6 487.3 198.7C487.3 198.9 487.4 199 487.4 199.2C487.4 199.3 487.5 199.4 487.5 199.5C487.5 199.7 487.6 199.8 487.6 200C487.6 200.2 487.7 200.4 487.7 200.6C487.7 200.7 487.7 200.7 487.7 200.8C487.7 200.9 487.7 201.1 487.8 201.2C487.9 201.5 487.9 201.8 488 202.1C488 202.2 488 202.3 488 202.3C488 202.5 488 202.7 488.1 202.8C488.1 202.9 488.1 203.1 488.1 203.2C488.1 203.6 488.2 204 488.1 204.4L487.8 315.8C487.8 318 487.3 319.7 486.5 321.1C486 321.9 485.4 322.5 484.6 322.9L386 380.2" stroke="#171A21" stroke-width="2" stroke-miterlimit="10" stroke-linecap="round" stroke-linejoin="round"/>
<path d="M239.3 162.6C234.6 159.9 230.3 160.9 228.8 165.2L225.5 177.5L217.5 207.5C216.5 210.3 214.2 211.9 211.2 211.6L180.6 212.9C176.5 212.5 173.8 215.6 173.8 220.7L173.7 249.1C173.7 256.1 178.6 264.7 184.7 268.2L198.5 276.2C198.5 262.7 208.1 257.2 219.9 264C231.7 270.8 241.2 287.3 241.1 300.8L264 314L318.7 345.6C318.7 339.1 321 334.2 325 331.9C329 329.6 334.4 330.2 340.1 333.4C351.9 340.2 361.4 356.7 361.3 370.2L378 379.8C384.1 383.3 389.1 380.5 389.1 373.5L389.4 262.1C389.4 255.1 384.5 246.5 378.4 243L239.3 162.6Z" fill="white"/>
<path d="M263.9 191.4C268 193.8 271.3 199.5 271.3 204.2L271.2 236.4C271.2 241.1 267.9 243 263.8 240.6L226.4 219C224.8 218.1 224.1 216.3 224.5 214.5L231.3 188.8L234.1 178.4C234.6 176.5 236.8 175.6 238.5 176.6L263.9 191.4Z" fill="#98A2F4"/>
<path d="M266 260.6C266 263.5 263.9 264.7 261.4 263.2L253.2 258.4C250.7 256.9 248.6 253.4 248.6 250.5C248.6 247.6 250.7 246.4 253.2 247.9" fill="white"/>
<path d="M266 260.6C266 263.5 263.9 264.7 261.4 263.2L253.2 258.4C250.7 256.9 248.6 253.4 248.6 250.5C248.6 247.6 250.7 246.4 253.2 247.9" stroke="#171A21" stroke-width="2" stroke-miterlimit="10" stroke-linecap="round" stroke-linejoin="round"/>
<path d="M479.3 235.8L479.5 313.5C479.5 314.6 478.9 315.6 478 316.1L397.7 362.5L397.5 277.9C397.5 271.5 400.9 265.5 406.5 262.3L465.8 228C471.8 224.6 479.3 228.9 479.3 235.8Z" fill="#2F58FF"/>
<mask id="mask0" mask-type="alpha" maskUnits="userSpaceOnUse" x="397" y="227" width="82" height="136">
<path d="M478.8 235.988L479 313.688C479 314.788 478.4 315.788 477.5 316.288L397.2 362.688L397 278.088C397 271.688 400.4 265.688 406 262.488L465.3 228.188C471.3 224.788 478.8 229.088 478.8 235.988Z" fill="#3359FD"/>
</mask>
<g mask="url(#mask0)">
<path d="M417.6 278.5L396.8 266.5C396.3 266.2 395.6 266.6 395.6 267.2L395.5 282.9C395.5 284.1 396.1 285.1 397.1 285.7L417.5 297.5C418.5 298.1 419.7 298.1 420.7 297.5L441 285.7C442 285.1 442.6 284.1 442.6 282.9L442.7 267.2C442.7 266.6 442 266.2 441.5 266.5L420.9 278.5C419.8 279.1 418.6 279.1 417.6 278.5Z" fill="white"/>
<path d="M441.5 266.5L420.8 278.5C419.8 279.1 418.6 279.1 417.6 278.5L396.8 266.5C396.3 266.2 396.3 265.4 396.8 265.1L417.5 253.1C418.5 252.5 419.7 252.5 420.7 253.1L441.5 265.1C442 265.4 442 266.2 441.5 266.5Z" fill="#98A2F4"/>
<path d="M441 285.6C442 285 442.6 284 442.6 282.8L442.7 267.6C442.7 266.4 442.1 265.4 441.1 264.8L420.7 253C419.7 252.4 418.5 252.4 417.5 253L397.2 264.8C396.2 265.4 395.6 266.4 395.6 267.6L395.5 282.8C395.5 284 396.1 285 397.1 285.6" stroke="#171A21" stroke-width="2" stroke-miterlimit="10" stroke-linecap="round" stroke-linejoin="round"/>
<path d="M403.5 261.1L427.2 274.8L435.4 270L411.8 256.3L403.5 261.1Z" fill="white"/>
<path d="M417 259.3L411.8 256.3L403.5 261.1L408.7 264.1" stroke="#171A21" stroke-width="2" stroke-linecap="round" stroke-linejoin="round"/>
<path d="M422 271.8L427.2 274.8L435.4 270L430.2 267" stroke="#171A21" stroke-width="2" stroke-linecap="round" stroke-linejoin="round"/>
<path d="M389.4 299.3L368.6 287.3C368.1 287 367.4 287.4 367.4 288L367.3 303.7C367.3 304.9 367.9 305.9 368.9 306.5L389.3 318.3C390.3 318.9 391.5 318.9 392.5 318.3L412.8 306.5C413.8 305.9 414.4 304.9 414.4 303.7L414.5 288C414.5 287.4 413.8 287 413.3 287.3L392.7 299.3C391.7 299.9 390.4 299.9 389.4 299.3Z" fill="white"/>
<path d="M413.3 287.3L392.6 299.3C391.6 299.9 390.4 299.9 389.4 299.3L368.6 287.3C368.1 287 368.1 286.2 368.6 285.9L389.3 273.9C390.3 273.3 391.5 273.3 392.5 273.9L413.3 285.9C413.9 286.2 413.9 287 413.3 287.3Z" fill="#98A2F4"/>
<path d="M412.9 306.5C413.9 305.9 414.5 304.9 414.5 303.7L414.6 288.5C414.6 287.3 414 286.3 413 285.7L392.6 273.9C391.6 273.3 390.4 273.3 389.4 273.9L369 285.7C368 286.3 367.4 287.3 367.4 288.5L367.3 303.7C367.3 304.9 367.9 305.9 368.9 306.5" stroke="#171A21" stroke-width="2" stroke-miterlimit="10" stroke-linecap="round" stroke-linejoin="round"/>
<path d="M375.4 282L399.1 295.6L407.3 290.8L383.7 277.2L375.4 282Z" fill="white"/>
<path d="M393.9 292.6L399.1 295.6L407.3 290.8L402.1 287.8" stroke="#171A21" stroke-width="2" stroke-linecap="round" stroke-linejoin="round"/>
<path d="M445.7 296.2L424.9 284.2C424.4 283.9 423.7 284.3 423.7 284.9L423.6 300.6C423.6 301.8 424.2 302.8 425.2 303.4L445.6 315.2C446.6 315.8 447.8 315.8 448.8 315.2L469.1 303.4C470.1 302.8 470.7 301.8 470.7 300.6L470.8 284.9C470.8 284.3 470.1 283.9 469.6 284.2L449 296.2C447.9 296.8 446.7 296.8 445.7 296.2Z" fill="white"/>
<path d="M469.6 284.2L448.9 296.2C447.9 296.8 446.7 296.8 445.7 296.2L424.9 284.2C424.4 283.9 424.4 283.1 424.9 282.8L445.6 270.8C446.6 270.2 447.8 270.2 448.8 270.8L469.6 282.8C470.1 283.1 470.1 283.9 469.6 284.2Z" fill="#98A2F4"/>
<path d="M469.1 303.3C470.1 302.7 470.7 301.7 470.7 300.5L470.8 285.3C470.8 284.1 470.2 283.1 469.2 282.5L448.8 270.7C447.8 270.1 446.6 270.1 445.6 270.7L425.3 282.5C424.3 283.1 423.7 284.1 423.7 285.3L423.6 300.5C423.6 301.7 424.2 302.7 425.2 303.3" stroke="#171A21" stroke-width="2" stroke-miterlimit="10" stroke-linecap="round" stroke-linejoin="round"/>
<path d="M431.6 278.8L455.3 292.5L463.5 287.7L439.9 274L431.6 278.8Z" fill="white"/>
<path d="M445.1 277L439.9 274L431.6 278.8L436.8 281.8" stroke="#171A21" stroke-width="2" stroke-linecap="round" stroke-linejoin="round"/>
<path d="M450.1 289.5L455.3 292.5L463.5 287.7L458.4 284.7" stroke="#171A21" stroke-width="2" stroke-linecap="round" stroke-linejoin="round"/>
<path d="M417.6 317L396.8 305C396.3 304.7 395.6 305.1 395.6 305.7L395.5 321.4C395.5 322.6 396.1 323.6 397.1 324.2L417.5 336C418.5 336.6 419.7 336.6 420.7 336L441 324.2C442 323.6 442.6 322.6 442.6 321.4L442.7 305.7C442.7 305.1 442 304.7 441.5 305L420.9 317C419.8 317.6 418.6 317.6 417.6 317Z" fill="white"/>
<path d="M441.5 305L420.8 317C419.8 317.6 418.6 317.6 417.6 317L396.8 305C396.3 304.7 396.3 303.9 396.8 303.6L417.5 291.6C418.5 291 419.7 291 420.7 291.6L441.5 303.6C442 303.9 442 304.7 441.5 305Z" fill="#98A2F4"/>
<path d="M441 324.2C442 323.6 442.6 322.6 442.6 321.4L442.7 306.2C442.7 305 442.1 304 441.1 303.4L420.7 291.6C419.7 291 418.5 291 417.5 291.6L397.2 303.4C396.2 304 395.6 305 395.6 306.2L395.5 321.4C395.5 322.6 396.1 323.6 397.1 324.2" stroke="#171A21" stroke-width="2" stroke-miterlimit="10" stroke-linecap="round" stroke-linejoin="round"/>
<path d="M403.5 299.7L427.2 313.3L435.4 308.5L411.8 294.9L403.5 299.7Z" fill="white"/>
<path d="M417 297.9L411.8 294.9L403.5 299.7L408.7 302.7" stroke="#171A21" stroke-width="2" stroke-linecap="round" stroke-linejoin="round"/>
<path d="M422 310.3L427.2 313.3L435.4 308.5L430.2 305.5" stroke="#171A21" stroke-width="2" stroke-linecap="round" stroke-linejoin="round"/>
</g>
<path d="M474.2 226.8C474.2 220.4 477.6 214.4 483.2 211.2L512 194.6C513.2 193.9 514.7 194.1 515.6 195.1L520.2 201.1L482.5 314.2L475.4 312.3C474.8 311.7 474.5 311 474.5 310.2L474.2 226.8Z" fill="#2F58FF"/>
<path d="M479.2 231.8C479.2 225.4 482.6 219.4 488.2 216.2L515.7 200.3C517.7 199.1 520.2 200.6 520.2 202.9V291C520.2 292.1 519.6 293.1 518.7 293.6L483.9 313.7C481.9 314.9 479.4 313.4 479.4 311.1L479.2 231.8Z" fill="#98A2F4"/>
<path d="M515.7 200.2C517.7 199 520.2 200.5 520.2 202.8V291C520.2 292.1 519.6 293.1 518.7 293.6L483.9 313.7C481.9 314.9 479.4 313.4 479.4 311.1" stroke="#171A21" stroke-width="2" stroke-miterlimit="10" stroke-linecap="round" stroke-linejoin="round"/>
<path d="M379.8 270.1C385.8 266.6 398.1 271.5 398.1 281L359.7 384.8L353.4 381.9C352.8 381.3 352.5 380.6 352.5 379.8V287.6C352.5 286.5 353.1 285.5 354 285L379.8 270.1Z" fill="#2F58FF"/>
<path d="M384.8 275.1C390.8 271.6 398.3 275.9 398.3 282.9L398.5 360.6C398.5 361.7 397.9 362.7 397 363.2L362 383.4C360 384.6 357.5 383.1 357.5 380.8V292.6C357.5 291.5 358.1 290.5 359 290L384.8 275.1Z" fill="#98A2F4"/>
<path d="M398.6 360.6C398.6 361.7 398 362.7 397.1 363.2L362.1 383.4C360.1 384.6 357.6 383.1 357.6 380.8" stroke="#171A21" stroke-width="2" stroke-miterlimit="10" stroke-linecap="round" stroke-linejoin="round"/>
</svg>
