<svg width="535" height="457" viewBox="0 0 535 457" fill="none" xmlns="http://www.w3.org/2000/svg">
<path d="M81.3 297.9L9.9 281.4C4.9 280.3 0.900004 284.5 1 290.9L1.1 336.8C1.1 343.2 5.2 349.3 10.1 350.5L34 356L33.8 356.3L43 370.3C43.8 371.5 44.8 372.3 45.9 372.5C46.9 372.7 48 372.5 48.8 371.6L57.9 361.8L57.7 361.4L81.7 366.9C86.7 368 90.7 363.8 90.6 357.4L90.5 311.5C90.3 305.1 86.3 299 81.3 297.9Z" fill="#2F58FF"/>
<path d="M59.5 311.2C58.5 311 57.6 311.2 56.9 312L44.7 325C44 325.8 43 326 42.1 325.8C41.1 325.6 40.2 324.9 39.5 323.8L35.1 317.1C34.4 316 33.4 315.3 32.5 315.1C31.5 314.9 30.6 315.1 29.9 315.9C28.4 317.4 28.5 320.5 29.9 322.7L39.6 337.5C40.3 338.6 41.3 339.3 42.3 339.5C43.3 339.7 44.2 339.5 44.9 338.7L62.1 320C63.6 318.4 63.5 315.4 62.1 313.2C61.4 312.1 60.4 311.4 59.5 311.2Z" fill="white"/>
</svg>
