<svg width="535" height="457" viewBox="0 0 535 457" fill="none" xmlns="http://www.w3.org/2000/svg">
<path d="M197.8 14.8L95.4 72.6L94.8 216.3L198.5 158.6L197.8 14.8Z" fill="white"/>
<path d="M185.1 154.1C186.4 153.4 187.5 151.5 187.5 150V17.1L194 20.9V153.8C194 155.3 192.9 157.1 191.6 157.9L96.9 212.3L90.4 208.5L185.1 154.1Z" fill="#2F58FF"/>
<path d="M92.8 57.8L135.4 33.4L187.4 3.49997C190.7 1.59997 193.7 1.49997 195.8 2.69997L202.3 6.49997C200.2 5.19997 197.2 5.39997 193.9 7.29997L116.4 51.8H116.3L99.3 61.5C92.8 65.2 87.5 74.4 87.5 81.8V217.4C87.5 221.1 88.8 223.7 90.9 225L84.4 221.2C82.3 220 81 217.3 81 213.6V78C81 70.7 86.3 61.5 92.8 57.8Z" fill="#2F58FF"/>
<path d="M141.9 37.2C141.9 40.2 144 41.4 146.6 39.9C149.2 38.4 151.3 34.8 151.3 31.8L193.9 7.39999C200.4 3.7 205.7 6.7 205.7 14.2V149.8C205.7 157.3 200.4 166.4 193.9 170.1L99.3 224.4C92.8 228.1 87.5 225.1 87.5 217.6V82C87.5 74.5 92.8 65.4 99.3 61.7L141.9 37.2ZM99.4 208.1C99.4 209.6 100.5 210.2 101.8 209.5L191.7 158C193 157.3 194.1 155.4 194.1 153.9V23.7C194.1 22.2 193 21.6 191.7 22.3L101.8 73.8C100.5 74.5 99.4 76.4 99.4 77.9V208.1Z" fill="#98A2F4"/>
<path d="M193.9 7.29996C200.4 3.59996 205.7 6.59996 205.7 14.1V149.7C205.7 157.2 200.4 166.3 193.9 170L99.3 224.3C92.8 228 87.5 225 87.5 217.5" stroke="#171A21" stroke-width="2" stroke-miterlimit="10" stroke-linecap="round" stroke-linejoin="round"/>
<path d="M136.8 34C139.4 32.5 141.5 28.9 141.5 25.9C141.5 24.4 141 23.4 140.1 22.9L153.1 30.5C153.9 31 154.5 32 154.5 33.5C154.5 36.5 152.4 40.1 149.8 41.6C148.5 42.4 147.3 42.4 146.4 41.9L133.4 34.3C134.2 34.9 135.4 34.8 136.8 34Z" fill="#2F58FF"/>
<path d="M126.2 33.3L132.2 29.8C133.9 25.5 137 21.6 140.4 19.7C143 18.2 145.3 18.1 147.1 19.1L149 20.2L154.6 17C157.9 15.1 160.9 15 163 16.2L169.5 20C167.4 18.7 164.4 18.9 161.1 20.8L155.1 24.3L151.7 22.3C150.3 22.1 148.6 22.5 146.9 23.5C143.5 25.4 140.4 29.3 138.7 33.6L132.7 37.1C126.2 40.8 120.9 50 120.9 57.4V68.2C120.9 68.9 121.2 69.5 121.6 69.7L115 66C114.6 65.8 114.3 65.2 114.3 64.5V53.7C114.3 46.2 119.7 37.1 126.2 33.3Z" fill="#2F58FF"/>
<path d="M138.7 33.7C140.4 29.4 143.5 25.5 146.9 23.6C150.3 21.7 153.4 22 155.1 24.3L161.1 20.8C167.6 17.1 172.9 20.1 172.9 27.6V38.4C172.9 39.9 171.8 41.7 170.5 42.5L123.2 69.6C121.9 70.4 120.8 69.7 120.8 68.2V57.4C120.8 49.9 126.1 40.8 132.6 37.1L138.7 33.7ZM146.9 39.5C149.3 38.1 151.3 34.7 151.3 31.9C151.3 29.1 149.3 28 146.9 29.4C144.5 30.8 142.5 34.2 142.5 37C142.4 39.7 144.4 40.9 146.9 39.5Z" fill="#98A2F4"/>
<path d="M115 111.9C112.8 113.2 110.9 116.3 110.9 118.9C110.9 121.5 112.7 122.5 115 121.2L169.8 89.8C172 88.5 173.9 85.4 173.9 82.8C173.9 80.2 172.1 79.2 169.8 80.5L115 111.9ZM115 133.1C112.8 134.4 110.9 137.5 110.9 140.1C110.9 142.7 112.7 143.7 115 142.4L124.3 137.1C126.5 135.8 128.4 132.7 128.4 130.1C128.4 127.5 126.6 126.5 124.3 127.8L115 133.1ZM143.1 117C140.9 118.3 139 121.4 139 124C139 126.6 140.8 127.6 143.1 126.3L169.8 111C172 109.7 173.9 106.6 173.9 104C173.9 101.4 172.1 100.4 169.8 101.7L143.1 117ZM115 154.3C112.8 155.6 110.9 158.7 110.9 161.3C110.9 163.9 112.7 164.9 115 163.6L169.8 132.2C172 130.9 173.9 127.8 173.9 125.2C173.9 122.6 172.1 121.6 169.8 122.9L115 154.3ZM115 90.6C112.8 91.9 110.9 95 110.9 97.6C110.9 100.2 112.7 101.2 115 99.9L169.8 68.5C172 67.2 173.9 64.1 173.9 61.5C173.9 58.9 172.1 57.9 169.8 59.2L115 90.6Z" fill="#98A2F4"/>
</svg>
