<svg width="535" height="457" viewBox="0 0 535 457" fill="none" xmlns="http://www.w3.org/2000/svg">
<g clip-path="url(#clip0)">
<path d="M197.8 14.8L95.4 72.6L94.8 216.3L198.5 158.6L197.8 14.8Z" fill="white"/>
<path d="M185.1 154.1C186.4 153.4 187.5 151.5 187.5 150V17.1L194 20.9V153.8C194 155.3 192.9 157.1 191.6 157.9L96.9 212.3L90.4 208.5L185.1 154.1Z" fill="#2F58FF"/>
<path d="M92.8 57.8L135.4 33.4L187.4 3.49997C190.7 1.59997 193.7 1.49997 195.8 2.69997L202.3 6.49997C200.2 5.19997 197.2 5.39997 193.9 7.29997L116.4 51.8H116.3L99.3 61.5C92.8 65.2 87.5 74.4 87.5 81.8V217.4C87.5 221.1 88.8 223.7 90.9 225L84.4 221.2C82.3 220 81 217.3 81 213.6V78C81 70.7 86.3 61.5 92.8 57.8Z" fill="#2F58FF"/>
<path d="M141.9 37.2C141.9 40.2 144 41.4 146.6 39.9C149.2 38.4 151.3 34.8 151.3 31.8L193.9 7.39999C200.4 3.7 205.7 6.7 205.7 14.2V149.8C205.7 157.3 200.4 166.4 193.9 170.1L99.3 224.4C92.8 228.1 87.5 225.1 87.5 217.6V82C87.5 74.5 92.8 65.4 99.3 61.7L141.9 37.2ZM99.4 208.1C99.4 209.6 100.5 210.2 101.8 209.5L191.7 158C193 157.3 194.1 155.4 194.1 153.9V23.7C194.1 22.2 193 21.6 191.7 22.3L101.8 73.8C100.5 74.5 99.4 76.4 99.4 77.9V208.1Z" fill="#98A2F4"/>
<path d="M193.9 7.29996C200.4 3.59996 205.7 6.59996 205.7 14.1V149.7C205.7 157.2 200.4 166.3 193.9 170L99.3 224.3C92.8 228 87.5 225 87.5 217.5" stroke="#171A21" stroke-width="2" stroke-miterlimit="10" stroke-linecap="round" stroke-linejoin="round"/>
<path d="M136.8 34C139.4 32.5 141.5 28.9 141.5 25.9C141.5 24.4 141 23.4 140.1 22.9L153.1 30.5C153.9 31 154.5 32 154.5 33.5C154.5 36.5 152.4 40.1 149.8 41.6C148.5 42.4 147.3 42.4 146.4 41.9L133.4 34.3C134.2 34.9 135.4 34.8 136.8 34Z" fill="#2F58FF"/>
<path d="M126.2 33.3L132.2 29.8C133.9 25.5 137 21.6 140.4 19.7C143 18.2 145.3 18.1 147.1 19.1L149 20.2L154.6 17C157.9 15.1 160.9 15 163 16.2L169.5 20C167.4 18.7 164.4 18.9 161.1 20.8L155.1 24.3L151.7 22.3C150.3 22.1 148.6 22.5 146.9 23.5C143.5 25.4 140.4 29.3 138.7 33.6L132.7 37.1C126.2 40.8 120.9 50 120.9 57.4V68.2C120.9 68.9 121.2 69.5 121.6 69.7L115 66C114.6 65.8 114.3 65.2 114.3 64.5V53.7C114.3 46.2 119.7 37.1 126.2 33.3Z" fill="#2F58FF"/>
<path d="M138.7 33.7C140.4 29.4 143.5 25.5 146.9 23.6C150.3 21.7 153.4 22 155.1 24.3L161.1 20.8C167.6 17.1 172.9 20.1 172.9 27.6V38.4C172.9 39.9 171.8 41.7 170.5 42.5L123.2 69.6C121.9 70.4 120.8 69.7 120.8 68.2V57.4C120.8 49.9 126.1 40.8 132.6 37.1L138.7 33.7ZM146.9 39.5C149.3 38.1 151.3 34.7 151.3 31.9C151.3 29.1 149.3 28 146.9 29.4C144.5 30.8 142.5 34.2 142.5 37C142.4 39.7 144.4 40.9 146.9 39.5Z" fill="#98A2F4"/>
<path d="M115 111.9C112.8 113.2 110.9 116.3 110.9 118.9C110.9 121.5 112.7 122.5 115 121.2L169.8 89.8C172 88.5 173.9 85.4 173.9 82.8C173.9 80.2 172.1 79.2 169.8 80.5L115 111.9ZM115 133.1C112.8 134.4 110.9 137.5 110.9 140.1C110.9 142.7 112.7 143.7 115 142.4L124.3 137.1C126.5 135.8 128.4 132.7 128.4 130.1C128.4 127.5 126.6 126.5 124.3 127.8L115 133.1ZM143.1 117C140.9 118.3 139 121.4 139 124C139 126.6 140.8 127.6 143.1 126.3L169.8 111C172 109.7 173.9 106.6 173.9 104C173.9 101.4 172.1 100.4 169.8 101.7L143.1 117ZM115 154.3C112.8 155.6 110.9 158.7 110.9 161.3C110.9 163.9 112.7 164.9 115 163.6L169.8 132.2C172 130.9 173.9 127.8 173.9 125.2C173.9 122.6 172.1 121.6 169.8 122.9L115 154.3ZM115 90.6C112.8 91.9 110.9 95 110.9 97.6C110.9 100.2 112.7 101.2 115 99.9L169.8 68.5C172 67.2 173.9 64.1 173.9 61.5C173.9 58.9 172.1 57.9 169.8 59.2L115 90.6Z" fill="#98A2F4"/>
<path d="M402.511 106.391C429.335 90.958 472.601 90.958 499.24 106.391C525.88 121.823 525.696 146.993 498.965 162.425C472.233 177.858 428.875 177.858 402.236 162.425C375.596 146.901 375.688 121.823 402.511 106.391Z" stroke="#171A21" stroke-width="2" stroke-miterlimit="10" stroke-linecap="round" stroke-linejoin="round" stroke-dasharray="12 12"/>
<path d="M429.335 122.007C441.185 115.117 460.383 115.117 472.142 122.007C483.9 128.896 483.9 140.012 471.958 146.809C460.108 153.699 440.909 153.699 429.151 146.809C417.393 139.92 417.485 128.805 429.335 122.007Z" stroke="#171A21" stroke-width="2" stroke-miterlimit="10" stroke-linecap="round" stroke-linejoin="round" stroke-dasharray="12 12"/>
<path d="M449.728 95.9185C449.544 95.9185 449.268 95.9185 449.085 95.9185C448.993 95.9185 448.993 95.9185 448.901 95.9185C448.901 95.9185 448.809 95.9185 448.717 95.9185C448.441 95.9185 448.166 95.8266 447.89 95.7348H447.798H447.707C447.523 95.6429 447.339 95.6429 447.155 95.551C447.155 95.551 446.696 95.3673 446.604 95.3673H446.512C446.329 95.2755 446.237 95.1836 446.053 95.1836C445.961 95.0917 445.869 95.0917 445.778 95.0917C445.502 94.9999 445.318 94.8161 445.043 94.6324L432.366 86.1813C431.907 85.9057 431.815 85.3545 432.09 84.8952C432.274 84.6196 432.55 84.5278 432.825 84.5278C433.009 84.5278 433.193 84.6196 433.376 84.7115C433.56 84.8034 433.744 84.8952 433.928 85.0789L434.111 85.1708C434.203 85.2627 434.387 85.2627 434.479 85.3545C434.571 85.3545 434.662 85.4464 434.754 85.4464L434.938 85.5382C435.03 85.5382 435.214 85.6301 435.305 85.6301L435.489 85.722C435.673 85.722 435.948 85.8138 436.132 85.8138H436.408C436.591 85.8138 436.683 85.8138 436.867 85.8138H437.143C437.235 85.8138 437.418 85.8138 437.51 85.8138H437.786C437.878 85.8138 438.153 85.8138 438.153 85.8138C438.245 85.8138 438.337 85.8138 438.429 85.8138C438.521 85.8138 438.612 85.8138 438.704 85.722C438.888 85.722 438.98 85.6301 439.164 85.6301L439.439 85.5382C439.623 85.5382 439.715 85.4464 439.898 85.4464L440.174 85.3545C440.358 85.2627 440.45 85.2627 440.633 85.1708C440.725 85.0789 440.817 85.0789 440.817 85.0789L440.909 84.9871C441.093 84.8952 441.368 84.7115 441.644 84.7115C441.828 84.6196 442.011 84.5278 442.195 84.4359L442.379 84.3441C442.562 84.2522 442.746 84.1603 442.93 84.0685L443.205 83.8848C443.389 83.701 443.665 83.6092 443.94 83.4255C444.216 83.2417 444.491 83.058 444.675 82.8743C444.951 82.6906 445.226 82.5068 445.502 82.2313L445.778 82.0475C445.961 81.9557 446.145 81.772 446.237 81.5882C446.237 81.5882 446.88 81.0371 446.972 80.9452L447.339 80.6696C447.523 80.5778 447.615 80.3941 447.798 80.3022L448.166 79.9348C448.258 79.751 448.441 79.6592 448.533 79.4754L448.901 79.108C448.993 78.9243 449.636 78.2813 449.636 78.2813C449.728 78.0975 450.371 77.4545 450.371 77.4545C450.554 77.2708 450.738 77.0871 450.83 76.8115L451.014 76.5359C451.197 76.2603 451.473 75.9848 451.657 75.6173L452.483 75.9848L451.748 75.4336C451.932 75.158 452.116 74.8824 452.3 74.6068C452.575 74.2394 452.759 73.9638 452.943 73.5964C453.218 73.1371 453.586 72.5859 453.861 72.1266L454.045 71.851C454.412 71.208 454.78 70.565 455.147 69.922L455.239 69.6464C455.515 69.1871 455.698 68.7278 455.974 68.1766L456.433 67.0743C456.525 66.7987 456.893 65.972 456.893 65.972C457.076 65.6045 457.168 65.3289 457.26 64.9615L457.352 64.6859C457.444 64.4103 457.536 64.1348 457.628 63.951L457.719 63.5836C457.811 63.308 457.903 63.1243 457.995 62.8487L458.087 62.4813C458.179 62.1138 458.271 61.8382 458.362 61.4708C458.454 61.0115 458.546 60.6441 458.638 60.2766L458.73 59.9092C458.822 59.6336 458.822 59.4499 458.914 59.1743L459.005 58.8068C459.097 58.5313 459.281 57.7045 459.281 57.7045C459.373 57.4289 459.465 56.6022 459.465 56.6022C459.557 56.3266 459.557 55.9592 459.648 55.6836H460.567L459.648 55.5917C459.74 55.2243 459.74 54.8568 459.74 54.5813V54.3057C459.74 54.0301 459.832 53.8464 459.832 53.5708V53.2034C459.832 52.9278 459.832 52.7441 459.832 52.4685V52.101C459.832 51.7336 459.832 51.458 459.832 51.0906C459.832 50.7231 459.832 50.4475 459.832 50.0801V49.8045C459.832 49.6208 459.832 49.3452 459.832 49.1615V48.7941C459.832 48.6103 459.832 48.4266 459.74 48.2429L459.648 47.8755C459.648 47.6917 459.557 47.508 459.557 47.4161L459.465 46.9568C459.465 46.7731 459.373 46.6813 459.373 46.4975C459.373 46.3138 459.281 46.1301 459.281 46.0382C459.281 45.9464 459.189 45.7627 459.189 45.6708C459.097 45.4871 459.097 45.3034 459.005 45.1196L458.914 44.8441C458.822 44.5685 458.73 44.201 458.546 43.9255L459.373 43.4661L458.546 43.8336C458.362 43.4661 458.179 43.0987 457.995 42.7313L457.903 42.6394C457.719 42.3638 457.628 42.0882 457.444 41.9045L457.352 41.7208C457.168 41.4452 456.985 41.2615 456.801 41.0778C456.617 40.8022 456.341 40.6185 456.158 40.4348L455.974 40.3429C455.79 40.1592 455.515 39.9755 455.331 39.8836C454.872 39.608 454.78 39.0568 455.055 38.5975C455.239 38.322 455.515 38.2301 455.79 38.2301C455.974 38.2301 456.158 38.322 456.341 38.4138L469.018 46.865C469.294 47.0487 469.569 47.2324 469.845 47.508L470.029 47.6917C470.304 47.8755 470.488 48.151 470.764 48.4266C471.039 48.7022 471.223 48.9778 471.407 49.2534L471.59 49.4371C471.774 49.7127 471.958 50.0801 472.141 50.3557L472.233 50.4475C472.417 50.815 472.601 51.2743 472.784 51.6417L472.876 51.7336C472.968 52.0092 473.152 52.3766 473.244 52.7441V52.8359L473.336 53.1115C473.428 53.2952 473.428 53.5708 473.519 53.7545L473.611 53.9382C473.611 53.9382 473.795 54.5813 473.795 54.765L473.887 54.9487L474.071 55.9592L474.162 56.8778L474.254 57.7964C474.254 57.9801 474.254 58.6231 474.254 58.6231C474.254 58.715 474.254 58.8987 474.162 58.9906C474.162 59.0824 474.162 59.1743 474.162 59.2661C474.162 59.358 474.162 59.5417 474.162 59.6336C474.162 59.8173 474.162 59.9092 474.162 60.001C474.162 60.1848 474.162 60.2766 474.162 60.4603C474.162 60.5522 474.162 60.6441 474.162 60.7359V60.8278C474.162 60.9196 474.162 61.0115 474.162 61.1034V61.2871C474.162 61.3789 474.162 61.4708 474.162 61.5627L474.071 62.4813C474.071 62.665 473.979 63.4917 473.979 63.4917C473.979 63.7673 473.887 64.1348 473.887 64.4103V64.5022C473.795 64.8696 473.795 65.1452 473.795 65.4208L473.611 66.4313L473.428 67.4417L473.152 68.4522L472.876 69.4627C472.785 69.8301 472.693 70.1057 472.601 70.4731V70.565C472.509 70.8406 472.417 71.208 472.325 71.4836L471.866 72.7696L471.682 73.4127L471.407 74.2394L470.488 73.9638L471.315 74.3313C471.223 74.6068 471.039 74.9743 470.947 75.2499C470.947 75.2499 470.58 76.0766 470.488 76.2603L469.937 77.4545V77.5464C469.661 78.0057 469.478 78.5568 469.202 79.0161L469.11 79.108L469.018 79.1999C468.651 79.9348 468.283 80.5778 467.916 81.3127L467.824 81.4964C467.457 82.0475 467.181 82.5987 466.814 83.1499C466.538 83.5173 466.354 83.8848 466.079 84.2522C465.895 84.5278 465.711 84.8034 465.528 85.0789L465.436 85.2627C465.252 85.5382 464.976 85.8138 464.793 86.1813C464.793 86.1813 464.241 86.9162 464.15 87.008L463.507 87.8348L462.772 88.6615L462.037 89.4882L461.302 90.2231L460.567 90.958L459.832 91.601L459.097 92.2441C458.822 92.4278 458.638 92.6115 458.362 92.7952C458.087 92.9789 457.903 93.1627 457.628 93.2545L457.444 93.3464C457.26 93.4382 457.076 93.622 456.893 93.7138L456.158 94.1731L455.607 94.5406L455.055 93.8057L455.515 94.6324C455.331 94.7243 455.055 94.8162 454.872 94.9999C454.688 95.0917 454.412 95.1836 454.137 95.2755C454.137 95.2755 453.494 95.551 453.402 95.551L452.667 95.8266L451.932 96.0103H451.748L451.473 95.0917L451.657 96.0103C451.565 96.0103 451.197 96.1022 451.197 96.1022C451.105 96.1022 451.014 96.1022 451.014 96.1022L450.83 95.1836L450.922 96.1022C450.83 96.1022 450.738 96.1022 450.554 96.1022H450.462C450.371 96.1022 450.371 96.1022 450.279 96.1022C450.095 96.1022 449.911 96.1022 449.728 96.1022H449.636C449.911 95.9185 449.819 95.9185 449.728 95.9185Z" fill="#98A2F4"/>
<path d="M456.342 38.965L469.018 47.4162C469.294 47.5999 469.478 47.7836 469.753 47.9673C469.845 48.0592 469.845 48.0592 469.937 48.1511C470.121 48.3348 470.396 48.6104 470.58 48.7941C470.58 48.7941 470.58 48.7941 470.58 48.8859C470.764 49.0697 470.947 49.3452 471.131 49.6208C471.223 49.7127 471.223 49.7127 471.223 49.8045C471.407 50.0801 471.59 50.3557 471.774 50.6313C471.774 50.6313 471.774 50.6313 471.774 50.7231C471.958 51.0906 472.142 51.458 472.325 51.9173C472.325 51.9173 472.325 51.9173 472.325 52.0092C472.417 52.2848 472.601 52.6522 472.693 52.9278V53.0197C472.693 53.1115 472.693 53.2034 472.785 53.2952C472.876 53.479 472.876 53.6627 472.968 53.9383C472.968 54.0301 472.968 54.0301 473.06 54.122C473.06 54.2138 473.06 54.3057 473.152 54.3976C473.152 54.5813 473.244 54.765 473.244 54.9487C473.244 55.0406 473.244 55.1324 473.336 55.1324C473.336 55.2243 473.336 55.3162 473.336 55.408C473.336 55.5918 473.428 55.6836 473.428 55.8673C473.428 55.9592 473.428 56.0511 473.428 56.1429C473.428 56.2348 473.428 56.3266 473.428 56.4185C473.428 56.5104 473.428 56.6941 473.519 56.7859C473.519 56.8778 473.519 56.9697 473.519 56.9697C473.519 57.0615 473.519 57.2452 473.519 57.3371C473.519 57.429 473.519 57.6127 473.519 57.7045C473.519 57.7964 473.519 57.7964 473.519 57.8883C473.519 58.072 473.519 58.2557 473.519 58.4394C473.519 58.5313 473.519 58.6231 473.519 58.715V58.8069C473.519 59.0824 473.611 59.4499 473.611 59.7255C473.611 59.7255 473.611 59.7255 473.611 59.8173C473.611 60.0929 473.611 60.3685 473.611 60.6441C473.611 60.7359 473.611 60.7359 473.611 60.8278C473.611 60.9197 473.611 61.1034 473.611 61.1952C473.611 61.2871 473.611 61.4708 473.611 61.5627C473.611 61.6545 473.611 61.7464 473.611 61.8383C473.611 61.9301 473.611 62.1138 473.611 62.2057C473.611 62.2976 473.611 62.3894 473.611 62.4813C473.611 62.665 473.611 62.8487 473.519 63.0324C473.519 63.1243 473.519 63.2162 473.519 63.308V63.3999C473.519 63.6755 473.428 64.0429 473.428 64.3185V64.4104C473.428 64.6859 473.336 64.9615 473.336 65.2371C473.336 65.329 473.336 65.329 473.336 65.4208C473.336 65.5127 473.336 65.6964 473.244 65.7883C473.244 65.972 473.152 66.0638 473.152 66.2476C473.152 66.3394 473.152 66.4313 473.06 66.5231C473.06 66.7069 472.968 66.7987 472.968 66.9824C472.968 67.0743 472.968 67.1662 472.876 67.258C472.876 67.3499 472.785 67.5336 472.785 67.6255C472.785 67.8092 472.693 67.9011 472.693 68.0848C472.693 68.1766 472.693 68.1766 472.601 68.2685C472.601 68.4522 472.509 68.6359 472.417 68.8197C472.417 68.9115 472.325 69.0952 472.325 69.1871V69.279C472.233 69.6464 472.142 69.922 472.05 70.2894V70.3813C471.958 70.6569 471.866 70.9324 471.774 71.208V71.2999C471.774 71.3918 471.682 71.4836 471.682 71.6673C471.59 71.8511 471.59 71.9429 471.499 72.1266C471.499 72.2185 471.407 72.3104 471.407 72.4022C471.407 72.4941 471.315 72.6778 471.315 72.7697C471.315 72.8615 471.223 72.9534 471.223 73.0452C471.131 73.229 471.131 73.4127 471.039 73.5964C471.039 73.6883 470.947 73.7801 470.947 73.872V73.9638C470.855 74.2394 470.672 74.6069 470.58 74.8824C470.58 74.9743 470.488 75.0662 470.488 75.158C470.396 75.4336 470.304 75.6173 470.212 75.8929C470.212 75.8929 470.212 75.9848 470.121 75.9848C470.029 76.1685 469.937 76.3522 469.845 76.5359C469.753 76.7197 469.753 76.8115 469.661 76.9952V77.0871C469.478 77.5464 469.202 78.0976 468.926 78.5569C468.926 78.5569 468.926 78.6487 468.835 78.6487C468.835 78.7406 468.743 78.7406 468.743 78.7406C468.375 79.3836 468.008 80.1185 467.64 80.7615C467.64 80.7615 467.64 80.8534 467.549 80.8534C467.549 80.9452 467.457 80.9452 467.457 81.0371C467.181 81.5883 466.814 82.0476 466.538 82.5987C466.354 82.9662 466.079 83.3336 465.803 83.6092C465.803 83.6092 465.803 83.6092 465.803 83.701C465.619 83.9766 465.436 84.2522 465.252 84.4359L465.16 84.5278C464.976 84.8034 464.701 85.079 464.517 85.3545C464.425 85.4464 464.425 85.5383 464.333 85.6301C464.242 85.8138 464.058 85.9976 463.966 86.1813L463.874 86.2731C463.782 86.365 463.69 86.4569 463.599 86.6406C463.507 86.7324 463.415 86.9162 463.323 87.008C463.323 87.0999 463.231 87.0999 463.231 87.0999C463.139 87.1918 463.047 87.3755 462.956 87.4673C462.864 87.5592 462.772 87.6511 462.68 87.7429C462.588 87.8348 462.588 87.8348 462.496 87.9266C462.404 88.0185 462.312 88.2022 462.129 88.2941C462.037 88.3859 461.945 88.4778 461.853 88.5697C461.761 88.6615 461.761 88.6615 461.669 88.7534C461.578 88.8452 461.486 88.9371 461.302 89.1208C461.21 89.2127 461.21 89.3045 461.118 89.3045C461.026 89.3964 460.935 89.4883 460.935 89.4883C460.843 89.5801 460.751 89.672 460.567 89.7638C460.475 89.8557 460.475 89.8557 460.383 89.9476C460.292 90.0394 460.2 90.1313 460.108 90.2231C460.016 90.315 459.924 90.4069 459.832 90.4987L459.74 90.5906C459.649 90.6824 459.465 90.7743 459.373 90.8662C459.281 90.958 459.189 91.0499 459.097 91.0499C459.097 91.0499 459.097 91.0499 459.005 91.1418C458.73 91.3255 458.546 91.5092 458.271 91.6929C458.271 91.6929 458.271 91.6929 458.179 91.6929C457.995 91.8766 457.719 91.9685 457.536 92.1522C457.444 92.1522 457.444 92.2441 457.352 92.2441C457.168 92.3359 456.985 92.4278 456.801 92.6115C456.709 92.6115 456.709 92.7034 456.617 92.7034C456.525 92.7952 456.433 92.7952 456.342 92.8871C456.25 92.8871 456.158 92.979 456.158 92.979C456.066 93.0708 455.974 93.0708 455.79 93.1627C455.699 93.1627 455.607 93.2545 455.515 93.2545C455.515 93.2545 455.423 93.2545 455.423 93.3464C455.239 93.4383 454.964 93.5301 454.78 93.622C454.596 93.7138 454.321 93.8057 454.137 93.8976H454.045C453.953 93.8976 453.861 93.9894 453.769 93.9894C453.678 93.9894 453.586 94.0813 453.402 94.0813C453.31 94.0813 453.31 94.0813 453.218 94.1731C453.126 94.1731 453.035 94.265 452.943 94.265C452.851 94.265 452.759 94.3569 452.759 94.3569C452.667 94.3569 452.575 94.3569 452.483 94.4487C452.392 94.4487 452.3 94.5406 452.208 94.5406C452.116 94.5406 452.116 94.5406 452.024 94.5406C451.932 94.5406 451.84 94.5406 451.749 94.6324C451.657 94.6324 451.565 94.6324 451.381 94.7243H451.289C451.197 94.7243 451.106 94.7243 451.014 94.7243C450.922 94.7243 450.738 94.7243 450.646 94.7243H450.554C450.462 94.7243 450.371 94.7243 450.279 94.7243C450.095 94.7243 450.003 94.7243 449.819 94.7243H449.728C449.636 94.7243 449.636 94.7243 449.544 94.7243C449.36 94.7243 449.176 94.7243 448.993 94.7243C448.901 94.7243 448.901 94.7243 448.809 94.7243H448.717C448.442 94.7243 448.166 94.6324 447.982 94.6324C447.982 94.6324 447.982 94.6324 447.89 94.6324C447.799 94.6324 447.799 94.6324 447.707 94.6324C447.523 94.6324 447.431 94.5406 447.247 94.5406C447.156 94.5406 447.064 94.4487 447.064 94.4487C446.972 94.4487 446.88 94.3569 446.788 94.3569H446.696C446.512 94.265 446.421 94.265 446.237 94.1731C446.145 94.1731 446.053 94.0813 446.053 94.0813C445.869 93.9894 445.594 93.8057 445.41 93.7138L432.733 85.2627C432.917 85.3545 433.101 85.5383 433.376 85.6301C433.468 85.6301 433.56 85.722 433.56 85.722C433.744 85.8138 433.836 85.9057 434.019 85.9057C434.111 85.9976 434.295 85.9976 434.387 86.0894C434.479 86.0894 434.571 86.1813 434.571 86.1813C434.754 86.2731 434.846 86.2731 435.03 86.2731C435.122 86.2731 435.122 86.2731 435.214 86.2731H435.306C435.581 86.365 435.857 86.365 436.04 86.365C436.132 86.365 436.224 86.365 436.316 86.365C436.5 86.365 436.683 86.4569 436.867 86.5487C436.959 86.5487 437.051 86.6406 437.143 86.6406C437.326 86.6406 437.418 86.5487 437.602 86.5487C437.694 86.5487 437.786 86.4569 437.969 86.4569C438.061 86.4569 438.245 86.365 438.337 86.365C438.429 86.365 438.612 86.2731 438.704 86.2731C438.796 86.2731 438.888 86.1813 439.072 86.1813C439.256 86.1813 439.347 86.0894 439.531 86.0894C439.623 86.0894 439.715 85.9976 439.807 85.9976C439.99 85.9976 440.082 85.9057 440.266 85.9057C440.358 85.9057 440.45 85.8138 440.542 85.8138C440.725 85.722 440.909 85.722 441.001 85.6301C441.093 85.6301 441.185 85.3545 441.276 85.3545C441.552 85.2627 441.736 84.8034 442.011 84.8034V84.9871V85.079C442.287 84.9871 442.471 84.8952 442.746 84.8034C442.838 84.8034 442.93 84.7115 443.022 84.7115C443.206 84.6197 443.389 84.5278 443.573 84.4359C443.665 84.3441 443.757 84.3441 443.849 84.2522C444.124 84.0685 444.308 83.9766 444.583 83.7929C444.859 83.6092 445.135 83.4255 445.41 83.2417C445.41 83.2417 445.41 83.2417 445.502 83.2417C445.778 83.058 446.053 82.8743 446.237 82.6906C446.329 82.5987 446.421 82.5069 446.512 82.5069C446.696 82.3231 446.88 82.2313 447.064 82.0476C447.155 81.9557 447.247 81.8638 447.339 81.772C447.523 81.6801 447.615 81.4964 447.799 81.3127C447.89 81.2208 447.982 81.129 448.166 81.0371C448.35 80.8534 448.442 80.7615 448.625 80.5778C448.717 80.4859 448.809 80.3941 448.993 80.2104C449.176 80.0266 449.268 79.9348 449.452 79.7511C449.544 79.6592 449.636 79.4755 449.819 79.3836C450.003 79.1999 450.095 79.108 450.279 78.9243C450.371 78.8324 450.462 78.6487 450.554 78.5569C450.738 78.3731 450.83 78.1894 451.014 78.0057C451.106 77.9138 451.197 77.822 451.289 77.6383C451.473 77.4545 451.657 77.2708 451.749 76.9952C451.84 76.9034 451.84 76.8115 451.932 76.7197C452.116 76.4441 452.392 76.0766 452.575 75.8011L452.667 75.7092C452.851 75.4336 453.035 75.158 453.218 74.8824C453.494 74.515 453.678 74.1476 453.953 73.872C454.229 73.4127 454.596 72.8615 454.872 72.3104C454.964 72.2185 454.964 72.1266 455.056 72.0348C455.423 71.3918 455.79 70.7487 456.158 70.0138C456.158 69.922 456.25 69.8301 456.25 69.7383C456.525 69.279 456.709 68.7278 456.985 68.2685C457.076 68.0848 457.168 67.9011 457.26 67.7173C457.352 67.5336 457.444 67.3499 457.536 67.1662C457.628 66.8906 457.811 66.615 457.903 66.3394C457.903 66.2476 457.995 66.1557 457.995 66.0638C458.179 65.6964 458.271 65.329 458.454 65.0534C458.454 64.9615 458.546 64.8697 458.546 64.7778C458.638 64.5022 458.73 64.2266 458.822 63.9511C458.822 63.8592 458.914 63.6755 458.914 63.5836C459.006 63.308 459.097 63.0324 459.189 62.8487C459.189 62.7569 459.281 62.665 459.281 62.4813C459.373 62.1138 459.465 61.8383 459.557 61.4708V61.379C459.649 61.0115 459.74 60.6441 459.832 60.2766C459.832 60.1848 459.924 60.0011 459.924 59.9092C460.016 59.6336 460.016 59.4499 460.108 59.1743C460.108 58.9906 460.2 58.8987 460.2 58.715C460.292 58.4394 460.292 58.2557 460.383 57.9801C460.383 57.7964 460.475 57.7045 460.475 57.5208C460.567 57.2452 460.567 57.0615 460.567 56.7859C460.567 56.6941 460.659 56.5104 460.659 56.4185C460.751 56.1429 460.751 55.7755 460.843 55.4999C460.843 55.408 460.843 55.408 460.843 55.3162C460.935 54.9487 460.935 54.5813 460.935 54.2138C460.935 54.122 460.935 54.0301 460.935 53.9383C460.935 53.6627 461.026 53.3871 461.026 53.2034C461.026 53.1115 461.026 52.9278 461.026 52.8359C461.026 52.5604 461.026 52.3766 461.026 52.1011C461.026 52.0092 461.026 51.8255 461.026 51.7336C461.026 51.3662 461.026 51.0906 461.026 50.7231C461.026 50.3557 461.026 49.9883 461.026 49.7127C461.026 49.6208 461.026 49.529 461.026 49.4371C461.026 49.1615 461.026 48.9778 461.026 48.7022C461.026 48.6104 461.026 48.4266 461.026 48.3348C461.026 48.1511 461.026 47.9673 460.935 47.7836C460.935 47.5999 460.935 47.508 460.843 47.4162C460.843 47.2324 460.751 47.0487 460.751 46.865C460.751 46.6813 460.659 46.5894 460.659 46.4057C460.659 46.222 460.567 46.1301 460.567 45.9464C460.567 45.7627 460.475 45.579 460.475 45.3952C460.475 45.3034 460.383 45.1197 460.383 45.0278C460.292 44.8441 460.292 44.6604 460.2 44.3848C460.2 44.2929 460.108 44.2011 460.108 44.1092C460.016 43.7418 459.924 43.4662 459.74 43.1906V43.0987C459.557 42.7313 459.373 42.272 459.189 41.9045V41.8127C459.006 41.5371 458.822 41.2615 458.638 40.9859C458.638 40.8941 458.546 40.8941 458.546 40.8022C458.362 40.5266 458.179 40.3429 457.995 40.0673C457.995 40.0673 457.995 40.0673 457.995 39.9755C457.811 39.6999 457.536 39.5162 457.352 39.3324C457.26 39.2406 457.26 39.2406 457.168 39.1487C456.801 39.3324 456.617 39.1487 456.342 38.965ZM457.352 37.4952L456.342 39.0569L455.331 40.6185C455.515 40.7104 455.699 40.8941 455.882 41.0778L455.974 41.1697C456.158 41.3534 456.342 41.5371 456.433 41.629C456.433 41.629 456.433 41.7208 456.525 41.7208C456.709 41.9045 456.801 42.0883 456.985 42.272L457.076 42.4557C457.26 42.7313 457.352 42.915 457.536 43.1906V43.2824C457.719 43.558 457.903 43.9255 457.995 44.2929V44.3848C458.087 44.6604 458.179 44.9359 458.271 45.2115C458.271 45.3034 458.271 45.3034 458.362 45.3952V45.4871C458.454 45.6708 458.454 45.8545 458.546 46.0383C458.546 46.1301 458.638 46.3138 458.638 46.4057C458.638 46.5894 458.73 46.6813 458.73 46.865C458.73 46.9569 458.822 47.1406 458.822 47.2324C458.822 47.3243 458.914 47.508 458.914 47.5999C458.914 47.7836 459.005 47.8755 459.005 48.0592C459.005 48.1511 459.006 48.3348 459.097 48.4266C459.097 48.6104 459.097 48.7941 459.189 48.9778V49.0697C459.189 49.1615 459.189 49.2534 459.189 49.3452C459.189 49.529 459.189 49.8045 459.189 49.9883V50.0801V50.2638C459.189 50.6313 459.189 50.9069 459.189 51.2743C459.189 51.5499 459.189 51.9173 459.189 52.1929V52.3766V52.4685C459.189 52.6522 459.189 52.9278 459.189 53.1115V53.479C459.189 53.7545 459.189 53.9383 459.097 54.2138V54.3057V54.4894C459.097 54.8569 459.005 55.1325 459.005 55.4999V55.5918V55.6836C459.005 55.9592 458.914 56.2348 458.914 56.6022V56.8778V56.9697C458.914 57.2452 458.822 57.429 458.822 57.7045L458.73 58.072C458.638 58.2557 458.638 58.5313 458.546 58.715V58.8069L458.454 59.1743C458.362 59.4499 458.362 59.6336 458.271 59.9092V60.0929L458.179 60.2766C458.087 60.6441 457.995 61.0115 457.903 61.2871V61.379C457.811 61.7464 457.719 62.022 457.628 62.3894L457.536 62.5731V62.665C457.444 62.9406 457.352 63.1243 457.26 63.3999L457.168 63.7673C457.076 64.0429 456.985 64.3185 456.893 64.5022V64.5941L456.801 64.7778C456.709 65.1452 456.525 65.4208 456.433 65.7883L456.342 65.8801L456.25 65.972C456.158 66.2476 456.066 66.5231 455.882 66.7069C455.79 66.8906 455.79 66.9825 455.699 67.1662L455.607 67.258L455.515 67.4417C455.423 67.5336 455.423 67.7173 455.331 67.8092C455.147 68.2685 454.872 68.7278 454.688 69.1871L454.596 69.279L454.504 69.3708C454.137 70.0138 453.769 70.6569 453.494 71.2999L453.402 71.4836L453.31 71.5755C452.943 72.1266 452.667 72.5859 452.392 73.0452C452.208 73.3208 451.932 73.6883 451.749 74.0557C451.565 74.3313 451.381 74.6069 451.197 74.7906L451.106 74.8824C450.922 75.158 450.646 75.4336 450.462 75.7092L450.371 75.8011L450.279 75.8929C450.095 76.0766 450.003 76.2604 449.819 76.4441L449.636 76.6278L449.544 76.7197C449.452 76.9034 449.268 77.0871 449.176 77.179C449.085 77.2708 448.993 77.3627 448.901 77.4545V77.5464C448.809 77.7301 448.625 77.822 448.533 78.0057C448.442 78.0976 448.35 78.1894 448.258 78.3731C448.166 78.5569 447.982 78.6487 447.89 78.8325C447.799 78.9243 447.707 79.0162 447.615 79.108C447.523 79.1999 447.339 79.3836 447.247 79.4755C447.156 79.5673 447.064 79.6592 446.972 79.7511C446.788 79.8429 446.696 80.0266 446.512 80.1185H446.421C446.329 80.2104 446.237 80.3022 446.145 80.3022C445.961 80.3941 445.869 80.5778 445.686 80.6697L445.594 80.7615L445.502 80.8534C445.226 81.0371 445.043 81.2208 444.767 81.4045C444.492 81.5883 444.308 81.772 444.032 81.9557C443.849 82.1394 443.573 82.2313 443.389 82.415L443.206 82.5069C443.022 82.5987 442.838 82.6906 442.746 82.7824L442.654 82.8743L442.562 82.9662C442.471 83.058 442.287 83.058 442.195 83.1499C441.736 83.2417 441.46 83.4255 441.185 83.5173H441.093C441.001 83.5173 441.001 83.6092 440.909 83.6092C440.817 83.701 440.633 83.701 440.542 83.701C440.45 83.701 440.358 83.7929 440.266 83.7929C440.174 83.7929 439.99 83.8848 439.899 83.8848C439.807 83.8848 439.715 83.8848 439.623 83.9766C439.531 83.9766 439.347 84.0685 439.255 84.0685H439.164C439.072 84.0685 438.98 84.0685 438.888 84.0685C438.796 84.0685 438.704 84.0685 438.612 84.0685H438.521C438.429 84.0685 438.337 84.0685 438.245 84.0685C438.153 84.0685 438.153 84.0685 438.061 84.0685H437.969C437.878 84.0685 437.786 84.0685 437.602 84.0685H437.418H437.326C437.235 84.0685 437.051 84.0685 436.959 84.0685C436.867 84.0685 436.775 84.0685 436.775 84.0685C436.592 84.0685 436.316 83.9766 436.224 83.9766H436.132H436.04C435.949 83.9766 435.765 83.8848 435.673 83.8848H435.581H435.489C435.397 83.8848 435.306 83.7929 435.214 83.7929C435.122 83.7011 435.03 83.701 434.846 83.6092L434.754 83.5173H434.662C434.479 83.4255 434.387 83.3336 434.203 83.2417C433.928 83.058 433.56 82.9662 433.193 82.9662C432.642 82.9662 431.999 83.2418 431.631 83.7929C431.08 84.6197 431.264 85.8138 432.09 86.365L444.767 94.8162C445.043 94.9999 445.226 95.0918 445.502 95.2755C445.594 95.2755 445.686 95.3673 445.686 95.3673H445.778C445.961 95.4592 446.145 95.5511 446.237 95.6429C446.237 95.6429 446.329 95.6429 446.329 95.7348C446.421 95.7348 446.512 95.8266 446.604 95.8266H446.696H446.788C446.88 95.8266 446.972 95.9185 446.972 95.9185C447.156 96.0104 447.339 96.0104 447.523 96.1022C447.615 96.1022 447.615 96.1022 447.707 96.1022C447.707 96.1022 447.707 96.1022 447.799 96.1022H447.89C448.166 96.1941 448.442 96.1941 448.717 96.2859C448.809 96.2859 448.809 96.2859 448.901 96.2859C448.993 96.2859 449.085 96.2859 449.085 96.2859C449.268 96.2859 449.452 96.2859 449.728 96.2859C449.819 96.2859 449.911 96.2859 449.911 96.2859C450.003 96.2859 450.003 96.2859 450.095 96.2859C450.187 96.2859 450.371 96.2859 450.554 96.2859C450.646 96.2859 450.738 96.2859 450.83 96.2859C450.922 96.2859 450.922 96.2859 451.014 96.2859C451.106 96.2859 451.197 96.2859 451.381 96.2859H451.473H451.565C451.657 96.2859 451.749 96.2859 451.84 96.2859C451.932 96.2859 451.932 96.2859 452.024 96.2859C452.116 96.2859 452.208 96.2859 452.392 96.1941H452.483C452.575 96.1941 452.667 96.1941 452.759 96.1022C452.851 96.1022 452.851 96.1022 452.943 96.1022C453.035 96.1022 453.218 96.0104 453.31 96.0104H453.402C453.494 96.0104 453.494 96.0104 453.586 95.9185C453.678 95.9185 453.678 95.9185 453.769 95.8266H453.861C453.953 95.8266 454.045 95.7348 454.229 95.7348C454.321 95.7348 454.321 95.7348 454.412 95.6429C454.504 95.6429 454.596 95.5511 454.688 95.5511H454.78H454.872C454.964 95.5511 454.964 95.4592 455.056 95.4592H455.147C455.423 95.3673 455.607 95.2755 455.882 95.0918C455.882 95.0918 455.882 95.0918 455.974 95.0918C456.158 94.9999 456.433 94.908 456.617 94.7243L456.709 94.6324L456.893 94.5406H456.985L457.076 94.4487C457.168 94.3569 457.26 94.3569 457.352 94.265C457.444 94.265 457.444 94.1731 457.536 94.1731H457.628C457.719 94.0813 457.811 94.0813 457.903 93.9894H457.995C458.087 93.9894 458.087 93.8976 458.179 93.8976C458.362 93.8057 458.546 93.622 458.73 93.5301L458.914 93.4383C459.189 93.2545 459.373 93.1627 459.557 92.979C459.557 92.979 459.557 92.979 459.649 92.979C459.924 92.7952 460.108 92.6115 460.383 92.4278L460.475 92.3359C460.567 92.2441 460.567 92.2441 460.659 92.1522L460.751 92.0604L460.843 91.9685C460.935 91.8766 461.026 91.7848 461.118 91.6929L461.21 91.6011C461.302 91.5092 461.394 91.4173 461.486 91.3255L461.578 91.2336L461.669 91.1418C461.761 91.0499 461.761 91.0499 461.853 90.958L461.945 90.8662L462.037 90.7743C462.129 90.6824 462.312 90.5906 462.404 90.4069L462.496 90.315C462.588 90.2231 462.588 90.2231 462.68 90.1313C462.772 90.0394 462.772 90.0394 462.864 89.9476L462.956 89.8557C463.047 89.7638 463.231 89.5801 463.323 89.4883L463.415 89.3964L463.507 89.3045C463.599 89.2127 463.599 89.2127 463.69 89.1208L463.782 89.029C463.874 88.9371 464.058 88.7534 464.15 88.6615L464.242 88.5697L464.333 88.4778C464.425 88.3859 464.425 88.2941 464.517 88.2941L464.609 88.2022L464.701 88.1104C464.793 88.0185 464.885 87.9266 464.976 87.8348L465.068 87.7429C465.16 87.6511 465.252 87.5592 465.252 87.4673L465.344 87.3755L465.436 87.2836C465.528 87.1917 465.619 87.0999 465.619 87.008L465.711 86.9162C465.803 86.7324 465.987 86.6406 466.079 86.4569L466.171 86.365L466.262 86.2731L466.354 86.0894C466.538 85.8138 466.814 85.4464 466.997 85.1708L467.089 85.079C467.273 84.8034 467.457 84.5278 467.64 84.2522V84.1604C467.916 83.7929 468.1 83.4255 468.375 83.058C468.651 82.5987 469.018 82.0476 469.386 81.4045C469.386 81.3127 469.478 81.3127 469.478 81.2208C469.478 81.2208 469.478 81.129 469.569 81.129C469.937 80.4859 470.304 79.7511 470.672 79.0162C470.672 78.9243 470.764 78.9243 470.764 78.8325L470.856 78.7406C471.131 78.1894 471.407 77.7301 471.59 77.179V77.0871C471.682 76.9952 471.682 76.9034 471.774 76.8115L471.866 76.6278L471.958 76.5359C472.05 76.3522 472.142 76.2604 472.142 76.0766L472.233 75.9848C472.325 75.8011 472.417 75.5255 472.509 75.3417V75.2499V75.158L472.601 74.9743V74.8824C472.693 74.6069 472.876 74.2394 472.968 73.9638V73.872L473.06 73.6883V73.5964L473.152 73.4127C473.244 73.3208 473.244 73.1371 473.336 73.0452L473.428 72.8615V72.7697L473.519 72.4022V72.3104L473.611 72.1266C473.611 72.0348 473.703 71.9429 473.703 71.7592L473.795 71.5755V71.4836L473.887 71.208L473.979 71.0243C474.071 70.7487 474.162 70.3813 474.254 70.1057V70.0138C474.346 69.6464 474.438 69.279 474.53 69.0034V68.9115L474.622 68.6359V68.5441V68.3604C474.622 68.1766 474.714 68.0848 474.714 67.9011V67.7173V67.6255L474.806 67.258V67.1662C474.806 67.0743 474.806 66.9824 474.897 66.8906V66.7069V66.615L474.989 66.1557V66.0638V65.8801C474.989 65.7883 474.989 65.6964 475.081 65.5127V65.329V65.2371L475.173 64.9615V64.7778C475.265 64.5022 475.265 64.2266 475.265 63.9511V63.7673C475.357 63.3999 475.357 63.0325 475.357 62.7569V62.665V62.4813V62.3894V62.2976C475.357 62.1138 475.357 62.022 475.357 61.8383C475.357 61.7464 475.357 61.7464 475.357 61.6545V61.5627C475.357 61.4708 475.357 61.379 475.357 61.2871V61.1952V60.9197V60.8278C475.357 60.7359 475.357 60.6441 475.357 60.5522V60.4604C475.357 60.3685 475.357 60.2766 475.357 60.1848V60.0929C475.357 59.9092 475.357 59.8173 475.357 59.7255C475.357 59.5417 475.449 59.358 475.449 59.2662C475.449 59.1743 475.54 59.0825 475.54 59.0825V58.9906C475.54 58.8987 475.449 58.8069 475.449 58.715C475.449 58.6231 475.449 58.6231 475.449 58.5313C475.54 58.3476 475.54 58.1638 475.54 57.8883V57.7045V57.6127V57.5208C475.54 57.3371 475.54 57.2452 475.54 57.0615V56.9697C475.54 56.7859 475.54 56.6941 475.54 56.6022V56.5104V56.4185C475.54 56.3266 475.54 56.2348 475.54 56.1429C475.54 56.0511 475.54 56.0511 475.54 55.9592V55.8673C475.54 55.6836 475.54 55.5918 475.449 55.408V55.3162C475.449 55.2243 475.449 55.1324 475.449 55.1324C475.449 55.0406 475.449 55.0406 475.449 54.9487V54.8569C475.449 54.6731 475.357 54.4894 475.357 54.3976V54.3057C475.357 54.2138 475.357 54.2138 475.357 54.122C475.357 54.0301 475.357 54.0301 475.357 53.9383V53.8464C475.357 53.6627 475.265 53.479 475.265 53.2952V53.2034C475.265 53.1115 475.265 53.1115 475.265 53.0197C475.265 52.9278 475.265 52.9278 475.173 52.8359C475.081 52.5604 475.081 52.3766 474.989 52.1929V52.1011C474.989 52.0092 474.989 51.9173 474.897 51.9173V51.8255C474.806 51.458 474.622 51.0906 474.53 50.815V50.7231C474.53 50.7231 474.53 50.6313 474.438 50.6313C474.254 50.172 474.071 49.8045 473.887 49.3452C473.887 49.3452 473.887 49.2534 473.795 49.2534V49.1615C473.611 48.7941 473.428 48.5185 473.152 48.2429C473.06 48.1511 473.06 48.0592 472.968 48.0592C472.693 47.7836 472.509 47.508 472.325 47.2324L472.233 47.1406C471.958 46.865 471.774 46.5894 471.407 46.3138C471.315 46.222 471.315 46.222 471.223 46.1301C470.856 45.8545 470.58 45.6708 470.304 45.4871L457.352 37.4952Z" fill="#171A21"/>
<path d="M410.871 79.6593C410.871 79.4756 410.871 79.2919 410.871 79.1081C410.871 78.8326 410.871 78.6488 410.871 78.3733C410.871 78.1895 410.871 78.0977 410.871 77.914C410.871 77.5465 410.962 77.2709 410.962 76.9035C410.962 76.7198 410.962 76.536 411.054 76.3523C411.054 76.2605 411.054 76.2605 411.054 76.1686C411.146 75.5256 411.238 74.9744 411.33 74.3314C411.33 74.2395 411.33 74.1477 411.33 74.0558C411.422 73.5047 411.514 73.0453 411.606 72.4942C411.606 72.4023 411.605 72.3105 411.697 72.2186C411.697 71.943 411.789 71.7593 411.881 71.4837C411.973 71.2081 411.973 70.9326 412.065 70.5651C412.065 70.3814 412.157 70.1977 412.157 70.1058C412.249 69.8302 412.249 69.5547 412.34 69.2791C412.34 69.0953 412.432 68.9116 412.432 68.636C412.524 68.3605 412.524 68.1767 412.616 67.9012C412.708 67.6256 412.708 67.35 412.8 67.0744C412.8 66.9826 412.892 66.7988 412.892 66.707C412.983 66.3395 413.075 66.064 413.167 65.6965C413.259 65.5128 413.259 65.2372 413.351 65.0535C413.351 64.9616 413.351 64.9616 413.443 64.8698C413.626 64.2267 413.81 63.5837 413.994 63.0326C413.994 62.9407 413.994 62.9407 414.086 62.8488C414.269 62.2977 414.453 61.7465 414.637 61.1954C414.637 61.1035 414.729 61.0116 414.729 60.9198C414.821 60.736 414.912 60.4605 414.912 60.2767C415.004 60.0012 415.096 59.7256 415.188 59.3581C415.28 59.1744 415.372 58.9907 415.372 58.807C415.464 58.5314 415.556 58.3477 415.647 58.0721C415.739 57.8884 415.739 57.7047 415.831 57.6128C415.923 57.2453 416.107 56.9698 416.199 56.6023C416.29 56.4186 416.382 56.2349 416.382 56.0512C416.382 55.9593 416.474 55.9593 416.474 55.8674C416.75 55.3163 416.933 54.6733 417.209 54.1221C417.209 54.1221 417.209 54.1221 417.209 54.0302C417.301 53.8465 417.393 53.7547 417.393 53.5709C417.576 53.1116 417.76 52.6523 418.036 52.193C418.036 52.1012 418.128 52.1012 418.128 52.0093C418.311 51.6419 418.495 51.2744 418.679 50.907C418.862 50.6314 418.954 50.3558 419.138 49.9884C419.138 49.8965 419.23 49.8965 419.23 49.8046C419.689 48.886 420.149 47.9674 420.7 47.0488C420.7 46.957 420.792 46.8651 420.792 46.7733C420.883 46.4977 421.067 46.314 421.159 46.0384C421.343 45.6709 421.618 45.3035 421.802 44.936C421.986 44.5686 422.169 44.293 422.353 43.9256C422.537 43.5581 422.812 43.1907 422.996 42.8233C423.088 42.7314 423.18 42.5477 423.18 42.4558C423.272 42.364 423.364 42.2721 423.364 42.0884C424.007 41.0779 424.65 40.1593 425.293 39.1488C425.752 38.5058 426.211 37.7709 426.671 37.1279C426.671 37.1279 426.671 37.036 426.762 37.036C427.13 36.5767 427.497 36.1174 427.865 35.6581C427.957 35.5663 428.049 35.4744 428.049 35.3826C428.508 34.8314 428.875 34.2802 429.335 33.7291C429.335 33.7291 429.335 33.6372 429.426 33.6372C429.518 33.4535 429.702 33.3616 429.794 33.1779C430.069 32.8105 430.345 32.5349 430.621 32.1674C430.712 32.0756 430.712 32.0756 430.804 31.9837C430.988 31.8 431.172 31.5244 431.356 31.3407C431.539 31.0651 431.815 30.8814 431.999 30.6058C432.09 30.514 432.182 30.4221 432.274 30.3302C432.458 30.1465 432.733 29.8709 432.917 29.6872C433.101 29.5035 433.285 29.3198 433.468 29.136C433.56 29.0442 433.652 28.9523 433.744 28.8605C434.019 28.5849 434.203 28.4012 434.479 28.2174C434.662 28.0337 434.754 27.9419 434.938 27.7581C435.03 27.6663 435.214 27.4826 435.306 27.3907C435.581 27.207 435.765 26.9314 436.04 26.7477C436.224 26.6558 436.316 26.4721 436.5 26.3802C436.683 26.2884 436.775 26.1047 436.959 26.0128C437.143 25.8291 437.418 25.6453 437.602 25.4616C437.694 25.3698 437.878 25.2779 437.969 25.186C438.153 25.0023 438.337 24.9105 438.521 24.7267C438.704 24.543 438.98 24.3593 439.164 24.1756C439.256 24.0837 439.347 23.9919 439.439 23.9919C439.715 23.8081 439.99 23.6244 440.266 23.3488C440.45 23.257 440.633 23.0733 440.817 22.9814C440.909 22.9814 440.909 22.8895 441.001 22.8895C441.46 22.5221 441.919 22.2465 442.471 21.8791L442.562 21.7872C443.022 21.5116 443.389 21.236 443.849 20.9605C443.94 20.8686 444.032 20.7767 444.216 20.7767C444.583 20.593 444.951 20.3174 445.318 20.1337L445.41 20.0419C445.778 19.7663 446.237 19.5826 446.604 19.3988C446.696 19.3988 446.788 19.307 446.88 19.307C447.064 19.2151 447.247 19.1233 447.431 19.0314C447.615 18.9395 447.799 18.8477 447.982 18.7558C448.166 18.664 448.258 18.664 448.442 18.5721C448.625 18.4802 448.809 18.3884 448.993 18.2965C449.085 18.2047 449.268 18.2047 449.36 18.1128C449.544 18.0209 449.728 17.9291 450.003 17.8372C450.187 17.7453 450.371 17.6535 450.554 17.6535C450.646 17.6535 450.738 17.5616 450.738 17.5616C451.014 17.4698 451.289 17.3779 451.565 17.286C451.749 17.1942 451.84 17.1942 452.024 17.1023H452.116C452.575 16.9186 453.035 16.8267 453.494 16.7349C453.586 16.7349 453.678 16.7349 453.678 16.643C454.045 16.5512 454.504 16.4593 454.872 16.3674H454.964C455.147 16.2756 455.423 16.2756 455.607 16.2756C455.882 16.2756 456.066 16.1837 456.342 16.1837H456.433C456.709 16.1837 456.985 16.0919 457.26 16.0919C457.444 16.0919 457.628 16 457.811 16C457.811 16 460.751 16 462.129 16.2756C462.496 16.3674 462.772 16.3674 463.139 16.4593C463.231 16.4593 463.231 16.4593 463.323 16.4593C463.507 16.4593 463.69 16.5512 463.874 16.5512C464.15 16.643 464.333 16.643 464.609 16.7349C464.793 16.8267 464.976 16.8267 465.16 16.9186C465.252 16.9186 465.436 17.0105 465.528 17.0105C465.619 17.0105 465.711 17.1023 465.711 17.1023C465.987 17.1942 466.354 17.3779 466.63 17.4698C466.814 17.5616 466.906 17.5616 467.089 17.6535C467.549 17.8372 467.916 18.1128 468.375 18.3884L481.052 26.1965C480.593 25.9209 480.225 25.7372 479.766 25.4616C479.582 25.3698 479.49 25.3698 479.307 25.2779C479.031 25.0942 478.664 25.0023 478.388 24.9105C478.204 24.8186 478.021 24.7267 477.745 24.7267C477.561 24.6349 477.378 24.6349 477.194 24.543C476.918 24.4512 476.735 24.4512 476.459 24.3593C476.275 24.3593 476.092 24.2674 475.908 24.2674C475.54 24.1756 475.173 24.0837 474.714 24.0837C474.346 23.9919 473.887 23.9919 473.519 23.9C473.428 23.9 473.336 23.9 473.244 23.9C472.876 23.9 472.417 23.8081 471.958 23.8081C471.499 23.8081 470.947 23.8081 470.396 23.9C470.212 23.9 469.937 23.9 469.753 23.9919C469.478 23.9919 469.202 24.0837 468.926 24.0837C468.651 24.0837 468.375 24.1756 468.1 24.1756C467.916 24.1756 467.64 24.2674 467.457 24.2674C466.997 24.3593 466.63 24.4512 466.171 24.543C466.079 24.543 465.987 24.543 465.987 24.6349C465.528 24.7267 464.976 24.9105 464.517 25.0942C464.333 25.0942 464.242 25.186 464.058 25.2779C463.69 25.3698 463.323 25.5535 462.956 25.6453C462.772 25.7372 462.588 25.8291 462.404 25.8291C462.037 25.9209 461.761 26.1047 461.394 26.1965C461.21 26.2884 461.026 26.3802 460.843 26.4721C460.475 26.6558 460.2 26.7477 459.832 26.9314C459.649 27.0233 459.465 27.1151 459.281 27.207C458.822 27.4826 458.271 27.7581 457.811 28.0337C457.444 28.3093 456.985 28.493 456.617 28.7686C456.066 29.136 455.515 29.5035 454.964 29.8709C454.964 29.8709 454.872 29.8709 454.872 29.9628C454.321 30.3302 453.769 30.6977 453.31 31.0651C453.126 31.157 452.943 31.3407 452.759 31.4326C452.392 31.7081 452.024 31.9837 451.749 32.2593C451.565 32.443 451.289 32.6267 451.106 32.8105C450.83 33.086 450.462 33.3616 450.187 33.6372C450.003 33.8209 449.728 34.0047 449.544 34.1884C449.268 34.464 448.993 34.7395 448.625 35.0151C448.35 35.1988 448.166 35.4744 447.89 35.6581C447.615 35.9337 447.339 36.2093 447.064 36.4849C446.788 36.6686 446.604 36.9442 446.329 37.1279C446.053 37.4035 445.778 37.6791 445.502 38.0465C445.318 38.2302 445.043 38.5058 444.859 38.6895C444.583 38.9651 444.308 39.3326 443.94 39.7C443.757 39.8837 443.573 40.1593 443.389 40.343C443.022 40.7105 442.746 41.0779 442.379 41.5372C442.287 41.7209 442.103 41.8128 442.011 41.9965C441.552 42.5477 441.093 43.0988 440.633 43.7419C440.542 43.8337 440.45 43.9256 440.45 44.0174C440.082 44.4767 439.715 45.0279 439.347 45.4872C438.888 46.1302 438.429 46.7733 437.969 47.5081C437.326 48.4267 436.683 49.4372 436.04 50.4477C435.857 50.7233 435.765 50.907 435.581 51.1826C435.397 51.55 435.122 51.9174 434.938 52.2849C434.754 52.6523 434.571 52.9279 434.387 53.2953C434.203 53.6628 433.928 54.0302 433.744 54.3977C433.56 54.6733 433.376 55.0407 433.193 55.3163C432.733 56.2349 432.182 57.1535 431.723 58.0721C431.539 58.4395 431.355 58.7151 431.172 59.0826C430.988 59.45 430.804 59.8174 430.621 60.1849C430.345 60.736 430.161 61.1954 429.886 61.7465C429.794 61.9302 429.702 62.0221 429.702 62.2058C429.426 62.8488 429.151 63.5837 428.875 64.2267C428.783 64.4105 428.692 64.5942 428.692 64.7779C428.508 65.2372 428.324 65.7884 428.14 66.2477C428.049 66.4314 427.957 66.707 427.865 66.8907C427.681 67.35 427.497 67.8093 427.314 68.3605C427.222 68.5442 427.13 68.7279 427.13 69.0035C426.946 69.6465 426.671 70.2895 426.487 70.9326C426.487 71.0244 426.487 71.0244 426.395 71.1163C426.211 71.8512 425.936 72.4942 425.752 73.2291C425.66 73.4128 425.66 73.6884 425.568 73.8721C425.476 74.3314 425.293 74.7907 425.201 75.3419C425.109 75.6174 425.109 75.893 425.017 76.1686C424.925 76.6279 424.833 77.0872 424.742 77.5465C424.65 77.8221 424.65 78.0977 424.558 78.3733C424.466 78.8326 424.374 79.2919 424.282 79.7512C424.19 80.0267 424.19 80.2105 424.099 80.486C424.007 81.1291 423.915 81.6802 423.823 82.3233C423.823 82.4151 423.823 82.507 423.823 82.5988C423.731 83.2419 423.639 83.9767 423.547 84.6198C423.547 84.8035 423.547 84.9872 423.456 85.1709C423.364 85.6302 423.364 86.1814 423.272 86.6407C423.272 86.9163 423.272 87.1 423.18 87.3756C423.18 87.8349 423.088 88.2942 423.088 88.7535C423.088 88.9372 423.088 89.2128 423.088 89.3965C423.088 90.0395 423.088 90.6826 423.088 91.3256C423.088 91.9686 423.088 92.6116 423.088 93.2547C423.088 93.4384 423.088 93.6221 423.088 93.8058C423.088 94.2651 423.18 94.6326 423.18 95.0919C423.18 95.3674 423.272 95.5512 423.272 95.8267C423.272 96.1942 423.364 96.4698 423.364 96.8372C423.364 97.1128 423.456 97.3884 423.456 97.664C423.547 98.0314 423.547 98.3988 423.639 98.8581C423.639 98.8581 423.639 98.8581 423.639 98.95C423.639 98.95 423.639 99.0419 423.639 99.1337C423.639 99.2256 423.639 99.3174 423.731 99.4093C423.731 99.5012 423.823 99.6849 423.823 99.7767V99.8686C423.915 100.512 424.099 101.155 424.282 101.798C424.374 101.981 424.374 102.257 424.466 102.441C424.558 102.808 424.742 103.267 424.833 103.635C425.017 104.094 425.201 104.553 425.385 105.013C425.385 105.105 425.476 105.197 425.476 105.288C425.66 105.748 425.844 106.207 426.119 106.666C426.211 106.942 426.395 107.217 426.487 107.585C426.579 107.677 426.579 107.769 426.671 107.86C426.854 108.228 427.038 108.687 427.222 109.055C427.314 109.147 427.314 109.238 427.405 109.33C427.589 109.606 427.773 109.973 427.957 110.249C428.049 110.433 428.14 110.524 428.232 110.708C428.416 110.984 428.508 111.259 428.692 111.535C428.783 111.627 428.783 111.719 428.875 111.902C429.059 112.178 429.243 112.545 429.426 112.821C429.518 112.913 429.61 113.097 429.702 113.188C429.886 113.556 430.161 113.831 430.345 114.199C430.437 114.291 430.437 114.383 430.529 114.474C430.804 114.934 431.172 115.301 431.447 115.76C431.539 115.852 431.631 115.944 431.723 116.036C431.999 116.403 432.274 116.679 432.458 117.047C432.55 117.138 432.642 117.322 432.825 117.414C433.101 117.69 433.376 118.057 433.652 118.333C433.744 118.424 433.836 118.516 433.928 118.7C434.295 119.159 434.662 119.527 435.122 119.986C435.214 120.078 435.306 120.17 435.397 120.262C435.765 120.629 436.04 120.997 436.408 121.272C436.592 121.364 436.683 121.548 436.867 121.64C437.235 121.915 437.51 122.283 437.878 122.558C437.969 122.65 438.153 122.834 438.245 122.926C438.704 123.385 439.255 123.752 439.715 124.212C439.807 124.303 439.807 124.303 439.899 124.395C440.358 124.763 440.817 125.13 441.276 125.498C441.46 125.59 441.644 125.773 441.828 125.865C442.195 126.141 442.654 126.416 443.022 126.784C443.205 126.876 443.389 127.059 443.573 127.151C444.124 127.519 444.767 127.978 445.41 128.345L432.733 120.537C432.09 120.17 431.539 119.802 430.896 119.343C430.712 119.251 430.529 119.067 430.345 118.976C429.886 118.7 429.518 118.424 429.151 118.057C428.967 117.965 428.783 117.781 428.6 117.69C428.14 117.322 427.681 116.955 427.222 116.587C427.13 116.495 427.13 116.495 427.038 116.403C426.487 115.944 426.028 115.577 425.568 115.117C425.476 115.026 425.293 114.842 425.201 114.75C424.833 114.474 424.558 114.107 424.19 113.831C424.007 113.74 423.915 113.556 423.731 113.464C423.364 113.097 422.996 112.729 422.721 112.453C422.629 112.362 422.537 112.27 422.445 112.178C422.078 111.719 421.618 111.351 421.251 110.892C421.159 110.8 421.067 110.708 420.975 110.524C420.7 110.157 420.424 109.881 420.149 109.514C420.057 109.422 419.965 109.238 419.781 109.147C419.506 108.779 419.23 108.503 419.046 108.136C418.954 108.044 418.862 107.952 418.771 107.86C418.495 107.401 418.128 107.034 417.852 106.574C417.76 106.483 417.76 106.391 417.668 106.299C417.485 105.931 417.209 105.656 417.025 105.288C416.933 105.197 416.842 105.013 416.75 104.921C416.566 104.645 416.382 104.278 416.199 104.002C416.107 103.91 416.107 103.819 416.015 103.635L415.923 103.543C415.739 103.267 415.647 103.084 415.555 102.808C415.464 102.624 415.372 102.533 415.28 102.349C415.096 101.981 414.912 101.706 414.729 101.43C414.637 101.338 414.637 101.247 414.545 101.155C414.361 100.787 414.178 100.328 413.994 99.9605C413.902 99.8686 413.902 99.7767 413.81 99.6849C413.718 99.4093 413.535 99.1337 413.443 98.8581C413.443 98.8581 413.443 98.7663 413.351 98.7663C413.167 98.4907 413.075 98.1233 412.892 97.7558C412.8 97.664 412.8 97.4802 412.708 97.3884C412.708 97.2965 412.616 97.2047 412.616 97.1128C412.432 96.6535 412.249 96.286 412.157 95.8267V95.7349C412.065 95.3674 411.881 95 411.789 94.5407C411.697 94.357 411.697 94.1733 411.606 93.9895C411.606 93.9895 411.606 93.9895 411.606 93.8977C411.422 93.2547 411.238 92.6116 411.146 91.9686V91.8767C411.146 91.693 411.054 91.6012 411.054 91.5093C411.054 91.4174 411.054 91.3256 410.962 91.2337C410.962 91.1419 410.962 91.05 410.962 91.05V90.9581C410.962 90.7744 410.871 90.5907 410.871 90.4988C410.871 90.3151 410.779 90.0395 410.779 89.8558C410.779 89.5802 410.687 89.3046 410.687 89.0291C410.687 88.9372 410.687 88.8453 410.687 88.7535C410.687 88.4779 410.595 88.2023 410.595 87.9268C410.595 87.6512 410.503 87.4674 410.503 87.1919C410.503 87.1 410.503 87.1 410.503 87.0081C410.871 86.1814 410.687 81.2209 410.871 79.6593Z" fill="#98A2F4" stroke="#171A21" stroke-width="2" stroke-miterlimit="10" stroke-linecap="round" stroke-linejoin="round"/>
<path d="M457.168 25.5537C474.071 15.6328 488.125 23.349 489.779 43.4665C490.146 47.5083 489.962 51.7339 489.319 55.9595C489.319 55.9595 489.228 56.4188 489.136 57.4293C488.585 60.7362 487.85 64.0432 486.839 67.3502C483.44 79.5676 475.632 101.43 458.087 131.01C457.536 131.928 456.893 132.663 456.25 133.03C455.607 133.49 454.872 133.582 454.321 133.398C436.683 126.141 428.692 114.199 425.293 106.207C424.282 104.186 423.547 101.798 422.996 99.2258C422.813 98.4909 422.812 98.0316 422.812 98.0316C422.445 95.6432 422.169 93.0711 422.169 90.3153C422.078 66.799 437.235 38.1386 455.974 26.3804C456.342 26.1048 456.709 25.8293 457.168 25.5537ZM456.158 90.0397C465.252 84.3444 472.601 70.3816 472.601 58.9909C472.601 47.6002 465.16 43.0072 456.066 48.7025C446.972 54.3979 439.623 68.3607 439.623 79.7514C439.623 91.1421 447.064 95.827 456.158 90.0397Z" fill="#2F58FF"/>
<path d="M179.6 212.8C179.3 212.8 179 212.8 178.8 212.9C178.7 212.9 178.7 212.9 178.6 212.9C178.4 212.9 178.2 213 178 213.1C177.9 213.1 177.9 213.1 177.8 213.2C177.5 213.3 177.3 213.4 177.1 213.5L275.7 156.2C275.7 156.2 275.7 156.2 275.8 156.2C276 156.1 276.2 156 276.4 155.9H276.5C276.6 155.9 276.6 155.9 276.7 155.8C276.8 155.8 276.9 155.7 277 155.7C277.1 155.7 277.2 155.6 277.4 155.6C277.5 155.6 277.5 155.6 277.6 155.6H277.7C277.9 155.6 278.1 155.5 278.4 155.5H278.5C278.6 155.5 278.6 155.5 278.7 155.5C278.8 155.5 279 155.5 279.1 155.5C279.2 155.5 279.4 155.5 279.5 155.5L310.1 154.2C310.4 154.2 310.7 154.2 310.9 154.2C311 154.2 311 154.2 311.1 154.2C311.4 154.2 311.7 154.2 311.9 154.1C312 154.1 312 154.1 312.1 154.1C312.3 154.1 312.5 154 312.7 153.9C312.8 153.9 312.8 153.9 312.9 153.8C313.2 153.7 313.4 153.6 313.6 153.5L215 210.8C215 210.8 215 210.8 214.9 210.8C214.7 210.9 214.5 211 214.3 211.1H214.2C214.1 211.1 214.1 211.1 214 211.2C213.9 211.2 213.8 211.3 213.7 211.3C213.6 211.3 213.5 211.4 213.3 211.4C213.2 211.4 213.2 211.4 213.1 211.4C213.1 211.4 213.1 211.4 213 211.4C212.8 211.4 212.6 211.5 212.4 211.5H212.3C212.2 211.5 212.2 211.5 212.1 211.5C212 211.5 211.9 211.5 211.7 211.5C211.5 211.5 211.4 211.5 211.2 211.5L180.6 212.8C180.3 212.8 180 212.8 179.8 212.8C179.7 212.8 179.6 212.8 179.6 212.8Z" fill="#98A2F4"/>
<path d="M179.6 212.8C179.3 212.8 179 212.8 178.8 212.9C178.7 212.9 178.7 212.9 178.6 212.9C178.4 212.9 178.2 213 178 213.1C177.9 213.1 177.9 213.1 177.8 213.2C177.5 213.3 177.3 213.4 177.1 213.5L275.7 156.2C275.7 156.2 275.7 156.2 275.8 156.2C276 156.1 276.2 156 276.4 155.9H276.5C276.6 155.9 276.6 155.9 276.7 155.8" fill="#98A2F4"/>
<path d="M179.6 212.8C179.3 212.8 179 212.8 178.8 212.9C178.7 212.9 178.7 212.9 178.6 212.9C178.4 212.9 178.2 213 178 213.1C177.9 213.1 177.9 213.1 177.8 213.2C177.5 213.3 177.3 213.4 177.1 213.5L275.7 156.2C275.7 156.2 275.7 156.2 275.8 156.2C276 156.1 276.2 156 276.4 155.9H276.5C276.6 155.9 276.6 155.9 276.7 155.8" stroke="#171A21" stroke-width="2" stroke-miterlimit="10" stroke-linecap="round" stroke-linejoin="round"/>
<path d="M199.2 270.4C199.4 269.7 199.6 269.1 199.8 268.5C200.4 267 201.2 265.7 202.1 264.6C202.9 263.7 203.7 263 204.7 262.5L303.3 205.2C300.9 206.6 299.1 209 298.1 212.2C297.5 214.1 297.1 216.4 297.1 218.9L198.5 276.2C198.5 274 198.8 272.1 199.2 270.4Z" fill="#2F58FF"/>
<path d="M325.1 331.8L423.7 274.5C420.9 276.1 419 278.9 418.1 282.6C417.7 284.3 417.4 286.2 417.4 288.2L318.8 345.5C318.8 341 319.9 337.3 321.9 334.7C322.7 333.5 323.8 332.5 325.1 331.8Z" fill="#2F58FF"/>
<path d="M232.8 311.7L258.4 297.3L231 254.3L207.4 267.6L232.8 311.7Z" fill="#2F58FF"/>
<path d="M219.5 269.3C212.8 265.4 206.9 266.2 203.8 270.7C202.3 272.9 201.4 275.9 201.4 279.7C201.4 280.2 201.4 280.6 201.4 281.1C202 292.3 209.8 305.4 219.4 310.9C229 316.4 236.9 312.4 237.5 301.9C237.5 301.5 237.5 301 237.5 300.6C237.5 296.8 236.6 292.8 235.1 288.8C232 280.7 226.2 273.2 219.5 269.3Z" fill="white"/>
<path d="M219.5 279.7C216.1 277.8 213.2 278.2 211.6 280.4C210.8 281.5 210.4 283 210.4 284.9C210.4 285.1 210.4 285.4 210.4 285.6C210.7 291.2 214.6 297.7 219.4 300.5C224.2 303.3 228.1 301.2 228.4 296C228.4 295.8 228.4 295.6 228.4 295.3C228.4 293.4 228 291.4 227.2 289.4C225.7 285.4 222.8 281.6 219.5 279.7Z" fill="#98A2F4" stroke="#171A21" stroke-width="2" stroke-miterlimit="10" stroke-linecap="round" stroke-linejoin="round" stroke-dasharray="12 12"/>
<path d="M352.8 380.7L378.4 366.3L351 323.3L327.4 336.6L352.8 380.7Z" fill="#2F58FF"/>
<path d="M339.5 338.3C332.8 334.4 326.9 335.2 323.8 339.7C322.3 341.9 321.4 344.9 321.4 348.7C321.4 349.2 321.4 349.6 321.4 350.1C322 361.3 329.8 374.4 339.4 379.9C349 385.4 356.9 381.4 357.5 370.9C357.5 370.5 357.5 370 357.5 369.6C357.5 365.8 356.6 361.8 355.1 357.8C352 349.7 346.2 342.2 339.5 338.3Z" fill="white"/>
<path d="M339.5 348.7C336.1 346.8 333.2 347.2 331.6 349.4C330.8 350.5 330.4 352 330.4 353.9C330.4 354.1 330.4 354.4 330.4 354.6C330.7 360.2 334.6 366.7 339.4 369.5C344.2 372.3 348.1 370.2 348.4 365C348.4 364.8 348.4 364.6 348.4 364.3C348.4 362.4 348 360.4 347.2 358.4C345.7 354.4 342.8 350.6 339.5 348.7Z" fill="#98A2F4" stroke="#171A21" stroke-width="2" stroke-miterlimit="10" stroke-linecap="round" stroke-linejoin="round" stroke-dasharray="12 12"/>
<path d="M238 161.9C237.7 161.8 237.4 161.6 237.1 161.5C236.8 161.4 236.5 161.3 236.3 161.3C236.1 161.3 236 161.2 235.8 161.2C235.6 161.2 235.4 161.1 235.2 161.1C235.1 161.1 235 161.1 234.9 161.1C234.7 161.1 234.4 161.1 234.2 161.1C234.1 161.1 234.1 161.1 234 161.1C233.7 161.1 233.4 161.1 233.2 161.2C233.1 161.2 233.1 161.2 233 161.2C232.8 161.2 232.6 161.3 232.4 161.4C232.3 161.4 232.3 161.4 232.2 161.5C231.9 161.6 231.7 161.7 231.5 161.8L330.1 104.5C330.1 104.5 330.1 104.5 330.2 104.5C330.4 104.4 330.6 104.3 330.8 104.2H330.9C331 104.2 331 104.2 331.1 104.1C331.2 104.1 331.3 104 331.4 104C331.5 104 331.6 103.9 331.7 103.9C331.8 103.9 331.8 103.9 331.9 103.9H332C332.2 103.9 332.4 103.8 332.7 103.8C332.7 103.8 332.7 103.8 332.8 103.8C332.9 103.8 332.9 103.8 333 103.8C333.2 103.8 333.3 103.8 333.5 103.8C333.6 103.8 333.6 103.8 333.7 103.8C333.8 103.8 333.9 103.8 334 103.8C334.1 103.8 334.2 103.8 334.3 103.8C334.4 103.8 334.5 103.8 334.6 103.9C334.8 103.9 334.9 104 335.1 104C335.2 104 335.2 104 335.3 104C335.5 104.1 335.7 104.1 335.9 104.2C336.1 104.3 336.3 104.4 336.6 104.4C336.7 104.4 336.8 104.5 336.9 104.5C337 104.5 337.1 104.6 337.2 104.6C337.5 104.8 337.9 104.9 338.2 105.1L477.4 185.5C477.8 185.7 478.1 185.9 478.5 186.2C478.6 186.3 478.7 186.4 478.8 186.4C479 186.6 479.3 186.7 479.5 186.9C479.6 187 479.8 187.1 479.9 187.2C480.1 187.4 480.3 187.6 480.5 187.7C480.6 187.8 480.7 187.9 480.9 188C481 188.1 481.1 188.1 481.1 188.2C481.2 188.3 481.3 188.4 481.3 188.5C481.6 188.8 481.8 189 482 189.3C482.1 189.4 482.2 189.5 482.2 189.6C482.3 189.7 482.3 189.8 482.4 189.8C482.5 190 482.7 190.1 482.8 190.3C482.9 190.4 483 190.5 483.1 190.6C483.2 190.7 483.2 190.8 483.3 190.9C483.4 191 483.5 191.2 483.6 191.3C483.7 191.4 483.7 191.5 483.8 191.6C483.9 191.8 484 191.9 484.1 192.1C484.2 192.2 484.2 192.3 484.3 192.4L484.4 192.5C484.6 192.8 484.8 193.1 485 193.4C485 193.4 485 193.4 485 193.5C485 193.6 485.1 193.6 485.1 193.7C485.2 193.9 485.4 194.1 485.5 194.4C485.6 194.5 485.6 194.6 485.7 194.7C485.8 194.8 485.8 194.9 485.9 195C485.9 195.1 486 195.2 486 195.3C486.1 195.6 486.2 195.8 486.4 196.1C486.4 196.1 486.4 196.2 486.5 196.2C486.6 196.5 486.8 196.9 486.9 197.2C486.9 197.3 486.9 197.3 487 197.4C487 197.5 487.1 197.6 487.1 197.8C487.2 198 487.2 198.1 487.3 198.3C487.3 198.4 487.4 198.6 487.4 198.7C487.4 198.9 487.5 199 487.5 199.2C487.5 199.3 487.6 199.4 487.6 199.5C487.6 199.7 487.7 199.8 487.7 200C487.7 200.2 487.8 200.4 487.8 200.6C487.8 200.7 487.8 200.7 487.8 200.8C487.8 200.9 487.8 201.1 487.9 201.2C488 201.5 488 201.8 488.1 202.1C488.1 202.2 488.1 202.3 488.1 202.3C488.1 202.5 488.1 202.7 488.2 202.8C488.2 202.9 488.2 203.1 488.2 203.2C488.2 203.6 488.3 204 488.2 204.4L487.9 315.8C487.9 318 487.4 319.7 486.6 321.1C486.1 321.9 485.5 322.5 484.7 322.9L386.1 380.2C388.1 379 389.3 376.6 389.3 373.1L389.6 261.7C389.6 261.3 389.6 260.9 389.6 260.5C389.6 260.4 389.6 260.2 389.6 260.1C389.6 259.8 389.5 259.6 389.5 259.3C389.5 259 389.4 258.7 389.3 258.4C389.3 258.2 389.2 258 389.2 257.8C389.2 257.6 389.1 257.4 389.1 257.2C389 256.9 389 256.7 388.9 256.4C388.9 256.2 388.8 256.1 388.8 255.9C388.7 255.6 388.6 255.3 388.5 255C388.5 254.9 388.4 254.8 388.4 254.6C388.2 254.2 388.1 253.8 387.9 253.4C387.9 253.4 387.9 253.3 387.8 253.3C387.6 252.9 387.5 252.6 387.3 252.2C387.2 252.1 387.2 252 387.1 251.9C386.9 251.6 386.7 251.2 386.6 250.9C386.6 250.8 386.5 250.8 386.5 250.7C386.3 250.3 386 249.9 385.8 249.6C385.7 249.5 385.7 249.4 385.6 249.3C385.4 249 385.2 248.8 385.1 248.5C385 248.4 384.9 248.2 384.8 248.1C384.6 247.9 384.5 247.7 384.3 247.5C384.2 247.3 384 247.1 383.9 247C383.8 246.8 383.6 246.7 383.5 246.5C383.3 246.2 383 246 382.8 245.7C382.6 245.5 382.5 245.4 382.3 245.2C382.2 245.1 382.1 245 381.9 244.9C381.7 244.7 381.5 244.5 381.3 244.4C381.2 244.3 381 244.2 380.9 244.1C380.7 243.9 380.4 243.7 380.2 243.6C380.1 243.5 380 243.4 379.9 243.4C379.6 243.2 379.2 242.9 378.8 242.7L239.6 162.3C239.3 162.1 238.9 161.9 238.6 161.8C238.2 162 238.1 162 238 161.9Z" fill="#98A2F4"/>
<path d="M231.4 161.8L330 104.5C330 104.5 330 104.5 330.1 104.5C330.3 104.4 330.5 104.3 330.7 104.2H330.8C330.9 104.2 330.9 104.2 331 104.1C331.1 104.1 331.2 104 331.3 104C331.4 104 331.5 103.9 331.6 103.9C331.7 103.9 331.7 103.9 331.8 103.9H331.9C332.1 103.9 332.3 103.8 332.6 103.8C332.6 103.8 332.6 103.8 332.7 103.8C332.8 103.8 332.8 103.8 332.9 103.8C333.1 103.8 333.2 103.8 333.4 103.8C333.5 103.8 333.5 103.8 333.6 103.8C333.7 103.8 333.8 103.8 333.9 103.8C334 103.8 334.1 103.8 334.2 103.8C334.3 103.8 334.4 103.8 334.5 103.9C334.7 103.9 334.8 104 335 104C335.1 104 335.1 104 335.2 104C335.4 104.1 335.6 104.1 335.8 104.2C336 104.3 336.2 104.4 336.5 104.4C336.6 104.4 336.7 104.5 336.8 104.5C336.9 104.5 337 104.6 337.1 104.6C337.4 104.8 337.8 104.9 338.1 105.1L477.3 185.5C477.7 185.7 478 185.9 478.4 186.2C478.5 186.3 478.6 186.4 478.7 186.4C478.9 186.6 479.2 186.7 479.4 186.9C479.5 187 479.7 187.1 479.8 187.2C480 187.4 480.2 187.6 480.4 187.7C480.5 187.8 480.6 187.9 480.8 188C480.9 188.1 481 188.1 481 188.2C481.1 188.3 481.2 188.4 481.2 188.5C481.5 188.8 481.7 189 481.9 189.3C482 189.4 482.1 189.5 482.1 189.6C482.2 189.7 482.2 189.8 482.3 189.8C482.4 190 482.6 190.1 482.7 190.3C482.8 190.4 482.9 190.5 483 190.6C483.1 190.7 483.1 190.8 483.2 190.9C483.3 191 483.4 191.2 483.5 191.3C483.6 191.4 483.6 191.5 483.7 191.6C483.8 191.8 483.9 191.9 484 192.1C484.1 192.2 484.1 192.3 484.2 192.4L484.3 192.5C484.5 192.8 484.7 193.1 484.9 193.4C484.9 193.4 484.9 193.4 484.9 193.5C484.9 193.6 485 193.6 485 193.7C485.1 193.9 485.3 194.1 485.4 194.4C485.5 194.5 485.5 194.6 485.6 194.7C485.7 194.8 485.7 194.9 485.8 195C485.8 195.1 485.9 195.2 485.9 195.3C486 195.6 486.1 195.8 486.3 196.1C486.3 196.1 486.3 196.2 486.4 196.2C486.5 196.5 486.7 196.9 486.8 197.2C486.8 197.3 486.8 197.3 486.9 197.4C486.9 197.5 487 197.6 487 197.8C487.1 198 487.1 198.1 487.2 198.3C487.2 198.4 487.3 198.6 487.3 198.7C487.3 198.9 487.4 199 487.4 199.2C487.4 199.3 487.5 199.4 487.5 199.5C487.5 199.7 487.6 199.8 487.6 200C487.6 200.2 487.7 200.4 487.7 200.6C487.7 200.7 487.7 200.7 487.7 200.8C487.7 200.9 487.7 201.1 487.8 201.2C487.9 201.5 487.9 201.8 488 202.1C488 202.2 488 202.3 488 202.3C488 202.5 488 202.7 488.1 202.8C488.1 202.9 488.1 203.1 488.1 203.2C488.1 203.6 488.2 204 488.1 204.4L487.8 315.8C487.8 318 487.3 319.7 486.5 321.1C486 321.9 485.4 322.5 484.6 322.9L386 380.2" stroke="#171A21" stroke-width="2" stroke-miterlimit="10" stroke-linecap="round" stroke-linejoin="round"/>
<path d="M239.3 162.6C234.6 159.9 230.3 160.9 228.8 165.2L225.5 177.5L217.5 207.5C216.5 210.3 214.2 211.9 211.2 211.6L180.6 212.9C176.5 212.5 173.8 215.6 173.8 220.7L173.7 249.1C173.7 256.1 178.6 264.7 184.7 268.2L198.5 276.2C198.5 262.7 208.1 257.2 219.9 264C231.7 270.8 241.2 287.3 241.1 300.8L264 314L318.7 345.6C318.7 339.1 321 334.2 325 331.9C329 329.6 334.4 330.2 340.1 333.4C351.9 340.2 361.4 356.7 361.3 370.2L378 379.8C384.1 383.3 389.1 380.5 389.1 373.5L389.4 262.1C389.4 255.1 384.5 246.5 378.4 243L239.3 162.6Z" fill="white"/>
<path d="M263.9 191.4C268 193.8 271.3 199.5 271.3 204.2L271.2 236.4C271.2 241.1 267.9 243 263.8 240.6L226.4 219C224.8 218.1 224.1 216.3 224.5 214.5L231.3 188.8L234.1 178.4C234.6 176.5 236.8 175.6 238.5 176.6L263.9 191.4Z" fill="#98A2F4"/>
<path d="M266 260.6C266 263.5 263.9 264.7 261.4 263.2L253.2 258.4C250.7 256.9 248.6 253.4 248.6 250.5C248.6 247.6 250.7 246.4 253.2 247.9" fill="white"/>
<path d="M266 260.6C266 263.5 263.9 264.7 261.4 263.2L253.2 258.4C250.7 256.9 248.6 253.4 248.6 250.5C248.6 247.6 250.7 246.4 253.2 247.9" stroke="#171A21" stroke-width="2" stroke-miterlimit="10" stroke-linecap="round" stroke-linejoin="round"/>
<path d="M479.3 235.8L479.5 313.5C479.5 314.6 478.9 315.6 478 316.1L397.7 362.5L397.5 277.9C397.5 271.5 400.9 265.5 406.5 262.3L465.8 228C471.8 224.6 479.3 228.9 479.3 235.8Z" fill="#2F58FF"/>
<mask id="mask0" mask-type="alpha" maskUnits="userSpaceOnUse" x="397" y="227" width="82" height="136">
<path d="M478.8 235.988L479 313.688C479 314.788 478.4 315.788 477.5 316.288L397.2 362.688L397 278.088C397 271.688 400.4 265.688 406 262.488L465.3 228.188C471.3 224.788 478.8 229.088 478.8 235.988Z" fill="#3359FD"/>
</mask>
<g mask="url(#mask0)">
<path d="M417.6 278.5L396.8 266.5C396.3 266.2 395.6 266.6 395.6 267.2L395.5 282.9C395.5 284.1 396.1 285.1 397.1 285.7L417.5 297.5C418.5 298.1 419.7 298.1 420.7 297.5L441 285.7C442 285.1 442.6 284.1 442.6 282.9L442.7 267.2C442.7 266.6 442 266.2 441.5 266.5L420.9 278.5C419.8 279.1 418.6 279.1 417.6 278.5Z" fill="white"/>
<path d="M441.5 266.5L420.8 278.5C419.8 279.1 418.6 279.1 417.6 278.5L396.8 266.5C396.3 266.2 396.3 265.4 396.8 265.1L417.5 253.1C418.5 252.5 419.7 252.5 420.7 253.1L441.5 265.1C442 265.4 442 266.2 441.5 266.5Z" fill="#98A2F4"/>
<path d="M441 285.6C442 285 442.6 284 442.6 282.8L442.7 267.6C442.7 266.4 442.1 265.4 441.1 264.8L420.7 253C419.7 252.4 418.5 252.4 417.5 253L397.2 264.8C396.2 265.4 395.6 266.4 395.6 267.6L395.5 282.8C395.5 284 396.1 285 397.1 285.6" stroke="#171A21" stroke-width="2" stroke-miterlimit="10" stroke-linecap="round" stroke-linejoin="round"/>
<path d="M403.5 261.1L427.2 274.8L435.4 270L411.8 256.3L403.5 261.1Z" fill="white"/>
<path d="M417 259.3L411.8 256.3L403.5 261.1L408.7 264.1" stroke="#171A21" stroke-width="2" stroke-linecap="round" stroke-linejoin="round"/>
<path d="M422 271.8L427.2 274.8L435.4 270L430.2 267" stroke="#171A21" stroke-width="2" stroke-linecap="round" stroke-linejoin="round"/>
<path d="M389.4 299.3L368.6 287.3C368.1 287 367.4 287.4 367.4 288L367.3 303.7C367.3 304.9 367.9 305.9 368.9 306.5L389.3 318.3C390.3 318.9 391.5 318.9 392.5 318.3L412.8 306.5C413.8 305.9 414.4 304.9 414.4 303.7L414.5 288C414.5 287.4 413.8 287 413.3 287.3L392.7 299.3C391.7 299.9 390.4 299.9 389.4 299.3Z" fill="white"/>
<path d="M413.3 287.3L392.6 299.3C391.6 299.9 390.4 299.9 389.4 299.3L368.6 287.3C368.1 287 368.1 286.2 368.6 285.9L389.3 273.9C390.3 273.3 391.5 273.3 392.5 273.9L413.3 285.9C413.9 286.2 413.9 287 413.3 287.3Z" fill="#98A2F4"/>
<path d="M412.9 306.5C413.9 305.9 414.5 304.9 414.5 303.7L414.6 288.5C414.6 287.3 414 286.3 413 285.7L392.6 273.9C391.6 273.3 390.4 273.3 389.4 273.9L369 285.7C368 286.3 367.4 287.3 367.4 288.5L367.3 303.7C367.3 304.9 367.9 305.9 368.9 306.5" stroke="#171A21" stroke-width="2" stroke-miterlimit="10" stroke-linecap="round" stroke-linejoin="round"/>
<path d="M375.4 282L399.1 295.6L407.3 290.8L383.7 277.2L375.4 282Z" fill="white"/>
<path d="M393.9 292.6L399.1 295.6L407.3 290.8L402.1 287.8" stroke="#171A21" stroke-width="2" stroke-linecap="round" stroke-linejoin="round"/>
<path d="M445.7 296.2L424.9 284.2C424.4 283.9 423.7 284.3 423.7 284.9L423.6 300.6C423.6 301.8 424.2 302.8 425.2 303.4L445.6 315.2C446.6 315.8 447.8 315.8 448.8 315.2L469.1 303.4C470.1 302.8 470.7 301.8 470.7 300.6L470.8 284.9C470.8 284.3 470.1 283.9 469.6 284.2L449 296.2C447.9 296.8 446.7 296.8 445.7 296.2Z" fill="white"/>
<path d="M469.6 284.2L448.9 296.2C447.9 296.8 446.7 296.8 445.7 296.2L424.9 284.2C424.4 283.9 424.4 283.1 424.9 282.8L445.6 270.8C446.6 270.2 447.8 270.2 448.8 270.8L469.6 282.8C470.1 283.1 470.1 283.9 469.6 284.2Z" fill="#98A2F4"/>
<path d="M469.1 303.3C470.1 302.7 470.7 301.7 470.7 300.5L470.8 285.3C470.8 284.1 470.2 283.1 469.2 282.5L448.8 270.7C447.8 270.1 446.6 270.1 445.6 270.7L425.3 282.5C424.3 283.1 423.7 284.1 423.7 285.3L423.6 300.5C423.6 301.7 424.2 302.7 425.2 303.3" stroke="#171A21" stroke-width="2" stroke-miterlimit="10" stroke-linecap="round" stroke-linejoin="round"/>
<path d="M431.6 278.8L455.3 292.5L463.5 287.7L439.9 274L431.6 278.8Z" fill="white"/>
<path d="M445.1 277L439.9 274L431.6 278.8L436.8 281.8" stroke="#171A21" stroke-width="2" stroke-linecap="round" stroke-linejoin="round"/>
<path d="M450.1 289.5L455.3 292.5L463.5 287.7L458.4 284.7" stroke="#171A21" stroke-width="2" stroke-linecap="round" stroke-linejoin="round"/>
<path d="M417.6 317L396.8 305C396.3 304.7 395.6 305.1 395.6 305.7L395.5 321.4C395.5 322.6 396.1 323.6 397.1 324.2L417.5 336C418.5 336.6 419.7 336.6 420.7 336L441 324.2C442 323.6 442.6 322.6 442.6 321.4L442.7 305.7C442.7 305.1 442 304.7 441.5 305L420.9 317C419.8 317.6 418.6 317.6 417.6 317Z" fill="white"/>
<path d="M441.5 305L420.8 317C419.8 317.6 418.6 317.6 417.6 317L396.8 305C396.3 304.7 396.3 303.9 396.8 303.6L417.5 291.6C418.5 291 419.7 291 420.7 291.6L441.5 303.6C442 303.9 442 304.7 441.5 305Z" fill="#98A2F4"/>
<path d="M441 324.2C442 323.6 442.6 322.6 442.6 321.4L442.7 306.2C442.7 305 442.1 304 441.1 303.4L420.7 291.6C419.7 291 418.5 291 417.5 291.6L397.2 303.4C396.2 304 395.6 305 395.6 306.2L395.5 321.4C395.5 322.6 396.1 323.6 397.1 324.2" stroke="#171A21" stroke-width="2" stroke-miterlimit="10" stroke-linecap="round" stroke-linejoin="round"/>
<path d="M403.5 299.7L427.2 313.3L435.4 308.5L411.8 294.9L403.5 299.7Z" fill="white"/>
<path d="M417 297.9L411.8 294.9L403.5 299.7L408.7 302.7" stroke="#171A21" stroke-width="2" stroke-linecap="round" stroke-linejoin="round"/>
<path d="M422 310.3L427.2 313.3L435.4 308.5L430.2 305.5" stroke="#171A21" stroke-width="2" stroke-linecap="round" stroke-linejoin="round"/>
</g>
<path d="M474.2 226.8C474.2 220.4 477.6 214.4 483.2 211.2L512 194.6C513.2 193.9 514.7 194.1 515.6 195.1L520.2 201.1L482.5 314.2L475.4 312.3C474.8 311.7 474.5 311 474.5 310.2L474.2 226.8Z" fill="#2F58FF"/>
<path d="M479.2 231.8C479.2 225.4 482.6 219.4 488.2 216.2L515.7 200.3C517.7 199.1 520.2 200.6 520.2 202.9V291C520.2 292.1 519.6 293.1 518.7 293.6L483.9 313.7C481.9 314.9 479.4 313.4 479.4 311.1L479.2 231.8Z" fill="#98A2F4"/>
<path d="M515.7 200.2C517.7 199 520.2 200.5 520.2 202.8V291C520.2 292.1 519.6 293.1 518.7 293.6L483.9 313.7C481.9 314.9 479.4 313.4 479.4 311.1" stroke="#171A21" stroke-width="2" stroke-miterlimit="10" stroke-linecap="round" stroke-linejoin="round"/>
<path d="M379.8 270.1C385.8 266.6 398.1 271.5 398.1 281L359.7 384.8L353.4 381.9C352.8 381.3 352.5 380.6 352.5 379.8V287.6C352.5 286.5 353.1 285.5 354 285L379.8 270.1Z" fill="#2F58FF"/>
<path d="M384.8 275.1C390.8 271.6 398.3 275.9 398.3 282.9L398.5 360.6C398.5 361.7 397.9 362.7 397 363.2L362 383.4C360 384.6 357.5 383.1 357.5 380.8V292.6C357.5 291.5 358.1 290.5 359 290L384.8 275.1Z" fill="#98A2F4"/>
<path d="M398.6 360.6C398.6 361.7 398 362.7 397.1 363.2L362.1 383.4C360.1 384.6 357.6 383.1 357.6 380.8" stroke="#171A21" stroke-width="2" stroke-miterlimit="10" stroke-linecap="round" stroke-linejoin="round"/>
<path d="M152.3 279.8C152.3 279.7 152.3 279.6 152.3 279.5C152.3 279.4 152.3 279.4 152.3 279.3C152.3 279.3 152.3 279.3 152.3 279.2V279.1C152.3 279 152.3 278.9 152.3 278.8C152.3 278.7 152.3 278.6 152.2 278.4C152.2 278.3 152.2 278.2 152.1 278.1C152.1 278 152.1 277.9 152 277.7V277.6V277.5C152 277.4 152 277.4 152 277.3C152 277.2 151.9 277 151.9 276.9C151.9 276.8 151.8 276.7 151.8 276.6C151.8 276.6 151.8 276.6 151.8 276.5C151.8 276.4 151.7 276.3 151.7 276.1C151.7 276 151.6 275.9 151.6 275.7C151.6 275.7 151.6 275.7 151.6 275.6C151.6 275.6 151.6 275.6 151.6 275.5C151.6 275.4 151.5 275.3 151.5 275.3C151.5 275.2 151.4 275.1 151.4 275C151.4 274.9 151.3 274.8 151.3 274.8C151.2 274.7 151.2 274.6 151.1 274.5C151 274.4 151 274.3 150.9 274.1C150.9 274.1 150.9 274.1 150.9 274C150.9 274 150.9 274 150.9 273.9C150.8 273.8 150.8 273.7 150.7 273.6C150.6 273.5 150.6 273.4 150.5 273.2C150.5 273.1 150.4 273.1 150.4 273C150.4 273 150.4 273 150.4 272.9C150.3 272.8 150.3 272.7 150.2 272.6C150.1 272.4 150 272.3 149.9 272.1C149.9 272.1 149.9 272.1 149.9 272C149.8 271.8 149.6 271.6 149.5 271.4C149.4 271.3 149.3 271.1 149.2 271C149.1 270.9 149 270.8 148.9 270.7C148.8 270.6 148.7 270.5 148.6 270.4C148.5 270.3 148.4 270.2 148.3 270.1C148.3 270.1 148.3 270.1 148.3 270C148.2 269.9 148.2 269.9 148.1 269.8C148 269.7 147.9 269.6 147.8 269.5L147.7 269.4C147.7 269.4 147.7 269.4 147.6 269.3L147.5 269.2C147.4 269.1 147.3 269 147.2 268.9L147.1 268.8C147.1 268.8 147.1 268.8 147 268.7L146.9 268.6C146.8 268.5 146.7 268.4 146.6 268.4C146.5 268.3 146.4 268.3 146.4 268.2C146.3 268.1 146.2 268.1 146.1 268C146 267.9 145.9 267.9 145.8 267.8C145.8 267.8 145.8 267.8 145.7 267.8L134.4 261.3C134.4 261.3 134.3 261.3 134.3 261.2L134.2 261.1H134.1C134.1 261.1 134 261.1 134 261C134 261 133.9 261 133.9 260.9H133.8H133.7C133.7 260.9 133.7 260.9 133.6 260.9C133.5 260.9 133.5 260.9 133.4 260.9H133.3C133.2 260.9 133.2 260.9 133.1 260.9C133.1 260.9 133.1 260.9 133 260.9C133 260.9 133 260.9 132.9 260.9C132.9 260.9 132.9 260.9 132.8 260.9C132.7 260.9 132.7 260.9 132.6 260.9C132.5 260.9 132.5 260.9 132.4 261C132.3 261 132.2 261.1 132.1 261.1L128.6 263.1C128 263.5 127.6 264.3 127.6 265.4C127.6 267.6 129.2 270.4 131.1 271.5L140.7 277C141.7 277.6 142.4 278.9 142.4 280L142.2 404.7C142.2 406.9 143.8 409.7 145.7 410.8C146.7 411.4 147.6 411.4 148.2 411L151.7 409C151.8 408.9 152 408.8 152.1 408.7L152.2 408.6C152.2 408.5 152.3 408.5 152.3 408.4C152.3 408.3 152.4 408.2 152.4 408.2C152.4 408.1 152.5 408.1 152.5 408C152.5 407.9 152.5 407.9 152.6 407.8C152.6 407.7 152.6 407.7 152.6 407.6V407.5C152.6 407.5 152.6 407.5 152.6 407.4C152.6 407.3 152.6 407.3 152.6 407.2C152.6 407.1 152.6 407.1 152.6 407C152.6 406.9 152.6 406.9 152.6 406.8C152.6 406.7 152.6 406.7 152.6 406.6L152.8 279.9C152.3 280 152.3 279.9 152.3 279.8ZM128.4 262.9H128.3H128.4ZM128.7 262.8H128.6C128.6 262.9 128.7 262.9 128.7 262.8ZM129.3 262.9C129.3 262.9 129.4 262.9 129.3 262.9H129.2C129.3 262.9 129.3 262.9 129.3 262.9ZM129.7 263H129.6H129.7ZM130 263.1H129.9C130 263.1 130 263.1 130 263.1ZM128.9 262.8H129C129 262.8 128.9 262.9 128.9 262.8Z" fill="#2F58FF"/>
<path d="M183.1 257.5C183.1 257.4 183.1 257.3 183.1 257.2C183.1 257.1 183.1 257.1 183.1 257C183.1 257 183.1 257 183.1 256.9V256.8C183.1 256.7 183.1 256.6 183.1 256.5C183.1 256.4 183.1 256.3 183 256.1C183 256 183 255.9 182.9 255.8C182.9 255.7 182.9 255.6 182.8 255.4V255.3V255.2C182.8 255.1 182.8 255.1 182.8 255C182.8 254.9 182.7 254.7 182.7 254.6C182.7 254.5 182.6 254.4 182.6 254.3C182.6 254.3 182.6 254.3 182.6 254.2C182.6 254.1 182.5 254 182.5 253.8C182.5 253.7 182.4 253.6 182.4 253.4C182.4 253.4 182.4 253.4 182.4 253.3C182.4 253.3 182.4 253.3 182.4 253.2C182.4 253.1 182.3 253 182.3 253C182.3 252.9 182.2 252.8 182.2 252.7C182.2 252.6 182.1 252.5 182.1 252.5C182 252.4 182 252.3 181.9 252.2C181.8 252.1 181.8 252 181.7 251.8C181.7 251.8 181.7 251.8 181.7 251.7C181.7 251.7 181.7 251.7 181.7 251.6C181.6 251.5 181.6 251.4 181.5 251.3C181.4 251.2 181.4 251.1 181.3 250.9C181.3 250.8 181.2 250.8 181.2 250.7C181.2 250.7 181.2 250.7 181.2 250.6C181.1 250.5 181.1 250.4 181 250.3C180.9 250.1 180.8 250 180.7 249.8C180.7 249.8 180.7 249.8 180.7 249.7C180.6 249.5 180.4 249.3 180.3 249.1C180.2 249 180.1 248.8 180 248.7C179.9 248.6 179.8 248.5 179.7 248.4C179.6 248.3 179.5 248.2 179.4 248.1C179.3 248 179.2 247.9 179.1 247.8C179.1 247.8 179.1 247.8 179.1 247.7C179 247.6 179 247.6 178.9 247.5C178.8 247.4 178.7 247.3 178.6 247.2L178.5 247.1C178.5 247.1 178.5 247.1 178.4 247L178.3 246.9C178.2 246.8 178.1 246.7 178 246.6L177.9 246.5C177.9 246.5 177.9 246.5 177.8 246.4L177.7 246.3C177.6 246.2 177.5 246.1 177.4 246.1C177.3 246 177.2 246 177.2 245.9C177.1 245.8 177 245.8 176.9 245.7C176.8 245.6 176.7 245.6 176.6 245.5C176.6 245.5 176.6 245.5 176.5 245.5L165.2 239C165.2 239 165.1 239 165.1 238.9L165 238.8H164.9C164.9 238.8 164.8 238.8 164.8 238.7C164.8 238.7 164.7 238.7 164.7 238.6H164.6H164.5C164.5 238.6 164.5 238.6 164.4 238.6C164.3 238.6 164.3 238.6 164.2 238.6H164.1C164 238.6 164 238.6 163.9 238.6C163.9 238.6 163.9 238.6 163.8 238.6C163.8 238.6 163.8 238.6 163.7 238.6C163.7 238.6 163.7 238.6 163.6 238.6C163.5 238.6 163.5 238.6 163.4 238.6C163.3 238.6 163.3 238.6 163.2 238.7C163.1 238.7 163 238.8 162.9 238.8L159.4 240.8C158.8 241.2 158.4 242 158.4 243.1C158.4 245.3 160 248.1 161.9 249.2L171.5 254.7C172.5 255.3 173.2 256.6 173.2 257.7L173 382.4C173 384.6 174.6 387.4 176.5 388.5C177.5 389.1 178.4 389.1 179 388.7L182.5 386.7C182.6 386.6 182.8 386.5 182.9 386.4L183 386.3C183 386.2 183.1 386.2 183.1 386.1C183.1 386 183.2 385.9 183.2 385.9C183.2 385.8 183.3 385.8 183.3 385.7C183.3 385.6 183.3 385.6 183.4 385.5C183.4 385.4 183.4 385.4 183.4 385.3V385.2C183.4 385.2 183.4 385.2 183.4 385.1C183.4 385 183.4 385 183.4 384.9C183.4 384.8 183.4 384.8 183.4 384.7C183.4 384.6 183.4 384.6 183.4 384.5C183.4 384.4 183.4 384.4 183.4 384.3L183.6 257.6C183.1 257.7 183.1 257.6 183.1 257.5ZM159.3 240.6H159.2C159.2 240.6 159.2 240.6 159.3 240.6C159.2 240.6 159.2 240.6 159.3 240.6ZM159.5 240.6H159.4C159.5 240.6 159.5 240.6 159.5 240.6ZM160.2 240.6H160.1C160.1 240.6 160.1 240.6 160.2 240.6ZM160.5 240.7H160.4H160.5ZM160.9 240.9H160.8C160.8 240.8 160.8 240.9 160.9 240.9ZM159.7 240.6H159.8C159.8 240.6 159.8 240.6 159.7 240.6Z" fill="#2F58FF"/>
<path d="M168.1 450.3L183.3 441.7L167.1 416.1L153 424L168.1 450.3Z" fill="#2F58FF"/>
<path d="M160.2 425C156.2 422.7 152.7 423.2 150.8 425.8C149.9 427.1 149.4 428.9 149.4 431.1C149.4 431.4 149.4 431.6 149.4 431.9C149.7 438.6 154.4 446.4 160.1 449.7C165.8 453 170.5 450.6 170.9 444.3C170.9 444 170.9 443.8 170.9 443.5C170.9 441.2 170.4 438.8 169.5 436.5C167.6 431.8 164.2 427.3 160.2 425Z" fill="white"/>
<path d="M160.2 431.2C158.2 430 156.5 430.3 155.5 431.6C155 432.2 154.8 433.1 154.8 434.3C154.8 434.4 154.8 434.6 154.8 434.7C155 438 157.3 441.9 160.2 443.6C163.1 445.2 165.4 444 165.6 440.9C165.6 440.8 165.6 440.6 165.6 440.5C165.6 439.4 165.3 438.2 164.9 437C163.9 434.6 162.2 432.3 160.2 431.2Z" fill="#98A2F4"/>
<path d="M251 418.5C251 418.7 251 418.8 251 419C251 419.2 251 419.4 250.9 419.5C250.9 419.6 250.8 419.8 250.8 419.9C250.8 420.1 250.7 420.2 250.7 420.4C250.6 420.5 250.6 420.7 250.5 420.8C250.4 421 250.3 421.2 250.2 421.3C250.1 421.5 249.9 421.8 249.8 422L249.7 422.1C249.5 422.3 249.3 422.6 249.1 422.8L249 422.9C248.8 423.1 248.5 423.4 248.3 423.6C248.1 423.8 247.9 423.9 247.8 424C247.6 424.1 247.5 424.3 247.3 424.4C247.1 424.5 246.9 424.7 246.7 424.8C246.5 424.9 246.3 425.1 246 425.2C245.6 425.4 245.2 425.6 244.8 425.8C244.7 425.9 244.6 425.9 244.5 426C244.1 426.2 243.8 426.3 243.4 426.5C243.3 426.5 243.3 426.5 243.2 426.6C242.8 426.8 242.4 426.9 241.9 427C241.6 427.1 241.3 427.2 241 427.3C240.8 427.4 240.5 427.4 240.3 427.5C240 427.6 239.7 427.6 239.3 427.7C239.1 427.7 238.9 427.8 238.6 427.8C237.9 427.9 237.3 428 236.6 428.1C236.4 428.1 236.2 428.1 236 428.2C235.6 428.2 235.2 428.3 234.8 428.3C234.5 428.3 234.3 428.3 234 428.3C233.7 428.3 233.4 428.3 233 428.3C232.7 428.3 232.5 428.3 232.2 428.3C231.9 428.3 231.6 428.3 231.3 428.3C231 428.3 230.8 428.3 230.5 428.2C230.2 428.2 229.9 428.1 229.6 428.1C229.3 428.1 229.1 428 228.8 428C228.5 428 228.2 427.9 227.9 427.8C227.7 427.8 227.4 427.7 227.2 427.7C226.8 427.6 226.5 427.5 226.1 427.4C225.9 427.3 225.6 427.3 225.4 427.2C225.3 427.2 225.2 427.1 225 427.1C224.6 427 224.3 426.9 223.9 426.7C223.8 426.7 223.7 426.6 223.6 426.6C223.3 426.5 223 426.3 222.7 426.2C222.6 426.1 222.4 426.1 222.2 426C221.8 425.8 221.3 425.6 220.9 425.3L170.8 397C167.4 395 165.6 392.4 165.6 389.8V397.6C165.6 400.2 167.3 402.8 170.8 404.8L220.9 433.1C221.3 433.3 221.7 433.6 222.2 433.8C222.3 433.9 222.5 433.9 222.7 434C223 434.1 223.2 434.2 223.5 434.3C223.5 434.3 223.6 434.3 223.6 434.4C223.7 434.4 223.8 434.5 223.9 434.5C224.2 434.6 224.6 434.7 225 434.9C225.1 434.9 225.2 435 225.4 435C225.5 435 225.6 435.1 225.6 435.1C225.7 435.1 225.9 435.2 226 435.2C226.4 435.3 226.7 435.4 227.1 435.5C227.2 435.5 227.3 435.6 227.4 435.6C227.5 435.6 227.7 435.6 227.8 435.7C228.1 435.8 228.4 435.8 228.7 435.9C228.8 435.9 228.9 435.9 229.1 436C229.2 436 229.4 436 229.5 436C229.8 436 230.1 436.1 230.4 436.1C230.5 436.1 230.7 436.1 230.8 436.1C230.9 436.1 231.1 436.1 231.2 436.1C231.5 436.1 231.8 436.1 232.1 436.1C232.2 436.1 232.4 436.1 232.5 436.1C232.6 436.1 232.7 436.1 232.9 436.1C233.2 436.1 233.5 436.1 233.9 436.1C234.1 436.1 234.2 436.1 234.4 436.1C234.5 436.1 234.6 436.1 234.7 436.1C235.1 436.1 235.5 436.1 235.9 436C236.1 436 236.2 436 236.4 436H236.5C237.2 435.9 237.8 435.8 238.5 435.7H238.6C238.8 435.7 239 435.6 239.2 435.6C239.5 435.5 239.8 435.5 240.2 435.4C240.4 435.3 240.7 435.3 240.9 435.2C241.2 435.1 241.5 435 241.8 434.9C241.9 434.9 241.9 434.9 242 434.8C242.4 434.7 242.7 434.6 243.1 434.4C243.2 434.4 243.2 434.4 243.2 434.3C243.6 434.2 244 434 244.3 433.8C244.4 433.8 244.5 433.7 244.6 433.6C245 433.4 245.4 433.2 245.8 433C245.9 433 245.9 432.9 246 432.9C246.2 432.8 246.3 432.7 246.4 432.6C246.6 432.5 246.8 432.3 247 432.2C247.2 432.1 247.3 431.9 247.5 431.8C247.7 431.7 247.9 431.5 248 431.4L248.1 431.3C248.3 431.1 248.5 430.9 248.7 430.7L248.8 430.6C248.9 430.5 249 430.3 249.1 430.2C249.2 430.1 249.3 430 249.3 429.9L249.4 429.8C249.5 429.6 249.7 429.4 249.8 429.2C249.8 429.2 249.8 429.1 249.9 429.1C250 428.9 250.1 428.7 250.2 428.6C250.2 428.5 250.3 428.4 250.3 428.3V428.2C250.4 428 250.4 427.9 250.4 427.7C250.4 427.6 250.5 427.5 250.5 427.3V427.2C250.5 427 250.5 426.8 250.6 426.7C250.6 426.6 250.6 426.5 250.6 426.3C250.6 426.2 250.6 426.2 250.6 426.1L251 418.5Z" fill="#2F58FF"/>
<path d="M171.2 397.3C164.4 393.4 164.3 387 171.1 383C177.9 379.1 188.9 379.1 195.8 383L245.9 411.3C252.7 415.2 252.8 421.6 246 425.6" fill="#98A2F4"/>
<path d="M171.2 397.3C164.4 393.4 164.3 387 171.1 383C177.9 379.1 188.9 379.1 195.8 383L245.9 411.3C252.7 415.2 252.8 421.6 246 425.6" stroke="#171A21" stroke-width="2" stroke-miterlimit="10" stroke-linecap="round" stroke-linejoin="round"/>
<path d="M144.8 417.8C138 413.9 137.9 407.5 144.7 403.5C151.5 399.6 162.5 399.6 169.4 403.5L219.5 431.8C226.3 435.7 226.4 442.1 219.6 446.1L206.5 454.7L144.8 417.8Z" fill="#98A2F4"/>
<path d="M224.6 439C224.6 439.2 224.6 439.3 224.6 439.5C224.6 439.7 224.6 439.9 224.5 440C224.5 440.1 224.4 440.3 224.4 440.4C224.4 440.6 224.3 440.7 224.3 440.9C224.2 441 224.2 441.2 224.1 441.3C224 441.5 223.9 441.7 223.8 441.8C223.7 442 223.5 442.3 223.4 442.5L223.3 442.6C223.1 442.8 222.9 443.1 222.7 443.3L222.6 443.4C222.4 443.6 222.1 443.9 221.9 444.1C221.7 444.3 221.5 444.4 221.4 444.5C221.2 444.6 221.1 444.8 220.9 444.9C220.7 445 220.5 445.2 220.3 445.3C220.1 445.4 219.9 445.6 219.6 445.7C219.2 445.9 218.8 446.1 218.4 446.3C218.3 446.4 218.2 446.4 218.1 446.5C217.7 446.7 217.4 446.8 217 447C216.9 447 216.9 447 216.8 447.1C216.4 447.3 216 447.4 215.5 447.5C215.2 447.6 214.9 447.7 214.6 447.8C214.4 447.9 214.1 447.9 213.9 448C213.6 448.1 213.3 448.1 212.9 448.2C212.7 448.2 212.5 448.3 212.2 448.3C211.5 448.4 210.9 448.5 210.2 448.6C210 448.6 209.8 448.6 209.6 448.7C209.2 448.7 208.8 448.8 208.4 448.8C208.1 448.8 207.9 448.8 207.6 448.8C207.3 448.8 207 448.8 206.6 448.8C206.3 448.8 206.1 448.8 205.8 448.8C205.5 448.8 205.2 448.8 204.9 448.8C204.6 448.8 204.4 448.8 204.1 448.7C203.8 448.7 203.5 448.6 203.2 448.6C202.9 448.6 202.7 448.5 202.4 448.5C202.1 448.5 201.8 448.4 201.5 448.3C201.3 448.3 201 448.2 200.8 448.2C200.4 448.1 200.1 448 199.7 447.9C199.5 447.8 199.2 447.8 199 447.7C198.9 447.7 198.8 447.6 198.6 447.6C198.2 447.5 197.9 447.4 197.5 447.2C197.4 447.2 197.3 447.1 197.2 447.1C196.9 447 196.6 446.8 196.3 446.7C196.2 446.6 196 446.6 195.8 446.5C195.4 446.3 194.9 446.1 194.5 445.8L144.4 417.5C141 415.5 139.2 412.9 139.2 410.3V418.1C139.2 420.7 140.9 423.3 144.4 425.3L194.5 453.6C194.9 453.8 195.3 454.1 195.8 454.3C195.9 454.4 196.1 454.4 196.3 454.5C196.6 454.6 196.8 454.7 197.1 454.8C197.1 454.8 197.2 454.8 197.2 454.9C197.3 454.9 197.4 455 197.5 455C197.8 455.1 198.2 455.2 198.6 455.4C198.7 455.4 198.8 455.5 199 455.5C199.1 455.5 199.2 455.6 199.2 455.6C199.3 455.6 199.5 455.7 199.6 455.7C200 455.8 200.3 455.9 200.7 456C200.8 456 200.9 456.1 201 456.1C201.1 456.1 201.3 456.1 201.4 456.2C201.7 456.3 202 456.3 202.3 456.4C202.4 456.4 202.5 456.4 202.7 456.5C202.8 456.5 203 456.5 203.1 456.5C203.4 456.5 203.7 456.6 204 456.6C204.1 456.6 204.3 456.6 204.4 456.6C204.5 456.6 204.7 456.6 204.8 456.6C205.1 456.6 205.4 456.6 205.7 456.6C205.8 456.6 206 456.6 206.1 456.6C206.2 456.6 206.3 456.6 206.5 456.6C206.8 456.6 207.1 456.6 207.5 456.6C207.7 456.6 207.8 456.6 208 456.6C208.1 456.6 208.2 456.6 208.3 456.6C208.7 456.6 209.1 456.6 209.5 456.5C209.7 456.5 209.8 456.5 210 456.5H210.1C210.8 456.4 211.4 456.3 212.1 456.2H212.2C212.4 456.2 212.6 456.1 212.8 456.1C213.1 456 213.4 456 213.8 455.9C214 455.8 214.3 455.8 214.5 455.7C214.8 455.6 215.1 455.5 215.4 455.4C215.5 455.4 215.5 455.4 215.6 455.3C216 455.2 216.3 455.1 216.7 454.9C216.8 454.9 216.8 454.9 216.8 454.8C217.2 454.7 217.6 454.5 217.9 454.3C218 454.3 218.1 454.2 218.2 454.1C218.6 453.9 219 453.7 219.4 453.5C219.5 453.5 219.5 453.4 219.6 453.4C219.8 453.3 219.9 453.2 220 453.1C220.2 453 220.4 452.8 220.6 452.7C220.8 452.6 220.9 452.4 221.1 452.3C221.3 452.2 221.5 452 221.6 451.9L221.7 451.8C221.9 451.6 222.1 451.4 222.3 451.2L222.4 451.1C222.5 451 222.6 450.8 222.7 450.7C222.8 450.6 222.9 450.5 222.9 450.4L223 450.3C223.1 450.1 223.3 449.9 223.4 449.7C223.4 449.7 223.4 449.6 223.5 449.6C223.6 449.4 223.7 449.2 223.8 449.1C223.8 449 223.9 448.9 223.9 448.8V448.7C224 448.5 224 448.4 224 448.2C224 448.1 224.1 448 224.1 447.8V447.7C224.1 447.5 224.1 447.3 224.2 447.2C224.2 447.1 224.2 447 224.2 446.8C224.2 446.7 224.2 446.7 224.2 446.6L224.6 439Z" fill="#2F58FF"/>
<path d="M144.8 417.8C138 413.9 137.9 407.5 144.7 403.5C151.5 399.6 162.5 399.6 169.4 403.5L219.5 431.8C226.3 435.7 226.4 442.1 219.6 446.1" fill="#98A2F4"/>
<path d="M144.8 417.8C138 413.9 137.9 407.5 144.7 403.5C151.5 399.6 162.5 399.6 169.4 403.5L219.5 431.8C226.3 435.7 226.4 442.1 219.6 446.1" stroke="#171A21" stroke-width="2" stroke-miterlimit="10" stroke-linecap="round" stroke-linejoin="round"/>
<path d="M187.5 402.4L151.9 381.8C151 381.3 149.8 381.9 149.8 383L149.7 409.8C149.7 411.8 150.7 413.6 152.5 414.6L187.4 434.8C189.1 435.8 191.2 435.8 192.9 434.8L227.6 414.6C229.3 413.6 230.3 411.8 230.3 409.8L230.4 382.9C230.4 381.8 229.2 381.2 228.3 381.7L192.9 402.3C191.4 403.4 189.3 403.4 187.5 402.4Z" fill="white"/>
<path d="M228.5 381.8L193.1 402.4C191.4 403.4 189.3 403.4 187.6 402.4L152 381.8C151.1 381.3 151.1 379.9 152 379.4L187.4 358.8C189.1 357.8 191.2 357.8 192.9 358.8L228.5 379.4C229.4 379.9 229.4 381.3 228.5 381.8Z" fill="#98A2F4"/>
<path d="M227.7 414.6C229.4 413.6 230.4 411.8 230.4 409.8L230.5 383.7C230.5 381.7 229.5 379.9 227.7 378.9L192.8 358.7C191.1 357.7 189 357.7 187.3 358.7L152.6 379C150.9 380 149.9 381.8 149.9 383.8L149.8 409.9C149.8 411.9 150.8 413.7 152.6 414.7" stroke="#171A21" stroke-width="2" stroke-miterlimit="10" stroke-linecap="round" stroke-linejoin="round"/>
<path d="M163.5 372.7L204 396L218.2 387.8L177.7 364.4L163.5 372.7Z" fill="white"/>
<path d="M168.7 369.6L163.5 372.7L168.7 375.7" stroke="#171A21" stroke-width="2" stroke-linecap="round" stroke-linejoin="round"/>
<path d="M178.7 381.4L193.8 390.1" stroke="#171A21" stroke-width="2" stroke-linecap="round" stroke-linejoin="round" stroke-dasharray="11.58 11.58"/>
<path d="M198.8 393L204 396L209.2 393" stroke="#171A21" stroke-width="2" stroke-linecap="round" stroke-linejoin="round"/>
<path d="M213 390.8L218.2 387.8L213 384.8" stroke="#171A21" stroke-width="2" stroke-linecap="round" stroke-linejoin="round"/>
<path d="M202.9 379L187.9 370.3" stroke="#171A21" stroke-width="2" stroke-linecap="round" stroke-linejoin="round" stroke-dasharray="11.58 11.58"/>
<path d="M182.9 367.4L177.7 364.4L172.5 367.4" stroke="#171A21" stroke-width="2" stroke-linecap="round" stroke-linejoin="round"/>
<path d="M187.5 364.7L151.9 344.1C151 343.6 149.8 344.2 149.8 345.3L149.7 372.1C149.7 374.1 150.7 375.9 152.5 376.9L187.4 397.1C189.1 398.1 191.2 398.1 192.9 397.1L227.6 376.9C229.3 375.9 230.3 374.1 230.3 372.1L230.4 345.2C230.4 344.1 229.2 343.5 228.3 344L192.9 364.6C191.4 365.7 189.3 365.7 187.5 364.7Z" fill="white"/>
<path d="M228.5 344.1L193.1 364.7C191.4 365.7 189.3 365.7 187.6 364.7L152 344.1C151.1 343.6 151.1 342.2 152 341.7L187.4 321.1C189.1 320.1 191.2 320.1 192.9 321.1L228.5 341.7C229.4 342.3 229.4 343.6 228.5 344.1Z" fill="#98A2F4"/>
<path d="M227.7 376.9C229.4 375.9 230.4 374.1 230.4 372.1L230.5 346C230.5 344 229.5 342.2 227.7 341.2L192.8 321C191.1 320 189 320 187.3 321L152.6 341.2C150.9 342.2 149.9 344 149.9 346L149.8 372.1C149.8 374.1 150.8 375.9 152.6 376.9" stroke="#171A21" stroke-width="2" stroke-miterlimit="10" stroke-linecap="round" stroke-linejoin="round"/>
<path d="M163.5 335L204 358.3L218.2 350.1L177.7 326.7L163.5 335Z" fill="white"/>
<path d="M168.7 332L163.5 335L168.7 338" stroke="#171A21" stroke-width="2" stroke-linecap="round" stroke-linejoin="round"/>
<path d="M178.7 343.8L193.8 352.4" stroke="#171A21" stroke-width="2" stroke-linecap="round" stroke-linejoin="round" stroke-dasharray="11.58 11.58"/>
<path d="M198.8 355.3L204 358.3L209.2 355.3" stroke="#171A21" stroke-width="2" stroke-linecap="round" stroke-linejoin="round"/>
<path d="M213 353.1L218.2 350.1L213 347.1" stroke="#171A21" stroke-width="2" stroke-linecap="round" stroke-linejoin="round"/>
<path d="M202.9 341.3L187.9 332.6" stroke="#171A21" stroke-width="2" stroke-linecap="round" stroke-linejoin="round" stroke-dasharray="11.58 11.58"/>
<path d="M182.9 329.7L177.7 326.7L172.5 329.8" stroke="#171A21" stroke-width="2" stroke-linecap="round" stroke-linejoin="round"/>
<path d="M81.3 297.9L9.9 281.4C4.9 280.3 0.900004 284.5 1 290.9L1.1 336.8C1.1 343.2 5.2 349.3 10.1 350.5L34 356L33.8 356.3L43 370.3C43.8 371.5 44.8 372.3 45.9 372.5C46.9 372.7 48 372.5 48.8 371.6L57.9 361.8L57.7 361.4L81.7 366.9C86.7 368 90.7 363.8 90.6 357.4L90.5 311.5C90.3 305.1 86.3 299 81.3 297.9Z" fill="#2F58FF"/>
<path d="M59.5 311.2C58.5 311 57.6 311.2 56.9 312L44.7 325C44 325.8 43 326 42.1 325.8C41.1 325.6 40.2 324.9 39.5 323.8L35.1 317.1C34.4 316 33.4 315.3 32.5 315.1C31.5 314.9 30.6 315.1 29.9 315.9C28.4 317.4 28.5 320.5 29.9 322.7L39.6 337.5C40.3 338.6 41.3 339.3 42.3 339.5C43.3 339.7 44.2 339.5 44.9 338.7L62.1 320C63.6 318.4 63.5 315.4 62.1 313.2C61.4 312.1 60.4 311.4 59.5 311.2Z" fill="white"/>
</g>
<defs>
<clipPath id="clip0">
<rect width="534.2" height="456.8" fill="white"/>
</clipPath>
</defs>
</svg>
